<?xml version="1.0" encoding="utf-8"?>
<!-- Generator: Adobe Illustrator 24.0.1, SVG Export Plug-In . SVG Version: 6.00 Build 0)  -->
<svg version="1.1" id="Background_Details" xmlns="http://www.w3.org/2000/svg" xmlns:xlink="http://www.w3.org/1999/xlink" x="0px"
	 y="0px" viewBox="0 0 1920 1080" style="enable-background:new 0 0 1920 1080;" xml:space="preserve">
<style type="text/css">
	.st0{fill:#C2C6F7;}
	.st1{fill:#636466;}
	.st2{fill:#C7C8CA;}
</style>
<title>background</title>
<g id="Water">
	<path class="st0" d="M550.3,292.1l-4.4-16l-22.2-10.7L258.8,213l-21.3-8.9l-28.4-1.8l-17.8,16l-1.8,51.6l26.7,57.8
		c0,0,7.1,9.8,9.8,9.8s26.7,8,26.7,8l214.2,41.8l29.3-1.8l37.3-13.3l10.7-10.7l8.9-16l4.4-24.9L550.3,292.1z"/>
</g>
<g id="Pavement">
	<path class="st1" d="M1674.8,452.5l7.1-21.3l-12.4-112.9c-12-58.7-54.7-108.9-54.7-108.9l-38.2-34.7
		c-15.1-12.5-37.3-19.1-37.3-19.1l-56-3.1l-20-6.7l-27.1,1.8l-35.1-3.1l-82.2-4.9l-110.7-1l-68.2,21.9l293,10.4l52.2,0.9
		c57.5,8.9,105.2,52.2,105.2,52.2c22.2,22.5,42.7,60.5,42.7,60.5c17.5,27.9,19.6,80.9,19.6,80.9c0.6,26.9-15.6,73.9-15.6,73.9
		L1674.8,452.5z"/>
	<path class="st1" d="M869.4,881.9l3.1,2.7h5.3l71.1,33.8c17.1-1.8,34.1-4.9,50.7-9.3l28.4-12.4l111.1-54.2l26.2-16
		c0,0,36.4-24.9,50.7-53.3l-26.2-17.8c0,0-47.9,57.8-72.5,67.9l-91,39.1L947.1,888l-34.7-19.8l-8-29l21.9-53.7l-50.7,16l-15.1,21.3
		l1.8,11.1C862.3,833.9,859.2,865,869.4,881.9z"/>
	<polygon class="st1" points="713.9,884.1 737,876.1 783.5,876.4 779.1,872 731.2,871.7 	"/>
	<polygon class="st1" points="1206.1,503 1182.8,535 1179.2,533.2 1172.1,544.1 1189.3,555.8 1220.1,513.2 	"/>
	<path class="st1" d="M1079.2,944.3l1.8,2.5c-54.7,28.4-115.6,31.1-115.6,31.1l-382.7,0.9v12l374.7,2.4c14.2,0.3,37.3-2.4,37.3-2.4
		c23.7-3.8,60.7-14.8,60.7-14.8c13.2-3.7,26.1-8.4,38.5-14.3l122.7-64l3.9,6.8l44.1-24.3l-14.8-26.1L1079.2,944.3z"/>
	<path class="st1" d="M1521.7,784.9l-10.2-23.1l-3.9,1.7l75-37.8l96-50l-1.1-2.9l8.7-5.1l-7.8-15.3l-6.7,3.1l-2.8-5.7l-53.6,27.9
		l-1-1.1l0.2,0l80.9-43.8c51-40.3,66.4-113.8,66.4-113.8c5.2-17.3,2.9-31.7,1.5-37.4l-6.5-63.4l-18.6-27.3l-3.6-27.3l-3-29
		c-4.2-61.9-19-98.7-19-98.7c-12.4-38.2-27.8-51.6-27.8-51.6c-29.6-37.3-67.9-56.9-67.9-56.9l-3.8-2.7l-10.1-1.8
		c-27.8-11.9-94.8-20.2-94.8-20.2c-19.6-4.1-29.6-12.7-29.6-12.7l-12.1,0.3l-1.2,8c-0.3,4.2-4.7,5.9-4.7,5.9l-31.7,1.2
		c-13,0.3-11.6-11.9-11.6-11.9l-0.4,0V80.1l10.2-8l-2.2-7.5l-4.4,3.1l-18.7,4.9c0,0-76,0.9-77.3,0.9s-50.2,3.1-50.2,3.1l-24-0.5
		l-31.1-2.7l-21.3-1.8l-23.6-2.2h-41.3l-77.3-1.8l-68-1.8c0,0-9.8-0.9-12.9-1.3S961,62.3,961,62.3l-31.6-5.8c0,0-12,4-13.3,4
		s-42.7-12-42.7-12l-30.2-0.9l-41.3,0.9L765,49.4l-50.7,4l-40,4l-44-1.3l-47.5-5.3c0,0-32-2.7-36-2.7s-28-3.5-28-3.5l-40.9-1.8
		c-23.1,2.2-16.5-9.3-16.5-9.3L401,25.9l-18.7,9.3l-16.4,5.3c0,0-27.1,3.5-28.5,3.5s-86.7-5.8-86.7-5.8c-64.9-6.7-100,30.7-100,30.7
		c-45.4,39.1-38.4,93.3-38.4,93.3h0l17.2,108.4l17.8,81.2l23.1,80l48,147.6L228,608l10,23.1l15.4,22.5l19.6,27.3l16.6,17.8
		l17.8,11.3l16.6,18.4l14.8,22.5l47.4,62.2l24.3,30.8l13.6,26.7l7.1,26.1l4.1,27.8l10.6,23.7l16,32l20.7,17.2l16.6,10.1l24.9,5.3
		l52.2,7.1c0,0,26.1,1.8,28.4,1.8s7.2-3.6,7.2-3.6c1.8,0,11.3-8.3,11.3-8.3l7.1-8.3l-5.4-3.5l-19.6-3.6h-20.7l-5.3-2.3l-1.8-10.1
		l-26.1-8.9l-14.2-3.6l-17.2-13.6l-14.2-11.3L494,934.5l-16-10.7l-17.8-16c0,0-14.8-19.5-14.2-21.3s-6.5-0.6-6.5-0.6l4.1,16.6
		l12.4,16l30.2,26.1l-3.5,29l-10.7-1.2l-6.5-10.7l-13-23.7l-9.5-17.2l-1.8-10.1l-4.7-32.6l-3.6-11.2l-11.3-23.1l-29.6-39.1
		l-31.4-36.1l-23.1-33.8l-8.9-18.4l-21.9-20.7l-23.7-17.2l-16-23.1l-10.1-13l-20.1-33.8L219.1,560l-36.1-114.4L146.8,320l-11.9-65.2
		l-10.1-58.7l-5.3-35l-0.5,0.1c5.2-53.2,24.7-73.1,24.7-73.1c11.1-15.5,40.9-32.9,40.9-32.9l22.7-8.4H237l34.7,0.9l64.9,1.8l45,1.7
		c0.2,1.4,0.8,6.2-2.7,7l-60.1,4.7l-41.8,1.5c0,0-55.1-2.7-92.7,34.4c0,0-44.7,40.6-41.5,111.7c0,0,5.3,37.6,18.7,93.9l40.3,152.3
		l24.3,87.7c0,0,9.5,41,47.3,83.9l3.6,7.3l17.5,24l53.6,69.9l59,74.1c22.2,38.2,84.4,101.6,84.4,101.6l-9-12.5l54.4,46.1l69.9,22.2
		l131.6,3.8l242.7-3l75.3-14.2l123.6-60.2l127.4-65.8l-7.4-7.6l196.9-104.6l154.7-84l36.4-23.3c0,0,26.7-26.7,7.5-54.9
		c0,0,2.7,17.2-10.1,28.2l-61-65.8c0,0-22.8-21-24-39.4l-13.4,14.8l0,0c-5.6-1.3-10.7-1.7-15.2-1.3l4-13.6l24.9-68.2
		c12.7-39.3,4-70,4-70c-11.3-50.2-41.8-68-41.8-68l-24.2-20.5l-24.7-21.1l-19.3-12.9l-25.8-6.4l39.6,20l26.9,21.6l15.1,14
		c2.7,1.8,0.4,2.9,0.4,2.9l-6-2.2l-41.1-20.9c-25.6-11.9-52.7-20.7-80.4-26c-33.6-7.3-80-10.9-80-10.9l-37.6-3.8
		c-19.3-0.9-44.9-3.1-44.9-3.1c-14.7,0.2-19.3-2.7-19.3-2.7l-38.7-15.8l-14.4,0.2l24.7,10.4l20.2,8.2l-55.1-3.3l-169.1-7.6
		l-170.2-4.7C776.3,178.3,735,195,735,195c-10,3.8-23.1-3.6-23.1-3.6l-39.2-19c-32.6-4.7-47.4,8.9-47.4,8.9l-2.5,11l-3.1,36.4
		l5.1-1.3c-2.5-14.7,2.9-34.2,2.9-34.2c10.7-22.2,41.8-15.8,41.8-15.8l45.1,20.9c4,1.3,2.2,3.8,2.2,3.8l-44.2,30l2,2.5
		c29.3-23.3,78.9-39.8,78.9-39.8c45.1-13.1,83.1-10.7,83.1-10.7c21.8,2,24.7,19.6,24.7,19.6l0.1,0l0.2,24.9l-9.8-19.3
		c-3.3-5.1-11.3-3.5-11.3-3.5l-29.5,1.3l-0.5,13.3l3.6,4.2l18.2,0.4c9.8-2.2,12.7,1.8,12.7,1.8c4,13.5,15.5,14.9,15.5,14.9
		l-2.2,19.5l-4.4,23.1c-0.7,9.1-3.5,20.5-4.6,25c-4,1.8-5.8,3.9-5.8,3.9L815.7,343l-4.7-1.6l-32.4,2.9l1.8,2l-6.7,28.2l32.7,8.7
		l7.1-21.8l6.2-11.3l32.7-34.7c12.9-3.1,13.1,0.9,13.1,0.9L852,330.6c-9,13.5-15.6,32.8-19.2,45.5c-1.4,4.8-2.4,8.7-2.9,10.9
		c-2.9,9.7-5.6,26.9,2.4,47.3l18.7,28.5l-9.8,10.7l-6,2.2l-3.8,8.4l-3.1,8.2l14.7,7.6l28.3-7.4l15,15.6l0.3,9.8l8.3,1.5l-1.2-6.8
		l13.3,12.4l14.2,4.4l-46.4-39l12.9,8.3l50.7,20.4l1.5-4.2l11.1-37.3l1.1-7.6l7.8-12l7.6-9.8l-0.1-5.8l5.8-6.2l9.2-32.9l11-45
		l-7.1-8.3l-9.5-4.5l2.1-1.1l11.9,5l7.4,5l8.5,5.2l-8.1,15.2c0,0-3.6,7.1,3.1,16.4l12,15.4l-30,60.2l124.9,60l4.8,2.5
		c-1.8,3-7.4,9.5-20.6,8.2c0,0-85.3-43.6-125.1-58.2l-5.6,8.2l108.2,53.5l58.2,30c0,0,35.1,18.7,50.7,40.5c0,0,18.4,28.4,22.4,64.9
		c0,0,0,21.8-5.6,27.5c0,0,7.8-30-0.4-50.9c0,0-6.2-20-28.2-33.1l-14.7-4.4l-16.2-14l-2.4,3.1l9.3,9.5l-16-1.8l-18.4-6.7l0.2,3.1
		c0,0,22.5,11.3,35.1,35.3c0,0,15.3,24.2,17.6,63.7c0,0,3.3,42.8-7.7,56.7l-26.6,48.7l12.9-9.3l8.9-7.8l21.8-21.3l29.6-39.8
		l7.1-15.1l14.2,0.7c3.7-4.3,5.9-9.7,6.4-15.3c0,0,1.1-32.4-14.7-72.2l-19.3-37.3c0,0-15.6-20.2-28.9-21.8c0,0-20-8.2-13.1-23.1
		l0.6-0.8l5.4,2.8c24.7,11.3,46.4,34.2,46.4,34.2c28.2,30.9,37.6,71.8,37.6,71.8c4.4,15.3,6,36,2.4,65.8c-1.6,13.4-1,22.7,0.1,28.9
		l-12.9,6.9l5.3,11.8l-12.5,5.3l7.3,15.9l-28.3,14.1l9.2,18.4l34.7-17.5l-6.6-13.7l8.4,0.8l11-5.5l5,10.7l-228.1,117.6
		c0,0-46.8,17.8-77,18.1l-98.7,2.1l-35.5,5.4l-56.3-5.6l-18.1,4.2l-120.3-2.1c0,0-39.1-1.8-54.5-8.9l-29.9-12.2l-0.8-0.5L532.9,896
		v-9.8l6.5-21l13-27.6l8.9-9.2l27.5-16.3l5-1.8l46.8-5.6l2.4-5.3l-52.4,8l-30.5,16.9c-2.7-2.4-9.2-2.1-9.2-2.1
		c-6.8-21.3-49.5-25.2-49.5-25.2c-29.3-4.1-39.4-9.5-39.4-9.5c-19.3-9.2-32.6-25.8-32.6-25.8c-13-17.2-36.7-24.9-36.7-24.9l0.6,7.2
		c18.4,0.3,36.4,24,36.4,24c8.9,12.2,23.4,20.5,23.4,20.5l6.2,3.8l9.2,2.7l18.1,3.8l30.8,6.8c22.8,5.6,28.8,14.2,28.8,14.2
		c1.8,5,1.2,14.5,1.2,14.5l-1.2,5.6l-12.5,27.6c-9.7,21.9-5,36.4-5,36.4l-1.5,1.4l-0.3-0.2l-38.8-29.6l-11.5,9.2l-17.6-24.3
		l-45.6-60.2L377,734.2l-58.3-79.1c-27-41.5-18.4-82.1-18.4-82.1h5l0.9-26.3l3.3-3c23.7-44.7,61-45.9,61-45.9l39.4-9.5l97.5,28.2
		l96,30.2c55.7,10.4,89.5,56.6,89.5,56.6c29.9,40.3,25.5,83,25.5,83l35-14.2l-1.3-1.9l16.7,5.7l3.6-10.4l-19-7.7l-8.3-5.6
		l-26.4-84.4l-0.4-2l35.7,13.1l8.9-9.8l-5-4.4l29.3,14.4l41.5,19.5c0,0-16,35.3,14.5,60.5c0,0,11,7.1,34.4-6.5l26.1-16.6l38.2,19.3
		c0,0,16.9,7.7,28.2,29.6c0,0,18.1,40.3,41.5,61.9c0,0,25.5,26.1,58.7,25.5c0,0,32-2.7,60.4-21.6l12.2,2.7l2.9-47.2
		c0,0-15.4,22.2-24.6,27.8s-18.4,11.5-40.9,18c0,0-32.7,2.4-54.2-15.3c0,0-22.2-13.8-30.5-40.5c0,0-8.7-24.9-21.8-37.5
		c0,0-14.5-15.3-34.9-22.2l-50.7-24.9l-113.5-55.3l-93.3-43.8l-82.9-40.2c0,0-10.2-7.3-1.3-16.9l16.5-14.6l1.2-0.5L841,547.2
		l3.1,7.6l12.5,5.3l41.8-21.3L797,492.6l-114.7-64l3.1-8.9c0,0-51.5-27.6-57.8-108.5l-5.3-2.2l-20.9-112.9c0,0,1.3-63.1,88-56.9
		l126.7,5.8l4.9-4.4l28.6,7.5l-29-15.5l-333.8-10.2L481,237l46.7,12c0,0,23.5,8.4,38.7,27.6l32.9,147.1l4,13.2l-14.9,17
		c-3.7,5.3-10.7,7.3-16.7,4.7c0,0-40.3-20.4-88-30.1l-106.2-25L283.7,381c0,0-49.1-14.7-68.2-29.6c0,0-25.5-19.8-33.1-47.1l-16-58.4
		c0,0-10.3-46.8,17.5-59.3c0,0,18.4-7.7,32.9-10.1l53.3-1.8l9.5-6.2l-3-7.1l-3.2-1.4l-8.9,2.4l-6.2-2.4l-3.9-5.3h11.6l8.6-0.9
		l2.4,1.8c1,1,2.2,1.8,3.6,2.4c1.8,0.6,10.1,0.6,10.1,0.6l10.1-0.6l8.3-3.3c0,0,37.6,4.2,38.5,4.2c0.9,0,12.7,7.1,12.7,7.1h35.3
		l1.8-3.3l1.5-8.6l12.4-48.9l0.6-5l-6.5-6.5l-4.7-5.9l-0.1-4.2L433,85l2.4,4.9l-3.3,18.7l-2.4-0.7l-1.8,3.5l-3.8,10l-1.3,7.3
		l9.3,1.3l6.2-10.2l0.5-6.5l1.3-28.2l52,2l-1.1,18l10.9,1.1l6.4-17.8l102.5,3.3L780,97.7l143.8,7.1l167.4,4.7c9.2,0.3,13,4.5,13,4.5
		l6.8,0.6l182.2,6.2l148.4,6.8l96.9,7.4c39.7,4.5,76.4,23.1,76.4,23.1c28.1,16.9,49.5,46.5,49.5,46.5c2.1,4.2-7.7,12.2-7.7,12.2
		l19.6,28.4h10.4l5,14.8l13.9,97.8l7.4,94.5l-12.2,11.3l-20.2-3.6l8,7.4l25.5,12.1l7.2,7.4l-0.4,0.1l-3.3,44l-22.8-7.7l8,13l8,52.4
		l-42.7,46.8l-95.4,52.8l3.6-1.1l-94.9,53.8l1.8,5.3l-3.5,2l10,18.9l2.4-1.1l1.6,3l-14.1,6.1l-13.3-27.3l-66.7,34.7l11.9,26.1
		l-19.6,9.2l-8.3-20.1l-0.3-15.4l-9.5,4.7l5.3,17l-3.5-8.1l-116.4,59l4.6,10.6l116.3-58.4l4.7,15.3l-17.2,8.3l10.7,31.7l8,17.5
		l3.8,8.3l0.9,1.8l77.3-31.4l71.4-32.3l-8.7-19.8l3.6-1.8l5.3,2.4l4.3-1.9l-11.8-25L1521.7,784.9z M1398.3,652.4l-16.4-19.3l-7-5.2
		c0,0-12.2-9.9-12.6-10.4c-0.9-3,2.1-2.4,2.1-2.4l31.1,18.4l6.3,11.2l-0.1,0.1l4.6,9.5C1403.3,653.3,1400.6,652.7,1398.3,652.4z
		 M1583.4,493.5l-7.3,7.9l-4.4,8.9l-16.1,9.9l-10-8.6l6.5-8C1562.7,490.8,1578.5,492.6,1583.4,493.5z M942.1,449.2l-4,2.9l-0.7,3.8
		l-2,0.2l-6.9-2.4l-6.7-5.3L877,433.2l-2.4,3.6c-1.8,0.6-3.7,1-5.6,1.3h-4l-3.6,1.3l-1.8,5.3l4,8.9l6.4,6.2l10,13.1l8.9,9.8
		l-2.2,4.7l-10.9-0.2l-17.1-23.8l-19.4-31.5c0,0-7.7-16-5.9-32.1l4.2,11l3.8,8.3l27.6,7.1l73.6,22.5L942.1,449.2z M997.2,343
		l-18.9-7.6l-76.7-22.9l-33.8-4.9c-1.8-0.3-3.4-0.5-5-0.6c-7.5-19.1,2.1-42.3,2.1-42.3c2-11.3,3.4-22.7,4.2-34.2l-1.7-26.5l0.4,0
		c5.3-17.8,24.7-17.1,24.7-17.1l77.5,0.2l130.2,4.5l116.7,5.8l62.9,3.1c33.1,0.9,108.2,9.3,108.2,9.3c28.3,4.3,56.1,10.9,83.3,19.8
		l53.8,25.1l22.7,9.8c11.5,4.7,22,11.7,30.7,20.7c7.9,11.3,14.2,23.6,18.7,36.7c5.8,19.3,4.2,47.3,4.2,47.3
		c-1.8,19.8-16.7,61.1-16.7,61.1l-24.4,52.5l-3.1,4.9c-10.5,5.2-15.3,13.6-15.3,13.6l-38.5,39.7l-13.9,16.6
		c-9.8,7.4-28.4,10.7-28.4,10.7c-0.9-1.2-1.9-2.3-2.9-3.3h0c0,0,1.8-5.3,1.8-7.1s-0.4-9.8-0.4-9.8s3.6-10.2,4.9-12.9
		s4.4-14.2,4.4-14.2l2.2-10.2l4.4-11.1c0,0-0.4-10.2,2.2-11.6c2.7-1.3,7.1-4,7.1-4l1.8-6.2l0.9-7.6l-0.4-10.7l0.4-8l-2.2-1.3
		l-5.3-1.3l-12,24c-0.7,2.5-1.1,5-1.3,7.6c0,2.7-3.6,10.2-3.6,10.2l-17.8,68.4l0,0c-2.6-0.3-4.4-0.2-4.4-0.2c-2.1,0.2-4,0.5-5.8,1
		l2.2-4.4l5.8-12.5l14.7-42.7l15.1-62.2l5.8-18.7l-1.3-6.7l-8.9-3.1l-130.7-37.8l-9.8,11.6l-18.7,79.1l-7.1-1.7l0.4-2.8l15.5-81.3
		l-10.2-27.6l-82.7-17.3l-30.2,74.2l93.8,32.9l-0.9,3.1l-93.3-33.3l-7.1,16.4l93.8,33.3c4,4.9-0.4,5.8-0.4,5.8l20,5.8v0l-23.1-5.8
		l-19.1-4l-7.6-0.9l-5.3,0.4l-8.5,8.9l-6.2,7.6l-7.6,5.6l-9.9-6l-1.1-1.4l-5.8-8.5l-2.2-6.2l1.3-8.9l2.7-6.2l-24.5-7.6l7.7,25.4
		l-6.2-3.8l-3.3-10.1l-1.8-8.4l-5.8-1.3l-2.2,6.2l2.2,7.1l-8.6-5.4l2.8-8.4l-2.2-8l12-28.5l-6.7-4.4l-10.2,11.1l-37.8,11.9
		l-71.3-44.6L997.2,343z M1419.2,569.4l1.8,0.7c-1.4,2-1.9,3.4-1.9,3.4c-41.5,1.8-95.1-30.5-95.1-30.5l-33.7-20.4l9.3-38.6l4.4,0.6
		l6.7,4l3.1,4.9c0,0,0.9,3.6-0.4,5.8c-1.3,2.2-0.4,4.5-2.2,8.5s-4,11.1-4,11.1l0.4,9.3c0,0,6.2,6.7,6.7,8s2.7,0,2.7,0
		s3.1-5.3,3.1-7.5s1.3-6.2,0.9-8.5s5.8-16,6.2-19.6s2.2-4.5,2.2-4.5l4-0.9l-0.4,4.5l-0.4,7.1l-1.8,14.7l-2.7,8.9l-4.9,4.5l1.8,4.9
		l1.8,1.8l2.7,0.5h4.9l2.2-0.5l3.6-9.3c0,0,4.4-11.6,4.4-12.9s-0.4-5.8-0.4-5.8v-13.3l0.4-5.3c0,0,3.6-6.2,3.6-7.6
		c-0.1-0.6,0.1-1.3,0.4-1.8l5.8-0.4l3.6-4l13.3-50.7l-0.9-9.3l5.3-6.7c0.2-2.7-0.1-5.4-0.9-8c-1.3-3.5,2.7-7.5,2.7-7.5
		c1.7-0.9,3.5-1.6,5.3-2.2c1.8-0.5,2.2,5.3,1.8,8c-0.4,2.7,4,4,4,5.8v2.2l-0.9,8l-8.9,2.7c0,0-4.9,20.4-6.2,20.9s-10.2,36-10.2,36
		l0.9,2.7l1.8,1.8l-0.4,6.2l-8.4,7.5l-4,22.2v8.4c0,1.3-8,21.8-8,21.8l2.7,1.3l5.3,1.3l5.3-0.4l4.9-3.1c0,0,2.2-7.1,2.2-10.7
		s5.3-13.3,5.3-13.3l4.4-12c0,0,0.4-7.1,0-8.9c-0.4-1.8,2.2-7.6,2.2-7.6s7.6-11.5,7.6-13.3c0-1.8,3.6-10.7,3.6-10.7
		s3.1-15.1,3.6-17.8c0.4-2.7,0-2.7-2.7-4.9s-0.4-1.3-1.8-3.1c-1.3-1.8,2.2-1.8,2.2-1.8h4.9l1.8-2.7v-8c0,0-2.2-5.8-3.1-8.4
		s2.2-5.3,2.2-5.3s9.3-17.3,9.3-18.7c0-1.3,2.2-1.3,2.2-1.3l4.4-0.4l2.2,5.3l-31.1,107.1l-4,12.9l-1.3,12.9v6.7
		c0,1.6,0.2,3.3,0.4,4.9l-0.4,8.4l6.7-2.2c0,0,3.6-2.7,4.4-4.4s5.8-5.3,5.8-5.3l1.8-4.9l1.8-7.5l-1.8-2.7c0,0-2.7-4.9-4.4-5.8
		s2.2-8,2.2-8s7.1-4.9,7.6-6.2s3.6-4,3.6-4l28.4-98.7c1.8-3.5,4.9,1.3,4.9,1.3l-29.8,98.2l-4.4,22.7l-11.1,29.3l5.8-0.9l9.3,2.7
		l1.3-4.5l7.1-16.4l37.8-128c2.7-5.3,7.1-0.5,7.1-0.5l-42.7,149.8L1419.2,569.4z M1313.9,460.1l16.9-66.2l1.3-6.2l8.9-4.5l7.1-2.2
		c0,0,6.2,3.1,8,2.7s4,3.5,4,3.5l-0.9,4.5l0.9,5.3l-2.2,9.3l-7.1,23.6l-9.8,31.5l-0.4,4.9l-4.9,7.6l1.8,3.1
		c-0.4,1.8-1.1,3.5-2.2,4.9c-1.8,2.2-3.1-0.5-12.4-0.9c-9.3-0.4-3.6-0.4-8.4-1.3s-7.1-3.1-10.7-4c-0.7-0.2-1.3-0.2-2-0.1l0.2-0.8
		l-0.9-4.4h6.2c0,0,3.1-0.9,5.3-1.8S1313.9,460.1,1313.9,460.1z M1296.6,369.4l-13.8,46.2l-70.7-22.2l12.4-42.2L1296.6,369.4z
		 M1136.3,554.6c0,0-1.3,2.2-6.4,0.2l-9.8-6c0,0-5.3-6.8,0.6-15.6l22.5,11.7L1136.3,554.6z M1160.6,477.4l-140.9-82.2l-2.1,4.2
		l-11.9-13.1c0,0-5.1-6.2,0.9-14.9l5.4-8.6l22,13.4l120.6,74.4l19.6,12l-5.8,11.7C1166.6,476.8,1163.5,478,1160.6,477.4z
		 M1248.4,636.3l19.3-26.4l-63-41l-37.5-25.8c-4.6-3.5-1.8-9.6-1.8-9.6l12-20.3c4.9-7,2-12.4,2-12.4c-1.6-5.3,1.3-10.7,1.3-10.7
		l6.2-9.3c2.5-3.6,5.6-4.9,8-5.3l49.3,30.3l-3.6,1.2l99.3,61.3c26.4,14.5,50.1,18.1,50.1,18.1s-3.8,11.6-4.7,11.9s0.9,3.8,0.9,3.8
		l7.4,4.4l13,15.7l71.7-34.4l83.9-37l-6.9-12.3l26.1-20.6l20,2.2l9.6-0.4c3.3,3.5,6.9,7.1,11,11l35.4,39c0,0,7.3,7.1,1.6,11.1
		c0,0-2.9,2-5.3-5.6l-7.8-14.7l-25.8-27.3l-212.8,108.7l-8.5-15.5l-2,0.9l-12.7-25.9c0,0-3.8-1.3-1.2,4.3l8.7,20l-0.7,2.7l0.1,0
		l-0.1,0l-39.6-24.7c0,0,0,0-0.1,0.1c-2.3,2-2.4,5.5-0.4,7.8l4.3,5l12,9.5l9.1,8.5l13.8,17.6c-0.3,0-0.8-0.1-1.3-0.2l-31.8-26.1
		c-1.7-1.5-3.7-2.7-5.8-3.5l3.1-1.8l-2.2-1.8c-2.4-16-14-19.6-14-19.6l-15.3-6.4l12.6-19.8l-23.8-16.9l-16.2,21.6l-76.7-54.7
		l-21.8,30.2l109,79.4l-1.9,2.6l-32.9-21.1l-11.6,14.9l14.2,33.8l-10.9,18c-1.7,2.9-3.8,3.4-5.7,2.9
		C1255.8,656.5,1248.4,636.3,1248.4,636.3z M1320.6,596.3l0.1-0.2l17,7.1c8.4,3.8,4,13.3,4,13.3l-8.4,7.8l-15.4,7.5l-5.6-4
		l17.6-25.4L1320.6,596.3z M1258.2,749.4c0,3.9-3.3,2.1-3.3,2.1c-4.4-5.3-1-25.8-1-25.8c1-4.5,1.8-8.9,2.4-13.3l20.5-37.7
		c3-5.1,6.9-9.7,11.6-13.3l54.9-22.2l-1.6-6l8,2.2l18,11.8l3.3,4.9l-3.6,0c-27.4-0.3-47.7,7.7-47.7,7.7
		c-28.2,15.1-41.5,32.4-41.5,32.4C1257.2,713.4,1258.2,749.4,1258.2,749.4z M1264.9,770.9l2.1-2.5l-2.4-8l1.3-3.4l-0.4-13.2
		c2.7-28.9,18.8-46.8,18.8-46.8c9.1-11.6,20.5-21.1,33.5-28c10-4,20.5-6.6,31.3-7.8c25-2.8,27.1,0.2,27.1,0.2
		c1.9,6.4-2.7,9.7-5.1,10.9l-8.7-3.5l-10.9-0.5l-5,4.1h-3.4l-5,2.4l-1.6-5l-16.7,6.2l1.8,6.1l-2.8,5.6l5.6,11.6l-2.6,1.3l5.8,17.5
		l-1.1,4.2l-19.8,9.3c0,0-4.1,4.3-1.7,8.9l7.2,24.1l-2.2,1l-12.8-43.4l-27.8,8.3l14.7,50.4l-9.8,4.4l4,9.2l-3.8,2l-4.3-9.4
		L1264.9,770.9z M716,544l23,11.3l-6.9,6.1l-15.7-4.4l-1.1-5.3C715.3,551.7,713,544.3,716,544z M228.6,393.8c0,0,12.9-1.2,35.6,1.7
		l-0.1,2.8l-2.7,2.9l0.2,3.6l1.1,3.3l7.5,7.6l7.3,16.9l-24.7-9c-0.6-3.3-2.1-6.7-4.8-10.2c0,0-4.4-6.5-21-11
		C227.2,402.3,220.9,396.1,228.6,393.8z M225.9,448c8.2,1.7,16.6-0.6,22.8-6.2c0,0,3.5-4.6,4.4-11.2l23.7,6.4l5.1,0.7l17.3,23.3
		l1.1-7.1l-9.8-14.2l4.2,1.8l1.1-2l1.5-3.3l-10.9-0.4l-2.5-3.1l-11.5-26.5c-3.2-6.1,0.7-8.1,4.4-8.7c6.4,1.1,13.4,2.5,21,4.3
		l122,28.1l85,20.4c27.8,8,54.8,18.3,80.9,30.8l101,47.7c0,0,0.6,3.8-1.5,3.3l-49.1-23.4l-2.8,5.5l-38.1-17
		c-25.2-13.3-35.8-14.8-35.8-14.8l-181.3-6.8c-25.8-2.1-65.5,14.8-65.5,14.8c-2.4,9.2-8.9,17.5-8.9,17.5l-23.1,28.5
		c-3.6,15.6-12.6,32.2-15.9,38.1c-3.4-3.3-13.4-14.7-17.9-34.5L224.1,456l-1.2-4.2L225.9,448z M1360.6,88.1l-1,6.4l-0.3,0l-3.8,7.4
		c-1.9,3.4-5.3,5.8-9.2,6.5l-27.6,0.6c-6.5-0.3-4.7-5.3-4.7-5.3l-132-3.6l-159.6-6.7L809,84.6l-135.6-6.2l-92-2.7l-62.5,0.1
		l-121-6.8l-2.9-0.5l-3.9-8l0.6-8.9l-1.7-0.1l1.7,0.1l16.3,0.6l56.9,1.3l46.2-1.3l58.7,7.6l58.7,4.4h56.9l51.1-3.5L805,57l36.4-1.3
		l16.9,1.8l14.7,1.3c0,0,28.9,4.4,32.9,5.3s16.4,3.6,16.4,3.6l32.9,3.1l36.9,3.1h80.9l75.1,2.7l36.4,3.1l42.2,2.7l32.4,0.4l25.3-0.4
		c0,0,20.4-0.9,21.8-1.3s16.4-1.3,16.4-1.3l14.2,0.4h25.3L1360.6,88.1z M1406.4,93.3l-0.1,0c-2.4,9.2-8,9.8-8,9.8h-21
		c-10.1,0.6-8.3-8-8.3-8l-0.9-0.1l2.7-10.5l3.6-4.9h12.9l19.6,1.3L1406.4,93.3z"/>
	<polygon class="st1" points="1558.2,761.9 1534.3,773.7 1549,805.4 1564,799.2 1567.4,806 1585.3,798.2 1567.1,759.8 	"/>
	<polygon class="st1" points="1571.2,755.1 1579.8,773.2 1591.7,768 1582.5,748.7 	"/>
	<polygon class="st1" points="1606.6,733.4 1599.1,737.6 1608.1,759.2 1658.5,735.5 1648.8,713 	"/>
	<polygon class="st1" points="1655.9,717 1677.9,767 1693.4,759.7 1671,710.3 	"/>
	<path class="st1" d="M1354.8,880.1l-14.2-12.4c-6.2,12-16.9,7.1-16.9,7.1l-7.1,3.1c-23.6,0-23.6-9.3-23.6-9.3l-21.8,8.9l28.5,44
		l5.3,0.5c0-4,9.8,0,9.8,0c6.2,4.4,9.8,0.9,9.8,0.9c7.1,0,5.3-9.3,5.3-9.3c4.9,0,5.8-7.5,5.8-7.5c-0.9-10.7,11.1-9.8,11.1-9.8
		c8.9,4,14.7-7.5,14.7-7.5l-3.1-9.3L1354.8,880.1z"/>
	<path class="st1" d="M1487.2,442.3c4.4,3.5,4.9,2.7,5.8,8.5c0.9,5.8-0.4,18.2-0.4,18.2l0.9,4.9c-0.9,2.2-1.6,4.4-2.2,6.7
		c-0.4,2.2-4.4,6.2-4.4,6.2s-6.7,23.1-6.2,24.4s-14.2,49.3-14.2,49.3l10.2,1.8c0,0,4-4.4,5.3-4.4s4.4-1.8,3.6-5.8
		c-0.4-2.2-1.3-4.4-2.7-6.2c1.1-0.9,2.3-1.6,3.6-2.2c1.3-0.5,0.4,6.2,3.1-3.6s1.3-13.8,1.3-13.8s3.1-9.8,4.9-10.7s7.1-1.3,5.8,3.1
		s-2.7,4-2.7,6.2s-4.4,4.9-1.3,7.6s0,8.4,3.1,2.7s-0.9-6.7,5.3-8.9s7.6-6.7,9.3-8s3.1-10.2,3.1-10.2s-3.1-6.2-5.8-8
		c-2.7-1.8-7.6-4.4-7.6-4.4l-2.2-17.3l-1.3-4c0,0-4-5.8-1.3-8c2.7-2.2,3.1-6.2,3.1-6.2l-3.1-3.1c0,0-2.2-1.8-2.2-3.1
		c0-1.3-1.3-9.8-1.3-9.8c-4.9-1.8-8.4-3.5-8.4-4.9s-0.4-6.7-0.4-6.7l0.4-5.3c0,0,1.8-2.2,0-2.7c-2-0.6-3.9-1.4-5.8-2.2l1.8,6.7
		C1484.1,429,1482.8,438.8,1487.2,442.3z"/>
	<path class="st1" d="M1774.3,525.9l-2.2,12.4l-9.8,25.8l-11.1,25.3l-20.4,27.6l-13.3,16.4c0,0-8.9,9.3-11.6,9.3s-8.4-0.5-8.4-0.5
		l-3.6-6.7L1677,645l13.3,23.1l21.8-9.8l20-9.8l26.2-56.9c0,0,13.3-33.8,14.7-34.2s7.1-18.2,7.1-19.5v-10.7L1774.3,525.9z"/>
	<polygon class="st1" points="1740.6,340.1 1742.3,353.9 1739.7,365.9 1746.8,388.6 1766.8,385.9 1773.9,429.9 1779.7,429 
		1769.9,333.4 1765,333.9 1760.6,309.9 1748.1,241 1742.8,228.6 1729.4,229 1719.7,202.3 1710.3,203.2 1723.2,256.6 	"/>
	<path class="st1" d="M693.2,1001.4c0,0-3.6-3.5-7.1-3.5s-14.2,3-14.2,3s-7.1,3-11.3-0.6s-0.6-5.3-7.7-4.7s-17.8,1.8-17.8,1.8
		l10.7,5.3l1.2,7.1c0,0-2.4,3.6,4.1,3s21.9-0.6,21.9-0.6s18.4,2.4,20.7,1.2s9.5-5.9,12.5-5.3l8.9,1.7l-1.2-7.1L693.2,1001.4z"/>
</g>
<g id="Buildings">
	<polygon class="st2" points="809.9,352.8 780.3,345.7 773.7,374.8 803.1,381.9 	"/>
	<polygon class="st2" points="878.3,374.8 848.7,367.1 842.2,392.6 871.8,400.3 	"/>
	<polygon class="st2" points="1217.4,513.4 1208.1,505.9 1185,539.2 1177.9,535.2 1173.4,541.9 1189.4,553 	"/>
	<polygon class="st2" points="1307.7,633 1329.4,602.3 1319.8,595.4 1334.8,572.1 1310.3,555.7 1295,577.3 1219.7,522.8 1197,552.6 
			"/>
	<polygon class="st2" points="1319.2,688.1 1293.9,699.2 1306.8,726.3 1332.1,714.3 	"/>
	<polygon class="st2" points="1307.7,772.1 1294.9,725.9 1273,732.1 1285.4,778.3 	"/>
	<polygon class="st2" points="1214.8,823.2 1246.1,808.6 1239.9,795.2 1229.9,800.3 1228.8,797.2 1216.8,803 1217.9,805.7 
		1209.2,810.3 	"/>
	<polygon class="st2" points="1279.9,788.1 1285,785.7 1283,781.2 1277.9,784.1 	"/>
	<polygon class="st2" points="1336.3,670.6 1319.2,676.3 1324.3,688.6 1340.8,682.8 	"/>
	<polygon class="st2" points="1347.2,753 1360.6,746.6 1352.3,731 1339,737.9 	"/>
	<polygon class="st2" points="1470.3,691.2 1461,674.1 1365.4,722.8 1375.2,740.1 	"/>
	<polygon class="st2" points="1420.6,678.6 1413.2,663.7 1391.4,674.1 1399.2,688.8 	"/>
	<polygon class="st2" points="1402.3,646.8 1407.7,657.9 1629.4,544.6 1620.3,535.2 1609.9,540.6 1600.4,523.5 1595.4,526.2 
		1604.5,543.3 1512.4,590.4 1503.2,573.3 1498.2,575.7 1507.5,593 1408,643.9 1398.6,626.3 1393.3,629 1402.9,646.5 	"/>
	<polygon class="st2" points="1564.7,583.6 1471.4,632.1 1478.8,646.6 1572.8,598.3 	"/>
	<polygon class="st2" points="1472.8,692.8 1651.4,600.3 1627.9,553.7 1571,583 1579.4,601 1456.8,661.7 	"/>
	<polygon class="st2" points="1508.1,824.6 1512.1,833 1526.3,826.3 1522.3,818.3 	"/>
	<polygon class="st2" points="1522.3,785 1534.8,809 1543.7,805.9 1532.1,781 	"/>
	<polygon class="st2" points="1536.2,775 1548.6,802.8 1562.8,795.7 1567.7,803.7 1582.8,797 1565.9,761 	"/>
	<polygon class="st2" points="1571.7,755.2 1579.7,773.9 1591.7,767.7 1582.8,748.1 	"/>
	<polygon class="st2" points="1599.7,738.8 1608.6,758.3 1657.9,735.7 1648.1,714.8 	"/>
	<polygon class="st2" points="1449,572.1 1445.9,558.8 1432.6,560.6 1433.9,574.3 	"/>
	<polygon class="st2" points="1061,430.3 1026.8,412.6 1009.4,445 1043.2,464.1 	"/>
	<path class="st2" d="M1121.4,926.8l-64,31.5l-33.8,11.1l-21.8,5.3l-17.3,2.2l-89.3,1.3l-312,0.9l0.5,11.6l406.2,0.9
		c34.7-3.6,100.4-29.3,100.4-29.3l169.8-86.7l-9.3-15.1L1121.4,926.8z"/>
	<polygon class="st2" points="1259.2,856.1 1263.7,866.3 1379.7,807.7 1374.3,797.4 	"/>
	<polygon class="st2" points="1663.7,652.6 1482.8,746.3 1495.2,770.3 1677.4,674.3 	"/>
	<polygon class="st2" points="1345,87.7 1314.8,87.2 1314.3,101.9 1345,102.3 	"/>
	<polygon class="st2" points="1398.9,784 1412,807.7 1480.1,773.9 1468.8,747.8 	"/>
</g>
</svg>
