<?xml version="1.0" encoding="utf-8"?>
<!-- Generator: Adobe Illustrator 24.0.1, SVG Export Plug-In . SVG Version: 6.00 Build 0)  -->
<svg version="1.1" id="Inactive_Configs" xmlns="http://www.w3.org/2000/svg" xmlns:xlink="http://www.w3.org/1999/xlink" x="0px"
	 y="0px" viewBox="0 0 1920 1080" style="enable-background:new 0 0 1920 1080;" xml:space="preserve">
<style type="text/css">
	.st0{fill:#A7A9AC;}
</style>
<title>inactive</title>
<path class="st0" d="M1755,741c-14-9.3-31.7-12.9-43.4-15.3c-1-0.2-2-0.4-2.9-0.6c-29.3-6.1-73.6-18.4-96.8-28.7
	c-70.7-31.2-111.6-98.1-126.4-150.3c-7.8-27.4-17.6-65.1-28.1-105c-13.3-50.6-27-103-37.1-136.8c-24.6-82.8-52-123.7-94.7-141.3
	c-48.1-19.8-89.3-17.6-122.3,6.7c-26.6,19.6-42.4,49.2-53.1,72.8c-25.3,55.6-61.9,129.1-92.8,163.5c-44.3,49.2-90.5,57.5-129.8,59.2
	c-47.7,2.1-98.9-20-133.6-57.5c-13.9-15-35.7-45.4-51.5-67.7c-4.9-6.9-9.5-13.3-13.3-18.4c-17.1-23.2-31-42.4-43.3-59.3
	c-48.4-66.5-63.1-86.6-95.9-118.5c-31.8-31-66.5-46.1-103-45c-56.7,1.8-96.6,41.4-107.5,53.5c-56.6,62.7-163.8,187.9-216.5,252.6
	c-35.2,43.2-10,80.6,8.2,99.1c9.5,9.7,23.8,23.6,37.6,37c3.3,3.2,6.5,6.3,9.5,9.3c0.2,0.3,0.3,0.5,0.4,0.5c0.5,0.6,1,1.1,1.7,1.5
	c4.8,4.7,9.2,9,12.9,12.7c38,37.6,29.5,76.3,17.9,105.8l-1.1,2.7c-12.9,32.7-19.4,49.2-19.4,70c0,58.6,16.6,106.6,49.3,142.7
	c25.9,28.6,61.2,48.1,99.4,55c66.5,12,162.6,24.6,293.7,38.4c30.3,3.2,50.6,4.3,66.6,4.3c14.8,0,25.9-0.9,37.8-1.9
	c2.4-0.2,4.9-0.4,7.4-0.6c91.6-7.3,225.7-27.7,318.6-42.5c32.2-5.1,56.1-9.7,75.1-14.5c36.8-9.3,84.9-24.2,135.9-40.1
	c59.3-18.5,120.6-37.6,174.7-51.1c116.3-29.2,163.7-7.3,209.4,13.8c7,3.2,14.2,6.6,21.5,9.6c9.4,3.9,17.7,4.3,24.9,1.1
	c9.7-4.3,14.3-14.1,16.1-19.5c0.7-1.9,1.5-4.2,2.3-6.6c4.3-12.3,10.3-29.1,12.1-39.1C1779.4,770,1772.5,752.7,1755,741z
	 M178.4,497.2c-19.3-19.6-36.3-50.4-7.6-85.7l0,0c52.6-64.6,159.6-189.6,216.1-252.2c21.1-23.4,58.5-48.9,100.4-50.2
	c1.2,0,2.4-0.1,3.6-0.1c31.6,0,61.8,13.5,89.9,40.1c-42.3-34.6-83.4-36.7-112-31.5c-35.3,6.5-58.9,24.8-60.5,26c0,0,0,0,0,0
	c0,0,0,0,0,0c-0.1,0.1-0.2,0.2-0.3,0.3c-0.1,0.1-0.2,0.2-0.3,0.3l0,0c0,0,0,0,0,0L182.3,406.5c-1.9,1.7-11.7,11.1-16.7,26.3
	c-5.1,15.2-6.2,39.4,16.7,68.3C180.9,499.7,179.6,498.4,178.4,497.2z M1765.6,790.8c-1.6,9.2-7.7,26.2-11.7,37.5
	c-0.9,2.5-1.7,4.8-2.4,6.7c-1.3,3.9-4.5,10.8-10.8,13.6c-4.5,2-10.2,1.6-16.9-1.2c-7.1-3-14.3-6.3-21.2-9.5
	c-23.3-10.8-47.4-21.9-80.8-26.6c-37.5-5.3-81.8-1.3-135.2,12.1c-54.3,13.6-115.7,32.8-175.2,51.3c-50.8,15.8-98.8,30.8-135.3,40
	c-18.8,4.7-42.3,9.3-74.2,14.4c-92.7,14.7-226.6,35.2-317.8,42.4c-2.5,0.2-5,0.4-7.4,0.6c-24.1,2-44.9,3.7-102.5-2.3
	c-130.8-13.8-226.7-26.3-293-38.3c-67.9-12.2-140.5-68-140.5-187.9c0-19,5.9-33.8,18.7-66.3l1.1-2.7c5.4-13.7,11.5-32,10.5-52.4
	c-1.1-23.5-11.4-45-30.7-64.1c-4.1-4-9-8.8-14.3-14.1c-4.8-6.7-26.9-37.9-35.7-48.8c-38.5-48.3-2.7-80-1.2-81.4l0.3-0.3l225.5-262.4
	c2.9-2.2,24.7-18.1,55.8-23.8c44.5-8.2,85.7,7.6,122.5,46.9c18.2,19.5,69.1,74,69.1,74l0.5-0.5c4.6,6.3,9.6,13.2,15,20.6
	c12.3,16.9,26.3,36,43.3,59.3c3.7,5.1,8.3,11.5,13.2,18.3c16.9,23.7,38,53.1,52.3,68.6c35.1,37.9,86.2,60.8,134.8,60.8
	c2.2,0,4.4,0,6.6-0.1c41.4-1.8,90.1-10.6,136.8-62.5c31.8-35.3,68.9-109.7,94.5-166c23.2-51.1,65.3-114.5,162.4-74.4
	c39.6,16.3,65.4,55.4,89,134.9c10,33.7,23.7,85.9,37,136.5c10.5,39.9,20.4,77.7,28.2,105.2c15.4,54.4,58.1,124.1,132,156.7
	c24.7,10.9,69.4,23.2,98.8,29.3c0.9,0.2,1.9,0.4,3,0.6C1740.3,741.8,1772.5,751.7,1765.6,790.8z"/>
</svg>
