<?xml version="1.0" encoding="utf-8"?>
<!-- Generator: Adobe Illustrator 24.0.1, SVG Export Plug-In . SVG Version: 6.00 Build 0)  -->
<svg version="1.1" id="Background_Details" xmlns="http://www.w3.org/2000/svg" xmlns:xlink="http://www.w3.org/1999/xlink" x="0px"
	 y="0px" viewBox="0 0 1920 1080" style="enable-background:new 0 0 1920 1080;" xml:space="preserve">
<style type="text/css">
	.st0{fill:none;}
	.st1{fill:#636466;}
	.st2{fill:#C7C8CA;}
</style>
<title>background</title>
<g id="Bridge_1_">
	
		<rect x="1116.1" y="665.4" transform="matrix(2.998533e-02 -0.9996 0.9996 2.998533e-02 440.5525 1794.8789)" class="st0" width="57.8" height="10.1"/>
	
		<rect x="1081.6" y="665.2" transform="matrix(3.960955e-02 -0.9992 0.9992 3.960955e-02 396.7825 1753.2887)" class="st0" width="57.8" height="10.1"/>
</g>
<g id="Pavement">
	<path class="st1" d="M1702.3,318.5c0,0-1.8-14.1-5.5-18.1c0,0-6.1-8.1-22.5-17c0,0-2.5,0.1-1.8,1.6c0,0,9.3,7.1,12.9,23.8l1.3-0.4
		l5.6,44l-2.2,0.2l4,29l5.2-0.7v-5l-1.8-1.8l-0.6-5.9C1697,368.1,1706.3,329.5,1702.3,318.5z"/>
	<polygon class="st1" points="1590.3,271.8 1636.8,283.4 1635.2,279.7 1590,268.6 	"/>
	<path class="st1" d="M1357.9,743.2l1.1,11.3l26.9-16.7c23.6-16,22-30.9,22-30.9l1.8-3.1l-3.6-4.7c-0.4-10.9-13.6-26.7-13.6-26.7
		l2.7,25.5l-12,23.1L1357.9,743.2z"/>
	<path class="st1" d="M1413,944.6l-4-3.7l-1.9-4l-7.4-15.5c0,0-10.2,37.8-10.4,38.2s-33.8,24.6-33.8,24.6s-55.4,22.8-56,22.8
		s-30.4,1.8-30.4,1.8l-32.2-9.8l-25.8-18.1l19.8,32.6c27.9,8.3,58.1,8.2,58.1,8.2l0.6-2.5l24-6.7l31.6-15.8l33.8-16.8
		c27.7-11.1,34.2-29.3,34.2-29.3C1414,945.9,1413,944.6,1413,944.6z"/>
	<path class="st1" d="M1435.9,958.2l-0.4-4.3h-3c0,0,1.5,10.5,5.6,17.6c0,0,3.8,6.9-3.1,10.3l-12.6,6.2l-2.7,0.6l-1-0.9V987
		l17.3-8.3l-0.2-1.1l-3.4-1.1l-12-12.1l-16.4,10.6l10.4,12.8c0,0,2.3,3.4-0.8,4.5l-17.8,9.6l-2.4,0.8l-3.2-0.6l-1.7-0.6l-2.3-2.7
		l-2.7-3.9c0,0-2.2-2.8-8.4-0.8l-8.4,2.9l-7.2,1.9c0,0-5.2,1.7-5.6,1.9s-6.6,2.3-6.6,2.3l-8.9,4.5l-10,6.8l-11.1,6.5l-8.6,4.1
		l-10,5.4l-53.5,37.6l-13-50.8l-14.7,4.3l-12.9-37.1l-8.9-27l11.4-6.8l2.5-2.2l20.5,25.2l5.9,7.1l10.2,8.2c0,0,8.9,4.7,9.6,4.7
		s5.2-0.2,5.2-0.2s1.6-0.6,2.2-3.3s0.2-3.1,0.2-3.1s3.8-6.5,4.1-8.6s1.6-7.3,1.5-10.5s2.2-4.7,2.5-7s1.3-8.6,1.3-8.6
		s2.1-7.8,2.2-8.9s3.6-7.3,3.6-7.3l0.7-11.8c0.2-0.5,0.3-1,0.1-1.5c-0.6-1.4-0.9-3-1-4.5c0.3-1,0.7-2,1.4-2.9c0,0,1.4-3,1.8-4.2
		c0.2-1,0.1-1.9-0.2-2.9l0-0.1l6.2-4.2c2.5-0.1,4.1,0.6,5.1,1.5l0,3.2l-2.1,20.8l-5.4,51.1l4.4,0.3l2.3-21.8l2.2-2.6
		c0,0,2-1.9,3.6-1.8c1.1,0,2.1,0.3,3,0.9c0.8,0.4,1.6,1,2.2,1.7c0.4,0.6,2.3,3.7,2.3,3.7l10.8,21v1.7l6.3-2c-1-0.7-2-1.3-3.1-1.9
		c-0.3,0-1.6-0.1-1.7-0.5s-1.3-2.4-1.3-2.4v-0.1c0.8-0.2,1.7-0.4,1.8-0.5c0.9-0.6,1.9-1.2,2.9-1.6c0.6-0.1,3.3-1.7,4.2-2
		c1.1-0.6,2.1-1.3,3-2.1c0.4-0.3,1.3-1.8,1.8-2.5c0.4-0.6,0.8-1.2,1.2-1.8c0.4-0.7,0.8-1.5,1.3-2.4s0.7-2.3,1.3-3.2s0.8-1.3,1.8-1.6
		s2.7-0.7,3.6-0.9s3.5-0.8,3.8-0.9c0.5-0.1,1,0.3,1.1,0.9c0,0,0,0.1,0,0.1c0.2,1.2,0.4,2.4,0.7,3.6c0.1,0.1,0.2,0.3,0.3,0.5l-9,3.7
		l2.8,7.8l30.2-15.8l13-12l3.1-10.1l-1.9-12.6l-23.1-47.1c0,0-4.7,3.6-0.2,15.1l18.2,33.6c0,0,6.5,9.9-1.9,21.6l-5,5l-23.8,9.7
		l-3-10.2c0,0,12.7-4.4,13-4.4s10.4-4.3,10.4-4.3l9-3.1c0,0,1.9-2.3-0.7-3.8c0,0-17.6-6.9-17.5-7.1s1.3-3.3,1.5-3.7
		c0.1-0.2,0.7-2,1.2-3.4l2.8,0.8l3-8.9l-2.4-0.6l-0.6-1.5l2.4-1.5l-12.3-20.4l-3.5,2.1l-0.8-1.4c-0.5-0.2-0.9-0.3-1.4-0.4
		c-0.4-0.1-1.9-0.3-2.4-0.3s-16.4-2.5-16.4-2.5c-0.5-0.3-0.9-0.8-1.1-1.3c-0.2-0.8-1-1.6-0.8-3.3s-1-4.4-1-4.7
		c0.2-0.9,0.4-1.7,0.7-2.6l7.4-18.6l3.1-2l2.4,0.2l16.4,20.2l-1.3-4l-11-22.4l-4.6-5.1l-17.2-34.1l-5.8-16c0,0-7.6-30.1,15.7-49.9
		l5-5.2l7.4-7.5l-21.6,7.8c0,0-20.7,13.3-16.2,53.1c0,0,1.9,7.6,7.4,17.8l-5.9-9c-11.8-23.2-10.2-36.7-10.2-36.7
		c0.7-10.9,11.8-19.7,11.8-19.7l2-1.6l2.2-1.9c0.5-0.4,6.2-2.9,6.6-3.1s14-6,14.3-6.2s4.4-1.6,4.4-1.6c1.6-0.4,3.1-0.9,4.6-1.5
		c1.3-0.7,4.5-1.8,5.3-2.3c1.2-0.8,2.4-1.6,3.5-2.5c0.7-0.6,3.2-2.1,3.2-2.1l2.8-2.3l7-7.5c0,0,1-1.5,1.3-2.4s1-1.5,1.6-2.4
		c0.6-1,1.1-2,1.6-3.1c0.2-0.7,1.2-2.7,1.2-2.7s1-2.8,1.2-3.7s0.8-4.7,0.9-5s0.5-6.6,0.5-6.6s0.3-4.9,0.2-6.5
		c-0.2-1.6-0.5-3.1-1-4.6c0,0-3.3-6.1-4.1-6.7l-3.4-2.8c0.6,1.1,1.1,2.2,1.6,3.4c0.4,1.1,1.6,3.2,1.8,4.7s1.6,3.4,1.6,4.4
		c0.1,0.9,0.3,1.8,0.5,2.7c0.1,1.4,0.1,2.7,0.1,4.1c-0.1,1.1,0,2.3,0.2,3.4c0,1-0.1,2-0.3,3c-0.1,0.9-0.2,1.8-0.2,2.7
		c-0.2,1-0.4,1.9-0.7,2.9l-1.3,3.2l-2.7,5.5c0,0-2.3,3.7-2.6,4c-0.6,1.1-1.3,2.1-2,3.1c-0.7,0.8-1.4,1.6-2,2.4l-3,2.7l-5.4,3.8
		c0,0-5.4,3-5.8,3.3s-10.5,4.9-11.2,4.9s-7.1,2.7-7.4,2.8s-10.9,4.7-10.9,4.7l-3.9,1.8l-0.9-1.3c1.2-0.5,2.4-1.1,3.6-1.8
		c1.3-0.8,4.9-2.5,5.6-3s4.6-1.8,5-2.1s7.6-2.8,7.6-2.8c16.7-7,20.4-12.1,20.4-12.1c8.7-10.1,6.9-20.8,6.7-21.4s-0.6-3-1-4
		c-0.4-1.7-0.7-3.5-0.8-5.3c0,0-0.8-2.9-1.1-4.1s-1.5-4.4-1.5-4.9s-5-13.6-5-13.6s-1.6-3.3-1.8-3.8c-0.2-0.9-0.2-1.9-0.2-2.8
		c-0.1-1.1,1.5-2.4,1.5-2.4c0.3-0.2,0.7-0.4,1.1-0.6c0.6-0.2,1.9,0.4,2.8,0.4s4.1,2.1,4.8,2.3s-7.7-9.1-7.7-9.1s-4.3-2.4-4.7-2.6
		s-6.8-4.2-7-4.3s-16.2-14.4-16.2-14.4s-13.4-12-13.6-12.2l-18-18.4l-4.4-7l-20.4-24.2l-4.7-6.9l9.3,8l14.9,10.5l-53.6-62
		l-27.8-50.5l-4.2-34l5.8-34.2l17.8-25.6l22-31.3l18.4-12.4l37.8-5.1l16.2-1.8l-31.1-9.1c0,0-29.1-12.7-46.2,10l-29,39.2v-3.1
		l25.5-34.4c4.7-6.1,10.7-11.2,17.6-14.8c7.8-4.4,19.6-1.7,19.6-1.7l22.8,7.2l33.7,9.3l3.9-0.1l-32-9.7l-28.2-8.7
		c-14.3-2.6-28.8,3-37.6,14.5l-16.3,21.3c0,0-5.8,9-10.5,16c0.7-2,1.3-3.3,1.3-3.4c0.3-0.4,1.3-4.7,2.8-7s3-6.1,4.2-7.7
		s5.2-8.4,5.9-9.3c0.7-0.9,4.9-8,5.3-8.6c0.1-0.2,0.6-1.1,1.2-2.3l12.6-17.3c9.7-16.1,27-21.5,27-21.5c11.4-2.8,25.4,3.6,25.4,3.6
		l14.2,6.1l28.7,14.3l25.9,13.2l22.7,11.9l5.9,2.4l23.1,8.7l28.3,11l10,3.1l14.7,3.8l23.3,5.9l32.1,6.3l37.3,6.8l6.2,0.9l5,0.7
		l16.3-0.9l44.2-1.5c12.8,0.9,19.1,13.4,19.1,13.4l7.8,16.6l8.4,22.8c0.9,2.4,2.1,4.6,3.6,6.7c4.1,3.2,9.3-0.7,9.3-0.7l3.3-2.5
		l-0.9-6.5l-2.1,2.2l-2.6-4.3l-4.9-14.9l-6.6-25.8l0.8-2.3l2.3-3.2l3.1-3.8l3.6-3.9l-0.7-1c0,0-9.2,8-10.2,11.6l-1.6,0.3l-2.6,0.3
		l-9.9,1.3l-2.1,0.4c-0.1-0.2-0.2-0.3-0.2-0.3c-4-5.6-10.5-8.8-17.3-8.7l-12.9,0.1c-0.6,0-29,1.2-29,1.2s-14.7,0.8-15.9,0.8
		s-10.2-0.8-10.8-0.9l-25.3-4.9c0,0-16.9-3.2-17.7-3.3c-0.8-0.1-41.6-8.2-41.6-8.2l-17.8-4.7l-14.4-4.3l-39.3-14.4
		c0,0-16.3-6.7-16.9-6.8s-34.3-17.2-34.3-17.2l-50.2-25.2c-21.1-11.8-36-8.3-36-8.3c-18,4-28.7,20.5-28.7,20.5l-4,5.4
		c-0.2-0.4-0.4-0.7-0.4-0.7s-8.7,4-9.6,4.3s-4.9,1.3-4.9,1.3c-0.9-0.3-1.8-0.2-2.7,0.2c-1.5,0.6-3.7,1.3-3.7,1.3s-3.6,0.9-4.3,1.2
		c-0.8,0.1-1.6,0-2.4-0.3l-3.3-1l-0.4,0.2l-0.3-0.2l-16.4-13.9l-17-10.1l-23.6-14.7c0,0-15.2-8.6-15.6-8.6s-19.3-8.4-19.3-8.4
		l-10.8-5.2l-16.1-8.3c0,0-9.1-4.5-10.3-5s-4.6-2-4.6-2s-7.8-1.8-8.2-2c-0.5-0.2-7.9-2.8-7.9-2.8s-8.1-4-9-4.3s-12.4-8.4-12.4-8.4
		l-6.2-3.2l-7.5-3.4c0,0-5.1-1.3-5.8-1.3s-8.6-0.9-8.6-0.9l-32.2-2.8c0,0-31-2.6-31.9-2.8c-0.9-0.2-19.8-3.4-19.8-3.4l-28.1-6.1
		l-27.3-6.3l-4.6-1.7l60.8-15.1l60.6-15.9l96.1-25.2l14.2-2.7l8.3-0.3c0,0,8.4-0.3,8.9-0.3s18.8,3.1,18.8,3.1l17.8,3.3l0.9-2.4
		c0,0-10.1-3.1-11.6-3.3c-1.5-0.1-15.1-2.7-15.8-2.8c-0.7-0.1-13-0.1-13-0.1c-10.7,0-23.6,3-24.3,3s-38.7,9.5-38.7,9.5l-64.1,16.9
		L941,159.8l-77.8,19.9l-11.7-4.3l-16.2-8.3l-16.3-9.9l-38.4-26.8c-6.1-4.1-11.8-8.9-16.8-14.3l-2.6,1.3l4.5,4.7l6.4,5l3.5,2.4
		l-5.8,3.7c-0.9,0.6-1.3,1.8-1,2.8c1,4.2,1.5,8.4,1.6,12.7c0.1,4.8-1.5,9.4-4.6,13c0,0.4-5.2,4.7-5.2,4.7l-7.9,5.4l-0.7,0.5
		c-0.2,0-0.4-0.1-0.7-0.1l-40.4-52.4l2.6-0.7c0,0,4.9-1.3,5.3-1.3s3.3-0.5,3.5-0.7s7.6-1,7.6-1l6.6-0.2l10.7-2.6
		c0,0-1.6-0.1-2.5-0.1s-5.9,0.5-6.8,0.4s-5.9,0.8-5.9,0.8s-4.5,0.4-5,0.4s-6.7,0.8-7.1,0.9s-8,2.2-8,2.2
		c-11.1,2.8-11.4,9.5-11.4,9.5l1.4-0.1l0.4-1.8l1.5-2.1c0.9-0.5,1.7-1.1,2.5-1.7c0.1-0.1,0.8-0.4,1.6-0.8l38.3,52
		c-0.6,0.4-4,2.7-4.6,2.7c-0.7,0-7.8,4.6-7.8,4.6s-9,5.3-9.5,5.3s-16,4.6-16,4.6c-5.2,1.5-8.8,0.8-11.1-0.5l0-0.1
		c0,0,2.9-15.3-9.5-18.9l4.4-4.4l6.8,7c0,0,4.7,4.3,11.5-0.3c0.1-0.1,6.3-3.7,3-11.7l-1.8-4.6l-2.8-1l-2.4-6.1c0,0-3.4-1.6-3.4-2.1
		c-0.4-1.1-1-2.1-1.6-3.1l-5.9-7.9l-5-6.1l-12.7,3l-0.1-0.1c8.8-7.2,16.4-4.8,16.4-4.8l2.3-0.9c-8.6-3.6-16.2,1.4-19.7,4.3l-3.2-4.5
		l-24.6,6.1L532.4,160l-76.7,17.9l-32.9,11.8c-0.5,0.2-27.9,4.4-40.4,6.4l-5-10.3l0,0c1.4-1.3,2.8-2.3,2.8-2.3l40.7-20.4l25.5-11.1
		l16.5-8.5c0,0,7.1-3.8,7.8-4.2c0.7-0.4,8-5.1,8-5.1s2.9-5.5,5.5-11.3c2.7-5.8,1.5-2.9,2-3.6c0.5-0.7,1.8-2,2.7-3.1
		c0.9-1.1,4.7-2,7.3-3.5c2.5-1.7,4.6-3.9,6.2-6.5c1.1-1.8,3.1-2.4,3.6-3.1c1-1.1,2.2-2.1,3.3-3.1c0,0,3.8-3.6,4.5-4
		c0.7-0.5,9.5-3.6,9.5-3.6l7.7-0.9l3.2,12.2l-2.2,4.3l0,0.6l-9.5,9l-7.3,5.5l-8.1,4l-17.3,9.1l-30.3,16l-10.7,4.2l1.1,1.7l22.5-11.1
		l18.2-8.9l18.1-9.5l8.4-4.5l6.5-4.5c0.9-1.2,1.9-2.4,3.1-3.3c1.4-1.1,2.8-2.3,4-3.6l1.4-1l0,0.1l1.6,6.2l-1.3,4.2l-4.4-0.1l-0.1,21
		l19.7-3l-0.3-1.8l17.4-3.2l35.1-6.7l60.7-13.8l13.6-6.4l1.1-1.1l-0.2-0.9l-3.3-4.9l-3.3-5.3l-0.9-3.8l-0.4-4.7l5.5-3.6l10.5-5.8
		c1.5-1,2.9-2.1,4.2-3.3c0.7-1,1.2-2.1,1.3-3.3c0-1.1,0.2-4,0.2-4l0.9-6.9l2-2l2.7-2.5l17.1-58.4L707-2.6l-15.6,57.8l-3.8,2.5
		l-1.1-3.1L669-4.6l-4.9,0.2L682.7,54l1.3,4l1.9,5.4l-0.2,4.5l-0.5,4.1c0,0-1.8,2.5-2.1,2.8c-0.3,0.3-11.8,7.5-13.1,7.8
		s-11.8,5.7-11.8,5.7c-1.1,1-2.3,1.8-3.5,2.6c-0.9,0.3-4.2,2-4.2,2l-6.5,2.8l-9,1.7l-2.9,0.5L611.7-9.4L497-8.9l23.7,60.1l8.9,11.3
		l-1.8,3l5.3,12.1l1.2,6.8l0.2,6.6l8.7,0.2l0.9,14l-6,1.3l-2-6.7l-2.1-8.8l0.6-0.1l-0.7-3.1l-0.7,0.1l-0.2-1c0,0-1.6-5.3-1.8-6.7
		c-0.2-1.3-5.1-11.1-5.1-11.1L518.8,55L495.4-3.9L493-3.4l21.8,57.8l3.8,7.4c0,0,5.6,9.2,5.2,9.7s3.9,7.9,3.9,7.9l2.4,9.1l-2.6,0.6
		c-3.8,1.2-7.7,2.1-11.5,2.9c-4.2,0.7-4.5,0.9-7.3,2.9c-1.8,1.2-3.5,2.7-5.1,4.2c-2,1.8-2.9,5.1-4.7,6.2c-1.8,1.1-2.5,2.4-3.8,3.1
		c-1.3,0.7-6.4,3.1-7.3,3.3c-0.9,0.2-5.1,7.8-6.2,11.1c-1.1,3.3-5.1,9.3-5.8,9.8c-0.7,0.4-37.1,19.6-37.1,19.6l-23.3,10.7
		c0,0-27.3,13.1-28,13.5c-0.7,0.5-9.1,5.3-9.1,5.3s-1.8,1.6-3.5,2.9h0l-9.1,2.7c0,0-13.3,6.7-21.3,8.9c-8,2.2-16.5,1.3-17.8,1.3
		c-1.3,0-28-6.7-28-6.7l-4.4-1.8c0,0-9.8-2.2-14.2-3.6c-4.4-1.3-12.9-4-17.3-5.3s-12.4-1.8-22.7-3.5c-6.8-1-13.7-0.9-20.4,0.4
		l-32,11.1c0,0-46.2,24.9-47.6,24.9c-1.3,0-59.5,39.1-60.9,39.1c-1.3,0-84,52.9-84,52.9l-1.2,32.2c0,0,8-4.7,10.4-6.2
		c2.3-1.5,10.9-5.9,13-6.8c2.1-0.9,11.9-9.8,11.9-9.8l12.7-4.7c0,0,5.9-8,10.4-11.5s7.1,0,7.1,0s8.3-2.4,10.1-3
		c1.8-0.6,1.5-2.1,2.1-5.6c0.6-3.5-4.2-6.8-4.2-6.8s4.7-2.7,5.6-3c0.9-0.3,9.2-1.5,9.2-1.5l3-2.4l1.2-2.1c1.2-2.1,6-4.7,8.7-6.4
		c1.7-1.1,3.3-2.4,4.7-3.8l1.8-0.6l4.4-1.5c1.8-0.6,3.8-1.5,4.5-2.4c0.7-0.9,1.5-1.7,2.4-2.4l7.7-3.6c0,0,3-4.4,3.8-5.6
		c1-1.1,2.1-2.1,3.3-3l6.5-1.8l2.4-2.4l4.7-3.8c1.9-0.1,3.8-0.4,5.6-0.9c2.1-0.5,4.3,0.6,5,2.7l3.5,0.3l12.7-2.7
		c0,0,10.1-4.1,12.8-5.9c2.7-1.8,18.4-8,18.4-8l4.4-2.7l4.7-2.1h8.3l5-1.8l4.1,0.6h4.5c0,0,3.3,0.9,5.4,1.4s3.3,3.6,3.3,3.6v11.3
		c0.1,2.4,0,4.8-0.6,7.1c-0.9,3.6-1.5,8-1.5,8s-3,5.9-5.3,8c-2.4,2.1-1.5,5.9-1.5,7.7c0,1.8,4.2,4.2,4.2,4.2l5.9,3.3l4.8,4.1
		l1.4,2.2c-0.3,1-0.5,2-0.8,2.6c-0.7,1.6-2.7,6.5-4.7,10.2c-1.4,2.7-2.7,5.6-3.8,8.4c0,0-4.7,8-7.1,9.6c-2.4,1.5-2,1.1-6.2,3.1
		c-4.2,2-3.8,2-6,2.9c-2.2,0.9-10.2,4.7-11.8,5.3s-14.7,5.8-17.6,7.1c-2.9,1.3-15.8,6.4-19.3,8c-3.4,1.5-13.4,6.1-14.2,6.4l3.6-5.9
		l-1.5,0.3c-2.1,0.3-4.1,0.5-6.2,0.6c-3.1,0.2-1.3,0.6-3.8,1.6c-1.3,0.6-2.6,1.2-4,1.6c-3,1-0.8,0.5-3.4,1.5c-2.7,1-1.3,0.2-3.8,0
		c-2.5-0.2-1,0.2-3.1,0.7s-1.9,0.3-4.3,1c-2.2,0.7-4.5,1.1-6.8,1.2c-3.4,0.3-1.8,0.6-4.3,1.5c-1.4,0.5-2.6,1.6-3.1,3
		c0,0-19.4,5.5-20.3,5.9c-1.7,0.6-3.4,1-5.2,1.3c0,0-12.3,3.6-13.9,4s-11.4,2.5-11.4,2.5l-14.8,6.1c-1.6,0.8-3.3,1.5-5,2.1
		c-1.5,0.3-4.4,1.5-6.2,1.8c-1.8,0.3-5.7,2.2-7,2.7c-1.3,0.4-8.3,4.1-8.9,4.3c-0.6,0.1-13.9,5.8-14.8,6.1s-8.3,3.5-8.3,3.5l-0.7,1.2
		l0,0.6l-1,0.3l0.5,4.7l0.4-0.1l-0.1,3l6.4-2.5L48,377.6c1-0.4,2-0.9,3-1.5c0.6-0.4,8.3-2.6,9.5-3.1c1.2-0.5,10.4-3,10.4-3
		s6.3-0.6,7-1c1.5-0.7,3-1.3,4.6-1.8c0.7-0.2,6.9-1.5,8-1.5c1.1,0,4.6,0,6.1-0.9c1.2-0.8,2.2-1.7,3.1-2.8l7.9-2.7l0.6-0.7l6,0.6
		l11.1,1.3l4.9,0.9c2.2,0.6,4.4,1.4,6.5,2.5c1.8,1.1,1.3,1.8,2.4,2.4c1.1,0.7,1.3,2.9,2,4c0.7,1.1,1.4,2.3,2,3.6
		c0.2,0.7-0.9,2.9-4.7,2.4s-1.5-1.3-2.9-2.4c-0.9-0.9-1.8-1.9-2.7-2.9c-1.1-1.1-2.7-0.2-6,1.3c-3.3,1.6-0.9,0.9-2.7,2
		c-1.8,1.1-5.5,1.6-5.5,1.6l1.5,14.7l19.3-4.5l8.2-2.7c0,0-0.4-7.8-0.4-8.9c-0.1-1.2-0.3-2.4-0.7-3.6l-2.9-4.9l-4.4-4.2
		c0,0-7.5-2.7-8.7-3.1s-12.9-2.7-12.9-2.7l-5.2-0.4l12.6-2.5l6.1-1.8l3.7-1.9l3.8-0.7l12-4l7.3-3.3l2.3,0.8c0.6,0.3,1.1,0.5,1.6,0.9
		c0,0,2.4,0.3,2.8,0.3c2.2-0.1,4.4-0.4,6.5-0.9c4.9-0.9,1.9,0,2.4,0s0.5,1,1.6,2.4c1.2,1.4,4.2,5.9,3.6,7.3
		c-0.6,1.3,3.4,3.6,3.4,3.6l3.1-2.2l18.8-13.8l-0.7-1.2c-0.7-1.3-1.6-2.5-2.5-3.5c-0.6-0.4-1.2-0.8-1.9-1l-4,0.4
		c0,0-1.3,0.6-4.1,1.6c-2.8,1-0.7,0-1.3-0.4s-2.1,0-3.7,1c-1.1,0.7-2.2,1.1-3.4,1.5c-1.9,0.1-3.8,0-5.6-0.3
		c-2.4-0.4-1.8,0.6-3.3,1.3c-1.7,0.8-3.5,1.4-5.3,1.9c-2.4,0.7-2.1,0-2.1,0s-3.4-0.1-5.3-0.1c-0.6,0-1-0.1-1.2-0.1l1.8-0.8
		l26.7-11.1l30-12.9c0,0,4.1-1.9,5.5-2.7c2.9,0.2,7.9,2.5,13.4,13c0,0,2.4,4,9.3,4.5l15.8-0.7h33.8l25.3,2.4l10,1.6l5,1.2l-4.3-0.3
		c0,0-22.5-0.9-23.1-0.9h-13.6l-20,2l-24.7,2.9l-17.6,5.8l0.7,2.1c-1.6-0.8-3.6-2.3-4.5-2.3c-1.3,0.1-2.5,0.2-3.8,0.5l-16.2,10.7
		l-15.8,9.3l-10.4,7.1l-11.6,5.3l-7.1,1.8c0,0,3.1,2,4.9,2.2c1.8,0.2,3.6,0.5,4.4,1.6c0.9,1.1,0,2.4,0.9,4s-0.7,3.3,1.1,4.7
		c1.8,1.3-2.7,3.3,2.4,1.8c5.1-1.6,4.9-1.8,7.8-4.2s4.9-4.4,8-5.8c3.1-1.3,8.2-1.5,10.9-1.5c2.7,0,2.2,0.7,9.3-0.5
		c7.1-1.1,8.5-3.1,13.8-4.2c5.3-1.1,10.9-0.7,16-2.4c5.1-1.8,7.5-2.9,9.8-5.3c0.9-1.1,1.6-2.4,2.2-3.7c4.8,0.8,10.7,1.2,18,0.8
		l26.2-1.8c0,0,25.3-1.1,26-1.1h28.7l40-0.4h47.3l30.5,2.2l22.9,1.8l36.3,3.5l-35.6-1.8l-14.7-0.1l-11.7,0.1l-14.3,0.8l-22,0.7
		l-28.7,1.2l-17.8,0.8l-12.6,1.2c-4,0.7-7.9,2.1-11.4,4.2l-4.5,0.2c0,0-8.4-0.9-13.3-0.9s-16.5-0.5-18-0.5s-7.8,0.9-12.4,1.6
		c-3.5,0.4-7.1,0.6-10.7,0.4l-19.3,1.1l-25.6,2.9l-23.3,4.2l-16,2l-10,2.7c0,0-17.1,2.2-19.6,2.5s-5.1,1.1-5.8,1.1s-8.5,2.4-8.5,2.4
		L165,399c0,0-16,1.8-16.9,2c-0.9,0.2-22,6-22,6l-4,1.1c-1.5,0.5-9.3,4.5-9.3,4.5s-7.1,2.2-9.1,2.7s-13.3,2.7-13.3,2.7
		s-10.9,4.4-13.5,5.8c-3.2,1.9-6.4,3.9-9.3,6.2c-3.7,2.4-7.5,4.6-11.5,6.4c-2.2,0.9-10.5,5.6-11.6,5.8c-1.1,0.2-16,7.5-18.2,8
		c-2.2,0.5-15.3,8.5-16.4,8.7C8.6,459-1,463.9-1,463.9l1.3,3.8c0,0,8.2-4,9.3-4.7c1.1-0.7,18.2-9.8,18.2-9.8l12.7-5.5l8.7-5.1
		c0,0,9.3-4.2,12-5.6c2.7-1.3,15.8-9.1,17.3-9.6s45.8-17.3,45.8-17.3l6.2-1.5c0,0,11.5-3.1,12.4-3.3c0.9-0.2,14.9-2.4,14.9-2.4
		l25.8-4l46.7-8.9c0,0,41.3-7.1,42-7.1c0.7,0,40-2.2,40-2.2l15.8-0.5h14l21.6,0.2l18.4,1.6l30.9,2c0,0,48.2,2.9,48.9,3.1
		c0.7,0.2,50.7,4,50.7,4s10.7,0.7,13.5,0.7s11.1,0.9,12.9,0.9s8.5,0,14.9,0.2s8.9,0.9,12.4,1.1c3.6,0.2,10.5,0.5,11.3,0.7
		c0.9,0.2,6.9,1.3,8,1.8s17.3,2,18,2s34,4,38.7,4.7c4.7,0.7,31.3,4.7,32.5,4.9c1.1,0.2,10.5,1.1,12,1.5s3.5-2,3.5-2
		c-2.8-0.7-5.6-1.3-8.4-1.8c-4.5-0.7-9.5-2.5-12-2.5s-15.8-2.9-16.5-2.9s-25.1-3.3-25.1-3.3l-29.5-3.1l-33.3-2.7l-26.7-3.1
		c0,0-45.1-2.7-46.7-2.7s-6.9-0.7-7.8-0.7s-13.1-0.2-14.7-0.2c-1.6,0-18.7-2.5-18.7-2.5l-24.4-1.1l-42.5-2.2l-15.1-1
		c0.9-0.7,2.8-1.7,6.8-2.2l9-1l17.3-0.9c0,0,30.9-1.3,31.2-1.3c0.3,0,15.8-0.8,15.8-0.8s30.3,0,30.7-0.1s17.2,0.3,17.2,0.3l29.6,1.9
		c0,0,52.3,2.9,52.7,3s9.6,0.3,9.9,0.4c0.3,0.1,8.7,1.3,12.2-6c0,0,6.1-11.3,7.8-30.9c0.3-0.1,0.7-0.3,1-0.5c0.8-0.5,1.6-1,2.5-1.3
		l2.9,0.1l16.3,9.5l31.7,17.5c0,0,6.2,3.2,6.9,3.5c0.7,0.2,5.8,1,6.1,1l15.3-0.1l12.3,0.8l6.1,0.8l5.8,1.6l21.8,9.2l31,12.5
		l12.8,3.5l10.9,2.7l11.3,2.9l16,3.9l18.5,2.7l10.5,1.5l7.7,1l11,0.5l23.8,2.3l29,3.8l16.5,2.6l10.2,0.9l17.8,4.1l15,3.1l13.1,7.8
		l6.2,5.1l10.7,9.3l13.1,11.6l19.2,21.1l20.8,26.7l17.7,23.4l3.9,6.1l5.8,12l8.8,23.3l4.7,17.3l3.1,14.8l2.6,21.2v5l4.3,0.9
		l-0.6-3.8l-2.3-18.1L1107,595l-5.8-21.1l-6-17.8l-3.3-7.3l-3.9-7.3l-8.2-12.7l-16.8-21.5l-25.2-29.9l-15.8-16.8l-23.4-20.8
		c-9.1-7.2-18.2-11.3-18.9-11.5c-0.7-0.1-12.7-3.1-13.1-3s-18.8-3.9-19.2-4s-9.3-1.1-9.3-1.1l-10-1.8l-22.3-3.1l-23.1-3.1l-7.1-0.9
		c0,0-6.2-0.8-6.8-0.9c-0.6-0.1-6.5-0.1-6.5-0.1s-11-0.7-12-0.8s-7.2-0.9-7.8-0.8c-0.6,0.1-31.1-5.7-31.1-5.7l-16-3.5
		c0,0-13-3.3-13.3-3.5c-0.3-0.1-14.6-4.2-14.6-4.2l-33-14.1l-19.2-7.3c-6.3-1.4-12.8-2.1-19.3-1.9l-16.6-0.5l-4-0.2l-3.7-1.4
		l-18.1-9.1l-36.9-21.1c-4.4-2.5-8.1-9.5-9.5-12.6c1.5-12.7-9.9-16.4-9.9-16.4s-14.1-7.3-14.5-7.4c-0.5-0.2-7.7-4.6-7.7-4.6
		c-3-2.9-3.4-5.6-3-7.6l7.6-0.3l-0.7,6l98.9,55.6l14.4,2.4l-34-27.8l-1.1-21.6l6.7-12.7l5.8-14l6.9,6.5c0,0,1.5-16.2-18.5-21.3
		l-28.2-4.9l-9.2-4c2.2,0.1,4.4,0.1,5.2,0.1c1.8,0,16.6,0.7,21.2,0.2c4.6-0.6,13.2,1.3,13.2,1.3s8.8,3.4,9.9,4.3s6.7,2.2,6.7,2.2
		l12.2,18.4c0.6,0.8,1,1.7,1.3,2.7c0,0.7,6.1,5.2,6.1,5.2s6.8,5.1,7.4,5.5c0.6,0.4,4,2.5,4.6,3.4s3.8,2.1,3.8,2.1
		c1.4,0.4,2.8,0.7,4.3,0.9c1.3,0,2.4-0.9,2.7-2.2c0-1-0.4-1-1.2-4c-0.7-3,0.4-2.4,0.2-4.9c-0.1-1.7-0.5-3.4-1.2-5
		c-1.5-1.9-2.4-4.2-2.5-6.7c-0.3-4-1.9-3.5-2.8-6.1s-0.5-1-0.5-1.6s0.5-6.7,0.5-6.7l-2.4-3.5c-1.2-0.8-2.3-1.4-3.6-2.1
		c-1.1-0.4-0.9-0.5-2.1-1s-0.9-4.1-0.9-4.1s-1.1-1.5,1.9-4c3-2.5,3.7-2.7,3.7-2.7s4.4-2,6.4-3c1.2-0.7,2.5-1.2,3.8-1.6
		c0,0,3.4-3.3,14.1-7.4s2.8-1.6,8.2-6.7c5.3-5-0.4-0.1,5.8-4.4c6.2-4.3,4.6-3.2,6.5-5.3s3.5-5.5,4.7-7c0.8-0.9,1.9-1.3,3.1-1.2
		l4.2-2.5l2.7-3.4l6.5-3.5l11.5,20.4l6.9,12.4l14.3,19l19.2,18.7l42.6,33.9l7,7.9l9.1,8.6c12.4,7.7,21.8-3.2,21.8-3.2l6.2-5.9
		l4.3-4.3l6.7-2.3l29.4-11.2l16.9-3.3c17-1.1,22.8,12.5,22.8,12.5l11,19l12.8,20.6l16.4,19.3l16.8,16.6l14.9-17.4l3.3,2.1l6.9,3.6
		l11.1,4.4l40.1,23.3c10.1,4.9,16.8,21.2,16.8,21.2l6.3,19.2c1,5.5,3,10.7,5.9,15.5l12.6,20.3l17.4,27c4.7,7.5,4.1,22.1,4.1,22.1
		c-0.7,6.6,1.8,13,6.6,17.6l13.1,12.3c6,4.5,8.2,13.4,8.2,13.4l10.4,44.5c0.8,3.7,1.1,7.4,0.9,11.1l-2.9,11.1
		c-2.3,5.1-2.7,10.8-1.2,16.1l18.1,62.2c3.2,6.8,2.8,16.5,2.8,16.5l-3.8,33.2c-0.3,15.1,9.3,21.7,9.3,21.7l10.2,10.2
		c3.8,4.1,7.6,13.9,7.6,13.9l6.9,19.8l3.7,9.3c-6.3-6.5-21.5-22.7-21.5-22.7l-15.8-26.2c-5.2-10.4-18.9-28.8-18.9-28.8
		c-6.9-8.1-12.7-17.1-17.2-26.8c-9.7-22.7-14.1-26.7-14.1-26.7c-5.2-6.1-11.3-11.5-17.9-16c0,0-2.6-1.7-6.3-3.8
		c2.3-7.6-1.4-10.9-1.4-10.9l-4.6-6.8c-3.5-5.2-6.4-10.7-8.9-16.4c-2.4-8.6,0.1-13.4,0.1-13.4l5.1-9.5c4.7-6.9,5.5-16.4,5.5-16.4
		c0.6-7.8,0.3-15.6-1-23.3c-1.2-9.6-6.2-19.2-6.2-19.2l-5-9l-8.9-16.4l-9.8-18.7l-6.7-13.8c-3.8-7.6-10.1-9.6-10.1-9.6l-2,0.8
		c5.2,2.1,9,8.2,9,8.2l4.3,7.8l6.7,13l7.2,13.8l7.4,13.7l4.4,8.1c0,0,5,11.1,4.7,11s3.9,16.1,3.7,16.7s0.2,15.4,0.2,15.4l-0.4,3.3
		c0,0-0.8,4.5-0.9,4.7s-2.1,5.7-2.2,5.9s-6.6,11.6-6.6,11.6c-4.7,12.7,1.8,21.7,1.8,21.7l7.3,12l5,7.6c1.1,2.8,0,5.8-0.3,6.7
		c-6.3-3.7-14.5-8-19-9.1l-0.4,4l3.9,2l10.5,4.5l10.5,6l2.2,1.6l1.2,1.6l3,5.5l1.6,4.5l2.5,9l2.2,1.4c0,0-0.7-6.4-1-6.9
		s-2.2-6.9-2.2-6.9l-2.3-4.9l-1.3-2.2l2.7,1.5l3.7,3.4l3,2.7l4.1,3.5l5.4,7.8l5,10.5l3.3,6.9l3.5,7.6l3.8,7.6l4.1,6.3l7,8.4l7.6,9.8
		l9.9,15.8l5,9.5l10,15.8l2.4,3.5l5,6.5l13,13.9l6.3,5.1l0.7,1.7l4.2,11.5l1.2,3l3.2,20.3l2.6,22.7l0,1.3l-13.5,10.4l-0.2-0.4
		l-2.8-0.4c0,0-0.9,0.4-1.2,0.4c-0.8,0.6-1.6,1.2-2.4,1.9l-1.6,1.2c-0.3,1.5-0.6,2.9-1.1,4.4c-0.2,0.1-8.1,5.4-8.1,5.4l-1,0.6
		c0,0-2.7,0.8-3,0.8s-2.8,1.1-2.8,1.1l-4.7,1.2l-2.8,1.1l-4.2,1.6c0,0-9.5,3.4-10.1,3.5s-9.8,3.6-10.2,3.7s-8,3-8,3l-2.2-1.9
		l2.2-1.3l3.6-2.7l5.8-2.4l5-1.8l10.2-3.6l3-0.8l5.4-2.7l3.8,0.4c0,0,2.7,0.5,3,0.5s5.3-1.4,5.3-1.4l1.9-1c0.8-0.9,1.7-1.7,2.6-2.5
		c0.3-0.1,0.4-1.5,0.3-2.2c-0.2-0.7-0.4-1.5-0.6-2.2c-0.8-1-1.8-1.9-2.7-2.7c-1.4-1.3-2.8-2.6-4.1-4.1c-0.3-0.3-6.6-5.8-6.6-5.8
		l-12.3-11l-4.8-2.2l-4.8-6l-2.9-3.6l-2.6-6.4l-0.7-1.8c0,0-0.9-3.3-1-3.5s-1-5.5-1-5.5l-2-11.1l2.8-2.1l-1.2-3.9l1.8-0.7l3.6-2.1
		l4.7-3l4.9-3.2l3.6-3.2c0,0,0.8-1,1-1.2s1-1.5,1.2-1.7c0.3-0.9,0.4-1.8,0.5-2.8c0-0.4-0.2-4.5-0.2-4.5l-1.3-13.3l-1.7-4.3l-3.4-5.8
		l-2.8-4.9c-0.2-2-1.1-3.9-2.6-5.3l-3.2-2.2l-6.4-4.2l-3-3.2l-5.3-9l-3.2-6.3c0.5-1,1.7-3.3,2-3.3c0.4,0-5.6-11.3-5.6-11.3l-4.1-6.3
		c0,0-5.3-7.6-11.3-9.6l-12.5,10.4c-5.7,3.2-6.3,8.6-6.3,8.6s-0.5,6.2-0.6,6.4s0,4,0,4l5.3,31.3l1.8,6.7l3.7,12.4
		c5.5,11.2,16.8,6.3,16.8,6.3c13.8-4.4,6.2-19,6.2-19s-2.1-3.5-2.2-3.8c-0.5-0.7-1.1-1.3-1.7-1.9l-7.2-11.6
		c-5.4-9.6-5.3-14.2-5.3-14.2c1.2-3.5,3.9-1.2,3.9-1.2l11.3,18.7l11.5,20.2c3.3,13.3-7,17.5-7,17.5s-17.3,7.1-17.6,7.2
		s-2.5,0.5-4.1,0.7c-0.6,0.1-1.3,0.2-1.9,0.2c-1.6,0-3.2-0.6-4.5-1.6c-0.9-0.7-1.8-1.4-2.5-2.3c-0.4-0.7-1-1.8-1-1.8l-1.7-5.6
		l-3.6-14.8l-4.2-18.1c0,0-4.7-18-4.8-18.5s-0.1-3.8-0.1-4.8c0.1-1.1,0.2-2.2,0.4-3.3l2.9-12.7c0,0,0,0,0,0l2.8-1.9l2.8-2.6l3.6-2.4
		l2.7-2.4l2.4-2.4l4-3.3c0.9-1.2,1.6-2.5,2.2-3.9c0.3-0.7,0.4-1.5,0.4-2.3c0,0-0.1-3-0.2-3.7s-0.4-2.5-0.4-2.8s-1.4-2.3-1.4-2.3
		l-2.4-2.6l-1.6-1.3c0,0-1.4-0.1-2.4-0.1c-0.3-0.3-0.5-0.7-0.7-0.9c-0.4-0.4-1.3-0.6-1.6-0.8c-0.9-0.3-1.9-0.5-2.9-0.6
		c-0.7-0.2-1.5-0.3-2.5-0.4s-2.6-0.4-3.3-0.5c-1.2,0-2.4,0-3.6,0.2l-2.8,0.2l-3.6,0.6l-4.3,1c-8.4,2.4-9,12.7-9,12.7l-0.2,9
		l0.1,13.8l0.3,2.9v3.5c0,0,0.6,5,0.6,5.6s0.7,4,0.7,4l2.4,13.8l2.3,9.8l1.8,7.2l3,14.5c0,0,0,2.2-0.1,2.6s0.3,3.8,0.3,4.4
		s1.1,4.3,1.1,4.3l1.5,5.1l-1.8,1.7l-5.4,1.8l2.7,8.9l7.3-2.5l0.6,2l3.1,10l5.4,19l0.2,1.7c0,0-0.2,1.7-0.2,2.2s-1-0.2-1.5-0.6
		s-1.8-1.9-1.8-1.9l-5.2-16.4l-1.9-0.6l4.7,15.5l3.5,10.2l2.3,3.6l2.4,2.8l4.3,7.8l14.7,19l5.5,7.6l12,23.4c1.6,2.5-0.1,3.9-0.1,3.9
		l0,0l-2.2-1.4l-8.7-5.5l-14.7-13.3l-29.2-66.5l-21-56.3l-14.1-111.4l-7.3,48.9c-3,35.8,6.5,72.4,6.5,72.4l25.9,81
		c6.1,21.5,31.7,60.2,31.7,60.2l7.8,17.8l0.9-0.6l31.7,120.7l10-0.4l-29-93.4l1.1-1.6h2.2l5.7,2.1l9.7,30.6l-5.8,2l19.9,57.9
		l20.1-0.7l-3-11.6l30.8-22.5l22.4-15.9l8.2-4.7l13.1-5l15.1-9.4l6.9-4.8c0,0,9.4-4.3,9.8-4.4s7.9-2.2,7.9-2.2l7.3-2.4l5.1-1.5
		l5.1-1.3l2.7,0.3l1.9,1.9l4.1,5c0.6,0.6,1.3,1.1,2.1,1.5c0.2,0.1,0.4,0.1,0.6,0.2c-0.3,1.3-0.4,4,2,7.7c2.6,2.1,5.9,3.3,9.2,3.1
		l23.2-2.5l-0.4-1.9l-22.4,2.3c0,0-5.8,1.2-8.4-3.6l-1-4.6c0.2,0.1,0.3,0.1,0.3,0.1c1.7-0.6,3.4-1.2,5.2-1.6c1.6-0.2,9.4-5,10.3-5.2
		s8.9-4.5,8.9-4.5v1.3l-4,2.8l2.9,5.9l7.9-4.7l-4.6-5.8l19.9-10.4c0,0,6-3.1,3.4-11.3L1435.9,958.2z M1361.1,932.7l13.3,5.3
		l-13.3,4.8C1358.7,938,1361.1,932.7,1361.1,932.7z M1664.8,380c0.3,0,2.7,0.3,2.7,0.3l1,2.8l8.3,29.8l3.7,11.8l-0.1,3.7l-1.1,1.1
		c-3.4,2-4.6-2.1-4.6-2.1l-9.9-24.5c-3.6-11-8.3-18.4-10.7-21.7C1656.6,380.8,1664.5,380,1664.8,380z M184.3,338.8
		c0.8-0.3,1.5-0.7,2.2-1.1c0.5-0.3,0.4-0.5,1.2-0.7s1.9-0.6,2.7-0.3c0.8,0.2,1.5,0.6,2.1,1.2c0.3,0.5,0.6,1.1,0.7,1.7
		c-0.3,0.4-0.6,0.8-1,1.2c-0.2,0.1-1,0.2-1,0.2l-0.7,0.1c-0.1,0-0.2,0-0.3-0.1c-0.2-0.1-0.4-0.2-0.7-0.4c-0.2-0.1-1.1-1.4-1.4-1.6
		c-0.3-0.2,0.8-0.7-0.7-0.4c-1.5,0.3-3.3,0.9-3.3,0.9S183.9,338.8,184.3,338.8z M545.9,205.9l14.9,3.5l8.7,4.2l1.8,1.8l-5.8,3.3
		c0,0-6.7-5.3-25.8-8.4l-21.6-3.6c0,0-8.4-1.3-0.9-3.8l10.7,0.9L545.9,205.9z M504,193c0,0,0.2-3.1,4.6-2.7l5.9,1.2
		c1.5,0.4,3,0.6,4.6,0.7c1.3,0.1,2.6,0.2,3.9,0.4l3,1.2c0,0,1.3,1.6,1.2,2.2c-0.2,0.6-5.2,3.4-5.2,3.4s-2.7-1-3.4-1.2
		s-4.7-1.3-5.6-1.3s-4-0.2-4-0.2l-0.6,1.2c0,0-1.5,3.3-2.4,2.8c-0.8-0.5-1.5-1-2.2-1.6l-1-1.3L504,193z M606.1,338l0.6,0.7
		c-0.8,9.5-3.6,30.8-13,35.4l0.4-0.7l1.6-28.9L595,341c0,0-28-10-57.6-9.6l-38.7,1.1l-38.5,0.7l-31.3,1.6l-28.7,1.1l-19.3,0.9
		c7.2-1,15.7-2.2,15.7-2.2s19.5-1.6,20.4-1.8c0.9-0.2,22-1.6,22-1.6l23.3-2.4l12.9-0.9c0,0,19.1,0.2,20.5,0.2s28.7-0.2,29.3-0.4
		c0.7-0.2,13.6-1.8,13.6-1.8s6.2-0.2,10.2-0.7s9.8,1.8,13.3,1.3c3.9-0.3,7.9-0.4,11.8-0.2c0,0,12.5,1.1,13.3,1.1s11.8,1.1,11.8,1.1
		c0.5,0.1,0.9,0.2,1.4,0.3c0.7,0.7,1.4,1.3,2.2,1.9c0.8,1,1.4,2.2,2,3.3L606.1,338z M576.6,299.6l22.2,11.7c7.3,4,5.2,11.5,4.2,13.6
		c-0.7,0.4-3.4,1.4-3.4,1.4l-6.2-0.5l-9.9-1c0,0-6.7-0.7-7.4-0.9s-3.8-0.4-4.9-0.6c-1-0.2-16.7-0.3-16.7-0.3s-5.6,0.3-6.5,0.3
		s-4.9,0.5-5.9,0.6c-1,0.1-9.5,1-9.9,1s-6.5,0.2-8.3,0.2s-8.4,0.6-9.2,0.6s-29.8,0.5-29.8,0.5s-8.2-0.3-9.2-0.3c-1,0-9-0.1-10.4,0.2
		s-13.6,1.8-14.2,1.9c-0.6,0.1-7.8,1.3-9.9,1.5c-2.1,0.2-11.6,0.9-11.6,0.9l-8.9,0.3c0,0-10.1,0.7-10.5,0.7s-8,0.7-8,0.7l-6.4,0.6
		c0,0-24,1-24.9,1S357,334,356.6,334s-7.9-0.7-9-0.7s-6.8-0.7-6.8-0.7l-7.7-0.5c0,0-6.5-2.2-7.4-2.1c-0.9,0.1-16.3-1.6-16.3-1.6
		s-18.4-1.2-18.8-1.2l-14.8,0.3l-13.6,0.3l-12.6,0.2l-7.6-1.3c0,0-4.4-3.7-4.4-4.4s-1.8-3.4-2.4-4c-0.6-0.6-3.3-3.1-3.3-3.1
		l-2.5-2.8l-2.2-0.7c0.7-0.3,1.6-0.8,2.7-1.4c3.8-2,8.2-8.9,8.2-8.9s3.8-6,3.8-7.1c0-1.1,3.3-6.9,3.5-8.7c0.2-1.8,3.1-6.7,3.1-6.7
		l0.3-0.6l0.7-0.3l-10.3,24.7l0,0l1,6.1l3.4-0.6l1.2,9.2l3,0.6l19.9-2.5c6.5-0.3,5.5-5.5,5.5-5.5l-1.1-8.2l19.2-0.5l82.7-4.9
		l127.5-5.8l67-2.7C568.4,296.1,576.6,299.6,576.6,299.6z M697.6,217.6c0,0.5-7.1,8.7-7.1,8.7l-9.3,7c-5.9,3.8-12.6,6.2-19.6,6.8
		l-36.4,4c0,0-11,1.3-17.3,1.9l-4.2-1.8l-5.8-3.4l-0.7-13.6l-5.6,2.2c0,0-1.8-10.7-15.3-17.5l-12.6-6.1l-5.9-3.3
		c0,0-5.2-5.8,3.4-6.1c0,0,17.2,1.3,20.7,12.4c0,0,7.5-1.3,11.8,0c0,0,4.3,3,17.3,4.6l30.2,1.6l22.1,0.9l14.7-0.4
		c0,0,8.2,0.1,5.8,7.3l-0.9,1.3l-43.4-3.3l-21.5-1.8l-7-0.7c0,0-5.2-1.8-7,1.2c0,0-1,1.9,2.1,4c0,0-2.5,3.7,0.3,7.1c0,0,3.1,3,9.6,4
		l24,0.3l15-0.1c0,0,10.4-1.8,11.7-2.2l9.3-3.1c1.9-1.2,3.8-2.3,5.8-3.3c1-0.3,3.7-3.1,3.7-3.1l2.8-4.3c0,0,1.6-7.4,0.3-13.2l0.6-1
		l0-0.1c1,0.2,2.4,0.5,3,0.6c1,0.3,3.1,1.9,3.8,2.2c0.7,0.3,1.3,2.8,1.6,4.4C697.9,213.8,697.8,215.7,697.6,217.6z M1321.1,971.7
		L1321.1,971.7c-0.3,0.5-1,0.6-1.1,0.8s-0.6,0.3-1.1,0.7c-0.7,0.4-1.5,0.7-2.3,1l-1,0.7v0.4l-7.5-14c0,0-4.3-9-2.8-12.1h3.8
		l-0.1,5.6c0.3,1,0.6,1.9,1,2.8c0.2,0.3,1.8,6.2,1.8,6.2s0.4,1.3,1.2,1.5c0.7,0.3,1.3,0.7,1.8,1.1c0.7,0.4,1.5,0.8,2.2,1.1
		c0.6,0.1,3.3,1.4,3.7,1.5s1.2,0.5,1.1,1C1321.7,970.7,1321.4,971.3,1321.1,971.7z M1329.4,964.6L1329.4,964.6c-1.1,1.6-2.7,3-4.5,4
		l-8.8-3.6l-2.3-1.5l-0.8-1.7l16.1-5l-3-9.4h2.4l2.4,9.6C1330.9,956.9,1331.6,962.2,1329.4,964.6z M1350,895.4l10.4,17.6
		c0.6,3-1.3,3.9-1.3,3.9c-1.5,1-3.5,0.9-4.7-0.4v0l-10.3-18.3L1350,895.4z M1344.9,893.1c1.2-0.5,2.6-0.4,3.7,0.2l-5.2,3.1
		C1343.1,895.2,1343.7,893.8,1344.9,893.1z M1333.3,891.5l6.8,0.9c0.2,0.2,0.5,0.4,0.8,0.5c0.4,0.2,0.1,0.3,0.3,0.6
		s-0.2,0.8-0.2,0.8l-0.3,1.3c-0.2,0.9-0.2,1.7,0,2.6l-2.3,1.4l11.6,21.2l2.7-1.5l0.2,0.2l0.5,0.8c0,0,0.8,0.2,1,0.3s1.6,0.3,1.6,0.3
		c1.1,0.5,1.8,1.6,1.8,2.8l-0.6,2.9c-0.5,1.2-2,0.8-2,0.8l-18.2-7.3l-1.3-5.4l3.1,0.4l-4.6-18.4l-2.7,0.6l-0.9-3.6
		C1330.9,891.8,1333.3,891.5,1333.3,891.5z M1328,897.4c0,0,0.1,0.3,0.2,0.8l-3.4,0.8l4,14.8l2.7,0.4c0,0.3-0.1,0.5-0.1,0.8l0,0
		c-0.3,0.5-0.6,0.9-1,1.3l-16.3-7.4l1.4-3.7l5.1-12c0,0,2.6-5.7,5.8-1.2c0,0,0.6,1.2,0.7,1.4S1327.8,897.1,1328,897.4z
		 M1207.4,499.4c-0.7-0.3-1.4-0.6-2-1c-0.1-0.2-4.1-3.8-4.1-3.8l-8.3-10l-4.2-5.6l-2.9-3.9l-0.1-0.4c0.5,0.5,1.2,0.9,2,1
		c1.5,0.4,3.2,0.6,4.5,0.8l-0.1,0l-0.7,1.3c0,0,2.2,3.6,2.4,3.8C1194.2,482,1207.4,499.4,1207.4,499.4z M767.7,197.4
		c0,0-4.3,2.1-6.4,2.8c-1.5,0.6-3,1.3-4.5,2.1l-4,2.2l-2.2-2.5c0,0-3.4-4.9-4-5.5c-0.6-0.6-2.4-6.2-2.4-6.2l4.4-4.3l-1.1-1.7
		l0.7-2.8l9-4l0.1-0.4c4.5,2.2,7.4,5.1,7.4,5.1l6.3,9.2l1.5,2.7L767.7,197.4z M1186.8,488.3l-7.2-10.5l-13.9-21.7
		c-3.7-4.9-6.9-10.2-9.7-15.7l-6.8-22.8c-4.6-18.2-19.8-28.6-19.8-28.6l-10.8-7.1c-11.5-8.8-32.9-18.9-32.9-18.9
		c-6.6-2.2-12.9-5.2-18.8-9l-7.3-6.2l-46.6-46.6c-16.1-21-36.2-24.1-37-24.1s-20-0.8-20-0.8l-14.4,1l-6.8-3.7h-5.2
		c-4.6-20.7-15-22.5-15-22.5c-19.7-7.4-26.6,7.6-26.6,7.6L874.3,248l3.6-4.9l-3.6-1.7c0,0-3.3,4.2-3.7,4.2s-5.6-3.5-5.6-3.5
		l-12.5-8.5L819.8,222l-15.1,1l-10.8,0.3l-5.3-8.6l-19.8-33.4c-3.9-4.8-8.9-7.1-12.9-8.2l5.5-4.4l5.7-4.7c3.4-3.7,5.3-8.5,5.3-13.5
		V144l-0.6-4.5l-0.5-4.4l6.1-4.4l9.1,6.3l28.9,20.8l16.5,10.2l18.7,9.7l10.5,4.2l9.5,2.8l22.3,5.3l26.9,6.2l15.5,3.2l11.6,1.1
		l20,1.7l39.5,3.5l9.2,0.8l5,1.3l11,4.7l10.4,6.9l7.1,5.2l10.3,4.2l6,1.3l7.7,1.6l6.3,2.9l6,2.7l5.7,3.3l5.8,3.1l7.8,4.5l6.6,2.7
		l23,10.5l18.1,10.8l27,16.1l11.4,7.6l9.2,6.8l6.8,6l-0.5,0.8l-0.3,2.5l-0.7,2.5c-0.4,0.5-0.8,1.1-1.1,1.7c-0.4,0.7,0.4-0.7-2.1,1.6
		s-4,2.5-4.7,3.7s-4.7,5.2-4.9,5.6s-0.9,1.2-2.1,3.1c-0.6,1.1-1.5,2-2.5,2.8c-1.2,0.9-2.2,1.9-3.3,3c-1.2,1.3-2.5,1-2.8,2.7
		c0,0.8-0.3,1.6-0.7,2.2c-0.6,1.2-0.9,0.9-1.2,1.6s-4.9,10.1-5.2,11.3c-0.3,1.2,0.2-0.9-1,3s-1.2,4-2.2,5.9c-0.6,1.4-1.4,2.8-2.4,4
		c-0.9,1.3-1.9,2.6-3,3.8c-0.9,1.3-2.2,1-2.4,3.9s-0.9,4.7-0.9,6.2c0,1.5-0.7,3-1.8,5.3c-1,2.3-1.6,4.9-1.3,6.1
		c0.2,1.6,0.7,3.2,1.5,4.6c1.3,2.4,4.3,4.6,3.8,6.5s-1,14.5,0.2,16.9s3.1,1.8,1.9,5.8c-0.7,2.6-1.2,5.2-1.3,7.8
		c0,0,3.4,16.8,5.3,19.3s1.6,4.7,3.6,6.4s2.5,3.3,3.7,4.2c0.1,0.1,0.3,0.3,0.5,0.6c1.6,5.9,6.8,17.7,25.2,37.7l5.4,5.7
		c0,0-11.2-6.9-16.8-2.9C1191.8,498.7,1189.8,493.2,1186.8,488.3z M1246.4,754.1l2.8-27.1c0.7-6.2,0.2-12.5-1.4-18.6l-12-38.9
		l-7.8-27.5l-0.7-5.4l3.2-12.6c1.9-4.9,2.6-10.2,2-15.4l-2.7-13.2l-8-31c-1.7-12.3-7.9-18.2-7.9-18.2l-12.3-11.4
		c-8.1-6.7-8.3-13-8.3-13l-0.4-9.5c0.1-1.7,0.1-3.3,0-5c1.1-1,3.6-2.2,8.8-0.7c0,0,7.3,3.3,7.6,3.4c0.2,0.1,3.6,3.2,5,4.5
		c-0.3,0.1-0.6,0.1-0.9,0.2c-0.2,0-2.6-0.2-2.6-0.2s-2,0.8-3,1s-2.6,2-2.6,2l-1,2.9l-0.4,5.1c0,0,5,5.3,5.2,5.8s2.4,4.2,2.5,4.7
		s3.9,4.9,3.9,4.9l5.9,4.6l7.3,11.6l1.4,3.8c1,2.3,1.8,4.8,2.2,7.3c1,4.9,3.5,3.9,3.5,3.9c0.5,1.1,0.9,2.2,1.3,3.3
		c0.1,0.8,1.3,2.5,1.3,3s1.5,3.1,1.7,3.9c0.6,2,0.9,4,1,6.1c-0.1,1.1,0.2,2.2,0.9,3l3.6,9.9l1.9,0.9l2.3,1.8
		c0.7,0.7,1.1,1.6,1.3,2.6c0.3,1.8,2.3,0.9,2.3,0.9s1.8,0.2,2,0.2s2.5,1.1,2.5,1.1l2,1.2l3,0.2l1.9-1c1.1,0.1,2.3,0.3,3.3,0.7
		c1.2,0.4,2.5,0.8,3.8,1c0.7,0,1.3-0.2,1.8-0.7c0.5-0.4,0.3-3,0.3-3.5s1.8-1.4,2.3-2.4s2.7-0.6,3.5-0.8c1-0.1,2,0,3,0.1
		c1,0.6,2,1.3,2.9,2.1c0.7,0.9,1,2,1,3.2c0,1.7,1.6,2.7,2.1,3.7s2.6,4.3,2.8,4.6s4.2,4.9,4.2,4.9c0.2,0.4,0.5,0.7,0.7,1.1
		c0.6,0.9,1.3,1.7,2.1,2.5c0.3,0.4,0.4,0.8,0.5,1.3c-0.5,1.3-0.9,2.6-1.2,3.9c0.1,1.3,0.3,2.5,0.8,3.7l2.3,5.7l3.8,4l8.4,12.3
		l3.3,5.4l2.1,2.5l1.8,5.5l-3.7,20.3c-1.8,5.8-0.6,12.2,3.2,17l0.8,0.8l1.3,0.9l2.4,1.1c0.3,1,0.4,2,0.4,3c-0.2,0.8,0,2.9-0.6,3.5
		s-0.2,2.3-0.3,2.7s2.8,0.5,2.8,0.5l2.2,1l-3.1,2.6l-5.6,2.7l-12.3,4.3l2.2,3.5c-15.2,8.9-18.3,22.9-18.3,22.9
		c-5.8,16.5,1.3,32.1,1.3,32.1l11.1,24.7l6.1,11.2l12.6,19.5l1.5,3.1l-0.1,0.1c-10.9-1.8-22.1-11.1-22.1-11.1
		c-19-24-27.6-61-27.6-61l-0.9-10.7l-0.9-3.3l0.9-4.4c0,0-2.1-0.6-3.6-1.2s-1.2,1.8-1.2,1.8s0.3,1.2-1.5,3s-1.8,0.3-3.6,0
		c-1.2-0.2-2.4-0.3-3.6-0.3c-8-2.1-12-2.2-13.9-2C1246.2,755.9,1246.4,754.1,1246.4,754.1z M1285.4,835.8l-11.9-33.2
		c-3.7-12.5-9.8-19.3-9.8-19.3l-10.8-11.8c-3.6-2.9-5.3-6.6-6.1-9.8h3.3l7.7,2.1l3.3,0.6c2.5,1.3,4.9,2.8,7.1,4.4
		c3,2.4,2.1,10.7,2.4,11.6s5.9,14.2,5.9,14.2l14.2,32l6.5,11l5,3l11.6,6.8l8.2,3.4l-0.6,0.9l4.4,3.5l5.2,2.3l-21.4,53.2l-12.2,32.3
		l-2.3,0.2l-1.1-0.9l2.6-23.7c1.3-8.8,0.4-25.1,0.4-25.1l-3.7-29.8C1292.4,849.7,1285.4,835.8,1285.4,835.8z M1162.1,715.9
		c1-0.8,1.9-1.6,2.7-2.5c0,0,2.6-1.9,3-2.2c0.2-0.1,0.6-0.5,1-0.8c0.5,0,0.9,0.1,0.9,0.1c0.2,0.1,7.7,1.1,6.1,7.9
		c-0.6,0.9-1.2,1.8-1.8,2.6c-1.1,1-2.3,1.9-3.6,2.8c0,0-0.6,0.6-1.5,1.7l-3.6-1.2l-2.6-0.5l-2.2-1.1c0,0-1-0.7-0.7-1.3
		s0.2-2,0.4-2.4s0.4-1.2,0.4-1.2C1161.1,717,1161.5,716.4,1162.1,715.9z M1162.6,819.1l-4.2-16.9l-5.6-24.7l-3.2-16.7l-1.5-12.8
		l-0.4-14.7l0.2-10.9l0.4-4.3l0.8-2.4l2.1-3l1.2-1l6-1.4l3.1-0.1l-5.4,5.5c0,0-6.5,5.8-0.7,10c0,0,2.7,2,3.5,2.1s1.6,0.5,2.8,0.6
		c0.9,0,1.7,0.2,2.5,0.5c0.5,0.2,1.1,0.5,1.4,0.7c-1.4,1.9-2.7,4-3.5,5.8c-2.4,5.8-4.2,11.9-5.2,18.1c0,0-1,8.7,0.8,13.7l6.2,24.9
		l4.6,19.3l2.2,7.8c0,0,0,0,0,0.1c-0.7,2.5-3,2.6-3,2.6l-4.3,0.7L1162.6,819.1z M1174.4,839.6l-1.7,0.2c0,0-5.1-1.9-5.5-5.1
		l-1.7-5.6l6.6-2.3c3.8,0.9,3.8,5.8,3.8,5.8L1174.4,839.6z M1178.2,885.7l-2-3.7l-0.7-1.8l3.5-1.1l10.7,21.3L1178.2,885.7z
		 M1190.9,836.2l-7.6,2.5l-0.1,0l0.4-2.1c0,0,0.9-1.6,1-1.8s1.9-0.4,1.9-0.4l5.3-1.4l2.6-0.4l4.4-1.2l13.1-6.8l1.6-1.2
		c3.9-3,8.9-10,8.9-10c5.3-9.8-1.9-22.7-1.9-22.7l-4.4-6.2l-0.8-0.6l-4.8-1.1l-0.3-0.5l-9.6-15.3l-3-5.3c0.1-0.2,0.2-0.4,0.2-0.7
		c0-0.6,0.2-0.8,0.2-1.4s0.1-0.3,0.1-0.5c0.1-0.3,0.2-0.7,0.4-1l1.4,0.3c0.4,0.3,0.8,0.6,1.2,0.8c0.2,0.1-0.2-0.6-0.2-0.6l-1.8-2.6
		c-5.3-7.6-12.7-4.8-12.7-4.8c-5.2,1.6-8.3,6.9-7.3,12.2l2.2,8.7c0,0,1.5,2.6,1.6,3c0.7,1,1.4,1.9,2.2,2.7c0.7,0.5,1.4,1,2.2,1.4
		l2.5,0.9l2.7,5.2c0,0,3.1,4.5,3.5,4.8s2.5,3.3,2.5,3.3s5,7,1,12.7c-2,1.9-4.6,2.9-7.3,2.7c0,0-3.2,0.1-4.5-1.8c0,0-3.3-3.3-4.1-6.2
		l-1.7-6.6l-4.7-24.1l-1.4-8.9l-0.4-4.9c0,0-1.2-11,3.7-13.8c2.9-2.2,6.7-3,10.2-2.2c0,0,5.8,1.4,9.2,8.4l6.3,10.7l6.5,11.2l2.6,4.6
		c2.3,3,5,5.7,8,8l3.4,2.4c0,0,2.4,0.9,3.3,8.3l2.3,19.1v4.9c0,0,0,3-4.7,4.7l-11.9,4.8L1190.9,836.2z"/>
	<polygon class="st1" points="1390.8,1001.4 1405.4,993.7 1396.2,977.7 1381.6,988 	"/>
	<path class="st1" d="M91,333c0.7,0,0.4-0.2,2.7-0.4c2.2-0.2,2.7-0.9,4.4-1.3c1-0.3,1.8-1.2,1.8-2.2l-6.7,0.9c0,0-2.7,0-2.9-1.1
		s-1.3-6-1.3-6l-6.4,1.5l7.3,27.1l6.7-2.7c0.2-0.7,0.4-1.5,0.4-2.2c-0.2-1.5-0.5-3-1.1-4.5c-0.6-1.1-1.3-2.3-2-3.3
		c-0.5-0.9-1.3-2.7-1.8-3.3C91.7,334.8,90.3,333,91,333z"/>
	<path class="st1" d="M107.8,330.9c0-2-1.6-3.6-3.7-3.6c-2,0-3.7,1.6-3.7,3.6s1.6,3.6,3.7,3.6C106.1,334.5,107.8,332.9,107.8,330.9z
		"/>
	<path class="st1" d="M124.4,298.2l-2.5,0.8l1.7,5.2l0.8,4.7c0,0,1.7,1.3,2.1,1.5c0.8,0.5,1.3,1.4,1.2,2.3c0.1,0.8-0.2,1.7-0.7,2.3
		c-0.3,0.3-0.5,0.7-0.7,1.1l0.2,0.7l1,1.5l3.8-1l2.8-2c0.7-0.6,1.3-1.2,1.8-1.9l2.5-1.1c0.4-0.6,0.6-1.4,0.3-2.1
		c-0.3-0.8-0.6-1.7-0.8-2.5l5.1-0.8c1.4,0.1,2.8,0.3,4.1,0.7c1.1,0.3,2.1,0.5,3.2,0.7c1.3,0.3,1,0.3,2.5,0.7s0.9,0.7,2.7,0.7
		c1.1,0,2.2,0,3.3-0.2c0.9-0.1,1.8-0.3,2.7-0.7l3.2-1.7c0,0-0.3,0.3,2.2-1.3s2-1.7,3.2-2.5c0.9-0.6,1.8-1.3,2.7-2.1l1.3-0.9
		c0,0,0.1-0.7,0.9-0.3c0.8,0.3,1.5,1.8,1.5,1.8s1.2,3.3,1.5,3.3c0.3,0,5.2,7.5,5.2,7.5l13.6-8.2l-2-6.7l-0.3-0.5
		c0.3-0.4,0.5-0.8,0.8-1.2c0.6-0.6,1.2-1,1.9-1.4l1.1-0.7l2.7-1.3l2.3-0.3c0,0,2.8-0.2,3.8-0.4c1-0.2,4.6-1.3,4.6-1.3l4.6-0.1l2,1
		l14.7,5.9l9.3-23.9l-17.1-6.2l-7.4,20.5c-0.7-0.1-1.3-0.1-2-0.1c-1.1,0-1.2,0.2-2.7,0.7c-1.3,0.5-2.7,1-4.1,1.3
		c-0.9,0.1-2.8,0.6-4.7,0.8c-1.6,0.3-3.2,0.7-4.8,1.2c-1.3,0.5-2.6,1-3.9,1.5c-0.4,0-1.9,0.9-2.9,1.5l-0.8-1.2l-3.6-3.7l8.6-34.2
		l-2.2-0.6L186,290l-11,6.8l-3.4,2.4l-2,2.3l-3.1,2.1c-0.3,0.2-3.2,1.8-3.2,1.8l-1.9,0.8l-4.4,1l-3,0.2c-0.7-0.1-1.4-0.4-2-0.8
		c-0.6-0.5-0.7-1-1.5-1.2c-0.8-0.3-1.7-0.5-2.5-0.7c-1.4-0.1-2.9-0.1-4.3,0c-1,0.2-2,0.3-3,0.3l-3.2-0.2c0,0,1.5-0.1-0.9-1.8
		c-2.3-1.7-1.4-1.2-3.4-1.9c-2-0.7-2.1,0.1-2.3-0.9l-0.7-3l0.3-0.5L124.4,298.2z"/>
	<path class="st1" d="M700.6,86.3l-6,8.2l24.8-9.6c0,0,29.2-1.3,30.1-1.2s30.4,8,30.4,8s43.3,7.7,44.6,7.7s23.5-1.3,23.5-1.3
		l-0.4-1.6c-42.3-0.3-69.3-27.4-69.3-27.4l-5.2,0.6l-12.9-1.6c-40.9-3.3-61.3,12-61.3,12L700.6,86.3z"/>
	<path class="st1" d="M739.7,101.6c-0.7,0-47.9,15-47.9,15l-7,5.2c0,0,31.5-9.2,32.3-9.5s34.3-9.9,36.5-10.4s18.2-2.2,18.2-2.2
		L760,97.4l-11,1.9C749,99.4,740.4,101.6,739.7,101.6z"/>
	<path class="st1" d="M809,111.7l-9.9-0.6c1,0.1,13.3,9.8,13.3,9.8s4.9,1.5,5.5,1.5s14.8,0.4,14.8,0.4s72.2-5.6,72.6-5.6
		s8.1-1.8,8.1-1.8s5.5-1.8,6.1-1.8s9.2-2.2,9.2-2.2l10.2-3.6c0,0-85.9,6.4-88.2,6.5c-2.2,0.1-21.5,0.3-22.4,0.3s-11.8-1.5-11.8-1.5
		L809,111.7z"/>
	<polygon class="st1" points="710.3,69 745,64.7 736.6,54.6 732,-6.8 721,-6.6 709.7,59.5 	"/>
	<path class="st1" d="M1401.8,669l-21.3-24.7l-12.8-14.6l-24.9-31.1l-25.4-31.5l-23.1-27.3c-4.7-6.3-3.3-8.4-3.3-8.4l1.8-9.8
		c2.1-11-6.3-18.9-6.3-18.9l-8.7-8.9c-4.8-9.8-9.6-11-9.6-11c-5.7-1.5-7.8-3-7.8-3c-7.4-5.3-6.7-11.5-6.7-11.5
		c-0.4-6.7-4.7-9.3-4.7-9.3c-2.7-3.6-4.8-7.7-6.3-12c-4.4-15.4-2.8-31.2-2.8-31.2c1.4-10.3,3.8-20.4,7.2-30.3
		c5.3-11.5,14.2-25.1,14.2-25.1c8.9-12.5,24.3-16,24.3-16c12.4-2.7,31.2,0,31.2,0l7.1,1.3l7.5,1.9l5.9,1.7l9.8,1.6
		c7,1.1,14,1.1,21,0.2l-2.1-1.1c-7.9-0.1-15.9-0.6-23.8-1.5c0,0-11.8-2.5-17.2-4.4c0,0-16.8-3.6-32.3-2.5c0,0-17.1,0.7-28.9,12.9
		c0,0-9.5,9.5-17.8,28.7c-2.8,7.3-4.8,14.8-6.1,22.5c-1.7,9.8-2.3,19.8-1.6,29.7c0,0,2.7,17.6,10.7,26.1c0,0,2.7,1.5,2.8,6.7
		c0,0-0.3,11.3,12.2,15.3c0,0,7.5,1.5,11.9,10.4l10.7,12.1c0,0,4.7,3.5,5.1,13.3l-1.3,8.3c0,0-3.3,5.9,1.7,12l34.6,40.9l31.9,41.1
		l22.2,25.5l35.3,40.5c5.3,5.9,8.1,13.7,7.8,21.7c0,0-0.2,10.6-15.6,23c-7.7,5.2-15.7,10-23.9,14.3l-20,10.6c0,0-12.4,6.8-18.2,24.1
		c-3.6,10.3-4.2,21.4-1.6,31.9l0.8-0.1c-3.6-14.5,1.9-30.7,1.9-30.7c4.4-14.8,17.2-24.2,17.2-24.2l16.2-8.1l26.5-15.1
		c13-9.1,16.2-18.4,16.2-18.4c6.9-15.8-4.1-27.4-4.1-27.4L1401.8,669z"/>
	<path class="st1" d="M1350.2,767.7l5.8-6.4l7.2-6.2l17-10l15.3-9.5c10.6-7.2,13.3-14.5,13.3-14.5c7.6-15.9,2.3-25.2,2.3-25.2
		l-1.7-0.2c3.2,7,0.9,17.3,0.9,17.3c-3.9,14.4-13.6,19.9-13.6,19.9s-12.1,7.7-12.4,7.7s-12.3,7.1-12.3,7.1l-7.1,4.2l-5.4,4.1
		l-5.1,4.8c-11.3,11.5-13.6,22.2-13.6,22.2c-1.3,5.5-1.8,11.1-1.5,16.7l1.8-0.2c-0.7-3-0.1-10.7,0-10.7
		C1341.9,778.4,1350.2,767.7,1350.2,767.7z"/>
	<path class="st1" d="M1127.9,233.8l2.4,2.7l4.2,1.2l3.3-7c0,0,2.1-5,1.8-5.5c-0.9-0.8-1.8-1.6-2.8-2.4v-2.4
		c-0.3-2.5-0.8-4.9-1.8-7.3c-0.7-1.5-4.9-4.9-5.3-7c-0.4-2.1-0.2-1.3-0.2-2.1c0-0.8-0.2-0.6-4.6-5.8c-4.4-5.2-2.5-1.2-3.4-3.5
		s-0.6-2.8-0.6-2.8c-0.5-2.4-0.9-4.9-1.2-7.4c0-1.6-1-5-0.9-5.9c0.2-0.9-3.4-5.9-3.7-6.4c-0.3-0.5-2.8-2.8-2.8-4s0.3-3.4,0.3-3.4
		c0.3-1.5,0.5-3,0.4-4.6c0-2.8-1-3.6-1-3.6c-0.9-1.1-1.7-2.4-2.2-3.7c-0.4-1.5-0.1-3.1-0.6-3.9c-0.4-0.7-1-3.7-1.6-4.9
		s0.7-3.1,0.9-3.7s2.2-2.8,2.4-3.6c0-1.3-0.1-2.7-0.3-4c0,0-3.4-3.1-3.8-3.4c0,0-0.2-0.5-2.6-1.8c-2.4-1.3-0.9,2.7-2.4,6.7
		s0.3,1.9-0.2,4c-0.3,1.2-0.9,2.4-1.8,3.3l-1,4.1c-0.6,2.4,0.4,3.1,0.4,3.1s-1,3.1-1.5,4c-0.7,1.9-1.1,3.9-1.3,5.9
		c0.1,1.3,0.4,2.5,0.7,3.7c0.3,1.5,0.3,3-0.2,4.5c-0.4,0.9-0.4,0.7-2.2,2.4c-1,0.8-1.8,1.9-2.4,3l-0.4,4.7c-0.7,1.7-1.4,3.4-2.2,5
		c-1.4,3-0.4,3.3-0.4,3.3l0.3,3.1l0.6,3.5c0,0-0.4,4.2-0.6,4.6c0,1.5,0.1,3,0.3,4.4l-1.5,4.1c0,0,0.2,2.8-2.2,9.9
		c-2.4,7.1-0.3,1.2-1.5,3c-1.2,1.8-0.9,1.5-1.9,5.5s0.6,3.7,0.6,3.7c0.1,0.9,0.1,1.9,0,2.8c-0.2,1.6,0.6,1,0.6,1l4,1.6l5.6-0.1
		c0,0,4.3,0.7,4.7,0.7s3.3,0.6,3.6,0s2.4-0.3,2.8-0.5c1.7,0.2,3.4,0.5,5,0.9l2.5,1.3c1.7,0.4,3.4,0.6,5.2,0.7c1.8,0,1.3-1.2,1.3-1.2
		l4.3-0.7L1127.9,233.8z"/>
	<path class="st1" d="M1453.3,276.3l-14.2,27.7l1.8,0.9l20-38.5c5.2-11.1,1.7-18.9,1.7-18.9c-3.3-5.3-8.1-9.4-13.9-11.8
		c-8.3-3-17.8,0-17.8,0l-7.6,2.9l-6.8,2.7c0,0-10.5,4.7-11.2,4.8s-8,1.8-8,1.8c-12.4,2.6-18.2,1.6-18.2,1.6
		c-11.7-0.4-15.3-5.2-15.3-5.2l-9.6-7.7l-18.9-16.1l-18.7-13.8l-9.8-6.9c0,0-9.4-4.1-10-4.1s-7.5-3.5-9.6-4.1
		c-2.1-0.7-1.3-0.2-1.8-0.3s-4.4,0.2-4.4,0.2c-1.1,0.4-2.1,0.9-3.1,1.4c-1.2,0.8-1.4,1.6-3,2.7c-0.8,0.5-1.5,1.1-2,1.9
		c-0.8,0.7-1.7,1.4-2.6,2c-0.9,0.6-0.6,1.2-1.9,2.7s-1.8,1.1-3.6,1.6s-3.7,0.8-4.2,0.9c-8.3,4.8-12.2,1.8-12.9,1.6
		c-0.7-0.2-5-0.8-5.7-0.9s-5.1-1.7-6.9-2s-1.9-0.5-3.7-0.8c-1.8-0.3-2.2-0.4-2.9-0.6c-1.4-0.2-2.8-0.6-4.1-1.1
		c-0.9-0.6-2.8,0.3-3.7,0.3c-1.6,0.3-3.2,0.7-4.8,1.3c-2.2,0.6-4.5,0.9-6.8,1c-1.1,0-4.4,1.8-5.6,2.1c-1.1,0.3-4.9,1.6-4.9,1.6
		s-5.3,2.7-6,2.8c-0.7,0.1-6.1,2-6.1,2l-9.2,3.7c-0.6,0.2-7.6,3.3-7.6,3.3l-5.8,2.3l0.9,1.6l0.8-0.1l1.1-1c0,0,6.8-2.9,7.1-3
		s4.1-1.8,4.1-1.8l11.4-4.1l3.8-1.9l4.2-1.6l4.2-1.1l9.3-3.3l6.3-1l1.9-0.4l3.1-0.3l3.1-0.1l3.3,0.5l4,1.1c0,0,3,1.1,3.3,1.2
		c0.3,0.1,4,1.1,4,1.1l6.8,1.1l1.4,0.9c0,0,2.2,0.2,2.8,0.2s3.1-0.4,3.1-0.4l2-0.3c0,0,1.8-0.9,2.1-1.1c0.3-0.2,3.7-1.2,3.7-1.2
		s2.1-0.2,2.7-0.3c1-0.4,2-0.8,2.9-1.2l1.8-1.5l5.2-4.7c3.8-5.9,11.7-5.1,11.7-5.1l7.3,2.6l2.3,1.3l12,6.1l7.7,5.1l9.1,6.8
		l19.8,16.7c10,9.9,23.2,17.7,23.2,17.7c12.9,6.9,37.9-1.7,37.9-1.7l22.6-9c20.2-7.3,30.7,6.7,30.7,6.7c6.2,6.4,1,18,1,18
		L1453.3,276.3z"/>
	<path class="st1" d="M1644.1,428.1l0.2,27.1l2.6,43.7l0.8-38.7l-1.7-27.3l-1.4-21.9c-2-18.4-10.4-22.4-10.4-22.4
		c-6.9-3.6-19.3-4.2-19.3-4.2l-20.2-1.1l-19.8-1.4l-37.9-5.3l-33.2-7l-21.4-5.1l-39.9-11.4l-32-10l-19.7-5.7l-22.4-4.9l27.7,10.9
		l35.8,10.7l44.7,13.7l43.9,8.4l9.1,2.6l37.8,5.2l30.4,2.3c21.9,0.2,33.2,3.8,33.2,3.8c9.2,3,11.3,21.5,11.3,21.5L1644.1,428.1z"/>
	<path class="st1" d="M1637.2,399.9l-1.7-2.8c-0.7-1-1.6-1.9-2.4-2.8c-0.3-0.1-4.6-2.5-4.6-2.5l-7.7-1.2c0,0-16.5-1.7-16.8-1.7
		l10.9,3.8l7,4l8,5.7l6.9,6.2l3.6,7l-0.3-5.3l-1.6-6.5L1637.2,399.9z"/>
	<path class="st1" d="M1701.4,252.7c0.4,0.4,1.6,1.8,1.9,2.1c0.7,0.6,1.3,1.3,1.7,2.1c0.4,1.1,0.5,1.6,0.5,1.6l3.9-0.1
		c0.2,0,6.2-0.6,6.2-0.6l-0.7-6.2l-2.2-0.1l-3.4,0.3c0,0-1.1-9.7-1.2-10.1c-0.3-0.6-0.7-1.2-1.2-1.7c-0.5-0.3-1.2-0.5-1.8-0.5
		c-0.6,0.1-2.7,0.6-2.7,0.6l-2.3,0.7l-0.7,0.5c0,0,0.3,4.3,0.4,4.7s0.8,4.5,0.9,5S1701,252.4,1701.4,252.7z"/>
	<path class="st1" d="M1809.4,137.9l-30.5,14l-26.2,11c0,0-17.9,6.6-24.7,6.7c0,0-14.8,1.3-25.8-0.5c0,0-25.3-5.1-35.3-12.8
		l-0.1-0.1c1.7-11-2.4-21.6-2.4-21.6c-0.8-2.9,0-6,2.2-8.1l2.3-2l2.7-1c0.8,0,1.5,0.1,2.3,0.1l16.8,5.9c1.8-0.9,0.8-2.8,0.8-2.8
		l-17.9-5.8l0.4-0.5c5.1-4.5,5.3-12.6,5.3-12.6l0.2-10.5h-2.1l-0.6,4.6l-0.4,9c-2.2,8.2-7.2,10.3-7.2,10.3c-5.5,1.8-6.7,5.8-6.7,5.8
		c-3.5,5.9,0.2,12.5,0.2,12.5c1.4,4.9,1.9,10,1.5,15l-21.2-12.9l-31.3-20.7l-28.7-18.4l-23.7-14.6l-14.2-8.8l-14.6-10.9l-6.6-4.1
		l-8.4-5.4l-84.6-61.6l-12.3,0.4l97,71.1l39,25.2l35.8,21.8l34.8,21.9l28.3,18.1l17.1,9.3l0.7,7.6c1,6.5,4.4,9.5,4.4,9.5l7,5.1
		l7.1,6l5.5,6.4l2.9,4.1l3.6,9l4.9,14l6.2,15.8l5,9.9l7.1,14.6l0.4,1.9l-0.3,2.9c-0.9,0.7-1.8,1.4-2.1,1.5c-0.6,0.2-1.1,0.5-1.7,0.8
		c-0.9,0.5-7.6-0.5-7.9-0.5s-8.7-1.7-8.7-1.7l-2-0.4l-3.8-12.7l-3.2-11.1l-5.8-18.9l-0.9-4.4l-4.1-15.3l-1.3-4.7l-0.2,3.2l-0.4,1.8
		v1.5l11.8,40.9l-5.6,3.6l-1.8-1.2l-1.7,0.1l-1,0.7c0,0,12.2,11.7,15.4,15.9l-2.7-0.5l-11.1-3.9c-0.1,0-0.3-0.1-0.7-0.3l-0.8-4.2
		c0,0-0.7-3.1-0.7-3.7c-0.4-1.1-1-2.2-1.7-3.2l-1.8-2l-11.4-9.3l-31.4-24.2l-14.1-10.7l-5-3.8c-1.2-0.9-2.5-1.7-3.8-2.4
		c-0.9-0.3-5.6-3.3-5.9-3.5s-3-1.4-3-1.4l-2.2-1l-4.1-1.9l-6.1-1.5l-19.8-7.5l-19.1-7.5c0,0-8.8-3.2-9.1-3.3
		c-0.3-0.1-7.8-2.3-7.8-2.3l-5.9-2.6l-6.2-1.6l-3.1-1.4l-6.9-1.1c0,0-22.7-4.3-23-4.4c-0.3-0.1-10.8-1.8-11.1-1.8
		s-14.6-1.2-14.6-1.2l-6.2-1.6l-5.3-0.7l-8-1.2l-22-2.9l-6.6-2.4c-0.9-0.3-8.7-2-9.2-2.2c-0.5-0.2-9.8-3.4-10.1-3.7
		c-0.3-0.2-12.1-4.5-12.1-4.5l-31-13l-11.2-5.8l-7.3-1.4l-34-8.4l-13.9-4l-11.2-1.9l-6.4-1.2l-5.8-1.3l-26.9-4.2l-23.8-3.7
		l-36.6-5.7l-32.1-5.2l-28.7-4l-14-1.6l-7.9-1.5l-8.2-0.6l-24.7,0.3l-6.9,0.6l-4.4,0.5l-5.8,0.2c0,0-4,0.1-5.1,0.1s-6.4-0.1-6.4-0.1
		l-7.4-1L998.3,76l-10.5-0.7l-5.6-0.3l-4.8,0.1l-6,1.5l-9.2,1.4l-4.9,0.8l-40.2,5.9c0,0-8.9,0.9-9.2,0.9S894.7,87,894.7,87l-8.3,0.7
		l-27.1,2.5c0,0-8.9-0.2-10.3-0.2s-8.6-0.3-8.6-0.3l-6.9-0.5c0,0-2.9-0.3-3.3-0.4c-0.5-0.1-6.9-1.1-6.9-1.1l-3.8,0.7l7.6,2.7
		l8.4,1.2h13.2c0,0,13.6-0.5,14.1-0.5s15.6-1,15.6-1l13.9-1.8l16.7-1.8c0,0,18.5-1.8,19.2-1.8s12.9-1.7,13.4-1.7s13.5-2.2,13.8-2.2
		s14.5-2.6,15.7-2.7c1.2-0.1,8.4-1.2,9.2-1.2s5.9,0.1,6.8,0s20,0.5,20.5,0.5s12.7,0.5,12.7,0.5s8.9,0.5,9.2,0.7
		c0.3,0.1,8.1,0.6,8.1,0.6s5.7,0.7,6.7,0.9c2,0.1,3.9,0.2,5.9,0.1c1.1,0,4.2-1.1,5.2-1.1c1.2-0.2,2.4-0.7,3.6-1.2c0,0,5-0.8,5.6-0.7
		c0.6,0.1,17.9-0.7,19-0.5c1.1,0.2,8.9,0.7,8.9,0.7s4.3,0.8,4.9,1c0.6,0.2,2.4,0.3,4.2,0.7c1.8,0.3,2.8,0.2,5.1,0.8s5.7,0.8,7,1.1
		c1.3,0.3,7.2,1.4,8,1.7c0.8,0.2,8,0.9,8.7,1.1c0.7,0.2,12.3,1.5,14,1.8c1.7,0.3,14.9,2,15.6,2.1c0.7,0.1,12.2,2.4,12.2,2.4
		l26.7,4.1c0,0,7.7,0.9,9,1c1.3,0.1,7.7,0.9,8.3,1.1c0.7,0.2,6.9,1.2,7.9,1.3c1,0.1,28,5,28,5s20.9,3.2,21.4,3.3l14.4,2.9
		c0,0,18.2,4.8,18.8,4.9s29.4,7.3,29.4,7.3l6.3,1.7c0,0,10.8,4.9,11.1,4.9s25.9,11.1,26.6,11.3s18.7,6.8,18.7,6.8s14.8,5.3,16.1,5.8
		s8.8,2.2,10.3,2.6c1.6,0.3,6,1.1,7.9,1.4c1.9,0.3,6.7,0.8,7.6,1c0.9,0.2,7.1,0.8,7.8,0.9s6.6,1.5,7.6,1.5s23.7,3,24.2,3.1
		s14.7,2.1,15.4,2.2c0.8,0.1,24,5.1,26,5.4c2,0.3,16,4.7,16.4,4.8s8.3,3.2,8.3,3.2l15.4,6.4c0,0,19.1,7,19.3,7.3s14.4,6,15.8,6.3
		s6.3,1.7,7.4,2.1s5,2.1,6.2,2.8c1.2,0.7,3,2.8,4,3.4c1,0.7,5.1,3.2,6,3.7s13.2,10,13.7,10.1s9.4,6.8,9.4,6.8s22.3,18.1,22.7,18.4
		c0.3,0.3,10.7,8.6,11.1,8.8s4.1,3.7,4.1,3.7l1.3,2.9l0.3,4.2c-1.4-0.7-2.8-1.3-2.8-1.3l-13.6-6.4c0,0-15.2-6.8-16.9-7.9l-0.3-0.7
		l0.9-2l-0.1-3.6c0,0-5.3-3.3-5.7-3.4c-0.3-0.1-4.2-3.7-4.2-3.7s-8.7-7.9-9-7.9s-11.3-8.5-11.3-8.5s-9.5-7.5-9.9-7.7
		c-0.4-0.1-14.4-7.8-14.4-7.8L1582,198l-34-13.9l-2.1,3.4l8.1,4.2l10.1,6.5l3.6,3.7l5.9,8.4l4.3,6.9l4.6-2.5l5.2,0.5l5.3,2.4
		l9.5,4.4l16.9,9.8l20.2,14.8c2.4,1.5,4.5,3.5,6.1,5.9l3.2,8.3l1.3,3.8l2.2,5l5,1.6l-5-14.7l25.5,14.7l14.8,7.6l6.9,4.3l4,4.9
		l6.4,13.9l4.8,17.7l2.9,10.3l1.2,7l0.7,21.3c-0.2,5-4.6,4.8-4.6,4.8c-12.6-0.1-17.2,6.5-17.2,6.5l0.6,1.8l2.6-2.4l3.3-1.8l5.2-1.3
		l6.4-0.7l0.3,0l0.4,1.3l0.4,2l-1,1.6l-2.1,2.7l-10.7-0.5l-0.6,3.3l4.5,0.3l0.2,21.5l8.6,0.8l3.4,0.4l0.2,24.9l-0.7,20.4l-0.7,18
		v7.5c0,0,0.7,7,0.7,7.3s0.7,5.4,0.7,5.4l1.7,7.3l2.6,12.1l1.4,12l1.3,28.7v15c0,0-0.2,1.8-0.3,2.3c-0.6,1.5-1.3,2.9-2.2,4.3
		c-0.3,0.2-2.3,3.1-2.5,3.2s-2.5,2.7-2.5,2.7l-2.2,1.6l-1.4,0.4c-0.7,0.2-1.3,0.3-2,0.4c-1,0.1-2,0.3-3.3,0.5s-2.3-0.2-3.4,0.2
		s-2.5,0.9-2.5,0.9s-4.5,2.6-4.7,2.6s-3.3,2.4-3.3,2.4c-3.4,2.5-1,6.8-1,6.8l1.4,2.9l2.6,3.8c0,0,1.4,1.6,1.5,1.7s1.9,1.7,1.9,1.7
		l2.4,0.7l3-0.2l3.6-0.2c0,0,3.6-0.6,3.7-0.6s2-0.6,2-0.6c5.4-2.2,5.2-6.7,5.2-6.7l-0.2-13.2c-0.3-2.2,0.2-4.4,1.3-6.2
		c3.1-2.6,4.8-8.5,4.8-8.5v-15.3l-0.7-26.5c0-4.8-1.6-17.3-1.6-17.3l-3.5-14.9l-2-11l-0.6-11.9l0.3-12.7l0.5-19.2l0.4-33.7l0.1-16.9
		l0.6-12.1c0-0.2,0.1-0.5,0.1-0.7c0.1-0.4,0.2-0.7,0.3-1.1l0.9-1l0.8-1.1l1.2-0.7l4.7,0.2c0,0,1.3,0.8,1.3,1.1
		c0,0.1,0.3,0.1,0.6,0.2l-0.6,32.4l-0.4,34.9l-0.6,30.1l0.7,33.2l0.7,28.3l0.7,22.3l-0.5,25l0.6,26.9l1.3,22.2l1.6,19.1l3.3,22.6
		l5.1,26.4l1.1,5.3c0,0,0.3,1.3,0.6,3l-4.1-5.5l-6.9-10.9l-7.8-18l-10.4-20.2l-9.3-16l-9.8-15.8l-6.9-11.6l-13.6-24
		c0,0-5-7.6-14.1-13.5c0.4-0.5,0.7-1,0.9-1.5l-0.6-3.3c22.6,12.4,52.4,5.9,52.4,5.9v-4.5l2-5.3v-5.6l-1.6-34.4l-20.2,22.7l-13.8,7.8
		l-30.7-1.7c-1.8-1.9-3.3-3.8-3.6-4.6c-0.6-1.8-7.7-17.2-7.7-17.2l-5.3-19.6l-1.8-17.2c-3.6-3.6-5.4-8.6-4.7-13.6
		c1.2-8.3,0-19.6,0-19.6l-6.5-13c0,0-5.3-3-7.1-7.1s-3-6.5-3-6.5l-2.4-3l-0.5,7.1c0,0-1.7,9.8-2.7,16.5l-2.4-0.7l-3.9-1
		c0,0-10.8-3.8-11.3-3.8s-20.8-7.9-20.8-7.9s-6.2-1.3-6.6-1.3l-5.8-0.9l-8.1-0.7l-7.3-1l-6.9-2l-6.8-3c1.2-1,2.4-2.6,1.9-4.4
		c-0.7-2.3-2.1-4.3-4-5.7c0,0-1.2-1.6,0.4-7.3c1.6,0.5,7.7,2.4,7.9,2.5c0.3,0.2,6.2,1.9,6.2,1.9l9.4,3.2l17.9,6.3l14.2,4.2l16.9,3.2
		l5.2-0.3l-9.1-2.1l-27-6.9L1553,412c0,0-12.8-5-14.1-5.3c-1.3-0.2-22.8-6.7-22.8-6.7s-7.3-1.6-8.1-1.7c-0.8-0.1-8.8-1.2-9.1-1.2
		s-16.3-2.9-16.3-2.9l-25.7-7.4c-25.8-8.3-33.2-20.9-33.2-20.9l-1.8,0.1c4.8,9.2,24,18.7,24,18.7l8.1,3.7l6.9,2.6l12.3,3.6l8.3,1.5
		l12.1,2.1c0,0,2.9,0.7,3.4,0.7c0.1,0,0.6,0,1.2,0.1c7.7,4.6,19.1,17.7,19.1,17.7c4.8,6.8,8.3,14.4,10.3,22.4l1.9,2.6l-0.2-5.1
		l-0.9-3.1c-1-3.8-2.5-7.3-4.3-10.5l1.9,0.8l3.2,1.3l3.8,1.3l3.9,1.3c0,0,3.3,1,3.6,1.2c1.9,0.3,3.8,0.5,5.7,0.5
		c0.9,0,4.7,0.8,4.7,0.8s10.1,1.2,10.4,1.3l3.9,0.9l9.2,3.5l23.7,8.4l5.3,2l1.4,0.2c-0.3,1.7-0.4,3-0.4,3.3c0,1.8-1.8,10.1-1.2,16
		s-1.2,21.3-1.2,26.7s1.2,18.4,1.2,18.4c-0.7,3.1-1.7,6.1-3,8.9c-2.4,5.3-8.3,16-10.1,19.5c-1.1,2.2-2.5,4.2-4.1,5.9l-4.8,4.7
		l-5.9,5.9l-8.3,5.9c0,0,15.4-7.1,21.3-6.5s-3.6-2.4,9.5,1.2s13,4.2,21.3,4.7s10.7-0.6,21.3,1.2s15.4,1.8,18.4,1.2c0,0,0,0,0,0
		c4.8,3.1,10.2,7.8,15.3,15.3l42,70.9l10.4,22.9c0,0,8.7,18.9,9.6,20.2s7.6,11.1,7.6,11.1l3.8,3.5l4,12.5l12.3,21.8l0.4-0.4
		l9.9,19.8l17.8,30.2l15.4,28.7l3.5-3.8l-10.1-16l-24-41.2l-10.4-19.7l0,0l-7.1-12.2l0.3,0.2l6.2-4.2l4.4,4.2l2.4-0.9l-3.6-6.5
		l2.3-2.7l-1.8-2.4c0,0-1.5,1.5-2.4,1.5s-3.8-5.3-3.8-5.3l-2.7,0.3l0.6,7.1l-4.1,5l-3.7-7.1l-2.7-7.9l-2-7l-2.9-14.3l-4.1-19.3
		l-1.8-9.8l-2.7-18.2l-2.2-22.2l-0.8-24.9l0-15.4c1.2-0.2,2.4-0.5,3.6-0.9c1.3-0.5,2.6-0.7,4-0.7l2.4,3.3l2.2,0.2v-2.7
		c0.1-1,0.3-2,0.7-2.9l1.3-0.7l4.7-2.7l3.3-2.4l-0.2-2.2c0,0-6,0.7-6.7,0.7s-1.8-2.7-1.8-2.7l-2-0.2l-0.9,5.6l-5.8-0.2l-2.7-2.7
		l-2.4,0.3l-0.4-20.3l-0.4-22.4l-0.7-23.3l-0.3-25.8c0,0,0.2-21.4,0.2-21.1c0,0,0,0,0-0.1l1.2,0l2.8,1.1l1.1,0.9l2.6,5.1l0,0
		l1.3,11.3l2.7,40.1l1.7,0.1l-0.4-9.9l-2.9-41.9l0.3-4.9l12-0.3c1.6,0.5,2,3.8,2,3.8l2.8-0.1l-1.8-5.9c-0.6-1.9-3-1.6-3-1.6
		l-14.2,0.2c-5.1,0-7.2-1.9-8-3.1c0.2-9.2,0.5-27.8,0.5-27.8l-0.2-26l0.5-22l0.1-7c0,0,0.1,0,0.1,0l0.1-2.2l0,0
		c0,0,0.6-13.5,0.9-20.1c0.3-6.7-2.8-20.8-2.8-20.8l-8.7-31.2c0,0-1.4-4-1.7-4.7s-0.3-2.2-0.6-3.1c-0.1-1.3,0-2.5,0.1-3.8
		c0.4-0.5,0.7-1,1-1.6c0.1-0.3,1.7-1.1,1.7-1.1c20.4,0.8,43.4-11.9,43.4-11.9c11.1-5.9,24.1-22.3,24.1-22.3l21.2-31.2l18.9-27.3v0
		l38.8-65.9l54.9-23.1l0.3-14.1L1809.4,137.9z M1717.8,381.6h-9.1v-2.1h9.1V381.6z M1718.8,373.7v1.2l-0.2,0.5c0,0-1.6-0.4-1.9-0.6
		c-0.3-0.1-0.8-0.1-1.2-0.5s0-0.2-0.1-0.4s0.3-0.4,0.3-0.4s1.1-0.9,1.2-1s0.7-0.8,0.7-0.8l0.9-0.3l0.2,0.2V373.7z M1720.1,588.8
		l-0.8,1.3l-3.1,2.1c-0.9,0.3-1.8,0.6-2.7,0.8c-0.7,0.1-2.6,0.5-3.1,0.5c-0.9,0.1-1.8,0.3-2.7,0.5c-0.8,0.2-1.6,0.2-2.4,0.1
		c-0.9-0.1-1.8-0.4-2.6-1.1c-0.5-0.5-1-1-1.5-1.5c0,0-1.1-1.7-1.3-1.9s-1.4-2.5-1.4-2.5l-1.4-2.4c-0.8-2.4-0.1-3.4-0.1-3.4
		c0.5-0.4,1-0.9,1.5-1.3c0.1-0.2,2.7-1.7,2.7-1.9s3.9-2.3,3.9-2.3l2.6-1l2-0.3l2.6-0.1l3.3-0.3c0.7-0.1,1.3-0.2,2-0.2
		c1.2,0,0.7,0.1,0.9,0.2s0.7,0.8,0.7,0.8l0.6,1.2l0.3,1.8l0.2,3.8l0.1,2.8L1720.1,588.8z M1522.5,419.9c-7.2-11.2-17.5-18.4-21-20.6
		c0.6,0.1,1.1,0.1,1.1,0.1l5.3,1.2l8.9,1.7l5,1.2l-0.9,4.6c-0.1,2.7,1,5.3,3,7.1C1523.9,415.2,1527.7,419.4,1522.5,419.9z
		 M1723.1,299.2l5.7,19.8l3,12.6l1.2,8l-0.7,17.3l-0.4,4.6l-3.2,0.3c-0.2,0-0.4,0-0.6-0.1c-1,0-2,0.1-3,0.2c0,0-0.5,0-1.3-0.1
		c-0.4,0-0.8-0.1-1.1-0.2l-0.5-0.4l-0.4-1.7l0.2-8.2l-0.5-14l-1.8-10.1l-5.2-17.6c-1.9-6.8-4.5-13.4-7.7-19.6
		c-4.7-8.7-13.8-13.6-13.8-13.6l-9.8-5.8l-15.7-8.9l8.4,3.7l12,5.7l8.3,2.6l6.4,1.6l3.9,1.7l3.3,0.9l2.8,1.3l5,5l2.6,5.2
		L1723.1,299.2z M1830.4,180.7L1830.4,180.7c0,0-0.8,1.2-2.1,3.1l-18.1-10.5l-1.5,2.8l17.7,10.6c-6.6,9.9-19.2,28.9-19.5,29
		c-0.3,0.1-22.2,30.4-22.2,30.4c-11.7,16.1-34.2,23.6-34.2,23.6c-3.8,1.3-7.6,2.3-11.6,3l-6.7,0.1c-0.6,0-2.8-1.8-2.8-1.8
		c-0.1,0-0.2,0-0.3,0l-2.2-3.9l-0.9-2l1.5-5.8l4.1-8.4l9.3-17.3l17-29.1l-2.1-1.2l-31.8,57.8l-0.1-0.3l-5.8-11.3l-5.4-12.4l-5-13
		l-6.1-17c-1.2-3.6-2.9-7-5.2-10.1l-3-3.4l-4.2-4.1l-7.5-5.5c-6.5-4.1-7.5-9-7.5-9c-0.6-2.7-0.9-5.4-0.8-8.2
		c3.5,1.4,23.6,8.9,45.7,8c0,0,16.4-0.1,46.6-11.7l45.2-19.6l51.4-21.7L1830.4,180.7z"/>
	<path class="st1" d="M1606.7,245.2l-1.3-10.1c-3.1-11.2-13.3-8-13.3-8c-10,3.1-7.2,11.5-7.2,11.5c1.1,9.4,8.9,17.6,9,17.8l5.4,0.9
		l-6.4-7.4c-1.8-2.9-3.1-6.1-3.8-9.4c-1.5-7.9,4.9-8.8,4.9-8.8c3.7-1,7.1,3.3,7.1,3.3l1.6,6.7l1.3,6.4l2.7,10.4c0,0,4.2,1.5,4,1.3
		c-0.2-0.2-1.8-3.6-1.8-3.6L1606.7,245.2z"/>
	<path class="st1" d="M1756.3,394.7c0.7-0.8,1.5-1.6,2.3-2.3l1.3-0.4l1.3,0.4c0,0,3.8,1.2,4.3,1.6c0.5,0.3,2.1,1.2,2.1,1.2l4.6,1.2
		c0,0,3,0.2,3.8,0.2c0.9-0.1,1.9-0.2,2.8-0.5c1-0.4,1.9-0.9,2.8-1.5c0.7-0.7,2.6-1.7,2.7-2c1.1-1.2,2.3-2.3,3.6-3.3l2.4-2.7l5.4-3.2
		l12.3-6.3l12.2-5.5l7.3-3.2l10.8-5.2c0,0,6.2-3.1,6.8-3.4c0.4-0.2,1.8-1.3,2.7-1.9l-27.7,78.7l2,0.4l29.4-83.2l1.1-1.3l7.4-15
		l4.3-9.9l5-16.6l10.1,1.8l7.1,0.3l19.1,2.5l17.1,2.5v-3l-4.1-1.3l-8.3-0.7c0,0-4.1,0-5.3-0.2l-6.8-1.2l-29.7-3.8l-2.1-0.3h-4.2
		c-2.1,0-5.4-0.9-6.7-1c-1.3-0.2-2.5-0.5-3.8-0.8l-0.4,1.1l-7.6,0.3l2.9,0.9l4,0.8l6.9,1.1l5.8,0.7l3.2,0.1l-4,15.5l-5.6,12.8
		l-5.2,10.7l-1.5,1.9l-2.8,2.7l-3.6,3.2l-10.6,5.8l-20.5,9.2l-13.3,6l-4.1,2c0,0-5,3-5.3,3.1s-4.4,4.1-4.4,4.1l-2.7,3
		c0,0-3,2.4-3.5,2.6c-0.4,0.2-2,0.8-2,0.8c-1,0.2-2,0.3-3,0.3c-0.8-0.1-1.5-0.2-2.3-0.4l-8.8-3.9l0.7-0.4l1.8-1.3l1-1.7
		c0,0,1-2.2,1-2.4v-1.3l0.6-13.5l0.3-8c2.8-0.1,6.7-0.2,6.7-0.2l8.4-0.4c0,0,3.7-0.5,4.1-0.6c0.4-0.1,3.3-2,3.3-2s4.4-2.8,10.2-11.4
		l3-5.4c0,0,0.3-1.2,0.4-1.4c0.1-0.2,0.2-1.7,0.2-1.7l0.3-4l0.2-3.7l-2.9-29.5l3.5,0.2l7.1,0.7l6.3,0.9c0,0,6.3,0.5,6.8,0.5
		s5.8,1.5,6.1,1.5s4.2,1,4.2,1l4,0.5l-3.3-1.3c-0.4-0.3-0.9-0.5-1.3-0.7c-0.6-0.1-2-1.9-2.7-2.4s-1-0.8-1.8-1.2s-2.6-0.3-3.5-0.4
		s-3.8-0.2-3.8-0.2s-2.8-0.4-4-0.4c-1.2-0.1-6.6-0.5-7-0.5s-10.6-0.4-10.6-0.4s-4.1-0.1-5.4-0.2l-4.3-0.5c0,0-5.3-0.1-5.8,0
		s-14.5-0.8-14.9-1c-0.4-0.1-4.4-0.6-4.4-0.6s-10.9-1-11.2-1c-0.2,0-5.2-0.5-6.8-0.7l0-0.1l-10-0.7l-5.4-0.5l-1.9,0.2l0.3,4.9
		l2.8,8.7l4.2,14.1c0,0,2.9,18,2.9,18.3c0,0.3,0.9,15.2,0.9,15.2l-0.2,3.5c0,0-1.4,0.7-1.4,1.5c0,0.8-0.3,1.3-0.2,1.8
		s-0.1,1.3,0.2,1.9c0.3,0.5,1,3.3,1.3,3.7s0.8,4.5,0.8,4.5l-0.3,22.6l-0.8,23.1c0,0-0.6,6.6-0.2,6.7c0.3,0.1-0.6,7.1,5.6,7.3
		c0,0,4.9,1,7.9-10.7l0.1-2.9l-0.6-17.7l0.1-3.8L1756.3,394.7z M1784.5,300.2l5.5,0.4c0.7,4.1,5,36.2,5,36.2l1.8-1.2l-4.7-34.8
		l7.4,0.5l0.9,0.1l2.2,19.9l0.8,9.9c0,0,0.6,10.2-3.4,14.4c0,0-7.8,9.9-9.2,10.4c0,0-0.1,0.1-0.2,0.1l-0.4-0.5l-7.6-55.5
		L1784.5,300.2z M1773.7,303.7l0.5-2.2l1.1-1.5l2.5,0.1l2.3,0.1l7.1,55.2l0.1,2.7c-0.7,0.3-1.5,0.6-2.2,0.8l-3.3,0.3l-1.9-0.4
		l-0.5-0.4l-6-53.4L1773.7,303.7z M1762.7,300.6l0.8-1l3.8,0.1l0.7,0.9c0.5,0.4,1.1,0.7,1.7,0.9c0.4,0.1,0.8,0.2,1.1,0.4l0.5,2.7
		l1,8.1l2.6,23.4l2.5,21c-0.1,0-0.3-0.1-0.4-0.1c-0.4,0.1-2.3,0.2-2.3,0.2s-4.7,0.6-5.2,0.6c-0.2,0-0.6-0.1-1.1-0.2l-0.3-7.7h-0.5
		l-2.7-24.6l-2.7-22.7L1762.7,300.6z M1751.6,359.7l-2.2,0.5l-1.7-0.4l-0.7-1.1c-0.6-0.7-1.1-1.4-1.6-2.2c-0.1-0.3-0.6-4.1-0.6-4.1
		l-1.3-14.2l-0.7-11.8l-1.4-12.1l-1.3-3.7l-0.4-2.8l0.3-2.8c0,0,0.4-1.6,1-1.8c0.8-0.2,1.7-0.4,2.5-0.4c0.7,0.2,1.3,0.5,1.9,0.8
		c0,0,0.2,0.2,1.2,1.3c0.8,0.9,1.4,1.8,1.9,2.9l1.2,5l0.7,5.3l2.4,21.3l0.7,10.7l0.2,6.2C1753.6,357.7,1752.8,359,1751.6,359.7z
		 M1752.2,314.8l-1.2-6.5l-0.1-5.6l-0.2-1.6c0.3-0.1,2.1-0.9,2.4-1c0.3-0.1,4.4,0.1,4.7,0.1c0.5,0.1,1.1,0.3,1.6,0.6
		c0.4,0.1,1.2,2.2,1.2,2.2c0.3,1.2,0.6,2.5,0.7,3.8c-0.1,0.4,1,9.5,1,9.5l2.1,14.1l1.3,18.3l-0.2,7.5l-0.5,1.6c-0.1,0-0.1,0-0.1,0
		l-3.3,1.3l-4.4-0.4l-2,0.1l0.2-11l-1.4-13.5L1752.2,314.8z M1755.3,385.4l-0.1-6.3l-0.1-15.4l1.3-1.9c0.8-0.2,1.7-0.4,2.6-0.4
		c1.1,0,2.1,0.1,3.2,0.2c2.1,1.2,3.5,3.5,3.4,6.1c0,0.1,0,0.2,0,0.4l0.2,12.4l-0.3,3.2l-1.1,2.8l-2.3,1.7l-1.5,0.5l-1.3,0.1
		l-2.2-0.9l-1.5-2.2L1755.3,385.4z"/>
	<path class="st1" d="M1854.6,911.1l-9.2-8l-10.1-8l-5.3-6.8l-6.8-16l-1.5-9.5l-3.6-38.2c0,0-4.2-24.6-4.2-25.5s0.3-12.4,0.3-12.4
		l-2.3-21.9l0.3-6.2c0,0,3-13,3.3-13.9s-1.2-3.6-0.6-5.6s-5.6-40.3-5.6-40.3l-6.5-41.8l-3.6-1.5l7.4,54.5l3.3,27.3l-3.9,15.4
		l-1.5,6.8c0,0,0.6,11.8,1.5,12.4s3.8,11.6,3.8,11.6l0.9,3l-0.6,8.6l-0.3,8.6l1.2,7.1l1.2,11.3l0.6,5.9l1.2,8c0,0,5.3,36.8,5.6,37.6
		s5,10.4,5.6,11.9c1.2,3.5,3,6.8,5.3,9.8c3.3,3.9,11,8.6,13.9,11.9s11.6,8.9,13,10.4s9.2,8,9.2,8l51.3,37.6l6.5,5v-5l-52.2-38.5
		L1854.6,911.1z"/>
	<path class="st1" d="M1767.8,865.4l-5.6-69.9l-4.8-43.6l-0.6-6.5l-3-2.7c-1.4,1.2-2.9,2.2-4.4,3c-2.4,1.2-5.3,3.3-7.7,3.3
		s-111.4,19.8-111.4,19.8l2.3,2.7l107-20.2l2.1,2.4l1.2,11.6c0,0,1.5,8,1.8,10.1s0.3,13.6,0.3,13.6s1,12.7,0.6,13.5s2.7,7.1,2.7,7.1
		l4.4,0.9l-0.6-11.3l-1.5-9.8l-1.2-20.4c0,0-0.6-10.1,0.3-12.2l2.1-1.5l2.1,11.5l2.4,30.5l3.8,18.1l2.4,47.4l-0.3,9.5l1.5,10.4
		l-0.3,12.4l0.9,14.8l-0.6,8.9l4.1,0.3l0.6-25.5c0,0-0.6-13.7-0.9-15.4S1767.8,865.4,1767.8,865.4z"/>
	<polygon class="st1" points="1418.9,917.3 1422.9,924.3 1428.7,939.5 1430.3,938.6 1425.2,924.7 1423.1,920.8 1420.1,915.8 
		1413.7,907.1 1391.1,875.5 1362.3,837.7 1348.8,820.3 1348.4,822.9 1349,823.1 1388.1,874.6 1413.9,910.8 	"/>
	<path class="st1" d="M1138.6,626.6c7.6-8.2,5.6-26.8,5.6-26.8l-2.5-13.9l-2.2,0.3L1133,561c-5.6-16.8-15.8-33-15.8-33l-9.3-12.3
		l-6.8-6.1c0,0,5.9,8.1,6.1,8.6s20.9,37.9,20.9,37.9l8.4,36.3L1138.6,626.6z"/>
	<path class="st1" d="M948.6,385.4L838.3,373l-9.3-2.2l2.4,3.8l39.3,7.3l60.7,8.4l39.3,5.3c0,0,18.4,4.7,19.1,4.9
		c0.7,0.2,22.7,10,22.7,10s-8.2-13.6-30.5-20.7L948.6,385.4z"/>
	<path class="st1" d="M450.8,494.2c0,0,5.3-6.5,7.1-7.1c1.8-0.6,5.9-5.9,7.7-10.7c1.8-4.7,0-4.7-0.6-6.5s-1.8-6.5-3-8.9
		c-1.2-2.4-17.2-7.1-20.7-7.7s-11.9-3.6-11.9-3.6s-7.1-3-10.7-4.7c-3.5-1.8-8.3-3.5-13-5.3c-4.7-1.8-17.2,8.9-20.7,10.7
		c-3.6,1.8,0.6,5.3,0.6,5.3l-4.2,7.7c0,0-7.7,10.1-10.7,14.2c-3,4.2-13.6,20.2-13.6,20.2l7.1,4.1l14.8,3.5c0,0,7.1,1.8,10.1,2.4
		c2.5,0.7,4.9,1.7,7.1,3c0,0,19.5,7.7,21.3,8.9c1.8,1.2,13.6,1.2,13.6,1.2l4.1-5.3c0,0,6.5-9.5,8.3-13
		C445.4,498.9,450.8,494.2,450.8,494.2z"/>
	<path class="st1" d="M975.3,952.7l-18.4-17.2l1.1-19.4l-8.3-12.4c0,0-10.7-11.3-4.7-19.6s7.1-14.8,7.1-14.8s0.6-13.6-6.5-16.6
		s-17.8-5.9-17.8-5.9s-13.6-4.2-16.6-2.4s-20.7,7.7-20.7,7.7l13-13.6l-0.6-4.2c0,0-3-6.5-1.8-8.9s-1.8-7.7,6.5-10.7
		s20.1-10.7,20.1-10.7l4.2-5.9l1.2-3.6c0,0-7.7-21.3-8.3-23.1s-4.2-10.7-4.2-17.8c0-5-0.8-10-2.4-14.8c-1.2-4.2-4.7-17.8-5.3-21.9
		s-0.6-14.2-0.6-23.7v-12.5l-1.8-7.7l-30.8-80.6c0,0-51.5-96.6-118.5-125c0,0-5.9,2.4-5.9,4.1c0,1.8-2.3,11.8-2.3,13.6
		c0,1.8-9.5,25.5-10.7,27.8c-1.2,2.4-3.5,9.5-6.5,9.5s-13.6,1.8-13.6,1.8s-15.4-3-16-1.2s1.8,1.8-5.9,7.7s-29.6,6.5-29.6,6.5
		s-10.1,1.8-10.1,5.3s-4.8,10.7-6.6,11.2s-14.8-0.6-19-2.4s-30.2-5.9-30.2-5.9l-26.7-6.5l-16.6-7.1l-21.3-4.1l-19.6-5.3l-29.6-7.7
		c0,0-19-0.6-34.4,38.5l-8.9,36.2c0,0-6.5,26.7,21.9,50.4l46.3,36.7l16,17.2l13.6-8.3c0,0,15.4-1.2,17.8,0s13.6,7.1,18.4,7.7
		s16,5.3,20.7,7.7s13,5.9,16,7.7s13.6,3,16.6,3.6s5.9,1.8,10.7,5.3s8.3,10.7,10.1,11.3s21.9-3,21.9-3l43.8,14.8
		c0,0,10.1,5.9,17.2,10.1s13.6,6.5,19,12.4c3.5,4,6.7,8.4,9.5,13l2.4,14.8l0.6,12.5c0,0-2.4,1.8,3.5,0.6s10.1-3.5,13-4.7
		s17.8-8.3,23.1-8.3s11.8,0.6,11.8,0.6l9.5,8.9l3.6,5.3l6.5,17.8l40.9,136.9l19,75.3l15.4,55.7l98.4-3l-24.9-99L975.3,952.7z"/>
	<path class="st1" d="M556.8,303.9c0,0,1-3.5,1.1-3.9s0.3-1.8,0.4-2.2c0.2-0.4-1.6-3.1-2.4-3.4l-3.7-1.5c0,0-2.1-0.3-3.6-0.6
		s-5.8-0.8-7.5-1.2s-7.3,0-9.9,0s-37.9,0.8-39.3,0.6s-17.6,1.3-17.6,1.3l-56.7,3.6l-24.2,1.6c-2.3-0.1-4.7,0-7,0.1
		c-1.3,0.1-2.5,0.4-3.7,0.7c-1.4,0.5-3.2,2.2-5,2.8c-1.5,0.6-3,1.3-4.4,2.1c-2.1,0.6-4.2,1.1-6.4,1.4c-3,0.5-3.1,0.9-4.5,0.9
		c-2,0.2-4.1,0.6-6.1,1.2c-3.2,0.6-6.5,1-9.8,1.2c-2.5,0.2-9.2,0.9-10.2,0.9s-5.3-0.1-5.9-0.1c-0.6,0-5-0.6-7.4-0.9
		c-1.6-0.2-3.2-0.2-4.7-0.2l-1.8,1l0.1,0.8l0.7,1.2l-1,4.6l4.9-0.3l3.1,0.4l4.1,0.7l4.1,0.2l8,0.6h5.5l8,0.3l15.7,2.5l4.9,1.5
		l7.5,0.9c0,0,20,0.4,21.9,0.4s17.6-1,17.6-1l24.4-0.1l14.8-2c0,0,10.2,1,10.7,1s16.6-0.9,16.6-0.9l32.4-1.2l5.9,0.4l4.9,0.9
		l8.4,0.6h6.1c0.4,0,4.3-0.3,4.7-0.4c0.4-0.1,3.8-0.6,3.8-0.6h3.5l7,0.3l14.5,2.1l9.8,2.2l4.2,0.1l3.8,0.1c6.7-5.2-5-10.7-5-10.7
		l-13.2-6.4l-11.3-5C560.1,298.8,556.8,303.9,556.8,303.9z"/>
</g>
<g id="Building">
	<polygon class="st2" points="472.4,301 472.7,315.5 532,312.6 531.1,298.3 	"/>
	<rect x="398.3" y="308.1" class="st2" width="19.8" height="8.2"/>
	<rect x="420.3" y="308.3" class="st2" width="20.4" height="7.6"/>
	<polygon class="st2" points="223,289.7 231,292.3 237.2,275.7 229,271.9 	"/>
	<polygon class="st2" points="245.4,251.2 233.2,264.1 239.9,269.9 251.9,257 	"/>
	<path class="st2" d="M196.1,298.1l-4.9-4.4l-4.9,4.4l-8.7,5.3l5.6,9.1l13.1-8.2c0,0,0.9-2,0-3.1S196.1,298.1,196.1,298.1z"/>
	<polygon class="st2" points="138.6,379.7 138.1,374.8 130.3,375.9 130.1,378.1 108.3,381.7 107.4,379 94.6,380.8 94.3,384.8 
		73.9,388.3 73.4,386.3 65.2,388.1 65.2,389.9 63,390.6 64.3,398.6 138.8,384.8 137.7,379.7 	"/>
	<polygon class="st2" points="266.6,309.4 265.9,303.2 256.3,304.6 257.2,311.4 242.8,313.7 243.2,318.3 270.8,315.1 273,312.4 
		272.3,308.8 	"/>
	<polygon class="st2" points="300.6,314.6 301.2,319.5 305,319.2 305.7,322.5 307.2,322.5 306.2,313.9 	"/>
	<polygon class="st2" points="516.8,251.8 354.5,258.6 356.9,265.4 361,268.4 516.8,261.3 	"/>
	<polygon class="st2" points="533.9,179.7 533.9,192.3 535.9,192.6 536.1,198.6 539.7,198.6 539.4,191.4 541.7,191.2 541.7,187.7 
		547.2,187.7 547,179.7 	"/>
	<polygon class="st2" points="588.8,171 589,180.3 582.8,180.3 582.6,186.3 588.8,186.8 589,181.9 595,181.7 595.2,177.9 
		603.7,178.3 603.4,171.2 	"/>
	<polygon class="st2" points="569.3,196.1 561.6,196.1 561.4,201.7 579.7,201.7 579.7,197.1 569.4,197 	"/>
	<polygon class="st2" points="583.8,203.2 584,208.4 591.4,208.6 591.2,203.4 	"/>
	<polygon class="st2" points="598.8,188.1 598.6,192.1 602.8,192.4 602.6,188.3 	"/>
	<polygon class="st2" points="641.4,189 643.2,193.6 651.5,190.2 649.7,185.9 	"/>
	<path class="st2" d="M674.5,185.9c-0.7-0.2-3.7-7.6-3.7-7.6l-6.1-6.7l-1.8,2.2l5.3,5l-12.2,5.6l3.4,7.4l6.5-2.9l3.6,7.2l9.2-4.6
		C678.8,191.7,675.2,186.1,674.5,185.9z"/>
	<polygon class="st2" points="660.6,194.6 661.6,197.9 667.2,195.5 665.7,192.4 	"/>
	<path class="st2" d="M701.2,154.8l-1.5-1.9c0,0,6.2-8.6-4.5-15.5l-29.3,8l17.9,17.9l6.4-5.9l4.4,3.7L701.2,154.8z"/>
	<path class="st2" d="M706,150.6l-15.4,14.1l9,9.3c3.8,2,8.4,1.4,11.5-1.5c0,0,7.1-7.3,0.5-14.4L706,150.6z"/>
	<polygon class="st2" points="660.4,88.3 658.6,81.4 654.5,82 656.3,89 	"/>
	<polygon class="st2" points="561.7,120.1 562.9,125.2 653.9,106.3 652.8,100.8 	"/>
	<polygon class="st2" points="562.9,100.8 561.9,94.3 554.6,95.8 555.5,102.2 	"/>
	<polygon class="st2" points="547,101.5 546.8,97.8 538.6,98.3 538.8,102.1 	"/>
	<path class="st2" d="M551.2,123.8c1.7,0,3.1-1.4,3.1-3.1c0-1.7-1.4-3.1-3.1-3.1s-3.1,1.4-3.1,3.1
		C548.1,122.4,549.5,123.8,551.2,123.8z"/>
	<polygon class="st2" points="503.2,119.8 505.7,120.8 508.4,113.7 504.4,112.1 497.9,126.2 499.7,126.8 	"/>
	<path class="st2" d="M458.3,159.1c0,0,35.3-9.3,35.7-9.5c0.4-0.1,21.3-11.4,21.3-11.4l-1-2.1l13-7l-1.8-4.1l1.2-1l-0.5-2.1
		c0,0,8,1,8.6,0.7s1.5-5.7,1.5-5.7l-3-0.9l-1.2,2.5l-5.5-0.3l-1.5,2.8L510,129l-54,27.6l-8.6,4.3l0.4-2.2l-5.2,0.4l-9.5,4.1l-2.2-4
		L377.3,185l3.7,8.6L458.3,159.1z"/>
	<polygon class="st2" points="368.7,189.6 366.8,186.8 363.5,188.3 365.2,191.5 	"/>
	<polygon class="st2" points="364.3,196.7 362.8,194.2 360,196.4 361.4,198.6 	"/>
	<polygon class="st2" points="443.4,193.4 643.1,145.7 637.7,135.1 439.8,182.2 	"/>
	<polygon class="st2" points="1078.3,452.8 1081.9,460.1 1088.3,456.6 1084.6,449.4 	"/>
	<polygon class="st2" points="1091,466.6 1094.6,472.3 1101.2,468.3 1097.2,462.3 	"/>
	<polygon class="st2" points="1107,491.9 1109.2,497.7 1115.9,495.2 1113.4,489.4 	"/>
	<polygon class="st2" points="1177.9,368.8 1185,372.8 1215.4,324.3 1207.9,320.1 	"/>
	<polygon class="st2" points="1221.4,315.9 1225.9,319.2 1228.3,316.3 1224.3,313 	"/>
	<polygon class="st2" points="1192.1,866.5 1175.7,873.3 1172,863.5 1168.1,865.3 1172.1,874 1171.1,874.6 1173.7,880.7 
		1194.3,872.4 	"/>
	<polygon class="st2" points="1198.5,966.8 1192.3,968.6 1193.7,973.9 1196.6,973.3 1200.3,985.4 1205.3,984 1201.4,969.9 	"/>
	<polygon class="st2" points="1284.1,984.1 1291.2,983.7 1291.5,980.4 1284.3,980.4 	"/>
	<polygon class="st2" points="1310.6,954.5 1313.4,963.1 1329.3,958.3 1325.6,948.3 	"/>
	<polygon class="st2" points="1330.5,916.6 1314.8,910.3 1311.1,919.7 1327.2,925.7 	"/>
	<polygon class="st2" points="1319.8,947.2 1334,947.5 1334.3,927.2 1320.6,927.1 	"/>
	<polygon class="st2" points="1353.3,928.7 1345.2,926.2 1341.3,937.4 1345,950.2 1353.2,946.3 1351.4,941.4 1354.5,940.3 
		1354.5,935.8 1351.1,934.3 	"/>
	<polygon class="st2" points="1299.8,978.2 1303.2,982.2 1306,980 1303.1,975.7 	"/>
	<polygon class="st2" points="1309.3,974.5 1306.2,971.5 1303.5,973.4 1306.5,976.4 	"/>
	<polygon class="st2" points="1305.6,979.2 1307.5,981.7 1310.9,978.9 1308.8,976.6 	"/>
	<polygon class="st2" points="1383.2,989.6 1387.4,996.4 1401,987.8 1396.4,980.7 	"/>
	<polygon class="st2" points="1407.7,975.7 1412,982.5 1425.4,973.9 1421,967.1 	"/>
	<polygon class="st2" points="1701.3,581 1701.7,589.7 1717.9,588.4 1717,580.3 	"/>
	<polygon class="st2" points="1723.7,577.4 1724.3,580.8 1728,580.3 1727.2,576.7 	"/>
	<rect x="1725.6" y="569.6" class="st2" width="3.6" height="3.7"/>
	<polygon class="st2" points="1711.6,386.1 1708.8,386.1 1708.8,396 1711.6,396 1711.6,394.7 1714.7,394.7 1714.7,395.7 
		1717.3,395.7 1717.3,386.2 1714.7,386.2 1714.7,387.8 1711.6,387.8 	"/>
	<path class="st2" d="M1713.2,342.8l-8.2-1.5c0,0.3-2.8,18.2-2.8,18.2l7.9,1.2L1713.2,342.8z"/>
	<polygon class="st2" points="710.1,60.3 711.4,69.2 738.6,64.3 737,56.6 	"/>
	<polygon class="st2" points="787,54.8 812.3,80.1 817.9,74.1 796.1,52.1 	"/>
	<polygon class="st2" points="819.9,81.7 832.6,89.4 835.7,85.9 822.8,76.8 	"/>
	<polygon class="st2" points="836.8,83.7 844.3,87.2 846.6,82.1 839,79.4 	"/>
</g>
</svg>
