<svg id="Background_Details" data-name="Background Details" xmlns="http://www.w3.org/2000/svg" xmlns:xlink="http://www.w3.org/1999/xlink" viewBox="0 0 1920 1080"><defs><style>.cls-1{fill:#fff;}.cls-2{fill:#c2c6f7;}.cls-3{fill:#636466;}.cls-4{fill:#c7c8ca;}</style><symbol id="New_Symbol" data-name="New Symbol" viewBox="0 0 57.77 10.07"><path class="cls-1" d="M57.33,7.51,50.26.44A1.48,1.48,0,0,0,48.94.05a1.5,1.5,0,0,0-.37,0h-40A1.46,1.46,0,0,0,8,.11H8a1.63,1.63,0,0,0-.49.33L.44,7.51a1.49,1.49,0,0,0,0,2.12,1.5,1.5,0,0,0,2.12,0L9.19,3H48.58l6.63,6.63a1.53,1.53,0,0,0,1.06.44,1.5,1.5,0,0,0,1.06-2.56Z"/></symbol></defs><title>background</title><g id="Water"><path class="cls-2" d="M335.06,645a7.64,7.64,0,0,1,5.87,2.94c2.4,3.06,9.86,6.67,12.4,7.2s7.6,3.73,9.87,5.2c4.13,2,11.6,1.87,16.53,2.67,6.81.8,12.67,3.46,15.48,3.46s9.33.27,13.2-.93a23,23,0,0,1,8-.93c2.8-.27,4.27-2.67,6.94-3.07a15.19,15.19,0,0,0,10.8-6.13c1.2-2.14,2.13-3.21,4.4-3.47s8.93-7.07,9.87-10.8a15.07,15.07,0,0,0-6.4-16.28c-1.2-.66-4.1-1.27-4.92-4s-4.37-12.66-3.91-15.48,1.73-6.38-1.82-9.93-4.38-2.19-6.84-3.73-18.31-10.94-18.31-10.94-4.19-.91-6.64-3.09c-3.28-1.28-7-2.1-14-.82s-9.57,0-13,3-9.2,6.29-10.38,8.93-1,3.1-2.55,3.55-8.75,7.47-9.66,9.48-2.82,4.1-3.83,6.74-1.63,4.46-4,5.46c-1.83,1.92-1.55,7.11-2.28,7.93a13.94,13.94,0,0,1-2.19,2.55c-1.73,1-1.09,4.37-1.73,5.55s-1.46.55-1.82,1.46-.73,3.74-1.82,4.65-1.46,6.1.27,7.1A15.39,15.39,0,0,1,335.06,645Z"/></g><g id="Bridge"><use width="57.77" height="10.07" transform="matrix(0.99, 0.17, -0.17, 0.99, 789.16, 318.65)" xlink:href="#New_Symbol"/><use width="57.77" height="10.07" transform="matrix(-0.99, -0.17, 0.17, -0.99, 850.05, 301.68)" xlink:href="#New_Symbol"/></g><g id="Pavement"><path class="cls-3" d="M102.35,479.72l-.19,6.61,14.2,29.48a19.85,19.85,0,0,0,1.46,8.37c1.75,3.79,3.89,9.34,4.38,10.9s20.33,65,20.33,65l62.24,177s11,26.55,16.85,31.44,13,6.64,25,2.45c6.52-2.45,105.84-44.49,105.84-44.49s4.09-2.19,5.89,2.28S364.76,783,364.76,783a3.12,3.12,0,0,1-2.18,3.89c-3,1-101.95,36.75-101.95,36.75a61.27,61.27,0,0,1-27.21,2.77,52.34,52.34,0,0,1,1.55,6.75,79.85,79.85,0,0,1,26.12,5.13c3.57,1.07,6.9,2.37,6.9,2.37s2.54,1.31,7.83-1c4.57-1.81,107.54-37.83,107.54-37.83s5.15-3.55,3-7.9a62.15,62.15,0,0,1-2.82-6.52s-2.39-4.85,6-7.17,29.57-8.05,33.55-9.71c5.73-1.82,45.95-22.61,45.95-22.61s2.53-1.6.65-6.67C462.93,721.73,445,687.67,445,687.67s-1-2.61-5.22-1-77.18,32.54-77.18,32.54-6.52,2.25-8.91-3.12-15.8-38.69-24.56-51.09c-12.27-20.24-34.2-43.39-36.31-45.3-4.08-2.52-9.39-11.23.27-17.29,9.06-7.9,36.36-26.08,39.42-27.58,3.61-2.38,32.75-16.27,45.08-19.06,6.09-2,90.72-26.14,90.72-26.14a4.56,4.56,0,0,1,4.57,1c2,2,17.94,25.17,17.94,25.17l2.09-2.34s-14.2-22.73-17.64-25.22c3.19-1.29,32.3-11.11,32.3-11.11s15.46-6.47,55.39-16c4.26-1.07,65-16.72,65-16.72s36.09-12.13,39-12.24,13.2-4.26,19-5.64c8.3-2.34,21.18-4.47,25.65-6.18a35.53,35.53,0,0,1,9.59-2,78.89,78.89,0,0,0,9.68-3.73,12.75,12.75,0,0,1,4.48-.95c3.28-1.09,5.61-3.83,9.79-5.11a59.44,59.44,0,0,1,12.46-2.38c1.69-.18,9.73-1.28,18.1-8.22,1.6-1.37,16.94-12.1,18.35-11.25s-.38,11.88-1.6,16.12a15.32,15.32,0,0,0,.94,10.94c1.32,2.55,3.3,9.06,1.6,14.81s-2.54,6.41-2.54,6.41-1.7-.09-2.17,3.4c0,0,.57,2-.28,3.11a8.47,8.47,0,0,0-2.08,3.87c-.28,1.69-5.37,11.31-5.66,17.16s-2.64,21.22-1.69,26.69c-1.14,2.26-5,12.92-5.47,14.61s-2.64,2.36-3,4c-.66,2.93-10.94,18.11-12,18.77s-7.28,2.29-17-2.25-37.68-19.34-37.68-19.34l-16.15,27.75,49.63,27.76,19-24.73s4-5.72,4.71-6.9,15.64-22.2,16.48-24,3.3-2.18,4.92,1.41,2.55,5.44,2.55,6.94a10.08,10.08,0,0,0,2.08,5.21c.35,2,1.74,3.47,1.39,4.74s.81,3.36,2.31,3.93,3.59,3,5.56,9.49,8.1,23.6,12.26,31.94c1.39,3.58,4.17,9.6,5.67,12.37A36.19,36.19,0,0,1,819.16,639a93.57,93.57,0,0,1-3.23,17.7c-1.51,4.86-1.51,16.78-1.16,19.32s1.16,4.63-2.89,15.28c-.58,2.43-3.82,13-2.9,18.39s2.43,9.84.93,16.2-3.36,11.69-7.75,14.81-7.7,7.57-10.24,11.27-6.33,5.67-12.22,15.85c-1.67,2.91-3.93,6-8.65,12.22-1,1.52-1.1,2.62-3.13,4.43a37.39,37.39,0,0,0-8.73,10.33c-3.05,5.67-10.69,11.12-14.76,12.65s-11.49,2.11-15,3.27-26.47,11.06-26.47,11.06l-4.95,2s-9,.36-11.05.73a67.36,67.36,0,0,1-12.43.58c-4.29-.29-13.31-.58-15.71.14s-19.71-.14-19.71-.14l-.36,3.71,19,.8a22.11,22.11,0,0,1,8.51-1c4.8.36,8.94,1.24,17.3-.07,5-.51,7.13-.88,9.89-.95,6.55-.07,15.06-3.71,18.33-5.09s15.7-7.27,19.85-7.92,12.94-2.26,18.54-6,13.6-15,13.6-15a43.3,43.3,0,0,0,7.78-10c1.38-2.25,5.75-8.65,12.29-17.59,6.18-7.35,21.38-23.27,21.38-23.27s7.27-5.09,9.09-17.31c.51-4.87,1.45-6,1-8.51s-1.68-13.09-1.1-16.21c1-6.18,4.66-12,4.59-16.07s0-18.84,1.23-21.46c2-2.54,3.06-13.52,3.49-17.16,0,0,1.53-9.67-.87-18.18-1.53-8.58-7.78-16.72-12.94-30.9-3.13-6.69-6.48-15.71-7.28-20.94-1.38-4.29-2.32-8.59-7.27-11.78a11.18,11.18,0,0,1-2.91-4.8c-.43-1.6-1.89-3.42-2.83-12.73s-2.62-8.29-3.13-13.67-.46-21.69.4-25.93,4.39-17.34,6-20.33c2.75-2.35,3-9.81,4.71-13.5s4.63-6.27,2.67-16c-1.1-8.94-3.14-11.69-1.33-19.46a72.71,72.71,0,0,1,4-10.67c1.1-2,2.2-4.32,2.2-4.32s1.41,2.2,5.65-1.33c10.62-8.95,29.34-10.07,35.37-8.49s34.57,11,41.15,15.76C889,430.4,910,440,910,440l1.29.65,2.23,5.37-.93,31.05,10.2,26.6L928,470.25a85.87,85.87,0,0,1,6.86-19.37c2.13-4.17,15.94-30,15.94-30l-28.06,18.38s-18.56-11.64-33-16.08c-1.58-.48-10.94-5.16-15.62-5.63s-12.92-5-13.72-6.19-4.12-2.06-6.9-2.38-5.07-5.87-4.91-10.15,2.61-25.93,4.44-29.26,2.46-4.84-1.27-5.47S839,362.56,832,358.75A42.34,42.34,0,0,1,821.48,351l-.54-22.77-9.6-1.58.4,25.18s.34,14.57-.74,21.17-2.65,16-11.34,23.26l-1.08-1.12.74-26.82s3.27-14.85,3.27-17.68-1.3-26-1.3-26l-3.89-.57.05,25.75-2.82,18.3-2.43,26.25s.85,8.58-1.47,14.85-2.54,6.95-9.82,13.5l-18.76,12.21a59.43,59.43,0,0,1-9.8,3.07,76.64,76.64,0,0,0-19.82,7.15c-6.67,3.67-11.09,4.49-15.11,5.51s-19.68,5-22.95,6.4a148.55,148.55,0,0,1-16.13,5.45c-4.9,1.22-15.73,4.9-20.43,6S616,480.08,610.59,481.17s-32.13,7.42-35.88,8.58-12.52,3.95-18.65,5.58c-8.78,2-22,6.4-27.23,7.83s-14.91,4.36-17.71,4.84a28.37,28.37,0,0,0-9.87,3.54c-5.31,2.38-14.57,6.13-15.32,6.33s-10.69,2.79-15,3.4c-5.79,1.09-24.58,7.22-24.58,7.22s-38.6,11.71-42,12.53-8,4.15-14.7-1.16a15.16,15.16,0,0,1-6-12.46l65.68-32.1,3.69-7.09-38.33-69.84-4.38-.82-72.12,36.79,39.08,72s1.68,4.34,1.56,6.15,2.29,3,2.66,4.46,3.45,8.07-2.21,11.44c-4.58,2.42-17.25,6.26-21.63,8s-18.66,5.89-33.5,16.56c-3.25,2.17-11.83,6.27-13.59,7.78s-22,17.77-22,17.77-7.63,7.88-16.27,1.34C266.74,593,255,583.06,255,583.06a12.33,12.33,0,0,0,.55-5.92c-.58-2.92-1-5.83-2.66-7.16s-14.65-12.07-14.65-12.07l-6.75,6.32L198,538.59S181.18,528,175.52,514.2a94,94,0,0,1-8.35-21,52.74,52.74,0,0,1-19.08-15.93c-2.46,1-24.92,10.09-24.92,10.09a16.39,16.39,0,0,1-11.4-2.14C106.1,481.7,102.35,479.72,102.35,479.72Z"/><path class="cls-3" d="M1916.52,253.1c-3.45-11.06-16.65-35.32-17-35.92s-18-30.81-21-34.14-13.92-14.87-15.46-17.84-8.45-13.56-9.76-32.59c-.71-7-1.66-37.24-4-48.06-1.07-5.59-4.52-23.91.23-29.5-2.37-4.88-6.78-16.06-6.78-16.06s-7.37-1.19-9.87-3a18.84,18.84,0,0,1-3.69-3.33l-8.56-.48s1.19,2.62,5.47,4.64c2.5,1.67,8.09,5.35,11.06,15.58s6.43,25.1,6.55,34.14,2.85,38,2.85,38a99.41,99.41,0,0,0,2.86,23.19c3,11.18,5.35,17.25,10.23,23.67s17,20.35,20.1,25,16.89,29.39,21.17,39.38,10.35,25.33,6.54,30.09-12.13,8-15.34,15.7-7.85,20-7.85,35.21-2.62,52.46-2.62,52.46-2.26,33.19-6.18,43.54-7.62,24.5-26.41,38.3c-9.16,6.78-23.67,13.56-29.62,15.82s-69.47,30.22-69.47,30.22a87.65,87.65,0,0,0-18.44,11.65l-37.7,32a9.54,9.54,0,0,1-10,3.33c-6.42-1.66-8.44-9.28-8.44-10.82s1.54-5.36,6.54-8.92,48.06-36.76,48.06-36.76l-29.5,15.58-26.17,20.46-3.09,2.14-120.38,61.62-47.11,23.55-38,11.07-18.08,8,44.37-9.28a163.83,163.83,0,0,0,24.63-8.45c14.27-6.06,36.82-16.05,36.82-16.05l26,51.5,5.71,3s14.91-6.76,17.36-7,15.15-7.81,18.06-9.67,12.35-7,17.12-9.21,8.28-1.39,15.15-6.75c1.4-.82,4.89-2.45,7.11-3.38a33.17,33.17,0,0,0,9-5.83c3.14-1.16,27.49-12.23,27.49-12.23s6.76-2.68,3.73-9.79-10.25-22.6-10.25-22.6-2.91-9,5.53-16.14c7.85-6.43,27-23.32,29.14-25.22s21.06-16.54,22.84-17.61S1769,494.7,1773.31,493s57.81-24.38,57.81-24.38,23.91-13,31-19a69.91,69.91,0,0,0,23.44-39.13c.83-7.26,3.56-42,3.45-44.73s2.26-54.95,2.37-58.88,3.69-18.91,12.49-27.36S1920,264.17,1916.52,253.1ZM1670,552.6l-100.33,51.55-5.33-2.77-4-8.61,105.35-54.42,6.25,11.17Z"/><path class="cls-3" d="M1205.14,0s-21.68,17.4-24.77,19.31c-5.17,4.28-28.47,19.32-35.54,23.16s-38.49,21.82-42.92,23.44-35.54,14-62.52,19.62L950,102.93s-30.08,2.51-44.83,10.76c0,0-3.39.15-13.86,12.54s-27.72,33.91-27.72,33.91-4.43,3.4-10.62,12.54-18,25.95-18,25.95a161.48,161.48,0,0,0-14.3,18.44c-7.67,11.35-17.85,28.16-16.81,52.05-.3,1.62-1.92,15.34-1.92,15.34h3.54l2.36-14.16s.88-20.94,4.72-30.67,14.3-23.74,14.3-23.74-4.87,11.35-5.75,20.2-4.78,54.57-4.78,54.57l8.91,1.61,5-57.21s1.77-18.88,12-32.89c6.19-7.81,38.63-50.28,43.35-55.44s17.84-20.65,17.84-20.65,8.12-6,22.57-9.14,26.1-5,26.1-5a4.61,4.61,0,0,1,3.69,2.81c1.17,2.65,4.71,15.63,15.33,23.59s15.34,8.55,22.42,9.14c.59,2.95,1.62,7.23,1.62,7.23s3.1,1,4.13,0,2.06-1.77,3.68-1.33,15.64-2.65,15.64-2.65l-1.33-6.79s16.22-4.86,23.3-21.08c5.31-9.29,4.86-24,4.86-24s-.14-4.72,5.9-6.34,45.42-12.83,66.22-25.22c5.3-2.8,42.47-19.61,74.61-46.89C1195.41,18,1216.05,1,1223.43,0Zm-189,139a50.1,50.1,0,0,0-1.27-6.11l-22.48,3.57.57,6s-4.72.57-6.11,0-20.12-7.27-24.48-24.81a14.11,14.11,0,0,0-.61-2c-1.19-2.84-.23-5.31,3.42-6.27,3.92-1,7.72-1.62,7.72-1.62l58.57-10.84s5.54-1,7.15,3.46S1040.25,131.74,1016.15,139Z"/></g><g id="Buildings"><polygon class="cls-4" points="886.62 428.34 900.25 434.26 896.7 443.87 882.23 437.94 886.62 428.34"/><polygon class="cls-4" points="1390.58 284.53 1427.88 305.82 1418.88 321.69 1381.71 300.11 1390.58 284.53"/><polygon class="cls-4" points="1444.75 315.83 1483.91 338.27 1474.91 354.14 1435.89 331.41 1444.75 315.83"/><polygon class="cls-4" points="1467.42 301.18 1485.65 311.65 1482.23 317.44 1464.05 306.87 1467.42 301.18"/><polygon class="cls-4" points="1413.6 269.42 1431.83 279.89 1428.4 285.67 1410.22 275.1 1413.6 269.42"/><rect class="cls-4" x="1436.89" y="204.62" width="25.6" height="13.07"/><polygon class="cls-4" points="1629.47 561.23 1634.15 570.58 1654.38 559.95 1649.93 550.12 1629.47 561.23"/><polygon class="cls-4" points="1649.1 638.3 1654.71 648.88 1676.41 636.89 1670.58 626.1 1649.1 638.3"/><polygon class="cls-4" points="1696.78 556.4 1703.27 552.19 1709.29 561.29 1703.04 565.38 1696.78 556.4"/><circle class="cls-4" cx="1037.49" cy="911.53" r="7.09"/><polygon class="cls-4" points="156.22 719.67 166.36 715.81 170.32 716.02 203.38 801.41 189.99 806.89 156.22 719.67"/><polygon class="cls-4" points="81.4 498.1 92.51 493.18 102.62 516.26 91.72 521.1 81.4 498.1"/><polygon class="cls-4" points="135.58 481.8 142.44 480.39 146.99 499.65 139.96 501.39 135.58 481.8"/><polygon class="cls-4" points="175.23 499.5 188.59 489.96 190.58 492.79 192.82 491.29 195.56 494.94 193.57 496.35 196.14 499.75 199.79 497.26 204.68 504.48 201.2 507.22 216.3 528.87 202.53 538.91 175.23 499.5"/><polygon class="cls-4" points="206.92 503.15 210.41 500.42 215.63 507.47 212.15 510.12 206.92 503.15"/><polygon class="cls-4" points="230.77 559.66 235.87 555.45 238.56 558.86 233.72 562.88 230.77 559.66"/><polygon class="cls-4" points="322.53 492.61 335.33 486.97 351.9 524.66 339.18 530.3 322.53 492.61"/><polygon class="cls-4" points="491.39 150.93 488.74 163.11 532.41 175.29 536.19 162.69 491.39 150.93"/><polygon class="cls-4" points="990.22 121.72 993.42 139.61 1014.08 136.11 1010.87 118.55 990.22 121.72"/><polygon class="cls-4" points="706 546.24 746.04 568.12 737.14 584.06 696.98 562.06 706 546.24"/><polygon class="cls-4" points="385.04 784.77 395.16 781.92 398.92 796.18 388.94 799.04 385.04 784.77"/><polygon class="cls-4" points="351.32 801.5 353.13 806.56 271.28 835.49 269.6 830.43 351.32 801.5"/></g></svg>