<?xml version="1.0" encoding="utf-8"?>
<!-- Generator: Adobe Illustrator 25.0.0, SVG Export Plug-In . SVG Version: 6.00 Build 0)  -->
<svg version="1.1" id="Inactive" xmlns="http://www.w3.org/2000/svg" xmlns:xlink="http://www.w3.org/1999/xlink" x="0px" y="0px"
	 viewBox="0 0 1920 1080" style="enable-background:new 0 0 1920 1080;" xml:space="preserve">
<style type="text/css">
	.st0{fill:#A7A9AC;}
</style>
<path class="st0" d="M1750.3,189.8c-24.3-27.3-72.2-42-150.8-46.3c-174.6-9.5-405.9-16.6-521.8-19.2c-18.9-1.7-37.7-3-56.3-4.4
	c-8.3-0.6-16.6-1.2-24.8-1.8c-93.3-7-188.2-9.6-268.7-11.1c-18.7-0.4-37.7-1-56.1-1.6c-57.9-1.9-117.9-3.9-178.9,1.7
	c-72.2,6.5-147.3,42.8-205.8,99.4c-51.3,49.6-88,116.6-103.1,188.6c-7.7,36.4-9.7,73.1-6.1,109c3.8,37.9,13.9,74.1,29.9,107.5
	c3.1,6.5,6.2,13.2,9.3,19.8c15.1,32.6,30.7,66.3,57.8,97.7c25.7,29.7,58.3,54.5,97,73.7c33.7,16.7,71.1,28.7,111.2,35.8
	c58.3,10.3,221.4,15.6,397.7,20.4c41.5,1.1,77.3,2.1,96.9,3l7.7,0.3c17.9,0.8,36.2,1.6,54.9,1.6c3.2,0,6.4,0,9.6-0.1
	c0.4,0,0.7,0.1,1.1,0.1c41.4,1.1,79.9,1.6,115.9,1.6c119.7,0,211-5.1,282.1-9.1c44-2.5,78.8-4.4,107.3-4.4
	c35.6,0,87.2-7.2,130.6-41.4c19.4-15.3,34.9-34.4,46.1-56.9c12.1-24.3,19.3-52.5,21.3-84c10.3-162.6,14.1-306.3,15-346.4
	c0.2-10.1,0.8-20.2,1.4-29.8C1772.8,254.4,1775.1,217.6,1750.3,189.8z M989.6,762.5l-7.8-0.3h0c-20.3-0.9-54.8-1.8-98.4-3
	c-122.4-3.4-327.2-9-383.1-18.9c-63.8-11.3-117.1-38.4-150-76.5c-17.9-20.7-29.4-45.5-42.7-74.3c-3.2-6.8-6.4-13.9-9.9-21
	c-44.3-92.3-19.6-214.3,58.7-290c41.8-40.5,96.2-67.3,145.3-71.7c26.5-2.4,52.9-3.2,79.6-3.2c28.5,0,57.4,0.9,87.1,1.9
	c18.7,0.6,38.1,1.2,57.4,1.6c83.1,1.6,172.5,4.1,263.2,10.9c8.3,0.6,16.7,1.2,25.2,1.8c105.9,7.5,215.3,15.3,279.4,89.8
	c77.4,90,60.2,220.8,8.8,310.6c-25.7,44.9-72.5,103.1-150.3,128.2c-11.8,1.2-22.6,4.4-31.6,7.1c-4.2,1.3-9,2.7-11.3,3.1
	c-14,2.3-28.2,3.8-42.3,4.7l-0.2,0C1041.9,764.8,1016.5,763.7,989.6,762.5z M1750.5,292.2c-0.6,9.9-1.2,20.1-1.5,30.6
	c-1.9,82.5-6.8,216.7-15,345.6c-9.6,151.8-138.7,163.6-178,163.6c-29.1,0-64.1,2-108.5,4.5c-68.9,3.9-156.8,8.8-271.2,9.1
	c88.9-26.7,162.5-87.4,213.1-175.8c37.6-65.7,58-141.2,57.5-212.7c-0.6-81.1-27.3-154.7-77.2-212.7c-38.9-45.2-89.8-76.8-155.5-96.4
	c117.6,3.6,264.3,9,384.3,15.5c71.9,3.9,116.6,16.9,136.9,39.6C1754.6,224.7,1752.7,256,1750.5,292.2z"/>
</svg>
