<svg id="Background_Details" data-name="Background Details" xmlns="http://www.w3.org/2000/svg" xmlns:xlink="http://www.w3.org/1999/xlink" viewBox="0 0 1920 1080"><defs><style>.cls-1{fill:#fff;}.cls-2{fill:#c2c6f7;}.cls-3{fill:#636466;}.cls-4{fill:#c7c8ca;}</style><symbol id="New_Symbol" data-name="New Symbol" viewBox="0 0 57.77 10.07"><path class="cls-1" d="M57.33,7.51,50.26.44A1.48,1.48,0,0,0,48.94.05a1.5,1.5,0,0,0-.37,0h-40A1.46,1.46,0,0,0,8,.11H8a1.63,1.63,0,0,0-.49.33L.44,7.51a1.49,1.49,0,0,0,0,2.12,1.5,1.5,0,0,0,2.12,0L9.19,3H48.58l6.63,6.63a1.53,1.53,0,0,0,1.06.44,1.5,1.5,0,0,0,1.06-2.56Z"/></symbol></defs><title>background</title><g id="Water"><path class="cls-2" d="M1509.61,0s23.76,28.55,31,61.21c1.46,6,4,16.12,6.59,26.16a197.18,197.18,0,0,1,5.79,60.34l-4,67.65a233.49,233.49,0,0,1-8.2,49.1l-15,53.68A250.26,250.26,0,0,1,1508.05,364l-11.61,23a212.55,212.55,0,0,1-22,34.7l-38.75,49.79-6.08,9.24a233.14,233.14,0,0,1-41.25,47.24l-46.11,40.28-36,24.71a204.24,204.24,0,0,1-37.7,20.4l-47.52,19.58-26.27,13.82s-7.88,1.8-14.93,4.28-40.91,15.49-40.91,15.49-16.73,1.38-21.43,2.35-11.75.69-25.57,20.73c1.38,1.52,2.77,2.93,2.77,2.93s11.78-15,18.59-16.91c6.62-2.56,18.49-2.14,26-4.26,3.81-.85,32-11.78,32-11.78l13.22-4,6.53-.25,2.8,7.71,5.45,2.73a34.75,34.75,0,0,0,22.69,2.91l17.9-3.77,55.46-21,19.42-7.72,58.46-26.07a82.71,82.71,0,0,0,8.32-4.29L1438.83,572l72-43.92,69.36-34.6,16.2-8.05,7.8-6.31a40.38,40.38,0,0,0,12.49-17.45l7.9-21.46a102,102,0,0,1,16.1-28.54l17.16-21.43a47.32,47.32,0,0,1,26.1-16.51l22.27-5.25a88.29,88.29,0,0,1,33.15-1.44l15.28,2.23a28.36,28.36,0,0,0,23.92-7.78h0a36.49,36.49,0,0,0,10.23-18.6l5.77-27.33a69.94,69.94,0,0,0,1.33-19.47l-9.72-137.36L1785,140.82,1764,43,1753,0Z"/></g><g id="Bridge"><use width="57.77" height="10.07" transform="translate(99.13 530.04) rotate(-99.41)" xlink:href="#New_Symbol"/><use width="57.77" height="10.07" transform="translate(60.41 475.9) rotate(80.79)" xlink:href="#New_Symbol"/></g><g id="Pavement"><path class="cls-3" d="M1019.55,748.67s4.09-20.31,11.46-33.24c1.59-3.18,4.77-4.42,5.67-3.4s15.43,13.38,22.69,18,28.82,19.74,34,24.61c5.56,4.43,6,5.9,6.24,7.72s-.23,1.81-1.59,2.27c-.68,1.47-8.74,13.5-8.74,13.5s-2.83,2-4.42,1.36-33.13-14.86-33.13-14.86l1.59-2.73Z"/><polygon class="cls-3" points="826.13 772.17 835.27 770.62 838.36 784.87 849.63 784.03 851.41 793.41 830.64 796.14 826.13 772.17"/><path class="cls-3" d="M808.89,938.56a1093.35,1093.35,0,0,0,123.53,56.62c5,1.31,22.79,6.73,44.66,7.48a25.28,25.28,0,0,1-2.43,7.29l-5.42,7.28s-6.35,5.42-8.41,12.15c-3.55-.56-28.4-5.05-28.4-5.05s-17.94-10.65-30.46-14.76c-6.54-5.23-19.81-16.63-25.23-17.38-2.62-2.43-13.27-11.21-13.27-11.21l-47.28-23.36Z"/><path class="cls-3" d="M1791,107.51a20.19,20.19,0,0,0,8.54-2c5-2.22,15.72-7.28,29.43-9.6a52.24,52.24,0,0,1,5.59.21s-1.9,6.44-3.9,7.81-18.67,15.82-24.26,26.79c-.74,1.79-3.69,11.71-6.44,12.76a25.32,25.32,0,0,1-5,1.38l-2.64-34.08Z"/><polygon class="cls-3" points="1868.72 182.51 1827.58 181.3 1822.23 180.39 1818.7 183.62 1823.14 212.46 1870.63 211.15 1868.72 182.51"/><path class="cls-3" d="M1840.51,416l-6.68-2.5s-3.46-3.54-4.75-6.36-4.67-8.93-6.92-8.29a4.08,4.08,0,0,0-3.38,3.46c-.49,1.85-10.71,28.34-13.69,33s-10.95,16.1-10.95,16.1a1.66,1.66,0,0,0-.08,2.73,31.67,31.67,0,0,1,6,8.86c.32,1,1.77,3.3,3.78,1s11.11-11.84,13.93-16.19c2.66-3.21,21-28.09,21-28.09Z"/><path class="cls-3" d="M1658.07,537.63l6.55-2.81-1.4,31.25.47.82-8.55,5.86-13.92,11.93-7,6.68-55.12,34.41-40.27,26.8L1498.89,677l-7.84,6.56a6.69,6.69,0,0,0-.35,2.34,55.65,55.65,0,0,0-6.09-1.53,11.27,11.27,0,0,0-.93-1.63L1428.9,711l-45.06,26.81-61.57,35.58-24.34,14.86-2.58-5.27,47.76-26.21,31.36-19.2s18.61-13,20.49-13.57,44.47-23.06,44.47-23.06l51.74-28.79s18.49-8.78,28.2-13c3.52-1.75,40.15-26.1,40.15-26.1l47.52-30,25.4-14.75,13.34-10.65s5.16-4.27,5.34-4.92.18-2.49-2.19-2.91a13.48,13.48,0,0,0-2.2.83l8-15.66-.77-3.45,3-.17,2-7.9Z"/><path class="cls-3" d="M0,1007.44s26.26,1.45,38.14-1.22C33.05,965,13.91,863.12,13.91,863.12l7.87-2.18,15.87,87.24,8,54.53s27.51-16.12,32.84-17.08c2.18-2.06,10.78-11.39,10.78-11.39S93.15,970,96.18,973s10.91,12.85,10.91,12.85l-6.31,6.66,3.88,5.45-6.18,5.58-2.91-3-11.87,7.75-6.18-8a12.65,12.65,0,0,0-13.09-1.82c-7.39,3.27-17.32,10.3-17.32,10.3L57.65,1080H48.32l-8.73-66.51s-.36-2.78-5-2.54S5,1013.13,0,1011.8Z"/><path class="cls-3" d="M124.86,1080l21.71-50.79,6.09,7,20.07-16.5,24.53,25.86,50.7-42.81,23.63,24.38,19-17.54-67.94-69.43-1.63-9.81,10.41-3,6.54,4.16,12.93-14.87,2.38-13.23-14.12-4.75-5.65,9.21-16.06-5.35-11,1.19-7,7.43,1.19,1.79-3.42,4.31s-4,3.71-10-.3c-4.61-4.16-33.89-35.68-33.89-35.68s.15-7.13,6.84-9.07,94.55-25.57,94.55-25.57l83.25-25.12s43.55-7.14,60.8-1.78c7.14,1.19,87.41,14.71,87.41,14.71s34.79,5.5,54,15.17c5,2.38,53.81,27.8,71.21,41.47,15.9,10.86,90.68,80.13,90.68,80.13l33.3,30.78a28.5,28.5,0,0,0,23.19,6.83c14.42-2.08,41.18-8.32,41.18-8.32s21.56-2.53,46.09,8.62c5.2,2.08,41,19.25,56.64,45.45,4.31,7.77,8.77,25.41,8.77,25.41h7.88s-4.79-20.72-13.3-30.57c-3.34-4.37-20.48-23.81-35.32-32.44-2.76-2-20-14.84-49.69-20.36-6.56-.69-18.87-1.84-31.29.57s-28.07,9.89-38.77,6.33c-12-2.42-28.29-20.13-32-23.7s-61.55-57.28-61.55-57.28-33.39-28.27-51.12-43.34c-2.39-2.11-44-29.67-80.31-42.61-16.59-4.36-133.47-25.18-133.47-25.18s-42.83-2-74.5,10.09c-11.09,3.23-142.58,40.74-142.58,40.74s-26.83,7.26-26.83.6v-26h-46s-3.43,3.22-3.43,7.26c0,2.62-2.82,3.63-6.85,3.63H74.46S71,852,71,855.59,69,884,74.86,885.24c5.25.81,17.35,1,17.35,1L94,920.43s4,17.85,8.47,22.89a10.48,10.48,0,0,0,3.23,3.63l5.44-7.46s-8.26-18.15-8.26-22.18V889.07l18.15.2s9.68-8.47,18.75-7.66c2.62.4,8.07,6,8.07,6L163,906.42s1,10.08-9.68,20.16-14.72,18.76-20.16,18.15-1.42,5.45,1.61,9.69,19.56,22.78,19.56,22.78L143,988.9l6.86,7.67-11.1,12.1s-4.84,6.05-1.61,9.27a64.22,64.22,0,0,1,5.85,6.86L117,1080Z"/><path class="cls-3" d="M92.89,735s-11.3,27.8-12.64,30-8,6.25-8,6.25l5.5,11.15-1.63,37.46s19.47-3.12,32.11-.74S137,825.53,137,825.53L136.3,797S121,784.35,112.66,769c-2.38-2.83-10.11-13.38-12.79-16.5S92.44,742.13,92.89,735Z"/><path class="cls-3" d="M108.4,86.69s-.47-5.85-.7-6.9-3-11.24-3-11.24L72,63.05,25.18,67.5l-1.4,2.22L21,79.09l3.63,21.53-2.11,8.43L47,98.63l24.23-7.37,15-3.16L103,87.51Z"/><path class="cls-3" d="M1829.76,601.76c-.65.23-65.54,23.42-119.67,31.53l-.19,0c-3.49.8-10.75,1.7-17.15,2.49-10.36,1.28-13.74,1.77-15.19,2.42-4.11,1.38-10.1,5.4-14.48,8.35-1.56,1-2.91,2-3.72,2.43-2.9,1.71-20.77,9.42-28.1,10.29-11.48,1.46-42.85,11-50.11,15.22-6.61,3.86-102.36,58.47-103.36,59l-110.61,65-.38.27c-.37.32-9.17,8.07-9.42,18.89-.9,11.09,1.26,23.74,2.43,30.55.27,1.62.49,2.9.56,3.55.1.92.37,2.8.76,5.41,1.06,7.24,3,20.72,2.76,25.73-.38,13.55-5.68,29.9-15.32,47.27l-.09.17c-15.14,33-47.92,72.61-48.25,73-4.13,4.91-35.77,40.73-47.12,47.16a27.39,27.39,0,0,1-21-2.24c-8.82-6.43-39.61-41.37-40.93-42.86a69.17,69.17,0,0,0-41.39-23l-.28,0c-15.3-.61-27,1.56-34.62,6.44-3.55,1.59-46.46,20.92-64.78,33.62-2.9,1.86-7.4,5.12-11.82,8.39a131,131,0,0,1-15,6.53c-8.07,2.56-51.37,1.38-69.09-1-19.88-2-53-20.67-65.35-27s-57.28-18.3-66.34-20.27-8.86-9.45-8.46-15.16a23.24,23.24,0,0,0-1.38-9.84l-16.34-11.81-.58,1.08L808,963.35l.91,7.21s-1.09,2.46.09,13.77,21.53,12.49,21.53,12.49,40.21,10,51.52,15.23c3.1,1.46,35.29,17.88,41,20.15,16.5,9,43,10.77,43,10.77l45.69-1.19s5.11.27,5.11,3.37a6.24,6.24,0,0,1-1.33,4.16c-2.74,1.69-8.13,4.74-12.56,5.37-6.19.88-25.91,16.35-28.79,25.32h14.5s4-1,5.38-4.08,4.31-5.24,6.62-6.62,5.7-1.85,7.08-4.77a33.37,33.37,0,0,1,3.28-4.92c1.86-1.41,3.45-2.58,4.57-3.38,0,7.72,0,23,0,23.77l5,0c0-.22-.11-21.37,0-26.73.9-2.63,4.87-6.38,7.25-8.2.18-.14,17.91-13.87,25.07-18.46,18.4-12.75,63.76-33.09,64.22-33.29l.34-.18c6.76-4.38,17.43-6.31,31.73-5.76,24.09,3.75,38,21,38.13,21.22l.09.1c1.33,1.52,32.7,37.17,41.95,43.78l.28.17a32.34,32.34,0,0,0,25.21,2.59l.44-.18c13-7.09,48.42-48,48.76-48.45s33.5-40.47,48.92-74c10-18,15.51-35.14,15.91-49.41.29-5.44-1.65-18.72-2.82-26.65-.36-2.46-.64-4.4-.73-5.22s-.3-2.09-.61-3.86c-1.12-6.61-3.22-18.9-2.36-29.38v-.16c.14-7.92,6.49-14.16,7.55-15.15l110.37-64.85c1-.55,96.74-55.17,103.37-59,6.22-3.63,36.57-13.1,48.2-14.58,8.23-1,26.74-9,30-10.94.93-.55,2.27-1.45,4-2.59,4-2.66,10-6.69,13.41-7.8l.27-.09.14-.08c1.35-.46,8.18-1.31,13.69-2,6.78-.84,13.78-1.71,17.55-2.55,54.61-8.2,119.87-31.52,120.53-31.76Z"/><path class="cls-3" d="M1726.23,1080l-41.51-125.24s-5.92-10.7-5.7-13.52-2.14-5.75-6.3-3.72-6.09,10.37-4,15.1,2.37,9.46,13,13.07c2,1.12,3.6,6.42,2.36,8.79s-13.74,13.63-13.74,13.63l-4.51-.57s-5.4-12.28-13.85-16.67c-6.88-3.38-11.61-6.87-5.19-11.72s16-17.57,16.9-18.59,9.58-11.71,15.21-14c3.95-2,4.17-3,6-8S1722,888,1722,888s5.63-4.51,9.35-5,5.63-3.72,8.56-8c3.5-3.72,5.52-4.5,8.57-4.84s9.69-2.26,13.07-7.89c2.92-5,36.39-29.74,36.39-29.74l3.94-6.31,28.62-29,39.32-55.88,33.57-54.87S1914.46,666.9,1920,660v9.12l-24.09,41.24-28.06,43.71-31.54,46.2-33.24,32.89-36.73,29.3s-11.94,9.24-13.52,9.24a12.75,12.75,0,0,0-11.15,5.63c-2,2.93-3.72,6.42-6.09,8.22s-40.11,30-40.11,30-11.49,11.27-10.14,24.68c.68,7.77,5.64,18.59,5.64,18.59l18.14,49.91,23.66,71.27Z"/><polygon class="cls-3" points="0 508.94 60.74 500.55 61.83 510.57 0 519.17 0 508.94"/><path class="cls-3" d="M40.7,113.29V103s11.58-5.36,12.61-5.36,4.14-1.32,5.36-1.79,10.64-2.82,10.64-2.82L85,90.42l.09,2.45S68.84,94,56.79,101.34C52.65,103.69,43.24,109.71,40.7,113.29Z"/><path class="cls-3" d="M1070.34,782.81c-13.55-8.35-33.25-15.16-35.7-16s-17.87-6-24.69-7.33c-5.17-1.07-4.6-5.89-4.6-7.25s2.73-6.75,2.73-6.75l.86.79s10.41-17.52,11.63-19.6,3.3-9.76,3.74-12.42,2.87-19.39,3-21.68c.43-3.59,4-3.74,5.31-4.17-4.66-8.47-9.33-24.7-9.33-24.7A103.84,103.84,0,0,1,1025,674c.14,3.23-1.15,11.78-2,15.58-2.51,8.26-4.31,24.92-4.88,28.58s-11.27,19.53-13.07,21.25-3.37,5.46-5,10.7a7.29,7.29,0,0,1-6.56,5.3l-51.06-13.78a7.14,7.14,0,0,1-4.8-8.48s14.23-46,15.67-50.68c7.52-20,12.31-55.64,12.31-55.64l.8-43.65s2.56-61.72-1-73.71c-6.71-26.22-32.45-30.7-32.45-30.7L896,476.24l-.16-3.2,15.35-1.92L889.5,414.05l-20.26-3.85-8.62-40.52h0c-.06-.4-.1-.64-.1-.64l-9.25-46.87c-1-3.87-3-19.11-11.71-23.78-1.77-1.15-8.11-6.17-28.37-3.88-6.25.62-23.18,8.65-23.18,8.65s-33.28,18.67-37.94,21.47c-45.72,26.9-55.31,25.44-55.31,25.44L713,310l-17.71-1.57,1.58-36.18,31.09,4.12L749.67,228l-13.11-1-.83,2.75-52.49-4.05-.36-20.07-9.46-.18-2.32-51.6,19.46-1,55.83-.74s31.51-1,38.2.15c9.89,1,19.18,12.26,19.18,12.26L823,188.21,859.07,237s8.7,13.75,14.72,14.71c5.65,2.53,21.64-3.19,21.64-3.19l-20.94-42.91-40.11-47.82a121.93,121.93,0,0,0-11.79-12.38c-10.6-8-19.67-11.87-32.31-16.36-14-5.43-28.56-4.12-28.56-4.12l-92.44,12.21,6.33-3.29c-18.32,4.4-140.34,20.36-145.08,20.74s-86.4,7-107.24,7.39c-81.1,3.79-106.86,0-106.86,0l-15.22-1.74s-19.3-5.23-27-6.74c42.08,17.2,60.15,22,60.15,22l42.39,8.6-3.65,10.52-13.34-.44-.39,4.48,3.32.94.11,6.31-20.93,2.35-52.64-5.77-5.74,48s-.75.23-1.93.62l-3.26.26s-6.17-6-7.14-7.6S265,235.64,254,227.49c-1.8-1.2-11.68-9.14-43.8-22.73-9.83-3.34-34.09-9.07-46-14.83-12-5.24-29.18-18.73-31.52-20.77,0,0-13.11-10.55-21.78-11.45,0,0-13.56-6.86-22.08-17.56-4.07-4.52-14.25-16.36-14.25-16.36l-3.24-2.41-2.56,1.06-4.9-10-6.35,4.08s5.36,2.55,8,7.1c-.34.47-.61.47-.61.47l6.44,6.5,21.5,25.52a22.42,22.42,0,0,1,5.76,9.72c1.68,3.88,6.1,16.81,14.4,25.59,2.28,2.94,22.31,24,22.31,24l39.26,46.22s2.34,2.08-.27,1.88c-2.41-.8-51.86-16.53-51.86-16.53l-9-3.93-1.85,3L123,252.92l51.62,17s14.62,4.81,21.71,10.82c1.64,1.59,28.5,25.05,42.37,46.88.92,1.48,13.35,19.69,16.76,31.25l12,40.47,9.34,35.08s1,7.7-2.14,8.77c-35.5,7.45-61.33,12-118.33,38.61-18.17,7.67-58.88,13.78-59.82,13.78,1.88,8.77,2.19,10.34,2.19,10.34s19.26-2.51,56.69-11.59c11.43-2.51,74.38-3,74.38-3l45.72-.78.94,2.19,11.44,1.1-4.08,9.55a255,255,0,0,0-41.56,8.31s-21.35,4.76-37.18.76c-3.92-1.1-16.85-6.12-31.91,1.7s-19,15.83-20.76,22c-1.36,6,0,20.51,0,20.51s-8.85,18.21-9.53,23-3.23,17,15.23,25c10.13,3.57,42.8,2.21,46.2,2.3s36.42,2.63,38.38,3c15.82,1.88,23.74,10,28.5,16.77,4.17,5,13.11,17.19,27.4,14.63s16.42-5.36,30.46-1.61a32.65,32.65,0,0,1,16.77,14.12c1.87,3,19.65,27.39,38.64,41.71,3.8,3.8,10.39,12.86,22.75,15.57,1.91,2.51,2.11,5.53,3.92,5.93s1.51,10.15,1.51,10.15.2,3.41-2.21,4.52,19,8.24,20.3,6.13,11.25-18,16-24.72,8.64-33,2-40.3-16.36-22.09-16.36-22.09-16.9-7.59-20.49-17.3-20.62-27-26.21-30.34-45.77-30.47-57.62-29-19.16,8.38-27.41,16.23c-3.59,2.39-14.23,4.92-15.43-7.59s-14.9-22.22-18.89-23.28-15.44-4.26-12-10.65c3.46-4.12,7.19-5.58,17.56-4.12s24.35.8,31.14-15.43c3.06-9.58,2.79-15,7.32-17.83s12-6.92,12.11-3.6,4.39,34.86,7.18,37.13S335,540,335,540s5.06,14.51,11.85,15.57c7.45,2.4,25.81,4.13,43-.27,12-4.65,30.21-15.3,40.58-12.9,10.52.8,52.56,13.17,58.82,16.9s15.3,6.12,41.24,6c2.8-.79,14.91.23,14.91,1.63s4.68,9.68-1.87,36.83-16.08,44-14.83,66.79,9.83,33.55,25.59,35.11,27.16-6.08,29-30.58c-2.18-18.89-6.87-32.93-2.65-47.44,5.93-7.34,13.73-34.34,12.79-36.68s0-3.54,1.56-2.78c.92.46,2.8-.13,4.14-.67-1.14,17.29-2.66,32.54-2.85,35.61-4.42,43.85-7.08,48.52-7.08,48.52-1.45,12.88-8.73,28.44-10.84,33.17-11.34,24.41-31.51,29.89-31.51,29.89S503.1,748.87,499,750.22A24.36,24.36,0,0,0,485.71,759l-7.3,19,4.86.91s2.59-5.64,3.23-7.76,2.78-10.08,7.4-13.41c1.85-2,17.94-6.57,23.12-7.86,30.7-8.32,44.29-17.11,44.29-17.11,14.7-8.23,23.49-29,23.49-29s8.06-20.42,11.23-25.08c2.8-4.13,6.1-3.47,6.82-3.27a59,59,0,0,0,4.07,5.32c14.64,17.63,33.87,35.46,51.72,50.48a31.45,31.45,0,0,1-.34,5.31l-9.28,35s-9,38.35-9.28,40.45,5.38,2,5.38,2a26.59,26.59,0,0,0-.77-2.75c-.29-.67,1-8,1-8s13.25-53.6,14.26-57.2c.8-2.86,2.77-8.77,3.56-11.11,23.5,19.4,43.65,33.31,46.21,34.48,22.41,15.94,61.6,35.07,63.85,36.29,14.44,7.12,52.79,32.35,58.6,36.94,11.63,9.56,19.5,11.91,23.44,13.22s3.75,3.37,3.75,3.37,3.66,13.79,5.34,17.35,7.6,2.91,7.6,2.91,20.88-7.08,27.07-9.1,8.47,1.17,8.47,1.17l12-11.86s7.23-12.38,8-13.81c-3-2.28-17.21-10.3-22.29-12.64s-.48-8.82.9-11.77c3.64-7.62,21.9-61.2,24.64-69.25,1.74-7.35,9.95-6.1,9.95-6.1s39.55,10.2,44.57,11.3c11.26,4,11.63,9.43,12.12,12.62,1,8.44-5,31.34-6.61,36.11-10.41,26.94-31,57.18-34.41,61.35-29.75,30.6-74.65,48.18-74.65,48.18a27.84,27.84,0,0,0,4.16,4.66c33.27-12.69,66.82-38.89,74.79-47.24,19.86-24.87,31.09-55.49,33.5-60.41,8.54-20.5,8.63-36.93,9.37-42.68s5.94-6.68,8.63-6.4c39.16,11.41,62.82,26.16,62.82,26.16S1072,783.92,1070.34,782.81ZM684.85,143.19l25.56-3.6,12.79,3,13.27-1.8,11.93-7.1s18.76-2.09,24.35-1.33,14.69,1,40.17,15.35c8.91,5.21,24.82,25.11,26.34,27.09s41.68,50.5,41.68,50.5l8.44,12.32-6.92,7.48a10.29,10.29,0,0,1-13-.76c-2.56-3.12-33.92-45.19-33.92-45.19l-26.33-34.29s-10.61-14.21-22.27-16.2a45.49,45.49,0,0,0-8.81-1.05c-3,0-85.07,1.33-85.07,1.33s-8.72.95-9.67-1.7A3.44,3.44,0,0,1,684.85,143.19ZM280.93,611.24s-.77-1,4.46,3.51,12.22,1.67,18.55,1,20.78-15.55,25-16.44,12.12,5.55,17.12,8.22,31.11,11.89,36.66,14.11,16.89,17.78,19.34,21.67c4.44,11.55,24.89,19.44,30.22,33.78,4.78,16.11-6.33,23-11.78,24.44-14,3.67-25.33-6.22-28.67-8.89-18.55-16.11-34.66-34.67-45.42-54a35.88,35.88,0,0,0-32.06-12.9c-3.91.39-18,4.1-24.82,1.56-8.41-2-9.19-7.43-10.36-11.93S280.93,611.24,280.93,611.24Zm-6.26-81.65s-18.46-3.72-31.41.42-12.12,21.76-9.36,32.64,24.38,17.91,30.85,21.49,2.62,12.12,1.52,15.15c-2.89,1.66-37.61-3.85-43-3.85s-37.88,1.24-50.14-1.24c-9.23-2.21-10.33-16.81-9.23-23.56,3.31-8.68,2.07-24.65,3-31s15.57-14.46,15.57-14.46a79.56,79.56,0,0,1,20.66-4.69c6.75,5.65,18.87,7.16,26.17,7.85s19.7-5,25.48-5.78,21.49-7.72,21.49-7.72,10.2-.13,10.75,7.86S274.67,529.59,274.67,529.59Zm611.07-94.54.15,1.81-35.09-6.8-.46-2Zm-9.14,64.26s-11-16.43-22.67-23.82l15.18,2.78,1.34,4.33,10.86,2.21Zm-.36,36.21C873,542,865,558.31,865,558.31s-7.63,11-23.69,8.92c-7.93-1.38-12.88-2.28-29-21.5-3.37-4.26-20.41-25.27-27.75-43.71-2.47-5.15-11.39-27.35-18.23-39.44-1-2.18-7.24-13.08-7.24-13.08s47.08,10.2,63.63,16.15c16.65,3.67,36.67,25.07,38.25,26.46s16.75,17.44,17.74,29.73C878.81,524.52,879.51,529.08,876.24,535.52Zm2.69-61.6-31-6.35L852,453.65,882.56,460Zm-16.85-71.53s.78,4.1-1.11,4.57c-1.37.35-4.46-.14-6.07-.43.57-2.66,2.31-10.71,4-17.73Zm-71.72-94.92s20.38-11.27,39.16-7.86c5.92,1.83,13.89,3.42,16.62,17.31s9.79,50.77,9.79,50.77,1.6,9.34-.34,15.83-5,23.11-5,23.11l-1.48-.23-9.22,44.85-9.22,8.88S803.57,449.34,704.86,431c-2.57-3.59-5.08-7.63-4.55-12.19l34.15,4.78L733.32,339ZM620.61,322.56c4.72,0,8.54,3.37,8.54,7.53s-3.82,7.54-8.54,7.54-8.54-3.38-8.54-7.54S615.89,322.56,620.61,322.56Zm-14.37,63.91,80.39-17.69,5.22-11.66h3.62l5.43,26.53-10.45,3s6.23,17.28,3.21,23.71-9,14.88-15.47,15.48c-6.83-1-61.5-9.85-61.5-9.85s-9.05-1.21-10.65-11.86C605.84,395.91,606.24,386.47,606.24,386.47Zm-99.26-67c4,.11,4.1,5.87,4.1,5.87h3.32l1.88-8.53L527.91,318l-1.33,8.86,8.86,4.1-1,4.54,3.55,1.21.33-2.1,40.75-9.74v2.77l-9.64,25.24-71-17.49,1.77,64.66-9.62,2.09h0l-3.12.68,0,0-63.59,14.67-7,.62-6.2-5.3-2.56-54.12-1.84-45.31c15.12,2.09,27.62,5.13,27.62,5.13l.44-10.52,62.9,14.5A15.1,15.1,0,0,1,507,319.47ZM429.87,191.13l17,1.75-.19,17.92,7.6-.29.09,11-7.3.29-.1-1.66h-1.56v-2.92H440a17.26,17.26,0,0,1-.59,4.29c-1.75,0-2.14-3.51-2.14-3.51s.2-8.18.39-9.15-6.52.19-10.62-2.54c-3.31-1.46-1.55-8.57-1.55-8.57L422.76,195Zm-21.43-3.8,17.53,27-4.38,3.12-.29-.68-7.31.78.59,7.69,7.5-.68v-4.29l5.84-3.11,8.18,14.12s.68,5.84-.68,7-5.55,3.31-7,3.41-17,1.66-17,1.66l-15.39-52.41Zm-29.21,77.21,5.66.78L383,284.9l-5.85-.66Zm-56.64,41.71c24.62,2.05,57.86,4.85,62.27,5.31,4.77.12,9.73.51,14.58,1.05l1.75,34.83,2.34,65.38s-.43,8.27-4.86,9.35c-3,.72-44.37,8.84-44.37,8.84s-4.95.22-7.66-2-6.31-5.18-9.24-22.53c-.45-3.16-12.28-65.69-12.28-65.69s-3.94-16.11-4.39-16.9C320.61,322.24,321.86,312,322.59,306.25ZM295.67,304,317,305.78l-1.23,11.83s-7.63-4.79-20.88-3.39Zm-5.48-12.15-2.37,21.63s-7.09.18-11.07-1.85-5.75-5.09-6.41-13.11c-1.63-8.59,2.66-8,2.66-8ZM227.93,303l-28.07-26.5S186.41,265.2,185,263.84s-10.38-10.92-10.38-10.92l-39.8-46.12s-5.87-7.58-9.12-9.38c-6.32-4.88-16-18.14-16.61-21.39-1.06-2.76-3-6.5,1.11-9.56,0,0,3.58-2.8,10.44,1.63,6.59,3.8,22.15,15.45,23,15.93s14.67,11.06,25.77,13.45c5.46,2.11,38.1,12.06,39.44,12.45s27.09,11,41.84,22.11c3.54,2.87,12.57,8.81,15.29,16.64a35.05,35.05,0,0,1,.88,9C259.3,263.43,252,279.56,252,279.56a18.5,18.5,0,0,1-6.14,5.59,40.34,40.34,0,0,0-12.6,11.34C230.11,300.53,227.93,303,227.93,303Zm65.23,137.34s-7.18,1.31-10-5.64-9.73-34.28-9.73-34.28l-12.58-44S250,328.86,235.4,312.5c-1.11-1.48-3-5.34.81-10.44,3.72-5.9,10.68-10.74,13.79-11.8a12.07,12.07,0,0,1,8.27.75l5,9s.9,12,7.94,15.77a44.34,44.34,0,0,0,19.57,3.1l13.62.29s7.64-.23,11.74,9.73c2.93,5.79,9.73,39.77,9.73,39.77l9.11,51.27s.85,11.12-4.71,12.59C325.52,433.6,293.16,440.32,293.16,440.32Zm27,57.89-2,3.74-11.44,6.85-4.82,4.06-1.6-6.09,7.91-9.2,7.28-.75-1.82-9.41,10.69,4.38ZM575,610.59c-11.71,9.43-14.15,20.66-16.59,29.93s10.24,27.17,10.24,27.17-1,15.29-11.38,11.22-6-28.79-6-28.79l7.64-43.93s4.76-20.55,4.45-39.41-13.95-26.69-13.95-26.69-4.61-9.36-13.81-10.12-24.84,12.88-29.6,14.11-55.37-12.43-62-15-18.87-4.45-41.41,5.36-32.67,6-40.95,3.07c-17.79-12.42-12.89-24.54-7.82-42s35.73-35.28,35.73-35.28,18.52-6.58,25.84-8.7,30.91-8.94,41,1.47c4.71,7.64,8.13,21.63,24.4,21,10.9,1,22.28-15.78,27.33-21.14,22.12-19.53,38.39-8.63,43.27-4.56,17.57,25.22,15,48.64,15,48.64s7.32,34,7.64,43.6c-1.62,19.36,6.67,34.65,9.11,41.65S580.17,606.84,575,610.59Zm22.73-26.91c-2.3-.28-6.35-1.2-6.35-1.2s-5.44-15.85-6.73-18.89c-4.24-7.84-3.59-25.8-3.69-28.57s-.64-48-.64-48-3.69-26.91-14.65-39.9c-2.49-3.5-11.06-16.77-31.33-18.61-5.26-.28-15.39,1.29-26.45,11.42-3.41,2.68-17,18.25-18.15,19.35s-7.93,5.81-12.17,4.06c-5.07-1.84-8.38-8-9.4-9.49s-7.28-15-22.11-16.68c-11.15-.92-18.25,2-22.67,3.13s-42.94,14.38-42.94,14.38-16.5,6.82-27.37,21.28c-1.84,2.22-10.14,13.09-10.14,13.09l-31.2-12.84-5.08-22.39,1.14-6.74L414.83,426.5l76.73-15.9c52.2-8,68.71-6,74.24-5.32,16.61,2.15,31,21.15,31.54,22.71s.24,31.91.24,31.91,2.63,84.36,2.63,86.16c.49,10.27,0,24.12-.82,37.27A2.57,2.57,0,0,1,597.7,583.68ZM928.86,743.42s-10.4,29.84-11.5,32.73-16.2,49-26.36,64.24c-11.53,17.57-23.19,14.69-28.27,13.73-12.36-2.47-26.91-14.55-29.38-16.48-5.63-5.21-49.88-32.3-55.6-34.86-11.24-5-61.35-33.6-60.26-33.22-5.35-2.89-59.16-41.73-82.81-66.65-11.41-10.08-27.36-29.49-27.36-29.49-9.47-13.55-7.79-28.78-7.79-28.78s4.47-50.43,4.78-53.28,2.08-2.23,2.08-2.23l161.79,30.1-.67-4.43S610.58,585.51,605.13,585c.87-12.73-.33-153.83-.15-157.59s1.75-3.38,3.81-3.5c30.76,3.45,141.92,23.86,141.92,23.86s7.14,11.4,8.52,13.48c8.13,13.68,19.23,42.12,22.8,50.55,5.75,12.68,20.2,31.2,22.51,34.05,19.79,26.29,29.47,27.28,36.39,28.82,18.7,2.08,25-5.72,26.62-7s8.9-13,13.52-14.74c3.74,0,2.09,3.41,2.09,3.41l-6.71,15,31.78,13.08,2.09-9.67,16.06-38.82-4.73-2.64,4-10.56s-42.12-14.62-44.1-15.06a29.72,29.72,0,0,0-2.53-5.28l5.61-17.6,9.35,1.1.55-3.74s38.49,2.64,42.77,3.52c25.3,10,24.54,36.62,24.54,36.62s-1.09,96.4-1.28,105c-.93,8.76-8.75,44.14-8.75,44.14Z"/></g><g id="Buildings"><rect class="cls-4" x="621.39" y="376.47" width="59.39" height="28.55" transform="translate(-63.18 133.03) rotate(-11.13)"/><polygon class="cls-4" points="379.29 263.84 322.78 257.79 324.81 238.89 304.42 236.69 298.26 293.97 318.66 296.16 320.59 278.19 377.11 284.24 379.29 263.84"/><rect class="cls-4" x="887.56" y="529.54" width="26.14" height="39.59" transform="translate(278.61 -302.72) rotate(22.49)"/><rect class="cls-4" x="672.01" y="153.83" width="12.84" height="7.46"/><rect class="cls-4" x="466.84" y="163.65" width="192.95" height="16.96" transform="translate(-17.9 76.51) rotate(-7.65)"/><rect class="cls-4" x="429.3" y="190.3" width="17.01" height="17.01" transform="translate(27.86 -52.47) rotate(7.08)"/><rect class="cls-4" x="828.88" y="780.52" width="3.79" height="12.68" transform="translate(-88.65 105.69) rotate(-6.91)"/><rect class="cls-4" x="838.85" y="781.01" width="3.79" height="12.68" transform="translate(1521.77 -141.61) rotate(83.12)"/><rect class="cls-4" x="844.3" y="787.73" width="3.79" height="6.76" transform="translate(1530.3 -143.72) rotate(83.12)"/><rect class="cls-4" x="82.62" y="984.31" width="12.87" height="16.55" transform="matrix(0.77, -0.64, 0.64, 0.77, -616.27, 288.55)"/><rect class="cls-4" x="90.15" y="975.69" width="8.28" height="12.91" transform="translate(-608.28 289.4) rotate(-39.92)"/><polygon class="cls-4" points="99.25 872.37 99.25 868.64 100.12 868.64 100.12 861.74 100.17 861.74 100.17 849.16 84.33 849.16 84.33 861.74 90.87 861.74 90.87 868.64 92.81 868.64 92.81 872.37 88.42 872.37 88.42 880.55 103.65 880.55 103.65 872.37 99.25 872.37"/><polygon class="cls-4" points="127.98 851.41 114.9 851.41 114.9 853.76 109.07 853.76 109.07 863.68 124.3 863.68 124.3 860.71 127.98 860.71 127.98 851.41"/><rect class="cls-4" x="132.69" y="841.9" width="10.94" height="10.53"/><rect class="cls-4" x="858.06" y="457.32" width="24.12" height="8.28" transform="translate(105.3 -159.11) rotate(11.12)"/><polygon class="cls-4" points="314.19 449.23 327.45 446.77 328.77 453.27 321.3 454.85 321.39 457.75 315.42 458.54 314.19 449.23"/></g></svg>