<svg id="Background_Details" data-name="Background Details" xmlns="http://www.w3.org/2000/svg" viewBox="0 0 1920 1080"><defs><style>.cls-1{fill:#636466;}.cls-2{fill:#c7c8ca;}</style></defs><title>background</title><g id="Pavement"><path class="cls-1" d="M0,282.12V228.57S56.5,118,123.43,67.55C149.06,46.13,206.81,0,206.81,0H292.1S218.67,0,110.81,102C94,118.42,28.41,193,0,282.12Z"/><path class="cls-1" d="M1855.86,608.17a335,335,0,0,0,18.48-75.74s17.79-6.81,24.88-9.59,12.24,4.59,12.24,4.59l8.54,10.15V279.82l-12.5-11.23-55.24,53-16.13-1.22c-13.68-2.81-17-13.16-22.8-21.05-16.66-26.13-50.86-64.88-65.59-81.72s-56.82-55.24-81.72-75.41-43.84-60.67-49.63-70S1579.56,0,1579.56,0h-41.74c-2.27,11.29,31,73.41,31,73.41s-23.49-8.77-35.95-12.45-18.76,12.27-18.76,12.27-23.5,62.67-29.49,78.13c-15-3.23-30-5.91-44.16-8.12l1.24-6.39-105.3-14.11L1349.33,0H539.77l-3.65,21.58s-1,7.05-9,6.32S451.5,17.69,451.5,17.69L439.58,0H417.69l31.47,43.51a339.63,339.63,0,0,0-67,10.11,385.47,385.47,0,0,0-101,41.78c-40,23.53-77.31,54.69-110.91,92.6l-.54.61-.49.66c-1.58,2.11-3.94,4.95-6.67,8.25-25,30.23-83.65,101-84.48,242-.1,4.05-.51,41.17,13.65,92.32A413.55,413.55,0,0,0,201,716.67l.48.46c25.88,23.72,71.2,57.53,176.88,100.9-6.12,14.43-21.71,51.34-25,60.34-3.43,1.22-62.61-24.18-80.05-36.6-12.5-6.53-21.46-8.95-32.85-11.38s-43.68,7.28-54.13,10.26S151,832.44,151,832.44s-45-65.51-49.65-74.1,2.8-13.07,2.8-13.07L140,714.66l-6-7.65s-29.12,21.28-40.32,28.18-14.37,2.62-17.17,0C67.23,726.42,59,712.8,55.66,703.46s2.43-19.6,2.43-19.6l16-15.3L91.5,651l-6.72-12.13-17,2.43s-34,21.46-38.07,24.08-8.22-1.12-8.22-1.12L0,607.89V702l13.69-7.9L0,735.1v69.6S27.67,728,31,718.17,38.84,717,38.84,717,59,737,64.7,747.36s-6.46,20-6.46,20S1.42,819.47,0,819.66v20.58s58.43-53.69,70.58-65.45,25.67,5.1,25.67,5.1,34.46,50.27,46.72,71.18c32.45,58.42,89.79,77.53,89.79,77.53l132.7,50.85s105.12,42.19,172.72,68.87c7.94,2.52,134.87,31.68,134.87,31.68H845.22c-3.06-9.63.51-14.17,8.16-18.42,10.54-4.41,196.82,2.76,196.82,2.76s133,5.61,153.4,6.43,17.79,9.23,17.79,9.23h120.94c.32-7.74,11.86-8.08,11.86-8.08s37.23-6.26,56.68-8.73,30,16.81,30,16.81h36.09l5.1-33s37.06,2.86,57.33,4.58,67.07,8,90-1c7.21-1.72,22.33-8.59,22.33-8.59l-20.61,38h21.3l55.27-116.21s36.15-75.14,49.59-92.55c7-11.35,12.49-10.79,19.68-10.41s29,26.31,29,26.31l48.26,101.25,29,51.1,18.17-8.13a21.07,21.07,0,0,1-2.46-6.06c-.57-8.33,7.76-11.36,7.76-11.36l13.42-7.76V983.66s-18.15,7.57-28.18,10.6a14.55,14.55,0,0,1-17.23-4.16s-53.18-109.77-58.1-118.48-24.23-17.79-33.69-29.34c-5.49-6.81,3.41-10.22,3.41-10.22s14.38-1.89,18.55-2.27,5.3,1.14,5.3,1.14L1814.6,847,1920,813.71V761.28l-119.6,34.45s.95,5.48,2.08,13c-4.92,7-18.16,1.71-18.16,1.71l17.41-40.13L1920,741V730.62l-41.43,10.6-71.92,16.84s9.46-24.6,18-45.42S1852.26,618,1855.86,608.17ZM224.91,902.49c-5.78,4.87-30.73-15.52-38.34-21.3s-1.22-8.83,3.65-11.87c21-10.34,47.47,4.26,47.47,4.26S229.47,893.36,224.91,902.49Zm1426.34-81.4-3.3,3.09-37.19,34.16-3.69-4.16-11.17,9.93-1.41-1-10.89,9.28-1.32-1.23-10.22,9.08-1.42-1.23-33.41,30.28,4.07,4.35-6.53.38-7.47-2.17L1486,918.15l-1-2.08h-1.9l-.47-.76-55,8.8-133.33,21.2-96.43,15L1144,966.6l-18.17.94-9.33.45-.13-13.39q8.63-.51,17.85-1.19c12.54-.93,25.24-2.37,37.74-4.27l198.85-30.33,118.5-18.27.35,0c2.85-.49,70.53-12.7,144.09-71.72l2.65-2.18c3.51-2.88,7.27-6,11.21-9.33Zm-699.16,8.34s5.56,27.17,30.72,26.34c8.39-.35,21.62-3.66,26.34-26.1,5.55.35,102.07.23,102.07.23L1237.38,831l205.66,1.3,2.49,18.66-159,24.69s-137.11,22.24-167,23.09c-8.07.63-58.49,5-136.65-1.91C966.71,895.31,850,882.45,850,882.45s-102.12-10.33-139.67-19.67c-13.71-2.58-57.65-12.37-57.65-12.37L641,847.53l-9.5-5.85-2.79-4-3.12-8.74,1.28-2.66,40.94,1.28ZM915.18,701.1l.3-42.92c9.91,1.26,24.68,3.3,38.67,5.91,24,4.47,38.61,5.88,38.61,5.88l53.49,1a15.7,15.7,0,0,0-.93,4.4c-.68,9.68-1.09,27.82-1.09,27.82Zm595.15-11.72-5.09.16L1503.6,560l-91.62.49-4.48,4.58-6.64-3.7-82.51-.08-.62-1.13,18.72-15.43s10.67-12,13.3-16.26c3.28-2.46,33.17-17.73,33.17-17.73s4.92-1.64,13-1.15,92.93,7.39,92.93,7.39l13.63.33.82-2.47s12.15,5.91,12.31,23S1519,711.22,1519,711.22s2.63,13.62-8.37,17.73C1510.82,713.68,1510.33,689.38,1510.33,689.38ZM1284.5,636.65l32,3.64,68.8-61.86,14-6.37-80.62,74.37-44.57.23-122.29-1.26-6.27-.61-18.1-6-44.61.22-1-57.43,5.13-4.54,33.95,1.43c2.86.12,5.63.18,8.33.18,1.7,0,3.35,0,5-.07l91.11,4.6,15.58,15.23,10.24,22.86-.34,16.26Zm65.93-180c-.49,5-4.38,59.15-52.14,87.71-12.07,6.81-19.28,17.9-97.06,13.21a41.36,41.36,0,0,0,4.61-4.42c.52-.57,1.24-1.29,2.06-2.11,3.25-3.28,8.11-8.17,11.67-14.77a33.73,33.73,0,0,0,5.34-20.34,25,25,0,0,0-3.41-11.54h0a79.84,79.84,0,0,0-7.37-12.6c-6.58-9.81-10.16-15.84-6.76-25.18,1-2.14,5.47-6.91,16.67-11.76,5.77-2.5,10.4-4.66,14.56-6.81l29.49-15.26c3.4-1.59,8.17-4,13.68-7.09l17-8.77a73.67,73.67,0,0,0,21.6-16.73,70.27,70.27,0,0,0,5.56-7.2l7.67-5.69,1.07.12S1353.7,412.29,1350.43,456.68Zm-36.3-85.25c-1.48,6.12-5.37,11.64-8.83,15.59a53.8,53.8,0,0,1-15.78,12.17c-13.4,6.94-44.33,23-60.1,31.11-3.75,1.94-8,3.92-13.33,6.23-10,4.33-22.85,11.78-27.29,22.67l-.11.29c-7.25,19.51,2,33.36,8.83,43.48A69,69,0,0,1,1203,512c3.55,10.87-1.86,17.47-9.29,24.94-1,1-1.93,1.94-2.77,2.88l-.34.38a26.69,26.69,0,0,1-3.09,2.77c-1.82,1.22-3.75,2.52-5.66,3.82a81.75,81.75,0,0,1-23.5,8.86l-68.82-3s-8.26-6.54-8.58-15-2.47-102.7-2.47-102.7l-2.63-77.13s3.42-17.28,16.33-28.48c8.55-1.71,57.55-10.83,57.55-10.83s53.55-8.93,82.8-4.75c7,1.51,44.66,6,80.7,45.14a20.13,20.13,0,0,1,1.46,6.07c0,.39,0,.78,0,1.16A37.15,37.15,0,0,1,1314.13,371.43ZM594,562.15l-68-4.3-11.5-.46L496.79,555l-4.64-4.64,2.44-8.36,9.29-5.57L539.75,545l38.2,7.08,22.17,2.21,85,4.41,20.55,10.21Zm957.08-38.28c9.36-3.12,16.09-5.91,29.06-4.92s41.75,2.64,41.75,2.64l-2.18,103.26-2.79,11.82s-57.3,67.16-65.51,71.76l-.33-26.44-15.6-.16-2.79-128.4S1529.05,533.56,1551.05,523.87Zm-477.92-227.2,2.23-30.51,16.83,1.34,3.4-34.15,236.9,24,7.89-11.67,1.45-17.22,10.22.1.49-6.43s71.6,8.86,76.56,9.44c51.28,4.57,94.77,21.31,99.44,23,47.28,18.39,78.39,49.64,82.48,54.13s36.41,32.66,44.75,72.59c10.42,38.15-4,76.63-4,76.63l-9.17,2.31-19.37,3.69-1.56,44.45-31.85-2.54-78-4.68-23-.86s-82.39-7.29-86.47-7.78-8.74-.32-13.78-2.3c-7.14-4-13.76-18-14.43-19.22a6.24,6.24,0,0,1-.56-3.48,192.25,192.25,0,0,0,1-33.42c-3.7-42.62-24.56-67.4-24.56-67.4-20.41-34.54-62.58-58.54-62.58-58.54-28.26-16-57.87-18.84-65.49-19.4-20.86-2.47-76.94,6.17-76.94,6.17s-48.23,8.82-53.19,9.69-9.17,2.85-13.76.87C1072.63,303.49,1073.13,296.67,1073.13,296.67Zm-5.08,339.51c-1.84,7-12.32,17.84-18.39,27.83-26.85-.35-73.35-3.5-76-3.69s-44.53-9.29-58.14-12.26l0-3.33-31.41-34.26.45-36.18,11.51-6.46,6.28.73.66.06c.92,0,70.71,3.43,145.31,6.76A67.25,67.25,0,0,1,1066,597.69C1066.81,603,1069.29,622.79,1068.05,636.18Zm-7.58-105c-2.59,2.45-9.94,9.26-9.94,9.26l-15.25,9.66-159.7-6.93-13-9.27-68.94-2s-13.85-1.7-30.31-12.93c-11.59-8-18.48-14.88-22.53-20.55a31.31,31.31,0,0,1-3-9.91l0-.11c-.59-4.67.37-8.28,3-11.37,8.14-9.42,29.55-11.89,36.4-12h.28l193.19-14a37.47,37.47,0,0,0,16.75-5.2,30.92,30.92,0,0,0,4.19-3.06c5.13-3.73,9.87-10,9.18-20.39a22.32,22.32,0,0,0-4-12.1,35.2,35.2,0,0,0-7.85-9.88l-.58-.47c-5.85-4.35-12.65-14.23-12-19.19,2.83-18,15-27.89,25-33.1,14.6-2.83,52.75-10.3,52.75-10.3l4.81,3.11,5,174.62S1065.51,519.58,1060.47,531.16ZM597.8,144.61l72.3,7.71-4.59,71.84,395.75,40-5.61,46.41-9.44,3.1-52.89,11.16S811.24,361,789.71,365.23c-35.88,9.3-63,10.1-63,10.1s-42.27-1.33-70.18-2.66c-76.81-2.39-96.48-13.82-115.89-32.16-48.38-55.29-30.3-105.26-27.91-112.17C536.93,167.47,597.8,144.61,597.8,144.61ZM205.66,257.51c5-7.49,24.28-34.83,36.27-44.52,2.78-2.69,10.95-9.74,10.95-9.74s31-26.78,44.75-33.57,43-24.43,98.31-36.45c25.59-3.88,29.67-5,43.24-4.07s65.74,5.43,65.74,5.43l33.54,3.49-.58,14.34S510,176.86,495.41,205.36s-15.31,67.87-7.36,89.2c6.2,19.78,16.09,55.46,57.59,80.47,7.56,4.85,30.25,17.84,91.52,21.33,8.73.58,66.12,5.24,103.94,2.14,12.6-1.36,17.45-2.14,20.94-2.72s119.25-24,119.25-24l82.8-16.68.29.2a60.91,60.91,0,0,0-4.75,10.16c-2.56,5.22-4.78,12.07-3.73,19.08a22.08,22.08,0,0,0,1.88,5.84c3.39,10.72,11.86,20.39,18.24,25.25a14.57,14.57,0,0,1,3.5,4.93,17.57,17.57,0,0,1-.95,7,10.82,10.82,0,0,1-1.58,1.16,17.51,17.51,0,0,1-7.8,2.33L776.56,445c-4.83.11-35.77,1.46-50.88,18.88-6.4,7.38-9.1,16.71-7.8,27a49.27,49.27,0,0,0,2.77,11.29,111.73,111.73,0,0,0,3.72,25.82c-2.43,0-26.57-.31-26.57-.31l-7.91,7.1-64-2.94s-42.7-1.62-67.34-7.3c-6.29-1.42-70.12-14.27-102.1-29.12-35.25-17.07-51.39-46.29-58.22-58.79s-38.33-66.79-38.33-66.79-24.42-43.09-33.53-53.65c-7-6.62-17.66-29.16-51.24-36-24.85-7-48.65-3-53.25-2.4C216.89,274.68,205.09,268,205.66,257.51ZM279.13,688.2c-14.26-7.19-36.08-25.86-36.08-25.86l-23.6-22.08-4.92-5.93L194.6,604.68l-10.22-17.92L173.4,562s-7.57-44.54-8.33-50.09-6.94-44.41-6.43-71.54c1.26-30.53,5.42-50.72,5.42-50.72s-3.15-.38-8.07-1.51c5.42-28.14,12.36-50.34,13.75-56.4,22.84-27.63,55.39-30.91,62.33-31.54,42.39-1.39,55.77,10.34,59.93,13.75,13.5,10.09,33.31,44.29,33.31,44.29l54.25,93.49L368,476.62l-15.07,10.2L337.7,496.7l-17.95-31.43-9.69,5.6s-8.73,4.65-11.77,4.75-5.22-4.56-5.22-4.56l-2.66-1.52-9.88,8.83a20.08,20.08,0,0,0,2.94,5c-9.68,2.37-8.64,9.59-8.64,9.59l4.75,9.3-14.36,13.45-76.89,52.83,7.36,12.3,33.61-23.17,26.91,38.55,17.36-12,2,2.09-51.73,44.7,5.93,6.81L295.2,582a82.29,82.29,0,0,1,6.59,13.73c3.52,9-5.66,21.51-5.66,21.51s-18.42,29.3-22.83,37.17c35.59,34.34,97.18,56.39,106.47,59.86,27.25,9,52.92,25.51,52.92,25.51L441,750.63l-6.84-.73s-48.45-14.76-52-16a809.44,809.44,0,0,1-82.39-34.32S285.19,691.74,279.13,688.2Zm187.68,312.26L460.72,998l-80-32.25L398,920.44s6.09,7.61,9.44,12.47c28.9,39.26,53.55,54.77,61.16,61.16S466.81,1000.46,466.81,1000.46Zm365.47,52c-35-.67-123.81-13.12-131.89-13.46s-116.07-14.8-153.75-24.56C478,995.93,442.34,957.91,437,952.19s-6.73-10.43-4.71-15.14,15.14.67,15.14.67L557.74,970,554,982.81l160.15,30.28,29.27,3-2.36,18.51,93.54,9.08S833.63,1048.41,832.28,1052.45Zm876.4-130.64s-33.1,77.81-40.6,93-20.81,18.15-39.79,24.64-45.45,4.66-45.45,4.66-76.58-5.16-86.73-5.49-12.82-7.83-12.82-7.83l4.83-34s-6.66.5-9.83,2.16-9.82,13.49-12,18-5,8.15-12.82,15.31-34.54,11.37-34.54,11.37l-88.2,12.18-57.12,3.36s-163.8-10.5-166.32-10.5c-.85,0-1.12-1-1.12-2.34l25.17-.68,52.86-5,44.35-7.13,115.9-17.72,81.24-12.76-2-12.86,4.84-.77L1480,973.86s66.59-20.44,79.65-24.24,57.74-32.24,57.74-32.24l65.75-40.67s17.7,23.18,23,30.56A16.39,16.39,0,0,1,1708.68,921.81Z"/></g><g id="Buildings"><polygon class="cls-2" points="367.66 573.79 389.05 587.48 363.12 628.47 341.55 614.7 367.66 573.79"/><polygon class="cls-2" points="528.01 671.24 517.37 720.22 615.24 742.04 865.17 742.82 865.31 693.09 620.02 691.67 528.01 671.24"/><rect class="cls-2" x="918" y="688.38" width="37.03" height="64.98"/><polygon class="cls-2" points="1017.68 688.42 1017.68 701.11 970.92 701.11 970.92 728.63 1044.94 728.63 1044.94 707.79 1044.94 701.11 1044.94 688.42 1017.68 688.42"/><polygon class="cls-2" points="906.13 580.03 906.13 587.7 899.64 587.7 899.64 596.35 895.32 596.35 895.32 639.41 899.64 639.41 906.13 639.41 907.9 639.41 921.08 639.41 931.5 639.41 931.5 580.03 906.13 580.03"/><rect class="cls-2" x="846.56" y="625.45" width="18.29" height="11.8"/><rect class="cls-2" x="994.39" y="639.2" width="14.7" height="21.84"/><polygon class="cls-2" points="1133.41 688.13 1114.72 688.13 1114.72 663.77 1086.58 663.77 1086.58 684.14 1078.81 684.14 1078.81 713.12 1086.58 713.12 1093.72 713.12 1114.72 713.12 1114.72 703.88 1133.41 703.88 1133.41 688.13"/><rect class="cls-2" x="1261.49" y="704.19" width="16.34" height="28.05"/><rect class="cls-2" x="1643.41" y="437.59" width="6.45" height="16.22"/><polygon class="cls-2" points="713.5 175.46 908.65 195.41 906.99 214.74 711.63 194.79 713.5 175.46"/><polygon class="cls-2" points="978.48 221.39 995.11 223.05 993.65 236.98 977.02 235.52 978.48 221.39"/><polygon class="cls-2" points="1008.41 206.84 1041.04 210.58 1039.16 223.47 1006.95 219.93 1008.41 206.84"/><polygon class="cls-2" points="1005.56 222.73 1042.37 226.8 1041.12 240.14 1004.1 235.76 1005.56 222.73"/><polygon class="cls-2" points="1007.54 268.71 1038.93 271.74 1038.2 277.89 1007.02 275.08 1007.54 268.71"/><polygon class="cls-2" points="323.74 429.93 331.48 428.5 340.22 444.31 345.31 443.43 368.98 485.57 371.19 495.08 363.23 500.39 323.74 429.93"/><polygon class="cls-2" points="369.88 877.36 383.32 840.03 481.75 875.24 483.36 870.39 562.38 898.51 561.87 900.45 571.72 900.36 631.81 916.92 682.15 930.07 692.94 933 736.18 939.15 779.43 945.68 821.83 950.13 904.91 959.12 978.06 966.5 1060.67 970.67 1125.78 967.54 1143.95 966.6 1197.89 960.26 1294.32 945.31 1427.65 924.11 1482.63 915.31 1483.11 916.07 1485 916.07 1486.04 918.15 1527.3 911.81 1534.77 913.98 1541.3 913.61 1537.23 909.25 1570.64 878.97 1572.06 880.2 1582.28 871.12 1583.6 872.35 1594.48 863.07 1595.9 864.11 1607.07 854.18 1610.76 858.34 1647.95 824.18 1691.58 783.41 1740.61 704.71 1762.78 669.49 1779.09 607.96 1789.85 528.5 1784.74 462.84 1765.06 386.1 1738.87 327.51 1694.3 260.77 1655.06 212.83 1647.45 207.94 1643.43 214.24 1544.4 151.3 1546.03 148.48 1540.92 146.63 1543.53 140.98 1510.48 128.8 1523.31 94.34 1536.71 99.27 1529.81 118.3 1544.2 123.66 1551.1 104.27 1556.69 106.29 1558.12 102 1565.97 105.34 1671.12 172.19 1675.52 165.88 1688.49 174.92 1731.55 227.14 1754.39 262.47 1781.15 303.75 1812.44 369.29 1834.2 457.08 1838.72 531.42 1827.9 617.78 1808.99 687.13 1730.36 814.29 1647.57 891.25 1637.34 879.72 1567.51 942.4 1548.84 922.3 1532.78 924.8 1532.42 927.65 1527.55 928.37 1528.14 941.69 1521.72 943.35 1521.84 945.26 1505.06 947.75 1505.66 952.51 1495.67 953.82 1496.02 957.27 1496.18 961 1200.38 1008.13 1141.01 1014.23 1082.86 1017.18 1083.27 1030.48 1097.37 1021.61 1138.73 1019.33 1188.28 1013.83 1243.61 1005.36 1325.8 992.47 1421.82 977.57 1425.71 1003.08 1344.46 1015.84 1228.57 1033.56 1184.22 1040.69 1131.36 1045.64 1094.73 1046.63 1094.93 1045.24 1084.04 1045.24 1084.44 1053.56 1068.4 1053.96 1068.01 1048.81 1036.92 1051.18 914.69 1041.99 873.27 1035.01 872.69 1040.69 856.51 1037.89 858.15 1028.56 823.2 1025.47 822.81 1027.98 733.23 1017.84 718.71 1016.39 666.1 1007.24 558.29 987.01 558.84 984.01 554.6 982.92 558.98 960.1 609.67 969.66 704.63 987.42 721.3 990.43 787.3 997.95 814.22 1001.23 843.05 1003.82 844.69 1004.37 859.45 1014.48 861.36 1001.91 822.69 998.22 769.13 992.62 711.88 983.74 678.81 978.41 629.21 965.56 607.48 959.82 607.89 957.64 538.62 937.96 468.38 912.41 463.33 910.5 460.05 918.42 370.55 886.59 373.28 878.8 369.88 877.36"/><polygon class="cls-2" points="247.93 544.97 229.66 558.13 255.88 596.33 274.83 583.07 247.93 544.97"/></g></svg>