<svg id="Inactive" xmlns="http://www.w3.org/2000/svg" viewBox="0 0 1920 1080"><defs><style>.cls-1{fill:#a7a9ac;}</style></defs><path class="cls-1" d="M1277.76,120.6v-.16c0-.34-.14-1.39-.38-2.87-.64-3.8-2.22-10.41-5.9-14.93-.1-.13-.21-.25-.32-.38s-.13-.16-.2-.23-.36-.39-.55-.58c-10.49-11-23.3-10.4-32.22-8.82-1.77.32-3.39.67-4.81,1l-2.26.48-.21,0h-.11l-.2,0,0,0-.18,0h-.06l-.09,0-.16,0h0l-.28.06h0l-.32.07h0q-3.49.72-11.5,2.43l-.45.09-.24,0-6.08,1.3h0l-3.71.79h0l-16.75,3.58-.1,0-27.29,5.86c-.75.14-1.5.33-2.27.55a38.81,38.81,0,0,0-3.73,1.13c-5.77,2-15.19,6.11-24.64,10.31l-5.13,2.29c-2.86,1.28-5.12,2.3-5.84,2.58l-.44.17a12.15,12.15,0,0,0-4.47,2.66,8.79,8.79,0,0,0-1.8,2.61,9.22,9.22,0,0,0-.46,1.25c0,.07,0,.13-.07.2a13.24,13.24,0,0,0-.42,2.3l0,.2c-.29,3.27.36,7.4,2,12.48a9.74,9.74,0,0,1,.24,1.07s0,.06,0,.08l0,.23s0,0,0,.06,0,.15,0,.22V149a1.62,1.62,0,0,1,0,.21h0v.33s0,.08,0,.13,0,0,0,.08,0,.08,0,.12l0,.17v0a2.35,2.35,0,0,1-.2.6,1.67,1.67,0,0,1-.12.23,3.53,3.53,0,0,1-.68.81,6.13,6.13,0,0,1-.81.62c-1.7,1.11-4.63,2.13-9,3.19s-9.46,2.22-14.53,3.41l-5,1.18c-10.48,2.46-22.6,5.29-28.47,6.62l-.72.16C1038.32,171,912.15,200.63,890.48,206l-1,.23c-7.31,1.41-19,5.43-38,23.51q-1.9,1.8-3.9,3.8l-.05.05c-5.2,5.55-19.53,22.55-33.38,39l-11.46,13.59c-6.77,8-12.17,14.31-14.11,16.35-4,4.2-23.55,26.8-38.59,44.29l-3.3,3.84c-.72.83-1.41,1.64-2.09,2.44-6.47,7.53-11.35,13.24-12.5,14.62-.47.57-1.1,1.19-1.83,1.91a40.15,40.15,0,0,0-5.42,6.28l-.24.36c-.25.38-.5.77-.75,1.18l0,.07-.06.1q-.64,1.08-1.29,2.34c-.17.34-.34.7-.51,1.07a57.15,57.15,0,0,0-4.5,16.08l0,.17c0,.21,0,.43,0,.66-.38,5.61-1.29,18.73,15.83,29.6l0,0c.15.09.3.19.47.28.32.19.66.39,1,.59l1.15.65c12,6.55,40.65,19.78,50.77,24.07.77.33,1.6.67,2.47,1,2.94,1.21,6.28,2.59,9.52,4.29l.78.41c.62.34,1.23.69,1.84,1.05l.42.26a27.77,27.77,0,0,1,9,8.24,3.87,3.87,0,0,1,.24.37c.17.27.33.54.49.82,2.06,3.73,2.91,8.29,1.73,13.95-1.91,6.11-2.09,6.69-2.84,8.85-.08.22-.17.46-.26.72-.5,1.43-1.25,3.59-2.65,7.68l-.16.46c-2.42,7.07-13.68,39.78-21.41,62.23-3.7,10.66-6.11,17.48-7.08,20-2.37,6.24-13.12,36.76-21,59-4,11.26-7.09,20.14-8.06,22.83-1,2.87-2,5.63-2.84,8.31l-.21.61,0,.08-.07.26a164.63,164.63,0,0,0-5,19.31v0l0,.15c-.43,2.29-.76,4.48-1,6.55,0,.14,0,.29,0,.43s0,.49-.07.73l-.06.66c0,.16,0,.32-.05.48s0,.52,0,.78l0,.34c0,.28,0,.56-.05.83,0,.09,0,.18,0,.27l0,.85a2,2,0,0,0,0,.25c0,.27,0,.55,0,.82v1c0,.1,0,.2,0,.3s0,.48,0,.71,0,.25,0,.38,0,.41,0,.61,0,.34,0,.51l0,.46.09,1c.35,3.21.76,5.92,1.23,8.37a123.89,123.89,0,0,0,3.38,13c.56,1.87,1.16,3.84,1.79,6.07l0,.09c.13.44.26.9.39,1.37s.27,1,.41,1.51v0c.22.8.44,1.64.67,2.52.37,1.41.74,2.91,1.14,4.54a61.3,61.3,0,0,1,.41,6.87c0,.86,0,1.7,0,2.53s-.07,1.5-.13,2.23a46.27,46.27,0,0,1-11.35,27.22c-3.27,3.76-6,6.65-8.5,9.23-3.11,3.15-6,5.83-9.49,9l-.62.57-3.14,2.9c-2.86,2.65-11.2,10.54-22,20.77l-3.43,3.24-19.42,18.38c-17.2,16.26-34.9,32.95-43.95,41.27-4.71,3.18-14.93,12.35-11.72,30.35l0,.21a.13.13,0,0,1,0,.06c0,.06,0,.13.05.2s0,.06,0,.09a1.94,1.94,0,0,0,0,.2l0,.11a1.21,1.21,0,0,1,.05.18l0,.15a.84.84,0,0,1,.05.17l.06.18.06.15a1.43,1.43,0,0,0,.08.22s0,.08,0,.12l.11.26,0,.09.13.31v0l.18.39v0A23.62,23.62,0,0,0,625.4,937l.12.08c.38.24.77.48,1.17.71a23.61,23.61,0,0,0,11.78,3,34.38,34.38,0,0,0,10.94-1.92c1-.32,1.93-.69,2.94-1.1l.19-.09c4.21-2.25,6.58-6,11.77-14.36,1-1.64,2.15-3.43,3.42-5.43.63-1,1.3-2,2-3.15l1-1.48,2.78-4.35c6.91-10.78,13.47-21,24.75-36.46,1.16-1.59,2.38-3.25,3.65-5,11.67-15.72,20.67-24.17,29.06-31.33,1.55-1.32,3.09-2.6,4.61-3.88l3.71-3.11c21.32-18.1,37-30.43,46.77-36.75q2.1-1.35,3.82-2.34l2.71-1.53c14.89-8.35,48.73-26.41,60.9-31.88l.22-.12,1-.5.48-.23c4.93-2.4,18-8.76,22.47-16.45a21.44,21.44,0,0,0,1.09-2.2,26.22,26.22,0,0,0,.71-17.79,22,22,0,0,0-1.21-3,18.68,18.68,0,0,0-9.27-9l-.68-.31c-5.22-2.39-19.57-9.16-29.88-14.4L829.56,688c-.45-.27-.8-.49-1.07-.67l-.17-.11,0,0-.21-.15-.65-.48c-.45-.32-.92-.67-1.4-1a47.9,47.9,0,0,1-9.11-8.53c-.12-.15-.24-.29-.35-.44-.31-.39-.62-.8-.92-1.21A47.23,47.23,0,0,1,810.4,666c-1.47-3.83-4.86-12.76,2.61-33,1.24-3.49,4-11.4,7.09-20.15v0c2.29-6.53,4.82-13.78,7.21-20.63l.45-1.3.19-.56c4.12-11.84,7.68-22.17,8.61-25.07.61-1.93,1.78-5.16,3.17-9,.2-.55.41-1.1.61-1.67,3.73-10.16,8.36-22.82,9.49-28.93l0-.26c.52-2.82,2.17-11.67,4.31-23.11l.5-2.68.47-2.54.21-1.08c1.24-6.67,2.59-13.86,3.93-21.06q.39-2,.9-3.84a72.85,72.85,0,0,1,7.95-18.54c.46-.77.92-1.5,1.36-2.17,3.09-4.78,14.69-16.73,23.52-20.71a17.11,17.11,0,0,1,2.65-1h0c1-.29,1.25-.09,1.33,0a1.49,1.49,0,0,1,.32.42l.1.21c0,.12.11.26.16.42.33,1,.6,3,.26,6.75v.06a31.39,31.39,0,0,0,.06,4.4c.06.82.15,1.68.28,2.58,0,.22.06.44.1.67a50.17,50.17,0,0,0,4.55,14.34l.12.24h0l.16.32.1.06a7.47,7.47,0,0,0,1.73,1.94l0,0,.24.16a7.33,7.33,0,0,0,3.65,1.23h.27a10,10,0,0,0,1.7-.09h0l.72-.11.09,0,.55-.12.4-.11.22-.06a33.54,33.54,0,0,0,6.76-2.89l.21-.11.62-.34.46-.26.53-.29,1-.58.37-.22.84-.5.36-.23,1.21-.74c10.43-6.52,23.71-15,36.75-23.82l.26-.17c5.49-3.72,10.94-7.49,16.11-11.21,1.82-1.3,3.6-2.6,5.34-3.88,18.43-13.62,39-34.81,46.75-42.79,1.08-1.12,1.94-2,2.46-2.52,3.08-3.08,9.86-9.86,18.14-18.12l8.24-8.19,1.43-1.43c18.21-18.1,39.23-38.89,45.58-44.69,6.08-5.56,40.2-38.4,70.31-67.36l6.08-5.86,2.41-2.31,2.38-2.3,2.36-2.27,1.17-1.12c20.19-19.43,36.93-35.5,39.33-37.67,1.82-1.64,6.32-5.94,14-13.41l4.61-4.48c3.35-3.18,6.51-6,9.29-8.51,6.28-5.66,11.25-10.13,14.91-15.16a26.91,26.91,0,0,0,1.8-2.82A24.39,24.39,0,0,0,1277.76,120.6Zm-155.18,8.93.49-.19c.79-.32,3-1.29,6-2.64l2.27-1,.77-.34.22-.1,1.57-.7.54-.24.25-.11.61-.27.81-.36,1.73-.77,1.18-.52,4.71-2c-.61.63-1.19,1.29-1.76,2-4,4.73-5.71,11.92-7,17.17a29.27,29.27,0,0,1-1.34,4.76c-.22.39-.4.77-.58,1.13-1.07,2.22-2.19,4.52-12.86,6.86l-.49.11a7.66,7.66,0,0,0,.5-3.75,14,14,0,0,0-.44-2.28l0-.07a36.51,36.51,0,0,1-1.83-8.93,10,10,0,0,1,.67-4.55C1119.48,130.73,1121.06,130.12,1122.58,129.53ZM761.79,644c5.43-15.41,12.24-34.77,16.7-47.28a33.53,33.53,0,0,0,6.75,12.1c2.38,3.07,8.53,7.22,16.29,7.22h.76l.84,0a23.62,23.62,0,0,0,10-3.14c.52-.3,1-.62,1.58-1a11.62,11.62,0,0,0,1.74-1.27c-2.55,7.28-4.82,13.74-6.28,17.89l0,.08-.23.66,0,.12-.16.44-.08.22-.14.41-.1.29-.09.24-.08.24-.14.39c-8,21.75-4.21,31.71-2.57,36l0,.06a48.59,48.59,0,0,0,11.23,16.47c-6.07-.5-12.88,1.5-22.9,7.31l-1.21.7c-3.25,1.89-7.69,4.47-11.45,3.31-2.21-.68-4.13-2.7-5.69-6-1.1-2.28-1.59-6.17-2.11-10.28-1.2-9.43-2.69-21.17-13-22.47h-.07a9,9,0,0,0-4.11.44C758.49,653.36,760.06,648.89,761.79,644ZM874,737.25a12.88,12.88,0,0,1-.81,1.22c-4.54,6.11-15.94,11.65-19.86,13.55l-1.15.57-.12.06-.4.21-1,.48c-13.11,6.06-45.6,23.4-60.11,31.54-1,.56-1.91,1.07-2.72,1.54-1.11.63-2.3,1.36-3.56,2.17C769.33,798.13,745,818.78,736.55,826L732.86,829c-9.47,7.92-20.22,16.9-34.34,35.92-13.67,18.41-20.9,29.7-28.56,41.66-1.22,1.91-2.46,3.83-3.74,5.82-1.62,2.51-3,4.72-4.26,6.71-.41.67-.81,1.31-1.2,1.93l-.88,1.41c-3,4.77-4.85,7.66-6.73,9.52a.57.57,0,0,1-.11.11l-.15.15a10.7,10.7,0,0,1-2.24,1.64q-1,.4-2,.75a29.62,29.62,0,0,1-11.48,1.91,19.14,19.14,0,0,1-7.83-2.09c-.2-.1-.41-.21-.61-.33a19.1,19.1,0,0,1-5.24-4.36,15.39,15.39,0,0,1-3.4-6.23v0c-1.67-9.35.79-15.92,3.9-20.26.33-.46.66-.89,1-1.3a24.06,24.06,0,0,1,5.16-4.68l.13-.09.12-.11,1.23-1.13c4.87-4.49,11.81-11,19.68-18.39,13.4-12.6,29.5-27.84,42.63-40.27,9.33-8.84,17.18-16.28,21.85-20.67l3.55-3.32,3.13-2.89,3.61-3.34c1.53-1.42,3-2.79,4.43-4.21l.55-.54c3.09-3,6.27-6.41,10.34-11.08a50.62,50.62,0,0,0,5.13-7c.21-.34.41-.68.61-1A52.34,52.34,0,0,0,754,756.46a65.23,65.23,0,0,0-.47-7.46l0-.24c-.54-2.25-1.06-4.28-1.55-6.13-1.09-4.09-2.07-7.35-3-10.34-1.14-3.82-2.1-7-2.9-10.71-.09-.41-.18-.83-.26-1.25-.21-1.05-.41-2.15-.6-3.32-.26-1.63-.49-3.4-.71-5.36,0-.29,0-.58-.08-.87s0-.4,0-.59a2.46,2.46,0,0,0,0-.28A64.81,64.81,0,0,1,745.64,695l5-19.19c.07-.21.15-.43.22-.65l.06-.18.15-.42.09-.26.15-.42.09-.24c.05-.15.1-.29.16-.43s0-.14.07-.2.11-.31.17-.46l.06-.16c.06-.17.12-.33.19-.49l0-.1.21-.53v0c4.2-10.76,6.51-10.61,8.55-10.43,5.15.66,7.17,5.38,8.44,12.42l.15.86c.09.57.19,1.16.28,1.77.18,1.21.35,2.47.51,3.79.57,4.46,1.1,8.67,2.49,11.55.26.55.53,1.08.81,1.57,2,3.48,4.46,5.71,7.42,6.62a6,6,0,0,0,.73.19l.15,0c.24,0,.48.1.72.13h.07c.23,0,.45.06.68.07h.12l.72,0h.11c.24,0,.47,0,.71,0h0l.75-.07.12,0c.25,0,.49-.07.74-.12h0l.73-.16.1,0,.72-.19.09,0L789,699h0l.7-.25.11,0,.69-.27,0,0,.65-.28.08,0,.65-.3.1,0,.63-.32h0l.62-.32.1-.06.58-.31.07-.05c.18-.09.35-.19.52-.29l.09,0,.53-.31.12-.07.48-.28L797,695a64.14,64.14,0,0,1,11.43-5.47c7.68-2.58,12.71-1.3,19.15,2.08.51.3,1.09.64,1.75,1l0,0,.31.17.43.24.11.05c4.54,2.48,11.32,5.86,17.88,9,8,3.86,15.68,7.48,18.92,9l.25.12a15.15,15.15,0,0,1,8.22,9.43C877.19,726,876.61,732.71,874,737.25Zm-22.48-341c-6.77-.61-16.85-1.21-20-1.29H831c-1.08,0-9.39-1.27-14.4-6.82-3.07-3.4-4.36-7.81-3.82-13.09,0-.18,0-.39.06-.62a17.38,17.38,0,0,1,3-8.81c2.13-3.12,5.85-6.45,12.44-9.16,3.28-1.36,6.39-2.5,9.39-3.49,10.75-3.53,20.27-5.07,32.43-7l3.8-.62c16-2.61,21.2-2.83,31.42-1.71,1.15.12,2.37.27,3.67.42a25,25,0,0,1,8.73,3.66l.08.05h0a31,31,0,0,1,9.16,9.4c.35.55.67,1.11,1,1.67a36.16,36.16,0,0,1,3.42,24.56c-.16.82-.34,1.64-.55,2.46A38.1,38.1,0,0,1,923.37,399l-1.44,1.78c-.94,1.16-1.92,2.37-3,3.74a36.25,36.25,0,0,0-3.13,4.95l-.45.84a199.6,199.6,0,0,0-8.86,21.1c-.37,1-.73,2-1.07,2.9-1,2.72-1.88,5.06-2.57,6.81q-.3.74-.54,1.47a1.23,1.23,0,0,1,0-.19c0-.11,0-.21,0-.32h0l0-.25c0-.1,0-.21,0-.31a2,2,0,0,0,0-.25l0-.31c0-.08,0-.16,0-.24s0-.2,0-.3,0-.16,0-.23,0-.2,0-.3,0-.15,0-.22,0-.2,0-.3,0-.14,0-.2v-.31a1.09,1.09,0,0,1,0-.18v-.92c0-.12,0-.23,0-.34a.28.28,0,0,1,0-.09c0-.13,0-.25,0-.37v-.05c.06-.72.11-1.41.14-2.06v-.07c0-.18,0-.35,0-.53s0-.31,0-.46h0a2.08,2.08,0,0,0,0-.25v-.68h0c0-.15,0-.29,0-.44s0-.3,0-.44,0-.37,0-.55,0-.19,0-.27h0q0-.36-.09-.69s0-.06,0-.09a7.39,7.39,0,0,0-2.31-4.84,5.33,5.33,0,0,0-5.09-.8h0c-.21.05-.42.12-.64.19l-.35.11c-.28.09-.57.19-.85.3l-.17.06c-8.85,3.44-19.63,13.95-24.62,20.13l-.23.29c-.21.27-.41.52-.59.77s-.46.61-.66.89-.33.47-.47.69l-.35.55-.58.92-.2.33c-.43.7-.86,1.44-1.3,2.21,2.94-15.77,5.26-28.26,5.61-30.22.05-.32.13-.69.22-1.11l.09-.43c.9-4.24,2.41-11.32-1.76-16.95-.19-.25-.39-.5-.59-.74C864,399.07,858.76,396.91,851.51,396.28ZM923,452.33c-.34.22-.67.43-1,.63l-.26.16-.63.38h0l-.35.21-.54.32-.36.2-.49.29-.35.2-.46.25-.34.19-.44.23-.31.17-.42.22-.31.16-.39.2-.29.14-.38.18-.27.13-.36.17-.26.12-.34.15-.24.1-.33.14-.22.09-.32.12-.2.08-.31.11-.18.06-.3.1-.17.06-.29.08-.14,0-.29.07-.12,0-.3.07-.09,0-.31.06h0l-.57.07-3.67-2.18a2,2,0,0,0-.1-.21,1.63,1.63,0,0,0-.11-.23l-.06-.15a15.24,15.24,0,0,1-.85-5.31,20.86,20.86,0,0,1,1.51-7.63c.44-1.12,1-2.46,1.52-4,.34-.92.7-1.89,1.09-2.92,1.59-4.32,3.57-9.68,5.67-14.72.28-.67.56-1.33.85-2,2.12-4.93,4.33-9.37,6.36-12,1-1.34,2-2.53,3-3.68,4.14-5.12,7.14-8.81,9.63-16.28l0-.14a45.87,45.87,0,0,0,1.43-9.64c0-.71,0-1.41,0-2.11a38.42,38.42,0,0,0-5.83-20.29,35.6,35.6,0,0,0-9.06-9.73,29.82,29.82,0,0,0-11.73-5.27l-.14,0-1.22-.15-1.17-.14-.57-.06c-11.09-1.26-16.6-1.1-33.4,1.65l-3.79.61c-15.84,2.57-27.29,4.43-42.74,10.79-9.9,4.08-14.27,9.61-16.26,14.19-.2.48-.39.95-.55,1.41-.08.23-.15.45-.22.68s-.07.22-.1.33l-.18.64-.15.62c0,.2-.09.39-.12.59a25.34,25.34,0,0,0-.41,3c0,.2,0,.38-.06.56-.08.81-.13,1.61-.14,2.4s0,1.55.08,2.3A19.24,19.24,0,0,0,813.51,391a22.53,22.53,0,0,0,5.08,4.13,30.16,30.16,0,0,0,11.76,4c.28,0,.51.05.67.05,1.89,0,10.52.49,17.33,1l2.78.24a31,31,0,0,1,6.44,1.17,12.79,12.79,0,0,1,6.78,4.31c2.19,2.95,2.18,6.73,1.7,10-.1.72-.23,1.41-.36,2.07l-.15.77c-.06.25-.11.49-.16.72s-.06.31-.09.45c-.1.45-.18.87-.25,1.24-.4,2.29-3.55,19.2-7.22,38.88-.28,1.47-.56,3-.84,4.47-.18,1-.37,2-.56,3-.46,2.49-.93,5-1.4,7.5l-4.95,26.51c-.65,3.51-1.27,6.78-1.81,9.71l-.18,1-1.56,8.35h0c-.24,1.31-.44,2.39-.6,3.21q-.06.36-.12.66l-.09.48c-.9,4.86-4.43,14.88-7.6,23.59-.11.32-.23.64-.35,1l-.69,1.89c-.22.61-.44,1.22-.66,1.81-1.67,4.57-3.12,8.51-3.84,10.8-.55,1.71-7.79,22.69-8.68,25.28-.17.49-.35,1-.52,1.49-4,11.29-8.77,16.36-10.77,17.47l-.13.08a19.76,19.76,0,0,1-10.84,3.49c-.44,0-.87,0-1.29,0a17.79,17.79,0,0,1-3-.45,16.46,16.46,0,0,1-8.81-5.12l-.06-.06c-.79-.95-1.49-1.88-2.11-2.78-5.83-8.39-4.73-14.49-4.08-16.55a.88.88,0,0,1,.05-.15v0l0-.07c.32-.93,3.45-10,7.57-22,5-14.33,12.25-35.46,21.46-62.4l.72-2.09c.09-.27.18-.52.26-.77.8-2.3,1.3-3.74,1.67-4.78.59-1.7.83-2.4,1.37-4.07.09-.3.19-.62.31-1l1.49-4.75,0-.19a27.27,27.27,0,0,0,.54-8.35,23.21,23.21,0,0,0-8.07-15.24,51.3,51.3,0,0,0-13.25-8.19c-2-.92-4-1.72-5.74-2.44l-1.6-.66-.82-.35c-5.46-2.31-16.34-7.23-27-12.28s-21.11-10.19-25.84-13c-15-9.53-14.24-20.49-13.88-25.76,0-.21,0-.41,0-.6a67.93,67.93,0,0,1,1.37-6.95c2.61-10.26,6.8-14.69,9.87-17.72l.35-.35c.77-.76,1.51-1.49,2.11-2.21.42-.51,2.3-2.71,5.14-6l.76-.89,2.08-2.43.9-1.05,3.4-4,1-1.21.53-.61,1.08-1.25,1.65-1.93,3.44-4L757.1,345c14.26-16.56,30.87-35.75,34.51-39.58,2.95-3.1,13.39-15.47,24.65-28.84l1.09-1.3,2-2.35,1.35-1.6,1.57-1.86c.5-.61,1-1.21,1.52-1.81l4.81-5.7.12-.13c4.09-4.85,8-9.5,11.5-13.54l.18-.21,2.84-3.31.1-.11q1.71-2,3.16-3.63c1.67-1.92,3.07-3.47,4.08-4.55,15.41-15.41,26-21.64,33.42-24.37h0a38.79,38.79,0,0,1,6.36-1.77l.12,0c2.87-.72,8.46-2.07,15.94-3.85l2.29-.55,3.65-.87,2.56-.61,5.39-1.28,2.82-.67,5.88-1.4,9.33-2.21,3.23-.76,3.27-.77,6.67-1.58,3.38-.8,1.71-.4,3.43-.81,1.72-.4c40.8-9.62,85.37-20.05,95.58-22.34l1.55-.34.14,0,.13,0,.43-.09.5-.12.51-.11.16,0,.28-.06.59-.14.43-.09.54-.13.46-.1.58-.14.49-.11.49-.11.71-.16.31-.07.92-.22.2,0c6.36-1.47,13.42-3.13,20.48-4.79l17.93-4.22h0l.93-.22c6-1.4,11.26-2.61,15-3.43,11.72-2.58,14-5.53,15.73-9.13.16-.33.31-.64.47-.92a26.31,26.31,0,0,0,1.76-5.84c1.14-4.83,2.7-11.46,6.06-15.41a40.3,40.3,0,0,1,14.35-10.82c7.83-1.71,17-2.51,24.44-3.17,2.88-.25,5.61-.49,7.86-.75,3.76-.44,12.58-1.65,21.92-2.92,11.32-1.55,24.14-3.31,29.18-3.84,13.39-.88,16.54,3.06,17.58,4.36,4,5.08,5.66,9.64,5.67,15.71-.56,7.74-5.39,12.13-9.27,15.65l-1,.92c-1.09,1-5.28,4.94-11.07,10.39-16,15-45.75,43-50.73,47.24-7,6-42.58,41.28-46.2,44.89-4.13,4.14-57.73,54.53-63.1,59.56-1.41,1.33-4.21,3.92-7.75,7.2-9.19,8.52-23.09,21.39-27.1,25.39-5.49,5.5-36.29,38.26-40.69,43.28-4.83,5.52-23.89,27.1-28.85,31.75-1.31,1.22-2.88,2.78-4.54,4.43-4.82,4.78-10.74,10.65-15.94,14.27l-.21.14-.85.57-.09.07C946.05,437.77,933.19,446,923,452.33Zm332.42-301.67c-2.79,2.52-6,5.38-9.39,8.61-10.37,10.1-16.42,15.92-18.51,17.8-.94.85-4,3.75-8.56,8.11l-5.31,5.08-.84.81c-10.18,9.76-24.43,23.47-39.13,37.62-30.08,28.95-64.18,61.76-70.22,67.28-1.5,1.38-3.81,3.57-6.7,6.36-10.88,10.52-30,29.5-45.33,44.74l-18.34,18.3-.74.75-1.91,1.9-.51.52c-.48.47-1.17,1.18-2.09,2.13l-.42.43c-6.87,7.08-24,24.68-40.48,37.91,8.62-9.11,25.23-28.05,25.42-28.27,4.38-5,35-37.61,40.5-43.07,3.95-3.95,17.82-16.79,27-25.29,3.55-3.29,6.35-5.88,7.76-7.21,5.38-5,59-55.49,63.2-59.65,5.49-5.49,39.47-39.12,46-44.68,5-4.33,33.74-31.27,50.88-47.37,5.78-5.44,10-9.36,11-10.36l1-.9c4.21-3.83,10-9.07,10.64-18.54v-.14c0-7-2-12.54-6.57-18.37l0,0c-1.52-1.91-5.56-7-21.16-5.92h-.08c-5.07.53-17.41,2.22-29.35,3.86l-11.66,1.59,10.43-2.25,7.81-1.66.4-.09h0l9.45-2h0l1-.21h.05l.22,0,.12,0,.18,0,.13,0,.14,0h0l.11,0,.16,0h0l.22,0,1.12-.24,1.21-.26c7.18-1.57,18.56-4,28.6,2.79a28.76,28.76,0,0,1,4.51,3.86l0,0a13,13,0,0,1,1.08,1.24c3.29,4.31,4.74,11.39,5.08,15.19l0,.16c.09,1,.19,2.12.19,3.37a19.26,19.26,0,0,1-4,11.8C1266.37,140.84,1261.55,145.17,1255.44,150.66Z"/></svg>