<?xml version="1.0" encoding="utf-8"?>
<!-- Generator: Adobe Illustrator 24.0.1, SVG Export Plug-In . SVG Version: 6.00 Build 0)  -->
<svg version="1.1" id="Background_Details" xmlns="http://www.w3.org/2000/svg" xmlns:xlink="http://www.w3.org/1999/xlink" x="0px"
	 y="0px" viewBox="0 0 1920 1080" style="enable-background:new 0 0 1920 1080;" xml:space="preserve">
<style type="text/css">
	.st0{fill:#636466;}
	.st1{fill:#C7C8CA;}
</style>
<title>background</title>
<g id="Pavement">
	<polygon class="st0" points="251.2,-2.6 229.4,-4.3 -11,117.9 -10.6,137.9 	"/>
	<polygon class="st0" points="260.1,-3.9 -11.4,141 -12.8,165.4 285.4,-2.6 	"/>
	<path class="st0" d="M1843.7,301.4c-74.2-117.3-158.2-197.3-158.2-197.3c-64.9-64-134.7-69.3-134.7-69.3h-129.7l1.7-38.2L519.2-6.6
		c8,84,75.1,83.1,75.1,83.1l-32.9,24l-41.3,3.1l-1.8,0.1c-225.1,8.4-317,152.3-317,152.3c-92.1,115.8-75,288.6-75,288.6
		c21.8,198.7,157.8,273.8,157.8,273.8C389,902.3,493,899.7,493,899.7l914.2,1.8c36,0.3,74.5-2.4,100.9-4.7l1.8,12.3l-4.9,4.9
		c0,0-14.7,7.1-16.4,8s-18.2,3.1-24.4,3.5s-28.9,0.5-28.9,0.5l-0.9,23.1h44l12.4,3.6h15.6l4.9,24.4l-11.1,24.4l-11.6,14.2l-24,6.7
		l0.4,19.9l-188.7-2.3H958.6l-32.6-8.3l-101.3-11.3l1.8-77.6l46.8,3l-0.6-9.5l-17.8-1.2c0,0-24.9-1.2-26.7-1.2s-416.6-7.7-416.6-7.7
		l-1.2,14.2l-9.5,12.4l-2.4,16l-1.8,21.3l-6.5,15.4l-48.6-1.8L-6.7,980.1l0.6,21.9l347.3,27.9l10.1,9.5l4.7,17.8l0.6,27.3l398.8,3
		c8.7-18.6,26.9-30.9,47.4-32c42.7-4.2,59.8,32,59.8,32l609.2,1.2l0-1.8l414-0.4l-5.3-114.2l11.1-94.2l32.4-106.7l3.1-322.2
		C1902.3,375.7,1843.7,301.4,1843.7,301.4z M809.3,995.6H461.4v-54h347.9L809.3,995.6z M329,296.1c55.1-95.5,155.1-104,155.1-104
		c116.9-31.1,201.8,24,201.8,24c17.3,4.5,101.3,91.1,101.3,91.1c92.5,89.3,188.9,74.7,188.9,74.7c114.7-0.5,216-101.8,216-101.8
		c66.2-58.2,101.3-75.5,101.3-75.5c81.8-30.7,181.8,23.1,181.8,23.1c95.6,73.3,128,161.8,128,161.8c22.2,77.8,1.8,103.6,1.8,103.6
		c-36.4,40.4-98.2,50.2-98.2,50.2l-324-2.7c-0.5-0.5-1-1-1.4-1.5l-1.1-13.4c-1.6-1.2-3.3-2.3-5-3.3c-1.5-0.6,9.5-2.4,9.5-2.4v-9.8
		l4.4,5.3l15.7-1.2l0.6,8.6l47.1,0.3l25.2,1.5c0,0,31.7-3.3,33.5-3.5s29.6-2.7,29.6-2.7l26.1,7.4l9.8-7.1l27,3l29.3,9.2l5.9-27.9
		l12.1-15.7l8-12.7l-3.9-17.6l-5.3-23.1l-29.6,0.6l-41.2-0.3l-80,3l-24,1.2c0,0-28.7,1.2-30.5,1.2s-70.8-7.4-70.8-7.4l0.9-24.3
		l-32.9,2.4l-0.3,21.9c0,0-9.5,1.5-10.7,1.5s-47.1,3.9-47.1,3.9l-20.4,0.3l-17.5-2.1l-26.7-2.1l-17.5-3.3l-23.7-1.2l-39.7,0.9
		l-23.4,4.1l-39.1,3l-68.7,4.4H696.7l-5-5l-11.6-2.4L657,434l-22.8-0.3l-25.8,0.3l-23.1,1.8l-7.7,7.7l-15.4,1.2l-21.9,0.9
		c-19-3-19.6,13-19.6,13l-1.2,8.3l3,8.3l17.8,27.9l33.7,13.4l26.4,6.2l25.5,0.3l62.8-0.3l169.4-0.6l-0.2,16.8l-417.8-1.3
		C345,543.2,305,462.8,305,462.8C259.7,377,329,296.1,329,296.1z M711.2,167.7l527.1-0.5l-1.8,6.7L1134.8,261
		c0,0-104,78.7-180.5,69.3c0,0-60.9,1.3-122.2-56l-107.5-92L711.2,167.7z M1700.6,536.3L1700.6,536.3
		c-1.2,73.8-39.8,146.5-39.8,146.5c-52.4,90.4-129.6,113.1-129.6,113.1l-20.4-12l-40.9-85.6c54.4-2.7,75.4-11.3,75.4-11.3
		c33.8-8.6,46.2-43.5,46.2-43.5l8-24.3c12.2-29,35.3-124.2,35.3-124.2c6.8-7.1,9.5-23.4,9.5-23.4c9.8-44.2-16.9-99.9-16.9-99.9
		c-30.2-67.6-93.4-130.4-93.4-130.4l-14.5-18.7l-1.2-3.8c103.4,52.4,151.1,150.2,151.1,150.2
		C1709.7,442.3,1700.6,536.3,1700.6,536.3z M1451.2,665c0,0-17.3-39.6-49.1-75.3c0,0,42.7,1.5,84-4.7c0,0,55.6-6.7,97.3-36.2
		l-24.9,76c0,0-2.4,27.5-48.9,33.1C1509.7,657.9,1466.1,658.8,1451.2,665z M858.3,501l0,2l-0.7-7l12.4-1.5l0.6,6.6L858.3,501z
		 M892.6,474.3l0.9-5.3l2.4-3.6l14.8-2.4v7.1L892.6,474.3z M913.3,458.7l1.5-2.7l24.3-7.4l28.2-4.5l19.8,0.3l18.7,3.5l17.2,4.5
		l14.2,3l15.4-1.8l0.9,10.4c0,0-20.4,5-22.8,5.3c-2.4,0.3-16,2.7-16,2.7s-15.4-3.3-16.3-3.3s-33.5,0.6-33.5,0.6s-30.2-1.8-31.7-1.5
		c-1.5,0.3-17.5-4.1-17.5-4.1L913.3,458.7z M1072.8,502.1l-4-5.6l3.6-2.7l9.8,0.6l21.6,1.2l-0.6-8l27-0.3l0.9,11l-3.3,5.6
		c-9.5-2.4-15.2-1.6-15.2-1.6L1072.8,502.1z M1205.4,588.3l27.3,28.2l-116.2,0.9l-14.7-28.7L1205.4,588.3z M1267.7,468.9l2.1-10.4
		l3-3.9l5-1.5l1.5,4.1l-2.4,8.9l-4.2,5L1267.7,468.9z M640.7,463.7l-5.9,1.1l-17.8,6.8l-3-2.4l-1.5-6.5l2.4-1.2c0,0,11-4.7,12.1-5
		s11.9,0,11.9,0L640.7,463.7z M616.7,762c0,0-80.6,49.5-97.5,53.6c0,0-74.4-0.3-146.1-47.7c0,0-119.3-73.6-145.5-188.7
		c0,0-28.5-91.5,23.1-212.9c0,0,14.7-18.7,19.5-20.4v7.2c0,0-8.9,32.4-5.1,65.8c0,0-2.2,73.1,91.6,132.4c0,0,12.9,9.6,61.8,18.5
		c0,0,81.5,16.8,143.6,17c0,0,29.9-0.6,50.1,30.2c0,0,19.3,24,23.1,43.6l1.8,21C637.2,681.4,602.8,718.2,616.7,762z M676,647.7
		l-5.3,0.9c-6-30.8-32.7-61.3-32.7-61.3l181.6,1.5l-47.4,31.1C702,620.7,676,647.7,676,647.7z M1319,779.7c0,0-23.3,54.2-62.4,56.2
		L789,834.8c0,0-33.3-0.7-55.8-23.3c0,0-39.3-30.7-41.9-64.7c0,0,4.2-57.1,85.8-69.1c0,0,123.8,2,168,3.1l207.8,1.5l92,0.5
		c0,0,41.8-3.8,66,37.5C1310.8,720.3,1332.8,755.2,1319,779.7z M1318.3,622.6l71.1,0.4v-6l-135.6-0.2l-22.7-28.2l136.7,0.7
		c0,0,36.2,18.9,65.3,81.3c0,0-24.7,9.1-46.2,26C1387,696.6,1360.3,641.7,1318.3,622.6z M1481.7,792.3l-3.1,6.2l-14,13.1l-51.6,5.1
		l-21.1-9.3c0,0,16.9-40.7,8.4-72.7c0,0,0.7-7.1,8.9-10.5c0,0,20.4-13.8,42.9-21.1c0,0,30,54.5,33.3,80.9L1481.7,792.3z M1670,960.3
		l-74.6,28.4l-26.7-3.5l-4.7-8.9l-20.8-62.8l1.3-20.8c53.7-12,113.8-64.5,113.8-64.5l1-0.3l3.2,25.5l24.6,67.3l0.3,17.8L1670,960.3z
		 M1799.3,854.2c-0.9-0.3-80.6,40.6-80.6,40.6l-31.1-39.4l-3.8-16.9l1.5-13.3l15.5-23.5c25.5-36.1,44.4-70.6,58.3-102.4l94.5,30.5
		C1853.5,729.7,1800.1,854.5,1799.3,854.2z M1879.6,647.1l-21.6,72.3c0,0-5.9,3.6-8.9,4.2c-1.6,0.4-3.4,0.1-4.7-0.9
		c0,0-6.2-3.3-6.8-4.2s-7.7-2.1-7.7-2.1l-3.3-4.5c0,0,0.6-7.7-0.3-8.3s-2.7-2.1-4.2-2.1s-3.3,1.8-4.4,2.4s-6.8,3.6-6.8,3.6l-5.3-1.2
		l-1.8,2.7l-43-13.7c44.6-104.4,35.8-178.3,35.8-178.3c-0.9-163.6-86.2-258.7-86.2-258.7c-109.8-133.3-208.4-143.1-208.4-143.1
		c-54.7-13.8-115.6-14.7-115.6-14.7L642.8,101c8.9-9.3,30.7-12.4,30.7-12.4l740.9,1.3l4.4-1.8l0.7-16.8c56.9-2.4,95.6,5.1,95.6,5.1
		c55.7,16.6,113.5,60.4,113.5,60.4l103.1,123.2c32.9,37.7,78.5,107,78.5,107c40,52.5,63.4,155.6,63.4,155.6
		C1890.2,573.9,1879.6,647.1,1879.6,647.1z"/>
</g>
<g id="Buildings">
	<rect x="954.8" y="492.1" class="st1" width="54.2" height="19.1"/>
	<rect x="1067.4" y="503.2" class="st1" width="57.6" height="16.9"/>
	<rect x="499.1" y="536.6" class="st1" width="33.8" height="4.7"/>
	<rect x="535.8" y="536.6" class="st1" width="29.9" height="6.2"/>
	<rect x="567.8" y="536.8" class="st1" width="29.6" height="5.3"/>
	<rect x="599.5" y="537.2" class="st1" width="29" height="4.4"/>
	<rect x="631.5" y="536.6" class="st1" width="30.5" height="5.3"/>
	<rect x="664.7" y="536.3" class="st1" width="29.6" height="5.9"/>
	<rect x="697.3" y="536.6" class="st1" width="29.9" height="5.6"/>
	<rect x="729.6" y="537.2" class="st1" width="29.6" height="5"/>
	<rect x="762.5" y="537.2" class="st1" width="29.3" height="5.6"/>
	<rect x="794.2" y="537.7" class="st1" width="29.3" height="4.7"/>
	<rect x="825.6" y="537.4" class="st1" width="29.6" height="5.3"/>
	<rect x="858.5" y="538" class="st1" width="29" height="5"/>
	<rect x="889.9" y="537.4" class="st1" width="29.9" height="6.2"/>
	<rect x="922.8" y="538.3" class="st1" width="29.9" height="5.3"/>
	<rect x="987.4" y="538.9" class="st1" width="29.9" height="4.7"/>
	<rect x="1019.7" y="538.3" class="st1" width="29.9" height="6.2"/>
	<rect x="1052.6" y="538" class="st1" width="29" height="6.5"/>
	<rect x="1084.8" y="538.3" class="st1" width="29" height="5.9"/>
	<rect x="1117.2" y="539.5" class="st1" width="30.2" height="4.4"/>
	<rect x="1182.6" y="539.5" class="st1" width="29.9" height="5.6"/>
	<rect x="1215.5" y="538.9" class="st1" width="29.3" height="6.8"/>
	<rect x="1248.4" y="539.5" class="st1" width="29.9" height="5.9"/>
	<rect x="1281.3" y="539.2" class="st1" width="29.3" height="5.6"/>
	<rect x="1313" y="539.8" class="st1" width="29.9" height="5.3"/>
	<rect x="1346.2" y="539.5" class="st1" width="28.7" height="6.2"/>
	<rect x="1378.2" y="538.9" class="st1" width="29.3" height="6.2"/>
	<rect x="1410.8" y="540.1" class="st1" width="29" height="5.3"/>
	<rect x="1442.2" y="540.7" class="st1" width="29.6" height="4.7"/>
	<rect x="1476" y="540.4" class="st1" width="31.1" height="5.3"/>
	<rect x="511.8" y="419.5" class="st1" width="631.7" height="5.9"/>
	<rect x="1173.7" y="421.3" class="st1" width="302.2" height="5.9"/>
	<polygon class="st1" points="1489,85 1430.6,75.5 1428.8,88.8 1487.2,98 	"/>
	<polygon class="st1" points="1772.3,713.4 1751.5,753.7 1722.5,802.9 1757.4,823.7 1789.4,771.5 1807.8,728.3 	"/>
	<polygon class="st1" points="1766.3,813.6 1778.2,820.4 1786.2,808 1773.4,800.8 	"/>
	<polygon class="st1" points="1713,844.1 1698.8,836.4 1693.7,845.6 1707.1,853.6 	"/>
	<polygon class="st1" points="1657.3,868.4 1548.3,910.8 1569.6,964.1 1677.7,922.9 	"/>
	<rect x="1669.2" y="1035.5" class="st1" width="59" height="47.4"/>
	<rect x="1631.5" y="1072.3" class="st1" width="9.5" height="10.7"/>
	<rect x="1396" y="1068.1" class="st1" width="62.2" height="14.8"/>
	<rect x="1222.3" y="1066.6" class="st1" width="72.3" height="16.6"/>
	<polygon class="st1" points="803.7,1063.7 763.7,1063.7 763.7,1074.9 769.9,1074.9 769.9,1083.8 804,1083.8 804,1065.2 
		803.7,1065.2 	"/>
	<rect x="415.2" y="986.9" class="st1" width="16.6" height="26.7"/>
	<polygon class="st1" points="750.3,937.9 468.1,937.9 468.1,981.9 675.2,981.9 675.2,1017.4 712.1,1017.4 712.1,981.9 737,981.9 
		743.2,981.9 743.2,1009.9 780.5,1009.9 780.5,981.9 805,981.9 805,944.1 750.3,944.1 	"/>
	<polygon class="st1" points="830,1019.2 953.9,1019.2 953.9,1037.6 1020.9,1037.6 1020.9,1019.2 1105,1019.2 1105,1034 
		1132.8,1034 1132.8,1019.2 1467.7,1019.2 1467.7,938.6 830,938.6 	"/>
	<polygon class="st1" points="425,958.8 409.9,956.4 407.2,970.9 423.2,973.9 	"/>
	<polygon class="st1" points="346.8,934.5 356.1,941.1 353.3,944.8 361,950.5 363.4,946.2 373.6,953.4 371.4,957.6 378.8,963.2 
		381.3,958.8 393.9,967.7 403.1,953.7 355.1,920.6 	"/>
	<path class="st1" d="M400.7,914l-98.1-69.6l-15.4,20.7L388.6,930l1.1-1.4l3.7,3.2l10.1-13.6c0,0-1.8-1.4-3.7-2.8L400.7,914z"/>
</g>
</svg>
