<?xml version="1.0" encoding="utf-8"?>
<!-- Generator: Adobe Illustrator 24.0.1, SVG Export Plug-In . SVG Version: 6.00 Build 0)  -->
<svg version="1.1" id="Inactive_Configs" xmlns="http://www.w3.org/2000/svg" xmlns:xlink="http://www.w3.org/1999/xlink" x="0px"
	 y="0px" viewBox="0 0 1920 1080" style="enable-background:new 0 0 1920 1080;" xml:space="preserve">
<style type="text/css">
	.st0{fill:#A7A9AC;}
</style>
<title>inactive</title>
<path class="st0" d="M1727.5,361.7c-19.3-45.9-46.5-86.9-80.9-122.1c-31-31.6-67.6-57.9-106-76c-36.6-17.2-74.2-26.9-108.7-27.8
	c-302.7-8.5-650.6-7.7-871.3-3.2c-1.4-0.6-3-0.8-4.7-0.4c-0.7,0.2-1.4,0.3-2.1,0.5c-15.8,0.3-30.9,0.7-45.3,1
	c-50.9,1.3-99.5,13.4-144.3,35.9c-40.9,20.5-77.7,49.1-109.4,85c-58.3,66-94.4,152.6-96.5,231.8c-1.5,56.3,7.2,108.7,26,155.7
	c16.6,41.7,41.1,79.5,72.9,112.1c36.5,37.5,82.9,68.4,134.1,89.3c43.3,17.7,87.9,27.4,125.5,27.5c242.5,0.4,405.8,1.7,537,2.8
	c101.9,0.8,187.7,1.5,278.4,1.5c30.1,0,60.7-0.1,92.7-0.2c48.5-0.3,93.6-9.2,134.1-26.5c36.6-15.7,69.6-38.2,98.1-67.1
	c33.7-34.1,61.1-77.5,79.3-125.4c16-42.2,24.7-87.9,24.4-128.6C1760.1,468.5,1749,412.7,1727.5,361.7z M555.8,147.9
	c100.8-2.3,228.8-3.6,367.3-3.6c104,0,214,0.7,322.6,2.5c0.8,0.5,1.6,0.9,2.6,1.1c141.3,30.6,184.2,41,232.8,76.1
	c98.7,71.3,142.1,168.9,141.2,234.2c-0.9,67.3-106.6,110-151.1,110c-241.8,0-663.6-1.7-923.5-4.4c-79.5-0.8-112.1-9.9-158.7-24.5
	c-50.6-15.9-76.4-48.8-89.2-73.6c-17-32.9-19.3-66.9-15.8-87.8c13.3-79.6,69.4-141.4,117.6-172.7l2.1-1.4
	C438,181.5,449.8,173.8,555.8,147.9z M1646.2,771c-57.9,58.7-132.5,88.7-221.6,89.1c-128.1,0.7-235.2-0.2-370.9-1.2
	c-131.2-1-294.6-2.3-537.1-2.8c-67.4-0.1-174.1-35.3-248.9-112.3c-65.5-67.4-97.4-153.9-94.6-257c3.6-133.5,114.5-319.4,314.3-336.8
	c-51.3,14.6-65,23.5-92,41.1l-2.1,1.4c-50.8,33-110.1,98.4-124.2,182.8c-5,30.1,1.4,66.4,17.3,97.1c14.1,27.3,42.6,63.6,98.1,81
	c48.1,15.1,83.1,24.4,163.1,25.2c259.9,2.8,681.8,4.5,923.6,4.5c27.5,0,68.8-13.4,100.6-32.5c41.8-25.2,65-58,65.5-92.3
	c0.5-38-12.2-81.9-35.6-123.6c-26.2-46.5-64.8-89-111.8-122.9c-41.9-30.3-79-42.8-170.8-63.7c37.9,0.8,75.5,1.7,112.4,2.7
	c69,1.9,145.4,39.1,204.4,99.3c49.5,50.5,108.6,139.7,109.6,277.6C1746,593.1,1720.3,696,1646.2,771z"/>
</svg>
