<?xml version="1.0" encoding="utf-8"?>
<!-- Generator: Adobe Illustrator 25.3.1, SVG Export Plug-In . SVG Version: 6.00 Build 0)  -->
<svg version="1.1" id="Background_Details" xmlns="http://www.w3.org/2000/svg" xmlns:xlink="http://www.w3.org/1999/xlink" x="0px"
	 y="0px" viewBox="0 0 1920 1080" style="enable-background:new 0 0 1920 1080;" xml:space="preserve">
<style type="text/css">
	.st0{fill:#C2C6F7;}
	.st1{fill:#FFFFFF;}
	.st2{fill:#636466;}
	.st3{fill:#C7C8CA;}
</style>
<g id="Water">
	<path class="st0" d="M1047.3,698.1c-0.8-3-2.6-14.9-0.5-18.3c3.9-6,9.4-8,13.7-10.3s35.9-20.8,47.8-23.7c3.4-1,13.7,0.9,13.6-12.9
		s-0.8-24.6-3.8-26.4s-11.9-7.2-15.8-5.5s-19.2,8.6-19.2,8.6s-27.5,14.3-42.5,27.8s-19.5,31.7-16,42.2c3.5,10.4,27.6,64.6,27.6,64.6
		c0.8,0.8,2,1,3,0.5c1.9-0.8,1.7-1.5,2.2-2.6s4.6-10.7,4.6-10.7s0.5-15.6-1.5-17.5S1048.1,701.1,1047.3,698.1z"/>
	<path class="st0" d="M1150.5,738.8c0.2-3.2,0.9-6.3,2.1-9.2l4.5-10.7c1.2-2.8,3.3-5,6-6.3l12.9-6.2c3.9-1.9,7.3-4.7,9.8-8.2l4.3-6
		c1.8-2.5,4.4-4.4,7.4-5.3l2.7-0.9c2.5-0.8,5.1-1.2,7.8-1.2l22.4-0.3c3.2,0,6.3,0.9,9,2.6c1.4,0.9,3.1,0.9,4.5,0.2
		c1.1-0.6,1.7-1.7,1.7-2.9l-0.9-41.9c0-1.7,0.3-3.3,0.9-4.8l0.2-0.4c0.3-0.7,0.1-1.6-0.6-2.1l-0.3-0.2l-23.6-1.6
		c-1.6-0.1-3.1,0.8-3.8,2.2l-2.5,5.2c-1,2.1-2.3,4-3.8,5.8l-6.7,7.7c-2.7,3.1-6.2,5.4-10.1,6.7l-28.7,9.1c-2.9,0.9-5.4,2.5-7.5,4.7
		l-1.3,1.4c-2.5,2.6-5.5,4.7-8.9,5.9l-60.2,22.1c-2.3,0.8-4.3,2.4-5.6,4.5l-3,4.7c-1.7,2.7-2.7,5.7-3.1,8.8l-2.6,26
		c-0.4,4.2-0.3,8.5,0.5,12.7l1.9,10.6c0.6,3.2,2.2,6.1,4.7,8.3l11.3,10.1c3.1,2.8,6.9,4.7,11,5.5l4.3,0.9c2.5,0.5,4.9,1.4,7.2,2.7
		l39.3,23.1c3.3,1.9,7.1,2.5,10.8,1.7l1.9-0.4c3.4-0.8,6.5-2.4,9-4.7l19.2-17.6c1.2-1.1,2.2-2.3,2.9-3.7l1.1-2
		c1.4-2.6,1.5-5.6,0.3-8.3l-3.9-8.5c-0.7-1.4-2.1-2.4-3.7-2.4c-0.9,0-1.8,0.2-2.6,0.7l-7.5,4.4c-1.9,1.1-4.2,1.8-6.4,1.8h-3.6
		c-1.9,0-3.8-0.4-5.6-1.1l-2.2-1c-2.3-1-4.2-2.9-5.3-5.2l-6.9-15.4c-1.1-2.5-1.6-5.3-1.5-8.1L1150.5,738.8z"/>
	<path class="st0" d="M1260.8,710.2c-3.6-4.2-3.4-5.3-3.7-7.6s-2.2-7.7-6.2-8.7s-8-0.7-7.7,3c0,0,6.4,20.9,2.6,30.5
		s-16,20.5-20.7,23.6s-12.5,6.9-13.8,9.5s-1.9,2.6-2.1,4.3s-0.6,3-1.7,3.7s-2,5,0.1,8.1c1.9,2.8,7.6,9.5,15,5.5
		c6.4-2.7,25.4-18,28-20.8s14.5-16.2,14.3-27.4S1264.3,714.4,1260.8,710.2z"/>
</g>
<g id="Bridge">
	<path class="st1" d="M1228.1,205.5c-0.6,0.6-1.5,0.6-2.1,0c-0.3-0.3-0.4-0.7-0.5-1.1l-0.1-9.4l-28.2-27.5l-9.4,0.1
		c-0.8,0-1.5-0.7-1.5-1.5c0,0,0,0,0,0c0-0.8,0.7-1.5,1.5-1.5l10-0.1c0.2,0,0.4,0,0.6,0.1l0,0c0.2,0.1,0.3,0.2,0.4,0.4l28.6,27.9
		c0.1,0.1,0.2,0.2,0.3,0.3c0.4,0.3,0.7,0.7,0.7,1.2l0.1,10C1228.5,204.8,1228.4,205.2,1228.1,205.5z"/>
	<path class="st1" d="M1222.5,130.8c0.6-0.6,1.5-0.6,2.1,0c0.3,0.3,0.4,0.7,0.5,1.1l0.1,9.4l28.2,27.5l9.4-0.1
		c0.8,0,1.5,0.7,1.5,1.5c0,0,0,0,0,0c0,0.8-0.7,1.5-1.5,1.5l-10,0.1c-0.2,0-0.4,0-0.6-0.1l0,0c-0.2-0.1-0.3-0.2-0.4-0.4l-28.6-27.9
		c-0.1-0.1-0.2-0.2-0.3-0.3c-0.4-0.3-0.7-0.7-0.7-1.2l-0.1-10C1222,131.5,1222.2,131.1,1222.5,130.8z"/>
</g>
<g id="Pavement">
	<path class="st2" d="M1228.3,181.5l-7.6-7.6l-66.7-65.9c-0.6-0.6-7.9-7.1-22.4-5.2h-0.1c-19.7,2.2-65.8,10.4-68.6,10.9
		c-2.3,0.5-40.3,9.1-67.2,27l-0.1,0.1c-7.9,5.1-135.6,92.4-136.8,93.2l-0.2,0.2c-0.4,0.2-36.8,23.2-66.2,52.2l-0.3,0.2
		c-7.6,6.8-17.7,11.1-26.5,14.4c-9,3.4-54.1,19.9-54.6,20.1l-0.7,0.2c-0.4,0.1-9.9,2.9-10.2,10.3c0.1,3.6,2.7,9.4,5,14.5
		c3.5,7.8,6.8,15.2,5.8,22.1c-0.7,5.6-6.5,19.3-12,25.2c-0.7,0.8-2.9,3.1-20.8,18.6c-11.7,10.2-24.2,19.3-37.5,27.3
		c-11.4,6.9-27.5,17.9-39.5,31.3l-0.3,0.3c-22.5,22.5-25.9,45.8-25.9,57.7c0,0.6,0,1.3,0,2.1c-0.2,8.8-0.6,29.5,18.7,45
		c18.6,14.6,143.1,109.4,144.3,110.4c1.1,0.8,24.6,19.6,19.2,47.5v0.3c-4.6,19.8-9.2,28.2-10.6,30.5l-99.3,200.8l-0.2,0.3
		c-1.6,2.6-4.3,9-2.2,12.4c0.8,1.4,4.9,5.9,23,5h0.4c23.3,0,298.7,0.6,315.5,0.7l175.7-36.2c18-5.3,34.9-13.6,50.1-24.7l0.1-0.1
		c23.2-16.6,122.8-91.5,125.8-93.8c0.8-0.6,21.8-17.8,16.7-33l-0.1-0.3c-6.3-21.8-26.3-28.3-35-28c-9.4,0.3-17.3,4.1-21.7,10.5
		c-4.7,6.8-29.9,41.9-39.4,51.5c-8.4,8.4-51.5,42-64.8,48.6c-8,4.5-35,17.3-50.4,24.6c-9.8,4.7-20.7,6.4-31.4,5.1
		c-0.6-0.1-1.2-0.2-1.7-0.2c-15-2.5-27.9-12.2-34.5-25.9c-13.9-28.4-44.3-104-46.2-108.6l-29.6-67.5c-4-9.1-6.4-18.8-6.9-28.7
		c-0.8-16.4,2.1-39.5,20.8-56.2c15.2-15.6,60.5-54.2,86.1-75.9c9.2-7.8,19-15,29.2-21.5c12.5-8,31.5-19.4,50.7-28.4
		c4.1-1.9,8.4-3.7,13.2-5.4c32.8-11.8,177.5-63.7,178.9-64.2l0.7-0.2c1-0.3,26.6-7.7,30.2-43.2c0.4-9.7-4.9-34.2-28.4-58.7
		L1228.3,181.5z M840.2,762.2l-3.1-12.4l-5.2,1.1c0,0-88.5,107.9-94.2,115.2s-35.3,26.5-35.3,26.5s103.8-142.6,106.8-147
		c1.7-2.4,1.7-5.6,0-8c0,0-14.4-16.8-17.1-28c-3.2-9,5.4-20.2,5.4-20.2l1.3-2.6c2.9,0.2,5.7,1.2,8,3c5.5,4.6,25,15.6,33.5,71.6
		C840.2,761.6,840.2,761.9,840.2,762.2z M1371.9,413.4l-19.5,10.2l-53.9,21.1c0,0-70.5,23-83,27.3c-49.4,14.6-94.3,41.4-94.3,41.4
		l-52.1,34.8l-35.7,25c0,0-46.2,24.5-54.4,28.8c-12.8,3.9-27,15.6-27,15.6l1,2.4c-3,3.2-9,9.3-12,10.7c-4,1.8-12.5,6.5-12.7,0
		s-3.2-26.6,15.9-48c14.9-14.7,81-64.2,81-64.2s51.4-39.3,56.1-41.1c11-5.8,72.3-25.2,79.8-30.1c7.5-4.8,22.9-8.7,46-50.3
		c13-22.4,8.3-51.6,6.7-63.3s-7.2-45.3-7.5-56.5s-3-47.8,5.7-70.5c2.5-5.1,5.4-10.1,8.6-14.8l-9.2-7.4c-1.7,4.3-13,35.1-11.9,65.5
		c0.5,31.8,0.3,42.7,4.8,65c2.6,17.3,5.2,39.3,3.5,53.3c-1.7,14-10,43.4-37.4,62.3c-7.4,5.2-25.9,15.2-37.7,17.8
		c-11.8,2.6-51.2,18.3-61.6,24.7c-20.9,15.4-67.3,50.7-67.3,50.7s-47.7,34.4-59.5,47.7s-22.8,24-24.9,41.7s-0.7,28.2-9.2,31
		s-14.5,4.5-22.5-1.9s-29.4-20.1-44.3-17.3s-58.1,22-58.1,22l-9.9,5.2l11.7,10.4c0,0,1.4,1.5,7.3-0.6s21.2-8.2,25.3-8.2
		s19-9.3,22.8-8.6s6.8,5.2,6.8,5.2s11.5-3.9,10.2-8.3c-2.2-2.2-4.2-4.6-6-7.2c0,0-3.7-6.2,2-4.1s33.3,17.7,33.3,17.7l4.8,3.8
		c-3.7,0.3-7.3,1.3-10.7,2.9c-11.8,6.6-38.5,37.6-41,44s0.7,22.6,4.5,32c2.9,7.3,3,23.1,2.9,29.9c-2.1-9.7-10.9-48.6-19.7-60
		c-10.1-13-15-19.5-26.3-24.6c0,0-44.3-27.1-47.1-28.9s-9.3-1.5-10.9-1s-7.5,8.6-7.5,8.6l-9.8,0.5L689.7,637c0,0-21.7-12-41.7-24
		c-26.1-15.8-60.5-41.6-64.6-50.9c-1.8-4.7,2.9-9.4,2.9-9.4c-7.3-8.8-10-15.6-6.8-35.3s15-34.4,20.9-41.1
		c15.3-16.5,53.8-33.2,53.8-33.2s9.1-5.9,31.7-18.8s31.5-28.8,34.1-34.7s-0.3-19.4-3.5-30.6c-3.2-11.2-3.5-25.9-3.5-25.9l60-18.5
		c0,0,28.8-19.4,34.1-23.8s65.8-55.3,91.1-66.1c10.6-5.9,73.8-54.1,87.6-62.6c13.8-8.5,40.9-25.9,68.2-33.5
		c60-12.4,86.1-5.6,106.4,2.6c16.8,5.5,50,36.6,58.5,44.7l8.4,7l1.2,1l19.7,38.2c0,0,84,92.2,88.1,97.6
		c16.7,16.5,22.9,29.5,22.9,29.5s17.2,46.1,17.2,51.7S1371.9,413.4,1371.9,413.4z"/>
	<path class="st2" d="M1605.4,700.3c-11.8-1.1-47.3-11.2-50.6-12.1s-23.2-6.4-35.5-6c-35.5,2.6-47.3,18.9-52.7,28.1
		s-5.7,37-6.1,45.2s2.1,12.4-5.8,30.1c-4.6,9.7-13.4,11.8-18.8,10.2c-6.4-2.3-4.7-24.6-4.8-28.3c-1.4-21-0.6-39.9,1.7-52
		c3.3-17.1,14.2-47,15.9-54.4s2.8-38.8,3.4-47.5s1.6-23.5,7.8-50.7c2-9.5-1.3-31.5-2-35.4c-3.1-18.5-2.8-51.2-2.8-51.2
		s-1.7-27.4,1.7-40.1c7.1-16.3,18-19,30.4-23.7c26.3-11.6,74-8.4,78.7-6.8s0.1,8.5-4.4,10.8c-12.4,7.7-39.7,16.2-49.3,20
		c-30.3,17.9-36.1,34.5-35.7,49.3c0.4,14.8,18.3,39.8,21.2,44.9s6,7,9,16.6c0.4,10,1.8,14.8,4,19.3s4.6,7.1,5.4,11.2
		c2,3.7-0.7,5.4-0.7,5.4s-13,5.1-14.3,8.2c1.7,4.4,5.4,4.5,9.2,5.6c6.2,0.8,9,4.3,18.2,5.8c5.4-0.8,13.8-1.3,17.3-3.6
		c2.5-2,3.6-20.7,3.6-27c0-4,0.5-7.9,1.3-11.8l28.7-46.6c0,0-4.1-2.5-6.7-4.2c18.2-10.3,29.2-9.6,29.2-9.6
		c16.5-2.4,33.2-3.7,49.8-3.7c0,0-0.6-1-2.1-3.2c-21.6-1.2-38.1,2.1-45,2.7c-16.7,2-24.9,5.7-28.7,7.9c-4.1,3.1-7.9,3.2-12.3,1.4
		s-8.7,3.2-8.7,3.2s-12.1,14.8-13.6,16.5c-2.1,2.4-3,5.7-2.4,8.9c0.7,3.5-0.1,10.4-2,10.4s-9.4-7.5-12.5-10.8
		c-6.9-12.5-2.8-16.1-1.9-19.2s8.8-10.2,17.7-10.7s22.5-6.4,24.6-7.8s24.6-15.4,34.1-18.5c4-1.4,48-9,48-9l1.2-4
		c0,0-27.2,5.2-41.4,7.3c-14.2,2.1-27.9,11.8-38.6,19.2c-16.1,6.2-22.9,5.9-27.4,4.7c-4.5-8.8-17-9.5-30-5
		c-13,4.5-0.5,15.8,1.4,18.7c1.7,2.3,2.6,5,2.6,7.8c1.9,19.2,14.2,25.8,17.7,28.2s10.2,8,5.7,19.6c-4.5,11.8-12.3,10.4-19.6,6.2
		s-6.4-22.9-9.2-29.6c-1.4-4.3-8-13.7-18.9-30.3c-10.9-16.6-10.2-25.8-9.9-30.5c3.8-22.9,24.4-35,28.9-37.6
		c4.5-2.6,29.1-12.5,39-15.1c7.6-3.1,18.2-11.1,25.1-12.5c6.2-1,21.3,4.7,31.9,6.6c-17-7.6-41.2-28.4-41.2-28.4s-5.6-3.3-16.3-9.1
		c-12.8-4.7-22.4-18.4-25-22.9c-3-16.6-20.1-47.4-21.5-50.4c-1.4-3-10.7-19.1-21.9-21.9s-20.5,4.7-23.6,19
		c-5.7,28.9-1.9,44.1,4.4,57.8s38,17.9,44.9,19s21.7-0.2,25.5,1s19.8,9.3,23.2,11.8c-9.7-2.3-38.6-0.6-56.3,1.7
		c-16.2,0-27.8-10.3-29.7-12.2s-30.2-48.9-31.6-51.1s-28.3-49-38.6-62.9c-8.7-13.9-28.5-59.5-28.5-59.5s-42.2-65-46.8-71.5
		s-8.9-20.3-8.9-20.3s-28-59.7-29.8-62.6c-1.8-2.8-3.2-5.7-0.8-8.4c4.6-2.7,11-2.1,17.7,1.7c10.1,4.4,24.5,20.7,57.2,21.1
		c24.9,0.4,30.4-4.4,32.7-7.2c2.3-2.9,6.5-3,11.4-2.1c32.3,12,43,33.1,47.5,42c9.7,21.7,1,44.9-3.2,57.2
		c-4.2,12.4-11.6,12.9-13.5,18.3c-4.4,18.1,3.8,21.3,12.5,21.9c8.7,0.6,10.3-15.6,8.2-19c-2.1-3.4-3-11.6-2.5-17.5
		c9.5-26.2,7.4-39.5,7.2-44.3c-3.2-38.4-38.2-56.6-45.6-60.3c-7.4-3.6-16.3-3.8-23-5.9c-4.6-1.3-21.5-15-33.7-21.1
		C1327,17.3,1315.2,0,1315.2,0h-6.2c14.4,21.4,48.9,42.6,48.9,42.6s19.6,8.4,19,18.1c-0.6,9.7-25.1,8.4-35.9,6.7
		c-10.8-1.7-28.9-15.2-39.9-21.1c-16.5-9.3-29.1-0.2-29.1-0.2s-38.6,18-46.6,20.2c-8,2.1-13.9-1-20.3-4s-17.9-0.8-18.1,9.3
		c-0.2,10.1,7.2,14.1,15.2,15.6s8.2-8.8,18.2-11.8c5.1-2.9,36.1-16.8,42.8-20c10.3-3.7,14.5,4.3,14.5,4.3s22.1,45.1,25.8,54
		c3.7,8.9-7.1,9.5-8.4,9.5s-11.7-0.4-20.2,0.9c-25,5-36.6,27.4-36.6,27.4s3.8,3.7,6.9,6.9c16.9-20.6,24.7-21.3,28.4-23.2
		c26-7.6,35.4,3.9,40.3,8.5c4.8,4.6,33,49.2,37.9,57.2c4.9,8,21.5,37.7,27.3,53.3c5.8,15.6,20.2,36.1,24.4,41.9
		c4.3,5.7,27.4,49.5,30.1,53.5c2.7,4,14.2,22.5,17.8,38.3c1.3,9.3-2.6,27.4-3.6,30.9c-2.5,5.2-28.8,30-32.3,30.8
		c-4.2,1.4-3.8-4.3-3.8-4.3l0.4-8.3c4.5-2.2,28.9-14.9,33.7-29.3c4.3-14.7-0.2-28.4-0.2-28.4l-32.6-53.1c0,0-5.1-13.4-12.3-18.5
		s-29.8-36.2-34.2-41.6s-15.9-14.5-20.8-17s-34.5-26.5-34.5-26.5l-70.1-56l-8.8-7c0,0-10.9-11.6-12.2-14s-39.7-39.3-39.7-39.3
		L1145.4,72l-10.5-19l-8.1,1.3c0,0-75.9,20.3-82.7,22.7c-4.8,1.8-9.5,4-14,6.5l-48.5,36.1c0,0-118.5,84.3-129.6,91.1
		c-11.1,6.7-69.8,53.5-71.4,54.7c-1.6,1.3-5.4,2.5-8.6,2.5c-6.4,6.1-13.8,11-21.9,14.5l-87,29.4l-32.3,8.9c0,0-8.8,5-13.1,10.9
		s3.3,9.6,3.3,9.6s12.9,0.5,20.9,0.6c24.1,5.1,28.9,19.7,33.5,27.6c4.6,8-1.9,22.7-1.9,22.7l-8,6.9l-28.1,18.4l-2.7,0.9
		c0,0-6.2-14-20.4-15.4s-25.1,10.6-32,16.7c-10.4,7.6-21.9,26-28.9,34c-1.5,3.1-21.6,16.4-25.6,19.7c-3.9,3.2-19.8,8.6-24.4,10.4
		c-4.6,1.9-10.8,7.4-9.3,12.8s1.4,12-0.8,16.1s-16.1,13.4-18.6,17.5c-11.3,23.5,3.5,38.2,3.5,38.2s64.1,50.1,70.3,55
		s7.8,9.6,7.6,14.3s-12.5,14.3-17.5,19.8S526.4,683,526.4,683s-54.7-3.1-65.6-7.1c11.7-17.9,24-19.7,27.6-19.4s7.1,4.1,7.1,4.1
		s17-18.8,23.1-26.1s-2.6-16.2-2.6-16.2s-26.6-29.8-33-36.1c-10.4-6.7-18.1-22.5-20.3-25.5s-4.5-11.9-6.3-13.2
		c-1.7-1.3-15.5,6.5-19.9,8.8s-35.4,9.3-46.6,12.5c-11.2,3.2-25.7,25.9-28.5,29.8s-8.2,8.4-12.3,7.3c-1.7,0-3.5-15.3-3.7-16.8
		s-6.9-1.3-6.9-1.3s-3.7,0.6-1.5-1.7s9.7-5.6,10.8-5.8c1.1-0.2-0.9-2.2-0.9-2.2c-2.2,0.4-4.3,1.1-6.3,2.2
		c-19.5,6.6-37.2,17.7-51.6,32.4c-3,2.8-5.2,1.5-5.2,1.5l-5-6.7l-19.4,13.1l-8.3,8.8l2.1,2.8l22.3-15.2l2.8,6.4l-10.5,8L207.4,692
		c0,0-33.6,33.1-44.7,44c-11.1,10.9-28.8,6.3-28.8,6.3s-60.5,47.8-79.5,65.7c-19,17.9-11.8,48.5-12,55.3c-0.2,6.8-3,6.6-6.4,6.8
		c-8.4,1.4-36-13.4-36-13.4v6.3c3.2,7.5,53,23.6,64.3,30.4c10.7,11.4,43.3,35.2,43.3,35.2s16.1,14.7,17.2,23.8s-4.5,10.7-4.5,10.7
		L0,1027.3v9.7c0,0,97-49.9,131.7-69.8c34.7-19.9,40.5-16.6,56.5-17.2c16-0.6,52.3,16.9,73.4,23c21.2,6.1,45.9,10.9,85.9-5.1
		c31-11.7,49.8-50,49.8-50s8.5-39.7,28.6-44c20.1-4.3,45.5,18.4,55.1,25.4c49.6,40.8,89.1,100,89.1,100s24.6,43.8,26.6,46.2
		s21.9,34.6,21.9,34.6H641c0,0-31.5-33.1-38.5-43c-7.9-9.6-19-30-24.9-41.1l8.8-3.9c0,0,17,30,21.7,35.1c4.7,5.1,23,11.8,49.2,13.2
		c21.2,1.1,33.9-8.2,38-11.7c2.8,1.2,6,2.3,7.4,1.2c2.3-2,5.8-1.8,7.8,0.4c2.1,2.1,2.8,6.2,9.5,6s181.9,0,181.9,0s33.9,0.9,38.3,0.4
		s45.4-18.5,45.4-18.5s2.1,0.5,1.6,2.1s-2.8,2.3-2.8,2.3l-32.7,14.8L794.4,1080h122.5l57.1-45.8c0,0,15.8-12.9,43-12
		c-8.1,4.5-53.9,26.3-70.3,57.9h10.6c0,0,17.3-26.8,54.2-46.6c8.9-5.1,25.2-15,52.6-3c11.3,6.3,38.1,20.2,40,49.6h9
		c0,0,0-30.9-44.2-53.5c-16.6-8.2-21.7-7.6-46.4-7.6c-7.2-2-34.6-6.7-39.9-8.4c-7,1.8-30.2,9.1-30.2,9.1s-2.8-13.4-17.5-13.4
		s-63.3,1.6-63.3,1.6l-0.8-7.8l114.4,0.4l34.7,3.4l4.1,4.8c0,0,84.7-18.6,104.7-23.2c37.9-8.2,63.2-22,63.2-22
		s116.3-50.9,128.3-56.2c24.8-15,42.7-36.9,42.7-36.9s26.5-42.5,32.6-50.9s14.2-31.4,16.6-39.6s-3.6-23.9-3.6-23.9l1.6-42.2l-4,3.1
		c0.1-1,0.1-2.1,0-3.1c1.1-24.8,6.7-46,9.9-59.4s3.4-62.9,3.4-62.9s-5.2-110.4-5.3-114.1c-0.1-3.7-0.2-12.2,1-14.6
		s19.5-22,25.9-23.3c8.4-0.1,7.9,9.9,7.9,9.9s1,15.4,0.6,28.4c-0.4,13,1.6,47.7,4.6,58.4c1.1,6.6,0.7,28.9-2.5,39.6
		c-4,16-5.5,40.5-5.5,51.6c0.1,13-1.4,26-4.3,38.7c-9.8,21.6-16.6,60.6-17.9,68.3s3.6,33.4-2,56.8c-1.2,9.2-11.3,48-11.3,48
		l-22.7,75.5l-28.4,97.5c0,0-39.6-2.1-46.1-2.1c-7.2,2.4-4.5,5.3-10.2,8.6c-14,1-22.1,4.6-27.3,6.5c-3.6,0.1-19.1-2.7-25.8-1.7
		s-14.3-2.8-19.6-4.3s-40.6-4.1-44.9-3.8s-6.1,5.5-7.4,8.9s-4.5,13.1-7.4,15.5c-2.6,1.7-3.5,3.9-3.2,5.9s-23.2,34.5-23.2,34.5h4.8
		c4.6,0,24.4-36.3,27.1-40.1s5.1-10.2,7.3-16.7s12-3.8,16.4-3.6c22.2-0.2,44,8.2,47.1,9.3s5.8,7.8,5.8,7.8l3.6-3.1
		c0,0,10.4,1.8,12,10.2s-10.4,36.1-10.4,36.1h90.5l38.5-134c0,0,34.8-116.8,36.7-122.3s3.3-10.1,7.9-13.4
		c5.3-6.2,15.8-5.9,24.4-14.7s10.6-16.5,11.7-33.2s0.2-35.2,5.5-50.1c8.8-20,42.2-23.3,50.4-24s48.4,9.7,59.8,13s49.5,8.6,49.5,8.6
		l-2.4-7.3C1630.3,702.5,1617.3,701.4,1605.4,700.3z M532.1,701.9c0,0,2.5-7.7,7-7.6s12.3,2,11.2,7.2s-4.9,23.7,4.8,37.6
		c0.7,1,0,5-1.3,6.3s-4.8,7.6-7.4,2.7c-2-5.2-7.7-21.7-10-24.7S531.2,713.2,532.1,701.9z M581,727.8c1,1.5,15.6,14.2,14.4,17
		c1.7,3.9-13.6,0.6-25.1-2.5s-14.7-14.4-14.7-30.4s11.5-26.6,20.9-37s17.4-9.4,17.4-9.4c0.4,6.3-1.7,8-5.9,12
		c-5.5,5-10.9,13.3-14.2,24.4C569.3,717.7,580,726.3,581,727.8z M620.2,794.6L620.2,794.6c-2.1-1.8-10.6-12.2-12-14.2
		c-6.5-7.7-43.9-26.8-45.9-28.3s-3.2-4.7-0.2-6.5c2.6,1.8,16.7,8.5,23.8,7.5s16.7,0.6,22,7.3s20.1,27.8,27.2,28.7
		c5.5-8.1,27.5-45.9,27.5-45.9c0.8-2.9,0.2-6-1.5-8.5c-3-3.8-57-65-57-65l2.1-8.6l69.5,69.5c0,0,8.9,6.7,3.9,15.3
		s-31.3,55.3-35.2,63.4s-50.2,98.4-50.2,98.4s-10,13.2-21.5,13.8s-19.3-1.8-22.2-8.5s-17.5-41.1-18.9-58.3s-3.9-31.1,6.3-65.2
		c3.3-15.2,7.5-30.7,13-32.3s17.9,6.7,17.9,6.7s28.9,15.2,35.6,24s8.7,12,10.4,11.6S622.4,796.3,620.2,794.6z M373.2,600.3
		L373.2,600.3c3.1-2.6,15.2-11.5,16.5-12.1c1.3-0.7,5.5-2.9,2.6,5c0,0-3.2,5.5,1.8,9c7.1,7.1,66.6,39.4,66.6,39.4
		s16.2,0.3,17.8-10.2s-0.3-10-2.1-11.2c-1.8-1.2-29.7-28.1-33.9-34.9s-7.9-14.2-18.4-12.6c-11.2,0.7-28.6,5.2-42.8,11.3
		c4.7-5.7,9-11.5,17.1-13.7s31-5.7,33.4-6.8s7.3-5.3,10.7-0.5s20.5,29.8,23.7,32.9c1.3,2.9,8.1,10.2,10.2,11.6
		c2.1,2.7,15.2,15.3,15.2,15.3s4.9,4.7,1,12c-3.8,7.3-16.5,20.3-24.2,24.7s-13.6,3.2-19.1,0c-8.9-4.8-53.2-39.9-55.9-41.7
		s-19.7-13.4-19.7-13.4S370.1,602.9,373.2,600.3z M334.4,610.2L334.4,610.2c1.3-0.1,2.6,0.1,3.8,0.6c0,0,18.2,2.1,22.6,1.5
		c4.4-0.5,14.8,2.1,20.3,6s42.1,31.4,48.8,35.3s22.9,13.2,25.5,14s-1.3,5.2-3.1,4.7c-10.6-2.9-37.9-24.2-45.5-29.1
		c-7.5-4.9-21.5-16.4-43.1-19.7c-21.6-3.4-23.4-5-27.3-8C334,614,329.9,609.8,334.4,610.2z M528.3,933.6
		c-20.8-25.3-55.2-49.9-55.2-49.9s-31.3-25.3-53.3-20c-22,5.3-27.8,31.3-32.1,45.7c-4.3,14.4-15,35.6-61.7,55.8
		c-32.9,13-65.8-4.3-65.8-4.3s-50.6-18.3-73.5-20.8c-26.7-4.3-41.8,7.2-46.3,10.1c-6-7.2-49.4-43.4-49.4-43.4s-33.6-30.5-37.2-38.2
		c-9.1-23.7-2.3-40.8-0.4-45.7c5.5-11.9,15.2-21.3,27.1-26.6l56.6-46.9l20-0.3l47.6-42.2c0,0,62.6-70.7,71-78.2s22.8-13.5,22.8-13.5
		c7-1.7,2,9.6,2,9.6s-17.7,81.2-21.4,99.4s-36.6,55.2-42.6,60.5c-6,5.3-6.8,5.8-7,8.6c-0.2,2.8,8.8,15.4,13.3,18.8
		c6.8-3.3,41.6-59.5,45.4-69.3c9.1-24.2,10.9-37,12.5-43.5s13.5-63.8,11.8-67.7s0.9-4.5,2.4-4.4c1.5,0.1,7.1,1.7,7.8,3.5
		c0.6,2.6,1.6,5,2.9,7.2c1.4,2,14.4,11.6,17.2,14s7.8,14.2,8.2,15.4s0.3,8.3,2.9,10.9s4.3-1.3,5.7-2.9c10.6-2.5,11.7-8.6,13-12.5
		s-2.7-2.7-2.7-2.7c-1.9,1.6-4.2,2.5-6.7,2.5c-4.2,0.1-11.1-11-14.3-14.9c-3.2-3.9-10.2-6.5-10.7-6.6c-2.8-1.3-5.4-2.9-7.8-4.9
		c-5.5-4.9-4.2-7.7-3.3-8.4c15.1-4.5,48.2,3.5,56.5,8.7C392,642,445,675.9,451,678s2.2,8,0.9,11.5c4.8-0.7,10.1,4.5,10.1,4.5
		l3.6-0.4c0.1-0.8,0.4-1.5,0.8-2.2c0.7-1.3,10-1.4,10-1.4l2.9-4.2c0,0,16.2,1.8,31.6,3.4s13,9.8,13,9.8s-0.8,21.7,7.5,32.2
		s6.1,22.5,5.6,28.4s-8.6,34.2-10.6,51.7c-6.4,61.7,8.1,86.7,15,101.2s2.8,17.8-0.3,22.5S531.4,937.5,528.3,933.6z M608.8,962.2
		l0.9-3.7l-4.3-2.2l-19.5-3c0,0-3.7,5.4-8.7,14.5c-7.2,9.3-17.8,3-17.8,3s-7.6-8.4-12.6-13.8s-1.7-11.8-1.7-11.8s4.3-8.8,8.1-13.6
		s11.5-3.4,11.5-3.4s18.6,2.2,28.3,3.6s15.6-8.5,15.6-8.5s83.8-175.6,86.8-182.8s-2.4-13.8-2.4-13.8L682,715l-74.1-74l-7.8,13.3
		c-1.4-0.5-3-0.7-4.5-0.5c-17.7,7.3-31.3,22.9-37.3,33.1c-4.9,7.5-12.6,5.1-15.1,4.2s-8.4-3-7.8-10s3.5-11,9.8-19.9
		s12.3-10.5,17.1-21.8s-13.7-22.8-13.7-22.8s-60.8-47.2-68.3-55.3c-7.5-8.1-5.6-17.4-3.6-24s12.9-13.4,20-20.6
		c7.1-7.2,3.5-10.5,2.8-18.9s6.9-11.6,10.7-13.1c3.8-1.5,17.9-6.9,28.8-12.5s23.3-20.9,30-29s23-28.5,34.7-33.6s16.1,0.8,16.1,0.8
		l-3.3,1.5l5.9,3l1.3-0.6l3.9,6.5l-13.3,2.1l-2.6,1.7c0,0-106.8,88.4-120.8,103c-15.9,17-4.7,33.2-4.7,33.2s53.3,35.1,65.6,43.4
		s65.9,33,65.9,33s88.1,74.1,97.7,82.9s5.2,21.4,5.2,21.4L614,961.7L608.8,962.2z M1405.1,499.5c-10.3-1.4-41.7,1.4-47.4,5.7
		c0.3,7.4,1.3,86.7,0,105.7c-1.2,17-9.2,56.9-9.9,78.8c-0.4,12.6,2.9,31.8,4.3,39.4l-1.7,0.4l-11.4-0.9c0,0-18.8,3.4-29.8,5.6
		c-20.6,3.6-30.7,14.3-30.7,14.3l-35.7,43.1l-40.8,47.6c0,0-50.5,34.5-62.3,41.9c-7.3,5.2-16.3,7.4-25.1,6
		c-22.2-7.4-28.3-28.7-28.3-28.7s-62.8-149.2-69.1-165.3s-1.8-32.3-0.9-36.6c5.8-23.8,20.5-34.2,20.5-34.2s95.1-80.9,108.2-87.5
		c56.4-30.8,81.3-35.6,81.3-35.6l134.1-44.7c30.1-11.1,40.7-16.8,44.2-19.2l-0.4,20.1c0,0-17.2,1.2-27.8,2.9
		c-10.7,1.7-12.3,9.2-12.3,12.6s-2.1,3.4-2.1,3.4s-13.1,0.6-16,2.9c-2.6,1.8-5.3,3.5-8.1,4.9l-33.4,6.6l-7.8,1.8
		c-7.8,1.8-43.4,10-51.9,12.3c-7.1,3.4-18.4,4-22.5,4.4c-16.4,1.3-24,5.8-24,5.8s-51.4,25.3-54.9,27.6c-18.3,10.9-6,23.6-6,23.6
		s21.5,25.8,25.5,31.7c6.1,11.3,3.6,14.8,3.6,14.8l-10.2,29.9c-0.7,2-2.1,3.6-4,4.6c-12.7,6.3-62.1,31-71.7,36.5
		c-11,6.2-11.3,11.5-11.7,14.3c-1.7,3.6-2.3,31.3-3.1,41.8s-7.4,11.2-8.7,12.2c-1.3,0.8-2.8,1.3-4.3,1.4c-1.4,0.3-1.2,2.2,0.7,6.5
		c3-2,8.3-1.6,10.7-1.6c0.3,43.2,40.4,82.5,43.5,86.1s2,6.1,2,6.1c-8.9,5.3-9.7,10.6-7.7,18.5s13.6,6.5,20.1,5.3s37.4-13,58.3-24.8
		c18.9-9.5,43.9-36.4,52-48s23.4-28,39-44.7s38.6-28.3,41.5-29.1s15.6-2.8,22.6-20.9s14.4-76.8,15.3-90.5c3.2-29.7-1.2-107.3-1-110
		c0.2-2.7-3.9-2.8-6.3-3.9s-1.8-1.8-0.8-9.5c1-7.7,8.9-9.7,13.6-10.6c7.1,0.4,29.5-5.1,39.2-7.5c9.7-2.4,9.4,3.5,10.2,6.7
		C1406.6,482.9,1405.5,493.9,1405.1,499.5z M1327,506c0,0,3.6,97.1,4,101.7c-3.8,53.8-17,90.6-18.5,93.7s-4,9.4-4.2,14.7
		s-5.3,9.8-7,11s-8.6,3.5-11.7-0.5s-9.6-10.8-13.5-12.2s-7.3-6.6-9.3-8.9s-5.2-13-6.5-17.7s-0.9-16.4-0.9-16.4l10-0.2
		c0,0,0.6-16.9,0.7-20.3c-0.4-3.2-15.4,0.5-15.4,0.5s-0.3,17.6-0.9,27.5s-12.4,10.2-12.4,10.2s-28.2,0-33.6,0.6s-6.4,5.7-6.9,7.3
		c-1.8-0.1-3.6,0.2-5.2,1c1.9,10.8,6.5,11.4,6.5,11.4s4.2-8.2,5.6-10.2s4.3-1.1,4.3-1.1l11.6,5c0,0,3.8-6,5.5-7.1s19-6.3,23.6-7.7
		s7.1,8.7,8.8,12.3s3.2,7.7,6.8,11.5s6,3.2,15.1,11.8c4,3.1,4.8,8.8,1.9,12.9c0,0-45.1,40.3-54.3,47.8c-7,6.1-38.3,29.1-44.1,35.1
		s-16.3,13.1-22.8,14.5c-6.1,1.9-29.6,15-37.6,14.3c-3.9-0.2-6-3.9-6-3.9s-3.1,0.3-6.8,0.3c-13.3-12.4-27.6-34.9-35.9-48.7
		s-10.6-35.2-10.2-42s3.6-43.2,4.2-46.8s5.1-5.6,5.1-5.6s-1-2.2,1.9-6.6s12.4-8.5,12.4-8.5s63.1-30.8,74.2-35.6s16.7-8.3,22.5-13.5
		s3.1-11.9,0.7-15.3s1-7.8,1-7.8s4.8-5.1,6.8-7.3s1-3.4,1-3.4s-9.7-8.7-14.1-11.6s-6.3,1.2-6.3,1.2l-4.8,6l-25.4-28.6
		c0,0-7.2-9.5-8.5-13.5c0-8.3,3.8-9.7,10.4-15.1s27.2-14.1,36.8-18.2s27.7-11.4,27.7-11.4l24.3-0.5l35.4-9.7
		c3.7-1,28.9-7.7,30.8-7.3c1.9,0.3,2.9,6.6,2.9,6.6h12.1c-2.1-11,4.3-11.7,6.1-12.5c1.8-0.8,9.2-1.8,11,6.7s-9,6.2-9,6.2L1327,506z
		 M1373.9,439.3c-6.9,2.5-146.5,52.6-178.6,64.1c-4.4,1.6-8.3,3.2-11.9,4.9c-18.4,8.7-36.8,19.8-49,27.5
		c-9.6,6.2-18.8,12.9-27.6,20.3c-20.6,17.4-70.2,59.6-85.3,75.1l-0.4,0.4c-14.4,12.7-16.6,31.1-16,44.3c0.4,8.1,2.4,16,5.7,23.4
		l29.7,67.8c0.3,0.8,32,79.6,45.8,107.7c4.5,9.4,13.2,16,23.4,17.7l1.3,0.2c7.9,1,16-0.4,23.1-3.8c12.4-5.8,42-19.8,49.5-24.1
		l0.5-0.2c10.5-5.1,52.9-37.8,61-45.8c7.9-7.8,31.1-39.8,37.7-49.4c7.1-10.3,19.3-16.5,33.6-17c14.8-0.5,41.3,9.6,49.9,38.6
		c8.5,25.8-20.6,48.5-21.9,49.5c-1.1,0.8-102.6,77.1-126.2,94.1c-16.7,12.3-35.5,21.5-55.4,27.2l-0.3,0.1l-177.4,36.6h-0.8
		c-2.9,0-290.9-0.7-316-0.7c-19.1,0.9-31.1-3.2-36.5-12.5c-6.7-11.5,0.6-24.8,2.3-27.6l99.4-201.2l0.2-0.3c0.4-0.7,4.4-7.6,8.7-25.8
		c3.5-18.9-13.5-32.6-13.7-32.7c-1.2-0.9-125.7-95.8-144.5-110.5c-25.1-20.1-24.6-46.9-24.3-57c0-0.7,0-1.3,0-1.8
		c0-14.2,3.9-41.9,30.1-68.2c13.3-14.7,30.6-26.6,42.8-33.9c12.5-7.5,24.4-16.2,35.4-25.8c15-13.1,18.8-16.7,19.8-17.7
		c3.4-3.5,7.7-14.1,8-16.7v-0.2c0.4-2.6-2.5-9.1-4.7-13.8c-3-6.8-6.2-13.8-6.3-20.5v-0.3c0.2-14.9,13.1-22.4,21-24.6
		c4-1.5,45.6-16.7,54.2-20c7.5-2.8,15.9-6.4,21.7-11.5c30-29.5,65.7-52.2,68.5-54c6.7-4.6,128.6-87.9,137-93.4
		c30-20,70.8-28.8,72.5-29.2h0.2c2-0.4,48.9-8.7,69.7-11.1c21.7-2.8,33.5,8,35,9.5l65.1,64.4l8.1,8l144.3,142.8
		c23.8,24.8,33.6,53.1,32.7,70.1v0.3C1410.6,427.3,1378.2,438.1,1373.9,439.3z"/>
</g>
<g id="Buildings">
	<polygon class="st3" points="1121,997 1127.8,1021.5 1163.8,1010.9 1156.6,986.6 	"/>
	<polygon class="st3" points="1157.1,1018.8 1167.6,1025.2 1159,1041.1 1147.6,1034.8 	"/>
	<rect x="1308" y="1027.1" class="st3" width="13" height="8.5"/>
	<rect x="1317.2" y="1002.9" class="st3" width="20.8" height="7.6"/>
	<rect x="1266.8" y="941.8" class="st3" width="14" height="7.4"/>
	<rect x="461.8" y="696.4" class="st3" width="7.9" height="13.8"/>
	<rect x="452.2" y="648.9" class="st3" width="8.1" height="11.1"/>
	<circle class="st3" cx="187.9" cy="752.6" r="9"/>
	<circle class="st3" cx="194.7" cy="736.9" r="6.8"/>
	<polygon class="st3" points="750.2,1006.9 785.9,1005.6 785.5,1018.2 749.9,1019.6 	"/>
	<polygon class="st3" points="789.6,1017.5 789.7,1005.7 906.6,1010.9 905.7,1024.4 	"/>
	<polygon class="st3" points="938.3,1016.7 943.8,1014.8 947.9,1018.7 947.1,1024.6 941.6,1026.1 937.7,1022.2 	"/>
	<polygon class="st3" points="950.2,1010.7 952.5,1019.5 969.1,1015.3 966.4,1006.4 	"/>
	<polygon class="st3" points="684.5,939.8 684.5,952.5 803.3,954.5 803.3,941 	"/>
	<polygon class="st3" points="811.8,943.3 835.2,943.6 834.8,953.5 811.2,953.2 	"/>
	<polygon class="st3" points="986.1,939.8 987,949.9 999.8,948.4 998.9,938.8 	"/>
	<rect x="951.7" y="945.6" class="st3" width="19.9" height="9.6"/>
	<rect x="913.9" y="928" class="st3" width="12.3" height="5.8"/>
	<rect x="932.7" y="928" class="st3" width="12" height="6.3"/>
	<rect x="919" y="871.8" class="st3" width="14.8" height="6.5"/>
	<path class="st3" d="M943.5,845.5c0,0,1.4,12.8,1.8,12.8s56.5-7.7,56.5-7.7l-1.6-13l-12.8,1.5l-0.3-3.9l-13.5,1.5l0.4,4.4
		L943.5,845.5z"/>
	<polygon class="st3" points="938,831.5 945.9,830.8 946.9,840.1 939.3,840.9 	"/>
	<polygon class="st3" points="1010.5,846.3 1022.3,844.6 1023.9,860.1 1011.8,861.7 	"/>
	<polygon class="st3" points="882.9,660.7 892.5,653.4 900.8,664.2 891,671.8 	"/>
	<polygon class="st3" points="959.9,602.1 1006.9,575.8 1020.8,567 1079.5,526.1 1070.5,513 1011.5,554.3 1009.2,550.2 997.1,557.8 
		1001.5,566.7 955.2,593.6 	"/>
	<polygon class="st3" points="961.3,569 988.7,552.2 990.3,555.2 963.2,572.2 	"/>
	
		<rect x="732.7" y="442.9" transform="matrix(0.1433 -0.9897 0.9897 0.1433 188.5979 1114.7552)" class="st3" width="11.1" height="11.1"/>
	
		<rect x="741.9" y="419.3" transform="matrix(0.4114 -0.9115 0.9115 0.4114 54.8662 931.0866)" class="st3" width="12.8" height="7.5"/>
	
		<rect x="774.4" y="349" transform="matrix(0.4114 -0.9115 0.9115 0.4114 138.1299 919.3046)" class="st3" width="12.8" height="7.5"/>
</g>
</svg>
