<svg id="Inactive_Configs" data-name="Inactive Configs" xmlns="http://www.w3.org/2000/svg" viewBox="0 0 1920 1080"><defs><style>.cls-1{fill:#a7a9ac;}</style></defs><path class="cls-1" d="M948.74,651.87c-133.5,0-222.73-12.45-272.79-38.08-44.12-22.59-50.2-52.29-50.2-81s6.08-58.43,50.2-81c50.06-25.62,139.29-38.08,272.79-38.08s222.73,12.46,272.78,38.08c44.12,22.59,50.2,52.29,50.2,81s-6.08,58.42-50.2,81C1171.47,639.42,1082.24,651.87,948.74,651.87Zm0-228.19c-131.88,0-219.62,12.1-268.23,37-37.27,19.09-44.76,41.74-44.76,72.12s7.49,53,44.76,72.11c48.61,24.89,136.35,37,268.23,37s219.61-12.09,268.23-37c37.27-19.08,44.75-41.74,44.75-72.11s-7.48-53-44.75-72.12C1168.35,435.78,1080.62,423.68,948.74,423.68Z"/></svg>