<svg id="Background" xmlns="http://www.w3.org/2000/svg" viewBox="0 0 1920 1080"><defs><style>.cls-1{fill:#636466;}.cls-2{fill:#c7c8ca;}</style></defs><g id="Pavement"><path class="cls-1" d="M1355.24,140.93c-1.61-2.58-9-9.52-9-9.52s-2.62-6-7.45-17.63-7.73-12.48-7.73-12.48-17.4,10.63-19.66,13.21-.32,14.18-.32,14.18l-32.22,29,16.43,18.69s-5.48,4.51-7.73,8.06-1.61,4.51-4.83,7.09-1.94,4.51-5.48,7.08-5.48-1.61-5.48-1.61l-6.44,6.12-2.26,4.52s-7.09,6.76-12.24,11.59-10.64,0-15.15,0a6,6,0,0,0-5.8,3.55,14,14,0,0,0,3.55,1.29c3,0,5.8-.65,8,0s.33,3.86-1,7.41-4.84,12.24-7.41,13.85a2.58,2.58,0,0,1-3.87-1l-4.51,3.22,2.25,2.58-7.73,7.08-24.16-25.45L1139,285l1.61,2.26-129.2,125.34,3.7,3.7-9.5,9V429l-5.48,2.25-8,3.55-10.63,10s-59.29,64.12-65.41,66.37-8.06,1.29-13.86-1-7.73-5.8-13.21-8.37-8.7.32-12.24,3.86a37.63,37.63,0,0,0-6.12,9l9.28,1.57s11.34,2.61,12,2.61,7.09,1.61,8.38,1.94,3.87,2.25,6.44,5.15S918,523.71,922.52,524s2.58,2.25,2.58,3.22,3.54,1.93,3.87,1.61,2.57-.64,5.47-1,3.23-2.58,4.52-4.52,5.15-1.28,8.37-2.57,6.45-4.51,8.7-5.16,4.83,1.93,9.56,2.58,6.12-2,6.12-2l2.69,2,8.37-9.67,3.23,4.51,7.09-6.12,2.7,2.48c-1.77,1.81-3.72,3.72-5.81,5.64-10.08,9.28-45.13,33.12-55.43,34.92-5.89,1-27.4,4.07-57.08,0-24-3.3-58.46-15.38-82.74-25.6q-8.31-3.5-16.11-6.72c-14.87-6.18-30.24-12.56-52.15-22.33-23.33-10.4-33.7-24.62-41.27-35-1.91-2.61-3.55-4.87-5.2-6.79a72.17,72.17,0,0,1-6.4-9.35,1.61,1.61,0,1,0-2.76,1.66,75.35,75.35,0,0,0,6.72,9.8c1.56,1.81,3.17,4,5,6.58,7.34,10.07,18.44,25.29,42.56,36,22,9.78,37.34,16.18,52.22,22.36q7.8,3.24,16.1,6.72c24.46,10.3,59.26,22.48,83.55,25.82a223.25,223.25,0,0,0,30.36,2.13,163.89,163.89,0,0,0,27.72-2.14c11.57-2,47.65-27.06,57-35.72,2.16-2,4.18-4,6-5.83l2.65,2.43,12.24-11.12s10.63-12.08,17.4-17.23c7.78-4.14,11.71-1.67,14.55.07l-.53.73s41.24,38.67,42.85,41.24,27.06,24.49,29.32,30-6.44,10.63-6.44,10.63l3.22,3.22c3.86-4.18,14.82-10.63,14.82-10.63s-23.2-20.3-32.22-31.57-5.16-20.63-5.16-20.63l23.2,22.24,34.16-8.38-2.58-50.26L1127.6,452s12.57-17.4,11.28-18.69-2.58-3.22-.64-3.22,6.76,1.61,14.17-2.13,0,2.45,0,2.45l13.21,15.14,6.77-7.09-11-13.53,10.31-26.42,21.91,21.59s8-11.28,13.21-19,1.61-11-1.94-13.86-4.19-3.22-4.51-8.7-5.8-10.95-6.76-11.92-1.94-6.44,1.93-7.41,19,0,30-9,6.13-23.52,5.48-30,.65-11.6,3.22-12.57,6.45-6.44,7.09-7.73-5.47-5.48-5.47-5.48a117.4,117.4,0,0,1-9.67,7.73c-3.87,2.58-5.48,1.61-5.48,1.61l-12.89,9.67,8.7-8.38,27.71-45.43-8.7-8.38a80.85,80.85,0,0,1,8.49-19.6c5.9-9.62,5.69-1.34,1.82,6.39s-.64,7.09,1,8.7,4.51-1.29,12.57-8.37,17.39-17.08,17.39-17.08l-9.32-9.7s10.29.68,12.87,7.44-5.48,16.44-5.48,16.44,17.4-15.47,15.47-15.47-11.6-7.09-11.92-10.95,3.22-6.45,8-4.19,5.16,13.53,5.16,13.53l9.66-9.67s-4.51-2.25-5.48-3.22-7.73-5.48-7.08-6.82a5.06,5.06,0,0,0,0-3.17c0-.32,2.9-1.76,2.9-1.76a42.73,42.73,0,0,1,0-6.61c.32-1.62,2.25-1.94,3.22-4.52s4.51-2.89,4.51-2.89l8.38,9.66,31.87-28.95s-17.37-15.84-15.12-18.73a5.76,5.76,0,0,1,5.8-1.94s2.58-2.9,5.8,1,15.47,18.36,15.47,18.36l1.79-1.49c.07-.16.41-.85,1.91-4C1357.17,149.66,1356.85,143.51,1355.24,140.93ZM1015.64,445l-10.11-10.24a48.19,48.19,0,0,1,4-3.87c1-.64,5.15-2.58,10-5.8.69-.46,1.64-1.06,2.75-1.75l.47.46,7.46,6.34C1025.4,435,1019.11,441.46,1015.64,445Zm22.23,31.32a5.16,5.16,0,1,1,5.16-5.15A5.15,5.15,0,0,1,1037.87,476.34Zm-2.33-15.11,5.94-.78-.06.43s.95,1.29,2.23,2.75ZM1059.3,463c-.18,2.11-4.56,8.9-8.52,14.65-1.12-3.14-1-7.53-.73-10.45,1.57-1.2,2.29-4,3.93-5.65C1055.91,459.59,1059.62,459.11,1059.3,463Z"/><path class="cls-1" d="M1283.23,131.1c-4.51,6.77-60.58,59.93-60.58,59.93,9.67,1,10-2.58,20.07-9s23.75-15.51,23.75-15.51l34.8-34.15v-3.22c0-15.79,11.53-18,11.53-18l-2.37-3.41S1287.74,124.34,1283.23,131.1Z"/><path class="cls-1" d="M781.72,381.62c2.9,5.79,6.77,7.08,8.7,8.69s28,17.73,30.29,19.34c11.27,2.57,15,0,15,0l1.39-8.06S814.58,400,810.4,387.74C801.05,362,821.67,352,826.18,349.39c38.67-14.49,59.29-13.85,59.29-13.85,44.46-8.38,53.81,26.42,53.81,26.42,2.9,10.63,1.93,14.18,1.93,14.18l10.63,2.58c5.8-16.76,4.19-34.16,2.58-39.31-1-3.34-4.37-10.58-6.6-15.28l30.6,30.77,38.51-37.08,3.86,5.15,5.8,5.8c5.8,5.8-1.61,17.08-3.22,20.3s-10.31,15.79-10.31,15.79l4.8,3.63L978.42,414s4.84.64,11-6.45,51.87-53.81,51.87-53.81l158.53-153-5.16-4.19s6.12-9,8.7-12.57,7.41-12.56,12.25-21.58,11.6-14.5,22.79-22.88,15.56-2.29,15.56-2.29l3.31-2.71s-4.61-3.7-10.09-4-16.76,9-16.76,9l-14.81,8.7-1.93.32c1.16-4.34,8-6,18.81-14a25.11,25.11,0,0,1,24.78-2.9l4.25-8.69a51.84,51.84,0,0,0-10.71-4.62c-7.16-2.36-8,4.13-8,4.13l-2.51.51v-6.15s-26.74,3.87-27.38,4.19.64,3.55.64,3.55l-5.8,2.25,3.14,22.22-3,.51-1.87-5.81-4.19,1.93s-2.9-15.14-2.9-16.11c0,0-15.63,11.44-21.12,20s-26.73,18.84-43.8,24-40,20.95-40.6,21.59-44.46,47.69-44.46,47.69l-11.28-2.58-37.38,6.12-8.7,10.63L880.31,301.06l-4.83,4.19-9.67,3.23-73.46,38.34s-7.41,1.29-10,2.57-11,5.16-10,14.5S778.82,375.82,781.72,381.62ZM956,302c3.55-4.83,25.13-21.59,25.13-21.59l3.78-.33-.88,1.94-36.72,34.67A164.6,164.6,0,0,1,956,302Z"/><path class="cls-1" d="M873.39,406.26a139.29,139.29,0,0,1-2.74,33.61L889.82,424l4.9-10.79-5.87-2.74,1-23.84-51.36-.1v3.32h13C861.14,389.83,872.42,389.19,873.39,406.26Z"/><path class="cls-1" d="M870.65,492.9a32.47,32.47,0,0,1,16.75-2.06,91.4,91.4,0,0,1,17.35,4.1c6-4.26,5.37-1,11.17-5.55s40-36.73,40-36.73l-4.51-8.05-30.93,21.26-1.29-2.25s-2.26,4.18-10.31,3.86c-11.6-.32-11.92-27.06-12.24-31.9s-4.39-2.57-8.16,0-17,13.66-22.94,28.26c0,0,5.8,3.8,5.8,3.16s7.41-15.79,7.41-15.79l3.23,1s-10,20.14-11.28,30.69S870.65,492.9,870.65,492.9Z"/><path class="cls-1" d="M1115.68,165.58c5.8-1.61,24.49-8.38,31.26-9.67a38.4,38.4,0,0,0,14.46-5.64c3.9-2.41,4.22-3.7,4.22-3.7l-2.89-1.94s14.17-15.78,18.36-19S1194.3,116,1194.3,116l-1.48-2.18s-19.62,3.31-27.68,6.53-11.92,5.07-12.73,4.47,0-2,0-2-8.86,2.72-10.47,14.32-1.61,13.21-10,16.76-21.42,7.25-21.42,7.25C1111.17,164,1109.88,167.19,1115.68,165.58Z"/><path class="cls-1" d="M1271.68,102.46c4.23,6.8,7.68,6.41,7.36,27.68l24.17-21.59c0-1.94-4.19-5.16-10-8.7S1278.4,82.77,1266.8,76c0,0,2.57,9.66-11.1,15.52C1255.7,91.53,1267.44,95.66,1271.68,102.46Z"/><path class="cls-1" d="M867.91,211c3.54-2.9,23.52-9.67,36.41-10.63s97.3-22.41,97.3-22.41V171.7L990,163s-59.28,11.6-71.52,11.92-20,7.09-25.14,8.7-11.6,11.92-23.52,22.56S864.37,213.91,867.91,211Z"/><path class="cls-1" d="M722.92,423.34c-4.19-8.7-11.24-20.18-5.46-36.83s23.82-34.05,26.72-36.63,16.44-18.05,16.44-18.05l-1.94-1.93c-3.86,3.87-5.37,5-9.61,6.53s-3.92,3.78-9.72,7-11.92,8.7-17.72,11.6S710,358.9,705.2,371.47s-8.7,17.07-5.8,36.73C702.62,417.86,722.92,423.34,722.92,423.34Z"/><path class="cls-1" d="M827.31,483.91l16.76-60.57-14.27-.87c-3.64-.23-24.4,3.13-29.4,4s-27.86-.25-46.55-8.3l-9.71,8.3,23.73,10.87s39,15.14,46.39,23.52,4.35,18.52,4.35,18.52Z"/><path class="cls-1" d="M814.1,683c-2.25-1-9.66-12.57-14.18-22.88l-14.17,31.9c2.9-.32,4.83-1.61,12.24-5.48S814.1,683,814.1,683Z"/><path class="cls-1" d="M886.6,709.46c-3.55-2.58-8.38-6.77-8.38-6.77l-5.48,5.8c15.79,16.75,5.8,32.54,3.55,35.44s-15.79,12.34-26.42,16.64-34.16,16.55-34.16,16.55l3.22,8.38c37.7-16.11,58.32-21.27,66.06-32.06s9.21-15.75,10.24-22.78S890.14,712,886.6,709.46Z"/><path class="cls-1" d="M836.66,726.41c9.66-1.81,21.58-9.54,23.84-9.54-7.09-9.67-29-24.81-40-26.1s-11.93,2.25-16.76,4.51-7.89,7.27-18,5.81-12-5.81-12-5.81C785.75,729.76,827,728.23,836.66,726.41Z"/><path class="cls-1" d="M760,702.69c-.35-7.73,1.95-23.2,1.95-39A64.92,64.92,0,0,0,754,679.17c-2.79,8.37-8.16,25.78-7.83,36.41s8.7,30,7.83,47.54c-1.16,23.65-16.44,33-16.44,33l4.74,4.19s1.61-1.61,14.18-11.6,11.92-24.49,13.53-33.83-1.61-16.11-3.87-30S760.29,710.42,760,702.69Z"/><path class="cls-1" d="M670.4,853.48l-2.58-2.9s-43.5,38-46.4,40.92-9,8.06-10,15.14-1.94,14.18-8.87,23.2c0,0,17.24,35.45,50.11,20.95L664,929.84s-15.46,8.06-18.89,8.85-20.41,1.79-26.21-11.42,0-21.27,2.25-25.78S670.4,853.48,670.4,853.48Z"/></g><g id="Buildings"><polygon class="cls-2" points="1277.56 159.6 1279.06 161.22 1286.34 169.1 1289.84 165.87 1282.57 157.99 1284.11 156.57 1281.1 153.31 1276.06 157.97 1277 158.99 1277.56 159.6"/><polygon class="cls-2" points="1341.52 158.35 1341.54 158.32 1322.89 138.11 1319.38 141.35 1336.18 159.55 1308.02 185.55 1290.99 167.11 1287.48 170.35 1304.51 188.79 1308.14 192.72 1343.29 160.27 1341.52 158.35"/><polygon class="cls-2" points="1310.73 131.98 1318.23 140.11 1321.74 136.87 1314.24 128.75 1314.26 128.73 1311.25 125.48 1283.77 150.86 1286.77 154.11 1310.73 131.98"/><rect class="cls-2" x="1296.18" y="194.28" width="7.61" height="11.22" transform="translate(150.9 839.83) rotate(-37.86)"/><rect class="cls-2" x="1284.39" y="206.35" width="6.28" height="10.71" transform="translate(227.41 972.43) rotate(-45)"/><polygon class="cls-2" points="1290.19 179.16 1273.94 161.56 1221.79 209.7 1233.29 222.16 1271.48 186.9 1276.23 192.04 1280.04 188.52 1281.02 189.58 1291.16 180.21 1290.19 179.16"/><path class="cls-2" d="M1145.65,290.59l-6.93-6.92L1010.48,411.9l11,11,11.76-11.76,5.8,5.8-42.21,42.21-8.54-8.54,6.93-6.93L985.51,434,913,506.47l-1.13-1.13s-6.12,2.9-10.95-1l.8-.8s-10.63-11.28-23.52-3.55c0,0-8.7,3.87-9.16,15.14H881a6.43,6.43,0,0,1,3.66-5.79s4.84-2.58,9,3.07l2.33-2.1s10.07,8.29,20.28,1.58l5.34,5.34,65.56-65.57,8.54,8.54L968.6,487.3l3.06,3.06,1.13-1.13,6.41,6.41a9.83,9.83,0,0,0,8.12,8.12l2.38,2.39,3-3a9.82,9.82,0,0,0,5.2-5.21l17.54-17.53,4.19-4.19-5.48-5.48-11.44-11.43L1042.06,420l18.85,18.85,86.19-86.19-27.71-27.71L1146,298.33,1173.68,326,1228.76,271,1197,239.22ZM1006.46,471.35l-6.77,6.77,3.54,3.54-6.49,6.49a9.83,9.83,0,0,0-14.12-1.65L979.07,483l19.49-19.5Z"/><rect class="cls-2" x="947.78" y="397.63" width="11.84" height="11.62" transform="translate(-5.94 792.53) rotate(-45)"/><rect class="cls-2" x="1015.76" y="327.07" width="11.84" height="11.62" transform="translate(63.86 819.94) rotate(-45)"/><polygon class="cls-2" points="1136.31 230.7 1037.3 326.16 1046.21 335.4 1145.22 239.94 1143.93 238.6 1147.01 235.64 1148.14 236.81 1173.06 212.78 1164.28 203.69 1139.36 227.71 1140.5 228.89 1137.42 231.85 1136.31 230.7"/><rect class="cls-2" x="1161.15" y="188.57" width="7.34" height="12.83" transform="translate(190.96 863.14) rotate(-43.96)"/><rect class="cls-2" x="1179.64" y="179.26" width="8.99" height="5.19" transform="translate(205.49 872.87) rotate(-43.96)"/><rect class="cls-2" x="1187.15" y="157.64" width="13.94" height="8.47" transform="translate(222.15 874.2) rotate(-43.96)"/><rect class="cls-2" x="1191.46" y="170.73" width="7.62" height="2.91" transform="translate(448.52 1121.23) rotate(-60)"/><rect class="cls-2" x="998.14" y="210.81" width="66.74" height="11.68" transform="translate(-16.17 332.02) rotate(-18.15)"/><polygon class="cls-2" points="855.31 579.28 847.29 576.07 832.14 617.95 839.55 620.53 855.31 579.28"/><polygon class="cls-2" points="837.94 631.48 839.55 620.85 831.82 619.88 830.21 634.38 834.72 635.03 837.94 631.48"/><polygon class="cls-2" points="839.88 650.82 836.33 636.32 830.21 638.46 834.4 652.43 839.88 650.82"/><path class="cls-2" d="M836.66,654.68l9.34,11,3.87-3.87-10-10.56A34.31,34.31,0,0,0,836.66,654.68Z"/><polygon class="cls-2" points="846.97 666.6 894.65 699.15 898.52 694.96 850.51 662.41 846.97 666.6"/><polygon class="cls-2" points="910.12 704.3 898.84 695.28 895.23 699.15 906.57 708.49 910.12 704.3"/><polygon class="cls-2" points="907.22 709.13 913.34 721.06 918.5 718.48 911.73 705.91 907.22 709.13"/><polygon class="cls-2" points="912.05 735.23 917.53 735.55 918.5 721.38 913.66 721.38 912.05 735.23"/><polygon class="cls-2" points="905.28 747.48 910.12 750.38 916.24 737.81 912.05 735.55 905.28 747.48"/><polygon class="cls-2" points="895.94 758.75 900.13 762.94 909.47 751.34 905.28 748.08 895.94 758.75"/><polygon class="cls-2" points="884.99 767.78 887.89 772.61 899.49 763.59 895.94 759.3 884.99 767.78"/><polygon class="cls-2" points="804.43 803.22 806.05 806.44 817.32 803.54 886.6 773.25 884.34 768.42 804.43 803.22"/><polygon class="cls-2" points="788.33 805.87 789.29 808.05 788.33 809.02 790.58 813.53 803.79 808.05 799.28 799.35 788.33 805.87"/><polygon class="cls-2" points="714.54 882.48 718.41 886.02 789.94 813.85 785.42 808.05 714.54 882.48"/><polygon class="cls-2" points="699.08 899.88 703.59 903.75 712.93 893.11 708.1 888.6 699.08 899.88"/><polygon class="cls-2" points="658.8 961.74 663.31 964.64 702.94 904.07 698.75 900.85 658.8 961.74"/><path class="cls-2" d="M588.72,874.91l42.53-29.32-4.83-6.77a95.91,95.91,0,0,1-7.73,7.41c-3.23,2.58-22.56,16.11-40.28,29-3.87,3.54-14.18,12.89-15,44.95,0,2.25-.81,57.51,57.49,83.81L623,998.8s-21.1-10.15-28.51-18.85c0,0-20.3-20.62-23.2-43.82,0,0-5.15-26.1,1.61-41.25C573.9,892.63,574.87,885.22,588.72,874.91Z"/><polygon class="cls-2" points="677.81 814.5 688.44 807.08 680.39 796.13 630.77 831.89 636.57 840.27 676.52 812.56 677.81 814.5"/><polygon class="cls-2" points="715.18 720.73 704.55 720.09 701.01 763.91 711.64 764.55 715.18 720.73"/><polygon class="cls-2" points="721.95 643.73 711 643.08 705.52 708.81 715.83 709.46 721.95 643.73"/><polygon class="cls-2" points="742.89 620.85 739.35 616.99 728.39 626.65 731.62 630.52 742.89 620.85"/><polygon class="cls-2" points="759.33 595.4 755.46 592.5 740 616.66 743.54 618.92 759.33 595.4"/><polygon class="cls-2" points="774.79 551.9 770.28 550.61 756.11 591.85 760.29 593.46 774.79 551.9"/></g></svg>