<svg id="Background_Details" data-name="Background Details" xmlns="http://www.w3.org/2000/svg" viewBox="0 0 1920 1080"><defs><style>.cls-1{fill:#636466;}.cls-2{fill:#c7c8ca;}</style></defs><title>background</title><g id="Pavement"><path class="cls-1" d="M1697,292.44s135.22,112.82,129.35,303.89c0,10.57-1.93,93.66-45.17,184.58-17.13,36-65.54,127.44-184.91,192.09-26.94,14.59-69,15.51-113.08,20-69.09,7-115.45,8.75-186,8.75H520.65s-125.41,2.78-214.21-53.36c-9.66-6-207.26-119.73-200.66-374.29,0-117.85,82-291.32,247-353.55C373.54,211.12,624.11,112.7,938.33,113,1180.77,113.24,1569,161,1697,292.44Z"/></g><g id="Building"><rect class="cls-2" x="594.5" y="1032.42" width="767.43" height="47.72"/></g></svg>