<?xml version="1.0" encoding="UTF-8"?>
<svg id="EXAMPLE_-_Active" data-name="EXAMPLE - Active" xmlns="http://www.w3.org/2000/svg" viewBox="0 0 1920 1080">
  <path d="M558.37354,842.85254c-3.42383,0-6.85205-.13477-10.2749-.40723-22.31543-1.77051-43.9292-9.30957-62.50488-21.80273l-202.07764-138.85254-150.15625-97.24219c-10.11084-6.54785-16.99854-16.65527-19.396-28.45996-2.39697-11.80469.00391-23.79834,6.76074-33.77051,13.20605-19.49365,39.98242-24.87158,59.69238-11.9873l188.17969,123.00879c27.04248,17.67676,58.35352,28.43457,90.54834,31.10938l17.77051,1.47852c13.37207,1.11035,26.9541,1.67383,40.36816,1.67383h178.31348c41.96533,0,83.46045-14.00684,116.84131-39.43945l76.03857-57.93359c55.02344-41.92188,77.04541-114.0957,54.79785-179.59424l-.98877-2.91211c-9.24609-27.22119-4.07275-56.74023,13.83936-78.96289,17.78662-22.06738,45.22607-33.33008,73.42334-30.11328l103.39551,11.78027c39.52148,4.50293,78.16113,14.5835,114.84668,29.96289l1.55469.65186c36.53223,15.31689,79.2041,6.28174,106.17969-22.48047l19.76074-21.0708c21.64844-23.08057,54.99219-31.40283,84.94727-21.20117l186.0293,63.35059c14.66602,4.99463,24.51953,18.75977,24.51953,34.25244,0,13.79492-4.75781,27.31445-13.39844,38.06836l-77.80176,96.8418c-20.72168,25.79346-48.4375,44.41357-80.15039,53.84668-31.71387,9.43457-65.09961,8.98926-96.55176-1.28418l-199.11426-65.04443c-24.74121-8.08203-51.11816-5.99023-74.27441,5.89014-23.15625,11.87939-40.24121,32.08496-48.10742,56.89355-12.35645,38.96973-2.07422,81.13574,26.83301,110.04395,25.44824,25.44727,59.27734,39.45898,95.26074,39.45898h.14648l166.8418-.17383c33.63184-.03613,67.38086-3.52734,100.30957-10.37793l279.90332-58.23633c9.0166-1.87793,18.28906.38184,25.43652,6.19434s11.24609,14.43066,11.24609,23.64258v93.03418c0,15.10547-8.4248,28.62109-21.9873,35.27246-13.56152,6.64844-29.40527,5.03711-41.34961-4.21191l-24.33496-18.84473c-18.3125-14.18164-41.15234-22.14062-64.31055-22.41211l-42.64453-.50195c-20.83691-.24707-41.62305,4.69922-60.11328,14.29785l-10.51953,5.45996c-31.34082,16.26953-68.52637,19.19629-102.02441,8.02832l-3.42383-1.1416c-42.125-14.04199-88.31445-6.33594-123.59766,20.60742l-28.41797,24.99902c-4.03125,3.54688-8.3584,6.83594-12.86035,9.77734-6.69629,4.37305-13.88184,8.04297-21.35742,10.90723-1.63867.62793-3.32617,1.22949-5.01465,1.78809-7.59961,2.50781-15.4873,4.20996-23.44336,5.05859-1.76074.18848-3.56152.33691-5.35156.44238-.8916.05273-1.78809.09473-2.68555.12695-.90332.03027-1.80273.05176-2.70215.06152h-.11523l-5.28906-.06934-14.0459-.5166c-28.63965-1.05176-56.58203-7.16016-83.0498-18.15527l-105.60156-43.86523c-27.94189-11.60645-57.4502-17.49512-87.70508-17.50195l-34.99658-.00879h-.08936c-61.87793,0-123.65234,14.96484-178.66846,43.2832l-68.40137,35.20508c-17.19775,7.96387-35.98584,12.07812-54.88672,12.07812ZM156.77344,513.30469c-10.75586,0-21.34766,5.1416-27.77051,14.62158-5.23584,7.72852-7.09668,17.02295-5.23877,26.17236,1.85791,9.14844,7.1958,16.98047,15.03125,22.05469l150.32715,97.35547,202.09277,138.86426c34.66162,23.30957,79.78809,26.90625,117.74805,9.37109l68.12158-35.06543c56.42188-29.04297,119.78564-44.39258,183.24512-44.39258h.09131l34.99658.00879c31.57764.00684,62.37598,6.15332,91.53906,18.26758l105.60156,43.86523c25.36328,10.53516,52.1377,16.3877,79.58105,17.39648l13.99121.51367,5.04395.06543c.80176-.00879,1.60254-.02832,2.40234-.05566.81152-.02832,1.62793-.06641,2.44434-.11523,1.63379-.0957,3.27441-.23145,4.87793-.40332,7.25391-.77344,14.44336-2.3252,21.37012-4.61133,1.53906-.50879,3.07812-1.05664,4.57129-1.62988,6.81543-2.61133,13.36523-5.95605,19.46777-9.94238,4.10449-2.68066,8.04883-5.67871,11.72363-8.91211l28.80957-25.32812c37.9375-29.04492,87.64648-37.36426,132.97461-22.25684l3.42383,1.1416c30.94629,10.31348,65.30078,7.6123,94.25391-7.41699l10.51953-5.45996c19.94336-10.35449,42.3623-15.67383,64.83789-15.42285l42.64453.50195c25.32129.29785,50.29297,9,70.31641,24.50586l24.33496,18.84473c9.03711,6.99805,20.55762,8.17188,30.82324,3.13965,10.26367-5.03418,16.39062-14.86328,16.39062-26.29395v-93.03418c0-6.18945-2.75391-11.97949-7.55566-15.88477-4.80273-3.90527-11.0332-5.42285-17.08984-4.16113l-279.90332,58.23633c-33.59473,6.98828-68.02539,10.55078-102.33691,10.58691l-166.8418.17383h-.15723c-38.65625,0-74.99219-15.0498-102.33008-42.38867-31.55957-31.55859-42.78516-77.59277-29.2959-120.13623,8.67871-27.37061,27.52832-49.6626,53.07617-62.76904,25.5498-13.10596,54.65137-15.41357,81.94434-6.49854l199.11426,65.04443c59.78516,19.5293,126.41309-.29199,165.80078-49.31934l77.80176-96.8418c7.21875-8.98486,11.19434-20.28027,11.19434-31.80566,0-11.21143-7.13086-21.17236-17.74316-24.78662l-186.02832-63.35059c-26.24805-8.9375-55.46191-1.64648-74.43066,18.57617l-19.75977,21.0708c-14.71777,15.69238-33.61816,26.34766-54.6582,30.81348-21.05957,4.47021-42.73438,2.41162-62.68262-5.95117l-1.55566-.65186c-35.81055-15.01318-73.53125-24.85449-112.1123-29.25l-103.39551-11.78027c-24.7627-2.81836-48.87988,7.06738-64.50488,26.45312-15.75049,19.54102-20.29492,45.51172-12.15625,69.47168l.98877,2.91162c23.63037,69.57275.23975,146.23535-58.20605,190.76562l-76.03857,57.93359c-35.1123,26.75098-78.75977,41.48438-122.90186,41.48438h-178.31348c-13.68945,0-27.5498-.5752-41.19629-1.70898l-17.771-1.47754c-33.84521-2.8125-66.76172-14.12109-95.19141-32.7041l-188.17969-123.00977c-5.5835-3.6499-11.90625-5.39551-18.17188-5.39551Z" style="fill: #fff;"/>
</svg>