<?xml version="1.0" encoding="UTF-8"?>
<svg id="Inactive_Configs" data-name="Inactive Configs" xmlns="http://www.w3.org/2000/svg" viewBox="0 0 1920 1080">
  <path d="M1623.34998,416.06061c.05005-.12006.09949-.23895.14929-.35822.41785-1.00287.828-1.98938,1.22144-2.94019,30.79785-74.42871,33.13672-141.5957,32.71387-167.01855-.16113-9.66113-6.40918-18.24756-15.54785-21.36572l-22.64062-7.72461c-4.77954-1.63062-8.83228-4.58594-11.81897-8.35956-3.41333-4.31262-5.43445-9.69403-5.55701-15.38794-.01538-.71161-.00098-1.4281.04395-2.14801l2.55371-40.8999c1.08887-17.42822-11.66016-32.5293-29.02344-34.37939l-8.97656-.95654-773.4101-1.18018c-2.97491-2.21326-6.72003-3.39215-10.68805-3.13086l-41.63281,2.77246c-2.70264.18005-5.47351.24591-8.17041.26605l-19.29572-.02936-111.90546-.17078-240.25439-2.79639c-.12231-.00775-.32483-.01807-.56281-.02844-2.25604-.09875-9.599-.19647-20.10693,1.83807-.12994.02515-.25244.04541-.3833.07123-.48517.0957-.99103.20642-1.4892.3114-.36993.07794-.72931.14807-1.1062.23138-.3537.07819-.72369.1698-1.08331.25275-.53949.12451-1.07245.24347-1.62506.37921-.24774.06091-.50708.13257-.75739.19574-.68042.17175-1.36005.34265-2.05908.53223-.14911.04041-.30518.0882-.45514.12952-.81073.22327-1.62677.45172-2.46082.70013-.30646.09125-.62439.19623-.9339.29102-.68951.21118-1.37665.41931-2.08081.6485-.06403.02087-.13074.04523-.19489.06622-.95721.31329-1.92499.63995-2.90759.98804-.18011.06378-.36652.13702-.54742.20203-.87256.31348-1.74884.63226-2.63983.97455-.12042.04626-.24481.09924-.36554.14606-.95758.37115-1.92157.75275-2.8988,1.15863-.29352.12195-.59467.25891-.88995.38403-.81165.34406-1.62286.68695-2.44678,1.05597-.33899.15186-.68567.32098-1.02667.47711-.78931.36151-1.57715.71936-2.37653,1.10455-.36157.17419-.73035.36713-1.09393.54633-.78729.388-1.57288.77148-2.36896,1.18329-1.10431.57123-2.21796,1.16949-3.33771,1.78809-.05981.03302-.11841.06238-.17828.09558-2.21533,1.22815-4.46106,2.56006-6.72644,3.98456-.14996.0943-.29791.17975-.44806.2749-4.83655,3.06616-9.77014,6.59717-14.73724,10.66284-.823.67358-1.6261,1.37018-2.41925,2.07806-.28674.25549-.56818.51666-.85114.77637-.48279.44403-.96039.89355-1.43201,1.34967-.35638.34369-.71228.6875-1.0625,1.03778-.0614.06165-.12543.12048-.18665.18231-.24158.24396-.47455.49683-.71313.74384-1.23138,1.27051-2.43732,2.56738-3.59222,3.91425-1.7287,2.01611-3.36499,4.11963-4.92908,6.28308-11.27344,15.59363-18.38092,34.63513-22.84155,51.80579-.34723,1.33643-.67468,2.65753-.9906,3.96863-.19995.70947-.64514,2.34375-1.21094,4.73431-.01263.05328-.02448.10168-.03717.15576-.11145.47308-.22858.9837-.34808,1.51324-.08923.39532-.18024.80469-.27307,1.23022-.06061.27753-.1217.56201-.18353.85211-2.61401,12.26324-6.26581,35.58777-2.93945,59.54645.02942.21216.06372.42468.0943.6369.18799,1.30597.3927,2.61322.62384,3.92065.09778.55286.20398,1.10559.30981,1.65833.03961.20673.0752.41357.11591.62024.0755.38324.15881.76587.23828,1.14886.07819.37671.15234.75366.23444,1.13007.03864.17694.08197.35333.12146.53021.1297.58112.25977,1.16223.39905,1.74237.07397.30817.15546.61536.23218.92316.11169.44806.22034.89655.33801,1.34363.12762.48499.26477.96832.39948,1.45203.07483.26849.14471.53796.22174.80609.21344.74298.43579,1.48438.66663,2.22375.0025.00812.00476.0163.00732.02441.8999,2.87964,1.93768,5.72797,3.12036,8.5285.04559.10803.08771.21722.13373.32501,2.02124,4.73395,4.4787,9.32117,7.42548,13.67804.66913.98932,1.3551,1.97064,2.07642,2.93469,29.86328,39.9126,74.6377,61.75146,133.0791,64.91016,3.5174.19012,6.97083.36127,10.36346.5174.32965.0152.65918.02924.98914.04419,3.19135.14441,6.32202.2746,9.38849.39154.2699.01031.53833.02356.80823.03369.02423.00049.04828-.00092.07251-.00055,41.56177,1.55731,70.90839.71179,72.85864.65192l195.08453,3.09393,21.79272.34564c.00189,0,.00366.00037.00555.00037l92.22021,1.4624c21.84229.34619,43.35645,4.22705,63.94531,11.53516l90.13312,31.99323c10.16034,3.60748,17.94379,11.96423,20.82245,22.35492l10.63965,38.41455c.03644.13147.08649.25604.12567.38617.11194.37152.22479.74261.35876,1.1026.06787.18219.15045.35583.22382.53491.12408.30328.24518.60815.38452.90228.08301.17493.17853.34137.26672.513.14807.28845.29449.57776.45691.85645.09375.16058.19781.31335.2962.47058.17407.27869.34802.55707.53613.82489.10175.14465.21167.28217.31732.42352.20099.26917.40326.53662.61804.79364.1073.12823.22076.25.33136.37512.22748.25757.45746.5119.69843.75586.11267.11395.22992.22229.34546.33319.25153.2417.50635.47876.77081.70563.11823.10132.23962.19788.36029.29614.27319.22266.55023.43933.83551.64594.12402.08972.25018.17566.37634.26233.29156.20038.58722.39343.88995.5769.1311.07941.26349.15588.39655.23206.30579.17511.6156.34161.93121.49915.14062.07019.28192.13831.42438.20496.31384.14679.63159.284.95392.41302.15356.06158.30719.12183.46259.17932.31714.11719.63794.22382.96204.32349.16785.05176.33527.10327.50482.15021.31567.08728.63458.16284.95575.23322.18439.04053.36804.08191.55408.11676.30975.0578.62238.10291.93634.14465.20239.0271.40387.05627.60779.07654.30072.02972.60388.04541.90765.06012.22028.0108.43945.0249.66107.02765.07123.00085.1413.00891.21265.00891.40137,0,.80566-.01318,1.20996-.04004l7.25-.4834c3.32324-.22162,6.41895-1.61792,8.79291-3.85211,2.19977.38196,4.17828,1.74133,5.29651,3.84131l4.03656,7.6153c7.50781,14.16309,22.12402,23.30469,38.14453,23.85742l130.97266,4.51758c18.01953.62109,34.53711,10.08691,44.18359,25.31934l23.06348,36.41504c5.6001,8.84253,13.02881,16.20795,21.79736,21.67725,2.92273,1.82312,5.99438,3.43555,9.19678,4.82178l55.32031,23.94434c7.66113,3.31641,12.62207,10.85254,12.63867,19.19922l.18848,92.17285v.00037l.41211,201.52502c.02148,10.10254,6.52539,18.88086,16.18359,21.84375l8.40527,2.57812c2.38281.73145,4.83398,1.08691,7.27344,1.08691,6.12891,0,12.17285-2.24902,16.81445-6.4541l75.43555-68.3457c5.23438-4.74121,7.70117-11.7373,6.59961-18.71289s-5.60449-12.87109-12.04492-15.76953l-43.10352-19.39648c-2.46973-1.11133-4.35547-3.11816-5.3125-5.65039-.95605-2.53223-.86719-5.28516.25098-7.75,26.55225-58.54388,159.43994-351.91602,196.90759-441.77533ZM791.32715,124.48096l.61444,2.72021c-4.09174-2.21362-8.31354-4.17621-12.64471-5.88037l10.56311.01611c.68964.90356,1.20093,1.9646,1.46716,3.14404ZM802.14111,143.97266c4.24365,3.53809,14.58984,12.36035,18.99316,17.85303,8.53406,10.64502,15.1983,22.26953,20.01135,34.44348.74048,1.87292,1.43713,3.75879,2.09003,5.65619,1.30585,3.79474,2.43671,7.63525,3.39307,11.50891,10.75952,43.5791-.55865,91.3634-33.18048,125.51544l-.00079.00085c-29.63904,31.02869-71.22711,48.4342-114.15106,47.75403l-1.16272-.01843c-3.93341-.06537-7.24915-3.05878-7.71326-6.96594l-1.19238-10.02148c-.58789-4.94482-3.66992-9.07129-8.24512-11.03857-1.77783-.76465-3.63721-1.14111-5.48096-1.14111-2.90039,0-5.76172.93213-8.20312,2.75098l-.27539.20508-18.20703,19.18604c-3.70947,3.9082-8.96387,6.09277-14.31445,6.01562l-169.64209-2.69043c-2.60986-.0415-5.03979-1.00757-6.93976-2.60425-1.89996-1.5968-3.26996-3.82422-3.75995-6.38794l-28.03369-146.70117c-.08978-.46985-.20148-.93085-.33173-1.38324-.0434-.1507-.10059-.29456-.14832-.44318-.09546-.29749-.18878-.59601-.30109-.88489-.0683-.17572-.15063-.34326-.22498-.51562-.10889-.25232-.21387-.50671-.33533-.75159-.09003-.1817-.19305-.3548-.28986-.53217-.12268-.22479-.24152-.45184-.37463-.66956-.06616-.10828-.138-.21198-.20667-.31842-6.02466-12.57288-19.31036-20.41547-33.84503-19.00916l-20.07129,1.93994c-11.2334,1.08594-21.28564,8.06201-26.2334,18.20703l-.96729,1.98438c-3.96582,8.13184-4.13037,17.53564-.45117,25.80127.25623.57556.53284,1.13837.82159,1.69312-22.92578-6.07892-65.5025-5.51831-89.83136-4.5741-.01929.00079-.03809-.0014-.05737-.00073-.87158.02808-1.72943-.08228-2.54401-.32422-.0097-.00287-.01886-.0072-.0285-.01013-1.37488-.41602-2.6283-1.19995-3.6167-2.29126-1.59467-1.76111-2.32257-4.12347-1.99677-6.48206.50397-3.64185,1.15381-7.73193,1.97797-12.11774.04327-.23047.0827-.45404.12701-.68616.05981-.31348.12598-.63684.18762-.95319.59796-3.0686,1.28387-6.27075,2.0675-9.56604.07129-.26361.11572-.42126.12396-.44971l.04541-.1709c.81885-3.37958,1.76727-6.94653,2.86285-10.62366,5.20758-17.47839,13.74554-37.44159,27.50018-51.62103.1698-.17432.336-.35254.50739-.52509.35803-.36194.72406-.7146,1.08911-1.06854.41089-.39697.82477-.79041,1.24451-1.17712.27527-.25433.55023-.50903.82935-.75873.73322-.65448,1.47424-1.29962,2.23419-1.92163,1.94464-1.59167,3.88342-3.07483,5.8158-4.4967,33.20825-24.43408,63.91626-24.51288,68.38361-24.37543.34155.0105.5426.02203.56671.02399l.12402.00928,240.53271,2.79932,13.21143.02014,122.26221.18652c22.71503.03625,44.36957,7.06464,62.38904,19.84375.92596,1.01782,1.9054,1.98877,2.96594,2.87292ZM427.41064,368.86621l-10.62891-74.25293c-1.76953-12.36328-10.66992-22.57715-22.67432-26.021l-28.42548-8.15631c12.97168-5.64227,22.94434-19.72565,28.71063-29.76996,2.6748-4.6582,7.45898-7.61133,12.79736-7.89941l3.15918-.16992c2.63501-.1463,5.07819,1.09485,6.56781,3.11517.85187,1.86676,1.49811,3.86377,1.90265,5.96924l27.48267,143.815c.57196,2.99268,1.8526,5.70868,3.62909,8.01141-7.63751-.0462-16.46057-.16986-26.21729-.42474,3.07721-4.0423,4.42285-9.14514,3.69659-14.21655ZM391.03833,221.92255c-1.36926,1.41113-2.57605,3.00531-3.58374,4.76007-5.03204,8.76562-13.65631,21.17798-24.29761,26.07806-2.62579,1.20911-5.37689,1.94525-8.22467,2.0719-2.211-2.04791-4.01855-4.53888-5.27802-7.36823-2.71484-6.09961-2.59375-13.04004.3335-19.04199l.96729-1.98438c3.73633-7.66113,11.32812-12.92969,19.81201-13.75l20.07129-1.93994c6.06531-.58771,11.8407.9342,16.58807,3.99438l-.66669.03589c-1.51086.08148-2.99219.30414-4.42847.65845-4.30872,1.06287-8.2121,3.31067-11.29297,6.48578ZM653.80353,385.98309c.27594-.26691.55042-.53571.81561-.81512l17.7041-18.65625c1.63721-1.09668,3.67188-1.28906,5.49951-.50195,1.92041.82568,3.21436,2.55762,3.46094,4.63379l1.19238,10.02148c.24866,2.09198.91351,4.0473,1.88989,5.80273l-3.98688-.06317-26.57556-.42151ZM259.97559,319.9043c-14.5675-19.47034-17.18793-45.63385-16.15643-66.96765,2.84045,2.00006,6.27588,3.03705,9.8244,2.89441.00043,0,.00085-.00006.00128-.00006.00104-.00006.00208.00012.00311.00006.00043,0,.00085-.00006.00128-.00006.00104-.00006.00208.00012.00311.00006,1.27844-.0495,2.67169-.10004,4.16547-.14954,22.41187-.74139,67.44293-1.24054,87.09186,5.61047,2.44666.85333,4.83118,1.3479,7.15277,1.53625,2.90247,2.14954,6.1922,3.79907,9.75739,4.82214l30.08154,8.63135c8.97949,2.57666,15.6377,10.2168,16.96143,19.46533l10.62891,74.25293c.45947,3.20947-.50879,6.44385-2.65674,8.87305-2.14105,2.42188-5.24042,3.77722-8.3775,3.724-.21667-.00812-.43512-.01666-.65253-.0249-3.25977-.12457-6.53101-.2605-9.7973-.40961-.16632-.00757-.33197-.01495-.49866-.02264-3.4917-.16071-6.97614-.33405-10.42792-.52075-55.96387-3.0249-98.72852-23.78857-127.10547-61.71484ZM844.71387,396.24609c-17.67053-5.08545-35.89978-7.80481-54.354-8.09717l-40.86572-.64813c20.51459-6.32336,39.70795-16.67261,56.32489-30.51288-.10144,2.86816.23975,5.76971,1.06573,8.59558,3.3374,11.41553,12.59717,20.19531,24.16602,22.91357,39.2627,9.22363,127.83496,35.45508,137.80957,44.09131,3.14661,2.72437,6.81866,7.37225,10.66376,13.09186-4.44934-2.8924-9.25684-5.27966-14.35028-7.08746l-18.18671-6.45551c-.00092-.00031-.00183-.00073-.00275-.00104l-90.13037-31.99219c-4.01422-1.42487-8.06232-2.72437-12.14014-3.89795ZM1006.66406,496.73193c.68524,1.60339.66833,3.34943-.01514,4.90869-.74109.13623-1.4812.31842-2.21436.56738l-10.77057,3.65497c-.06982.00159-.13983.00464-.20941.00482-.21796-.00171-.43561-.00592-.65131-.02106-.02136-.00134-.04266-.00275-.06403-.00415-3.14905-.24042-6.02112-1.89209-7.79395-4.42847-.0033-.00476-.00623-.00983-.00952-.01459-.15521-.2229-.30188-.45251-.43964-.68866-.03851-.06635-.07159-.13641-.1087-.2038-.09998-.18073-.19977-.36176-.28906-.54956-.06598-.13922-.12207-.28424-.18201-.42712-.05243-.12463-.11005-.24628-.15765-.37372-.10309-.27612-.1955-.55811-.27533-.84613l-10.64062-38.41504c-1.1709-4.22699-3.00635-8.17505-5.37439-11.74127.92334.4234,1.83661.86456,2.73383,1.33228,10.70782,5.58179,19.50476,14.27649,25.23431,25.08575l8.63123,16.28363c.93579,2.0578,1.80621,4.02771,2.59631,5.87604ZM1345.87891,654.16699l-55.32031-23.94434c-11.3291-4.9043-20.80859-13.00879-27.41406-23.43848l-23.0625-36.41504c-7.95117-12.55426-19.97205-21.69208-33.77759-26.10413-1.20044-.38361-2.41455-.73157-3.64038-1.04291-1.22607-.31134-2.46399-.58606-3.7124-.8233-3.12109-.5932-6.30786-.95233-9.53662-1.06384l-130.97266-4.5166c-3.29199-.11353-6.51172-.66833-9.58618-1.61853-9.22302-2.85059-17.13721-9.26001-21.76538-17.99084l-2.25049-4.24573-1.77881-3.35632v-.00049c-.00189-.00354-.00403-.00671-.00592-.01025l-11.90204-22.45441c-8.58472-18.71948-25.06549-50.21887-37.05688-60.60126-12.27441-10.62842-105.25244-37.38281-141.21631-45.83154-8.76807-2.06006-15.78662-8.71582-18.31689-17.37012-1.93018-6.60303-.17627-13.79395,4.57227-18.76123l.09912-.10352c23.87109-24.99072,37.84229-57.76855,39.34033-92.2959s-9.58203-68.39209-31.19873-95.35645c-6.69769-8.35449-14.39386-15.62634-22.84387-21.71954-2.30756-2.73157-3.96021-6.00275-4.75134-9.50458l-.65039-2.87939c-.10516-.46564-.23169-.9209-.3739-1.36774l767.2782,1.17047,8.56152.9126c3.68262.39233,7.08997,1.57513,10.06738,3.36511,7.27795,4.37537,11.98669,12.37878,11.86597,21.33356-.00549.40698-.021.81598-.04663,1.22662l-2.55371,40.8999c-.94336,15.11035,8.4043,29.07764,22.73242,33.96582l22.64062,7.72461c5.95605,2.03223,10.02832,7.62891,10.13281,13.92725.01294.77887.02332,1.59778.03027,2.45557.00684.85785.01025,1.75458.00952,2.68921-.01709,22.89917-2.54785,68.55634-18.90918,121.82672-.33398,1.08716-.67358,2.17743-1.01917,3.27081-1.0365,3.28009-2.12585,6.58752-3.27039,9.91895-2.67078,7.77319-5.64258,15.67657-8.94849,23.66589-.39087.94464-.79736,1.92261-1.21387,2.92206-.052.12494-.10425.25024-.15674.37604-28.23767,67.70038-113.6333,257.55231-162.56104,365.88013-6.08789,13.47852-15.88574,24.82715-28.33496,32.81738-15.90527,10.20801-37.24609,7.14746-49.64258-7.12012-7.64355-8.79681-11.86609-20.05939-11.89062-31.71454l-.18848-92.17218c-.02246-11.53223-6.87695-21.94434-17.46094-26.52539ZM1418.70801,868.41211c1.71289,4.53613,5.09082,8.12988,9.5127,10.11914l43.10352,19.39648c4.03027,1.81348,6.73633,5.35742,7.42578,9.72266.68945,4.36426-.79395,8.56934-4.06836,11.53711l-75.43555,68.34473c-4.41016,3.99609-10.68555,5.39355-16.37109,3.64746l-8.40527-2.57812c-6.28418-1.92773-10.51562-7.63965-10.5293-14.21191l-.35278-172.55066c1.68579,2.80951,3.61816,5.48517,5.79224,7.98718,9.03516,10.40039,22.00391,15.87402,35.0918,15.87402,8.61426,0,17.28027-2.37109,24.91016-7.26855,3.25098-2.08624,6.33179-4.38666,9.23999-6.86957-8.57007,18.93903-15.31665,33.82349-19.4646,42.96918-2.00293,4.41602-2.16211,9.3457-.44922,13.88086Z" style="fill: #a7a9ac;"/>
</svg>