<svg id="Background_Details" data-name="Background Details" xmlns="http://www.w3.org/2000/svg" viewBox="0 0 1920 1080"><defs><style>.cls-1{fill:#636466;}.cls-2{fill:#c7c8ca;}</style></defs><title>background</title><g id="Pavement"><path class="cls-1" d="M189.92,1080S93.51,813.71,83.16,767.41c-12-46.84-71.9-284.86-71.9-284.86S34.14,311,46.12,289.19s24-81.16,28.33-110.57S82.07,18,72.27,0H87.52S88.61,52.8,93,59.34s7.08,18,34.32,15.25a70.9,70.9,0,0,1-1.09,12.53S94.05,84.39,94.6,107.81,79.35,254.88,67.91,297.36c-3.27,12-7.63,41.94-6.54,55,8.17-5.45,103.49-109.48,103.49-109.48l98-99.67s38.67-37,25.06-91.51C281.42,32.65,252.55,0,252.55,0h38.31s-.18,38.1,35.22,35.37S396.89,26.17,451.36,0h36.49L419.77,35.37s-46.85,30-70.27,50.11c-32.68,19.61-95.31,89.33-113.29,107.85s-99.67,108.39-133.44,159A525.33,525.33,0,0,0,45.58,496.71c2.18,13.62,45.75,199.35,45.75,199.35S127.82,858.37,214.43,1080Z"/><path class="cls-1" d="M359.14,542.16s.49,137.39,120,203.36c18.85,8.93,78.37,38.69,226.68,34.23,23.31,0,119,3,178.07-8.44a58,58,0,0,1,8.93,13.89s-83.33,12.9-215.27,12.9c-34.72,0-143.84-3.47-195.93-34.23-37.2-19.84-93.25-59-117.06-137.39-8.43-35.71-12.89-67-12.4-73.91S355.17,534.22,359.14,542.16Z"/><path class="cls-1" d="M1347.22,494.73s-54.22-2.37-71.22-3.66c-99.18-4.3-154.69-3.44-165.88-3.87s-98.11,4.52-131.89,5.16-68.85-4.09-78.53-6.45C890.23,474.29,867.42,411,867.42,411L849.78,352.3s-1.94-.65-14.85,0c8.83,40.45,31.27,94.82,31.27,94.82l23.12,61.46-34.4,16.35,59.77,261.64s32.9,1,56.54,1.74v82.76h32.5l-7.07-44-2.08-38c0-19.15-19.15-103.7-21.3-110.8s-31.41-93-36.79-105.86-.86-21.52.64-25.17c8.61-14.42,42-24.75,42-24.75s81.11-14.84,95.53-17.21,139.2-1.29,139.2-1.29,119.85,7.1,128.67,8.39,9-3.44,9-3.44.43-2.15,1.51-8.18S1347.22,494.73,1347.22,494.73Z"/><path class="cls-1" d="M1678.28,239c-13.06,3.4-31.23,4.54-41.45-17S1530.08,0,1530.08,0h-37.47l89.14,177.7,13.63,26.69-38.61-53.94L1510.21,59.6l-39.18,17-15.9-36.91S1433.56,4,1422.2,0H1387s35.2,20.42,39.74,46c2.84,22.71,6.82,42-16.46,54.5,0,7.39-.57,38.05-.57,38.05l15.9.56L1458,117l23.85,49.4L1589.13,268l31.23,41.45,27.36-18.11s52,119,59,135.49c43.51,113.19,34.37,137.84,32.54,161.61-4,77.87-28.15,161.24-34,177-20.48,51.19-43.51,55.58-59.6,62.52s-64.35,14.26-76.78,7.68c49-35.1,96.52-108.23,100.55-116.63C1703,659.71,1710,585.13,1710,585.13s1.83-13.53-5.85-13.53-7.68,5.85-7.68,5.85c-16.09,148.44-101.06,216.28-111.28,227.16-46.46,44.16-109.4,68.87-123.9,73.81-95.56,37.9-235.61,48.11-235.61,48.11s-133.13,8.57-140.37,9.23-41.52,8.24-41.52,8.24l-67.37-2.58,7.43,122.06-248.42-5.43s-61.18-2.57-82.91-5.43-57.46-2-57.46-2-135.79,6.29-197.82-8.86c-46-9.44-93.49-60.45-107.28-75.61s-40-60.95-44-70.2-13.64-9.7-13.64-9.7-2.36.19-14.25,3.29-5.17,17.07-5.17,17.07l53.78,138.57L270.3,1080h15.79s-8.82-31.85,6.72-40.25c28.14-14.28,56.28,6.3,106.26,17.22,41.58,13.86,162.54,8,175.56,7.56S626.29,1080,626.29,1080h391l-4.62-90.65,66.77-4.2.84-35.7s151.2-13.44,177.24-15.12c151.2-13.44,202-42,210.84-44.52s55.44-24.36,58-24.78,53.34-13,64.26-13.86,76-16,81.06-16.8,28.56,4.62,38.64,9.24c-2.94,107.1-107.52,149.1-121.38,156.24-155.4,75.6-236.46,80.15-236.46,80.15h120.12c135.66-34.79,198.24-101.57,222.6-123.83,35.7-29.82,45.36-110,45.36-110s11.34-80.64,16.38-111.3,9.66-132.3,7.14-178.08c0-51.66-44.1-145.74-44.1-145.74l-57.12-129.35s6.92-20.49,12.6-23.33,97.09-29.52,109-32.93,132.54-38,135.54-44.86v-21S1801.49,204.39,1678.28,239Z"/><path class="cls-1" d="M393.1,233c-8.28-8.84-3.86-14.36,0-17.13,8.29-6.07,28.72-45.83,33.14-52.46C445,143,481.9,123.12,481.9,123.12l2,7.88-16.5,3.92v3.78l-4.32.41-.68,3.92-5.81.95-.41,4.19-6.63.81-.13,4.06-6.22.94-.68,4.2-6.89,1.48L444,193.51s64.45-16.07,72.1-17.79c57.18-13,148.59-24.1,148.59-24.1l155.62-8.24,588.81,1.69V90.19H1422l.29-28.89-102.16-.48-.1-.67c21.09-4.62,44.58-35.24,44.58-35.24l-6.21-4.39h0L1374.07,0H1108.18c-35,11.14-130.51,30.89-130.51,30.89L919.72,30l.8,16.06-68.29,2.57s-110.75,2-114,2C725,50,639.52,56.76,629.92,59.46c-5.41.68-58,15.55-58,15.55l-94,32.19c-27.65,9.47-59.41,42.4-64.93,50.13s-22.65,42-24.86,36.18c1.11-34,10.5-45,10.5-45s59.09-50.26,76.76-61.31C564.86,13.74,612.36,0,612.36,0h-34.8c-22.09,0-159,113.7-184.46,134.87s-17.67,44.55-16,70-5.52,41.42-5.52,41.42S388.69,236.31,393.1,233Zm88.8-109.89"/><path class="cls-1" d="M414.61,343.14l11,13.48s69.55-38,193-43.2c8-.31,93.82-6.13,254.28-4.33v11.18h69.24V308l267.92-.36s84.38-.72,124.41,4.32c34.24,5.37,70.67,18.07,102,32.1,19.48.36,24.16,1.44,24.16,1.44l5-5.77s-67.43-36.42-125.12-44.71c-53.37-9-158.67-5-176.7-5s-444.61,1.44-444.61,1.44S561,296.11,522.09,305.48C504.79,308.73,450.65,322,414.61,343.14Z"/></g><g id="Buildings"><rect class="cls-2" x="366.19" y="935.08" width="128.77" height="45.72" transform="translate(151.59 -54.59) rotate(8.8)"/><rect class="cls-2" x="506.34" y="952.16" width="209" height="45.72"/><rect class="cls-2" x="727.26" y="953.75" width="154.57" height="45.72"/><rect class="cls-2" x="923.58" y="947.78" width="19.58" height="19.34"/><rect class="cls-2" x="1034.35" y="1025.37" width="28.41" height="11.22"/><rect class="cls-2" x="1314.14" y="1003.41" width="35.33" height="23.4" transform="matrix(1, -0.08, 0.08, 1, -80.6, 115.51)"/><rect class="cls-2" x="1303.32" y="961.6" width="38.62" height="23.4" transform="translate(2181.33 -426.45) rotate(85.18)"/><circle class="cls-2" cx="1394.11" cy="987.17" r="5.97"/><circle class="cls-2" cx="1612.77" cy="872" r="9.4"/><rect class="cls-2" x="1068.74" y="535.32" width="70.03" height="47.12"/><rect class="cls-2" x="662.75" y="433.33" width="170.28" height="25.5"/><rect class="cls-2" x="752.38" y="349.77" width="25.5" height="21.62"/><ellipse class="cls-2" cx="743.27" cy="361.79" rx="2.79" ry="5.22"/><polygon class="cls-2" points="883.55 424.6 883.55 408.25 876.5 408.25 876.5 429.38 878.92 429.38 883.55 429.38 887.25 429.38 887.25 424.6 883.55 424.6"/><polygon class="cls-2" points="939.19 336.05 926.48 336.05 917.68 336.05 917.68 338.1 916.78 338.1 916.78 332.33 909.89 332.33 909.89 338.1 905.8 338.1 905.8 347.79 913.49 347.79 913.49 359.65 917.68 359.65 917.68 372.83 939.19 372.83 939.19 358.57 954.52 358.57 954.52 336.05 939.19 336.05"/><rect class="cls-2" x="1233.61" y="536.48" width="23.65" height="29.13"/><rect class="cls-2" x="1096.74" y="959.13" width="194.3" height="56.09" transform="translate(-96.7 130.29) rotate(-6)"/><rect class="cls-2" x="1392.72" y="901.69" width="145.82" height="43.78" transform="translate(-239.66 618.51) rotate(-22.07)"/><rect class="cls-2" x="280.8" y="278.42" width="25.09" height="25.09" transform="translate(274.11 -121.76) rotate(42.56)"/><polygon class="cls-2" points="301.87 274.73 318.86 258.83 316.52 256.34 320.88 252.13 335.07 267.87 314.96 287.2 301.87 274.73"/><path class="cls-2" d="M444,193.51l-8.38-33.85,6.89-1.48.68-4.2,6.22-.94.13-4.06,6.63-.81.41-4.19,5.81-.95.68-3.92,4.32-.41v-3.78l16.5-3.92-5.95-23.8L571.9,75s52.61-14.87,58-15.55c9.6-2.7,95.06-9.47,108.31-8.79,3.25,0,114-2,114-2l68.29-2.57,309.76-1.24,0-2.78,55.27-4.82.19,1.93,10.69-1.35s16.27-1.64,41.6-31.77c4.62,3.37,26.57,18.87,26.57,18.87S1341.13,55.53,1320,60.15l.1.67,102.16.48L1422,90.19H1409.1v54.88l-588.81-1.69-155.62,8.24s-91.41,11.1-148.59,24.1C508.43,177.44,444,193.51,444,193.51Z"/><polygon class="cls-2" points="1590.59 270.33 1621.84 251.34 1586.03 191.24 1555.5 152.3 1521.36 75.13 1464.87 119.6 1525.45 177.3 1559.58 220.09 1590.59 270.33"/><polygon class="cls-2" points="1639.15 199.17 1669.2 184.99 1655.74 155.18 1676.65 145.33 1609.58 0 1589.39 0 1541.07 22.25 1612.47 175.38 1626.17 169.13 1639.15 199.17"/><polygon class="cls-2" points="1436.93 0 1472.88 79.85 1514.43 60.47 1487.17 0 1436.93 0"/></g></svg>