<?xml version="1.0" encoding="utf-8"?>
<!-- Generator: Adobe Illustrator 24.0.1, SVG Export Plug-In . SVG Version: 6.00 Build 0)  -->
<svg version="1.1" id="Inactive_Configs" xmlns="http://www.w3.org/2000/svg" xmlns:xlink="http://www.w3.org/1999/xlink" x="0px"
	 y="0px" viewBox="0 0 1920 1080" style="enable-background:new 0 0 1920 1080;" xml:space="preserve">
<style type="text/css">
	.st0{fill:#A7A9AC;}
</style>
<title>inactive</title>
<path class="st0" d="M1662.5,500.6c-4.4-61.7-20.7-118.3-48.4-168.4c-24.4-44.1-57.4-82.9-98.3-115.5
	c-35.6-28.4-75.9-51.2-119.7-67.7c-38.4-14.5-77.6-23.4-113.4-25.6c-153.1-9.6-441.6-14.1-584.1-5.6
	c-164.9,9.9-262.2,89.2-314.8,154.1c-70.8,87.2-92.5,185.3-89.2,248c3.5,67.1,21.3,128.1,52.8,181.2c27.5,46.3,65.3,86.6,112.4,120
	c40.3,28.5,86.2,51.1,136.4,67.3c54,17.4,98.2,22.5,125.7,23.8c12.5,0.6,26.9,1.3,42.2,2c68,3.4,160.2,7.9,259.7,7.9
	c35.6,0,72.2-0.6,108.9-2c0,0,0.1,0,0.1,0c0.5,0.1,1,0.2,1.5,0.2c0.7,0,1.3-0.1,1.9-0.4c53.7-2.2,107.7-6.2,159.7-12.8
	c92-11.8,168.6-40.3,227.5-84.8c47.4-35.7,83.5-81.8,107.5-136.8C1671.3,592.4,1663,505.3,1662.5,500.6z M764.5,904.2
	c-15.3-0.8-29.7-1.5-42.2-2C562.1,894.9,318.7,787,304.6,519.4c-3.2-60.8,18-156.2,87-241.2c51.3-63.3,146.4-140.7,307.7-150.4
	c52.3-3.1,124.3-4.5,202.1-4.5c24.1,0,48.8,0.1,73.7,0.4c0.1,9.2,1.5,133,2.5,160.5c0.4,12.3,0.8,22.9-35.1,39.1
	c-51.5,23.2-147.5,71-194.1,100.3c-43.9,27.7-40.5,71.5-34.2,102c10.4,49.8,73.3,81.7,131.5,107.7c14.1,6.3,25.6,10.2,38.8,14.6
	c11.5,3.9,24.6,8.3,42.4,15.2c18.8,7.4,47.1,18.5,45.6,66.3c-0.7,21.9-0.1,44.1,1.7,65.9l0,0.4c5.4,34.7,18,55.8,43.5,72.8
	c2,1.4,32.5,22.4,87.7,42.4C975.9,914.6,850.7,908.4,764.5,904.2z M1621.6,681.5c-53.2,122.1-163.2,194.7-327.2,215.7l0,0
	c-52.1,6.7-106.5,10.7-160.5,12.8c-70.4-21.7-110.2-49.4-110.6-49.6l-0.1-0.1c-22.9-15.2-34.2-34.3-39.1-65.9
	c-1.7-21.4-2.3-43.2-1.6-64.6c1.8-54.9-33.2-68.6-52-75.9c-18-7.1-31.2-11.5-42.8-15.4c-13-4.4-24.3-8.2-38-14.3
	c-69.4-31-117.4-60-125.8-100.6c-9.3-44.4-0.1-72.7,29.7-91.5c46.2-29.1,141.7-76.6,192.9-99.7c38.8-17.6,41.5-31.8,40.9-48.5
	c-0.9-27.2-2.3-149.3-2.5-160.1c109.4,1.2,220.3,4.8,297.1,9.6c133.6,8.4,352.4,115.7,370.5,368.1l0,0.1
	C1652.9,505.2,1661.4,590.3,1621.6,681.5z"/>
</svg>
