<?xml version="1.0" encoding="utf-8"?>
<!-- Generator: Adobe Illustrator 24.0.1, SVG Export Plug-In . SVG Version: 6.00 Build 0)  -->
<svg version="1.1" id="Inactive_Configs" xmlns="http://www.w3.org/2000/svg" xmlns:xlink="http://www.w3.org/1999/xlink" x="0px"
	 y="0px" viewBox="0 0 1920 1080" style="enable-background:new 0 0 1920 1080;" xml:space="preserve">
<style type="text/css">
	.st0{fill:#A7A9AC;}
</style>
<title>inactive</title>
<path class="st0" d="M1800.4,611c2.4-63.3,4.8-163.2-1.9-217.6c-12.3-99.9-49.4-173.4-110.3-218.4c-43.2-31.9-97.5-49.1-161.2-50.9
	c-117.4-3.4-343.5-3.2-478.6-3c-13.7,0-26.6,0-38.3,0c-129.1,0.1-392.1-0.3-525-0.8c-144.4-0.6-217.1,21.5-287.9,87.5
	c-25,23.3-45.9,56.2-60.5,95c-12.8,34-19.7,70.1-19.6,101.5c0.1,22.6-0.3,51.5-0.8,82c-1,63.1-2.1,134.6,1.3,179.5
	c5.3,69.9,36.3,133.3,87.2,178.4c0.5,0.4,0.9,0.8,1.3,1.1c54.1,48.7,144.8,76.1,202.7,77.2c26.9,0.5,53.3,1,79.2,1.5
	c1.8,0.3,3,0.4,3.5,0.4c0.2,0,0.3,0,0.5,0c0.6,0,1.3-0.1,1.8-0.4c275.9,5.1,492.9,8.1,705.8,8.1c101.4,0,201.8-0.7,307.2-2.1
	c61-0.8,113.9-14.4,157.3-40.4c35.7-21.3,65.2-51.1,87.8-88.5C1791.8,735,1798,664.9,1799,645c0.4-9.1,0.9-20.4,1.4-33.3
	c0-0.1,0-0.1,0-0.2C1800.4,611.3,1800.4,611.2,1800.4,611z M1648.3,857.1c-17.9,10.9-35.5,19-51.6,24.9c15-10,26.1-21.6,34.2-32.4
	c30.2-40.5,34.1-90.5,24.6-122.2c-5.4-18-20.3-53.1-28.7-71.2c-7.1-15.3-8.8-27.7-4.8-35.9c3.2-6.6,9.4-9,12.8-9.9
	c4.4-1.1,9.7-2.7,15.5-4.4c0.6-0.1,1.2-0.3,1.7-0.5c3.1-1,6.2-2,9.5-3c15.3-4.9,32.6-10.3,44-12.1c6.3-1,11-0.2,13.8,2.4
	c5.2,4.6,4.9,14.8,4.8,20.3l0,0.7c-0.7,29.2,19.9,31.1,27.7,31.8c21.8,2,32.9-17.4,35-30.9c1.4-8.9,2.8-26.6,3.3-35.7
	c0.6-10.7,1.5-21.4,2.3-32.1c-0.5,23.7-1.2,46-1.9,64.2C1775.5,751.9,1704.9,822.6,1648.3,857.1z M458.8,896.7
	c-3.4-7-6-17.8-3.1-33.4c3-16.2,3.6-38.9-10.3-55.1c-11-12.7-29-18.8-53.4-17.9c-3.3,0.1-7.8,0.4-12.5,0.8c-8,0.6-17,1.2-22.3,1
	c-37.2-1.3-63.7-7.8-80.8-20l-1.6-1.1c-13.6-9.6-28.9-20.4-41.2-52.2c-2.4-6.3-6.3-15.1-10.3-24.4c-5.5-12.6-11.3-25.7-14.1-34.1
	c-2.9-8.5-4-21.9,1.8-33.7c5.2-10.5,14.8-18.2,28.6-22.8l0.4-0.1c12.7-4.3,20.3-6.9,52.3-10c26.7-2.6,62.3-1.3,86.6,0.8
	c24.1,2,44,5.8,63.4,33.9c4.8,7,11,15.7,17.6,25c20.2,28.5,45.4,64,57.7,85.7c4.1,7.2,13.2,20.4,28.8,28c16.3,7.9,35.2,7.8,56-0.4
	c13-5.1,25.3-16.3,32.9-29.9c6.7-12.1,13.1-31.9,4.9-58.1c-5.2-16.8-21.6-47.1-31.4-62.5c-5.6-8.8-7.5-17.1-5.5-24.6
	c2.6-9.8,11.6-18.8,26.7-26.9c12.5-6.7,29.5-9.1,60.7-8.7c165.8,2,395.2,3.3,541.9,1.2c9.4-0.1,27.5-2.4,42.8-15.7
	c15.5-13.5,23.5-34.4,23.9-62c0.1-4.4,0.2-10.4,0.4-16.7c0.4-13,0.8-27.8,0.6-36.9c-0.4-11.5,1.5-27.5,12.6-39.1
	c9.4-9.9,24.1-15,43.8-15.3c0.8,0,1.8,0,2.8,0c9.1,0.1,30.5,0.4,32.3-23.3c2.2-28-2.2-67.9-5.7-100l-0.5-4.5c-0.1-1-0.2-2-0.4-3.1
	c-1-7.8-2.1-17.5,1.5-25.6c4.3-9.5,14.5-15.1,31.4-17.3c18.2-2.3,49.4-3.9,82.1-1.3c36.6,2.9,107.4,12.2,141.8,25
	c68.2,25.4,104.4,55.7,129.1,108.1c6.4,13.6,13.5,32,16.5,65.2c4,42.5,0.3,85.6-3.6,131.2c-1.5,17.2-3,35.1-4,52.7
	c-0.6,9.5-1.9,26.6-3.2,34.7c-1.1,6.8-7.5,24-24.2,22.5c-10-0.9-19-3.3-18.6-21.6l0-0.7c0.2-7.1,0.5-20.4-8.1-28
	c-5.2-4.6-12.6-6.2-22-4.8c-12.1,1.8-29.8,7.5-45.5,12.4c-3.4,1.1-6.8,2.2-10,3.2c-19.6,0.7-34.2,6.6-43.3,17.3
	c-15.5,18.2-11.8,45.3-9.3,63.2c0.4,2.6,0.7,5.1,0.9,7.1c2.9,28,12.4,114.9,13,120.6c-0.2,20.8-8.7,39.5-25.3,55.8
	c-23.6,23.1-57.1,35.1-79.3,37.9c-1.1,0-2.2,0-3.4,0c-0.3,0-0.6,0-0.8,0c-0.8,0-1.6,0.2-2.2,0.6c-0.2,0-0.4,0-0.6,0L458.8,896.7z
	 M1619.6,803.6c-0.1-0.9-10-92-13-120.9c-0.2-2.2-0.6-4.8-1-7.5c-2.1-15.2-5.2-37.8,5.1-52.8c-2.3,10.2,0.1,23,7,38
	c7.1,15.4,22.7,51.7,28.2,69.9c8.8,29.2,5.1,75.6-23.1,113.3c-11.6,15.5-30,32.9-58.3,43.8c9.8-5.7,18.9-12.4,26.7-20.1
	c18.7-18.3,28.2-39.5,28.3-63.2l0-0.3L1619.6,803.6z M127.7,665.2c-3.4-44.5-2.3-115.8-1.3-178.6c0.5-30.6,0.9-59.5,0.8-82.2
	c-0.3-58.1,26.1-141.8,76.8-189.1c67.8-63.2,137.8-84.8,275.7-84.8c1.8,0,3.5,0,5.3,0c132.9,0.5,395.9,0.8,525,0.8
	c11.8,0,24.6,0,38.3,0c135-0.1,361-0.3,478.3,3c87.3,2.5,192.2,35.6,240.1,166.7c-10.7-17-23.3-31.3-38.4-43.9
	c-21.1-17.5-47.5-31.9-83-45.1c-35.3-13.2-107.4-22.7-144.5-25.6c-33.5-2.6-65.4-1-84.1,1.4c-20.3,2.6-33.5,10.3-39.2,23.1
	c-4.8,10.7-3.4,22.4-2.3,31c0.1,1.1,0.3,2.1,0.4,3l0.5,4.5c3.5,31.7,7.8,71,5.7,98.2c-1,13.3-10.3,14.2-22.2,14.1
	c-1.1,0-2.2,0-3.1,0c-22.4,0.4-39.5,6.6-50.8,18.4c-13.4,14-15.7,32.9-15.3,46.3c0.3,8.7-0.2,23.4-0.6,36.3
	c-0.2,6.4-0.4,12.4-0.4,16.8c-0.9,62.2-43.7,67.7-56.8,67.9c-146.6,2.1-375.9,0.7-541.6-1.2c-33-0.4-51.4,2.4-65.5,9.9
	c-17.7,9.5-28.4,20.6-31.7,33.2c-2.7,10.3-0.4,21.3,6.7,32.6c9.3,14.6,25.4,44.4,30.3,60.1c7.1,22.7,1.7,39.9-4.1,50.2
	c-7.6,13.7-19.4,22.1-27.8,25.4c-43.9,17.3-65.3-10.4-72.5-23.1c-12.5-22.1-37.9-57.8-58.2-86.6c-6.6-9.3-12.8-18-17.6-25
	c-21.9-31.6-45-35.9-70.8-38.1c-12-1-54-4.1-88.4-0.8c-33.1,3.2-41.6,6.1-54.5,10.4l-0.4,0.1c-16.4,5.6-28,15-34.4,27.9
	c-9,18.3-4.1,36.3-2.3,41.3c3,8.8,8.8,22.1,14.4,34.9c4,9.2,7.8,17.8,10.2,23.9c13.4,34.6,30.8,46.9,44.8,56.7l1.6,1.1
	c18.8,13.3,47,20.4,86.3,21.8c5.8,0.2,15.1-0.5,23.3-1c4.6-0.3,9-0.6,12.1-0.7c21.3-0.7,36.6,4.1,45.5,14.5
	c11.9,13.8,10.2,35.2,8.1,46.7c-2.8,15.2-1.1,26.6,2,35c-35.7-1.1-155.6-8.3-232.1-56.3c-0.4-0.2-0.7-0.4-1.1-0.5
	c-0.6-0.5-1.2-1-1.7-1.5c-0.4-0.3-0.8-0.7-1.3-1.2C162.6,793.5,132.8,732.6,127.7,665.2z M409.1,912.7c-37.6-0.7-89.5-12.9-135.4-35
	c33.7,11.4,68.3,18.1,96,22.1c39,5.5,71.3,6.6,83.4,6.9c1.2,1.7,2.3,3.1,3.4,4.3c0.9,1,1.9,1.9,3,2.8
	C442.8,913.4,426,913,409.1,912.7z M1743.3,796.2c-48.7,80.9-128.3,122.6-236.7,124.1c-105.3,1.4-205.7,2.1-307,2.1
	c-214.1,0-432.5-3-710.7-8.2c-6.2-1-16.2-3.3-22.2-7.5l1027.1,2c0.2,0,0.4,0.1,0.6,0.1c0.3,0,0.7,0,1.1,0c1,0,1.9,0,2.9-0.1
	l29.1,0.1c0,0,0,0,0,0c0,0,0,0,0,0c0.1,0,0.2,0,0.3,0c2.5-0.2,61.7-4.3,125.4-42.9c37.4-22.7,68.5-52.7,92.4-89.2
	c13.6-20.8,24.9-43.8,33.7-68.8C1772.7,734.4,1761.7,765.7,1743.3,796.2z"/>
</svg>
