<svg id="Background_Details" data-name="Background Details" xmlns="http://www.w3.org/2000/svg" viewBox="0 0 1920 1080"><defs><style>.cls-1{fill:#c2c6f7;}.cls-2{fill:#636466;}.cls-3{fill:none;}.cls-4{fill:#c7c8ca;}</style></defs><title>background</title><g id="Water"><path class="cls-1" d="M697.51,144.36s9.19,7.25,12.57,9.67,8.23,12.58,9.44,13.31c-1.93,7.79-20.66,33.29-20.66,33.29s-10.29,8.17-12.54,1.83c-1-3,1.41-7,3.8-10.42-.14-2.82,0-18.17,0-18.17s-1.55-4.79-4.08-5.92-3.94-4.93-3.94-7.18-2-8.17-3.81-9.72-1-10.57,6.2-12.26S697.51,144.36,697.51,144.36Z"/><path class="cls-1" d="M900.77,789.66s26.48-13.06,27.75-14.33,8.21-7,8.21-7,9.09-2.32,11.95-.44c4.36,1.6,8.73,14,8.73,14l5,9.27s.45,6.33-.8,7.94-18.54,18-18.54,18-13.46,8-14,8.56-3.92,8.92-7.66,9.45c-1.25,1.43-5.71,8.74-13.46,8.65s-12.22-1.52-18.28.71-20.59,4.28-23.26,2.23-6.51-6.15-2.14-14.44c3.47-8.65,2.58-10.34,5.61-11.41.36-2.23,1.52-8,4.46-10,2.32-3.21,14-16.76,14-16.76l3.83-3.83Z"/><path class="cls-1" d="M1674.42,792.76l51.17,32.51,13.15-14.92s6.57-3.91,6.75-9.77a9.33,9.33,0,0,0-4.27-8.35s1.43-13.86-8.17-22.21c-.71-2.31,1.78-6.4,1.78-6.4s.89-6.57-1.07-12.08c-2.48-13.68-11.19-40.51-11.19-40.51s-11,2.13-13.15,2.13-4.44-2.48-15.1,3.91a5.3,5.3,0,0,0-2.25,4.61c1.22,8.9-6.12,40.5-6.12,40.5l-13.8,24.27S1670.11,790.33,1674.42,792.76Z"/></g><g id="Pavement"><path class="cls-2" d="M167.32,55.57l-2.41-10.3-52.6,1.1S84.7,55.79,73.52,70,32.75,117.82,27.06,170.2c-.22,7.45-1.1,35.94,12.27,65.09C45.47,236.6,97.14,248,97.14,248s13.85,0,14.94-6.22c-9.17-4.14-38.74-15.77-45.74-58.45-.59-7.59-7.11-32.49,17.84-70.49,3.63-4.72,24.22-36.73,64.11-50.19C153.66,60.51,167.32,55.57,167.32,55.57Z"/><path class="cls-2" d="M321,95.56s58.78,33.94,58.78,35.27-1.64,6.34-1.64,6.34,8.49,20.06,2.95,32.24-15.62,33.71-15.62,33.71-1.85,11.57,9.1,16.49c8,3.45,9.85,4.43,9.85,4.43L409,235.36l24.24-9.6,38.63-23.87s6-6.76,17.72-5.53c4.06-1.23,11.44-6.77,24.49-.62,3.69,1.11,98.67,39.62,98.67,39.62s28.18,13.36,71.46,47.1c5.18,3.53,43.3,31.85,45,33.14S751,338,754.37,341l2.33-2.08s16.46,11.54,22.69,14.65c5.44,3.5,44.32,25.79,48.34,27.73s34.43,17.8,34.43,17.8a2.55,2.55,0,0,1,.77,3.37c-1.25-.77-69.56-36.17-69.56-36.17L788,377.66,884.5,428.3s34,15.25,55.89,51a2.5,2.5,0,0,1,.57,1.18l-3.14.37s19,27.78,20,63.23c0,2.38,2.2,23-4.94,43.29,8.52-3.24,27.78-4.27,42.32.79l9.42,2.78,6.79-23.6,20.06,5.16L1062.39,458l-30.32-10.23-17.54,32.69-5.84-2.74,17.72-36.35a10.08,10.08,0,0,1,8.4-2.55c4.93.91,148.76,36.62,148.76,36.62l-.76-7.38-133.5-40.51s-8.92-5.1-23.69,5.86c-13.51,9.68-28.28,21.65-28.28,21.65s-5.35,8.92-14.27-.51-29-33.88-43.57-35.66c-7-4.45-4.78-24.76-4.78-24.76l-53.11-22S877.4,390.79,866.87,393c-6.77-3.76-87.11-45-87.11-45l-33.4-23.32L728.91,308.5l-67.39-47.84s-40.32-29-61.84-38.52l-57.3-25.38L606,215.13Z"/><path class="cls-2" d="M857.12,691.93l-77.61,47.68s-33.06,26.45-39.67,51.16-16.36,53.94-11.49,93.61c2.09,19.15-1,35.5-.34,40.72s1.39,27.5,7.3,28.19S806,955.38,806,955.38l11.23-10.85s-23.59-8-42.71-41.27C770.31,892.9,761,882.55,766,843.72c1-7.05,4.75-53.36,47.32-97.51C815,743.77,857.12,691.93,857.12,691.93Z"/><rect class="cls-3" x="1278.4" y="984.82" width="342.97" height="9.57"/><path class="cls-2" d="M935.28,1004.92l348.44,1.35c4.7-.59,8.59-1.18,8.59-1.18l-.11-12.84h319.72v2.19l42.71-.22s61.67,19.23,74.48,20.55,62.33,5.75,62.33,5.75,26.08,6.41,39.35,1.33c10.83-5.31,34.25-17.69,34.25-17.69s20.12,17.71,19.45,32.84c1.81,0,1,46,1,46H1920V780.27l-23.35.44-13.7-13-14.59-58.13.88-99.9,29.18-68.08-21.44-21s-23.21,25.42-31.61,30.73-29.39,20.11-40,40.66c-3.32,3.1-8.4,7.3-25,2.44s-46.41-9.51-46.41-9.51-9.51-20.11-21.66-24.31a178.48,178.48,0,0,1-19.67-8s-5.53,0-10.39,8-2.88,11.49-13.71,8.84-177.7-46.64-177.7-46.64l5.31-17.9,4.2,1.11,4.86-13.93-9.51-3.76-2,5.09s-13.26-7.52-21.43-7.07c-2-4.2-10.83-18.57-14.81-18.79s-11.72.66-13.93-.66-25.19-21-36.47-22.55-48-.88-53.48-2.21c-24-7-28.91-16.81-33.59-19.93a64.45,64.45,0,0,0-19.81-8.46c-8.68-2.22-14.91-6.23-16.91-9.79s-9.57-4.23-11.57-6.9-1.34-4.23-5.35-5.78-3.33-6.46-2-9.13c-1.78-1.56-5.79-.22-6.68-4.23A5.5,5.5,0,0,1,1261,373s-7.79-6.9-17.36-5.35-11.79,7.13-11.79,7.13,0,6.67-7.35,2.22c-19.36-12.24-41-45.4-44.73-48.29s-12.69-38.28-15.8-40.51-16.92,9.12-21.81,19.58-15.81,17.81-24.49,16.47-22.47-5.34-29.37-2.89-34.9,22.18-38.29,21.89-8.12,10.89-16.92,6.49-4.74-8.13-20.65-8.81c-10.16-2.7-29.45-7.1-38.93-22s-23.36-50.44-23.7-54.16.34-45.7-.67-46-7.11-5.07-7.79-8.12-2.37-12.14-13.2-5.73-25.73,15.55-29.11,15.88-9.14,2.71-15.91-1-11.85,1.35-13.88,2-11.51-2.37-13.54.34-10.5,7.45-10.16,14.55-1.35,38.93-6.43,36.56-114.42-46.37-114.42-46.37-16.58-8.8-13.88-18.28c4.74-9.48,19.64-32.84,19.64-32.84l-5.08-4-19.63,29.76s-11.17,10.49-21,6.77-256.59-109-256.59-109S341.88,51.16,331.72,42s-21.66-20.31-32.83-19.29S265.71,38.3,260,38.3s-62.29-4.74-62.29-4.74-12.52-3.18-13.54-10.9.34-13.48-4.74-13.81-18.28,0-18.28,0l-5.07,20-52.47-3.39S52.11,50.26,30.45,95.56a209.84,209.84,0,0,1-21,0S.32,131.05,2.35,132.74s6.09,6.09,5.76,11.85,2.7,12.19,1.69,21.66-2.71,32.5,2.37,46c.68,6.09,0,31.14-.68,34.19C8.78,241.74,0,222.78,0,222.78V269.5S23.34,258,29.77,257s56.53.34,93.09,8.13c42.65,6.09,132,27.76,132,27.76s23.7,3.72,52.81,30.46C341.2,345,428.87,438.75,428.87,438.75S456,456,446.82,475.31c-1.7,4.74-20.4,43-61.11,56.68-32.12,15.91-118.31,9.55-132.31,9.23s-44.52,6-60.42,1.59-36.58-2.55-69-29.58c-10.18-9.22-41-35-52.79-38.8-4.14-3.5-8.27-8.59-8.59-11.77s-48.66-9.86-48.66-9.86L10.42,484,48,494.15s8.59-16.54,18.77-14C74,482.38,82,483.63,94.07,497c8,6.05,15.81,12.93,24.49,15.91,2.54,1.91,13,21.31,48.66,30.22s103,4.77,103,4.77l79.51.63s40.71-4.13,77.28-35c17.49-13.68,24.81-38.17,27-46.12,0,0,1-7.63,11.45-5.09s54.7,6.37,60.42,6.37c6-1.59,15.59-8.59,20,1.9s16.22,31.81,31.48,35.62c5.41,1.28,14,2.87,21.31-2.86a16.38,16.38,0,0,1,4.14,3.82L540.27,540s-32.12,20.67-32.44,37.21,6.05,33.07,12.09,44.2,12.4,17.18,6,37.21c1.27,9.55,59.48,156.8,59.48,156.8s9.54,15.9,25.12,22.9c9.22,7,41.66,26.07,39.12,55C650,907,623.92,947,616.92,985.84c-4.13-2.87-11.13-5.41,5.09-42.94,10.81-21.31,15-42,12.72-53.43s-16.22-7.63-16.22-7.63-10.49,2.54-7.31,23.85c0,5.09-1.28,20.35-22.9,24.81s-67.43,13.67-67.43,13.67l.32,27.35s52.8,20.36,57.57,20.36,33.39,3.81,40.39,14.63,43.24,77.84,47.63,82.93c4.13,0,28.89.45,28.89.45s-66.66-77-66.66-96.42,8.27-38.09,8.27-38.09,6.36-5.48,7,3.42,2.86,44.53,40.08,57.25c14.94,6.36,165.69-5.41,165.69-5.41s24.81-12.4,31.81-11.45S913,1004,913,1004Zm-90.06-5s-104.8,9.15-133.4,11.9-42.56-13.5-46.22-16.71C645.92,978.19,651,937.46,653,931.05c13.73-30,12.13-40.72,12.13-40.72-4.12-31.81-31.58-50.12-51-60.87S582.31,781,582.31,781s-30.21-89-31.35-92.67,1.14-2.75,1.14-2.75,30.89,65.22,58.12,99.54c18.77,26.54,35.7,28.83,54.46,29.52s21.51-11.22,26.55-22.66c11.67-37.52,28.6-58.57,32-65.21s24.25-21.05,38.21-30-4.12-12.82-4.12-12.82-60.63-14-79.85-24C629.9,643.66,625.1,613,624,607.28s-7.55-24.94-15.33-37.3c-7.32-14.19-17.62-14-24.25-14.87s.68-8.24,5-12.82c11.44-8.23,18.54,4.12,18.54,4.12s23.56,31.35,32.72,48.74c22.88,30.89,45.07,37.3,45.07,37.3s68.88,20.82,80.32,24.48c27,7.55,33.64,16.93,40.27,25.17s-.46,15.33-.46,15.33-65.44,47.37-69.56,50.8c-16.47,16.93-32,91.53-32,91.53s-3.43,106.85-3,123.33,19,18.08,19,18.08l123.56,16C848,997.64,845.22,999.93,845.22,999.93ZM1913.07,894.74c-3.81,2.35-9.66,2-9.66,2l1.17,9.66s10.83-4.1,7.61,4.39c-3.81,7.32-22.24,54.14-73.75,82.24-10.54,5.26-60.58,24.29-109.45,15.21-22.25-5.26-72.58-18.14-72.58-18.14l-36.85-.49V969.88H908V984c-16.08-2.65-60.23-9.87-65.27-10.35C820,971.46,722.63,969.51,725,969.86c0,0-12.38,1.77-13.69-15.86.19-16.69,2.87-115.28,2.87-115.28s9.8-65.11,28.85-85.24c4.9-4.36,111.29-81.91,111.29-81.91l9-12.24-16.76-5-30.41,19.95s-15.86-21.91-45-27.14c-17.49-6-68.17-17.5-83.21-23.87-23.87-6.54-48.4-42.35-49.21-49.87a53.28,53.28,0,0,0,4.74-7.19s5.56,17.16,27.63,29.43c2.94,2,17.82,14.22,50.35,16.35,15.21,3.43,67.2,4.57,96.3,25.83,4.09-2,24.52-15.86,24.52-15.86l7.36,4.09,33.68-48.72s3.43-12.76-3.27-28c0,0-11.12-38.58-44.14-53.14-5.56-3.1-59.19-28.44-59.19-28.44s-41.85-15-62.94-16.51c-5.4-1.15-29.43-7.2-31.56-8.18a135.46,135.46,0,0,1-22.56-10.63c-17.49-8.33-68-41.85-68-41.85a32,32,0,0,0-21.74-1.8c-4.42.66-30.25,3.76-30.25,3.76s-13.73,2.78-14.06,9.81,10,15.7,10,15.7,10.06,20.17,5.18,29.12-8.34,14-28.06,12.61-40.07-1-48-6.51a36.15,36.15,0,0,0,1-5.49l58.58.21s7.93-3.46,7.52-11.6-4.06-15.05-13.42-19.32-34.78-18.71-34.78-18.71a19.63,19.63,0,0,1-2.64-9.15c0-4.88,1-21.56,1-21.56l10.58-1.42-1.22-6.92s-46,.41-84-17.49c-6.71-3.25-57.55-31.32-57.55-31.32l-1.22,1.83s-34.78-21.56-88.27-28.07C253,283.07,30,242.13,30,242.13s-16-57.31-4.09-95.69c0,0,12.86-51.83,47.48-83.09,0,0,23.54-17.6,35.6-22.55.2-2.17-.59-2.77-.59-2.77s-24.92,11.48-37,22c0,0,22.55-22.55,35.21-25.52a3.64,3.64,0,0,0,.79,2L201,44.76l.79-2,72.8,6.13s36.4,4.55,63.11,13.46c11.87,5.34,82.88,44.11,91.39,47.47,4.15,1.78,169.14,71,169.14,71L843.9,283.53s169.88,74.37,200.44,81c3.56-2,9.42-4.62,13.86-3s181.22,63.78,181.22,63.78,133,44.3,140.92,48,42.78,19.52,64.38,19.11c-1.67,2.08-5.84,12.62-5.84,12.62l-86.44-30.92-26.23.21s22.78,8.95,28.06,30.5c.82,3,10.58,24.61-12,49.43-5.7,4.88-32.14,17.69-32.14,17.69s-2.85,9.56-1.63,12,3.51,8.43,16.62,6.67,48.36-3.13,93.19-46c9-11.16,19.39-28,19.39-28s10.76-12.93,20.16-9.4c1.18,3.91-12.92,21.53-19.38,27.21s-29,38.77-58,54.23c-8.81,3.72-58.93,24.86-96.32,15.27-13.51-5.09-45.43-27.55-75.28-28.73s-42.14,1.18-42.14,1.18l-22.25,16.38L1122.61,697.2s18.14,30.73,31,40.1c7,4.68,56.19,5.56,56.19,5.56L1424,758.66l92.77,8.78,2.64-38.92s.58-5-5.86-7.91S1441,687.25,1441,687.25s-35.7-19.9-39.8-61.75c.3-11.12,2.64-39.8,22.54-60.29,10.83-14,26.92-39.21,49.75-33.94,16.39,5,134,37.75,134,37.75l67.31,14.34s13.17-4.1,25.17,1.75,76.09,20.2,76.09,20.2,62.05,6.44,65.85,6.44,20.19,4.68,18.44,25.75-2.34,66.14-.59,74.92,29.27,130.52,29.27,130.52L1916,884.21S1918.92,890.94,1913.07,894.74Z"/><path class="cls-2" d="M1787.15,796.24s-6.22,1.63-12.16,2.84-11.08,5.41-11.89,12.7-6.62,14.86-9.87,16.08S1741,839.58,1741,839.58L1738.14,871l-6.06,1.16-64.66-37.52-59.74-24-7.51,8.37-393.84-15.26-34.7,3.91s-64,11.25-86,7.86c-36.34-11.8-38.92-33.08-41.09-40.4-13.42-14.51-17.39-29.49-21.44-44.89s.6-37.5.6-37.5,7.64-26.62,11-41.11-8.65-19.59-8.65-19.59-26.54-7-31.2-8.35C996.41,611.26,1001,611,1001,611l.52-1L992,607.81,986.7,621s-3.75-1.13-8.45-2.44c-12-3.2-18.59,4.5-18.59,4.5L933.55,655s-67.23,78.12-70.8,83.76-43,39.25-58.59,81.5c-11.64,36.06-7.51,56.53-2.07,71.18,12.21,27.61,46.58,28.17,46.58,28.17s111-9.95,127-11.08,53-10.89,62-13.33c9.76-1.88,12.58-10,14.08-13.53.94-11.08,7.89-11.64,7.89-11.64h73.62v4.13h15v-4.32h3.38v4.51h25.35v9.2h13.9v24.09l402.22,2V899.15l152,1.37,3-4.41,23.73-1.93s.16-1.73.16-5.79,7.57-7,10.27-8.37c15.41-6.08,17.43-25,17.43-25ZM996.26,638.08l25.33,6.46s8.28,3.29,3.65,15.1-12.54,35.19-12.29,48.83.45,21,.45,21l-7.48,1-11.29-91.6S994.71,637.62,996.26,638.08Zm47.67,247.43c-2.23,3.34-5.09,4.77-11.29,6s-51.92,11-62.89,12.28c-15.88,2.84-108.54,9.08-108.54,9.08s-34.23,3.4-49.93-18c-4.92-6.81-15.13-18.54-5.67-61.84,7.18-31.2,34-62.6,38.77-67.51s70.91-79.81,70.91-79.81,4.67-6.17,15.1-2.23l64.4,52.63s-2.54,11.77,1.11,13.36c5.73,3,16.54,5.09,19.56,5.41s6,2.86,9.7,8.58S1037.89,782,1037.89,782s4.13,10.81-.16,17.49-8.91,8.43-12.25,21.31c-1.11,4-5.88,17.81-12.88,20.2-11.13,5.24-26.4,5.4-28.46,15.74s4.29,21.15,20,23.53c4.14.8,35.94,1.59,35.94,1.59S1046.15,882.17,1043.93,885.51Zm33.26-25.81h-16.92s-4-.67-10.72,5.86-8.54,7.71-15.57,7.71-24.29,1.17-24.29,1.17-12.73.67-17.76-6.87-2.34-12.73,6.2-15.91,21.94-2.68,27.14-13.57c5.86-14.07,8.54-26,12.73-29.82,2.51-3.35,7.87-9.54,12.56-4.52a57,57,0,0,0,6.2,5S1072.84,819.5,1080,821c2.68.67,4.19,2,4,6s.5,26.64.5,26.64S1085.9,859.7,1077.19,859.7Z"/><path class="cls-2" d="M1025.28,711.56l18.78-.31s-2.42,36.36,30,60.9c5.15,3.64,18.48,19.69,57.86,17.27a87.06,87.06,0,0,1,2.12,12.42s-31.81,9.7-62.41-8.48C1052.85,781.85,1026.79,757.61,1025.28,711.56Z"/><path class="cls-2" d="M1033.49,596.77l26.91-96.46,9.19-13.78,53.59,14,.22,2.4s-28.66,4.16-39.16,32.16c-9.19,28.21-21.87,74.8-21.87,74.8S1042.46,596.33,1033.49,596.77Z"/><path class="cls-2" d="M1579.36,670.18l-14.67,20.25s37.37,24.28,29.51,59c-4.37,19.21-10.13,43.48-36.49,55.53.34,1.75.52,3.15,6.46,3.15s44.7,9.77,56.75-41.56c0,0,8.2-28.12-10.31-64.61C1604.85,693.05,1599.61,682.75,1579.36,670.18Z"/><path class="cls-2" d="M1628.27,965.39l114.47,27.9s43.72,8.34,68.17-2.88c18.7-8.91,40.84-8.91,72.77-57.23-1.44-7.48-10.64-50-19.27-60.69-1.73,6.61-12.08,48.89-35.38,64.43-18.41,11.79-36.53,19-77.66,19.84-24.74-.29-123.39.58-123.39.58Z"/><path class="cls-2" d="M1778.94,618.19l58.41,11.65s9.57.8,10.37,17.39,0,63.51,0,63.51l16.43,69.74s2.4,10.21-1.91,14.2-12.45,8.93-12.45,8.93l-24.25-95.74s-10.37-36.7-13.09-44.2-8.61-23.3-27.76-39.25A38.72,38.72,0,0,1,1778.94,618.19Z"/></g><g id="Buildings"><rect class="cls-4" x="1124.43" y="827.66" width="32.56" height="33.46"/><path class="cls-4" d="M1164.36,873.35h-82.75A13.67,13.67,0,0,0,1067.94,887h0a13.67,13.67,0,0,0,13.67,13.67H1178V887h0V873.35Z"/><rect class="cls-4" x="1205.45" y="807.11" width="10.3" height="8.92"/><rect class="cls-4" x="1226.86" y="805.88" width="33.08" height="18.67"/><rect class="cls-4" x="1269.01" y="807.8" width="21.14" height="6.45"/><rect class="cls-4" x="1299.48" y="809.03" width="63.56" height="19.9"/><path class="cls-4" d="M1533.71,830l61.28-.73s35.63-.59,43,34c-2.34.59-11.43,2.64-11.43,2.64s-1.18-20.38-30.21-24.78h-63Z"/><rect class="cls-4" x="1661.95" y="846.34" width="42.73" height="16.51" transform="translate(701.83 -758.04) rotate(31.76)"/><rect class="cls-4" x="1708.94" y="864.18" width="16.83" height="14.12" transform="translate(715.69 -773.46) rotate(31.76)"/><rect class="cls-4" x="1773.71" y="800.67" width="16.42" height="32.95" transform="matrix(0.97, -0.25, 0.25, 0.97, -148.2, 474.22)"/><rect class="cls-4" x="1193.8" y="595.07" width="24.36" height="127.65" transform="matrix(1, 0.09, -0.09, 1, 62.09, -102.71)"/><rect class="cls-4" x="1227.27" y="597.57" width="24.36" height="127.65" transform="translate(62.44 -105.62) rotate(5.01)"/><polygon class="cls-4" points="1118.47 579.84 1132.36 583.03 1108.45 690.04 1091.38 687.31 1118.47 579.84"/><rect class="cls-4" x="907.98" y="969.88" width="711.59" height="22.37"/><polygon class="cls-4" points="693.02 812.4 700.86 815.61 730.8 739.04 783.66 697.84 777.63 691.01 721.76 733.41 693.02 812.4"/><path class="cls-4" d="M853.94,632.73s24.84-27,39.92-56a71.68,71.68,0,0,0,1.44-13.5l17.8.57s.29,14.94-6.89,26.43c-5.31,10.91-29.29,44.65-36.91,52.84C866.58,641.06,853.94,632.73,853.94,632.73Z"/><path class="cls-4" d="M900,554l13.06-4s-3.59-28.44-22.83-51.41c-4.45-6.18-20.68-22.11-41.93-31.59-1.44,3.87-5.89,14.21-5.89,14.21s26,12.07,34.75,25.56C879.36,510,894.15,528.62,900,554Z"/><rect class="cls-4" x="890.39" y="409.07" width="44.73" height="7.99" transform="translate(296.36 -376.75) rotate(27.68)"/><rect class="cls-4" x="382.62" y="224.22" width="27.4" height="14.27" transform="translate(133.2 -144.62) rotate(24.74)"/></g></svg>