<svg id="Background_Details" data-name="Background Details" xmlns="http://www.w3.org/2000/svg" viewBox="0 0 1920 1080"><defs><style>.cls-1{fill:#636466;}.cls-2{fill:#c7c8ca;}</style></defs><g id="Pavement"><path class="cls-1" d="M451.05,581l-.12-.07a.75.75,0,0,1-.07.12l.12.07Z"/><path class="cls-1" d="M452.79,580.52l-.12-.07a.75.75,0,0,1-.07.12l.12.07Z"/><path class="cls-1" d="M453.29,582.24a.7.7,0,0,1-.17-.09l-.1.17a.59.59,0,0,1,.17.1A1.62,1.62,0,0,1,453.29,582.24Z"/><path class="cls-1" d="M452.29,578.8l-.06,0,0,.05.06,0Z"/><path class="cls-1" d="M452.55,586.15a.89.89,0,0,1-.27-.15,1.2,1.2,0,0,1-.16.27.92.92,0,0,1,.27.16A1.12,1.12,0,0,1,452.55,586.15Z"/><polygon class="cls-1" points="451.79 577.07 451.78 577.07 451.77 577.08 451.78 577.08 451.79 577.07"/><path class="cls-1" d="M453.79,584a1,1,0,0,1-.22-.13,1.59,1.59,0,0,1-.13.22l.22.13A1.59,1.59,0,0,1,453.79,584Z"/><path class="cls-1" d="M454,578.34l-.06,0,0,.05.07,0Z"/><polygon class="cls-1" points="453.53 576.61 453.52 576.61 453.51 576.62 453.52 576.62 453.53 576.61"/><path class="cls-1" d="M454.29,585.69a.89.89,0,0,1-.27-.15,1.2,1.2,0,0,1-.16.27.92.92,0,0,1,.27.16A1.12,1.12,0,0,1,454.29,585.69Z"/><path class="cls-1" d="M450.31,584.89a1.55,1.55,0,0,1-.22-.12,2.39,2.39,0,0,1-.13.21l.22.13A1,1,0,0,1,450.31,584.89Z"/><path class="cls-1" d="M450.05,590.52a.26.26,0,0,0-.52.07v.12a1.5,1.5,0,0,1,.32.19A1.07,1.07,0,0,1,450.05,590.52Z"/><path class="cls-1" d="M449.86,596.15a.89.89,0,0,1-.35-.14c0,.24,0,.48,0,.74A.93.93,0,0,1,449.86,596.15Z"/><path class="cls-1" d="M451.55,582.7a.56.56,0,0,1-.17-.09l-.1.17a.59.59,0,0,1,.17.1A1.62,1.62,0,0,1,451.55,582.7Z"/><path class="cls-1" d="M1640.74,414.07c-7.63-55.92-49.35-136.53-87.93-199.33-29.74-48.41-88-82.16-127.3-104.53a29,29,0,0,0-14.38-3.81h-91.44c-8.75,0-10.59,12.36-2.21,14.9q4.61,1.4,8.79,2.82c46.21,15.7,118.88,36.34,151.22,67.29s75.32,84.79,95.22,127,47.39,116.19,55.47,178.1-2.69,189.75-16.15,272.3-61.46,162.39-98.66,200.59S1383.69,1059,1324,1080h133.69c3.59-5.47,35.88-47.47,43-56s43.08-35.89,55.19-60.08,61.91-116.67,75.37-160.62,11.66-144,19.29-200S1648.36,470,1640.74,414.07Z"/><path class="cls-1" d="M450.81,586.61a.89.89,0,0,1-.27-.15,1.75,1.75,0,0,1-.16.27,1.07,1.07,0,0,1,.27.16A1.12,1.12,0,0,1,450.81,586.61Z"/><path class="cls-1" d="M450.55,579.26l-.06,0,0,0,.06.05A.43.43,0,0,1,450.55,579.26Z"/><path class="cls-1" d="M456,587.09a.94.94,0,0,1,.32.19.92.92,0,0,1,.18-.32,1.57,1.57,0,0,1-.31-.18A1.23,1.23,0,0,1,456,587.09Z"/><path class="cls-1" d="M456.85,590.59a1.06,1.06,0,0,1,.43.26,1,1,0,0,1,.25-.44,1.22,1.22,0,0,1-.43-.24A1.07,1.07,0,0,1,456.85,590.59Z"/><path class="cls-1" d="M455.61,596.48a1,1,0,0,1-.66-.37,1,1,0,0,1-.39.65.94.94,0,0,1,.67.41A.93.93,0,0,1,455.61,596.48Z"/><path class="cls-1" d="M455.51,592.8a.89.89,0,0,1,.5.3,1.08,1.08,0,0,1,.29-.51,1,1,0,0,1-.49-.28A1.09,1.09,0,0,1,455.51,592.8Z"/><path class="cls-1" d="M456.44,588.84a.94.94,0,0,1,.37.22,1.28,1.28,0,0,1,.21-.38,1,1,0,0,1-.36-.2A1.13,1.13,0,0,1,456.44,588.84Z"/><path class="cls-1" d="M456.25,594a1,1,0,0,1-.34.56,1,1,0,0,1,.58.36,1,1,0,0,1,.34-.6A1,1,0,0,1,456.25,594Z"/><path class="cls-1" d="M457.25,592.34a1,1,0,0,1,.51.3,1,1,0,0,1,.28-.51,1.05,1.05,0,0,1-.49-.28A1,1,0,0,1,457.25,592.34Z"/><path class="cls-1" d="M457.76,586.63a.94.94,0,0,1,.32.19,1.11,1.11,0,0,1,.18-.32,1.57,1.57,0,0,1-.31-.18A1.23,1.23,0,0,1,457.76,586.63Z"/><path class="cls-1" d="M457.35,596a1,1,0,0,1-.66-.37,1,1,0,0,1-.39.65.94.94,0,0,1,.67.41A.93.93,0,0,1,457.35,596Z"/><path class="cls-1" d="M454.7,589.3a.94.94,0,0,1,.37.22,1,1,0,0,1,.21-.38,1,1,0,0,1-.36-.2A1.13,1.13,0,0,1,454.7,589.3Z"/><path class="cls-1" d="M453.87,596.94a1,1,0,0,1-.66-.37,1,1,0,0,1-.4.65.94.94,0,0,1,.68.41A.93.93,0,0,1,453.87,596.94Z"/><path class="cls-1" d="M453.37,591.51a1.06,1.06,0,0,1,.43.26,1,1,0,0,1,.25-.44,1.14,1.14,0,0,1-.43-.24A1.12,1.12,0,0,1,453.37,591.51Z"/><path class="cls-1" d="M452.77,594.91a1,1,0,0,1-.34.56,1,1,0,0,1,.58.36,1.05,1.05,0,0,1,.33-.6A1,1,0,0,1,452.77,594.91Z"/><path class="cls-1" d="M453,589.76a.94.94,0,0,1,.37.22,1,1,0,0,1,.21-.38,1,1,0,0,1-.37-.2A1.1,1.1,0,0,1,453,589.76Z"/><path class="cls-1" d="M453.77,593.26a.89.89,0,0,1,.5.3,1.08,1.08,0,0,1,.29-.51,1,1,0,0,1-.49-.28A1.18,1.18,0,0,1,453.77,593.26Z"/><path class="cls-1" d="M458.18,588.38a.87.87,0,0,1,.37.22,1.28,1.28,0,0,1,.21-.38,1.07,1.07,0,0,1-.36-.2A1.13,1.13,0,0,1,458.18,588.38Z"/><path class="cls-1" d="M455.11,591.05a1.06,1.06,0,0,1,.43.26,1,1,0,0,1,.25-.44,1.14,1.14,0,0,1-.43-.24A1.12,1.12,0,0,1,455.11,591.05Z"/><path class="cls-1" d="M454.51,594.45a1,1,0,0,1-.34.56,1,1,0,0,1,.58.36,1.05,1.05,0,0,1,.33-.6A1,1,0,0,1,454.51,594.45Z"/><path class="cls-1" d="M454.28,587.55a1,1,0,0,1,.32.19.92.92,0,0,1,.18-.32,1.57,1.57,0,0,1-.31-.18A1.23,1.23,0,0,1,454.28,587.55Z"/><path class="cls-1" d="M459.09,595.56a1,1,0,0,1-.66-.37,1,1,0,0,1-.39.65.54.54,0,1,0,1-.28Z"/><path class="cls-1" d="M458.59,590.13a1,1,0,0,1,.43.26,1,1,0,0,1,.25-.44,1.22,1.22,0,0,1-.43-.24A1.07,1.07,0,0,1,458.59,590.13Z"/><path class="cls-1" d="M460.17,599a.71.71,0,0,0-1.38.36.91.91,0,0,1,.91.63A.89.89,0,0,1,460.17,599Z"/><path class="cls-1" d="M462.79,597.59a.76.76,0,0,0,.39,1.47.91.91,0,0,1,.48-1A.94.94,0,0,1,462.79,597.59Z"/><path class="cls-1" d="M463.86,596a1.15,1.15,0,0,1-.22.22.88.88,0,0,1,.32.07Z"/><path class="cls-1" d="M456.69,599.91a.92.92,0,0,1-.86-.48,1,1,0,0,1-.52.85.88.88,0,0,1,.9.62A.91.91,0,0,1,456.69,599.91Z"/><path class="cls-1" d="M461.92,598.53a.94.94,0,0,1-.87-.48.92.92,0,0,1-.52.84.73.73,0,1,0,1.39-.36Z"/><path class="cls-1" d="M463.26,594.46a.29.29,0,0,1,.1,0l0-.1S463.29,594.44,463.26,594.46Z"/><path class="cls-1" d="M461.9,596.68a.91.91,0,0,1,.77.47.94.94,0,0,1,.44-.79,1,1,0,0,1-.75-.42A1,1,0,0,1,461.9,596.68Z"/><path class="cls-1" d="M458.43,599.45a.93.93,0,0,1-.86-.48,1,1,0,0,1-.52.85.87.87,0,0,1,.9.62A.91.91,0,0,1,458.43,599.45Z"/><path class="cls-1" d="M459,591.88a1,1,0,0,1,.5.3,1,1,0,0,1,.28-.51,1.1,1.1,0,0,1-.49-.28A1.07,1.07,0,0,1,459,591.88Z"/><path class="cls-1" d="M452.54,588a1,1,0,0,1,.32.19.92.92,0,0,1,.18-.32,2,2,0,0,1-.32-.18A1,1,0,0,1,452.54,588Z"/><path class="cls-1" d="M458,593.53a1,1,0,0,1-.34.56,1,1,0,0,1,.58.36,1,1,0,0,1,.34-.6A1,1,0,0,1,458,593.53Z"/><path class="cls-1" d="M460.45,595.79a.93.93,0,0,1,.38-.69,1,1,0,0,1-.66-.37,1,1,0,0,1-.39.65A.93.93,0,0,1,460.45,595.79Z"/><path class="cls-1" d="M459.39,593.63a1,1,0,0,1,.59.36,1,1,0,0,1,.33-.6,1.05,1.05,0,0,1-.58-.32A.92.92,0,0,1,459.39,593.63Z"/><path class="cls-1" d="M453.21,600.83a1,1,0,0,1-.87-.48.92.92,0,0,1-.51.85.88.88,0,0,1,.9.62A.91.91,0,0,1,453.21,600.83Z"/><path class="cls-1" d="M451.47,601.29a.72.72,0,0,0-1.39.37.9.9,0,0,1,.91.62A.91.91,0,0,1,451.47,601.29Z"/><path class="cls-1" d="M455,600.37a1,1,0,0,1-.87-.48.92.92,0,0,1-.51.85.88.88,0,0,1,.9.62A.91.91,0,0,1,455,600.37Z"/><path class="cls-1" d="M454.53,580.06a.41.41,0,0,1-.11-.07l-.08.12a.35.35,0,0,1,.12.07A.75.75,0,0,0,454.53,580.06Z"/><path class="cls-1" d="M458,579.14l-.12-.07-.07.12.12.07A.75.75,0,0,1,458,579.14Z"/><path class="cls-1" d="M457.51,577.42l-.06,0,0,.05.07,0Z"/><path class="cls-1" d="M458.51,580.86a.65.65,0,0,1-.16-.09c0,.06-.07.11-.1.16l.17.11A1.51,1.51,0,0,1,458.51,580.86Z"/><polygon class="cls-1" points="457.01 575.69 457 575.69 457 575.7 457.01 575.7 457.01 575.69"/><path class="cls-1" d="M457.77,584.77a.89.89,0,0,1-.27-.15.22.22,0,1,0,.11.43A1.56,1.56,0,0,1,457.77,584.77Z"/><path class="cls-1" d="M459.82,586.36A.94.94,0,0,1,460,586a1.65,1.65,0,0,1-.32-.18,1.2,1.2,0,0,1-.18.31A1,1,0,0,1,459.82,586.36Z"/><path class="cls-1" d="M460.29,588.14a1.28,1.28,0,0,1,.21-.38,1.07,1.07,0,0,1-.36-.2,1.31,1.31,0,0,1-.21.36A.9.9,0,0,1,460.29,588.14Z"/><path class="cls-1" d="M459.51,584.31a1.22,1.22,0,0,1-.27-.15.92.92,0,0,1-.16.27,1.12,1.12,0,0,1,.28.16A1.08,1.08,0,0,1,459.51,584.31Z"/><path class="cls-1" d="M459,582.59a1.27,1.27,0,0,1-.22-.13.94.94,0,0,1-.12.22l.22.13A.94.94,0,0,1,459,582.59Z"/><polygon class="cls-1" points="455.27 576.15 455.26 576.15 455.26 576.15 455.27 576.16 455.27 576.15"/><path class="cls-1" d="M452,593.72a1,1,0,0,1,.5.3.41.41,0,1,0-.21-.79A1.07,1.07,0,0,1,452,593.72Z"/><path class="cls-1" d="M455.53,583.51a.18.18,0,1,0-.35.09l.22.13A1.59,1.59,0,0,1,455.53,583.51Z"/><path class="cls-1" d="M455,581.78a.7.7,0,0,1-.17-.09.86.86,0,0,1-.1.16l.17.11A1.62,1.62,0,0,1,455,581.78Z"/><path class="cls-1" d="M457.27,583.05a.18.18,0,1,0-.35.09,1.16,1.16,0,0,1,.22.13A1.59,1.59,0,0,1,457.27,583.05Z"/><path class="cls-1" d="M456,585.23a.89.89,0,0,1-.27-.15.22.22,0,0,0,.11.43A1.12,1.12,0,0,1,456,585.23Z"/><path class="cls-1" d="M456.77,581.32a.7.7,0,0,1-.17-.09.83.83,0,0,1-.09.16l.17.11A1.51,1.51,0,0,1,456.77,581.32Z"/><path class="cls-1" d="M455.77,577.88l-.06,0,0,0,.07.05Z"/><path class="cls-1" d="M456.27,579.6a.41.41,0,0,1-.11-.07l-.07.12.12.07Z"/><path class="cls-1" d="M460.77,589.93a1,1,0,0,1,.24-.44.35.35,0,0,0-.68.18A1.1,1.1,0,0,1,460.77,589.93Z"/><path class="cls-1" d="M450.8,588.47a1.18,1.18,0,0,1,.32.19.92.92,0,0,1,.18-.32,1.26,1.26,0,0,1-.32-.18A1,1,0,0,1,450.8,588.47Z"/><path class="cls-1" d="M449.88,592.43a1,1,0,0,1,.44.26.92.92,0,0,1,.25-.44,1.14,1.14,0,0,1-.43-.24A1,1,0,0,1,449.88,592.43Z"/><path class="cls-1" d="M450.29,594.18a1,1,0,0,1,.5.3.94.94,0,0,1,.29-.51,1.08,1.08,0,0,1-.5-.28A1.07,1.07,0,0,1,450.29,594.18Z"/><path class="cls-1" d="M449.6,597.83l0,.41a.93.93,0,0,1,.37.31.55.55,0,0,0-.28-1.06A.87.87,0,0,1,449.6,597.83Z"/><path class="cls-1" d="M451.22,590.22a1.07,1.07,0,0,1,.37.22,1,1,0,0,1,.21-.38,1,1,0,0,1-.37-.2A1.1,1.1,0,0,1,451.22,590.22Z"/><path class="cls-1" d="M451,595.37a1,1,0,0,1-.34.56,1,1,0,0,1,.58.36,1,1,0,0,1,.33-.6A1,1,0,0,1,451,595.37Z"/><path class="cls-1" d="M450.48,600.37a.94.94,0,0,1,.44-.79,1,1,0,0,1-.75-.42,1,1,0,0,1-.37.65s0,.07,0,.1A1,1,0,0,1,450.48,600.37Z"/><path class="cls-1" d="M452.13,597.4a1,1,0,0,1-.66-.37,1,1,0,0,1-.4.65.91.91,0,0,1,.67.41A1,1,0,0,1,452.13,597.4Z"/><path class="cls-1" d="M451.63,592a1.06,1.06,0,0,1,.43.26.92.92,0,0,1,.25-.44,1.14,1.14,0,0,1-.43-.24A1.12,1.12,0,0,1,451.63,592Z"/><path class="cls-1" d="M461.13,593.17a1,1,0,0,1,.59.36.93.93,0,0,1,.33-.6,1,1,0,0,1-.57-.32A1,1,0,0,1,461.13,593.17Z"/><path class="cls-1" d="M461.52,594.92a.93.93,0,0,1,.67.41,1,1,0,0,1,.38-.69,1,1,0,0,1-.66-.37A1,1,0,0,1,461.52,594.92Z"/><path class="cls-1" d="M460.93,597.61a.94.94,0,0,1,.44-.79,1,1,0,0,1-.76-.42.94.94,0,0,1-.45.74A.91.91,0,0,1,460.93,597.61Z"/><path class="cls-1" d="M459.19,598.07a.94.94,0,0,1,.44-.79,1,1,0,0,1-.76-.42.94.94,0,0,1-.45.74A.92.92,0,0,1,459.19,598.07Z"/><path class="cls-1" d="M461.24,591.72a.94.94,0,0,1,.29-.51,1.08,1.08,0,0,1-.5-.28,1.07,1.07,0,0,1-.29.49A1,1,0,0,1,461.24,591.72Z"/><path class="cls-1" d="M455.71,599a.92.92,0,0,1,.44-.79,1,1,0,0,1-.76-.42.94.94,0,0,1-.45.74A.92.92,0,0,1,455.71,599Z"/><path class="cls-1" d="M454,599.45a.91.91,0,0,1,.43-.79.62.62,0,0,0-1.2.32A.92.92,0,0,1,454,599.45Z"/><path class="cls-1" d="M457.45,598.53a.92.92,0,0,1,.44-.79,1,1,0,0,1-.76-.42.94.94,0,0,1-.45.74A.92.92,0,0,1,457.45,598.53Z"/><path class="cls-1" d="M452.23,599.91a.91.91,0,0,1,.43-.79,1,1,0,0,1-.75-.42,1,1,0,0,1-.45.74A.92.92,0,0,1,452.23,599.91Z"/><path class="cls-1" d="M452.05,584.43a1,1,0,0,1-.22-.13,1.59,1.59,0,0,1-.13.22l.22.13A1,1,0,0,1,452.05,584.43Z"/><path class="cls-1" d="M464.4,597.62a.31.31,0,1,0,.16.51C464.51,598,464.45,597.79,464.4,597.62Z"/><path class="cls-1" d="M1559.77,418C1549,379.6,1501.9,304.23,1472,274.29s-97.23-64.6-118.76-71.66-71.33-16.49-117.54-21.54c-21.3-2.69-79.17-9.42-120-12.33S958.42,155.75,890,158s-114.62,6.06-163.74,20.19S620,210.25,565.33,271.93s-89.6,135-99.25,191.33-3.58,131.67,42.17,216.45,141.42,160.15,239,172.6c71.86,9.16,140.26,7.2,206.53,5.81a91.11,91.11,0,0,0,4.76-11.19l71,1.34v9.55c44.6.7,138.77-1,172-1.59,38.36-.67,97.12-6.39,98.92-6.73s.89,2.25-.23,7.07-68.52,116.52-78.61,133-25.24,41.05-34,51.14-11.77,25.91-9.42,39.28h51.48c-6.73-4.46-11.78-20.1-6.39-33.22s41-78.06,55.85-102.28c6.5-10.65,41.28-72,53.25-91.43a17.23,17.23,0,0,0,1.82-3.83c1.54-4.87,5.8-10.54,19.28-16.45,24.56-10.76,84.79-44.74,122.81-80.07s73.34-109,88.48-162.51S1570.53,456.31,1559.77,418ZM969.41,599c-2.91-.22-7.83-2.46-9.41,1.8s-1.58,20.86-3.82,22-48.23,1.12-64.6,2.47-122,2.69-144.67.89S656.07,616.68,652.7,614s-7.05-11.26-4-18.46c6.16-14.76,15.58-33.22,24.53-49.81a37,37,0,0,1,54.22-12.4l.42.3c34.12,24.32,104.69,33.49,143.72,36.8,18.1,1.54,37.13,2.05,56.09,2.05,12.37,0,24.71-.22,36.75-.52h.23a5.41,5.41,0,0,1,5.82,5.48C970.53,579.22,972.33,599.19,969.41,599ZM845.72,467.59c-5-.29-10.51-.63-16.45-1-32.39-2-78.39-4.85-112.28-3.73a9.56,9.56,0,0,1-9.66-7.39l0-.08c-4.07-17.53,4.56-35.19,25.64-52.51,17.16-14.09,51.09-16,90.38-18.12,9.73-.53,19.78-1.08,30.17-1.84,43.1-3.16,123.65-3.15,233,0,21.92.63,43.16,1.15,63.5,1.56,0,0,35.35,3.16,48.47,4.85s16.15,28.93,18.17,42.39,0,26.24-8.75,31.29-37.34,5.72-60.56,6-73-14.8-86.8-21.19-50.13-9.42-59.89-8.41-10.43,11.1-14.47,14.8-24.24,18.65-31,18.39C910.41,471,865.63,468.75,845.72,467.59ZM950,489.79c-10.59,9-22.82,23-35.59,37.55l-1.27,1.45a46.63,46.63,0,0,1-39,15.74l-.23,0c-61-5.17-109.9-17.15-130.83-32.06-13.7-9.76-21.8-19.62-27.34-31.33a4.47,4.47,0,0,1,3.94-6.34c33-.91,77.45,1.84,108.92,3.79,6,.37,11.5.71,16.5,1,19,1.1,60.46,3.15,103.08,4.85A3,3,0,0,1,950,489.79Zm283.12,129.7c-2.07,3.26-20.65,2.86-32.62,3.18-5.22,0-32.39.18-58.7.35s-51.75.34-53.52.34c-3.53,0-4.54-47.78-3-49.46s31-2,37-2c5.53,0,35.23-.94,43.36-1.06l5.6,0c46.07.25,60.22,20,61.9,28.45S1235.43,615.79,1233.07,619.49Zm-.33-86.47c-5.38,7.06-39,10.43-59.48,11.68-.66,0-1.28.09-1.88.16-54.59-.39-112.31-.39-138.75-.39h-2.88c-12.9,0-27.86.43-43.71.89-18,.51-37.14,1.06-56.33,1.1a5.51,5.51,0,0,1-4.14-9.15l.08-.09c15.32-17.5,31.17-35.59,41.41-41.42,5.15-2.93,18-6.31,33.37-9.54,19.51.58,37.15.95,50.4.95,21.77,0,59.65-.42,98.14-1h0c18.17-.27,72.66,9.46,79.72,16.86S1238.12,526,1232.74,533Zm-15.43-183.37c-13.71,6.63-47.53,8.48-81.34,8.56-15.79-.35-32.08-.77-48.76-1.25-11.32-.33-23.21-.65-35.43-.94h-.06c-70.76-1.7-152.77-2.5-200.12,1-10.15.74-20.09,1.29-29.69,1.81-43.86,2.41-81.73,4.49-105.46,24-36.57,30-38.93,59.26-34.47,78.48.56,2.39,1.14,4.75,1.75,7.05a41.58,41.58,0,0,1-4.38,31.76l-.11.18c-9.88,16.69-22.73,38.4-33.63,60.23l0,0,0,.08c-3.78,7.57-7.31,15.16-10.41,22.55-3.61,7.36-7.26,14-9.58,15.58-5.16,3.59-30.28,6-39.48,3.59s-15.25-6-18.16-9c-12.79-18.18-27.82-70.85-17.72-116.52s48.89-128,84.56-155.79,76.48-50.47,76.48-50.47l4-11s25.82-12.11,52.74-18.39,95.1-16.83,155.22-16.38c0,0,22.54,11.1,31.95,13.46s127.86,23.55,139.3,25.23,86.8,16.49,106.32,20.53,24.89,20.18,31.29,32.3S1245.86,335.86,1217.31,349.65Zm271.47,197.5c-1,24.73-23.56,67.46-30.12,77.21s-26.07,34.32-35.57,44c-.26-.86-.74-1.33-1.35-1.33a2.34,2.34,0,0,0-1.6.9c-5.38,5.72-10.77,4.71-15.25,2.7s-26.81,11.77-36.9,16.15-32.3,13.45-38,11.43,1.68-10.76,4-15.47,20.86-37,23.89-44.41,6.73-8.08,12.45-11.11,30.28-18.16,32.29-20.86,1.35-16.15,1.35-34.65,2-39.7,0-54.5-13.79-43.74-21.87-62.58-28.26-65.27-34.32-75.37-27.25-35-35.66-42.05-18.5-25.24-21.53-32.3c-.36-.85-.67-1.62-.94-2.37-1.77-12.13,11.37-21,23.82-20s38.69,12.79,68.3,32,63.25,63.75,82.26,97.9S1489.79,522.42,1488.78,547.15Z"/><path class="cls-1" d="M953.77,858.12c-1.83,3.5-4,6.63-6,7.31-5,1.68-123.14,2.36-174.62-.67S689.37,854,672.21,847.6s-48.11-28.26-60.89-37-42.73-29.27-50.81-39.7-50.8-62.58-60.22-78.06c-4.61-7.58-13.66-31.45-22-54.79a.26.26,0,0,1-.14.11h0a.28.28,0,0,1-.35-.2.29.29,0,0,1,.2-.35h0a.32.32,0,0,1,.14,0l-.42-1.2,0,0h0a.31.31,0,0,1-.38-.22.31.31,0,0,1,.21-.37l-.4-1.11a.33.33,0,0,1-.3-.25.34.34,0,0,1,.1-.33l-.42-1.18a.33.33,0,0,1-.16-.22.34.34,0,0,1,0-.2c-1.39-4-2.75-7.86-4.05-11.62a.57.57,0,0,1-.41.58h0a.57.57,0,0,1-.69-.4.55.55,0,0,1,.4-.68h0a.55.55,0,0,1,.59.2l-.39-1.12a.56.56,0,0,1-.36.29h0a.58.58,0,0,1-.72-.42.58.58,0,0,1,.42-.71h0a.53.53,0,0,1,.39,0l-.27-.79a.59.59,0,0,1-.27.17h0a.61.61,0,1,1-.31-1.18h0a.62.62,0,0,1,.23,0l-.2-.59-.16.08h0a.64.64,0,0,1-.33-1.23h.1l-.17-.5,0,0h0a.67.67,0,0,1-.81-.47.66.66,0,0,1,.44-.79l-.16-.45a.68.68,0,0,1-.76-.49.69.69,0,0,1,.33-.77l-.15-.44a.7.7,0,0,1-.42-1.26l-.16-.46a.73.73,0,0,1-.57-.53.72.72,0,0,1,.16-.66c-.06-.19-.12-.38-.19-.57a.77.77,0,0,1-.46-.5.8.8,0,0,1,.09-.59l-.22-.67a.79.79,0,0,1-.36-.47.84.84,0,0,1,0-.47l-.31-.9a.86.86,0,0,1-.21-.36.92.92,0,0,1,0-.33c-.33-1-.66-2-1-2.92a.86.86,0,0,1-.63.88h0a.87.87,0,1,1-.45-1.69h0a.87.87,0,0,1,.91.31l-.3-.92a.9.9,0,0,1-.61.6h0a.89.89,0,0,1-1.08-.59.91.91,0,0,1-.66,1.05h0a.91.91,0,0,1-1.09-.59.89.89,0,0,1-.65,1h0a.91.91,0,0,1-1.09-.59.89.89,0,0,1-.65,1h0a.91.91,0,0,1-1.09-.59.89.89,0,0,1-.65,1.05h0a.9.9,0,0,0-1.73.46h0a.9.9,0,0,0-1.73.46h0a.89.89,0,0,1-1.08-.59.91.91,0,0,1-.65,1.05h0a.89.89,0,0,1-1.08-.59.91.91,0,0,1-.65,1v0a.86.86,0,0,1,1.07.62.88.88,0,0,1-.62,1.07h-.12l0,.11.1,0h0a.85.85,0,1,1,.44,1.64h0a.55.55,0,0,1-.18,0,1.62,1.62,0,0,1,0,.19l.17-.08h0a.82.82,0,0,1,1,.58.84.84,0,0,1-.59,1h0a.82.82,0,0,1-.22,0l.06.25a.68.68,0,0,1,.21-.1h0a.8.8,0,1,1,.41,1.54h0a1.1,1.1,0,0,1-.25,0c0,.1.05.21.08.32a.61.61,0,0,1,.23-.11h0a.77.77,0,1,1,.39,1.48h0a.71.71,0,0,1-.25,0c0,.13.07.25.1.37a.88.88,0,0,1,.22-.1h0a.73.73,0,0,1,.9.52.75.75,0,0,1-.53.91h0a.83.83,0,0,1-.22,0l.12.41a1.11,1.11,0,0,1,.19-.09h0a.71.71,0,0,1,.37,1.38h-.19c.05.15.09.29.13.44a1,1,0,0,1,.15-.07h0a.69.69,0,0,1,.84.49.7.7,0,0,1-.49.84h-.12c0,.16.09.32.14.47l.09,0h0a.66.66,0,0,1,.34,1.28h-.05l.16.48h0a.63.63,0,0,1,.36,1.21l.18.54a.6.6,0,0,1,.36,1.13l.21.63a.55.55,0,0,1,.53.43.57.57,0,0,1-.19.59c.09.26.18.51.26.77a.56.56,0,0,1,.37.38h0a.55.55,0,0,1-.09.45c.12.35.25.71.37,1.07a.55.55,0,0,1,.14.22.5.5,0,0,1,0,.21q1.89,5.43,4.14,11.44a.4.4,0,0,1,.2-.16h0a.36.36,0,0,1,.42.25.34.34,0,0,1-.25.42h0a.34.34,0,0,1-.2,0c.15.38.29.76.44,1.15l.05,0h0a.31.31,0,0,1,.38.22.3.3,0,0,1-.22.38l.45,1.18a.28.28,0,0,1,.21.18.29.29,0,0,1-.05.24c1.61,4.22,3.34,8.64,5.15,13.21h0a.07.07,0,0,1,.09,0,.07.07,0,0,1,0,.08c2.87,7.23,6,14.87,9.22,22.85,15.48,38,71.67,104,89.16,117.76s53.84,35.33,76.38,46.77l-19.52,29.94-113-90.17-58.21-49.79L435,750.7s1,7.74,1,10.09-1.35,5.39-3,9.42-8.07,11.44-10.43,14.47-6.06,9.09-6.06,14.13,3.37,7.07,6.73,13.12,22.21,15.82,27.59,19.52S462.27,850,460.59,851a105.42,105.42,0,0,0-13.8,11.11c-6.05,5.72-4.71,9.75-6.72,18.84s3,9.08,8.07,16.82,9.08,4,15.48,7.4,8.74,7.4,17.83,13.8,9.76,6.05,14.13,6.39,9.42-1,11.1-2.69a78.78,78.78,0,0,1,9.09-6.73c3-2,6.73,1,8.07,1.68s0,3.7-2.35,9.08-5.39,3.7-9.09,8.75,5.39,10.43,8.41,12.45,21.2,7.74,30,9.42,9.75,1.68,16.48,4,5.72,5.38,7.07,8.07,2.35,9.09,1.68,14.81-2.35,7.06-6.06,10.43-6.39,4.37-14.13,6.73-9.42,1.34-17.49.33-24.23-5.05-29.95-6.73-23.21-10.43-32-16.82-13.12-9.42-16.48-12.11-30.62-18.17-36.68-22.88-9.42-10.43-10.09-13.79,0-5.05-.34-7.74c-.1-.85-1.95-4.18-4.56-8.61H380.9c3.15,9,5.67,18.87,3.31,22.4-2.69,4-12.11,5.05-30.28,3s-53.15-9.08-62.24-12.11c-4.74-1.58-16.84-4.82-29.94-8v23.18c27.95,5.74,76.88,15,96.45,17.93,22.43,3.37,46,5.83,54.73,8.75s15.7,12.78,20.18,19.06,20.64,18.4,31.63,21.09,59.66,30,60.78,32.75-.22,29.15-5.83,38.94H723.8a103.78,103.78,0,0,0-25.57-7.09c-13.68-1.8-65.49-14.81-71.55-19.52s-1.34-19.51-1.57-24-4.48-18.84-8.52-21.53-4.94-9.65-5.16-13.68,7.63-23.55,7.63-23.55,38.35,9.64,40.59,8.07,14.36,1.57,19.29,2.47,12.79-4.49,17.27-5.61,31.41,4.49,31.41,4.49l-.23,30.28,10.77.67,1.12-32.75.67-34.76,116.64.89.67,21.09,131.22.89.67,7.18L993.41,994l-.9,40.6-51.14-2-.67-37.9-19.51.22v39l-62.36-1.8,1.8-47.77-13.24-.9-2.24,47.33-6.28.22,1.34-7-59.66-13.46-3.14,10.09-8.3-1.34-9.64,24,11.89,5.61,54.28,13.23L825,1080H936.21l72-26.83,47.56,1.34s-.34,13.46.67,17.84,45.42,3,51.48,3,2.69-13.12,2.35-18.5-57.2-14.13-57.2-14.13-28.93-3.37-35.63-4.71-12.81-9.09-12.48-13.46,4.38-80.07,4.38-80.07l156.78,2.69,8.08-4h38.35l37-33V880.23H1184l-154.43-3V857.82c-6.78-.11-12.41-.27-16.51-.5C993.43,857.32,973.7,857.7,953.77,858.12Zm-478-221.82a.32.32,0,0,1,.39.22.31.31,0,0,1-.23.38h0a.31.31,0,0,1-.38-.22.31.31,0,0,1,.22-.38Zm-.46-1.77a.35.35,0,0,1,.17.67h0a.35.35,0,1,1-.17-.67Zm0-1.5a.37.37,0,0,1-.26.46h0a.37.37,0,0,1-.19-.72h0A.37.37,0,0,1,475.33,633Zm-.43-1.74a.4.4,0,0,1-.28.49h0a.41.41,0,0,1-.49-.28.4.4,0,0,1,.29-.49h0A.39.39,0,0,1,474.9,631.29Zm-15.47-7.63h0a.57.57,0,0,1,.69.4.55.55,0,0,1-.4.68h0a.57.57,0,0,1-.69-.4h0A.56.56,0,0,1,459.43,623.66Zm-4.65-17.61h0a.82.82,0,1,1,.42,1.59h0a.82.82,0,1,1-.42-1.59Zm-1.07-.72a.85.85,0,0,1,.6-1h0a.85.85,0,1,1,.43,1.64h0A.85.85,0,0,1,453.71,605.33Zm16.52,23.95h0a.46.46,0,0,1-.55-.32.45.45,0,0,1,.32-.55h0a.45.45,0,0,1,.23.87Zm.76,1.19a.43.43,0,0,1-.3.52h0a.42.42,0,0,1-.21-.82h0A.42.42,0,0,1,471,630.47Zm-1.21-2.9h0a.49.49,0,0,1-.58-.34.47.47,0,0,1,.34-.58h0a.48.48,0,0,1,.24.92Zm-8.61-4.37h0a.56.56,0,1,1,.28,1.08h0a.57.57,0,0,1-.69-.4h0A.57.57,0,0,1,461.17,623.2Zm-3.72-14.08h0a.77.77,0,0,1,.93.55.77.77,0,0,1-.54.94h0a.76.76,0,0,1-.93-.55A.75.75,0,0,1,457.45,609.12Zm-1-.8a.79.79,0,0,1,.56-1h0a.8.8,0,0,1,.41,1.54h0A.79.79,0,0,1,456.42,608.32Zm10.72,16.28h0a.52.52,0,0,1-.64-.37.53.53,0,0,1,.38-.64h0a.52.52,0,1,1,.27,1Zm.81,1.1a.51.51,0,0,1-.36.62h0A.51.51,0,0,1,467,626a.5.5,0,0,1,.36-.61h0A.52.52,0,0,1,468,625.7Zm-1.26-2.8h0a.56.56,0,0,1-.28-1.08h0a.56.56,0,0,1,.29,1.08Zm-6.57-10.72h0a.71.71,0,0,1,.87.5.73.73,0,0,1-.51.88h0a.71.71,0,0,1-.37-1.38Zm-1-.86a.74.74,0,0,1,.53-.9h0a.74.74,0,0,1,.91.52.76.76,0,0,1-.53.91h0A.75.75,0,0,1,459.13,611.32Zm1.46,2.62h0a.69.69,0,0,1,.35,1.33h0a.69.69,0,0,1-.84-.49A.68.68,0,0,1,460.59,613.94Zm1.64-.84h0a.71.71,0,0,1-.37-1.38h0a.71.71,0,0,1,.87.5A.73.73,0,0,1,462.23,613.1Zm.94.87a.69.69,0,0,1-.49.84h0a.7.7,0,0,1-.84-.49.68.68,0,0,1,.49-.84h0A.68.68,0,0,1,463.17,614Zm-2.12,1.73h0a.66.66,0,0,1,.34,1.28h0a.66.66,0,1,1-.34-1.28Zm.47,1.76h0a.64.64,0,1,1,.33,1.23h0a.64.64,0,1,1-.32-1.23Zm1.28-2.22h0a.66.66,0,0,1,.34,1.28h0a.66.66,0,0,1-.8-.47A.65.65,0,0,1,462.8,615.24Zm.46,1.76h0a.64.64,0,1,1,.33,1.23h0a.64.64,0,1,1-.33-1.23Zm.46,1.76h0a.61.61,0,1,1,.31,1.18h0a.61.61,0,1,1-.32-1.18Zm.47,1.76h0a.58.58,0,1,1,.3,1.13h0a.58.58,0,1,1-.3-1.13Zm.47,1.76h0a.56.56,0,0,1,.29,1.08h0a.56.56,0,0,1-.28-1.08Zm.46,1.77h0a.52.52,0,1,1,.26,1h0a.52.52,0,0,1-.64-.37A.53.53,0,0,1,465.12,624.05Zm.47,1.76h0a.5.5,0,0,1,.26,1h0a.5.5,0,1,1-.25-1Zm.64-4.62h0a.58.58,0,1,1-.3-1.13h0a.58.58,0,1,1,.29,1.13Zm-.45-1.71h0a.61.61,0,0,1-.75-.43.61.61,0,0,1,.44-.75h0a.61.61,0,1,1,.31,1.18Zm-.45-1.71h0a.64.64,0,1,1-.33-1.23h0a.64.64,0,1,1,.33,1.23Zm-.45-1.71h0a.66.66,0,0,1-.8-.47.65.65,0,0,1,.47-.81h0a.66.66,0,0,1,.34,1.28Zm-.45-1.71h0a.7.7,0,0,1-.84-.49.69.69,0,0,1,.49-.84h0a.67.67,0,0,1,.83.49A.69.69,0,0,1,464.43,614.35Zm-.46-1.71h0a.71.71,0,0,1-.36-1.38h0a.71.71,0,0,1,.87.5A.73.73,0,0,1,464,612.64Zm-.45-1.71h0a.74.74,0,1,1-.38-1.43h0a.74.74,0,1,1,.38,1.43Zm-.45-1.72h0a.78.78,0,0,1-.94-.55.76.76,0,0,1,.54-.93h0a.78.78,0,0,1,.94.55A.76.76,0,0,1,463.07,609.21Zm-.76,1.27a.75.75,0,0,1-.53.91h0a.75.75,0,0,1-.91-.53.74.74,0,0,1,.53-.9h0A.74.74,0,0,1,462.31,610.48Zm-1-.8h0a.77.77,0,0,1-.93-.55.75.75,0,0,1,.54-.93h0a.77.77,0,0,1,.39,1.49Zm-.45-1.71h0a.8.8,0,0,1-.4-1.54h0a.8.8,0,1,1,.41,1.54Zm-.75,1.23a.77.77,0,0,1-.54.94h0a.77.77,0,0,1-.93-.55.75.75,0,0,1,.54-.93h0A.77.77,0,0,1,460.13,609.2Zm-1-.77h0a.8.8,0,1,1-.4-1.54h0a.8.8,0,0,1,.41,1.54Zm-1.22,2.45h0a.73.73,0,0,1,.9.52.74.74,0,0,1-.52.91h0a.74.74,0,1,1-.37-1.43Zm.46,1.76h0a.71.71,0,0,1,.87.5.72.72,0,0,1-.51.88h0a.71.71,0,1,1-.37-1.38Zm.47,1.76h0a.69.69,0,1,1,.35,1.33h0a.69.69,0,0,1-.84-.49A.68.68,0,0,1,458.85,614.4Zm.46,1.76h0a.66.66,0,0,1,.33,1.28h0a.66.66,0,1,1-.34-1.28Zm.47,1.76h0a.64.64,0,1,1,.33,1.23h0a.64.64,0,1,1-.32-1.23Zm.46,1.76h0a.61.61,0,0,1,.31,1.18h0a.61.61,0,0,1-.31-1.18Zm.47,1.76h0a.59.59,0,0,1,.72.42.59.59,0,0,1-.42.71h0a.58.58,0,0,1-.72-.41A.58.58,0,0,1,460.71,621.44Zm.84-1.47a.61.61,0,0,1,.43-.75h0a.61.61,0,1,1,.31,1.18h0A.61.61,0,0,1,461.55,620Zm.9,1h0a.59.59,0,0,1,.72.41.59.59,0,0,1-.42.72h0a.58.58,0,0,1-.72-.41A.59.59,0,0,1,462.45,621Zm.46,1.76h0a.56.56,0,1,1,.28,1.08h0a.55.55,0,0,1-.68-.4A.56.56,0,0,1,462.91,622.74Zm.47,1.77h0a.52.52,0,0,1,.26,1h0a.52.52,0,0,1-.64-.37A.53.53,0,0,1,463.38,624.51Zm.47,1.76h0a.5.5,0,0,1,.61.35.51.51,0,0,1-.35.62h0a.5.5,0,0,1-.25-1Zm.46,1.76h0a.48.48,0,0,1,.59.34.49.49,0,0,1-.34.58h0a.48.48,0,1,1-.24-.92Zm.47,1.76h0a.45.45,0,0,1,.55.32.46.46,0,0,1-.32.55h0a.45.45,0,0,1-.55-.32A.44.44,0,0,1,464.78,629.79Zm.46,1.76h0a.42.42,0,0,1,.21.82h0a.42.42,0,1,1-.22-.82Zm.48-3.4a.47.47,0,0,1,.33-.58h0a.47.47,0,0,1,.58.34.49.49,0,0,1-.34.58h0A.48.48,0,0,1,465.72,628.15Zm.8,1.18h0a.45.45,0,0,1,.55.32.46.46,0,0,1-.32.55h0a.45.45,0,1,1-.23-.87Zm.46,1.76h0a.42.42,0,0,1,.21.82h0a.42.42,0,0,1-.22-.82Zm.48-3.4a.47.47,0,0,1,.33-.58h0a.47.47,0,0,1,.58.34.48.48,0,0,1-.34.58h0A.48.48,0,0,1,467.46,627.69Zm.8,1.18h0a.45.45,0,0,1,.55.32.46.46,0,0,1-.32.55h0a.45.45,0,1,1-.23-.87Zm.47,1.76h0a.42.42,0,0,1,.21.82h0a.42.42,0,0,1-.21-.82Zm.6-4.77h0a.51.51,0,0,1-.62-.36.5.5,0,0,1,.36-.61h0a.5.5,0,1,1,.26,1Zm-.45-1.72h0a.52.52,0,0,1-.64-.37.53.53,0,0,1,.38-.64h0a.52.52,0,1,1,.27,1Zm-.45-1.7h0a.56.56,0,1,1-.28-1.08h0a.56.56,0,1,1,.29,1.08Zm-.45-1.71h0a.58.58,0,0,1-.3-1.13h0a.57.57,0,0,1,.71.41A.58.58,0,0,1,468,620.73Zm-.46-1.71h0a.61.61,0,1,1-.31-1.18h0a.61.61,0,1,1,.31,1.18Zm-.45-1.71h0a.64.64,0,1,1-.33-1.23h0a.64.64,0,1,1,.32,1.23Zm-.45-1.71h0a.66.66,0,1,1-.34-1.28h0a.66.66,0,0,1,.34,1.28Zm-.45-1.71h0a.69.69,0,1,1-.35-1.33h0a.69.69,0,0,1,.84.49A.7.7,0,0,1,466.17,613.89Zm-.45-1.71h0a.71.71,0,1,1-.36-1.38h0a.71.71,0,0,1,.87.5A.72.72,0,0,1,465.72,612.18Zm-.46-1.72h0a.74.74,0,0,1-.38-1.43h0a.73.73,0,1,1,.37,1.42Zm-.45-1.71h0a.78.78,0,0,1-.94-.55.76.76,0,0,1,.55-.93h0a.78.78,0,0,1,.94.55A.76.76,0,0,1,464.81,608.75Zm-.45-1.7h0a.8.8,0,1,1-.41-1.54h0a.8.8,0,1,1,.41,1.54Zm-.45-1.71h0a.82.82,0,0,1-.42-1.59h0a.82.82,0,0,1,1,.58A.84.84,0,0,1,463.91,605.34Zm-.72,1.2a.79.79,0,0,1-.57,1h0a.8.8,0,1,1-.41-1.54h0A.8.8,0,0,1,463.19,606.54Zm-1-.74h0a.81.81,0,0,1-1-.58.82.82,0,0,1,.58-1h0a.81.81,0,0,1,1,.58A.82.82,0,0,1,462.17,605.8Zm-.45-1.71h0a.85.85,0,1,1-.43-1.64h0a.85.85,0,1,1,.44,1.64Zm-.71,1.16a.82.82,0,0,1-.58,1h0a.81.81,0,0,1-1-.58.82.82,0,0,1,.58-1h0A.81.81,0,0,1,461,605.25Zm-1-.7h0a.85.85,0,1,1-.43-1.64h0a.85.85,0,1,1,.44,1.64Zm-.71,1.16a.82.82,0,0,1-.58,1h0a.82.82,0,0,1-1-.58.83.83,0,0,1,.59-1h0A.82.82,0,0,1,459.27,605.71Zm-1-.7h0a.85.85,0,1,1-.44-1.64h0a.85.85,0,1,1,.43,1.64Zm-.7,1.16a.83.83,0,0,1-.59,1h0a.82.82,0,0,1-1-.58.84.84,0,0,1,.59-1h0A.82.82,0,0,1,457.53,606.17Zm-1-.7h0a.85.85,0,1,1-.44-1.64h0a.85.85,0,1,1,.43,1.64Zm-1.25,2.34h0a.8.8,0,1,1,.4,1.54h0a.8.8,0,0,1-.41-1.54Zm.47,1.77h0a.77.77,0,0,1,.94.54.77.77,0,0,1-.54.94h0a.78.78,0,0,1-.94-.55A.76.76,0,0,1,455.71,609.58Zm.46,1.76h0a.73.73,0,0,1,.9.52.74.74,0,0,1-.52.91h0a.74.74,0,0,1-.38-1.43Zm.47,1.76h0a.71.71,0,1,1,.37,1.38h0a.71.71,0,0,1-.36-1.38Zm.47,1.76h0a.69.69,0,1,1,.35,1.33h0a.69.69,0,0,1-.35-1.33Zm.46,1.76h0a.66.66,0,0,1,.8.47.67.67,0,0,1-.47.81h0a.66.66,0,1,1-.34-1.28Zm.47,1.76h0a.64.64,0,0,1,.33,1.23h0a.64.64,0,1,1-.32-1.23Zm.46,1.76h0a.61.61,0,0,1,.32,1.18h0a.61.61,0,1,1-.31-1.18Zm.47,1.76h0a.59.59,0,0,1,.72.42.59.59,0,0,1-.42.71h0a.58.58,0,0,1-.72-.41A.58.58,0,0,1,459,621.9Zm.93,3.53h0a.52.52,0,0,1,.64.37.52.52,0,0,1-.37.64h0a.52.52,0,1,1-.27-1Zm.46,1.76h0a.5.5,0,1,1,.25,1h0a.5.5,0,0,1-.26-1Zm.47,1.76h0a.46.46,0,0,1,.58.34.47.47,0,0,1-.34.58h0a.49.49,0,0,1-.58-.34A.48.48,0,0,1,460.83,629Zm.44-3.34a.53.53,0,0,1,.37-.64h0a.52.52,0,0,1,.64.37.52.52,0,0,1-.37.64h0A.52.52,0,0,1,461.27,625.61Zm.83,1.12h0a.5.5,0,0,1,.61.35.51.51,0,0,1-.36.62h0a.5.5,0,0,1-.26-1Zm.47,1.76h0a.46.46,0,0,1,.58.34.47.47,0,0,1-.33.58h0a.48.48,0,0,1-.24-.92Zm.47,1.76h0a.45.45,0,1,1,.23.87h0a.45.45,0,0,1-.55-.32A.44.44,0,0,1,463,630.25Zm.46,1.76h0a.43.43,0,0,1,.52.3.42.42,0,0,1-.3.52h0a.42.42,0,1,1-.22-.82Zm.47,1.76h0a.39.39,0,0,1,.48.28.4.4,0,0,1-.28.49h0a.4.4,0,0,1-.2-.77Zm.46,1.76h0a.38.38,0,0,1,.46.27.37.37,0,0,1-.27.45h0a.37.37,0,0,1-.45-.26A.38.38,0,0,1,464.43,635.53Zm.47,1.76h0a.35.35,0,0,1,.42.25.34.34,0,0,1-.24.42h0a.34.34,0,0,1-.42-.25A.35.35,0,0,1,464.9,637.29Zm.46,1.77h0a.32.32,0,0,1,.38.22.31.31,0,0,1-.22.38h0a.31.31,0,0,1-.38-.22A.32.32,0,0,1,465.36,639.06Zm.07-5.26a.4.4,0,0,1,.28-.49h0a.39.39,0,0,1,.48.28.4.4,0,0,1-.28.49h0A.39.39,0,0,1,465.43,633.8Zm.74,1.27h0a.37.37,0,1,1,.18.72h0a.38.38,0,0,1-.45-.26A.39.39,0,0,1,466.17,635.07Zm.47,1.76h0a.35.35,0,0,1,.42.25.34.34,0,0,1-.24.42h0a.34.34,0,0,1-.42-.25A.36.36,0,0,1,466.64,636.83Zm.47,1.77h0a.32.32,0,0,1,.38.22.31.31,0,0,1-.22.38h0a.31.31,0,0,1-.39-.22A.32.32,0,0,1,467.11,638.6Zm.06-5.26a.4.4,0,0,1,.28-.49h0a.4.4,0,1,1,.2.77h0A.39.39,0,0,1,467.17,633.34Zm.75,1.27h0a.37.37,0,0,1,.19.72h0a.37.37,0,0,1-.45-.27A.38.38,0,0,1,467.92,634.61Zm.46,1.76h0a.35.35,0,0,1,.18.67h0a.33.33,0,0,1-.42-.25A.34.34,0,0,1,468.38,636.37Zm.47,1.77h0a.31.31,0,0,1,.16.6h0a.3.3,0,0,1-.38-.22A.3.3,0,0,1,468.85,638.14Zm.06-5.26a.4.4,0,0,1,.28-.49h0a.4.4,0,0,1,.21.77h0A.4.4,0,0,1,468.91,632.88Zm.75,1.27h0a.37.37,0,0,1,.45.27.38.38,0,0,1-.26.45h0a.38.38,0,0,1-.46-.27A.38.38,0,0,1,469.66,634.15Zm.46,1.76h0a.35.35,0,0,1,.18.67h0a.34.34,0,0,1-.42-.25A.34.34,0,0,1,470.12,635.91Zm.47,1.77h0a.31.31,0,0,1,.38.22.3.3,0,0,1-.22.38h0a.31.31,0,1,1-.16-.6Zm.06-5.26a.4.4,0,0,1,.28-.49h0a.41.41,0,0,1,.49.28.41.41,0,0,1-.28.49h0A.4.4,0,0,1,470.65,632.42Zm1.33-3.6h0a.46.46,0,0,1-.55-.32.45.45,0,0,1,.32-.55h0a.44.44,0,0,1,.54.32A.45.45,0,0,1,472,628.82Zm.75,1.19a.43.43,0,0,1-.3.52h0a.42.42,0,0,1-.21-.82h0A.42.42,0,0,1,472.73,630Zm-1.33,3.68h0a.37.37,0,0,1,.19.72h0a.38.38,0,0,1-.46-.27A.38.38,0,0,1,471.4,633.69Zm.46,1.76h0a.34.34,0,0,1,.41.25.34.34,0,0,1-.24.42h0a.35.35,0,0,1-.18-.67Zm.47,1.77h0a.31.31,0,0,1,.38.22.3.3,0,0,1-.22.38h0a.31.31,0,1,1-.16-.6Zm.06-5.26a.41.41,0,0,1,.28-.49h0a.4.4,0,0,1,.2.77h0A.41.41,0,0,1,472.39,632Zm.75,1.27h0a.37.37,0,0,1,.45.27.36.36,0,0,1-.26.45h0a.37.37,0,0,1-.45-.27A.36.36,0,0,1,473.14,633.23Zm.46,1.76h0a.34.34,0,0,1,.42.25.35.35,0,0,1-.25.42h0a.35.35,0,0,1-.18-.67Zm.47,1.77h0a.31.31,0,0,1,.38.22.3.3,0,0,1-.22.38h0a.3.3,0,0,1-.38-.22A.31.31,0,0,1,474.07,636.76Zm.4-7.21a.43.43,0,0,1-.3.52h0a.43.43,0,0,1-.52-.3.42.42,0,0,1,.3-.52h0A.42.42,0,0,1,474.47,629.55Zm-.43-1.74a.46.46,0,0,1-.32.55h0a.46.46,0,0,1-.55-.32.45.45,0,0,1,.32-.55h0A.46.46,0,0,1,474,627.81Zm-.44-1.74a.47.47,0,0,1-.34.58h0a.49.49,0,0,1-.58-.34.48.48,0,0,1,.34-.58h0A.46.46,0,0,1,473.6,626.07Zm-.43-1.75a.51.51,0,0,1-.36.62h0a.5.5,0,0,1-.26-1h0A.5.5,0,0,1,473.17,624.32Zm-1.08-2.11h0a.52.52,0,0,1,.64.37.52.52,0,0,1-.37.64h0a.52.52,0,0,1-.27-1Zm-.23,4.32a.47.47,0,0,1-.34.58h0a.49.49,0,0,1-.58-.34.47.47,0,0,1,.34-.58h0A.47.47,0,0,1,471.86,626.53Zm-.43-1.75a.51.51,0,0,1-.36.62h0a.5.5,0,0,1-.61-.36.48.48,0,0,1,.35-.61h0A.5.5,0,0,1,471.43,624.78ZM471,623a.52.52,0,0,1-.37.64h0a.51.51,0,0,1-.63-.37.52.52,0,0,1,.37-.64h0A.52.52,0,0,1,471,623Zm-.42-1.74a.55.55,0,0,1-.4.68h0a.57.57,0,0,1-.69-.4.55.55,0,0,1,.4-.68h0A.57.57,0,0,1,470.57,621.3Zm-.44-1.75a.58.58,0,0,1-.41.72h0a.58.58,0,0,1-.71-.42.57.57,0,0,1,.41-.71h0A.57.57,0,0,1,470.13,619.55Zm-.43-1.74a.61.61,0,0,1-.43.75h0a.61.61,0,1,1-.31-1.18h0A.61.61,0,0,1,469.7,617.81Zm-.43-1.74a.64.64,0,0,1-.46.78h0a.64.64,0,0,1-.33-1.23h0A.63.63,0,0,1,469.27,616.07Zm-.44-1.74a.67.67,0,0,1-.47.81h0a.66.66,0,1,1-.34-1.28h0A.66.66,0,0,1,468.83,614.33Zm-.43-1.74a.7.7,0,0,1-.49.84h0a.69.69,0,0,1-.35-1.33h0A.69.69,0,0,1,468.4,612.59Zm-.44-1.75a.71.71,0,0,1-.5.87h0a.71.71,0,0,1-.36-1.38h0A.71.71,0,0,1,468,610.84Zm-.43-1.74a.73.73,0,0,1-.52.9h0a.75.75,0,0,1-.9-.53.73.73,0,0,1,.52-.9h0A.73.73,0,0,1,467.53,609.1Zm-.43-1.74a.76.76,0,0,1-.55.93h0a.78.78,0,0,1-.94-.55.76.76,0,0,1,.55-.93h0A.78.78,0,0,1,467.1,607.36Zm-.43-1.74a.79.79,0,0,1-.57,1h0a.8.8,0,0,1-1-.57.79.79,0,0,1,.57-1h0A.79.79,0,0,1,466.67,605.62Zm-.43-1.75a.84.84,0,0,1-.59,1h0a.83.83,0,0,1-1-.59.82.82,0,0,1,.59-1h0A.82.82,0,0,1,466.24,603.87Zm-1.48-2.34h0a.84.84,0,0,1,1,.6h0a.85.85,0,0,1-.6,1h0a.85.85,0,0,1-.43-1.64Zm-.7,1.06a.85.85,0,0,1-.6,1h0A.85.85,0,1,1,463,602h0A.85.85,0,0,1,464.06,602.59Zm-1.51-2.36h0a.88.88,0,0,1,.45,1.7h0a.87.87,0,1,1-.45-1.69Zm-1.74.46h0a.88.88,0,0,1,.45,1.7h0a.87.87,0,1,1-.45-1.69Zm-1.74.46h0a.89.89,0,0,1,1.07.63.88.88,0,0,1-.63,1.07h0a.87.87,0,1,1-.45-1.69Zm-1.74.46h0a.89.89,0,0,1,1.08.63.88.88,0,0,1-.63,1.07h0a.87.87,0,1,1-.45-1.69Zm-1.74.46h0a.87.87,0,1,1,.45,1.69h0a.87.87,0,1,1-.45-1.69Zm-1.74.46h0a.87.87,0,0,1,.45,1.69h0a.87.87,0,1,1-.44-1.69Zm-2.37,1.53a.88.88,0,0,1,.62-1.07h0a.87.87,0,0,1,.45,1.69h0A.86.86,0,0,1,451.48,604.06Zm.49,1.73h0a.85.85,0,0,1,.6-1h0a.85.85,0,0,1,.43,1.64h0A.84.84,0,0,1,452,605.79Zm.48,1.73a.83.83,0,0,1,.59-1h0a.82.82,0,0,1,1,.58.84.84,0,0,1-.59,1h0A.82.82,0,0,1,452.45,607.52Zm.48,1.72a.8.8,0,0,1,.57-1h0a.8.8,0,1,1,.4,1.54h0A.8.8,0,0,1,452.93,609.24Zm.49,1.73A.76.76,0,0,1,454,610h0a.77.77,0,1,1,.39,1.48h0A.78.78,0,0,1,453.42,611Zm.49,1.73a.73.73,0,0,1,.52-.9h0a.73.73,0,0,1,.9.52.74.74,0,0,1-.52.91h0A.74.74,0,0,1,453.91,612.7Zm.48,1.73a.71.71,0,0,1,.51-.87h0a.71.71,0,0,1,.37,1.38h0A.71.71,0,0,1,454.39,614.43Zm.49,1.73a.68.68,0,0,1,.48-.84h0a.69.69,0,0,1,.84.49.7.7,0,0,1-.49.84h0A.68.68,0,0,1,454.88,616.16Zm.48,1.73a.67.67,0,0,1,.47-.81h0a.66.66,0,0,1,.81.47.67.67,0,0,1-.47.81h0A.66.66,0,0,1,455.36,617.89Zm.48,1.73a.64.64,0,0,1,.45-.78h0a.64.64,0,1,1,.32,1.23h0A.64.64,0,0,1,455.84,619.62Zm.48,1.73a.61.61,0,0,1,.44-.75h0a.61.61,0,0,1,.32,1.18h0A.61.61,0,0,1,456.32,621.35Zm.49,1.73a.58.58,0,0,1,.41-.72h0a.58.58,0,0,1,.71.42.57.57,0,0,1-.41.71h0A.57.57,0,0,1,456.81,623.08Zm.48,1.72h0a.56.56,0,0,1,.4-.68h0a.57.57,0,0,1,.69.4h0a.55.55,0,0,1-.4.68h0A.57.57,0,0,1,457.29,624.8Zm.5,1.73a.52.52,0,0,1,.37-.64h0a.52.52,0,1,1,.27,1h0A.52.52,0,0,1,457.79,626.53Zm.48,1.73a.48.48,0,0,1,.35-.61h0a.5.5,0,1,1,.25,1h0A.5.5,0,0,1,458.27,628.26Zm.48,1.73a.47.47,0,0,1,.34-.58h0a.48.48,0,0,1,.24.92h0A.48.48,0,0,1,458.75,630Zm.48,1.73a.45.45,0,0,1,.32-.55h0a.44.44,0,0,1,.54.32.45.45,0,0,1-.31.55h0A.46.46,0,0,1,459.23,631.72Zm.49,1.73a.42.42,0,0,1,.3-.52h0a.42.42,0,0,1,.22.82h0A.42.42,0,0,1,459.72,633.45Zm.48,1.73a.41.41,0,0,1,.28-.49h0a.4.4,0,0,1,.2.77h0A.41.41,0,0,1,460.2,635.18Zm.94,2h0a.37.37,0,0,1-.19-.72h0a.37.37,0,0,1,.45.27A.36.36,0,0,1,461.14,637.17Zm-.16-5.91a.44.44,0,0,1,.31-.55h0a.45.45,0,0,1,.23.87h0A.44.44,0,0,1,461,631.26Zm.48,1.73a.42.42,0,0,1,.3-.52h0a.42.42,0,0,1,.22.82h0A.43.43,0,0,1,461.46,633Zm.48,1.73a.41.41,0,0,1,.29-.49h0a.39.39,0,0,1,.48.28.4.4,0,0,1-.28.49h0A.41.41,0,0,1,461.94,634.72Zm.94,2a.37.37,0,0,1-.45-.26.38.38,0,0,1,.26-.46h0a.37.37,0,0,1,.45.27.36.36,0,0,1-.26.45Zm.45,1.71a.35.35,0,0,1-.17-.67h0a.36.36,0,0,1,.42.25.34.34,0,0,1-.25.42Zm.45,1.7a.31.31,0,0,1-.38-.22.32.32,0,0,1,.22-.38h0a.32.32,0,0,1,.38.22.31.31,0,0,1-.23.38Zm.45,1.71a.28.28,0,0,1-.34-.2.29.29,0,0,1,.2-.35h0a.29.29,0,0,1,.35.2.28.28,0,0,1-.2.35Zm.46,1.71h0a.26.26,0,0,1-.32-.18.26.26,0,0,1,.18-.32h0a.26.26,0,0,1,.31.19A.24.24,0,0,1,464.69,643.54Zm.45,1.71h0a.23.23,0,0,1-.29-.16.25.25,0,0,1,.17-.29h0a.24.24,0,0,1,.28.17A.22.22,0,0,1,465.14,645.25Zm.45,1.71h0a.2.2,0,0,1-.25-.14.2.2,0,0,1,.14-.25h0a.2.2,0,0,1,.25.14A.21.21,0,0,1,465.59,647Zm0-5.79a.29.29,0,0,1,.2-.35h0a.29.29,0,0,1,.35.2.28.28,0,0,1-.2.35h0A.28.28,0,0,1,465.63,641.17Zm.41,7.51h0a.17.17,0,0,1-.22-.13.19.19,0,0,1,.13-.23h0a.19.19,0,0,1,.23.13A.2.2,0,0,1,466,648.68Zm.07-5.78a.26.26,0,0,1,.19-.32h0a.26.26,0,0,1,.31.19.25.25,0,0,1-.18.31h0A.26.26,0,0,1,466.11,642.9Zm.39,7.49h0a.17.17,0,0,1-.2-.11.17.17,0,0,1,.11-.2h0a.16.16,0,0,1,.19.12A.16.16,0,0,1,466.5,650.39Zm.45,1.71h0a.12.12,0,0,1-.16-.09.13.13,0,0,1,.09-.17h0a.14.14,0,0,1,.16.1A.13.13,0,0,1,467,652.1Zm-.07-7.31h0a.22.22,0,0,1-.28-.16.23.23,0,0,1,.16-.29h0a.25.25,0,0,1,.29.17A.23.23,0,0,1,466.88,644.79Zm.52,9h0a.11.11,0,0,1-.13-.08.1.1,0,0,1,.08-.12h0a.12.12,0,0,1,.13.08A.11.11,0,0,1,467.4,653.81Zm-.07-7.31h0a.2.2,0,1,1-.1-.39h0a.2.2,0,0,1,.25.14A.21.21,0,0,1,467.33,646.5Zm0-5.79a.29.29,0,0,1,.2-.35h0a.29.29,0,1,1,.15.55h0A.28.28,0,0,1,467.37,640.71Zm.42,7.51h0a.19.19,0,0,1-.22-.13.19.19,0,0,1,.13-.23h0a.19.19,0,0,1,.23.13A.2.2,0,0,1,467.79,648.22Zm.06-5.78a.27.27,0,0,1,.19-.32h0a.26.26,0,0,1,.31.19.25.25,0,0,1-.18.31h0A.26.26,0,0,1,467.85,642.44Zm.39,7.49h0a.17.17,0,0,1-.2-.11.17.17,0,0,1,.12-.2h0a.16.16,0,0,1,.19.12A.16.16,0,0,1,468.24,649.93Zm.45,1.71h0a.13.13,0,0,1-.16-.09.13.13,0,0,1,.09-.17h0a.13.13,0,0,1,.16.1A.13.13,0,0,1,468.69,651.64Zm-.07-7.31h0a.22.22,0,0,1-.28-.16.23.23,0,0,1,.16-.29h0a.25.25,0,0,1,.29.17A.23.23,0,0,1,468.62,644.33Zm.52,9h0a.11.11,0,0,1-.13-.08.12.12,0,0,1,.08-.13h0a.12.12,0,0,1,.13.08A.11.11,0,0,1,469.14,653.35Zm-.07-7.31h0a.2.2,0,1,1-.1-.39h0a.2.2,0,0,1,.25.14A.21.21,0,0,1,469.07,646Zm0-5.79a.29.29,0,0,1,.2-.35h0a.29.29,0,0,1,.15.55h0A.29.29,0,0,1,469.11,640.25Zm.48,14.8h0a.06.06,0,0,1-.08,0,.06.06,0,0,1,0-.08h0a.07.07,0,1,1,0,.13Zm-.06-7.29h0a.19.19,0,0,1-.23-.13.19.19,0,0,1,.13-.23h0a.19.19,0,1,1,.1.36Zm.06-5.78a.27.27,0,0,1,.19-.32h0a.27.27,0,0,1,.32.19.26.26,0,0,1-.19.31h0A.26.26,0,0,1,469.59,642Zm.45,14.78h0a0,0,0,0,1-.05,0,0,0,0,0,1,0-.06h0a.06.06,0,0,1,.06,0S470.07,656.76,470,656.76Zm-.06-7.29h0a.17.17,0,0,1-.2-.11.16.16,0,0,1,.12-.2h0a.16.16,0,0,1,.19.11A.17.17,0,0,1,470,649.47Zm.52,9h0s0,0,0,0a0,0,0,0,1,0,0h0s0,0,0,0S470.51,658.47,470.5,658.47Zm-.07-7.29h0a.13.13,0,0,1-.16-.09.13.13,0,0,1,.09-.17h0a.13.13,0,0,1,.16.1A.13.13,0,0,1,470.43,651.18Zm-.07-7.31h0a.22.22,0,0,1-.28-.16.24.24,0,0,1,.16-.29h0a.23.23,0,0,1,.11.45Zm.52,9h0a.11.11,0,1,1-.05-.21h0a.11.11,0,0,1,.05.21Zm-.06-7.31h0a.2.2,0,1,1-.1-.39h0a.21.21,0,0,1,.25.15A.2.2,0,0,1,470.82,645.58Zm0-5.79a.29.29,0,0,1,.2-.35h0a.28.28,0,0,1,.34.2.28.28,0,0,1-.2.35h0A.29.29,0,0,1,470.85,639.79Zm.48,14.8h0a.07.07,0,0,1,0-.13h0a.07.07,0,0,1,.08,0A.07.07,0,0,1,471.33,654.59Zm-.06-7.29h0a.19.19,0,0,1-.1-.36h0a.19.19,0,1,1,.1.36Zm.07-5.78a.26.26,0,0,1,.18-.32h0a.27.27,0,0,1,.32.19.26.26,0,0,1-.19.31h0A.24.24,0,0,1,471.34,641.52Zm.44,14.78h0a0,0,0,0,1,0,0,0,0,0,0,1,0-.06h0a.05.05,0,0,1,.06,0S471.81,656.3,471.78,656.3Zm-.06-7.29h0a.16.16,0,0,1-.19-.11.15.15,0,0,1,.11-.2h0a.16.16,0,0,1,.19.11A.15.15,0,0,1,471.72,649Zm.52,9h0a0,0,0,0,1,0,0s0,0,0,0h0l0,0S472.25,658,472.24,658Zm-.07-7.29h0a.13.13,0,0,1-.07-.26h0a.14.14,0,0,1,.17.1A.14.14,0,0,1,472.17,650.72Zm-.06-7.31h0a.22.22,0,0,1-.28-.16A.24.24,0,0,1,472,643h0a.23.23,0,0,1,.12.45Zm.51,9h0a.11.11,0,0,1-.05-.21h0a.11.11,0,1,1,.05.21Zm-.06-7.31h0a.21.21,0,0,1-.26-.14.2.2,0,0,1,.15-.25h0a.21.21,0,0,1,.25.15A.2.2,0,0,1,472.56,645.12Zm0-5.79a.29.29,0,0,1,.21-.35h0a.29.29,0,0,1,.35.2.28.28,0,0,1-.21.35h0A.29.29,0,0,1,472.59,639.33Zm.48,14.8h0a.07.07,0,0,1-.08,0A.06.06,0,0,1,473,654h0a.07.07,0,0,1,.08,0A.07.07,0,0,1,473.07,654.13Zm-.06-7.29h0a.19.19,0,0,1-.23-.13.2.2,0,0,1,.13-.23h0a.18.18,0,0,1,.22.13A.19.19,0,0,1,473,646.84Zm.07-5.78a.26.26,0,0,1,.18-.32h0a.27.27,0,0,1,.32.19.25.25,0,0,1-.19.31h0A.25.25,0,0,1,473.08,641.06Zm.45,14.78h0s-.06,0-.06,0a0,0,0,0,1,0-.06h0a.05.05,0,0,1,.06,0A0,0,0,0,1,473.53,655.84Zm-.07-7.29h0a.16.16,0,0,1-.19-.11.16.16,0,0,1,.11-.2h0a.15.15,0,0,1,.19.11A.15.15,0,0,1,473.46,648.55Zm.52,9h0s0,0,0,0l0,0h0l0,0S474,657.55,474,657.55Zm-.07-7.29h0a.13.13,0,1,1-.06-.26h0a.13.13,0,1,1,.06.26Zm-.06-7.31h0a.23.23,0,0,1-.29-.16.24.24,0,0,1,.17-.29h0a.23.23,0,0,1,.12.45Zm.52,9h0a.11.11,0,0,1-.05-.21h0a.11.11,0,0,1,.13.08A.11.11,0,0,1,474.37,652Zm-.07-7.31h0a.2.2,0,0,1-.25-.14.21.21,0,0,1,.14-.26h0a.21.21,0,0,1,.25.15A.2.2,0,0,1,474.3,644.66Zm0-5.79a.29.29,0,0,1,.21-.35h0a.29.29,0,0,1,.35.2.28.28,0,0,1-.21.35h0A.29.29,0,0,1,474.33,638.87Zm.48,14.8h0a.07.07,0,0,1-.08,0,.06.06,0,0,1,0-.08h0a.06.06,0,0,1,.08,0A.07.07,0,0,1,474.81,653.67Zm-.06-7.29h0a.19.19,0,0,1-.23-.13.2.2,0,0,1,.14-.23h0a.17.17,0,0,1,.22.13A.19.19,0,0,1,474.75,646.38Zm.07-5.78a.26.26,0,0,1,.18-.32h0a.27.27,0,0,1,.32.19.25.25,0,0,1-.18.31h0A.25.25,0,0,1,474.82,640.6Zm.45,14.78h0a0,0,0,0,1-.06,0,0,0,0,0,1,0-.06h0a.05.05,0,0,1,.06,0A0,0,0,0,1,475.27,655.38Zm-.07-7.29h0A.16.16,0,0,1,475,648a.17.17,0,0,1,.11-.2h0a.17.17,0,0,1,.2.11A.16.16,0,0,1,475.2,648.09Zm.52,9h0s0,0,0,0l0,0h0a0,0,0,0,1,0,0S475.73,657.09,475.72,657.09Zm-.06-7.29h0a.13.13,0,0,1-.16-.1.13.13,0,0,1,.1-.16h0a.13.13,0,0,1,.16.1A.13.13,0,0,1,475.66,649.8Zm-.07-7.31h0a.23.23,0,0,1-.29-.16.24.24,0,0,1,.17-.29h0a.23.23,0,0,1,.28.17A.22.22,0,0,1,475.59,642.49Zm.52,9h0a.11.11,0,0,1-.13-.08.11.11,0,0,1,.07-.13h0a.11.11,0,0,1,.13.08A.11.11,0,0,1,476.11,651.51ZM476,644.2h0a.2.2,0,0,1-.25-.14.21.21,0,0,1,.14-.26h0a.23.23,0,0,1,.26.15A.21.21,0,0,1,476,644.2Zm0-5.79a.29.29,0,0,1,.2-.35h0a.29.29,0,0,1,.35.2.28.28,0,0,1-.2.35h0A.28.28,0,0,1,476.08,638.41Zm.48,14.8h0a.07.07,0,0,1-.09-.05.06.06,0,0,1,0-.08h0s.08,0,.08,0A.08.08,0,0,1,476.56,653.21Zm-.07-7.29h0a.18.18,0,0,1-.22-.13.19.19,0,0,1,.13-.23h0a.17.17,0,0,1,.22.13A.19.19,0,0,1,476.49,645.92Zm.07-5.78a.26.26,0,0,1,.18-.32h0a.26.26,0,0,1,.31.19.25.25,0,0,1-.18.31h0A.26.26,0,0,1,476.56,640.14Zm.45,14.78h0a0,0,0,0,1-.06,0,0,0,0,0,1,0-.06h0s.06,0,.06,0A0,0,0,0,1,477,654.92Zm-.07-7.29h0a.16.16,0,0,1-.19-.11.17.17,0,0,1,.11-.2h0a.17.17,0,0,1,.2.11A.16.16,0,0,1,476.94,647.63Zm.52,9h0s0,0,0,0l0,0h0l0,0Zm-.06-7.29h0a.15.15,0,0,1-.17-.1.14.14,0,0,1,.1-.16h0a.13.13,0,0,1,.16.1A.13.13,0,0,1,477.4,649.34Zm-.07-7.31h0a.23.23,0,0,1-.29-.16.25.25,0,0,1,.17-.29h0a.23.23,0,0,1,.28.17A.22.22,0,0,1,477.33,642Zm.52,9h0a.11.11,0,0,1-.13-.08.11.11,0,0,1,.07-.13h0a.11.11,0,0,1,.13.08A.11.11,0,0,1,477.85,651.05Zm-.07-7.31h0a.2.2,0,0,1-.25-.14.21.21,0,0,1,.14-.26h0a.21.21,0,0,1,.25.15A.21.21,0,0,1,477.78,643.74Zm.52,9h0a.07.07,0,0,1-.09,0,.07.07,0,0,1,.05-.08h0a.08.08,0,0,1,.09,0A.08.08,0,0,1,478.3,652.75Zm-.07-7.29h0a.18.18,0,0,1-.22-.13.19.19,0,0,1,.13-.23h0a.19.19,0,0,1,.23.13A.2.2,0,0,1,478.23,645.46Zm.07-5.78a.26.26,0,0,1,.19-.32h0a.26.26,0,0,1,.31.19.25.25,0,0,1-.18.31h0A.26.26,0,0,1,478.3,639.68Zm.45,14.78h0a0,0,0,0,1-.06,0,.05.05,0,0,1,0-.06h0s0,0,0,0A0,0,0,0,1,478.75,654.46Zm-.06-7.29h0a.16.16,0,1,1-.09-.31h0a.16.16,0,0,1,.19.11A.17.17,0,0,1,478.69,647.17Zm.51,9h0s0,0,0,0,0,0,0,0h0l0,0Zm-.06-7.29h0a.13.13,0,0,1-.16-.1.13.13,0,0,1,.09-.16h0a.13.13,0,0,1,.16.1A.13.13,0,0,1,479.14,648.88Zm-.07-7.31h0a.22.22,0,0,1-.28-.16.23.23,0,0,1,.16-.29h0a.23.23,0,1,1,.12.45Zm.52,9h0a.11.11,0,0,1-.13-.08.12.12,0,0,1,.08-.13h0a.1.1,0,0,1,.12.08A.1.1,0,0,1,479.59,650.59Zm-.07-7.31h0a.2.2,0,0,1-.25-.14.22.22,0,0,1,.15-.26h0a.21.21,0,0,1,.25.15A.21.21,0,0,1,479.52,643.28Zm.52,9h0a.07.07,0,0,1-.09,0,.07.07,0,0,1,.05-.08h0a.08.08,0,0,1,.09,0A.07.07,0,0,1,480,652.29ZM480,645h0a.18.18,0,0,1-.22-.13.19.19,0,0,1,.13-.23h0a.19.19,0,0,1,.23.13A.2.2,0,0,1,480,645Zm.51,9h0s-.05,0-.06,0a.05.05,0,0,1,0-.06h0s0,0,.06,0S480.52,654,480.49,654Zm-.06-7.29h0a.17.17,0,0,1-.2-.11.16.16,0,0,1,.12-.2h0a.16.16,0,0,1,.19.11A.17.17,0,0,1,480.43,646.71Zm.51,9h0s0,0,0,0,0,0,0,0h0s0,0,0,0S481,655.71,480.94,655.71Zm-.06-7.29h0a.13.13,0,0,1-.16-.1.13.13,0,0,1,.09-.16h0a.13.13,0,0,1,.16.1A.13.13,0,0,1,480.88,648.42Zm.45,1.71h0a.11.11,0,0,1-.13-.08.12.12,0,0,1,.08-.13h0a.12.12,0,0,1,.13.08A.11.11,0,0,1,481.33,650.13Zm.45,1.7h0a.06.06,0,0,1-.08-.05.06.06,0,0,1,0-.08h0a.07.07,0,0,1,.08,0A.07.07,0,0,1,481.78,651.83Zm.45,1.71h0s-.05,0-.06,0a.05.05,0,0,1,0-.06h0s.05,0,.06,0S482.26,653.54,482.23,653.54Zm.46,1.71h0s0,0,0,0a0,0,0,0,1,0,0h0s0,0,0,0S482.7,655.25,482.69,655.25Zm-100,257.8h0s0,0,0,0a0,0,0,0,1,0,0h0l0,0Z"/></g><g id="Buildings"><rect class="cls-2" x="1007.07" y="945" width="167.63" height="38.52"/><rect class="cls-2" x="1075.65" y="565.55" width="11.18" height="58.87"/><polygon class="cls-2" points="1005.26 520.23 1005.26 534.48 1032.44 534.48 1032.44 520.23 1033.44 520.23 1033.44 514.4 1042.08 514.4 1042.08 449.36 995.61 449.36 995.61 457.09 995.61 514.4 995.61 520.23 996.61 520.23 1005.26 520.23"/><rect class="cls-2" x="976.38" y="520.74" width="15.63" height="12.28"/><rect class="cls-2" x="1109.27" y="499.23" width="12.55" height="41.19"/><polygon class="cls-2" points="1082.02 529.88 1091.82 529.88 1091.82 524.1 1091.82 518.89 1091.82 504.34 1082.02 504.34 1082.02 518.89 1076.57 518.89 1076.57 524.1 1082.02 524.1 1082.02 529.88"/><polygon class="cls-2" points="1061.77 542.05 1067.93 542.05 1067.93 536.5 1071.24 536.5 1071.24 533.63 1058.91 533.63 1058.91 536.5 1061.77 536.5 1061.77 542.05"/><polygon class="cls-2" points="1073.04 624.42 1073.04 610.18 1073.04 592.85 1073.04 585.73 1073.04 569.8 1041.52 569.8 1005.86 569.8 1005.86 585.73 1041.52 585.73 1041.52 592.85 1030.92 592.85 1028.63 592.85 1006.79 592.85 1006.79 635.94 1011.11 635.94 1011.11 662.29 1039.11 662.29 1039.11 634.29 1030.92 634.29 1030.92 624.42 1073.04 624.42"/><rect class="cls-2" x="1051.48" y="1019.52" width="60.13" height="37.12"/><rect class="cls-2" x="935.97" y="1050.93" width="71.1" height="29.07"/><rect class="cls-2" x="874.4" y="965.02" width="114.92" height="31.46"/><rect class="cls-2" x="738.25" y="941.24" width="118.56" height="41.05"/><rect class="cls-2" x="666.4" y="895.77" width="32.48" height="95.78" transform="translate(-400.11 1372.77) rotate(-75.74)"/><polygon class="cls-2" points="649.5 975.71 618.02 967.71 610.02 999.19 613.27 1000.01 610.5 1010.89 626.9 1015.06 629.66 1004.18 641.5 1007.19 645.02 993.36 655.28 995.97 659.77 978.32 649.5 975.71 649.5 975.71"/><rect class="cls-2" x="663.15" y="975.74" width="14.72" height="11.72" transform="translate(-242.87 220.77) rotate(-15.87)"/><rect class="cls-2" x="544.95" y="837.68" width="40.64" height="118.79" transform="translate(-484.78 749.86) rotate(-49.8)"/><rect class="cls-2" x="447.83" y="754.02" width="40.64" height="118.79" transform="translate(-455.32 646.01) rotate(-49.8)"/><polygon class="cls-2" points="510.89 902.4 474.02 870.24 468.35 876.74 468.35 876.74 455.04 892 455.04 892 452.55 894.86 489.42 927.01 491.91 924.15 498.32 929.74 511.63 914.48 505.22 908.89 510.89 902.4"/><rect class="cls-2" x="517.52" y="919.81" width="24.35" height="20.65" transform="translate(-519.44 717.91) rotate(-48.9)"/><rect class="cls-2" x="891.39" y="1045.21" width="27.86" height="16.04"/><rect class="cls-2" x="1333.9" y="1011.57" width="31.58" height="16.93" transform="translate(-139.44 1822.91) rotate(-65.41)"/><rect class="cls-2" x="1455.87" y="820.61" width="44.41" height="31.25" transform="translate(-214.56 974.09) rotate(-34.16)"/><rect class="cls-2" x="1368.06" y="839.53" width="10.2" height="6.8" transform="translate(-236.41 916.34) rotate(-34.16)"/><rect class="cls-2" x="856.45" y="1035.1" width="11.87" height="55.88" transform="translate(-221.58 1898.96) rotate(-88.59)"/><rect class="cls-2" x="786.05" y="1006.71" width="39.39" height="60.55" transform="translate(-386.9 1586.69) rotate(-76.9)"/><rect class="cls-2" x="1152.64" y="1042.49" width="24.02" height="7.46" transform="translate(-42.21 48.99) rotate(-2.37)"/></g></svg>