<svg id="Inactive_Configs" data-name="Inactive Configs" xmlns="http://www.w3.org/2000/svg" viewBox="0 0 1920 1080"><defs><style>.cls-1{fill:#a7a9ac;}</style></defs><path class="cls-1" d="M1501.06,376.33a328.42,328.42,0,0,0-80.33-92.77c-33.61-26.36-70.32-44.12-109.1-52.79l-14.05-2.52c-128.84-23-289.19-51.67-434.88-38.93-79.4,6.94-147.28,26-201.76,56.58-63.21,35.51-111,87.91-142,155.75l-.06.14a279.28,279.28,0,0,0-19.61,73.69,121.85,121.85,0,0,0-2,22.79,320.19,320.19,0,0,0,14.5,110.86c22.15,70.93,66.42,130,124.67,166.32,89.33,61.1,209.17,61.2,314.9,61.28,11.94,0,23.21,0,34.52.11h.09c19.64-.18,39.79-.14,59.28-.11,100.32.19,204.06.4,290.77-29.2,47-16,85.23-39.29,116.8-71,35.42-35.61,61.52-80.84,79.84-138.32C1554,528.5,1542.51,447.64,1501.06,376.33ZM528,405.74c101.62-222,361.84-226.47,592.09-196.13,36.3,5.11,124.27,26.62,191.48,59.74,94.07,46.36,152.18,107.35,172.7,181.27,22.82,82.22-9.12,156-18.92,171.21-47.51,73.9-122,107-234.65,104.25-93.23-1.62-315.29-7.27-406.14-13-148.44-9.38-250.38-53.2-287-123.38-22.71-43.5-30.18-69.37-30.37-91.5q.54-10.44,1.84-20.81c.09-.51.18-1,.28-1.54a4.91,4.91,0,0,0,.06-1.14A270.29,270.29,0,0,1,528,405.74Zm995,189.45c-33.63,105.57-94.11,170-190.32,202.87-85.13,29.06-188,28.87-287.52,28.67-19.5,0-39.66-.07-59.36.11-11.32-.09-22.6-.1-34.54-.11C847,826.65,728.78,826.55,642,767.14l-.18-.12C568,721,520.47,638.82,509.34,552.47a421.66,421.66,0,0,0,19.38,41.85C567,667.73,671.9,713.45,824,723.06c91,5.74,313.29,11.4,406.56,13q6.6.16,13,.17c55.77,0,101.87-9.24,140.58-28.12,36.94-18,66.27-44.48,89.67-80.88,4.85-7.54,15.82-30.2,22.72-62.09,8.58-39.7,7.69-80.23-2.58-117.21-21.31-76.78-81.17-139.88-177.91-187.56-26.68-13.15-56.61-24.5-85.37-33.76,22.46,3.85,44.25,7.74,65.16,11.48l13.73,2.45c72.74,16.3,141.1,68.93,182.87,140.8C1532.47,450.26,1543.64,528.22,1523.08,595.19Z"/></svg>