<?xml version="1.0" encoding="UTF-8"?>
<svg id="EXAMPLE_-_Active" data-name="EXAMPLE - Active" xmlns="http://www.w3.org/2000/svg" viewBox="0 0 1920 1080">
  <path d="M558.37256,842.85254c-3.42383,0-6.85107-.13477-10.27393-.40723-22.31543-1.77051-43.9292-9.30957-62.50488-21.80176l-202.07764-138.85352-150.15625-97.24316c-10.11084-6.54688-16.99854-16.6543-19.396-28.45898-2.39697-11.80469.00391-23.79834,6.76074-33.771,13.20605-19.49219,39.98242-24.87109,59.69238-11.98682l188.17969,123.00879c27.04248,17.67676,58.35352,28.43457,90.54834,31.11035l17.771,1.47754c13.37207,1.11035,26.9541,1.67383,40.36768,1.67383h178.31348c41.96533,0,83.45996-14.00586,116.84131-39.43945l76.04053-57.93555c55.02344-41.9209,77.04443-114.09375,54.7959-179.59277l-.98877-2.91162c-9.24609-27.22119-4.07275-56.73975,13.83936-78.96289,17.78662-22.06738,45.22607-33.33008,73.42334-30.11328l103.36035,11.77637c39.5459,4.50537,78.20898,14.59229,114.91602,29.98096l1.52051.63818c36.53613,15.31543,79.20605,6.28174,106.17969-22.48096l19.74121-21.04932c21.65918-23.09375,55.02051-31.4209,84.99316-21.21338l186.17383,63.3999c14.6543,4.99023,24.43945,18.74316,24.34863,34.22314-.08105,13.87695-4.91309,27.47754-13.60449,38.29541l-77.5957,96.58545c-20.72168,25.79346-48.4375,44.41357-80.15039,53.84668-31.71484,9.43457-65.10059,8.98828-96.55176-1.28418l-199.11523-65.04443c-24.73828-8.08203-51.11719-5.99023-74.27344,5.88965s-40.24121,32.08496-48.10742,56.89404c-12.35645,38.96973-2.07422,81.13574,26.83301,110.04395,25.44922,25.44922,59.27832,39.45996,95.26465,39.45996h.14258l559.97852-.58691h.02441c6.33594,0,12.29199,2.46484,16.77441,6.94336,4.48828,4.4834,6.95996,10.44629,6.95996,16.79102,0,6.98242-2.76953,13.49609-7.79883,18.34082-5.0293,4.84277-11.64258,7.36816-18.61914,7.10547l-125.625-4.70898-42.58398-.50098c-20.85352-.23047-41.62305,4.69922-60.11328,14.29785l-10.51953,5.45996c-31.34082,16.26953-68.52637,19.19629-102.02441,8.02832l-3.42383-1.1416c-42.12207-14.04102-88.31543-6.33398-123.59961,20.6084l-28.41602,24.99805c-21.80566,19.18359-49.80664,29.15723-78.81934,28.09277l-14.0459-.51562c-28.63965-1.05371-56.58203-7.16113-83.0498-18.15625l-105.60156-43.86523c-27.94189-11.60645-57.4502-17.49512-87.70508-17.50195l-34.99658-.00879h-.09033c-61.87842,0-123.65137,14.96484-178.66748,43.2832l-68.40137,35.20508c-17.19775,7.96387-35.98682,12.07812-54.8877,12.07812ZM156.77344,513.30469c-10.75586,0-21.34766,5.14111-27.77051,14.62109-5.23584,7.729-7.09668,17.02344-5.23877,26.17285,1.85791,9.14844,7.1958,16.98145,15.03125,22.05566l150.32715,97.35449,202.09277,138.86426c34.66162,23.30957,79.78809,26.90723,117.74805,9.37109l68.12158-35.06543c56.42188-29.04297,119.78564-44.39258,183.24512-44.39258h.09131l34.99658.00879c31.57764.00684,62.37598,6.15332,91.53906,18.26758l105.60156,43.86523c25.36328,10.53516,52.1377,16.3877,79.58105,17.39648l14.0459.5166c26.47461.96582,51.9707-8.12305,71.84668-25.60742l28.80957-25.32812c37.9375-29.04492,87.64648-37.36426,132.97461-22.25684l3.42383,1.1416c30.94629,10.31348,65.30078,7.6123,94.25391-7.41699l10.51953-5.45996c19.94336-10.35352,42.3623-15.67383,64.83789-15.42285l42.77344.50586,125.69336,4.71094c4.23438.16504,8.25195-1.37305,11.30664-4.31543,3.05469-2.94141,4.73633-6.89648,4.73633-11.1377,0-3.67188-1.43066-7.12207-4.02734-9.7168-2.59375-2.59082-6.04102-4.01758-9.70703-4.01758h-.01465l-559.97852.58691h-.15234c-38.66016.00098-74.99512-15.0498-102.33496-42.38965-31.55957-31.55859-42.78516-77.59277-29.2959-120.13623,8.67871-27.37109,27.52832-49.6626,53.07715-62.76953,25.54688-13.10547,54.64941-15.41309,81.94238-6.49805l199.11523,65.04443c59.7832,19.52734,126.41309-.29053,165.80078-49.31934l77.59668-96.58545c7.2832-9.06543,11.33105-20.4624,11.39941-32.09131.06543-11.17188-6.99609-21.09717-17.57129-24.69873l-186.1748-63.39941c-26.26367-8.9458-55.49707-1.64844-74.47461,18.58789l-19.74121,21.04932c-14.71777,15.69238-33.61816,26.34766-54.65723,30.81348-21.05859,4.46875-42.73438,2.41162-62.68359-5.95117l-1.52148-.63818c-35.83203-15.02197-73.57617-24.86914-112.18164-29.26758l-103.36035-11.77637c-24.76758-2.8208-48.87988,7.06836-64.50488,26.45312-15.75049,19.54102-20.29492,45.51172-12.15625,69.47119l.98877,2.91211c23.63232,69.57227.2417,146.23438-58.2041,190.76367l-76.04053,57.93555c-35.11279,26.75195-78.76025,41.48438-122.90186,41.48438h-178.31348c-13.68896,0-27.54932-.5752-41.1958-1.70898l-17.77148-1.47754c-33.84521-2.8125-66.76172-14.12109-95.19141-32.7041l-188.17969-123.00977c-5.5835-3.6499-11.90625-5.39551-18.17188-5.39551Z" style="fill: #fff;"/>
</svg>