<?xml version="1.0" encoding="UTF-8"?>
<svg id="a" data-name="Inactive Configs" xmlns="http://www.w3.org/2000/svg" viewBox="0 0 1920 1080">
  <defs>
    <style>
      .b {
        fill: #a7a9ac;
        stroke-width: 0px;
      }
    </style>
  </defs>
  <path class="b" d="m1519.17,410.97c-3.24-57.32-31.54-109.79-77.67-143.97-33.23-24.63-72.66-37.73-114.02-37.88l-84.04-.25c-4.36-.21-8.61-.34-12.7-.39-.66,0-1.28.12-1.86.34l-161.25-.48-259.88.77c-41.36.16-80.79,13.26-114.02,37.88-46.12,34.18-74.43,86.66-77.67,143.97s18.99,112.64,60.97,151.8l12.28,11.45.52.42c42.64,30.23,95.81,41.51,130.99,48.97,2.93.62,5.71,1.21,8.32,1.78,93.97,20.41,181.48,26.45,238.33,27.92h.13s.13,0,.13,0c56.86-1.47,144.36-7.51,238.33-27.92,2.62-.57,5.4-1.16,8.32-1.78,35.18-7.46,88.35-18.74,130.99-48.97l12.8-11.88c41.98-39.15,64.21-94.48,60.97-151.8Zm-276.12-172.11c43.88,2.15,121.55,13.4,168.23,45.2,29.61,20.17,64.16,56.86,72.36,99.37,7.17,37.19-.38,76.32-10.43,96.95-8.6,17.65-12.91,26.51-55.11,21.87-31.79-3.49-90.61-19.1-137.86-31.64-18.84-5-36.64-9.72-50.47-13.08-8.76-2.13-184.63-2.57-379.75-2.86-53.42-.08-95.62-.14-111.34-.28-18.1-.15-32.52-6-42.88-17.38-15.51-17.05-19.22-43.98-17.68-61.86,1.21-14.07,8.7-30.44,21.08-46.08,14.45-18.25,35.41-35.45,60.62-49.73,53.56-30.34,256.3-40.6,261.94-40.88l45.86-.14,175.43.52Zm-163.49,258.99h87.22c13.01,0,25.64,3.78,36.52,10.92l5.36,3.52c24.1,15.84,35.21,45.18,27.65,73.01-7.21,26.53-30.34,46.03-57.63,48.72l-111.55,9.21s-.08,0-.12.01l-109.87-9.07c-27.59-2.46-51-22.06-58.27-48.79-7.57-27.83,3.54-57.17,27.65-73.01l5.36-3.52c10.88-7.15,23.5-10.92,36.52-10.92h111.26l-.08-.08Zm166.39,90.08c8.71-32.02-4.08-65.77-31.8-84l-5.36-3.52c-12.51-8.22-27.04-12.57-42.01-12.57h-111.26l.08.08h-87.22c-14.97,0-29.5,4.35-42.01,12.57l-5.36,3.52c-27.73,18.22-40.51,51.98-31.81,84,4.41,16.22,13.99,30.16,26.72,40.12-24.56-8.66-44.05-28.98-51.07-54.81-9.16-33.69,4.29-69.22,33.47-88.39l6.41-4.21c13.17-8.65,28.45-13.23,44.21-13.23h130.79l-.1-.1h106.56c15.75,0,31.04,4.57,44.21,13.23l6.41,4.21c29.18,19.18,42.63,54.7,33.47,88.39-7.02,25.82-26.5,46.14-51.03,54.8,12.71-9.96,22.28-23.89,26.69-40.1Zm-423.04,25.9c-34.3-7.28-86.1-18.26-127.01-47.16l-12.03-11.22c-39.8-37.12-60.87-89.58-57.8-143.92,3.07-54.34,29.91-104.1,73.64-136.5,31.51-23.35,68.89-35.77,108.1-35.92l89.56-.27c-72.12,8.41-120.03,19.1-142.46,31.8-60.31,34.16-84.35,75.94-86.74,103.65-1.8,20.84,2.58,50.03,20.24,69.45,12.3,13.52,29.19,20.47,50.19,20.65,15.76.13,57.97.2,111.41.28,19.55.03,40.98.06,63.38.1-4.89,2.09-9.62,4.62-14.12,7.58l-6.41,4.21c-32.81,21.56-47.93,61.49-37.63,99.37,5.78,21.26,19.07,39.19,36.61,51.1-19.7-3.18-39.97-6.96-60.55-11.43-2.63-.57-5.43-1.17-8.37-1.79Zm628.47-58.38l-12.03,11.22c-40.92,28.9-92.71,39.88-127.01,47.16-2.94.62-5.74,1.22-8.37,1.79-20.68,4.49-41.04,8.28-60.83,11.47,17.64-11.91,31.01-29.91,36.81-51.25,10.3-37.88-4.82-77.81-37.63-99.37l-6.41-4.21c-2.81-1.85-5.7-3.52-8.67-5.04.05,0,.11.02.16.03,13.73,3.34,31.48,8.05,50.27,13.03,47.58,12.62,106.8,28.34,139.33,31.91,7.47.82,13.96,1.22,19.63,1.22,29.91,0,36.98-11.02,45.57-28.65,8.29-17.02,20-57.92,11.26-103.23-8.77-45.49-45.29-84.45-76.54-105.74-22.83-15.55-55.78-28.24-95.3-36.7l5.84.02c39.21.15,76.59,12.57,108.1,35.92,43.73,32.41,70.57,82.16,73.64,136.5,3.07,54.34-18,106.8-57.8,143.92Z"/>
  <path class="b" d="m443.99,393.18c-8.31-45.85-49.78-68.37-62.3-74.18-25.98-12.07-56.64-13.43-88.65-3.95-25.92,7.67-52.32,22.54-72.44,40.78-27.5,24.93-45.91,58.19-54.73,98.85-6.43,29.64-5.73,62.41-4.02,84.67.97,12.56,2.35,23.19,3.34,29.89.84,5.68,1.35,8.97,1.79,10.99-3.37,36.83-5.25,73.02-6.28,100.36-1.27,33.69,9.22,65.31,29.56,89.05,20.1,23.46,49.09,38.48,81.64,42.3,5.63.96,11.28,1.44,16.92,1.44,25.7,0,51.16-9.89,73.14-28.69,23.11-19.77,40.27-47.6,45.88-74.43,12.2-58.3,27.17-231.11,27.89-239.49.88-7.55,1.28-15,1.22-22.3,5.58-12.91,11.14-32.7,7.04-55.31Zm-18.2,76.53l-.02.15c-.15,1.8-15.61,180.48-27.72,238.37-5.18,24.74-21.1,50.49-42.59,68.88-24.54,20.99-53.66,29.86-82,24.97l-.27-.04c-62.77-7.3-104.92-57.09-102.5-121.06,1.48-39.16,3.68-72.2,6.27-100.06.05-.29.08-.58.08-.88,7.98-85.43,19.6-121.68,25.23-134.91,32.55-76.53,88.07-102.85,130.61-102.85,4.2,0,8.27.26,12.18.75,28.79,3.35,51.55,17.85,65.83,41.94,13.35,22.51,18.64,52.61,14.9,84.75Zm-6.29-89.85c-15.93-26.87-41.27-43.05-73.24-46.77-46.96-5.88-115.25,18.91-153.2,108.11-9.58,22.52-16.44,57.61-21.35,95.6-1.7-23.47-1.88-53.24,3.92-80,8.37-38.58,25.75-70.06,51.67-93.56,19.05-17.27,44.04-31.34,68.57-38.6,29.65-8.78,57.86-7.59,81.6,3.43,11.41,5.3,49.21,25.78,56.67,66.89,1.71,9.44,1.51,18.34.32,26.34-2.76-15.29-7.79-29.35-14.97-41.45Z"/>
  <path class="b" d="m333.45,457.94l-14.01-1.63c-40.08-4.67-76.49,24.15-81.15,64.23l-12.88,110.66c-4.66,40.08,24.15,76.49,64.23,81.15l14.01,1.63c2.86.33,5.7.5,8.51.5,36.6,0,68.3-27.5,72.64-64.73l12.88-110.66c2.26-19.42-3.18-38.55-15.31-53.88-12.13-15.33-29.51-25.01-48.92-27.27Zm42.69,46.35c8.73,11.02,12.64,24.79,11.01,38.75l-11.69,100.44c-1.63,13.97-8.59,26.46-19.62,35.19-11.02,8.73-24.79,12.64-38.75,11.01l-7.99-.93c-13.97-1.62-26.46-8.59-35.19-19.62-8.73-11.02-12.64-24.79-11.01-38.75l11.69-100.44c3.35-28.83,29.54-49.56,58.37-46.2l7.99.93c13.97,1.63,26.46,8.59,35.19,19.62Zm-63.98,200.18c-2.43,0-4.88-.14-7.35-.43l-14.01-1.63c-34.6-4.03-59.48-35.46-55.45-70.06l12.88-110.66c3.74-32.14,31.11-55.88,62.71-55.88,2.43,0,4.88.14,7.35.43l14.01,1.63c12.68,1.48,24.35,6.63,33.82,14.77-7.28-4.19-15.41-6.91-24-7.91l-7.99-.93c-34.32-4-65.47,20.67-69.46,54.98l-11.69,100.44c-1.93,16.62,2.72,33,13.1,46.12s25.26,21.41,41.88,23.34l7.99.93h0c2.46.29,4.92.43,7.36.43,5.99,0,11.89-.86,17.55-2.53-8.69,4.46-18.46,6.96-28.7,6.96Z"/>
</svg>