<?xml version="1.0" encoding="utf-8"?>
<!-- Generator: Adobe Illustrator 24.0.1, SVG Export Plug-In . SVG Version: 6.00 Build 0)  -->
<svg version="1.1" id="Background_Details" xmlns="http://www.w3.org/2000/svg" xmlns:xlink="http://www.w3.org/1999/xlink" x="0px"
	 y="0px" viewBox="0 0 1920 1080" style="enable-background:new 0 0 1920 1080;" xml:space="preserve">
<style type="text/css">
	.st0{fill:none;}
	.st1{fill:#C2C6F7;}
	.st2{fill:#636466;}
	.st3{fill:#C7C8CA;}
</style>
<title>background</title>
<g id="Bridge">
	
		<rect x="1701.4" y="163.3" transform="matrix(0.6378 -0.7702 0.7702 0.6378 470.018 1383.9119)" class="st0" width="10.1" height="57.8"/>
	
		<rect x="1732.4" y="125.7" transform="matrix(0.6237 -0.7816 0.7816 0.6237 532.8666 1416.2123)" class="st0" width="10.1" height="57.8"/>
	
		<rect x="465.3" y="104.9" transform="matrix(0.9999 -1.622504e-02 1.622504e-02 0.9999 -1.7189 8.0331)" class="st0" width="57.8" height="10.1"/>
	
		<rect x="462.7" y="62.7" transform="matrix(0.9998 -1.999594e-02 1.999594e-02 0.9998 -1.2564 9.8435)" class="st0" width="57.8" height="10.1"/>
</g>
<g id="Water">
	<path class="st1" d="M1900.1,772.6l-14.2-53.8c0,0-1.3-13.3-13.8-11.6l-35.1,11.6c0,0-10.2,2.7-4.9,18.2l14.2,61.3
		c0,0,3.1,11.6,16.9,6.7l33.8-12.4C1897,792.6,1904.1,791.2,1900.1,772.6z"/>
</g>
<g id="Pavement">
	<path class="st2" d="M1632.6,679.7l-89.4,44.3l-9.5-3.6c0,0-1.2-1.8,3.7-3.3l45.3-21.6l64.2-35.3l48.9-33.8l27.1-20.2
		c0,0,25.9-20.4,37.7-41.5l7.4,1.9c0,0,18.7-28.2,21.9-41.8l-1-2l37.6-23.1l-2.4-3.8l-35.5,21.5l-0.7,0.3l-0.6-0.6
		c19.1-15.4,20-79.4,20-79.4c2.5-32.6-5.3-72.6-5.3-72.6c-4.3-29.3-23.3-70.7-23.3-70.7c-19-40.3-43-64.3-43-64.3l-2.5,1.9
		c34.1,33.5,55.3,95.9,55.3,95.9c12.2,29.8,15.4,81.9,15.4,81.9c3,30.4-7.1,75.7-7.1,75.7c-6.1,22.1-14.8,31.1-18.8,34.2l-1.1-0.3
		c11.7-41.2,11.7-103.7,11.7-103.7c-4.2-60.5-27.1-98.9-27.1-98.9c-16.7-34.4-42.4-61.7-59.9-77.8l10-9.3l-1.3-1.3l-10.6,8.9
		c0,0,0,0-0.1-0.1c-7.1-6.4-12.6-10.8-15.2-12.8l15-18.2l2.2,2.4l0.7-7.9l-7.1-5.6l-8,2.5l2.4,1.5l-10.8,12.4l-5,2
		c-5.3-0.4-10.4-4.7-10.4-4.7c-5.6-5.8-3.8-11.3-3.8-11.3l31.8-10.9l-2.9-2l-28.2,9.6c-7.8,1.5-12.9-7.6-12.9-7.6
		c-0.9-12.5-9.8-28.5-9.8-28.5l-6.5-21l-3.5-0.9l4.9,20.9l-0.2,4.2l4.7,11.5l9.6,19.3c6.4,13,20.2,25.3,24.2,28.6l-14,16.1l-4.2-1.6
		l-118-51.1c-1.7-0.6-3.5-1.1-5.3-1.6c-0.7,0-24.4-7.3-24.4-7.3c-5.1-2.9-8.4-1.8-8.4-1.8l-14.4,7.3l-81.3,38.5l-4.9,7.1l3.6,2.2
		l7.2-3.7L1434,240l-24.9,11.3l95,167.9l-12.1,13.6l-151.1-282.9l123.3-0.6l60.4,1.8l48.5,3.1l43.1-0.9l-48.9-8l-76.5-19.1
		l133.8,1.8l-35.5-12.5l-58.2-9.3l-45.8-2.7l-170-2.1l-0.1-0.1l-54.3-0.9l0.2,0.4l-340.6-3.5l-212-0.9L617.2,96l-85.8,0.9l0.9,43.1
		l19.5,0.4h63.1l37.3-4.9l36-12l198.8,4.4l28.2,22.2l-4.4,2.2l-234.1-4.4L569.9,146l-63.5-0.8l-1.4-32.3l-17.3,0.8l3.8,66.5
		c-2.2,0.6-20.3,5.2-26.1,9.7l0.4,0.1c-12.8,7.1-36.1,22.8-57.7,51.2l-27.8-68c0,0-5.7-13.6-15.3-12.7c-5.8,0.5-49.5,5-105.1,39.7
		c0,0-51.1,29.6-80,80.7c0,0-34.5,52.9-37.8,94.4c0,0-12.2,60.7,3.3,114.5l7.1,24.9c0,0,4.5,12,18.7,8.7c6.8-1.6,13.5-3.9,20-6.7
		l23.6-8.5c0,0,19.3-5.1,25.3,1.8c0,0,2.7,4.2-6.2,8.9L152.8,572l3.8,5.8L241,523c0,0,9.1-2.4,7.1,9.1v2.7c0,0-0.9,12.9-11.3,20.7
		l-30.9,24.9c0,0-15.6,10.9-1.1,26.2l44,37.5l60,38.9l62.9,31.6l26.4,10.9l28,6.7L465,737l61.3,3.8l-0.2-11.8l-70.2-4.4l-32.7-4
		l-24.5-6.6l24.7-52.9l7.1-2.4c-1.3,7.1-3.4,14.2-7,19.2c0,0-3,6.8,3,8.3l49.5,17.2c0,0,7.1,2.1,9.2-6.5l4.7-11.8
		c0,0,0.9-5.3,7.4-3.6l53.9,9.5c4,1,6.5,5.1,5.4,9.2c0,0.1-0.1,0.2-0.1,0.3l-10.7,67.3l-22.5,3c0,0-20.1-1.8-26.7-0.3l-3.3,7.1
		l24.6,13.6l6,11.9l-82.1-37.3l-138.4-63.4l-3.3-4.5l-4.5,0.9L294,704c0,0-87.7-36.2-96.6-42.4l23.8,28.2L333.4,749l105.5,51.8
		l128.3,61c0,0,121.6,54.3,122.4,54.6s37,6.5,37,6.5v-20.7l456.3,2.4v23.1l100.1-37l125-51.3l147.6-69.5l79.1-43.1l67.3-41.3
		l41.4-35.7l45.8-53.2l26.9-56.6l-134.7,108.6L1632.6,679.7z M1682.6,226.6c46.1,34.5,75.3,90.1,75.3,90.1
		c26.4,49.8,27.3,98.4,27.3,98.4c-0.6,64.5-9.3,95.2-12,103.5l-24.3-6.5l1.6-8.3l1.2,0.3c8.7,4.5,15.1-3.8,15.1-3.8
		c8.7-45.3,2.7-99.1,2.7-99.1c-7.3-56.9-36.9-93.8-36.9-93.8c-34-41-60-57.8-66-61.5L1682.6,226.6z M1697.7,485.1
		c8-25.6,2.6-51,2.6-51c-10.2-41.3-28.9-61.2-28.9-61.2c-22.5-31-53.9-53-61.6-58.1l9.8-11.9l15.6,12.1c20,15.6,56.9,59.7,56.9,59.7
		c21.8,31.5,23.8,65.4,23.8,65.4c-0.3,16.8-3.1,35.6-5.5,48.6L1697.7,485.1z M1709.6,493c-0.7,3.4-1.2,6.2-1.7,8.2l-15.1-4.1
		c1.3-2.5,2.4-5.1,3.4-7.7L1709.6,493z M1633.4,340.6c17.6,14.7,42,48,42,48c16.7,23.3,19.8,57.8,19.8,57.8
		c0.1,15.9-1.8,28.2-3.9,37l-12.8-3.6c1.4-8.2,2.1-15.2,2.1-15.2c2.7-40.9-25.1-76.5-25.1-76.5c-24.1-35-51.5-49.6-61.3-54l12-14.6
		L1633.4,340.6z M1690.1,487.8c-1,3.3-1.9,5.9-2.6,7.8l-11.7-3.1c0.7-2.5,1.3-5.3,1.8-8L1690.1,487.8z M1638.8,376.1
		c29.1,29.1,34.4,58.5,34.4,58.5c4.1,28.1-0.8,48-3.7,56.3l-14.6-3.9c4.6-13,3.7-33.5,3.7-33.5c-2.2-15.6-7.8-30.6-16.4-43.8
		c-24.2-34.9-54.7-51.2-64.3-55.7l12-14.7C1610.9,345.3,1638.8,376.1,1638.8,376.1z M1612.8,410.1c0,0-25.9-28.4-47.1-41.2l8-9.7
		c36.1,12.2,69,62.3,69,62.3c11.2,16.7,6.7,52.8,5.1,63.6l-16.8-4.5C1633.4,471,1639.2,438.1,1612.8,410.1z M1580.4,325l-109.7-48
		l-16.4-8.7l0.4-0.8l-17.1-24.6l155.4,67.6L1580.4,325z M1447.2,284.6l5.1-11.5l32.9,16.9l91,40l-5.7,6.6l-5.9,7.4l-43.8-22.1
		l-42.7-16.9l-31.2-20.1L1447.2,284.6z M1600.8,405.7c0,0,29.2,28.4,24.5,73.3l-13.2-3.6c3.2-15.4-3.7-28.4-3.7-28.4
		c-14.2-30.4-46.1-54.3-56.1-61.3l9.4-11.9C1566.3,376.8,1585.6,389.4,1600.8,405.7z M1597,437.4c2,2.8,3.6,5.7,5,8.7
		c-22.6-2.1-67.7-17.4-80.3-21.8l27.9-35.3C1576.6,408.7,1597,437.4,1597,437.4z M1537.4,436.3c43.8,14.1,60.8,15.5,66.7,15.3
		c2.4,7.2,3.2,14.8,2.4,22.4l-102.3-27.4l14.1-17.8L1537.4,436.3z M1545.4,508.2l95.9,25.7l-3.8,4L1625,546l-15.6,9.8l-5.6,2.7
		l-3.1,3.1l-11.6,11.1c0.2,2.2-1.2,2.8-1.2,2.8l-3.8-6.3c-4.7-7.8-10.4-3.8-10.4-3.8l-8.8,4.2l-26.4-48.9
		C1538.5,513,1541.7,509.5,1545.4,508.2z M1586.5,581.8c6.7-2.5,7.4-9.6,7.4-9.6l15.1-11l39.8-25.3l12.6,3.4l12.6,3.3
		c-1.6,2.9-5.1,7.7-12.3,12.6l-34.4,23.4c0,0-8.4,3.3-18.7,12l-11.8,9.3l-12,6.9l-10.5-19.5L1586.5,581.8z M1605,599.1l23.6-16.6
		l27.8-19.3l12.4-9.6c0,0,8-5.4,11-9.6l21.6,5.6c0.9,1.7,1.4,4.1-0.2,6.7l-6.4,10.1l-28.3,19.9l-27,18.8l-24.2,16.6l-17.2,9.6
		l-10.1-18.7L1605,599.1z M1629,617.5l27.3-19l21.8-15.4l12.4-7.7l8.7-6.1c0,0,7.2-10.3,9.9-17.7l10.6,2.8
		c0.3,5.1-0.3,13.8-6.1,19.8l-26.7,19l-34.8,25.6l-31,20.7l-15.2,6.2l-4.6-8.6L1629,617.5z M1712.8,502.5c0.5-2.2,1-5.1,1.6-8.2
		l11.1,2.9c-1.3,3.6-2.5,6.2-3.2,7.8L1712.8,502.5z M1715.2,490c2.4-13.3,5.1-29.4,5.1-29.4c8-45.8-21.3-86.9-21.3-86.9
		c-27.3-37.9-66.6-69.5-75-76.1l10.4-12.7l0.5-0.6c61.8,50.7,79.7,83.2,79.7,83.2c21.1,32.7,20.7,66.9,20.7,66.9
		c0.4,26.7-4.3,46.7-8.3,58.9L1715.2,490z M1732.4,499l12.6,3.3c-0.7,3.4-1.3,6.2-1.7,8.3l-14.4-3.9
		C1730.2,504.5,1731.3,501.9,1732.4,499z M1733.7,495.1c7.1-23.2,7.1-57.4,7.1-57.4c1.1-51.3-25.8-82.2-25.8-82.2
		c-28.1-38.5-67.1-69.2-76.1-76.1l8.2-9.9c58.5,32.1,80.1,77.1,80.1,77.1c17.8,29.5,22.3,95.5,22.3,95.5c1.3,20-1.4,41.9-3.9,56.3
		L1733.7,495.1z M1663.1,250.2c23.6,13.1,61,54.6,61,54.6c31.1,36.2,40,92.9,40,92.9c8,46-2.4,98-2.4,98c-1.1,7.5-7.6,5.1-7.6,5.1
		l-2.9-0.8l0.1-0.3c10.9-52.2-2-102.9-2-102.9c-7.1-48.7-36.2-81.3-36.2-81.3c-24.2-28-55-48.6-60.7-52.3L1663.1,250.2z
		 M1497.9,178.6l31.6,8.9l123,54.5l-11.2,12.9l-156.5-69.6L1497.9,178.6z M1477.9,188.8l158.5,71.7l-10,11.6l-168.3-73.2
		L1477.9,188.8z M1451.8,202.1l169,76.4l-8.1,9.4L1434,211.2L1451.8,202.1z M1412.2,222.2l14.2-7.2l180.8,79.1l-9.7,11.2
		L1412.2,222.2z M1436.6,287.2c0,0,0.7-2.7,4.4-1.1l0.5-0.1l15.7,13.5l24.7,11.6l78.6,37.9l-11.5,14.4l-95.4-45.9L1436.6,287.2z
		 M1458.3,325.8l86.4,42.9l-9.8,12.3l-60.1-26L1458.3,325.8z M1478.1,361.1l53,24.7l-23,28.7L1478.1,361.1z M891.4,125.3l2.1-2.1
		l225.8,2.2l1.7,21.7l-201.1-2.3l-2.4,2.7L891.4,125.3z M678.3,152.8l120.9,1.2l119.4,1.2l10.4,2.4l-3.8,3l-3,1.2l-11.9-3.3
		l-4.7,1.2l-5.3,2.1l-3-1.2l-2.7-2.4l-4.4,0.3l2.4,2.4l-3.3,2.4c0.4,1.2,1.4,2.1,2.7,2.4c2.1,0.3,11,0,11,0l4.4-3.5l6.2,3.3
		c0,0,5.9,3.6,8,3c2.1-0.5,8.6-2.7,8.6-2.7l4.7-0.6l8,2.4c0,0,4.1-3,5-3h10.4l13.9-1.5l9.5,1.2l-13-5.9l-9.5-2.7h-8.6l-10.7,0.3
		l-6.9-3.3l36.5-0.8l188.7,1.5l128.4-0.3l80.9,157.5l62.8,116.4l-87.7-23.5l-135.2-39.4c0.1-4.2,1.7-8.3,1.7-8.3
		c1.5-5.9-1.8-8.3-1.8-8.3c-8.3-4.2-10.1,0-10.1,0l-3.6,5.6c-1.3,3.1-4.3,4.4-7.6,4.8l-176.6-51.5l-11-6.9
		c4.7-9.8-1.8-14.2-1.8-14.2c-11.5-3.6-13.3,7.4-13.3,7.4c-1.3,2.5-3.1,3.9-5.1,4.6l-45.9-13.4l-123-36
		c-5.9-16.1-18.1-22.9-18.1-22.9c-19-8.3-27.1,3.8-29.6,8.9L640.2,198c5.2-11.9-0.6-23-0.6-23c-5.6-14.2-30.2-13.9-30.2-13.9
		c-24-1.9-46.8,10.4-51.1,12.9l-9.6-2.8c0,0-19.4-3.6-41-0.3l-0.9-20.7L678.3,152.8z M804.4,246.1l-14.6-4.3l-2.7-4.6l4.2-7.4
		C797.9,232.6,802.2,240.6,804.4,246.1z M635.3,196.6L564.8,176c10.3-5.1,27.6-9.2,27.6-9.2s11,1.5,11.8,1.5h7.4l13-2.4
		C641.6,172.4,638.7,187.7,635.3,196.6z M418.6,245.4c0,0,26.7-37.6,61.6-50.7l197,64.1l51.5,14.8l-1.8,7.1l230.7,66.9l-0.5,35.1
		l22.8-0.6l-0.9-20.8h-17.2l-0.4-12.6l45.4,13.2l236.1,66.4l219.4,57.6l16.5,30.6l-54.1,28.6c-24.6-38-92.1-54-92.1-54l-71.1-17.2
		l-152.9-41.5c-67.3-18-107.8,11-107.8,11c-24.6,15.7-44.7,13.9-44.7,13.9l-27.6-5.2c2.8-10.1,2.4-20.8-1.2-30.7
		c-5.3-13.6-18.7-4.1-18.7-4.1c-21,10.6-44.2,18.4-52.8,21.2l-11.5-2.2c-63.1-8.4-121.5-26.1-141.4-32.6l-47-151.3l-71.1,3.8
		l-68.9-1.1l-102.2-2.6L418.6,245.4z M1349.1,718.2l-2.1-6.8c0,0,12.7-36.2-2.7-60.2c-4.1-5.1-9.9-8.5-16.3-9.8
		c0,0-7.4-9.5-16.6-10.4l-56.3-8.6l-42.4-5.3l-64-20.2v-20.7c0,0-0.1-3.2-1.3-6.9c45.7,19.8,116,26.9,116,26.9l36.7,4.3
		c16.1,3,32.4,10.2,32.4,10.2c15.7,5.5,24.6,27.1,24.6,27.1l10.1,35l5.9,29.5c0.6,16.1-7.7,22.8-11.8,25l0.4-11.8L1349.1,718.2z
		 M1148.9,632v-14.2h0.1v-0.1l6.5,1.7l8.7,2.2v0.2l47.1,12.7l5,1.8c1.3,1.9,1.9,4.3,1.8,6.6v5.9l-27.4-8.1l-24.8-4.8l-1.4,0.7v75.9
		l0.5,26.3c1.4,0.4,5.2,0.5,15.3-1.5c14.7-3.1,29.7-4.6,44.7-4.5h0.6l0.6-3l0.6-1.3l14.2-72l-15.7-5.4l-0.7-12.7l78.4,30.1
		c3.8,2.5,3.3,5.6,3.3,5.6l-3.3,7.8l-34.7-14.2l-0.3,0.3c-10.8-2.5-17.3,8.3-17.3,8.3l-8,28.2l-5.4,25.2c0.5,0.8,1.3,1.5,2.3,1.8
		l13.3,1.9c7,1.5,29.2,3.1,29.2,3.1c14.2,1,31.8,2.4,31.8,2.4v1.3c-14.7,2.2-42.2-1.3-42.2-1.3c-17.5-1.5-36.9-1.7-44.1-1.7
		l-13.1,1.2c0,0-19.6,2.6-26.8,4.9l-21.1,4.8h-1.5v0.3h-8.9c0,0-6.2,0.2-6.3-5.1v-46.7L1148.9,632z M1148.8,609.8V604l58.1,17
		c0,0,8.1,2.1,7.2,9.1L1154,615C1154,615,1149.2,613.3,1148.8,609.8z M1292.8,682.9l8.6,4.4l-11.3,31.7c0,0-2.1,5.6-7.7,4.2
		L1292.8,682.9z M1277.2,721.9l-21.8-4.5c-6.7-1.3-4.9-7.3-4.9-7.3l3.6-15.1c3.6-12.9,4.9-18,4.9-18c3.8-7.3,15.1-3.1,15.1-3.1
		l14.2,8.7L1277.2,721.9z M1309.7,665.9c0,0-86.4-32.6-85.9-32.6s-4.2-9.8,2.9-11c0,0,7.6,0.2,26.2,3.9l44.6,7.7l13,2.4
		c0,0,11.3,3.1,9.3,9.6L1309.7,665.9z M1370.4,654.7c-9-33-20-41-20-41c-21.8-19.5-50.2-20.9-50.2-20.9l-46.4-5.5
		c-35.6-5.9-69.5-14.8-69.5-14.8l-46.1-14.7l0.1,0.2c-0.7-0.3-1.5-0.6-2.3-0.7l-1.9-1.1l15.6-16.1c0,0,6.2-6.8,18.1-3.3l80,23.7
		l93,26.4l19.6-60.5c0,0,3.9-8.3-4.7-10.9l-51.3-15.4l-61.9-16.6l-30.8-8c0,0-6.5-3.6-11.3,3.3l-21,53.9l-19-4.4l-4.2-32.6
		l-10.7,1.8l2.7,30.5l-4.2,6.2l-9.5,6.8l-3.6-3l-9.5-38.8l-6.5,1.2l11,49.2l-1.1,1.4l-4.6-2.6l-36.7-20.2c0,0-37.6-17.8-75.2,4.8
		c0,0-20.5,8-55.1,62.8c0,0-24.6,30.2-96.3,22.8c-39.6-3.3-79-9-117.9-17.2c0,0-48.3-10.1-58.1-15.1c-8.6-4.6-16.3-10.7-22.5-18.1
		l23.2-61.6l-7.1-1.6L652,559.5c-0.9-1.4-1.7-2.8-2.5-4.3c0,0-17.5-21.9-44.2-26.1L568,511.3v0.1c-36-34.1-17.2-77.4-17.2-77.4
		c24-54.8,78.8-46.2,78.8-46.2l75,27.9l86.5,21.6l147.3,25.1c26.7,9.1,50.7-3.9,50.7-3.9c17.2-10.1,46.2-20.1,46.2-20.1
		c29-11.5,69.9,2.7,69.9,2.7l95.1,25.2l130.4,33.5c41.2,8.8,70.6,36.6,80.5,47.2l-0.4,0.2c25,26.4,40.6,70.2,40.6,70.2
		c8.7,23.9,3.4,51.9,3.4,51.9c-7.7,31.1-40.9,32.9-40.9,32.9c-30.2,0.9-35.8-21.8-35.8-21.8L1370.4,654.7z M1203,489.9l5.1-9.6
		l144.4,40.2l-3.3,8.9l-130.9-34.9l-1.2,3.8l61.6,16.2l60.4,18l9.8,3.1l-4.9,9.5l-67.3-18.9l-46-12.7l-32.9-9.6l3.8-9.8l7.2,1.9
		l1.7-3.6L1203,489.9z M1230.8,522.1l59.1,16.7l52.7,14.7l-3.8,8L1191.2,522l3.3-9.8L1230.8,522.1z M1250.3,543.9l40,12l45.6,11.1
		l1.6,1.6l-4.2,8.4l-84.2-23.8l-61.6-16l-1.3-2.4c0,0,0.2-4.7,1.8-5.3c0.9-0.4,1.7-1,2.2-1.8L1250.3,543.9z M647.8,374.7
		c0,0-48.7-18.7-92.4,22.6c0,0-31.9,29-24.4,74.8c0,0,4.8,31.2,26.9,52.5l-36.5,47.6c-3.4-3.9-7.8-6.7-12.9-7.9l13.3-24.2
		c0,0,10.4-18.4-4-38.4l-12.5-26.9c0,0-2.4-6.5,4.5-17.3c0,0,8.9-13.5,9.5-20c0,0,9.1-25.3,24-41.1c0,0,19.6-25.3,39.1-34
		c0,0,30.7-14.2,79.8,2.7l3.1-1.8L636,262.1l11.5-0.7L687.9,398c-41.3-17.8-65.3-21.7-65.3-21.7c-76.4,5.6-86.2,69.9-86.2,69.9
		c-6.8,43.2,15.4,64.4,26.4,72.1l-3,3.9l-0.5-0.4l-10.2-12.3c0,0-13.3-16.7-16.5-38.2c0,0-6.1-31.5,13.9-60.3c0,0,17.9-24.5,51-33.9
		c0,0,19.6-7.9,48.5-0.2l32.9,10.8l0.9-1.9L647.8,374.7z M225.4,424.3c0,0,2.8,15.3,21.6,28.3l20.4,15.9l-8,11.9l-36.9-26.7
		c0,0-18.5-12.5-15.1-39.6c0,0,3.3-22.7,9.7-38.7c0,0,14.5-33.8,25.5-47.3c0,0,21.9-27.5,35.3-37.8c0,0,11.9-12.6,30.4-14.7
		c0,0,12.2-0.7,22.4,3.1l44.1,15.2l-7.5,12.3l-3.8-0.3l-31.1-11.7c0,0-15.4-6.7-35.4,2.4c0,0-21.2,15-37.2,37.5
		c0,0-16.7,23.8-25.9,46.2C233.7,380.4,221.7,406.3,225.4,424.3z M246.8,445.4c-9.7-7.9-15.8-19.5-16.9-32c0,0,0.3-17,16.3-45
		l20-33.2c0,0,16.9-25.5,38.1-36.6c0,0,12.3-5.8,30.8,1.9l28.2,12.2l-7.4,12.1l-26.1-10.4c-19-6.5-30.8,4.7-30.8,4.7
		c-18.4,16.3-38.2,50.2-38.2,50.2c-6.9,12.3-11.8,25.6-14.5,39.4c-1.4,8.6,1.7,17.4,8.3,23.1l24.6,17.8l-8,12.9L246.8,445.4z
		 M257,427.9c-9.5-8-3-26.5-3-26.5c4.6-14.9,18-38.9,18-38.9c11.4-18.3,28.9-38.7,28.9-38.7c7.4-5.9,17.2-7.8,26.2-5.2l25.6,11.5
		l-7.7,12.6l-11.9-6.2c0,0-11.6-7.4-23.3-0.3c0,0-11,10.5-25.5,30.4c0,0-16.3,28.3-18.5,42.2c0,0-1,7.6,8,12.5l15.9,11.3l-8.3,13.5
		L281,446L257,427.9z M480.4,341l-19.9,6.3l7.8-12.1l40.5-71l5.9,0.2l17.9,0.2L480.4,341z M538.2,264.5l25.8,0.2l-41.5,62.8
		l-34.9,11.1L538.2,264.5z M381.2,391.9l23.8,10l-1.9,3l-3.1,4.5c-8.2-3.3-16.2-6.6-23.6-9.6L381.2,391.9z M372.4,398.4
		c-17.2-7-30.7-12.4-36-14.6l0.2-0.3l4.8-8.3l36,15.2L372.4,398.4z M408.6,403.7l0.1-0.1l22.8,9.7l-4.7,7.2
		c-7.7-3.1-15.5-6.3-23.1-9.4L408.6,403.7z M423.4,404.7l33.8-52.3l19.5-6.1l-35.1,51.4l-7.5,11.4L423.4,404.7z M453.1,349.7
		l-11.9,3.8l20.2-31.1l18.2-28l11.9-30.6l12.5,0.3L453.1,349.7z M449.9,354.7l-31.6,47.8l-7.1-2.9l26.8-41.2L449.9,354.7z
		 M407.5,398l-4.9-2l18.7-32.4l10.5-3.3L407.5,398z M398.6,394.3l-15.1-6.3l9.6-15.9l0.4,0.1l22.1-6.9L398.6,394.3z M379.8,386.6
		l-36.3-15.1l6.9-12l39.1,11.7L379.8,386.6z M272,413.1c-0.6-3.9,0.1-7.9,1.9-11.4c0,0,10.2-24.9,15.9-31.7l19.6-27.1
		c0,0,5.8-7.9,16.3-3.4l16.5,7.8L335,359c-2.9-2.1-10-5.7-20.1-0.8c0,0-8,7.1-19.3,32c0,0-7.7,13.3-0.3,20l5.3,4.8l-7,11.4
		C290.8,425.9,282.6,423.5,272,413.1z M331.6,364.5l-27.2,44.2c-2.7,0.4-6.1,0.1-7.4-4.2c0,0-1-4.8,3.4-12.5l11.7-20.9
		c0,0,6.1-11.5,12.3-10.5L331.6,364.5z M293.2,471.4l27.1-57.8l13.8-25.8l28.4,11.4l-56.1,86.3l-14.8-9.2L293.2,471.4z M367.8,401.4
		l29.5,11.9l-61.8,90.3l-25-15.5L367.8,401.4z M401.1,414.8l23.2,9.3l-62.7,95.7l-21.4-13.3L401.1,414.8z M428.3,425.7l23.3,9.4
		l-65.7,99.8l-18.8-11.6L428.3,425.7z M430.8,422.1l4.8-7.1l22.9,9.7l-4.5,6.8C446.5,428.4,438.7,425.3,430.8,422.1z M438.4,410.9
		L484,344l34.9-10.9l-56.2,85l-1.5,2.2L438.4,410.9z M463.9,426.9l22.4,9.5l-4.2,6.6c-6.7-2.8-14.4-5.9-22.7-9.3L463.9,426.9z
		 M466.7,422.6l27.6-42l76-115.7l18.5,0.2l9.2-0.6l-92.6,141.7L489.1,432L466.7,422.6z M605.8,264l16.8-1v4.5l-28.9,51.1l-31.1,49.1
		L541,392.3l-4.2,3.6l-12.2,17.3l-12.9,25.3l-0.5,2.5l-16-6.6l30-49.4L605.8,264z M492.5,439l17.7,7.5l-0.1,0.5l-2.9,4.2l-1.6,1.4
		c-3.3-1.4-9.2-3.9-17.1-7.1L492.5,439z M511.3,498.1l-21.8,37.8l-20.2-15.2l31.4-45.8c0.7,1.8,1.6,3.7,2.9,5.4L511.3,498.1z
		 M865.5,440.4l41.2-17c10.1-7.7,15.4,0,15.4,0c5.6,9.3,2.4,22,0.5,27.8L865.5,440.4z M409.9,327.2c0.7,0.5-1.6,3.6-1.6,3.6
		c-2.2-0.3-4.3-0.7-6.4-1.3c-1.6-0.7-6-0.9-8.2-1.1c-1.5-0.1-2.9,0.4-4,1.3c0,0-1.6,6-1.6,6.7s-3.8,4.9-3.8,4.9l5.1,2.9l9.6,2.2
		l5.3-0.9l5.1-4.7l1.3-6.5l3.3-4.4l1.6-5.3l24-1.1l-2.5-32.4c-0.7-0.1-1.5-0.1-2.2,0c-0.7,0.2-7.6-1.3-7.6-1.3l-4.4,0.4
		c0,0-4-0.7-7.1-1.3c-3.1-0.7-2-4.5-2-4.5l1.5-4.4l3.8-4l2.9-2.5l-2.2,0.2l-3.8-2l3.3-1.8l1.1-4.5l-5.1-3.8l70.7,1.9L471.7,298
		l-37,57.3l-39,12.4l-43-12.8l27.3-47.3c3.3,1.7,11.2,5.8,11.9,6.1c0.9,0.4,5.1,4,5.1,4l8.7,5.3C408.8,325,409.2,326.8,409.9,327.2z
		 M207.4,505c0,0-18.7,5.6-30,10.7c0,0-14.2,6.4-19.5-5.3c0,0-11.3-33.8-11.8-58.9c0,0-4.2-45.3,5.3-82.4c0,0,12.5-52.4,44-94.2
		c0,0,29.1-43.8,71.6-68.7c0,0,54.9-34.6,100.8-38.4c1.7,1.3,3.4,3.4,4.5,6.5L403,248c-0.1,0.1-0.1,0.2-0.2,0.2l-73.1-22.5l-0.6,4.5
		l70.4,23.4l-8.9,14.5l-42.5-13.7l-23.5-6.3c0,0-25.2-8-46.7,6.7L246.8,280c0,0-23.3,25.2-40,50.2c0,0-21.6,32.7-27.1,72.9
		c0,0-7,32.7,6.8,56.1c0,0,7.9,11.4,35.9,31.3l11.2,9.3C227.8,500.3,218.8,501.8,207.4,505z M241.5,498.9l-28-21.1L198,464.5
		c-7.4-8.5-12-19-13.2-30.2c0,0-2.1-20.9,1.8-41.3c0,0,5.8-24,22.1-55.3c10.5-16.6,22.2-32.4,35.1-47.3c9.7-9.5,20.3-18,31.7-25.5
		c0,0,18.5-13,40.2-12c0,0,9.2,0.3,39.5,8.5l32.9,11.1L377.8,289c-7.3-2.8-37.6-14.2-56.8-17.1c0,0-21.8-4.5-38.9,9.3
		c-19.1,14.4-35.7,32-48.9,52c0,0-29.3,42.5-30.7,80.9c0,0-5.1,28.9,17.1,45.3l35.5,27.4l-3.3,4.8
		C251.9,491.6,248.2,497.9,241.5,498.9z M391.6,711.4l-19.9-8.2l-61.6-31.3l-65.8-44l-28.9-25.8c0,0-9.5-8.4-2.2-16l12.5-9.8
		l62.6,46.2l57.3,34.7l57.5,28.2L391.6,711.4z M405.8,679.6l-78.3-39.3l-64.7-42.2l-31.2-26.3l11.8-9.2l6.5-4l159.7,112.6
		L405.8,679.6z M413.7,661.9l-1.5,3.4L255.9,554.8l6.4-4l9.4,1.8l139.8,97.8C416.6,653.2,413.7,661.9,413.7,661.9z M302.6,535.2
		l4.4-8.2c4.4-6.2,14,1.1,14,1.1l47.3,32.9l-10.2,16l-49.8-33.6C301.4,539.9,302.6,535.2,302.6,535.2z M432.5,632.8L379.2,597
		l16.2-22c7.3-7.6-1.3-15.8-1.3-15.8l-72.4-49.8c-14.2-10.7-23.6-2.7-23.6-2.7l-7.5,6.9l-5.4-14.7l5.1-17.5l25.1,16L423,566.8
		c13.5,8.5,18.7,31.7,19.8,37.5l-0.3,0.1C442.5,604.4,446.6,626.8,432.5,632.8z M415.2,543.9c-3.1,6.2-8.4,4-8.4,4l-15-9.3
		l52.3-81.6l12.9-19.7l22.9,9.2l-36,56.9l0.4,0.4L415.2,543.9z M451.2,507.1l35.1-58l16,6.4l-0.7,0.6c0,0-2.1,4.4-2.2,10.3l-35,50.6
		L451.2,507.1z M467.9,596.4c-1.3-6.3-1.4-14.5-1.4-14.5l27.3-42.7l-0.3-0.2l20.3-34.9l2,4.6c0,0,8,18.2,1.1,30.2l-16,24.7l-3.8,9.1
		l-6,9.1l-4.9,7.3l6.2-1.1l8.4-9.5l5.1-10.2l8.2,2.9l1.8,3.3l1.8,1.6l-31,25.9L467.9,596.4z M487.6,660.8c-10.9-6.5-2-24.1-2-24.1
		c9.2-22.5,23.9-33.8,23.9-33.8l8.2,0.5c0.9,1,0,3.7,0,3.7l-12.9,49.5C497.2,666.4,487.6,660.8,487.6,660.8z M555.9,770.3l25.7,5.6
		l-4.7,22c-10-3-19.8-10.5-19.8-10.5C550.8,779.9,555.9,770.3,555.9,770.3z M707.2,881c0,0-5.2,1.3-15.5-4.4l-43.6-18.8l-48.9-22.2
		L533,801.9c0,0-7.9-7.1-0.7-20.1c0,0,6.5-9.5,12.5-2.6l2.2,11.3l-2.3,1.9c0,0,5.8,7.7,23.9,18.6c0,0,43.3,22.6,66.8,33.9l59.3,25.9
		l13.4,5.9L707.2,881z M783.2,736.6l-4.5-0.8l-2.8,14l-2.6-0.5l2.7-13.2l-4.8-1l-2.8,12.7l-2.3-0.2l2.5-12.8l-4.5-0.8l-2.8,12.7
		l-2.4-0.3l2.3-12.7l-4.5-1.1l-3.3,12.9l-2.3-0.3l2.7-12.8L749,731l-3,13l-2.6-0.3l3-12.9l-5.3-1.6l-2.9,14l-2.5-0.4l2.8-13.6
		l-4.5-0.9l-3.3,13.2l-2.5-0.3l2.8-13.1l-4.5-1.1l-3.2,13.3L721,740l2.9-13.3l-4.8-0.9l-3.2,13.1h-2.5l2.9-13.3l-5.2-1l-2.9,12.8
		l-2.3-0.3l3-13l-5.6-1.3l-2.8,13.4l-2.1-0.1l2.5-13.5l-4.9-1.1l-2.8,13.7c0,0-2.1-0.2-2.5-0.2s2.7-13.6,2.7-13.6l-5.2-1l-2.8,13.6
		l-2.5-0.3l2.7-13.4l-4.7-1.1l-2.9,13.4l-2.5-0.3l3-13.9l-4.7-0.7l-3.2,13.7l-2.8-0.4l3.1-13.6l-4.6-0.7l-3.2,13.1l-2.8-0.2l3-13.2
		l-5-1.1l-3.1,13.3l-2.7-0.4l3.2-13.1l-4.8-1l-3.5,13l-2.7,0.1l3.2-13.1l-5-1.6l-3.2,13.8l-2.6-0.6l3-12.9l-4.9-1.5l-3.3,12.9
		l-2.2-0.2l2.9-12.9l-4.9-1l-3,12.8l-2.8-0.2l3.7-13.1l-5.6-1.2l-2.9,12.8l-2.7-0.2l3-12.7l-5.2-0.9l-2.9,12.5l-2.4-0.2l2.8-12.4
		l-4.7-1.2l-3.1,13l-2.8-0.5l2.7-13l-4.2-1L594,717l-2.4-0.1l3.1-13l-4.9-0.9l-3.1,12.6l-2.7-0.1l2.7-12.8l-4.3-0.8l-3.1,12.2
		l-2.5-0.1l2.7-12.7l-4.7-1l-3.1,12.8l-2.5-0.2l2.7-13L567,699l-3,13.4l-3-0.3l3.1-13.2l-3.1-0.5l4.1-16.7l2.3,0.5l-4,13.7l5.3,0.6
		l3.5-12.9l2.6-0.2l-3.3,13.6l5,0.8l3.3-12.7l2.8-0.2l-2.9,13.1l4.2,0.6l3-12.8l2.8,0.3l-2.7,13l4.2,1.1l2.9-13.2l3.1,0.3l-3.3,13.2
		l5,0.8l3-13.1l3,0.5l-3.1,13l4.7,1.1l3.2-12.9l2.9,0.3l-3.2,13.1l4.9,1l2.8-13.2l2.9,0.3l-3,13l5.1,0.8l3.2-12.1l2.5,0.3l-3,12.1
		l5,1.1l3.1-12.8l2.8,0.3l-3.6,12.8l4.8,0.9l3.2-12.6l2.8,0.6l-3.2,12.4l4.9,1.1l3.3-12.9l2.3,0.3l-2.8,12.5l4.7,1.1l3.5-12.5
		l2.4,0.5l-3,12.3l5.2,1l2.9-12l2.7,0.5l-3,12.6l5.1,0.9l3-12.8l2.5,0.3l-3.1,12.5l4.7,1l3.2-12.5l2.3,0.1l-2.9,12.7l5,0.7l2.9-12.2
		l2.1,0.2l-2.3,12.3l4.6,1.2l3.3-12.4l2.7,0.6l-3.1,12l4.9,1L701,706l2.3,0.3l-2.9,12.4l4.8,1.3l3.5-12.8l1.9,0.3l-2.6,12.3l4.9,1.3
		l3.8-12.8l2,0.4l-3.1,12.6l4.8,1.1l3.4-12.9l2.5,0.4l-3.3,13l5,1l3.2-13.2l2.2,0.5l-2.9,12.7l5,1.2l3.4-12.9l2,0.5l-3,12.2l5,1.1
		l3.4-12.7l2.7,0.2l-3.1,12.8l5,1l3-12.6l2.6,0.5l-2.9,12.8l4.8,1l3.3-12.6l2.4,0.2l-2.8,12.7l4.3,0.8l3.4-13l2,0.4l-3.2,13.1l4.9,1
		l3-12.9l2.3,0.2l-2.8,12.9l4.9,0.9l3.1-12.8l2.7,0.5L783.2,736.6z M793.6,687l-3.5,0.2l-3,13.3l-2.7-0.6l2.6-13.6l-5.4-0.6l-2.2,13
		l-2.7-0.5l2.5-13.2l-5-0.3l-2.6,12.9l-2.8,0.1l2.7-13.7l-4.9-0.9l-2.4,13.3l-2.7-0.4l2.7-14.2l-5-0.1l-3,13.4l-2.7-0.2L757,681
		l-5.3-0.7l-3,13l-2.7-0.1l3-13.8l-4.8-0.4l-3.4,12.6l-2.7-0.5l3.1-13l-4.7-1l-3.5,13.1l-2.6-0.1l3.4-13.8l-5-0.2l-3.5,12.9
		l-2.7-0.5l3.3-13.9l-4.6-0.4l-3.4,13.2l-2.6-0.3l2.6-13.5l-4.2-0.7l-3.3,13.3l-2.9-0.4l3.1-13.8l-4.2-0.4l-3.3,13.3l-3-0.4
		l3.3-14.1l-7.1-0.8l-3.5,15.7l-1.7-0.6l-4.7-12.1l-2.7,0.9l1,3.7l-2,1.3c0,0-2.3-1.6-4.2-0.2c0,0-1.5,2.2,0.2,3.8
		c0,0,2.1,3,4.4-0.7l2.6-2l3,7l-2.4,2.2l-24.6-4.8l4.4-20l-6.2-1l-3.1,12.4l-2.6-0.6l2.4-13l-4.5-0.7l-3,13.6l-2.6-0.7l2.7-13.4
		l-4.7-0.6l-3,13.1l-2.7-0.6l3-13.6l-4.8-0.5l-3.2,13.5l-2.5-0.6l2.6-13.4l-4.7-0.7l-3.3,13.2l-2.2-0.4l3-13.1l-4.5-0.7l-2.9,13.3
		l-2.5-0.4l3-13.3l-5-0.7l-3.3,13.7l-2-0.7l2.7-13.9l-4-0.7l-3.6,13.7l-2.1-0.7l2.8-13.8l-4.4-0.5l-3.7,13.8l-2.2-0.7l3.8-13.6
		l-5-0.4l-3.5,12.7l-1.8-0.4l3.3-13l-4.9-0.6l-3.3,13.1l-2.1-0.7l2.7-13l-4.4-0.8l-3.6,13l-2-0.6l3.2-13.1l-4.6-0.6l-3.5,13.4
		l-2.3-0.7l3.2-13.1l-5.1-0.7l-2.9,13.2c-0.7-0.1-1.4-0.3-2.1-0.6c0.2-0.1,2.2-13,2.2-13l-3.8-0.7l-3,12.4L553,657l3.3-13.2
		l-5.2-0.7l-3.6,13.2l-1.6-0.5l2.8-13.1l-4.3-0.7l-3.5,13l-1.9-0.5l3.2-13.2l-5.1-0.5l-3.5,13l-1.9-0.4l2.8-13.1l-4.6-0.8l-3.2,12.9
		l-2.3-0.6l3.3-12.7l-4.5-0.7l-3.7,12.8l-1.9-0.7l3.6-12.8l-4.5-1.1l4.7-16.2l2.3,0.6l-3.6,13.6l3.8,0.9l4.2-13.8l2.2,0.6l-3.9,13.7
		l4.7,0.8l4.2-13.6l2.1,0.5l-3.6,13.6l4.9,1l3.6-13.5l1.8,0.4l-3.3,13.3l4.7,0.9l3.8-13.4l2,0.7l-3.4,13.5l4.7,1l3.7-14l2.1,0.4
		l-3.3,13.6l4.7,0.8l3.8-13.8l2,0.5l-3.4,13.8l4.4,0.7l3.6-13.7l2,0.4l-3.1,13.9l4.6,0.9l3.6-13.9l1.8,0.4l-3,13.9l4.7,0.9l3.7-14
		l1.9,0.6l-3.4,14.1l4.9,0.7l3.9-13.9l1.7,0.4l-3.2,14l5,0.9l3.5-14l1.7,0.5l-3,13.8l4.9,0.8l3.5-13.9l1.8,0.4l-3.2,13.9l4.6,0.7
		l3.5-13.8l1.9,0.6l-3,13.8l4.8,0.9l3.2-13.7l1.9,0.3l-2.4,13.6l4.2,0.7l3.4-13.6l2.2,0.5l-3.3,13.9l5,0.6l3.6-13.3l1.9,0.6
		l-3.3,13.6l5.3,0.7l3.4-13.3l1.9,0.4l-2.9,13.3l5.1,0.7l3.3-13.2l2,0.5l-2.7,13.5l5.2,0.7l2.9-12.9l2.5,0.5l-2.7,13l5,0.9l3-13.3
		l2.5,0.6l-3.1,13l2.8,0.6l3.8-14.9l1.8,0.9l5.6,14.8l3.4-1.3l-2.4-7.1c0,0,0.8-1.6,2.2-1.1c0,0,5.2,2,3.7-4.1c0,0-3.3-3.2-5.8,1.4
		l-1.2,1.4l-0.7-1l-2.2-5.3l1.7-1.8l24.6,4.6l-4.5,19.3l3.2,0.6l3.3-13.5l2.7,0.6l-3,13.6l4.4,0.5l3.4-13.2l2.8,0.5l-3.2,13.7
		l4.8,0.4l3.3-13.3l2.6,0.5l-3.5,13.6l5.3,0.7l3.4-13.7l2.4,0.5l-3.3,13.7l5.2,0.7l3-13.5l2.6,0.7l-3,13.3l4.7,0.8l3.2-13.3l2.6,0.7
		l-2.6,13.7l4.7,0.7l3-13.4l2.1,0.4l-2.5,13.8l4.5,0.6L756,664l2.2,0.4l-2.8,13.6l5.2,0.9l3-13.8l2.5,0.6l-3,14.1l5.1,1l3.1-13.9
		l2.2,0.4l-2.6,13.8l5.5,0.5l2.4-13.6l2.5,0.7l-2.7,13.6l5,1l2.5-14l2.6,0.4l-2.3,14.1l5.1,0.9l2.2-13.6l2.4-0.7L793.6,687z
		 M759.4,632.6l-92.7-18.7l-97.6-21.8l-33.1-6.4c0,0-4.9-4.5-1.1-8.9l34.6-44.6l44,27.3c0,0,14,8.2,22.2,17.1l12.7,10.7h3.3
		l-21.3-19.1l-12-8.9l-14.7-8.4L571.2,530l3.8-4.9c0,0,28,11.6,54.9,26.4c0,0,14.9,9.6,20.9,22.9c0,0,11.6,15.3,35.8,23.1
		c0,0,31.5,10,65.3,14.7l68.2,11.1c0,0,48.5,5.3,71.8,3.3c0,0,39.8-2,59.3-17.8c0,0,12.9-9.6,24.9-28.9c0,0,15.3-25.8,40.2-24
		c0,0,10.4,0,14.9,6.9l3.1,131.8c0,0-1.1,6.7-12.5,6.7l-43.5-0.4l1.2-8.8l8.9,1.6c1.1,0.2,2.1,0.3,3.1,0.4v0.2l4.4,0.3
		c27,2.9,31.2-3.5,31.2-3.5V691c1.4-1.4,2.9-4,3.2-8.5l-1.7-77.9c0,0-1.9-1.6-3.6,0.8l0.6,78.3l-0.2,2.2c-2.5,3.3-7.1,5-12.5,5.7
		l4.1-84.9c0,0-0.3-7.8-4.3-3.3l-4.3,88.6c-4,0.1-8.3-0.1-12.3-0.6l8.5-89.8c0,0-0.6-5.2-3.8-1.1l-9.1,89.9v0.4
		c-5.2-0.8-9.5-1.8-11.8-2.3l11.1-78.8l-15.1-6.7l-6.2,3.1c0,0-25.3,34.9-24.9,71.1l1.3,1.3l12.7,2.9c0,0,3.1,16-6.4,18
		c0,0-9.6-0.4-14.2-5.8c0,0-44.5-34-73.3-39.8C865.2,653.9,802.6,637.9,759.4,632.6z M993.8,720.8l-4.3,6.3
		c-0.9-2.5-2.7-5.1-6.5-7.3L966.7,732c-2-0.1-3.6-1.5-3.9-3.4l-0.2-3.4l10.7-8.2l46.4-0.4c0,0,14.2,0.6,14.5,7.7v10.2
		c0,0-4.6,7-10.1,6.7c-13.2,1-26.5,1.1-39.7,0.3l5-5.8c0,0,0.8-1.9,0.8-4.6l5.7-8.8L993.8,720.8z M992.8,874h-69v-8.3h69V874z
		 M1040.7,865.4h-40.6v-1.2l19.7-20.5c0.2,7,9.3,6.9,9.3,6.9c7.4-0.6,10.1-5.5,10.1-5.5l5.3,1.6v14.6h0.1
		C1044.7,865.1,1040.7,865.4,1040.7,865.4z M1044.8,771.2l-13.3,15.7l-15.6,0.1l-0.6-0.6l23.7-23c10.7-12,18.5-12.3,18.5-12.3
		l23.7,0.6l89.6,1.2c16.1-5.4,32.8-8.9,49.8-10.4l1.5,3.1c12.6-1.5,45.6,1,45.6,1c13.3,1.5,47.9,1.6,47.9,1.6l0.4,1.3l-11.1-0.2
		l-75.4,0.7c-16.2,0.2-56.9,7-56.9,7l-97-0.7C1063.8,757,1052.7,762.3,1044.8,771.2z M1347.7,813c0,0-83.1,66.2-132.9,70.7h-36
		c0,0,0.9-8.5-5.3-8.5h-26.1l127-49.4l8.7,23.8l7.3-5.3l-1.8-4.9l17.9-7.5l-6.3-16l33.8-13.2c0,0,10.8-11.7,18.8-30.4l7,2.4l1.5,3
		l-13.2,24.6c-1.8,3.5-0.8,7.5,0.2,9.9L1347.7,813z M1353.9,806.1c-0.5-9.3,15.1-27.7,15.1-27.7c25.1,3.1,58.7-8,58.7-8l72.4-27
		L1353.9,806.1z M1483,745.9l-67.8,24c-30.2,7.9-53.1,1.3-60.9-1.5c3.7-9.6,6.5-20.9,6.9-33.2c10.4-2.9,19.9-14.3,19.9-14.3
		l14.5-7.1l12.3-0.9c34.8-1.3,47-20.6,47-20.6c2.4-5.9,8.1-9.3,8.1-9.3c2.9-1,6.2-0.3,8.6,0.6c0,0.2,0.1,0.3,0.1,0.5
		c0,0,7.3,23.4,54.5,40.7l0.7,1.5L1483,745.9z M1492.7,638.8c0,0-12.6,7.5-18.8,21.2c-4.1-1.1-5-5.6-5-5.6
		c-0.6-54.4-39.3-98.8-39.3-98.8c16.6-13.1,47.6-28.5,53.4-31.4l46.5,86.1L1492.7,638.8z M1533.2,617l33.6,62.2l43.5-25.3l40.9-26.7
		l40.3-30.2l32.6-24.9l15.2-12.8l13.9,3.6c-3.6,6-12.7,19.4-30.2,33.8l-36.1,28.2l-44.4,30.7l-35.8,20.1l-36.4,18.7l-39.4-75.3
		L1533.2,617z"/>
	<circle class="st2" cx="682.3" cy="667.2" r="1.8"/>
	<polygon class="st2" points="1476.8,715.4 1467.4,734.6 1458.6,742.3 1450.1,752.6 1406.1,729.9 1405.9,725.9 1404.6,725.7 
		1404.1,729.4 1397.4,725.9 1394.6,722.1 1391,725 1393,728.6 1444.8,753.9 1440.3,755.4 1443.4,758.6 1453,754.3 1461.2,745.2 
		1460.8,743.9 1471.9,733.4 1471.2,731.4 1478.3,716.1 	"/>
	<polygon class="st2" points="1591.5,530.6 1583.2,520.4 1568.1,531.2 1576.3,542 	"/>
	<path class="st2" d="M1224.1,89.4l212.5,5.8l23.1,3.1l7.4-28.4c0,0,31.4-7.7,45.6-20.7l23.7-23.7l1.8-26.1L543.8-2.4l-20.5,87.1
		l284.8,2.4L1224.1,89.4z"/>
	<path class="st2" d="M1574.9,768l-108.4,55.1l-158.8,66.4l-166.5,65.2l-106.1,21.9l-125.6,4.1l-177.8-43.3l-219.3-94.8L300.9,741.9
		L279,792.3C201,753,123.1,658.4,123.1,658.4c-77.6-77.6-80-200.9-80-200.9c-15.2-88.2,32.8-190,49.9-222.7l2.3-1.3
		c31.1-47.1,99.6-108.4,99.6-108.4l64.9-29.3l112-26.7L487.2-4l-1.3,70.4l11.5-0.4l1.8-72.5l-9.1,0.7l2.5-1.6l-248-0.9l-34.7,115.6
		L-4.3,217.4l-1.8,72l65-35.9C-8.6,378.9,27.1,529.2,27.1,529.2L42,571.9l25.5,48C32.5,630-3,609.8-3,609.8l-3,46.8l80,27.8l20,21.9
		l-96-17.8l-8.3,37.9l49.8,20.7L3.4,792.8l62.8,21.9L-1.3,956.4l93,33.2l133.9,21.1l-10.4,69.9l569.8,13.3l-15-4.5l182.1,27.6
		l65.6-37.2c14.9,1.6,30.2,3.2,45.2,4.6l336,5.3l-48.6-112l147-50.4l13.6-32l-11.3-20.2l108.4-49.8L1574.9,768z M316.6,898.3
		c0,0-32.6-19.4-52.8-30.9l6.1-41.5l66.9,34.2L316.6,898.3z M736.1,1079.2l-122.6-36.8l12.5-25.8l-82.7-33.8l-9.8,20.4L503.2,989
		l11.6-21.3l-72-31.1l-8.9,19.5l-31.1-11.5l10.7-21.3l-32.9-18.7l12.8-18.9l66.9,29.8l144.6,61.6l137.5,47.4c0,0,1,0.3,2.8,0.9
		L736.1,1079.2z"/>
	<polygon class="st2" points="1755.7,147.5 1752.7,145.7 1756.8,141.9 1772.3,126.8 1755.1,113.2 1744.4,130.9 1744,133.8 
		1742.4,138.3 1738.8,135.7 1738.2,145.1 1747.4,152.6 	"/>
</g>
<g id="Buildings">
	<polygon class="st3" points="431.2,309.9 430.8,296.8 411,297.7 411.7,310.8 	"/>
	<polygon class="st3" points="442.6,555 451,561.9 468.1,539.7 458.8,531.7 450.3,526.1 441.2,522.1 427.7,546.6 	"/>
	<polygon class="st3" points="456.3,612.6 474.1,619.2 478.1,607 460.8,600.1 	"/>
	<polygon class="st3" points="282.6,502.6 275.7,503.7 277.9,518.8 285.2,517.4 	"/>
	<path class="st3" d="M566.6,772.8l-8.5,10l10.7,8.2l8.2-10.2l-3.1-2.5l0.2-6.4l-4.4-1.3c1.1,0.9,0,5.1,0,5.1L566.6,772.8z"/>
	<polygon class="st3" points="585.3,736.7 576.4,735.2 576.6,737.4 566,735.7 566.3,738.2 560.3,736.8 558.3,746.8 563.8,747.5 
		563.5,750.5 573.6,752.4 572.7,754.6 581.6,756.3 582.6,753.7 587.8,754.8 589,748 593.4,748.7 594.8,740.8 584.8,739.1 	"/>
	<polygon class="st3" points="757.7,827.7 762,808.3 597,771.8 592.6,791.2 	"/>
	<polygon class="st3" points="803.7,807.4 772.1,807.2 771.8,823.5 804.3,823.7 	"/>
	<polygon class="st3" points="849.7,823.7 849.6,804.1 817.6,803.5 817.7,823.2 	"/>
	<rect x="798.8" y="748" class="st3" width="4.7" height="7.7"/>
	<rect x="846.8" y="789.4" class="st3" width="7.4" height="8"/>
	<rect x="896.4" y="807.8" class="st3" width="10.4" height="11"/>
	<rect x="895.5" y="839.1" class="st3" width="10.5" height="8.6"/>
	<rect x="914.9" y="840.1" class="st3" width="15.1" height="7.4"/>
	<rect x="744.1" y="881.9" class="st3" width="468.9" height="8.4"/>
	<rect x="1053.7" y="855.7" class="st3" width="15.7" height="18.1"/>
	<rect x="1105.9" y="855.7" class="st3" width="14.5" height="19.3"/>
	<rect x="1057.9" y="847.9" class="st3" width="12.9" height="4.4"/>
	<polygon class="st3" points="1207.2,803.2 1061.4,798.8 1060.8,815.4 1206.9,820.1 	"/>
	<polygon class="st3" points="1303.2,830.2 1297.9,817.7 1285.7,823.1 1290.5,834.6 	"/>
	<polygon class="st3" points="1334.6,730.6 1331.7,722.1 1317.2,727.4 1321.2,735.2 	"/>
	<polygon class="st3" points="1589,531.4 1582.8,523.9 1571.2,532.3 1576.6,539.4 	"/>
	<polygon class="st3" points="1593,464.1 1585.7,463.4 1584.8,469.2 1592.8,469.9 	"/>
	<polygon class="st3" points="1438,266.9 1431.2,253.6 1422.3,258.3 1429.4,271.1 	"/>
	<polygon class="st3" points="1203.1,359.1 1196.8,357.6 1194.8,364.1 1201.9,365.3 	"/>
	<polygon class="st3" points="995.4,300.1 988.8,299.2 987.7,305.1 995.4,306 	"/>
	<polygon class="st3" points="974.9,376.8 974.6,367.7 961,368 961.3,376.8 	"/>
	<polygon class="st3" points="786.8,239.7 780.3,238.8 779.1,244.1 786.2,245.9 	"/>
	<polygon class="st3" points="574,245 579.7,226.6 572,223.4 566.3,242.3 	"/>
	<polygon class="st3" points="584.1,244.6 585.4,241 588.6,241.9 592.3,230.3 582.6,227.2 577.9,242.6 	"/>
	<polygon class="st3" points="572,223.4 566.8,221.7 564.6,229.7 569.2,230.8 	"/>
	<polygon class="st3" points="563.2,228.3 563.2,225.7 557,224.8 557.2,227.7 	"/>
	<polygon class="st3" points="562.2,229 557.2,228.6 557,230.9 562.5,231.5 	"/>
	<polygon class="st3" points="562,232.6 556.4,232 556.1,234.6 562.3,235.7 	"/>
	<polygon class="st3" points="1146.3,523.2 1145.2,496.3 1138.6,496.3 1140.3,523.4 	"/>
	<polygon class="st3" points="1126.8,584.6 1125,574.6 1105,577.9 1107.2,588.1 	"/>
	<polygon class="st3" points="1593.9,798.8 1586.3,801.9 1580.6,785 1313.9,893.9 1216.1,935.2 1135.2,964.6 1081.4,978.8 
		1021,988.1 957.9,991.7 902.8,988.6 847.2,980.6 787.2,966.8 712.1,940.6 593.9,891.7 450.3,829.9 384.6,800.1 296.1,760.6 
		280.1,793.4 301.4,803.7 298.8,808.6 340.6,829.4 343.2,824.1 394.3,849.4 392.1,854.8 435.7,872.1 437.9,867.7 562.8,921.9 
		563.7,930.8 634.8,960.6 694.8,983.2 728.1,993.9 741.9,993.4 742.8,998.3 815.7,1018.8 814.3,1022.3 892.6,1032.6 935.7,1036.6 
		945.9,1036.6 945.9,1041 962.3,1041 962.3,1035.2 1018.8,1033.9 1093,1022.8 1094.8,1033 1144.1,1021.4 1147.7,1032.1 
		1165.4,1027.7 1172.1,1013.4 1203.2,1004.1 1197.9,980.1 1294.3,946.3 1332.6,932.1 1335.7,938.8 1359.7,929.4 1357.4,921.9 
		1483.2,869.9 1488.6,881.4 1605.9,826.8 	"/>
</g>
</svg>
