<svg id="Background_Details" data-name="Background Details" xmlns="http://www.w3.org/2000/svg" xmlns:xlink="http://www.w3.org/1999/xlink" viewBox="0 0 1920 1080"><defs><style>.cls-1{fill:#fff;}.cls-2{fill:#636466;}.cls-3{fill:#c7c8ca;}</style><symbol id="New_Symbol" data-name="New Symbol" viewBox="0 0 57.77 10.07"><path class="cls-1" d="M57.33,7.51,50.26.44A1.48,1.48,0,0,0,48.94.05a1.5,1.5,0,0,0-.37,0h-40A1.46,1.46,0,0,0,8,.11H8a1.63,1.63,0,0,0-.49.33L.44,7.51a1.49,1.49,0,0,0,0,2.12,1.5,1.5,0,0,0,2.12,0L9.19,3H48.58l6.63,6.63a1.53,1.53,0,0,0,1.06.44,1.5,1.5,0,0,0,1.06-2.56Z"/></symbol></defs><title>inactive</title><g id="Bridge"><use width="57.77" height="10.07" transform="translate(436.54 879.67) rotate(-31.09)" xlink:href="#New_Symbol"/><use width="57.77" height="10.07" transform="translate(469.81 821.35) rotate(148.91)" xlink:href="#New_Symbol"/></g><g id="Pavement"><path class="cls-2" d="M1775.49,259.06l-7.11,3.51,41,54.83-9.08,7.26,27.78,70.44,22.26-7.93s-43.54-94.94-49.62-101.33S1780.36,263.63,1775.49,259.06Z"/><path class="cls-2" d="M1863.77,142c-8.87,13.19-45,67.09-71.64,62.09-29.79-5.69-45.71-64.82-45.71-64.82s-16.15-42.07-21.6-62.31c-3.87-20.47,26.38-38,26.38-38l57.76-.45,3.19-16.38s-218.78-2.73-248.35-2.73-56,13.65-75.5,24.11c-140.1,76-232.43,95.52-254.26,100.52-139.19,26.84-281.1,32.29-281.1,32.29l-404.36,3.19-379.8,2.27V173l135.12,2.21,153.64-2.84L695.81,166l214.8-5,144-5.34s94.95-9.25,110.25-12.09c34.14-3.91,139.4-35.56,158.25-43,29.52-8.18,142.26-61.17,150.08-66.15S1535.1,0,1535.1,0h-42.68S1434.81,34.06,1390,54.69c-19.91,7.47-84.64,35.21-84.64,35.21l-125.54,31.29-125.53,20.63L827.75,144s-122.69-1.06-338.56,5c-10.67,0-313.31,4.27-313.31,4.27l-7.1-.13v-82c2.38-3.27,5.22-9.45,6.83-14.26,2.06-6.18,10.53-3.2,16.71-3.43s96.87,4.12,115.42,2.06,83.82,1.83,94.58,6.41,53.36,0,65.5,0c14.43,9.85,35.27,8.48,43.05,10.08s51.3,3.89,64.12,3.89,27.94-.46,34.58,0S690.64,85,698,84.51s35.49,7.56,52.67,10.54,99.16,7.56,114.27,6.87,36.42,3.43,51.53,6.18,61.6-7.56,69.16-8,29.31,1.37,37.56.45,14.88-3.43,12.59-8.7-18.55,2.29-27.94,1.15-8.14-4.27-4.84-10.86c7.25-7.91,38.88-23.73,46.79-27s30.32-9.47,30.32-9.47L1145.32,0h-16.47s-47.45,30.06-60,38.78c-12.52,2.13-27.68,7.76-51.4,20.94C977.93,88.72,951.56,84.11,885,90s-149-11.21-161.47-13.84S661,71.64,636.19,71.42c-13.51-6.07-104.44-15.53-111.64-16s-39.61.45-45.91-6.3-50.87.45-69.28,1.8c-12.11-4.95-45.06-9-55.86-9.46s-172-6.3-172-6.3L168.78,23.89V0H151.85V6.37c-14.83,17.11-43.23,14-43.23,14L0,6.37V27.08s75.76,10.35,105.47,15S151.85,78.4,151.85,78.4v74.37L37.54,150.71,0,144v24.54l64.56,2.85,87.13,1.42c-.33,15.35-1.33,38-4.28,49.74L112,257.77l-39.6,65.8L40.45,426.7l-5.7,113.39,21.08,107.4,31.62,68.94L93,714.1l7.71,15.42,16.77-8.12,11.28,23.8,3.25-1.4,6.73,16S36.68,828.39,0,877.82V1080H412.22s-33.07-87.66,0-194.35c6.44-2.62,14.63-6.68,19.33-9.07-12-22.06-24.29-44.48-24.29-44.48L455.13,804c-11.87-12.15-26.48-31.43-24.89-51.55-7.93-2.32-28.43-8.63-28.43-8.63s-7.94,16.9-26.13,12.27S301,733.19,260.61,733.25c19.18-6.28,47.95-19.84,47.95-19.84L291,680.67l-9.88,3.48c-5-2.43-17.29-11.61-35.16-46-5.09-10.84-23.89-67-27.21-84.72s-11.06-52.2-6.64-74.33c.22-14.82-.22-28.75,29.2-96.22,4-9.07,29.42-44,69.68-76.31,5.53,5.53,6,5.53,6,5.53s45.36-39.45,118.78-52.82c14.43-1.91,46.9-4.46,162.76-3,15.27,0,328,2.33,328,2.33v-11l257.59,1.6,107,.36,152.21-.53.07-13.26s59.7,2.26,122.48,47c7.58,5.17,47,35.83,67.93,68.75,25,34.21,44.22,91.33,46.48,103.92s13.07,54.06.32,124.42c-6.51,25.75-26.64,100.26-96.75,154.64-16,11.8-66.88,51.6-149.25,61.78-5.56.23-6.62,0-6.62,0V772.57l-941.19-4.88H470.25l-.64,48,26.95,52.07s-47.08,24.58-54,29.19c-.24-.45-.48-.9-.73-1.35l1.32,4.26s-15.29,50.86-4.26,71.84,46.23,83.93,46.23,83.93l30.94-8.18L534.21,1080h601.21l-13.36-28.8-5.35-25.39,259.38-14,.26-31,108.74-5.28,12.58,18.4c177.68-29.05,304.93-172.18,304.93-172.18s88.66,69.23,95,73.36,3.88,9.72,3.88,9.72l-18.22,19.91h19.44L1920,906.5V69S1872.64,128.84,1863.77,142ZM161.6,208.38l3.15-3.14Zm935-13.44,0,6.31h-43.92l-.36,20.45-188.84.36L678.36,221l-85.71-.89-.18,2.85H500l-94.78,14.93-4.8,4.81-42.67,14.58-34.32,20.27L308,226.68,267.78,223l.29-2.88-33.9-2.28-2.85,37.89,10,.57-10.54,10-64.38-62.67-.12.11.12-.11,2.41-6.73s722.28-5,748.77-5c81.65,1.31,180.39-11.17,180.39-11.17Zm672.09,24.94s-16.41-22.15-45.32-49.45C1752.57,197.85,1768.71,219.88,1768.71,219.88ZM1475.2,91.48l-19.38,99.23-11.63-1.51-114.14.85h-1.6V162.92h-38.66v26.9l-20.55-.12v7.11h-10l-.2-3.39h1.07l7.45-41.81s30.51-9.29,45.1-13.31c30.87-7.82,124.13-50.66,124.13-50.66s82.19-42.23,99-48.85c5.63.38,13.08,1.84,16,6.75,5,8.33,10.58,26.34,10.8,36.47-3.82-.68-27.49-3.16-27.49-3.16V93L1514,92.33l-9.74-20.91-24.1,11.17,5.11,10.47C1481.75,92.43,1478.38,91.89,1475.2,91.48Zm83.86,6.94c-1.16,3.21-4.91,13.11-4.91,13.11s-24.83-8.31-50.28-14.46c0,0,40.27,9.56,50.28,14.46,2.74-7.25,4.91-13.11,4.91-13.11s24.85,7.08,41,17C1597.6,113.93,1583.11,105.62,1559.06,98.42ZM1627.35,93c-11.42-4.44-15.3.9-15.3.9-.94,1.69-2.19,4-3.51,6.45v0s-9-.59-13.32-12.74-6.32-33.65,4.28-43a15.09,15.09,0,0,0,13.36-9.24l2.85.13s45,1.27,54.14,1.69c46.31,40,44.61,79.3,47.36,110.81C1694.39,119.47,1638.77,97.48,1627.35,93Zm57.3,235.16L1673.56,314l40.84-29.59-6.51-7.7,14.2-10.8-3.7-4.73,8.6,9.16s20.22-17.33,42.1-33.84,27.66-8.26,40.87,3.3c42.93,40.45,70.22,136.76,70.22,136.76l11.11-4-63.18,22.51-27.78-70.44,9.08-7.26-41-54.83-11.62,8.89,1.09,2.55Zm200.43,323.13c-12.79,45.41-74.71,111.87-74.71,111.87L1722,704.71l-3.94,6.29,7.46-11.93-32.89-21.89,4-7.1,107.26,59.14L1844,660.39l21.87-81.92,1.46-41.58,43,1.27S1897.47,605.51,1885.08,651.33Z"/></g><g id="Buildings"><rect class="cls-3" x="895.16" y="464.84" width="39.4" height="90.78"/><rect class="cls-3" x="824.82" y="510.96" width="46.99" height="60.13"/><rect class="cls-3" x="826.57" y="579.26" width="44.37" height="12.55"/><rect class="cls-3" x="894.87" y="580.14" width="22.77" height="12.26"/><rect class="cls-3" x="944.49" y="552.41" width="28.31" height="24.23"/><polygon class="cls-3" points="1428.09 516.51 1420.76 516.51 1420.76 492.01 1378.62 492.01 1378.62 516.51 1357.78 516.51 1357.78 538.73 1378.62 538.73 1378.62 554.3 1420.76 554.3 1420.76 538.73 1428.09 538.73 1428.09 516.51"/><rect class="cls-3" x="1403.57" y="107.6" width="41.88" height="28.04" transform="translate(53.55 527.2) rotate(-21.36)"/><path class="cls-3" d="M1891.29,372.59l-63.18,22.51-27.78-70.44,9.08-7.26-41-54.83-11.62,8.89,1.09,2.55-73.2,54.19L1673.56,314l40.84-29.59-6.51-7.7,14.2-10.8-3.7-4.73,50.32-41.29S1707,136.55,1612.05,93.94c-3.59,6.43-11.59,21.69-11.59,21.69s-14.9-9.27-41.4-17.21c-1.16,3.21-4.91,13.11-4.91,13.11s-24.83-8.31-50.28-14.46L1514,92.33l-9.74-20.91-24.1,11.17,5.11,10.47c-3.47-.63-6.84-1.17-10-1.58l-19.38,99.23-11.63-1.51-.8,46.63s59.7,2.26,122.48,47c7.58,5.17,47,35.83,67.93,68.75,25,34.21,44.22,91.33,46.48,103.92s13.07,54.06.32,124.42c-6.51,25.75-26.64,100.26-96.75,154.64-16,11.8-66.88,51.6-149.25,61.78-5.56.23-6.62,0-6.62,0V772.57l-941.19-4.88v50.44h26.66V919.58H857.23v88.7l518.86,3.48,1.46-172.86-8.46-.43.14-10.32,58.09.57,3.59,61.53,27.82-5,14.63,81.19,57.87-9.61,83.7-32.49,76.29-49.45L1755.85,812l35.67-48.74L1718.06,711l7.46-11.93-36.65-24.4,6.83-13,97.74,53.88,24.87-42.66,26-91.51-.18-3.45,21.78.55,1.46-41.58,43,1.27,2-56.28Z"/><polygon class="cls-3" points="303.96 290.24 264.94 251.78 268.07 220.16 234.17 217.88 231.32 255.77 241.29 256.34 230.75 266.31 166.37 203.64 111.95 257.77 72.35 323.57 40.45 426.7 34.75 540.09 55.83 647.49 87.45 716.43 110.53 706.75 128.76 745.21 188.59 719.28 196.28 739.51 267.21 705.61 215.65 594.78 202.83 526.98 207.1 456.33 226.76 391.95 244.14 362.03 310.23 297.08 303.96 290.24"/></g></svg>