<svg id="Background_Details" data-name="Background Details" xmlns="http://www.w3.org/2000/svg" viewBox="0 0 1920 1080"><defs><style>.cls-1{fill:#636466;}.cls-2{fill:#c7c8ca;}</style></defs><g id="Pavement"><path class="cls-1" d="M833.18,792c-1.47-.28-5.14-1-6.81,0s-6.27,3.43-6.27,3.43a66.91,66.91,0,0,0,2.67,6.15c.65.92,2.07.51,2.81,0a49.79,49.79,0,0,0,5.16-5.62c.56-.83,2.58-1.57,1.48.55a26.65,26.65,0,0,1-5.16,6.27,10.24,10.24,0,0,1-1.94,1.38,4,4,0,0,0-.91.55,2.92,2.92,0,0,0,2.89,1.43c.65-.28,4.61-5.25,5.07-6.08s.92-1.66,1.38-1.48a2.4,2.4,0,0,0,.83.19s1.25-2.45,1.13-3.39S834.66,792.3,833.18,792Z"/><path class="cls-1" d="M686,884.28a39.63,39.63,0,0,1-.78,9.61l5.48-4.54,1.4-3.09-1.68-.78.28-6.82-14.69,0v1h3.72C682.51,879.58,685.73,879.39,686,884.28Z"/><path class="cls-1" d="M699.46,901.33l-.37-.65s-.64,1.2-2.94,1.11c-3.32-.09-3.41-7.74-3.51-9.13s-1.25-.73-2.33,0a20.76,20.76,0,0,0-6.56,8.09s1.66,1.08,1.66.9,2.12-4.52,2.12-4.52l.92.28s-2.86,5.76-3.22,8.78,0,2.87,0,2.87a9.25,9.25,0,0,1,4.79-.59,26.45,26.45,0,0,1,5,1.17c1.72-1.22,1.53-.29,3.19-1.59s11.43-10.5,11.43-10.5l-1.29-2.31Z"/><path class="cls-1" d="M755.31,815.44c1.66-.46,7-2.4,8.94-2.77a11,11,0,0,0,4.14-1.61c1.11-.69,1.21-1.06,1.21-1.06l-.83-.55s4.05-4.52,5.25-5.44,3.78-2.77,3.78-2.77l-.43-.62a57.14,57.14,0,0,0-7.91,1.87c-2.31.92-3.41,1.45-3.64,1.28s0-.59,0-.59a4.81,4.81,0,0,0-3,4.1c-.46,3.32-.46,3.78-2.85,4.79s-6.13,2.08-6.13,2.08C754,815,753.65,815.9,755.31,815.44Z"/><path class="cls-1" d="M684.44,828.43c1-.83,6.73-2.76,10.42-3S722.69,819,722.69,819v-1.79l-3.32-2.49s-17,3.32-20.46,3.41-5.71,2-7.19,2.49S688.4,824,685,827.05,683.43,829.26,684.44,828.43Z"/><path class="cls-1" d="M653.75,863l-.55-.55a6.1,6.1,0,0,1-2.75,1.86c-1.21.44-1.12,1.09-2.78,2s-3.41,2.49-5.07,3.32-3.32,1.1-4.7,4.7-2.49,4.88-1.66,10.5c.92,2.77,6.73,4.33,6.73,4.33-1.2-2.49-3.21-5.77-1.56-10.53s6.81-9.74,7.64-10.48S653.75,863,653.75,863Z"/><path class="cls-1" d="M665.13,890.06c-1.43.26-8-.07-13.31-2.37L649,890.06l6.79,3.11S667,897.5,669.1,899.9a5.9,5.9,0,0,1,1.24,5.3l2.49,1.29,4.79-17.33-4.08-.25C672.5,888.85,666.56,889.81,665.13,890.06Z"/><path class="cls-1" d="M669.05,963.44c-.64-.27-2.76-3.59-4-6.54L660.94,966c.83-.09,1.38-.46,3.5-1.56A10.43,10.43,0,0,1,669.05,963.44Z"/><path class="cls-1" d="M689.79,971c-1-.74-2.4-1.94-2.4-1.94l-1.57,1.66c4.52,4.79,1.66,9.31,1,10.14a27.64,27.64,0,0,1-7.56,4.76c-3,1.23-9.77,4.73-9.77,4.73l.92,2.4c10.79-4.61,16.68-6.09,18.9-9.17s2.63-4.51,2.93-6.52S690.8,971.74,689.79,971Z"/><path class="cls-1" d="M675.5,975.85c2.77-.52,6.18-2.73,6.82-2.73-2-2.77-8.29-7.1-11.43-7.47s-3.41.65-4.79,1.29-2.26,2.08-5.16,1.67-3.44-1.67-3.44-1.67C660.94,976.8,672.74,976.37,675.5,975.85Z"/><path class="cls-1" d="M653.56,969.06c-.1-2.21.56-6.63.56-11.15a18.68,18.68,0,0,0-2.27,4.42c-.8,2.4-2.34,7.38-2.24,10.42s2.48,8.57,2.24,13.6c-.33,6.76-4.7,9.44-4.7,9.44l1.35,1.2s.46-.46,4.06-3.32,3.41-7,3.87-9.68-.46-4.61-1.11-8.57S653.66,971.28,653.56,969.06Z"/><path class="cls-1" d="M628,1012.19l-.74-.83s-12.44,10.88-13.27,11.71-2.58,2.3-2.86,4.33a12.08,12.08,0,0,1-2.53,6.63s4.93,10.14,14.33,6l3.23-6a54.29,54.29,0,0,1-5.41,2.53c-1,.23-5.84.52-7.5-3.26s0-6.09.65-7.38S628,1012.19,628,1012.19Z"/><path class="cls-1" d="M991.88,648.81h0Z"/><path class="cls-1" d="M804.2,788.3a26.46,26.46,0,0,0,6.54,3.87l1.57-1.57L799,778.07l.21-1.52-.86-.79-2.11.28-.56-1.38-1.2.55-1.93-.46-.55.46C793.69,778.25,804.2,788.3,804.2,788.3Z"/><path class="cls-1" d="M1207,546.61a.46.46,0,0,0-.54-.36c-1.49.3-5.25,1.25-11.21,2.83h0c-.46.12-2.73-1.51-3.53-2.83a27.2,27.2,0,0,0-2-2.6c-.55-.67-1.07-1.3-1.41-1.79a1.48,1.48,0,0,0-.32-.36c-.77-1.48-1.85-3.49-3-5.36l0,0,0-.05c-3-2.74-5.05-2.31-6.86-1.93l-.36.07c-1.54.31-2.67,1.49-3.77,2.64-.33.35-.65.68-1,1a16.82,16.82,0,0,1-5.08,2.94l-.45.16a11,11,0,0,1-5.08.26h0a12.41,12.41,0,0,1-1.59-.41c-3.64-1.61-4.22-1.68-5.37-1.82l-.35,0c-3.71-.5-6.66.29-8.77,2.33a50.36,50.36,0,0,0-4.28,4.62l-.49.57c-.68.8-5.82,4.83-10.61,5.19-4.25.32-10.17.67-12.54,0-5.87-1.63-11.19-2-15.36-1a.46.46,0,1,0,.21.89c4-.92,9.18-.58,14.91,1a19.17,19.17,0,0,0,4.66.41c2.54,0,5.53-.19,8.19-.39,5.15-.39,10.49-4.63,11.24-5.51l.5-.59a48.91,48.91,0,0,1,4.21-4.54c1.9-1.83,4.59-2.54,8-2.08l.35,0c1.07.14,1.6.2,5.14,1.77h0a13.79,13.79,0,0,0,1.68.43c1.7,1,1,2.87.64,3.63a10,10,0,0,1-1.82,1.93c-1.93,1.23-6.18,3.75-15.06,8.76l-.63.36-20.43,11.59-41.13,23.33c-2.88,1.63-10.91,6.07-14.55,8.07-3.43-4.25-6-3.76-7.5-3.46l-.21,0h0c-4,1.11-5.08,3.18-5.64,4.29-.75,1.5.17,4.35.66,5.23l.43.81c-10.65,6-25.73,14.63-27.27,15.52l-1.11.65c-12.27,7.19-19.07,11.05-20.2,11.48-1.85.71-3.68.9-7.84.8-1.24,0-2.33-.12-3.39-.21a16.14,16.14,0,0,0-6.9.42h0c-1.3.52-2.42.87-2.94,1a2.92,2.92,0,0,0-2.33-1.14,3.55,3.55,0,0,0-.57.05c-.32-.9-.35-1.35.81-2.06a38.4,38.4,0,0,0,4.24-3.39c.29-.26.6-.54.66-.58a.46.46,0,0,0,.13-.64.47.47,0,0,0-.64-.13c-.09.06-.26.21-.76.66a38.79,38.79,0,0,1-4.11,3.3c-1.76,1.07-1.56,2.13-1.2,3.16a3,3,0,0,0-1.51,2.57,3,3,0,0,0,.34,1.37,23.36,23.36,0,0,1-6.91,5c-2.85,1.55-4.9,2.26-6.64,2.3h0c-11.14.76-24.62,1.15-28.28.82-2.76-.24-4.92-1.25-7.64-2.52-.75-.35-1.52-.71-2.36-1.08l-.29-.13c-4-1.78-10.12-4.48-17.94-1.44s-30.8,13.88-33.43,16.51-31.67,29.66-32,29.93c-.56.51-13.62,12.52-15.57,15.67-1.8,2.93-3.17,8.57-4.27,13.11-.1.42-.2.83-.3,1.22-1.07,4.38-2.55,9.64-4.47,11.38a41,41,0,0,0-7.19,8.88A62.79,62.79,0,0,1,807,750.35c-2.11,2.11-5,5.15-5.78,6l0,0-.18.27c-.49.67-11.92,16.63-13.57,19.38a20.83,20.83,0,0,1-9.46,8c-4,1.62-14.14,10.11-18.49,13.73L758,799l-.58.47c-2.53,2.08-6.35,5.22-10,5.89-.78.14-1.51.31-2.29.5A21.53,21.53,0,0,1,732,805.5a44.52,44.52,0,0,1-9.12-3.74,19.26,19.26,0,0,0-3.55-1.58,36.11,36.11,0,0,0-13.12-1.79c-5.39.37-6.73,1.47-9.45,4.77s-24.43,28.77-29,33.71L666.72,838c-3.64,3.94-4.2,4.55-6.08,5.55s-6.06.55-6.67.22a44.6,44.6,0,0,0-4.67-2,10.53,10.53,0,0,0-9.42.59c-3.44,2.08-17.71,11.62-21.89,14.87-4.35,3.38-6.07,5.36-7.27,7a9.21,9.21,0,0,0-1.83,3.24,27.16,27.16,0,0,0-9.86-4.29c-.42-.1-.81-.2-1.19-.31a.46.46,0,0,0-.56.33.45.45,0,0,0,.32.56l1.2.32a25.68,25.68,0,0,1,10.14,4.57l0,0c.26.19.52.4.79.61,3,2.83,6.74,7.39,11,13.55,1.29,1.87,2.84,4.69,4.34,7.43A58.59,58.59,0,0,0,630,898.4c.44.52.9,1.15,1.44,1.89a28.42,28.42,0,0,0,12.17,10.31c6.28,2.79,10.68,4.62,14.94,6.39l4.6,1.92c7,3,17,6.43,23.9,7.39a64.21,64.21,0,0,0,8.68.61,47.44,47.44,0,0,0,7.93-.61c3.31-.58,13.63-7.75,16.32-10.22.62-.57,1.2-1.14,1.72-1.67l.76.69,3.5-3.17a47.78,47.78,0,0,1,5-4.93c2.22-1.19,3.34-.48,4.16,0l-.16.21s11.8,11,12.26,11.79,7.74,7,8.39,8.57-1.85,3-1.85,3l.93.93a26,26,0,0,1,4.24-3s-6.64-5.8-9.22-9-1.47-5.9-1.47-5.9l6.63,6.36,9.77-2.39-.74-14.38-5.16-5.81s3.6-5,3.23-5.34-.74-.92-.19-.92a6.33,6.33,0,0,0,4.06-.61c2.12-1.07,0,.7,0,.7l3.78,4.33,1.93-2-3.13-3.87,3-7.55,6.26,6.17s2.31-3.22,3.78-5.44.46-3.13-.55-4a2.47,2.47,0,0,1-1.29-2.49c-.09-1.56-1.66-3.13-1.94-3.41s-.55-1.84.56-2.12,5.43,0,8.57-2.58,1.75-6.72,1.56-8.57.19-3.32.93-3.59a6.54,6.54,0,0,0,2-2.21c.19-.37-1.56-1.57-1.56-1.57a33.89,33.89,0,0,1-2.77,2.21c-1.1.74-1.57.46-1.57.46l-3.68,2.77,2.49-2.4,7.92-13-2.49-2.4a23.15,23.15,0,0,1,2.43-5.61c1.69-2.75,1.63-.38.52,1.83s-.18,2,.28,2.49,1.29-.37,3.59-2.4,5-4.88,5-4.88l-2.67-2.77s2.95.19,3.68,2.12-1.56,4.7-1.56,4.7,5-4.42,4.42-4.42-3.32-2-3.41-3.13.92-1.85,2.3-1.2,1.48,3.87,1.48,3.87l2.76-2.76a10.52,10.52,0,0,1-1.56-.93c-.28-.27-2.21-1.56-2-2a1.45,1.45,0,0,0,0-.9c0-.1.83-.51.83-.51a12.81,12.81,0,0,1,0-1.89c.09-.46.64-.55.92-1.29s1.29-.83,1.29-.83l2.4,2.77,9.11-8.29s-5-4.52-4.32-5.35a1.66,1.66,0,0,1,1.66-.56s.74-.83,1.66.28,4.42,5.25,4.42,5.25l.51-.42s.12-.25.55-1.14a3.16,3.16,0,0,0,.2-.54,3.41,3.41,0,1,0,5.85-3.24c1.21-1.77,7-9.13,13-16.91,7.07-9.08,14.38-18.47,16.3-21.26,1.44-2.09,5.87-7.73,11-14.27,8.16-10.41,18.33-23.38,23.48-30.89,6.66-9.69,10.82-13.24,13.85-15.84.83-.7,1.55-1.31,2.22-2,2.6-2.52,8.41-5.91,11.53-7.74l1.46-.85c2.26-1.36,52.95-31.4,53.46-31.71.72-.43,72.18-42.92,84.5-50l1.16-.63c.68,1.28,1.18,2.24,1.33,2.55a6.79,6.79,0,0,0,4.88,3.74,10.75,10.75,0,0,0,2.26.24,8.82,8.82,0,0,0,1.66-.14h0c6.47-1.7,6.28-6.57,6.24-7.12a13.18,13.18,0,0,0-1.29-4.66h0c-.59-1.12-1-1.86-1.27-2.28l4.73-2.66,50.88-29.87c.73-.43,19.36-11.33,22.72-13a80,80,0,0,1,13.57-5.13l3.92-1.13c6.81-2,16.14-4.65,17.27-5l.8-.22c9.4-2.53,15.14-4,17-4.38A.47.47,0,0,0,1207,546.61Zm-18-2.37a24.33,24.33,0,0,1,1.91,2.49,10.39,10.39,0,0,0,2.87,2.73l-2.94.79a12,12,0,0,0-.95-3.72l-.07-.18c-.28-.66-.61-1.47-.9-2.21Zm-23.51-2a4.24,4.24,0,0,0-.73,1.46,2.21,2.21,0,0,1-.38.8l-.43.48a4.12,4.12,0,0,0,.14-1,3,3,0,0,0-.48-1.7A13.09,13.09,0,0,0,1165.48,542.21Zm-108.32,63.16c-.45-.82-1.16-3.31-.63-4.36s1.4-2.81,5-3.81l.19,0c1.4-.27,3.49-.68,6.5,3l-.93.51c-.39.21-4.42,2.5-9.72,5.51C1057.37,605.76,1057.22,605.47,1057.16,605.37ZM984.78,636.1a2,2,0,1,1-2,2A2,2,0,0,1,984.78,636.1ZM807.68,751a63.6,63.6,0,0,0,8-11.38,40,40,0,0,1,7-8.63l.33-.33c-.36,1.39-.78,3-1.08,4-.21.71-.61,1.85-1.12,3.29-1,2.91-2.61,7.32-3.84,11.94a49.05,49.05,0,0,0-1.77,10.15,60.8,60.8,0,0,0-7.49-2.2c-2.07-.39-4.34-1-5.48-1.27C803.34,755.45,805.82,752.86,807.68,751Zm-81,144.36-2.9-2.93a13,13,0,0,1,1.15-1.1c.27-.19,1.47-.74,2.85-1.66.2-.13.47-.31.79-.5l.13.13,2.14,1.81Zm6.36,9a1.48,1.48,0,1,1,1.47-1.47A1.47,1.47,0,0,1,733.06,904.32Zm-.67-4.32,1.7-.22,0,.12s.27.37.64.79Zm6.79.5c0,.6-1.3,2.54-2.43,4.19a7.67,7.67,0,0,1-.21-3c.45-.34.65-1.15,1.12-1.62S739.28,899.39,739.18,900.5Zm82.08-94.84s-.75-1.7-2.13-5-2.21-3.57-2.21-3.57a58.93,58.93,0,0,0-5.62,3.78c-.65.74-.1,4-.1,4l-9.21,8.3,4.7,5.34a13,13,0,0,0-2.21,2.31c-.65,1-.46,1.29-1.39,2s-.55,1.29-1.56,2a1,1,0,0,1-1.57-.46l-1.84,1.75-.65,1.29s-2,1.94-3.5,3.32-3,0-4.33,0a1.71,1.71,0,0,0-1.66,1,4,4,0,0,0,1,.37,9.87,9.87,0,0,1,2.31,0c.64.19.09,1.11-.28,2.12s-1.38,3.5-2.12,4a.73.73,0,0,1-1.1-.28l-1.29.92.64.74-2.21,2L778,834.37l-16,15.21.46.65-37,35.85,1.06,1-2.72,2.58v1.07l-1.57.64-2.3,1-3,2.86s-17,18.34-18.71,19-2.3.36-4-.28-2.22-1.66-3.78-2.4-2.49.1-3.5,1.11a10.41,10.41,0,0,0-1.75,2.58l2.65.45s3.24.75,3.43.75,2,.46,2.39.55a5.22,5.22,0,0,1,1.85,1.47c.73.83,3.22-.64,4.51-.55s.74.65.74.92,1,.56,1.11.46a5.86,5.86,0,0,1,1.56-.27c.83-.09.92-.74,1.29-1.29s1.48-.37,2.4-.74,1.84-1.29,2.49-1.47,1.38.55,2.73.73,1.75-.56,1.75-.56l.77.56,2.4-2.76.92,1.29,2-1.75.77.71c-.51.51-1.07,1.06-1.66,1.61-2.89,2.66-12.91,9.47-15.86,10a55.34,55.34,0,0,1-16.32,0c-6.86-.94-16.73-4.4-23.67-7.32l-4.61-1.92c-4.25-1.77-8.65-3.59-14.91-6.39a27.21,27.21,0,0,1-11.81-10c-.54-.75-1-1.39-1.49-1.94a60.62,60.62,0,0,1-4.8-7.94c-1.51-2.75-3.07-5.6-4.38-7.5-4.29-6.22-8-10.84-11.13-13.72l0,0-.65-.51a7.28,7.28,0,0,1,1.73-3.26l0,0c1.16-1.58,2.83-3.5,7.1-6.82s18.37-12.74,21.79-14.81a9.65,9.65,0,0,1,8.64-.51,44,44,0,0,1,4.55,1.93c.83.44,5.25,1,7.53-.23,2-1.07,2.68-1.78,6.33-5.74l1.07-1.15c4.58-5,26.42-30.56,29-33.75s3.59-4.08,8.79-4.44a35.27,35.27,0,0,1,12.79,1.75,18.57,18.57,0,0,1,3.39,1.51,45.27,45.27,0,0,0,9.28,3.82,22.57,22.57,0,0,0,13.55.31c.77-.18,1.49-.35,2.24-.49,3.88-.7,7.81-3.94,10.42-6.08l.57-.46,1.54-1.28c4.32-3.6,14.41-12,18.25-13.58a22,22,0,0,0,9.9-8.4c1.51-2.52,11.82-16.93,13.34-19.06.9.24,3.58.95,6,1.4a66,66,0,0,1,7.6,2.25c-.4,2.8-2.71,19.56-2.53,23.83a12.19,12.19,0,0,0,3.75,7.93c.27.3.51.56.69.79,1.07,1.36,4,8.92,4.23,9.93a11,11,0,0,0,3.37,4.78,3.66,3.66,0,0,0-.56.93,2.27,2.27,0,0,0-.29-.8A26.44,26.44,0,0,0,821.26,805.66Zm6,7.29a2.49,2.49,0,1,1,2.48-2.49A2.49,2.49,0,0,1,827.29,813Zm232.94-197h0c-12.3,7.1-83.79,49.61-84.51,50-.51.3-51.21,30.34-53.47,31.71l-1.44.85c-3.16,1.84-9,5.27-11.71,7.87-.65.63-1.36,1.24-2.17,1.93-3.08,2.63-7.3,6.23-14,16-5.14,7.48-15.29,20.44-23.45,30.85-5.34,6.81-9.56,12.19-11,14.31-1.91,2.77-9.2,12.14-16.26,21.21-5.94,7.63-11.57,14.87-13,16.86a3.44,3.44,0,0,0-1.9-.58,3.37,3.37,0,0,0-1.91.59,10.25,10.25,0,0,1-3.18-4.39c-.29-1.19-3.23-8.79-4.4-10.27-.2-.25-.44-.53-.73-.84a11.21,11.21,0,0,1-3.51-7.35c-.19-4.48,2.54-23.84,2.57-24l0-.37,0,0a46.8,46.8,0,0,1,1.75-10.24c1.22-4.58,2.72-8.79,3.81-11.86.52-1.46.93-2.61,1.14-3.34.62-2.1,1.71-6.46,1.81-6.87a52.85,52.85,0,0,0,2.81-8.91c.09-.4.19-.8.3-1.23,1-4.23,2.43-10,4.16-12.83,1.88-3,15.26-15.35,15.4-15.48.3-.27,29.44-27.41,32-30s25.56-13.37,33.11-16.3,13.34-.3,17.23,1.42l.3.14c.83.36,1.6.72,2.34,1.07,2.81,1.31,5,2.34,8,2.6,3.69.33,17.23-.06,28.41-.82,1.89,0,4.07-.79,7.05-2.41a24.39,24.39,0,0,0,7-5.11,3,3,0,0,0,2,.83,2.82,2.82,0,0,0,1-.16,1.43,1.43,0,0,0,.28.76l2.67,4.61-.9.46-.21-.27.65-.37L986,642.41l-.65.37-.46-.83-5.53,3.13.56.92-.65.37.74,1.2.7-.33,1.42,2.4-.09.05c-1.66,1-1.29,3.78-1.29,3.78.27.55.59,1.15.59,1.15,9.6-5.53,10.44-5.82,10.51-5.81l-.74-1.47s8.11-4.52,9.31-5.16c3.13-1.94,1.48-4.24,1.2-4.7a4.53,4.53,0,0,0-3.69-1.29,14.14,14.14,0,0,0-4.88.92l-2.12.65-.19-.83-3,.92a3.11,3.11,0,0,0-.15-.7c.58-.18,1.61-.51,2.81-1a15.32,15.32,0,0,1,6.52-.37c1.07.09,2.18.19,3.45.22,4.3.09,6.21-.11,8.19-.86,1.77-.68,15.75-8.86,20.34-11.55L1030,623c1.53-.89,16.6-9.46,27.24-15.51l4.18,7.89ZM987,647.15l-1.21.62-.23-.29,1.29-.65Zm-2.36,1.34-1.2.65-.19-.37,1.2-.65Zm-1.48,3.23-1.47.92a1.92,1.92,0,0,1,.73-2.28Zm92.94-40.55a12.17,12.17,0,0,1,1.2,4.32c0,.47.19,4.64-5.54,6.15a9.73,9.73,0,0,1-3.53-.1,5.78,5.78,0,0,1-4.24-3.24h0c-.15-.3-.66-1.28-1.35-2.58,3.65-2,8.51-4.7,12.22-6.79C1075.1,609.32,1075.53,610,1076.11,611.17Zm113.21-60.52-.8.22c-1.14.3-10.47,3-17.28,5l-3.93,1.13a82.27,82.27,0,0,0-13.71,5.19c-3.48,1.7-22.63,12.91-22.8,13-.45.28-50.36,29.57-50.86,29.86-.12.07-11,6.22-17.73,9.88-1.34-2.56-3.13-5.92-4.18-7.9,5.3-3,9.34-5.3,9.73-5.51,1.16-.62,12.74-7,16.32-9l41.14-23.34,20.42-11.59.64-.36c7.78-4.39,12.78-7.3,15.14-8.81h0l0,0a12.42,12.42,0,0,0,1.43-1l0,0a9.91,9.91,0,0,0,1.67-1.64c.15-.19.29-.36.47-.55a2.87,2.87,0,0,0,.58-1.14,3,3,0,0,1,2.07-2.18c.17-.06.33-.11.49-.18a17.49,17.49,0,0,0,5.38-3.13c.34-.32.68-.67,1-1a7,7,0,0,1,3.28-2.37l.37-.07c1.66-.35,3.36-.71,6,1.67,1.14,1.87,2.22,3.87,3,5.34a2,2,0,0,0,.1.44c.08.27.21.63.4,1.11.34.89.8,2,1.25,3.13l.08.18a10.65,10.65,0,0,1,.89,3.61Z"/><path class="cls-1" d="M815.66,794.53c-3,2-7.82,5.82-11.69,9l5-4.45c0-.55-1.2-1.47-2.86-2.48s-4.24-4.89-7.56-6.82c0,0,.74,2.76-3.17,4.44,0,0,3.36,1.18,4.57,3.12s2.18,1.84,2.11,7.77a98.76,98.76,0,0,1-9,6.36,33,33,0,0,0-5.25,3.82c-5.4,5-8.59,8-9.74,9l-.11-.09s1.75-2.58,2.49-3.59,2.12-3.59,3.5-6.18,3.32-4.14,6.52-6.54,4.45-.65,4.45-.65l.95-.78a5.77,5.77,0,0,0-2.89-1.15c-1.57-.09-4.79,2.58-4.79,2.58l-4.24,2.49-.55.09c.33-1.24,2.28-1.71,5.38-4a7.19,7.19,0,0,1,7.09-.83l1.21-2.48a14.48,14.48,0,0,0-3.06-1.32c-2.05-.68-2.3,1.18-2.3,1.18l-.72.14v-1.76s-7.65,1.11-7.83,1.2.18,1,.18,1l-1.66.64.9,6.36-.87.14-.53-1.66-1.2.55s-.83-4.33-.83-4.61c0,0-4.47,3.28-6,5.72s-7.65,5.39-12.53,6.86-11.43,6-11.61,6.18-12.72,13.64-12.72,13.64l-3.23-.74-10.69,1.75-2.49,3L688,854.19l-1.38,1.2-2.77.92-21,11A15.89,15.89,0,0,0,660,868c-.73.37-3.13,1.48-2.85,4.15s1.84,3.41,2.67,5.07a6.11,6.11,0,0,0,2.49,2.49c.55.46,8,5.06,8.66,5.53,3.23.73,4.3,0,4.3,0l.4-2.31s-6.45-.46-7.65-4c-2.67-7.37,3.23-10.23,4.52-11,11.06-4.14,17-4,17-4,12.72-2.4,15.39,7.56,15.39,7.56.83,3,.56,4,.56,4l3,.74a21.51,21.51,0,0,0,.74-11.24c-.3-1-1.26-3-1.89-4.37l8.75,8.8,11-10.61,1.11,1.48,1.66,1.65c1.66,1.66-.46,4.89-.92,5.81s-2.95,4.52-2.95,4.52l1.37,1-.37.43c-1,1.09-1.79,1.93-2.1,2.29-1.38,1.58-6.83,7.75-8.25,9.08-.37.35-.82.79-1.3,1.27a35.25,35.25,0,0,1-4.86,4.28.6.6,0,0,0,.33,1.1.62.62,0,0,0,.32-.09,37.08,37.08,0,0,0,5.06-4.44c.47-.47.91-.91,1.27-1.25l.06-.06a6.4,6.4,0,0,0,1.7-1.43c1.75-2,14.83-15.39,14.83-15.39l45.34-43.78-.42-.34c1.28-1.15,4.44-4.09,9.62-8.94a32.52,32.52,0,0,1,5.07-3.68c1.38-.87,2.94-1.87,4.83-3.2a.61.61,0,0,0,.65-.08l.6-.51c.77-.66,1.85-1.58,3.11-2.63-2.85,3.28-16.91,16.62-16.91,16.62,2.76.27,2.85-.74,5.74-2.57s6.79-4.44,6.79-4.44l9.95-9.77V805c0-4.51,3.3-5.15,3.3-5.15l-.45-.64c1.89-1.47,3.67-2.79,5.07-3.7a.6.6,0,0,0,.18-.83A.61.61,0,0,0,815.66,794.53Zm-98,54.22-10.5,9.92a44.77,44.77,0,0,1,2.49-4.2c1-1.39,7.19-6.18,7.19-6.18l1.08-.09Z"/></g><g id="Buildings"><rect class="cls-2" x="983.27" y="649.71" width="2.11" height="1.44" transform="translate(-193.34 579.3) rotate(-30)"/><rect class="cls-2" x="985.6" y="648.58" width="0.96" height="0.51" transform="translate(-192.31 579.94) rotate(-30)"/><rect class="cls-2" x="989.53" y="642.14" width="2.29" height="2.89" transform="translate(-189.07 581.56) rotate(-30)"/><circle class="cls-2" cx="993.08" cy="640.8" r="1.01"/><polygon class="cls-2" points="813.1 789.35 799.92 776.55 798.16 778.21 811.62 790.83 813.1 789.35"/><rect class="cls-2" x="790.23" y="778.5" width="0.93" height="1.11" transform="translate(-296.81 556.66) rotate(-33.02)"/><rect class="cls-2" x="789.5" y="777.65" width="1.15" height="0.54" transform="translate(-296.29 556.14) rotate(-33.02)"/><polygon class="cls-2" points="802.63 811.93 801.18 813.26 801.45 813.55 801.61 813.73 802.04 814.19 804.12 816.45 805.13 815.52 803.04 813.26 803.48 812.86 802.63 811.93"/><polygon class="cls-2" points="819.91 813.36 814.58 807.58 813.57 808.51 818.38 813.71 810.32 821.15 805.45 815.88 804.45 816.8 809.32 822.08 810.36 823.2 820.41 813.92 819.9 813.37 819.91 813.36"/><polygon class="cls-2" points="813.25 808.15 814.25 807.23 812.1 804.9 812.11 804.9 811.25 803.97 803.39 811.23 804.25 812.15 811.1 805.83 813.25 808.15"/><rect class="cls-2" x="806.94" y="823.65" width="2.18" height="3.21" transform="translate(-336.39 669.53) rotate(-37.86)"/><rect class="cls-2" x="803.57" y="827.1" width="1.8" height="3.06" transform="translate(-350.31 811.54) rotate(-45)"/><polygon class="cls-2" points="805.22 819.32 800.58 814.29 785.66 828.05 788.95 831.62 799.87 821.53 801.23 823 802.32 822 802.6 822.3 805.5 819.62 805.22 819.32"/><path class="cls-2" d="M763.88,851.19l-2-2-36.68,36.68,3.14,3.13,3.36-3.36,1.66,1.66L721.3,899.39,718.86,897l2-2-2.76-2.77-20.74,20.74-.32-.32a3.17,3.17,0,0,1-3.13-.28l.23-.23s-3-3.23-6.73-1a4.92,4.92,0,0,0-2.62,4.33h3.42a1.84,1.84,0,0,1,1-1.66,2,2,0,0,1,2.56.88l.67-.6s2.88,2.37,5.8.45l1.53,1.53,18.75-18.76,2.44,2.44-7.74,7.75.88.87.32-.32,1.83,1.83a2.85,2.85,0,0,0,2.33,2.33l.68.68.87-.87a2.89,2.89,0,0,0,1.49-1.49l5-5,1.2-1.19-1.57-1.57L723,899.44l11.24-11.25,5.39,5.4,24.66-24.66L756.37,861l7.6-7.6,7.93,7.92,15.75-15.75-9.07-9.08Zm-39.81,51.7-1.94,1.94,1,1-1.86,1.86a2.81,2.81,0,0,0-4-.47l-1-1,5.57-5.57Z"/><rect class="cls-2" x="707.29" y="881.81" width="3.39" height="3.32" transform="translate(-417.05 760.09) rotate(-45)"/><rect class="cls-2" x="726.73" y="861.63" width="3.39" height="3.32" transform="translate(-397.09 767.93) rotate(-45)"/><polygon class="cls-2" points="761.21 834.06 732.89 861.37 735.44 864.01 763.76 836.71 763.39 836.32 764.27 835.48 764.59 835.81 771.72 828.94 769.21 826.34 762.08 833.21 762.41 833.54 761.53 834.39 761.21 834.06"/><rect class="cls-2" x="768.32" y="822.01" width="2.1" height="3.67" transform="translate(-356.32 764.81) rotate(-43.96)"/><rect class="cls-2" x="773.6" y="819.35" width="2.57" height="1.49" transform="translate(-352.16 767.59) rotate(-43.96)"/><rect class="cls-2" x="775.75" y="813.17" width="3.99" height="2.42" transform="translate(-347.4 767.98) rotate(-43.96)"/><rect class="cls-2" x="776.98" y="816.91" width="2.18" height="0.83" transform="translate(-318.79 1082.5) rotate(-60)"/><rect class="cls-2" x="721.69" y="828.37" width="19.09" height="3.34" transform="translate(-222.14 269.01) rotate(-18.15)"/><polygon class="cls-2" points="680.84 933.76 678.54 932.85 674.21 944.83 676.33 945.56 680.84 933.76"/><polygon class="cls-2" points="675.87 948.7 676.33 945.65 674.12 945.38 673.66 949.53 674.95 949.71 675.87 948.7"/><polygon class="cls-2" points="676.42 954.23 675.41 950.08 673.66 950.69 674.86 954.69 676.42 954.23"/><path class="cls-2" d="M675.5,955.33l2.68,3.14,1.1-1.11-2.86-3A9.94,9.94,0,0,0,675.5,955.33Z"/><polygon class="cls-2" points="678.45 958.74 692.09 968.05 693.2 966.85 679.47 957.54 678.45 958.74"/><polygon class="cls-2" points="696.51 969.52 693.29 966.94 692.26 968.05 695.5 970.72 696.51 969.52"/><polygon class="cls-2" points="695.68 970.91 697.44 974.32 698.91 973.58 696.98 969.99 695.68 970.91"/><polygon class="cls-2" points="697.07 978.37 698.63 978.46 698.91 974.41 697.53 974.41 697.07 978.37"/><polygon class="cls-2" points="695.13 981.87 696.51 982.7 698.27 979.11 697.07 978.46 695.13 981.87"/><polygon class="cls-2" points="692.46 985.1 693.66 986.3 696.33 982.98 695.13 982.05 692.46 985.1"/><polygon class="cls-2" points="689.33 987.68 690.16 989.06 693.47 986.48 692.46 985.25 689.33 987.68"/><polygon class="cls-2" points="666.29 997.82 666.75 998.74 669.97 997.91 689.79 989.25 689.14 987.86 666.29 997.82"/><polygon class="cls-2" points="661.68 998.57 661.96 999.2 661.68 999.48 662.32 1000.76 666.1 999.2 664.81 996.71 661.68 998.57"/><polygon class="cls-2" points="640.58 1020.49 641.68 1021.5 662.14 1000.86 660.85 999.2 640.58 1020.49"/><polygon class="cls-2" points="636.15 1025.46 637.44 1026.57 640.11 1023.53 638.73 1022.24 636.15 1025.46"/><polygon class="cls-2" points="624.63 1043.16 625.92 1043.99 637.26 1026.66 636.06 1025.74 624.63 1043.16"/><path class="cls-2" d="M604.59,1018.32l12.16-8.38-1.38-1.94a27.89,27.89,0,0,1-2.21,2.12c-.92.74-6.45,4.61-11.52,8.29-1.11,1-4.06,3.69-4.29,12.86,0,.64-.23,16.45,16.45,24l.6-1.48s-6-2.91-8.15-5.4c0,0-5.81-5.89-6.64-12.53,0,0-1.47-7.46.46-11.79C600.35,1023.39,600.62,1021.27,604.59,1018.32Z"/><polygon class="cls-2" points="630.07 1001.04 633.11 998.92 630.81 995.79 616.61 1006.02 618.27 1008.41 629.7 1000.49 630.07 1001.04"/><polygon class="cls-2" points="640.76 974.22 637.72 974.04 636.7 986.57 639.75 986.76 640.76 974.22"/><polygon class="cls-2" points="642.69 952.2 639.56 952.01 637.99 970.81 640.94 971 642.69 952.2"/><polygon class="cls-2" points="648.68 945.65 647.67 944.55 644.54 947.31 645.46 948.42 648.68 945.65"/><polygon class="cls-2" points="653.38 938.38 652.28 937.54 647.86 944.46 648.87 945.1 653.38 938.38"/><polygon class="cls-2" points="657.81 925.93 656.52 925.57 652.46 937.36 653.66 937.82 657.81 925.93"/></g></svg>