<svg id="Background_Details" data-name="Background Details" xmlns="http://www.w3.org/2000/svg" xmlns:xlink="http://www.w3.org/1999/xlink" viewBox="0 0 1920 1080"><defs><style>.cls-1{fill:#fff;}.cls-2{fill:#c2c6f7;}.cls-3{fill:#636466;}.cls-4{fill:#c7c8ca;}</style><symbol id="New_Symbol" data-name="New Symbol" viewBox="0 0 57.77 10.07"><path class="cls-1" d="M57.33,7.51,50.26.44A1.48,1.48,0,0,0,48.94.05a1.5,1.5,0,0,0-.37,0h-40A1.46,1.46,0,0,0,8,.11H8a1.63,1.63,0,0,0-.49.33L.44,7.51a1.49,1.49,0,0,0,0,2.12,1.5,1.5,0,0,0,2.12,0L9.19,3H48.58l6.63,6.63a1.53,1.53,0,0,0,1.06.44,1.5,1.5,0,0,0,1.06-2.56Z"/></symbol></defs><title>background</title><g id="Water"><path class="cls-2" d="M1487.52,693.53S1509.27,735,1512.9,757c.91,7,1.21,15.27.13,18.23s-2.43,5.53-7.14,7.55-10.11,3.5-19.27-1.89c-13.61-8.49-15.91-14.82-19.81-22.77-6.61-12.81-10.78-52.56-11.59-61.45s-4.58-20.35,12-24C1470.18,675.63,1485.72,689.19,1487.52,693.53Z"/></g><g id="Pavement"><polygon class="cls-3" points="0 841.06 271.12 1080 326.02 1080 0 792.95 0 841.06"/><path class="cls-3" d="M0,164.43S172.21,7.06,210.73,0H524.51S320.09,64.39,289,58.18c-7.46,6.21-11.81,14.29-.62,34.79,9.32-3.72,81.09-21.1,114.38-20.37,31.84,1.44,59,2.17,59,2.17L562.35,49.44l32.21-6.15,30.76-2.9L651,56.31,681.4,42.56h65.13l68.39,41.25s10.5,1.81,22.08,14.84c4,2.89,24.6,15.92,24.6,15.92l73.46,48.13s17.73-24.25.72-34.38-26.41-20.63-17.37-37.63S963.28,0,963.28,0h365.83s41.25,41.84,87.2,59.93c21.68,10.58,73.81,32.13,104.94,45.23-2.9,9-9,24.25-9,24.25s16.65-1.45,26.06,4.34,37.63,25,38.35,28.58-2.17,11.94-18.45,6.88-51-11.94-57.54-9.77c-6.51,2.53-5.42,9.7,6.52,11.36s39.67,10,45.94,14.21c-2.09,4.53-12.89,23.34-12.89,23.34s-18.11-9.06-66.53-3.14c-70.7,9.41-148,7-190.18,7.66-7.66,0-66.18,13.24-66.18,13.24l-181.66,2.94-37,4-79,1.51s5.24-10.44,19.13-14.74,26.78-9.26,26.78-9.26L933.8,191.36l-16.17,14.45a20.2,20.2,0,0,1-30.8-4.67L879.57,189l-279.09,7.61S578.66,183.42,534,185.73s-72.09,7.94-102.18-14.55c-7.6-4-15.87,0-20.83,4.63S376,187.39,352.48,186.06s-26.45-4-61.17,6.95S160,255.5,160,255.5s-37.69-26.78-35-43.64c10.91-11.58,69.44-28.77,81-33.73s63.48-23.48,63.48-23.48-1.32-20.17-13.88-28.11c0,0,6.28-9.92,4.63-18.51s-6.29-14.88-12.9-13.89c-12.57,2-41,30.42-48.61,37s-92.59,79.69-92.59,79.69L0,329.91V301.14L97.87,198a214.8,214.8,0,0,1,19.18-16.87c32.07-21.82,101.18-88.61,108.79-97.54s20.83-27.45,20.83-27.45,5.29-13.22-1.32-21.49c-5.29-5-25.14-7.61-46,1.65-25.46,7.94-132.26,97.55-132.26,97.55L0,195.32Z"/><path class="cls-3" d="M960,344.37l-10.35,41.81-31.84.32-15.12-38.59h-10L878.25,489.1l-50.5-.64.64,60.79-29.91.32.33,27h20.58l.32,27.66s56.61,14.15,77.83,15.11,56.61,2.9,56.61,2.9l.32,79.76-58.66-55.2-40.39-5.28-154.33-4.09-255-9.38-124.31-2.59-82.54,21.06L241,711s3.66,9.63,6.73,19.26c-8.61-3.07-16.4-19.26-21.73-31.36s-26.85-62.3-27.67-74.6-2.46-116.83-2.46-116.83,3.9-57.8,12.92-76.25c-8.41,6.35-19.68,9.43-38.74,45.91,4.51,3.08,9.22,9.84,9.22,9.84L176,554.06s-5,7.2-3.6,23.4,7,64,7,64l14,58.62s8.2,30.2,18.8,41.21c20.81,21.8,61,43,69.62,46.41s37.81,18.4,90.63,24.81c20.6,4,160.84,6.2,160.84,6.2l176.64,3.8,210.06,3,202,1,233.87-2,2.66,10.5,123.08-4.45-33.36-43.37-17.06-98.62L1429,644.11l-249.73,5.32-86,4.6s-13.46-1.31-13.46-7.55-.33-12.81-.33-12.81l205.9-1.31s22.33-.66,26.6-3.29,47-4.27,55.82-3.61,53.2-3,101.14,19c21,11.49,51.23,37.76,58.46,77.49,5.25,39.41,5.25,48.28,5.25,48.28l1.64,40.72,7.23,11.82h13.79l14.78-25.94s-9.2-13.14-4.27-33.17c5.58-15.43,12.15-21.67,21.34-24.3s1.64-8.54-.33-8.54-15.43.66-23,18.39c-7.56-10.18-18.72-66.33-61.08-104.1-60.1-47.28-169.12-40.39-188.5-40.72s-36.12-6.24-39.4-14.77L1223,588a42.68,42.68,0,0,1-17.4-8.86c-7.88-6.9-44-18.39-44-18.39l-42.69-58.45s-22-21.35-23.32-34.48c-.33-13.47-2-42.69-4.27-48.28s-9.52-20.36-19.7-20.36-52.87,3.29-67.32-2.29-20.36-7.56-10.84-9.2,25.29-1.64,25.29-1.64,8.87-1.64,10.51-9.52c6.24.32,92.93,1.64,104.1,2.29s60.29,1.54,71.25,1.54,49.64,1,54.77,1,9.24-11.29,1.71-11.29-25-1.72-25-1.72.69-5.13-2.39-5.82a9.35,9.35,0,0,0-7.54,1.72c-2.05,1.37-24,11.29-30.8,12s-8.91-7.19-11.64-11.64-11.3-3.42-24.31-2.06-54.09-1.36-60.93-1.36-48.27,1-64.36-6.17c2.74-1.37,2.74-3.08-2.06-3.76s-22.59-.69-22.59-.69L993,335.19Z"/><path class="cls-3" d="M1834,343.16l86,34.37V800.2L1785.3,981.92,1805.18,994l59.65-71.14s14.29-3.42,5,9.32-34.17,36-37,43.8-8.08,17.09-3.11,19.88,13.36,2.18,13.36,2.18,52.13-3,76.92.06V1080H1499.92s7.7-37.73,7.7-48.52,14.64-24.65-24.65-26.19-323.52-2.31-361.26,0V982.7s48.15-6.51,57-10.06,9.47-10.06,26.63-10.06,63.34-1.19,63.34-1.19,23.67,9.47,37.88,5.92,46.17-3.55,56.23-3,71.62,1.78,91.16,7.1,50.31,5.33,55,2.37c13-5.89,19.54-33.74,19.54-33.74h14.79s25.5,47.72,39.75,48.52,37.34.6,46.57.6,47.18,4,61.63-4.41,53-20.08,64.11-31.19,72.66-69.88,90.25-118.48c6.94-26.38,12.49-44.89,19.9-57.85,10.64-7.4,52.3-93.48,53.68-131.89V516.26S1898.18,407.48,1834,343.16Z"/></g><g id="Bridge"><use width="57.77" height="10.07" transform="matrix(1, 0, 0, 1, 872.04, 319.93)" xlink:href="#New_Symbol"/><use width="57.77" height="10.07" transform="matrix(-1, 0, 0, -1, 931.01, 223.27)" xlink:href="#New_Symbol"/></g><g id="Buildings"><rect class="cls-4" x="1192.82" y="156.78" width="155.22" height="43.44"/><polygon class="cls-4" points="636.03 110.16 636.03 101.68 608.48 101.68 608.48 110.16 467.03 110.16 467.03 176.91 773.24 176.91 773.24 110.16 636.03 110.16"/><rect class="cls-4" x="638.79" width="43.33" height="67.25"/><rect class="cls-4" x="286.57" y="54.39" width="114.31" height="36.9" transform="translate(-7.63 71.62) rotate(-11.77)"/><rect class="cls-4" x="149.4" y="163.85" width="137.56" height="48.45" transform="translate(-61.86 120.59) rotate(-27.21)"/><rect class="cls-4" x="80.44" y="246.86" width="54.96" height="29.34" transform="translate(-145.67 136.1) rotate(-41.26)"/><polygon class="cls-4" points="1129.59 968.81 1129.59 966.49 1129.05 966.49 1129.05 957.32 992.16 957.32 992.16 966.49 609.23 966.49 609.23 1080 1129.59 1080 1129.59 982.91 1136.21 982.91 1136.21 973.77 1171.97 973.77 1171.97 974.27 1138.25 992.64 1140.77 998 1171.97 981 1184.87 981 1184.87 973.77 1184.87 972.11 1184.87 968.81 1129.59 968.81"/><rect class="cls-4" x="1333.05" y="1004.19" width="101.24" height="75.81"/><polygon class="cls-4" points="1143.88 504.68 1175.16 507.3 1170.54 562.53 1156.68 561.69 1155.84 569.04 1143.24 568.2 1144.08 560.43 1113.37 557.9 1118.74 496.04 1137.09 497.89 1137.26 496.29 1143.97 496.96 1143.88 504.68"/><polygon class="cls-4" points="1174.61 563.98 1205.46 566.33 1204.29 587.09 1172.96 584.86 1174.61 563.98"/><rect class="cls-4" x="996.81" y="640.24" width="12.62" height="11.81"/><rect class="cls-4" x="925.41" y="540.07" width="19.45" height="14.06"/><rect class="cls-4" x="922.72" y="606.73" width="15.29" height="15.41"/><polygon class="cls-4" points="1037.55 675.46 978.85 682.55 979.05 675.58 982.52 675.58 982.52 582.02 982.27 582.02 982.27 535.55 951.7 535.55 951.7 584.96 957.57 584.96 957.57 664.45 954.51 664.45 954.51 709.7 965.76 709.82 966.01 695.51 978.73 695.63 979.09 688.79 1023.37 683.77 1025.2 700.4 1039.63 698.81 1037.55 675.46"/><rect class="cls-4" x="978.31" y="698.52" width="7.17" height="5.91"/><rect class="cls-4" x="989.41" y="694.26" width="7.88" height="5.04"/><rect class="cls-4" x="1002.25" y="694.11" width="7.32" height="3.78"/><rect class="cls-4" x="1047.33" y="927.39" width="13.58" height="16.98"/></g></svg>