<?xml version="1.0" encoding="utf-8"?>
<!-- Generator: Adobe Illustrator 24.0.1, SVG Export Plug-In . SVG Version: 6.00 Build 0)  -->
<svg version="1.1" id="Inactive_Configs" xmlns="http://www.w3.org/2000/svg" xmlns:xlink="http://www.w3.org/1999/xlink" x="0px"
	 y="0px" viewBox="0 0 1920 1080" style="enable-background:new 0 0 1920 1080;" xml:space="preserve">
<style type="text/css">
	.st0{fill:#A7A9AC;}
</style>
<title>inactive</title>
<path class="st0" d="M1748,443.9c-3.1-60.7-18.9-116.1-46.8-164.7c-24.5-42.6-58.2-79.9-100.2-110.8c-36.5-26.8-77.9-48-123.2-63
	c-39.5-13.1-79.8-20.6-116.6-21.8c-68.9-2.3-164-3.3-265.4-3.8c-0.5-0.2-1-0.3-1.6-0.2c-1.4,0-2.9,0.1-4.3,0.2
	c-69.8-0.3-142.3-0.4-211.1-0.5c-89.1-0.1-173.2-0.2-235.1-0.8c-58.5-0.6-171.3,7.2-269.8,65.5c-49.7,29.5-89.6,68.4-118.5,115.6
	c-33.5,54.8-52.7,121.5-57.1,198.4v0c-0.7,12.8-2.5,80.7,34.1,160c18.6,40.3,44.2,77,76.1,109c19.7,19.8,42,37.9,66.6,54.2
	c0.3,0.2,0.5,0.4,0.8,0.6c22.9,15.1,47.9,28.7,74.7,40.6c56.9,25.2,169.9,64.6,254.6,93.2c51.6,17.4,61.2,17.9,74.5,18.6l2.4,0.1
	c45.9,2.5,114.7,3.5,183.1,3.5c67.3,0,134.3-0.9,179.1-2.3c41.6-1.2,60.3-3.6,79.7-10c67.9-22.6,189.1-64,238.7-86.5
	c38.8-17.7,73.9-36.8,104.9-57.2c0.2-0.1,0.4-0.2,0.6-0.4c17.3-11.4,33.3-23.2,48-35.4c37-30.7,66.5-64.6,87.8-100.9
	C1738,586.8,1752.1,522.8,1748,443.9z M1058.6,89.6c-3.7,2.4-7.1,5.3-10.2,8.5c-17.8,19.1-18.1,45.5-17.7,53.1
	c0.8,19,9.8,34.3,25.9,44.3c13.4,8.3,29.2,11.3,39.5,11.3c17.9,0,43.4,0.4,69,0.9c-5.1,1.9-9.7,4-13.5,6.4
	c-47.8,29.6-61.2,35.1-90.1,36.8c-39.1,2.3-72.8,1.5-97.3-2.3c-44.7-6.9-63.7-24.3-82.4-44.7c-11.4-12.5-22.4-21.3-34.7-27.2
	c5.6,0,10.7,0,15,0c21.5,0.1,37.4-5,47.6-15.4c10.4-10.6,12.2-24.1,12-33.6c-0.5-19.3-11.5-31.3-23.9-38.5
	C950.4,89.4,1005.1,89.4,1058.6,89.6z M1432.1,361.2c-35.8,19.3-81.3,6.3-108.4-1.4c-32.2-9.2-43.4-10.1-57.6-11.4l-1.2-0.1
	c-32.1-2.8-73-5.5-99.4-6.7c-40.1-1.8-67.8,19.5-91.8,42.8c-20.2,17.3-32.3,22.7-53.8,24.2c-15.4,1-46.3,1.1-61.7,0.4
	c-35.1-1.5-47.9-24.4-52.4-37.8c-6.4-19.3,7.4-41.6,17.7-51c14.9-13.8,45-28,65-37.4l1.9-0.9c29.1-13.7,57.6-19,72-20.9
	c0.1,0,0.1,0,0.2,0c31.8-1.9,47.9-9.5,94.3-38.2c13.4-8.3,37.3-13.2,66-13.8c7.6,0.1,14.6,0.3,20.8,0.3
	c59.2,0.8,134,12.9,178.4,23.7c32.3,7.9,51.1,32.9,50.1,66.7C1471.1,335.6,1450.2,351.5,1432.1,361.2z M1439.1,368.8
	c-41.6,44.3-130.4,44.9-131.3,44.9l-252-2.3c8-4.8,16.2-11.3,24.9-19.7c20.8-20.3,46.3-41.8,84.4-40.1c26.3,1.2,67,3.9,98.9,6.7
	l1.2,0.1c13.7,1.2,24.5,2.1,55.8,11c28.6,8.2,76.5,21.8,115.9,0.6C1437.6,369.6,1438.3,369.2,1439.1,368.8z M700.5,353.7
	c1.7-15.7,11.6-66.6,67.7-64.3c11.5,0.5,33.6,0.1,52.4-7.5c41.5-16.7,54.9-53.4,49.5-75.6c1.4,1.4,2.8,2.9,4.2,4.4
	c19.2,21,40.4,40.4,88.3,47.8c14.1,2.2,31.1,3.4,50.3,3.6c-8.6,2.9-17.7,6.3-26.8,10.6l-1.9,0.9c-20.5,9.6-51.4,24.2-67.5,39.1
	c-12.5,11.6-28.3,37.6-20.3,61.5c2.9,8.8,10.7,25.7,29,36c-79.4-0.9-174.7-1.8-262.8-2.6C680.8,398.3,697.5,381,700.5,353.7z
	 M629.4,407c-0.7,0-1.4,0.2-1.9,0.5c-33.3-0.3-65-0.5-93.8-0.8l-56.2-0.5c-20.7-0.2-53.6-16.3-61.5-46.1
	c-6.7-25.1-6.1-59.6,58.4-104.2c22.5-15.6,53.6-27.7,74.2-35.6c2.1-0.8,4.1-1.6,6-2.3c28.6-11.2,119.3-33.4,120.3-33.6
	c29.9-7.3,45.6-7.8,59.2-7.6c15.9,0.2,40.8,0.2,64.8,0.1c0.5,0.2,1,0.3,1.6,0.3c12.3,0.2,49.7,1,59.6,29.4c3.2,9.4,1.3,22-5.1,33.8
	c-5.4,9.9-16.4,23.6-37.9,32.3c-17.2,6.9-37.6,7.2-48.3,6.8c-51.5-2.2-74.1,36.4-78.1,73.2C685.9,395.3,643.8,406.4,629.4,407z
	 M454.6,813.2c-9.8-4.3-19.4-8.9-28.7-13.7c33.1,10.1,80,21.8,132.2,26.8l0.2,0l79.7,0.2c-8.8,3.8-17.6,9.8-20.3,19
	c-3,10.2,2.4,21.4,15.9,33.5c1,0.9,1.9,1.7,2.9,2.5C567.9,857.6,496.1,831.6,454.6,813.2z M812.2,920.3c-41.2-0.9-61.3-2.1-81.9-9.8
	c-20.4-7.6-35.2-12.9-46.1-16.7c-27.7-9.8-31.3-11-43.9-22.3c-7.1-6.4-15.2-15.6-12.9-23.2c3.1-10.5,24.1-16.4,31.8-17.7l192.1-0.7
	c-2.3,1.7-4.5,3.5-6.5,5.6c-11.6,12-15.3,28.1-14.9,38.3c0.8,21.7,11.7,37.8,24.2,47.1C837.3,920.7,821.6,920.5,812.2,920.3z
	 M987.4,921.3c-24.5,0-41.6,0.1-59.6-0.2c-0.2,0-0.4-0.1-0.6-0.1c-0.1,0-1.6,0-4.2,0c-13.3-0.2-27.3-0.6-45.4-1.2h0
	c-12.9-0.5-36.6-16.4-37.7-46.5c-0.2-6.6,2-20.5,12.1-31c7.6-7.9,18.2-12.2,31.5-12.7l10.1,0c19,0,38.2,0.1,56.9,0.1
	c40.2,0,78.3,0.1,107.8,0.3c18.1,0.1,48.5,5.8,49.3,42.1c0.9,40.5-32.5,47.9-47.2,49.1C1029.3,921.3,1006.1,921.3,987.4,921.3z
	 M1458.5,829.8c-49.2,22.4-170.1,63.6-237.7,86.1c-18.3,6.1-36.3,8.3-76.8,9.5c-17.7,0.5-39,1-62.3,1.4c5.5-2,11.2-4.9,16.4-9
	c13.4-10.6,20-26,19.6-45.8c-0.4-19.9-8.7-34.9-24-43.5c-0.6-0.4-1.3-0.7-1.9-1l287.7,0.6l0.4,0l0.4-0.1
	c3.9-0.6,78.5-11.7,141.4-30.1C1502.2,808.8,1481.3,819.4,1458.5,829.8z M1561.8,773.3c-62,26.3-175.4,43.7-182.7,44.7l-820.1-1.8
	c-96.3-9.1-174.2-41.6-178.5-43.4c-62.6-41.4-109.2-94.7-138.9-159c-35.6-77.1-33.9-142.8-33.2-155.2v0
	C227.9,111.3,546.5,87.5,643.6,88.4c58.6,0.6,137.1,0.7,220.9,0.8c0.6,0.3,1.3,0.5,2,0.5c12.3,0.8,44.3,9.1,45.1,38.3
	c0.2,7.5-1.2,18.2-9.1,26.3c-8.2,8.3-21.8,12.5-40.4,12.4c-12.2-0.1-30.8,0-50.5,0.1c-1,0-2,0-3,0c-0.2,0-0.4,0-0.6-0.1
	c-0.4,0-0.8,0-1.2,0.1c-26.3,0.1-55,0.2-72.6-0.1c-17.3-0.2-33.7,1-61.7,7.9c-3.8,0.9-92.3,22.6-121.5,34c-1.9,0.7-3.9,1.5-5.9,2.3
	c-21,8.1-52.8,20.5-76.3,36.7c-30.1,20.8-49.3,41.1-58.7,61.9c-7.6,16.9-8.8,33.8-3.7,53.1c9.6,36.2,48.1,53.3,71.1,53.5l56.2,0.5
	c146.3,1.2,367.4,3.1,486.6,4.9c0.3,0,0.6,0,1,0c2.3,0,4.6-0.1,6.9-0.4l279.6,2.6c1.3,0,31.4-0.1,65.7-9.1
	c45.8-11.9,76.8-34.2,89.7-64.4c10.3-11.3,18.4-27.2,19-50.3c0.6-20.7-5-38.2-16.6-52.1c-10.1-12-24.3-20.5-41.1-24.6
	c-44.9-11-120.3-23.2-180.2-24c-0.1,0-0.2,0-0.3,0c-7.4-0.3-14.5-0.4-21.4-0.3c-9.7-0.2-20.3-0.4-31.3-0.6
	c-33.3-0.7-71.1-1.4-95.1-1.4c-14.9,0-53.8-8.3-55.4-46c-0.6-13.7,3-33,15.1-45.9c8.4-9,20-14.1,34.6-15.2
	c103.3,0.5,200.5,1.5,270.5,3.8c139,4.5,364.4,103.8,377.2,350.8C1742.8,536.3,1727,663.9,1561.8,773.3z"/>
</svg>
