<svg id="Inactive_Configs" data-name="Inactive Configs" xmlns="http://www.w3.org/2000/svg" viewBox="0 0 1920 1080"><defs><style>.cls-1{fill:#a7a9ac;}</style></defs><title>inactive</title><path class="cls-1" d="M1829.93,618.79s0-.08,0-.13q-.39-1.21-.81-2.4c0-.16-.11-.32-.17-.48-.28-.77-.56-1.53-.86-2.27v0a58.24,58.24,0,0,0-21.3-27.22c-.23-.17-.47-.33-.71-.49l-.67-.46c-8.42-5.72-17.85-9.57-27.14-13.36a230.48,230.48,0,0,0-33.11-10.11l-102-21.28a5,5,0,1,0-2,9.79l96.44,20.12c13.88,2.89,35.1,9.66,47.3,15.09,9.35,4.15,17.15,8.61,23.33,14.93.33.34.66.68,1,1l.08.08a50.75,50.75,0,0,1,9.62,15.66c0,.09.07.19.11.29.22.56.44,1.14.65,1.73.06.16.12.31.17.47.25.7.49,1.41.72,2.14l.06.21c16.84,46.5-8.54,64-9.6,64.71l-.22.15-82.06,59.46-.69.5h0l-4.1,3c-7.78,5-29.74,14.54-53.7-15.87l-2.59-3.4c-17-22.21-52.43-68.42-62.89-135.22a52.09,52.09,0,0,1-.58-6.78c-.13-5-.22-12-.29-20.54a106.55,106.55,0,0,1,2.43-23.41l5.37-24.66,1.31-6c4.33-19.83,9.08-41.61,13.06-59.81,5.29-24.2,8.42-38.38,8.92-40.39l0-.08a.19.19,0,0,1,0-.08l.09-.3,0-.11c1.2-4.91,8-41,12.07-68.34.68-4.64,1.29-9,1.77-13a96.4,96.4,0,0,0,.65-15.57c-.85-20.94-8.3-34.66-8.69-35.36l-.1-.18-4.78-7.85-.17-.27-.06-.1C1626.08,256.77,1605,222.32,1594,205v0l-1.26-2h0c-.88-1.38-1.68-2.63-2.39-3.71a36.93,36.93,0,0,0-7.56-8.41l-.16-.14a60.83,60.83,0,0,0-6.72-5.5l-.19-.13-.11-.08c-.79-.55-1.6-1.07-2.41-1.6l-.89-.59-.84-.51c-.84-.52-1.68-1-2.54-1.52a76.71,76.71,0,0,0-27.32-9.43c-.5-.07-1-.1-1.49-.16l-.87-.09-.82-.09-1.5-.13c-.7-.06-1.4-.1-2.11-.14l-1.78-.08c-.78,0-1.56,0-2.34,0h-1.6c-.86,0-1.72.06-2.58.11l-1.42.07c-.92.07-1.84.16-2.76.26l-1.3.13c-.92.11-1.83.25-2.75.39l-1.38.21-.22,0c-.12,0-.5.09-1,.22-.91.17-1.82.33-2.73.53a88.86,88.86,0,0,0-28.59,11.59l-.08.05L1248.67,357.05a63.69,63.69,0,0,0-13.42,13.25c-.4.53-.79,1.06-1.17,1.61a62.25,62.25,0,0,0-10.6,29.33l0,.21c-.13,1.25-.25,2.52-.32,3.82,0,.18,0,.37,0,.55,0,.91-.09,1.82-.11,2.74,0,.18,0,.36,0,.55v.44h0c0,.78,0,1.56-.09,2.34l0,.68c0,.1,0,.2,0,.3l0,.86,0,.94c0,.22,0,.45,0,.68v.83c0,.3,0,.6,0,.9s0,.45,0,.67,0,.55,0,.82,0,.58,0,.86,0,.44,0,.67,0,.53,0,.79l.06.82.06.66c0,.26,0,.52.08.77l.09.79c0,.22,0,.43.08.65s.07.5.11.75.07.51.11.76.07.42.11.63.08.49.13.74.08.48.13.72.08.42.13.63l.15.71c0,.23.1.46.16.69s.09.41.14.61l.18.71.18.65c.05.2.11.4.16.6s.14.46.2.69.13.42.19.62.13.39.19.58.15.45.22.68l.21.59c.07.19.13.38.2.56s.17.45.25.67l.22.57c.07.18.14.36.22.54l.27.65.23.54c.08.17.16.35.23.52l.3.64.24.51.24.51c.11.21.22.42.32.63l.25.48.26.48c.11.21.22.42.34.63l.26.46.26.46c.12.2.24.41.37.61s.17.29.26.43l.27.45.39.6.27.41c.09.14.18.28.28.42s.27.4.41.59l.27.39.28.4c.15.19.29.39.43.59l.28.36.29.38.45.57.27.34.3.36.47.57.27.32.3.34.48.55.27.3.31.33c.16.18.33.36.5.53l.27.28.3.31.52.53c.09.09.18.17.26.26l.31.3.53.5.26.25.31.28.54.49.25.23.32.27.54.47.25.21.32.27.54.44.24.2c.12.08.23.17.34.26l.53.41.24.19.35.26.51.38.23.17.38.27.3.22.18.13a.71.71,0,0,1,.14.1l.09.06.11.07a3.37,3.37,0,0,0,.31.21l.48.33.22.15.42.28.49.31.21.14.42.26.49.31.21.13.42.24.49.3.21.12.41.23.5.29.2.11.4.23.5.27.19.1.4.21.51.27.18.09c.13.07.26.14.4.2l.5.26.18.08.38.19.51.24.16.08.38.18.51.24.16.07.36.16.51.23.15.06.35.15.51.22.14.06.35.14.5.21.13,0,.34.13.49.2.12.05.33.12.48.18.12.05.29.1h0l.48.17.11,0,.27.1h0l.46.16.1,0,.24.09h.06l.44.15.09,0,.16,0,.16.05.39.12.09,0,.07,0,.24.07.37.11.08,0,.07,0,.21.06.37.11.07,0h0l.26.07.33.1.34.09.3.09.29.07.31.08.22.06.33.08.16,0,.34.08.1,0,.34.08.08,0,1.27.27,189.75,39.58,73.13,15.29a7,7,0,0,1,5.14,4c.45,1.06,1.27,3-3.94,5.94-12.19,6.77-35.46,18.51-42.31,22a20,20,0,0,0-8,7.11c-4.35,6.85-3.45,14.27,2.46,20.35,9.6,9.87,29.86,27.42,34.07,30.13.33.21.87.62,1.44,1a44.46,44.46,0,0,0,8,5,197.62,197.62,0,0,1-34.81,14.07c-1.33.37-3,.86-4.9,1.44-10.32,3.11-29.45,8.86-50.3,9.29-23.18-4.91-47.06-8.21-64.52-10.62-4.15-.58-7.87-1.09-11.06-1.56-64.59-12.77-157.49-31.63-158.84-31.9l-.14,0-.33-.06a174.75,174.75,0,0,1-50.49-19.09c-32.84-19.07-49.5-45.5-49.5-78.58v-.13c0-.71,0-1.56,0-2.51v-1c0-1.38,0-3,0-4.73,0-2.13,0-4.54,0-7.18h0c0-1.06,0-2.15,0-3.28v0c-.11-27.34-2.05-75.56-19.52-111.94a106.57,106.57,0,0,0-11-18.29c-9.12-19.87-70.91-89-139.8-144.92-9.84-8-19.82-15.71-29.82-23l-.48-.31c-1.06-.6-2.43-1.44-4-2.41-18-11.06-65.63-40.44-123,0-45,31.7-169.94,145.65-228.66,199.76-7.21,6.64-13.42,12.38-18.36,17a179.88,179.88,0,0,1-55.44,35.36c-1.25.5-2.5,1-3.74,1.45-14.92,5.59-28.61,8.32-40.86,8.15h0c-.94,0-1.88,0-2.81-.09s-1.86-.11-2.77-.2c-41-3-66.79-1.06-102.2,17.76a241.3,241.3,0,0,0-26.28,16.28A230.9,230.9,0,0,0,265.73,510l-.22.22c-.27.28-.48.51-.61.66l-179,160a90,90,0,0,0-20.37,26.33q-1.07,2.11-2.15,4.46a123.32,123.32,0,0,0-11.11,43c-.06.83-.11,1.66-.15,2.5a116.53,116.53,0,0,0,.58,18.42,69.92,69.92,0,0,0,3.09,14.28c.21.66.44,1.32.68,2C61,794.2,69,805.62,80.27,815.55a113.24,113.24,0,0,0,9.58,7.52c17,11.95,35.4,18.23,43.76,19.59,14.12,3.11,67.11,5,82.48,5.43,13.1,2,141.59,21,205.48,15,2.8,0,6.32,0,10.25.08,77.39,5,151.51,9.08,175.84,8.27h13.86l8.56,0H636l7,0h12.15l4.45,0h4.08l11.07,0h3.47l7.29,0,6.44,0,7.47,0,11.45,0,6.13,0,8.27,0,5.84,0h5.78l4.07,0h12.44l7.27,0h1l7.16,0h1.43l9.57,0h7.57l4.49,0h3.9l16.17.06h3.47l4.93,0h12l9.8,0,5.46,0,5.82,0H864.4L1170.88,871h368c2.36.24,16.34,1.28,35.64-4.15,18.86-5.3,46.67-18.11,72.34-48.92,11.61-8.41,47.37-34.31,83.09-60.2,1-.68,1.78-1.23,2.18-1.54s1.06-.81,1.61-1.2l82.67-59.9C1819.07,693.37,1849.09,671.84,1829.93,618.79ZM1391.81,390.47h0c.27-.39.52-.77.76-1.15a21.49,21.49,0,0,0-1.69-24.81,201.54,201.54,0,0,0-16.72-18.07,40.55,40.55,0,0,0-11.73-7.92l4-1.06c30-7.57,53.87-22.56,68.61-33.8,1.78-1.35,3.51-2.75,5.21-4.18a36.51,36.51,0,0,0,11.65,27c11.23,10.6,18.65,17.67,20.89,19.91a38.13,38.13,0,0,1,4.86,6.57l.19.34a12.32,12.32,0,0,1-.25,12.51c-12.06,19.65-32.16,35.88-61.45,49.62l-.1.05-2.16,1.1c-6.67,3.43-17.82,9.17-24.16,4.13C1385.73,417.5,1387.1,397.14,1391.81,390.47Zm98.21-198c.29-.19,1.6-1,3.76-2.19-6.92,10.27-10.17,21.25-11.75,26.59l-.54,1.79-.12.46a54.16,54.16,0,0,1-1.58,5.75q-7,14.19-18.74,34.39a123.45,123.45,0,0,1-32,36.45c-14,10.67-36.65,24.9-65.09,32.08-4.73,1.29-15,3.79-27.73,6.84-1.83.19-3,.41-3.19.45l-19,4.87c-13,3.12-26.37,6.34-37.51,9.12Zm54.67,423.65c-6.63.9-11.66-2.87-15-5.37-.75-.56-1.4-1-2-1.45-3.33-2.14-23-19.07-32.31-28.69-2.7-2.78-3-5.1-1.19-8a10.17,10.17,0,0,1,4-3.54c6.89-3.45,30.32-15.28,42.67-22.14,9.11-5.06,9.95-11.37,9.2-15.53l11.85,2.47a5.13,5.13,0,0,0,2,0,5,5,0,0,0,1.88-9,5.14,5.14,0,0,0-1.82-.79l-290-60.51-.14,0-.06,0a61,61,0,0,1-21.38-9.28,47.23,47.23,0,0,1-10.56-9.89l-.37-.48-.12-.17a.27.27,0,0,1-.07-.08c-.29-.39-.56-.79-.84-1.19l-.55-.83c0-.05-.07-.11-.11-.17q-.33-.5-.63-1a1.74,1.74,0,0,1-.11-.18c-.21-.35-.41-.69-.61-1l-.1-.19c-.2-.36-.39-.72-.58-1.08,0-.07-.07-.14-.1-.2q-.28-.56-.54-1.11a2.14,2.14,0,0,1-.1-.22c-.18-.37-.34-.75-.51-1.13l-.1-.24c-.16-.38-.31-.77-.47-1.16l-.09-.26c-.15-.39-.29-.78-.43-1.18,0-.09-.07-.18-.1-.28q-.19-.58-.39-1.2l-.09-.3c-.12-.4-.23-.81-.34-1.22a3.37,3.37,0,0,1-.09-.34c-.11-.4-.21-.81-.31-1.22,0-.13,0-.26-.08-.38-.09-.41-.18-.81-.26-1.23,0-.14,0-.28-.08-.42q-.12-.62-.21-1.23l0-.2c0-.14-.05-.28-.07-.43,0-.35-.1-.7-.14-1.06,0-.18,0-.36-.07-.53s0-.48-.07-.72c0-.46-.09-.91-.12-1.38,0-.29-.05-.59-.06-.89,0-.12,0-.25,0-.37,0-.76-.07-1.52-.08-2.29v-.78c0-.84,0-1.69.06-2.54,0-.19,0-.37,0-.56,0-.53.06-1.06.1-1.6l0-.38c0-.54,0-1.07,0-1.6,0-.71,0-1.41.07-2.11A50.65,50.65,0,0,1,1271,361.28l45.07-11.55,10.17-2.44,11.54-2.76c5.85-.5,19.61-.46,29.44,9.07a190.37,190.37,0,0,1,15.88,17.16,11.47,11.47,0,0,1,1,13.24c-.14.23-.3.47-.46.7-6.2,8.78-10.3,35.72-.1,43.84,11.39,9.07,26.73,1.18,35-3.06l2-1c31.07-14.59,52.55-32.07,65.66-53.41a22.34,22.34,0,0,0,.43-22.68l-.36-.62a48.58,48.58,0,0,0-6.32-8.43c-3-3-13.1-12.57-21.1-20.11a26.29,26.29,0,0,1-8.16-23.56,17.74,17.74,0,0,1,3-7.5l1.38-1.87c8.37-11.39,26.75-36.41,34-57.55a171.28,171.28,0,0,0,8.7-20.2,44.93,44.93,0,0,1,6.53-12.54A37.72,37.72,0,0,1,1537,181a65.61,65.61,0,0,1,22.18,6l.45.22q1.26.6,2.52,1.26l0,0,1.18.64,1,.54a62.45,62.45,0,0,1,21.28,20.68c.7,1.09,1.43,2.25,2.2,3.47l0,.08.74,1.16,0,0,.75,1.19.06.1.76,1.21,0,.06.8,1.27,0,0,.77,1.25.21.33.7,1.12v0c2.31,3.7,4.78,7.68,7.32,11.79l0,.06,3.84,6.21,0,.06c11,17.82,22.3,36.37,26.52,43.3l.09.16.09.14.56.92,0,.05.88,1.45c.08.16.3.58.61,1.25,0,.09.09.2.14.29a2.72,2.72,0,0,0,.11.25,71.44,71.44,0,0,1,3.56,10.06l0,.07c.12.45.24.9.36,1.37l0,.07c.11.44.22.9.33,1.36a.83.83,0,0,1,0,.15c.11.44.21.9.31,1.36a2.25,2.25,0,0,0,.05.22l.27,1.35c0,.1,0,.2.06.3.09.45.18.92.26,1.39l.06.32c.08.45.15.92.23,1.39l.06.38c.06.42.12.86.18,1.29,0,.18,0,.36.08.55.05.42.1.86.15,1.29,0,.2,0,.4.07.6,0,.42.08.84.12,1.26,0,.23,0,.46.07.7,0,.41.06.84.09,1.27,0,.24,0,.48.05.73,0,.42,0,.85.07,1.27l0,.8c0,.41,0,.83,0,1.25s0,.57,0,.86,0,.84,0,1.26,0,.6,0,.9,0,.84,0,1.26,0,.64,0,1,0,.83-.06,1.25,0,.67-.06,1-.06.83-.1,1.25,0,.7-.08,1.05-.09.84-.14,1.26-.07.71-.11,1.06l-13.73,80.6c-.83,3.42-5.52,24.68-14,63.42-6.68,30.58-13.84,63.49-16.84,77.31l-.54,2.45c-.54,1.74-6.29,19.47-21.5,38.33a135.22,135.22,0,0,1-27.51,23.41Zm-49.77,32.73c1.86-.56,3.45-1,4.73-1.4l.12,0a196.79,196.79,0,0,0,48.94-21.92,26.2,26.2,0,0,0,11.07-6l.27-.25a138.46,138.46,0,0,0,20.7-20.93c1.84-2.12,3.52-4.19,5-6.17A119.48,119.48,0,0,0,1593.9,580c0,3.41.1,6.4.16,8.93a61.54,61.54,0,0,0,.7,8.08c10.86,69.31,47.31,116.89,64.83,139.75l2.62,3.44c14.37,18.23,28.59,24.3,40.45,25.07l-65,47.09-.17.13a137,137,0,0,1-62.1,27.7,89.28,89.28,0,0,0,7.31-27.08c6.19-60.89-8.28-81.45-25-98.74-16.11-16.69-43-39.09-63.31-49.6l-.16-.08a174.48,174.48,0,0,0-24.89-9.2A262.55,262.55,0,0,0,1494.92,648.84Zm58.4,192.89-.2,0-150.21-.4c15.63-6.77,31.24-16.75,40.8-29,18-23.13,28.27-41.3,19.44-98.51-3.44-22.27-16.87-41.64-38.9-56.14a117.35,117.35,0,0,0,16.32,1c18.37,3.93,36.2,8.86,49.31,15.07,19.11,9.93,45.5,31.94,60.65,47.62,15.57,16.13,28,34.09,22.23,90.7-1.55,13-5.16,22.54-9.49,29.62A79.65,79.65,0,0,1,1553.32,841.73ZM78.11,695.26a80.66,80.66,0,0,1,14.46-17L216.41,567.59l55.34-49.46.36-.36a193,193,0,0,1,17.56-16.23l2-1.64a238.16,238.16,0,0,1,34.23-23.22c1.05-.58,2.12-1.16,3.2-1.73,1.38-.74,2.75-1.43,4.1-2.12q5.15-2.58,10-4.66c26.59-11.3,49.28-12.24,82.55-9.84q3,.27,6.14.32c13.55.21,28.58-2.76,44.82-8.85,1.25-.47,2.51-1,3.77-1.47q6-2.4,11.82-5.22A192.15,192.15,0,0,0,539,411c4.22-3.92,9.38-8.68,15.29-14.14,3.94-3.64,8.23-7.58,12.79-11.78l7.07-6.49c60.54-55.56,162-147.44,205.85-179.87q2.64-2,5-3.6c.81-.57,1.62-1.13,2.43-1.67,2.17-1.46,4.33-2.8,6.46-4l.91-.53c46.62-26.66,84.09-4.51,101.32,6.09l.86.53,1.12.69c1.09.67,2.07,1.27,3,1.77,15.69,11.42,31.26,23.89,46.22,36.72,1.33,1.14,2.65,2.27,4,3.42l3.73,3.25c34.81,30.52,65.77,62.31,86.46,86.12l.43.49c6.2,7.16,11.47,13.58,15.62,19q1.4,1.85,2.63,3.52c1.64,2.25,3,4.28,4.19,6.07a39.82,39.82,0,0,1,3.11,5.57l.24.58.39.51c27.13,35.34,28.86,97.8,28.83,128.07,0,2.57,0,4.9,0,7v.06c0,3.47,0,6.24,0,8.29v.15c0,.22,0,.45,0,.67.26,36.14,19.16,66.08,54.72,86.63,4,2.33,8,4.4,12,6.26l.18.08c.6.29,1.2.56,1.8.84l.57.26,1.5.67.85.38,1.38.59.93.4,1.2.5,1.08.44,1.08.43,1.15.46,1,.38,1.18.46.76.28,1.39.51.58.21,1.5.53.71.25,1.32.45.64.21,1.33.44.44.14,1.46.47.53.16,1.3.4.53.16,1.22.36.45.13,1.23.35.28.08,1.31.37.19,0,1.31.35.13,0c5.25,1.37,8.67,2,9.33,2.12,2.86.59,85.82,17.58,150.36,30.52h0l.18,0c10.59,2.13,20.69,4.14,29.85,6,2.93.79,60.13,16.91,67.48,64.5,8.38,54.32-1.17,69.91-17.45,90.84-15.81,20.32-53.86,35-71.8,35h-18.24L663,839.38l-442.56-1.17-2.63-.08-1.47-.11h-.81l-.23,0-2.87-.1-.54,0h0l-1.77-.06-1.48,0h-.34l-2.66-.1h0l-.51,0c-19.57-.71-52.42-2.17-66-4.23h-.08c-1.27-.19-2.38-.39-3.28-.59l-.33-.07c-.45-.07-.93-.15-1.44-.26-7.76-1.59-23.66-7.37-38.29-17.66C94.33,814,93,813,91.72,812a83.61,83.61,0,0,1-19.89-21.51c-.28-.44-.54-.89-.81-1.33l-.33-.56a61.37,61.37,0,0,1-8-24.23c-.28-2.52-.46-5-.56-7.42a112.61,112.61,0,0,1,12.37-55.31C75.57,699.47,76.79,697.33,78.11,695.26ZM1170.86,861,864.4,862.3c-2.18,0-198.11-.69-246.82-.82h-10c-15.93,0-121.37-7.12-122.43-7.19h-.21c-.38,0-31.37-.78-52-1-23.22-1.5-46.74-3.07-69.31-4.62l299.38.79,682.8,1.79h.17l206.76.54c.39,0,1.17.07,2.3.11-7.41,6.88-14.59,8.84-16.31,9.22Zm401.48-3.91a111.62,111.62,0,0,1-11.14,2.58,56.58,56.58,0,0,0,7.68-8.49,141.18,141.18,0,0,0,35.09-8.39A123.24,123.24,0,0,1,1572.34,857.13Z"/></svg>