<?xml version="1.0" encoding="utf-8"?>
<!-- Generator: Adobe Illustrator 24.0.1, SVG Export Plug-In . SVG Version: 6.00 Build 0)  -->
<svg version="1.1" id="Inactive_Configs" xmlns="http://www.w3.org/2000/svg" xmlns:xlink="http://www.w3.org/1999/xlink" x="0px"
	 y="0px" viewBox="0 0 1920 1080" style="enable-background:new 0 0 1920 1080;" xml:space="preserve">
<style type="text/css">
	.st0{fill:#A7A9AC;}
</style>
<title>inactive</title>
<path class="st0" d="M1515.4,532.8c-9.2-127.6-74.6-205-127.9-247.5c-31-24.7-66.1-44.6-104.4-59c-33.5-12.6-67.7-20.4-98.9-22.3
	c-133.3-8.3-384.4-12.3-508.4-4.9c-143.7,8.6-228.6,77.8-274.4,134.3c-61.7,76.1-80.6,161.6-77.8,216.3
	c3.1,58.5,18.6,111.6,46.1,158c23.9,40.4,56.9,75.6,98,104.6c35.1,24.8,75.1,44.6,118.9,58.6c47,15.1,85.5,19.6,109.5,20.7
	c10.9,0.5,23.3,1.1,36.5,1.8c0.2,0,0.4,0,0.7,0c0,0,0,0,0.1,0c0,0,0,0,0,0c50.7,2.5,116.8,5.8,189.1,6.7c0.4,0.1,0.9,0.2,1.3,0.2
	c0.4,0,0.9-0.1,1.3-0.2c11.2,0.1,22.5,0.2,33.9,0.2c77.2,0,159.6-3.2,236.6-13h0c80.1-10.3,146.7-35.1,198.1-73.8
	c41.3-31.1,72.9-71.2,93.8-119.1C1523,613.3,1515.9,536.9,1515.4,532.8z M872,363.5C872,363.5,872,363.5,872,363.5
	c25.1,27.3,39.7,45.4,83.9,116.2c8.1,13,9.1,17.3,11.6,28.8c1.4,6.4,3.4,15.2,7.3,28.6c13.8,47.1,2.7,167.1-15.8,245.4
	c-3.9,16.4-13.6,41.9-27,77.3c-3.5,9.1-7.3,19.3-11.4,30.2c-71.3-0.9-136.4-4.1-186.5-6.6c-6.5-1.4-93-20.1-178.2-70
	C438.2,744.4,378.7,652.1,378.9,539c0.1-51.8,27.9-150.8,104.2-211.2c68-53.8,159.4-67.8,271.5-41.5
	C783.7,293.1,835.6,323.9,872,363.5z M1478.5,690.3c-46.2,105.8-141.8,168.7-284,186.9c-85.9,11-178.5,13.6-263.3,12.8
	c3.6-9.6,7-18.6,10.1-26.8c14-37,23.3-61.5,27.4-78.5c9.7-41.1,17.2-91.5,20.5-138.3c3.5-50,1.8-89.8-4.8-112.2
	c-3.8-13.1-5.6-21.3-7.1-27.9c-2.7-12-3.9-17.5-12.9-32c-42.3-67.7-57.6-87.8-85-117.6c0,0,0,0,0,0c0,0,0,0,0,0
	c-37.7-41-91.9-73-122.5-80.2c-61-14.3-116.9-16.9-166.1-7.6c-43,8.1-81.4,25.3-113.9,51c-35.9,28.4-65.1,68-84.5,114.3
	c-14.7,35.1-23.4,74.2-23.5,104.7c-0.1,64.4,19.1,123.2,57,174.7c30.2,41,72.3,77.5,125.1,108.4c50.1,29.3,100.6,48,135.6,58.9
	c-139.1-10.1-340.9-104.8-352.8-331.8c-2.8-52.8,15.6-135.6,75.5-209.5c44.6-55,127.2-122.2,267.3-130.6
	c45.5-2.7,108.2-3.9,175.9-3.9c116.2,0,247.2,3.5,331.3,8.8c116.1,7.3,306,100.5,321.8,319.7l0,0.2
	C1505.8,536.9,1513,611.2,1478.5,690.3z"/>
</svg>
