<?xml version="1.0" encoding="utf-8"?>
<!-- Generator: Adobe Illustrator 25.0.0, SVG Export Plug-In . SVG Version: 6.00 Build 0)  -->
<svg version="1.1" id="Background_Details" xmlns="http://www.w3.org/2000/svg" xmlns:xlink="http://www.w3.org/1999/xlink" x="0px"
	 y="0px" viewBox="0 0 1920 1080" style="enable-background:new 0 0 1920 1080;" xml:space="preserve">
<style type="text/css">
	.st0{fill:#C2C6F7;}
	.st1{fill:#636466;}
</style>
<g id="Water">
	<path class="st0" d="M231,569.6l-6.7-21.1l-1.3-22.9c1.1-6.9,4.6-13.3,9.8-18c8.9-8.2,21.6-15.1,21.6-15.1l51.8-7.8l20.9-20.2
		l20.9-7.3l24.2,0.5c0,0,11.6,3.1,22,18l8.5,3.8l19.5-7.5l21.1,6H465l15.3-4.5l6.5-1.8l61.1-0.7l18.2-2.9l57.3-7.3l8.9-4.9l7.3-22
		l8.2-8.2l40.7,14.9l-9.3,41.3l2.2,3.8l11.1,12l104.2,36.2l4-2.7l16.9-58l85.1,20.7l2-6.7l8.2,1.8l-29.1,85.3c0,0-4.7,19.8,6,25.1
		L874.3,659l-13.1-2.9l-6.9,1.1l-2.2,0.7l-8.7-4.7l-8,1.1l-7.3,0.5l-15.1-2l-27.8-5.1l-12-0.9l-18-0.9l-31.8-8.5l-4.9-8.9l-11.3-3.1
		l-8.2,5.3l-12-0.2l-14.2-12.5H655l-12.4,10l-27.1-0.2l-11.3-1.8l-12.4-2.4l-14.2,1.1l-17.5-2l-8.7-3.3l-30.4,1.1l-5.6-2.7
		l-21.8-12.7l-11.1-16.7l-3.8-2.5l-7.3-2l-4,3.1l-6,8.7l-0.9,6l1.6,2.2l6,0.9l4.2,2.2l0.9,5.6l-2.7,2l-4,1.8h-6.9l-42.7-8.5
		l-10.5-0.9l-16.4-8l-18.9-3.8c0,0-12.7,0.9-13.3,1.1s-16.2,3.3-16.2,3.3l-9.8,0.4l-9.6-1.5l-14.4-9.1l-4.5-1.8l-15.8-1.3l-25.5-4.2
		l-17.8-2.9L231,569.6z"/>
	<path class="st0" d="M1508.8,590.7l-13.1-5.1l-30.9-12.5l-52.9-22.7l-37.3-20l-70.4-37.8l-34.7-17.1l-68-30.9l-30.2-12.9l-5.3-0.7
		l-5.3-2.9l-15.1-7.1l-80-27.8l-79.5-24l-113.1-27.5c-9.8-2.2-11.1,4.9-11.1,4.9l-20.5,90.7c-1.8,6.9,2.9,7.8,2.9,7.8
		c6.2,1.6,7.8-4.9,7.8-4.9l18-82.7l1.5-3.3l3.8-0.2l53.1,11.3l4.7,2l2.4,4L920.3,437l-6.9,29.1l-2.7,7.1l-3.1,8.5l7.5,1.5l1.3-5.3
		l3.1-3.6l5.5-0.9l102.7,28l48,18.7L1151,549l7.1,4l12.9,10.2l3.8,3.3l7.1,2.4l7.1,0.4l7.6,8.9l4.2,3.6l9.6-0.9l6.9-0.2l12.9,5.8
		l59.1,35.3l74.2,37.1l9.3-1.6l41.6,18.9c0,0,1.8,3.1,2,3.8s1.8-0.2,1.8-0.2l83.3-15.6l20.4-50.7
		C1527.2,594.5,1508.8,590.7,1508.8,590.7z M1507.7,607.8l-16.4,46l-69.3,12.7l-78.4-32.7l-18.7-7.1l-90.4-49.6l-9.1-4.9l-14.2-17.8
		l-17.6,1.5l-7.8,2.5l-3.8,1.1c0,0-14.2-16.9-25.6-19.6l-83.6-34.4l-40.2-13.8l-23.8-6.7l-24-6l-50.2-13.3c0,0-10.9-0.9-9.8-8.7
		l21.8-86.2l4.2-0.2c0,0,78.9,20.2,79.5,20.2s40.7,13.3,40.7,13.3s74.4,27.8,75.1,27.8s7.1,4.9,7.1,4.9l-0.2,7.8l-6.7,17.5l-8.4,5.6
		l1.8,3.5l6.4-2.2l9.3,4l8.7-2l12-25.1l31.8,13.1l5.6,8.7c0,0,6.4,2.2,7.3,2.2s12.4-0.2,12.4-0.2l9.6,10.9l6.9,2.4l9.3-0.7l7.1,2.7
		l83.6,44.7l53.1,29.1l21.3,10l74.4,30C1498.6,599,1509.4,601.2,1507.7,607.8z"/>
	<polygon class="st0" points="879.8,670.7 886.6,647 905.9,671.8 	"/>
	<path class="st0" d="M911.2,671.5c0,0-20.4-22.8-18.4-47.1l9.5-37.6l23.7,8l-0.6,2.4l-19.8-5.6l-10.4,37.3l42.7-26.4l2.1-5l13,1.2
		l9.2,2.4l-21.6,70.8L911.2,671.5z"/>
	<polygon class="st0" points="952.7,672.7 976.7,592.1 986.2,594.2 963.7,673.3 	"/>
	<polygon class="st0" points="974.3,673.6 997.4,599.3 1006.9,614.4 991.8,668.6 	"/>
</g>
<g id="Pavement">
	<path class="st1" d="M1918.3,674.5l-0.2-5.8h3.3l2.4-63.6l-37.3-5.8l-8.2,10.1l-54.7-5.6l-21.6-0.7l9.1,23.1l-1.3,22.7l52.4,0.7
		l3.6,4.7l0.4,10l-8.4,12.7l-18.9-0.2l-15.6-0.5l-13.8-13.3l4.3-3.7h6.3l4,3.8l4.3-4l0.7-4.2l-1-2.5l-3.8,1l-28.8,0.4l-12.3-1.2
		l-52.1,1.3l0-0.1c0,0-4.1,0.2-8.2,0.3l-5.6,0.1l-1.3,0.1c-0.8,0-1.4,0-1.5,0c-0.1,0-0.2,0-0.2,0.1l-15.4,1.6l-9.9,2.8l-10.8,5.9
		c0,0-12.6,10.2-13.2,10.4s-8.9,7.5-8.9,7.5l-0.8,1.3l-6.7-4l-7.8-1.3l-11-0.4h-12.3l-19.1,0.7l-18.6,1.3l-20.2,3l-13.9,1.2
		l-25.2,1.3l-20.9,1l-21.8,1l-33.9,3.1l-45.3,10.5l24-0.2h21.6l5.9,1.2l0.1,1.4l-175.2,0.7H1089l-180-0.2l-259.3-0.2l-8-17.3
		l0.2-15.1l-2.7-0.5H447.9l-120.7-1.5l-71.5-12L127,658.5l-38.2,15.1C56.1,679.4,57.9,639,57.9,639l-8.5,6.2L35,619.8l1.3-3.6
		l14.9-20c16-19.5,43.3-46.2,43.3-46.2l31.3-28.2l4.9-8.2l-16.2,12l-10.9,9.4L93,544.5l-10.4,10L67,571.4l-52.4,62.7L-1,653.4
		l0.2,15.1l1.8-2.7c4.2-7.1,11.8-4.2,11.8-4.2l14.4,11.5c0,2.9-1.9,5.4-4.7,6.2l-3.8-1.8l-1.3,3.4l2.5,2c3.1,2-0.7,7.8-0.7,7.8
		l-21.5-10.3l2.2,6.7l15.5,8.5c6,2.9,4.9,9.8,4.9,9.8l-4.9-3.5l-1.5,0.7l1.5,8l1.6,26.2l3.1,30.4l5.6,3.6l8,1.3l3.8,2.2l29.8-1.5
		l3.6,3.3l0.2,14.7c14.4,5.5,16.7,20,16.7,20l20.9-0.7l0.7-36c1.6-4.9,7.3-4.4,7.3-4.4c6.9-0.5,8.2,2.9,8.2,2.9
		c1.3,12.1-0.1,24.3-4,35.8l3.8,4.9l7.3-3.8l-0.2-88.2c-0.2-11.1,9.1-10.2,9.1-10.2l16.1-0.3l160.6-2.1l243.6,2.1l964.4-2.1
		l130.2-0.1l269.6-0.2l0.2-33.5L1918.3,674.5z M39.7,657.8l-8.7,7.8c-3.3,2.9-5.6,0.7-5.6,0.7l-11.1-9.1c-4-2.7-0.7-7.3-0.7-7.3
		l10.1-9.4l9.6-7.3l2.5,1.1l8.2,10.5l1.6,5.3L39.7,657.8z M1907.5,615.1l1.3-1.6c1.2-0.6,2.4-1.1,3.7-1.5c0.9-0.2,3-0.6,3-0.6l2.6,2
		l0.7,24.2h-8.8l-0.6-17.3h-2.4L1907.5,615.1z M1741.7,663.7l4.7-5.2l16.4,0.4l5,4.9l2.7-3.6l9.8-0.4l3.3,3.3l3.1-3.8h12.4
		l12.1,12.8l-3.8,4l-26.2,0.2l-17.3-16.2l-2.9,3.1l9.6,9.6l-5.1,4H1741l-14-13.8l2.6-3l8.4-0.3L1741.7,663.7z M1668.7,680.7
		c5.3,0,9.6,4,9.6,9s-4.3,9-9.6,9s-9.6-4-9.6-9S1663.4,680.7,1668.7,680.7z M1463.9,700.7h6.7l12.3,0.7c0,0,3.1,0.4,3.4,0
		s-0.1,2.1-0.1,2.1l17.9-0.6l-0.1,2l-43-0.8l0.6-2.6C1462.3,701.2,1463.1,700.9,1463.9,700.7z M1597.9,703.4h-12l-4.2-2.2l-56.2,0.2
		l-11.1,3.8l-7.1-0.1l0.1-2l1.6-0.7l1.6-3.1l-0.3-2.1l-37.2,0.6l-2.4-0.4l1.8-1.5l7.4-2.5l10.1-2.3l19.1-1.3l40.4-2.5l11.6-0.7
		l19.8-3.1l14.2-1l32-0.9l13.2,0.6c0,0,6.2,1.3,6.7,1.3c0.4,0,5.1,2.9,6.6,3.8l-0.1,0.1c2.5,6.3-1.1,10.9-4.5,13.7l-0.8,0l-48,0.7
		L1597.9,703.4z M1913.7,700.1h-28l-151.1,1.1l-41.7-0.1c-11.6-2.5-10.2-10.6-10.2-10.6c-0.6-13.6-12.6-15.1-12.6-15.1l6.2-6.1
		l7.3-5.2l4.9-2.5l10.4-2.5l13.8-1.6l2.4,0.2l4.5,3.7l9.8,11.1l-3.1,4.7l-6.9,0.5l0.4,5.8l153.1-0.9l-0.4-12.5l-0.4-16l8.2-1.1
		l0-0.1l7.8,2.8h21.6v13.1h4.2l0.2,8.4L1913.7,700.1z"/>
	<path class="st1" d="M123.4,551.2l-1.3,3.8c0,0,12,0.5,22.2,0v5l0.7,8l1.3,3.8l4.1,5.2l1.9,4.4v3.3l1,7.4l1.2,6.7l3.6,2.4l4.6,2.5
		l6.6,3.6l-12-3.9c-38.9-2.7-69.8,15.1-69.8,15.1l-4.2,9.3l12.7,5.8l2.9-1.1l9.3,12l2.7,0.4l11.8-7.4l28.7-26.6l58.7,14.2l43.6,13.1
		l0.2-6.2l18,4l-6.2,6l8,2.5l4.2-6.5l20,5.3l8.7,9.1l9.5,1.3l-5.3-5.1l0.2-3.1l-7.1-0.5l-4-3.3l1.1-4l-19.8-5.1l0.5-6.9l9.3,2.9
		l56.9,6.7l12,0.5l101.5-0.5c23.6-1.3,46,8,46,8h10.9l25.8,5.1l23.8-1.8c21.1-3.3,66.5-6.2,104.9-4.2s95.5,16.9,95.5,16.9l19.6,17.6
		l2.7-1.6l-12.2-11.8c20.9,11.3,58.5,15.3,58.5,15.3l146.7,1.6c19.8-3.3,28.2-22.2,28.2-22.2l8-25.3l2.4-2.2l5.1-2.5l0-0.1
		l43.5,17.8l8.9,2l9.1,0.9l9.1-2l7.6-4.2l-5.1,4.7l-5.1,3.6l-7.1,2.2l2.7,1.8l7.6-3.3l3.6-1.9l9.6-8.4l-2.4-2.8l6.5-8.2l-0.2-4
		l5.9-10.2l4.9-11.9l-3.1-3.8l0,0l10.2,10l-0.4,13.9l-3.1,9l-1.3,3.6l-1.6,7.3c0,0-6,12.5-18,15.6l-8,2.9l-8.4,0.4l-7.6-2.2
		l-3.8-2.9l-2.7-3.1l-6.2-1.8l-1.1,1.3l-20.4-9.3l-5.8-1.1h-7.1c0,0-12.2,7.6-5.3,18.7l4,5.1l2.7,1.5l4,0.9h4.9l15.3,6.5
		c0,0,8.4,3.1,9.8,3.1h8.7l3.6-1.8c0,0,19.3-0.2,20.4-0.2s15.1-0.7,15.1-0.7l9.8-1.8l8.4-1.5c0,0,8.4-2.9,10.2-3.3s8.4-3.3,8.4-3.3
		l-2.2,4.5l-3.6,4.7l-5.3,3.8c0,0-6.4,2.5-7.1,2.7s-8,3.3-8,3.3l-4.4,1.6l10,0.4l32.7,1.1l-2.4-3.8l0.9-2.4l4.9-2l-1.1-4.4l-4.9,1.3
		l-3.3-0.9c0,0-6,1.1-4.4-2.4l3.3-2.7l1.8-2.2l-0.7-3.1l-4-5.6l-2.4-6.2l-0.7-4.5l2-4.2l31.8-8.7l-0.3-0.3h1.2l16.9,13l1,4.6
		l-6.7,0.9l-0.6-1.9l-0.4-3.7l-13.2,0.5c-13.2,2.4-13.6,8.4-13.6,8.4c-1.8,23.3,12.7,22.1,12.7,22.1l21.6-2.7l9.3-7.7l1.6-0.1
		l0.9,4.9l31.8,1.2l0.3-4.3l5.3,0.7c0,0,0.3,4.3-0.2,4.6s14.8,3.8,14.8,3.8l15,1l13.2-0.6l8.6-1.5l-0.2-5.6l4-0.7l5.2-2.7l1,2.2
		l0.9,4.3l0.6,1.6l-1.8,5l-3.6,2.7l16-0.7l-4.4-1.5l-0.2-8.9l-0.3-4.1l3.7-2.7l5-5.3l8.9,4.4l12.2,5.9l1.8-2.5c0,0-7.5-2.3-8.1-2.3
		s-13.8-7.3-13.8-7.3l2.4-7l14.4-31.4l-12.2-5.8l-13.6,31.1l-5,4l-0.3,2.5l-2.2,3.3l-3,2.4l-3.1-1.6l1-3.8l-0.3-2.8l-15.3-7.5
		l-11-4.2l-8.9-1.3l-5.6-0.6l-7.6,0.5l-5.6,1.5l-0.9,1.2l-0.2,3.1l-3.8,1.8l-3.8,1.5c0,0-5.2-0.6-5.6-0.6s-2.1-1.9-2.1-1.9
		s-0.4-2.5-0.6-3s2.7-1,2.7-1l3,1.6l2.1-2.1l3.1-1.5l2.1-3.3L1252,623c-5.8-14.1-20.7-9.6-20.7-9.6c-9.5,4.2-16.4,15.3-16.4,15.3
		l-5.6,8.6l2.7,1.8c0.5,1.1,0.9,2.2,1.2,3.4c0,0.7-2.5-0.6-3.3-0.6s-4-1.8-4-1.8s-4.2-5-4.2-5.5c0.5-1.3,1.1-2.6,1.7-3.9l15.8-13.2
		l1.8-2.5l3.4-2.1l0.6-2.2c-0.7,0.2-1.4,0.3-2.1,0.3c-1,0-1.8-1.9-1.8-1.9l5-11.1l29.5-69l2.8-3.1l3.7-0.9l7,3.4l3.4,3l3.1,8.9
		l0.3,4.6c-6.2,12.3,0.6,24,0.6,24l4.6,4.7l6.5,4h6.4l9-2.7c0,0,1-2.7,10.4-4s17.3,4.6,17.3,4.6c2.8,3,2.1,9.6,2.1,9.6l-3.6,14.5
		c0,0-1.8,1.5-2.4,1.5s-4.9,1.3-4.9,1.3l-2.5,11.7l0.3,4.3l4.9,1l3.7-0.6l0.7-3l-2.5-0.5l0.2-3.4v-3.6l2.8-0.4l9.9,5.9l35.1,20.9
		l16,5.7l4.1,2.6l6.4,1.8l5,0.5l7.4,1l1.5,1.8l2.2,1.6l3,0.7l7.1-1l2.4,1.8c0,0,3.1,3,3.8,3.4s4.6,1.8,4.6,1.8l9.2-1l9.3,0.2
		l3.3-0.4l3.3-1.6c0,0,0.9-3.9,0.9-4.5s-1.5-1.9-1.5-1.9h2.2c0.9,0,7.3,2.2,7.3,2.2l4.7,2.1h3.9l34.1,13.2l3.8-6.9
		c-0.1,0.8-1,5.1-1.8,5.3c2.2-0.5,59.2-10.1,59.2-10.1l80.6-15.7l19.8-11.8l-13.3-9.8l-95.4-15.7l-12.5,3.9l-3,0.6l-21.6-9.8
		l-5.9,1.5l24.9,11.8l-2.1,4.8l-6.2,4.7l-3.8,12.1l1.2,2.1l-12.4,21l-7.6,4.9l-32.3-13.1l2.4-7.6l1.8-6.4l0.2-5l-2.5,0.9l-4.7-1.9
		l-3.3,0.3l-3.4-1.5l0.7-1.5l1.5-4l3-0.2l5.2-0.6l4.3-3l2.2-6.2l-6.1-2.5l-35.3-12.3l-0.9,2.5l-2.5,4.4c0,0,0.3,3.6-0.4,5
		s0.3,5.6,0.3,5.6s4.6,4.5,5,5s1.9,3.1,1.9,3.1l3.6,3.7l7.1,4.7c0,0-0.8,3.7-1.5,4.2s-6.1,5.8-6.1,5.8s-5,2.5-5.9,2.8
		s-12,1.8-12,1.8h-9.5l-11.1-0.6c0,0-12.2-1.2-12.7-1.2s-10.1-2.4-10.5-2.5c-0.3-0.1-2.3-1-3.8-1.7l0.6-4.5l0.3-7.4l-0.4-8.3l0.4-7
		l8.3-17.2l20.9-46.7l-3.7-1.9l1.9-5.5l-3.7-1.3l-13.9,31.7l-3,6.8c0,0-3.3,2.5-3.8,2.5s-4.6-0.3-4.6-0.3l-3.8-3.1l-9.9-8.4
		c0,0-5.9-4.4-6.8-4.4s-8.3-2.8-8.3-2.8l-11.8-2.8l-3-0.2l-6.1,0.4l-6.4-0.2c0,0-6.4-0.4-7.1-0.4s-5.8-1.3-5.8-1.3l-4.9-0.9l-5-2.4
		l-3.9-4.6c0,0-4.4-4.3-4.9-4.6s-6.4-3.5-6.4-3.5l-5.3-2.1l-9.9-4l-5.2-3.1l-2.2-3l-5.5-3l-1.3-3.7l-4.1-4.3l1-6.5l-7.6-3.1
		l-3.4,8.1l-4.4,0.2l-3-1.8l-5.5-1.8l-6.1-2.1l-11.6-5.7l-4.9-2.4l-7-0.1c-0.4,0-4.9,0.6-4.9,0.6l-8.3,0.3l-6.4-1.8l-3.6-3l-1.9-3.9
		l-5.2-3.7h-2.4l18.2-42.4l9.1-20.8l61.3,30.3l6.7,4.6l1,2.7l-15,37.9l7.7,3l16.6-38.7l15.7,8.5l-12.2-19.1l-4.1,1.8h-3.1
		l-72.9-34.9l11.2-25.6c-2.8,17.4,7.6,24.2,10.2,25.6l-0.1,0.2l22.7,9.5l9.2,2.8l9-1.3l6.8-6.5l3.4-4.4l3.6-8.6l-0.7-4.7l-10.4-5.5
		l3.1,10.7l-4.5,8.6l-3.7,2.8l-5,1.9l-6.8-0.6l-3.4-1.5l-19.2-9.2l0.1-0.2c-10.5-6.4-7.7-16.9-7.7-16.9l3,0.5
		c1.8,6.4,7.4,12.6,7.4,12.6l5.3-3.3c-6.6-3.7-7.8-11.3-7.7-17.4l7.8-5.5l-7.8-4.7l8.8-19.6l-24.4-6.2l-10.1,21.9
		c-3.6,6.1-10.7,15.3-20.2,13.4l-1.3,1.9c0,0-9.5-5-7.1-12.3l1.8-7.3l3.3-8.7l5.6-3.6l-10.2-5l-9,21c0,0-4,6.1-11.4,6.1l-6.5,1.5
		l-7.8,3.3l-7.7,2.5l-5.8,0.4l-4.6-0.6l-10.4-4.5l0.6-3.8l5-8l4.6-2.5l3.7-2.1l4.4-3.8l2.4-4.6c0.4-4.4-2-8.6-6.1-10.5
		c0,0-12.4-4.3-21.6,1.6l-3,1l-2.5-0.3l1.8,1.9l-0.7,4.7l0.4,5.6l-2.5,3.9l-0.7,2.7l-1,8l-25.3-8.4l-0.1-2.5l1.6-4.9l2.8-4.6
		c0.7-1,1.3-2.1,1.8-3.3c0.7-1.6,0.1-1.6,0.1-2.2c-0.3-0.9-0.8-1.8-1.3-2.7l0.6-2.4c0,0,3.9-3.6,4.4-4.3c0.6-1.3,1-2.6,1.3-4
		l0.9-4.6l-1.2-3.7l4.6-13.2l-3.5-1.5l-1.5,5.2l-2.5,5.5l-1.3,1.5c0,0-2.2-0.3-3-0.5c-1.9-0.3-3.7-0.8-5.5-1.3
		c-2.1-0.7-1.8-0.7-3-0.7c-1.1,0-2.2,0.2-3.1,0.7c-1.2,0.4-2.3,0.7-3.6,0.9c0,0-2.7,0.4-3.3,0.4s-7.3-0.9-7.3-0.9l-5.9-0.8
		c0,0-1.3,0.5-1.9,0.8c-1.8,0.8-3.7,1.4-5.6,1.9c-1.2,0.1-2.3,0-3.4-0.4c0.4-1.1,0.6-2.2,0.7-3.4c-0.1-1.3-0.3-2.6-0.6-3.9l-1.8-2.4
		l-4.4-1.2l-4.6,0.2l1.9-2.4c0,0,4-0.6,4.4-0.6c0.7,0.1,1.3,0.3,1.9,0.6c0.6,0.3,1.1,0.8,1.5,1.3l2.8,0.7l2.4-0.4v-4.9l-3.1-0.3
		l-5.6,1.2l-1.6-0.3l-4.7,1.6l-1.6,3.3l0.3,2.7l0.6,2.8l-1.5,4.2l-2.1,3.6l-2.3,0.1l-6.3-0.7l-4.3-1.2l-2.4-1.6v-8.7l1.3-5.5
		l1.3-3.6l1.9-3.5l1.6-6.2l0.7-5.8l-11.4-2.8l-0.9,3l4.2,2.1v3.9l3.3,1.2l-1.9,5.9l-2.4,4.9l-2.1,5.6l-0.7,5.2l-1.2,6.1
		c0,0-0.6,4.7-4,2.8l-3-4.4l-9.8-15.4l-2.1-5.6l0.6-5l16.9,3.7l1-8.7l-3.4-0.6l-0.3-5.9l-1.8-0.6v5.8l-23.4-5.6l-1.8,8.4l11.6,2.5
		l-0.9,6.1l-4.8,2.1l-33.5,9.9l1,1.5l33.6-8.6l2.8,0.2l3.1,2.8l12.9,19.7l-2.7,10.2l-14.1-2.5l-24.4-5.2l-2.8,0.3l-4.5-1.8L905,325
		l-2.1-1.8l-1.3-5.9l0.7-3.1l1.5-4.7l-4.6,1.3l-3.3-0.9l-5.5-6.5l-4.2-7l1.3-2.8c0,0,10.8-12-3.1-19l-1.3,1.4c0,0,12.2,6.8,2.1,16.1
		l-3.1,2.5l-3.6,2.1l-4.2,3.1l-2.7,5l-3.5,12l-2.7-0.3l-3.8-1.3l-3.4-2.5l1.5-8.5l7.4-36.7l-2.4-0.2l-8.1,37l-4.4-1l5-21.1
		l-19.3-4.7l0.9-4.9l-25.3-5.8l-29.1-3.1l-14,62.4l24.9,6.7l-2.2,8l-32.4-9.1l4.2-22l5.1,0.2l10.2-45.3l-22.7,3.1l-10.7,39.8
		l-18.9-4.7l-5.6,31.6l-16.7,19.6l-13.1,6.2l0-0.2l-3.8-0.4l-0.5,9.3l-2.2,5.6L669,387.4l-5.3,4.2l-11.6,2.7l-3.3,0.9l-1.1,6
		l-26.5,22.2l-14.4,10.2l-10.5,4.2l-8.9,1.5l-12.2,0.9l-8-1.5l-9.3-3.6l-13.1-8.2l-12.5-6.7l-16.4-5.5l-1.8,3.8l-0.9-2.7l0.7-6
		l2.4-5.3l5.6-4.7l6-1.8l7.1,0.2l0.4-2.2h-8.2l-7.3,2.2l-5.3,5.3l-2.7,6.2l-0.7,7.8l0,0.1l-14.5-0.1c-10.5,1.2-13.5,5.2-13.5,5.2
		l0.2,0.3l-2.3,1.2l-23.4,13.5l-16.6,7.6l-7.7,3.7l-6.4,2.1c0,0-7,1.5-11-1.3l-5.5-3.5l0.7-2.5c0,0,0.6-2.1,1-2.2
		c0.4-0.2,3.1-0.5,3.1-0.5l3.5,0.3l4.7,1.6l2.7,0.6l1.8-5.3l-5-2.2l-4.3-1.8l-3-0.6l-7.5-6.5l-2.1,1.9l-4-0.3H400l-0.7,1.5l4.2,1.8
		l-4.6,2.7l-0.1,1.9c0,0,2.8-0.2,3.4-0.2c0.6,0,2.5,2.5,3.1,1.9c0.6-0.6,3.9,0.2,3.9,0.2s-0.9-2.1-0.4-2.1s3.5,0.9,3.5,0.9l-0.6,1.9
		l-1.9,2.7l-1.5,2.7l-7.3-3.6l-1.8-3.1l-2.8-1.8l-4.6,0.3l-11.3-4l-7.6-2.2l-6.2-1.9l-5.2-2.8l-1.9-2.4l-1.8,1.2l3.3,3.4l5.9,3.1
		l6.7,2.1l17.3,6.2l0.9,3.5l-5.3,3.4l-7.7,3.4v-2.6l-7.8,1.3l-4.7-1.8l-7.1-2l-8-6.4l-3.3,0.7l-1.1,9.5l-4.2-0.9l-7.6-1.5l-7.6,0.7
		l-18,4.5l-12.2,1.8l-13.5,0.4l-22.2,1.1l-10.9,1.6l-11.1,2l-6.4,1.5l-4.9,2.5l-4.7,6.4l-8.7,8L196.3,491l-14.7,10.7l-5.3,6
		l-6.2,9.1l-4.4,7.1l-4,6l-0.9,6l-2.7,4.7l-10,7.8l-8.2,4h-9.3L123.4,551.2z M1217.7,646.4c0.7-0.9,1.2-1.8,1.8-2.8l3,1.6l6.2-8.3
		c0,0,3.3-4.5,4-4.6s6.8-4.4,6.8-4.4l0.3-1.9v-2.4l2.8-1.2c0.9,0.6,1.8,1.1,2.8,1.6c0.9,0.2,1.7,0.7,2.2,1.5
		c0.4,0.9-0.2,3.7-0.2,4.4s-1.6,2.2-1.6,2.2l-3.1-0.3h-2.7l-8.2,8.3l-1.9,4c0,0,2.2,2.4,2.7,2.1s0.7-0.9,0.7,0.7
		c0,0.8-0.1,1.6-0.4,2.4l-0.9,1.2l-6.8-0.3l-4-0.5l-2.7-1.3C1218.7,648.4,1217.3,646.8,1217.7,646.4z M1215.1,655.9l3.7,0.3l8.1,0.8
		c0,0,9.6-0.5,10.1-0.5s14.7-1.8,14.7-1.8l9.3-1.3c0,0,2.8,0.6,1.3,1.9s1.8,1.6,1.8,1.6l3.4-0.8c0,0,3.1-0.9,3.7-1s3,1.2,3,1.2
		l4.3-1.2l3.6,0.4l3.6,2.7l3.3,0.9l3.7-0.9l2.2,0.7l2.5,1.9l3.1-1.2l2.2,0.7l3.3,1.9l3.3,1.3l5.8,0.7l-0.3,1.6l-3.4,0.5
		c-0.8,0.9-1.7,1.7-2.7,2.4c-1.2,0.6-1.8-0.3-2.2-0.5c-0.7-1.1-1.4-2.1-2.2-3.1c-0.4-0.3-3.3,0.9-3.3,0.9l-15.7,0.9l-13.2-1.5
		l-8.3-2.4l-1.5,0.6l-1.5,2.5c0,0-2.8-0.3-4-0.3c-0.8-0.1-1.5-0.5-1.9-1.2l0.4-4.3l-5.5-0.7c0,0-23-0.7-23.8-0.9s-4.2,1.5-4.2,1.5
		s-1.5,2.4-3,3c-0.8,0.4-1.7,0.1-2.1-0.7c0,0,0,0,0,0c-0.7-1.1-1.6-2.1-2.5-3C1213.8,659.6,1215.1,655.9,1215.1,655.9z
		 M1466.9,634.8l2.4-3.4l2.7-1.5l5,0.6l3.7,1.8c0,0,2.7,3.6,2.7,4s0.4,2.8,0.4,2.8l-0.4,4l-2.2,1.6c-0.8,0.2-1.6,0.3-2.4,0.4
		c-2.3-0.8-4.6-1.7-6.8-2.7c-1.6-0.8-3.6-1.9-3.6-1.9s-1.8-2.5-1.9-3C1466.5,636.6,1466.7,635.7,1466.9,634.8z M1354,611l-3.7,2.5
		l-4.7-0.7l-7.1-2.4l-5.2-5.5c0,0-1.6-2.4-1.2-3.1s2.7-7.4,2.7-7.4l2.1-5.5c1-0.6,2-1,3.1-1.3c0.6,0,5.6,0.5,5.6,0.5l1,0.6l-3,8.2
		l13.9,6.4L1354,611z M1389,626l-0.7,4.2l-3,1.6c0,0-2.8,0.2-3.4,0.2c-1.2-0.1-2.3-0.4-3.4-0.9c-0.4-0.3-4.9-1.2-5.2-1.8l-1.2-2.4
		l-0.3-3c0.4-0.9,1-1.8,1.6-2.7c0.4-0.3,4.2-2.2,4.2-2.2s4.9-0.6,6.5-1c1.4-0.3,2.9-0.3,4.3-0.2l1,3.7L1389,626z M1388.8,611
		l-3.8,2.8l-6.8,1.8l-4.4,0.6c0,0-6.2,1.5-6.1,0.6c0.1-1.1,0.1-2.3,0-3.4c-0.2-0.9,1.2-4.9,1.2-4.9l8.9,3.4l4-10.1l5.5,2.2l2.4,1.8
		L1388.8,611z M1329.1,559l3.8-0.4l6.7-0.5l7.1-0.2l12.7,1.6l7.1,1.9c0,0,3.8,1.8,4.4,2.2s4.6,3.7,4.6,3.7l4.6,6.2l6.2,4l6.6,2.3
		l3,2.1l2.5,5.2l-2.3,9.1l-0.7,0.9l-3.3-0.2l-5-2.5l-36-15.6l-2.4,5.5c-1.2-0.3-2.4-0.5-3.6-0.6c-1,0-4.4-6.4-4.4-6.4l-3.7-3.8
		l-5-3.4l-5.2-6.2C1323.9,560.6,1329.1,559,1329.1,559z M1287.8,536.8l-1,1.3l-6.4,2.7l-2.1-1.9l-0.7-6.4L1287.8,536.8z
		 M1277.9,550.9l3.1-6.4l7-2.7c1.7-0.5,3.4-0.9,5.2-1.2c2.2,0.4,4.5,0.9,6.7,1.5l10.4,8.5l5,5.3l0.7,4.7l-2.2,5l-3.6,2.7l-9.3,3
		l-7,2.4l-7.7-1.2l-6.5-4.4c0,0-1.5-3.7-1.6-4.6s-1.3-5.9-1.3-6.5S1277.9,550.9,1277.9,550.9z M264.8,616.8l-19.8-6
		c0,0-3.1-4.5-3.8-4.5c-33.8-16.4-48.4-26.3-51.4-28.4l18.9-6.2c0,0,8.7,9.3,24.9,15l10.8,2.1l4.6,1.3l0.7,0.6l1.9,10.5l0.2,3.6
		l13.5,8.7L264.8,616.8z M165.4,552.8l0.6-1.8l5.3-2.1l3.6,0.1l4.7,9.5l-0.7,3.5l-7.1-0.4C168.8,558,166.6,554.7,165.4,552.8z
		 M181.7,565.3l2,8.3c-2.9-2.3-5.6-4.8-8-7.4L181.7,565.3z M190.7,519.8l0.7-1.9l5,3.7l-0.1,6.4l-1.8,0.9l-3.5-1.3v-3.1L190.7,519.8
		z M192.7,530.7l1,0.7c0,0,0,3.9-0.1,4.5h0c-0.1,0.6-1,2.7-1.6,2.8l0.2,0.6l-2.4-0.6l-0.6-2.1l-0.6-2.4l1.5-3.7L192.7,530.7z
		 M1017.2,629.7l-8.7,28.7c-12.9,18-25.8,19.6-25.8,19.6H969l-51.8,0.2l-5.3-6.2l28.7,0.4l22.2-71.8l-8.2-2l0.2-2.2l9.8-8l33.5,9.8
		c6.8,13,17.2,25.5,19.4,28.1l-0.2,0.1V629.7z M908.1,512.1l-3.8,16l5.8,1.6l-1.3,4.7l-6.2-0.9l-1.8,6l-3.6-0.7l14.5-49.6l19.1,4.5
		l-6.9,21.8l-6.5-1.5l-3.8,13.3l-2.7-0.9l3.1-13.1L908.1,512.1z M862.6,475.6l-0.9,4.1l-36.4-9.1l4.2-0.8l33.3,5.4L862.6,475.6z
		 M864.1,471.6l-0.1,0.3l-36.8-5.8l-7.1-0.7l-5.1-1.8l-4.2-5.1l-4.7-7.1l-5.1-2.7l-5.6-0.9l-5.8,4l-5.1,5.3l-3.6,3.1l-5.1,2.7
		l-5.3,5.6l-2.7,5.8l0.2,4.5l-0.7,10.4l-4,7.6l-4.2,4.7l-6,2.5l-4.7,1.1l-11.2-2.6c-2.9-1.6-10.4-5.5-11.2-5.8c-1.1-0.5-9.3-8-9.3-8
		l-2.5-5.1l0.9-7.8l5.3-10.9l6.2-6.5l8.9-2.4l10.2,1.1l8.2,0.7l5.1-0.5l3.8-3.3l3.1-5.3l3.6-16.5l5.1,0.7l3.1-12.9l0.7-1.9l7.8,3
		l23.3,5.3l19.1,4l9.8-38.2l-22.2-5.6l-7.3-1.8l-8.9-4.5l-6.9-1.5l-5-0.3l0.5-1.2l4-5.8l6.2-3.1l5.8-0.4l11.3,1.1l69.3,16l4.7,6.6
		l-1.8,6l-3.8,5.8l-2.5,4.7l-12.3,60.4l-0.8-0.2L864.1,471.6z M772.8,392.3l0.2,5.8l-4.2,10.7l-11.4-0.6l-3.8-1.5l-3.3-2.9l-3.1-6.2
		l-1.5-4l2-3.1l23.3-0.7L772.8,392.3z M786.4,382.8l5,0.6l14.9,4l-7.5,31.3l-10.2-2.5l-8.1-3.6l0.5-1.3l-2.2-5.5l1.8-9.3
		L786.4,382.8z M882.8,433.5l1.5-0.6l20.7,12.3l2.7,2.7l1.2,3.5l1.5,4l2.1-0.4l0.6-3.8l1.5-4.9l9.6-40.6l-1.8-0.5l-8.4,36l-1.6,2.2
		l-5.5,0.9l-21.3-12.7l-1.5-2.5l4-18c0.2-5.5,4.9-5.5,4.9-5.5l13.1,2.7l5.1-16.2l4-1.3l31.1,6.7l-0.2,1.2l-1,3l-1.3,3.7
		c-4.5,10.5,1.8,15,1.8,15c3.7,5.9,13.9,8.6,13.9,8.6l1-1.8l-2.2-0.3l-5.2-2.2l-4.2-2.8c-10.5-8.3-2.2-15.8-2.2-15.8l8.9-3.4
		l10.2,1.3c0,0,2.7,1.8,2.8,3c0.2,0.9,0.7,1.8,1.3,2.5l-1.2,11l-1,2.2l-3.4,1.9c-9.2,7.9-1.3,14.5-1.3,14.5s2.4,2.2,2.4,2.7
		c0.2,0.6,0.4,1.1,0.7,1.6l-0.6,3l-1.4,2.3c-8.2,8.7-19.1-0.3-19.1-0.3c-8.2-4.9-5.2-16.3-5.2-16.3l-1.5-0.4
		c-3.7,3.3-1.5,10.7-1.5,10.7l-0.1,1c2.3,4.5,6,8.1,10.7,10.1c12.7,4.9,18.7-3.2,18.7-3.2l2.2-0.5l-1.2,10.5l-8.2,30l-3.6,1.8
		l-40.2-9.3l-38-9.7l-2.2-3.6l-0.2,0L882.8,433.5z M985.1,398.9c13.4,1.1,16.8,8.8,16.8,8.8v10.1l-1.2,5l-3.1,3l-8.4,8l-1.2,1.4l0,0
		l-3-0.6c0.3-11.7-9.1-18.2-9.1-18.2l2.4-12.9l3.8-2.9L985.1,398.9z M1002.6,458.5c0,0-16.9,0-13.3-18.2l27.7,7.4
		C1017,447.7,1014.8,458.4,1002.6,458.5z M991.1,459.3l2.4,2.4l-0.4,4.3l-1.9,3.4l0.5,1.8l4.7,1.9l4,0.2l-0.3-5.2l1.6-3.3l4.6-1.9
		l-0.3-2.2c12.7-3.6,12.3-12.6,12.3-12.6l16.9,4.4l1.5,2.5l-7.2,21.4l-0.7-0.2l-13.3,34.9l-14.4-5.9l-36.4-11.1l8-32.4l-0.4-0.1
		l2.4-11.3c0,0,1-0.5,1.6-0.7s2.4,0.6,2.4,0.6l-0.2,1.8c0,0-1.5,2.2-1.8,2.7s0.4,1.6,0.4,1.6l3.8-1.3l1-1c0.1-0.5,0.1-1,0.1-1.5l0,0
		l3.7-1.9l1.8,0.6l0.7,3.1l0.2,3.7L991.1,459.3z M1049,448.9c-1.1,0.3-3.6-3.4-3.6-3.4l2.4-7.4l4.3-6.2l5.6-6.7l5.3,16.9l0.2,3.1
		l-1.2,3.4c0,0-3.1,0.7-3.6,0.7c-0.3,0-5.6,0.4-9.4,0.6C1049.3,449.2,1049.3,448.8,1049,448.9z M1047.1,454.6c0,0,0.1-0.1,0.2-0.4
		l14-0.8l3.2-0.2l1.5,2.3l-0.7,5l-2.2,3.4c-0.3,0.4-5.2,3.4-5.2,3.4l-3.3,1.5l-4-0.3l-3.8-0.6l-5.8-1.5l-1.2-1.7l0.7-3.5l3.3-0.7
		l1-5.2L1047.1,454.6z M1085.2,465.6c1-0.4,1-5.3,1-5.3l-0.4-7.1c2,0.1,5.7,0.4,6,0.5c0.4,0.2,5,1.2,5,1.2l6.4,3.7l5.4,5.3l-2.3,2.2
		l-5.2,4l-4.6,6.4l-5.3,7l-3,2.2l-3.3-0.3l-2.4-0.9l-1.2-3.5l-0.2-6.4l0.9-4C1082,470.6,1084.1,466,1085.2,465.6z M1083.7,453.1
		l0.5,6.9l-0.6,5l-3.3,5.8l-1,5.9v5.8l1,3c0,0,1.3,1.9,2.5,1.9s3.8,0.3,3.8,0.3l3-0.4c0.8-1,1.7-1.9,2.7-2.7c1.2-0.7,5-5.9,5.3-6.5
		c0.3-0.6,3.8-5.8,4.4-6.1c0.6-0.3,4.6-3.6,4.6-3.6l3.1-3.2l2.9,2.3l3.7,4l5.9,3.9l8.3,3.3l3-0.1c0,0,3.4,0.9,3.8,0.9
		s1.5,1.6,1.5,1.6l24.1,10.6c-0.2,0.6-0.4,1.1-0.4,1.1l-0.3,4.1c0,0,0.7,5,0.7,5.5c0,0,0,0,0,0.1l-10.5,23.6l-12.5,30.5l-117.1-42.3
		l13.8-35.1l-3.7-1.3l0.2-0.7l2.8-8l3-0.1l0-0.2l5.6,0.8l7,1.5l3.3,3l3,9.8l-1,5.9l0.2,3.1c0,0,0.4,2.2,1.2,2.1
		c0.8-0.2,29.2,10.5,29.2,10.5l0.6-1.6l-28.4-10.8l-0.2-3.4l1.3-4.3c0,0,1.2-1.8,0.2-2.8c-1-1-3.3-8.7-3.3-8.7s-1-3.4-0.4-3.6
		c0.6-0.2,4.2-3.5,4.6-3.5c1.3-0.4,2.5-1,3.6-1.9c0.8-1.4,1.5-2.8,2.1-4.3l2.4-7.4l0,0l5.1-0.1L1083.7,453.1z M1009.9,517.4l-0.2,4
		l-1.6,2.2l-4.2,0.2l0-4c0,0,1.3-2.5,2-2.7C1007.2,517.1,1008.6,517.2,1009.9,517.4z M1003.4,513l-8.9,27.3l-3.8-1.5l8.4-26.7
		L1003.4,513z M976.7,421.8c0.6,0.3,1.1,0.7,1.6,1.2c0,0,3.1,6.8,3.1,7.6c0.1,1,0.3,2.1,0.6,3.1v4.1l4.5,1.3l0,0.5L986,443l0.3,3.3
		l-1.1,1.7l-4.4,1.4l-1.1-0.8c-1.1-0.6-2.2-1.2-3.4-1.6c-0.5,0-2.5,0.4-2.5,0.4l-3-1.2l0.3-3.6l1.3-2.1c10.5-8.6-0.6-16.6-0.6-16.6
		l1.9-2.4C974.7,421.7,975.7,421.7,976.7,421.8z M972.6,432.7c-0.2,2.3-2.2,4.1-4.5,3.9c-2.3-0.2-4.1-2.2-3.9-4.5
		c0.2-2.2,2-3.9,4.2-3.9C970.7,428.2,972.6,430.2,972.6,432.7z M1026,617.2l-4.6-1.2l-3.1-7.4l9.2,2.7L1026,617.2z M1022,624.8
		L1022,624.8L1022,624.8L1022,624.8z M1061.2,623l-2.3,7.1l-12.5-4.6l2.6-7L1061.2,623z M1044.1,624.7l-11-4.1l2.4-6.9l10.6,3.9
		L1044.1,624.7z M1072.8,635.3l-11.3-4.2l2.3-7.1l11.1,4L1072.8,635.3z M1079.3,636.3l2.2-5.3l4.9,2.4L1079.3,636.3z M1115.5,618.2
		l-6.8,11.3l-4.1,5.2l-7.1-1.5l2.1-4l-5.2-1.9l-36.4-12l-1.3,3l-47.3-16.8l12,22.5l0.7,0.8c-8.2-2.6-18.2-21.3-20.3-25.5l0.2,0.1
		c0,0-10.5-18-7.8-36.7l2-5.8l15.3,4.2l-16.2,2.7c0,0-0.4,32.2,25.8,38.2c0,0,28.9,8.7,42.7-21.8l59.5,20.4L1115.5,618.2z
		 M1027.9,570.7l24.4,7.3c-3.3,7.1-13.3,5.1-13.3,5.1C1025.9,580.7,1027.9,570.7,1027.9,570.7z M1130.9,581.6l-4.6,2.7l0,0.1
		l-8.4,0.8l-12.4-5.3l-4.7-6.5l-33.8-12.2l-1.6,4.5l-54.2-19.8l-4.9,1.5l-5.8-4.9l5.3-10.5l8.4-8.4l4.9-2.8l107.5,38.1l-0.6,1.8
		l-3.1,3.3l0.8,2.2l7.1-5.8l6.8,2.4L1130.9,581.6z M1133.3,668.8l-9.6,1.9l-6.8,0.5l-6.5,0.3l-9-0.1h-8.4l-7.6-0.3l-6.8-2.4l-5-1.5
		l-0.1-2.7h2.5l15.4,3.6c0,0,4.9-0.2,6.2-0.2s5.6-0.5,6.4-0.6l5.8-1.2l5.8-1.9c0.9-0.3,4.7-2.4,4.7-2.4l3.7,0.6c0,0,4.3,1.6,4.9,1.8
		s3.1,1.3,4.3,0.9s4.3-1.9,5.2-2.2c0.7-0.2,1.5-0.2,2.2-0.2l3.3-1.3l0.4,3.8L1133.3,668.8z M1231.8,564.1l-13,29.9l1.5,1.2
		c0,0-6.2,14.2-6.7,14.7s-1.2,4-1.2,4l-4.7,3l-7.3,5.2l-0.6-0.3l-6.4,2.5l-5.3-1.6l-7.7-9.2l-1.5-4l7.3-5.2l4-1.6l2.1,2.4
		c0,0,2.2,2.4,2.7,2.7c1.1,0.2,2.2,0.3,3.3,0.3l4.3-2.5l-2.7-1l-1.3-2.5l0.3-3.1l3-1.8l3-1.9l1-4.3l-5-7.9h-4.1l-11.1-11.7l-11,0.4
		l-6.4,11.8l9,11.1l1.9-0.9c1.1-0.3,2.3-0.6,3.4-0.7c0.6,0,1.3,1,1.3,1l2.8,3.8l0.3,2.8l-8.4,5.6l-1.9,0.7l-4.2-4l-21-39.6l-2.7,0.6
		l-0.3,4.2l7,15.6l1.3,4.3c0,0,0.3,1.8-0.4,2.5l-1.2,1.2l-10.8-0.2l-0.2,3.7l8.3,0.2l2.7,0.5l3.3,1.8l4.3,3.9l15.3,24l0.1,3.7
		l-2.7,4.6l-15.1,5.3l-5.3-0.4l-3.8-2l-2.2-2.2l-3.7-3.3l0.3-0.1l-2.7-6.4l-0.7-10.5l0.7-29.3l2.8-17.6l14.9-34.8l9,7.1l5.1,4
		l7.3,7.1l10.2-1.3l20.4-2.7l2.9,2.7l7.1,10.7l4.4-8.9l-2.2-2.9l12.2-11.8l5.6-2.9l3.3,1.8l-11.6,29.5L1231.8,564.1z M1248.8,527.3
		l-0.1-0.1L1248.8,527.3L1248.8,527.3z M1245.3,531.6l2.3-1.1l-0.9,2.2L1245.3,531.6z M1183,501.6c0.1-0.4,5.5-1,5.5-1l4.1,1.2
		l6.1,1h9.3l6.1,0.3l6.9,2l8.3,3.7l5.8,2.5l6.1,1.9l5.6,3.7c0,0,2.4,2.8,2.4,3.4s-0.2,3.4-0.2,3.4l-1.6,3l0.5,0.2l-4.4,3l-4,1.8
		l-4.9,3.5l-6.9,6.5l-6.2,2.7l-4.2-4.9l-5.6-11.3l-3.6-2.2l-15.3,2.4l0.4-3.3l-2.2-5.8l-4.7-4.7l-5.4-5.3c-0.5-0.8-1.1-3.1-1.1-3.1
		S1182.9,502,1183,501.6z M1173.9,508.5l4.4,2.8c0,0,0.1,0,0.2-0.1l2.4,4.6v3.8c0,0-4.4,12-5.1,12.4c-0.7,0.8-1.3,1.7-1.8,2.7
		l-5.8-1.1l-6.7-3.9l3.9-9.2l5.7-13.1C1172.1,507.9,1173.9,508.5,1173.9,508.5z M1163.7,387.4l7.7,2.8l10.1,5l8.8,3.7l4.4-0.3
		c1.2-0.4,2.4-0.7,3.6-1c0.6,0,2.8-1.3,3.3-1.5c0.4-0.2,3-3.5,3.7-3.5s3.3-2.5,3.3-2.5l3,1.5l0.2-0.4l-10.8,25l-41.8-20.5l-3.6-2.5
		C1155.4,393.2,1151.7,385.9,1163.7,387.4z M1109,355.4c0,0,2.2-2.1,3.1-2.2c0.9-0.2,5-1.8,5-1.8c2-0.5,4-0.9,6.1-1.2
		c1.5,0,8.2,1,8.9,1s4,2.5,4,2.5l-1,4.3l-2.2,4.5l-2.5,3.1l-3.4,1.2l-4.6,0.5l-3.4-0.6l-10.4-3.9l-0.6-3.3L1109,355.4z M1105,371.4
		l2.8-6.5l3.4,0.3l5,1.9l5,1.9l-0.6,2.2l-1.8,2.4l-3.3,5.8l-2.9,2.5l-3.8-0.6l-4.3-2.8L1105,371.4z M1081.7,376.3l23.7,8.3
		c0,0,15.9,6.7,16.8,6.7s5.3,2.5,5.3,2.5l4,1.2l7-0.3l13.3,1.6l4.3,3.1l42.7,21.4l-6.7,15.6l-17.8,41.2l-4.4,9.9l-0.5,0
		c0,0-4,0.3-4.4,0.3c-0.1,0-0.3,0.3-0.5,0.7l-25.1-10.7l-12.4-5.3l-9.5-6.7l-10.2-9.5c0,0-8.7-4.8-9.2-5s-6.7-1.5-6.7-1.5l-9.3-1.2
		c0,0-8.3,0.2-8.7,0.3c-1.5,0-3,0-4.4-0.1l-1.3-3l2.5-3.7l18.6-17.9c0,0,18.2,3.5,18.7,3.7c0.6,0.4,1.2,0.8,1.8,1.3l1.2,4l3.8,1
		l-0.3-7.1l-26.4-5.2l-1.6,0.9l-15.7,16.6l-2.1,1.2h-2.1l-6.1-17.9l5.5-11.6l-1.6-1.1l12.5-31.6l2.4-1.8L1081.7,376.3z
		 M1075.1,327.4c5.6,0.1,10.1,4.6,10.1,10.2c0,5.7-4.7,10.3-10.4,10.2h0c-5.6-0.1-10.2-4.7-10.1-10.4
		C1064.8,331.8,1069.4,327.3,1075.1,327.4z M1066.9,347.7l8.1,3l1.3,1.8c0,0,1.6,2.7,1.8,3.1c0.2,0.4-1,3.3-1,3.3l-2.7,5.9l-1.2,3.6
		l-15.4-5l-30.2-9.4l1.4-6.2l2.8-6.1l0.6-2.8l2.8-0.4l5.2,2.2l6.1,1l3.6,1.3l5.2,1.2l4.6,1.6l4.3,0.9L1066.9,347.7z M1053.3,327.7
		c1,0,3,0.6,3.7,0.6s3.7,0.7,4.3,0.7s1.5,0.9,1.5,0.9l-0.2,3.3l0.2,5.3l0.9,4.7l-0.6,0.8c-1-0.1-2.1-0.1-3.1,0c-0.9,0.1-4-1.3-4-1.3
		l-1.6-1.5l-0.7-2.2l0.2-3.6c-0.8-1.2-1.7-2.4-2.7-3.5c-0.8-0.9-1.6-1.9-2.2-3C1050.3,328.3,1051.8,327.9,1053.3,327.7z M1037,330.8
		l3.6-0.1c1.1-0.2,2.2-0.6,3.3-1.2c0.9-0.7,3,0,3,0l3.6,6.1l1.3,2.2l-1,3.2c0,0-4-1.5-4.6-1.8l-3.6-1.8c0,0-4.2-0.2-4.7-0.3
		c-1.1-0.2-2.2-0.6-3.3-1c-0.6-0.5-1.2-1.1-1.6-1.8l1-2.1L1037,330.8z M1025.2,329.5c0.5-0.3,1.6-2.4,2.1-2.7
		c0.7-0.8,1.4-1.7,1.9-2.7l0.2-2.7c0.5-0.4,1.1-0.7,1.6-1c0.9-0.2,1.9-0.2,2.8,0c0.8,0.4,1.4,1.1,1.6,1.9c0.3,0.9-1,3.7-1,3.7
		l-2,2.8c-0.2,0.8-0.4,1.5-0.7,2.2c-0.7,0.5-1.4,0.9-2.2,1.2h-2.2l-1-0.3C1026.2,332,1024.7,329.8,1025.2,329.5z M1004.7,334.8
		l8.9-1.3l7-0.6l0,0c0,0,5.3,2.1,5.8,2.1s2.2,2.1,2.2,2.1l-0.6,5l-2.2,5.9l-1.3,5l-5.4-1.7l0.2-2.8l-14.8-4.2l0.2-2.5l-1.9-0.7
		L1004.7,334.8z M997,364.1l1.9-7.7c0,0,0.4-4.7,7.4-3.3l51.1,15.3l10.5,4.1l0.6,2.1l-1.3,3.7l-0.6,1l-1-0.1l-12.2,31.8l3.6,1.3
		l-3.8,10l-3.9,4.1l-0.1,0.1l-1.5-2.8l-2.2-2.1c-1.1-0.5-2.2-0.9-3.4-1.2h-4.8l-3.7,1l-4,1.8l-3.8-0.1l-1.2-2.7l-2.1-4l-1.6-4.5
		c0.2-0.4,0.5-0.7,0.9-1c1.2-0.4,2.3-0.7,3.5-0.9l4.4,0.9l1.3-0.6l-0.2-2.8l-0.9-5.9l-2.8-4.3l-4.6,0.9l-4.3,0.7
		c0,0-4.7,0.6-5.2,0.7c-0.4,0.1-2.8,1-2.1,1.8c0.7,0.8,2.5,2.4,2.5,2.4l3.1,3.9l2.1,2.5l1.5,3.7l4.3,9.9l1.8,1.5c0,0,2.2,1.3,3,1
		c0.8-0.3,5.6-2.8,5.6-2.8l3.7-0.7c0.7-0.2,4.6,0,4.6,0l3.8,6.3l-0.8,0.9l-2.7,4.5l-1.8,4l-1.9,8l-1.5,1.5l-6.1-0.7l0.5-3.3l0.6-3.4
		l-2.7-0.7l-1.2,3l-0.3,3.4l-40.7-10.5l2.2-0.1c2.1-4.7,8.3-8.4,8.3-8.4c7.3-3.3,12.2,0.7,12.2,0.7c7.6,4.9,4.4,14.1,4.4,14.1
		l2.8,0.6c3.4-7.6-5.2-15.9-5.2-15.9l-1.3-2.2c0,0-2.8-2.8-3.3-3.4c-1.2-1.1-2.5-2.1-3.8-3.1l-0.2-10.2c-2.1-8.1-13.9-10-17.8-10.4
		l0.6-7.1l3.8-0.4l6.5-25.1l-3.7-1L997,364.1z M1019.4,408.6l-3-4.1l-2.5-2.1l2.4-1c0,0,7-0.3,7.4-0.3c0.4,0,4.6,0.6,4.6,0.6
		l0.9,3.1v4.4l-3.4-0.4l-3.8,0.3L1019.4,408.6z M933,336.9l10.8,2.1l8.2,2.4l5-0.6l27.7,6.5l5.6,1.3l3.4,1.9l-2.7,12.2l-3.3-0.9
		l-3.3,17.7l-34.5-7.3l-1.5,6.5l0.4,2.8c0,0-0.9,4.1-1,5.2s1.5,1.8,1.5,1.8l0.6,2.8l-0.3,1.4l-42-9.8l11.5-47.9l0.8-1.2L933,336.9z
		 M873,308.9l2.8-4.3c0,0,2.7-4,3.3-4s3-1.6,3.4-1.8c0.4-0.1,3.4,1,3.4,1l2.4,3.3L897,316l2.1,5.3l-1.9,1.7l-4.5-0.2l-19-4.6
		l-3.4-1.5L873,308.9z M859.3,322.2l4.2-1.6l9,1.6l39.8,9.8l0.3,2l-10.6,40.2l-2.7,4.2l-3.1,1.1l-51.5-11.8l0.4-1.7l0.2,0l11.1-42.1
		L859.3,322.2z M806.8,350.5l2-3.1l7.8,0.5l2.7-9.3l23.3,6l5.7-24.1l2.4,3.5l-9.5,39.1l-6.5,2.9l-14-3.1l-9.4-3.1l-4.8-6.3
		L806.8,350.5z M730.1,370.1l4.2,3.6l-1.1,6.2l10.9,2.2l12.2-39.1l2.5-4.4h3.5l15.6,4.2l7.5,1.1l6.9,1.1l3.8,2.9l4,13.4l-1.1,0.2
		l-2.7,2.5l-9.1,3.8l-4.9,3.8l-8,11.5l-4.4,1.4l-8.7,0.5l-11.8,0.9l-6,0.7l-7.1,2.9l-5.8,3.1h-9.3l-3.8-1.1l-10.4-7.1l-12.2-8
		l-2.5-4.4l0.2-10L730.1,370.1z M676.6,387.5l14.4-8.9l2.2,0.1l4.9,2.5l11,8.3c0.4,0.9,0.6,1.8,0.7,2.7c-0.6,1-1.2,1.9-1.9,2.8
		h-27.1l-5-1.5l-1.6-3L676.6,387.5z M541,435l6,2l-2.4,3.6l-8.2,3.8l-10.2,0.9l-3.5-0.1l0.5-4.7c5.4,0,10.1-3.7,11.5-8.8l1.6,1.6
		L541,435z M528.5,426.5l1.3,0.7l2.9,2.7c-0.6,2.4-1.9,4.5-3.8,6.1c-3.9,2.8-6.5,0-6.5,0v-6.3C523.8,427.6,526.1,426.5,528.5,426.5z
		 M489.7,422.8c1.5-3.3,15.3-2.8,15.3-2.8l6.8,0.9l0-0.3l11.8,3.5l1,0.5c-1,1.6-4,2-4,2l-20.7-0.3
		C488.4,426.4,489.7,422.8,489.7,422.8z M352.1,456.3c0,0,15.6,1.1,16.5,0.9s7.3,0.9,7.3,0.9l8.2,5.1l7.6,8.7l5.5,5.5l2.7-1.8
		c0,0-3.1-2.5-2.5-2.9s1.8-3.8,1.8-3.8l-5.5,1.1l-7.8-6.7l-6.5-5.3l-0.7-4.7v-1.1l8.3-3.9c0,0,8.9-6.7,19-1.9l6.7,4.7
		c0,0,5.5,5.6,18.2,1.9l11.3-5.3l18.5-8l9.6-5.8l15-8.7c2.5,3.2,11.7,3.4,11.7,3.4l0.1,15.6l-0.1,0l-0.4,9.8l6.2,1.1l3.5,3.1v4.7
		l2.9-0.2l-0.2-10.7l11.8-1.3l0.2,14.4h1.6l2.4-14l6-2.4l6.2-1.1l5.3-0.9c0,0,3.1-2.2,4-2.2s12.9-0.9,12.9-0.9l10.5,0.2l16.4-0.2
		l10-1.6l10-3.3l6.5-4.2l6-5.1l19.5-13.1l14.2-13.1c0,0,8.4-9.8,21.1-6.4l11.5,2.3c0,0,14.5,0.9,15.3,0.7c0.9-0.2,12-1.3,12-1.3
		l11.3-0.9l13.8-2.9c3.3-0.4,6.3,1.5,7.3,4.7l4.2,8.7l3.8,2.4l5.3,0.7l9.2,1l-0.1,0.3l-3.8,18.9l2.2,0.7l-4,15.8
		c0,0-1.8,4.5-2.7,4.9c-0.9,0.4-7.3,1.1-7.3,1.1l-8.2-1.1l-8.7-0.7l-8.7,2.7l-5.1,4l-6,8.2l-2.4,6l-23.6,0.2l0.5,4.9l21.3-0.7
		l-0.2,10.2l5.3,6.9l10.7,7.1l10.2,4.2l0,0l0,0c0,0,7.1,3.1,7.8,2.9s5.3,2.2,5.3,2.2l3.6-2.7l6.2-1.5l6.2,0.2l5.1,2l6,3.8l2.9,4.7
		l3.6,5.3l3.8,2.7l6,2.2V525l-5.5-1.3l-3.8-3.6l-2.2-4.4l-3.6-4.9l-6.9-4.2l-5.5-1.6l2.2-5.1l2.9-9.1l1.1-6.5v-8.9l1.6-5.5l4.2-2.5
		l2.9-0.2c0,0,3.3-3.8,4.2-4.2s5.6-5.6,5.6-5.6l5.8-4.2l3.1-0.4l3.1,1.3l4.7,6.9l3.8,5.1l2.4,2.2l3.3,1.1l-0.2,3.4l44.1,11.1
		l-3.5,15.2l-3.8-0.4l-2.2-1.6l-2.7,0.9l-2,9.1l-10.7-2.4l-11.6,45.1l51.1,12.4l5.3-21.3l18,4.7l-1.6,7.3l6,1.5l-8,29.1l-1.1-2
		l0.9-10l-3.3-0.9l-3.3,12.2l13.3,4.7l-1.3,2.9l-7.3-2L871.4,671l10.7,1.1l22.9,0.5l6.8,5.5l-2.1,0l-70.5-1.5
		c-14-1.3-27.9-4.1-41.3-8.5l-29.3-11.8c-21.2-5.8-42.7-10.1-64.5-12.9c-28.9-4.3-58.2-5.5-87.3-3.5l-48,4l-27.6,0.2l-16.7-3.8
		l-17.1,0.2l-15.8-6c-2.7,0-2.7-3.3-2.7-3.3l4-8l-2.7-1.1l-7.5,9.6l-26.5,0.7l-7.1,0l-3.5-6.5l-4.2-3.3l-12-2.7l-16-2.2l-12.7-1.8
		l-8.2-0.5l-10,3.6l-11.6,2.4l-11.6-1.5l-11.8-2.9l-14.7-4.9l-11.8-4.9l-9.8-9.1l-5.1-9.8l-3.1,0.7l3.1,7.1l8,10c0,0,8.5,6,9.1,6
		s12.7,4.2,12.7,4.2l27.8,8.2l15.8,0.7c0,0,7.8-3.8,8.4-3.8c0.7,0,4.9-2.9,4.9-2.9h7.3c0.7,0,9.1,1.1,9.1,1.1l15.1,3.1l13.1,1.8
		l5.3,1.5l2,5.8l0.6,0.5l-83.5,0.4c-27.5-1.3-57.1-5.3-57.1-5.3c-22.2-3.1-26.4-6-26.4-6c-7.8-5.5-10.5-11.1-10.5-11.1l-12.4-7.8
		l-0.7-12.2l2-2.7l-0.2-2.9l-6.1,1.2l0,0h-6.2l-10.4-2.4l-9-3.5l-8.7-6.5l-6.7-6.1c0,0-14.2-16.1-6.1-44.4l-0.1-0.1l7.8-10.4
		l16.7-12.5l12-6.4l10.2-4l11.3-2.6h7.8l8.5,0.2c0.8,0.3,1.6,0.5,2.4,0.7c0.7,0,24.7-3.8,24.7-3.8l2.7-0.7l4.9-4l7.6-7.3l6-4.9
		l1.5-2.2l9.1-3.3c0,0,6-2.2,8.2-3.1C347,457.7,352.1,456.3,352.1,456.3z M196.8,493.2l21.1-16l8.9-8.4l3.1-4.2c0,0,2.7-2.9,3.8-2.9
		c2.1-0.4,4.2-0.9,6.2-1.6l11.5-2.7l10.5-1.5c0,0,20.9-0.7,21.8-0.9c0.9-0.2,13.1-0.4,13.8-0.4c0.7,0,11.3-1.6,11.3-1.6l10-2.7
		l8.4-2c0,0,5.8,0.2,6.9,0.2c1.4,0.2,2.9,0.6,4.2,1.1l4.9,1.3l-1.5,1.1l-4.7,3.1l-5.6,3.8l-8,5.3l-8.9,10.7l-7.3,6.2l-8.2,1.3
		l-17.3,2.7l-11.3-1.1c0,0-28.4-0.4-50,18.5l-11.5,9.1l-7.3,9.4l0.6,1l-1.5-1.1l-8.9-5.3l-5.5-3.9l-4-2.3l2-6.6L196.8,493.2z
		 M165.7,535.4l0.2-1.2c0.8,1.3,1.8,3.1,2.1,3.1c0.5,0,6.4,3.3,6.4,3.3l2.5,0.7l-1.5,3l-6.2,0.9l-4.1,0.5l-0.6-0.8l0.2-1
		L165.7,535.4z M157.7,552.8l5.5,2l-0.1,0.2c5.6,12.2,21.8,24.4,21.8,24.4c12.2,10.2,54.9,29.8,54.9,29.8c0.9,9.1-8.5,4.5-8.5,4.5
		l-4.2,9.5l-15.3-2l-29.8-9.7l0.4-2.7l0.9-7h-1.5l-1.5,4.1l-9.8-4.1l-5-3l-6.1-3.4l-1.9-3.9l-0.4-5.6l-2.1-7.1l-4-6.5l-2.4-2.5
		l-0.4-6.1l0.7-6.4l3.1-3c0.5-0.1,0.9-0.1,1.3-0.2L157.7,552.8z"/>
	<path class="st1" d="M674.3,685c-1.5,0-6.7-2-6.7-2l-7.6-11.4c0,0-13.3,0.5-14,0.5s8.2,16.5,8.2,16.5l5.8,7.1l12.5,4.7l7.5-2.7
		l52.9-1.8l25.6-2L745,672.8l-59.6-0.7l10.9,12.5l-2.9,0.2C693.4,684.8,675.9,685,674.3,685z"/>
	<path class="st1" d="M305.4,391.4l42.9-26.6l-1.8-2.5l28.7-14.2l30-12.9l38.9-14.9l31.1-10.9l46-13.1l53.6-15.3l54.7-11.8l30.2-3.5
		c4.7-0.5,8.9,3.1,8.9,3.1l14.2,29.8l1.1,4l-0.7,5.1l-3.8,1.8l1.3,4.2l4.2,0.2l1.8,2.9l2,4l1.3,8.2l-0.7,13.1h4.2c0,0,0-6.2,0.4-7.5
		c0.5-1.3,0-4.5,0-5.1c0-0.7-1.1-7.8-1.1-7.8l-2.7-10.9c-2.7-7.1,0.9-9.8,0.9-9.8l6.9,0.2l14.5,0.7l0.7-3.6H691l-4-0.4l-11.3-24
		c-3.8-7.3,1.3-9.8,1.3-9.8l20.7-3.3l50.2-2.7l4-4.2l-36.5,1.8l-18.7,1.1l-21.6,2l-31.1,4l-26.4,4.9l-43.8,9.8l-45.1,11.8L487,301.4
		l-37.3,11.8L408.8,329c-22.7,8.7-54.9,23.8-54.9,23.8L329,366.5l-36,21.8l-20.4,14l15.8-0.2L305.4,391.4z"/>
	<path class="st1" d="M1516.5,663.2C1516.5,663.2,1516.6,663.2,1516.5,663.2C1516.5,663.2,1516.5,663.2,1516.5,663.2z"/>
	<polygon class="st1" points="1697.9,631.5 1697.2,615.8 1682.9,618.1 1686.5,633.2 	"/>
</g>
</svg>
