<?xml version="1.0" encoding="utf-8"?>
<!-- Generator: Adobe Illustrator 24.0.1, SVG Export Plug-In . SVG Version: 6.00 Build 0)  -->
<svg version="1.1" id="Inactive_Configs" xmlns="http://www.w3.org/2000/svg" xmlns:xlink="http://www.w3.org/1999/xlink" x="0px"
	 y="0px" viewBox="0 0 1920 1080" style="enable-background:new 0 0 1920 1080;" xml:space="preserve">
<style type="text/css">
	.st0{fill:#A7A9AC;}
</style>
<title>inactive</title>
<path class="st0" d="M1812.2,903.8c-0.1-6.6-2.9-257.3-4.6-346.8l0-0.2c-0.1-7.5-0.4-23.1-11.7-33.3c-8.3-7.5-20.8-10.7-37.1-9.4
	c-2.9,0-33.6,0.1-80.7,0.2c-0.8,0-1.3-0.1-1.5-0.1c-0.4,0-0.8,0-1.1,0.1c-146.9,0.4-447.3,1.1-567.3,0.9c-23.2,0-58.7-0.1-93-0.3
	c-33.3-0.1-67.6-0.3-90.2-0.3c-15.3,0-35.6-5.2-46.8-19.7c-10-12.9-11.9-31.4-5.8-55.1c5.9-22.6,18.5-54.1,31.8-87.4
	c16.4-40.9,33.4-83.1,38.9-112.3c3.3-17.5,3.6-26.4-1.3-41.5c-3.8-11.7-13.9-34.5-21.2-46.5c-7.7-12.5-16.4-19.3-25.9-20.2
	c-8.7-0.8-17.3,3.4-25.7,12.5c-9.4,10.3-25.5,29.4-37.2,43.4c-3.4,4-6.5,7.7-9,10.7c-7.3,8.7-16.3,16.6-45.7,17.7
	c-10.1,0.4-25.6,0.1-40.7-0.3c-14.8-0.3-28.8-0.6-38.6-0.3c-14.2,0.4-23.5,0.7-48.8-30.3l-1-1.2c-12.3-15.1-32.9-40.4-52.1-54.8
	c-14.2-10.6-43.5-28.7-59.3-38.4l-1.4-0.9c-9.7-6-20.4-11.7-44.3-15.6c-7.8-1.3-26.1-4.2-34.7-6.3c-22.3-5.2-47.1-7.7-83.1,23.5
	c-5.2,4.6-11.4,9.9-18.2,15.8c-31.9,27.6-75.6,65.4-98.6,87.9c-17.8,17.4-33.2,37.4-25.6,89.9c0.2,1.3,21.1,134,27.6,178
	c1.7,11.3,4,26.9-7.4,46.1c-7,11.9-12.6,27.9-0.9,57.2c1.7,4.4,3.5,8.9,4,13.9l-0.3,6.5c-1.5,8.4-7.8,18.1-24.3,30
	c-11.4,8.2-18.1,16.1-8.8,49.6c1.6,5.8,1.5,7.9-11.4,27.5c-7.1,10.7-21.1,31.6-28.5,41.7l-0.9,1.2c-4.5,6-9.1,12.2-12.6,28.9
	c-0.7,3.4-1.5,8.1-2.4,13.1c-1.1,6.4-2.3,13.1-3.3,17.2c-2.3,10.1-6.2,20.6-18.7,29.2c-4.5,3.1-10.8,7.9-17.4,12.9
	c-7.3,5.5-14.8,11.2-19.9,14.6c-6.4,4.3-21.2,15.9-20.9,30.4c0.2,8.8,5.7,16.8,16.5,23.5c26.1,16.4,80.2,35.8,116,48.7
	c6.3,2.3,12.1,4.3,17,6.2c16.2,6,31.2,8.9,44.4,8.6h0c263-4.5,619.4-11.7,824-19.8l1.3-0.1c13.5-0.5,41.6-1.7,66.1,6.7
	c42.4,14.5,125.8,38.8,174,49.6c2.2,0.5,4.6,0.7,7.1,0.7c10.1,0,23-4.1,34.8-15.9l0.1-0.1c7.7-8.1,15-16.7,21.7-25.8
	c8.2-11.2,15.4-21,54.7-21c0.5,0,1,0,1.5,0c31.4,0.2,89.8-1.7,128.3-3l13.7-0.4c43-1.4,121-2,168.7-1.8c5.6,0,20.5,0.1,29.9-9.7
	C1810.2,924,1812.8,915.1,1812.2,903.8z M256.2,521.4c-0.3,6.9-0.5,13.9-0.4,20.8l-0.4,9.2C251.8,537.5,253.3,528.4,256.2,521.4z
	 M1591.7,932.2c-38.5,1.3-96.7,3.2-127.9,3c-42.5-0.2-53.5,10.2-64.4,25c-6.4,8.7-13.4,17-20.8,24.7c-11.9,11.9-25,14.1-32.7,12.4
	c-47.9-10.7-130.8-34.8-172.9-49.3c-18.5-6.3-38.5-7.6-53.7-7.6c-6.4,0-11.9,0.2-16,0.4l-1.2,0c-204.4,8.1-560.8,15.3-823.7,19.8h0
	c-12,0.2-25.8-2.5-40.8-8c-5-1.8-10.8-3.9-17.1-6.2c-35.4-12.7-88.8-31.9-114.1-47.8c-7.7-4.8-11.7-10-11.8-15.2
	c-0.2-9.9,12.6-19.3,16.5-22c5.2-3.5,12.9-9.3,20.3-14.9c6.5-5,12.7-9.6,17.1-12.7c15.3-10.6,20-23.7,22.7-35.1
	c1-4.4,2.2-11.2,3.4-17.8c0.9-4.9,1.7-9.6,2.4-12.8c3-14.6,6.6-19.4,10.8-24.9l0.9-1.3c7.6-10.3,21.7-31.3,28.9-42.2
	c12.9-19.6,15.6-25.3,12.7-35.7c-8.1-29.3-2.6-33.3,5-38.8c17.8-12.9,25.5-24.2,27.9-34.5c0.3-0.6,0.5-1.2,0.5-1.9l0-0.9
	c0.3-2.2,0.4-4.4,0.3-6.5l1.8-39.3l0-0.1c-0.2-19.1,1.2-38.4,4-57.4c0.1-0.8,0-1.6-0.2-2.3c0.4-8-0.6-14.9-1.4-20.5
	c-6.5-44.1-27.4-176.8-27.6-178c-6.9-47.9,6.2-65.1,22.7-81.3c22.8-22.3,66.4-60,98.2-87.5c6.8-5.9,13-11.2,18.2-15.8
	c32.4-28.1,53.6-26.1,74.3-21.3c8.9,2.1,26.8,5,35.3,6.4c22.2,3.6,31.5,8.6,40.7,14.2l1.4,0.9c15.6,9.7,44.8,27.7,58.6,38
	c18.2,13.6,38.4,38.3,50.4,53.1l1,1.2c27,33.2,39.2,34.6,56.9,34c9.5-0.3,24,0,38,0.3c15.2,0.3,30.9,0.7,41.2,0.3
	c30.2-1.1,42.7-9,53-21.3c2.5-3,5.6-6.7,9-10.8c11.6-13.9,27.6-33,36.9-43.1c6.2-6.7,12-9.9,17.4-9.3c6.1,0.6,12.4,5.9,18.3,15.5
	c6.9,11.1,16.6,33.3,20.2,44.3c4,12.6,4.2,19.4,1,36.6c-5.3,28.2-22.1,70-38.3,110.4c-13.5,33.6-26.2,65.3-32.2,88.6
	c-6.9,26.8-4.4,48.3,7.5,63.7c16.9,21.9,46.2,23.6,54.7,23.6c22.6,0,57,0.1,90.2,0.3c34.3,0.1,69.8,0.3,93,0.3
	c120.6,0.1,423.6-0.6,569.6-0.9c10.2,0.5,62.7,3.4,80.9,6.1c26,3.9,26.7,18.9,27.3,31l0,0.6c3.4,71.9,4.1,289,4.1,291.1
	c0,2.3-1.1,4.5-2.8,6l-0.2,0.2c-13.2,12.4-13.5,19.4-12.6,27.2c0.1,1,0.2,1.9,0.3,2.8c0.1,2.5-1,4.9-2.9,6.4
	c-8.7,6.2-10.9,8.5-12.5,13.8c-2.5,7.9-5.3,8.2-9.1,8.6c-3.5,0.4-9.3,1-14.3,1.5c-2.6,0.3-5,0.5-6.7,0.7
	c-28.5,2.9-129.4,11.1-130.4,11.2c-0.7,0.1-1.3,0.3-1.9,0.6L1591.7,932.2z M1797,923.3c-5.6,5.9-15,6.7-22.6,6.6
	c-12.3-0.1-26.6-0.1-41.8,0c1.3-0.1,2.7-0.3,4.3-0.4c5.1-0.5,10.9-1.1,14.4-1.5c6.3-0.7,13.4-2.5,17.6-15.5c0.8-2.4,1-3.2,8.9-8.8
	l0.2-0.2c4.5-3.5,7-9.1,6.8-14.8c-0.1-1.3-0.2-2.4-0.3-3.6c-0.6-4.9-1.1-8.7,9.4-18.6c3.9-3.4,6.2-8.3,6.2-13.5
	c0-2.2-0.7-219.5-4.1-291.6l0-0.6c-0.5-10.2-1.3-27.8-21.1-36.4c5.9,1,10.7,3.2,14.2,6.3c8.1,7.4,8.3,19.1,8.5,26.1l0,0.2
	c1.7,90.2,4.6,344.3,4.6,346.8l0,0.2C1802.7,912.8,1801,919.2,1797,923.3z"/>
</svg>
