<?xml version="1.0" encoding="UTF-8"?>
<svg id="EXAMPLE_-_Active" data-name="EXAMPLE - Active" xmlns="http://www.w3.org/2000/svg" viewBox="0 0 1920 1080">
  <path d="M1331.88281,518.44336c-19.45996.00049-38.85059-3.396-57.29492-10.12061l-14.96289-5.45654c-23.36719-8.52051-47.83301-12.79248-72.69727-12.7124l-59.44824.2041c-.5166.00195-1.03809.00244-1.55371.00244-29.58203.00049-59.27734-2.89795-88.29785-8.61865l-74.70703-14.72754c-25.76611-5.08008-49.18408-19.01465-65.93994-39.2373-16.75635-20.22266-26.0957-45.82324-26.29736-72.08496l-.87939-117.45361c-.16309-21.78516,8.19873-42.29834,23.5459-57.76074s35.79736-23.97803,57.5835-23.97803h290.4209c12.86133,0,25.0957,5.55176,33.56445,15.23193,16.56836,18.93799,28.14355,41.94629,33.47266,66.53809l34.03223,157.01855c3.9834,18.37598,16.88965,33.2417,34.52441,39.76611,17.63379,6.52441,37.10742,3.63721,52.08984-7.72021l14.95898-11.33838c13.02344-9.87207,20.93457-24.89648,21.7041-41.22119.77051-16.32422-5.69141-32.02686-17.72754-43.08154l-51.96875-47.73047c-20.14551-18.50195-28.48145-45.45508-22.29883-72.09912,6.18164-26.64453,25.53516-47.17334,51.76953-54.91406l1.52441-.44971h3.86035c37.8125,0,73.02441,18.67725,94.23047,49.97217l91.31152,126.50342c3.05859,4.23682,4.66113,9.42188,4.53223,14.6416l.5293,26.57812c.59668,29.94189-13.5625,58.25928-37.87402,75.74902-22.95215,16.51123-48.35449,28.88721-75.50098,36.78369l-.93359.22803-142.75195,28.29541c-10.75586,2.13232-21.65039,3.19238-32.52051,3.19238ZM1187.65723,468.15234c27.19727,0,53.94238,4.72412,79.50488,14.04492l14.96289,5.45654c24.96484,9.104,51.93945,11.18506,78.00098,6.01709l142.27441-28.20068c24.56445-7.20166,47.55664-18.43262,68.3418-33.38525,18.43945-13.26514,29.17773-34.74268,28.72559-57.45215l-.54102-27.19482.01367-.33398c.01855-.44629-.11523-.89111-.37598-1.25293l-91.60645-126.92139c-17.09961-25.31592-45.54688-40.43018-76.09766-40.43018h-.60938c-17.79004,5.7832-30.86328,20.01221-35.11426,38.33643-4.36719,18.81836,1.52051,37.85547,15.74902,50.92334l51.96875,47.73047c16.85352,15.47803,25.90039,37.46436,24.82227,60.32129s-12.15527,43.89404-30.38965,57.71729l-14.95898,11.33789c-21.00098,15.9209-48.2959,19.96533-73.01367,10.82129-24.71777-9.14502-42.80762-29.98193-48.39062-55.73926l-34.03223-157.01855c-4.54297-20.95996-14.4082-40.5708-28.53027-56.7124-4.29102-4.90479-10.49023-7.71777-17.00684-7.71777h-290.4209c-15.87842,0-30.7832,6.20654-41.96875,17.47607s-17.28027,26.22021-17.16162,42.09766l.87939,117.45166c.33594,43.6499,31.66504,81.46094,74.49414,89.9043l74.70605,14.72754c28.10254,5.54053,56.85352,8.30908,85.52051,8.20117l59.44824-.2041c.26855-.00098.53711-.00146.80566-.00146Z" style="fill: #fff;"/>
</svg>