<svg id="Inactive_Configs" data-name="Inactive Configs" xmlns="http://www.w3.org/2000/svg" viewBox="0 0 1920 1080"><defs><style>.cls-1{fill:#a7a9ac;}</style></defs><path class="cls-1" d="M1505.79,369.35c-19.59-16.13-78.92-49.88-151.23-86-43.47-21.74-82.85-40-114.35-53.08-10.38-4.72-21.93-9.15-34-13.25-7.76-2.75-14.57-4.92-20.32-6.45l-3.15-.94c-14.57-4.81-54-15.78-103-23.95-5.28-1-9.46-1.7-12.29-2.18a55,55,0,0,0-27.67-7.53H987.1c-9.14-.3-18.28-.39-27.36-.21h-.07c-.13,0-1.56.06-4.18.21h-58a55.72,55.72,0,0,0-33.94,11.71c-41.95,7.67-93.93,20.19-148.23,40.56l-.12,0c-148.41,60-259.42,124.08-330.88,190.84a97.53,97.53,0,0,0-8.83,7.39,5,5,0,0,0-1.32,2.38q-11.51,11.4-21.49,22.91c-35.1,40.5-57.06,78.69-69.12,120.21-12.32,42.39-15.29,91.33-9.36,154l0,.13c3.1,25.63,15.85,72.15,41.55,118.93,34.16,62.16,81.3,109.23,140.2,140l.55.28c10.38,5.19,34.67,17.35,88.68,28.06,64.36,12.77,149.11,19.23,252,19.23l12.55,0h461.32a790.65,790.65,0,0,0,118.53-17c37.7-8.39,71.53-19.07,100.56-31.75,36.54-16,65.58-35.18,86.32-57.11,1-1.08,2.15-2.25,3.38-3.53,24.57-25.54,89.85-93.39,101-254.57l0-.34C1680.92,640.41,1672.46,495.36,1505.79,369.35Zm-6.28,7.78.17.13a519.43,519.43,0,0,1,69.92,63.17c-24.27-16.88-61.67-39.58-113.36-62.13a887.29,887.29,0,0,0-114.06-40.43l.7-.52c7.58-6,11-16.91,10-32.54a26.77,26.77,0,0,0-5.09-13.64C1414.9,324.6,1479.2,360.37,1499.51,377.13Zm-359-75.53c-15.78-1.57-26.3-2.43-27.79-2.56a5,5,0,0,0-2,.27q-18.42-1.21-37.1-1.91c15.8-12,26.19-32.14,26.19-54.93a70.2,70.2,0,0,0-16.71-46c28.17,5.34,79.39,16.11,122.32,30.84,9.44,3.42,20.12,7.64,31.66,12.46,3.49,1.61,6.83,3.24,10,4.91l.14.06c5,2.48,11.62,5.31,19.23,8.6,28.22,12.16,75.46,32.52,76.59,52,.71,12.17-1.39,20.28-6.25,24.1-7.06,5.55-19.62,1.71-26.37-.36l-.41-.12c-21-6.4-49.94-11.86-79.25-16.31-3.83-.66-7.68-1.31-11.59-1.93a5,5,0,0,0-1.49,0c-5.29-.75-10.55-1.46-15.75-2.14Q1171.63,304.38,1140.46,301.6Zm-243-105.66h142.26c22.06,0,40,20.88,40,46.53s-17.94,46.53-40,46.53H897.48c-22.06,0-40-20.87-40-46.53S875.42,195.94,897.48,195.94Zm-178.6,41.61A857.09,857.09,0,0,1,851.2,200.18a70.74,70.74,0,0,0-13.72,42.29c0,24.37,11.88,45.7,29.55,57.29-63.14,3.18-122.33,8.9-176.88,17.13-70.84,10.68-134.1,25.59-188,44.31a600.58,600.58,0,0,0-64.32,26.26C506.77,335.5,600.84,285.3,718.88,237.55Zm90.89,785c-168.53.83-285.86-14.71-348.78-46.21l-.49-.24c-57-29.75-102.79-75.46-136-135.86-25-45.49-37.37-90.5-40.39-115.25-11.27-119.05,8.65-188.84,76.09-266.65a419.47,419.47,0,0,1,30.11-31.18c14.38-10.9,49.82-34,116.22-56.91,72.24-24.93,194.86-54,385.13-61.55a55.56,55.56,0,0,0,5.79.31h142.26a54.36,54.36,0,0,0,15.14-2.15c31.73.78,61.91,2.63,90.56,5.34,13.27,1.37,29.49,3.16,46.81,5.35,26.74,3.6,52,7.92,75.67,12.77,69.23,15.66,123.29,37.89,158.83,55.34,49.71,24.42,76.86,45.85,79.83,48.82,44.87,44,78.1,95,98.74,151.64,15.36,42.12,19.51,76.92,19.55,91C1612,836,1546.55,886.61,1511.41,913.79c-1.78,1.38-3.48,2.69-5.05,3.92-48.58,37-140.42,66.82-265.58,86.25-95,14.74-176.32,18.36-177.13,18.39a5.05,5.05,0,0,0-1.11.19Zm762.92-106.36c-1.25,1.31-2.4,2.5-3.44,3.6-45,47.61-123.61,73-181.63,85.93a781.39,781.39,0,0,1-116.88,16.83h-92.58c20-2.35,41.66-5.21,64.06-8.68,56.15-8.72,106-19.54,148.17-32.17,53-15.89,94.07-34.73,122.09-56.06l5-3.93c36.37-28.14,104.09-80.52,117.32-244l0-.4c0-14.62-4.25-51-20.16-94.63-21.15-58-55.18-110.3-101.1-155.33-2.82-2.83-23.57-19.49-62-40.18l.1,0c98.07,42.69,145.15,87.1,145.61,87.55a4.91,4.91,0,0,0,1.59,1c67.35,90.61,72,172.07,72,192.24C1660,825.46,1596.57,891.37,1572.69,916.18Z"/></svg>