<?xml version="1.0" encoding="utf-8"?>
<!-- Generator: Adobe Illustrator 24.0.1, SVG Export Plug-In . SVG Version: 6.00 Build 0)  -->
<svg version="1.1" id="Background_Details" xmlns="http://www.w3.org/2000/svg" xmlns:xlink="http://www.w3.org/1999/xlink" x="0px"
	 y="0px" viewBox="0 0 1920 1080" style="enable-background:new 0 0 1920 1080;" xml:space="preserve">
<style type="text/css">
	.st0{fill:none;}
	.st1{fill:#636466;}
	.st2{fill:#C7C8CA;}
</style>
<title>background</title>
<g id="Bridge_1_">
	
		<rect x="1061.8" y="538.8" transform="matrix(0.9573 -0.2892 0.2892 0.9573 -110.6718 338.6588)" class="st0" width="57.9" height="10.1"/>
	
		<rect x="1051" y="501.2" transform="matrix(0.961 -0.2766 0.2766 0.961 -97.891 318.5123)" class="st0" width="57.8" height="10.1"/>
	
		<rect x="431.7" y="380.9" transform="matrix(0.5822 -0.8131 0.8131 0.5822 -121.378 535.6081)" class="st0" width="57.6" height="10"/>
	<rect x="401.1" y="357.1" transform="matrix(0.6 -0.8 0.8 0.6 -117.7451 488.8437)" class="st0" width="57.8" height="10.1"/>
</g>
<g id="Pavement">
	<path class="st1" d="M1295.4,215.5c17.3,16.2,25.9,18,25.9,18c55.4-2.7,72.9-11,72.9-11c27.9-25.2,51.6-57.2,51.6-57.2
		c-15.5,1.4-35.6,17.5-35.6,17.5c-15.6,12.7-20.9,16-20.9,16c-19.1,10.9-91.1,13.1-91.1,13.1L1295.4,215.5z"/>
	<path class="st1" d="M1446.2,152.2l3.6-0.3C1449.9,151.9,1448.8,151.7,1446.2,152.2z"/>
	<path class="st1" d="M1446.2,152.2l-73.5,5.9c11.1,7.8,15.1,30.2,15.1,30.2C1422.6,159.9,1439.5,153.5,1446.2,152.2z"/>
	<path class="st1" d="M1663.2,287.4c11.3-34.7,3.3-89.7,3.3-89.7c-4.7-49.3-17.1-75.3-17.1-75.3l-11.8-0.2
		c11.3,22.7,17.3,61.3,17.3,61.3c-33.3-48.7-91.8-54.2-91.8-54.2l0.4-3.8c-55.6-0.9-137.1,12.5-137.1,12.5l42,2.6l93.3-1.8l46.5,29
		l33.8,49.2l8.9,61l-25.5,61l-37.3,34.4l-1.5,18.7C1661.4,334.2,1663.2,287.4,1663.2,287.4z"/>
	<path class="st1" d="M1291.6,566.2c19.3-47.7,19-105.5,19-105.5l-80.6,22.5l0.6,9.5C1286.6,504.6,1291.6,566.2,1291.6,566.2z"/>
	<path class="st1" d="M869.2,598.8l-5.3-5.3l-27.5,14.9c-29.9,13-30.2,34.4-30.2,34.4c-4.2,29.6,0.3,88.3,0.3,88.3
		c6.5,13.9,48.6,77,48.6,77c4.1-26.4-4.5-77.6-4.5-77.6l-2.4-51.8C849,617.2,869.2,598.8,869.2,598.8z"/>
	<path class="st1" d="M159.7,943.5h15.3l-57.6-7.5c0,0-16.6-2.2-21.5-5.2L93.3,920l-5.8-5.3l-11-1.3l-13.3-25.5l-0.9,1.9l10.4,21.6
		l6.5,10.4c0,0,9.3,13.5,34.7,16.3L159.7,943.5z"/>
	<path class="st1" d="M-0.8,715.8l26.8-2c16.3-0.6,39.4,2.2,39.4,2.2l1.5-12l-67.7,5.6V715.8z"/>
	<path class="st1" d="M96.9,968.6v-8.8l-27.1-11.1l-16.3-17.2l-6.7-39.1l6.8-60.6l5.3-46.5l-17.8-1.5l-32,88.8c0,0-9.6,29.4-10.7,53
		l-0.4,35l34.7,3.4C32.7,964,82,969.8,96.9,968.6z"/>
	<path class="st1" d="M97.7,432.6l73.3-29l107-39l61.7-20.5l9.7-2.2l-6,28.1c-4,9.8-12,17.4-21.9,20.9L266,417.7l-63.4,29.3L193,452
		h-11.7l-3,4.7l-4.1,5.3l-0.6,2.8l0.3,2.4c0,0-0.6,1.9,1,1.8c1.6-0.1,8.1-5.3,8.1-5.3l38.4-21.9l54.2-26.5l41.9-17.5l4.9,0.7l2.7,1
		c0.2,0.9,0.4,1.7,0.7,2.5c0.4,1,2.2,3.5,3.1,3.9c1,0.4,2,0.7,3.1,0.7c1.3,0,4.5-0.2,4.5-0.2l3.3-0.7c1.3-0.3,2.5-0.7,3.7-1.2
		c1.4-0.7,2.7-1.6,3.9-2.7l3-3.9c1.8-2,3.6-4,5.6-5.8c1.5-1,1.5-5.2,1.5-5.2l-1-1.6l-1.6-2.7l-1.3-5.2c0,0,1.5-3.5,0.6-4
		c-0.7-0.4-1.4-0.9-2.1-1.5l-1.6-1.6l-0.2-14.4l3.4-15.1l20.6-4.7c9.9-1.3,19.9,1.6,27.4,8.1l25.8,20.3l4.9-6.5L405.6,339
		c0,0-2-1.7-5.3-3.6l35.4-25.1l9.5-7.5l10.7-6.7l5.5-4.9c1.1-1.2,2-2.5,2.9-3.8c0.2-0.7,6.7-5.8,6.7-5.8l9.8-6.2l35.1-25.5
		l88.4-64.9l27.6-20.4l8-3.6c0,0,8.9-3.5,10.4-4.2c1.6-0.7,9.8-2.7,10.5-2.4c0.7,0.2,37.1-2.7,37.1-2.7l25.8-0.7l26.4,0.4
		c0,0,21.3,1.8,22.9,2s11.3,0.5,11.3,0.5l10,2.4l11.3,0.4l25.1,1.1l8.2,0.2l11.3-0.4l14.2,0.2l15.5-0.9l156.9-17.8l134.4-14.2
		l121.1-12.7l87.8-8.2l16.7,0.2l20,1.6l38.9,5.5c0,0,8.5,0.9,10,1.3s13.8,0,14.4,0s33.1-2.7,33.1-2.7l65.1-8l37.1-5.1
		c0,0,16.2-2.9,16.9-2.9h10.9l34.8,6.3c0.3,1.5,0.9,3.4,1.8,4.6c1.8,2.2,4,8.9,4.4,10.2c0.4,1.3,3.1,14.7,3.1,16
		c0,1.3,12.4,127.1,12.4,127.1l4.4,18.7l4,7.1l17.3-0.4l4-2.2c0,0,3.1-0.4,4-3.1c0.9-2.3,1.9-4.5,3.1-6.7l-3.6-16.5l-6.2-48.4
		c0,0-5.2-49.4-7.4-71.2l12.2,7.8c0,0,9.5,7.1,10.4,7.4c0.9,0.3,6.8,3,6.8,3c2.3,0.5,4.8,0.5,7.1,0c4.2-0.9,2.4-1.8,7.4-2.7
		s2.7-0.3,7.7-3c3-1.6,5.9-3.5,8.6-5.6c0,0,2.1-2.7,9.2-3.5s8.6-1.2,8.6-1.2c4.4,2,9.1,3.4,13.9,4.1c3.3,0.4,6.6,1,9.8,1.8
		c0,0,3,2.1,10.1,3.3c7.1,1.2,25.5,2.7,27.3,2.7s1.2-0.6,12.7,0.6s25.5,1.2,27,1.2s7.4-1.2,12.7,0c3.4,0.8,6.8,1.8,10.1,3l1.2-7.7
		l-0.9-1.2c0,0-0.2,0.1-0.5,0.2l-1-4.1c0,0-1.5-5-2.7-5.9s-3-5.9-3-5.9l1.2-1.8l8.6-1.8l0.9-6.8l-12.4,4.7c-3,0.5-6.1,0.7-9.2,0.9
		c-5.6,0.3-7.7-1.8-7.7-1.8l-13.9-2.7l-9.2-2.1h-22.5c0,0-16.9,2.7-17.8,2.7s-15.4,4.1-16.9,4.1c-1,0-10.3,3.9-16.2,6.4
		c0.2-1.4,0-2.7-8.1,0.4c-12.2,4.7-14.2,5.9-14.2,5.9l-9.8,5.3l-8,2.1l-1.2,0.6c-2.5-0.2-4.9-0.2-7.4,0c-1.4,0.2-2.8,0.2-4.2,0
		l-4.7-2.7c0,0-3.8-2.7-4.7-3.3c-0.9-0.6-5.9-3.3-5.9-3.3l-9.4-6.8l2.2-1.7l3-0.9l8.3-4.7c0,0,23.1-4.7,24-5.3
		c0.9-0.6,11.3-4.4,12.2-4.7c0.9-0.3,16-5,20.7-7.1s13.3-1.8,16.3-3s7.7-2.1,9.5-2.7c1.8-0.6,8.9,0.3,9.8,0.3s6.5,1.2,9.5,1.5
		c3,0.3,9.5,1.8,9.5,1.8h10.4l19.3-1.8l47.1-3.6l0.3-5.9l-6.8,0.9c0,0-8.6,1.2-16,1.5s-12.7,0.6-12.7,0.6H1878c0,0-5.3,0.6-10.1,0.9
		c-4.7,0.3-8.3,0.9-14.8,1.2c-6.6,0.3-4.5-0.9-11.6-1.2c-7.1-0.3-13.6-0.3-13.6-0.3l-10.1-0.9c-3.3-0.3-9.5,1.8-10.4,2.1l-35.3,12.2
		c0,0-10.7,3.5-16.6,5.3c-5.9,1.8-14.8,4.1-16.6,4.1s-9.8,3.3-15.1,3.3c-2.4,0-4.8,0.1-7.3,0.4c-0.8-0.9-1.5-1.6-1.5-1.6
		s-13.3-9.8-15.1-10.7s-4.9-4.9-6.7-5.8c-1.8-0.9-7.1-4.9-7.1-4.9l-6.8-1.1l0.1-0.9c0,0-8.9-1.8-10.9-2c-2-0.2-23.6-3.1-23.6-3.1
		s-4.9-0.4-6-0.4s-9.3,1.3-10.9,1.3s-11.6,2-11.6,2s-21.3,2-22,2s-33.8,3.8-33.8,3.8l-53.1,6.9c0,0-10.9,0.9-12.9,0.9
		s-7.3,0.7-8.4,0.7s-12.5,0.4-16.2,0s-11.1-0.4-13.6-0.4s-36.9-6-36.9-6s-12.5-0.9-13.6-0.9s-16.2-0.7-16.2-0.7s-31.1,2.2-31.8,2
		c-0.7-0.2-39.6,3.1-39.6,3.1l-103.3,10.9l-89.8,10l-97.6,9.8l-69.5,8c0,0-61.3,6.2-62.8,6.2s-29.1,2.9-31.6,3.3s-36.7,0.7-36.7,0.7
		s-20.2-0.4-21.5-0.7s-7.3-1.3-7.3-1.3l-6.7-1.1l-10-1.3l-30.2-1.9c-0.8-1.2-1.9-2.9-2.7-3.4c-1.5-0.9-3.2-1.7-4.9-2.2
		c-1.3-0.4-1.8-8.4-1.8-8.4s-1.3-16-1.3-19.1s-1.8-23.6-1.8-23.6l-2.2,2.2v9.3c0,0,0.4,4.4,0.4,6.7c0,2.2-4.9,4.4-4.9,4.4
		s-10.2-3.6-13.8-5.8c-3.6-2.2-14.2-5.3-16-6.2c-1.8-0.9-13.8-4-16.5-4s-28.4-14.2-29.8-14.2s-24.5-10.7-24.5-10.7l-1.2-0.7L620-5.7
		l-4.5,0.9l11.3,76.1l-3.2-0.6c-3.2-0.4-6.5,0.2-9.3,1.8c0,0-3.5,3.6-6.2,4s-13.3-3.6-16-4.5s-16.4-6.7-16.4-6.7s-26.2-6.7-32-7.1
		s-6.2-1.3-10.2-1.8c-4-0.5-8.1-0.4-12,0.4c-5.3,0.9-8.9,7.1-8.9,7.1l-2.7,9.3c0,2.4-0.5,4.8-1.3,7.1c-1.3,3.1-4.9,9.8-4.9,9.8
		l2.2,5.3c0,0,4,1.8,6.2,1.8h7.1c0,0,8.9,0,11.1,0.5l0.5-4.5l-3.6-7.1l-6.2-0.4l-2.2-0.5c0,0-1.8-1.3-2.2-5.8s0.4-3.6,0.4-7.6
		s7.6-5.8,7.6-7.1s12.9-2.7,12.9-2.7l12.5,1.3l12,3.5c0,0,9.3,2.2,12,2.2s10.7,5.3,12.9,5.8c2.2,0.5,8.4,0.9,8.4,0.9l14.7,6.2
		c0,0-11.1,5.3-13.8,6.2s-5.3,16-5.3,16l-9.3,15.5c-1.4,2.8-3.2,5.3-5.3,7.6c-4,4.4-4,10.7-4,10.7l-7.1,16.4c0,0-0.4,4.9-3.1,8
		c-1.6,1.7-2.2,4-1.8,6.2l-0.4,7.6l-3.1,3.5c-0.4,2.9-1,5.7-1.8,8.5c-0.6,2.1-0.9,2.9-0.9,3.2c-0.5,0.6-6.2,8.5-6.2,11.9
		c0,2.1-0.5,4.3-1.3,6.2c0,0-8.9,4.9-11.5,6.7s-0.5,5.8-0.5,5.8l4.9-3.6l7.6-3.6l4.4-3.5l2.2-12l10.7-15.1c5.3-7.6,2.2-9.3,1.8-12
		s1.3-7.6,1.3-7.6l8.9-27.6c0,0,11.6-20,12.5-23.1c0.9-3.1,8.4-12.9,10.2-16c1.8-3.1,9.8-11.6,9.8-11.6s4.9,3.1,4,6.2
		s-3.1,18.2-3.1,18.2l0.9,11.1c0,0,2.2,12.4,2.2,16.4c0.2,3,0.8,6,1.8,8.9l0.5,12.4l-2.2,3.6c0,0-8,4-12.9,4.9s-3.1,4.4-3.1,4.4
		l3.1,3.6c0,0,4,3.1,6.7,1.8l4.2-2.1l-29.1,21.1l-83,60.7L470,279.4l-11.2,11.3c0,0-49.5,35.2-61.2,43.3c-3.3-1.6-7.5-3.1-12.2-3.6
		c0,0-11.6-0.9-46.2,9.2c0,0-53.9,15.9-96.1,31l-94.8,34.8L90.3,429L72,435.7c-6.1,1.5-12.4,2.3-18.7,2.2l-55.1-1.6l-0.6,6.5
		l55.7,1.6C53.3,444.4,78,443.8,97.7,432.6z M1805.5,133l9.8-3.9c0,0,15.4-2.4,17.2-3c1.8-0.6,11.6-2.7,11.6-2.7s8.6-1.2,11.3-1.5
		c2.7-0.3,9.5,0.3,12.4,0s18.1,3.5,18.1,3.5s12.2,3.3,13.6,3.6s5.6,1.5,5.6,1.5c1.4,1.2,2.9,2.3,4.4,3.3c0.9,0.3,3.3,3.8,3.3,3.8
		l5.5,9.3c-1.4,0.6-2.7,1.1-3.1,1.1c-0.9,0-10.1,0.3-10.1,0.3H1887c-2.4,0-13.6-0.6-13.6-0.6H1863l-11.6-2.1l-8-1.5l-8-0.9l-7.7-2.1
		l-7.7-1.2l-10.7-4.1c0,0-3.8-1-6.7-1.8L1805.5,133z M1694.4,117.8c0.9,0,4.4,2.4,4.4,2.4s5.9,2.7,7.7,3.6s5,6.5,5,6.5
		s1.8,9.5,1.5,12.5c-0.3,3,9.2,64.9,9.2,64.9l5.9,47.4l1.5,7.7c0.4,2.3,0.7,4.5,0.9,6.8c0.3,3.9-0.9,3.9-1.2,5.7h0
		c-0.3,1.8-5.9,4.2-5.9,4.2c-2.8,0.7-5.7,1.2-8.6,1.5c-5,0.6-3-3.8-5-7.1c-2-3.3-4.4-18.1-4.4-19.3c0-1.2-1.5-24.6-1.5-24.6l-5.6-59
		l-8.6-51C1689.6,119.9,1693.5,117.8,1694.4,117.8z M736.6,147.9L736.6,147.9C736.6,147.9,736.6,147.9,736.6,147.9L736.6,147.9z
		 M638.8,85.4l12,0.9l13.3,6.7l11.1,2.7l7.6,4.9l12,3.1l27.1,10.2c0,0,8.9,4.9,10.2,5.3c1.3,0.5,4.5,5.3,4.5,5.3s0,9.3-1.8,15.1
		s-0.5,4.9-1.3,6.2c-0.4,0.6-2,1.5-3.5,2.2l-47.4,1.4c-22.2,0-36.3,4.8-42.3,7.4l0-0.2l2.6-1.8l-1.3-5.8l-3.1-6.2l0.5-20.4
		c0,0,2.7-8,3.1-12s-1.8-10.7-3.6-15.1S638.8,85.4,638.8,85.4z M619.2,108.6v-7.1c0-1.3,5.8,0,5.8,0l1.8,7.1
		c0.4,1.8,1.8,11.5,1.8,11.5l0.9,8v8.9l2.2,14.2l-0.9,7.1l3.8,1.5l-5.7,3.6c-0.2-1-1.3-2-1.3-2l-1.3-9.8c0,0-2.7-13.3-5.8-20.9
		s-0.9-12.4-2.2-15.6C617,112.1,619.2,111.2,619.2,108.6z"/>
	<path class="st1" d="M1490.9,201.3c3.6,1.3,9.2,2.3,17.4,0.8l21.1-2.9l69.9-11c0,0,9.3-1.9,17.3,1.6l-12.9-13.6c0,0,0.4,4-8.4,5.2
		l-59.1,9.2c-3.6,0.4-7.1-1.8-8.3-5.2l-5.7-10.7l-2.8,1.4l3.4,7.8c0,0,2.9,8.9-4.8,10.3c0,0-12.3,2.6-17,1.9c0,0-11.3-0.5-18.1-6.5
		l-13.7-9.9c0,0-17.2-14.2-1.9-28.2l-5.7-0.5c-3.6,3.8-5.6,9-5.3,14.2c0,0-1.9,9,6.8,16.9l21.1,15c-2.8,4.3-11.7,18.3-15.9,25.4
		c0,0-3.6,4.7-8.4,1.9c-0.4-1.1-0.8-2.1-1.3-3.1c-0.4-0.7-1.3-2.4-1.9-2.4s-4.3,0.1-4.3,0.1l-1.6,2.5l-1.2,3.6c0,0-9,5.9-14.5,13.8
		l-9.3,9.5l-6.4,6.1l-4,2.7l-2.4,2.4l-0.6,1.5c0,0-0.3,0.7,1,0.4c1.2-0.3,2.3-0.7,3.4-1.2c1.8-0.7,5.5-2.4,5.5-2.4s1.2-0.7,2.5-1.8
		c0.7-0.5,1.4-1.2,1.9-1.9l2.2-2.5l7.6-7.6l9-9l3.3-1.9c1.1,0.3,2.3,0.5,3.4,0.4c1.3-0.1,1.6-0.3,2.2-1.3c0.6-1,0.4-1.8,1.3-1.9
		c0.9-0.1,2.2-1.3,3.4-0.6c0.9,0.5,1.6,1.2,2.1,2.1c0.4,0.7,1.5-1.9,0.9,1.8c-0.5,2.2-1.1,4.4-1.9,6.5c-0.8,1.8-1.6,3.5-2.5,5.2
		l-9.3,16.3l-4.6,6.8l-4.1,4.1l-2.1,2.5l-2,2.2l-98.3,6.3l-37.8,2l-39.2-3.1l0.6-2.9l1.6-3.7l10-6.5l19.6-5.3l-0.6-4.9l-11.6,2.2
		l-9,3.7l-12.6,6.8c-7.3,5.8-11.4,5.9-11.4,5.9c-3.7-0.6-0.3-5.2-0.3-5.2l5.6-5.6l20-16.9l-23.6,13.2l-19.4-24.3l-1.8-7v-15.4
		l-0.4-6.8l-3.4-7.1l-1,22.8c-0.9,11.4,1.9,16.9,1.9,16.9l8.9,12.3l9.2,13.6c2.2,5.6-6.1,8.9-6.1,8.9c-2.8,0.3-5.5,0.3-8.3,0.1
		c-4.1,0-6.5-1.2-7.9-2.4l0.2-0.1c-9.1-17.1-24.5-18.7-24.5-18.7c-14.7-1.1-21.1,2.5-21.1,2.5c1.6-2.5-1.1-8.4-1.1-8.4l-7.6-14.2
		c-6-10.2-11.8-12.9-11.8-12.9s-11.8,0-12.4,0.2c-0.7,0.2-39.8,3.1-39.8,3.1l-79.5,7.8l-43.3,5.6c-21.1,2.7-19.8,22.2-19.8,22.2
		v11.8c0,0,1.3,13.5,1.5,14.7c0.2,1.1,6.5,36.2,6.5,36.2c0,2.7-1.1,5.2-3.1,6.9l-14,2.6l-0.9-4.3l-8.9-72.8
		c-1.2-12.3-12.7-9.3-12.7-9.3l-15.5,2.8l-50.2,8.1l-89.5,15.1l-47.7,8.6c0,0-9.5,3.4-9.9,3.6c-0.4,0.1-8.3,4.9-10.8,5.6
		c-2.4,0.9-4.6,1.9-6.8,3.1l-7.7,1.3l-15.2,0.1l-3.9-59.8l-7,0.6l3.1,60.2l-50.4,0.4h-11.1c0,0-13.1,0.2-21.3,5.3l-60,43.3
		l-14.5,12.3c0,0-15.3,10.8-4.3,26.4c9,9.3,19.2,17.2,30.5,23.4c0,0,2.2,1.5,3.5,9.1l-17.9,4.6l-5.2-0.1c-0.6-1.1-1.4-2.2-2.3-3.2
		l-49.1-37.5l-4.9,6.1l47.5,34.9c0,0,2.3,2.2,3.2,7.9c-4.8,5.4-17.7,9.6-17.7,9.6c-27.6,8.3-48,33-48,33L413.1,515
		c-0.1,0.1-0.1,0.1-0.2,0.1c-0.4,0.4-0.9,0.7-1.5,0.9c-1,0.5-2.1,0.8-3.3,0.9c-1.8,0.3-1.8-0.2-3.4-0.6s-1.8-0.7-3.1-1
		c-0.8-0.2-1.7-0.3-2.5-0.3l-22.4,20.5l-11.8,9.5c-11.3,5.6-9.5,16.2-9.5,16.2l1.6,33.6l0.5,5.6c-2.9,0.5-18.7,3.3-28.4,2.1
		l-19.6-2.4l-20.9-2.1l-9.2-1l-10.2-3.4c0,0-4-2.1-5.3-12.7l-0.9,11l-1.3,2.1l-1.2,1c0,0-8-5.9-24-2.8l1.5,1.5c0,0,15.6-0.6,21.2,5
		c0,0,1.2,2.8,1.8,3c1.3,0.5,2.7,0.8,4.2,0.9c2.1,0.2,3.8,0.3,5.9,0.3c1.5,0,3,0.2,4.5,0.6c-0.6,0.5-1.4,0.8-2.2,0.7
		c-1,0-2,0.2-3,0.6l-1.5,1.8c-0.6,0.6-0.9,1.4-1,2.2c-0.1,0.9-0.3,1.7-0.6,2.5l-6.8,3.4c0,0-4.3,0.3-4.5,0.7s-4.4,4.9-4.4,4.9
		s-3,6.8-2.7,7.5c0.3,0.7-0.2,6.2-0.2,6.2l-0.7,8.1v5.8c0,0-1.2,3.1-0.6,3.4c0.6,0.3,1.5,1.9,3.3,1.9c1.8,0,3.4-0.6,4.4-0.6
		c1,0,0.5,0.3,2.4,0.7s2.5-0.6,3.4,0.9c0.5,0.9,1.2,1.7,1.9,2.4c0,0,0.6,4.3,1.8,4.9s-0.8,0.6,3.1,1s3.1,0.3,4.6,0
		c1.5-0.3-0.5-0.9,3.4-0.5c1.6,0.1,3.3,0.4,4.9,0.7c0,0-0.1,2.7,0.4,3.3c0.5,0.7,0.9,1.4,1.2,2.2c0,0-0.5,2.7-0.5,3.4
		c0,1,0.1,2,0.5,3c0.3,1.2-0.2,2.5-0.5,3.3l-59.5,5.2L110.8,694c-15.6,1.8-18.1-0.9-18.1-0.9l-3.5-18.5L85.3,700l-3,12l9.9,10.2
		l-5.8,80l-2.1,27.4c0,0-3.2,34.5,8.6,53.3c0,0,12.4,20.9,41.3,28.3c0,0,15,2.7,57.9,5.5l26.8,0.9c0.1,0.9,0.2,7-11.6,10.6
		l-62.8,3.4l66.1,15.7L529,946l197.6,3.3l72-2.4l34.1-16.9c0,0-36.4,17.8-83,5H648.1v-18.3h-47.7c0,0-9.8-7.7-0.6-17.2l19.9,8.3
		c0,0,4.3,2.5,14.1-2.5l12.3-5.9c0,0,8,5.5,24.2,9.5l10.5,2.1l8.2,1l8,0.6l8.2-1.3l5.2-3.4l3-5.2l1.2-9l-1.6-8.9l-3.7-7.8l-3.1-2.7
		l-3.6-2.2l-4.7-1.8l-4.9-1.6v-3.3l23.4-19.7l0.5-4.9v-8l-5.5-53.2l7.9-1l-10.5-72.2l-4.9-39.1c0,0-2.5-15.5-19.4-14.4l-137.6,12.4
		l-0.5,0.1l-0.4-3.1l140.1-14c12.2,0,19,6.4,22.4,11.1l0.7,5.2l12.2,94.5l12.2,99l6.2,53c0.3,3.7-3.3,5.3-3.3,5.3h-18.4v13l2.9,0
		v-11.2h18.7c4,0.6,4.2,2.2,4.2,2.2c0.4,4-11,10.8-11,10.8l19.1-0.4l-6.7-52c39.3-0.7,31.3-36,31.3-36l-2-12.2L757.9,717l-9.6-62.9
		c-1.4-7-6.3-11-11.2-13.3l8.8,1.2l0.3,0.5l7.7,17.9l6.5,36.5l1,16.9l23.1-1.3l0.3-42.4l-0.4-18.5c0,0-0.6-7.9-5.5-10.2
		c0,0-1.8-2.5,0.9-3l3.7-0.3l1.2-1.5l-0.6-2.5l-3.4-1.8l-0.6-1.6c0,0,1.6-1,2.4-0.9c0.9,0.3,1.8,0.3,2.7,0.2
		c0.6-0.3,1.5-0.5,1.3-1.2s-0.6-2.2-0.6-2.2l-1-1.2l-1-0.6l-1-1.9l-2.1-3l11.1-6.5l-13.5-20.9c0,0-2.4-4-6.1-1l-12.5,12.7L745.6,628
		l-0.2,0.7c-1.8,2-3.7,3.8-5.7,5.6l-3.1-0.1c-2.6-2.1-3.3-4.3-3.3-6.3c14.1-13.9,42.4-42.2,42.4-42.2l45.5-52.2l33.9-41.3l1.9-3
		c0.3,0.6,0.7,1.3,1,1.7c0.5,0.9,3.2,1.2,5,1.2c0.6,0,1.3,0.2,2.1,0.5l-0.3,1.9c0,0-0.3,4.7-0.3,7.4c0,2.7,1.8,6.2,1.8,6.2
		s2.1,6.2,2.7,7.7c1,2.1,2.3,4.1,3.8,5.9c1.2,1.7,2.3,3.5,3.3,5.3c0,0,6.8,3,10,3.3s16.6-2.1,16.6-2.1l107.6-33.5l5-1.2l5.3-5.3
		l2.1-12.5l-3.2-21c8.1-4.8,6.1-15.7,6.1-15.7l-4.6-21.5l24.2-6.9l8,28l21.8,68l7.1-2.1l-18.7-59.5l-10.3-34.7
		c8.5-1.6,19.9,3.3,19.9,3.3c7.3,2.5,25.2,22.2,25.2,22.2c10.7,10.8,32.4,10.8,32.4,10.8c28.7-0.2,44.2-7.7,44.2-7.7l27-9.8
		c16-6.5,47-17.2,47-17.2c23.6-6,48.2-9.4,48.2-9.4l66.8-8c10.8-1.3,21.5-3.6,31.8-6.8l19.6-6.5l23.7-7.3
		c19.1-3.8,48.7-11.1,48.7-11.1c8.7-1.2,28.4-11.6,28.4-11.6l16.1-9.8l35.7-24.3c8.5-4.3,12.4-10.6,14.2-16.2
		c5-7.9,2.2-17.2,2.2-17.2c-2.9-6.6-6.7-14.7-6.7-14.7l-4-15.2c-9.4-20.4-23.2-27.3-23.2-27.3c-11.1-8.3-28.8-4.8-28.8-4.8
		l-26.9,3.7l-15.3,1.2l0-1.1C1479.3,225.7,1481.1,210.6,1490.9,201.3z M1468.9,232.9c2.6-0.2,2.6,4.7,2.6,4.7s1.1,18,0.7,25.7
		c-0.4,7.7-6,9.1-6,9.1l-10,0.9l-8.9-5.1L1468.9,232.9z M1193.9,262.1c13.7,0.4,19.1,13.5,19.9,15.7c-0.4,1.7-1,3.7-1.4,5.1
		c-4.4,0.7-8.8,1.6-13.2,2.7l-69.6,13.5l-26.2,5.2c-6.5-2.3-5.6-12.4-5.6-12.4c-0.4-7.3,4.7-11,8.7-12.9l59.6-12.8L1193.9,262.1z
		 M983.4,244.8l19.7-3.3l62.7-6.2l59.3-6.7l16.4-1c0,0,14.1-0.3,16.8,9.6l-1.2,1.2l-174.7,24.9l-14.1,1.8
		C968.3,265.1,966,249.4,983.4,244.8z M966.9,274.6l1-3.9l28.3-4.3l94.5-14.2l68.4-8.9c1.9-0.2,3.8,0.7,4.9,2.2l4,9.2
		c2,5-5.3,7.4-5.3,7.4l-29.3,6.5l-75.4,16.9l-53.6,8.9c-24.8,1.9-32.1,11.5-32.1,11.5l-2.4-10.4L966.9,274.6z M957.7,368.3
		l71.9-11.7l7.9,27.5c-2,3.5-5.4,3.9-5.4,3.9l-45.9,5.3l-21.8,3.4L957.7,368.3z M963.8,426.2l-26.8,7.2l-30.7,7.6l-0.6,0.1
		c-9.6-0.6-23.6-2.6-29.2-8.6l-8.9-49.6l15.8-2.6c9.8,3,13.1,19.2,13.1,19.2c5.6,12.3,16,8.7,16,8.7l45.5-6.2L963.8,426.2z
		 M1094.8,281.6l-4.9,25.5l-86.9,17.3l-24.6,4.6c-3.6-4.4-3.2-13.8-3.2-13.8c0.5-8.9,10.2-12,10.2-12l77.1-14.7L1094.8,281.6z
		 M954.8,337.6l30.3-5.8l17.2-3.4c7.5-0.5,16.2,0.5,19.7,6.6c0,0,2,2.3,6,16l-71.6,12l-4.2-17.8
		C952.3,345.2,951.3,340.4,954.8,337.6z M950.4,369.5l6.7,28.3l-23.3,3.6c-14.5,1.6-20.3,1.5-20.3,1.5c-9.9-0.2-13.2-9.6-13.2-9.6
		c-2.6-9.1-5.1-12.9-6.8-14.5L950.4,369.5z M945,346.8l4.1,17.4l-82.3,13.8l-4.1-22.9l44.8-8.6l29.2-5.6
		C940,341.1,944.2,342.1,945,346.8z M938.5,314.5l4.5,21.3L862,351l-3.6-20.3L938.5,314.5z M937.8,309.4l-1.7,0.4l-49.2,10.1l-85,17
		l-91.1,17.6l-19.4,2.1l-5.8,0.6l0.3,9.6l-5.7,10.3l-3.2-45.9l58.3-10.5L936,285.4L937.8,309.4z M854.1,352.5l-80.9,15.2l-4.1-19.4
		l69.9-13.6l11.8-2.4L854.1,352.5z M766.5,369L690,383.4l-0.2-0.6l-0.7-5.6l1.3-4.1l1.5-4.6l5-4.5l16.2-4.7l49.9-9.7L766.5,369z
		 M746.8,498.8l-46.4,35.9l-10.2-78.2l-6.4-49.6l64.4,75.1c-2,2.9-3.2,6.3-3.1,10.1C745.2,494.4,745.8,496.7,746.8,498.8z
		 M687.4,300.4c9.2,1.2,23.4-5.2,23.4-5.2c7.2-4.6,20.2-8.7,20.2-8.7l17.6-3.4L926.4,253c7.4-0.6,7.6,5.3,7.6,5.3l1.6,21l-62.3,10.9
		l-196.6,36.3l-1.1-15.3l-0.7-10.9L687.4,300.4z M676.6,424.6l7.1,56.9l8.4,58.1l-63.9,9l-18.8-141.1l30.7-7.1l-0.5,8l-0.9,5.8
		l4.4,15.1l8-3.1l11.1-2.1l6.5,3.8l1.2-13.8l-2.8-11.9l-6.4,1.5l-15.9,1.9l0.1-6.5l28.8-6.7L676.6,424.6z M605.4,438.2l3.5,28.1
		l-25.4,3l-4.1-27.6L605.4,438.2z M578.7,436.9l-3.2-21.6l26.3-6.1l3,24L578.7,436.9z M609.5,471.6l9.7,78.2l-23.2,3.3l-11.8-78.8
		L609.5,471.6z M669.2,340.4l4.1,46.2l-58.3,13.3c-6.8-1.1-7.4-9.4-7.4-9.4l-7.3-44.7c2.6-1.9,7.3-3,7.3-3l55.5-8.6
		c2.9,0,4.7,0.6,5.8,1.3L669.2,340.4z M596.4,303.7c3.2-0.8,6.9-1.4,11.2-1.5l59.5-0.8l1.2,24.2c-1.7,2.1-4,3.6-6.6,4.3l-56,8.6
		c-3.8,0.6-5.8-0.1-6.9-1.1l-4.5-26.1C594.2,308.6,594.9,305.9,596.4,303.7z M585.3,308c4.6-0.1,5,1.9,5,1.9l13.2,87.3
		c0.5,2.7,0,4.5-0.8,5.6l-25.9,5.9c-0.9-0.9-1.9-2.6-2.7-6l-10-80L585.3,308z M510.2,382.2c0,0-10.2-12.8,3.8-22.4l16.2-9.5
		l4.6,28.6l1.9,21.8C536.7,400.7,518.5,393.7,510.2,382.2z M535.7,354.5l-0.3-6.1c0.5-3.8,2.4-7.3,5.5-9.6l18.4-12.7l5.3,37.9
		l3,29.2l-2.6,1.6l0.2,2.5l1.2,5.9l0.2,4.6c0,0-0.2,1.9-1,3.4L549,415l-2.7,0.7c-1.4-0.9-2.4-2.3-2.7-4l-1.9-10.8l-1.9-22.2
		L535.7,354.5z M522.6,427.7l46-10.7l18.7,134l-0.6,3.4l-52.7,7.4l-0.8-6.9l38.9-4.2c3.8-0.5,4-2.8,4-2.8l-1.5-42.7
		c0.7-8.3-4.2-8.3-4.2-8.3l-4.7,0.5l-3-38.4l-5.5-5.2l1.3,16.4l-9.6,0.9l0.5,3.7l9.5-0.5l1.9,23.6l-21.4,2.1l0.2,6.2l-12,1.2
		l-6.1-52l-3-25.1L522.6,427.7z M537.8,663.1l0.4,3.6l-0.5,0.1l3.5,24c-2.7,1.9-5.9,3.2-9.1,3.8l-16.2,1.6
		c-5.9,0.4-9.1-0.1-10.9-0.7l-4-24.3l-58.8,5.3l-73.8,5.5l-5.3,0.6l-3.7-2.4l-0.3-2.1l119.7-9L537.8,663.1z M536.7,653.8l0.2,1.6
		l-0.1,0L536.7,653.8z M349.3,778.7l5.8-0.5l4.1,51.7c0,0-0.1,1.6,0.9,3.3l-0.4,2.4l-4.9-0.2l-0.1,0l0.2-0.4L349.3,778.7z
		 M348.1,840.3l-82-3.6l-0.8-4.6l85.2,3.9l2.6,0.2l-0.5,0.2v2.2C352.6,838.6,352.8,840.6,348.1,840.3z M341.3,725.1
		c0,0,0-2.4,3.4-2.5l5.4-0.7l4.3,47.3l-7.5-0.8l-1.6-17.9l-4.5-0.7c0,0-28,11.7-40.4,6.4c0,0-8.9-5.2-4-15c0,0,4.3-5.8,14.1-4.7
		l20,2.5l12.5-0.2L341.3,725.1z M408.3,637.7c-0.5-1.4-1.1-2.7-1.9-4c0,0-2.7-3.3-3.1-3.5c-0.5-0.3-1.2-5.8-1.2-5.8l-2.2-18.1
		l-0.9-9l-1.2-2.2l1.9-2.1l4.3-3l5.9-3.3c0,0,5.3-1.9,5.9-2.1s8.3-1.6,8.3-1.6l9.6-2.2l5.5-0.2l2,0.8c4.1,2.1,2.3,6.9,2.3,6.9
		l-24,4.5l10.7,11.3l10.1,35.9l22.2,12.7l-3-17.9l1.4-0.1l-4.3-28.8c0.9-5.3,3.5-7,3.5-7c2.8-1.7,5.1,3.1,5.1,3.1l1.2,0.8l4.2,32
		l5.8-0.7l2.5,27.3l-50.1,5.1l-56.9,4.3l-0.7-5.2l-0.6-7.7c0,0-1.3-17.2-0.9-17.2c0.5,0,10.4-0.6,10.4-0.6l21.3-0.9l0.3,1.6
		c0.4,1.2,1,2.4,1.6,3.6c0.6,0.6,1,0.6,2.5,0.2c1.5-0.4,1.9-1.8,2.4-2.8C408.9,640.7,408.4,638.7,408.3,637.7z M529.2,656.3
		l-25.7,2.6l-1.4-1.5l-2.9-26l5.5-1l-3-19.7l2.1-0.3l-0.9-7.3l-2,0.3l-0.2-4.5c0.5-2.4,2.4-4.3,4.8-4.7c2.6-0.6,5.2-0.9,7.8-1
		c1.8,0,3.5,1.2,4,3l1.3,12.3c-10.8,1.5-7.7,12.2-7.7,12.2l2.8,14.1c5,4.9,11.4,7.9,18.3,8.6c2.4,0.3,2.4,2.1,2.4,2.1l1.3,10.2
		L529.2,656.3z M502.6,587.2c3.9-1,8-1.5,12.1-1.4l0.6,4.9l-11.1,1.7L502.6,587.2z M530.4,606.4l-2.9,0.3l-3.8-26.8
		c-0.2-7.3-2.8-8.7-2.8-8.7l3.6-0.7l2.4,9.3L530.4,606.4z M529.6,517.2c2.7-2.5,5.1,3.1,5.1,3.1l1.7,16.5c-0.2,2.4-1.4,2.8-1.4,2.8
		h0c-2.5,0.9-3.7-2.7-3.7-2.7L529.6,517.2z M528.3,611.9c1-0.1,1.9,0.6,2.1,1.5l3,25.2c-2.5,0.9-6.7,0.1-6.7,0.1
		c-6.5-3.5-6.8-5.8-6.8-5.8l-1.8-13.3c-0.8-5.5,2.1-6.4,2.1-6.4L528.3,611.9z M512.1,446.2l6.6,60.6l6.2,56.3l-56.2,6.7
		c-4.2,1-3.3-1.6-3.3-1.6l1.6-5.1l8.9-26.7l14.9-42.2l17.3-50.5C510,444.5,511.4,445.6,512.1,446.2z M398.5,544.7l7.4-11.1l24.8-36
		c16.9-22.3,28.4-34.1,28.4-34.1c18.9-15.6,36.1-20.3,36.1-20.3c3-0.7,5.5-0.9,7.7-0.7l-2.7,6.8l-8.9,24.5l-13.5,39.8l-16.7,47.2
		c-3.1,10.2-14,11.4-14,11.4l-29.6,2.6l-0.9-1.2c-0.7-0.8-1.3-1.7-1.8-2.7c-0.5-1.1-2-2.2-2.7-2.8c-0.2-1.1-0.5-2.3-0.8-3.4
		c-0.3-0.6-0.9-1.1-1.8-2.3c-0.4-0.8-1.1-1.4-1.9-1.8c-1-0.7-1-2.2-1-3.3s1.4-1.9,1.4-1.9c0.4-0.5,0.6-1.1,0.8-1.7
		c0-0.6-0.6-1-1.7-0.9c-0.8,0.2-1.5,0.6-2,1.2l-1.9,0.6l-1.5-1l-3.8-4.1C397,547.8,398.5,544.7,398.5,544.7z M395.6,597.6
		c0,0,2,19.8,2,20.1s0.1,3,0,3.6c-0.1,0.6,0,3.7-0.2,5.3c-0.1,1.3,0,2.6,0.2,3.9c0,1-0.6,1.3-1.2,2.5c-0.3,0.6-0.7,1.1-1.2,1.5
		c-0.7,0.7-1.4,0.6-2.4,0.9c-1,0.4-2.1,0.6-3.2,0.7c-1.7,0-3.4-0.3-5-0.8c-1.3-0.5-1.3-1.5-1.7-2.4c-0.2-1.2-0.2-2.4-0.1-3.6
		c0,0,0.1-2.8,0-3.5c0-0.6-0.4-1.1-0.9-1.3c-0.6,0-1.2,0-1.8,0.1l-1.1,1.3l0.9,3.5c0,0-0.2,1.5-0.3,3.2s-0.3,1.2-1.1,1.9
		c-0.7,0.5-1.5,0.8-2.3,1l-3.3,0.3c-4.5,0.8-4-2-4-2l-0.3-7.8c0,0-1.7-18.1-1.8-18.9c0-0.5,0.2-1,0.7-1.3c6-0.5,27-10.2,27-10.2
		L395.6,597.6z M367.6,555.6l4.1-0.6l5.2-0.2l5.5-0.2l3.7,0.1l1.1,1.9c0.3,0.9,0.6,1.8,0.9,2.7c0.1,0.7,0,1.9,0.1,2.5
		s1.1,24.2,1.1,24.2l-0.7,2.8l-4.6,2.4l-5.1,2.3c0,0-3.8,1.6-4.8,2s-5,1.9-5.3,2c-0.3,0.1-2.1,0.6-2.1,0.6l-1.3-0.3l-2.6-34.1
		l-0.3-4.5C362.6,559.1,362.2,556.3,367.6,555.6z M358.2,608.4l5.3,57.8c0.1,2.3-1.1,4.3-2.9,5.5l-33.4,2.5l-19.7,1.7
		c-2.4-1.2-5.7-3.8-0.1-7.2l1.1-1.7v-2.3l5.6-36.4l-4.6-0.6l9-17C318.6,610.7,343.5,611.1,358.2,608.4z M277.6,625.5
		c-1.3-0.1-2.7-0.3-4-0.6c-0.4-0.3-0.6-1.2-0.6-1.2l30.7-15.7c0,0,7.1-2.7,6.8,2.7l-3.3,5.7l-3.7,5.8l-1.5,3c0,0-1.3,2.1-2.5,2.1
		h-5.2L277.6,625.5z M216.9,689.7L346.2,679l3.1,33.8l-8.6,0.5h-1l-0.3-1.5l-1.4-19.6c0,0,0.3-3.1-3.8-3.4l-117.5,11.9l-13.2,1.6
		c0,0-2.8,1.3-1.9,6.7l5.6,70.8l30.1-1.7c0,0,2.1,1.5,0.1,2.2l-66.1,5.3c0,0-9,1.5-10.4-6.8l-0.7-4.3l-1.3-46.4l-0.1-33L216.9,689.7
		z M152.1,736.1l-0.4,33.5c0,0-0.3,5.6,1.3,11.3l1.6,28.1l1.2,25.9c1.1,7,3.1,13.8,6.1,20.3c0,0,5.9,13.3-6.2,17.8
		c-9.7,2.5-20.1-0.6-26.8-8c0,0-7.3-8.2-7.1-22.1l-1.6-76.9l0.2-34.2c0,0-0.9-9.2,5.5-10.7l22.7-4c0,0,2.7-0.1,3.4,3.3L152.1,736.1z
		 M230.8,905.9c0,0-9.6,2.9-15.2,6.5l-28.7-1.6l-28.3-1.9l-15.4-1.5l-22.8-7.6c0,0-19.6-14.5-23.1-25.2c0,0-5.5-12.7-6.2-33.8
		l3.4-47.4l5.9-65.8l1.2-14.8c0,0,0.5-8.8,9.2-13l4.1-0.5l20.1-2.2l16.2-1.5l0.3,14l-4.4,2.6l-20.9,3.1c0,0-10.8,1.9-12.4,11.1v8.5
		l-1.2,19.7l0.1,39.8l1.5,50.1l0.7,11.1c0,0,0.1,20.3,25.3,25.3c0,0,21.6,3.6,31.1-12.7l46.1,19.7l11.5,4.6l4.4,3.2L230.8,905.9z
		 M269.4,880.6h-16.6l-0.4,6.5h-12.9l0,0l-51.4-19c0,0-15.1-6.4-21.5-22.4c0,0-5-17.2-4.2-31.1l-0.5-22.2c1.8,0.7,3.9,1.1,6.5,0.9
		l49.9-3.3l17.2-1.2l1,32.6c0,0-0.5,6.4,4.6,7.4l7,1.2l4.9,1.3l0.5,4.8l-20.4-0.9L218.9,864c0,0,7.9,7,35.7,12
		c0,0,21.8,1.5,50.5,1.3l63.5-0.7l0.3-14.2c0,0,1.3-2.5,9.6-1.5l103.1,3.4l-0.7,9.5c0,0,0.6,4.7-8.6,5.8l-108.7,0.7L269.4,880.6z
		 M498.2,888.4l-100.7-1.4l0.1-2.9l85.3,0.9l15.5,0.2L498.2,888.4z M558.8,825.7l0.6,6.2l3.7,33.3c0,0-0.6,20.2-21.8,23.6l0.6-10.4
		l-16.7-0.7v2.3H520c0,0-0.9-6.5,0-6.5s-5.9-6.2-5.9-6.2l-14.3-1.7l-1.2,18l-12.4-1.1l2.1-30.7c0,0,0.2-9-10.1-10.2l-101.8-0.3
		c0,0-5.6,0.3-7.1-3.9c1.2,0,2.5,0,3.9-0.2l102.3-1.2l5.3,0.3c0,0,0.9,3.8,1.3,4c1,0.7,1.9,1.4,2.8,2.2c0,0,2.4,0.5,2.5,1.5
		c0.2,1-0.5,2.2,0.4,3.3c0.9,0.9,1.9,1.8,3,2.5c0,0-0.5,3.6,0.9,3.7c1.7,0,3.4-0.2,5-0.6h3l8.5,0.3l1.6-17.5
		c6.5-0.2,12.7-2.7,17.5-7.1c0,0,5.2-5.2,19.8-5c0,0,8.2,1,9.2,1C556.9,824.6,557.9,825.1,558.8,825.7z M555.1,785.9
		c-1.5,1.9-5.6,4.3-16.4,3.8c0,0-17.8,0.2-21-16.9l-10.1-61.6c1.5-2.1,3.6-3.7,6.1-4.7l22.5-2.1c3.1,0.8,5.7,2.5,7.7,4.9
		L555.1,785.9z M686.1,639l-67.3,7.2l-74.1,8.3l-5.5-47l1.1-0.1c3.3-3.7,7-0.6,7-0.6l3.4,26.5l4.6,2.2l7.6,0.4l11.7,0.7l4.7-32.1
		l-5.2-19.1l-2.4-21.5l-3.7,0.8l4.3,28.3l-16.6,0.6l-1-0.6c-1.6,0.2-3.1,0.7-4.5,1.5c-1.5,1,0.1,2.1,0.3,2.7s0.4,2.7,0.4,2.7
		l-5.3,0.9c-6,2.2-7-3-7-3l-1.8-9.3l-2.3-19.6l150.1-20.1l-14.6,41.8l-2.8-35.4l-4.2-1.3l-77.6,11.5c0,0-6.1,0.5-5.6,9l8,66.1
		c0,0,1.6,5,10.7,3.7l88.2-8.3L686.1,639z M695.8,605.3l-8.6,4.6c0,0-6.1-2.8-11.8-1.8l-1.2-16l15.4-43.9l3.6-0.5l1.6,10.9l6.6,42.9
		L695.8,605.3z M716.6,631.7l-2.4-3.4l-0.6,0.6l-1.6-11.5h6.4l2.4-0.6l0.6-2.7l3.4-1.8l2.1,0.2l3.3,1l1.5,0.9l1.1,1.5L716.6,631.7z
		 M791.4,553.6l-32.7,34.7l-7.7,8.4l-11.4-9.9l-5.9,5.8c0,0-13.8-13.1-27.2-14.2l-4.9-35.2l48.4-39.9c3.1,3.2,7.5,5.1,12.4,5
		c2.7-0.1,5.3-0.8,7.6-2l30.3,37.3L791.4,553.6z M752.4,491.5c0-4.5,4.2-8.1,9.5-8.1s9.5,3.6,9.5,8.1s-4.2,8.2-9.5,8.2
		S752.4,496,752.4,491.5z M856.4,472.7l-23.8,33.9l-27.3,31.1l-30-36.2c2.1-2.8,3.3-6.2,3.3-10c0-3.1-0.9-6-2.5-8.5l31-25.3l-3-4
		l-31.8,24.9c-3-2.5-6.8-3.9-11-3.9c-2.5,0.1-4.9,0.7-7,1.8l-66-76.9l-1.7-2.6l3.2-5.4l1.2-3.6l48-9.1l84.7-16.4l31-5.9l15.8,93
		l-1.2,0.3L856.4,472.7z M1013.2,480.8c-1.2,6.5-7.7,5.9-7.7,5.9l-72,22.8c0,0-35.3,11.3-36.1,11.3h-11.6l-5.6-3.5c0,0-3.8-8-5-8.3
		s-1.8-11.6-1.8-11.6v-2.6c1.2,0.1,1.4,0,1.4,0l17.8-2.4l120.9-35.4c0.1,1.3,0.3,5.3,0.3,6.1c0,0.9,0.3,7.1,0.3,7.1
		C1014.1,473.8,1013.8,477.3,1013.2,480.8z M1014.9,450l-20.2,5.6c0,0-101.4,28.1-103.1,28.4s-13,1.8-13,1.8
		c-11.3,1.4-14.8-2.7-15.8-6.1l11.6-18.6c0,0,5.6-8.7,24.7-11.1l92.3-24l22.3-6.4l4,18.8C1021.4,443.2,1014.9,450,1014.9,450z
		 M970.9,424.3l-5.4-23.1l65.5-8.5c4.3-0.7,7.4,0.1,9.3,0.9l3.2,11L970.9,424.3z M1061.7,405.6c-4.4-0.5-7.8-0.2-10,0.1l-9-30.4
		l-10.2-39c0,0-3.1-9.7,5-14.9l9.6-1.9l18.3,78.9C1065.3,401.3,1063.9,403.9,1061.7,405.6z M1101.9,431.7c-6-7.7-13.1-14.4-21-20.1
		c-2-1-3.9-1.9-5.8-2.6l-14.7-56.1l-7.5-34.5l20.7-4.1l4.8-0.9l28.3,122.3C1103.4,433.5,1101.9,431.7,1101.9,431.7z M1129.6,441.6
		c-5.9-0.1-10.7-1-14.5-2.2l-29.2-127.5l25.6-5l32.4,134C1135.5,441.8,1129.6,441.6,1129.6,441.6z M1172.3,434.5
		c-7.2,2.8-14.7,4.5-21.4,5.5l-30.2-122.2c0,0-2.2-7.7-0.9-12.5l25.7-5l29.8-6.3c2.4,2.8,7.2,9.9,0.7,13.2l-20,6.1
		c0,0-8.4,1.2-6.4,12l25.4,108.2L1172.3,434.5z M1180.9,431.4l-25.5-103.1c0,0-3.7-8.3,3.8-11.4l18.4-5.3c0,0,3.3-0.5,4.6,5.9
		l25.1,104.4L1180.9,431.4z M1213.5,419.6l-30.9-127.1l10.3-2.2c2,0.8,5.1,3,6.7,9.5l23.6,116.2L1213.5,419.6z M1235.1,411.6
		l-6.2,2.3L1203.8,300c0,0-2.6-8.2,3.7-12.6c8.4-1.4,17.5-2.1,21.7-2.4l2.3,12l3.4,11.6l5.3,13.6c0,0,2.1,10.1,2.5,11s2.5,11,2.5,11
		l3.4,18.4c0,0,3.6,21,3.7,22.2c0.1,1.2-0.3,7.4,0,9.3c0.2,1.5,1.7,8.5,2.4,11.6C1241.9,408.7,1235.1,411.6,1235.1,411.6z
		 M1275.1,401.2l-0.3,0.7c-4.4,0.6-8.4,1.3-12.1,2.1l-4.4-13.6l-1.5-14.8l-2.7-11.7c0,0-3.7-21.6-4.6-24.3
		c-0.9-2.7-2.8-15.8-2.8-15.8l-5.4-15.7l-1.8-7.1l-2-15.7l11.9,0.8l23.2,81.8c0,0,2.1,8.9,2.1,9.3c0,0.4-0.2,7.1-0.2,7.1
		s0,4.9,0.2,5.3c0.2,0.4,0.7,4.3,0.7,4.3L1275.1,401.2z M1307.4,397.9l-23.4,2.8l-3.6-16.6l-1.8-10.8l-2.8-13.3l-7.8-27.7l-9.3-36.6
		c0,0-2.2-6.1,3.2-8.7l24.1,1.9l22.6,101.4C1308.6,390.3,1309.5,394.9,1307.4,397.9z M1341.9,393.8l-22,2.6c-1.5-1.1-4.1-3.6-6-8.3
		l-9.6-42.4l-11.7-56.4l7.2,0.4l19.7-1.5l41.2-2.7c5.1,1,10.6,3.6,14,10.3l10.5,17.6l-2.2,0.6c0,0-1.9,5.6-15.4,8.3
		c-7,2.2-14.2,3.7-21.6,4.6l-9.2,2.8c0,0-5.2,1.6-3.4,12.6l7.1,37.7l1.6,9.9C1342.3,389.8,1342.9,392.7,1341.9,393.8z M1375.4,389.1
		c-7.4,1.5-13.1,2.2-13.1,2.2l-9.4,1.1c-2.5-1.9-4.5-4.4-5.7-7.3l-4.5-18l-4.6-24.7c0,0-1.4-6,1.9-7.6c5.1-2.4,10.6-4.2,16.2-5.3
		l1-0.2c2.4,0.7,5.3,2.5,6.5,7.4l11.5,49.6C1375.5,387.1,1375.6,388.1,1375.4,389.1z M1400.1,382c-1.3,0.5-2.7,1-3.9,1.4
		c-3.9,1.4-8.1,2.7-12.2,3.7c-1.3-0.9-3.1-2.9-4.7-7.5l-7.6-33.5l-2.8-11.2c0,0-1.4-5.3-0.1-8.4l2.3-0.5l8.4-3l4.6-1.1
		c0,0,3.9-0.4,5.8,1.7l5.5,12.7l6.2,21.2C1401.6,357.6,1404.8,372.6,1400.1,382z M1424.9,373.8c-1.6,0.5-3.1,0.9-4.7,1.4
		c-3.5-0.8-7.7-2.8-10.3-7.4c0,0-8.4-29.3-15.3-44.4c-6.8-15.1-13.5-27.7-13.5-27.7s-2.5-8.4,1.1-11.9l25.6-2.1l18.2,63l5.2,17.6
		C1431.2,362.3,1431.3,368.7,1424.9,373.8z M1462.1,365.3l-14.3,3c-0.4,0.1-0.8,0.2-1.2,0.2c-3.6-1.1-9.1-3.6-11.6-9.4l-22.2-77.9
		c5.3-0.3,18.7-1.1,25.5-1.4c7.5,15.2,13.5,31,17.8,47.3l7.7,29.2C1463.8,356.4,1465.7,361.9,1462.1,365.3z M1528,339.1l-11.7,7.6
		c-3.4,2-7.6,4-12,5.8l-16.7-51.8l-6.3-18.7l-1.2-2.8l27-0.2c3.5,8.9,21,54.4,21,54.4S1528.6,336.1,1528,339.1z M1576.7,284.7
		c6.8,13.3-5.2,25.2-5.2,25.2l-6.5,4.7c-1.8-0.2-4-1.2-5.6-4.5l-13.6-31.5l11.4-0.1C1574.2,278.3,1576.7,284.7,1576.7,284.7z
		 M1556.9,238.7c6.6,7,10.6,16,11.3,25.5c1.3,6.7-5.2,9.5-9.6,10.6c-0.2,0-0.3,0-0.3,0l-8.4-0.1l-3.1-24.8l-2-19.9
		C1552,233.8,1556.9,238.7,1556.9,238.7z M1556,314.5c0,0,1.5,2.9,0.9,5.8l-18.2,11.8c-1.9-0.7-4.5-2.4-6.8-6.6l-16.4-42.1
		c0,0-1-2.9,0.2-4.6l19.3-0.2c3.6,1.7,6.6,4.6,8.2,8.4L1556,314.5z M1513.5,227.1l15.2-1.9c3,0,5.9,0.6,8.7,1.5
		c0.8,1.7,1.9,5,2.4,10.1l2.4,31.4c0,0,1,4-0.5,6.5l-17.4-0.1l-7.7,0.1c-1.1-1.2-2.7-3.7-3.2-7.8l-2.7-34.3
		C1510.8,232.6,1510.6,229.3,1513.5,227.1z M1488.7,230.2l13.4-1.7c1.4,0.6,2.9,1.9,3.5,4.5l2.8,35.2c0,0,0.1,4.3-2.1,6.6l-25.2,0.4
		l-1.3-36.4C1483.7,233.5,1488.7,230.2,1488.7,230.2z M1494.1,340.3l4.4,14.6c-10.6,4.1-20.4,7.1-20.4,7.1l-3,0.6
		c-1.5-1.5-6-6.6-9.3-18.8l-14.1-44.9l-4.7-13.5c0,0-1-3.8,0.5-5.8l24.5-0.3c2.2,1.4,4.7,4.1,6.5,9.3L1494.1,340.3z"/>
	<path class="st1" d="M1206.6,252.1l-1.8,4l5.9,2.8c0,0,3.4-6.8,3.6-7.9c0.1-1,0.7-8.6,0.7-8.6s0.3-15,0.3-15.4
		c0-0.4-1.5-20.1-1.5-20.1l-4.6,0.6l0.9,28.3l-1.3,10.7L1206.6,252.1z"/>
	<path class="st1" d="M1838.6,909.6l-2.6-10.1c0,0-4.7-10.1-5.3-11c-0.4-0.6-1.7-2.8-2.5-4.1l0.8-0.1h0.6l3.7-0.3l7-1.2l7-2.4
		c6.4-1.9,3.7-12,3.7-12l-4.7-21.2l0.4-2.4l37.6-1.9l36.4-1l0.2-3.8l-3.4,0.1c-1.2,0-12.2,0.6-13.2,0.9s-15.3,0.5-15.7,0.5
		s-19.3,0.9-19.7,0.9s-28.2,1.8-28.2,1.8s-6.5,0.3-9.5,0.7s-8.3,2.1-11,2.4s-7.4,1.6-10.1,1.6s-15.1,3.1-16.6,3.3
		s-29.3,6.5-29.3,6.5c-2,0.6-4,1.1-6.1,1.4c-2.3,0.3-11.4,3.5-11.4,3.5l-10.6,3.7l-11.2,3.6c0,0-9.4,2.9-9.8,2.9s-13.4,3.8-13.4,3.8
		l-5.3,1.3c0,0-8.2-0.7-11.8-0.9s-13.4-0.9-14.2-0.8s-17.9,0.3-17.9,0.3l-33.4,1.8c0,0-17,1.1-19.3,1.8s-17,3.2-17,3.2l-39.7,7.9
		l-5.2,1.8c0,0-2.2,1-4.8,2s-5.4,2.3-8.8,3.3s-8.2,3.2-9.7,3.7s-12.9,4.9-12.9,4.9l-18.7,9.9c0,0-6.4,4-7.6,4.5
		c-3.2,1.7-6.5,3.1-9.9,4.5c-2.8,0.9-10.7,4.3-12,4.4s-19.9,2.6-19.9,2.6s-2.9-0.3-4.6-0.6s-8.3-1.8-10.4-2.2c-3.8-1-7.7-1.7-11.7-2
		c-4.6-0.2-12.7-2-14.1-2l-35-0.2l-12.1,0.5l-15.8,0.9l-23.2,3.1l-45.3,6.3l-15.8,2.5l-31.7,4.9l-35.3,5.8
		c-24.9,2.5-37.7-2.3-37.7-2.3l-10.6-3.9l-7.8-4.3l0.6-1.2l4.2-5.8l4.4-7.3l44-47.6h-5.6l-44.7,49.1c-1.5,1.1-3.1,1.9-4.9,2.5
		c-1.2,0.3-2.4,0.4-3.6,0.4l-2.3-0.3l-0.1-0.8l-5.6-18l-5.8-30.7l-7.4-65.3l30.7-52.7l14.9-25.6c0,0,5.3-8.9,2.9-17.3l-3.6-11.4
		c1.8-0.3,3.8-0.6,5.9-1.1c11.6-2.7,3.9-2.7,4.7-3s9.5-2.7,9.5-2.7l8.9,2.7c1.2-2,2.2-4.1,3-6.2c2.1-5-1.2-2.4-1.2-2.4
		c-1,0.5-2,0.9-3,1.2c-1.8,0.6-4.2-5.9-4.2-5.9l1.1-8.8c0.8-1.3,1.4-2.7,1.8-4.2c0.6-2.4-0.3-1.5-0.9-5.3s-3.6-7.4-3.9-8.3
		s-4.7-7.4-4.7-7.4c1.9-1.6,3.7-3.2,5.3-5c1.2-1.5,3.6-11.3,5.3-21s-1.8-3.3-3.6-6.8s-0.9-2.1-0.9-2.1l5.9-1.8l27.8-5l19-2.4l5-3
		c0,0,5-11.9,6.5-14.8s0-14.3-0.8-17.6c-0.9-3.3-2.1-8-2.1-8l-14.5-12.2c-2.2-0.7-4.2-1.6-6.2-2.7c-3.3-1.8-7.7-1.5-9.8-1.5
		s-5.6,1.5-10.1,2.1s-14.5,3.8-15.4,3.8s-10.4,3.8-10.4,3.8s-3.6,2.7-7.1,4.7s-3.3,4.2-6.8,7.7s-2.4,5-3.3,6.8s-2.7,12.5-2.7,12.5
		l-1.5,8.9c-0.4,2.8-1.1,5.6-2.1,8.3c-1.2,2.7-3.3,7.7-3.3,7.7c-4.9,5.9-20.6,7.7-26.9,8.3l-0.8-15.5l-1.9-23.6l-8.9-43l-6.8,1.9
		l9.6,45.7l1.6,29.2c-0.3,0.5-0.6,1-0.8,1.5c0,0.6-2.4,4.3-2.4,4.3l-3.6,1.7c0,0-2.4,0.5-3.4,0.6s-3,0.3-3,0.3l-2.2-0.6l-3.7-1.2
		l-2.1-2.2l-4-2.5l-1.8-2.2l-3.7-6.4l-2.4-3.7c-0.7-1.6-1.3-3.3-1.8-5c0-0.7-2.5-4.9-2.7-5.3s-2.8-4.9-2.8-4.9l-2.8-1.9l-3.6-1.9
		l-3.6-0.6l-7.1,1.3c0,0-38.8,6.2-77.8,16c0,0-25.8,7-38.7,26.7c0,0-11,13.9-14.5,47.9c0,0-1,16.1-2.5,42.2l-0.2,27l1.6,7.6
		c0.8,0.8,1.2,1.9,1.3,3c0.1,1.8,0,3.6-0.2,5.3c-0.3,2.1-0.9,4.3-0.3,4.5s1,1.5,1.6,1.8s3.3-0.3,4.5,0s0.2-0.4,1.2,0.3
		c0.5,0.4,1,0.7,1.6,0.9c0,0,0.2-4-0.3-5.2s-2.1-5-2.1-5.9c0.3-1.6,0.8-3.2,1.3-4.7c0,0,0-0.2-0.1-0.6l2.3,1l3.3,1.5l4.5,1.3
		c0,0,20,6.4,21.3,7.2s3.8,1.3,6.2,2.6c1.8,0.8,3.7,1.1,5.7,1c1.9,0.7,3.7,1.5,5.5,2.4c1.9,0.8,3.8,1.5,5.8,1.9l7.3,3
		c1.9,0.7,3.8,1.5,5.7,2.5c0.8,0.5,4.8,2.4,6.1,3.3s4,2.3,4,2.3l4.8,1.7c0,0,12.2,5.4,14.9,6.2s4.3,1.6,4.8,1.6c1,0.4,2,0.8,3,1.3
		l1.5,0.9l1.9,0.7l-0.7,1.8l10.6,6.3l-21,27.5c-1.1-0.1-2.3-0.2-3.4,0c-2.9,0.2-7.4,0.2-7.4,0.2c-1.7,0.2-3.5,0.4-5.2,0.4
		c-2.1,0-3.5-0.6-8.4,0s-4.7,0.8-9.7,0.6s-10.1,0.3-12.9,0.3h-10.5c-2.3,0-7.1,0.1-8.7,0s-6.5-0.1-9.1-0.1s-3.4-0.2-6.5-0.1
		s-6.7,0.1-7.6,0.1h-6.3l-3.3-0.1c0,0-3.8-0.2-4.4-0.1s-4.7,0.8-5.2,0.9s-3.5,0.6-3.5,0.6l-3.5,1.8c0,0-1.8,1.7-0.8,2.2
		s1.3,0.8,1.3,0.8l2.2,0.8l1.6-0.7c1.7-0.3,3.3-0.5,5-0.6c0.7,0.1,0.4-0.3,1.3,0.6s0.6,4.2,1.5,5.2s0.5,1.6,1.1,3.3
		s-0.2,3.7,0.2,3.9s3.5,14.5,3.5,15.3c0.2,1.7,0.6,3.4,1.1,5c0.3,1.1-0.5,4.4,0.1,6.2s1.8,7.4,2.1,8.3s1,8.2,1,8.2s0.9,4.3,1.1,6.3
		s0.3,5.2,0.8,5.5s4.5,17.8,4.5,18.3s1.9,7.5,2.1,9c0.1,1.6,0.3,3.1,0.6,4.7c0.4,1.6,0.6,2.9,1.1,5.2c0.2,0.5,0.3,1,0.3,1.6
		l-12.9,16.8L903.2,986c0,0-1.2,1.7-3.2,3.9l-7.4-2.2l-2.7-1.3l4.4-5.8l3.6-9.8l-0.5-3.1l-8,12.4c-1.7,1.8-3.8,3-6.2,3.6
		c-4,0.9-7.5-0.4-9.3-0.9s-0.9-7.6-0.5-9.3s1.8-7.5,1.8-7.5l-3.5,1.3L756,970.8c-0.2-1.5-0.4-2.9-0.6-3.4c-0.6-1.5-1.8-6.2-1.8-6.2
		l-1.5-4.7l-3.9,3.3c0,0,0.9,5.5,1.9,10.5c-0.6-0.3-1.9-0.6-4-0.7c-3.8-0.2-4.4-0.2-4.4-0.2l-2.9,0.2c-1.6-0.1-3.3,0.2-4.7,0.9
		c-2.2,1.3-4.6,2.1-7.1,2.4c-1.8,0-2.7-5.9-6.5,0s0,11.9,0,11.9l0.9,3.5l0.9,2.7c0,0,1.4,3.5,2.6,6c-2.4-0.4-6.5-0.4-6.5-0.4
		l-6.9,0.7c0,0-3.1-0.9-2.7-2.4c0.4-1.8,0.6-3.7,0.7-5.6c0,0-0.4-5.8-0.4-6.4s-0.2-4.5-0.2-4.5l1.1-5.5l-176-1.8l-10.5,1.1l-0.4,2.7
		l-156.4,1.1l-92.2,3.8l0.5,18.9l62.7,14.7l16.5,1.6l6.9,0.7l0.9,12.2l-19.6-4.4l-64-15.7l-13.3-3.6l-5.6-2.1l-17.5-0.6l-24,0.6
		l-26.4,1.8l-28.7,3l-19.5,3.3l-22.8,2.7c0,0-10.1,0.3-11,0.3s-11.3-0.9-11.3-0.9l-6.2,0.3c0,0-19.3,0.9-21,0.9
		c-1.7,0-17.2-2.1-17.2-2.1l-31.7-6.2l-23.1-6.8l-0.6,3.8c0,0,21.6,5.6,23.1,5.9s35,6.5,35,6.5l16.5,1.8h16c1.4-0.3,2.8-0.5,4.1-0.6
		c1.2,0,5.9,0.9,8.3,1.2s17.2-0.6,17.2-0.6l18.7-2.1l35-4.7l28.5-3.8l25.5-1.5c0,0,24.6,1.2,25.8,1.2s12.1,1.5,12.1,1.5l81.1,20.7
		l82.4,17.9l-0.9,26.1c-0.7-0.1-1.3-0.2-1.7-0.2c-1.6,0-48.9-24-48.9-24s-6.7-2.5-8-2.7s-17.8-4.4-18.9-4.9s-26-7.6-26-7.6
		s-50.7-12.2-52.9-12.7c-2.2-0.4-9.8-1.5-11.3-1.5s-10.7-1.6-13.3-1.8c-2.7-0.2-13.3,0.2-13.3,0.2s-29.8-1.3-33.8-1.5s-2.9,0-3.8,0
		s-10.5,0.2-10.5,0.2s-13.5,1.1-19.1,2s-19.1,1.8-19.1,1.8s-8.9,2.4-10.2,2.4c-1.3,0-12.7,1.1-18.2,1.1c-3.6,0.1-7.2,0.6-10.7,1.6
		c0,0-10.7-0.5-11.6-0.5c-0.9,0-26.2-3.3-26.2-3.3l-70.2-11.6l-1.1,6.4c0,0,46.4,7.3,48.2,7.5c1.8,0.2,16.2,2.2,16.2,2.2
		s2.2,0.7,4,1.1c1.8,0.4,14.9,0.4,16.5,0.7s12.7,0.7,13.3,0.7h16c4-0.1,8-0.5,12-1.1c0,0,11.5-0.9,15.1-1.3s15.1-1.3,17.8-1.3
		c2.7,0,34.2-2.7,34.2-2.7l5.6-0.7l1.4-0.1l-5,63.4l7.6,0.2l3.9-63.9l1.6-0.1h10l19.3,1.3l14.7,2c0,0,8,0.9,8.7,1.1
		c0.7,0.2,13.8,2.4,13.8,2.4l14,3.6l70.4,17.8l13.1,3.1l10.7,5.1l43.8,27.1l7.3,0.7l13.3,0.4c0,0-1.7-2.2-3.3-3.8l109.5,0.2
		l0.9-15.3c0,0,0.2-13.1,0-15.1s-1.5-4,0.2-5.8s3.1-3.3,3.1-3.3l7.5-2.4H607c0,0,31.3,0.2,34.2,0s21.6-0.7,22.7-0.7
		s17.1,0.4,17.1,0.4l15.3,0.7c0,0,7.3,0.7,10.2,0.7c1.9,0,4.1,0.2,5.7,0.3l2.3,41l7.3,0.2l-5.8-55.8c0,0-0.4-10.9-0.4-12
		c0-0.8-0.3-6-0.5-9.2c1.9-0.4,10.1-2.4,12.3-2.6c1.2-0.1,2.1-0.2,2.9-0.2c0.2,0.1,0.3,0.1,0.5,0.2c1.5,0.7,3.1,1.2,4.7,1.5
		c1.3,0.2,8,1.1,10,1.3s2.5,0,4.2,0.7c1.6,0.6,4.8,3.5,5.9,5.2c0.2,1.8,0.4,3.7,0.4,5.5c0,1.2-2.1-2.1,0.9,7.4
		c3,9.5,0.9,12.7,1.8,15.4s1.8,2.4,0.9,6.2s-1.5,4.7-0.9,6.8c0.6,2.9,0.9,5.9,0.9,8.9c0,2.4,0,1.2,0.3,6.5s0.3,8.3,0.9,10.7
		c0.4,1.6,0.5,3.3,0.3,5c0,1.2,6.8-0.6,8.6-0.6h7.7l-3.8-14.8l74.6-12l-22.9,26.1h8.7c0,0,2.1-2.7,5.5-6.9l180-26.5l16.5-2l3.5,36.2
		l4.5,0.2l-4-36.9l142.5-16.9l190-20.4l179.6-15.1l21.5-2.2c7,2.1,16.7,8,19.9,25l10.7,67.6l9.5-1.2l-8.9-69.9
		c0,0-2.6-17.3,11.7-25.8l80-8.1l12.5-1.4c0,2.1,0.1,4.6,0.1,6c0.2,2.7-0.7-0.3,0.2,3.7s0,5.3,0,5.3c-0.6,0.9-1.6,1.4-2.7,1.5
		c-1.6,0-4.4-0.2-4.4-0.2l-2.1,0.3c0.3,0,0.7,0.3-1.1,3.1c-2.3,3.6-3.1,4-3.1,4l6.8-1.8c0,0-2.1-0.3,2.7-0.4s5-0.2,5.3,2.1
		s0.4,3.8,0.4,3.8l-0.7,2.7l-1.8,5.5c-0.8,1.5-1.8,2.8-2.8,4.2c0,0-2.4,0.7-0.9,0.4s3.3-2.5,5.5-2.5s5.8-0.4,5.8-0.4s-3.3-1.5,4-0.9
		s5.9,1.5,7.3,0.6s-4-3-4-3l-2.8-0.9l-2.8-1.5l-1-4.4l0.4-5.3c0,0,1-1.2,1.6-1.2s1.5-0.2,3.6-0.2s2.2-0.7,4.6-0.9
		c1.5-0.1,3.1-0.4,4.6-0.7l-0.9-1.2l-2.5-0.7c0,0,3.7-1.5-1.2-0.4s-6.5,0.6-6.5,0.6s-1.5,1.5-2.7-1s0.3-0.4-0.2-1.6
		s-0.9-2.5-0.9-2.5l-0.6-3c0,0,0.2-2.8,0.6-3.4c0.4-0.8,0.8-1.6,1-2.5l-0.3-3.1l-0.2-0.9l106.5-12.2c1.3,7.5,4.9,28.6,8.7,43.7
		c0,0,1.7,27.9,19.9,32.6l-10.1,8l-13.9,12.4l-22.2,24.9l10.1-0.6l18.7-21.9l10.7-10.1l26.7-21l20.5-17.2l30.2-18.7l0.9-6.8
		l-38.8,25.2l-22.5,17.8l-5.7,4.5c-4.1-1.3-13.7-5.9-17.4-20.2l-10.1-53.2l93-10.6l0.2-6.4l-27.3,3.5L1781,963l-65.6,7.5l-1.3-3.6
		l-3.1-17.9l-6.1-69.5l3.8-0.5l9.8-3.7l8.2-3c0,0,9.6-3.6,10.1-3.6s6.8-3,6.8-3l9.2-3.1l12.4-3.1l12.2-2.8l4.4,0.9l3.1,0.6
		c0,0,4.9-0.1,6.4-0.1s4,0.1,5.3,0.1s8.2,3.9,8.2,3.9l3.3,4.7l5.6,5.2l5.2,4.9l5.9,8.2l0.2,0l5.4,12.4c0,0,4.1,11.4,4.4,11.8
		s2.5,7.5,2.5,7.5s2.4,5.9,2.8,7.1s3.7,6.5,4.2,7.3s0.4,1.9,2.1,3.7s2.5,3.1,3,3.3s7.8,5.2,7.8,5.2s4.9,1.6,5.5,1.6s7.6-0.4,7.6-0.4
		c1.5-0.4,3-0.6,4.6-0.7c1.6,0,46.8-4.2,46.8-4.2l-0.1-3.3l-47.3,5l-7.3,0.1c0,0-5.2-0.4-6.5-1.3s-2.7-1-4.4-2.8s-3.7-3.4-3.7-3.4
		l-5-5.9l-3.7-6.1c0,0-2.5-5.6-2.5-6.4c0-0.2-0.3-1-0.6-1.9l83.9-8l0.2-3.5c0,0-74.3,8.1-85.1,9.2
		C1838.9,910.3,1838.6,909.6,1838.6,909.6z M631,1027.9c-0.4,1.4-0.6,2.9-0.4,4.4l-1.3,1.6c-3.1,0.6-6.2,1-9.3,1.1
		c-3.6,0-24,0.2-29.1,0.2s-26.9,0.9-30.2,0.7s-4.7-2.2-7.8-3.6s-1.1-4-1.8-6s0-8.4-0.2-10.4s0.9-7.6,0.9-7.6s2.2-2,3.5-3.3
		s4.9-0.9,6.9-1.3s8.2,0.7,10,0.9s7.6,1.1,7.6,1.1s13.3,0.4,15.5,0.4h15.6c1.1,0,10.4-0.9,10.4-0.9l9.3,0.7l1.5,0.7
		c0,0,0.2,2.7,0.2,3.8v5.3c0,2.2,0.5,3.5,0.5,5.3C632.5,1023.4,631.9,1025.7,631,1027.9z M711.9,1024.8c0,0.7-2.9,9.1-2.9,9.1
		s-11.3,1.6-13.6,1.6h-21.8c0,0-12.7-0.2-14.9-0.2s-9.3-0.2-12.5-0.2c-2.5-0.1-5.1-0.4-7.5-0.9l-2.9-3.1l0.9-7.8l0.7-14l0.7-5.5
		h73.6c0,0,0.7,6.4,0.9,8.7S711.9,1024.1,711.9,1024.8z M751,995.4c-1.1,0-6.7,0.2-6.7,0.2l-8.7-1.6c0,0,2.2-0.2-1.6-1.5
		c-2.3-0.8-4.5-1.9-6.4-3.3l-4.7-8c0,0-1.6-1.1,0.9-3.1s5.8-3.8,8.4-4c1.7-0.1,3.4-0.1,5.1,0c0,0,3.1,0,6.2-0.2s2.7-0.9,4.7,0.7
		c1,0.8,2,1.5,3.1,2.2c0-0.1,0-0.3-0.1-0.4c0.1,0.6,0.3,1.1,0.4,1.7c0.6,0.8,0.6,11,1.8,15.8C752.5,994.7,751.5,995.4,751,995.4z
		 M1160.4,954c4-0.3,15.8-1.9,15.8-1.9l4.4-0.7l5-1l10.3-1.4l9.2-1.3c0,0,6.2-0.9,7.6-1.2s10.7-1.3,15-2.2c0.9-0.2,2.2-0.4,3.5-0.6
		l0.6,4.9l-0.7,4l-4.9,4l-1.6,3.5c0,0-1.6,3.3-1.1,4.2c0.9,2.6,1.7,5.3,2.2,8c0,0.9,2.7,10.9,2.7,10.9l2.2-1.1l-3.6-17.3
		c0,0-0.4-4.5,0.4-5.3c0.8-0.8,4.6-4.4,5.9-5.5l4.3,35.1l0.9,5.3c0,0-1.3,5.3-2,6s-8.7,2.5-8.7,2.5l-29.3,3.3l-1.7-8.6l12.6-12.4
		c0,0,5.6-4.9,3.6-16.9c-0.2-1.3-3.8-19.3-3.8-19.3l-6.7,0.9c0,0,7.6,17.3,5.1,27.5c0,0-2.6,11.5-11.7,15.9l-8.5-42.5l-3.8,0.9
		l9.5,55.2l-31.1,3.5l-7.5-55.8C1156.3,954.3,1158.4,954.2,1160.4,954z M1132,947.8l5.9,3.7l4.4,1l5.2,1l2.9,0.6l8.1,56.5l-25.3,2.9
		l-10.7-70.3L1132,947.8z M1117.9,940.9l11.1,73.1l-24,2.8l-5.3,0.6l-15.3-90.3l2.4,0.7c0.4,0.2,7.6,2.4,7.6,2.4l13.6,5
		L1117.9,940.9z M1064.5,922.8l11.2,1.8l5.3,1.5l15,91.7l-15.4,1.8l-3.1-0.6c0-0.4,0-0.8,0-1.2
		C1077.7,1017.3,1066.1,934.3,1064.5,922.8z M1100.4,928.6c0,0,0.1,0,0.1,0c0.4,0,1.1,0.2,1.9,0.7L1100.4,928.6z M1160.1,677.9
		L1160.1,677.9c0.3,1.4,0.9,4.7,0.9,4.7l-8.2,6.7c-2.5,1.6-5.2,2.8-8,3.6c-5.1,1.5-12.7,3.3-12.7,3.3l-10.7,4.7c0,0-2,1.3-6.9,0
		s-2-4-2-4l2.4-4.9l5.8-6.5l1.1-2.9c2.2-0.2,4.5-0.5,6.7-0.9c1.3-0.5,6.9-2.5,6.9-2.5l6.4-3.3l6.2-5.6l3.3-1.1l4,0.2l2.7,2
		C1158.1,671.5,1159.9,676.6,1160.1,677.9z M1109,678.8l-0.7-7.3l4.7-4.7l3.6-2.2c2.1-0.1,4.2-0.1,6.2,0.2c4.4,0.4,1.1,2.9,1.1,4.2
		l3.1-2.2c0,0,11.8,0.2,13.3,0.4s-3.4,3.7-3.4,3.7l-7.1,4l-6.7,2.7c-2.1,1.1-4.2,2.1-6.4,2.9c-2.2,0.7-3.6,3.1-6.4,3.1
		s-0.9-1.3-0.9-1.3l0,0L1109,678.8z M1202.8,572.2c0,0,0.9-9.1,1.3-9.8s1.1-3.5,3.1-3.8s5.3,0.9,7.3,2.2s5.1,3.5,5.1,3.5
		c1.3,2.7,2.4,5.4,3.3,8.2c0.9,3.1,0.2,10.6-0.7,13.3l0,0c-0.9,2.7-4.2,7.1-4.2,7.1l-0.4,5.8c0,0-2.2,4.2-2.9,5.1s-3.8,1.1-4.4,1.8
		s-7.6,1.3-8.9,2.4s-4.2-1.1-4.2-1.1s1.8-19.1,2.2-20.2S1202.8,572.2,1202.8,572.2z M1177.9,598.4c0.6-2.2,1.1-4.4,1.3-6.7l-0.4-4.7
		c0,0,0.2-7.3,0.4-8s0.2-7.1,0.2-7.1v-6.7l0.4-5.8c0,0-0.4-1.1,1.8-1.3s2.7-0.9,5.1-0.9s3.3-3.5,6.9-0.2s3.3,4.2,3.8,6.7
		s-0.9,10.9-0.7,11.8s-1.6,9.7-1.4,10.6l0,0c0.2,0.9-1.8,8.9-1.8,10.5c-0.3,2.3-0.9,4.5-1.8,6.7c-1,1.7-2.3,3.2-4,4.2
		c-1.6,1.1-4,1.8-6.9,2.2s-6.7,0.9-6.7,0.9v-0.9c0.7-0.2,0.2-4.2,1.3-5.8S1177,601,1177.9,598.4z M1142.6,606.8
		c0.7-2.2,2.4-7.6,2.4-7.6v-8c0-1.5-0.4-6.7-0.2-7.3s2.4-5.1,2.4-5.1s0.2-4,2.2-6.2c1.6-2,3.7-3.7,6-4.9c2.7-1.3,0.9-3.3,6.4-3.6
		c3,0,6.1-0.7,8.9-1.8c0,0,1.3,4.2,2,6s2.4,9.3,2.4,9.3s0.2,9.3,0,11.5s-1.3,6.7-2.2,10.9c-0.8,3.6-2.4,7-4.7,10l0,0
		c-1.6,1.8-0.7,2.7-6.7,3.3s-4,0-11.1,0.7c-3.2,0.2-6.4,0.7-9.6,1.3C1141,615.5,1141.9,609,1142.6,606.8z M1108.6,640.2
		c1.8-5.3,3.3-9.1,3.3-9.1s5.8-2.2,8.2-3.3s9.6-2,12.9-2.9s8.2-2.2,9.8-2.2s1.8-1.3,7.3-0.5s7.3,2.5,8.7,4.7s0.9,8,0.4,9.5l0,0
		c-0.4,1.6-1.1,6.9-1.6,7.6s-5.1,5.8-5.1,5.8s-4,4.9-8,6.2s-8,1.8-10.9,2.4c-2.5,0.5-5,0.8-7.6,0.9c0,0-3.8-0.7-5.1-1.1
		s-5.3-2.4-5.3-2.4l-3.6-1.1l-1.8-3.8C1110.4,650.8,1106.8,645.5,1108.6,640.2z M1106.1,711.5c0.8,0.1,1.7,0.1,2.5,0.2
		c2.1,0,5.3-1.8,10.1-3.3s6.5-0.6,8.3-1.2c0.8-0.3,2.5-0.2,5.1-0.2c3.9,5.5,6.6,11.8,7.8,18.4c-0.2,3.6-1.1,7.1-2.9,10.2l-41.7,68.8
		l-1.9-16.4l-3-37C1091.3,749.9,1103.4,731.3,1106.1,711.5z M1071.9,728.9c-1-3.5-1.6-7.1-2.8-7.1c-0.8,0-1.5-0.2-2.2-0.6
		c0,0-1.2,0-0.2-2.4s3.6,1.3,1.5-4.3s-3.1-3.3-3-7.1c0.1-1.7,0.1-3.3-0.2-5c0,0-2.1-0.9-2.4-2.7c-0.2-1.1-0.6-2.7-0.9-3.9
		c0.4-0.2,1-0.4,1.7-0.8l6.5-2.8c0,0,4.4-0.6,6.1-1l3.3-0.9c0,0-0.2,0.2,3.4-0.7c2.9-0.7,3.8-0.3,4.4-0.2l0,0.1l8.2-1l2.4,2.2
		c0,0,0.3-0.7,0.7,1.3c0.3,1.3,0.4,2.6,0.4,3.8c0,0.3,0.5,2,0.7,2.8l-1.4,13.4c-0.4,1.7-0.8,3.4-1.2,5.1c-0.2-0.4-0.6-0.6-0.9-0.2
		c-0.7,0.9-2.4,2.5-2.4,2.5s-3.4,2.2-3.8,4c-0.8,2-1.7,3.9-2.8,5.8c0,0,0,0.6-2.2,2.2c-2.1,1.4-4.3,2.7-6.5,3.8
		c-1.1,1-2.2,1.9-3.4,2.7c-1.7,1-3.4,1.9-5.2,2.7c-1.2,0.6-1.8,0.3-3.3,1.3s-4.7,1-4.7,1l-0.2-2.4c0,0,0.4-1.6,3.4-3.1
		s3.4-1.8,3.4-1.8l3.1-4C1071.6,731.9,1073,732.4,1071.9,728.9z M1067.2,749.6c0.6-1.2,3-2.7,5-3.8s3-1.9,4.9-2.5
		c1.9-0.8,3.7-1.7,5.3-2.8c1-0.6,5.2-3.1,5.2-3.1s0.9-0.7,1.9-1.5c0.7-0.5,1.6-1.3,2.1-1.7c-0.3,0.8-0.7,1.6-1,2.4
		c0,0-3.9,6.5-10.1,15.3l-3,0.5c0,0-6.2,2.4-8,1s-2.8-1.8-3.3-1.8c-0.9-0.2-1.8-0.4-2.7-0.7C1063.7,750.9,1066.7,750.8,1067.2,749.6
		z M1080.1,642.9c0.3-1.2,0.3-3.9,0.7-4.6s0.2-1.5,1.6-2.5s3-1.9,4.3-1.9s3.7-0.3,5.2-0.3s2.2-0.2,2.7,0.2s1.9,1.2,1.9,1.2l3.1,1.7
		l0.6,11.1l0.5,25.5l-1.8,4.2c-0.2,1-0.6,1.9-1.3,2.7c-0.8,0.8-2,1.2-3.1,1c-0.7-0.1-1.3-0.3-1.8-0.7l-0.7-1.3l-1.2-1.3l-7.8-20.6
		l-2.8-9.3C1080,646.1,1080,644.5,1080.1,642.9z M1034.2,597.4l5-1.4c0,0,4.9-0.7,5.5-0.7c1,0.3,2.1,0.5,3.1,0.6
		c2.1,0.2,1.9,1.2,5,2.1c1.6,0.3,2.9,1.2,3.8,2.5c0.4,0.3,3.9,6.5,3.9,6.5l3.1,7.3c0,0,3.6,5.8,4.1,7.3s1.8,5,2.5,6.7
		s2.5,5.9,2.5,5.9l2.4,6.4l2.4,11.4l2.5,8.1l4.7,21.5l0,0.1c-0.6,1.6-2.3,4-6.9,5.5l-16.3,3.2l0.1-2.5c-0.3-0.9-0.7-1.7-1.2-2.5
		c-0.8-1.3-1.3-1.3-1.8-3.6c-0.3-1.5-0.8-3-1.5-4.4l-1.6-2.7c0,0-1.8-8-2.1-8.6s-1-2.7-1-2.7s-1.2-8.4-1.3-8.9
		c-0.9-1.3-1.7-2.8-2.2-4.3c-0.6-1.7-1.4-3.3-2.4-4.8l-5.6-14.5l-7.1-30.7L1034.2,597.4z M1025.5,599.4c1,1.1,2.1,2.5,2.3,2.8
		c0.3,0.5,0.9,1.2,2.4,5.2s3.1,10.8,3.8,13.2s2.5,7.5,3.3,9.3s2.1,7,2.5,8.6c0.6,2.4,1.3,4.7,2.1,7c0.9,2.2,1.8,5,1.8,5
		s5.8,20.9,5.9,21.3s1.9,7.1,2.5,8.6c0.7,1.9,1.3,3.9,1.6,5.9c0.4,1.3,0.7,2.7,0.9,4c0,0.3,0.1,0.7,0.3,1.3l-26.8,5.3l-5.3,0.6
		c-0.7,0-1.4-0.1-2.1-0.3c-0.6-0.2-1.3-0.4-1.9-0.5c-0.4-0.1-0.8-0.2-1.2-0.4c-0.8-1.6-1.7-3.7-1.8-4.1c-0.1-0.7-1.2-4-1.2-4
		s-2.8-8.7-2.8-10.5s-3.1-10.5-3.9-13s-2.5-5-3.1-7.8s-2.1-5.3-2.1-7.7c-0.1-2.1-0.3-4.3-0.6-6.4c-0.7-1.5-1.2-3-1.6-4.6
		c-0.3-1.6-1.8-4.3-1.8-5.8s-1.5-5.6-1.6-6.7s-2.2-5.5-2.4-6.5s-2.8-8.4-2.8-9c0-0.4-0.6-2.9-0.9-4L1025.5,599.4z M975.4,609.2
		l5.2-0.7l6.5-1.3l26,91.8c-1,0.6-1.9,1.1-3,1.6c-0.6,0.1-1.1,0.2-1.6,0.4c-1.3,0.4-4,1.2-4,1.2l-2.5,0.4l-1.6,0.2l-2.8,0.2
		l-1.8,0.9c0,0,0,0,0,0L993,700l-15.8-74.7l-3-15.8C974.5,609.4,975,609.3,975.4,609.2z M946.8,619.7l8-4.7c0,0,5.9-2.1,7.1-2.5
		c1.3-0.6,2.6-1.1,4-1.3c1.3-0.1,2.6-0.5,4-0.7l20.1,94.5c-1.2,0.3-2.5,0.7-3.7,1.2l-3.3,2.1l-4.6,1.6l-2.8,0.4l-4.7,0.9
		c0,0-0.6-0.6-2.5,0s-7.4,1.6-7.4,1.6h-1.3c-0.6,0,2.5-1.2-0.6,0l-2.2,0.8l-7.9-28.3l-12.9-41.8l-3.2-10.9
		C936.3,628.5,941.1,623.6,946.8,619.7z M916.8,681.3c0.2-0.8,0.2-6.8,0.7-9.2s1.9-18.7,9.5-31.5c0,0,0.1-0.1,0.2-0.2
		c1.4-0.4,2.9,0,3.7,2.9l21.2,71.4l-2.4,0.4c-0.9,0.1-1.7,0.5-2.4,1c-1,0.6-2,1.2-3,1.6c-1.3,0.1-2.5,0.3-3.7,0.7
		c-1.7,0.6-3.4,1-5.2,1.3l-4,1l-3.8,0.7h-3l-3.7,0.2l-3.5-1.1c-0.5-2.8-1.2-6.2-1.2-6.6c0-0.7,0.4-5.2,0.4-5.2l-1.2-8.3
		C915.5,700.3,916.7,682.1,916.8,681.3z M917.2,754.5c-0.2-0.9-0.4-1.6-0.5-1.7c-0.8-1.9-1.2-3.9-1.2-5.9c0.2-2.2,0-10.1,0.3-11.1
		s0.3-3.4,1.2-4.9c0.1-0.1,0.1-0.2,0.2-0.3c0.1-0.1,0.3-0.1,0.4-0.2c2.1-1.2,0.6-1.2,5.5-2.5s8-2.7,9-3s1.6-0.3,6.8-1.9
		c2.3-0.8,4.6-1.4,7-1.9c1.7,0.1,3.3-0.2,4.9-0.7c1.2-0.4,1.9-0.6,2.7-0.8l9.7,50.9l0,0.4L917.2,754.5z M1034.6,774.5
		c0,0.7-0.3,6.8-0.4,7.4s-1.6,4.3-1.6,5.8c-0.1,1.3-0.3,2.7-0.6,4l-3.6,3.8l0,0l-0.8-0.3c-1.9-1.3-4-2.4-6.2-3.2
		c-2.4-0.7-4.7-1.6-7-2.7c-3.5-1.4-3.8-1.1-5.9-2.2s-6.7-2.5-9.5-3.7s-3-1.6-5.1-2.1s-5.5-2-6.1-2.2l-8.7-2.8l-10.5-3.7l-10.3-54.3
		l0-0.1c1.6-0.5,2.6-1,3.9-1.3c0.8-0.3,1.7-0.5,2.5-0.7c1.5-0.3,3.8-1,5.3-1.5s1.3-0.9,3.8-1.2c1.5-0.2,3-0.5,4.5-0.9
		c0,0,0.9-0.3,5.6-1.3s5.2-1.2,5.2-1.2l2-0.5l0.5,2.4l5.5,25.5l2.8,7.7l2.1,4.6l1.6,3.3c0,0,0.4,0,1,2.4s1.3,4.4,1.5,5
		s1.9,3.8,1.9,3.8s4.2,6.1,4.9,6.1s2.8,2.1,2.8,2.1l4.7-3.3c0,0-11.1-13.8-11.3-14.2s-1.5-3-2.4-4.6s-2.5-4.2-3.3-5.8
		s-2.5-7.8-2.5-7.8c-0.5-2.1-0.7-4.3-0.7-6.5c0.1-1.8-0.3-3.6-1-5.2c-0.6-1.6-2.1-5.3-2.1-5.3s0-6.7,0.2-7.1
		c-0.2-1.7-0.5-3.4-0.8-5.1c0.3-0.1,0.8-0.2,1.2-0.4l2.8-0.6c0,0,0.4-0.6,3.4-1.2s1.6-0.7,3.6-0.7h7.1l1.8,6.3l7.7,29.3
		c1.7,6.1,5.2,11.5,10.1,15.5l0.9,9.8C1035.1,765.6,1034.6,773.7,1034.6,774.5z M1032.9,740.5c-1.2-1.2-3.6-5.8-4.6-7.3
		s-3.6-6.4-3.8-8.3s-2.1-7.8-2.8-11s-2.1-4.3-2.1-6.2v-4.4c0.5-0.2,1-0.5,1.2-0.6c0.6-0.6,2.8-2.2,3.6-2.2c1.5,0.2,3.1,0,4.6-0.4
		c3-0.7,6.4-1.8,7.6-1.8s5.3-1.3,7-1.3s5-0.5,7.3-0.5c0.9,0,1.9,0,2.8,0.2c0,0,0.6,1.2,2.9,1.1c1.1,4.4,2.2,9.4,2.1,11.3
		c-0.1,2.2,0,4.4,0.4,6.5c0.1,1.7,0.1,3.5,0,5.2c0,1.6,0.7,2.4,0.9,3.3c0.1,0.7,0.2,1.4,0.2,2c0,0-0.2-0.5-1.2,0.7s-0.9,0-1.8,2.2
		s-1.2,1.8-1.3,3.6s1.6,1.8-0.9,3.5s-2.2-0.7-4.2,2.7s-6.2,4.4-7.1,4.9c-1.3,0.4-2.6,0.5-4,0.6l-3.1-2.1
		C1035.1,741.9,1033.9,741.3,1032.9,740.5z M1036.7,793.6c0.7-1.5,2.5-5.9,2.5-5.9s0.9-0.9,1.3-5.5s0.3-4.5,0.4-6.8
		s-0.2-3.3,0.3-6.2s-1.6-1.8,0.4-4.9c1.2-1.8,2.3-3.6,3.3-5.5c0,0,3.3-3.8,5.3-3.8s3.6-1.2,6.7-0.2s3.8,0.9,7.3,2.4s5,0.2,6.1,2.2
		s1.3,1.5,1,3.7c-0.2,1.4-1.1,2.5-1.2,2.8c-2.8,3.5-5.7,7-8.8,10.4l-17.8,23.3l-4.7-1.2l-1.8-1.2
		C1037,797.2,1036,795.1,1036.7,793.6z M1022.4,840.6l43.6-57.7l20-25.9l12.6,126.4c0,0,4.9,32.2,7.8,41.3l-10.4-0.5l-4.1,1.4
		l-2.6-0.9c-14.8-5.1-33.1-6.3-33.1-6.3s-5.7-0.2-6.6-0.2h-9l-12.5-0.4l-5.9-69.6L1022.4,840.6z M933.1,934.4c0-2.6-0.5-3.7-0.3-5.1
		c0.1-0.4,0-1.2-0.2-2.1h11c1.1,0,2.3-0.1,3.4-0.3h2l-3.3,4.6l-10.9,14.2c-0.5-1.2-1.3-3.5-1.1-4.9
		C933.9,938.8,933.1,937,933.1,934.4z M957.9,927c0.6,0,1,0,1,0h2.8c0,0,3.7-0.4,4.7-0.6s11.3-1.5,11.3-1.5l8-0.3l4.6-0.7l5.9-1.6
		l4-0.1c0,0,5.2-0.3,7-0.3s9.2-0.2,9.2-0.2l5.3-0.6l2.2,0.1l1.6,16.5l-1.3,0.1c0,0-14.4,2.7-18.9,4s-17.5,1.5-20.7,2.9
		s-21.8,3.5-24,3.8s-9.1,1.3-9.1,1.3l-7.3,0.9l-5.5,0.6L957.9,927z M1021.7,896.8l2,21.1l-11.4,0.7c0,0-8.7,0.4-9.2,0.4
		s-7.2,1.4-7.9,1.4s-13.3,2.2-14.7,2.2s-13.8,1.1-13.8,1.1l-6.4,0.1l6-7.6l18-24.2l36.5-3.8L1021.7,896.8z M1016.4,848.6l3.9,35.8
		l-23.2,3.1l-9.9,0.5L1016.4,848.6z M918.9,854.9c0-1.9-0.1-3.9-0.5-5.8l0.2-4.7c0,0-0.3-0.3,1.8-0.7s1-0.6,4.7-1s3.6-1.1,6.2-1.2
		c2.1-0.3,4.2-0.3,6.3-0.1c5.3,0.2,4.5-0.3,8.2-0.3s3.7-0.9,6.7-0.5s4.7,1.3,7.2,1.4s-2.9-0.7,7-0.8s10.8-0.2,10.8-0.2
		s0.7-0.4,3-0.1c2.1,0.3,4.2,0.2,6.2-0.2c0.8-0.2,1.6-0.3,2.4-0.3c1.1-0.1,3.2,1.1,4.3,1.1c0.6,0,1.2,0.1,1.8,0.2l1,1
		c1.2-0.6,2.5-1,3.8-1.1c1.2-0.1,2.3-0.4,3.5-0.8c0.7-0.2,1-1,2.4-0.5s1.6,1.2,3.4,0.9c0.9-0.1,1.7-0.1,2.6-0.1l-22.2,30h-1.4
		c-1.4-0.1-2.7-0.4-4-0.8c0,0-0.9,0-3.2-0.1s-1,0-3.9,0.2c-1.8,0.1-3.6,0.1-5.3-0.1c-1.3,0-2.6-0.1-3.9-0.3c-2.2-0.3-3-0.4-12.1-0.1
		s-4.2-0.2-5.9-0.3s-4.6,0.1-7.8,0.2s-7,0-8.7,0s-7.1,0.1-11,0.4c-0.4,0-0.7,0.1-1,0.1c0.2-1.9,0.3-1.1-0.7-6
		C919.8,858.3,918.8,857.1,918.9,854.9z M925.3,890.8c0-0.5-0.1-1.9-0.1-1.9s-2.7-10.6-2.3-11.6c0.3-0.9-1.1-0.6-1.3-3.8
		c0.7,0,1.3-0.1,1.5-0.1h1.5c0,0,3.8,0.1,4.8,0.1s10.6-0.1,10.6-0.1h4.2c0,0,3.1,0.2,10.6,0.6s7.2-0.2,7.2-0.2s5,0.2,7,0.2
		s2.6,0.2,5.8,0.2c3.1,0,11.4,0.2,12.7,0.3l-10.3,14l-51.7,2.5C925.3,890.9,925.3,890.8,925.3,890.8z M931.3,921.1
		c-0.5-1.3-1-2.6-1.7-3.8c0,0-1.7-3.3-1.7-4.7s-0.7-3.9-0.7-5.7c-0.1-1.9-0.3-3.7-0.7-5.6l-0.9-5.5c0,0,0-0.6-0.1-1.5l26.5-0.4
		l19.9-0.7l1.6-0.2l-22.5,30.9l-3.4,0.1c0,0-10.6-0.9-10.9-0.9C936.7,923.2,933.5,922,931.3,921.1z M917,979.3l20.3-26
		c1.4,0.3,2.8,0.3,4.1,0.1c2.9-0.4,18.5-3.1,21.8-3.1s32.7-4.7,40.5-5.5s15.3-2.9,16.4-2.9c0.8-0.1,1.5-0.3,2.3-0.5l-5.3,28.8
		l-4.5,3.2c0,0-10.9,2.9-11.6,2.9s-74.4,9.1-74.4,9.1l-9.2,1.5l-1-6.8C916.6,979.8,916.8,979.6,917,979.3z M920.7,1010.9l25-3.9
		l43.1-6.4c0,0,14.9-1.6,15.8-1.6h4.4l2,3.6l0.1,0.3l-1,5.3l-3.1,12.2l-6.9,6.4l-6.4,3.6l-4.7,1.6l-14.9,2.2l-44.6,7
		c-4.5-1-5.4-5.9-5.4-5.9L920.7,1010.9z M921,1033.7v5.3c0,0.5-1.5,2.6-2.4,3.9l-12.1,1.9l-43.8,5.1l-3.7,0.6
		c11.7-14.5,23.2-28.6,23.5-28.8c0.2-0.1,2-2.3,4.6-5.5l30.3-4.8L921,1033.7z M1009,994.6c-0.7,0.5-12,2.7-12.7,3.1
		c-0.6,0.4-59.6,9-75.9,11.4l-2.7-19.3c19.7-2.8,70.6-10.1,70.6-10.1l19.6-2.5l7.3-0.7l0.7-0.2l-2.9,15.8
		C1011.8,992.9,1009.5,994.2,1009,994.6z M913.1,984.3l0.5,3.1l0,0.2l-4,0.8C910.9,987,912,985.7,913.1,984.3z M905,994.1l1.3-2.2
		c0.3-0.3,0.7-0.7,1-1c0.9-0.1,1.9-0.1,2.8-0.1c0.1,0,1.6-0.2,4-0.5l3.1,19.3c-0.5,0.1-0.8,0.1-0.8,0.1l-26.5,3.2
		C896.4,1004.8,905,994.1,905,994.1z M761.4,998l-1.5-4.2l-2.7-13.9l0.7,0.2l13.3,0.5h8.9c1.8,0,8.5,1.3,8.5,1.3l1.8,0.9l1.3,5.3
		l0.9,7.1c-2.4,0.3-4.7,0.5-7.1,0.5c-4.4,0-3.1,0.9-10.2,1.8C770.6,997.9,766,998.1,761.4,998z M772.7,1064.5l-0.4-1.4l-2.7-10.7
		l-0.9-6.5c0.1-4-0.3-8-1.2-11.8c-1.5-7.7-4.2-19-4.2-20.7c0.2-2.1,0.2-4.2,0-6.2c-0.2-1.3-0.4-2.6-0.6-3.9l86.2-4.8l27.6,0.9
		c0,0,8.2-1.1,13.4-1.8c-1.3,0.7-2.8,1.3-4.3,1.7c-9.2,2.8-18.6,4.4-28.2,5l-55.7,2.2l-38.1,1.8l0.6,5.8l88.9-3.1
		c0,0,20.8-0.5,36.6-7l-36,45.1l-2.4,2.7L772.7,1064.5z M1024.1,1015.4c0,0-1.5,20-14.9,22.2l-38.4,8.9l-12.5,5.5
		c-48.7,7.1-99,14.5-113.9,16.7c3.5-4.3,7.5-9.3,11.7-14.4l16.6-2.7l31.1-4.4l60.4-8.4l24.7-4c0,0,18,0.7,24.4-18.9l12.8-73.5
		l2.2,22.9L1024.1,1015.4z M1028.3,921.4l12.8-0.1l16.9,0.4l2.2,0.4l14,96.3l-1.4-0.3l-5.6-3.3c0,0-2-2.9-2.4-3.6s-2-4.9-2-4.9
		l-5.3-16.9c-3.1-14.4-15.6-36-15.6-36c-3.9-8.3-9.5-12.7-12-14.3L1028.3,921.4z M1708.6,971.2l-17.3,2l-96.7,10l-145.1,12.2
		l-121.8,11.8l-134,14l-111.9,13.4c-9.2-1.4-20.2-4.6-26.1-11.8l-19.1-46.5l-4.5-11.4l-1.8-21.2c12,9.9,21.9,40.4,21.9,40.4
		s5.1,19.8,5.3,20.5s3.8,8,3.8,8c8.2,14.2,28.9,9.1,28.9,9.1l63.3-7.6l75.8-8.2c0,0,6.2-1.3,11.6-2.9s2.2-3.6,2.2-4.4
		s0.2-2.7,0.2-2.7l8.7,2h8l7.6-0.2l-0.4-2.2l-2.7-1.8l-1.1-3.6c-1,0.2-2.1,0.3-3.1,0.2c-2.2,0-0.7,3.1-0.7,3.1l-0.7,2.7l-1.6,0.5
		c-1.2,0.1-2.4,0-3.6-0.2c-1.5-0.4-3-0.9-4.4-1.5c-1.8-0.7-3.3-1.3-3.3-1.3l-1.6-4l-6.8-40.3c0-0.1,0.1-0.1,0.2-0.2
		c1.1-1.4,2-2.9,2.9-4.4l1.9-2.2c0,0,0.1,0,0.1,0s41.9-7.8,45.5-8.1s11-1,13.3-1.6s8.1-0.9,8.9-1.2s13.5-1.3,14.5-1.3
		s24.6-2.2,25.9-2.4s29.2-0.7,29.2-0.7l8.8,0.7c0,0,9.5,1,9.9,1s10.1,1.5,10.1,1.5l6.8,1.6c0,0,7,2.1,8.4,2.1s11,1.2,11,1.2
		s11.4-0.3,12.3-0.4s6.1-0.9,6.1-0.9c1.7-0.4,3.4-1,5-1.6c1.4-0.5,2.8-1.1,4.1-1.9c1.3-0.9,4.9-1.9,5.3-2.2s4.4-2.2,4.4-2.2l7.1-4.2
		l6.8-3.3l16.9-8.9l16-7l22.8-8.3l13-2.8l28.3-5.6c0,0,30.1-4,30.5-4s39.6-2.7,39.6-2.7l18.7-0.1c0.4,0,14.8,0.7,14.8,0.7l10.2,0.1
		h2.1L1708.6,971.2z M1823.9,876c-0.6-0.2-3-1.5-3.1-1.9c-0.6-1-1.2-2-1.6-3.1c-0.6-1.3-1.3-2.6-2.2-3.7l-1.9-5.9l-0.4-4.5l2.8-5.9
		l3.4-1.5l8.7-1.3l8-1.3h3.1c0,0,1.9,12.3,2.4,13.2s-0.3,5-0.4,6.5h0c-0.2,1.5-1.8,3.8-2.2,4.6c-1.7,1.7-3.6,3.3-5.6,4.6
		c-0.6,0.1-8,0.3-8,0.3C1825.8,876,1824.9,876,1823.9,876z"/>
	<path class="st1" d="M1699.9,994c-0.1,0-0.1,0-0.1,0L1699.9,994z"/>
	<polygon class="st1" points="1889.9,1018.9 1855.8,1047.1 1837.2,1063.4 1821.4,1082 1819.4,1084.1 1828.8,1084.1 1842.2,1066.3 
		1868.6,1044.4 1897.6,1020.4 1923.4,1003.5 1922.8,998.5 	"/>
	<path class="st1" d="M788.6,961.4l80.9-6.7l4.5-63.6l0.9-1.8c0,0-22.7,36.4-25.8,37.8s-24.4,20.5-24.4,20.5L788.6,961.4z"/>
	<path class="st1" d="M522.1,840.1l-0.4,2.2h19.1c8.4,0,7.5,8,7.5,8v8h-4.9v2.9h16.9V859h-9.8c-0.9,0,0.4-8.7,0.4-8.7
		c1.3-8.7-10-9.8-10-9.8L522.1,840.1z"/>
	<path class="st1" d="M97.3,502.8c0,0,1.8,1.5,3.5,3.3c1.4,1.3,2.8,2.3,4.5,3.3c0,0,5.6-5,6.5-5s6.5-2.7,6.5-2.7s-5.6-0.9-7.7-0.9
		c-4.6-0.6-9.2-1.6-13.6-3c-2.1-0.9-7.1,0.9-7.1,0.9l-17.8,2.1l-14.7,1.6c-25.3,6.7-33.8-3.1-33.8-3.1l-24.9-40.4l-1,5.5l19.6,33.8
		l4.4,5c1.4,1,2.9,1.9,4.5,2.7c0.9,0.3,6.8,3,8,3.3s7.4,0.6,7.4,0.6s8.6-2.1,11.6-2.1c3,0,11.3-3,11.3-3l22.5-1.5L97.3,502.8z"/>
	<path class="st1" d="M1212,720.2l-5,3.9l-45.6,64.6c0,0-19.6,29.6-16.6,59.3l3.6,40l17.5-11.5l7.4-2.4l24-3.3l52.2-8.6l-12.2-3.9
		l-21.9,4.5l2.4-4.2l-8.9-13.3l-12.4-19.9l-4.2-17.2c0,0-2.1-16-2.1-16.9s2.7-18.4,3.6-20.2S1212,720.2,1212,720.2z"/>
</g>
<g id="Buildings">
	<ellipse class="st2" cx="532.8" cy="88" rx="11" ry="10.4"/>
	<polygon class="st2" points="665,422.8 661.7,412.1 649.3,414.5 653.2,426 	"/>
	<polygon class="st2" points="701.4,281.7 701.4,285.3 697.6,286.5 699.4,292.1 703.2,290.9 704.1,293 706.5,292.1 703.5,281.1 	"/>
	<polygon class="st2" points="450.2,449.7 439.8,441.7 426.5,458.3 437.2,466.9 	"/>
	<polygon class="st2" points="375.2,411.5 371.1,408.3 364.3,415.1 367.2,418.3 	"/>
	<path class="st2" d="M325.7,389.9l-0.9-2.7l3.8-2.1l-2.1-5.3c-1.2,0.5-2.5,0.9-3.8,1.2l-2.1-2.4l-1.8,0.6l3.9,11.3L325.7,389.9z"/>
	<polygon class="st2" points="511.9,517.9 511.4,512.1 507.7,512.8 508.1,518.1 	"/>
	<polygon class="st2" points="553.7,530.1 554.6,536.6 567.2,535.2 566.8,528.3 575.7,527.4 574.1,519.4 564.8,520.8 564.6,517.4 
		552.1,519.2 552.1,522.1 548.6,522.6 549.2,530.8 	"/>
	<polygon class="st2" points="559.4,619.7 560.3,634.3 568.3,633.4 567.7,618.6 	"/>
	<polygon class="st2" points="572.7,600 572,591.4 568.3,591.7 568.6,594.2 565.7,594 565.6,592.3 561.7,592.3 561.3,589.3 
		557.9,589.6 557.9,592.6 555.1,593.2 556.3,601.6 566.2,600.6 566,597.2 568.3,597.3 568.6,600.1 	"/>
	<path class="st2" d="M504.4,630.2l-3.1-19.6l2.3-0.2l-0.9-7c0,0-1.4,0-2.6,0.1l-0.8-5.4l-33.2,4.7l4.6,32.1L504.4,630.2z"/>
	<polygon class="st2" points="524.6,636.1 530,635.4 528.4,624.3 523.2,625 	"/>
	<polygon class="st2" points="436.4,602.9 444.7,602.9 444.4,592.3 436.6,592.4 	"/>
	<polygon class="st2" points="397.6,586.3 396.4,570.8 388.9,571.5 389.6,586.8 	"/>
	<polygon class="st2" points="334.9,540.7 334.5,534.9 329.2,535.4 329.6,541 	"/>
	<polygon class="st2" points="371.7,515.8 369.4,516.6 372.9,526.8 375.2,525.9 374.5,523.8 378.3,522.6 376,516.6 372.7,517.4 	"/>
	<polygon class="st2" points="287.4,626.8 275.8,625.7 272.7,661.7 283.8,662.8 	"/>
	<polygon class="st2" points="290.9,651.5 292.4,636.7 288.1,636.3 286.8,651.2 	"/>
	<polygon class="st2" points="292.3,653.6 286.5,653 285.9,662 291.4,662.5 	"/>
	<polygon class="st2" points="276.3,676.7 290.3,675.7 289.7,669.2 276.3,670.3 	"/>
	<polygon class="st2" points="313.9,751.7 314,753.4 316.1,753.3 315.4,741.9 312.6,742.2 312.3,744.8 308.6,745.4 309,751.8 	"/>
	<polygon class="st2" points="121.4,679.7 122.6,690.6 128.1,690.8 127.7,679.2 	"/>
	<polygon class="st2" points="69.9,596.1 57.4,623.4 72.3,631 85.2,602.6 	"/>
	<polygon class="st2" points="43,655.4 57.2,662.6 70.1,635 55,627.7 	"/>
	<polygon class="st2" points="55.4,666.3 40.6,659.9 28.1,688.6 42.6,695.4 	"/>
	<polygon class="st2" points="81.9,921.2 89.2,927 93.7,920.3 87,915.4 	"/>
	<rect x="255" y="898.8" class="st2" width="179.6" height="10.4"/>
	<polygon class="st2" points="570.8,919.1 243.7,919.1 243.7,926.2 223.2,926.2 223.2,934.8 576.4,934.8 576.4,926.2 570.8,926.2 	
		"/>
	<rect x="589.2" y="919.1" class="st2" width="59.3" height="13.3"/>
	<polygon class="st2" points="600.1,851.8 617.3,865.4 695.8,763.5 677.7,749.9 	"/>
	<polygon class="st2" points="711,779 713.2,800.1 726.6,798.6 724.1,777.7 	"/>
	<polygon class="st2" points="576.3,784.3 577.9,799 585.9,798.1 584.3,783.2 	"/>
	<polygon class="st2" points="569.9,799.2 571.7,809.7 578.1,808.8 576.3,798.1 	"/>
	<polygon class="st2" points="569.2,821.4 570.1,825.7 574.6,825 573.4,820.8 	"/>
	<polygon class="st2" points="571.2,831.7 575,831.2 574.1,827.4 570.6,828 	"/>
	<polygon class="st2" points="508.8,853.9 498.6,853.2 497.9,867.9 509.4,867.9 513.4,868.1 515,871 518.8,874.1 519.9,879.9 
		525.7,879.9 525.4,877.9 545,878.3 545.4,861 547.7,861.2 546.6,848.3 544.3,848.3 543.9,844.8 523.4,844.8 522.1,844.8 
		522.1,835.2 519,835.7 518.6,844.8 508.8,844.8 	"/>
	<rect x="376.7" y="977.2" class="st2" width="146.7" height="43"/>
	<rect x="460" y="1031.7" class="st2" width="16.3" height="8.3"/>
	<polygon class="st2" points="7.4,986.3 61.7,1010.8 67.4,997.9 13.2,973.4 	"/>
	<polygon class="st2" points="644.6,895.7 632.1,901.4 633.9,904.8 646.1,899.4 	"/>
	<polygon class="st2" points="778.1,614.8 782.8,622.6 794.8,614.8 789.9,607 	"/>
	<polygon class="st2" points="741.4,574.3 735.9,570.3 728.6,578.6 731.9,581.4 730.1,584.6 733.4,587.7 729.7,592.3 737.7,598.1 
		742.8,592.3 747.4,595.9 759,581.9 745.4,569.7 	"/>
	<polygon class="st2" points="686.3,604.8 686.3,619.2 696.3,619.2 695.9,604.6 	"/>
	<polygon class="st2" points="888.3,421.9 889.2,429.9 903,427.9 901.9,419.9 	"/>
	<polygon class="st2" points="852.8,428.1 848.3,429 847.4,427 845.2,427.7 847.9,437.7 850.3,437.2 850.1,435.2 854.1,434.6 	"/>
	<polygon class="st2" points="1120.1,684.3 1121.9,693.7 1133.2,691.4 1131,681.7 	"/>
	<polygon class="st2" points="1139.7,679.2 1141.7,687.2 1155.4,684.6 1153.4,676.1 	"/>
	<polygon class="st2" points="1184.6,657.2 1198.1,663.9 1203,651.7 1190.1,645.7 	"/>
	<polygon class="st2" points="1351.4,293.2 1350.6,287.4 1345.9,287.7 1346.8,293.4 1342.1,294.1 1343.7,305.7 1357.2,304.3 
		1355.7,292.6 	"/>
	<polygon class="st2" points="1780.3,142.6 1782.6,154.1 1791.4,152.3 1789.2,141 	"/>
	<polygon class="st2" points="1794.1,150.6 1795.9,159.7 1802.3,158.6 1800.1,149.9 	"/>
	<polygon class="st2" points="1784.3,154.6 1785.9,163.4 1791.4,162.1 1789.7,153.4 	"/>
	<polygon class="st2" points="1834.1,839.7 1820.6,843.2 1823.2,851.2 1836.6,847.2 	"/>
	<polygon class="st2" points="1316.1,975.4 1316.1,978.3 1312.6,978.3 1313.2,985 1316.3,984.6 1316.8,987 1319.4,987 1319,975.7 	
		"/>
</g>
</svg>
