<?xml version="1.0" encoding="UTF-8"?>
<svg id="Inactive_Configs" data-name="Inactive Configs" xmlns="http://www.w3.org/2000/svg" viewBox="0 0 1920 1080">
  <defs>
    <style>
      .cls-1 {
        fill: #a7a9ac;
        stroke-width: 0px;
      }
    </style>
  </defs>
  <path class="cls-1" d="M1414.85,455.82s-42.85-239.82-347.85-253.82c-145.74-6.69-282.82-8.33-383.07-8.3-99.55,0-162.11,1.67-162.11,1.67-57.49-.44-114,16.32-161.23,49.11-42.67,29.62-83.3,75.4-92.92,144.52-22,158,30,318,115.33,377.33,85.33,59.34,142.67,76.67,268.67,86,51.54,3.82,113.13,9.42,191.69,12.29,4.51.16,9.01.1,13.49-.15,120.46,4.34,256.97,3,357.47-18.14,66.5-13.98,113.89-54.81,146.87-99.05,62.18-83.38,80.94-191.09,53.65-291.46ZM351.67,631s-58.67-95.33-2.67-226.67c56-131.33,197.33-144.66,197.33-144.66l216.67-2.67s20.4.6,51.92,1.51c27.83,5.24,61.12,12.5,75.08,19.49,26,13,42,24,42,24,0,0,72.67,85.67,95.33,179,22.67,93.33-15.67,189.33-15.67,189.33l-6.92,11c-9.42,14.98-20.77,28.65-33.75,40.67h0s-41.02,46.85-121.76,67.86c-97.19-2.45-194.73-9.06-267.6-15.76-1.55-.14-3.11-.29-4.64-.43-178.67-16.67-225.33-142.67-225.33-142.67ZM1219.65,749.42c-7.59,4.03-15.58,7.91-23.98,11.58-42.64,18.62-122.86,26.97-215.1,29.21l12.43-16.87c9.93-16.58,19-30.34,19-30.34,22-29,54-82,54-82l5.54-14.35c20.66-53.51,24.43-112.06,10.81-167.77h0c-5.97-35.24-19.39-99.38-41.35-124.88l-29.23-38.24c-12.93-16.92-27.33-32.66-43.02-47.06l-6.48-5.94s.1,0,.14,0c-.05-.04-.09-.08-.14-.12,77.47,2.2,152.9,4.36,174.72,5.03,57.78,1.77,138,50.33,177.33,110,25.29,38.35,43.91,75.75,46.96,116.3,7.95,105.58-48.15,205.78-141.64,255.45Z"/>
</svg>