<svg id="Inactive_Configs" data-name="Inactive Configs" xmlns="http://www.w3.org/2000/svg" viewBox="0 0 1920 1080"><defs><style>.cls-1{fill:#a7a9ac;}</style></defs><path class="cls-1" d="M1125.37,734.4c-69.09,0-264.94.14-331,.2-6.17,0-12.57-.31-18.73-.85a217.24,217.24,0,0,1-22.27-3.26c-3.17-.79-7.78-1.69-11-2.62-136.86-37.19-192.06-200.8-105.1-313.08a198.63,198.63,0,0,1,126.43-74.25,222,222,0,0,1,29.93-2.25c64.43,0,262.45-.36,323.69-.2,5.62.05,13,.05,18.6.34l3.75.3,3.74.29c4.16.26,7.42.93,11.19,1.33,124.6,18.62,200.49,147.56,156.32,265.59-28.65,76.84-103.51,128.8-185.56,128.46Zm0-7.58c55.4,0,109.91-25.53,145.2-68.24,66-77.4,56.32-198.62-21.42-264.27-36.8-32-83.36-47.34-131.83-46.76-18.92-.43-68.53-.54-88.27-.56l-235.41-.59A195.32,195.32,0,0,0,736.88,355a191.1,191.1,0,0,0-88.71,59.13C609,460,594.25,524.83,609.32,583.17,625.69,650.12,680.93,705,747.93,721a187.74,187.74,0,0,0,32,5c6.89.64,14.82.49,21.77.55,60.3.11,260.28.18,323.69.2Z"/></svg>