<?xml version="1.0" encoding="utf-8"?>
<!-- Generator: Adobe Illustrator 24.0.1, SVG Export Plug-In . SVG Version: 6.00 Build 0)  -->
<svg version="1.1" id="Inactive_Configs" xmlns="http://www.w3.org/2000/svg" xmlns:xlink="http://www.w3.org/1999/xlink" x="0px"
	 y="0px" viewBox="0 0 1920 1080" style="enable-background:new 0 0 1920 1080;" xml:space="preserve">
<style type="text/css">
	.st0{fill:#A7A9AC;}
</style>
<title>inactive</title>
<g>
	<path class="st0" d="M1317.1,595c-31.1-18.2-65.6-29.3-97.1-31.4c-160-10.8-410.3-27.8-589.3-40.2c-45.5-3.2-90.6,10.5-127,38.6
		c-34.3,26.4-57.2,63.1-62.9,100.5c-7.5,49.3,2.8,95.3,29.8,132.9c0.2,0.3,0.4,0.6,0.6,0.9c0.2,0.4,0.4,0.7,0.7,1
		c21.9,29.7,53.5,52.7,87.1,63.3c212.6,66.9,449.6,129.1,590.2,161h0c16.3,3.7,32.8,5.5,49.4,5.5c40.7,0,81.4-11,118.4-32.3
		c45.5-26.3,82.1-66.7,97.8-108.2c37.3-98.5,12.3-170.4-15.3-213.4C1379.4,641.8,1350.9,614.8,1317.1,595z M1312,986.1
		c-49.9,28.8-106.9,37.9-160.6,25.7h0c-140.3-31.9-377-94-589.4-160.8c-16.6-5.2-35.3-15-52.5-29.1c6.4,3.4,13.3,6.9,20.6,10
		l0.3,0.1l596.1,163.6c3.3,1.2,34.7,12.6,78.1,12.6c2.4,0,4.9,0,7.4-0.1c28.6-0.9,55.8-6.7,80.8-17.5c31.2-13.4,59-34.5,82.7-62.8
		c1-1.2,14.4-17.9,28.1-40.1C1387.8,925.4,1353.9,961.9,1312,986.1z M1420,831.2c-12.9,41.2-51.8,89.7-52.2,90.1
		c-41,48.9-93.4,74.7-155.7,76.6c-46.8,1.5-81.9-11.7-82.2-11.9l-0.2-0.1L533.8,822.5c-26.2-11.1-47.9-27.1-53.5-31.4
		c-23.2-31.3-37.6-73.9-29.5-127.1c10.4-68.4,84.9-137.2,179.3-130.7c179,12.4,429.4,29.4,589.4,40.2c54.3,3.7,128.5,37.5,171.8,105
		C1412.4,711.7,1432.1,762.9,1420,831.2z"/>
	<path class="st0" d="M1386.8,852.1c-0.1,0-1.9-0.5-4.7-1.2c-2.6-0.8-4.9-1.6-6.1-2.1c-3.3-1.4-4.4-1.8-5.8-15.1
		c-1-9.7-3.7-24.3-6.2-38.5c-2.1-11.4-4-22.3-5-29.8c-3.7-27.7-20.7-44-52-50.1c-16.1-3.1-51.2-9.6-68.9-12.3
		c-8.4-1.3-14.5-2.2-22.6-20.2c-0.1-0.3-0.3-0.5-0.5-0.8c-2.5-7.1-6.1-14-11.6-20.4c-12.9-14.9-33.6-22.4-61.5-22.4
		c-0.4,0-0.8,0-1.1,0c-123.1,0.9-337.8,0.9-478.8,0c-10-0.1-24-1.8-29.4-15.8c-2.4-6.2-4.5-15.9,4.6-28.1
		c5.6-7.4,23.7-28.9,23.9-29.2c1.8-2.1,1.5-5.3-0.6-7c-2.1-1.8-5.3-1.5-7,0.6c-0.7,0.9-18.4,22-24.2,29.5c-9,11.9-11.1,24.6-6,37.7
		c5.7,14.6,18.7,22.1,38.7,22.2c141,0.9,355.8,0.9,478.9,0c0.4,0,0.7,0,1.1,0c59.9,0,65.4,37.1,68,55c2,13.6,3.6,41.1,3.8,54.2
		c0.2,11.7-2.2,19.9-7.1,24.1c-6.7,5.8-17.7,4.1-24.9,3l-1.3-0.2c-10.5-1.6-21.3-3.2-32.4-4.8c-1.1-0.3-2.2-0.5-3.3-0.7
		c-0.5-0.1-0.9,0-1.3,0c-80.9-11.7-176.2-24.2-268.8-36.3c-75.6-9.9-146.9-19.2-208.2-27.8c-17.9-2.5-32.6,0.3-43.4,8.3
		c-10.6,7.8-15.1,18.8-16.9,26.6c-0.6,2.3-1.4,5.4-2.3,8.8c-2.1,7.9-4.5,16.8-5.2,22.6c-3.6,27.6,15.4,47.6,35.9,53.2
		c130.3,35.5,335,84.2,484.5,119.7c28.5,6.8,54.7,13,77.5,18.5c4.5,1.1,8.5,1.5,12.1,1.5c3.3,0,6.2-0.4,8.8-1
		c0.6-0.1,1.2-0.2,1.8-0.5c5.9-1.8,10.1-4.8,13.1-7.8c9.6-9.6,11.8-24.2,10.5-32.9c0-3.2-0.1-6.8-0.2-10.5
		c-0.1-3.5-0.1-7.1-0.2-10.4c2-4.8,5.8-7.3,9.4-9.6c14-9.1,39.1-23.7,57.3-34.4c6-3.5,11.4-6.6,15.6-9.1c13.7-8.1,19.7-7.4,24.7-6
		c6.5,1.8,22.2,5.8,30.3,7.8c4.2,1.3,8.5,2.6,9.3,2.8c0.5,0.1,0.9,0.2,1.4,0.2c2.2,0,4.2-1.4,4.8-3.6c0.8-2.6-0.7-5.4-3.4-6.2
		c-0.7-0.2-1.7-0.5-2.8-0.8C1388.1,852.6,1387.5,852.3,1386.8,852.1z M713.5,845.9c-27.5-7.1-53.4-13.9-76.9-20.3
		c-16.4-4.4-31.5-20.4-28.6-42.2c0.6-5.1,3-14.1,5-21.3c0.9-3.4,1.8-6.6,2.3-9c3-12.4,13.4-32.4,49.3-27.3
		c61.3,8.6,132.7,18,208.3,27.9c94.2,12.3,191.2,25,272.9,36.9c3.2,0.9,5.6,2.4,7,4.6c2.2,3.3,2.4,8.3,0.7,14.9
		c-2.2,8.7-3.5,21.8,11.4,34.4c15.7,13.3,43.3,32,55.6,39.9l0.2,0.1c2.2,1.4,4.3,2.8,6.1,4.7l-34.8,16.3c-5.9-5.4-12-8-18.1-7.7
		c-8.1,0.4-13.1,5.7-14.4,7.3l-16.1,14.9l-0.3,0.4c-5.4,7.4-15.9,7-17.6,6.9l-290-71.6l-0.4-0.1l-121.3-9.5
		C713.6,845.9,713.6,846,713.5,845.9z M1120.8,945.3c-104.6-24.9-236.1-56.2-350.3-84.8l62.9,4.9l289.6,71.5l54.7,21.9
		C1160.2,954.6,1141.1,950.1,1120.8,945.3z M1224.8,958.6c-2.3,2.3-5,4-8.1,5l-74.6-29.9c3.1-1.6,6.2-3.9,8.7-7.2l15.7-14.5l0.3-0.3
		l0.3-0.3c0,0,3-3.7,7.4-3.8c3.9-0.2,8.3,2.3,12.8,7.2l2.5,2.7l41.6-19.5c0.4,2.1,0.7,4.5,0.7,7.4c0,1.4,0,2.9,0,4.6
		c-1.9,5.6-2.1,13,0.3,23c0,0.2,0.1,0.4,0.1,0.6c0,2.1,0,4,0,5.6c0,0.4,0.1,0.9,0.2,1.3C1232,946.5,1229.6,953.7,1224.8,958.6z
		 M1246,893.9c-1.6,1-3.1,2.1-4.7,3.3c-0.2-1.2-0.5-2.4-0.8-3.5l18.2-8.5l3.3-1.3C1255.9,887.6,1250.4,891,1246,893.9z
		 M1351.7,843.2c-8.4-2.3-17.1-2-32.4,7c-1,0.6-2.2,1.3-3.4,2c-0.2,0-0.4,0.1-0.5,0.2l-60.5,23.6l-18.7,8.8c-3.1-4.2-7-6.7-10.1-8.7
		l-0.2-0.1c-12.2-7.9-39.3-26.2-54.6-39.2c-10.4-8.8-10.1-16.9-8.2-24.3c2-7.7,1.9-14.2-0.2-19.4c5.3,0.8,10.5,1.6,15.6,2.3l1.2,0.2
		c8.5,1.3,22.8,3.5,33-5.4c7.3-6.3,10.8-17,10.6-31.8c-0.2-12.4-1.5-36.4-3.3-51.3c5,3.8,10.3,5,16.2,5.9
		c17.6,2.6,52.5,9.1,68.5,12.2c35.4,6.8,42.1,27,44,41.6c1,7.8,3,18.7,5.1,30.3c2.5,14,5.2,28.4,6.1,37.7c0.5,4.6,1,8.2,1.7,11
		C1357.7,844.8,1354,843.9,1351.7,843.2z"/>
	<path class="st0" d="M1558.2,442.1c0.9-121.8,1.6-244.2,1.9-320.3c0.1-31.5-10.3-46.5-32.9-47.4c-10.3-0.4-18.9,2.5-25.5,8.7
		c-11.6,10.9-12.8,28.1-12.9,33.1c-0.8,39.9-2.2,86.4-3.9,133.4l-0.1,1.2c0,0.1,0,0.3,0,0.4c-3,80.2-7,162-10.8,215.2
		c-1,13.9-5.8,23-14.4,27.1c-14.6,7-24.1,0.2-30.7-6.5c-16.8-17-39.9-39.6-64.3-63.5c-27.6-27-56.1-54.9-74.3-73.6
		c-28.1-28.8-59.3-19.7-69.6-16.7c-45.6,13.3-53.4,46.6-58.6,68.7c-0.6,2.6-1.2,5-1.8,7.3c-10.7,41.2-47.7,38.1-63.1,34.8
		c-48.6-10.3-139.5-28.9-199.6-41.2l-29.2-6c-63.7-13.1-102.4,20-119.8,40.8c-11.1,13.3-44.1,53.6-44.5,54c-1.8,2.1-1.4,5.3,0.7,7
		c2.1,1.8,5.3,1.4,7-0.7c0.3-0.4,33.4-40.7,44.4-53.9c16-19.1,51.6-49.4,110.2-37.4l29.2,6c60.1,12.3,151,30.8,199.5,41.1
		c14.2,3,61.6,8.9,74.9-42.1c0.6-2.4,1.2-4.9,1.8-7.5c5.2-22.1,11.7-49.6,51.6-61.3c16.6-4.8,38.5-7.6,59.6,14.1
		c18.3,18.8,46.9,46.8,74.5,73.8c24.4,23.9,47.5,46.5,64.2,63.4c12.8,12.9,26.9,15.8,42.2,8.5c12-5.7,18.7-17.6,20-35.4
		c3.8-53.7,7.9-136.2,10.9-217l6.2-100.7l0-0.3c0-0.2,0.2-16.7,8.7-24.2c3.5-3,7.9-4.2,13.5-3.5l0.6,0c0.2,0,4.1,0.2,7.4,3.9
		c4,4.4,5.7,12.3,4.9,22.8l-1.2,201l0,0.3c0.1,0.5,6.2,47.6,13.1,93.2c-0.4,61.9-0.9,123.6-1.3,179c-0.1,17.8-0.4,40.7-0.7,64.8
		c-0.7,53.9-1.5,120.9-1.1,166.9l0,1.5c0.1,7.1,0.2,17.7-5.8,23.6c-3.7,3.5-9.5,5-17.3,4.6c-15-0.9-59.7-14.5-60.2-14.6
		c-2.6-0.8-5.4,0.7-6.2,3.3c-0.8,2.6,0.7,5.4,3.3,6.2c1.9,0.6,46.3,14.1,62.5,15c1.1,0.1,2.2,0.1,3.2,0.1c9.2,0,16.5-2.5,21.6-7.4
		c9.2-8.8,9-22.7,8.9-30.9l0-1.5c-0.4-45.9,0.4-112.9,1.1-166.7c0.3-24.2,0.6-47.1,0.7-64.9c0.4-54.5,0.9-115,1.3-175.9
		c0.3-0.8,0.4-1.6,0.3-2.4C1558.3,443.2,1558.2,442.6,1558.2,442.1z M1548.6,375.6c-2-14.7-3.4-25-3.6-26.9l1.1-199.8
		c1-13.6-1.6-23.7-7.7-30.3c-5.7-6.1-12.3-6.8-14.1-6.9c-8.4-1-15.5,1-21.1,5.9c-1.8,1.6-3.3,3.3-4.6,5.2c0-2.1,0.1-4.2,0.1-6.3
		c0.2-8.3,2.8-19.5,9.8-26.1c4.6-4.3,10.7-6.3,18.2-6c8.2,0.3,23.5,0.9,23.3,37.4C1549.9,184,1549.3,277.2,1548.6,375.6z"/>
</g>
</svg>
