<svg id="Inactive_Configs" data-name="Inactive Configs" xmlns="http://www.w3.org/2000/svg" viewBox="0 0 1920 1080"><defs><style>.cls-1{fill:#a7a9ac;}</style></defs><path class="cls-1" d="M1622,288.48a15.52,15.52,0,0,0-8-7.59c-5.55-2.33-10.89-.64-12.93,0-3,.94-6,1.64-9.21,2.38a86.85,86.85,0,0,0-15,4.46c-5.47,2.36-11.27,4.39-16.88,6.36-4.41,1.55-9,3.15-13.43,4.92-10.07,4-14.81,5.57-21.37,7.74-5.67,1.87-12.72,4.2-25.6,8.87-11.26,4.08-16.19,6-22.43,8.52-5.82,2.32-13.07,5.2-28.07,10.84-17.31,6.5-35,12.94-51.23,18.63-9.91,3.47-14.55,5-19.46,6.67s-9.78,3.27-20.09,6.88c-16,5.6-24.83,8.88-31.26,11.27-7.49,2.78-11.62,4.31-20.1,6.89-14.62,4.44-27,7.37-37.46,9.66-2.2.41-4.53.92-6.94,1.44l-3.62.79h0a527.45,527.45,0,0,1-53.51,8.81,429.65,429.65,0,0,1-46.15,2.86,452.21,452.21,0,0,1-47.73-2.42c-18.81-1.73-38.1-4.4-57.33-7.94-28.13-5.19-49.34-11.06-62-14.57-17.46-4.84-30.07-8.33-47.37-14.76-13.59-5.05-27-11.18-53.68-23.42-20.35-9.33-30.56-14-40.92-19.24-9.71-4.91-12.86-6.76-20.48-11.24-6.59-3.86-16.54-9.7-36.88-21.11L790.55,293c-16.95-9.5-25.46-14.26-34.78-24.25-5.64-6-11.46-12.27-14.18-21.94-.87-3.12-.89-4.53-1-9.77,0-4-.11-10-.65-20-.94-17.55-2-21.47-3.4-25.44-1.89-5.18-5-9.95-11.18-19.46-4.7-7.22-7.64-10.81-12.65-13a23.1,23.1,0,0,0-13-1.46c-9.52,1.5-15.59,8.17-18.51,11.38l-.18.19a133.53,133.53,0,0,1-11.5,10.73,121.32,121.32,0,0,0-14.19,13.64c-6.76,8.06-23.87,26.06-58,62-4.07,4.27-17.61,17.81-44.58,44.79-14.89,14.89-24.45,24.42-30.91,30.85-11.43,11.38-13.18,13.12-17.45,17.74-12.26,13.25-32.78,35.44-54.5,68.42-31.6,47.95-51.43,95.93-48.05,106.79,7.18,23.09,65.52,142.08,92.64,196.09,8.52,17,23,46.84,38.09,79.84,4.51,9.87,9.62,19.59,14.56,29,5.79,11,11.77,22.4,16.76,34A153.14,153.14,0,0,0,589.07,903c6.43,7.34,13.93,14.54,25.14,17.54a44,44,0,0,0,11.28,1.44,53.85,53.85,0,0,0,9.17-.84c7.56-1.27,13-3.87,23.13-9.58a354.65,354.65,0,0,0,38.86-25.34c9.51-7.08,14.14-11.14,18.16-18,1.77-3,5.91-10.05,5.86-19.4,0-6.87-2.44-12.38-7.14-20.75-5.6-10-10.6-17.11-19.68-29.36-13.71-18.49-16.24-21.09-20.49-24.33-4.94-3.78-9.69-6.14-19.13-10.84-3.16-1.57-5.83-2.8-8.41-4A137.27,137.27,0,0,1,630,751.24a45.93,45.93,0,0,1-9.25-7,43.46,43.46,0,0,1-7.64-10.51c-4.55-8.38-6.69-15.62-8.95-23.28l-.31-1.08c-3-10.33-5.07-16.58-6.55-21.15-2.16-6.69-3-9.19-4-15.27-2.55-15.18-.88-19.61-.08-21.74a29.39,29.39,0,0,1,9.78-12.9,29.72,29.72,0,0,1,12.91-5.27,26.21,26.21,0,0,1,12.27.22c3.85,1.09,6.45,2.94,9.45,5.09a54.86,54.86,0,0,1,10.22,9.45c20.66,25,31,37.62,33.63,41.24a168.29,168.29,0,0,0,14.16,17.67c4.49,5,10.65,11.87,25,30,3.64,4.61,6.8,8.67,9.65,12.33,10.93,14,17.52,22.52,29.66,34,16.2,15.35,25.17,19.85,32.44,22.42,12.47,4.4,26.06,5.31,40.4,2.7,8.75-1.59,16.28-4.33,37.72-16.39,24.36-13.7,39.86-24.11,40-24.21,15-10.09,19.94-13.09,26.25-16.9,7-4.22,15.66-9.46,41.72-26.75,28.1-18.64,41.91-28.38,55.27-37.8,12.53-8.85,24.37-17.2,47.06-32.2,7.38-4.88,12.63-8.29,17.19-11.21h0c4.28-2.74,8-5,12.19-7.7,9-5.65,20.21-12.68,44.74-28.56,20.94-13.54,31.43-20.5,44.73-29.31,11.27-7.47,24.06-15.94,46.63-30.7,19.12-12.51,27.89-18.17,40-26,11.89-7.67,26.68-17.21,57.1-37h0c32.71-21.26,49.27-32.1,60.23-39.28,12.67-8.3,16.93-11.09,29.22-18.86,14.57-9.21,25.28-15.85,35.64-22.27,15-9.31,29.19-18.1,53.88-33.91,22.74-14.56,32.5-21.07,37.2-24.19a52.87,52.87,0,0,1,7.2-4.4c8.6-4.36,16.44-9.95,24-15.36,7-5,13.6-9.69,20.84-13.59,5.79-3.12,9.48-7.18,10.95-12.06A15.43,15.43,0,0,0,1622,288.48Zm-344.8,115.58c.12,4.11-.34,13.58-1,23.08a31.63,31.63,0,0,0-6.65-4.95c-8.23-4.62-17.71-5.74-22.81-6.35l-.24,0c-3.26-.38-11.32-1.23-21.52-2.23,15.12-2.25,27.17-4.75,36-6.57h.06c3.19-.66,6.57-1.36,10.17-2.14A40,40,0,0,1,1277.15,404.06ZM865.55,783.14c-20.19,11.36-27,13.89-34.61,15.27a67.87,67.87,0,0,1-35.27-2.29c-6.24-2.2-14.06-6.18-28.9-20.25-11.59-11-17.65-18.78-28.65-32.91-2.86-3.68-6-7.75-9.7-12.39-14.52-18.39-20.8-25.38-25.38-30.49a158,158,0,0,1-13.48-16.83c-2.8-3.89-12.59-15.76-34-41.76a65,65,0,0,0-12.11-11.23c-3.3-2.35-7-5-12.55-6.57a36.2,36.2,0,0,0-16.73-.45,38.57,38.57,0,0,0-30.31,24.5c-1.77,4.71-3.05,11.24-.42,26.92,1.14,6.8,2.08,9.69,4.34,16.69,1.45,4.51,3.45,10.69,6.46,20.9l.32,1.08c2.31,7.82,4.69,15.92,9.75,25.23a54.34,54.34,0,0,0,9.36,12.81,56.13,56.13,0,0,0,11.09,8.39,145.62,145.62,0,0,0,16.91,8.84c2.51,1.17,5.12,2.37,8.14,3.88,8.88,4.42,13.34,6.63,17.53,9.83,3,2.31,5.09,4.23,18.52,22.33,8.82,11.9,13.65,18.81,19,28.31,4.52,8,5.83,11.61,5.86,15.91,0,6.6-3,11.78-4.48,14.27-3.1,5.26-6.75,8.51-15.51,15a346.48,346.48,0,0,1-37.8,24.65c-10.19,5.75-14.28,7.48-19.88,8.43a37.72,37.72,0,0,1-16.21-.4c-8.15-2.18-14-7.36-20.2-14.47A145.13,145.13,0,0,1,573.09,859C568,847.15,561.91,835.59,556,824.41c-4.87-9.28-9.92-18.87-14.32-28.49-15.14-33.12-29.69-63.13-38.24-80.16-34.32-68.34-85.5-173.76-92-194.5-1-6.42,14-48.62,46.82-98.4,21.27-32.29,41.44-54.1,53.49-67.13,4.13-4.46,5.87-6.19,17.17-17.45l18.42-18.36c1.51-1.55,6.94-4.57,13.09-6.77a30.09,30.09,0,0,1,11.52-1.6c3.37.09,8.46.23,12.93,2.71,1.7.94,3.09,2.2,12,17,8.61,14.25,9.91,17.29,10.46,18.59A81.35,81.35,0,0,1,612.54,366a65.19,65.19,0,0,1,1.23,11.8c.09,1.89.18,4.06.35,6.74,0,.54.84,13.27,2.94,26.79,1.29,8.32,2.75,17.74,6.42,28.71,2.45,7.32,5.69,14.93,13.54,28.28,8.46,14.37,15.18,23.44,23.7,34.92,1.91,2.58,3.91,5.28,6,8.17.88,1.2,1,1.3,2.51,3.56,2.5,3.64,8.37,12.16,26,37.45,4.49,6.46,4.61,6.62,7.66,10.84,3.33,4.61,10.26,14.2,30.65,42.72,7.46,10.45,14.5,20.31,26.66,31.3a147.94,147.94,0,0,0,20.61,15.65,144.89,144.89,0,0,0,37.67,16.21c14.34,4.22,30.94,7.19,39.86,8.79l2.57.46c7.62,1.34,11.82,2.08,17.27,5,4.55,2.46,8.63,6,16.75,13.14,1.27,1.11,1.48,1.32,2.53,2.34.73.72,1.83,1.79,3.86,3.73-1.28,1.63-2.81,3.57-4.68,5.9l-1.89,2.38c-11.61,14.59-13,16.78-14,21.32-1.25,6.08-.48,12.3.49,20.18.28,2.28.57,4,.8,5.45a18.55,18.55,0,0,1,.42,5.81c-.5,4.35-3.85,10.31-6.34,13.43C872.84,779,869.3,781,865.55,783.14Zm43.06-73.63c6.54,6.16,8,7.56,9.32,10.41a24.51,24.51,0,0,1,2.19,9.3,29.34,29.34,0,0,1-2.36,13.64c-3.51,7.91-10.61,14.44-13.71,17-1.67,1.1-5.88,3.85-12.15,7.72a23.36,23.36,0,0,0,.51-2.83,27.69,27.69,0,0,0-.48-8.57c-.23-1.4-.49-3-.75-5.06-.89-7.24-1.53-12.47-.62-16.93.43-2.07,1.09-3.38,12-17.12l1.88-2.36c1.55-2,2.92-3.67,4.15-5.24Zm-2-15.7-2.15-2.08c-1.09-1.06-1.46-1.42-2.94-2.72-1.81-1.59-3.42-3-4.91-4.28,3.22.54,4.4.91,5.63,1.83.41.31,3.95,3,4.36,6.66A3.85,3.85,0,0,1,906.6,693.81Zm168.64-48.15c-22.81,15.08-34.71,23.48-47.31,32.36-13.3,9.39-27.05,19.09-55,37.65C947,732.84,938.44,738,931.54,742.19l-3.64,2.2a39.58,39.58,0,0,0,2.2-15.83A34.26,34.26,0,0,0,927,715.64c-2.2-4.66-4.73-7-11.5-13.41l-.92-.87-.11-.1a14,14,0,0,0,2.09-9.15c-.83-7.45-6.57-12.27-8.31-13.56-3.68-2.74-7-3.25-13.63-4.26-1.76-.27-3.84-.59-6.31-1s-5.07-.71-7.39-1c-1.68-.19-3.28-.37-4.26-.54a83.1,83.1,0,0,0-14-3.24l-2.55-.45c-8.73-1.57-25-4.48-38.8-8.54a135.94,135.94,0,0,1-35.22-15.12,137.53,137.53,0,0,1-19.17-14.57c-11.36-10.27-18.1-19.7-25.29-29.76C721.27,571.62,714.33,562,711,557.39c-3-4.15-3.11-4.31-7.55-10.69-17.6-25.27-23.45-33.78-26-37.41-1.62-2.36-1.72-2.5-2.67-3.8-2.13-2.91-4.14-5.62-6.06-8.21-8.34-11.25-14.92-20.13-23.11-34-7.41-12.6-10.43-19.66-12.68-26.38-3.4-10.17-4.79-19.15-6-27.07-2-13.05-2.83-25.75-2.84-25.88-.16-2.61-.25-4.72-.34-6.57A75.3,75.3,0,0,0,622.35,364a90.41,90.41,0,0,0-5.75-18.08c-.74-1.74-2.12-5-11.1-19.85-9.14-15.13-11.5-18.21-15.74-20.56-6.61-3.67-13.44-3.85-17.52-4a46.07,46.07,0,0,0-6.74.23c23.3-23.31,35.28-35.3,39.18-39.4,34.23-36,51.41-54.11,58.37-62.4,3.79-4.51,8.29-8.39,13.06-12.5a142.1,142.1,0,0,0,12.36-11.56l.18-.2c2.48-2.72,6.63-7.28,12.69-8.24a13.21,13.21,0,0,1,7.45.77c2.28,1,3.87,2.53,8.24,9.24,5.77,8.87,8.67,13.32,10.16,17.43,1.1,3,1.95,6.42,2.82,22.56.53,9.83.59,15.71.63,19.61.06,5.48.09,8,1.32,12.36,3.38,12,10.35,19.48,16.5,26.06,10.39,11.13,19.91,16.47,37.21,26.15l2.22,1.25c20.25,11.35,30.15,17.16,36.7,21,7.59,4.45,11,6.48,21,11.53,10.53,5.32,20.8,10,41.3,19.43,26.89,12.32,40.39,18.5,54.33,23.69,17.7,6.57,31.15,10.3,48.18,15,12.84,3.55,34.32,9.5,62.88,14.76,19.52,3.6,39.11,6.31,58.22,8.06a457,457,0,0,0,48.71,2.47c3.18,0,6.22-.08,9.16-.16,26.33,1.78,68.33,6,76.89,7l.24,0c15.08,1.79,30.28,6.11,28.7,24.58-1.18,13.86-4,22.09-8.77,25.92-3.49,2.78-8.51,3.6-15.8,2.58h-.05c-15.58-2.13-31.52-4.46-42.41-6.06l-8.49-1.24c-6.84-1-14.42-2.15-22.46-3.38-25.19-3.85-53.74-8.21-81-10.81a17.63,17.63,0,0,0-12.37,4c-6.32,5.35-6.38,13.71-6.44,21.79-.11,17.37-.18,26.09.49,31.53,1.82,15,2.93,24.11,8.53,34.82a41.66,41.66,0,0,0,6.18,9,57.47,57.47,0,0,1,6.83,9.62c5.66,9.61,9.39,16,10,24.69.66,9.76-2.92,17.69-5.79,24.05-.5,1.11-1,2.18-1.42,3.23-2.37,5.45-4.26,9.79-9.09,14.46C1087.66,637.51,1082.46,640.89,1075.24,645.66Zm205.62-133.55c-12.16,7.85-20.95,13.51-40.1,26-22.59,14.78-35.39,23.26-46.68,30.74-13.26,8.79-23.74,15.73-44.63,29.24-19.19,12.42-30.2,19.42-38.39,24.57l.72-1.64c3.16-7,7.48-16.58,6.65-28.84-.75-11.1-5.43-19-11.34-29.09a67.16,67.16,0,0,0-7.86-11.06,32.23,32.23,0,0,1-4.91-7.16c-4.76-9.1-5.72-17-7.47-31.4-.58-4.8-.52-13.3-.41-30.25,0-7.15.28-12,2.9-14.22a7.51,7.51,0,0,1,5-1.73c27,2.58,55.39,6.92,80.45,10.75,8.06,1.23,15.66,2.39,22.53,3.39l8.48,1.24c27.18,4,77.36,11.32,90.9,11.32h.67l1.11,0c3.73-.08,7.4-.16,11-.37C1296.77,501.84,1288.25,507.34,1280.86,512.11ZM1613,296.73c-1,3.39-4.85,5.45-6.16,6.16-7.74,4.17-14.92,9.28-21.85,14.23-7.63,5.43-14.83,10.56-22.75,14.59a60.2,60.2,0,0,0-8.23,5c-4.67,3.11-14.38,9.58-37,24.09-24.63,15.77-38.78,24.54-53.76,33.83-10.38,6.43-21.11,13.09-35.71,22.32-12.36,7.81-16.64,10.62-29.36,18.95-11,7.17-27.51,18-60.19,39.25h0c-12.76,8.29-24.65,8.53-39.7,8.84l-1.12,0c-3.92.09-12.51-.73-23.15-2,5.73-6,8.92-15.62,10.22-30.65.64-5.22,3.74-41.29,2.74-50.16,6.94-1.72,14.52-3.76,22.86-6.29,8.77-2.67,13-4.24,20.67-7.09,6.4-2.37,15.16-5.63,31.08-11.2,10.25-3.59,15.19-5.24,20-6.84,4.94-1.65,9.61-3.22,19.59-6.72,16.27-5.71,34.06-12.18,51.44-18.7,15.08-5.67,22.38-8.57,28.25-10.9,6.16-2.45,11-4.39,22.14-8.42,12.74-4.62,19.72-6.92,25.32-8.77,6.73-2.23,11.59-3.83,21.93-7.95,4.27-1.7,8.73-3.26,13-4.77,5.77-2,11.74-4.12,17.53-6.62a77.66,77.66,0,0,1,13.31-3.89c3.28-.76,6.66-1.54,10-2.61,1.34-.42,3.84-1.22,6-.31a5.36,5.36,0,0,1,2.77,2.58A5.56,5.56,0,0,1,1613,296.73Z"/></svg>