<svg id="Inactive_Configs" data-name="Inactive Configs" xmlns="http://www.w3.org/2000/svg" viewBox="0 0 1920 1080"><defs><style>.cls-1{fill:#a7a9ac;}</style></defs><title>inactive</title><path class="cls-1" d="M1573.06,354c-22.1-57.82-55.8-99.74-100.17-124.61-1.25-.78-2.62-1.67-4.14-2.64-24.12-15.58-80.59-52.05-236.32-48.39-18.67-.66-616.14-2.82-641.67-2.91h-.23c-1.16.05-28.89,1.34-67.3,11.51a293,293,0,0,0-117.72,62.62,286.33,286.33,0,0,0-47.81,54.16,4.67,4.67,0,0,0-.61.91,281.12,281.12,0,0,0-28.33,53.72,287.14,287.14,0,0,0-19.08,80.77l0,.24c-3.66,93.9,25.65,173,84.75,228.88l.1.09C416.4,688,498.24,754.94,632.27,793.08c47.08,15.3,153.61,36.17,154.68,36.38l.11,0c1.15.2,96.37,16.4,179.18,16.4a446.66,446.66,0,0,0,50.36-2.53c46.22-3.85,97.72-9.44,161.07-24.22,76.09-17.75,151.81-44.75,231.47-82.53l.16-.08c1.3-.67,3.55-1.68,6.39-2.94,19-8.49,63.49-28.35,104-70.7,50.74-53.09,76.33-121.7,76-204C1595.32,440.88,1590.1,398.57,1573.06,354ZM525.79,196.66c36.12-9.57,63.16-11.09,65.07-11.19,12,0,627.34,2.27,641.31,2.91h.34c152.75-3.62,207.46,31.71,230.82,46.79,1.61,1,3.06,2,4.38,2.79l.2.12c42.31,23.69,74.55,63.9,95.81,119.51,14.58,38.14,20.25,74.4,21.65,94.28a.85.85,0,0,0,0,.16c1.94,17-35,83.42-60.38,124l-.13.23c-9.07,16.38-33.37,44.6-72,70.23-23.26,14.92-50.57,29.19-73.14,38.2-21.67,9-102.6,16-107.37,16.42-14.77-.06-628.82-2.52-660.07-5.84C523.22,687,452,636,433.8,618.49c-59.73-68.42-68-113.76-76-157.61l-.88-4.78c-7.82-40.23,7.39-135.26,9.34-147A280.55,280.55,0,0,1,525.79,196.66Zm885.82,527.78c-3,1.37-5.27,2.36-6.83,3.16C1217,816.66,1081,828,1015.7,833.39h-.16c-86.07,10-223.3-13.18-226.73-13.77-2.91-.57-107.49-21.1-153.53-36.08l-.18-.06C503.17,746,422.8,680.29,401.23,661c-56.88-53.77-85.09-130.21-81.58-221.06a277.41,277.41,0,0,1,18.41-77.85,267.3,267.3,0,0,1,14.71-31.17c-4.84,34.3-11.86,95.46-5.71,127.06l.86,4.72c8.27,45.21,16.83,92,78.49,162.55l.29.31c18.62,18,92.49,71.11,184.59,79.64,31.91,3.39,635.56,5.79,661.24,5.89h.22l.21,0c3.54-.29,87-7.34,110.53-17.14,23.08-9.21,51-23.82,74.81-39.07l0,0,0,0c40.06-26.58,65.51-56.24,75.17-73.62,4.88-7.81,34.65-55.93,51.06-92.93C1578,569.34,1540.12,667.08,1411.61,724.44Z"/></svg>