<?xml version="1.0" encoding="utf-8"?>
<svg xmlns="http://www.w3.org/2000/svg"
     width="562.9" height="800.0"
     viewBox="0 0 562.9 800.0">
  <rect width="100%" height="100%" fill="#1a1a2e"/>
  <!-- Track outline -->
  <polyline points="475.52,464.74 489.14,427.35 519.47,313.88 522.66,282.67 522.89,256.40 522.01,243.29 519.74,230.29 511.85,200.47 500.61,169.63 488.84,147.72 474.68,127.89 451.47,102.96 429.08,82.55 421.26,76.10 413.18,70.84 391.44,59.66 366.24,49.62 342.26,43.06 316.75,40.00 278.96,42.90 242.98,49.99 225.59,55.20 209.47,62.62 186.65,76.91 163.64,95.93 140.32,121.01 118.31,152.23 92.64,201.33 70.78,259.08 53.89,332.52 43.69,409.94 40.00,484.51 42.35,552.90 47.93,592.87 56.70,627.63 67.32,656.10 80.52,681.40 97.57,704.88 114.54,723.15 122.04,729.32 130.08,734.21 151.59,744.69 172.80,753.28 185.84,756.51 222.40,760.00 230.59,759.79 239.06,758.50 262.84,752.00 289.43,741.63 312.60,728.57 334.22,712.35 352.00,694.67 369.55,672.38 431.54,568.74 469.94,480.05 475.52,464.74"
        fill="none"
        stroke="#e94560"
        stroke-width="8.0"
        stroke-linejoin="round"
        stroke-linecap="round"/>
  <!-- Start/finish line -->
  <line x1="456.73" y1="457.89" x2="494.31" y2="471.58"
        stroke="#f5f5f5" stroke-width="9.6"
        stroke-linecap="round"/>
</svg>
