<?xml version="1.0" encoding="utf-8"?>
<svg xmlns="http://www.w3.org/2000/svg"
     width="800.0" height="763.6"
     viewBox="0 0 800.0 763.6">
  <rect width="100%" height="100%" fill="#1a1a2e"/>
  <!-- Track outline -->
  <polyline points="597.85,460.11 624.23,434.73 646.59,411.77 696.87,353.51 732.75,300.70 748.87,266.25 758.08,231.56 760.00,188.78 756.64,150.59 753.76,137.05 749.25,125.21 738.60,105.14 724.59,85.93 713.94,75.53 702.05,66.71 688.52,59.10 655.70,47.61 619.15,41.21 581.06,40.00 541.14,45.08 491.73,58.85 437.80,83.39 345.69,143.70 251.76,221.05 169.91,306.01 102.85,390.38 73.10,434.97 52.76,479.21 42.40,529.12 40.00,579.28 44.61,622.19 53.05,657.24 57.65,668.23 63.70,677.30 72.05,688.42 82.51,699.78 95.17,709.21 116.86,717.30 142.57,721.78 169.72,723.59 222.21,720.57 273.92,710.54 310.38,697.00 342.72,680.80 366.13,665.70 392.23,645.03 407.39,631.01 430.61,610.34 459.78,584.48 492.97,555.23 528.00,524.05 562.92,492.50 597.85,460.11"
        fill="none"
        stroke="#e94560"
        stroke-width="8.0"
        stroke-linejoin="round"
        stroke-linecap="round"/>
  <!-- Start/finish line -->
  <line x1="584.13" y1="445.56" x2="611.56" y2="474.67"
        stroke="#f5f5f5" stroke-width="9.6"
        stroke-linecap="round"/>
</svg>
