<?xml version="1.0" encoding="utf-8"?>
<svg xmlns="http://www.w3.org/2000/svg"
     width="800.0" height="757.7"
     viewBox="0 0 800.0 757.7">
  <rect width="100%" height="100%" fill="#1a1a2e"/>
  <!-- Track outline -->
  <polyline points="65.54,602.17 78.55,622.34 94.24,640.57 113.27,656.85 148.38,676.76 190.18,692.92 232.46,705.20 293.01,715.93 354.32,717.74 418.22,710.50 480.88,693.95 538.56,667.97 591.26,634.62 630.10,603.34 664.44,564.17 702.32,496.82 732.64,420.94 750.24,354.24 759.33,291.16 760.00,250.57 754.93,213.34 747.85,188.40 737.90,164.48 725.76,142.38 700.98,111.48 671.90,85.76 639.95,64.95 605.90,50.21 581.22,43.88 555.78,40.52 532.15,40.00 506.90,43.62 484.32,49.95 470.64,54.22 454.38,61.98 321.42,149.36 172.39,265.96 114.13,329.04 72.71,388.76 55.11,424.18 44.50,459.34 40.86,484.03 40.00,509.36 42.01,533.92 47.17,557.71 55.21,580.85 65.54,602.17"
        fill="none"
        stroke="#e94560"
        stroke-width="8.0"
        stroke-linejoin="round"
        stroke-linecap="round"/>
  <!-- Start/finish line -->
  <line x1="82.97" y1="592.37" x2="48.11" y2="611.98"
        stroke="#f5f5f5" stroke-width="9.6"
        stroke-linecap="round"/>
</svg>
