<?xml version="1.0" encoding="utf-8"?>
<svg xmlns="http://www.w3.org/2000/svg"
     width="381.5" height="800.0"
     viewBox="0 0 381.5 800.0">
  <rect width="100%" height="100%" fill="#1a1a2e"/>
  <!-- Track outline -->
  <polyline points="327.61,477.87 341.54,218.29 341.03,204.96 339.38,194.17 333.35,171.06 325.36,149.12 313.85,129.94 297.03,109.73 271.25,86.01 249.21,70.84 238.13,64.28 225.00,58.22 190.39,48.40 155.61,41.43 143.20,40.05 132.03,40.00 117.98,40.92 103.92,43.41 91.01,47.99 78.78,54.05 67.35,60.87 57.24,68.91 51.81,74.81 47.09,81.33 43.53,88.25 41.19,95.63 40.00,103.47 40.13,111.36 42.04,120.01 45.48,128.82 49.68,137.16 56.61,148.06 65.82,159.41 91.56,187.20 118.66,212.44 125.66,217.74 131.91,221.65 138.62,224.45 144.78,226.13 151.44,227.30 157.98,227.51 163.89,226.39 168.18,224.30 172.38,221.30 176.20,217.63 179.39,213.56 181.64,209.34 183.08,203.74 183.25,197.53 182.41,191.01 180.75,184.24 173.40,170.40 162.91,155.59 155.31,141.80 153.31,135.13 152.04,128.66 151.78,122.61 152.85,116.96 154.93,112.63 158.07,108.41 161.85,104.54 166.05,101.28 170.30,98.84 175.78,97.06 181.77,96.39 187.93,96.50 193.87,97.11 201.39,98.74 208.69,101.48 215.87,105.00 227.42,112.58 237.96,121.74 246.15,131.36 253.29,141.95 260.30,153.65 266.58,166.94 274.06,189.64 279.71,212.59 282.76,237.59 282.55,263.29 279.96,288.99 274.23,312.96 264.50,334.80 252.10,354.04 233.63,377.30 196.55,416.75 189.37,426.47 184.36,436.14 181.85,444.48 180.37,453.49 180.28,462.25 181.77,470.39 184.61,478.33 188.56,485.71 197.06,495.48 207.97,505.10 229.00,521.39 249.17,538.34 257.92,549.44 264.37,560.63 269.60,571.93 272.91,583.74 273.85,592.65 273.68,601.81 272.06,610.41 269.98,616.01 267.18,621.41 263.69,626.34 259.58,630.52 254.39,634.23 248.36,637.29 241.95,639.47 235.62,640.44 229.12,639.93 222.41,638.15 215.83,635.50 209.63,632.40 198.54,624.41 188.39,615.14 170.94,597.64 160.87,588.07 150.04,580.03 142.91,576.92 135.43,574.88 127.87,574.17 121.71,574.53 115.34,575.70 109.27,577.68 104.05,580.74 99.67,585.32 96.06,591.17 93.13,597.64 90.84,604.10 88.33,617.03 87.95,630.21 89.27,642.07 91.86,653.88 95.30,666.65 100.10,679.33 107.36,692.66 115.77,705.13 131.82,723.61 148.68,739.39 160.75,747.07 173.91,753.38 187.29,757.56 200.97,759.80 214.64,760.00 228.15,758.37 240.97,755.11 253.12,750.07 264.20,743.10 274.44,734.75 284.04,725.64 292.66,715.67 300.09,704.93 306.29,693.58 310.84,683.14 314.49,669.76 325.49,517.17 327.61,477.87"
        fill="none"
        stroke="#e94560"
        stroke-width="8.0"
        stroke-linejoin="round"
        stroke-linecap="round"/>
  <!-- Start/finish line -->
  <line x1="307.64" y1="476.80" x2="347.58" y2="478.95"
        stroke="#f5f5f5" stroke-width="9.6"
        stroke-linecap="round"/>
</svg>
