<?xml version="1.0" encoding="utf-8"?>
<svg xmlns="http://www.w3.org/2000/svg"
     width="800.0" height="642.4"
     viewBox="0 0 800.0 642.4">
  <rect width="100%" height="100%" fill="#1a1a2e"/>
  <!-- Track outline -->
  <polyline points="131.67,212.66 126.89,196.74 84.48,118.34 73.58,87.60 71.96,80.76 71.35,74.29 71.56,68.50 72.37,62.44 73.95,57.12 76.17,53.15 79.05,49.76 82.29,46.84 86.38,44.12 91.00,42.09 95.82,40.68 101.53,40.00 107.53,40.10 113.36,40.89 121.22,42.98 129.08,46.73 138.84,54.25 150.43,65.05 186.84,102.74 233.51,143.45 294.11,179.20 375.57,228.89 515.65,309.37 697.41,424.57 722.93,443.93 733.22,453.64 742.26,464.39 749.22,476.03 754.53,488.71 757.89,502.39 759.64,516.69 760.00,531.67 758.87,546.44 756.44,559.59 752.42,572.01 749.63,578.38 746.35,584.75 742.54,590.44 738.08,594.98 733.26,598.01 727.67,600.36 721.72,601.87 715.89,602.44 710.58,601.97 706.16,600.51 701.83,598.16 697.74,595.14 694.17,591.48 691.38,587.36 688.66,579.06 687.61,569.30 687.08,559.43 687.69,544.87 687.85,530.36 684.90,515.54 679.87,501.60 672.99,489.49 664.56,479.11 658.32,473.21 651.48,468.20 644.10,464.39 637.30,462.04 629.89,460.42 622.47,459.85 615.59,460.79 610.69,462.62 605.82,465.28 601.25,468.62 597.11,472.58 593.71,476.97 590.47,483.08 588.00,490.17 586.34,497.64 585.65,504.84 587.47,517.94 591.44,530.73 594.97,538.66 598.90,546.39 601.17,554.37 601.29,559.90 600.76,565.91 599.59,571.86 597.72,577.18 595.21,581.41 592.05,584.23 588.00,586.31 583.34,587.78 578.48,588.61 573.62,588.92 569.08,588.77 563.09,587.62 557.42,585.32 551.34,581.72 544.09,576.71 485.51,522.01 430.42,462.46 423.05,453.90 417.62,446.80 414.38,439.13 413.65,434.74 413.37,429.89 413.57,424.88 414.26,420.08 415.43,415.74 417.18,412.25 419.97,409.22 423.70,406.72 428.03,404.84 432.65,403.53 437.19,402.91 441.36,402.91 446.79,404.47 452.05,407.60 457.24,411.57 462.42,415.64 473.28,425.87 484.66,435.32 491.43,438.50 498.68,441.01 505.93,442.42 512.74,442.42 517.47,441.48 522.30,439.91 526.87,437.61 530.88,434.69 533.96,431.09 536.11,426.65 537.65,421.23 538.54,415.38 538.74,409.53 538.30,404.16 535.58,396.02 530.96,388.34 525.74,381.35 517.56,372.63 506.82,364.28 469.67,341.47 430.46,320.75 402.27,309.63 372.13,301.86 340.13,298.83 308.00,300.03 277.91,305.30 264.22,309.63 251.21,315.32 239.50,322.16 228.73,330.41 219.33,339.75 211.19,350.45 204.67,362.51 199.68,375.71 196.32,388.81 194.50,404.37 196.77,449.78 199.68,494.61 199.20,508.39 197.17,520.13 194.01,529.63 189.72,538.97 184.49,547.33 178.01,554.63 170.48,560.90 162.42,566.17 153.06,570.71 143.05,574.10 133.29,576.24 120.86,576.92 108.70,575.77 96.96,573.42 85.25,569.56 72.08,563.87 59.89,555.94 53.49,549.57 47.86,542.21 43.65,534.17 41.17,525.77 40.00,516.74 40.16,507.92 41.90,499.20 45.02,490.70 49.20,482.97 58.59,472.90 69.65,463.97 93.88,444.40 101.69,434.64 108.22,423.99 113.93,411.99 118.55,399.04 124.50,369.66 135.11,252.48 134.83,233.07 133.09,217.46 131.67,212.66"
        fill="none"
        stroke="#e94560"
        stroke-width="8.0"
        stroke-linejoin="round"
        stroke-linecap="round"/>
  <!-- Start/finish line -->
  <line x1="112.51" y1="218.39" x2="150.83" y2="206.93"
        stroke="#f5f5f5" stroke-width="9.6"
        stroke-linecap="round"/>
</svg>
