<?xml version="1.0" encoding="utf-8"?>
<svg xmlns="http://www.w3.org/2000/svg"
     width="529.3" height="800.0"
     viewBox="0 0 529.3 800.0">
  <rect width="100%" height="100%" fill="#1a1a2e"/>
  <!-- Track outline -->
  <polyline points="64.90,283.16 53.49,389.89 40.00,553.94 41.39,607.44 48.38,635.86 57.26,659.53 69.32,680.83 86.58,702.08 107.16,720.42 130.97,735.03 157.21,746.09 187.42,754.45 220.46,759.08 267.93,760.00 314.70,755.63 345.16,748.30 371.60,737.89 390.94,727.05 406.77,714.27 413.76,706.34 419.46,697.87 423.38,689.03 425.27,680.56 425.66,671.83 424.67,663.36 422.19,655.06 418.27,646.97 413.12,639.52 405.48,631.60 396.30,624.53 386.48,618.82 376.16,614.72 365.25,612.02 354.09,610.73 337.12,611.64 318.52,615.42 283.50,627.82 247.94,638.71 233.55,639.52 220.36,638.45 207.81,635.69 196.50,631.60 185.83,625.99 176.01,619.08 167.03,610.78 158.95,601.23 152.05,590.72 143.87,572.81 138.71,553.40 136.83,532.85 138.26,511.71 143.67,487.82 152.75,464.53 165.25,443.22 181.52,422.84 208.80,396.36 239.06,372.36 264.95,355.10 288.96,343.40 295.90,341.41 302.50,340.17 308.60,339.90 313.96,340.81 317.03,342.05 320.01,343.83 322.64,345.99 324.77,348.47 326.31,351.17 327.20,354.35 327.50,358.02 327.25,361.85 326.51,365.73 325.37,369.29 322.84,373.98 319.32,378.46 314.85,382.72 309.59,386.98 292.68,395.66 271.75,403.96 255.13,413.02 250.12,417.72 246.10,422.52 242.93,427.53 240.64,432.82 239.21,437.99 238.51,443.44 238.56,448.89 239.45,454.17 241.64,460.00 244.91,465.77 248.98,471.16 253.49,475.85 260.44,481.03 268.47,484.96 277.75,488.15 302.75,492.35 330.28,492.89 356.47,489.55 381.07,482.70 399.62,474.18 415.89,463.02 425.17,454.17 433.45,444.25 440.30,433.57 445.51,422.62 449.42,411.08 451.81,399.27 452.55,387.30 451.76,375.11 449.47,363.25 445.51,351.38 439.95,339.90 433.01,329.11 418.52,313.63 400.76,299.34 372.19,282.19 346.30,265.58 341.29,260.62 337.12,255.66 333.90,250.75 331.87,245.74 331.17,242.34 330.97,238.89 331.17,235.38 331.87,232.04 332.96,228.91 335.34,224.81 338.61,220.88 342.53,217.48 346.75,214.73 351.51,212.68 356.72,211.33 362.42,210.74 368.82,210.74 386.33,214.84 406.62,221.90 424.62,225.73 434.35,225.08 443.03,222.93 451.21,219.26 459.84,213.54 467.93,206.15 474.82,197.69 480.53,187.66 484.99,176.44 487.92,165.01 489.26,153.74 489.16,142.25 487.72,130.65 484.59,117.55 479.83,104.34 473.68,92.36 466.34,82.23 457.71,73.17 448.23,65.51 437.77,59.20 426.46,54.24 414.75,50.73 395.75,48.14 376.31,48.79 363.12,51.00 350.02,54.72 337.52,60.01 325.71,67.02 314.55,75.65 304.29,85.62 289.80,103.85 277.50,126.45 265.55,170.56 255.38,216.29 247.09,243.26 236.88,267.63 220.56,294.06 202.30,316.28 193.92,324.15 185.59,330.41 177.25,334.40 173.04,335.42 168.72,335.85 164.50,335.74 160.49,335.04 156.87,333.80 153.84,332.08 150.96,329.76 148.38,327.06 146.10,323.93 144.27,320.59 142.28,315.04 141.09,308.67 140.64,301.88 140.89,295.03 142.83,284.19 146.50,272.86 151.95,261.27 170.65,236.19 191.98,210.58 208.65,187.71 222.24,164.52 230.08,142.41 234.05,120.57 234.44,108.44 233.45,96.68 231.12,85.89 227.60,77.10 222.94,69.12 218.08,62.38 206.82,52.35 204.48,50.03 201.86,47.93 195.90,44.91 188.07,42.00 179.78,40.22 169.71,40.00 159.00,41.35 148.58,44.15 138.41,48.57 128.54,54.45 119.46,61.57 111.13,69.88 103.64,79.48 96.99,90.69 87.37,114.21 79.38,147.53 64.90,283.16"
        fill="none"
        stroke="#e94560"
        stroke-width="8.0"
        stroke-linejoin="round"
        stroke-linecap="round"/>
  <!-- Start/finish line -->
  <line x1="84.79" y1="285.29" x2="45.01" y2="281.04"
        stroke="#f5f5f5" stroke-width="9.6"
        stroke-linecap="round"/>
</svg>
