<?xml version="1.0" encoding="utf-8"?>
<svg xmlns="http://www.w3.org/2000/svg"
     width="751.9" height="800.0"
     viewBox="0 0 751.9 800.0">
  <rect width="100%" height="100%" fill="#1a1a2e"/>
  <!-- Track outline -->
  <polyline points="471.47,389.48 566.26,468.79 646.35,540.49 672.72,568.52 684.00,583.59 693.58,599.98 701.23,617.60 706.92,636.16 710.41,655.29 711.93,673.31 711.52,687.03 709.93,700.87 707.30,711.57 704.07,720.72 702.05,725.23 699.54,729.37 694.30,736.47 687.87,743.39 680.94,748.90 673.33,753.37 665.11,756.65 656.45,758.81 647.10,760.00 637.50,760.00 627.42,758.67 617.14,755.96 604.57,750.99 592.56,744.76 583.66,738.96 575.78,732.47 568.71,725.05 562.94,717.70 558.11,709.55 554.73,701.20 552.65,692.55 551.99,683.65 552.08,679.36 552.65,674.68 557.98,656.41 573.79,620.30 576.19,610.79 577.32,602.79 577.48,598.43 577.21,594.47 576.66,590.36 575.69,586.22 574.13,581.60 571.84,576.74 567.12,568.96 560.62,561.06 549.82,552.53 537.79,545.57 528.78,542.18 518.56,539.77 493.22,536.63 466.45,532.31 448.92,525.46 434.60,517.29 427.49,511.27 421.63,504.82 410.39,490.30 364.53,423.93 353.93,413.66 343.48,406.20 332.11,400.14 320.34,395.93 309.89,394.23 298.68,393.55 262.22,391.86 252.12,389.69 242.90,386.78 223.67,378.56 204.53,368.00 185.55,355.68 167.06,341.99 149.33,326.71 132.88,309.88 103.31,273.02 80.16,236.38 59.14,195.37 42.83,157.50 40.57,148.28 40.00,140.60 40.39,133.04 41.83,125.83 44.08,119.52 47.22,113.87 49.72,110.70 52.59,107.89 55.70,105.43 60.77,102.52 66.25,100.53 70.12,99.74 74.13,99.38 78.14,99.49 84.44,100.68 90.76,103.06 98.57,107.63 105.77,113.43 110.98,119.52 115.11,125.79 117.49,130.01 119.52,134.62 125.70,155.77 130.62,180.67 136.72,205.64 142.35,218.29 149.20,228.41 154.06,233.39 159.43,237.57 165.18,240.77 171.28,242.93 177.75,244.12 184.16,244.23 190.53,243.15 196.85,240.99 202.62,237.93 207.92,233.64 212.66,228.41 216.48,222.86 219.02,217.46 220.77,211.77 221.88,206.58 222.35,202.00 222.10,197.32 220.74,188.13 217.98,177.97 213.13,166.62 205.71,153.90 178.77,120.39 154.63,89.98 152.12,84.57 150.96,79.82 150.01,73.40 150.14,66.70 151.16,61.76 152.86,56.79 155.17,52.36 157.89,48.90 161.13,45.91 164.73,43.50 168.85,41.69 173.32,40.50 177.78,40.00 184.35,40.72 190.28,42.27 193.25,43.24 196.13,44.68 209.78,54.95 255.40,92.86 268.99,106.91 281.94,123.09 293.25,141.58 303.39,161.75 311.07,182.62 315.92,203.30 317.19,221.78 319.20,235.04 322.67,248.52 328.42,260.81 335.37,271.83 340.63,278.64 348.04,286.17 471.47,389.48"
        fill="none"
        stroke="#e94560"
        stroke-width="8.0"
        stroke-linejoin="round"
        stroke-linecap="round"/>
  <!-- Start/finish line -->
  <line x1="484.30" y1="374.14" x2="458.63" y2="404.82"
        stroke="#f5f5f5" stroke-width="9.6"
        stroke-linecap="round"/>
</svg>
