<?xml version="1.0" encoding="utf-8"?>
<svg xmlns="http://www.w3.org/2000/svg"
     width="495.1" height="800.0"
     viewBox="0 0 495.1 800.0">
  <rect width="100%" height="100%" fill="#1a1a2e"/>
  <!-- Track outline -->
  <polyline points="418.55,336.84 454.12,173.06 455.07,155.87 453.94,141.93 450.96,126.78 446.43,112.99 441.55,103.16 435.39,94.55 425.28,84.45 413.56,75.90 401.37,69.67 386.51,64.73 291.89,48.52 263.43,43.11 236.93,40.00 219.97,41.11 204.63,44.42 192.74,48.79 181.97,54.78 172.72,62.02 164.63,70.84 158.34,80.49 153.33,91.69 149.60,105.69 147.02,122.56 142.35,200.55 122.92,330.36 57.58,623.53 40.60,703.07 40.00,715.52 41.03,725.76 43.81,734.81 47.17,742.23 48.84,745.40 50.75,748.10 54.98,752.35 59.48,755.93 61.85,757.35 64.35,758.31 69.47,759.53 75.12,760.00 78.73,759.71 82.33,759.01 85.82,757.91 90.57,755.55 94.96,752.35 98.71,748.57 102.13,743.56 106.76,734.02 110.79,721.22 113.93,688.58 117.14,655.71 121.31,642.39 126.34,631.80 131.40,623.68 137.08,616.81 143.60,610.76 150.67,605.82 158.24,601.98 166.10,599.30 174.23,597.82 182.43,597.56 190.47,598.57 198.14,600.76 204.42,603.55 210.16,607.21 215.18,611.64 219.37,616.29 221.32,618.88 222.91,621.79 225.17,627.75 226.80,633.92 227.12,637.00 227.08,639.88 226.82,642.85 226.30,645.79 225.61,648.58 224.38,651.64 217.74,661.56 210.24,670.87 207.85,673.05 205.61,675.26 200.68,683.00 196.41,692.16 194.86,698.65 194.39,705.11 195.00,711.88 196.61,718.49 199.45,724.97 202.75,730.56 204.79,733.50 207.28,736.12 212.26,740.04 218.56,744.15 224.91,747.26 230.36,748.86 235.84,749.64 241.34,749.82 249.78,749.12 258.40,746.76 265.51,743.53 272.78,739.20 279.61,733.96 288.61,724.83 296.30,713.95 302.10,701.82 306.11,688.55 307.94,674.79 307.66,660.36 304.30,642.41 298.60,625.05 292.13,611.46 283.39,598.40 237.53,552.47 203.22,515.11 194.13,501.41 187.02,487.36 181.73,472.64 178.26,457.89 177.13,446.40 177.30,435.81 178.18,428.60 179.93,421.70 183.56,412.07 188.67,402.44 196.91,391.91 207.38,380.86 253.53,335.88 261.00,325.18 266.07,315.03 268.77,306.88 270.10,298.53 270.10,291.99 269.38,285.21 268.07,279.13 265.33,272.58 262.11,267.35 260.17,264.73 257.72,262.25 245.89,253.70 232.76,243.46 225.75,235.37 220.50,226.73 217.76,219.05 216.31,211.03 216.05,202.44 216.97,193.80 219.25,184.93 222.67,176.52 227.40,168.52 233.10,161.54 239.81,155.64 247.16,150.98 255.20,147.55 263.60,145.43 272.14,144.55 281.36,145.16 296.34,148.74 311.79,154.24 324.28,159.80 335.68,166.23 344.22,172.28 351.87,179.17 358.52,186.73 364.42,195.61 370.24,207.80 374.57,221.38 376.56,234.82 376.66,249.63 367.80,300.92 349.90,385.83 344.82,397.56 339.46,405.91 334.65,411.29 329.53,415.33 323.73,418.53 318.18,420.68 315.26,421.44 311.95,421.85 296.22,421.91 280.74,422.11 277.69,422.72 275.30,423.59 272.86,424.76 270.54,426.24 268.43,428.01 266.46,430.08 264.66,432.44 263.05,435.08 261.46,437.85 260.33,441.28 259.93,446.37 260.33,452.68 261.94,459.84 273.00,482.50 290.14,509.61 305.06,530.30 312.68,538.68 319.53,544.12 325.22,547.29 330.90,549.27 337.03,550.28 342.71,550.49 345.69,550.34 348.77,549.61 357.01,546.01 365.57,540.86 370.60,536.64 375.05,531.43 380.01,524.16 384.88,513.08 415.94,348.86 418.55,336.84"
        fill="none"
        stroke="#e94560"
        stroke-width="8.0"
        stroke-linejoin="round"
        stroke-linecap="round"/>
  <!-- Start/finish line -->
  <line x1="399.01" y1="332.60" x2="438.10" y2="341.09"
        stroke="#f5f5f5" stroke-width="9.6"
        stroke-linecap="round"/>
</svg>
