<?xml version="1.0" encoding="utf-8"?>
<svg xmlns="http://www.w3.org/2000/svg"
     width="529.7" height="800.0"
     viewBox="0 0 529.7 800.0">
  <rect width="100%" height="100%" fill="#1a1a2e"/>
  <!-- Track outline -->
  <polyline points="442.64,549.96 456.34,511.34 488.12,329.40 489.71,285.38 486.15,240.83 476.50,196.81 469.25,175.18 460.27,154.39 448.97,134.51 435.81,116.16 420.69,99.10 404.04,83.94 385.66,70.77 366.18,59.80 345.59,51.04 324.38,44.80 302.50,41.07 280.38,40.00 258.25,41.75 236.43,46.17 215.66,53.18 195.68,62.47 177.18,73.66 159.67,86.61 128.75,115.63 103.92,149.13 83.82,186.00 68.03,224.68 52.97,299.70 41.78,389.41 40.00,551.02 46.08,588.49 56.59,624.82 72.39,658.25 92.67,689.17 104.96,703.19 118.30,716.06 132.81,728.01 148.30,738.37 165.01,746.98 182.41,753.60 200.60,757.94 219.16,760.00 238.15,759.92 257.08,757.64 275.64,752.92 293.71,746.06 310.74,737.46 326.90,727.33 354.87,704.63 376.63,683.77 397.71,657.41 416.33,624.13 442.64,549.96"
        fill="none"
        stroke="#e94560"
        stroke-width="8.0"
        stroke-linejoin="round"
        stroke-linecap="round"/>
  <!-- Start/finish line -->
  <line x1="423.79" y1="543.27" x2="461.48" y2="556.64"
        stroke="#f5f5f5" stroke-width="9.6"
        stroke-linecap="round"/>
</svg>
