<?xml version="1.0" encoding="utf-8"?>
<svg xmlns="http://www.w3.org/2000/svg"
     width="640.9" height="800.0"
     viewBox="0 0 640.9 800.0">
  <rect width="100%" height="100%" fill="#1a1a2e"/>
  <!-- Track outline -->
  <polyline points="472.19,207.30 487.52,92.78 488.48,87.36 489.98,81.45 492.16,75.47 494.78,69.58 498.21,62.91 501.53,57.46 505.69,52.28 510.31,48.44 515.36,45.50 521.42,43.02 526.79,41.43 532.78,40.37 538.55,40.00 544.79,40.41 550.76,41.29 556.06,42.73 560.59,44.36 566.01,47.18 571.27,50.56 577.71,55.03 584.27,60.51 588.53,64.72 593.06,71.40 597.08,80.52 599.26,87.87 600.61,94.70 600.93,102.69 600.75,110.71 600.13,117.33 599.58,119.27 595.01,128.03 591.13,134.16 583.61,144.35 556.67,180.26 546.21,195.62 535.78,218.37 520.20,261.04 507.55,291.35 500.53,306.42 492.95,320.26 481.62,337.02 471.55,347.55 460.00,358.02 450.37,364.24 437.62,371.79 420.41,380.57 413.20,383.61 406.49,385.09 399.66,384.78 390.15,383.27 380.93,380.49 368.48,374.24 348.01,361.67 252.04,303.29 214.52,282.83 208.98,281.42 202.25,280.91 195.52,280.91 188.37,281.62 181.56,283.37 175.18,286.85 169.78,291.10 164.86,295.96 160.95,301.29 158.19,307.15 155.93,313.80 154.44,320.26 153.93,327.00 154.51,335.73 156.42,342.79 160.74,351.01 168.29,359.87 177.24,366.99 185.79,372.05 204.45,379.33 217.94,384.36 271.23,405.32 283.98,410.68 296.30,416.98 308.27,423.86 319.30,431.55 329.30,440.13 338.02,449.52 345.50,459.62 351.85,470.74 357.00,483.87 373.31,543.83 390.55,591.99 397.78,605.23 406.57,614.59 418.18,623.79 429.00,630.42 438.46,635.58 452.86,641.22 463.29,643.51 474.86,645.39 526.59,648.94 536.24,650.88 545.31,653.56 556.17,658.50 563.62,663.28 567.00,666.01 570.21,669.13 573.89,673.57 577.18,678.30 581.26,686.03 584.13,693.99 585.16,699.33 585.68,704.71 585.59,708.80 585.12,712.74 584.36,716.66 583.17,720.67 580.91,726.00 578.18,731.20 573.22,738.48 567.49,744.94 560.88,750.37 553.60,754.63 545.74,757.78 537.22,759.51 528.20,760.00 518.55,759.15 508.43,757.11 497.74,753.89 486.53,749.32 474.67,743.63 430.11,718.18 377.42,684.23 318.85,642.76 232.12,573.92 92.08,455.68 76.14,441.88 66.82,432.84 58.19,422.91 47.48,409.70 44.27,404.57 41.56,399.58 40.00,394.68 40.11,389.30 41.15,384.80 42.57,380.51 45.67,375.17 49.94,369.13 58.23,359.86 66.53,351.21 80.72,336.27 91.80,320.43 96.32,311.70 97.42,307.93 97.93,304.82 97.25,301.22 96.17,297.76 94.51,294.43 92.49,291.25 87.84,285.22 58.49,252.43 54.59,247.31 52.06,243.89 49.54,240.50 47.18,236.61 45.45,233.53 44.51,229.65 45.88,224.58 47.73,220.83 50.40,216.71 54.32,212.63 58.44,209.68 61.86,207.60 68.20,204.29 75.38,202.00 82.70,201.30 91.77,201.46 144.45,203.15 169.63,205.79 182.81,208.11 195.87,211.24 209.64,214.72 224.20,219.35 239.35,225.06 254.52,231.02 301.87,254.93 347.10,276.50 364.06,283.29 375.52,285.43 386.84,286.35 398.03,285.90 409.05,284.14 419.70,281.13 430.00,276.94 439.76,271.61 448.65,265.19 456.69,257.60 463.18,247.12 467.03,236.76 470.08,223.02 472.19,207.30"
        fill="none"
        stroke="#e94560"
        stroke-width="8.0"
        stroke-linejoin="round"
        stroke-linecap="round"/>
  <!-- Start/finish line -->
  <line x1="452.37" y1="204.64" x2="492.02" y2="209.95"
        stroke="#f5f5f5" stroke-width="9.6"
        stroke-linecap="round"/>
</svg>
