<?xml version="1.0" encoding="utf-8"?>
<svg xmlns="http://www.w3.org/2000/svg"
     width="572.2" height="800.0"
     viewBox="0 0 572.2 800.0">
  <rect width="100%" height="100%" fill="#1a1a2e"/>
  <!-- Track outline -->
  <polyline points="148.34,306.36 144.53,303.63 63.69,248.25 55.10,240.74 49.01,233.91 45.17,228.12 42.35,222.07 41.12,218.10 40.30,214.00 40.00,209.93 40.29,205.96 41.08,202.03 42.27,198.35 44.04,194.70 46.29,191.34 48.82,188.29 53.56,183.97 58.92,180.50 65.16,177.79 71.78,176.05 78.84,175.25 86.33,175.49 106.69,180.00 111.52,181.26 116.43,183.02 120.60,184.97 125.04,187.50 137.06,195.72 141.64,198.98 145.40,200.86 148.93,201.80 152.52,201.97 155.76,201.69 160.50,201.32 164.52,201.12 174.33,200.17 183.92,199.28 189.91,198.89 192.85,199.47 196.45,200.67 200.94,202.84 217.99,214.59 266.07,254.99 306.58,290.92 311.04,294.83 315.12,298.01 319.33,300.98 323.88,303.65 328.29,305.73 332.68,306.71 337.01,306.75 341.45,306.06 344.54,305.34 348.65,303.78 353.30,301.37 357.57,298.08 361.61,293.59 365.28,288.21 368.37,282.49 370.48,277.11 370.77,272.14 370.39,267.20 368.19,261.63 365.01,256.33 360.45,251.76 355.36,247.59 341.47,238.44 295.05,219.06 285.26,213.61 271.67,203.99 237.37,175.04 192.27,131.88 162.09,106.66 154.74,102.61 145.88,99.57 137.84,98.85 126.94,99.46 116.76,101.52 107.11,105.36 97.66,110.17 89.71,114.51 82.24,119.35 77.12,121.34 73.07,121.93 70.27,122.12 67.77,121.67 65.80,121.06 63.80,120.28 62.04,119.37 60.13,118.13 58.04,116.55 56.41,114.68 55.36,112.34 54.74,109.28 54.66,106.03 55.15,101.87 56.09,97.86 57.73,92.07 60.01,86.10 63.39,79.34 67.19,72.57 72.04,65.00 75.95,60.02 83.75,52.38 93.90,45.49 104.98,41.28 115.28,40.00 125.54,40.78 133.08,42.56 143.82,46.77 156.87,53.94 184.68,74.59 223.42,106.42 279.99,150.88 305.39,168.70 359.18,199.65 372.75,207.95 384.64,215.76 394.70,224.87 404.78,235.65 508.93,388.22 515.19,398.05 520.73,408.13 524.96,417.33 527.96,425.44 529.94,434.22 531.73,443.26 532.20,451.81 531.99,458.36 531.13,465.45 529.73,472.86 527.67,480.80 525.70,488.17 522.66,496.78 519.14,504.16 391.37,744.10 388.93,748.81 386.25,753.15 383.37,756.55 380.11,758.37 376.70,759.57 372.95,760.00 369.14,759.59 365.90,758.70 361.48,757.09 355.09,752.93 332.30,734.84 329.60,732.09 327.29,728.75 324.19,723.57 322.07,718.99 321.01,714.53 320.38,709.78 320.21,705.59 321.83,700.30 324.03,695.38 395.72,573.81 403.13,563.49 440.29,513.91 443.03,509.68 445.36,505.59 447.53,500.82 449.15,495.70 450.03,489.93 449.86,483.92 448.77,478.63 446.71,473.56 443.82,468.50 439.95,463.69 434.76,458.85 429.20,454.65 421.61,449.72 411.08,445.17 402.43,441.90 300.86,405.88 278.62,397.22 269.31,393.54 257.96,388.03 249.55,382.87 238.04,373.78 220.36,360.01 148.34,306.36"
        fill="none"
        stroke="#e94560"
        stroke-width="8.0"
        stroke-linejoin="round"
        stroke-linecap="round"/>
  <!-- Start/finish line -->
  <line x1="136.40" y1="322.41" x2="160.27" y2="290.31"
        stroke="#f5f5f5" stroke-width="9.6"
        stroke-linecap="round"/>
</svg>
