<?xml version="1.0" encoding="utf-8"?>
<svg xmlns="http://www.w3.org/2000/svg"
     width="800.0" height="350.5"
     viewBox="0 0 800.0 350.5">
  <rect width="100%" height="100%" fill="#1a1a2e"/>
  <!-- Track outline -->
  <polyline points="589.83,278.47 586.49,280.58 575.18,287.14 557.82,295.25 539.65,301.92 523.93,306.13 507.83,309.01 491.55,310.45 475.10,310.46 458.58,309.08 442.18,306.30 425.91,302.11 406.52,295.35 383.96,285.45 326.35,256.74 267.30,225.44 227.49,202.77 205.69,190.34 201.15,188.55 197.16,187.54 193.72,187.17 190.42,187.34 187.34,188.02 184.35,189.21 181.34,191.00 178.19,193.50 165.95,206.08 156.22,213.35 144.25,219.79 121.39,231.00 112.47,236.25 110.00,237.14 107.70,237.59 105.50,237.64 103.36,237.33 101.42,236.69 99.56,235.70 97.75,234.23 95.91,232.26 92.95,227.95 89.21,223.05 80.97,216.64 71.54,210.44 54.52,199.28 50.81,196.21 47.80,193.21 45.50,190.44 43.58,187.52 42.08,184.46 40.96,181.22 40.29,177.83 40.00,174.33 40.04,170.67 40.46,166.89 42.90,157.52 47.97,145.84 56.94,129.98 64.22,119.62 66.95,116.68 69.74,114.27 72.70,112.25 75.83,110.67 79.08,109.58 82.42,108.91 85.76,108.62 89.23,108.71 93.55,109.24 98.00,110.21 107.16,113.60 118.11,119.64 146.43,139.03 182.68,163.05 260.69,210.23 274.39,216.67 278.14,217.71 281.61,218.18 284.97,218.21 288.22,217.75 291.17,216.77 294.01,215.27 297.06,213.01 299.97,210.15 303.03,206.29 305.83,201.69 308.79,195.20 311.16,187.75 312.80,178.21 313.63,167.28 312.98,129.00 306.41,85.26 304.98,73.96 304.92,69.61 305.26,65.50 306.01,61.69 307.17,58.11 308.72,54.84 310.57,51.94 312.30,49.92 314.26,48.19 316.92,46.35 319.93,44.74 323.83,43.18 328.12,41.95 339.40,40.39 358.18,40.00 521.92,42.70 611.94,46.88 650.52,49.63 662.02,51.61 666.44,52.95 670.47,54.60 673.62,56.28 676.46,58.26 678.95,60.54 681.14,63.10 682.93,65.79 684.45,68.76 685.82,72.49 686.85,76.52 687.46,80.77 687.68,85.36 686.83,98.88 685.21,120.76 685.66,126.13 686.62,130.77 687.89,134.56 689.53,138.00 691.50,141.14 693.76,143.98 696.24,146.44 699.03,148.59 702.71,150.76 706.60,152.49 710.07,153.54 713.65,154.13 718.02,154.29 722.63,153.89 727.80,152.76 733.27,150.87 741.56,146.46 748.91,142.60 750.39,142.17 751.61,141.97 752.79,141.98 753.99,142.15 755.16,142.50 756.23,143.04 757.20,143.73 758.07,144.59 758.79,145.56 759.31,146.57 759.68,147.68 759.92,148.86 760.00,150.16 759.92,151.53 759.69,152.93 758.86,155.61 757.59,158.29 755.82,160.98 753.58,163.58 745.68,170.41 656.91,232.43 613.28,263.25 592.21,276.97 589.83,278.47"
        fill="none"
        stroke="#e94560"
        stroke-width="8.0"
        stroke-linejoin="round"
        stroke-linecap="round"/>
  <!-- Start/finish line -->
  <line x1="600.52" y1="295.37" x2="579.15" y2="261.56"
        stroke="#f5f5f5" stroke-width="9.6"
        stroke-linecap="round"/>
</svg>
