<?xml version="1.0" encoding="utf-8"?>
<svg xmlns="http://www.w3.org/2000/svg"
     width="487.0" height="800.0"
     viewBox="0 0 487.0 800.0">
  <rect width="100%" height="100%" fill="#1a1a2e"/>
  <!-- Track outline -->
  <polyline points="314.47,128.41 314.58,132.93 315.23,139.30 316.35,147.90 318.60,160.63 322.08,175.12 326.50,191.71 332.90,211.15 341.72,234.16 348.12,251.72 351.07,260.67 353.58,269.85 355.20,278.67 356.41,288.94 356.68,298.69 355.88,310.54 353.87,324.58 351.81,335.95 348.62,350.09 344.49,362.34 339.10,374.89 333.31,384.68 325.56,392.80 316.44,400.18 305.82,407.33 298.27,410.67 290.72,413.13 285.41,413.96 278.54,414.31 271.28,414.27 246.06,411.06 233.08,409.31 220.08,407.37 207.75,406.37 193.18,405.93 178.19,405.79 162.32,406.28 146.78,407.59 127.99,409.88 111.82,412.20 97.05,415.76 86.25,420.32 77.99,424.49 68.35,430.07 58.67,437.44 52.42,445.35 46.75,454.83 42.74,466.59 40.35,481.34 40.00,496.40 41.03,511.76 43.45,524.58 46.49,536.43 50.29,546.75 55.60,555.13 62.03,561.76 70.12,567.07 77.20,570.01 85.28,572.47 93.01,573.48 101.29,574.14 115.07,574.40 126.34,573.88 143.15,573.92 161.41,575.50 176.89,578.05 190.73,580.94 203.74,584.32 216.33,588.36 227.98,592.88 240.87,598.81 253.85,606.54 263.73,615.01 274.03,626.38 283.85,639.20 294.79,657.63 308.21,682.92 328.30,720.67 339.80,739.37 350.30,749.60 360.95,756.93 374.11,760.00 388.12,758.99 401.16,756.14 413.07,750.69 423.54,743.54 432.87,733.79 437.73,722.78 439.47,709.43 438.06,697.05 434.87,682.52 430.09,670.98 426.64,662.64 424.49,654.78 423.34,646.44 424.10,638.76 426.82,632.08 431.10,624.75 433.90,618.30 435.84,610.93 436.70,601.22 435.99,592.23 433.13,580.24 430.62,572.21 426.52,562.24 421.24,552.28 414.64,541.52 408.56,532.92 401.19,523.75 396.67,514.44 394.61,504.61 395.05,494.42 397.71,486.30 401.83,479.59 408.12,470.89 415.34,461.37 420.98,452.54 424.90,442.40 427.14,431.87 428.41,423.88 428.20,415.23 426.61,405.31 424.02,397.76 419.65,386.13 415.73,374.10 412.66,361.37 410.62,348.38 410.18,336.61 410.62,323.00 412.72,307.03 417.88,288.24 422.90,273.23 426.38,258.96 427.41,246.01 426.46,234.86 423.96,224.41 420.15,214.32 413.75,204.83 407.20,196.05 399.50,184.11 393.46,173.18 388.59,162.96 386.35,153.52 386.02,143.60 387.59,135.65 390.42,128.76 396.35,123.18 405.26,119.19 416.76,116.21 426.94,112.56 435.14,107.56 442.07,100.27 445.61,92.37 446.96,84.29 446.05,75.60 444.31,67.30 441.01,59.40 435.61,51.54 430.39,46.45 423.99,42.33 415.96,40.26 408.18,40.00 397.29,41.67 381.22,46.19 367.80,51.02 359.63,55.10 350.57,60.54 342.58,68.36 336.12,75.78 328.98,87.10 321.40,101.63 317.18,112.47 314.91,122.66 314.47,128.41"
        fill="none"
        stroke="#e94560"
        stroke-width="8.0"
        stroke-linejoin="round"
        stroke-linecap="round"/>
  <!-- Start/finish line -->
  <line x1="334.46" y1="129.04" x2="294.48" y2="127.78"
        stroke="#f5f5f5" stroke-width="9.6"
        stroke-linecap="round"/>
</svg>
