<?xml version="1.0" encoding="utf-8"?>
<svg xmlns="http://www.w3.org/2000/svg"
     width="800.0" height="573.5"
     viewBox="0 0 800.0 573.5">
  <rect width="100%" height="100%" fill="#1a1a2e"/>
  <!-- Track outline -->
  <polyline points="269.14,293.74 225.12,260.29 80.31,153.53 65.83,140.07 55.70,128.31 49.17,118.67 44.38,108.81 41.34,99.09 40.00,89.23 40.29,82.75 41.34,76.30 42.95,70.53 45.60,64.65 48.96,59.54 53.11,54.72 57.86,50.56 63.18,47.01 69.22,44.16 79.14,41.41 89.45,40.00 96.80,40.11 103.78,41.16 110.84,42.99 117.67,45.70 124.15,49.23 130.17,53.59 135.51,58.63 140.15,64.40 143.71,70.07 146.78,77.40 151.86,105.78 157.58,135.32 162.54,145.99 168.49,154.48 175.88,162.65 184.64,169.72 197.16,176.63 212.16,182.54 240.77,189.69 268.79,196.94 281.23,202.54 292.35,209.44 320.63,233.78 393.49,305.33 476.22,361.49 528.44,399.91 554.85,426.53 577.45,448.75 582.76,452.38 587.34,454.74 591.98,456.36 596.71,457.34 601.47,457.66 606.05,457.27 610.11,456.36 614.02,454.81 617.73,452.52 621.81,448.86 625.64,444.21 628.67,438.96 630.81,432.90 632.12,426.21 632.44,419.38 631.62,411.95 629.67,404.38 626.66,396.88 618.57,383.50 606.31,369.38 520.20,301.70 401.02,203.25 297.28,104.58 287.59,92.89 281.46,82.85 279.24,77.54 277.75,72.33 277.08,67.18 277.26,62.40 278.13,57.64 279.68,53.42 281.34,50.63 283.44,48.06 285.78,45.85 288.06,44.08 290.48,42.75 292.96,41.90 295.68,41.55 298.51,41.55 301.54,41.90 304.72,42.75 307.93,44.12 317.39,51.97 327.14,61.76 345.71,78.24 354.55,82.82 363.72,85.81 373.06,87.68 383.80,87.78 411.73,80.49 440.02,71.80 451.78,69.33 462.29,68.28 473.76,69.09 483.66,70.85 490.31,73.10 493.99,74.61 498.08,76.80 506.57,82.64 516.29,91.62 533.87,117.82 551.53,144.23 560.87,153.39 570.64,160.18 585.01,167.29 601.94,173.03 633.17,178.70 663.73,184.02 677.63,188.53 689.77,194.02 701.91,201.10 713.33,209.51 723.69,219.13 733.06,229.94 741.08,241.73 747.86,254.52 753.11,267.97 756.91,282.02 759.24,296.21 760.00,311.21 758.60,331.21 755.18,350.93 750.83,365.51 745.17,378.82 738.72,390.44 730.49,402.23 710.67,423.75 690.38,447.52 679.00,470.58 670.01,491.64 664.84,501.53 659.47,509.67 652.93,516.57 645.31,522.35 634.45,527.94 622.54,531.78 614.37,533.12 605.99,533.47 597.67,532.77 585.47,529.74 572.51,523.86 522.69,486.43 269.14,293.74"
        fill="none"
        stroke="#e94560"
        stroke-width="8.0"
        stroke-linejoin="round"
        stroke-linecap="round"/>
  <!-- Start/finish line -->
  <line x1="257.04" y1="309.67" x2="281.24" y2="277.82"
        stroke="#f5f5f5" stroke-width="9.6"
        stroke-linecap="round"/>
</svg>
