<?xml version="1.0" encoding="utf-8"?>
<svg xmlns="http://www.w3.org/2000/svg"
     width="800.0" height="362.1"
     viewBox="0 0 800.0 362.1">
  <rect width="100%" height="100%" fill="#1a1a2e"/>
  <!-- Track outline -->
  <polyline points="636.35,178.59 136.26,318.91 131.95,319.90 125.26,321.21 118.92,322.10 111.57,322.12 103.53,321.15 95.88,319.18 86.93,315.42 82.78,313.15 78.23,310.36 73.77,307.38 69.16,304.07 65.11,300.09 62.01,296.36 59.45,292.55 56.82,287.79 54.40,282.92 50.73,274.34 46.76,263.30 44.18,255.15 42.16,247.01 40.73,239.73 40.00,233.75 40.00,227.44 40.75,222.73 41.82,218.56 43.77,213.88 46.18,209.36 49.00,205.20 52.77,200.97 57.75,196.52 63.83,192.28 69.76,189.05 72.84,187.74 75.36,187.10 77.88,186.77 82.03,186.74 95.05,188.13 117.27,192.28 132.77,196.07 156.40,202.78 193.03,215.18 206.16,219.29 213.27,221.16 219.32,222.56 226.35,223.43 236.30,224.17 253.56,224.40 264.12,224.14 273.90,223.13 280.03,222.13 287.60,220.20 373.06,196.14 377.45,195.19 384.47,194.07 391.86,193.59 395.49,193.54 400.59,193.87 406.02,194.95 424.83,199.51 431.73,200.96 445.16,203.58 449.75,203.90 454.10,203.71 457.94,203.00 514.59,187.44 517.93,186.21 521.02,184.48 523.58,182.65 525.61,180.48 527.28,178.00 528.42,175.18 529.27,171.69 529.63,168.03 529.67,163.86 529.18,159.36 528.39,155.54 527.23,150.82 526.05,146.11 525.23,140.86 524.67,135.87 524.68,130.28 525.28,124.66 526.50,118.61 528.33,112.35 531.05,106.38 534.23,100.63 537.60,95.50 541.14,91.16 546.15,86.35 553.07,81.45 558.57,78.34 563.58,76.24 570.31,74.20 685.71,41.72 690.97,40.61 697.29,40.00 704.58,40.03 709.89,40.61 716.61,42.12 723.17,44.48 728.73,46.97 735.24,50.81 738.91,53.37 742.50,56.49 746.20,60.83 749.91,65.98 753.02,71.50 755.40,76.83 757.59,82.64 758.92,87.95 759.82,93.80 760.00,99.03 759.51,105.15 758.27,111.94 756.50,118.40 753.86,124.87 750.24,130.97 746.21,136.32 741.32,141.43 735.99,145.98 730.91,149.41 726.11,152.32 721.42,154.50 715.63,156.51 704.14,159.57 636.35,178.59"
        fill="none"
        stroke="#e94560"
        stroke-width="8.0"
        stroke-linejoin="round"
        stroke-linecap="round"/>
  <!-- Start/finish line -->
  <line x1="641.75" y1="197.85" x2="630.95" y2="159.33"
        stroke="#f5f5f5" stroke-width="9.6"
        stroke-linecap="round"/>
</svg>
