<?xml version="1.0" encoding="utf-8"?>
<svg xmlns="http://www.w3.org/2000/svg"
     width="800.0" height="698.1"
     viewBox="0 0 800.0 698.1">
  <rect width="100%" height="100%" fill="#1a1a2e"/>
  <!-- Track outline -->
  <polyline points="66.09,345.08 45.48,396.67 41.94,413.54 40.00,437.98 41.81,465.80 44.64,477.13 48.60,487.25 53.61,496.49 60.02,505.44 67.52,513.46 75.57,520.32 84.21,526.18 93.44,530.77 103.26,533.87 116.29,534.92 130.07,533.98 141.07,532.21 146.17,530.72 150.93,528.28 163.32,520.10 176.22,508.71 185.41,497.20 194.68,480.73 231.73,378.48 269.24,277.23 279.02,261.86 288.46,251.68 299.04,242.94 309.19,236.70 314.59,234.37 319.65,232.99 324.87,232.11 330.14,231.88 335.41,232.11 340.72,233.27 346.79,236.36 352.61,240.46 357.33,244.33 361.54,248.64 364.83,253.06 367.53,257.87 368.92,260.92 369.97,264.12 370.60,268.16 368.49,288.68 363.56,313.78 350.58,369.08 349.82,390.92 352.18,412.71 359.69,441.19 371.49,470.27 390.79,504.67 413.72,537.13 436.94,564.12 462.36,587.78 492.15,609.35 523.85,627.21 556.22,641.31 590.44,651.32 634.99,657.51 676.59,658.07 696.78,655.19 714.10,649.33 724.39,643.86 734.00,637.16 742.17,629.70 749.63,619.36 755.15,608.91 757.39,604.70 759.16,600.67 760.00,595.97 758.65,585.46 754.98,573.13 750.52,562.12 746.60,554.83 742.13,548.52 736.73,542.60 722.74,531.82 707.36,523.08 696.27,518.27 683.71,514.62 647.85,509.59 612.65,503.84 601.44,499.20 592.09,493.33 581.04,484.71 571.90,475.36 568.48,469.78 566.17,464.19 564.44,458.88 563.43,453.57 563.17,448.49 563.68,443.45 564.99,438.53 566.97,433.89 569.62,429.19 573.25,424.82 581.51,418.68 591.45,413.48 601.61,409.67 613.54,406.74 644.18,403.14 675.83,398.33 691.64,392.36 705.29,384.18 718.15,373.17 729.27,359.90 737.49,345.41 743.82,328.93 749.25,306.15 751.53,283.04 750.85,272.14 748.92,261.97 745.63,251.90 739.39,239.40 731.04,227.13 721.60,215.96 705.46,201.53 683.29,187.48 448.20,86.40 351.76,48.41 319.82,41.88 290.27,40.00 264.90,41.94 241.29,47.63 222.29,56.09 204.50,68.26 185.66,85.84 166.69,111.28 88.55,288.90 66.09,345.08"
        fill="none"
        stroke="#e94560"
        stroke-width="8.0"
        stroke-linejoin="round"
        stroke-linecap="round"/>
  <!-- Start/finish line -->
  <line x1="84.66" y1="352.50" x2="47.52" y2="337.66"
        stroke="#f5f5f5" stroke-width="9.6"
        stroke-linecap="round"/>
</svg>
