<?xml version="1.0" encoding="utf-8"?>
<svg xmlns="http://www.w3.org/2000/svg"
     width="561.0" height="800.0"
     viewBox="0 0 561.0 800.0">
  <rect width="100%" height="100%" fill="#1a1a2e"/>
  <!-- Track outline -->
  <polyline points="332.65,320.51 335.93,204.69 336.57,91.96 335.07,81.30 332.76,73.11 329.69,65.70 325.80,59.02 321.20,53.21 316.02,48.29 311.19,44.96 306.06,42.48 300.64,40.81 294.84,40.00 287.34,40.09 279.71,41.34 272.37,43.97 265.63,47.70 262.89,49.66 260.24,52.04 255.93,57.09 252.25,62.28 251.09,64.43 250.22,66.59 248.97,70.39 248.04,74.41 247.68,77.50 247.86,80.59 248.64,83.36 249.84,86.21 251.16,88.59 252.46,90.23 254.09,91.64 262.53,96.61 277.89,105.11 283.20,109.11 288.17,114.20 292.53,119.99 296.41,126.81 299.60,134.23 302.25,142.47 304.24,151.55 306.66,179.49 305.90,216.22 292.46,379.09 280.52,492.72 272.40,545.95 265.15,575.59 256.10,598.74 246.22,615.71 234.16,630.02 227.52,636.18 220.47,641.50 213.67,645.33 206.33,648.39 196.51,651.33 186.32,653.37 177.36,654.34 168.74,654.40 161.36,653.67 154.32,652.10 149.17,650.28 144.24,648.01 141.17,646.09 138.52,643.85 135.95,640.82 133.83,637.71 131.87,633.91 130.15,628.78 129.01,623.05 128.42,615.86 128.63,607.49 134.54,570.09 153.92,481.88 206.93,270.54 209.98,262.55 212.84,257.27 215.65,253.53 218.82,250.17 221.26,248.37 223.77,247.05 226.29,246.12 228.85,245.61 231.32,245.51 233.71,245.81 235.80,246.52 237.75,247.57 239.58,248.95 241.23,250.61 242.77,252.66 244.05,254.94 245.07,257.51 245.85,260.22 246.86,266.11 247.02,272.34 246.29,278.94 241.18,296.99 209.53,387.98 191.83,460.04 186.59,500.42 186.95,509.78 188.36,517.83 190.54,524.64 192.68,529.09 194.86,532.91 195.63,534.03 196.52,535.06 199.46,537.93 202.84,540.72 204.93,541.98 207.14,542.95 210.68,544.15 214.40,544.90 217.34,544.91 220.22,544.47 223.40,543.60 226.55,542.19 229.02,540.55 231.44,538.51 233.55,536.27 235.76,532.86 237.62,528.66 243.98,506.53 250.61,475.62 266.73,357.42 276.53,245.41 277.51,205.61 276.36,196.78 274.37,189.32 271.85,183.40 268.60,178.01 264.29,172.56 258.38,167.34 252.72,163.16 251.57,162.56 250.36,162.19 245.28,161.10 239.34,160.67 234.59,161.70 230.36,163.32 227.83,164.58 225.58,166.00 221.16,169.51 216.48,174.45 212.18,180.50 207.72,188.78 202.98,200.96 139.51,441.29 123.07,492.81 102.93,541.01 76.67,594.15 45.59,653.78 42.20,663.17 40.69,670.12 40.00,677.04 40.41,681.52 41.52,685.59 42.59,688.11 43.96,690.52 45.72,692.90 50.75,697.75 56.58,701.94 61.22,704.25 66.02,705.82 77.31,707.48 89.35,708.54 108.65,711.55 144.28,721.15 171.17,721.95 189.69,721.38 200.43,721.93 211.14,723.47 220.62,726.30 230.20,730.28 257.38,744.99 278.80,755.67 287.62,758.38 296.75,759.89 309.82,760.00 318.38,759.22 325.75,758.03 327.77,757.40 329.63,756.57 339.14,751.54 350.25,743.84 387.87,706.42 419.14,676.13 445.29,655.32 468.11,641.24 486.44,632.92 503.12,624.80 509.22,619.97 513.93,615.30 515.57,613.32 516.82,611.42 518.13,609.27 519.24,606.99 520.03,604.54 520.56,601.87 520.94,597.80 520.97,594.03 520.55,591.36 519.10,585.87 516.68,580.65 515.26,578.28 513.45,575.91 509.55,572.09 505.21,568.69 502.39,567.12 499.58,565.98 493.65,564.19 488.61,563.52 483.44,563.67 476.59,564.80 469.59,566.96 462.64,570.25 455.60,574.84 445.40,583.24 434.45,594.55 369.77,685.38 364.38,691.41 359.25,695.97 354.01,699.51 348.57,702.19 343.39,703.79 338.15,704.54 332.98,704.44 327.87,703.51 322.64,701.57 317.75,698.79 313.47,695.30 309.77,691.17 306.73,686.55 304.34,681.43 302.51,675.47 301.42,669.12 301.09,662.45 301.71,654.74 311.50,614.23 323.40,551.93 332.65,320.51"
        fill="none"
        stroke="#e94560"
        stroke-width="8.0"
        stroke-linejoin="round"
        stroke-linecap="round"/>
  <!-- Start/finish line -->
  <line x1="312.66" y1="319.79" x2="352.63" y2="321.23"
        stroke="#f5f5f5" stroke-width="9.6"
        stroke-linecap="round"/>
</svg>
