<?xml version="1.0" encoding="utf-8"?>
<svg xmlns="http://www.w3.org/2000/svg"
     width="428.5" height="800.0"
     viewBox="0 0 428.5 800.0">
  <rect width="100%" height="100%" fill="#1a1a2e"/>
  <!-- Track outline -->
  <polyline points="50.97,466.40 41.39,573.31 40.00,601.03 43.27,639.09 46.54,651.23 61.82,685.29 68.84,695.50 88.92,718.56 100.06,727.77 110.88,735.26 124.22,742.56 139.82,749.09 155.40,753.86 190.88,759.70 208.35,760.00 230.22,758.07 248.85,754.16 279.49,742.98 293.45,734.75 318.32,714.57 328.06,703.85 340.26,687.27 352.96,666.55 358.32,653.41 362.30,640.51 364.62,625.65 366.60,605.77 388.52,281.52 388.19,232.99 381.13,179.93 374.04,154.07 367.27,138.24 341.17,99.36 324.52,81.41 313.08,71.95 287.31,55.93 273.15,49.53 257.19,44.98 226.12,40.00 209.70,40.30 193.68,42.46 173.40,47.84 153.96,54.39 147.86,57.23 142.39,60.51 123.57,74.65 113.20,85.27 101.37,101.46 90.87,117.89 88.33,122.68 86.30,128.03 73.77,180.84 71.70,200.30 51.36,461.89 50.97,466.40"
        fill="none"
        stroke="#e94560"
        stroke-width="8.0"
        stroke-linejoin="round"
        stroke-linecap="round"/>
  <!-- Start/finish line -->
  <line x1="70.89" y1="468.18" x2="31.05" y2="464.61"
        stroke="#f5f5f5" stroke-width="9.6"
        stroke-linecap="round"/>
</svg>
