<?xml version="1.0" encoding="utf-8"?>
<svg xmlns="http://www.w3.org/2000/svg"
     width="800.0" height="482.1"
     viewBox="0 0 800.0 482.1">
  <rect width="100%" height="100%" fill="#1a1a2e"/>
  <!-- Track outline -->
  <polyline points="400.29,63.68 159.73,95.88 139.44,100.57 120.66,108.06 102.70,118.87 85.16,132.99 70.71,147.69 57.60,166.45 50.95,185.27 45.28,205.23 41.77,225.42 40.00,249.21 40.92,273.92 42.75,295.53 46.85,318.18 52.85,342.66 59.17,362.45 70.09,381.27 85.62,399.45 105.22,415.87 126.46,428.22 149.37,436.57 167.86,440.69 187.32,442.12 203.09,441.43 638.27,388.36 659.68,382.92 681.21,374.17 701.69,360.33 721.85,340.49 736.04,318.13 749.74,288.56 757.35,262.19 759.93,234.00 760.00,208.60 758.10,180.18 752.10,154.44 741.81,126.65 726.08,100.74 706.09,76.20 687.70,61.50 666.66,51.21 646.14,45.26 625.46,41.37 600.65,40.00 576.95,40.92 549.09,44.00 400.29,63.68"
        fill="none"
        stroke="#e94560"
        stroke-width="8.0"
        stroke-linejoin="round"
        stroke-linecap="round"/>
  <!-- Start/finish line -->
  <line x1="402.94" y1="83.50" x2="397.65" y2="43.85"
        stroke="#f5f5f5" stroke-width="9.6"
        stroke-linecap="round"/>
</svg>
