<?xml version="1.0" encoding="utf-8"?>
<svg xmlns="http://www.w3.org/2000/svg"
     width="682.8" height="800.0"
     viewBox="0 0 682.8 800.0">
  <rect width="100%" height="100%" fill="#1a1a2e"/>
  <!-- Track outline -->
  <polyline points="155.09,438.63 187.05,490.97 205.33,513.87 222.95,531.17 243.37,547.53 266.39,561.80 339.06,591.10 379.51,607.77 398.23,617.48 415.43,628.31 431.38,640.17 460.63,667.18 522.80,734.25 537.76,746.04 545.23,750.74 552.89,754.61 560.61,757.35 568.51,759.13 576.40,760.00 584.43,759.86 593.48,758.47 602.39,755.68 610.54,751.44 618.09,745.87 624.91,739.12 630.79,731.60 634.92,724.64 638.14,717.26 640.41,709.50 641.91,701.39 642.75,693.00 642.84,684.37 642.22,675.46 640.52,665.37 635.15,643.10 624.74,613.31 481.53,340.97 432.09,262.74 419.53,248.40 406.40,236.95 392.43,227.00 383.64,222.82 375.15,220.24 366.72,218.64 358.32,218.16 350.37,218.71 342.51,220.49 336.88,222.61 331.28,225.43 326.19,228.87 321.95,232.67 318.16,237.02 315.10,241.82 312.95,246.97 311.48,252.58 310.66,258.35 310.74,267.75 312.19,277.15 314.82,285.81 318.33,293.92 326.41,307.35 360.95,353.02 369.12,366.73 377.75,384.37 383.66,401.22 386.75,418.20 387.54,435.01 386.86,442.91 385.36,450.81 382.59,459.97 378.86,468.81 374.39,476.64 369.18,483.60 363.35,489.37 356.91,494.04 349.81,497.62 342.25,499.95 334.14,500.93 325.82,500.68 317.02,499.33 308.26,496.75 299.49,492.65 291.23,487.60 284.64,482.66 278.58,477.16 272.84,471.07 267.61,464.32 263.06,456.83 259.10,448.86 252.99,431.84 249.76,413.26 249.11,393.32 265.15,185.86 258.42,130.66 254.12,114.79 247.16,96.03 237.71,79.61 232.23,72.47 226.29,65.96 219.89,60.08 213.08,54.90 205.64,50.48 197.86,46.86 189.77,43.90 181.51,41.71 173.00,40.42 164.40,40.00 155.83,40.35 147.31,41.53 138.80,43.58 130.40,46.40 113.71,54.37 97.42,65.13 81.98,78.94 61.89,104.49 54.00,118.86 43.34,150.50 40.59,167.24 40.00,183.49 41.10,202.22 46.14,229.36 53.52,256.33 68.43,292.77 105.59,357.54 155.09,438.63"
        fill="none"
        stroke="#e94560"
        stroke-width="8.0"
        stroke-linejoin="round"
        stroke-linecap="round"/>
  <!-- Start/finish line -->
  <line x1="172.16" y1="428.21" x2="138.02" y2="449.05"
        stroke="#f5f5f5" stroke-width="9.6"
        stroke-linecap="round"/>
</svg>
