<?xml version="1.0" encoding="utf-8"?>
<svg xmlns="http://www.w3.org/2000/svg"
     width="800.0" height="418.1"
     viewBox="0 0 800.0 418.1">
  <rect width="100%" height="100%" fill="#1a1a2e"/>
  <!-- Track outline -->
  <polyline points="191.64,270.78 328.82,265.01 333.68,264.53 336.86,263.88 340.04,262.78 342.84,261.16 345.56,259.08 347.71,256.87 350.30,253.62 352.05,250.44 353.55,247.32 354.59,244.47 355.56,240.57 356.02,237.26 356.08,234.34 354.03,114.37 354.12,108.22 354.50,100.54 355.28,92.72 356.57,85.88 358.06,80.39 360.09,75.48 362.41,71.02 365.39,66.36 369.33,61.45 374.11,56.54 379.16,52.42 384.72,48.74 390.86,45.70 395.84,43.62 400.37,42.14 405.40,40.84 409.80,40.26 414.77,40.00 419.23,40.33 423.82,41.10 429.64,42.65 733.03,172.32 737.67,174.68 741.57,177.24 744.92,180.37 748.60,184.94 751.44,189.29 754.17,193.62 756.33,198.14 757.93,202.47 758.88,206.61 759.53,211.51 759.81,216.88 760.00,222.93 759.91,227.82 759.63,232.91 758.96,239.13 757.93,244.49 756.33,250.70 754.44,256.26 752.09,262.19 748.80,268.68 745.26,274.21 740.18,281.36 734.44,288.23 728.79,294.73 723.09,300.23 716.03,306.16 708.87,311.62 705.01,314.26 699.27,317.55 691.89,321.45 655.98,336.42 644.59,340.64 634.53,343.93 629.03,345.57 618.77,348.39 610.11,350.18 597.29,352.46 587.03,354.05 577.80,355.09 567.83,356.03 108.70,378.08 101.15,377.93 89.41,376.70 80.12,374.46 72.98,371.60 64.91,366.90 57.97,360.88 52.25,354.45 46.94,347.92 43.57,342.40 41.63,337.50 40.41,332.40 40.00,327.29 40.51,321.48 41.84,315.87 44.28,310.45 48.07,305.23 52.26,300.74 59.04,295.86 66.39,291.16 74.86,286.97 82.11,283.91 89.87,281.36 97.73,279.11 108.04,276.86 117.33,275.54 130.19,273.90 191.64,270.78"
        fill="none"
        stroke="#e94560"
        stroke-width="8.0"
        stroke-linejoin="round"
        stroke-linecap="round"/>
  <!-- Start/finish line -->
  <line x1="190.74" y1="250.80" x2="192.53" y2="290.76"
        stroke="#f5f5f5" stroke-width="9.6"
        stroke-linecap="round"/>
</svg>
