<?xml version="1.0" encoding="utf-8"?>
<svg xmlns="http://www.w3.org/2000/svg"
     width="800.0" height="565.1"
     viewBox="0 0 800.0 565.1">
  <rect width="100%" height="100%" fill="#1a1a2e"/>
  <!-- Track outline -->
  <polyline points="199.31,326.01 183.91,334.04 157.61,351.58 116.74,380.85 69.71,423.65 55.44,441.23 49.37,452.06 44.58,463.68 41.75,474.91 40.04,486.20 40.00,492.38 40.90,497.90 42.05,501.34 43.59,504.59 45.46,507.63 48.93,511.64 52.99,515.18 57.54,518.44 62.52,521.14 68.10,523.15 73.82,524.47 78.48,525.04 83.80,525.06 117.53,521.12 230.58,516.87 263.59,515.38 275.29,513.55 285.25,511.09 290.39,509.08 294.86,506.79 303.51,501.38 307.97,497.57 311.96,493.26 315.12,488.62 317.55,483.60 319.21,478.18 320.05,472.55 319.91,466.54 319.13,460.60 316.80,450.68 312.89,440.84 307.27,431.13 302.89,420.64 301.39,414.94 300.38,409.08 299.94,402.96 300.10,396.76 301.04,390.33 302.55,384.19 306.08,374.86 310.82,365.64 316.40,356.84 324.49,346.85 332.78,338.46 341.49,331.35 346.29,328.36 351.33,325.90 356.47,324.11 361.73,322.97 367.03,322.46 372.35,322.64 377.61,323.58 382.71,325.23 387.50,327.48 391.96,330.32 396.00,333.80 399.53,337.80 402.42,342.18 404.67,346.91 406.25,352.08 407.22,357.50 407.76,363.18 407.62,368.85 406.63,374.31 404.95,379.59 402.72,384.39 399.69,389.28 392.82,397.51 386.08,405.69 383.41,410.25 381.54,414.80 380.06,420.70 379.55,426.86 379.98,430.89 380.90,434.87 382.30,438.68 384.23,442.31 386.60,445.77 389.23,448.78 393.10,452.06 397.36,454.61 402.00,456.57 406.88,457.83 411.99,458.27 417.17,457.98 422.39,456.95 427.47,455.23 431.79,453.21 437.17,449.64 500.72,394.69 561.89,337.34 568.45,328.71 578.21,310.67 581.48,301.25 584.15,288.55 584.73,282.17 584.73,275.83 584.11,269.82 582.85,264.03 580.94,258.82 578.39,254.00 575.30,249.68 571.66,245.94 569.03,243.90 566.20,242.16 563.13,240.75 559.36,239.58 555.30,238.86 551.25,238.66 547.15,239.10 543.06,240.09 539.26,241.45 534.73,243.83 530.67,246.85 523.73,254.81 509.09,272.79 504.07,276.73 498.98,279.64 493.60,281.90 488.00,283.44 482.19,284.24 476.37,284.19 470.63,283.25 465.15,281.46 460.25,278.95 455.82,275.74 451.96,271.85 448.71,267.42 446.10,262.54 444.21,257.32 443.17,251.75 442.81,245.99 443.65,233.91 446.06,221.14 449.05,211.15 453.43,201.36 459.61,192.20 467.28,183.90 476.29,176.84 486.49,171.23 497.57,167.22 509.37,164.82 521.68,163.75 534.31,163.70 573.97,168.06 672.62,179.94 707.33,180.10 717.60,178.05 722.40,176.58 727.16,174.62 732.86,171.45 738.22,167.73 741.99,164.41 745.33,160.82 748.44,156.86 751.17,152.61 755.48,143.21 758.55,133.22 759.96,123.23 760.00,113.33 759.14,107.01 757.55,100.65 755.08,94.64 752.03,89.14 749.14,85.03 745.91,81.35 742.21,77.87 738.20,74.75 733.86,71.91 729.29,69.47 724.95,67.49 719.27,65.77 646.98,58.20 574.80,52.17 567.63,52.35 561.87,53.12 555.69,54.46 549.78,56.48 544.52,59.28 539.69,62.71 535.43,66.54 531.36,71.25 525.09,81.57 518.79,91.76 514.75,96.16 510.54,99.64 505.66,102.83 500.36,105.41 494.56,107.30 488.52,108.55 482.25,109.32 475.93,109.45 469.75,108.93 463.71,107.72 458.02,105.80 452.68,103.16 447.79,99.77 443.39,95.77 439.72,91.43 436.36,86.19 431.69,75.17 426.99,64.16 423.58,58.99 419.82,54.70 415.27,50.65 410.25,47.17 404.85,44.25 399.17,42.02 393.27,40.62 387.24,40.00 381.30,40.20 375.44,41.19 369.76,42.97 364.40,45.52 359.50,48.78 355.10,52.70 351.35,57.14 348.28,62.03 346.05,67.18 344.57,72.55 343.86,78.01 343.96,83.44 344.89,88.57 346.55,93.46 348.92,97.97 351.93,102.06 355.55,105.67 359.66,108.73 364.00,111.04 369.12,112.82 379.98,114.63 391.14,116.12 402.74,119.09 408.16,121.36 413.24,124.18 417.78,127.43 421.79,131.20 425.16,135.40 427.87,140.04 429.78,145.06 430.94,150.34 431.33,155.82 430.92,161.35 429.70,166.83 427.71,172.13 425.10,176.93 421.51,182.08 400.31,207.52 384.01,223.30 364.78,238.35 343.10,252.30 266.58,290.93 199.31,326.01"
        fill="none"
        stroke="#e94560"
        stroke-width="8.0"
        stroke-linejoin="round"
        stroke-linecap="round"/>
  <!-- Start/finish line -->
  <line x1="208.56" y1="343.74" x2="190.06" y2="308.27"
        stroke="#f5f5f5" stroke-width="9.6"
        stroke-linecap="round"/>
</svg>
