<?xml version="1.0" encoding="utf-8"?>
<svg xmlns="http://www.w3.org/2000/svg"
     width="800.0" height="502.1"
     viewBox="0 0 800.0 502.1">
  <rect width="100%" height="100%" fill="#1a1a2e"/>
  <!-- Track outline -->
  <polyline points="280.32,135.78 275.65,140.14 269.12,147.09 263.37,154.46 259.03,161.12 255.44,168.20 252.17,176.86 250.08,185.99 249.69,191.97 249.95,198.02 250.90,203.89 252.60,209.58 255.01,215.05 257.95,220.17 263.60,227.11 270.33,233.13 278.06,238.03 286.32,242.22 303.76,249.88 320.11,259.72 327.56,265.95 334.12,272.85 338.98,279.51 342.93,286.63 346.03,294.11 348.25,302.10 349.69,311.40 349.89,320.92 348.45,330.01 345.68,338.74 341.53,346.98 336.21,354.42 329.45,361.04 321.94,366.55 314.73,370.38 307.18,373.28 299.06,375.61 290.66,377.08 281.85,377.58 272.87,377.11 254.26,373.18 141.63,336.49 130.86,334.59 122.01,333.98 112.41,333.91 102.98,334.70 93.93,336.38 85.18,339.00 77.05,342.54 69.42,347.01 62.56,352.24 56.42,358.25 51.33,364.84 47.15,371.99 44.02,379.51 41.76,387.38 40.39,395.40 40.00,403.53 40.69,411.69 42.42,419.70 45.26,427.51 49.11,434.84 54.10,441.64 60.01,447.66 67.06,452.92 74.87,457.14 82.25,460.11 92.59,462.12 351.32,455.06 405.45,451.45 422.23,447.55 430.33,444.51 438.13,440.75 445.38,436.27 452.14,431.08 458.28,425.22 463.83,418.70 468.66,411.69 472.74,404.21 475.97,396.26 478.29,387.99 479.46,379.51 479.66,370.88 478.94,362.40 477.18,353.20 465.52,316.84 460.82,297.91 457.92,278.83 457.43,259.54 459.71,240.50 464.64,222.07 472.38,205.03 482.76,189.78 495.00,176.00 508.32,163.87 522.69,153.89 538.10,146.41 546.16,143.76 554.32,141.90 562.29,140.86 570.45,140.75 580.15,141.97 589.78,144.58 598.82,148.66 607.15,154.14 614.23,160.90 620.17,168.77 624.84,177.51 628.17,186.92 629.87,196.94 630.19,206.93 629.38,215.12 627.58,222.93 625.10,230.30 621.38,237.85 611.68,251.17 601.66,264.34 597.35,271.49 594.05,278.58 590.99,287.85 589.12,297.62 588.99,307.25 590.40,316.73 593.56,325.79 598.20,334.13 604.18,341.61 611.23,347.98 616.39,351.56 621.87,354.56 627.62,356.82 633.69,358.22 639.96,358.82 646.19,358.64 652.00,357.86 657.75,356.28 664.38,353.38 692.39,334.24 720.89,310.51 735.22,296.55 746.06,283.63 750.96,275.82 754.52,268.13 757.39,259.90 759.28,251.38 760.00,242.65 759.58,233.84 757.91,224.97 755.20,216.27 752.07,208.25 746.71,198.91 703.78,146.69 655.07,93.86 629.64,71.21 615.47,61.87 584.49,47.87 568.03,43.40 534.31,40.00 516.88,40.75 484.88,47.23 443.65,59.36 360.63,93.58 291.02,127.87 282.01,134.20 280.32,135.78"
        fill="none"
        stroke="#e94560"
        stroke-width="8.0"
        stroke-linejoin="round"
        stroke-linecap="round"/>
  <!-- Start/finish line -->
  <line x1="293.96" y1="150.40" x2="266.67" y2="121.15"
        stroke="#f5f5f5" stroke-width="9.6"
        stroke-linecap="round"/>
</svg>
