<?xml version="1.0" encoding="utf-8"?>
<svg xmlns="http://www.w3.org/2000/svg"
     width="800.0" height="563.0"
     viewBox="0 0 800.0 563.0">
  <rect width="100%" height="100%" fill="#1a1a2e"/>
  <!-- Track outline -->
  <polyline points="187.14,319.14 181.70,323.33 176.53,329.07 173.89,333.30 171.90,337.70 169.51,343.37 167.90,349.25 167.80,352.74 168.17,356.19 169.40,360.97 171.01,363.89 174.29,368.16 179.77,373.63 200.37,388.39 217.08,402.69 223.84,410.99 227.18,417.87 229.28,424.07 230.07,426.74 230.45,429.48 230.27,436.29 229.17,443.39 227.71,447.75 225.72,451.58 223.19,455.09 220.18,458.16 216.75,460.76 213.00,462.88 208.80,464.52 204.37,465.66 199.95,466.30 194.87,466.28 168.75,460.54 104.48,443.99 91.02,443.25 79.43,444.48 72.68,446.04 66.26,448.30 60.30,451.38 54.47,455.87 49.07,461.19 45.20,465.68 43.75,467.73 42.78,469.91 41.04,475.96 40.00,483.06 40.28,490.29 41.62,497.12 43.45,501.73 45.89,505.80 48.93,509.60 52.50,512.98 56.60,515.99 61.37,518.50 68.43,521.13 78.20,522.95 194.04,519.04 264.83,514.79 276.85,511.58 286.33,507.42 292.86,503.42 298.40,498.63 303.33,492.36 306.99,486.33 308.08,484.19 308.85,481.86 310.38,473.65 310.80,462.97 306.93,443.83 302.01,424.41 299.07,403.05 299.58,392.70 301.55,382.38 305.79,370.50 311.59,359.39 317.91,350.90 324.91,343.75 331.30,338.61 338.26,334.43 347.70,330.36 357.28,327.47 364.04,326.18 370.59,325.93 375.67,326.55 380.80,327.78 385.33,329.45 389.57,331.98 393.16,335.10 396.47,338.90 399.17,342.77 400.49,344.93 401.50,347.36 403.25,354.08 404.04,362.18 402.48,372.72 399.63,382.40 397.85,386.34 395.60,390.17 388.57,400.76 381.94,411.77 380.09,416.95 379.22,421.76 379.06,426.50 379.64,431.13 381.04,435.62 383.13,439.83 385.83,443.65 389.08,447.04 392.90,450.08 397.36,452.53 402.13,454.11 407.45,455.25 412.28,455.78 416.30,455.60 420.34,454.71 427.80,452.40 436.71,448.04 457.48,431.44 481.79,409.23 550.17,346.29 564.78,325.22 574.91,305.80 579.68,293.89 582.42,283.21 583.11,275.96 582.78,269.39 581.93,264.39 580.22,259.63 577.89,255.49 574.89,251.37 571.76,247.90 567.96,244.90 563.89,242.69 559.26,240.98 554.39,240.00 549.27,239.82 544.14,240.40 539.17,241.63 534.09,243.83 526.66,248.95 518.97,255.64 510.16,265.39 501.62,274.56 495.79,278.92 490.19,281.90 485.75,283.28 481.24,283.90 475.74,284.03 470.20,283.35 464.93,281.54 460.05,279.01 456.32,276.56 452.95,273.47 449.24,268.39 446.09,262.45 443.64,255.71 441.99,248.48 441.22,240.40 441.28,232.48 441.77,226.85 442.95,221.13 446.15,211.19 450.74,201.02 456.58,192.23 462.88,184.69 467.16,180.24 471.76,176.39 478.79,171.72 486.80,167.65 496.67,164.15 507.73,161.86 522.44,161.15 541.15,162.04 689.55,178.10 702.87,177.26 713.30,174.94 723.94,171.10 733.51,166.18 739.99,161.68 745.53,156.59 750.12,151.14 753.89,144.86 757.28,136.23 759.41,126.77 760.00,116.74 758.99,106.68 756.16,96.91 751.76,87.77 747.90,82.14 743.38,76.93 738.37,72.35 733.35,68.46 727.83,65.21 720.22,62.25 656.94,53.46 590.74,48.99 575.41,48.14 563.72,48.52 556.34,49.81 549.64,52.15 542.21,56.02 535.07,61.52 526.56,72.06 519.40,82.74 513.98,90.86 510.33,94.58 506.23,97.85 501.96,100.50 497.17,102.63 489.87,104.68 481.93,105.81 473.83,105.84 465.76,104.77 457.86,102.52 450.68,99.45 446.09,96.65 442.11,93.40 438.83,90.08 435.58,85.81 428.58,72.33 420.86,58.40 415.38,52.28 409.46,47.65 402.48,43.89 394.99,41.33 387.27,40.02 379.48,40.00 371.77,41.29 364.42,43.83 360.08,46.10 356.00,48.88 352.41,52.10 349.40,55.69 346.83,59.69 344.90,63.92 343.72,68.21 343.13,72.68 343.19,77.13 344.05,81.65 345.57,86.15 347.39,90.15 349.97,94.31 353.28,97.96 358.70,102.34 365.84,106.39 384.53,112.02 403.13,117.72 410.05,121.81 415.24,126.26 418.41,130.04 420.78,134.14 422.57,138.79 423.73,143.28 424.15,145.73 424.21,148.33 423.52,155.36 421.59,163.51 417.25,173.25 411.10,183.20 401.18,195.44 389.69,207.38 364.60,229.30 334.83,247.88 259.62,282.92 190.10,316.88 187.14,319.14"
        fill="none"
        stroke="#e94560"
        stroke-width="8.0"
        stroke-linejoin="round"
        stroke-linecap="round"/>
  <!-- Start/finish line -->
  <line x1="199.32" y1="335.01" x2="174.96" y2="303.28"
        stroke="#f5f5f5" stroke-width="9.6"
        stroke-linecap="round"/>
</svg>
