<?xml version="1.0" encoding="utf-8"?>
<svg xmlns="http://www.w3.org/2000/svg"
     width="701.4" height="800.0"
     viewBox="0 0 701.4 800.0">
  <rect width="100%" height="100%" fill="#1a1a2e"/>
  <!-- Track outline -->
  <polyline points="640.63,552.16 661.16,676.32 661.38,690.90 659.35,705.78 657.31,712.86 654.61,719.68 651.32,726.20 647.47,732.28 643.18,737.70 638.44,742.59 633.27,746.89 627.69,750.65 621.67,753.84 615.35,756.41 608.75,758.28 602.04,759.47 595.54,760.00 588.95,759.76 583.97,759.21 578.89,758.20 573.86,756.25 567.56,752.10 561.37,746.58 556.42,740.79 553.82,736.30 551.99,731.62 550.64,726.97 549.51,720.79 549.20,714.55 549.54,707.84 550.67,701.10 556.06,687.02 566.67,662.92 569.87,650.16 571.00,637.93 570.23,625.43 567.80,613.38 565.20,606.17 561.78,599.22 557.81,593.19 553.19,587.96 547.95,583.73 542.22,580.51 538.23,579.00 534.04,577.97 529.88,577.50 525.74,577.55 521.60,578.13 517.63,579.21 513.85,580.83 510.24,582.91 506.90,585.45 502.40,590.18 498.52,595.70 495.37,602.25 492.39,609.10 488.78,615.89 484.66,622.18 479.95,627.33 474.65,631.53 470.78,633.70 466.64,635.39 462.43,636.55 458.22,637.13 453.94,637.21 449.68,636.79 443.33,635.23 437.17,632.67 431.15,629.07 425.47,624.61 414.72,613.09 406.97,602.76 399.89,590.87 358.39,520.40 343.97,500.76 331.03,486.23 325.09,481.42 319.31,478.23 312.93,475.87 305.69,474.47 291.66,474.47 277.64,474.82 264.43,472.89 251.14,468.26 238.10,461.26 212.26,442.55 200.08,432.28 190.03,422.42 184.85,416.58 180.28,410.40 177.13,404.82 175.01,398.93 174.36,394.20 174.34,389.23 175.08,384.56 176.17,381.44 177.68,378.43 179.56,375.65 181.68,373.27 185.12,370.66 189.11,368.68 193.32,367.14 200.57,365.58 207.98,365.06 214.59,365.35 221.16,366.38 235.24,370.66 328.86,406.70 337.36,408.76 344.26,409.42 351.63,409.05 358.68,407.60 362.81,406.17 366.74,404.32 370.37,401.94 373.96,398.77 377.23,395.02 379.68,390.90 380.81,387.67 381.49,384.24 381.75,380.70 381.61,377.24 380.60,372.45 378.79,367.75 376.51,363.50 374.03,360.14 371.14,357.21 367.96,354.57 363.13,351.29 356.25,348.04 296.81,327.06 224.56,306.95 155.67,300.56 124.72,300.35 108.62,298.15 92.86,293.71 85.55,290.65 78.60,286.90 72.10,282.40 66.06,277.25 60.50,271.44 55.42,265.07 50.83,258.31 46.88,251.12 43.90,243.64 41.73,235.87 40.46,228.08 40.00,220.15 40.43,212.09 41.66,204.06 46.35,188.02 52.78,172.01 90.15,106.03 115.07,65.45 122.29,55.62 127.78,50.33 133.99,45.79 138.44,43.46 143.13,41.61 147.87,40.45 152.59,40.00 157.37,40.18 162.07,41.00 169.12,43.65 175.69,47.29 180.67,50.89 185.21,54.96 194.16,64.60 202.03,76.33 208.00,89.57 209.95,95.59 211.25,101.80 211.85,109.31 211.39,116.97 209.40,124.71 206.36,131.90 203.21,137.18 199.51,141.89 195.42,146.25 190.41,150.50 179.10,157.50 167.82,164.72 164.09,167.91 161.01,171.11 158.72,174.65 157.61,177.53 156.89,180.62 156.65,183.79 156.92,186.83 157.95,190.16 159.66,193.52 161.83,196.58 164.23,199.01 167.72,201.02 171.69,202.18 175.83,202.90 182.42,203.16 189.74,202.66 215.63,199.46 223.45,199.09 230.71,199.49 238.25,201.00 245.46,203.58 252.08,207.23 258.07,211.91 263.34,217.72 267.77,224.12 270.71,229.66 273.06,235.40 276.79,247.66 279.54,254.55 282.93,261.00 285.53,264.46 288.42,267.53 291.62,270.20 295.27,272.47 299.27,274.29 303.41,275.64 310.24,276.83 317.34,276.91 324.56,275.80 332.18,273.63 355.79,263.59 368.40,260.37 374.39,259.55 380.55,259.34 388.47,260.05 396.33,261.64 402.47,263.72 408.29,266.37 420.13,273.34 431.37,282.67 441.98,294.11 483.77,342.97 488.85,347.30 493.52,350.31 499.92,353.59 506.68,355.94 510.96,356.68 515.25,356.92 519.46,356.57 523.40,355.70 527.25,354.28 531.32,352.11 541.81,343.15 552.25,333.64 558.51,329.36 564.57,326.32 570.88,324.50 577.28,323.78 581.44,323.84 585.56,324.39 589.57,325.55 593.81,327.59 597.88,330.31 601.39,333.64 603.92,336.99 605.89,340.90 607.96,346.74 638.40,538.68 640.63,552.16"
        fill="none"
        stroke="#e94560"
        stroke-width="8.0"
        stroke-linejoin="round"
        stroke-linecap="round"/>
  <!-- Start/finish line -->
  <line x1="660.37" y1="548.89" x2="620.90" y2="555.42"
        stroke="#f5f5f5" stroke-width="9.6"
        stroke-linecap="round"/>
</svg>
