<?xml version="1.0" encoding="utf-8"?>
<svg xmlns="http://www.w3.org/2000/svg"
     width="800.0" height="639.7"
     viewBox="0 0 800.0 639.7">
  <rect width="100%" height="100%" fill="#1a1a2e"/>
  <!-- Track outline -->
  <polyline points="63.78,387.97 62.53,375.20 44.00,202.87 40.23,168.05 40.28,159.69 40.00,145.13 40.58,127.10 42.03,118.53 44.24,110.19 47.17,102.12 50.76,94.52 54.53,88.19 58.91,82.25 64.51,75.96 70.65,70.16 82.87,61.26 98.22,53.79 115.16,48.81 149.85,43.60 185.66,40.00 191.61,40.14 196.64,40.87 201.56,42.19 206.17,44.13 210.43,46.71 214.27,49.87 217.62,53.53 220.43,57.62 222.64,62.17 224.25,67.13 225.33,73.12 225.71,79.40 225.43,85.97 224.47,92.59 222.83,99.22 220.41,106.09 192.74,159.71 190.10,167.01 188.67,173.43 188.31,178.77 188.78,183.88 190.06,188.81 192.15,193.52 195.38,198.43 199.43,202.95 204.30,206.99 209.86,210.43 216.82,213.53 224.23,215.73 231.26,216.79 238.52,216.86 246.77,215.77 256.36,213.18 311.94,189.29 363.30,167.82 424.32,146.25 445.40,140.98 467.01,138.63 488.64,139.43 507.20,142.86 527.35,149.67 546.57,159.39 564.23,171.58 581.98,187.78 639.42,245.11 752.54,355.35 756.02,360.09 757.92,363.93 759.30,368.08 760.00,372.37 759.97,377.25 759.21,382.08 757.82,386.21 755.84,390.03 753.21,393.65 750.07,396.89 746.40,399.75 742.33,402.11 737.90,403.89 733.14,405.06 727.54,405.61 721.75,405.43 715.82,404.39 709.95,402.62 704.26,400.15 698.36,396.76 678.35,381.19 602.49,312.26 531.64,261.15 504.31,246.93 490.02,241.93 475.52,238.33 461.82,236.31 447.82,235.56 414.85,238.12 384.36,245.68 180.22,323.31 174.14,326.92 169.86,330.49 166.37,334.31 163.58,338.61 161.28,343.98 159.80,349.81 159.23,356.13 159.58,362.45 160.71,368.21 162.68,373.79 165.81,379.73 169.89,385.39 175.43,391.11 181.95,396.27 189.99,401.20 199.02,405.28 210.43,408.70 222.85,411.00 253.23,412.28 274.17,414.10 290.26,417.79 296.31,420.13 301.79,422.99 306.48,426.22 310.53,429.89 313.44,433.52 315.73,437.49 317.46,441.87 318.56,446.52 319.02,451.49 318.82,456.56 317.95,461.74 316.39,466.94 313.85,472.75 310.58,478.42 306.55,483.86 301.89,488.90 296.50,493.66 290.57,497.91 284.03,501.71 277.09,504.92 269.64,507.51 261.80,509.49 243.72,511.73 199.66,512.30 189.86,513.92 181.60,516.31 175.07,519.07 169.19,522.48 163.89,526.49 159.15,531.09 155.09,536.16 151.60,541.93 148.13,549.96 145.31,559.11 143.08,572.61 140.81,585.10 139.82,587.70 138.68,589.69 137.18,591.68 135.40,593.47 133.22,595.19 130.80,596.68 128.00,597.94 125.30,598.88 122.39,599.49 117.71,599.72 113.06,599.19 108.85,598.01 104.80,596.14 100.41,593.25 96.31,589.67 92.49,585.33 89.15,580.45 86.24,575.01 83.82,569.01 79.85,552.76 63.78,387.97"
        fill="none"
        stroke="#e94560"
        stroke-width="8.0"
        stroke-linejoin="round"
        stroke-linecap="round"/>
  <!-- Start/finish line -->
  <line x1="43.88" y1="389.91" x2="83.69" y2="386.03"
        stroke="#f5f5f5" stroke-width="9.6"
        stroke-linecap="round"/>
</svg>
