<?xml version="1.0" encoding="utf-8"?>
<svg xmlns="http://www.w3.org/2000/svg"
     width="424.3" height="800.0"
     viewBox="0 0 424.3 800.0">
  <rect width="100%" height="100%" fill="#1a1a2e"/>
  <!-- Track outline -->
  <polyline points="41.61,406.45 40.00,610.06 45.05,639.40 51.74,662.15 57.57,677.66 63.92,690.46 68.49,697.66 73.89,704.39 85.67,717.20 98.59,729.29 106.95,735.46 115.91,740.72 131.74,748.62 150.31,755.20 177.20,759.44 205.12,760.00 229.44,756.58 250.49,750.77 259.76,746.89 268.76,741.53 290.99,725.61 314.57,705.57 333.45,686.08 350.06,664.55 364.24,639.75 375.12,612.97 381.38,583.53 384.30,556.09 384.25,529.97 379.64,322.84 364.24,180.30 358.68,157.64 352.06,139.28 344.19,122.70 335.71,108.21 329.49,99.08 322.74,91.07 314.57,83.21 304.17,75.56 275.85,59.28 243.18,45.56 216.30,40.46 189.90,40.00 164.06,43.83 140.48,50.46 126.08,56.02 113.25,63.11 100.81,72.60 89.24,84.38 76.84,100.76 65.71,120.10 54.79,146.01 46.70,173.92 41.87,226.62 41.61,398.65"
        fill="none"
        stroke="#e94560"
        stroke-width="8.0"
        stroke-linejoin="round"
        stroke-linecap="round"/>
  <!-- Start/finish line -->
  <line x1="61.61" y1="406.55" x2="21.61" y2="406.36"
        stroke="#f5f5f5" stroke-width="9.6"
        stroke-linecap="round"/>
</svg>
