<?xml version="1.0" encoding="utf-8"?>
<svg xmlns="http://www.w3.org/2000/svg"
     width="502.2" height="800.0"
     viewBox="0 0 502.2 800.0">
  <rect width="100%" height="100%" fill="#1a1a2e"/>
  <!-- Track outline -->
  <polyline points="453.27,477.96 457.43,439.29 462.25,258.09 458.86,220.09 451.72,187.71 439.46,157.70 423.22,130.19 400.61,102.47 378.06,80.29 368.60,72.31 358.55,65.95 332.96,53.68 307.14,43.92 297.62,41.26 287.98,40.07 263.47,40.00 236.46,43.25 214.50,49.61 193.26,59.81 168.99,76.96 146.32,99.37 125.91,129.82 109.02,163.17 98.25,188.75 88.91,220.76 58.33,382.44 40.00,547.30 43.57,585.01 51.48,614.88 61.24,641.79 74.09,666.48 92.00,691.39 112.65,713.20 133.47,729.98 155.90,743.07 181.84,752.68 208.73,758.23 234.32,760.00 260.61,757.71 282.57,752.83 305.24,745.29 326.42,735.09 344.09,723.11 360.45,708.84 375.62,692.06 399.30,655.61 418.10,618.57 431.55,581.83 452.67,483.43 453.27,477.96"
        fill="none"
        stroke="#e94560"
        stroke-width="8.0"
        stroke-linejoin="round"
        stroke-linecap="round"/>
  <!-- Start/finish line -->
  <line x1="433.38" y1="475.81" x2="473.15" y2="480.10"
        stroke="#f5f5f5" stroke-width="9.6"
        stroke-linecap="round"/>
</svg>
