<?xml version="1.0" encoding="utf-8"?>
<svg xmlns="http://www.w3.org/2000/svg"
     width="514.2" height="800.0"
     viewBox="0 0 514.2 800.0">
  <rect width="100%" height="100%" fill="#1a1a2e"/>
  <!-- Track outline -->
  <polyline points="287.88,376.73 320.17,498.39 323.67,516.23 325.77,534.18 325.96,552.21 324.36,570.09 320.49,587.62 313.94,604.29 305.10,620.18 261.07,677.03 212.54,728.18 200.18,738.95 182.83,750.51 173.87,755.06 164.70,758.40 155.22,759.96 145.68,760.00 136.37,758.51 127.28,755.63 119.45,751.97 110.63,746.38 80.65,724.45 52.79,699.74 48.43,694.02 45.37,688.72 43.05,683.00 41.31,676.78 40.22,670.24 40.00,663.84 40.69,657.94 42.17,652.18 44.29,646.95 47.19,642.12 50.77,637.88 54.85,634.37 58.94,631.88 63.53,629.89 68.28,628.54 72.86,627.97 76.90,628.11 80.82,628.89 84.79,630.38 88.97,632.59 97.62,640.30 106.79,650.51 115.58,658.65 121.74,662.13 127.65,664.41 133.74,665.79 140.46,666.36 147.36,665.97 153.89,664.80 161.15,662.24 169.19,657.79 198.08,637.60 225.94,615.38 232.72,608.91 237.87,602.65 242.72,595.22 246.74,587.12 249.59,578.66 251.64,569.73 253.66,551.14 251.93,512.25 233.53,418.82 211.39,334.82 208.55,328.38 205.97,324.19 202.81,320.78 199.34,318.04 195.40,315.80 191.21,314.23 187.05,313.42 182.71,313.42 178.23,314.23 173.84,315.76 169.85,318.00 166.33,320.88 162.98,324.51 160.07,328.63 157.83,333.01 156.18,338.62 155.37,344.70 155.05,350.89 155.34,359.74 157.02,370.62 187.44,480.89 197.07,518.79 198.62,536.18 198.43,544.42 197.15,552.46 195.00,558.47 192.05,564.30 188.57,569.52 182.09,576.10 174.80,581.29 169.90,584.24 164.85,586.62 159.60,588.04 155.09,588.43 150.36,588.26 145.73,587.44 141.55,585.84 138.24,583.71 135.16,581.00 132.38,577.80 129.92,574.32 126.37,567.32 123.32,557.79 106.24,466.96 104.32,448.30 103.71,429.20 106.22,389.53 108.90,369.12 123.56,306.84 178.05,102.36 184.83,84.76 192.81,68.58 198.13,61.65 204.07,55.54 210.38,49.99 217.15,45.44 222.27,43.09 227.62,41.39 233.04,40.36 238.53,40.00 244.10,40.32 249.52,41.39 257.28,44.48 264.65,48.96 271.10,54.29 277.75,61.08 302.71,90.77 347.52,155.82 371.54,199.27 416.42,291.34 445.84,332.51 454.02,346.66 462.86,365.78 469.36,384.16 473.08,401.83 474.22,418.47 472.69,437.63 468.45,455.37 465.32,463.55 461.46,471.05 456.50,477.94 450.79,483.92 444.11,489.18 436.89,493.20 431.72,495.15 426.38,496.50 421.00,497.03 415.51,496.75 410.02,495.65 404.72,493.73 399.72,491.03 394.92,487.51 390.78,483.24 387.53,478.48 384.82,473.04 383.07,467.28 382.55,461.27 382.92,454.91 383.83,448.65 386.57,439.34 389.67,429.95 393.41,409.90 393.56,401.40 392.75,393.16 390.83,384.77 388.02,376.63 379.79,360.77 349.54,314.55 342.00,297.81 317.24,206.55 310.86,191.48 306.08,183.09 300.61,175.27 294.70,168.51 288.27,162.83 283.66,159.73 278.84,157.21 273.76,155.40 267.75,154.08 261.42,153.55 255.31,154.37 250.92,155.97 246.54,158.35 242.50,161.33 239.08,164.82 235.95,169.51 233.48,174.88 231.86,180.60 231.22,189.92 232.08,199.59 237.06,219.39 279.65,345.70 287.88,376.73"
        fill="none"
        stroke="#e94560"
        stroke-width="8.0"
        stroke-linejoin="round"
        stroke-linecap="round"/>
  <!-- Start/finish line -->
  <line x1="307.21" y1="371.60" x2="268.55" y2="381.86"
        stroke="#f5f5f5" stroke-width="9.6"
        stroke-linecap="round"/>
</svg>
