<?xml version="1.0" encoding="utf-8"?>
<svg xmlns="http://www.w3.org/2000/svg"
     width="800.0" height="601.9"
     viewBox="0 0 800.0 601.9">
  <rect width="100%" height="100%" fill="#1a1a2e"/>
  <!-- Track outline -->
  <polyline points="453.72,238.79 122.94,55.48 113.93,51.13 104.10,47.32 93.06,43.81 83.45,41.53 76.25,40.08 68.34,40.00 62.91,41.07 58.46,43.51 54.23,47.32 50.49,51.59 47.14,56.85 44.17,63.18 40.99,74.08 40.00,86.29 64.61,319.77 66.59,331.36 68.89,338.98 71.42,344.86 75.87,350.73 81.64,356.37 88.56,360.34 98.11,364.15 118.16,367.58 142.33,368.57 164.08,366.44 184.46,362.09 199.95,355.76 213.52,349.20 219.62,343.86 223.90,338.53 227.20,332.50 229.83,323.35 230.77,316.41 230.93,310.16 229.45,303.98 225.77,296.82 221.43,291.25 215.88,286.75 209.01,282.18 200.28,277.07 190.23,271.04 179.35,264.72 168.42,258.54 159.30,253.12 151.17,247.48 144.53,241.92 140.35,235.97 138.32,230.33 136.73,224.30 136.40,217.90 136.34,208.75 137.50,200.97 139.97,193.65 142.66,188.92 145.90,184.35 150.74,179.47 155.68,175.42 161.01,172.53 166.94,170.47 173.37,169.70 179.24,170.16 184.52,170.92 193.30,173.75 201.54,177.56 221.98,188.62 505.85,346.30 514.14,351.26 520.95,355.91 525.35,359.88 528.75,364.76 531.17,369.79 532.43,374.44 533.09,380.01 532.71,385.04 530.89,390.53 527.60,396.78 523.31,402.96 517.27,409.37 508.98,415.62 500.85,419.43 492.44,421.26 428.07,421.41 356.55,416.38 348.81,416.00 338.70,415.69 325.19,417.07 118.33,446.81 109.37,448.64 102.12,452.14 95.20,457.02 89.66,462.59 83.34,470.75 77.57,480.51 73.84,489.35 72.13,496.60 71.31,506.59 71.69,515.36 74.06,523.51 77.96,530.99 83.61,538.99 91.03,545.70 99.32,552.41 109.10,557.60 118.55,560.88 126.79,561.87 135.41,561.56 146.18,558.82 162.71,551.35 259.16,494.54 266.47,490.57 273.56,487.60 279.71,485.62 285.36,484.09 291.46,483.10 298.66,482.80 308.38,482.87 327.71,483.41 352.82,485.31 720.40,503.08 728.42,502.77 736.66,501.25 744.07,496.90 749.51,491.72 754.23,485.08 757.58,477.46 759.73,469.30 760.00,461.22 759.29,454.13 757.97,446.58 756.05,439.18 752.36,432.09 748.19,426.98 743.30,422.18 736.27,416.91 453.72,238.79"
        fill="none"
        stroke="#e94560"
        stroke-width="8.0"
        stroke-linejoin="round"
        stroke-linecap="round"/>
  <!-- Start/finish line -->
  <line x1="443.57" y1="256.02" x2="463.87" y2="221.56"
        stroke="#f5f5f5" stroke-width="9.6"
        stroke-linecap="round"/>
</svg>
