<?xml version="1.0" encoding="utf-8"?>
<svg xmlns="http://www.w3.org/2000/svg"
     width="466.5" height="800.0"
     viewBox="0 0 466.5 800.0">
  <rect width="100%" height="100%" fill="#1a1a2e"/>
  <!-- Track outline -->
  <polyline points="55.37,366.70 51.69,389.57 40.00,532.28 44.88,597.98 49.11,617.99 67.61,669.54 75.66,683.92 84.93,696.71 107.12,719.03 119.66,728.52 133.27,736.62 180.30,753.98 197.04,757.68 213.79,759.65 230.50,760.00 246.64,758.57 261.93,755.62 290.52,744.78 304.01,737.19 316.82,728.10 351.48,692.64 361.47,678.96 373.15,658.32 384.49,633.61 391.88,610.37 397.91,581.47 424.43,336.11 426.54,239.61 426.34,227.71 423.38,185.01 417.65,154.66 411.39,138.89 394.58,109.00 384.52,95.96 373.48,84.15 348.60,63.80 334.84,55.86 306.84,44.59 292.62,41.69 279.23,40.28 263.72,40.00 239.76,42.65 217.57,46.89 201.90,52.16 171.44,66.84 157.58,75.95 133.57,97.55 123.32,109.87 111.05,129.12 98.73,152.36 89.70,174.64 81.85,201.83 55.37,366.70"
        fill="none"
        stroke="#e94560"
        stroke-width="8.0"
        stroke-linejoin="round"
        stroke-linecap="round"/>
  <!-- Start/finish line -->
  <line x1="75.12" y1="369.88" x2="35.63" y2="363.53"
        stroke="#f5f5f5" stroke-width="9.6"
        stroke-linecap="round"/>
</svg>
