<?xml version="1.0" encoding="utf-8"?>
<svg xmlns="http://www.w3.org/2000/svg"
     width="561.1" height="800.0"
     viewBox="0 0 561.1 800.0">
  <rect width="100%" height="100%" fill="#1a1a2e"/>
  <!-- Track outline -->
  <polyline points="41.23,439.33 40.00,458.79 40.29,480.04 43.32,504.73 48.91,529.19 55.49,549.69 61.39,570.51 65.56,591.80 67.40,616.97 66.14,642.00 64.40,665.37 61.25,688.70 71.10,709.33 86.66,725.10 106.73,735.92 129.48,743.24 153.19,748.20 175.07,752.87 196.71,756.65 218.05,759.24 239.84,760.00 263.14,758.35 287.35,753.91 311.55,746.73 331.34,738.56 350.75,728.88 369.39,717.74 387.08,705.04 405.84,689.83 421.55,674.72 435.82,657.35 447.05,639.07 451.80,618.25 444.20,597.00 428.98,581.18 408.91,569.90 388.15,564.65 366.12,565.03 345.62,572.44 332.17,589.82 328.56,611.07 323.99,633.55 313.46,654.09 297.36,670.94 276.84,682.84 253.92,686.67 232.33,683.08 211.04,673.26 193.25,659.94 176.69,643.37 163.16,626.46 150.89,608.52 140.63,589.82 131.22,567.11 125.24,546.43 121.17,524.19 118.58,500.34 117.28,475.74 117.18,450.34 117.57,428.90 118.83,407.22 121.59,384.98 125.31,362.27 129.79,338.61 135.45,314.30 141.79,289.88 148.64,266.94 156.02,244.93 164.52,223.16 173.69,202.62 185.55,180.43 198.93,161.07 214.45,144.45 231.66,131.04 250.10,120.41 272.46,112.81 295.11,110.45 317.48,113.66 338.85,122.21 358.60,134.96 376.43,151.82 389.33,169.33 399.26,188.88 407.15,210.32 412.52,232.75 416.10,256.12 417.72,279.92 416.71,303.11 412.47,327.24 404.68,349.14 393.25,368.98 379.43,385.93 364.07,403.12 351.19,421.67 344.51,442.97 347.83,464.27 360.97,481.55 381.49,491.04 404.85,492.55 427.55,486.74 447.51,475.83 466.15,460.35 480.43,443.54 493.14,424.03 503.20,402.31 510.78,379.22 517.00,354.43 520.10,332.67 521.14,310.19 520.14,287.19 518.50,263.91 515.81,240.40 511.50,217.31 505.45,194.78 497.54,172.54 487.84,151.44 476.27,131.51 462.40,112.62 446.50,95.48 428.76,80.33 409.37,67.43 388.90,57.00 367.60,48.78 345.53,43.07 323.19,40.24 300.83,40.00 278.56,42.31 256.54,46.89 235.58,53.98 215.54,62.90 196.66,73.53 176.40,88.82 158.18,106.39 142.37,126.32 130.42,144.69 118.85,164.75 108.32,186.38 98.69,209.71 89.74,234.26 82.45,254.66 74.95,275.81 67.98,297.39 62.10,318.31 55.71,343.29 50.53,367.51 46.63,391.12 43.75,414.50 41.38,437.07 41.23,439.33"
        fill="none"
        stroke="#e94560"
        stroke-width="8.0"
        stroke-linejoin="round"
        stroke-linecap="round"/>
  <!-- Start/finish line -->
  <line x1="61.19" y1="440.60" x2="21.27" y2="438.07"
        stroke="#f5f5f5" stroke-width="9.6"
        stroke-linecap="round"/>
</svg>
