<?xml version="1.0" encoding="utf-8"?>
<svg xmlns="http://www.w3.org/2000/svg"
     width="472.3" height="800.0"
     viewBox="0 0 472.3 800.0">
  <rect width="100%" height="100%" fill="#1a1a2e"/>
  <!-- Track outline -->
  <polyline points="40.13,377.09 41.90,433.21 43.52,487.81 45.17,535.89 48.40,574.20 55.76,609.25 67.17,638.57 83.46,669.55 103.84,694.80 126.64,717.62 159.26,740.44 192.67,753.47 228.52,760.00 264.38,757.57 296.14,746.14 323.85,730.65 353.20,706.23 371.94,682.58 389.06,652.42 402.09,614.11 411.88,570.93 418.38,527.76 423.29,489.44 427.35,448.70 430.62,411.22 431.44,373.71 432.26,329.73 429.82,293.85 423.29,259.63 411.88,214.82 398.85,180.58 385.79,152.86 371.14,123.54 352.38,97.45 331.20,77.90 307.32,59.35 279.23,47.48 248.00,40.62 219.89,40.00 192.41,43.74 164.91,54.36 140.57,69.97 115.59,93.09 96.83,115.56 81.84,138.05 66.86,166.78 54.98,199.27 47.50,231.11 41.88,266.10 40.00,309.81 40.00,372.91 40.13,377.09"
        fill="none"
        stroke="#e94560"
        stroke-width="8.0"
        stroke-linejoin="round"
        stroke-linecap="round"/>
  <!-- Start/finish line -->
  <line x1="60.12" y1="376.46" x2="20.14" y2="377.72"
        stroke="#f5f5f5" stroke-width="9.6"
        stroke-linecap="round"/>
</svg>
