<?xml version="1.0" encoding="utf-8"?>
<svg xmlns="http://www.w3.org/2000/svg"
     width="800.0" height="596.4"
     viewBox="0 0 800.0 596.4">
  <rect width="100%" height="100%" fill="#1a1a2e"/>
  <!-- Track outline -->
  <polyline points="323.92,117.34 238.23,174.23 198.13,200.73 86.40,271.36 74.70,279.83 65.88,287.89 57.06,297.60 49.67,308.30 44.23,319.92 40.85,332.27 40.00,340.85 40.20,349.58 41.34,358.15 44.83,370.50 50.20,382.13 54.63,389.46 59.83,396.33 65.76,402.38 72.59,407.60 80.14,411.88 88.11,414.78 94.44,415.86 101.11,416.07 107.73,415.50 114.03,414.11 120.08,411.83 125.97,408.68 131.38,404.81 135.97,400.36 139.66,395.25 142.63,389.41 144.87,383.21 146.33,376.91 146.33,368.02 144.87,358.82 143.97,349.78 144.50,337.44 146.61,325.50 151.12,313.72 157.58,302.66 165.51,293.11 176.07,283.39 238.23,238.86 249.16,232.30 259.32,227.60 272.36,223.15 285.97,220.78 294.95,220.93 303.93,222.27 312.50,224.75 320.75,228.47 328.59,233.33 335.42,239.12 341.15,245.78 345.90,253.32 349.23,261.28 350.94,269.39 351.31,277.87 350.29,286.08 347.69,293.99 343.71,301.58 338.67,308.35 332.41,314.29 325.06,319.40 317.18,323.43 304.26,327.05 290.60,328.76 276.71,328.76 262.73,328.70 248.59,330.05 235.19,333.35 227.22,337.28 219.83,342.34 213.37,348.29 205.97,358.62 200.33,370.29 196.30,383.52 192.65,396.85 182.81,418.81 176.43,428.83 168.43,439.06 151.00,456.21 133.98,473.99 128.41,482.10 124.06,490.00 121.14,498.22 119.63,506.79 119.47,515.58 120.81,523.89 122.80,529.47 125.65,534.85 129.14,539.81 133.12,544.15 137.67,547.82 142.87,551.02 148.40,553.50 154.05,555.26 162.01,556.39 170.34,556.19 178.38,554.69 185.70,551.74 192.69,547.40 200.57,541.72 227.22,517.59 257.94,490.00 324.65,446.97 344.68,429.61 361.83,409.71 376.13,387.81 398.07,340.17 405.26,314.96 411.97,263.09 409.85,222.79 407.78,185.95 409.08,172.57 411.68,161.21 415.74,149.79 421.51,139.04 427.08,131.71 433.66,124.78 440.85,119.10 446.46,115.74 452.47,112.95 458.69,110.94 464.91,110.01 471.53,110.26 478.44,111.61 485.06,113.93 490.87,117.08 495.74,121.22 500.05,126.33 503.63,132.02 506.35,137.96 508.54,146.64 509.23,155.88 508.79,164.93 506.31,176.24 501.76,188.18 490.06,211.27 478.31,234.62 473.56,247.75 470.88,260.20 470.27,269.03 470.59,277.92 472.14,286.44 475.02,294.40 479.13,301.99 484.16,308.71 490.26,314.39 497.29,319.20 504.80,322.92 512.89,325.40 521.46,326.79 530.12,327.05 543.65,325.04 556.85,321.11 578.83,310.88 650.62,268.57 721.08,222.12 732.82,211.68 740.99,202.07 748.26,191.48 753.91,180.06 756.91,171.33 759.11,162.19 760.00,153.09 759.39,144.36 757.56,135.74 754.76,127.52 748.75,116.31 740.99,106.13 731.84,96.83 721.32,89.29 709.90,84.43 696.01,81.38 657.65,80.66 619.42,80.45 607.03,78.39 594.92,74.82 558.88,59.68 522.44,44.80 508.42,41.39 495.83,40.00 482.01,40.26 468.20,42.12 455.11,44.86 440.41,49.92 352.97,98.02 323.92,117.34"
        fill="none"
        stroke="#e94560"
        stroke-width="8.0"
        stroke-linejoin="round"
        stroke-linecap="round"/>
  <!-- Start/finish line -->
  <line x1="334.99" y1="134.00" x2="312.86" y2="100.68"
        stroke="#f5f5f5" stroke-width="9.6"
        stroke-linecap="round"/>
</svg>
