<?xml version="1.0" encoding="utf-8"?>
<svg xmlns="http://www.w3.org/2000/svg"
     width="800.0" height="583.3"
     viewBox="0 0 800.0 583.3">
  <rect width="100%" height="100%" fill="#1a1a2e"/>
  <!-- Track outline -->
  <polyline points="42.03,303.01 40.00,333.79 41.45,364.32 44.54,384.34 49.56,404.11 57.87,421.50 64.83,430.76 73.23,439.52 82.60,447.41 92.55,453.41 102.70,457.04 111.97,457.92 122.21,457.29 132.84,455.16 143.08,451.78 152.26,447.28 159.79,441.78 166.65,433.52 171.87,423.38 175.73,411.87 178.44,399.11 180.37,385.84 175.25,327.04 166.75,267.35 165.49,244.95 165.59,224.81 166.94,205.79 174.57,195.53 188.10,183.77 252.82,142.23 279.39,129.59 307.69,120.83 336.48,115.07 368.46,111.95 489.50,112.20 519.55,114.95 546.31,120.96 565.53,128.09 584.18,137.60 599.73,149.73 607.46,158.74 614.61,169.13 620.41,180.39 624.27,191.65 625.33,202.41 623.79,211.42 620.31,221.06 615.19,230.56 609.01,239.32 602.05,246.96 594.71,252.71 583.02,257.84 569.49,259.97 554.71,259.97 538.77,258.59 479.07,239.82 419.37,218.05 389.71,211.80 362.66,210.29 343.44,212.55 324.31,217.30 307.02,225.31 294.94,234.44 283.93,245.96 274.17,258.84 266.35,272.36 258.81,291.88 254.27,312.90 252.82,333.92 254.85,354.81 260.07,375.83 267.31,395.48 280.74,420.63 297.74,443.03 317.84,462.67 340.83,479.69 368.27,495.33 397.44,508.22 455.89,525.73 569.40,542.25 601.28,543.25 630.36,540.62 649.97,536.37 669.19,529.99 686.58,521.10 698.37,512.47 709.57,502.34 719.04,490.95 725.71,478.69 728.60,469.55 730.63,459.29 731.50,448.66 731.21,438.27 729.28,428.76 725.80,421.00 720.20,414.62 712.57,408.99 703.39,404.36 693.25,400.86 682.52,398.61 671.70,397.73 635.86,406.87 595.38,426.13 558.67,441.90 528.05,450.16 499.26,454.04 467.77,452.91 436.76,447.28 417.63,441.40 399.18,433.77 382.37,423.88 370.68,415.00 359.38,404.99 349.91,393.85 343.44,381.84 340.54,370.95 339.28,358.82 339.77,346.43 341.89,334.54 345.85,324.28 352.23,315.15 360.92,306.64 371.16,299.26 382.08,293.25 392.90,289.37 410.87,287.75 430.00,290.75 450.96,296.13 506.51,319.28 562.25,343.18 593.36,350.81 622.53,353.69 643.01,353.19 663.59,350.56 682.72,345.05 699.91,336.42 715.85,325.03 729.57,311.52 741.16,295.00 750.44,276.24 756.81,257.09 759.81,238.57 760.00,219.68 757.97,200.79 753.43,180.26 746.38,159.74 737.01,140.85 718.56,117.08 696.34,96.81 672.77,80.42 646.88,67.15 615.86,56.27 583.60,48.38 523.70,40.00 325.86,41.88 268.18,50.14 206.84,64.90 179.98,76.04 154.96,90.17 131.49,108.32 110.33,129.71 91.20,155.11 75.16,183.02 62.51,213.17 52.85,244.33 42.03,303.01"
        fill="none"
        stroke="#e94560"
        stroke-width="8.0"
        stroke-linejoin="round"
        stroke-linecap="round"/>
  <!-- Start/finish line -->
  <line x1="61.83" y1="305.86" x2="22.23" y2="300.17"
        stroke="#f5f5f5" stroke-width="9.6"
        stroke-linecap="round"/>
</svg>
