<?xml version="1.0" encoding="utf-8"?>
<svg xmlns="http://www.w3.org/2000/svg"
     width="522.8" height="800.0"
     viewBox="0 0 522.8 800.0">
  <rect width="100%" height="100%" fill="#1a1a2e"/>
  <!-- Track outline -->
  <polyline points="418.66,206.41 413.76,191.60 400.09,126.92 393.79,109.41 385.62,93.84 375.66,79.53 364.63,67.78 351.99,57.10 337.99,49.08 330.14,45.76 321.94,43.16 313.29,41.38 304.43,40.38 295.76,40.00 286.38,40.56 270.33,43.26 252.39,48.14 229.05,57.10 203.42,69.98 159.54,97.60 116.91,129.58 90.80,153.82 69.90,178.00 56.85,198.18 47.64,216.41 44.21,225.02 42.04,232.94 40.68,241.12 40.06,249.42 40.00,258.19 40.72,267.05 42.15,275.39 45.23,285.35 95.16,383.73 135.72,468.14 195.72,615.17 231.63,705.69 239.77,720.75 247.43,732.19 252.88,738.89 258.71,744.43 265.89,749.41 273.74,753.55 282.02,756.87 290.49,759.15 298.24,760.00 306.04,760.00 313.81,759.72 323.25,758.12 415.68,723.13 429.87,717.62 437.43,713.99 444.49,709.70 450.22,704.90 454.97,699.39 457.40,695.13 459.32,690.53 460.73,685.77 461.93,678.47 461.88,671.08 461.08,666.00 459.63,660.99 457.42,656.39 454.06,652.19 449.86,648.43 445.47,645.14 439.29,641.23 432.62,638.25 425.29,636.40 416.51,635.31 391.87,634.93 367.32,634.24 358.77,632.52 351.52,630.11 344.12,626.85 337.06,622.90 330.29,618.33 323.89,613.10 311.68,600.13 302.66,588.48 285.20,560.32 242.35,468.83 190.68,339.56 185.95,324.15 182.34,308.21 180.00,291.67 179.13,276.26 180.46,257.66 184.75,239.77 191.40,223.20 200.05,209.08 209.82,197.33 220.77,186.15 233.28,176.69 240.43,172.30 248.01,168.80 253.40,167.17 259.00,166.07 264.53,165.76 270.00,166.38 275.41,167.76 280.43,169.80 284.81,172.34 288.84,175.44 292.27,179.01 294.93,182.92 297.02,187.28 298.63,191.88 300.28,199.90 300.63,208.20 299.54,215.75 297.39,223.86 287.27,254.46 284.32,271.69 284.01,290.17 286.28,311.37 291.52,336.12 304.41,371.04 321.26,405.97 339.37,435.38 356.45,458.84 368.74,471.90 381.90,482.24 396.99,490.41 404.93,493.42 413.00,495.67 420.72,497.05 428.57,497.55 437.27,496.93 445.80,495.08 453.48,491.88 460.52,487.56 466.57,482.36 471.84,476.32 476.49,469.43 480.04,461.81 482.10,453.20 482.83,444.27 482.54,436.88 480.86,427.42 431.86,261.60 421.98,216.47 418.66,206.41"
        fill="none"
        stroke="#e94560"
        stroke-width="8.0"
        stroke-linejoin="round"
        stroke-linecap="round"/>
  <!-- Start/finish line -->
  <line x1="399.67" y1="212.69" x2="437.65" y2="200.14"
        stroke="#f5f5f5" stroke-width="9.6"
        stroke-linecap="round"/>
</svg>
