<?xml version="1.0" encoding="utf-8"?>
<svg xmlns="http://www.w3.org/2000/svg"
     width="773.9" height="800.0"
     viewBox="0 0 773.9 800.0">
  <rect width="100%" height="100%" fill="#1a1a2e"/>
  <!-- Track outline -->
  <polyline points="236.49,174.45 271.69,132.30 298.87,104.98 329.31,80.54 362.44,60.59 380.07,52.90 398.31,46.89 417.04,42.88 436.01,40.64 454.83,40.00 473.51,41.12 486.04,42.72 498.48,45.13 509.91,48.89 535.65,67.08 699.49,251.45 711.20,267.63 719.17,281.66 727.58,300.00 732.95,319.47 733.87,333.58 732.81,348.00 729.26,361.22 724.94,369.79 719.27,377.89 712.50,384.94 704.91,390.30 697.71,393.35 689.55,395.35 680.90,396.39 672.40,396.31 664.58,395.19 653.15,390.47 642.49,382.93 632.64,374.60 620.49,362.34 608.39,347.36 559.51,279.09 507.70,222.36 492.14,209.22 476.82,198.65 461.03,189.19 444.17,181.58 430.49,177.25 416.03,174.21 402.01,173.33 392.65,174.29 383.33,176.45 374.50,179.66 366.43,183.98 353.32,196.88 340.74,213.71 292.63,277.57 216.61,365.87 197.02,397.84 189.15,414.18 183.14,431.49 179.35,452.48 178.97,474.12 181.27,488.06 185.35,501.92 190.87,515.14 202.78,534.53 216.95,552.24 244.41,579.32 275.63,604.64 308.95,627.39 328.54,636.37 347.41,642.30 366.05,646.94 385.06,649.19 399.37,648.95 414.02,647.34 427.51,643.58 436.25,639.49 444.60,634.44 452.05,628.36 458.14,621.30 463.09,612.65 466.88,602.64 469.14,592.22 469.62,582.12 467.84,572.19 464.10,562.09 459.10,552.40 453.53,543.50 440.67,529.00 425.83,515.94 408.64,502.48 392.31,488.62 380.83,474.68 371.38,459.29 362.54,439.58 356.68,418.67 355.05,405.45 355.00,392.15 356.97,379.49 359.85,370.75 363.88,362.18 368.93,354.25 374.98,347.20 382.80,340.55 392.02,334.70 401.96,329.97 412.09,326.69 426.36,324.60 441.24,325.00 455.26,327.49 467.27,332.13 478.46,338.62 489.16,346.24 504.96,360.26 519.42,375.56 542.42,403.37 562.54,435.01 570.75,452.40 577.42,470.59 585.35,509.29 587.31,549.83 583.09,591.10 571.71,631.56 563.45,651.27 553.32,670.18 541.02,688.05 526.76,704.39 510.24,718.74 492.00,730.99 472.31,741.09 451.52,749.02 429.77,755.27 407.49,759.12 384.72,760.00 361.87,758.32 339.25,754.23 317.02,748.14 273.80,730.51 232.84,706.48 105.93,611.29 91.81,597.59 80.96,584.37 67.51,565.06 55.89,543.90 47.49,521.95 42.06,499.27 40.00,476.28 41.06,453.20 45.33,430.45 52.53,408.33 61.13,389.66 74.86,368.03 236.49,174.45"
        fill="none"
        stroke="#e94560"
        stroke-width="8.0"
        stroke-linejoin="round"
        stroke-linecap="round"/>
  <!-- Start/finish line -->
  <line x1="221.14" y1="161.63" x2="251.84" y2="187.27"
        stroke="#f5f5f5" stroke-width="9.6"
        stroke-linecap="round"/>
</svg>
