<?xml version="1.0" encoding="utf-8"?>
<svg xmlns="http://www.w3.org/2000/svg"
     width="641.7" height="800.0"
     viewBox="0 0 641.7 800.0">
  <rect width="100%" height="100%" fill="#1a1a2e"/>
  <!-- Track outline -->
  <polyline points="222.07,109.83 247.23,95.30 325.05,53.98 348.29,46.11 372.39,41.31 387.91,40.00 403.82,40.16 418.91,42.13 433.54,45.95 447.61,51.85 460.80,59.38 472.53,68.06 482.89,78.00 491.14,88.48 498.05,99.67 503.67,111.03 508.14,122.88 511.33,134.67 513.57,147.93 516.13,202.47 582.77,502.75 595.89,559.69 600.46,588.68 601.68,616.36 599.64,642.24 596.29,657.96 591.25,673.41 584.78,686.46 576.76,698.36 567.16,708.95 556.21,718.13 544.93,725.44 530.46,731.94 475.69,746.13 420.56,756.89 394.75,760.00 368.51,759.51 355.98,757.71 343.46,754.70 329.03,749.68 315.25,742.91 304.04,735.00 294.34,725.61 286.35,714.52 279.81,702.24 270.24,674.50 241.90,571.32 236.01,539.55 235.39,524.15 236.51,509.19 239.34,495.81 244.20,483.26 249.23,474.80 255.41,466.77 262.32,460.11 267.48,456.40 273.03,453.28 278.89,450.94 284.90,449.57 291.77,449.35 299.07,450.28 306.24,452.08 312.72,454.70 319.79,459.13 326.07,464.80 331.29,471.36 335.40,479.16 338.40,487.84 340.70,496.91 343.95,526.77 346.45,580.11 349.94,594.09 354.87,606.31 360.95,617.62 368.84,627.72 376.24,634.32 384.72,640.16 393.73,644.64 403.00,647.42 412.73,648.84 422.40,648.84 432.13,647.21 441.73,644.04 450.51,639.89 457.54,635.25 463.86,629.68 469.58,623.57 477.43,612.87 483.75,600.96 488.22,587.70 491.08,573.67 492.75,558.71 493.05,543.48 492.26,528.57 489.76,512.03 480.06,474.47 468.03,438.33 462.47,425.77 455.80,414.36 422.20,370.35 401.59,350.97 355.10,318.00 330.83,306.37 306.08,299.00 293.65,296.82 280.76,295.83 264.98,296.38 249.03,298.45 234.47,301.78 220.76,306.75 208.73,313.25 197.84,321.27 188.41,330.66 180.09,341.15 173.15,352.99 166.18,364.79 158.00,375.10 148.36,384.00 140.11,389.30 130.97,393.72 121.60,396.56 112.26,397.60 102.73,397.11 93.59,395.25 84.78,391.65 76.40,386.62 68.90,380.89 60.25,372.05 53.22,362.00 47.56,350.21 43.49,337.54 40.85,323.95 40.00,309.92 41.22,295.29 44.27,280.66 49.30,265.64 55.55,251.45 67.91,230.10 83.33,210.12 101.45,191.39 121.83,174.19 168.09,143.46 222.07,109.83"
        fill="none"
        stroke="#e94560"
        stroke-width="8.0"
        stroke-linejoin="round"
        stroke-linecap="round"/>
  <!-- Start/finish line -->
  <line x1="211.68" y1="92.74" x2="232.47" y2="126.91"
        stroke="#f5f5f5" stroke-width="9.6"
        stroke-linecap="round"/>
</svg>
