<?xml version="1.0" encoding="utf-8"?>
<svg xmlns="http://www.w3.org/2000/svg"
     width="703.3" height="800.0"
     viewBox="0 0 703.3 800.0">
  <rect width="100%" height="100%" fill="#1a1a2e"/>
  <!-- Track outline -->
  <polyline points="406.61,675.72 395.15,674.60 338.48,671.99 291.49,669.29 261.92,665.54 235.99,659.96 213.62,652.45 194.30,643.36 181.17,634.83 170.18,625.08 158.87,611.48 152.19,599.85 147.70,587.63 145.31,574.17 140.97,533.97 137.55,520.33 132.67,506.88 109.72,462.98 81.96,413.56 65.93,379.86 54.05,349.41 44.90,318.29 40.65,295.56 40.00,279.44 40.74,272.28 42.11,265.72 43.75,260.99 45.85,256.82 48.42,253.15 51.38,249.99 54.71,247.37 58.34,245.28 62.33,243.69 66.52,242.70 71.06,242.33 75.70,242.60 80.66,243.52 85.63,245.05 90.84,247.22 95.98,250.00 101.17,253.52 106.19,257.67 115.87,268.05 124.47,280.82 133.56,300.11 141.38,322.96 147.77,349.28 155.31,397.89 168.60,472.54 182.58,521.24 195.88,550.84 209.39,571.10 216.97,579.89 225.22,587.85 244.91,601.76 273.66,616.23 317.69,629.46 360.15,637.61 371.93,638.45 382.30,638.16 390.30,637.01 397.51,635.14 402.69,633.19 407.51,630.60 412.68,626.89 417.63,622.11 422.75,614.88 427.59,606.55 437.74,586.73 441.83,580.74 446.01,575.84 449.73,572.54 453.60,570.01 457.58,568.22 461.68,567.10 465.70,566.65 469.72,566.83 473.77,567.66 477.78,569.10 481.89,571.22 486.06,574.05 497.08,584.33 509.41,598.60 521.50,611.88 526.03,615.35 530.29,617.66 535.49,619.68 540.66,620.86 543.24,621.06 545.70,620.95 548.06,620.53 550.26,619.82 552.36,618.82 554.33,617.56 557.02,615.23 559.34,612.39 561.24,609.10 562.62,605.28 563.45,599.95 563.44,593.94 562.23,585.77 559.78,577.00 555.06,565.37 548.67,553.23 526.53,522.20 456.72,444.96 394.37,385.78 327.35,333.57 240.38,273.09 177.58,232.71 145.49,211.79 130.80,199.61 118.80,187.00 109.43,173.68 102.65,159.42 98.29,144.73 97.12,137.55 96.60,130.35 96.77,123.30 97.61,116.32 99.20,109.22 101.33,102.52 105.98,92.50 114.66,80.07 127.87,66.43 134.72,60.92 141.57,56.39 147.04,53.59 152.43,51.62 157.68,50.51 162.89,50.09 167.77,50.27 172.48,51.09 176.76,52.45 180.83,54.45 184.72,57.23 188.39,60.67 192.04,64.99 195.51,70.08 203.45,85.84 221.26,131.19 236.74,156.94 245.12,167.58 253.78,176.71 261.13,182.88 268.33,187.70 274.03,190.73 279.65,192.90 285.10,194.27 290.54,194.90 295.81,194.74 301.01,193.85 306.11,192.26 311.03,189.97 315.66,187.01 319.94,183.43 323.70,179.35 326.99,174.76 329.64,169.90 331.71,164.68 333.08,159.24 333.75,153.39 333.53,145.71 332.27,137.47 325.06,116.18 313.09,89.65 311.22,83.60 310.17,78.10 309.89,72.80 310.26,67.66 311.22,62.96 312.74,58.55 314.85,54.57 317.45,51.00 320.57,47.77 324.06,45.04 327.92,42.81 332.02,41.20 336.30,40.27 340.66,40.00 345.05,40.39 349.36,41.47 353.51,43.29 357.46,45.80 361.20,49.07 364.80,53.09 373.72,66.16 386.45,91.10 408.21,143.85 425.46,191.59 430.16,211.15 430.94,218.13 431.07,224.72 430.59,230.82 429.51,236.67 427.87,242.08 425.64,247.16 422.87,251.71 419.12,256.40 407.31,267.75 395.40,279.38 391.23,284.93 388.20,290.33 386.02,295.84 384.58,301.49 383.90,306.90 383.86,312.03 384.30,315.62 385.23,319.04 387.06,323.21 389.78,327.49 396.03,334.61 403.93,341.75 414.06,349.16 426.16,356.30 474.82,377.23 497.83,386.83 510.36,393.97 515.50,397.88 520.13,402.22 523.91,406.67 527.13,411.50 529.64,416.48 531.54,421.81 532.71,427.21 533.41,433.57 533.40,450.43 533.72,468.17 535.39,477.80 538.04,486.45 542.11,495.35 547.41,503.90 564.90,523.36 593.52,550.06 605.06,564.04 615.69,581.65 621.49,595.78 625.47,614.03 631.17,640.53 645.69,671.96 658.43,696.24 660.76,702.47 662.26,708.27 663.09,713.86 663.27,719.35 662.79,724.44 661.69,729.30 659.93,733.82 657.59,737.99 654.56,741.93 650.99,745.44 646.58,748.78 641.70,751.67 635.99,754.35 629.91,756.54 623.03,758.36 616.17,759.55 610.70,760.00 605.14,759.92 597.63,759.17 589.80,757.68 573.99,752.25 557.90,743.68 533.42,725.96 506.63,707.38 476.15,692.85 436.41,681.35 409.80,676.03 406.61,675.72"
        fill="none"
        stroke="#e94560"
        stroke-width="8.0"
        stroke-linejoin="round"
        stroke-linecap="round"/>
  <!-- Start/finish line -->
  <line x1="404.67" y1="695.62" x2="408.55" y2="655.81"
        stroke="#f5f5f5" stroke-width="9.6"
        stroke-linecap="round"/>
</svg>
