<?xml version="1.0" encoding="utf-8"?>
<svg xmlns="http://www.w3.org/2000/svg"
     width="709.3" height="800.0"
     viewBox="0 0 709.3 800.0">
  <rect width="100%" height="100%" fill="#1a1a2e"/>
  <!-- Track outline -->
  <polyline points="292.93,544.27 238.91,644.06 208.95,695.70 194.19,715.76 174.94,735.12 159.05,746.81 150.86,751.22 142.50,754.72 133.89,757.37 125.19,759.13 116.24,759.99 107.67,760.00 101.33,759.41 95.34,758.24 89.61,756.60 83.83,754.27 76.93,750.55 70.10,745.81 64.04,740.36 58.43,734.00 53.45,726.89 49.13,719.35 43.91,707.01 42.09,700.48 40.79,693.33 40.00,672.89 42.39,651.19 49.69,621.67 61.22,589.49 86.83,533.48 111.07,488.77 163.94,402.01 373.95,61.25 379.70,53.92 386.08,47.24 391.87,43.27 397.99,40.74 404.00,40.00 411.67,40.89 418.79,43.31 425.49,46.56 475.56,78.59 480.48,83.53 484.34,90.47 486.85,97.60 486.75,104.95 485.02,112.29 481.65,119.63 432.72,197.54 424.82,212.09 418.56,226.96 415.82,238.37 414.47,249.09 414.37,257.38 415.17,265.22 416.85,272.90 419.38,280.09 422.96,287.04 427.61,293.48 436.65,302.48 447.36,310.75 459.70,318.41 474.49,325.54 553.33,352.31 585.56,364.08 608.12,375.43 627.12,388.80 635.19,396.17 642.67,404.32 649.08,412.72 654.81,421.89 663.39,441.12 667.39,456.38 668.74,466.53 669.26,477.17 668.65,487.75 667.21,497.83 663.02,513.02 656.69,527.52 648.37,540.95 638.18,553.09 626.33,563.65 617.67,569.60 608.34,574.93 598.36,579.37 588.49,582.80 572.91,586.07 557.15,586.95 536.68,584.77 517.22,579.18 498.96,570.64 486.10,561.98 470.91,547.50 458.33,531.07 426.93,478.86 421.34,472.12 416.16,467.33 410.22,462.88 404.04,459.38 397.65,456.76 391.15,455.10 384.58,454.39 378.00,454.67 371.42,456.01 364.94,458.37 358.90,461.43 352.49,465.95 340.85,476.67 328.17,490.88 298.54,534.57 292.93,544.27"
        fill="none"
        stroke="#e94560"
        stroke-width="8.0"
        stroke-linejoin="round"
        stroke-linecap="round"/>
  <!-- Start/finish line -->
  <line x1="310.49" y1="553.84" x2="275.36" y2="534.71"
        stroke="#f5f5f5" stroke-width="9.6"
        stroke-linecap="round"/>
</svg>
