<?xml version="1.0" encoding="utf-8"?>
<svg xmlns="http://www.w3.org/2000/svg"
     width="800.0" height="425.3"
     viewBox="0 0 800.0 425.3">
  <rect width="100%" height="100%" fill="#1a1a2e"/>
  <!-- Track outline -->
  <polyline points="396.42,40.00 394.02,40.00 201.59,43.20 173.71,46.73 150.94,52.55 130.76,61.18 112.07,72.48 94.70,85.84 78.90,102.15 64.38,123.62 52.66,147.42 45.36,169.03 41.09,191.64 40.00,217.44 42.59,243.96 50.62,274.30 62.11,301.97 72.48,318.85 84.81,333.11 102.99,348.71 123.75,362.07 150.54,373.95 174.26,381.77 186.96,384.06 204.76,385.25 596.15,373.71 622.39,369.27 643.15,362.69 672.20,349.86 698.87,333.93 713.65,321.57 726.21,307.12 739.64,286.70 750.48,263.81 756.93,241.91 760.00,218.73 758.76,189.82 753.58,161.82 746.46,141.98 736.83,124.00 722.52,103.73 706.28,85.70 691.36,72.87 675.70,62.66 659.68,54.93 641.51,49.21 608.77,43.48 568.60,40.19 396.42,40.00"
        fill="none"
        stroke="#e94560"
        stroke-width="8.0"
        stroke-linejoin="round"
        stroke-linecap="round"/>
  <!-- Start/finish line -->
  <line x1="396.40" y1="60.00" x2="396.45" y2="20.00"
        stroke="#f5f5f5" stroke-width="9.6"
        stroke-linecap="round"/>
</svg>
