<?xml version="1.0" encoding="utf-8"?>
<svg xmlns="http://www.w3.org/2000/svg"
     width="629.6" height="800.0"
     viewBox="0 0 629.6 800.0">
  <rect width="100%" height="100%" fill="#1a1a2e"/>
  <!-- Track outline -->
  <polyline points="552.84,328.36 543.08,299.47 504.04,219.98 458.07,138.84 438.92,113.15 421.63,94.41 398.91,74.97 383.33,63.86 366.72,54.14 350.25,47.81 333.64,43.47 319.33,40.95 303.61,40.00 270.31,41.48 233.65,46.25 198.63,53.97 166.37,64.65 144.76,75.49 126.65,87.73 115.92,97.10 106.68,107.51 97.07,120.36 87.76,137.54 65.48,198.37 47.15,273.95 40.00,354.83 43.58,435.71 60.64,509.82 82.02,571.69 101.17,612.22 145.65,680.77 169.87,706.28 180.97,716.00 193.11,724.59 211.67,733.88 232.01,741.95 275.60,755.23 295.34,758.70 317.62,760.00 375.96,755.92 431.09,748.28 444.95,745.25 457.02,740.91 498.60,717.13 512.01,708.54 524.60,698.39 542.26,679.38 558.73,654.39 576.98,606.14 588.38,555.46 589.65,528.74 586.89,500.10 554.18,332.27 552.84,328.36"
        fill="none"
        stroke="#e94560"
        stroke-width="8.0"
        stroke-linejoin="round"
        stroke-linecap="round"/>
  <!-- Start/finish line -->
  <line x1="533.90" y1="334.78" x2="571.79" y2="321.95"
        stroke="#f5f5f5" stroke-width="9.6"
        stroke-linecap="round"/>
</svg>
