<?xml version="1.0" encoding="utf-8"?>
<svg xmlns="http://www.w3.org/2000/svg"
     width="346.6" height="800.0"
     viewBox="0 0 346.6 800.0">
  <rect width="100%" height="100%" fill="#1a1a2e"/>
  <!-- Track outline -->
  <polyline points="305.96,360.69 306.64,388.72 306.26,417.05 305.36,445.79 303.74,474.77 301.71,502.98 298.97,530.41 296.15,557.07 292.47,583.79 287.25,610.16 280.18,640.80 273.04,668.71 266.09,694.54 256.47,722.09 240.19,745.12 214.53,760.00 194.19,755.60 180.44,742.27 162.85,720.66 149.44,692.87 139.70,667.17 130.95,640.09 122.45,611.64 114.49,582.31 106.97,552.43 99.53,521.96 91.56,490.96 84.95,460.97 78.90,431.81 73.60,403.90 68.19,372.66 63.41,343.08 60.52,315.47 64.62,288.93 78.78,262.03 101.78,246.02 130.95,249.77 151.01,268.99 165.30,291.72 180.18,314.69 197.39,338.20 218.43,357.60 247.22,365.63 265.56,345.10 254.14,318.74 237.07,298.09 216.59,274.35 196.30,252.51 177.40,233.58 156.31,215.55 134.07,200.67 107.19,185.92 81.49,171.81 59.35,155.39 41.35,130.45 40.00,102.37 56.39,77.25 80.29,64.22 108.55,53.33 134.33,45.24 161.54,41.01 189.01,40.00 215.54,44.58 241.81,59.22 261.65,80.23 272.14,105.22 266.31,134.74 253.65,162.95 245.46,191.81 250.79,218.29 265.04,245.72 279.13,270.12 292.06,297.67 301.04,328.50 305.96,360.69"
        fill="none"
        stroke="#e94560"
        stroke-width="8.0"
        stroke-linejoin="round"
        stroke-linecap="round"/>
  <!-- Start/finish line -->
  <line x1="325.87" y1="358.84" x2="286.05" y2="362.55"
        stroke="#f5f5f5" stroke-width="9.6"
        stroke-linecap="round"/>
</svg>
