<?xml version="1.0" encoding="utf-8"?>
<svg xmlns="http://www.w3.org/2000/svg"
     width="800.0" height="739.6"
     viewBox="0 0 800.0 739.6">
  <rect width="100%" height="100%" fill="#1a1a2e"/>
  <!-- Track outline -->
  <polyline points="209.74,99.91 92.60,144.53 81.16,151.79 72.34,159.43 62.14,170.08 53.28,182.08 46.77,194.74 42.31,208.01 40.17,221.18 40.00,234.40 42.83,247.01 49.21,260.84 55.46,272.44 65.61,286.11 74.61,296.76 85.74,306.75 96.92,316.57 108.96,325.04 120.18,331.57 131.83,336.93 144.59,341.44 157.70,344.46 170.59,345.68 183.57,344.96 198.05,341.50 211.97,335.59 220.45,330.29 228.42,323.98 235.36,317.07 243.11,306.52 249.02,294.92 253.39,281.98 256.00,268.31 256.69,253.59 255.91,238.69 251.63,209.24 250.35,194.46 250.52,179.84 252.96,165.90 257.41,152.57 264.14,140.07 272.66,128.69 282.68,118.60 294.08,110.06 306.88,103.42 320.59,98.85 334.72,96.51 349.07,96.45 363.46,98.74 377.34,103.37 390.41,110.56 402.36,119.71 413.11,130.70 422.44,143.03 430.37,156.36 436.58,170.58 440.78,185.59 442.83,200.93 442.70,215.60 440.22,229.71 437.18,238.02 433.07,245.95 428.10,253.09 419.45,261.90 408.27,269.88 382.27,282.32 355.84,294.64 343.29,302.84 333.27,311.82 327.79,318.91 323.25,326.66 319.69,334.75 317.16,343.17 315.62,351.93 315.11,360.80 316.35,374.52 319.73,388.02 325.30,401.30 332.84,413.85 341.79,424.84 354.30,436.77 411.48,483.24 470.33,523.85 479.37,527.87 486.82,530.04 494.36,531.16 502.71,531.55 511.19,530.93 519.37,529.32 527.34,526.69 535.05,523.01 542.16,518.38 549.10,512.25 555.35,505.05 560.06,497.24 562.42,491.44 564.00,485.36 564.73,478.89 564.43,471.92 560.75,460.31 554.11,447.26 547.30,434.21 543.27,422.38 542.46,416.14 542.07,409.94 542.33,404.14 543.49,399.01 545.71,394.88 548.63,392.26 552.44,390.14 556.94,388.52 561.65,387.46 566.36,387.02 570.68,387.18 575.87,388.52 581.14,390.98 586.27,394.27 590.94,398.17 594.88,402.25 599.77,409.94 603.19,418.87 605.76,427.91 608.08,440.18 609.15,454.51 609.28,536.57 615.61,594.30 622.21,620.63 631.55,646.07 637.80,659.01 645.30,671.17 650.82,678.25 656.95,684.78 663.89,690.19 672.28,694.65 681.53,697.89 690.83,699.62 699.74,699.51 708.69,697.89 717.17,695.21 725.14,691.53 732.63,686.79 739.36,681.15 745.44,674.35 750.71,666.54 754.82,658.17 757.69,648.74 759.31,638.65 760.00,628.66 759.31,614.89 757.00,601.16 753.40,586.55 748.44,572.16 568.03,121.55 554.71,97.73 546.61,86.97 537.58,77.15 527.72,68.45 514.87,57.63 504.08,51.99 489.00,45.97 475.73,41.95 459.02,40.00 440.73,40.06 423.30,41.23 231.20,91.77 209.74,99.91"
        fill="none"
        stroke="#e94560"
        stroke-width="8.0"
        stroke-linejoin="round"
        stroke-linecap="round"/>
  <!-- Start/finish line -->
  <line x1="216.86" y1="118.60" x2="202.63" y2="81.22"
        stroke="#f5f5f5" stroke-width="9.6"
        stroke-linecap="round"/>
</svg>
