<?xml version="1.0" encoding="utf-8"?>
<svg xmlns="http://www.w3.org/2000/svg"
     width="644.6" height="800.0"
     viewBox="0 0 644.6 800.0">
  <rect width="100%" height="100%" fill="#1a1a2e"/>
  <!-- Track outline -->
  <polyline points="81.09,231.63 71.91,218.15 57.44,193.18 49.63,171.46 42.54,144.29 40.60,131.54 40.00,118.69 41.20,104.05 44.54,89.73 48.11,81.02 52.70,72.68 58.24,65.18 64.90,58.41 72.51,52.49 80.62,47.61 89.00,43.88 97.84,41.26 106.72,40.00 115.55,40.31 124.41,41.99 132.74,44.83 140.48,48.66 147.69,53.59 153.93,59.57 161.21,71.58 166.60,84.90 173.56,108.46 183.69,132.80 191.23,144.29 200.09,155.10 210.36,165.48 221.79,174.82 234.47,182.79 248.07,189.46 277.98,199.48 326.44,209.86 350.94,217.21 374.82,227.86 397.57,242.23 419.15,259.07 439.81,278.11 458.85,299.46 476.42,322.86 506.73,374.48 531.73,430.30 568.68,550.27 597.63,654.45 603.47,682.73 604.59,695.63 603.97,708.43 602.04,717.88 599.00,727.32 594.61,735.76 588.77,742.79 581.66,748.88 573.85,753.70 565.27,757.22 555.96,759.42 546.73,760.00 537.57,758.85 528.46,756.12 520.13,752.03 512.55,746.36 505.76,739.28 500.27,731.72 496.68,724.43 494.23,716.67 492.43,708.70 490.64,683.15 486.55,656.13 481.63,642.70 474.99,629.95 467.26,618.52 457.20,607.24 433.65,589.09 410.05,570.62 399.42,558.40 391.68,545.76 386.39,531.28 383.47,516.07 382.73,501.32 384.20,485.48 391.71,458.20 399.27,431.66 400.69,418.91 400.59,407.32 399.42,395.25 396.75,383.08 391.63,368.66 384.52,354.70 375.76,342.64 365.33,332.04 353.28,323.28 339.98,316.30 325.61,311.27 310.54,308.07 278.63,306.70 227.48,310.22 201.06,309.59 174.78,304.55 162.03,300.30 149.73,294.85 126.88,280.31 106.00,262.48 87.78,241.44 81.09,231.63"
        fill="none"
        stroke="#e94560"
        stroke-width="8.0"
        stroke-linejoin="round"
        stroke-linecap="round"/>
  <!-- Start/finish line -->
  <line x1="64.57" y1="242.89" x2="97.62" y2="220.37"
        stroke="#f5f5f5" stroke-width="9.6"
        stroke-linecap="round"/>
</svg>
