<?xml version="1.0" encoding="utf-8"?>
<svg xmlns="http://www.w3.org/2000/svg"
     width="800.0" height="322.7"
     viewBox="0 0 800.0 322.7">
  <rect width="100%" height="100%" fill="#1a1a2e"/>
  <!-- Track outline -->
  <polyline points="339.78,229.14 349.31,230.98 389.90,233.88 429.78,235.10 436.62,234.27 442.48,232.82 448.77,230.52 454.70,227.60 459.53,224.50 463.90,220.93 467.87,216.83 471.35,212.31 474.31,207.34 476.72,202.07 478.59,196.62 479.82,190.72 480.28,182.28 479.75,173.54 478.42,166.07 476.24,158.70 472.84,150.39 468.45,141.89 454.54,121.10 448.72,114.42 442.55,108.61 435.65,103.30 428.06,98.51 418.27,93.44 408.09,89.25 399.26,86.69 390.97,85.17 385.19,84.78 379.91,85.10 375.66,85.94 371.71,87.33 368.05,89.24 364.74,91.66 361.88,94.54 359.49,97.81 357.62,101.44 356.27,105.32 355.45,109.45 355.21,113.68 355.58,117.98 356.53,122.23 358.07,126.41 360.19,130.34 362.90,133.86 366.28,137.09 371.59,140.72 377.65,144.10 393.38,151.92 394.61,152.98 396.79,155.22 398.30,157.33 399.46,159.65 400.48,162.88 401.07,166.25 401.18,169.08 400.91,171.85 400.21,174.64 399.13,177.33 397.66,179.92 395.84,182.32 393.71,184.51 391.22,186.48 387.75,188.55 384.00,190.24 380.81,191.31 377.19,192.09 359.57,193.51 339.67,192.92 320.49,190.24 302.87,186.14 284.98,179.88 266.57,171.34 250.97,161.95 247.41,159.15 244.49,156.26 241.77,152.82 239.52,149.17 238.00,145.86 236.88,142.46 236.06,138.87 235.62,135.10 235.62,130.43 236.13,125.79 237.01,122.07 238.35,118.47 240.52,114.18 243.22,109.97 246.32,106.05 250.00,102.24 262.02,92.62 314.45,57.86 326.62,51.27 339.82,46.06 353.77,42.43 368.27,40.36 383.17,40.00 401.32,41.66 419.53,45.18 434.59,49.57 452.35,56.77 466.81,64.06 480.59,72.93 493.41,83.39 505.05,95.38 515.24,108.80 525.54,126.36 531.89,137.88 539.47,151.60 545.63,159.86 551.88,166.70 558.32,172.58 565.05,177.59 571.32,181.29 577.82,184.22 584.69,186.48 591.75,187.98 598.80,188.62 605.86,188.47 612.62,187.60 619.52,185.90 628.05,182.74 637.58,178.15 677.25,153.54 688.75,147.82 693.50,146.18 698.24,145.07 703.18,144.48 708.16,144.42 713.20,144.92 718.02,145.90 721.77,147.09 725.24,148.64 728.45,150.48 731.49,152.71 734.66,155.73 737.69,159.31 741.19,164.43 744.38,170.10 749.46,182.63 759.03,211.10 759.75,214.93 760.00,218.21 760.00,221.86 759.64,225.49 758.89,229.10 757.76,232.63 756.25,236.02 754.38,239.25 752.12,242.28 749.54,245.08 746.67,247.63 743.54,249.86 740.17,251.76 736.59,253.33 728.83,255.44 697.53,259.28 661.38,261.62 612.39,262.18 532.45,262.01 334.28,266.48 221.25,272.23 66.73,282.66 61.11,282.62 57.15,282.16 53.51,281.25 50.28,279.95 47.96,278.65 45.92,277.02 43.85,274.75 42.12,272.13 40.93,269.28 40.21,266.26 40.00,263.02 40.29,259.72 41.06,256.29 42.28,252.90 43.94,249.43 46.05,245.98 52.67,237.92 65.84,225.91 79.97,215.73 96.26,206.40 112.22,199.33 129.58,193.74 150.86,189.54 167.61,187.98 184.84,188.30 205.35,190.93 225.95,195.58 255.47,204.80 313.43,224.07 339.78,229.14"
        fill="none"
        stroke="#e94560"
        stroke-width="8.0"
        stroke-linejoin="round"
        stroke-linecap="round"/>
  <!-- Start/finish line -->
  <line x1="343.56" y1="209.50" x2="336.00" y2="248.78"
        stroke="#f5f5f5" stroke-width="9.6"
        stroke-linecap="round"/>
</svg>
