<?xml version="1.0" encoding="utf-8"?>
<svg xmlns="http://www.w3.org/2000/svg"
     width="741.8" height="800.0"
     viewBox="0 0 741.8 800.0">
  <rect width="100%" height="100%" fill="#1a1a2e"/>
  <!-- Track outline -->
  <polyline points="489.85,403.17 481.79,409.49 480.93,410.33 466.34,424.34 454.35,436.75 437.32,454.45 396.83,494.45 216.08,726.45 206.44,736.05 196.07,744.56 184.58,751.52 171.75,756.69 164.76,758.40 157.56,759.52 142.32,760.00 130.33,758.78 117.79,756.36 105.10,752.15 92.58,746.45 80.92,739.49 70.55,731.75 61.46,723.70 51.64,712.16 47.77,705.84 44.60,699.22 42.24,692.52 40.64,685.66 40.00,678.71 40.05,672.34 41.12,665.69 43.10,659.25 45.94,653.34 49.68,647.20 59.72,636.24 106.74,590.44 116.07,580.96 123.79,569.83 132.14,557.80 140.46,542.98 147.26,523.85 150.95,498.22 150.95,468.29 152.58,431.25 158.51,402.31 163.16,388.70 169.84,375.56 178.52,363.25 189.25,352.60 219.56,327.64 240.52,313.09 258.62,297.48 274.24,274.75 286.30,244.21 302.95,208.57 328.27,174.18 384.98,111.48 424.51,75.84 448.29,57.50 459.50,50.19 470.70,44.66 479.29,41.96 488.52,40.20 497.84,40.00 506.69,40.92 512.86,42.29 518.56,44.25 529.44,49.71 561.56,72.10 586.28,86.47 608.60,93.62 634.36,98.95 657.23,104.53 673.68,113.29 683.79,122.84 693.09,135.86 697.33,145.98 700.79,156.60 701.84,169.87 701.58,177.85 699.72,187.68 696.81,196.72 692.28,206.53 685.10,217.18 677.40,227.52 663.59,244.26 622.70,289.30 584.85,327.15 543.89,360.83 489.85,403.17"
        fill="none"
        stroke="#e94560"
        stroke-width="8.0"
        stroke-linejoin="round"
        stroke-linecap="round"/>
  <!-- Start/finish line -->
  <line x1="502.19" y1="418.91" x2="477.52" y2="387.43"
        stroke="#f5f5f5" stroke-width="9.6"
        stroke-linecap="round"/>
</svg>
