<?xml version="1.0" encoding="utf-8"?>
<svg xmlns="http://www.w3.org/2000/svg"
     width="800.0" height="474.2"
     viewBox="0 0 800.0 474.2">
  <rect width="100%" height="100%" fill="#1a1a2e"/>
  <!-- Track outline -->
  <polyline points="757.14,284.96 759.25,272.58 760.00,265.52 759.88,259.28 757.87,242.57 753.15,221.70 717.38,130.35 685.03,65.87 680.19,56.90 677.21,52.35 673.68,48.23 670.54,45.64 667.01,43.39 663.30,41.68 657.08,40.31 650.66,40.00 644.68,40.45 638.70,41.56 625.83,45.33 615.57,50.03 610.63,53.04 605.95,56.57 601.75,60.74 597.92,65.39 591.46,75.71 586.61,87.37 584.83,93.34 583.55,100.34 582.96,137.35 586.27,194.46 585.19,226.94 582.03,248.75 579.38,259.78 575.69,270.92 570.93,281.90 565.29,292.31 558.76,301.84 551.63,310.44 543.89,318.01 532.96,326.26 527.31,329.34 521.49,331.69 515.68,333.18 509.80,333.89 503.92,333.84 498.14,332.99 492.67,331.31 487.48,328.86 482.84,325.78 478.73,321.97 475.36,317.39 472.65,312.20 470.66,306.39 469.12,300.25 466.41,287.26 462.49,274.69 456.86,262.72 449.52,251.29 423.93,220.07 419.20,215.63 414.81,212.34 409.90,209.33 404.77,206.98 399.34,205.41 393.77,204.56 388.07,204.42 382.34,204.85 370.58,206.81 358.48,210.13 346.30,215.28 334.34,221.84 323.62,229.93 319.00,234.46 314.91,239.41 311.54,244.70 308.85,250.39 306.96,256.53 305.71,263.00 304.83,276.85 305.95,287.73 313.08,323.22 313.37,330.12 312.82,336.10 311.54,341.86 309.50,347.19 307.77,350.37 305.73,353.33 303.27,355.96 299.83,358.60 295.86,360.80 291.86,362.44 288.26,363.36 284.61,363.79 280.94,363.83 275.26,363.15 269.59,361.65 263.83,359.35 258.26,356.32 252.83,352.62 247.78,348.26 243.18,343.00 239.19,337.35 234.04,327.68 230.41,316.92 228.51,305.25 223.34,242.35 219.39,224.71 213.71,208.47 204.09,188.96 191.76,169.54 172.49,145.46 154.55,126.18 145.25,118.64 125.14,106.69 114.99,102.71 101.65,99.51 95.19,98.82 88.78,98.84 82.62,99.65 76.58,101.19 70.68,103.47 65.01,106.38 59.72,109.80 54.82,113.76 50.54,118.05 46.81,122.79 43.85,127.70 41.62,132.94 40.36,138.41 40.00,144.10 40.71,150.13 42.23,156.20 44.28,162.17 47.38,168.86 71.88,208.50 77.60,219.71 82.36,231.66 86.01,244.32 88.44,257.43 96.28,358.00 98.92,368.46 104.15,381.26 111.08,392.88 115.23,397.95 119.75,402.57 124.49,406.77 129.54,410.52 140.73,416.44 146.16,418.77 153.03,420.76 223.85,427.80 627.37,433.94 687.26,434.23 693.36,433.49 698.27,432.31 703.41,430.55 708.34,428.27 712.96,425.45 717.32,422.09 721.39,418.15 725.10,413.79 731.30,404.09 733.63,399.66 735.94,393.52 748.81,333.77 757.14,284.96"
        fill="none"
        stroke="#e94560"
        stroke-width="8.0"
        stroke-linejoin="round"
        stroke-linecap="round"/>
  <!-- Start/finish line -->
  <line x1="737.43" y1="281.59" x2="776.86" y2="288.32"
        stroke="#f5f5f5" stroke-width="9.6"
        stroke-linecap="round"/>
</svg>
