<?xml version="1.0" encoding="utf-8"?>
<svg xmlns="http://www.w3.org/2000/svg"
     width="515.7" height="800.0"
     viewBox="0 0 515.7 800.0">
  <rect width="100%" height="100%" fill="#1a1a2e"/>
  <!-- Track outline -->
  <polyline points="83.53,535.01 85.81,540.59 89.96,550.74 97.57,574.50 113.72,643.74 131.58,723.41 135.45,733.04 139.34,739.50 144.98,746.64 150.87,752.33 155.22,755.58 159.61,757.82 165.02,759.28 170.21,759.89 173.34,760.00 176.22,759.67 178.94,758.87 181.53,757.76 183.82,756.55 185.97,755.09 187.84,753.49 189.56,751.64 190.96,749.82 192.28,747.36 194.74,740.79 196.45,731.88 195.68,714.55 191.77,692.22 145.63,545.22 141.75,529.91 139.87,518.21 139.82,511.47 140.56,505.37 141.95,498.97 143.97,493.01 146.90,487.22 150.37,482.17 154.39,477.81 158.78,474.33 163.76,471.51 168.92,469.56 174.16,468.37 179.46,467.98 184.64,468.31 190.24,469.67 199.63,473.61 210.57,480.10 231.38,497.81 251.53,514.98 259.70,519.75 267.22,522.62 276.68,524.66 285.80,525.24 291.76,524.58 297.23,523.01 302.10,520.80 306.64,517.76 309.31,515.50 311.81,512.91 314.02,509.60 316.09,505.13 317.82,499.94 318.72,494.61 318.57,489.45 317.62,484.18 316.15,478.97 311.74,469.03 305.27,459.34 291.11,445.11 272.32,430.26 224.18,398.39 180.15,368.25 171.59,360.00 165.43,351.75 160.39,342.42 156.77,332.71 155.54,326.03 155.22,319.52 155.60,313.42 156.66,307.65 158.54,302.08 160.78,297.44 162.31,295.12 163.91,293.30 165.84,291.45 167.92,289.82 172.78,286.95 175.35,285.68 178.48,284.75 188.28,284.06 201.37,284.94 262.62,298.96 393.44,335.47 409.98,337.84 423.23,338.03 433.94,336.87 443.84,334.06 449.73,331.25 455.38,327.71 460.32,323.77 464.87,318.91 468.61,313.39 471.49,307.68 473.70,301.19 475.28,293.14 475.73,284.50 474.36,274.78 471.54,265.43 467.27,256.74 460.73,248.15 430.96,222.63 388.99,192.08 212.24,68.04 187.23,54.21 167.83,45.85 157.38,42.70 147.16,41.08 129.85,40.00 112.07,41.02 98.67,44.00 86.19,48.97 75.18,55.40 65.19,63.93 57.56,73.50 51.10,85.17 45.71,99.05 41.88,116.27 40.00,152.54 41.73,191.56 46.49,221.72 52.69,246.72 55.96,256.85 60.35,266.12 79.75,293.58 100.07,320.70 106.61,331.08 111.23,340.60 113.55,348.24 114.74,356.00 114.64,363.70 113.57,371.12 111.66,377.69 109.06,383.65 105.92,389.06 101.77,394.69 87.03,410.33 72.09,427.69 66.67,437.43 63.14,447.59 61.62,458.10 61.67,469.22 63.72,482.11 67.63,496.07 83.53,535.01"
        fill="none"
        stroke="#e94560"
        stroke-width="8.0"
        stroke-linejoin="round"
        stroke-linecap="round"/>
  <!-- Start/finish line -->
  <line x1="102.05" y1="527.45" x2="65.02" y2="542.58"
        stroke="#f5f5f5" stroke-width="9.6"
        stroke-linecap="round"/>
</svg>
