<?xml version="1.0" encoding="utf-8"?>
<svg xmlns="http://www.w3.org/2000/svg"
     width="800.0" height="648.7"
     viewBox="0 0 800.0 648.7">
  <rect width="100%" height="100%" fill="#1a1a2e"/>
  <!-- Track outline -->
  <polyline points="722.40,525.83 710.42,546.27 698.07,564.32 684.79,579.43 677.40,585.77 669.45,591.38 660.81,596.36 651.73,600.54 642.06,603.95 632.05,606.46 621.77,608.06 611.34,608.65 600.95,608.17 590.63,606.63 580.41,604.06 569.95,598.17 553.68,587.58 530.39,570.93 501.01,539.00 491.82,522.31 475.93,459.13 473.31,449.35 469.67,440.99 464.20,435.24 457.04,430.26 448.41,426.50 439.94,425.00 430.34,424.55 419.75,424.90 407.81,428.10 387.51,435.55 374.27,438.13 362.50,436.67 351.32,432.94 335.15,424.34 189.97,340.64 102.27,289.58 63.77,264.72 51.22,254.69 45.75,246.36 42.79,241.00 41.34,235.53 40.00,229.37 40.17,222.43 41.79,215.47 44.51,209.37 47.29,203.87 51.18,198.26 55.28,193.00 60.47,187.40 64.98,182.80 69.42,179.80 74.78,177.75 81.04,177.68 86.51,178.90 94.63,182.73 104.47,188.34 112.97,195.30 119.71,201.78 224.75,319.68 265.65,352.10 288.88,368.79 308.07,381.12 314.23,382.93 319.77,383.62 325.24,383.48 331.02,382.40 336.80,380.45 342.06,377.91 346.50,375.06 350.49,371.64 353.86,367.71 356.58,362.87 358.58,357.47 359.64,352.17 359.78,347.99 359.20,343.88 357.96,339.74 355.45,334.34 351.97,328.84 348.08,323.89 341.93,318.11 335.01,313.20 318.36,304.63 234.72,267.26 218.28,257.58 209.78,251.03 203.59,245.35 200.22,240.20 198.15,235.36 196.40,228.84 195.95,223.31 195.95,217.49 196.81,211.60 197.74,206.17 199.08,200.98 200.91,197.15 203.42,193.49 207.03,191.02 210.85,189.10 215.46,188.55 221.17,188.48 225.75,189.03 231.08,190.77 237.61,194.01 244.56,198.68 307.63,242.32 358.03,269.94 374.78,283.07 390.30,298.43 402.58,314.66 411.15,331.00 418.68,350.85 426.56,369.06 429.07,372.55 431.58,375.16 434.54,377.25 438.77,379.20 443.56,380.56 448.13,381.29 451.47,381.46 454.67,381.19 458.07,380.35 463.68,377.95 469.77,374.36 475.45,369.94 484.05,360.29 491.34,348.86 497.22,334.93 501.01,321.98 501.87,317.06 502.04,312.29 501.42,302.72 499.84,293.28 498.39,288.68 496.33,284.29 491.55,276.04 485.97,267.96 478.41,259.74 468.53,251.34 456.73,243.40 446.14,238.39 434.64,235.25 424.70,234.31 416.55,233.89 408.22,232.53 401.07,230.03 393.84,225.15 387.55,218.39 383.00,209.06 378.91,197.01 375.02,188.23 370.55,181.82 364.32,177.26 355.83,174.27 347.71,173.71 339.42,176.08 330.81,181.41 321.63,187.88 313.10,190.43 303.33,188.96 294.79,185.27 288.70,180.47 285.30,174.82 283.85,167.51 283.89,158.98 284.06,149.82 282.89,141.94 280.86,135.22 277.25,130.38 272.43,126.17 265.10,121.92 255.64,117.67 247.49,115.16 238.30,114.26 218.93,117.70 195.23,121.53 172.63,124.22 164.99,123.52 158.45,121.60 153.15,119.31 147.92,116.35 143.49,112.86 140.01,109.24 136.12,104.19 133.13,98.44 131.00,90.89 130.89,83.71 133.30,77.44 137.47,71.62 142.18,67.90 149.23,62.22 155.87,57.66 163.72,53.37 172.08,49.16 180.50,45.57 191.58,42.09 208.47,40.00 223.78,40.77 244.70,44.84 264.76,51.21 286.36,59.85 306.70,69.12 327.06,80.30 530.53,211.36 567.37,240.20 581.82,254.37 590.08,265.17 597.00,276.42 600.33,284.36 602.43,292.20 603.74,300.31 604.15,308.50 603.64,316.68 602.22,324.73 599.78,332.70 596.82,339.95 592.39,348.10 557.81,396.13 550.83,406.75 546.32,417.65 543.19,432.04 543.08,444.61 545.94,458.78 550.62,471.25 556.64,482.57 563.28,491.98 566.65,495.74 570.30,498.84 576.53,503.30 583.75,507.06 589.32,508.80 595.28,509.91 601.19,510.33 607.11,509.98 613.03,508.90 618.67,507.13 624.04,504.65 629.13,501.45 633.84,497.51 640.93,488.46 646.30,479.05 648.29,474.39 649.74,469.69 653.42,453.56 657.86,422.70 663.88,391.84 666.66,384.95 669.76,379.41 673.41,374.74 677.40,371.05 681.83,368.02 686.58,365.69 691.85,364.05 697.45,363.14 702.96,362.76 710.32,363.11 717.75,364.71 724.46,367.04 731.38,370.28 737.60,374.15 745.00,381.32 750.50,388.43 752.29,391.29 753.60,394.18 755.36,398.67 756.94,404.21 759.00,417.51 760.00,431.90 759.48,441.40 758.04,450.43 752.60,469.37 744.35,488.32 722.40,525.83"
        fill="none"
        stroke="#e94560"
        stroke-width="8.0"
        stroke-linejoin="round"
        stroke-linecap="round"/>
  <!-- Start/finish line -->
  <line x1="739.66" y1="535.93" x2="705.14" y2="515.73"
        stroke="#f5f5f5" stroke-width="9.6"
        stroke-linecap="round"/>
</svg>
