<?xml version="1.0" encoding="utf-8"?>
<svg xmlns="http://www.w3.org/2000/svg"
     width="528.1" height="800.0"
     viewBox="0 0 528.1 800.0">
  <rect width="100%" height="100%" fill="#1a1a2e"/>
  <!-- Track outline -->
  <polyline points="49.88,500.52 54.08,650.95 55.09,712.51 58.22,724.81 62.89,734.94 69.97,744.86 77.30,752.46 80.40,754.75 83.35,756.30 86.51,757.72 89.79,758.79 93.16,759.52 96.63,759.90 100.13,760.00 103.93,759.65 110.41,758.41 118.20,755.33 140.44,737.74 164.24,717.48 177.31,708.29 190.50,700.89 209.40,693.53 230.23,688.00 280.97,682.64 338.43,683.02 393.93,681.85 414.97,677.70 432.21,671.51 445.80,664.22 457.74,655.23 467.92,644.86 476.36,633.11 482.49,620.56 486.57,607.81 487.96,597.44 488.11,588.59 487.96,585.34 487.37,582.23 485.01,574.59 481.91,567.16 479.89,563.88 477.71,561.18 475.35,558.66 472.52,556.27 466.48,552.57 460.13,549.70 456.79,548.98 453.66,548.84 450.31,549.12 446.97,549.84 443.50,551.05 440.07,552.68 436.66,554.54 432.95,557.34 421.75,569.89 410.98,582.26 408.22,584.61 405.71,586.17 402.79,587.52 399.70,588.45 396.35,589.00 392.89,589.14 389.14,588.90 385.34,588.24 381.20,587.38 377.06,585.76 373.65,583.44 370.28,580.43 367.24,577.08 363.47,571.13 360.64,565.08 359.35,561.73 358.59,557.86 357.94,545.76 359.32,528.00 382.36,435.05 405.06,339.16 406.05,316.97 404.14,299.14 400.65,283.45 395.12,269.03 387.18,255.55 377.33,243.52 365.55,233.01 352.42,224.34 337.85,217.32 322.45,212.59 306.25,210.48 289.90,210.93 273.79,214.04 258.15,219.50 243.09,227.00 228.94,236.51 215.91,247.98 204.25,261.25 194.19,275.94 185.75,293.05 177.44,318.94 171.64,350.16 167.59,415.35 169.00,473.56 171.48,485.90 174.64,494.36 176.58,498.03 178.69,500.97 181.09,503.83 183.72,506.39 186.61,508.67 189.68,510.64 193.05,512.37 196.61,513.69 200.35,514.48 204.16,514.83 207.75,514.86 211.30,514.52 214.71,513.79 218.05,512.72 221.30,511.27 224.40,509.43 227.38,507.36 230.32,504.66 234.83,498.93 238.91,492.01 241.67,485.10 243.61,476.49 244.22,448.22 245.51,418.91 249.56,406.26 254.38,396.99 256.89,393.71 259.50,391.22 262.23,388.90 265.08,386.93 268.03,385.34 271.13,384.13 274.35,383.30 277.66,382.86 281.13,382.75 284.62,383.10 288.03,383.96 291.31,385.21 294.41,386.66 297.35,388.42 300.05,390.32 302.78,392.78 307.48,398.20 311.74,404.84 314.35,412.06 315.79,419.77 316.28,427.06 315.39,435.88 305.02,472.66 290.58,512.44 282.35,531.21 273.49,546.80 264.13,558.93 253.64,569.20 241.80,578.05 229.01,584.96 215.45,589.70 201.43,592.15 187.28,592.15 173.29,589.76 159.92,585.03 147.31,578.15 135.68,569.16 125.38,558.31 116.66,545.80 109.67,531.94 104.70,517.66 101.20,500.93 96.32,422.12 92.61,247.81 94.79,229.11 98.50,213.80 104.76,195.37 113.04,178.05 122.83,163.95 133.87,151.92 144.40,143.04 155.59,135.85 167.65,130.11 180.23,125.93 193.23,123.27 206.58,122.09 235.54,124.17 257.38,128.73 278.49,132.39 286.46,132.43 293.67,131.67 300.45,130.01 309.90,125.58 317.48,120.47 319.96,118.19 321.96,115.80 324.50,112.31 326.84,108.47 328.62,104.81 330.03,101.04 330.98,97.31 331.50,93.51 331.59,89.71 331.25,85.87 330.58,82.07 329.29,78.13 325.67,71.56 320.82,65.13 315.49,59.91 308.64,55.35 292.17,48.30 271.22,42.94 234.86,40.00 197.22,41.14 171.67,44.63 148.26,50.78 127.95,58.94 109.06,69.59 91.14,83.21 75.22,98.83 63.35,113.80 53.44,130.56 45.58,155.66 41.38,182.93 40.00,212.27 40.15,235.05 41.01,251.96 42.70,286.18 46.07,365.19 49.88,500.52"
        fill="none"
        stroke="#e94560"
        stroke-width="8.0"
        stroke-linejoin="round"
        stroke-linecap="round"/>
  <!-- Start/finish line -->
  <line x1="69.87" y1="499.96" x2="29.89" y2="501.08"
        stroke="#f5f5f5" stroke-width="9.6"
        stroke-linecap="round"/>
</svg>
