<?xml version="1.0" encoding="utf-8"?>
<svg xmlns="http://www.w3.org/2000/svg"
     width="800.0" height="344.2"
     viewBox="0 0 800.0 344.2">
  <rect width="100%" height="100%" fill="#1a1a2e"/>
  <!-- Track outline -->
  <polyline points="650.36,67.14 642.08,67.59 615.90,70.58 593.14,71.81 262.89,47.53 118.79,40.00 102.38,40.68 94.48,41.88 86.77,43.77 79.49,46.36 72.62,49.77 66.43,54.06 60.80,59.15 55.91,64.70 51.65,70.94 47.98,78.44 45.00,86.45 42.50,94.37 40.73,102.42 40.00,110.48 40.03,118.59 40.35,126.06 41.82,135.24 76.85,242.69 90.62,271.88 99.50,285.09 104.58,291.06 110.23,296.16 116.94,299.86 124.16,302.39 131.96,303.88 139.89,304.21 147.44,303.33 154.80,301.38 161.48,298.66 168.62,294.28 185.76,278.63 204.17,261.07 229.78,242.04 243.31,234.80 258.19,229.51 273.94,226.49 290.81,225.55 438.63,244.84 585.86,263.66 595.12,263.37 601.86,262.30 617.39,258.57 624.64,256.00 631.49,252.69 637.68,248.57 643.14,243.44 646.23,239.32 648.92,234.71 650.88,229.84 651.88,225.97 652.51,221.92 652.70,217.83 652.23,213.96 650.99,210.13 649.03,206.40 646.61,202.96 643.98,200.01 640.48,197.02 636.40,194.84 630.67,192.83 576.16,185.69 503.30,181.34 341.49,177.74 212.84,176.31 182.80,172.90 151.76,164.56 136.66,158.26 130.03,154.49 124.03,149.95 120.42,146.38 117.13,142.39 114.74,137.97 113.65,134.46 113.00,130.63 112.84,126.80 113.25,123.14 114.41,119.40 116.23,115.70 118.54,112.33 121.10,109.53 124.95,106.94 129.41,105.22 134.54,103.76 165.58,99.15 180.57,98.11 278.75,103.85 633.17,135.28 650.58,134.66 664.81,132.19 723.01,112.81 738.98,108.56 751.36,103.43 753.86,101.29 756.14,98.89 758.02,96.29 759.38,93.66 760.00,91.10 759.86,88.76 759.16,86.36 758.02,83.99 756.63,81.71 755.08,79.70 751.42,76.49 746.91,73.89 742.35,71.72 736.18,69.35 729.80,67.69 714.51,65.90 684.34,66.33 663.26,66.39 650.36,67.14"
        fill="none"
        stroke="#e94560"
        stroke-width="8.0"
        stroke-linejoin="round"
        stroke-linecap="round"/>
  <!-- Start/finish line -->
  <line x1="651.49" y1="87.11" x2="649.23" y2="47.17"
        stroke="#f5f5f5" stroke-width="9.6"
        stroke-linecap="round"/>
</svg>
