<?xml version="1.0" encoding="utf-8"?>
<svg xmlns="http://www.w3.org/2000/svg"
     width="800.0" height="519.6"
     viewBox="0 0 800.0 519.6">
  <rect width="100%" height="100%" fill="#1a1a2e"/>
  <!-- Track outline -->
  <polyline points="431.02,90.38 720.29,139.96 730.20,141.90 738.17,144.15 744.17,147.16 749.60,151.19 753.55,155.27 756.67,159.89 758.31,164.62 759.59,169.24 760.00,174.34 759.75,179.17 759.14,184.60 758.27,190.24 756.05,199.10 752.85,210.76 749.11,222.79 742.82,241.05 734.35,264.04 722.72,294.93 713.75,317.06 703.35,339.29 695.09,354.33 690.65,361.91 686.34,367.92 682.14,372.49 677.37,375.71 672.69,377.27 666.97,378.02 661.63,377.59 655.79,376.89 651.27,375.55 646.54,373.72 641.90,371.25 637.70,368.25 633.88,364.70 630.14,360.24 626.89,355.09 624.22,348.75 622.66,342.03 621.47,334.73 620.44,326.30 619.86,317.22 620.60,310.07 622.95,302.39 626.28,294.44 630.59,285.42 633.92,276.82 636.31,267.59 638.53,254.26 638.77,242.39 637.91,232.08 636.18,223.70 633.14,216.61 628.91,210.33 622.66,205.22 615.22,200.66 606.92,197.97 596.47,195.72 198.59,129.11 190.62,128.25 182.68,127.88 176.40,128.14 170.15,129.92 165.30,132.07 161.19,135.29 157.73,139.26 155.27,143.18 152.92,147.32 150.99,152.32 149.43,158.55 127.97,339.13 127.93,346.38 129.24,353.96 131.18,360.46 134.14,367.44 138.99,372.92 146.72,377.86 153.54,380.12 161.97,381.30 169.45,381.41 177.42,380.22 184.95,377.81 191.52,374.53 196.13,369.54 200.28,362.34 202.66,354.60 204.35,347.19 215.86,251.79 217.46,244.44 220.26,238.37 224.49,231.97 230.41,226.28 236.86,222.95 244.84,221.07 254.99,220.48 271.48,221.45 494.24,260.12 505.30,263.07 513.93,266.35 522.23,271.45 530.13,278.38 534.94,285.53 539.75,294.60 543.36,303.79 545.71,313.57 547.02,324.63 547.72,334.84 547.84,344.13 546.90,352.83 545.01,362.50 541.84,370.72 537.36,377.97 530.83,383.66 523.80,388.07 515.78,391.50 506.37,394.30 493.42,397.14 91.34,478.63 81.93,479.49 74.57,479.59 66.39,477.98 58.58,474.55 51.84,469.39 45.71,463.16 41.97,455.32 40.21,447.64 40.00,440.28 40.82,431.74 83.66,63.63 87.56,52.84 93.32,45.64 100.22,41.50 107.62,40.11 117.32,40.00 133.52,42.04 431.02,90.38"
        fill="none"
        stroke="#e94560"
        stroke-width="8.0"
        stroke-linejoin="round"
        stroke-linecap="round"/>
  <!-- Start/finish line -->
  <line x1="434.31" y1="70.66" x2="427.72" y2="110.11"
        stroke="#f5f5f5" stroke-width="9.6"
        stroke-linecap="round"/>
</svg>
