<?xml version="1.0" encoding="utf-8"?>
<svg xmlns="http://www.w3.org/2000/svg"
     width="500.4" height="800.0"
     viewBox="0 0 500.4 800.0">
  <rect width="100%" height="100%" fill="#1a1a2e"/>
  <!-- Track outline -->
  <polyline points="59.08,347.93 54.19,369.88 46.25,437.56 40.00,536.74 42.51,581.56 50.41,621.66 61.72,659.04 69.92,674.52 79.23,687.06 102.39,710.33 129.59,732.03 164.01,748.77 178.04,754.34 191.98,758.28 206.85,759.90 221.60,760.00 247.27,757.67 276.04,752.01 290.23,746.90 304.77,739.92 325.59,727.28 344.76,713.52 353.47,706.13 361.63,697.58 379.01,676.34 396.91,649.58 414.25,615.34 428.91,575.13 451.90,440.13 460.44,300.64 453.60,232.66 443.66,177.37 440.30,163.82 435.62,151.78 420.49,122.34 399.58,92.70 371.41,69.13 344.38,52.75 334.73,48.75 326.02,46.37 306.81,41.67 284.41,40.00 259.12,41.06 234.14,44.25 222.96,47.79 213.31,52.14 196.44,61.55 186.58,68.78 175.70,78.49 150.92,104.74 126.87,135.14 114.97,155.62 105.19,177.48 81.86,245.45 59.08,347.93"
        fill="none"
        stroke="#e94560"
        stroke-width="8.0"
        stroke-linejoin="round"
        stroke-linecap="round"/>
  <!-- Start/finish line -->
  <line x1="78.61" y1="352.27" x2="39.56" y2="343.59"
        stroke="#f5f5f5" stroke-width="9.6"
        stroke-linecap="round"/>
</svg>
