<?xml version="1.0" encoding="utf-8"?>
<svg xmlns="http://www.w3.org/2000/svg"
     width="569.7" height="800.0"
     viewBox="0 0 569.7 800.0">
  <rect width="100%" height="100%" fill="#1a1a2e"/>
  <!-- Track outline -->
  <polyline points="61.99,500.05 70.61,537.91 90.49,597.83 114.66,656.64 126.49,676.21 139.17,691.92 154.93,707.80 172.15,721.71 188.68,732.19 205.91,740.77 223.91,747.72 242.75,753.13 285.75,760.00 326.51,759.57 348.08,757.17 369.44,752.87 389.96,745.75 409.78,736.82 428.69,726.95 446.48,715.36 462.80,701.28 477.50,685.40 490.60,668.14 501.53,649.43 509.16,630.28 515.04,607.45 524.29,550.62 529.68,483.06 521.49,317.20 504.75,232.47 497.74,211.69 488.57,191.95 467.70,155.89 443.68,122.07 427.85,106.02 411.88,92.80 396.05,80.35 379.39,69.36 360.34,60.26 340.45,53.13 301.79,44.29 262.08,40.00 222.72,42.49 182.87,50.99 162.07,58.37 142.32,67.99 125.37,79.40 110.03,92.80 96.24,108.16 84.05,124.90 73.83,141.64 65.21,159.33 58.35,177.18 52.82,198.47 43.92,254.96 40.00,323.12 61.99,500.05"
        fill="none"
        stroke="#e94560"
        stroke-width="8.0"
        stroke-linejoin="round"
        stroke-linecap="round"/>
  <!-- Start/finish line -->
  <line x1="81.79" y1="497.23" x2="42.19" y2="502.88"
        stroke="#f5f5f5" stroke-width="9.6"
        stroke-linecap="round"/>
</svg>
