<?xml version="1.0" encoding="utf-8"?>
<svg xmlns="http://www.w3.org/2000/svg"
     width="521.7" height="800.0"
     viewBox="0 0 521.7 800.0">
  <rect width="100%" height="100%" fill="#1a1a2e"/>
  <!-- Track outline -->
  <polyline points="120.89,372.58 118.89,374.80 115.88,378.14 111.45,383.17 106.90,388.50 102.54,393.49 88.47,410.53 86.06,412.63 84.20,413.86 82.79,415.21 81.45,416.96 80.00,419.34 78.63,421.95 77.14,425.59 76.25,428.90 75.94,431.98 75.76,434.98 75.31,437.53 73.66,442.93 71.14,449.73 46.71,510.21 41.68,529.93 40.00,547.85 41.82,597.69 44.09,645.04 44.67,692.51 44.96,754.18 45.10,755.30 45.35,756.10 45.72,756.95 46.21,757.83 46.78,758.57 47.34,759.05 47.96,759.44 48.50,759.72 48.86,759.85 49.22,759.91 49.77,759.99 50.42,760.00 51.76,759.89 53.17,759.65 55.21,759.01 57.50,757.93 70.33,749.88 82.07,743.89 107.00,733.42 129.42,725.44 156.56,717.07 225.05,696.20 237.39,693.39 245.24,692.46 252.89,692.61 278.25,694.96 298.56,693.99 318.54,692.34 330.93,692.33 347.53,693.37 350.40,693.17 352.98,692.66 356.63,691.53 360.56,689.71 366.88,685.50 372.79,680.63 375.67,677.74 378.43,674.17 396.48,642.98 400.68,636.20 402.22,634.34 403.82,632.78 405.55,631.43 407.38,630.33 409.26,629.51 411.21,628.95 413.14,628.69 415.16,628.69 417.60,628.98 420.45,629.64 434.92,634.74 437.85,635.18 440.47,635.19 443.21,634.85 445.61,634.20 447.90,633.38 448.94,632.85 449.88,632.24 452.51,630.11 455.04,627.41 457.66,623.78 459.93,619.66 461.85,614.98 463.33,609.61 465.33,589.90 465.10,561.15 464.48,541.44 464.82,523.09 467.57,490.33 472.17,424.17 475.79,367.26 480.14,309.28 481.66,273.26 479.91,242.73 468.48,157.69 462.85,119.31 453.03,61.39 451.53,55.69 449.94,51.45 448.38,48.39 446.63,45.79 444.92,43.85 443.10,42.27 442.32,41.72 441.47,41.23 439.98,40.60 438.50,40.13 437.84,40.01 437.16,40.00 435.68,40.16 434.09,40.59 432.58,41.39 431.18,42.49 429.87,43.92 428.65,45.54 425.95,49.49 418.37,61.58 411.87,69.99 402.22,80.35 392.30,89.39 374.99,102.91 343.89,124.61 300.50,154.65 273.54,175.63 259.79,189.14 242.46,211.77 203.49,272.17 188.95,292.53 171.05,315.12 148.13,341.69 141.74,348.95 134.63,356.81 120.89,372.58"
        fill="none"
        stroke="#e94560"
        stroke-width="8.0"
        stroke-linejoin="round"
        stroke-linecap="round"/>
  <!-- Start/finish line -->
  <line x1="135.94" y1="385.75" x2="105.85" y2="359.40"
        stroke="#f5f5f5" stroke-width="9.6"
        stroke-linecap="round"/>
</svg>
