<?xml version="1.0" encoding="utf-8"?>
<svg xmlns="http://www.w3.org/2000/svg"
     width="800.0" height="299.2"
     viewBox="0 0 800.0 299.2">
  <rect width="100%" height="100%" fill="#1a1a2e"/>
  <!-- Track outline -->
  <polyline points="122.36,41.88 134.06,40.00 173.67,40.90 213.90,45.35 295.26,61.84 460.09,70.57 602.49,54.76 667.62,54.76 721.06,59.28 732.47,61.31 741.65,63.87 748.98,68.09 752.33,71.25 755.30,75.02 757.71,79.16 759.33,83.45 760.00,87.74 758.77,93.99 755.64,100.77 751.61,107.09 746.07,114.32 742.26,117.64 728.72,120.87 700.35,121.10 664.60,118.54 604.95,108.30 549.56,100.24 539.94,100.62 531.49,102.58 517.84,106.94 502.51,113.34 490.53,121.48 486.17,127.12 482.98,133.52 480.80,140.15 479.45,146.48 478.84,151.45 478.84,156.27 479.56,160.93 481.13,165.53 484.71,171.10 489.86,176.67 495.68,181.72 501.27,185.71 506.65,188.65 512.13,190.68 518.06,192.11 529.08,193.24 543.24,192.71 609.43,180.29 679.32,170.20 695.93,171.78 709.87,175.24 721.06,180.51 725.92,184.20 729.90,188.50 733.14,193.24 735.88,198.13 738.12,203.41 739.91,208.98 740.92,214.70 740.81,220.42 739.02,227.20 735.72,234.35 731.63,240.98 727.49,246.33 723.74,249.94 719.77,252.58 715.01,254.76 702.20,257.85 686.65,259.20 632.82,257.77 578.38,252.20 539.49,244.67 500.66,233.30 463.17,216.73 427.86,195.50 370.12,150.17 311.93,107.47 298.89,100.99 287.65,96.93 276.57,94.97 268.62,94.67 260.62,95.42 253.01,97.00 246.24,99.49 241.93,101.67 237.85,104.31 234.10,107.40 231.02,110.86 228.73,114.77 227.22,120.20 226.77,126.60 227.11,133.37 228.06,139.70 229.40,144.97 230.80,148.36 232.53,151.30 234.77,153.86 237.51,156.42 244.23,161.16 252.73,165.45 262.80,169.37 284.51,173.36 309.92,176.37 328.60,181.64 331.91,184.05 334.42,186.61 337.95,192.41 339.12,195.72 340.07,199.72 340.86,209.13 340.47,213.87 339.52,218.24 337.78,221.85 334.31,225.24 329.56,227.95 324.02,230.06 318.25,231.72 312.71,233.15 299.73,235.26 285.86,235.56 266.72,234.20 247.08,230.14 233.88,225.24 221.06,218.99 210.32,211.91 201.59,203.10 194.82,193.16 188.67,181.57 183.69,168.47 181.39,156.04 179.77,142.56 175.91,130.89 171.94,125.39 167.01,120.12 161.53,115.53 156.05,111.99 151.01,109.96 144.80,109.80 138.81,111.76 122.36,126.67 115.87,160.71 109.66,174.56 104.96,179.76 99.70,184.35 94.27,187.97 89.24,190.23 85.77,190.98 82.36,191.06 78.94,190.60 75.53,189.70 72.17,188.42 66.47,185.41 60.65,181.19 55.16,176.22 50.63,170.72 46.10,161.99 42.97,152.12 40.95,142.49 40.00,131.27 41.06,119.74 43.75,108.37 48.00,96.25 53.54,85.11 60.48,75.77 68.65,67.33 76.98,60.18 87.45,53.48 97.91,48.58 115.48,43.01 122.36,41.88"
        fill="none"
        stroke="#e94560"
        stroke-width="8.0"
        stroke-linejoin="round"
        stroke-linecap="round"/>
  <!-- Start/finish line -->
  <line x1="119.16" y1="22.14" x2="125.56" y2="61.62"
        stroke="#f5f5f5" stroke-width="9.6"
        stroke-linecap="round"/>
</svg>
