<?xml version="1.0" encoding="utf-8"?>
<svg xmlns="http://www.w3.org/2000/svg"
     width="534.9" height="800.0"
     viewBox="0 0 534.9 800.0">
  <rect width="100%" height="100%" fill="#1a1a2e"/>
  <!-- Track outline -->
  <polyline points="78.52,540.88 84.05,571.71 94.57,606.35 110.09,644.05 133.45,681.39 159.67,712.84 180.72,729.79 200.78,741.45 212.46,747.35 225.48,751.53 264.00,758.53 308.05,760.00 333.38,755.95 358.08,748.70 381.35,739.12 400.97,729.17 419.43,717.13 436.64,701.17 455.55,674.39 472.85,642.58 485.15,615.19 490.06,600.82 492.64,585.59 494.87,536.46 493.27,486.47 486.85,451.95 457.87,321.27 417.83,180.88 395.62,137.28 371.19,104.85 352.82,86.31 333.02,70.71 313.40,58.42 297.35,50.81 281.39,45.65 264.00,42.33 238.14,40.00 209.96,40.74 183.03,45.90 159.58,56.09 137.29,70.46 116.78,86.67 91.99,110.99 71.30,138.38 57.48,163.32 47.49,192.06 40.71,236.40 40.00,290.56 78.52,540.88"
        fill="none"
        stroke="#e94560"
        stroke-width="8.0"
        stroke-linejoin="round"
        stroke-linecap="round"/>
  <!-- Start/finish line -->
  <line x1="98.28" y1="537.78" x2="58.76" y2="543.98"
        stroke="#f5f5f5" stroke-width="9.6"
        stroke-linecap="round"/>
</svg>
