<?xml version="1.0" encoding="utf-8"?>
<svg xmlns="http://www.w3.org/2000/svg"
     width="800.0" height="792.6"
     viewBox="0 0 800.0 792.6">
  <rect width="100%" height="100%" fill="#1a1a2e"/>
  <!-- Track outline -->
  <polyline points="203.93,533.20 251.57,506.61 306.88,476.01 338.40,453.60 369.54,425.54 434.23,351.82 497.40,273.74 542.62,212.69 564.48,176.20 591.82,118.79 608.80,74.97 615.29,62.44 618.19,58.27 621.31,54.60 624.62,51.42 628.23,48.59 632.47,46.00 636.94,43.85 641.32,42.24 645.81,41.06 650.43,40.31 655.16,40.00 660.24,40.18 665.44,40.85 677.22,44.02 688.75,49.29 699.71,56.42 737.46,88.39 747.31,98.25 753.13,106.28 755.44,110.64 757.31,115.12 758.64,119.45 759.53,123.88 760.00,128.65 759.99,133.47 759.51,138.25 758.56,143.02 757.04,148.11 755.09,153.02 752.97,157.21 750.46,161.19 743.30,169.74 701.08,210.36 648.45,272.60 589.79,336.72 498.38,432.65 432.90,495.42 408.61,525.39 391.15,554.60 379.56,582.81 371.21,617.32 362.81,656.01 351.72,697.98 346.23,714.12 340.88,724.64 334.95,732.85 326.62,740.92 322.35,744.13 317.91,746.87 313.49,749.00 308.99,750.64 304.65,751.75 300.26,752.40 295.74,752.60 291.10,752.38 280.30,750.44 270.36,746.81 265.82,744.51 261.52,741.83 257.45,738.68 253.63,735.13 246.35,726.37 239.98,715.50 225.47,688.67 219.80,680.56 214.11,673.78 209.58,669.33 204.75,665.62 198.74,662.16 192.44,659.48 187.11,658.02 181.78,657.25 176.34,657.10 170.91,657.58 165.60,658.67 160.43,660.40 155.25,662.90 150.39,666.02 146.23,669.50 142.39,673.64 133.76,687.02 126.22,697.60 117.90,706.26 113.97,709.35 109.84,712.01 105.22,714.39 100.46,716.32 96.08,717.68 91.69,718.57 87.27,718.98 82.87,718.93 78.59,718.46 74.38,717.54 70.05,716.10 65.90,714.22 62.22,712.04 58.76,709.49 55.21,706.33 51.91,702.80 48.90,698.89 46.28,694.68 44.04,690.07 42.28,685.27 41.08,680.65 40.34,675.90 40.00,670.67 40.11,665.41 41.56,655.66 45.25,644.50 50.83,633.72 59.14,622.18 69.90,610.90 82.80,600.13 98.86,589.52 203.93,533.20"
        fill="none"
        stroke="#e94560"
        stroke-width="8.0"
        stroke-linejoin="round"
        stroke-linecap="round"/>
  <!-- Start/finish line -->
  <line x1="194.39" y1="515.62" x2="213.47" y2="550.77"
        stroke="#f5f5f5" stroke-width="9.6"
        stroke-linecap="round"/>
</svg>
