<?xml version="1.0" encoding="utf-8"?>
<svg xmlns="http://www.w3.org/2000/svg"
     width="496.5" height="800.0"
     viewBox="0 0 496.5 800.0">
  <rect width="100%" height="100%" fill="#1a1a2e"/>
  <!-- Track outline -->
  <polyline points="438.51,445.27 452.06,342.00 456.53,270.55 455.42,203.82 449.41,170.18 439.21,141.82 429.84,124.36 418.39,108.55 404.41,94.18 381.50,76.55 354.25,61.27 325.47,50.00 300.32,44.00 273.35,40.36 246.94,40.00 223.60,43.64 208.51,48.73 195.10,55.64 182.38,65.64 169.81,80.00 140.19,135.45 112.38,212.18 88.49,294.36 53.69,455.45 40.00,596.55 43.35,622.55 49.78,642.91 59.42,662.00 75.77,685.45 96.59,707.09 120.06,725.09 151.36,741.09 186.30,752.36 220.25,758.55 241.63,760.00 262.87,759.45 283.27,756.18 301.85,749.64 316.66,741.64 330.22,731.82 342.93,718.55 355.51,700.91 387.09,628.36 416.85,532.18 438.51,445.27"
        fill="none"
        stroke="#e94560"
        stroke-width="8.0"
        stroke-linejoin="round"
        stroke-linecap="round"/>
  <!-- Start/finish line -->
  <line x1="418.84" y1="441.63" x2="458.17" y2="448.91"
        stroke="#f5f5f5" stroke-width="9.6"
        stroke-linecap="round"/>
</svg>
