<?xml version="1.0" encoding="utf-8"?>
<svg xmlns="http://www.w3.org/2000/svg"
     width="800.0" height="494.9"
     viewBox="0 0 800.0 494.9">
  <rect width="100%" height="100%" fill="#1a1a2e"/>
  <!-- Track outline -->
  <polyline points="638.95,177.95 674.84,220.94 680.67,227.78 737.95,295.64 748.72,312.24 756.07,327.29 758.16,333.65 759.52,339.78 760.00,345.77 759.52,351.36 758.28,356.78 756.45,361.69 753.71,366.34 750.25,370.31 746.26,373.78 740.35,377.41 733.58,380.14 726.29,382.23 711.61,384.21 695.63,384.85 676.44,384.48 656.93,385.26 638.45,389.80 621.50,396.77 610.73,403.60 600.59,412.12 587.50,426.60 574.32,440.50 563.52,447.70 553.01,452.31 547.02,454.00 541.17,454.87 535.16,454.91 528.17,454.00 521.00,452.15 514.17,449.22 508.16,445.48 502.42,440.83 497.19,435.35 490.62,426.12 485.05,414.91 476.42,381.86 465.22,336.95 457.17,319.68 447.44,304.90 435.22,292.01 421.52,281.61 405.38,272.75 388.11,266.42 369.05,262.32 348.12,260.87 314.97,262.72 278.80,268.78 238.54,280.16 196.72,296.35 143.67,324.80 98.08,348.83 85.32,352.43 74.79,353.24 68.22,352.84 61.87,351.63 56.22,349.47 52.40,347.18 49.01,344.29 46.07,340.65 43.44,336.14 41.22,330.89 40.00,325.37 40.06,319.58 41.10,313.55 42.90,307.83 46.31,301.26 50.92,295.17 56.08,289.65 66.12,281.50 78.03,274.67 120.55,260.06 304.25,206.87 344.03,197.78 362.56,196.91 380.78,197.95 398.19,200.34 415.03,204.48 430.21,210.10 444.15,217.41 454.05,224.61 463.00,233.57 471.57,245.18 479.88,260.50 493.84,300.79 507.12,338.40 510.81,344.66 514.29,349.03 518.10,352.60 522.86,355.97 527.99,358.43 533.24,360.01 538.69,360.68 544.27,360.45 549.66,359.40 554.65,357.72 559.52,355.30 564.00,352.13 567.79,348.60 571.27,344.46 574.18,339.41 576.70,332.84 578.60,325.30 579.52,317.52 578.64,305.44 575.46,292.34 551.70,239.93 536.72,202.73 526.77,188.29 515.41,176.24 502.17,165.84 486.99,157.62 461.98,149.88 434.84,144.36 382.63,136.01 346.39,125.34 315.01,112.21 308.22,107.83 302.85,103.32 298.65,98.24 296.78,95.11 295.18,91.74 294.04,88.27 293.56,84.91 293.78,81.78 294.56,78.61 295.74,75.62 297.22,72.89 299.73,69.79 302.93,67.17 306.54,64.94 310.30,63.16 316.59,61.21 323.48,60.33 331.11,60.27 350.46,63.40 370.93,68.28 403.78,75.41 418.02,74.88 431.76,72.18 444.33,67.74 456.83,61.75 471.09,52.89 485.37,44.81 493.74,42.09 501.97,40.44 509.95,40.00 517.02,40.71 523.89,42.46 530.64,44.98 540.71,50.10 550.48,57.34 559.96,67.44 570.23,81.34 624.85,161.06 638.95,177.95"
        fill="none"
        stroke="#e94560"
        stroke-width="8.0"
        stroke-linejoin="round"
        stroke-linecap="round"/>
  <!-- Start/finish line -->
  <line x1="654.31" y1="165.14" x2="623.60" y2="190.77"
        stroke="#f5f5f5" stroke-width="9.6"
        stroke-linecap="round"/>
</svg>
