<?xml version="1.0" encoding="utf-8"?>
<svg xmlns="http://www.w3.org/2000/svg"
     width="800.0" height="478.9"
     viewBox="0 0 800.0 478.9">
  <rect width="100%" height="100%" fill="#1a1a2e"/>
  <!-- Track outline -->
  <polyline points="350.30,259.75 370.05,254.02 497.82,219.29 509.09,214.68 517.04,210.16 522.09,206.21 526.01,201.94 528.62,197.90 530.47,193.61 531.65,188.95 532.09,184.10 531.72,178.94 530.56,173.80 528.55,168.66 525.62,163.67 520.91,158.04 514.79,152.70 504.58,146.41 492.38,140.91 475.40,135.59 457.09,131.79 439.13,129.64 419.82,129.32 358.04,137.75 235.43,167.06 188.53,184.25 176.40,190.64 166.40,197.31 159.72,202.88 153.77,209.34 146.07,220.78 138.79,233.78 125.21,261.72 120.45,268.58 115.49,274.05 110.81,277.89 105.81,280.89 100.47,283.09 94.87,284.45 89.05,284.92 83.21,284.51 77.50,283.18 72.07,280.98 66.99,277.82 62.38,273.85 58.19,268.91 54.60,263.29 51.51,256.81 49.05,249.57 45.29,228.71 40.00,111.93 41.57,87.87 43.28,80.20 45.73,73.30 48.90,66.98 52.84,61.22 57.63,56.13 63.14,51.71 69.63,47.88 76.76,44.85 84.87,42.53 93.73,41.01 118.88,40.00 184.47,45.38 559.27,84.25 705.00,96.84 728.07,101.33 734.84,103.80 740.76,106.85 745.93,110.44 750.44,114.64 754.11,119.40 756.97,124.71 758.94,130.63 759.96,136.87 760.00,143.49 759.01,150.12 756.91,156.72 753.82,163.10 749.56,169.40 744.41,175.38 738.19,181.38 730.81,187.28 704.45,203.66 664.78,222.59 616.41,241.63 567.13,256.19 355.36,307.20 337.20,314.22 323.99,321.29 313.92,328.16 305.20,335.94 297.47,344.80 290.34,355.61 269.87,403.39 261.64,419.26 257.52,424.57 252.92,429.07 247.79,432.87 242.25,435.86 236.57,437.86 230.74,438.87 226.94,438.87 223.14,438.40 219.47,437.48 215.89,436.05 212.46,434.18 209.38,432.03 205.86,428.67 202.94,424.81 200.42,420.24 198.47,415.06 196.82,407.61 196.02,399.49 196.15,390.43 197.29,381.14 199.63,371.12 202.89,361.38 206.47,353.29 210.90,345.44 220.00,332.86 230.70,320.88 242.08,310.24 262.58,294.28 285.73,281.24 315.68,269.80 350.30,259.75"
        fill="none"
        stroke="#e94560"
        stroke-width="8.0"
        stroke-linejoin="round"
        stroke-linecap="round"/>
  <!-- Start/finish line -->
  <line x1="344.72" y1="240.54" x2="355.87" y2="278.95"
        stroke="#f5f5f5" stroke-width="9.6"
        stroke-linecap="round"/>
</svg>
