<?xml version="1.0" encoding="utf-8"?>
<svg xmlns="http://www.w3.org/2000/svg"
     width="800.0" height="781.2"
     viewBox="0 0 800.0 781.2">
  <rect width="100%" height="100%" fill="#1a1a2e"/>
  <!-- Track outline -->
  <polyline points="142.52,546.48 57.33,401.87 47.51,378.55 41.74,354.69 40.00,330.63 41.97,307.75 47.60,286.05 51.82,275.75 56.80,266.12 62.31,257.15 69.27,248.11 110.21,209.11 144.59,177.11 158.35,158.04 170.73,137.25 191.36,94.68 203.24,77.14 209.80,69.52 216.72,62.82 223.95,57.06 230.37,52.28 238.29,47.94 245.80,44.75 256.49,41.21 269.17,40.00 282.53,40.30 290.74,41.56 298.38,43.78 305.47,46.97 312.00,51.13 314.96,53.37 317.97,56.24 322.74,61.94 327.33,68.87 330.72,76.31 333.23,83.67 334.29,87.68 334.91,91.87 335.27,99.99 334.82,108.76 333.35,116.85 331.02,124.50 327.77,131.91 323.82,138.55 319.17,144.46 313.99,149.50 308.32,153.81 301.50,157.45 283.19,162.14 263.85,167.01 253.03,172.15 244.02,178.23 238.65,183.07 233.98,189.42 227.94,202.76 222.74,218.71 215.95,252.48 213.23,261.22 209.63,269.34 188.22,300.34 170.03,324.05 164.01,337.19 159.77,351.39 157.73,365.59 157.66,380.06 159.85,393.78 164.49,408.81 206.71,495.35 237.36,552.03 246.64,563.13 254.57,570.51 257.69,572.93 260.94,574.71 270.64,578.51 281.31,581.14 288.41,581.35 295.08,580.34 301.81,578.25 307.76,575.56 310.53,573.91 313.10,571.81 317.66,567.03 321.79,561.63 323.45,558.64 324.73,555.31 326.37,548.75 327.38,542.02 327.47,538.54 327.07,535.06 325.58,528.29 322.98,521.03 317.56,511.76 310.27,502.37 280.18,473.03 274.57,466.06 270.11,458.68 265.88,450.06 262.89,441.76 260.70,433.05 259.47,424.19 259.14,415.25 259.86,406.45 261.48,397.89 263.91,389.71 267.76,381.09 300.15,334.29 398.19,203.77 412.69,190.10 420.48,184.46 428.47,179.71 436.64,175.81 444.94,172.92 453.73,171.12 461.88,170.29 466.20,170.17 470.53,170.52 478.83,171.85 487.74,174.19 496.19,177.67 503.77,181.66 511.35,186.85 541.27,209.67 549.96,214.25 558.62,217.35 571.38,220.27 584.72,221.45 597.98,220.01 609.29,217.32 613.05,215.96 616.47,214.13 622.49,210.35 629.25,204.98 640.42,192.49 650.65,180.59 653.90,177.58 657.10,175.22 663.94,171.26 671.64,167.78 679.67,165.27 687.16,163.62 691.21,162.97 695.30,162.79 703.10,163.20 711.52,164.56 719.58,167.16 726.83,170.32 730.71,172.38 734.13,174.69 740.50,180.36 746.01,186.70 750.66,193.73 754.47,201.47 757.43,209.88 759.08,218.21 760.00,227.45 759.74,236.39 758.58,245.31 756.42,254.49 753.48,263.35 749.72,272.09 745.31,280.32 739.93,288.53 733.95,296.03 726.92,302.94 719.37,308.96 711.57,314.31 702.67,319.18 685.26,326.50 664.61,333.14 601.81,344.95 523.36,353.81 426.05,361.75 412.78,365.12 402.58,369.37 396.08,373.32 390.44,378.05 385.46,383.33 381.17,389.41 378.05,395.50 375.79,402.08 374.63,408.78 374.43,415.57 375.28,421.83 377.01,427.71 378.79,431.54 380.99,435.09 383.47,438.25 386.49,441.26 389.86,443.80 393.64,446.04 402.33,449.70 413.16,452.18 441.55,452.18 469.52,451.62 479.00,453.13 486.48,455.13 494.79,458.29 501.84,462.10 509.07,466.91 515.01,471.96 520.42,477.72 524.90,483.80 528.68,490.53 531.35,497.12 533.14,504.11 533.86,511.17 533.66,518.29 532.37,525.43 530.20,532.22 526.80,539.01 523.03,544.74 520.67,547.78 518.04,550.47 512.60,555.22 505.94,559.94 483.93,570.28 458.66,578.04 433.67,586.81 421.86,594.19 412.98,601.42 410.01,604.23 407.42,607.60 401.73,617.22 396.84,628.47 395.16,635.58 394.70,643.50 397.93,662.89 401.40,682.35 401.30,690.53 400.29,697.70 398.46,704.88 395.89,711.55 392.40,717.96 388.26,723.59 383.35,728.61 377.97,732.75 371.76,736.26 365.20,738.83 358.19,740.51 351.04,741.22 343.46,740.87 336.46,739.77 333.11,739.36 328.15,737.88 304.00,726.40 269.56,705.02 241.06,681.26 204.64,638.12 174.56,596.97 147.09,554.25 142.52,546.48"
        fill="none"
        stroke="#e94560"
        stroke-width="8.0"
        stroke-linejoin="round"
        stroke-linecap="round"/>
  <!-- Start/finish line -->
  <line x1="125.29" y1="556.63" x2="159.75" y2="536.33"
        stroke="#f5f5f5" stroke-width="9.6"
        stroke-linecap="round"/>
</svg>
