<?xml version="1.0" encoding="utf-8"?>
<svg xmlns="http://www.w3.org/2000/svg"
     width="435.1" height="800.0"
     viewBox="0 0 435.1 800.0">
  <rect width="100%" height="100%" fill="#1a1a2e"/>
  <!-- Track outline -->
  <polyline points="40.00,379.02 42.51,549.72 45.30,591.42 51.54,623.24 59.78,649.81 73.92,676.63 99.00,711.43 104.99,717.84 111.35,723.24 123.92,732.43 139.16,741.25 163.05,750.73 188.60,757.42 210.67,760.00 232.77,759.50 257.32,756.01 281.80,748.48 307.16,734.59 329.86,717.17 343.81,702.62 355.22,686.07 365.13,664.36 372.53,642.65 378.08,618.29 384.63,568.43 395.10,297.89 393.19,254.69 388.14,218.56 378.33,182.38 366.13,150.57 356.98,132.48 346.63,116.59 332.12,97.76 316.57,81.21 304.47,71.31 291.49,63.33 272.18,54.39 250.89,47.32 226.12,42.04 201.11,40.00 179.32,41.62 158.19,46.74 136.59,56.67 117.00,68.90 105.08,77.72 94.42,88.32 80.82,108.20 69.34,128.61 61.00,147.16 53.29,172.19 41.38,278.31 40.00,379.02"
        fill="none"
        stroke="#e94560"
        stroke-width="8.0"
        stroke-linejoin="round"
        stroke-linecap="round"/>
  <!-- Start/finish line -->
  <line x1="60.00" y1="378.94" x2="20.00" y2="379.10"
        stroke="#f5f5f5" stroke-width="9.6"
        stroke-linecap="round"/>
</svg>
