<?xml version="1.0" encoding="utf-8"?>
<svg xmlns="http://www.w3.org/2000/svg"
     width="800.0" height="544.8"
     viewBox="0 0 800.0 544.8">
  <rect width="100%" height="100%" fill="#1a1a2e"/>
  <!-- Track outline -->
  <polyline points="389.50,46.94 385.54,46.67 294.37,40.00 245.50,45.88 200.35,56.68 173.84,66.60 150.25,79.16 128.38,94.00 107.63,112.78 83.11,144.13 63.23,175.21 52.88,197.51 48.18,210.15 44.40,224.64 40.56,249.05 40.00,276.53 47.00,312.26 58.39,346.59 69.73,370.47 81.74,390.58 89.73,402.87 98.84,414.19 116.74,432.28 139.16,449.66 177.13,469.59 220.67,485.40 271.51,496.72 328.12,502.87 420.72,504.80 511.64,499.80 560.88,492.77 604.23,481.36 642.14,464.68 673.17,447.38 692.55,434.03 702.40,425.52 712.43,414.81 728.54,392.16 742.60,367.66 747.98,354.23 751.82,340.88 758.14,309.10 760.00,276.00 759.38,243.16 757.71,228.41 754.24,213.84 740.12,175.73 723.09,140.00 715.34,128.59 706.67,119.28 688.71,103.13 667.90,88.11 645.11,76.00 622.57,67.13 608.26,63.27 591.04,60.63 389.50,46.94"
        fill="none"
        stroke="#e94560"
        stroke-width="8.0"
        stroke-linejoin="round"
        stroke-linecap="round"/>
  <!-- Start/finish line -->
  <line x1="388.15" y1="66.89" x2="390.86" y2="26.98"
        stroke="#f5f5f5" stroke-width="9.6"
        stroke-linecap="round"/>
</svg>
