<?xml version="1.0" encoding="utf-8"?>
<svg xmlns="http://www.w3.org/2000/svg"
     width="800.0" height="469.4"
     viewBox="0 0 800.0 469.4">
  <rect width="100%" height="100%" fill="#1a1a2e"/>
  <!-- Track outline -->
  <polyline points="349.84,86.67 310.52,95.20 139.92,149.78 109.57,164.89 86.04,182.32 72.80,196.94 61.69,213.51 52.83,231.18 45.81,250.67 41.12,271.51 40.00,291.73 42.85,310.50 48.86,328.78 57.42,345.83 68.72,361.67 82.68,376.17 98.06,389.09 125.25,406.88 154.79,419.92 182.90,425.89 211.72,428.20 240.14,429.42 274.67,427.35 579.52,363.26 637.37,343.28 663.34,330.97 687.38,316.10 708.56,297.95 727.31,276.99 739.53,260.91 750.53,243.61 757.76,225.33 760.00,205.10 758.27,183.66 753.89,163.19 746.76,144.18 736.98,126.02 725.78,109.09 707.14,86.30 685.44,67.17 669.66,56.94 652.65,48.65 635.03,42.92 609.16,40.00 578.50,41.83 386.61,78.75 349.84,86.67"
        fill="none"
        stroke="#e94560"
        stroke-width="8.0"
        stroke-linejoin="round"
        stroke-linecap="round"/>
  <!-- Start/finish line -->
  <line x1="354.06" y1="106.22" x2="345.61" y2="67.12"
        stroke="#f5f5f5" stroke-width="9.6"
        stroke-linecap="round"/>
</svg>
