<?xml version="1.0" encoding="utf-8"?>
<svg xmlns="http://www.w3.org/2000/svg"
     width="800.0" height="374.0"
     viewBox="0 0 800.0 374.0">
  <rect width="100%" height="100%" fill="#1a1a2e"/>
  <!-- Track outline -->
  <polyline points="384.55,42.04 378.52,42.09 201.00,43.04 169.86,44.27 143.95,48.50 121.19,58.28 100.61,71.48 83.09,85.83 67.87,102.64 55.05,122.91 45.66,145.14 41.01,167.36 40.00,190.15 42.47,213.28 48.17,235.74 56.52,256.30 67.50,274.87 80.66,289.97 95.96,302.75 114.23,314.48 134.27,323.45 154.26,328.39 181.09,330.91 400.57,334.04 619.83,326.82 646.28,322.88 666.23,316.19 689.50,303.17 710.87,286.36 728.65,267.04 742.86,247.04 749.81,234.70 754.68,221.69 758.70,200.98 760.00,178.76 758.28,157.58 753.71,137.11 746.17,117.88 736.02,100.17 723.36,83.97 708.36,70.15 690.13,58.95 669.84,50.49 647.79,44.08 620.00,40.00 384.55,42.04"
        fill="none"
        stroke="#e94560"
        stroke-width="8.0"
        stroke-linejoin="round"
        stroke-linecap="round"/>
  <!-- Start/finish line -->
  <line x1="384.73" y1="62.04" x2="384.38" y2="22.04"
        stroke="#f5f5f5" stroke-width="9.6"
        stroke-linecap="round"/>
</svg>
