<?xml version="1.0" encoding="utf-8"?>
<svg xmlns="http://www.w3.org/2000/svg"
     width="800.0" height="668.1"
     viewBox="0 0 800.0 668.1">
  <rect width="100%" height="100%" fill="#1a1a2e"/>
  <!-- Track outline -->
  <polyline points="216.13,214.89 210.47,224.76 141.30,343.75 46.88,512.66 42.66,524.58 40.80,533.98 40.00,542.73 40.29,551.22 41.59,559.45 44.01,567.63 48.27,577.05 53.83,586.18 60.60,594.63 68.42,602.31 77.56,609.41 87.28,615.43 96.10,619.70 105.15,622.89 114.63,625.05 124.31,626.08 133.83,625.97 143.81,624.57 158.25,620.64 173.09,614.69 187.26,606.47 201.27,596.58 233.97,570.04 259.54,554.16 281.18,545.10 303.70,539.87 326.81,538.52 338.54,539.41 350.23,541.32 373.72,548.39 396.56,559.77 418.32,575.09 456.60,604.81 471.80,613.27 487.11,619.66 502.98,624.18 519.65,626.94 538.78,628.09 560.13,627.12 601.13,620.92 639.03,612.55 651.03,608.87 660.47,604.82 667.51,600.84 673.59,596.24 678.75,590.99 683.00,585.11 686.13,578.83 688.23,571.95 689.38,563.06 689.16,553.73 687.27,544.10 684.06,534.87 680.25,527.41 675.34,520.38 667.88,512.01 658.81,504.09 646.60,495.95 631.90,488.63 606.68,479.83 576.36,472.22 469.67,456.34 355.33,450.96 289.53,449.68 278.30,448.16 269.27,445.85 262.61,443.07 256.96,439.66 253.14,436.49 249.91,432.74 246.47,427.25 243.80,421.08 242.23,414.55 241.62,407.75 241.95,400.49 243.25,393.16 245.59,385.45 248.90,377.87 253.38,370.24 258.80,363.02 265.39,356.03 272.82,349.68 281.33,343.90 290.53,338.91 300.57,334.74 311.12,331.46 333.77,327.58 357.80,327.35 382.70,330.79 414.33,339.90 459.38,359.43 558.55,399.00 612.42,416.54 629.01,418.99 644.26,419.35 657.38,418.11 670.28,415.18 685.54,409.75 700.44,402.32 714.24,392.78 726.58,381.90 736.14,371.26 744.10,360.26 749.66,350.72 754.00,341.02 757.21,331.18 759.25,321.17 760.00,311.30 759.50,301.52 757.74,292.10 754.79,283.02 750.67,274.47 745.49,266.45 739.30,258.96 731.94,252.04 721.59,244.43 709.65,237.64 694.45,231.29 677.35,226.26 653.36,221.87 628.05,219.50 580.75,221.26 494.92,238.87 446.11,250.96 437.55,252.22 430.20,252.50 423.18,251.89 416.53,250.30 410.50,247.65 405.04,244.05 400.35,239.56 396.46,234.35 394.38,230.50 392.72,226.37 391.56,222.13 390.86,215.45 391.24,208.61 392.69,201.59 395.24,194.46 399.61,185.92 405.51,176.53 419.45,157.80 432.60,139.14 436.64,130.62 439.12,122.61 440.62,113.95 440.93,105.18 439.93,96.45 437.75,87.92 434.41,79.61 429.98,71.77 424.48,64.50 418.05,57.99 410.64,52.27 402.48,47.53 393.59,43.83 384.23,41.30 374.44,40.02 364.51,40.00 354.41,41.30 344.44,43.86 334.59,47.63 324.89,52.79 313.63,60.74 302.69,70.59 291.33,83.72 280.31,99.33 251.47,151.55 223.32,202.35 216.13,214.89"
        fill="none"
        stroke="#e94560"
        stroke-width="8.0"
        stroke-linejoin="round"
        stroke-linecap="round"/>
  <!-- Start/finish line -->
  <line x1="233.48" y1="224.84" x2="198.78" y2="204.94"
        stroke="#f5f5f5" stroke-width="9.6"
        stroke-linecap="round"/>
</svg>
