<?xml version="1.0" encoding="utf-8"?>
<svg xmlns="http://www.w3.org/2000/svg"
     width="698.5" height="800.0"
     viewBox="0 0 698.5 800.0">
  <rect width="100%" height="100%" fill="#1a1a2e"/>
  <!-- Track outline -->
  <polyline points="200.78,387.67 225.03,415.97 246.10,445.00 251.76,454.82 256.62,464.78 259.42,475.11 259.89,481.73 259.70,488.79 258.67,495.77 256.71,502.25 253.72,507.85 249.05,512.80 242.93,517.09 235.87,520.73 228.54,523.42 221.48,525.09 210.22,524.58 198.68,521.60 187.00,519.71 174.57,519.85 162.00,521.09 150.74,524.66 143.59,529.02 137.00,534.70 131.30,541.24 126.91,548.44 123.22,560.01 121.82,573.03 121.82,585.91 124.06,603.30 129.15,621.63 141.11,653.71 155.93,684.12 165.74,698.31 176.58,710.31 191.11,723.84 207.28,735.92 223.86,745.52 241.43,752.94 259.98,757.82 279.09,760.00 298.86,759.35 317.97,756.07 333.62,750.62 348.29,743.49 362.64,735.56 376.19,726.32 387.73,716.42 400.20,703.33 492.67,590.13 508.93,573.18 522.11,560.89 542.67,546.55 560.99,534.99 579.21,524.00 594.53,514.11 613.65,500.50 624.72,488.50 635.00,475.70 643.88,461.07 650.93,445.72 656.17,428.55 658.55,410.95 658.50,402.51 657.80,394.00 656.03,385.85 653.46,377.70 649.90,371.01 644.53,363.52 639.06,357.62 633.78,353.70 627.24,350.13 620.42,347.00 612.80,345.40 604.77,345.33 598.65,346.64 593.37,350.42 588.32,356.17 585.75,362.06 584.58,375.45 586.59,389.34 588.46,401.86 585.94,417.13 580.66,429.72 573.37,437.36 566.41,441.21 558.32,443.76 549.73,445.29 541.08,446.23 521.97,445.87 503.09,442.59 492.25,439.68 481.93,435.83 470.06,431.03 461.23,426.23 453.52,419.75 447.21,412.91 441.56,404.77 436.70,394.80 433.01,383.60 432.40,374.21 434.55,365.99 439.17,357.84 445.29,349.84 457.77,336.67 480.48,312.23 527.90,257.08 532.06,248.86 533.37,240.28 533.28,231.33 531.41,222.53 527.90,212.05 522.77,201.87 515.10,190.23 465.81,134.87 412.12,83.72 395.77,69.17 380.95,59.13 363.57,50.62 349.18,45.24 336.00,41.89 322.59,40.15 310.87,40.00 299.98,41.53 292.69,43.42 285.91,46.55 277.55,53.17 270.54,62.84 237.09,131.30 227.60,148.83 217.93,161.42 204.33,171.68 189.71,179.46 181.76,181.79 173.40,183.32 165.04,183.75 157.09,182.66 147.37,177.79 138.22,170.44 128.78,163.38 118.78,156.76 108.50,150.51 97.61,145.41 87.85,142.79 78.36,141.70 70.14,142.21 61.68,144.10 54.67,147.01 49.53,150.94 44.72,156.25 41.92,163.09 40.00,174.08 40.89,185.79 43.41,197.72 46.54,212.12 49.39,222.24 55.70,238.24 64.76,252.57 92.19,281.16 176.58,359.44 200.78,387.67"
        fill="none"
        stroke="#e94560"
        stroke-width="8.0"
        stroke-linejoin="round"
        stroke-linecap="round"/>
  <!-- Start/finish line -->
  <line x1="215.97" y1="374.65" x2="185.60" y2="400.69"
        stroke="#f5f5f5" stroke-width="9.6"
        stroke-linecap="round"/>
</svg>
