<?xml version="1.0" encoding="utf-8"?>
<svg xmlns="http://www.w3.org/2000/svg"
     width="800.0" height="510.2"
     viewBox="0 0 800.0 510.2">
  <rect width="100%" height="100%" fill="#1a1a2e"/>
  <!-- Track outline -->
  <polyline points="139.96,44.14 238.95,58.91 317.70,68.01 414.99,80.73 459.96,86.05 465.16,86.51 508.30,91.38 601.32,104.36 686.04,116.45 702.13,119.52 720.07,124.40 727.88,127.48 730.81,128.87 733.44,130.51 734.62,131.45 735.70,132.50 736.67,133.68 737.50,134.96 738.22,136.33 738.81,137.76 739.63,140.77 740.01,143.96 739.92,146.50 737.60,162.74 737.61,164.16 737.77,165.41 738.28,168.04 738.98,170.60 740.08,172.98 741.44,175.20 743.23,177.23 752.34,184.51 754.44,186.56 756.27,188.81 757.88,191.24 758.49,192.56 758.98,193.92 759.61,196.72 759.96,199.62 760.00,202.62 759.63,205.68 756.23,218.52 750.49,236.31 742.55,255.62 734.61,271.68 727.71,283.98 645.03,421.14 629.53,446.55 621.47,457.67 617.60,462.01 613.49,465.69 611.29,467.20 608.84,468.42 606.27,469.32 603.56,469.90 600.71,470.22 597.82,470.11 594.92,469.66 592.02,469.01 589.26,468.07 586.65,466.91 584.25,465.46 582.07,463.70 580.14,461.64 578.40,459.33 576.94,456.75 575.80,453.94 575.11,450.92 574.61,447.75 574.49,444.45 574.61,441.10 575.04,437.69 578.81,415.59 578.81,404.54 577.69,397.53 576.57,394.16 575.02,390.89 573.10,387.75 569.91,383.83 565.44,379.30 545.49,364.74 542.19,362.05 539.05,359.17 536.12,356.05 533.44,352.67 530.97,349.05 524.44,337.36 519.40,329.99 516.48,326.60 513.22,323.56 505.93,318.49 501.97,316.48 497.68,314.88 479.36,311.44 446.85,306.31 439.60,304.64 433.32,302.55 430.46,301.32 427.80,299.82 425.38,298.02 423.22,295.92 421.30,293.56 419.58,290.94 418.15,288.10 410.14,269.13 408.27,265.97 398.64,254.18 392.77,248.80 386.14,243.78 367.21,233.14 336.27,220.70 311.57,213.99 274.47,208.00 188.90,195.62 158.43,191.07 152.38,189.74 149.72,188.88 147.12,187.81 144.64,186.49 140.08,183.22 138.09,181.51 136.31,179.54 134.75,177.33 133.54,174.84 132.67,172.13 131.10,163.28 126.85,112.28 125.85,106.93 125.40,105.60 124.85,104.42 124.06,103.11 123.10,101.91 122.01,100.88 120.79,100.07 119.93,99.69 119.03,99.42 118.10,99.26 117.11,99.22 116.09,99.29 115.12,99.48 113.88,99.91 112.74,100.51 111.71,101.20 110.63,102.14 107.74,105.42 104.83,108.75 103.66,109.79 102.53,110.58 101.22,111.31 99.84,111.90 98.38,112.35 96.87,112.64 95.36,112.79 93.70,112.80 87.86,111.99 55.49,106.23 53.06,105.68 50.08,104.76 47.35,103.48 46.05,102.68 44.85,101.77 43.84,100.73 42.95,99.58 42.13,98.31 41.42,96.97 40.84,95.56 40.41,94.08 40.12,92.44 40.00,90.81 40.19,88.31 41.21,83.07 43.05,77.72 44.22,74.97 45.67,72.22 47.31,69.56 51.39,64.31 56.18,59.23 58.88,56.75 64.82,52.08 68.06,49.89 71.46,47.88 75.11,46.08 78.86,44.49 82.82,43.16 86.93,42.05 91.08,41.24 99.80,40.19 104.30,40.00 108.87,40.08 118.26,40.90 139.96,44.14"
        fill="none"
        stroke="#e94560"
        stroke-width="8.0"
        stroke-linejoin="round"
        stroke-linecap="round"/>
  <!-- Start/finish line -->
  <line x1="142.91" y1="24.36" x2="137.01" y2="63.92"
        stroke="#f5f5f5" stroke-width="9.6"
        stroke-linecap="round"/>
</svg>
