<?xml version="1.0" encoding="utf-8"?>
<svg xmlns="http://www.w3.org/2000/svg"
     width="196.4" height="800.0"
     viewBox="0 0 196.4 800.0">
  <rect width="100%" height="100%" fill="#1a1a2e"/>
  <!-- Track outline -->
  <polyline points="152.96,463.20 149.38,390.74 142.44,213.57 138.72,164.62 136.57,148.46 133.82,139.00 130.78,131.12 111.21,93.45 84.27,49.01 81.82,46.19 79.02,43.88 76.00,42.03 74.40,41.29 72.75,40.69 71.02,40.29 69.26,40.05 67.44,40.00 65.61,40.13 63.81,40.46 62.05,40.99 60.35,41.74 58.73,42.68 57.26,43.80 55.89,45.08 54.63,46.50 53.53,48.02 52.80,49.26 52.16,50.75 50.85,54.68 49.74,59.64 49.07,76.21 49.66,94.83 48.91,117.26 49.37,127.72 48.57,173.04 48.58,185.07 48.64,214.25 48.27,227.19 47.62,253.78 47.84,267.40 47.38,295.23 47.45,314.07 48.06,349.82 49.22,358.50 51.06,366.19 53.83,373.90 57.34,381.22 66.50,394.70 77.13,407.06 81.93,413.69 86.11,420.84 89.61,428.43 92.34,436.43 94.42,444.63 96.43,457.33 98.68,483.30 99.05,503.73 98.58,511.35 97.40,518.68 95.43,525.59 94.14,528.86 92.60,531.93 90.78,534.82 88.73,537.49 86.39,539.92 83.79,542.18 80.96,544.10 77.94,545.74 74.76,547.11 58.58,551.95 55.73,553.43 53.11,555.17 50.77,557.28 48.86,559.52 46.94,562.35 44.84,566.56 43.06,571.48 41.66,577.74 40.80,585.08 40.90,614.69 40.54,649.65 40.00,697.58 42.32,713.88 44.08,720.04 46.33,725.78 52.60,736.84 55.24,740.25 61.28,746.35 64.69,748.97 69.89,752.03 76.09,755.02 82.28,757.15 88.65,758.68 101.80,760.00 106.22,759.83 119.32,757.43 123.45,756.01 134.50,750.10 137.69,747.60 143.19,741.92 145.46,738.77 148.14,734.02 150.75,728.34 152.46,722.94 153.61,717.16 154.20,709.54 154.04,701.89 153.25,696.03 151.91,690.49 150.01,684.94 147.62,679.62 141.40,669.80 125.67,652.00 120.96,645.68 116.97,639.02 115.37,635.54 114.04,631.96 113.01,628.32 112.35,624.57 112.09,620.79 112.25,617.00 112.81,613.26 113.76,609.57 115.02,606.05 116.60,602.66 118.47,599.40 120.55,596.26 125.30,590.43 142.74,570.85 147.17,564.01 150.59,557.36 152.85,551.66 154.52,545.90 155.73,540.16 156.40,533.75 155.18,508.23 152.96,463.20"
        fill="none"
        stroke="#e94560"
        stroke-width="8.0"
        stroke-linejoin="round"
        stroke-linecap="round"/>
  <!-- Start/finish line -->
  <line x1="132.98" y1="464.18" x2="172.93" y2="462.21"
        stroke="#f5f5f5" stroke-width="9.6"
        stroke-linecap="round"/>
</svg>
