<?xml version="1.0" encoding="utf-8"?>
<svg xmlns="http://www.w3.org/2000/svg"
     width="479.4" height="800.0"
     viewBox="0 0 479.4 800.0">
  <rect width="100%" height="100%" fill="#1a1a2e"/>
  <!-- Track outline -->
  <polyline points="175.23,43.94 225.48,40.64 255.72,40.00 273.15,40.27 277.35,40.64 281.34,41.59 285.16,42.89 289.13,44.44 292.94,46.48 296.12,48.92 300.56,53.21 304.74,58.66 307.21,63.63 308.88,68.75 309.68,73.48 310.10,78.41 309.98,96.28 308.77,116.92 307.86,126.24 306.97,134.32 306.41,142.64 306.34,148.68 306.64,158.91 307.85,171.06 309.35,182.95 312.04,195.85 315.34,207.94 319.47,218.74 324.91,231.71 331.64,243.92 407.39,348.48 418.15,365.26 426.12,381.86 431.16,395.03 434.77,406.99 437.30,420.95 438.94,433.96 439.45,447.12 439.28,457.71 438.09,471.82 436.29,483.83 432.57,499.74 427.76,515.62 421.84,530.03 410.63,549.95 393.59,578.39 384.25,594.07 379.05,603.71 375.15,611.89 372.19,619.17 368.97,627.35 366.49,635.17 364.20,644.31 361.26,658.43 359.67,672.09 359.38,682.19 359.82,696.11 363.28,738.46 363.67,747.56 363.20,752.52 362.19,756.23 359.59,758.30 356.77,759.61 352.95,760.00 348.28,759.83 342.70,758.46 329.11,752.99 322.27,748.89 317.92,744.85 314.02,739.51 311.78,734.86 309.93,729.11 308.39,722.35 289.28,610.26 288.96,606.77 289.29,604.10 289.83,602.04 291.17,599.97 292.98,598.35 295.49,597.09 298.49,595.78 304.86,593.76 318.58,589.93 321.12,589.01 322.76,587.89 324.23,586.15 325.19,584.14 325.70,581.80 325.78,579.43 325.44,577.11 324.48,575.06 322.81,573.45 320.51,571.95 317.41,570.59 277.96,554.76 271.13,550.48 266.54,546.53 263.20,542.50 260.04,537.31 258.04,532.27 256.68,527.38 256.02,523.03 255.62,518.37 255.59,512.74 257.63,484.55 259.22,478.11 262.41,470.51 315.23,373.00 317.49,369.86 335.86,346.94 337.31,344.80 338.42,342.04 339.06,339.25 339.23,336.12 338.92,332.66 338.27,329.88 337.14,327.30 333.55,321.72 296.30,271.39 291.94,262.87 289.08,254.66 287.45,247.04 286.78,239.63 286.79,231.74 289.55,192.89 289.06,187.79 288.00,182.45 286.68,178.13 285.13,174.29 282.57,169.70 266.35,146.80 264.42,142.64 262.84,136.81 262.25,130.85 262.80,123.88 264.36,106.56 263.47,101.92 262.13,98.24 260.46,94.87 258.81,92.32 255.95,90.10 253.02,89.07 250.45,88.55 230.19,89.42 192.10,89.31 58.21,89.58 55.25,89.13 51.38,87.79 47.88,85.57 44.90,82.81 42.71,79.54 41.18,75.83 40.18,71.55 40.00,67.56 40.75,63.71 42.44,59.99 44.73,56.70 47.14,54.85 50.32,53.36 54.03,52.18 57.67,51.50 62.99,51.09 175.23,43.94"
        fill="none"
        stroke="#e94560"
        stroke-width="8.0"
        stroke-linejoin="round"
        stroke-linecap="round"/>
  <!-- Start/finish line -->
  <line x1="173.94" y1="23.98" x2="176.51" y2="63.90"
        stroke="#f5f5f5" stroke-width="9.6"
        stroke-linecap="round"/>
</svg>
