<?xml version="1.0" encoding="utf-8"?>
<svg xmlns="http://www.w3.org/2000/svg"
     width="800.0" height="481.9"
     viewBox="0 0 800.0 481.9">
  <rect width="100%" height="100%" fill="#1a1a2e"/>
  <!-- Track outline -->
  <polyline points="411.30,53.75 547.42,40.07 591.53,40.00 612.36,41.47 632.36,44.27 650.82,50.29 668.00,58.44 683.92,68.44 698.62,80.71 711.93,94.69 723.39,110.39 733.00,127.42 740.69,145.66 746.42,164.91 757.04,225.43 759.11,246.18 760.00,267.02 759.17,287.45 756.35,307.41 751.38,326.99 744.10,345.49 734.77,362.56 723.26,377.87 709.38,391.35 693.32,402.62 675.98,412.00 657.50,419.23 638.12,424.31 618.02,427.15 511.67,427.64 331.18,430.86 148.83,441.93 113.90,441.25 98.44,439.43 79.96,435.91 71.70,433.34 63.99,429.85 57.57,425.55 51.81,420.05 48.17,415.39 44.86,410.14 42.34,404.44 40.83,398.52 40.05,392.23 40.00,386.20 41.28,378.68 43.69,371.65 47.04,364.74 51.22,358.42 56.56,352.43 62.62,347.22 69.61,342.66 77.13,338.98 85.51,336.11 94.27,334.06 113.42,331.91 160.21,334.16 311.41,343.05 538.09,338.78 593.64,328.19 609.15,322.46 623.48,314.91 629.72,310.80 635.64,305.95 641.74,299.40 647.18,291.91 651.30,284.29 654.38,276.01 655.98,267.12 656.49,257.90 656.05,248.39 654.58,238.95 651.95,229.47 648.25,220.48 643.18,211.65 637.47,203.74 626.90,192.57 614.74,182.79 607.82,178.85 600.57,175.60 593.21,173.02 584.93,171.04 569.03,168.43 550.43,167.19 495.04,173.45 374.69,201.36 261.98,217.94 207.73,224.42 182.50,226.31 164.52,225.85 157.05,224.81 149.80,223.15 135.30,219.11 126.65,215.53 118.12,210.94 110.67,205.56 103.79,199.34 97.82,192.79 92.57,185.53 88.30,177.71 84.89,169.31 82.52,160.68 81.13,151.75 80.78,142.63 81.54,133.61 83.63,124.98 86.72,116.77 90.83,108.66 95.80,101.20 101.97,94.13 108.88,87.95 116.61,82.60 124.84,78.27 134.04,74.95 143.24,72.57 158.28,70.26 365.88,58.31 411.30,53.75"
        fill="none"
        stroke="#e94560"
        stroke-width="8.0"
        stroke-linejoin="round"
        stroke-linecap="round"/>
  <!-- Start/finish line -->
  <line x1="409.30" y1="33.85" x2="413.30" y2="73.65"
        stroke="#f5f5f5" stroke-width="9.6"
        stroke-linecap="round"/>
</svg>
