<?xml version="1.0" encoding="utf-8"?>
<svg xmlns="http://www.w3.org/2000/svg"
     width="800.0" height="658.6"
     viewBox="0 0 800.0 658.6">
  <rect width="100%" height="100%" fill="#1a1a2e"/>
  <!-- Track outline -->
  <polyline points="142.77,205.00 119.44,243.70 58.66,347.59 47.57,372.73 41.07,391.81 40.17,396.81 40.00,401.04 40.78,410.66 42.65,419.05 45.74,427.17 50.10,434.87 55.44,442.00 61.85,448.20 70.08,453.68 87.03,461.81 91.02,463.16 95.93,464.17 192.28,471.36 258.80,470.29 364.24,474.63 523.95,480.42 544.37,481.69 564.60,485.68 584.30,492.06 593.89,496.13 603.24,500.86 612.26,506.22 620.74,512.60 628.62,519.83 635.75,527.88 641.97,536.42 665.78,580.88 677.37,596.70 684.50,603.50 692.56,609.21 701.31,613.87 710.59,617.18 715.39,618.14 720.26,618.59 725.04,618.53 729.74,617.95 734.19,616.85 738.43,615.27 742.26,613.35 745.88,610.93 749.76,607.49 753.23,603.48 755.99,599.08 758.10,594.34 759.39,589.34 760.00,584.16 759.52,573.54 754.54,536.62 751.39,489.37 739.97,414.59 734.97,396.56 722.71,328.36 714.29,303.64 710.21,295.65 705.13,288.01 699.03,281.16 691.98,275.22 675.86,266.07 671.77,264.27 667.12,262.87 650.56,259.65 629.08,257.27 557.03,258.52 518.88,263.50 509.60,263.77 500.24,263.00 491.14,260.88 482.38,257.44 465.76,248.45 458.04,242.84 450.81,236.51 444.22,229.45 438.08,221.77 432.57,213.59 427.83,204.83 423.82,195.52 420.54,185.81 413.93,155.48 410.38,145.91 400.53,128.18 394.36,120.11 343.98,68.53 318.39,50.78 309.10,46.14 299.42,42.49 289.48,40.32 284.51,40.00 279.55,40.11 269.81,41.57 265.23,42.85 260.41,44.68 251.68,49.04 243.34,54.06 239.61,56.81 235.89,60.37 205.42,99.48 166.80,164.95 162.18,172.81 142.77,205.00"
        fill="none"
        stroke="#e94560"
        stroke-width="8.0"
        stroke-linejoin="round"
        stroke-linecap="round"/>
  <!-- Start/finish line -->
  <line x1="159.89" y1="215.32" x2="125.64" y2="194.67"
        stroke="#f5f5f5" stroke-width="9.6"
        stroke-linecap="round"/>
</svg>
