<?xml version="1.0" encoding="utf-8"?>
<svg xmlns="http://www.w3.org/2000/svg"
     width="800.0" height="668.9"
     viewBox="0 0 800.0 668.9">
  <rect width="100%" height="100%" fill="#1a1a2e"/>
  <!-- Track outline -->
  <polyline points="611.88,481.03 655.19,459.86 698.49,431.92 716.01,416.45 730.06,399.78 743.71,378.01 753.76,353.87 758.60,332.84 760.00,311.40 759.84,300.93 758.18,288.56 744.07,241.08 726.32,193.69 720.40,181.23 713.09,169.61 652.85,95.35 633.34,78.17 611.27,63.53 591.14,54.13 570.73,46.48 560.36,43.52 548.75,41.62 455.67,40.00 207.78,60.38 185.68,64.69 178.23,66.87 170.89,69.51 164.51,73.35 160.35,77.38 156.65,82.20 153.69,87.43 151.77,92.76 151.09,98.04 151.35,103.55 152.39,109.16 153.92,114.48 157.07,121.62 161.36,128.47 166.27,134.91 175.01,143.81 184.80,151.77 205.22,165.30 248.03,184.11 292.38,191.93 367.54,190.96 442.44,186.05 465.04,188.23 476.61,190.78 488.05,194.39 499.59,199.53 510.49,205.69 527.52,218.57 545.43,236.22 552.39,244.97 558.34,254.33 563.51,265.40 567.28,276.98 569.30,287.91 569.95,299.03 569.20,310.84 567.09,322.70 563.48,334.84 558.41,346.60 551.58,357.86 543.61,368.05 536.01,375.78 527.72,382.55 518.39,388.80 508.37,394.17 497.58,398.76 486.23,402.46 461.40,407.19 435.06,407.79 407.40,403.30 386.04,397.04 364.32,388.38 319.91,364.76 254.14,316.45 161.23,233.35 141.59,219.63 130.02,214.12 118.02,210.18 106.87,208.29 95.79,208.19 84.96,210.18 74.43,213.94 66.95,217.32 59.67,221.49 53.46,226.58 48.71,232.84 45.04,240.02 42.34,247.61 40.65,255.81 40.00,264.43 40.39,272.86 42.83,284.44 47.12,295.60 53.49,307.23 61.07,318.11 76.41,335.11 132.10,379.67 150.47,394.08 158.34,402.00 165.23,410.71 171.02,420.85 175.70,431.83 182.39,456.52 184.90,478.43 184.77,500.16 177.65,546.43 176.93,558.94 177.68,570.24 179.31,577.74 181.78,585.06 185.16,591.96 189.84,598.59 195.53,604.75 201.70,610.17 211.26,616.47 221.73,621.33 234.05,625.04 246.70,627.45 268.84,628.88 293.58,626.43 314.19,622.03 341.50,613.09 611.88,481.03"
        fill="none"
        stroke="#e94560"
        stroke-width="8.0"
        stroke-linejoin="round"
        stroke-linecap="round"/>
  <!-- Start/finish line -->
  <line x1="603.11" y1="463.05" x2="620.66" y2="499.00"
        stroke="#f5f5f5" stroke-width="9.6"
        stroke-linecap="round"/>
</svg>
