<?xml version="1.0" encoding="utf-8"?>
<svg xmlns="http://www.w3.org/2000/svg"
     width="631.5" height="800.0"
     viewBox="0 0 631.5 800.0">
  <rect width="100%" height="100%" fill="#1a1a2e"/>
  <!-- Track outline -->
  <polyline points="195.43,171.55 111.20,311.46 68.93,385.24 52.01,424.91 43.85,451.29 40.00,478.56 40.42,501.85 47.16,539.20 56.45,566.50 72.77,596.29 93.95,623.25 118.95,646.96 171.44,684.01 239.98,725.33 298.34,754.78 306.45,757.68 313.46,759.24 321.20,760.00 328.71,759.84 334.66,759.00 340.48,757.43 347.51,754.69 354.44,751.06 360.76,746.70 366.60,741.61 371.54,736.30 376.59,729.45 401.85,684.01 446.40,605.46 489.54,529.70 516.89,481.70 580.34,370.03 584.96,358.88 587.75,349.41 589.97,338.84 591.23,328.11 591.52,317.30 590.82,306.52 589.07,295.80 586.31,285.36 582.49,275.22 577.73,265.58 572.20,256.63 565.58,247.98 543.50,226.36 493.09,187.71 486.14,183.78 480.03,181.26 473.03,179.26 466.12,178.10 460.51,177.82 455.09,178.22 449.80,179.27 444.52,181.07 438.42,184.05 432.40,188.05 426.10,193.65 420.19,200.38 414.49,208.73 409.16,218.54 395.80,252.02 385.11,293.55 380.83,327.76 379.78,389.00 379.66,503.41 378.41,530.25 376.07,547.31 371.99,563.60 367.61,575.14 361.99,585.97 355.16,596.00 347.15,604.89 334.95,614.89 321.69,623.43 307.42,630.25 296.11,633.92 284.49,636.19 272.64,637.03 256.69,636.12 240.93,632.99 225.52,627.66 206.78,618.49 186.28,606.11 171.75,595.04 161.53,585.33 152.89,574.61 147.80,565.86 142.84,553.33 140.62,543.50 139.79,533.39 140.75,519.67 144.05,506.12 149.55,493.10 158.83,477.53 234.32,363.54 260.07,327.97 282.67,299.81 327.33,246.94 331.73,239.92 334.53,233.96 336.12,229.41 337.10,224.82 337.64,219.13 337.47,213.30 336.47,207.93 334.73,202.23 326.02,181.25 324.95,177.25 324.39,173.50 324.14,168.36 324.39,163.05 325.21,157.89 326.51,152.81 330.45,142.64 339.25,127.48 349.96,108.94 352.74,101.80 354.61,94.96 355.50,89.35 355.73,83.87 355.29,78.36 354.17,72.97 352.21,67.56 349.73,62.58 347.32,58.88 344.63,55.60 341.57,52.52 338.09,49.71 333.11,46.55 327.63,43.87 321.83,41.87 315.84,40.57 309.66,40.00 303.43,40.21 297.23,41.26 291.17,43.08 285.40,45.60 279.79,48.95 273.67,53.67 267.45,59.75 248.98,84.42 225.46,121.85 195.43,171.55"
        fill="none"
        stroke="#e94560"
        stroke-width="8.0"
        stroke-linejoin="round"
        stroke-linecap="round"/>
  <!-- Start/finish line -->
  <line x1="212.56" y1="181.87" x2="178.30" y2="161.22"
        stroke="#f5f5f5" stroke-width="9.6"
        stroke-linecap="round"/>
</svg>
