<?xml version="1.0" encoding="utf-8"?>
<svg xmlns="http://www.w3.org/2000/svg"
     width="336.2" height="800.0"
     viewBox="0 0 336.2 800.0">
  <rect width="100%" height="100%" fill="#1a1a2e"/>
  <!-- Track outline -->
  <polyline points="68.29,484.46 71.87,512.54 92.40,670.40 94.86,681.68 97.71,690.32 102.06,699.80 107.31,708.53 112.63,715.41 118.57,721.50 125.09,726.89 132.32,731.61 140.92,736.07 151.46,740.12 210.30,753.72 243.19,759.72 250.24,760.00 256.43,759.47 262.49,758.12 268.12,756.08 272.43,753.84 276.44,751.01 281.10,746.72 285.29,741.86 288.23,737.54 290.67,732.71 293.33,725.16 295.24,716.67 296.16,707.56 295.99,695.83 278.87,562.84 268.56,489.11 266.41,482.52 263.98,477.66 261.27,473.57 258.18,470.02 254.70,466.85 250.91,464.17 246.96,462.06 242.69,460.48 237.21,459.34 231.44,458.97 225.56,459.52 219.75,460.93 214.11,463.18 208.76,466.24 203.76,470.11 199.24,474.68 195.22,479.92 191.86,485.71 189.24,492.02 187.41,498.69 186.40,505.60 186.26,512.79 187.15,521.34 189.14,530.18 192.58,539.82 197.60,550.43 224.95,595.85 228.06,602.38 230.03,607.92 231.14,612.70 231.65,617.37 231.60,622.01 230.99,626.58 229.80,631.00 228.08,635.24 225.83,639.29 223.11,643.06 219.91,646.55 216.31,649.68 212.28,652.44 207.94,654.77 203.26,656.66 198.38,658.07 193.34,658.98 188.23,659.36 183.15,659.18 178.12,658.45 173.20,657.18 168.42,655.39 163.76,653.08 159.32,650.30 155.10,646.98 151.18,643.21 147.61,639.00 144.41,634.43 141.60,629.59 139.15,624.31 134.64,610.10 131.51,591.30 123.42,518.11 94.62,292.76 94.73,278.77 95.54,273.51 96.82,268.58 98.55,263.91 100.77,259.51 103.47,255.39 106.63,251.59 110.29,248.07 114.34,244.95 118.73,242.22 123.56,239.91 136.69,235.93 152.99,233.43 169.46,230.49 177.24,227.73 184.14,224.19 192.32,218.73 199.90,212.36 205.56,206.29 210.48,199.55 215.37,190.84 219.36,181.38 222.22,171.68 223.97,161.26 224.46,147.88 223.61,132.57 215.06,73.12 213.02,64.67 210.79,58.20 208.82,54.06 206.52,50.55 203.83,47.49 200.78,44.91 197.49,42.88 193.98,41.37 190.32,40.40 186.59,40.00 182.86,40.17 179.09,40.98 174.69,42.77 170.47,45.36 166.73,48.61 163.34,52.66 159.40,58.97 156.06,66.36 153.54,75.25 151.63,85.67 146.88,129.21 142.03,155.95 140.49,161.16 138.70,165.57 136.37,169.87 133.61,173.84 130.38,177.48 126.76,180.73 122.77,183.63 118.48,186.11 113.94,188.14 109.04,189.70 96.01,191.45 77.38,192.45 72.44,193.50 67.93,195.11 62.61,197.82 57.54,201.31 53.03,205.55 49.10,210.41 45.84,215.78 43.27,221.73 41.22,228.98 40.00,237.37 40.89,269.98 68.29,484.46"
        fill="none"
        stroke="#e94560"
        stroke-width="8.0"
        stroke-linejoin="round"
        stroke-linecap="round"/>
  <!-- Start/finish line -->
  <line x1="88.13" y1="481.93" x2="48.45" y2="487.00"
        stroke="#f5f5f5" stroke-width="9.6"
        stroke-linecap="round"/>
</svg>
