<?xml version="1.0" encoding="utf-8"?>
<svg xmlns="http://www.w3.org/2000/svg"
     width="800.0" height="799.5"
     viewBox="0 0 800.0 799.5">
  <rect width="100%" height="100%" fill="#1a1a2e"/>
  <!-- Track outline -->
  <polyline points="453.66,162.34 345.44,83.62 298.19,55.06 277.84,47.39 257.42,42.40 236.17,40.00 214.86,40.09 193.99,42.31 173.57,46.84 153.66,53.58 134.73,62.64 117.07,74.00 100.89,87.40 86.51,102.74 73.91,119.75 63.03,138.32 54.01,158.09 46.78,178.61 41.94,199.77 40.00,221.85 40.52,244.12 43.13,266.39 48.05,288.38 55.50,309.64 65.04,330.15 75.48,348.54 89.71,368.31 135.85,415.07 217.39,485.21 258.91,518.20 303.93,546.56 325.91,557.19 350.58,566.25 398.81,576.13 445.54,586.76 459.85,592.58 471.93,599.05 482.58,607.46 492.87,619.47 501.59,633.61 508.52,648.21 513.52,669.28 517.91,690.71 523.28,706.42 529.99,721.95 538.86,735.25 547.20,743.02 556.97,749.67 567.48,754.84 578.21,758.17 589.54,759.46 601.47,758.91 613.32,756.78 624.05,753.18 633.14,748.47 641.49,742.46 649.24,734.88 656.70,725.64 669.44,698.75 680.40,665.12 693.37,633.15 720.57,593.97 745.09,558.76 754.11,538.34 758.81,518.56 760.00,503.04 759.11,486.96 755.38,471.90 750.16,460.90 743.08,450.28 734.66,440.76 725.34,433.46 715.13,428.56 703.73,425.42 691.88,424.03 680.40,424.40 664.97,429.02 649.76,437.25 634.86,445.75 593.19,469.77 573.74,477.63 553.76,483.64 509.79,490.94 462.61,491.40 437.94,488.63 413.27,483.64 388.52,476.06 364.22,466.26 316.97,439.28 209.12,351.77 190.63,334.12 176.40,317.40 164.77,299.57 156.50,280.25 153.14,265.10 151.73,249.20 152.92,233.87 155.75,223.24 160.00,212.89 165.59,203.19 172.15,194.59 182.88,184.98 195.48,177.22 209.04,171.40 223.95,167.61 239.83,165.86 255.63,166.41 280.30,172.23 303.85,182.03 323.01,192.93 340.82,205.77 375.40,237.56 407.83,275.45 438.16,316.66 452.70,335.33 468.94,351.87 482.43,361.29 497.27,369.33 512.32,374.41 523.13,376.08 534.24,376.45 545.12,375.24 555.18,372.38 563.08,368.50 570.91,363.23 578.14,357.04 584.40,350.11 589.09,342.72 592.75,332.18 594.46,320.36 594.39,308.16 593.04,296.61 589.09,282.75 582.68,269.44 574.63,257.06 560.10,241.53 539.53,224.81 453.66,162.34"
        fill="none"
        stroke="#e94560"
        stroke-width="8.0"
        stroke-linejoin="round"
        stroke-linecap="round"/>
  <!-- Start/finish line -->
  <line x1="441.90" y1="178.52" x2="465.43" y2="146.17"
        stroke="#f5f5f5" stroke-width="9.6"
        stroke-linecap="round"/>
</svg>
