<?xml version="1.0" encoding="utf-8"?>
<svg xmlns="http://www.w3.org/2000/svg"
     width="421.1" height="800.0"
     viewBox="0 0 421.1 800.0">
  <rect width="100%" height="100%" fill="#1a1a2e"/>
  <!-- Track outline -->
  <polyline points="369.41,432.37 365.22,399.05 352.94,305.77 349.52,287.39 344.80,268.67 339.27,255.17 333.61,247.40 327.94,241.47 321.54,236.92 314.01,232.60 302.06,225.20 290.22,218.30 280.84,212.08 272.49,205.47 263.64,198.13 249.19,184.09 234.59,168.26 217.11,148.96 183.80,110.15 158.32,80.47 147.12,67.32 140.08,59.94 133.39,53.82 127.27,48.86 121.15,45.16 115.29,42.44 107.99,40.35 101.27,40.00 94.56,40.12 88.53,41.28 82.63,43.25 77.88,45.56 73.02,48.35 67.69,52.74 63.17,56.91 58.31,62.59 54.96,68.26 51.48,74.63 48.58,81.23 44.88,90.27 42.68,99.87 41.03,109.10 40.00,121.55 40.62,134.52 43.06,156.44 46.36,176.21 67.18,264.02 70.45,281.03 73.53,303.36 75.01,319.64 75.67,340.79 74.31,386.88 73.67,416.26 73.24,445.87 74.31,466.04 76.67,488.12 78.82,504.00 82.35,517.97 84.87,528.19 88.65,540.04 92.19,549.25 96.47,557.83 101.01,564.13 106.31,569.42 111.73,572.20 118.29,574.47 126.36,574.47 133.92,571.83 139.73,567.91 145.15,561.74 149.19,554.54 152.09,544.96 153.85,534.88 156.12,518.48 157.64,500.45 158.89,478.20 159.76,454.53 160.78,418.99 162.46,400.57 165.37,380.62 168.65,368.61 174.09,353.89 181.83,341.29 189.97,330.83 199.08,323.27 208.19,317.65 219.42,313.78 230.27,312.03 243.06,311.84 254.29,314.17 265.34,319.01 276.54,326.55 284.77,335.02 292.29,346.30 299.81,362.98 306.86,388.37 316.97,433.73 320.73,453.71 324.02,478.41 324.25,501.88 321.92,523.71 316.12,545.56 309.15,561.59 300.78,575.76 290.32,589.47 277.32,602.71 249.42,628.49 208.93,666.06 196.33,679.05 187.76,690.14 182.21,698.97 178.93,706.29 176.92,714.60 175.91,722.43 177.42,732.26 180.70,740.58 185.49,747.90 191.80,753.44 198.60,756.98 206.92,759.24 218.27,760.00 230.13,758.24 242.74,754.71 267.70,744.37 296.46,731.76 316.38,721.67 335.55,711.33 348.91,702.50 358.29,694.54 364.15,687.09 368.74,679.02 371.44,670.78 372.54,663.98 372.06,653.21 371.75,644.50 371.59,631.68 372.70,620.60 374.87,606.10 378.23,584.70 380.38,568.41 381.05,558.33 380.78,544.32 379.65,514.71 376.96,488.98 369.41,432.37"
        fill="none"
        stroke="#e94560"
        stroke-width="8.0"
        stroke-linejoin="round"
        stroke-linecap="round"/>
  <!-- Start/finish line -->
  <line x1="349.58" y1="434.96" x2="389.24" y2="429.78"
        stroke="#f5f5f5" stroke-width="9.6"
        stroke-linecap="round"/>
</svg>
