<?xml version="1.0" encoding="utf-8"?>
<svg xmlns="http://www.w3.org/2000/svg"
     width="800.0" height="238.7"
     viewBox="0 0 800.0 238.7">
  <rect width="100%" height="100%" fill="#1a1a2e"/>
  <!-- Track outline -->
  <polyline points="271.04,89.66 284.78,92.06 333.35,97.76 340.38,99.35 343.97,100.55 347.32,102.20 349.25,103.66 350.98,105.35 352.47,107.26 354.09,110.62 355.27,114.19 356.86,120.76 357.84,124.09 359.14,127.29 360.28,129.27 361.62,131.14 363.25,132.72 364.80,133.72 366.58,134.56 368.45,135.16 370.33,135.52 372.86,135.54 375.45,135.12 377.93,134.37 380.25,133.29 382.46,131.88 384.45,130.24 386.91,127.45 388.89,124.27 391.34,116.74 395.56,102.67 398.98,96.43 403.42,90.27 409.04,84.50 414.50,80.19 421.08,76.26 428.45,72.87 436.24,70.20 458.87,65.94 492.35,63.61 547.40,64.24 555.15,64.84 658.69,73.05 700.17,75.77 707.79,77.01 715.18,79.02 722.41,81.84 729.31,85.53 735.90,89.97 741.86,95.30 747.15,101.50 751.71,108.43 755.38,115.78 758.01,123.47 759.66,131.25 760.00,138.79 759.27,146.01 758.46,149.44 757.35,152.78 756.00,155.88 754.30,158.91 751.94,162.32 749.17,165.54 746.09,168.35 742.74,170.84 739.19,173.06 735.44,174.95 727.51,177.71 720.78,178.86 713.94,179.00 706.94,178.29 663.87,167.82 656.12,167.36 640.12,168.66 632.12,170.49 617.20,176.82 596.31,189.88 589.23,193.49 582.15,196.33 574.90,198.19 571.19,198.61 567.48,198.71 560.24,197.95 553.25,196.18 532.80,188.83 518.03,185.59 510.21,184.96 494.08,186.55 478.34,190.75 470.15,192.14 461.72,192.91 453.38,192.38 445.21,190.33 437.33,187.21 421.68,179.51 388.05,169.83 379.75,167.10 363.85,159.90 303.79,124.78 292.93,120.64 283.06,118.18 271.99,116.33 260.72,115.64 249.64,116.15 237.70,118.18 193.85,133.60 166.29,143.85 146.20,148.80 132.60,150.66 118.80,150.70 105.10,148.92 91.87,145.11 85.46,142.41 79.22,139.14 73.20,135.34 67.52,131.02 62.35,126.13 57.73,120.74 53.60,115.01 46.84,102.89 44.10,96.73 41.30,88.29 40.45,84.02 40.00,79.71 40.00,75.42 40.36,71.16 41.01,66.99 42.06,62.95 43.58,59.14 45.54,55.57 47.94,52.35 50.71,49.44 53.87,46.84 57.34,44.64 61.09,42.82 65.05,41.44 69.18,40.51 73.44,40.00 82.32,40.09 89.17,41.19 117.50,50.64 199.32,77.13 271.04,89.66"
        fill="none"
        stroke="#e94560"
        stroke-width="8.0"
        stroke-linejoin="round"
        stroke-linecap="round"/>
  <!-- Start/finish line -->
  <line x1="274.48" y1="69.96" x2="267.60" y2="109.36"
        stroke="#f5f5f5" stroke-width="9.6"
        stroke-linecap="round"/>
</svg>
