<?xml version="1.0" encoding="utf-8"?>
<svg xmlns="http://www.w3.org/2000/svg"
     width="800.0" height="584.8"
     viewBox="0 0 800.0 584.8">
  <rect width="100%" height="100%" fill="#1a1a2e"/>
  <!-- Track outline -->
  <polyline points="123.20,264.47 85.05,335.40 48.72,401.89 44.86,411.52 42.48,420.20 40.70,431.17 40.00,442.49 40.33,453.61 41.72,464.63 44.27,475.69 47.72,486.07 51.20,493.79 55.46,501.12 62.08,510.44 69.49,519.18 76.00,525.54 82.74,530.93 89.30,535.15 96.26,538.59 104.62,541.61 113.28,543.72 121.40,544.72 129.57,544.84 138.30,544.05 147.05,542.37 155.78,539.78 164.45,536.25 173.73,531.34 182.90,525.36 201.95,509.11 222.61,484.01 248.77,441.21 278.14,387.08 318.26,309.88 321.87,300.85 324.00,292.89 325.44,283.61 325.95,274.09 325.62,264.06 324.29,254.16 321.92,245.34 318.54,236.21 304.41,205.80 300.20,192.49 298.50,181.40 298.46,177.01 298.86,172.67 299.92,167.48 301.48,162.39 303.33,158.04 305.58,153.97 308.32,150.02 311.47,146.39 315.07,143.10 318.99,140.22 323.26,137.72 327.77,135.69 332.50,134.12 337.38,133.05 342.24,132.50 347.61,132.46 368.52,134.95 447.23,145.70 460.76,148.94 476.65,155.11 492.25,163.57 507.62,174.53 528.17,192.27 611.88,273.71 648.53,306.71 656.45,312.27 663.52,316.12 669.06,318.25 674.75,319.57 682.61,320.39 690.53,320.30 696.62,319.48 702.39,317.89 707.93,315.53 713.40,312.28 720.09,307.14 726.98,300.46 737.35,287.71 746.78,274.10 751.67,265.83 755.38,257.90 757.84,250.44 759.41,243.26 760.00,237.94 760.00,232.87 759.47,227.99 758.41,223.29 756.86,218.97 754.84,214.95 752.44,211.43 749.56,208.23 746.03,205.12 741.22,202.03 696.84,184.38 630.30,161.10 388.09,70.64 312.45,43.13 301.86,40.85 292.96,40.00 284.54,40.03 276.37,41.01 268.34,43.00 260.79,45.79 254.94,48.65 249.45,52.25 243.52,57.35 237.36,64.03 213.82,97.77 163.91,188.79 123.20,264.47"
        fill="none"
        stroke="#e94560"
        stroke-width="8.0"
        stroke-linejoin="round"
        stroke-linecap="round"/>
  <!-- Start/finish line -->
  <line x1="140.82" y1="273.94" x2="105.59" y2="255.00"
        stroke="#f5f5f5" stroke-width="9.6"
        stroke-linecap="round"/>
</svg>
