<?xml version="1.0" encoding="utf-8"?>
<svg xmlns="http://www.w3.org/2000/svg"
     width="412.6" height="800.0"
     viewBox="0 0 412.6 800.0">
  <rect width="100%" height="100%" fill="#1a1a2e"/>
  <!-- Track outline -->
  <polyline points="44.40,286.51 45.64,315.69 48.47,391.36 50.44,462.17 50.75,470.34 51.16,479.54 51.61,489.24 52.08,498.91 52.51,508.02 52.87,516.05 52.93,522.28 53.04,526.42 53.29,530.73 53.49,533.43 53.70,536.85 53.94,540.75 54.19,544.92 54.43,549.14 54.69,553.18 54.92,556.84 56.60,591.55 57.59,606.76 59.24,626.07 61.73,640.02 66.21,655.35 72.47,671.62 78.52,683.60 85.25,694.36 97.94,710.41 108.54,721.28 116.72,727.76 126.43,734.23 138.08,741.22 148.56,746.53 159.31,750.80 176.45,755.92 190.98,758.59 209.38,760.00 322.87,755.45 334.60,753.80 343.31,751.57 348.97,749.11 353.51,746.53 357.47,743.70 364.02,737.16 366.59,733.55 370.44,725.68 371.76,721.25 372.51,716.47 372.58,711.48 371.87,706.07 370.37,700.00 367.19,692.65 362.84,685.18 356.20,676.25 348.72,667.95 341.98,661.75 334.89,656.50 327.49,652.25 318.97,648.56 283.02,638.55 266.91,635.32 255.45,633.26 242.88,630.25 231.23,627.44 221.09,624.25 214.32,621.85 209.46,619.77 204.84,617.14 200.48,614.04 196.38,610.59 185.02,598.72 177.83,590.21 171.31,581.03 165.51,571.28 162.90,566.19 160.71,560.92 158.85,555.50 157.31,549.96 156.15,544.30 155.35,538.58 154.88,526.88 157.79,467.11 158.15,448.46 160.01,410.20 160.63,390.58 162.69,350.50 168.58,195.37 169.84,120.29 167.34,81.03 163.94,67.64 162.15,63.55 157.44,56.10 154.47,52.79 147.50,47.15 143.56,44.87 135.05,41.50 130.52,40.56 121.24,40.00 112.17,40.80 102.33,42.54 92.81,45.18 83.83,48.62 76.70,52.42 70.89,56.15 66.94,59.27 61.85,64.27 56.45,70.48 52.05,76.94 48.28,83.89 45.23,91.26 42.86,98.98 40.15,114.99 40.00,148.36 40.57,182.74 41.36,200.28 42.45,223.98 43.88,260.24 44.33,284.81 44.40,286.51"
        fill="none"
        stroke="#e94560"
        stroke-width="8.0"
        stroke-linejoin="round"
        stroke-linecap="round"/>
  <!-- Start/finish line -->
  <line x1="64.38" y1="285.66" x2="24.41" y2="287.36"
        stroke="#f5f5f5" stroke-width="9.6"
        stroke-linecap="round"/>
</svg>
