<?xml version="1.0" encoding="utf-8"?>
<svg xmlns="http://www.w3.org/2000/svg"
     width="800.0" height="455.4"
     viewBox="0 0 800.0 455.4">
  <rect width="100%" height="100%" fill="#1a1a2e"/>
  <!-- Track outline -->
  <polyline points="585.44,381.35 552.30,364.96 522.92,345.19 515.12,338.40 508.23,330.89 493.10,307.35 457.95,242.69 445.52,225.76 432.32,211.79 415.15,198.41 396.11,186.90 348.81,166.28 270.22,142.03 197.76,124.96 185.25,124.41 176.05,125.86 171.88,127.09 168.18,128.75 164.73,130.88 162.29,132.72 159.87,134.83 157.81,137.15 156.38,139.64 155.84,141.39 155.51,143.31 155.43,145.27 155.55,147.15 155.91,148.83 156.69,150.55 157.84,152.00 159.37,153.42 161.34,155.05 182.02,168.29 210.10,183.18 246.16,199.76 279.42,212.33 291.34,215.29 303.04,216.38 330.68,214.30 357.61,211.38 376.41,211.57 387.28,213.59 398.04,217.00 407.75,221.73 416.37,227.60 420.21,231.04 423.57,234.76 426.35,238.95 428.40,243.40 429.93,248.25 430.96,253.44 431.57,263.15 430.69,273.21 427.83,283.51 423.67,293.03 419.07,300.70 414.03,306.86 411.39,309.27 408.72,311.14 405.74,312.59 401.55,313.79 396.92,314.39 391.83,314.58 380.24,313.94 367.19,311.62 349.91,306.12 330.16,297.81 253.01,257.20 135.87,193.98 83.20,163.63 72.43,155.79 63.80,148.00 57.80,141.13 52.61,133.51 47.00,123.18 42.62,112.36 41.14,106.96 40.19,101.68 40.00,96.26 41.84,86.55 45.20,77.01 49.13,68.22 53.87,60.46 57.32,56.29 61.09,52.67 65.19,49.61 72.34,46.06 80.84,43.62 99.41,40.81 118.71,40.00 129.31,40.95 139.94,43.39 180.91,59.49 307.26,111.79 437.24,150.44 449.92,156.12 459.79,162.09 469.49,169.40 478.61,178.00 487.70,188.44 496.06,200.21 509.86,227.34 524.15,256.26 533.93,268.90 544.82,279.72 555.28,287.72 567.62,294.64 628.70,316.33 720.89,341.73 731.57,346.04 739.82,350.66 746.87,355.78 752.73,361.84 755.38,366.08 757.52,370.72 759.00,375.29 759.72,378.82 760.00,382.27 759.76,385.78 758.64,389.94 756.78,394.13 754.52,398.23 751.33,403.20 747.61,408.01 743.77,411.61 740.89,413.17 737.94,413.91 734.27,414.43 716.51,415.42 696.21,414.31 667.68,409.10 636.04,400.36 614.59,392.74 595.91,385.82 589.55,383.38 585.44,381.35"
        fill="none"
        stroke="#e94560"
        stroke-width="8.0"
        stroke-linejoin="round"
        stroke-linecap="round"/>
  <!-- Start/finish line -->
  <line x1="576.57" y1="399.28" x2="594.30" y2="363.42"
        stroke="#f5f5f5" stroke-width="9.6"
        stroke-linecap="round"/>
</svg>
