<?xml version="1.0" encoding="utf-8"?>
<svg xmlns="http://www.w3.org/2000/svg"
     width="403.7" height="800.0"
     viewBox="0 0 403.7 800.0">
  <rect width="100%" height="100%" fill="#1a1a2e"/>
  <!-- Track outline -->
  <polyline points="323.16,476.43 333.75,416.54 361.18,261.20 362.97,245.46 363.68,226.60 363.68,206.42 360.11,178.56 352.12,153.86 338.42,123.63 318.63,92.63 310.07,82.94 296.68,71.15 282.24,62.47 265.05,53.28 246.32,45.91 225.97,40.84 211.37,40.00 196.00,41.10 180.38,45.93 167.90,51.84 147.79,65.09 132.14,78.93 116.75,93.75 87.81,132.80 54.86,195.57 45.47,217.49 41.28,229.50 40.00,240.69 41.38,251.69 43.66,258.80 46.44,264.70 49.14,269.58 52.05,274.09 55.13,278.69 58.70,282.94 62.77,286.94 67.26,290.53 72.16,293.73 77.37,296.43 82.86,298.56 88.54,300.13 94.31,301.10 100.18,301.48 105.77,301.31 112.14,300.43 142.96,289.56 156.69,285.18 165.94,282.99 174.90,281.61 183.52,281.29 191.55,282.56 200.64,285.69 207.60,289.54 214.95,293.75 220.56,298.88 225.01,304.21 227.98,309.17 230.90,314.35 233.28,319.87 236.76,331.77 238.30,344.55 238.13,354.52 236.81,364.62 234.33,374.76 221.23,417.47 216.58,443.16 215.30,455.40 215.93,465.48 219.08,475.62 225.38,485.93 231.64,493.28 244.56,508.72 251.26,518.90 253.86,524.00 255.94,529.22 257.28,534.37 258.01,539.57 258.13,544.75 257.68,549.90 256.70,554.93 254.35,560.19 250.98,564.79 247.06,568.89 242.35,572.20 237.01,575.38 230.66,577.72 223.71,579.14 213.61,581.16 205.09,583.07 197.69,586.12 190.88,590.20 187.77,593.32 183.41,599.03 179.35,606.53 176.08,615.36 173.80,623.27 172.40,631.28 170.90,639.91 170.30,647.80 170.27,654.89 171.34,660.34 173.00,666.04 176.11,672.40 179.75,678.09 183.41,683.57 191.86,692.98 213.07,716.39 232.89,744.15 238.77,750.81 243.11,754.35 247.40,756.67 251.40,758.95 256.23,759.96 260.65,760.00 264.61,758.86 268.90,756.48 272.59,753.04 274.87,748.68 276.21,743.33 277.46,735.10 323.16,476.43"
        fill="none"
        stroke="#e94560"
        stroke-width="8.0"
        stroke-linejoin="round"
        stroke-linecap="round"/>
  <!-- Start/finish line -->
  <line x1="303.46" y1="472.95" x2="342.85" y2="479.91"
        stroke="#f5f5f5" stroke-width="9.6"
        stroke-linecap="round"/>
</svg>
