<?xml version="1.0" encoding="utf-8"?>
<svg xmlns="http://www.w3.org/2000/svg"
     width="800.0" height="662.7"
     viewBox="0 0 800.0 662.7">
  <rect width="100%" height="100%" fill="#1a1a2e"/>
  <!-- Track outline -->
  <polyline points="481.78,604.27 445.58,608.40 294.47,622.54 274.77,622.70 255.47,621.17 236.76,618.35 218.59,613.73 201.10,607.15 183.16,597.88 169.41,587.01 156.93,576.12 148.29,565.56 133.26,542.85 80.91,456.83 51.13,401.26 45.48,386.69 41.30,371.39 40.21,363.53 40.00,355.63 41.05,347.46 43.14,339.63 45.99,333.08 49.69,327.02 54.33,321.17 59.66,315.76 65.70,310.68 72.29,306.18 79.71,302.20 87.37,299.02 94.39,296.97 101.52,295.59 117.25,294.33 167.06,297.85 232.37,308.78 264.27,317.56 271.87,320.44 278.42,323.65 284.67,327.51 290.25,332.13 294.78,337.67 298.38,343.88 301.00,350.55 302.72,357.56 303.51,364.78 303.47,372.09 302.75,379.71 301.10,387.27 298.12,395.14 294.24,402.54 290.01,408.60 285.18,414.17 273.17,425.13 221.03,465.25 215.04,470.94 210.72,476.39 207.93,481.13 205.63,486.30 204.14,491.63 203.66,497.17 204.00,502.89 204.98,508.27 206.44,512.89 208.44,517.24 210.95,521.25 213.99,524.92 217.57,528.26 221.48,530.98 225.80,533.06 230.49,534.56 235.30,535.42 240.46,535.57 245.75,535.05 251.03,534.01 259.39,531.19 267.31,527.31 273.82,523.12 279.79,518.22 285.23,512.89 291.15,505.70 337.06,436.63 346.45,425.31 353.00,419.25 360.25,413.90 367.59,410.04 375.28,407.32 383.27,405.79 391.43,405.36 399.74,406.12 408.02,407.90 416.31,410.47 424.37,413.96 439.61,424.00 466.08,446.18 472.65,450.83 478.90,454.41 485.48,457.17 492.28,459.13 499.28,460.23 506.36,460.47 513.52,459.80 520.58,458.27 527.55,455.88 534.22,452.67 540.42,448.72 546.09,444.07 551.20,438.87 555.62,432.90 559.52,425.07 562.17,416.77 563.05,409.64 562.82,402.57 561.61,395.26 559.57,387.98 553.18,373.07 544.53,358.45 533.66,345.04 520.77,332.68 496.98,316.25 464.75,298.13 339.27,250.24 178.98,195.21 120.57,171.86 105.10,164.49 91.14,156.56 79.01,147.87 73.73,143.19 68.86,137.96 63.67,131.13 59.42,123.61 57.49,118.37 56.17,112.89 55.52,107.39 55.94,98.82 57.66,90.55 60.03,83.82 63.23,77.58 67.37,71.40 72.27,65.68 78.08,60.23 84.58,55.39 92.23,51.05 100.13,47.53 113.63,43.43 128.15,40.80 143.55,40.00 159.47,41.19 175.64,44.01 191.95,48.17 240.64,68.12 304.67,95.63 425.46,124.03 476.86,140.77 537.68,167.79 609.01,208.95 711.98,276.71 723.45,285.37 735.72,296.26 745.85,307.98 749.99,314.23 753.49,320.77 756.24,327.57 758.23,334.61 759.49,341.80 760.00,349.11 759.74,356.70 758.70,364.38 753.94,380.36 735.09,426.35 693.39,501.51 674.99,528.53 664.56,540.68 652.96,551.61 640.26,561.37 626.43,569.85 611.79,577.13 580.17,588.64 545.51,596.96 481.78,604.27"
        fill="none"
        stroke="#e94560"
        stroke-width="8.0"
        stroke-linejoin="round"
        stroke-linecap="round"/>
  <!-- Start/finish line -->
  <line x1="484.06" y1="624.14" x2="479.51" y2="584.40"
        stroke="#f5f5f5" stroke-width="9.6"
        stroke-linecap="round"/>
</svg>
