<?xml version="1.0" encoding="utf-8"?>
<svg xmlns="http://www.w3.org/2000/svg"
     width="800.0" height="452.1"
     viewBox="0 0 800.0 452.1">
  <rect width="100%" height="100%" fill="#1a1a2e"/>
  <!-- Track outline -->
  <polyline points="412.98,66.71 411.21,66.46 408.88,66.13 406.53,65.83 404.18,65.52 401.82,65.24 399.43,64.96 397.05,64.69 394.65,64.44 392.24,64.18 389.82,63.95 387.42,63.69 384.96,63.51 382.50,63.35 380.03,63.19 377.57,63.06 375.09,62.94 372.61,62.87 370.11,62.79 367.61,62.73 365.10,62.68 362.59,62.64 360.07,62.62 357.53,62.61 354.99,62.61 352.44,62.62 349.89,62.64 347.31,62.68 344.72,62.73 342.13,62.79 339.53,62.85 336.92,62.92 334.31,63.02 331.70,63.12 329.07,63.24 326.45,63.35 323.82,63.50 321.19,63.67 318.55,63.87 315.92,64.04 313.34,64.24 310.80,64.45 308.29,64.68 305.82,64.92 303.40,65.16 301.00,65.42 298.64,65.67 296.31,65.93 294.03,66.19 291.79,66.45 289.57,66.71 287.40,66.99 285.25,67.27 283.15,67.55 281.08,67.84 279.04,68.13 277.03,68.43 275.05,68.73 273.11,69.03 271.22,69.34 269.35,69.65 267.52,69.95 265.73,70.27 263.98,70.57 262.26,70.86 260.58,71.18 258.93,71.49 257.33,71.79 255.76,72.10 254.21,72.43 252.70,72.73 251.23,73.05 249.81,73.39 248.44,73.76 247.09,74.11 245.79,74.50 244.51,74.92 243.28,75.35 242.08,75.80 240.94,76.27 239.82,76.76 238.74,77.28 237.69,77.82 236.68,78.38 235.70,78.98 233.87,80.20 233.02,80.85 232.19,81.52 231.40,82.22 230.66,82.95 229.97,83.71 229.33,84.49 228.71,85.30 228.11,86.16 227.55,87.05 227.04,87.99 226.56,88.97 226.09,89.97 225.64,91.03 225.19,92.10 224.75,93.16 224.30,94.24 223.81,95.33 223.33,96.43 222.81,97.53 222.23,98.66 221.62,99.75 220.96,100.81 220.24,101.86 219.49,102.87 218.69,103.86 217.86,104.83 216.99,105.76 216.09,106.67 215.13,107.54 214.14,108.38 213.10,109.20 212.03,109.99 210.92,110.76 209.76,111.51 208.56,112.23 207.32,112.96 206.05,113.65 204.74,114.34 203.42,114.98 202.07,115.61 200.70,116.23 199.32,116.85 197.92,117.49 196.53,118.15 195.12,118.81 193.72,119.50 192.33,120.21 190.95,120.97 189.57,121.77 188.21,122.59 186.87,123.47 185.55,124.37 184.25,125.32 182.97,126.31 181.71,127.34 180.48,128.39 179.27,129.50 178.08,130.66 176.92,131.85 175.77,133.09 174.65,134.37 173.55,135.68 172.48,137.04 171.41,138.42 170.39,139.83 169.39,141.29 168.41,142.78 167.46,144.32 166.53,145.89 165.63,147.49 164.76,149.13 163.89,150.80 163.06,152.51 162.24,154.24 161.45,156.01 160.67,157.79 159.92,159.59 159.18,161.42 158.41,163.27 157.66,165.15 156.92,167.04 156.16,168.94 155.41,170.85 154.66,172.79 153.91,174.75 153.16,176.73 152.42,178.73 151.67,180.73 150.92,182.75 150.17,184.79 148.61,188.89 147.81,190.96 147.03,193.01 146.22,195.08 145.42,197.17 144.59,199.27 143.75,201.38 142.91,203.49 142.06,205.62 141.19,207.76 140.31,209.90 139.42,212.06 138.52,214.23 137.62,216.40 136.71,218.60 135.80,220.80 134.89,223.01 133.98,225.24 133.06,227.47 132.14,229.71 131.21,231.95 130.28,234.21 129.35,236.47 128.41,238.71 127.49,240.93 126.59,243.12 125.69,245.28 124.82,247.42 123.97,249.53 123.14,251.59 122.33,253.62 121.55,255.62 120.81,257.57 120.07,259.49 119.37,261.39 118.71,263.25 118.08,265.08 117.47,266.88 116.89,268.65 116.35,270.39 115.85,272.11 115.37,273.81 114.94,275.48 114.54,277.13 114.19,278.76 113.87,280.38 113.61,281.97 113.40,283.54 113.22,285.09 113.10,286.63 113.03,288.14 113.02,289.64 113.04,291.12 113.12,292.60 113.24,294.07 113.43,295.52 113.65,297.00 113.89,298.47 114.15,299.92 114.39,301.35 114.64,302.77 114.89,304.17 115.11,305.56 115.33,306.93 115.52,308.28 115.68,309.61 115.80,310.93 115.88,312.22 115.90,313.49 115.90,314.74 115.84,315.98 115.74,317.19 115.60,318.37 115.42,319.54 115.19,320.69 114.92,321.80 114.61,322.91 114.25,323.99 113.84,325.07 113.39,326.14 112.90,327.20 112.35,328.26 111.76,329.28 111.12,330.31 110.44,331.34 109.71,332.35 108.95,333.35 108.14,334.35 107.28,335.34 106.37,336.33 105.43,337.30 104.45,338.29 103.44,339.27 102.39,340.24 101.30,341.21 100.18,342.18 99.02,343.17 97.83,344.16 96.62,345.15 95.39,346.15 94.13,347.16 92.83,348.17 91.52,349.19 90.17,350.20 88.81,351.24 87.42,352.28 86.01,353.33 84.58,354.37 83.11,355.43 81.64,356.50 80.14,357.57 78.62,358.65 77.09,359.75 75.54,360.85 73.97,361.95 72.39,363.07 70.79,364.20 69.22,365.32 67.66,366.42 66.14,367.51 64.63,368.57 63.16,369.64 61.73,370.68 60.33,371.70 58.98,372.71 57.66,373.71 56.39,374.71 55.16,375.69 53.96,376.66 52.82,377.63 51.72,378.59 50.67,379.54 49.64,380.49 48.69,381.43 47.76,382.36 46.88,383.29 46.06,384.22 45.28,385.14 44.56,386.06 43.27,387.88 42.71,388.79 42.19,389.70 41.73,390.60 41.32,391.50 40.98,392.39 40.68,393.27 40.44,394.13 40.25,395.00 40.12,395.84 40.04,396.67 40.00,397.49 40.02,398.28 40.05,399.05 40.16,399.81 40.32,400.56 40.52,401.28 40.79,402.01 41.08,402.71 41.43,403.40 41.82,404.07 42.25,404.70 42.72,405.31 43.21,405.89 43.75,406.45 44.34,406.97 44.97,407.47 45.66,407.94 46.37,408.38 47.13,408.80 47.95,409.21 48.80,409.63 49.70,409.99 50.64,410.34 51.62,410.66 52.62,410.94 53.66,411.20 54.74,411.43 55.84,411.62 56.99,411.78 58.16,411.93 59.36,412.02 60.59,412.08 61.87,412.10 63.17,412.07 64.50,412.00 65.84,411.91 67.22,411.80 68.60,411.66 70.03,411.52 71.48,411.33 72.95,411.14 74.47,410.93 76.00,410.70 77.55,410.45 79.08,410.20 80.65,409.94 82.23,409.67 83.82,409.39 85.44,409.09 87.08,408.77 88.73,408.46 90.42,408.15 92.12,407.82 93.84,407.48 95.58,407.14 97.35,406.80 99.13,406.46 100.93,406.12 102.75,405.78 104.59,405.44 106.44,405.10 108.32,404.76 110.21,404.42 112.12,404.07 114.04,403.73 115.96,403.39 117.91,403.05 119.87,402.70 121.85,402.36 123.84,402.02 125.86,401.68 127.88,401.35 129.92,401.01 131.98,400.67 134.05,400.36 136.14,400.04 138.24,399.73 140.35,399.44 142.47,399.15 144.60,398.88 146.75,398.62 148.89,398.37 151.04,398.14 153.21,397.92 155.38,397.72 157.58,397.54 159.78,397.38 161.99,397.23 164.21,397.11 166.44,397.00 168.68,396.91 170.93,396.84 173.18,396.80 175.45,396.77 177.71,396.76 179.99,396.77 182.28,396.80 184.55,396.86 186.84,396.94 189.14,397.06 191.44,397.18 193.75,397.34 196.07,397.51 198.42,397.69 200.74,397.91 203.05,398.14 205.35,398.39 207.62,398.63 209.86,398.91 212.07,399.19 214.24,399.48 216.39,399.77 218.50,400.08 220.58,400.39 222.65,400.71 224.66,401.08 226.63,401.44 228.57,401.80 230.49,402.16 232.37,402.52 234.22,402.88 236.04,403.26 237.83,403.63 239.60,403.98 241.33,404.31 243.04,404.64 244.71,404.96 246.37,405.25 248.01,405.55 249.62,405.81 251.21,406.04 252.78,406.24 254.32,406.40 255.84,406.54 257.34,406.62 258.81,406.66 260.26,406.65 261.69,406.59 263.09,406.50 264.46,406.35 265.81,406.18 267.15,405.95 268.46,405.67 269.76,405.34 271.05,404.95 272.31,404.52 273.56,404.03 274.78,403.50 275.98,402.92 277.16,402.28 278.32,401.60 279.46,400.88 280.58,400.11 281.67,399.31 282.73,398.45 283.76,397.56 284.76,396.62 285.73,395.64 286.68,394.61 287.61,393.53 288.51,392.42 289.38,391.26 290.23,390.05 291.03,388.80 291.81,387.51 292.56,386.19 293.28,384.84 294.00,383.44 294.67,382.03 295.33,380.59 295.95,379.10 296.56,377.60 297.14,376.06 297.70,374.51 298.25,372.92 298.73,371.28 299.19,369.62 299.62,367.92 300.01,366.22 300.37,364.50 300.70,362.74 300.99,360.99 301.26,359.19 301.50,357.37 301.69,355.53 301.86,353.65 301.99,351.77 302.09,349.86 302.17,347.92 302.21,345.97 302.21,344.04 302.17,342.11 302.11,340.17 302.02,338.18 301.90,336.19 301.74,334.18 301.57,332.15 301.37,330.15 301.12,328.08 300.82,325.98 300.48,323.87 300.11,321.81 299.69,319.66 299.25,317.54 298.79,315.46 298.31,313.34 297.82,311.20 297.31,309.05 296.80,306.89 296.28,304.72 295.76,302.53 295.25,300.35 294.75,298.19 294.26,296.07 293.78,293.96 293.33,291.89 292.90,289.83 292.50,287.83 292.10,285.83 291.70,283.88 291.34,281.96 291.02,280.09 290.72,278.22 290.45,276.39 290.22,274.57 289.99,272.78 289.82,271.00 289.69,269.27 289.64,267.54 289.56,265.87 289.52,264.20 289.63,262.57 289.72,260.95 289.84,259.35 289.99,257.79 290.19,256.26 290.42,254.72 290.72,253.21 291.09,251.71 291.49,250.21 291.94,248.71 292.46,247.24 293.03,245.76 293.60,244.31 294.21,242.91 294.85,241.54 295.51,240.19 296.16,238.88 296.87,237.62 297.57,236.39 298.26,235.22 298.96,234.08 299.65,232.94 300.36,231.84 301.08,230.81 301.81,229.81 302.56,228.87 303.32,227.98 304.09,227.15 304.87,226.35 305.68,225.62 306.50,224.94 307.33,224.31 308.17,223.73 309.01,223.20 309.86,222.72 310.71,222.27 311.57,221.87 312.47,221.54 313.40,221.27 314.32,221.02 315.27,220.82 316.23,220.67 317.19,220.56 318.16,220.50 319.16,220.47 320.16,220.50 321.19,220.56 322.23,220.67 323.30,220.83 324.41,221.04 325.52,221.30 326.65,221.61 327.80,221.93 328.97,222.26 330.16,222.62 331.38,222.97 332.63,223.33 333.86,223.71 335.14,224.08 336.45,224.43 337.76,224.77 339.10,225.11 340.45,225.42 341.85,225.72 343.27,226.01 344.70,226.27 346.16,226.50 347.65,226.72 349.16,226.92 350.68,227.10 352.22,227.25 353.79,227.39 355.38,227.55 357.00,227.68 358.64,227.81 360.29,227.91 361.97,228.00 363.68,228.08 365.41,228.15 367.15,228.21 368.93,228.24 370.70,228.27 372.51,228.29 374.33,228.30 376.18,228.28 378.05,228.26 379.93,228.26 381.82,228.24 383.74,228.22 385.68,228.20 387.60,228.18 389.54,228.14 391.52,228.10 393.50,228.06 395.50,228.01 397.51,227.95 399.55,227.89 401.60,227.83 403.67,227.74 405.75,227.66 407.84,227.60 409.95,227.53 412.08,227.46 414.22,227.37 416.38,227.28 418.54,227.18 420.73,227.09 422.93,226.98 425.13,226.89 427.35,226.78 429.56,226.69 431.83,226.53 434.09,226.43 436.36,226.33 438.64,226.23 440.94,226.14 443.24,226.05 445.49,225.94 447.75,225.84 449.97,225.73 452.17,225.60 454.33,225.49 456.43,225.45 458.51,225.39 460.54,225.33 462.54,225.25 464.51,225.17 466.46,225.11 468.39,225.07 470.28,225.02 472.09,224.97 473.87,225.00 475.64,225.00 477.31,224.94 478.92,224.94 480.55,224.93 482.17,224.90 483.74,224.92 485.23,224.88 486.79,224.83 488.22,224.79 489.62,224.79 491.03,224.80 492.41,224.84 493.75,224.83 495.02,224.87 496.24,225.00 497.44,225.12 498.59,225.25 499.69,225.43 500.79,225.63 501.74,225.95 502.68,226.28 503.59,226.62 504.50,226.93 505.37,227.31 506.19,227.74 506.97,228.22 507.73,228.74 508.47,229.25 509.23,229.73 509.96,230.23 510.66,230.74 511.34,231.27 512.01,231.79 512.69,232.30 513.35,232.80 514.03,233.27 514.68,233.76 515.34,234.18 516.03,234.59 516.71,234.95 517.42,235.26 518.13,235.52 518.87,235.76 519.61,236.01 520.38,236.20 521.17,236.36 522.00,236.49 522.83,236.57 523.71,236.60 525.53,236.54 526.48,236.47 527.46,236.35 528.48,236.21 529.52,236.03 530.59,235.80 531.67,235.55 532.78,235.25 533.90,234.91 535.06,234.53 536.24,234.11 537.45,233.68 538.67,233.21 539.92,232.70 541.19,232.18 542.49,231.64 543.81,231.08 545.15,230.50 546.53,229.90 547.92,229.29 549.33,228.66 550.76,228.01 552.21,227.35 553.68,226.67 555.16,225.97 556.65,225.27 558.16,224.55 559.70,223.83 561.24,223.08 562.80,222.31 564.39,221.55 565.99,220.75 567.62,219.96 569.26,219.14 570.92,218.31 572.58,217.45 574.26,216.58 575.94,215.70 577.63,214.80 579.31,213.89 580.97,212.95 582.64,211.99 584.34,211.01 586.05,210.02 587.76,208.99 589.47,207.95 591.19,206.87 592.92,205.78 594.64,204.66 596.37,203.52 598.10,202.36 601.60,199.98 603.35,198.75 605.10,197.51 606.83,196.26 608.58,194.98 610.33,193.67 612.08,192.35 613.84,191.01 615.60,189.64 617.36,188.26 619.13,186.85 620.90,185.43 622.66,183.99 624.44,182.52 626.20,181.06 627.96,179.58 629.73,178.06 631.49,176.52 633.24,174.97 635.00,173.39 636.74,171.80 638.49,170.17 640.23,168.53 641.96,166.88 643.69,165.20 645.41,163.51 647.12,161.81 648.84,160.09 650.57,158.36 652.28,156.60 654.01,154.83 655.75,153.06 657.47,151.29 659.22,149.52 660.97,147.73 662.74,145.96 664.52,144.22 666.31,142.46 668.13,140.71 669.96,138.99 671.82,137.27 673.69,135.57 675.58,133.89 677.50,132.27 679.44,130.66 681.36,129.08 683.29,127.56 685.21,126.07 687.11,124.59 689.01,123.17 690.91,121.81 692.79,120.39 694.66,118.92 696.49,117.55 698.29,116.31 700.16,115.27 702.00,114.26 703.83,113.31 705.63,112.40 707.41,111.53 709.18,110.67 710.93,109.84 712.67,109.05 714.39,108.28 716.10,107.54 717.79,106.83 719.45,106.13 721.08,105.46 722.71,104.81 724.31,104.17 725.90,103.51 727.48,102.90 729.00,102.30 730.51,101.71 731.99,101.13 733.44,100.57 734.85,99.99 736.23,99.43 737.59,98.88 738.90,98.34 740.19,97.78 741.45,97.24 742.68,96.69 743.88,96.14 745.03,95.59 746.13,95.03 747.21,94.45 748.26,93.87 749.26,93.27 750.21,92.66 751.12,92.04 751.99,91.41 752.82,90.75 753.60,90.08 754.34,89.39 755.04,88.68 755.70,87.95 756.31,87.22 756.87,86.45 757.39,85.67 757.88,84.89 758.32,84.08 758.70,83.26 759.03,82.41 759.32,81.55 759.55,80.65 759.74,79.74 759.88,78.80 759.96,77.85 760.00,76.88 759.99,75.88 759.94,74.87 759.84,73.82 759.70,72.77 759.52,71.72 759.28,70.64 759.01,69.54 758.71,68.40 758.35,67.24 757.96,66.05 757.55,64.84 757.08,63.63 756.59,62.36 756.07,61.08 755.53,59.80 754.98,58.54 754.40,57.33 753.83,56.16 753.25,55.00 752.64,53.88 752.03,52.80 751.41,51.76 750.76,50.77 750.09,49.81 749.40,48.91 748.69,48.05 747.96,47.24 747.20,46.48 746.43,45.76 745.63,45.07 744.79,44.45 743.95,43.85 743.10,43.31 742.22,42.81 741.32,42.35 740.39,41.94 739.44,41.56 738.46,41.21 737.45,40.90 736.43,40.65 735.39,40.43 734.34,40.26 733.25,40.12 732.14,40.04 730.99,40.00 728.66,40.04 727.45,40.10 726.21,40.20 724.94,40.33 723.65,40.52 722.33,40.73 721.00,40.98 719.65,41.29 718.26,41.63 716.87,42.01 715.48,42.42 714.08,42.87 712.65,43.35 711.19,43.83 709.73,44.34 708.25,44.90 706.75,45.47 705.23,46.06 703.69,46.67 702.14,47.30 700.56,47.96 698.97,48.61 697.36,49.31 695.74,50.03 694.11,50.75 692.46,51.50 690.80,52.26 689.11,53.05 687.40,53.86 685.71,54.68 683.98,55.51 682.24,56.38 680.50,57.21 678.74,58.09 676.98,58.96 675.19,59.83 673.37,60.71 671.55,61.57 669.71,62.43 667.83,63.28 665.94,64.11 664.03,64.92 662.10,65.72 660.15,66.51 658.19,67.29 656.22,68.03 654.22,68.76 652.21,69.48 650.17,70.17 648.12,70.84 646.04,71.51 643.95,72.14 641.84,72.78 639.71,73.38 637.57,73.96 635.41,74.53 633.22,75.08 631.02,75.61 628.80,76.13 626.56,76.61 624.31,77.08 622.04,77.50 619.77,77.91 617.49,78.27 615.21,78.63 612.92,78.95 610.65,79.26 608.42,79.53 606.21,79.76 604.03,79.95 601.87,80.12 599.75,80.26 597.65,80.39 595.58,80.47 593.55,80.54 591.54,80.60 589.57,80.62 587.63,80.65 585.72,80.65 583.85,80.63 582.01,80.61 580.20,80.58 578.43,80.54 576.70,80.49 574.99,80.44 573.32,80.39 571.69,80.34 570.11,80.29 568.55,80.24 567.03,80.21 565.54,80.18 564.09,80.16 562.66,80.14 561.28,80.15 559.93,80.18 558.62,80.21 557.33,80.27 556.08,80.34 554.87,80.44 553.68,80.54 552.55,80.68 551.44,80.82 550.37,80.99 549.34,81.20 548.35,81.41 547.41,81.66 546.50,81.94 545.63,82.25 544.80,82.59 544.01,82.96 543.25,83.33 542.53,83.74 541.86,84.17 541.20,84.63 540.61,85.12 540.00,85.62 539.46,86.14 538.95,86.70 538.43,87.26 537.93,87.81 537.44,88.36 536.91,88.90 536.41,89.42 535.34,90.37 534.76,90.78 534.16,91.16 533.56,91.50 532.95,91.80 532.31,92.07 531.64,92.31 530.94,92.51 530.22,92.68 529.45,92.81 528.66,92.92 527.83,93.00 526.96,93.06 526.06,93.10 525.13,93.10 524.17,93.08 523.19,93.01 522.16,92.92 521.11,92.79 520.02,92.63 518.89,92.46 517.76,92.25 516.58,92.02 515.38,91.78 514.14,91.52 512.89,91.23 511.60,90.92 510.28,90.60 508.94,90.26 507.57,89.89 506.19,89.51 504.77,89.12 503.32,88.70 501.84,88.28 500.42,87.87 498.42,87.25 496.14,86.55 494.56,86.07 492.97,85.59 491.36,85.08 489.72,84.58 488.07,84.08 486.39,83.57 484.68,83.04 482.96,82.53 481.21,82.01 479.44,81.48 477.64,80.95 475.83,80.43 474.00,79.90 472.15,79.37 468.39,78.33 466.50,77.83 464.58,77.32 460.69,76.31 458.71,75.81 456.72,75.31 454.70,74.82 452.67,74.32 450.63,73.83 448.56,73.35 446.49,72.87 444.38,72.41 442.26,71.96 440.13,71.51 437.98,71.07 435.81,70.65 433.64,70.21 431.48,69.78 429.29,69.37 427.08,68.97 424.86,68.57 422.62,68.20 420.37,67.83 418.10,67.47 415.82,67.12 413.51,66.79 412.98,66.71"
        fill="none"
        stroke="#e94560"
        stroke-width="8.0"
        stroke-linejoin="round"
        stroke-linecap="round"/>
  <!-- Start/finish line -->
  <line x1="410.13" y1="86.51" x2="415.83" y2="46.91"
        stroke="#f5f5f5" stroke-width="9.6"
        stroke-linecap="round"/>
</svg>
