<?xml version="1.0" encoding="utf-8"?>
<svg xmlns="http://www.w3.org/2000/svg"
     width="800.0" height="708.0"
     viewBox="0 0 800.0 708.0">
  <rect width="100%" height="100%" fill="#1a1a2e"/>
  <!-- Track outline -->
  <polyline points="663.28,303.99 576.62,108.35 560.73,85.68 545.27,70.00 529.50,58.26 512.80,49.63 494.70,43.45 476.09,40.34 459.51,40.00 439.74,43.83 356.85,80.64 257.56,131.59 85.68,218.58 69.02,230.85 57.32,242.98 51.34,251.32 46.37,260.28 42.80,269.67 40.78,279.64 40.00,290.09 40.43,299.58 42.76,309.31 46.10,317.36 48.43,321.67 51.11,325.41 54.64,329.58 58.96,333.61 67.46,339.36 76.40,343.91 81.33,345.35 87.47,347.03 92.90,348.03 101.33,348.51 114.89,345.73 124.10,342.24 225.21,267.37 287.74,226.11 315.09,211.92 341.39,201.85 362.90,198.02 381.90,197.59 391.77,198.93 400.62,201.61 410.29,205.88 418.64,210.82 422.33,213.79 425.36,216.95 428.16,220.40 430.65,224.14 432.71,227.93 434.42,232.43 436.67,241.78 437.56,252.32 435.89,262.91 432.59,273.07 428.86,280.98 423.58,289.08 405.48,308.97 387.14,330.49 380.31,343.77 375.99,357.72 373.31,376.79 373.51,397.40 377.08,419.54 385.16,445.33 425.75,534.67 471.98,619.07 486.23,638.67 499.59,651.90 512.57,660.38 524.26,665.65 528.84,667.04 533.04,667.67 538.40,668.00 543.80,667.81 548.73,667.19 553.51,666.09 557.94,664.50 562.17,662.44 566.09,659.90 569.78,656.88 573.28,653.39 576.35,649.46 578.68,645.43 580.50,641.12 581.79,636.90 582.64,632.58 582.99,628.22 582.84,623.81 582.41,619.84 581.05,614.80 531.95,520.29 510.51,477.58 507.79,468.00 506.74,459.13 507.44,449.35 509.27,440.39 510.86,435.36 512.92,430.95 515.75,426.45 519.05,422.32 522.51,418.78 526.24,415.76 530.24,413.26 534.48,411.25 539.06,409.77 543.80,408.81 548.77,408.23 554.13,408.42 562.71,410.44 571.57,413.98 578.87,418.15 585.98,424.14 596.70,437.76 607.85,456.30 625.99,498.91 644.71,541.09 657.14,558.97 669.34,571.67 678.08,577.51 686.16,581.21 690.82,583.12 695.87,584.22 704.18,584.70 714.05,584.37 723.06,582.93 729.00,580.87 734.36,578.14 739.02,575.17 743.14,571.76 746.60,568.07 749.71,564.29 752.46,560.21 754.76,556.00 756.62,551.59 758.10,547.27 759.11,542.14 760.00,530.31 758.06,513.72 720.85,424.91 667.55,313.67 663.28,303.99"
        fill="none"
        stroke="#e94560"
        stroke-width="8.0"
        stroke-linejoin="round"
        stroke-linecap="round"/>
  <!-- Start/finish line -->
  <line x1="644.99" y1="312.09" x2="681.57" y2="295.89"
        stroke="#f5f5f5" stroke-width="9.6"
        stroke-linecap="round"/>
</svg>
