<?xml version="1.0" encoding="utf-8"?>
<svg xmlns="http://www.w3.org/2000/svg"
     width="800.0" height="577.0"
     viewBox="0 0 800.0 577.0">
  <rect width="100%" height="100%" fill="#1a1a2e"/>
  <!-- Track outline -->
  <polyline points="392.71,47.45 591.78,53.24 656.99,57.06 685.95,59.43 700.59,62.71 713.47,67.75 725.68,74.69 735.73,82.68 744.34,92.34 751.30,103.37 756.37,115.46 759.34,128.32 760.00,141.50 758.40,154.64 756.71,161.13 754.51,167.33 748.47,179.15 739.59,190.97 729.98,200.37 717.63,209.12 705.26,215.20 690.48,219.76 673.33,222.39 647.00,223.01 593.58,223.65 570.98,221.53 547.87,216.89 524.44,209.94 496.98,198.98 435.95,174.82 364.69,153.59 322.65,142.34 316.76,141.90 311.88,142.30 307.41,143.20 303.06,144.80 298.24,147.52 293.73,151.00 290.44,154.40 287.61,158.29 285.31,162.49 283.56,167.11 282.59,171.75 282.26,176.77 282.72,183.09 284.29,190.96 309.92,264.82 321.38,296.45 325.21,303.13 329.18,308.34 333.41,312.72 337.99,316.39 343.67,319.90 349.72,322.69 356.19,324.77 362.84,326.03 369.68,326.47 376.62,326.01 383.97,324.55 391.42,322.07 399.48,318.13 407.69,313.20 426.17,300.19 442.29,291.73 457.33,286.29 473.64,282.86 492.88,281.35 532.32,281.83 699.50,290.12 712.84,291.45 717.43,292.71 721.72,294.47 725.97,296.77 729.94,299.62 733.12,302.71 735.93,306.21 738.13,309.70 739.92,313.50 741.16,317.43 741.92,321.56 742.12,325.76 741.80,329.95 740.93,334.15 739.55,338.21 737.42,342.58 734.76,346.71 731.20,351.16 727.17,355.22 722.50,359.03 717.33,362.49 702.30,370.31 675.65,384.66 666.26,391.62 658.03,399.15 652.08,405.80 647.09,413.02 643.55,420.15 640.82,427.87 638.81,436.15 637.72,445.18 639.33,470.17 639.10,483.00 638.23,488.73 636.86,494.18 634.86,499.57 632.38,504.61 629.31,509.48 625.83,513.91 621.78,518.11 617.41,521.86 612.61,525.33 607.57,528.32 602.16,530.92 596.48,533.05 589.91,534.88 583.02,536.17 567.21,536.99 545.44,535.68 493.59,530.82 448.90,526.79 433.97,523.35 417.94,517.29 404.23,509.87 390.18,499.50 376.10,485.91 356.41,462.17 338.57,441.83 330.56,435.20 322.48,429.95 314.48,425.97 306.30,423.11 297.69,421.26 288.67,420.46 277.98,420.75 266.02,422.22 222.35,431.89 178.38,443.65 155.15,454.30 119.59,479.08 109.76,484.97 104.81,486.95 99.84,488.34 95.07,489.14 90.22,489.40 84.72,489.06 79.22,488.13 74.29,486.79 69.52,484.93 64.95,482.58 60.58,479.70 56.63,476.39 52.97,472.59 49.76,468.51 46.90,463.99 44.57,459.20 42.67,454.05 41.31,448.87 40.41,443.34 40.00,436.50 40.21,429.37 42.65,414.58 59.30,345.39 88.79,200.37 102.32,125.99 106.63,110.87 112.82,96.84 120.95,83.69 130.96,71.83 141.26,62.95 155.57,53.99 169.67,47.77 186.57,42.92 204.44,40.35 223.12,40.00 296.05,43.30 388.89,47.34 392.71,47.45"
        fill="none"
        stroke="#e94560"
        stroke-width="8.0"
        stroke-linejoin="round"
        stroke-linecap="round"/>
  <!-- Start/finish line -->
  <line x1="393.29" y1="27.46" x2="392.13" y2="67.44"
        stroke="#f5f5f5" stroke-width="9.6"
        stroke-linecap="round"/>
</svg>
