<?xml version="1.0" encoding="utf-8"?>
<svg xmlns="http://www.w3.org/2000/svg"
     width="537.6" height="800.0"
     viewBox="0 0 537.6 800.0">
  <rect width="100%" height="100%" fill="#1a1a2e"/>
  <!-- Track outline -->
  <polyline points="463.41,314.30 494.83,535.58 497.34,552.04 497.59,559.82 496.99,567.36 495.46,574.15 492.84,580.54 490.11,584.83 486.72,588.86 483.01,592.23 479.16,594.70 474.95,596.54 470.56,597.69 466.79,598.13 462.81,598.13 458.87,597.58 455.30,596.43 451.15,593.66 447.41,589.87 444.19,585.75 440.47,579.47 437.55,572.62 432.83,557.02 430.75,543.09 430.51,528.24 433.02,498.42 432.80,484.41 431.57,477.50 429.50,470.88 426.50,464.95 422.48,459.57 418.72,455.85 414.35,452.43 409.68,449.72 404.52,447.76 399.03,446.53 393.71,446.01 387.05,446.56 380.66,448.20 375.01,450.41 368.07,454.27 264.74,526.49 251.88,536.76 246.34,542.52 241.42,548.76 237.33,555.35 234.08,562.38 231.79,569.77 230.56,577.46 230.67,585.40 231.92,593.35 234.27,601.23 237.60,608.80 241.94,616.09 247.08,622.94 259.44,635.43 305.99,674.29 316.20,685.88 324.23,698.38 327.31,704.91 329.71,711.65 331.33,718.52 332.01,725.46 331.84,729.92 331.24,734.35 329.99,738.61 327.80,743.16 324.91,747.51 321.47,751.16 317.46,753.84 312.90,755.83 308.17,757.38 300.39,758.94 292.53,759.68 278.80,760.00 162.58,746.50 136.73,740.43 124.22,735.51 112.65,729.14 102.03,721.29 89.96,708.74 80.16,694.20 74.40,682.14 62.33,641.67 50.10,568.83 40.55,506.54 40.00,498.16 40.33,491.20 41.56,484.03 43.93,477.21 46.50,472.58 49.72,468.17 53.38,464.46 57.36,461.72 61.79,459.65 66.40,458.01 74.07,456.28 81.88,455.54 88.27,455.51 95.53,456.31 140.55,467.11 155.37,469.61 197.91,470.91 212.02,469.44 239.43,461.67 252.43,455.36 264.52,447.39 275.28,437.52 284.26,426.18 291.44,413.48 294.20,406.69 296.33,399.64 298.43,385.05 298.97,355.17 296.35,340.52 291.58,326.13 227.75,202.10 216.06,180.43 208.58,163.48 207.44,157.87 207.11,152.91 207.60,148.19 208.39,144.86 209.56,141.60 211.12,138.58 213.09,135.99 215.65,133.72 218.71,131.82 222.07,130.35 225.45,129.43 230.40,129.20 235.61,129.97 240.52,131.39 246.42,134.32 252.75,138.67 287.67,165.38 314.84,179.31 329.17,184.40 343.86,187.28 350.87,187.74 357.86,187.25 363.02,186.01 368.21,184.14 373.01,181.73 377.30,178.88 381.23,175.51 384.40,171.71 386.17,168.69 387.62,165.41 388.58,162.01 388.93,158.67 388.55,155.27 387.54,151.82 386.04,148.48 384.15,145.52 380.88,142.27 376.75,139.59 371.79,136.57 331.38,113.19 325.67,109.05 321.17,104.79 317.76,100.70 314.62,96.13 312.22,91.29 310.71,86.40 309.92,81.30 310.03,76.35 311.23,71.57 313.31,66.94 315.98,62.65 321.44,56.64 327.75,51.54 333.62,47.77 339.76,44.78 346.45,42.30 353.38,40.66 360.43,40.00 367.55,40.17 374.68,41.12 381.72,42.85 388.60,45.27 395.21,48.40 401.41,52.26 407.06,56.90 411.94,62.28 416.18,68.32 422.95,82.22 428.19,97.62 442.71,168.69 463.41,314.30"
        fill="none"
        stroke="#e94560"
        stroke-width="8.0"
        stroke-linejoin="round"
        stroke-linecap="round"/>
  <!-- Start/finish line -->
  <line x1="483.21" y1="311.49" x2="443.61" y2="317.11"
        stroke="#f5f5f5" stroke-width="9.6"
        stroke-linecap="round"/>
</svg>
