<?xml version="1.0" encoding="utf-8"?>
<svg xmlns="http://www.w3.org/2000/svg"
     width="792.1" height="800.0"
     viewBox="0 0 792.1 800.0">
  <rect width="100%" height="100%" fill="#1a1a2e"/>
  <!-- Track outline -->
  <polyline points="406.50,626.50 425.85,649.31 471.98,695.15 499.02,717.04 524.17,733.42 542.63,742.74 560.11,749.55 587.53,757.03 615.81,760.00 640.51,759.58 657.54,756.99 670.93,753.90 686.94,747.17 703.67,737.85 722.85,720.51 730.92,710.86 737.87,700.46 743.49,689.05 747.68,677.39 749.97,667.61 751.29,657.88 752.11,637.44 749.45,616.43 743.25,595.62 733.51,575.81 720.50,557.63 704.25,541.80 685.48,528.05 644.22,504.02 624.60,490.24 607.43,473.65 599.83,464.58 593.05,454.84 587.23,444.06 582.42,432.66 575.98,408.55 536.46,173.84 525.22,135.56 513.61,107.23 506.01,94.36 498.07,84.17 490.98,76.60 483.46,69.96 466.12,57.72 446.25,47.81 435.52,44.26 424.45,41.71 401.15,40.00 376.82,41.84 351.65,46.39 326.47,54.04 302.11,65.28 278.74,79.36 257.93,95.70 240.83,113.25 226.04,133.56 210.81,153.53 201.28,162.64 191.40,169.66 179.57,175.59 167.38,179.81 157.19,181.99 147.11,182.91 126.57,181.69 107.32,177.97 95.67,177.35 84.05,178.18 77.30,179.60 70.87,181.74 64.73,184.74 58.29,189.30 52.26,194.90 47.39,200.96 44.36,206.76 42.28,212.95 40.85,219.34 40.00,229.83 40.37,240.69 43.37,264.34 45.55,272.91 49.37,282.90 110.04,393.67 132.22,425.05 151.74,448.53 159.13,455.80 166.29,461.24 175.49,467.04 185.60,471.35 193.27,473.02 201.31,473.65 208.94,472.81 214.15,471.06 219.23,468.46 223.96,465.21 228.19,461.49 235.07,451.83 240.52,441.01 248.83,420.70 280.72,265.10 285.12,243.79 291.66,224.06 300.79,206.01 312.10,190.13 320.31,181.48 329.51,173.63 339.01,167.57 348.96,162.97 358.33,160.22 367.90,158.96 374.95,159.09 382.14,160.01 388.92,161.89 395.09,164.73 400.88,168.49 405.92,173.04 410.28,178.94 413.86,185.70 416.48,192.64 418.52,202.59 418.80,212.87 417.19,224.44 414.13,235.72 406.26,253.19 370.11,312.61 334.27,374.66 329.37,388.40 326.78,400.23 323.24,426.93 323.13,454.47 327.05,482.25 332.47,504.23 341.09,528.38 358.63,562.31 382.62,598.33 406.50,626.50"
        fill="none"
        stroke="#e94560"
        stroke-width="8.0"
        stroke-linejoin="round"
        stroke-linecap="round"/>
  <!-- Start/finish line -->
  <line x1="421.75" y1="613.56" x2="391.24" y2="639.43"
        stroke="#f5f5f5" stroke-width="9.6"
        stroke-linecap="round"/>
</svg>
