<?xml version="1.0" encoding="utf-8"?>
<svg xmlns="http://www.w3.org/2000/svg"
     width="800.0" height="453.8"
     viewBox="0 0 800.0 453.8">
  <rect width="100%" height="100%" fill="#1a1a2e"/>
  <!-- Track outline -->
  <polyline points="414.98,150.18 551.70,168.53 623.23,177.44 632.25,179.02 640.58,181.13 648.34,183.99 655.50,187.65 661.39,191.08 666.99,195.07 671.73,199.76 675.86,205.18 679.35,211.26 682.03,217.90 683.87,225.03 684.87,232.58 685.00,240.47 684.43,248.73 683.22,257.24 673.91,293.39 661.54,350.34 659.74,373.43 660.39,380.41 661.74,387.03 663.89,393.10 666.84,398.59 668.65,401.05 670.67,403.31 672.90,405.42 675.32,407.30 680.59,410.41 683.41,411.66 686.33,412.66 689.38,413.35 692.49,413.75 698.79,413.84 705.15,412.74 711.29,410.65 717.14,407.52 722.58,403.34 727.43,398.25 731.74,392.33 735.26,385.73 739.01,375.60 742.49,362.56 746.92,316.77 750.54,286.16 759.00,232.68 760.00,211.23 759.00,200.75 756.96,190.47 753.81,180.55 749.71,170.96 744.59,161.86 738.65,153.20 731.87,145.04 724.13,137.66 715.66,131.00 706.45,125.21 696.63,120.30 686.41,116.29 675.74,113.19 617.95,105.69 259.04,58.39 134.16,40.77 103.95,40.00 94.79,41.46 86.10,43.92 77.88,47.56 70.24,52.14 63.20,57.72 56.86,64.18 51.48,71.40 47.08,79.29 43.69,87.76 41.30,96.72 40.05,106.10 40.00,115.79 40.98,125.57 42.97,135.33 46.08,145.07 70.20,193.01 113.39,274.64 134.08,305.74 139.08,311.28 144.22,315.75 149.60,319.22 152.41,320.52 155.31,321.52 158.24,322.23 161.22,322.66 164.25,322.82 167.28,322.69 170.30,322.28 173.27,321.60 179.10,319.48 184.73,316.36 189.77,312.28 194.21,307.32 197.97,301.59 200.81,295.19 202.69,288.27 203.46,280.96 203.14,273.41 201.83,265.65 199.61,257.78 196.36,249.94 175.99,220.09 171.15,212.44 167.09,204.61 164.16,196.58 162.40,188.44 161.75,180.32 162.21,172.46 163.75,164.93 166.25,157.95 169.77,151.41 174.30,145.31 179.70,139.75 185.97,134.93 192.99,130.90 200.65,127.68 208.83,125.30 217.42,123.76 226.33,123.19 235.48,123.50 254.49,126.07 339.73,140.07 414.98,150.18"
        fill="none"
        stroke="#e94560"
        stroke-width="8.0"
        stroke-linejoin="round"
        stroke-linecap="round"/>
  <!-- Start/finish line -->
  <line x1="417.64" y1="130.36" x2="412.32" y2="170.00"
        stroke="#f5f5f5" stroke-width="9.6"
        stroke-linecap="round"/>
</svg>
