<?xml version="1.0" encoding="utf-8"?>
<svg xmlns="http://www.w3.org/2000/svg"
     width="800.0" height="790.0"
     viewBox="0 0 800.0 790.0">
  <rect width="100%" height="100%" fill="#1a1a2e"/>
  <!-- Track outline -->
  <polyline points="657.81,269.83 683.45,298.56 700.17,322.69 718.37,352.04 737.91,390.64 751.34,424.07 758.81,458.64 760.00,492.02 755.52,528.81 748.03,556.30 733.27,588.70 717.51,616.86 700.46,643.67 678.21,671.01 657.08,692.09 632.07,710.43 604.18,725.00 571.71,739.47 537.58,749.50 510.45,750.01 483.22,745.72 462.62,739.06 432.37,722.11 401.46,699.12 368.42,671.52 340.90,642.69 54.30,227.31 43.68,207.98 40.00,190.41 41.00,171.45 48.66,150.78 64.38,131.51 83.42,118.18 103.42,111.46 126.67,110.69 153.27,115.03 177.45,122.42 208.69,138.95 240.10,162.05 269.65,187.68 302.02,220.23 343.05,266.01 391.94,334.99 507.36,501.68 523.52,524.11 543.62,544.00 566.40,560.69 590.18,569.27 615.26,572.26 640.36,563.84 659.54,549.84 670.58,534.49 676.92,517.39 678.91,495.69 673.67,469.59 666.00,449.49 653.30,426.65 632.24,394.93 593.30,341.45 531.77,265.13 490.95,220.90 411.97,141.22 399.60,128.05 389.75,115.54 383.78,102.52 381.39,87.38 384.48,70.85 392.24,58.60 403.78,48.42 418.74,41.24 430.65,40.00 442.06,42.95 453.73,48.78 467.16,59.12 484.54,75.70 657.81,269.83"
        fill="none"
        stroke="#e94560"
        stroke-width="8.0"
        stroke-linejoin="round"
        stroke-linecap="round"/>
  <!-- Start/finish line -->
  <line x1="672.73" y1="256.52" x2="642.89" y2="283.15"
        stroke="#f5f5f5" stroke-width="9.6"
        stroke-linecap="round"/>
</svg>
