<?xml version="1.0" encoding="utf-8"?>
<svg xmlns="http://www.w3.org/2000/svg"
     width="800.0" height="723.0"
     viewBox="0 0 800.0 723.0">
  <rect width="100%" height="100%" fill="#1a1a2e"/>
  <!-- Track outline -->
  <polyline points="751.11,273.03 753.14,292.92 759.51,361.94 760.00,383.01 758.99,402.83 756.21,421.30 751.54,438.44 744.89,454.03 736.68,468.06 726.81,480.10 715.92,490.24 709.92,494.33 703.58,497.84 690.16,503.36 675.76,506.69 632.32,509.95 552.26,511.14 544.78,512.07 538.31,513.67 525.15,518.15 512.51,523.74 506.36,527.49 501.15,531.51 491.87,540.61 488.03,545.29 484.09,551.33 460.60,601.39 453.34,613.85 444.83,625.86 435.06,636.97 423.89,647.32 397.84,664.33 383.56,671.06 368.78,676.41 353.45,680.23 337.90,682.45 322.62,683.00 307.89,681.79 293.39,678.77 279.37,673.87 266.06,667.21 253.96,658.81 243.18,648.98 233.68,637.91 225.69,625.59 219.50,612.22 215.12,598.06 212.66,583.41 212.23,568.41 213.77,553.31 217.31,538.32 222.88,523.70 230.38,509.71 239.55,496.56 250.59,484.79 263.28,474.62 277.59,466.22 293.19,459.59 310.06,454.62 328.36,451.43 347.82,449.55 493.78,446.39 517.05,441.15 534.07,435.04 540.79,431.95 546.75,428.20 557.55,419.91 567.30,410.67 571.44,405.22 574.46,399.67 577.01,393.04 578.64,386.13 579.22,379.40 578.83,372.66 577.40,366.00 574.95,359.57 571.46,353.57 567.13,348.15 562.22,343.54 556.80,339.58 551.14,336.35 545.12,333.64 538.97,331.28 531.69,329.44 513.81,327.46 490.84,327.40 387.53,342.43 274.87,357.21 206.83,360.62 186.00,359.99 166.18,357.94 147.43,354.37 129.73,349.26 113.29,342.43 98.42,333.85 85.28,323.40 73.54,310.94 63.47,296.81 54.94,281.23 48.06,264.56 43.19,247.03 40.43,228.91 40.00,210.51 41.76,192.15 45.89,174.06 52.32,156.60 60.92,140.22 71.39,125.01 83.72,111.44 97.67,99.78 113.14,90.06 129.94,82.32 147.92,76.59 166.80,72.74 186.22,70.79 205.95,70.83 225.65,72.91 245.23,77.18 323.47,102.52 361.70,109.25 381.08,109.74 407.44,107.76 439.82,101.96 552.94,56.73 587.28,45.31 603.99,41.77 620.49,40.00 636.44,40.24 651.63,42.15 665.86,46.11 679.00,51.91 690.85,59.51 701.54,68.78 711.10,79.85 719.39,92.52 726.29,106.89 731.73,122.97 735.87,140.29 748.26,244.53 751.11,273.03"
        fill="none"
        stroke="#e94560"
        stroke-width="8.0"
        stroke-linejoin="round"
        stroke-linecap="round"/>
  <!-- Start/finish line -->
  <line x1="771.01" y1="271.02" x2="731.21" y2="275.04"
        stroke="#f5f5f5" stroke-width="9.6"
        stroke-linecap="round"/>
</svg>
