<?xml version="1.0" encoding="utf-8"?>
<svg xmlns="http://www.w3.org/2000/svg"
     width="728.2" height="800.0"
     viewBox="0 0 728.2 800.0">
  <rect width="100%" height="100%" fill="#1a1a2e"/>
  <!-- Track outline -->
  <polyline points="600.09,350.54 651.04,288.51 661.21,272.55 665.05,264.05 667.56,255.52 669.36,246.86 669.76,242.16 669.68,237.82 668.60,229.20 666.18,220.81 661.26,210.56 653.48,198.43 646.08,186.25 644.00,180.93 642.77,176.04 641.97,170.95 641.75,165.85 642.16,160.82 643.18,155.95 644.79,151.46 646.95,147.25 649.47,143.55 652.72,139.86 667.78,127.19 674.87,119.83 680.62,111.43 684.88,102.04 686.41,97.16 687.49,92.17 688.13,86.95 688.16,81.71 687.47,76.68 686.19,71.77 684.43,67.07 682.17,62.59 679.36,58.31 676.10,54.35 672.48,50.79 668.50,47.68 664.19,45.03 659.61,42.92 654.75,41.49 649.74,40.60 644.70,40.04 639.62,40.00 634.46,40.70 629.30,41.90 624.59,43.09 618.82,45.38 539.33,95.13 510.18,117.60 496.04,132.65 484.61,146.92 477.63,158.27 466.61,182.69 459.95,208.99 458.35,222.70 457.45,280.23 455.77,294.79 452.97,309.03 449.04,322.85 443.80,336.18 437.27,348.84 429.67,360.83 421.07,372.07 411.31,382.30 400.72,391.71 389.28,400.40 376.95,408.11 363.91,415.02 350.20,421.01 335.97,426.13 321.16,430.45 306.03,433.91 290.84,436.58 212.36,444.16 180.77,451.58 165.60,457.19 123.35,481.50 110.78,491.61 88.20,514.57 69.43,540.61 55.20,569.31 49.93,584.30 41.11,628.95 40.00,650.49 40.52,668.92 42.63,681.22 50.07,704.50 55.77,715.19 62.69,725.08 70.63,733.91 79.59,741.51 89.23,747.91 99.59,753.02 110.40,756.75 121.58,759.13 132.79,760.00 143.98,759.40 154.80,757.25 165.39,754.33 175.32,750.02 184.61,744.68 193.07,738.25 200.61,730.82 207.03,722.43 212.23,713.53 216.15,704.09 218.87,694.41 220.22,684.39 220.21,674.16 218.78,664.30 215.84,654.51 212.13,644.92 207.00,635.91 189.85,611.97 186.80,606.75 184.59,601.91 182.97,596.69 181.92,591.38 181.36,586.04 181.38,580.68 182.07,575.23 183.41,569.91 185.46,564.94 188.11,560.26 191.28,555.79 194.94,551.68 199.07,547.98 203.58,544.69 213.69,539.26 222.16,536.26 260.86,528.28 355.91,509.29 435.99,475.02 516.80,426.77 554.14,398.27 599.05,351.80 600.09,350.54"
        fill="none"
        stroke="#e94560"
        stroke-width="8.0"
        stroke-linejoin="round"
        stroke-linecap="round"/>
  <!-- Start/finish line -->
  <line x1="584.63" y1="337.85" x2="615.54" y2="363.24"
        stroke="#f5f5f5" stroke-width="9.6"
        stroke-linecap="round"/>
</svg>
