<?xml version="1.0" encoding="utf-8"?>
<svg xmlns="http://www.w3.org/2000/svg"
     width="511.6" height="800.0"
     viewBox="0 0 511.6 800.0">
  <rect width="100%" height="100%" fill="#1a1a2e"/>
  <!-- Track outline -->
  <polyline points="449.13,238.16 397.14,594.08 388.87,627.30 381.20,646.28 371.58,665.00 358.50,685.13 344.95,702.58 337.28,711.09 328.61,718.35 308.43,730.31 284.72,741.19 258.25,750.72 232.63,757.41 216.52,759.71 200.88,760.00 181.07,758.32 161.00,754.13 141.76,746.86 123.64,737.33 107.83,727.02 94.75,715.19 90.11,708.62 86.58,701.64 83.72,694.04 79.99,679.91 78.47,664.43 79.41,651.16 81.90,637.28 85.57,624.84 91.25,613.01 99.62,601.43 162.01,540.27 213.49,493.99 228.46,474.40 240.60,452.88 252.37,423.72 260.54,392.30 263.60,360.88 262.66,331.60 259.56,313.98 254.32,298.37 246.82,283.55 237.20,270.36 229.10,262.19 219.98,254.96 210.40,248.96 196.01,242.97 178.92,238.78 132.14,233.52 88.90,228.18 80.32,225.02 73.33,220.91 62.30,212.86 52.17,203.17 45.89,194.22 41.61,185.72 40.44,181.94 40.00,178.08 40.17,171.47 41.55,163.54 47.80,144.61 56.61,126.17 60.82,120.25 65.32,115.53 70.57,111.59 78.91,107.68 88.43,104.93 97.10,103.33 103.96,102.76 111.90,103.78 163.12,122.06 218.54,143.04 235.22,147.64 249.54,149.99 263.63,150.40 278.60,148.67 305.27,141.44 330.59,131.96 341.92,126.33 350.87,120.54 355.44,116.84 360.05,111.91 378.68,84.40 398.52,56.35 406.12,49.65 412.88,45.34 417.69,42.79 422.26,41.07 426.30,40.29 430.37,40.00 435.01,40.08 439.75,40.70 444.83,42.01 449.64,43.86 453.07,45.63 456.19,47.72 459.12,50.10 461.88,52.94 465.04,56.92 467.70,61.36 469.04,65.09 469.98,69.08 471.60,80.78 468.74,132.00 449.47,235.90 449.13,238.16"
        fill="none"
        stroke="#e94560"
        stroke-width="8.0"
        stroke-linejoin="round"
        stroke-linecap="round"/>
  <!-- Start/finish line -->
  <line x1="468.92" y1="241.05" x2="429.34" y2="235.27"
        stroke="#f5f5f5" stroke-width="9.6"
        stroke-linecap="round"/>
</svg>
