<?xml version="1.0" encoding="utf-8"?>
<svg xmlns="http://www.w3.org/2000/svg"
     width="377.2" height="800.0"
     viewBox="0 0 377.2 800.0">
  <rect width="100%" height="100%" fill="#1a1a2e"/>
  <!-- Track outline -->
  <polyline points="124.22,600.28 123.98,598.58 123.39,594.86 113.25,541.71 103.05,507.15 88.52,473.17 55.37,409.06 48.57,393.10 44.55,380.67 41.72,367.90 40.21,354.87 40.00,341.74 41.09,328.66 43.50,315.75 47.20,303.17 52.07,290.96 60.03,275.26 79.02,240.15 90.47,210.93 98.71,180.36 104.61,139.70 109.22,110.04 117.21,69.30 119.53,62.14 122.87,55.68 125.73,51.83 129.09,48.42 132.90,45.53 137.10,43.22 141.63,41.53 146.42,40.46 153.94,40.00 161.63,40.85 166.70,42.18 171.61,44.17 176.27,46.82 180.62,50.07 184.60,53.87 188.16,58.18 192.62,65.43 196.04,73.41 198.43,81.93 200.18,93.84 200.41,109.28 199.97,141.99 203.72,169.42 211.78,197.08 232.63,245.58 284.49,354.61 331.84,459.33 335.20,468.97 336.96,478.25 337.15,481.67 337.05,484.94 336.67,488.16 336.01,491.27 335.07,494.25 333.86,497.07 332.39,499.73 330.70,502.18 328.77,504.44 326.66,506.46 324.36,508.24 321.91,509.76 319.28,511.03 316.56,512.01 313.67,512.72 310.72,513.14 307.66,513.25 304.58,513.05 301.47,512.53 298.39,511.70 295.38,510.55 292.45,509.09 289.66,507.33 287.02,505.29 284.57,502.98 282.30,500.40 278.36,494.59 274.29,485.81 270.70,473.60 258.10,422.42 240.34,366.70 224.23,323.15 222.44,320.18 220.77,318.40 218.50,316.55 216.00,315.13 213.26,314.09 210.43,313.53 207.56,313.45 204.69,313.83 201.83,314.66 199.02,315.93 196.30,317.59 193.59,319.82 190.21,323.44 186.40,328.62 162.96,370.04 159.62,378.18 157.37,385.77 155.62,394.36 154.64,403.23 154.50,412.27 155.24,421.70 160.71,446.95 171.37,475.82 178.10,495.48 183.12,515.09 184.72,526.36 184.77,530.55 184.44,534.51 183.71,538.33 182.67,541.83 181.61,544.35 180.36,546.58 178.90,548.66 177.27,550.50 175.46,552.10 173.53,553.43 171.46,554.49 169.30,555.27 167.01,555.79 164.67,556.05 162.23,556.06 159.76,555.79 157.26,555.23 154.80,554.37 152.39,553.21 150.07,551.75 147.90,550.01 145.89,547.99 144.09,545.74 142.49,543.25 141.15,540.57 140.04,537.72 139.18,534.76 138.55,531.58 138.13,527.34 138.08,522.73 139.59,510.98 145.58,479.47 146.04,473.74 145.93,469.14 145.45,466.29 144.66,463.90 143.77,462.18 142.68,460.75 141.39,459.49 139.94,458.49 138.36,457.74 136.71,457.26 135.03,457.06 133.35,457.14 131.72,457.48 130.09,458.13 128.77,458.92 127.43,459.92 126.20,461.10 124.56,463.26 123.22,465.78 122.22,468.57 121.57,471.83 121.36,477.65 121.67,484.69 124.22,511.64 125.90,539.55 126.89,544.29 128.23,548.21 130.10,552.13 132.39,555.72 135.19,559.04 138.33,561.96 141.73,564.50 145.82,566.71 156.17,569.99 166.53,572.78 173.73,575.44 180.58,579.28 186.84,584.28 192.36,590.28 197.06,597.12 200.89,604.65 204.57,615.54 207.36,630.10 216.75,687.27 220.42,709.80 221.11,720.98 220.49,728.75 218.69,736.11 215.67,742.95 213.02,747.04 209.89,750.63 206.34,753.68 202.44,756.17 198.24,758.05 193.82,759.34 189.23,759.99 184.55,760.00 179.84,759.37 175.16,758.09 170.59,756.19 164.08,752.23 158.14,747.05 152.92,740.81 148.55,733.66 144.00,723.02 139.97,708.57 136.76,690.02 124.38,601.45 124.22,600.28"
        fill="none"
        stroke="#e94560"
        stroke-width="8.0"
        stroke-linejoin="round"
        stroke-linecap="round"/>
  <!-- Start/finish line -->
  <line x1="104.41" y1="603.04" x2="144.03" y2="597.53"
        stroke="#f5f5f5" stroke-width="9.6"
        stroke-linecap="round"/>
</svg>
