<?xml version="1.0" encoding="utf-8"?>
<svg xmlns="http://www.w3.org/2000/svg"
     width="621.8" height="800.0"
     viewBox="0 0 621.8 800.0">
  <rect width="100%" height="100%" fill="#1a1a2e"/>
  <!-- Track outline -->
  <polyline points="429.27,665.61 432.10,651.27 435.51,637.05 439.56,623.59 444.70,610.89 451.06,598.53 458.58,586.30 467.39,574.00 477.46,562.05 488.75,550.42 501.16,539.33 556.47,496.67 560.71,492.05 564.04,487.40 570.16,477.81 575.53,467.74 577.51,462.57 578.93,457.12 580.77,446.61 581.76,436.01 581.58,430.66 580.84,425.36 575.71,403.76 554.67,356.10 530.88,319.55 488.44,274.94 364.28,168.92 284.74,115.27 167.44,58.30 117.54,41.74 111.26,40.49 105.55,40.02 94.85,40.00 84.16,40.84 77.88,41.93 72.22,43.60 67.18,45.82 62.47,48.54 58.37,51.37 54.58,54.72 51.14,58.80 48.03,63.43 45.21,68.54 42.87,74.12 41.23,80.17 40.24,86.48 40.00,92.79 40.28,98.97 41.70,109.01 45.44,123.49 52.02,141.54 74.17,182.91 101.77,225.76 124.99,256.17 149.70,282.82 210.34,330.39 261.91,374.89 284.74,398.33 304.08,423.05 319.52,447.27 325.78,459.76 330.35,471.95 333.61,483.73 335.62,495.06 336.41,506.43 335.80,517.59 333.46,527.76 329.64,537.14 324.48,546.21 318.04,554.54 270.86,603.14 265.00,611.79 260.19,621.79 256.65,631.96 253.69,644.17 251.91,662.60 251.56,679.75 252.69,691.27 255.14,702.90 258.54,714.06 261.36,719.49 264.55,723.99 268.59,728.86 272.91,733.20 281.12,739.31 290.44,744.96 305.37,750.77 322.76,755.84 339.60,758.84 354.17,760.00 359.33,759.61 363.89,758.73 375.32,755.88 380.87,753.52 386.29,750.52 391.63,746.82 396.58,742.68 403.46,735.15 406.43,731.22 409.44,726.20 416.22,711.35 422.69,693.89 429.27,665.61"
        fill="none"
        stroke="#e94560"
        stroke-width="8.0"
        stroke-linejoin="round"
        stroke-linecap="round"/>
  <!-- Start/finish line -->
  <line x1="409.74" y1="661.29" x2="448.80" y2="669.92"
        stroke="#f5f5f5" stroke-width="9.6"
        stroke-linecap="round"/>
</svg>
