<?xml version="1.0" encoding="utf-8"?>
<svg xmlns="http://www.w3.org/2000/svg"
     width="800.0" height="272.4"
     viewBox="0 0 800.0 272.4">
  <rect width="100%" height="100%" fill="#1a1a2e"/>
  <!-- Track outline -->
  <polyline points="367.18,74.58 92.32,107.53 81.01,110.83 69.56,116.01 60.34,122.65 51.83,131.89 45.18,143.35 41.47,154.44 40.00,166.98 40.36,179.20 43.32,191.74 48.87,204.68 55.52,214.29 64.02,223.13 74.00,228.68 83.58,230.89 102.06,232.38 672.91,205.77 696.13,204.14 712.65,200.95 725.33,195.51 734.90,187.75 744.74,176.62 751.73,164.73 756.88,152.30 758.71,143.53 760.00,134.97 759.74,124.39 758.45,112.21 756.91,101.59 754.56,92.53 750.70,83.21 743.97,71.32 734.92,61.24 722.24,51.38 708.79,45.18 691.98,40.80 673.35,40.00 638.42,42.07 367.18,74.58"
        fill="none"
        stroke="#e94560"
        stroke-width="8.0"
        stroke-linejoin="round"
        stroke-linecap="round"/>
  <!-- Start/finish line -->
  <line x1="369.56" y1="94.44" x2="364.80" y2="54.72"
        stroke="#f5f5f5" stroke-width="9.6"
        stroke-linecap="round"/>
</svg>
