<?xml version="1.0" encoding="utf-8"?>
<svg xmlns="http://www.w3.org/2000/svg"
     width="578.6" height="800.0"
     viewBox="0 0 578.6 800.0">
  <rect width="100%" height="100%" fill="#1a1a2e"/>
  <!-- Track outline -->
  <polyline points="375.44,155.25 367.55,125.07 350.58,75.91 346.02,66.33 341.61,59.03 336.48,52.90 330.89,47.94 324.72,43.85 318.40,41.17 312.54,40.00 306.52,40.00 300.66,40.88 294.72,42.86 288.94,45.78 283.69,49.28 277.79,54.71 272.08,61.54 248.25,94.76 216.34,128.51 195.54,147.19 174.66,161.79 166.15,165.12 158.03,166.93 150.22,167.40 142.98,166.52 135.97,164.53 130.18,162.02 126.39,159.28 122.75,155.54 114.40,144.57 104.02,130.32 93.25,120.10 87.43,117.65 81.34,116.37 75.44,116.13 70.03,116.72 65.97,117.77 62.26,119.46 58.77,121.68 55.44,124.54 50.04,131.02 45.17,139.08 41.72,147.19 40.04,156.36 40.00,166.52 44.90,210.48 55.06,255.21 70.88,288.72 102.60,340.56 113.36,352.71 124.55,362.69 150.72,379.80 199.52,406.60 221.13,422.77 241.74,443.61 261.24,469.36 305.14,544.62 362.65,681.30 380.35,710.84 395.78,731.68 400.96,737.17 406.36,741.49 418.20,748.73 430.68,754.92 437.39,757.49 444.63,759.07 455.89,760.00 469.15,759.88 481.48,758.25 490.75,755.33 499.30,751.24 507.11,746.22 514.16,740.27 520.48,733.38 525.92,725.61 532.97,709.91 537.38,694.43 538.57,687.31 538.49,679.90 535.00,659.99 529.49,640.08 522.36,624.72 455.36,518.52 442.33,489.45 432.56,458.50 421.91,404.09 384.60,190.11 375.44,155.25"
        fill="none"
        stroke="#e94560"
        stroke-width="8.0"
        stroke-linejoin="round"
        stroke-linecap="round"/>
  <!-- Start/finish line -->
  <line x1="356.10" y1="160.32" x2="394.79" y2="150.18"
        stroke="#f5f5f5" stroke-width="9.6"
        stroke-linecap="round"/>
</svg>
