<?xml version="1.0" encoding="utf-8"?>
<svg xmlns="http://www.w3.org/2000/svg"
     width="800.0" height="733.3"
     viewBox="0 0 800.0 733.3">
  <rect width="100%" height="100%" fill="#1a1a2e"/>
  <!-- Track outline -->
  <polyline points="706.78,458.19 663.46,585.35 647.12,626.38 635.43,644.97 622.18,661.42 609.56,673.39 597.25,682.57 590.61,686.56 583.29,689.32 565.55,692.35 546.02,693.35 530.62,692.55 516.56,689.88 507.02,686.08 497.16,680.10 440.04,631.09 276.02,479.70 187.19,407.30 146.21,362.44 132.93,343.76 122.71,325.49 116.95,310.72 114.02,296.63 113.92,289.17 114.90,281.98 116.82,275.16 120.20,268.33 124.53,261.87 128.34,257.08 129.51,255.68 132.15,253.68 140.03,250.85 151.09,248.22 161.61,246.90 169.09,247.22 176.19,248.46 182.31,250.17 185.66,251.45 188.52,253.01 191.58,255.32 201.84,266.62 212.74,281.38 223.87,300.30 235.82,318.26 247.83,328.68 262.05,337.90 290.76,352.90 319.63,368.71 334.71,380.48 348.28,394.29 389.52,453.40 432.78,515.82 450.52,533.46 467.93,546.95 479.84,554.22 492.08,559.05 502.21,561.04 512.88,561.84 522.97,561.40 530.75,560.12 538.08,557.97 545.30,554.62 554.74,548.39 564.08,540.45 571.50,532.11 575.57,525.40 578.41,518.46 580.23,511.59 581.14,505.88 581.20,500.22 580.26,493.99 576.29,482.26 569.84,469.21 562.07,457.15 548.13,442.74 531.53,429.61 507.97,414.29 483.62,397.80 441.31,354.74 317.36,214.37 292.98,192.94 270.19,177.29 246.98,165.32 222.83,156.70 198.29,151.79 171.57,149.88 125.96,153.47 85.02,155.90 76.75,154.51 70.17,152.39 64.05,149.16 57.28,144.05 51.03,137.70 46.09,131.00 43.06,125.17 41.04,119.06 40.00,112.76 40.10,105.81 41.30,98.71 43.29,91.80 47.62,81.99 53.74,72.73 63.11,62.43 74.47,53.49 87.95,46.82 102.69,42.35 118.71,40.00 135.57,40.00 153.76,42.39 176.48,48.30 415.75,139.46 437.89,151.35 454.23,162.73 468.06,174.54 480.04,187.43 490.23,201.28 498.92,216.53 506.70,235.21 513.24,256.12 519.52,288.09 526.94,318.58 532.25,329.56 538.34,338.98 545.20,346.92 556.86,355.50 567.27,360.97 569.71,362.04 571.99,362.56 574.76,362.88 577.95,362.84 581.50,362.16 589.41,358.65 598.55,353.06 606.92,346.60 613.66,340.13 619.58,332.83 625.08,323.61 635.99,287.49 646.01,249.10 654.67,228.30 663.26,212.78 667.17,208.11 671.76,204.51 678.63,200.04 687.02,195.69 695.65,193.06 702.29,192.74 709.25,193.50 716.06,195.06 722.11,197.25 728.07,200.60 733.31,204.87 738.19,209.86 746.10,219.96 752.55,232.01 757.49,248.58 760.00,266.62 759.97,284.86 757.49,304.65 739.20,372.30 713.00,444.78 706.78,458.19"
        fill="none"
        stroke="#e94560"
        stroke-width="8.0"
        stroke-linejoin="round"
        stroke-linecap="round"/>
  <!-- Start/finish line -->
  <line x1="725.64" y1="464.84" x2="687.92" y2="451.54"
        stroke="#f5f5f5" stroke-width="9.6"
        stroke-linecap="round"/>
</svg>
