<?xml version="1.0" encoding="utf-8"?>
<svg xmlns="http://www.w3.org/2000/svg"
     width="800.0" height="344.1"
     viewBox="0 0 800.0 344.1">
  <rect width="100%" height="100%" fill="#1a1a2e"/>
  <!-- Track outline -->
  <polyline points="280.03,297.79 296.66,295.97 665.90,233.87 728.59,216.62 735.55,213.58 740.88,210.46 745.66,207.17 749.80,203.34 753.21,198.51 755.87,193.18 757.85,187.73 759.18,182.06 759.93,176.17 760.00,170.21 759.35,164.34 757.97,158.57 755.79,152.95 752.91,147.55 749.25,142.32 744.95,137.42 739.94,132.70 734.37,128.43 728.49,124.73 721.13,121.22 699.26,113.36 670.53,105.78 557.79,91.59 474.28,82.22 449.33,83.07 429.36,85.63 415.53,89.65 402.27,95.57 389.70,102.91 377.83,112.06 333.63,159.04 321.89,168.91 310.34,177.30 299.13,184.29 287.57,190.43 275.90,194.68 270.22,195.93 264.30,196.59 256.92,196.62 249.39,195.78 242.09,193.94 235.25,191.39 230.18,188.79 225.50,185.79 216.34,178.38 207.92,169.20 200.09,158.30 193.22,146.01 175.26,102.56 154.27,67.46 146.36,58.48 137.83,51.12 132.03,47.39 125.75,44.20 119.45,41.91 113.06,40.44 106.98,40.00 100.96,40.32 95.10,41.20 89.44,42.90 84.14,45.67 79.16,49.15 70.12,57.50 62.21,67.37 55.71,78.26 50.70,89.43 46.18,103.15 42.03,127.08 40.00,152.49 42.13,191.00 44.64,204.03 50.84,222.04 58.16,239.45 61.20,244.97 64.65,249.83 72.22,258.71 80.36,266.93 89.33,273.78 102.80,281.88 119.76,289.91 142.92,296.83 169.12,301.59 242.98,304.14 280.03,297.79"
        fill="none"
        stroke="#e94560"
        stroke-width="8.0"
        stroke-linejoin="round"
        stroke-linecap="round"/>
  <!-- Start/finish line -->
  <line x1="277.02" y1="278.01" x2="283.04" y2="317.56"
        stroke="#f5f5f5" stroke-width="9.6"
        stroke-linecap="round"/>
</svg>
