<?xml version="1.0" encoding="utf-8"?>
<svg xmlns="http://www.w3.org/2000/svg"
     width="800.0" height="755.9"
     viewBox="0 0 800.0 755.9">
  <rect width="100%" height="100%" fill="#1a1a2e"/>
  <!-- Track outline -->
  <polyline points="457.62,310.39 500.91,343.78 576.22,404.58 604.63,427.27 629.18,447.48 664.28,476.53 718.12,521.77 730.70,533.85 738.27,542.52 744.98,551.85 750.69,561.89 753.08,567.15 755.11,572.56 756.82,578.12 759.21,589.58 759.77,595.38 760.00,601.21 759.82,607.00 759.23,612.66 758.24,618.19 756.90,623.62 755.14,628.91 753.02,634.09 750.59,639.17 744.82,649.06 737.92,658.51 730.19,667.57 721.59,675.99 707.24,687.53 696.95,694.45 686.17,700.47 674.89,705.44 663.14,709.43 651.08,712.54 638.74,714.69 626.16,715.79 613.48,715.86 600.73,714.96 587.99,713.19 575.34,710.56 562.83,707.02 550.51,702.56 532.41,694.23 514.86,683.99 479.18,661.42 429.59,629.18 398.24,607.60 359.44,583.49 295.98,543.48 288.08,537.53 284.56,534.39 281.36,531.09 278.57,527.63 276.25,523.99 274.40,520.27 273.08,516.38 272.27,512.31 271.94,508.13 272.14,503.85 272.86,499.54 274.01,495.18 275.59,490.81 277.65,486.48 280.06,482.24 282.86,478.17 286.08,474.38 289.70,470.88 293.71,467.70 298.05,464.83 302.68,462.34 307.58,460.22 312.73,458.51 318.15,457.12 323.76,456.12 329.50,455.51 335.31,455.34 341.18,455.64 347.09,456.45 352.97,457.76 358.80,459.55 364.56,461.85 370.21,464.62 381.32,471.27 392.18,479.12 408.18,492.69 442.19,521.60 489.61,561.89 525.46,589.88 554.45,606.72 577.63,615.22 599.51,619.48 604.72,619.67 614.36,618.65 618.63,617.49 622.52,615.86 625.94,613.78 627.89,612.19 629.71,610.37 631.20,608.42 632.46,606.32 633.47,604.14 634.26,601.85 634.87,599.41 635.20,596.93 635.16,594.55 634.82,592.02 634.12,588.33 632.82,584.14 629.38,576.84 624.17,568.48 611.89,553.19 596.88,537.44 564.94,511.58 530.52,484.09 515.52,471.63 489.88,450.70 447.59,415.62 409.70,383.39 382.51,359.19 336.40,319.75 322.28,311.05 317.53,308.94 307.91,306.02 302.96,305.21 292.80,305.20 287.66,305.97 282.60,307.25 277.76,309.15 268.60,314.72 264.36,318.27 248.97,336.40 225.61,368.56 213.64,383.30 205.34,391.86 200.89,395.87 196.20,399.66 191.31,403.18 186.19,406.43 180.85,409.31 175.26,411.82 169.48,413.96 163.55,415.63 157.52,416.79 151.46,417.44 145.32,417.56 139.16,417.18 133.04,416.28 127.00,414.86 121.06,412.92 115.24,410.47 109.49,407.55 103.87,404.24 98.37,400.54 93.05,396.44 87.88,392.03 82.88,387.29 78.12,382.21 73.58,376.82 69.29,371.19 65.25,365.27 61.46,359.11 54.65,346.01 51.62,339.10 48.86,331.96 46.42,324.59 44.35,317.09 42.65,309.44 41.40,301.67 40.55,293.79 40.09,285.79 40.00,277.73 40.28,269.68 40.99,261.65 42.14,253.65 43.66,245.65 45.59,237.74 47.93,229.88 50.63,222.07 57.01,206.55 64.49,191.13 72.98,175.88 87.38,153.26 109.04,123.50 150.85,71.07 166.88,52.67 170.49,49.25 174.08,46.32 177.74,43.88 181.54,42.04 185.36,40.75 189.24,40.06 191.82,40.00 194.40,40.16 198.32,40.90 202.18,42.26 205.87,44.31 209.48,46.97 212.90,50.13 216.11,53.79 218.97,57.99 221.60,62.59 223.85,67.63 237.77,109.86 247.49,129.13 265.89,153.77 295.28,182.72 380.72,251.07 457.62,310.39"
        fill="none"
        stroke="#e94560"
        stroke-width="8.0"
        stroke-linejoin="round"
        stroke-linecap="round"/>
  <!-- Start/finish line -->
  <line x1="469.84" y1="294.55" x2="445.41" y2="326.23"
        stroke="#f5f5f5" stroke-width="9.6"
        stroke-linecap="round"/>
</svg>
