<?xml version="1.0" encoding="utf-8"?>
<svg xmlns="http://www.w3.org/2000/svg"
     width="614.2" height="800.0"
     viewBox="0 0 614.2 800.0">
  <rect width="100%" height="100%" fill="#1a1a2e"/>
  <!-- Track outline -->
  <polyline points="435.37,513.08 535.81,256.29 571.48,157.96 573.46,149.05 574.20,142.08 574.21,136.53 573.61,131.32 572.44,126.19 570.66,121.32 568.28,116.80 565.34,112.75 561.85,109.27 557.89,106.38 553.51,104.06 548.23,102.28 536.40,100.38 521.69,99.29 467.57,98.60 454.17,100.06 441.79,102.88 411.06,115.94 397.64,120.70 382.02,123.91 360.40,125.68 335.94,125.46 305.13,122.80 273.38,117.95 199.99,101.61 180.10,95.53 164.86,88.99 148.35,79.40 132.18,66.99 109.86,49.57 102.31,45.33 95.25,42.38 89.72,40.85 84.33,40.09 78.84,40.00 73.41,40.59 68.20,41.81 63.20,43.68 58.58,46.17 54.29,49.25 50.51,52.82 47.22,56.89 44.58,61.34 42.52,66.17 41.04,71.30 40.20,76.64 40.00,82.14 40.51,87.64 41.85,93.06 43.94,98.21 46.88,102.97 50.46,107.28 54.76,111.29 59.72,114.81 66.37,118.18 74.31,121.24 106.73,130.82 121.89,137.38 136.48,146.47 150.83,158.60 167.85,176.75 187.39,202.03 264.01,303.71 295.82,340.48 302.95,346.99 309.59,351.86 315.97,355.45 322.31,358.08 327.72,359.58 333.21,360.34 339.43,360.31 346.09,359.63 365.22,356.06 369.51,355.90 373.35,356.23 377.26,357.07 381.03,358.37 384.54,360.04 387.81,362.13 390.68,364.60 393.21,367.47 395.30,370.74 396.96,374.30 398.17,377.98 398.90,381.81 399.11,385.77 398.80,389.77 397.91,393.89 396.49,397.92 394.58,401.85 392.05,405.89 380.98,419.40 370.11,429.78 365.25,433.38 360.26,436.37 354.93,438.81 349.58,440.61 345.08,441.61 340.62,442.11 336.03,442.21 331.41,441.86 326.72,441.05 322.05,439.77 317.43,438.02 312.78,435.69 307.12,432.10 301.48,427.80 290.31,417.06 240.43,361.69 221.93,345.85 214.15,340.99 206.14,337.12 196.76,333.75 186.95,331.38 176.70,330.10 166.47,329.95 157.12,330.90 148.22,332.86 140.78,335.45 133.65,338.97 125.79,344.11 118.29,350.35 111.26,357.70 105.10,365.76 100.51,373.49 96.86,381.65 94.06,390.45 92.22,399.62 91.45,409.10 91.75,418.68 93.13,428.36 95.54,437.88 98.91,447.02 103.41,456.37 120.95,484.65 130.48,501.33 136.26,516.07 139.38,531.46 139.89,547.11 137.78,562.62 133.01,577.84 125.61,592.43 116.01,605.99 85.79,640.58 80.99,648.14 77.59,655.36 74.86,663.39 73.07,671.75 72.26,680.46 72.48,689.25 73.80,698.01 76.18,706.53 79.79,714.85 84.27,722.48 88.85,728.55 94.12,733.97 101.27,739.67 109.24,744.61 117.65,748.53 127.36,751.63 168.76,757.44 242.34,760.00 277.85,758.13 288.93,756.15 299.10,753.29 308.83,749.50 318.11,744.73 326.83,738.98 335.00,732.24 342.41,724.66 349.47,715.66 367.45,684.43 414.71,566.16 434.99,514.06 435.37,513.08"
        fill="none"
        stroke="#e94560"
        stroke-width="8.0"
        stroke-linejoin="round"
        stroke-linecap="round"/>
  <!-- Start/finish line -->
  <line x1="416.75" y1="505.79" x2="454.00" y2="520.36"
        stroke="#f5f5f5" stroke-width="9.6"
        stroke-linecap="round"/>
</svg>
