<?xml version="1.0" encoding="utf-8"?>
<svg xmlns="http://www.w3.org/2000/svg"
     width="800.0" height="683.3"
     viewBox="0 0 800.0 683.3">
  <rect width="100%" height="100%" fill="#1a1a2e"/>
  <!-- Track outline -->
  <polyline points="69.90,455.19 80.45,430.89 107.65,366.00 166.40,225.62 203.91,134.94 209.67,121.03 216.23,107.97 219.97,101.82 223.98,95.97 232.86,84.96 237.70,79.79 242.91,75.02 248.39,70.68 254.06,66.77 260.09,63.50 266.27,60.80 272.57,58.74 278.87,57.25 285.28,56.36 291.75,55.94 298.29,55.90 311.80,56.79 325.47,58.95 359.54,67.34 465.20,95.85 524.91,110.83 534.72,112.19 543.20,112.52 552.08,112.01 560.79,110.59 569.30,108.22 577.54,105.01 585.57,101.02 593.19,96.23 607.05,84.01 628.13,61.89 637.14,54.40 641.91,51.23 646.80,48.41 651.86,46.00 662.24,42.43 673.02,40.40 678.37,40.00 689.00,40.31 694.28,40.98 704.68,43.33 709.88,44.97 719.76,49.30 724.47,52.00 728.99,55.03 733.27,58.43 737.28,62.14 741.00,66.19 744.43,70.55 747.53,75.18 750.30,80.08 752.71,85.12 756.43,95.89 757.80,101.45 759.58,113.01 760.00,119.01 759.85,131.29 758.56,143.80 754.64,162.88 743.33,201.92 721.79,264.48 698.01,331.07 690.06,348.45 683.77,358.86 676.64,368.29 672.77,372.53 668.71,376.40 664.45,379.94 660.02,383.09 655.41,385.91 650.66,388.38 645.76,390.40 640.73,391.88 635.62,392.88 630.40,393.46 625.07,393.56 619.71,393.23 608.91,391.33 603.50,389.74 598.19,387.75 587.81,382.74 551.54,360.68 534.20,353.64 525.32,351.40 515.49,349.90 479.32,348.84 453.15,348.18 444.02,346.95 440.02,345.97 436.33,344.43 432.95,342.32 430.00,339.84 427.51,337.04 425.39,333.85 423.70,330.28 422.40,326.36 421.43,322.25 420.80,317.93 420.74,313.64 421.18,309.46 422.13,305.30 423.57,301.18 425.55,297.14 428.15,293.27 431.40,289.73 437.26,284.95 444.27,281.11 452.18,278.10 456.42,276.87 465.50,275.27 479.56,274.61 502.92,276.69 544.25,280.93 569.53,279.18 580.62,276.87 590.10,274.02 594.34,272.20 597.70,270.37 601.35,267.83 604.70,264.96 606.14,263.34 607.44,261.61 608.49,259.87 609.44,257.86 612.01,249.80 612.63,245.53 612.72,241.11 612.49,236.65 612.13,234.34 611.52,232.06 610.03,227.74 607.90,223.15 604.80,218.47 601.07,214.05 596.80,209.95 591.80,206.25 584.87,202.59 576.15,199.27 528.64,188.25 460.86,173.25 448.07,172.22 437.19,172.54 428.04,173.77 419.34,175.92 410.82,178.93 402.31,182.94 391.70,189.20 381.24,196.67 371.34,205.30 362.46,214.49 356.26,222.04 350.69,230.45 336.31,261.05 294.04,381.43 229.77,548.87 215.40,583.57 209.75,594.09 203.24,603.87 195.82,612.85 191.81,617.04 178.45,627.75 168.60,633.54 163.49,636.04 158.23,638.18 152.81,639.94 147.26,641.31 141.60,642.33 130.15,643.26 124.35,643.17 112.74,641.75 101.39,638.92 95.78,636.91 90.28,634.50 84.91,631.71 79.76,628.56 74.80,625.04 70.06,621.18 65.62,616.99 61.51,612.29 57.66,607.29 54.18,602.04 51.08,596.51 48.34,590.69 45.98,584.68 43.96,578.40 42.33,571.92 41.14,565.28 40.00,551.83 40.09,544.96 40.63,538.08 41.60,531.17 43.01,524.31 46.91,510.67 57.41,483.93 69.90,455.19"
        fill="none"
        stroke="#e94560"
        stroke-width="8.0"
        stroke-linejoin="round"
        stroke-linecap="round"/>
  <!-- Start/finish line -->
  <line x1="51.56" y1="447.22" x2="88.24" y2="463.16"
        stroke="#f5f5f5" stroke-width="9.6"
        stroke-linecap="round"/>
</svg>
