<?xml version="1.0" encoding="utf-8"?>
<svg xmlns="http://www.w3.org/2000/svg"
     width="667.0" height="800.0"
     viewBox="0 0 667.0 800.0">
  <rect width="100%" height="100%" fill="#1a1a2e"/>
  <!-- Track outline -->
  <polyline points="585.96,480.37 584.58,481.80 581.38,484.83 532.07,530.89 333.50,728.85 318.40,742.41 307.84,750.00 298.82,754.71 289.09,757.95 278.77,759.75 268.51,760.00 258.55,758.81 249.02,756.02 240.25,751.77 236.17,749.08 232.34,746.04 228.76,742.59 225.50,738.82 222.56,734.70 220.00,730.34 216.02,721.03 213.57,711.09 212.63,700.62 213.37,689.93 216.01,679.51 220.32,669.60 226.09,660.29 233.30,651.88 251.68,632.51 254.53,628.42 256.52,624.56 258.06,620.35 259.03,616.14 259.36,612.60 259.16,609.11 258.68,605.62 257.66,602.08 255.80,597.77 253.46,593.67 248.55,587.80 245.69,585.33 242.57,583.29 239.29,581.50 235.71,580.17 231.10,579.06 226.23,578.48 221.28,578.61 216.20,579.38 210.06,581.05 203.92,583.51 197.98,586.77 192.13,590.89 177.68,604.72 141.25,648.79 128.72,661.75 115.09,673.60 105.46,680.04 97.47,683.74 93.31,685.05 89.06,685.98 84.72,686.48 80.34,686.56 75.94,686.26 71.60,685.54 67.43,684.38 63.38,682.83 59.50,680.88 55.95,678.68 53.40,676.73 51.14,674.63 49.06,672.37 47.16,669.83 45.07,666.34 43.25,662.53 41.84,658.61 40.82,654.55 40.20,650.31 40.00,645.98 40.22,641.54 40.83,637.08 43.27,628.11 47.23,619.31 53.99,608.77 62.57,598.85 74.66,587.61 123.07,546.42 181.78,488.80 210.94,455.17 232.32,423.37 248.20,391.77 258.69,361.51 265.03,329.67 267.76,292.60 265.19,250.76 259.78,195.30 254.60,113.26 254.40,90.17 255.72,75.59 258.20,65.17 259.68,61.29 261.47,57.69 263.78,54.17 266.35,50.99 268.58,48.70 270.93,46.71 273.42,44.97 276.16,43.45 279.89,41.94 283.90,40.81 287.97,40.17 292.09,40.00 296.19,40.32 300.26,41.11 304.30,42.34 308.23,43.96 312.10,45.94 315.81,48.26 322.69,54.04 330.35,62.91 338.44,75.59 400.62,188.47 457.22,283.49 483.45,324.54 489.24,331.38 497.88,339.25 501.44,341.51 506.23,343.78 511.40,345.53 516.63,346.62 522.09,347.08 528.47,346.78 535.31,345.80 554.43,341.10 564.43,340.22 574.36,341.11 584.16,343.60 593.65,347.69 598.14,350.39 602.39,353.49 610.03,360.71 616.48,369.14 621.56,378.56 625.00,388.62 626.75,399.06 626.98,409.44 625.37,419.99 622.16,430.51 617.49,440.79 609.73,453.34 598.44,467.58 595.62,470.58 592.33,473.86 589.21,476.92 585.96,480.37"
        fill="none"
        stroke="#e94560"
        stroke-width="8.0"
        stroke-linejoin="round"
        stroke-linecap="round"/>
  <!-- Start/finish line -->
  <line x1="600.45" y1="494.15" x2="571.46" y2="466.59"
        stroke="#f5f5f5" stroke-width="9.6"
        stroke-linecap="round"/>
</svg>
