<?xml version="1.0" encoding="utf-8"?>
<svg xmlns="http://www.w3.org/2000/svg"
     width="800.0" height="386.0"
     viewBox="0 0 800.0 386.0">
  <rect width="100%" height="100%" fill="#1a1a2e"/>
  <!-- Track outline -->
  <polyline points="580.95,190.08 588.22,149.45 594.62,124.29 600.40,108.18 607.22,94.82 615.72,82.11 624.16,72.34 633.45,63.70 645.67,55.05 658.99,48.31 670.83,44.20 685.09,41.17 701.15,40.00 715.70,40.65 728.52,42.62 734.26,44.18 739.57,46.13 743.60,48.11 747.21,50.42 750.43,53.05 753.22,55.95 755.21,58.66 756.83,61.63 758.35,65.50 759.42,69.54 759.93,73.06 760.00,76.52 759.66,79.93 758.91,83.26 757.70,86.51 756.10,89.62 754.11,92.58 751.72,95.40 744.82,101.38 728.03,113.99 723.99,118.25 720.75,122.68 717.84,127.78 715.47,133.44 713.38,140.95 711.97,149.51 711.36,177.68 710.74,229.06 711.84,238.44 713.69,246.47 716.42,254.45 720.05,262.15 730.94,278.02 741.98,291.37 744.44,295.35 746.27,299.15 747.53,302.66 748.35,306.20 748.79,309.76 748.81,313.32 748.40,316.78 747.57,320.15 746.34,323.34 744.69,326.40 742.34,329.70 739.53,332.74 736.27,335.40 732.59,337.74 727.94,340.05 722.81,341.99 710.04,345.06 697.76,346.02 682.88,344.65 538.14,317.78 347.46,278.69 226.68,254.21 109.19,231.74 76.03,224.31 61.86,219.82 57.36,217.84 53.38,215.65 49.93,213.27 46.94,210.67 44.92,208.25 43.16,205.76 41.79,203.10 40.78,200.31 40.19,197.50 40.00,194.66 40.21,191.89 40.83,189.17 41.85,186.52 43.29,183.95 45.47,181.05 48.10,178.36 51.14,175.98 54.56,173.91 58.82,171.95 63.66,170.27 78.67,167.08 98.62,161.92 117.70,153.43 127.24,147.64 136.49,140.85 155.12,122.62 184.91,87.95 195.89,77.28 205.48,70.19 209.08,68.15 212.66,66.54 216.37,65.29 220.15,64.42 223.94,63.98 227.75,63.96 231.55,64.38 235.31,65.22 239.02,66.48 242.59,68.14 246.03,70.22 249.27,72.65 252.36,75.46 255.20,78.59 257.79,82.01 260.14,85.76 264.63,95.65 273.99,125.61 277.88,133.44 282.31,140.25 287.74,147.00 293.90,153.18 300.80,158.75 308.30,163.60 316.13,167.65 325.01,171.06 357.63,177.96 418.79,182.91 445.32,186.93 464.46,191.46 478.65,196.44 488.95,201.94 493.50,205.29 497.56,208.94 500.56,212.26 503.11,215.75 505.17,219.08 507.06,223.13 514.23,247.95 516.19,251.92 518.35,255.08 520.95,257.98 523.90,260.42 527.07,262.25 530.47,263.53 534.13,264.26 537.88,264.43 541.64,264.03 545.34,263.08 548.94,261.55 552.44,259.40 556.68,255.85 560.68,251.46 564.46,245.97 567.85,239.32 576.20,212.18 580.95,190.08"
        fill="none"
        stroke="#e94560"
        stroke-width="8.0"
        stroke-linejoin="round"
        stroke-linecap="round"/>
  <!-- Start/finish line -->
  <line x1="561.31" y1="186.32" x2="600.60" y2="193.84"
        stroke="#f5f5f5" stroke-width="9.6"
        stroke-linecap="round"/>
</svg>
