<?xml version="1.0" encoding="utf-8"?>
<svg xmlns="http://www.w3.org/2000/svg"
     width="681.8" height="800.0"
     viewBox="0 0 681.8 800.0">
  <rect width="100%" height="100%" fill="#1a1a2e"/>
  <!-- Track outline -->
  <polyline points="211.39,428.29 234.69,402.31 298.55,329.35 366.30,258.49 545.05,79.59 574.44,50.90 579.78,46.76 584.60,43.84 589.10,41.81 593.67,40.50 598.35,40.00 603.05,40.24 607.92,41.27 612.55,42.98 616.34,45.05 619.88,47.68 623.81,51.39 627.43,55.71 630.66,60.64 633.46,66.12 636.16,73.24 638.34,80.92 641.28,98.09 641.84,117.24 637.77,162.53 633.16,195.81 627.39,219.85 618.79,243.19 607.23,265.15 594.84,282.87 577.74,302.34 543.82,333.66 476.02,397.76 430.52,448.23 422.87,459.40 417.46,469.72 413.85,479.37 411.57,489.00 410.58,497.89 410.70,506.96 412.10,517.65 414.91,528.84 420.14,542.60 427.21,557.03 451.00,594.41 513.72,698.76 516.68,705.19 518.63,710.86 519.79,715.86 520.35,720.74 520.30,725.43 519.71,730.03 518.57,734.43 516.88,738.61 514.62,742.47 511.86,746.00 508.68,749.20 504.99,752.03 500.00,754.80 494.46,757.02 488.28,758.65 481.77,759.62 474.76,760.00 467.40,759.75 449.10,757.01 400.20,742.61 304.01,711.88 262.55,696.68 228.31,680.78 194.65,660.95 165.65,640.09 137.59,616.64 95.34,575.78 60.08,539.54 47.80,524.22 44.46,518.70 42.02,513.36 40.66,508.71 40.00,504.07 40.00,499.30 40.68,494.63 41.99,490.34 43.93,486.36 46.41,482.87 49.41,479.81 52.93,477.20 56.83,475.12 61.11,473.48 65.76,472.42 71.32,472.02 77.90,472.31 111.63,477.57 123.23,477.61 134.10,476.38 144.24,473.94 154.37,470.19 166.93,463.99 179.84,455.86 211.39,428.29"
        fill="none"
        stroke="#e94560"
        stroke-width="8.0"
        stroke-linejoin="round"
        stroke-linecap="round"/>
  <!-- Start/finish line -->
  <line x1="197.42" y1="413.98" x2="225.36" y2="442.61"
        stroke="#f5f5f5" stroke-width="9.6"
        stroke-linecap="round"/>
</svg>
