<?xml version="1.0" encoding="utf-8"?>
<svg xmlns="http://www.w3.org/2000/svg"
     width="800.0" height="610.1"
     viewBox="0 0 800.0 610.1">
  <rect width="100%" height="100%" fill="#1a1a2e"/>
  <!-- Track outline -->
  <polyline points="397.84,313.10 306.00,242.24 223.86,177.09 213.00,165.80 209.21,160.43 206.18,154.99 204.24,150.37 202.87,145.61 201.93,140.02 201.57,134.37 201.75,129.43 202.46,124.56 203.85,119.30 205.88,114.08 208.80,108.71 212.34,103.60 216.36,98.87 220.87,94.56 225.96,90.69 231.25,87.39 240.44,83.23 258.59,78.12 298.97,66.18 333.15,54.62 356.54,42.75 361.20,41.18 365.48,40.33 370.35,40.00 375.32,40.25 380.53,41.08 385.72,42.49 390.94,44.48 395.99,47.02 400.71,50.12 405.33,53.90 417.05,66.54 443.21,99.51 456.21,112.36 469.09,123.14 478.16,129.39 487.32,134.33 497.69,138.48 508.53,141.48 519.54,143.23 531.03,143.89 559.60,141.81 653.47,120.23 675.22,116.77 690.79,116.59 701.16,118.02 713.71,121.77 726.35,128.28 732.29,132.26 737.78,136.69 742.31,141.20 746.37,146.15 750.35,152.15 753.77,158.53 756.47,164.91 758.46,171.33 759.57,177.15 760.00,182.85 759.71,188.16 758.91,193.06 756.88,199.30 755.14,202.89 752.67,206.70 749.54,210.70 745.91,214.23 741.84,217.33 737.25,219.95 732.22,222.09 726.05,223.98 719.52,225.30 705.64,226.13 681.38,224.03 625.98,218.55 585.69,219.55 560.09,224.69 533.71,233.66 527.48,234.94 521.82,235.46 516.11,235.35 510.51,234.59 505.17,233.26 499.80,231.29 485.98,223.88 454.42,204.58 451.34,203.15 448.69,202.27 445.24,201.36 441.75,200.93 438.63,201.21 435.77,201.95 433.79,202.81 431.99,204.01 429.73,206.28 427.79,208.82 426.82,210.54 426.09,212.28 424.90,216.04 424.34,219.86 424.36,223.88 425.08,229.17 426.55,234.59 428.77,239.82 432.14,245.27 441.77,256.12 453.54,267.44 476.45,286.83 546.48,336.05 557.42,341.69 567.62,345.67 576.27,348.04 584.86,349.31 593.94,349.51 603.05,348.58 612.16,346.45 621.02,343.15 629.40,338.57 637.80,332.82 661.05,313.76 666.48,310.38 671.52,307.97 676.33,306.33 681.21,305.26 686.36,304.77 695.01,305.06 698.70,305.72 704.39,307.26 710.28,309.44 715.85,312.23 721.14,315.57 726.11,319.44 730.73,323.77 735.01,328.52 738.87,333.66 742.29,339.17 745.22,344.97 747.67,351.06 749.61,357.45 752.05,372.25 752.21,389.17 749.40,411.35 743.05,441.46 735.20,467.05 726.86,487.17 716.01,505.62 699.00,529.68 689.83,540.14 678.02,550.24 662.83,559.58 649.17,565.26 634.16,568.88 620.15,570.11 605.45,568.87 588.39,565.01 562.96,555.99 512.20,533.55 467.92,513.44 415.95,492.48 355.05,470.35 273.49,448.73 230.57,438.87 203.27,430.25 161.64,413.30 129.27,397.21 98.00,378.33 65.94,356.54 51.65,344.40 48.04,340.11 45.23,335.85 43.22,331.91 41.70,327.81 40.56,323.08 40.00,318.28 40.10,314.05 40.77,309.95 42.02,305.85 43.76,302.02 45.76,298.92 48.18,296.13 51.57,293.30 57.22,289.85 59.54,288.96 64.54,287.55 70.22,286.56 75.92,286.31 81.73,286.72 87.99,287.91 94.46,289.80 110.85,296.76 173.34,329.61 222.96,353.85 270.72,375.36 332.19,400.89 397.67,431.23 493.79,476.29 575.31,514.33 585.05,517.46 589.17,518.06 593.41,518.24 599.43,518.09 605.02,517.35 607.64,516.45 609.85,515.20 611.38,514.08 612.80,512.79 614.03,511.34 615.43,508.83 616.40,506.16 616.89,503.72 617.09,501.29 617.02,498.95 616.74,496.61 615.58,491.64 613.25,485.58 609.82,479.35 604.13,471.50 596.71,463.67 547.52,429.17 435.41,342.08 397.84,313.10"
        fill="none"
        stroke="#e94560"
        stroke-width="8.0"
        stroke-linejoin="round"
        stroke-linecap="round"/>
  <!-- Start/finish line -->
  <line x1="385.63" y1="328.94" x2="410.06" y2="297.27"
        stroke="#f5f5f5" stroke-width="9.6"
        stroke-linecap="round"/>
</svg>
