<?xml version="1.0" encoding="utf-8"?>
<svg xmlns="http://www.w3.org/2000/svg"
     width="365.8" height="800.0"
     viewBox="0 0 365.8 800.0">
  <rect width="100%" height="100%" fill="#1a1a2e"/>
  <!-- Track outline -->
  <polyline points="105.54,469.89 101.47,462.46 70.93,410.29 57.82,382.85 48.86,358.25 43.54,337.05 40.58,315.35 40.00,293.51 42.24,267.11 47.93,232.05 60.51,175.86 81.51,83.47 86.10,68.93 88.53,63.78 91.37,59.14 94.71,54.93 98.49,51.15 102.68,47.86 107.17,45.07 111.79,42.89 116.57,41.28 121.25,40.34 126.11,40.00 132.16,40.35 138.32,41.45 144.46,43.39 150.20,45.95 154.73,48.70 158.72,51.72 161.58,54.22 164.27,57.09 168.16,62.09 171.81,67.82 174.60,73.63 177.07,80.31 184.51,108.19 232.49,318.05 233.70,326.96 233.82,333.22 233.26,338.03 232.10,342.22 231.20,344.32 230.10,346.21 228.79,347.86 227.27,349.24 225.54,350.40 223.72,351.27 221.81,351.83 219.79,352.10 217.78,352.15 215.79,351.96 213.80,351.55 211.87,350.90 208.96,349.41 206.28,347.44 203.85,344.97 201.73,342.01 199.65,337.96 197.98,333.21 196.45,326.33 195.37,317.70 194.85,292.35 193.83,266.06 191.52,254.33 188.42,244.71 185.65,238.51 182.32,233.09 178.28,228.05 173.68,223.56 168.63,219.63 163.16,216.44 157.26,214.24 151.30,212.95 146.48,212.58 141.66,212.95 135.80,214.36 129.98,216.68 124.41,219.92 119.31,223.94 114.89,228.66 111.15,233.98 108.13,239.89 105.94,246.22 104.65,252.88 104.29,260.02 104.98,269.44 107.21,280.29 125.92,327.65 151.45,387.06 165.68,418.68 169.16,423.58 172.65,427.16 175.72,429.50 178.98,431.21 182.50,432.38 186.23,432.95 190.49,432.75 194.91,432.03 199.80,430.69 204.50,429.58 207.81,429.55 211.01,430.09 215.03,431.49 218.99,433.57 222.86,436.38 226.41,439.78 229.80,444.18 232.50,448.48 234.47,452.54 236.86,459.20 239.82,474.22 241.04,492.38 241.25,523.58 242.79,532.94 245.20,541.37 248.45,549.18 252.36,556.23 255.87,561.17 260.21,565.89 270.37,574.03 280.67,582.31 285.45,587.66 289.42,593.26 293.83,600.90 297.71,609.24 303.65,627.62 322.04,708.07 325.77,733.47 325.72,739.33 325.02,744.34 323.83,748.36 322.19,751.83 321.14,753.42 319.98,754.81 318.61,756.04 316.74,757.30 314.63,758.37 312.41,759.18 308.96,759.89 305.27,760.00 300.37,759.32 295.29,757.88 290.06,755.63 284.99,752.66 280.05,748.85 275.35,744.28 265.23,730.94 196.04,614.84 108.69,475.65 105.54,469.89"
        fill="none"
        stroke="#e94560"
        stroke-width="8.0"
        stroke-linejoin="round"
        stroke-linecap="round"/>
  <!-- Start/finish line -->
  <line x1="87.99" y1="479.49" x2="123.09" y2="460.29"
        stroke="#f5f5f5" stroke-width="9.6"
        stroke-linecap="round"/>
</svg>
