<?xml version="1.0" encoding="utf-8"?>
<svg xmlns="http://www.w3.org/2000/svg"
     width="800.0" height="590.4"
     viewBox="0 0 800.0 590.4">
  <rect width="100%" height="100%" fill="#1a1a2e"/>
  <!-- Track outline -->
  <polyline points="526.60,527.86 637.10,541.74 679.23,545.99 727.87,550.44 733.27,550.10 739.90,548.80 746.67,546.66 750.81,544.18 753.93,541.62 754.99,540.53 755.85,539.35 757.37,536.86 758.72,534.00 759.55,531.32 760.00,528.49 759.98,524.73 759.34,520.90 757.99,517.35 756.07,514.05 753.66,511.14 750.61,508.52 745.81,505.49 739.46,502.78 701.05,495.19 622.65,484.68 611.27,482.25 605.20,480.34 599.60,477.82 595.98,475.35 592.67,472.56 590.75,470.52 589.13,468.27 587.18,464.66 585.61,460.84 584.27,455.27 583.69,449.27 583.48,436.77 582.67,429.59 581.23,422.88 579.55,418.65 577.39,415.01 574.88,411.99 571.94,409.48 568.31,407.52 564.81,406.27 563.21,406.00 561.74,405.95 560.24,405.92 558.57,406.11 554.37,407.36 550.27,409.00 548.98,409.68 547.51,410.70 488.37,459.50 478.43,466.05 472.71,469.04 467.02,471.24 464.28,472.00 461.38,472.52 457.19,472.78 453.01,472.62 450.18,472.15 447.55,471.41 444.93,470.38 442.39,469.11 440.03,467.64 437.73,465.81 434.66,462.71 431.88,459.27 430.22,456.60 428.91,453.87 427.82,450.88 427.01,447.76 426.27,441.13 426.51,435.78 432.71,388.78 434.51,368.46 435.65,362.42 437.46,356.81 439.78,351.77 449.18,336.67 451.96,331.03 453.99,325.05 455.08,318.76 455.16,312.36 454.17,305.96 451.97,299.65 449.58,294.98 435.76,275.11 432.45,269.41 429.49,263.37 427.09,257.13 425.37,250.77 424.45,244.36 424.36,238.11 425.02,232.15 426.37,226.57 428.25,221.43 430.55,216.68 433.24,212.30 436.32,208.16 439.82,204.32 443.77,200.80 448.05,197.68 452.71,195.00 457.69,192.71 462.97,190.95 468.47,189.79 474.14,189.33 479.98,189.52 486.11,190.27 547.24,202.40 582.47,204.28 599.73,202.50 609.72,199.55 614.38,197.35 618.73,194.46 622.89,191.24 626.69,187.36 633.18,178.17 635.59,172.97 637.34,167.42 638.35,161.67 638.54,155.78 638.27,149.87 637.09,144.05 635.13,138.40 632.36,133.07 629.18,127.97 625.30,123.45 623.29,121.50 620.86,119.57 614.39,115.66 608.15,112.50 605.36,111.65 593.27,109.61 586.60,109.43 540.21,113.84 525.02,114.01 517.68,113.55 510.62,112.60 503.80,111.19 497.13,109.26 490.58,106.72 484.07,103.62 446.32,82.47 440.23,80.13 432.22,78.34 424.75,77.19 421.63,77.26 409.27,78.99 381.33,87.86 370.63,89.78 365.34,89.99 360.00,89.46 354.52,88.13 348.88,86.00 343.06,83.20 285.53,46.49 277.59,42.88 272.67,41.21 267.58,40.12 262.88,40.00 258.31,40.65 253.96,42.14 249.93,44.24 246.74,46.38 243.40,49.42 221.62,77.94 158.08,175.20 142.11,198.67 138.69,202.49 131.34,208.70 130.04,209.56 128.73,210.25 126.13,211.32 123.22,212.14 120.45,212.45 117.66,212.39 114.79,211.96 111.98,211.16 109.18,209.95 106.50,208.40 104.03,206.68 101.38,204.34 87.01,187.27 78.12,176.84 69.64,168.26 65.64,165.76 61.98,164.27 59.16,163.54 56.65,163.20 55.39,163.13 54.13,163.24 52.19,163.68 49.97,164.39 47.93,165.36 46.26,166.59 44.77,168.06 43.51,169.59 42.26,171.52 41.32,173.69 40.41,177.60 40.00,181.73 40.13,184.76 40.60,187.68 42.39,194.12 56.23,223.24 141.30,409.08 169.15,466.37 172.96,471.87 178.55,477.93 184.01,483.13 186.62,484.82 198.44,490.55 205.50,492.81 229.80,497.02 287.46,500.71 452.45,518.52 526.60,527.86"
        fill="none"
        stroke="#e94560"
        stroke-width="8.0"
        stroke-linejoin="round"
        stroke-linecap="round"/>
  <!-- Start/finish line -->
  <line x1="529.10" y1="508.01" x2="524.10" y2="547.70"
        stroke="#f5f5f5" stroke-width="9.6"
        stroke-linecap="round"/>
</svg>
