<?xml version="1.0" encoding="utf-8"?>
<svg xmlns="http://www.w3.org/2000/svg"
     width="592.0" height="800.0"
     viewBox="0 0 592.0 800.0">
  <rect width="100%" height="100%" fill="#1a1a2e"/>
  <!-- Track outline -->
  <polyline points="394.32,562.92 364.44,509.81 345.19,475.72 331.22,445.95 321.13,418.20 307.65,374.36 302.32,362.69 296.35,352.43 289.15,342.40 281.18,333.33 273.74,326.40 265.30,320.15 251.85,312.45 236.93,305.49 220.73,299.18 205.86,294.71 199.00,293.55 192.90,293.34 187.12,293.85 181.58,295.09 176.41,297.02 171.62,299.62 167.44,302.78 163.77,306.49 160.68,310.76 158.17,315.46 156.31,320.60 154.87,326.21 152.09,342.14 150.35,347.27 148.19,351.92 145.56,356.32 142.44,360.46 138.55,364.60 134.20,368.37 129.36,371.76 124.23,374.61 119.13,376.77 113.84,378.40 108.24,379.55 102.42,380.18 95.74,380.30 88.96,379.82 82.37,378.74 76.04,377.11 70.65,375.13 65.61,372.68 60.93,369.85 56.61,366.58 52.78,362.97 49.39,359.00 46.52,354.77 44.14,350.26 42.27,345.46 40.95,340.46 40.19,335.39 40.00,330.15 40.40,324.21 41.43,318.07 45.72,304.19 53.04,288.41 63.27,272.79 74.94,259.07 90.36,245.16 106.50,233.83 124.52,224.13 144.13,216.49 162.93,211.61 182.63,208.87 202.76,208.63 222.99,211.02 242.60,215.97 273.12,227.29 299.61,237.28 306.29,238.57 312.39,238.92 318.32,238.57 324.04,237.46 329.39,235.62 334.32,233.13 338.25,230.38 341.76,227.04 345.32,222.53 348.56,216.99 352.78,207.12 356.45,195.33 362.63,158.91 364.38,116.01 366.76,83.77 369.45,63.80 370.85,58.84 372.61,54.57 374.75,50.78 377.25,47.47 379.79,45.04 382.60,43.07 385.73,41.49 389.04,40.45 391.26,40.10 393.51,40.00 395.72,40.16 398.88,40.91 401.87,42.19 404.67,43.99 407.27,46.31 410.13,49.78 412.68,53.86 415.05,59.07 416.90,64.76 418.99,77.89 423.85,170.70 433.13,222.14 455.30,316.26 551.50,733.78 551.96,738.81 551.70,742.18 550.93,745.77 549.65,749.12 547.88,752.18 545.68,754.86 544.07,756.33 542.32,757.59 540.45,758.60 538.49,759.32 536.41,759.78 534.26,760.00 530.57,759.78 526.80,758.96 522.84,757.56 518.90,755.59 514.47,752.66 510.21,749.12 506.05,744.88 502.20,740.08 494.76,727.53 487.01,709.92 482.82,694.41 481.05,679.25 481.61,665.10 489.18,617.78 488.94,584.40 480.00,531.85 439.59,343.40 435.68,332.75 431.86,325.45 428.36,320.22 424.49,315.82 420.30,312.09 415.80,309.08 411.49,307.10 407.03,305.82 402.45,305.28 397.85,305.44 393.33,306.36 389.01,307.98 385.03,310.31 381.42,313.23 378.22,316.71 375.47,320.72 372.97,325.76 371.04,331.39 369.54,338.64 368.89,346.45 369.28,355.36 370.78,364.66 373.70,375.07 378.27,386.83 407.14,443.40 427.34,483.97 450.85,537.84 464.87,573.39 466.87,580.54 467.96,586.65 468.29,591.36 468.02,595.78 467.13,599.98 465.67,603.86 463.84,607.03 461.58,609.81 458.92,612.16 455.93,614.05 452.76,615.37 449.41,616.15 445.96,616.34 442.44,615.95 438.55,614.83 434.54,613.04 429.16,609.85 423.88,605.95 419.39,601.87 415.29,597.35 407.59,586.38 405.29,582.41 394.32,562.92"
        fill="none"
        stroke="#e94560"
        stroke-width="8.0"
        stroke-linejoin="round"
        stroke-linecap="round"/>
  <!-- Start/finish line -->
  <line x1="376.89" y1="572.72" x2="411.75" y2="553.11"
        stroke="#f5f5f5" stroke-width="9.6"
        stroke-linecap="round"/>
</svg>
