<?xml version="1.0" encoding="utf-8"?>
<svg xmlns="http://www.w3.org/2000/svg"
     width="440.0" height="800.0"
     viewBox="0 0 440.0 800.0">
  <rect width="100%" height="100%" fill="#1a1a2e"/>
  <!-- Track outline -->
  <polyline points="256.94,306.33 372.01,599.03 392.26,650.40 398.01,667.56 399.88,677.92 400.05,683.03 399.74,687.94 399.07,691.79 398.02,695.42 396.57,698.99 394.75,702.39 392.72,705.47 390.05,708.77 381.09,717.25 371.59,726.77 362.90,741.04 357.93,748.35 354.93,751.49 351.75,754.17 349.00,755.98 346.08,757.43 342.35,758.75 338.37,759.65 334.18,760.00 329.88,759.83 325.28,759.11 320.65,757.83 315.85,755.91 311.11,753.44 301.54,746.75 291.82,737.74 280.01,724.27 263.82,702.34 211.99,623.05 153.53,531.63 108.80,458.81 99.20,440.73 94.26,428.43 91.37,416.35 90.51,404.64 91.33,395.69 92.27,391.42 93.58,387.30 95.24,383.38 97.25,379.67 99.62,376.24 102.32,373.09 105.38,370.17 108.72,367.55 116.24,362.97 124.51,359.61 128.83,358.51 133.23,357.81 137.71,357.54 142.21,357.70 151.40,359.36 160.82,362.67 172.84,368.85 187.39,378.39 198.95,387.80 209.48,398.63 216.75,408.25 222.68,418.83 227.27,430.31 230.57,442.59 232.89,458.97 233.48,476.29 231.86,503.58 230.33,545.12 233.04,571.59 238.59,591.63 241.96,599.63 245.70,606.55 248.73,610.73 251.98,614.21 255.54,617.22 259.26,619.63 262.56,621.11 265.90,622.04 269.31,622.47 272.72,622.38 276.07,621.79 279.30,620.67 282.36,618.97 285.23,616.79 287.98,614.11 290.49,610.92 293.14,606.45 295.42,601.26 297.47,594.28 298.90,586.51 299.81,576.67 299.81,566.03 295.92,538.60 282.92,493.77 254.87,415.53 243.33,391.75 230.42,373.83 217.31,360.61 209.95,354.91 202.11,349.95 193.90,345.84 184.91,342.45 157.67,336.56 137.31,332.80 123.57,328.47 113.12,323.65 103.29,317.50 92.03,308.18 81.93,297.24 74.88,287.40 67.55,273.73 61.93,258.62 57.08,238.77 44.32,159.06 40.36,128.18 40.00,111.15 41.40,97.70 43.90,87.37 47.80,77.50 53.01,68.23 59.52,59.88 67.22,52.78 75.84,47.19 85.23,43.21 95.27,40.78 105.75,40.00 116.38,40.92 126.83,43.58 136.74,47.99 145.75,54.11 153.86,61.84 161.25,71.13 169.65,84.80 180.33,106.94 196.93,147.36 256.94,306.33"
        fill="none"
        stroke="#e94560"
        stroke-width="8.0"
        stroke-linejoin="round"
        stroke-linecap="round"/>
  <!-- Start/finish line -->
  <line x1="275.59" y1="299.10" x2="238.29" y2="313.56"
        stroke="#f5f5f5" stroke-width="9.6"
        stroke-linecap="round"/>
</svg>
