<?xml version="1.0" encoding="utf-8"?>
<svg xmlns="http://www.w3.org/2000/svg"
     width="800.0" height="620.6"
     viewBox="0 0 800.0 620.6">
  <rect width="100%" height="100%" fill="#1a1a2e"/>
  <!-- Track outline -->
  <polyline points="564.18,511.04 493.83,471.08 438.92,439.89 396.23,415.82 247.00,330.80 239.33,326.43 121.52,260.74 106.73,251.82 99.74,247.26 93.03,242.59 86.70,237.75 80.60,232.80 74.88,227.55 69.47,221.99 64.51,216.07 59.92,209.92 55.82,203.46 52.14,196.74 48.94,189.77 46.11,182.64 43.75,175.37 42.04,167.91 40.16,152.67 40.00,145.00 40.27,137.32 41.09,129.62 42.68,121.92 44.96,114.49 47.90,107.35 51.18,100.49 54.85,93.86 58.83,87.36 63.41,81.35 68.55,75.66 74.04,70.35 79.79,65.24 85.83,60.55 92.30,56.28 99.03,52.52 105.94,49.00 113.08,45.96 120.31,43.56 127.61,41.88 135.03,40.61 142.45,40.06 150.03,40.00 157.65,40.29 165.29,40.98 172.91,42.12 180.44,43.62 187.85,45.61 195.24,47.99 202.48,50.74 209.56,53.97 223.38,61.12 285.26,97.18 327.33,117.20 337.77,120.66 353.82,124.15 356.32,124.20 358.47,124.01 363.07,123.38 367.57,122.25 371.96,120.62 376.09,118.47 383.76,113.01 397.83,98.72 401.58,95.09 405.64,91.78 409.99,88.79 414.64,86.08 419.53,83.81 424.62,81.79 429.89,80.19 435.31,78.90 440.81,77.91 446.45,77.42 452.20,77.49 464.09,79.04 481.71,83.29 518.18,94.54 529.95,98.75 535.43,101.18 540.76,103.95 545.90,107.02 550.57,110.46 554.92,114.12 558.77,118.09 562.40,122.35 565.76,126.86 568.75,131.61 571.23,136.64 573.11,141.85 574.63,147.27 575.74,152.90 578.36,170.35 580.93,181.70 582.78,187.26 585.01,192.64 590.78,202.49 594.34,207.07 598.33,211.24 602.62,215.07 607.34,218.48 612.44,221.29 623.42,225.86 647.25,231.38 658.66,233.73 663.93,235.18 668.98,237.05 673.74,239.25 678.25,241.74 682.35,244.61 685.98,247.88 689.19,251.44 691.94,255.33 694.22,259.48 696.03,263.89 697.23,268.60 698.11,273.45 698.39,278.39 698.04,283.32 697.15,288.21 695.72,293.05 693.97,297.73 691.48,302.08 688.45,306.29 685.00,310.21 681.16,313.79 676.88,316.98 672.24,319.79 667.35,322.10 662.14,323.92 656.74,325.33 651.15,326.17 645.42,326.52 639.71,326.53 633.91,326.02 628.09,325.20 622.26,324.01 616.42,322.55 592.74,315.24 571.17,310.93 561.81,310.26 557.31,310.58 552.95,311.32 548.89,312.44 545.08,313.95 541.58,316.00 538.42,318.72 535.61,321.92 533.18,325.38 531.25,329.17 529.75,333.26 528.80,337.53 528.51,341.90 528.65,346.39 529.46,350.90 530.86,355.27 535.12,363.67 537.99,367.64 544.93,374.82 548.88,378.01 577.70,392.88 621.50,414.33 662.13,434.78 704.39,458.39 727.51,472.24 732.44,475.77 736.93,479.39 741.16,483.14 744.94,487.19 748.37,491.39 751.34,495.82 753.93,500.46 756.15,505.18 757.86,510.12 759.07,515.23 759.85,520.32 760.00,525.47 759.62,530.64 758.80,535.71 757.47,540.76 755.55,545.67 753.06,550.33 750.11,554.82 746.77,559.15 743.02,563.22 738.80,566.90 734.17,570.21 729.30,573.14 724.10,575.54 718.66,577.46 713.10,578.92 707.51,580.00 701.70,580.62 696.00,580.46 690.11,579.97 684.24,579.05 678.55,577.54 667.32,573.45 661.79,570.78 639.95,557.96 577.29,518.48 564.18,511.04"
        fill="none"
        stroke="#e94560"
        stroke-width="8.0"
        stroke-linejoin="round"
        stroke-linecap="round"/>
  <!-- Start/finish line -->
  <line x1="554.31" y1="528.43" x2="574.06" y2="493.64"
        stroke="#f5f5f5" stroke-width="9.6"
        stroke-linecap="round"/>
</svg>
