<?xml version="1.0" encoding="utf-8"?>
<svg xmlns="http://www.w3.org/2000/svg"
     width="378.5" height="800.0"
     viewBox="0 0 378.5 800.0">
  <rect width="100%" height="100%" fill="#1a1a2e"/>
  <!-- Track outline -->
  <polyline points="129.74,200.48 127.82,209.03 123.80,227.39 114.74,269.71 107.93,297.26 99.27,336.69 89.57,382.40 79.62,427.21 69.19,477.43 62.65,516.44 61.38,528.82 61.55,532.78 62.00,535.40 63.41,539.55 64.42,541.40 69.97,548.61 71.16,550.85 71.99,553.00 72.50,554.94 72.77,556.94 72.78,559.43 72.50,562.09 71.01,568.68 67.59,576.80 49.38,611.04 43.62,627.26 40.75,642.93 40.00,660.96 42.06,681.14 45.81,697.38 51.39,711.27 59.31,723.98 68.06,734.01 79.75,743.72 92.79,751.65 105.62,756.65 117.25,759.29 132.79,760.00 146.93,758.58 161.14,754.74 176.48,747.63 189.22,738.79 200.78,727.80 213.43,711.54 221.79,696.77 230.91,674.65 237.57,653.46 246.14,615.67 255.79,571.42 274.16,483.97 286.07,425.10 293.20,390.58 294.67,382.54 295.01,377.68 294.90,374.62 294.33,371.68 293.54,369.53 291.73,366.36 285.58,357.36 284.32,355.04 283.40,352.77 282.54,349.81 281.94,346.78 281.61,341.58 282.04,337.21 283.94,330.57 288.53,320.12 311.30,273.77 321.07,246.70 328.05,222.68 332.79,200.18 337.41,173.06 338.54,162.07 338.54,158.81 338.09,155.61 336.91,152.28 335.82,149.51 334.09,147.01 331.35,144.42 327.93,142.19 325.26,140.86 323.44,139.32 322.25,137.73 321.20,135.49 320.80,132.71 320.87,129.94 321.13,127.56 322.60,119.18 325.22,105.23 325.45,101.19 325.30,97.33 324.67,92.50 322.37,83.56 320.67,79.46 317.82,74.29 314.52,69.34 310.01,64.28 305.61,59.99 297.13,53.50 286.24,47.44 275.57,43.37 258.36,40.22 244.52,40.00 228.49,42.40 214.56,46.96 201.25,53.80 189.09,62.71 176.66,74.99 165.87,89.02 155.75,106.90 146.93,128.33 139.30,155.63 129.74,200.48"
        fill="none"
        stroke="#e94560"
        stroke-width="8.0"
        stroke-linejoin="round"
        stroke-linecap="round"/>
  <!-- Start/finish line -->
  <line x1="149.29" y1="204.68" x2="110.18" y2="196.27"
        stroke="#f5f5f5" stroke-width="9.6"
        stroke-linecap="round"/>
</svg>
