<?xml version="1.0" encoding="utf-8"?>
<svg xmlns="http://www.w3.org/2000/svg"
     width="800.0" height="715.8"
     viewBox="0 0 800.0 715.8">
  <rect width="100%" height="100%" fill="#1a1a2e"/>
  <!-- Track outline -->
  <polyline points="636.90,323.72 634.79,321.30 594.05,267.88 537.56,196.96 460.61,104.37 438.62,80.97 424.28,67.90 409.59,57.23 402.03,52.86 394.29,49.11 378.31,43.54 370.06,41.70 361.70,40.49 353.21,40.00 344.63,40.18 336.06,41.11 327.45,42.91 318.94,45.33 302.21,52.08 294.10,56.35 286.24,61.26 278.67,66.73 271.44,72.77 258.22,86.42 234.64,117.71 205.64,159.71 167.61,210.97 67.69,343.00 49.70,370.58 43.62,382.53 41.83,388.02 40.57,394.07 40.00,399.84 40.38,405.80 41.11,410.35 42.47,414.84 44.28,419.16 46.73,423.28 49.65,427.27 56.41,434.45 64.79,440.94 74.57,446.47 79.91,448.77 91.00,452.04 96.64,452.93 107.97,452.99 113.51,452.18 119.07,450.78 129.81,446.61 134.88,443.72 144.30,436.54 152.81,427.63 156.72,422.66 170.34,399.46 184.36,373.53 204.80,339.44 218.73,318.51 223.59,311.82 228.62,305.35 233.83,299.16 239.31,293.33 245.04,287.86 251.03,282.79 257.32,278.21 263.82,274.09 270.57,270.59 277.51,267.75 284.60,265.63 291.81,264.11 299.00,263.38 306.19,263.32 313.43,263.95 320.67,265.23 327.83,267.13 334.95,269.60 342.00,272.54 348.98,275.95 355.87,279.78 362.68,283.99 376.19,293.26 430.23,333.45 441.71,342.74 446.89,347.38 451.65,352.17 455.93,357.08 459.62,362.34 462.82,367.75 465.62,373.38 467.74,379.19 469.27,385.05 470.21,390.94 470.49,397.00 470.25,403.12 469.41,409.08 467.97,415.14 466.06,421.20 463.59,427.08 460.63,432.83 457.16,438.43 453.30,443.89 449.02,449.20 444.28,454.27 433.82,464.03 353.96,531.56 341.54,543.13 320.07,566.52 307.97,584.05 304.88,589.94 300.28,601.78 298.84,607.78 298.00,613.83 297.77,619.80 298.06,625.74 298.92,631.60 300.41,637.36 302.39,642.71 304.98,647.58 307.99,652.26 315.50,660.64 319.91,664.33 324.66,667.51 329.94,670.17 335.46,672.31 347.25,675.14 353.49,675.82 366.36,675.63 372.90,674.68 379.44,673.05 392.27,668.28 398.53,665.07 429.16,644.11 469.88,616.30 591.02,537.17 655.94,494.83 700.42,466.27 750.49,433.52 755.66,428.81 756.68,427.60 757.48,426.43 758.17,425.13 758.74,423.78 759.57,421.01 760.00,417.89 759.87,414.40 759.23,410.93 758.16,407.28 754.50,399.77 751.90,396.03 748.74,392.42 745.05,388.92 736.16,382.41 719.88,374.22 693.95,365.52 687.11,362.84 680.28,359.66 673.51,355.92 666.89,351.66 660.45,346.89 654.18,341.71 648.07,336.04 642.29,329.92 636.90,323.72"
        fill="none"
        stroke="#e94560"
        stroke-width="8.0"
        stroke-linejoin="round"
        stroke-linecap="round"/>
  <!-- Start/finish line -->
  <line x1="621.81" y1="336.85" x2="651.99" y2="310.59"
        stroke="#f5f5f5" stroke-width="9.6"
        stroke-linecap="round"/>
</svg>
