<?xml version="1.0" encoding="utf-8"?>
<svg xmlns="http://www.w3.org/2000/svg"
     width="622.5" height="800.0"
     viewBox="0 0 622.5 800.0">
  <rect width="100%" height="100%" fill="#1a1a2e"/>
  <!-- Track outline -->
  <polyline points="539.92,507.92 474.03,625.56 404.55,730.53 389.29,742.53 375.21,749.58 362.61,754.50 352.16,758.19 342.05,759.75 333.93,760.00 325.35,759.00 314.47,755.11 244.17,704.33 149.56,622.58 81.49,557.94 65.66,539.56 55.76,523.89 49.66,509.89 45.41,495.92 41.94,482.83 40.00,469.03 40.71,449.44 43.91,428.83 56.89,387.03 132.44,200.36 164.89,139.72 199.16,87.03 215.63,68.58 233.54,54.03 246.41,47.19 260.04,42.22 273.19,40.00 281.41,40.36 289.50,42.00 297.25,44.64 304.52,48.06 313.48,53.67 321.67,60.69 328.39,68.97 334.96,85.03 339.11,102.75 340.73,120.83 340.21,138.64 337.58,154.36 331.31,178.44 302.55,268.47 266.26,387.14 250.40,445.36 240.39,494.61 239.87,505.83 240.47,515.14 242.18,523.53 244.49,530.19 247.56,536.22 251.26,541.72 258.14,549.03 266.05,555.28 271.49,559.14 277.21,562.58 283.28,565.03 289.76,566.31 296.64,566.50 304.55,565.81 329.99,560.39 360.01,549.17 407.51,520.42 456.31,485.31 536.50,421.89 544.41,416.44 551.00,412.42 557.43,410.36 560.98,410.22 564.60,410.67 568.15,411.61 571.40,412.94 574.21,414.64 576.47,416.53 578.52,418.83 580.28,421.42 581.62,424.17 582.38,426.92 582.46,430.42 581.65,434.03 580.18,438.03 578.23,442.67 539.92,507.92"
        fill="none"
        stroke="#e94560"
        stroke-width="8.0"
        stroke-linejoin="round"
        stroke-linecap="round"/>
  <!-- Start/finish line -->
  <line x1="557.30" y1="517.82" x2="522.54" y2="498.02"
        stroke="#f5f5f5" stroke-width="9.6"
        stroke-linecap="round"/>
</svg>
