<?xml version="1.0" encoding="utf-8"?>
<svg xmlns="http://www.w3.org/2000/svg"
     width="800.0" height="528.6"
     viewBox="0 0 800.0 528.6">
  <rect width="100%" height="100%" fill="#1a1a2e"/>
  <!-- Track outline -->
  <polyline points="189.12,283.08 56.23,131.26 46.68,117.35 44.25,112.41 42.45,107.54 41.13,102.43 40.32,97.22 40.00,92.00 40.18,86.78 40.89,81.68 42.07,76.67 43.74,71.64 45.78,66.97 47.67,63.64 50.01,60.48 54.34,55.88 59.26,51.54 63.59,48.37 68.09,45.73 72.84,43.56 77.71,41.89 82.40,40.77 87.08,40.14 91.65,40.00 96.19,40.34 100.73,41.12 105.13,42.41 109.04,44.16 112.80,46.39 117.25,49.66 121.18,53.24 123.22,55.75 124.89,58.43 126.77,62.13 128.34,66.12 129.41,70.18 130.03,74.33 130.19,78.46 129.86,82.71 128.84,87.68 127.13,93.12 118.66,112.07 117.29,116.94 116.60,121.64 116.47,127.73 117.17,134.12 119.08,141.46 121.99,148.91 126.17,157.06 131.47,165.24 139.35,175.20 148.19,184.50 156.20,191.34 164.50,197.08 172.53,201.56 180.87,205.11 189.47,207.55 198.92,209.30 230.56,212.42 246.59,216.49 258.92,221.39 273.29,229.79 286.87,239.97 299.25,251.95 312.49,268.24 343.74,311.90 351.34,320.13 358.80,326.77 367.35,333.15 376.25,338.55 384.23,342.29 392.59,345.14 402.83,347.43 413.50,348.73 424.09,349.03 434.89,348.28 447.18,346.27 459.49,342.93 470.99,338.30 483.03,331.81 527.86,299.01 622.61,218.52 648.51,197.30 661.36,188.14 666.28,185.10 671.77,182.44 685.22,177.76 696.28,175.91 701.86,175.62 707.42,175.82 712.88,176.62 718.25,177.92 723.49,179.72 728.54,181.99 733.32,184.73 737.81,187.90 741.96,191.53 745.75,195.54 749.14,199.89 752.11,204.55 754.58,209.49 756.61,214.65 758.13,220.02 759.19,225.54 760.00,236.89 759.53,244.11 758.45,251.29 755.15,262.61 748.66,276.18 740.16,288.90 729.87,300.67 715.63,313.48 699.50,324.57 620.82,368.25 600.76,383.67 592.85,391.46 585.80,399.74 574.36,417.94 551.17,467.77 547.71,472.85 544.42,476.55 541.12,479.62 537.61,482.25 533.90,484.46 529.98,486.23 525.96,487.52 521.83,488.31 517.63,488.56 513.43,488.32 509.30,487.57 505.26,486.36 501.31,484.72 497.54,482.64 493.94,480.07 490.59,477.14 487.46,473.86 484.58,470.17 481.49,465.11 478.85,459.74 475.70,450.38 470.51,428.76 468.62,424.41 463.90,417.21 460.87,413.93 456.77,410.56 452.19,407.68 447.44,405.53 442.45,404.08 437.33,403.41 432.16,403.52 427.03,404.46 422.03,406.13 417.36,408.42 412.72,411.53 399.71,424.29 392.49,430.71 387.33,434.14 381.84,437.11 377.05,439.09 372.21,440.58 367.17,441.73 362.02,442.37 356.63,442.35 351.22,441.82 340.46,439.54 330.05,435.55 317.77,428.29 304.12,417.14 293.83,406.03 250.78,354.34 189.12,283.08"
        fill="none"
        stroke="#e94560"
        stroke-width="8.0"
        stroke-linejoin="round"
        stroke-linecap="round"/>
  <!-- Start/finish line -->
  <line x1="174.04" y1="296.22" x2="204.19" y2="269.93"
        stroke="#f5f5f5" stroke-width="9.6"
        stroke-linecap="round"/>
</svg>
