<?xml version="1.0" encoding="utf-8"?>
<svg xmlns="http://www.w3.org/2000/svg"
     width="800.0" height="269.4"
     viewBox="0 0 800.0 269.4">
  <rect width="100%" height="100%" fill="#1a1a2e"/>
  <!-- Track outline -->
  <polyline points="190.21,44.48 228.39,46.68 393.96,53.79 442.47,52.30 527.64,49.19 573.66,49.02 605.78,45.92 652.15,43.54 702.37,41.36 726.90,40.82 736.38,41.72 740.83,42.72 744.83,43.99 747.16,45.00 749.22,46.17 751.16,47.56 752.96,49.15 754.60,50.94 756.05,52.90 757.32,55.03 758.37,57.29 759.17,59.69 759.71,62.15 759.99,64.67 760.00,67.21 759.75,69.77 759.25,72.29 758.48,74.79 757.46,77.21 756.16,79.53 754.61,81.72 752.79,83.77 750.76,85.64 748.54,87.32 746.06,88.84 742.63,90.49 738.90,91.88 734.97,92.90 730.92,93.57 722.43,93.85 682.81,90.71 600.91,87.02 569.07,87.81 563.27,88.70 558.30,90.05 553.21,92.10 548.37,94.70 543.81,97.76 539.60,101.30 535.79,105.33 532.37,109.88 528.80,116.27 526.23,121.80 525.50,123.96 524.33,129.07 523.43,135.36 524.10,147.37 526.19,162.23 526.09,172.54 524.91,180.28 522.77,187.78 518.51,197.27 512.86,206.16 507.73,212.11 501.88,217.24 495.36,221.48 488.33,224.77 478.41,227.72 468.02,229.22 457.36,229.39 446.63,228.27 435.95,225.87 425.44,222.23 409.90,214.92 394.62,206.29 352.59,181.59 289.85,148.17 269.33,140.37 254.07,137.34 235.58,136.75 227.81,137.50 220.55,138.87 214.76,140.58 209.14,142.84 195.63,150.29 183.41,159.69 157.99,186.60 145.91,198.85 135.59,207.53 126.79,213.22 119.84,216.48 110.14,219.40 100.07,220.72 92.54,220.62 85.17,219.47 80.40,218.03 73.63,214.92 65.42,209.40 59.89,204.35 53.45,196.39 48.18,187.30 44.31,177.37 41.84,166.79 40.33,152.90 40.00,115.04 40.56,106.17 42.11,97.50 45.55,86.38 50.39,75.79 55.06,68.41 60.67,61.74 67.09,55.85 74.21,50.79 81.94,46.68 90.24,43.65 101.80,41.07 113.65,40.00 128.78,40.39 147.25,41.63 157.55,42.60 190.21,44.48"
        fill="none"
        stroke="#e94560"
        stroke-width="8.0"
        stroke-linejoin="round"
        stroke-linecap="round"/>
  <!-- Start/finish line -->
  <line x1="191.36" y1="24.52" x2="189.06" y2="64.45"
        stroke="#f5f5f5" stroke-width="9.6"
        stroke-linecap="round"/>
</svg>
