<?xml version="1.0" encoding="utf-8"?>
<svg xmlns="http://www.w3.org/2000/svg"
     width="800.0" height="786.4"
     viewBox="0 0 800.0 786.4">
  <rect width="100%" height="100%" fill="#1a1a2e"/>
  <!-- Track outline -->
  <polyline points="359.60,299.07 442.86,231.68 449.49,225.24 495.54,185.71 644.33,63.53 664.63,49.53 671.63,45.82 678.92,42.91 686.39,40.98 694.07,40.00 701.83,40.03 711.39,41.38 718.91,43.58 726.27,46.78 733.24,50.91 739.59,56.24 745.44,62.23 750.51,69.03 754.60,76.50 757.58,84.53 759.33,92.98 760.00,101.80 759.43,110.58 757.72,119.37 754.72,127.95 750.35,136.13 744.87,143.55 738.44,150.31 547.89,306.98 535.00,320.32 526.39,331.53 519.96,341.81 514.79,352.77 509.79,366.67 505.79,384.15 497.34,504.43 493.74,539.85 477.42,635.41 464.46,694.63 459.25,709.84 455.91,716.85 450.69,724.81 444.35,731.94 436.90,737.93 432.80,740.44 428.50,742.56 423.91,744.24 419.29,745.47 411.46,746.45 403.30,746.21 395.11,744.71 387.15,742.04 379.56,738.10 372.55,732.98 366.18,726.84 360.99,719.66 356.94,711.58 354.09,702.89 352.48,693.81 347.88,599.53 344.12,583.44 341.20,576.16 335.79,567.17 330.13,559.07 326.87,555.78 319.50,549.83 311.22,545.07 304.07,542.16 296.43,540.24 288.48,539.33 280.47,539.48 272.52,540.78 256.81,546.23 249.19,550.29 146.52,633.04 139.36,637.80 132.01,641.94 124.49,645.46 116.80,648.23 108.99,650.00 101.03,650.64 92.88,650.30 84.75,648.70 77.00,645.88 69.56,641.80 62.78,636.66 56.67,630.48 51.39,623.46 46.90,615.91 43.47,607.78 41.13,599.19 40.00,590.36 40.11,581.49 41.59,572.65 44.41,563.94 48.56,555.71 53.90,548.05 60.42,541.18 359.60,299.07"
        fill="none"
        stroke="#e94560"
        stroke-width="8.0"
        stroke-linejoin="round"
        stroke-linecap="round"/>
  <!-- Start/finish line -->
  <line x1="347.02" y1="283.52" x2="372.19" y2="314.61"
        stroke="#f5f5f5" stroke-width="9.6"
        stroke-linecap="round"/>
</svg>
