<?xml version="1.0" encoding="utf-8"?>
<svg xmlns="http://www.w3.org/2000/svg"
     width="370.1" height="800.0"
     viewBox="0 0 370.1 800.0">
  <rect width="100%" height="100%" fill="#1a1a2e"/>
  <!-- Track outline -->
  <polyline points="101.31,337.89 101.09,338.93 74.49,457.88 43.08,612.39 40.00,653.73 41.38,670.28 45.19,689.23 50.50,708.17 55.12,718.99 60.37,728.00 66.53,736.11 73.20,742.92 80.04,748.27 87.16,752.48 94.73,755.83 102.65,758.17 111.84,759.70 121.60,760.00 133.88,758.62 146.39,755.71 157.94,751.69 168.85,746.44 177.55,740.89 185.48,734.36 191.81,727.88 197.73,719.76 205.10,705.28 212.09,687.89 225.94,642.54 251.56,527.89 266.24,476.05 275.99,430.90 325.72,202.45 330.12,160.37 329.76,144.04 328.00,128.66 324.77,114.02 320.31,100.53 314.91,88.95 308.68,78.79 301.88,70.14 294.43,62.74 285.60,55.85 276.09,50.19 265.10,45.43 253.75,42.13 242.58,40.36 231.54,40.00 221.43,40.91 211.65,43.05 202.66,46.19 194.09,50.45 186.64,55.36 179.54,61.54 172.33,69.57 165.35,79.91 156.82,97.11 148.44,119.95 121.32,238.97 107.99,305.98 101.31,337.89"
        fill="none"
        stroke="#e94560"
        stroke-width="8.0"
        stroke-linejoin="round"
        stroke-linecap="round"/>
  <!-- Start/finish line -->
  <line x1="120.89" y1="341.99" x2="81.74" y2="333.80"
        stroke="#f5f5f5" stroke-width="9.6"
        stroke-linecap="round"/>
</svg>
