<?xml version="1.0" encoding="utf-8"?>
<svg xmlns="http://www.w3.org/2000/svg"
     width="800.0" height="531.7"
     viewBox="0 0 800.0 531.7">
  <rect width="100%" height="100%" fill="#1a1a2e"/>
  <!-- Track outline -->
  <polyline points="537.73,225.43 522.31,222.67 485.17,218.01 408.84,217.88 383.30,216.24 366.34,213.23 350.67,208.01 333.08,198.90 321.36,190.34 295.44,162.45 201.45,58.57 193.77,51.20 184.85,45.82 173.37,41.91 163.96,40.61 151.22,40.00 140.41,41.57 129.24,44.41 115.83,49.60 103.62,57.38 92.02,67.54 78.11,82.86 67.90,97.65 60.54,110.69 54.75,123.26 48.90,140.96 44.41,159.10 42.31,173.63 40.56,190.67 40.00,204.95 41.39,220.31 45.46,236.52 51.17,253.65 56.40,264.85 61.77,274.14 68.28,282.91 79.30,294.46 95.78,302.83 115.25,310.68 131.95,314.99 149.70,317.04 168.34,314.79 187.72,306.25 208.28,297.81 230.63,290.06 251.73,285.16 271.31,283.31 291.04,285.29 314.34,291.79 333.68,299.59 360.42,312.07 378.83,320.37 389.60,323.65 400.51,325.79 408.90,326.75 426.46,324.68 535.98,306.20 549.02,306.94 563.43,309.19 575.91,312.99 589.93,321.06 600.91,330.24 617.08,347.66 641.71,378.38 677.23,427.01 685.54,439.38 695.18,454.90 703.61,469.83 709.65,479.83 715.07,486.15 722.29,490.58 727.69,491.75 733.87,490.80 739.26,487.30 745.41,479.43 750.00,470.84 754.31,459.73 757.68,447.41 759.35,432.95 760.00,412.87 758.54,391.96 755.57,360.05 749.31,325.63 744.32,309.01 738.74,297.59 731.76,288.51 722.44,280.79 710.74,273.76 671.49,259.57 598.73,238.72 553.51,228.27 537.73,225.43"
        fill="none"
        stroke="#e94560"
        stroke-width="8.0"
        stroke-linejoin="round"
        stroke-linecap="round"/>
  <!-- Start/finish line -->
  <line x1="534.20" y1="245.12" x2="541.27" y2="205.75"
        stroke="#f5f5f5" stroke-width="9.6"
        stroke-linecap="round"/>
</svg>
