<?xml version="1.0" encoding="utf-8"?>
<svg xmlns="http://www.w3.org/2000/svg"
     width="800.0" height="430.0"
     viewBox="0 0 800.0 430.0">
  <rect width="100%" height="100%" fill="#1a1a2e"/>
  <!-- Track outline -->
  <polyline points="551.21,230.43 535.36,227.62 497.23,222.84 418.83,222.70 392.60,221.01 375.18,217.92 359.09,212.56 341.02,203.21 328.97,194.41 302.36,165.77 205.83,59.08 197.94,51.50 188.77,45.98 176.98,41.96 167.32,40.62 154.23,40.00 143.13,41.62 131.65,44.53 117.88,49.86 105.34,57.85 93.43,68.29 79.14,84.02 68.66,99.21 61.10,112.61 55.14,125.52 49.14,143.69 44.53,162.33 42.37,177.25 40.58,194.75 40.00,209.42 41.43,225.19 45.61,241.84 51.47,259.44 56.85,270.94 62.36,280.48 69.04,289.48 80.36,301.35 95.11,314.20 109.24,322.72 125.70,330.06 144.86,336.13 373.38,366.02 396.19,365.99 420.35,362.05 457.99,349.74 528.34,323.25 538.66,320.08 549.14,317.96 560.36,317.59 570.40,319.23 581.22,322.39 591.77,327.89 603.76,337.36 619.50,351.54 631.86,362.02 643.82,371.72 654.62,379.16 663.45,384.01 668.09,385.81 673.04,387.15 686.95,389.18 700.74,390.04 705.29,389.64 709.34,388.83 720.18,385.65 730.42,380.80 739.66,374.42 743.59,370.98 747.17,367.22 750.41,362.99 753.24,358.47 755.67,353.62 757.61,348.63 758.92,343.87 759.73,339.09 760.00,334.43 759.81,329.78 759.25,325.26 758.26,320.80 756.78,316.48 754.90,312.28 750.08,304.20 747.16,300.43 743.52,296.62 736.49,290.18 726.69,283.27 715.24,277.38 656.61,257.66 563.82,232.67 551.21,230.43"
        fill="none"
        stroke="#e94560"
        stroke-width="8.0"
        stroke-linejoin="round"
        stroke-linecap="round"/>
  <!-- Start/finish line -->
  <line x1="547.71" y1="250.12" x2="554.71" y2="210.74"
        stroke="#f5f5f5" stroke-width="9.6"
        stroke-linecap="round"/>
</svg>
