<?xml version="1.0" encoding="utf-8"?>
<svg xmlns="http://www.w3.org/2000/svg"
     width="800.0" height="447.1"
     viewBox="0 0 800.0 447.1">
  <rect width="100%" height="100%" fill="#1a1a2e"/>
  <!-- Track outline -->
  <polyline points="365.08,71.49 154.19,40.00 128.35,40.34 108.72,43.41 92.13,48.10 77.35,54.27 67.08,59.74 58.07,66.32 50.84,73.61 45.10,81.64 42.44,87.55 40.77,93.83 40.00,101.45 40.20,108.61 40.97,112.35 42.13,115.59 43.53,118.83 45.18,121.87 47.15,124.77 49.32,127.44 51.86,130.00 54.60,132.30 57.48,134.52 60.97,136.48 67.08,138.84 74.71,140.87 83.34,141.64 106.83,136.65 132.87,128.96 184.54,118.80 220.28,117.65 254.43,119.98 274.28,123.86 289.97,129.33 295.96,132.84 300.88,137.12 305.89,142.89 309.85,149.03 311.19,152.51 312.02,155.92 312.57,159.23 312.79,162.53 312.65,165.77 312.16,168.94 311.31,172.08 310.13,175.09 308.67,178.09 306.70,181.03 301.85,186.22 296.04,190.98 292.45,193.31 288.74,195.13 284.43,196.48 271.46,197.53 256.97,196.92 242.55,194.79 228.75,193.71 221.48,195.20 214.62,197.63 209.22,200.23 206.38,202.22 204.11,204.41 201.99,206.74 200.11,209.31 198.54,212.01 197.22,214.94 196.21,218.01 195.48,221.29 194.93,224.59 194.87,228.37 195.92,234.75 197.99,242.31 200.96,249.36 206.30,256.89 213.14,263.60 220.71,270.02 236.97,282.00 254.73,291.95 272.70,298.33 290.32,301.97 304.37,303.15 317.87,302.28 331.26,299.41 343.87,294.35 354.04,287.26 362.12,279.73 364.66,276.87 366.75,273.42 371.01,264.04 374.75,251.79 376.17,232.32 377.63,212.51 381.43,199.01 386.74,187.27 394.30,176.30 403.19,167.16 413.70,159.39 425.11,153.73 437.33,149.95 451.14,148.43 479.70,151.09 507.31,156.22 518.00,158.55 526.81,161.32 533.31,164.22 539.14,167.87 544.09,172.12 548.23,176.77 550.38,180.05 552.07,183.42 553.41,186.70 554.44,190.10 555.07,193.44 555.34,196.82 555.23,200.19 554.77,203.57 553.91,207.04 552.74,210.39 551.15,213.63 549.31,216.59 547.15,219.40 544.78,221.89 542.08,224.19 539.18,226.18 535.91,228.00 532.48,229.55 529.05,230.94 524.68,231.95 501.66,231.38 475.74,231.24 463.74,233.91 453.15,238.29 443.02,244.20 433.72,251.99 428.48,257.93 423.71,264.72 419.61,272.65 414.27,289.49 411.33,306.90 411.45,318.07 412.83,327.25 414.11,331.20 415.67,334.40 417.46,337.58 419.47,340.48 421.74,343.14 424.22,345.47 426.98,347.60 429.92,349.42 433.21,351.07 436.60,352.32 440.05,353.07 443.50,353.40 446.85,353.40 450.16,353.07 453.39,352.36 456.56,351.28 459.66,349.83 462.71,348.04 465.51,346.18 468.59,343.38 474.03,335.62 480.49,325.29 486.30,317.36 496.59,309.84 503.02,307.17 506.17,306.39 509.30,306.02 512.36,306.02 515.39,306.39 518.39,307.14 521.33,308.25 524.13,309.43 527.12,311.59 533.96,321.01 541.33,333.73 548.47,349.62 556.07,365.08 564.65,376.05 574.46,384.99 588.02,393.59 602.92,400.11 619.75,404.83 637.12,407.13 654.91,406.72 672.59,403.95 690.05,399.03 705.82,392.38 714.85,387.05 722.55,380.64 726.65,376.52 730.65,368.28 734.58,356.47 741.61,326.95 748.06,280.24 760.00,201.04 759.65,185.62 757.89,173.26 755.86,165.67 753.14,159.29 749.28,153.32 745.16,148.56 742.66,146.23 739.94,144.41 734.00,141.61 727.32,139.59 720.82,139.05 714.87,139.45 711.75,140.02 708.70,141.17 703.42,144.14 698.09,148.36 693.70,153.35 689.88,159.63 687.27,165.30 685.01,171.85 683.53,179.84 685.34,209.81 688.89,243.29 688.77,290.74 687.06,302.72 684.89,311.89 683.79,315.13 682.37,317.94 678.39,323.67 673.85,328.97 670.86,331.80 667.88,333.96 664.65,335.55 661.32,336.70 658.03,337.54 654.70,338.01 651.35,338.12 648.00,337.88 644.61,337.27 641.22,336.33 637.90,335.15 634.38,333.32 628.44,328.94 622.53,323.33 618.20,317.94 614.55,311.86 611.81,305.38 609.78,298.36 608.48,290.84 607.97,283.04 608.20,275.31 609.60,266.57 619.08,241.40 628.78,213.52 630.81,194.83 630.34,177.55 628.31,164.42 624.80,152.58 619.73,141.54 613.39,131.86 605.58,123.08 596.44,115.73 583.41,108.30 567.07,102.30 473.16,87.62 365.08,71.49"
        fill="none"
        stroke="#e94560"
        stroke-width="8.0"
        stroke-linejoin="round"
        stroke-linecap="round"/>
  <!-- Start/finish line -->
  <line x1="362.13" y1="91.27" x2="368.04" y2="51.70"
        stroke="#f5f5f5" stroke-width="9.6"
        stroke-linecap="round"/>
</svg>
