<?xml version="1.0" encoding="utf-8"?>
<svg xmlns="http://www.w3.org/2000/svg"
     width="800.0" height="481.9"
     viewBox="0 0 800.0 481.9">
  <rect width="100%" height="100%" fill="#1a1a2e"/>
  <!-- Track outline -->
  <polyline points="417.29,48.62 270.92,40.00 181.87,42.29 158.89,47.12 138.48,54.66 118.84,65.08 100.26,79.03 80.55,99.90 63.41,124.14 51.34,147.38 43.07,172.04 40.00,198.24 40.40,224.36 42.47,245.86 46.94,266.81 55.51,291.51 66.65,314.42 77.42,330.25 90.06,344.45 109.17,362.40 131.18,378.69 159.89,393.40 187.44,404.10 213.29,410.39 491.60,441.92 589.98,438.92 610.42,435.59 628.83,430.55 652.45,421.43 673.32,411.39 681.29,406.85 688.73,401.18 705.97,384.56 723.61,363.70 738.19,340.79 749.09,319.17 752.30,310.46 754.43,301.30 758.23,277.76 760.00,251.31 757.80,226.90 753.60,205.53 750.83,196.20 747.13,187.54 738.19,170.84 728.18,155.13 716.88,142.01 672.56,104.40 649.61,90.53 627.97,81.15 536.92,61.66 419.23,48.75 417.29,48.62"
        fill="none"
        stroke="#e94560"
        stroke-width="8.0"
        stroke-linejoin="round"
        stroke-linecap="round"/>
  <!-- Start/finish line -->
  <line x1="416.11" y1="68.59" x2="418.47" y2="28.66"
        stroke="#f5f5f5" stroke-width="9.6"
        stroke-linecap="round"/>
</svg>
