<?xml version="1.0" encoding="utf-8"?>
<svg xmlns="http://www.w3.org/2000/svg"
     width="653.9" height="800.0"
     viewBox="0 0 653.9 800.0">
  <rect width="100%" height="100%" fill="#1a1a2e"/>
  <!-- Track outline -->
  <polyline points="612.66,365.00 606.04,300.38 588.90,231.01 563.39,178.11 531.90,132.60 499.37,99.55 464.21,74.00 428.74,55.73 391.98,44.33 367.27,40.63 342.24,40.00 316.72,42.75 287.94,49.71 258.68,60.70 229.59,75.58 180.87,109.69 135.91,151.82 102.26,193.42 75.08,239.98 55.71,290.77 43.75,346.41 40.00,417.05 45.82,487.27 58.97,541.33 79.30,590.22 108.56,636.04 143.72,675.53 183.74,708.16 226.95,733.08 270.96,749.55 315.45,758.42 356.51,760.00 397.01,754.40 424.75,746.48 452.34,735.08 478.17,719.77 501.92,700.24 524.01,676.90 543.86,650.72 569.61,606.05 589.86,554.63 605.81,479.14 613.86,411.14 613.78,375.66 612.66,365.00"
        fill="none"
        stroke="#e94560"
        stroke-width="8.0"
        stroke-linejoin="round"
        stroke-linecap="round"/>
  <!-- Start/finish line -->
  <line x1="592.77" y1="367.04" x2="632.56" y2="362.95"
        stroke="#f5f5f5" stroke-width="9.6"
        stroke-linecap="round"/>
</svg>
