<?xml version="1.0" encoding="utf-8"?>
<svg xmlns="http://www.w3.org/2000/svg"
     width="553.8" height="800.0"
     viewBox="0 0 553.8 800.0">
  <rect width="100%" height="100%" fill="#1a1a2e"/>
  <!-- Track outline -->
  <polyline points="69.81,454.07 72.32,466.91 97.20,598.66 107.44,630.74 117.60,651.43 131.03,672.11 152.81,696.46 177.83,718.10 202.32,734.06 228.12,746.21 256.16,754.91 284.76,759.58 312.07,760.00 339.16,756.55 366.46,749.60 393.29,738.41 421.85,720.33 447.69,698.58 464.89,679.86 479.45,658.43 494.39,627.24 505.71,592.77 511.59,558.82 513.84,524.14 510.08,452.69 489.90,325.83 461.04,199.96 444.54,159.18 426.95,128.42 412.82,108.63 397.05,92.14 375.28,75.32 351.56,61.48 329.35,51.51 305.59,44.61 271.37,40.05 236.24,40.00 207.42,44.08 180.12,52.15 155.19,64.13 131.38,79.62 106.19,99.19 83.77,121.63 69.16,141.57 57.76,165.44 45.92,215.50 40.00,266.95 40.04,290.50 42.81,315.16 69.81,454.07"
        fill="none"
        stroke="#e94560"
        stroke-width="8.0"
        stroke-linejoin="round"
        stroke-linecap="round"/>
  <!-- Start/finish line -->
  <line x1="89.44" y1="450.26" x2="50.18" y2="457.89"
        stroke="#f5f5f5" stroke-width="9.6"
        stroke-linecap="round"/>
</svg>
