<?xml version="1.0" encoding="utf-8"?>
<svg xmlns="http://www.w3.org/2000/svg"
     width="543.6" height="800.0"
     viewBox="0 0 543.6 800.0">
  <rect width="100%" height="100%" fill="#1a1a2e"/>
  <!-- Track outline -->
  <polyline points="136.31,332.87 110.89,393.61 52.18,541.64 43.82,569.94 40.45,591.39 40.00,620.54 41.58,648.72 43.24,657.42 45.50,664.71 48.29,672.56 52.18,680.83 62.48,697.45 75.63,714.23 90.88,728.21 107.13,739.67 121.82,747.49 136.96,753.24 153.71,757.50 171.21,759.87 192.43,760.00 211.17,758.33 217.39,757.14 223.47,755.14 240.27,748.31 259.21,738.49 277.97,725.69 295.82,710.48 311.19,693.97 325.65,674.99 358.10,619.46 402.50,519.05 491.10,288.70 502.12,221.98 503.60,201.62 503.20,182.87 500.56,165.27 495.79,147.74 486.85,124.91 475.60,103.54 463.85,88.11 452.52,76.09 447.53,71.23 442.10,67.02 425.83,57.30 409.25,48.80 397.93,44.47 390.42,42.53 381.56,41.12 361.97,40.00 340.17,40.89 318.65,45.06 300.44,50.41 294.87,52.58 289.74,55.30 267.49,70.90 263.40,74.35 259.41,78.81 242.18,105.15 225.10,134.77 215.69,154.93 139.09,326.23 136.31,332.87"
        fill="none"
        stroke="#e94560"
        stroke-width="8.0"
        stroke-linejoin="round"
        stroke-linecap="round"/>
  <!-- Start/finish line -->
  <line x1="154.76" y1="340.59" x2="117.86" y2="325.14"
        stroke="#f5f5f5" stroke-width="9.6"
        stroke-linecap="round"/>
</svg>
