<?xml version="1.0" encoding="utf-8"?>
<svg xmlns="http://www.w3.org/2000/svg"
     width="697.9" height="800.0"
     viewBox="0 0 697.9 800.0">
  <rect width="100%" height="100%" fill="#1a1a2e"/>
  <!-- Track outline -->
  <polyline points="200.55,267.98 273.75,316.72 490.13,467.20 509.87,484.43 515.25,490.25 523.80,501.27 529.46,512.25 532.10,518.79 534.02,525.74 535.26,534.41 535.51,543.22 534.81,550.66 533.21,558.00 530.20,566.76 526.14,575.34 521.49,582.94 515.07,591.13 488.22,617.27 461.40,643.98 454.70,653.39 450.17,662.11 447.04,670.48 445.19,679.04 444.78,687.87 445.65,696.69 447.77,705.30 450.96,713.56 455.19,721.62 460.34,729.08 466.50,735.94 473.56,742.04 482.85,748.18 492.78,753.20 502.12,756.62 511.39,758.86 519.72,759.92 527.98,760.00 536.33,759.11 544.75,757.11 554.26,753.43 563.57,748.45 571.60,742.92 580.16,735.21 627.24,677.61 638.71,661.28 647.45,646.03 652.40,633.60 655.65,621.07 657.57,607.94 657.90,594.62 656.41,581.32 653.25,568.07 647.89,553.43 640.91,539.22 633.00,526.35 622.69,513.02 563.27,454.77 303.02,201.90 156.16,61.19 143.80,52.41 133.81,47.13 125.15,43.69 116.60,41.48 107.74,40.20 98.83,40.00 90.08,40.92 81.51,42.94 73.32,46.00 65.63,50.21 58.81,55.50 52.84,61.85 48.15,69.08 44.50,77.07 41.97,85.35 40.47,94.36 40.00,106.80 41.07,119.79 43.99,132.63 48.51,145.04 54.77,157.17 62.43,168.47 71.07,178.62 82.17,188.82 150.64,234.75 200.55,267.98"
        fill="none"
        stroke="#e94560"
        stroke-width="8.0"
        stroke-linejoin="round"
        stroke-linecap="round"/>
  <!-- Start/finish line -->
  <line x1="211.63" y1="251.33" x2="189.47" y2="284.62"
        stroke="#f5f5f5" stroke-width="9.6"
        stroke-linecap="round"/>
</svg>
