<?xml version="1.0" encoding="utf-8"?>
<svg xmlns="http://www.w3.org/2000/svg"
     width="800.0" height="362.0"
     viewBox="0 0 800.0 362.0">
  <rect width="100%" height="100%" fill="#1a1a2e"/>
  <!-- Track outline -->
  <polyline points="390.76,54.28 235.91,42.33 162.94,40.00 152.86,40.73 143.57,42.51 123.74,48.40 104.88,55.65 97.86,59.12 91.52,63.27 80.68,72.17 70.63,81.89 66.23,86.91 62.30,92.47 55.14,104.34 48.54,118.85 43.51,137.74 40.55,157.73 40.00,176.89 41.10,193.50 42.17,199.66 43.99,205.27 48.74,216.09 55.56,227.54 67.29,241.87 81.78,255.01 100.96,266.74 123.88,276.41 162.67,288.14 213.19,297.81 556.86,322.04 631.55,316.79 672.47,307.30 690.92,299.82 707.34,290.46 722.11,278.69 735.53,265.73 740.48,259.30 744.55,252.27 750.91,239.04 756.25,223.52 759.24,204.82 760.00,185.97 759.04,171.60 756.32,158.50 751.53,147.23 745.85,137.65 741.72,132.08 737.35,127.34 726.27,117.43 719.49,112.55 710.92,107.62 649.41,83.26 626.59,77.46 572.97,70.34 398.09,54.83 390.76,54.28"
        fill="none"
        stroke="#e94560"
        stroke-width="8.0"
        stroke-linejoin="round"
        stroke-linecap="round"/>
  <!-- Start/finish line -->
  <line x1="389.22" y1="74.22" x2="392.30" y2="34.34"
        stroke="#f5f5f5" stroke-width="9.6"
        stroke-linecap="round"/>
</svg>
