<?xml version="1.0" encoding="utf-8"?>
<svg xmlns="http://www.w3.org/2000/svg"
     width="800.0" height="517.8"
     viewBox="0 0 800.0 517.8">
  <rect width="100%" height="100%" fill="#1a1a2e"/>
  <!-- Track outline -->
  <polyline points="268.52,393.34 272.80,384.88 291.81,350.12 301.28,330.86 311.06,317.42 322.56,306.32 341.91,293.02 373.11,276.17 392.42,269.32 417.67,263.87 439.91,262.57 590.88,268.46 640.13,265.90 657.30,262.55 673.01,257.93 686.03,252.92 698.24,246.77 709.41,239.64 720.03,231.10 730.61,220.43 740.19,208.36 747.65,196.10 753.58,183.38 757.13,172.65 759.31,162.12 760.00,153.24 759.64,144.85 758.49,138.16 756.42,131.66 752.06,122.67 746.47,113.93 739.86,105.70 732.46,98.42 724.07,92.05 714.90,86.73 703.46,81.80 691.32,78.17 679.53,76.02 665.59,75.14 621.17,76.51 574.15,81.06 550.89,85.49 532.01,91.04 522.43,95.14 514.33,99.99 508.01,104.91 501.78,111.40 478.82,146.00 463.50,166.62 448.36,182.99 430.63,196.94 410.93,208.75 389.70,217.57 363.15,223.81 276.72,239.29 241.86,244.19 192.70,246.81 167.80,244.97 161.80,243.95 156.38,242.37 150.54,239.72 144.86,236.16 139.22,231.52 134.18,226.16 130.74,221.16 128.02,215.71 126.13,209.96 125.00,203.92 124.67,197.97 125.11,191.86 126.55,184.67 128.96,177.14 139.64,155.36 152.32,132.55 158.01,118.68 162.21,105.30 163.53,98.03 163.84,91.25 163.16,84.40 161.56,77.81 158.88,71.43 155.37,65.65 150.96,60.43 145.82,55.84 139.00,51.00 131.53,46.92 123.18,43.65 114.72,41.38 107.47,40.23 100.05,40.00 90.01,41.03 80.13,43.19 73.23,45.54 66.90,48.67 61.04,52.63 55.66,57.43 51.01,62.88 47.01,68.99 43.91,75.03 41.59,82.10 40.00,95.24 40.03,109.47 41.36,120.74 44.43,133.01 57.51,167.61 73.04,201.78 80.19,215.30 87.44,226.06 95.83,235.13 105.02,242.75 115.34,249.53 126.52,255.22 140.02,260.68 155.25,264.99 208.40,270.78 227.19,273.70 246.82,280.40 253.97,283.80 260.49,287.64 266.01,291.67 270.93,296.19 274.64,300.63 277.74,305.49 280.09,310.43 281.78,315.50 282.55,319.49 282.68,323.48 281.87,328.09 280.31,332.80 277.55,338.81 274.06,344.49 270.17,349.09 265.81,352.95 260.72,356.26 255.25,358.82 249.33,360.66 243.00,361.82 234.83,362.50 226.02,362.47 203.90,359.77 183.94,353.62 157.69,344.44 150.98,343.41 144.87,343.36 138.77,344.10 132.89,345.71 127.63,348.04 122.73,351.17 118.39,354.95 114.59,359.52 111.61,364.52 109.32,370.75 107.73,384.05 106.89,399.15 104.17,427.70 104.97,435.05 106.69,441.62 109.76,449.10 113.65,455.90 117.70,461.16 122.24,465.47 127.31,468.75 133.21,471.33 144.47,474.81 156.64,477.15 166.52,477.79 176.19,477.24 186.00,475.60 195.71,472.72 205.18,468.52 214.70,462.79 226.67,453.66 238.01,442.88 245.99,432.79 253.06,422.02 265.61,399.12 268.52,393.34"
        fill="none"
        stroke="#e94560"
        stroke-width="8.0"
        stroke-linejoin="round"
        stroke-linecap="round"/>
  <!-- Start/finish line -->
  <line x1="250.68" y1="384.32" x2="286.37" y2="402.36"
        stroke="#f5f5f5" stroke-width="9.6"
        stroke-linecap="round"/>
</svg>
