<?xml version="1.0" encoding="utf-8"?>
<svg xmlns="http://www.w3.org/2000/svg"
     width="800.0" height="420.3"
     viewBox="0 0 800.0 420.3">
  <rect width="100%" height="100%" fill="#1a1a2e"/>
  <!-- Track outline -->
  <polyline points="379.23,327.98 277.71,310.47 110.99,272.14 95.14,266.61 76.70,257.67 68.68,252.51 61.18,246.62 54.76,240.63 49.03,233.56 45.57,227.92 42.49,221.68 40.51,215.07 40.00,208.47 40.41,201.54 41.56,195.15 43.50,189.55 46.15,184.46 49.21,179.79 55.36,172.79 62.43,166.91 70.96,161.60 80.13,157.58 90.62,154.74 101.08,153.16 109.68,152.70 118.11,153.09 135.75,156.25 153.59,162.28 170.99,171.82 188.48,183.09 323.02,248.56 354.73,262.34 374.05,267.22 382.91,268.26 391.82,268.33 401.81,267.29 411.47,264.57 416.72,261.98 421.65,258.68 425.80,254.41 428.02,251.00 430.00,247.16 431.54,243.00 432.48,238.65 432.77,232.48 432.11,225.95 430.70,219.85 428.02,213.74 424.28,208.18 419.84,202.69 406.41,190.63 393.09,178.93 387.60,171.79 383.22,164.32 379.38,156.10 376.34,147.17 374.36,137.55 373.42,127.46 373.72,116.66 375.12,106.00 377.57,95.85 380.92,86.44 385.14,77.90 390.17,70.33 396.63,63.15 403.87,57.01 412.77,51.27 421.98,46.75 430.04,43.91 438.14,41.97 455.86,40.00 474.71,40.72 514.68,46.60 588.08,64.66 603.46,70.47 612.11,74.89 620.34,80.66 626.65,87.38 632.08,95.38 636.31,104.49 639.79,114.33 644.72,133.49 647.58,141.78 651.12,149.29 654.49,154.49 658.39,159.19 662.75,162.82 667.09,164.86 671.88,166.08 676.79,166.51 681.52,166.26 687.20,164.75 692.71,162.03 698.05,158.72 705.29,152.37 712.55,145.98 718.14,142.39 723.96,139.42 729.78,137.91 734.07,137.94 738.45,138.77 742.65,140.35 746.45,142.61 749.45,145.16 752.25,148.28 754.72,151.87 756.69,155.85 758.44,161.38 759.55,167.52 760.00,173.76 759.40,183.09 757.43,193.00 745.32,225.84 721.80,320.45 716.21,339.00 712.96,347.69 709.11,355.80 703.89,363.80 697.87,370.55 693.18,374.28 688.12,377.26 682.92,379.27 677.29,380.28 671.47,380.24 665.80,379.23 660.37,377.33 655.06,374.46 650.29,370.55 646.41,365.99 642.95,360.61 640.42,354.54 639.05,348.37 638.47,341.66 638.60,334.34 642.36,316.03 646.47,297.58 646.98,286.42 646.41,276.23 644.29,263.85 640.12,250.75 632.76,234.74 620.26,212.74 604.57,189.45 587.30,170.21 568.22,153.31 542.44,134.97 518.63,120.97 509.54,116.70 501.34,113.97 491.53,111.67 481.77,110.78 476.11,110.99 470.64,111.82 465.46,113.86 461.76,116.19 458.08,119.17 454.81,122.76 452.34,126.93 450.91,131.23 449.92,136.11 449.49,141.10 449.71,145.73 451.32,151.37 454.05,156.57 457.24,161.34 463.65,168.67 470.87,174.73 485.30,183.09 519.49,199.35 537.15,211.77 550.09,223.00 564.07,239.01 575.19,256.20 582.55,273.97 584.98,282.26 586.48,290.84 586.76,297.05 586.50,303.47 585.47,309.50 583.13,315.74 579.81,321.56 576.13,326.62 569.91,332.68 562.96,337.46 554.77,341.91 546.06,345.21 537.03,347.29 526.11,348.12 447.97,339.86 379.23,327.98"
        fill="none"
        stroke="#e94560"
        stroke-width="8.0"
        stroke-linejoin="round"
        stroke-linecap="round"/>
  <!-- Start/finish line -->
  <line x1="375.83" y1="347.69" x2="382.64" y2="308.27"
        stroke="#f5f5f5" stroke-width="9.6"
        stroke-linecap="round"/>
</svg>
