<?xml version="1.0" encoding="utf-8"?>
<svg xmlns="http://www.w3.org/2000/svg"
     width="800.0" height="673.4"
     viewBox="0 0 800.0 673.4">
  <rect width="100%" height="100%" fill="#1a1a2e"/>
  <!-- Track outline -->
  <polyline points="259.26,500.46 364.34,565.62 471.24,617.86 509.07,629.14 525.29,632.00 542.40,633.36 569.72,633.02 598.17,629.62 623.44,622.21 645.53,612.84 655.99,607.06 665.86,600.00 683.70,585.18 702.23,565.75 722.41,536.67 739.72,503.92 750.47,473.89 757.41,443.93 760.00,418.86 759.90,395.62 758.34,380.13 754.87,364.57 744.16,334.74 731.16,306.14 714.79,279.57 671.04,224.67 642.26,198.79 568.89,148.03 492.40,106.86 410.09,70.91 344.45,51.89 286.19,41.70 256.62,40.00 229.15,42.51 193.18,51.62 160.63,63.85 146.80,70.78 133.89,79.07 110.63,96.05 88.44,115.01 77.24,126.90 68.10,139.13 60.72,151.90 54.66,165.15 50.36,176.02 46.89,188.53 42.35,218.69 40.00,249.61 40.05,263.74 41.76,277.13 48.16,299.34 56.62,320.61 62.43,332.43 69.81,343.78 90.49,369.19 119.13,397.79 259.26,500.46"
        fill="none"
        stroke="#e94560"
        stroke-width="8.0"
        stroke-linejoin="round"
        stroke-linecap="round"/>
  <!-- Start/finish line -->
  <line x1="270.56" y1="483.95" x2="247.96" y2="516.96"
        stroke="#f5f5f5" stroke-width="9.6"
        stroke-linecap="round"/>
</svg>
