<?xml version="1.0" encoding="utf-8"?>
<svg xmlns="http://www.w3.org/2000/svg"
     width="523.4" height="800.0"
     viewBox="0 0 523.4 800.0">
  <rect width="100%" height="100%" fill="#1a1a2e"/>
  <!-- Track outline -->
  <polyline points="482.52,593.87 483.08,625.75 483.40,643.89 482.10,661.71 479.13,679.30 473.99,696.89 467.51,713.01 460.16,728.25 451.78,742.66 448.17,747.36 444.53,751.22 440.48,754.40 435.95,756.88 431.04,758.68 426.08,759.71 421.16,760.00 416.17,759.52 411.41,758.13 406.37,755.30 401.63,751.38 397.62,746.97 394.70,742.34 392.49,737.23 390.84,731.89 389.39,722.95 389.07,713.88 390.64,697.73 399.37,610.37 395.68,359.49 390.40,327.23 388.11,319.57 385.09,312.24 377.84,298.12 369.51,284.55 364.25,277.86 358.77,272.16 345.85,261.23 331.55,252.61 316.21,246.17 284.89,239.10 268.96,238.26 253.09,239.64 237.31,243.60 223.43,248.68 215.72,253.12 208.54,258.46 202.91,264.12 198.22,270.43 194.53,277.50 191.93,285.09 190.45,293.36 190.18,301.85 191.27,310.63 193.53,319.38 196.92,328.26 201.22,336.52 205.08,342.15 210.43,348.30 272.80,407.09 285.06,421.79 296.14,437.91 305.85,455.44 314.27,474.09 321.10,493.52 326.46,513.27 330.17,533.31 331.99,553.47 332.19,573.70 331.06,593.84 322.16,647.78 313.27,679.33 307.34,693.74 299.58,706.64 287.54,721.72 273.26,734.46 257.19,744.72 248.22,748.94 239.23,752.25 224.81,755.43 209.99,756.85 195.00,756.14 180.31,753.15 166.60,747.52 153.70,740.09 142.00,730.67 131.85,719.51 127.60,713.17 123.91,706.48 120.79,699.43 118.31,692.10 116.49,684.54 115.41,676.89 115.14,669.17 115.61,661.48 116.81,653.79 118.75,646.30 121.53,639.06 125.02,632.11 129.20,625.52 133.99,619.31 139.37,613.59 145.24,608.34 158.44,599.50 172.94,592.91 188.29,587.76 202.08,581.33 215.37,573.58 222.87,567.56 229.03,561.00 234.34,553.76 238.59,545.95 241.49,537.78 243.28,529.28 244.07,520.50 243.75,511.59 242.20,502.43 239.55,493.42 235.59,484.32 230.85,475.86 221.83,463.83 210.65,452.73 153.52,410.57 125.19,383.93 112.34,368.75 100.84,352.44 90.37,335.24 72.36,298.15 51.20,237.75 45.36,217.48 41.28,197.44 40.00,177.50 41.67,158.14 46.36,139.36 53.64,121.28 63.98,104.62 76.71,89.66 91.58,76.60 108.38,66.12 126.62,57.98 146.05,51.58 166.33,46.53 187.29,43.06 230.48,40.00 273.16,40.42 293.78,41.99 313.83,44.70 333.37,48.88 352.14,55.05 370.13,63.48 387.35,74.13 403.30,86.96 417.92,101.72 430.28,118.58 440.25,137.07 447.80,157.11 452.86,178.34 469.84,315.42 474.93,387.18 475.27,400.02 481.29,523.56 482.52,593.87"
        fill="none"
        stroke="#e94560"
        stroke-width="8.0"
        stroke-linejoin="round"
        stroke-linecap="round"/>
  <!-- Start/finish line -->
  <line x1="502.52" y1="593.52" x2="462.52" y2="594.22"
        stroke="#f5f5f5" stroke-width="9.6"
        stroke-linecap="round"/>
</svg>
