<?xml version="1.0" encoding="utf-8"?>
<svg xmlns="http://www.w3.org/2000/svg"
     width="375.7" height="800.0"
     viewBox="0 0 375.7 800.0">
  <rect width="100%" height="100%" fill="#1a1a2e"/>
  <!-- Track outline -->
  <polyline points="88.87,377.52 77.19,327.41 40.00,133.35 40.09,122.78 41.29,114.96 42.77,108.01 44.93,101.33 48.46,92.90 52.95,84.84 58.56,77.85 64.91,71.57 79.50,59.77 92.02,51.92 106.14,46.19 121.22,42.18 136.10,40.09 145.19,40.00 154.42,40.98 163.33,43.46 171.95,47.02 180.03,51.28 187.74,56.40 194.95,62.31 201.53,68.69 210.67,79.90 218.17,92.81 224.09,107.03 232.71,135.80 236.59,155.63 240.96,174.05 244.81,191.00 245.98,199.09 246.15,206.17 245.26,210.89 243.96,215.49 242.13,219.72 239.43,223.98 236.07,227.87 232.26,230.93 228.60,232.86 224.51,234.27 220.33,235.07 216.36,235.04 212.86,234.18 209.42,232.62 206.18,230.50 203.22,227.99 199.67,223.95 196.60,219.13 194.25,214.02 192.48,207.00 191.97,198.60 194.46,175.03 197.44,151.43 197.58,143.13 196.95,136.05 195.54,129.03 193.17,122.32 190.46,117.26 187.10,112.39 183.32,108.41 180.27,106.14 176.93,104.33 173.45,103.04 169.95,102.43 166.87,102.40 163.59,102.77 160.32,103.59 157.36,104.85 154.89,106.60 153.15,108.62 151.65,111.10 150.43,113.89 149.54,116.77 149.04,119.65 149.37,123.33 150.55,127.16 151.74,131.02 152.14,134.82 151.74,138.01 150.97,141.35 149.86,144.57 148.45,147.45 146.74,149.75 144.81,151.34 142.49,152.63 139.90,153.55 137.22,154.13 134.62,154.25 132.24,153.95 129.61,152.87 127.00,151.10 124.54,148.83 122.33,146.25 120.50,143.56 119.16,140.00 118.45,135.96 117.72,131.94 116.36,128.48 114.46,125.94 112.13,123.61 109.52,121.61 106.80,120.05 104.07,119.04 101.23,118.61 98.15,118.73 95.07,119.32 92.18,120.33 89.62,121.77 87.06,124.04 84.78,126.98 82.88,130.32 81.45,133.75 80.46,138.29 80.20,143.13 80.29,148.06 80.83,155.30 82.60,164.00 112.72,244.94 119.34,257.41 123.95,264.49 129.26,271.11 135.60,276.75 142.49,281.50 149.54,285.61 156.84,288.80 164.50,290.76 172.37,291.86 180.74,291.95 189.10,292.11 197.09,293.48 204.94,295.66 212.81,298.60 220.35,302.43 227.07,307.18 233.25,312.82 238.75,319.04 243.45,325.88 245.87,330.29 247.93,334.92 249.23,339.82 249.70,345.49 249.37,351.44 248.15,356.93 245.77,361.89 242.48,366.36 238.70,370.23 231.53,375.07 223.73,378.56 209.38,382.48 193.45,385.21 185.86,387.36 178.69,390.42 174.58,393.03 170.70,396.06 167.30,399.59 164.48,403.33 162.03,407.46 160.27,412.00 159.19,417.30 158.82,423.00 159.33,428.49 160.93,433.57 163.47,438.42 166.66,443.38 176.34,454.66 186.47,465.63 196.31,479.30 204.21,495.33 207.24,504.16 209.52,513.32 210.86,522.45 211.35,531.68 209.66,549.64 192.44,625.70 191.47,635.17 191.62,643.11 192.84,651.72 195.00,660.15 198.01,668.61 201.79,676.49 206.16,683.20 211.19,689.05 217.04,694.14 223.36,698.37 229.75,701.86 236.47,704.41 241.71,705.60 247.18,706.28 252.61,706.18 258.01,705.39 263.35,703.85 268.23,701.40 272.37,697.91 276.08,693.56 279.23,688.93 282.31,682.68 284.59,675.90 286.51,667.87 287.71,659.42 287.69,642.10 285.55,627.05 251.36,516.97 247.56,502.41 247.04,495.02 247.56,487.61 248.66,482.30 250.31,477.06 252.54,472.37 254.58,469.31 256.96,466.52 259.61,464.13 262.48,462.29 266.05,460.91 270.00,460.15 274.06,459.99 277.96,460.39 281.72,461.37 285.50,462.93 289.05,464.99 292.10,467.47 294.83,470.44 297.02,474.06 299.34,479.67 319.78,571.12 335.20,666.22 335.69,676.61 334.89,684.52 332.75,693.34 329.49,701.68 325.21,709.40 320.13,716.39 314.75,722.36 308.25,728.03 278.15,746.70 265.37,752.80 247.58,757.82 238.54,759.36 229.56,760.00 221.24,759.60 213.14,758.16 205.38,755.56 197.87,751.97 190.56,747.43 183.58,742.01 170.85,728.56 162.22,716.76 155.08,704.65 147.63,687.70 143.68,673.70 142.42,664.78 142.04,655.58 142.82,646.73 144.46,637.96 150.17,620.19 168.38,580.19 173.15,566.98 175.00,558.55 175.90,549.88 175.26,541.82 173.57,533.98 170.92,526.07 167.49,518.50 158.51,504.49 135.02,477.31 104.85,423.92 92.54,393.18 88.87,377.52"
        fill="none"
        stroke="#e94560"
        stroke-width="8.0"
        stroke-linejoin="round"
        stroke-linecap="round"/>
  <!-- Start/finish line -->
  <line x1="69.39" y1="382.06" x2="108.35" y2="372.98"
        stroke="#f5f5f5" stroke-width="9.6"
        stroke-linecap="round"/>
</svg>
