<?xml version="1.0" encoding="utf-8"?>
<svg xmlns="http://www.w3.org/2000/svg"
     width="800.0" height="526.0"
     viewBox="0 0 800.0 526.0">
  <rect width="100%" height="100%" fill="#1a1a2e"/>
  <!-- Track outline -->
  <polyline points="42.18,283.86 45.40,387.28 50.31,412.96 55.01,426.93 60.76,439.59 67.86,450.75 75.66,461.09 80.30,465.92 84.89,469.84 95.31,476.71 106.81,481.79 118.91,484.96 131.08,486.01 143.17,485.12 149.08,484.07 154.89,482.19 166.20,475.91 175.28,468.76 179.91,462.97 183.65,457.53 186.60,452.14 189.09,446.30 192.90,433.52 198.54,405.78 202.33,392.75 207.50,380.09 214.96,368.20 221.85,359.62 230.19,351.67 308.13,300.84 474.47,211.11 534.60,182.81 558.97,175.28 570.65,172.85 582.10,171.60 593.02,171.42 599.75,172.02 606.53,173.27 612.61,175.12 618.43,177.61 623.76,180.68 628.72,184.33 632.97,188.30 636.64,192.80 639.33,197.49 641.19,202.62 641.99,208.09 641.94,213.74 641.03,219.50 639.34,225.15 636.75,230.80 633.46,236.10 624.65,245.72 606.78,263.30 602.20,268.69 598.48,274.09 595.52,279.62 593.38,285.46 592.28,291.37 592.14,297.39 593.14,303.44 595.06,309.25 597.87,314.91 601.36,320.09 605.56,324.92 610.28,329.04 615.63,332.44 621.33,335.02 627.37,336.78 633.58,337.65 639.88,337.62 646.16,336.71 652.37,334.90 658.47,332.33 670.25,325.25 687.94,310.99 714.30,281.54 739.44,249.68 747.64,237.18 753.31,226.54 755.76,220.49 757.48,214.72 759.66,202.83 760.00,191.09 758.50,179.41 755.20,167.97 750.27,157.00 743.65,146.59 735.27,137.00 690.34,101.36 665.74,87.24 652.84,82.20 639.54,78.80 625.80,77.16 611.56,77.77 590.35,80.96 566.09,86.66 544.60,94.58 521.10,106.05 415.25,173.08 298.83,233.71 208.16,278.00 195.26,282.88 182.84,286.35 170.94,288.48 159.60,289.02 152.73,288.46 145.79,287.19 139.29,285.15 133.10,282.32 127.54,278.89 122.49,274.72 118.27,270.01 114.83,264.61 112.54,258.73 111.22,252.45 110.93,245.90 111.65,239.34 113.61,232.59 116.35,226.30 119.09,221.47 122.20,217.09 129.77,208.65 139.13,201.07 149.88,194.32 162.05,188.65 189.77,179.06 317.99,140.96 331.00,135.24 340.20,129.96 344.73,126.70 348.57,123.12 352.94,118.12 356.68,112.40 359.10,106.42 360.53,100.05 360.85,93.39 360.19,86.68 358.52,79.95 355.96,73.57 352.44,67.53 348.13,62.13 342.72,57.35 336.98,53.41 332.08,50.69 327.12,48.51 322.40,46.68 316.29,45.18 234.90,40.00 177.91,42.25 148.02,48.70 123.80,55.92 113.70,60.26 86.43,76.29 75.18,86.00 65.68,96.69 57.93,108.35 51.85,121.05 49.34,127.15 47.14,134.93 42.72,168.23 40.00,213.57 42.18,283.86"
        fill="none"
        stroke="#e94560"
        stroke-width="8.0"
        stroke-linejoin="round"
        stroke-linecap="round"/>
  <!-- Start/finish line -->
  <line x1="62.17" y1="283.24" x2="22.19" y2="284.48"
        stroke="#f5f5f5" stroke-width="9.6"
        stroke-linecap="round"/>
</svg>
