<?xml version="1.0" encoding="utf-8"?>
<svg xmlns="http://www.w3.org/2000/svg"
     width="314.0" height="800.0"
     viewBox="0 0 314.0 800.0">
  <rect width="100%" height="100%" fill="#1a1a2e"/>
  <!-- Track outline -->
  <polyline points="273.89,340.36 274.02,348.06 271.84,363.84 267.57,379.36 255.06,409.55 238.40,448.54 234.34,465.23 231.95,483.23 231.30,548.36 242.20,655.69 255.73,727.70 256.93,735.82 257.00,740.49 256.48,745.09 255.79,747.80 254.84,750.38 253.51,752.76 252.17,754.48 250.58,756.11 248.82,757.52 246.96,758.61 245.01,759.36 242.90,759.81 240.76,760.00 238.67,759.86 235.84,759.06 233.05,757.69 230.53,756.01 227.52,753.09 224.98,749.67 222.72,745.73 220.81,741.50 217.73,732.20 211.56,697.66 206.60,624.80 206.19,576.38 206.04,531.11 205.27,526.38 204.20,522.57 202.84,518.46 201.11,514.52 199.00,510.77 196.51,507.30 193.67,504.23 190.49,501.61 187.14,499.56 183.48,498.07 180.61,497.41 177.59,497.06 174.62,497.08 170.51,497.86 166.51,499.14 158.74,502.32 154.88,503.36 150.97,503.74 148.83,503.52 146.64,503.07 144.55,502.32 142.76,501.26 140.95,499.39 139.58,496.96 138.21,493.85 133.76,477.55 129.66,460.93 126.05,452.25 123.98,448.14 121.08,443.62 97.11,418.44 91.63,412.11 87.02,405.13 83.53,397.79 81.99,393.01 80.89,388.00 80.36,383.09 80.35,378.18 80.85,373.30 81.89,368.51 83.44,363.89 85.48,359.52 87.97,355.54 90.90,351.95 94.20,348.83 97.85,346.15 101.84,344.00 106.06,342.23 114.98,339.37 123.76,335.64 127.80,333.03 131.58,330.07 135.03,326.94 138.13,323.57 140.78,320.02 142.98,316.22 144.64,312.21 145.74,308.04 146.25,303.82 146.18,299.55 145.54,295.11 144.36,290.70 142.61,286.29 140.36,282.01 137.84,277.98 134.27,273.52 100.98,242.82 86.17,228.59 79.80,220.59 74.12,211.99 64.05,193.23 48.29,154.22 42.57,135.47 40.73,126.05 40.00,116.50 40.24,106.92 41.41,97.69 43.95,88.93 47.78,80.84 52.87,73.41 59.03,66.75 66.15,60.84 74.21,55.92 83.08,51.91 92.67,48.71 113.88,44.36 148.46,40.76 171.53,40.00 182.36,40.87 193.01,42.72 203.02,45.47 221.00,53.43 229.25,58.02 236.82,63.41 243.63,69.64 249.44,76.62 254.20,84.36 258.06,92.71 261.10,101.37 263.47,110.29 262.41,129.69 267.54,221.92 267.30,232.53 273.35,307.23 273.89,340.36"
        fill="none"
        stroke="#e94560"
        stroke-width="8.0"
        stroke-linejoin="round"
        stroke-linecap="round"/>
  <!-- Start/finish line -->
  <line x1="293.89" y1="340.03" x2="253.89" y2="340.69"
        stroke="#f5f5f5" stroke-width="9.6"
        stroke-linecap="round"/>
</svg>
