<?xml version="1.0" encoding="utf-8"?>
<svg xmlns="http://www.w3.org/2000/svg"
     width="800.0" height="533.1"
     viewBox="0 0 800.0 533.1">
  <rect width="100%" height="100%" fill="#1a1a2e"/>
  <!-- Track outline -->
  <polyline points="339.78,333.46 290.19,303.97 96.63,197.15 80.81,185.80 69.57,175.55 60.91,165.75 53.77,155.33 48.16,144.62 43.91,133.38 41.19,122.20 40.00,110.91 40.62,99.79 42.67,89.28 45.54,81.20 49.15,73.92 52.83,67.71 57.28,61.95 64.37,54.98 72.58,48.90 82.25,44.30 91.17,41.29 94.85,40.38 98.09,40.00 103.85,40.29 207.55,53.87 223.15,58.52 234.52,63.67 239.39,67.01 243.37,70.76 247.65,75.70 251.09,80.77 252.40,83.69 253.24,86.53 253.83,89.28 254.15,92.06 254.15,94.78 253.85,97.45 253.24,100.08 252.35,102.63 251.11,105.20 249.60,107.60 247.72,109.77 245.60,111.61 243.32,113.13 240.90,114.33 238.26,115.21 235.49,115.77 232.50,116.00 229.41,115.91 226.34,115.65 222.63,114.80 207.58,108.01 190.69,100.84 181.52,99.06 172.87,98.85 166.59,99.49 160.31,100.84 154.43,103.04 149.21,106.08 144.37,109.88 140.39,113.92 138.06,117.05 136.24,120.36 134.83,123.78 133.42,129.08 132.87,134.58 133.00,138.27 133.54,141.99 134.60,145.76 136.51,150.62 139.28,155.59 143.78,161.21 195.64,199.93 253.31,234.84 266.44,240.58 277.24,243.45 286.11,244.68 294.64,244.56 303.15,243.15 311.35,240.46 318.87,236.57 325.74,231.51 331.65,225.36 336.52,218.22 340.10,209.62 342.38,201.54 343.19,195.37 343.12,179.50 343.71,161.54 345.91,151.23 349.00,142.51 351.77,136.84 355.28,131.74 361.63,125.01 368.78,119.16 374.19,115.77 380.22,113.10 391.50,109.50 405.31,107.16 428.80,107.25 459.53,110.38 686.85,149.27 697.83,152.17 705.42,155.13 710.78,157.97 715.70,161.62 722.77,168.88 728.51,176.28 730.01,179.09 731.00,181.73 731.87,184.60 732.46,187.55 732.91,193.78 732.86,197.00 732.29,200.40 730.58,204.20 728.16,208.21 725.76,211.52 723.71,213.68 721.61,215.32 719.34,216.79 716.91,217.96 714.49,218.84 711.62,219.45 703.51,220.09 693.65,219.42 680.57,215.35 665.72,209.06 611.23,183.98 598.80,180.26 587.30,178.48 573.76,178.33 560.88,180.09 552.08,183.02 544.56,186.97 539.59,190.68 535.42,195.01 531.91,200.08 529.29,205.11 528.32,207.83 527.78,210.47 527.41,213.22 527.33,216.06 527.73,219.33 528.50,222.58 529.51,225.57 530.82,228.38 532.43,231.01 534.30,233.47 536.50,235.75 538.95,237.80 541.52,239.70 544.76,241.43 554.82,244.27 567.48,246.46 585.52,247.31 603.45,248.77 615.34,252.49 625.65,257.49 632.94,262.44 638.97,268.00 642.85,273.18 645.84,278.30 647.47,281.34 648.73,284.59 650.17,290.62 650.96,297.29 650.79,303.70 649.80,310.05 647.92,316.43 645.25,322.46 641.79,327.85 637.64,332.62 632.74,336.83 627.01,340.31 621.15,342.83 614.62,344.88 608.19,346.11 600.01,346.22 591.95,344.88 583.67,341.95 575.17,337.88 563.92,331.42 552.55,325.59 543.77,323.28 535.15,322.55 525.70,323.49 517.40,325.36 514.16,326.32 511.24,327.70 506.54,330.98 502.37,334.78 500.64,336.98 499.30,339.20 498.11,341.66 497.15,344.26 496.33,346.93 495.91,349.91 496.51,356.14 497.89,362.26 499.00,365.07 500.36,367.47 501.72,369.61 503.82,372.01 524.02,388.89 550.13,407.39 566.44,416.20 582.21,422.19 597.00,425.35 611.60,426.29 625.84,425.06 639.12,422.05 648.44,418.48 656.92,413.71 665.20,407.47 672.79,399.60 680.08,387.81 686.46,374.93 696.49,352.81 700.15,346.78 704.08,341.78 708.61,337.56 713.62,334.08 717.53,331.97 721.68,330.19 725.81,329.05 729.79,328.66 733.77,328.84 737.23,329.31 739.93,330.01 742.30,331.04 744.60,332.21 746.92,333.84 751.00,337.85 754.69,342.42 756.19,344.94 757.35,347.75 758.99,353.48 760.00,360.27 759.95,369.58 758.52,379.59 754.83,391.47 749.35,404.08 739.41,423.28 727.69,441.98 717.11,455.23 706.01,466.35 695.60,474.43 684.73,480.90 673.11,486.14 661.05,489.94 648.54,492.28 635.86,493.07 623.12,492.34 610.12,489.88 595.07,484.91 578.53,477.27 514.92,437.70 339.78,333.46"
        fill="none"
        stroke="#e94560"
        stroke-width="8.0"
        stroke-linejoin="round"
        stroke-linecap="round"/>
  <!-- Start/finish line -->
  <line x1="329.55" y1="350.65" x2="350.01" y2="316.28"
        stroke="#f5f5f5" stroke-width="9.6"
        stroke-linecap="round"/>
</svg>
