<?xml version="1.0" encoding="utf-8"?>
<svg xmlns="http://www.w3.org/2000/svg"
     width="800.0" height="510.6"
     viewBox="0 0 800.0 510.6">
  <rect width="100%" height="100%" fill="#1a1a2e"/>
  <!-- Track outline -->
  <polyline points="412.97,40.88 214.08,61.26 156.34,73.16 138.47,80.80 116.42,94.11 99.83,107.64 83.74,123.36 72.04,137.99 62.69,152.22 58.30,160.30 54.68,169.04 48.71,186.74 43.75,207.73 40.74,237.60 40.00,264.96 41.51,282.66 48.31,310.99 57.16,338.48 60.91,346.43 65.81,353.68 85.21,378.10 110.55,403.66 138.91,423.12 168.57,438.14 192.87,447.45 220.96,454.26 392.06,470.55 533.63,467.61 628.01,450.09 648.83,442.14 690.92,419.43 703.06,411.00 713.41,401.86 721.42,392.16 728.83,380.82 749.11,342.04 755.27,322.98 758.26,304.93 760.00,262.81 759.36,252.97 757.65,242.96 750.38,215.51 739.29,185.99 724.27,160.96 708.85,140.89 694.37,127.18 660.69,101.84 607.30,75.27 568.62,61.92 446.45,40.75 421.35,40.00 412.97,40.88"
        fill="none"
        stroke="#e94560"
        stroke-width="8.0"
        stroke-linejoin="round"
        stroke-linecap="round"/>
  <!-- Start/finish line -->
  <line x1="415.01" y1="60.77" x2="410.93" y2="20.98"
        stroke="#f5f5f5" stroke-width="9.6"
        stroke-linecap="round"/>
</svg>
