<?xml version="1.0" encoding="utf-8"?>
<svg xmlns="http://www.w3.org/2000/svg"
     width="594.5" height="800.0"
     viewBox="0 0 594.5 800.0">
  <rect width="100%" height="100%" fill="#1a1a2e"/>
  <!-- Track outline -->
  <polyline points="58.76,429.46 53.73,383.00 51.61,359.61 49.21,333.69 46.65,309.20 44.08,281.08 43.07,253.00 41.52,225.93 40.00,192.24 40.47,167.93 41.15,155.65 42.97,145.43 46.58,132.05 51.98,119.02 59.64,107.04 68.41,97.03 72.76,93.31 77.22,90.32 82.04,87.95 90.81,85.28 100.06,84.09 109.00,84.36 117.81,86.02 126.14,88.96 135.35,93.96 164.06,116.56 191.97,138.63 199.05,142.40 205.83,144.90 219.16,148.72 233.37,151.44 244.47,152.18 255.26,151.88 277.16,148.59 297.91,141.87 319.47,130.77 359.45,99.76 416.27,54.74 424.94,49.39 432.80,45.70 442.29,42.50 451.97,40.57 460.64,40.00 469.28,40.92 476.03,42.85 482.84,45.70 488.78,49.30 493.13,53.21 496.78,57.72 499.81,62.46 502.98,69.83 504.97,76.94 505.72,80.85 505.95,85.01 505.31,95.76 503.76,106.95 500.66,118.09 493.17,134.99 483.01,150.52 471.50,162.58 457.40,173.77 429.84,189.91 401.63,207.42 391.44,216.55 383.27,225.71 375.48,235.23 367.89,246.69 340.05,306.66 314.14,350.66 274.43,390.63 238.90,420.16 222.03,434.33 207.15,449.03 197.36,463.07 190.52,477.59 188.02,486.50 186.74,495.45 186.70,504.13 188.02,512.16 190.41,519.88 193.59,526.55 196.52,530.72 199.93,534.19 203.71,537.26 210.39,541.38 217.84,544.45 226.85,546.43 235.73,547.17 241.40,547.00 247.30,546.08 272.17,539.01 296.05,528.31 319.44,514.00 339.44,497.38 359.28,475.62 399.23,412.79 438.61,352.24 447.31,343.07 455.21,336.98 463.10,332.02 471.64,328.29 479.03,326.23 486.92,324.82 494.45,324.47 500.35,325.04 505.92,326.36 511.25,328.73 517.42,333.29 523.26,339.30 527.92,345.44 531.63,353.12 533.82,360.49 534.70,364.75 535.04,369.14 534.60,377.95 533.32,387.78 528.26,409.10 504.23,480.31 502.01,492.86 501.23,503.96 501.20,515.50 502.48,527.56 512.30,561.78 532.61,609.69 551.06,655.49 553.76,667.87 554.47,678.31 554.03,688.40 552.28,698.01 549.38,706.69 545.33,714.59 542.43,718.76 539.12,722.53 535.31,725.82 530.35,728.98 524.81,731.61 519.52,733.41 514.02,734.25 508.75,734.20 504.03,733.63 499.00,732.32 489.05,728.46 478.96,723.32 472.15,718.50 465.97,713.06 453.15,699.59 432.13,671.20 408.68,642.64 400.08,635.62 391.71,630.44 383.04,626.63 373.86,624.08 364.35,622.77 355.54,622.59 346.26,623.91 337.83,626.71 330.23,630.49 323.38,635.44 317.35,641.76 312.18,649.13 308.00,658.00 304.12,668.44 288.60,713.01 282.12,723.50 274.90,732.14 266.97,739.73 258.23,746.22 248.75,751.62 238.80,755.74 228.78,758.29 219.43,759.69 214.37,760.00 209.38,759.82 191.86,757.10 174.39,751.36 157.11,742.80 140.92,731.53 125.33,716.48 111.70,699.10 100.56,680.41 91.52,659.57 83.69,633.82 77.18,599.25 66.01,496.19 58.76,429.46"
        fill="none"
        stroke="#e94560"
        stroke-width="8.0"
        stroke-linejoin="round"
        stroke-linecap="round"/>
  <!-- Start/finish line -->
  <line x1="38.88" y1="431.62" x2="78.64" y2="427.30"
        stroke="#f5f5f5" stroke-width="9.6"
        stroke-linecap="round"/>
</svg>
