<?xml version="1.0" encoding="utf-8"?>
<svg xmlns="http://www.w3.org/2000/svg"
     width="800.0" height="686.3"
     viewBox="0 0 800.0 686.3">
  <rect width="100%" height="100%" fill="#1a1a2e"/>
  <!-- Track outline -->
  <polyline points="40.00,646.31 45.87,641.86 52.70,636.70 56.65,633.69 60.73,630.50 66.56,626.09 72.50,621.55 78.08,617.43 82.18,614.42 85.58,612.00 88.25,610.22 91.36,608.14 94.34,606.39 98.09,604.27 101.89,602.49 120.69,593.25 137.62,585.47 146.31,581.42 153.85,578.03 161.90,574.71 170.84,571.35 182.85,566.65 207.06,557.67 215.59,554.27 220.98,552.14 225.63,550.65 230.30,549.51 235.10,548.23 240.05,547.68 246.25,547.20 263.93,546.18 279.16,545.72 287.67,545.24 295.32,544.82 303.10,544.45 310.84,544.12 324.68,543.54 343.78,542.65 398.87,540.67 451.29,538.35 523.07,535.49 534.56,534.72 555.91,533.28 559.12,533.09 561.64,532.66 564.10,531.86 565.97,530.82 567.95,529.57 569.83,527.83 571.49,525.68 572.41,523.42 573.01,521.18 573.11,519.02 572.98,516.71 572.67,514.88 571.99,513.15 571.06,511.50 569.91,510.05 568.40,508.51 566.92,507.35 565.57,506.47 564.01,505.59 562.18,504.73 558.59,503.61 544.94,499.78 540.27,498.13 536.18,496.40 533.40,495.06 531.16,493.67 528.99,492.21 527.07,490.66 524.87,488.64 522.81,486.45 521.09,484.37 518.98,481.38 516.13,477.17 513.75,473.01 508.66,463.93 500.13,449.13 496.81,443.93 495.10,441.37 493.23,438.91 490.94,436.24 487.99,433.04 471.59,416.16 470.13,414.56 468.65,412.48 467.52,410.16 466.82,407.75 466.75,405.36 467.08,403.23 467.79,401.52 469.04,399.59 470.62,397.93 472.38,396.98 474.48,396.14 476.78,395.82 479.14,395.99 481.05,396.47 482.92,397.10 485.69,398.39 496.10,404.54 510.83,413.05 516.90,416.18 526.10,420.63 538.82,426.36 543.22,428.24 544.96,429.11 546.57,429.99 559.25,437.08 563.61,439.44 566.86,440.74 570.08,441.64 572.44,441.85 574.75,441.87 577.05,441.21 578.90,440.20 580.28,439.02 581.66,437.55 582.71,435.75 583.50,433.89 583.88,431.90 583.78,429.96 583.39,428.00 582.74,426.28 581.74,424.71 580.37,423.11 578.82,421.66 576.79,420.01 574.05,417.92 560.65,408.52 557.79,406.36 555.34,404.47 552.57,402.27 549.92,400.08 544.91,395.65 535.86,387.81 525.04,377.80 518.62,371.52 508.17,361.57 496.00,349.97 488.61,342.66 484.58,338.51 482.58,335.75 481.34,333.25 480.63,330.79 480.44,328.95 480.58,326.60 481.07,324.83 481.95,323.13 483.36,321.51 485.19,319.98 486.96,318.86 488.96,318.23 490.89,318.03 492.80,318.17 494.58,318.50 496.61,319.13 498.48,320.02 499.95,320.95 551.59,357.91 564.99,367.00 568.25,369.13 571.35,370.54 574.83,371.19 577.88,370.89 580.85,369.84 583.07,368.15 584.77,366.21 585.93,364.04 586.57,361.75 586.65,359.38 586.18,357.25 585.17,355.34 583.80,353.40 582.06,351.48 579.63,349.64 535.43,315.25 531.90,312.24 529.91,310.21 528.29,308.08 527.35,305.99 526.73,303.67 526.71,301.16 527.43,298.64 528.64,296.37 530.33,294.31 532.19,293.07 534.08,292.12 535.89,291.82 537.93,291.89 540.04,292.58 542.02,293.48 543.75,294.78 546.93,297.79 561.88,314.42 565.91,318.56 569.08,321.77 571.36,323.77 573.59,324.95 575.80,325.83 578.59,326.16 581.76,325.72 584.14,324.78 585.98,323.41 587.43,321.75 588.71,319.90 589.67,317.86 590.00,315.75 589.61,313.74 588.83,311.79 587.78,310.09 586.25,308.61 584.08,307.09 582.01,305.67 569.81,296.45 566.71,293.92 564.12,291.36 561.03,288.12 558.96,285.13 556.75,282.07 554.42,278.08 552.88,274.49 551.51,270.30 550.59,265.78 550.20,260.34 550.17,253.18 552.72,212.87 553.05,210.26 553.68,207.56 554.62,205.26 555.93,203.25 557.59,201.41 559.25,200.18 561.00,199.31 562.72,198.86 564.76,198.68 566.72,198.88 568.96,199.37 570.86,200.37 572.29,201.40 573.72,202.83 574.72,204.33 575.42,205.88 576.09,207.85 576.19,209.72 576.03,212.81 575.29,217.11 573.54,223.69 571.00,230.92 567.06,243.72 566.58,246.00 566.43,248.05 566.51,249.95 567.11,251.60 568.00,253.08 568.99,254.39 570.23,255.52 571.45,256.40 573.38,257.29 575.15,257.72 577.16,257.97 579.22,257.50 581.23,256.89 582.67,256.15 584.07,254.97 585.51,253.07 586.51,251.27 587.22,249.44 587.53,247.30 587.56,243.05 587.30,231.41 588.14,222.47 588.91,217.49 590.08,212.06 592.69,204.90 594.51,200.68 597.39,195.14 601.17,189.39 605.16,183.91 609.78,178.64 616.36,172.66 622.11,168.05 639.49,154.35 703.05,106.10 726.30,88.56 730.77,85.51 734.56,83.05 738.99,80.78 744.73,77.94 749.17,75.77 752.11,73.75 753.53,72.45 754.67,70.67 755.42,68.60 755.59,66.38 755.17,64.36 754.17,62.54 752.90,61.01 751.04,59.62 749.03,58.80 747.34,58.57 745.12,58.81 743.38,59.24 741.10,60.56 739.20,61.85 737.45,63.17 730.95,68.89 722.39,76.42 716.93,80.69 713.52,82.69 710.79,83.50 708.10,83.74 706.07,83.21 703.89,82.19 702.23,80.85 700.80,79.30 699.70,77.39 698.89,75.20 698.79,73.15 699.03,71.12 699.73,69.37 700.61,67.77 701.95,66.17 703.88,64.30 706.16,62.51 709.15,60.45 713.13,58.20 717.68,55.92 723.43,53.67 733.18,50.06 748.65,44.23 760.00,40.00"
        fill="none"
        stroke="#e94560"
        stroke-width="8.0"
        stroke-linejoin="round"
        stroke-linecap="round"/>
  <!-- Start/finish line -->
  <line x1="52.96" y1="661.54" x2="27.04" y2="631.07"
        stroke="#f5f5f5" stroke-width="9.6"
        stroke-linecap="round"/>
</svg>
