<?xml version="1.0" encoding="utf-8"?>
<svg xmlns="http://www.w3.org/2000/svg"
     width="747.2" height="800.0"
     viewBox="0 0 747.2 800.0">
  <rect width="100%" height="100%" fill="#1a1a2e"/>
  <!-- Track outline -->
  <polyline points="366.12,717.01 358.44,714.05 344.43,708.54 325.62,700.58 301.62,689.71 270.71,673.72 250.76,662.98 214.08,640.18 198.62,631.13 184.75,623.74 172.66,617.73 161.69,611.95 151.95,605.75 143.97,600.25 139.27,597.33 133.25,594.17 114.28,586.90 88.20,578.02 85.96,577.10 84.34,575.99 82.43,574.33 81.69,573.59 81.06,572.75 80.69,571.83 80.40,570.73 79.80,566.49 73.22,517.46 40.39,280.58 40.00,275.79 40.10,273.77 40.39,271.93 40.80,270.64 41.43,269.25 48.16,257.67 51.54,251.52 54.76,244.10 57.25,237.57 60.17,228.80 70.97,192.96 71.40,190.38 71.52,188.24 71.12,182.58 70.17,176.76 68.60,171.50 68.10,167.08 67.80,159.16 67.85,147.69 66.46,134.99 64.75,123.26 61.74,112.77 55.16,94.35 52.57,85.51 51.06,78.38 50.44,71.84 50.77,60.50 50.53,56.29 50.01,52.67 49.41,50.74 48.62,48.97 46.94,45.88 45.50,43.20 45.29,42.61 45.20,42.10 45.20,41.79 45.23,41.46 45.30,41.15 45.41,40.88 45.63,40.61 45.91,40.41 46.24,40.26 46.57,40.14 47.06,40.02 47.58,40.00 48.23,40.02 55.60,41.01 90.43,43.79 113.72,46.06 130.42,47.07 135.69,46.89 152.76,44.96 158.89,44.66 163.70,45.00 174.22,46.10 178.86,46.84 184.05,48.04 192.39,50.60 196.18,52.18 199.10,53.98 201.71,56.02 221.33,78.09 227.60,84.74 244.35,98.48 249.48,102.10 273.19,116.06 292.22,125.74 295.80,127.18 311.10,131.14 352.17,134.05 359.90,134.34 386.60,134.08 397.95,134.24 404.25,134.87 424.54,138.21 430.62,138.95 436.32,140.13 443.13,141.76 455.47,145.79 471.77,149.21 477.29,149.58 488.30,149.41 494.43,148.46 501.40,147.63 508.04,147.45 517.89,147.45 536.59,147.16 550.56,146.08 587.58,139.95 622.31,133.95 628.25,133.29 645.53,131.98 671.98,130.62 680.34,129.64 685.82,128.29 702.62,123.46 703.52,123.27 704.20,123.25 704.85,123.39 705.46,123.64 705.79,123.80 706.10,123.98 706.38,124.21 706.61,124.49 706.82,124.81 706.99,125.17 707.14,125.79 707.21,126.49 707.12,128.42 706.68,131.79 706.20,134.02 705.28,137.39 703.80,141.70 693.38,169.45 683.74,196.34 662.89,255.31 662.05,256.76 661.34,257.65 659.69,259.52 656.70,261.87 652.85,264.38 648.53,267.45 646.23,269.67 643.96,272.66 642.96,274.47 642.08,276.49 640.69,281.29 630.55,321.03 622.21,351.46 602.92,422.41 597.64,445.99 595.55,453.68 593.30,460.11 587.81,471.19 573.29,498.94 563.59,520.69 558.30,533.85 538.11,579.95 525.86,607.25 516.07,628.67 508.42,643.77 498.33,664.27 496.47,668.50 495.15,672.51 494.32,677.23 493.85,681.47 494.30,686.41 497.71,720.49 500.14,757.09 500.13,757.75 500.09,758.19 499.99,758.59 499.82,758.94 499.59,759.27 499.32,759.55 499.04,759.76 498.62,759.94 498.14,759.99 497.63,760.00 496.46,759.92 495.20,759.68 492.37,758.74 441.88,744.37 433.26,741.60 423.21,738.21 366.12,717.01"
        fill="none"
        stroke="#e94560"
        stroke-width="8.0"
        stroke-linejoin="round"
        stroke-linecap="round"/>
  <!-- Start/finish line -->
  <line x1="359.13" y1="735.75" x2="373.10" y2="698.27"
        stroke="#f5f5f5" stroke-width="9.6"
        stroke-linecap="round"/>
</svg>
