<?xml version="1.0" encoding="utf-8"?>
<svg xmlns="http://www.w3.org/2000/svg"
     width="468.4" height="800.0"
     viewBox="0 0 468.4 800.0">
  <rect width="100%" height="100%" fill="#1a1a2e"/>
  <!-- Track outline -->
  <polyline points="49.68,440.29 56.32,513.82 69.68,604.45 81.03,641.04 93.23,670.35 98.96,680.33 104.82,688.21 119.42,704.33 153.10,732.67 170.39,743.36 190.40,752.21 212.10,757.67 233.96,759.86 251.77,760.00 270.25,757.70 313.15,746.44 333.57,736.43 355.89,721.03 375.75,702.28 391.97,682.36 404.53,659.60 411.90,640.20 418.22,615.79 427.67,533.63 428.39,503.21 426.25,411.64 410.69,213.38 403.73,184.40 397.06,163.75 387.53,144.16 363.09,105.43 349.94,90.98 336.54,79.32 320.81,68.77 299.89,57.35 275.97,47.82 251.39,41.92 226.81,40.00 203.61,40.65 172.74,46.60 161.02,50.64 149.97,55.61 129.47,68.12 111.58,81.57 94.35,100.40 71.85,131.79 63.59,148.98 56.14,167.57 49.70,191.90 44.86,218.01 41.11,252.30 40.00,299.66 42.24,347.47 49.26,435.48 49.68,440.29"
        fill="none"
        stroke="#e94560"
        stroke-width="8.0"
        stroke-linejoin="round"
        stroke-linecap="round"/>
  <!-- Start/finish line -->
  <line x1="69.60" y1="438.50" x2="29.77" y2="442.09"
        stroke="#f5f5f5" stroke-width="9.6"
        stroke-linecap="round"/>
</svg>
