<?xml version="1.0" encoding="utf-8"?>
<svg xmlns="http://www.w3.org/2000/svg"
     width="571.1" height="800.0"
     viewBox="0 0 571.1 800.0">
  <rect width="100%" height="100%" fill="#1a1a2e"/>
  <!-- Track outline -->
  <polyline points="50.51,328.46 50.92,313.67 53.90,206.82 54.70,180.09 56.64,146.32 58.24,131.77 60.01,126.09 62.26,120.88 65.19,115.73 68.68,111.05 72.94,106.81 77.67,103.13 83.00,99.81 88.65,97.08 94.78,94.85 101.14,93.21 114.69,91.55 140.16,91.70 175.23,94.67 252.23,106.44 303.41,107.23 327.12,103.75 340.18,100.21 353.93,94.75 393.68,69.44 414.09,57.06 434.21,47.25 449.65,41.92 455.46,40.75 461.06,40.14 466.70,40.00 472.29,40.37 477.70,41.24 482.99,42.60 488.09,44.43 493.03,46.74 502.22,52.66 510.46,60.13 517.45,68.97 520.33,73.80 522.80,78.95 524.78,84.29 526.31,89.86 527.89,101.34 527.41,117.01 525.28,128.80 521.38,140.33 513.96,155.00 504.54,168.86 493.16,181.56 479.71,192.49 451.61,214.38 425.76,244.61 409.64,264.11 404.65,268.56 399.92,271.88 395.81,274.07 391.92,275.63 389.13,276.50 386.29,277.03 381.93,277.30 377.54,277.13 374.84,276.75 371.71,275.96 356.11,270.17 338.92,264.17 332.22,262.80 325.30,262.36 305.41,263.56 284.89,266.41 275.23,268.68 266.91,271.54 260.24,274.62 254.08,278.32 248.41,282.59 243.16,287.54 238.54,292.90 234.45,299.07 230.74,306.58 227.65,315.89 223.62,338.07 221.40,361.52 221.37,374.35 222.59,386.20 225.27,398.90 229.09,410.97 233.49,421.11 238.71,430.46 245.00,439.62 252.08,448.01 260.16,455.66 269.11,462.53 280.74,469.85 292.93,475.96 303.48,479.86 314.94,482.64 357.25,486.39 455.24,484.48 487.80,485.47 493.24,486.32 497.90,487.56 502.70,489.28 507.33,491.49 511.71,494.23 515.66,497.27 518.15,499.64 520.32,502.14 522.24,504.69 524.02,507.58 526.11,511.87 527.92,516.62 530.15,526.37 531.11,540.20 528.66,565.83 524.46,588.74 519.21,603.92 511.41,618.30 503.80,628.14 491.53,639.65 477.49,649.42 454.02,661.23 394.53,684.08 317.09,711.28 233.20,744.34 208.95,751.54 184.08,756.24 153.83,758.87 99.87,760.00 81.92,759.64 72.34,757.92 67.73,756.37 63.46,754.51 57.93,751.25 53.07,747.14 50.95,744.87 48.94,742.23 46.56,738.37 44.42,733.85 42.57,727.86 41.22,721.37 40.00,707.99 45.39,562.86 48.13,413.73 50.51,328.46"
        fill="none"
        stroke="#e94560"
        stroke-width="8.0"
        stroke-linejoin="round"
        stroke-linecap="round"/>
  <!-- Start/finish line -->
  <line x1="30.52" y1="327.90" x2="70.50" y2="329.01"
        stroke="#f5f5f5" stroke-width="9.6"
        stroke-linecap="round"/>
</svg>
