<?xml version="1.0" encoding="utf-8"?>
<svg xmlns="http://www.w3.org/2000/svg"
     width="490.2" height="800.0"
     viewBox="0 0 490.2 800.0">
  <rect width="100%" height="100%" fill="#1a1a2e"/>
  <!-- Track outline -->
  <polyline points="56.65,382.92 75.87,447.99 131.25,618.65 153.79,673.87 174.72,706.15 196.33,732.11 206.16,739.76 215.36,744.80 231.49,751.53 248.40,756.47 267.21,758.95 286.54,760.00 307.17,758.03 325.80,754.51 346.36,746.95 363.49,737.79 379.69,727.49 387.14,721.63 393.96,714.90 406.21,700.06 417.57,683.90 427.52,664.34 437.13,638.93 446.81,589.48 450.24,401.88 431.76,266.02 412.02,199.21 385.46,141.52 369.19,112.16 361.44,102.27 352.76,93.12 330.08,74.80 302.48,58.09 288.33,51.77 274.10,46.91 248.06,42.01 221.99,40.00 196.14,40.00 183.33,41.74 171.59,44.72 145.00,54.97 133.08,61.25 121.91,68.57 112.11,76.77 102.72,86.20 81.38,112.26 64.55,142.84 52.40,174.35 44.58,213.64 40.00,258.42 45.85,328.43 51.88,366.85 56.65,382.92"
        fill="none"
        stroke="#e94560"
        stroke-width="8.0"
        stroke-linejoin="round"
        stroke-linecap="round"/>
  <!-- Start/finish line -->
  <line x1="75.83" y1="377.25" x2="37.47" y2="388.59"
        stroke="#f5f5f5" stroke-width="9.6"
        stroke-linecap="round"/>
</svg>
