<?xml version="1.0" encoding="utf-8"?>
<svg xmlns="http://www.w3.org/2000/svg"
     width="800.0" height="540.4"
     viewBox="0 0 800.0 540.4">
  <rect width="100%" height="100%" fill="#1a1a2e"/>
  <!-- Track outline -->
  <polyline points="393.20,478.93 459.75,459.36 547.77,424.30 590.64,401.23 647.12,362.18 684.11,326.23 707.42,295.57 721.83,276.49 735.66,256.92 747.20,236.25 755.37,213.78 759.78,190.31 760.00,174.03 758.16,157.45 754.63,141.47 750.07,126.59 743.90,112.21 734.48,98.22 722.20,85.14 706.47,70.86 688.89,57.58 671.39,47.09 655.58,41.60 644.69,40.00 632.49,41.40 620.13,43.89 597.19,47.29 559.02,56.78 527.04,66.27 471.96,85.44 383.12,112.21 262.67,149.66 145.01,196.40 122.80,209.48 106.11,222.96 87.95,239.74 71.99,258.72 58.83,280.39 48.90,303.66 42.57,327.33 40.00,351.40 41.54,375.67 46.99,399.34 56.47,421.61 69.49,441.98 80.15,454.36 92.36,465.65 105.67,475.34 128.24,486.32 152.73,493.91 177.15,498.61 205.68,500.41 279.29,498.41 364.37,487.42 393.20,478.93"
        fill="none"
        stroke="#e94560"
        stroke-width="8.0"
        stroke-linejoin="round"
        stroke-linecap="round"/>
  <!-- Start/finish line -->
  <line x1="387.55" y1="459.75" x2="398.84" y2="498.12"
        stroke="#f5f5f5" stroke-width="9.6"
        stroke-linecap="round"/>
</svg>
