<?xml version="1.0" encoding="utf-8"?>
<svg xmlns="http://www.w3.org/2000/svg"
     width="732.0" height="800.0"
     viewBox="0 0 732.0 800.0">
  <rect width="100%" height="100%" fill="#1a1a2e"/>
  <!-- Track outline -->
  <polyline points="622.88,547.64 650.34,495.87 671.86,440.96 686.12,383.47 691.97,325.76 690.90,297.86 687.45,270.40 681.61,243.39 673.37,217.17 662.74,192.29 644.67,168.98 608.71,119.45 590.02,101.41 569.65,85.95 546.62,72.05 521.91,60.51 495.34,51.09 467.62,44.37 438.57,40.67 409.07,40.00 378.61,42.35 348.23,47.84 317.93,56.70 288.44,68.69 259.65,84.15 232.20,102.42 206.25,122.70 180.83,146.57 114.66,229.05 87.30,276.34 66.22,328.22 49.03,381.79 40.27,438.05 40.00,495.53 48.15,551.34 55.15,577.79 64.53,603.11 76.58,626.76 90.93,648.95 107.23,669.57 125.38,688.39 145.22,705.31 166.57,720.33 189.60,733.11 213.86,743.64 238.93,751.60 264.70,757.09 290.92,759.89 317.40,760.00 343.80,757.42 370.01,752.49 421.03,735.91 469.48,711.03 514.83,679.20 555.39,640.32 622.88,547.64"
        fill="none"
        stroke="#e94560"
        stroke-width="8.0"
        stroke-linejoin="round"
        stroke-linecap="round"/>
  <!-- Start/finish line -->
  <line x1="606.17" y1="536.66" x2="639.60" y2="558.63"
        stroke="#f5f5f5" stroke-width="9.6"
        stroke-linecap="round"/>
</svg>
