<?xml version="1.0" encoding="utf-8"?>
<svg xmlns="http://www.w3.org/2000/svg"
     width="416.0" height="800.0"
     viewBox="0 0 416.0 800.0">
  <rect width="100%" height="100%" fill="#1a1a2e"/>
  <!-- Track outline -->
  <polyline points="332.95,419.29 333.95,411.82 341.50,355.87 358.42,251.24 375.17,160.06 375.96,148.13 375.45,138.05 373.25,126.14 370.42,115.84 369.28,112.33 367.70,108.86 360.31,96.41 350.28,81.94 325.32,53.53 318.84,48.03 313.05,44.08 309.42,42.05 305.92,40.73 303.64,40.22 301.33,40.00 299.11,40.16 297.45,40.58 295.82,41.22 294.27,42.06 292.92,43.09 291.72,44.39 290.67,45.92 289.81,47.60 289.18,49.30 288.64,51.60 288.49,54.04 288.80,56.63 290.69,60.85 293.51,65.41 295.43,69.63 295.64,73.31 295.27,76.81 294.44,84.42 295.14,97.60 297.22,113.68 307.28,153.97 313.69,174.06 316.37,187.76 317.13,201.85 315.97,215.63 314.00,224.25 311.29,232.33 307.61,240.31 270.06,295.44 265.10,302.03 260.48,307.13 257.87,309.58 255.02,311.73 253.74,312.53 252.35,313.36 250.95,314.06 249.60,314.49 248.38,314.49 247.54,314.16 246.70,313.58 245.88,312.83 245.13,311.95 244.48,311.00 243.98,310.02 243.67,309.10 243.60,307.58 243.99,306.00 244.70,304.21 245.52,302.00 262.45,260.47 263.53,256.52 264.07,253.20 264.43,248.94 264.37,244.71 263.94,241.29 263.05,238.02 262.07,235.68 260.82,233.38 259.35,231.33 256.80,228.97 253.93,227.03 250.95,225.32 247.72,224.09 243.91,223.59 239.97,223.72 235.99,224.46 232.14,225.71 228.67,227.19 225.48,229.06 222.79,231.32 220.42,233.91 218.46,236.45 216.32,240.20 197.48,284.65 179.15,335.26 176.34,347.59 175.09,358.18 174.87,371.00 174.69,382.11 174.03,385.97 173.02,389.21 171.50,392.49 169.54,395.60 164.12,401.67 153.47,411.73 148.39,418.21 134.83,442.65 113.44,492.08 108.80,501.13 103.59,509.77 97.67,517.87 77.48,539.63 52.98,562.93 50.18,566.47 48.25,569.68 46.77,572.91 45.81,576.29 45.52,578.92 45.53,581.65 45.85,584.26 46.81,587.33 48.33,590.60 56.61,605.67 59.07,612.75 60.62,620.61 61.33,629.17 61.01,638.22 53.04,678.04 41.09,733.18 40.04,742.20 40.00,749.18 40.29,751.80 40.80,754.07 41.76,756.02 42.61,757.11 43.68,758.13 44.88,759.02 46.12,759.67 47.35,760.00 48.64,759.94 50.02,759.54 51.40,758.89 52.71,758.07 53.84,757.17 55.28,755.42 56.39,753.20 57.71,750.21 78.94,694.48 109.56,621.35 155.66,505.51 159.62,496.99 163.85,489.53 168.74,483.25 174.54,477.94 180.90,473.64 187.68,470.47 191.26,469.37 194.93,468.63 202.69,468.20 278.49,475.48 287.05,475.08 294.74,473.80 302.19,472.01 305.86,470.66 309.08,469.10 315.29,465.15 320.78,460.17 325.66,454.29 329.86,447.32 333.24,439.24 334.23,431.33 332.95,419.29"
        fill="none"
        stroke="#e94560"
        stroke-width="8.0"
        stroke-linejoin="round"
        stroke-linecap="round"/>
  <!-- Start/finish line -->
  <line x1="312.95" y1="419.58" x2="352.95" y2="419.01"
        stroke="#f5f5f5" stroke-width="9.6"
        stroke-linecap="round"/>
</svg>
