<?xml version="1.0" encoding="utf-8"?>
<svg xmlns="http://www.w3.org/2000/svg"
     width="543.7" height="800.0"
     viewBox="0 0 543.7 800.0">
  <rect width="100%" height="100%" fill="#1a1a2e"/>
  <!-- Track outline -->
  <polyline points="480.54,275.48 481.40,269.83 503.51,127.86 503.66,117.41 503.02,112.34 500.38,102.70 498.40,98.01 496.21,93.90 493.34,89.51 488.48,84.05 483.65,79.48 480.08,76.98 476.12,74.93 471.96,73.46 463.47,71.43 459.39,70.06 455.45,68.12 451.66,65.55 448.08,62.45 437.13,52.12 432.92,49.24 423.49,44.54 418.50,42.85 402.21,40.02 396.57,40.00 390.81,40.50 382.63,42.41 373.42,45.42 364.77,49.46 356.35,54.35 339.84,66.52 313.82,92.97 290.23,125.75 261.41,179.46 183.84,337.38 183.02,339.86 182.67,341.81 181.85,350.64 182.41,359.25 182.30,363.40 181.32,368.65 180.46,371.28 179.40,373.74 178.49,375.40 177.14,377.31 153.33,404.28 136.60,431.01 43.60,618.37 40.61,627.91 40.17,630.29 40.00,632.69 40.12,637.51 40.63,642.32 41.10,644.70 41.87,647.14 44.43,653.66 48.29,661.44 65.01,685.26 104.96,729.31 128.47,750.80 135.80,755.82 139.72,757.70 143.90,759.00 148.28,759.67 152.71,760.00 157.28,759.71 166.76,757.93 171.55,756.34 185.39,748.63 189.69,745.29 197.53,737.45 200.86,733.13 203.68,728.45 206.01,723.40 209.12,712.27 209.94,706.33 211.86,673.96 214.66,652.63 217.72,637.80 221.67,623.30 231.43,596.10 236.85,583.49 243.02,571.77 246.46,566.27 250.25,561.01 262.78,546.58 279.77,529.22 283.37,524.23 287.52,516.48 291.71,506.80 298.98,479.65 307.99,422.75 312.51,403.32 318.30,385.33 340.35,330.08 342.73,325.40 345.61,321.17 349.02,317.51 352.92,314.59 357.21,312.41 361.67,310.91 366.24,310.01 370.93,309.67 406.02,311.64 456.59,314.95 459.03,314.76 460.87,314.37 462.99,313.76 465.04,312.92 466.94,311.77 468.70,310.36 470.34,308.72 471.81,306.87 473.10,304.86 474.29,302.34 478.69,284.85 480.54,275.48"
        fill="none"
        stroke="#e94560"
        stroke-width="8.0"
        stroke-linejoin="round"
        stroke-linecap="round"/>
  <!-- Start/finish line -->
  <line x1="460.86" y1="271.92" x2="500.22" y2="279.04"
        stroke="#f5f5f5" stroke-width="9.6"
        stroke-linecap="round"/>
</svg>
