<?xml version="1.0" encoding="utf-8"?>
<svg xmlns="http://www.w3.org/2000/svg"
     width="800.0" height="257.5"
     viewBox="0 0 800.0 257.5">
  <rect width="100%" height="100%" fill="#1a1a2e"/>
  <!-- Track outline -->
  <polyline points="466.77,120.81 439.15,126.95 365.11,142.77 355.77,144.50 351.40,144.84 347.18,144.71 343.21,144.01 339.41,142.92 337.71,142.14 335.96,141.07 329.89,135.97 320.82,128.14 318.96,127.09 317.24,126.36 313.40,124.99 309.40,124.35 307.52,124.22 305.36,124.29 299.23,125.27 292.83,126.98 286.62,130.30 281.03,133.64 267.00,139.35 248.19,145.73 236.52,149.04 228.45,150.93 222.28,151.92 215.98,152.61 209.54,152.92 196.50,152.50 176.38,149.69 114.10,138.82 88.86,137.19 72.32,138.61 67.27,139.77 58.15,143.30 54.04,145.68 50.46,148.49 47.18,151.58 45.81,153.35 44.71,155.12 42.65,158.96 41.15,162.96 40.15,167.11 40.00,169.05 40.02,170.98 40.51,175.11 41.54,179.19 42.87,183.14 43.79,185.03 44.83,186.63 46.16,188.22 47.64,189.67 50.89,192.15 54.35,194.20 58.27,195.81 62.55,196.87 66.91,197.58 69.10,197.72 71.42,197.59 85.62,194.80 101.03,190.22 106.56,189.03 112.27,188.25 118.10,187.94 124.09,188.08 130.19,188.67 136.38,189.61 142.63,191.07 148.89,192.96 195.17,210.68 216.78,215.82 238.83,217.55 261.17,215.54 305.27,204.90 327.52,201.12 334.88,200.43 342.19,200.20 356.61,201.06 405.50,208.03 411.87,208.04 423.94,206.49 429.62,204.99 435.02,202.89 449.46,193.65 466.44,179.47 470.60,176.72 474.90,174.40 479.37,172.74 483.96,171.75 488.63,171.31 493.25,171.88 497.85,172.91 502.37,174.56 506.92,176.73 535.07,194.93 551.59,203.12 559.80,206.02 567.91,208.07 575.54,209.03 582.00,209.20 584.12,208.98 585.96,208.55 588.23,207.81 590.48,206.82 592.58,205.63 594.55,204.24 596.25,202.76 597.79,201.11 599.13,199.39 600.21,197.49 600.92,195.24 601.34,192.84 601.58,190.50 601.59,187.98 600.52,179.38 600.40,177.03 600.49,174.89 600.85,172.83 601.44,170.85 602.21,168.93 603.22,167.15 604.56,165.57 606.12,164.17 607.91,162.84 609.86,161.75 612.00,161.00 614.22,160.46 616.55,160.00 618.93,159.75 621.44,159.88 623.89,160.24 627.72,161.18 631.56,162.51 635.42,164.30 639.21,166.49 646.68,171.93 675.50,195.81 683.76,200.59 690.62,203.75 695.94,205.51 706.63,207.33 709.29,207.44 711.96,207.27 722.48,205.31 727.45,203.52 732.20,201.23 736.70,198.23 744.70,190.82 748.15,186.54 753.93,176.84 756.02,171.45 759.71,153.61 760.00,147.29 758.46,127.38 757.25,120.47 745.41,86.44 731.29,59.58 725.67,51.74 722.41,48.50 718.91,45.71 715.00,43.45 710.75,41.68 706.40,40.33 704.13,40.03 702.01,40.00 697.45,40.32 692.93,41.30 683.59,44.58 674.49,49.65 651.72,68.04 646.61,71.75 641.17,75.26 635.42,78.51 629.34,81.49 616.31,86.69 609.37,88.93 579.43,96.05 504.25,112.49 466.77,120.81"
        fill="none"
        stroke="#e94560"
        stroke-width="8.0"
        stroke-linejoin="round"
        stroke-linecap="round"/>
  <!-- Start/finish line -->
  <line x1="471.10" y1="140.34" x2="462.43" y2="101.29"
        stroke="#f5f5f5" stroke-width="9.6"
        stroke-linecap="round"/>
</svg>
