<?xml version="1.0" encoding="utf-8"?>
<svg xmlns="http://www.w3.org/2000/svg"
     width="800.0" height="371.8"
     viewBox="0 0 800.0 371.8">
  <rect width="100%" height="100%" fill="#1a1a2e"/>
  <!-- Track outline -->
  <polyline points="463.30,100.92 639.67,46.50 677.88,40.00 700.09,40.28 707.81,41.28 714.97,42.89 721.61,45.22 727.89,48.17 733.51,51.23 738.71,54.78 743.41,59.06 747.59,63.79 751.03,68.29 754.00,73.18 756.51,79.07 758.37,85.41 759.58,91.69 760.00,99.31 757.40,125.04 752.29,151.94 748.29,164.23 743.83,173.40 736.48,183.62 712.46,195.91 678.57,205.75 654.92,216.09 650.22,219.20 646.88,221.98 644.04,225.42 640.37,232.65 637.40,242.32 632.15,275.84 626.10,307.91 623.45,313.02 620.62,316.74 617.69,319.80 614.48,322.69 610.67,324.92 600.59,328.53 588.64,331.03 575.63,331.81 563.27,331.20 555.93,330.20 549.28,328.58 543.19,326.69 537.52,324.19 532.83,321.47 528.46,317.75 522.97,310.41 517.35,300.13 504.62,267.11 492.58,236.32 489.19,230.87 485.70,227.15 481.05,223.81 476.08,221.31 471.71,219.70 467.16,218.59 461.49,217.81 454.98,217.64 441.83,218.92 427.14,221.81 410.74,226.53 396.05,233.20 390.89,236.98 386.62,241.26 382.48,246.88 376.16,260.83 370.12,277.95 364.17,291.12 360.91,295.18 357.71,298.01 354.36,300.46 349.43,303.35 344.28,305.63 332.15,309.07 314.02,311.96 287.11,313.52 256.81,311.69 223.11,305.96 187.56,297.07 138.62,275.34 119.24,264.11 109.99,256.44 101.25,247.43 84.66,222.87 68.81,195.02 53.38,159.89 42.65,126.15 40.79,116.93 40.00,108.81 40.28,102.92 41.16,97.47 42.37,92.41 44.23,87.52 47.76,81.58 52.32,75.91 58.45,70.40 65.42,65.51 81.64,57.17 101.91,50.12 127.75,44.17 136.72,43.45 145.78,43.78 160.33,45.61 174.78,48.89 184.26,52.62 192.67,57.12 198.81,61.12 205.50,66.85 233.29,97.58 260.90,128.32 267.22,133.93 272.94,137.83 280.88,141.55 289.20,144.22 296.82,145.66 304.73,146.16 314.07,145.66 324.85,143.88 376.58,128.99 463.30,100.92"
        fill="none"
        stroke="#e94560"
        stroke-width="8.0"
        stroke-linejoin="round"
        stroke-linecap="round"/>
  <!-- Start/finish line -->
  <line x1="457.32" y1="81.83" x2="469.28" y2="120.00"
        stroke="#f5f5f5" stroke-width="9.6"
        stroke-linecap="round"/>
</svg>
