<?xml version="1.0" encoding="utf-8"?>
<svg xmlns="http://www.w3.org/2000/svg"
     width="800.0" height="409.2"
     viewBox="0 0 800.0 409.2">
  <rect width="100%" height="100%" fill="#1a1a2e"/>
  <!-- Track outline -->
  <polyline points="406.71,369.24 590.32,364.51 652.63,355.60 660.44,353.55 667.71,350.71 705.37,330.24 711.94,325.94 717.86,320.82 729.32,307.29 740.30,291.48 747.25,278.79 752.43,267.04 754.46,261.40 755.94,255.05 759.09,230.76 760.00,203.12 757.56,184.55 752.79,167.28 745.07,149.61 735.38,133.13 724.43,118.27 711.59,104.47 692.33,87.87 670.63,73.16 646.24,61.45 621.07,52.54 573.48,42.09 548.92,40.00 187.42,44.30 169.95,47.22 145.66,54.47 119.51,65.27 99.87,78.29 84.20,91.10 79.17,95.56 74.75,100.64 64.06,117.36 54.46,135.26 51.51,142.04 49.28,149.46 40.53,200.48 40.00,208.29 40.41,216.01 44.53,240.03 50.57,263.61 53.93,271.57 57.67,278.31 68.51,294.83 86.70,314.35 105.93,331.74 113.06,336.43 120.33,340.02 135.50,347.28 154.29,354.10 187.56,360.72 228.61,365.10 406.71,369.24"
        fill="none"
        stroke="#e94560"
        stroke-width="8.0"
        stroke-linejoin="round"
        stroke-linecap="round"/>
  <!-- Start/finish line -->
  <line x1="406.68" y1="349.24" x2="406.75" y2="389.24"
        stroke="#f5f5f5" stroke-width="9.6"
        stroke-linecap="round"/>
</svg>
