<?xml version="1.0" encoding="utf-8"?>
<svg xmlns="http://www.w3.org/2000/svg"
     width="800.0" height="470.4"
     viewBox="0 0 800.0 470.4">
  <rect width="100%" height="100%" fill="#1a1a2e"/>
  <!-- Track outline -->
  <polyline points="84.68,323.76 77.17,300.35 49.97,198.86 44.12,173.83 42.09,161.98 40.73,150.58 40.00,139.36 40.10,128.52 40.76,117.97 42.09,107.62 44.34,97.50 47.63,87.70 52.09,78.54 57.52,70.21 63.98,62.79 71.37,56.30 79.47,50.90 88.17,46.65 97.34,43.48 107.00,41.37 117.00,40.18 127.35,40.00 159.91,42.18 298.68,59.60 629.97,97.06 707.31,106.82 716.73,107.75 723.09,108.88 728.39,110.27 734.81,112.97 738.98,114.99 741.71,116.95 744.88,119.47 747.04,122.03 749.18,124.73 750.99,127.69 752.35,130.58 753.50,133.90 754.68,137.06 755.86,140.23 756.80,143.97 757.45,147.66 758.12,151.21 758.52,154.57 758.96,158.29 759.59,161.87 759.61,165.02 760.00,169.05 759.95,173.84 759.72,178.61 759.22,184.17 758.93,192.74 758.38,200.77 757.82,208.97 757.26,218.21 754.16,246.56 749.93,286.68 747.50,313.45 745.12,331.25 741.73,349.02 739.14,354.04 737.23,357.86 735.20,361.48 732.57,365.66 730.41,367.96 727.26,371.24 724.69,374.13 722.29,376.87 719.28,379.36 716.53,381.21 714.17,383.04 711.64,384.75 708.82,386.27 705.13,388.12 701.79,389.05 697.41,389.99 694.36,390.14 689.73,390.59 640.73,393.71 596.89,395.98 558.62,399.06 533.22,401.65 508.05,404.42 477.80,407.57 449.81,410.76 417.38,415.48 398.97,416.05 389.72,415.35 380.68,414.03 371.73,412.16 363.09,409.79 354.65,406.90 346.61,403.32 339.17,399.09 332.31,394.29 326.18,388.97 320.72,383.21 316.02,377.04 312.14,370.64 309.04,364.28 306.89,357.87 305.76,351.35 305.64,348.08 305.79,344.83 306.27,341.55 307.02,338.40 308.14,335.17 309.51,332.14 311.27,329.08 313.24,326.27 318.01,320.98 323.87,316.43 330.61,312.67 338.07,309.72 346.12,307.44 354.69,305.77 461.26,294.44 609.35,263.10 646.65,252.14 661.77,244.96 668.43,240.38 674.37,235.10 679.37,229.44 683.29,223.27 684.76,220.22 685.98,216.98 686.82,213.73 687.38,210.34 687.62,203.71 686.84,197.13 685.09,190.62 683.78,187.49 682.25,184.65 680.33,182.05 678.21,179.75 673.34,175.43 667.71,171.74 664.72,170.28 661.16,168.96 651.58,166.23 638.16,163.77 535.33,160.11 473.56,163.73 407.40,175.98 326.56,198.58 253.95,221.50 238.17,229.54 231.17,234.40 225.16,240.15 215.17,253.29 211.20,260.37 208.29,267.91 206.43,275.84 205.67,284.08 206.25,292.33 207.83,300.55 210.72,308.75 223.60,332.01 227.19,340.05 230.10,348.40 231.92,356.83 232.61,365.20 232.19,373.48 230.80,381.43 228.25,389.17 224.74,396.82 220.22,404.16 214.90,410.85 208.82,416.76 202.17,421.76 195.20,425.75 187.88,428.34 180.23,429.94 172.25,430.41 164.03,429.68 155.66,428.01 147.38,425.23 139.50,421.29 131.98,416.16 124.96,409.94 118.66,402.77 113.00,394.74 108.12,385.96 103.67,376.57 91.73,345.74 84.68,323.76"
        fill="none"
        stroke="#e94560"
        stroke-width="8.0"
        stroke-linejoin="round"
        stroke-linecap="round"/>
  <!-- Start/finish line -->
  <line x1="65.64" y1="329.87" x2="103.73" y2="317.66"
        stroke="#f5f5f5" stroke-width="9.6"
        stroke-linecap="round"/>
</svg>
