<?xml version="1.0" encoding="utf-8"?>
<svg xmlns="http://www.w3.org/2000/svg"
     width="539.5" height="800.0"
     viewBox="0 0 539.5 800.0">
  <rect width="100%" height="100%" fill="#1a1a2e"/>
  <!-- Track outline -->
  <polyline points="448.56,430.90 482.07,307.20 499.53,228.70 499.50,193.00 496.39,163.83 494.90,156.30 492.39,149.27 481.81,126.59 467.52,102.62 454.47,86.79 439.29,73.23 415.80,58.03 389.74,46.53 363.78,41.19 337.53,40.00 312.36,41.69 287.46,46.89 261.84,56.43 236.82,70.08 210.46,90.12 186.37,113.21 169.62,132.75 153.80,155.98 125.41,205.60 98.11,266.12 55.11,435.65 40.00,536.89 41.31,596.55 45.35,618.91 53.91,643.29 76.42,683.91 92.47,703.58 120.44,728.41 129.57,735.12 138.80,740.69 150.40,745.99 163.71,750.51 187.87,756.39 212.10,760.00 224.78,759.91 236.48,758.49 249.39,756.21 262.14,752.74 273.96,748.13 286.00,742.11 319.54,720.47 328.07,713.26 336.41,704.36 357.54,676.61 379.30,641.55 412.02,559.85 447.36,435.33 448.56,430.90"
        fill="none"
        stroke="#e94560"
        stroke-width="8.0"
        stroke-linejoin="round"
        stroke-linecap="round"/>
  <!-- Start/finish line -->
  <line x1="429.26" y1="425.67" x2="467.87" y2="436.13"
        stroke="#f5f5f5" stroke-width="9.6"
        stroke-linecap="round"/>
</svg>
