<?xml version="1.0" encoding="utf-8"?>
<svg xmlns="http://www.w3.org/2000/svg"
     width="735.8" height="800.0"
     viewBox="0 0 735.8 800.0">
  <rect width="100%" height="100%" fill="#1a1a2e"/>
  <!-- Track outline -->
  <polyline points="128.31,63.16 129.90,64.01 626.13,338.31 635.07,344.36 638.36,346.90 647.31,355.40 655.39,364.29 662.30,372.98 666.86,379.46 675.71,393.79 680.90,404.14 687.03,420.83 688.30,425.21 693.68,451.59 694.88,460.99 695.84,480.21 695.40,499.63 693.13,529.24 683.86,610.38 681.50,625.89 678.11,641.26 675.18,651.35 671.60,661.24 667.35,670.87 662.42,680.15 656.84,689.06 650.63,697.53 643.84,705.50 640.22,709.29 636.46,712.93 632.56,716.41 628.52,719.75 624.35,722.92 615.63,728.80 611.12,731.48 601.80,736.29 592.10,740.39 582.17,743.85 572.04,746.66 556.53,749.88 535.34,752.74 508.13,754.62 448.91,757.90 416.75,760.00 407.54,759.66 402.08,758.80 399.55,758.11 397.15,757.19 394.87,756.09 392.73,754.77 390.72,753.28 388.86,751.62 387.15,749.79 385.59,747.82 384.19,745.67 382.96,743.38 381.93,740.98 381.08,738.48 380.43,735.88 379.97,733.18 379.72,730.42 379.68,727.64 379.88,724.85 380.30,722.04 381.78,716.31 383.95,710.35 388.46,701.07 402.62,677.43 411.71,663.97 418.67,652.92 429.18,636.67 453.65,595.86 455.77,591.67 458.33,585.84 459.91,581.01 460.78,577.03 461.19,573.13 461.16,569.21 460.69,565.33 459.70,561.39 458.28,557.62 456.38,554.01 454.11,550.70 451.36,547.61 448.31,544.91 444.96,542.55 441.25,540.57 436.16,538.59 430.26,537.03 408.25,534.63 395.58,533.03 389.59,531.67 384.10,529.78 381.54,528.64 379.12,527.35 376.86,525.89 374.76,524.26 372.82,522.48 371.03,520.53 369.43,518.43 367.99,516.20 366.73,513.83 365.64,511.33 363.97,505.96 362.95,500.23 362.56,494.19 363.05,481.45 369.34,425.59 369.02,412.34 368.35,407.78 367.30,403.60 365.80,399.62 363.92,395.96 361.57,392.57 358.88,389.57 355.71,386.80 352.26,384.45 348.48,382.46 344.35,380.89 338.75,379.45 332.33,378.58 309.41,379.42 266.86,383.21 227.77,386.44 212.18,390.31 197.43,396.78 175.59,410.95 165.34,417.04 160.45,418.95 158.01,419.57 155.56,419.98 150.71,420.12 145.92,419.45 139.13,417.55 134.29,415.80 123.35,411.08 113.59,406.10 78.54,389.76 73.31,386.77 69.40,384.22 66.48,381.79 58.26,372.91 52.86,366.07 51.00,363.38 46.69,355.91 43.55,349.30 42.12,344.45 41.46,341.20 40.86,333.70 40.00,74.75 42.13,63.51 42.89,60.61 43.86,58.07 45.09,55.48 46.57,53.20 48.09,51.26 50.12,49.23 52.85,46.89 58.32,43.26 61.37,41.84 64.49,40.89 67.81,40.34 71.05,40.01 74.45,40.00 78.49,40.54 82.30,41.26 85.88,42.36 93.30,45.16 97.66,47.18 105.50,51.09 126.17,62.03 128.31,63.16"
        fill="none"
        stroke="#e94560"
        stroke-width="8.0"
        stroke-linejoin="round"
        stroke-linecap="round"/>
  <!-- Start/finish line -->
  <line x1="137.66" y1="45.48" x2="118.95" y2="80.84"
        stroke="#f5f5f5" stroke-width="9.6"
        stroke-linecap="round"/>
</svg>
