<?xml version="1.0" encoding="utf-8"?>
<svg xmlns="http://www.w3.org/2000/svg"
     width="477.4" height="800.0"
     viewBox="0 0 477.4 800.0">
  <rect width="100%" height="100%" fill="#1a1a2e"/>
  <!-- Track outline -->
  <polyline points="137.65,501.51 71.09,373.13 51.81,334.71 45.07,315.79 41.19,296.72 40.00,277.76 41.40,259.75 43.34,251.23 46.06,242.95 53.72,226.96 63.94,210.90 77.01,195.58 92.67,181.08 189.88,108.98 265.02,57.94 281.74,48.91 298.28,42.87 306.52,40.99 314.79,40.00 323.00,40.04 331.17,41.03 339.48,42.94 347.62,45.80 355.38,49.59 362.73,54.33 369.61,60.27 375.98,67.03 382.00,74.56 387.42,82.70 396.13,101.02 402.84,121.12 435.39,307.19 437.43,327.04 436.55,345.33 435.22,353.39 433.07,361.25 429.57,370.05 424.67,378.19 421.40,381.83 417.65,385.27 413.57,388.17 409.28,390.18 404.58,391.32 399.50,391.67 394.43,391.28 389.83,390.22 384.90,387.85 380.44,384.42 376.39,380.42 370.67,372.99 366.04,364.71 362.84,356.97 360.49,348.90 357.80,330.96 357.49,234.57 354.36,217.20 348.91,201.07 345.37,193.71 341.01,186.56 334.27,178.18 326.64,170.57 319.87,165.44 312.72,161.23 304.78,157.59 296.44,154.79 287.49,152.95 278.30,152.00 268.83,151.79 259.30,152.46 249.73,154.16 240.27,156.77 221.23,164.70 183.68,187.62 167.54,202.48 153.62,219.53 142.07,238.99 133.94,260.11 129.58,282.36 128.83,305.49 131.31,329.12 136.52,352.83 172.82,438.19 182.90,454.46 188.34,461.18 194.47,467.27 202.51,473.46 211.22,478.37 216.64,480.43 222.15,481.81 227.84,482.30 234.31,481.81 240.98,480.32 247.08,477.81 252.52,474.09 257.46,469.35 261.41,464.22 263.96,459.34 265.77,454.14 266.82,448.80 267.13,443.25 266.72,437.52 265.73,431.86 263.04,423.15 259.23,414.66 248.71,397.97 213.50,354.03 208.91,345.54 205.78,337.69 201.04,320.07 199.24,302.91 199.41,294.78 200.60,286.64 203.53,277.02 207.99,267.78 214.25,259.65 221.85,252.61 230.53,246.63 239.89,242.17 246.12,240.33 252.52,239.24 258.86,239.06 264.92,239.91 270.91,241.61 276.56,244.01 281.94,247.16 287.01,250.98 291.57,255.37 297.36,263.15 302.16,271.85 306.25,281.58 309.45,291.49 313.16,307.86 336.04,453.29 344.99,502.04 347.07,526.41 346.32,549.73 342.44,571.59 335.77,591.29 320.11,625.57 315.03,641.81 313.77,649.88 313.33,657.98 313.77,666.15 315.10,674.25 320.48,690.27 328.65,709.80 331.17,718.86 332.12,727.95 331.58,732.83 330.49,737.82 328.79,742.60 326.51,746.77 323.61,750.24 320.07,753.28 316.12,755.83 312.04,757.77 306.11,759.40 299.78,760.00 293.52,759.61 287.05,758.09 280.61,755.47 274.76,752.29 267.95,746.98 262.06,740.68 257.12,734.07 251.84,725.30 207.68,638.06 187.05,595.72 150.28,525.88 137.65,501.51"
        fill="none"
        stroke="#e94560"
        stroke-width="8.0"
        stroke-linejoin="round"
        stroke-linecap="round"/>
  <!-- Start/finish line -->
  <line x1="119.89" y1="510.72" x2="155.40" y2="492.31"
        stroke="#f5f5f5" stroke-width="9.6"
        stroke-linecap="round"/>
</svg>
