<?xml version="1.0" encoding="utf-8"?>
<svg xmlns="http://www.w3.org/2000/svg"
     width="652.0" height="800.0"
     viewBox="0 0 652.0 800.0">
  <rect width="100%" height="100%" fill="#1a1a2e"/>
  <!-- Track outline -->
  <polyline points="379.40,177.51 337.15,129.91 318.66,113.93 243.30,54.09 225.61,45.87 211.05,41.44 205.10,40.29 199.27,40.00 187.37,40.58 175.54,42.14 169.76,43.49 163.96,45.63 150.05,52.24 134.72,61.93 117.09,78.36 101.56,96.31 86.20,119.97 72.20,148.68 55.97,199.98 44.51,250.33 40.00,291.36 41.26,311.94 42.87,321.80 45.68,332.19 53.07,350.71 62.88,368.83 71.88,380.20 82.37,389.53 91.30,395.40 101.15,400.37 111.37,404.03 127.90,406.69 143.78,406.74 154.15,405.18 163.41,402.30 171.11,398.52 177.88,393.76 181.57,390.43 184.82,386.77 187.55,382.54 190.19,376.30 192.03,369.24 192.71,362.13 192.00,355.48 190.10,348.78 187.14,341.27 171.84,314.61 157.08,290.01 154.73,284.18 153.36,279.25 152.27,274.56 151.60,269.39 151.39,259.20 152.36,248.11 154.82,237.60 158.60,227.54 163.44,218.46 169.35,210.20 175.89,203.22 183.45,197.31 189.80,193.61 196.72,190.49 203.78,188.44 210.64,187.57 217.58,187.66 224.29,188.72 230.85,191.15 237.18,194.56 242.57,198.09 246.85,201.62 250.57,205.73 256.58,214.07 261.73,222.69 265.22,231.32 270.73,250.41 300.44,374.12 383.70,699.38 391.50,717.98 399.73,730.92 411.45,743.28 422.94,752.40 427.12,754.95 431.58,756.59 438.76,758.40 447.37,759.79 455.81,760.00 463.37,758.93 470.75,756.84 477.64,753.80 484.11,749.61 490.06,744.47 494.95,739.14 497.88,734.95 500.14,730.59 501.84,725.79 503.42,719.09 504.27,711.78 504.09,704.59 502.54,697.45 499.96,690.46 497.21,684.51 494.78,680.36 491.61,676.21 465.45,646.93 452.73,628.77 447.90,618.83 444.35,609.47 442.95,604.66 442.16,599.82 441.54,591.69 442.07,582.77 444.76,572.26 448.92,562.56 451.44,558.66 454.23,555.25 457.42,552.26 463.51,548.15 469.67,545.07 472.86,543.79 476.32,543.06 484.90,542.97 495.60,543.79 514.61,546.55 534.39,548.44 548.83,546.88 561.08,543.63 567.38,540.55 572.42,537.02 575.85,533.98 578.86,530.61 584.84,521.94 604.65,483.50 609.48,469.66 611.97,457.34 611.68,450.31 610.33,444.19 608.75,439.84 606.64,435.73 599.75,425.79 379.40,177.51"
        fill="none"
        stroke="#e94560"
        stroke-width="8.0"
        stroke-linejoin="round"
        stroke-linecap="round"/>
  <!-- Start/finish line -->
  <line x1="364.44" y1="190.79" x2="394.36" y2="164.23"
        stroke="#f5f5f5" stroke-width="9.6"
        stroke-linecap="round"/>
</svg>
