<?xml version="1.0" encoding="utf-8"?>
<svg xmlns="http://www.w3.org/2000/svg"
     width="697.7" height="800.0"
     viewBox="0 0 697.7 800.0">
  <rect width="100%" height="100%" fill="#1a1a2e"/>
  <!-- Track outline -->
  <polyline points="381.51,174.11 365.41,151.62 299.80,79.15 280.51,64.66 260.55,53.34 240.09,45.25 221.79,41.19 203.11,40.00 180.98,41.81 169.89,43.98 159.06,47.10 148.81,51.33 138.97,56.37 121.00,68.32 107.97,79.48 102.09,85.96 96.35,93.68 78.85,126.38 63.54,166.35 49.43,219.42 41.00,271.29 40.00,301.37 42.52,327.18 44.07,335.30 46.44,343.31 52.29,356.44 59.06,368.75 62.75,374.29 66.87,379.34 74.43,387.34 83.73,395.06 96.94,402.56 111.57,408.06 126.80,410.61 141.40,410.77 147.99,410.03 154.08,408.68 160.14,406.42 167.93,402.24 175.68,396.78 182.24,390.79 186.63,385.29 190.12,379.38 192.75,373.22 194.57,366.90 195.53,360.30 195.53,353.57 194.36,346.02 192.02,338.26 188.48,329.93 173.31,306.95 158.41,285.57 155.08,278.67 152.91,272.07 150.51,261.56 149.45,250.15 150.60,237.43 153.35,225.57 156.13,218.76 159.73,212.69 164.97,205.87 171.18,199.64 178.05,194.38 185.55,190.11 193.60,186.95 202.03,184.98 210.70,184.33 219.33,184.90 227.67,186.54 235.67,189.29 243.42,193.40 250.24,198.08 253.96,201.32 257.39,205.13 263.62,213.55 269.65,223.23 277.70,241.33 285.52,267.18 329.11,483.61 373.78,695.24 377.58,706.98 381.68,715.84 388.47,727.29 396.44,737.68 403.32,744.61 411.25,750.32 419.21,754.25 428.20,757.50 437.24,759.51 445.97,760.00 454.72,759.38 462.71,757.87 471.26,754.54 478.37,750.48 482.15,747.85 485.63,744.78 491.58,738.37 497.58,730.70 509.14,711.33 598.48,496.66 650.21,405.23 653.90,394.97 655.83,386.31 657.27,378.15 657.68,369.45 656.39,354.35 652.76,338.92 648.92,330.63 644.06,322.95 638.88,316.35 632.30,310.03 625.18,305.18 617.89,301.70 610.28,299.48 602.73,298.70 594.94,299.19 585.72,301.08 576.27,304.61 564.41,311.63 554.22,319.46 550.80,322.79 547.49,327.22 524.16,369.24 498.10,415.33 489.50,426.61 480.86,435.68 454.60,458.05 450.04,461.29 445.50,463.71 439.88,465.93 433.50,467.81 427.17,468.47 422.67,467.94 418.13,466.71 413.77,464.90 409.84,462.73 405.45,459.20 401.62,454.97 398.37,450.46 394.80,443.52 392.34,436.46 391.11,431.29 390.47,425.75 390.11,414.18 390.64,401.99 393.74,385.66 399.31,368.63 412.51,342.16 425.04,314.91 427.41,303.66 428.20,293.61 428.35,275.14 426.21,259.84 425.77,255.82 418.98,235.87 406.01,208.29 381.51,174.11"
        fill="none"
        stroke="#e94560"
        stroke-width="8.0"
        stroke-linejoin="round"
        stroke-linecap="round"/>
  <!-- Start/finish line -->
  <line x1="365.25" y1="185.76" x2="397.77" y2="162.46"
        stroke="#f5f5f5" stroke-width="9.6"
        stroke-linecap="round"/>
</svg>
