<?xml version="1.0" encoding="utf-8"?>
<svg xmlns="http://www.w3.org/2000/svg"
     width="571.7" height="800.0"
     viewBox="0 0 571.7 800.0">
  <rect width="100%" height="100%" fill="#1a1a2e"/>
  <!-- Track outline -->
  <polyline points="166.25,371.74 173.31,357.56 209.01,282.68 249.45,220.88 371.47,60.41 374.07,58.09 376.48,56.50 384.96,51.17 395.11,45.86 404.34,42.26 413.87,40.09 424.67,40.00 434.69,41.43 440.17,43.07 445.11,45.30 455.97,51.76 477.26,69.69 497.90,91.12 510.77,107.72 520.65,124.10 526.24,137.22 529.82,150.53 531.67,165.98 531.61,181.39 530.06,194.45 526.75,205.37 522.33,215.67 519.26,220.54 515.17,225.10 484.84,248.80 445.41,282.37 354.71,407.60 324.49,456.46 313.63,485.74 306.80,514.90 304.90,535.16 306.04,555.69 322.54,620.47 328.92,656.95 328.92,674.01 326.96,689.95 323.93,701.34 319.25,711.76 311.74,722.71 302.26,732.58 290.48,741.23 277.25,748.31 262.62,753.98 246.47,757.86 223.10,760.00 199.10,759.63 180.04,757.46 162.04,753.36 145.88,747.78 130.03,740.05 110.02,727.21 91.18,712.10 77.12,697.93 65.14,682.82 55.34,667.40 47.69,651.55 42.94,637.40 40.33,623.26 40.00,609.86 41.77,596.55 45.62,583.80 52.63,568.48 148.73,406.92 166.25,371.74"
        fill="none"
        stroke="#e94560"
        stroke-width="8.0"
        stroke-linejoin="round"
        stroke-linecap="round"/>
  <!-- Start/finish line -->
  <line x1="148.35" y1="362.82" x2="184.16" y2="380.66"
        stroke="#f5f5f5" stroke-width="9.6"
        stroke-linecap="round"/>
</svg>
