<?xml version="1.0" encoding="utf-8"?>
<svg xmlns="http://www.w3.org/2000/svg"
     width="800.0" height="598.4"
     viewBox="0 0 800.0 598.4">
  <rect width="100%" height="100%" fill="#1a1a2e"/>
  <!-- Track outline -->
  <polyline points="167.31,288.17 182.40,283.00 398.32,219.45 413.41,212.69 440.75,195.42 453.05,184.84 474.21,159.32 482.81,144.69 504.26,98.74 512.59,85.75 522.30,74.02 533.47,63.90 545.85,55.43 559.35,48.47 573.97,43.53 589.59,40.76 605.82,40.00 622.32,41.75 638.92,45.80 655.21,51.80 671.14,59.61 686.23,69.34 700.52,80.68 713.64,93.79 725.28,108.33 735.25,124.35 743.34,141.59 749.32,159.88 753.84,178.31 759.09,212.99 760.00,243.77 758.14,262.00 754.55,278.35 751.96,286.00 748.70,293.25 744.73,299.88 739.99,305.94 734.43,311.31 728.16,315.86 721.20,319.55 713.82,322.26 706.24,323.94 698.57,324.56 691.13,324.20 683.75,322.65 678.25,320.51 672.80,317.64 667.88,314.21 663.70,310.29 660.00,305.84 657.11,301.03 655.14,295.82 653.95,290.25 653.50,284.61 654.34,276.27 656.80,267.47 663.56,253.66 670.57,239.98 673.38,231.81 675.22,223.96 676.42,215.23 676.73,206.39 676.06,197.59 674.35,188.99 671.58,180.95 667.80,173.40 663.10,166.58 657.54,160.44 651.13,155.14 644.04,150.82 636.44,147.75 628.46,145.84 620.24,145.08 611.93,145.51 603.56,147.23 595.40,150.09 587.42,154.02 579.89,158.93 572.73,164.89 566.35,171.75 560.97,179.53 556.60,187.97 553.30,196.97 551.08,206.33 549.97,216.25 549.89,226.01 551.92,241.33 553.63,248.52 556.42,256.53 579.73,301.03 617.23,356.34 625.43,370.94 628.40,378.49 630.55,386.30 631.79,394.51 632.03,402.75 631.25,410.70 629.46,418.38 626.62,425.46 622.81,432.02 618.16,438.02 612.53,443.30 607.65,446.72 602.25,449.76 596.64,451.93 591.04,453.15 585.25,453.58 579.60,453.18 574.06,451.83 568.68,449.66 563.71,446.79 559.17,443.06 555.07,438.65 551.70,433.93 548.47,427.14 546.38,419.96 545.10,412.64 544.61,404.40 547.05,371.11 547.38,363.06 546.98,355.75 545.96,350.08 544.41,344.41 542.15,339.13 539.16,334.45 535.50,330.20 531.34,326.54 526.60,323.51 521.37,321.14 515.94,319.55 510.29,318.83 504.48,318.86 498.87,319.75 493.60,321.47 488.55,323.97 483.94,327.10 479.75,331.12 476.03,335.84 472.90,340.72 469.71,347.47 467.50,354.56 466.06,362.31 465.44,370.32 466.28,387.26 479.02,453.55 479.84,469.50 479.13,485.52 476.52,500.72 473.35,510.08 469.29,519.04 465.35,525.64 460.92,531.63 456.04,537.27 450.55,542.51 443.41,548.12 435.59,552.83 427.85,555.93 419.85,557.81 411.61,558.40 403.39,557.71 395.30,555.63 387.61,552.33 380.52,547.85 374.14,542.38 368.56,535.99 363.97,528.80 360.58,520.76 358.36,512.22 357.34,503.42 357.56,494.52 359.14,485.55 361.86,476.75 365.76,468.15 370.62,459.91 382.92,444.58 415.07,410.73 421.32,402.62 426.13,394.91 430.05,386.90 432.91,378.62 434.55,370.32 435.01,361.91 434.19,353.44 432.18,345.13 429.01,337.12 424.73,329.71 419.48,323.28 413.38,317.77 406.80,313.39 399.65,310.16 391.91,308.28 383.91,307.69 375.71,308.31 367.60,310.16 359.56,313.36 351.76,317.48 336.38,327.86 319.19,337.19 304.89,342.20 289.69,345.50 273.85,346.75 240.67,346.35 206.50,350.37 189.62,355.88 173.42,363.46 158.75,373.25 135.42,395.90 123.90,410.46 112.24,422.73 105.97,427.93 99.32,432.35 92.58,435.75 85.40,438.02 79.80,438.85 73.93,439.01 68.30,438.28 63.02,436.60 57.97,434.07 53.45,430.90 49.48,427.11 46.05,422.66 43.35,417.85 41.44,412.38 40.35,406.48 40.00,400.58 40.98,391.64 43.37,383.14 46.58,376.38 50.59,370.12 60.52,357.96 72.42,346.45 101.25,325.16 143.42,299.41 167.31,288.17"
        fill="none"
        stroke="#e94560"
        stroke-width="8.0"
        stroke-linejoin="round"
        stroke-linecap="round"/>
  <!-- Start/finish line -->
  <line x1="159.54" y1="269.74" x2="175.07" y2="306.61"
        stroke="#f5f5f5" stroke-width="9.6"
        stroke-linecap="round"/>
</svg>
