<?xml version="1.0" encoding="utf-8"?>
<svg xmlns="http://www.w3.org/2000/svg"
     width="800.0" height="733.9"
     viewBox="0 0 800.0 733.9">
  <rect width="100%" height="100%" fill="#1a1a2e"/>
  <!-- Track outline -->
  <polyline points="298.12,607.25 340.00,635.88 407.52,670.26 441.85,682.23 508.07,693.06 524.24,693.87 540.46,693.00 573.94,688.05 607.02,680.29 623.14,674.20 637.32,667.25 665.01,650.59 689.13,630.26 709.10,606.51 724.93,579.89 737.64,550.73 757.28,470.27 760.00,437.36 758.87,405.59 754.67,373.89 748.88,355.43 740.93,339.44 734.18,329.21 726.41,319.78 717.78,311.69 708.02,304.80 697.41,299.31 686.41,295.43 674.77,293.49 662.80,293.23 650.89,294.43 634.49,298.71 615.88,306.40 503.70,365.13 488.15,370.81 474.30,373.82 455.92,375.63 437.25,374.42 425.51,371.48 414.10,367.07 403.60,360.91 394.30,353.02 385.90,343.52 379.20,333.36 374.95,323.99 372.05,314.16 370.13,303.99 369.05,289.15 370.18,271.76 380.91,220.19 392.14,167.95 394.13,148.89 393.90,132.30 390.95,115.11 385.67,98.72 378.24,83.34 368.65,69.63 360.82,61.80 351.97,54.98 342.55,49.43 332.05,45.08 320.93,42.14 309.52,40.33 290.74,40.00 272.25,42.07 257.10,45.35 242.57,50.30 227.82,57.19 213.35,65.55 199.96,74.18 185.03,86.42 130.56,144.47 79.04,207.81 66.90,227.41 58.44,245.47 51.06,265.40 45.50,286.14 41.70,307.74 40.00,329.75 40.34,352.22 43.86,373.76 49.99,393.69 61.56,422.25 89.42,457.56 128.57,491.20 298.12,607.25"
        fill="none"
        stroke="#e94560"
        stroke-width="8.0"
        stroke-linejoin="round"
        stroke-linecap="round"/>
  <!-- Start/finish line -->
  <line x1="309.41" y1="590.74" x2="286.83" y2="623.76"
        stroke="#f5f5f5" stroke-width="9.6"
        stroke-linecap="round"/>
</svg>
