<?xml version="1.0" encoding="utf-8"?>
<svg xmlns="http://www.w3.org/2000/svg"
     width="800.0" height="402.1"
     viewBox="0 0 800.0 402.1">
  <rect width="100%" height="100%" fill="#1a1a2e"/>
  <!-- Track outline -->
  <polyline points="320.05,55.58 190.84,62.08 155.23,66.67 125.12,74.69 112.14,81.38 100.58,89.51 89.66,99.16 72.39,118.75 58.55,139.40 53.20,150.39 49.42,162.62 43.64,191.87 40.21,221.78 40.00,235.26 41.43,248.35 46.64,272.82 54.27,295.28 59.55,303.78 66.19,311.14 82.45,327.20 101.72,342.30 120.20,351.57 139.53,357.69 158.37,360.94 183.49,362.08 417.73,355.01 627.14,339.81 646.20,335.51 663.82,330.64 682.87,321.66 706.20,306.65 723.54,289.35 732.10,279.13 738.74,267.08 752.79,232.49 758.43,200.76 760.00,185.27 759.43,173.13 756.50,148.29 749.87,122.58 736.88,99.54 721.97,80.52 712.55,70.97 703.06,63.70 693.29,57.87 683.16,53.28 672.95,49.46 660.47,46.50 618.73,41.82 562.86,40.00 320.05,55.58"
        fill="none"
        stroke="#e94560"
        stroke-width="8.0"
        stroke-linejoin="round"
        stroke-linecap="round"/>
  <!-- Start/finish line -->
  <line x1="321.24" y1="75.54" x2="318.87" y2="35.61"
        stroke="#f5f5f5" stroke-width="9.6"
        stroke-linecap="round"/>
</svg>
