<?xml version="1.0" encoding="utf-8"?>
<svg xmlns="http://www.w3.org/2000/svg"
     width="456.0" height="800.0"
     viewBox="0 0 456.0 800.0">
  <rect width="100%" height="100%" fill="#1a1a2e"/>
  <!-- Track outline -->
  <polyline points="245.92,365.20 245.26,363.43 232.75,329.87 216.35,286.53 180.51,196.65 174.25,178.19 172.94,171.24 172.84,168.69 172.99,166.31 173.35,164.16 173.94,162.15 174.77,160.34 175.81,158.68 177.09,157.13 178.56,155.78 180.28,154.59 182.16,153.63 184.11,152.94 186.46,152.36 201.44,149.59 206.89,147.65 211.90,145.21 216.44,142.39 220.74,139.03 225.30,134.66 229.65,129.56 234.32,122.69 238.55,115.21 242.05,108.00 244.91,100.41 248.61,82.20 251.17,56.34 252.66,49.58 253.40,47.70 254.32,46.04 255.71,44.25 257.29,42.69 258.79,41.63 260.37,40.83 262.05,40.27 263.76,40.00 264.86,40.00 265.95,40.15 267.02,40.41 268.57,41.05 270.03,41.95 271.36,43.09 272.54,44.45 273.49,45.94 274.31,47.76 276.43,55.84 283.08,82.92 298.99,141.69 343.05,296.61 363.78,368.86 383.56,436.66 399.09,491.57 412.65,539.54 415.56,552.46 415.95,555.84 416.03,558.83 415.85,561.22 415.43,563.45 414.78,565.50 413.91,567.41 412.82,569.14 411.59,570.64 410.48,571.68 409.36,572.51 408.55,573.02 407.66,573.45 405.83,574.08 403.76,574.55 401.61,574.73 399.36,574.63 396.55,574.15 393.60,573.30 386.58,569.93 334.97,539.04 214.35,469.33 209.33,467.19 205.59,466.11 202.09,465.44 198.70,465.19 195.44,465.32 192.27,465.85 189.27,466.74 186.39,468.00 183.70,469.61 181.14,471.62 178.35,474.43 175.84,477.58 174.01,480.45 172.50,483.63 171.01,488.09 169.88,493.38 168.57,513.95 166.62,557.21 165.11,570.35 162.66,581.15 160.34,587.62 157.25,593.28 155.43,595.74 153.35,598.06 147.51,602.99 140.32,608.83 137.23,612.17 134.54,615.86 132.46,619.79 130.85,624.09 129.62,629.09 128.81,634.92 128.11,660.63 126.74,703.93 125.74,727.86 124.87,732.79 123.27,737.64 121.12,742.47 118.73,746.39 115.81,749.52 112.83,752.22 109.73,754.30 106.37,756.26 103.18,757.81 99.38,758.94 95.82,759.52 91.76,760.00 87.46,759.95 83.47,759.46 78.60,758.17 73.66,756.02 69.81,753.61 66.37,750.73 61.76,746.75 57.62,742.27 54.47,738.70 51.62,734.86 48.96,730.46 46.37,725.54 44.23,720.37 42.33,714.79 41.01,709.87 40.28,705.46 40.00,701.76 40.37,698.30 41.27,695.37 42.73,692.22 45.30,688.56 48.39,684.98 55.10,678.85 64.84,670.91 73.48,664.11 78.79,658.76 84.86,649.82 88.41,644.09 107.94,611.36 118.53,592.73 120.51,587.92 121.80,583.37 122.49,578.61 122.62,573.81 122.20,569.02 121.25,564.31 119.89,559.88 117.86,555.34 107.55,540.46 103.04,533.30 101.55,530.24 100.27,527.09 98.44,520.51 97.44,511.86 97.56,497.40 99.88,457.53 102.22,432.27 104.01,423.83 106.31,418.06 107.75,415.50 109.38,413.13 111.17,410.99 113.13,409.06 115.25,407.33 117.52,405.83 120.05,404.55 122.47,403.58 125.10,402.84 127.80,402.37 133.43,402.23 136.28,402.57 139.21,403.22 146.40,405.90 156.41,411.38 198.39,438.30 242.72,463.22 248.20,465.56 252.63,466.94 255.99,467.57 259.17,467.78 262.23,467.65 265.16,467.15 267.73,466.35 270.08,465.20 272.01,463.77 273.64,462.10 274.74,460.60 275.59,458.89 276.34,456.50 276.75,453.87 276.79,451.21 276.36,448.19 271.25,433.41 251.30,381.47 245.92,365.20"
        fill="none"
        stroke="#e94560"
        stroke-width="8.0"
        stroke-linejoin="round"
        stroke-linecap="round"/>
  <!-- Start/finish line -->
  <line x1="226.96" y1="371.56" x2="264.89" y2="358.85"
        stroke="#f5f5f5" stroke-width="9.6"
        stroke-linecap="round"/>
</svg>
