<?xml version="1.0" encoding="utf-8"?>
<svg xmlns="http://www.w3.org/2000/svg"
     width="647.9" height="800.0"
     viewBox="0 0 647.9 800.0">
  <rect width="100%" height="100%" fill="#1a1a2e"/>
  <!-- Track outline -->
  <polyline points="607.38,456.03 607.91,552.60 605.59,586.82 600.28,619.38 590.90,649.54 577.33,677.02 568.98,689.53 559.52,701.08 548.98,711.56 537.46,720.91 524.96,729.26 511.70,736.42 482.63,747.33 451.07,753.69 383.16,759.04 236.49,760.00 201.22,756.52 168.67,748.50 153.94,743.05 140.01,736.47 127.60,728.99 116.35,720.33 106.75,710.65 98.53,700.12 92.01,689.58 86.97,678.14 83.17,663.49 81.79,648.14 82.59,638.25 84.65,628.47 87.77,618.95 94.20,604.68 102.24,592.86 111.12,582.38 119.74,574.31 130.28,566.77 145.50,557.78 170.77,548.21 195.46,543.03 223.86,540.83 278.82,543.19 308.29,548.59 335.07,553.19 348.42,553.35 360.52,552.01 373.52,549.02 386.29,544.52 398.92,538.54 410.93,531.05 422.27,521.91 432.63,511.32 442.45,498.59 450.80,485.12 456.38,473.41 460.76,461.49 467.10,435.40 470.27,409.62 470.13,378.02 468.26,363.64 464.95,349.95 460.31,337.60 453.70,326.21 447.18,318.73 439.46,311.88 431.33,306.27 419.99,301.03 408.03,297.82 395.21,296.43 382.09,296.91 368.11,299.37 354.18,303.65 339.85,310.07 326.37,317.66 306.50,332.47 226.89,412.89 204.70,428.61 182.74,439.78 168.85,444.49 154.43,447.53 140.99,448.28 127.78,447.00 115.05,443.52 102.95,438.07 91.43,430.32 80.99,420.69 71.39,408.50 63.31,395.40 53.26,372.36 45.94,346.16 41.70,317.77 40.00,287.34 44.24,222.22 49.02,188.21 63.31,128.12 72.59,103.04 83.98,81.33 92.73,69.41 103.04,58.66 114.25,50.64 126.39,44.76 134.61,42.09 143.14,40.37 151.75,40.00 158.94,40.80 166.35,42.46 173.50,45.03 179.88,48.50 185.51,53.10 190.55,58.71 194.93,64.97 198.41,71.33 201.36,79.67 203.01,88.44 203.72,97.48 202.56,112.18 200.60,127.21 199.48,142.77 199.75,158.11 202.34,172.44 207.03,185.91 211.40,193.93 216.67,201.37 222.74,207.94 229.48,213.50 236.94,218.26 244.84,222.06 257.97,226.02 271.85,227.73 286.68,227.19 301.59,224.41 316.95,219.12 331.46,212.17 342.04,206.13 353.47,197.62 440.00,110.90 481.52,72.46 495.45,63.85 509.24,57.86 522.95,54.06 536.66,52.73 545.32,53.47 553.89,55.29 562.02,58.23 569.74,62.35 576.97,67.48 583.49,73.47 589.30,80.37 594.30,88.12 598.45,96.41 602.74,108.39 605.59,125.39 607.38,456.03"
        fill="none"
        stroke="#e94560"
        stroke-width="8.0"
        stroke-linejoin="round"
        stroke-linecap="round"/>
  <!-- Start/finish line -->
  <line x1="627.38" y1="455.93" x2="587.38" y2="456.14"
        stroke="#f5f5f5" stroke-width="9.6"
        stroke-linecap="round"/>
</svg>
