<?xml version="1.0" encoding="utf-8"?>
<svg xmlns="http://www.w3.org/2000/svg"
     width="800.0" height="640.4"
     viewBox="0 0 800.0 640.4">
  <rect width="100%" height="100%" fill="#1a1a2e"/>
  <!-- Track outline -->
  <polyline points="529.37,486.39 496.51,495.85 415.34,526.25 333.72,563.51 244.87,595.85 223.81,599.69 204.06,600.44 178.12,597.84 153.85,592.26 140.33,587.18 128.36,580.06 114.80,567.85 102.55,552.35 90.89,530.88 81.71,506.86 75.93,482.55 71.95,454.95 62.96,340.45 40.00,166.26 40.09,145.58 42.67,129.49 45.47,120.87 49.13,112.99 53.87,105.57 60.79,97.30 69.02,89.58 77.87,83.10 87.23,78.07 97.17,74.23 106.84,71.74 114.71,70.69 122.35,70.69 129.80,71.74 137.21,73.93 144.40,77.17 151.18,81.26 157.55,86.24 163.43,92.17 168.85,99.04 177.39,113.74 184.13,131.58 189.14,158.73 191.76,191.62 191.99,332.57 192.67,355.84 194.97,374.63 199.22,388.68 205.68,401.48 212.73,411.60 221.32,421.31 230.72,429.78 241.12,436.76 252.37,442.44 263.40,446.62 276.73,449.66 290.42,450.16 308.73,447.67 327.30,441.99 344.88,432.92 361.06,420.96 375.75,405.82 387.82,389.03 394.96,374.58 399.71,359.53 402.46,343.69 403.10,327.54 401.65,311.35 397.72,294.91 389.58,275.03 377.11,253.70 341.40,211.85 307.24,172.04 299.01,157.64 294.04,144.28 291.15,129.69 290.42,114.99 291.78,101.14 295.13,87.98 300.23,76.32 307.06,65.96 312.39,59.98 318.40,54.70 325.23,50.16 334.85,45.73 345.61,42.34 356.05,40.40 364.63,40.00 372.95,40.75 381.13,42.49 393.60,47.32 405.49,54.45 416.84,63.97 427.37,75.92 439.43,93.96 450.01,115.34 459.09,143.19 466.32,175.38 473.92,233.12 481.92,284.69 485.21,294.11 488.79,301.33 493.17,307.76 498.50,313.79 504.60,318.97 511.16,323.26 518.07,326.50 525.39,328.79 532.76,330.08 540.17,330.38 547.63,329.63 554.77,327.89 561.50,325.10 567.92,321.26 573.62,316.58 578.45,311.05 582.61,304.72 585.77,297.90 588.03,290.87 589.30,283.35 589.34,274.48 579.90,239.50 568.06,204.12 564.49,190.22 562.91,178.02 563.49,169.84 565.16,161.77 567.74,154.10 571.40,146.68 576.01,139.70 581.30,133.42 587.22,127.89 593.82,123.11 600.82,119.27 608.37,116.43 616.33,114.59 624.37,113.74 632.64,113.84 641.00,114.99 649.54,117.33 665.99,124.85 682.13,135.61 697.09,149.52 710.38,165.96 721.63,184.79 731.48,207.06 745.54,250.21 756.07,293.61 759.23,314.19 760.00,332.82 758.46,351.81 754.58,370.09 748.02,387.28 739.89,402.53 733.38,412.05 725.74,420.47 713.27,431.08 698.26,440.65 677.47,449.51 652.93,457.19 562.63,476.77 529.37,486.39"
        fill="none"
        stroke="#e94560"
        stroke-width="8.0"
        stroke-linejoin="round"
        stroke-linecap="round"/>
  <!-- Start/finish line -->
  <line x1="534.92" y1="505.60" x2="523.82" y2="467.17"
        stroke="#f5f5f5" stroke-width="9.6"
        stroke-linecap="round"/>
</svg>
