<?xml version="1.0" encoding="utf-8"?>
<svg xmlns="http://www.w3.org/2000/svg"
     width="386.3" height="800.0"
     viewBox="0 0 386.3 800.0">
  <rect width="100%" height="100%" fill="#1a1a2e"/>
  <!-- Track outline -->
  <polyline points="169.31,687.89 70.48,641.55 61.46,636.18 55.66,631.47 50.74,626.02 46.71,619.88 42.70,610.79 40.82,603.46 40.00,595.76 40.44,585.09 42.92,571.36 67.72,478.48 99.45,346.61 115.30,269.68 124.18,197.09 135.28,95.39 139.00,72.92 142.49,59.52 143.95,55.68 145.63,52.30 147.62,49.25 149.80,46.60 151.64,44.84 153.57,43.39 155.62,42.18 157.78,41.23 159.97,40.55 162.33,40.14 165.61,40.00 168.93,40.23 171.72,40.80 174.05,41.49 175.73,42.15 178.97,43.84 183.55,47.26 185.67,49.33 187.66,51.71 190.01,55.16 192.14,59.01 193.89,63.15 195.26,67.49 196.24,72.08 196.82,76.80 196.78,86.66 194.86,99.45 178.82,185.88 161.82,296.05 144.20,406.56 129.95,497.32 129.31,516.93 131.66,536.18 137.19,554.67 145.78,571.99 157.01,587.79 178.74,610.51 218.37,650.70 225.68,656.77 232.03,661.12 236.79,663.69 241.32,665.51 245.03,666.52 248.67,667.03 252.31,667.04 255.94,666.57 259.58,665.58 263.12,664.12 266.62,662.19 269.90,659.83 272.90,657.10 275.70,653.80 279.20,648.28 282.23,642.14 284.27,636.55 285.68,630.79 286.45,624.52 286.60,618.29 285.44,607.84 284.16,602.63 281.94,596.57 278.89,590.03 275.19,584.16 270.85,578.73 265.96,573.79 260.25,569.27 242.04,559.57 231.24,554.12 223.59,548.95 214.17,540.60 207.86,533.43 202.34,525.51 197.73,516.92 194.11,507.75 191.54,498.12 190.02,488.17 189.61,474.56 191.14,457.24 203.18,364.42 205.44,350.51 208.60,340.76 212.09,334.04 216.57,327.84 223.84,320.40 232.41,314.08 239.68,310.29 250.28,306.59 264.59,303.77 293.42,300.05 305.27,299.87 309.76,300.41 313.85,301.30 316.89,302.27 319.70,303.50 322.37,304.99 324.88,306.72 327.17,308.67 329.26,310.83 331.13,313.18 332.76,315.70 334.14,318.36 335.24,321.15 336.06,324.11 336.60,326.99 336.88,331.01 336.39,337.18 335.45,341.30 334.07,345.51 332.25,349.56 329.95,353.59 322.76,363.28 309.94,379.97 306.28,386.20 303.37,392.48 300.95,399.39 299.21,406.58 298.22,414.07 297.99,421.68 298.56,429.40 299.88,437.06 304.65,452.12 319.91,484.78 324.56,497.52 328.04,510.87 330.95,528.23 333.37,553.43 343.98,699.75 346.29,734.06 346.23,738.10 345.84,741.38 345.07,744.62 343.98,747.58 342.87,749.69 341.56,751.58 340.03,753.35 338.30,754.94 336.40,756.35 334.34,757.54 332.18,758.51 329.82,759.24 326.45,759.80 322.97,760.00 317.44,759.46 313.65,758.58 305.90,755.66 240.72,722.40 169.31,687.89"
        fill="none"
        stroke="#e94560"
        stroke-width="8.0"
        stroke-linejoin="round"
        stroke-linecap="round"/>
  <!-- Start/finish line -->
  <line x1="160.74" y1="705.95" x2="177.89" y2="669.82"
        stroke="#f5f5f5" stroke-width="9.6"
        stroke-linecap="round"/>
</svg>
