<?xml version="1.0" encoding="utf-8"?>
<svg xmlns="http://www.w3.org/2000/svg"
     width="800.0" height="611.3"
     viewBox="0 0 800.0 611.3">
  <rect width="100%" height="100%" fill="#1a1a2e"/>
  <!-- Track outline -->
  <polyline points="309.41,523.12 247.71,558.85 230.90,565.57 210.11,570.42 199.52,571.34 189.09,571.18 170.91,568.01 151.83,561.87 142.21,557.17 132.93,551.45 123.62,544.88 114.90,536.52 94.33,505.79 59.23,443.95 50.21,425.28 43.99,407.08 40.45,389.10 40.00,377.80 40.86,366.31 43.24,355.54 46.97,345.23 51.92,335.50 57.96,326.42 65.08,318.13 73.02,310.50 90.38,296.98 346.12,143.76 362.44,136.31 386.66,129.02 398.25,127.07 409.69,126.27 420.57,126.81 431.19,128.49 441.03,131.27 450.53,134.90 468.19,143.76 483.73,154.52 497.26,166.81 513.21,183.38 526.36,200.79 531.39,209.83 535.04,219.26 536.42,225.75 537.05,232.43 536.83,238.92 535.68,245.11 533.70,251.10 530.98,256.63 527.48,261.52 523.19,265.95 518.50,269.65 510.52,273.74 501.88,276.48 493.49,278.05 483.28,278.66 404.47,273.47 364.75,276.14 354.50,277.71 343.06,280.84 222.59,334.43 193.71,350.24 172.28,364.82 164.68,372.30 159.39,379.93 155.48,388.41 153.02,397.30 151.94,406.16 152.39,415.05 153.65,420.97 155.63,426.81 158.31,432.31 161.78,437.58 165.91,442.46 170.61,446.78 176.01,450.52 182.01,453.65 188.31,455.94 198.78,457.69 209.32,457.73 218.04,456.47 226.50,454.14 244.43,446.51 343.77,390.28 369.82,378.03 387.44,372.34 405.22,368.83 422.66,367.15 448.11,368.41 472.03,373.60 482.65,377.45 493.64,382.72 531.17,406.73 550.25,416.24 568.02,422.80 574.54,424.02 580.47,424.37 586.50,423.95 593.84,422.65 601.30,420.44 608.19,417.31 614.08,413.26 619.44,408.37 624.10,402.91 629.65,393.56 633.94,383.33 637.52,372.22 640.05,361.00 641.88,342.14 638.82,298.20 633.49,274.08 613.48,222.74 573.09,158.60 561.61,136.85 557.51,126.31 554.53,115.74 552.93,105.66 552.52,95.66 553.19,86.27 555.24,77.03 557.92,70.04 561.46,63.09 565.75,57.03 570.59,52.29 576.07,48.36 581.81,45.15 587.40,42.75 593.21,41.07 599.21,40.11 605.95,40.00 612.88,40.80 619.52,42.29 628.20,45.76 636.32,50.54 644.52,56.76 651.82,63.97 656.63,70.42 661.66,79.70 749.08,290.72 755.49,311.37 759.37,334.13 760.00,346.19 759.55,358.29 757.88,369.93 755.19,381.31 751.62,392.19 747.11,402.65 741.63,412.53 735.29,421.89 720.50,438.68 703.62,453.46 685.10,465.71 665.13,475.14 644.30,481.90 623.36,485.64 602.67,486.17 582.85,483.73 563.81,479.38 494.61,454.83 470.99,449.37 450.42,446.70 439.24,446.97 429.14,448.53 419.19,450.94 409.61,454.26 392.29,463.19 313.40,520.79 309.41,523.12"
        fill="none"
        stroke="#e94560"
        stroke-width="8.0"
        stroke-linejoin="round"
        stroke-linecap="round"/>
  <!-- Start/finish line -->
  <line x1="319.44" y1="540.43" x2="299.39" y2="505.82"
        stroke="#f5f5f5" stroke-width="9.6"
        stroke-linecap="round"/>
</svg>
