<?xml version="1.0" encoding="utf-8"?>
<svg xmlns="http://www.w3.org/2000/svg"
     width="800.0" height="606.3"
     viewBox="0 0 800.0 606.3">
  <rect width="100%" height="100%" fill="#1a1a2e"/>
  <!-- Track outline -->
  <polyline points="262.10,210.03 276.63,201.86 287.36,196.77 298.39,192.43 309.78,189.55 316.20,187.20 322.42,185.20 326.83,184.75 331.10,184.84 340.17,186.18 359.71,191.00 370.66,192.18 379.22,191.67 387.85,189.93 432.27,171.55 442.16,168.67 452.49,166.71 463.09,166.06 473.81,166.79 495.48,170.10 506.57,170.07 517.67,168.82 528.56,166.08 559.31,156.11 568.61,154.17 597.52,150.18 599.76,149.48 601.58,148.57 604.72,146.65 607.80,144.02 609.88,141.41 611.75,138.37 613.16,135.21 613.97,132.11 614.36,128.91 614.33,125.81 613.92,123.05 613.16,120.37 612.03,117.79 609.10,113.53 605.82,110.00 604.11,108.62 602.20,107.54 598.26,105.78 593.75,104.40 589.42,103.95 584.44,103.93 559.36,105.00 556.71,104.58 554.56,103.96 552.27,103.26 549.87,102.17 545.21,99.32 540.76,95.59 538.89,93.18 537.40,90.55 536.22,87.83 535.34,84.95 534.76,81.98 534.56,78.99 535.14,74.24 536.24,70.14 536.84,68.67 537.55,67.39 540.18,63.51 541.64,61.77 543.42,60.03 547.13,57.18 551.45,54.39 560.81,49.70 571.10,45.84 588.15,41.56 597.26,40.36 606.70,40.00 616.39,40.74 626.10,42.57 635.74,45.51 645.23,49.30 654.57,53.83 672.75,64.98 698.56,85.64 723.99,108.53 732.09,116.80 739.49,125.79 746.09,135.47 751.63,145.82 755.96,156.73 758.94,168.09 760.00,179.78 759.38,191.44 757.32,202.87 754.16,214.09 750.10,225.10 739.86,246.23 715.85,285.65 712.34,290.09 709.06,293.45 705.39,296.66 701.47,299.45 697.41,301.80 693.16,303.71 688.71,305.07 684.15,305.94 679.55,306.33 674.90,306.32 665.73,305.10 646.82,301.40 639.37,301.17 632.26,301.88 625.32,303.63 618.46,306.50 610.53,311.05 602.25,317.74 587.53,334.88 570.53,358.61 490.59,484.29 456.42,532.38 442.42,549.02 435.12,555.78 429.24,559.73 423.10,563.04 418.82,564.68 414.62,565.73 410.37,566.27 406.12,566.34 402.02,565.94 397.93,565.07 393.30,563.46 389.07,561.52 386.66,560.20 384.41,558.59 380.52,555.16 376.71,550.94 373.27,545.77 370.51,540.08 368.61,533.84 367.53,527.68 367.34,523.26 367.62,519.02 369.24,510.34 372.03,501.80 375.70,493.37 385.29,476.97 391.24,469.17 418.77,439.03 422.85,432.56 425.51,426.43 427.39,419.69 428.20,412.82 427.86,406.12 426.49,399.61 424.01,393.46 421.08,388.26 419.39,386.03 417.64,384.20 413.55,380.52 409.05,377.68 404.07,375.08 396.09,372.31 375.74,367.25 356.59,363.50 354.31,363.47 352.35,363.70 343.21,365.17 334.44,368.16 326.10,372.60 309.92,383.46 301.00,387.59 296.26,389.02 291.40,389.98 286.48,390.45 281.52,390.45 271.67,388.99 242.03,381.32 231.62,380.41 221.13,381.08 210.84,383.39 200.85,387.21 196.16,389.58 191.50,392.52 184.95,397.85 179.32,403.23 175.93,407.49 170.32,416.77 166.27,426.85 163.59,437.45 159.66,459.31 156.50,470.01 151.73,479.79 145.54,488.64 141.90,492.57 137.95,496.11 133.78,499.17 129.37,501.74 124.76,503.74 119.98,505.15 115.19,505.95 110.37,506.20 105.59,505.97 100.86,505.24 96.20,504.08 91.65,502.49 87.25,500.44 83.05,498.01 75.28,492.12 68.54,484.91 62.54,476.88 57.21,468.23 52.66,458.99 48.98,449.16 43.55,428.46 41.45,417.73 40.14,406.77 40.00,395.64 41.11,384.49 43.79,373.53 48.00,363.01 53.31,352.97 59.79,343.53 67.18,334.77 75.32,326.56 84.02,318.86 112.51,298.07 235.11,225.21 262.10,210.03"
        fill="none"
        stroke="#e94560"
        stroke-width="8.0"
        stroke-linejoin="round"
        stroke-linecap="round"/>
  <!-- Start/finish line -->
  <line x1="252.30" y1="192.60" x2="271.91" y2="227.47"
        stroke="#f5f5f5" stroke-width="9.6"
        stroke-linecap="round"/>
</svg>
