<?xml version="1.0" encoding="utf-8"?>
<svg xmlns="http://www.w3.org/2000/svg"
     width="800.0" height="475.3"
     viewBox="0 0 800.0 475.3">
  <rect width="100%" height="100%" fill="#1a1a2e"/>
  <!-- Track outline -->
  <polyline points="473.05,373.84 613.99,339.43 674.43,317.92 694.94,307.06 716.41,292.99 722.55,287.46 728.25,280.99 737.35,269.20 746.02,254.72 753.87,235.28 759.06,214.22 760.00,194.50 758.16,174.81 753.93,155.09 747.46,136.34 739.07,119.42 728.62,103.89 713.91,87.50 697.38,73.06 680.47,61.15 662.77,51.83 644.68,45.65 625.41,41.91 602.66,40.00 573.03,41.06 405.81,61.59 226.15,95.43 166.26,115.44 121.92,136.46 103.94,147.73 88.99,160.74 70.54,182.66 56.16,203.73 52.96,209.54 50.57,215.93 44.35,238.78 40.00,266.44 40.36,293.93 44.29,321.05 51.24,345.90 61.39,368.51 76.37,388.52 92.32,404.58 101.89,412.59 111.19,418.73 120.41,423.74 130.62,427.80 147.68,432.60 168.67,435.33 213.68,433.05 268.71,424.75 465.05,375.79 473.05,373.84"
        fill="none"
        stroke="#e94560"
        stroke-width="8.0"
        stroke-linejoin="round"
        stroke-linecap="round"/>
  <!-- Start/finish line -->
  <line x1="468.31" y1="354.41" x2="477.79" y2="393.27"
        stroke="#f5f5f5" stroke-width="9.6"
        stroke-linecap="round"/>
</svg>
