<?xml version="1.0" encoding="utf-8"?>
<svg xmlns="http://www.w3.org/2000/svg"
     width="733.7" height="800.0"
     viewBox="0 0 733.7 800.0">
  <rect width="100%" height="100%" fill="#1a1a2e"/>
  <!-- Track outline -->
  <polyline points="393.86,593.17 541.57,582.82 558.93,580.40 564.63,578.57 569.86,576.15 574.97,573.01 579.74,569.21 584.02,564.80 587.78,559.80 590.92,554.27 593.45,548.28 595.30,541.93 596.53,535.13 597.26,527.00 597.23,517.95 593.07,487.64 582.60,443.41 575.39,425.55 569.31,415.54 564.05,407.01 562.91,404.32 562.24,401.91 561.82,399.25 561.72,396.53 561.93,393.84 562.48,391.11 563.63,387.67 565.19,384.24 567.18,380.93 569.51,377.82 572.23,374.84 575.29,372.02 583.60,366.03 587.06,364.11 590.51,362.61 593.97,361.49 597.49,360.80 601.08,360.61 604.67,360.89 608.30,361.69 611.70,362.90 614.19,364.13 616.45,365.62 618.53,367.31 620.48,369.34 622.62,372.21 624.57,375.61 626.47,380.10 628.04,385.17 630.32,398.62 635.63,426.42 669.43,513.01 690.93,565.56 692.52,570.68 693.36,574.85 693.68,578.85 693.57,582.66 693.17,585.73 692.47,588.64 691.50,591.51 690.20,594.37 685.56,601.46 676.84,613.23 674.96,617.02 673.65,620.80 672.76,624.80 672.38,628.88 672.52,632.81 673.26,636.88 678.15,648.61 683.16,658.80 684.25,662.08 684.99,665.39 685.57,669.86 685.77,674.55 685.50,679.22 684.82,683.88 682.20,693.41 676.88,705.39 670.02,716.82 663.28,725.04 657.25,730.34 650.41,734.68 642.92,737.94 632.12,740.70 620.64,741.95 605.65,741.78 392.52,728.36 352.67,729.26 312.51,735.93 230.79,754.23 206.33,758.60 190.13,760.00 178.03,759.71 166.05,758.12 154.39,755.22 143.26,751.01 132.87,745.57 123.31,738.98 114.64,731.26 106.96,722.51 100.37,712.85 95.02,702.44 90.97,691.42 88.19,679.97 86.63,668.21 86.28,656.29 87.62,640.32 92.78,604.05 92.59,583.63 88.44,559.39 78.58,532.21 52.76,480.55 44.48,461.74 41.69,452.93 40.18,444.11 40.00,435.41 41.51,424.30 44.49,413.86 48.93,404.06 55.06,394.87 70.96,373.72 85.53,345.69 97.65,314.29 103.53,286.74 107.12,201.21 110.95,73.59 112.16,62.30 113.06,58.65 114.20,55.46 115.44,53.02 116.89,50.85 118.57,48.79 120.55,46.92 123.46,44.77 126.72,42.92 130.26,41.49 133.95,40.52 137.76,40.02 141.60,40.00 145.41,40.48 149.18,41.44 152.84,42.87 156.39,44.74 159.76,47.01 163.06,49.74 170.64,57.92 187.06,80.09 193.96,91.96 198.36,102.57 201.44,114.08 203.53,129.40 203.94,145.44 202.33,165.26 199.48,199.66 199.10,221.23 197.71,232.05 193.24,249.94 185.24,283.01 180.34,301.62 166.38,342.71 163.17,362.56 163.20,391.11 172.99,461.58 190.21,572.68 191.77,577.97 193.46,581.73 195.79,585.75 198.54,589.42 201.75,592.76 205.31,595.64 209.24,598.08 213.56,600.06 219.18,601.85 225.58,603.10 247.44,603.97 326.44,597.64 393.86,593.17 393.86,593.17"
        fill="none"
        stroke="#e94560"
        stroke-width="8.0"
        stroke-linejoin="round"
        stroke-linecap="round"/>
  <!-- Start/finish line -->
  <line x1="392.46" y1="573.22" x2="395.26" y2="613.13"
        stroke="#f5f5f5" stroke-width="9.6"
        stroke-linecap="round"/>
</svg>
