<?xml version="1.0" encoding="utf-8"?>
<svg xmlns="http://www.w3.org/2000/svg"
     width="800.0" height="550.5"
     viewBox="0 0 800.0 550.5">
  <rect width="100%" height="100%" fill="#1a1a2e"/>
  <!-- Track outline -->
  <polyline points="209.36,86.19 97.09,92.40 81.34,93.69 65.76,98.53 53.88,105.65 43.33,118.20 40.00,136.00 42.21,215.20 45.91,240.09 54.02,251.93 65.73,257.35 79.00,259.30 91.69,259.97 104.28,259.97 136.39,257.72 201.86,252.18 298.01,239.71 331.07,238.59 351.87,242.13 367.38,246.84 381.40,253.30 393.82,261.22 405.06,270.73 414.80,281.73 422.81,293.49 427.36,302.37 430.72,311.99 434.04,326.33 435.74,342.92 430.48,396.99 427.36,448.10 429.73,461.94 433.94,473.94 437.67,481.28 442.12,488.07 447.14,493.95 452.61,498.83 458.65,502.83 465.20,506.00 473.79,508.62 483.02,510.16 491.13,510.46 495.51,509.91 499.38,508.83 503.01,507.12 506.47,504.95 509.69,502.20 512.68,498.66 516.28,492.95 519.47,485.90 522.12,477.19 525.61,443.59 526.32,403.83 523.44,323.29 525.88,300.32 530.26,280.23 535.86,264.31 542.99,249.84 551.88,236.00 562.20,223.37 573.74,212.16 587.28,201.78 638.29,174.23 725.58,132.62 739.98,122.08 750.29,111.32 754.26,105.36 757.28,99.11 759.25,92.48 760.00,84.52 759.63,76.06 758.51,68.60 756.20,61.59 753.48,56.01 752.06,53.51 750.40,51.30 746.70,47.63 742.05,44.34 738.18,42.50 733.93,41.13 728.88,40.29 718.08,40.00 705.15,41.17 399.08,69.72 212.24,86.02 209.36,86.19"
        fill="none"
        stroke="#e94560"
        stroke-width="8.0"
        stroke-linejoin="round"
        stroke-linecap="round"/>
  <!-- Start/finish line -->
  <line x1="210.47" y1="106.16" x2="208.25" y2="66.22"
        stroke="#f5f5f5" stroke-width="9.6"
        stroke-linecap="round"/>
</svg>
