<?xml version="1.0" encoding="utf-8"?>
<svg xmlns="http://www.w3.org/2000/svg"
     width="800.0" height="756.2"
     viewBox="0 0 800.0 756.2">
  <rect width="100%" height="100%" fill="#1a1a2e"/>
  <!-- Track outline -->
  <polyline points="506.32,214.23 366.05,95.58 328.30,69.20 308.96,59.13 289.38,51.14 270.44,45.36 251.69,41.60 234.44,40.00 217.28,40.09 199.21,41.73 181.43,44.97 165.75,49.24 150.43,55.03 134.32,63.06 118.79,72.78 93.13,94.76 76.49,113.94 58.75,144.04 48.38,169.27 42.30,193.11 40.00,221.35 40.71,246.66 45.74,277.63 54.24,306.91 65.44,335.55 75.17,351.74 86.68,367.03 133.15,423.52 174.47,463.30 386.40,639.69 427.19,669.19 469.46,692.33 509.30,708.14 548.13,714.92 564.24,716.22 579.86,716.05 594.75,713.93 609.85,710.26 628.51,704.64 647.02,697.26 662.46,688.75 676.91,679.03 701.96,658.26 725.35,632.34 734.59,618.87 742.54,604.62 748.61,590.58 753.43,576.11 758.99,547.56 760.00,518.76 757.85,487.96 754.87,475.01 750.70,462.48 737.69,434.93 720.59,409.27 676.88,360.42 506.32,214.23"
        fill="none"
        stroke="#e94560"
        stroke-width="8.0"
        stroke-linejoin="round"
        stroke-linecap="round"/>
  <!-- Start/finish line -->
  <line x1="493.35" y1="229.45" x2="519.29" y2="199.00"
        stroke="#f5f5f5" stroke-width="9.6"
        stroke-linecap="round"/>
</svg>
