<?xml version="1.0" encoding="utf-8"?>
<svg xmlns="http://www.w3.org/2000/svg"
     width="441.1" height="800.0"
     viewBox="0 0 441.1 800.0">
  <rect width="100%" height="100%" fill="#1a1a2e"/>
  <!-- Track outline -->
  <polyline points="204.22,490.70 212.91,547.74 214.70,553.27 216.69,557.37 219.09,561.26 221.90,564.70 225.19,567.80 229.08,570.50 235.62,573.59 243.12,576.04 251.40,577.85 261.91,578.83 354.89,573.27 367.38,574.43 375.18,577.15 382.47,581.74 389.47,587.38 394.79,591.92 398.64,597.35 400.63,603.39 401.10,610.35 400.27,617.83 396.28,627.09 388.43,642.23 376.12,661.88 362.63,679.22 349.46,694.17 334.64,709.04 321.71,720.94 312.26,729.31 304.43,735.00 297.19,740.12 287.48,744.33 264.51,750.77 236.33,756.93 216.63,759.68 200.01,760.00 184.05,758.12 170.82,754.69 158.06,749.45 145.87,742.42 134.43,733.75 124.07,723.61 115.02,712.15 108.64,701.59 103.72,690.15 100.45,678.16 98.51,663.26 98.16,645.10 100.71,612.81 103.81,562.15 103.20,554.05 101.66,546.62 90.95,518.74 47.93,427.75 42.02,412.65 40.83,407.74 40.18,403.01 40.00,398.15 40.28,393.30 40.99,388.58 42.15,383.87 46.22,373.03 53.21,361.01 73.84,328.74 96.95,280.89 108.00,251.42 112.42,225.64 113.52,185.94 114.98,134.50 116.59,93.70 118.86,81.84 120.40,77.15 122.34,72.71 125.11,67.72 128.34,62.97 131.85,58.73 135.70,54.86 140.12,51.14 144.80,47.88 149.48,45.23 154.28,43.11 159.14,41.55 164.06,40.53 169.04,40.01 174.04,40.00 179.02,40.51 183.94,41.55 188.78,43.14 193.50,45.24 198.02,47.85 202.35,50.92 210.27,58.31 217.07,67.07 221.75,75.55 223.21,79.41 224.27,83.34 224.94,87.39 225.21,91.62 224.46,102.02 221.29,126.55 221.18,151.65 219.62,162.61 207.98,206.75 203.16,233.77 198.45,248.41 185.59,284.24 183.12,295.45 181.79,306.47 182.15,334.81 192.08,409.64 203.20,483.99 204.22,490.70"
        fill="none"
        stroke="#e94560"
        stroke-width="8.0"
        stroke-linejoin="round"
        stroke-linecap="round"/>
  <!-- Start/finish line -->
  <line x1="223.99" y1="487.68" x2="184.44" y2="493.71"
        stroke="#f5f5f5" stroke-width="9.6"
        stroke-linecap="round"/>
</svg>
