<?xml version="1.0" encoding="utf-8"?>
<svg xmlns="http://www.w3.org/2000/svg"
     width="589.1" height="800.0"
     viewBox="0 0 589.1 800.0">
  <rect width="100%" height="100%" fill="#1a1a2e"/>
  <!-- Track outline -->
  <polyline points="66.23,342.84 53.97,496.20 44.78,586.35 40.00,664.56 43.64,685.74 50.08,704.11 55.79,715.34 62.59,725.74 70.28,734.74 78.65,742.20 87.89,748.33 97.92,753.17 111.06,757.19 125.19,759.55 137.60,760.00 144.30,759.17 150.22,757.51 155.78,754.90 161.08,751.58 166.01,747.37 170.58,741.95 176.09,733.21 180.97,722.42 185.02,709.09 190.37,657.67 191.46,596.81 187.05,473.56 190.79,438.41 197.49,407.66 206.06,383.29 216.97,361.15 230.58,339.97 246.37,320.64 264.03,303.48 284.75,287.59 362.82,245.42 496.42,181.75 518.44,165.61 534.23,149.15 540.31,140.03 544.93,130.46 547.95,120.32 549.09,108.13 548.52,95.18 546.80,83.76 543.27,73.05 539.12,64.50 536.93,60.67 534.39,57.29 528.73,51.67 521.61,46.63 515.69,43.83 509.20,41.72 501.46,40.45 484.94,40.00 465.15,41.79 442.35,48.36 388.01,63.54 325.94,90.59 157.23,215.57 111.84,257.48 87.01,295.18 76.26,319.36 66.23,342.84"
        fill="none"
        stroke="#e94560"
        stroke-width="8.0"
        stroke-linejoin="round"
        stroke-linecap="round"/>
  <!-- Start/finish line -->
  <line x1="86.07" y1="345.34" x2="46.39" y2="340.34"
        stroke="#f5f5f5" stroke-width="9.6"
        stroke-linecap="round"/>
</svg>
