<?xml version="1.0" encoding="utf-8"?>
<svg xmlns="http://www.w3.org/2000/svg"
     width="800.0" height="346.2"
     viewBox="0 0 800.0 346.2">
  <rect width="100%" height="100%" fill="#1a1a2e"/>
  <!-- Track outline -->
  <polyline points="258.59,77.22 71.80,92.89 60.23,94.99 51.92,98.72 45.85,107.25 41.28,119.36 40.00,137.56 47.65,263.86 49.19,281.69 52.89,290.06 59.26,296.49 66.21,302.05 76.59,305.56 97.22,306.16 387.86,286.44 444.03,283.36 475.08,281.15 506.75,275.58 536.43,265.10 572.90,238.58 616.66,200.33 727.89,97.91 739.99,85.97 750.46,74.46 760.00,61.66 759.43,50.70 754.37,41.89 741.57,40.00 644.37,46.00 548.49,53.02 258.59,77.22"
        fill="none"
        stroke="#e94560"
        stroke-width="8.0"
        stroke-linejoin="round"
        stroke-linecap="round"/>
  <!-- Start/finish line -->
  <line x1="260.26" y1="97.15" x2="256.93" y2="57.29"
        stroke="#f5f5f5" stroke-width="9.6"
        stroke-linecap="round"/>
</svg>
