<?xml version="1.0" encoding="utf-8"?>
<svg xmlns="http://www.w3.org/2000/svg"
     width="800.0" height="605.3"
     viewBox="0 0 800.0 605.3">
  <rect width="100%" height="100%" fill="#1a1a2e"/>
  <!-- Track outline -->
  <polyline points="574.75,266.39 576.44,266.28 745.42,254.10 752.46,254.03 757.20,254.76 760.00,258.62 759.86,263.19 756.05,267.00 752.10,269.36 666.45,307.86 661.29,312.39 657.90,317.59 656.25,322.70 655.23,328.75 655.38,338.79 658.58,365.98 661.98,382.56 665.93,394.70 666.42,400.07 664.86,403.44 661.37,406.34 657.40,407.91 652.40,408.17 641.56,407.64 623.06,407.23 583.43,408.93 568.78,410.40 552.85,412.91 533.41,415.98 513.16,417.09 493.10,416.47 481.41,417.50 472.45,419.35 466.23,422.03 452.40,436.28 418.55,470.82 389.23,501.60 370.43,517.46 349.39,531.36 326.27,542.80 301.61,551.90 270.25,559.89 243.27,563.85 216.21,565.32 189.40,563.80 168.54,560.05 148.60,553.85 129.70,545.26 112.19,534.37 96.13,521.44 81.65,506.39 69.01,489.50 58.36,471.10 50.11,451.53 44.30,431.20 40.89,409.91 40.00,382.43 41.68,354.00 47.29,279.53 52.08,199.57 53.00,194.09 54.93,191.02 59.41,189.52 129.83,182.95 133.93,181.66 137.20,179.02 138.69,176.23 139.39,173.06 139.48,169.33 105.78,73.21 104.96,68.70 104.86,64.79 105.75,60.62 108.21,56.62 111.69,53.98 117.74,51.64 182.80,40.55 186.11,40.09 189.63,40.00 192.77,40.93 195.51,43.45 197.47,46.77 198.32,51.88 226.37,238.85 228.25,246.89 231.45,257.78 235.29,267.92 238.37,273.32 241.67,277.67 246.29,281.10 252.27,283.33 258.42,284.56 265.91,285.19 574.75,266.39"
        fill="none"
        stroke="#e94560"
        stroke-width="8.0"
        stroke-linejoin="round"
        stroke-linecap="round"/>
  <!-- Start/finish line -->
  <line x1="573.53" y1="246.43" x2="575.97" y2="286.35"
        stroke="#f5f5f5" stroke-width="9.6"
        stroke-linecap="round"/>
</svg>
