<?xml version="1.0" encoding="utf-8"?>
<svg xmlns="http://www.w3.org/2000/svg"
     width="350.0" height="800.0"
     viewBox="0 0 350.0 800.0">
  <rect width="100%" height="100%" fill="#1a1a2e"/>
  <!-- Track outline -->
  <polyline points="127.22,462.49 131.88,492.39 142.50,567.65 144.85,575.76 147.43,581.75 149.99,586.12 152.81,589.75 155.42,592.40 158.40,594.68 163.35,597.56 168.92,599.98 174.92,601.78 181.29,602.92 197.29,603.21 266.49,596.53 278.07,597.16 285.85,599.93 293.32,603.85 299.84,608.34 305.43,614.30 308.50,618.97 310.01,625.13 309.60,632.52 307.37,638.56 283.88,676.05 275.76,686.22 256.42,705.97 239.65,723.57 228.90,732.64 216.87,740.58 203.66,747.12 189.56,752.32 171.63,756.89 156.21,759.16 140.74,760.00 125.41,759.13 113.49,756.98 102.09,753.44 91.28,748.53 81.27,742.30 72.09,734.91 63.81,726.31 56.59,716.65 50.49,706.13 45.78,694.94 42.46,683.32 40.51,671.15 40.00,655.44 41.38,639.44 44.09,601.50 52.64,351.59 54.67,308.91 56.08,281.22 58.84,232.69 60.58,134.96 62.65,69.05 63.90,59.41 64.96,55.88 66.39,52.70 68.28,49.78 70.53,47.21 73.23,44.90 76.20,43.01 79.55,41.54 82.96,40.55 85.92,40.09 88.86,40.00 91.89,40.23 95.02,40.84 98.86,42.07 102.75,43.77 106.54,45.90 110.32,48.50 119.14,56.26 128.97,67.76 138.37,81.49 145.51,94.53 150.17,105.94 154.28,120.56 156.09,133.63 156.30,147.39 154.23,167.36 151.52,200.81 151.05,222.44 149.41,234.72 145.47,249.93 137.13,280.79 133.08,299.77 127.86,315.32 118.86,340.66 115.41,360.80 115.21,385.06 124.04,442.02 127.22,462.49"
        fill="none"
        stroke="#e94560"
        stroke-width="8.0"
        stroke-linejoin="round"
        stroke-linecap="round"/>
  <!-- Start/finish line -->
  <line x1="146.99" y1="459.42" x2="107.46" y2="465.57"
        stroke="#f5f5f5" stroke-width="9.6"
        stroke-linecap="round"/>
</svg>
