<?xml version="1.0" encoding="utf-8"?>
<svg xmlns="http://www.w3.org/2000/svg"
     width="593.2" height="800.0"
     viewBox="0 0 593.2 800.0">
  <rect width="100%" height="100%" fill="#1a1a2e"/>
  <!-- Track outline -->
  <polyline points="494.84,285.45 549.75,418.97 552.12,427.28 553.06,433.52 553.23,439.35 552.61,445.13 550.86,452.17 548.21,459.10 544.84,465.27 540.40,471.79 528.25,486.72 516.53,501.80 512.91,508.37 510.51,514.65 508.82,521.57 508.05,528.70 508.24,535.68 509.52,542.94 513.41,553.60 518.69,564.69 531.73,587.58 534.44,594.36 536.27,600.92 537.37,607.68 537.72,614.85 537.12,624.64 535.54,635.07 528.83,659.52 515.69,690.52 503.07,713.54 497.23,721.45 491.13,728.26 485.27,733.64 479.09,738.28 472.37,742.44 465.14,746.05 446.32,752.58 418.23,758.04 387.00,760.00 258.50,753.29 237.36,750.25 226.89,746.78 212.70,740.25 194.56,726.94 122.33,667.80 93.62,644.75 82.61,635.75 72.71,626.65 64.54,617.90 58.64,609.50 53.19,599.92 49.69,587.35 41.28,537.00 40.00,524.19 41.28,514.50 44.57,507.98 48.08,503.71 54.32,498.58 61.23,494.52 74.10,488.21 160.44,451.44 168.56,448.41 177.78,445.29 191.06,442.91 277.49,436.32 287.02,433.74 294.67,430.37 302.95,425.58 310.81,419.66 318.19,412.60 324.99,404.33 331.79,393.73 337.66,381.70 342.62,367.20 346.14,351.47 348.08,334.23 348.32,314.65 339.60,232.93 328.02,173.51 321.87,154.92 314.28,138.19 291.75,105.52 284.95,93.96 282.75,87.71 281.42,81.43 281.14,76.29 281.60,71.36 282.69,66.68 284.44,62.18 287.32,57.28 290.87,52.85 294.84,49.26 299.31,46.29 304.98,43.57 311.09,41.57 317.60,40.38 324.30,40.00 331.37,40.47 338.53,41.77 345.96,43.84 353.50,46.81 362.36,51.39 371.23,57.05 388.67,71.58 405.12,90.29 420.27,112.86 435.70,143.22 469.98,225.03 494.84,285.45"
        fill="none"
        stroke="#e94560"
        stroke-width="8.0"
        stroke-linejoin="round"
        stroke-linecap="round"/>
  <!-- Start/finish line -->
  <line x1="513.33" y1="277.84" x2="476.34" y2="293.05"
        stroke="#f5f5f5" stroke-width="9.6"
        stroke-linecap="round"/>
</svg>
