<?xml version="1.0" encoding="utf-8"?>
<svg xmlns="http://www.w3.org/2000/svg"
     width="686.7" height="800.0"
     viewBox="0 0 686.7 800.0">
  <rect width="100%" height="100%" fill="#1a1a2e"/>
  <!-- Track outline -->
  <polyline points="345.86,590.77 349.72,590.49 486.40,581.62 508.55,578.95 514.00,577.64 518.80,575.90 523.25,573.60 527.49,570.67 532.01,566.70 536.19,562.04 539.72,556.88 542.72,551.11 545.43,544.02 547.37,536.40 548.34,528.92 548.32,520.05 538.71,461.44 532.42,437.39 523.58,420.38 515.48,407.70 514.14,404.41 513.41,401.39 513.23,398.96 513.43,396.64 513.98,394.40 514.85,392.30 516.02,390.33 517.47,388.56 519.28,386.94 521.37,385.55 524.34,384.10 527.60,383.01 531.09,382.35 534.71,382.10 538.64,382.27 542.65,382.87 546.84,383.92 551.01,385.43 555.18,387.46 559.26,389.93 567.14,396.31 574.48,404.39 580.90,414.08 589.40,431.19 624.60,516.21 642.69,561.82 645.97,573.24 646.57,577.77 646.70,582.04 646.47,585.51 645.92,588.82 645.04,592.04 643.79,595.21 639.42,602.38 631.37,613.52 629.22,618.32 627.78,623.11 627.08,627.30 626.92,631.44 627.25,635.40 628.21,639.60 635.51,655.50 638.73,664.05 639.68,668.55 640.19,673.16 640.22,677.87 639.79,682.60 638.80,687.46 637.32,692.38 632.13,704.23 625.22,715.76 618.00,724.43 611.21,730.31 603.55,735.04 595.21,738.41 583.90,740.88 571.91,741.74 503.75,737.97 493.07,736.23 482.64,733.07 472.59,728.40 463.26,722.40 452.48,713.28 430.81,693.17 412.85,681.46 395.62,673.99 377.20,669.49 358.42,667.93 323.89,670.30 302.35,672.81 295.72,674.72 289.55,677.36 282.73,681.16 275.76,686.22 256.42,705.97 239.65,723.57 228.90,732.64 216.87,740.58 203.66,747.12 189.56,752.32 171.63,756.89 156.21,759.16 140.74,760.00 125.41,759.13 113.49,756.98 102.09,753.44 91.28,748.53 81.27,742.30 72.09,734.91 63.81,726.31 56.59,716.65 50.49,706.13 45.78,694.94 42.46,683.32 40.51,671.15 40.00,655.44 41.38,639.44 44.09,601.50 52.64,351.59 54.67,308.91 56.08,281.22 58.84,232.69 60.58,134.96 62.65,69.05 63.90,59.41 64.96,55.88 66.39,52.70 68.28,49.78 70.53,47.21 73.23,44.90 76.20,43.01 79.55,41.54 82.96,40.55 85.92,40.09 88.86,40.00 91.89,40.23 95.02,40.84 98.86,42.07 102.75,43.77 106.54,45.90 110.32,48.50 119.14,56.26 128.97,67.76 138.37,81.49 145.51,94.53 150.17,105.94 154.28,120.56 156.09,133.63 156.30,147.39 154.23,167.36 151.52,200.81 151.05,222.44 149.41,234.72 145.47,249.93 137.13,280.79 133.08,299.77 127.86,315.32 118.86,340.66 115.41,360.80 115.21,385.06 124.04,442.02 131.88,492.39 142.50,567.65 144.85,575.76 147.43,581.75 149.99,586.12 152.81,589.75 155.42,592.40 158.40,594.68 163.35,597.56 168.92,599.98 174.92,601.78 181.29,602.92 197.29,603.21 266.77,596.32 345.86,590.77"
        fill="none"
        stroke="#e94560"
        stroke-width="8.0"
        stroke-linejoin="round"
        stroke-linecap="round"/>
  <!-- Start/finish line -->
  <line x1="344.46" y1="570.82" x2="347.26" y2="610.72"
        stroke="#f5f5f5" stroke-width="9.6"
        stroke-linecap="round"/>
</svg>
