<?xml version="1.0" encoding="utf-8"?>
<svg xmlns="http://www.w3.org/2000/svg"
     width="700.3" height="800.0"
     viewBox="0 0 700.3 800.0">
  <rect width="100%" height="100%" fill="#1a1a2e"/>
  <!-- Track outline -->
  <polyline points="267.97,99.84 279.79,91.54 292.00,83.07 303.41,74.96 315.89,65.74 328.31,56.46 340.39,46.97 354.36,40.92 368.24,40.00 381.81,45.36 392.78,55.66 401.16,69.22 407.17,83.96 412.47,98.33 417.38,113.55 422.54,127.21 428.94,142.25 433.98,155.82 437.76,171.23 438.63,186.92 433.93,200.24 420.05,205.08 407.66,197.59 397.56,185.54 388.31,173.79 377.44,163.09 366.29,153.29 355.26,144.72 340.82,139.02 325.71,137.48 309.42,139.02 295.59,142.72 282.26,148.20 269.38,155.45 256.76,164.54 245.92,175.15 237.64,187.23 232.45,200.52 232.02,217.10 236.03,230.39 244.76,244.26 254.42,256.90 263.37,267.72 272.52,279.74 280.33,291.18 289.01,304.22 297.32,316.46 306.52,329.65 316.36,342.69 326.10,356.07 335.58,368.56 345.32,380.39 354.78,392.42 364.39,404.75 374.64,417.51 385.56,428.98 398.49,438.32 411.26,443.68 425.86,443.87 440.04,437.58 447.08,424.66 444.77,411.01 435.75,398.37 425.70,387.05 416.07,376.97 405.04,366.68 393.61,355.76 381.55,344.17 370.12,332.83 359.45,322.35 349.07,312.91 338.89,303.14 328.26,292.75 317.95,281.07 309.47,268.15 304.13,255.27 303.51,241.05 309.75,228.42 319.98,218.27 333.86,212.48 347.99,213.50 362.64,219.23 376.29,225.55 388.95,232.79 401.73,241.42 414.73,251.69 425.55,262.36 435.85,274.32 445.05,285.79 454.23,296.73 462.97,307.92 471.83,320.00 481.44,333.10 491.52,346.70 501.44,360.48 511.43,374.29 520.99,387.51 530.78,399.97 540.47,411.90 550.72,423.43 561.57,432.09 574.65,436.81 587.58,430.52 592.64,417.05 592.64,402.03 591.38,386.34 590.53,371.98 590.56,356.63 591.82,341.24 596.52,325.61 604.97,313.19 617.49,304.47 632.70,302.59 646.32,309.74 655.39,320.53 659.76,334.40 660.33,348.52 658.50,364.09 654.29,378.33 648.94,393.65 643.42,406.75 637.30,419.61 630.67,432.25 623.04,446.64 616.49,459.62 610.27,474.29 604.59,487.55 597.08,501.58 587.99,513.44 577.06,525.68 567.66,535.92 557.53,546.12 546.95,556.48 536.05,566.56 524.92,576.21 511.97,586.69 500.59,594.70 488.20,603.92 476.66,612.31 464.48,621.09 451.58,630.53 438.04,639.96 426.19,648.44 414.16,657.28 402.63,665.64 388.65,674.64 376.23,682.28 363.74,689.34 351.95,697.64 340.00,705.22 326.89,713.20 315.30,720.88 303.25,729.36 290.68,738.33 277.14,746.47 263.01,753.16 248.77,757.72 234.69,760.00 218.94,757.84 206.16,751.40 197.17,740.52 195.58,725.17 199.64,711.79 208.17,699.95 218.60,690.48 230.96,681.08 244.35,672.82 256.99,665.58 269.25,658.39 282.90,650.13 297.55,641.38 312.37,632.90 324.53,625.87 337.20,619.37 349.94,612.06 362.77,603.95 375.31,596.09 388.65,587.00 401.83,579.08 414.24,570.69 427.68,562.68 440.20,556.63 453.20,550.59 466.36,544.43 478.49,537.15 490.64,527.75 499.69,515.76 504.03,500.62 499.61,487.36 486.94,479.41 472.55,481.04 457.59,483.33 444.05,487.77 430.05,494.76 418.10,501.95 405.99,509.93 393.40,518.41 380.71,527.41 368.19,536.90 356.19,546.37 344.63,555.80 331.75,566.13 320.70,575.01 309.37,583.79 297.34,593.22 284.11,603.40 270.69,612.52 257.48,619.95 243.61,626.43 229.37,631.42 215.21,635.40 200.90,636.57 184.86,633.55 170.91,628.58 158.06,623.28 144.46,616.56 133.31,606.08 122.31,594.15 111.18,583.36 100.11,571.86 89.60,562.31 77.34,551.73 64.46,540.70 53.57,529.07 45.96,517.17 40.77,503.86 40.00,488.84 46.78,475.56 56.81,464.98 70.02,457.28 83.56,452.38 98.36,448.61 112.98,446.73 127.66,445.72 142.61,445.04 157.16,446.95 171.70,450.93 184.99,457.34 197.07,466.34 205.34,477.78 209.14,491.71 207.24,506.45 200.87,521.00 192.00,534.50 182.98,547.97 176.02,559.96 170.52,574.70 171.75,589.22 184.71,598.00 200.48,595.14 212.95,586.10 223.82,573.87 232.45,561.84 240.80,549.88 249.57,537.52 258.28,526.67 269.23,514.86 280.53,502.16 289.35,491.06 297.44,478.89 304.05,466.16 309.06,452.99 312.25,439.46 312.89,422.32 310.09,407.03 303.71,393.06 294.28,380.05 283.75,367.08 274.73,355.95 265.60,344.26 256.12,332.24 246.92,319.88 237.75,307.24 228.70,294.63 217.03,273.95 209.12,259.83 203.11,246.54 197.71,233.13 194.06,219.45 191.52,203.66 190.26,188.09 192.34,173.14 198.97,159.39 208.58,146.48 218.88,136.46 229.83,127.36 241.11,119.04 254.71,110.07 267.97,99.84"
        fill="none"
        stroke="#e94560"
        stroke-width="8.0"
        stroke-linejoin="round"
        stroke-linecap="round"/>
  <!-- Start/finish line -->
  <line x1="256.08" y1="83.75" x2="279.85" y2="115.92"
        stroke="#f5f5f5" stroke-width="9.6"
        stroke-linecap="round"/>
</svg>
