<?xml version="1.0" encoding="utf-8"?>
<svg xmlns="http://www.w3.org/2000/svg"
     width="762.8" height="800.0"
     viewBox="0 0 762.8 800.0">
  <rect width="100%" height="100%" fill="#1a1a2e"/>
  <!-- Track outline -->
  <polyline points="290.40,648.12 320.45,670.47 384.18,712.95 452.21,751.02 469.63,756.55 484.99,759.22 499.02,760.00 508.76,759.57 517.76,758.01 526.93,755.17 539.14,749.64 551.53,742.22 562.59,733.50 571.51,723.91 579.19,713.12 585.46,702.07 591.07,687.57 595.53,670.47 604.04,622.65 614.68,575.17 622.94,558.85 633.51,543.91 662.57,508.95 691.05,473.64 700.71,456.89 707.73,441.18 713.92,424.69 718.54,407.86 721.51,391.19 722.75,373.24 721.93,346.30 717.47,317.47 706.41,284.49 690.23,251.60 667.19,215.86 640.36,185.04 616.42,168.12 591.98,155.68 571.84,146.45 551.53,141.01 536.83,140.40 521.81,142.13 507.77,146.10 498.20,150.59 489.11,156.46 480.78,163.45 473.68,171.65 465.42,187.45 459.64,205.93 456.26,223.19 455.68,238.82 457.91,256.00 485.07,371.86 500.51,435.57 510.08,492.29 509.84,509.12 507.86,523.54 504.06,536.66 499.19,547.19 492.99,556.69 485.40,565.58 474.50,575.42 461.79,584.49 449.49,591.48 437.19,596.32 423.89,598.73 407.30,599.42 388.64,598.47 371.63,595.63 356.03,590.10 340.02,580.95 249.45,509.38 213.70,474.59 199.67,455.25 194.47,446.27 190.01,436.26 184.31,417.70 180.27,396.81 179.28,374.62 180.35,352.26 186.29,311.68 212.63,215.42 226.33,164.40 235.00,117.35 235.33,99.22 233.76,82.99 229.31,69.09 224.43,61.50 218.16,54.94 211.14,49.32 203.96,45.09 197.44,42.42 190.59,40.69 183.57,40.00 176.55,40.17 165.74,42.42 154.84,46.73 144.52,52.52 134.61,60.12 125.53,69.27 117.36,79.63 106.95,98.36 97.38,123.05 65.92,215.68 40.99,318.16 40.00,375.31 44.62,416.40 45.86,422.19 48.17,427.63 67.66,463.02 89.86,497.21 94.24,501.70 99.77,506.01 290.40,648.12"
        fill="none"
        stroke="#e94560"
        stroke-width="8.0"
        stroke-linejoin="round"
        stroke-linecap="round"/>
  <!-- Start/finish line -->
  <line x1="302.35" y1="632.08" x2="278.45" y2="664.15"
        stroke="#f5f5f5" stroke-width="9.6"
        stroke-linecap="round"/>
</svg>
