<?xml version="1.0" encoding="utf-8"?>
<svg xmlns="http://www.w3.org/2000/svg"
     width="464.0" height="800.0"
     viewBox="0 0 464.0 800.0">
  <rect width="100%" height="100%" fill="#1a1a2e"/>
  <!-- Track outline -->
  <polyline points="166.87,700.28 163.43,703.77 137.12,731.09 113.65,752.28 108.27,755.60 103.43,757.95 98.80,759.40 94.04,760.00 89.02,759.70 83.94,758.49 78.94,756.48 74.13,753.77 67.49,748.57 61.17,741.90 55.67,734.27 49.34,721.29 44.70,706.51 41.09,688.26 40.00,669.66 41.11,659.09 43.42,648.92 46.85,639.31 52.06,629.37 58.64,620.12 66.10,611.70 81.16,600.10 97.60,589.41 114.94,577.43 131.29,563.76 143.80,547.62 154.96,529.44 176.57,486.46 189.28,448.43 202.08,408.53 286.79,165.07 298.45,135.05 307.17,105.08 313.80,85.40 321.72,67.28 326.65,59.54 332.01,53.05 338.21,47.88 347.07,43.65 357.10,41.24 367.31,40.12 378.28,40.00 389.45,41.30 399.45,44.45 404.85,47.47 409.90,51.24 414.34,55.60 417.94,60.39 420.27,64.71 422.12,69.42 423.39,74.31 423.99,79.20 423.66,85.71 422.20,92.30 419.88,98.66 413.07,109.50 404.24,119.44 381.88,138.00 333.11,179.75 323.66,193.19 315.91,208.75 291.78,280.10 279.82,319.76 248.53,438.06 242.76,468.69 242.91,502.01 243.66,512.64 245.33,522.20 248.55,530.95 252.99,538.91 259.68,546.44 266.67,553.72 272.35,561.09 276.59,569.03 277.84,574.30 278.34,579.82 277.97,584.94 276.67,589.15 274.59,593.01 272.13,596.72 266.88,603.02 260.54,609.33 239.55,628.83 219.46,646.92 166.87,700.28"
        fill="none"
        stroke="#e94560"
        stroke-width="8.0"
        stroke-linejoin="round"
        stroke-linecap="round"/>
  <!-- Start/finish line -->
  <line x1="181.12" y1="714.32" x2="152.63" y2="686.24"
        stroke="#f5f5f5" stroke-width="9.6"
        stroke-linecap="round"/>
</svg>
