<?xml version="1.0" encoding="utf-8"?>
<svg xmlns="http://www.w3.org/2000/svg"
     width="800.0" height="655.3"
     viewBox="0 0 800.0 655.3">
  <rect width="100%" height="100%" fill="#1a1a2e"/>
  <!-- Track outline -->
  <polyline points="304.76,471.72 309.13,474.30 478.47,585.45 523.38,606.46 534.18,609.69 558.02,614.42 579.58,615.27 602.80,614.04 626.07,610.21 646.68,604.90 664.13,597.29 682.29,587.09 700.49,574.86 711.33,565.07 720.74,554.92 728.54,546.08 735.94,535.60 747.94,513.36 757.41,487.26 760.00,460.04 759.02,433.01 753.11,392.25 742.42,359.61 734.15,343.50 718.24,320.00 699.99,298.66 692.72,292.23 340.63,75.26 314.22,61.91 262.19,45.20 243.45,41.40 224.14,40.00 191.62,43.23 159.60,49.90 141.68,55.40 125.15,62.95 105.12,75.45 86.58,90.69 73.55,105.58 62.86,121.50 55.61,135.20 49.86,150.28 44.04,172.74 40.43,197.28 40.00,224.63 42.12,249.36 44.49,260.17 47.81,270.13 60.76,301.26 82.32,334.01 85.29,337.81 88.46,341.07 111.13,357.86 304.76,471.72"
        fill="none"
        stroke="#e94560"
        stroke-width="8.0"
        stroke-linejoin="round"
        stroke-linecap="round"/>
  <!-- Start/finish line -->
  <line x1="314.90" y1="454.48" x2="294.63" y2="488.96"
        stroke="#f5f5f5" stroke-width="9.6"
        stroke-linecap="round"/>
</svg>
