<?xml version="1.0" encoding="utf-8"?>
<svg xmlns="http://www.w3.org/2000/svg"
     width="472.2" height="800.0"
     viewBox="0 0 472.2 800.0">
  <rect width="100%" height="100%" fill="#1a1a2e"/>
  <!-- Track outline -->
  <polyline points="429.08,393.76 426.48,368.15 415.53,313.82 401.71,263.25 378.20,216.99 347.87,165.54 317.63,123.14 279.77,80.96 232.66,47.73 177.65,40.00 130.99,57.78 92.94,99.29 72.48,154.06 60.01,206.72 49.96,266.79 42.60,333.48 40.00,387.25 41.17,444.00 47.36,500.42 57.95,551.32 76.61,612.60 101.29,663.61 129.73,704.68 166.16,739.57 215.88,759.67 270.88,760.00 321.85,737.48 359.00,698.83 393.01,647.71 412.84,596.04 426.48,538.18 432.22,473.48 431.86,421.36 429.08,393.76"
        fill="none"
        stroke="#e94560"
        stroke-width="8.0"
        stroke-linejoin="round"
        stroke-linecap="round"/>
  <!-- Start/finish line -->
  <line x1="409.18" y1="395.77" x2="448.98" y2="391.75"
        stroke="#f5f5f5" stroke-width="9.6"
        stroke-linecap="round"/>
</svg>
