<?xml version="1.0" encoding="utf-8"?>
<svg xmlns="http://www.w3.org/2000/svg"
     width="363.6" height="800.0"
     viewBox="0 0 363.6 800.0">
  <rect width="100%" height="100%" fill="#1a1a2e"/>
  <!-- Track outline -->
  <polyline points="45.16,436.83 43.84,394.77 40.00,352.10 40.97,332.39 43.68,314.04 47.30,300.69 52.09,288.62 57.50,278.27 64.61,267.70 84.18,245.48 103.18,223.71 108.90,214.82 112.88,206.05 116.28,193.94 117.98,181.65 117.80,172.69 116.28,164.32 113.34,156.38 109.23,149.11 104.02,142.73 97.65,136.69 85.64,127.83 73.99,118.77 68.52,112.46 64.36,105.84 61.18,98.54 59.10,91.24 58.40,86.20 58.50,81.14 59.82,73.69 62.08,66.51 64.28,61.97 67.18,57.87 72.57,52.34 78.98,47.45 86.65,43.65 93.76,41.12 96.46,40.35 99.23,40.00 107.21,40.15 116.34,41.42 124.87,43.82 133.73,47.62 146.83,55.12 160.05,64.78 172.47,76.64 183.36,89.45 190.52,99.75 196.21,110.38 200.51,121.40 203.27,132.50 203.99,141.48 203.53,150.47 201.85,161.37 199.44,171.40 197.78,176.71 195.82,181.30 190.48,189.60 186.69,194.98 130.32,269.28 123.37,281.97 119.16,292.84 117.51,300.32 117.10,307.79 118.00,317.89 120.27,327.77 123.25,335.02 127.38,341.67 134.74,350.14 143.25,357.56 150.71,362.48 158.86,366.15 170.93,369.25 183.43,370.72 192.82,370.62 202.85,369.18 224.63,362.65 246.07,356.20 255.08,354.93 263.14,354.88 271.61,355.92 279.91,358.13 287.99,361.53 295.60,366.05 302.36,371.44 308.41,377.77 313.59,384.94 317.85,392.89 321.12,401.60 323.15,410.81 323.64,420.10 322.82,429.83 320.25,442.14 315.89,455.94 292.00,511.48 273.99,537.77 226.42,605.59 217.86,621.55 211.98,636.47 208.30,650.55 206.95,665.37 210.63,686.52 215.29,706.80 216.38,717.95 216.44,727.21 215.85,731.95 214.66,736.14 212.62,740.59 209.93,744.81 206.08,749.60 201.54,753.74 196.23,756.72 190.68,758.71 185.98,759.78 181.10,760.00 174.19,758.98 167.08,756.77 160.30,753.52 153.94,749.20 148.29,743.71 143.40,737.26 139.39,730.06 136.43,722.22 134.72,713.95 134.23,705.43 135.09,696.67 137.21,688.06 140.41,679.91 145.33,671.30 179.09,630.44 241.20,547.40 249.38,533.65 254.83,521.41 258.06,510.06 259.62,498.87 259.54,488.71 258.06,478.91 255.20,469.47 251.09,460.64 245.64,452.49 239.14,445.27 231.43,438.86 222.94,433.68 213.73,429.75 204.11,427.42 194.16,426.95 184.04,428.11 173.15,430.94 162.21,435.59 149.85,443.11 138.48,452.54 130.09,462.60 123.35,473.44 118.89,482.78 115.64,492.96 113.19,506.69 112.12,523.86 118.79,635.65 118.48,645.16 117.31,652.51 114.80,659.96 111.59,666.46 108.75,670.65 105.87,673.91 104.06,675.52 102.23,676.81 100.22,678.03 97.83,679.12 92.57,680.91 86.63,681.97 82.72,681.73 78.82,680.88 75.14,679.69 72.18,678.42 69.40,676.89 66.75,674.85 63.62,671.60 60.64,667.68 58.20,663.73 56.24,659.41 54.80,654.22 50.88,619.47 45.16,436.83"
        fill="none"
        stroke="#e94560"
        stroke-width="8.0"
        stroke-linejoin="round"
        stroke-linecap="round"/>
  <!-- Start/finish line -->
  <line x1="25.17" y1="437.45" x2="65.15" y2="436.20"
        stroke="#f5f5f5" stroke-width="9.6"
        stroke-linecap="round"/>
</svg>
