<?xml version="1.0" encoding="utf-8"?>
<svg xmlns="http://www.w3.org/2000/svg"
     width="355.4" height="800.0"
     viewBox="0 0 355.4 800.0">
  <rect width="100%" height="100%" fill="#1a1a2e"/>
  <!-- Track outline -->
  <polyline points="40.08,413.28 48.52,639.73 50.58,648.92 53.21,655.33 56.80,661.99 61.19,667.75 64.49,670.90 68.08,673.56 71.88,675.61 75.86,676.96 80.00,677.67 84.15,677.79 88.28,677.32 92.39,676.24 96.28,674.64 99.91,672.53 103.34,669.90 106.43,666.82 109.16,663.27 111.53,659.24 113.56,654.73 116.38,645.31 117.85,634.65 117.15,621.25 114.68,606.22 101.97,554.59 99.93,539.44 99.44,525.72 100.35,514.32 102.49,503.43 106.01,492.34 110.66,481.62 116.59,470.93 123.06,461.34 133.45,449.57 139.05,444.56 145.31,440.00 154.54,434.77 164.56,430.49 174.76,427.71 184.61,426.21 191.50,425.95 198.03,426.46 204.56,427.61 210.95,429.41 217.09,431.84 223.00,434.89 228.51,438.40 233.70,442.46 238.34,446.91 242.49,451.87 245.98,457.16 248.88,462.84 251.14,468.60 252.78,474.91 254.00,484.20 254.13,494.07 252.84,503.66 250.19,513.35 245.54,524.64 237.99,537.96 194.98,594.88 151.59,652.37 143.40,666.75 138.18,679.34 134.55,692.39 132.74,705.01 132.89,714.23 134.34,722.81 137.08,730.80 140.89,738.14 145.77,744.78 151.47,750.46 155.66,753.69 160.14,756.42 164.78,758.42 169.55,759.57 174.49,760.00 179.34,759.77 184.05,758.87 188.68,757.35 193.07,755.29 197.12,752.86 200.93,749.96 204.37,746.58 207.36,742.77 209.97,738.54 212.07,734.01 213.62,729.45 214.66,724.59 215.01,718.98 211.61,699.93 206.84,680.35 204.15,661.56 204.29,654.98 205.22,648.37 207.51,638.83 211.16,628.41 228.16,596.56 293.16,492.24 304.27,467.10 311.36,445.09 314.37,430.64 315.39,417.07 314.43,403.69 311.80,391.32 308.40,382.43 303.96,374.67 298.44,367.71 292.06,361.83 284.67,357.02 276.69,353.46 268.27,351.13 259.27,350.21 247.84,351.16 235.21,353.71 214.49,360.17 195.02,365.86 187.31,366.56 180.65,366.06 176.48,365.21 172.44,363.93 168.68,362.20 165.34,360.07 162.25,357.54 159.74,354.86 158.33,352.81 157.24,350.68 156.49,348.45 156.07,346.12 155.95,343.70 156.16,341.32 156.74,338.91 157.65,336.56 158.81,334.36 160.20,332.28 161.86,330.40 163.81,328.70 168.33,326.02 174.18,323.84 189.50,321.48 205.14,318.78 209.95,316.83 214.04,314.52 217.79,311.72 221.34,308.36 224.53,304.48 227.21,300.27 229.24,295.84 230.77,291.08 231.69,286.23 231.96,281.52 231.60,276.69 230.51,271.20 221.82,251.39 212.23,230.34 207.42,205.65 200.83,134.28 196.56,118.53 190.96,105.03 183.26,91.03 174.37,78.59 166.19,69.80 157.07,62.29 144.15,54.25 130.32,47.69 117.42,43.31 105.10,40.68 96.31,40.00 88.09,40.60 80.59,42.25 73.60,45.11 69.55,47.54 65.80,50.47 62.54,53.87 59.95,57.68 57.84,61.96 56.30,66.44 55.41,71.15 55.10,76.06 55.37,80.89 56.26,85.67 57.75,90.36 59.72,94.76 63.60,100.75 68.93,106.71 84.32,119.55 99.27,132.13 103.34,137.16 106.32,142.07 109.04,147.68 111.17,153.61 112.67,159.82 113.52,166.23 113.77,172.59 113.29,179.25 111.40,188.82 108.31,198.56 104.25,207.30 98.48,216.54 79.88,238.25 60.74,261.36 52.65,276.39 47.24,289.53 44.31,301.63 40.73,328.02 40.00,410.81 40.08,413.28"
        fill="none"
        stroke="#e94560"
        stroke-width="8.0"
        stroke-linejoin="round"
        stroke-linecap="round"/>
  <!-- Start/finish line -->
  <line x1="60.07" y1="412.54" x2="20.10" y2="414.03"
        stroke="#f5f5f5" stroke-width="9.6"
        stroke-linecap="round"/>
</svg>
