<?xml version="1.0" encoding="utf-8"?>
<svg xmlns="http://www.w3.org/2000/svg"
     width="800.0" height="432.5"
     viewBox="0 0 800.0 432.5">
  <rect width="100%" height="100%" fill="#1a1a2e"/>
  <!-- Track outline -->
  <polyline points="294.26,120.80 319.34,129.56 433.35,153.82 455.26,154.18 483.26,154.71 505.65,148.94 521.86,142.60 540.27,132.87 582.63,99.94 621.29,68.13 638.09,57.52 655.12,49.32 676.53,42.46 687.04,40.65 697.48,40.00 707.48,40.65 717.14,42.66 726.23,46.38 734.57,51.46 741.91,57.84 748.12,65.43 753.20,74.55 756.90,84.56 759.12,95.70 760.00,107.00 759.91,117.05 758.87,127.02 753.89,148.33 739.96,188.17 725.51,288.18 720.74,309.05 717.23,318.05 712.75,326.57 706.70,335.57 699.45,343.48 694.22,347.39 688.51,350.58 682.46,353.04 672.39,355.10 661.80,355.75 650.45,355.67 639.19,354.38 628.56,351.71 618.78,347.64 613.42,344.24 608.56,340.29 604.42,335.77 600.94,330.68 598.15,325.03 596.39,319.06 595.83,313.77 595.92,308.12 596.67,302.51 598.08,297.34 600.78,291.90 604.51,286.93 609.09,281.64 639.91,253.03 646.56,245.88 651.89,238.78 655.34,232.89 658.32,226.59 660.23,220.05 660.89,214.81 660.95,209.28 660.32,203.87 658.85,198.90 656.37,194.30 652.95,189.98 649.04,186.07 644.87,182.80 639.25,179.65 633.11,177.39 626.68,175.86 615.74,175.09 604.67,175.70 585.45,178.48 439.12,217.43 428.45,221.91 420.62,226.71 414.94,231.15 409.64,236.20 405.28,241.77 402.02,247.78 399.64,254.24 398.51,260.74 398.57,265.46 399.33,270.26 400.71,274.90 402.71,279.18 406.82,284.55 412.15,289.35 417.86,293.47 426.17,298.11 435.92,301.70 455.58,305.58 475.61,309.05 486.59,312.04 496.21,315.75 501.98,318.74 507.41,322.17 512.05,326.36 515.12,330.28 517.82,334.72 519.95,339.40 521.23,344.16 521.61,348.97 521.23,353.97 520.23,358.90 518.69,363.54 515.75,369.27 511.80,374.60 507.28,379.28 502.20,383.23 496.56,386.54 490.66,389.09 481.54,391.27 472.04,392.19 462.91,392.52 452.38,391.79 389.92,379.48 266.95,353.21 247.88,348.81 238.76,345.94 229.95,342.19 223.83,338.76 217.91,334.72 212.86,330.08 209.00,324.91 205.96,319.14 203.92,313.09 202.98,306.43 203.11,299.40 204.17,292.58 206.21,285.80 209.25,279.18 213.24,273.33 218.57,268.32 224.90,264.09 231.36,260.49 240.39,257.19 249.23,253.71 255.06,249.96 260.55,245.52 264.97,240.35 267.45,235.91 269.36,230.99 270.58,225.86 270.99,220.82 270.43,215.69 268.95,210.45 266.82,205.40 264.22,200.96 260.08,196.12 255.06,192.04 249.54,188.81 243.24,186.51 236.38,185.18 229.57,184.41 221.07,184.25 211.01,185.30 169.28,194.46 126.76,203.38 114.78,203.99 104.68,203.34 94.40,201.85 84.52,199.35 75.65,196.08 67.31,191.56 58.56,184.21 51.10,175.57 46.24,167.34 42.85,158.58 40.75,149.22 40.00,139.57 40.66,129.64 42.57,119.75 45.58,110.03 49.78,100.70 55.18,91.95 61.73,84.03 69.50,77.13 78.22,71.44 87.85,67.12 98.10,64.22 109.04,62.80 120.27,62.97 130.77,64.66 143.97,68.33 294.26,120.80"
        fill="none"
        stroke="#e94560"
        stroke-width="8.0"
        stroke-linejoin="round"
        stroke-linecap="round"/>
  <!-- Start/finish line -->
  <line x1="300.85" y1="101.92" x2="287.66" y2="139.69"
        stroke="#f5f5f5" stroke-width="9.6"
        stroke-linecap="round"/>
</svg>
