<?xml version="1.0" encoding="utf-8"?>
<svg xmlns="http://www.w3.org/2000/svg"
     width="631.3" height="800.0"
     viewBox="0 0 631.3 800.0">
  <rect width="100%" height="100%" fill="#1a1a2e"/>
  <!-- Track outline -->
  <polyline points="591.25,430.37 583.37,351.30 563.94,253.43 539.37,196.53 507.03,147.27 480.64,117.31 450.81,90.37 419.73,68.85 392.30,55.30 363.96,46.06 334.82,40.96 302.71,40.00 269.57,43.51 237.23,51.48 204.10,64.87 171.98,82.88 142.96,104.72 117.48,130.22 95.08,159.55 76.34,191.75 60.11,230.16 48.11,272.08 40.80,316.87 40.00,405.98 52.34,496.04 73.37,570.00 103.54,634.24 123.19,662.13 145.36,686.04 170.61,706.76 202.15,725.89 237.23,741.35 273.57,752.19 312.08,758.41 351.85,760.00 389.56,756.49 421.33,748.68 451.50,736.73 479.49,720.15 508.18,696.08 534.46,666.75 555.94,635.03 571.48,601.24 582.45,565.22 589.77,529.35 591.25,430.37"
        fill="none"
        stroke="#e94560"
        stroke-width="8.0"
        stroke-linejoin="round"
        stroke-linecap="round"/>
  <!-- Start/finish line -->
  <line x1="571.26" y1="431.08" x2="611.24" y2="429.65"
        stroke="#f5f5f5" stroke-width="9.6"
        stroke-linecap="round"/>
</svg>
