<?xml version="1.0" encoding="utf-8"?>
<svg xmlns="http://www.w3.org/2000/svg"
     width="662.3" height="800.0"
     viewBox="0 0 662.3 800.0">
  <rect width="100%" height="100%" fill="#1a1a2e"/>
  <!-- Track outline -->
  <polyline points="195.54,521.14 60.46,666.35 50.10,681.85 44.07,695.14 41.82,702.36 40.47,709.40 40.00,716.05 40.32,721.18 41.31,726.05 42.96,730.70 45.92,735.95 49.78,740.97 54.12,745.50 59.25,749.79 64.92,753.51 70.86,756.41 77.19,758.43 83.77,759.61 90.30,760.00 96.59,759.64 102.82,758.49 108.69,756.62 113.94,754.17 118.89,751.06 122.96,747.40 125.35,744.08 127.12,740.36 128.68,735.98 130.30,727.31 131.49,717.25 133.48,708.68 135.80,704.17 138.56,700.49 141.69,697.29 145.34,694.30 149.40,691.85 153.84,690.04 162.76,688.98 172.62,688.89 185.12,688.68 197.61,687.29 204.74,684.90 211.54,681.67 217.68,677.80 222.36,674.12 226.55,669.98 230.29,664.90 235.74,653.48 240.20,638.44 245.92,598.11 252.23,553.46 261.55,519.93 272.09,491.44 279.02,477.00 286.54,465.25 294.05,456.40 303.62,448.00 331.42,431.45 363.66,410.81 396.56,378.07 428.47,339.58 493.44,246.48 559.00,154.25 584.41,133.56 598.68,123.14 611.08,112.62 614.97,107.76 618.00,102.83 620.22,97.61 621.63,92.17 622.32,86.49 622.15,80.87 620.91,75.13 618.77,69.48 615.93,64.26 611.99,59.15 607.21,54.56 602.03,50.54 592.91,45.23 583.40,41.60 578.18,40.45 573.03,40.00 567.58,40.33 560.11,41.93 552.15,44.77 543.89,48.67 526.37,59.58 510.60,72.41 505.59,77.61 501.55,82.87 498.00,89.21 492.85,107.40 488.39,126.34 479.27,147.91 419.21,243.70 353.99,337.14 343.84,348.40 335.07,355.47 329.20,359.25 323.19,362.18 316.36,364.44 297.33,365.89 278.60,366.98 272.51,368.64 267.26,370.73 262.33,373.57 257.58,377.22 253.14,381.57 249.27,386.53 244.81,394.68 241.04,405.11 234.66,436.01 228.00,468.09 223.10,481.81 217.06,493.71 204.83,508.45 195.54,521.14"
        fill="none"
        stroke="#e94560"
        stroke-width="8.0"
        stroke-linejoin="round"
        stroke-linecap="round"/>
  <!-- Start/finish line -->
  <line x1="210.30" y1="534.63" x2="180.78" y2="507.64"
        stroke="#f5f5f5" stroke-width="9.6"
        stroke-linecap="round"/>
</svg>
