<?xml version="1.0" encoding="utf-8"?>
<svg xmlns="http://www.w3.org/2000/svg"
     width="662.0" height="800.0"
     viewBox="0 0 662.0 800.0">
  <rect width="100%" height="100%" fill="#1a1a2e"/>
  <!-- Track outline -->
  <polyline points="126.88,540.92 71.23,456.02 51.26,421.16 45.70,405.97 41.98,391.09 40.50,379.14 40.00,368.10 41.19,350.14 57.59,233.73 73.65,172.22 103.98,87.71 110.11,75.80 116.30,66.77 123.80,58.46 132.02,51.64 140.86,46.35 150.12,42.64 159.73,40.52 169.47,40.00 179.24,41.09 188.79,43.87 197.71,48.29 205.98,54.37 212.96,61.59 219.38,70.70 226.48,84.79 233.72,102.62 262.79,186.18 272.40,203.71 282.39,217.59 292.46,228.93 303.57,238.63 318.37,248.23 334.67,256.63 355.87,264.94 375.38,273.23 384.35,279.28 391.52,286.23 395.22,291.09 398.43,296.38 400.78,302.02 402.10,307.55 402.72,313.36 402.61,319.06 401.68,324.76 399.99,330.34 397.75,335.52 394.69,340.54 391.01,345.07 386.90,349.05 381.98,352.70 376.57,355.70 370.69,358.15 359.12,361.31 345.20,363.00 311.24,363.28 277.31,360.77 263.65,358.34 251.91,354.55 240.91,349.18 230.75,342.31 222.28,334.73 214.89,325.96 209.11,316.63 204.64,306.35 202.03,296.13 200.64,284.05 201.72,253.57 202.24,224.24 200.99,217.72 199.26,212.49 196.99,207.83 193.84,203.19 190.04,199.16 185.95,195.80 181.33,193.05 176.38,191.03 171.35,189.83 166.24,189.45 161.05,189.89 156.02,191.14 151.27,193.16 146.69,195.94 142.53,199.46 138.95,203.49 135.74,208.18 133.19,213.36 131.47,218.27 130.35,223.64 129.76,230.97 135.10,302.95 146.07,377.56 150.36,392.42 155.44,403.73 162.33,415.65 170.44,426.28 180.08,435.96 190.68,444.06 202.29,450.63 214.80,455.53 230.09,459.27 247.09,460.85 272.54,459.40 301.39,454.17 392.07,422.57 420.24,415.29 434.21,414.53 448.00,415.65 460.85,418.54 473.54,423.25 487.61,430.51 500.57,439.20 508.90,446.32 515.70,454.25 518.91,459.43 521.57,464.99 523.29,470.72 523.90,476.12 523.77,481.62 523.02,486.61 521.83,490.37 520.12,493.73 517.98,496.84 514.53,500.54 510.35,503.82 505.67,506.54 496.69,509.65 484.14,511.48 390.77,511.26 295.24,511.61 279.55,514.45 267.94,518.62 262.00,521.56 256.63,524.97 251.80,529.06 247.90,533.31 244.45,538.11 241.68,543.40 239.72,548.85 238.38,554.71 237.74,560.96 237.85,568.54 238.93,576.61 241.22,585.55 256.13,617.80 274.38,648.50 283.14,660.66 291.61,669.46 296.75,673.33 301.94,676.25 307.24,678.38 312.68,679.77 318.24,680.39 323.72,680.28 329.04,679.47 334.30,677.97 339.26,675.70 343.62,672.84 347.71,669.33 351.29,665.24 355.12,658.83 358.35,650.84 362.51,633.01 366.98,614.77 371.44,604.90 376.79,596.67 384.83,588.27 392.38,582.03 396.97,579.09 406.87,573.91 419.72,569.35 435.29,565.40 480.53,561.45 519.70,560.44 555.90,561.94 568.72,564.37 579.48,568.26 589.84,573.93 599.32,581.19 607.01,589.12 613.46,598.17 618.03,607.28 621.04,617.06 621.86,623.55 621.95,630.26 621.29,636.72 619.75,643.10 617.40,649.23 614.53,654.90 610.86,660.38 606.55,665.34 601.89,669.60 596.54,673.33 590.74,676.33 584.78,678.54 578.42,680.01 571.87,680.64 565.33,680.50 555.90,678.84 545.63,675.46 525.28,665.40 504.44,655.83 492.34,653.38 480.99,653.16 469.22,654.69 457.70,658.15 447.17,663.03 436.46,670.55 418.92,689.99 401.68,710.85 381.38,730.61 369.53,738.54 356.79,745.11 341.33,751.25 325.47,755.86 310.89,758.77 297.06,760.00 286.68,759.54 276.98,757.60 268.01,754.22 259.63,749.29 252.94,743.64 245.81,735.05 192.02,640.32 126.88,540.92"
        fill="none"
        stroke="#e94560"
        stroke-width="8.0"
        stroke-linejoin="round"
        stroke-linecap="round"/>
  <!-- Start/finish line -->
  <line x1="110.16" y1="551.88" x2="143.61" y2="529.96"
        stroke="#f5f5f5" stroke-width="9.6"
        stroke-linecap="round"/>
</svg>
