<?xml version="1.0" encoding="utf-8"?>
<svg xmlns="http://www.w3.org/2000/svg"
     width="800.0" height="562.1"
     viewBox="0 0 800.0 562.1">
  <rect width="100%" height="100%" fill="#1a1a2e"/>
  <!-- Track outline -->
  <polyline points="393.26,520.45 456.36,522.12 500.87,518.50 545.18,510.43 587.04,496.80 626.86,475.94 664.03,449.51 695.88,418.07 722.43,381.07 743.26,339.34 756.12,296.22 760.00,262.28 759.59,226.11 753.87,191.62 742.23,161.02 722.63,135.14 696.49,112.61 666.48,93.14 636.26,77.00 575.00,55.58 510.06,44.17 440.64,40.00 369.98,42.23 298.31,48.07 227.86,60.59 179.88,71.71 132.91,86.46 94.93,110.94 52.86,159.90 40.00,217.77 45.92,289.27 55.93,321.82 70.63,352.70 88.39,380.51 117.19,411.12 152.31,437.27 190.09,459.80 254.41,489.29 322.61,509.60 393.26,520.45"
        fill="none"
        stroke="#e94560"
        stroke-width="8.0"
        stroke-linejoin="round"
        stroke-linecap="round"/>
  <!-- Start/finish line -->
  <line x1="395.13" y1="500.54" x2="391.40" y2="540.36"
        stroke="#f5f5f5" stroke-width="9.6"
        stroke-linecap="round"/>
</svg>
