<?xml version="1.0" encoding="utf-8"?>
<svg xmlns="http://www.w3.org/2000/svg"
     width="800.0" height="545.5"
     viewBox="0 0 800.0 545.5">
  <rect width="100%" height="100%" fill="#1a1a2e"/>
  <!-- Track outline -->
  <polyline points="405.87,437.36 407.76,438.13 537.88,489.95 578.59,502.90 589.92,504.79 601.57,505.45 624.99,504.98 649.58,502.17 668.62,497.07 684.54,491.07 696.39,484.76 706.25,478.06 716.45,469.42 726.80,457.52 736.30,443.39 745.74,424.96 753.25,404.29 758.24,379.44 760.00,354.73 758.45,337.12 754.62,320.44 748.48,302.32 739.69,284.69 723.33,263.16 706.77,245.55 700.94,240.23 694.94,235.86 665.52,219.05 292.27,57.45 248.76,45.71 215.04,40.80 192.79,40.00 173.51,41.50 161.27,43.51 149.26,47.14 129.64,55.79 109.72,67.43 92.59,80.73 77.52,95.69 67.25,108.95 58.58,123.72 49.58,144.10 42.95,165.15 40.52,180.59 40.00,195.00 40.72,205.85 42.74,216.79 47.58,234.01 54.29,251.14 61.25,263.86 69.94,275.69 85.44,291.70 103.48,306.63 120.82,318.14 143.52,330.01 405.87,437.36"
        fill="none"
        stroke="#e94560"
        stroke-width="8.0"
        stroke-linejoin="round"
        stroke-linecap="round"/>
  <!-- Start/finish line -->
  <line x1="413.45" y1="418.85" x2="398.30" y2="455.87"
        stroke="#f5f5f5" stroke-width="9.6"
        stroke-linecap="round"/>
</svg>
