<?xml version="1.0" encoding="utf-8"?>
<svg xmlns="http://www.w3.org/2000/svg"
     width="800.0" height="659.5"
     viewBox="0 0 800.0 659.5">
  <rect width="100%" height="100%" fill="#1a1a2e"/>
  <!-- Track outline -->
  <polyline points="342.44,269.20 318.47,279.65 152.93,352.53 120.19,372.60 95.04,391.98 79.97,406.33 67.70,421.66 57.40,439.26 49.33,458.31 43.43,478.78 40.21,498.91 40.00,513.12 41.97,526.82 47.17,543.42 55.13,559.72 67.55,577.22 81.80,592.37 93.52,601.66 105.82,608.71 119.58,614.38 133.86,618.00 148.13,619.52 162.32,618.58 171.46,616.30 180.45,612.86 189.02,608.38 200.17,600.61 211.89,589.11 280.99,492.01 330.08,425.45 341.86,412.18 353.22,401.74 366.07,392.81 378.28,386.19 384.60,383.59 391.01,382.03 402.86,380.95 415.31,381.53 425.15,383.77 434.75,387.75 446.17,394.98 458.38,404.95 479.34,426.97 501.72,449.35 520.80,462.07 539.06,470.97 551.17,474.94 562.81,476.97 574.38,477.58 586.26,476.46 601.14,472.85 616.05,466.92 630.00,458.86 643.15,448.52 656.45,434.53 668.24,418.19 677.90,400.33 685.25,379.72 689.65,346.35 692.39,311.61 700.65,261.94 718.63,212.48 737.64,173.00 754.35,134.90 758.79,115.96 760.00,99.29 759.42,90.79 757.90,82.84 755.53,75.36 752.22,68.23 748.03,61.58 743.23,55.76 737.80,50.92 731.72,46.94 725.31,43.83 718.27,41.59 710.82,40.33 703.29,40.00 695.36,40.72 687.31,42.46 679.36,45.13 667.63,50.70 654.72,59.81 618.00,98.35 577.87,141.73 525.51,183.60 461.51,218.52 386.94,249.90 368.11,257.78 356.69,262.80 342.44,269.20"
        fill="none"
        stroke="#e94560"
        stroke-width="8.0"
        stroke-linejoin="round"
        stroke-linecap="round"/>
  <!-- Start/finish line -->
  <line x1="350.51" y1="287.50" x2="334.37" y2="250.90"
        stroke="#f5f5f5" stroke-width="9.6"
        stroke-linecap="round"/>
</svg>
