<?xml version="1.0" encoding="utf-8"?>
<svg xmlns="http://www.w3.org/2000/svg"
     width="342.2" height="800.0"
     viewBox="0 0 342.2 800.0">
  <rect width="100%" height="100%" fill="#1a1a2e"/>
  <!-- Track outline -->
  <polyline points="243.31,442.17 241.44,419.01 238.97,402.03 236.62,395.27 234.48,390.43 231.56,386.08 227.67,382.65 223.59,380.19 218.43,377.96 213.09,377.14 196.87,374.86 76.06,362.41 69.10,361.31 63.03,359.51 58.06,356.68 53.12,353.27 47.87,347.54 44.44,341.68 41.39,334.57 40.17,327.50 40.00,320.47 41.49,312.93 44.01,306.87 48.13,301.06 53.70,295.45 60.32,291.12 66.72,287.89 73.68,286.06 81.05,284.91 86.97,284.31 95.10,283.76 101.80,282.98 107.87,281.73 112.88,279.35 116.62,276.62 120.92,272.04 124.16,266.88 126.36,261.89 128.07,256.34 129.60,249.05 130.46,241.39 137.47,155.52 137.71,150.41 137.40,144.55 136.70,139.89 135.29,134.71 133.06,129.87 129.84,125.14 126.15,121.21 122.36,117.93 117.61,115.00 111.37,112.07 104.77,109.27 60.03,88.73 55.81,86.20 52.79,83.15 49.81,79.12 47.80,74.66 46.60,70.20 46.17,64.94 46.07,59.81 46.96,54.22 48.64,49.62 51.40,44.81 55.04,42.15 59.86,40.50 65.26,40.08 71.09,40.00 80.52,40.40 95.10,41.53 112.30,43.58 130.39,46.61 146.85,49.94 153.69,52.17 158.87,54.82 163.76,58.53 167.79,63.54 171.68,69.97 174.37,76.04 176.33,82.42 177.39,90.78 177.75,99.52 179.38,198.31 180.60,204.85 183.55,212.66 187.32,218.77 192.53,224.31 197.49,227.29 203.15,228.71 208.98,228.86 214.21,228.09 220.59,225.88 226.86,222.75 231.39,218.47 235.20,212.41 237.75,206.18 239.16,200.84 240.27,195.51 241.13,187.62 241.58,177.38 242.62,88.06 243.07,82.50 245.30,76.54 249.09,71.13 254.13,66.22 259.94,62.29 267.11,59.96 274.55,59.53 281.43,61.16 287.29,63.69 293.14,68.12 297.74,73.16 300.86,80.19 302.23,87.65 302.16,95.39 299.83,217.35 299.11,225.13 297.77,232.82 295.23,238.91 290.62,245.09 260.94,277.25 257.44,281.68 253.87,287.14 251.44,291.74 249.79,296.25 249.02,300.91 248.88,306.24 249.07,312.45 250.03,318.66 252.02,324.80 256.39,331.26 265.02,338.72 274.28,347.49 283.30,358.11 290.36,367.70 293.95,374.63 296.16,381.64 297.34,389.53 297.70,403.23 291.77,731.43 291.08,737.81 289.44,744.02 286.40,749.71 283.23,753.79 278.96,757.20 274.43,759.00 269.72,759.97 264.93,760.00 259.48,758.87 254.59,756.64 250.82,753.81 247.70,750.18 244.97,745.30 243.65,740.44 242.30,731.58 241.97,720.98 246.07,478.51 245.02,459.37 243.31,442.17"
        fill="none"
        stroke="#e94560"
        stroke-width="8.0"
        stroke-linejoin="round"
        stroke-linecap="round"/>
  <!-- Start/finish line -->
  <line x1="223.39" y1="443.93" x2="263.23" y2="440.41"
        stroke="#f5f5f5" stroke-width="9.6"
        stroke-linecap="round"/>
</svg>
