<?xml version="1.0" encoding="utf-8"?>
<svg xmlns="http://www.w3.org/2000/svg"
     width="420.0" height="800.0"
     viewBox="0 0 420.0 800.0">
  <rect width="100%" height="100%" fill="#1a1a2e"/>
  <!-- Track outline -->
  <polyline points="40.00,359.94 40.60,490.40 41.17,537.29 52.97,631.49 55.94,644.08 59.89,655.18 70.90,678.38 83.68,700.26 91.58,710.46 99.47,718.69 115.45,732.07 134.36,743.91 156.24,752.83 178.20,758.19 200.75,760.00 220.53,758.67 247.60,752.88 275.57,740.56 296.06,727.77 305.23,720.01 313.95,711.20 322.56,700.90 330.94,688.74 352.15,647.48 361.89,618.33 373.50,553.06 379.97,463.54 374.86,259.15 368.39,214.86 359.59,178.38 350.31,151.88 340.53,130.17 328.54,109.99 313.16,90.82 303.88,80.94 292.79,71.54 268.80,57.52 243.31,46.32 228.20,41.91 212.97,40.00 187.15,41.01 163.16,44.19 154.70,45.73 146.73,48.12 130.75,54.66 114.55,63.21 103.53,71.28 94.21,79.72 83.72,92.09 72.74,109.78 62.26,133.56 53.20,159.48 47.86,189.37 44.77,222.46 40.00,356.48 40.00,359.94"
        fill="none"
        stroke="#e94560"
        stroke-width="8.0"
        stroke-linejoin="round"
        stroke-linecap="round"/>
  <!-- Start/finish line -->
  <line x1="60.00" y1="359.85" x2="20.00" y2="360.02"
        stroke="#f5f5f5" stroke-width="9.6"
        stroke-linecap="round"/>
</svg>
