<?xml version="1.0" encoding="utf-8"?>
<svg xmlns="http://www.w3.org/2000/svg"
     width="689.4" height="800.0"
     viewBox="0 0 689.4 800.0">
  <rect width="100%" height="100%" fill="#1a1a2e"/>
  <!-- Track outline -->
  <polyline points="149.57,337.44 117.31,385.96 54.08,500.22 46.04,521.61 41.86,543.53 40.00,579.58 41.32,595.30 46.50,617.93 54.77,643.53 67.19,670.47 81.57,694.56 93.18,709.13 106.06,721.28 124.67,734.67 144.95,745.71 165.13,753.68 185.82,758.64 207.97,760.00 229.58,758.61 246.30,756.06 262.45,751.51 279.92,744.00 298.14,733.43 324.74,713.93 351.84,689.88 402.09,630.98 596.41,374.83 620.95,333.66 636.90,299.99 643.05,282.23 646.80,265.06 649.23,243.76 649.44,221.75 647.07,199.90 642.35,178.20 634.42,154.20 624.43,131.98 614.45,115.70 603.25,101.69 590.94,89.63 577.15,78.94 558.16,66.60 536.99,56.03 510.45,47.10 482.53,41.58 454.11,40.00 426.01,42.23 399.39,48.59 376.24,56.89 366.52,61.39 357.11,67.31 334.35,85.41 310.79,107.39 281.12,143.29 160.24,321.35 149.57,337.44"
        fill="none"
        stroke="#e94560"
        stroke-width="8.0"
        stroke-linejoin="round"
        stroke-linecap="round"/>
  <!-- Start/finish line -->
  <line x1="166.22" y1="348.51" x2="132.91" y2="326.37"
        stroke="#f5f5f5" stroke-width="9.6"
        stroke-linecap="round"/>
</svg>
