<?xml version="1.0" encoding="utf-8"?>
<svg xmlns="http://www.w3.org/2000/svg"
     width="473.0" height="800.0"
     viewBox="0 0 473.0 800.0">
  <rect width="100%" height="100%" fill="#1a1a2e"/>
  <!-- Track outline -->
  <polyline points="254.01,255.49 248.88,253.61 154.26,212.72 135.11,206.73 120.16,203.54 114.39,203.15 108.82,203.37 85.24,205.68 73.59,208.62 63.32,212.72 54.60,217.87 50.86,220.69 47.49,223.92 45.29,226.62 43.29,229.56 41.76,232.67 40.93,235.02 40.29,237.45 40.00,239.92 40.17,242.39 40.93,245.89 42.43,249.39 44.17,252.25 47.04,254.13 50.19,255.46 53.71,256.21 57.23,256.47 62.06,255.96 67.28,254.66 86.82,248.67 96.03,247.62 117.10,247.46 140.51,249.93 169.49,256.41 267.48,289.09 285.49,296.23 302.19,305.29 306.43,308.19 310.08,311.26 313.67,314.99 316.92,319.04 319.65,323.08 322.00,327.40 324.23,332.59 325.87,338.05 326.69,343.46 326.76,348.90 326.13,354.17 324.71,359.11 323.31,361.93 321.55,364.57 319.47,366.85 317.05,368.77 314.30,370.35 311.39,371.57 306.52,372.70 301.40,373.01 296.05,372.55 290.71,371.34 285.29,369.30 280.21,366.67 276.17,363.85 272.45,360.67 265.02,353.04 244.02,327.71 237.46,321.19 232.86,317.93 227.77,315.23 222.31,313.32 216.66,312.27 210.96,312.21 205.36,313.05 201.93,314.02 198.61,315.34 195.57,317.01 192.93,318.98 190.53,321.31 188.52,323.86 186.94,326.60 185.71,329.59 184.88,332.67 184.46,337.66 184.86,342.78 185.96,348.01 187.66,353.20 189.76,358.37 192.53,363.70 204.22,380.21 212.19,388.26 221.50,395.64 258.82,413.61 266.81,418.41 271.40,421.93 275.75,425.94 279.20,429.87 282.58,434.96 292.23,454.97 300.46,475.56 303.03,486.23 304.02,496.46 303.96,501.17 303.39,505.83 302.11,510.89 300.09,515.69 298.33,518.39 296.25,520.86 293.85,523.04 290.86,525.10 287.51,526.85 284.11,528.06 281.00,528.60 277.86,528.68 274.70,528.43 269.70,527.34 264.77,525.53 259.76,522.92 255.06,519.83 247.69,513.61 240.74,505.87 234.85,496.30 229.71,485.67 222.05,465.14 217.18,456.11 212.06,448.34 208.75,444.45 205.36,441.16 197.62,434.88 188.96,429.77 179.72,425.92 170.20,423.53 160.63,422.69 151.37,423.43 139.63,426.05 130.46,429.34 121.73,433.25 117.30,435.78 113.11,438.81 105.07,445.89 97.48,453.59 94.03,457.61 90.81,462.43 80.80,481.80 70.77,505.54 63.79,527.32 58.98,549.11 56.72,569.39 56.75,588.62 59.09,603.93 62.48,616.66 64.40,621.68 66.55,625.97 72.08,634.90 79.03,642.75 86.69,649.11 90.62,651.74 94.86,654.03 100.43,656.19 106.32,657.73 112.01,658.45 117.72,658.56 123.44,658.13 129.11,657.18 134.81,655.74 140.38,653.78 145.96,651.15 151.14,648.14 158.54,642.46 165.12,635.81 170.53,628.58 176.16,619.34 184.49,599.28 192.04,580.79 194.69,576.35 197.45,572.87 201.46,568.77 206.07,565.31 209.36,563.70 212.86,562.53 216.42,561.75 220.03,561.29 223.69,561.23 227.24,561.62 230.60,562.49 233.86,563.81 236.80,565.52 239.30,567.64 241.51,570.15 243.40,572.91 245.69,577.60 247.31,582.73 248.27,588.43 248.65,594.20 248.15,604.26 246.13,615.09 239.81,635.70 214.30,693.83 210.85,704.57 209.33,715.53 209.46,726.63 210.29,732.06 211.68,737.35 213.65,742.36 216.18,747.03 219.04,751.11 222.53,754.61 225.58,756.71 229.00,758.44 232.54,759.59 236.08,760.00 239.75,759.86 243.35,759.28 248.88,757.49 254.07,754.94 258.29,752.20 262.17,749.05 269.77,741.22 276.54,731.32 305.38,671.20 355.64,577.64 390.99,509.14 395.19,497.72 397.56,488.51 398.34,483.22 398.46,478.34 398.02,473.65 396.89,468.36 386.41,438.77 384.57,429.38 383.98,419.44 385.00,397.41 393.55,347.17 404.19,298.45 430.65,186.29 432.69,167.53 432.95,153.47 431.69,143.19 429.17,133.52 423.99,121.41 416.40,107.78 403.94,91.70 389.95,76.71 378.25,65.78 367.44,57.38 362.27,54.49 356.92,52.21 335.22,44.14 323.81,40.89 318.33,40.12 312.93,40.00 307.99,40.62 303.25,41.87 298.78,43.75 294.64,46.24 290.96,49.33 287.73,52.91 284.94,56.94 282.61,61.31 280.67,66.05 279.23,71.01 278.24,76.32 277.95,81.71 278.53,87.05 279.91,92.23 282.19,97.20 285.17,101.85 288.75,106.26 292.89,110.19 297.62,113.42 302.75,116.10 314.17,120.24 334.98,125.69 345.24,129.42 354.31,134.69 358.65,137.88 362.66,141.50 366.30,145.79 369.47,150.52 372.14,155.65 374.45,161.41 379.54,180.95 382.60,203.33 383.85,234.88 383.02,244.12 381.80,249.74 380.04,255.34 377.78,260.47 374.96,265.20 371.49,269.44 367.49,273.15 363.10,276.16 358.31,278.48 353.14,280.05 347.71,281.02 336.05,281.59 326.67,280.56 316.92,278.38 254.01,255.49"
        fill="none"
        stroke="#e94560"
        stroke-width="8.0"
        stroke-linejoin="round"
        stroke-linecap="round"/>
  <!-- Start/finish line -->
  <line x1="247.17" y1="274.28" x2="260.85" y2="236.69"
        stroke="#f5f5f5" stroke-width="9.6"
        stroke-linecap="round"/>
</svg>
