<?xml version="1.0" encoding="utf-8"?>
<svg xmlns="http://www.w3.org/2000/svg"
     width="800.0" height="777.5"
     viewBox="0 0 800.0 777.5">
  <rect width="100%" height="100%" fill="#1a1a2e"/>
  <!-- Track outline -->
  <polyline points="204.84,448.04 478.19,697.02 511.28,717.95 541.09,729.53 567.12,735.24 594.40,737.46 621.31,734.61 648.84,725.25 675.75,710.66 699.75,692.74 718.32,673.39 734.36,651.19 746.74,629.30 753.31,613.92 757.85,598.86 760.00,582.52 759.37,560.48 755.58,537.01 748.88,514.96 733.73,488.32 708.46,458.51 496.63,245.84 281.26,56.33 264.72,46.66 252.34,41.90 238.06,40.00 217.73,40.16 194.74,43.17 171.12,49.20 149.14,57.92 122.48,74.10 97.60,94.87 76.76,117.55 63.49,136.74 53.01,157.19 45.56,178.60 41.39,200.49 40.00,223.33 41.89,246.00 49.09,272.01 60.21,297.86 71.58,318.95 80.93,331.64 92.67,343.69 204.84,448.04"
        fill="none"
        stroke="#e94560"
        stroke-width="8.0"
        stroke-linejoin="round"
        stroke-linecap="round"/>
  <!-- Start/finish line -->
  <line x1="218.36" y1="433.30" x2="191.33" y2="462.79"
        stroke="#f5f5f5" stroke-width="9.6"
        stroke-linecap="round"/>
</svg>
