<?xml version="1.0" encoding="utf-8"?>
<svg xmlns="http://www.w3.org/2000/svg"
     width="552.7" height="800.0"
     viewBox="0 0 552.7 800.0">
  <rect width="100%" height="100%" fill="#1a1a2e"/>
  <!-- Track outline -->
  <polyline points="507.94,327.30 506.82,315.81 503.28,283.19 486.87,218.57 473.77,185.73 457.52,154.60 435.18,123.25 412.68,97.83 402.01,88.38 390.93,80.74 369.79,67.93 346.41,56.23 323.55,47.74 302.32,42.08 290.78,40.37 279.11,40.00 257.24,40.43 232.31,43.95 195.71,56.55 162.74,71.99 151.71,78.50 141.63,86.57 118.33,109.95 96.75,135.21 83.41,156.57 74.01,174.30 64.93,197.42 50.99,260.38 41.08,335.57 40.00,494.44 44.02,524.93 58.92,580.57 78.31,636.32 89.10,656.35 99.82,671.68 116.62,691.22 139.80,713.86 165.85,730.68 195.91,745.85 221.84,754.34 246.05,758.66 272.34,760.00 293.60,757.81 317.30,752.52 352.07,738.48 383.45,722.89 403.64,710.82 412.24,704.25 421.00,695.97 436.37,677.18 451.43,655.23 471.22,616.62 486.71,576.46 498.14,531.07 512.68,419.52 512.00,369.64 507.94,327.30"
        fill="none"
        stroke="#e94560"
        stroke-width="8.0"
        stroke-linejoin="round"
        stroke-linecap="round"/>
  <!-- Start/finish line -->
  <line x1="488.03" y1="329.21" x2="527.85" y2="325.38"
        stroke="#f5f5f5" stroke-width="9.6"
        stroke-linecap="round"/>
</svg>
