<?xml version="1.0" encoding="utf-8"?>
<svg xmlns="http://www.w3.org/2000/svg"
     width="537.7" height="800.0"
     viewBox="0 0 537.7 800.0">
  <rect width="100%" height="100%" fill="#1a1a2e"/>
  <!-- Track outline -->
  <polyline points="52.48,394.79 44.72,469.85 40.00,523.19 41.68,564.70 46.62,599.56 55.10,625.68 76.66,666.85 82.28,675.26 88.90,683.02 113.01,705.26 138.33,725.74 155.20,736.36 175.05,745.19 195.95,752.66 220.34,757.53 256.60,760.00 266.77,759.45 276.75,757.87 291.94,754.15 308.75,747.84 335.12,732.73 359.09,716.05 367.42,709.22 375.08,701.33 393.16,678.97 409.91,655.03 420.31,634.13 435.05,589.37 495.43,294.18 497.69,252.41 495.61,219.34 491.58,197.36 485.36,177.44 475.76,155.12 464.97,135.37 457.93,124.83 449.48,114.88 422.63,89.15 394.33,66.03 383.11,59.20 373.01,54.55 353.16,47.42 310.97,40.51 286.95,40.00 268.06,41.54 248.03,45.42 226.50,53.87 207.14,63.81 189.30,75.46 163.29,97.82 136.20,126.49 119.03,152.09 104.38,181.32 74.31,273.02 53.38,386.09 52.48,394.79"
        fill="none"
        stroke="#e94560"
        stroke-width="8.0"
        stroke-linejoin="round"
        stroke-linecap="round"/>
  <!-- Start/finish line -->
  <line x1="72.37" y1="396.85" x2="32.59" y2="392.74"
        stroke="#f5f5f5" stroke-width="9.6"
        stroke-linecap="round"/>
</svg>
