<?xml version="1.0" encoding="utf-8"?>
<svg xmlns="http://www.w3.org/2000/svg"
     width="567.0" height="800.0"
     viewBox="0 0 567.0 800.0">
  <rect width="100%" height="100%" fill="#1a1a2e"/>
  <!-- Track outline -->
  <polyline points="349.33,365.65 125.70,740.69 122.90,745.07 121.49,747.00 119.27,749.26 117.50,750.65 115.13,752.12 113.63,753.06 111.92,753.95 109.68,754.94 107.69,755.90 105.46,756.81 102.12,757.81 98.76,758.71 95.04,759.21 93.24,759.37 89.82,759.86 87.37,760.00 82.32,759.89 75.45,758.67 70.05,757.24 65.22,755.50 60.53,753.02 55.53,749.05 52.83,746.02 48.84,740.81 45.98,736.09 43.57,731.61 42.26,728.38 41.23,724.38 40.29,720.51 40.00,716.74 40.15,712.70 40.86,709.03 42.46,704.44 44.02,700.86 46.23,697.45 57.48,683.53 169.61,553.71 172.99,548.91 176.60,543.90 180.19,538.05 184.47,529.01 188.30,519.39 190.89,509.63 193.30,497.23 194.27,488.04 194.54,481.47 194.15,473.43 192.80,460.24 186.79,394.13 186.19,388.41 185.96,384.27 186.06,379.83 186.24,375.14 186.80,371.41 187.88,367.58 188.75,364.48 190.34,360.57 191.93,357.26 193.59,354.46 195.89,351.02 197.97,348.00 199.96,345.25 201.66,343.32 206.73,336.98 213.48,329.73 220.11,321.80 226.72,313.60 231.83,307.46 235.90,303.00 240.78,297.99 245.47,294.05 249.93,291.51 262.26,284.59 270.37,280.31 309.67,261.24 332.40,249.51 338.07,246.60 343.98,243.83 350.13,240.35 354.07,237.42 359.50,232.44 361.79,229.35 364.61,224.92 366.62,219.79 368.29,214.35 368.57,207.92 367.37,200.61 365.50,193.13 364.70,187.46 365.58,179.82 368.89,170.17 374.98,156.81 378.09,151.38 382.60,144.25 388.29,134.67 429.70,67.69 433.84,60.80 438.53,54.25 442.47,49.59 446.91,45.86 452.65,42.47 458.55,40.67 463.94,40.00 469.95,40.36 476.29,42.37 481.45,44.53 485.48,46.71 488.50,48.83 491.58,51.23 494.17,54.65 495.76,57.45 497.23,61.08 498.94,66.80 502.34,82.27 526.05,217.60 526.85,221.65 526.99,226.34 526.90,228.57 526.41,232.23 525.50,236.23 523.83,240.14 521.88,243.11 518.16,246.45 513.88,248.92 510.15,250.36 507.90,250.64 503.75,250.78 498.65,249.83 493.01,247.98 489.60,246.31 485.02,244.50 480.26,242.12 476.02,241.15 468.26,239.44 459.18,238.11 450.82,238.31 445.75,239.45 436.78,242.48 431.32,244.63 426.86,247.10 422.56,249.44 417.82,252.74 414.00,255.98 409.71,260.61 405.07,267.44 400.71,275.57 396.96,282.99 388.91,298.50 371.68,329.34 363.50,342.97 349.87,364.74 349.33,365.65"
        fill="none"
        stroke="#e94560"
        stroke-width="8.0"
        stroke-linejoin="round"
        stroke-linecap="round"/>
  <!-- Start/finish line -->
  <line x1="366.51" y1="375.89" x2="332.15" y2="355.40"
        stroke="#f5f5f5" stroke-width="9.6"
        stroke-linecap="round"/>
</svg>
