<?xml version="1.0" encoding="utf-8"?>
<svg xmlns="http://www.w3.org/2000/svg"
     width="800.0" height="526.9"
     viewBox="0 0 800.0 526.9">
  <rect width="100%" height="100%" fill="#1a1a2e"/>
  <!-- Track outline -->
  <polyline points="470.77,217.12 480.82,205.04 517.68,159.01 589.52,63.52 602.66,47.19 605.09,44.64 607.34,42.55 609.57,41.04 611.41,40.37 613.23,40.09 615.11,40.00 617.27,40.00 619.49,40.22 621.71,40.74 624.67,42.07 628.61,44.64 690.42,90.28 751.60,139.64 755.69,144.37 757.98,148.31 759.21,151.68 759.87,155.04 760.00,158.15 759.76,161.20 759.22,164.02 758.44,166.71 757.71,169.00 756.35,171.78 707.96,234.00 634.12,331.18 569.66,412.91 567.53,414.76 565.92,415.79 564.15,416.54 561.54,417.21 558.70,417.48 555.94,417.39 552.40,416.55 548.85,415.24 540.18,411.84 533.35,410.27 526.32,409.58 521.05,410.10 515.65,411.57 497.53,419.96 394.55,473.68 375.45,481.54 370.71,482.45 366.21,482.77 360.14,482.96 354.05,482.46 349.11,481.08 344.04,478.99 327.68,470.49 316.49,465.59 303.33,462.06 290.65,459.45 275.25,458.34 260.96,459.69 156.72,474.86 87.45,486.26 80.34,486.89 77.37,486.78 74.49,486.26 71.56,485.06 68.78,483.46 66.43,481.93 64.34,480.04 63.11,478.41 62.04,476.54 61.16,474.44 60.35,470.62 59.67,465.26 45.96,377.33 40.00,335.50 40.03,332.29 40.39,329.76 41.06,326.89 42.08,324.22 42.94,322.72 43.95,321.35 45.14,320.17 47.71,318.63 50.68,317.45 58.30,315.24 83.84,311.06 100.38,309.65 121.42,309.32 149.75,309.76 164.86,310.53 180.04,312.25 198.54,316.70 312.33,348.73 341.55,354.36 346.78,354.85 351.37,354.76 356.44,354.04 361.19,352.66 364.52,350.93 367.62,348.60 374.95,340.61 470.77,217.12"
        fill="none"
        stroke="#e94560"
        stroke-width="8.0"
        stroke-linejoin="round"
        stroke-linecap="round"/>
  <!-- Start/finish line -->
  <line x1="455.00" y1="204.81" x2="486.53" y2="229.43"
        stroke="#f5f5f5" stroke-width="9.6"
        stroke-linecap="round"/>
</svg>
