<?xml version="1.0" encoding="utf-8"?>
<svg xmlns="http://www.w3.org/2000/svg"
     width="800.0" height="531.3"
     viewBox="0 0 800.0 531.3">
  <rect width="100%" height="100%" fill="#1a1a2e"/>
  <!-- Track outline -->
  <polyline points="334.80,452.43 460.94,477.09 572.81,491.30 605.49,490.50 640.72,484.79 671.73,476.36 685.29,469.91 698.62,461.48 716.35,447.50 731.63,432.68 736.95,425.78 741.21,417.80 749.63,393.69 756.30,368.06 759.35,345.66 760.00,335.13 759.35,323.08 752.13,287.26 740.14,248.84 728.25,224.17 713.11,202.16 689.55,177.21 659.97,154.18 607.99,125.61 546.99,100.54 381.37,56.13 299.44,42.55 254.17,40.00 233.71,41.81 213.86,44.81 190.62,51.49 163.49,62.01 153.77,67.10 140.44,75.48 114.57,93.53 90.31,119.89 80.78,134.27 73.00,145.47 60.74,167.48 50.18,190.62 45.37,204.77 42.22,217.78 40.60,227.06 40.00,237.07 41.20,260.56 45.83,286.92 57.64,317.19 71.52,343.90 78.93,356.12 86.57,365.80 94.20,372.93 103.18,379.32 118.78,389.00 140.17,399.01 329.11,451.29 334.80,452.43"
        fill="none"
        stroke="#e94560"
        stroke-width="8.0"
        stroke-linejoin="round"
        stroke-linecap="round"/>
  <!-- Start/finish line -->
  <line x1="338.65" y1="432.80" x2="330.96" y2="472.05"
        stroke="#f5f5f5" stroke-width="9.6"
        stroke-linecap="round"/>
</svg>
