<?xml version="1.0" encoding="utf-8"?>
<svg xmlns="http://www.w3.org/2000/svg"
     width="566.1" height="800.0"
     viewBox="0 0 566.1 800.0">
  <rect width="100%" height="100%" fill="#1a1a2e"/>
  <!-- Track outline -->
  <polyline points="361.00,313.15 358.87,317.10 256.76,501.13 188.82,631.42 129.06,735.59 124.42,742.27 120.40,746.89 115.93,750.92 111.11,754.18 105.56,756.75 99.68,758.55 93.56,759.66 87.34,760.00 80.93,759.57 74.76,758.38 69.76,756.67 65.05,754.36 60.42,751.34 56.10,747.76 52.31,743.81 48.97,739.42 46.23,734.79 43.94,729.64 41.82,722.72 40.42,715.48 40.00,709.27 40.26,703.16 41.15,696.95 42.72,690.69 45.61,682.92 49.19,675.40 52.70,669.43 56.76,663.85 69.01,651.43 115.29,611.99 124.50,601.59 132.27,590.64 151.75,554.20 176.15,496.82 201.91,445.84 251.59,358.13 374.06,152.93 426.36,64.40 430.86,58.37 434.89,54.14 440.02,49.89 445.61,46.35 451.78,43.50 458.26,41.47 465.17,40.29 472.17,40.00 479.04,40.58 485.73,41.99 491.75,44.00 497.42,46.75 502.55,50.26 507.11,54.31 510.40,58.05 513.19,62.26 515.83,67.72 517.82,73.70 519.00,79.95 519.40,86.37 518.96,92.84 517.76,99.24 515.80,105.64 513.13,111.77 505.56,123.21 464.27,176.14 459.22,184.73 455.82,192.32 453.58,198.97 452.16,205.81 451.48,214.10 451.80,222.62 453.22,230.92 455.72,239.13 459.78,248.31 465.19,257.47 483.85,279.62 508.13,302.49 513.30,308.74 517.37,314.92 520.70,321.43 523.29,328.29 525.01,335.31 525.97,342.56 526.11,350.15 525.51,357.77 524.21,365.43 522.25,372.92 519.64,380.40 516.47,387.33 513.31,392.54 509.53,397.49 503.00,404.61 495.66,411.39 481.66,421.37 449.24,438.51 414.27,457.17 401.53,466.31 389.61,476.96 362.58,510.42 338.35,545.91 334.17,550.66 330.29,554.12 326.09,556.94 321.86,558.94 319.54,559.62 317.25,560.00 314.99,560.09 312.80,559.96 310.61,559.58 308.46,558.89 306.10,557.75 303.77,556.27 301.63,554.45 299.69,552.26 297.93,549.75 296.44,547.01 294.68,542.32 293.58,537.25 293.22,531.71 293.68,526.07 295.20,520.15 297.47,514.54 300.05,509.89 303.19,505.56 307.70,500.56 313.10,495.72 330.78,484.29 397.89,441.09 446.61,406.70 453.59,400.38 459.02,394.24 464.07,387.09 468.24,379.53 471.00,372.77 472.93,365.77 474.05,358.04 474.32,350.16 473.77,342.59 472.30,335.04 469.41,326.44 465.30,317.90 459.32,308.57 451.46,299.18 415.85,269.44 391.27,247.07 385.00,240.02 380.47,233.99 379.06,231.60 378.10,229.34 377.32,226.86 376.81,223.94 376.53,217.15 376.95,209.62 378.06,203.27 379.82,196.90 386.47,180.41 430.79,96.53 438.50,83.08 441.00,80.22 443.67,78.08 445.91,76.84 448.35,75.88 450.79,75.24 453.11,74.94 455.44,74.93 457.79,75.26 460.47,76.06 463.16,77.25 465.59,78.72 467.44,80.17 469.09,81.81 470.44,83.68 471.45,85.72 472.19,87.98 472.63,90.34 472.72,94.12 472.07,98.42 469.22,107.50 464.63,118.55 441.53,164.41 361.00,313.15"
        fill="none"
        stroke="#e94560"
        stroke-width="8.0"
        stroke-linejoin="round"
        stroke-linecap="round"/>
  <!-- Start/finish line -->
  <line x1="378.59" y1="322.67" x2="343.41" y2="303.63"
        stroke="#f5f5f5" stroke-width="9.6"
        stroke-linecap="round"/>
</svg>
