<?xml version="1.0" encoding="utf-8"?>
<svg xmlns="http://www.w3.org/2000/svg"
     width="800.0" height="410.5"
     viewBox="0 0 800.0 410.5">
  <rect width="100%" height="100%" fill="#1a1a2e"/>
  <!-- Track outline -->
  <polyline points="328.21,222.96 291.22,210.71 217.17,188.65 140.94,164.07 78.04,137.91 44.06,111.12 41.31,103.99 40.00,96.15 40.00,87.92 41.10,79.62 43.18,71.53 46.09,64.05 49.62,57.46 53.61,52.08 57.94,48.27 65.34,45.49 74.91,44.92 85.95,46.20 97.69,48.87 109.39,52.61 120.35,57.03 129.82,61.66 146.50,75.84 160.61,93.87 174.88,110.26 192.39,126.80 215.22,140.73 262.43,154.66 327.36,167.20 390.66,174.58 432.92,172.87 439.44,170.23 444.63,166.88 448.69,162.93 451.79,158.54 454.17,153.98 455.75,149.17 456.50,143.86 456.50,138.34 455.69,132.96 454.17,128.04 451.79,123.20 448.72,118.53 444.65,114.18 439.44,110.26 432.89,106.91 395.12,102.46 339.41,104.38 284.05,107.38 247.35,106.06 240.03,103.81 235.00,101.11 230.38,97.29 227.01,94.09 223.43,90.24 219.98,85.96 217.09,81.47 215.14,76.95 214.55,72.67 215.28,68.65 216.96,64.41 219.53,60.06 222.81,55.86 226.74,51.94 231.21,48.41 236.07,45.52 266.06,40.00 304.69,40.39 334.55,42.03 359.78,46.59 411.08,56.35 430.22,63.91 486.43,97.47 501.35,107.95 505.31,111.30 508.97,115.11 515.65,123.87 521.24,133.50 522.63,137.66 523.40,141.69 523.72,145.79 523.70,150.35 523.24,154.98 522.23,159.26 519.80,164.32 516.85,168.59 515.09,170.84 512.71,173.12 497.69,183.34 481.76,195.56 477.88,200.48 475.10,205.40 473.39,210.46 472.86,215.48 473.26,220.65 474.41,225.71 476.28,230.87 478.98,235.90 482.53,240.82 491.81,249.72 503.68,258.35 523.03,270.42 542.84,279.94 550.32,282.08 557.27,283.14 564.03,283.36 570.56,282.72 576.95,281.29 582.53,279.30 586.11,277.37 589.22,275.09 592.00,272.53 594.53,269.68 596.73,266.54 598.54,262.94 600.87,253.96 601.94,244.84 601.59,235.22 599.83,223.93 581.49,153.34 580.74,147.53 580.90,142.47 582.53,132.11 585.93,121.52 591.41,113.04 597.26,106.38 599.75,104.10 602.34,102.25 606.67,99.47 611.94,96.72 621.61,93.13 631.34,90.31 640.57,88.96 660.83,87.78 695.44,88.49 728.11,91.06 734.95,92.63 740.22,94.84 743.69,96.87 746.90,99.33 749.92,102.35 753.69,107.45 757.14,113.47 759.39,118.99 759.97,122.06 760.00,124.94 759.60,127.97 758.37,132.60 756.42,137.52 753.96,141.76 751.37,144.54 748.43,146.82 745.59,148.71 743.11,150.21 740.03,151.56 722.02,156.69 702.96,162.36 697.77,164.78 693.36,167.63 686.06,173.62 679.54,180.06 674.46,187.08 665.48,203.83 658.29,223.39 639.26,307.73 634.95,321.27 630.35,331.89 625.92,339.23 620.73,345.57 614.26,351.45 607.02,356.62 598.87,361.10 590.18,364.77 581.20,367.70 572.03,369.66 562.94,370.55 553.88,370.37 545.06,368.98 536.48,366.48 527.89,362.57 520.38,358.11 516.59,355.37 513.11,352.16 506.96,345.04 500.92,336.55 496.25,327.47 491.19,317.74 482.02,304.24 470.40,290.70 454.22,276.84 433.94,263.87 347.49,229.38 328.21,222.96"
        fill="none"
        stroke="#e94560"
        stroke-width="8.0"
        stroke-linejoin="round"
        stroke-linecap="round"/>
  <!-- Start/finish line -->
  <line x1="321.92" y1="241.95" x2="334.51" y2="203.98"
        stroke="#f5f5f5" stroke-width="9.6"
        stroke-linecap="round"/>
</svg>
