<?xml version="1.0" encoding="utf-8"?>
<svg xmlns="http://www.w3.org/2000/svg"
     width="800.0" height="766.0"
     viewBox="0 0 800.0 766.0">
  <rect width="100%" height="100%" fill="#1a1a2e"/>
  <!-- Track outline -->
  <polyline points="352.69,658.79 446.50,696.50 531.37,724.81 540.61,725.96 549.38,725.52 573.28,721.53 597.85,715.02 611.19,709.61 621.97,703.88 627.52,700.37 632.22,696.42 637.07,690.74 641.96,683.39 653.63,662.43 663.85,640.67 666.58,632.26 668.26,624.56 670.38,607.27 669.77,584.84 669.10,576.86 668.06,568.89 665.83,561.90 664.04,558.74 661.89,555.78 659.44,553.17 656.70,550.92 653.66,549.26 649.89,548.00 645.76,547.25 641.26,547.13 636.38,547.76 631.10,549.19 606.59,565.18 577.41,590.60 552.70,611.57 538.18,622.47 526.18,629.14 521.82,630.09 517.78,630.05 512.83,629.26 500.10,626.02 483.52,620.45 467.41,613.54 455.96,606.24 452.19,601.94 449.57,597.36 447.92,592.54 447.00,587.60 446.78,583.14 447.09,578.32 447.98,573.55 449.43,569.01 451.47,565.14 456.38,560.52 462.80,556.96 469.31,553.02 476.76,547.80 484.36,542.12 490.33,535.17 493.68,528.18 496.08,520.13 497.23,511.68 496.81,503.38 491.25,490.39 482.18,477.32 475.12,465.72 472.71,459.44 471.15,453.79 470.59,448.54 470.68,445.97 470.96,443.41 471.54,440.96 472.44,438.83 473.75,437.09 476.48,435.63 480.06,435.00 483.99,434.56 487.76,433.89 492.96,432.67 498.12,431.21 502.45,428.76 504.51,426.55 506.30,423.94 507.72,420.94 508.79,417.66 509.46,414.11 508.67,406.49 505.91,397.65 503.17,388.25 502.42,379.09 506.33,364.83 513.00,350.54 518.86,340.63 520.34,338.74 521.71,337.43 523.22,336.37 525.65,334.91 528.83,333.80 543.13,331.83 558.26,331.12 563.09,331.39 567.33,332.14 572.39,333.56 577.72,335.73 586.15,340.39 594.02,345.65 601.14,352.04 639.56,393.58 649.89,403.02 659.52,409.77 664.29,411.90 668.98,413.20 674.29,413.91 684.17,413.79 695.23,412.57 703.94,410.79 707.85,409.25 710.95,407.40 713.93,405.35 716.89,402.66 721.89,396.58 727.14,388.29 735.93,369.30 744.39,346.32 753.86,316.27 760.00,286.93 759.89,268.65 757.65,254.08 756.15,248.99 754.14,244.68 751.12,239.55 747.07,234.26 738.56,225.14 728.28,216.81 717.45,211.95 707.21,209.07 702.35,208.24 697.85,208.00 687.86,208.44 652.54,216.65 454.57,272.48 447.17,273.71 441.11,273.82 426.96,272.28 413.86,269.44 409.79,267.82 406.52,265.85 403.59,263.64 400.66,260.56 393.45,249.86 386.92,238.29 383.18,229.09 381.95,224.51 381.22,219.93 381.03,215.86 381.50,211.36 384.83,199.48 389.18,188.14 391.00,184.71 393.01,181.91 395.55,178.87 398.98,175.82 409.53,169.82 422.71,163.86 454.73,152.33 488.29,135.95 491.84,133.46 494.55,130.77 497.17,127.69 499.71,124.02 501.78,119.76 503.68,112.61 504.71,104.32 504.71,96.34 503.65,89.35 501.72,82.60 499.29,77.04 497.62,74.31 495.69,72.18 492.84,69.77 470.15,55.83 445.08,43.51 437.26,41.11 430.75,40.12 426.40,40.00 421.73,40.71 408.50,45.21 395.07,51.45 383.40,59.82 344.04,94.01 294.20,142.30 275.05,164.02 261.06,182.73 258.16,188.34 256.48,194.15 254.31,211.79 254.19,229.09 254.95,233.83 256.87,238.60 271.75,261.94 294.96,293.29 398.39,420.98 403.28,428.96 406.35,435.79 410.01,446.76 412.55,457.23 413.58,466.43 413.55,470.89 413.14,475.23 412.35,479.22 410.99,483.40 407.27,491.06 402.75,498.37 399.93,501.80 396.36,505.00 383.82,513.65 370.31,521.66 359.56,526.56 354.34,528.18 348.87,529.01 341.80,528.61 334.13,526.92 322.37,522.18 311.62,516.57 307.32,513.81 303.72,510.85 299.81,507.10 295.93,501.88 286.55,481.43 277.03,455.17 258.55,390.30 241.77,340.00 237.05,330.33 232.19,322.35 227.42,315.76 221.92,309.60 213.29,302.06 204.47,295.66 199.72,292.86 194.67,290.68 183.98,287.33 173.03,284.96 167.31,284.48 162.03,284.64 156.70,285.27 150.98,286.62 140.42,290.45 130.04,295.26 119.04,302.77 90.28,327.96 72.58,347.22 64.26,359.50 56.92,372.65 50.58,386.35 45.56,400.29 42.48,412.93 40.61,425.60 40.00,451.34 45.39,490.24 48.04,499.63 51.17,507.61 53.93,513.37 57.78,519.34 71.55,535.52 87.60,551.36 95.39,557.63 105.80,563.68 339.54,653.50 352.69,658.79"
        fill="none"
        stroke="#e94560"
        stroke-width="8.0"
        stroke-linejoin="round"
        stroke-linecap="round"/>
  <!-- Start/finish line -->
  <line x1="360.15" y1="640.24" x2="345.23" y2="677.35"
        stroke="#f5f5f5" stroke-width="9.6"
        stroke-linecap="round"/>
</svg>
