<?xml version="1.0" encoding="utf-8"?>
<svg xmlns="http://www.w3.org/2000/svg"
     width="800.0" height="597.4"
     viewBox="0 0 800.0 597.4">
  <rect width="100%" height="100%" fill="#1a1a2e"/>
  <!-- Track outline -->
  <polyline points="339.62,485.44 446.37,528.34 531.22,556.64 549.22,557.35 564.07,555.10 580.96,551.95 597.67,546.85 609.82,541.84 621.79,535.72 632.03,528.26 641.77,515.24 649.50,500.83 657.26,486.98 663.65,472.53 668.06,456.43 670.18,439.14 669.57,416.72 665.64,393.78 657.65,371.05 647.30,351.43 640.54,343.06 631.39,334.69 596.39,308.49 549.61,274.70 517.54,244.94 512.52,234.71 510.51,225.36 509.53,216.12 508.78,207.44 508.89,198.83 510.34,190.62 512.38,184.39 515.17,178.19 518.72,172.59 523.07,168.32 528.68,165.76 535.32,164.41 542.24,163.86 548.66,163.47 558.10,163.07 567.17,164.10 577.55,167.69 587.29,172.82 593.85,177.60 600.97,183.99 617.96,202.19 639.37,225.52 659.33,241.70 666.86,244.58 674.09,245.84 681.07,246.04 687.85,245.73 695.95,244.74 703.73,242.73 710.74,239.33 716.68,234.59 721.82,228.40 726.93,220.23 744.17,178.27 757.24,133.86 759.78,118.90 760.00,105.68 759.22,95.89 757.43,86.06 753.92,76.67 746.85,66.25 737.56,56.42 728.07,48.80 721.12,45.09 714.06,42.68 707.00,41.07 697.65,40.00 687.66,40.43 652.35,48.64 602.67,57.92 540.46,70.99 494.41,90.96 481.82,109.23 475.40,130.15 469.57,148.11 465.30,157.31 461.28,165.24 456.14,170.93 452.82,172.74 449.19,173.85 445.26,174.40 440.99,174.44 436.35,174.05 420.08,168.20 401.19,158.65 384.22,152.18 377.18,151.15 370.60,150.80 364.57,151.39 359.21,153.20 355.36,155.85 351.73,159.44 348.55,163.59 346.12,167.85 344.70,171.84 344.33,175.23 344.81,178.47 346.04,182.02 347.85,186.36 365.71,213.67 392.34,249.79 410.42,280.11 413.16,290.17 413.83,298.82 413.02,307.14 410.87,315.31 407.33,323.13 402.64,330.27 396.25,336.91 388.54,342.71 380.17,347.96 370.21,353.56 359.46,358.46 348.77,360.90 341.43,360.55 334.03,358.81 326.81,356.13 319.97,352.93 311.54,348.47 303.64,342.75 295.85,333.79 276.96,287.09 258.48,222.24 241.71,171.95 232.13,154.31 221.86,141.56 213.60,134.02 204.42,127.63 194.62,122.65 184.10,119.06 172.99,116.93 162.00,116.61 150.94,118.59 140.03,122.42 130.01,127.23 119.01,134.73 108.32,144.09 90.27,159.91 72.57,179.18 56.91,204.60 45.55,232.23 40.61,257.53 40.00,283.26 41.73,302.56 45.39,322.14 51.16,339.51 57.78,351.23 65.84,361.46 74.69,370.89 87.59,383.24 105.78,395.56 339.62,485.44"
        fill="none"
        stroke="#e94560"
        stroke-width="8.0"
        stroke-linejoin="round"
        stroke-linecap="round"/>
  <!-- Start/finish line -->
  <line x1="346.88" y1="466.80" x2="332.35" y2="504.07"
        stroke="#f5f5f5" stroke-width="9.6"
        stroke-linecap="round"/>
</svg>
