<?xml version="1.0" encoding="utf-8"?>
<svg xmlns="http://www.w3.org/2000/svg"
     width="800.0" height="765.2"
     viewBox="0 0 800.0 765.2">
  <rect width="100%" height="100%" fill="#1a1a2e"/>
  <!-- Track outline -->
  <polyline points="406.63,680.19 446.37,696.18 531.22,724.48 549.22,725.19 564.07,722.94 580.96,719.78 597.67,714.69 609.82,709.68 621.79,703.56 632.03,696.10 641.77,683.07 649.50,668.67 657.26,654.81 663.65,640.36 668.06,624.26 670.18,606.97 669.57,584.55 665.64,561.62 657.65,538.88 647.30,519.27 640.54,510.90 631.39,502.53 596.39,476.32 549.61,442.53 517.54,412.77 512.52,402.55 510.51,393.19 509.53,383.96 508.78,375.27 508.89,366.67 510.34,358.46 512.38,352.22 515.17,346.02 518.72,340.42 523.07,336.16 528.68,333.59 535.32,332.25 542.24,331.70 548.66,331.30 558.10,330.91 567.17,331.93 577.55,335.52 587.29,340.66 593.85,345.43 600.97,351.83 617.96,370.02 639.37,393.35 659.33,409.53 666.86,412.42 674.09,413.68 681.07,413.88 687.85,413.56 695.95,412.57 703.73,410.56 710.74,407.17 716.68,402.43 721.82,396.23 726.93,388.06 744.17,346.10 757.24,301.70 759.78,286.74 760.00,273.51 759.22,263.73 757.43,253.90 753.92,244.50 746.85,234.08 737.56,224.25 728.07,216.64 721.12,212.93 714.06,210.52 707.00,208.90 697.65,207.83 687.66,208.27 652.35,216.48 454.44,272.29 440.99,273.63 430.38,272.84 422.04,271.50 413.75,269.25 406.41,265.66 400.54,260.37 395.60,253.78 391.28,246.56 386.81,238.11 383.07,228.91 381.12,219.75 381.40,211.19 383.27,202.66 386.11,194.69 389.07,187.98 392.90,181.74 398.87,175.66 422.59,163.70 454.61,152.18 480.03,141.17 488.15,135.80 494.41,130.63 499.12,124.63 501.64,119.61 503.34,114.17 504.34,108.44 504.73,102.68 504.57,96.21 503.70,89.46 501.97,82.87 499.15,76.91 492.70,69.64 484.11,63.37 474.39,57.60 460.50,50.14 444.95,43.39 430.63,40.00 421.62,40.59 413.27,43.00 405.32,46.24 394.96,51.33 383.30,59.70 343.94,93.88 294.12,142.15 260.99,182.57 256.42,193.98 254.88,203.93 254.46,213.52 253.85,221.37 254.13,228.91 256.81,238.42 294.88,293.09 355.39,365.64 398.28,420.74 406.24,435.55 410.42,447.94 412.43,456.98 413.47,466.18 413.02,474.98 410.87,483.15 407.33,490.96 402.64,498.11 396.25,504.74 388.54,510.54 380.17,515.79 370.21,521.40 359.46,526.29 348.77,528.74 341.43,528.38 334.03,526.65 326.81,523.96 319.97,520.77 311.54,516.31 303.64,510.58 295.85,501.62 276.96,454.93 258.48,390.07 241.71,339.79 232.13,322.14 221.86,309.39 213.60,301.86 204.42,295.46 194.62,290.49 184.10,286.90 172.99,284.76 162.00,284.45 150.94,286.42 140.03,290.25 130.01,295.07 119.01,302.57 108.32,311.92 90.27,327.75 72.57,347.01 56.91,372.43 45.55,400.06 40.61,425.36 40.00,451.10 41.73,470.40 45.39,489.98 51.16,507.35 57.78,519.07 65.84,529.29 74.69,538.73 87.59,551.08 105.78,563.40 339.62,653.27 406.63,680.19"
        fill="none"
        stroke="#e94560"
        stroke-width="8.0"
        stroke-linejoin="round"
        stroke-linecap="round"/>
  <!-- Start/finish line -->
  <line x1="414.09" y1="661.63" x2="399.17" y2="698.75"
        stroke="#f5f5f5" stroke-width="9.6"
        stroke-linecap="round"/>
</svg>
