<?xml version="1.0" encoding="utf-8"?>
<svg xmlns="http://www.w3.org/2000/svg"
     width="520.5" height="800.0"
     viewBox="0 0 520.5 800.0">
  <rect width="100%" height="100%" fill="#1a1a2e"/>
  <!-- Track outline -->
  <polyline points="244.29,758.80 294.26,760.00 350.26,753.98 375.85,746.54 400.11,735.13 428.76,719.62 448.86,709.55 458.24,705.76 469.50,687.75 471.43,677.05 472.64,665.91 478.53,643.05 480.49,622.45 474.96,505.81 462.24,285.14 450.31,145.86 446.74,131.91 442.38,120.90 436.77,109.22 429.98,98.21 421.50,87.69 412.32,78.24 396.50,65.00 385.43,57.65 373.50,51.19 361.76,46.77 349.75,43.57 325.73,40.00 301.52,40.53 277.34,44.72 254.06,52.57 230.48,57.38 207.52,62.95 196.96,67.90 187.97,73.70 180.04,80.47 170.90,88.09 141.97,103.83 113.00,119.34 103.51,125.80 95.97,132.53 88.04,142.29 81.72,153.25 77.76,164.71 75.80,176.57 75.60,184.54 76.27,192.57 78.03,200.23 80.98,207.36 85.02,214.14 89.69,220.51 98.40,229.65 108.25,237.45 117.95,243.07 128.23,247.39 139.50,250.82 151.23,253.18 176.98,254.97 198.10,253.32 224.20,248.19 235.62,243.91 246.25,238.43 255.75,232.01 264.31,224.57 271.30,216.72 277.65,207.36 286.25,188.69 295.08,169.79 302.42,159.09 310.74,150.49 317.22,145.86 324.28,142.11 331.58,139.75 337.08,139.04 342.77,139.08 348.46,139.84 353.84,141.27 360.98,144.56 367.77,149.15 373.62,154.41 378.05,159.81 381.70,165.82 384.73,172.20 388.38,182.98 390.46,194.39 390.89,206.47 389.51,218.64 386.18,230.76 380.84,243.20 357.02,280.15 346.42,300.34 339.43,321.33 335.74,342.99 336.72,387.88 340.41,409.85 347.40,430.00 356.90,448.54 381.23,485.13 392.42,505.37 401.29,525.73 407.14,545.70 409.10,558.67 409.69,572.13 408.39,585.46 405.72,598.21 402.66,608.01 398.58,617.46 391.99,629.23 384.33,640.33 377.54,648.22 370.24,655.21 362.12,661.81 353.37,667.74 333.78,677.28 312.04,684.05 288.64,687.17 264.90,686.41 241.07,681.42 217.37,672.91 195.62,661.54 176.70,647.55 160.65,630.92 147.19,611.49 135.49,589.78 126.19,565.71 114.57,517.00 110.53,473.90 110.61,460.84 111.90,448.89 114.53,437.40 118.77,426.79 122.54,420.64 127.09,415.02 132.43,410.16 139.26,405.66 147.03,402.05 154.92,399.96 160.77,399.60 166.85,400.09 172.78,401.34 178.24,403.34 183.26,406.11 188.05,409.63 192.33,413.77 195.94,418.36 199.78,425.67 202.49,433.87 204.02,442.12 204.02,453.40 202.02,464.63 197.74,476.39 192.95,488.30 186.60,514.15 185.46,526.40 186.09,538.44 189.07,549.94 193.86,560.81 200.25,570.75 207.87,579.67 215.88,587.24 224.75,593.44 231.14,596.42 237.89,598.65 244.80,600.08 255.40,600.57 265.96,599.23 272.71,597.40 279.26,594.86 285.31,591.52 290.76,587.33 295.71,582.34 300.03,576.90 305.25,567.68 308.90,557.56 310.94,546.19 311.41,534.34 310.51,522.66 307.72,508.40 288.17,438.20 265.29,370.14 259.64,358.64 254.06,349.99 247.55,341.08 240.33,332.88 224.20,319.06 205.95,307.65 196.45,303.28 186.67,299.85 176.59,297.49 166.34,296.06 155.98,295.35 145.66,295.61 135.49,296.95 125.52,299.27 106.06,306.62 96.75,311.44 87.96,317.19 79.99,324.10 72.69,331.85 60.06,348.97 54.68,358.46 50.13,368.44 43.61,390.68 40.00,414.84 45.49,523.33 45.38,580.07 42.63,631.72 45.10,655.79 47.69,667.29 51.23,678.39 55.78,688.82 61.19,698.80 67.32,708.21 74.26,716.99 82.11,724.83 90.71,731.88 99.89,738.07 109.71,743.42 131.45,751.62 155.39,756.66 244.29,758.80"
        fill="none"
        stroke="#e94560"
        stroke-width="8.0"
        stroke-linejoin="round"
        stroke-linecap="round"/>
  <!-- Start/finish line -->
  <line x1="244.77" y1="738.80" x2="243.81" y2="778.79"
        stroke="#f5f5f5" stroke-width="9.6"
        stroke-linecap="round"/>
</svg>
