<?xml version="1.0" encoding="utf-8"?>
<svg xmlns="http://www.w3.org/2000/svg"
     width="690.7" height="800.0"
     viewBox="0 0 690.7 800.0">
  <rect width="100%" height="100%" fill="#1a1a2e"/>
  <!-- Track outline -->
  <polyline points="84.45,145.59 92.70,118.26 102.64,96.20 110.40,82.23 118.14,70.36 125.37,59.79 131.95,52.96 138.86,47.62 144.80,44.21 151.12,41.84 156.45,40.62 162.79,40.36 168.90,40.00 171.12,40.36 174.56,41.33 178.00,42.73 180.76,44.39 183.33,46.34 188.27,51.01 193.21,56.84 197.44,63.45 200.71,70.85 203.19,78.93 205.46,88.99 206.68,100.12 206.12,116.66 203.92,133.71 196.87,161.19 183.90,192.92 150.10,266.09 129.54,325.07 115.40,376.07 114.00,387.06 114.27,395.66 115.44,402.45 116.31,405.54 117.64,408.88 121.56,416.20 126.59,423.63 131.17,428.44 136.09,432.66 147.12,440.67 156.74,446.08 167.49,450.45 185.88,455.65 205.85,459.01 224.30,459.52 242.74,457.92 262.41,454.11 281.13,448.49 295.64,442.23 314.88,431.50 321.39,426.51 336.53,410.83 352.00,391.68 374.54,354.81 390.16,327.08 405.21,299.65 417.58,277.77 428.65,259.41 439.48,246.14 452.53,234.48 462.71,226.38 472.16,220.57 481.83,215.89 501.08,209.25 523.99,205.49 553.85,204.46 564.17,205.41 574.02,207.29 585.04,210.44 595.74,214.65 605.11,219.56 613.74,225.30 621.41,231.76 628.19,238.91 633.66,246.27 638.30,254.12 642.39,262.41 645.74,271.46 648.77,283.90 650.68,297.45 650.70,329.77 645.88,365.61 629.19,431.56 586.58,577.01 570.43,616.54 555.22,643.31 534.19,671.11 515.47,689.25 492.62,706.22 468.79,719.13 457.18,723.78 445.46,727.33 433.86,729.54 422.35,730.60 411.80,730.57 401.59,729.50 392.31,727.51 383.37,724.63 374.62,720.82 366.36,716.15 358.98,710.86 352.22,704.72 345.84,697.31 340.23,688.96 335.20,678.84 331.18,668.11 326.34,647.02 317.40,592.17 311.62,574.48 306.40,562.96 300.99,553.03 298.66,549.85 296.28,547.24 289.42,541.06 285.90,538.37 281.82,535.86 272.76,531.94 264.40,529.12 261.00,528.63 253.73,528.37 245.16,529.54 236.71,531.99 229.35,535.25 222.53,539.56 215.89,545.38 210.12,552.13 205.66,559.18 202.30,566.89 199.97,576.12 198.98,585.77 199.35,595.07 201.18,604.67 205.64,617.60 212.20,631.02 234.53,662.09 250.86,686.22 255.91,696.18 259.55,705.72 261.27,713.15 261.93,720.24 261.71,726.30 260.62,732.15 258.47,738.38 256.10,742.81 253.61,746.68 252.67,747.93 251.51,749.09 246.34,753.33 240.21,757.38 236.62,758.86 232.94,759.67 227.27,760.00 222.14,759.77 219.03,759.16 212.58,757.19 204.87,753.79 197.13,749.29 188.84,743.27 180.81,736.15 172.38,727.12 164.61,717.15 152.05,695.31 143.01,671.58 136.21,637.33 129.51,582.76 126.87,573.31 123.19,565.43 119.16,559.57 114.70,554.44 108.67,548.93 93.76,539.92 79.70,531.99 73.97,527.46 68.80,521.84 63.98,515.08 56.76,502.77 50.61,489.56 47.82,480.52 45.92,470.90 41.80,434.06 40.00,391.77 41.55,346.69 45.77,311.53 64.70,221.82 83.34,149.26 84.45,145.59"
        fill="none"
        stroke="#e94560"
        stroke-width="8.0"
        stroke-linejoin="round"
        stroke-linecap="round"/>
  <!-- Start/finish line -->
  <line x1="65.30" y1="139.81" x2="103.60" y2="151.37"
        stroke="#f5f5f5" stroke-width="9.6"
        stroke-linecap="round"/>
</svg>
