<?xml version="1.0" encoding="utf-8"?>
<svg xmlns="http://www.w3.org/2000/svg"
     width="698.7" height="800.0"
     viewBox="0 0 698.7 800.0">
  <rect width="100%" height="100%" fill="#1a1a2e"/>
  <!-- Track outline -->
  <polyline points="407.02,491.37 358.72,635.34 353.44,661.02 352.00,675.74 352.29,690.85 355.56,707.62 361.31,723.33 365.73,731.05 370.96,737.95 376.91,744.01 387.97,751.55 398.60,756.83 402.53,758.41 406.61,759.33 418.19,760.00 430.69,759.12 438.65,757.01 445.89,753.84 453.04,749.57 459.59,744.54 464.96,739.29 469.90,733.30 476.11,724.14 481.02,715.51 483.12,709.59 486.57,696.00 488.87,670.99 491.57,645.98 493.75,638.37 496.36,632.06 503.00,619.73 512.71,606.35 521.27,597.65 525.75,593.67 530.72,589.97 537.96,585.99 545.92,582.75 562.33,579.61 598.18,574.33 603.01,572.60 607.00,570.63 611.19,568.45 615.70,565.42 628.37,553.62 639.20,541.82 640.58,539.70 641.62,537.55 649.43,519.80 654.95,499.05 658.74,467.46 658.74,435.40 655.67,413.24 651.13,397.96 646.01,384.40 641.24,375.62 632.86,363.72 622.43,351.46 613.29,343.46 603.01,336.84 571.32,325.39 522.59,309.15 515.21,305.77 508.86,301.79 498.35,293.09 488.81,282.95 483.46,274.56 479.67,266.67 477.95,262.45 476.74,258.11 475.25,249.59 474.47,241.28 474.47,238.07 474.90,234.48 481.40,207.74 487.74,178.72 487.97,170.76 487.26,164.03 486.16,157.48 484.30,150.75 480.07,140.32 475.39,130.88 470.94,124.40 456.31,108.41 437.78,93.33 411.90,77.34 382.11,63.92 344.24,53.21 302.30,46.09 244.87,40.67 188.99,40.00 155.26,43.31 125.99,49.72 105.04,57.30 86.77,67.12 72.00,78.61 65.66,84.81 59.74,91.75 52.93,102.00 47.50,111.79 45.86,115.45 44.65,119.26 40.23,141.17 40.00,152.54 42.44,170.76 48.02,189.21 57.75,210.21 71.60,231.69 128.80,292.00 158.25,327.93 168.42,346.00 176.21,364.81 181.55,384.15 184.54,404.16 185.17,425.47 183.30,447.38 170.32,497.96 158.97,527.97 152.62,546.57 148.31,565.59 147.94,577.36 148.97,589.02 151.21,599.90 154.23,608.74 158.19,616.99 163.08,624.52 172.73,634.74 182.99,642.74 188.79,646.05 194.82,648.44 204.47,651.33 214.62,653.06 222.57,652.99 230.56,651.54 237.94,649.15 245.59,645.73 252.42,641.50 257.94,636.32 262.74,630.41 266.27,625.26 267.94,622.16 269.03,619.24 270.01,616.11 270.78,612.02 271.56,587.05 273.34,558.58 281.70,534.10 290.43,512.93 294.08,499.02 296.38,486.27 296.64,476.65 294.89,457.63 290.35,441.57 282.13,424.09 247.65,373.65 214.99,325.85 212.23,320.36 210.62,315.67 208.50,307.57 207.18,298.94 207.06,290.70 207.72,283.26 208.38,279.53 209.53,275.94 212.69,269.42 216.71,262.97 220.28,258.64 224.10,254.84 228.03,251.17 232.43,247.93 238.17,244.80 244.70,242.54 253.66,241.45 263.00,241.77 271.47,243.50 279.43,245.96 290.98,250.22 307.12,259.03 323.70,270.97 352.60,295.70 379.18,322.61 391.16,338.18 400.21,353.82 407.62,371.82 412.88,391.09 416.35,413.74 417.33,436.81 415.95,457.10 412.13,477.53 407.02,491.37"
        fill="none"
        stroke="#e94560"
        stroke-width="8.0"
        stroke-linejoin="round"
        stroke-linecap="round"/>
  <!-- Start/finish line -->
  <line x1="425.96" y1="497.79" x2="388.07" y2="484.96"
        stroke="#f5f5f5" stroke-width="9.6"
        stroke-linecap="round"/>
</svg>
