<?xml version="1.0" encoding="utf-8"?>
<svg xmlns="http://www.w3.org/2000/svg"
     width="800.0" height="597.9"
     viewBox="0 0 800.0 597.9">
  <rect width="100%" height="100%" fill="#1a1a2e"/>
  <!-- Track outline -->
  <polyline points="143.76,433.91 161.55,472.26 175.07,502.64 185.07,518.02 191.62,527.62 204.28,541.37 214.53,549.12 223.19,553.15 232.21,556.04 241.53,557.68 251.99,557.90 262.80,556.75 273.10,554.52 287.04,549.12 299.23,542.57 312.35,533.62 335.31,511.26 387.37,452.62 408.58,434.45 432.21,418.58 458.24,405.87 486.01,396.70 515.22,390.92 594.90,383.18 675.04,369.48 688.93,362.12 699.28,353.72 708.35,344.83 728.03,319.84 740.32,307.57 751.14,294.86 755.29,286.46 758.10,277.62 759.69,268.46 760.00,258.20 758.82,247.62 756.16,237.20 750.73,225.53 743.50,214.02 736.68,204.96 732.07,200.05 726.90,196.07 716.50,189.52 703.69,183.52 683.24,177.36 662.08,174.25 647.78,175.88 633.94,179.65 601.05,191.59 542.79,225.80 484.83,257.06 473.25,260.00 463.46,260.87 454.44,260.22 447.12,258.53 440.35,255.75 434.20,252.09 428.62,247.62 423.60,242.38 419.50,236.60 416.58,230.16 414.53,223.23 413.35,217.34 412.99,213.91 413.25,210.41 415.91,199.40 420.06,186.58 429.64,161.32 440.40,123.73 446.81,85.77 445.84,75.29 443.43,66.40 440.05,58.93 436.97,54.35 433.33,50.64 429.08,47.42 423.08,44.15 416.27,41.53 409.35,40.05 402.38,40.00 395.26,41.09 388.80,42.89 384.14,44.69 379.89,47.04 375.58,50.36 367.44,59.64 359.08,71.53 353.29,81.40 351.76,85.28 350.78,89.91 329.82,229.62 322.96,252.36 308.61,282.80 300.67,293.77 295.44,299.66 289.09,305.33 282.02,310.46 273.87,315.37 265.52,318.91 257.52,320.55 249.37,320.93 241.69,320.28 235.64,318.86 230.00,316.68 224.68,313.90 217.19,308.71 210.53,302.33 204.64,294.48 199.41,284.93 185.58,245.71 175.69,205.34 164.57,166.77 159.24,155.59 153.60,146.37 147.15,138.46 140.59,132.46 133.41,127.50 125.78,123.63 117.58,120.84 108.92,119.15 99.95,118.72 89.09,119.92 77.92,122.64 68.34,126.63 62.65,130.61 57.99,135.30 53.89,140.37 48.86,147.95 45.02,156.85 41.49,173.81 40.00,190.61 40.15,197.98 41.02,204.58 42.20,211.18 44.41,218.43 63.67,254.33 100.11,338.23 143.76,433.91"
        fill="none"
        stroke="#e94560"
        stroke-width="8.0"
        stroke-linejoin="round"
        stroke-linecap="round"/>
  <!-- Start/finish line -->
  <line x1="161.95" y1="425.57" x2="125.58" y2="442.24"
        stroke="#f5f5f5" stroke-width="9.6"
        stroke-linecap="round"/>
</svg>
