<?xml version="1.0" encoding="utf-8"?>
<svg xmlns="http://www.w3.org/2000/svg"
     width="581.4" height="800.0"
     viewBox="0 0 581.4 800.0">
  <rect width="100%" height="100%" fill="#1a1a2e"/>
  <!-- Track outline -->
  <polyline points="42.13,362.82 40.21,382.31 40.00,447.94 46.03,502.63 59.57,564.67 85.03,634.90 103.83,667.90 124.61,694.00 144.39,712.94 166.59,728.29 200.21,744.47 235.81,755.77 265.38,760.00 294.46,759.63 323.60,755.13 353.25,745.66 390.76,727.37 427.22,702.18 458.63,671.11 485.72,634.44 507.21,593.44 523.59,547.02 536.00,485.25 541.39,418.80 538.91,347.19 528.84,277.70 513.52,220.44 492.53,170.16 469.27,134.40 441.97,104.71 408.85,78.33 373.88,58.29 344.31,47.26 314.88,41.38 285.87,40.00 257.22,43.22 229.78,50.48 202.40,62.70 168.65,84.58 136.31,112.89 108.22,145.43 84.25,184.31 63.33,237.26 48.58,297.74 42.13,362.82"
        fill="none"
        stroke="#e94560"
        stroke-width="8.0"
        stroke-linejoin="round"
        stroke-linecap="round"/>
  <!-- Start/finish line -->
  <line x1="62.03" y1="364.79" x2="22.22" y2="360.85"
        stroke="#f5f5f5" stroke-width="9.6"
        stroke-linecap="round"/>
</svg>
