<?xml version="1.0" encoding="utf-8"?>
<svg xmlns="http://www.w3.org/2000/svg"
     width="749.5" height="800.0"
     viewBox="0 0 749.5 800.0">
  <rect width="100%" height="100%" fill="#1a1a2e"/>
  <!-- Track outline -->
  <polyline points="676.94,288.07 644.20,419.43 640.92,430.96 637.34,438.18 631.60,444.60 623.13,449.42 612.51,453.17 600.71,455.76 589.34,457.07 578.21,457.01 386.77,445.73 379.63,445.73 375.54,446.19 370.83,447.72 365.92,450.55 361.03,453.72 356.64,457.83 352.90,462.37 349.76,467.10 347.11,472.77 345.06,478.54 343.73,483.80 342.88,488.83 342.41,494.02 342.49,499.00 342.89,504.04 352.14,547.94 354.40,554.17 356.96,559.56 359.71,565.11 362.55,569.39 365.59,572.57 369.02,575.70 373.37,578.65 377.82,581.11 382.10,583.11 387.13,585.25 392.74,586.96 397.64,588.01 403.07,588.31 408.15,588.23 415.98,586.92 422.59,585.49 429.78,582.93 438.27,578.99 506.63,539.76 511.39,538.11 516.35,537.12 521.67,536.65 527.85,536.63 533.38,537.58 539.38,539.52 545.13,541.90 550.55,544.54 555.63,548.18 561.37,552.41 567.82,557.98 573.04,563.51 577.10,569.45 580.58,576.21 583.44,583.96 584.10,593.64 582.08,606.25 579.46,617.98 575.90,627.95 568.37,638.16 557.78,646.93 554.04,650.53 529.14,670.18 501.02,686.10 461.94,702.00 425.79,711.83 413.05,713.65 400.91,714.09 388.57,712.92 376.67,710.50 366.82,707.47 357.51,703.48 348.54,698.49 340.03,692.48 332.19,685.46 324.96,677.57 318.36,668.93 312.48,659.53 307.50,649.64 303.23,638.70 295.44,606.74 291.80,565.31 287.66,524.57 283.54,509.05 278.33,496.36 272.19,485.28 265.14,475.73 251.88,461.22 239.54,452.89 225.10,448.23 208.43,447.66 191.63,449.78 180.48,452.59 169.25,457.89 157.95,465.12 149.11,473.17 141.77,481.85 136.06,490.54 130.93,500.76 127.59,511.65 125.49,520.53 124.50,528.20 124.64,537.24 125.92,547.61 129.22,557.80 135.66,571.95 142.27,584.00 211.63,673.67 217.15,681.64 220.30,689.55 222.32,697.50 222.84,706.00 222.32,714.01 220.35,723.70 217.08,732.86 212.36,740.91 206.12,748.80 199.25,753.87 191.36,757.09 183.13,759.13 173.18,760.00 164.03,759.62 153.91,757.11 145.11,753.46 135.35,747.65 124.21,740.16 109.75,726.68 94.55,710.24 82.28,693.27 73.49,678.35 67.71,663.72 60.60,643.18 54.13,620.78 48.89,599.13 43.20,563.37 40.47,528.28 40.00,501.91 41.52,481.26 45.19,458.80 51.71,442.24 59.84,428.69 70.30,416.95 78.48,410.23 86.74,405.02 96.51,402.04 110.79,399.33 131.81,396.97 161.99,397.07 215.35,395.50 225.67,393.68 238.13,391.57 247.84,388.62 259.35,384.74 269.58,378.99 279.40,370.56 289.07,361.17 297.51,349.91 306.37,336.48 320.35,313.77 347.05,261.71 415.60,123.28 430.79,97.89 438.50,88.03 446.81,79.23 456.17,71.08 466.23,63.87 477.08,57.41 488.69,51.87 502.96,46.58 517.65,42.66 530.42,40.67 543.55,40.00 578.67,42.83 615.00,51.36 653.03,64.88 664.27,70.55 674.02,76.91 681.84,83.63 688.71,91.17 694.60,99.19 699.53,107.92 703.28,117.04 705.98,126.45 708.21,136.32 709.52,147.66 708.73,157.99 706.29,170.34 676.94,288.07"
        fill="none"
        stroke="#e94560"
        stroke-width="8.0"
        stroke-linejoin="round"
        stroke-linecap="round"/>
  <!-- Start/finish line -->
  <line x1="696.35" y1="292.91" x2="657.54" y2="283.24"
        stroke="#f5f5f5" stroke-width="9.6"
        stroke-linecap="round"/>
</svg>
