<?xml version="1.0" encoding="utf-8"?>
<svg xmlns="http://www.w3.org/2000/svg"
     width="800.0" height="646.4"
     viewBox="0 0 800.0 646.4">
  <rect width="100%" height="100%" fill="#1a1a2e"/>
  <!-- Track outline -->
  <polyline points="427.52,510.34 245.00,430.77 110.00,360.67 76.64,337.70 69.00,330.99 62.60,324.20 56.64,316.50 51.42,308.27 47.09,299.79 43.66,290.98 41.36,282.05 40.08,272.66 40.00,261.09 41.21,249.53 43.43,240.06 46.47,230.96 54.46,212.19 121.18,101.79 132.91,85.86 145.85,71.49 160.43,59.84 176.64,50.87 194.22,44.36 216.78,40.25 235.45,40.00 254.67,41.93 316.01,58.24 372.29,78.28 392.75,87.83 401.79,93.80 409.74,100.76 414.03,105.86 417.66,111.38 420.31,117.39 421.98,124.47 422.53,132.04 421.83,139.33 420.42,144.39 418.36,149.41 415.63,154.07 412.39,158.10 408.46,161.52 403.86,164.40 398.91,166.70 394.00,168.35 387.88,169.42 381.64,169.54 375.45,168.89 365.86,166.25 356.43,162.30 337.37,151.68 272.36,105.62 261.37,99.94 251.55,96.48 244.85,94.95 238.06,94.13 231.36,94.38 226.10,95.37 220.72,96.97 215.69,99.24 211.37,102.08 207.90,105.49 204.90,109.53 202.52,113.93 201.04,118.42 200.45,123.03 200.69,127.97 201.66,132.78 203.26,137.23 206.65,142.46 211.29,147.11 216.36,151.39 224.27,156.87 234.48,162.26 273.88,177.69 312.19,194.33 318.47,198.98 323.03,203.50 326.89,208.44 330.39,213.84 333.28,219.60 334.99,225.69 335.46,230.96 335.23,236.56 334.25,242.08 332.58,247.18 329.96,251.83 326.53,256.24 322.60,260.19 318.47,263.56 313.05,266.73 307.20,269.08 301.16,270.89 291.54,272.70 281.56,273.53 260.08,272.83 249.33,271.18 238.80,268.63 228.94,265.13 219.55,260.72 211.29,255.70 203.10,249.32 190.59,235.20 177.69,221.41 171.50,216.97 165.30,213.59 158.91,211.49 153.92,210.83 148.70,210.87 143.55,211.61 138.84,213.06 134.55,215.28 130.50,218.24 126.79,221.74 123.64,225.57 120.05,231.58 117.36,238.33 115.76,245.12 115.38,251.42 116.00,257.76 117.28,263.98 120.64,273.11 125.39,281.72 131.24,289.66 138.06,297.03 154.23,310.41 225.63,354.99 234.71,359.19 242.86,361.91 253.81,364.54 265.11,365.90 275.91,365.57 286.39,363.76 295.28,360.71 305.18,355.69 338.38,333.13 371.94,310.16 382.77,304.52 392.48,300.69 403.00,297.73 413.68,295.92 424.16,295.30 434.57,295.84 444.24,297.28 454.95,300.16 510.49,324.61 566.53,354.78 584.38,366.47 591.79,373.60 597.95,381.54 601.14,387.18 603.72,393.11 605.39,399.24 606.13,405.50 606.05,411.92 604.92,418.18 603.29,423.08 600.99,428.02 598.14,432.58 594.75,436.41 590.82,439.46 586.22,441.93 581.34,443.74 576.47,444.81 569.81,444.81 562.99,443.49 556.36,441.39 547.52,437.11 537.81,430.49 474.83,377.30 465.98,371.37 458.07,367.34 449.26,364.05 440.14,362.11 433.95,361.78 427.71,362.15 421.55,363.39 415.00,365.69 408.57,368.99 403.00,373.14 399.57,376.89 396.53,381.21 394.08,385.86 392.36,390.60 391.27,397.14 391.35,403.98 392.44,410.64 394.82,417.27 398.29,423.73 402.34,429.58 408.96,436.54 416.49,442.55 434.06,452.92 507.29,490.34 582.32,524.38 594.13,527.47 603.68,528.21 613.97,527.59 623.90,525.37 632.95,521.66 641.17,516.52 648.38,509.93 654.58,502.19 659.72,493.26 663.81,483.51 666.97,473.42 669.43,461.19 675.74,382.32 677.61,363.72 680.45,352.85 684.86,342.52 688.72,336.63 693.24,331.28 698.34,326.71 703.92,323.05 710.00,320.16 716.19,318.27 722.35,317.37 728.63,317.37 734.71,318.52 739.58,320.45 744.45,323.21 748.89,326.59 752.56,330.46 756.02,336.67 758.25,343.83 759.61,351.00 760.00,359.93 758.91,370.80 740.67,473.09 741.06,506.31 742.11,533.81 741.14,545.54 739.19,555.67 735.95,565.71 731.51,575.14 725.78,583.78 718.84,591.36 710.74,597.49 701.73,602.14 692.11,605.02 682.05,606.38 671.76,606.13 661.40,604.69 640.78,599.22 582.40,577.52 531.77,555.79 427.52,510.34"
        fill="none"
        stroke="#e94560"
        stroke-width="8.0"
        stroke-linejoin="round"
        stroke-linecap="round"/>
  <!-- Start/finish line -->
  <line x1="419.52" y1="528.68" x2="435.51" y2="492.01"
        stroke="#f5f5f5" stroke-width="9.6"
        stroke-linecap="round"/>
</svg>
