<?xml version="1.0" encoding="utf-8"?>
<svg xmlns="http://www.w3.org/2000/svg"
     width="800.0" height="729.2"
     viewBox="0 0 800.0 729.2">
  <rect width="100%" height="100%" fill="#1a1a2e"/>
  <!-- Track outline -->
  <polyline points="338.20,280.81 406.16,88.37 411.10,74.85 415.27,64.89 420.18,57.08 426.82,49.81 433.88,44.87 443.25,41.19 452.69,40.00 461.18,41.09 468.36,43.15 475.32,45.84 480.32,48.93 486.20,53.99 490.81,59.33 494.02,64.89 495.72,70.85 496.57,77.41 495.84,84.13 488.02,124.01 487.34,131.91 487.37,137.62 488.55,143.96 490.55,149.55 492.81,153.86 495.99,159.05 499.42,162.98 503.72,166.98 507.13,169.23 510.65,171.04 514.44,172.35 517.82,173.04 521.32,173.41 573.64,172.63 584.37,173.10 593.25,173.91 602.07,175.50 608.80,177.60 616.41,180.53 625.11,185.00 739.63,256.26 745.71,261.23 751.89,267.63 756.21,273.84 758.85,279.72 760.00,285.59 759.85,291.55 758.21,296.86 754.44,302.89 749.33,308.29 743.69,311.66 737.51,313.85 731.08,314.75 725.17,313.94 719.76,312.60 712.94,310.32 705.21,306.54 610.30,251.67 598.54,245.49 584.31,238.56 569.70,232.22 558.89,228.84 549.25,226.63 538.81,225.72 528.99,226.56 519.68,228.34 511.15,231.31 504.04,234.78 497.28,240.55 491.05,247.39 485.90,254.54 480.79,262.88 476.59,270.75 472.47,279.59 468.85,289.96 466.86,298.89 464.97,308.63 458.30,345.14 455.25,355.54 451.60,364.72 447.34,372.75 441.84,379.81 435.35,384.43 427.76,388.08 420.33,390.08 383.08,395.54 374.79,397.54 367.09,401.32 361.71,405.85 357.92,410.85 355.39,415.72 353.60,421.53 352.22,428.65 350.66,444.20 349.93,454.79 350.31,464.00 351.43,472.59 353.51,483.02 356.86,494.89 384.47,560.12 387.38,568.18 388.73,574.93 389.11,584.17 388.14,592.26 386.76,601.10 384.14,608.87 380.53,616.90 376.12,624.27 370.06,632.17 358.48,645.13 345.64,656.37 331.12,666.30 319.42,673.11 308.34,678.26 295.87,682.98 281.38,687.04 268.15,689.19 256.54,689.19 248.52,688.35 240.08,686.91 230.06,683.67 214.42,675.61 201.93,667.36 183.82,656.15 166.04,645.50 147.79,636.73 94.38,612.87 83.15,606.94 74.01,599.00 67.39,591.38 61.93,580.95 57.37,569.15 48.82,530.61 43.00,495.63 40.00,459.35 40.35,425.56 44.88,367.38 47.52,355.82 50.29,345.98 55.17,335.90 62.10,327.65 72.10,319.75 82.21,314.19 92.26,309.79 102.02,307.32 111.87,305.48 123.07,305.76 133.77,307.67 143.55,310.70 152.73,315.60 158.37,321.69 161.43,329.59 162.19,338.24 161.66,345.58 160.57,352.79 158.28,361.07 107.31,487.64 104.64,498.85 104.08,509.97 104.81,519.74 108.05,528.86 113.07,535.95 120.74,542.10 129.74,546.63 140.85,550.10 151.28,551.88 165.75,552.91 178.53,552.28 195.02,549.60 213.22,545.13 227.80,540.11 236.61,534.95 244.05,527.49 250.55,518.21 255.57,508.72 259.72,499.48 270.83,468.72 338.20,280.81"
        fill="none"
        stroke="#e94560"
        stroke-width="8.0"
        stroke-linejoin="round"
        stroke-linecap="round"/>
  <!-- Start/finish line -->
  <line x1="319.36" y1="274.10" x2="357.04" y2="287.51"
        stroke="#f5f5f5" stroke-width="9.6"
        stroke-linecap="round"/>
</svg>
