<?xml version="1.0" encoding="utf-8"?>
<svg xmlns="http://www.w3.org/2000/svg"
     width="800.0" height="795.3"
     viewBox="0 0 800.0 795.3">
  <rect width="100%" height="100%" fill="#1a1a2e"/>
  <!-- Track outline -->
  <polyline points="72.66,561.79 46.16,420.88 40.25,364.46 40.00,306.11 42.58,276.80 47.90,247.96 55.91,219.54 77.88,164.27 90.95,136.99 106.06,111.55 124.16,89.02 134.10,79.48 144.74,70.98 155.87,63.73 167.61,57.52 192.51,48.34 218.71,42.76 245.75,40.00 301.08,40.37 353.02,46.47 376.04,51.47 402.88,60.91 413.87,66.70 423.66,73.90 429.88,80.00 435.44,86.98 439.32,94.60 440.96,101.12 441.66,108.21 441.31,115.30 439.72,121.77 436.49,127.82 431.86,133.50 426.35,138.56 420.68,142.73 412.97,146.75 404.62,149.46 395.97,151.13 382.65,151.33 367.24,149.82 287.46,140.59 257.83,141.95 243.61,144.40 230.19,148.57 222.39,152.33 215.13,156.91 208.67,162.55 202.75,169.74 197.68,178.03 194.40,186.69 193.36,193.21 193.21,199.99 193.95,206.77 195.59,213.18 199.72,221.63 205.58,229.61 212.00,236.70 221.44,244.83 231.93,251.35 242.67,256.36 256.79,260.37 335.18,270.60 420.53,275.86 450.11,274.77 473.72,271.53 500.22,263.92 526.06,253.23 549.93,239.20 560.81,230.81 570.75,221.37 578.91,211.56 587.06,199.41 625.98,129.07 641.09,109.67 651.63,98.93 663.26,89.44 674.80,82.66 686.88,78.07 694.88,76.45 703.03,75.93 711.09,76.76 719.93,79.53 728.73,83.86 736.39,89.23 742.00,94.91 746.73,101.48 750.70,108.52 755.58,120.25 758.71,132.82 760.00,144.56 759.50,159.68 724.31,368.27 685.83,589.84 679.32,613.62 667.69,641.00 660.98,652.52 653.02,662.90 646.26,669.78 638.66,676.04 630.56,680.16 625.48,681.31 620.02,681.78 614.50,681.46 609.23,680.47 604.56,678.75 600.43,676.20 596.55,672.81 593.07,668.79 590.09,664.41 587.80,659.87 585.67,651.69 585.32,642.61 585.92,632.08 601.62,558.03 619.97,473.71 620.22,461.04 618.97,450.14 616.74,438.35 613.36,426.88 608.68,415.62 602.87,404.93 596.01,394.76 588.15,385.42 579.20,377.08 569.36,369.83 558.72,363.78 547.49,358.78 523.68,351.16 337.46,328.27 294.07,327.49 259.77,330.46 244.21,334.42 231.48,340.32 224.18,345.11 217.56,350.75 211.90,357.32 206.83,365.45 202.75,374.52 200.46,383.81 200.31,392.72 201.76,401.80 204.34,410.61 208.32,419.58 213.49,428.24 219.30,436.01 228.30,444.98 238.39,452.54 249.83,459.26 262.10,464.79 274.48,469.12 289.15,472.46 374.05,479.34 398.81,483.36 423.71,489.72 448.12,498.95 471.04,512.19 491.62,529.45 500.76,539.41 508.96,550.16 522.09,573.00 527.01,584.42 530.79,596.46 533.47,611.59 534.07,626.97 533.07,636.09 531.14,644.96 528.10,653.15 524.03,660.34 519.01,666.97 513.24,672.70 506.68,677.66 499.42,681.72 491.81,684.75 483.71,686.68 475.26,687.51 466.81,687.46 453.94,685.58 441.21,681.93 416.35,669.99 366.20,638.96 351.78,631.92 337.91,627.07 322.60,624.26 307.14,623.79 291.93,625.87 277.32,630.41 263.84,637.35 251.67,646.42 241.43,657.53 232.92,670.15 226.76,684.12 221.09,698.46 214.48,712.23 206.73,724.90 197.33,735.17 186.69,743.57 179.59,747.90 172.08,751.39 164.28,753.74 157.76,754.83 150.90,755.30 144.14,754.94 137.83,753.58 132.11,751.08 126.64,747.53 121.57,743.26 117.10,738.56 112.23,731.73 108.35,723.86 104.57,714.06 84.09,623.89 79.97,600.69 72.66,561.79"
        fill="none"
        stroke="#e94560"
        stroke-width="8.0"
        stroke-linejoin="round"
        stroke-linecap="round"/>
  <!-- Start/finish line -->
  <line x1="53.00" y1="565.48" x2="92.32" y2="558.09"
        stroke="#f5f5f5" stroke-width="9.6"
        stroke-linecap="round"/>
</svg>
