<?xml version="1.0" encoding="utf-8"?>
<svg xmlns="http://www.w3.org/2000/svg"
     width="615.4" height="800.0"
     viewBox="0 0 615.4 800.0">
  <rect width="100%" height="100%" fill="#1a1a2e"/>
  <!-- Track outline -->
  <polyline points="89.42,354.96 114.36,408.94 197.11,561.86 253.94,637.75 309.05,699.11 333.27,720.44 356.49,735.78 374.65,745.47 393.71,753.43 412.95,758.39 432.47,760.00 452.16,758.62 471.14,753.89 489.48,745.01 507.09,732.78 522.72,718.83 539.98,698.07 553.80,674.43 564.10,648.48 571.15,620.80 575.03,592.20 575.40,562.67 571.06,530.03 563.47,497.40 543.14,436.27 506.28,355.43 458.04,268.58 400.21,191.77 344.47,130.30 298.75,91.90 253.94,62.95 227.47,51.07 199.82,43.00 180.94,40.46 161.79,40.00 143.27,42.77 125.83,48.77 109.12,57.65 93.76,69.29 80.02,84.17 67.74,101.59 57.44,119.92 46.60,145.06 40.18,171.71 40.00,201.46 43.70,230.99 48.49,255.09 55.45,278.62 79.30,333.05 89.42,354.96"
        fill="none"
        stroke="#e94560"
        stroke-width="8.0"
        stroke-linejoin="round"
        stroke-linecap="round"/>
  <!-- Start/finish line -->
  <line x1="107.58" y1="346.58" x2="71.26" y2="363.35"
        stroke="#f5f5f5" stroke-width="9.6"
        stroke-linecap="round"/>
</svg>
