<?xml version="1.0" encoding="utf-8"?>
<svg xmlns="http://www.w3.org/2000/svg"
     width="700.5" height="800.0"
     viewBox="0 0 700.5 800.0">
  <rect width="100%" height="100%" fill="#1a1a2e"/>
  <!-- Track outline -->
  <polyline points="469.29,425.79 437.49,480.55 379.21,558.79 314.57,641.94 255.14,727.93 245.88,737.96 237.21,744.96 226.52,751.26 215.13,755.83 202.86,758.76 190.25,760.00 177.36,759.85 164.50,757.91 152.09,754.04 138.99,748.04 94.72,720.33 75.01,704.30 64.56,694.27 55.13,683.05 48.46,671.83 43.56,659.67 40.84,646.76 40.00,633.31 41.01,619.55 43.95,606.10 49.78,592.50 56.95,579.94 70.47,560.38 181.30,440.34 190.88,431.30 199.33,425.74 205.52,423.41 212.23,421.82 219.01,421.17 225.47,421.72 231.37,423.36 237.21,425.99 242.63,429.56 247.20,433.98 250.59,438.90 253.46,444.71 255.66,451.01 257.09,457.41 257.72,466.65 257.06,476.33 255.34,485.56 250.66,498.27 244.34,509.74 237.42,519.27 229.63,527.46 220.51,534.66 210.83,540.92 190.98,552.04 166.17,569.17 145.28,587.78 137.07,597.46 130.18,607.99 126.72,614.89 123.89,622.14 122.46,629.73 122.64,636.28 123.79,643.28 125.75,650.14 128.30,656.34 133.47,664.33 140.07,671.38 146.99,677.19 153.63,681.56 160.58,684.79 167.75,687.07 175.36,688.46 183.16,688.86 190.95,688.21 198.91,686.43 206.85,683.55 214.64,679.67 225.57,672.38 237.56,661.50 273.72,619.55 307.51,574.38 322.47,546.53 333.12,517.24 336.30,501.85 338.12,486.01 337.42,453.39 332.25,384.54 333.72,361.80 337.74,339.11 343.75,316.57 352.13,294.28 362.41,272.19 382.25,240.07 414.75,197.92 483.55,119.53 549.87,52.46 557.66,47.25 563.81,44.52 570.41,42.63 579.67,40.74 589.56,40.00 599.27,40.60 608.53,42.68 617.65,46.06 626.25,50.67 634.08,56.38 641.41,63.23 647.67,70.63 651.93,76.99 655.43,83.74 657.98,91.33 660.04,103.40 660.49,116.55 659.30,127.28 657.52,136.16 654.55,147.53 650.29,159.35 644.07,172.30 601.13,241.06 570.45,283.21 489.24,391.49 469.29,425.79"
        fill="none"
        stroke="#e94560"
        stroke-width="8.0"
        stroke-linejoin="round"
        stroke-linecap="round"/>
  <!-- Start/finish line -->
  <line x1="486.58" y1="435.84" x2="452.00" y2="415.74"
        stroke="#f5f5f5" stroke-width="9.6"
        stroke-linecap="round"/>
</svg>
