<?xml version="1.0" encoding="utf-8"?>
<svg xmlns="http://www.w3.org/2000/svg"
     width="436.7" height="800.0"
     viewBox="0 0 436.7 800.0">
  <rect width="100%" height="100%" fill="#1a1a2e"/>
  <!-- Track outline -->
  <polyline points="71.51,401.75 93.80,308.81 99.64,226.50 89.56,133.40 87.34,99.21 88.03,87.59 89.77,77.12 92.52,68.35 95.99,60.82 99.14,56.11 102.66,52.19 106.76,48.58 111.27,45.60 116.42,43.09 121.85,41.32 127.46,40.30 133.16,40.00 139.00,40.40 144.78,41.56 150.27,43.55 155.49,46.29 160.20,49.63 164.62,53.85 169.59,60.36 173.96,67.90 177.23,75.56 179.68,84.22 181.74,97.65 182.53,112.36 179.77,144.10 178.36,157.39 170.78,234.24 172.39,251.97 175.87,266.82 180.19,277.39 185.47,286.21 190.33,292.29 196.04,297.32 202.18,301.20 209.14,304.53 215.92,306.90 223.99,308.27 231.97,308.22 240.73,307.03 249.11,304.43 253.78,301.98 258.16,298.99 261.82,295.60 264.13,292.62 265.95,289.39 267.39,286.00 268.44,282.99 269.13,279.84 269.34,275.86 264.61,252.13 258.28,227.03 256.48,217.86 255.73,210.33 256.00,206.86 256.63,203.69 257.63,200.70 259.16,197.55 261.09,194.62 263.12,192.23 265.59,190.37 268.17,189.08 270.77,187.98 273.43,187.20 276.15,186.71 278.89,186.55 281.58,186.63 284.55,187.17 291.28,189.54 299.17,193.76 311.11,203.23 324.27,215.95 364.22,262.27 375.34,279.25 383.97,295.47 388.89,307.20 392.48,319.25 395.26,334.71 396.69,351.82 394.72,400.86 364.87,586.36 347.71,689.50 337.17,722.45 332.15,732.86 326.57,741.60 320.79,748.19 314.82,753.36 310.19,756.26 305.52,758.22 300.49,759.52 295.30,760.00 289.43,759.62 284.07,758.52 281.41,757.50 279.10,756.23 276.93,754.78 274.87,753.11 273.03,751.23 271.33,749.16 269.82,746.87 268.48,744.37 267.31,741.82 266.37,738.75 265.30,731.57 265.30,721.56 273.68,679.27 283.19,632.84 284.87,611.46 284.47,594.08 283.04,585.29 280.61,577.81 278.33,573.02 275.56,568.58 272.36,564.76 268.21,561.45 263.58,558.79 259.48,557.18 257.40,556.83 255.56,556.88 253.74,557.09 251.12,557.53 248.58,558.25 246.24,559.27 244.04,560.62 242.09,562.07 240.10,564.22 234.95,572.45 229.39,585.10 219.82,627.22 210.41,670.07 205.30,683.55 199.67,694.20 193.30,703.40 185.88,711.55 175.98,719.87 164.85,727.10 151.61,733.75 137.74,738.88 124.19,742.25 110.93,744.02 99.89,744.18 89.48,743.05 80.93,741.09 72.70,737.83 63.17,732.10 54.54,725.08 49.09,718.95 44.92,712.60 42.74,707.90 41.30,703.05 40.36,697.40 40.00,692.10 40.10,689.44 40.46,687.02 41.01,684.60 41.91,682.10 44.55,677.39 47.71,672.90 49.66,670.61 52.09,668.57 60.93,663.81 72.60,658.64 111.64,642.50 123.40,634.78 133.79,625.39 144.24,612.05 154.38,596.02 181.69,544.77 202.41,517.23 231.61,490.03 279.48,452.21 287.90,442.88 293.81,433.84 296.09,428.78 297.75,423.64 298.69,418.40 298.88,412.83 298.36,407.13 297.33,402.04 295.34,396.93 292.64,392.52 289.14,388.27 285.10,384.67 280.42,381.82 275.84,379.83 273.32,378.96 270.58,378.53 265.78,378.26 259.96,378.51 254.11,379.64 245.23,383.86 235.85,390.45 220.91,404.47 203.80,420.20 177.17,436.21 151.86,451.46 140.28,461.39 131.00,472.17 123.25,484.87 117.07,499.69 112.25,522.88 108.50,545.61 105.59,557.53 102.38,567.18 99.51,572.72 96.50,577.05 94.34,579.42 92.14,581.30 89.88,582.97 87.53,584.40 85.12,585.53 82.65,586.36 80.10,586.90 77.50,587.17 74.90,587.20 72.07,586.82 66.88,585.18 61.53,582.52 58.60,580.47 55.88,578.05 53.34,575.12 50.54,570.87 48.00,565.89 45.95,560.38 43.69,549.27 42.87,536.95 43.60,523.74 46.28,506.90 71.51,401.75"
        fill="none"
        stroke="#e94560"
        stroke-width="8.0"
        stroke-linejoin="round"
        stroke-linecap="round"/>
  <!-- Start/finish line -->
  <line x1="52.06" y1="397.08" x2="90.95" y2="406.41"
        stroke="#f5f5f5" stroke-width="9.6"
        stroke-linecap="round"/>
</svg>
