<?xml version="1.0" encoding="utf-8"?>
<svg xmlns="http://www.w3.org/2000/svg"
     width="800.0" height="610.9"
     viewBox="0 0 800.0 610.9">
  <rect width="100%" height="100%" fill="#1a1a2e"/>
  <!-- Track outline -->
  <polyline points="532.52,353.51 630.40,288.92 730.22,223.49 747.10,208.56 751.25,203.47 754.63,198.32 757.15,193.06 758.90,187.71 759.88,182.25 760.00,176.76 759.24,171.31 757.67,165.91 755.30,160.60 752.10,155.43 748.19,150.51 743.54,145.95 735.09,139.97 726.12,134.46 719.35,131.39 696.78,124.63 671.75,121.64 663.08,121.91 645.57,124.63 636.89,127.12 619.99,134.22 604.01,143.98 589.25,156.10 556.06,193.49 511.18,253.17 477.99,296.29 454.88,322.81 449.62,328.07 444.42,332.74 439.28,336.81 434.17,340.11 429.07,342.59 424.01,344.26 419.33,345.48 413.94,346.06 408.44,345.38 402.73,343.91 397.28,341.40 393.56,338.73 390.24,335.59 387.34,331.95 384.95,327.85 383.03,323.36 381.54,318.47 380.52,313.23 379.99,307.65 380.02,301.82 383.60,276.22 394.15,222.85 398.36,206.07 400.95,197.56 403.90,189.32 407.28,181.65 411.10,174.52 415.39,167.99 420.19,162.01 425.46,156.59 431.15,151.74 437.37,147.43 444.09,143.57 451.27,140.24 466.52,134.38 494.98,125.07 501.18,122.12 506.03,119.25 510.66,115.59 514.66,111.54 517.98,107.02 520.62,102.15 522.52,96.99 523.61,91.62 523.90,86.16 523.40,80.68 522.05,75.25 519.99,69.99 517.14,65.07 513.60,60.48 509.41,56.21 504.54,52.38 499.06,48.95 486.50,43.60 479.56,41.82 464.72,40.00 432.34,42.67 349.20,56.07 319.96,63.90 292.97,75.99 284.64,81.01 269.31,92.99 262.28,99.96 249.60,115.61 243.98,124.13 234.57,142.63 230.69,152.38 225.33,172.68 223.76,183.10 222.90,204.20 226.52,236.00 238.73,277.74 263.92,339.77 270.55,359.38 273.14,368.69 275.24,377.67 276.84,386.30 277.91,394.62 278.37,402.62 278.20,410.36 277.27,417.71 275.63,424.74 273.28,431.45 270.19,437.72 266.50,443.54 262.17,448.87 257.18,453.79 251.59,458.19 245.52,462.05 239.05,465.25 232.24,467.73 225.18,469.50 217.97,470.54 210.63,470.83 203.28,470.30 196.00,468.94 188.97,466.81 182.30,463.84 176.06,460.17 170.29,455.84 164.92,450.85 160.05,445.24 155.75,439.05 152.08,432.39 149.15,425.28 147.07,417.90 145.77,410.29 145.27,402.52 145.54,394.65 146.57,386.68 148.31,378.66 150.63,370.57 163.91,335.35 165.41,328.80 166.11,323.51 166.11,317.85 165.38,312.41 163.95,307.22 161.76,302.38 158.87,297.83 155.21,293.51 141.90,280.45 138.00,275.61 134.85,270.45 132.47,264.91 130.88,258.99 130.04,252.77 129.95,246.24 130.50,239.46 131.73,232.60 136.02,218.54 141.90,204.06 165.50,152.09 168.54,140.88 170.01,132.16 170.20,126.08 169.68,120.35 168.43,114.98 166.46,109.98 163.81,105.46 160.49,101.44 156.55,97.94 151.96,94.96 146.79,92.59 141.10,90.85 134.93,89.78 121.61,89.63 99.94,93.28 78.12,100.78 71.65,104.39 65.71,108.53 60.27,113.23 55.43,118.50 51.21,124.33 47.66,130.75 44.77,137.69 42.58,145.06 41.05,152.74 40.00,177.21 57.22,298.52 79.27,425.73 91.95,468.40 109.88,508.42 129.16,540.20 137.29,549.85 144.56,557.12 149.99,561.30 155.62,564.72 161.37,567.33 167.24,569.09 179.45,570.88 185.88,570.86 199.20,568.93 205.97,566.96 226.17,557.40 268.04,529.58 409.35,434.79 532.52,353.51"
        fill="none"
        stroke="#e94560"
        stroke-width="8.0"
        stroke-linejoin="round"
        stroke-linecap="round"/>
  <!-- Start/finish line -->
  <line x1="521.51" y1="336.82" x2="543.54" y2="370.20"
        stroke="#f5f5f5" stroke-width="9.6"
        stroke-linecap="round"/>
</svg>
