<?xml version="1.0" encoding="utf-8"?>
<svg xmlns="http://www.w3.org/2000/svg"
     width="800.0" height="369.2"
     viewBox="0 0 800.0 369.2">
  <rect width="100%" height="100%" fill="#1a1a2e"/>
  <!-- Track outline -->
  <polyline points="493.27,326.32 445.94,326.87 169.06,329.24 139.58,326.50 122.25,322.27 105.18,316.18 90.64,308.97 77.45,299.71 66.82,288.65 57.76,275.65 50.41,261.42 44.83,245.88 41.65,229.59 40.04,212.62 40.00,177.44 44.92,128.52 54.02,81.71 58.68,70.40 63.99,61.69 70.17,54.48 75.75,49.57 81.89,45.59 88.42,42.61 95.08,40.75 101.04,40.00 107.45,40.00 113.85,40.81 119.85,42.61 125.04,45.53 129.13,49.20 133.05,53.80 136.40,59.15 138.93,65.05 140.28,71.39 137.58,88.42 130.22,108.00 123.95,125.97 120.07,141.63 118.20,156.49 118.85,167.74 120.86,179.12 123.99,189.56 128.26,198.45 133.61,206.47 139.58,213.80 150.55,224.31 162.87,233.07 177.07,240.35 192.05,246.13 206.59,251.16 224.66,255.39 308.13,264.22 390.99,266.83 407.92,264.78 421.38,260.49 431.09,255.95 440.54,250.23 448.42,242.89 452.69,237.05 456.47,230.52 459.30,223.50 460.78,216.35 460.65,208.64 459.17,200.50 456.65,192.61 453.43,185.83 449.07,180.05 443.58,175.33 437.53,171.35 431.26,168.05 421.42,164.51 410.84,162.46 400.44,161.28 387.37,160.97 372.44,162.27 325.24,171.35 277.82,178.43 266.68,177.63 257.40,175.57 248.61,172.28 240.25,168.05 232.28,162.71 225.18,156.30 219.30,149.34 214.21,141.51 210.33,132.62 207.72,121.87 206.46,110.06 207.07,98.74 209.07,90.47 212.25,82.39 216.34,74.87 220.96,68.22 226.75,62.13 233.41,56.97 240.64,52.74 248.00,49.51 258.93,46.96 270.42,46.40 281.61,46.65 310.52,50.88 340.65,58.52 371.83,69.40 403.74,83.70 435.92,101.10 459.61,117.27 481.86,136.47 502.93,158.11 539.25,207.77 549.52,218.84 559.67,227.73 571.07,235.81 583.57,242.40 601.07,248.55 619.10,252.41 647.23,252.41 680.89,249.92 714.72,250.04 723.43,251.72 731.39,253.96 738.49,257.13 744.76,261.73 748.90,266.02 752.82,271.18 756.21,276.77 758.74,282.68 760.00,288.46 759.91,294.18 758.74,300.33 756.78,306.49 754.17,312.02 751.16,316.62 746.11,321.16 739.84,324.14 732.70,326.13 724.82,327.62 695.60,327.31 659.72,324.39 525.09,325.94 493.27,326.32"
        fill="none"
        stroke="#e94560"
        stroke-width="8.0"
        stroke-linejoin="round"
        stroke-linecap="round"/>
  <!-- Start/finish line -->
  <line x1="493.50" y1="346.31" x2="493.03" y2="306.32"
        stroke="#f5f5f5" stroke-width="9.6"
        stroke-linecap="round"/>
</svg>
