<?xml version="1.0" encoding="utf-8"?>
<svg xmlns="http://www.w3.org/2000/svg"
     width="800.0" height="375.3"
     viewBox="0 0 800.0 375.3">
  <rect width="100%" height="100%" fill="#1a1a2e"/>
  <!-- Track outline -->
  <polyline points="642.11,108.46 706.24,148.70 723.18,159.46 731.52,166.21 736.75,172.13 738.35,174.49 739.70,177.00 742.19,183.86 743.49,190.69 744.88,197.38 746.13,200.47 747.69,203.28 750.99,207.98 754.27,212.73 755.80,215.79 757.00,218.95 759.08,227.85 760.00,237.98 759.69,246.82 758.16,256.16 755.34,265.77 750.20,277.90 742.33,292.60 732.36,308.06 725.47,316.88 718.55,323.64 715.78,325.77 713.05,327.51 710.34,328.89 707.70,329.91 705.72,330.40 703.82,330.63 701.98,330.63 700.18,330.38 698.52,329.90 696.96,329.17 695.59,328.26 694.34,327.07 693.10,325.33 691.90,323.24 690.34,319.96 688.63,316.77 686.93,314.75 685.04,313.11 682.81,311.62 680.24,310.41 676.14,309.10 670.95,308.22 639.68,309.03 597.58,309.98 509.18,310.58 443.54,312.11 436.54,312.98 431.23,314.19 427.71,315.35 424.35,317.03 414.50,324.81 408.44,329.08 404.98,330.85 401.36,332.32 393.38,334.47 384.60,335.28 367.74,334.28 343.91,331.94 332.79,329.70 321.78,325.90 302.16,318.00 283.77,313.97 261.08,313.17 195.67,317.19 140.81,318.96 94.21,319.65 80.80,318.70 70.98,316.84 64.14,314.59 57.91,311.48 54.19,308.90 50.89,305.91 46.77,300.77 45.09,297.96 43.65,294.97 41.53,288.67 40.12,279.90 40.00,271.64 40.43,267.72 41.17,264.06 42.04,261.28 43.14,258.73 44.55,256.21 46.18,253.87 48.04,251.63 50.19,249.51 56.85,244.54 66.81,239.30 80.52,233.74 95.73,228.97 112.32,225.24 136.21,221.55 191.51,215.34 241.02,210.92 278.08,209.08 324.42,208.58 437.53,208.43 492.45,207.21 499.25,206.05 504.46,204.47 508.00,202.90 511.05,201.08 513.21,199.44 515.11,197.59 516.73,195.65 518.18,193.41 519.60,190.48 520.76,186.96 521.82,180.76 522.33,173.52 521.39,153.19 516.03,127.78 503.02,81.74 500.87,70.61 500.66,64.56 500.94,61.69 501.48,58.92 502.30,56.25 503.38,53.74 504.73,51.36 506.29,49.17 508.15,47.10 510.08,45.31 513.05,43.21 516.33,41.59 519.86,40.51 521.65,40.17 523.56,40.00 526.36,40.01 529.31,40.30 532.16,40.89 535.10,41.81 542.72,45.40 569.44,62.43 609.66,88.10 642.11,108.46"
        fill="none"
        stroke="#e94560"
        stroke-width="8.0"
        stroke-linejoin="round"
        stroke-linecap="round"/>
  <!-- Start/finish line -->
  <line x1="652.74" y1="91.52" x2="631.48" y2="125.40"
        stroke="#f5f5f5" stroke-width="9.6"
        stroke-linecap="round"/>
</svg>
