<?xml version="1.0" encoding="utf-8"?>
<svg xmlns="http://www.w3.org/2000/svg"
     width="656.8" height="800.0"
     viewBox="0 0 656.8 800.0">
  <rect width="100%" height="100%" fill="#1a1a2e"/>
  <!-- Track outline -->
  <polyline points="181.44,429.93 146.43,409.04 111.57,384.28 73.01,348.61 52.45,324.69 45.75,316.18 40.95,307.39 40.00,300.85 40.85,294.02 44.40,286.92 49.00,280.87 55.00,277.70 61.01,277.91 70.06,280.38 78.61,284.38 164.44,326.38 173.74,329.48 180.99,330.53 187.35,330.67 193.35,330.25 199.75,328.42 204.10,326.45 207.65,323.15 210.40,319.28 213.15,313.72 214.76,306.47 214.51,295.78 206.15,163.88 207.25,156.14 208.85,150.23 211.95,143.06 216.36,136.30 222.16,131.31 228.76,127.86 235.56,127.23 242.31,128.50 248.77,130.82 254.32,134.48 258.77,138.20 262.72,143.27 267.77,151.57 300.33,220.72 304.88,226.98 311.34,231.55 317.99,233.88 324.89,235.28 330.94,234.72 337.39,232.54 346.05,227.69 357.20,219.10 371.81,206.16 382.16,194.76 389.61,185.48 394.21,177.46 396.61,171.76 397.66,164.65 396.26,159.31 391.86,152.91 386.51,147.56 320.79,97.05 314.84,91.49 310.84,85.51 308.13,77.92 307.38,70.81 308.69,64.13 310.79,57.09 314.44,51.96 319.39,46.82 325.39,42.46 332.09,40.14 339.94,40.00 350.45,40.91 370.65,46.19 396.76,54.84 412.92,62.79 422.72,68.70 439.93,82.77 502.05,145.10 506.85,154.95 507.75,163.95 505.95,173.45 501.85,182.52 493.69,191.03 478.99,202.71 269.87,371.47 266.17,376.75 263.47,383.22 262.57,390.89 263.37,397.92 266.92,404.68 274.22,412.06 330.39,454.69 335.99,460.74 340.80,467.92 343.25,475.52 344.80,484.38 345.35,491.98 344.25,498.52 342.55,505.34 339.94,513.08 337.44,519.77 336.04,527.43 337.69,536.58 342.15,544.46 349.65,552.90 355.55,558.67 362.65,563.59 370.20,566.55 377.71,568.16 384.86,568.09 391.36,567.04 399.06,563.45 430.02,550.65 439.08,550.65 448.33,552.05 458.28,555.08 466.18,558.74 474.74,564.15 599.78,650.47 607.28,658.35 611.83,665.52 614.83,674.88 616.43,687.05 616.78,699.78 616.28,711.46 614.53,722.72 611.43,733.27 606.73,742.34 599.93,750.85 592.22,756.34 583.97,759.16 575.02,760.00 566.27,759.44 556.91,756.76 547.36,752.54 537.11,746.35 236.16,545.58 226.26,537.56 220.21,529.97 217.56,522.79 218.61,513.22 221.41,503.23 225.51,492.40 229.51,480.58 230.31,470.80 226.06,462.01 220.76,456.03 210.70,448.29 195.90,439.15 181.44,429.93"
        fill="none"
        stroke="#e94560"
        stroke-width="8.0"
        stroke-linejoin="round"
        stroke-linecap="round"/>
  <!-- Start/finish line -->
  <line x1="171.05" y1="447.02" x2="191.84" y2="412.85"
        stroke="#f5f5f5" stroke-width="9.6"
        stroke-linecap="round"/>
</svg>
