<?xml version="1.0" encoding="utf-8"?>
<svg xmlns="http://www.w3.org/2000/svg"
     width="676.8" height="800.0"
     viewBox="0 0 676.8 800.0">
  <rect width="100%" height="100%" fill="#1a1a2e"/>
  <!-- Track outline -->
  <polyline points="562.52,283.86 384.13,567.11 297.92,704.79 294.47,709.78 287.60,718.22 282.08,723.24 277.98,725.92 273.59,727.95 269.01,729.31 264.28,729.99 259.46,730.00 254.63,729.31 247.45,727.00 229.90,719.53 224.10,718.06 218.53,717.33 212.64,717.16 206.57,717.72 199.21,719.33 191.77,721.85 184.70,725.23 177.69,729.49 161.98,741.91 153.70,748.09 147.80,751.64 141.45,754.66 134.92,757.00 128.05,758.71 121.12,759.70 113.97,760.00 106.93,759.57 99.83,758.40 92.97,756.52 86.22,753.91 79.85,750.66 73.72,746.71 68.07,742.23 62.78,737.10 58.06,731.55 53.81,725.45 48.51,715.67 44.46,705.19 41.63,694.11 40.15,682.66 40.00,671.06 41.07,659.34 44.21,643.70 49.07,628.26 55.53,613.14 65.52,594.77 129.75,493.31 137.72,481.27 139.83,478.82 141.99,476.74 144.22,474.99 148.91,472.29 155.95,469.72 159.51,468.90 163.11,468.40 166.80,468.24 170.50,468.40 174.19,468.91 177.85,469.75 181.44,470.94 184.94,472.49 188.35,474.37 191.62,476.60 194.74,479.15 197.68,482.02 202.85,488.61 206.97,496.17 209.98,504.54 211.76,513.54 212.21,522.90 211.35,532.42 209.26,541.99 205.97,551.52 199.87,563.85 190.01,578.67 157.77,620.46 143.87,643.84 141.91,648.16 140.63,652.05 139.85,655.86 139.61,659.64 139.99,663.23 140.92,666.65 142.44,669.86 144.41,672.76 146.94,675.46 149.84,677.74 153.30,679.74 157.04,681.25 161.23,682.31 165.72,682.81 171.51,682.62 177.66,681.68 184.29,680.08 192.20,677.21 248.75,647.77 272.74,631.18 295.23,609.87 312.62,587.59 327.22,563.04 330.24,556.16 332.26,550.05 333.07,546.22 333.40,542.59 333.35,538.94 332.90,535.36 332.10,531.96 330.81,528.53 328.14,523.50 324.32,518.11 304.46,498.86 294.05,487.97 286.57,477.93 278.40,463.91 264.92,436.04 250.57,402.45 245.77,388.18 242.48,373.68 241.79,366.65 241.80,363.19 242.08,359.81 243.42,353.09 246.97,343.12 252.00,333.43 258.32,324.45 265.71,316.32 276.87,306.41 285.99,299.65 296.09,293.86 370.70,260.78 470.39,212.94 532.49,180.87 537.36,177.55 540.77,174.58 543.13,171.96 544.95,169.31 545.91,167.28 546.52,165.21 546.78,163.16 546.73,161.09 546.37,159.06 545.67,157.04 544.23,154.43 542.35,151.93 539.91,149.54 537.04,147.43 533.08,145.14 528.05,143.11 512.86,139.52 496.80,137.16 489.46,136.78 482.81,137.25 476.03,138.61 468.59,140.99 436.41,155.28 431.38,156.98 426.48,157.85 424.10,157.87 421.83,157.60 419.80,157.10 417.51,156.33 414.55,154.96 411.53,153.25 408.71,151.30 406.03,149.08 403.53,146.60 401.23,143.87 399.20,140.98 397.42,137.88 395.97,134.63 394.82,131.21 394.03,127.57 393.57,124.01 393.55,119.04 394.20,114.02 396.44,106.51 400.09,99.29 405.00,92.44 413.18,83.94 430.27,70.32 457.63,49.43 466.53,44.24 473.28,41.59 476.70,40.74 480.15,40.21 483.56,40.00 486.96,40.12 490.29,40.56 493.57,41.32 496.80,42.40 499.96,43.80 503.01,45.49 506.07,47.58 513.68,54.45 531.61,72.82 536.55,76.26 540.83,78.49 543.19,79.39 545.26,79.84 546.66,79.93 548.11,79.73 550.84,78.80 553.98,77.30 558.82,74.32 563.61,71.42 566.33,70.30 568.92,69.59 571.67,69.15 574.47,69.03 577.33,69.19 580.32,69.68 584.26,70.75 588.43,72.36 598.70,78.16 609.07,85.97 617.18,93.68 624.61,102.92 629.31,110.85 633.00,119.54 635.54,128.96 636.80,138.88 636.67,149.06 635.15,159.35 632.31,169.64 626.71,183.03 617.47,199.16 562.70,283.58 562.52,283.86"
        fill="none"
        stroke="#e94560"
        stroke-width="8.0"
        stroke-linejoin="round"
        stroke-linecap="round"/>
  <!-- Start/finish line -->
  <line x1="579.45" y1="294.52" x2="545.60" y2="273.20"
        stroke="#f5f5f5" stroke-width="9.6"
        stroke-linecap="round"/>
</svg>
