<?xml version="1.0" encoding="utf-8"?>
<svg xmlns="http://www.w3.org/2000/svg"
     width="800.0" height="398.4"
     viewBox="0 0 800.0 398.4">
  <rect width="100%" height="100%" fill="#1a1a2e"/>
  <!-- Track outline -->
  <polyline points="395.92,306.28 372.03,311.91 236.28,340.85 162.70,352.72 119.53,357.95 89.63,358.43 74.01,355.11 66.87,352.60 60.19,349.16 53.85,344.72 48.36,339.41 45.40,335.41 42.89,331.02 41.16,326.38 40.19,321.26 40.00,315.91 40.58,310.67 42.06,305.60 44.31,300.64 47.10,296.13 50.38,292.17 54.18,288.61 58.29,285.58 64.88,282.10 71.98,279.50 79.86,277.22 87.93,275.71 95.80,275.11 103.62,275.35 111.07,276.59 118.44,278.50 133.09,283.82 146.79,290.69 159.32,299.36 172.09,307.80 179.93,311.31 187.45,313.59 194.91,315.03 202.37,315.35 207.38,314.87 212.37,313.79 217.06,312.07 221.56,309.60 225.77,306.40 229.18,302.64 231.14,299.36 232.65,295.73 233.71,291.89 234.26,288.10 234.19,282.86 233.23,277.58 231.49,272.67 228.89,268.23 225.51,264.20 221.62,260.88 217.32,258.44 212.53,256.76 207.61,255.60 200.15,255.28 192.53,255.44 184.46,255.08 176.75,253.57 173.21,251.85 169.84,249.61 166.78,247.01 164.18,244.13 162.09,241.02 160.35,237.58 159.10,233.98 158.49,230.35 158.59,226.47 159.36,222.39 160.64,218.44 162.35,214.88 164.40,211.72 166.91,208.81 169.74,206.25 172.86,204.25 177.71,202.45 183.08,201.57 188.42,201.29 195.75,202.21 203.08,203.41 210.76,203.57 218.28,202.49 223.13,200.57 227.80,197.86 231.78,194.54 234.90,190.62 237.37,186.07 239.27,181.35 241.01,173.92 241.49,166.25 240.75,158.61 238.76,151.18 235.51,144.31 230.75,136.91 216.32,121.45 205.10,107.42 197.96,90.95 195.17,81.28 193.59,72.57 193.59,64.18 194.52,57.02 197.32,48.31 200.57,43.04 203.08,41.60 206.06,40.68 209.31,40.16 212.59,40.00 215.64,40.24 219.28,41.12 222.88,42.68 226.28,44.72 229.43,46.95 234.45,51.75 239.21,58.46 251.87,82.88 264.73,114.73 278.87,154.14 284.50,179.95 288.84,198.66 292.60,209.25 297.87,219.80 302.86,227.91 308.64,235.66 314.85,240.38 328.86,248.25 344.42,254.25 351.17,256.16 359.01,257.48 381.52,258.60 407.17,257.00 431.21,250.77 451.75,242.94 459.73,238.98 466.28,234.70 478.66,223.55 499.68,200.37 506.37,194.98 513.09,190.94 520.10,188.27 527.39,186.47 545.72,184.95 581.17,188.35 606.92,188.75 624.63,185.39 635.63,181.59 647.01,174.84 657.13,168.08 669.80,154.14 687.64,126.12 700.31,108.30 707.54,99.95 713.42,94.07 719.27,89.75 726.95,87.28 733.32,87.28 737.31,88.28 741.00,89.71 745.63,92.31 749.91,95.71 753.47,99.63 756.17,103.98 758.20,108.82 759.52,113.81 760.00,119.09 759.74,124.52 758.97,129.84 756.88,137.51 753.73,144.78 749.39,151.46 744.38,157.77 733.35,170.24 696.71,200.45 655.91,225.35 625.92,239.14 532.41,269.79 420.03,299.96 395.92,306.28"
        fill="none"
        stroke="#e94560"
        stroke-width="8.0"
        stroke-linejoin="round"
        stroke-linecap="round"/>
  <!-- Start/finish line -->
  <line x1="400.75" y1="325.69" x2="391.09" y2="286.87"
        stroke="#f5f5f5" stroke-width="9.6"
        stroke-linecap="round"/>
</svg>
