<?xml version="1.0" encoding="utf-8"?>
<svg xmlns="http://www.w3.org/2000/svg"
     width="382.7" height="800.0"
     viewBox="0 0 382.7 800.0">
  <rect width="100%" height="100%" fill="#1a1a2e"/>
  <!-- Track outline -->
  <polyline points="45.82,269.04 42.82,283.67 40.63,305.31 40.00,326.22 40.97,334.18 42.63,340.98 47.46,354.60 53.46,367.04 61.71,379.07 90.37,414.80 99.60,429.29 103.03,436.69 105.90,444.91 108.98,457.66 111.07,470.71 111.61,487.89 110.10,501.81 103.68,532.12 50.18,709.12 48.97,717.28 48.91,723.52 49.53,730.47 50.95,737.15 52.31,741.49 54.04,745.68 56.22,749.41 58.37,752.07 60.85,754.48 63.57,756.53 66.44,758.12 69.78,759.25 73.36,759.86 77.05,760.00 80.67,759.74 85.48,758.67 90.24,756.82 94.75,754.39 100.70,749.82 106.16,744.35 115.58,732.40 122.41,720.89 146.33,656.82 169.88,581.15 178.39,528.50 179.10,511.81 178.31,496.22 176.32,481.67 172.20,466.08 136.95,393.25 123.92,358.88 119.03,340.77 112.52,303.75 111.98,286.45 112.65,269.50 116.89,239.73 133.35,183.68 157.33,133.81 165.09,122.35 173.76,112.49 178.89,107.66 184.37,103.35 190.17,99.82 196.25,97.01 202.93,94.64 209.75,93.46 214.15,93.57 218.52,94.32 222.64,95.94 225.55,97.79 228.40,100.17 230.96,102.94 233.10,106.01 235.19,110.49 236.66,115.50 237.48,120.62 237.63,125.79 237.13,131.09 236.01,135.98 232.91,142.20 228.89,147.78 220.33,157.70 178.74,198.43 169.62,210.92 162.82,222.32 156.79,235.71 152.54,250.06 148.48,278.90 149.00,292.90 154.24,321.08 158.79,333.77 165.35,348.09 169.42,354.17 174.04,359.49 179.23,364.00 184.91,367.53 189.15,369.35 193.62,370.68 198.15,371.46 205.09,371.58 212.10,370.54 219.39,368.43 226.33,365.25 231.96,361.28 237.15,356.48 241.81,351.48 247.14,344.24 307.36,238.06 339.21,160.01 341.33,151.74 342.30,144.86 342.71,137.97 342.49,131.12 340.36,117.00 336.71,102.91 331.02,89.61 327.37,83.19 323.26,77.20 313.16,66.50 300.59,56.55 285.91,48.33 273.27,43.88 259.71,41.24 245.48,40.00 216.82,43.27 202.41,46.91 188.20,52.12 181.84,55.71 174.84,60.68 157.28,74.48 137.16,94.03 109.26,130.97 83.26,173.44 51.45,247.78 46.90,263.83 45.82,269.04"
        fill="none"
        stroke="#e94560"
        stroke-width="8.0"
        stroke-linejoin="round"
        stroke-linecap="round"/>
  <!-- Start/finish line -->
  <line x1="65.41" y1="273.06" x2="26.23" y2="265.01"
        stroke="#f5f5f5" stroke-width="9.6"
        stroke-linecap="round"/>
</svg>
