<?xml version="1.0" encoding="utf-8"?>
<svg xmlns="http://www.w3.org/2000/svg"
     width="800.0" height="514.2"
     viewBox="0 0 800.0 514.2">
  <rect width="100%" height="100%" fill="#1a1a2e"/>
  <!-- Track outline -->
  <polyline points="270.14,254.90 234.44,250.55 218.40,250.75 170.38,258.34 86.78,282.96 75.99,288.09 63.19,296.31 57.66,300.83 52.69,305.76 48.62,310.89 45.23,316.35 42.64,321.86 40.85,327.68 40.00,334.50 40.30,341.43 41.19,345.78 42.62,350.00 44.54,353.99 47.00,357.73 49.93,361.22 53.26,364.33 59.27,368.30 65.77,371.46 77.84,375.56 103.88,380.38 131.29,385.64 143.64,387.92 157.00,389.66 167.74,390.55 174.90,390.17 181.24,389.99 193.75,387.99 205.78,384.66 211.61,382.38 217.20,379.55 222.41,376.06 227.68,371.59 246.05,350.76 255.98,341.61 267.16,334.12 279.45,327.98 292.95,323.08 304.45,320.27 316.34,318.50 328.23,317.92 342.52,318.85 355.84,321.66 362.00,323.76 367.81,326.44 372.94,329.65 377.62,333.57 380.73,336.85 383.59,340.52 385.83,344.36 387.35,348.18 388.33,352.15 388.56,356.17 388.17,359.43 387.30,362.79 385.99,366.03 384.32,368.91 382.18,371.41 379.58,373.66 376.73,375.58 373.84,377.10 368.15,378.41 362.28,379.17 356.30,380.33 350.71,382.41 348.09,384.33 345.61,386.70 343.45,389.41 341.75,392.24 340.52,395.25 339.71,398.53 339.29,401.87 339.35,405.11 340.20,409.25 341.81,413.30 343.95,416.96 346.60,420.15 349.79,422.98 353.20,425.38 358.26,428.06 364.22,429.93 385.71,433.42 419.66,438.78 468.90,448.13 508.79,456.35 543.60,463.12 573.01,467.95 606.97,472.48 643.48,474.17 675.27,472.45 688.45,470.33 699.15,467.45 713.46,462.34 726.34,455.64 737.56,447.63 742.46,442.92 746.84,437.82 750.62,432.41 753.84,426.70 756.39,420.86 758.30,414.86 759.50,409.05 760.00,403.11 759.58,396.23 758.20,389.46 756.77,385.44 754.93,381.62 752.59,378.11 749.53,374.70 745.93,371.64 742.04,369.36 738.99,368.30 735.72,367.62 732.41,367.39 729.20,367.57 725.02,368.53 720.91,370.25 717.29,372.50 713.18,376.72 709.75,381.67 706.64,387.39 703.41,393.10 699.31,398.13 694.69,402.58 689.74,406.29 684.40,409.23 678.87,411.15 673.15,412.11 669.28,412.16 665.40,411.73 661.61,410.87 656.10,408.62 650.99,405.41 646.29,401.21 642.19,396.26 638.88,390.82 635.69,383.95 617.75,336.30 591.66,286.27 587.72,280.30 583.08,274.82 562.05,254.47 539.79,235.43 527.60,227.87 493.10,208.71 489.13,205.45 486.04,202.29 483.54,198.90 481.52,195.29 480.02,191.47 479.32,187.63 479.36,185.28 479.68,182.85 480.29,180.45 481.18,178.23 482.37,176.28 484.46,174.23 487.09,172.54 490.00,171.17 492.98,170.11 497.14,169.20 501.54,168.87 505.88,168.95 511.95,169.76 517.97,171.22 531.17,175.67 542.89,180.91 568.32,195.14 581.06,203.71 599.35,220.32 654.06,281.49 665.81,291.15 677.76,298.58 689.95,303.94 696.02,305.84 702.12,307.12 708.01,307.71 713.98,307.61 720.83,306.64 727.53,304.75 731.48,303.00 735.18,300.86 738.47,298.20 741.53,294.74 744.10,290.74 745.85,286.52 746.54,282.17 746.42,277.65 745.67,273.33 744.38,269.56 742.52,266.00 740.28,262.66 736.04,257.96 731.06,253.76 682.36,211.49 660.05,193.01 639.57,177.16 611.23,153.25 575.97,123.93 540.80,94.32 496.31,57.34 484.83,48.97 479.16,45.66 473.34,42.96 467.63,41.06 461.72,40.03 457.18,40.00 452.50,40.48 448.10,41.52 444.40,42.98 440.91,44.90 437.70,47.18 433.20,51.40 429.45,56.36 427.47,60.02 425.89,63.96 424.80,68.03 424.24,74.46 424.54,81.03 425.59,87.65 426.62,94.32 426.74,101.02 426.06,107.70 424.20,114.52 421.49,120.94 418.53,126.05 415.00,130.63 410.74,134.67 406.01,138.23 395.58,144.33 390.62,147.59 386.03,151.38 383.03,154.64 380.32,158.31 378.14,162.17 376.65,166.17 375.70,170.39 375.18,174.69 375.22,181.46 376.31,188.24 378.57,195.04 381.75,201.33 385.21,206.19 389.20,210.58 393.24,214.55 398.85,218.88 471.27,258.49 505.35,275.30 511.31,279.29 515.87,283.51 518.57,286.80 520.83,290.42 522.21,294.18 522.55,297.22 522.37,300.43 521.70,303.59 520.59,306.47 518.82,309.17 516.50,311.68 513.81,313.90 510.98,315.75 506.85,317.59 502.35,318.80 497.77,319.59 490.88,320.02 484.00,319.66 471.57,317.31 340.97,274.14 281.83,256.31 270.14,254.90"
        fill="none"
        stroke="#e94560"
        stroke-width="8.0"
        stroke-linejoin="round"
        stroke-linecap="round"/>
  <!-- Start/finish line -->
  <line x1="267.72" y1="274.75" x2="272.55" y2="235.04"
        stroke="#f5f5f5" stroke-width="9.6"
        stroke-linecap="round"/>
</svg>
