<?xml version="1.0" encoding="utf-8"?>
<svg xmlns="http://www.w3.org/2000/svg"
     width="800.0" height="628.6"
     viewBox="0 0 800.0 628.6">
  <rect width="100%" height="100%" fill="#1a1a2e"/>
  <!-- Track outline -->
  <polyline points="339.89,46.60 353.09,45.87 500.58,40.00 558.89,45.47 580.37,50.65 600.67,57.61 620.54,66.36 639.73,76.97 657.62,89.16 674.47,103.17 689.45,118.56 703.10,135.65 714.75,153.38 725.09,173.18 735.52,199.06 744.28,227.89 756.30,299.36 760.00,362.37 758.28,383.06 754.60,400.80 749.74,412.70 743.97,422.22 739.14,427.97 733.94,432.38 728.15,436.07 721.98,438.78 715.43,440.52 708.67,441.25 701.89,441.05 694.82,439.59 684.84,435.66 674.89,429.71 666.13,421.90 658.44,412.34 652.28,401.73 647.50,389.38 643.97,372.90 642.44,352.61 647.11,298.84 651.74,244.82 650.05,223.72 646.46,206.67 642.28,194.97 636.88,185.13 632.52,179.42 627.63,174.48 622.40,170.35 616.67,166.95 610.59,164.44 604.40,162.86 598.04,162.21 591.54,162.45 585.24,163.71 579.19,165.94 573.28,169.09 567.80,173.10 562.91,177.88 558.41,183.43 554.51,189.62 549.85,200.72 546.74,211.21 545.86,214.97 545.50,219.10 545.75,237.65 548.41,262.31 561.30,309.04 574.18,354.76 576.81,373.71 577.38,390.80 576.25,409.34 573.22,427.61 567.77,446.15 560.96,463.08 554.96,474.62 548.35,484.86 532.38,504.50 523.45,513.25 513.39,521.43 497.64,531.84 480.26,541.11 462.76,548.32 443.01,554.15 361.97,566.95 207.19,588.57 188.00,588.04 173.21,585.13 166.35,582.62 160.16,579.38 154.67,575.33 150.26,570.95 146.39,565.89 143.39,560.35 141.47,554.64 140.31,548.48 140.00,542.33 140.71,536.05 142.29,529.73 144.55,523.82 147.75,517.83 151.76,512.32 156.48,507.18 163.69,501.10 172.08,495.68 181.33,491.06 200.55,484.82 222.68,480.86 294.05,478.55 365.45,474.30 390.49,468.51 412.85,460.49 429.04,452.39 443.66,442.63 456.74,431.49 468.50,418.62 478.25,404.73 486.22,389.34 491.85,373.75 495.44,355.57 496.37,319.20 493.74,280.25 489.33,249.11 482.94,221.94 477.29,206.47 470.39,193.47 461.49,181.40 451.17,171.16 439.19,162.49 425.65,155.69 407.39,149.54 384.38,145.77 305.52,145.57 226.38,151.64 202.75,155.81 183.93,161.52 170.25,167.39 158.09,174.72 147.86,183.06 139.10,192.95 132.74,203.43 128.10,215.01 125.62,226.80 124.82,238.95 125.81,251.13 128.41,263.00 132.71,274.50 138.39,285.03 145.51,294.46 153.65,302.32 159.65,306.61 165.98,310.13 172.54,312.77 179.32,314.59 186.27,315.48 193.65,315.56 202.92,314.75 212.76,312.69 223.50,308.72 252.70,288.87 281.95,267.17 298.43,257.61 313.32,251.22 321.35,249.27 329.10,248.38 336.67,248.46 343.94,249.39 351.03,251.22 357.79,253.93 363.83,257.37 369.52,261.62 374.63,266.68 378.93,272.43 382.69,278.91 385.57,285.39 387.75,292.56 388.74,300.21 388.45,311.88 386.36,323.98 381.84,335.97 375.54,347.10 367.23,357.71 357.11,367.23 341.70,377.84 322.88,387.32 246.17,411.00 177.65,424.04 161.46,424.73 147.04,423.56 133.11,420.72 119.88,415.94 108.20,409.47 97.52,401.08 88.70,391.61 80.67,379.66 70.61,358.20 61.45,332.57 44.47,263.65 41.07,238.01 40.00,214.29 41.16,195.90 44.13,178.61 49.07,161.68 55.80,145.73 64.68,130.38 75.16,116.45 87.68,103.45 101.48,92.24 116.63,82.56 133.30,74.58 155.83,66.93 181.78,60.94 275.34,50.00 317.65,47.86 339.89,46.60"
        fill="none"
        stroke="#e94560"
        stroke-width="8.0"
        stroke-linejoin="round"
        stroke-linecap="round"/>
  <!-- Start/finish line -->
  <line x1="338.78" y1="26.63" x2="341.01" y2="66.57"
        stroke="#f5f5f5" stroke-width="9.6"
        stroke-linecap="round"/>
</svg>
