<?xml version="1.0" encoding="utf-8"?>
<svg xmlns="http://www.w3.org/2000/svg"
     width="800.0" height="732.1"
     viewBox="0 0 800.0 732.1">
  <rect width="100%" height="100%" fill="#1a1a2e"/>
  <!-- Track outline -->
  <polyline points="129.94,607.11 70.66,557.04 60.93,548.05 53.99,539.95 47.84,530.05 43.23,519.10 41.32,511.71 40.19,503.92 40.00,496.22 42.01,484.25 45.78,473.06 50.41,464.18 55.95,456.12 70.10,439.03 87.14,422.25 106.43,405.82 128.24,389.31 160.25,366.54 176.68,357.23 193.56,350.19 204.08,347.65 214.97,346.32 225.65,346.44 236.20,347.77 246.24,350.08 255.94,353.56 264.84,358.13 273.32,363.77 288.35,377.22 301.33,392.64 312.14,409.06 321.55,426.43 325.60,435.47 328.73,444.93 330.45,454.63 330.64,464.34 329.55,470.67 327.62,476.85 325.10,482.52 321.79,487.92 317.81,492.73 313.28,496.76 307.11,500.32 300.19,502.79 293.33,504.12 287.18,504.20 281.09,503.30 275.10,501.81 266.80,498.64 257.93,494.22 224.41,475.84 215.16,472.35 206.49,470.24 197.46,468.99 188.42,468.95 182.38,469.69 176.39,471.06 170.67,473.22 165.47,476.07 160.54,479.63 156.22,484.01 152.67,488.86 149.65,494.38 147.69,500.32 147.00,506.62 147.35,513.31 148.51,519.80 152.81,530.01 158.61,539.36 164.15,546.68 170.77,553.87 201.93,582.19 212.00,588.92 221.86,594.01 233.04,598.31 244.17,601.32 253.26,602.81 262.19,603.39 280.64,602.30 299.24,598.08 307.27,595.61 317.47,590.88 505.90,458.94 645.47,360.99 661.95,347.61 668.47,340.22 673.69,331.89 676.00,326.25 677.67,320.19 678.30,314.05 677.91,308.89 676.79,303.53 675.07,298.36 672.92,293.79 669.88,289.52 666.14,285.77 661.98,282.64 657.79,280.10 651.96,277.71 645.84,276.46 639.64,275.99 633.15,276.34 626.58,277.59 620.09,279.55 610.26,284.09 600.90,289.84 586.30,301.85 527.95,360.99 513.59,372.02 497.45,379.96 480.49,386.02 471.67,388.02 462.74,389.23 444.66,389.11 426.70,386.96 409.05,382.82 392.20,376.17 376.80,366.70 358.65,351.80 351.02,343.97 344.18,335.49 338.67,326.84 334.22,317.53 331.20,308.03 329.39,298.09 329.02,288.00 329.90,277.91 332.07,267.85 335.38,258.19 340.07,248.61 345.77,239.69 352.71,231.04 360.37,223.22 368.61,216.02 377.14,209.80 385.28,204.76 393.76,200.81 400.36,198.62 407.25,197.05 414.08,196.70 419.17,197.33 424.31,198.62 429.24,200.57 433.77,203.35 437.75,206.79 441.51,211.02 444.77,215.71 447.26,220.60 449.09,226.43 450.04,232.61 450.07,238.71 447.84,247.87 444.19,256.67 439.71,264.84 435.44,273.17 433.24,279.63 431.52,286.47 431.15,293.08 432.13,297.97 433.98,302.86 436.45,307.40 439.31,311.23 443.23,314.79 447.90,317.57 452.93,319.60 457.97,320.93 465.25,321.40 472.83,320.43 480.04,318.59 487.91,315.46 497.42,309.86 569.00,259.56 638.79,204.84 645.13,198.81 649.58,193.85 652.92,188.10 654.88,183.13 656.36,177.65 657.24,172.02 657.24,166.66 656.15,161.14 654.14,155.63 651.49,150.50 648.55,146.20 644.04,141.94 638.82,138.89 633.36,136.66 627.51,134.97 621.44,134.19 615.40,134.35 609.70,135.52 604.03,137.67 597.88,140.69 582.22,151.79 566.19,162.79 558.90,165.99 551.96,168.11 545.12,168.81 539.95,168.38 534.76,167.21 529.80,165.25 525.43,162.40 521.93,158.95 518.70,154.77 516.08,150.07 514.41,145.15 513.85,140.10 514.12,134.58 514.99,129.11 516.26,124.14 520.26,115.89 525.62,108.61 532.16,101.41 539.40,94.80 555.56,81.85 593.38,56.62 614.02,46.61 624.70,43.17 635.51,40.90 646.19,40.00 656.79,40.43 666.99,42.19 676.82,45.40 685.72,50.21 694.15,56.31 702.10,63.35 709.52,71.49 716.30,80.68 722.32,90.81 727.27,101.80 731.12,113.03 733.24,121.99 734.53,130.95 735.04,149.41 732.10,171.74 729.39,194.55 729.58,206.05 731.20,216.30 735.09,226.55 740.18,236.25 746.04,245.56 751.68,255.06 755.92,265.74 758.89,276.73 759.97,285.73 760.00,294.65 759.10,304.00 757.27,313.23 750.83,331.69 741.27,349.49 729.50,366.74 715.91,383.36 700.22,399.09 682.17,414.27 338.35,667.86 320.83,679.20 311.53,683.97 301.97,687.81 292.03,690.35 281.96,691.76 271.73,692.11 261.48,691.49 241.15,687.46 221.70,680.14 203.79,669.46 129.94,607.11"
        fill="none"
        stroke="#e94560"
        stroke-width="8.0"
        stroke-linejoin="round"
        stroke-linecap="round"/>
  <!-- Start/finish line -->
  <line x1="117.03" y1="622.39" x2="142.84" y2="591.83"
        stroke="#f5f5f5" stroke-width="9.6"
        stroke-linecap="round"/>
</svg>
