<?xml version="1.0" encoding="utf-8"?>
<svg xmlns="http://www.w3.org/2000/svg"
     width="652.6" height="800.0"
     viewBox="0 0 652.6 800.0">
  <rect width="100%" height="100%" fill="#1a1a2e"/>
  <!-- Track outline -->
  <polyline points="434.75,94.34 566.48,141.89 582.16,149.67 593.70,157.94 598.97,163.43 603.46,169.49 607.07,176.13 609.78,183.11 611.72,190.58 612.58,198.17 612.27,205.34 610.85,212.58 605.27,222.92 576.34,255.56 554.81,298.61 535.53,353.48 524.42,400.23 516.23,428.41 511.80,448.43 505.11,469.21 498.45,481.83 488.17,493.61 484.45,496.28 474.46,501.47 461.92,506.12 453.87,507.34 445.69,507.49 438.06,506.62 432.16,505.09 426.65,502.84 421.64,499.64 417.37,495.75 413.54,491.06 410.47,485.80 408.29,480.46 406.80,474.59 406.14,467.65 408.37,451.82 412.83,433.25 415.24,417.69 414.88,411.44 413.85,406.18 412.10,401.49 410.13,398.09 407.69,395.08 404.91,392.45 401.97,390.28 398.46,388.33 394.63,386.92 390.62,386.04 386.53,385.74 380.55,386.43 374.31,388.33 367.12,391.00 342.86,402.97 317.79,414.41 308.64,416.59 300.30,417.46 292.49,417.12 286.04,415.82 279.93,413.57 274.37,410.30 269.59,406.18 265.29,401.14 261.75,395.42 259.16,389.29 257.27,382.50 256.14,375.02 256.30,358.82 258.58,340.90 263.43,316.61 270.30,293.84 276.73,280.57 284.28,269.97 290.00,264.14 296.24,259.29 302.79,255.44 309.95,252.47 317.45,250.56 325.22,249.72 337.96,250.79 352.44,254.60 386.16,269.44 419.07,283.09 427.31,284.54 434.28,284.73 441.28,283.81 449.28,281.64 457.31,278.28 464.49,274.01 469.79,269.78 474.54,264.94 478.39,259.29 481.22,253.16 483.30,246.37 484.27,239.50 484.00,232.60 482.69,225.62 480.46,219.18 476.98,213.04 472.33,207.59 466.35,202.25 441.84,188.06 410.47,174.26 315.96,138.11 300.09,135.06 286.56,134.60 274.16,136.02 262.25,139.33 250.71,144.40 239.83,151.42 230.81,159.16 221.73,171.06 194.78,228.94 170.57,295.52 162.76,325.34 158.82,352.34 158.38,375.71 160.76,398.89 167.08,427.57 176.00,453.88 183.81,469.32 192.94,481.94 204.35,493.16 217.01,502.08 230.60,508.48 245.78,513.06 272.37,516.53 297.84,520.34 305.47,523.09 311.97,526.37 318.11,530.79 326.82,540.67 336.02,553.02 375.75,601.07 401.34,630.47 409.29,645.34 415.14,661.16 418.84,676.99 420.20,692.89 419.47,702.69 417.66,712.26 414.98,720.92 411.76,727.93 407.80,734.15 403.18,739.79 396.91,745.66 389.81,750.73 382.65,754.74 376.25,757.41 369.85,759.12 363.27,760.00 356.13,760.00 348.87,759.05 341.40,757.03 327.97,750.96 314.10,741.54 278.77,703.26 268.07,691.13 257.66,681.41 250.21,677.25 242.45,674.39 234.53,672.56 226.38,671.53 218.01,671.57 208.88,672.87 185.70,681.87 162.65,691.17 149.98,693.19 138.24,692.93 129.95,691.55 121.69,689.19 113.72,685.80 106.27,681.45 99.11,676.11 92.34,669.51 82.01,655.79 72.89,639.05 64.65,617.43 57.91,591.95 45.66,505.13 40.00,399.43 41.84,378.72 45.51,361.03 51.22,344.02 59.07,326.94 75.95,299.83 91.48,272.64 95.65,256.82 97.96,240.53 102.99,190.01 115.76,139.52 131.44,94.03 138.66,80.31 146.50,70.09 156.78,60.21 168.37,52.32 182.14,45.91 197.19,41.79 216.04,40.00 236.71,40.61 295.08,49.38 433.10,93.73 434.75,94.34"
        fill="none"
        stroke="#e94560"
        stroke-width="8.0"
        stroke-linejoin="round"
        stroke-linecap="round"/>
  <!-- Start/finish line -->
  <line x1="441.55" y1="75.53" x2="427.96" y2="113.15"
        stroke="#f5f5f5" stroke-width="9.6"
        stroke-linecap="round"/>
</svg>
