<?xml version="1.0" encoding="utf-8"?>
<svg xmlns="http://www.w3.org/2000/svg"
     width="800.0" height="670.1"
     viewBox="0 0 800.0 670.1">
  <rect width="100%" height="100%" fill="#1a1a2e"/>
  <!-- Track outline -->
  <polyline points="431.74,524.40 374.04,560.50 320.68,593.90 287.06,613.84 273.77,620.98 265.20,625.02 257.01,627.71 250.65,629.20 241.31,630.14 229.66,630.14 217.71,627.71 204.52,622.46 192.19,615.32 183.81,607.64 176.87,598.48 168.20,585.55 154.04,559.96 121.97,470.78 91.34,354.26 92.01,335.41 102.99,320.32 116.29,309.00 133.14,298.50 148.07,292.17 170.23,286.51 186.60,286.10 204.13,288.80 222.05,295.67 235.92,308.20 244.97,325.17 250.56,343.62 249.69,367.60 246.32,393.87 246.22,426.33 253.45,445.05 262.79,458.79 274.16,467.42 288.60,473.48 302.28,476.17 316.15,474.29 329.35,469.97 343.51,461.22 354.01,450.17 362.19,436.70 369.13,412.73 362.29,245.02 357.96,225.08 349.58,205.42 337.25,190.46 322.61,179.28 306.91,173.22 280.03,168.91 127.07,181.30 87.10,184.00 68.13,177.80 55.99,168.10 48.48,156.11 40.96,136.58 40.00,120.55 41.73,99.00 53.77,83.11 65.62,74.08 86.81,65.32 110.41,57.92 155.39,61.55 205.86,71.52 260.09,70.17 309.02,58.86 348.90,47.00 375.97,42.16 401.97,41.89 417.87,49.43 428.94,61.28 438.67,73.41 443.39,87.01 447.63,111.53 447.63,156.65 447.53,293.24 449.65,320.86 457.84,332.58 469.01,340.93 484.81,344.57 499.74,342.81 520.35,336.62 543.37,327.32 560.42,316.68 584.79,298.77 611.28,278.96 626.88,263.20 637.00,246.77 639.98,231.28 636.81,215.52 626.60,199.09 614.27,184.81 591.53,165.95 577.09,153.82 564.76,139.55 556.47,123.52 551.66,103.58 558.79,86.47 574.20,69.10 591.73,56.57 609.55,49.43 631.51,44.31 655.11,41.48 681.11,40.00 700.18,43.23 720.60,51.85 730.62,62.50 739.97,76.24 751.81,98.73 756.73,120.28 760.00,148.71 758.84,252.70 755.18,275.19 748.25,296.48 738.33,314.53 724.36,334.19 704.71,351.57 669.36,376.22 624.96,403.84 431.74,524.40"
        fill="none"
        stroke="#e94560"
        stroke-width="8.0"
        stroke-linejoin="round"
        stroke-linecap="round"/>
  <!-- Start/finish line -->
  <line x1="442.33" y1="541.36" x2="421.15" y2="507.43"
        stroke="#f5f5f5" stroke-width="9.6"
        stroke-linecap="round"/>
</svg>
