<?xml version="1.0" encoding="utf-8"?>
<svg xmlns="http://www.w3.org/2000/svg"
     width="618.1" height="800.0"
     viewBox="0 0 618.1 800.0">
  <rect width="100%" height="100%" fill="#1a1a2e"/>
  <!-- Track outline -->
  <polyline points="577.43,386.14 576.42,326.17 571.55,288.07 563.72,255.96 553.73,228.03 541.63,203.33 531.06,187.00 518.26,172.32 497.89,154.97 471.58,137.47 341.48,72.91 277.78,45.33 255.69,41.27 238.64,40.00 232.03,40.35 219.05,42.47 204.89,45.57 187.59,51.22 175.07,58.13 164.12,66.81 157.87,73.55 152.38,81.03 147.88,88.93 144.50,96.73 142.05,104.94 140.70,114.40 142.89,142.55 147.78,172.43 154.15,213.14 153.55,228.17 150.90,242.70 145.36,259.74 137.45,276.07 128.29,288.98 116.37,301.72 86.84,325.53 58.66,349.02 49.94,360.03 44.29,370.61 41.90,377.49 40.42,384.51 40.00,391.43 40.65,398.10 42.29,404.66 44.81,410.72 48.25,416.23 52.59,421.27 57.62,425.58 63.81,429.28 70.81,432.14 77.99,434.01 85.38,434.78 92.98,434.54 100.52,433.34 108.17,431.33 115.75,428.22 123.89,423.42 149.16,400.71 175.67,370.44 227.95,293.64 240.91,264.78 252.56,239.81 262.74,226.37 273.54,216.00 279.86,211.37 286.39,207.71 293.36,204.92 301.51,202.94 310.20,201.99 318.97,201.96 333.20,203.79 347.12,208.06 360.08,215.11 372.10,224.36 384.07,236.35 394.95,250.39 405.77,268.28 414.91,288.00 422.40,310.40 427.61,333.96 430.44,359.36 430.68,384.13 428.72,402.93 424.64,420.92 417.64,440.00 408.25,459.16 394.85,481.95 379.03,504.17 361.17,524.49 341.66,542.91 322.25,558.18 300.70,572.08 235.73,602.81 212.15,613.42 192.07,624.40 183.90,630.96 177.00,637.94 171.35,645.42 167.19,652.76 164.04,660.48 162.09,668.42 161.44,676.50 161.96,684.79 163.34,693.08 167.40,706.91 173.59,720.07 181.40,731.25 190.84,740.95 198.00,746.56 205.80,751.39 214.11,755.20 222.87,757.92 232.16,759.51 242.75,760.00 272.05,756.54 308.14,748.01 393.54,722.18 472.91,691.77 494.01,679.57 510.22,666.55 525.89,650.61 539.55,632.40 552.09,610.36 562.03,585.77 569.06,556.66 573.37,521.56 578.08,424.38 577.43,386.14"
        fill="none"
        stroke="#e94560"
        stroke-width="8.0"
        stroke-linejoin="round"
        stroke-linecap="round"/>
  <!-- Start/finish line -->
  <line x1="557.44" y1="386.48" x2="597.43" y2="385.80"
        stroke="#f5f5f5" stroke-width="9.6"
        stroke-linecap="round"/>
</svg>
