<?xml version="1.0" encoding="utf-8"?>
<svg xmlns="http://www.w3.org/2000/svg"
     width="647.5" height="800.0"
     viewBox="0 0 647.5 800.0">
  <rect width="100%" height="100%" fill="#1a1a2e"/>
  <!-- Track outline -->
  <polyline points="572.29,457.91 574.22,455.59 586.94,436.97 595.77,419.99 602.14,402.94 605.95,387.58 607.50,371.53 605.89,349.30 601.00,326.01 593.14,303.42 580.10,277.22 512.98,170.56 443.66,74.03 431.86,61.69 421.25,53.71 409.02,46.85 399.12,43.30 389.88,40.80 383.53,40.00 370.75,40.05 357.77,42.40 345.13,46.85 333.01,53.24 321.30,62.10 306.60,77.92 291.72,98.38 244.42,182.16 56.81,538.27 46.78,566.29 42.02,588.37 40.00,607.80 40.47,626.14 42.99,641.96 47.73,657.08 55.18,672.18 65.55,687.40 86.54,711.39 108.95,732.25 131.56,749.95 141.33,754.82 149.60,757.60 158.16,759.33 167.25,760.00 171.85,759.74 176.66,758.94 183.72,757.17 190.80,754.18 197.75,748.66 203.20,742.84 204.90,740.63 206.19,738.15 207.91,733.70 209.49,728.16 210.35,722.59 210.09,716.95 209.08,711.28 207.87,706.70 206.86,704.15 205.57,701.96 203.52,699.00 200.87,695.96 196.01,691.27 190.07,687.04 183.20,684.34 174.68,682.58 149.83,681.53 125.38,680.91 112.27,678.33 100.34,674.32 89.38,668.88 82.32,664.09 75.89,658.45 72.91,654.89 70.40,651.13 68.55,647.16 67.43,642.81 66.95,638.25 67.06,634.13 67.55,631.52 68.39,629.15 69.60,626.84 71.69,623.77 74.34,620.76 77.26,618.33 80.15,616.84 83.27,615.84 86.26,615.19 88.50,614.88 90.67,614.86 93.00,615.17 96.85,616.25 101.01,617.95 104.71,620.01 108.35,623.18 111.56,626.81 118.81,635.67 124.97,641.39 131.51,646.21 135.71,648.19 140.23,649.48 149.32,650.95 157.62,651.54 159.45,651.41 161.31,651.00 184.23,642.91 208.36,632.74 237.94,623.54 273.92,618.75 315.42,611.76 364.80,594.09 414.79,571.14 511.47,516.52 535.45,497.95 555.39,478.52 572.29,457.91"
        fill="none"
        stroke="#e94560"
        stroke-width="8.0"
        stroke-linejoin="round"
        stroke-linecap="round"/>
  <!-- Start/finish line -->
  <line x1="556.84" y1="445.22" x2="587.75" y2="470.60"
        stroke="#f5f5f5" stroke-width="9.6"
        stroke-linecap="round"/>
</svg>
