<?xml version="1.0" encoding="utf-8"?>
<svg xmlns="http://www.w3.org/2000/svg"
     width="535.0" height="800.0"
     viewBox="0 0 535.0 800.0">
  <rect width="100%" height="100%" fill="#1a1a2e"/>
  <!-- Track outline -->
  <polyline points="73.61,366.24 82.42,379.19 158.55,455.88 203.91,502.76 245.74,557.32 261.07,582.61 272.52,597.79 285.87,616.27 295.33,636.17 299.71,650.94 302.90,667.06 304.79,681.22 306.08,689.59 307.18,697.54 308.72,706.99 310.57,714.27 314.35,723.04 318.88,732.08 324.51,738.15 330.18,742.73 337.75,747.72 345.32,751.97 353.63,754.33 363.89,757.10 372.65,758.72 383.31,760.00 393.27,759.12 404.47,759.53 415.92,758.52 427.13,756.22 438.23,752.51 449.08,747.39 459.09,741.11 468.30,733.63 476.72,724.99 483.64,715.48 489.02,705.17 493.05,694.10 495.04,682.98 494.84,672.25 492.80,661.46 489.22,651.27 484.24,642.03 477.56,633.40 468.60,624.30 430.91,598.40 383.81,567.84 255.99,458.71 181.51,386.75 160.00,359.50 151.53,346.28 144.91,332.45 141.67,322.13 139.58,311.41 139.73,301.09 141.13,295.15 143.37,289.02 146.35,283.21 149.99,278.16 154.32,274.18 159.95,271.21 166.72,269.25 174.04,268.24 181.36,268.04 188.18,268.58 198.09,271.34 207.55,276.07 216.46,281.73 228.51,291.65 239.71,303.18 263.26,332.38 311.06,409.21 359.91,483.26 372.60,496.28 384.85,504.64 394.81,509.64 405.42,513.41 416.12,514.96 424.39,514.22 432.85,512.13 440.92,508.89 448.04,504.71 453.96,499.65 459.19,493.52 463.57,486.77 466.91,479.62 469.25,471.73 470.54,463.23 470.84,454.60 470.05,446.17 467.01,434.84 462.03,423.71 455.81,413.59 449.08,405.36 441.22,398.15 431.06,390.66 385.60,368.74 340.39,346.62 332.27,340.81 325.35,335.22 319.98,329.35 316.49,322.87 315.34,317.88 314.95,312.28 315.34,306.48 316.39,300.89 318.18,295.83 320.67,291.85 324.86,288.54 330.33,286.25 336.66,284.70 343.28,283.62 349.70,282.61 361.15,282.14 372.95,282.74 384.16,281.60 391.82,279.10 399.34,275.80 406.11,271.61 411.64,266.42 415.23,261.23 418.26,255.09 420.50,248.48 421.75,241.80 421.70,235.53 420.16,229.19 417.27,222.65 413.28,216.31 408.60,210.78 403.48,206.39 396.31,202.75 388.09,200.66 378.98,199.65 369.17,199.24 346.51,201.87 321.02,207.20 298.62,209.50 289.25,208.75 280.59,207.34 272.92,204.91 266.55,200.93 262.87,197.08 259.43,192.23 256.54,186.77 254.40,181.10 253.21,175.57 253.21,170.58 254.50,165.92 256.99,161.34 260.43,156.89 264.66,152.64 269.39,148.73 274.52,145.29 294.03,138.81 318.08,135.10 339.24,130.24 351.09,125.46 361.40,120.06 370.02,113.18 374.55,107.99 378.68,101.98 382.16,95.58 384.55,89.10 385.50,82.83 384.85,76.83 382.96,70.62 380.02,64.55 376.44,59.02 372.41,54.30 366.68,49.71 359.86,46.07 352.44,43.37 344.77,41.35 326.75,40.00 308.03,41.69 290.00,45.40 272.47,50.72 241.45,62.93 226.02,70.96 211.33,80.33 198.63,90.59 185.69,103.87 156.96,145.02 127.43,185.62 112.74,198.03 98.45,207.47 83.67,215.97 69.53,225.08 60.66,233.03 52.50,242.00 46.22,251.78 42.44,262.44 40.45,273.97 40.00,285.37 42.24,301.43 47.07,317.34 54.44,334.68 63.45,351.34 73.61,366.24"
        fill="none"
        stroke="#e94560"
        stroke-width="8.0"
        stroke-linejoin="round"
        stroke-linecap="round"/>
  <!-- Start/finish line -->
  <line x1="90.14" y1="354.98" x2="57.08" y2="377.50"
        stroke="#f5f5f5" stroke-width="9.6"
        stroke-linecap="round"/>
</svg>
