<?xml version="1.0" encoding="utf-8"?>
<svg xmlns="http://www.w3.org/2000/svg"
     width="702.8" height="800.0"
     viewBox="0 0 702.8 800.0">
  <rect width="100%" height="100%" fill="#1a1a2e"/>
  <!-- Track outline -->
  <polyline points="257.71,311.05 237.22,300.60 211.29,288.46 176.48,276.05 158.42,271.74 155.74,270.68 153.60,269.45 151.85,268.05 150.08,266.12 146.03,259.85 140.99,252.49 124.31,237.59 110.24,225.69 93.37,209.49 75.86,192.37 72.86,190.13 70.20,188.69 67.84,187.88 65.48,187.52 62.86,187.53 60.24,187.99 57.65,188.94 55.09,190.40 52.15,192.74 49.34,195.65 46.66,199.23 44.34,203.30 42.38,208.04 40.95,213.16 40.15,218.71 40.00,224.43 40.55,230.43 41.75,236.41 43.51,242.18 46.10,248.27 60.25,271.82 95.67,321.46 110.78,340.82 115.59,345.64 120.31,349.49 125.00,352.51 129.88,354.87 135.21,356.65 140.58,357.77 145.24,358.20 149.92,358.04 155.43,357.17 160.95,355.61 166.08,353.32 171.23,350.44 183.90,342.04 190.99,338.65 198.51,336.41 202.31,335.83 206.13,335.60 209.94,335.74 213.73,336.23 221.22,338.25 230.42,342.48 243.43,350.50 273.28,372.20 327.29,413.40 339.32,424.02 345.89,431.08 349.92,436.93 353.65,445.25 356.16,454.67 357.49,464.96 357.47,475.75 355.86,486.66 351.46,501.62 340.29,538.33 338.72,542.09 337.20,544.88 335.67,547.16 334.01,549.12 332.18,550.80 330.21,552.16 328.10,553.14 325.91,553.74 323.69,553.90 321.47,553.68 319.33,553.12 317.19,552.17 314.69,550.56 312.25,548.52 310.12,546.31 307.82,543.34 292.67,518.83 289.13,514.47 285.88,511.22 283.30,509.15 280.69,507.54 277.90,506.23 275.01,505.29 272.09,504.73 269.14,504.55 266.28,504.78 263.47,505.41 260.80,506.42 258.27,507.80 255.95,509.50 253.85,511.54 252.04,513.91 250.53,516.56 249.34,519.40 248.47,522.52 247.84,526.58 247.65,530.88 247.94,535.24 248.80,539.78 253.76,552.51 265.41,575.83 269.00,585.66 270.52,593.52 270.76,597.50 270.64,601.50 270.14,605.50 269.25,609.56 265.75,619.63 259.66,636.27 258.28,642.64 257.62,648.98 257.71,656.28 258.54,663.52 259.93,669.81 261.88,675.61 264.06,680.25 266.74,684.54 270.53,689.25 274.99,693.70 280.74,698.28 287.44,702.71 310.78,715.10 352.80,737.07 389.21,757.52 393.20,759.03 396.47,759.75 399.55,760.00 402.46,759.79 404.83,759.20 407.02,758.24 409.04,756.93 410.87,755.29 412.44,753.40 413.76,751.17 414.95,748.15 415.73,744.81 415.98,741.54 415.68,737.67 408.75,711.71 382.95,617.14 376.88,590.97 374.77,576.77 374.42,565.83 375.34,555.28 377.51,545.03 381.72,532.39 420.24,441.49 453.34,364.73 462.22,346.69 470.65,332.45 480.15,319.17 503.31,291.00 530.35,259.74 537.02,253.49 542.61,249.64 545.53,248.13 548.63,246.88 552.67,245.67 556.79,244.82 560.23,244.45 563.61,244.40 567.07,244.63 570.50,245.16 573.82,245.98 577.13,247.17 584.52,251.23 590.30,255.15 596.51,258.87 602.81,260.76 608.66,262.15 614.74,264.48 618.90,266.64 623.14,268.64 626.58,269.56 629.88,269.99 632.72,269.98 635.56,269.55 639.05,268.54 642.63,266.95 646.77,264.35 650.68,261.17 653.75,258.02 656.42,254.52 658.68,250.71 660.51,246.62 661.83,242.36 662.63,237.95 662.84,233.49 662.46,228.91 661.26,223.61 659.24,217.96 649.18,199.34 643.42,187.73 640.86,179.99 639.19,170.35 637.07,152.97 635.70,148.42 633.83,144.27 630.53,138.79 626.33,133.31 612.53,120.41 593.33,105.28 585.97,98.00 581.52,91.96 578.36,85.59 574.86,74.45 571.06,63.06 568.68,58.57 566.18,55.00 563.72,52.14 560.97,49.66 557.29,47.07 553.15,44.86 547.85,42.83 542.18,41.34 536.07,40.36 529.79,40.00 523.19,40.26 516.57,41.19 510.01,42.87 503.56,45.20 497.14,48.18 491.09,51.66 486.34,54.97 481.96,58.78 477.49,63.68 473.45,69.21 470.08,75.04 467.25,81.38 463.02,96.43 458.43,123.08 458.40,125.61 458.72,127.68 459.61,130.38 460.95,133.01 462.74,135.50 465.17,138.02 479.55,148.98 490.42,157.72 496.09,163.52 500.72,169.98 504.14,177.15 506.37,184.94 507.34,193.09 507.00,201.36 505.27,209.53 501.42,219.59 494.90,231.68 477.33,257.98 460.10,281.28 443.70,301.11 431.47,313.96 420.47,323.43 408.69,331.47 396.18,338.21 383.03,343.55 372.04,346.48 360.67,348.05 349.15,348.25 337.74,347.15 326.54,344.76 315.50,341.13 299.15,333.90 261.62,313.04 257.71,311.05"
        fill="none"
        stroke="#e94560"
        stroke-width="8.0"
        stroke-linejoin="round"
        stroke-linecap="round"/>
  <!-- Start/finish line -->
  <line x1="248.63" y1="328.86" x2="266.80" y2="293.23"
        stroke="#f5f5f5" stroke-width="9.6"
        stroke-linecap="round"/>
</svg>
