<?xml version="1.0" encoding="utf-8"?>
<svg xmlns="http://www.w3.org/2000/svg"
     width="492.7" height="800.0"
     viewBox="0 0 492.7 800.0">
  <rect width="100%" height="100%" fill="#1a1a2e"/>
  <!-- Track outline -->
  <polyline points="303.71,479.36 303.06,480.79 235.62,629.40 201.20,708.13 191.77,727.72 185.80,738.31 179.99,746.91 176.96,750.62 173.79,753.79 170.42,756.42 168.66,757.46 166.82,758.34 164.93,759.01 162.99,759.51 161.03,759.85 159.06,760.00 157.10,759.96 155.17,759.74 153.27,759.33 151.43,758.74 149.66,757.98 147.98,757.04 144.84,754.66 141.95,751.74 117.80,721.16 93.19,697.15 64.09,673.06 59.32,668.64 54.88,664.10 50.97,659.39 47.66,654.66 44.80,649.80 42.60,644.71 41.08,639.37 40.24,633.78 40.00,628.06 40.31,627.51 40.40,622.59 40.93,617.62 42.83,607.46 54.00,568.78 63.82,538.97 70.10,523.61 74.53,515.30 76.94,511.64 79.52,508.42 82.26,505.67 85.21,503.44 88.32,501.71 91.52,500.49 93.69,499.98 95.96,499.67 98.17,499.61 100.35,499.78 102.45,500.19 104.49,500.81 106.46,501.66 108.33,502.72 110.17,504.04 111.83,505.49 114.07,508.11 115.94,511.11 117.46,514.44 118.58,518.09 119.34,521.96 119.70,526.01 119.66,530.20 118.73,539.02 114.38,557.77 103.76,598.41 102.85,605.93 102.77,612.48 103.38,619.33 104.38,625.15 104.89,627.14 105.58,628.96 107.27,632.56 109.24,636.02 110.47,637.68 111.74,639.10 114.61,641.73 117.78,643.80 121.19,645.31 124.74,646.24 128.33,646.56 131.92,646.27 135.59,645.44 139.24,643.98 142.73,641.93 145.97,639.24 148.93,636.10 151.55,632.58 153.77,628.66 156.95,619.84 163.02,583.68 174.09,518.36 179.16,494.85 182.78,483.16 187.49,471.55 190.28,465.80 196.66,454.53 207.68,438.08 228.84,411.36 326.35,293.27 375.17,230.56 383.20,217.08 384.98,212.88 386.28,208.74 387.03,204.61 387.17,200.57 386.69,196.70 385.65,192.94 383.99,189.35 381.79,185.89 379.02,182.64 375.98,179.56 372.39,176.86 368.31,174.62 363.86,172.84 354.21,170.81 349.15,170.54 344.06,170.78 338.92,171.60 333.80,172.96 323.86,177.23 319.11,180.05 305.94,190.94 286.45,214.27 259.14,251.96 209.49,316.35 195.77,332.98 187.25,342.05 183.05,345.97 178.89,349.46 174.68,352.49 170.48,355.00 166.24,356.96 161.92,358.42 157.50,359.33 152.99,359.71 148.43,359.51 143.92,358.68 139.53,357.21 135.44,355.10 131.70,352.44 128.36,349.25 125.45,345.59 123.01,341.52 120.99,337.08 117.71,327.51 114.11,311.83 111.44,291.59 110.37,271.61 110.70,261.27 111.23,256.33 112.16,251.68 113.52,247.31 115.36,243.16 117.70,239.16 120.50,235.37 127.03,228.03 138.47,217.50 160.80,198.98 163.24,196.21 165.23,193.42 167.12,189.76 167.76,188.06 168.18,186.31 168.30,185.00 168.28,183.64 168.09,182.32 167.66,181.01 167.05,179.74 166.33,178.57 165.22,177.22 163.78,175.81 154.63,167.79 153.09,165.97 151.91,164.23 150.86,162.35 150.02,160.39 149.43,158.39 149.08,156.33 148.98,154.21 149.11,152.07 149.52,149.82 150.12,147.65 151.52,144.35 153.41,141.16 155.72,138.05 158.45,135.10 161.60,132.36 165.14,129.90 169.01,127.77 173.16,125.94 177.60,124.38 187.14,121.88 197.35,120.06 202.65,119.49 208.06,119.20 219.10,119.48 230.50,120.73 263.95,126.74 273.37,126.72 277.77,126.12 282.08,125.06 286.21,123.47 290.09,121.34 293.75,118.70 297.12,115.52 300.13,111.85 314.85,84.19 320.52,74.52 323.79,69.84 327.42,65.33 331.46,61.04 335.85,57.01 340.60,53.27 345.65,49.85 351.06,46.83 356.75,44.29 362.68,42.31 368.82,40.95 375.10,40.17 381.43,40.00 387.74,40.43 393.96,41.46 400.04,43.08 405.90,45.26 411.51,48.05 416.87,51.40 421.98,55.24 426.85,59.48 431.39,64.11 435.56,69.12 439.35,74.49 442.72,80.19 445.66,86.20 448.14,92.50 450.11,99.05 451.53,105.78 452.39,112.66 452.70,119.61 452.48,126.61 451.74,133.61 450.60,140.64 449.06,147.65 447.16,154.63 442.57,168.54 431.41,196.33 303.71,479.36"
        fill="none"
        stroke="#e94560"
        stroke-width="8.0"
        stroke-linejoin="round"
        stroke-linecap="round"/>
  <!-- Start/finish line -->
  <line x1="321.94" y1="487.59" x2="285.48" y2="471.14"
        stroke="#f5f5f5" stroke-width="9.6"
        stroke-linecap="round"/>
</svg>
