<?xml version="1.0" encoding="utf-8"?>
<svg xmlns="http://www.w3.org/2000/svg"
     width="316.2" height="800.0"
     viewBox="0 0 316.2 800.0">
  <rect width="100%" height="100%" fill="#1a1a2e"/>
  <!-- Track outline -->
  <polyline points="254.46,628.88 254.59,629.51 255.05,631.51 258.55,646.13 259.37,652.41 259.34,668.61 258.33,682.42 254.19,712.71 254.09,716.87 254.36,720.13 254.80,722.34 255.47,724.30 256.46,726.29 257.68,728.13 259.14,729.90 260.93,731.55 264.84,733.94 268.75,736.10 270.37,737.16 271.77,738.29 273.30,739.89 274.61,741.71 275.40,743.29 275.93,744.91 276.15,746.26 276.19,747.59 276.07,748.90 275.76,750.20 275.08,751.79 274.15,753.30 272.96,754.66 271.55,755.87 269.52,757.23 267.36,758.36 265.45,759.12 263.45,759.64 260.59,759.96 257.63,760.00 252.72,759.45 242.60,756.51 224.93,750.50 217.26,746.73 201.34,737.31 193.93,731.65 167.27,707.57 162.70,702.44 161.54,700.58 160.60,698.59 159.67,695.92 158.97,693.06 158.55,690.42 158.37,687.54 158.78,682.53 159.10,677.44 158.71,674.23 157.89,671.11 155.96,666.23 153.46,661.29 147.34,652.22 132.19,636.48 122.63,628.85 116.37,623.39 109.61,616.12 104.81,609.32 102.57,604.74 100.42,597.66 98.98,589.95 97.91,576.69 98.09,555.66 98.47,534.05 98.04,531.61 97.35,529.70 96.21,527.64 94.78,525.79 93.01,524.10 91.06,522.70 88.98,521.52 86.87,520.68 85.12,520.33 83.19,520.20 78.82,520.36 74.53,520.48 72.91,520.31 71.39,519.93 68.90,518.99 66.28,517.71 63.75,516.25 61.38,514.57 59.61,512.98 57.97,511.15 54.43,505.84 50.37,497.12 47.62,488.57 45.65,479.05 43.02,457.17 40.54,432.74 40.00,423.04 40.71,404.04 42.07,388.95 45.62,360.12 49.26,339.54 55.10,315.60 60.31,295.09 63.99,282.03 66.35,274.41 67.07,273.17 67.86,272.23 68.84,271.37 70.14,270.57 75.49,268.46 81.23,266.15 83.49,264.78 85.54,263.10 88.84,259.56 92.05,255.30 94.51,251.19 96.82,246.28 104.56,223.38 112.31,189.72 117.72,156.42 120.08,127.13 118.86,104.82 112.38,73.43 107.06,52.05 106.85,50.12 106.88,48.52 107.16,46.62 107.69,44.84 108.12,43.93 108.63,43.11 109.22,42.39 109.96,41.71 110.78,41.13 111.64,40.68 112.57,40.33 113.53,40.11 114.49,40.00 115.44,40.01 116.37,40.12 117.28,40.35 118.53,40.85 119.68,41.57 120.67,42.46 121.58,43.60 122.70,45.50 123.66,47.69 124.26,49.71 124.68,52.02 125.11,61.56 126.40,74.51 129.84,86.82 139.31,109.62 150.39,134.55 161.62,162.93 169.49,185.20 177.31,210.86 183.91,235.57 194.66,283.07 215.52,381.33 230.95,453.82 232.09,462.99 232.13,467.35 231.83,469.24 231.23,471.30 228.47,477.00 225.78,482.76 225.25,484.75 225.11,486.93 226.19,495.47 228.40,506.63 237.33,546.05 254.46,628.88"
        fill="none"
        stroke="#e94560"
        stroke-width="8.0"
        stroke-linejoin="round"
        stroke-linecap="round"/>
  <!-- Start/finish line -->
  <line x1="274.04" y1="624.83" x2="234.87" y2="632.93"
        stroke="#f5f5f5" stroke-width="9.6"
        stroke-linecap="round"/>
</svg>
