<?xml version="1.0" encoding="utf-8"?>
<svg xmlns="http://www.w3.org/2000/svg"
     width="800.0" height="500.4"
     viewBox="0 0 800.0 500.4">
  <rect width="100%" height="100%" fill="#1a1a2e"/>
  <!-- Track outline -->
  <polyline points="574.81,451.86 505.95,441.04 495.18,437.19 486.97,432.72 479.07,426.95 472.24,420.22 466.93,412.92 462.89,405.03 460.54,397.07 459.08,388.66 456.92,368.19 455.83,364.68 454.37,361.59 451.41,356.76 448.22,352.47 444.97,349.33 436.64,342.62 417.71,332.18 396.32,319.65 370.70,296.30 267.43,188.43 231.63,158.68 215.28,149.26 198.75,142.26 183.26,138.01 167.92,135.95 154.28,136.33 107.12,145.01 96.21,145.33 86.21,144.19 77.28,141.66 68.94,137.81 65.00,135.51 61.01,132.58 54.51,126.49 48.48,119.38 44.82,113.12 42.21,106.79 40.73,101.44 40.00,96.12 40.03,90.35 40.60,85.05 41.81,79.68 44.72,72.12 48.82,65.12 54.01,58.77 60.24,53.20 68.06,48.23 76.88,44.34 87.28,41.48 98.59,40.00 112.51,40.11 127.57,41.81 168.55,51.50 184.76,57.40 199.89,64.49 227.47,82.74 267.78,119.29 312.36,168.16 369.75,228.55 385.10,240.65 393.99,246.38 403.27,250.96 412.23,253.51 421.03,254.48 425.84,254.23 430.45,253.38 434.77,251.99 438.78,250.00 442.53,247.48 445.70,244.79 447.75,242.64 449.41,240.41 450.79,237.81 452.19,233.97 453.16,229.60 453.49,225.15 453.02,220.23 451.81,215.20 450.00,210.37 445.35,202.81 440.56,196.81 437.62,194.06 415.63,178.56 375.06,152.17 365.97,145.15 359.05,138.64 355.63,134.16 353.00,129.58 350.44,124.14 348.52,118.58 347.58,113.72 347.33,108.93 347.74,104.37 348.79,99.99 350.32,96.10 352.40,92.56 355.08,89.48 358.26,86.88 361.93,84.82 366.01,83.35 371.03,82.43 375.92,82.09 381.69,82.43 397.73,85.70 415.13,91.04 447.53,104.60 483.96,127.99 526.52,164.18 548.07,187.17 555.36,197.96 560.97,208.94 564.41,218.94 566.32,229.05 566.67,239.13 565.57,249.27 562.98,259.87 558.87,270.16 553.36,279.35 545.86,288.79 526.08,307.22 506.00,327.03 500.40,335.22 496.72,343.03 494.24,351.71 492.95,359.85 492.61,364.01 492.85,368.19 494.44,377.16 497.07,385.88 499.18,389.82 501.85,393.33 506.87,398.81 512.19,403.64 514.99,405.65 517.88,407.29 528.01,411.38 540.11,414.31 590.87,420.06 643.96,428.27 649.88,428.11 654.79,427.44 659.23,426.14 663.07,424.35 666.55,422.03 669.36,419.37 670.84,417.37 672.04,415.18 672.90,412.88 673.38,410.55 673.45,408.12 673.10,405.63 672.40,403.06 671.34,400.44 667.63,395.37 662.70,390.06 659.13,384.88 658.20,382.01 657.73,379.17 657.65,376.40 657.93,373.74 658.58,371.25 659.59,368.82 660.91,366.53 662.45,364.48 665.13,362.02 668.28,359.91 671.37,358.35 674.70,357.34 678.06,356.85 686.01,356.49 717.15,359.47 727.80,359.27 736.93,359.49 742.00,360.85 746.33,362.82 750.04,365.10 753.23,367.88 754.96,369.87 756.44,372.04 757.67,374.56 758.99,378.61 759.87,383.24 760.00,387.83 759.10,392.32 757.44,396.75 755.51,400.60 753.11,403.98 750.37,406.91 743.28,413.39 707.13,440.66 693.99,448.15 681.07,453.81 668.53,457.57 655.42,459.81 640.31,460.41 622.26,459.34 574.81,451.86"
        fill="none"
        stroke="#e94560"
        stroke-width="8.0"
        stroke-linejoin="round"
        stroke-linecap="round"/>
  <!-- Start/finish line -->
  <line x1="571.70" y1="471.62" x2="577.91" y2="432.11"
        stroke="#f5f5f5" stroke-width="9.6"
        stroke-linecap="round"/>
</svg>
