<?xml version="1.0" encoding="utf-8"?>
<svg xmlns="http://www.w3.org/2000/svg"
     width="800.0" height="582.3"
     viewBox="0 0 800.0 582.3">
  <rect width="100%" height="100%" fill="#1a1a2e"/>
  <!-- Track outline -->
  <polyline points="386.86,378.66 317.85,302.35 313.00,297.10 220.19,199.80 210.21,191.67 201.87,186.39 193.80,182.44 185.95,179.78 179.18,178.50 172.52,178.17 165.85,178.66 159.28,179.98 153.10,182.08 147.18,184.95 141.71,188.46 136.58,192.70 131.98,197.47 127.78,203.14 123.54,210.72 119.89,219.77 114.14,248.54 109.73,294.41 107.80,302.91 105.40,309.67 102.64,314.80 99.52,319.00 96.64,321.87 93.57,324.12 90.19,326.01 86.50,327.43 81.34,328.51 76.07,328.91 72.01,328.65 68.12,327.84 64.33,326.51 60.57,324.51 56.07,321.06 51.81,316.73 48.23,311.91 45.21,306.45 42.92,300.47 41.28,294.00 40.32,287.19 40.00,279.42 42.49,245.44 50.95,179.99 58.79,138.83 65.53,116.17 73.27,99.85 83.40,85.13 92.81,75.41 99.96,69.75 107.82,64.55 125.24,56.18 144.74,50.49 171.30,46.40 229.39,42.70 324.77,40.00 386.16,41.26 435.82,45.28 479.21,51.59 530.40,62.71 589.49,78.94 688.69,111.05 740.81,129.55 746.98,132.57 751.58,135.71 753.75,137.72 755.64,139.91 757.19,142.34 758.36,144.89 759.26,147.64 759.81,150.50 760.00,153.47 759.84,156.52 759.35,159.50 758.43,162.53 757.13,165.47 755.58,168.17 752.43,172.08 748.73,175.37 744.29,178.23 739.48,180.34 734.31,181.59 728.27,182.35 697.19,184.77 685.04,187.99 673.43,192.68 661.38,199.28 649.95,207.34 640.53,215.81 631.74,225.46 622.66,238.35 614.42,249.95 610.05,254.23 605.97,257.22 602.39,259.10 598.80,260.32 595.14,261.04 591.33,261.19 586.42,260.60 581.60,259.30 578.11,257.78 574.79,255.63 570.93,252.28 566.75,247.54 557.78,233.68 547.76,218.72 539.16,209.54 529.78,201.72 517.38,193.35 501.95,185.21 409.83,150.62 328.25,127.57 295.93,119.00 288.48,118.23 282.25,118.37 278.34,119.01 274.82,120.18 271.53,121.82 268.49,123.98 265.98,126.49 263.79,129.58 261.72,133.85 260.25,138.65 259.69,143.58 259.90,148.60 261.02,153.73 262.94,158.63 265.71,163.42 269.48,167.94 277.78,174.71 287.57,181.37 309.47,195.66 332.26,214.71 358.02,240.81 380.20,261.58 388.80,267.14 398.03,271.68 414.89,277.65 431.19,283.44 438.40,287.25 444.69,291.46 451.07,296.59 457.16,302.44 468.44,316.27 477.95,332.48 488.29,356.11 498.52,378.09 502.37,383.34 506.19,386.98 510.92,390.42 516.02,393.03 521.55,394.86 527.28,395.86 533.31,396.05 539.43,395.42 545.60,394.09 552.06,391.73 561.17,387.12 571.25,380.19 606.07,344.71 638.75,310.35 688.66,262.82 693.06,259.83 696.72,258.23 699.34,257.54 701.97,257.20 704.52,257.31 706.81,257.81 709.01,258.67 711.07,259.88 712.90,261.36 714.61,263.15 716.12,265.20 718.06,268.79 719.50,272.88 720.36,277.55 720.60,282.67 720.18,288.91 718.62,297.06 681.48,411.83 668.36,443.37 653.74,469.15 636.21,492.72 607.54,523.77 600.67,530.09 594.44,534.88 588.93,538.08 583.59,540.35 579.15,541.54 574.59,542.15 568.24,542.28 561.56,541.74 554.75,540.57 547.91,538.69 541.02,535.97 534.02,532.39 516.96,520.72 500.45,505.60 452.52,451.26 386.86,378.66"
        fill="none"
        stroke="#e94560"
        stroke-width="8.0"
        stroke-linejoin="round"
        stroke-linecap="round"/>
  <!-- Start/finish line -->
  <line x1="372.03" y1="392.07" x2="401.70" y2="365.24"
        stroke="#f5f5f5" stroke-width="9.6"
        stroke-linecap="round"/>
</svg>
