<?xml version="1.0" encoding="utf-8"?>
<svg xmlns="http://www.w3.org/2000/svg"
     width="547.0" height="800.0"
     viewBox="0 0 547.0 800.0">
  <rect width="100%" height="100%" fill="#1a1a2e"/>
  <!-- Track outline -->
  <polyline points="75.16,364.56 77.95,368.76 258.77,580.17 300.43,628.21 308.45,646.79 315.26,665.03 323.34,688.01 329.28,703.84 336.19,718.50 341.27,729.58 347.73,741.21 354.13,747.68 364.39,753.39 373.23,756.90 380.19,759.11 389.08,760.00 395.84,759.52 402.29,758.28 411.79,756.97 421.34,755.18 429.98,753.39 437.24,751.60 445.88,747.96 462.80,740.18 454.11,745.20 470.77,734.81 480.22,728.07 489.06,719.95 496.28,710.93 500.34,703.84 503.65,696.13 505.98,688.22 507.05,680.31 506.80,672.05 505.27,663.58 502.68,655.39 499.12,648.03 492.93,640.11 485.05,633.37 475.55,626.76 446.90,612.45 417.48,598.48 389.08,578.18 284.63,477.35 185.86,372.75 175.14,358.36 168.28,346.11 161.32,331.18 156.95,315.49 156.19,306.95 156.19,298.01 157.41,289.47 160.10,281.97 162.85,277.71 166.40,273.51 170.52,269.72 175.04,266.49 179.71,264.01 184.34,262.57 190.33,262.36 196.83,263.60 203.49,265.87 209.84,268.90 215.58,272.27 225.89,281.77 236.87,296.22 369.93,486.16 382.42,499.65 393.96,508.39 403.56,513.69 413.87,517.82 424.34,519.75 432.57,519.47 441.05,517.89 449.28,515.21 456.60,511.42 463.15,506.33 469.10,500.00 474.18,492.91 478.19,485.48 481.09,477.42 482.97,468.68 483.78,459.81 483.48,451.34 481.19,441.09 477.02,431.18 471.79,421.82 461.58,408.12 449.08,395.87 434.60,385.75 417.63,376.12 354.02,342.60 326.84,322.58 304.39,299.25 284.52,270.00 270.04,241.09 264.00,224.37 260.49,207.10 260.49,195.40 262.12,183.70 265.62,173.03 269.49,166.15 274.36,159.82 280.05,154.04 286.30,149.08 302.15,141.51 319.38,136.14 335.13,132.43 350.67,128.37 361.49,124.31 372.16,119.42 381.26,113.02 385.88,108.27 390.15,102.83 393.81,96.91 396.50,90.93 397.77,84.94 397.51,78.75 395.99,72.21 393.45,65.74 390.10,59.75 386.18,54.80 380.29,49.98 373.13,46.26 365.30,43.51 357.33,41.45 339.49,40.00 321.46,41.38 306.12,44.27 291.08,48.67 257.50,62.23 224.52,80.81 209.64,91.55 196.17,103.59 185.25,116.87 175.75,131.05 159.80,160.02 150.04,174.61 139.02,188.17 126.77,199.53 113.06,209.30 96.19,216.73 79.37,224.16 70.13,230.29 61.59,237.17 54.33,245.15 48.13,254.93 43.25,265.87 40.41,276.88 40.00,287.34 41.42,297.87 43.91,308.19 49.55,322.92 57.12,337.37 75.16,364.56"
        fill="none"
        stroke="#e94560"
        stroke-width="8.0"
        stroke-linejoin="round"
        stroke-linecap="round"/>
  <!-- Start/finish line -->
  <line x1="91.82" y1="353.50" x2="58.49" y2="375.62"
        stroke="#f5f5f5" stroke-width="9.6"
        stroke-linecap="round"/>
</svg>
