<?xml version="1.0" encoding="utf-8"?>
<svg xmlns="http://www.w3.org/2000/svg"
     width="640.5" height="800.0"
     viewBox="0 0 640.5 800.0">
  <rect width="100%" height="100%" fill="#1a1a2e"/>
  <!-- Track outline -->
  <polyline points="133.14,589.86 70.49,487.96 61.38,469.77 54.04,450.99 43.15,425.27 40.00,406.32 40.00,387.10 42.71,368.15 48.01,348.89 54.65,331.58 72.82,296.68 93.70,266.69 144.38,211.06 203.53,159.89 217.39,145.61 222.98,137.39 227.62,128.74 233.73,111.27 237.60,91.85 240.37,82.51 244.04,73.66 248.93,65.72 254.90,58.63 262.01,52.36 270.02,47.22 278.76,43.51 288.05,41.08 297.89,40.04 307.88,40.00 327.34,41.75 347.55,45.34 365.78,50.45 383.63,57.91 400.64,68.36 416.37,81.40 430.58,96.75 441.24,112.43 488.19,196.38 494.74,204.83 502.11,212.33 532.28,237.54 561.75,262.66 568.39,270.52 573.26,277.78 582.46,294.57 589.86,312.40 595.83,330.86 599.79,350.01 600.49,369.59 597.72,389.05 591.63,407.96 555.37,476.87 544.95,491.91 538.86,499.17 532.08,505.71 527.12,509.46 521.82,512.73 516.17,515.08 509.71,516.48 502.84,516.88 496.19,516.20 489.85,514.32 483.73,511.37 478.34,507.54 473.74,502.76 469.87,497.05 467.01,491.03 465.35,484.65 464.65,477.87 464.71,471.17 466.11,461.52 468.76,452.15 472.20,443.57 476.51,435.36 488.04,419.44 513.03,389.61 518.77,380.44 522.78,371.42 524.62,365.00 525.73,358.38 525.99,351.80 525.32,345.30 523.80,338.84 521.50,332.74 518.42,326.99 514.54,321.65 510.12,316.90 505.14,312.88 499.57,309.45 493.72,306.89 487.55,305.26 481.08,304.46 474.67,304.54 468.24,305.54 461.83,307.37 455.80,310.00 450.09,313.47 444.76,317.74 439.96,322.53 433.70,330.86 428.77,340.04 425.60,348.33 423.36,358.14 421.38,386.54 419.66,415.02 415.29,433.36 409.00,451.39 400.76,468.38 395.83,476.12 390.10,483.33 382.82,490.47 374.60,496.66 365.87,501.36 356.60,504.63 346.99,506.15 337.30,506.11 327.86,504.55 318.86,501.56 310.59,497.09 303.22,491.31 297.08,484.25 292.15,476.28 288.60,467.62 286.45,458.45 285.75,448.88 286.36,439.22 288.19,429.57 291.02,420.08 298.91,401.26 327.77,349.57 361.50,302.43 370.55,285.32 377.31,266.73 382.67,247.59 384.45,237.14 385.12,227.49 385.09,217.76 383.86,208.11 382.03,201.29 379.47,194.54 376.15,188.32 372.07,182.82 367.26,177.87 361.99,173.69 356.37,170.46 350.31,167.94 344.08,166.23 337.62,165.31 330.95,165.19 324.36,165.83 314.58,168.30 305.14,172.29 296.06,177.79 287.70,184.30 280.80,190.88 274.59,198.09 263.76,214.65 259.62,222.54 255.49,233.51 230.67,337.76 208.95,455.54 205.89,490.51 206.09,516.88 207.46,528.20 209.73,538.05 216.40,558.47 221.00,568.16 226.45,577.34 232.80,585.83 239.93,593.69 247.83,600.79 256.39,607.05 265.53,612.35 275.17,616.70 285.25,619.97 295.65,622.29 316.88,624.04 338.29,622.33 398.98,606.85 458.92,591.93 469.43,590.70 477.82,591.30 482.65,592.45 487.49,594.13 492.06,596.40 495.99,599.19 499.25,602.62 502.11,606.69 504.32,611.12 505.69,615.63 506.13,620.45 505.75,625.56 504.67,630.66 503.07,635.33 498.32,642.75 491.74,650.12 464.74,677.80 450.65,689.53 351.01,748.83 333.66,755.49 324.36,757.89 314.78,759.44 304.65,760.00 294.40,759.60 283.82,758.13 273.51,755.65 264.49,752.50 255.89,748.51 239.47,737.87 224.35,724.31 210.35,708.39 142.81,605.57 133.14,589.86"
        fill="none"
        stroke="#e94560"
        stroke-width="8.0"
        stroke-linejoin="round"
        stroke-linecap="round"/>
  <!-- Start/finish line -->
  <line x1="116.10" y1="600.34" x2="150.18" y2="579.39"
        stroke="#f5f5f5" stroke-width="9.6"
        stroke-linecap="round"/>
</svg>
