<?xml version="1.0" encoding="utf-8"?>
<svg xmlns="http://www.w3.org/2000/svg"
     width="800.0" height="697.9"
     viewBox="0 0 800.0 697.9">
  <rect width="100%" height="100%" fill="#1a1a2e"/>
  <!-- Track outline -->
  <polyline points="147.03,268.68 158.57,240.40 219.23,86.86 230.30,62.00 233.42,56.61 236.59,52.22 239.72,48.82 243.14,45.97 246.90,43.70 250.87,41.97 254.78,40.79 258.76,40.12 262.81,40.00 266.83,40.41 270.71,41.35 274.42,42.82 277.86,44.80 281.03,47.27 284.07,50.46 286.67,54.03 288.61,57.70 290.04,61.58 290.98,65.65 291.42,69.95 291.35,75.12 290.68,80.56 287.05,93.70 278.34,113.89 259.51,159.54 252.17,190.49 246.32,237.88 244.85,244.29 243.08,249.54 240.64,254.94 237.74,259.93 234.79,263.91 231.49,267.46 227.86,270.58 223.82,273.36 213.16,278.53 185.49,289.27 179.77,292.57 175.22,296.01 171.78,299.40 169.01,303.06 167.04,306.77 165.70,310.69 165.00,314.72 164.95,318.81 165.55,322.93 166.79,326.94 168.67,330.75 171.12,334.24 174.15,337.34 177.63,339.98 181.61,342.16 185.84,343.78 189.96,344.77 194.32,345.16 199.77,344.84 206.54,343.53 262.17,324.88 283.76,319.55 303.19,317.11 326.37,316.70 350.19,318.54 420.64,330.96 433.16,331.68 444.62,331.22 455.20,329.74 465.85,327.10 493.21,316.06 520.70,300.13 542.41,288.15 561.79,279.94 578.07,275.15 595.31,272.44 614.39,271.85 683.51,276.10 701.15,279.10 714.11,283.42 719.54,286.05 724.69,289.15 735.09,297.59 744.35,307.90 751.44,318.91 754.28,324.97 756.57,331.21 759.29,343.29 760.00,355.83 758.50,369.65 754.66,383.26 748.13,397.70 737.98,413.98 710.19,455.97 692.79,491.48 678.21,519.80 674.96,524.85 671.77,528.83 668.64,531.85 665.24,534.39 661.34,536.60 657.05,538.41 651.63,540.07 645.70,541.28 630.50,542.41 613.08,541.10 595.47,537.52 577.45,531.58 558.52,522.63 541.45,511.83 530.76,503.09 527.43,499.44 524.77,495.70 523.00,492.20 521.80,488.62 521.19,485.16 521.11,481.68 521.56,478.24 522.54,474.85 524.16,471.33 526.33,467.94 529.27,464.46 532.76,461.21 537.18,457.90 542.16,454.91 554.84,449.53 571.66,445.07 621.15,434.70 631.78,430.96 640.17,426.96 644.91,423.98 648.86,420.66 652.45,416.81 655.49,412.54 657.96,407.86 659.76,402.86 660.87,397.50 661.23,392.05 660.82,386.81 659.72,381.74 658.02,377.13 655.74,372.80 652.89,368.72 649.45,364.96 644.98,361.16 639.73,357.77 632.55,354.37 624.07,351.53 609.86,348.50 593.46,346.49 546.58,346.03 494.08,351.36 432.16,364.11 376.00,381.22 327.59,401.14 288.98,420.62 283.03,422.69 277.98,423.81 273.52,424.27 269.27,424.18 265.48,423.59 261.90,422.50 258.70,420.92 255.43,418.71 249.38,413.10 243.08,407.42 240.73,405.89 238.59,404.81 234.13,403.09 229.85,402.22 225.56,402.04 221.27,402.55 217.09,403.68 213.06,405.40 209.31,407.68 205.96,410.59 203.09,413.98 200.84,417.68 199.16,421.70 198.06,425.89 197.75,428.23 197.68,430.92 199.20,443.02 203.14,463.16 217.75,525.43 229.97,593.88 230.52,607.18 230.00,612.67 228.99,617.91 227.55,622.81 225.64,627.52 223.20,632.11 220.31,636.39 217.24,640.00 213.80,643.26 209.69,646.43 205.15,649.22 199.87,651.69 194.20,653.69 180.94,656.34 158.56,657.91 139.29,657.17 122.34,654.35 107.02,649.45 91.29,641.88 78.63,633.40 67.22,623.00 57.33,610.81 49.88,598.03 44.34,584.01 41.20,570.40 40.00,556.20 40.81,541.63 43.94,525.41 50.63,504.90 142.15,280.64 147.03,268.68"
        fill="none"
        stroke="#e94560"
        stroke-width="8.0"
        stroke-linejoin="round"
        stroke-linecap="round"/>
  <!-- Start/finish line -->
  <line x1="128.51" y1="261.12" x2="165.55" y2="276.23"
        stroke="#f5f5f5" stroke-width="9.6"
        stroke-linecap="round"/>
</svg>
