<?xml version="1.0" encoding="utf-8"?>
<svg xmlns="http://www.w3.org/2000/svg"
     width="800.0" height="640.6"
     viewBox="0 0 800.0 640.6">
  <rect width="100%" height="100%" fill="#1a1a2e"/>
  <!-- Track outline -->
  <polyline points="445.95,191.72 525.16,315.13 569.16,372.33 584.39,387.30 601.76,400.49 640.50,422.14 680.82,440.53 727.32,456.20 730.51,457.79 733.09,459.55 738.53,463.81 744.15,469.42 750.38,478.24 755.42,487.70 757.75,494.36 759.15,500.97 759.96,508.20 760.00,515.40 759.27,522.01 757.75,528.21 755.61,533.25 752.86,537.67 751.00,539.99 748.92,542.04 746.46,543.80 742.86,545.41 738.72,546.60 734.20,547.44 723.97,548.08 714.47,547.76 711.16,547.41 708.02,546.49 701.14,542.53 691.86,536.70 615.88,499.06 574.45,467.37 536.74,432.39 495.15,382.36 482.48,365.18 467.93,343.58 452.62,321.04 437.73,300.92 424.38,286.68 413.69,281.74 410.09,282.90 406.59,285.55 403.26,289.40 400.20,294.23 397.45,299.76 395.10,305.72 393.24,311.89 391.93,318.02 391.24,323.81 393.60,342.83 401.26,364.35 411.99,386.52 423.54,407.52 450.77,447.79 484.86,486.30 502.77,501.67 525.03,517.45 548.32,533.06 569.29,547.95 584.62,561.57 590.97,573.35 590.74,577.07 589.60,580.85 587.68,584.57 585.10,588.16 581.95,591.48 578.39,594.47 574.52,596.98 570.44,598.92 566.27,600.19 552.90,600.64 535.99,597.38 516.79,590.80 496.63,581.34 476.80,569.36 458.55,555.31 428.13,514.53 400.34,456.98 372.98,394.20 343.84,337.70 310.75,299.00 283.88,286.54 254.41,282.04 224.42,280.85 196.12,278.35 171.60,269.88 143.18,243.77 120.06,211.28 97.23,182.74 84.13,172.63 69.53,163.78 55.79,155.64 45.19,147.66 40.06,139.27 40.00,134.58 41.31,129.72 43.75,124.79 47.08,119.93 51.06,115.30 55.43,111.03 59.93,107.23 68.05,101.84 78.13,96.69 89.34,92.21 100.73,88.95 111.44,87.36 120.58,87.95 129.58,92.08 137.20,99.20 144.40,108.18 152.24,117.88 179.60,156.72 206.22,193.80 214.55,202.32 222.32,208.85 230.69,213.86 244.98,218.18 259.68,220.18 266.37,221.28 273.15,222.39 279.40,222.63 284.44,221.15 286.90,219.07 289.02,216.18 290.77,212.76 292.09,209.01 292.94,205.18 293.32,201.43 292.52,194.93 290.17,188.06 286.73,180.94 282.69,173.66 266.64,152.59 249.39,131.85 239.29,118.64 232.15,105.21 230.23,96.77 229.36,87.63 229.77,78.54 231.67,70.29 234.29,64.38 237.87,58.66 242.27,53.38 247.35,48.76 253.04,45.12 263.43,41.62 275.74,40.11 288.73,40.00 301.06,40.70 315.93,42.72 330.45,46.39 343.74,51.68 354.17,57.58 363.56,64.84 373.25,74.63 399.57,114.43 428.86,165.11 445.95,191.72"
        fill="none"
        stroke="#e94560"
        stroke-width="8.0"
        stroke-linejoin="round"
        stroke-linecap="round"/>
  <!-- Start/finish line -->
  <line x1="462.78" y1="180.92" x2="429.12" y2="202.53"
        stroke="#f5f5f5" stroke-width="9.6"
        stroke-linecap="round"/>
</svg>
