<?xml version="1.0" encoding="utf-8"?>
<svg xmlns="http://www.w3.org/2000/svg"
     width="667.3" height="800.0"
     viewBox="0 0 667.3 800.0">
  <rect width="100%" height="100%" fill="#1a1a2e"/>
  <!-- Track outline -->
  <polyline points="503.13,361.41 502.26,362.77 413.47,505.94 333.37,637.72 305.87,681.22 294.22,699.50 287.86,708.53 285.00,712.42 279.22,719.36 276.25,722.31 273.13,724.96 269.83,727.20 266.37,729.02 262.81,730.35 259.21,731.18 255.52,731.58 251.81,731.51 248.13,730.94 244.43,729.87 240.72,728.40 228.81,722.82 219.96,719.57 215.38,718.57 206.10,717.94 201.48,718.29 196.93,719.08 188.03,722.03 174.77,729.48 151.62,746.19 146.59,749.32 141.49,752.08 136.34,754.39 131.13,756.32 125.82,757.87 120.44,759.02 114.98,759.73 109.47,760.00 103.98,759.79 98.48,759.16 93.05,758.06 87.75,756.53 82.61,754.54 77.66,752.11 72.92,749.21 68.38,745.93 64.11,742.24 60.14,738.19 56.48,733.78 53.15,729.00 50.18,723.89 47.59,718.54 45.41,712.93 43.61,707.09 42.18,701.06 41.07,694.90 40.34,688.64 40.00,682.30 40.04,675.90 40.45,669.45 41.18,662.96 42.23,656.44 43.60,649.88 45.27,643.30 47.20,636.71 49.41,630.11 54.60,616.94 60.67,603.82 74.93,577.68 113.40,514.21 123.73,499.05 130.88,490.47 134.57,486.70 138.32,483.31 142.21,480.35 146.24,477.84 150.39,475.84 154.61,474.34 158.87,473.41 163.18,473.06 167.50,473.29 171.77,474.11 175.93,475.51 179.94,477.45 183.75,479.93 187.26,482.88 190.43,486.33 193.23,490.21 195.66,494.48 197.64,499.07 199.16,503.97 200.16,509.12 200.75,514.50 200.89,520.08 200.63,525.79 199.99,531.62 198.94,537.49 197.46,543.41 195.57,549.39 193.23,555.37 190.52,561.37 184.10,573.42 172.87,591.37 141.62,637.81 138.04,645.12 135.92,650.72 134.89,654.97 134.39,659.19 134.44,663.35 135.07,667.37 136.25,671.16 137.99,674.61 140.26,677.70 142.98,680.36 146.15,682.55 149.69,684.23 153.51,685.35 157.56,685.90 161.76,685.86 166.09,685.31 175.10,682.62 211.59,665.01 250.61,640.41 271.32,624.25 295.75,599.32 313.92,574.96 321.13,561.36 322.75,556.81 323.87,552.22 324.49,547.58 324.60,542.86 324.12,538.14 323.01,533.50 321.33,529.05 319.09,524.83 316.37,520.85 305.76,510.14 297.54,503.09 293.49,499.21 289.63,495.00 285.93,490.41 282.35,485.51 275.58,474.85 266.10,457.22 254.28,431.51 246.33,412.66 242.13,400.89 240.35,395.14 238.83,389.39 237.63,383.58 236.84,377.70 236.56,371.81 236.76,365.89 237.49,360.01 238.75,354.19 240.53,348.50 242.80,342.97 245.57,337.65 248.83,332.57 252.56,327.76 256.79,323.20 261.49,318.94 266.62,314.97 277.85,307.49 296.42,297.04 330.55,280.10 422.17,235.84 494.68,199.34 522.96,184.78 529.21,180.13 531.63,177.67 533.58,174.99 534.33,173.58 534.94,172.11 535.40,170.65 535.72,169.09 535.88,167.10 535.80,165.03 535.40,162.99 534.78,161.06 534.12,159.62 533.32,158.30 532.36,157.00 531.28,155.78 528.70,153.55 525.70,151.61 522.29,150.00 500.61,144.25 485.16,142.38 474.97,142.84 469.91,143.69 454.87,148.89 435.74,158.71 431.18,160.63 426.61,162.00 422.05,162.73 417.57,162.87 413.27,162.42 409.16,161.39 405.27,159.80 401.61,157.63 398.22,154.94 395.12,151.80 392.42,148.21 390.19,144.27 388.46,140.01 387.28,135.54 386.67,130.91 386.68,126.20 387.29,121.47 388.51,116.78 390.32,112.18 392.72,107.70 395.70,103.36 399.20,99.13 407.41,90.91 431.74,69.76 447.37,57.60 452.59,54.01 457.91,50.72 463.41,47.73 469.13,45.15 475.08,43.07 481.22,41.50 487.53,40.48 493.93,40.00 500.42,40.08 506.95,40.76 513.51,42.04 520.07,43.96 526.57,46.48 533.08,49.47 539.59,52.82 552.63,60.41 589.88,84.83 595.52,88.88 600.93,93.06 605.91,97.44 610.46,102.01 614.51,106.91 618.06,112.12 621.05,117.61 623.49,123.30 625.34,129.23 626.59,135.35 627.23,141.57 627.27,147.90 626.71,154.33 625.60,160.81 623.88,167.31 621.62,173.85 618.95,180.41 615.88,186.96 608.77,200.14 591.84,227.03 547.88,291.86 503.13,361.41"
        fill="none"
        stroke="#e94560"
        stroke-width="8.0"
        stroke-linejoin="round"
        stroke-linecap="round"/>
  <!-- Start/finish line -->
  <line x1="519.95" y1="372.24" x2="486.31" y2="350.59"
        stroke="#f5f5f5" stroke-width="9.6"
        stroke-linecap="round"/>
</svg>
