<?xml version="1.0" encoding="utf-8"?>
<svg xmlns="http://www.w3.org/2000/svg"
     width="800.0" height="482.5"
     viewBox="0 0 800.0 482.5">
  <rect width="100%" height="100%" fill="#1a1a2e"/>
  <!-- Track outline -->
  <polyline points="468.71,357.27 462.18,355.98 436.25,348.68 367.75,323.04 261.72,281.82 245.20,277.03 228.22,273.59 211.37,272.02 195.25,272.51 187.68,273.25 179.40,275.50 169.35,279.54 162.94,283.75 155.27,289.43 140.33,303.45 132.22,310.21 123.73,316.06 115.08,320.84 106.31,324.00 97.62,325.60 89.26,325.94 81.23,325.23 73.59,323.64 66.44,321.39 59.72,318.52 55.62,316.25 51.65,313.58 48.21,310.59 45.26,307.22 43.00,303.50 41.34,299.48 40.31,295.21 40.00,290.85 40.26,288.00 40.88,285.15 41.83,282.47 43.11,279.99 44.72,277.66 46.58,275.57 49.67,273.02 53.52,270.85 62.34,267.98 71.08,265.23 74.52,263.35 77.37,261.27 80.19,258.79 82.73,256.04 84.95,252.99 86.84,249.72 88.38,246.18 89.56,242.46 91.01,234.32 91.23,216.25 91.59,198.00 92.42,193.07 93.61,189.00 95.32,184.77 97.44,180.73 102.79,173.47 120.42,154.54 125.05,148.38 127.52,144.32 129.66,139.92 131.17,135.26 132.07,130.60 132.25,126.86 131.97,123.21 131.28,119.52 130.22,115.90 127.12,108.97 115.51,88.82 113.90,85.25 112.83,81.93 111.89,77.33 111.57,72.55 112.07,67.91 113.30,63.39 115.33,58.93 117.91,54.90 120.39,52.03 123.14,49.56 126.23,47.26 129.58,45.27 133.28,43.63 137.14,42.33 145.13,40.52 153.19,40.00 161.14,40.83 168.48,42.90 197.25,52.85 205.19,55.48 259.95,77.04 351.47,101.67 361.54,105.30 370.26,109.44 377.73,114.12 380.81,116.81 383.55,119.74 385.84,122.74 387.76,126.07 389.50,130.47 390.55,135.22 390.65,140.12 390.01,144.87 388.96,148.51 387.45,151.92 385.40,155.27 383.02,158.50 377.39,164.88 370.75,170.75 367.10,173.21 363.23,175.34 359.14,177.06 354.89,178.34 350.50,179.18 346.04,179.55 341.55,179.44 337.07,178.92 328.20,176.89 323.97,175.37 319.89,173.47 312.31,168.40 271.75,139.47 264.29,135.74 257.93,133.33 248.92,130.98 240.44,130.21 236.62,130.26 232.82,130.67 228.48,131.61 224.34,133.13 221.37,135.08 218.11,137.78 193.09,159.24 187.30,165.21 184.73,168.72 182.61,172.55 181.09,176.78 180.23,181.22 180.18,185.82 180.89,190.40 182.47,194.93 184.64,199.11 186.81,202.24 189.27,205.08 191.99,207.77 195.27,210.44 202.49,215.16 210.17,219.41 218.70,222.80 314.18,249.36 326.43,250.82 339.02,250.82 351.58,249.44 389.08,239.05 401.41,233.65 448.86,203.26 461.25,195.27 474.41,188.08 488.33,182.34 502.72,178.35 517.34,175.53 532.23,173.91 547.42,173.46 562.55,174.02 577.50,175.74 591.64,178.71 604.39,182.87 615.87,187.69 626.31,192.92 635.59,198.61 644.04,204.63 651.41,211.16 657.75,218.19 663.16,225.44 667.49,232.89 669.09,236.73 670.32,240.67 671.14,244.56 671.60,248.48 671.65,252.34 671.29,256.17 670.52,259.90 669.29,263.48 667.57,266.85 665.42,269.98 662.83,272.80 659.89,275.23 656.78,277.19 653.33,278.70 648.61,279.85 643.74,280.30 639.86,279.99 636.13,279.18 632.31,277.90 628.57,276.22 620.96,271.76 613.46,266.20 580.39,239.85 570.17,234.55 559.32,230.77 539.50,227.12 530.27,227.24 521.58,228.53 513.56,230.92 505.87,233.88 502.25,235.81 499.16,237.92 496.22,240.32 493.53,242.96 491.11,245.84 488.99,248.97 487.17,252.31 485.72,255.84 484.72,259.55 484.12,263.36 483.92,267.25 484.13,271.18 484.77,275.15 485.85,279.05 487.38,282.93 489.35,286.64 491.81,290.27 494.68,293.62 497.90,296.66 501.43,299.33 505.20,301.58 509.19,303.40 513.45,304.74 517.85,305.67 522.34,306.22 526.87,306.38 536.05,305.52 554.83,300.69 560.01,299.91 564.82,299.65 569.81,299.91 574.73,300.66 579.54,301.89 584.23,303.59 593.27,308.31 601.93,314.57 627.36,337.24 637.09,344.03 646.80,349.01 656.44,352.46 661.28,353.51 666.12,354.10 670.53,354.15 675.54,353.64 703.41,347.27 708.11,346.74 712.16,346.74 716.36,347.21 720.41,348.20 724.15,349.69 727.66,351.67 730.87,354.16 733.86,357.05 739.52,363.85 744.80,371.63 749.62,380.19 753.75,389.66 757.06,399.82 759.23,409.11 759.81,413.35 760.00,417.50 759.79,421.33 759.01,425.09 757.93,427.94 756.47,430.79 754.70,433.35 752.65,435.53 750.29,437.42 747.75,439.01 743.30,440.83 738.68,441.98 734.75,442.45 730.82,442.53 722.26,441.99 713.23,440.21 703.95,437.36 651.31,417.52 639.84,412.38 628.71,405.91 618.74,397.86 610.36,389.06 603.56,379.98 593.50,363.69 590.90,360.26 588.29,357.45 585.39,355.02 582.26,353.01 578.94,351.54 575.43,350.47 571.73,349.75 567.91,349.40 559.65,349.69 550.87,351.18 521.59,358.94 510.65,360.56 499.06,360.86 487.09,360.11 474.80,358.49 468.71,357.27"
        fill="none"
        stroke="#e94560"
        stroke-width="8.0"
        stroke-linejoin="round"
        stroke-linecap="round"/>
  <!-- Start/finish line -->
  <line x1="464.81" y1="376.89" x2="472.62" y2="337.66"
        stroke="#f5f5f5" stroke-width="9.6"
        stroke-linecap="round"/>
</svg>
