<?xml version="1.0" encoding="utf-8"?>
<svg xmlns="http://www.w3.org/2000/svg"
     width="482.9" height="800.0"
     viewBox="0 0 482.9 800.0">
  <rect width="100%" height="100%" fill="#1a1a2e"/>
  <!-- Track outline -->
  <polyline points="373.75,600.58 373.66,599.32 373.22,594.70 356.97,462.28 325.54,304.10 321.48,288.51 317.35,277.13 312.82,268.74 307.71,261.96 302.32,256.83 296.73,252.96 291.82,250.51 286.85,248.91 281.63,247.88 276.15,247.63 268.96,248.43 261.65,250.45 254.85,253.78 248.50,258.36 243.35,263.33 238.25,270.59 224.97,299.97 213.45,332.52 210.20,345.73 208.67,357.60 208.54,368.09 209.69,378.57 217.54,404.90 233.97,444.57 243.15,476.07 248.46,505.17 249.60,525.43 248.71,534.75 247.05,543.37 245.11,549.68 242.67,555.39 239.65,560.88 236.19,565.88 232.16,570.47 227.74,574.47 222.85,577.98 217.69,580.85 212.22,583.12 206.62,584.74 200.92,585.71 195.21,586.03 189.68,585.71 184.27,584.77 179.56,583.38 174.54,581.11 164.54,573.98 154.46,566.92 149.10,564.65 144.07,563.50 140.49,563.18 136.88,563.27 133.33,563.84 129.91,564.91 126.56,566.42 123.33,568.37 118.76,572.05 114.61,576.61 111.07,581.85 108.26,587.82 106.47,594.24 105.66,601.06 106.02,608.23 107.39,615.43 109.96,623.14 113.46,630.57 117.91,638.02 123.78,645.46 157.61,674.24 170.13,686.94 173.83,692.11 176.83,697.54 179.11,703.09 180.72,708.90 181.52,714.61 181.62,720.34 180.97,725.85 179.67,731.12 177.66,736.16 175.09,740.75 171.86,745.02 168.18,748.74 163.89,752.07 159.25,754.80 154.06,757.03 148.62,758.61 142.87,759.65 136.74,760.00 128.43,759.48 119.75,757.90 110.99,755.13 102.31,751.24 93.66,746.15 85.28,739.99 77.17,732.65 69.77,724.70 59.84,710.93 51.72,695.31 43.99,671.90 40.00,646.13 40.00,618.61 44.86,582.94 54.15,546.75 70.52,502.66 116.75,394.81 171.50,271.89 202.73,175.31 231.12,68.89 234.15,61.58 237.20,56.47 241.49,51.20 246.14,46.91 250.26,44.12 254.49,42.12 259.10,40.70 263.83,40.00 268.69,40.05 273.51,40.81 278.18,42.26 282.68,44.39 286.77,47.00 290.68,50.40 295.04,55.42 299.10,61.66 306.64,80.57 328.11,145.43 354.82,226.78 379.89,314.88 402.74,413.07 417.02,491.63 442.50,678.18 442.85,685.97 442.35,691.68 440.79,697.83 438.36,703.45 434.74,708.78 430.57,713.19 426.65,716.18 422.55,718.37 418.03,720.04 413.39,720.98 408.71,721.16 404.09,720.60 399.69,719.30 395.50,717.27 391.72,714.62 388.26,711.31 385.31,707.48 382.82,703.10 380.73,695.10 379.17,683.63 378.65,668.49 373.75,600.58"
        fill="none"
        stroke="#e94560"
        stroke-width="8.0"
        stroke-linejoin="round"
        stroke-linecap="round"/>
  <!-- Start/finish line -->
  <line x1="353.81" y1="602.02" x2="393.70" y2="599.15"
        stroke="#f5f5f5" stroke-width="9.6"
        stroke-linecap="round"/>
</svg>
