<?xml version="1.0" encoding="utf-8"?>
<svg xmlns="http://www.w3.org/2000/svg"
     width="673.1" height="800.0"
     viewBox="0 0 673.1 800.0">
  <rect width="100%" height="100%" fill="#1a1a2e"/>
  <!-- Track outline -->
  <polyline points="506.97,356.09 499.61,368.73 454.98,438.00 388.54,546.11 312.15,673.04 292.50,703.41 286.66,711.36 283.65,714.93 280.48,718.17 277.16,721.07 273.66,723.52 269.98,725.46 266.20,726.85 262.34,727.72 258.34,728.06 254.25,727.84 250.17,727.05 246.12,725.74 224.70,717.14 220.08,716.10 210.71,715.34 206.02,715.66 201.36,716.49 192.22,719.61 179.26,727.11 157.81,743.08 153.16,746.15 148.29,749.05 143.25,751.71 138.00,754.07 132.58,756.09 127.05,757.74 121.39,758.97 115.68,759.71 109.90,760.00 104.14,759.83 98.45,759.13 92.86,757.86 87.43,756.11 82.20,753.85 77.19,751.09 72.38,747.85 67.83,744.21 63.60,740.17 59.69,735.76 56.15,731.03 52.98,726.01 50.17,720.75 47.67,715.28 45.52,709.61 43.68,703.79 42.22,697.83 41.10,691.74 40.39,685.59 40.01,679.40 40.00,673.24 40.98,661.02 42.68,648.96 43.85,643.00 45.38,637.17 49.26,625.78 56.20,609.16 61.57,598.41 80.41,567.54 113.93,514.32 129.52,490.07 132.58,486.03 135.75,482.31 139.13,478.97 142.78,476.11 146.66,473.74 150.77,471.91 155.09,470.50 159.56,469.63 164.09,469.36 168.56,469.72 172.89,470.74 177.05,472.34 180.97,474.49 184.61,477.22 187.98,480.41 191.10,483.99 193.89,487.95 196.32,492.24 198.45,496.77 200.28,501.50 201.77,506.42 202.92,511.49 203.67,516.71 203.99,522.03 203.85,527.37 203.28,532.74 202.29,538.14 200.91,543.56 199.17,548.95 197.08,554.26 194.70,559.51 189.12,569.86 179.28,585.10 142.00,636.92 136.20,648.78 135.07,652.66 134.36,656.51 134.16,660.32 134.49,664.01 135.33,667.58 136.73,670.90 138.63,673.89 141.01,676.54 143.84,678.79 147.12,680.56 150.76,681.82 154.65,682.48 158.69,682.53 162.82,681.96 175.43,677.73 228.78,653.45 254.64,638.09 279.32,618.11 301.66,593.73 319.38,568.83 324.21,559.32 325.88,554.57 326.95,549.79 327.42,545.03 327.28,540.27 326.52,535.59 325.12,531.03 323.14,526.67 320.60,522.51 314.23,514.98 299.06,500.87 291.63,492.93 288.12,488.62 278.46,474.66 269.71,459.54 259.26,437.84 245.22,403.31 243.18,397.45 241.41,391.62 239.94,385.81 238.84,379.97 238.16,374.13 237.96,368.22 238.24,362.32 239.04,356.45 240.36,350.67 242.14,344.99 244.41,339.51 247.17,334.25 250.40,329.25 254.06,324.54 258.13,320.13 262.54,316.01 267.23,312.14 277.22,305.05 293.31,295.39 316.34,283.71 390.83,249.43 466.09,212.12 523.81,180.46 536.15,171.20 537.73,169.62 538.91,168.14 539.98,166.56 540.84,164.89 541.44,163.17 541.78,161.40 541.86,159.63 541.70,157.87 541.27,156.13 540.59,154.45 539.66,152.85 538.51,151.38 537.12,150.07 535.56,148.93 534.03,148.01 531.89,147.09 494.74,137.32 490.49,136.79 481.89,136.83 477.60,137.47 464.99,141.42 437.25,155.09 433.49,156.47 429.74,157.50 426.03,158.15 422.32,158.41 418.59,158.25 414.89,157.62 411.28,156.49 407.79,154.91 404.46,152.84 401.30,150.36 398.34,147.54 395.65,144.37 393.35,140.89 391.50,137.15 390.09,133.26 389.17,129.27 388.78,125.19 388.86,121.12 389.46,117.11 390.54,113.22 392.12,109.47 394.15,105.88 399.13,99.19 410.72,86.75 423.72,75.50 452.36,53.43 464.52,45.35 467.98,43.44 471.45,41.84 474.98,40.65 478.58,40.05 480.37,40.00 482.16,40.13 483.97,40.46 485.76,40.97 489.29,42.50 492.67,44.55 508.01,55.62 514.82,59.04 518.00,60.09 519.91,60.43 521.87,60.56 523.75,60.40 525.57,60.02 527.17,59.40 528.85,58.56 535.02,54.87 538.23,53.68 541.67,53.01 545.26,52.89 548.99,53.29 552.84,54.25 556.79,55.67 565.97,60.45 597.53,79.55 609.07,87.83 616.61,94.69 620.83,99.68 624.41,104.97 627.43,110.73 629.80,116.93 632.14,126.56 633.05,136.18 633.02,140.41 632.12,148.74 631.27,152.79 630.12,156.73 628.69,160.54 627.00,164.21 620.75,174.32 612.30,187.61 607.09,198.46 596.69,215.96 586.54,231.68 574.59,250.52 552.49,281.94 531.53,314.36 528.84,320.36 518.95,335.76 515.22,341.89 506.97,356.09"
        fill="none"
        stroke="#e94560"
        stroke-width="8.0"
        stroke-linejoin="round"
        stroke-linecap="round"/>
  <!-- Start/finish line -->
  <line x1="524.26" y1="366.14" x2="489.68" y2="346.03"
        stroke="#f5f5f5" stroke-width="9.6"
        stroke-linecap="round"/>
</svg>
