<?xml version="1.0" encoding="utf-8"?>
<svg xmlns="http://www.w3.org/2000/svg"
     width="800.0" height="554.6"
     viewBox="0 0 800.0 554.6">
  <rect width="100%" height="100%" fill="#1a1a2e"/>
  <!-- Track outline -->
  <polyline points="444.77,263.15 435.58,287.37 423.76,316.97 409.55,344.74 392.73,369.53 374.15,390.78 353.18,408.73 328.71,423.40 301.59,436.71 241.87,459.00 187.62,471.84 175.20,473.51 163.69,473.77 149.18,472.36 134.86,469.13 126.58,466.15 118.75,462.39 111.65,457.54 104.81,450.80 98.84,442.77 94.55,434.15 92.65,427.16 91.74,419.64 91.70,412.07 92.54,405.03 94.78,397.14 98.27,389.68 102.72,382.84 108.34,376.32 114.99,370.37 122.32,365.30 130.72,361.02 139.83,357.63 149.29,355.33 165.13,354.18 180.98,354.86 206.81,357.99 234.58,357.89 249.01,355.91 263.26,352.57 276.90,347.92 289.89,342.07 301.32,335.65 311.77,328.35 320.66,320.57 328.71,311.59 337.45,299.06 344.56,285.18 349.00,270.77 351.05,256.00 350.94,246.39 349.72,236.84 347.40,227.71 344.06,219.20 339.65,211.06 334.41,203.75 328.37,197.59 321.53,192.16 314.24,187.67 306.57,183.96 298.40,181.20 290.12,179.47 281.68,179.06 273.06,179.74 264.55,181.35 251.90,185.58 238.72,192.26 192.07,226.77 168.44,241.54 156.93,247.12 144.85,251.67 130.03,255.63 114.76,257.67 100.29,256.99 86.38,253.96 77.87,250.67 69.75,246.45 62.49,241.38 56.37,235.69 50.98,229.27 46.65,222.28 43.34,214.66 41.10,206.51 40.00,198.32 40.19,190.07 41.56,181.77 43.91,173.79 47.41,165.96 51.93,158.49 57.32,151.76 63.63,145.75 70.81,140.53 78.56,136.15 91.32,131.35 106.71,127.95 185.50,119.60 214.56,112.24 273.48,87.66 305.54,76.33 339.12,66.67 410.09,52.16 484.70,42.14 523.03,40.00 560.37,43.24 595.55,52.21 627.50,66.15 641.78,74.76 655.11,84.47 667.08,94.86 677.87,106.14 686.95,117.83 694.89,130.20 701.27,141.27 707.42,156.14 755.97,383.15 759.66,411.39 760.00,436.55 758.10,451.74 754.23,466.57 748.11,479.04 740.09,490.11 733.94,496.53 727.03,502.32 719.66,507.02 713.96,509.89 707.99,512.35 701.84,514.02 695.61,514.59 680.00,512.97 667.46,504.57 661.80,498.62 657.01,491.57 653.40,484.00 651.20,475.65 650.25,466.78 650.02,458.01 651.28,446.26 652.72,434.62 652.80,422.62 651.16,410.82 649.38,404.87 647.02,398.92 643.98,393.39 640.11,388.79 634.71,384.98 628.22,381.95 621.27,379.87 614.54,378.93 608.31,379.19 602.00,380.49 595.85,382.63 590.08,385.45 579.14,394.22 569.49,404.76 562.23,414.79 554.78,424.34 548.36,430.19 541.26,435.46 533.59,439.16 526.98,440.78 519.80,441.56 512.73,441.25 506.31,439.63 501.68,437.13 497.19,433.68 493.13,429.45 489.60,424.91 486.75,420.27 483.75,412.12 482.34,403.25 482.00,394.53 482.57,386.70 484.16,378.98 486.63,371.51 492.41,360.24 500.12,349.80 509.65,340.61 521.54,331.90 546.88,318.06 571.77,304.49 581.76,297.13 590.00,289.14 599.50,277.14 607.63,263.62 613.55,249.79 617.43,235.38 618.95,220.56 618.07,205.78 614.69,191.90 609.03,178.85 604.02,170.71 598.02,163.08 591.33,156.40 584.15,150.97 576.32,146.43 568.12,142.99 559.50,140.64 550.53,139.33 541.60,139.13 532.71,140.12 523.86,142.21 515.39,145.34 507.15,149.62 499.25,154.99 492.07,161.15 482.99,171.28 474.51,184.85 444.77,263.15"
        fill="none"
        stroke="#e94560"
        stroke-width="8.0"
        stroke-linejoin="round"
        stroke-linecap="round"/>
  <!-- Start/finish line -->
  <line x1="463.47" y1="270.25" x2="426.07" y2="256.05"
        stroke="#f5f5f5" stroke-width="9.6"
        stroke-linecap="round"/>
</svg>
