<?xml version="1.0" encoding="utf-8"?>
<svg xmlns="http://www.w3.org/2000/svg"
     width="619.2" height="800.0"
     viewBox="0 0 619.2 800.0">
  <rect width="100%" height="100%" fill="#1a1a2e"/>
  <!-- Track outline -->
  <polyline points="203.06,489.53 162.70,465.45 122.51,436.90 78.06,395.78 54.36,368.21 46.63,358.40 41.10,348.26 40.00,340.72 40.98,332.85 45.07,324.66 50.38,317.68 57.30,314.03 64.22,314.28 74.65,317.12 84.51,321.74 183.46,370.16 194.18,373.72 202.55,374.94 209.87,375.10 216.79,374.62 224.17,372.51 229.18,370.24 233.28,366.42 236.45,361.96 239.62,355.56 241.47,347.20 241.18,334.88 231.55,182.82 232.82,173.90 234.66,167.08 238.24,158.81 243.31,151.03 250.00,145.27 257.61,141.29 265.45,140.56 273.24,142.02 280.68,144.70 287.08,148.92 292.21,153.21 296.76,159.05 302.59,168.62 340.12,248.34 345.37,255.56 352.81,260.83 360.48,263.51 368.44,265.13 375.41,264.48 382.85,261.97 392.83,256.37 405.68,246.48 422.52,231.56 434.46,218.42 443.05,207.71 448.35,198.47 451.12,191.90 452.33,183.71 450.72,177.54 445.64,170.16 439.47,164.00 363.71,105.77 356.85,99.36 352.23,92.47 349.12,83.71 348.25,75.52 349.75,67.82 352.17,59.71 356.38,53.79 362.09,47.87 369.01,42.84 376.74,40.16 385.79,40.00 397.90,41.05 421.19,47.14 451.29,57.11 469.92,66.28 481.22,73.09 501.05,89.31 572.67,161.16 578.20,172.52 579.24,182.90 577.17,193.85 572.44,204.31 563.04,214.12 546.09,227.58 305.01,422.14 300.74,428.22 297.63,435.68 296.59,444.52 297.51,452.63 301.61,460.42 310.02,468.93 374.78,518.08 381.24,525.06 386.77,533.33 389.60,542.09 391.38,552.30 392.02,561.06 390.75,568.61 388.79,576.47 385.79,585.39 382.91,593.10 381.29,601.94 383.20,612.48 388.33,621.56 396.98,631.30 403.78,637.95 411.97,643.62 420.68,647.03 429.32,648.89 437.57,648.81 445.07,647.60 453.95,643.46 489.64,628.70 500.07,628.70 510.74,630.32 522.22,633.81 531.33,638.03 544.65,646.79 556.41,658.71 560.45,672.49 562.12,688.71 559.52,705.01 555.26,718.88 548.51,731.86 540.61,744.02 530.00,752.54 518.35,757.97 502.32,760.00 484.85,756.51 470.73,750.84 266.15,622.86 254.73,613.62 247.75,604.86 244.70,596.58 245.91,585.56 249.14,574.04 253.86,561.55 258.48,547.93 259.40,536.65 254.50,526.51 248.39,519.62 236.80,510.70 219.73,500.16 203.06,489.53"
        fill="none"
        stroke="#e94560"
        stroke-width="8.0"
        stroke-linejoin="round"
        stroke-linecap="round"/>
  <!-- Start/finish line -->
  <line x1="192.67" y1="506.62" x2="213.46" y2="472.45"
        stroke="#f5f5f5" stroke-width="9.6"
        stroke-linecap="round"/>
</svg>
