<?xml version="1.0" encoding="utf-8"?>
<svg xmlns="http://www.w3.org/2000/svg"
     width="800.0" height="424.5"
     viewBox="0 0 800.0 424.5">
  <rect width="100%" height="100%" fill="#1a1a2e"/>
  <!-- Track outline -->
  <polyline points="307.46,334.60 407.15,350.28 626.66,383.63 645.41,384.47 663.47,383.25 680.46,379.78 696.14,374.24 710.36,366.60 723.12,356.72 734.47,344.63 744.18,330.52 751.98,314.75 757.58,297.52 759.48,270.33 760.00,255.78 757.04,211.57 753.87,198.57 747.71,183.29 739.64,169.48 730.08,157.38 724.67,152.13 718.82,147.47 712.47,143.39 705.73,140.01 698.70,137.41 691.41,135.66 683.89,134.96 676.25,135.26 668.40,136.63 660.60,139.02 644.69,147.00 608.79,169.88 600.31,173.67 592.39,176.15 583.88,177.90 575.32,178.60 567.07,178.07 559.03,176.44 551.39,173.61 544.16,169.74 537.22,164.78 530.87,158.95 520.25,145.02 511.15,131.29 501.12,119.49 495.64,114.47 489.76,110.19 483.54,106.87 476.98,104.53 470.19,103.34 463.28,103.16 456.41,104.04 449.69,105.85 443.18,108.47 437.14,112.00 431.76,116.43 427.15,121.67 423.43,127.71 420.71,134.29 419.04,141.55 418.43,149.13 418.85,157.15 420.31,165.22 422.92,173.67 426.30,181.66 429.52,187.72 433.21,193.29 442.43,203.90 453.54,213.34 466.45,221.04 481.04,227.13 497.31,231.71 533.60,235.55 621.56,234.91 650.33,237.07 658.93,239.02 666.62,241.70 673.46,245.00 679.68,248.93 685.00,253.13 689.58,258.03 692.38,262.17 694.77,266.71 696.30,271.38 696.84,275.90 696.63,280.50 695.64,284.90 693.72,289.22 691.01,293.36 687.84,296.94 682.58,300.93 676.51,304.08 668.94,306.94 661.07,309.04 647.13,311.02 631.80,311.69 544.60,307.00 526.15,304.37 507.86,300.38 489.76,294.84 472.79,287.82 403.38,249.81 396.38,247.10 390.27,245.49 381.74,243.83 372.85,243.07 364.67,243.45 355.60,245.03 312.14,258.76 278.55,265.69 249.73,267.97 233.80,267.33 226.60,266.04 219.72,263.86 214.88,261.50 210.20,258.55 206.18,255.14 203.17,251.59 200.73,247.65 199.13,243.40 198.52,239.61 198.47,235.50 198.94,231.39 199.86,227.51 201.85,222.76 204.67,218.30 207.97,214.33 213.47,209.73 219.76,205.94 226.70,202.50 235.09,199.41 280.57,189.00 294.25,184.49 306.52,178.25 313.67,173.32 320.46,167.61 326.31,161.58 331.32,155.02 335.15,148.11 337.83,140.82 339.12,133.45 339.15,126.07 338.46,121.32 337.24,116.66 335.50,112.29 333.29,108.26 330.61,104.53 327.49,101.21 323.82,98.27 319.68,95.76 315.31,93.69 308.26,91.50 300.20,90.22 269.27,89.81 254.88,88.04 239.84,84.68 121.19,46.03 95.92,41.37 76.22,40.00 68.25,40.73 61.62,42.57 57.46,44.31 53.56,46.53 50.04,49.30 46.56,53.09 43.55,57.52 41.39,62.21 40.47,65.83 40.00,69.67 40.05,73.52 40.54,77.28 42.14,82.38 44.63,87.34 47.69,91.77 52.97,96.93 59.16,101.18 66.65,105.09 74.43,108.18 80.95,110.10 87.46,111.38 101.09,112.40 144.34,109.84 152.21,110.16 158.96,111.21 165.59,113.07 171.82,115.96 176.07,118.82 180.11,122.23 183.33,126.10 185.05,129.19 186.36,132.57 187.23,136.07 187.63,139.57 187.54,143.13 186.98,146.77 185.94,150.35 184.51,153.65 181.71,157.79 178.11,161.58 174.14,164.72 167.77,167.96 160.81,170.23 145.25,173.41 130.78,177.49 124.24,180.61 118.20,184.49 112.79,189.03 108.16,194.28 104.54,200.20 101.94,206.67 100.43,213.78 100.01,221.18 100.71,229.11 102.55,237.04 105.67,245.17 109.64,252.75 113.48,258.41 117.78,263.57 128.28,273.53 141.28,282.77 173.27,298.49 291.20,332.03 307.46,334.60"
        fill="none"
        stroke="#e94560"
        stroke-width="8.0"
        stroke-linejoin="round"
        stroke-linecap="round"/>
  <!-- Start/finish line -->
  <line x1="310.57" y1="314.84" x2="304.35" y2="354.36"
        stroke="#f5f5f5" stroke-width="9.6"
        stroke-linecap="round"/>
</svg>
