<?xml version="1.0" encoding="utf-8"?>
<svg xmlns="http://www.w3.org/2000/svg"
     width="800.0" height="602.7"
     viewBox="0 0 800.0 602.7">
  <rect width="100%" height="100%" fill="#1a1a2e"/>
  <!-- Track outline -->
  <polyline points="408.59,313.40 351.21,323.11 226.63,336.14 198.83,342.52 187.16,347.05 176.18,352.73 165.84,358.33 157.40,365.44 150.26,372.84 143.96,381.57 140.26,389.98 138.42,397.51 137.90,404.96 138.59,416.51 141.14,427.74 146.15,438.55 152.81,448.63 161.86,458.61 171.24,468.69 179.32,479.92 185.97,491.93 189.04,499.60 191.34,507.51 192.17,515.50 191.55,521.92 189.98,528.58 187.71,534.91 184.89,540.46 180.22,546.37 174.51,551.18 168.31,555.15 160.92,558.71 152.95,561.30 144.76,562.69 135.84,562.73 126.71,561.53 118.14,559.36 107.97,555.20 98.67,549.33 90.10,541.66 82.36,532.51 75.57,521.92 69.82,510.23 65.08,497.52 61.46,484.03 58.92,469.56 57.66,454.64 59.68,423.44 64.18,402.41 71.28,382.36 78.29,368.63 86.86,355.32 97.00,343.81 108.25,333.65 134.06,315.76 153.89,306.20 175.56,298.89 319.85,266.08 333.55,260.77 344.17,255.08 354.66,248.38 364.27,240.48 372.43,231.70 379.39,221.90 384.72,211.78 388.59,200.92 390.58,189.78 390.85,178.37 389.22,166.77 385.94,155.63 381.03,145.00 374.69,135.53 366.71,127.48 357.62,120.92 346.96,115.33 335.53,111.17 323.79,108.40 309.30,106.73 192.07,105.53 163.29,107.33 150.96,109.51 139.08,113.20 130.86,117.04 122.81,121.89 116.02,127.85 112.36,132.48 109.15,137.70 106.68,143.20 105.22,148.83 104.87,154.52 105.43,160.48 106.72,166.35 108.63,171.62 111.45,176.56 115.11,181.05 119.26,184.93 123.65,187.98 128.49,190.24 133.78,191.68 139.22,192.28 144.58,192.09 155.38,188.44 166.32,182.76 178.20,176.10 190.33,170.51 198.37,168.71 206.53,168.01 214.33,168.80 219.63,170.37 224.89,172.64 229.73,175.69 233.87,179.38 237.11,183.45 239.94,188.21 242.10,193.34 243.32,198.56 243.49,204.02 242.76,209.84 241.26,215.52 239.20,220.74 234.78,227.45 228.93,233.31 222.45,238.44 210.15,245.28 197.09,250.41 174.54,256.79 148.87,260.90 134.79,261.00 120.62,259.66 106.75,256.93 93.37,252.40 81.14,245.93 69.93,237.61 60.66,228.14 52.82,217.23 46.97,205.45 42.79,192.69 40.45,179.06 40.00,165.06 41.67,150.73 45.33,136.73 51.36,122.72 59.16,109.65 69.23,96.89 80.03,85.89 88.60,78.87 97.34,73.09 116.92,63.43 138.00,56.73 147.96,54.88 160.26,54.05 283.76,61.86 421.41,73.37 564.80,54.33 616.08,43.51 639.70,40.65 661.90,40.00 692.27,41.62 705.48,43.70 717.95,47.07 728.92,51.78 738.85,58.02 744.25,62.55 749.17,67.68 753.21,73.69 755.82,79.24 758.01,85.48 759.51,91.99 760.00,98.23 759.37,104.28 757.81,110.38 755.47,116.16 752.51,121.15 748.36,125.64 743.31,129.33 737.70,132.29 731.99,134.60 723.42,136.63 714.36,137.33 705.58,137.19 694.99,135.76 683.63,132.84 634.65,116.25 605.39,108.26 574.38,104.52 559.09,104.79 544.07,106.59 530.10,109.69 516.83,114.31 505.23,120.18 494.88,127.62 489.55,132.94 484.81,138.81 480.88,145.18 477.95,151.61 475.69,158.40 474.29,165.43 473.70,172.54 473.94,179.84 475.27,187.05 478.44,195.56 483.07,203.83 488.61,211.09 495.54,217.37 503.45,222.41 511.78,225.97 520.84,227.91 530.28,228.28 539.34,227.49 550.00,225.00 561.11,220.14 583.23,205.03 606.09,189.27 620.47,182.48 634.48,178.27 650.05,176.79 665.69,177.35 694.47,182.20 706.91,185.48 718.47,189.97 724.88,193.34 730.88,197.31 736.31,202.35 741.68,209.14 746.48,217.14 749.62,225.64 750.59,231.97 750.73,238.68 750.14,245.42 748.78,251.71 745.51,260.07 740.77,267.88 735.09,274.58 727.60,280.36 719.03,284.75 710.46,288.22 699.17,291.31 687.68,293.21 661.90,295.75 457.36,305.18 408.59,313.40"
        fill="none"
        stroke="#e94560"
        stroke-width="8.0"
        stroke-linejoin="round"
        stroke-linecap="round"/>
  <!-- Start/finish line -->
  <line x1="411.92" y1="333.13" x2="405.26" y2="293.68"
        stroke="#f5f5f5" stroke-width="9.6"
        stroke-linecap="round"/>
</svg>
