<?xml version="1.0" encoding="utf-8"?>
<svg xmlns="http://www.w3.org/2000/svg"
     width="524.5" height="800.0"
     viewBox="0 0 524.5 800.0">
  <rect width="100%" height="100%" fill="#1a1a2e"/>
  <!-- Track outline -->
  <polyline points="204.02,532.22 242.36,570.02 278.27,601.62 303.14,625.79 322.78,645.74 332.10,656.16 340.29,666.40 349.74,679.94 356.31,691.26 357.91,694.63 359.18,697.94 360.13,701.24 360.26,701.84 360.42,702.51 360.57,703.17 360.67,703.77 360.37,704.50 360.06,704.37 359.81,704.61 360.13,706.64 359.15,715.60 351.86,739.83 352.22,742.54 352.96,745.20 353.94,747.79 354.63,749.06 355.39,750.16 356.21,751.24 357.21,752.32 359.42,754.21 361.80,755.94 363.12,756.71 364.53,757.34 367.33,758.38 370.68,759.26 376.01,759.85 381.05,760.00 384.69,759.71 395.66,757.03 406.37,752.41 409.75,750.33 419.00,742.11 421.59,738.85 427.72,727.65 429.23,723.46 432.24,709.82 432.88,684.58 429.80,651.67 425.66,604.80 419.84,516.72 419.14,483.65 419.43,475.05 419.80,471.11 420.43,467.38 421.32,463.81 422.46,460.42 423.87,457.21 425.54,454.14 427.52,451.27 429.88,448.73 432.56,446.49 435.53,444.56 438.81,442.94 442.35,441.64 446.13,440.69 465.28,437.18 468.63,436.04 471.73,434.53 474.66,432.57 477.31,430.21 479.58,427.48 481.50,424.41 483.00,421.07 483.99,417.52 484.48,413.81 484.42,410.00 483.81,406.16 482.67,402.35 481.01,398.61 478.89,395.00 473.45,388.27 470.16,385.26 454.53,374.97 441.15,368.78 436.46,367.38 431.72,366.41 426.96,365.94 422.23,365.95 417.57,366.48 413.04,367.50 408.63,369.03 404.40,371.09 396.53,376.43 392.92,379.65 383.75,391.06 356.77,436.45 343.12,460.55 341.10,465.63 338.16,476.10 337.28,481.45 336.90,486.82 337.49,497.54 339.64,508.14 342.24,515.54 345.79,523.35 357.64,542.17 363.48,551.90 368.52,561.95 372.19,571.34 374.56,579.65 375.29,583.40 375.71,586.90 375.83,590.19 375.59,593.23 374.96,596.03 374.02,598.63 372.73,600.96 371.12,603.05 369.13,604.86 366.83,606.40 364.24,607.66 361.40,608.50 358.38,608.90 355.23,608.83 351.98,608.27 348.74,607.18 345.54,605.62 342.43,603.62 339.45,601.21 336.64,598.42 334.01,595.31 331.60,591.87 329.41,588.17 308.04,544.07 288.49,509.40 260.11,461.42 249.91,448.19 239.82,438.52 236.27,436.07 232.57,434.10 228.69,432.59 224.59,431.59 202.20,430.69 197.68,430.33 193.31,429.55 189.07,428.39 184.96,426.89 180.98,425.13 177.18,423.09 173.56,420.75 170.20,418.10 167.13,415.14 164.35,411.88 161.86,408.32 159.66,404.46 157.78,400.34 156.23,396.00 155.08,391.42 154.33,386.70 154.03,381.87 154.08,376.96 154.49,371.97 155.30,366.97 156.48,361.95 157.96,356.97 159.73,352.00 161.78,347.09 166.66,337.32 186.14,301.85 192.47,285.60 194.92,274.71 195.71,263.84 195.46,258.47 193.61,247.87 190.09,237.60 187.62,232.67 176.07,212.98 173.60,207.70 171.61,202.17 170.03,196.47 168.80,190.64 167.95,184.72 167.52,178.70 167.49,172.62 167.85,166.51 169.41,154.24 174.48,116.36 174.38,97.97 172.09,81.96 167.45,67.86 165.25,63.63 162.60,59.69 159.54,56.06 156.07,52.78 152.22,49.85 148.04,47.31 143.58,45.14 138.89,43.36 128.94,41.03 113.09,40.00 98.32,41.13 93.94,42.07 87.97,44.18 82.25,46.63 78.92,48.76 75.93,51.26 73.35,54.15 71.21,57.40 69.47,60.94 68.12,64.77 67.19,68.80 66.68,72.98 66.60,77.27 66.97,81.59 67.79,85.92 69.11,90.24 70.92,94.43 73.25,98.44 76.01,102.25 86.39,112.30 98.15,121.84 102.01,125.28 105.66,128.98 109.05,133.00 112.18,137.29 115.04,141.83 117.69,146.57 120.06,151.49 121.93,156.64 123.27,161.97 124.26,167.38 124.95,172.89 125.29,178.47 125.29,184.10 124.44,195.40 114.43,266.79 110.97,290.07 107.87,303.79 106.66,307.61 105.31,311.05 103.73,314.13 101.93,316.93 99.87,319.41 97.45,321.51 94.64,323.26 91.50,324.73 88.11,325.86 84.51,326.65 80.71,327.10 59.13,327.18 55.93,327.83 52.89,328.89 50.01,330.36 47.34,332.23 44.97,334.49 42.98,337.12 41.46,340.14 40.46,343.42 40.00,346.92 40.14,350.49 40.84,354.13 42.06,357.71 43.71,361.20 53.77,374.44 122.05,446.01 190.42,518.21 204.02,532.22"
        fill="none"
        stroke="#e94560"
        stroke-width="8.0"
        stroke-linejoin="round"
        stroke-linecap="round"/>
  <!-- Start/finish line -->
  <line x1="218.14" y1="518.06" x2="189.89" y2="546.38"
        stroke="#f5f5f5" stroke-width="9.6"
        stroke-linecap="round"/>
</svg>
