<?xml version="1.0" encoding="utf-8"?>
<svg xmlns="http://www.w3.org/2000/svg"
     width="629.7" height="800.0"
     viewBox="0 0 629.7 800.0">
  <rect width="100%" height="100%" fill="#1a1a2e"/>
  <!-- Track outline -->
  <polyline points="62.49,424.60 55.17,409.81 48.80,392.96 43.90,375.00 40.76,353.33 40.00,330.94 46.85,288.86 56.97,246.06 75.18,162.85 84.31,143.23 94.67,127.25 106.51,111.67 119.44,97.82 148.82,74.25 166.70,62.62 185.33,52.74 203.97,45.70 222.94,41.34 242.62,40.00 262.11,41.82 274.05,44.59 285.74,48.70 296.63,54.63 304.19,59.78 311.75,65.71 318.21,72.67 322.59,80.82 324.01,86.43 324.96,93.00 325.30,99.88 325.01,106.68 324.06,112.85 322.40,118.08 318.07,124.17 311.80,128.60 304.09,131.84 295.58,134.13 286.88,135.87 261.83,135.08 233.11,129.55 207.68,126.14 187.71,126.62 169.88,130.49 160.76,134.13 151.53,138.64 143.02,144.50 136.13,151.85 131.76,159.21 128.24,167.75 125.58,176.85 123.86,186.26 123.67,206.75 126.53,227.48 131.61,246.70 138.51,265.13 156.90,303.65 178.01,335.37 200.98,364.25 215.67,378.25 230.07,389.32 245.00,399.92 260.83,409.10 281.08,417.80 302.38,423.97 323.21,427.05 345.93,426.82 388.29,416.93 429.98,405.77 449.95,402.77 468.30,402.21 482.66,403.32 497.30,405.85 511.09,410.36 527.87,420.01 543.32,432.91 557.82,448.02 570.57,465.58 580.26,483.61 587.11,503.23 589.68,522.53 589.39,541.99 586.59,560.42 581.12,577.59 576.65,586.61 571.18,595.15 565.00,602.82 558.25,608.99 549.46,614.21 539.66,617.69 529.44,619.59 519.55,619.99 507.57,618.25 495.73,613.97 483.23,607.33 455.32,583.52 427.46,559.24 409.11,549.43 391.24,543.57 378.12,541.12 364.71,540.25 351.59,541.52 338.99,544.84 326.63,550.22 315.65,557.65 308.99,563.74 302.62,570.71 297.44,578.54 294.78,592.14 294.78,602.58 296.15,612.63 300.43,622.99 305.85,630.59 312.98,636.68 320.97,641.42 329.15,645.30 348.74,648.70 369.32,650.20 389.76,653.68 408.83,660.73 416.53,666.03 424.04,672.51 430.51,680.03 435.17,688.65 437.31,695.69 438.83,703.68 439.59,711.98 439.45,719.97 438.26,726.93 435.31,733.74 430.84,739.83 425.33,745.21 419.29,749.80 413.30,753.59 404.41,757.31 394.71,759.37 384.72,760.00 374.98,759.53 362.62,757.15 350.40,752.72 338.70,747.03 324.63,737.93 291.12,710.88 221.80,639.84 93.82,477.13 71.90,443.59 62.49,424.60"
        fill="none"
        stroke="#e94560"
        stroke-width="8.0"
        stroke-linejoin="round"
        stroke-linecap="round"/>
  <!-- Start/finish line -->
  <line x1="44.57" y1="433.48" x2="80.41" y2="415.72"
        stroke="#f5f5f5" stroke-width="9.6"
        stroke-linecap="round"/>
</svg>
