<?xml version="1.0" encoding="utf-8"?>
<svg xmlns="http://www.w3.org/2000/svg"
     width="800.0" height="599.3"
     viewBox="0 0 800.0 599.3">
  <rect width="100%" height="100%" fill="#1a1a2e"/>
  <!-- Track outline -->
  <polyline points="661.40,415.88 636.88,420.13 630.26,421.25 627.40,421.85 624.57,422.53 622.63,423.32 620.86,424.38 619.22,425.85 617.70,427.69 614.69,433.15 591.85,484.50 578.68,518.36 576.24,522.95 572.59,528.31 568.58,532.75 566.51,534.43 564.34,535.88 561.75,537.36 559.06,538.56 556.40,539.33 553.72,539.70 551.10,539.70 548.51,539.28 545.99,538.40 543.59,537.12 541.40,535.53 539.45,533.56 537.96,531.35 536.78,528.85 536.01,526.17 535.54,523.31 535.30,520.35 535.36,517.08 537.17,504.99 540.17,492.69 555.28,450.28 577.34,384.73 583.09,356.35 583.58,342.24 582.84,328.76 581.25,318.81 578.73,309.45 574.80,299.12 569.72,288.90 562.20,276.71 552.99,264.42 520.77,231.53 497.89,212.26 493.31,209.46 488.13,207.18 482.31,205.25 479.48,204.68 476.68,204.49 474.97,204.61 473.29,204.92 471.48,205.58 468.57,207.53 465.43,210.12 462.53,212.15 460.69,213.01 458.99,213.58 457.29,213.76 455.98,213.63 454.65,213.29 453.36,212.75 452.18,212.04 450.52,210.39 448.67,207.90 426.91,176.02 389.99,125.28 386.27,121.55 383.88,119.61 381.33,117.90 378.70,116.57 376.01,115.57 373.30,114.94 370.58,114.62 367.94,114.63 365.31,114.92 362.73,115.43 360.20,116.22 357.72,117.32 355.38,118.78 353.28,120.59 351.46,122.80 350.53,124.42 349.76,126.20 349.20,128.08 348.81,130.92 348.89,133.83 349.49,136.71 350.52,139.45 351.98,141.95 353.98,144.61 367.94,161.13 370.68,165.77 371.75,168.24 372.56,170.83 373.00,173.44 373.11,176.09 372.83,178.74 372.22,181.32 371.21,183.85 369.92,186.23 366.53,190.74 362.43,195.13 353.56,202.93 344.34,209.41 323.85,220.51 319.14,224.13 317.13,226.18 315.29,228.48 313.73,230.97 312.39,233.67 311.32,236.13 310.43,239.55 308.12,299.69 307.12,311.48 305.97,316.91 304.37,322.03 301.82,327.92 298.73,333.26 295.27,337.94 291.42,342.02 265.83,366.49 256.95,377.80 248.19,391.63 212.17,466.02 195.45,503.67 189.26,514.60 182.29,524.41 174.63,533.17 162.14,544.52 157.46,547.87 152.40,550.88 147.01,553.52 141.32,555.72 135.40,557.45 129.30,558.65 123.05,559.27 116.75,559.33 110.42,558.78 104.15,557.63 97.96,555.89 91.95,553.61 86.14,550.80 80.60,547.49 75.33,543.71 70.42,539.45 65.94,534.84 62.01,530.03 58.47,524.97 55.26,519.51 49.73,507.17 47.28,500.30 43.41,485.41 40.98,470.58 40.00,456.42 40.62,442.77 41.53,436.13 42.87,429.45 46.85,415.83 49.54,408.88 56.54,394.46 65.12,379.92 74.83,366.17 104.35,331.10 298.45,111.41 338.19,65.61 348.23,55.85 353.40,51.85 358.77,48.38 364.28,45.46 369.92,43.07 375.63,41.35 381.23,40.34 386.68,40.00 392.07,40.36 397.45,41.46 402.90,43.37 408.56,45.98 414.45,49.34 425.88,57.38 449.15,78.60 533.26,158.95 621.05,239.89 649.52,266.98 652.57,268.96 655.18,270.13 658.05,271.17 660.95,271.84 663.88,272.11 666.78,271.94 669.36,271.43 672.23,270.36 679.99,265.67 687.75,260.66 693.30,257.84 698.72,255.84 701.37,255.26 704.09,255.02 707.27,255.17 710.48,255.77 713.52,256.88 716.42,258.41 718.87,260.12 721.20,262.11 725.74,266.87 728.97,271.10 738.50,287.86 747.39,307.52 757.19,334.96 759.50,346.40 760.00,353.12 759.68,359.15 759.20,361.98 758.48,364.66 757.44,367.18 756.10,369.52 754.06,372.11 751.78,374.37 749.72,375.94 747.25,377.38 739.78,380.44 730.62,384.49 705.44,401.87 700.48,405.06 695.37,407.68 689.93,409.83 683.87,411.68 677.13,413.16 661.40,415.88"
        fill="none"
        stroke="#e94560"
        stroke-width="8.0"
        stroke-linejoin="round"
        stroke-linecap="round"/>
  <!-- Start/finish line -->
  <line x1="664.81" y1="435.59" x2="657.99" y2="396.17"
        stroke="#f5f5f5" stroke-width="9.6"
        stroke-linecap="round"/>
</svg>
