<?xml version="1.0" encoding="utf-8"?>
<svg xmlns="http://www.w3.org/2000/svg"
     width="800.0" height="392.8"
     viewBox="0 0 800.0 392.8">
  <rect width="100%" height="100%" fill="#1a1a2e"/>
  <!-- Track outline -->
  <polyline points="624.36,83.09 567.59,104.52 527.19,118.71 504.55,129.99 494.97,136.82 483.84,147.11 479.27,152.64 475.32,158.46 472.33,163.92 469.79,170.07 467.03,182.21 464.22,194.15 462.66,198.06 460.92,201.40 458.74,204.41 455.70,207.42 452.10,210.07 448.21,211.94 444.94,212.73 441.42,213.06 437.88,212.96 434.54,212.47 430.54,211.15 426.72,209.13 423.13,206.91 418.63,203.31 414.16,199.66 408.76,196.30 402.98,193.44 396.70,191.17 390.14,189.61 383.10,188.85 375.89,188.85 369.03,189.38 360.66,191.27 271.13,230.66 247.28,241.89 236.25,245.95 229.04,247.76 221.58,248.91 214.47,249.03 207.58,248.19 201.35,246.35 195.57,243.60 190.57,240.08 186.22,235.79 182.68,230.82 179.86,225.28 177.83,219.74 176.04,212.57 163.00,132.26 155.24,102.36 149.96,87.56 144.21,74.65 140.51,68.63 136.57,63.65 132.20,59.03 127.45,54.98 122.42,51.56 117.09,48.75 111.77,46.61 106.06,45.08 98.72,44.06 91.14,44.01 83.95,45.03 77.09,47.14 70.83,50.54 65.13,54.93 59.93,60.26 55.48,66.05 52.41,71.00 49.93,76.13 47.97,81.20 46.31,87.51 42.51,111.11 40.00,140.65 43.19,212.42 46.68,233.57 51.36,251.71 60.71,273.93 68.39,286.56 72.54,291.95 77.04,296.79 81.69,300.77 86.69,304.09 91.86,306.54 97.44,308.25 104.25,309.35 111.29,309.58 118.12,308.63 124.91,307.54 131.59,307.08 138.08,307.51 141.95,308.61 145.66,310.24 149.43,312.64 158.08,321.62 166.27,331.24 170.87,335.70 175.44,339.38 180.87,342.62 186.70,345.30 192.45,347.54 199.51,349.35 221.07,352.13 250.35,352.85 405.04,333.33 714.59,278.27 721.38,276.61 726.05,274.78 730.12,272.58 734.07,269.88 737.49,266.74 740.22,263.14 742.46,259.11 743.97,254.90 744.72,250.51 744.77,245.92 744.07,241.51 741.38,235.49 737.28,229.39 720.95,208.98 713.26,197.55 707.43,184.87 703.49,171.50 702.33,164.76 701.80,158.00 701.95,151.37 702.73,144.84 704.06,138.64 705.90,132.67 710.90,121.72 718.87,109.98 728.56,99.98 739.62,91.82 750.38,83.58 753.64,80.31 756.28,77.15 758.22,73.70 759.20,70.82 759.77,67.73 760.00,64.62 759.80,61.64 758.87,57.91 757.29,54.34 755.18,51.02 752.26,47.71 748.74,44.69 744.97,42.40 741.28,41.02 737.36,40.26 733.34,40.00 727.21,40.51 720.00,42.40 671.42,63.93 659.91,69.01 649.08,73.75 624.36,83.09"
        fill="none"
        stroke="#e94560"
        stroke-width="8.0"
        stroke-linejoin="round"
        stroke-linecap="round"/>
  <!-- Start/finish line -->
  <line x1="631.42" y1="101.80" x2="617.29" y2="64.38"
        stroke="#f5f5f5" stroke-width="9.6"
        stroke-linecap="round"/>
</svg>
