<?xml version="1.0" encoding="utf-8"?>
<svg xmlns="http://www.w3.org/2000/svg"
     width="800.0" height="732.4"
     viewBox="0 0 800.0 732.4">
  <rect width="100%" height="100%" fill="#1a1a2e"/>
  <!-- Track outline -->
  <polyline points="727.98,437.50 698.25,602.90 695.43,622.96 693.07,640.48 688.35,655.20 681.62,667.53 672.82,677.79 662.57,684.36 651.75,688.18 641.22,690.99 630.65,692.37 620.30,692.00 610.01,689.88 599.41,685.42 589.33,679.40 573.31,665.83 556.61,649.50 536.18,632.89 517.55,622.59 496.48,614.68 485.07,611.92 473.44,610.31 461.71,610.22 450.02,611.37 427.62,616.66 381.72,633.12 369.28,635.70 357.87,636.62 346.46,636.21 335.36,634.09 324.97,630.04 315.25,624.20 309.40,619.33 303.94,613.71 299.15,607.32 293.66,595.96 289.25,583.95 282.77,564.27 276.71,552.77 269.03,542.42 262.76,536.85 255.75,532.35 248.46,528.80 240.71,526.23 232.61,524.71 224.58,524.25 216.69,524.89 208.83,526.64 201.26,529.31 193.97,532.85 186.96,537.36 180.86,542.74 176.32,548.26 172.52,554.52 169.84,561.14 168.43,567.95 168.04,575.12 168.82,582.16 173.57,593.80 180.23,604.70 186.64,613.12 192.35,621.81 194.46,627.42 196.19,633.63 197.21,639.93 197.21,645.77 196.12,651.02 194.11,656.17 191.40,660.86 188.19,664.77 183.51,668.31 177.84,670.98 171.78,672.77 165.93,673.69 158.67,673.37 151.42,671.58 144.34,668.91 133.73,663.16 123.94,655.85 109.43,640.21 95.16,622.09 71.77,581.52 62.86,560.45 55.32,537.31 50.11,512.20 43.56,457.51 40.32,303.84 40.00,125.55 41.94,103.06 44.86,89.95 49.26,77.35 53.14,69.85 57.68,62.91 62.86,56.83 68.81,51.59 75.40,47.27 82.38,43.91 90.20,41.47 98.40,40.18 106.61,40.00 114.75,41.01 122.88,43.17 130.77,46.26 141.38,52.10 153.25,61.39 239.13,152.55 257.27,174.82 271.60,199.98 281.19,225.32 284.14,237.51 285.91,249.74 286.22,261.70 285.41,273.43 280.90,294.59 273.30,318.97 272.03,326.24 271.29,333.41 271.75,340.36 273.12,345.78 275.27,351.17 278.09,356.13 281.43,360.18 285.20,363.03 289.64,365.24 294.50,366.85 299.43,367.82 304.08,368.23 309.19,367.95 314.19,366.85 319.26,364.87 324.51,361.88 335.36,351.26 346.77,337.09 357.98,326.14 366.22,321.73 374.32,319.15 382.25,318.05 389.43,318.19 396.44,319.57 403.10,322.05 409.33,325.45 415.18,329.92 420.18,335.25 423.95,341.09 426.95,347.72 428.92,354.66 429.73,361.75 429.55,369.15 428.39,376.28 426.00,383.36 422.54,390.17 418.42,396.43 410.14,405.35 400.53,413.22 389.12,420.25 377.70,427.57 367.84,436.40 359.49,446.65 355.58,453.83 352.45,461.56 350.47,469.47 349.73,477.29 350.05,485.29 351.35,492.97 353.89,500.65 357.55,507.97 362.03,514.50 367.77,520.43 374.46,525.40 381.61,529.40 389.64,532.48 398.20,534.37 406.90,535.24 420.82,534.32 434.31,531.33 444.95,527.70 454.85,522.73 464.22,516.34 472.74,508.61 479.78,500.10 485.77,490.58 490.42,480.60 493.84,470.02 495.85,459.49 496.73,447.76 493.98,403.05 494.47,389.39 496.45,377.11 499.05,369.29 502.54,361.88 506.73,355.31 511.87,349.56 517.76,344.63 524.03,340.86 530.76,338.15 537.84,336.59 544.88,336.22 551.78,337.09 558.69,339.16 565.14,342.29 571.09,346.34 576.62,351.30 581.27,357.19 584.76,363.72 587.40,371.08 589.09,378.72 589.79,386.31 589.51,394.22 588.17,403.23 576.16,436.63 563.69,470.11 561.33,483.45 561.23,495.18 562.39,502.72 564.54,509.95 567.67,516.57 571.37,521.77 575.91,526.60 581.02,530.78 586.27,533.86 591.98,535.89 598.07,536.99 604.27,537.08 610.22,536.16 616.00,534.05 621.71,530.78 627.10,526.83 631.78,522.50 636.18,517.17 639.85,511.23 643.02,504.89 646.79,494.72 649.57,483.91 652.92,460.73 649.99,343.16 632.77,242.11 632.24,230.38 633.15,220.44 636.25,207.29 641.36,194.69 646.12,187.14 651.75,180.34 657.95,174.40 664.82,169.30 672.22,165.16 679.90,162.12 687.93,160.19 696.21,159.36 704.38,159.73 712.38,161.34 720.27,164.10 727.66,168.01 734.39,172.93 740.63,178.96 746.05,185.85 752.46,197.95 756.94,211.01 758.91,222.10 759.75,233.28 760.00,256.97 741.33,363.22 727.98,437.50"
        fill="none"
        stroke="#e94560"
        stroke-width="8.0"
        stroke-linejoin="round"
        stroke-linecap="round"/>
  <!-- Start/finish line -->
  <line x1="747.67" y1="441.04" x2="708.30" y2="433.96"
        stroke="#f5f5f5" stroke-width="9.6"
        stroke-linecap="round"/>
</svg>
