<?xml version="1.0" encoding="utf-8"?>
<svg xmlns="http://www.w3.org/2000/svg"
     width="799.8" height="800.0"
     viewBox="0 0 799.8 800.0">
  <rect width="100%" height="100%" fill="#1a1a2e"/>
  <!-- Track outline -->
  <polyline points="441.38,165.11 679.95,382.32 734.59,435.33 741.96,443.76 748.42,453.08 753.68,463.33 757.44,474.45 759.50,486.43 759.81,495.87 756.11,523.29 753.40,533.85 749.73,544.55 736.47,572.11 720.25,598.03 687.08,641.11 640.21,694.11 606.69,725.48 589.16,739.21 580.08,745.12 570.73,750.12 561.14,754.19 551.45,757.22 541.64,759.18 531.68,760.00 521.99,759.72 512.65,758.22 503.64,755.55 485.85,748.22 459.27,733.16 422.85,706.55 413.47,698.78 353.73,645.09 93.89,401.29 67.70,372.77 60.23,363.21 53.57,353.31 47.86,342.90 43.48,331.80 40.88,320.50 40.00,309.14 40.62,297.72 43.02,286.38 47.19,275.19 51.42,266.93 62.29,250.77 75.94,235.72 83.24,228.99 90.84,222.98 98.74,217.77 107.02,213.56 118.45,209.64 130.44,207.51 139.65,207.15 148.96,207.96 158.20,209.96 167.25,213.04 176.07,217.15 184.48,222.14 192.48,228.11 200.03,235.20 207.00,243.07 213.42,251.67 219.28,260.94 264.88,349.53 320.65,431.78 389.21,506.24 437.68,546.55 447.30,552.56 457.19,557.49 467.37,560.99 477.59,562.96 487.73,563.32 497.56,562.22 507.10,559.77 516.42,556.65 525.32,552.22 541.75,540.24 549.27,532.97 568.54,506.62 573.47,496.63 577.00,486.37 579.74,475.99 580.78,465.62 580.28,455.40 578.42,445.44 575.09,436.01 571.05,426.83 565.79,418.22 552.45,402.69 548.74,399.29 544.45,396.20 516.02,381.94 461.55,360.53 439.11,348.29 407.10,325.77 375.88,298.70 346.14,267.31 301.07,210.46 242.80,130.91 236.77,121.31 231.71,111.34 228.10,100.98 226.99,95.75 226.34,90.48 226.19,85.27 226.50,80.11 227.27,75.14 228.49,70.29 230.21,65.64 232.38,61.19 234.98,57.03 238.00,53.18 241.49,49.76 245.36,46.79 249.51,44.33 253.92,42.40 258.56,41.06 263.34,40.26 268.24,40.00 273.21,40.22 283.40,42.10 293.83,45.59 312.65,54.62 328.99,65.66 380.47,109.63 441.38,165.11"
        fill="none"
        stroke="#e94560"
        stroke-width="8.0"
        stroke-linejoin="round"
        stroke-linecap="round"/>
  <!-- Start/finish line -->
  <line x1="454.85" y1="150.32" x2="427.92" y2="179.89"
        stroke="#f5f5f5" stroke-width="9.6"
        stroke-linecap="round"/>
</svg>
