<?xml version="1.0" encoding="utf-8"?>
<svg xmlns="http://www.w3.org/2000/svg"
     width="664.4" height="800.0"
     viewBox="0 0 664.4 800.0">
  <rect width="100%" height="100%" fill="#1a1a2e"/>
  <!-- Track outline -->
  <polyline points="504.35,361.48 503.89,362.18 399.08,528.89 338.49,627.55 302.74,686.43 291.05,704.80 282.83,714.96 279.38,718.35 275.86,721.22 272.19,723.62 268.39,725.56 264.53,727.03 260.61,728.09 256.73,728.80 252.83,729.08 249.24,728.86 245.00,728.19 213.18,720.92 207.70,720.43 202.79,720.61 196.45,721.52 189.99,723.23 183.92,725.75 177.36,729.24 150.55,746.09 136.31,753.08 125.10,757.19 114.18,759.60 103.65,760.00 93.62,758.70 88.74,757.40 83.95,755.66 79.27,753.45 74.73,750.80 66.24,744.26 58.73,736.44 52.40,727.24 47.35,716.79 43.48,705.25 40.93,692.73 40.00,679.38 40.41,665.36 42.95,647.31 47.29,628.92 52.22,613.99 58.92,598.71 73.57,571.86 97.32,533.43 114.79,507.01 126.28,491.26 133.92,483.32 145.18,474.67 149.92,471.78 154.11,469.68 156.05,468.98 157.82,468.60 159.66,468.38 161.67,468.40 165.39,468.92 169.23,469.81 171.92,470.71 174.30,471.76 175.90,472.66 177.44,473.77 179.73,475.79 182.14,478.33 188.03,486.41 192.34,494.76 195.51,504.27 197.33,514.78 197.56,526.03 196.15,537.85 193.02,550.00 188.22,562.36 181.89,574.69 171.95,589.86 143.77,628.80 135.01,645.42 133.35,650.21 132.37,654.60 132.02,658.03 132.14,661.27 132.72,664.28 133.71,667.06 135.15,669.55 136.95,671.74 139.17,673.72 141.75,675.38 145.61,677.15 149.76,678.43 153.48,679.05 157.55,679.13 164.95,678.27 173.68,676.28 204.36,664.58 236.10,647.03 262.26,628.30 292.53,601.04 307.96,582.27 313.77,573.52 318.44,565.01 320.79,559.15 322.31,553.57 322.96,549.01 323.05,544.44 322.49,538.86 321.34,533.45 319.97,529.39 318.07,525.48 314.45,520.00 309.61,513.97 285.81,488.85 277.64,478.18 266.80,459.93 256.75,439.71 244.96,410.52 239.40,393.79 236.88,381.51 235.79,369.79 236.35,358.85 238.58,348.83 242.43,339.42 247.98,330.43 255.30,321.84 264.23,313.63 274.53,306.06 292.36,295.74 326.76,278.53 428.00,231.57 489.21,201.89 535.07,177.76 541.48,173.25 546.25,169.07 549.06,166.02 551.34,162.88 553.20,159.69 554.63,156.33 555.53,153.01 555.96,149.63 555.84,146.27 555.21,142.99 554.00,139.76 552.32,136.76 550.13,133.89 547.48,131.27 543.60,128.33 539.10,125.77 532.94,123.29 526.22,121.46 518.60,120.32 510.92,119.96 504.09,120.31 497.38,121.33 490.55,123.00 483.63,125.46 467.35,134.20 441.94,152.38 430.44,158.94 421.92,162.22 418.04,163.12 414.24,163.65 410.67,163.87 407.31,163.76 404.76,163.37 402.47,162.75 400.94,162.11 399.48,161.27 397.47,159.80 395.42,157.91 393.02,155.07 390.88,151.91 389.52,149.27 388.45,146.41 387.44,142.47 386.79,138.24 386.58,133.87 386.80,129.46 387.48,124.92 388.59,120.43 390.20,115.85 392.23,111.40 397.72,102.49 406.79,91.56 420.21,78.15 438.73,62.41 449.82,54.78 463.41,47.41 474.11,43.16 484.71,40.69 495.34,40.00 506.40,41.00 517.95,43.66 529.94,48.14 548.47,57.30 570.70,71.21 591.87,85.76 601.60,94.23 609.60,103.04 615.88,112.19 620.36,121.68 623.38,131.62 624.38,139.47 623.87,150.54 621.89,162.08 618.26,174.17 611.45,190.27 602.85,206.75 577.23,247.73 535.74,312.64 504.35,361.48"
        fill="none"
        stroke="#e94560"
        stroke-width="8.0"
        stroke-linejoin="round"
        stroke-linecap="round"/>
  <!-- Start/finish line -->
  <line x1="521.17" y1="372.30" x2="487.52" y2="350.67"
        stroke="#f5f5f5" stroke-width="9.6"
        stroke-linecap="round"/>
</svg>
