<?xml version="1.0" encoding="utf-8"?>
<svg xmlns="http://www.w3.org/2000/svg"
     width="800.0" height="649.5"
     viewBox="0 0 800.0 649.5">
  <rect width="100%" height="100%" fill="#1a1a2e"/>
  <!-- Track outline -->
  <polyline points="568.71,363.72 566.44,363.45 563.59,362.93 550.51,359.24 545.85,357.10 541.55,354.52 537.62,351.56 533.97,348.16 530.75,344.52 527.81,340.32 524.85,334.82 522.29,328.70 518.81,315.40 515.44,284.18 507.84,212.13 508.28,195.17 509.38,188.72 511.00,182.73 513.21,176.87 515.90,171.37 519.15,166.02 522.82,161.07 526.96,156.42 531.59,152.10 544.74,142.83 574.19,125.09 582.08,118.09 588.83,110.31 595.11,100.99 600.60,90.60 605.47,78.69 608.94,67.38 609.95,61.84 610.19,56.98 609.85,53.40 609.01,50.22 608.17,48.34 607.11,46.64 605.92,45.17 604.53,43.91 602.98,42.91 601.25,42.06 598.58,41.10 595.59,40.38 592.64,40.02 590.06,40.00 587.51,40.29 584.92,40.93 580.61,42.64 575.86,45.64 564.98,56.17 554.12,67.59 544.52,76.31 539.62,79.62 534.50,82.38 522.38,86.84 502.89,90.56 481.09,95.40 464.66,102.16 449.65,109.94 437.70,116.87 428.11,123.52 424.86,126.41 422.40,129.40 420.44,132.62 419.04,136.16 418.57,138.54 418.39,141.03 418.49,143.45 418.96,145.81 419.74,148.10 420.72,150.23 421.90,152.21 423.33,154.00 425.18,155.79 434.14,161.13 443.79,166.05 451.77,170.99 454.99,173.90 457.82,177.27 460.02,180.89 461.73,184.89 462.85,189.05 463.41,193.40 463.33,197.87 462.68,202.32 461.38,206.88 459.54,211.23 457.02,215.68 454.04,219.83 450.38,223.99 446.33,227.78 436.57,234.72 421.70,242.00 393.04,251.80 321.44,276.76 266.61,302.31 186.92,349.17 50.42,438.69 46.47,442.18 44.04,445.08 42.38,447.60 41.15,450.25 40.37,452.90 40.00,455.63 40.10,458.31 40.60,460.90 41.53,463.36 42.88,465.65 45.21,468.37 48.11,470.79 52.26,473.28 57.24,475.20 65.75,476.71 76.47,477.60 135.14,480.63 209.58,484.71 222.33,483.63 232.95,481.44 241.84,478.61 250.28,474.68 258.81,469.15 267.32,462.39 286.91,443.61 301.84,432.98 310.04,428.54 317.94,425.11 323.22,423.46 328.01,422.63 331.69,422.62 335.13,423.23 337.24,423.93 339.28,424.89 341.18,426.09 343.67,428.19 345.83,430.78 347.50,433.63 348.74,436.95 349.53,441.06 349.77,446.15 348.04,461.51 346.34,477.19 346.69,483.26 347.69,488.21 349.07,491.94 350.90,495.13 353.36,498.04 356.19,500.50 359.55,502.70 363.15,504.39 367.03,505.58 371.16,506.15 376.14,506.07 381.93,504.99 395.90,499.63 410.52,492.64 419.68,487.84 427.04,483.10 430.10,480.45 432.39,477.57 433.48,475.58 434.35,473.40 434.91,471.18 435.13,469.06 435.08,466.88 434.81,464.70 433.84,460.99 432.11,457.02 425.88,448.04 419.46,438.98 417.33,434.70 415.91,430.56 415.02,426.19 414.73,421.75 415.15,417.40 416.17,413.22 417.88,409.15 420.09,405.39 422.96,401.72 426.23,398.47 430.04,395.47 434.13,393.00 438.56,391.14 443.17,389.89 448.03,389.19 452.98,389.06 458.17,389.40 463.35,390.32 468.13,391.76 473.27,394.00 483.51,400.40 490.92,405.50 494.66,407.48 500.36,409.24 507.07,410.23 512.58,410.72 522.18,410.52 558.33,405.64 582.52,404.73 601.95,406.18 607.35,407.24 612.19,408.74 616.50,410.61 620.49,412.98 623.84,415.70 626.82,418.95 629.18,422.50 631.05,426.49 632.29,430.79 632.96,435.36 632.96,439.94 632.49,445.18 628.71,471.18 628.89,476.70 629.72,481.24 630.54,483.52 631.57,485.54 632.77,487.30 634.19,488.85 635.78,490.14 637.46,491.14 639.28,491.87 641.20,492.27 643.24,492.41 647.04,491.96 651.35,490.78 659.23,487.59 667.30,484.33 672.36,483.02 677.15,482.31 682.06,482.13 686.90,482.57 691.41,483.69 695.73,485.44 699.63,487.67 703.19,490.50 706.08,493.61 708.48,497.23 710.10,500.99 711.14,505.07 711.46,509.26 711.20,513.53 710.31,517.98 708.89,522.32 706.81,526.87 704.25,531.16 700.98,535.54 697.29,539.56 692.92,543.53 688.18,547.06 682.76,550.35 677.01,553.13 670.63,555.51 664.00,557.31 649.58,559.26 634.34,558.74 614.32,555.76 594.96,553.40 588.50,553.78 583.44,554.87 580.50,556.01 577.94,557.51 575.67,559.23 573.61,561.42 572.22,563.42 570.94,565.70 569.95,568.16 569.32,570.65 568.96,573.29 568.89,575.93 569.44,580.01 570.62,583.93 572.53,587.74 575.07,591.20 579.13,595.16 584.01,598.62 591.00,602.14 598.95,604.93 609.85,607.41 621.65,608.91 635.35,609.49 649.26,608.84 662.33,606.89 674.89,603.76 685.61,599.89 695.89,595.03 705.93,589.21 715.53,582.43 724.14,575.10 732.08,566.92 738.80,558.38 744.77,549.09 749.78,539.45 753.93,529.21 756.97,518.83 759.02,508.09 760.00,497.27 759.97,486.34 758.91,475.34 756.85,464.52 753.71,453.70 749.62,443.35 744.41,433.20 738.34,423.79 731.13,414.89 723.19,406.94 714.38,399.77 704.76,393.49 692.39,387.08 679.16,381.70 650.08,374.06 597.79,367.35 568.71,363.72"
        fill="none"
        stroke="#e94560"
        stroke-width="8.0"
        stroke-linejoin="round"
        stroke-linecap="round"/>
  <!-- Start/finish line -->
  <line x1="566.24" y1="383.57" x2="571.18" y2="343.88"
        stroke="#f5f5f5" stroke-width="9.6"
        stroke-linecap="round"/>
</svg>
