<?xml version="1.0" encoding="utf-8"?>
<svg xmlns="http://www.w3.org/2000/svg"
     width="582.0" height="800.0"
     viewBox="0 0 582.0 800.0">
  <rect width="100%" height="100%" fill="#1a1a2e"/>
  <!-- Track outline -->
  <polyline points="216.71,686.48 122.97,751.56 112.96,756.62 101.90,759.60 92.46,760.00 82.75,758.34 73.90,755.74 66.22,751.58 59.17,746.63 53.20,740.59 46.63,731.94 42.46,723.56 40.00,715.52 40.05,707.27 42.47,695.92 93.53,449.37 97.14,436.46 103.18,427.16 112.00,418.71 140.28,396.48 164.67,378.65 178.88,367.70 190.80,356.06 200.34,344.23 211.69,321.72 219.79,292.42 239.63,203.89 248.78,170.41 265.29,138.09 284.54,110.02 310.57,81.02 331.67,62.97 342.20,55.97 352.93,50.17 363.54,45.82 374.21,42.68 384.55,40.72 394.77,40.00 404.49,40.68 413.84,42.68 422.26,45.84 430.08,50.25 436.81,55.73 442.71,62.31 447.45,69.70 451.11,77.88 453.38,86.61 454.48,95.83 454.31,105.86 453.00,116.56 445.46,147.54 431.51,183.58 408.10,230.35 320.93,378.33 317.55,388.69 316.21,400.36 317.75,408.92 320.89,416.41 325.70,422.39 332.98,428.64 342.03,432.92 351.67,435.24 362.18,435.44 371.02,433.72 382.57,429.76 476.49,392.88 484.97,390.09 494.63,389.37 503.05,390.67 511.41,393.16 519.39,398.52 525.35,403.48 530.60,409.53 534.43,414.77 537.48,421.43 540.06,428.70 541.23,435.16 542.00,441.90 541.18,449.71 537.61,456.47 532.66,463.32 527.61,468.76 519.11,475.94 505.35,486.11 216.71,686.48"
        fill="none"
        stroke="#e94560"
        stroke-width="8.0"
        stroke-linejoin="round"
        stroke-linecap="round"/>
  <!-- Start/finish line -->
  <line x1="228.12" y1="702.91" x2="205.31" y2="670.05"
        stroke="#f5f5f5" stroke-width="9.6"
        stroke-linecap="round"/>
</svg>
