<?xml version="1.0" encoding="utf-8"?>
<svg xmlns="http://www.w3.org/2000/svg"
     width="800.0" height="718.8"
     viewBox="0 0 800.0 718.8">
  <rect width="100%" height="100%" fill="#1a1a2e"/>
  <!-- Track outline -->
  <polyline points="399.17,57.68 680.54,107.20 696.52,112.66 708.08,119.29 721.60,130.67 733.76,144.71 743.66,160.31 751.56,176.94 757.24,195.01 760.00,214.51 759.70,233.68 757.54,248.89 751.46,269.89 736.53,297.90 685.56,374.59 664.80,403.26 648.82,428.47 642.79,444.53 639.77,460.32 639.52,477.29 641.78,494.25 646.11,510.63 652.69,525.84 662.44,539.03 673.70,550.86 686.12,561.32 697.47,572.50 702.90,581.34 707.28,591.09 709.69,601.17 709.99,608.90 709.19,617.02 707.43,624.95 704.81,632.36 699.13,642.18 691.59,651.15 683.45,658.82 675.21,664.99 666.36,669.99 657.11,673.83 641.83,677.53 626.00,678.77 609.57,678.05 593.18,674.93 577.20,669.15 561.92,660.90 547.79,650.50 535.28,638.21 526.48,626.06 519.35,612.86 513.77,598.83 509.55,584.07 505.22,553.72 504.87,521.94 509.34,489.76 519.20,458.05 525.83,443.23 533.62,429.32 542.72,416.25 552.92,404.36 577.20,383.76 604.29,366.34 628.87,347.49 639.02,336.12 647.56,323.31 653.90,309.47 658.12,294.71 659.78,279.83 659.33,264.82 656.76,249.93 652.29,235.57 645.60,221.60 637.31,208.73 627.26,196.57 615.95,185.78 602.88,176.23 588.86,168.30 574.74,162.00 557.24,156.34 416.11,127.16 364.99,116.17 322.67,111.49 313.52,112.66 305.48,114.61 298.45,117.67 292.21,122.02 287.99,126.25 284.07,131.32 280.70,136.91 278.19,142.76 276.83,148.61 277.03,155.89 278.79,163.56 281.66,171.09 285.08,177.98 291.46,187.08 299.50,195.21 308.05,202.03 320.66,209.05 336.09,214.77 383.49,227.12 430.13,241.16 438.17,245.19 445.11,249.28 450.79,253.83 455.26,259.62 457.78,264.88 459.79,270.99 461.04,277.43 461.45,283.80 460.89,289.58 458.23,296.60 453.70,303.23 448.13,309.34 442.25,314.54 432.75,320.58 422.04,325.00 411.18,327.99 396.66,329.36 379.32,328.32 316.64,318.83 253.31,310.25 234.36,310.70 218.48,313.56 202.55,318.83 187.67,326.69 174.70,336.83 163.39,349.25 157.21,358.47 151.93,368.61 147.96,379.40 145.50,390.91 144.34,403.06 144.49,414.70 146.91,429.71 151.63,443.75 159.02,457.59 168.42,470.14 180.18,481.83 193.40,491.39 208.23,498.60 223.91,503.15 239.34,504.91 257.13,503.93 287.09,496.52 322.37,485.60 352.13,480.34 361.83,481.05 370.37,482.74 377.91,485.67 384.44,490.15 388.67,494.57 392.54,499.90 395.80,505.88 398.17,512.12 399.37,518.23 398.97,526.10 396.91,534.42 393.69,542.47 389.87,549.69 383.49,558.01 375.70,565.03 367.20,570.94 352.73,577.83 335.99,582.71 274.02,591.68 239.04,592.65 208.28,590.31 177.67,584.40 162.74,579.52 148.16,573.28 134.19,565.35 120.82,555.99 96.54,533.57 75.64,506.73 58.55,475.21 45.63,440.63 41.91,423.73 40.00,406.77 40.15,390.45 42.21,374.59 46.43,359.38 52.52,345.28 60.21,333.13 70.31,321.23 95.09,299.59 120.62,277.88 133.19,265.21 142.99,252.01 149.52,236.87 153.64,220.62 155.25,204.57 154.80,188.45 151.93,172.78 148.57,157.19 146.40,141.46 146.10,125.79 147.76,115.39 150.68,105.12 154.70,95.57 160.33,86.41 167.21,78.02 174.80,70.55 188.37,60.54 203.35,52.61 220.39,46.24 237.78,42.01 252.66,40.19 269.04,40.00 341.02,47.47 399.17,57.68"
        fill="none"
        stroke="#e94560"
        stroke-width="8.0"
        stroke-linejoin="round"
        stroke-linecap="round"/>
  <!-- Start/finish line -->
  <line x1="402.64" y1="37.98" x2="395.71" y2="77.38"
        stroke="#f5f5f5" stroke-width="9.6"
        stroke-linecap="round"/>
</svg>
