<?xml version="1.0" encoding="utf-8"?>
<svg xmlns="http://www.w3.org/2000/svg"
     width="800.0" height="566.5"
     viewBox="0 0 800.0 566.5">
  <rect width="100%" height="100%" fill="#1a1a2e"/>
  <!-- Track outline -->
  <polyline points="483.46,443.19 273.39,364.41 267.10,361.30 259.94,357.10 254.28,352.67 250.05,348.21 243.26,338.88 240.81,334.30 231.57,309.79 228.92,304.98 226.49,301.43 223.93,298.57 220.90,296.03 216.31,293.36 189.01,282.86 151.45,260.59 105.70,239.52 93.57,232.16 82.46,224.14 74.77,217.44 68.40,210.03 63.02,202.49 58.57,195.19 51.45,181.05 48.56,173.95 46.06,166.06 42.37,149.87 40.48,135.75 40.00,123.65 40.56,116.65 42.05,105.40 46.37,88.56 52.65,74.18 60.06,62.42 63.94,57.34 69.26,52.14 74.89,47.77 80.56,44.76 86.96,42.48 92.16,41.14 97.21,40.28 104.12,40.00 112.80,40.82 118.91,42.57 129.48,47.38 133.38,49.77 137.97,53.23 145.11,60.34 157.82,77.31 163.85,88.21 170.20,101.91 184.56,136.56 203.41,169.03 213.56,187.22 218.46,198.46 233.07,221.49 242.50,232.57 253.29,242.03 265.87,251.02 279.35,257.81 292.42,263.01 308.75,268.08 370.85,283.18 392.06,285.19 417.84,286.46 439.72,286.38 513.14,281.39 523.32,281.18 541.22,282.84 547.30,283.97 566.34,289.67 570.70,291.55 587.52,302.97 599.05,309.35 609.31,314.10 612.53,314.97 615.31,315.38 621.01,315.96 626.46,315.76 631.97,315.13 635.15,314.39 638.24,313.34 642.63,311.69 647.97,308.94 667.85,293.61 686.73,278.72 692.85,275.62 698.09,273.60 702.79,272.30 709.04,271.40 715.86,271.02 721.02,271.49 725.51,272.33 729.84,273.59 734.17,275.50 738.36,277.88 742.88,281.15 746.85,284.61 750.35,288.39 753.93,294.10 756.38,298.85 758.12,303.91 759.33,309.35 760.00,319.00 759.66,324.72 758.65,329.91 757.24,334.44 755.05,339.71 751.99,345.15 748.62,349.97 744.88,353.92 736.50,360.97 732.41,363.63 726.66,366.53 719.19,369.18 711.98,370.44 695.15,371.38 629.10,372.98 620.60,372.46 612.82,371.36 604.38,369.67 594.40,367.22 343.36,302.95 329.97,301.03 327.31,301.06 324.76,301.37 319.97,302.26 315.37,303.47 313.28,304.29 311.46,305.23 309.71,306.33 308.08,307.58 306.68,308.89 305.37,310.41 303.90,312.53 302.60,314.83 301.71,316.86 301.06,318.93 300.71,320.88 300.65,322.93 301.09,325.79 301.93,328.63 302.91,330.83 304.16,332.89 308.47,337.74 313.76,342.79 316.12,344.55 319.20,346.35 359.59,363.48 513.19,413.54 534.80,416.22 598.36,422.38 611.03,424.95 629.36,430.88 692.47,452.51 708.48,461.12 712.80,464.37 722.81,473.39 727.33,478.30 730.82,483.64 733.32,488.37 734.24,490.78 734.96,493.34 735.49,496.45 735.73,499.58 735.35,504.41 734.30,509.85 732.43,515.04 731.39,517.25 730.18,519.25 728.73,520.91 727.07,522.29 725.15,523.36 723.10,524.21 718.63,525.64 715.53,526.20 712.26,526.50 705.71,526.19 699.04,525.07 692.07,523.20 683.22,520.38 674.96,517.16 508.43,452.82 484.49,443.57 483.46,443.19"
        fill="none"
        stroke="#e94560"
        stroke-width="8.0"
        stroke-linejoin="round"
        stroke-linecap="round"/>
  <!-- Start/finish line -->
  <line x1="476.44" y1="461.92" x2="490.49" y2="424.46"
        stroke="#f5f5f5" stroke-width="9.6"
        stroke-linecap="round"/>
</svg>
