<?xml version="1.0" encoding="utf-8"?>
<svg xmlns="http://www.w3.org/2000/svg"
     width="607.1" height="800.0"
     viewBox="0 0 607.1 800.0">
  <rect width="100%" height="100%" fill="#1a1a2e"/>
  <!-- Track outline -->
  <polyline points="144.89,470.56 143.36,466.62 55.22,251.07 42.30,212.83 40.02,199.81 40.00,185.88 43.76,158.07 53.40,105.06 60.19,75.82 61.89,71.59 63.82,68.24 66.25,65.05 69.11,62.25 72.25,60.02 76.38,57.78 112.47,42.46 117.40,40.85 121.38,40.06 123.30,40.00 125.17,40.16 126.83,40.56 128.40,41.19 129.81,42.02 131.09,43.05 132.22,44.28 133.17,45.67 133.90,47.12 134.41,48.74 134.70,51.07 134.64,53.55 134.23,55.76 133.32,58.37 120.57,82.64 88.62,138.50 80.73,155.48 79.29,160.77 78.64,165.96 78.73,172.04 79.69,178.72 86.80,202.04 142.67,370.24 146.25,377.62 150.18,383.73 155.69,390.32 162.06,396.32 169.34,401.62 176.99,406.01 183.64,408.98 190.50,411.17 198.24,412.74 206.41,413.44 215.93,413.10 225.76,411.67 236.82,408.79 247.20,405.05 254.00,401.91 259.94,398.35 264.79,394.58 268.99,390.38 272.33,386.01 275.10,381.14 277.67,374.72 279.46,368.02 280.24,362.29 280.29,356.63 279.63,350.81 278.25,345.12 276.22,339.92 273.35,334.62 260.59,317.64 251.93,304.88 249.20,299.44 247.03,293.83 243.78,280.46 242.79,268.20 243.13,261.74 244.04,255.26 247.70,242.30 256.21,223.36 283.22,170.21 284.79,168.23 286.20,166.92 288.01,165.44 289.92,164.21 291.66,163.43 293.45,162.91 295.27,162.64 297.11,162.62 298.96,162.83 300.82,163.29 302.98,164.20 305.05,165.39 308.25,168.04 440.40,304.54 541.79,407.54 563.12,429.82 564.88,432.32 565.96,434.38 566.56,435.94 566.92,437.49 567.11,439.24 567.10,441.04 566.79,442.98 566.32,444.76 566.02,445.68 565.57,446.58 563.99,448.81 562.05,450.97 560.67,451.99 559.23,452.81 555.69,454.46 539.50,459.99 521.91,463.43 504.84,464.94 489.04,464.25 482.49,463.14 476.28,461.49 470.52,459.36 465.10,456.74 460.35,453.87 455.91,450.56 451.67,446.67 447.53,442.08 436.21,425.93 327.02,249.98 324.19,246.86 322.11,245.19 320.92,244.38 319.77,243.79 318.47,243.26 317.02,242.84 314.67,242.40 312.10,242.25 309.27,242.63 306.58,243.34 304.80,244.01 303.16,244.84 299.76,247.11 296.76,249.86 295.62,251.17 294.58,252.63 293.33,254.92 292.38,257.08 291.96,258.57 291.50,261.67 291.57,265.06 292.22,268.54 293.65,272.41 295.79,276.26 299.08,280.42 303.36,284.83 323.03,302.68 334.16,315.51 342.34,328.30 369.20,379.53 371.87,386.02 373.50,391.39 374.38,396.00 374.67,400.37 374.10,405.85 373.57,407.77 369.45,416.76 359.59,436.17 357.56,442.19 356.38,447.85 355.95,453.03 356.27,458.20 357.66,464.06 359.91,469.84 362.92,475.31 366.77,480.57 372.38,486.53 379.25,492.44 402.97,508.00 435.78,523.01 487.49,545.33 491.32,547.49 493.40,549.08 495.24,550.82 496.33,552.23 497.18,553.72 497.89,555.47 498.38,557.32 498.64,559.22 498.67,561.15 498.46,563.10 498.00,565.01 497.27,566.81 496.28,568.53 494.87,570.31 493.26,571.88 492.09,572.77 490.34,573.73 406.74,607.28 344.23,633.14 337.65,637.11 333.05,640.79 327.01,646.88 325.34,649.30 319.52,660.51 313.24,675.21 284.55,747.94 282.22,752.51 280.95,754.34 279.54,755.94 278.04,757.21 276.42,758.25 274.70,759.03 272.89,759.59 270.90,759.92 268.89,760.00 267.02,759.86 265.23,759.49 263.62,758.98 262.07,758.18 260.07,756.55 258.30,754.63 257.32,753.11 256.51,751.49 254.40,746.61 200.82,610.45 144.89,470.56"
        fill="none"
        stroke="#e94560"
        stroke-width="8.0"
        stroke-linejoin="round"
        stroke-linecap="round"/>
  <!-- Start/finish line -->
  <line x1="126.32" y1="477.98" x2="163.46" y2="463.14"
        stroke="#f5f5f5" stroke-width="9.6"
        stroke-linecap="round"/>
</svg>
