<?xml version="1.0" encoding="utf-8"?>
<svg xmlns="http://www.w3.org/2000/svg"
     width="484.8" height="800.0"
     viewBox="0 0 484.8 800.0">
  <rect width="100%" height="100%" fill="#1a1a2e"/>
  <!-- Track outline -->
  <polyline points="66.44,351.72 76.99,200.70 76.99,188.49 75.74,177.50 71.65,164.02 66.02,150.87 57.56,138.01 50.33,127.67 43.44,113.25 40.62,100.07 40.00,88.15 43.75,72.79 51.24,59.50 63.56,48.78 81.60,41.05 103.77,40.00 120.28,47.24 131.10,56.50 139.88,73.52 145.03,93.64 157.40,162.18 162.55,177.15 170.28,194.67 179.57,210.12 201.74,226.11 244.00,251.36 257.92,263.76 271.85,281.80 417.64,482.74 427.83,499.24 440.45,517.20 444.82,534.67 444.34,549.23 439.97,565.73 432.68,577.37 422.97,584.18 411.34,591.93 395.81,593.88 381.25,592.90 364.26,587.07 352.11,577.86 338.06,565.25 275.46,457.03 204.11,331.82 195.37,316.78 185.67,306.57 177.89,302.70 166.74,301.25 157.52,304.16 149.74,313.37 145.88,329.39 142.96,430.34 143.92,449.73 146.22,469.13 157.82,488.00 176.69,509.02 326.00,668.20 341.02,683.22 352.60,699.50 355.18,712.82 353.46,728.27 346.60,739.85 336.29,749.28 323.00,757.43 307.55,760.00 290.82,757.87 274.51,749.28 217.02,690.94 201.57,673.33 190.00,659.18 178.84,636.44 171.11,615.43 163.82,600.84 153.09,592.69 140.66,588.82 102.20,589.42 89.33,587.88 78.00,583.88 66.34,575.62 58.69,566.11 54.70,553.85 52.85,540.67 54.70,519.52 66.44,351.72"
        fill="none"
        stroke="#e94560"
        stroke-width="8.0"
        stroke-linejoin="round"
        stroke-linecap="round"/>
  <!-- Start/finish line -->
  <line x1="46.49" y1="350.33" x2="86.39" y2="353.12"
        stroke="#f5f5f5" stroke-width="9.6"
        stroke-linecap="round"/>
</svg>
