<?xml version="1.0" encoding="utf-8"?>
<svg xmlns="http://www.w3.org/2000/svg"
     width="398.8" height="800.0"
     viewBox="0 0 398.8 800.0">
  <rect width="100%" height="100%" fill="#1a1a2e"/>
  <!-- Track outline -->
  <polyline points="58.45,601.76 60.15,597.39 106.52,473.68 125.44,423.83 135.24,402.84 149.58,378.36 166.38,356.14 178.07,339.67 180.77,333.79 182.57,327.50 183.35,318.21 183.37,308.29 183.14,289.55 185.86,269.17 192.58,243.79 220.09,167.19 229.60,145.60 241.57,124.82 276.47,74.58 290.04,57.85 295.97,52.13 301.89,47.45 307.35,44.08 312.73,41.67 317.31,40.45 321.83,40.00 326.38,40.26 330.89,41.21 335.29,42.77 339.54,44.97 343.62,47.76 347.37,51.22 350.62,55.34 353.38,60.04 355.57,65.20 357.21,70.73 358.28,76.36 358.78,82.36 358.51,90.16 357.50,98.04 355.94,104.74 353.81,111.11 347.52,124.02 338.91,136.37 333.76,142.20 318.49,155.62 289.23,178.67 281.68,187.61 275.65,196.90 271.21,205.63 267.79,214.81 265.43,224.43 264.12,234.37 263.93,244.10 264.84,254.60 268.97,273.35 272.91,291.23 273.39,298.50 273.10,304.96 272.12,311.85 270.46,318.56 268.09,325.10 265.09,331.27 261.34,337.21 257.03,342.63 251.97,347.74 246.46,352.28 233.80,360.15 207.85,373.25 201.07,378.33 195.32,383.98 190.25,390.41 185.94,397.61 182.57,405.34 180.11,413.60 178.78,422.04 178.27,431.17 179.51,457.90 177.89,473.54 173.79,488.84 167.00,503.37 144.44,539.59 138.07,554.48 133.36,569.39 130.33,583.03 128.60,597.60 129.82,642.02 138.66,719.17 138.38,726.60 137.35,732.32 135.73,737.32 133.54,741.83 130.62,746.18 127.20,750.00 123.18,753.39 118.79,756.11 113.87,758.13 108.73,759.40 103.35,760.00 97.89,759.89 92.36,759.09 86.89,757.58 81.48,755.31 76.21,752.37 71.10,748.79 66.21,744.58 61.58,739.73 57.28,734.32 49.71,721.83 44.05,707.63 40.80,692.06 40.00,675.58 42.29,654.11 49.16,627.85 58.45,601.76"
        fill="none"
        stroke="#e94560"
        stroke-width="8.0"
        stroke-linejoin="round"
        stroke-linecap="round"/>
  <!-- Start/finish line -->
  <line x1="39.64" y1="594.97" x2="77.26" y2="608.55"
        stroke="#f5f5f5" stroke-width="9.6"
        stroke-linecap="round"/>
</svg>
