<?xml version="1.0" encoding="utf-8"?>
<svg xmlns="http://www.w3.org/2000/svg"
     width="712.8" height="800.0"
     viewBox="0 0 712.8 800.0">
  <rect width="100%" height="100%" fill="#1a1a2e"/>
  <!-- Track outline -->
  <polyline points="333.65,167.63 335.58,165.80 419.44,105.77 487.53,58.63 506.00,48.81 515.56,45.27 525.26,42.58 534.72,40.75 544.12,40.00 553.27,40.61 562.21,42.44 570.85,45.37 579.00,49.39 586.57,54.58 593.45,60.74 599.69,67.90 605.17,75.82 609.50,83.24 613.96,93.37 667.45,268.25 671.04,284.55 672.83,308.69 671.93,320.69 669.84,332.55 666.25,344.51 661.79,355.65 653.89,370.23 643.88,383.84 632.21,396.63 604.74,420.27 456.16,518.82 405.17,546.65 373.17,557.86 349.77,562.48 327.94,563.59 290.58,558.90 282.05,558.15 274.17,558.22 267.52,559.08 260.69,560.59 254.37,562.95 248.92,566.24 243.95,570.40 239.62,575.09 234.47,583.47 230.47,592.79 224.25,613.35 215.72,648.70 211.97,658.66 207.54,667.58 194.90,685.03 179.71,701.86 148.86,729.44 123.76,747.21 105.49,755.70 96.80,758.39 88.08,759.86 82.30,760.00 76.51,759.50 70.93,758.24 65.40,756.10 60.05,753.16 55.21,749.65 50.83,745.53 46.96,740.80 43.90,735.64 41.71,729.95 40.33,723.82 40.00,717.70 40.82,711.39 42.73,705.09 45.55,699.28 49.63,693.87 54.70,688.93 60.13,684.78 67.90,680.69 76.97,677.18 116.04,662.60 125.29,657.48 133.01,651.79 140.04,644.98 146.03,637.28 150.77,628.79 154.18,619.69 155.91,610.20 156.50,600.45 155.56,580.04 156.98,558.58 159.28,547.73 162.46,537.44 165.85,529.56 169.90,522.26 174.46,515.49 180.15,508.57 192.17,496.07 206.67,483.28 241.48,460.61 259.01,451.15 276.54,443.56 294.66,437.72 313.72,433.74 333.87,432.70 376.66,435.57 421.71,432.10 443.67,427.37 507.22,401.11 527.35,389.68 543.79,378.44 552.07,371.52 558.95,364.47 565.45,356.59 571.18,348.17 576.10,339.28 580.15,330.01 583.21,320.23 585.30,310.20 586.39,300.81 586.55,289.64 577.98,205.74 570.01,171.89 566.01,161.79 561.01,153.01 556.78,147.68 551.97,142.81 546.72,138.65 541.09,135.28 535.05,132.60 528.83,130.77 522.41,129.84 515.81,129.80 509.31,130.52 500.52,132.92 490.10,137.76 433.10,172.61 377.70,210.69 368.43,218.32 361.80,225.23 355.66,233.11 350.87,241.53 348.68,247.19 347.12,253.03 346.46,258.79 346.74,264.27 347.86,269.68 349.85,274.88 353.27,280.54 357.80,285.87 362.97,290.32 368.94,293.68 375.56,296.16 382.08,297.41 387.72,297.37 393.25,296.41 398.62,294.69 406.50,290.60 414.60,284.62 429.76,269.68 444.79,254.82 452.39,249.16 459.78,245.15 465.08,243.14 470.56,241.71 476.08,241.06 481.72,241.28 487.40,242.32 492.75,244.11 497.74,246.72 502.38,250.09 506.41,254.07 509.80,258.76 512.52,264.06 514.48,269.65 515.66,275.88 515.99,282.47 515.45,289.06 512.60,299.67 508.22,309.70 503.88,317.11 498.81,323.84 485.95,336.96 469.56,349.21 450.45,360.60 430.37,369.19 419.87,372.31 409.15,374.46 398.32,375.53 387.46,375.53 376.78,374.42 366.29,372.31 346.54,365.15 328.78,355.51 313.16,343.55 299.58,330.40 288.29,316.11 283.88,308.55 280.34,300.63 277.94,292.47 276.47,284.08 275.75,275.70 275.78,267.28 277.89,250.63 282.53,234.65 289.33,219.57 297.79,205.42 311.63,188.41 333.65,167.63"
        fill="none"
        stroke="#e94560"
        stroke-width="8.0"
        stroke-linejoin="round"
        stroke-linecap="round"/>
  <!-- Start/finish line -->
  <line x1="319.92" y1="153.08" x2="347.37" y2="182.18"
        stroke="#f5f5f5" stroke-width="9.6"
        stroke-linecap="round"/>
</svg>
