<?xml version="1.0" encoding="utf-8"?>
<svg xmlns="http://www.w3.org/2000/svg"
     width="800.0" height="706.8"
     viewBox="0 0 800.0 706.8">
  <rect width="100%" height="100%" fill="#1a1a2e"/>
  <!-- Track outline -->
  <polyline points="731.39,335.62 728.10,343.81 645.69,516.35 608.15,579.03 589.27,602.21 569.75,621.56 551.66,635.65 532.97,646.82 512.66,655.80 491.69,662.15 469.89,665.88 447.93,666.82 426.49,665.08 404.69,660.52 379.15,651.78 353.68,639.67 330.08,625.13 307.84,607.47 288.73,587.87 270.29,563.90 221.12,476.95 49.03,137.51 42.44,117.96 40.00,102.23 40.13,91.06 41.62,80.00 44.28,70.27 47.92,62.78 52.61,56.48 57.87,51.26 64.11,46.90 71.02,43.77 78.08,41.89 85.56,41.24 93.23,41.89 100.77,43.72 108.27,46.70 115.66,50.92 122.94,56.57 134.63,68.44 147.18,86.80 225.37,268.77 328.72,489.36 339.99,505.39 350.32,515.76 358.34,522.31 366.77,527.67 375.26,531.64 383.49,534.02 391.79,535.06 399.87,534.62 405.51,533.38 411.09,531.34 416.44,528.61 421.32,525.09 426.83,519.58 431.78,512.98 435.80,505.44 438.84,497.55 441.00,488.81 441.91,478.49 436.85,442.91 426.90,400.53 398.89,286.59 388.09,207.04 388.12,181.93 390.72,158.01 397.43,128.09 406.62,100.79 414.70,84.56 423.73,71.96 429.53,66.15 435.61,61.69 441.95,58.36 446.98,56.62 452.21,55.53 457.47,55.19 462.63,55.53 467.64,56.57 472.65,58.36 477.46,60.79 481.93,63.92 487.12,68.73 491.81,74.59 495.71,81.69 499.07,91.26 501.45,102.28 502.40,113.69 499.92,132.40 494.92,153.49 475.21,240.34 473.57,269.57 475.18,294.93 478.44,310.11 483.58,322.82 488.30,330.46 493.94,337.06 500.08,342.57 507.31,347.23 515.16,350.56 523.18,352.64 531.61,353.38 540.26,352.74 548.81,350.85 557.43,347.68 565.98,343.21 574.41,337.16 589.08,322.57 602.22,304.65 611.25,287.23 617.81,268.13 621.42,248.63 622.60,225.45 615.78,159.55 609.83,96.72 610.81,85.36 612.62,76.43 615.47,68.49 619.62,61.04 624.78,54.69 630.48,49.53 637.04,45.41 644.20,42.58 651.81,40.84 661.28,40.00 671.32,40.50 681.08,42.48 690.17,45.76 699.04,50.42 707.25,56.43 717.51,67.10 726.96,81.14 739.91,106.90 750.81,136.62 756.96,164.56 760.00,193.09 760.00,220.98 757.21,249.02 743.49,304.75 731.39,335.62"
        fill="none"
        stroke="#e94560"
        stroke-width="8.0"
        stroke-linejoin="round"
        stroke-linecap="round"/>
  <!-- Start/finish line -->
  <line x1="750.00" y1="342.95" x2="712.79" y2="328.28"
        stroke="#f5f5f5" stroke-width="9.6"
        stroke-linecap="round"/>
</svg>
