<?xml version="1.0" encoding="utf-8"?>
<svg xmlns="http://www.w3.org/2000/svg"
     width="800.0" height="507.6"
     viewBox="0 0 800.0 507.6">
  <rect width="100%" height="100%" fill="#1a1a2e"/>
  <!-- Track outline -->
  <polyline points="431.85,278.95 727.35,386.37 754.79,397.24 757.67,398.76 759.67,401.17 760.00,403.25 759.50,406.07 758.01,410.14 754.93,416.09 751.13,421.81 745.73,428.20 738.03,436.24 730.96,442.90 723.52,448.85 705.43,458.02 692.23,461.54 674.38,464.16 655.49,465.67 631.71,467.01 578.97,467.58 556.69,466.04 540.43,463.64 528.94,460.58 510.30,453.86 493.49,446.47 476.41,436.28 455.23,420.42 430.56,400.30 410.57,386.62 366.81,360.06 344.75,348.49 300.58,329.48 263.91,312.86 235.82,297.20 205.75,279.72 191.02,270.68 183.98,266.06 179.28,262.32 175.53,256.68 172.39,250.62 170.12,244.61 168.48,238.16 167.12,221.85 165.76,196.78 163.77,188.11 161.07,180.56 158.22,174.92 154.89,170.03 150.96,165.59 146.61,161.80 141.92,158.68 136.79,156.20 130.11,153.96 122.76,152.50 113.53,151.86 103.23,152.28 85.82,155.35 69.85,158.08 64.64,157.95 60.39,157.18 57.06,156.10 54.01,154.60 51.28,152.81 48.72,150.52 46.01,147.19 43.66,143.28 41.91,139.05 40.70,134.50 40.05,129.68 40.00,124.55 40.76,118.05 42.34,110.86 50.95,86.16 57.46,73.03 61.56,66.88 66.10,61.23 71.25,56.02 76.55,51.57 80.94,48.55 85.35,46.09 89.92,44.01 94.80,42.36 101.37,40.91 108.31,40.08 115.43,40.00 122.59,40.60 129.81,41.86 136.97,43.77 144.03,46.34 150.94,49.57 164.11,58.01 176.24,68.95 190.02,85.63 202.25,104.80 217.31,135.36 231.67,163.04 247.22,184.08 269.99,205.63 301.13,226.79 347.73,248.38 431.85,278.95"
        fill="none"
        stroke="#e94560"
        stroke-width="8.0"
        stroke-linejoin="round"
        stroke-linecap="round"/>
  <!-- Start/finish line -->
  <line x1="438.68" y1="260.15" x2="425.02" y2="297.75"
        stroke="#f5f5f5" stroke-width="9.6"
        stroke-linecap="round"/>
</svg>
