<?xml version="1.0" encoding="utf-8"?>
<svg xmlns="http://www.w3.org/2000/svg"
     width="786.5" height="800.0"
     viewBox="0 0 786.5 800.0">
  <rect width="100%" height="100%" fill="#1a1a2e"/>
  <!-- Track outline -->
  <polyline points="90.12,521.32 63.87,471.76 49.43,436.16 44.32,417.41 40.97,398.39 40.00,379.67 41.66,361.72 44.07,350.82 47.44,340.15 51.65,330.73 56.76,322.24 62.49,315.05 69.99,308.23 94.72,293.21 122.16,276.23 139.75,267.52 148.96,264.52 158.34,262.48 167.80,261.33 177.26,261.18 186.44,262.03 195.32,264.07 200.97,266.00 206.39,268.45 210.73,271.78 212.31,273.78 213.72,276.08 214.83,278.53 215.57,281.01 215.82,283.50 215.24,286.87 213.80,290.39 211.84,293.84 209.60,296.95 203.15,302.89 194.94,308.19 163.21,324.54 147.50,334.88 141.38,340.74 135.93,347.37 130.98,354.75 126.97,362.87 124.26,371.44 122.99,380.33 123.10,386.12 123.90,391.94 125.56,397.31 127.69,401.46 130.46,405.39 133.66,408.92 137.09,411.81 141.02,414.14 145.37,415.81 149.87,416.89 154.38,417.41 160.72,417.04 167.14,415.59 173.39,413.70 181.71,410.44 189.74,406.25 197.70,401.06 205.34,394.98 212.14,388.67 219.28,380.26 238.45,349.64 255.68,317.98 262.74,301.00 283.07,229.96 289.76,212.76 298.06,196.41 307.80,180.92 318.78,166.23 330.84,152.37 344.28,139.65 359.19,128.27 471.03,56.53 487.57,48.75 504.73,42.63 513.41,40.70 522.24,40.00 528.85,40.48 535.54,41.78 541.74,44.12 545.67,46.41 549.46,49.23 552.83,52.53 555.54,56.28 557.50,60.24 559.05,64.73 559.97,69.32 559.97,73.70 558.03,79.15 554.49,84.38 550.40,89.97 528.87,118.48 514.57,144.73 503.26,169.90 500.52,178.65 499.00,186.55 498.06,195.04 498.00,203.72 499.19,213.76 501.57,223.74 505.33,233.23 510.04,241.86 514.52,248.46 520.63,255.14 546.50,276.34 580.52,300.22 672.44,353.34 713.38,387.75 725.36,400.69 735.32,415.22 739.33,423.08 742.62,431.35 745.08,439.69 746.44,448.36 746.52,454.92 745.91,461.63 744.50,467.97 742.04,473.83 738.69,479.21 734.90,484.14 728.04,490.89 720.21,496.37 710.95,500.75 701.15,503.60 692.19,504.82 680.96,504.60 618.17,494.78 555.68,484.62 536.51,484.77 498.06,490.18 387.96,528.07 369.24,531.67 359.97,532.26 350.81,531.81 342.21,530.29 333.94,527.33 328.41,524.18 323.10,520.21 318.61,515.50 315.49,510.72 313.03,505.34 311.45,499.67 310.90,493.37 311.26,486.73 312.47,480.43 314.71,474.35 317.84,468.68 321.46,463.64 325.56,459.41 330.12,455.85 335.05,452.89 342.96,449.73 353.25,447.14 462.43,425.97 479.83,420.26 487.96,416.29 495.60,411.44 502.29,405.88 508.04,399.13 511.34,393.57 514.08,387.34 515.68,381.07 515.98,376.66 515.73,372.10 514.91,367.76 513.49,363.91 511.14,360.42 508.07,357.50 504.26,354.94 499.77,352.45 483.34,347.23 462.79,342.96 446.00,338.22 439.97,335.29 435.07,332.17 430.76,328.36 426.94,323.76 423.59,318.53 420.85,312.86 418.31,304.04 416.43,294.03 410.76,260.10 408.38,253.36 405.61,247.42 402.21,242.23 397.73,237.45 392.58,233.49 387.16,230.59 382.96,229.18 378.56,228.37 374.13,228.15 369.84,228.59 365.75,229.67 361.71,231.37 357.84,233.63 354.33,236.34 350.43,240.57 347.02,245.57 344.04,250.98 340.52,259.44 337.53,269.67 327.66,322.02 322.18,340.44 317.65,349.30 311.92,358.24 290.09,385.97 223.87,459.60 217.45,469.31 212.94,478.13 208.74,488.14 205.45,498.67 203.18,509.53 201.88,520.65 201.27,530.85 202.10,543.16 234.30,663.35 237.90,680.40 238.84,691.41 238.75,702.72 237.43,713.25 235.02,723.22 231.73,732.05 227.44,740.05 223.73,745.36 219.53,750.21 214.94,754.18 211.17,756.52 207.14,758.33 203.01,759.56 198.92,760.00 194.85,759.59 190.70,758.41 186.69,756.59 182.93,754.25 178.31,750.10 174.08,744.95 170.37,739.31 166.28,730.93 162.65,720.29 146.17,646.56 115.38,569.04 90.12,521.32"
        fill="none"
        stroke="#e94560"
        stroke-width="8.0"
        stroke-linejoin="round"
        stroke-linecap="round"/>
  <!-- Start/finish line -->
  <line x1="72.45" y1="530.68" x2="107.80" y2="511.96"
        stroke="#f5f5f5" stroke-width="9.6"
        stroke-linecap="round"/>
</svg>
