<?xml version="1.0" encoding="utf-8"?>
<svg xmlns="http://www.w3.org/2000/svg"
     width="530.9" height="800.0"
     viewBox="0 0 530.9 800.0">
  <rect width="100%" height="100%" fill="#1a1a2e"/>
  <!-- Track outline -->
  <polyline points="50.16,363.66 40.85,427.43 40.00,531.18 44.57,570.47 52.43,607.29 64.39,642.94 77.42,672.56 83.16,682.60 89.67,691.38 103.72,707.79 118.81,722.97 126.77,729.63 135.34,735.32 153.00,744.77 171.24,752.72 189.89,757.57 209.75,760.00 230.43,759.50 251.17,757.36 261.76,755.27 272.20,752.05 313.37,733.06 332.95,719.83 350.65,704.94 369.31,686.11 390.66,658.79 410.31,627.16 427.94,588.96 443.44,544.78 482.67,384.29 490.92,291.12 487.84,245.39 482.17,206.56 475.55,181.75 456.51,137.02 444.33,117.36 429.74,100.25 413.92,84.43 396.14,71.34 376.60,59.71 355.96,50.88 334.76,45.19 313.34,41.09 302.65,40.00 291.96,40.04 270.89,42.22 250.04,46.07 229.79,53.30 210.57,63.22 174.28,90.25 157.15,107.40 134.67,136.52 111.16,172.54 74.41,254.46 67.40,278.61 52.82,345.46 50.16,363.66"
        fill="none"
        stroke="#e94560"
        stroke-width="8.0"
        stroke-linejoin="round"
        stroke-linecap="round"/>
  <!-- Start/finish line -->
  <line x1="69.95" y1="366.55" x2="30.37" y2="360.77"
        stroke="#f5f5f5" stroke-width="9.6"
        stroke-linecap="round"/>
</svg>
