<?xml version="1.0" encoding="utf-8"?>
<svg xmlns="http://www.w3.org/2000/svg"
     width="669.3" height="800.0"
     viewBox="0 0 669.3 800.0">
  <rect width="100%" height="100%" fill="#1a1a2e"/>
  <!-- Track outline -->
  <polyline points="453.40,225.97 455.28,230.40 491.03,310.34 497.22,329.89 501.18,347.97 502.96,362.72 503.22,377.09 502.11,390.63 499.32,405.58 486.78,444.31 475.23,481.88 473.94,493.56 474.39,503.60 476.45,513.84 479.92,523.33 484.96,532.23 491.40,540.22 501.61,549.01 513.83,557.25 534.55,568.56 554.70,580.07 564.39,587.77 572.90,596.59 582.43,608.99 591.88,624.61 618.62,687.46 624.86,704.35 628.73,718.87 629.32,727.23 628.69,734.43 627.35,739.32 625.38,743.54 622.89,747.48 619.77,750.95 616.26,753.75 612.19,756.24 607.97,758.15 603.47,759.42 598.78,760.00 593.83,760.00 587.24,759.13 580.26,757.43 573.76,755.03 567.60,751.93 559.97,745.91 325.62,487.00 290.21,444.86 281.44,430.46 274.85,416.51 271.19,406.22 268.88,395.66 268.43,370.09 269.62,355.69 269.99,342.44 269.01,337.12 267.50,332.47 265.53,328.24 262.85,324.08 259.64,320.46 256.15,317.40 252.17,314.82 247.89,312.89 243.27,311.55 234.03,310.72 223.62,311.32 207.20,314.24 190.97,316.70 181.80,316.24 173.06,314.27 161.42,309.73 149.69,303.11 138.65,294.58 128.35,284.28 119.24,272.62 111.62,260.22 107.31,250.73 104.37,241.04 102.97,231.50 102.83,222.42 103.69,216.34 105.25,210.87 107.51,205.50 110.34,200.64 113.85,196.10 117.79,192.19 122.26,188.75 127.05,185.97 132.08,183.77 137.54,182.30 145.05,181.40 154.49,181.92 187.76,190.46 224.34,200.98 262.43,208.16 270.26,210.82 277.10,213.97 284.07,217.90 290.77,222.50 296.71,227.39 302.52,233.29 309.79,242.55 316.52,253.33 321.32,263.46 325.73,276.56 336.60,330.61 347.54,383.14 351.70,393.55 356.16,401.07 361.77,408.42 368.05,414.43 372.76,417.73 377.76,420.33 382.86,422.27 388.18,423.51 393.61,424.03 398.97,423.86 404.14,423.02 409.25,421.49 414.10,419.29 418.45,416.57 422.57,413.25 426.26,409.28 429.34,404.97 432.05,400.12 434.20,394.85 436.31,386.52 437.12,377.38 436.17,365.55 433.01,352.19 404.59,291.77 359.26,197.45 347.85,181.46 336.83,169.80 326.52,161.19 315.43,154.36 300.42,147.65 282.85,142.44 213.30,133.88 163.44,123.73 151.57,123.44 139.98,124.97 118.95,131.74 97.98,139.23 85.69,142.62 74.85,144.27 69.50,143.95 64.48,142.99 60.01,141.55 57.05,140.27 54.42,138.74 51.82,136.66 48.70,133.54 45.64,129.75 43.19,125.50 41.58,121.16 40.47,116.41 40.00,111.64 40.32,106.81 41.29,101.95 42.78,97.41 45.07,92.78 47.99,88.50 51.25,84.66 57.27,79.25 64.27,74.77 73.78,70.31 86.64,66.41 232.33,44.57 277.12,40.00 291.11,40.38 304.18,41.94 317.40,44.66 330.37,48.65 342.69,53.91 354.51,60.54 365.12,68.05 375.36,77.22 386.75,89.92 397.75,104.99 418.87,145.02 453.40,225.97"
        fill="none"
        stroke="#e94560"
        stroke-width="8.0"
        stroke-linejoin="round"
        stroke-linecap="round"/>
  <!-- Start/finish line -->
  <line x1="471.79" y1="218.13" x2="435.00" y2="233.82"
        stroke="#f5f5f5" stroke-width="9.6"
        stroke-linecap="round"/>
</svg>
