<?xml version="1.0" encoding="utf-8"?>
<svg xmlns="http://www.w3.org/2000/svg"
     width="800.0" height="580.8"
     viewBox="0 0 800.0 580.8">
  <rect width="100%" height="100%" fill="#1a1a2e"/>
  <!-- Track outline -->
  <polyline points="492.61,530.32 405.94,531.82 375.55,532.90 139.45,540.80 112.02,538.82 103.13,537.04 92.63,533.45 82.83,528.44 78.34,525.37 74.14,521.89 70.34,518.12 66.86,513.97 61.04,504.80 56.71,494.77 51.47,475.21 48.72,456.68 43.02,337.83 40.00,217.28 40.37,206.52 41.04,201.30 42.16,196.26 43.97,191.49 46.26,187.01 48.97,182.84 52.06,179.11 55.62,175.84 59.50,173.10 63.72,170.82 68.14,169.08 72.84,167.84 77.66,167.22 82.57,167.28 87.48,167.86 97.56,170.39 143.82,187.30 243.97,232.20 263.56,243.38 272.48,249.58 280.57,256.29 287.54,263.58 293.20,271.62 297.65,280.22 300.93,289.33 302.88,298.86 303.88,339.76 302.65,413.21 303.64,422.30 304.70,426.70 306.16,430.92 308.07,435.01 310.35,438.86 313.02,442.56 315.99,445.98 319.33,449.15 322.92,451.98 330.83,456.79 334.71,458.75 339.51,460.49 355.63,463.91 379.04,466.67 562.46,469.43 573.10,468.62 578.31,467.55 583.38,465.95 588.07,463.72 592.47,460.94 596.46,457.77 600.11,454.17 603.31,450.36 606.05,446.16 608.17,441.70 609.65,436.95 610.35,432.00 610.38,426.94 609.74,421.71 608.46,416.61 606.34,411.49 603.73,406.74 601.16,402.92 598.33,399.46 595.52,396.35 591.52,392.83 512.95,341.66 420.39,284.37 183.27,133.02 148.25,110.69 140.16,104.27 136.63,100.83 133.47,97.08 130.85,93.11 128.72,88.83 127.20,84.33 126.20,79.64 125.67,74.92 125.72,70.21 126.41,65.58 127.71,61.14 129.62,56.91 132.04,53.08 135.04,49.60 138.44,46.65 142.31,44.22 146.44,42.37 150.86,41.02 155.45,40.23 160.37,40.00 165.41,40.25 176.43,41.88 185.45,44.03 226.76,59.40 428.66,143.26 436.78,148.17 444.37,153.71 458.34,166.40 464.75,173.40 470.76,181.08 481.94,198.97 514.92,262.92 522.36,272.07 530.97,280.24 540.75,286.89 551.45,292.19 556.53,294.20 562.79,295.81 620.12,298.64 629.27,299.11 638.24,300.28 647.04,302.47 655.62,305.82 663.88,310.37 671.62,316.06 678.81,322.73 685.32,330.61 697.52,349.38 755.62,463.93 757.70,469.70 758.79,474.28 759.68,479.46 760.00,484.66 759.63,489.88 758.59,494.96 756.83,499.85 754.43,504.37 751.34,508.53 747.69,512.17 743.30,515.34 738.51,517.96 727.50,522.05 717.98,524.18 707.71,525.74 647.35,527.64 492.61,530.32"
        fill="none"
        stroke="#e94560"
        stroke-width="8.0"
        stroke-linejoin="round"
        stroke-linecap="round"/>
  <!-- Start/finish line -->
  <line x1="492.95" y1="550.32" x2="492.26" y2="510.32"
        stroke="#f5f5f5" stroke-width="9.6"
        stroke-linecap="round"/>
</svg>
