<?xml version="1.0" encoding="utf-8"?>
<svg xmlns="http://www.w3.org/2000/svg"
     width="698.9" height="800.0"
     viewBox="0 0 698.9 800.0">
  <rect width="100%" height="100%" fill="#1a1a2e"/>
  <!-- Track outline -->
  <polyline points="502.65,278.41 626.72,403.02 639.81,419.98 647.95,433.94 653.22,446.17 656.73,458.63 658.62,471.44 658.91,484.40 657.53,497.21 654.65,509.67 650.28,521.78 644.27,533.55 634.60,547.47 621.83,562.20 588.51,592.89 556.92,623.35 548.51,635.20 542.44,647.85 535.60,673.31 529.67,699.66 525.12,715.62 519.83,729.00 515.89,735.27 511.43,740.62 506.57,745.27 498.05,751.35 488.73,755.85 478.66,758.81 467.75,760.00 452.13,758.81 436.97,755.65 420.22,749.77 412.34,744.54 399.76,734.42 364.81,690.77 263.59,554.82 254.32,539.40 248.51,525.94 245.06,512.09 243.91,498.71 244.48,491.98 245.81,485.63 247.79,479.75 250.44,474.25 253.69,469.17 257.40,464.79 261.60,461.09 266.26,458.13 271.07,455.98 276.04,454.63 281.19,454.13 286.26,454.48 291.12,455.71 295.87,457.82 300.47,460.82 305.28,465.02 309.85,470.36 314.66,477.59 328.67,512.09 345.93,554.16 378.27,606.70 410.21,649.01 417.43,656.24 423.79,661.24 430.09,664.85 435.67,667.04 441.20,668.27 446.75,668.77 452.33,668.70 457.94,667.97 463.23,666.43 467.95,664.35 472.41,661.54 476.41,657.77 481.71,648.89 486.25,637.78 491.34,620.51 497.44,602.93 506.91,589.28 518.48,576.20 537.75,556.66 556.05,536.40 565.09,521.55 571.33,506.78 574.35,494.48 575.59,482.13 575.24,469.67 573.26,457.48 570.24,446.56 564.20,434.59 519.28,384.29 457.74,323.91 324.06,192.53 314.22,185.57 306.05,181.72 300.01,179.72 293.83,178.49 287.44,178.15 279.55,178.99 271.38,180.95 264.02,183.84 258.84,186.72 254.18,190.18 250.15,194.38 246.93,199.03 244.28,204.34 242.44,209.95 241.52,215.95 241.40,222.26 242.04,228.80 245.09,241.18 250.44,253.60 259.41,267.18 272.48,281.29 370.53,355.48 459.84,437.32 470.49,449.63 477.71,460.52 481.53,468.86 483.72,477.25 484.21,482.71 484.01,488.25 483.14,493.55 481.50,498.71 479.17,503.59 476.35,507.94 472.84,511.86 468.76,515.21 464.44,517.82 459.78,519.78 454.80,520.97 449.60,521.44 443.04,521.01 436.10,519.51 429.20,516.86 418.84,510.09 406.61,499.28 296.50,386.25 68.74,157.92 56.75,142.80 49.24,130.46 44.49,119.84 41.44,109.11 40.00,98.50 40.17,87.96 42.07,78.19 45.44,69.11 48.60,63.54 52.40,58.42 56.66,53.92 61.64,49.81 67.10,46.38 72.80,43.69 78.99,41.69 85.43,40.46 91.90,40.00 98.26,40.23 104.65,41.19 111.41,43.19 126.09,50.96 141.65,60.65 174.83,79.15 185.64,82.04 197.38,83.19 225.78,81.65 255.79,80.50 274.40,83.34 291.64,88.57 308.87,96.30 325.94,106.69 365.12,140.30 502.65,278.41"
        fill="none"
        stroke="#e94560"
        stroke-width="8.0"
        stroke-linejoin="round"
        stroke-linecap="round"/>
  <!-- Start/finish line -->
  <line x1="516.82" y1="264.30" x2="488.48" y2="292.52"
        stroke="#f5f5f5" stroke-width="9.6"
        stroke-linecap="round"/>
</svg>
