<?xml version="1.0" encoding="utf-8"?>
<svg xmlns="http://www.w3.org/2000/svg"
     width="594.0" height="800.0"
     viewBox="0 0 594.0 800.0">
  <rect width="100%" height="100%" fill="#1a1a2e"/>
  <!-- Track outline -->
  <polyline points="363.85,263.77 369.82,264.72 424.04,270.74 476.94,278.14 495.32,282.43 510.30,287.77 520.73,293.14 529.91,299.76 537.66,307.20 544.28,315.94 549.07,325.21 552.44,335.43 553.99,345.97 553.91,357.21 551.34,371.85 546.40,387.37 522.30,433.33 374.09,688.76 358.36,721.71 347.09,743.79 343.99,747.65 341.19,750.17 338.05,752.37 330.48,756.17 322.20,758.76 313.81,760.00 305.81,759.97 300.34,759.05 295.02,757.09 287.67,752.96 280.38,747.03 275.65,741.86 271.18,735.89 267.59,729.28 264.79,720.17 262.96,708.58 256.88,618.71 234.41,491.27 233.78,475.61 235.02,462.38 239.20,445.21 245.14,429.98 248.49,424.12 252.10,419.31 256.06,415.28 260.69,411.77 265.67,409.09 270.45,407.16 273.96,406.14 277.32,405.65 280.94,405.58 286.04,406.08 291.51,407.19 296.75,409.09 301.48,411.61 306.01,414.85 310.12,418.69 313.50,422.78 316.54,427.43 319.05,432.57 321.73,440.83 323.24,450.19 323.28,462.93 321.73,477.97 314.26,512.59 307.65,545.31 307.42,554.81 308.54,562.50 310.12,567.35 312.30,571.77 314.91,575.64 318.36,579.11 322.32,581.86 326.52,584.05 331.32,585.79 336.38,586.87 341.46,587.23 346.60,586.94 351.76,585.95 356.72,584.18 361.25,581.86 365.58,578.81 369.86,574.72 377.44,564.17 385.19,549.86 412.76,482.52 432.94,435.32 435.76,422.68 436.74,410.76 436.04,398.74 433.76,387.18 429.68,375.94 424.19,365.72 417.19,356.26 408.76,348.01 396.43,339.29 380.84,331.86 338.52,319.77 293.55,312.08 269.61,311.22 248.43,313.35 232.06,317.32 215.70,323.02 192.05,333.30 169.17,342.63 156.03,345.55 144.36,346.70 135.70,346.66 127.01,345.61 114.30,342.76 101.24,338.44 89.55,333.23 78.53,326.78 69.30,319.71 60.98,311.49 53.98,302.38 48.22,292.85 45.08,286.17 42.78,278.96 40.73,268.35 40.00,256.13 46.35,216.90 77.36,82.81 80.71,74.65 84.06,69.02 88.34,63.12 93.14,57.98 98.46,53.46 104.48,49.63 114.07,45.24 124.60,41.97 135.60,40.23 146.74,40.00 157.85,41.28 168.78,44.13 179.17,48.42 189.11,54.21 198.29,61.22 206.74,69.71 213.94,79.27 220.04,90.14 224.25,101.15 227.74,114.35 232.65,145.99 238.10,177.69 242.98,191.74 248.80,203.37 256.45,215.03 265.20,225.35 275.22,234.48 286.47,242.25 302.34,250.27 320.03,256.72 363.85,263.77"
        fill="none"
        stroke="#e94560"
        stroke-width="8.0"
        stroke-linejoin="round"
        stroke-linecap="round"/>
  <!-- Start/finish line -->
  <line x1="367.01" y1="244.02" x2="360.68" y2="283.51"
        stroke="#f5f5f5" stroke-width="9.6"
        stroke-linecap="round"/>
</svg>
