<?xml version="1.0" encoding="utf-8"?>
<svg xmlns="http://www.w3.org/2000/svg"
     width="800.0" height="642.0"
     viewBox="0 0 800.0 642.0">
  <rect width="100%" height="100%" fill="#1a1a2e"/>
  <!-- Track outline -->
  <polyline points="424.13,209.56 425.56,210.71 436.25,221.08 446.60,230.86 517.18,301.38 630.14,418.00 700.11,495.77 752.86,553.59 756.62,559.38 759.66,566.38 760.00,574.27 758.50,580.25 755.89,585.63 752.36,590.63 748.25,594.65 742.81,598.29 738.07,600.45 732.65,601.79 725.95,601.97 719.25,601.92 713.96,601.49 707.67,600.57 701.27,597.43 694.12,591.91 622.67,526.59 609.32,514.75 603.04,510.46 595.67,506.19 584.12,500.61 570.82,494.87 562.52,491.41 558.53,489.85 554.38,487.77 539.77,475.39 515.41,447.08 504.45,430.61 444.18,333.06 441.58,329.92 437.78,326.17 431.60,321.65 426.99,319.46 423.29,317.97 418.42,316.05 413.26,314.74 407.16,313.74 401.30,313.34 394.93,313.06 387.81,313.34 381.24,313.52 342.27,318.71 329.58,318.78 317.77,317.52 306.61,313.90 295.75,307.46 239.85,257.71 217.72,236.99 212.30,232.02 207.30,228.29 202.95,226.30 198.83,224.74 192.20,223.29 185.04,223.36 176.29,223.75 161.63,224.72 136.33,225.33 113.09,225.51 106.94,224.31 101.99,222.62 97.21,220.49 92.68,217.98 84.08,211.88 75.82,204.86 68.19,197.24 61.26,188.84 55.47,179.44 50.42,169.22 42.31,146.49 40.79,140.57 40.00,134.54 40.40,122.52 41.75,110.47 44.07,98.36 48.74,87.27 53.99,77.03 60.43,67.77 68.35,59.27 76.46,52.13 81.64,48.65 87.13,45.67 92.25,43.59 97.45,42.03 102.78,40.86 108.25,40.20 112.26,40.00 116.35,40.05 120.17,40.72 124.95,43.10 129.38,46.26 137.76,53.29 165.37,78.91 174.52,84.40 220.91,105.16 228.69,107.58 235.89,110.32 241.68,113.68 247.71,118.93 253.75,125.05 265.94,138.70 290.04,167.48 292.47,169.99 294.87,171.91 327.21,194.03 337.63,198.82 349.11,201.96 357.04,201.78 367.49,199.82 375.96,197.49 386.83,194.78 394.00,193.87 398.98,194.10 403.71,195.55 409.10,198.48 415.60,202.71 424.13,209.56"
        fill="none"
        stroke="#e94560"
        stroke-width="8.0"
        stroke-linejoin="round"
        stroke-linecap="round"/>
  <!-- Start/finish line -->
  <line x1="436.65" y1="193.96" x2="411.61" y2="225.15"
        stroke="#f5f5f5" stroke-width="9.6"
        stroke-linecap="round"/>
</svg>
