<?xml version="1.0" encoding="utf-8"?>
<svg xmlns="http://www.w3.org/2000/svg"
     width="447.0" height="800.0"
     viewBox="0 0 447.0 800.0">
  <rect width="100%" height="100%" fill="#1a1a2e"/>
  <!-- Track outline -->
  <polyline points="206.53,526.36 210.82,530.78 290.44,613.39 342.50,668.29 346.28,672.67 349.71,677.03 355.60,685.62 357.97,689.95 359.95,694.19 361.57,698.37 362.77,702.47 363.34,704.52 363.54,706.56 363.09,707.97 362.33,709.37 361.74,710.73 361.49,712.38 361.34,714.00 360.62,717.23 353.99,735.92 353.69,737.44 353.61,738.79 353.65,741.65 353.88,744.47 354.14,745.84 354.51,747.06 355.04,748.29 355.78,749.58 357.43,751.90 359.26,754.08 360.35,755.10 361.45,755.95 363.94,757.44 366.66,758.55 372.67,759.84 375.87,760.00 382.45,759.36 385.76,758.51 389.00,757.26 395.17,753.54 397.95,751.24 402.52,746.03 404.28,743.14 405.62,740.13 406.58,736.81 407.02,733.37 406.81,726.41 406.11,723.03 404.91,719.67 403.49,716.66 401.47,713.25 391.56,701.58 389.24,698.26 387.10,694.73 385.22,690.97 383.75,686.93 382.68,682.76 381.94,678.43 381.47,674.08 381.59,669.70 382.31,660.91 382.00,652.38 381.10,648.22 378.12,640.10 376.08,636.22 367.93,625.47 346.97,605.19 343.52,601.46 337.00,593.46 327.97,580.27 307.88,546.05 286.19,508.75 254.97,454.72 248.88,446.85 242.12,440.46 238.43,437.91 234.45,435.80 230.37,434.23 217.30,431.80 198.63,431.45 193.91,430.92 189.31,430.09 184.85,428.85 180.60,427.27 176.65,425.20 172.87,422.79 169.30,420.04 166.00,416.99 162.99,413.65 160.27,410.02 157.84,406.10 155.81,402.05 154.17,397.89 152.94,393.35 152.09,388.72 151.69,384.00 151.67,379.21 152.06,374.38 152.83,369.54 153.97,364.77 155.52,360.04 157.47,355.41 164.86,341.77 185.78,302.67 192.16,286.19 195.52,269.36 195.81,263.68 194.97,252.54 193.79,247.07 190.21,236.53 185.00,226.57 175.51,212.09 172.83,206.89 170.79,201.55 169.14,196.01 167.93,190.37 167.10,184.67 166.64,178.87 166.55,173.01 166.80,167.10 167.38,161.18 174.91,109.22 175.36,90.00 173.02,77.24 171.67,73.15 167.93,65.34 165.55,61.70 162.85,58.33 156.39,52.41 152.77,49.85 140.35,44.16 135.87,42.86 121.66,40.41 102.69,40.00 94.25,40.98 90.40,41.97 86.66,43.38 79.71,47.42 76.71,49.90 74.07,52.66 69.92,58.95 68.43,62.35 66.58,69.69 66.29,73.47 66.84,81.13 67.69,84.99 70.47,92.52 72.52,96.13 80.47,106.00 104.54,127.42 107.93,130.96 111.15,134.75 114.13,138.75 116.87,142.96 119.27,147.37 121.35,152.04 122.97,156.86 124.19,161.82 125.13,166.88 125.77,172.00 126.07,177.21 126.05,182.43 125.16,192.89 112.81,280.56 109.98,300.63 107.97,308.86 106.62,312.44 105.11,315.74 103.36,318.74 101.36,321.34 99.16,323.56 96.67,325.41 93.87,326.77 90.88,327.80 87.78,328.56 84.57,328.90 81.30,328.91 58.47,327.37 56.79,327.54 55.49,327.82 52.70,328.65 50.11,329.90 47.67,331.51 45.47,333.46 43.60,335.79 42.12,338.44 40.96,341.30 40.24,344.45 40.00,347.72 40.00,351.02 40.41,354.38 41.18,357.63 42.41,360.84 43.67,363.55 45.84,366.96 79.68,401.01 157.98,478.38 201.82,521.57 206.53,526.36"
        fill="none"
        stroke="#e94560"
        stroke-width="8.0"
        stroke-linejoin="round"
        stroke-linecap="round"/>
  <!-- Start/finish line -->
  <line x1="220.83" y1="512.39" x2="192.22" y2="540.34"
        stroke="#f5f5f5" stroke-width="9.6"
        stroke-linecap="round"/>
</svg>
