<?xml version="1.0" encoding="utf-8"?>
<svg xmlns="http://www.w3.org/2000/svg"
     width="800.0" height="214.0"
     viewBox="0 0 800.0 214.0">
  <rect width="100%" height="100%" fill="#1a1a2e"/>
  <!-- Track outline -->
  <polyline points="524.37,164.37 442.90,159.78 429.77,160.66 413.86,161.99 406.79,160.57 399.89,158.33 392.60,154.68 385.86,150.06 380.67,145.11 375.94,138.95 369.22,125.39 362.29,112.23 358.98,108.39 355.55,105.40 351.77,103.02 347.39,101.14 342.64,99.94 337.86,99.48 332.93,99.91 327.98,101.17 323.34,103.14 317.08,107.94 311.57,113.77 307.25,119.47 302.97,125.18 297.63,130.83 291.64,136.02 284.39,140.64 276.78,144.50 263.41,149.43 248.14,153.02 212.65,156.43 105.54,155.52 91.35,154.26 82.67,152.69 74.04,150.33 66.25,147.25 59.12,143.21 52.94,137.95 47.77,131.76 44.99,127.26 42.71,122.43 41.11,117.51 40.24,112.65 40.00,107.70 40.42,102.87 41.55,98.18 43.35,93.66 45.67,89.46 48.54,85.62 51.95,82.12 55.73,79.10 62.01,75.66 69.88,72.70 116.95,59.63 195.46,45.37 201.07,45.01 205.42,45.10 209.62,45.95 213.25,47.28 216.89,49.09 220.18,51.38 222.80,54.07 224.40,56.67 225.69,59.69 226.58,62.92 226.98,66.15 226.82,69.17 225.97,72.13 224.46,75.15 222.48,78.01 220.18,80.58 217.75,82.63 214.34,84.48 210.42,85.68 206.32,86.41 202.33,86.71 195.04,85.87 187.83,83.81 180.52,80.55 173.11,77.47 167.78,76.23 162.31,75.54 157.24,75.93 153.95,77.08 150.78,78.83 147.95,81.00 145.63,83.51 144.13,85.84 142.88,88.49 141.95,91.33 141.39,94.23 141.28,96.98 141.83,100.39 143.08,103.86 144.84,107.15 147.02,110.08 151.06,113.64 156.03,116.57 161.21,118.84 168.91,120.77 177.01,121.71 195.56,122.25 211.13,120.98 227.35,116.69 244.02,109.21 259.94,98.58 282.49,78.65 305.19,59.42 313.59,54.61 321.32,51.41 329.58,48.70 338.00,46.88 346.46,46.22 355.00,46.46 372.73,49.45 405.22,59.42 425.09,63.46 443.61,65.57 452.99,65.15 461.40,63.64 477.97,58.24 511.55,44.20 521.08,41.60 530.15,40.21 540.00,40.00 550.42,40.72 579.86,45.16 595.15,49.36 665.86,72.52 735.75,99.18 744.29,104.56 749.96,110.02 753.48,114.37 756.43,119.11 758.55,124.06 759.68,129.07 760.00,134.30 759.52,139.40 758.14,144.53 755.90,149.58 753.01,154.17 749.24,158.27 744.80,161.87 740.19,164.92 733.91,167.96 727.27,170.17 711.86,173.10 694.42,173.97 524.37,164.37"
        fill="none"
        stroke="#e94560"
        stroke-width="8.0"
        stroke-linejoin="round"
        stroke-linecap="round"/>
  <!-- Start/finish line -->
  <line x1="523.24" y1="184.34" x2="525.49" y2="144.40"
        stroke="#f5f5f5" stroke-width="9.6"
        stroke-linecap="round"/>
</svg>
