<?xml version="1.0" encoding="utf-8"?>
<svg xmlns="http://www.w3.org/2000/svg"
     width="792.3" height="800.0"
     viewBox="0 0 792.3 800.0">
  <rect width="100%" height="100%" fill="#1a1a2e"/>
  <!-- Track outline -->
  <polyline points="66.31,437.47 76.35,388.15 108.98,265.42 150.16,157.01 184.81,92.72 198.72,73.25 212.64,57.72 219.42,51.81 226.16,47.05 233.09,43.47 239.62,41.29 246.33,40.11 252.82,40.00 258.86,41.04 264.72,43.04 270.04,45.91 274.83,49.56 279.06,54.07 282.50,59.15 285.13,65.34 286.83,72.21 287.65,79.41 287.47,87.93 286.16,96.84 283.78,105.89 276.82,121.25 266.92,138.57 218.10,220.36 176.85,313.13 135.99,406.62 103.33,504.55 101.13,512.67 95.42,537.48 95.10,559.24 97.79,580.25 102.27,597.50 109.12,613.22 118.49,626.89 129.82,638.63 137.80,645.03 146.47,650.51 155.84,654.84 166.95,658.21 178.88,660.28 191.09,660.89 205.15,659.75 219.52,656.92 232.02,652.94 239.55,649.44 246.01,645.32 251.55,640.42 256.09,634.83 259.78,628.57 262.48,621.84 264.26,614.43 264.93,606.52 264.43,598.11 259.43,580.00 251.40,560.03 226.62,504.30 220.63,481.32 217.50,459.06 216.97,439.34 219.03,419.26 235.29,364.92 263.86,294.45 304.80,203.93 314.03,188.40 323.29,176.83 329.11,171.72 335.26,167.60 341.57,164.70 346.01,163.48 350.56,162.77 355.06,162.70 359.36,163.20 363.37,164.34 367.28,166.03 370.90,168.28 374.06,170.93 376.79,174.19 379.06,178.02 380.91,182.17 382.19,186.50 383.07,193.12 382.90,200.17 381.69,207.33 377.61,218.89 370.05,232.24 331.00,280.63 289.67,332.42 276.89,355.51 268.87,376.09 265.18,391.45 264.04,405.87 264.54,413.99 265.96,421.80 268.37,429.35 272.10,437.26 276.96,444.92 282.64,451.68 289.18,457.48 296.49,462.42 303.98,466.11 310.69,468.26 317.54,469.40 324.61,469.51 333.16,468.29 341.97,465.82 349.99,462.35 356.31,458.41 361.95,453.69 366.78,448.36 370.69,442.66 373.77,436.37 375.97,429.06 376.33,408.20 375.37,386.51 376.22,373.05 378.64,361.17 381.51,354.62 385.24,348.64 389.78,343.27 395.57,338.29 402.32,334.00 409.63,330.56 418.43,327.77 427.98,326.02 437.78,325.34 453.08,326.77 470.58,330.46 512.93,342.73 555.85,354.01 575.45,355.87 592.46,354.83 601.97,352.75 610.95,349.64 619.40,345.52 627.42,340.51 634.95,334.54 641.80,327.27 651.92,308.98 661.18,290.12 669.28,278.27 677.98,269.00 683.41,265.38 689.12,262.77 695.05,261.02 701.37,260.05 707.94,259.98 714.33,260.91 720.90,263.17 727.32,266.53 733.11,270.68 738.11,275.51 742.51,281.13 746.10,287.40 749.22,295.45 751.35,304.36 752.35,313.20 752.10,321.47 750.79,329.70 748.41,337.61 743.26,348.28 734.63,359.73 692.10,400.11 645.71,438.76 631.65,449.79 619.01,457.48 605.95,462.28 592.70,464.71 581.02,464.82 568.46,462.96 544.71,455.08 520.74,448.00 511.62,447.60 503.28,448.43 494.47,450.43 474.77,457.95 454.11,469.26 428.91,487.26 405.79,507.88 390.81,524.81 378.96,542.70 371.00,561.35 364.79,581.97 357.83,613.93 349.92,645.86 340.47,667.30 329.43,686.34 318.25,702.48 305.61,716.73 291.02,728.57 275.08,738.56 258.68,746.94 240.83,753.38 216.44,758.07 191.91,760.00 174.76,759.75 158.22,757.28 137.91,750.94 118.56,742.10 104.68,733.55 91.76,722.78 73.48,702.66 57.68,680.58 49.87,665.58 44.62,650.44 41.38,633.94 40.00,615.51 42.98,546.64 63.71,450.25 66.31,437.47"
        fill="none"
        stroke="#e94560"
        stroke-width="8.0"
        stroke-linejoin="round"
        stroke-linecap="round"/>
  <!-- Start/finish line -->
  <line x1="46.71" y1="433.49" x2="85.90" y2="441.46"
        stroke="#f5f5f5" stroke-width="9.6"
        stroke-linecap="round"/>
</svg>
