<?xml version="1.0" encoding="utf-8"?>
<svg xmlns="http://www.w3.org/2000/svg"
     width="745.8" height="800.0"
     viewBox="0 0 745.8 800.0">
  <rect width="100%" height="100%" fill="#1a1a2e"/>
  <!-- Track outline -->
  <polyline points="104.66,666.68 100.97,662.63 79.55,636.57 58.46,602.80 48.37,579.07 41.72,552.78 40.37,542.08 40.00,531.53 42.47,509.31 49.80,481.98 59.00,461.42 71.35,443.29 98.11,414.99 125.90,390.15 176.66,353.27 326.38,243.37 352.58,224.29 375.26,208.64 523.27,101.14 551.43,81.36 559.72,77.04 567.58,74.07 575.64,72.40 584.08,71.53 595.34,71.34 606.37,70.73 613.39,68.99 620.52,65.96 634.84,56.45 649.31,46.75 657.45,43.15 664.78,41.03 668.74,40.30 672.52,40.00 676.04,40.19 678.73,40.76 681.24,41.69 683.65,42.98 686.04,44.62 688.35,46.64 690.49,49.07 693.49,53.80 696.15,59.78 699.47,70.66 702.22,83.24 705.80,112.51 705.52,120.18 704.41,127.10 702.23,134.34 699.24,141.24 695.32,148.07 690.70,154.39 684.94,160.67 678.52,166.27 671.10,171.29 662.57,175.77 630.33,187.74 497.33,230.09 430.36,251.92 424.49,254.97 420.17,258.33 417.53,261.07 415.16,264.18 413.36,267.52 412.37,270.57 411.80,273.79 411.68,276.81 412.00,279.24 412.67,281.55 413.63,283.69 415.23,286.10 417.25,288.30 419.44,290.13 421.82,291.56 424.41,292.62 427.36,293.50 436.19,294.59 445.06,295.95 448.24,297.27 451.01,298.90 453.44,300.88 455.25,302.89 456.80,305.18 458.07,307.67 459.03,310.32 459.73,313.16 460.07,316.04 460.03,318.91 459.64,321.82 458.89,324.64 457.52,327.89 455.66,331.04 453.52,333.87 449.50,337.64 444.77,340.68 438.32,343.44 430.60,345.89 395.84,355.49 386.10,360.26 377.82,365.81 372.20,370.89 366.80,377.23 357.27,392.01 347.96,406.19 343.49,410.86 339.06,414.19 333.40,417.15 327.22,419.27 319.29,420.80 311.14,421.22 304.29,420.53 296.85,418.79 280.81,412.91 264.35,407.23 255.41,405.88 246.91,405.84 236.69,407.03 226.10,409.74 213.51,414.96 201.58,421.59 193.71,427.19 186.63,433.70 179.54,442.03 173.21,451.54 168.06,461.79 164.09,472.65 161.85,482.51 160.79,492.74 161.01,504.67 162.63,516.69 165.85,528.53 170.41,539.67 176.50,550.18 183.70,559.62 192.49,568.55 201.69,575.92 209.20,580.51 216.92,583.98 226.37,587.18 236.61,589.36 249.35,590.49 263.76,589.99 291.33,584.44 318.90,573.60 335.97,565.40 352.00,557.53 378.94,545.77 411.13,534.40 417.97,533.20 423.84,533.16 427.04,533.64 430.06,534.51 432.98,535.79 437.44,538.68 441.34,542.16 443.49,544.83 445.17,547.54 446.20,549.48 447.06,551.82 448.77,558.66 450.00,567.54 448.75,599.30 443.32,644.11 440.87,653.53 437.81,661.49 433.60,669.60 428.62,677.05 422.56,684.17 416.01,690.36 409.68,695.15 403.08,699.00 396.19,701.86 387.51,705.17 367.22,709.51 343.36,716.21 326.02,725.28 307.49,735.93 298.42,741.24 290.74,746.37 284.64,751.01 279.21,754.23 271.89,756.92 264.06,758.71 255.78,759.79 247.08,760.00 236.17,759.13 224.95,757.16 214.20,754.16 203.41,750.06 179.35,737.30 156.78,720.11 104.66,666.68"
        fill="none"
        stroke="#e94560"
        stroke-width="8.0"
        stroke-linejoin="round"
        stroke-linecap="round"/>
  <!-- Start/finish line -->
  <line x1="90.31" y1="680.61" x2="119.01" y2="652.75"
        stroke="#f5f5f5" stroke-width="9.6"
        stroke-linecap="round"/>
</svg>
