<?xml version="1.0" encoding="utf-8"?>
<svg xmlns="http://www.w3.org/2000/svg"
     width="522.3" height="800.0"
     viewBox="0 0 522.3 800.0">
  <rect width="100%" height="100%" fill="#1a1a2e"/>
  <!-- Track outline -->
  <polyline points="47.17,421.38 62.94,528.15 73.78,585.48 90.42,638.54 115.28,676.47 141.96,705.85 154.71,717.36 169.05,726.57 203.94,743.78 243.93,756.93 267.91,760.00 291.96,760.00 315.22,756.71 338.01,749.48 360.07,738.95 379.19,727.77 395.84,715.49 410.58,701.02 432.16,675.92 451.76,646.32 466.34,611.13 476.21,574.96 480.68,547.99 482.27,518.39 473.59,371.39 460.84,283.80 443.47,207.06 431.53,177.80 418.62,154.77 397.51,125.51 367.00,95.25 349.87,81.77 331.71,69.93 313.71,60.72 294.03,53.15 265.36,44.60 234.29,40.00 211.51,41.21 188.17,45.48 165.70,52.50 143.80,62.91 122.93,76.07 104.76,90.32 87.16,108.84 72.90,129.23 59.84,153.13 50.04,177.03 45.82,191.61 43.27,207.83 40.00,314.28 47.17,421.38"
        fill="none"
        stroke="#e94560"
        stroke-width="8.0"
        stroke-linejoin="round"
        stroke-linecap="round"/>
  <!-- Start/finish line -->
  <line x1="67.06" y1="419.24" x2="27.28" y2="423.51"
        stroke="#f5f5f5" stroke-width="9.6"
        stroke-linecap="round"/>
</svg>
