<?xml version="1.0" encoding="utf-8"?>
<svg xmlns="http://www.w3.org/2000/svg"
     width="511.6" height="800.0"
     viewBox="0 0 511.6 800.0">
  <rect width="100%" height="100%" fill="#1a1a2e"/>
  <!-- Track outline -->
  <polyline points="403.40,197.98 423.59,234.46 441.92,271.77 449.86,290.76 454.87,307.29 459.75,330.91 466.87,381.55 471.63,428.92 471.62,433.65 471.21,437.13 470.80,438.67 470.27,439.98 469.63,441.14 468.83,442.22 467.91,443.13 466.93,443.82 466.13,444.19 465.29,444.43 464.43,444.54 463.59,444.53 462.52,444.32 461.46,443.88 460.27,443.20 456.82,440.24 453.23,437.19 451.65,436.32 450.15,435.72 448.70,435.36 447.43,435.22 446.19,435.27 444.91,435.50 443.33,435.99 441.71,436.71 440.09,437.75 437.61,439.92 434.87,443.41 416.98,477.84 332.99,645.21 303.59,712.36 290.77,749.30 288.54,753.27 286.50,755.83 284.98,757.21 283.38,758.18 280.98,759.20 278.49,759.85 277.10,760.00 275.75,759.99 274.42,759.81 273.15,759.51 271.90,759.05 270.56,758.31 267.12,755.47 263.72,752.04 259.74,747.22 236.08,706.65 215.71,677.55 192.99,640.15 147.79,567.57 129.87,541.61 86.53,473.98 72.44,451.95 64.74,443.08 43.89,409.28 42.03,406.11 40.82,403.44 40.24,401.10 40.00,398.47 40.34,393.13 41.16,387.24 43.35,375.77 44.47,372.24 45.83,369.11 47.66,365.97 49.99,362.83 61.85,350.81 86.15,325.15 123.81,283.64 166.90,235.65 202.00,190.51 223.30,151.89 239.37,120.60 247.32,108.64 250.54,104.45 253.19,100.32 254.40,96.88 255.21,93.17 255.76,88.33 256.37,83.57 257.43,80.10 258.82,76.96 260.83,73.55 263.25,70.31 270.64,62.85 283.00,53.73 299.18,44.20 303.37,42.22 307.01,40.88 309.60,40.25 311.97,40.00 313.91,40.08 315.82,40.49 318.21,41.46 320.61,42.83 322.78,44.41 324.80,46.39 326.38,48.53 328.25,51.81 363.11,125.16 403.40,197.98"
        fill="none"
        stroke="#e94560"
        stroke-width="8.0"
        stroke-linejoin="round"
        stroke-linecap="round"/>
  <!-- Start/finish line -->
  <line x1="420.90" y1="188.29" x2="385.90" y2="207.66"
        stroke="#f5f5f5" stroke-width="9.6"
        stroke-linecap="round"/>
</svg>
