<?xml version="1.0" encoding="utf-8"?>
<svg xmlns="http://www.w3.org/2000/svg"
     width="800.0" height="440.6"
     viewBox="0 0 800.0 440.6">
  <rect width="100%" height="100%" fill="#1a1a2e"/>
  <!-- Track outline -->
  <polyline points="425.59,400.26 568.25,392.34 625.15,382.73 649.65,374.04 672.53,362.52 693.08,347.94 709.88,333.34 720.66,321.15 738.17,294.56 748.10,272.02 755.64,250.47 758.73,234.99 760.00,218.87 759.93,201.14 758.09,184.29 754.22,167.23 744.64,143.35 734.30,122.84 726.98,111.29 711.35,93.76 694.38,77.41 688.15,72.81 681.47,69.05 635.83,48.66 618.02,44.16 595.41,42.52 205.93,40.00 180.19,44.26 156.45,51.11 132.69,60.18 118.24,67.77 105.08,77.14 89.87,92.08 77.09,107.36 72.58,113.60 68.64,120.82 57.37,146.54 47.03,177.70 41.86,207.49 40.00,233.21 40.37,240.90 41.71,248.35 55.58,294.99 62.27,309.50 65.16,314.17 69.03,319.10 110.06,359.53 119.05,366.31 150.18,381.25 159.29,384.81 169.61,387.57 249.76,394.79 420.32,400.56 425.59,400.26"
        fill="none"
        stroke="#e94560"
        stroke-width="8.0"
        stroke-linejoin="round"
        stroke-linecap="round"/>
  <!-- Start/finish line -->
  <line x1="424.48" y1="380.29" x2="426.70" y2="420.23"
        stroke="#f5f5f5" stroke-width="9.6"
        stroke-linecap="round"/>
</svg>
