<?xml version="1.0" encoding="utf-8"?>
<svg xmlns="http://www.w3.org/2000/svg"
     width="491.9" height="800.0"
     viewBox="0 0 491.9 800.0">
  <rect width="100%" height="100%" fill="#1a1a2e"/>
  <!-- Track outline -->
  <polyline points="304.88,495.12 307.20,511.75 314.41,539.84 324.70,566.41 337.95,591.77 360.22,622.24 380.67,649.74 387.03,662.16 391.26,673.91 393.88,685.20 394.90,696.81 393.76,710.20 390.71,722.84 387.93,729.34 384.47,735.03 380.55,740.15 375.77,745.01 370.45,749.13 364.82,752.57 355.22,756.72 345.00,759.20 333.48,760.00 321.63,758.97 309.21,756.04 296.92,751.25 285.13,744.75 273.64,736.22 261.12,724.16 249.99,710.55 243.30,699.71 238.22,688.35 234.99,677.44 233.32,666.25 233.55,655.86 235.52,644.60 245.05,619.76 254.84,594.41 257.41,581.12 257.99,568.73 256.67,556.47 253.06,543.80 241.15,520.38 223.65,494.60 145.60,406.61 74.79,318.68 48.11,278.63 43.37,268.07 40.63,257.94 40.00,251.57 40.12,245.14 41.06,239.12 43.13,233.36 46.12,228.02 49.57,223.35 53.96,218.98 58.94,215.38 63.94,212.64 68.29,210.90 72.64,209.87 77.27,209.49 83.43,209.81 90.00,211.06 96.38,213.22 102.37,216.18 108.21,220.07 113.86,224.96 122.82,235.55 130.91,248.42 137.39,262.48 143.35,279.30 152.47,315.92 162.45,351.95 170.60,368.42 179.46,381.03 188.18,390.07 197.39,396.86 203.69,400.40 210.17,403.10 216.66,404.87 222.92,405.65 229.16,405.58 235.27,404.65 241.11,402.98 246.82,400.50 252.20,397.25 257.02,393.42 261.55,388.88 265.51,383.64 270.19,374.89 273.54,364.98 275.31,354.43 275.45,343.13 273.38,329.01 268.52,314.08 251.47,287.86 232.83,262.70 224.93,249.74 218.89,237.09 214.77,223.32 212.41,208.91 212.02,194.24 213.53,179.70 217.16,165.31 222.57,151.77 230.05,138.67 239.26,126.61 252.12,113.35 267.81,100.20 300.65,75.97 334.19,54.74 350.81,46.79 365.61,42.03 377.66,40.00 389.19,40.06 396.50,41.25 403.70,43.35 410.57,46.37 419.85,52.35 428.33,60.14 435.63,69.31 441.82,79.96 446.64,91.54 450.06,104.54 451.91,121.40 451.80,139.32 449.49,157.82 445.28,176.70 429.26,223.19 405.22,269.65 341.53,362.76 332.89,375.34 317.10,397.44 310.49,414.46 305.78,434.06 303.09,457.90 303.24,483.18 304.88,495.12"
        fill="none"
        stroke="#e94560"
        stroke-width="8.0"
        stroke-linejoin="round"
        stroke-linecap="round"/>
  <!-- Start/finish line -->
  <line x1="324.69" y1="492.37" x2="285.07" y2="497.87"
        stroke="#f5f5f5" stroke-width="9.6"
        stroke-linecap="round"/>
</svg>
