<?xml version="1.0" encoding="utf-8"?>
<svg xmlns="http://www.w3.org/2000/svg"
     width="747.1" height="800.0"
     viewBox="0 0 747.1 800.0">
  <rect width="100%" height="100%" fill="#1a1a2e"/>
  <!-- Track outline -->
  <polyline points="187.98,220.83 153.97,261.21 104.76,330.45 80.62,372.62 60.10,420.73 43.98,469.19 40.78,490.51 40.00,509.93 40.78,552.01 47.74,594.45 54.20,615.14 62.65,635.01 72.95,653.62 85.09,670.98 98.87,686.71 114.20,700.92 148.71,725.11 186.99,744.08 207.65,750.83 228.95,755.77 272.98,760.00 317.43,756.76 338.52,752.45 361.03,745.61 445.25,707.04 484.94,681.14 538.84,632.94 606.01,562.80 629.80,525.40 682.77,409.13 692.78,369.65 705.99,282.07 707.06,257.16 705.64,234.14 701.23,210.94 693.99,188.37 683.48,166.43 671.06,145.93 645.49,112.84 629.30,96.92 611.41,82.53 591.17,69.67 569.44,58.97 546.29,50.70 522.51,44.77 499.71,41.26 477.27,40.00 456.68,41.26 436.30,44.59 393.13,56.82 375.23,64.28 355.42,75.52 289.88,122.64 217.52,185.76 187.98,220.83"
        fill="none"
        stroke="#e94560"
        stroke-width="8.0"
        stroke-linejoin="round"
        stroke-linecap="round"/>
  <!-- Start/finish line -->
  <line x1="203.28" y1="233.72" x2="172.69" y2="207.95"
        stroke="#f5f5f5" stroke-width="9.6"
        stroke-linecap="round"/>
</svg>
