<?xml version="1.0" encoding="utf-8"?>
<svg xmlns="http://www.w3.org/2000/svg"
     width="725.2" height="800.0"
     viewBox="0 0 725.2 800.0">
  <rect width="100%" height="100%" fill="#1a1a2e"/>
  <!-- Track outline -->
  <polyline points="685.17,538.31 685.11,458.03 683.60,448.37 681.48,440.52 678.90,432.27 675.16,423.51 664.28,405.36 652.40,388.66 642.82,378.69 620.87,361.90 608.73,355.80 592.13,350.27 583.46,348.43 571.50,349.24 559.25,352.54 544.14,356.76 459.72,395.70 446.35,400.53 439.37,402.25 432.27,403.31 425.17,403.52 418.16,402.85 413.70,401.95 409.32,400.59 405.20,398.66 401.02,395.76 397.10,392.19 393.81,388.21 391.18,383.92 389.14,379.27 387.94,374.46 387.60,370.75 387.74,366.88 388.34,363.08 389.46,359.54 391.75,355.41 394.95,351.63 399.22,347.76 418.19,336.50 437.77,325.75 444.55,320.67 449.93,315.63 454.71,310.16 458.66,304.24 461.49,297.96 463.27,291.35 463.72,286.82 463.64,282.19 463.04,277.66 461.12,270.84 458.09,264.31 453.88,258.12 448.81,252.38 436.22,242.09 143.17,53.92 129.03,46.83 114.72,41.93 107.42,40.60 100.10,40.00 92.94,40.12 85.90,40.97 79.18,42.57 72.74,44.89 66.64,47.85 60.95,51.75 54.97,57.70 49.84,64.46 46.41,70.57 43.78,76.94 41.75,83.82 40.49,90.89 40.00,98.05 40.31,105.21 41.46,112.43 43.46,119.46 46.38,126.14 50.13,132.42 54.65,138.22 59.89,143.50 65.96,148.34 72.60,152.63 87.54,159.75 104.53,164.80 181.03,181.95 210.62,192.37 223.70,199.17 230.40,204.00 236.44,209.59 239.64,213.54 242.39,217.77 244.48,222.21 245.77,226.71 246.42,231.36 246.40,235.95 245.65,240.45 244.22,244.89 242.13,249.06 238.98,253.35 235.09,257.34 230.86,260.54 224.53,263.26 217.75,265.07 202.90,268.09 195.45,270.26 188.56,273.50 184.35,276.85 180.57,280.90 177.63,285.25 175.77,289.41 174.59,293.85 174.05,298.35 174.11,303.13 174.82,307.99 176.17,312.70 179.63,319.80 184.32,326.38 189.62,331.91 196.86,337.77 262.97,379.93 359.35,452.81 407.66,495.52 414.39,499.90 420.39,502.89 427.18,505.66 434.16,507.72 441.34,508.87 448.61,509.08 455.37,508.29 462.89,506.24 482.47,496.60 502.42,487.15 511.12,485.37 519.04,485.13 527.26,486.06 535.35,488.00 551.21,494.01 564.00,501.16 570.21,505.85 575.96,511.01 580.71,516.17 584.92,521.79 589.07,528.56 592.31,535.78 593.65,540.46 594.51,545.23 594.65,550.06 594.05,555.38 592.71,560.72 590.47,565.50 588.07,568.61 585.09,571.45 581.80,573.89 578.40,575.82 574.13,577.46 569.61,578.36 564.40,578.81 548.12,577.24 531.78,575.58 523.96,576.37 517.21,578.33 512.86,580.48 508.77,583.19 505.13,586.46 501.90,590.47 499.15,595.03 496.92,599.71 494.75,606.33 493.51,613.15 493.20,620.22 493.57,627.38 495.75,641.91 500.18,656.98 507.25,672.02 510.60,677.55 515.18,683.53 535.30,704.94 560.54,727.74 582.83,742.94 602.55,753.81 609.50,756.86 615.92,758.67 624.19,759.91 632.66,760.00 640.53,758.76 648.00,756.29 652.49,753.93 656.73,751.00 660.59,747.62 665.88,741.15 670.20,734.00 673.12,727.41 675.41,720.65 678.96,706.09 685.17,545.98 685.17,538.31"
        fill="none"
        stroke="#e94560"
        stroke-width="8.0"
        stroke-linejoin="round"
        stroke-linecap="round"/>
  <!-- Start/finish line -->
  <line x1="665.17" y1="538.33" x2="705.17" y2="538.30"
        stroke="#f5f5f5" stroke-width="9.6"
        stroke-linecap="round"/>
</svg>
