<?xml version="1.0" encoding="utf-8"?>
<svg xmlns="http://www.w3.org/2000/svg"
     width="800.0" height="772.4"
     viewBox="0 0 800.0 772.4">
  <rect width="100%" height="100%" fill="#1a1a2e"/>
  <!-- Track outline -->
  <polyline points="229.65,191.83 160.78,260.02 83.04,348.61 64.09,382.08 52.35,413.09 45.04,440.69 41.04,470.15 40.00,521.66 43.22,569.24 46.26,584.69 51.04,598.60 61.39,622.91 76.35,648.04 100.78,675.75 130.43,699.96 152.17,712.63 175.48,722.83 199.65,729.73 238.35,732.41 276.43,729.52 305.74,724.68 334.17,717.16 400.52,691.20 469.57,652.06 577.91,569.86 672.70,480.14 707.74,434.72 732.00,389.70 741.83,365.50 749.74,339.54 756.43,302.77 759.83,269.81 760.00,260.33 758.87,250.85 751.04,215.42 739.48,178.65 732.17,163.92 723.13,150.32 703.57,124.57 682.26,100.77 670.43,90.47 658.17,81.92 619.57,60.91 598.35,52.26 576.61,45.56 556.09,41.65 534.35,40.00 499.83,41.55 467.48,45.87 442.52,53.70 387.83,77.49 307.22,129.72 229.65,191.83"
        fill="none"
        stroke="#e94560"
        stroke-width="8.0"
        stroke-linejoin="round"
        stroke-linecap="round"/>
  <!-- Start/finish line -->
  <line x1="242.95" y1="206.77" x2="216.36" y2="176.89"
        stroke="#f5f5f5" stroke-width="9.6"
        stroke-linecap="round"/>
</svg>
