<?xml version="1.0" encoding="utf-8"?>
<svg xmlns="http://www.w3.org/2000/svg"
     width="650.9" height="800.0"
     viewBox="0 0 650.9 800.0">
  <rect width="100%" height="100%" fill="#1a1a2e"/>
  <!-- Track outline -->
  <polyline points="51.68,501.48 47.99,522.34 40.65,564.34 40.00,586.78 43.18,603.40 49.15,619.46 56.98,633.62 64.56,643.15 73.03,650.93 82.49,657.47 92.60,662.39 102.98,665.62 113.57,667.16 123.71,667.07 133.93,665.10 142.02,662.23 150.25,658.24 158.07,652.83 169.72,639.88 180.55,624.59 191.34,607.52 202.10,591.98 210.81,583.79 219.96,577.66 230.00,572.90 240.52,569.79 251.22,568.42 261.91,568.78 272.08,570.80 282.16,574.71 293.81,581.78 305.62,591.98 339.27,637.74 378.51,687.29 404.37,708.55 433.09,726.59 468.51,743.34 502.19,755.12 519.03,758.91 534.29,760.00 549.73,758.55 564.04,754.79 570.84,751.85 577.02,748.22 582.66,743.94 587.57,739.26 591.98,733.97 595.60,728.29 598.20,722.47 600.11,716.34 601.07,710.13 601.03,704.08 600.11,698.02 598.47,692.29 596.01,686.89 592.80,681.80 588.80,677.12 582.69,671.84 575.45,667.16 567.76,663.52 559.64,661.18 551.03,660.01 541.26,659.65 511.51,663.64 482.51,667.40 471.04,666.23 461.20,663.40 451.77,659.17 443.17,653.44 438.28,649.08 433.84,644.16 430.12,638.75 427.22,633.10 424.96,627.05 423.53,620.83 422.98,614.58 423.25,608.20 424.28,601.99 426.16,595.90 428.86,589.97 432.13,584.52 436.13,579.35 440.78,574.67 446.10,570.48 457.48,564.26 471.58,559.46 502.63,555.95 534.36,552.16 550.89,546.39 565.24,538.48 578.66,527.95 590.31,515.16 599.43,500.71 606.12,484.77 609.88,467.91 610.94,450.52 609.09,432.80 604.55,415.70 597.17,399.64 587.40,385.19 575.21,372.80 561.24,362.72 545.80,354.89 528.90,349.56 506.80,346.54 483.61,346.74 461.34,349.97 437.05,357.27 335.48,410.65 289.61,431.84 271.26,436.96 254.05,439.54 241.00,439.58 228.71,437.85 217.09,434.50 206.16,429.58 196.53,423.32 187.96,415.70 180.92,407.06 175.25,397.38 171.22,387.33 168.80,376.36 168.22,366.79 168.70,356.58 170.34,346.66 173.51,336.81 177.95,327.25 182.97,318.74 190.25,309.58 198.89,301.83 211.90,293.32 227.07,286.29 246.98,280.48 269.35,276.97 336.02,277.86 469.26,288.03 486.07,286.38 499.18,282.95 509.09,278.67 517.73,273.06 522.65,268.78 527.09,263.94 530.77,258.70 533.51,253.33 535.56,247.60 536.79,241.79 537.16,236.18 536.75,230.45 535.49,224.84 532.72,218.26 528.76,211.81 524.08,206.12 518.38,201.28 511.85,197.28 504.68,194.14 495.94,191.35 486.30,189.70 474.45,189.33 416.15,199.87 352.72,215.20 290.56,228.15 273.31,228.63 257.70,226.62 242.68,221.82 229.22,214.92 220.34,208.26 213.03,200.43 209.10,194.78 205.79,188.65 203.26,182.27 201.66,175.82 200.77,169.12 200.73,162.50 201.55,156.01 203.16,149.63 205.48,143.62 208.56,138.01 212.31,132.80 216.58,128.20 221.43,124.21 226.83,120.82 232.43,118.20 238.37,116.26 244.56,115.09 250.77,114.65 259.62,115.29 269.42,117.83 284.04,125.10 300.77,134.94 315.36,141.76 322.05,143.25 327.96,143.62 333.77,143.13 339.64,141.96 345.45,139.95 350.74,137.16 355.39,133.65 359.59,129.41 363.11,124.61 365.81,119.37 367.86,113.56 369.15,107.63 369.63,101.53 369.36,95.32 368.33,89.31 366.56,83.54 364.03,77.97 360.75,72.72 355.76,66.87 349.68,61.43 342.61,56.70 325.64,49.76 305.52,44.96 275.12,40.77 245.07,40.00 227.78,42.30 212.04,47.06 196.16,54.49 180.82,64.77 163.81,80.47 148.31,99.27 135.77,118.88 124.98,143.42 96.05,281.17 53.12,493.45 51.68,501.48"
        fill="none"
        stroke="#e94560"
        stroke-width="8.0"
        stroke-linejoin="round"
        stroke-linecap="round"/>
  <!-- Start/finish line -->
  <line x1="71.37" y1="504.97" x2="31.99" y2="497.99"
        stroke="#f5f5f5" stroke-width="9.6"
        stroke-linecap="round"/>
</svg>
