<?xml version="1.0" encoding="utf-8"?>
<svg xmlns="http://www.w3.org/2000/svg"
     width="547.5" height="800.0"
     viewBox="0 0 547.5 800.0">
  <rect width="100%" height="100%" fill="#1a1a2e"/>
  <!-- Track outline -->
  <polyline points="106.16,639.59 71.13,603.87 61.95,591.42 54.58,578.74 48.39,565.00 43.74,550.57 40.98,535.96 40.00,521.08 41.05,506.12 43.80,491.39 48.00,477.12 53.70,463.53 60.91,450.85 69.52,439.27 79.03,429.40 91.25,419.76 131.26,398.20 171.20,376.26 183.43,366.20 192.96,355.23 203.61,338.45 212.26,319.50 218.00,299.84 221.27,279.38 222.39,258.84 220.62,237.36 212.23,207.06 201.09,176.81 182.64,131.41 179.69,117.86 178.58,105.75 179.00,97.32 180.41,89.46 182.71,81.72 185.88,74.35 189.95,67.48 194.80,61.30 200.24,55.91 206.66,51.24 216.95,46.07 228.45,42.28 240.22,40.23 252.63,40.00 268.00,41.94 285.73,46.76 326.04,65.62 371.58,86.35 418.48,96.68 458.52,105.03 471.10,110.27 481.00,116.38 490.01,124.16 497.38,132.70 501.38,139.27 504.23,146.02 506.26,153.08 507.38,160.30 507.51,167.40 506.72,174.38 505.02,181.10 502.43,187.48 498.99,193.44 494.83,198.79 489.84,203.53 484.27,207.44 478.41,210.44 471.56,212.57 442.66,213.86 403.53,215.42 391.38,218.57 380.50,223.46 370.21,230.26 360.77,239.26 350.51,253.87 341.93,270.80 335.93,287.09 332.00,306.52 331.74,359.10 333.47,414.90 330.16,472.11 326.79,487.97 322.17,501.18 319.22,507.14 315.91,512.38 312.14,516.90 307.78,520.73 303.00,523.96 298.28,526.31 294.61,527.53 291.04,528.21 287.40,528.44 283.76,528.40 280.09,527.95 276.13,526.85 266.00,521.53 255.06,513.90 242.31,502.29 229.83,491.54 224.13,488.24 218.59,485.89 213.05,484.44 207.54,483.95 202.01,484.33 196.73,485.47 191.88,487.25 187.29,489.76 183.13,492.87 179.56,496.51 176.41,500.73 173.92,505.36 172.12,510.45 171.01,515.91 170.71,521.72 171.37,528.71 173.24,536.15 176.78,545.48 222.95,620.76 269.94,696.23 275.41,709.89 277.70,720.79 278.03,726.56 277.64,732.02 276.52,737.15 274.72,741.89 272.20,746.30 269.18,750.13 265.45,753.47 261.12,756.17 256.53,758.14 251.52,759.47 246.21,760.00 240.71,759.62 233.76,757.80 226.55,754.65 219.14,750.36 205.38,738.93 189.46,723.48 106.16,639.59"
        fill="none"
        stroke="#e94560"
        stroke-width="8.0"
        stroke-linejoin="round"
        stroke-linecap="round"/>
  <!-- Start/finish line -->
  <line x1="91.94" y1="653.65" x2="120.38" y2="625.52"
        stroke="#f5f5f5" stroke-width="9.6"
        stroke-linecap="round"/>
</svg>
