<?xml version="1.0" encoding="utf-8"?>
<svg xmlns="http://www.w3.org/2000/svg"
     width="509.7" height="800.0"
     viewBox="0 0 509.7 800.0">
  <rect width="100%" height="100%" fill="#1a1a2e"/>
  <!-- Track outline -->
  <polyline points="110.60,407.33 109.19,402.76 46.66,200.06 40.15,157.25 40.00,141.08 41.14,126.48 42.78,116.65 45.19,107.75 48.27,99.49 52.35,91.48 59.80,80.73 68.17,71.01 74.48,65.14 81.41,60.30 92.72,54.57 105.73,49.69 123.92,44.64 142.58,41.19 156.99,40.00 171.52,40.41 191.44,43.10 211.22,47.64 226.15,52.62 239.47,58.59 248.21,63.78 256.53,70.09 268.23,80.94 279.84,93.56 299.29,120.47 306.84,134.43 313.22,149.47 319.04,167.86 322.71,186.04 323.21,197.84 322.07,208.76 319.34,219.30 315.58,228.55 312.30,234.11 308.55,238.64 304.18,242.57 299.41,245.64 296.11,247.21 292.70,248.40 288.98,249.18 283.69,249.59 277.97,249.39 272.38,248.37 267.12,246.52 262.00,243.90 257.25,240.62 253.08,236.90 249.23,232.54 245.87,227.39 241.75,216.50 238.35,203.88 234.55,186.82 230.07,170.45 224.91,160.22 218.72,151.52 211.07,143.26 202.52,136.40 193.03,131.19 183.12,127.71 176.69,126.38 170.20,125.83 163.89,126.14 158.13,127.33 152.54,129.31 147.22,131.97 142.33,135.18 137.71,139.00 133.63,143.47 130.33,148.24 127.52,153.56 125.51,159.29 124.39,165.06 124.07,171.23 124.57,178.91 148.44,269.55 204.21,449.98 245.35,529.19 260.46,564.19 269.23,592.88 278.27,618.67 282.24,625.18 286.32,630.10 290.74,634.16 295.36,637.43 300.31,639.85 305.62,641.63 312.73,642.85 320.35,643.09 327.61,642.48 333.40,641.25 338.91,639.34 344.43,636.58 354.49,629.38 363.53,620.61 367.33,615.94 370.54,611.03 372.97,605.67 374.56,599.91 375.38,593.70 375.33,586.81 371.90,568.38 364.60,547.71 347.23,516.33 326.34,485.18 290.27,437.70 282.94,425.01 277.67,412.72 274.25,400.58 272.56,388.33 272.80,376.94 274.72,366.16 278.29,356.61 282.89,348.52 286.74,343.75 291.21,339.93 296.06,336.82 301.55,334.09 307.24,332.08 313.25,330.85 319.48,330.34 325.70,330.58 335.24,332.32 344.60,335.73 353.57,340.71 361.89,347.26 369.05,354.87 375.36,364.15 386.76,392.94 437.61,536.25 464.82,605.09 468.24,619.86 469.71,632.52 469.71,640.88 468.54,648.89 465.36,659.47 460.72,669.77 454.53,679.25 447.67,687.34 442.23,692.52 436.22,696.82 427.01,701.73 415.23,706.44 340.90,726.94 307.88,743.08 279.54,756.73 267.94,759.42 257.75,760.00 247.59,759.22 238.27,757.03 232.36,754.61 226.84,750.99 219.44,744.17 212.24,735.27 204.86,723.23 198.28,708.45 185.38,654.73 153.06,544.20 110.60,407.33"
        fill="none"
        stroke="#e94560"
        stroke-width="8.0"
        stroke-linejoin="round"
        stroke-linecap="round"/>
  <!-- Start/finish line -->
  <line x1="91.50" y1="413.26" x2="129.71" y2="401.41"
        stroke="#f5f5f5" stroke-width="9.6"
        stroke-linecap="round"/>
</svg>
