<?xml version="1.0" encoding="utf-8"?>
<svg xmlns="http://www.w3.org/2000/svg"
     width="800.0" height="759.7"
     viewBox="0 0 800.0 759.7">
  <rect width="100%" height="100%" fill="#1a1a2e"/>
  <!-- Track outline -->
  <polyline points="40.03,624.53 40.00,635.28 40.12,643.54 40.84,652.65 42.56,660.48 45.60,669.41 49.64,677.76 54.04,684.63 59.31,690.92 66.35,697.39 74.48,703.18 84.31,708.44 95.52,712.65 112.45,716.22 146.46,719.73 161.59,719.67 172.70,718.11 182.92,715.35 191.79,711.82 200.35,707.13 210.07,700.18 220.60,691.03 265.88,643.49 419.15,475.29 469.30,418.56 473.36,411.96 475.85,406.12 477.88,399.43 479.03,392.53 479.26,385.46 478.55,378.40 476.78,371.67 474.23,364.86 466.53,347.94 464.57,341.28 463.42,334.89 463.13,329.29 463.46,323.79 464.35,318.24 465.83,312.80 467.93,307.53 470.62,302.52 473.86,297.93 477.70,293.62 482.83,288.95 488.42,284.85 493.58,281.99 498.94,279.81 504.63,278.19 510.48,277.20 516.43,276.87 522.38,277.19 534.11,279.82 552.51,285.14 556.30,285.70 559.96,285.85 566.61,285.57 573.08,284.79 579.16,283.04 588.03,279.08 597.16,273.54 606.42,266.08 617.07,255.70 753.23,105.07 755.37,101.80 756.53,99.37 758.33,94.35 759.62,88.46 760.00,82.44 759.39,76.44 757.87,70.58 755.46,64.93 752.29,59.64 748.46,54.77 743.99,50.48 738.86,46.83 733.07,43.90 722.21,40.58 717.62,40.00 682.25,41.33 616.78,46.34 460.61,55.64 171.23,75.15 157.64,77.79 147.44,81.10 134.33,86.57 121.75,93.36 110.90,100.90 101.14,109.31 93.24,117.69 86.23,126.89 79.24,138.26 73.23,150.55 68.36,163.29 64.55,177.27 59.10,221.08 49.53,441.72 40.03,624.53"
        fill="none"
        stroke="#e94560"
        stroke-width="8.0"
        stroke-linejoin="round"
        stroke-linecap="round"/>
  <!-- Start/finish line -->
  <line x1="60.00" y1="625.52" x2="20.05" y2="623.55"
        stroke="#f5f5f5" stroke-width="9.6"
        stroke-linecap="round"/>
</svg>
