<?xml version="1.0" encoding="utf-8"?>
<svg xmlns="http://www.w3.org/2000/svg"
     width="659.6" height="800.0"
     viewBox="0 0 659.6 800.0">
  <rect width="100%" height="100%" fill="#1a1a2e"/>
  <!-- Track outline -->
  <polyline points="153.00,314.44 80.62,436.69 51.08,498.13 46.69,509.74 43.69,521.75 40.25,551.40 40.00,584.14 43.86,611.03 50.83,636.11 60.23,658.09 72.25,678.22 88.29,698.73 107.41,716.88 134.62,734.19 163.30,747.37 185.45,755.10 208.35,759.49 242.24,760.00 275.39,756.56 295.13,752.45 312.93,745.97 329.18,736.95 344.94,724.77 362.58,707.24 383.46,680.64 498.76,503.82 603.06,318.72 614.10,283.95 618.49,258.64 619.55,250.35 619.43,242.01 615.53,212.53 606.92,178.66 590.54,144.73 571.10,114.91 556.90,97.32 541.27,82.89 518.09,67.67 492.89,55.50 466.92,46.76 444.27,41.41 436.93,40.23 429.71,40.00 410.13,40.85 387.20,44.79 358.81,55.67 331.19,70.38 311.09,83.91 293.16,99.75 263.78,139.77 153.00,314.44"
        fill="none"
        stroke="#e94560"
        stroke-width="8.0"
        stroke-linejoin="round"
        stroke-linecap="round"/>
  <!-- Start/finish line -->
  <line x1="170.02" y1="324.94" x2="135.98" y2="303.94"
        stroke="#f5f5f5" stroke-width="9.6"
        stroke-linecap="round"/>
</svg>
