<?xml version="1.0" encoding="utf-8"?>
<svg xmlns="http://www.w3.org/2000/svg"
     width="772.9" height="800.0"
     viewBox="0 0 772.9 800.0">
  <rect width="100%" height="100%" fill="#1a1a2e"/>
  <!-- Track outline -->
  <polyline points="78.88,402.31 78.20,397.16 40.57,158.31 40.00,136.37 41.86,118.99 45.99,101.75 52.48,85.97 58.31,76.56 65.19,68.01 72.97,60.58 82.12,54.13 92.17,48.98 102.66,44.95 118.90,41.17 137.62,40.00 181.44,43.01 225.23,50.68 244.51,57.04 260.87,65.44 276.10,76.07 289.38,88.94 296.35,98.16 302.35,108.16 306.92,118.74 309.88,129.47 311.58,140.69 311.99,151.95 310.24,168.46 305.30,186.22 286.02,222.97 266.82,260.01 261.96,278.95 260.38,296.62 261.19,314.19 264.76,330.99 268.85,341.33 274.20,351.09 280.51,359.88 288.13,368.03 296.80,375.12 306.07,380.90 316.32,385.27 327.22,388.18 338.27,389.73 349.65,389.93 361.20,388.76 372.50,386.19 389.31,379.59 404.50,370.46 414.62,361.72 423.33,351.19 432.16,336.43 440.02,318.08 449.58,279.14 459.62,239.77 469.30,219.33 480.16,202.54 490.57,189.77 501.95,179.04 514.47,170.01 528.36,162.63 547.72,155.44 567.65,150.64 583.20,148.99 598.23,149.47 612.93,151.80 627.55,156.46 644.73,165.11 660.89,176.81 674.09,190.79 685.07,207.00 693.13,223.65 698.96,243.56 703.90,336.77 710.75,530.37 722.05,589.02 731.69,637.66 732.86,661.45 731.00,681.40 728.41,691.31 724.76,700.34 720.11,708.30 714.23,715.29 707.35,721.31 699.89,726.16 691.71,730.00 682.88,732.62 673.57,734.08 661.94,734.27 649.63,732.86 637.15,729.90 617.79,721.89 594.50,708.15 484.41,626.59 376.55,547.46 357.47,537.32 341.63,531.78 330.29,529.26 318.91,527.95 307.85,528.09 297.69,529.60 287.85,532.36 278.57,536.49 270.02,541.93 262.04,548.63 255.44,555.96 251.27,562.32 248.03,569.06 245.48,576.54 243.17,586.20 241.79,596.79 241.83,608.34 249.12,636.98 257.67,665.67 260.18,682.57 260.34,698.10 258.76,708.05 256.01,717.72 252.08,726.60 246.77,734.76 240.25,742.09 233.04,748.20 224.62,753.20 215.38,756.89 206.39,759.17 199.06,760.00 191.89,759.71 184.52,758.40 175.41,755.58 166.05,751.36 157.26,746.07 145.35,736.02 135.02,723.74 126.80,710.14 120.28,693.88 109.99,631.93 78.88,402.31"
        fill="none"
        stroke="#e94560"
        stroke-width="8.0"
        stroke-linejoin="round"
        stroke-linecap="round"/>
  <!-- Start/finish line -->
  <line x1="59.06" y1="404.99" x2="98.70" y2="399.62"
        stroke="#f5f5f5" stroke-width="9.6"
        stroke-linecap="round"/>
</svg>
