<?xml version="1.0" encoding="utf-8"?>
<svg xmlns="http://www.w3.org/2000/svg"
     width="597.9" height="800.0"
     viewBox="0 0 597.9 800.0">
  <rect width="100%" height="100%" fill="#1a1a2e"/>
  <!-- Track outline -->
  <polyline points="95.30,377.11 104.53,391.08 122.85,413.88 139.94,430.52 151.37,438.51 162.74,444.00 175.51,448.37 188.69,450.78 202.00,451.14 215.17,449.31 223.63,446.85 231.89,443.37 239.68,438.95 246.70,433.69 253.29,427.53 259.07,420.61 265.36,410.00 270.71,397.19 277.49,371.22 284.85,345.61 292.04,333.11 299.83,323.48 306.15,317.23 313.20,312.23 324.80,306.70 336.91,302.95 345.63,301.92 353.63,302.10 359.34,302.82 364.69,304.02 369.71,305.58 374.56,307.64 379.00,310.04 383.22,312.90 386.96,315.98 390.67,319.86 396.69,328.43 401.94,337.62 403.91,342.39 405.28,346.99 406.32,351.72 406.92,356.58 406.86,366.49 406.35,371.22 405.08,376.57 398.06,393.84 387.60,412.81 374.99,427.98 359.18,443.42 280.64,513.87 272.24,524.54 266.59,534.89 262.15,547.65 259.81,561.53 260.11,577.28 263.15,593.56 270.24,612.75 281.54,633.32 314.91,678.83 352.19,720.60 370.68,736.26 388.30,747.15 405.58,754.73 422.47,759.06 431.16,760.00 439.52,759.82 448.95,758.30 478.24,748.62 507.53,734.66 523.58,724.08 536.65,712.35 545.35,701.64 551.90,689.86 555.94,676.78 557.85,664.82 557.85,660.50 557.08,656.35 554.11,647.24 550.16,638.23 547.22,632.96 544.01,628.55 540.40,624.93 536.12,621.72 527.39,616.81 518.33,612.93 510.71,611.37 499.00,610.57 476.43,611.06 444.24,610.74 438.28,609.49 433.57,607.80 424.11,603.43 419.86,600.70 415.85,597.63 412.17,594.23 408.73,590.49 405.55,586.38 402.81,581.92 400.70,577.23 399.10,572.33 397.96,567.60 397.29,562.82 397.13,558.14 397.43,553.45 398.20,548.77 399.43,544.17 401.07,539.62 403.38,534.98 408.79,527.39 415.48,520.03 431.10,508.21 444.44,500.22 457.38,491.52 464.80,483.53 470.52,475.63 473.23,471.39 475.53,466.26 481.52,447.21 486.10,419.95 474.96,258.42 460.25,132.41 454.84,111.35 448.25,94.75 440.73,81.72 431.90,70.70 421.13,60.84 409.23,52.85 396.36,46.78 382.82,42.77 373.12,40.89 363.19,40.00 353.63,41.25 343.03,43.08 335.64,45.98 326.88,51.29 317.35,58.43 306.65,69.41 294.18,85.83 281.91,105.24 255.16,150.84 243.29,165.21 231.05,176.76 219.65,184.79 207.78,190.86 195.21,195.28 181.80,197.96 145.56,197.69 108.98,194.83 95.04,196.53 82.06,200.28 69.79,206.61 59.76,213.57 56.42,216.52 53.71,219.64 50.60,223.75 47.69,228.79 43.78,238.38 40.84,248.33 40.03,253.33 40.00,258.73 41.00,272.61 45.12,290.23 71.33,340.74 95.30,377.11"
        fill="none"
        stroke="#e94560"
        stroke-width="8.0"
        stroke-linejoin="round"
        stroke-linecap="round"/>
  <!-- Start/finish line -->
  <line x1="112.00" y1="366.10" x2="78.61" y2="388.12"
        stroke="#f5f5f5" stroke-width="9.6"
        stroke-linecap="round"/>
</svg>
