<?xml version="1.0" encoding="utf-8"?>
<svg xmlns="http://www.w3.org/2000/svg"
     width="800.0" height="664.1"
     viewBox="0 0 800.0 664.1">
  <rect width="100%" height="100%" fill="#1a1a2e"/>
  <!-- Track outline -->
  <polyline points="438.88,161.26 445.19,163.44 475.32,173.68 589.36,213.43 744.21,265.43 752.07,268.87 753.51,269.72 754.74,270.64 756.42,272.15 757.91,273.80 758.73,275.06 759.34,276.35 759.75,277.65 759.98,278.99 760.00,280.35 759.83,281.72 759.42,283.16 758.83,284.62 756.93,288.05 753.75,292.77 695.05,374.01 638.94,460.66 623.78,486.95 620.34,495.20 617.92,503.62 615.19,529.73 613.86,549.14 613.25,551.76 612.36,553.95 610.62,556.75 608.09,559.85 605.33,562.67 603.98,563.65 602.69,564.28 601.60,564.54 600.45,564.62 596.81,564.26 591.82,563.36 547.46,555.89 497.59,552.70 445.10,553.25 387.95,556.47 314.87,564.12 275.20,572.58 244.88,584.63 207.94,603.29 185.96,620.11 182.29,622.46 180.08,623.35 177.70,623.92 175.01,624.10 172.18,623.84 168.78,622.93 164.97,621.43 149.01,613.44 145.19,610.86 142.04,608.25 139.55,605.78 137.45,603.09 135.75,599.99 134.48,596.63 133.19,588.96 130.07,563.99 119.69,528.04 82.01,429.97 53.14,356.39 46.39,334.94 42.26,316.78 40.37,301.80 40.00,286.56 41.34,268.10 49.97,193.43 53.93,138.65 54.65,134.92 55.56,132.13 56.84,129.37 58.49,126.78 60.69,124.09 63.45,121.43 74.33,113.53 95.57,98.47 171.51,45.00 176.49,42.33 180.31,40.87 183.39,40.19 185.90,40.00 188.37,40.02 191.14,40.51 194.15,41.40 196.87,42.69 199.50,44.40 202.40,46.84 205.46,50.10 218.82,68.60 233.94,87.00 238.00,90.39 243.99,94.18 251.68,97.88 297.70,112.88 339.34,126.07 396.98,146.11 433.73,159.48 438.88,161.26"
        fill="none"
        stroke="#e94560"
        stroke-width="8.0"
        stroke-linejoin="round"
        stroke-linecap="round"/>
  <!-- Start/finish line -->
  <line x1="445.43" y1="142.36" x2="432.34" y2="180.16"
        stroke="#f5f5f5" stroke-width="9.6"
        stroke-linecap="round"/>
</svg>
