<?xml version="1.0" encoding="utf-8"?>
<svg xmlns="http://www.w3.org/2000/svg"
     width="800.0" height="319.8"
     viewBox="0 0 800.0 319.8">
  <rect width="100%" height="100%" fill="#1a1a2e"/>
  <!-- Track outline -->
  <polyline points="727.40,40.00 728.05,42.95 729.25,48.09 730.14,52.63 730.55,54.79 731.03,56.93 731.75,60.37 732.26,62.74 732.59,64.64 732.81,66.08 732.95,67.45 732.99,68.14 732.96,68.81 732.87,69.36 732.70,70.00 732.38,70.76 731.86,71.83 731.36,72.75 730.35,74.45 730.04,75.18 729.85,75.87 729.76,76.34 729.70,76.91 729.67,77.54 729.81,78.31 729.95,78.82 730.48,80.35 730.80,81.10 731.10,81.79 731.65,82.95 732.04,83.66 732.45,84.33 734.91,88.46 739.22,94.75 740.47,96.47 741.45,97.95 741.91,98.63 742.28,99.20 742.73,100.03 743.33,101.13 743.80,102.18 744.13,102.92 744.66,104.25 745.18,105.82 745.60,107.42 745.83,108.83 746.01,110.21 746.19,112.31 746.27,114.29 746.15,115.41 745.91,117.08 745.48,119.28 745.07,120.81 744.50,122.87 743.39,127.02 742.41,130.74 741.65,133.68 741.32,134.96 739.60,141.28 734.52,159.62 733.22,164.31 732.72,166.12 732.26,168.01 731.68,169.71 731.28,170.73 730.68,172.17 729.67,174.45 727.77,178.40 727.40,179.45 727.16,180.29 726.99,181.09 726.86,181.96 726.82,182.50 726.85,183.17 726.89,183.88 727.01,184.53 727.21,185.23 727.56,186.08 727.95,186.72 728.35,187.25 728.86,187.75 729.29,188.15 730.42,189.02 734.23,191.62 734.98,192.16 737.12,193.74 737.65,194.19 738.13,194.66 738.67,195.25 739.13,195.81 739.66,196.56 740.07,197.12 740.51,197.91 740.89,198.64 741.13,199.27 741.55,200.79 741.71,201.46 741.93,202.84 742.06,204.12 742.03,205.68 741.92,207.06 741.45,209.98 740.96,213.54 740.96,214.38 741.03,215.15 741.13,215.92 741.36,217.11 741.61,218.01 741.94,218.89 742.39,219.77 743.66,222.16 747.54,229.41 748.96,232.08 750.52,234.77 752.07,237.32 756.15,244.22 757.73,247.03 758.33,248.10 758.81,249.18 759.26,250.39 759.59,251.65 759.82,253.00 759.94,254.13 760.00,255.32 759.89,256.64 759.67,257.67 759.33,258.56 758.91,259.38 758.34,260.23 757.74,261.00 757.16,261.65 756.63,262.15 755.55,262.98 750.55,266.43 736.89,275.93 734.60,277.51 733.55,278.17 732.37,278.76 730.97,279.34 729.70,279.65 729.00,279.76 728.03,279.84 726.87,279.81 725.65,279.69 724.73,279.55 723.46,279.21 722.58,278.93 721.68,278.54 720.64,278.06 718.97,277.14 710.74,272.15 703.56,267.80 700.14,265.70 699.41,265.23 698.40,264.59 697.35,263.84 696.10,262.87 695.02,261.90 693.50,260.27 692.42,259.06 691.39,257.88 689.99,256.17 688.80,254.66 686.14,251.49 682.86,247.57 679.54,243.60 675.25,238.37 671.97,234.36 667.72,229.24 664.82,225.76 664.35,225.09 663.86,224.16 663.31,223.01 662.96,221.85 662.72,220.82 662.63,220.19 662.48,219.10 662.39,217.82 662.38,216.50 662.43,213.85 662.47,211.37 662.51,209.03 662.44,207.31 662.29,205.85 662.13,204.80 661.89,203.75 661.54,202.48 661.27,201.61 660.99,200.89 660.44,199.57 659.91,198.53 659.44,197.66 658.92,196.75 658.36,195.85 657.59,194.79 656.20,193.05 654.53,191.17 653.89,190.45 648.67,184.46 643.22,178.44 640.41,175.29 639.43,174.30 638.64,173.49 637.87,172.75 636.95,171.91 635.90,171.00 635.08,170.31 633.94,169.47 632.53,168.43 631.07,167.44 627.48,165.07 614.78,156.81 612.68,155.49 611.20,154.54 609.56,153.37 606.73,151.36 605.35,150.32 603.96,149.25 602.47,147.98 599.55,145.30 589.14,135.42 588.06,134.43 584.73,131.27 583.57,130.09 582.59,128.97 581.65,127.68 580.80,126.18 580.19,124.69 579.65,122.89 579.39,121.66 579.27,120.38 579.17,118.46 579.20,116.48 579.42,114.18 580.08,111.29 580.41,110.12 581.39,106.65 582.29,103.20 583.12,100.02 583.52,98.46 583.71,97.50 583.82,96.30 583.89,95.06 583.88,92.94 583.79,90.80 583.60,88.98 583.23,86.93 582.91,85.64 582.52,84.38 581.88,82.92 581.34,81.80 580.74,80.88 579.90,79.71 579.17,78.95 578.17,78.08 577.04,77.25 575.89,76.63 574.86,76.16 572.59,75.40 568.67,74.20 567.20,73.72 565.95,73.17 564.66,72.40 563.61,71.64 562.87,70.99 562.25,70.31 561.62,69.57 560.86,68.55 558.92,65.79 557.74,64.05 557.14,63.23 556.64,62.65 555.94,61.95 555.33,61.38 554.48,60.65 553.42,59.87 552.69,59.46 552.14,59.20 551.63,59.04 551.04,58.90 550.39,58.86 549.77,58.86 549.10,58.88 548.31,59.06 547.62,59.27 546.89,59.53 546.00,59.93 545.23,60.36 544.66,60.72 543.77,61.29 542.16,62.49 538.05,65.57 536.63,66.59 535.01,67.71 533.83,68.39 532.24,69.19 530.46,69.95 528.25,70.77 523.16,72.66 507.13,78.64 490.55,84.93 474.24,91.19 467.06,93.96 461.84,96.11 459.60,97.20 457.93,98.02 453.30,100.42 448.84,103.02 445.98,104.78 444.19,105.86 442.82,106.65 440.90,107.57 439.29,108.25 435.54,109.69 429.93,111.69 424.67,113.55 410.59,118.61 398.41,123.01 395.97,123.88 391.43,125.49 388.91,126.39 386.35,127.32 382.50,128.70 381.32,129.03 380.65,129.14 380.12,129.22 379.40,129.32 378.58,129.28 377.65,129.14 376.62,128.92 375.68,128.63 374.30,128.06 372.54,127.33 368.58,125.74 367.73,125.44 366.62,125.15 365.43,124.92 364.53,124.86 363.39,124.75 362.14,124.81 361.10,124.86 359.86,125.03 358.99,125.23 358.03,125.48 357.06,125.77 355.96,126.18 350.14,128.47 345.55,130.29 342.71,131.39 341.50,131.83 340.37,132.17 339.33,132.39 337.98,132.55 336.77,132.57 335.60,132.49 334.48,132.25 333.42,131.88 332.28,131.41 329.82,130.04 325.57,127.54 323.07,126.07 321.58,125.28 321.10,125.07 320.53,124.86 319.92,124.72 319.33,124.65 318.66,124.65 318.02,124.70 317.42,124.78 316.42,125.00 314.84,125.44 308.47,127.19 302.73,128.73 299.23,129.71 297.74,130.20 296.52,130.67 295.09,131.34 293.66,132.09 292.24,133.02 291.07,133.88 290.00,134.83 288.60,136.19 286.81,138.17 281.85,144.34 278.57,148.29 274.23,153.58 272.60,155.40 271.70,156.25 270.90,156.85 270.11,157.30 269.19,157.68 268.30,157.95 267.48,158.12 266.54,158.28 265.01,158.48 263.93,158.52 262.78,158.57 261.17,158.51 259.97,158.36 257.83,157.91 255.13,157.30 251.97,156.48 250.23,156.07 249.52,155.93 248.76,155.84 247.74,155.76 245.67,155.66 239.68,155.44 234.21,155.33 233.16,155.36 232.36,155.41 231.50,155.63 230.75,155.94 229.99,156.41 229.25,156.92 227.58,158.21 224.56,160.46 223.37,161.22 221.94,162.03 219.96,162.93 218.20,163.54 216.78,163.94 215.60,164.24 214.37,164.49 212.83,164.74 211.15,164.85 209.10,164.94 207.25,164.88 205.15,164.63 201.95,164.18 199.29,163.60 197.25,163.20 196.10,162.89 195.14,162.58 194.06,162.17 193.27,161.78 192.38,161.26 191.90,160.92 191.34,160.43 190.64,159.71 189.78,158.66 187.23,155.47 186.74,154.88 186.12,154.27 185.53,153.81 184.87,153.39 184.22,153.06 183.65,152.83 183.21,152.71 182.67,152.60 181.76,152.56 181.11,152.57 180.50,152.65 179.43,152.83 177.87,153.20 176.42,153.53 175.81,153.63 174.69,153.73 173.76,153.75 172.35,153.68 170.80,153.48 170.18,153.37 169.66,153.25 168.12,152.89 166.54,152.37 165.60,151.97 164.19,151.33 162.85,150.61 161.47,149.74 160.25,148.92 156.76,146.30 154.03,144.02 150.82,141.38 149.91,140.73 149.03,140.21 148.23,139.81 147.49,139.46 146.42,139.08 144.84,138.69 143.30,138.37 141.61,138.08 140.90,138.00 138.39,137.74 135.21,137.49 133.42,137.36 129.15,137.15 127.70,137.16 126.25,137.20 124.77,137.35 123.14,137.62 121.00,138.09 117.85,138.83 109.36,140.72 107.24,141.13 105.83,141.32 104.59,141.44 103.62,141.45 102.43,141.40 101.39,141.31 100.03,141.13 98.16,140.82 95.83,140.29 93.86,139.84 86.85,138.27 76.81,136.00 74.47,135.50 73.56,135.32 72.73,135.19 72.15,135.16 71.64,135.21 71.13,135.25 70.64,135.38 70.21,135.52 69.74,135.69 69.43,135.86 69.07,136.08 68.62,136.38 68.28,136.62 67.77,137.04 65.84,138.78 64.74,139.89 60.15,144.27 56.80,147.45 56.03,148.08 55.33,148.61 54.27,149.29 53.24,149.78 52.53,150.09 51.57,150.36 50.27,150.57 49.35,150.66 47.97,150.67 44.46,150.52 40.71,150.37 40.00,150.29"
        fill="none"
        stroke="#e94560"
        stroke-width="8.0"
        stroke-linejoin="round"
        stroke-linecap="round"/>
  <!-- Start/finish line -->
  <line x1="724.32" y1="20.24" x2="730.49" y2="59.76"
        stroke="#f5f5f5" stroke-width="9.6"
        stroke-linecap="round"/>
</svg>
