<?xml version="1.0" encoding="utf-8"?>
<svg xmlns="http://www.w3.org/2000/svg"
     width="800.0" height="753.1"
     viewBox="0 0 800.0 753.1">
  <rect width="100%" height="100%" fill="#1a1a2e"/>
  <!-- Track outline -->
  <polyline points="364.40,454.62 372.14,444.97 413.28,397.99 433.63,378.53 454.45,361.95 473.89,349.34 494.12,339.13 515.65,331.30 537.90,325.80 582.51,321.49 625.14,322.72 666.87,322.52 687.42,318.49 704.72,312.16 718.04,304.76 729.42,295.62 738.58,284.91 746.17,272.53 753.32,256.55 758.18,239.22 760.00,221.39 758.78,202.99 753.68,182.55 744.35,160.75 719.86,121.32 691.29,84.10 673.82,65.27 656.87,51.39 648.14,46.45 639.49,42.89 631.23,40.71 624.87,40.00 618.74,40.24 613.01,41.38 609.10,42.81 605.35,44.71 601.87,47.04 598.87,49.77 596.30,52.97 594.09,56.65 592.39,60.61 591.28,64.56 590.77,68.64 590.81,72.83 591.44,77.06 592.70,81.13 595.82,86.79 600.37,92.25 606.34,98.06 633.76,116.97 662.40,136.67 673.74,147.94 682.48,159.96 690.97,177.29 696.86,195.00 699.19,206.87 699.51,217.94 698.56,224.75 696.74,231.31 693.97,237.17 691.29,240.92 688.01,244.37 684.37,247.33 680.54,249.74 676.59,251.52 672.40,252.87 668.01,253.58 663.59,253.66 658.33,252.83 652.84,251.17 647.51,248.76 642.69,245.83 637.12,241.00 632.30,235.07 628.03,228.07 621.63,209.88 616.49,190.06 607.09,159.25 598.63,145.33 586.89,131.88 560.14,110.28 530.87,91.58 513.84,82.95 497.99,77.85 489.10,76.82 480.45,77.02 472.58,78.44 466.46,80.78 460.89,84.06 456.19,87.82 452.87,91.34 450.18,95.25 448.09,99.64 446.27,105.58 445.20,112.10 445.16,118.59 446.39,124.92 448.68,131.21 451.84,137.30 456.66,144.22 462.67,150.90 469.07,156.52 477.64,161.86 488.19,165.89 519.17,170.80 549.83,176.14 556.98,179.22 562.71,182.74 567.73,186.90 572.28,191.76 576.11,197.26 578.91,203.11 580.53,209.20 581.13,215.57 580.77,221.82 579.39,227.83 577.06,233.69 573.86,238.91 569.71,243.46 564.69,247.41 559.24,250.58 553.27,252.95 546.83,254.49 540.07,255.24 531.85,255.20 523.16,254.06 514.11,251.56 495.15,241.32 474.52,227.67 415.33,190.97 407.63,188.20 400.83,186.70 394.23,186.14 387.83,186.42 381.55,187.53 375.78,189.55 371.91,191.60 368.23,194.13 364.91,197.06 362.23,200.34 360.13,204.06 358.55,208.21 357.52,212.57 357.05,216.84 357.13,220.99 357.68,225.22 358.83,229.30 360.53,232.97 362.86,236.22 365.78,239.11 369.30,241.72 373.45,244.05 392.81,248.76 413.55,252.55 421.53,254.89 428.73,257.46 434.93,261.06 440.03,266.04 444.25,271.97 447.42,278.10 449.27,283.48 450.30,288.98 450.50,294.72 449.67,301.56 447.73,308.64 444.69,315.72 435.72,327.98 423.19,341.78 358.31,413.73 284.86,532.78 249.26,580.99 233.30,596.77 216.31,609.98 197.81,620.66 177.23,629.40 116.81,644.87 87.57,650.21 63.19,656.42 57.19,659.78 52.49,663.50 48.53,667.69 45.02,672.32 42.13,677.38 40.40,682.60 40.00,686.52 40.20,690.55 40.95,694.55 42.17,698.15 43.83,701.31 45.97,704.28 48.50,706.93 51.38,709.06 56.16,711.28 61.73,712.54 68.53,713.06 97.89,710.01 131.00,702.46 156.40,693.68 179.76,682.25 199.00,669.63 218.16,652.50 298.14,547.65 327.14,502.48 342.90,481.52 364.40,454.62"
        fill="none"
        stroke="#e94560"
        stroke-width="8.0"
        stroke-linejoin="round"
        stroke-linecap="round"/>
  <!-- Start/finish line -->
  <line x1="348.78" y1="442.13" x2="380.02" y2="467.12"
        stroke="#f5f5f5" stroke-width="9.6"
        stroke-linecap="round"/>
</svg>
