<?xml version="1.0" encoding="utf-8"?>
<svg xmlns="http://www.w3.org/2000/svg"
     width="800.0" height="307.7"
     viewBox="0 0 800.0 307.7">
  <rect width="100%" height="100%" fill="#1a1a2e"/>
  <!-- Track outline -->
  <polyline points="693.45,232.16 606.65,238.16 611.10,245.70 616.40,254.75 617.12,256.07 617.90,257.54 618.69,259.02 619.45,260.41 620.12,261.58 620.65,262.43 621.51,263.55 622.22,264.43 623.21,265.33 624.28,266.00 625.24,266.48 625.70,266.70 626.22,266.90 627.09,267.23 628.20,267.47 635.53,267.73 645.25,267.52 651.66,266.28 656.68,264.28 660.88,262.32 668.22,259.16 674.09,257.08 676.01,256.04 677.89,254.61 679.46,253.10 683.59,247.15 685.68,243.77 686.02,243.18 686.37,242.58 686.76,242.03 692.33,233.99 693.32,232.40 694.28,230.64 695.22,228.95 696.02,227.58 698.98,223.05 701.88,219.17 703.19,217.21 704.51,215.50 705.73,214.00 710.82,207.66 716.39,201.77 726.73,190.63 732.94,183.57 737.00,179.82 741.24,176.74 752.27,170.00 754.54,168.12 756.33,166.26 757.51,164.68 758.47,163.01 759.23,161.30 759.77,159.58 759.98,158.21 760.00,156.91 759.86,155.86 759.58,154.89 759.18,153.96 758.64,153.11 757.85,152.20 756.85,151.41 754.97,150.47 752.83,149.67 748.32,148.14 744.88,146.33 742.30,144.37 739.43,141.37 734.74,136.21 726.72,130.48 723.94,128.29 721.52,125.73 716.05,118.90 714.27,117.23 712.33,115.82 704.47,111.88 699.57,109.78 688.29,103.47 683.55,100.10 676.63,94.09 675.20,93.21 673.77,92.58 668.35,91.18 660.10,89.66 650.78,87.27 647.34,86.00 644.18,84.15 641.94,82.28 639.56,79.51 637.22,75.83 635.80,72.84 635.31,71.32 634.97,69.77 634.76,66.69 634.95,64.00 635.07,61.39 634.91,60.10 634.59,58.97 634.07,57.83 633.40,56.81 632.52,55.86 631.52,55.08 630.38,54.42 629.10,53.92 627.22,53.52 624.78,53.26 613.94,52.72 603.56,52.74 601.95,52.96 600.70,53.34 599.36,53.89 598.13,54.61 597.25,55.31 596.46,56.15 595.64,57.30 594.94,58.61 594.46,59.99 594.16,61.44 594.02,62.92 594.09,64.52 594.54,67.10 595.38,70.09 600.14,81.72 604.49,90.16 605.42,91.53 606.40,92.64 608.12,94.10 610.15,95.50 616.00,99.04 616.80,99.73 617.39,100.42 617.80,101.07 618.10,101.77 618.29,102.51 618.35,103.28 618.30,103.78 618.19,104.28 618.03,104.76 617.79,105.24 617.50,105.67 617.16,106.07 616.52,106.64 615.80,107.09 615.00,107.45 614.12,107.69 613.02,107.81 611.67,107.84 603.40,107.62 601.10,107.92 599.07,108.43 597.42,109.04 595.80,109.88 591.71,113.02 587.47,116.68 583.94,118.91 578.62,121.21 570.17,124.27 568.89,124.58 567.79,124.71 566.63,124.69 565.53,124.51 564.70,124.22 563.95,123.81 563.27,123.26 562.67,122.60 562.17,121.87 561.77,121.00 561.46,119.83 561.21,118.49 560.53,114.26 560.16,113.29 559.71,112.50 559.15,111.77 558.48,111.16 557.55,110.58 556.55,110.16 555.68,109.95 554.80,109.89 553.90,109.97 553.01,110.19 552.21,110.50 551.33,111.03 549.19,113.09 547.02,115.35 544.98,117.13 544.13,117.65 543.27,118.02 542.36,118.25 541.43,118.34 540.49,118.29 539.56,118.12 538.64,117.82 537.74,117.40 536.91,116.84 536.14,116.15 535.49,115.37 534.95,114.49 534.56,113.54 534.29,112.53 534.17,111.48 534.18,110.37 534.67,107.34 537.27,97.50 537.42,96.08 537.36,94.88 537.11,93.63 536.68,92.46 536.06,91.36 535.29,90.39 534.35,89.53 533.32,88.83 532.16,88.29 530.99,87.94 529.98,87.77 528.97,87.76 527.81,87.93 526.49,88.37 523.41,90.18 520.30,92.21 517.52,93.80 516.33,94.29 515.14,94.63 513.92,94.82 512.69,94.85 511.51,94.74 510.29,94.48 506.71,93.23 500.62,90.24 495.21,87.15 490.60,83.82 484.39,78.95 482.20,77.75 480.17,76.91 478.71,76.50 477.26,76.29 475.51,76.25 473.58,76.46 466.89,78.55 451.67,84.70 450.23,85.52 449.12,86.36 448.07,87.37 447.14,88.53 446.44,89.77 445.91,91.14 445.59,92.49 445.44,94.03 445.91,99.96 445.98,103.22 445.81,104.46 445.52,105.61 445.10,106.71 444.53,107.78 443.68,109.05 442.66,110.29 439.59,113.06 429.45,121.77 427.67,123.58 426.27,125.36 425.24,127.25 424.29,129.45 421.28,138.13 420.69,139.23 420.10,140.07 419.35,140.92 418.52,141.66 417.57,142.33 416.55,142.87 415.43,143.28 414.27,143.54 413.06,143.65 411.84,143.62 410.63,143.45 409.40,143.12 406.39,141.77 390.71,132.21 387.86,130.92 385.36,130.09 383.01,129.55 380.64,129.30 377.89,129.36 375.11,129.73 372.49,130.35 369.71,131.36 364.60,133.98 359.84,136.89 358.06,138.18 356.66,139.45 355.75,140.56 355.01,141.77 354.44,143.04 354.05,144.39 353.90,145.78 353.95,147.19 354.19,148.58 354.66,150.08 356.21,153.43 357.74,156.71 358.13,158.00 358.34,159.18 358.38,161.69 358.04,165.04 357.80,168.37 357.94,169.68 358.26,170.85 359.02,172.59 360.12,174.45 365.32,181.05 367.24,184.39 368.29,187.22 368.86,190.14 368.93,193.92 368.20,199.61 366.65,206.43 364.68,212.44 361.65,219.58 359.05,224.65 358.33,225.68 357.60,226.50 356.76,227.26 355.88,227.84 355.13,228.16 354.38,228.34 353.60,228.38 352.81,228.29 352.02,228.06 351.27,227.69 350.58,227.17 349.96,226.53 349.42,225.81 348.99,224.99 348.69,224.13 348.50,223.18 348.43,222.06 348.48,220.73 349.25,213.54 349.15,211.86 348.86,210.39 348.37,208.86 347.70,207.43 346.82,206.05 345.80,204.81 344.61,203.64 343.31,202.64 341.88,201.77 340.41,201.10 339.12,200.68 337.84,200.42 336.57,200.30 335.22,200.35 330.72,201.37 326.28,202.83 324.70,203.10 323.25,203.20 322.07,203.16 320.95,202.97 319.88,202.64 318.86,202.17 317.96,201.59 316.96,200.80 310.80,195.31 302.62,190.17 297.58,186.83 285.78,177.74 283.07,176.17 280.45,175.02 276.75,173.79 272.82,172.85 264.77,171.93 254.50,172.12 250.56,171.75 235.43,169.05 227.28,168.46 226.28,168.25 225.46,167.95 224.62,167.51 223.83,166.97 223.16,166.34 222.58,165.61 222.15,164.85 221.82,163.99 221.57,162.92 221.40,161.60 221.06,153.60 220.57,151.04 219.84,148.69 218.78,146.33 217.30,143.84 208.42,132.28 202.10,124.71 199.67,122.41 197.08,120.40 188.79,115.65 182.69,112.24 176.50,108.13 173.20,105.44 170.91,103.00 169.00,100.29 167.11,96.51 165.43,91.49 158.71,69.03 155.42,61.95 149.57,53.43 144.43,47.87 140.75,44.68 137.28,42.10 135.85,41.30 134.49,40.78 132.77,40.30 130.57,40.00 109.67,40.40 77.45,42.00 63.70,43.58 49.03,46.71 45.84,47.50 41.64,48.27 40.00,48.47 164.30,87.72"
        fill="none"
        stroke="#e94560"
        stroke-width="8.0"
        stroke-linejoin="round"
        stroke-linecap="round"/>
  <!-- Start/finish line -->
  <line x1="699.80" y1="213.20" x2="687.10" y2="251.13"
        stroke="#f5f5f5" stroke-width="9.6"
        stroke-linecap="round"/>
</svg>
