<?xml version="1.0" encoding="utf-8"?>
<svg xmlns="http://www.w3.org/2000/svg"
     width="800.0" height="584.8"
     viewBox="0 0 800.0 584.8">
  <rect width="100%" height="100%" fill="#1a1a2e"/>
  <!-- Track outline -->
  <polyline points="40.00,544.78 43.05,542.79 72.79,521.38 82.75,513.60 87.66,508.15 96.14,495.00 101.37,482.94 104.77,475.81 114.87,457.44 121.14,443.76 128.36,428.23 135.86,413.86 138.98,409.02 142.62,404.73 146.83,400.97 151.39,397.73 153.86,396.42 157.87,394.96 166.34,392.68 173.47,391.42 184.38,390.53 187.27,389.80 189.79,388.82 191.78,387.81 193.79,386.45 197.45,383.42 200.88,379.98 203.68,375.70 206.32,371.05 210.35,365.60 216.04,359.28 222.46,353.31 228.36,348.80 233.45,345.76 250.32,337.66 255.90,334.58 260.24,332.75 269.29,330.16 281.59,327.12 287.30,326.08 290.04,325.88 294.07,326.10 304.25,327.97 313.32,330.44 316.35,330.76 319.13,330.72 321.34,330.42 323.63,329.77 327.94,327.97 332.23,325.66 334.76,323.88 337.01,321.89 341.19,316.93 345.65,310.64 348.07,308.07 352.59,304.68 354.50,303.51 356.57,302.59 363.61,300.31 376.40,292.98 386.80,287.00 391.29,285.03 395.93,283.86 401.64,283.11 411.42,283.12 415.14,282.57 418.95,281.59 431.45,276.77 433.77,275.54 435.94,274.03 444.60,265.50 453.71,256.18 460.57,250.20 469.14,243.40 474.28,239.96 480.80,236.41 484.70,234.67 489.99,233.08 507.01,228.91 516.76,224.39 537.67,212.54 540.50,210.46 542.90,208.22 549.95,199.38 553.83,194.97 566.66,181.98 571.73,175.20 575.24,168.66 576.08,166.41 576.65,164.09 577.00,161.03 577.04,157.84 576.78,154.83 576.17,151.74 574.77,147.35 572.91,142.89 568.08,134.31 560.93,124.73 555.54,117.15 543.62,97.96 538.41,91.96 531.70,86.44 520.09,79.61 513.21,76.46 512.63,76.09 512.19,75.72 511.79,75.30 511.45,74.83 511.20,74.35 511.03,73.77 510.90,72.64 510.92,71.44 511.03,70.61 511.25,69.87 511.62,69.14 512.06,68.51 512.46,68.11 512.89,67.79 513.37,67.53 513.90,67.34 514.71,67.20 515.60,67.18 516.69,67.32 517.84,67.63 519.18,68.18 520.71,69.01 524.51,71.67 528.20,74.18 529.40,74.71 530.41,74.99 531.28,75.07 532.11,75.02 532.92,74.84 533.70,74.54 534.14,74.27 534.56,73.96 534.93,73.58 535.23,73.19 535.49,72.75 535.70,72.28 535.86,71.81 535.97,71.31 536.01,70.82 535.99,70.32 535.91,69.83 535.77,69.36 535.56,68.90 535.28,68.45 534.96,68.04 534.22,67.30 533.14,66.57 527.20,63.85 519.88,61.19 509.12,58.76 497.92,58.07 487.31,59.20 477.56,60.84 470.26,61.25 463.24,60.96 455.15,60.01 453.06,59.59 451.27,59.06 449.97,58.48 448.91,57.85 448.43,57.47 448.05,57.05 447.74,56.59 447.49,56.08 447.33,55.55 447.25,54.97 447.26,54.11 447.39,53.23 447.65,52.49 447.99,51.83 448.41,51.28 448.85,50.83 449.09,50.66 449.33,50.53 449.59,50.43 449.87,50.35 450.16,50.31 450.52,50.30 451.77,50.46 453.37,50.85 456.92,52.29 460.59,53.70 462.46,54.05 464.30,54.12 467.13,53.93 470.34,53.34 481.03,49.60 490.54,46.02 499.55,43.41 509.11,41.50 517.90,40.45 528.59,40.00 536.32,40.25 547.27,41.53 555.41,43.15 565.34,45.92 571.15,48.14 576.21,50.82 583.11,55.07 583.73,55.67 584.22,56.22 584.82,56.69 586.96,57.32 589.47,57.74 594.90,59.03 597.35,60.05 599.46,61.24 600.37,62.00 601.25,62.95 603.64,66.04 606.24,69.22 607.87,70.60 609.60,71.65 612.22,72.80 615.60,73.89 640.62,80.03 670.26,86.58 672.55,86.88 674.17,87.18 675.04,87.59 675.87,88.14 677.29,89.43 678.97,90.77 681.57,91.72 684.63,92.55 695.55,96.25 713.51,102.10 729.25,106.27 734.08,107.96 736.07,108.89 737.90,109.97 739.29,111.01 740.57,112.22 741.80,113.64 743.07,115.43 747.91,124.48 752.60,133.35 756.90,141.62 757.52,143.33 757.91,144.89 758.13,146.39 758.19,147.85 758.09,149.13 757.83,150.44 756.46,154.32 748.36,170.57 747.82,172.24 747.57,173.68 747.49,175.30 747.61,176.84 747.85,177.91 748.25,178.90 748.98,180.16 750.00,181.44 755.18,186.08 760.00,190.67"
        fill="none"
        stroke="#e94560"
        stroke-width="8.0"
        stroke-linejoin="round"
        stroke-linecap="round"/>
  <!-- Start/finish line -->
  <line x1="48.96" y1="562.67" x2="31.04" y2="526.90"
        stroke="#f5f5f5" stroke-width="9.6"
        stroke-linecap="round"/>
</svg>
