<?xml version="1.0" encoding="utf-8"?>
<svg xmlns="http://www.w3.org/2000/svg"
     width="478.6" height="800.0"
     viewBox="0 0 478.6 800.0">
  <rect width="100%" height="100%" fill="#1a1a2e"/>
  <!-- Track outline -->
  <polyline points="411.20,367.70 402.83,312.74 386.19,239.55 374.18,203.47 359.72,167.77 340.21,127.88 317.80,95.56 305.61,82.28 292.51,70.69 278.78,61.11 264.27,53.39 249.04,47.62 233.17,43.59 215.25,40.93 197.11,40.00 179.97,40.76 163.19,43.21 147.09,47.40 131.45,53.28 116.35,60.84 101.84,70.09 87.52,80.65 74.42,93.76 62.33,113.46 52.32,135.61 45.37,157.11 41.77,180.34 40.00,222.35 42.96,272.74 106.25,586.52 120.26,638.16 137.59,677.94 157.32,703.19 177.06,723.16 192.47,736.65 200.16,741.44 210.25,746.78 228.58,752.54 257.95,757.99 300.06,760.00 325.62,756.52 344.58,752.60 354.63,748.74 365.54,743.89 374.86,738.56 383.73,732.14 392.33,724.52 403.42,712.77 415.61,695.08 427.43,674.84 433.16,657.26 436.66,642.68 438.62,610.51 437.30,577.05 427.30,485.57 411.20,367.70"
        fill="none"
        stroke="#e94560"
        stroke-width="8.0"
        stroke-linejoin="round"
        stroke-linecap="round"/>
  <!-- Start/finish line -->
  <line x1="391.40" y1="370.51" x2="431.00" y2="364.90"
        stroke="#f5f5f5" stroke-width="9.6"
        stroke-linecap="round"/>
</svg>
