<?xml version="1.0" encoding="utf-8"?>
<svg xmlns="http://www.w3.org/2000/svg"
     width="485.1" height="800.0"
     viewBox="0 0 485.1 800.0">
  <rect width="100%" height="100%" fill="#1a1a2e"/>
  <!-- Track outline -->
  <polyline points="411.79,365.43 384.91,223.56 359.30,145.95 347.98,120.55 333.83,98.28 318.56,82.24 300.62,67.80 281.93,56.66 256.98,48.11 228.54,41.60 203.37,40.00 181.40,41.60 161.97,46.15 141.19,53.63 121.09,64.50 102.40,78.67 85.72,96.14 71.50,115.74 61.45,134.28 53.48,153.79 47.22,174.38 42.90,195.67 40.22,215.72 40.00,239.69 50.20,326.22 70.46,428.07 99.35,525.64 132.71,611.63 155.57,654.94 177.83,688.45 191.38,705.64 205.23,719.63 221.24,732.55 238.44,743.25 256.76,751.45 276.27,757.06 299.65,760.00 323.55,759.47 338.97,757.06 354.23,753.05 368.68,747.17 382.08,739.33 394.74,729.61 406.06,718.48 419.61,699.85 430.26,679.18 437.33,658.15 441.95,636.32 444.78,617.69 445.08,593.72 421.02,413.99 411.79,365.43"
        fill="none"
        stroke="#e94560"
        stroke-width="8.0"
        stroke-linejoin="round"
        stroke-linecap="round"/>
  <!-- Start/finish line -->
  <line x1="392.14" y1="369.15" x2="431.44" y2="361.70"
        stroke="#f5f5f5" stroke-width="9.6"
        stroke-linecap="round"/>
</svg>
