<?xml version="1.0" encoding="utf-8"?>
<svg xmlns="http://www.w3.org/2000/svg"
     width="800.0" height="689.6"
     viewBox="0 0 800.0 689.6">
  <rect width="100%" height="100%" fill="#1a1a2e"/>
  <!-- Track outline -->
  <polyline points="318.91,521.45 321.30,523.18 434.48,603.60 468.37,623.34 499.55,637.70 525.06,645.67 550.13,649.63 575.56,649.22 601.82,645.26 635.68,636.64 667.43,625.07 685.14,616.04 700.75,605.18 716.73,590.87 730.77,573.51 741.92,551.85 750.30,526.78 757.32,490.50 760.00,454.93 758.68,436.15 754.51,418.04 741.75,385.61 725.98,354.71 715.28,337.81 705.17,324.57 693.28,312.69 593.48,215.06 507.56,150.26 418.00,94.24 368.70,68.42 321.30,48.83 291.24,42.13 261.81,40.00 224.23,41.17 186.08,47.56 148.63,60.40 115.93,77.50 99.91,90.24 86.49,105.66 70.06,130.78 56.27,159.40 47.35,187.97 41.98,216.23 40.00,237.39 40.91,257.28 45.04,274.94 52.14,292.65 67.04,320.36 84.88,346.29 97.43,360.14 113.95,374.30 318.91,521.45"
        fill="none"
        stroke="#e94560"
        stroke-width="8.0"
        stroke-linejoin="round"
        stroke-linecap="round"/>
  <!-- Start/finish line -->
  <line x1="330.57" y1="505.21" x2="307.24" y2="537.70"
        stroke="#f5f5f5" stroke-width="9.6"
        stroke-linecap="round"/>
</svg>
