<?xml version="1.0" encoding="utf-8"?>
<svg xmlns="http://www.w3.org/2000/svg"
     width="464.5" height="800.0"
     viewBox="0 0 464.5 800.0">
  <rect width="100%" height="100%" fill="#1a1a2e"/>
  <!-- Track outline -->
  <polyline points="53.51,353.04 40.00,194.65 40.17,170.98 42.27,152.58 45.98,137.58 51.47,124.08 58.79,111.97 67.75,101.25 78.38,91.99 90.22,84.38 103.16,78.56 116.80,74.50 130.97,72.09 145.85,71.54 183.73,77.32 231.41,84.64 251.74,83.21 272.80,78.31 308.78,61.92 342.01,45.49 354.75,41.57 367.49,40.00 379.36,40.51 390.49,43.70 400.42,48.67 409.95,56.10 416.33,62.65 420.58,70.07 423.22,76.95 424.29,83.36 424.46,91.30 423.22,99.09 420.41,109.19 415.67,119.36 408.54,132.16 402.29,140.65 394.84,148.04 383.84,156.16 369.69,163.66 333.18,176.62 294.73,186.53 275.84,189.61 258.53,190.30 240.60,188.62 223.05,184.81 190.79,171.93 166.05,158.98 142.17,147.93 133.75,145.96 126.13,145.12 119.21,145.19 114.32,145.85 109.84,147.02 105.56,148.77 99.15,152.73 93.59,157.30 91.46,159.27 89.68,161.25 88.25,163.41 86.94,167.21 86.24,171.24 85.84,175.01 85.80,178.74 86.17,182.32 86.94,185.84 88.11,189.24 89.62,192.53 91.32,195.72 93.86,198.90 99.35,203.22 106.70,207.68 114.59,211.63 129.50,215.87 144.21,220.12 154.08,225.53 162.77,232.27 170.86,240.68 178.15,250.96 186.61,267.21 193.70,286.31 203.46,339.94 224.72,556.14 223.45,572.49 220.48,584.13 216.60,591.92 212.29,597.92 209.75,600.66 207.17,602.82 204.36,604.76 201.35,606.41 198.21,607.72 194.87,608.64 190.72,609.00 186.44,608.93 182.50,608.57 178.65,607.87 175.04,606.85 171.53,605.46 168.22,603.74 165.04,601.69 162.13,599.42 159.23,596.56 154.34,590.27 149.86,582.88 147.02,576.59 145.18,569.27 144.65,553.32 146.12,531.59 166.88,364.42 167.15,332.81 164.74,309.43 162.10,301.09 158.96,294.98 156.85,291.83 154.61,289.20 152.07,286.63 149.26,284.33 145.95,282.17 142.41,280.34 138.86,278.95 135.22,277.96 131.51,277.41 127.73,277.27 123.82,277.52 119.91,278.18 115.90,279.17 111.78,280.74 105.80,284.18 100.05,288.79 95.33,294.24 91.42,300.79 88.78,306.43 86.64,312.87 85.20,321.87 90.15,418.06 103.66,535.03 114.12,593.05 123.28,622.29 134.18,652.84 147.26,683.97 156.08,708.49 157.15,717.05 157.09,723.92 156.85,728.24 156.28,732.16 155.38,735.71 154.18,739.04 152.64,742.18 150.77,745.11 148.53,747.85 146.02,750.38 143.14,752.72 140.00,754.80 136.56,756.82 132.65,758.43 125.62,759.67 118.64,760.00 115.16,759.67 111.78,758.79 105.16,756.19 98.41,752.28 92.73,747.01 87.84,740.90 84.23,735.41 81.29,728.57 77.58,711.01 74.67,685.25 58.69,413.74 53.51,353.04"
        fill="none"
        stroke="#e94560"
        stroke-width="8.0"
        stroke-linejoin="round"
        stroke-linecap="round"/>
  <!-- Start/finish line -->
  <line x1="33.58" y1="354.74" x2="73.44" y2="351.34"
        stroke="#f5f5f5" stroke-width="9.6"
        stroke-linecap="round"/>
</svg>
