<?xml version="1.0" encoding="utf-8"?>
<svg xmlns="http://www.w3.org/2000/svg"
     width="507.4" height="800.0"
     viewBox="0 0 507.4 800.0">
  <rect width="100%" height="100%" fill="#1a1a2e"/>
  <!-- Track outline -->
  <polyline points="175.51,565.01 174.82,563.38 142.27,492.88 133.69,469.68 131.46,458.92 129.29,435.52 129.61,425.14 132.80,411.37 136.40,394.80 138.45,372.48 138.40,349.80 135.47,330.69 131.53,315.40 129.89,310.98 128.12,307.57 124.01,301.53 118.86,296.08 99.26,280.61 81.93,263.31 75.62,255.00 70.15,246.13 61.63,226.46 46.90,170.46 42.97,144.58 40.16,109.42 40.00,91.74 40.97,79.12 43.11,68.79 45.72,60.62 47.79,55.93 50.31,51.61 53.26,48.38 56.54,45.72 60.28,43.29 64.24,41.45 68.44,40.40 72.57,40.00 75.92,40.18 79.08,40.78 81.71,41.55 84.26,42.81 86.38,44.26 88.51,46.14 90.56,48.63 94.50,56.75 97.74,65.61 100.55,74.94 104.88,104.20 105.74,125.44 105.19,138.11 102.49,160.28 103.53,191.68 104.28,195.92 105.28,199.40 106.68,203.09 108.35,206.55 110.37,209.91 112.63,212.92 115.03,215.30 117.64,217.34 120.75,219.27 123.98,220.77 126.85,221.70 129.94,222.23 135.06,222.35 140.13,221.85 142.85,221.12 145.60,219.92 152.29,216.11 159.00,211.27 162.30,208.13 165.48,203.94 183.93,166.70 186.47,161.38 188.04,158.73 190.00,156.17 194.13,152.43 198.61,149.20 201.44,147.51 204.46,146.24 210.11,144.73 216.80,143.95 228.43,144.83 239.18,146.61 245.62,148.29 264.83,156.54 422.33,227.12 435.40,234.34 445.30,241.64 451.51,247.73 456.42,254.38 459.85,260.25 462.97,267.27 465.65,276.70 467.38,287.41 467.21,317.53 466.41,325.35 463.85,338.19 460.54,349.90 458.40,355.00 455.70,359.91 450.95,366.68 445.64,372.70 441.35,376.11 437.34,378.42 435.19,379.32 432.94,379.85 427.97,380.28 422.86,380.15 420.02,379.70 417.48,378.97 415.25,378.02 413.03,376.76 410.19,375.03 407.24,372.53 402.67,366.26 398.47,359.01 394.05,348.78 386.44,326.43 382.21,318.05 377.23,310.68 370.86,303.16 360.05,294.33 349.58,287.48 346.11,285.63 342.29,284.30 324.91,280.56 301.80,277.32 226.52,273.56 221.07,273.79 216.74,274.54 211.17,276.32 206.21,278.68 204.00,280.23 202.11,282.06 199.87,284.72 197.80,287.63 196.34,289.91 195.08,292.72 193.79,297.94 192.74,304.36 192.40,309.65 192.86,312.44 193.69,314.77 194.78,317.23 196.14,319.66 198.12,322.79 200.45,325.85 203.52,328.96 206.96,331.85 215.88,337.74 226.97,342.93 239.73,346.17 296.78,351.91 306.83,354.29 315.11,357.23 321.73,360.29 327.59,363.87 331.88,367.43 335.46,371.25 337.55,374.11 339.28,377.12 342.42,384.16 343.62,387.92 344.48,391.79 344.82,395.62 344.80,399.34 344.54,402.14 344.04,404.73 343.34,407.01 342.38,409.17 340.97,411.52 339.06,413.81 334.35,417.59 328.54,421.28 313.48,428.60 296.47,434.25 279.04,440.69 269.09,446.33 260.15,453.36 249.97,464.37 241.21,476.70 236.46,485.81 233.00,495.61 230.16,510.06 228.82,523.55 228.80,528.34 229.35,533.18 236.92,566.16 240.79,575.89 258.94,627.41 261.25,631.92 263.51,635.16 266.46,638.37 269.67,641.05 272.95,643.16 276.32,644.81 279.77,646.12 283.17,647.04 286.03,647.52 289.05,647.62 292.34,647.44 295.92,646.94 299.26,645.91 301.87,644.46 304.29,642.58 306.51,640.30 309.69,635.63 312.23,630.54 313.50,627.33 314.42,623.27 316.93,570.58 316.04,543.72 316.54,525.53 317.14,519.16 318.13,513.50 319.54,509.38 321.22,505.70 324.69,499.40 326.62,496.64 328.95,493.96 334.12,489.45 340.21,485.28 346.85,482.17 353.29,479.99 361.38,478.44 369.55,478.08 372.99,478.36 376.61,479.09 383.18,481.37 389.76,484.43 393.88,486.91 397.43,489.77 400.20,492.81 402.63,496.17 406.87,503.72 409.82,511.99 412.73,527.67 413.84,549.94 413.26,558.61 411.48,567.49 404.27,588.86 347.93,728.32 342.45,737.53 337.77,743.22 331.38,748.46 325.19,752.38 318.16,755.64 314.45,756.92 310.11,757.97 298.44,759.55 286.00,760.00 278.42,758.90 272.23,757.12 269.62,756.04 267.20,754.48 262.43,750.17 257.29,744.43 245.52,727.60 236.48,708.69 175.51,565.01"
        fill="none"
        stroke="#e94560"
        stroke-width="8.0"
        stroke-linejoin="round"
        stroke-linecap="round"/>
  <!-- Start/finish line -->
  <line x1="157.10" y1="572.82" x2="193.92" y2="557.20"
        stroke="#f5f5f5" stroke-width="9.6"
        stroke-linecap="round"/>
</svg>
