<?xml version="1.0" encoding="utf-8"?>
<svg xmlns="http://www.w3.org/2000/svg"
     width="393.2" height="800.0"
     viewBox="0 0 393.2 800.0">
  <rect width="100%" height="100%" fill="#1a1a2e"/>
  <!-- Track outline -->
  <polyline points="116.28,396.02 118.27,388.77 166.03,212.87 188.50,130.97 194.08,110.95 197.97,96.40 199.27,91.22 201.16,86.94 203.95,83.05 207.94,79.36 211.92,76.97 216.70,74.81 243.52,66.59 266.51,59.48 272.77,57.07 277.31,53.61 281.26,49.47 284.91,45.32 288.66,42.17 292.90,40.39 298.52,40.00 303.85,40.69 309.97,42.17 316.18,44.25 321.51,46.71 326.64,49.77 331.18,53.92 334.43,57.47 337.69,61.98 341.52,68.72 344.43,74.80 347.47,81.54 349.85,88.68 351.17,95.82 352.09,102.56 352.76,110.09 353.10,115.64 353.15,122.13 352.88,128.08 351.99,134.02 350.35,139.53 348.58,144.37 346.27,149.87 343.62,155.03 340.00,161.53 336.70,167.04 331.90,174.42 326.46,182.32 323.37,186.89 320.16,191.46 316.95,194.43 313.12,196.77 308.92,197.95 303.98,199.08 299.01,200.27 294.22,202.82 290.87,207.42 287.69,214.37 283.05,224.43 273.06,251.96 270.09,261.68 257.89,307.40 247.20,346.13 235.25,390.15 227.06,428.03 218.96,465.74 214.98,486.56 211.00,506.48 207.45,523.97 204.57,536.81 202.14,547.88 200.37,560.05 199.92,571.56 199.83,583.58 199.22,627.93 198.92,659.62 198.40,686.41 197.65,716.64 197.20,721.48 196.30,726.44 195.17,730.94 193.48,735.12 191.23,739.28 188.53,743.22 185.26,746.94 181.91,750.15 178.32,752.82 174.81,754.96 170.96,756.73 166.19,758.32 161.16,759.33 157.10,759.77 152.94,760.00 147.87,759.69 143.03,758.42 138.53,756.73 132.90,753.92 127.38,750.76 115.44,743.78 103.30,736.27 59.02,706.88 47.73,699.55 44.36,697.17 42.18,693.41 40.60,687.86 40.00,682.71 40.60,677.36 44.56,660.71 68.04,571.35 115.40,399.22 116.28,396.02"
        fill="none"
        stroke="#e94560"
        stroke-width="8.0"
        stroke-linejoin="round"
        stroke-linecap="round"/>
  <!-- Start/finish line -->
  <line x1="96.99" y1="390.71" x2="135.56" y2="401.32"
        stroke="#f5f5f5" stroke-width="9.6"
        stroke-linecap="round"/>
</svg>
