<?xml version="1.0" encoding="utf-8"?>
<svg xmlns="http://www.w3.org/2000/svg"
     width="800.0" height="761.1"
     viewBox="0 0 800.0 761.1">
  <rect width="100%" height="100%" fill="#1a1a2e"/>
  <!-- Track outline -->
  <polyline points="534.36,378.27 554.07,301.05 605.16,112.73 609.22,101.17 611.67,95.81 614.47,90.71 617.73,85.80 621.47,81.23 625.67,77.05 630.29,73.29 635.27,69.91 640.48,66.86 662.74,57.25 698.18,42.76 702.66,41.40 707.05,40.46 712.85,40.00 715.73,40.17 718.60,40.61 724.25,42.21 728.31,44.04 732.25,46.28 736.04,48.98 739.57,52.06 742.83,55.51 745.90,59.38 748.70,63.64 751.25,68.26 753.47,73.21 755.34,78.49 758.17,89.93 759.17,95.99 759.78,102.16 760.00,108.28 759.81,114.26 759.21,120.07 758.22,125.67 755.16,136.24 750.82,146.43 745.28,156.39 735.27,170.49 731.66,174.78 727.84,178.77 707.76,197.03 702.60,203.48 697.95,211.12 683.49,245.99 666.98,304.06 644.60,395.87 626.15,488.88 619.70,549.11 618.04,619.20 617.36,667.70 616.21,679.43 615.09,684.87 613.49,689.96 611.43,694.78 608.95,699.26 606.11,703.32 603.03,707.06 599.66,710.42 596.04,713.37 592.16,715.91 588.03,717.96 583.68,719.49 579.10,720.52 574.29,721.08 569.27,721.14 564.07,720.66 558.67,719.57 553.14,717.90 547.48,715.67 533.81,708.70 512.41,694.57 459.91,654.95 385.46,598.65 349.75,579.56 322.69,571.09 287.88,565.49 264.86,561.08 248.53,555.94 233.26,548.98 213.45,536.86 188.44,518.07 116.57,457.74 99.24,441.03 87.95,428.09 78.16,414.45 69.97,399.71 61.41,378.66 45.15,329.17 40.80,312.53 40.11,307.41 40.00,302.35 40.45,297.49 41.44,292.79 42.94,288.19 44.88,283.77 47.31,279.47 50.25,275.35 53.70,271.43 62.05,263.95 66.93,260.59 72.32,257.53 90.75,249.37 103.45,244.92 109.76,243.18 116.05,241.84 122.32,240.98 128.59,240.61 134.89,240.78 141.26,241.46 147.58,242.77 153.78,244.74 159.82,247.35 165.55,250.59 176.19,258.57 182.78,264.99 193.43,278.12 210.45,304.68 281.66,421.34 303.08,455.06 309.29,462.69 315.37,468.79 322.65,474.57 329.27,478.97 334.39,481.57 345.32,485.23 351.10,486.36 363.09,487.23 369.30,486.85 387.96,483.09 409.10,474.26 422.09,467.18 426.33,465.33 430.60,463.86 436.29,462.63 441.86,462.33 444.51,462.56 447.12,463.05 449.60,463.78 452.01,464.79 454.31,466.05 456.53,467.59 458.59,469.39 460.54,471.45 463.92,476.17 465.98,480.19 467.62,484.60 468.78,489.31 469.45,494.33 469.64,499.61 469.34,505.15 468.62,511.00 464.46,529.44 462.99,534.72 457.38,559.31 456.89,564.61 457.01,567.09 457.39,569.43 458.11,571.59 459.08,573.60 460.47,575.85 462.10,577.85 463.40,579.04 464.81,580.04 466.27,580.82 467.85,581.37 469.49,581.68 471.13,581.76 472.72,581.61 474.31,581.22 475.86,580.65 478.10,579.45 480.19,577.90 481.83,576.29 483.30,574.46 484.53,572.59 485.79,570.12 492.84,550.64 518.20,441.61 533.58,381.34 534.36,378.27"
        fill="none"
        stroke="#e94560"
        stroke-width="8.0"
        stroke-linejoin="round"
        stroke-linecap="round"/>
  <!-- Start/finish line -->
  <line x1="514.98" y1="373.32" x2="553.74" y2="383.22"
        stroke="#f5f5f5" stroke-width="9.6"
        stroke-linecap="round"/>
</svg>
