<?xml version="1.0" encoding="utf-8"?>
<svg xmlns="http://www.w3.org/2000/svg"
     width="800.0" height="738.3"
     viewBox="0 0 800.0 738.3">
  <rect width="100%" height="100%" fill="#1a1a2e"/>
  <!-- Track outline -->
  <polyline points="355.64,200.09 467.02,373.46 501.65,424.25 506.82,431.22 512.90,438.20 521.22,444.05 529.32,448.32 537.65,451.69 545.30,454.39 554.52,456.42 563.07,457.54 572.29,457.76 581.29,457.31 590.19,456.50 602.15,454.68 613.32,452.60 624.51,449.23 637.77,444.28 650.78,438.83 662.47,432.84 672.10,426.86 681.98,419.32 689.52,412.81 696.55,408.13 704.86,403.98 712.92,402.41 723.33,404.74 732.69,410.99 739.45,419.06 744.65,427.12 750.38,437.26 753.76,447.14 757.66,458.32 760.00,471.06 759.48,481.20 757.92,490.57 749.79,519.87 740.05,559.67 713.25,661.22 710.54,671.62 707.13,683.16 705.33,688.27 703.16,692.50 700.60,695.44 696.88,697.62 693.94,698.27 690.22,697.23 686.01,694.57 676.02,686.62 661.88,675.76 641.24,659.09 621.56,644.34 606.53,633.69 588.91,621.80 572.24,611.14 558.79,603.41 544.58,597.16 531.93,593.01 520.15,590.40 502.48,587.64 483.24,585.21 460.19,582.62 442.42,581.36 422.15,580.43 408.27,579.30 398.13,578.35 388.57,576.29 377.86,571.61 366.23,563.16 348.97,548.71 315.71,518.86 129.45,368.31 120.95,360.84 111.25,351.49 104.72,343.59 98.55,334.26 95.03,326.72 91.63,317.60 86.80,303.10 68.01,239.14 42.71,153.27 40.46,143.14 40.00,131.21 42.70,119.96 46.08,111.84 51.48,102.84 58.69,94.06 66.34,85.73 73.54,79.64 83.68,73.11 95.60,67.48 118.58,60.50 147.17,52.85 173.29,46.31 190.17,41.81 202.33,40.00 218.09,40.91 230.03,44.06 241.29,48.56 250.97,54.41 260.46,61.64 268.39,69.58 279.37,83.13 301.79,116.27 355.64,200.09"
        fill="none"
        stroke="#e94560"
        stroke-width="8.0"
        stroke-linejoin="round"
        stroke-linecap="round"/>
  <!-- Start/finish line -->
  <line x1="372.47" y1="189.28" x2="338.82" y2="210.90"
        stroke="#f5f5f5" stroke-width="9.6"
        stroke-linecap="round"/>
</svg>
