<?xml version="1.0" encoding="utf-8"?>
<svg xmlns="http://www.w3.org/2000/svg"
     width="733.5" height="800.0"
     viewBox="0 0 733.5 800.0">
  <rect width="100%" height="100%" fill="#1a1a2e"/>
  <!-- Track outline -->
  <polyline points="40.00,40.00 94.60,81.41 129.63,107.93 132.92,110.29 136.64,112.81 140.36,114.91 143.72,116.43 147.61,117.98 151.92,119.54 170.08,126.08 174.04,127.05 178.29,127.83 182.25,128.46 185.59,128.64 188.52,128.41 190.98,128.10 193.36,127.55 195.67,126.79 198.51,125.49 201.74,123.99 203.97,122.99 205.91,122.52 207.74,122.24 209.65,122.22 216.34,122.60 230.34,123.06 231.47,123.28 232.48,123.72 233.34,124.35 234.01,124.94 234.50,125.65 234.66,126.39 234.55,127.16 234.29,128.14 229.51,143.84 220.54,170.46 218.95,174.34 217.29,178.21 215.41,182.44 213.53,186.76 211.97,190.32 210.65,193.40 209.75,195.51 209.22,197.00 208.87,198.24 208.39,200.46 207.89,203.78 206.35,215.66 205.13,227.01 204.33,234.05 203.95,239.73 203.92,243.13 204.06,248.21 204.20,254.90 204.44,262.04 204.49,268.85 204.42,270.80 204.30,274.30 203.88,280.89 203.66,285.45 203.34,288.27 203.17,289.61 203.01,290.96 202.67,292.51 198.09,309.04 197.49,311.27 197.17,313.44 197.12,315.36 197.50,317.27 198.11,319.67 199.06,322.18 200.47,325.04 201.77,327.83 202.89,330.42 203.27,332.45 203.26,334.76 203.17,336.88 202.74,339.19 202.04,341.40 200.88,344.59 198.04,352.96 197.68,354.68 197.53,356.60 197.94,358.19 198.37,359.73 199.15,361.44 200.82,364.01 204.37,369.03 207.53,372.71 211.67,377.03 216.43,381.51 219.76,384.51 222.17,386.68 223.68,388.42 224.71,390.14 225.35,391.65 225.57,393.01 225.72,394.67 225.58,396.76 225.13,399.72 218.87,428.52 218.73,429.65 218.96,430.59 219.47,431.36 220.14,432.11 221.05,432.82 222.05,433.35 223.30,433.54 224.55,433.17 225.75,432.32 226.84,431.38 227.82,430.24 246.94,406.63 248.97,404.64 251.53,402.30 253.33,400.50 254.85,398.74 256.99,395.79 259.49,392.02 262.12,388.24 263.48,386.28 264.45,385.34 265.46,384.77 266.73,384.52 267.86,384.68 268.80,385.36 269.48,386.12 269.92,387.21 269.99,388.18 269.72,389.27 269.22,390.22 268.46,391.61 267.32,393.62 266.24,395.34 264.95,397.71 264.18,399.42 263.25,401.65 261.51,405.97 260.10,409.20 258.99,411.29 258.01,412.96 257.37,414.32 257.20,415.63 257.43,416.59 257.77,417.70 258.39,418.40 259.23,418.91 260.38,419.33 261.37,419.42 262.37,419.04 263.16,418.19 263.99,416.85 264.92,414.91 265.99,411.62 267.23,407.91 267.94,405.41 268.79,403.34 269.84,401.07 271.42,398.65 273.23,396.51 275.89,393.83 283.78,386.18 289.00,381.11 292.01,378.47 294.76,376.25 296.90,374.73 299.55,373.05 312.24,365.54 314.84,363.68 317.61,361.57 319.70,359.81 321.96,357.73 324.48,355.21 327.22,352.84 330.28,350.49 333.88,347.72 339.26,343.92 343.08,341.38 347.55,338.60 356.93,333.19 363.59,329.02 369.47,324.90 375.68,320.16 381.81,315.57 390.22,309.40 393.16,307.19 396.78,304.63 399.79,303.04 403.08,301.54 406.07,300.62 425.66,293.95 431.30,292.54 432.60,292.66 433.80,292.92 434.90,293.69 435.48,294.56 435.93,295.37 436.23,296.53 436.14,297.86 435.59,299.11 434.86,300.34 433.88,301.46 432.71,302.52 430.87,304.10 426.40,307.80 413.56,317.92 409.48,321.21 407.79,322.72 406.10,324.46 404.40,326.34 402.86,328.02 401.38,329.99 400.34,331.60 399.36,333.59 396.82,340.71 388.08,367.61 385.09,375.38 384.08,377.36 382.76,379.60 381.31,381.41 379.77,383.15 376.84,385.75 365.29,395.84 361.41,399.81 356.35,405.57 350.76,412.55 343.80,421.19 343.00,422.56 342.34,423.71 342.00,424.88 342.17,426.19 342.56,427.42 343.21,428.44 344.28,429.48 345.64,430.13 346.95,430.29 348.11,429.94 349.37,428.90 351.33,426.99 356.67,420.66 360.64,416.23 364.46,412.85 367.74,410.29 371.84,407.74 377.38,405.36 386.10,402.66 390.81,401.29 396.58,399.01 401.14,396.78 406.02,394.10 410.91,391.12 430.49,377.95 433.92,375.87 436.60,374.61 439.38,373.72 441.81,373.41 445.35,373.29 450.39,373.58 456.41,373.68 460.30,373.90 464.23,373.52 467.37,372.54 470.23,371.15 472.94,369.22 475.85,366.82 478.47,364.48 482.55,361.14 485.54,358.90 489.72,355.89 504.07,345.72 508.82,342.68 512.66,340.72 535.29,328.31 548.05,322.43 564.71,317.02 566.40,316.51 567.89,316.34 569.23,316.63 570.74,317.36 572.01,318.29 572.90,319.27 573.80,320.65 574.17,321.83 574.22,323.40 573.84,325.90 571.55,333.89 566.84,351.67 565.66,355.24 564.46,358.17 563.08,361.24 561.37,364.51 555.54,375.05 543.31,396.17 541.67,398.74 540.01,401.81 538.56,404.83 537.28,408.57 535.67,414.04 534.06,419.72 532.86,424.70 531.29,430.97 530.87,435.72 530.65,441.46 531.10,449.61 533.09,480.23 533.12,482.88 533.03,485.10 532.68,487.50 531.88,489.95 530.72,492.20 529.56,493.81 528.28,495.10 526.56,496.65 525.01,497.53 523.32,498.01 521.18,498.02 515.16,497.66 512.16,497.75 508.93,498.11 506.13,498.60 503.97,499.44 501.31,500.80 499.09,502.42 497.70,503.60 496.27,505.47 495.01,507.41 494.35,509.20 491.89,517.39 490.92,522.09 490.42,525.59 490.22,527.31 490.21,528.87 490.56,530.22 490.97,531.49 492.17,533.78 495.55,539.37 498.34,544.19 500.51,548.57 501.92,551.96 502.67,554.84 502.99,557.50 502.95,559.81 502.41,562.23 501.50,564.58 499.97,567.35 495.64,574.00 485.56,589.13 483.69,591.09 481.08,593.39 478.01,595.76 475.64,597.49 473.85,599.16 472.67,600.36 471.74,601.98 470.97,604.04 470.62,606.09 470.40,608.89 465.91,662.61 465.39,667.88 464.45,673.92 463.21,680.58 460.11,693.60 459.68,695.94 459.60,697.70 459.87,699.48 460.43,701.12 461.50,702.90 462.51,704.22 464.10,705.58 466.03,706.69 467.92,707.23 469.85,707.27 471.95,707.05 474.03,706.60 476.42,705.87 479.03,704.82 482.37,703.16 484.97,701.65 487.47,699.97 490.02,698.02 493.07,695.60 496.04,693.43 498.33,692.21 500.54,691.34 503.71,690.13 506.36,688.93 508.67,687.54 510.79,685.95 512.32,684.27 514.26,681.71 516.19,678.73 518.79,674.84 521.27,671.58 523.54,669.22 526.07,667.30 527.74,666.31 637.47,614.82 647.55,610.61 650.48,609.82 653.61,609.49 657.25,609.84 660.67,610.53 664.20,611.55 668.59,613.67 672.29,615.78 675.62,618.42 679.02,621.81 681.68,625.79 683.90,629.54 685.74,633.21 687.46,637.32 688.30,641.43 688.95,645.84 690.04,663.93 692.55,695.84 693.54,711.58 693.42,713.32 693.12,715.89 692.43,718.62 691.67,721.05 690.76,723.67 687.84,730.03 673.46,760.00"
        fill="none"
        stroke="#e94560"
        stroke-width="8.0"
        stroke-linejoin="round"
        stroke-linecap="round"/>
  <!-- Start/finish line -->
  <line x1="25.24" y1="53.50" x2="54.76" y2="26.50"
        stroke="#f5f5f5" stroke-width="9.6"
        stroke-linecap="round"/>
</svg>
