<?xml version="1.0" encoding="utf-8"?>
<svg xmlns="http://www.w3.org/2000/svg"
     width="800.0" height="313.1"
     viewBox="0 0 800.0 313.1">
  <rect width="100%" height="100%" fill="#1a1a2e"/>
  <!-- Track outline -->
  <polyline points="760.00,114.74 739.59,101.04 731.66,95.78 728.29,93.83 725.25,92.19 722.89,91.27 720.08,90.47 717.35,89.92 714.59,89.58 712.54,89.51 710.36,89.64 708.52,89.95 706.96,90.33 701.98,91.92 689.36,95.95 674.98,100.88 673.26,101.42 671.92,101.76 670.62,102.00 669.24,102.13 667.15,102.17 665.37,102.11 664.09,101.98 662.56,101.72 661.28,101.34 659.73,100.83 657.92,100.09 656.26,99.30 654.18,98.07 648.27,93.95 635.34,84.62 611.89,68.01 604.82,64.35 601.43,63.06 598.42,62.14 595.73,61.60 592.90,61.32 590.21,61.28 587.27,61.32 579.87,61.99 572.10,62.98 569.76,63.33 567.48,63.83 565.12,64.54 562.83,65.56 560.84,66.80 558.98,68.17 553.98,72.41 546.35,79.65 544.86,81.00 543.43,82.16 542.09,82.95 540.61,83.64 539.01,84.30 537.06,84.85 535.94,85.07 534.73,85.23 533.55,85.31 532.42,85.29 530.99,85.07 529.49,84.73 528.39,84.43 527.46,84.10 526.39,83.61 524.51,82.52 522.50,81.12 472.20,43.54 470.46,42.39 469.16,41.68 467.89,41.12 466.71,40.74 465.19,40.38 463.65,40.11 462.13,40.00 460.77,40.07 459.65,40.09 458.47,40.31 457.33,40.53 456.13,40.85 454.66,41.38 453.30,42.03 452.14,42.77 451.00,43.55 450.11,44.42 449.30,45.20 448.46,46.25 447.55,47.46 422.80,84.81 421.85,86.37 421.01,87.78 420.28,89.17 419.72,90.34 419.33,91.27 419.08,92.22 418.83,93.40 418.67,94.65 418.61,95.60 418.70,96.71 418.90,97.79 419.15,98.84 419.53,99.97 420.08,101.31 420.55,102.28 421.16,103.29 422.04,104.37 422.99,105.37 424.37,106.36 425.46,107.07 426.84,107.88 428.39,108.76 433.54,111.24 453.91,120.96 457.60,122.86 459.02,123.75 460.24,124.63 461.03,125.43 461.65,126.35 462.12,127.32 462.37,128.09 462.55,128.97 462.59,129.95 462.52,130.91 462.43,131.66 462.20,132.30 461.68,133.00 461.04,133.70 460.37,134.20 459.62,134.63 458.64,135.06 457.85,135.26 457.04,135.37 455.82,135.34 378.88,134.12 377.52,134.07 376.33,133.93 374.97,133.72 373.84,133.47 372.71,133.04 371.78,132.55 370.79,131.93 369.53,131.04 368.62,130.22 367.43,129.05 363.01,124.05 361.51,122.32 359.55,119.79 337.25,92.33 335.98,90.80 334.86,89.77 333.52,88.88 332.52,88.40 331.58,88.10 330.60,87.98 329.75,88.00 328.92,88.18 328.22,88.44 327.43,88.87 326.84,89.33 326.29,90.00 325.83,90.70 325.45,91.49 325.14,92.29 324.94,93.01 324.78,93.90 324.64,94.76 324.55,96.49 324.37,106.41 324.30,107.36 324.14,108.46 323.93,109.63 323.56,110.82 323.16,112.05 322.65,113.30 322.06,114.66 321.52,115.71 320.91,116.72 320.19,117.71 318.88,119.32 317.14,121.21 300.77,137.06 295.71,142.42 294.96,143.41 294.05,144.22 292.79,145.09 289.16,147.17 283.55,149.91 267.04,157.80 264.71,158.83 262.28,160.11 260.08,161.43 257.74,162.85 255.46,164.46 252.43,166.92 250.21,168.71 248.50,170.31 247.01,172.21 241.21,179.71 240.24,181.23 239.20,183.13 237.78,185.62 234.47,191.79 227.95,204.17 225.36,208.08 222.28,212.26 217.10,218.48 215.54,220.06 214.60,220.63 213.73,221.04 212.94,221.24 212.00,221.36 210.98,221.34 209.85,221.10 208.77,220.67 207.53,220.08 206.71,219.39 205.96,218.55 205.39,217.75 204.94,216.79 204.64,216.10 204.43,215.39 204.33,214.45 203.45,205.64 202.30,198.56 201.48,195.32 201.01,193.95 200.38,192.73 199.85,191.90 199.06,191.01 198.27,190.33 197.35,189.73 196.31,189.28 195.46,189.08 194.48,189.02 193.38,189.16 192.37,189.46 191.59,189.83 190.88,190.42 190.17,191.17 189.60,191.95 189.14,192.75 188.79,193.76 188.52,194.74 188.40,195.74 188.14,199.13 187.91,201.90 187.57,204.99 185.04,222.79 184.29,226.18 183.61,228.06 182.93,229.79 182.14,231.37 181.13,232.87 179.96,234.36 178.87,235.47 177.21,236.72 175.41,237.62 173.62,238.27 171.89,238.74 170.25,239.00 168.78,239.06 165.63,238.95 132.31,236.18 128.52,235.89 127.00,235.76 125.66,235.80 124.44,235.94 123.34,236.18 122.18,236.48 121.27,236.82 120.38,237.22 119.60,237.73 118.71,238.44 117.71,239.39 116.59,240.69 115.15,242.63 102.53,262.01 99.36,266.55 97.97,268.16 96.43,269.72 95.04,270.99 94.01,271.52 92.72,272.06 90.92,272.65 88.85,272.91 86.82,273.13 85.01,273.06 82.91,272.76 81.22,272.48 79.54,271.74 77.80,270.79 76.38,269.81 75.21,268.90 74.11,268.00 73.10,266.89 72.22,265.60 71.39,263.99 70.59,262.15 69.95,260.44 69.51,258.90 68.65,255.63 67.67,250.44 67.25,249.03 66.66,247.81 65.95,246.61 65.22,245.71 64.49,245.00 63.58,244.34 62.68,243.95 61.63,243.63 60.02,243.32 52.67,242.48 40.00,241.39"
        fill="none"
        stroke="#e94560"
        stroke-width="8.0"
        stroke-linejoin="round"
        stroke-linecap="round"/>
  <!-- Start/finish line -->
  <line x1="755.97" y1="95.15" x2="764.03" y2="134.33"
        stroke="#f5f5f5" stroke-width="9.6"
        stroke-linecap="round"/>
</svg>
