<?xml version="1.0" encoding="utf-8"?>
<svg xmlns="http://www.w3.org/2000/svg"
     width="492.8" height="800.0"
     viewBox="0 0 492.8 800.0">
  <rect width="100%" height="100%" fill="#1a1a2e"/>
  <!-- Track outline -->
  <polyline points="40.00,760.00 48.10,756.36 56.87,752.17 62.48,749.60 66.25,748.01 73.20,745.21 80.62,742.26 82.86,741.58 84.81,741.24 86.83,741.07 89.16,741.02 91.89,741.22 93.64,741.45 95.49,741.63 97.15,741.88 98.50,742.10 99.80,742.31 101.04,742.46 102.30,742.36 103.81,742.04 105.37,741.56 106.74,740.93 108.43,739.96 110.61,738.29 115.61,733.91 126.02,724.81 126.92,724.01 127.78,723.23 129.14,721.82 131.38,718.93 134.32,715.15 135.22,713.81 136.49,711.51 137.63,709.63 138.59,708.01 139.56,706.42 140.74,704.75 142.53,702.34 143.99,700.50 146.17,697.89 152.76,690.51 155.04,688.15 158.13,684.86 159.37,683.56 160.56,682.38 162.40,680.50 164.64,677.98 171.37,670.79 177.11,664.64 182.03,658.91 186.14,654.14 189.64,649.91 195.37,642.48 201.24,634.54 211.92,620.18 213.74,617.57 216.85,612.92 218.64,610.07 220.05,607.65 221.13,605.84 222.20,604.51 223.32,603.57 224.59,602.85 225.82,602.70 226.94,602.85 228.01,603.24 229.03,603.99 229.79,604.81 230.22,605.75 230.41,606.97 230.32,608.32 229.79,609.27 228.96,610.46 225.18,615.20 222.69,618.40 220.14,622.07 218.63,624.70 217.28,627.06 216.35,628.87 215.65,630.89 214.96,633.14 214.44,635.30 214.04,638.05 213.64,641.27 212.34,653.50 211.90,656.74 211.45,659.89 210.79,662.55 210.18,664.85 209.55,667.13 208.59,669.91 206.98,673.60 203.80,680.45 200.75,686.75 198.24,691.55 196.22,695.89 194.79,699.71 193.18,703.85 192.64,706.24 192.61,707.80 192.90,709.00 193.49,710.16 194.25,710.96 195.15,711.72 196.09,712.20 197.27,712.33 198.55,712.16 199.52,711.76 200.62,710.99 201.68,709.87 202.78,708.19 204.00,705.19 205.09,702.61 205.97,700.79 207.07,698.78 208.31,697.00 209.84,695.12 212.26,692.95 214.89,690.71 217.26,688.72 220.00,686.37 222.42,684.25 224.26,682.35 225.89,680.34 227.89,677.32 229.55,674.84 230.85,672.53 232.15,669.94 233.57,666.74 235.01,663.12 236.46,659.12 237.66,655.78 238.86,652.10 240.25,647.03 241.18,644.10 242.42,641.31 243.81,638.84 245.33,636.83 246.99,635.02 249.49,632.70 251.65,630.82 254.34,628.82 257.00,626.93 259.37,625.33 261.75,623.81 264.48,622.26 266.61,621.22 268.80,620.38 271.37,619.39 273.95,618.57 276.95,617.51 282.80,615.51 288.54,613.55 291.55,612.69 293.57,612.26 295.66,612.00 297.77,611.72 299.92,611.68 301.63,611.80 303.24,612.22 305.13,612.71 307.93,613.46 310.08,614.17 312.10,615.02 314.12,615.79 316.06,616.47 317.73,616.94 319.05,617.17 320.17,617.16 321.24,616.89 322.17,616.46 323.25,615.73 323.90,614.85 324.72,613.49 326.31,610.24 327.98,606.55 328.61,605.60 329.53,604.96 330.54,604.47 331.45,604.25 332.38,604.21 333.34,604.38 334.21,604.70 334.85,605.13 335.44,605.74 335.85,606.39 336.24,607.09 336.53,608.03 336.66,609.17 336.88,611.88 337.58,617.32 337.53,619.68 337.41,620.95 336.76,623.71 336.15,626.19 335.92,627.81 335.77,629.16 335.87,630.47 336.16,631.75 336.62,632.89 337.27,633.94 338.03,634.91 339.01,635.93 340.29,636.86 341.47,637.73 344.59,639.58 346.26,640.57 347.80,641.71 348.94,642.77 350.23,644.14 351.49,645.55 352.80,647.27 354.04,649.37 355.24,651.24 356.27,652.53 357.34,653.69 358.53,654.93 359.93,656.04 361.57,657.04 363.37,657.99 366.02,659.20 370.52,660.98 376.13,663.42 382.24,665.97 387.84,668.42 393.73,671.06 409.74,677.46 412.49,678.36 414.62,678.93 416.50,679.34 418.34,679.53 419.88,679.63 421.64,679.49 422.99,679.20 424.74,678.53 426.66,677.50 428.00,676.47 429.74,674.96 431.07,673.60 432.15,672.14 432.97,670.55 433.56,668.85 433.84,667.44 433.94,665.97 433.65,663.31 433.09,657.12 432.94,653.87 432.73,650.42 432.74,644.34 432.90,639.29 433.45,633.90 434.08,631.24 434.74,629.08 435.30,626.85 435.94,624.53 436.65,620.88 436.92,618.63 437.09,615.77 437.30,612.43 437.48,607.35 437.53,599.64 437.56,590.86 437.62,584.66 437.67,579.80 438.20,562.48 438.89,556.86 439.14,552.32 439.06,546.61 438.93,541.25 439.14,535.80 439.33,531.83 439.83,527.60 440.66,523.35 441.37,519.68 442.21,515.57 443.16,510.42 443.67,508.22 444.71,505.49 446.20,502.23 448.04,498.64 450.49,493.17 451.61,490.37 452.23,488.35 452.53,486.90 452.74,485.34 452.74,483.99 452.78,481.39 452.70,475.30 452.56,470.53 451.83,456.93 450.96,441.76 450.78,440.26 450.40,438.63 449.84,436.90 449.12,434.89 448.25,432.86 447.48,431.43 446.73,430.34 444.05,426.77 442.53,424.75 440.04,421.76 437.95,419.30 436.02,417.00 434.76,415.46 433.68,414.03 432.92,412.75 432.31,411.59 431.63,410.20 429.38,405.64 425.87,397.34 423.13,391.64 421.89,389.39 420.75,387.83 419.28,386.22 417.91,385.04 416.77,384.37 415.55,383.73 414.52,383.35 413.42,383.21 412.16,383.45 411.13,383.89 410.11,384.74 409.52,385.60 409.10,386.93 409.12,388.49 409.02,389.46 408.73,390.45 408.05,391.35 407.11,391.99 406.15,392.51 405.06,392.84 403.61,392.89 402.55,392.66 401.40,392.27 400.42,391.56 396.55,388.01 394.57,386.05 389.14,380.82 387.49,379.20 386.27,378.42 385.20,377.90 384.23,377.87 383.04,378.33 381.82,379.27 380.70,380.37 379.62,381.54 378.39,382.74 376.97,383.94 375.43,384.95 374.34,385.48 373.20,385.56 372.01,385.35 371.06,384.91 370.29,384.34 369.51,383.56 368.83,382.79 368.26,381.97 367.74,381.06 367.38,380.08 367.09,378.86 366.79,377.08 366.24,373.64 365.99,371.38 365.82,367.83 365.74,364.97 365.66,361.38 365.88,359.82 366.55,358.16 367.33,356.45 368.40,354.84 369.35,353.28 369.78,351.50 369.81,349.35 369.69,347.50 369.29,344.43 368.97,342.12 368.49,340.05 367.62,336.87 365.64,330.50 363.16,323.04 360.27,315.31 359.60,313.60 359.01,312.61 358.43,311.89 357.78,311.44 357.12,311.20 356.53,311.17 355.83,311.36 355.03,311.63 354.09,312.23 352.44,313.41 350.81,314.30 349.49,314.77 348.43,315.06 347.11,315.23 345.92,315.17 344.75,314.86 343.64,314.21 342.76,313.43 341.86,312.38 340.92,310.87 340.02,309.23 339.42,307.77 338.91,306.31 338.46,304.60 338.20,302.84 338.11,301.35 338.30,299.52 338.62,297.49 339.49,294.11 339.85,292.03 339.93,290.39 340.05,286.84 339.74,282.42 338.95,277.84 338.39,274.17 337.37,269.94 336.27,266.37 335.36,263.59 334.56,261.25 333.76,257.68 333.20,254.57 332.99,250.40 332.99,246.97 332.50,243.59 332.19,240.04 331.77,235.98 331.86,232.88 332.11,229.84 332.48,227.63 332.77,224.62 332.95,222.44 332.66,220.65 332.16,218.67 331.17,216.25 328.67,209.31 325.48,201.26 319.34,186.61 316.73,180.21 314.99,175.94 312.98,170.16 308.29,157.35 305.17,146.60 304.01,142.16 301.98,136.75 298.44,128.73 295.17,121.02 294.28,119.20 293.42,117.91 292.25,116.35 287.97,111.06 287.12,109.89 286.39,108.71 285.96,107.49 285.90,106.40 286.02,105.32 286.50,104.52 287.13,103.96 287.87,103.53 288.72,103.27 289.40,103.18 290.16,103.49 290.84,104.07 291.82,105.44 293.41,108.18 298.03,116.99 299.01,118.75 299.97,120.54 301.39,122.44 303.16,124.43 305.04,126.27 309.53,129.79 311.64,131.08 313.27,132.20 314.99,133.32 316.42,134.36 317.73,135.35 318.96,136.66 320.14,138.25 321.61,140.64 323.47,143.33 325.45,145.76 327.45,148.26 329.82,150.86 334.26,154.94 342.27,160.24 343.91,161.48 345.70,162.75 347.64,164.03 350.62,166.04 353.89,168.18 357.19,170.58 360.87,172.95 363.46,174.87 366.09,177.08 368.21,179.44 370.14,181.98 371.51,183.88 372.49,185.70 373.58,188.35 374.73,192.09 375.53,194.88 376.25,197.58 376.89,200.70 377.32,202.77 377.78,204.25 378.40,205.88 379.26,207.26 380.52,208.72 381.73,209.59 383.05,210.14 384.68,210.50 386.18,210.56 388.11,210.29 389.40,210.00 390.84,209.56 392.36,208.72 393.85,207.59 395.33,206.18 396.54,204.38 397.78,201.57 401.59,192.86 404.30,184.94 407.24,175.60 408.96,169.99 410.78,163.50 416.40,143.15 416.46,141.43 416.59,139.59 416.65,131.63 415.68,115.02 415.65,113.24 416.05,111.77 416.73,110.48 417.55,109.36 418.68,108.30 420.11,107.16 421.41,106.19 423.41,105.06 425.96,103.81 428.39,102.85 430.58,102.07 432.99,101.15 435.15,100.15 437.13,99.10 439.16,97.82 440.89,96.04 442.51,93.94 443.94,91.49 445.10,89.00 445.69,86.77 445.91,84.79 446.14,82.39 446.29,80.61 446.26,78.80 445.96,77.13 445.57,75.65 445.12,74.45 444.38,72.94 443.22,70.48 442.23,68.72 440.08,65.24 432.48,52.70 430.29,49.57 428.70,47.74 427.31,46.20 425.82,44.63 422.66,41.49 421.49,40.49 420.87,40.00"
        fill="none"
        stroke="#e94560"
        stroke-width="8.0"
        stroke-linejoin="round"
        stroke-linecap="round"/>
  <!-- Start/finish line -->
  <line x1="57.73" y1="769.25" x2="22.27" y2="750.75"
        stroke="#f5f5f5" stroke-width="9.6"
        stroke-linecap="round"/>
</svg>
