<?xml version="1.0" encoding="utf-8"?>
<svg xmlns="http://www.w3.org/2000/svg"
     width="800.0" height="444.7"
     viewBox="0 0 800.0 444.7">
  <rect width="100%" height="100%" fill="#1a1a2e"/>
  <!-- Track outline -->
  <polyline points="760.00,220.68 756.22,219.46 752.95,218.20 749.26,216.85 745.37,215.36 742.06,213.66 738.52,211.64 734.52,208.82 730.10,205.65 725.69,202.12 721.46,198.32 720.64,197.75 719.70,197.41 718.79,197.27 717.81,197.34 716.92,197.56 715.99,198.11 715.37,198.70 714.91,199.25 714.57,199.85 714.34,200.62 714.21,201.35 714.16,202.10 714.23,202.90 716.63,216.86 716.95,218.07 717.54,219.89 718.20,221.36 719.27,223.23 720.95,225.79 722.25,227.34 723.85,229.16 732.19,238.02 734.61,240.49 741.25,247.64 742.20,248.61 742.82,249.50 743.28,250.55 743.55,251.53 743.59,252.53 743.53,253.44 743.30,254.17 742.86,255.08 742.39,255.70 741.70,256.21 741.01,256.65 740.12,257.01 739.19,257.24 738.07,257.33 737.14,257.27 736.22,257.08 734.26,256.35 731.17,254.85 721.52,249.84 719.33,248.83 717.43,248.22 715.02,247.70 708.98,246.40 705.38,245.66 703.30,245.16 701.52,244.54 700.16,243.84 697.89,242.28 696.16,240.69 695.02,239.43 692.92,237.10 690.95,234.71 689.38,232.11 688.11,229.62 684.56,221.78 680.39,211.60 678.52,207.48 677.08,204.57 675.69,202.24 674.52,200.65 673.68,199.60 671.25,197.14 667.81,193.72 666.08,192.32 664.30,191.16 662.25,189.93 660.42,189.08 658.53,188.37 656.58,187.82 652.47,186.91 648.15,185.94 646.12,185.10 644.96,184.37 643.91,183.30 643.18,182.18 642.54,181.10 642.06,180.01 641.67,178.82 641.49,177.19 641.45,175.97 641.47,174.60 641.63,173.16 642.34,170.04 643.68,165.38 645.26,160.27 646.00,157.74 646.46,156.07 646.69,154.54 646.67,152.97 646.30,151.28 645.21,148.01 642.45,142.38 640.21,138.78 638.54,136.45 637.22,134.75 635.89,133.48 634.34,132.27 632.79,131.40 631.04,130.60 629.65,130.22 619.83,127.95 612.89,126.46 610.54,125.57 608.38,124.71 606.87,124.00 602.98,121.76 599.50,119.20 595.55,115.96 591.22,112.23 584.61,106.36 577.76,100.21 575.21,98.31 571.02,95.20 568.58,93.24 566.62,91.55 564.17,89.11 561.01,86.16 553.16,78.26 550.12,75.52 548.07,74.06 545.91,73.03 543.10,71.87 540.98,71.07 537.91,70.35 533.88,69.69 529.34,69.17 525.24,68.82 520.71,68.37 517.75,67.61 511.60,65.07 508.52,63.70 498.29,58.79 482.77,50.14 479.50,47.87 476.67,46.23 474.42,45.04 472.37,44.04 469.20,42.81 465.69,41.87 461.08,41.18 457.75,40.87 454.45,40.73 448.32,40.87 432.01,41.24 418.69,41.28 413.74,41.31 408.57,41.00 404.43,40.71 399.52,40.14 397.62,40.03 396.15,40.00 394.99,40.22 393.93,40.76 393.06,41.44 392.27,42.39 391.70,43.31 391.35,44.34 391.16,45.45 391.27,46.46 391.54,47.24 392.06,48.06 392.68,48.65 393.63,49.06 394.58,49.25 395.80,49.41 397.18,49.47 399.38,49.41 402.35,49.11 404.82,48.76 407.61,48.52 409.89,48.44 413.36,48.55 417.45,48.87 421.11,49.32 426.35,49.88 430.29,50.34 433.68,50.94 436.36,51.63 442.82,53.31 444.71,53.93 449.83,55.61 451.61,56.24 453.79,57.16 455.93,58.09 457.70,59.12 458.96,60.08 460.18,61.09 461.75,62.47 463.63,64.40 465.04,65.92 466.80,67.82 468.39,69.71 471.40,72.81 474.84,76.52 476.67,78.33 478.06,79.50 479.39,80.39 486.40,84.74 489.97,87.01 491.54,88.26 492.57,89.53 493.14,90.62 493.36,91.67 493.44,92.62 493.52,93.68 493.49,94.82 493.30,95.77 492.90,96.67 492.24,97.53 491.61,98.08 490.81,98.60 489.82,99.14 488.82,99.51 487.66,99.70 486.49,99.79 485.19,99.72 483.92,99.38 482.60,98.71 481.54,97.97 480.65,97.00 479.88,96.01 479.29,94.95 478.36,93.39 477.52,91.61 476.65,89.75 475.70,87.66 474.54,85.54 473.48,84.14 472.31,82.65 470.64,80.63 469.09,79.09 467.25,77.49 464.91,75.89 463.27,74.84 461.69,73.84 458.89,72.38 457.06,71.43 455.12,70.47 451.79,69.16 443.26,66.84 436.48,65.20 433.24,64.33 431.77,64.01 430.36,63.87 429.03,63.92 428.10,64.03 427.26,64.36 426.41,64.88 425.74,65.61 425.22,66.39 424.75,67.30 424.61,68.26 424.63,69.31 424.77,70.32 425.18,71.48 425.65,72.17 426.35,72.69 427.37,73.13 428.49,73.38 430.00,73.37 431.78,73.14 433.13,72.93 434.70,72.67 439.30,71.85 440.10,71.78 440.77,71.77 441.60,71.87 442.47,72.10 443.37,72.42 444.46,72.91 445.43,73.52 446.47,74.38 447.84,75.72 449.98,77.80 452.53,80.57 454.33,82.47 455.68,83.99 456.53,85.01 457.28,86.00 458.04,87.12 458.69,88.31 459.19,89.20 459.99,90.58 460.78,92.03 461.75,93.89 462.50,95.42 463.38,97.70 464.30,101.46 464.53,102.96 464.75,104.80 464.78,106.97 464.72,108.84 464.68,109.71 464.46,111.37 464.32,112.47 464.15,114.85 464.06,115.96 464.10,117.00 464.25,118.02 464.55,119.11 464.94,120.48 465.41,121.69 466.59,124.25 468.10,127.52 469.77,131.48 471.28,135.11 472.46,137.80 472.91,138.85 473.45,139.80 473.95,140.60 474.66,141.45 475.49,142.35 476.24,143.03 477.31,143.79 478.28,144.36 479.63,145.04 480.95,145.59 482.40,146.04 488.08,147.89 495.55,150.13 501.58,151.94 505.85,153.11 507.54,153.63 508.62,154.06 509.42,154.58 509.85,155.16 510.28,156.16 510.52,157.33 510.46,158.37 510.26,159.36 509.94,160.25 509.42,161.09 508.64,161.79 507.75,162.15 506.76,162.35 505.81,162.43 504.68,162.31 503.34,161.98 502.10,161.46 500.46,160.58 498.01,159.21 495.47,157.67 493.36,156.73 491.16,155.96 488.28,155.34 480.29,153.96 466.52,151.41 465.35,151.15 464.07,150.79 462.75,150.25 461.05,149.35 459.73,148.40 458.52,147.25 457.35,145.91 456.42,144.59 455.47,143.08 454.75,141.87 454.08,140.38 453.17,138.22 452.06,134.49 450.61,130.77 449.74,128.82 448.57,126.41 447.05,123.27 445.88,121.08 444.35,118.47 443.24,116.77 441.54,114.45 439.99,112.82 438.06,111.16 435.68,109.12 433.08,106.75 430.92,104.64 428.40,101.85 427.02,100.21 425.53,98.46 424.28,97.05 423.30,96.25 422.55,95.77 421.77,95.47 421.12,95.34 420.30,95.36 419.65,95.51 419.04,95.73 418.29,96.12 417.79,96.49 417.40,96.93 417.06,97.49 416.77,98.14 416.60,98.74 416.45,99.56 416.47,100.34 416.62,101.01 416.95,101.62 417.42,102.29 418.12,102.88 419.15,103.67 420.69,104.59 422.21,105.45 423.98,106.59 426.02,107.60 427.73,108.66 429.42,109.81 430.82,111.05 431.79,112.33 432.53,113.61 433.09,115.00 433.72,116.88 434.46,119.03 435.27,121.69 438.54,132.30 440.72,139.67 442.53,145.20 443.62,147.97 444.18,149.06 445.02,150.50 446.12,152.21 447.18,153.71 450.55,157.71 453.53,161.76 456.40,165.43 457.61,166.79 458.65,167.97 461.42,170.96 468.31,177.47 472.87,182.05 474.75,184.06 476.95,187.13 482.11,194.99 484.16,198.21 485.49,200.28 486.44,202.18 487.14,204.17 487.72,206.15 487.88,207.97 488.38,212.84 488.79,220.71 489.00,226.33 489.37,234.17 489.37,249.38 489.37,252.61 489.00,258.14 488.50,260.72 487.80,263.66 486.68,268.64 486.06,271.83 485.18,276.25 484.77,277.48 484.22,278.28 483.61,278.88 482.83,279.29 481.92,279.51 480.91,279.63 479.89,279.56 478.89,279.19 478.02,278.53 477.45,277.73 477.06,276.57 476.95,275.32 477.13,274.06 477.63,272.72 480.29,267.36 481.02,265.98 481.90,263.88 482.37,262.15 482.76,260.52 482.85,259.04 482.85,257.64 482.65,255.45 482.47,253.99 482.11,252.15 481.74,250.77 480.65,248.00 479.18,245.26 475.88,239.80 470.70,231.46 466.86,224.95 463.40,220.62 460.71,217.84 457.53,214.88 451.49,208.92 445.08,202.82 439.27,196.83 433.46,190.84 427.29,184.85 422.93,180.70 421.80,179.42 420.19,177.14 418.65,174.62 416.97,171.65 415.08,168.11 413.71,165.57 412.60,163.80 411.24,162.06 408.50,159.06 402.96,153.50 397.52,147.97 393.53,144.20 391.33,142.31 389.40,140.92 387.28,139.47 384.53,137.82 380.62,135.88 377.91,134.60 373.61,132.94 371.27,132.12 369.37,131.58 366.98,131.04 364.96,130.78 363.47,130.72 362.11,130.72 360.84,130.75 359.40,130.91 357.22,131.37 353.95,132.30 345.60,135.06 336.53,138.29 326.72,141.98 317.28,145.20 309.33,147.54 308.04,147.92 306.59,148.36 305.29,148.68 303.37,149.11 301.28,149.45 298.57,149.85 294.41,150.27 292.60,150.48 291.33,150.67 290.28,150.95 289.46,151.30 288.78,151.77 288.15,152.42 287.63,153.13 287.35,153.90 287.20,154.67 287.18,155.56 287.27,156.35 287.57,157.16 287.93,157.80 288.50,158.38 289.25,158.86 290.14,158.99 290.91,159.02 291.83,158.95 292.94,158.70 294.78,158.11 298.41,156.73 300.58,155.81 302.25,155.12 303.96,154.42 305.41,154.03 307.42,153.50 309.98,153.07 312.75,152.80 316.22,152.57 319.92,152.57 325.63,152.58 330.62,152.52 332.17,152.43 335.73,152.03 341.22,151.20 342.94,151.14 345.84,151.07 349.03,151.14 351.64,151.44 354.09,151.79 355.69,152.01 357.80,152.41 360.12,153.09 362.99,154.19 364.33,154.81 365.97,155.77 367.98,157.17 370.28,158.50 373.56,160.42 375.20,161.22 377.96,162.61 379.09,163.19 379.95,163.80 380.52,164.38 380.91,165.02 381.25,165.78 381.40,166.59 381.48,167.45 381.31,168.49 381.03,169.53 380.65,170.38 380.08,171.00 379.39,171.60 378.48,172.11 377.50,172.39 376.49,172.51 375.41,172.28 374.62,172.00 373.94,171.58 373.17,170.96 372.19,169.94 371.15,168.34 370.36,166.89 369.19,165.18 368.02,163.74 366.97,162.72 365.91,161.89 364.59,161.03 363.44,160.44 362.22,160.01 360.95,159.73 359.67,159.69 358.49,159.73 356.92,159.97 355.43,160.22 351.24,161.28 340.52,164.10 329.26,166.87 316.56,170.10 306.76,172.40 299.13,174.71 292.23,176.55 284.97,178.85 280.25,180.24 274.35,181.93 269.98,182.81 267.42,183.04 265.54,183.07 263.78,182.94 262.15,182.71 260.21,182.32 255.36,180.79 253.39,180.24 249.03,179.31 245.63,179.09 241.60,178.78 235.21,178.49 232.30,178.38 230.27,178.19 228.48,177.91 226.54,177.33 224.71,176.48 223.09,175.53 221.78,174.67 220.50,173.60 219.26,172.40 217.96,171.10 213.09,165.49 210.26,162.21 208.86,160.65 207.43,159.30 205.42,157.81 203.82,156.78 202.37,155.86 199.78,154.63 193.32,152.08 186.11,149.29 178.83,146.43 170.45,143.07 168.56,142.11 166.39,140.93 163.56,139.33 160.66,137.60 159.72,137.15 158.73,136.86 157.64,136.70 156.39,136.80 155.23,137.19 154.16,137.60 153.38,138.15 152.79,138.91 152.42,139.81 152.17,140.72 152.07,141.64 152.01,142.75 152.25,149.05 152.31,151.73 152.26,155.69 152.03,158.66 151.68,160.96 151.21,162.76 150.74,164.14 149.84,165.96 148.89,167.57 147.97,168.90 146.91,170.09 146.08,171.03 145.20,171.94 143.02,173.78 141.10,175.19 138.37,177.19 135.04,179.78 132.55,181.78 130.76,183.32 129.49,184.75 128.57,185.91 127.90,187.01 127.01,188.72 126.51,189.96 125.97,191.43 125.45,193.10 125.03,195.06 123.06,204.67 121.66,210.68 121.12,212.58 120.52,214.10 119.93,215.78 118.90,218.10 117.99,219.88 115.71,223.75 113.25,227.72 103.49,242.58 102.06,244.71 100.28,247.40 98.73,249.83 96.04,253.89 93.88,257.24 91.14,261.44 90.04,263.24 89.07,265.08 88.08,266.96 87.39,268.43 86.80,269.77 86.13,271.46 85.54,273.08 85.03,274.52 84.21,277.04 83.41,279.03 82.85,280.34 82.17,281.49 81.27,282.64 80.33,283.76 79.52,284.59 78.60,285.22 77.47,285.97 76.22,286.51 74.27,287.13 72.76,287.47 71.29,287.65 69.27,287.85 67.02,288.03 62.46,288.45 60.35,288.83 58.91,289.06 57.54,289.53 56.41,290.14 55.03,291.21 52.46,293.53 50.23,295.67 46.71,298.59 43.78,300.86 41.82,302.45 41.23,303.04 40.74,303.78 40.38,304.51 40.16,305.25 40.02,306.10 40.00,306.96 40.18,307.97 40.47,308.94 40.95,309.76 41.44,310.42 42.15,311.15 43.09,311.81 44.10,312.25 45.26,312.44 46.85,312.43 47.91,312.37 51.96,312.18 56.96,311.69 60.43,311.60 63.17,311.73 65.65,312.00 68.87,312.74 70.96,313.35 88.38,319.86 95.61,322.41 97.92,322.94 100.23,323.16 102.66,323.19 105.78,322.91 108.40,322.19 113.58,320.04 142.98,304.09 146.31,302.30 147.85,301.63 149.60,301.02 150.53,300.76 151.41,300.60 152.27,300.55 153.10,300.55 153.69,300.61 154.34,300.79 154.90,300.97 155.31,301.19 155.57,301.36 155.75,301.81 155.70,302.16 155.52,302.74 152.14,311.59 145.42,328.60 128.27,370.56 115.07,404.73"
        fill="none"
        stroke="#e94560"
        stroke-width="8.0"
        stroke-linejoin="round"
        stroke-linecap="round"/>
  <!-- Start/finish line -->
  <line x1="755.32" y1="201.23" x2="764.68" y2="240.12"
        stroke="#f5f5f5" stroke-width="9.6"
        stroke-linecap="round"/>
</svg>
