<?xml version="1.0" encoding="utf-8"?>
<svg xmlns="http://www.w3.org/2000/svg"
     width="667.2" height="800.0"
     viewBox="0 0 667.2 800.0">
  <rect width="100%" height="100%" fill="#1a1a2e"/>
  <!-- Track outline -->
  <polyline points="578.21,40.00 577.14,44.91 576.73,49.02 576.73,50.78 578.09,64.10 579.32,68.41 579.72,69.39 579.86,70.18 580.40,71.35 582.44,73.90 582.44,74.09 587.06,85.06 588.29,90.94 588.69,95.25 588.15,110.33 587.88,112.88 587.88,116.21 588.42,119.14 590.33,124.04 593.32,128.94 593.86,130.11 594.54,131.09 596.85,136.58 598.48,139.32 599.16,141.08 599.57,143.43 599.57,145.00 600.11,150.88 600.11,153.42 600.25,154.01 600.79,155.19 601.47,155.97 602.69,156.36 603.78,156.36 604.46,156.17 604.60,155.97 604.87,155.97 605.41,154.21 606.64,152.25 608.27,150.29 610.85,148.13 614.66,145.59 616.83,145.20 619.69,145.78 621.59,147.35 622.27,148.53 624.71,151.27 626.75,152.84 627.03,153.62 627.16,153.82 627.03,154.99 626.75,155.38 624.04,154.99 622.40,154.21 621.45,153.42 620.09,151.66 618.73,151.27 617.24,151.27 616.56,151.46 613.98,153.23 611.80,156.56 611.12,158.71 610.99,159.89 610.85,160.08 610.85,163.61 610.71,164.78 610.58,164.98 610.58,165.18 609.49,166.16 609.22,166.16 608.81,166.55 607.04,166.94 606.09,167.72 604.33,170.07 602.42,171.44 601.20,172.03 599.98,173.60 599.70,174.77 599.84,175.17 599.84,175.36 599.98,175.36 599.98,175.56 600.11,175.56 600.11,175.75 600.38,175.75 600.66,175.95 600.93,175.75 601.20,175.75 602.69,174.38 604.46,172.03 605.55,171.64 608.81,171.44 611.39,170.86 612.21,170.27 614.93,166.94 615.61,166.55 617.24,166.55 617.37,166.74 617.65,166.74 618.19,167.13 618.33,167.53 618.46,167.72 618.87,169.49 599.70,183.98 597.94,184.76 596.44,184.96 594.68,184.57 592.77,184.57 588.56,185.94 586.25,185.74 584.89,185.16 579.86,180.06 576.73,178.69 575.37,178.89 570.07,178.10 565.86,176.15 563.14,173.99 559.74,169.68 554.03,164.00 552.27,161.65 548.33,154.99 546.83,151.66 539.90,143.24 536.36,139.91 533.24,137.56 533.10,137.36 531.88,136.38 529.02,135.60 521.14,135.40 520.60,135.21 519.24,133.84 517.33,129.53 516.25,125.61 516.11,124.24 516.38,118.95 516.65,117.58 516.79,115.81 516.65,114.64 516.38,114.25 516.38,114.05 516.25,113.86 515.98,113.86 515.84,113.66 515.16,113.66 514.89,113.86 514.62,113.86 514.07,114.44 513.80,115.03 513.66,115.62 513.80,120.71 513.53,123.26 512.71,126.39 512.58,127.76 512.85,131.49 512.71,135.21 513.26,141.47 513.39,141.87 513.94,142.65 514.62,143.24 515.98,143.83 523.04,144.02 524.54,143.63 525.22,143.63 526.31,144.02 527.12,144.61 532.29,150.29 533.51,152.05 534.19,156.17 537.04,188.88 537.32,189.66 537.99,190.64 541.53,193.38 541.66,193.58 550.50,197.30 551.45,197.89 552.27,198.87 552.54,199.45 553.08,201.61 553.35,205.92 553.90,207.49 555.26,210.03 558.66,214.73 559.88,216.10 562.73,217.87 562.87,218.06 564.23,219.04 569.39,226.29 569.67,226.49 572.38,230.99 572.93,232.36 573.47,233.34 574.42,235.69 576.05,241.18 578.91,246.66 580.81,249.40 583.94,252.15 585.16,253.71 586.38,254.89 587.06,256.06 587.47,257.63 587.47,258.41 587.06,261.55 586.66,262.92 585.57,264.29 559.06,282.51 555.53,283.29 554.31,283.29 552.54,282.90 546.69,279.96 546.29,279.57 546.01,278.98 545.61,278.59 545.47,278.00 545.20,277.41 545.06,276.63 545.06,262.53 544.66,260.96 542.62,257.43 536.77,253.52 532.97,251.95 531.06,250.38 530.79,249.99 530.11,248.23 529.16,243.53 528.75,238.83 528.21,235.69 527.66,234.32 527.53,233.73 527.26,233.54 527.12,232.95 524.54,229.42 516.11,220.02 512.71,214.73 512.44,214.54 511.35,212.38 507.55,207.29 504.69,204.35 504.15,203.57 502.25,199.85 499.80,193.19 499.80,192.99 498.30,188.68 496.95,185.94 495.18,183.20 494.09,182.02 493.55,181.63 493.14,181.04 490.01,180.06 482.81,179.87 481.31,179.08 479.96,177.71 479.82,177.71 475.33,170.07 472.75,164.39 468.67,150.09 468.13,147.35 467.31,129.53 466.36,125.22 465.95,124.24 462.56,121.10 457.66,117.77 457.53,117.58 454.54,115.62 442.03,103.67 441.90,103.67 441.08,103.28 439.04,103.67 438.77,103.87 438.63,103.87 438.09,104.65 437.41,106.41 437.41,107.00 437.55,107.00 437.55,107.78 438.23,109.15 453.04,125.41 453.18,125.41 453.86,126.39 454.27,126.78 454.67,127.76 454.54,131.88 454.27,133.64 454.27,134.42 454.40,135.40 454.67,135.79 454.67,135.99 455.08,136.97 455.22,138.54 455.08,138.93 455.08,139.12 454.67,139.71 453.18,139.91 453.18,139.71 452.77,139.71 452.50,139.52 451.95,138.73 451.82,138.34 451.68,138.14 451.68,135.40 452.09,132.46 452.09,131.88 452.36,130.31 452.36,129.92 452.09,129.13 451.95,128.94 450.60,127.96 448.56,126.98 445.97,126.20 444.75,126.20 444.07,126.59 443.94,126.59 443.66,126.98 443.66,127.76 443.80,128.16 444.34,128.94 445.57,129.33 446.52,129.33 447.06,129.13 448.56,129.13 448.83,129.33 449.10,129.33 449.37,129.53 449.51,129.53 449.51,129.72 449.64,129.72 449.78,129.92 449.78,130.11 449.92,130.51 449.92,131.29 449.64,132.07 448.83,132.86 445.57,133.84 444.75,133.84 442.98,133.44 435.51,128.16 433.88,127.37 431.97,127.37 431.16,128.16 431.02,128.55 430.89,128.74 430.75,129.13 430.75,130.70 431.02,132.07 434.96,135.60 435.10,135.60 437.00,136.97 437.14,137.36 437.41,137.75 437.41,139.12 437.27,139.52 437.27,139.91 437.00,140.69 436.73,141.08 436.46,141.28 435.78,141.47 434.28,141.47 433.47,141.08 433.33,140.89 433.20,140.89 431.43,139.71 422.73,132.27 421.51,131.68 420.83,131.68 419.60,132.27 419.20,133.44 419.20,135.01 419.33,135.60 420.42,136.97 420.56,137.36 431.16,147.55 433.33,148.72 433.47,148.92 434.42,149.11 436.05,150.09 444.34,162.04 445.16,163.61 445.70,165.18 445.97,168.90 446.38,170.66 446.93,172.03 446.93,172.23 447.33,173.40 447.61,174.77 447.20,178.89 446.65,181.04 445.70,183.78 444.61,185.94 442.17,192.60 441.49,196.32 441.62,199.65 443.80,205.92 443.94,206.11 445.02,211.80 445.02,213.75 445.43,217.67 445.97,219.04 446.93,219.83 449.64,220.41 453.04,220.02 458.34,220.22 462.42,222.37 463.51,223.55 464.87,228.25 465.14,230.60 465.68,231.97 466.63,233.54 468.54,235.69 469.08,237.06 469.22,237.65 469.08,239.02 468.40,240.98 467.04,243.72 464.60,250.58 462.83,256.85 461.88,264.49 461.20,266.45 455.62,275.46 453.86,279.37 453.31,282.90 452.77,291.52 451.95,298.96 451.82,299.16 447.61,314.83 445.70,324.23 444.89,326.38 439.72,334.81 439.04,336.37 437.95,339.90 437.55,340.68 436.73,341.47 435.51,342.05 434.28,342.05 434.01,341.86 433.74,341.86 432.93,341.07 432.65,340.49 432.52,339.90 432.52,339.12 432.79,338.14 433.47,336.77 434.28,335.59 435.78,332.65 437.00,329.52 437.41,327.17 437.41,324.03 437.14,320.31 436.60,317.96 434.56,311.89 434.42,309.73 434.56,300.33 433.74,294.85 434.01,292.89 435.24,288.97 434.96,285.84 434.15,283.49 433.47,279.96 433.74,271.73 432.52,267.23 432.25,265.27 434.15,254.30 434.15,251.56 433.88,249.60 433.20,248.42 432.11,247.45 428.30,245.49 417.43,241.96 416.89,241.96 412.81,240.59 411.72,239.81 410.91,238.83 408.46,236.67 396.50,230.21 394.46,228.44 391.06,224.53 389.84,223.55 388.75,223.55 386.85,224.53 386.17,225.11 385.62,225.90 385.35,226.88 385.35,233.34 385.62,235.69 385.90,236.67 386.30,237.46 387.25,238.63 388.21,239.41 391.47,241.37 393.10,242.74 393.64,243.92 393.91,245.29 393.91,246.47 393.64,247.84 389.97,257.04 389.84,257.63 387.39,262.92 385.08,266.05 383.04,268.01 379.64,270.56 374.89,273.50 370.81,274.08 368.36,273.89 364.15,272.52 361.43,272.32 361.29,272.52 361.16,272.52 360.21,273.30 360.07,273.30 360.07,273.50 359.53,274.08 359.25,274.67 359.12,275.46 359.93,276.83 361.02,277.61 362.38,278.00 378.15,278.59 379.91,279.57 380.73,280.74 381.00,281.33 381.14,282.31 381.00,284.86 380.19,289.75 379.78,290.93 379.23,291.91 378.56,292.50 378.28,292.89 365.37,297.79 363.88,299.35 363.47,300.14 362.11,304.05 363.20,314.63 363.20,316.00 362.92,316.79 357.08,328.34 356.40,329.13 355.45,329.71 350.96,330.69 350.55,330.50 348.24,330.30 346.07,329.71 333.02,315.61 332.07,315.02 331.25,314.83 330.44,315.02 329.21,315.61 328.54,316.20 327.99,317.37 327.72,319.14 328.94,343.43 329.35,344.40 330.44,345.97 331.12,346.56 333.56,347.93 337.10,348.32 338.73,349.11 339.55,350.09 339.68,350.67 339.68,352.24 339.27,353.61 337.78,355.18 337.78,355.37 336.28,357.33 335.88,360.08 335.88,361.25 336.01,362.03 336.28,362.62 337.91,364.58 350.55,375.35 351.23,375.75 352.46,377.12 353.14,379.08 353.27,380.25 353.55,381.03 353.41,382.41 352.73,383.58 351.64,384.36 351.37,384.76 347.70,387.69 347.16,388.48 346.75,389.65 346.07,395.53 334.92,405.71 334.79,405.71 333.70,407.28 333.29,408.46 332.75,409.44 332.21,409.83 331.25,410.22 330.44,410.22 330.30,410.02 330.17,410.02 329.89,409.63 329.89,409.44 329.76,409.24 329.76,408.85 330.30,407.09 331.12,405.91 332.75,404.54 333.02,404.15 336.42,401.21 337.37,399.45 337.64,398.47 337.23,394.35 336.69,391.81 336.55,391.61 336.28,390.44 335.60,388.87 335.20,388.67 333.97,387.30 328.67,382.80 326.90,380.05 326.63,378.68 325.95,376.53 325.41,375.94 324.59,375.35 324.05,375.35 323.51,375.55 322.96,375.94 322.69,376.72 323.51,380.84 323.64,382.21 323.37,386.91 322.28,390.63 319.43,396.12 316.57,399.84 312.09,404.34 311.27,404.74 311.00,404.74 310.73,404.93 309.64,404.54 309.10,403.95 309.10,403.76 309.37,402.78 310.59,401.21 313.31,398.47 314.40,397.10 315.35,395.33 316.71,391.02 316.71,390.83 317.39,388.09 317.25,384.95 316.71,383.19 315.08,379.86 313.99,378.68 313.04,378.10 302.30,376.14 297.95,374.37 296.19,373.20 292.38,372.02 291.02,372.22 290.07,372.81 289.80,373.20 289.52,373.98 289.52,374.57 289.66,375.16 289.93,375.75 290.75,376.53 300.81,379.08 303.39,380.05 304.34,381.03 305.84,383.78 305.84,383.97 306.52,385.93 306.92,390.04 306.79,392.59 306.11,395.72 305.02,398.86 303.25,401.21 292.65,410.22 291.97,411.00 291.43,412.77 291.02,413.55 288.71,420.41 287.21,422.95 285.18,424.91 282.86,428.44 280.83,432.16 280.69,432.75 280.15,434.12 280.15,439.21 281.10,444.30 283.14,448.22 283.54,450.18 283.54,452.53 282.59,456.45 281.23,460.36 280.28,462.52 278.79,465.07 274.03,471.73 272.40,477.99 272.13,484.07 272.26,487.98 269.41,500.91 269.41,502.28 270.50,507.57 270.63,515.21 270.90,516.39 271.31,517.17 271.31,517.37 271.58,518.34 271.58,519.72 271.31,520.11 271.17,520.50 271.04,520.50 270.90,520.70 270.22,521.09 269.27,520.89 268.73,520.50 268.46,519.72 268.18,518.34 268.18,516.39 268.05,515.99 267.51,512.47 263.97,504.44 263.29,501.11 262.75,496.21 262.75,495.04 261.93,492.49 257.85,485.63 256.36,483.67 252.83,482.11 250.92,480.93 250.38,480.34 249.56,477.99 249.16,476.23 248.75,475.25 246.57,472.51 244.94,471.53 244.67,471.53 243.31,470.94 241.00,470.55 237.87,469.57 235.43,467.22 235.29,467.22 234.75,466.63 232.71,463.11 232.03,460.56 231.21,459.39 230.26,459.19 229.04,459.58 229.31,460.76 234.34,468.79 234.48,469.18 234.75,469.57 235.02,470.55 235.43,471.14 235.56,471.92 236.24,474.08 236.79,477.01 236.65,478.39 235.97,480.93 235.70,481.52 235.43,482.89 235.29,482.89 235.15,483.67 234.88,484.46 234.75,486.42 234.61,487.00 234.61,489.55 234.75,489.94 235.15,494.64 237.19,501.50 237.74,502.67 240.05,506.00 240.32,506.20 240.59,506.79 242.09,508.75 242.90,510.90 243.45,514.43 243.45,515.99 243.58,516.58 243.58,519.52 243.45,520.70 243.45,522.26 243.72,524.61 244.13,525.79 244.53,528.33 244.67,531.66 245.35,537.15 245.35,538.72 245.21,538.72 244.94,539.11 244.26,539.11 243.72,538.91 243.31,538.32 242.63,536.17 242.63,535.78 239.10,528.14 237.47,520.50 236.92,519.72 236.65,519.72 236.51,519.52 236.24,519.52 236.11,519.72 235.83,519.72 235.43,519.91 235.29,520.11 235.15,520.11 234.75,520.70 234.61,521.09 234.61,521.87 235.83,533.23 235.83,534.21 236.24,537.93 236.24,540.67 236.38,542.05 236.38,544.20 236.24,544.79 236.24,545.38 236.11,545.38 235.56,546.94 233.93,550.47 233.93,550.66 233.80,550.86 233.66,550.86 233.52,551.06 233.25,551.06 233.12,551.25 232.71,551.25 232.03,550.86 231.49,550.27 231.35,550.27 231.21,550.08 231.21,549.88 231.08,549.69 231.08,549.49 230.94,549.29 230.94,548.71 230.81,548.12 230.81,546.94 230.13,544.59 228.09,541.26 227.95,541.26 224.42,536.17 217.08,520.70 216.94,519.72 216.81,519.52 216.53,518.34 216.53,517.95 215.58,513.45 214.63,511.10 210.55,504.63 210.14,504.44 210.01,504.24 209.74,504.24 209.47,504.05 209.33,504.05 208.65,504.44 208.11,505.22 208.11,505.42 207.97,505.42 207.97,505.81 208.24,506.20 208.51,506.98 209.33,508.36 209.60,509.14 210.42,510.71 210.69,511.68 210.96,512.27 211.37,514.04 211.37,515.60 211.50,515.99 210.96,522.65 210.14,526.38 208.11,531.47 208.11,531.86 207.70,533.43 204.30,559.48 204.16,559.68 204.03,560.07 203.48,560.46 203.21,560.46 203.08,560.65 202.80,560.65 202.67,560.46 202.26,560.46 202.13,560.26 201.99,560.26 201.72,559.87 201.72,559.68 201.31,557.91 201.17,553.99 200.90,553.21 200.63,551.84 199.95,549.88 199.54,549.29 199.41,548.90 198.73,547.92 198.73,547.73 198.32,547.14 196.82,543.61 196.14,538.32 196.01,535.58 196.42,527.55 196.69,525.98 196.69,525.00 196.55,524.61 196.42,524.42 196.28,524.03 196.14,523.83 196.01,523.83 195.74,523.63 194.51,523.63 194.24,523.83 193.97,523.83 193.83,524.03 193.70,524.03 193.56,524.22 193.56,524.42 193.15,525.00 193.02,525.59 193.02,525.98 192.07,531.66 190.98,535.39 190.30,536.56 188.13,542.83 187.85,544.00 187.85,544.20 186.63,548.31 183.64,565.16 183.23,569.27 183.23,571.62 183.10,571.82 183.10,572.02 182.96,572.21 182.96,572.41 182.82,572.41 182.69,572.60 182.55,572.60 182.42,572.80 181.74,572.80 181.06,572.41 180.92,572.21 180.65,572.02 180.65,571.82 180.51,571.62 180.51,571.43 180.38,571.23 180.38,570.84 180.51,570.25 179.83,559.48 179.43,558.11 179.29,557.91 179.02,557.72 178.75,557.72 178.34,557.52 177.66,557.52 177.12,557.91 176.84,558.70 174.26,576.91 174.12,577.30 174.12,577.50 173.99,577.70 173.85,578.09 173.72,578.28 173.58,578.28 173.58,578.48 172.22,578.48 171.68,578.09 171.54,577.89 171.41,577.89 171.27,577.70 171.27,577.50 171.13,577.30 170.59,574.37 170.32,559.28 170.18,558.89 170.18,558.70 170.05,558.70 170.05,558.50 169.50,557.72 169.23,557.52 168.82,557.52 168.69,557.32 167.60,557.32 167.46,557.52 167.19,557.52 166.92,557.91 166.78,557.91 166.65,558.30 166.51,558.50 166.51,559.28 166.92,560.46 167.06,564.96 166.92,565.75 166.92,566.53 165.02,573.19 163.66,579.46 162.44,583.18 162.03,583.96 161.08,587.10 160.67,591.41 160.67,592.78 160.53,593.17 160.26,593.37 160.26,593.56 159.99,593.56 159.85,593.76 159.58,593.76 159.31,593.95 159.04,593.76 157.95,593.76 157.68,593.37 157.41,593.37 157.27,593.17 157.27,592.97 157.13,592.78 157.13,592.58 156.86,592.19 156.86,591.21 156.73,590.43 156.73,589.25 156.18,586.51 156.05,586.31 155.37,583.38 155.37,582.98 154.96,580.44 154.96,580.05 154.82,579.85 154.69,579.46 154.55,579.26 154.42,579.26 154.42,579.07 154.14,579.07 154.01,578.87 153.33,578.87 153.33,579.07 153.06,579.07 152.92,579.26 152.78,579.26 152.65,579.46 152.51,579.46 152.51,579.65 152.38,579.85 152.24,579.85 152.24,580.05 148.98,585.92 148.57,587.10 148.03,589.45 147.48,596.50 146.40,601.59 145.72,603.16 145.17,605.90 145.17,608.25 145.58,611.00 145.58,612.37 145.44,612.76 145.04,613.35 144.36,613.74 143.54,613.74 143.13,613.93 143.00,613.74 142.73,613.74 142.45,613.54 142.32,613.54 141.37,612.56 141.37,612.17 140.96,610.80 140.69,609.04 140.42,608.64 140.28,608.06 139.06,606.69 138.24,606.10 136.61,605.51 131.72,604.53 128.05,602.96 125.33,601.01 121.52,599.44 117.85,599.05 117.72,599.24 117.44,599.24 117.04,599.83 117.04,600.22 116.90,600.61 117.04,601.01 117.04,601.40 117.31,601.79 118.26,602.57 120.98,604.14 121.66,605.12 122.34,607.08 122.34,609.04 122.47,609.43 122.47,610.60 126.28,618.63 127.09,622.16 127.50,625.69 127.64,626.08 127.77,629.21 128.32,633.13 130.22,639.20 131.85,642.53 132.12,642.73 133.08,644.29 135.25,646.84 136.75,648.21 137.70,648.80 137.83,649.00 139.74,650.37 139.87,650.56 140.01,650.56 140.01,650.76 140.14,650.95 140.14,652.13 139.87,652.52 138.38,652.52 137.97,652.33 137.56,652.33 125.60,646.65 122.61,644.88 116.36,638.22 114.59,635.87 113.50,633.72 113.23,632.74 112.82,631.95 112.82,631.76 112.55,631.56 111.19,631.56 111.06,631.76 110.78,631.95 110.65,632.15 110.65,632.93 111.46,634.89 113.77,642.34 114.86,647.04 115.41,648.41 119.21,655.26 120.98,659.57 121.25,661.14 121.39,661.34 121.52,662.71 121.39,663.88 121.39,667.41 120.16,673.09 119.89,673.68 119.76,674.46 119.21,676.22 118.26,681.90 118.26,682.88 117.99,684.65 117.85,688.17 118.26,691.89 118.26,693.26 118.53,695.81 118.53,699.53 117.44,704.04 117.31,704.23 117.31,704.63 117.17,705.02 117.31,705.21 117.17,705.60 117.85,709.33 117.85,709.72 117.72,709.91 117.72,710.31 117.17,711.09 117.04,711.09 116.76,711.29 115.68,711.29 115.27,710.70 115.00,710.50 114.73,710.11 114.73,709.72 112.69,700.12 111.60,696.20 107.39,686.60 103.99,680.73 102.49,679.36 101.68,679.16 99.37,677.99 98.96,677.99 98.55,677.79 81.83,676.61 77.35,675.24 76.12,674.07 73.13,670.35 73.00,670.35 72.86,670.15 71.37,670.15 70.82,670.54 70.55,670.93 70.55,672.70 70.96,674.66 73.13,678.97 74.90,681.12 77.62,682.69 82.24,686.60 86.05,690.91 87.00,692.48 87.00,692.68 87.54,694.05 87.95,696.01 88.08,697.77 87.95,699.34 87.27,702.08 85.50,706.58 83.06,715.20 82.24,716.57 81.02,717.75 74.36,721.47 73.40,722.25 72.18,724.21 72.18,724.60 72.05,725.00 72.05,725.39 71.91,725.98 72.05,727.54 72.86,731.07 72.59,736.55 72.45,737.34 72.45,739.88 72.59,741.25 72.59,744.98 72.18,748.50 72.32,751.83 72.45,752.42 72.45,753.01 72.59,753.20 72.59,753.79 72.45,753.99 72.45,754.18 72.32,754.18 72.32,754.38 72.18,754.38 72.05,754.57 71.77,754.57 71.64,754.77 70.69,754.77 70.69,754.57 70.55,754.57 70.28,754.18 70.28,753.99 70.14,753.79 70.01,747.33 69.87,746.54 69.73,746.35 68.92,743.02 68.24,741.25 65.39,735.77 65.25,735.77 65.11,735.57 56.14,735.57 54.10,735.18 51.66,735.18 50.03,735.57 48.67,736.36 47.85,736.55 42.96,741.65 42.82,742.04 42.55,742.23 42.55,742.43 42.41,742.63 42.28,743.02 42.14,743.21 42.01,743.60 41.87,744.58 41.87,746.35 42.14,748.89 42.14,751.24 41.73,753.79 40.00,760.00"
        fill="none"
        stroke="#e94560"
        stroke-width="8.0"
        stroke-linejoin="round"
        stroke-linecap="round"/>
  <!-- Start/finish line -->
  <line x1="562.26" y1="27.95" x2="594.17" y2="52.05"
        stroke="#f5f5f5" stroke-width="9.6"
        stroke-linecap="round"/>
</svg>
