<?xml version="1.0" encoding="utf-8"?>
<svg xmlns="http://www.w3.org/2000/svg"
     width="649.5" height="800.0"
     viewBox="0 0 649.5 800.0">
  <rect width="100%" height="100%" fill="#1a1a2e"/>
  <!-- Track outline -->
  <polyline points="155.66,518.27 198.97,591.79 251.03,666.60 277.75,695.65 299.08,714.12 323.15,731.13 353.22,746.03 380.83,756.26 390.76,758.60 400.88,759.53 429.82,760.00 461.83,757.43 485.67,752.40 508.69,743.58 536.92,726.33 562.60,705.00 578.82,686.30 591.40,667.25 598.44,654.04 603.50,639.25 608.51,609.44 609.46,575.89 604.40,541.70 593.95,504.94 535.46,372.85 404.05,146.26 384.10,120.77 362.49,99.38 337.24,78.98 310.00,63.20 281.77,51.34 256.00,43.86 229.52,40.00 195.47,40.47 165.31,44.21 155.19,46.66 145.87,50.29 127.15,59.35 109.08,70.10 100.62,76.70 92.77,84.59 63.41,123.46 53.15,142.11 48.84,151.75 45.34,163.15 41.04,189.97 40.00,222.24 44.82,264.84 57.21,313.29 151.97,511.95 155.66,518.27"
        fill="none"
        stroke="#e94560"
        stroke-width="8.0"
        stroke-linejoin="round"
        stroke-linecap="round"/>
  <!-- Start/finish line -->
  <line x1="172.90" y1="508.12" x2="138.43" y2="528.41"
        stroke="#f5f5f5" stroke-width="9.6"
        stroke-linecap="round"/>
</svg>
