<?xml version="1.0" encoding="utf-8"?>
<svg xmlns="http://www.w3.org/2000/svg"
     width="501.9" height="800.0"
     viewBox="0 0 501.9 800.0">
  <rect width="100%" height="100%" fill="#1a1a2e"/>
  <!-- Track outline -->
  <polyline points="40.00,417.42 41.62,547.30 44.68,579.90 49.74,607.37 55.75,626.24 64.36,644.13 84.99,674.45 108.63,702.24 124.32,716.87 141.02,728.78 167.10,743.19 194.68,754.16 217.32,758.88 239.50,760.00 262.56,757.46 282.73,753.27 290.37,751.53 298.00,748.76 321.94,736.32 346.82,720.66 358.81,711.47 370.05,700.19 391.78,672.05 413.21,637.93 430.33,602.51 443.91,566.97 456.38,516.30 461.94,456.00 456.90,312.43 442.84,222.73 429.88,185.22 415.29,153.15 395.80,121.49 385.34,107.88 372.90,95.04 346.33,75.41 319.80,59.09 299.79,49.46 279.91,44.10 261.78,41.34 242.56,40.00 226.90,40.67 211.18,42.85 191.33,47.14 172.36,52.98 160.67,58.20 149.72,64.49 136.92,72.78 123.80,83.80 104.51,106.28 87.10,130.76 78.95,144.32 72.16,159.04 62.12,188.25 53.77,220.86 46.17,279.78 40.00,417.42"
        fill="none"
        stroke="#e94560"
        stroke-width="8.0"
        stroke-linejoin="round"
        stroke-linecap="round"/>
  <!-- Start/finish line -->
  <line x1="60.00" y1="417.76" x2="20.00" y2="417.08"
        stroke="#f5f5f5" stroke-width="9.6"
        stroke-linecap="round"/>
</svg>
