<?xml version="1.0" encoding="utf-8"?>
<svg xmlns="http://www.w3.org/2000/svg"
     width="800.0" height="427.3"
     viewBox="0 0 800.0 427.3">
  <rect width="100%" height="100%" fill="#1a1a2e"/>
  <!-- Track outline -->
  <polyline points="40.00,40.00 40.59,42.43 41.59,46.25 46.09,63.95 50.84,82.63 56.06,102.78 61.47,121.26 65.35,133.92 69.23,145.86 72.33,154.72 76.07,164.51 83.20,180.78 88.03,190.54 91.43,197.30 94.74,203.33 97.51,208.31 101.13,214.07 104.84,219.50 110.26,227.09 117.61,236.65 122.66,242.66 126.36,246.54 130.83,250.85 136.69,256.00 146.99,263.28 157.92,269.33 166.45,272.45 175.93,275.02 249.60,289.40 259.46,290.37 271.39,289.10 284.01,285.54 293.31,281.07 299.83,275.97 306.92,268.39 313.74,261.35 321.73,254.50 329.87,249.09 337.10,244.93 345.11,241.39 353.81,238.62 362.13,236.97 372.64,235.81 381.85,236.09 390.96,236.82 403.07,238.84 422.20,242.85 457.80,251.33 467.26,253.88 476.85,257.40 486.39,262.14 493.62,266.85 501.80,273.76 509.55,282.13 514.97,289.96 521.13,299.90 525.20,305.59 528.90,309.73 532.56,312.41 536.36,313.91 540.52,315.03 544.74,315.42 549.43,314.96 554.00,313.79 560.34,311.23 583.78,297.90 588.44,295.50 593.63,293.72 599.33,292.24 605.66,291.38 612.74,290.99 620.10,291.05 629.13,291.76 641.04,293.70 711.66,307.32 717.03,308.78 724.12,311.25 730.84,314.13 737.47,318.23 743.02,322.46 748.23,327.78 752.04,333.34 755.72,339.84 757.92,345.33 759.35,352.07 760.00,357.66 759.66,362.08 758.08,367.25 755.21,371.97 751.96,375.23 746.73,378.69 742.29,380.66 736.86,381.84 729.07,382.53 720.88,382.53 709.43,381.44 694.04,379.27 666.59,374.08 517.60,341.24 424.25,321.27 308.72,297.02 305.76,295.86 303.21,293.80 301.40,291.16 300.25,287.86 299.83,284.08 300.25,280.54 301.57,277.08 303.54,274.44 307.33,270.49 322.20,257.25 327.13,253.54 332.74,249.93 338.91,246.63 345.74,243.82 352.16,241.45 358.26,239.80 363.52,238.64 368.86,237.91 374.63,237.50 381.22,237.50 389.94,237.98 396.86,238.88 404.50,240.30 457.77,252.48 464.67,254.27 471.41,256.43 478.91,259.46 486.65,263.41 493.40,268.03 501.93,275.15 508.02,281.74 513.53,289.88 519.09,298.91 522.88,304.83 525.51,308.63 529.06,312.00 532.93,314.64 537.70,316.43 542.39,317.35 546.67,317.26 551.92,316.19 557.60,314.13 564.83,311.01 584.76,299.23 589.29,297.02 595.38,294.87 601.06,293.55 608.39,292.82 616.71,292.49 625.93,293.07 635.06,294.47 711.71,308.96 717.37,310.50 725.14,313.23 731.86,316.87 738.82,321.71 745.80,328.34 750.74,334.43 753.83,340.96 756.13,347.50 757.54,354.72 757.63,361.35 756.04,369.61 753.74,375.88 751.63,379.68 747.74,382.49 742.71,384.35 735.11,386.29 729.37,386.91 720.90,387.27 713.31,387.00 695.30,385.32 337.19,308.98"
        fill="none"
        stroke="#e94560"
        stroke-width="8.0"
        stroke-linejoin="round"
        stroke-linecap="round"/>
  <!-- Start/finish line -->
  <line x1="30.72" y1="57.72" x2="49.28" y2="22.28"
        stroke="#f5f5f5" stroke-width="9.6"
        stroke-linecap="round"/>
</svg>
