<?xml version="1.0" encoding="utf-8"?>
<svg xmlns="http://www.w3.org/2000/svg"
     width="800.0" height="427.5"
     viewBox="0 0 800.0 427.5">
  <rect width="100%" height="100%" fill="#1a1a2e"/>
  <!-- Track outline -->
  <polyline points="40.00,40.00 40.59,42.43 41.59,46.25 46.09,63.95 50.84,82.63 56.06,102.78 61.47,121.26 65.35,133.92 69.23,145.86 72.33,154.72 76.07,164.51 83.20,180.78 88.03,190.54 91.43,197.30 94.74,203.33 97.51,208.31 101.13,214.07 104.84,219.50 110.26,227.09 117.61,236.65 122.66,242.66 126.36,246.54 130.83,250.85 136.69,256.00 146.99,263.28 157.92,269.33 166.45,272.45 175.93,275.02 249.60,289.40 259.46,290.37 271.39,289.10 284.01,285.54 293.31,281.07 299.83,275.97 306.92,268.39 313.74,261.35 321.73,254.50 329.87,249.09 337.10,244.93 345.11,241.39 353.81,238.62 362.13,236.97 372.64,235.81 381.85,236.09 390.96,236.82 403.07,238.84 422.20,242.85 457.80,251.33 467.26,253.88 476.85,257.40 486.39,262.14 493.62,266.85 501.80,273.76 509.55,282.13 514.97,289.96 521.13,299.90 525.20,305.59 528.90,309.73 532.56,312.41 536.36,313.91 540.52,315.03 544.74,315.42 549.43,314.96 554.00,313.79 560.34,311.23 583.78,297.90 588.44,295.50 593.63,293.72 599.33,292.24 605.66,291.38 612.74,290.99 620.10,291.05 629.13,291.76 641.04,293.70 711.66,307.32 717.03,308.78 724.12,311.25 730.84,314.13 737.47,318.23 743.02,322.46 748.23,327.78 752.04,333.34 755.72,339.84 757.92,345.33 759.35,352.07 760.00,357.66 759.66,362.08 758.88,366.80 756.95,372.29 754.54,376.54 750.73,380.32 745.29,383.18 738.11,385.28 731.50,386.55 722.19,387.49 711.85,387.06 698.59,385.23 673.57,380.45 337.19,308.96"
        fill="none"
        stroke="#e94560"
        stroke-width="8.0"
        stroke-linejoin="round"
        stroke-linecap="round"/>
  <!-- Start/finish line -->
  <line x1="30.58" y1="57.64" x2="49.42" y2="22.36"
        stroke="#f5f5f5" stroke-width="9.6"
        stroke-linecap="round"/>
</svg>
