<?xml version="1.0" encoding="utf-8"?>
<svg xmlns="http://www.w3.org/2000/svg"
     width="800.0" height="685.0"
     viewBox="0 0 800.0 685.0">
  <rect width="100%" height="100%" fill="#1a1a2e"/>
  <!-- Track outline -->
  <polyline points="129.26,501.81 68.29,453.06 58.15,443.46 51.39,435.01 46.84,427.22 43.11,418.78 40.74,410.24 40.00,401.90 40.54,393.45 42.33,385.41 45.36,377.97 49.60,370.94 54.69,364.81 60.63,359.58 67.44,355.21 74.62,352.14 80.30,350.84 86.24,350.28 92.27,350.43 98.02,351.39 105.52,354.00 112.71,358.07 119.20,363.10 127.63,373.45 134.70,385.16 145.93,407.02 160.47,430.74 185.10,460.95 297.33,570.71 309.34,578.19 320.14,582.17 328.92,584.07 338.13,584.93 346.84,584.38 352.59,583.02 358.23,581.01 363.43,578.25 368.02,574.83 372.25,570.30 375.98,564.83 378.90,558.90 380.61,552.92 381.00,546.58 380.26,539.95 378.55,533.37 376.06,527.34 371.75,520.55 365.96,514.52 358.07,507.99 313.61,482.46 264.61,456.02 223.69,426.07 203.83,407.37 185.18,386.06 167.85,363.25 153.98,340.99 144.65,319.02 141.15,308.07 138.70,296.56 137.54,281.83 138.12,266.66 140.61,252.03 144.77,238.01 150.25,225.35 157.12,213.64 165.01,203.23 174.07,194.09 184.13,186.65 195.09,180.72 206.59,176.24 218.68,173.38 231.54,172.27 244.68,172.78 257.93,174.79 272.66,178.81 341.98,208.26 462.02,273.04 472.78,280.73 480.52,288.12 487.82,297.36 493.65,307.82 496.84,316.26 499.13,325.36 500.14,334.35 499.72,342.95 498.04,351.49 495.21,359.48 491.05,366.97 485.69,373.90 479.43,379.83 471.89,384.71 463.46,388.53 454.87,391.29 442.86,393.25 430.62,393.30 417.22,391.69 403.77,388.38 389.82,382.95 376.76,376.16 366.81,369.53 357.76,362.14 340.70,344.60 326.67,324.15 313.54,297.81 307.20,286.86 299.78,276.96 293.25,270.58 285.91,264.75 278.06,260.27 269.94,257.46 261.35,255.95 252.84,255.70 244.37,256.81 235.93,259.22 228.20,262.74 221.24,267.36 214.99,273.14 209.82,279.62 205.85,287.06 203.06,295.25 201.66,303.59 201.93,312.39 203.64,321.33 206.36,329.73 211.84,340.18 219.07,349.73 227.58,358.42 238.96,367.67 283.07,399.33 329.20,428.23 343.07,434.21 355.47,437.98 383.06,444.26 411.58,446.17 424.99,445.92 440.65,443.81 552.53,407.02 626.40,373.35 638.80,365.21 647.93,356.51 652.59,349.83 656.24,342.59 658.65,335.05 659.70,327.37 659.47,319.43 658.11,311.74 655.35,304.05 651.31,296.61 646.37,289.77 636.46,280.38 625.08,272.49 614.78,266.91 602.42,261.83 528.63,239.72 504.15,230.07 479.39,217.76 403.26,171.62 376.99,160.41 299.27,144.43 286.37,140.86 275.61,136.39 267.84,131.62 260.41,125.89 254.12,119.40 249.26,112.47 245.41,104.88 242.93,97.09 241.96,89.25 242.31,81.26 243.90,73.62 246.89,66.49 251.17,59.75 256.30,53.87 262.44,48.79 269.43,44.57 276.93,41.61 285.32,40.10 294.22,40.00 302.89,40.75 314.27,43.32 325.35,47.44 349.09,60.05 462.22,143.78 489.18,157.95 666.46,216.65 710.84,236.55 722.89,244.09 733.11,252.23 741.97,261.23 749.27,271.18 754.56,281.73 758.10,292.94 760.00,304.45 760.00,316.11 757.59,328.12 753.20,339.93 746.75,351.69 738.63,362.85 728.25,373.85 716.94,383.65 696.58,396.87 624.26,433.05 612.18,440.39 600.28,449.79 495.44,566.13 454.83,607.29 434.90,623.07 424.68,629.36 414.07,634.68 403.23,638.80 392.07,641.92 380.57,643.98 368.87,644.99 356.83,644.88 344.78,643.68 332.62,641.12 320.61,637.50 296.55,627.09 272.54,613.58 248.64,597.29 129.26,501.81"
        fill="none"
        stroke="#e94560"
        stroke-width="8.0"
        stroke-linejoin="round"
        stroke-linecap="round"/>
  <!-- Start/finish line -->
  <line x1="116.77" y1="517.42" x2="141.75" y2="486.19"
        stroke="#f5f5f5" stroke-width="9.6"
        stroke-linecap="round"/>
</svg>
