<?xml version="1.0" encoding="utf-8"?>
<svg xmlns="http://www.w3.org/2000/svg"
     width="674.5" height="800.0"
     viewBox="0 0 674.5 800.0">
  <rect width="100%" height="100%" fill="#1a1a2e"/>
  <!-- Track outline -->
  <polyline points="193.98,56.45 98.07,40.00 88.16,40.24 80.05,41.37 72.71,43.45 66.74,46.01 61.31,49.28 56.46,53.18 52.09,57.72 48.30,62.87 45.17,68.37 42.76,74.13 41.01,80.21 40.07,86.39 40.00,92.64 40.76,98.98 42.37,105.37 45.15,112.71 49.06,120.08 54.64,127.69 79.45,148.21 104.25,166.61 115.15,177.90 122.57,188.14 129.40,200.84 143.75,242.49 162.78,293.04 243.88,416.88 314.25,516.59 372.18,605.88 435.26,710.33 448.80,725.46 462.32,736.65 477.75,746.55 494.09,753.96 510.44,758.29 526.55,760.00 539.56,759.35 551.91,756.65 563.95,751.77 575.22,745.08 585.58,736.89 594.85,726.89 601.88,716.55 607.88,706.14 609.86,701.83 611.45,696.95 620.94,650.29 630.78,543.86 629.88,533.11 628.16,524.51 623.26,507.17 617.47,493.85 609.70,481.43 596.55,466.00 583.42,454.26 572.14,446.00 559.72,439.03 552.30,436.58 544.76,435.07 537.49,434.66 531.22,435.31 525.15,436.81 519.47,439.07 514.27,441.93 509.47,445.48 505.15,449.82 500.73,456.37 496.96,463.99 494.32,470.85 493.06,475.97 492.67,481.26 493.10,492.39 494.73,503.85 496.50,510.51 499.49,517.75 516.34,545.36 532.66,574.24 534.80,581.48 535.72,587.83 535.75,593.97 534.94,599.84 533.33,605.54 531.26,610.56 529.42,613.94 527.26,616.84 524.60,619.60 520.25,623.02 515.15,626.16 510.11,628.45 504.41,629.78 498.73,630.08 492.78,629.84 486.92,628.79 481.31,626.88 475.88,624.08 469.81,619.47 464.50,614.45 459.49,608.27 452.46,596.73 446.18,580.96 431.68,508.46 416.67,434.49 408.80,415.00 399.72,399.47 387.91,383.50 373.68,368.95 354.62,355.30 281.54,316.97 275.75,313.04 271.22,309.05 263.61,300.65 256.78,291.03 252.67,282.39 249.93,273.75 248.60,266.59 248.21,259.52 248.76,252.49 250.16,245.59 252.37,239.00 255.38,232.72 259.17,226.82 263.68,221.39 268.85,216.61 274.57,212.45 280.62,208.93 287.45,206.17 298.83,203.74 309.59,202.55 317.03,202.82 332.44,205.07 347.54,209.85 362.99,216.89 405.68,243.13 498.32,305.60 515.68,313.25 531.47,317.38 548.34,319.12 556.32,319.12 564.64,318.23 577.26,315.02 589.31,310.35 596.09,306.15 602.23,301.16 611.08,293.21 618.43,285.56 620.25,283.17 621.75,280.51 626.96,269.66 631.77,257.44 633.35,250.88 634.18,244.50 634.46,228.01 632.09,211.01 626.83,194.36 618.96,178.48 608.37,163.40 595.54,149.81 581.03,138.34 563.81,128.37 538.11,117.18 502.41,106.70 294.30,68.88 193.98,56.45"
        fill="none"
        stroke="#e94560"
        stroke-width="8.0"
        stroke-linejoin="round"
        stroke-linecap="round"/>
  <!-- Start/finish line -->
  <line x1="191.06" y1="76.24" x2="196.89" y2="36.67"
        stroke="#f5f5f5" stroke-width="9.6"
        stroke-linecap="round"/>
</svg>
