<?xml version="1.0" encoding="utf-8"?>
<svg xmlns="http://www.w3.org/2000/svg"
     width="800.0" height="541.5"
     viewBox="0 0 800.0 541.5">
  <rect width="100%" height="100%" fill="#1a1a2e"/>
  <!-- Track outline -->
  <polyline points="349.10,40.18 340.09,40.00 252.28,50.73 229.55,56.31 207.18,64.43 162.82,85.79 123.08,109.40 112.73,118.05 103.96,127.52 87.90,145.86 72.15,167.76 58.89,193.76 48.84,219.09 45.06,231.75 42.66,244.50 40.27,266.14 40.00,288.22 42.50,304.03 46.21,318.32 52.85,339.28 67.46,368.03 83.72,395.34 96.27,411.15 102.78,418.14 111.11,425.21 139.72,443.47 176.48,461.81 225.57,478.93 280.15,491.50 423.34,501.46 559.05,492.09 592.68,485.24 621.46,476.09 642.51,466.90 662.65,454.87 689.73,434.41 714.73,409.71 730.89,386.77 743.50,361.09 753.93,328.23 759.73,294.93 760.00,271.81 756.69,249.64 748.67,224.09 736.39,198.40 714.60,164.51 687.95,132.52 656.20,104.17 622.81,81.05 595.75,66.23 566.44,55.46 515.67,46.85 461.43,42.61 368.46,40.54 349.10,40.18"
        fill="none"
        stroke="#e94560"
        stroke-width="8.0"
        stroke-linejoin="round"
        stroke-linecap="round"/>
  <!-- Start/finish line -->
  <line x1="348.72" y1="60.18" x2="349.48" y2="20.18"
        stroke="#f5f5f5" stroke-width="9.6"
        stroke-linecap="round"/>
</svg>
