<?xml version="1.0" encoding="utf-8"?>
<svg xmlns="http://www.w3.org/2000/svg"
     width="763.4" height="800.0"
     viewBox="0 0 763.4 800.0">
  <rect width="100%" height="100%" fill="#1a1a2e"/>
  <!-- Track outline -->
  <polyline points="278.67,96.27 283.23,98.35 482.27,208.87 519.52,237.56 536.45,253.77 566.87,290.01 580.18,309.53 601.89,349.83 617.76,389.98 621.04,398.55 623.83,406.56 627.11,416.37 629.90,426.82 631.82,436.31 633.29,445.71 634.16,454.45 634.24,463.43 633.18,468.36 631.75,472.87 629.37,478.77 627.00,482.45 624.96,484.80 619.46,490.79 614.18,495.72 608.15,500.14 601.40,503.45 595.63,505.25 589.41,506.45 583.12,506.86 577.12,506.31 569.43,503.77 562.04,499.68 555.41,494.80 547.45,486.69 540.78,477.34 534.67,466.38 529.74,454.92 523.97,434.15 508.32,364.38 498.18,340.89 470.55,297.42 454.08,278.40 429.46,255.52 395.61,229.73 312.26,182.76 235.46,147.48 222.04,143.94 211.11,142.97 199.88,143.15 188.83,145.00 181.07,147.44 173.38,150.75 166.55,154.99 162.18,158.67 158.11,162.82 154.72,167.38 152.26,172.21 150.83,179.03 150.91,186.30 151.74,193.62 154.41,205.18 158.64,216.42 163.76,226.46 169.91,235.94 177.45,245.62 185.82,254.41 193.96,261.00 202.59,266.75 221.67,276.88 265.70,290.61 340.04,301.57 364.58,308.61 374.23,312.71 383.24,317.55 392.03,323.39 400.24,330.16 407.82,337.95 414.61,346.51 420.45,355.81 425.31,365.72 429.04,376.12 431.80,386.85 434.89,408.86 441.60,524.54 443.03,537.16 445.22,547.29 449.14,557.75 454.11,567.65 459.54,576.76 465.95,585.38 474.66,594.49 484.65,602.51 495.96,608.82 507.80,613.38 518.31,615.86 528.87,616.83 539.80,616.32 550.66,614.39 571.81,606.56 635.48,576.12 657.16,567.83 668.05,565.30 679.17,564.42 687.58,565.25 696.14,567.23 703.75,570.55 708.46,573.91 712.80,578.10 716.49,582.75 719.40,587.68 721.92,594.68 723.20,602.32 723.39,609.88 722.49,617.34 720.49,624.75 717.59,631.84 713.55,638.98 708.58,645.75 703.11,651.74 695.00,658.32 686.15,663.62 677.51,667.67 666.17,671.68 522.84,709.57 508.70,712.52 497.09,713.67 484.27,712.94 471.64,710.59 459.62,706.77 448.12,701.56 437.30,695.07 427.35,687.38 418.45,678.54 410.53,668.73 397.23,646.67 386.48,622.49 378.42,596.70 373.29,569.67 372.16,548.81 379.74,458.83 379.36,444.97 377.55,433.36 374.01,421.90 368.84,411.40 364.58,405.41 359.64,399.98 354.21,395.33 348.45,391.50 342.23,388.42 335.52,386.21 327.22,384.87 318.36,384.55 309.92,385.19 299.48,387.45 289.79,391.37 280.85,396.98 272.64,403.85 264.79,411.72 258.08,420.61 252.88,430.83 249.15,441.84 246.92,453.53 246.06,465.60 246.21,477.99 247.57,490.42 250.32,502.99 254.39,515.33 266.45,539.10 294.99,584.78 327.49,657.54 332.01,670.48 334.72,682.04 336.16,694.52 335.67,706.90 334.01,714.96 331.33,722.88 327.71,730.21 323.11,736.74 317.61,742.73 311.50,747.89 304.83,752.31 297.59,755.95 290.05,758.48 282.21,759.82 274.07,760.00 266.11,759.22 258.39,757.33 250.81,754.47 243.65,750.70 233.43,742.96 224.31,733.61 216.28,723.02 209.38,711.46 198.60,686.13 45.58,146.47 40.53,121.00 40.00,108.98 41.17,97.33 44.60,86.83 49.69,77.02 55.95,68.09 63.45,60.12 72.46,53.17 82.45,47.60 93.38,43.64 104.88,41.15 116.98,40.00 129.31,40.05 154.72,43.41 180.24,51.10 278.67,96.27"
        fill="none"
        stroke="#e94560"
        stroke-width="8.0"
        stroke-linejoin="round"
        stroke-linecap="round"/>
  <!-- Start/finish line -->
  <line x1="287.01" y1="78.10" x2="270.33" y2="114.45"
        stroke="#f5f5f5" stroke-width="9.6"
        stroke-linecap="round"/>
</svg>
