<?xml version="1.0" encoding="utf-8"?>
<svg xmlns="http://www.w3.org/2000/svg"
     width="800.0" height="779.0"
     viewBox="0 0 800.0 779.0">
  <rect width="100%" height="100%" fill="#1a1a2e"/>
  <!-- Track outline -->
  <polyline points="65.44,153.45 59.76,161.56 50.21,179.02 43.84,196.48 40.49,215.99 40.00,235.54 42.10,251.03 46.73,266.22 60.13,291.53 73.76,314.37 87.18,333.69 102.70,352.55 131.64,384.87 171.51,423.28 185.65,432.14 198.12,437.10 205.37,439.15 212.43,440.28 219.44,440.36 226.29,439.30 233.10,437.22 240.25,434.22 255.09,424.87 270.12,415.70 281.72,412.06 293.12,410.62 301.04,410.62 309.03,411.57 316.84,413.47 324.34,416.34 331.66,420.17 338.56,424.94 347.04,432.90 355.47,443.39 370.17,468.35 385.39,493.20 392.47,501.20 399.39,507.41 406.22,512.03 410.51,514.11 414.77,515.59 418.94,516.35 423.04,516.42 426.87,515.82 430.66,514.61 434.30,512.83 437.58,510.48 440.33,507.86 442.92,504.80 445.13,501.35 446.81,497.56 448.09,492.29 448.65,486.54 448.42,480.89 447.37,475.32 445.44,469.87 442.36,464.07 421.67,441.08 393.27,416.84 317.91,365.96 292.40,355.24 271.84,345.39 266.30,340.43 261.92,335.09 258.47,329.10 256.07,323.01 254.37,316.38 253.74,309.82 254.30,303.69 255.79,297.59 258.00,292.13 261.41,286.87 265.74,282.40 270.63,278.53 277.76,274.41 285.78,271.22 293.70,269.10 300.67,268.12 307.57,268.12 314.67,269.03 323.08,271.15 331.75,274.44 340.33,279.03 352.61,288.50 366.82,302.32 474.82,419.53 510.21,461.46 517.60,474.79 522.59,488.39 525.17,502.45 525.62,516.69 523.63,530.44 519.81,542.90 515.11,551.84 509.12,559.42 499.52,568.17 488.59,575.22 480.83,578.74 472.77,581.28 464.26,582.87 447.98,583.36 431.64,581.31 418.66,577.68 406.52,572.07 395.99,564.95 385.16,555.33 365.47,531.92 346.01,509.76 339.39,504.80 333.31,501.46 327.18,499.23 320.94,497.86 314.65,497.48 308.54,498.17 302.83,499.83 297.31,502.48 292.35,506.08 288.39,510.17 284.89,515.06 282.33,520.55 280.93,526.20 280.33,532.33 280.61,538.55 282.17,545.93 285.06,553.40 289.37,561.24 312.37,587.45 343.36,614.76 430.03,675.90 482.25,703.67 532.02,724.84 561.15,733.37 587.01,737.69 605.54,738.97 624.50,737.16 657.87,725.98 692.36,712.27 719.60,704.88 741.73,697.00 747.04,693.40 751.24,689.54 754.64,684.84 757.09,679.80 758.90,674.20 759.93,668.17 760.00,661.05 759.14,653.51 757.46,646.28 753.48,636.47 746.25,625.41 587.04,456.76 469.93,316.64 380.68,208.00 361.90,191.90 344.33,181.11 324.83,172.92 304.93,168.26 284.94,167.24 265.69,169.25 250.80,172.77 236.52,178.72 221.23,188.11 205.53,201.64 181.04,233.53 158.60,262.74 153.01,267.40 148.12,270.35 143.13,272.21 139.12,272.97 135.00,273.16 130.92,272.70 127.03,271.75 123.46,270.39 119.97,268.53 116.71,266.19 113.86,263.31 111.60,260.24 109.55,256.75 107.90,252.93 106.87,248.76 106.50,242.21 107.27,234.93 109.09,226.87 122.11,195.92 138.75,165.76 147.51,152.73 156.64,142.58 168.71,133.30 182.42,125.69 203.55,118.11 223.43,110.42 229.65,106.37 234.89,101.97 239.15,96.71 241.41,92.73 243.37,88.34 244.79,83.71 245.51,79.13 245.44,74.62 244.72,70.00 243.51,65.49 241.93,61.40 238.64,56.06 234.40,51.44 229.76,47.65 224.17,44.43 218.09,42.20 211.82,40.76 205.27,40.00 198.56,40.15 191.41,41.21 176.47,45.49 160.12,53.49 136.75,70.61 112.44,93.56 83.95,127.01 65.44,153.45"
        fill="none"
        stroke="#e94560"
        stroke-width="8.0"
        stroke-linejoin="round"
        stroke-linecap="round"/>
  <!-- Start/finish line -->
  <line x1="81.83" y1="164.92" x2="49.06" y2="141.98"
        stroke="#f5f5f5" stroke-width="9.6"
        stroke-linecap="round"/>
</svg>
