<?xml version="1.0" encoding="utf-8"?>
<svg xmlns="http://www.w3.org/2000/svg"
     width="800.0" height="783.5"
     viewBox="0 0 800.0 783.5">
  <rect width="100%" height="100%" fill="#1a1a2e"/>
  <!-- Track outline -->
  <polyline points="438.38,719.44 431.52,721.38 351.21,739.76 321.33,743.14 294.17,743.52 274.87,741.23 257.23,736.65 241.22,730.16 226.91,721.50 219.65,715.24 213.24,708.21 207.85,700.48 203.51,692.01 200.15,682.88 198.18,673.83 197.74,665.67 198.49,657.55 200.32,649.94 203.24,643.06 207.17,636.69 211.82,631.17 217.18,626.55 223.25,622.82 230.00,619.87 244.21,616.76 260.72,615.52 288.40,616.80 316.45,616.91 328.83,614.47 340.22,610.74 351.55,605.26 372.14,590.61 391.88,571.50 411.68,546.71 429.05,518.55 443.90,485.68 454.08,453.51 457.10,434.36 457.06,416.84 455.67,406.62 453.23,396.83 449.74,387.70 445.06,379.27 439.33,371.46 433.02,364.70 426.61,359.30 419.62,354.84 411.75,351.26 400.29,348.00 387.43,346.09 374.27,345.51 352.06,347.53 329.98,352.62 310.34,359.73 292.44,369.29 279.04,379.74 266.42,393.18 247.06,423.29 227.66,453.05 214.97,465.75 202.08,475.07 188.89,481.80 175.15,486.03 165.69,487.35 156.03,487.51 146.73,486.54 138.42,484.55 130.42,481.56 122.89,477.60 112.61,469.91 103.46,460.23 95.18,448.15 88.26,433.74 81.99,413.27 76.43,385.92 40.03,133.82 40.00,114.40 42.31,99.56 45.26,89.88 49.23,80.75 54.04,72.48 59.47,65.33 65.67,58.92 72.39,53.44 79.75,48.74 87.62,44.97 95.72,42.21 104.10,40.58 112.68,40.00 121.19,40.47 129.61,41.98 137.95,44.55 145.82,48.16 153.04,52.74 159.79,58.30 166.10,64.86 175.63,78.03 183.77,93.73 190.65,114.44 196.28,138.29 202.66,178.11 209.88,215.37 215.99,230.25 223.45,242.17 232.95,253.13 243.97,262.14 252.31,267.00 261.27,270.84 270.49,273.60 285.48,275.62 300.44,275.16 313.63,272.47 325.88,267.70 332.83,263.77 339.27,259.11 344.84,253.67 349.24,247.69 352.84,241.01 355.38,233.98 356.71,223.25 356.60,211.83 355.21,197.46 354.74,182.93 356.47,173.99 359.32,165.37 363.01,157.52 367.36,150.92 372.51,145.01 378.21,140.08 384.52,136.07 391.40,133.04 398.63,131.06 406.70,130.13 415.18,130.36 423.83,131.68 438.00,136.11 454.25,144.27 552.23,215.52 615.55,270.03 674.19,337.86 730.53,418.32 743.11,439.53 752.27,459.19 757.46,476.63 760.00,493.72 759.86,508.76 757.39,523.36 751.83,538.87 743.92,553.55 734.05,566.84 721.61,579.31 700.34,595.24 673.85,611.67 566.14,669.83 459.37,712.56 438.38,719.44"
        fill="none"
        stroke="#e94560"
        stroke-width="8.0"
        stroke-linejoin="round"
        stroke-linecap="round"/>
  <!-- Start/finish line -->
  <line x1="444.41" y1="738.50" x2="432.34" y2="700.37"
        stroke="#f5f5f5" stroke-width="9.6"
        stroke-linecap="round"/>
</svg>
