<?xml version="1.0" encoding="utf-8"?>
<svg xmlns="http://www.w3.org/2000/svg"
     width="800.0" height="608.8"
     viewBox="0 0 800.0 608.8">
  <rect width="100%" height="100%" fill="#1a1a2e"/>
  <!-- Track outline -->
  <polyline points="355.73,546.02 322.66,554.54 276.80,564.13 238.20,568.37 187.15,568.75 140.10,564.76 120.51,561.21 103.55,555.41 85.18,544.95 68.69,532.14 57.51,520.80 48.84,509.16 44.46,500.25 41.66,491.97 40.47,487.54 40.00,482.92 40.94,472.64 43.49,461.74 47.14,452.93 52.07,445.09 58.45,438.22 65.84,432.53 74.00,427.80 83.61,424.30 101.68,421.72 123.23,420.45 194.04,417.14 215.25,411.64 234.21,403.17 252.23,391.38 269.40,375.07 293.42,340.21 315.52,300.68 331.84,269.95 343.91,239.38 353.95,205.05 357.43,187.67 360.49,173.41 362.02,165.23 363.93,141.08 366.27,122.09 367.84,113.23 370.27,107.29 372.86,103.10 375.84,99.35 379.11,96.04 382.68,93.17 386.59,90.73 390.76,88.74 394.96,87.03 403.72,85.86 416.17,87.52 436.02,91.46 453.79,96.87 472.79,103.20 490.30,105.53 502.25,102.81 513.21,97.40 524.86,90.44 554.61,67.70 581.09,49.06 591.00,43.75 599.37,41.12 602.98,40.39 606.30,40.00 609.62,40.34 613.14,41.51 616.67,43.60 620.92,47.01 650.80,82.16 686.25,129.64 745.55,216.01 752.35,230.81 756.43,245.12 759.70,268.49 760.00,291.91 757.58,307.30 753.28,320.49 748.74,328.97 742.74,336.61 732.71,346.59 718.17,357.84 562.35,448.20 481.97,497.04 459.83,509.01 429.61,522.16 376.64,540.66 355.73,546.02"
        fill="none"
        stroke="#e94560"
        stroke-width="8.0"
        stroke-linejoin="round"
        stroke-linecap="round"/>
  <!-- Start/finish line -->
  <line x1="360.71" y1="565.39" x2="350.75" y2="526.65"
        stroke="#f5f5f5" stroke-width="9.6"
        stroke-linecap="round"/>
</svg>
