<?xml version="1.0" encoding="utf-8"?>
<svg xmlns="http://www.w3.org/2000/svg"
     width="800.0" height="548.7"
     viewBox="0 0 800.0 548.7">
  <rect width="100%" height="100%" fill="#1a1a2e"/>
  <!-- Track outline -->
  <polyline points="201.40,193.01 338.30,138.49 567.45,52.46 590.46,45.98 613.12,41.79 635.77,40.00 658.27,40.87 680.09,45.15 690.51,48.72 700.54,53.16 710.08,58.35 719.07,64.33 727.34,71.10 734.88,78.62 741.55,86.84 747.30,95.68 752.07,105.02 755.80,114.78 758.34,125.00 759.74,135.46 760.00,146.26 759.09,157.05 757.05,167.64 753.99,177.98 745.36,197.58 734.06,215.02 720.42,230.76 704.64,245.16 652.77,281.12 641.76,286.56 631.57,289.97 620.82,291.88 610.06,292.09 603.11,291.21 596.24,289.51 589.79,287.10 583.83,283.95 578.28,280.09 573.44,275.56 569.39,270.37 566.08,264.51 563.64,258.37 562.06,251.73 561.38,244.75 561.75,237.86 563.28,231.01 565.89,224.24 569.34,217.97 573.90,212.03 579.35,206.59 585.15,202.06 593.03,197.70 602.31,194.47 622.94,190.94 643.78,187.12 654.15,182.80 662.75,177.32 667.91,172.83 672.52,167.72 676.20,162.20 678.85,156.39 680.64,150.20 681.31,143.89 680.97,138.70 679.94,133.34 678.25,128.15 675.92,123.54 673.02,119.64 669.44,116.11 665.42,113.12 661.09,110.88 654.30,109.26 646.81,108.97 639.45,109.38 630.51,110.67 619.18,113.87 525.56,147.63 418.49,193.43 373.06,220.33 340.68,243.84 331.90,251.60 325.34,258.91 319.07,267.13 313.81,275.81 309.76,284.53 306.91,293.79 305.64,301.01 305.10,308.53 305.56,315.75 307.07,322.31 309.53,328.63 313.00,334.23 316.50,338.05 320.68,341.54 325.26,344.45 330.01,346.48 334.93,347.60 340.19,347.98 345.45,347.56 350.40,346.36 356.60,343.16 362.40,338.47 368.18,332.74 380.37,316.50 392.19,299.77 400.09,290.88 408.23,283.66 414.19,279.67 420.51,276.31 427.12,273.94 434.20,272.69 441.59,272.49 448.84,273.15 456.08,274.73 463.20,277.18 469.84,280.54 476.06,284.90 481.76,290.13 486.56,295.99 490.31,302.47 493.19,309.53 495.01,316.79 495.60,324.47 495.11,332.36 493.87,339.84 491.12,349.10 487.02,357.69 481.42,365.83 474.79,373.39 468.00,380.07 459.13,387.09 386.87,428.90 241.60,504.18 231.62,507.38 223.35,508.50 216.01,508.67 208.45,508.00 201.29,506.43 194.94,504.02 188.98,500.74 183.90,496.50 180.58,492.23 177.76,487.24 175.56,481.93 174.18,476.61 173.77,469.68 174.60,462.58 176.18,455.81 179.52,447.46 184.26,438.79 195.05,421.72 205.31,404.40 208.99,394.85 211.09,385.80 211.97,376.38 211.35,366.83 209.82,359.64 207.41,352.42 204.01,345.86 199.58,340.25 194.22,335.35 188.26,331.20 177.45,326.47 165.97,323.31 145.46,320.45 113.66,320.28 82.48,319.08 72.71,316.63 64.78,312.93 61.28,310.90 57.75,308.61 54.44,306.04 46.04,299.39 40.00,285.94 47.18,266.92 54.20,258.99 62.58,252.14 69.81,246.95 80.15,241.30 201.40,193.01"
        fill="none"
        stroke="#e94560"
        stroke-width="8.0"
        stroke-linejoin="round"
        stroke-linecap="round"/>
  <!-- Start/finish line -->
  <line x1="194.00" y1="174.43" x2="208.80" y2="211.59"
        stroke="#f5f5f5" stroke-width="9.6"
        stroke-linecap="round"/>
</svg>
