<?xml version="1.0" encoding="utf-8"?>
<svg xmlns="http://www.w3.org/2000/svg"
     width="445.5" height="800.0"
     viewBox="0 0 445.5 800.0">
  <rect width="100%" height="100%" fill="#1a1a2e"/>
  <!-- Track outline -->
  <polyline points="40.11,388.24 40.00,390.25 43.63,574.41 48.69,611.78 55.12,640.38 64.26,663.39 75.24,682.81 87.64,698.82 101.82,714.13 110.62,721.72 120.71,728.88 137.06,738.13 155.95,746.36 183.73,754.42 209.42,759.45 227.11,760.00 245.40,758.97 253.12,757.55 261.67,754.98 306.34,734.06 318.88,725.75 330.34,715.71 342.60,702.54 357.55,681.38 371.01,658.21 379.19,641.01 385.87,622.58 393.22,597.47 398.96,563.93 405.51,399.07 401.68,231.00 395.99,191.30 387.73,160.85 377.50,135.78 367.13,116.36 363.30,110.55 358.78,105.29 339.95,86.11 317.14,66.73 299.79,56.29 281.79,48.86 259.44,43.08 235.77,40.16 208.96,40.00 183.21,42.93 165.67,47.59 149.58,54.35 134.80,62.42 120.34,73.30 101.16,93.39 83.58,116.64 72.12,136.33 63.06,156.03 53.12,187.07 50.69,201.42 40.11,388.24"
        fill="none"
        stroke="#e94560"
        stroke-width="8.0"
        stroke-linejoin="round"
        stroke-linecap="round"/>
  <!-- Start/finish line -->
  <line x1="60.08" y1="389.37" x2="20.15" y2="387.10"
        stroke="#f5f5f5" stroke-width="9.6"
        stroke-linecap="round"/>
</svg>
