<?xml version="1.0" encoding="utf-8"?>
<svg xmlns="http://www.w3.org/2000/svg"
     width="371.2" height="800.0"
     viewBox="0 0 371.2 800.0">
  <rect width="100%" height="100%" fill="#1a1a2e"/>
  <!-- Track outline -->
  <polyline points="315.47,512.50 267.87,211.86 252.42,148.73 232.73,103.51 224.71,90.80 211.63,75.82 198.39,62.74 195.04,60.21 191.43,58.18 177.59,51.56 161.47,45.23 149.90,42.03 138.51,40.29 126.68,40.00 114.50,41.27 99.61,44.40 84.89,49.72 70.91,58.40 58.61,68.35 50.46,76.01 44.30,83.30 42.49,86.08 41.17,88.75 40.29,91.72 40.00,98.69 40.82,106.32 44.47,122.54 65.20,280.37 131.31,630.84 145.67,676.51 155.61,698.30 173.85,726.24 177.24,730.32 181.09,733.93 192.57,742.64 206.52,750.97 220.53,756.42 234.98,759.65 249.96,760.00 262.95,758.76 267.69,757.91 271.66,756.77 279.19,753.67 286.77,749.01 300.80,736.75 313.80,723.48 325.05,708.47 329.00,696.15 330.67,684.97 331.24,675.15 317.54,525.59 315.47,512.50"
        fill="none"
        stroke="#e94560"
        stroke-width="8.0"
        stroke-linejoin="round"
        stroke-linecap="round"/>
  <!-- Start/finish line -->
  <line x1="295.72" y1="515.63" x2="335.22" y2="509.38"
        stroke="#f5f5f5" stroke-width="9.6"
        stroke-linecap="round"/>
</svg>
