<?xml version="1.0" encoding="utf-8"?>
<svg xmlns="http://www.w3.org/2000/svg"
     width="671.5" height="800.0"
     viewBox="0 0 671.5 800.0">
  <rect width="100%" height="100%" fill="#1a1a2e"/>
  <!-- Track outline -->
  <polyline points="173.47,318.24 70.58,483.07 52.00,521.60 46.50,538.69 40.06,579.93 40.00,595.97 42.21,613.37 46.97,632.89 58.66,658.75 71.69,681.03 82.72,694.56 107.74,718.83 122.43,729.78 138.64,739.15 154.99,746.39 189.89,756.45 206.20,758.90 236.66,760.00 254.61,757.83 272.47,753.73 290.79,746.70 313.74,734.43 335.52,720.61 342.48,714.62 348.26,708.51 361.69,692.05 376.04,671.03 612.69,296.34 622.56,272.70 627.51,255.46 630.53,238.40 631.52,222.86 630.99,205.36 627.17,182.06 621.27,159.70 609.72,133.52 601.80,120.54 588.80,104.65 573.26,88.43 545.98,67.64 530.66,59.23 499.48,47.65 460.87,40.31 442.85,40.00 409.07,43.06 390.78,47.86 356.65,63.38 342.14,72.68 318.16,93.87 305.58,109.96 292.38,129.42 176.20,313.85 173.47,318.24"
        fill="none"
        stroke="#e94560"
        stroke-width="8.0"
        stroke-linejoin="round"
        stroke-linecap="round"/>
  <!-- Start/finish line -->
  <line x1="190.43" y1="328.83" x2="156.50" y2="307.65"
        stroke="#f5f5f5" stroke-width="9.6"
        stroke-linecap="round"/>
</svg>
