<?xml version="1.0" encoding="utf-8"?>
<svg xmlns="http://www.w3.org/2000/svg"
     width="560.6" height="800.0"
     viewBox="0 0 560.6 800.0">
  <rect width="100%" height="100%" fill="#1a1a2e"/>
  <!-- Track outline -->
  <polyline points="40.00,410.11 40.26,495.90 51.20,576.80 56.49,598.00 63.65,617.79 78.74,649.59 98.36,680.56 125.73,709.00 154.87,731.52 177.57,744.27 197.62,752.48 206.50,755.21 215.78,756.82 242.17,759.56 272.48,760.00 300.47,757.31 328.59,750.82 360.11,738.06 390.68,720.97 416.64,702.45 439.57,681.15 455.15,661.66 468.80,638.55 485.52,600.15 499.83,555.84 510.93,506.60 517.99,452.22 520.57,369.66 516.91,291.40 511.03,255.05 503.03,224.27 485.20,176.40 473.24,153.54 460.93,133.99 453.84,124.76 445.65,116.36 421.22,95.06 392.21,74.10 362.98,59.15 337.21,48.99 319.97,44.59 296.58,41.37 269.44,40.00 238.74,42.59 211.31,47.43 201.02,50.16 190.89,54.27 162.74,68.19 132.63,87.97 109.11,111.91 91.21,135.12 86.77,142.40 83.01,150.75 67.99,189.44 54.01,234.09 47.71,281.24 40.00,410.11"
        fill="none"
        stroke="#e94560"
        stroke-width="8.0"
        stroke-linejoin="round"
        stroke-linecap="round"/>
  <!-- Start/finish line -->
  <line x1="59.99" y1="410.81" x2="20.01" y2="409.42"
        stroke="#f5f5f5" stroke-width="9.6"
        stroke-linecap="round"/>
</svg>
