<?xml version="1.0" encoding="utf-8"?>
<svg xmlns="http://www.w3.org/2000/svg"
     width="791.4" height="800.0"
     viewBox="0 0 791.4 800.0">
  <rect width="100%" height="100%" fill="#1a1a2e"/>
  <!-- Track outline -->
  <polyline points="464.26,417.13 474.41,415.06 504.10,403.56 536.99,383.50 564.54,363.18 629.92,306.98 683.33,252.65 731.89,194.34 739.64,180.97 745.26,166.79 749.80,152.37 751.39,137.13 750.34,121.57 748.19,105.25 742.85,91.61 733.23,75.03 720.66,62.73 708.62,52.03 692.85,44.57 677.61,41.08 660.75,40.00 642.31,42.42 627.89,47.49 612.37,54.98 599.26,64.87 587.76,75.84 569.32,98.04 552.21,122.63 535.63,150.42 516.01,182.13 505.57,197.11 493.82,211.29 482.96,223.17 472.80,229.57 462.36,233.86 452.48,235.45 437.50,236.26 421.19,233.86 408.90,229.85 389.65,216.20 369.31,200.97 351.74,186.74 338.91,179.53 325.55,177.39 315.11,178.19 303.61,180.87 293.19,186.47 285.17,192.90 278.21,201.17 271.80,211.61 260.74,233.53 253.79,247.71 246.84,258.40 240.15,265.09 232.12,269.37 225.98,270.43 215.82,269.90 204.55,263.50 194.13,258.40 184.23,254.92 176.22,253.33 168.45,254.14 163.65,257.59 159.62,264.56 157.27,274.87 155.94,290.38 155.68,314.72 157.37,330.21 158.71,346.00 158.17,360.96 156.84,377.27 154.07,395.31 148.45,415.64 141.22,437.03 132.93,459.50 126.52,476.60 117.43,493.70 103.73,517.28 84.74,537.61 72.17,549.09 60.42,557.92 50.44,568.79 43.75,581.88 40.00,595.52 40.54,614.77 45.08,629.47 56.32,647.91 71.55,666.63 96.48,693.41 124.29,725.24 151.56,747.16 172.95,754.91 196.20,758.66 220.80,760.00 248.87,757.05 272.68,746.10 292.20,733.52 317.60,708.92 332.46,690.79 352.08,663.20 359.85,646.37 364.93,626.85 366.52,606.80 365.45,590.48 361.44,574.72 357.52,564.60 333.61,514.31 319.23,484.65 315.23,472.34 314.15,458.97 314.97,448.83 318.18,436.80 322.72,428.22 330.47,418.61 340.09,413.27 351.32,410.59 362.28,410.06 376.72,411.93 392.50,414.60 420.95,420.40 435.39,421.46 450.89,419.88 464.26,417.13"
        fill="none"
        stroke="#e94560"
        stroke-width="8.0"
        stroke-linejoin="round"
        stroke-linecap="round"/>
  <!-- Start/finish line -->
  <line x1="460.24" y1="397.53" x2="468.27" y2="436.72"
        stroke="#f5f5f5" stroke-width="9.6"
        stroke-linecap="round"/>
</svg>
