<?xml version="1.0" encoding="utf-8"?>
<svg xmlns="http://www.w3.org/2000/svg"
     width="728.4" height="800.0"
     viewBox="0 0 728.4 800.0">
  <rect width="100%" height="100%" fill="#1a1a2e"/>
  <!-- Track outline -->
  <polyline points="190.30,264.74 176.78,281.72 92.61,393.85 56.25,453.39 50.75,467.58 47.03,482.04 42.64,506.49 40.14,532.28 40.00,553.12 42.28,573.81 48.90,599.57 58.74,625.15 71.76,650.46 87.54,673.63 107.18,694.32 128.38,711.91 147.14,725.10 167.24,736.12 196.52,748.18 226.75,756.81 250.86,759.82 273.46,760.00 290.65,759.03 307.95,755.87 334.04,747.18 360.25,734.79 381.71,720.20 399.90,705.08 416.07,688.12 579.30,486.29 630.16,414.84 667.68,352.72 678.74,326.38 685.14,301.65 688.28,274.25 688.42,247.27 686.69,225.70 682.91,205.11 676.69,184.05 668.13,163.73 655.68,142.28 641.31,122.66 627.24,106.98 611.95,93.19 593.78,79.70 573.59,67.92 545.77,56.04 516.56,47.11 489.08,42.37 464.54,40.33 453.27,40.00 442.39,40.85 423.70,44.10 403.50,49.84 381.40,59.35 359.77,71.53 323.07,100.45 310.71,113.39 190.30,264.74"
        fill="none"
        stroke="#e94560"
        stroke-width="8.0"
        stroke-linejoin="round"
        stroke-linecap="round"/>
  <!-- Start/finish line -->
  <line x1="205.95" y1="277.19" x2="174.65" y2="252.29"
        stroke="#f5f5f5" stroke-width="9.6"
        stroke-linecap="round"/>
</svg>
