<?xml version="1.0" encoding="utf-8"?>
<svg xmlns="http://www.w3.org/2000/svg"
     width="800.0" height="696.0"
     viewBox="0 0 800.0 696.0">
  <rect width="100%" height="100%" fill="#1a1a2e"/>
  <!-- Track outline -->
  <polyline points="549.64,221.24 339.60,73.38 315.59,61.44 294.11,53.91 259.75,44.91 226.81,40.00 210.83,40.74 196.20,43.35 163.01,52.19 147.74,58.33 133.18,66.18 119.72,76.25 107.17,87.62 86.20,110.20 76.75,123.21 67.82,138.35 55.08,165.43 44.85,193.17 41.62,207.74 40.26,221.40 40.00,235.31 41.23,249.38 44.53,264.93 49.12,279.99 59.35,303.55 65.43,314.68 73.26,326.13 90.34,345.36 116.35,369.17 449.73,617.34 489.85,638.20 526.08,651.05 542.58,654.49 558.89,656.04 574.68,655.47 590.40,653.34 605.48,650.56 621.53,646.06 648.12,636.08 675.88,620.69 706.36,592.30 731.14,562.19 739.10,549.02 744.79,536.25 754.24,508.11 757.74,491.42 759.74,474.72 760.00,462.29 758.84,449.36 754.89,426.78 746.73,402.56 723.83,368.60 698.27,339.31 675.88,319.10 549.64,221.24"
        fill="none"
        stroke="#e94560"
        stroke-width="8.0"
        stroke-linejoin="round"
        stroke-linecap="round"/>
  <!-- Start/finish line -->
  <line x1="537.84" y1="237.39" x2="561.44" y2="205.09"
        stroke="#f5f5f5" stroke-width="9.6"
        stroke-linecap="round"/>
</svg>
