<?xml version="1.0" encoding="utf-8"?>
<svg xmlns="http://www.w3.org/2000/svg"
     width="800.0" height="743.5"
     viewBox="0 0 800.0 743.5">
  <rect width="100%" height="100%" fill="#1a1a2e"/>
  <!-- Track outline -->
  <polyline points="255.52,272.37 158.04,352.50 97.82,414.90 75.61,443.33 57.73,471.68 48.22,492.99 42.25,514.35 40.00,535.29 40.93,556.24 45.19,576.90 52.39,597.00 63.23,618.47 77.00,638.44 95.25,657.68 116.13,674.08 140.41,688.19 166.57,698.24 196.31,702.95 226.08,703.48 250.30,701.94 274.08,697.54 302.56,688.03 327.14,677.53 342.15,669.44 361.12,656.87 639.36,437.88 667.00,412.33 688.56,387.65 716.33,346.93 739.43,304.18 749.96,276.69 756.57,249.92 759.94,223.73 760.00,197.90 756.54,174.02 750.18,151.41 741.19,130.70 730.35,112.08 719.94,97.47 707.93,84.50 689.61,69.98 669.35,57.82 649.62,49.07 628.77,43.17 600.54,40.12 575.92,40.00 569.78,40.41 563.54,41.87 532.90,53.59 497.91,70.55 455.62,100.65 255.52,272.37"
        fill="none"
        stroke="#e94560"
        stroke-width="8.0"
        stroke-linejoin="round"
        stroke-linecap="round"/>
  <!-- Start/finish line -->
  <line x1="268.44" y1="287.64" x2="242.60" y2="257.11"
        stroke="#f5f5f5" stroke-width="9.6"
        stroke-linecap="round"/>
</svg>
