<?xml version="1.0" encoding="utf-8"?>
<svg xmlns="http://www.w3.org/2000/svg"
     width="800.0" height="223.3"
     viewBox="0 0 800.0 223.3">
  <rect width="100%" height="100%" fill="#1a1a2e"/>
  <!-- Track outline -->
  <polyline points="111.86,182.08 120.23,181.82 155.25,180.38 160.48,179.21 164.86,177.54 169.16,175.25 173.08,172.43 176.19,169.43 178.88,166.00 181.30,161.79 183.15,157.27 184.18,153.12 184.61,148.91 184.38,144.70 183.61,140.28 181.50,133.74 179.52,127.35 179.04,123.63 179.09,120.16 179.61,116.66 180.60,113.29 182.04,110.13 183.92,107.21 186.39,104.34 189.25,101.83 192.47,99.71 196.02,98.01 213.11,92.33 232.92,85.86 237.78,85.46 241.68,85.77 248.31,87.49 257.51,90.29 270.64,93.01 288.15,94.36 298.09,96.59 303.27,98.56 314.08,104.33 324.28,112.09 334.89,123.05 355.03,147.64 360.77,152.48 366.76,156.24 375.84,160.50 386.29,164.12 418.45,170.86 468.45,173.35 509.00,171.29 546.07,164.48 604.39,148.38 636.08,141.75 661.11,138.89 708.39,137.43 728.22,136.25 733.48,135.03 738.15,133.29 742.60,130.97 746.69,128.14 750.05,125.06 752.97,121.55 755.34,117.73 757.26,113.48 758.88,108.08 759.84,102.58 760.00,98.40 759.58,94.28 758.29,89.17 756.35,84.26 754.05,80.26 751.29,76.74 748.07,73.64 744.52,71.09 740.94,69.23 737.06,67.89 732.04,66.90 726.55,66.59 719.47,67.22 711.78,68.81 690.24,76.49 640.59,96.91 608.21,110.21 579.99,119.09 551.25,126.03 520.26,131.39 493.06,134.42 471.58,134.91 454.17,134.20 433.05,130.14 409.65,123.34 390.48,115.61 371.82,106.04 351.43,92.63 326.19,75.40 320.21,72.94 314.40,71.53 306.43,70.61 298.04,70.51 288.95,71.57 280.73,72.49 276.91,72.27 273.55,71.58 270.44,70.49 267.06,68.72 258.93,62.45 249.48,55.47 239.63,50.60 229.04,46.87 202.24,42.19 183.07,40.00 178.43,40.39 174.36,41.37 170.66,42.82 167.23,44.84 164.01,47.54 161.13,50.82 158.63,54.53 156.39,59.25 149.51,86.97 144.13,106.93 139.52,118.12 137.01,122.45 134.19,126.38 130.96,130.06 127.42,133.36 123.57,136.26 119.51,138.67 115.57,140.41 111.54,141.65 107.46,142.40 103.31,142.67 98.81,142.44 94.31,141.69 89.96,140.43 85.71,138.66 81.57,136.37 77.16,133.30 67.95,125.06 59.23,117.47 56.38,115.84 53.86,114.96 52.29,114.67 50.74,114.58 49.21,114.70 47.69,115.05 46.19,115.61 44.82,116.38 43.61,117.33 42.52,118.47 41.60,119.77 40.88,121.20 40.33,122.79 40.00,124.48 40.00,127.38 40.54,130.81 43.16,139.52 46.12,149.49 47.32,159.42 48.52,168.09 49.83,171.51 51.48,174.25 53.59,176.74 56.09,178.85 59.30,180.68 62.94,182.03 67.37,182.91 73.01,183.30 111.86,182.08"
        fill="none"
        stroke="#e94560"
        stroke-width="8.0"
        stroke-linejoin="round"
        stroke-linecap="round"/>
  <!-- Start/finish line -->
  <line x1="111.24" y1="162.09" x2="112.49" y2="202.07"
        stroke="#f5f5f5" stroke-width="9.6"
        stroke-linecap="round"/>
</svg>
