<?xml version="1.0" encoding="utf-8"?>
<svg xmlns="http://www.w3.org/2000/svg"
     width="800.0" height="383.6"
     viewBox="0 0 800.0 383.6">
  <rect width="100%" height="100%" fill="#1a1a2e"/>
  <!-- Track outline -->
  <polyline points="583.70,333.66 557.07,331.80 430.42,325.12 97.33,308.83 83.42,306.65 77.78,304.88 72.48,302.63 67.52,300.01 62.86,296.94 58.60,293.49 54.71,289.63 51.28,285.41 48.26,280.84 45.66,276.01 43.52,270.95 41.88,265.69 40.75,260.39 40.00,253.43 40.08,250.98 41.27,246.08 43.25,240.67 49.60,228.87 53.99,221.75 59.13,214.91 65.34,209.25 72.01,204.19 84.42,195.63 103.35,187.63 113.45,184.01 124.37,181.24 156.64,180.15 205.77,183.08 249.14,184.15 255.09,182.40 259.27,180.39 264.76,177.78 268.79,175.17 272.81,171.11 274.87,169.01 276.82,166.46 279.26,160.89 281.37,153.67 286.63,122.02 289.81,108.47 290.88,104.86 292.10,101.81 293.45,99.61 294.96,97.61 298.39,93.61 307.35,84.84 316.84,79.27 326.90,74.42 359.88,61.42 420.61,40.53 424.36,40.06 428.37,40.00 432.28,40.43 435.88,41.34 439.21,42.68 441.77,44.16 444.08,45.98 446.37,48.37 448.37,51.20 450.49,55.24 452.15,59.70 452.30,62.62 452.04,65.34 451.50,69.54 451.49,72.29 451.72,74.94 452.03,76.61 452.60,78.14 453.11,79.04 453.72,79.94 454.48,80.80 455.46,81.54 458.63,82.62 462.64,83.30 466.23,84.08 469.22,85.20 471.60,86.50 472.49,87.24 473.20,88.04 473.79,88.91 474.40,90.22 474.89,91.87 477.28,104.61 477.67,108.38 477.89,114.94 475.97,122.96 473.23,131.51 471.32,140.06 470.54,145.00 470.24,149.70 470.59,152.57 471.35,155.49 473.45,161.79 475.90,167.67 476.94,169.51 478.15,171.11 481.42,174.62 484.59,177.55 485.29,178.05 485.99,178.43 490.12,180.33 494.59,181.65 498.75,182.24 502.94,182.26 507.32,181.72 511.73,180.57 516.65,178.56 521.60,175.71 533.56,165.07 543.38,155.14 552.57,148.52 557.70,145.77 563.07,143.47 574.54,140.24 585.00,139.10 597.57,139.87 609.97,142.78 621.86,147.78 632.90,154.82 647.60,167.43 748.72,268.34 752.64,273.24 755.12,277.21 757.30,281.57 758.90,285.88 759.65,289.07 760.00,292.38 759.96,297.63 759.39,303.11 758.41,307.80 756.96,312.30 754.93,316.77 752.43,321.02 749.40,325.10 745.93,328.84 741.97,332.27 737.65,335.27 732.92,337.94 727.93,340.11 722.63,341.73 717.16,342.84 705.61,343.64 688.42,342.38 623.40,336.42 583.70,333.66"
        fill="none"
        stroke="#e94560"
        stroke-width="8.0"
        stroke-linejoin="round"
        stroke-linecap="round"/>
  <!-- Start/finish line -->
  <line x1="582.31" y1="353.61" x2="585.09" y2="313.71"
        stroke="#f5f5f5" stroke-width="9.6"
        stroke-linecap="round"/>
</svg>
