<?xml version="1.0" encoding="utf-8"?>
<svg xmlns="http://www.w3.org/2000/svg"
     width="611.7" height="800.0"
     viewBox="0 0 611.7 800.0">
  <rect width="100%" height="100%" fill="#1a1a2e"/>
  <!-- Track outline -->
  <polyline points="359.45,197.78 288.08,99.04 271.68,74.69 264.25,65.68 252.70,51.60 246.14,47.17 242.49,45.12 238.23,43.34 229.14,41.01 219.27,40.00 214.10,40.49 209.13,41.67 204.50,43.45 200.21,45.90 196.22,48.92 192.71,52.44 189.61,56.49 187.03,61.04 185.01,65.82 183.18,74.00 182.60,81.42 182.72,84.27 183.38,87.01 186.01,92.91 189.66,99.73 200.80,120.28 202.31,124.37 203.23,128.37 204.09,135.54 204.09,143.52 202.70,153.07 200.16,161.97 197.63,167.03 194.51,171.32 190.81,175.30 186.57,178.72 181.47,181.66 176.50,183.84 171.05,185.40 162.76,186.49 158.40,186.55 152.87,186.03 120.70,178.38 88.44,170.63 83.03,169.94 78.30,170.00 68.73,171.26 59.13,174.03 54.47,176.56 50.31,179.61 46.87,182.84 44.85,185.37 43.27,187.96 42.02,190.70 41.02,193.55 40.32,196.51 40.00,199.48 40.10,202.33 40.54,205.18 41.32,207.97 43.22,212.37 45.95,216.60 49.84,220.98 54.89,225.18 76.23,237.07 133.35,267.15 145.07,273.72 190.78,302.56 199.53,310.24 203.04,314.07 206.23,318.28 209.86,324.23 212.91,330.74 214.95,337.22 216.17,343.81 216.51,350.34 216.00,356.50 214.71,361.02 213.03,364.85 211.88,366.95 210.45,368.88 203.72,375.33 195.19,381.86 189.81,387.45 185.25,393.67 183.59,397.04 182.47,400.46 181.74,404.20 181.67,413.07 182.72,421.68 183.72,425.91 185.25,430.02 194.07,447.21 205.94,463.33 240.15,505.50 287.25,561.75 299.63,573.00 312.35,582.04 350.92,603.75 361.99,613.10 371.34,623.38 378.97,634.18 386.55,647.45 403.70,684.72 421.83,721.54 431.65,734.78 441.64,744.51 451.53,751.42 461.89,756.29 466.96,757.98 472.44,759.19 481.36,760.00 489.84,760.00 496.52,758.93 503.90,756.66 526.54,744.57 542.91,733.72 557.41,722.29 563.28,715.96 567.42,709.83 569.15,706.49 570.44,703.15 571.25,699.55 571.66,694.60 571.39,689.24 570.30,684.23 568.86,680.90 566.91,677.64 564.65,674.74 562.18,672.35 559.16,670.33 555.82,668.95 551.78,667.88 536.50,667.11 521.25,666.59 515.81,665.18 511.23,663.31 502.12,658.44 493.27,652.20 484.14,643.30 465.15,615.29 442.88,584.09 413.01,558.27 376.53,528.70 369.17,520.47 361.45,508.73 358.14,502.62 355.21,495.66 349.09,468.19 341.22,423.12 335.89,407.69 327.73,391.48 256.60,293.87 253.84,288.86 252.21,284.65 250.36,277.95 249.26,270.98 249.04,265.31 249.73,259.61 251.07,254.66 253.06,249.56 255.65,244.99 258.89,241.16 262.71,237.79 266.54,235.11 269.49,233.59 272.44,232.49 275.46,231.74 278.50,231.26 281.60,231.11 284.84,231.40 289.35,232.49 294.07,234.22 298.31,236.35 302.53,239.46 306.23,243.32 314.64,256.07 324.29,273.34 391.08,381.15 396.63,387.62 401.97,392.14 411.11,398.16 421.42,402.82 428.58,404.61 435.99,405.53 442.96,405.50 448.44,404.69 453.60,403.20 458.36,401.04 462.57,398.33 466.37,395.05 469.61,391.31 472.22,387.05 474.22,382.33 475.61,377.40 476.41,369.11 476.05,361.17 475.32,356.48 474.07,352.04 472.25,346.98 468.88,340.33 426.31,282.35 359.45,197.78"
        fill="none"
        stroke="#e94560"
        stroke-width="8.0"
        stroke-linejoin="round"
        stroke-linecap="round"/>
  <!-- Start/finish line -->
  <line x1="343.48" y1="209.82" x2="375.42" y2="185.74"
        stroke="#f5f5f5" stroke-width="9.6"
        stroke-linecap="round"/>
</svg>
