<?xml version="1.0" encoding="utf-8"?>
<svg xmlns="http://www.w3.org/2000/svg"
     width="800.0" height="465.1"
     viewBox="0 0 800.0 465.1">
  <rect width="100%" height="100%" fill="#1a1a2e"/>
  <!-- Track outline -->
  <polyline points="173.40,291.07 159.65,302.36 127.00,326.08 107.48,337.74 98.15,341.79 88.64,344.23 81.47,344.68 74.15,344.19 67.19,342.24 60.97,338.85 55.07,334.27 50.04,328.85 46.51,323.68 43.61,317.94 41.55,311.82 40.42,305.58 40.00,298.97 40.47,292.60 42.08,286.19 44.61,280.08 47.72,274.37 53.96,266.35 61.55,258.95 86.22,238.49 103.03,228.12 316.79,112.34 424.21,54.26 444.03,46.37 463.13,41.61 473.83,40.12 484.66,40.00 491.93,41.07 499.18,42.98 505.84,45.99 511.22,49.71 516.17,54.30 520.47,59.63 523.94,65.17 526.89,71.33 528.71,77.78 528.40,87.49 527.21,97.66 526.92,105.02 526.92,112.46 528.08,119.24 530.48,124.24 533.85,128.79 537.80,132.84 541.83,136.31 547.60,140.03 553.90,142.68 560.94,144.95 579.59,148.38 598.43,151.69 609.21,155.24 618.90,159.79 627.34,165.20 636.61,172.93 692.44,231.71 743.11,272.18 748.78,277.64 753.33,282.60 756.71,288.34 758.31,292.97 759.45,298.01 760.00,303.18 759.92,308.14 759.03,313.23 757.42,318.31 755.23,323.11 752.70,327.36 747.93,332.78 742.19,337.20 736.10,340.59 729.28,343.03 722.03,344.31 714.79,344.85 703.93,344.06 693.23,342.08 673.84,336.87 654.42,329.93 645.73,325.01 637.53,318.93 630.10,311.32 623.20,303.02 611.97,287.76 580.41,236.84 573.32,228.20 566.47,221.50 558.20,214.72 549.34,208.94 539.52,203.98 529.29,200.26 518.52,197.86 507.55,197.07 496.54,197.98 485.69,200.67 475.44,205.09 465.74,211.13 457.10,218.40 449.27,227.04 442.66,236.80 437.18,247.30 433.91,255.69 431.17,265.65 426.27,294.87 421.00,324.10 417.42,334.35 413.44,342.82 403.16,360.60 390.41,377.01 376.37,391.27 358.63,405.40 340.66,416.73 331.78,420.99 322.67,423.88 315.71,424.91 308.54,425.08 301.64,424.05 295.32,421.77 289.23,418.34 283.83,413.88 279.48,408.79 275.71,402.80 272.95,396.23 271.42,389.45 270.76,382.17 271.10,375.06 272.60,368.16 275.21,361.51 278.95,354.35 297.79,331.04 319.53,306.41 345.12,268.67 349.94,259.74 353.57,251.02 356.76,240.93 358.37,230.51 357.87,223.69 356.42,216.92 354.21,210.71 350.91,204.76 346.75,199.43 342.11,195.01 336.61,191.20 330.55,188.44 324.35,186.70 317.87,186.12 311.23,186.66 304.75,188.15 296.58,191.70 286.67,198.19 173.40,291.07"
        fill="none"
        stroke="#e94560"
        stroke-width="8.0"
        stroke-linejoin="round"
        stroke-linecap="round"/>
  <!-- Start/finish line -->
  <line x1="186.08" y1="306.54" x2="160.72" y2="275.61"
        stroke="#f5f5f5" stroke-width="9.6"
        stroke-linecap="round"/>
</svg>
