<?xml version="1.0" encoding="utf-8"?>
<svg xmlns="http://www.w3.org/2000/svg"
     width="597.0" height="800.0"
     viewBox="0 0 597.0 800.0">
  <rect width="100%" height="100%" fill="#1a1a2e"/>
  <!-- Track outline -->
  <polyline points="549.16,389.29 553.87,445.47 556.99,530.31 556.71,546.57 554.95,567.51 550.61,590.26 544.43,609.96 537.23,628.35 529.59,644.07 519.56,661.57 511.28,673.83 500.62,686.35 489.68,697.99 476.47,709.79 463.09,719.54 447.76,727.88 434.16,734.50 419.59,740.71 404.48,746.03 387.48,750.77 372.91,754.23 357.17,757.36 344.00,758.63 329.69,759.55 311.10,760.00 291.66,759.49 268.12,757.08 245.96,754.27 228.29,750.67 204.47,744.52 173.46,734.23 155.71,726.75 142.48,718.44 131.71,709.69 124.41,701.38 117.66,692.98 112.99,684.29 110.27,676.37 108.75,669.12 107.74,661.27 107.24,652.82 107.74,647.30 109.38,641.88 111.46,637.17 114.33,632.78 118.50,628.29 122.76,625.09 127.48,622.45 133.85,619.67 145.27,615.73 231.32,593.08 248.92,588.48 261.65,585.49 277.67,581.27 291.70,577.70 309.63,572.69 325.45,567.30 340.80,561.67 352.26,556.15 362.25,550.49 372.80,542.83 383.48,533.70 392.89,523.72 401.19,512.12 408.30,501.10 415.46,487.99 423.35,471.55 429.86,455.73 434.96,440.74 439.03,424.85 442.10,408.58 443.91,395.06 445.27,378.69 445.86,361.87 445.58,337.40 442.85,306.52 437.19,269.56 428.41,229.95 422.83,209.02 417.71,196.56 411.31,186.61 403.91,179.50 395.33,172.43 388.67,168.11 380.37,164.64 373.00,163.55 363.74,163.31 353.37,164.16 344.09,166.60 334.36,169.59 325.30,174.67 317.48,183.07 191.10,460.95 187.60,468.77 184.79,473.00 181.81,476.46 179.30,478.52 176.45,480.24 173.53,481.30 170.39,481.71 166.05,481.57 161.31,480.79 155.80,478.73 149.55,475.57 142.52,471.14 135.82,464.66 130.29,457.93 72.13,374.78 62.18,359.13 55.07,340.63 49.21,321.58 44.15,302.06 40.71,280.81 40.00,262.14 40.58,243.10 42.59,225.53 47.03,208.54 55.07,185.54 63.20,168.52 73.06,153.22 82.92,138.15 93.12,127.31 103.76,118.28 116.71,108.77 134.76,96.01 155.13,83.55 171.86,75.07 189.98,67.28 211.04,59.66 231.12,53.56 248.42,48.72 265.35,44.46 289.74,40.89 307.62,40.00 329.89,40.82 426.36,52.84 442.90,54.69 453.38,56.99 460.73,59.84 467.63,63.51 473.49,67.52 479.00,71.71 484.15,75.93 489.03,81.32 495.02,89.90 503.04,103.32 510.24,116.94 515.63,128.40 521.49,143.61 524.92,157.71 527.99,171.16 529.79,183.35 549.16,389.29"
        fill="none"
        stroke="#e94560"
        stroke-width="8.0"
        stroke-linejoin="round"
        stroke-linecap="round"/>
  <!-- Start/finish line -->
  <line x1="569.08" y1="387.46" x2="529.24" y2="391.12"
        stroke="#f5f5f5" stroke-width="9.6"
        stroke-linecap="round"/>
</svg>
