<?xml version="1.0" encoding="utf-8"?>
<svg xmlns="http://www.w3.org/2000/svg"
     width="800.0" height="476.3"
     viewBox="0 0 800.0 476.3">
  <rect width="100%" height="100%" fill="#1a1a2e"/>
  <!-- Track outline -->
  <polyline points="158.46,216.84 140.90,213.10 121.94,207.44 104.29,200.57 88.36,191.81 74.02,180.17 61.74,166.39 51.88,152.06 47.93,144.61 44.64,136.75 42.14,128.56 40.51,120.09 40.00,111.52 40.41,103.02 41.67,94.90 43.76,87.10 46.80,79.52 50.64,72.52 55.67,65.80 61.31,59.79 67.44,54.32 73.94,49.66 80.56,45.76 87.66,42.78 97.21,40.64 106.89,40.00 113.07,40.06 119.46,40.90 126.34,42.85 134.85,47.42 145.32,56.43 153.36,66.25 164.62,80.92 170.90,87.45 177.08,92.63 184.62,97.45 192.60,101.16 200.78,103.66 209.09,104.71 216.94,104.23 225.79,102.03 249.38,90.48 273.10,79.29 279.54,77.86 285.12,77.41 290.59,77.89 296.34,79.20 302.00,81.44 307.06,84.67 311.10,88.63 314.65,93.46 317.28,98.64 318.60,103.27 319.25,108.20 319.44,113.19 318.50,121.05 317.15,128.98 316.23,136.78 316.15,144.49 317.88,152.19 320.83,159.55 325.14,167.22 330.51,174.03 337.52,179.94 345.30,184.61 362.52,190.72 395.74,200.47 402.66,203.73 408.62,207.44 414.09,211.50 419.95,217.03 434.83,236.44 450.13,255.82 457.10,261.70 463.78,265.53 468.94,267.61 474.28,269.02 479.62,269.66 484.64,269.56 489.67,268.73 495.46,266.85 517.24,254.09 538.69,240.76 546.17,237.65 552.86,235.77 568.61,233.37 584.28,232.99 599.90,234.75 614.69,238.84 631.32,245.94 648.16,252.27 654.02,253.29 659.25,253.51 664.42,252.97 669.77,251.63 675.03,249.52 679.92,246.61 684.15,243.12 688.04,238.97 691.37,234.20 694.90,226.85 697.49,217.29 700.12,185.51 701.76,153.47 704.39,136.21 706.85,128.34 710.12,121.21 714.48,115.07 719.67,109.89 722.96,107.17 726.55,104.62 730.29,102.54 734.08,101.32 737.32,100.97 740.79,101.04 744.23,101.64 747.45,102.79 750.25,104.58 752.99,107.56 755.41,111.39 757.37,115.74 758.85,120.19 760.00,128.88 759.81,138.70 755.00,173.42 702.47,373.57 697.12,388.44 693.36,395.31 689.00,401.61 683.81,407.62 678.08,413.06 671.50,418.24 664.51,422.78 657.14,426.68 649.49,429.84 632.82,434.22 615.27,436.14 596.91,436.30 523.99,427.80 354.32,400.49 336.75,397.04 321.28,392.37 314.50,389.30 308.26,384.95 304.35,380.70 300.76,375.65 298.07,370.12 296.78,365.99 295.89,361.55 295.48,357.07 295.80,352.95 297.08,348.95 299.16,345.11 301.72,341.63 304.44,338.69 308.50,335.55 313.03,333.35 317.79,331.72 326.09,330.18 334.74,330.02 342.88,331.01 352.67,333.35 432.28,358.03 467.05,362.80 520.14,361.74 564.77,367.88 604.16,373.41 614.24,373.44 622.47,372.20 628.05,370.60 633.48,368.39 638.46,365.45 642.60,362.19 646.39,358.35 649.29,353.75 650.79,349.72 651.88,345.15 652.48,340.48 652.43,336.10 651.30,330.92 649.21,325.99 646.62,321.42 640.98,314.32 634.50,308.31 628.61,303.81 622.26,300.10 613.37,296.04 604.18,293.13 596.68,292.10 589.28,292.10 581.48,292.97 573.62,294.63 557.54,299.97 511.08,320.88 502.13,323.57 494.09,325.13 485.18,326.19 476.27,326.41 467.65,325.64 459.23,323.95 451.30,321.26 443.59,317.75 436.09,313.49 428.93,308.47 416.72,297.00 406.02,283.34 393.60,270.68 378.57,259.78 362.20,251.02 344.10,244.62 180.91,220.26 160.84,217.35 158.46,216.84"
        fill="none"
        stroke="#e94560"
        stroke-width="8.0"
        stroke-linejoin="round"
        stroke-linecap="round"/>
  <!-- Start/finish line -->
  <line x1="154.29" y1="236.40" x2="162.64" y2="197.28"
        stroke="#f5f5f5" stroke-width="9.6"
        stroke-linecap="round"/>
</svg>
