<?xml version="1.0" encoding="utf-8"?>
<svg xmlns="http://www.w3.org/2000/svg"
     width="444.2" height="800.0"
     viewBox="0 0 444.2 800.0">
  <rect width="100%" height="100%" fill="#1a1a2e"/>
  <!-- Track outline -->
  <polyline points="41.80,489.01 41.75,494.91 40.00,591.71 41.50,615.72 48.84,645.76 59.94,671.31 78.46,699.16 89.56,712.15 100.91,722.39 120.57,736.08 156.93,751.27 170.54,755.14 186.78,758.09 216.51,760.00 265.58,755.88 279.52,752.39 303.74,743.74 313.57,738.84 346.41,715.30 362.42,700.68 369.87,692.19 376.09,683.67 393.04,653.49 396.21,642.81 398.94,630.59 401.17,611.91 402.16,589.51 404.24,197.52 401.04,170.95 394.11,146.06 380.29,118.69 369.25,102.77 347.34,80.53 340.24,74.76 319.23,61.76 299.54,52.73 275.30,44.89 262.16,42.48 229.41,40.00 184.78,42.40 156.98,48.13 143.93,52.56 130.22,58.92 114.98,68.50 103.27,76.95 92.94,86.30 76.87,104.82 61.71,127.51 56.28,137.26 51.34,149.03 48.24,159.60 44.80,176.41 43.70,188.93 44.01,203.87 41.80,489.01"
        fill="none"
        stroke="#e94560"
        stroke-width="8.0"
        stroke-linejoin="round"
        stroke-linecap="round"/>
  <!-- Start/finish line -->
  <line x1="61.80" y1="489.17" x2="21.80" y2="488.86"
        stroke="#f5f5f5" stroke-width="9.6"
        stroke-linecap="round"/>
</svg>
