<?xml version="1.0" encoding="utf-8"?>
<svg xmlns="http://www.w3.org/2000/svg"
     width="490.4" height="800.0"
     viewBox="0 0 490.4 800.0">
  <rect width="100%" height="100%" fill="#1a1a2e"/>
  <!-- Track outline -->
  <polyline points="65.34,348.43 40.00,496.52 42.00,555.84 51.44,606.52 65.61,646.97 84.87,682.02 100.13,701.69 117.29,719.10 134.55,733.15 148.27,741.91 162.16,748.43 177.33,753.37 199.04,757.87 222.65,760.00 245.72,758.65 266.89,753.48 287.50,745.06 306.76,733.60 324.02,720.00 340.00,703.60 355.44,682.25 390.68,609.78 420.39,523.48 440.09,439.44 450.36,355.96 449.27,283.71 441.46,220.11 434.10,188.31 423.47,160.22 405.67,126.52 383.15,96.07 365.25,78.99 345.36,64.49 324.65,53.26 303.04,45.84 280.60,41.46 259.80,40.00 238.19,41.80 217.93,47.30 196.40,56.52 175.51,70.11 152.81,91.80 131.46,120.11 104.67,170.45 89.41,219.78 79.69,264.61 65.34,348.43"
        fill="none"
        stroke="#e94560"
        stroke-width="8.0"
        stroke-linejoin="round"
        stroke-linecap="round"/>
  <!-- Start/finish line -->
  <line x1="85.05" y1="351.80" x2="45.63" y2="345.05"
        stroke="#f5f5f5" stroke-width="9.6"
        stroke-linecap="round"/>
</svg>
