<?xml version="1.0" encoding="utf-8"?>
<svg xmlns="http://www.w3.org/2000/svg"
     width="800.0" height="645.1"
     viewBox="0 0 800.0 645.1">
  <rect width="100%" height="100%" fill="#1a1a2e"/>
  <!-- Track outline -->
  <polyline points="475.60,137.39 418.47,97.64 347.83,57.26 321.98,47.94 295.66,41.68 269.05,40.00 241.75,41.45 214.82,47.36 188.93,56.28 163.90,67.11 152.04,74.24 141.40,82.35 111.44,110.39 102.45,122.67 63.71,198.45 53.67,226.95 44.88,268.73 40.00,314.38 43.10,345.95 48.95,373.30 57.42,401.63 70.16,427.99 86.24,453.54 126.36,497.04 149.87,516.16 186.64,538.76 230.79,560.83 283.24,581.17 333.27,597.10 360.93,600.28 556.88,605.09 602.84,598.49 634.89,590.03 664.08,579.77 676.54,573.34 687.55,565.93 703.07,554.23 718.07,540.21 731.82,522.77 743.27,503.30 751.90,481.52 757.50,458.58 760.00,435.00 759.23,411.48 754.48,388.24 748.15,368.78 742.06,356.79 727.26,333.15 702.43,304.30 665.53,269.36 475.60,137.39"
        fill="none"
        stroke="#e94560"
        stroke-width="8.0"
        stroke-linejoin="round"
        stroke-linecap="round"/>
  <!-- Start/finish line -->
  <line x1="464.18" y1="153.81" x2="487.01" y2="120.96"
        stroke="#f5f5f5" stroke-width="9.6"
        stroke-linecap="round"/>
</svg>
