<?xml version="1.0" encoding="utf-8"?>
<svg xmlns="http://www.w3.org/2000/svg"
     width="800.0" height="703.0"
     viewBox="0 0 800.0 703.0">
  <rect width="100%" height="100%" fill="#1a1a2e"/>
  <!-- Track outline -->
  <polyline points="630.80,517.44 616.90,507.00 551.12,457.13 503.55,422.19 499.15,418.07 495.95,414.36 492.93,410.18 488.37,401.20 486.86,396.47 485.94,391.59 485.59,386.70 485.78,382.24 486.49,377.82 489.66,368.38 494.87,354.06 495.82,348.55 496.05,343.09 495.59,336.71 494.28,330.19 491.75,323.09 488.16,315.92 482.63,307.44 475.56,298.62 408.14,232.24 364.25,189.74 359.53,186.55 355.42,184.60 351.02,183.15 346.53,182.30 341.93,182.04 337.40,182.40 333.34,183.36 329.45,184.90 325.31,187.19 321.38,190.05 317.63,193.51 314.24,197.55 310.94,202.93 308.25,208.72 306.49,213.96 305.41,219.27 305.03,224.78 305.39,230.40 306.61,236.71 308.69,243.01 311.90,249.52 316.04,255.76 321.41,261.86 327.97,267.88 351.69,285.28 362.16,295.40 370.15,305.89 376.30,317.29 380.53,329.43 383.07,343.46 384.10,363.41 382.99,384.01 379.93,402.74 378.40,408.08 376.51,412.72 374.31,416.60 371.77,420.02 369.20,422.76 366.31,425.14 362.49,427.51 358.37,429.42 354.37,430.67 350.29,431.41 346.14,431.63 341.93,431.31 337.38,430.37 332.80,428.89 322.83,424.16 311.21,416.14 297.32,403.46 279.48,383.44 225.41,321.31 213.24,306.64 204.69,293.25 198.09,279.23 193.69,264.75 191.66,251.42 191.53,236.88 193.57,222.59 197.80,208.72 204.06,195.40 223.72,162.63 228.16,152.33 231.31,142.50 233.47,132.78 234.65,123.04 234.78,113.38 233.90,103.84 231.97,94.70 229.05,85.84 225.06,77.26 220.08,68.92 213.06,59.37 205.80,51.14 201.77,47.53 197.76,44.78 193.50,42.58 189.05,41.01 184.51,40.17 179.92,40.00 175.45,40.48 171.11,41.60 166.99,43.37 163.13,45.77 159.40,48.95 156.03,52.81 152.68,58.00 149.88,63.96 145.79,80.40 143.12,95.08 141.31,100.73 139.08,105.95 136.54,110.53 133.61,114.77 130.36,118.65 126.77,122.17 122.86,125.25 118.65,127.90 114.19,130.06 109.36,131.83 96.31,134.69 79.63,138.90 72.05,142.50 65.03,146.97 58.76,152.14 53.27,157.88 49.09,163.46 45.67,169.46 42.90,176.22 40.98,183.42 40.00,191.40 40.02,199.68 41.13,208.76 43.31,218.04 46.85,228.25 51.64,238.82 68.51,266.96 96.23,314.91 173.79,454.46 232.35,558.35 236.42,563.91 239.98,567.67 243.87,570.96 248.03,573.61 252.44,575.57 257.11,576.90 262.25,577.62 267.50,577.64 272.62,576.96 277.80,575.51 284.03,572.64 290.50,568.83 307.39,556.64 318.24,551.28 323.53,549.51 328.88,548.24 334.34,547.49 339.87,547.24 345.45,547.52 351.03,548.31 356.62,549.66 362.19,551.56 374.11,557.40 386.48,566.03 398.17,576.80 415.07,596.64 449.24,634.81 454.70,639.52 459.59,642.78 463.99,644.96 468.48,646.46 473.11,647.35 477.80,647.60 482.44,647.19 487.00,646.12 491.40,644.37 495.59,641.96 499.80,638.63 503.73,634.54 508.06,628.65 511.73,622.12 514.19,615.79 515.78,609.41 516.51,603.77 516.51,598.14 515.72,592.15 514.15,586.19 511.68,580.13 508.32,574.22 503.55,567.93 497.75,561.89 481.43,549.47 471.56,541.32 467.99,537.51 464.91,533.52 462.30,529.25 460.15,524.78 458.52,520.28 457.42,515.68 456.93,511.09 457.00,506.58 457.54,502.60 458.58,498.77 460.22,494.84 462.36,491.13 464.93,487.80 467.90,484.83 471.19,482.31 474.77,480.23 478.58,478.62 482.65,477.47 487.38,476.75 492.24,476.56 496.89,476.90 501.56,477.74 506.69,479.17 511.96,481.19 525.10,488.20 539.26,498.42 559.19,516.26 640.94,593.17 715.55,656.06 721.13,659.48 725.67,661.40 729.90,662.55 734.02,663.01 737.74,662.85 741.36,662.10 745.06,660.67 748.50,658.70 751.34,656.41 753.81,653.64 756.22,649.78 758.12,645.44 759.39,640.68 760.00,635.74 759.91,630.82 759.10,625.77 757.11,619.47 754.15,613.06 749.87,606.20 740.66,596.43 723.27,583.09 630.80,517.44"
        fill="none"
        stroke="#e94560"
        stroke-width="8.0"
        stroke-linejoin="round"
        stroke-linecap="round"/>
  <!-- Start/finish line -->
  <line x1="619.17" y1="533.70" x2="642.44" y2="501.17"
        stroke="#f5f5f5" stroke-width="9.6"
        stroke-linecap="round"/>
</svg>
