<?xml version="1.0" encoding="utf-8"?>
<svg xmlns="http://www.w3.org/2000/svg"
     width="763.7" height="800.0"
     viewBox="0 0 763.7 800.0">
  <rect width="100%" height="100%" fill="#1a1a2e"/>
  <!-- Track outline -->
  <polyline points="535.14,536.55 476.15,493.44 364.41,418.47 334.59,393.49 328.04,386.00 322.89,378.26 317.87,367.80 314.22,357.03 312.60,348.80 312.13,340.76 312.59,333.07 314.29,324.76 321.14,308.34 328.36,290.97 330.38,283.54 331.41,277.52 331.57,274.60 331.45,271.98 330.74,266.48 329.04,260.20 326.79,253.77 322.96,246.40 318.06,238.84 302.03,219.22 142.72,61.47 127.48,49.20 121.58,45.71 111.94,41.65 107.62,40.71 99.54,40.00 84.24,40.88 77.89,42.43 72.13,44.86 62.27,51.05 58.00,54.78 52.82,60.43 48.14,67.09 44.16,75.35 41.34,84.28 40.00,93.57 40.27,110.31 41.47,117.45 45.77,130.08 48.88,135.94 52.68,141.60 63.65,153.62 120.77,201.48 131.13,213.60 139.68,226.12 146.64,239.03 152.12,252.38 155.84,265.48 160.26,292.77 160.89,307.33 156.37,344.73 137.23,419.60 130.91,449.45 128.65,470.22 128.72,499.41 131.62,528.20 137.35,557.63 146.05,585.46 156.42,608.47 170.27,630.30 189.77,654.14 244.57,708.89 261.19,722.63 269.64,727.90 278.03,732.05 290.81,735.74 296.81,736.60 308.12,736.45 313.44,735.40 319.06,733.47 324.51,730.75 330.05,726.92 335.20,722.34 339.81,717.10 343.96,711.16 348.26,703.40 351.87,695.08 355.00,683.26 357.31,671.71 357.67,665.19 357.27,659.92 354.03,647.96 351.06,641.02 342.48,626.01 336.62,618.56 329.90,611.43 312.67,596.86 286.01,576.25 280.30,569.89 275.95,563.54 272.65,557.17 270.23,550.48 268.52,543.09 267.80,535.37 268.39,526.76 270.08,518.26 272.58,510.74 275.94,503.88 279.67,498.59 284.19,493.93 290.46,489.24 297.57,485.31 305.71,482.11 314.04,480.00 320.90,479.23 327.76,479.46 335.79,480.81 344.06,483.38 353.01,487.39 364.03,494.24 505.02,611.57 554.36,655.68 624.93,725.54 646.21,744.15 660.11,753.64 665.53,756.13 677.85,759.34 684.69,760.00 690.61,759.73 696.14,758.69 700.50,757.11 704.51,754.89 708.60,751.66 712.33,747.82 715.56,743.34 718.48,738.52 720.86,732.80 722.55,726.61 723.57,719.10 723.67,713.14 723.37,707.59 723.03,705.51 722.45,703.41 717.16,690.16 713.41,683.85 708.79,677.61 692.82,661.78 633.40,613.04 535.14,536.55"
        fill="none"
        stroke="#e94560"
        stroke-width="8.0"
        stroke-linejoin="round"
        stroke-linecap="round"/>
  <!-- Start/finish line -->
  <line x1="523.03" y1="552.47" x2="547.25" y2="520.63"
        stroke="#f5f5f5" stroke-width="9.6"
        stroke-linecap="round"/>
</svg>
