<?xml version="1.0" encoding="utf-8"?>
<svg xmlns="http://www.w3.org/2000/svg"
     width="540.6" height="800.0"
     viewBox="0 0 540.6 800.0">
  <rect width="100%" height="100%" fill="#1a1a2e"/>
  <!-- Track outline -->
  <polyline points="497.89,352.84 500.58,321.54 499.42,270.53 493.81,220.93 486.28,197.02 476.82,176.02 453.75,133.31 439.60,113.91 423.76,96.01 406.62,80.11 387.24,66.50 361.87,54.50 334.49,45.90 306.50,41.20 278.90,40.00 255.76,42.30 233.23,47.00 210.08,52.90 187.40,61.10 164.41,72.70 143.11,87.61 124.20,107.01 107.59,129.31 92.52,154.52 79.91,181.12 70.68,205.02 63.30,234.83 46.92,375.35 40.00,516.97 42.38,548.47 47.92,574.07 57.15,601.58 70.14,627.48 87.52,650.88 107.89,671.59 125.66,696.09 140.73,714.19 158.95,729.00 177.17,745.40 236.15,760.00 285.05,753.80 307.81,747.50 329.65,738.10 352.56,722.19 373.17,703.29 387.93,686.29 401.54,666.29 423.76,627.48 445.45,578.37 475.13,474.16 495.96,374.95 497.89,352.84"
        fill="none"
        stroke="#e94560"
        stroke-width="8.0"
        stroke-linejoin="round"
        stroke-linecap="round"/>
  <!-- Start/finish line -->
  <line x1="477.96" y1="351.12" x2="517.81" y2="354.56"
        stroke="#f5f5f5" stroke-width="9.6"
        stroke-linecap="round"/>
</svg>
