<?xml version="1.0" encoding="utf-8"?>
<svg xmlns="http://www.w3.org/2000/svg"
     width="544.2" height="800.0"
     viewBox="0 0 544.2 800.0">
  <rect width="100%" height="100%" fill="#1a1a2e"/>
  <!-- Track outline -->
  <polyline points="321.43,693.37 300.43,653.06 287.26,621.00 277.59,587.67 274.23,570.90 270.22,521.63 271.12,475.06 273.96,460.77 278.83,447.28 283.56,438.32 289.43,429.58 296.16,422.04 303.77,415.38 321.50,404.43 341.59,396.93 361.54,390.67 375.83,384.06 383.18,379.04 389.43,373.34 394.51,366.89 396.97,362.14 398.81,357.03 400.12,351.85 401.13,344.04 400.86,336.13 399.79,330.64 398.05,325.15 395.68,319.91 391.13,312.84 384.06,305.16 346.57,273.69 302.53,241.60 260.65,218.68 253.44,215.67 245.97,213.50 199.04,206.81 129.10,204.51 111.34,202.22 102.92,200.17 94.83,197.32 87.22,193.41 79.95,188.79 72.78,183.68 66.08,177.88 60.05,171.18 54.84,163.83 50.66,156.02 47.23,147.84 42.07,131.34 40.60,123.22 40.00,115.06 40.53,106.85 42.03,98.72 44.56,90.66 47.88,82.94 55.84,69.49 65.34,57.86 70.64,52.62 76.41,48.06 82.69,44.65 89.42,42.17 96.75,40.56 104.35,40.00 112.35,40.65 120.44,42.26 137.57,47.78 155.58,56.15 226.70,106.10 329.75,185.10 460.37,272.01 474.28,281.72 480.63,286.86 486.41,292.51 491.27,298.83 495.40,305.65 498.96,312.81 501.72,320.25 503.51,327.88 504.25,335.66 503.75,343.54 502.15,351.32 499.48,358.89 495.79,366.11 490.92,372.93 485.14,379.26 470.75,390.82 453.57,401.43 434.77,411.53 411.12,428.43 400.43,438.66 386.21,456.52 370.92,479.53 353.62,513.97 341.23,544.89 339.23,552.48 338.72,559.12 339.09,564.98 340.20,571.02 342.04,576.73 344.60,581.94 347.87,586.81 351.71,590.99 356.07,594.43 360.97,597.25 366.12,599.18 371.54,600.14 377.19,600.20 382.68,599.36 388.16,597.44 393.47,594.59 398.14,591.24 403.11,586.03 407.19,580.11 410.95,573.50 413.96,566.34 416.02,558.62 417.40,549.79 419.43,512.89 420.71,504.30 422.64,496.83 425.35,490.01 429.12,483.74 432.76,479.56 437.04,475.68 441.69,472.61 446.56,470.44 451.78,469.02 456.93,468.55 460.70,468.89 464.52,469.79 468.15,471.19 471.40,473.05 475.12,476.58 478.25,480.99 480.90,485.73 484.04,493.36 486.22,501.57 487.81,510.87 488.57,520.24 487.98,535.96 485.00,552.86 455.22,667.42 448.23,702.21 443.43,720.10 440.11,727.97 435.99,735.29 431.04,741.74 425.29,747.41 418.85,752.16 411.82,755.91 404.42,758.45 396.73,759.81 388.81,760.00 380.91,758.95 373.06,756.43 365.50,752.74 358.10,747.91 351.21,742.08 345.24,735.72 339.08,727.23 321.43,693.37"
        fill="none"
        stroke="#e94560"
        stroke-width="8.0"
        stroke-linejoin="round"
        stroke-linecap="round"/>
  <!-- Start/finish line -->
  <line x1="303.70" y1="702.61" x2="339.17" y2="684.13"
        stroke="#f5f5f5" stroke-width="9.6"
        stroke-linecap="round"/>
</svg>
