<?xml version="1.0" encoding="utf-8"?>
<svg xmlns="http://www.w3.org/2000/svg"
     width="800.0" height="719.9"
     viewBox="0 0 800.0 719.9">
  <rect width="100%" height="100%" fill="#1a1a2e"/>
  <!-- Track outline -->
  <polyline points="205.09,133.04 298.48,101.39 321.98,97.05 344.97,95.23 363.90,96.43 381.40,98.94 387.54,100.20 393.31,102.65 402.72,109.07 413.39,118.06 421.97,127.63 426.13,134.42 429.18,141.46 431.21,149.08 432.27,158.51 432.13,168.58 430.88,177.32 429.22,182.35 426.82,186.63 423.45,191.03 407.20,204.94 385.83,219.40 355.50,236.45 326.41,254.50 310.12,270.23 297.84,286.21 293.82,292.88 290.77,299.42 288.60,307.03 287.03,320.30 287.03,335.46 288.37,349.80 291.00,361.82 294.74,373.14 298.80,381.95 301.16,385.47 303.61,388.05 306.61,390.32 312.10,393.46 318.70,396.04 326.09,397.99 344.09,399.81 363.48,399.00 380.70,396.04 398.25,389.69 422.99,374.46 449.03,352.64 487.30,310.05 517.49,270.86 522.11,263.69 525.11,257.34 527.69,250.23 529.31,240.92 527.09,194.12 522.66,143.04 521.55,107.31 524.51,89.25 530.05,72.58 535.73,62.65 542.61,53.78 549.44,47.05 554.19,43.77 558.95,41.70 563.61,40.50 567.72,40.00 571.83,40.13 576.21,41.20 583.14,44.09 590.71,48.68 598.42,55.03 615.36,75.60 632.54,101.90 669.19,171.72 751.74,416.11 758.29,448.19 760.00,475.05 758.71,492.41 755.66,509.27 751.09,524.11 742.55,539.71 732.44,552.29 723.85,560.91 713.70,568.65 691.12,582.36 663.88,596.01 587.20,625.07 415.60,677.98 400.55,679.86 388.50,679.61 375.81,678.04 363.94,674.77 355.31,670.74 347.37,665.08 341.00,658.92 334.81,651.62 330.11,644.39 328.03,639.54 326.64,634.70 325.81,630.23 325.58,625.96 325.90,622.12 327.29,618.41 329.60,614.70 332.92,610.86 353.10,596.96 382.83,582.05 460.52,554.68 536.56,525.94 553.64,515.75 567.40,505.43 578.80,493.98 586.74,483.41 593.25,472.09 597.08,461.52 597.77,456.81 597.82,452.21 597.22,447.81 596.16,443.66 594.31,439.19 591.77,434.98 588.68,431.08 585.22,427.81 578.75,423.97 571.18,421.45 563.43,420.01 550.78,419.94 538.04,421.70 515.92,426.74 265.98,520.40 226.60,531.22 196.09,535.50 187.55,535.44 179.84,534.68 172.77,532.92 166.08,529.71 157.54,522.54 149.83,513.10 143.60,503.35 139.86,495.81 137.09,488.07 135.33,480.58 134.55,474.80 134.45,469.20 135.33,463.16 142.49,446.24 151.49,429.50 156.66,420.38 160.49,411.01 161.92,400.69 162.02,389.12 160.77,378.36 159.25,371.95 157.17,366.03 154.21,360.37 149.97,354.96 127.02,341.25 95.68,329.17 71.95,319.23 65.07,314.96 59.67,309.92 53.48,301.75 47.34,291.56 42.82,281.43 40.88,274.00 40.00,266.52 40.00,259.22 40.83,252.05 42.59,245.01 45.31,237.96 54.22,223.68 66.87,209.59 92.68,188.83 120.10,170.78 150.80,154.86 200.61,134.55 205.09,133.04"
        fill="none"
        stroke="#e94560"
        stroke-width="8.0"
        stroke-linejoin="round"
        stroke-linecap="round"/>
  <!-- Start/finish line -->
  <line x1="198.67" y1="114.09" x2="211.50" y2="151.98"
        stroke="#f5f5f5" stroke-width="9.6"
        stroke-linecap="round"/>
</svg>
