<?xml version="1.0" encoding="utf-8"?>
<svg xmlns="http://www.w3.org/2000/svg"
     width="800.0" height="572.6"
     viewBox="0 0 800.0 572.6">
  <rect width="100%" height="100%" fill="#1a1a2e"/>
  <!-- Track outline -->
  <polyline points="352.58,104.15 207.38,51.77 170.23,43.20 141.97,40.00 124.27,40.13 108.30,42.57 93.13,47.14 79.00,53.95 66.72,62.77 56.31,73.01 49.98,81.73 45.22,91.09 41.98,101.01 40.23,111.38 40.00,121.69 41.37,132.22 43.95,141.48 49.70,151.98 55.09,159.33 63.42,166.44 79.35,176.71 96.39,186.29 141.39,208.46 170.82,224.06 198.34,241.44 213.00,253.33 228.58,267.98 244.08,282.35 257.09,294.46 270.56,307.94 284.49,322.78 308.78,351.07 408.85,475.29 426.63,492.82 442.71,505.51 458.36,515.21 474.39,522.60 491.38,528.02 508.75,531.32 525.31,532.56 543.85,531.42 588.11,522.60 629.77,510.11 642.00,504.33 651.52,497.71 657.11,492.73 662.15,487.18 666.05,481.41 668.21,476.68 669.65,471.83 670.31,466.88 670.13,461.81 669.17,456.64 667.65,451.72 665.45,446.93 662.61,442.40 659.17,438.09 651.11,430.63 641.31,424.07 628.70,418.01 612.29,412.84 545.80,402.13 480.21,391.95 465.73,387.73 454.79,382.91 446.81,377.83 440.00,371.84 434.35,365.21 429.74,357.76 426.50,349.93 424.58,341.65 424.25,332.86 425.21,324.56 426.91,318.94 429.36,314.03 432.60,309.40 436.45,305.37 440.86,301.98 445.95,299.22 453.85,296.40 462.84,294.78 473.52,294.71 487.43,296.90 565.57,322.11 647.67,347.74 669.12,350.53 686.56,350.02 701.50,347.23 714.90,342.44 724.50,337.24 733.01,330.77 740.53,323.22 747.01,314.54 752.20,305.02 756.18,294.75 758.78,283.96 760.00,272.83 759.70,261.61 757.95,250.57 754.71,239.92 750.17,229.96 744.38,220.89 737.51,212.96 729.74,206.40 720.88,201.13 709.23,196.75 694.62,193.65 650.35,191.11 602.59,188.41 552.63,176.36 352.58,104.15"
        fill="none"
        stroke="#e94560"
        stroke-width="8.0"
        stroke-linejoin="round"
        stroke-linecap="round"/>
  <!-- Start/finish line -->
  <line x1="345.79" y1="122.97" x2="359.37" y2="85.34"
        stroke="#f5f5f5" stroke-width="9.6"
        stroke-linecap="round"/>
</svg>
