<?xml version="1.0" encoding="utf-8"?>
<svg xmlns="http://www.w3.org/2000/svg"
     width="800.0" height="583.2"
     viewBox="0 0 800.0 583.2">
  <rect width="100%" height="100%" fill="#1a1a2e"/>
  <!-- Track outline -->
  <polyline points="197.45,149.13 197.81,157.71 198.92,166.42 201.48,176.89 246.05,278.83 277.79,351.01 283.40,370.34 286.42,388.97 286.74,397.30 286.29,405.60 284.88,414.90 282.38,423.92 279.01,431.63 274.48,438.64 270.51,443.28 265.89,447.53 260.80,450.92 254.93,453.27 248.54,454.68 242.18,455.24 236.14,454.89 230.14,453.79 224.47,452.09 217.19,448.88 210.43,444.66 203.81,439.20 197.81,432.80 192.36,425.44 187.71,417.39 183.80,408.16 180.82,398.75 177.80,382.92 167.87,310.05 161.73,291.66 157.93,283.12 153.40,275.10 147.89,267.88 141.63,261.38 134.68,255.60 127.10,250.73 118.97,246.79 110.48,243.92 102.05,242.33 93.59,241.98 85.22,242.99 77.06,245.20 69.09,248.55 61.74,253.08 55.35,258.78 49.90,265.46 45.61,272.89 42.46,280.94 40.59,289.83 40.00,299.06 40.85,309.05 42.72,318.83 47.44,334.66 53.81,346.73 78.11,381.16 88.57,398.61 117.39,444.59 127.56,461.36 139.69,476.39 168.85,504.01 176.79,509.86 185.67,514.87 211.48,525.24 237.75,533.54 255.82,536.51 556.15,543.21 665.75,542.52 683.92,539.58 701.33,534.54 709.69,530.74 717.66,526.14 725.34,520.75 732.35,514.49 738.59,507.16 743.96,499.04 748.55,489.81 752.19,480.33 756.46,464.09 759.44,446.39 760.00,428.24 758.95,411.20 757.25,401.00 754.62,390.77 750.95,381.05 746.49,372.03 742.19,365.22 737.40,359.00 725.89,347.21 712.84,337.22 705.92,333.25 698.41,329.96 688.25,326.95 677.85,325.02 669.68,324.46 661.68,324.67 644.89,326.99 627.74,331.76 610.49,339.57 516.63,400.86 507.02,405.49 498.86,408.33 489.87,410.57 480.85,411.85 472.13,412.13 463.57,411.30 455.27,409.26 447.27,406.08 439.30,401.52 431.70,395.95 416.71,381.81 405.66,368.64 361.16,300.30 322.46,233.34 315.11,216.85 310.32,201.61 308.45,192.31 307.37,182.70 307.27,173.19 308.26,163.89 310.36,155.11 313.73,146.99 316.72,142.32 320.33,138.07 324.39,134.30 329.21,130.95 334.56,128.18 340.20,125.97 349.91,123.69 359.81,122.86 368.34,123.41 376.70,125.04 385.42,127.70 393.98,131.36 411.23,141.91 485.87,194.94 503.74,204.51 519.06,211.01 528.11,213.91 536.57,215.57 545.03,216.20 553.43,215.75 561.79,214.12 569.92,211.39 577.63,207.69 584.81,202.92 591.93,196.53 598.00,188.99 601.11,183.22 603.57,176.96 605.28,170.74 606.29,162.37 606.00,153.97 604.42,145.12 601.67,136.34 597.57,127.01 592.65,118.19 583.01,105.02 570.61,92.72 555.95,81.52 539.00,72.15 511.88,61.19 478.07,50.99 384.28,40.31 299.08,40.00 281.66,42.56 265.40,46.64 249.75,53.31 235.06,62.71 222.14,74.53 216.43,81.14 211.38,88.26 207.15,95.90 203.71,103.95 199.15,120.93 197.02,138.83 197.45,149.13"
        fill="none"
        stroke="#e94560"
        stroke-width="8.0"
        stroke-linejoin="round"
        stroke-linecap="round"/>
  <!-- Start/finish line -->
  <line x1="217.43" y1="148.30" x2="177.46" y2="149.97"
        stroke="#f5f5f5" stroke-width="9.6"
        stroke-linecap="round"/>
</svg>
