<?xml version="1.0" encoding="utf-8"?>
<svg xmlns="http://www.w3.org/2000/svg"
     width="800.0" height="655.0"
     viewBox="0 0 800.0 655.0">
  <rect width="100%" height="100%" fill="#1a1a2e"/>
  <!-- Track outline -->
  <polyline points="325.02,73.55 296.72,86.25 268.88,100.87 242.16,117.28 193.50,154.37 171.64,174.50 115.80,239.52 86.39,285.13 63.30,331.75 54.22,355.21 47.38,378.85 42.51,402.50 40.00,425.93 40.51,448.89 43.78,471.35 49.67,493.24 58.35,514.49 69.19,534.32 82.48,552.54 97.88,568.79 115.36,582.58 134.51,593.96 155.21,602.90 177.36,609.16 200.48,613.17 224.17,614.97 272.72,612.67 322.08,603.22 421.07,566.09 548.05,502.59 638.12,442.67 695.91,393.88 712.48,375.99 727.19,357.08 739.93,336.99 749.86,315.68 756.50,293.23 759.88,270.33 760.00,247.19 757.07,223.75 751.02,200.78 742.08,178.27 730.40,156.58 715.82,136.17 693.61,112.00 674.33,95.67 653.07,81.52 630.04,69.51 605.67,59.47 580.10,51.48 553.49,45.45 526.02,41.73 497.96,40.00 440.65,42.86 411.40,47.32 382.39,53.90 353.52,62.67 325.02,73.55"
        fill="none"
        stroke="#e94560"
        stroke-width="8.0"
        stroke-linejoin="round"
        stroke-linecap="round"/>
  <!-- Start/finish line -->
  <line x1="332.68" y1="92.02" x2="317.35" y2="55.08"
        stroke="#f5f5f5" stroke-width="9.6"
        stroke-linecap="round"/>
</svg>
