<?xml version="1.0" encoding="utf-8"?>
<svg xmlns="http://www.w3.org/2000/svg"
     width="533.0" height="800.0"
     viewBox="0 0 533.0 800.0">
  <rect width="100%" height="100%" fill="#1a1a2e"/>
  <!-- Track outline -->
  <polyline points="40.36,412.33 40.40,423.21 44.68,557.06 51.66,600.21 61.50,637.34 71.30,661.70 82.76,682.68 95.30,700.71 108.31,715.62 117.16,723.49 126.80,730.07 143.90,740.34 163.81,749.33 191.18,756.27 218.68,759.85 237.96,760.00 254.42,758.37 269.69,754.59 313.25,737.22 324.79,730.79 336.69,722.36 371.64,692.74 407.23,657.81 424.60,636.72 439.36,614.10 456.42,581.93 471.14,544.19 484.98,486.07 492.88,425.87 493.04,383.63 489.07,342.52 481.77,293.96 469.75,246.06 451.22,201.17 427.62,159.91 398.58,122.32 366.53,90.45 336.10,67.58 305.95,51.34 283.77,44.60 261.40,41.53 233.19,40.00 203.60,42.25 169.84,50.16 136.99,63.59 108.31,82.90 84.39,104.86 73.16,118.64 64.08,134.47 51.50,165.42 42.26,199.28 40.00,249.38 40.36,412.33"
        fill="none"
        stroke="#e94560"
        stroke-width="8.0"
        stroke-linejoin="round"
        stroke-linecap="round"/>
  <!-- Start/finish line -->
  <line x1="60.36" y1="412.29" x2="20.36" y2="412.38"
        stroke="#f5f5f5" stroke-width="9.6"
        stroke-linecap="round"/>
</svg>
