<?xml version="1.0" encoding="utf-8"?>
<svg xmlns="http://www.w3.org/2000/svg"
     width="800.0" height="358.5"
     viewBox="0 0 800.0 358.5">
  <rect width="100%" height="100%" fill="#1a1a2e"/>
  <!-- Track outline -->
  <polyline points="302.76,106.81 331.78,100.83 348.91,99.82 451.21,102.61 484.08,98.07 517.74,89.96 650.39,44.82 664.16,41.75 678.22,40.03 692.32,40.00 700.90,41.16 709.52,43.23 717.61,46.26 725.31,50.18 732.50,54.85 739.11,60.17 745.02,65.90 750.15,72.26 754.24,79.28 757.27,86.76 759.03,94.65 759.85,102.77 760.00,111.13 759.36,119.52 757.88,127.98 755.60,136.31 752.84,144.05 748.81,152.32 736.83,170.55 723.77,192.25 711.91,203.53 632.05,279.70 605.39,300.75 591.05,308.83 575.92,314.68 559.61,317.79 543.18,318.54 527.23,316.91 482.56,305.35 469.01,300.09 411.86,269.11 332.45,223.42 318.59,218.09 304.19,214.55 286.87,212.30 258.67,213.52 229.20,217.12 183.90,225.36 167.50,227.21 136.42,226.89 121.38,225.58 106.89,223.10 93.06,219.34 77.69,212.92 70.84,209.01 64.47,204.50 58.80,199.36 53.71,193.66 48.97,187.46 45.06,180.76 42.24,173.40 40.52,165.66 40.00,157.42 40.67,149.28 42.30,142.26 44.94,135.65 48.79,129.14 53.67,123.16 59.95,117.61 66.99,112.79 74.44,108.56 82.27,105.02 90.36,102.17 98.67,100.20 106.83,99.35 115.83,99.38 150.55,103.05 266.77,110.50 299.18,107.56 302.76,106.81"
        fill="none"
        stroke="#e94560"
        stroke-width="8.0"
        stroke-linejoin="round"
        stroke-linecap="round"/>
  <!-- Start/finish line -->
  <line x1="298.71" y1="87.22" x2="306.81" y2="126.39"
        stroke="#f5f5f5" stroke-width="9.6"
        stroke-linecap="round"/>
</svg>
