<?xml version="1.0" encoding="utf-8"?>
<svg xmlns="http://www.w3.org/2000/svg"
     width="800.0" height="646.9"
     viewBox="0 0 800.0 646.9">
  <rect width="100%" height="100%" fill="#1a1a2e"/>
  <!-- Track outline -->
  <polyline points="343.73,570.26 389.58,583.86 505.30,606.86 539.52,606.72 569.58,602.38 598.43,594.38 628.92,581.62 658.32,564.79 683.66,546.56 708.23,522.16 726.87,497.75 735.87,483.73 743.00,468.72 753.09,439.97 760.00,406.04 759.78,353.86 753.97,306.18 750.02,290.33 743.99,276.03 728.85,247.42 708.67,218.53 684.97,195.25 658.54,174.91 601.06,141.96 471.96,90.35 365.56,59.35 274.30,40.00 256.42,40.14 242.05,42.52 227.02,45.05 210.68,50.38 168.45,73.10 124.68,105.63 102.19,129.34 82.45,155.56 66.44,183.47 49.76,231.29 41.10,275.33 40.00,292.16 41.43,308.43 47.46,343.21 58.54,379.81 73.46,408.98 93.97,436.75 135.10,477.00 178.43,510.10 217.37,527.07 279.67,551.19 343.73,570.26"
        fill="none"
        stroke="#e94560"
        stroke-width="8.0"
        stroke-linejoin="round"
        stroke-linecap="round"/>
  <!-- Start/finish line -->
  <line x1="349.43" y1="551.09" x2="338.03" y2="589.43"
        stroke="#f5f5f5" stroke-width="9.6"
        stroke-linecap="round"/>
</svg>
