<?xml version="1.0" encoding="utf-8"?>
<svg xmlns="http://www.w3.org/2000/svg"
     width="430.9" height="800.0"
     viewBox="0 0 430.9 800.0">
  <rect width="100%" height="100%" fill="#1a1a2e"/>
  <!-- Track outline -->
  <polyline points="47.38,364.28 40.00,544.55 42.11,588.55 47.28,623.60 54.66,649.49 64.60,672.42 77.21,693.20 92.19,711.52 109.93,727.79 129.69,740.93 153.31,750.59 176.29,756.70 202.61,760.00 218.08,759.67 230.85,757.57 242.61,754.02 255.19,748.50 276.41,737.87 297.99,724.20 315.21,709.22 330.71,691.28 346.01,667.69 358.75,639.92 368.44,603.90 375.26,558.73 390.89,284.14 388.55,228.89 381.92,184.22 372.95,155.86 361.03,131.22 345.66,107.55 328.01,86.97 310.04,71.45 290.84,59.16 270.72,49.75 249.24,43.43 221.75,40.00 194.19,40.54 172.52,44.43 152.14,51.38 132.97,60.96 115.20,73.59 99.21,89.90 85.69,107.97 77.47,121.48 70.74,138.08 60.12,187.40 51.93,253.23 47.38,364.28"
        fill="none"
        stroke="#e94560"
        stroke-width="8.0"
        stroke-linejoin="round"
        stroke-linecap="round"/>
  <!-- Start/finish line -->
  <line x1="67.36" y1="365.10" x2="27.39" y2="363.46"
        stroke="#f5f5f5" stroke-width="9.6"
        stroke-linecap="round"/>
</svg>
