<?xml version="1.0" encoding="utf-8"?>
<svg xmlns="http://www.w3.org/2000/svg"
     width="520.1" height="800.0"
     viewBox="0 0 520.1 800.0">
  <rect width="100%" height="100%" fill="#1a1a2e"/>
  <!-- Track outline -->
  <polyline points="304.75,566.38 285.52,596.04 214.69,701.83 200.02,720.97 183.89,736.93 175.38,743.43 166.65,748.95 158.05,753.50 149.04,756.93 137.72,759.39 126.12,760.00 118.96,759.22 111.91,757.59 105.10,755.09 98.76,751.94 92.63,748.05 86.99,743.27 79.83,734.84 73.87,724.86 69.88,715.12 66.71,702.15 55.81,577.01 53.67,430.44 54.81,406.42 58.13,384.21 64.74,364.37 68.88,355.41 73.87,347.06 81.43,337.57 90.16,329.35 100.31,323.21 111.16,318.67 123.05,314.75 135.27,312.13 147.67,310.86 159.94,311.06 171.19,312.78 181.99,315.93 191.62,320.15 200.55,325.75 205.63,329.92 210.37,334.71 214.41,340.11 217.46,345.59 219.92,351.56 221.47,357.82 221.85,364.12 221.37,370.71 220.27,377.13 217.21,386.95 212.89,396.32 200.40,415.30 137.82,505.75 132.63,516.22 128.77,527.51 118.24,570.18 110.46,613.83 109.61,627.00 110.26,638.01 112.13,648.36 115.37,657.73 117.84,662.31 120.76,666.56 124.08,670.29 127.67,673.23 132.36,675.60 137.62,677.04 143.06,677.57 148.32,677.24 153.41,676.01 158.52,673.85 163.43,670.98 167.95,667.55 174.51,660.22 181.32,650.04 223.94,575.38 313.35,446.06 324.28,424.83 328.09,414.20 330.91,403.23 332.56,392.68 333.11,382.12 332.41,371.94 330.64,362.08 327.70,352.34 323.83,343.26 319.12,334.71 313.63,326.94 307.19,319.70 299.46,312.66 264.77,287.95 245.09,277.52 201.42,261.24 131.33,246.84 120.01,242.95 110.51,238.57 101.18,233.25 92.33,226.91 84.44,219.88 77.14,211.86 70.65,203.15 64.79,193.65 55.44,173.32 48.70,151.93 40.80,111.71 40.00,99.24 40.52,87.78 42.34,77.19 45.54,67.37 49.10,60.41 53.54,53.95 58.48,48.67 62.82,45.44 67.53,42.99 72.45,41.23 77.26,40.29 81.80,40.00 86.32,40.45 90.90,41.68 95.74,43.89 105.60,51.99 116.07,63.20 125.85,72.77 135.20,79.68 144.38,85.04 155.60,89.99 166.95,93.75 185.88,97.64 206.06,98.70 317.92,85.04 389.55,77.92 410.97,77.76 430.65,80.21 442.40,83.12 453.80,87.58 460.01,91.14 465.82,95.39 470.78,100.55 474.30,105.78 477.19,111.67 479.14,117.97 480.04,124.44 480.09,131.27 479.29,137.85 478.04,143.09 476.27,148.29 473.90,152.99 470.91,156.75 464.67,161.99 456.44,165.06 446.66,165.39 433.84,164.77 405.19,162.32 333.16,160.85 320.71,161.66 310.41,163.42 300.63,165.92 291.53,170.09 287.37,172.95 283.25,176.31 279.63,180.20 277.02,184.65 275.69,188.95 274.94,193.78 274.75,198.73 275.12,203.43 276.82,209.94 279.71,216.24 283.23,221.92 290.76,229.74 300.21,236.81 337.02,260.46 355.35,277.48 368.12,292.90 378.85,310.70 386.53,329.68 391.17,349.97 392.69,371.57 390.90,393.90 386.23,416.57 379.17,439.35 369.70,461.90 358.12,484.07 304.75,566.38"
        fill="none"
        stroke="#e94560"
        stroke-width="8.0"
        stroke-linejoin="round"
        stroke-linecap="round"/>
  <!-- Start/finish line -->
  <line x1="321.53" y1="577.26" x2="287.97" y2="555.50"
        stroke="#f5f5f5" stroke-width="9.6"
        stroke-linecap="round"/>
</svg>
