<?xml version="1.0" encoding="utf-8"?>
<svg xmlns="http://www.w3.org/2000/svg"
     width="394.2" height="800.0"
     viewBox="0 0 394.2 800.0">
  <rect width="100%" height="100%" fill="#1a1a2e"/>
  <!-- Track outline -->
  <polyline points="40.00,384.71 40.38,573.25 49.75,659.74 53.28,672.05 57.36,681.92 67.17,700.15 78.90,715.90 86.10,723.23 93.77,729.80 101.07,734.99 109.67,739.79 131.62,749.40 156.56,757.21 177.62,760.00 198.90,759.49 225.24,754.29 248.59,747.09 257.19,743.61 264.97,739.54 277.04,732.03 288.89,723.23 296.98,716.24 304.66,707.19 318.61,683.98 331.54,653.61 343.14,601.87 350.12,552.88 352.03,523.15 354.16,247.72 349.67,198.73 343.17,172.09 334.51,147.25 326.22,129.62 316.06,113.62 299.40,94.14 279.84,76.64 256.56,61.49 233.17,50.00 217.40,43.95 201.73,40.56 181.89,40.00 161.78,42.36 143.95,46.61 127.09,53.30 111.39,63.34 98.42,73.76 93.84,77.97 89.73,82.64 81.54,93.03 73.03,107.35 60.42,141.50 50.61,179.26 45.96,226.62 40.00,382.35 40.00,384.71"
        fill="none"
        stroke="#e94560"
        stroke-width="8.0"
        stroke-linejoin="round"
        stroke-linecap="round"/>
  <!-- Start/finish line -->
  <line x1="60.00" y1="384.67" x2="20.00" y2="384.75"
        stroke="#f5f5f5" stroke-width="9.6"
        stroke-linecap="round"/>
</svg>
