<?xml version="1.0" encoding="utf-8"?>
<svg xmlns="http://www.w3.org/2000/svg"
     width="800.0" height="698.3"
     viewBox="0 0 800.0 698.3">
  <rect width="100%" height="100%" fill="#1a1a2e"/>
  <!-- Track outline -->
  <polyline points="567.93,515.00 679.96,407.16 722.12,354.96 732.91,336.61 749.02,298.67 758.02,262.25 760.00,244.11 758.94,207.74 755.60,191.14 743.96,159.99 735.86,145.26 726.22,131.27 702.12,107.21 688.06,96.84 665.92,84.41 639.18,72.44 611.15,64.49 581.97,59.40 551.70,56.79 520.98,56.94 457.33,65.99 392.20,82.10 370.51,84.74 350.04,85.08 330.16,83.85 311.17,80.72 292.61,75.91 229.76,47.76 213.23,42.27 205.36,40.68 197.56,40.00 190.14,40.61 182.84,42.12 175.63,44.20 168.66,47.03 161.88,50.71 155.40,55.04 143.01,65.41 137.14,71.43 131.23,79.01 120.28,96.87 108.17,122.37 45.25,323.81 41.41,344.65 40.00,381.93 41.84,399.30 46.10,415.60 52.32,430.08 59.60,443.83 64.14,450.43 68.86,456.08 79.69,466.70 91.30,475.29 103.88,482.96 112.46,486.70 120.87,489.34 129.56,491.28 138.34,492.32 147.08,492.38 155.73,491.46 164.14,489.50 172.26,486.61 179.80,483.02 186.92,478.66 193.68,473.45 199.97,467.59 211.20,454.17 220.67,438.86 224.28,430.64 227.24,421.55 230.45,408.20 232.38,392.98 232.14,370.85 228.89,345.23 200.81,247.21 196.46,230.09 195.99,222.84 196.41,215.69 197.59,207.74 199.97,200.16 202.51,195.71 205.69,191.60 209.25,187.92 215.18,183.25 221.80,179.54 229.22,176.69 237.09,174.85 245.57,174.05 254.00,174.26 261.12,175.21 268.04,176.84 282.27,182.06 296.28,190.04 310.42,200.78 321.07,210.26 341.37,232.54 360.87,259.12 406.81,338.39 414.63,356.09 420.35,374.08 424.73,392.64 427.80,411.52 429.04,430.33 428.55,447.21 426.64,463.32 423.18,478.42 417.97,491.98 408.67,508.28 399.51,519.69 388.81,529.79 339.13,562.84 326.86,573.61 321.96,578.95 317.74,584.69 314.14,591.41 311.57,598.56 310.61,603.32 310.21,608.20 310.44,613.11 311.55,618.60 313.46,624.13 315.93,629.22 320.45,635.36 325.99,640.76 332.70,645.92 340.15,650.27 348.30,653.62 356.63,656.01 364.01,657.43 371.38,658.13 379.22,658.28 387.14,657.73 403.16,654.33 418.80,648.62 440.85,635.91 460.14,619.06 474.60,604.30 487.06,592.83 567.93,515.00"
        fill="none"
        stroke="#e94560"
        stroke-width="8.0"
        stroke-linejoin="round"
        stroke-linecap="round"/>
  <!-- Start/finish line -->
  <line x1="554.06" y1="500.59" x2="581.80" y2="529.41"
        stroke="#f5f5f5" stroke-width="9.6"
        stroke-linecap="round"/>
</svg>
