<?xml version="1.0" encoding="utf-8"?>
<svg xmlns="http://www.w3.org/2000/svg"
     width="796.8" height="800.0"
     viewBox="0 0 796.8 800.0">
  <rect width="100%" height="100%" fill="#1a1a2e"/>
  <!-- Track outline -->
  <polyline points="233.24,242.87 393.68,70.30 414.30,57.58 435.72,47.91 456.95,41.98 465.93,40.53 475.39,40.00 490.72,41.07 506.50,44.01 519.69,48.55 531.60,54.27 539.95,59.61 547.55,65.55 562.70,80.19 580.97,104.77 600.52,130.37 612.11,141.81 625.09,152.07 655.61,170.51 684.89,188.90 694.94,198.52 702.49,208.08 708.67,217.76 713.86,228.02 723.11,252.44 743.77,362.70 756.79,479.58 756.70,493.85 755.23,506.03 751.63,522.81 746.25,538.58 740.75,548.41 733.90,557.18 724.13,566.85 712.89,575.99 685.43,594.32 529.38,674.49 482.95,694.74 474.64,696.94 466.33,697.95 445.67,698.11 424.16,696.08 411.59,692.93 400.57,688.38 391.28,682.93 383.11,676.31 376.09,668.56 370.31,659.85 365.78,650.23 362.89,640.02 362.00,629.54 362.85,619.07 365.25,608.86 369.24,599.03 375.02,589.62 382.13,581.07 389.60,574.44 399.50,567.55 490.46,515.23 516.49,493.79 531.38,477.98 543.73,461.67 548.89,451.95 552.00,441.85 553.37,431.69 553.64,420.74 552.71,410.80 550.89,404.22 548.26,398.29 545.64,393.48 543.64,390.49 540.93,387.71 528.89,378.09 513.07,367.35 473.66,346.18 442.96,332.55 412.79,322.83 401.10,321.81 390.44,322.35 381.77,323.74 376.67,325.29 372.00,327.85 361.65,335.81 348.76,348.00 265.72,438.80 210.27,509.35 207.42,514.37 205.73,518.65 204.04,523.72 203.02,529.76 203.42,545.53 205.38,565.78 215.60,650.39 216.13,689.61 214.18,701.91 210.89,713.02 206.22,723.28 200.27,732.69 192.94,741.35 184.76,748.72 177.12,753.69 169.03,757.22 160.28,759.36 151.21,760.00 141.57,759.04 132.20,756.53 123.58,752.14 116.11,747.01 112.20,743.75 108.65,740.01 96.21,723.76 84.74,702.23 68.26,655.52 54.44,603.52 45.38,561.45 40.36,523.24 40.00,500.64 42.89,480.38 45.29,472.04 48.53,463.92 52.84,455.37 59.82,444.63 204.49,273.71 233.24,242.87"
        fill="none"
        stroke="#e94560"
        stroke-width="8.0"
        stroke-linejoin="round"
        stroke-linecap="round"/>
  <!-- Start/finish line -->
  <line x1="218.59" y1="229.25" x2="247.88" y2="256.50"
        stroke="#f5f5f5" stroke-width="9.6"
        stroke-linecap="round"/>
</svg>
