<?xml version="1.0" encoding="utf-8"?>
<svg xmlns="http://www.w3.org/2000/svg"
     width="447.5" height="800.0"
     viewBox="0 0 447.5 800.0">
  <rect width="100%" height="100%" fill="#1a1a2e"/>
  <!-- Track outline -->
  <polyline points="48.54,211.87 47.65,208.30 40.84,176.79 40.00,156.40 41.95,138.43 45.61,126.04 51.47,114.55 76.00,86.07 103.62,53.83 109.17,49.27 114.56,45.70 120.33,43.04 127.09,41.03 134.31,40.00 141.90,40.12 156.81,44.14 173.44,51.24 231.64,80.08 273.86,112.87 304.83,143.19 330.23,171.78 339.77,188.03 347.97,202.76 353.94,209.81 359.80,217.45 363.91,228.61 368.45,241.53 383.22,265.94 398.14,290.27 401.55,296.88 404.65,303.03 406.82,308.69 407.46,313.82 406.99,316.53 405.99,319.07 404.56,321.45 402.83,323.59 400.91,325.51 396.67,328.39 391.42,330.52 385.25,332.41 364.91,336.67 343.06,338.23 333.35,337.12 324.34,334.83 315.66,331.30 302.57,323.09 289.46,311.24 265.99,280.96 241.38,248.50 227.76,233.94 214.15,220.93 202.09,212.65 197.88,211.13 193.92,210.39 190.23,210.39 186.72,211.05 184.09,212.03 181.53,213.47 179.10,215.27 176.98,217.36 175.19,219.74 172.91,225.04 171.71,231.40 171.15,238.82 173.32,261.51 176.48,290.02 172.74,352.72 171.29,408.51 173.16,416.10 175.64,421.72 179.10,426.85 184.01,432.27 190.04,437.07 196.93,441.17 211.75,446.75 229.41,450.32 260.19,450.85 290.94,451.88 308.10,456.64 323.64,463.74 341.92,474.73 358.41,487.70 369.43,499.06 377.91,511.58 383.41,526.02 386.45,541.44 387.60,557.20 386.37,573.73 379.50,596.30 372.67,618.41 372.50,628.63 373.31,638.19 372.36,646.27 369.21,651.03 364.99,654.89 361.06,658.87 357.91,662.80 355.01,666.83 352.88,671.50 352.33,677.41 352.88,684.26 353.41,691.11 352.66,697.06 350.09,701.82 346.52,705.84 342.28,710.52 328.19,728.16 312.40,745.19 305.78,750.48 299.28,754.63 292.25,757.58 283.57,759.43 274.34,760.00 265.69,759.34 259.02,757.78 252.79,755.32 247.30,752.04 243.78,749.17 240.60,745.85 237.89,742.11 235.74,738.05 233.74,731.20 232.95,723.57 233.18,715.85 234.43,707.77 236.94,699.57 241.02,690.58 254.47,672.16 272.30,651.56 285.58,632.98 289.49,623.66 291.72,615.09 292.61,606.80 292.42,599.29 291.16,591.99 288.82,585.22 285.11,578.70 280.33,572.71 275.59,568.69 269.40,565.86 262.73,566.39 256.03,565.49 248.19,565.73 218.05,577.14 182.53,591.87 144.25,601.22 110.65,605.94 102.53,605.98 95.81,605.24 89.58,603.48 85.29,601.59 81.19,599.25 77.45,596.38 74.18,592.98 70.16,586.45 67.12,578.66 64.89,570.41 63.13,556.42 63.08,539.84 67.71,499.31 70.08,457.30 63.36,434.89 55.71,414.83 52.14,398.05 50.83,379.75 57.41,340.04 64.00,297.90 61.43,269.18 55.99,241.37 48.54,211.87"
        fill="none"
        stroke="#e94560"
        stroke-width="8.0"
        stroke-linejoin="round"
        stroke-linecap="round"/>
  <!-- Start/finish line -->
  <line x1="29.15" y1="216.76" x2="67.93" y2="206.97"
        stroke="#f5f5f5" stroke-width="9.6"
        stroke-linecap="round"/>
</svg>
