<?xml version="1.0" encoding="utf-8"?>
<svg xmlns="http://www.w3.org/2000/svg"
     width="800.0" height="645.0"
     viewBox="0 0 800.0 645.0">
  <rect width="100%" height="100%" fill="#1a1a2e"/>
  <!-- Track outline -->
  <polyline points="319.91,372.96 289.19,369.01 126.35,345.06 101.17,338.68 81.72,331.30 69.79,324.38 60.09,316.62 54.08,310.28 49.18,303.40 45.28,296.23 42.34,288.60 40.61,280.88 40.00,272.99 40.61,265.15 42.34,257.51 45.28,250.17 49.25,243.37 54.56,236.79 60.70,231.04 67.74,226.13 75.38,222.27 83.57,219.17 92.82,217.28 109.58,216.78 129.29,219.13 195.81,241.65 343.74,296.73 419.60,316.83 433.35,318.30 445.38,317.67 458.88,314.31 470.21,309.65 473.92,307.18 476.86,304.49 479.61,301.64 482.21,298.08 485.98,290.44 488.86,282.34 489.66,278.15 489.88,274.25 489.79,270.18 489.28,266.11 488.35,262.04 487.07,258.01 485.60,253.99 483.26,249.88 478.75,244.38 472.38,238.51 463.20,232.51 368.22,202.05 254.42,172.06 150.82,139.21 141.29,135.06 133.74,130.40 124.11,122.22 115.76,112.91 111.34,105.82 108.24,98.90 106.83,94.07 106.07,89.42 105.68,84.89 105.78,80.40 106.35,76.03 107.38,71.80 108.91,67.60 110.86,63.58 113.17,59.59 116.21,55.82 123.37,50.07 131.82,45.20 139.43,42.10 147.66,40.34 159.69,40.00 173.15,41.97 214.33,58.42 394.61,129.06 511.29,175.50 528.60,185.31 542.38,195.68 554.77,207.80 565.45,221.48 573.29,235.11 579.98,250.88 587.33,279.28 595.20,307.01 600.26,316.95 605.89,325.26 612.45,332.77 621.25,340.70 631.32,347.53 642.81,353.20 673.88,359.20 703.82,363.60 715.34,367.75 725.16,373.33 732.65,378.96 739.91,385.71 746.21,393.43 751.20,402.20 755.30,411.89 758.18,421.53 760.00,433.45 759.94,445.74 757.41,462.06 752.42,479.68 737.57,521.67 730.05,542.01 723.11,557.58 713.64,572.68 701.04,585.14 689.65,594.28 686.48,596.42 683.12,598.02 671.00,602.13 656.09,605.02 640.06,604.98 621.66,601.96 579.53,588.37 537.27,571.21 517.01,562.11 500.60,552.54 490.46,543.86 483.01,535.34 480.45,531.19 478.69,527.21 477.34,523.31 476.48,519.36 476.19,515.59 476.38,511.81 477.15,508.12 478.43,504.60 480.16,501.11 482.59,497.72 489.05,491.97 496.15,487.19 499.90,485.38 503.48,484.25 507.29,483.33 511.16,482.82 514.81,482.61 519.22,482.99 558.76,495.03 582.60,501.74 596.93,502.33 609.35,501.03 613.31,499.69 616.54,497.84 619.74,495.62 622.69,492.93 625.41,489.79 627.84,486.26 630.11,482.36 631.93,477.83 633.05,473.09 633.76,467.76 633.82,462.48 632.25,454.21 629.66,446.75 627.87,442.64 625.31,438.78 620.26,432.69 613.38,425.98 604.71,419.90 574.06,408.95 532.11,400.27 319.91,372.96"
        fill="none"
        stroke="#e94560"
        stroke-width="8.0"
        stroke-linejoin="round"
        stroke-linecap="round"/>
  <!-- Start/finish line -->
  <line x1="317.35" y1="392.79" x2="322.46" y2="353.12"
        stroke="#f5f5f5" stroke-width="9.6"
        stroke-linecap="round"/>
</svg>
