<?xml version="1.0" encoding="utf-8"?>
<svg xmlns="http://www.w3.org/2000/svg"
     width="720.1" height="800.0"
     viewBox="0 0 720.1 800.0">
  <rect width="100%" height="100%" fill="#1a1a2e"/>
  <!-- Track outline -->
  <polyline points="162.36,278.69 93.96,377.38 68.57,421.07 49.57,462.11 42.88,485.51 40.00,509.13 41.15,544.20 46.58,579.32 54.09,605.54 64.50,629.66 79.67,655.02 97.76,678.19 119.05,699.26 141.89,717.31 164.16,731.73 187.36,743.26 215.11,752.48 240.30,758.27 249.86,759.77 259.76,760.00 293.27,757.04 328.85,750.51 346.08,744.54 362.23,736.65 385.10,723.88 408.56,707.42 431.10,686.58 456.75,657.25 649.15,388.19 660.98,366.85 669.76,344.64 675.59,320.15 678.77,296.34 680.08,270.16 677.72,242.53 673.56,217.99 667.79,198.11 639.16,140.97 633.23,131.25 626.42,122.45 601.62,97.78 575.15,75.25 555.55,63.53 531.93,53.32 503.96,46.34 473.72,41.46 452.00,40.00 430.25,41.14 398.70,47.25 370.62,55.37 353.49,63.17 335.70,73.25 315.68,87.11 291.08,109.04 264.25,138.09 164.43,275.73 162.36,278.69"
        fill="none"
        stroke="#e94560"
        stroke-width="8.0"
        stroke-linejoin="round"
        stroke-linecap="round"/>
  <!-- Start/finish line -->
  <line x1="178.80" y1="290.09" x2="145.92" y2="267.30"
        stroke="#f5f5f5" stroke-width="9.6"
        stroke-linecap="round"/>
</svg>
