<?xml version="1.0" encoding="utf-8"?>
<svg xmlns="http://www.w3.org/2000/svg"
     width="800.0" height="618.1"
     viewBox="0 0 800.0 618.1">
  <rect width="100%" height="100%" fill="#1a1a2e"/>
  <!-- Track outline -->
  <polyline points="482.95,514.67 581.60,477.97 649.33,443.15 677.01,423.76 701.94,400.41 724.25,369.06 742.16,334.63 753.06,305.90 759.48,276.57 760.00,245.21 757.05,216.08 754.37,200.45 749.93,185.36 737.80,156.77 723.81,130.26 716.79,119.63 708.88,110.43 691.34,93.96 671.01,78.48 651.64,67.20 630.75,58.15 600.22,48.85 571.53,42.52 548.47,40.00 527.95,41.04 507.16,43.66 481.34,49.99 165.60,148.22 148.10,156.87 134.40,166.67 109.55,189.27 85.82,216.13 70.04,238.88 57.39,262.87 48.10,286.61 41.94,312.33 40.00,348.68 41.27,381.37 42.05,391.16 43.96,400.46 53.17,427.07 64.51,452.79 69.55,461.35 75.56,469.21 93.81,490.78 117.05,513.73 147.50,535.78 179.48,553.89 205.37,564.67 230.93,571.99 255.82,576.64 281.04,578.12 309.59,575.01 336.68,569.17 370.19,557.99 482.95,514.67"
        fill="none"
        stroke="#e94560"
        stroke-width="8.0"
        stroke-linejoin="round"
        stroke-linecap="round"/>
  <!-- Start/finish line -->
  <line x1="475.87" y1="495.96" x2="490.03" y2="533.37"
        stroke="#f5f5f5" stroke-width="9.6"
        stroke-linecap="round"/>
</svg>
