<?xml version="1.0" encoding="utf-8"?>
<svg xmlns="http://www.w3.org/2000/svg"
     width="713.2" height="800.0"
     viewBox="0 0 713.2 800.0">
  <rect width="100%" height="100%" fill="#1a1a2e"/>
  <!-- Track outline -->
  <polyline points="566.59,113.30 595.06,129.13 613.47,142.11 633.69,160.93 642.50,171.32 650.33,182.35 656.99,194.09 662.58,206.37 667.22,219.40 670.62,232.53 672.46,243.87 673.24,255.20 671.93,279.72 667.75,305.53 653.31,354.36 644.35,375.23 633.65,394.06 624.55,405.99 616.09,415.43 607.06,422.52 600.44,426.86 593.39,429.96 587.65,431.41 581.56,432.26 575.44,432.31 569.60,431.51 563.93,429.71 558.37,426.96 553.20,423.62 548.63,419.77 543.78,413.98 539.85,407.34 536.63,400.40 533.41,389.91 531.21,377.93 526.39,328.70 521.54,303.68 513.72,282.01 488.51,238.07 472.50,218.90 463.36,209.96 453.59,202.12 443.92,196.13 433.58,191.84 425.72,190.04 417.44,189.24 409.40,189.74 401.57,191.74 393.93,195.03 387.09,199.28 381.39,204.27 376.43,210.16 372.32,216.65 369.00,223.99 366.59,231.93 364.96,240.02 364.22,252.26 364.92,264.49 368.82,287.46 396.90,379.63 399.52,391.61 400.48,401.95 400.30,410.19 399.34,418.62 397.25,426.61 393.89,434.20 389.39,441.39 384.08,447.68 377.99,452.83 371.12,457.12 363.86,460.37 352.46,462.81 340.67,463.41 317.97,461.46 281.96,455.77 245.63,451.83 236.35,452.38 228.49,453.78 221.16,456.17 214.04,459.52 207.42,463.81 201.82,469.00 198.32,473.70 195.31,479.04 193.08,484.73 191.84,490.42 191.80,496.47 192.87,502.81 194.74,509.00 197.15,514.79 204.06,524.93 212.70,533.86 221.65,541.55 231.43,548.49 254.62,561.73 287.59,574.51 321.33,584.99 347.71,589.24 372.64,589.89 395.55,587.74 441.52,576.50 454.09,574.96 465.67,575.16 473.99,576.70 482.27,579.25 489.96,582.65 496.72,586.74 502.95,591.63 508.55,597.18 516.02,607.36 521.90,618.60 525.79,629.38 528.41,640.47 530.11,652.10 530.64,663.93 530.04,675.87 528.17,687.70 524.87,699.28 520.27,710.42 514.39,720.90 507.27,730.54 499.02,739.18 489.71,746.62 479.41,752.56 468.29,756.90 456.50,759.25 444.24,760.00 431.50,759.45 417.76,757.45 371.76,745.52 124.35,641.41 102.82,629.93 83.80,616.85 73.82,608.16 64.65,598.37 57.14,587.79 51.01,576.40 46.41,563.92 43.19,551.09 40.21,527.72 40.00,502.76 46.34,452.53 51.23,430.61 58.73,405.29 68.01,382.72 80.83,360.45 87.52,351.22 95.06,342.78 104.45,334.64 114.86,327.75 126.22,322.76 138.09,318.81 154.73,314.32 172.58,309.43 187.52,304.63 198.25,299.04 205.61,290.20 212.94,278.42 218.64,266.09 223.39,255.40 227.43,242.77 242.58,173.61 259.26,128.23 270.38,106.76 283.45,86.79 291.13,77.80 299.52,69.61 308.62,62.32 318.32,55.98 328.63,50.59 339.39,46.24 350.58,43.00 362.09,40.90 373.99,40.00 386.10,40.20 412.34,44.19 434.68,50.44 530.71,93.33 566.59,113.30"
        fill="none"
        stroke="#e94560"
        stroke-width="8.0"
        stroke-linejoin="round"
        stroke-linecap="round"/>
  <!-- Start/finish line -->
  <line x1="576.31" y1="95.82" x2="556.86" y2="130.77"
        stroke="#f5f5f5" stroke-width="9.6"
        stroke-linecap="round"/>
</svg>
