<?xml version="1.0" encoding="utf-8"?>
<svg xmlns="http://www.w3.org/2000/svg"
     width="749.3" height="800.0"
     viewBox="0 0 749.3 800.0">
  <rect width="100%" height="100%" fill="#1a1a2e"/>
  <!-- Track outline -->
  <polyline points="404.15,155.57 349.30,177.88 289.32,204.20 192.37,249.30 167.47,263.88 146.11,280.00 123.80,301.94 103.39,326.75 85.46,353.07 69.95,381.36 56.56,412.46 46.62,444.38 41.59,473.65 40.00,501.28 41.08,519.91 44.49,538.03 62.87,587.77 98.46,672.78 116.41,709.94 132.98,739.19 139.11,746.96 145.21,752.32 150.03,755.39 155.18,757.80 160.44,759.36 165.78,760.00 171.24,759.83 176.42,758.78 181.19,756.87 185.70,754.17 189.57,750.78 192.65,746.84 195.11,742.26 196.80,737.42 197.65,732.43 197.70,727.16 196.96,721.62 193.29,710.52 186.67,697.51 133.98,619.39 120.95,592.43 117.29,581.13 114.85,569.39 113.49,554.03 113.82,537.39 116.57,516.55 121.39,494.93 137.39,448.75 156.60,412.67 180.62,381.74 214.44,350.84 248.60,326.64 280.78,307.42 290.34,303.51 298.76,301.74 304.96,301.30 311.24,301.59 317.04,302.58 321.45,304.03 325.53,306.00 329.32,308.43 332.91,311.28 336.22,314.55 339.22,318.41 342.40,323.83 345.14,330.03 347.12,336.52 348.45,347.19 348.12,357.83 346.58,366.41 343.86,374.46 339.96,382.46 334.76,390.09 326.42,398.75 315.81,407.45 293.52,421.48 270.70,436.38 257.27,448.81 246.68,461.39 240.83,470.70 236.60,480.49 233.24,492.96 231.65,506.41 232.27,521.68 235.24,537.48 241.86,556.43 250.70,574.20 259.19,586.72 269.06,597.39 281.86,607.36 295.24,614.90 301.83,617.45 308.27,619.07 314.71,619.83 321.09,619.71 327.47,618.72 334.12,616.90 346.83,611.54 361.27,602.64 398.20,571.88 433.79,537.16 447.45,521.39 457.69,506.23 464.81,491.57 469.87,475.71 473.05,455.28 474.28,431.77 471.30,344.72 472.99,324.12 476.35,305.74 481.89,286.72 489.17,268.46 497.97,251.28 508.12,235.36 518.77,221.86 530.92,209.54 566.00,184.64 632.18,147.19 691.70,111.10 697.59,105.68 701.54,100.96 704.59,95.97 706.77,91.13 708.24,86.12 709.06,81.01 709.26,75.83 708.83,70.61 707.67,65.62 705.65,60.84 702.85,56.35 699.52,52.38 695.31,48.81 690.47,45.86 685.39,43.48 680.00,41.62 674.36,40.43 668.47,40.00 658.95,40.93 646.31,44.61 404.15,155.57"
        fill="none"
        stroke="#e94560"
        stroke-width="8.0"
        stroke-linejoin="round"
        stroke-linecap="round"/>
  <!-- Start/finish line -->
  <line x1="412.33" y1="173.81" x2="395.96" y2="137.32"
        stroke="#f5f5f5" stroke-width="9.6"
        stroke-linecap="round"/>
</svg>
