<?xml version="1.0" encoding="utf-8"?>
<svg xmlns="http://www.w3.org/2000/svg"
     width="800.0" height="367.2"
     viewBox="0 0 800.0 367.2">
  <rect width="100%" height="100%" fill="#1a1a2e"/>
  <!-- Track outline -->
  <polyline points="395.12,118.23 491.66,178.50 492.37,179.18 492.78,179.72 493.64,181.06 494.42,182.82 494.94,184.67 495.12,186.33 495.05,187.94 494.69,189.44 494.11,190.86 493.34,192.10 492.23,193.43 482.44,202.05 473.33,209.27 467.29,214.95 465.87,216.97 464.28,219.82 462.76,223.84 462.57,225.04 462.32,229.32 462.48,233.99 463.75,238.77 464.80,243.90 465.01,248.72 464.80,253.46 463.74,258.01 462.46,262.56 460.61,266.66 458.37,270.60 456.69,272.71 454.87,274.57 450.08,278.88 444.60,282.61 437.72,286.80 429.47,291.08 417.53,294.96 409.29,297.26 401.49,298.41 393.55,298.88 384.92,298.51 377.80,297.93 370.58,296.53 356.72,292.46 337.03,282.42 267.59,240.53 258.49,234.69 248.12,228.28 238.80,223.49 229.15,220.54 225.19,219.88 220.44,219.87 215.86,220.34 210.15,221.73 205.01,223.36 199.51,226.03 194.83,228.94 182.26,238.85 177.94,241.30 173.81,242.74 168.61,244.04 162.54,244.34 157.58,244.15 152.70,243.35 147.38,241.49 143.00,239.57 139.16,237.22 136.45,235.11 122.72,221.43 117.96,217.86 113.37,215.10 105.63,211.87 101.32,210.72 97.48,210.48 93.50,210.78 73.97,215.23 67.82,217.34 63.55,219.52 59.32,222.18 51.51,228.94 48.84,232.16 45.54,237.53 42.55,243.25 41.24,247.00 40.00,252.91 40.05,258.83 40.55,264.50 41.48,268.30 42.72,271.75 43.59,273.27 44.63,274.60 48.84,278.83 49.19,279.09 49.59,279.30 52.69,280.56 55.89,281.65 56.37,281.76 56.84,281.79 60.60,281.54 73.61,279.31 78.74,279.08 88.96,279.26 94.16,279.64 108.16,282.23 113.45,283.66 146.67,291.31 159.31,293.25 165.86,293.68 242.90,291.67 284.40,290.10 290.65,290.34 301.53,291.16 305.99,292.02 310.28,293.19 378.86,317.21 398.13,322.58 414.90,325.45 442.69,327.22 453.54,326.76 473.64,324.65 489.41,321.44 500.93,317.95 521.85,310.58 609.12,277.30 647.12,260.78 660.99,253.49 684.38,240.47 715.16,220.15 716.63,218.76 717.45,217.70 717.71,217.23 717.89,216.70 718.45,214.55 718.75,211.96 718.56,210.32 718.14,208.69 717.63,207.32 717.05,206.30 716.41,205.50 715.92,204.99 715.34,204.50 712.20,202.36 697.91,193.59 694.49,190.35 691.26,186.75 689.32,183.33 688.59,181.59 688.03,179.73 687.38,174.74 687.38,170.68 687.94,166.61 688.49,164.59 689.23,162.63 690.20,160.76 692.85,156.89 694.09,155.51 695.22,154.47 696.04,153.93 699.26,152.29 700.88,151.74 703.75,151.37 707.53,151.28 728.61,151.75 731.38,151.45 733.69,150.92 736.31,150.01 738.53,149.01 739.98,148.06 742.75,145.84 745.82,142.88 748.50,138.53 758.24,121.40 759.42,118.39 759.84,116.86 760.00,115.45 759.96,115.04 759.86,114.66 759.73,114.31 759.54,113.98 759.10,113.49 758.54,113.05 758.01,112.68 757.56,112.42 757.02,112.20 754.55,111.54 751.91,110.76 750.90,110.25 750.07,109.62 749.34,108.81 748.66,107.88 748.27,107.05 748.62,104.61 749.44,102.03 753.86,85.24 757.43,68.84 757.36,67.70 757.15,66.91 756.99,66.28 756.71,65.66 756.13,64.85 755.35,63.96 754.48,63.18 752.84,62.28 751.19,61.64 749.42,61.15 747.29,60.89 660.89,58.59 552.92,53.90 436.63,50.90 319.32,46.92 207.48,41.81 128.82,40.00 127.91,40.26 127.39,40.55 126.88,40.93 126.12,41.53 125.37,42.24 124.75,43.06 124.24,44.08 123.86,45.20 123.62,46.27 123.52,46.99 123.51,47.68 123.69,48.43 124.65,50.05 126.17,51.88 127.82,53.75 133.85,60.32 137.59,63.49 167.11,83.73 176.65,89.02 183.17,91.67 189.53,93.33 201.69,94.70 207.04,94.63 211.29,93.90 216.18,92.45 254.41,77.03 262.38,75.45 271.40,74.10 281.32,73.50 289.52,73.66 298.69,74.35 316.68,76.47 325.33,79.12 333.97,82.52 344.42,87.13 353.18,91.73 395.12,118.23 395.12,118.23"
        fill="none"
        stroke="#e94560"
        stroke-width="8.0"
        stroke-linejoin="round"
        stroke-linecap="round"/>
  <!-- Start/finish line -->
  <line x1="405.72" y1="101.26" x2="384.53" y2="135.19"
        stroke="#f5f5f5" stroke-width="9.6"
        stroke-linecap="round"/>
</svg>
