<?xml version="1.0" encoding="utf-8"?>
<svg xmlns="http://www.w3.org/2000/svg"
     width="800.0" height="784.3"
     viewBox="0 0 800.0 784.3">
  <rect width="100%" height="100%" fill="#1a1a2e"/>
  <!-- Track outline -->
  <polyline points="241.95,72.83 492.50,41.62 516.88,40.00 534.36,40.84 547.00,43.40 552.72,45.31 558.16,47.75 563.08,50.70 567.48,54.06 570.38,56.88 572.91,60.11 575.54,64.58 577.83,69.79 581.73,84.42 592.06,141.95 609.25,191.70 629.60,238.63 641.35,271.80 644.39,287.01 645.09,301.44 644.88,304.92 643.64,311.81 641.16,318.68 637.53,325.55 538.54,452.21 499.84,501.68 479.76,524.38 462.56,540.00 441.09,555.80 426.44,564.46 418.80,567.35 410.82,568.87 389.97,569.66 372.85,568.43 359.95,565.99 346.88,561.76 324.35,551.06 230.56,502.60 219.87,498.20 211.55,495.70 205.92,494.73 200.77,494.59 196.09,495.17 191.83,496.39 189.82,497.28 187.98,498.35 186.35,499.68 184.99,501.18 183.81,502.91 182.85,504.81 181.81,507.97 181.28,511.51 181.28,516.28 182.11,521.61 185.27,530.35 189.92,540.27 207.48,573.66 224.96,613.81 251.31,674.08 268.49,702.89 275.02,711.44 281.90,718.81 290.62,726.33 299.77,732.68 307.60,736.91 315.73,740.08 325.88,742.70 336.21,744.14 344.92,744.30 353.63,743.41 364.08,741.19 374.41,737.86 382.98,734.04 391.29,729.23 400.50,722.71 410.14,714.38 440.20,680.73 522.19,574.82 619.50,454.17 680.51,376.60 741.83,299.07 755.10,276.32 757.73,269.86 759.36,263.77 760.00,258.25 759.87,253.02 759.11,249.00 757.75,245.25 755.36,241.02 752.32,237.18 748.59,233.80 744.38,231.05 739.29,228.76 733.81,227.17 727.80,226.17 721.14,225.96 710.10,226.97 697.70,229.43 664.51,241.27 587.89,282.07 534.41,310.05 499.07,326.37 479.66,333.62 465.21,337.19 451.68,338.55 445.29,338.27 439.03,337.37 433.14,335.85 427.47,333.78 422.21,331.31 417.40,328.44 414.03,325.88 410.87,322.87 403.00,312.86 394.12,297.42 383.89,272.83 379.00,256.39 377.13,243.07 377.10,236.58 377.71,230.27 378.95,224.62 380.74,219.24 383.11,213.84 385.86,208.93 388.41,205.29 391.20,202.13 394.39,199.27 397.98,196.72 403.09,193.81 408.83,191.18 424.40,186.19 443.08,183.43 490.06,178.83 498.70,176.72 505.80,174.13 511.22,171.49 516.13,168.37 520.46,164.92 524.33,160.99 527.43,156.92 530.00,152.29 532.12,146.48 533.50,140.22 533.97,133.92 533.62,127.59 532.34,121.20 530.35,115.24 527.98,110.52 525.13,106.32 521.64,102.32 517.73,98.78 513.33,95.55 508.30,92.76 500.10,89.60 490.76,87.24 479.03,85.72 466.08,85.40 428.41,89.56 380.61,101.43 342.79,117.63 313.51,136.35 288.11,159.65 253.49,199.72 241.11,211.31 227.83,220.43 213.71,227.19 198.95,231.31 183.86,233.16 168.76,232.77 153.99,229.88 139.01,224.68 123.64,216.41 97.32,197.76 67.23,173.60 54.85,161.46 47.80,152.10 45.30,147.47 43.25,142.65 41.56,137.62 40.42,132.69 40.00,129.21 40.11,125.84 41.12,121.86 42.72,117.88 44.83,113.55 47.29,109.57 49.62,106.69 52.27,104.16 56.26,101.19 60.76,98.61 65.63,96.60 71.36,94.87 100.26,88.58 136.13,84.46 238.64,73.24 241.95,72.83"
        fill="none"
        stroke="#e94560"
        stroke-width="8.0"
        stroke-linejoin="round"
        stroke-linecap="round"/>
  <!-- Start/finish line -->
  <line x1="239.48" y1="52.98" x2="244.42" y2="92.68"
        stroke="#f5f5f5" stroke-width="9.6"
        stroke-linecap="round"/>
</svg>
