<?xml version="1.0" encoding="utf-8"?>
<svg xmlns="http://www.w3.org/2000/svg"
     width="800.0" height="686.2"
     viewBox="0 0 800.0 686.2">
  <rect width="100%" height="100%" fill="#1a1a2e"/>
  <!-- Track outline -->
  <polyline points="127.85,152.75 82.42,197.43 62.42,226.11 53.20,242.69 45.82,259.85 41.63,275.64 40.00,291.86 41.90,311.20 46.86,330.31 53.99,346.46 63.14,361.67 75.04,377.75 88.37,392.81 116.02,417.86 280.15,581.52 295.45,593.91 309.50,602.02 321.14,606.80 333.43,610.34 345.58,612.08 357.02,611.94 368.33,610.06 379.12,606.51 390.03,600.50 400.29,592.60 408.86,583.55 415.20,573.92 419.97,563.20 423.04,552.27 424.22,541.19 423.76,529.82 421.54,518.81 417.22,507.73 411.14,497.01 403.95,487.31 391.21,475.29 376.96,464.93 362.12,456.17 347.28,447.19 332.97,435.32 320.03,421.77 308.98,406.86 299.70,390.78 292.11,373.84 286.36,356.31 282.77,339.22 280.94,321.91 280.22,303.95 282.05,286.29 284.40,277.45 287.60,268.62 291.72,260.43 297.02,253.55 303.68,248.12 311.66,243.70 320.22,240.52 328.78,238.71 340.81,238.78 353.17,241.24 364.74,245.23 378.00,252.61 391.93,264.05 440.95,314.31 488.08,368.62 510.89,401.21 529.72,436.26 542.40,472.68 558.09,547.49 563.25,564.14 569.66,578.84 579.92,595.57 592.40,610.92 605.87,623.52 620.77,633.81 631.30,638.95 642.34,642.93 653.59,645.39 664.96,646.19 676.46,645.54 687.58,643.51 697.97,640.11 708.03,635.33 717.32,629.53 729.87,618.82 740.52,606.22 748.69,592.17 754.64,576.89 758.43,560.38 760.00,543.29 759.35,525.26 756.40,507.15 750.59,488.69 742.87,471.02 735.49,457.26 725.03,442.20 627.05,335.17 386.11,82.51 369.18,69.18 355.13,60.49 340.22,52.46 324.54,46.23 306.17,41.67 287.41,40.00 269.89,42.10 252.90,47.17 236.03,55.71 220.21,66.14 194.20,87.50 127.85,152.75"
        fill="none"
        stroke="#e94560"
        stroke-width="8.0"
        stroke-linejoin="round"
        stroke-linecap="round"/>
  <!-- Start/finish line -->
  <line x1="141.87" y1="167.01" x2="113.83" y2="138.49"
        stroke="#f5f5f5" stroke-width="9.6"
        stroke-linecap="round"/>
</svg>
