<?xml version="1.0" encoding="utf-8"?>
<svg xmlns="http://www.w3.org/2000/svg"
     width="778.5" height="800.0"
     viewBox="0 0 778.5 800.0">
  <rect width="100%" height="100%" fill="#1a1a2e"/>
  <!-- Track outline -->
  <polyline points="399.91,573.62 524.09,729.47 539.91,742.68 553.74,750.71 565.93,755.73 578.57,758.59 594.97,760.00 612.87,758.75 637.68,752.59 663.06,742.91 686.96,731.11 707.89,717.43 719.51,706.58 728.46,695.21 732.15,689.17 735.12,683.02 737.17,676.71 738.23,670.51 738.53,664.20 738.05,658.05 736.72,652.13 734.60,646.37 731.91,641.12 728.40,636.18 724.19,631.75 719.66,627.99 714.64,624.77 709.22,622.26 703.38,620.46 695.70,619.21 687.41,618.93 679.24,619.76 671.50,621.71 663.85,624.81 655.86,629.20 637.74,644.68 620.10,659.93 610.39,665.07 601.11,668.05 594.36,669.18 587.46,669.46 580.69,668.99 574.12,667.73 567.65,665.73 561.57,662.91 556.10,659.42 550.98,655.19 546.42,650.33 542.57,645.12 539.22,639.31 536.68,633.20 535.01,627.01 534.07,620.50 533.95,614.07 534.74,607.72 536.31,601.41 538.52,595.49 541.48,589.85 545.08,584.60 549.17,580.01 553.83,576.01 558.94,572.68 564.60,569.98 576.15,567.00 589.01,565.23 605.77,564.10 622.49,562.02 635.93,557.16 647.81,550.53 655.89,543.99 662.64,536.31 668.05,527.80 672.01,518.43 673.62,512.00 674.49,505.34 674.58,498.68 674.07,492.44 672.74,486.21 669.84,478.80 634.20,429.18 587.31,372.31 526.21,296.54 512.44,284.86 499.35,277.06 490.03,273.14 480.53,270.32 471.61,268.83 465.04,268.59 458.87,269.22 453.00,270.67 447.68,272.71 442.60,275.45 438.12,278.90 434.55,282.63 431.47,286.98 429.05,291.95 427.08,298.62 425.96,306.10 425.90,313.55 427.20,321.12 429.71,328.64 433.07,335.62 439.75,344.75 449.62,353.92 496.59,384.50 543.94,415.85 554.89,426.83 562.09,437.30 564.78,443.17 566.62,449.13 567.62,455.09 567.71,460.70 567.08,466.34 565.68,471.55 563.48,476.37 560.54,480.80 556.91,484.76 551.23,489.11 544.51,492.68 537.49,495.31 529.96,496.83 522.09,497.31 513.93,496.80 499.80,493.93 483.50,488.05 441.66,467.48 400.40,442.67 383.46,429.46 370.57,416.33 363.31,406.57 357.81,395.75 353.57,381.52 350.40,363.33 345.68,302.69 338.96,237.55 329.83,204.00 317.91,175.15 303.63,149.79 286.90,127.06 266.78,105.54 245.10,87.00 225.10,73.08 203.44,61.68 171.41,50.00 138.92,42.23 115.96,40.00 95.84,40.82 84.10,43.17 73.76,47.09 64.68,52.03 56.61,58.34 52.25,63.01 48.38,68.26 45.20,73.90 42.87,79.71 41.18,85.86 40.27,92.09 40.00,97.97 40.48,103.89 42.15,110.44 54.13,131.52 74.73,159.39 278.25,417.85 399.91,573.62"
        fill="none"
        stroke="#e94560"
        stroke-width="8.0"
        stroke-linejoin="round"
        stroke-linecap="round"/>
  <!-- Start/finish line -->
  <line x1="415.62" y1="561.23" x2="384.21" y2="586.01"
        stroke="#f5f5f5" stroke-width="9.6"
        stroke-linecap="round"/>
</svg>
