<?xml version="1.0" encoding="utf-8"?>
<svg xmlns="http://www.w3.org/2000/svg"
     width="309.0" height="800.0"
     viewBox="0 0 309.0 800.0">
  <rect width="100%" height="100%" fill="#1a1a2e"/>
  <!-- Track outline -->
  <polyline points="258.91,519.43 260.74,555.12 268.96,669.54 268.72,687.35 266.63,703.74 264.69,711.44 261.96,718.84 258.22,725.81 253.77,732.30 248.92,738.18 243.60,743.46 238.03,748.06 231.84,752.04 223.55,756.08 214.64,758.97 205.81,760.00 196.84,759.53 187.45,757.42 177.84,753.81 152.87,739.70 134.29,727.55 81.73,687.79 75.54,682.26 70.84,676.91 65.94,668.89 61.87,660.25 56.72,644.86 54.18,629.47 53.67,611.97 54.69,596.40 69.26,531.68 78.89,502.08 83.29,493.54 88.22,486.08 93.82,479.27 100.07,473.27 106.83,468.36 114.04,464.56 121.31,462.14 128.73,460.93 133.66,460.83 138.63,461.30 143.38,462.39 147.84,464.16 152.09,466.52 155.98,469.35 161.00,474.54 165.19,480.57 168.66,487.38 171.32,494.69 173.18,502.58 174.22,510.73 174.58,519.15 174.17,527.64 172.85,536.31 170.61,544.86 167.22,553.19 162.92,561.15 157.53,568.20 151.67,575.76 142.84,590.30 135.58,605.13 133.36,612.66 132.35,619.87 132.05,628.76 133.00,637.80 134.47,643.83 136.59,649.74 139.40,655.12 142.87,659.75 147.03,663.85 151.58,667.30 156.64,670.16 162.08,672.34 167.61,673.71 175.57,673.86 183.53,672.71 191.46,671.00 199.08,668.24 206.17,664.01 212.52,658.63 217.93,652.20 222.36,644.92 225.74,637.00 228.01,628.57 229.15,620.61 229.27,610.76 225.47,566.18 217.84,516.48 210.51,489.74 202.67,468.67 194.63,453.44 184.64,439.32 172.49,426.95 129.74,395.15 116.97,382.44 105.57,368.42 95.64,353.06 87.14,336.68 61.51,265.21 45.41,208.45 41.44,188.68 40.00,168.63 41.26,148.80 45.32,129.31 52.20,110.91 61.90,94.40 73.53,79.51 87.86,66.89 103.51,56.97 119.33,49.61 134.62,44.54 149.22,41.40 158.40,40.28 167.79,40.00 176.68,40.87 185.17,42.98 192.74,46.50 199.56,51.13 205.37,56.66 210.21,62.97 212.75,67.32 214.82,71.92 216.16,76.81 216.70,82.52 216.40,88.56 215.18,94.24 212.93,99.47 209.79,104.32 206.02,108.48 201.45,111.78 196.24,114.36 190.98,116.25 183.95,117.65 176.80,118.09 161.60,117.31 145.75,114.73 137.37,113.83 128.99,113.67 120.65,114.85 112.51,117.15 104.64,120.42 97.47,124.89 93.43,128.69 89.81,133.04 86.73,137.70 83.14,145.16 80.56,153.15 78.95,161.64 78.26,170.34 78.41,179.32 79.37,188.34 83.53,206.65 110.75,278.80 128.55,325.83 132.37,333.66 136.32,339.94 139.26,343.83 142.43,347.37 146.08,350.39 150.71,353.06 155.92,355.11 161.12,356.11 164.98,356.05 168.93,355.39 172.76,354.24 176.23,352.63 179.31,350.61 182.21,348.12 184.72,345.23 186.70,342.09 188.19,338.45 189.21,334.41 189.54,330.12 189.09,325.71 186.07,319.15 180.93,312.12 175.57,305.13 171.98,298.63 170.58,293.25 170.13,288.19 170.58,283.27 171.59,279.51 173.18,275.81 175.24,272.30 177.61,269.22 180.36,266.49 183.53,264.06 186.94,262.07 190.50,260.68 195.58,259.84 201.00,259.96 206.32,260.74 211.80,262.23 217.21,264.44 222.18,267.11 228.10,271.43 233.22,276.59 237.70,282.65 241.44,289.34 244.40,296.67 246.59,304.38 248.68,321.01 258.91,519.43"
        fill="none"
        stroke="#e94560"
        stroke-width="8.0"
        stroke-linejoin="round"
        stroke-linecap="round"/>
  <!-- Start/finish line -->
  <line x1="278.89" y1="518.40" x2="238.94" y2="520.46"
        stroke="#f5f5f5" stroke-width="9.6"
        stroke-linecap="round"/>
</svg>
