<?xml version="1.0" encoding="utf-8"?>
<svg xmlns="http://www.w3.org/2000/svg"
     width="800.0" height="440.0"
     viewBox="0 0 800.0 440.0">
  <rect width="100%" height="100%" fill="#1a1a2e"/>
  <!-- Track outline -->
  <polyline points="351.46,105.76 636.48,41.24 662.70,40.00 682.06,42.59 693.28,45.62 703.76,49.83 713.85,55.78 724.90,64.69 735.43,75.61 744.26,87.12 749.95,96.84 754.43,107.00 757.65,117.59 760.00,134.34 759.52,152.28 754.61,177.13 747.39,200.64 736.51,225.22 725.38,246.62 684.58,320.81 668.97,339.18 652.96,352.58 642.65,358.52 632.08,362.79 621.78,365.33 612.99,366.14 604.42,365.65 596.16,363.71 589.89,361.17 583.68,357.82 577.89,353.71 573.11,349.01 568.80,342.74 565.54,335.61 563.41,327.99 562.36,319.13 562.58,309.67 564.19,300.33 567.76,290.12 573.15,280.01 580.24,269.58 607.38,243.27 633.91,216.96 640.13,206.91 644.52,197.18 647.31,187.24 648.39,177.30 648.00,167.19 646.26,157.57 643.04,148.60 638.48,140.18 633.00,132.72 626.26,125.91 618.47,120.18 609.95,115.70 599.55,112.08 588.20,110.03 575.54,109.70 545.18,116.19 505.52,128.02 191.97,203.23 177.57,209.72 167.35,215.82 158.74,223.12 151.95,230.57 146.30,238.78 142.34,247.54 140.65,253.91 139.73,260.72 139.64,267.48 140.47,273.91 142.52,280.28 145.69,286.50 149.56,292.28 153.91,297.52 161.13,304.11 169.44,309.62 178.31,313.84 188.14,316.81 198.54,318.27 209.41,318.16 222.59,316.05 236.46,311.73 251.51,305.03 292.74,276.99 332.93,246.89 352.11,234.08 369.38,225.01 379.82,221.76 390.08,219.98 399.87,219.71 407.96,220.68 415.66,222.85 422.79,226.30 429.53,231.11 435.75,237.16 440.71,244.19 444.06,251.86 446.19,260.45 447.06,269.31 446.36,279.80 444.02,290.66 440.23,300.92 434.23,311.19 426.53,320.70 417.79,329.13 402.78,339.82 382.82,349.28 299.01,376.57 211.24,397.32 184.01,400.02 160.65,398.83 136.25,394.29 112.98,386.29 92.80,375.54 75.01,362.19 62.40,349.01 52.31,334.21 47.35,324.16 43.44,313.51 40.96,302.33 40.00,289.47 40.65,275.90 42.74,262.67 48.92,242.62 58.18,223.76 70.92,206.10 86.50,190.37 107.29,174.76 131.12,161.63 159.78,150.87 197.84,140.55 351.46,105.76"
        fill="none"
        stroke="#e94560"
        stroke-width="8.0"
        stroke-linejoin="round"
        stroke-linecap="round"/>
  <!-- Start/finish line -->
  <line x1="347.04" y1="86.25" x2="355.88" y2="125.26"
        stroke="#f5f5f5" stroke-width="9.6"
        stroke-linecap="round"/>
</svg>
