<?xml version="1.0" encoding="utf-8"?>
<svg xmlns="http://www.w3.org/2000/svg"
     width="355.2" height="800.0"
     viewBox="0 0 355.2 800.0">
  <rect width="100%" height="100%" fill="#1a1a2e"/>
  <!-- Track outline -->
  <polyline points="307.01,661.46 307.48,653.68 307.59,642.14 304.00,592.74 298.23,564.10 289.72,536.14 279.65,513.55 266.36,491.26 212.17,425.00 191.09,401.83 183.59,392.30 177.66,382.17 175.41,376.90 173.69,371.48 172.58,365.96 172.10,360.39 172.30,354.81 173.30,349.35 175.26,344.16 178.03,339.26 186.01,330.04 264.35,251.90 280.88,230.99 293.42,211.44 301.91,194.63 308.19,177.20 312.74,153.83 315.00,133.40 315.18,123.18 311.97,100.89 308.48,89.27 303.71,78.82 297.72,69.45 290.59,61.18 282.86,53.59 278.49,50.32 274.22,47.78 265.11,43.56 255.55,41.11 245.71,40.00 240.87,40.04 235.93,40.51 230.03,41.62 224.13,43.35 218.59,45.76 213.33,48.74 208.34,52.33 203.83,56.32 200.69,59.52 197.40,63.95 161.73,133.35 147.28,172.47 144.47,185.05 142.33,208.96 145.05,231.78 147.98,252.69 148.13,258.79 147.70,263.93 146.66,269.28 145.01,274.44 142.69,279.39 139.77,284.02 136.44,288.03 132.30,291.99 113.90,305.92 89.38,323.56 81.24,331.96 77.87,336.38 74.97,341.05 72.73,345.93 70.91,351.01 68.09,361.89 66.42,373.34 66.28,384.88 67.87,396.46 70.44,407.91 72.59,413.80 75.12,419.02 78.19,424.40 81.63,429.37 84.88,433.14 88.41,436.51 92.36,439.59 96.60,442.32 105.71,446.69 144.98,459.10 154.31,462.98 163.23,467.99 167.36,471.11 171.14,474.65 174.48,478.62 177.27,482.99 179.30,487.77 180.79,492.84 181.93,498.26 182.59,503.78 182.40,514.90 180.61,525.60 177.30,535.99 172.31,545.99 166.06,555.59 158.47,564.53 150.05,573.23 110.58,605.75 60.13,647.94 55.66,653.27 52.54,658.05 46.97,668.52 43.11,679.12 40.80,689.64 40.17,694.76 40.00,699.83 40.35,704.72 41.43,709.52 43.90,714.81 47.15,719.73 50.39,723.49 53.97,726.86 62.21,733.32 71.62,738.97 76.17,741.21 82.11,743.28 154.06,754.45 204.92,760.00 221.76,759.00 235.48,756.91 245.30,754.11 263.77,745.58 272.07,739.70 279.43,732.79 285.79,724.89 296.29,706.62 303.84,685.44 306.26,673.83 307.01,661.46"
        fill="none"
        stroke="#e94560"
        stroke-width="8.0"
        stroke-linejoin="round"
        stroke-linecap="round"/>
  <!-- Start/finish line -->
  <line x1="287.05" y1="660.26" x2="326.98" y2="662.67"
        stroke="#f5f5f5" stroke-width="9.6"
        stroke-linecap="round"/>
</svg>
