<?xml version="1.0" encoding="utf-8"?>
<svg xmlns="http://www.w3.org/2000/svg"
     width="534.3" height="800.0"
     viewBox="0 0 534.3 800.0">
  <rect width="100%" height="100%" fill="#1a1a2e"/>
  <!-- Track outline -->
  <polyline points="331.75,647.56 299.42,650.74 287.52,654.09 276.45,658.36 256.52,668.37 237.88,681.82 183.92,736.10 170.79,745.54 157.52,752.46 151.06,755.15 143.83,757.27 130.40,759.38 116.07,760.00 104.24,758.63 93.32,755.77 84.80,751.98 77.08,747.12 69.97,741.44 63.47,734.69 56.66,724.86 51.14,714.89 46.54,703.78 42.36,688.30 40.00,667.05 45.36,236.39 42.51,140.05 43.92,73.38 46.28,65.00 49.17,58.96 52.74,53.76 56.54,49.26 60.88,45.42 65.82,42.60 70.58,41.06 75.90,40.22 81.34,40.00 86.40,40.53 90.81,41.68 95.03,43.48 99.03,45.86 102.75,48.73 108.00,54.64 112.57,61.74 116.10,68.66 118.46,75.58 119.79,82.64 121.16,101.33 104.08,293.76 105.04,331.99 110.66,366.25 117.59,395.35 119.49,400.29 122.00,404.74 146.19,440.50 172.20,473.00 179.28,486.71 184.94,501.61 191.94,528.82 200.99,556.29 205.71,563.61 210.88,569.38 216.17,574.28 222.63,579.17 229.71,582.79 236.21,584.86 243.28,586.18 250.40,586.54 257.47,585.74 264.51,583.89 271.24,581.20 277.74,577.54 283.83,573.00 289.42,567.44 295.24,559.77 300.33,550.78 304.36,540.68 308.40,517.22 309.31,493.15 306.46,462.90 300.07,432.56 291.24,405.58 286.11,393.28 279.42,380.89 266.60,363.07 249.60,344.77 215.71,320.57 184.79,298.65 177.41,290.36 172.16,281.72 165.39,266.24 160.64,250.02 159.31,239.17 159.46,228.85 160.75,218.62 163.23,208.83 166.50,200.37 170.72,192.61 173.91,188.11 177.49,183.96 181.67,180.30 187.26,176.69 193.54,173.74 199.77,171.93 205.06,171.57 210.35,172.19 215.52,173.51 221.30,175.90 226.97,179.03 231.49,182.11 233.85,184.27 236.21,187.05 253.82,209.76 272.30,232.16 275.50,234.67 279.15,236.70 339.73,267.48 360.80,283.26 381.80,303.02 447.02,382.69 463.34,406.33 476.04,428.95 485.02,450.86 491.10,472.60 493.88,491.25 494.34,509.59 492.55,528.07 488.56,546.15 482.47,563.48 474.33,579.79 464.52,594.30 452.46,607.48 435.50,620.58 416.26,631.29 396.40,638.52 374.34,643.42 331.75,647.56"
        fill="none"
        stroke="#e94560"
        stroke-width="8.0"
        stroke-linejoin="round"
        stroke-linecap="round"/>
  <!-- Start/finish line -->
  <line x1="333.69" y1="667.47" x2="329.80" y2="627.66"
        stroke="#f5f5f5" stroke-width="9.6"
        stroke-linecap="round"/>
</svg>
