<?xml version="1.0" encoding="utf-8"?>
<svg xmlns="http://www.w3.org/2000/svg"
     width="800.0" height="539.1"
     viewBox="0 0 800.0 539.1">
  <rect width="100%" height="100%" fill="#1a1a2e"/>
  <!-- Track outline -->
  <polyline points="317.92,464.27 384.38,457.63 408.61,457.27 550.90,468.94 647.64,461.40 669.17,455.92 678.76,452.33 688.12,447.80 698.79,441.06 708.85,433.43 723.77,418.93 736.84,402.95 743.43,392.81 749.14,381.86 753.42,370.19 756.54,358.29 759.84,336.88 760.00,312.60 758.86,301.33 756.17,288.72 744.48,255.41 730.35,222.78 717.09,200.78 697.37,175.20 672.13,147.68 636.88,118.37 604.41,95.30 586.15,85.29 574.78,80.04 560.68,75.37 471.18,64.69 445.01,60.60 368.02,41.48 354.57,40.00 342.90,40.09 331.13,41.53 319.74,44.04 309.35,47.14 299.22,51.18 287.95,56.88 277.42,63.75 269.11,71.11 262.34,79.55 258.76,86.01 255.99,93.01 254.54,100.19 254.47,105.85 255.19,111.73 256.64,117.52 258.79,122.86 263.01,129.46 268.50,135.47 274.55,140.64 283.98,146.38 294.39,150.65 306.71,153.92 319.44,155.99 342.99,157.24 460.39,144.27 482.41,142.79 503.21,143.15 529.05,146.20 553.63,152.35 577.79,161.51 601.44,174.62 622.34,190.01 639.70,207.25 653.41,224.98 658.89,234.63 663.21,244.86 666.22,256.53 667.72,268.47 668.30,273.91 668.82,279.29 668.44,284.59 666.36,289.71 656.19,298.73 640.01,307.62 622.50,315.52 608.33,321.62 587.86,328.98 497.44,349.23 473.19,352.95 447.20,354.79 420.26,353.31 393.51,349.00 259.95,308.56 170.33,294.55 149.18,294.37 124.11,297.25 112.42,300.61 101.23,305.15 90.66,310.76 80.83,317.45 72.10,324.94 64.26,333.34 57.32,342.63 51.44,352.59 46.72,363.10 43.20,373.91 40.93,384.15 40.00,394.56 40.86,406.23 43.20,418.04 46.91,430.34 51.81,442.05 57.18,451.66 63.37,460.41 70.18,468.36 77.77,475.54 86.04,481.78 95.16,487.16 106.56,492.06 118.63,495.78 129.71,498.11 142.41,499.15 173.86,497.58 209.55,493.13 290.70,468.58 317.92,464.27"
        fill="none"
        stroke="#e94560"
        stroke-width="8.0"
        stroke-linejoin="round"
        stroke-linecap="round"/>
  <!-- Start/finish line -->
  <line x1="315.60" y1="444.41" x2="320.24" y2="484.14"
        stroke="#f5f5f5" stroke-width="9.6"
        stroke-linecap="round"/>
</svg>
