<?xml version="1.0" encoding="utf-8"?>
<svg xmlns="http://www.w3.org/2000/svg"
     width="544.6" height="800.0"
     viewBox="0 0 544.6 800.0">
  <rect width="100%" height="100%" fill="#1a1a2e"/>
  <!-- Track outline -->
  <polyline points="473.47,488.43 498.71,387.61 503.94,339.12 504.55,295.48 496.80,229.35 491.07,207.25 461.76,140.92 449.06,121.58 417.66,88.15 399.38,73.82 373.74,59.10 345.65,46.37 328.56,41.89 311.65,40.00 289.19,40.49 267.88,42.92 245.81,48.21 224.03,57.64 213.83,62.89 203.45,69.64 186.90,84.12 170.71,102.00 144.42,145.83 115.14,204.57 57.31,370.17 40.00,470.26 40.65,542.08 44.29,567.29 50.93,592.90 68.12,630.70 87.88,667.29 103.64,688.72 139.91,724.72 158.92,738.52 173.84,747.08 190.50,754.17 210.37,758.40 228.29,760.00 234.71,759.81 240.40,758.88 246.75,757.52 254.07,755.09 297.55,732.74 358.38,691.00 375.11,673.80 392.63,652.18 423.90,618.85 438.82,593.82 450.58,569.48 458.76,547.27 473.47,488.43"
        fill="none"
        stroke="#e94560"
        stroke-width="8.0"
        stroke-linejoin="round"
        stroke-linecap="round"/>
  <!-- Start/finish line -->
  <line x1="454.07" y1="483.58" x2="492.88" y2="493.29"
        stroke="#f5f5f5" stroke-width="9.6"
        stroke-linecap="round"/>
</svg>
