<?xml version="1.0" encoding="utf-8"?>
<svg xmlns="http://www.w3.org/2000/svg"
     width="800.0" height="456.3"
     viewBox="0 0 800.0 456.3">
  <rect width="100%" height="100%" fill="#1a1a2e"/>
  <!-- Track outline -->
  <polyline points="364.08,416.27 505.76,413.25 614.19,398.88 648.57,388.30 677.46,376.02 692.44,368.08 706.00,358.44 718.48,347.57 731.18,334.63 741.81,319.70 749.94,302.50 756.08,283.22 759.64,262.63 760.00,236.07 757.00,207.72 751.65,182.02 745.80,164.07 738.24,148.01 728.54,132.79 701.36,104.44 671.33,81.48 652.14,70.90 633.02,63.43 611.48,56.25 586.15,50.58 525.23,42.55 450.11,40.00 317.86,52.47 195.66,74.02 154.99,86.40 124.53,99.25 110.55,106.52 98.71,114.46 87.80,123.15 77.45,133.74 64.33,152.07 53.27,171.63 48.56,182.87 45.35,195.16 41.28,220.10 40.00,247.41 43.35,272.92 49.35,295.51 54.27,307.41 60.12,317.62 67.25,327.54 75.31,336.61 83.66,345.02 94.14,353.53 127.74,374.41 164.41,393.59 182.89,401.43 200.86,406.92 253.30,413.81 364.08,416.27"
        fill="none"
        stroke="#e94560"
        stroke-width="8.0"
        stroke-linejoin="round"
        stroke-linecap="round"/>
  <!-- Start/finish line -->
  <line x1="364.04" y1="396.27" x2="364.13" y2="436.27"
        stroke="#f5f5f5" stroke-width="9.6"
        stroke-linecap="round"/>
</svg>
