<?xml version="1.0" encoding="utf-8"?>
<svg xmlns="http://www.w3.org/2000/svg"
     width="800.0" height="585.6"
     viewBox="0 0 800.0 585.6">
  <rect width="100%" height="100%" fill="#1a1a2e"/>
  <!-- Track outline -->
  <polyline points="630.31,139.11 606.35,122.15 543.66,91.60 463.85,62.22 377.65,44.97 294.53,40.00 240.89,45.85 192.10,60.17 145.96,82.68 106.45,110.75 91.99,124.49 79.96,138.82 69.36,156.07 57.99,181.35 48.61,210.30 42.43,240.12 40.00,286.46 44.42,330.31 53.25,359.11 65.94,384.25 81.39,406.76 102.47,427.81 163.18,466.99 237.47,501.63 318.82,527.21 401.60,542.27 476.77,545.63 545.20,539.93 585.05,531.16 622.47,515.96 680.20,480.73 723.46,443.89 732.74,432.20 739.14,420.65 745.32,408.08 750.40,393.02 755.36,372.99 759.34,349.46 760.00,325.63 755.25,299.32 746.20,272.72 734.39,247.72 708.12,210.44 677.88,177.99 630.31,139.11"
        fill="none"
        stroke="#e94560"
        stroke-width="8.0"
        stroke-linejoin="round"
        stroke-linecap="round"/>
  <!-- Start/finish line -->
  <line x1="618.00" y1="154.87" x2="642.61" y2="123.34"
        stroke="#f5f5f5" stroke-width="9.6"
        stroke-linecap="round"/>
</svg>
