<?xml version="1.0" encoding="utf-8"?>
<svg xmlns="http://www.w3.org/2000/svg"
     width="626.1" height="800.0"
     viewBox="0 0 626.1 800.0">
  <rect width="100%" height="100%" fill="#1a1a2e"/>
  <!-- Track outline -->
  <polyline points="550.66,463.93 582.92,336.74 586.13,301.36 586.01,270.13 580.99,227.10 577.66,212.70 572.65,197.98 558.27,165.53 539.44,132.69 517.91,108.05 497.32,89.00 480.35,75.49 460.13,63.92 439.13,54.06 428.85,50.58 417.63,48.14 381.92,42.66 341.24,40.00 309.10,42.60 278.03,48.97 246.84,58.55 217.29,72.28 192.47,90.11 170.52,110.60 154.86,127.82 141.01,147.81 126.01,177.43 111.26,216.53 73.16,347.04 43.49,477.83 40.00,513.04 40.58,542.89 44.19,575.72 49.86,603.52 52.95,612.77 57.30,621.35 75.92,649.59 96.59,677.05 104.07,686.02 112.21,693.89 135.71,712.10 164.89,729.93 202.00,745.77 242.36,756.51 292.09,760.00 334.95,758.45 346.09,757.18 356.52,754.68 384.22,745.22 410.73,733.92 418.66,729.60 426.10,724.06 447.35,704.46 469.79,678.99 486.14,654.41 501.18,623.95 550.66,463.93"
        fill="none"
        stroke="#e94560"
        stroke-width="8.0"
        stroke-linejoin="round"
        stroke-linecap="round"/>
  <!-- Start/finish line -->
  <line x1="531.43" y1="458.45" x2="569.90" y2="469.40"
        stroke="#f5f5f5" stroke-width="9.6"
        stroke-linecap="round"/>
</svg>
