<?xml version="1.0" encoding="utf-8"?>
<svg xmlns="http://www.w3.org/2000/svg"
     width="596.5" height="800.0"
     viewBox="0 0 596.5 800.0">
  <rect width="100%" height="100%" fill="#1a1a2e"/>
  <!-- Track outline -->
  <polyline points="539.61,366.35 536.55,354.69 503.18,234.50 492.43,196.07 475.44,157.58 454.04,120.49 435.74,99.71 416.90,84.04 402.05,75.11 386.87,68.04 351.59,53.70 313.09,43.44 294.69,40.76 276.83,40.00 262.85,41.08 247.35,44.33 201.91,59.25 158.01,78.05 145.39,86.27 134.53,95.63 115.09,114.43 97.34,134.38 83.74,156.05 63.04,199.89 53.49,228.32 46.06,259.80 41.31,304.85 40.00,346.85 42.57,379.03 64.19,499.22 84.29,559.45 108.86,613.87 131.90,650.07 154.84,678.43 167.73,691.30 180.18,701.18 203.55,715.33 255.81,739.48 295.24,751.46 334.72,759.17 360.60,760.00 384.96,757.51 410.02,751.91 432.52,744.39 444.59,738.97 455.24,732.79 465.61,725.84 476.43,716.54 499.80,689.71 521.04,660.20 528.30,647.07 533.93,632.10 546.43,580.61 555.39,521.27 556.48,475.39 554.13,435.37 548.23,398.98 539.61,366.35"
        fill="none"
        stroke="#e94560"
        stroke-width="8.0"
        stroke-linejoin="round"
        stroke-linecap="round"/>
  <!-- Start/finish line -->
  <line x1="520.27" y1="371.45" x2="558.94" y2="361.25"
        stroke="#f5f5f5" stroke-width="9.6"
        stroke-linecap="round"/>
</svg>
