<?xml version="1.0" encoding="utf-8"?>
<svg xmlns="http://www.w3.org/2000/svg"
     width="800.0" height="783.3"
     viewBox="0 0 800.0 783.3">
  <rect width="100%" height="100%" fill="#1a1a2e"/>
  <!-- Track outline -->
  <polyline points="609.57,332.92 606.81,335.99 604.37,338.49 601.89,340.86 599.33,343.14 596.68,345.29 594.01,347.30 591.27,349.22 588.51,351.01 585.66,352.67 582.76,354.20 579.79,355.61 576.78,356.88 573.72,358.04 570.62,359.06 567.43,359.94 564.20,360.73 560.91,361.40 557.58,361.97 554.20,362.40 550.75,362.76 547.29,362.97 543.79,363.11 540.21,363.12 536.61,363.06 533.00,362.89 529.35,362.60 525.67,362.22 521.94,361.77 518.21,361.21 514.43,360.56 510.65,359.85 506.81,359.06 502.96,358.19 499.06,357.27 495.15,356.28 491.18,355.24 487.17,354.16 483.10,353.07 479.03,351.98 474.99,350.94 471.02,349.92 467.13,348.91 463.30,347.99 459.51,347.12 455.76,346.30 452.05,345.54 448.40,344.85 444.77,344.27 441.21,343.76 437.70,343.36 434.25,343.07 430.84,342.89 427.53,342.81 424.28,342.84 421.11,342.99 417.99,343.28 414.94,343.66 411.93,344.13 408.94,344.75 405.99,345.49 403.07,346.31 400.23,347.25 397.42,348.34 394.71,349.52 392.08,350.81 389.54,352.22 387.09,353.73 384.72,355.37 382.45,357.08 380.29,358.91 378.22,360.81 376.28,362.79 374.48,364.85 372.77,367.00 371.19,369.23 369.68,371.53 368.31,373.90 367.09,376.33 365.97,378.81 364.96,381.33 364.10,383.93 363.33,386.58 362.71,389.22 362.24,391.92 361.87,394.64 361.65,397.34 361.52,400.09 361.54,402.84 361.69,405.59 361.96,408.34 362.36,411.08 362.91,413.83 363.56,416.57 364.34,419.28 365.27,421.95 366.33,424.59 367.48,427.19 368.76,429.74 370.17,432.20 371.71,434.62 373.33,436.97 375.10,439.20 376.93,441.35 378.88,443.36 380.92,445.29 383.05,447.12 385.28,448.83 387.57,450.41 389.92,451.90 392.33,453.26 394.77,454.47 397.26,455.58 399.80,456.52 402.36,457.34 404.93,458.03 407.56,458.60 410.22,459.05 412.91,459.38 415.64,459.59 418.36,459.65 421.10,459.59 423.82,459.38 426.57,459.03 429.32,458.58 432.06,457.99 434.85,457.27 437.59,456.41 440.34,455.47 443.07,454.40 445.83,453.19 448.60,451.88 451.40,450.42 454.19,448.86 456.98,447.24 459.81,445.53 462.64,443.73 465.52,441.85 468.41,439.92 471.31,437.99 474.15,436.08 476.95,434.27 479.72,432.52 482.43,430.86 485.09,429.30 487.74,427.84 490.38,426.50 493.00,425.27 495.60,424.20 498.21,423.23 500.85,422.39 503.50,421.68 506.16,421.13 508.83,420.66 511.52,420.36 514.22,420.16 516.93,420.11 519.66,420.21 522.33,420.49 524.94,420.91 527.57,421.48 530.14,422.22 532.70,423.04 535.19,424.01 537.60,425.17 539.95,426.45 542.32,427.82 544.55,429.30 546.69,430.96 548.77,432.69 550.74,434.52 552.58,436.50 554.31,438.56 555.98,440.69 557.51,442.91 558.96,445.19 560.28,447.54 561.48,449.94 562.58,452.39 563.53,454.90 564.33,457.47 565.02,460.06 565.61,462.67 566.05,465.34 566.38,468.03 566.56,470.73 566.61,473.44 566.56,476.20 566.39,478.98 566.08,481.78 565.63,484.55 565.07,487.32 564.35,490.11 563.49,492.82 562.52,495.54 561.43,498.29 560.19,500.98 558.85,503.68 557.39,506.33 555.81,508.95 554.12,511.55 552.28,514.10 550.40,516.65 548.38,519.15 546.25,521.60 544.02,524.00 541.64,526.31 539.17,528.58 536.60,530.79 533.90,532.96 531.07,535.07 528.16,537.12 525.16,539.13 522.11,541.10 518.95,542.99 515.68,544.82 512.34,546.60 508.93,548.33 505.44,550.04 501.89,551.72 498.25,553.35 494.57,554.92 490.80,556.47 487.00,557.98 483.10,559.47 479.14,560.95 475.08,562.39 471.01,563.80 466.86,565.17 462.69,566.52 458.55,567.79 454.43,568.98 450.37,570.07 446.35,571.06 442.35,571.97 438.41,572.72 434.53,573.40 430.69,573.97 426.83,574.40 423.00,574.72 419.19,574.91 415.36,574.91 411.58,574.77 407.85,574.49 404.15,574.07 400.50,573.51 396.89,572.78 393.31,571.89 389.80,570.86 386.36,569.69 383.00,568.36 379.71,566.95 376.51,565.39 373.40,563.73 370.41,561.90 367.48,559.96 364.63,557.89 361.84,555.73 359.16,553.50 356.54,551.15 354.01,548.70 351.53,546.15 349.11,543.53 346.78,540.78 344.57,537.93 342.45,535.01 340.42,532.00 338.49,528.95 336.66,525.78 334.93,522.56 333.33,519.23 331.88,515.84 330.54,512.41 329.31,508.93 328.15,505.39 327.09,501.78 326.13,498.13 325.24,494.44 324.46,490.69 323.75,486.88 323.12,483.03 322.55,479.10 321.99,475.11 321.45,471.08 320.93,467.00 320.40,462.86 319.85,458.65 319.28,454.38 318.67,450.07 318.02,445.71 317.36,441.33 316.64,436.87 315.86,432.35 315.01,427.86 314.13,423.43 313.24,419.13 312.30,414.97 311.30,410.91 310.24,406.97 309.12,403.16 307.90,399.48 306.65,395.91 305.32,392.47 303.95,389.17 302.51,386.01 300.98,382.99 299.41,380.14 297.71,377.42 295.96,374.82 294.11,372.35 292.18,370.05 290.20,367.94 288.10,365.93 285.90,364.05 283.65,362.29 281.31,360.62 278.93,359.13 276.43,357.74 273.87,356.45 271.26,355.29 268.60,354.27 265.92,353.34 263.19,352.57 260.40,351.95 257.58,351.45 254.71,351.09 251.79,350.89 248.87,350.83 245.94,350.91 243.01,351.14 240.12,351.53 237.22,352.07 234.37,352.74 231.54,353.59 228.78,354.58 226.07,355.71 223.45,356.98 220.88,358.41 218.43,359.97 216.02,361.67 213.68,363.46 211.48,365.36 209.33,367.42 207.29,369.57 205.32,371.83 203.42,374.18 201.62,376.65 199.93,379.23 198.33,381.85 196.85,384.60 195.48,387.44 194.19,390.36 193.04,393.36 192.02,396.36 191.11,399.45 190.36,402.62 189.76,405.81 189.29,409.01 188.97,412.27 188.81,415.54 188.80,418.80 188.91,422.10 189.17,425.46 189.59,428.83 190.14,432.22 190.83,435.56 191.63,438.90 192.58,442.20 193.67,445.51 194.92,448.78 196.30,452.02 197.81,455.22 199.42,458.39 201.17,461.55 203.01,464.65 204.95,467.76 206.97,470.91 209.07,474.05 211.24,477.19 213.50,480.37 215.82,483.58 218.20,486.82 220.63,490.07 223.14,493.34 225.70,496.62 228.27,499.87 230.86,503.08 233.42,506.20 235.89,509.25 238.30,512.22 240.63,515.11 242.89,517.93 245.07,520.68 247.20,523.38 249.22,526.03 251.12,528.63 252.92,531.23 254.63,533.80 256.20,536.35 257.62,538.88 258.94,541.42 260.10,543.98 261.13,546.53 262.00,549.08 262.74,551.70 263.36,554.34 263.81,556.99 264.11,559.65 264.23,562.29 264.23,564.91 264.07,567.52 263.77,570.11 263.30,572.61 262.69,575.07 261.94,577.46 261.05,579.79 260.02,582.09 258.86,584.25 257.54,586.33 256.11,588.35 254.60,590.29 252.97,592.20 251.23,594.05 249.41,595.76 247.46,597.39 245.40,598.90 243.28,600.33 241.09,601.65 238.79,602.84 236.44,603.93 233.99,604.87 231.49,605.69 228.94,606.38 226.34,606.97 223.73,607.46 221.06,607.83 218.35,608.04 215.60,608.19 212.83,608.19 210.05,608.08 207.26,607.83 204.42,607.47 201.57,606.97 198.74,606.37 195.90,605.63 193.08,604.70 190.28,603.68 187.51,602.54 184.76,601.28 182.03,599.89 179.33,598.36 176.68,596.74 174.06,594.97 171.50,593.13 168.94,591.16 166.45,589.12 164.00,586.92 161.65,584.64 159.31,582.24 157.00,579.79 154.75,577.20 152.56,574.52 150.44,571.75 148.36,568.90 146.34,565.93 144.39,562.88 142.49,559.70 140.67,556.47 138.89,553.13 137.18,549.69 135.56,546.18 134.06,542.57 132.60,538.88 131.19,535.12 129.80,531.30 128.50,527.39 127.30,523.41 126.15,519.33 125.08,515.19 124.04,510.98 123.04,506.70 122.13,502.37 121.28,497.96 120.52,493.50 119.80,488.98 119.17,484.49 118.54,480.04 117.97,475.68 117.42,471.43 116.95,467.29 116.51,463.28 116.10,459.37 115.76,455.63 115.45,451.97 115.19,448.44 114.94,445.06 114.71,441.75 114.45,438.53 114.17,435.42 113.91,432.40 113.63,429.47 113.30,426.60 112.93,423.78 112.52,421.03 112.03,418.34 111.46,415.71 110.84,413.18 110.15,410.74 109.41,408.41 108.58,406.13 107.66,403.88 106.69,401.70 105.65,399.60 104.54,397.55 103.32,395.64 102.04,393.85 100.69,392.14 99.26,390.54 97.79,389.03 96.23,387.66 94.63,386.40 92.99,385.21 91.21,384.13 89.42,383.18 87.56,382.32 85.63,381.58 83.67,380.99 81.73,380.52 79.74,380.21 77.74,380.02 75.75,379.95 73.71,380.05 71.72,380.21 69.71,380.52 67.77,380.93 65.84,381.48 63.89,382.17 62.02,382.94 60.17,383.83 58.35,384.90 56.61,385.99 54.97,387.24 53.41,388.61 51.93,390.07 50.57,391.62 49.28,393.28 48.07,395.09 46.92,396.97 45.86,398.88 44.89,400.88 44.05,402.94 43.27,405.11 42.60,407.29 41.98,409.53 41.45,411.87 40.99,414.25 40.62,416.67 40.30,419.13 40.12,421.63 40.03,424.20 40.00,426.82 40.04,429.45 40.14,432.15 40.26,434.90 40.47,437.67 40.71,440.49 41.05,443.41 41.40,446.33 41.71,449.32 42.05,452.37 42.44,455.44 42.85,458.56 43.28,461.73 43.75,464.95 44.28,468.23 44.84,471.55 45.45,474.90 46.06,478.33 46.76,481.80 47.49,485.29 48.24,488.83 49.05,492.46 49.91,496.11 50.81,499.80 51.74,503.55 52.74,507.35 53.82,511.18 54.94,515.06 56.08,518.98 57.26,522.91 58.53,526.89 59.79,530.91 61.13,534.99 62.53,539.08 63.99,543.24 65.50,547.44 67.04,551.65 68.63,555.90 70.33,560.17 72.12,564.47 73.99,568.80 75.95,573.18 77.95,577.54 80.03,581.95 82.25,586.40 84.48,590.75 86.75,595.06 89.10,599.37 91.55,603.66 94.10,607.94 96.74,612.21 99.45,616.47 102.24,620.68 105.17,624.87 108.17,629.05 111.30,633.21 114.50,637.32 117.86,641.38 121.35,645.43 124.93,649.40 128.61,653.36 132.40,657.26 136.29,661.08 140.27,664.84 144.34,668.53 148.54,672.16 152.84,675.71 157.24,679.20 161.81,682.66 166.45,686.01 171.23,689.34 176.11,692.59 181.14,695.76 186.28,698.85 191.44,701.90 196.63,704.77 201.91,707.54 207.34,710.29 212.85,712.93 218.42,715.46 224.05,717.91 229.83,720.28 235.67,722.61 241.60,724.71 247.58,726.79 253.59,728.80 259.64,730.70 265.79,732.49 272.02,734.12 278.36,735.60 284.72,737.04 291.14,738.35 297.63,739.52 304.18,740.53 310.79,741.37 317.46,742.07 324.16,742.64 330.96,743.00 337.79,743.20 344.65,743.28 351.59,743.16 358.61,742.74 365.59,742.19 372.57,741.45 379.56,740.63 386.54,739.64 393.53,738.52 400.53,737.27 407.51,735.83 414.50,734.14 421.48,732.26 428.45,730.19 435.36,727.98 442.27,725.56 449.08,723.03 455.79,720.41 462.44,717.58 468.98,714.59 475.47,711.42 481.83,708.08 488.17,704.57 494.48,700.85 500.64,697.00 506.75,693.06 512.82,688.95 518.75,684.72 524.64,680.38 530.40,675.88 536.07,671.27 541.65,666.45 547.11,661.57 552.48,656.48 557.69,651.30 562.75,645.93 567.68,640.36 572.50,634.59 577.20,628.70 581.75,622.78 586.10,616.72 590.37,610.54 594.52,604.17 598.53,597.72 602.41,591.33 606.19,584.91 609.83,578.51 613.38,572.10 616.82,565.41 620.19,558.55 623.46,551.47 626.65,544.32 629.77,537.10 632.81,529.86 635.78,522.51 638.69,515.12 641.57,507.67 644.39,500.19 647.14,492.69 649.87,485.14 652.57,477.49 655.21,469.84 657.83,462.05 660.40,454.23 662.90,446.43 665.38,438.61 667.80,430.74 670.21,422.81 672.58,414.87 674.92,406.88 677.22,398.85 679.50,390.79 681.75,382.71 683.96,374.58 686.15,366.51 688.33,358.49 690.45,350.59 692.54,342.82 694.57,335.17 696.53,327.64 698.47,320.26 700.36,313.01 702.18,305.86 703.97,298.86 705.70,291.97 707.39,285.22 709.05,278.61 710.69,272.10 712.31,265.74 713.88,259.47 715.45,253.32 716.99,247.27 718.51,241.31 720.03,235.42 721.52,229.65 723.01,223.96 724.46,218.34 725.92,212.80 727.37,207.35 728.80,201.98 730.21,196.71 731.58,191.53 732.94,186.44 734.27,181.44 735.56,176.55 736.84,171.78 738.09,167.12 739.31,162.59 740.48,158.07 741.63,153.69 742.84,149.35 744.00,145.03 745.11,140.77 746.23,136.51 747.35,132.28 748.48,128.12 749.57,123.96 750.64,119.82 751.67,115.76 752.71,111.75 753.66,107.77 754.58,103.89 755.42,100.03 756.22,96.29 756.95,92.57 757.62,88.91 758.19,85.30 758.73,82.08 759.27,78.57 759.64,74.77 759.84,71.16 759.92,67.90 760.00,64.14 759.49,60.22 758.74,56.43 757.28,52.94 755.57,50.35 752.12,47.87 747.29,45.87 741.62,44.11 736.45,42.73 729.92,41.36 722.41,40.12 715.54,40.00 710.01,40.64 705.46,41.91 700.70,44.65 696.39,47.90 692.94,52.92 690.60,58.79 688.86,65.84 673.97,140.81 673.18,144.55 672.32,148.34 671.39,152.17 670.43,156.06 669.44,160.00 668.45,163.98 667.43,168.04 666.38,172.13 665.34,176.26 664.28,180.47 663.23,184.73 662.14,189.03 661.04,193.39 659.93,197.79 658.80,202.27 657.63,206.76 656.46,211.36 655.25,215.98 654.03,220.64 652.82,225.37 651.56,230.15 650.28,234.94 649.01,239.77 647.75,244.50 646.49,249.18 645.26,253.76 644.02,258.26 642.80,262.67 641.58,267.05 640.36,271.29 639.13,275.47 637.86,279.57 636.54,283.54 635.19,287.42 633.78,291.24 632.30,295.02 630.74,298.68 629.13,302.27 627.42,305.78 625.64,309.18 623.80,312.52 621.91,315.76 619.94,318.93 617.93,322.02 615.85,324.97 613.70,327.87 611.47,330.67 609.57,332.92"
        fill="none"
        stroke="#e94560"
        stroke-width="8.0"
        stroke-linejoin="round"
        stroke-linecap="round"/>
  <!-- Start/finish line -->
  <line x1="624.60" y1="346.11" x2="594.54" y2="319.73"
        stroke="#f5f5f5" stroke-width="9.6"
        stroke-linecap="round"/>
</svg>
