<?xml version="1.0" encoding="utf-8"?>
<svg xmlns="http://www.w3.org/2000/svg"
     width="800.0" height="534.7"
     viewBox="0 0 800.0 534.7">
  <rect width="100%" height="100%" fill="#1a1a2e"/>
  <!-- Track outline -->
  <polyline points="526.07,179.11 516.30,174.35 496.08,163.74 386.07,107.66 273.60,50.13 240.37,40.07 222.00,40.00 201.05,41.93 178.49,46.27 158.89,53.57 147.28,61.36 137.45,70.94 128.29,82.10 113.44,105.18 100.87,131.15 79.26,187.65 44.64,281.36 41.12,295.20 40.00,307.95 41.90,328.21 44.47,342.74 48.99,355.77 52.12,362.17 58.71,372.78 67.81,384.91 79.04,396.14 109.64,414.68 148.34,430.73 221.44,455.81 292.64,471.31 312.63,470.97 329.78,467.93 345.58,463.53 363.56,456.84 380.48,447.20 402.04,429.70 421.42,409.09 433.65,390.77 442.30,373.96 445.15,367.20 446.60,360.93 446.21,353.49 444.70,346.12 442.86,339.51 440.40,333.24 437.33,327.52 433.65,322.28 429.29,317.46 424.43,313.26 419.07,309.33 412.76,306.09 401.37,302.37 386.79,300.44 345.58,305.40 322.68,309.40 300.85,310.43 283.37,309.53 263.88,308.43 244.50,312.29 225.68,318.91 206.64,329.31 192.45,336.20 181.73,339.09 168.83,339.78 158.11,337.65 150.29,334.20 144.26,327.79 138.45,319.18 133.93,311.12 131.08,304.85 129.24,298.10 127.01,284.94 126.78,269.23 132.09,242.70 141.30,215.83 151.52,195.92 163.75,178.49 178.44,162.64 193.96,149.76 206.19,142.38 218.65,137.22 232.72,133.70 246.01,131.98 253.38,131.57 260.70,132.05 274.04,134.60 288.17,138.94 510.43,239.67 566.95,264.54 574.15,267.71 580.29,271.23 585.60,275.15 590.23,279.70 593.86,284.59 596.71,290.04 598.72,295.69 599.78,302.16 599.28,315.80 597.05,329.38 594.87,335.85 592.02,341.44 588.45,347.02 584.31,352.18 579.40,357.14 573.93,361.62 560.86,369.75 543.05,377.33 524.17,386.08 515.68,391.59 508.03,397.52 502.11,403.72 498.31,410.47 495.86,417.43 493.96,424.05 492.79,430.66 492.45,437.00 492.90,443.34 494.18,449.54 496.19,455.53 498.87,461.39 502.61,467.25 511.94,477.17 522.27,485.78 527.97,489.02 533.55,491.22 539.58,492.95 545.84,494.05 551.98,494.67 559.13,494.39 577.67,490.05 600.06,482.40 665.96,451.19 686.96,444.92 706.00,438.10 723.65,425.98 737.66,413.16 742.13,407.85 745.70,402.07 751.96,389.25 757.10,374.37 759.55,359.49 760.00,344.47 758.60,330.07 755.25,316.42 752.07,308.57 747.99,301.34 742.52,294.03 723.31,276.60 693.04,258.27 643.12,235.61 593.75,212.11 556.84,193.92 526.07,179.11"
        fill="none"
        stroke="#e94560"
        stroke-width="8.0"
        stroke-linejoin="round"
        stroke-linecap="round"/>
  <!-- Start/finish line -->
  <line x1="517.38" y1="197.12" x2="534.76" y2="161.10"
        stroke="#f5f5f5" stroke-width="9.6"
        stroke-linecap="round"/>
</svg>
