<?xml version="1.0" encoding="utf-8"?>
<svg xmlns="http://www.w3.org/2000/svg"
     width="614.4" height="800.0"
     viewBox="0 0 614.4 800.0">
  <rect width="100%" height="100%" fill="#1a1a2e"/>
  <!-- Track outline -->
  <polyline points="440.21,404.22 385.67,455.64 318.94,520.78 296.73,552.05 290.87,563.50 282.70,587.94 280.93,600.87 280.87,613.95 296.54,687.25 298.99,697.99 300.36,708.54 300.28,718.85 299.49,726.75 297.91,734.44 295.87,739.30 293.30,743.61 290.43,747.76 287.10,751.43 283.18,754.31 278.87,756.61 274.30,758.37 269.52,759.53 264.58,760.00 259.61,759.81 254.56,758.88 249.55,757.38 239.53,752.98 229.72,746.94 220.12,739.51 131.23,655.19 124.19,647.07 117.96,638.67 112.74,629.95 108.81,620.95 107.06,615.00 105.88,608.77 105.57,602.87 105.98,596.98 107.11,591.18 108.83,585.47 113.55,574.09 120.34,563.35 126.46,555.62 133.15,548.66 142.73,540.91 147.94,537.79 153.41,535.21 159.23,533.15 165.21,531.80 171.07,531.41 176.89,531.84 182.40,533.13 187.82,534.93 198.53,538.99 204.24,540.28 210.00,540.86 215.67,540.56 221.16,539.36 226.25,537.15 230.89,534.12 234.98,530.42 238.35,526.13 240.07,523.08 241.44,519.84 242.34,516.48 242.75,511.20 242.32,505.83 241.34,500.40 239.64,495.18 237.20,490.45 234.05,486.20 230.16,482.55 225.71,479.48 220.72,476.97 215.40,475.03 209.71,473.62 203.85,472.69 198.26,472.07 191.57,472.07 140.65,481.22 76.00,492.19 69.82,492.37 64.86,491.85 59.79,490.80 54.92,489.01 51.49,487.17 48.15,484.87 45.34,482.23 43.20,479.31 41.52,476.04 40.42,472.65 40.00,469.13 40.15,465.45 40.71,461.85 42.37,456.52 44.72,451.34 50.72,441.44 57.98,432.21 149.48,335.96 159.17,328.30 164.13,325.23 169.23,322.71 174.25,320.89 179.43,319.86 183.32,319.71 187.31,320.03 191.01,320.93 193.42,321.98 195.72,323.38 197.80,325.01 199.53,326.88 200.94,329.03 202.04,331.48 202.83,334.03 203.29,336.61 203.39,339.25 203.16,341.98 202.58,344.66 201.69,347.15 198.71,351.41 194.91,355.32 186.45,363.50 183.57,367.41 181.24,371.64 179.76,375.25 178.58,379.11 177.95,383.02 177.95,386.91 178.47,390.80 179.62,394.45 181.57,397.84 184.15,401.00 186.99,403.70 191.21,406.60 195.79,408.90 206.05,412.66 211.00,414.01 217.46,415.00 265.41,416.10 312.81,414.96 318.32,414.31 322.89,413.22 332.60,410.08 341.99,406.13 346.60,403.38 350.55,400.40 354.40,397.09 357.89,393.46 360.90,389.68 363.46,385.47 365.89,379.91 367.45,373.98 367.76,368.29 367.11,362.73 365.66,357.64 363.42,352.91 360.44,348.76 356.91,345.01 353.27,341.59 348.91,338.31 339.74,332.85 330.06,328.02 319.34,324.22 286.13,317.28 276.69,313.99 267.42,309.57 258.67,303.90 251.15,296.96 247.93,293.24 245.06,289.10 242.15,283.56 240.01,277.57 239.32,273.64 239.07,269.64 239.32,265.75 240.09,262.04 241.34,258.43 242.98,255.06 245.00,252.01 247.43,249.19 250.11,246.72 254.66,243.78 259.65,241.57 265.01,240.07 270.58,239.27 276.38,239.14 282.22,239.66 294.07,242.49 367.68,266.96 434.58,283.54 440.89,284.01 445.98,283.62 451.37,282.59 456.46,280.79 459.54,279.13 462.46,277.11 464.96,274.80 466.98,272.26 468.66,269.45 469.90,266.40 470.76,262.68 471.09,258.69 470.74,254.86 469.84,251.66 468.30,248.64 465.73,245.11 444.16,226.08 415.12,202.91 350.80,145.86 336.11,131.47 329.89,123.87 326.46,118.54 323.49,112.75 321.41,106.82 320.08,100.70 319.56,94.53 319.83,88.37 320.96,82.25 322.85,76.30 325.61,70.48 328.79,65.09 334.49,57.18 337.67,53.51 341.26,50.07 346.19,46.38 351.65,43.31 357.20,41.27 362.94,40.13 368.72,40.00 374.47,40.75 380.00,42.28 385.17,44.57 389.56,47.54 393.47,51.02 396.54,54.80 399.76,58.49 402.82,60.81 406.27,62.87 409.91,64.33 413.85,65.04 417.99,65.15 421.96,64.85 426.97,63.60 431.89,62.06 442.60,59.93 448.15,60.00 453.72,60.77 459.39,62.23 464.88,64.40 470.34,67.53 475.29,71.19 478.76,74.34 482.10,78.08 494.10,94.62 543.62,179.78 562.24,202.69 567.15,211.31 570.93,220.43 573.48,230.01 574.15,235.04 574.36,240.11 574.00,245.22 573.19,250.33 570.43,260.60 566.31,270.63 560.87,280.29 554.51,289.72 547.32,298.94 494.95,352.07 456.48,388.89 440.21,404.22"
        fill="none"
        stroke="#e94560"
        stroke-width="8.0"
        stroke-linejoin="round"
        stroke-linecap="round"/>
  <!-- Start/finish line -->
  <line x1="453.93" y1="418.77" x2="426.49" y2="389.67"
        stroke="#f5f5f5" stroke-width="9.6"
        stroke-linecap="round"/>
</svg>
