<?xml version="1.0" encoding="utf-8"?>
<svg xmlns="http://www.w3.org/2000/svg"
     width="567.1" height="800.0"
     viewBox="0 0 567.1 800.0">
  <rect width="100%" height="100%" fill="#1a1a2e"/>
  <!-- Track outline -->
  <polyline points="40.56,413.37 41.83,435.07 44.31,474.32 62.92,576.31 81.14,623.54 92.54,643.41 122.92,680.58 146.32,704.27 173.23,725.87 208.66,743.37 242.19,755.07 256.02,758.40 269.58,760.00 322.56,759.95 349.07,755.94 369.44,750.19 391.08,741.00 418.19,722.34 442.15,701.95 460.84,681.45 475.15,660.62 489.98,634.80 504.49,589.08 516.81,532.71 524.98,469.44 527.06,403.46 519.12,327.81 507.09,263.81 496.44,230.69 480.26,190.62 460.52,155.34 448.76,138.47 434.21,121.64 401.41,93.17 367.40,68.57 351.78,59.82 337.58,53.63 325.15,48.85 311.71,45.17 286.32,41.50 261.60,40.00 251.36,40.48 241.35,42.03 220.38,46.53 199.14,52.86 186.86,58.18 175.58,64.56 151.06,82.92 130.61,101.97 111.87,125.85 83.69,177.18 55.75,243.65 40.00,324.57 40.24,408.34 40.56,413.37"
        fill="none"
        stroke="#e94560"
        stroke-width="8.0"
        stroke-linejoin="round"
        stroke-linecap="round"/>
  <!-- Start/finish line -->
  <line x1="60.52" y1="412.17" x2="20.59" y2="414.56"
        stroke="#f5f5f5" stroke-width="9.6"
        stroke-linecap="round"/>
</svg>
