<?xml version="1.0" encoding="utf-8"?>
<svg xmlns="http://www.w3.org/2000/svg"
     width="800.0" height="479.4"
     viewBox="0 0 800.0 479.4">
  <rect width="100%" height="100%" fill="#1a1a2e"/>
  <!-- Track outline -->
  <polyline points="325.22,331.36 273.23,352.87 259.80,355.74 247.21,356.88 228.36,355.42 203.33,349.63 139.17,329.94 131.22,328.43 125.22,327.88 122.17,327.91 119.34,328.31 116.63,328.88 113.80,329.71 111.33,330.87 109.61,332.20 108.15,333.78 106.91,335.63 105.60,338.44 104.60,341.62 104.10,344.62 104.37,347.79 105.13,350.69 106.86,355.29 113.11,383.15 116.36,397.79 116.28,400.12 115.81,402.32 114.01,407.68 111.94,412.48 111.33,413.49 110.60,414.41 103.91,421.75 99.68,425.13 89.93,430.84 81.68,434.24 72.93,437.04 65.62,438.66 58.28,439.42 51.02,439.39 48.46,438.94 46.21,438.26 44.24,437.27 43.03,436.39 41.92,435.37 40.99,434.21 40.34,432.99 40.04,431.60 40.00,430.06 40.12,428.58 40.29,427.37 40.49,426.49 40.86,425.65 42.43,423.19 44.85,420.04 59.02,403.85 59.76,402.67 60.34,401.38 64.31,391.09 67.79,380.43 68.09,378.75 68.16,376.98 66.30,347.30 63.40,329.14 61.40,312.60 62.11,304.98 63.70,298.61 65.46,294.02 67.63,290.11 69.83,287.37 72.02,285.29 72.87,284.57 74.06,283.89 126.98,263.27 182.44,235.95 204.97,227.21 205.97,227.01 206.95,226.98 214.29,227.01 222.27,227.91 223.76,228.46 225.03,229.10 226.12,229.86 227.04,230.74 227.66,231.52 228.21,232.37 228.64,233.31 228.93,234.27 229.05,235.25 228.60,237.39 227.56,239.67 226.49,241.63 225.54,243.17 224.49,244.51 221.53,247.71 207.33,258.14 192.18,270.11 189.28,273.45 187.16,276.55 185.92,279.35 185.67,280.55 185.62,281.69 185.75,282.77 186.08,283.81 186.75,284.94 187.73,286.05 188.80,287.03 189.81,287.79 190.97,288.37 192.21,288.74 194.30,289.13 196.67,289.37 203.02,289.34 224.58,285.55 248.60,279.05 263.80,273.22 277.43,265.98 289.87,256.78 301.32,245.95 313.00,232.29 323.35,217.81 337.07,192.98 363.09,139.05 383.47,104.61 390.26,94.37 398.53,84.37 437.88,45.54 441.76,42.83 444.99,41.25 446.65,40.60 448.27,40.14 450.03,40.00 452.81,40.44 455.84,41.42 458.58,42.71 461.30,44.62 464.05,47.36 472.76,58.79 482.00,70.63 486.40,74.60 490.42,77.27 492.96,78.48 495.79,79.17 502.05,79.38 510.49,78.83 570.49,72.26 596.45,72.46 601.18,73.08 604.44,74.03 607.64,75.45 609.15,76.40 610.66,77.50 611.94,78.67 613.02,80.47 613.13,81.74 612.88,83.10 610.87,86.99 608.93,89.40 597.66,99.10 582.08,111.19 571.82,120.52 570.79,122.23 570.31,123.65 570.08,125.20 570.14,128.48 570.75,132.10 571.82,137.34 573.59,142.45 575.34,145.19 577.39,147.68 579.14,149.40 579.92,149.97 580.78,150.38 587.82,152.90 592.88,154.18 597.28,154.97 598.28,155.01 599.37,154.85 608.52,152.62 618.79,149.26 622.45,147.30 625.62,145.11 633.68,139.04 648.94,123.38 662.90,109.04 666.41,106.67 668.99,105.27 671.91,104.01 674.63,103.07 677.60,102.25 680.32,101.95 681.77,102.09 683.15,102.41 684.43,102.90 685.59,103.58 686.70,104.51 687.72,105.67 688.58,106.98 689.27,108.36 689.89,110.72 690.17,113.27 690.22,115.36 690.18,116.35 689.94,117.35 688.28,121.51 685.18,126.78 676.74,136.11 665.63,146.28 632.39,172.54 629.53,175.63 627.47,178.53 624.92,182.69 622.99,187.04 622.42,189.37 622.18,191.68 622.29,194.02 623.03,197.01 624.22,200.08 625.34,202.43 625.91,203.34 626.65,204.23 637.03,214.41 652.49,227.26 706.15,262.10 745.76,290.35 751.45,296.33 756.01,302.13 757.67,304.75 759.22,307.56 760.00,310.12 760.00,311.05 759.85,311.94 759.56,312.79 759.15,313.60 758.63,314.39 757.28,315.74 755.44,317.05 753.48,318.16 751.74,318.90 750.39,319.22 749.11,319.28 747.97,319.19 746.91,318.94 745.92,318.51 744.71,317.94 743.16,316.99 720.37,298.83 690.70,276.09 667.80,262.86 644.25,252.27 590.78,237.66 537.66,227.55 517.74,221.97 502.99,216.50 500.37,214.87 498.46,213.00 495.47,209.09 492.97,204.58 491.73,200.92 490.77,196.28 487.34,168.78 482.46,142.12 481.26,139.81 479.99,138.07 478.63,136.76 477.14,135.73 475.97,135.14 474.70,134.71 473.41,134.46 472.17,134.37 471.06,134.45 470.09,134.76 469.23,135.28 468.43,135.93 467.67,136.65 466.20,138.43 464.87,140.54 461.88,146.27 457.49,159.86 454.15,176.07 452.56,212.71 450.04,246.92 447.96,255.99 445.31,263.55 441.45,270.41 437.23,276.64 435.43,278.81 433.42,280.71 422.46,288.75 408.04,297.09 325.22,331.36"
        fill="none"
        stroke="#e94560"
        stroke-width="8.0"
        stroke-linejoin="round"
        stroke-linecap="round"/>
  <!-- Start/finish line -->
  <line x1="332.86" y1="349.84" x2="317.57" y2="312.88"
        stroke="#f5f5f5" stroke-width="9.6"
        stroke-linecap="round"/>
</svg>
