<?xml version="1.0" encoding="utf-8"?>
<svg xmlns="http://www.w3.org/2000/svg"
     width="800.0" height="219.5"
     viewBox="0 0 800.0 219.5">
  <rect width="100%" height="100%" fill="#1a1a2e"/>
  <!-- Track outline -->
  <polyline points="213.58,95.23 228.62,92.61 312.52,78.63 318.50,78.93 323.10,80.14 328.00,82.35 332.27,85.03 334.44,86.81 336.26,88.70 337.87,90.66 339.27,92.82 340.40,95.04 341.30,97.42 341.93,99.91 342.33,102.50 342.52,105.26 342.41,108.03 341.81,110.79 340.87,113.44 339.69,115.87 338.25,118.06 336.51,120.11 334.53,121.92 332.23,123.58 329.74,125.01 327.14,126.29 323.86,127.33 295.51,128.94 242.24,130.45 233.53,131.43 226.46,133.07 220.84,135.39 216.21,138.18 214.06,140.07 212.32,142.12 210.82,144.20 209.54,146.47 208.58,148.76 207.87,151.17 207.45,153.66 207.32,156.23 207.43,158.96 207.89,161.70 208.95,164.51 210.31,167.17 211.76,169.52 213.39,171.62 215.19,173.45 217.13,175.04 219.10,176.35 221.49,177.42 225.73,178.59 231.09,179.47 237.40,179.52 259.91,173.89 285.77,165.72 335.72,153.52 484.63,128.34 497.77,127.99 508.06,129.22 517.37,131.76 527.03,135.75 544.38,145.46 561.51,155.05 570.61,158.58 578.45,160.77 587.89,161.89 611.36,164.02 674.82,167.90 730.09,171.70 736.65,170.72 741.59,169.22 745.99,167.22 749.52,165.25 752.70,162.96 755.21,160.52 756.90,157.98 758.08,155.30 759.02,152.73 759.67,150.08 760.00,147.45 760.00,144.83 759.75,142.28 759.04,139.55 755.63,132.28 751.47,125.63 749.69,123.75 747.70,122.35 744.96,120.66 741.68,119.07 737.93,117.92 727.47,117.76 715.57,118.96 688.86,122.33 677.41,121.83 666.79,119.97 658.74,117.16 651.77,113.41 647.77,110.46 643.82,106.28 633.38,89.46 621.63,71.72 613.22,64.36 603.76,58.81 585.06,50.39 564.85,43.88 549.02,40.82 533.69,40.00 519.25,41.37 504.69,44.95 486.79,53.29 469.89,61.49 460.39,64.28 451.54,65.56 442.78,65.65 433.15,64.20 413.68,56.95 391.34,48.97 366.36,45.25 336.68,43.83 172.66,48.31 158.29,50.96 146.74,54.79 132.35,62.04 119.40,68.68 113.51,70.43 108.19,71.11 102.77,70.92 96.75,69.78 83.20,65.02 70.60,60.51 67.23,59.93 64.39,59.82 61.53,59.88 58.74,60.21 56.11,60.78 53.58,61.63 51.23,62.75 48.99,64.14 46.88,65.62 44.90,67.70 43.18,70.81 41.57,74.70 40.48,78.20 40.06,80.82 40.00,83.28 40.15,85.72 40.67,88.26 42.49,93.10 45.15,97.99 48.58,102.20 52.61,105.76 57.36,108.71 62.95,111.01 73.11,113.74 86.08,115.05 159.57,104.66 213.58,95.23"
        fill="none"
        stroke="#e94560"
        stroke-width="8.0"
        stroke-linejoin="round"
        stroke-linecap="round"/>
  <!-- Start/finish line -->
  <line x1="210.14" y1="75.53" x2="217.02" y2="114.93"
        stroke="#f5f5f5" stroke-width="9.6"
        stroke-linecap="round"/>
</svg>
