<?xml version="1.0" encoding="utf-8"?>
<svg xmlns="http://www.w3.org/2000/svg"
     width="800.0" height="359.4"
     viewBox="0 0 800.0 359.4">
  <rect width="100%" height="100%" fill="#1a1a2e"/>
  <!-- Track outline -->
  <polyline points="376.29,121.37 402.58,120.46 533.62,119.93 558.15,120.26 586.26,120.78 663.12,122.33 673.33,123.38 683.47,125.00 693.42,127.46 702.97,130.85 711.97,135.20 720.26,140.48 727.64,146.69 734.17,153.77 739.81,161.55 744.51,170.04 748.40,179.03 751.55,188.44 756.21,208.13 757.95,218.29 759.26,228.61 760.00,239.13 759.79,249.45 758.53,259.34 756.33,268.73 753.23,277.44 749.07,285.44 743.94,292.56 737.86,298.65 731.05,303.93 723.54,308.18 715.43,311.44 706.90,313.80 698.04,315.13 640.40,319.20 630.28,319.40 620.30,318.48 610.66,316.47 601.59,313.50 593.15,309.66 585.60,304.85 578.97,299.19 573.42,292.83 568.94,285.76 558.90,262.01 549.87,246.86 544.04,240.13 537.31,234.21 529.77,229.21 521.55,225.27 509.64,221.41 494.06,217.92 423.96,212.72 338.16,207.95 319.16,209.44 310.74,211.54 302.93,214.44 295.99,218.12 289.84,222.64 284.71,228.08 270.97,247.65 265.42,253.49 259.00,258.47 251.86,262.58 244.09,265.68 235.89,267.91 227.33,269.25 218.63,269.60 209.77,269.01 200.95,267.49 192.20,264.84 183.65,261.29 175.44,256.77 167.85,251.18 160.87,244.74 142.10,222.19 128.26,208.84 120.44,203.67 111.94,199.57 76.41,186.02 68.47,182.03 61.50,177.40 55.52,172.06 50.69,165.99 46.65,159.27 43.54,151.95 41.42,144.20 40.24,136.20 40.00,111.09 41.15,93.67 42.27,84.76 43.93,75.74 46.41,67.41 49.50,59.87 53.37,53.34 55.58,50.50 57.96,47.98 60.47,45.78 63.09,43.90 65.76,42.37 68.61,41.21 72.21,40.32 75.93,40.00 79.47,40.34 82.92,41.26 86.16,42.73 89.21,44.73 91.99,47.25 94.41,50.09 96.00,52.53 97.28,55.11 98.32,57.89 99.07,60.82 99.65,67.05 100.63,87.48 102.01,94.47 104.21,101.36 107.53,107.86 112.00,113.76 114.68,116.50 117.56,118.96 124.10,123.05 131.33,126.21 138.60,128.40 147.15,130.19 172.95,131.52 270.30,125.02 376.29,121.37"
        fill="none"
        stroke="#e94560"
        stroke-width="8.0"
        stroke-linejoin="round"
        stroke-linecap="round"/>
  <!-- Start/finish line -->
  <line x1="375.60" y1="101.38" x2="376.98" y2="141.36"
        stroke="#f5f5f5" stroke-width="9.6"
        stroke-linecap="round"/>
</svg>
