<?xml version="1.0" encoding="utf-8"?>
<svg xmlns="http://www.w3.org/2000/svg"
     width="692.2" height="800.0"
     viewBox="0 0 692.2 800.0">
  <rect width="100%" height="100%" fill="#1a1a2e"/>
  <!-- Track outline -->
  <polyline points="308.04,129.62 269.80,174.08 118.62,345.40 88.57,392.37 63.26,443.67 43.63,497.01 40.00,526.21 40.56,553.60 42.14,582.67 46.98,611.51 56.75,640.22 70.24,667.49 86.15,691.88 105.13,713.75 119.73,727.44 135.83,739.82 153.41,749.43 174.07,756.16 196.21,759.76 217.79,760.00 236.87,756.64 255.38,750.27 272.97,741.74 297.53,724.92 322.37,701.25 428.80,558.40 604.74,316.80 632.37,263.22 641.95,236.67 648.56,209.52 652.19,180.32 651.26,151.25 647.26,132.51 640.93,114.37 632.09,97.67 620.37,82.65 606.13,69.19 590.41,58.38 572.55,50.69 553.19,45.77 533.75,42.40 506.58,40.00 479.60,40.96 452.53,45.53 426.01,52.98 376.05,74.96 352.61,87.94 329.63,104.52 308.04,129.62"
        fill="none"
        stroke="#e94560"
        stroke-width="8.0"
        stroke-linejoin="round"
        stroke-linecap="round"/>
  <!-- Start/finish line -->
  <line x1="323.20" y1="142.67" x2="292.88" y2="116.58"
        stroke="#f5f5f5" stroke-width="9.6"
        stroke-linecap="round"/>
</svg>
