<?xml version="1.0" encoding="utf-8"?>
<svg xmlns="http://www.w3.org/2000/svg"
     width="573.4" height="800.0"
     viewBox="0 0 573.4 800.0">
  <rect width="100%" height="100%" fill="#1a1a2e"/>
  <!-- Track outline -->
  <polyline points="127.06,445.84 215.15,663.15 234.51,700.04 240.60,708.27 247.36,715.59 260.47,727.92 274.02,738.86 281.04,743.43 288.31,747.09 301.86,752.64 317.70,757.09 340.49,760.00 364.26,759.80 384.80,756.10 405.43,749.41 431.94,738.11 457.58,723.27 478.88,704.77 495.19,687.52 499.19,683.04 502.59,678.08 512.68,659.10 522.52,636.94 531.73,606.86 532.97,599.85 533.38,591.62 522.78,479.82 515.48,445.92 446.12,268.89 395.05,169.17 365.85,123.15 349.76,105.35 333.92,90.78 314.30,76.69 289.83,63.27 265.26,53.11 238.44,45.87 209.24,40.75 183.75,40.00 162.17,41.46 154.74,42.68 147.76,44.65 133.22,49.29 117.16,56.38 97.32,69.57 79.87,83.90 67.04,98.46 57.30,111.93 53.11,119.21 49.33,127.67 44.00,142.79 40.19,161.41 40.00,195.86 44.70,234.20 71.52,318.06 126.40,444.19 127.06,445.84"
        fill="none"
        stroke="#e94560"
        stroke-width="8.0"
        stroke-linejoin="round"
        stroke-linecap="round"/>
  <!-- Start/finish line -->
  <line x1="145.60" y1="438.33" x2="108.53" y2="453.36"
        stroke="#f5f5f5" stroke-width="9.6"
        stroke-linecap="round"/>
</svg>
