<?xml version="1.0" encoding="utf-8"?>
<svg xmlns="http://www.w3.org/2000/svg"
     width="543.2" height="800.0"
     viewBox="0 0 543.2 800.0">
  <rect width="100%" height="100%" fill="#1a1a2e"/>
  <!-- Track outline -->
  <polyline points="88.76,621.97 92.58,681.92 94.58,693.54 97.68,704.61 101.55,715.68 106.10,725.15 113.29,736.57 121.59,745.78 127.09,750.35 132.96,754.17 139.08,757.04 145.15,758.87 151.42,759.87 157.74,760.00 164.60,759.13 171.51,757.30 177.76,754.59 182.79,751.21 187.25,747.06 190.99,742.46 194.01,737.41 196.32,731.87 197.63,726.21 197.90,720.83 197.21,715.36 195.45,709.34 188.81,697.73 179.49,684.76 172.56,672.66 170.40,665.29 169.41,658.37 169.31,651.41 170.75,641.18 174.12,629.69 198.52,570.83 244.06,443.25 316.78,240.73 324.16,226.73 331.50,217.17 337.02,211.92 343.07,207.55 349.51,204.10 356.62,201.62 364.15,200.11 371.29,199.69 376.99,200.27 382.39,201.72 387.37,203.91 391.98,206.93 396.14,210.70 399.66,215.08 402.68,220.48 404.96,226.53 406.32,232.65 406.74,238.51 406.30,244.43 404.91,250.35 399.46,260.58 392.52,270.85 385.36,281.44 379.44,292.25 377.53,299.11 376.54,306.09 376.49,312.85 377.26,319.03 378.85,325.05 381.20,330.65 384.37,335.79 388.31,340.56 392.87,344.61 398.42,348.19 404.66,351.02 411.06,352.82 417.57,353.53 424.29,353.24 430.78,352.08 437.12,350.08 443.27,347.19 448.69,343.49 453.20,339.11 456.99,333.93 459.99,327.81 462.44,311.40 463.81,294.34 466.04,283.95 469.60,274.71 476.71,266.09 484.77,257.91 491.85,249.93 497.80,241.43 500.45,234.97 502.21,228.05 503.15,220.61 502.70,205.45 499.61,189.30 492.57,170.05 482.78,151.45 471.86,135.94 458.90,122.10 444.21,110.06 424.46,98.64 339.50,66.74 256.50,42.51 242.33,40.06 231.05,40.00 223.37,41.00 215.89,42.86 208.90,45.60 202.58,49.14 196.74,53.48 191.51,58.41 186.90,63.98 182.94,70.16 179.77,76.88 176.47,88.95 174.91,102.79 176.05,126.89 176.79,150.55 174.51,162.55 170.55,172.98 166.81,179.71 162.27,186.01 157.09,191.58 148.37,198.21 138.14,203.52 106.65,212.31 89.83,215.94 74.34,220.42 67.65,223.83 61.75,227.76 56.53,232.29 51.87,237.54 47.85,243.36 44.63,249.51 42.25,255.53 40.67,261.90 40.00,269.37 43.37,294.66 50.18,325.34 71.37,420.34 77.91,485.70 88.76,621.97"
        fill="none"
        stroke="#e94560"
        stroke-width="8.0"
        stroke-linejoin="round"
        stroke-linecap="round"/>
  <!-- Start/finish line -->
  <line x1="108.70" y1="620.48" x2="68.82" y2="623.46"
        stroke="#f5f5f5" stroke-width="9.6"
        stroke-linecap="round"/>
</svg>
