<?xml version="1.0" encoding="utf-8"?>
<svg xmlns="http://www.w3.org/2000/svg"
     width="646.3" height="800.0"
     viewBox="0 0 646.3 800.0">
  <rect width="100%" height="100%" fill="#1a1a2e"/>
  <!-- Track outline -->
  <polyline points="532.54,342.86 569.25,405.62 585.99,440.31 597.40,470.86 603.68,496.27 606.32,521.11 604.68,546.01 599.81,569.29 593.44,587.10 585.44,601.68 579.07,610.73 566.47,622.72 525.54,659.26 442.80,716.83 379.94,750.72 362.07,756.54 347.15,759.48 340.15,760.00 333.96,759.71 328.05,758.96 322.36,757.64 317.18,755.74 312.31,753.26 307.90,750.14 303.85,746.46 300.17,742.25 296.94,737.35 294.30,731.18 292.34,724.67 291.16,718.79 290.66,712.91 290.89,707.32 291.84,701.96 293.57,696.78 295.94,691.94 298.80,687.44 302.90,682.83 318.50,669.92 339.83,655.11 380.54,633.44 420.11,609.81 432.75,598.05 443.17,585.78 451.72,572.64 460.63,552.98 466.14,532.01 468.27,510.91 466.68,487.63 456.13,445.79 437.57,396.40 387.40,287.88 335.10,192.03 319.86,171.23 305.62,157.34 296.48,150.71 287.11,145.64 277.11,141.84 264.87,139.01 251.91,137.80 239.22,138.21 227.44,140.16 215.93,143.68 204.97,148.69 194.55,155.38 184.73,163.51 176.45,172.09 169.17,182.99 163.99,193.59 161.53,199.64 159.85,206.04 158.21,218.43 158.12,231.97 160.21,244.59 164.49,256.99 169.45,266.61 175.86,276.12 184.27,285.80 219.80,312.72 258.50,338.94 296.62,370.81 312.36,390.46 324.91,411.50 331.50,428.96 335.19,445.73 335.92,457.37 335.05,468.44 332.96,479.45 329.05,490.34 320.50,504.57 309.49,517.89 296.30,529.53 282.56,538.63 272.33,543.42 262.10,546.41 251.18,548.09 240.13,548.26 229.08,546.99 218.25,544.34 208.43,540.71 198.37,535.00 182.64,522.32 165.44,503.54 133.10,454.09 100.45,395.82 50.32,294.16 43.27,270.01 40.05,247.42 40.00,223.27 43.41,199.58 50.64,177.45 61.51,155.84 81.21,126.45 104.63,99.13 127.97,78.38 152.30,62.07 174.72,51.76 197.60,44.96 221.43,40.81 245.49,40.00 269.83,43.00 293.75,49.68 316.54,59.83 338.74,73.83 362.75,93.71 387.36,119.47 464.32,226.09 532.54,342.86"
        fill="none"
        stroke="#e94560"
        stroke-width="8.0"
        stroke-linejoin="round"
        stroke-linecap="round"/>
  <!-- Start/finish line -->
  <line x1="549.81" y1="332.77" x2="515.28" y2="352.95"
        stroke="#f5f5f5" stroke-width="9.6"
        stroke-linecap="round"/>
</svg>
