<?xml version="1.0" encoding="utf-8"?>
<svg xmlns="http://www.w3.org/2000/svg"
     width="341.4" height="800.0"
     viewBox="0 0 341.4 800.0">
  <rect width="100%" height="100%" fill="#1a1a2e"/>
  <!-- Track outline -->
  <polyline points="109.82,437.98 126.66,271.90 125.48,251.16 122.42,235.84 119.24,227.47 115.26,220.19 110.87,213.07 104.85,205.19 79.38,179.80 54.36,154.44 49.01,146.86 45.44,139.87 42.52,131.54 40.67,123.63 40.13,119.27 40.00,115.20 40.03,111.13 40.57,106.77 42.77,98.83 45.99,90.40 49.81,82.52 54.52,74.68 62.44,63.89 70.34,54.63 73.49,51.65 76.48,49.35 83.36,45.28 90.75,42.30 98.48,40.52 106.38,40.00 110.20,40.26 114.30,40.98 122.14,43.35 129.78,46.33 133.53,48.20 137.04,50.53 143.47,55.78 149.83,62.28 155.09,69.33 159.61,77.47 164.80,91.08 168.52,104.31 169.89,114.97 168.90,179.08 159.86,301.98 151.93,345.09 146.43,378.03 146.49,383.32 147.06,387.38 148.18,391.32 149.99,395.78 152.41,400.11 155.44,403.89 159.35,407.20 163.87,409.92 168.43,411.83 172.28,412.68 176.13,412.91 180.14,412.52 185.49,411.07 191.00,408.81 195.77,406.32 199.43,403.86 202.81,400.67 210.26,391.98 217.26,381.18 221.72,368.88 224.33,357.50 225.00,348.77 224.27,330.33 220.00,307.40 216.43,285.32 216.69,278.10 217.87,272.03 219.81,266.15 222.55,260.68 226.05,255.49 230.22,250.90 234.96,247.19 240.25,244.30 246.01,242.37 251.99,241.35 258.23,241.25 263.97,241.84 266.83,242.37 269.66,243.45 277.40,248.31 284.85,254.18 287.71,257.16 289.97,260.12 292.11,263.17 294.08,266.71 297.07,273.90 299.56,282.13 300.96,290.56 301.40,299.19 300.77,308.25 299.14,317.30 293.29,335.48 284.53,353.49 266.45,379.94 186.32,476.49 177.02,493.10 169.79,510.42 165.40,528.14 163.68,545.85 163.81,554.15 164.99,562.98 169.35,578.56 175.27,593.39 179.19,600.02 184.03,606.35 210.93,636.90 215.83,644.94 219.33,653.50 221.53,662.39 222.23,671.22 221.69,680.04 219.84,688.51 216.94,697.53 212.96,706.06 208.09,714.30 202.55,722.27 195.87,730.11 184.41,741.04 172.37,750.32 165.50,753.93 158.56,756.39 149.17,758.65 140.19,759.90 135.48,760.00 131.18,759.64 122.39,758.06 114.05,755.14 106.19,750.98 102.37,748.39 98.51,745.20 92.82,739.49 87.21,732.47 81.29,722.43 76.58,711.93 74.38,704.32 73.01,696.81 71.26,680.67 71.36,664.07 76.29,630.04 108.73,448.51 109.82,437.98"
        fill="none"
        stroke="#e94560"
        stroke-width="8.0"
        stroke-linejoin="round"
        stroke-linecap="round"/>
  <!-- Start/finish line -->
  <line x1="89.92" y1="435.96" x2="129.71" y2="440.00"
        stroke="#f5f5f5" stroke-width="9.6"
        stroke-linecap="round"/>
</svg>
