<?xml version="1.0" encoding="utf-8"?>
<svg xmlns="http://www.w3.org/2000/svg"
     width="667.4" height="800.0"
     viewBox="0 0 667.4 800.0">
  <rect width="100%" height="100%" fill="#1a1a2e"/>
  <!-- Track outline -->
  <polyline points="267.95,554.82 267.53,551.78 267.44,534.10 278.50,421.40 280.68,404.64 282.06,397.57 285.46,390.66 288.76,386.23 292.68,382.17 297.04,378.93 300.50,377.18 304.22,375.82 308.07,375.00 311.85,374.77 315.70,375.23 319.61,376.29 323.37,377.87 326.80,379.89 330.97,383.49 334.59,387.92 337.41,392.71 339.15,397.54 340.14,402.69 340.59,407.98 340.30,416.57 339.02,425.17 334.62,440.80 322.28,472.69 311.76,504.92 311.18,511.36 311.53,516.68 312.72,521.71 314.74,526.83 317.56,531.66 321.03,535.79 324.01,538.33 327.41,540.55 331.03,542.26 334.72,543.36 339.75,543.72 344.95,543.06 350.02,541.77 355.02,539.85 359.86,537.27 364.38,534.20 370.61,528.35 375.99,521.74 380.10,515.33 383.56,508.59 386.74,501.84 389.59,493.71 394.95,468.56 398.44,442.85 397.80,425.37 395.52,407.75 393.12,399.03 389.91,390.53 385.90,382.14 381.09,374.14 375.35,366.73 368.84,359.96 362.33,354.31 353.83,348.69 282.99,318.32 253.58,305.13 225.68,288.54 162.44,238.80 72.13,160.27 60.62,147.48 50.87,133.76 47.02,126.43 43.91,118.79 41.64,110.93 40.29,102.89 40.00,94.86 40.83,86.90 42.92,79.23 46.06,71.96 50.20,65.25 55.23,59.24 61.26,54.01 68.00,49.62 75.50,46.02 83.52,43.27 92.18,41.22 101.09,40.07 110.49,40.00 119.73,40.86 134.89,44.23 150.00,49.92 164.78,57.62 221.74,99.79 296.43,156.34 315.89,166.55 338.50,174.98 538.17,224.26 572.16,236.72 580.53,240.98 587.75,245.61 594.61,251.16 600.87,257.34 606.41,263.88 611.35,270.82 619.21,285.50 624.34,301.03 627.10,316.86 627.42,324.66 627.00,332.40 625.88,339.83 623.92,347.27 620.75,355.73 616.58,363.86 611.48,371.03 605.55,377.44 599.01,382.83 591.89,387.33 584.25,390.93 576.27,393.64 568.38,395.39 559.56,396.51 523.96,397.64 506.16,399.55 497.76,401.93 489.87,405.40 482.82,410.00 476.53,415.55 471.18,421.90 466.75,428.97 463.51,436.74 461.14,444.96 458.35,462.35 451.13,564.97 432.95,711.48 430.58,720.93 427.82,727.97 424.07,735.38 419.48,742.15 414.25,747.90 408.16,752.76 403.00,755.60 397.35,757.92 391.61,759.41 385.97,760.00 380.26,759.83 374.74,758.91 369.52,757.12 364.48,754.58 359.83,751.47 353.64,745.66 348.41,738.88 344.15,731.35 340.78,723.28 338.15,715.05 336.19,705.83 333.08,669.84 331.32,660.65 328.72,652.52 324.97,644.72 319.58,636.95 306.05,624.43 292.00,612.23 285.46,605.09 280.36,598.12 276.83,591.28 274.08,584.14 269.87,568.61 267.95,554.82"
        fill="none"
        stroke="#e94560"
        stroke-width="8.0"
        stroke-linejoin="round"
        stroke-linecap="round"/>
  <!-- Start/finish line -->
  <line x1="248.14" y1="557.58" x2="287.76" y2="552.07"
        stroke="#f5f5f5" stroke-width="9.6"
        stroke-linecap="round"/>
</svg>
