<?xml version="1.0" encoding="utf-8"?>
<svg xmlns="http://www.w3.org/2000/svg"
     width="567.0" height="800.0"
     viewBox="0 0 567.0 800.0">
  <rect width="100%" height="100%" fill="#1a1a2e"/>
  <!-- Track outline -->
  <polyline points="235.65,479.89 251.33,368.97 250.29,333.19 247.42,315.91 242.28,299.87 235.03,285.28 231.01,278.48 226.20,272.04 220.55,267.98 210.71,259.27 136.93,196.50 68.85,142.36 58.01,131.52 52.99,125.14 48.69,118.48 45.84,112.48 43.64,106.38 41.82,100.22 40.60,93.78 40.00,86.06 40.46,78.27 41.55,73.46 43.18,68.75 45.38,64.39 48.18,60.38 51.52,56.71 55.21,53.41 61.49,49.16 68.36,45.71 75.94,42.86 83.66,40.90 90.31,40.06 96.89,40.00 103.60,40.73 110.28,42.18 123.65,47.20 137.04,54.31 209.38,108.40 255.65,144.26 261.11,150.36 265.10,156.13 272.52,169.93 276.94,182.11 279.80,195.24 282.89,223.97 283.82,346.57 280.72,376.58 272.63,419.86 271.57,427.65 271.38,434.34 272.30,440.95 274.34,447.27 276.54,451.70 279.36,455.98 282.68,459.48 285.42,461.41 288.46,463.01 291.70,464.13 294.93,464.63 298.46,464.41 302.13,463.46 305.74,462.08 309.06,460.43 314.57,456.48 319.41,451.61 323.86,445.73 327.69,439.38 333.21,427.00 337.34,413.12 338.97,397.91 334.62,311.43 337.72,264.17 341.38,236.06 342.80,228.90 344.72,222.54 347.66,216.33 351.33,210.47 355.70,205.01 360.67,200.03 366.19,195.47 372.22,191.66 378.76,188.86 385.66,186.93 392.86,185.81 400.23,185.39 415.71,186.03 431.90,187.99 448.66,191.52 461.30,195.38 473.57,200.59 485.26,207.79 496.37,216.55 506.45,226.80 514.89,238.39 521.12,251.21 525.22,264.68 526.88,278.45 526.96,292.00 526.36,298.36 525.14,304.71 522.75,312.19 519.43,319.41 515.44,325.54 510.71,330.89 505.41,335.09 499.60,338.34 493.49,340.44 487.13,341.70 473.90,342.06 460.15,340.91 446.44,340.27 439.48,341.22 433.23,342.96 426.79,345.45 420.71,348.72 415.22,352.84 410.36,357.65 406.28,363.14 402.75,369.08 396.53,382.04 392.29,394.58 388.49,411.77 378.36,569.09 369.39,629.90 362.49,655.96 358.17,668.11 352.87,679.93 339.35,702.94 322.10,724.47 300.63,745.47 294.58,750.43 288.57,754.26 281.70,757.06 274.53,758.91 267.33,759.94 260.16,760.00 253.23,758.85 246.57,756.70 240.19,753.56 234.32,749.50 229.21,744.60 224.84,738.97 221.17,732.42 218.24,725.34 215.96,718.09 214.27,710.00 212.51,697.03 211.91,680.12 226.61,543.78 235.65,479.89"
        fill="none"
        stroke="#e94560"
        stroke-width="8.0"
        stroke-linejoin="round"
        stroke-linecap="round"/>
  <!-- Start/finish line -->
  <line x1="215.85" y1="477.09" x2="255.45" y2="482.69"
        stroke="#f5f5f5" stroke-width="9.6"
        stroke-linecap="round"/>
</svg>
