<?xml version="1.0" encoding="utf-8"?>
<svg xmlns="http://www.w3.org/2000/svg"
     width="620.4" height="800.0"
     viewBox="0 0 620.4 800.0">
  <rect width="100%" height="100%" fill="#1a1a2e"/>
  <!-- Track outline -->
  <polyline points="537.44,413.03 522.64,433.61 498.32,467.82 486.69,478.95 474.12,488.90 462.49,496.14 450.29,501.29 441.33,503.38 432.05,504.34 423.05,503.55 416.24,501.51 409.43,498.35 403.19,494.28 398.12,489.47 394.35,483.82 391.51,477.26 389.61,470.25 388.60,463.35 388.84,454.25 390.66,445.09 393.34,436.10 398.61,423.94 406.03,410.54 450.45,336.93 455.60,323.93 458.56,311.83 460.91,295.43 461.11,278.64 458.72,263.04 454.06,248.23 447.33,235.00 438.66,223.29 432.13,216.85 424.87,211.25 417.13,206.73 409.11,203.28 400.63,200.90 391.88,200.00 384.30,200.40 376.35,201.81 368.65,204.13 361.80,207.46 355.97,211.70 350.70,217.02 346.12,222.95 342.47,229.40 338.50,245.17 336.87,262.08 334.77,292.49 331.48,308.21 326.90,323.36 315.43,347.79 264.52,426.26 257.47,440.00 252.64,452.78 248.35,469.23 246.28,486.08 246.64,496.42 248.14,506.54 250.82,516.16 254.59,524.75 259.49,532.83 265.29,540.18 276.23,549.80 288.96,557.99 320.54,572.41 376.76,593.67 404.32,607.63 428.28,622.84 448.59,640.48 459.53,652.81 468.94,666.32 473.35,674.74 476.88,683.39 478.87,692.33 479.27,699.73 478.74,707.48 477.33,715.05 474.98,721.95 470.44,729.70 464.40,736.59 457.34,742.64 448.38,748.13 438.25,752.54 427.83,755.93 411.94,758.81 396.05,760.00 368.65,759.38 339.06,754.63 308.38,744.96 277.98,729.53 248.35,708.83 211.87,677.96 174.86,648.96 158.93,640.88 144.01,635.79 127.96,632.57 111.95,629.63 96.87,625.50 82.80,619.67 74.54,614.19 66.91,607.63 60.19,600.40 51.88,588.18 45.67,574.67 41.86,559.46 40.12,543.97 40.00,530.74 41.30,517.68 43.93,503.89 47.86,490.09 60.23,461.60 78.06,431.58 181.95,283.90 249.16,171.62 269.95,145.22 302.66,110.95 344.74,75.51 374.69,58.15 402.30,46.61 415.11,42.88 428.28,40.57 444.29,40.00 460.42,41.58 475.06,45.31 488.59,51.14 496.50,56.00 503.75,61.77 509.96,68.33 514.90,75.22 518.83,82.86 521.67,91.84 522.32,120.57 521.27,150.02 522.77,164.44 525.68,177.44 530.83,190.45 538.09,204.35 555.84,232.00 572.54,260.38 577.85,276.27 580.28,291.53 580.36,308.33 578.42,324.78 575.42,338.12 571.16,351.01 558.60,378.77 541.69,407.10 537.44,413.03"
        fill="none"
        stroke="#e94560"
        stroke-width="8.0"
        stroke-linejoin="round"
        stroke-linecap="round"/>
  <!-- Start/finish line -->
  <line x1="553.68" y1="424.70" x2="521.20" y2="401.36"
        stroke="#f5f5f5" stroke-width="9.6"
        stroke-linecap="round"/>
</svg>
