<?xml version="1.0" encoding="utf-8"?>
<svg xmlns="http://www.w3.org/2000/svg"
     width="800.0" height="479.8"
     viewBox="0 0 800.0 479.8">
  <rect width="100%" height="100%" fill="#1a1a2e"/>
  <!-- Track outline -->
  <polyline points="596.58,116.58 617.12,106.55 638.05,97.90 657.79,91.94 676.10,88.30 693.00,87.26 704.07,87.90 715.21,89.75 724.89,93.02 733.75,97.53 741.46,103.08 744.89,106.25 748.00,109.68 750.56,113.25 752.77,116.98 756.27,124.99 758.63,133.61 759.67,142.63 760.00,151.72 759.58,156.47 758.69,160.81 757.16,165.32 754.92,170.00 750.18,177.57 744.95,184.47 742.32,187.30 739.43,189.79 725.78,199.18 711.66,206.66 696.55,212.58 528.86,257.79 509.84,266.00 494.28,275.76 484.43,283.50 475.41,292.29 469.23,300.57 464.81,309.29 463.20,314.91 462.30,320.63 462.18,325.92 462.60,329.49 463.47,332.78 464.84,336.05 467.35,340.33 470.63,344.57 474.54,348.27 479.92,351.60 486.01,354.26 491.53,356.15 495.68,357.05 499.92,357.32 508.79,356.92 517.60,355.81 525.57,353.59 534.92,349.72 615.75,304.07 638.20,293.94 660.66,286.70 671.11,285.19 681.50,284.99 691.86,286.16 701.86,288.72 706.28,290.41 710.88,292.73 719.84,298.48 727.81,305.22 729.84,307.91 731.28,310.60 732.29,313.56 733.07,317.67 733.25,322.18 732.86,326.79 730.47,334.97 726.92,342.68 720.02,352.48 713.54,361.06 705.84,369.14 698.55,373.41 688.58,377.28 551.70,419.50 492.31,435.99 470.93,439.39 449.28,439.83 427.72,437.50 406.35,432.39 385.74,424.04 366.33,413.37 348.45,399.87 316.17,367.96 298.70,353.08 279.17,340.63 243.58,325.92 228.59,322.18 205.87,318.78 143.88,319.39 128.50,317.74 107.00,312.39 77.98,299.97 73.41,297.41 69.47,294.51 63.29,288.89 57.23,281.75 50.45,270.61 44.99,258.80 42.30,250.48 40.75,242.40 40.00,234.36 40.21,226.21 41.64,216.92 43.82,208.31 45.40,203.39 47.46,198.61 57.95,181.44 70.84,166.23 85.30,151.49 99.96,131.52 113.87,109.11 120.89,92.34 127.64,76.66 132.36,69.39 137.01,63.56 143.88,56.49 151.70,50.20 160.33,45.42 169.44,42.02 173.53,40.94 177.92,40.24 184.97,40.00 192.28,40.61 198.25,42.09 203.69,44.17 207.60,46.26 211.45,48.95 225.67,61.64 232.18,69.12 243.67,86.35 250.93,101.03 268.04,150.75 276.16,168.01 285.50,183.06 295.75,194.64 307.36,204.37 321.19,212.75 335.13,219.01 344.48,221.77 353.55,223.42 372.34,224.83 391.53,223.49 410.59,219.68 428.83,213.29 596.58,116.58"
        fill="none"
        stroke="#e94560"
        stroke-width="8.0"
        stroke-linejoin="round"
        stroke-linecap="round"/>
  <!-- Start/finish line -->
  <line x1="586.72" y1="99.18" x2="606.44" y2="133.98"
        stroke="#f5f5f5" stroke-width="9.6"
        stroke-linecap="round"/>
</svg>
