<?xml version="1.0" encoding="utf-8"?>
<svg xmlns="http://www.w3.org/2000/svg"
     width="438.6" height="800.0"
     viewBox="0 0 438.6 800.0">
  <rect width="100%" height="100%" fill="#1a1a2e"/>
  <!-- Track outline -->
  <polyline points="40.16,642.88 40.34,645.30 41.00,649.75 42.00,654.16 43.34,658.50 45.02,662.71 47.06,666.75 49.42,670.65 51.99,674.40 54.74,678.06 57.62,681.67 60.57,685.22 63.62,688.76 66.75,692.25 69.97,695.71 73.31,699.06 76.79,702.31 80.37,705.48 84.05,708.59 87.80,711.68 91.59,714.70 95.47,717.69 99.45,720.60 103.49,723.48 107.58,726.24 111.73,728.98 115.96,731.68 120.27,734.27 124.65,736.80 129.13,739.21 133.69,741.48 138.37,743.63 143.09,745.64 147.91,747.53 152.77,749.30 157.69,750.99 162.69,752.53 167.75,753.95 172.84,755.20 177.97,756.31 183.17,757.24 188.42,758.05 193.71,758.72 199.02,759.24 204.36,759.62 209.72,759.88 215.10,760.00 220.48,759.94 225.84,759.74 231.22,759.33 236.58,758.72 241.96,757.96 247.32,757.06 252.63,755.99 257.97,754.77 263.26,753.37 268.51,751.83 273.73,750.09 278.88,748.14 283.97,745.96 288.97,743.60 293.85,741.04 298.66,738.31 303.39,735.40 308.04,732.38 312.58,729.15 317.03,725.75 321.39,722.14 325.59,718.42 329.70,714.58 333.66,710.57 337.47,706.44 341.15,702.17 344.69,697.78 348.10,693.30 351.39,688.68 354.55,683.97 357.59,679.17 360.54,674.29 363.40,669.43 366.20,664.63 368.97,659.95 371.71,655.33 374.48,650.79 377.32,646.37 380.21,642.10 383.16,638.03 386.04,634.04 388.77,630.09 391.22,626.16 393.35,622.21 395.10,618.17 396.44,614.07 397.37,609.94 398.01,605.81 398.39,601.77 398.55,597.82 398.42,593.98 397.94,590.20 397.15,586.51 396.03,582.90 394.60,579.41 393.04,575.98 391.51,572.52 390.20,569.00 389.13,565.34 388.27,561.59 387.54,557.75 386.95,553.85 386.50,549.93 386.13,545.89 385.86,541.85 385.61,537.75 385.41,533.65 385.22,529.49 385.04,525.30 384.86,521.06 384.68,516.81 384.45,512.51 384.25,508.18 384.00,503.81 383.73,499.42 383.45,494.98 383.16,490.50 382.86,485.99 382.61,481.48 382.39,476.92 382.16,472.33 381.91,467.70 381.66,463.05 381.39,458.37 381.07,453.63 380.73,448.89 380.37,444.15 379.96,439.35 379.52,434.56 379.07,429.73 378.57,424.90 378.05,420.05 377.48,415.16 376.89,410.25 376.30,405.34 375.69,400.39 375.05,395.42 374.42,390.42 373.76,385.42 373.08,380.39 372.42,375.33 371.74,370.24 371.05,365.15 370.37,360.04 369.69,354.89 369.03,349.71 368.40,344.54 367.74,339.33 367.10,334.10 366.47,328.87 365.83,323.60 365.17,318.31 364.47,313.02 363.79,307.70 363.08,302.38 362.43,297.03 361.77,291.65 361.11,286.27 360.47,280.86 359.84,275.43 359.18,269.99 358.47,264.55 357.77,259.06 357.07,253.56 356.34,248.07 355.61,242.54 354.89,236.99 354.16,231.43 353.41,225.88 352.62,220.30 351.80,214.72 350.96,209.13 350.05,203.52 349.05,197.91 347.94,192.33 346.67,186.80 345.19,181.42 343.47,176.28 341.47,171.28 339.24,166.48 336.79,161.80 334.11,157.29 331.18,153.05 328.05,149.06 324.73,145.34 321.26,141.91 317.62,138.74 313.81,135.92 309.88,133.36 305.88,131.09 301.86,129.03 297.82,127.20 293.74,125.71 289.53,124.70 285.22,124.17 280.86,124.12 276.45,124.35 272.05,124.76 267.64,125.16 263.19,125.48 258.72,125.57 254.22,125.42 249.75,124.99 245.30,124.23 240.94,123.21 236.69,121.91 232.58,120.25 228.63,118.24 224.84,115.86 221.25,113.24 217.89,110.45 214.76,107.40 211.85,104.11 209.04,100.65 206.31,97.13 203.63,93.56 200.97,89.92 198.34,86.26 195.68,82.57 193.00,78.82 190.26,75.09 187.44,71.40 184.60,67.80 181.72,64.28 178.81,60.88 175.86,57.59 172.84,54.48 169.75,51.63 166.62,49.10 163.44,46.83 160.21,44.86 156.92,43.20 153.58,41.86 150.27,40.90 146.95,40.29 143.73,40.03 140.59,40.00 137.55,40.20 134.65,40.67 131.88,41.42 129.29,42.47 126.88,43.78 124.72,45.29 122.79,47.04 121.13,48.98 119.75,51.11 118.64,53.43 117.84,55.90 117.30,58.46 117.00,61.14 116.89,63.84 117.00,66.63 117.32,69.45 117.84,72.30 118.52,75.12 119.30,77.94 120.20,80.73 121.20,83.56 122.32,86.38 123.50,89.23 124.68,92.10 125.83,95.01 126.95,98.01 128.06,101.09 129.15,104.20 130.22,107.37 131.26,110.62 132.33,113.91 133.42,117.28 134.49,120.68 135.55,124.14 136.62,127.60 137.69,131.12 138.73,134.67 139.80,138.28 140.87,141.88 141.96,145.57 143.07,149.30 144.18,153.05 145.32,156.88 146.43,160.75 147.54,164.65 148.63,168.57 149.70,172.53 150.79,176.54 151.90,180.55 153.04,184.62 154.17,188.69 155.31,192.82 156.44,197.01 157.60,201.20 158.83,205.41 160.17,209.63 161.67,213.81 163.35,217.94 165.23,221.98 167.32,225.85 169.62,229.46 172.11,232.77 174.79,235.82 177.61,238.59 180.49,241.09 183.47,243.36 186.56,245.33 189.78,247.02 193.10,248.39 196.48,249.46 199.91,250.22 203.29,250.71 206.61,251.09 209.81,251.55 212.90,252.22 215.89,253.15 218.80,254.35 221.57,255.80 224.14,257.51 226.50,259.55 228.59,261.82 230.47,264.26 232.15,266.88 233.58,269.61 234.74,272.46 235.58,275.37 236.10,278.39 236.35,281.44 236.31,284.53 235.99,287.61 235.35,290.63 234.45,293.66 233.42,296.68 232.36,299.73 231.33,302.84 230.36,306.04 229.40,309.30 228.41,312.58 227.34,315.90 226.20,319.27 225.02,322.64 223.82,326.08 222.61,329.56 221.39,333.08 220.21,336.66 219.12,340.29 218.14,344.01 217.32,347.82 216.71,351.69 216.30,355.65 216.10,359.66 216.03,363.70 216.14,367.83 216.39,371.96 216.85,376.11 217.51,380.27 218.37,384.40 219.44,388.47 220.75,392.51 222.32,396.47 224.16,400.25 226.27,403.88 228.66,407.34 231.31,410.66 234.20,413.77 237.33,416.67 240.69,419.32 244.23,421.70 247.93,423.86 251.77,425.75 255.72,427.46 259.76,429.12 263.76,430.92 267.69,432.90 271.53,435.08 275.23,437.43 278.82,440.02 282.29,442.84 285.61,445.87 288.76,449.09 291.71,452.50 294.51,456.04 297.19,459.76 299.73,463.60 302.16,467.53 304.48,471.60 306.63,475.76 308.63,480.06 310.43,484.45 312.04,488.96 313.45,493.52 314.67,498.20 315.69,502.94 316.53,507.74 317.17,512.57 317.67,517.45 317.99,522.36 318.15,527.31 318.17,532.31 318.06,537.31 317.85,542.40 317.60,547.52 317.24,552.66 316.76,557.78 316.13,562.93 315.35,568.07 314.42,573.22 313.33,578.36 312.11,583.48 310.77,588.60 309.29,593.69 307.70,598.75 305.95,603.81 304.07,608.84 302.07,613.81 299.93,618.81 297.71,623.78 295.42,628.72 293.01,633.64 290.44,638.52 287.76,643.38 284.99,648.15 282.15,652.77 279.27,657.16 276.32,661.29 273.25,665.16 270.10,668.82 266.83,672.19 263.40,675.30 259.90,678.12 256.34,680.71 252.73,683.01 249.05,685.04 245.28,686.76 241.42,688.21 237.56,689.32 233.72,690.10 229.93,690.60 226.25,690.80 222.68,690.71 219.21,690.31 215.85,689.61 212.62,688.71 209.58,687.57 206.77,686.12 204.22,684.26 201.91,682.02 199.91,679.55 198.27,676.93 197.02,674.23 196.14,671.41 195.64,668.50 195.48,665.59 195.66,662.68 196.18,659.86 197.00,657.07 198.09,654.31 199.36,651.52 200.72,648.73 202.18,645.94 203.70,643.15 205.36,640.35 207.13,637.62 209.01,634.92 211.06,632.30 213.24,629.74 215.58,627.27 218.05,624.91 220.68,622.68 223.50,620.55 226.48,618.58 229.59,616.77 232.81,615.15 236.15,613.66 239.53,612.30 242.96,610.87 246.34,609.36 249.66,607.67 252.86,605.75 255.90,603.57 258.77,601.10 261.38,598.40 263.69,595.49 265.67,592.41 267.28,589.21 268.64,585.95 269.71,582.73 270.48,579.50 270.85,576.27 270.85,573.01 270.53,569.76 269.91,566.56 268.98,563.45 267.76,560.54 266.24,557.75 264.47,555.10 262.49,552.55 260.31,550.13 257.95,547.86 255.36,545.89 252.57,544.26 249.57,543.10 246.41,542.40 243.17,542.11 239.87,542.14 236.58,542.46 233.36,543.04 230.20,543.88 227.11,544.99 224.09,546.38 221.14,548.01 218.26,549.84 215.46,551.85 212.74,554.00 210.03,556.27 207.33,558.56 204.56,560.86 201.68,563.13 198.66,565.22 195.46,567.08 192.10,568.65 188.58,569.90 184.97,570.89 181.29,571.56 177.54,571.97 173.75,572.06 170.00,571.85 166.32,571.30 162.78,570.46 159.42,569.38 156.22,568.04 153.22,566.44 150.40,564.61 147.41,562.69 144.52,561.06 140.55,558.97 137.10,557.28 133.56,555.80 129.90,554.55 126.13,553.71 122.25,553.27 118.32,553.30 114.39,553.62 110.51,554.23 106.67,555.13 102.92,556.33 99.27,557.81 95.75,559.55 92.27,561.53 88.89,563.71 85.57,566.04 82.26,568.42 78.97,570.89 75.67,573.42 72.43,576.07 69.22,578.80 66.09,581.68 63.07,584.67 60.16,587.87 57.42,591.25 54.78,594.73 52.26,598.37 49.88,602.09 47.70,605.99 45.81,610.06 44.18,614.24 42.82,618.52 41.73,622.85 40.86,627.27 40.30,631.72 40.00,636.23 40.00,640.73 40.16,642.88"
        fill="none"
        stroke="#e94560"
        stroke-width="8.0"
        stroke-linejoin="round"
        stroke-linecap="round"/>
  <!-- Start/finish line -->
  <line x1="60.10" y1="641.40" x2="20.21" y2="644.37"
        stroke="#f5f5f5" stroke-width="9.6"
        stroke-linecap="round"/>
</svg>
