<?xml version="1.0" encoding="utf-8"?>
<svg xmlns="http://www.w3.org/2000/svg"
     width="800.0" height="576.5"
     viewBox="0 0 800.0 576.5">
  <rect width="100%" height="100%" fill="#1a1a2e"/>
  <!-- Track outline -->
  <polyline points="366.06,515.05 468.29,532.44 542.08,536.49 570.38,532.44 612.70,522.14 660.66,496.31 685.53,478.92 707.92,458.50 726.47,434.69 741.31,405.83 752.44,373.58 758.76,342.01 760.00,316.18 757.53,290.86 751.21,265.54 736.92,233.63 716.72,201.73 693.36,172.86 665.74,146.02 634.41,122.55 598.82,101.96 512.67,69.04 420.20,47.77 342.98,40.00 269.88,43.55 228.79,51.31 189.77,63.13 154.32,79.33 126.98,96.72 102.52,117.32 81.63,140.78 65.69,165.09 52.92,191.94 44.26,220.13 40.00,250.85 40.00,282.93 44.67,313.82 54.56,343.53 69.40,371.73 87.82,397.22 113.10,422.37 143.19,444.15 178.09,463.22 269.60,494.29 366.06,515.05"
        fill="none"
        stroke="#e94560"
        stroke-width="8.0"
        stroke-linejoin="round"
        stroke-linecap="round"/>
  <!-- Start/finish line -->
  <line x1="369.83" y1="495.41" x2="362.29" y2="534.69"
        stroke="#f5f5f5" stroke-width="9.6"
        stroke-linecap="round"/>
</svg>
