<?xml version="1.0" encoding="utf-8"?>
<svg xmlns="http://www.w3.org/2000/svg"
     width="800.0" height="412.9"
     viewBox="0 0 800.0 412.9">
  <rect width="100%" height="100%" fill="#1a1a2e"/>
  <!-- Track outline -->
  <polyline points="401.96,79.00 549.81,58.53 694.85,41.12 714.37,40.00 728.40,40.39 733.58,41.46 737.93,43.02 742.69,45.11 747.05,47.65 750.25,50.26 752.97,53.19 755.27,56.35 757.13,59.76 758.54,63.59 759.48,67.27 760.00,71.33 759.95,79.71 758.68,88.77 755.78,99.69 751.40,111.23 735.09,142.12 717.87,169.28 711.20,177.71 703.90,185.31 692.92,194.44 681.63,202.12 674.57,205.89 669.42,207.81 663.99,209.08 660.76,209.37 657.57,209.30 654.55,208.76 652.51,208.05 650.52,207.08 648.70,205.91 647.15,204.56 645.91,203.05 644.86,201.31 644.06,199.50 643.57,197.77 643.41,196.43 643.45,195.09 643.70,193.78 644.16,192.45 645.51,190.23 647.49,187.99 649.88,185.56 658.17,178.35 666.25,171.09 668.91,167.68 670.95,164.10 673.77,157.37 675.78,150.60 676.21,147.30 676.22,144.21 676.06,140.70 675.43,136.88 673.27,130.05 670.44,123.51 668.66,120.55 666.44,117.85 661.06,112.66 655.01,107.94 651.05,105.78 647.09,104.16 643.01,102.69 638.41,101.57 629.75,100.40 619.48,100.34 584.81,108.30 384.38,161.91 371.21,167.43 360.99,173.59 344.36,186.47 329.26,201.25 321.30,212.00 314.22,224.33 285.85,284.09 260.51,321.85 252.24,331.37 243.82,339.30 234.82,346.26 225.02,352.32 213.33,357.91 200.29,362.65 162.04,371.12 134.64,372.95 123.35,372.11 112.35,370.25 100.60,367.32 89.40,363.38 80.55,359.01 72.47,353.74 64.76,347.15 57.91,339.75 52.41,332.15 47.89,323.98 44.36,315.18 41.84,305.89 40.35,295.81 40.00,285.21 41.02,272.48 43.37,259.65 46.77,247.89 51.35,236.42 57.51,224.32 65.02,212.51 85.29,189.15 111.07,166.60 141.68,145.03 176.03,127.13 213.18,112.98 257.77,101.55 349.46,86.27 401.96,79.00"
        fill="none"
        stroke="#e94560"
        stroke-width="8.0"
        stroke-linejoin="round"
        stroke-linecap="round"/>
  <!-- Start/finish line -->
  <line x1="399.22" y1="59.19" x2="404.70" y2="98.82"
        stroke="#f5f5f5" stroke-width="9.6"
        stroke-linecap="round"/>
</svg>
