<?xml version="1.0" encoding="utf-8"?>
<svg xmlns="http://www.w3.org/2000/svg"
     width="514.0" height="800.0"
     viewBox="0 0 514.0 800.0">
  <rect width="100%" height="100%" fill="#1a1a2e"/>
  <!-- Track outline -->
  <polyline points="186.32,50.22 183.14,50.50 145.42,58.89 120.11,67.89 98.51,78.98 83.07,90.07 70.06,102.84 58.86,117.77 54.18,125.44 49.96,134.20 44.21,150.13 40.00,170.16 42.84,263.77 56.12,524.41 61.90,551.70 69.59,572.65 78.89,590.50 90.39,607.66 101.46,618.56 112.59,626.69 119.18,630.07 126.20,632.39 138.90,635.50 153.28,636.87 172.91,634.08 188.79,629.70 191.00,628.70 193.11,627.19 214.54,608.94 239.68,588.53 248.94,583.10 257.77,579.68 265.26,578.08 273.12,577.31 280.37,577.35 287.76,578.63 294.69,581.10 302.84,585.34 310.60,590.82 317.56,597.43 323.31,604.19 326.02,608.02 328.19,611.81 330.33,616.01 332.50,621.71 340.56,660.74 349.89,702.45 354.54,713.17 359.48,721.66 364.33,729.15 370.02,736.22 378.98,745.62 389.34,753.61 396.37,756.81 403.75,758.90 411.08,759.95 417.76,760.00 424.42,759.04 431.01,756.90 439.53,751.83 447.99,745.03 454.58,738.87 457.92,735.22 460.60,731.06 466.95,717.19 472.13,702.40 473.44,696.29 474.00,690.63 473.90,677.12 457.65,591.50 416.73,360.61 414.96,355.91 412.72,352.22 402.75,337.25 389.74,322.28 382.79,317.39 375.50,313.74 368.21,310.91 358.08,308.13 348.22,306.76 340.49,306.67 332.97,307.35 325.05,308.54 317.22,310.50 309.83,313.19 302.34,316.94 291.37,323.83 280.78,332.64 271.58,344.23 264.12,356.64 259.88,365.50 256.27,375.90 247.84,413.92 238.78,450.57 234.43,458.74 229.99,464.72 226.47,468.91 222.70,472.66 217.92,476.58 212.30,480.23 203.00,485.07 192.94,488.81 184.55,490.23 176.29,490.23 168.09,489.04 160.27,486.53 153.25,482.74 146.66,477.59 138.74,468.82 131.82,459.15 127.74,451.89 124.46,444.50 119.01,427.61 115.33,406.12 109.51,321.04 110.52,237.39 112.62,224.20 115.80,213.56 119.55,204.89 124.56,196.91 133.59,187.32 142.68,179.52 149.44,175.23 164.32,167.97 179.66,163.41 196.92,160.53 228.11,159.39 259.68,157.25 269.57,154.46 279.14,150.45 333.57,124.39 353.87,119.18 374.50,115.21 390.28,110.15 394.46,107.50 397.77,104.67 400.41,101.61 402.72,98.14 404.89,93.72 406.60,88.70 407.70,83.59 408.03,78.84 407.67,75.10 406.76,71.54 405.36,68.07 403.49,64.74 399.44,59.44 394.19,54.38 388.34,50.13 381.95,46.75 374.87,44.29 366.14,42.33 331.00,40.00 288.53,40.87 186.32,50.22"
        fill="none"
        stroke="#e94560"
        stroke-width="8.0"
        stroke-linejoin="round"
        stroke-linecap="round"/>
  <!-- Start/finish line -->
  <line x1="188.14" y1="70.14" x2="184.50" y2="30.31"
        stroke="#f5f5f5" stroke-width="9.6"
        stroke-linecap="round"/>
</svg>
