<?xml version="1.0" encoding="utf-8"?>
<svg xmlns="http://www.w3.org/2000/svg"
     width="417.4" height="800.0"
     viewBox="0 0 417.4 800.0">
  <rect width="100%" height="100%" fill="#1a1a2e"/>
  <!-- Track outline -->
  <polyline points="42.30,412.45 40.00,516.30 42.36,611.61 49.24,648.79 57.18,677.84 59.89,685.19 63.09,691.41 70.20,702.94 79.41,714.63 93.48,727.38 109.40,738.44 126.21,747.17 143.97,753.63 163.89,758.15 184.85,760.00 209.92,758.54 234.59,753.94 253.62,747.80 271.55,738.95 289.66,726.28 307.39,709.83 329.32,684.09 349.07,654.46 362.80,625.26 372.41,596.50 375.98,576.94 377.39,559.74 377.13,542.15 360.01,193.15 355.06,160.89 348.26,137.20 340.29,116.03 335.77,107.76 330.96,101.07 319.02,88.01 305.69,76.52 287.09,64.63 263.17,53.65 236.32,44.49 212.45,40.87 191.84,40.00 184.47,40.12 177.22,41.18 157.88,46.41 138.01,53.69 127.97,58.73 118.99,64.48 109.80,71.05 100.42,79.70 84.04,100.88 69.48,123.54 63.86,134.32 59.95,144.08 56.44,158.01 54.82,175.01 42.42,407.06 42.30,412.45"
        fill="none"
        stroke="#e94560"
        stroke-width="8.0"
        stroke-linejoin="round"
        stroke-linecap="round"/>
  <!-- Start/finish line -->
  <line x1="62.30" y1="412.90" x2="22.31" y2="412.01"
        stroke="#f5f5f5" stroke-width="9.6"
        stroke-linecap="round"/>
</svg>
