<?xml version="1.0" encoding="utf-8"?>
<svg xmlns="http://www.w3.org/2000/svg"
     width="513.5" height="800.0"
     viewBox="0 0 513.5 800.0">
  <rect width="100%" height="100%" fill="#1a1a2e"/>
  <!-- Track outline -->
  <polyline points="194.80,46.03 187.32,46.62 152.97,53.38 124.59,62.54 103.66,72.93 85.72,85.53 72.10,99.41 60.97,115.10 48.67,140.91 45.81,151.25 41.03,188.53 40.00,237.10 43.65,390.34 54.69,532.20 59.90,555.46 66.98,573.15 71.60,582.40 77.55,591.93 88.64,606.12 102.40,619.59 120.90,630.88 137.52,638.41 141.47,639.64 145.33,640.32 168.05,642.63 239.95,641.68 259.62,645.22 278.00,651.38 294.94,660.59 310.03,671.70 330.66,693.70 348.60,718.64 367.61,742.04 376.05,748.44 384.45,753.06 393.12,756.51 402.13,758.82 411.36,760.00 419.64,760.00 424.62,759.23 429.04,757.78 433.66,755.56 441.14,750.70 448.91,744.35 455.32,738.05 459.74,732.11 463.23,725.49 468.48,712.65 472.37,699.18 473.46,691.29 473.36,682.72 465.32,633.92 452.47,575.83 435.45,467.94 415.45,368.12 407.64,351.25 398.67,339.18 386.58,327.48 374.32,318.68 368.37,315.60 362.06,313.61 347.50,311.29 332.85,310.66 326.31,311.52 320.46,313.06 308.27,317.73 294.31,325.94 287.80,330.66 281.39,336.60 271.65,348.03 261.92,363.72 246.53,411.11 231.55,456.73 226.66,464.76 221.78,470.70 216.20,475.92 209.42,480.86 201.94,484.99 194.67,488.03 186.49,490.07 178.49,490.70 170.15,490.16 162.60,488.75 158.75,487.62 154.93,485.90 145.29,480.27 135.29,472.29 126.59,460.77 120.14,449.21 118.01,443.99 116.59,438.91 113.56,424.22 110.60,332.29 112.47,245.49 114.76,232.34 119.21,219.00 125.62,206.62 133.86,195.92 138.38,191.16 144.03,186.53 158.28,177.91 174.07,170.66 184.17,168.12 194.03,166.71 215.63,164.63 253.08,163.54 259.69,162.95 266.43,161.50 290.59,150.93 320.16,137.55 357.84,126.80 389.57,116.05 395.32,112.02 399.47,107.89 402.66,103.22 404.55,99.41 405.95,95.28 406.81,90.98 407.01,86.53 406.31,80.91 404.72,74.92 402.36,69.02 399.44,63.72 394.39,57.55 388.24,52.11 381.89,47.76 373.49,44.13 365.25,41.90 353.68,40.14 268.13,40.00 194.80,46.03"
        fill="none"
        stroke="#e94560"
        stroke-width="8.0"
        stroke-linejoin="round"
        stroke-linecap="round"/>
  <!-- Start/finish line -->
  <line x1="196.43" y1="65.96" x2="193.17" y2="26.10"
        stroke="#f5f5f5" stroke-width="9.6"
        stroke-linecap="round"/>
</svg>
