<?xml version="1.0" encoding="utf-8"?>
<svg xmlns="http://www.w3.org/2000/svg"
     width="672.8" height="800.0"
     viewBox="0 0 672.8 800.0">
  <rect width="100%" height="100%" fill="#1a1a2e"/>
  <!-- Track outline -->
  <polyline points="176.12,403.85 244.36,273.83 252.27,257.83 258.15,244.13 265.64,223.89 279.96,178.58 289.55,148.10 312.97,80.25 317.40,69.70 321.68,61.23 326.15,53.97 330.85,48.60 336.43,43.98 342.58,40.99 348.66,40.00 355.42,40.43 362.37,42.12 369.52,45.23 607.68,180.78 618.65,187.70 624.57,192.63 629.08,197.86 631.41,203.70 632.78,210.31 632.44,217.15 631.48,223.68 629.08,230.42 625.64,237.60 621.97,243.82 616.66,249.32 610.62,252.86 603.75,254.33 597.14,254.37 588.85,252.39 580.79,249.19 414.94,172.74 408.29,170.54 402.68,169.71 397.44,170.41 392.21,172.18 387.36,175.42 382.54,179.70 378.65,184.54 376.28,189.65 374.63,194.53 374.29,199.38 375.17,204.74 377.16,208.84 380.56,212.30 385.60,215.50 487.34,273.18 491.58,276.30 495.93,279.93 499.79,284.51 502.62,289.31 504.03,294.76 504.45,300.47 504.26,307.90 502.85,314.22 500.44,321.18 497.35,327.14 493.26,333.76 482.07,345.48 466.36,355.68 452.11,361.99 439.47,363.42 427.74,363.29 417.31,360.96 406.69,356.81 396.11,351.83 382.54,345.52 368.75,339.51 354.96,336.48 340.90,336.53 328.48,340.59 317.71,348.63 309.15,358.62 302.27,368.00 295.55,379.42 293.22,385.08 292.19,390.83 292.57,396.41 295.70,401.95 300.56,406.79 305.75,409.86 314.00,412.37 398.21,425.64 438.02,425.68 539.26,422.44 546.48,422.66 554.01,424.08 561.53,427.85 567.42,432.64 574.25,440.34 578.72,448.69 581.09,457.12 581.78,466.20 580.33,476.06 577.39,485.05 572.99,492.49 566.69,499.79 559.43,503.60 550.99,505.98 542.43,506.28 534.71,505.76 520.00,503.47 468.16,494.35 458.91,493.78 451.96,494.17 445.31,496.42 437.37,501.31 430.38,507.01 425.75,512.98 421.86,521.02 420.86,527.47 421.93,535.64 424.91,542.47 428.89,548.13 434.08,554.01 440.04,559.20 446.04,563.31 454.14,566.68 504.42,581.21 529.40,586.36 552.82,592.97 562.33,596.34 569.36,599.63 575.97,604.60 581.25,609.96 586.36,617.44 589.19,625.01 589.73,633.18 588.20,640.97 585.75,648.49 582.32,655.75 577.92,663.23 572.92,668.42 566.65,674.26 558.70,679.66 201.83,759.05 192.74,760.00 183.88,759.74 173.79,756.93 163.78,753.30 60.97,698.82 52.15,693.20 44.89,684.85 41.07,676.77 40.00,667.12 41.30,655.71 44.89,644.34 176.12,403.85"
        fill="none"
        stroke="#e94560"
        stroke-width="8.0"
        stroke-linejoin="round"
        stroke-linecap="round"/>
  <!-- Start/finish line -->
  <line x1="158.51" y1="394.37" x2="193.73" y2="413.33"
        stroke="#f5f5f5" stroke-width="9.6"
        stroke-linecap="round"/>
</svg>
