<?xml version="1.0" encoding="utf-8"?>
<svg xmlns="http://www.w3.org/2000/svg"
     width="800.0" height="766.7"
     viewBox="0 0 800.0 766.7">
  <rect width="100%" height="100%" fill="#1a1a2e"/>
  <!-- Track outline -->
  <polyline points="620.39,213.39 574.99,163.34 536.20,131.42 475.24,104.61 414.28,81.37 375.70,63.75 334.78,49.19 293.43,41.02 251.23,40.00 208.81,45.36 169.80,57.62 144.44,71.41 120.78,89.28 99.47,110.22 81.56,132.95 62.17,167.94 48.53,207.01 40.85,247.10 40.00,289.23 45.54,332.64 56.20,373.50 81.99,425.85 114.39,474.62 183.45,567.06 228.21,611.50 277.66,651.33 329.88,684.28 385.51,709.05 442.84,722.58 501.67,726.67 541.31,724.88 580.96,719.26 618.05,708.02 652.36,690.66 684.55,668.19 711.40,641.12 728.24,617.12 742.52,590.05 753.18,561.70 759.36,533.10 760.00,496.33 753.18,458.79 740.60,418.44 711.62,350.77 670.69,278.00 620.39,213.39"
        fill="none"
        stroke="#e94560"
        stroke-width="8.0"
        stroke-linejoin="round"
        stroke-linecap="round"/>
  <!-- Start/finish line -->
  <line x1="605.04" y1="226.21" x2="635.75" y2="200.57"
        stroke="#f5f5f5" stroke-width="9.6"
        stroke-linecap="round"/>
</svg>
