<?xml version="1.0" encoding="utf-8"?>
<svg xmlns="http://www.w3.org/2000/svg"
     width="800.0" height="764.0"
     viewBox="0 0 800.0 764.0">
  <rect width="100%" height="100%" fill="#1a1a2e"/>
  <!-- Track outline -->
  <polyline points="690.66,479.05 690.15,478.16 570.40,272.20 487.98,126.55 463.39,88.45 451.00,73.28 437.96,60.90 423.93,51.35 416.48,47.63 400.72,42.35 392.50,40.82 375.51,40.00 366.87,40.75 358.29,42.29 349.77,44.66 341.46,47.83 333.35,51.84 325.60,56.64 318.16,62.29 311.19,68.66 298.55,83.65 287.66,101.16 278.35,120.73 247.01,208.59 238.34,231.35 228.48,254.02 217.10,276.30 203.91,297.98 188.73,318.75 171.71,338.47 153.29,357.01 134.08,374.32 80.48,419.05 66.41,431.86 55.10,443.95 46.84,455.64 43.94,461.36 41.98,467.13 40.49,472.95 40.09,475.97 40.00,478.74 40.38,484.51 41.58,490.21 43.61,495.84 46.42,501.20 50.08,506.39 54.63,511.14 59.56,515.59 65.27,519.49 71.42,522.67 78.48,525.60 93.54,529.35 109.57,531.09 142.00,531.88 157.10,533.26 170.89,536.54 177.14,539.05 183.00,542.19 188.33,545.94 193.13,550.29 197.32,555.23 200.86,560.67 203.71,566.60 205.84,572.88 207.21,579.58 207.84,586.47 207.69,593.65 206.83,600.91 203.16,615.72 197.50,630.45 178.04,671.09 174.86,680.64 173.08,688.18 172.73,691.00 172.69,693.44 173.06,698.26 174.16,702.86 174.99,705.00 176.01,707.05 177.19,709.02 178.54,710.87 181.84,714.26 185.71,717.17 190.30,719.65 195.54,721.48 200.99,722.96 206.97,723.80 220.26,724.00 234.88,722.47 303.77,709.46 387.53,698.51 433.81,693.10 457.89,690.79 482.52,689.36 507.66,689.26 533.15,690.90 558.74,694.35 584.05,699.32 608.67,705.32 653.79,717.13 673.59,721.40 691.33,723.77 707.01,723.88 714.28,722.88 720.71,721.47 723.82,720.53 726.79,719.29 732.34,716.32 737.61,712.95 742.28,708.84 746.42,704.06 753.10,692.82 755.60,686.46 758.92,672.24 760.00,656.44 758.95,639.39 755.88,621.38 751.00,602.68 744.42,583.45 736.31,563.87 716.19,523.81 704.63,503.32 690.66,479.05"
        fill="none"
        stroke="#e94560"
        stroke-width="8.0"
        stroke-linejoin="round"
        stroke-linecap="round"/>
  <!-- Start/finish line -->
  <line x1="673.32" y1="489.02" x2="707.99" y2="469.07"
        stroke="#f5f5f5" stroke-width="9.6"
        stroke-linecap="round"/>
</svg>
