<?xml version="1.0" encoding="utf-8"?>
<svg xmlns="http://www.w3.org/2000/svg"
     width="800.0" height="769.7"
     viewBox="0 0 800.0 769.7">
  <rect width="100%" height="100%" fill="#1a1a2e"/>
  <!-- Track outline -->
  <polyline points="342.90,345.47 412.15,254.99 429.07,228.70 441.52,203.84 449.64,178.10 454.06,154.18 454.02,142.03 453.50,131.03 455.97,109.49 461.48,89.60 469.99,71.38 475.28,62.43 481.48,54.75 486.47,51.16 491.99,48.45 497.67,46.19 506.69,43.26 516.07,41.27 526.22,40.17 536.68,40.00 559.50,42.43 645.50,55.25 693.44,64.80 711.88,70.38 728.37,77.29 736.61,81.76 744.12,86.73 750.28,92.59 754.19,98.22 757.14,104.46 759.13,110.82 760.00,119.71 759.48,128.60 758.31,136.56 756.31,144.07 753.40,150.97 749.72,157.27 745.03,163.02 739.61,168.10 735.70,171.47 731.45,174.51 726.03,176.66 709.76,177.27 689.15,174.73 670.57,171.47 655.00,167.38 641.55,163.85 632.78,162.91 624.67,162.96 616.82,163.85 609.22,165.56 602.02,168.10 595.12,171.52 589.39,175.00 582.45,180.97 440.48,354.09 326.02,498.43 316.95,511.24 310.05,521.79 305.93,532.29 304.98,541.18 305.76,549.96 307.36,558.25 310.88,568.63 315.78,577.80 319.43,583.00 323.55,587.58 328.06,591.50 333.09,594.82 338.56,597.36 344.24,599.29 353.96,601.00 364.25,601.17 372.84,599.84 381.65,597.80 392.23,592.88 400.04,587.03 405.16,581.17 454.97,491.41 501.23,413.91 511.12,401.76 518.84,396.40 525.52,392.98 532.34,390.49 539.11,388.94 545.87,388.39 552.64,388.83 559.37,390.21 566.27,392.64 572.91,395.85 578.72,399.05 584.06,402.92 588.74,407.78 592.82,413.47 596.34,420.10 600.07,428.88 603.37,439.93 605.14,450.09 605.53,458.60 604.23,465.67 599.89,477.21 591.61,489.15 583.54,499.81 567.79,517.37 486.91,590.95 425.56,648.45 371.75,690.82 362.64,693.14 355.09,692.87 347.67,692.26 325.93,690.66 306.54,686.13 297.82,682.70 289.49,678.50 274.82,667.95 257.86,659.01 250.31,656.30 242.93,654.64 236.38,654.14 230.09,654.81 226.31,655.86 222.67,657.46 219.28,659.50 216.20,661.99 213.34,664.97 210.52,668.73 204.62,680.55 198.33,693.36 191.34,703.25 183.62,711.70 175.37,718.44 166.48,723.69 156.89,727.34 146.87,729.38 136.02,729.71 124.78,728.77 98.92,724.63 88.21,721.65 78.27,717.78 70.07,713.47 62.82,708.17 57.18,702.42 52.63,695.85 49.81,689.00 47.59,680.71 40.48,640.89 40.00,622.93 41.00,607.08 42.21,599.29 44.17,592.44 47.33,585.43 51.19,578.85 55.49,572.83 60.31,567.36 65.69,562.39 71.46,557.97 77.88,554.00 84.65,550.57 91.55,547.48 99.92,545.27 127.91,546.21 156.72,548.25 167.26,547.81 176.20,546.21 181.71,544.27 186.92,541.73 191.60,538.58 196.81,533.12 201.15,526.93 208.61,515.05 221.15,497.93 327.32,365.80 342.90,345.47"
        fill="none"
        stroke="#e94560"
        stroke-width="8.0"
        stroke-linejoin="round"
        stroke-linecap="round"/>
  <!-- Start/finish line -->
  <line x1="327.02" y1="333.31" x2="358.78" y2="357.63"
        stroke="#f5f5f5" stroke-width="9.6"
        stroke-linecap="round"/>
</svg>
