<?xml version="1.0" encoding="utf-8"?>
<svg xmlns="http://www.w3.org/2000/svg"
     width="705.2" height="800.0"
     viewBox="0 0 705.2 800.0">
  <rect width="100%" height="100%" fill="#1a1a2e"/>
  <!-- Track outline -->
  <polyline points="619.74,304.88 616.92,297.81 562.97,213.98 509.90,144.78 482.12,114.43 454.95,90.36 413.13,62.75 391.14,52.51 369.46,45.75 348.94,40.84 342.37,40.05 335.69,40.00 286.49,44.43 205.56,60.32 190.57,65.60 177.31,72.04 158.22,83.87 141.56,96.06 130.63,106.62 81.51,170.96 69.45,193.13 51.52,242.43 45.02,271.94 40.77,328.16 40.00,384.27 44.37,412.93 72.81,506.94 83.48,529.64 109.10,567.60 143.46,610.56 227.94,689.69 273.19,719.83 298.62,731.34 354.39,746.96 391.72,755.41 427.36,760.00 447.41,757.84 464.77,753.24 476.55,748.91 488.61,742.69 547.01,702.20 613.09,647.46 620.47,637.96 634.58,615.58 645.55,589.77 661.21,531.65 665.23,489.52 664.84,438.59 662.37,425.76 645.86,370.18 619.74,304.88"
        fill="none"
        stroke="#e94560"
        stroke-width="8.0"
        stroke-linejoin="round"
        stroke-linecap="round"/>
  <!-- Start/finish line -->
  <line x1="601.17" y1="312.31" x2="638.31" y2="297.45"
        stroke="#f5f5f5" stroke-width="9.6"
        stroke-linecap="round"/>
</svg>
