<?xml version="1.0" encoding="utf-8"?>
<svg xmlns="http://www.w3.org/2000/svg"
     width="540.8" height="800.0"
     viewBox="0 0 540.8 800.0">
  <rect width="100%" height="100%" fill="#1a1a2e"/>
  <!-- Track outline -->
  <polyline points="431.03,394.20 457.11,422.04 468.56,436.26 478.39,450.66 485.71,464.76 488.20,471.26 489.90,477.65 490.63,483.16 490.47,488.32 490.04,490.38 489.42,492.39 488.58,494.20 487.52,495.71 486.57,496.62 485.47,497.39 484.24,498.03 482.98,498.50 481.68,498.78 479.80,498.81 477.78,498.47 475.73,497.88 473.74,497.06 469.20,494.27 464.81,490.53 455.51,479.73 446.22,465.91 405.01,402.43 393.00,388.94 369.10,368.50 363.45,364.91 358.25,362.32 353.47,360.42 348.84,359.25 346.23,359.00 343.70,359.09 341.40,359.60 339.97,360.24 338.61,361.08 337.41,362.12 336.42,363.30 335.60,364.78 335.01,366.48 334.61,368.32 334.39,370.20 334.61,374.85 335.63,379.78 337.59,385.49 340.28,391.28 348.08,404.05 394.59,456.79 405.56,470.38 414.76,484.42 421.70,498.81 424.15,506.02 425.92,513.27 426.89,520.29 427.09,527.26 426.45,533.96 425.01,540.51 422.74,546.81 419.72,552.85 415.89,558.76 411.48,564.45 400.85,575.73 338.03,633.89 329.50,644.85 326.37,649.87 323.90,654.87 322.38,659.31 321.60,663.65 321.56,666.13 321.82,668.54 322.44,670.73 323.10,672.12 323.92,673.43 324.91,674.62 326.01,675.60 327.27,676.37 328.70,676.99 330.22,677.41 331.75,677.63 334.08,677.54 336.49,677.04 338.93,676.22 343.08,674.03 347.20,671.08 356.40,662.43 391.92,623.19 406.69,609.65 422.37,597.81 438.06,588.58 453.06,582.52 459.92,580.80 466.62,579.87 472.59,579.80 478.26,580.53 483.22,582.04 487.72,584.29 490.32,586.17 492.70,588.38 494.77,590.82 497.33,595.04 499.19,599.73 500.37,605.09 500.79,610.73 500.38,616.99 499.21,623.43 497.16,630.44 494.38,637.50 486.31,652.43 475.06,667.90 460.99,683.43 444.30,698.69 425.37,713.34 404.55,726.95 382.35,738.96 359.38,748.81 336.53,755.80 314.53,759.51 304.27,760.00 294.26,759.58 285.07,758.25 276.32,756.00 268.53,752.94 261.35,749.05 255.19,744.47 249.82,739.16 245.51,733.32 242.14,726.92 239.83,720.11 238.61,712.94 238.53,705.29 239.54,697.50 241.70,689.34 244.85,681.24 254.18,664.49 267.12,647.48 282.78,630.62 341.51,569.38 351.24,555.58 358.51,542.30 361.11,536.08 363.01,529.91 364.03,524.34 364.27,518.96 363.98,515.84 363.36,512.85 362.33,510.15 361.36,508.47 360.19,506.90 358.85,505.51 357.37,504.38 355.73,503.50 353.90,502.83 351.97,502.41 350.02,502.21 347.12,502.39 344.10,503.08 341.12,504.09 336.16,506.62 331.28,509.91 320.81,518.94 272.90,569.45 259.27,581.19 245.08,591.39 230.15,599.69 214.43,605.69 198.04,609.18 181.20,609.91 164.73,607.88 157.08,605.86 149.83,603.19 143.38,600.00 137.56,596.19 132.91,592.10 129.14,587.50 127.36,584.38 126.01,581.08 125.15,577.72 124.84,574.34 125.02,570.88 125.64,567.50 127.56,562.32 130.35,557.32 134.02,552.28 138.32,547.48 149.01,538.01 161.77,528.78 280.20,458.54 294.13,448.23 304.80,438.38 308.55,433.81 311.42,429.14 312.59,426.37 313.43,423.61 313.71,420.93 313.54,419.18 313.14,417.46 312.48,415.82 311.60,414.36 310.41,413.03 308.93,411.84 307.27,410.84 305.49,410.02 302.60,409.23 299.44,408.85 296.14,408.81 290.34,409.47 284.30,410.95 278.13,412.99 270.81,416.37 208.12,456.92 87.19,532.81 65.20,543.83 55.90,547.08 51.97,547.96 48.27,548.36 46.30,548.32 44.41,548.10 42.12,547.10 40.93,545.93 40.16,544.51 40.00,542.12 40.57,539.49 41.99,536.24 44.04,532.92 50.36,525.22 116.64,461.95 192.82,364.45 200.38,351.59 203.01,346.08 204.99,340.75 206.05,336.24 206.34,331.99 206.14,330.27 205.78,328.58 205.21,327.04 204.44,325.69 203.45,324.58 202.26,323.63 200.93,322.85 199.52,322.28 197.23,321.81 194.71,321.77 192.14,322.06 187.72,323.30 183.21,325.33 178.29,328.30 173.46,331.88 163.71,340.86 137.34,371.81 129.54,379.58 125.84,382.41 122.06,384.65 119.68,385.64 117.26,386.37 114.85,386.70 112.47,386.59 110.11,386.13 107.82,385.29 105.46,383.96 103.21,382.21 101.07,380.18 97.68,376.04 94.61,371.22 88.60,358.36 83.21,342.06 78.74,322.99 75.45,302.23 73.65,281.15 73.47,260.64 74.88,241.48 78.67,222.19 85.22,206.24 92.67,189.62 102.37,172.72 114.35,155.24 128.35,137.21 143.61,119.36 175.07,86.19 189.89,72.08 203.73,60.04 216.63,50.55 228.83,43.92 234.60,41.77 240.35,40.42 245.74,40.00 251.00,40.44 254.25,41.24 257.40,42.39 260.31,43.94 262.98,45.88 265.43,48.21 267.58,50.80 269.44,53.78 270.96,57.08 272.10,60.55 273.07,66.37 273.12,72.50 272.21,79.23 270.41,86.06 267.65,93.30 264.13,100.51 254.86,115.51 211.40,177.92 204.13,193.69 199.43,209.23 197.27,224.16 197.49,238.03 198.38,244.31 199.81,250.27 201.60,255.44 203.91,260.09 205.56,262.57 207.42,264.78 209.47,266.57 211.03,267.52 212.69,268.30 214.43,268.85 216.17,269.09 218.64,268.92 221.19,268.21 223.67,267.12 227.79,264.34 231.76,260.66 235.75,256.24 240.20,250.22 275.87,191.08 285.05,178.61 289.53,173.61 294.16,169.23 298.47,165.95 302.86,163.45 305.47,162.43 308.13,161.75 310.67,161.50 312.34,161.59 313.98,161.90 315.52,162.39 316.91,163.10 318.10,164.03 319.16,165.15 320.06,166.46 320.79,167.83 321.50,170.00 321.85,172.39 321.93,174.85 321.36,179.00 320.13,183.25 316.00,192.21 305.47,209.56 303.35,213.74 301.89,217.63 301.01,221.57 300.79,225.55 301.41,229.67 302.71,233.78 304.47,237.72 307.56,242.77 396.37,357.21 431.03,394.20"
        fill="none"
        stroke="#e94560"
        stroke-width="8.0"
        stroke-linejoin="round"
        stroke-linecap="round"/>
  <!-- Start/finish line -->
  <line x1="445.62" y1="380.53" x2="416.43" y2="407.88"
        stroke="#f5f5f5" stroke-width="9.6"
        stroke-linecap="round"/>
</svg>
