<?xml version="1.0" encoding="utf-8"?>
<svg xmlns="http://www.w3.org/2000/svg"
     width="405.4" height="800.0"
     viewBox="0 0 405.4 800.0">
  <rect width="100%" height="100%" fill="#1a1a2e"/>
  <!-- Track outline -->
  <polyline points="109.02,330.55 54.20,438.48 45.82,463.02 41.59,481.08 40.00,495.64 40.23,525.01 42.47,539.50 48.61,559.30 57.35,581.23 66.90,600.25 79.40,619.91 145.50,696.06 191.06,736.75 203.00,744.86 214.98,751.44 227.13,756.05 238.82,759.04 244.52,759.80 250.32,760.00 257.21,759.47 264.02,758.10 269.82,755.97 275.31,752.99 280.91,748.91 285.83,743.97 289.37,738.58 291.99,732.65 293.62,726.55 294.37,720.27 294.21,714.06 293.26,707.98 291.78,702.36 289.56,697.02 286.08,691.52 281.85,686.56 277.47,682.68 271.54,678.73 204.17,644.12 181.38,629.88 159.68,611.88 150.52,601.24 143.00,590.73 139.44,584.70 136.70,578.83 132.49,565.89 129.95,552.26 129.85,538.39 131.38,524.41 134.75,510.81 139.84,497.18 145.54,484.67 153.12,472.42 162.21,461.17 172.33,450.91 183.47,441.22 219.04,415.71 271.71,378.23 327.01,327.10 340.54,310.77 350.20,296.59 355.23,285.01 362.75,261.46 364.89,249.89 365.39,237.40 362.25,200.48 361.24,187.08 356.40,108.81 353.32,94.78 348.71,81.15 342.30,68.54 338.43,62.84 334.11,57.63 329.32,53.07 324.18,49.12 319.03,45.85 313.69,43.24 308.31,41.37 302.65,40.25 295.74,40.00 288.72,40.76 282.08,42.68 275.79,45.39 270.72,48.15 265.99,51.37 257.11,59.35 248.98,68.95 172.02,206.51 109.02,330.55"
        fill="none"
        stroke="#e94560"
        stroke-width="8.0"
        stroke-linejoin="round"
        stroke-linecap="round"/>
  <!-- Start/finish line -->
  <line x1="126.86" y1="339.60" x2="91.19" y2="321.49"
        stroke="#f5f5f5" stroke-width="9.6"
        stroke-linecap="round"/>
</svg>
