<?xml version="1.0" encoding="utf-8"?>
<svg xmlns="http://www.w3.org/2000/svg"
     width="800.0" height="706.1"
     viewBox="0 0 800.0 706.1">
  <rect width="100%" height="100%" fill="#1a1a2e"/>
  <!-- Track outline -->
  <polyline points="261.38,192.11 103.00,295.35 87.33,308.60 75.63,320.82 62.89,335.90 52.09,352.48 46.70,363.67 42.47,375.41 40.20,387.39 40.00,396.52 40.91,406.04 42.86,415.25 46.05,423.74 51.18,432.46 57.81,440.72 65.55,447.94 73.61,453.57 82.52,457.46 92.27,459.76 102.29,460.71 111.91,460.55 123.74,458.65 135.38,454.76 146.63,449.60 163.14,439.13 178.49,426.51 203.32,399.69 230.05,367.16 343.50,258.29 372.63,236.31 406.50,215.20 440.12,199.33 452.40,195.37 465.02,192.27 477.57,191.32 486.93,192.11 496.49,193.94 505.59,197.03 513.52,201.72 518.92,206.56 524.05,212.59 528.54,219.25 532.11,226.39 534.39,233.53 535.30,242.82 534.52,252.82 532.44,262.74 529.38,271.70 523.21,282.18 515.02,291.46 506.11,300.11 473.53,324.79 438.36,345.66 329.20,395.80 312.42,407.23 299.48,419.37 288.37,433.65 279.39,449.84 272.83,468.49 268.80,488.01 267.36,506.18 268.21,524.43 271.46,543.55 276.73,562.36 283.88,581.17 292.85,599.02 304.10,616.48 317.17,632.11 332.51,645.36 349.29,655.68 360.53,660.60 372.24,664.01 384.20,665.91 397.66,666.07 411.57,664.32 424.77,660.91 436.34,656.15 447.33,649.88 457.61,642.19 471.71,627.59 483.87,610.84 500.52,577.99 529.19,504.83 546.74,468.81 570.15,433.58 596.29,404.77 627.56,378.90 700.18,325.34 715.66,310.98 728.34,296.30 739.84,279.40 749.21,260.91 755.51,241.39 759.15,221.00 760.00,200.60 758.50,180.29 754.86,160.22 749.01,141.09 741.15,123.95 731.13,108.16 717.54,92.13 702.00,78.01 684.78,66.26 666.64,56.66 649.21,49.28 631.14,43.97 610.53,40.87 589.39,40.00 568.13,41.03 547.07,44.05 528.54,47.86 506.63,55.31 299.55,167.28 261.38,192.11"
        fill="none"
        stroke="#e94560"
        stroke-width="8.0"
        stroke-linejoin="round"
        stroke-linecap="round"/>
  <!-- Start/finish line -->
  <line x1="272.30" y1="208.87" x2="250.46" y2="175.36"
        stroke="#f5f5f5" stroke-width="9.6"
        stroke-linecap="round"/>
</svg>
