<?xml version="1.0" encoding="utf-8"?>
<svg xmlns="http://www.w3.org/2000/svg"
     width="680.4" height="800.0"
     viewBox="0 0 680.4 800.0">
  <rect width="100%" height="100%" fill="#1a1a2e"/>
  <!-- Track outline -->
  <polyline points="108.21,521.73 42.22,192.22 40.00,168.34 40.50,149.79 43.39,129.26 48.82,109.76 56.71,92.52 66.97,77.03 74.69,68.20 83.29,60.23 92.95,53.51 104.93,47.45 118.14,42.70 131.52,40.15 144.67,40.00 157.99,41.90 170.81,45.48 189.40,55.05 206.78,67.10 236.19,90.33 253.06,101.14 270.99,110.20 290.36,116.55 310.50,120.35 330.48,121.30 352.35,119.91 392.59,112.53 431.77,106.54 449.75,107.64 465.79,111.80 478.17,116.99 490.38,123.93 501.14,132.26 510.14,141.82 517.85,152.63 523.51,164.18 526.95,176.23 528.45,188.86 527.95,201.43 526.23,210.85 523.40,220.20 519.29,229.33 513.91,237.95 495.04,257.89 470.40,272.35 450.86,278.86 430.44,282.22 413.01,282.65 394.09,280.97 317.77,266.58 278.15,263.37 259.11,264.98 240.96,269.21 230.09,273.45 219.82,278.93 210.72,285.87 202.67,295.00 195.90,305.74 190.90,317.20 187.85,329.77 186.63,343.06 187.35,356.14 190.07,368.99 194.62,381.63 200.84,392.81 208.11,401.42 216.82,408.87 226.37,415.16 243.74,423.12 262.22,428.23 279.26,430.13 296.52,429.77 314.00,427.79 334.09,423.26 393.09,401.86 452.25,381.85 472.51,379.44 490.38,380.02 510.02,382.65 529.12,387.91 546.82,395.95 563.25,406.39 578.40,418.88 592.05,433.34 604.26,450.29 614.70,468.55 630.24,505.44 635.34,522.53 638.73,540.06 640.39,560.66 639.39,581.26 635.18,599.45 628.29,616.54 622.30,627.57 615.14,638.09 606.82,647.22 597.38,654.82 586.78,661.17 575.79,665.41 567.47,667.01 558.75,667.60 550.10,667.09 541.71,665.41 530.50,660.88 519.74,654.23 510.08,646.56 499.15,634.29 489.27,619.17 473.17,587.91 457.02,556.86 446.98,542.25 435.88,530.57 426.28,523.41 415.62,517.35 404.52,513.18 396.20,511.50 387.48,510.77 378.82,511.14 370.67,512.82 362.62,516.03 354.74,520.71 347.47,526.33 341.36,532.69 335.03,542.33 330.43,553.43 327.43,564.90 326.15,582.57 328.26,602.15 338.75,637.43 348.74,672.35 349.80,684.91 349.46,696.16 347.41,706.97 343.42,717.56 337.70,727.64 330.59,736.55 321.66,744.37 311.23,750.87 300.01,755.76 287.42,758.76 273.99,760.00 261.05,759.63 249.84,757.95 239.08,754.96 228.70,750.65 213.16,741.08 198.73,729.03 185.24,714.64 172.98,698.64 150.89,661.17 136.96,629.40 115.53,558.32 108.21,521.73"
        fill="none"
        stroke="#e94560"
        stroke-width="8.0"
        stroke-linejoin="round"
        stroke-linecap="round"/>
  <!-- Start/finish line -->
  <line x1="88.60" y1="525.66" x2="127.82" y2="517.80"
        stroke="#f5f5f5" stroke-width="9.6"
        stroke-linecap="round"/>
</svg>
