<?xml version="1.0" encoding="utf-8"?>
<svg xmlns="http://www.w3.org/2000/svg"
     width="800.0" height="621.9"
     viewBox="0 0 800.0 621.9">
  <rect width="100%" height="100%" fill="#1a1a2e"/>
  <!-- Track outline -->
  <polyline points="405.61,100.30 407.89,99.78 544.08,63.57 616.56,46.60 648.95,40.75 668.18,40.00 682.33,41.74 696.20,44.82 705.22,48.07 713.41,52.10 721.43,57.08 728.86,62.97 735.64,69.81 741.64,77.44 746.91,86.22 751.07,94.76 754.50,104.29 758.59,124.89 760.00,147.15 757.91,170.52 748.35,217.81 742.23,238.65 734.99,257.15 728.40,269.61 720.68,281.35 713.84,289.06 706.10,295.55 699.20,299.98 691.58,303.89 684.11,306.58 677.93,307.61 671.84,307.73 666.28,307.21 662.47,306.54 658.97,305.47 655.57,303.81 651.23,300.81 646.98,296.97 643.42,292.86 641.08,289.30 639.30,285.54 637.92,281.27 636.71,274.43 636.17,266.80 636.42,259.80 637.67,253.56 640.17,246.95 650.73,228.01 661.13,207.81 663.16,200.30 664.16,193.30 664.28,186.46 663.59,179.77 662.09,173.21 659.82,167.04 656.82,161.35 653.07,156.01 648.73,151.34 643.83,147.47 638.33,144.23 632.49,141.74 622.37,139.52 612.63,138.81 607.35,138.89 602.01,139.84 589.77,144.15 578.49,149.45 575.25,151.62 572.53,153.99 568.50,157.75 564.41,162.42 558.79,170.60 553.95,180.41 550.32,193.69 548.82,208.68 550.42,228.72 555.20,250.79 580.84,316.66 586.86,339.20 588.99,356.00 589.58,372.73 588.61,383.92 586.46,394.40 583.15,404.95 578.74,415.16 572.84,425.24 566.63,434.10 559.19,442.64 542.02,458.17 522.09,471.42 500.42,483.01 267.41,578.14 256.95,580.63 249.36,581.46 243.71,581.86 238.03,581.66 229.13,580.59 219.88,578.22 210.42,573.67 202.08,567.98 198.71,565.01 195.87,561.89 193.40,558.25 190.75,552.75 188.62,546.51 187.34,540.62 187.31,534.13 188.15,528.48 188.84,525.51 190.00,522.66 193.93,516.34 198.58,510.29 201.21,507.56 203.96,505.31 207.52,502.86 212.23,500.44 231.28,494.99 251.52,488.78 259.67,484.39 266.20,479.05 270.63,473.83 274.57,467.86 277.56,461.97 279.72,455.01 280.69,448.29 280.84,443.23 280.16,437.42 274.25,416.34 268.23,394.12 267.35,385.18 267.66,377.28 268.73,369.64 271.04,362.05 276.41,352.25 282.84,343.55 287.00,339.32 291.27,335.88 300.77,329.59 311.64,324.33 317.01,322.32 322.97,320.77 333.37,319.51 344.68,319.19 356.23,319.55 366.72,321.25 370.85,322.87 374.41,324.96 377.44,327.57 379.37,329.87 381.03,332.48 382.31,335.28 383.09,338.21 383.28,342.80 382.43,347.74 380.81,353.08 372.56,367.71 364.04,381.63 361.95,387.04 360.73,391.91 359.85,396.69 359.89,401.87 361.48,408.35 364.29,415.51 367.97,421.88 372.28,426.74 377.37,430.89 383.00,434.13 389.52,436.55 396.64,437.93 404.11,438.48 418.19,437.30 432.62,433.66 447.45,426.98 460.94,418.56 469.94,411.24 477.96,402.58 488.74,387.48 497.73,370.75 502.36,355.88 504.85,342.52 505.48,331.21 501.61,278.43 492.55,214.49 488.77,203.42 483.77,194.60 479.15,189.14 473.78,184.32 468.35,180.41 464.04,178.03 459.70,176.29 455.01,175.19 448.83,174.59 442.24,174.83 436.05,175.94 430.96,177.88 426.25,180.53 422.19,183.45 418.53,187.05 415.07,191.79 404.98,209.59 393.58,228.68 385.65,237.82 377.37,245.25 368.13,251.82 359.35,256.92 350.61,260.71 331.25,267.51 310.11,272.30 287.62,275.26 127.29,285.07 96.84,283.41 85.19,280.84 74.66,277.00 64.92,271.70 60.89,268.86 56.93,265.18 49.77,256.48 43.65,246.16 41.56,240.03 40.34,233.71 40.00,227.42 41.53,217.30 44.18,208.56 45.53,205.47 47.15,202.75 53.24,194.44 56.58,190.81 60.64,187.21 69.61,181.16 79.79,175.66 97.06,169.85 405.61,100.30"
        fill="none"
        stroke="#e94560"
        stroke-width="8.0"
        stroke-linejoin="round"
        stroke-linecap="round"/>
  <!-- Start/finish line -->
  <line x1="401.21" y1="80.79" x2="410.00" y2="119.81"
        stroke="#f5f5f5" stroke-width="9.6"
        stroke-linecap="round"/>
</svg>
