<?xml version="1.0" encoding="utf-8"?>
<svg xmlns="http://www.w3.org/2000/svg"
     width="800.0" height="414.0"
     viewBox="0 0 800.0 414.0">
  <rect width="100%" height="100%" fill="#1a1a2e"/>
  <!-- Track outline -->
  <polyline points="440.76,316.00 247.23,366.74 228.29,371.75 216.41,373.97 210.41,373.82 206.28,372.93 202.30,371.56 199.22,369.15 195.61,365.19 192.68,360.56 189.40,349.89 186.83,334.22 183.04,313.78 180.11,305.74 176.49,300.03 172.36,294.55 168.23,290.40 163.41,286.11 157.92,282.99 151.38,280.77 143.81,279.73 135.65,280.10 116.84,283.77 99.19,289.07 84.18,292.62 75.02,293.22 66.63,292.92 62.65,292.22 59.17,291.14 55.78,289.77 52.57,288.07 49.57,286.18 46.88,283.70 44.62,280.07 42.80,275.99 41.46,272.29 40.51,268.55 40.05,264.92 40.00,261.29 40.31,257.92 41.26,254.25 46.59,243.95 53.65,233.73 58.60,228.39 64.35,224.02 77.00,217.24 91.88,211.54 109.48,207.28 127.28,204.80 142.14,203.80 156.58,204.61 170.16,207.50 185.45,213.32 230.83,238.77 273.81,265.92 286.05,270.55 296.59,272.62 304.37,273.10 312.14,272.73 319.14,271.55 323.63,270.25 327.69,268.47 331.64,265.88 336.41,261.66 341.03,256.32 344.83,250.29 347.34,244.10 349.08,237.28 350.29,229.39 350.01,204.91 349.52,181.35 350.91,173.28 353.06,166.65 356.14,160.05 360.25,153.94 367.66,146.49 376.08,140.20 383.93,136.05 391.32,133.27 395.65,132.16 399.70,131.64 403.73,131.57 407.71,132.01 411.28,132.79 415.38,134.38 428.93,141.64 445.78,152.98 473.24,178.09 499.38,201.65 509.93,208.06 519.55,211.98 526.17,213.95 532.86,215.21 539.74,215.50 547.90,214.80 556.29,212.95 563.93,209.39 569.94,204.58 575.30,198.24 580.69,189.69 594.93,151.01 609.24,110.56 618.61,94.49 628.51,81.67 640.21,69.23 652.65,58.82 664.76,51.37 676.56,46.00 685.96,43.37 695.73,41.37 705.92,40.30 716.28,40.00 726.18,41.19 734.55,43.59 741.91,47.33 747.71,52.15 751.30,56.34 754.51,61.82 756.59,66.93 758.38,73.41 759.72,81.56 760.00,88.27 759.00,96.45 757.13,102.82 753.38,111.53 747.58,119.75 733.37,138.16 710.74,164.13 646.21,241.28 639.95,247.92 633.21,253.06 627.23,256.62 617.40,260.81 440.76,316.00"
        fill="none"
        stroke="#e94560"
        stroke-width="8.0"
        stroke-linejoin="round"
        stroke-linecap="round"/>
  <!-- Start/finish line -->
  <line x1="446.26" y1="335.23" x2="435.25" y2="296.77"
        stroke="#f5f5f5" stroke-width="9.6"
        stroke-linecap="round"/>
</svg>
