<?xml version="1.0" encoding="utf-8"?>
<svg xmlns="http://www.w3.org/2000/svg"
     width="800.0" height="365.5"
     viewBox="0 0 800.0 365.5">
  <rect width="100%" height="100%" fill="#1a1a2e"/>
  <!-- Track outline -->
  <polyline points="270.69,212.63 208.58,211.97 174.10,207.16 131.51,195.61 112.50,187.54 94.98,177.62 80.19,166.29 67.17,152.97 58.61,142.16 50.85,130.24 45.20,117.95 42.91,110.62 41.03,103.00 40.00,95.23 40.11,87.90 41.88,81.16 66.83,58.36 76.88,53.55 93.55,45.85 111.30,40.96 131.68,40.00 152.18,41.11 187.12,44.15 400.69,89.23 441.45,102.41 477.47,118.40 509.61,140.60 541.41,162.81 558.53,172.14 575.09,178.80 588.05,182.43 601.52,184.87 614.65,185.32 626.93,183.47 638.86,179.77 650.05,174.44 664.83,161.85 678.88,147.86 688.30,139.42 697.83,131.50 708.11,126.32 713.82,125.13 720.04,124.61 726.49,124.76 732.71,125.65 738.42,127.35 743.22,129.94 748.13,134.98 752.18,141.79 755.38,149.64 757.77,157.85 759.37,165.55 760.00,176.95 758.69,188.43 756.06,199.90 748.92,218.85 739.33,237.14 729.00,253.35 717.18,268.23 703.77,281.85 689.21,294.07 674.48,304.58 658.50,313.31 638.86,320.72 618.25,325.01 605.23,325.53 592.22,324.49 579.49,321.83 561.10,314.35 542.21,303.25 481.12,257.05 444.93,237.88 405.20,223.22 362.55,213.67 270.69,212.63"
        fill="none"
        stroke="#e94560"
        stroke-width="8.0"
        stroke-linejoin="round"
        stroke-linecap="round"/>
  <!-- Start/finish line -->
  <line x1="270.47" y1="232.63" x2="270.92" y2="192.64"
        stroke="#f5f5f5" stroke-width="9.6"
        stroke-linecap="round"/>
</svg>
