<?xml version="1.0" encoding="utf-8"?>
<svg xmlns="http://www.w3.org/2000/svg"
     width="800.0" height="553.7"
     viewBox="0 0 800.0 553.7">
  <rect width="100%" height="100%" fill="#1a1a2e"/>
  <!-- Track outline -->
  <polyline points="410.13,413.23 352.79,390.00 336.47,386.53 322.57,385.23 291.70,385.07 260.31,389.46 229.04,398.80 206.35,408.56 184.10,421.15 151.34,451.70 113.02,492.29 102.66,502.39 92.23,509.60 85.94,511.83 79.17,513.29 72.36,513.67 66.03,512.86 61.28,511.12 56.56,508.52 52.13,505.26 48.26,501.46 45.20,497.39 42.42,491.37 40.69,484.42 40.00,477.21 40.36,470.42 42.70,462.12 46.77,454.14 51.57,446.76 59.30,437.70 68.85,428.69 108.71,394.73 287.99,269.65 322.41,238.12 346.79,211.48 361.90,189.28 396.80,116.78 410.62,93.18 418.88,82.27 428.07,72.18 438.30,63.28 449.47,55.57 461.84,48.79 474.77,43.64 482.95,41.47 491.21,40.11 499.56,40.00 508.86,41.57 518.29,44.61 526.88,48.68 534.01,53.51 540.42,59.32 545.98,65.78 550.89,73.16 554.97,81.19 557.83,89.65 559.36,98.66 559.64,107.99 558.71,117.27 555.09,130.35 548.60,144.57 506.57,211.80 493.23,237.30 488.88,250.49 486.34,264.00 486.06,277.79 487.87,291.51 491.78,305.08 497.70,317.94 502.66,325.92 508.46,333.41 515.11,339.76 522.61,344.86 530.95,348.82 539.57,351.53 548.56,352.83 557.91,352.83 566.93,351.53 575.72,348.98 584.26,345.13 591.76,340.08 598.08,333.62 603.40,325.97 607.55,317.78 611.18,304.38 612.71,290.27 612.55,275.94 612.23,261.56 613.15,247.40 616.06,233.94 619.84,225.80 624.84,218.20 630.81,211.75 637.70,206.59 645.55,202.47 653.73,199.65 662.32,198.13 671.26,197.85 680.01,198.89 688.71,201.44 697.26,205.34 705.11,210.28 715.63,220.16 724.66,231.50 737.92,253.86 749.20,280.28 757.14,308.17 759.27,322.28 760.00,336.50 759.03,350.55 756.41,364.34 751.98,377.80 745.90,390.60 738.16,402.59 728.97,413.56 718.37,423.11 706.69,431.41 680.53,444.65 652.00,454.74 627.66,460.11 601.95,463.10 574.87,463.48 546.38,460.82 517.37,454.63 489.84,445.57 410.13,413.23"
        fill="none"
        stroke="#e94560"
        stroke-width="8.0"
        stroke-linejoin="round"
        stroke-linecap="round"/>
  <!-- Start/finish line -->
  <line x1="402.62" y1="431.76" x2="417.65" y2="394.70"
        stroke="#f5f5f5" stroke-width="9.6"
        stroke-linecap="round"/>
</svg>
