<?xml version="1.0" encoding="utf-8"?>
<svg xmlns="http://www.w3.org/2000/svg"
     width="800.0" height="622.1"
     viewBox="0 0 800.0 622.1">
  <rect width="100%" height="100%" fill="#1a1a2e"/>
  <!-- Track outline -->
  <polyline points="113.94,184.34 105.92,196.94 80.32,228.15 53.08,265.76 45.64,280.93 41.56,295.45 40.12,306.97 40.00,318.98 41.32,330.50 44.01,341.13 47.98,351.37 53.00,360.18 58.21,366.44 64.24,371.65 70.78,375.69 77.83,378.55 85.41,380.27 93.00,380.76 100.63,379.88 108.22,377.76 115.46,374.51 122.50,370.13 129.08,364.52 135.69,356.54 156.32,311.20 175.77,262.22 185.42,243.41 195.35,228.79 201.89,222.05 208.89,216.39 216.32,212.15 223.83,209.45 231.69,207.92 239.40,207.72 244.96,208.51 250.53,210.04 255.78,212.25 260.49,215.06 264.58,218.55 268.27,222.79 271.39,227.51 273.80,232.48 276.02,240.21 276.95,248.63 276.68,257.15 273.61,270.14 267.46,284.42 247.53,315.78 228.43,347.09 225.12,356.39 223.29,364.76 222.63,373.18 223.13,382.19 224.88,391.25 227.72,400.11 231.69,409.02 236.91,417.68 243.87,426.49 265.43,446.53 296.02,467.11 378.79,505.51 472.42,541.00 544.30,565.47 603.49,580.68 616.33,582.06 626.83,582.06 636.87,580.58 646.72,577.82 656.14,573.79 664.62,568.67 671.86,562.66 678.24,555.72 683.18,548.19 685.71,542.53 687.58,536.47 688.63,530.32 688.79,524.41 688.01,518.85 686.33,513.29 684.00,508.02 681.04,503.29 677.62,499.11 673.65,495.42 668.86,492.17 663.06,489.26 632.17,483.70 597.96,480.20 577.26,476.66 558.93,471.69 544.22,464.50 531.30,455.29 520.17,444.02 511.06,431.12 504.21,417.29 499.66,402.18 497.83,383.47 498.69,363.73 501.92,341.23 508.11,320.51 512.81,311.64 518.42,303.92 524.92,297.47 532.15,292.30 540.21,288.31 548.50,285.75 556.67,284.77 565.08,285.11 573.09,286.88 580.88,290.13 588.27,294.86 595.31,301.11 608.23,320.55 620.30,342.07 630.02,357.23 640.53,370.08 648.08,376.13 656.25,381.11 664.85,384.95 673.88,387.75 683.34,389.47 693.03,389.92 704.43,388.74 716.14,385.93 726.81,381.84 735.17,377.02 742.68,371.06 748.91,364.32 753.58,356.93 757.08,348.76 759.26,340.39 760.00,331.73 759.42,322.82 757.55,314.25 754.44,306.03 750.04,298.16 744.20,290.53 728.75,277.04 708.44,263.84 625.47,222.44 591.54,198.37 560.72,177.69 541.38,170.11 523.17,166.27 506.82,165.48 491.06,167.40 480.90,170.21 471.02,174.15 462.03,179.32 454.09,185.67 446.97,193.15 440.98,201.42 436.15,210.33 432.49,219.98 429.96,230.56 428.87,253.60 430.47,278.51 434.71,305.34 437.16,330.30 435.61,340.59 432.77,349.85 428.68,358.17 423.43,365.50 417.08,372.05 410.31,377.07 404.32,379.92 398.05,381.70 391.79,382.34 387.20,382.14 382.53,381.30 378.01,379.92 373.69,377.86 367.39,373.28 361.51,367.27 356.69,360.48 353.03,352.60 350.58,343.79 348.98,333.85 348.87,308.84 351.12,278.41 361.20,150.37 358.44,121.18 352.45,96.96 347.62,85.09 341.78,74.36 335.05,65.16 328.44,58.41 321.12,52.75 313.34,48.12 305.16,44.48 296.49,41.82 287.65,40.30 278.55,40.00 269.25,40.89 259.79,43.05 249.01,46.79 238.00,52.21 225.70,60.48 171.18,114.19 122.27,171.29 113.94,184.34"
        fill="none"
        stroke="#e94560"
        stroke-width="8.0"
        stroke-linejoin="round"
        stroke-linecap="round"/>
  <!-- Start/finish line -->
  <line x1="130.80" y1="195.09" x2="97.07" y2="173.59"
        stroke="#f5f5f5" stroke-width="9.6"
        stroke-linecap="round"/>
</svg>
