<?xml version="1.0" encoding="utf-8"?>
<svg xmlns="http://www.w3.org/2000/svg"
     width="548.2" height="800.0"
     viewBox="0 0 548.2 800.0">
  <rect width="100%" height="100%" fill="#1a1a2e"/>
  <!-- Track outline -->
  <polyline points="342.05,53.18 141.61,40.00 127.38,41.11 114.22,44.32 104.26,49.75 95.79,58.61 89.86,70.24 85.91,82.76 80.07,132.49 65.92,297.32 65.67,310.39 65.75,323.35 67.15,336.09 69.95,347.94 72.75,356.14 78.01,364.22 84.18,370.76 91.01,376.52 98.09,380.95 104.67,383.38 114.54,386.15 125.73,387.26 136.60,386.04 150.09,381.83 162.27,375.08 176.01,365.55 186.54,354.58 192.63,344.39 196.91,333.10 199.05,323.02 199.62,314.04 197.32,301.42 192.30,287.68 166.71,241.16 163.17,230.63 159.96,218.78 158.15,208.70 157.58,196.30 158.24,181.67 161.11,167.83 166.55,156.53 174.94,146.89 184.98,141.35 197.98,138.47 210.65,138.14 222.91,139.91 235.91,143.90 246.85,149.55 254.58,155.86 261.99,163.73 266.93,174.25 270.38,187.32 273.18,201.50 283.55,307.73 290.29,352.59 295.56,377.74 304.53,405.87 313.08,429.58 319.50,451.95 322.63,470.89 323.04,486.73 320.57,502.57 313.74,516.42 305.93,526.83 297.62,533.81 282.56,540.57 238.87,555.63 216.32,563.16 204.06,568.48 194.77,574.90 184.24,583.43 175.60,592.85 168.60,604.04 164.41,615.22 162.27,626.19 161.77,637.60 164.98,649.12 186.79,694.98 189.99,703.18 191.15,711.59 190.49,719.35 187.28,727.88 182.43,734.74 175.43,741.17 166.79,746.82 155.93,751.80 144.82,755.24 131.66,756.23 116.19,755.90 100.89,752.91 84.76,747.37 71.02,739.06 60.24,728.54 52.42,715.14 45.76,697.75 42.06,680.58 40.08,660.20 40.00,639.37 42.55,619.88 47.32,598.39 55.72,576.34 67.15,557.85 82.13,540.57 102.53,521.51 128.12,502.79 158.56,483.52 208.67,457.16 335.63,402.66 350.11,398.01 363.85,395.90 378.09,395.46 389.36,396.46 400.55,399.11 412.56,405.32 422.52,411.96 430.74,420.16 437.00,429.80 441.03,441.54 442.67,452.62 442.67,464.69 440.62,475.88 436.01,487.73 430.09,500.69 424.00,511.99 415.36,525.28 402.60,539.46 386.15,553.53 354.64,579.56 346.16,587.98 339.91,595.73 334.89,605.26 331.19,616.33 329.21,630.51 328.39,642.81 329.38,656.21 332.01,669.28 340.98,691.32 351.67,710.60 364.84,728.43 381.29,743.38 397.83,753.24 410.75,757.56 423.83,760.00 436.17,760.00 447.53,758.12 459.05,753.02 470.40,744.71 479.29,732.97 485.79,720.34 489.33,706.28 492.04,687.67 493.11,670.17 503.64,364.11 503.48,353.92 502.41,342.73 498.13,330.10 492.29,318.92 482.83,309.61 472.62,301.75 460.12,294.88 445.06,288.68 426.47,283.47 407.87,278.49 393.80,272.73 381.71,265.08 373.15,255.78 367.64,244.48 364.02,230.86 362.45,217.34 363.27,205.27 366.32,194.86 374.05,185.99 384.91,177.91 397.34,172.70 411.16,170.04 426.14,170.15 454.60,170.15 471.31,167.94 485.29,163.18 494.18,157.19 501.92,147.00 506.69,134.49 508.17,121.75 505.95,107.57 500.52,93.94 490.07,83.86 471.14,73.23 452.05,65.92 430.09,60.60 400.47,57.17 350.85,53.85 342.05,53.18"
        fill="none"
        stroke="#e94560"
        stroke-width="8.0"
        stroke-linejoin="round"
        stroke-linecap="round"/>
  <!-- Start/finish line -->
  <line x1="340.73" y1="73.14" x2="343.37" y2="33.23"
        stroke="#f5f5f5" stroke-width="9.6"
        stroke-linecap="round"/>
</svg>
