<?xml version="1.0" encoding="utf-8"?>
<svg xmlns="http://www.w3.org/2000/svg"
     width="800.0" height="714.4"
     viewBox="0 0 800.0 714.4">
  <rect width="100%" height="100%" fill="#1a1a2e"/>
  <!-- Track outline -->
  <polyline points="593.22,585.14 618.18,568.93 659.88,532.73 694.27,495.48 722.56,454.38 743.83,405.47 756.95,354.99 760.00,312.48 756.10,270.68 745.11,226.94 727.60,185.23 704.62,148.59 676.26,116.34 642.29,88.82 604.29,67.08 563.51,51.74 519.76,42.72 467.15,40.00 412.41,44.91 354.12,58.32 265.42,95.65 233.30,115.29 131.83,197.85 96.09,240.97 71.77,280.41 54.32,321.34 43.97,362.09 40.00,403.11 42.06,440.97 50.21,478.04 66.38,517.31 89.35,554.47 121.05,590.58 158.13,621.60 196.21,644.57 237.62,661.13 285.70,671.39 336.61,674.37 394.47,669.37 451.98,655.43 510.19,633.52 593.22,585.14"
        fill="none"
        stroke="#e94560"
        stroke-width="8.0"
        stroke-linejoin="round"
        stroke-linecap="round"/>
  <!-- Start/finish line -->
  <line x1="582.96" y1="567.98" x2="603.49" y2="602.31"
        stroke="#f5f5f5" stroke-width="9.6"
        stroke-linecap="round"/>
</svg>
