<?xml version="1.0" encoding="utf-8"?>
<svg xmlns="http://www.w3.org/2000/svg"
     width="725.0" height="800.0"
     viewBox="0 0 725.0 800.0">
  <rect width="100%" height="100%" fill="#1a1a2e"/>
  <!-- Track outline -->
  <polyline points="603.23,350.64 672.45,195.69 680.45,168.91 683.92,149.64 684.97,137.94 684.71,126.87 683.05,112.77 679.76,98.82 674.48,85.85 667.72,74.09 659.69,63.80 650.50,55.27 640.01,48.68 628.77,44.00 616.72,41.17 604.35,40.00 591.62,40.05 578.82,41.27 553.25,46.73 448.56,85.55 422.77,99.75 398.40,116.62 376.55,136.77 362.45,154.23 333.23,200.42 325.34,210.17 317.20,217.63 310.01,222.17 302.16,225.73 294.28,227.88 286.57,228.46 278.83,227.73 271.38,225.83 264.62,222.76 258.18,218.61 252.14,213.73 244.40,204.71 236.70,195.20 227.41,186.42 217.28,178.91 205.49,173.20 192.98,169.30 179.38,167.10 165.78,166.52 142.82,168.57 95.84,180.42 83.54,185.20 72.73,190.91 62.78,197.64 53.96,206.03 48.75,212.76 44.16,220.32 41.19,228.36 40.36,233.24 40.00,238.51 40.18,243.78 40.98,248.80 42.42,253.19 45.14,257.48 48.90,261.43 53.31,264.75 58.01,267.38 62.57,269.14 68.39,269.87 74.50,269.24 80.65,267.63 86.44,265.58 96.06,259.73 105.46,252.95 116.20,246.56 127.37,241.73 133.16,240.46 139.09,239.83 144.99,239.97 150.66,241.09 156.34,243.29 162.02,246.46 167.16,250.51 171.24,255.39 174.06,260.85 176.16,267.24 177.43,273.97 177.64,280.46 176.60,286.94 174.35,293.53 171.35,299.77 168.02,305.33 163.14,311.18 157.36,315.96 150.52,320.84 104.92,345.86 86.80,358.93 78.59,366.88 71.50,376.05 67.85,382.64 64.81,389.76 62.75,397.12 61.84,404.63 61.92,412.39 62.75,419.95 65.68,431.17 70.23,441.80 76.64,452.24 84.34,461.60 93.63,470.14 103.90,477.40 115.37,483.50 127.41,488.48 140.39,493.01 153.74,496.33 167.66,497.84 181.77,497.99 210.92,494.62 232.80,488.62 253.77,478.77 273.34,465.50 290.91,449.46 306.36,430.92 434.27,211.93 446.75,192.17 455.43,180.37 465.12,169.35 475.68,160.52 486.89,153.45 498.28,148.18 509.93,144.82 521.25,143.40 532.57,144.03 540.63,145.64 548.73,148.23 555.93,152.18 561.50,157.01 566.38,162.91 570.18,169.54 572.71,176.71 574.23,184.57 574.66,192.42 573.83,200.47 571.84,208.56 568.84,216.02 564.28,222.12 558.50,227.49 547.36,235.58 536.29,246.90 530.18,261.48 522.15,296.26 493.44,384.49 474.05,438.63 455.36,486.43 424.36,553.74 404.54,593.00 388.12,615.87 371.09,634.65 363.60,645.72 357.67,656.55 352.72,667.23 348.78,678.55 345.59,692.11 344.40,706.06 345.34,715.03 347.40,723.91 350.40,732.00 354.45,739.42 359.45,746.05 365.12,751.42 370.22,754.68 375.86,757.12 381.72,758.83 387.47,759.76 393.12,760.00 398.83,759.51 404.43,758.29 409.64,756.29 415.68,752.39 421.25,747.27 426.31,741.42 431.74,733.08 438.14,720.10 603.23,350.64"
        fill="none"
        stroke="#e94560"
        stroke-width="8.0"
        stroke-linejoin="round"
        stroke-linecap="round"/>
  <!-- Start/finish line -->
  <line x1="584.97" y1="342.48" x2="621.49" y2="358.80"
        stroke="#f5f5f5" stroke-width="9.6"
        stroke-linecap="round"/>
</svg>
