<?xml version="1.0" encoding="utf-8"?>
<svg xmlns="http://www.w3.org/2000/svg"
     width="800.0" height="753.3"
     viewBox="0 0 800.0 753.3">
  <rect width="100%" height="100%" fill="#1a1a2e"/>
  <!-- Track outline -->
  <polyline points="460.68,651.01 704.84,419.11 725.99,389.33 739.89,362.24 750.43,335.70 757.33,308.57 760.00,282.53 759.07,256.21 754.23,227.69 745.29,199.70 730.12,170.68 710.41,142.74 679.90,107.77 647.39,77.58 624.88,61.68 602.77,50.45 581.33,43.42 559.15,40.00 534.47,40.00 506.33,44.24 438.77,63.30 375.81,87.59 358.53,97.41 345.66,108.09 339.19,115.16 333.59,122.78 329.55,130.89 327.89,136.52 326.79,142.47 326.42,148.33 326.79,153.83 327.92,158.56 329.75,163.11 332.09,167.30 334.76,170.95 337.96,174.15 341.66,176.81 345.66,178.93 349.76,180.55 354.36,181.77 359.20,182.40 364.24,182.35 369.30,181.59 381.38,176.50 394.45,168.38 415.39,152.66 437.67,136.75 457.77,127.02 477.88,120.39 496.79,116.83 515.86,116.11 536.77,118.59 557.65,124.22 577.79,132.87 598.00,144.91 624.34,165.00 649.09,187.67 665.19,204.93 677.97,222.55 685.30,237.28 689.80,252.29 690.90,261.44 690.87,270.59 689.67,278.97 687.34,285.77 684.04,291.95 680.13,296.99 677.03,299.83 673.63,302.09 669.93,303.80 665.96,305.10 658.72,306.32 650.82,306.32 642.92,305.24 634.91,302.85 626.91,299.25 619.01,294.56 606.67,284.83 593.80,271.80 570.75,241.97 547.38,212.73 533.91,201.05 520.50,192.81 510.36,188.26 499.82,184.92 489.15,182.89 478.35,182.22 467.41,182.94 456.44,185.19 444.97,188.93 433.43,194.52 420.49,203.49 369.54,256.53 322.08,316.42 307.61,338.09 297.84,358.23 292.47,376.84 290.20,395.68 291.24,414.56 295.14,432.50 299.11,442.68 304.21,452.10 310.21,460.71 318.05,469.45 327.02,477.24 336.29,483.46 345.39,487.70 354.83,490.49 364.14,492.16 372.77,492.93 381.31,492.70 389.61,491.26 397.75,488.51 405.65,484.54 412.82,479.41 418.59,473.82 423.66,467.15 428.36,458.45 437.67,424.21 446.04,387.79 452.11,369.86 459.21,355.21 465.18,347.37 471.95,340.70 478.95,335.66 485.49,332.73 492.26,331.11 499.02,330.43 505.79,330.47 512.53,331.42 518.97,333.63 523.63,336.20 528.20,339.53 532.41,343.50 535.87,347.96 539.17,354.31 541.58,361.48 542.91,369.18 542.68,382.66 539.54,398.74 522.30,450.30 499.86,501.04 488.42,518.66 476.32,531.86 461.94,543.58 446.24,552.77 428.66,559.71 410.05,563.94 388.85,565.48 367.17,564.03 346.26,559.62 324.45,552.23 260.09,520.37 218.51,493.60 178.92,470.26 156.95,463.05 136.81,460.03 118.43,459.89 100.86,462.69 84.82,468.28 70.18,476.39 62.51,482.16 55.54,488.74 49.70,496.13 45.40,503.70 42.03,511.94 40.20,520.19 40.00,525.82 40.53,531.59 41.67,537.09 43.37,542.00 45.60,546.15 48.44,549.84 51.74,553.08 55.31,555.83 60.01,558.45 65.28,560.47 70.81,561.78 76.32,562.41 87.39,560.97 98.82,557.77 112.10,553.36 125.80,549.89 135.44,549.57 145.21,550.52 154.78,552.77 163.98,556.28 172.92,561.11 181.93,567.59 198.70,584.63 215.41,606.08 234.35,637.17 253.36,666.87 268.83,682.73 284.94,694.72 302.01,704.00 319.82,710.22 338.26,713.28 357.10,713.24 377.21,710.13 397.52,703.28 420.76,688.81 440.33,670.65 460.68,651.01"
        fill="none"
        stroke="#e94560"
        stroke-width="8.0"
        stroke-linejoin="round"
        stroke-linecap="round"/>
  <!-- Start/finish line -->
  <line x1="446.89" y1="636.51" x2="474.46" y2="665.50"
        stroke="#f5f5f5" stroke-width="9.6"
        stroke-linecap="round"/>
</svg>
