<?xml version="1.0" encoding="utf-8"?>
<svg xmlns="http://www.w3.org/2000/svg"
     width="794.1" height="800.0"
     viewBox="0 0 794.1 800.0">
  <rect width="100%" height="100%" fill="#1a1a2e"/>
  <!-- Track outline -->
  <polyline points="516.19,440.10 531.04,554.11 531.50,565.60 530.94,574.00 529.51,582.08 527.47,589.23 525.63,593.68 523.65,597.48 522.18,599.99 520.36,602.48 515.49,607.80 509.59,613.00 504.31,616.33 498.74,618.82 492.76,620.57 486.56,621.54 480.20,621.71 473.60,621.04 465.30,619.19 456.88,616.30 448.45,612.22 440.31,607.26 432.36,601.47 424.66,594.77 407.75,575.56 390.18,548.96 375.22,518.55 353.44,460.33 344.36,437.94 337.62,424.62 332.02,412.19 320.78,399.95 312.16,389.44 304.72,381.88 296.22,375.38 283.07,368.30 268.25,362.65 252.76,358.78 234.82,356.64 151.69,359.54 76.21,365.61 68.84,367.45 62.98,369.92 55.56,374.29 49.08,379.39 45.68,383.14 43.14,387.12 41.80,390.05 40.77,393.11 40.15,396.25 40.00,399.46 40.26,402.72 40.89,405.93 42.61,410.75 45.12,415.35 48.43,419.82 52.58,423.91 58.64,428.20 65.58,431.68 73.12,434.05 81.23,435.25 90.75,435.07 101.79,433.41 155.75,417.87 178.15,414.53 185.57,414.39 192.91,414.98 203.49,416.86 213.84,419.60 220.63,422.04 227.01,425.04 234.67,429.46 242.15,434.70 249.16,440.71 255.64,447.38 261.60,454.72 267.04,462.84 277.78,484.49 285.49,508.74 288.31,530.09 288.39,542.94 287.39,555.71 285.55,566.21 282.82,576.26 274.63,595.87 270.39,603.25 265.62,610.26 251.49,626.06 234.73,639.11 212.86,650.84 184.05,661.08 153.05,668.93 124.39,677.17 115.63,681.62 109.09,686.32 105.95,689.07 103.26,691.95 101.03,695.08 99.35,698.48 98.12,702.14 97.29,705.87 96.75,711.69 97.16,717.58 98.61,723.49 101.12,729.31 105.39,735.89 110.86,742.00 117.74,747.48 125.57,752.01 134.30,755.64 144.16,758.20 158.54,760.00 176.83,759.97 307.78,740.73 458.19,718.56 681.49,689.40 692.65,686.26 700.57,682.77 707.87,678.54 714.46,673.50 720.72,667.44 726.25,660.55 731.04,652.58 734.85,643.94 737.62,634.80 739.26,624.68 739.58,608.89 738.20,590.49 726.88,524.46 725.74,493.50 728.71,466.91 736.01,440.91 750.45,394.04 753.22,375.33 754.06,355.14 747.10,272.55 725.18,131.94 719.34,113.10 713.26,99.07 709.07,91.33 704.04,84.25 693.76,72.77 682.05,62.01 672.66,55.20 662.95,49.71 651.43,45.04 641.60,41.93 637.19,41.01 629.15,40.14 619.37,40.00 608.38,41.46 596.78,44.50 581.36,50.61 566.28,58.66 554.17,67.34 543.12,77.59 531.63,91.28 521.36,106.59 512.51,123.23 505.26,140.84 499.70,159.41 495.73,178.94 492.08,225.37 499.30,310.53 516.19,440.10"
        fill="none"
        stroke="#e94560"
        stroke-width="8.0"
        stroke-linejoin="round"
        stroke-linecap="round"/>
  <!-- Start/finish line -->
  <line x1="536.02" y1="437.51" x2="496.36" y2="442.68"
        stroke="#f5f5f5" stroke-width="9.6"
        stroke-linecap="round"/>
</svg>
