<?xml version="1.0" encoding="utf-8"?>
<svg xmlns="http://www.w3.org/2000/svg"
     width="609.3" height="800.0"
     viewBox="0 0 609.3 800.0">
  <rect width="100%" height="100%" fill="#1a1a2e"/>
  <!-- Track outline -->
  <polyline points="78.21,349.07 71.16,373.15 46.95,476.39 40.99,521.89 40.00,565.88 43.13,589.15 49.62,608.87 77.48,664.69 88.55,679.14 117.34,709.73 130.58,719.97 186.51,749.75 193.56,752.60 200.61,754.49 222.65,758.11 248.63,760.00 275.74,758.92 302.23,755.26 322.25,750.64 342.71,742.90 382.14,719.86 416.46,696.13 430.03,684.49 445.74,667.54 462.77,644.62 483.56,605.41 503.55,555.94 559.08,350.73 569.26,251.76 568.83,236.08 566.79,221.48 559.87,192.48 551.08,164.97 540.64,143.70 514.32,105.64 505.36,96.01 495.81,87.69 481.51,77.10 465.41,67.20 446.04,57.22 424.76,49.05 395.08,43.00 367.64,40.19 357.53,40.00 347.58,40.92 323.44,44.82 297.06,51.83 274.20,62.00 252.03,74.79 228.58,90.08 205.81,108.61 182.33,133.61 159.83,164.08 106.27,268.83 81.60,337.44 78.21,349.07"
        fill="none"
        stroke="#e94560"
        stroke-width="8.0"
        stroke-linejoin="round"
        stroke-linecap="round"/>
  <!-- Start/finish line -->
  <line x1="97.41" y1="354.69" x2="59.01" y2="343.46"
        stroke="#f5f5f5" stroke-width="9.6"
        stroke-linecap="round"/>
</svg>
