<?xml version="1.0" encoding="utf-8"?>
<svg xmlns="http://www.w3.org/2000/svg"
     width="800.0" height="503.1"
     viewBox="0 0 800.0 503.1">
  <rect width="100%" height="100%" fill="#1a1a2e"/>
  <!-- Track outline -->
  <polyline points="415.08,462.97 492.44,461.17 604.75,445.10 635.96,436.84 664.31,425.47 683.40,413.26 703.02,396.59 718.57,378.11 732.69,358.24 743.99,335.66 756.50,297.07 758.78,286.60 760.00,275.29 759.50,242.95 756.43,209.96 753.35,195.54 749.31,183.18 744.38,171.36 738.59,160.45 724.65,141.02 707.60,122.55 687.58,105.93 657.52,88.66 624.09,72.84 579.55,58.92 492.37,44.56 416.05,40.00 327.54,41.00 213.40,53.52 181.16,62.83 155.96,73.04 130.83,86.16 111.92,100.27 96.01,114.79 87.97,123.10 80.79,132.31 59.77,168.56 49.69,194.59 43.86,217.62 40.00,243.65 40.00,276.49 42.79,305.83 45.04,316.29 47.97,325.15 56.12,343.77 67.95,364.60 79.71,379.17 94.48,393.73 120.97,413.21 146.74,428.93 165.36,437.04 225.63,453.66 268.49,460.27 410.47,463.07 415.08,462.97"
        fill="none"
        stroke="#e94560"
        stroke-width="8.0"
        stroke-linejoin="round"
        stroke-linecap="round"/>
  <!-- Start/finish line -->
  <line x1="414.62" y1="442.97" x2="415.55" y2="482.96"
        stroke="#f5f5f5" stroke-width="9.6"
        stroke-linecap="round"/>
</svg>
