<?xml version="1.0" encoding="utf-8"?>
<svg xmlns="http://www.w3.org/2000/svg"
     width="591.9" height="800.0"
     viewBox="0 0 591.9 800.0">
  <rect width="100%" height="100%" fill="#1a1a2e"/>
  <!-- Track outline -->
  <polyline points="465.83,501.46 393.01,668.09 380.01,690.53 365.48,710.37 349.17,727.21 331.76,741.53 322.65,747.39 313.23,752.31 304.07,755.98 294.44,758.55 282.41,760.00 269.94,760.00 258.43,758.89 245.80,755.64 214.89,740.12 184.35,723.54 161.76,715.29 139.34,711.18 98.27,709.30 88.14,707.59 79.22,704.90 70.25,700.62 62.01,695.02 54.64,687.84 48.53,679.55 45.35,673.74 42.81,667.54 41.08,661.00 40.07,653.26 40.00,645.18 41.14,637.53 43.52,631.03 47.00,624.96 51.21,619.40 58.90,612.18 69.06,605.25 127.44,574.60 147.83,561.22 157.21,553.83 165.84,545.71 173.46,536.43 179.93,526.38 185.12,515.82 188.74,504.80 190.32,493.72 190.23,482.57 188.58,471.62 185.10,462.22 180.11,453.54 173.78,445.29 160.41,429.56 148.63,413.19 143.78,404.25 139.91,394.89 137.21,384.97 136.14,374.67 136.78,366.76 138.45,358.64 140.90,351.12 145.27,342.65 151.31,334.32 179.88,303.80 191.85,286.40 201.05,268.23 208.78,249.63 211.76,239.76 213.49,230.48 214.48,221.34 214.18,210.18 203.43,158.11 193.11,105.45 193.27,92.92 195.24,82.70 198.92,72.45 204.16,63.00 208.39,57.14 213.22,51.67 218.64,47.18 224.64,43.85 231.18,41.41 237.79,40.13 242.76,40.00 247.84,40.51 252.80,41.67 257.40,43.46 261.70,45.98 265.77,49.15 269.43,52.87 272.48,56.89 275.38,62.57 277.28,68.90 278.93,76.63 281.77,109.12 284.74,142.08 288.01,154.26 292.22,164.70 304.78,186.88 326.91,220.10 334.71,237.96 340.09,256.77 343.08,275.80 344.41,301.32 343.20,320.68 340.18,339.88 329.38,378.22 314.00,414.85 295.91,449.61 282.25,483.04 272.20,514.71 270.76,525.66 271.26,535.36 272.64,543.06 274.93,550.84 278.13,557.89 282.13,563.87 286.96,569.26 292.47,573.58 297.12,576.06 302.24,578.02 307.55,579.26 312.81,579.69 318.35,579.13 324.02,577.68 329.49,575.54 334.41,572.85 339.65,568.53 344.18,563.27 348.39,557.63 354.04,549.25 360.15,537.37 442.88,314.48 447.09,294.52 448.63,274.90 447.94,262.46 445.86,249.98 442.13,238.69 436.91,228.05 430.48,218.51 422.09,209.20 403.03,194.32 383.99,179.61 375.85,170.94 369.51,162.22 364.22,152.81 360.40,142.94 358.46,132.76 358.25,122.55 359.10,116.18 360.70,109.94 363.15,103.91 366.88,97.37 371.59,91.04 377.08,85.61 383.58,81.17 390.85,77.62 398.15,75.27 404.63,74.28 411.15,74.24 417.58,75.01 427.35,77.75 436.84,81.94 455.40,94.03 473.93,109.21 506.74,141.95 520.17,158.92 532.18,177.69 542.18,198.47 549.13,220.74 551.90,244.46 551.63,268.79 547.99,292.98 542.04,317.01 482.85,462.52 465.83,501.46"
        fill="none"
        stroke="#e94560"
        stroke-width="8.0"
        stroke-linejoin="round"
        stroke-linecap="round"/>
  <!-- Start/finish line -->
  <line x1="484.16" y1="509.47" x2="447.50" y2="493.45"
        stroke="#f5f5f5" stroke-width="9.6"
        stroke-linecap="round"/>
</svg>
