<?xml version="1.0" encoding="utf-8"?>
<svg xmlns="http://www.w3.org/2000/svg"
     width="800.0" height="625.3"
     viewBox="0 0 800.0 625.3">
  <rect width="100%" height="100%" fill="#1a1a2e"/>
  <!-- Track outline -->
  <polyline points="136.23,209.27 134.91,156.22 136.22,113.18 137.03,103.66 138.52,94.85 140.58,86.77 146.25,72.29 149.81,65.92 151.92,63.10 154.27,60.49 156.87,58.16 159.66,56.08 165.49,52.77 171.55,50.20 178.04,48.03 208.14,42.22 225.60,40.00 231.04,40.25 236.29,41.13 242.47,42.73 249.79,45.64 277.07,62.43 304.33,79.41 309.43,81.98 313.66,83.78 317.82,84.47 320.98,84.13 324.13,83.15 327.21,81.72 330.18,79.98 336.57,74.49 342.55,67.61 348.67,58.40 354.92,49.63 357.78,46.75 360.71,44.16 363.83,42.06 367.27,40.64 373.28,40.09 379.91,40.90 386.36,42.34 395.29,45.23 403.60,49.31 409.80,54.14 416.96,60.04 477.47,96.56 509.04,110.99 519.73,114.46 530.66,116.99 540.82,117.92 562.15,117.70 615.70,109.41 626.14,108.80 636.51,109.22 646.83,110.55 656.87,112.41 666.49,115.05 675.93,118.53 684.92,122.63 719.82,142.85 734.53,152.71 740.56,157.64 745.72,162.56 749.79,167.79 753.28,173.41 755.94,179.29 757.88,185.65 759.26,192.31 760.00,199.09 759.81,206.01 758.91,212.70 756.93,219.33 754.25,225.59 750.53,231.35 746.28,236.86 741.15,242.27 735.04,247.52 705.93,265.24 697.47,269.57 679.81,278.45 660.64,286.92 584.54,326.57 212.99,533.39 140.03,574.70 126.34,581.57 119.74,584.02 116.26,584.81 112.71,585.25 109.03,585.28 105.25,584.87 96.41,582.32 81.03,576.35 74.17,572.81 67.37,568.28 61.10,562.77 55.89,557.34 51.07,551.15 46.98,544.17 43.61,536.75 41.49,529.74 40.42,522.59 40.00,515.02 40.34,507.11 41.47,498.93 43.30,490.66 46.37,483.06 50.34,475.98 61.21,463.57 111.08,396.95 122.58,377.36 126.89,366.89 135.62,334.50 138.78,311.70 136.23,209.27"
        fill="none"
        stroke="#e94560"
        stroke-width="8.0"
        stroke-linejoin="round"
        stroke-linecap="round"/>
  <!-- Start/finish line -->
  <line x1="116.24" y1="209.77" x2="156.22" y2="208.77"
        stroke="#f5f5f5" stroke-width="9.6"
        stroke-linecap="round"/>
</svg>
