<?xml version="1.0" encoding="utf-8"?>
<svg xmlns="http://www.w3.org/2000/svg"
     width="800.0" height="512.5"
     viewBox="0 0 800.0 512.5">
  <rect width="100%" height="100%" fill="#1a1a2e"/>
  <!-- Track outline -->
  <polyline points="167.23,139.07 185.07,134.51 578.31,43.94 602.09,40.58 620.20,40.00 638.45,41.47 655.78,45.25 671.39,51.39 685.30,59.50 694.73,67.26 702.91,76.68 711.35,90.11 719.26,107.72 748.45,214.43 759.73,275.58 760.00,294.19 758.21,310.64 755.17,322.91 750.64,334.07 744.66,344.61 736.96,354.38 724.93,365.19 710.10,375.03 686.99,385.84 658.38,396.19 526.59,434.91 497.87,440.90 474.12,443.49 459.32,442.91 446.69,440.40 440.98,438.35 435.84,435.84 431.25,432.71 427.47,429.39 424.16,425.57 421.52,421.17 419.43,415.22 418.14,408.58 417.84,402.25 418.48,397.20 419.90,392.37 421.89,387.81 424.56,383.37 427.94,379.24 432.16,375.30 444.46,367.43 460.27,360.60 521.55,347.04 613.45,333.65 630.34,327.70 644.19,320.14 656.69,310.60 667.53,299.29 676.49,286.35 683.18,272.65 686.35,261.84 687.53,249.95 685.44,226.01 679.76,200.57 671.69,178.99 661.18,159.84 649.59,145.48 636.86,134.01 625.81,126.71 613.82,121.42 597.74,117.06 578.89,115.28 542.97,118.53 501.35,126.67 439.53,142.70 383.99,161.61 364.80,171.03 350.44,181.26 344.29,187.44 339.19,194.04 335.37,200.68 333.31,205.90 332.09,211.19 331.59,216.44 331.82,221.65 332.74,226.86 334.39,231.69 336.86,236.20 340.07,240.37 343.75,243.77 346.76,245.78 350.03,247.36 353.65,248.52 357.74,249.21 367.47,249.10 379.02,247.09 392.57,243.50 504.97,195.09 520.88,188.91 534.32,185.24 543.28,184.31 552.09,184.35 560.24,185.43 566.32,187.09 571.93,189.49 577.13,192.50 581.93,196.05 586.32,200.18 590.10,204.81 593.11,209.91 595.51,215.47 597.09,221.26 597.84,227.32 597.77,233.62 596.93,239.75 595.20,245.89 592.64,251.88 589.39,257.36 585.41,262.46 580.68,267.05 575.20,271.14 563.58,277.13 548.18,282.26 491.05,292.96 432.13,304.92 412.26,312.88 395.88,322.53 380.30,334.61 364.83,350.17 338.48,386.00 313.04,420.78 301.15,432.60 289.16,441.86 271.82,452.52 253.11,461.36 234.70,467.50 216.15,471.24 198.48,472.48 181.22,471.28 165.14,467.46 150.51,461.75 140.61,456.11 132.13,449.39 127.40,444.57 123.21,439.24 119.83,433.56 117.43,427.73 115.78,421.60 115.03,415.42 115.24,409.24 116.32,403.06 118.18,397.12 120.91,391.33 124.53,385.81 128.85,380.44 138.55,371.06 151.49,361.52 189.39,341.68 225.68,321.87 234.73,313.69 241.18,305.39 246.49,296.24 250.30,286.47 252.47,276.62 253.07,266.66 252.53,260.29 251.28,253.96 249.32,248.06 246.59,242.53 243.14,237.40 239.16,232.92 234.46,229.02 229.19,225.82 223.65,223.35 217.70,221.57 211.45,220.57 204.80,220.37 191.99,221.88 177.09,226.20 140.78,244.81 105.84,262.57 98.34,264.69 92.06,265.66 85.95,265.70 79.93,265.00 74.05,263.46 68.31,260.99 61.69,256.70 55.24,251.18 49.83,245.28 46.35,240.30 43.58,235.08 41.62,229.56 40.44,223.73 40.00,217.59 40.44,211.57 41.89,205.43 44.29,199.33 47.57,193.43 56.49,182.46 67.64,172.54 80.20,164.16 95.14,157.17 156.08,141.88 167.23,139.07"
        fill="none"
        stroke="#e94560"
        stroke-width="8.0"
        stroke-linejoin="round"
        stroke-linecap="round"/>
  <!-- Start/finish line -->
  <line x1="162.30" y1="119.68" x2="172.16" y2="158.45"
        stroke="#f5f5f5" stroke-width="9.6"
        stroke-linecap="round"/>
</svg>
