<?xml version="1.0" encoding="utf-8"?>
<svg xmlns="http://www.w3.org/2000/svg"
     width="800.0" height="516.1"
     viewBox="0 0 800.0 516.1">
  <rect width="100%" height="100%" fill="#1a1a2e"/>
  <!-- Track outline -->
  <polyline points="312.15,439.87 308.31,441.08 241.73,462.35 209.00,472.57 202.95,474.06 191.06,475.79 186.25,476.06 181.35,476.00 166.50,474.49 154.21,471.31 144.78,467.81 139.44,465.39 92.49,446.12 83.97,443.37 54.80,432.88 50.45,430.84 47.26,428.91 44.45,426.86 43.54,425.90 42.82,424.91 42.09,423.69 41.43,422.34 40.83,420.65 40.37,418.84 40.00,415.25 40.11,411.35 40.33,409.84 40.66,408.42 41.17,406.96 41.80,405.57 43.47,403.11 44.37,401.94 45.37,400.89 46.45,400.00 47.98,399.08 74.69,388.12 173.94,351.09 181.12,348.58 220.29,335.37 233.89,331.82 266.29,324.56 293.96,319.18 367.79,305.13 371.25,303.97 373.71,302.76 375.98,301.29 377.91,299.71 378.92,298.62 379.76,297.50 380.50,296.31 381.10,295.05 381.42,294.05 381.63,292.86 381.82,288.95 381.57,284.96 381.08,283.44 380.44,282.21 379.80,281.13 379.06,280.14 378.06,278.98 376.94,277.93 375.94,277.16 374.62,276.44 367.68,273.87 359.75,271.58 352.39,270.58 340.17,267.83 330.85,265.02 318.78,259.77 296.11,248.64 295.06,247.96 294.31,247.27 293.64,246.49 293.00,245.58 292.56,244.73 292.42,244.24 292.37,243.77 292.38,243.31 292.45,242.81 292.58,242.33 292.79,241.83 293.23,241.11 293.81,240.39 294.45,239.75 295.66,238.92 296.89,238.32 297.64,238.08 298.43,237.91 301.88,237.41 331.60,238.12 353.95,236.34 368.47,233.70 403.68,225.51 418.57,220.26 441.90,209.68 451.75,203.80 462.71,196.17 469.10,190.15 479.92,177.97 483.72,172.25 486.89,165.66 489.19,158.68 490.23,153.21 492.23,128.04 492.87,106.24 494.00,95.51 495.79,87.57 498.03,80.16 500.96,73.24 505.05,66.54 508.73,61.82 512.89,57.47 519.43,52.13 526.15,48.01 533.53,44.68 538.53,42.80 545.56,41.11 558.25,40.00 568.88,40.54 575.87,41.83 582.84,43.87 588.84,45.99 594.14,48.46 598.80,51.06 612.99,61.21 617.05,64.75 620.58,68.56 624.00,73.48 626.82,78.53 628.28,81.75 629.33,84.88 630.29,90.74 631.66,103.40 632.55,107.26 633.24,109.33 634.13,111.37 637.23,115.83 646.24,127.43 647.79,130.04 648.82,132.45 649.26,134.20 649.40,136.32 647.66,147.23 645.91,158.91 646.17,162.72 646.91,166.04 648.24,170.28 650.14,174.40 653.05,178.74 656.42,182.49 659.59,184.98 662.89,186.82 666.28,188.03 669.43,188.76 672.72,189.16 677.04,189.23 684.41,188.53 743.42,175.93 745.97,175.72 747.20,175.80 748.39,175.97 750.22,176.50 751.13,176.86 752.08,177.37 753.74,178.53 755.37,179.88 756.27,180.75 757.08,181.74 758.22,183.54 759.16,185.40 759.49,186.32 759.71,187.21 760.00,189.53 759.98,191.89 759.84,192.94 759.61,193.95 759.30,194.91 758.90,195.81 758.41,196.65 757.82,197.45 756.96,198.41 755.99,199.29 755.00,199.99 753.82,200.62 747.81,202.77 735.34,206.02 723.95,208.32 720.22,209.66 716.48,211.42 713.39,213.53 710.53,215.83 708.33,218.26 697.35,234.69 693.42,239.50 688.09,244.72 683.55,247.61 661.53,257.82 655.26,261.32 648.94,265.91 646.06,268.14 643.56,270.52 642.20,272.57 640.96,274.86 636.69,282.69 635.23,284.50 633.69,286.02 629.39,289.59 624.13,292.65 619.26,294.82 614.86,296.22 607.56,298.03 586.22,305.58 568.59,314.48 553.36,324.13 525.13,348.68 505.60,366.92 500.82,370.84 490.61,378.03 480.13,384.15 471.67,388.03 457.97,393.19 398.48,412.70 312.15,439.87"
        fill="none"
        stroke="#e94560"
        stroke-width="8.0"
        stroke-linejoin="round"
        stroke-linecap="round"/>
  <!-- Start/finish line -->
  <line x1="318.16" y1="458.95" x2="306.15" y2="420.80"
        stroke="#f5f5f5" stroke-width="9.6"
        stroke-linecap="round"/>
</svg>
