<?xml version="1.0" encoding="utf-8"?>
<svg xmlns="http://www.w3.org/2000/svg"
     width="800.0" height="524.6"
     viewBox="0 0 800.0 524.6">
  <rect width="100%" height="100%" fill="#1a1a2e"/>
  <!-- Track outline -->
  <polyline points="505.59,213.23 510.54,214.55 578.79,232.59 590.18,236.45 601.30,241.04 612.20,246.28 622.70,252.37 632.59,259.37 641.95,267.18 650.80,275.58 663.39,289.26 679.39,311.54 749.99,424.82 754.25,432.78 758.14,443.08 759.24,447.91 759.88,452.73 760.00,457.31 759.61,461.77 758.72,465.96 757.25,469.95 755.63,472.88 753.63,475.65 751.40,478.10 748.85,480.21 746.06,481.96 743.15,483.28 740.45,484.18 737.62,484.64 733.55,484.64 662.26,469.00 590.77,449.90 580.79,446.72 571.02,442.71 561.68,437.67 552.84,431.70 544.53,424.91 536.68,417.58 529.22,409.69 522.33,401.29 511.08,384.12 506.61,375.81 503.23,366.93 501.18,357.78 500.66,353.59 500.52,349.34 500.87,344.32 501.81,339.36 503.48,334.72 505.72,330.51 508.52,326.76 511.76,323.60 515.59,321.03 519.72,319.14 524.14,317.89 528.69,317.35 533.40,317.57 538.13,318.44 542.92,319.85 547.65,321.80 552.30,324.25 556.78,327.21 561.06,330.79 564.96,334.67 570.29,341.43 584.75,364.93 597.44,379.87 601.24,383.22 605.30,386.12 613.55,391.20 621.91,395.56 626.11,397.17 630.12,398.24 635.24,399.16 640.47,399.54 645.23,399.32 649.78,398.37 652.41,397.32 654.92,395.94 657.28,394.21 659.63,392.03 661.82,389.47 663.53,386.62 664.55,383.75 665.18,380.66 665.32,377.61 664.85,374.60 663.89,371.60 662.69,368.70 657.44,359.87 623.23,311.47 617.00,305.02 602.10,293.88 598.29,291.52 593.64,289.37 525.75,269.22 461.51,256.28 393.58,255.79 329.45,256.59 324.76,257.48 321.01,258.76 316.01,260.95 311.18,263.82 307.13,267.05 303.59,270.86 300.86,274.90 298.80,279.37 297.57,284.11 297.07,289.06 297.38,294.02 298.38,298.93 300.25,303.71 302.28,308.42 303.75,313.07 304.75,317.76 305.04,322.24 304.69,326.73 303.94,330.04 302.80,333.33 301.31,336.31 299.25,339.03 296.80,341.38 294.11,343.27 290.94,344.71 287.50,345.61 284.13,346.18 279.99,346.43 275.25,346.09 245.50,340.41 217.93,331.47 201.07,323.31 192.93,318.03 185.40,311.71 178.52,304.48 159.94,279.78 80.33,158.41 47.29,100.65 43.56,92.19 41.11,84.01 40.27,78.84 40.00,73.51 40.50,68.40 41.67,63.48 43.64,58.73 46.26,54.43 49.69,50.48 53.63,47.13 58.13,44.25 62.97,42.06 68.16,40.63 73.44,40.00 78.51,40.17 83.43,41.12 87.93,42.83 92.03,45.26 94.24,47.00 96.27,49.01 97.97,51.34 99.30,54.08 100.33,57.15 101.07,60.28 101.30,64.96 101.65,69.54 102.66,72.39 104.06,75.04 105.78,77.36 108.10,79.43 110.80,81.11 113.64,82.32 116.88,83.07 120.30,83.33 123.63,83.27 127.76,82.72 132.20,81.71 150.99,76.69 161.54,75.08 167.17,74.95 172.65,75.28 176.97,75.94 181.10,76.97 185.17,78.27 189.21,80.09 193.77,82.91 198.00,86.38 201.17,89.91 203.74,93.99 205.07,97.15 206.09,100.59 206.54,104.01 206.33,107.32 205.60,110.63 204.41,113.63 202.54,116.38 200.15,118.77 197.67,120.85 194.09,123.24 190.34,125.19 181.96,128.85 172.49,131.16 162.34,132.60 157.66,133.41 153.18,134.75 150.29,136.16 147.50,137.97 145.18,140.21 143.57,142.69 142.33,145.54 141.55,148.55 141.41,153.50 142.06,158.50 142.87,162.42 144.38,166.83 152.42,183.85 163.26,203.23 174.43,219.88 184.71,233.03 188.45,236.80 191.92,239.61 200.09,245.10 208.57,249.02 212.66,250.34 216.91,251.21 222.29,251.61 227.84,251.28 233.22,250.01 238.32,248.14 242.03,246.39 245.81,244.11 252.92,238.96 259.75,233.21 265.81,226.24 276.37,210.95 279.31,207.66 282.31,204.96 286.56,201.87 291.19,199.31 296.02,197.53 300.98,196.50 305.64,196.22 311.24,196.70 334.12,201.55 356.82,206.43 362.01,206.83 366.34,206.68 375.89,205.27 404.45,195.95 414.71,194.35 425.18,194.00 435.71,195.05 446.15,197.27 505.59,213.23"
        fill="none"
        stroke="#e94560"
        stroke-width="8.0"
        stroke-linejoin="round"
        stroke-linecap="round"/>
  <!-- Start/finish line -->
  <line x1="510.77" y1="193.91" x2="500.41" y2="232.54"
        stroke="#f5f5f5" stroke-width="9.6"
        stroke-linecap="round"/>
</svg>
