<?xml version="1.0" encoding="utf-8"?>
<svg xmlns="http://www.w3.org/2000/svg"
     width="800.0" height="711.2"
     viewBox="0 0 800.0 711.2">
  <rect width="100%" height="100%" fill="#1a1a2e"/>
  <!-- Track outline -->
  <polyline points="704.24,276.35 677.47,129.14 672.54,112.94 665.26,98.56 656.11,85.82 650.68,79.96 644.74,74.71 632.00,67.03 625.99,63.79 619.74,61.23 612.23,59.72 604.45,59.16 596.95,59.25 589.60,60.24 582.56,62.34 575.86,65.43 569.58,69.50 563.86,74.37 558.86,79.87 554.02,86.53 545.91,100.88 537.69,115.20 532.55,121.89 527.21,127.35 521.29,132.13 514.90,136.08 508.08,139.14 500.87,141.18 493.04,141.79 484.97,141.39 468.16,138.68 450.59,133.52 423.20,121.98 409.05,114.67 299.23,54.44 269.94,43.15 262.91,41.45 256.30,40.56 248.20,40.00 240.11,40.34 232.88,41.67 226.03,44.07 221.39,46.57 216.96,49.72 213.18,53.30 210.21,57.25 207.86,61.63 206.33,66.20 205.73,71.01 205.95,76.04 206.93,80.88 208.77,85.57 211.40,90.08 214.47,94.37 219.81,100.35 226.37,106.15 236.93,114.49 251.08,123.25 344.53,160.06 398.35,183.11 548.90,263.86 561.21,271.94 568.17,277.59 574.71,283.94 580.14,290.58 584.62,297.71 587.92,305.20 590.06,313.04 590.87,321.06 590.49,329.15 588.86,337.23 586.03,345.04 581.87,352.41 576.65,359.26 570.11,365.87 563.05,371.67 550.84,379.38 536.90,385.52 521.58,390.27 487.85,394.81 411.09,396.23 375.53,393.82 343.35,388.92 328.10,385.03 313.16,378.83 306.15,374.94 299.66,370.49 294.29,365.62 289.46,360.34 280.86,349.02 271.31,333.47 265.73,326.59 259.53,320.42 252.92,315.36 245.09,310.76 228.40,304.31 211.81,297.92 204.34,293.63 198.16,288.85 192.32,282.68 187.41,275.68 183.73,268.21 180.83,259.63 178.08,243.99 175.20,227.17 170.58,211.87 165.15,198.29 161.08,190.88 156.60,184.37 145.59,171.57 133.33,160.83 120.59,151.30 108.28,144.85 100.17,141.42 91.67,139.02 83.70,138.77 75.87,139.69 68.52,141.18 61.57,143.61 57.26,145.93 53.22,148.70 49.65,151.94 46.61,155.62 44.05,159.69 42.08,163.98 40.48,170.80 40.00,177.96 40.24,184.56 41.72,193.07 61.38,262.38 88.65,341.64 117.60,398.48 143.70,433.32 159.31,448.71 229.86,497.19 298.36,529.34 332.70,538.69 351.13,540.60 390.06,539.40 428.97,533.57 464.91,523.60 482.19,515.76 559.15,460.99 572.41,452.26 579.16,448.93 586.08,446.25 592.81,444.33 599.78,443.13 608.11,442.54 616.44,443.07 621.42,444.18 626.26,445.88 630.73,448.22 635.16,451.43 639.23,455.35 642.44,459.70 644.19,463.19 645.51,466.98 646.27,470.90 646.42,474.73 645.32,479.97 643.04,485.19 640.31,490.06 636.10,495.92 630.35,501.82 611.89,516.26 593.14,530.67 586.73,536.71 581.82,542.67 577.56,550.07 574.40,558.13 572.39,566.83 571.45,575.72 571.48,584.23 572.51,592.62 574.59,600.74 577.75,608.52 582.15,615.89 587.54,622.77 594.05,629.50 601.02,635.51 613.16,644.03 626.07,651.10 641.63,657.91 665.62,665.07 688.56,669.95 706.68,671.18 715.11,671.03 723.27,670.04 731.01,667.97 738.19,664.83 742.47,662.02 746.40,658.72 749.90,655.01 752.89,650.97 755.40,646.53 757.39,641.90 759.23,635.27 760.00,626.75 757.87,588.77 750.83,532.61 704.24,276.35"
        fill="none"
        stroke="#e94560"
        stroke-width="8.0"
        stroke-linejoin="round"
        stroke-linecap="round"/>
  <!-- Start/finish line -->
  <line x1="684.56" y1="279.93" x2="723.92" y2="272.78"
        stroke="#f5f5f5" stroke-width="9.6"
        stroke-linecap="round"/>
</svg>
