<?xml version="1.0" encoding="utf-8"?>
<svg xmlns="http://www.w3.org/2000/svg"
     width="800.0" height="551.4"
     viewBox="0 0 800.0 551.4">
  <rect width="100%" height="100%" fill="#1a1a2e"/>
  <!-- Track outline -->
  <polyline points="165.92,221.03 331.18,73.64 350.87,59.43 367.50,50.52 386.20,43.73 395.18,41.40 404.75,40.00 419.42,40.00 433.80,41.61 442.29,43.89 449.99,46.90 464.96,54.61 475.44,62.48 484.42,71.87 493.35,84.47 500.48,98.48 505.13,113.05 507.52,128.07 507.97,135.21 507.61,142.92 505.20,156.93 500.84,171.30 495.41,182.01 488.42,191.65 478.52,201.24 467.92,209.19 460.55,213.36 453.64,216.45 443.73,219.83 321.91,242.58 312.93,245.60 305.23,249.29 265.80,273.61 242.65,291.60 222.34,310.06 212.44,320.94 205.44,331.94 202.70,339.60 201.13,347.59 200.63,355.62 201.30,363.97 203.05,372.40 205.52,379.90 209.35,387.29 214.16,393.67 219.76,399.49 226.53,404.47 233.48,408.08 241.42,411.09 249.57,413.02 257.91,413.62 266.49,413.02 275.63,411.25 296.29,403.06 318.31,392.02 366.08,367.26 435.51,336.99 508.09,316.88 566.71,307.93 597.14,307.97 626.71,310.66 650.79,314.88 673.68,321.18 696.85,330.09 717.56,340.85 729.74,349.88 740.55,359.99 746.80,368.18 751.64,376.73 755.47,385.64 758.20,394.87 759.72,404.15 760.00,413.34 759.08,421.41 757.04,429.11 753.93,436.50 749.86,443.40 744.72,449.91 738.72,455.73 731.35,460.98 724.05,465.20 715.90,468.61 702.66,472.06 688.56,473.39 673.44,472.42 654.98,469.13 495.81,429.88 491.67,429.51 487.99,429.80 468.40,432.97 449.82,437.46 447.38,438.55 444.99,440.23 409.09,469.90 372.64,499.60 369.63,501.32 366.93,502.41 350.91,507.83 333.38,510.88 313.74,511.36 290.75,508.63 165.45,472.06 88.60,446.61 80.50,442.72 73.89,438.47 63.89,430.52 54.81,421.25 49.17,412.54 45.02,403.38 42.06,394.27 40.31,384.96 40.00,374.97 40.66,365.77 42.54,356.30 47.27,342.77 54.57,329.37 66.16,313.43 84.15,293.96 165.92,221.03"
        fill="none"
        stroke="#e94560"
        stroke-width="8.0"
        stroke-linejoin="round"
        stroke-linecap="round"/>
  <!-- Start/finish line -->
  <line x1="152.61" y1="206.10" x2="179.23" y2="235.96"
        stroke="#f5f5f5" stroke-width="9.6"
        stroke-linecap="round"/>
</svg>
