<?xml version="1.0" encoding="utf-8"?>
<svg xmlns="http://www.w3.org/2000/svg"
     width="800.0" height="794.4"
     viewBox="0 0 800.0 794.4">
  <rect width="100%" height="100%" fill="#1a1a2e"/>
  <!-- Track outline -->
  <polyline points="228.85,227.80 189.36,265.53 65.10,387.08 58.59,395.73 54.33,403.02 46.47,419.86 41.87,437.42 40.00,456.02 41.12,496.74 42.76,507.30 45.15,516.81 48.42,526.26 52.49,535.27 57.25,543.64 62.77,551.46 75.91,565.50 123.62,606.98 130.90,615.74 136.32,624.07 141.28,633.12 145.33,642.49 150.42,661.92 153.90,681.59 159.22,699.37 166.04,716.14 170.94,723.78 176.41,730.03 182.77,735.81 189.76,740.84 197.48,745.33 205.68,748.99 214.31,751.72 223.21,753.52 232.50,754.41 241.91,754.34 250.13,753.98 260.79,751.36 277.10,745.65 291.21,739.44 306.60,732.15 315.25,728.09 556.35,577.35 572.27,565.33 579.37,558.79 585.71,551.68 590.97,543.96 595.08,535.74 597.82,527.16 599.13,518.36 599.15,512.61 598.49,506.87 597.01,501.30 594.49,495.52 591.08,489.99 586.92,485.40 582.09,482.16 576.53,479.83 570.70,478.32 564.20,477.75 557.39,478.11 550.82,479.11 542.13,481.73 533.71,485.43 516.14,495.66 490.05,515.84 472.62,527.26 457.89,534.01 450.66,536.28 441.55,538.11 351.63,544.32 239.26,537.50 184.80,530.39 166.08,525.47 157.52,521.84 149.57,517.32 142.58,511.79 136.64,505.36 133.57,500.69 131.07,495.66 129.20,490.46 127.80,482.16 127.69,473.58 128.63,464.82 130.62,456.13 133.59,447.55 137.55,439.43 142.32,432.00 148.11,425.50 152.62,421.98 157.63,419.00 162.93,416.56 171.87,413.94 181.39,412.58 191.97,412.40 202.44,413.37 219.40,417.42 331.49,462.56 350.02,466.47 359.43,467.30 368.86,467.30 378.19,466.36 387.41,464.60 396.50,462.02 405.30,458.57 413.67,454.26 421.56,449.13 428.91,443.02 435.70,436.31 447.48,421.91 460.88,409.63 476.16,399.50 484.66,395.41 493.61,392.14 513.07,388.16 533.63,386.83 555.04,388.77 576.83,393.94 678.30,421.44 688.03,422.56 695.98,422.49 704.59,421.73 712.94,420.01 720.83,417.17 728.25,413.33 735.14,408.45 741.41,402.81 747.13,396.67 752.01,389.92 755.72,382.45 758.30,374.51 759.75,366.04 760.00,357.39 758.92,348.55 756.74,339.90 753.58,331.57 749.57,323.63 744.91,316.42 739.63,309.70 733.88,303.42 727.57,297.67 720.74,292.50 712.67,287.62 695.37,279.43 677.29,272.46 658.17,268.05 620.31,264.64 611.02,264.85 601.38,266.18 545.95,282.30 399.64,344.46 365.77,357.13 349.66,361.66 341.73,362.84 333.52,363.24 323.26,362.56 312.90,360.76 303.28,357.89 294.18,353.94 285.96,348.95 278.73,342.88 274.72,338.32 271.25,333.29 268.55,327.98 266.79,322.52 265.78,316.77 265.39,310.96 266.05,301.62 268.19,292.43 271.78,283.74 276.57,275.66 282.33,268.44 288.86,261.80 303.21,249.91 319.96,239.29 350.72,225.39 384.70,214.55 402.65,210.81 420.86,208.55 475.48,207.97 484.66,206.29 492.40,203.81 500.29,200.36 507.79,196.16 514.89,191.31 521.44,185.82 527.36,179.61 532.57,172.82 536.96,165.57 540.56,157.96 543.28,150.13 545.23,142.08 547.09,125.78 547.07,117.70 546.22,109.41 544.00,99.07 540.46,88.73 535.33,79.07 529.31,70.27 523.90,63.70 518.03,57.95 511.44,52.75 504.31,48.33 496.72,44.88 488.78,42.33 480.42,40.68 471.88,40.00 463.08,40.36 454.27,41.58 436.91,46.28 419.84,53.75 403.31,63.91 288.92,170.45 228.85,227.80"
        fill="none"
        stroke="#e94560"
        stroke-width="8.0"
        stroke-linejoin="round"
        stroke-linecap="round"/>
  <!-- Start/finish line -->
  <line x1="242.66" y1="242.26" x2="215.04" y2="213.33"
        stroke="#f5f5f5" stroke-width="9.6"
        stroke-linecap="round"/>
</svg>
