<?xml version="1.0" encoding="utf-8"?>
<svg xmlns="http://www.w3.org/2000/svg"
     width="800.0" height="298.3"
     viewBox="0 0 800.0 298.3">
  <rect width="100%" height="100%" fill="#1a1a2e"/>
  <!-- Track outline -->
  <polyline points="429.53,101.10 676.07,46.66 703.29,41.34 716.27,40.00 725.98,40.39 730.49,41.13 734.85,42.28 738.87,43.79 742.69,45.73 746.11,48.00 749.26,50.68 751.98,53.56 754.37,56.77 756.33,60.10 757.91,63.68 759.03,67.37 759.75,71.23 760.00,75.25 759.83,79.33 759.22,83.55 758.19,87.72 756.72,91.86 754.75,96.06 746.98,108.43 728.68,131.74 708.02,156.48 700.10,164.09 693.55,168.61 690.14,170.37 686.65,171.77 683.08,172.78 679.44,173.38 675.69,173.54 671.92,173.25 668.08,172.49 664.26,171.31 660.45,169.72 656.73,167.74 649.61,162.64 639.69,152.75 615.46,125.93 611.19,122.35 607.38,119.88 603.80,118.09 600.19,116.85 596.37,116.08 592.63,115.84 589.58,116.07 586.68,116.72 583.89,117.77 581.16,119.28 578.08,121.63 575.17,124.52 572.57,127.88 570.37,131.54 568.95,134.68 567.92,138.23 567.21,144.41 567.02,151.49 567.76,170.28 566.66,182.91 564.15,192.93 560.86,200.45 558.72,204.00 556.29,207.30 553.49,210.40 550.43,213.18 546.98,215.68 543.31,217.80 539.31,219.63 535.15,221.10 526.07,223.16 480.05,229.17 449.80,237.67 418.97,250.00 404.25,255.49 395.15,257.67 390.63,258.19 386.12,258.29 381.62,257.91 377.34,257.16 374.20,256.30 371.14,255.11 367.32,253.18 363.51,250.77 356.58,244.79 348.35,235.55 340.20,226.70 336.98,224.18 334.00,222.45 330.83,221.08 327.61,220.19 324.57,219.78 321.12,219.83 312.27,221.48 303.40,223.11 299.82,223.12 296.82,222.71 294.59,222.08 292.56,221.18 290.72,220.10 288.98,218.71 287.04,216.64 285.31,214.17 284.02,211.53 283.05,208.55 281.97,200.39 280.85,181.39 279.93,177.52 278.68,174.29 276.99,171.10 274.95,168.27 272.53,165.79 269.87,163.76 267.00,162.22 263.99,161.20 260.86,160.68 257.69,160.69 254.48,161.20 251.31,162.20 248.36,163.56 245.22,165.70 230.81,180.90 222.15,189.41 212.17,197.08 203.42,202.24 193.66,206.27 183.02,208.96 171.93,210.12 160.72,209.58 149.49,207.51 138.28,204.11 127.19,199.13 113.45,190.90 99.84,181.09 83.76,167.41 63.93,148.02 51.11,133.39 44.83,124.28 43.04,120.89 41.66,117.53 40.72,114.36 40.14,111.18 40.00,108.23 40.22,105.36 40.81,102.63 41.74,100.06 43.08,97.57 44.67,95.39 46.17,93.84 47.87,92.54 50.52,91.07 53.46,89.92 56.73,89.10 60.14,88.69 63.67,88.65 67.46,89.02 79.25,91.95 102.04,98.38 109.76,99.39 117.98,99.62 155.48,96.48 171.37,95.45 183.45,96.34 192.56,98.57 195.82,99.79 198.97,101.34 206.88,106.69 222.97,119.33 230.21,123.54 237.59,126.90 245.81,129.73 254.33,131.82 272.58,133.89 295.19,132.69 354.25,119.28 427.51,101.54 429.53,101.10"
        fill="none"
        stroke="#e94560"
        stroke-width="8.0"
        stroke-linejoin="round"
        stroke-linecap="round"/>
  <!-- Start/finish line -->
  <line x1="425.22" y1="81.57" x2="433.84" y2="120.63"
        stroke="#f5f5f5" stroke-width="9.6"
        stroke-linecap="round"/>
</svg>
