<?xml version="1.0" encoding="utf-8"?>
<svg xmlns="http://www.w3.org/2000/svg"
     width="800.0" height="485.0"
     viewBox="0 0 800.0 485.0">
  <rect width="100%" height="100%" fill="#1a1a2e"/>
  <!-- Track outline -->
  <polyline points="362.90,40.87 202.12,42.13 173.88,46.60 153.14,52.28 129.84,61.88 103.80,77.65 88.90,89.38 75.14,103.08 64.08,119.12 55.33,135.66 46.67,160.16 41.33,186.02 40.00,212.10 43.18,238.62 50.43,264.32 54.90,276.16 61.22,288.77 78.20,315.34 100.67,342.63 129.69,366.09 159.57,384.92 195.92,401.23 238.78,415.20 312.08,431.57 391.02,442.38 461.25,444.99 528.16,441.45 631.45,420.98 653.53,412.96 670.12,405.16 681.73,397.74 702.82,379.84 721.41,359.32 736.78,336.68 748.63,311.96 756.20,285.77 759.76,260.56 760.00,235.84 755.33,208.01 747.49,184.17 736.35,161.63 721.96,140.35 705.88,119.99 696.51,110.06 686.08,101.17 665.76,86.71 640.78,73.07 602.24,60.19 560.16,50.59 479.10,40.00 362.90,40.87"
        fill="none"
        stroke="#e94560"
        stroke-width="8.0"
        stroke-linejoin="round"
        stroke-linecap="round"/>
  <!-- Start/finish line -->
  <line x1="363.06" y1="60.87" x2="362.75" y2="20.87"
        stroke="#f5f5f5" stroke-width="9.6"
        stroke-linecap="round"/>
</svg>
