<?xml version="1.0" encoding="utf-8"?>
<svg xmlns="http://www.w3.org/2000/svg"
     width="800.0" height="495.3"
     viewBox="0 0 800.0 495.3">
  <rect width="100%" height="100%" fill="#1a1a2e"/>
  <!-- Track outline -->
  <polyline points="287.35,47.22 239.98,51.44 178.13,65.18 149.86,76.55 126.84,90.67 104.91,108.16 85.50,128.07 67.72,152.20 56.32,173.42 48.62,194.83 42.30,220.01 40.00,243.48 42.70,284.95 48.04,305.94 56.69,330.07 72.32,357.46 89.20,382.33 95.15,389.47 101.87,395.56 128.77,414.37 157.13,431.13 175.59,438.43 219.50,450.88 264.10,455.34 548.07,449.95 584.01,444.25 609.67,437.65 627.90,430.47 685.91,396.45 696.17,388.42 705.22,379.61 719.42,363.01 731.88,346.02 736.22,338.92 739.98,330.92 749.82,304.08 757.94,276.03 759.52,266.21 760.00,256.52 758.02,214.58 753.60,193.43 746.24,173.38 735.29,151.92 721.78,130.35 708.23,114.84 694.50,101.96 673.98,85.70 655.09,73.44 622.58,59.32 588.80,47.49 563.78,42.95 488.52,40.00 291.06,46.91 287.35,47.22"
        fill="none"
        stroke="#e94560"
        stroke-width="8.0"
        stroke-linejoin="round"
        stroke-linecap="round"/>
  <!-- Start/finish line -->
  <line x1="289.12" y1="67.14" x2="285.58" y2="27.29"
        stroke="#f5f5f5" stroke-width="9.6"
        stroke-linecap="round"/>
</svg>
