<?xml version="1.0" encoding="utf-8"?>
<svg xmlns="http://www.w3.org/2000/svg"
     width="800.0" height="407.1"
     viewBox="0 0 800.0 407.1">
  <rect width="100%" height="100%" fill="#1a1a2e"/>
  <!-- Track outline -->
  <polyline points="510.84,356.06 624.62,346.70 644.07,343.33 662.25,337.58 679.44,329.40 692.10,321.89 706.82,310.44 727.88,287.61 737.60,274.20 746.61,257.87 754.20,238.32 757.99,220.08 760.00,198.91 759.29,183.79 757.09,166.05 752.20,146.00 745.13,130.56 729.24,105.90 717.42,92.00 701.29,75.86 686.49,65.95 670.62,56.56 651.02,49.76 631.59,44.21 611.71,41.31 542.76,40.00 200.95,55.71 176.48,60.50 157.60,66.62 117.92,85.03 96.42,99.31 85.85,109.12 61.13,142.11 57.34,148.45 54.23,155.22 48.06,172.39 42.89,192.64 40.37,215.15 40.00,235.54 40.70,243.57 42.29,251.23 46.72,267.04 53.04,283.65 61.77,299.26 70.49,312.05 77.59,320.35 85.32,327.27 94.20,333.93 105.41,340.87 126.10,350.22 148.85,357.97 188.81,364.96 253.59,367.14 502.46,356.76 510.84,356.06"
        fill="none"
        stroke="#e94560"
        stroke-width="8.0"
        stroke-linejoin="round"
        stroke-linecap="round"/>
  <!-- Start/finish line -->
  <line x1="509.20" y1="336.13" x2="512.49" y2="376.00"
        stroke="#f5f5f5" stroke-width="9.6"
        stroke-linecap="round"/>
</svg>
