<?xml version="1.0" encoding="utf-8"?>
<svg xmlns="http://www.w3.org/2000/svg"
     width="800.0" height="276.5"
     viewBox="0 0 800.0 276.5">
  <rect width="100%" height="100%" fill="#1a1a2e"/>
  <!-- Track outline -->
  <polyline points="280.56,42.04 508.70,40.00 527.25,41.60 536.00,43.25 544.79,45.71 555.20,49.82 565.14,55.34 573.02,61.72 580.59,69.94 593.30,88.73 605.69,107.75 612.38,116.48 619.41,123.40 625.67,127.51 632.59,130.84 639.65,133.03 646.74,133.74 654.01,133.35 660.97,132.29 678.32,126.30 697.05,118.79 715.92,112.72 722.44,111.94 728.27,112.02 733.93,113.15 738.46,114.87 743.00,117.30 747.18,120.31 750.78,123.84 753.81,128.02 756.33,132.84 758.27,137.96 759.50,143.09 760.00,149.98 759.35,157.10 757.62,163.76 754.53,170.02 750.28,175.85 745.56,180.90 738.28,186.54 730.18,190.88 721.79,194.44 711.27,197.06 669.82,200.08 627.29,200.19 614.55,199.49 603.89,197.65 593.48,194.32 583.86,189.63 578.35,185.95 573.24,181.72 568.77,176.95 563.73,169.20 559.59,159.76 554.55,139.80 549.29,120.08 546.30,113.82 543.02,108.57 539.03,103.91 533.41,99.14 526.93,95.03 520.08,92.33 512.81,91.47 505.17,92.02 497.76,93.07 478.20,98.00 418.35,121.80 399.12,125.75 381.15,127.71 370.88,127.20 359.90,124.66 341.17,113.58 322.66,101.96 315.64,98.86 309.19,96.71 302.78,96.09 298.64,96.63 294.32,97.81 290.14,99.53 286.36,101.76 283.34,104.46 281.10,107.63 279.34,111.47 278.04,115.62 277.32,119.80 277.22,123.72 278.04,128.06 279.77,132.37 282.11,136.40 284.78,140.08 291.76,146.18 299.83,151.35 316.29,161.41 325.18,165.79 334.55,169.39 345.35,172.09 356.26,173.54 364.98,173.46 374.31,172.29 413.70,162.47 434.59,154.56 453.68,148.61 458.90,148.14 463.69,148.14 468.15,148.77 472.33,150.21 476.33,152.56 480.15,155.73 483.50,159.45 486.23,163.40 488.28,167.55 489.83,172.09 490.81,176.83 491.17,181.49 490.52,187.75 488.72,194.05 486.20,200.04 482.67,206.14 478.27,211.90 473.41,216.87 465.85,222.03 457.57,226.03 439.20,232.37 428.79,235.11 418.06,236.48 407.87,235.58 395.59,232.17 338.47,204.66 281.54,177.10 270.62,173.97 259.75,172.68 168.49,173.97 122.65,170.10 100.18,166.85 80.91,162.23 73.13,158.32 66.76,153.89 60.96,149.86 55.59,145.17 51.56,140.66 47.71,135.50 44.61,129.82 42.30,122.82 40.86,115.19 40.14,107.75 40.00,101.29 40.50,94.95 41.84,88.96 44.18,83.40 47.35,78.20 51.13,73.31 56.17,68.02 62.00,63.13 68.13,59.06 77.49,55.22 87.32,52.56 107.70,48.30 264.07,42.19 280.56,42.04"
        fill="none"
        stroke="#e94560"
        stroke-width="8.0"
        stroke-linejoin="round"
        stroke-linecap="round"/>
  <!-- Start/finish line -->
  <line x1="280.39" y1="22.04" x2="280.74" y2="62.03"
        stroke="#f5f5f5" stroke-width="9.6"
        stroke-linecap="round"/>
</svg>
