<?xml version="1.0" encoding="utf-8"?>
<svg xmlns="http://www.w3.org/2000/svg"
     width="800.0" height="626.5"
     viewBox="0 0 800.0 626.5">
  <rect width="100%" height="100%" fill="#1a1a2e"/>
  <!-- Track outline -->
  <polyline points="411.45,433.58 447.72,399.31 485.82,354.04 506.73,333.34 530.09,315.86 555.98,302.94 583.83,294.23 667.91,274.60 681.18,269.14 692.13,263.22 713.61,248.63 723.04,240.10 731.54,230.73 738.72,220.80 745.26,210.03 758.90,182.01 760.00,170.91 759.92,159.82 758.28,148.91 755.55,138.18 751.96,127.74 747.46,117.62 735.70,98.74 728.72,89.65 720.96,81.26 712.67,74.08 702.79,67.37 682.45,56.46 661.21,47.37 650.39,44.10 638.75,42.24 607.47,40.00 570.76,41.49 527.15,51.05 485.90,64.15 439.59,83.64 428.08,90.07 418.60,97.16 413.17,102.71 408.39,108.86 404.55,115.34 401.82,121.96 399.94,128.86 399.04,135.85 399.16,142.94 400.22,150.03 402.23,156.83 405.25,163.45 409.25,169.75 414.07,175.11 419.83,179.35 426.44,182.71 433.38,185.32 445.19,187.93 457.27,188.72 468.01,187.79 478.47,185.18 488.43,180.89 499.21,174.27 527.39,150.45 555.69,126.62 566.68,120.10 576.85,115.81 587.46,112.59 598.45,111.10 606.82,111.28 615.48,112.50 623.52,114.83 630.67,118.28 637.28,122.75 642.96,128.11 647.58,134.45 651.21,141.68 653.74,149.19 655.21,157.07 655.58,165.22 654.76,173.15 652.68,180.70 649.41,188.02 645.17,194.64 639.65,200.70 633.08,206.07 626.22,210.49 616.74,214.88 605.68,217.95 579.34,220.98 552.79,223.83 541.24,226.95 531.11,230.87 521.76,235.30 510.16,242.43 301.77,405.37 266.89,432.74 254.93,439.96 243.12,445.37 231.04,449.24 218.91,451.15 211.48,451.11 204.12,450.17 197.06,448.22 189.67,444.95 182.52,440.52 176.56,435.12 172.15,428.78 168.84,421.55 166.68,413.95 165.57,405.46 165.74,396.56 167.00,388.07 170.92,377.35 176.64,367.38 183.95,357.35 192.73,348.17 203.47,339.87 215.31,332.74 240.63,322.06 263.50,310.45 273.06,303.27 281.27,295.07 285.64,289.28 289.39,283.08 292.17,276.42 294.09,268.68 294.99,260.47 294.58,252.36 292.54,244.06 289.11,235.86 284.90,228.49 280.53,222.66 275.51,217.49 269.91,213.24 263.75,209.98 257.05,207.60 250.11,206.16 238.63,205.97 226.79,207.79 214.58,211.19 200.74,217.30 157.65,243.74 116.41,273.67 105.18,284.11 95.82,295.07 63.48,341.59 51.11,366.68 47.15,378.52 44.25,392.22 40.49,427.84 40.00,466.07 43.43,490.78 48.62,511.81 52.13,522.86 56.54,532.74 63.44,544.86 71.65,555.91 79.57,563.37 88.15,569.62 97.46,575.12 107.30,579.64 117.79,583.14 128.62,585.52 139.40,586.50 150.30,586.45 173.54,583.60 196.57,576.84 219.40,566.40 383.44,460.01 411.45,433.58"
        fill="none"
        stroke="#e94560"
        stroke-width="8.0"
        stroke-linejoin="round"
        stroke-linecap="round"/>
  <!-- Start/finish line -->
  <line x1="397.72" y1="419.04" x2="425.19" y2="448.12"
        stroke="#f5f5f5" stroke-width="9.6"
        stroke-linecap="round"/>
</svg>
