<?xml version="1.0" encoding="utf-8"?>
<svg xmlns="http://www.w3.org/2000/svg"
     width="800.0" height="357.7"
     viewBox="0 0 800.0 357.7">
  <rect width="100%" height="100%" fill="#1a1a2e"/>
  <!-- Track outline -->
  <polyline points="352.07,304.53 411.63,308.82 466.94,312.21 518.68,315.50 566.27,317.70 623.70,317.10 672.45,308.12 713.38,288.08 749.48,249.99 760.00,198.54 745.13,144.60 716.76,104.61 675.83,72.11 624.19,49.47 579.49,41.20 531.42,40.00 482.39,43.39 431.23,50.27 378.23,60.64 324.56,72.90 273.69,86.17 226.78,99.33 172.44,118.27 125.23,137.52 84.69,160.45 51.97,191.56 40.00,240.82 66.16,279.61 116.55,294.06 166.26,296.66 222.53,292.67 287.69,303.24 352.07,304.53"
        fill="none"
        stroke="#e94560"
        stroke-width="8.0"
        stroke-linejoin="round"
        stroke-linecap="round"/>
  <!-- Start/finish line -->
  <line x1="352.97" y1="284.55" x2="351.17" y2="324.51"
        stroke="#f5f5f5" stroke-width="9.6"
        stroke-linecap="round"/>
</svg>
