<?xml version="1.0" encoding="utf-8"?>
<svg xmlns="http://www.w3.org/2000/svg"
     width="396.2" height="800.0"
     viewBox="0 0 396.2 800.0">
  <rect width="100%" height="100%" fill="#1a1a2e"/>
  <!-- Track outline -->
  <polyline points="338.88,472.85 341.20,496.33 356.18,678.41 354.56,707.21 353.62,712.84 352.06,718.17 347.73,729.03 341.61,739.85 336.67,745.58 331.05,750.60 325.13,754.61 319.34,757.29 313.28,759.05 307.10,759.97 300.62,760.00 294.06,759.19 287.70,757.52 281.70,755.11 275.93,751.96 270.52,747.99 265.08,742.80 260.01,736.73 255.72,730.18 250.92,720.00 247.86,708.94 246.89,700.36 246.92,691.37 247.95,682.82 251.28,672.30 256.54,661.79 268.90,644.31 281.08,626.30 286.17,614.19 289.18,600.96 289.85,576.36 287.88,546.13 282.41,476.86 273.40,414.94 270.40,406.16 267.11,399.68 263.16,393.91 258.31,388.14 252.81,383.02 246.98,379.02 241.30,376.47 235.36,374.88 229.35,374.17 223.26,374.20 217.14,375.12 211.17,376.95 205.20,379.93 199.43,383.97 193.51,388.96 181.39,403.14 168.91,417.18 158.70,424.04 148.11,428.68 136.52,431.77 124.51,432.92 112.00,432.04 99.59,429.09 87.14,424.00 75.58,416.84 65.75,407.68 57.30,396.83 50.36,384.58 45.06,371.25 41.59,357.07 40.00,342.58 40.29,328.94 42.44,315.85 46.39,304.18 52.01,293.66 56.63,287.49 61.95,281.99 67.75,277.38 73.96,273.78 80.64,271.10 87.46,269.44 94.64,268.90 101.94,269.40 108.83,270.56 116.24,272.86 124.01,276.32 141.14,285.69 158.76,294.20 165.32,295.76 171.33,296.37 177.15,296.04 182.68,294.81 188.04,292.81 192.75,290.10 196.28,287.25 199.34,283.86 201.78,279.95 203.75,274.93 205.02,269.27 205.46,263.74 204.93,258.58 203.64,253.49 202.16,249.12 200.87,245.83 198.57,242.40 172.59,219.09 136.93,189.85 72.54,134.58 62.04,122.03 54.68,109.82 49.92,96.76 47.33,84.99 46.89,80.71 47.21,76.61 48.33,71.04 50.24,64.87 52.80,59.34 56.04,55.06 59.89,51.33 63.54,48.45 66.69,46.45 70.22,45.09 75.55,43.83 81.84,42.99 88.05,42.92 93.44,43.66 98.67,45.16 104.18,47.36 116.18,54.01 127.92,62.97 137.02,73.01 145.76,85.29 160.29,110.90 175.39,136.04 185.80,147.88 196.19,156.47 201.93,159.79 207.67,162.20 213.43,163.62 219.00,164.10 224.56,163.73 229.88,162.47 234.94,160.30 239.74,157.28 243.86,153.58 246.33,150.53 248.51,147.10 250.22,143.44 251.39,139.71 251.92,135.98 251.98,132.04 251.54,128.14 250.66,124.47 248.66,119.89 245.80,115.59 242.27,111.31 235.65,105.54 227.85,99.81 221.70,94.18 219.26,90.68 217.52,87.22 216.23,83.39 215.08,78.00 214.55,72.13 214.85,66.56 216.14,61.85 218.17,57.44 220.35,53.77 221.76,51.81 223.23,50.25 225.15,48.72 229.53,45.84 234.94,43.02 240.59,41.02 246.48,40.07 252.57,40.00 258.63,40.78 264.87,42.58 271.08,45.33 277.11,48.92 286.82,56.76 295.80,66.70 304.59,80.27 311.89,95.09 316.51,107.61 319.98,121.52 326.55,176.89 333.31,414.94 337.82,462.24 338.88,472.85"
        fill="none"
        stroke="#e94560"
        stroke-width="8.0"
        stroke-linejoin="round"
        stroke-linecap="round"/>
  <!-- Start/finish line -->
  <line x1="358.78" y1="470.88" x2="318.97" y2="474.83"
        stroke="#f5f5f5" stroke-width="9.6"
        stroke-linecap="round"/>
</svg>
