<?xml version="1.0" encoding="utf-8"?>
<svg xmlns="http://www.w3.org/2000/svg"
     width="469.0" height="800.0"
     viewBox="0 0 469.0 800.0">
  <rect width="100%" height="100%" fill="#1a1a2e"/>
  <!-- Track outline -->
  <polyline points="44.56,406.40 40.31,542.38 40.00,611.82 44.13,633.51 49.89,653.57 59.12,673.09 84.55,708.53 101.10,725.01 118.78,737.58 137.62,747.07 158.03,754.19 167.53,756.19 181.12,758.18 213.24,760.00 249.03,757.23 276.56,748.06 293.23,737.72 302.46,732.81 311.10,726.23 319.20,718.74 333.61,702.81 338.98,694.69 344.43,684.11 381.97,583.36 422.35,391.20 429.01,301.51 424.81,257.13 416.82,214.92 396.85,152.10 391.98,141.53 386.33,132.09 358.33,96.60 343.11,82.30 325.31,68.96 306.31,57.11 295.45,52.57 284.11,49.26 262.46,43.86 240.66,40.23 229.40,40.00 218.15,41.09 196.66,44.67 175.71,50.03 165.85,53.98 156.47,59.24 138.01,72.00 120.33,86.43 112.12,94.64 104.52,104.27 86.46,132.27 70.45,161.45 66.09,171.71 62.86,183.10 47.05,289.49 45.45,357.20 45.45,377.94 44.56,406.40"
        fill="none"
        stroke="#e94560"
        stroke-width="8.0"
        stroke-linejoin="round"
        stroke-linecap="round"/>
  <!-- Start/finish line -->
  <line x1="64.55" y1="407.02" x2="24.57" y2="405.77"
        stroke="#f5f5f5" stroke-width="9.6"
        stroke-linecap="round"/>
</svg>
