<?xml version="1.0" encoding="utf-8"?>
<svg xmlns="http://www.w3.org/2000/svg"
     width="669.1" height="800.0"
     viewBox="0 0 669.1 800.0">
  <rect width="100%" height="100%" fill="#1a1a2e"/>
  <!-- Track outline -->
  <polyline points="64.12,474.33 74.21,503.63 79.41,513.65 85.57,522.77 129.80,582.63 183.68,645.49 231.18,689.52 280.60,727.41 309.40,742.73 337.53,752.60 367.06,758.43 396.90,760.00 426.29,757.76 454.86,751.18 481.87,739.74 506.51,724.05 528.11,703.12 545.85,680.25 555.86,664.18 564.77,644.15 595.49,547.95 621.54,444.06 626.37,416.71 629.11,393.09 628.52,375.75 627.48,371.78 624.22,366.03 621.69,363.41 616.57,359.75 609.89,356.54 602.47,353.85 594.90,352.13 582.51,351.23 569.22,352.28 556.75,355.12 545.99,359.75 535.90,366.03 526.77,373.58 514.23,388.68 504.66,404.22 500.80,412.30 498.05,420.07 495.75,428.14 494.19,438.23 495.82,483.30 496.94,531.88 493.67,550.94 488.25,567.61 480.31,585.85 470.29,602.82 459.90,616.12 447.59,627.41 436.82,633.91 424.95,639.22 413.52,643.03 401.65,645.57 388.44,645.72 349.70,639.29 310.81,627.63 295.22,618.96 281.94,609.09 252.48,584.13 239.34,569.33 227.84,553.04 217.97,534.65 210.25,515.07 205.28,494.96 202.53,474.26 201.86,452.13 203.35,430.46 206.46,413.12 210.99,396.52 223.46,364.16 241.64,333.29 258.78,310.12 277.86,288.30 293.44,274.69 308.28,264.08 325.73,254.36 362.98,240.24 491.30,203.99 505.40,197.11 515.86,189.26 522.91,182.01 529.15,173.64 533.60,164.82 535.53,158.17 536.57,151.14 536.64,144.04 535.83,137.09 533.82,129.39 530.56,121.62 526.48,114.29 521.95,108.02 517.64,103.53 512.97,99.72 507.70,96.66 501.69,94.26 487.36,91.87 470.52,91.87 453.45,93.67 426.51,100.69 400.16,111.38 377.90,123.04 353.85,138.81 221.31,244.95 211.66,251.07 203.87,255.26 196.15,257.65 190.58,258.18 185.09,258.03 179.60,256.98 174.33,255.19 168.39,252.05 162.45,247.86 157.11,242.85 152.95,237.40 150.21,231.12 148.43,224.09 147.61,216.77 147.39,209.74 149.39,196.51 153.10,184.78 155.40,178.87 158.59,173.27 168.24,161.08 181.45,147.48 206.98,127.60 229.91,107.42 234.66,99.72 237.63,92.17 239.12,84.40 239.56,77.97 239.12,71.24 237.78,64.74 235.26,59.06 230.95,53.90 225.09,49.42 218.49,45.68 211.58,42.84 201.19,40.52 189.91,40.00 178.56,40.97 166.39,43.66 154.07,48.00 141.75,53.90 119.19,68.33 98.11,86.71 79.85,109.74 65.46,133.65 58.18,149.65 52.84,165.49 45.05,201.52 40.00,330.30 46.68,409.83 59.44,460.88 64.12,474.33"
        fill="none"
        stroke="#e94560"
        stroke-width="8.0"
        stroke-linejoin="round"
        stroke-linecap="round"/>
  <!-- Start/finish line -->
  <line x1="83.02" y1="467.80" x2="45.22" y2="480.86"
        stroke="#f5f5f5" stroke-width="9.6"
        stroke-linecap="round"/>
</svg>
