<?xml version="1.0" encoding="utf-8"?>
<svg xmlns="http://www.w3.org/2000/svg"
     width="717.8" height="800.0"
     viewBox="0 0 717.8 800.0">
  <rect width="100%" height="100%" fill="#1a1a2e"/>
  <!-- Track outline -->
  <polyline points="285.20,270.45 400.84,118.31 438.64,79.58 458.41,64.56 478.14,52.81 494.96,45.75 511.62,41.57 528.60,40.00 545.62,41.06 562.67,44.77 579.44,51.02 595.63,59.58 611.13,70.64 625.29,83.79 638.33,99.20 649.47,115.97 659.18,134.56 666.88,153.55 672.79,173.72 676.25,194.19 677.77,214.45 677.47,230.41 675.75,245.77 669.65,273.52 647.61,327.99 609.01,391.83 506.64,529.46 492.35,543.89 480.10,552.70 472.69,556.19 465.39,558.27 458.48,559.04 454.30,558.87 450.30,558.15 446.41,556.83 442.59,554.83 437.12,550.83 431.78,545.59 427.50,539.42 424.98,533.85 423.14,527.67 422.27,521.04 422.68,512.61 424.39,503.59 427.07,494.86 435.07,479.97 447.25,464.09 497.01,413.41 547.87,359.19 562.92,335.52 573.76,311.69 581.97,286.07 587.35,258.92 589.45,230.87 588.49,204.23 585.10,185.59 579.94,169.76 576.29,161.89 572.15,155.16 567.58,149.37 562.19,144.14 556.33,139.93 550.22,136.78 543.49,134.61 536.49,133.63 529.44,133.67 522.24,134.73 515.01,136.82 507.99,139.93 498.01,146.23 488.76,154.65 480.94,164.40 474.19,176.40 468.60,191.72 464.32,211.30 461.37,260.75 458.14,312.67 452.23,340.50 443.98,365.66 412.80,428.98 374.04,506.35 364.52,541.55 357.77,579.26 347.11,680.03 342.07,701.48 335.79,718.76 327.79,733.40 318.77,744.93 313.15,750.17 307.34,754.08 301.34,757.02 294.88,759.06 288.24,760.00 281.58,759.87 274.81,758.68 268.01,756.38 261.47,753.06 255.29,748.85 249.33,743.70 243.85,737.53 236.94,727.23 231.29,714.68 226.88,697.40 224.53,678.12 224.92,656.63 227.81,634.62 233.79,610.71 242.40,586.79 273.40,526.48 327.97,450.05 357.93,411.87 381.39,377.40 385.20,368.34 387.68,359.95 388.73,351.99 388.41,345.57 387.14,339.44 385.20,333.99 383.00,330.08 380.25,326.67 377.14,323.78 373.91,321.31 368.64,318.46 362.88,316.71 357.00,315.82 350.75,315.69 344.34,316.54 337.81,318.54 330.81,321.61 323.70,326.12 315.34,333.82 273.86,389.11 229.42,464.35 174.90,607.68 165.28,629.39 155.98,646.07 144.62,660.67 132.21,672.24 123.16,678.37 113.73,683.10 104.62,686.29 97.19,687.82 90.00,688.20 83.00,687.40 76.50,685.61 70.16,682.76 64.23,678.80 59.02,674.20 54.18,668.63 49.93,661.78 46.05,652.92 42.82,642.71 40.70,631.98 40.00,614.79 41.75,597.09 46.61,577.68 53.93,558.95 63.84,540.19 78.00,519.59 221.69,353.99 285.20,270.45"
        fill="none"
        stroke="#e94560"
        stroke-width="8.0"
        stroke-linejoin="round"
        stroke-linecap="round"/>
  <!-- Start/finish line -->
  <line x1="269.28" y1="258.35" x2="301.12" y2="282.56"
        stroke="#f5f5f5" stroke-width="9.6"
        stroke-linecap="round"/>
</svg>
