<?xml version="1.0" encoding="utf-8"?>
<svg xmlns="http://www.w3.org/2000/svg"
     width="800.0" height="386.8"
     viewBox="0 0 800.0 386.8">
  <rect width="100%" height="100%" fill="#1a1a2e"/>
  <!-- Track outline -->
  <polyline points="419.45,344.21 615.05,330.43 638.31,325.59 667.20,315.55 696.30,300.27 712.80,288.91 726.19,276.76 735.58,264.84 744.13,251.44 752.51,233.17 758.08,212.89 760.00,196.39 759.08,169.51 755.18,152.77 750.12,136.98 746.27,129.49 741.15,121.54 712.31,85.50 701.50,75.59 691.48,67.95 678.89,60.35 662.93,52.86 630.94,43.36 609.88,40.00 237.37,48.30 173.85,59.00 138.33,70.24 115.15,81.06 100.40,91.08 83.54,104.78 69.73,121.52 58.02,139.76 49.61,158.56 44.02,176.08 40.16,197.05 40.00,206.04 40.63,214.88 43.77,232.92 50.73,253.35 59.20,270.92 73.30,289.60 87.73,304.93 102.34,315.86 117.50,325.18 134.56,332.16 179.10,344.95 204.48,346.84 419.45,344.21"
        fill="none"
        stroke="#e94560"
        stroke-width="8.0"
        stroke-linejoin="round"
        stroke-linecap="round"/>
  <!-- Start/finish line -->
  <line x1="418.66" y1="324.23" x2="420.25" y2="364.20"
        stroke="#f5f5f5" stroke-width="9.6"
        stroke-linecap="round"/>
</svg>
