<?xml version="1.0" encoding="utf-8"?>
<svg xmlns="http://www.w3.org/2000/svg"
     width="726.3" height="800.0"
     viewBox="0 0 726.3 800.0">
  <rect width="100%" height="100%" fill="#1a1a2e"/>
  <!-- Track outline -->
  <polyline points="197.83,576.06 70.59,367.57 54.46,335.53 50.81,325.04 45.45,314.53 40.73,303.90 40.00,298.31 40.09,293.09 40.84,282.62 42.82,272.23 46.34,262.06 51.50,252.83 58.17,244.62 66.15,237.72 75.00,232.18 82.05,228.98 89.73,226.43 97.60,225.14 105.17,224.82 110.49,225.23 115.51,226.15 125.55,229.05 135.24,233.31 144.95,238.83 154.55,245.57 163.91,253.36 172.96,262.13 248.42,349.53 261.97,362.28 273.89,371.59 283.73,377.64 292.69,382.08 302.44,385.62 315.64,388.68 325.26,389.53 335.26,389.28 344.53,387.65 353.71,384.59 364.99,378.75 374.90,371.89 379.47,367.45 383.16,362.85 389.93,352.75 395.23,341.55 398.83,329.59 401.52,312.66 402.89,290.47 390.79,158.71 391.24,133.71 392.85,121.68 395.60,109.88 399.62,98.63 405.21,88.28 412.11,78.69 420.54,69.79 430.06,61.78 440.76,54.81 452.53,49.04 465.22,44.58 478.52,41.56 492.58,40.00 514.57,40.30 536.95,43.86 548.12,46.76 570.07,54.93 591.29,66.22 611.39,80.48 629.73,97.25 638.28,106.68 653.70,127.80 666.66,151.08 672.04,163.34 676.59,176.19 680.25,189.49 683.08,203.13 685.06,217.23 686.21,231.70 686.34,246.53 685.50,261.74 683.65,277.35 677.25,308.98 667.61,341.44 655.14,374.61 631.54,425.05 491.39,692.12 478.42,712.59 471.00,721.91 462.96,730.19 454.20,737.55 444.67,743.81 434.36,749.17 423.50,753.54 412.20,756.87 400.46,758.96 388.70,760.00 376.69,759.84 364.62,758.11 352.59,754.87 340.69,750.41 329.04,744.70 317.70,737.83 306.90,729.91 296.49,720.94 286.60,710.89 267.71,687.87 224.36,619.51 197.83,576.06"
        fill="none"
        stroke="#e94560"
        stroke-width="8.0"
        stroke-linejoin="round"
        stroke-linecap="round"/>
  <!-- Start/finish line -->
  <line x1="180.76" y1="586.47" x2="214.90" y2="565.64"
        stroke="#f5f5f5" stroke-width="9.6"
        stroke-linecap="round"/>
</svg>
