<?xml version="1.0" encoding="utf-8"?>
<svg xmlns="http://www.w3.org/2000/svg"
     width="383.5" height="800.0"
     viewBox="0 0 383.5 800.0">
  <rect width="100%" height="100%" fill="#1a1a2e"/>
  <!-- Track outline -->
  <polyline points="40.23,392.70 40.00,401.13 43.49,609.12 48.80,652.51 52.48,665.00 60.43,682.69 69.51,699.81 77.62,710.69 98.99,731.37 104.83,736.15 110.99,740.24 124.22,746.75 138.08,752.32 154.19,756.88 172.21,759.24 192.09,760.00 210.08,758.58 227.36,754.93 242.21,749.05 256.25,741.34 269.44,732.66 281.83,722.21 292.97,709.81 303.61,694.46 319.29,664.78 332.59,633.10 341.92,595.28 343.46,580.49 343.37,205.07 335.60,165.93 327.17,139.84 320.69,124.83 313.63,112.21 304.58,99.06 289.20,82.82 274.04,69.42 268.31,65.05 262.22,61.43 242.23,52.27 221.85,44.56 208.66,41.67 194.84,40.00 179.95,40.82 164.60,42.89 146.70,47.52 130.52,54.03 115.51,62.72 103.01,72.47 91.48,83.14 86.65,88.90 82.33,95.25 74.72,107.37 67.09,122.66 58.02,149.66 50.76,179.46 44.67,231.91 40.23,392.70"
        fill="none"
        stroke="#e94560"
        stroke-width="8.0"
        stroke-linejoin="round"
        stroke-linecap="round"/>
  <!-- Start/finish line -->
  <line x1="60.22" y1="393.25" x2="20.24" y2="392.15"
        stroke="#f5f5f5" stroke-width="9.6"
        stroke-linecap="round"/>
</svg>
