<?xml version="1.0" encoding="utf-8"?>
<svg xmlns="http://www.w3.org/2000/svg"
     width="523.8" height="800.0"
     viewBox="0 0 523.8 800.0">
  <rect width="100%" height="100%" fill="#1a1a2e"/>
  <!-- Track outline -->
  <polyline points="246.08,325.39 248.10,345.32 256.12,388.34 266.11,417.95 299.97,504.32 308.08,531.67 313.29,557.79 314.10,570.07 313.78,582.15 312.28,593.44 309.49,604.39 303.87,618.24 296.49,630.76 290.15,638.27 283.08,644.56 275.60,649.76 262.61,655.85 248.94,659.49 234.52,661.35 219.96,660.96 205.51,658.16 191.53,652.76 183.19,647.95 175.15,642.05 167.78,634.98 158.68,623.20 151.43,609.89 147.80,599.09 145.53,587.70 144.32,576.01 144.30,564.13 148.22,540.17 161.29,493.86 162.94,479.28 162.62,465.87 161.00,457.48 158.36,449.62 155.10,442.50 150.64,435.43 145.33,429.34 139.44,424.28 131.35,419.57 122.37,416.33 113.54,414.61 105.58,414.41 97.71,415.54 89.99,417.75 82.57,420.75 75.29,424.77 68.49,429.93 62.57,435.77 57.04,442.65 52.21,450.40 46.83,463.02 42.81,476.53 40.00,498.48 40.37,529.26 44.37,559.02 50.68,583.42 57.88,608.96 68.61,634.54 80.96,658.99 97.69,682.07 118.16,702.75 141.04,720.62 164.62,736.38 189.23,747.87 214.34,755.88 239.89,759.85 252.62,760.00 265.22,759.02 277.31,756.96 289.17,753.76 300.44,749.49 311.34,743.99 321.25,737.71 330.60,730.15 338.81,721.55 346.41,711.78 359.14,690.57 369.00,666.85 388.21,587.16 391.94,528.43 389.47,498.57 383.72,469.51 374.18,443.09 360.30,419.32 325.92,374.20 311.68,350.43 306.14,338.01 301.57,324.75 296.32,297.30 294.82,268.97 295.80,240.24 298.66,212.99 303.37,187.95 310.35,165.56 316.15,152.74 323.03,141.15 328.31,134.67 334.05,129.27 340.24,124.80 348.06,120.77 356.45,118.02 364.78,116.94 370.78,117.24 376.79,118.37 382.61,120.38 387.99,123.33 392.41,126.67 396.65,130.69 400.42,135.46 403.43,140.96 405.48,146.55 407.11,152.89 408.09,159.47 408.21,165.80 406.66,174.30 403.50,182.64 399.36,190.99 383.95,210.78 368.48,230.08 364.59,237.44 361.55,244.56 359.70,252.27 359.11,260.77 359.58,269.75 361.13,277.86 363.43,283.65 366.58,288.85 370.28,293.42 374.20,297.30 379.11,300.93 384.54,303.63 390.24,305.50 395.88,306.48 401.75,306.63 407.72,305.89 413.67,304.27 419.34,301.77 426.29,297.25 432.95,291.36 438.87,284.29 444.99,274.03 450.81,259.79 468.89,201.50 482.84,141.84 483.78,127.55 482.89,115.42 480.50,102.12 476.53,89.69 470.19,77.51 462.23,67.06 455.07,60.18 447.13,54.44 438.85,49.67 424.66,44.12 410.36,40.93 398.40,40.00 386.68,40.59 374.57,42.36 362.56,45.40 351.00,49.58 339.65,54.93 328.87,61.07 318.49,68.38 309.02,76.68 300.14,86.21 292.52,96.22 285.59,107.32 280.02,117.58 274.57,131.09 248.72,239.75 244.50,269.12 243.34,298.14 246.08,325.39"
        fill="none"
        stroke="#e94560"
        stroke-width="8.0"
        stroke-linejoin="round"
        stroke-linecap="round"/>
  <!-- Start/finish line -->
  <line x1="265.98" y1="323.38" x2="226.18" y2="327.39"
        stroke="#f5f5f5" stroke-width="9.6"
        stroke-linecap="round"/>
</svg>
