<?xml version="1.0" encoding="utf-8"?>
<svg xmlns="http://www.w3.org/2000/svg"
     width="800.0" height="458.1"
     viewBox="0 0 800.0 458.1">
  <rect width="100%" height="100%" fill="#1a1a2e"/>
  <!-- Track outline -->
  <polyline points="407.31,412.80 583.05,418.08 609.90,416.40 625.37,413.31 636.87,409.86 649.85,404.53 674.27,390.15 695.43,375.72 702.98,369.25 714.31,356.68 726.78,340.19 739.36,318.16 749.02,297.78 752.97,285.59 759.90,242.80 760.00,230.33 754.15,189.88 747.33,165.89 738.59,143.32 729.62,126.93 720.34,113.25 707.71,98.36 687.24,78.29 671.99,66.82 657.80,57.88 652.88,55.61 647.82,54.04 617.19,47.96 401.93,40.03 189.60,40.00 174.84,41.52 163.76,44.20 148.23,49.40 132.33,57.19 113.58,70.38 95.76,86.40 81.61,102.09 69.10,119.87 57.04,142.85 47.61,167.02 42.84,185.60 40.33,204.69 40.00,229.81 42.17,254.73 45.81,273.23 51.35,290.57 59.74,309.27 70.40,327.23 85.48,346.86 102.29,364.36 118.41,377.34 134.38,387.44 146.45,393.32 158.41,397.49 184.27,402.13 289.72,409.76 399.26,412.56 407.31,412.80"
        fill="none"
        stroke="#e94560"
        stroke-width="8.0"
        stroke-linejoin="round"
        stroke-linecap="round"/>
  <!-- Start/finish line -->
  <line x1="407.91" y1="392.81" x2="406.71" y2="432.79"
        stroke="#f5f5f5" stroke-width="9.6"
        stroke-linecap="round"/>
</svg>
