<?xml version="1.0" encoding="utf-8"?>
<svg xmlns="http://www.w3.org/2000/svg"
     width="800.0" height="448.9"
     viewBox="0 0 800.0 448.9">
  <rect width="100%" height="100%" fill="#1a1a2e"/>
  <!-- Track outline -->
  <polyline points="364.44,49.73 251.79,40.28 210.61,40.00 177.87,45.17 160.13,50.32 142.36,57.53 123.53,67.98 105.60,80.73 90.38,94.70 76.93,110.09 66.85,124.45 58.24,140.11 50.08,159.44 43.93,179.58 40.95,196.40 40.00,213.42 41.09,233.16 44.87,253.43 54.31,278.64 65.72,301.30 72.57,312.36 80.22,322.06 93.28,335.75 108.41,348.68 125.81,360.45 144.79,370.18 170.20,378.30 191.98,383.24 201.11,384.46 577.75,408.88 619.80,407.25 638.41,403.12 655.58,397.26 667.43,391.84 679.02,384.52 697.72,369.23 716.20,350.06 732.20,326.87 744.64,304.73 748.79,296.20 751.86,287.40 756.55,267.28 759.57,245.11 760.00,227.68 758.17,210.07 751.38,184.68 742.71,161.51 738.16,151.45 732.45,142.52 716.98,125.65 698.93,109.93 685.38,100.46 670.86,92.50 648.12,82.13 622.46,73.51 554.81,64.50 368.82,50.09 364.44,49.73"
        fill="none"
        stroke="#e94560"
        stroke-width="8.0"
        stroke-linejoin="round"
        stroke-linecap="round"/>
  <!-- Start/finish line -->
  <line x1="362.77" y1="69.66" x2="366.11" y2="29.80"
        stroke="#f5f5f5" stroke-width="9.6"
        stroke-linecap="round"/>
</svg>
