<?xml version="1.0" encoding="utf-8"?>
<svg xmlns="http://www.w3.org/2000/svg"
     width="800.0" height="548.0"
     viewBox="0 0 800.0 548.0">
  <rect width="100%" height="100%" fill="#1a1a2e"/>
  <!-- Track outline -->
  <polyline points="428.55,504.54 414.73,503.05 371.94,493.37 333.87,479.75 320.87,473.12 309.58,465.85 301.10,458.73 294.10,451.62 286.68,442.22 283.67,437.48 281.03,432.22 277.83,423.58 275.53,414.34 274.85,406.70 275.08,399.55 275.68,394.33 277.11,388.94 281.67,377.82 288.26,366.73 293.12,361.42 298.58,356.84 304.53,353.07 311.12,350.01 318.20,347.80 325.43,346.40 337.75,346.08 348.56,347.36 351.19,347.92 353.38,348.69 355.67,350.05 362.87,357.85 372.02,368.94 399.81,396.82 428.77,422.09 439.24,428.00 448.13,431.45 453.21,433.06 458.34,434.02 466.58,434.67 475.36,434.06 481.72,432.30 488.13,429.65 493.62,426.51 497.16,423.82 500.18,420.81 502.78,417.23 505.68,411.57 507.97,405.02 509.25,398.23 509.33,390.87 508.27,383.28 506.39,376.17 502.02,367.17 496.83,359.70 493.62,356.20 490.27,353.35 486.51,350.49 481.46,347.40 423.12,322.09 404.14,310.84 386.22,298.06 369.65,283.60 347.65,260.82 325.09,239.60 315.38,234.18 306.98,231.05 302.19,229.60 297.30,228.80 287.51,228.35 277.75,228.88 273.16,229.60 268.34,231.29 248.45,243.50 226.68,256.80 216.44,260.66 206.76,262.95 195.69,264.23 185.14,264.51 172.53,263.39 128.50,254.59 83.35,242.82 73.93,238.76 66.55,234.06 57.06,225.98 49.08,217.02 45.16,210.68 42.52,204.17 40.72,197.46 40.00,190.23 41.09,179.46 43.88,168.57 47.42,160.49 52.39,152.30 77.66,119.83 102.48,82.03 113.10,69.05 123.83,58.32 132.76,51.77 141.16,46.99 146.05,44.74 150.72,43.13 160.78,40.84 165.71,40.16 171.10,40.00 181.15,40.88 192.00,42.93 201.45,45.95 212.56,50.81 309.88,103.44 412.28,166.40 479.62,216.50 497.20,232.41 533.13,271.83 570.00,309.96 584.99,319.48 598.10,325.87 607.47,328.96 688.44,344.31 709.87,351.06 720.34,356.12 729.46,361.58 737.89,368.45 745.24,376.33 751.23,385.09 755.78,394.57 758.64,404.57 760.00,414.90 759.85,425.27 758.15,435.43 754.88,445.15 750.17,454.27 743.88,462.63 736.42,469.98 732.58,473.12 728.14,476.01 719.59,480.19 710.59,483.60 699.18,485.85 480.97,507.99 459.43,507.83 428.55,504.54"
        fill="none"
        stroke="#e94560"
        stroke-width="8.0"
        stroke-linejoin="round"
        stroke-linecap="round"/>
  <!-- Start/finish line -->
  <line x1="426.42" y1="524.42" x2="430.67" y2="484.65"
        stroke="#f5f5f5" stroke-width="9.6"
        stroke-linecap="round"/>
</svg>
