<?xml version="1.0" encoding="utf-8"?>
<svg xmlns="http://www.w3.org/2000/svg"
     width="800.0" height="764.9"
     viewBox="0 0 800.0 764.9">
  <rect width="100%" height="100%" fill="#1a1a2e"/>
  <!-- Track outline -->
  <polyline points="469.80,53.41 604.04,40.00 630.11,40.57 642.02,42.24 653.48,45.11 663.61,48.88 673.32,54.36 680.02,59.42 686.58,65.48 692.00,72.83 695.60,80.18 698.39,88.44 699.72,96.79 699.15,104.95 697.21,113.21 694.46,120.84 689.89,128.95 684.09,136.11 678.01,142.12 668.99,148.71 659.00,153.53 643.63,158.64 627.46,161.79 614.32,162.26 600.07,161.36 539.00,153.86 522.60,153.86 507.70,155.58 493.33,159.11 479.36,164.36 466.32,171.04 453.72,179.30 442.17,188.37 430.54,199.96 415.13,219.20 398.22,245.11 362.40,311.63 333.00,374.77 328.88,386.65 326.72,397.34 325.70,406.55 325.40,416.24 326.22,425.31 328.88,434.04 332.92,442.01 337.57,449.02 343.53,455.80 350.30,461.34 357.41,465.34 365.39,467.78 373.74,468.49 382.08,467.97 390.53,466.25 398.98,463.25 406.84,459.33 415.70,452.94 423.87,445.16 431.18,437.14 439.26,425.97 492.91,327.71 514.19,299.70 531.24,282.86 560.43,262.29 589.72,247.07 619.84,235.80 634.82,232.08 649.69,229.79 663.85,229.17 677.70,230.22 690.58,232.94 703.01,237.38 714.49,243.20 725.31,250.84 734.78,259.71 743.19,270.45 749.58,282.05 754.60,295.12 757.80,308.67 759.60,323.04 760.00,337.21 758.82,353.10 741.96,430.17 711.49,554.16 706.63,566.47 701.45,575.39 695.79,582.88 689.28,589.66 682.41,595.01 676.78,598.06 670.86,600.21 664.87,601.54 658.95,602.07 653.24,601.83 647.54,600.83 641.93,599.06 636.57,596.44 630.02,592.00 623.79,586.32 618.44,579.21 614.44,571.33 611.12,562.41 608.92,553.34 607.90,542.65 608.52,530.91 614.08,505.77 620.50,480.19 622.80,466.63 623.72,454.23 622.94,442.44 620.50,431.27 616.73,422.44 611.69,414.19 606.01,407.17 598.79,401.02 590.74,396.53 582.40,393.38 573.29,391.52 563.89,391.19 554.56,392.28 545.35,394.81 536.21,398.68 527.83,403.54 518.74,410.75 510.62,419.58 503.56,429.84 497.29,441.48 487.44,467.40 444.37,596.48 435.04,618.63 405.52,674.51 397.37,686.34 389.39,695.65 380.23,704.05 367.56,712.45 353.88,719.75 343.86,723.09 334.44,724.90 321.80,724.47 312.89,721.99 304.02,716.79 296.39,707.15 289.67,696.13 278.54,672.41 270.73,644.40 266.06,614.00 261.19,512.26 265.19,449.02 275.51,398.53 298.10,324.76 315.45,276.46 318.65,262.10 319.59,248.74 318.25,240.00 315.64,231.60 312.28,223.97 307.33,216.14 301.32,209.36 294.83,203.73 287.16,198.77 278.92,195.10 270.54,192.71 261.92,191.42 253.16,191.47 244.56,192.85 236.35,195.67 228.25,199.82 220.49,205.07 209.59,214.57 199.89,225.97 193.42,236.28 187.76,248.59 180.40,270.16 174.70,293.36 172.59,307.86 172.30,325.71 174.32,373.48 178.96,420.58 188.71,466.44 200.15,517.22 201.78,528.62 202.04,539.12 200.95,547.81 198.89,556.64 196.07,564.61 191.84,572.29 186.60,578.92 180.95,584.41 174.34,589.04 167.21,592.28 159.87,594.48 151.85,595.67 143.58,595.63 135.30,594.53 122.37,590.71 110.01,584.74 100.61,578.11 91.78,570.00 82.95,560.36 74.35,548.81 64.46,532.39 55.67,514.26 46.25,483.67 41.07,450.36 40.00,427.12 40.92,403.12 49.04,353.87 63.32,304.19 72.41,279.75 94.22,231.70 107.43,208.74 122.65,186.51 139.68,165.37 158.78,145.75 179.50,127.71 213.10,104.66 237.37,92.54 262.65,82.38 288.84,74.50 329.61,67.44 469.80,53.41"
        fill="none"
        stroke="#e94560"
        stroke-width="8.0"
        stroke-linejoin="round"
        stroke-linecap="round"/>
  <!-- Start/finish line -->
  <line x1="467.81" y1="33.51" x2="471.79" y2="73.31"
        stroke="#f5f5f5" stroke-width="9.6"
        stroke-linecap="round"/>
</svg>
