<?xml version="1.0" encoding="utf-8"?>
<svg xmlns="http://www.w3.org/2000/svg"
     width="696.8" height="800.0"
     viewBox="0 0 696.8 800.0">
  <rect width="100%" height="100%" fill="#1a1a2e"/>
  <!-- Track outline -->
  <polyline points="443.19,516.96 438.16,512.55 362.12,446.77 352.23,435.71 344.63,425.22 333.01,404.94 325.79,387.04 319.02,361.37 314.27,323.24 314.68,311.10 316.14,299.87 319.26,286.62 331.41,260.75 342.52,234.46 343.90,224.63 343.83,215.54 342.48,207.39 340.78,202.62 338.49,198.18 335.78,194.27 332.97,191.06 330.06,188.55 326.86,186.86 322.73,185.42 307.78,184.02 288.59,183.90 272.90,182.09 267.14,179.75 262.52,176.87 258.77,173.58 256.90,171.44 255.27,169.17 253.99,166.79 253.22,164.32 252.94,161.28 253.40,158.15 254.44,154.28 266.24,131.33 279.15,106.36 282.34,95.66 283.48,85.70 283.24,78.38 282.10,70.98 279.84,64.11 276.89,58.88 273.04,53.86 268.70,49.42 264.36,45.88 259.23,43.04 253.88,41.28 248.71,40.29 244.51,40.00 240.45,40.33 236.53,41.28 232.92,42.72 229.45,44.77 225.91,47.90 217.62,61.19 206.30,80.07 142.97,151.03 79.60,222.94 67.73,241.21 59.50,258.44 50.10,284.32 43.30,312.05 40.00,338.70 40.28,365.28 44.86,391.20 53.36,416.70 67.87,446.16 86.33,473.68 108.05,497.42 131.10,516.54 149.11,527.36 166.50,534.48 179.65,537.61 193.08,538.76 212.38,538.14 231.88,535.51 261.69,526.95 273.66,521.40 287.79,516.83 303.47,513.42 319.58,512.64 323.64,512.72 327.04,513.13 330.33,514.12 333.98,516.09 337.48,518.72 340.54,521.48 343.45,524.73 345.85,528.31 348.17,532.84 350.05,537.77 351.37,542.83 352.13,547.97 352.48,552.54 352.13,557.31 350.25,564.18 346.54,572.41 326.24,601.29 305.42,632.43 300.21,647.16 297.68,659.38 297.05,664.68 297.02,669.37 297.50,674.68 299.20,681.47 304.97,697.18 315.59,717.92 328.01,733.55 340.85,745.89 348.59,751.57 355.63,755.47 360.28,757.41 364.80,758.64 369.97,759.59 375.17,760.00 379.82,759.84 384.37,759.22 389.05,758.03 393.46,756.42 396.48,754.98 399.50,752.76 404.39,747.45 409.84,740.17 414.42,732.31 419.04,719.64 421.71,706.23 422.23,693.56 421.43,681.14 420.04,671.02 419.28,663.00 419.28,655.92 420.18,650.94 422.44,645.76 426.71,638.68 430.56,634.24 435.00,630.17 439.69,626.84 444.30,624.41 449.09,622.64 453.85,621.53 458.15,621.04 462.45,621.12 466.96,621.73 473.11,623.26 479.56,625.64 485.84,629.02 495.42,637.08 504.97,647.53 517.67,665.30 531.51,683.24 541.72,692.29 552.65,700.06 563.65,705.99 573.09,709.44 582.53,711.46 592.52,712.32 606.34,711.58 620.81,709.24 631.74,706.40 635.66,704.63 639.83,702.24 647.08,696.89 651.97,691.38 653.81,687.72 654.99,685.21 655.89,682.58 656.62,678.34 656.76,674.06 656.38,670.20 655.55,666.41 654.40,662.63 652.84,658.88 650.55,654.85 647.11,650.41 632.19,635.47 604.53,618.85 534.88,581.50 511.80,569.69 474.91,544.60 443.19,516.96"
        fill="none"
        stroke="#e94560"
        stroke-width="8.0"
        stroke-linejoin="round"
        stroke-linecap="round"/>
  <!-- Start/finish line -->
  <line x1="430.05" y1="532.03" x2="456.34" y2="501.88"
        stroke="#f5f5f5" stroke-width="9.6"
        stroke-linecap="round"/>
</svg>
