<?xml version="1.0" encoding="utf-8"?>
<svg xmlns="http://www.w3.org/2000/svg"
     width="800.0" height="374.4"
     viewBox="0 0 800.0 374.4">
  <rect width="100%" height="100%" fill="#1a1a2e"/>
  <!-- Track outline -->
  <polyline points="409.32,46.82 209.44,40.00 138.91,41.63 128.86,43.66 120.60,46.34 105.71,52.79 87.84,64.73 82.16,69.13 76.66,74.66 66.00,89.18 55.65,107.05 47.41,125.95 41.73,145.72 40.00,164.14 40.72,182.42 43.38,199.78 47.67,216.03 52.47,228.78 58.49,240.55 66.59,253.00 76.71,265.04 94.19,281.15 114.64,296.07 140.56,310.01 165.27,320.43 188.24,326.67 242.44,334.43 533.92,333.15 633.21,327.65 670.13,318.63 690.03,310.25 707.07,300.99 721.14,290.34 732.58,278.91 743.43,263.28 751.84,246.62 754.66,239.26 756.88,231.19 759.10,216.44 760.00,201.51 759.54,193.14 758.30,185.23 752.87,165.36 743.66,144.30 730.23,123.10 714.28,105.12 697.73,90.84 680.95,79.75 659.70,70.80 612.71,56.69 539.23,49.77 412.31,46.92 409.32,46.82"
        fill="none"
        stroke="#e94560"
        stroke-width="8.0"
        stroke-linejoin="round"
        stroke-linecap="round"/>
  <!-- Start/finish line -->
  <line x1="408.64" y1="66.81" x2="410.00" y2="26.83"
        stroke="#f5f5f5" stroke-width="9.6"
        stroke-linecap="round"/>
</svg>
