<?xml version="1.0" encoding="utf-8"?>
<svg xmlns="http://www.w3.org/2000/svg"
     width="800.0" height="520.6"
     viewBox="0 0 800.0 520.6">
  <rect width="100%" height="100%" fill="#1a1a2e"/>
  <!-- Track outline -->
  <polyline points="420.83,41.86 292.32,49.22 226.62,56.70 201.58,63.17 173.79,73.86 152.08,85.25 129.90,102.11 91.67,141.01 68.54,173.24 50.29,204.90 45.57,218.11 42.86,230.16 40.00,252.17 40.91,289.52 45.38,312.84 61.18,355.62 73.48,377.24 89.46,398.62 106.90,416.37 128.61,433.53 138.61,439.81 150.38,445.58 183.33,457.21 219.89,467.20 269.10,474.64 345.22,479.60 422.62,480.57 509.09,475.80 594.87,460.11 624.89,449.38 649.68,437.68 669.76,423.85 703.74,393.04 714.44,380.30 742.51,328.38 750.97,305.67 756.51,283.94 759.15,262.16 760.00,239.73 758.62,225.28 755.97,212.26 749.05,191.49 737.85,166.89 723.00,143.64 701.41,114.70 682.34,96.37 663.81,81.42 636.09,64.80 610.82,52.48 584.20,44.49 573.66,42.79 545.09,40.00 420.83,41.86"
        fill="none"
        stroke="#e94560"
        stroke-width="8.0"
        stroke-linejoin="round"
        stroke-linecap="round"/>
  <!-- Start/finish line -->
  <line x1="421.56" y1="61.85" x2="420.10" y2="21.87"
        stroke="#f5f5f5" stroke-width="9.6"
        stroke-linecap="round"/>
</svg>
