<?xml version="1.0" encoding="utf-8"?>
<svg xmlns="http://www.w3.org/2000/svg"
     width="436.7" height="800.0"
     viewBox="0 0 436.7 800.0">
  <rect width="100%" height="100%" fill="#1a1a2e"/>
  <!-- Track outline -->
  <polyline points="70.54,342.75 42.36,534.46 40.00,613.35 44.21,639.97 49.84,661.77 56.57,678.86 66.46,696.06 79.50,713.05 86.44,720.84 94.94,728.32 116.35,741.02 141.09,751.64 164.10,757.02 184.55,759.53 193.34,760.00 201.08,759.69 208.44,758.80 216.48,756.97 234.15,751.32 251.27,744.16 258.12,739.92 264.14,735.17 271.59,728.63 279.66,719.74 298.76,692.30 316.39,662.50 327.12,636.51 345.00,581.62 360.48,517.37 396.70,236.99 396.07,196.68 391.23,164.32 382.90,137.45 372.05,114.45 361.57,99.23 350.76,86.95 343.57,79.58 335.28,72.99 313.40,60.18 291.02,49.62 282.48,46.69 274.03,44.81 239.03,40.10 231.24,40.00 223.63,40.78 209.49,43.40 194.10,48.16 177.10,56.21 160.40,67.13 142.98,83.18 128.05,100.23 121.02,110.06 115.18,120.56 100.12,158.36 94.65,182.31 70.54,342.75"
        fill="none"
        stroke="#e94560"
        stroke-width="8.0"
        stroke-linejoin="round"
        stroke-linecap="round"/>
  <!-- Start/finish line -->
  <line x1="90.32" y1="345.69" x2="50.76" y2="339.82"
        stroke="#f5f5f5" stroke-width="9.6"
        stroke-linecap="round"/>
</svg>
