<?xml version="1.0" encoding="utf-8"?>
<svg xmlns="http://www.w3.org/2000/svg"
     width="800.0" height="455.8"
     viewBox="0 0 800.0 455.8">
  <rect width="100%" height="100%" fill="#1a1a2e"/>
  <!-- Track outline -->
  <polyline points="544.79,348.37 639.51,367.16 645.81,367.47 650.66,367.02 655.94,365.91 661.05,364.13 665.89,361.74 670.47,358.71 674.69,355.09 678.68,350.80 682.92,345.28 687.06,338.78 697.19,317.71 705.33,301.75 711.46,292.60 714.19,289.46 716.93,286.85 719.25,285.07 721.59,283.64 724.08,282.45 726.63,281.55 729.19,280.97 731.77,280.69 734.31,280.73 736.81,281.08 739.24,281.75 741.60,282.71 743.86,283.95 746.04,285.44 748.06,287.11 750.01,289.10 752.27,291.95 754.33,295.21 756.02,298.73 757.40,302.48 759.21,310.50 760.00,321.21 757.87,356.46 756.39,365.70 755.35,369.10 754.07,372.24 752.49,375.35 750.59,378.38 744.35,385.74 734.86,393.97 724.08,401.21 712.09,407.19 699.06,411.68 685.19,414.58 670.76,415.80 646.88,415.70 461.55,410.51 373.58,408.28 296.34,407.20 275.04,406.16 264.56,404.37 255.02,401.15 248.33,397.63 240.15,391.48 232.79,383.95 224.66,373.17 206.24,345.32 203.26,342.18 200.47,339.97 197.16,337.89 193.67,336.28 189.94,335.14 186.11,334.51 182.18,334.37 178.10,334.73 173.09,335.71 167.88,337.38 162.12,340.05 155.92,343.79 134.37,361.06 104.19,385.37 79.94,402.93 70.43,408.62 67.15,410.00 64.10,410.92 61.60,411.39 59.17,411.56 56.69,411.48 54.24,411.12 51.90,410.47 49.66,409.57 47.63,408.45 45.75,407.09 44.14,405.62 42.74,403.95 41.65,402.17 40.80,400.23 40.26,398.15 40.00,395.88 40.06,392.67 40.49,389.42 41.15,386.87 42.10,384.39 45.81,377.84 76.80,336.81 115.92,284.59 125.44,273.74 132.06,268.03 139.42,263.21 147.39,259.49 155.78,257.03 164.38,255.87 173.05,256.03 181.72,257.49 190.15,260.10 198.19,263.70 208.28,269.91 217.56,277.45 279.61,338.26 282.78,340.65 285.33,342.06 288.33,343.31 291.38,344.09 294.36,344.33 297.16,344.13 299.14,343.69 300.95,342.97 302.57,342.05 304.03,340.88 305.24,339.51 306.25,337.93 306.99,336.20 307.49,334.20 307.77,330.88 307.55,326.96 306.15,320.21 303.78,312.31 292.45,283.08 289.28,271.93 287.40,259.87 287.01,247.11 287.86,214.08 287.00,204.94 285.39,196.63 279.39,179.67 268.34,156.34 265.93,149.08 264.60,141.77 264.36,134.46 265.36,127.27 267.60,120.26 272.22,111.29 281.49,98.52 311.96,62.11 322.09,50.91 328.72,45.38 331.39,43.72 334.05,42.41 336.89,41.34 339.81,40.57 342.82,40.12 345.86,40.00 348.96,40.25 351.90,40.76 355.76,42.01 359.40,43.83 361.88,45.51 364.33,47.53 366.50,49.82 368.36,52.20 370.41,55.73 371.87,59.52 372.72,63.49 372.93,66.48 372.86,69.63 372.48,72.60 371.75,75.69 367.98,85.43 361.61,97.15 344.74,123.03 341.58,129.91 339.30,136.86 337.20,146.54 335.87,157.34 335.80,187.62 339.30,227.18 342.72,253.96 343.89,257.68 345.34,260.72 347.74,264.57 350.50,268.10 352.97,270.65 355.88,272.93 369.54,279.61 376.89,283.66 379.47,285.57 381.88,287.77 387.49,294.61 397.26,307.60 401.82,311.87 406.62,315.43 411.81,318.52 417.80,321.22 443.23,328.41 498.44,338.94 536.40,346.70 544.79,348.37"
        fill="none"
        stroke="#e94560"
        stroke-width="8.0"
        stroke-linejoin="round"
        stroke-linecap="round"/>
  <!-- Start/finish line -->
  <line x1="548.69" y1="328.75" x2="540.90" y2="367.99"
        stroke="#f5f5f5" stroke-width="9.6"
        stroke-linecap="round"/>
</svg>
