<?xml version="1.0" encoding="utf-8"?>
<svg xmlns="http://www.w3.org/2000/svg"
     width="800.0" height="617.8"
     viewBox="0 0 800.0 617.8">
  <rect width="100%" height="100%" fill="#1a1a2e"/>
  <!-- Track outline -->
  <polyline points="40.00,341.15 96.16,294.04 99.31,291.31 102.49,288.62 105.62,285.92 108.87,283.17 112.21,280.39 115.61,277.63 119.09,274.85 122.66,272.07 126.30,269.24 130.00,266.39 133.79,263.51 137.61,260.59 141.51,257.68 145.52,254.73 149.54,251.78 153.58,248.90 157.62,246.04 161.76,243.12 165.94,240.21 170.17,237.29 174.44,234.38 178.74,231.46 183.00,228.61 187.22,225.77 191.43,222.97 195.59,220.21 199.70,217.54 203.79,214.96 207.86,212.50 211.86,210.19 215.90,207.99 219.95,205.92 224.03,203.89 228.05,201.85 231.96,199.77 235.86,197.64 239.74,195.40 243.53,193.10 247.25,190.67 250.93,188.09 254.51,185.43 258.04,182.63 261.49,179.69 264.88,176.60 268.21,173.40 271.47,170.04 274.63,166.52 277.75,162.92 280.79,159.18 283.77,155.33 286.66,151.36 289.57,147.32 292.51,143.24 295.49,139.13 298.52,134.99 301.57,130.81 304.64,126.59 307.74,122.38 310.83,118.28 313.92,114.32 317.05,110.44 320.17,106.67 323.28,103.03 326.34,99.47 329.41,96.00 332.46,92.58 335.46,89.18 338.46,85.85 341.45,82.63 344.48,79.47 347.50,76.43 350.53,73.52 353.58,70.69 356.65,67.96 359.70,65.36 362.80,62.88 365.94,60.54 369.12,58.31 372.35,56.16 375.56,54.19 378.88,52.31 382.26,50.54 385.68,48.89 389.18,47.37 392.75,45.96 396.41,44.66 400.11,43.48 403.77,42.50 407.44,41.66 411.12,40.97 414.73,40.50 418.30,40.15 421.77,40.00 425.23,40.02 428.65,40.17 431.99,40.49 435.29,40.87 438.58,41.44 441.86,42.11 445.09,42.91 448.30,43.82 451.44,44.87 454.60,46.03 457.69,47.29 460.74,48.66 463.83,50.15 466.85,51.74 469.73,53.45 472.49,55.26 475.16,57.20 477.69,59.21 480.16,61.34 482.47,63.47 484.69,65.73 486.82,68.11 488.80,70.59 490.65,73.18 492.40,75.88 493.99,78.66 495.47,81.56 496.78,84.54 497.96,87.61 499.02,90.79 499.95,94.07 500.72,97.44 501.35,100.87 501.85,104.29 502.19,107.76 502.41,111.22 502.50,114.71 502.46,118.29 502.25,121.90 501.89,125.55 501.37,129.22 500.69,132.92 499.88,136.65 498.88,140.34 497.71,143.97 496.43,147.59 494.96,151.18 493.32,154.71 491.60,158.23 489.74,161.63 487.75,164.98 485.63,168.28 483.35,171.48 480.94,174.58 478.44,177.64 475.78,180.59 472.95,183.39 470.02,186.15 466.98,188.81 463.81,191.34 460.53,193.79 457.18,196.19 453.78,198.60 450.39,201.06 447.02,203.57 443.64,206.15 440.28,208.78 437.00,211.45 433.80,214.13 430.72,216.92 427.77,219.74 424.94,222.63 422.25,225.58 419.66,228.55 417.21,231.50 414.87,234.43 412.66,237.36 410.57,240.34 408.60,243.36 406.73,246.37 405.02,249.39 403.48,252.42 402.11,255.45 400.89,258.47 399.84,261.50 398.97,264.51 398.26,267.53 397.77,270.41 397.47,273.24 397.37,276.04 397.46,278.78 397.74,281.51 398.19,284.13 398.83,286.64 399.60,289.05 400.54,291.43 401.63,293.69 402.84,295.94 404.14,298.20 405.54,300.41 407.09,302.57 408.76,304.66 410.57,306.69 412.55,308.60 414.62,310.41 416.81,312.03 419.07,313.49 421.44,314.78 423.93,315.90 426.49,316.89 429.13,317.70 431.85,318.33 434.58,318.78 437.36,319.04 440.20,319.15 443.04,319.07 445.90,318.80 448.73,318.35 451.49,317.73 454.25,316.94 456.93,315.95 459.57,314.78 462.19,313.46 464.73,311.97 467.23,310.34 469.69,308.60 472.06,306.72 474.40,304.70 476.72,302.54 478.95,300.21 481.15,297.70 483.28,295.03 485.34,292.20 487.35,289.27 489.26,286.17 491.15,282.95 493.01,279.59 494.83,276.12 496.63,272.54 498.40,268.87 500.16,265.08 501.88,261.21 503.56,257.31 505.21,253.42 506.81,249.57 508.38,245.77 509.92,241.98 511.40,238.28 512.85,234.61 514.25,231.01 515.61,227.44 516.98,223.92 518.34,220.47 519.65,217.06 520.95,213.74 522.25,210.49 523.56,207.34 524.86,204.31 526.17,201.34 527.49,198.46 528.87,195.68 530.26,192.97 531.68,190.34 533.19,187.81 534.76,185.35 536.41,183.00 538.19,180.79 540.05,178.68 542.01,176.75 544.08,174.95 546.27,173.30 548.56,171.83 550.93,170.54 553.32,169.47 555.76,168.56 558.21,167.86 560.64,167.39 563.06,167.09 565.47,167.06 567.88,167.16 570.29,167.51 572.63,168.03 574.94,168.75 577.17,169.60 579.30,170.64 581.30,171.88 583.23,173.27 584.97,174.81 586.59,176.49 588.10,178.31 589.46,180.24 590.73,182.32 591.87,184.49 592.87,186.80 593.74,189.25 594.39,191.90 594.95,194.93 595.37,197.79 595.65,200.74 595.89,203.79 595.93,206.94 595.86,210.17 595.66,213.52 595.32,216.97 594.80,220.56 594.20,224.13 593.44,227.91 592.60,231.70 591.62,235.55 590.58,239.40 589.49,243.19 588.33,247.07 587.10,251.01 585.78,254.98 584.37,258.95 582.95,262.67 581.35,266.76 579.69,270.88 577.95,275.05 576.18,279.30 574.40,283.61 572.67,288.00 570.98,292.50 569.37,297.08 567.85,301.78 566.40,306.56 564.97,311.58 563.64,316.39 562.32,321.21 561.00,326.16 559.70,331.11 558.43,336.12 557.24,341.20 556.15,346.31 555.18,351.37 554.32,356.41 553.67,361.06 553.10,366.12 552.68,371.23 552.34,376.39 552.19,381.55 552.08,386.79 552.06,392.09 552.12,397.41 552.27,402.76 552.51,408.05 552.85,413.33 553.25,418.54 553.75,423.70 554.30,428.80 554.88,433.81 555.52,438.77 556.19,443.63 556.93,448.34 557.70,452.98 558.46,457.48 559.26,461.89 560.10,466.24 560.98,470.48 561.84,474.55 562.77,478.55 563.77,482.41 564.77,486.18 565.84,489.79 566.91,493.31 567.97,496.73 569.06,500.03 570.15,503.26 571.27,506.38 572.43,509.39 573.66,512.31 574.96,515.07 576.36,517.77 577.85,520.28 579.47,522.66 581.16,524.92 582.97,527.03 584.87,528.99 586.88,530.80 588.96,532.49 591.14,534.00 593.37,535.36 595.65,536.48 597.99,537.42 600.34,538.22 602.69,538.77 605.05,539.13 607.37,539.28 609.64,539.18 611.89,538.94 614.06,538.47 616.22,537.87 618.24,537.03 620.19,536.03 622.08,534.84 623.81,533.51 625.39,532.09 626.81,530.45 628.08,528.74 629.21,526.90 630.14,524.97 630.97,522.98 631.63,520.87 632.11,518.69 632.44,516.46 632.59,514.13 632.59,511.76 632.43,509.33 632.09,506.81 631.56,504.23 630.87,501.62 630.00,498.96 629.08,496.23 628.09,493.46 626.96,490.63 625.69,487.75 624.28,484.82 622.76,481.87 621.12,478.82 619.35,475.74 617.45,472.63 615.43,469.44 613.33,466.23 611.20,463.04 609.16,459.93 607.17,456.83 605.24,453.76 603.38,450.80 601.57,447.88 599.81,445.04 598.04,442.26 596.30,439.53 594.56,436.86 592.88,434.27 591.23,431.70 589.62,429.16 588.03,426.64 586.43,424.15 584.92,421.67 583.42,419.21 581.97,416.76 580.56,414.32 579.25,411.87 578.00,409.42 576.84,406.94 575.82,404.45 574.95,401.95 574.23,399.44 573.67,396.94 573.29,394.45 573.08,391.97 573.07,389.54 573.25,387.08 573.58,384.63 574.08,382.24 574.74,379.89 575.60,377.61 576.60,375.37 577.76,373.26 579.08,371.25 580.53,369.32 582.16,367.53 583.89,365.79 585.74,364.21 587.72,362.79 589.80,361.48 591.96,360.43 594.21,359.52 596.50,358.75 598.83,358.25 601.22,357.83 603.67,357.68 606.18,357.65 608.67,357.83 611.19,358.22 613.71,358.79 616.25,359.56 618.77,360.51 621.30,361.63 623.77,362.92 626.22,364.43 628.65,366.09 631.11,367.83 633.57,369.74 636.01,371.80 638.46,374.01 640.90,376.36 643.27,378.89 645.68,381.53 648.10,384.31 650.40,387.26 652.66,390.31 654.88,393.36 657.04,396.48 659.20,399.74 661.30,403.09 663.43,406.66 665.39,410.26 667.34,413.96 669.14,417.77 670.87,421.70 672.53,425.76 674.06,429.88 675.48,434.15 676.82,438.45 678.03,442.74 679.07,446.76 679.99,451.07 680.80,455.32 681.49,459.56 682.09,463.75 682.54,467.87 682.91,471.94 683.12,475.96 683.24,479.95 683.28,483.85 683.21,487.78 683.05,491.55 682.78,495.27 682.45,498.86 682.04,502.32 681.53,505.74 681.00,509.06 680.43,512.34 679.88,515.51 679.31,518.61 678.73,521.62 678.12,524.55 677.54,527.43 676.97,530.26 676.41,533.08 675.91,535.86 675.49,538.61 675.12,541.34 674.92,544.07 674.86,546.73 674.92,549.29 675.16,551.87 675.58,554.40 676.14,556.90 676.87,559.28 677.75,561.52 678.78,563.68 680.01,565.74 681.39,567.62 682.91,569.36 684.54,570.99 686.30,572.41 688.16,573.67 690.15,574.74 692.22,575.69 694.36,576.45 696.56,577.05 698.85,577.47 701.17,577.72 703.58,577.77 706.00,577.64 708.48,577.33 710.97,576.77 713.55,576.05 716.17,575.17 718.73,574.17 721.31,573.01 723.89,571.71 726.40,570.23 728.88,568.64 731.37,566.87 733.75,565.01 736.08,562.96 738.33,560.77 740.41,558.49 742.37,556.06 744.29,553.48 746.12,550.80 747.87,547.95 749.51,544.97 750.98,541.86 752.29,538.74 753.52,535.51 754.66,532.16 755.67,528.72 756.58,525.19 757.37,521.55 758.05,517.80 758.63,514.00 759.11,510.10 759.51,506.11 759.81,502.07 759.97,497.94 760.00,493.73 759.93,489.44 759.66,485.17 759.18,480.83 758.61,476.48 757.85,472.14 756.95,467.83 755.90,463.58 754.71,459.32 753.40,455.05 751.93,450.80 750.30,446.54 748.50,442.36 746.58,438.30 744.58,434.35 742.45,430.53 740.24,426.86 737.94,423.34 735.59,420.03 733.13,416.89 730.64,413.91 728.10,411.07 725.58,408.39 723.06,405.81 720.59,403.24 718.19,400.81 715.85,398.45 713.52,396.16 711.28,393.96 709.08,391.85 706.97,389.83 704.86,387.85 702.80,385.94 700.78,384.03 698.78,382.15 696.85,380.29 694.94,378.40 693.15,376.48 691.45,374.55 689.88,372.54 688.42,370.53 687.08,368.45 685.94,366.37 684.97,364.23 684.17,362.07 683.59,359.93 683.20,357.75 683.00,355.57 682.98,353.36 683.16,351.18 683.56,349.05 684.11,346.94 684.83,344.93 685.73,343.01 686.83,341.13 688.11,339.37 689.56,337.71 691.14,336.19 692.89,334.80 694.81,333.56 696.85,332.47 699.06,331.52 701.35,330.78 703.70,330.21 706.14,329.86 709.31,329.74 712.52,330.02 715.82,330.61 719.41,331.83 723.36,333.73 725.86,335.25 728.77,337.23 730.99,338.87 737.59,344.30 746.24,351.03"
        fill="none"
        stroke="#e94560"
        stroke-width="8.0"
        stroke-linejoin="round"
        stroke-linecap="round"/>
  <!-- Start/finish line -->
  <line x1="38.44" y1="361.09" x2="41.56" y2="321.21"
        stroke="#f5f5f5" stroke-width="9.6"
        stroke-linecap="round"/>
</svg>
