<?xml version="1.0" encoding="utf-8"?>
<svg xmlns="http://www.w3.org/2000/svg"
     width="672.3" height="800.0"
     viewBox="0 0 672.3 800.0">
  <rect width="100%" height="100%" fill="#1a1a2e"/>
  <!-- Track outline -->
  <polyline points="333.10,716.77 301.44,705.45 274.90,693.06 258.49,680.66 245.97,667.98 240.60,661.01 236.66,653.76 233.37,644.08 231.22,634.39 230.08,628.73 229.92,622.79 231.54,613.72 234.83,603.05 239.59,592.20 253.89,570.45 273.16,547.94 310.10,513.75 340.26,486.85 342.65,483.67 344.56,480.95 355.46,470.94 495.79,328.40 505.01,313.62 510.05,301.32 512.33,292.33 513.18,284.24 512.94,279.05 512.05,274.28 510.66,269.69 508.79,265.34 506.31,261.27 503.39,257.53 499.81,254.02 495.83,250.84 491.07,247.75 486.12,245.18 481.65,243.50 477.18,242.33 472.66,241.62 468.15,241.34 463.60,241.53 459.05,242.19 454.78,243.03 449.82,244.95 432.59,256.59 408.53,276.15 231.13,437.87 173.42,480.95 150.71,492.98 129.21,501.30 113.19,505.05 97.95,506.26 83.32,504.91 70.64,502.05 65.24,500.04 60.73,497.70 56.54,495.08 52.72,492.09 49.43,488.86 46.58,485.26 44.23,481.37 42.36,477.16 40.81,472.81 40.00,467.86 40.37,461.59 41.63,454.48 43.54,447.74 46.91,439.65 52.15,431.55 66.62,416.40 88.81,396.42 345.95,167.06 455.19,71.86 473.52,58.81 490.02,49.82 507.74,43.41 524.77,40.00 536.47,40.00 547.44,41.82 558.13,44.87 568.66,49.59 580.85,57.31 592.55,67.46 604.50,81.82 614.66,98.52 621.86,116.67 626.90,137.21 632.26,203.03 627.14,350.86 619.91,408.16 614.46,427.67 607.06,445.07 597.11,460.84 585.69,474.17 575.85,482.64 564.47,489.28 544.19,496.02 520.46,501.44 485.71,507.15 453.28,514.54 437.92,523.01 426.70,531.76 422.88,535.41 419.83,539.43 415.04,547.94 411.21,556.88 410.08,561.46 409.55,565.81 409.35,570.35 409.59,574.94 410.16,579.47 411.38,584.25 414.99,592.76 420.16,601.41 426.13,608.38 434.30,615.49 466.97,636.83 500.38,660.08 511.60,672.94 518.91,684.08 521.11,688.24 522.53,692.07 523.71,696.33 524.44,700.78 524.77,705.22 524.56,710.13 522.69,720.66 519.60,731.00 516.84,736.14 513.67,740.45 510.30,744.47 506.60,748.07 502.62,751.21 498.35,753.87 493.76,756.12 488.92,757.85 484.12,759.35 478.35,760.00 460.76,756.91 437.59,750.50 333.10,716.77"
        fill="none"
        stroke="#e94560"
        stroke-width="8.0"
        stroke-linejoin="round"
        stroke-linecap="round"/>
  <!-- Start/finish line -->
  <line x1="326.82" y1="735.76" x2="339.39" y2="697.79"
        stroke="#f5f5f5" stroke-width="9.6"
        stroke-linecap="round"/>
</svg>
