<?xml version="1.0" encoding="utf-8"?>
<svg xmlns="http://www.w3.org/2000/svg"
     width="444.9" height="800.0"
     viewBox="0 0 444.9 800.0">
  <rect width="100%" height="100%" fill="#1a1a2e"/>
  <!-- Track outline -->
  <polyline points="41.42,442.12 40.00,529.77 40.96,613.34 45.87,633.68 53.29,651.87 67.09,676.22 81.18,696.45 85.91,702.06 91.10,706.92 107.45,720.72 127.74,734.80 151.66,746.56 176.85,755.03 201.65,759.21 225.71,760.00 244.59,758.18 262.95,753.99 283.55,747.10 303.99,737.52 324.59,724.58 343.83,709.03 360.27,692.23 373.90,673.57 382.26,655.66 388.30,636.25 396.37,587.78 404.88,213.83 402.35,190.48 397.68,172.25 386.82,145.55 373.70,121.10 364.41,107.41 354.12,95.55 339.18,81.61 322.52,69.13 303.42,58.59 285.96,50.76 272.36,46.04 254.05,42.32 232.82,40.00 210.32,40.32 187.99,43.15 168.69,48.08 149.79,55.55 127.74,67.45 107.19,82.11 92.94,96.05 80.33,112.10 66.16,134.97 55.08,157.46 51.68,167.43 49.55,177.62 45.58,219.33 41.45,439.91 41.42,442.12"
        fill="none"
        stroke="#e94560"
        stroke-width="8.0"
        stroke-linejoin="round"
        stroke-linecap="round"/>
  <!-- Start/finish line -->
  <line x1="61.41" y1="442.45" x2="21.42" y2="441.80"
        stroke="#f5f5f5" stroke-width="9.6"
        stroke-linecap="round"/>
</svg>
