<?xml version="1.0" encoding="utf-8"?>
<svg xmlns="http://www.w3.org/2000/svg"
     width="800.0" height="704.6"
     viewBox="0 0 800.0 704.6">
  <rect width="100%" height="100%" fill="#1a1a2e"/>
  <!-- Track outline -->
  <polyline points="303.62,546.92 397.70,611.85 433.93,628.28 462.77,646.32 491.66,661.80 508.98,664.58 525.59,664.50 561.19,662.17 605.68,652.45 650.43,637.77 673.06,625.51 692.57,610.10 716.21,584.53 736.20,555.61 747.89,531.00 755.50,505.73 759.46,479.22 760.00,453.73 758.07,436.35 754.37,420.06 742.95,387.78 726.50,356.01 687.47,302.26 634.30,241.72 565.69,182.12 491.50,129.76 422.30,92.07 322.22,52.63 281.27,44.38 244.71,40.58 225.84,40.00 207.19,41.61 171.01,48.62 134.77,60.45 111.13,73.67 90.92,89.88 73.77,108.50 59.83,129.68 49.38,153.79 42.79,179.86 40.00,209.44 42.09,240.26 52.22,277.36 65.73,310.95 82.61,341.04 107.11,375.51 167.58,438.91 241.23,503.83 303.62,546.92"
        fill="none"
        stroke="#e94560"
        stroke-width="8.0"
        stroke-linejoin="round"
        stroke-linecap="round"/>
  <!-- Start/finish line -->
  <line x1="314.98" y1="530.46" x2="292.26" y2="563.38"
        stroke="#f5f5f5" stroke-width="9.6"
        stroke-linecap="round"/>
</svg>
