<?xml version="1.0" encoding="utf-8"?>
<svg xmlns="http://www.w3.org/2000/svg"
     width="800.0" height="455.7"
     viewBox="0 0 800.0 455.7">
  <rect width="100%" height="100%" fill="#1a1a2e"/>
  <!-- Track outline -->
  <polyline points="582.29,147.53 693.55,101.01 716.39,92.57 725.28,89.60 729.68,88.31 733.82,87.62 735.76,87.77 737.55,88.18 739.12,88.71 740.47,89.44 741.67,90.29 744.59,92.55 746.04,93.91 747.44,95.51 749.31,98.26 750.94,101.32 752.75,107.13 754.81,116.94 756.62,127.23 760.00,170.55 758.92,179.25 756.74,187.95 752.57,198.09 746.81,209.91 736.95,225.00 724.73,240.14 717.73,246.52 709.43,252.52 696.55,259.41 678.19,267.00 643.25,280.58 413.18,367.16 294.67,396.35 197.97,415.43 193.83,415.70 190.99,415.54 189.23,415.24 187.66,414.79 184.56,413.64 182.58,412.54 180.80,411.18 178.95,409.40 177.18,407.33 176.12,405.62 175.36,403.85 174.94,402.02 174.77,400.09 174.83,397.71 175.10,395.26 176.10,390.38 177.43,386.03 178.93,383.05 180.75,380.06 193.22,363.72 195.94,359.35 199.37,350.61 201.63,340.32 201.96,333.66 201.72,326.78 199.84,313.44 196.80,304.64 193.40,296.29 181.73,256.30 180.75,253.94 179.78,252.19 178.42,250.07 176.87,248.22 175.95,247.45 174.99,246.82 173.92,246.35 172.53,246.05 171.01,245.94 169.45,245.96 164.41,246.75 159.08,248.16 116.47,264.64 88.32,276.30 83.44,277.44 78.92,277.94 76.67,277.91 74.40,277.67 69.18,276.36 65.19,274.68 61.62,272.85 59.35,271.26 55.78,267.82 51.65,263.37 46.09,255.58 43.07,249.39 40.54,241.43 40.16,239.05 40.00,232.22 40.30,229.85 42.63,222.27 50.93,199.55 57.34,182.86 63.97,168.45 77.92,144.20 97.36,120.19 107.65,108.07 123.43,88.62 128.69,83.13 132.51,79.70 137.71,76.09 181.25,58.25 202.24,49.20 217.72,43.43 227.16,40.28 229.61,40.00 231.88,40.15 233.58,40.53 235.28,41.14 236.86,41.98 238.36,43.16 239.72,44.60 241.06,46.31 243.81,50.79 246.44,56.15 252.16,71.37 265.51,112.51 269.14,121.15 272.29,127.21 273.26,128.62 274.37,129.71 277.05,131.49 280.15,132.99 282.93,133.82 285.48,134.28 286.69,134.41 287.90,134.39 293.23,133.56 309.13,128.62 318.90,126.07 329.07,123.73 332.69,123.48 335.96,123.63 338.26,124.04 339.29,124.32 340.37,124.75 342.45,125.94 344.46,127.32 346.32,128.96 349.91,132.94 353.56,137.73 359.27,149.37 364.42,164.61 370.26,179.92 373.98,186.30 378.04,191.77 381.17,194.89 384.41,197.50 394.90,204.19 398.84,205.84 405.63,207.63 414.08,209.23 416.16,209.33 417.98,209.23 420.85,208.73 427.12,207.29 478.90,189.75 548.31,161.73 582.29,147.53"
        fill="none"
        stroke="#e94560"
        stroke-width="8.0"
        stroke-linejoin="round"
        stroke-linecap="round"/>
  <!-- Start/finish line -->
  <line x1="574.57" y1="129.08" x2="590.00" y2="165.98"
        stroke="#f5f5f5" stroke-width="9.6"
        stroke-linecap="round"/>
</svg>
