<?xml version="1.0" encoding="utf-8"?>
<svg xmlns="http://www.w3.org/2000/svg"
     width="800.0" height="694.0"
     viewBox="0 0 800.0 694.0">
  <rect width="100%" height="100%" fill="#1a1a2e"/>
  <!-- Track outline -->
  <polyline points="534.44,555.79 461.81,612.75 437.36,628.28 411.02,640.88 383.26,649.37 354.68,653.74 325.83,654.05 297.40,650.69 269.67,642.99 243.28,631.68 78.72,542.44 69.34,535.50 62.85,529.24 56.42,521.88 50.94,514.04 46.58,506.12 43.26,497.86 41.10,489.52 40.02,481.00 40.00,472.28 41.06,463.61 43.26,455.01 46.53,446.71 50.95,438.87 56.37,431.59 62.81,424.83 70.05,418.76 86.91,408.39 207.96,356.38 217.50,353.21 225.46,351.55 236.34,350.53 247.40,351.10 254.50,352.68 261.44,355.13 267.88,358.34 273.70,362.19 279.06,366.79 283.68,371.88 287.45,377.39 290.51,383.38 292.72,389.68 294.05,396.51 294.49,403.64 294.09,410.73 291.50,421.67 287.63,432.11 279.95,448.11 277.03,456.07 275.13,464.40 274.74,471.30 275.12,478.55 276.35,485.60 278.53,492.31 281.56,498.84 285.33,504.87 290.03,510.49 295.50,515.58 301.17,519.85 308.72,523.92 316.65,526.75 325.27,528.67 334.19,529.50 343.57,529.12 353.03,527.73 361.79,525.92 372.39,522.26 433.34,490.31 493.69,454.75 512.55,441.02 520.51,433.40 527.50,425.17 533.15,416.50 537.66,407.30 540.92,397.87 542.99,388.25 543.78,378.71 543.50,369.24 542.30,360.04 540.10,351.17 537.09,343.06 533.10,335.48 528.00,328.65 521.96,322.54 514.90,317.08 507.15,312.36 499.67,308.48 489.93,304.70 382.23,277.96 200.33,233.64 151.84,218.90 131.46,210.11 122.70,204.86 114.70,198.91 107.81,192.34 101.96,185.10 97.48,177.33 94.20,169.07 92.20,160.24 91.57,151.23 92.40,142.22 94.56,133.39 98.01,124.90 102.63,116.91 108.50,109.36 115.30,102.46 131.24,90.16 149.33,79.38 168.87,69.46 189.92,60.56 212.20,54.33 223.67,52.82 235.19,52.41 246.57,53.20 257.77,55.12 268.73,58.22 279.35,62.40 299.18,73.72 333.30,100.88 342.70,106.80 351.76,111.32 361.76,115.06 372.09,117.70 382.52,119.13 393.05,119.40 403.66,118.53 414.23,116.60 435.25,109.66 477.86,90.62 549.34,66.21 637.96,43.13 655.38,40.15 665.66,40.00 675.78,41.40 681.82,43.47 687.55,46.37 692.61,50.03 696.97,54.48 700.65,59.73 703.51,65.31 705.53,71.38 706.70,77.91 706.96,84.39 706.26,91.07 704.57,97.71 702.03,104.01 698.43,109.93 693.90,115.44 688.77,120.34 679.32,126.75 669.15,131.77 651.70,137.27 633.84,144.59 625.28,149.68 617.30,155.64 610.15,162.47 603.88,170.01 598.80,177.82 594.75,186.08 591.94,194.53 590.18,203.24 589.49,212.22 589.94,221.23 591.60,230.10 594.34,238.74 598.11,247.03 602.89,254.84 608.66,262.04 615.33,268.46 622.91,273.89 631.17,278.34 640.16,281.73 649.57,284.11 669.52,285.84 709.56,286.34 718.48,288.07 726.38,291.01 736.07,296.82 744.73,304.06 750.28,310.74 754.51,317.98 757.63,325.90 759.50,334.27 760.00,343.02 759.26,351.89 757.42,360.71 754.46,369.31 750.30,377.73 745.15,385.72 732.04,400.43 716.29,413.90 698.88,426.87 534.44,555.79"
        fill="none"
        stroke="#e94560"
        stroke-width="8.0"
        stroke-linejoin="round"
        stroke-linecap="round"/>
  <!-- Start/finish line -->
  <line x1="546.78" y1="571.53" x2="522.10" y2="540.05"
        stroke="#f5f5f5" stroke-width="9.6"
        stroke-linecap="round"/>
</svg>
