<?xml version="1.0" encoding="utf-8"?>
<svg xmlns="http://www.w3.org/2000/svg"
     width="800.0" height="769.0"
     viewBox="0 0 800.0 769.0">
  <rect width="100%" height="100%" fill="#1a1a2e"/>
  <!-- Track outline -->
  <polyline points="451.36,189.86 604.37,295.63 697.08,368.14 706.89,376.81 722.79,392.87 739.16,412.38 747.76,426.49 754.16,441.34 758.13,456.24 760.00,471.70 759.28,487.29 756.44,502.60 751.26,518.01 743.99,532.91 716.84,570.45 613.35,685.63 598.09,699.33 584.58,709.02 569.04,717.60 553.85,723.82 542.88,726.77 532.30,728.34 521.58,729.03 510.34,728.39 494.68,725.62 477.98,720.36 460.76,712.34 438.57,697.67 83.24,381.43 63.32,360.90 50.75,344.30 44.74,332.44 41.10,321.05 40.00,313.11 40.14,305.41 41.30,297.80 43.67,290.33 47.08,283.55 51.55,276.90 56.54,271.05 62.63,265.74 69.38,261.45 76.43,257.99 88.37,254.12 100.85,252.37 114.19,252.60 127.67,254.95 140.95,259.15 154.35,265.79 168.95,275.71 186.54,291.48 348.01,481.89 388.96,520.54 424.82,548.40 448.60,562.75 471.37,572.53 495.40,579.03 518.52,581.98 535.36,581.66 551.18,579.12 565.92,574.83 579.95,568.65 592.22,561.18 603.35,551.82 612.14,541.62 619.28,529.82 622.59,521.88 625.15,513.44 626.64,504.81 626.94,496.37 626.28,487.75 624.74,479.54 620.19,467.22 613.82,456.11 608.61,449.09 602.69,442.82 595.25,436.78 567.22,421.70 530.76,407.12 385.77,361.45 337.81,338.81 316.26,324.55 296.20,307.72 264.50,268.79 228.32,223.63 215.47,213.48 200.81,206.15 159.39,196.32 118.02,188.76 103.58,184.97 91.48,180.32 80.26,173.54 70.56,165.46 65.13,159.05 60.78,151.90 57.39,144.20 54.96,135.80 53.70,127.18 53.70,117.91 55.93,104.30 60.20,90.83 66.79,78.61 75.00,68.14 85.36,58.82 96.94,51.49 110.55,45.63 124.99,41.89 140.57,40.00 157.18,40.37 179.18,43.69 203.79,50.61 286.83,88.80 410.57,161.68 451.36,189.86"
        fill="none"
        stroke="#e94560"
        stroke-width="8.0"
        stroke-linejoin="round"
        stroke-linecap="round"/>
  <!-- Start/finish line -->
  <line x1="462.73" y1="173.41" x2="439.99" y2="206.32"
        stroke="#f5f5f5" stroke-width="9.6"
        stroke-linecap="round"/>
</svg>
