<?xml version="1.0" encoding="utf-8"?>
<svg xmlns="http://www.w3.org/2000/svg"
     width="672.8" height="800.0"
     viewBox="0 0 672.8 800.0">
  <rect width="100%" height="100%" fill="#1a1a2e"/>
  <!-- Track outline -->
  <polyline points="283.76,717.12 305.55,711.33 329.74,703.97 353.33,695.36 375.92,684.52 396.51,670.96 414.30,654.10 428.57,634.56 440.89,613.49 455.08,593.30 472.11,575.66 489.66,558.20 506.73,540.10 522.81,521.16 538.72,502.22 553.63,483.70 565.51,464.99 573.58,441.84 571.06,419.43 556.95,399.70 537.36,391.41 516.13,392.94 498.78,405.35 487.94,424.66 477.03,445.54 460.92,463.00 439.17,471.24 416.14,468.83 397.39,455.64 386.95,434.80 386.27,411.60 392.03,388.26 401.90,365.48 411.38,345.71 421.10,326.03 431.97,306.58 444.80,288.06 461.68,273.10 481.79,263.98 503.46,262.31 523.33,268.98 543.28,283.20 563.79,295.19 585.94,300.24 606.93,295.10 624.92,278.98 632.75,256.34 631.35,235.27 624.28,215.36 615.04,196.47 604.73,176.04 594.61,135.44 582.86,115.06 570.94,97.09 556.63,79.36 539.52,63.43 519.85,51.07 497.62,43.29 474.95,40.00 451.44,41.39 428.25,46.20 404.94,53.66 382.03,62.46 358.81,72.04 339.69,81.44 321.30,91.68 303.19,102.74 285.60,114.60 268.85,127.84 253.54,142.61 239.98,159.00 228.51,176.97 219.31,196.47 212.00,216.70 206.28,237.72 202.00,259.53 197.80,281.30 191.77,302.78 183.21,323.39 170.94,341.96 157.74,359.41 144.87,377.19 133.03,395.25 122.24,413.73 112.44,432.67 104.73,452.35 101.89,475.92 107.17,497.08 122.48,513.93 145.39,521.16 168.90,517.68 188.05,508.38 203.44,492.45 215.79,472.54 226.87,450.45 234.99,431.00 242.66,410.53 250.66,389.60 258.01,368.21 264.69,346.49 271.17,324.59 278.32,302.23 286.24,279.81 294.36,257.36 302.87,234.71 312.55,212.81 323.46,191.70 336.86,172.06 353.97,155.81 372.36,141.59 391.59,132.66 415.50,132.29 435.93,140.90 449.88,156.97 457.24,179.52 452.88,202.58 439.97,223.00 425.73,238.88 410.26,254.67 396.35,272.87 382.67,292.18 370.12,313.15 360.24,331.77 350.49,350.71 341.49,370.57 333.86,391.50 327.22,412.99 322.58,434.98 320.26,457.12 320.94,479.11 323.82,501.11 326.10,523.10 324.70,545.51 318.94,566.58 307.79,585.48 291.84,600.62 273.61,612.47 253.70,620.90 232.47,625.90 210.72,628.59 188.57,629.79 166.34,631.04 143.79,632.80 121.52,637.01 100.01,643.68 80.18,653.68 62.35,666.60 48.32,682.58 40.00,705.68 42.56,728.19 54.75,745.09 74.58,756.80 97.85,760.00 118.60,758.29 140.03,753.56 161.98,748.19 184.49,742.31 207.76,736.20 231.43,729.95 256.22,723.93 280.88,717.86 283.76,717.12"
        fill="none"
        stroke="#e94560"
        stroke-width="8.0"
        stroke-linejoin="round"
        stroke-linecap="round"/>
  <!-- Start/finish line -->
  <line x1="278.64" y1="697.79" x2="288.88" y2="736.46"
        stroke="#f5f5f5" stroke-width="9.6"
        stroke-linecap="round"/>
</svg>
