<?xml version="1.0" encoding="utf-8"?>
<svg xmlns="http://www.w3.org/2000/svg"
     width="800.0" height="551.8"
     viewBox="0 0 800.0 551.8">
  <rect width="100%" height="100%" fill="#1a1a2e"/>
  <!-- Track outline -->
  <polyline points="482.76,483.52 580.92,465.91 628.96,452.29 668.08,437.69 679.19,431.22 688.09,424.59 705.32,410.24 721.04,391.39 735.51,368.46 752.67,325.68 756.14,314.24 758.44,302.48 760.00,279.70 759.69,257.33 758.71,247.49 756.53,237.50 747.83,208.91 733.91,176.60 706.06,136.06 678.34,104.16 670.89,97.79 663.09,93.03 638.28,79.87 612.43,68.22 591.99,62.42 459.04,42.80 369.42,40.00 288.70,43.57 258.75,48.39 232.46,56.31 200.79,70.14 169.91,88.05 142.45,108.20 117.10,131.60 94.40,158.06 74.71,187.11 59.81,216.73 48.74,246.20 43.47,267.69 40.66,286.54 40.00,295.18 40.35,304.30 44.13,335.57 51.08,369.54 58.17,389.89 67.88,409.16 89.92,441.88 112.77,470.10 121.62,478.75 130.01,485.28 140.19,492.22 150.84,498.01 171.86,504.95 192.49,509.51 219.51,511.84 346.10,504.64 477.06,484.55 482.76,483.52"
        fill="none"
        stroke="#e94560"
        stroke-width="8.0"
        stroke-linejoin="round"
        stroke-linecap="round"/>
  <!-- Start/finish line -->
  <line x1="479.22" y1="463.83" x2="486.29" y2="503.20"
        stroke="#f5f5f5" stroke-width="9.6"
        stroke-linecap="round"/>
</svg>
