<?xml version="1.0" encoding="utf-8"?>
<svg xmlns="http://www.w3.org/2000/svg"
     width="745.5" height="800.0"
     viewBox="0 0 745.5 800.0">
  <rect width="100%" height="100%" fill="#1a1a2e"/>
  <!-- Track outline -->
  <polyline points="180.16,224.37 138.02,291.66 63.48,432.95 47.69,487.33 40.00,534.57 40.08,556.54 42.62,577.87 48.10,597.91 55.46,616.90 63.65,633.96 72.81,649.53 81.16,661.58 91.79,673.63 124.27,702.31 162.89,729.40 194.80,744.43 228.84,753.92 260.83,758.61 295.44,760.00 329.89,757.01 365.40,748.38 400.74,735.05 433.22,718.63 467.26,695.38 501.13,662.86 582.71,560.27 656.75,448.73 680.56,402.67 695.78,359.27 703.47,310.53 705.52,268.41 705.11,256.36 703.06,244.74 692.26,206.35 674.59,164.23 648.57,127.97 619.85,97.90 600.30,81.05 578.94,67.83 540.16,52.05 498.60,41.81 463.99,40.00 433.14,42.24 417.76,44.27 401.97,48.53 357.38,66.23 307.88,92.89 262.55,128.72 222.70,168.18 180.16,224.37"
        fill="none"
        stroke="#e94560"
        stroke-width="8.0"
        stroke-linejoin="round"
        stroke-linecap="round"/>
  <!-- Start/finish line -->
  <line x1="196.65" y1="235.68" x2="163.66" y2="213.06"
        stroke="#f5f5f5" stroke-width="9.6"
        stroke-linecap="round"/>
</svg>
