<?xml version="1.0" encoding="utf-8"?>
<svg xmlns="http://www.w3.org/2000/svg"
     width="800.0" height="730.3"
     viewBox="0 0 800.0 730.3">
  <rect width="100%" height="100%" fill="#1a1a2e"/>
  <!-- Track outline -->
  <polyline points="98.87,373.54 45.55,209.50 41.41,187.71 40.00,168.99 40.64,149.96 43.50,131.58 48.62,114.46 55.80,98.54 64.93,84.13 75.82,71.38 88.41,60.54 102.28,51.85 117.27,45.47 132.93,41.51 149.07,40.00 165.38,40.90 181.73,44.17 197.69,49.69 212.72,57.12 227.79,67.31 271.25,110.59 365.98,208.85 388.82,225.97 410.46,238.12 433.43,247.36 455.88,253.08 472.44,254.69 488.79,253.69 508.39,249.27 529.05,242.14 556.63,228.83 582.80,216.88 596.63,213.82 608.71,213.22 617.08,214.07 625.23,216.53 636.71,222.36 648.37,230.94 661.64,244.85 673.64,261.57 682.35,278.54 690.67,300.78 750.57,512.56 756.88,538.42 760.00,559.01 759.87,574.67 757.35,588.93 754.32,597.52 750.27,605.55 745.40,612.73 739.64,618.95 733.02,624.33 725.98,628.64 718.29,631.91 710.10,634.07 701.81,635.17 693.19,635.17 684.40,634.02 675.77,631.91 663.05,626.94 650.59,619.46 636.67,607.66 621.56,590.79 584.38,534.00 539.85,467.98 486.36,409.53 429.33,357.12 374.64,314.19 326.02,282.21 307.02,272.82 290.67,267.70 282.09,266.39 273.94,266.19 266.00,267.09 258.44,269.00 251.14,271.96 244.27,275.83 237.99,280.50 232.19,286.12 226.94,292.80 221.34,302.19 216.52,313.03 212.98,324.93 210.33,348.88 211.14,374.54 215.41,402.51 222.50,428.01 229.07,442.62 237.14,454.72 243.54,461.90 250.63,468.23 258.27,473.55 266.60,477.87 275.43,481.13 284.48,483.29 297.97,484.45 313.30,483.34 349.03,475.01 385.14,467.42 401.84,467.93 416.78,471.04 432.02,476.41 447.13,484.35 465.66,497.60 483.24,513.87 498.27,532.29 510.52,551.78 517.57,567.54 522.13,582.55 523.88,592.85 524.27,602.69 523.54,612.38 521.32,622.17 516.03,635.37 508.56,648.08 498.91,659.12 487.60,668.41 474.71,675.84 459.72,681.46 434.02,687.14 404.82,690.20 367.60,690.30 330.67,687.24 303.69,682.67 279.15,676.04 260.11,668.56 242.48,659.27 225.78,648.18 210.29,635.27 196.46,620.96 183.74,604.34 170.42,582.35 157.23,554.08 100.53,378.71 98.87,373.54"
        fill="none"
        stroke="#e94560"
        stroke-width="8.0"
        stroke-linejoin="round"
        stroke-linecap="round"/>
  <!-- Start/finish line -->
  <line x1="79.85" y1="379.72" x2="117.89" y2="367.35"
        stroke="#f5f5f5" stroke-width="9.6"
        stroke-linecap="round"/>
</svg>
