<?xml version="1.0" encoding="utf-8"?>
<svg xmlns="http://www.w3.org/2000/svg"
     width="686.3" height="800.0"
     viewBox="0 0 686.3 800.0">
  <rect width="100%" height="100%" fill="#1a1a2e"/>
  <!-- Track outline -->
  <polyline points="159.86,280.31 87.77,398.73 55.17,462.90 45.95,492.15 40.00,538.86 40.45,561.52 43.09,583.65 48.43,607.86 59.54,636.23 74.30,663.15 92.03,686.58 112.36,706.95 136.26,725.40 161.90,740.31 190.40,751.48 216.07,758.34 225.59,759.90 235.27,760.00 264.82,756.83 294.07,751.43 303.07,748.83 311.73,745.09 335.14,732.51 359.35,716.93 384.69,694.27 409.64,668.92 488.21,572.37 616.47,386.26 630.74,357.21 640.26,329.93 644.03,315.64 646.29,299.07 644.10,257.35 638.68,216.87 632.58,192.71 623.25,169.85 611.09,146.72 597.23,127.71 582.85,111.65 562.15,93.21 540.61,79.13 516.33,66.81 487.68,55.43 447.52,46.03 411.11,40.73 399.48,40.00 388.56,40.57 366.73,43.48 345.08,48.31 333.75,52.63 323.47,57.93 312.22,64.52 301.26,72.42 290.98,81.83 281.12,92.74 260.12,122.10 165.40,271.22 159.86,280.31"
        fill="none"
        stroke="#e94560"
        stroke-width="8.0"
        stroke-linejoin="round"
        stroke-linecap="round"/>
  <!-- Start/finish line -->
  <line x1="176.95" y1="290.71" x2="142.78" y2="269.91"
        stroke="#f5f5f5" stroke-width="9.6"
        stroke-linecap="round"/>
</svg>
