<?xml version="1.0" encoding="utf-8"?>
<svg xmlns="http://www.w3.org/2000/svg"
     width="800.0" height="565.5"
     viewBox="0 0 800.0 565.5">
  <rect width="100%" height="100%" fill="#1a1a2e"/>
  <!-- Track outline -->
  <polyline points="569.30,466.87 578.14,467.53 669.33,473.45 690.98,472.32 700.17,470.45 708.79,467.78 715.97,464.70 722.68,460.95 729.00,456.49 734.86,451.32 740.09,445.56 744.73,439.18 748.64,432.35 751.99,424.87 757.69,405.63 760.00,388.33 759.98,377.72 759.00,366.57 753.25,340.51 743.05,314.43 728.34,289.22 709.92,266.06 688.72,246.44 662.73,228.98 624.92,210.94 578.23,192.59 572.10,191.17 566.89,190.66 561.20,190.77 555.74,191.52 551.44,192.64 547.40,194.24 543.54,196.30 539.92,198.81 536.64,201.72 533.70,205.03 531.36,208.56 529.21,212.64 522.96,227.44 520.48,231.65 517.81,235.32 514.65,238.91 511.19,242.16 507.30,245.11 503.30,247.57 499.98,249.18 496.65,250.42 493.19,251.43 489.51,252.15 484.59,252.63 479.44,252.70 469.10,251.43 455.94,247.66 350.63,209.94 322.52,199.63 312.06,193.98 308.33,191.23 305.02,188.19 302.02,184.74 299.47,181.10 297.83,178.15 296.53,175.00 295.22,170.67 294.31,166.01 293.91,161.18 293.97,156.46 294.34,152.81 295.07,149.21 298.29,139.90 306.14,120.44 308.33,113.36 309.00,106.70 308.95,100.77 308.21,95.01 306.72,89.15 304.64,83.67 302.39,79.41 299.63,75.49 295.65,71.02 290.94,66.85 284.89,62.70 277.56,58.80 244.61,46.50 226.69,40.79 220.90,40.04 215.58,40.00 211.03,40.42 206.65,41.34 202.26,42.75 198.00,44.66 193.93,47.03 190.01,49.98 185.67,54.16 181.56,59.16 177.38,65.57 173.87,74.81 164.36,102.52 151.20,141.41 117.78,233.34 70.39,358.59 50.76,409.29 41.86,432.52 40.62,437.65 40.04,442.17 40.00,445.94 40.41,449.54 41.28,453.10 42.58,456.50 44.29,459.78 46.53,462.98 50.56,467.34 55.48,471.53 62.00,475.81 69.49,479.69 92.12,488.10 190.06,524.61 195.18,525.47 198.99,525.43 202.46,524.96 205.75,524.00 208.93,522.60 212.02,520.69 215.54,517.80 218.81,514.31 221.55,510.39 225.17,501.43 227.70,491.33 230.65,482.77 232.87,478.58 235.48,474.59 238.59,470.68 242.06,467.04 250.26,460.40 259.96,455.01 270.96,450.95 283.04,448.27 298.99,446.78 318.85,447.24 447.17,458.09 560.54,466.22 569.30,466.87"
        fill="none"
        stroke="#e94560"
        stroke-width="8.0"
        stroke-linejoin="round"
        stroke-linecap="round"/>
  <!-- Start/finish line -->
  <line x1="570.79" y1="446.93" x2="567.81" y2="486.82"
        stroke="#f5f5f5" stroke-width="9.6"
        stroke-linecap="round"/>
</svg>
