<?xml version="1.0" encoding="utf-8"?>
<svg xmlns="http://www.w3.org/2000/svg"
     width="716.4" height="800.0"
     viewBox="0 0 716.4 800.0">
  <rect width="100%" height="100%" fill="#1a1a2e"/>
  <!-- Track outline -->
  <polyline points="234.61,274.78 96.18,450.35 61.53,504.67 48.08,534.82 42.05,555.36 40.51,564.45 40.00,574.72 42.10,601.68 46.58,628.59 50.04,639.26 54.15,648.51 65.03,668.72 79.93,690.52 94.59,705.90 111.78,720.49 130.98,732.98 151.15,743.25 171.70,751.03 191.22,756.48 202.76,758.92 214.99,760.00 244.04,758.81 275.99,754.15 304.61,745.92 329.04,736.33 337.91,731.96 346.88,726.00 384.57,695.23 426.79,654.99 483.06,581.48 640.07,331.09 667.12,262.01 673.23,241.06 676.41,220.00 674.07,186.51 668.24,156.03 664.97,145.75 660.53,136.44 647.83,115.04 633.49,94.83 625.92,86.49 618.17,79.62 595.85,63.84 569.09,51.13 544.43,42.50 533.41,40.68 521.59,40.00 500.11,40.11 478.72,42.33 467.14,45.56 455.74,50.50 435.19,61.23 412.82,76.16 356.78,131.11 236.99,271.77 234.61,274.78"
        fill="none"
        stroke="#e94560"
        stroke-width="8.0"
        stroke-linejoin="round"
        stroke-linecap="round"/>
  <!-- Start/finish line -->
  <line x1="250.31" y1="287.16" x2="218.90" y2="262.39"
        stroke="#f5f5f5" stroke-width="9.6"
        stroke-linecap="round"/>
</svg>
