<?xml version="1.0" encoding="utf-8"?>
<svg xmlns="http://www.w3.org/2000/svg"
     width="800.0" height="468.5"
     viewBox="0 0 800.0 468.5">
  <rect width="100%" height="100%" fill="#1a1a2e"/>
  <!-- Track outline -->
  <polyline points="410.48,47.94 228.32,40.00 201.71,41.25 179.58,44.75 157.28,51.63 136.82,60.53 122.98,68.14 110.29,76.99 97.13,87.96 84.38,101.33 68.89,122.25 55.72,145.25 49.00,163.20 44.55,181.67 41.24,202.54 40.00,224.09 41.39,246.80 45.14,268.65 50.51,286.08 57.68,302.25 67.14,318.59 78.27,333.80 92.28,348.81 106.12,361.38 120.92,372.23 139.77,381.90 160.42,390.43 189.46,397.58 386.82,428.51 409.73,428.51 617.77,413.79 639.55,408.28 657.11,400.84 677.46,389.15 696.32,375.27 710.54,361.87 722.09,349.01 731.24,336.59 740.11,320.60 748.50,301.15 754.99,276.02 758.99,253.31 760.00,239.79 759.07,218.80 755.98,195.19 750.52,175.42 742.85,156.83 731.34,137.58 720.24,122.18 713.56,114.39 695.60,97.58 661.70,75.37 650.49,69.93 638.88,65.64 621.37,60.53 598.70,56.34 417.12,48.23 410.48,47.94"
        fill="none"
        stroke="#e94560"
        stroke-width="8.0"
        stroke-linejoin="round"
        stroke-linecap="round"/>
  <!-- Start/finish line -->
  <line x1="409.61" y1="67.92" x2="411.35" y2="27.95"
        stroke="#f5f5f5" stroke-width="9.6"
        stroke-linecap="round"/>
</svg>
