<?xml version="1.0" encoding="utf-8"?>
<svg xmlns="http://www.w3.org/2000/svg"
     width="800.0" height="356.6"
     viewBox="0 0 800.0 356.6">
  <rect width="100%" height="100%" fill="#1a1a2e"/>
  <!-- Track outline -->
  <polyline points="463.32,316.59 612.31,315.09 644.73,308.89 675.27,298.67 696.63,288.14 710.92,277.24 722.69,265.62 731.71,254.65 740.47,241.80 747.92,227.35 753.81,212.00 757.44,197.55 759.44,182.78 760.00,167.58 758.72,151.94 753.56,130.96 747.47,113.44 745.73,109.49 743.42,105.92 728.72,88.49 710.28,70.40 698.53,61.97 686.24,55.67 667.06,49.32 649.59,45.30 639.42,44.25 178.73,40.00 150.37,41.72 130.49,45.00 118.32,48.92 107.67,54.02 98.29,59.75 89.15,66.85 77.40,77.62 66.29,90.67 56.77,106.72 49.09,124.66 43.20,144.86 40.00,165.08 40.08,180.03 42.42,194.98 48.94,217.25 58.28,238.57 68.46,253.32 79.46,265.72 98.15,283.37 100.79,285.52 103.73,287.29 117.33,293.14 138.07,298.99 313.96,312.06 461.86,316.61 463.32,316.59"
        fill="none"
        stroke="#e94560"
        stroke-width="8.0"
        stroke-linejoin="round"
        stroke-linecap="round"/>
  <!-- Start/finish line -->
  <line x1="463.11" y1="296.59" x2="463.52" y2="336.59"
        stroke="#f5f5f5" stroke-width="9.6"
        stroke-linecap="round"/>
</svg>
