<?xml version="1.0" encoding="utf-8"?>
<svg xmlns="http://www.w3.org/2000/svg"
     width="550.9" height="800.0"
     viewBox="0 0 550.9 800.0">
  <rect width="100%" height="100%" fill="#1a1a2e"/>
  <!-- Track outline -->
  <polyline points="429.40,286.90 383.42,189.62 355.10,145.42 324.21,104.78 297.90,78.59 289.20,71.74 279.41,65.71 255.00,53.91 226.76,44.15 199.36,40.00 171.91,40.27 145.14,45.17 120.01,53.42 100.81,62.80 84.92,72.61 78.12,77.35 72.15,82.74 63.41,92.71 55.25,104.35 49.16,115.51 44.45,127.58 41.05,141.06 40.00,157.39 47.44,201.20 63.95,260.76 207.30,670.05 224.19,702.33 240.50,723.73 251.30,733.81 262.73,741.57 275.50,747.87 305.26,755.69 334.34,759.25 347.70,760.00 360.77,759.14 385.52,755.10 411.03,747.77 430.32,738.28 447.76,726.37 462.51,713.54 475.41,698.61 486.00,681.37 494.70,661.37 503.36,630.27 509.08,600.09 510.67,587.42 510.88,574.60 501.55,508.41 478.61,420.62 458.60,359.60 429.40,286.90"
        fill="none"
        stroke="#e94560"
        stroke-width="8.0"
        stroke-linejoin="round"
        stroke-linecap="round"/>
  <!-- Start/finish line -->
  <line x1="411.11" y1="294.99" x2="447.69" y2="278.81"
        stroke="#f5f5f5" stroke-width="9.6"
        stroke-linecap="round"/>
</svg>
