<?xml version="1.0" encoding="utf-8"?>
<svg xmlns="http://www.w3.org/2000/svg"
     width="764.5" height="800.0"
     viewBox="0 0 764.5 800.0">
  <rect width="100%" height="100%" fill="#1a1a2e"/>
  <!-- Track outline -->
  <polyline points="403.00,392.56 497.52,486.43 501.63,491.51 504.26,495.72 506.70,500.61 508.58,505.81 509.77,511.08 510.34,516.46 510.21,521.75 509.43,526.97 507.89,532.21 505.74,537.24 502.81,542.41 499.34,547.27 495.06,552.19 490.33,556.71 478.91,565.02 455.53,577.26 432.12,590.19 424.60,596.09 417.81,602.88 410.63,611.93 404.12,622.25 398.68,633.26 394.10,645.64 386.53,682.28 384.18,703.53 383.62,722.12 384.51,728.76 386.11,734.12 388.20,738.65 390.81,742.64 394.06,746.45 397.76,749.76 402.15,752.73 407.09,755.19 414.18,757.68 421.66,759.36 428.16,760.00 434.95,759.79 445.20,758.28 455.65,755.55 463.63,752.44 471.71,747.91 498.69,725.18 553.92,670.31 573.61,642.94 580.54,630.08 586.23,616.73 590.55,603.04 593.52,589.23 594.82,577.69 594.92,565.61 589.86,527.44 588.02,508.38 588.61,494.32 592.12,476.26 598.25,458.94 607.00,442.27 618.30,426.55 632.06,412.08 696.19,356.74 704.14,347.98 710.09,339.63 715.24,330.24 719.35,320.12 722.33,309.42 724.11,298.27 724.50,286.92 723.59,275.50 721.21,263.64 717.55,252.04 712.57,240.51 705.97,228.87 677.02,191.51 621.47,133.73 535.63,47.12 531.01,44.02 527.15,42.41 521.47,40.79 515.69,40.00 511.07,40.06 506.48,40.89 500.86,42.94 495.28,46.01 490.04,50.03 485.27,54.93 481.23,60.53 477.97,66.57 476.06,71.63 474.85,76.94 474.30,83.47 474.59,89.96 475.57,94.98 477.26,99.70 480.23,105.26 484.01,110.37 488.81,115.03 494.08,118.84 499.04,121.55 504.75,123.72 531.53,129.23 553.35,134.51 567.30,140.15 580.35,148.01 586.19,152.69 591.67,157.94 596.59,163.60 601.09,169.79 608.63,183.57 615.77,203.27 620.96,224.90 624.79,252.94 626.60,286.70 625.42,313.33 622.26,333.00 616.17,353.69 608.47,369.34 600.30,380.52 588.04,392.54 574.21,402.34 561.87,408.29 548.56,412.18 534.32,413.75 519.22,413.02 503.68,409.93 488.25,404.33 469.29,394.04 451.24,381.13 432.42,364.17 421.81,351.93 413.35,338.50 407.31,324.07 403.56,308.68 402.13,292.25 403.33,275.16 422.81,160.31 423.11,151.75 422.55,145.44 421.57,140.86 420.09,136.82 417.96,132.92 415.37,129.46 412.20,126.33 408.70,123.73 404.79,121.60 400.67,120.06 396.20,119.06 391.59,118.71 386.73,119.03 381.84,120.07 376.96,121.82 371.95,124.53 365.07,129.92 358.00,136.50 343.57,151.59 336.38,157.34 329.14,162.14 316.06,168.57 308.86,171.04 301.44,172.85 293.74,173.93 285.70,174.31 265.12,172.63 234.93,169.33 223.87,169.76 213.06,171.40 200.16,174.78 187.14,179.64 174.67,185.80 162.10,193.59 130.64,219.09 97.26,252.08 47.80,301.48 44.23,306.77 42.05,311.47 40.73,315.77 40.05,320.14 40.00,324.61 40.55,329.00 41.76,333.18 43.51,337.00 45.84,340.35 48.58,343.16 51.70,345.44 55.08,347.12 58.71,348.21 62.46,348.65 66.41,348.43 70.36,347.53 74.29,345.92 78.20,343.51 82.75,339.73 87.25,334.69 92.47,326.31 97.65,316.21 110.97,286.42 122.52,267.19 134.47,252.60 140.05,247.44 145.83,243.02 152.18,238.99 158.80,235.56 165.88,232.64 173.16,230.37 180.69,228.76 188.32,227.85 203.91,228.15 219.79,231.00 235.73,236.54 251.25,244.99 265.98,256.08 290.97,279.31 377.49,367.22 403.00,392.56"
        fill="none"
        stroke="#e94560"
        stroke-width="8.0"
        stroke-linejoin="round"
        stroke-linecap="round"/>
  <!-- Start/finish line -->
  <line x1="417.10" y1="378.37" x2="388.91" y2="406.75"
        stroke="#f5f5f5" stroke-width="9.6"
        stroke-linecap="round"/>
</svg>
