<?xml version="1.0" encoding="utf-8"?>
<svg xmlns="http://www.w3.org/2000/svg"
     width="800.0" height="768.2"
     viewBox="0 0 800.0 768.2">
  <rect width="100%" height="100%" fill="#1a1a2e"/>
  <!-- Track outline -->
  <polyline points="700.77,464.21 712.91,453.21 726.86,439.92 739.23,427.11 749.29,414.62 758.03,398.05 760.00,381.14 754.89,365.41 743.59,353.53 728.36,347.42 711.99,342.36 697.77,332.63 687.57,318.17 681.76,301.12 678.90,282.60 676.55,263.11 673.41,248.18 669.19,233.02 664.08,217.72 657.96,202.28 651.00,186.75 642.96,171.32 633.84,156.08 623.72,141.19 612.68,126.56 600.84,112.13 588.09,98.11 574.96,84.52 562.23,71.97 550.14,60.50 538.72,50.37 523.32,41.58 508.11,40.00 491.98,47.88 484.93,62.61 487.95,79.25 497.23,94.96 508.32,105.36 521.77,114.11 535.93,123.00 549.46,134.14 561.29,147.63 570.98,163.43 578.59,181.08 584.29,200.17 588.11,215.07 591.30,230.43 593.83,246.27 595.87,262.51 597.56,279.11 598.89,296.06 599.88,313.30 600.51,330.85 600.86,348.80 600.96,367.05 600.16,385.50 597.53,404.02 591.93,421.84 583.14,438.21 571.68,452.84 557.97,465.49 542.47,475.85 525.74,484.11 508.32,492.26 487.27,498.13 471.38,498.20 455.20,497.76 438.75,497.26 422.17,496.89 405.32,496.86 387.97,496.45 370.39,495.98 352.53,495.15 334.55,492.96 316.62,489.21 298.99,483.70 281.88,476.19 265.73,466.83 250.57,455.76 236.53,442.74 224.50,427.78 214.63,411.20 206.05,393.62 198.15,375.47 189.83,357.22 180.88,339.14 171.06,321.39 160.11,304.58 148.20,289.62 135.22,277.07 121.55,266.83 107.20,259.82 87.75,256.74 69.49,260.29 54.28,269.99 44.59,284.55 40.00,301.79 40.49,319.95 45.77,337.93 55.66,354.60 68.50,370.14 79.17,381.31 90.58,392.41 102.30,403.59 114.24,415.16 126.35,427.00 138.66,439.12 151.18,451.43 163.81,464.04 176.66,476.86 189.71,489.81 203.01,503.06 216.37,516.45 229.87,530.04 243.42,543.86 257.08,557.82 270.94,571.91 284.95,586.10 298.97,600.63 313.01,615.32 327.10,630.29 341.14,645.45 355.25,660.85 369.06,675.71 382.26,689.64 394.56,702.45 406.35,713.66 422.39,724.16 438.51,728.19 453.73,725.23 465.82,716.14 473.04,699.64 469.50,682.52 457.90,667.66 445.38,657.66 430.80,649.41 414.77,642.67 397.96,635.29 381.72,625.15 368.05,611.20 359.54,594.15 357.62,576.37 362.96,559.90 373.98,546.95 389.03,541.41 405.32,542.52 421.10,548.69 435.23,558.86 446.65,572.75 457.43,588.01 471.49,601.10 488.86,609.75 508.30,612.77 527.82,610.06 541.82,604.45 555.20,596.87 568.16,587.61 580.54,577.08 592.68,565.67 605.01,553.83 617.58,541.78 630.23,529.37 643.27,516.92 656.70,504.51 670.36,491.89 684.29,479.11 698.49,466.29 700.77,464.21"
        fill="none"
        stroke="#e94560"
        stroke-width="8.0"
        stroke-linejoin="round"
        stroke-linecap="round"/>
  <!-- Start/finish line -->
  <line x1="687.32" y1="449.40" x2="714.21" y2="479.02"
        stroke="#f5f5f5" stroke-width="9.6"
        stroke-linecap="round"/>
</svg>
