<?xml version="1.0" encoding="utf-8"?>
<svg xmlns="http://www.w3.org/2000/svg"
     width="401.0" height="800.0"
     viewBox="0 0 401.0 800.0">
  <rect width="100%" height="100%" fill="#1a1a2e"/>
  <!-- Track outline -->
  <polyline points="348.73,375.82 343.12,241.22 342.92,238.63 342.49,236.29 341.82,234.23 340.87,232.22 339.64,230.07 338.25,228.40 336.50,226.94 334.81,225.90 332.79,225.10 330.54,224.60 328.43,224.30 326.27,224.28 324.29,224.50 321.93,225.03 319.03,226.01 218.83,272.63 216.52,273.55 214.14,274.27 211.97,274.64 209.76,274.83 207.27,274.77 204.70,274.49 202.03,274.04 199.71,273.46 197.34,272.40 195.12,271.04 193.20,269.35 191.46,267.48 189.97,265.66 188.48,263.57 187.28,261.21 186.35,259.02 185.40,256.04 184.73,253.29 168.49,161.60 168.19,158.97 167.97,156.57 167.84,153.43 167.80,150.14 167.94,146.55 168.57,142.69 169.32,139.38 170.40,135.71 172.11,131.73 173.88,128.24 176.16,124.38 178.65,120.97 181.64,117.45 184.47,114.46 187.72,111.65 191.68,109.03 195.42,106.91 198.85,105.38 202.78,103.93 205.86,103.06 209.25,102.22 212.32,101.60 215.88,101.11 219.60,100.92 222.92,101.02 226.12,101.37 229.52,101.97 232.54,102.67 236.30,103.75 240.10,105.17 243.29,106.75 266.81,118.46 269.20,119.58 271.92,120.69 274.25,121.30 276.95,121.68 279.94,121.82 282.97,121.68 286.02,121.43 288.74,120.96 291.48,120.21 294.20,119.12 296.86,117.76 299.41,116.23 302.00,114.19 304.08,112.34 306.31,109.74 308.20,106.94 309.70,103.98 310.64,101.30 311.34,98.13 311.60,95.54 311.70,92.84 311.63,90.42 311.27,87.39 310.64,85.05 309.78,82.38 308.47,79.54 307.05,77.22 305.24,74.58 303.49,72.55 301.59,70.86 299.76,69.62 297.41,68.39 293.31,66.49 231.90,44.36 228.31,43.26 224.51,42.33 220.41,41.48 215.91,40.88 211.89,40.35 208.04,40.06 200.99,40.00 129.69,41.08 127.49,41.19 125.70,41.48 123.92,42.25 121.91,43.33 120.26,44.69 119.04,45.93 117.65,47.89 115.99,50.58 115.08,52.58 111.61,61.43 103.21,83.06 101.69,86.71 99.86,90.00 97.79,93.23 95.58,96.05 93.14,98.84 90.75,101.36 88.29,103.53 85.82,105.46 82.76,107.58 79.81,109.34 76.63,111.05 73.01,112.64 69.93,114.11 67.27,115.62 64.57,117.43 61.80,119.37 58.93,121.73 55.63,124.79 53.65,126.82 51.17,129.79 48.45,133.64 46.00,138.21 43.95,142.29 42.17,147.19 40.99,152.26 40.35,157.32 40.11,161.95 40.00,166.57 40.06,170.67 40.39,173.84 41.46,177.78 42.88,181.69 45.12,186.73 48.03,192.53 51.29,197.43 57.36,205.81 142.58,330.28 144.59,333.03 146.61,335.51 149.10,337.63 151.93,339.60 155.14,341.37 158.20,342.75 161.50,344.02 164.60,344.82 166.86,345.14 169.94,345.36 172.92,345.22 176.16,344.74 178.88,344.28 181.79,343.57 184.11,342.72 186.66,341.43 246.56,307.60 249.31,306.44 251.76,305.60 254.22,305.09 257.07,304.80 260.49,304.81 264.34,304.93 267.66,305.55 270.60,306.57 273.44,307.91 275.85,309.50 278.27,311.52 281.02,314.36 283.02,316.94 284.63,319.48 285.91,321.98 286.85,324.43 287.53,327.16 287.81,329.13 288.16,334.02 292.21,395.90 292.38,399.74 292.22,404.19 291.63,408.66 290.64,412.71 289.42,416.31 287.93,420.14 285.63,424.32 283.20,428.23 247.38,480.21 245.60,483.00 243.67,486.67 241.70,490.74 239.93,494.69 238.51,498.90 237.22,503.93 236.56,507.63 235.98,512.59 235.56,517.48 235.50,521.20 235.61,525.43 235.92,528.77 236.80,532.81 237.79,536.80 239.53,542.30 258.67,595.79 262.25,606.35 266.78,619.40 271.30,633.64 305.24,738.60 307.03,743.83 309.32,748.89 311.62,752.05 314.15,754.52 317.39,756.80 320.45,758.34 323.87,759.55 327.12,760.00 329.76,759.88 331.95,759.28 333.87,758.32 335.82,756.49 337.48,754.18 339.05,751.49 340.27,748.76 340.97,746.64 341.46,744.85 341.73,742.74 341.78,740.80 341.67,738.69 341.34,736.55 336.46,711.78 336.37,710.22 336.43,708.60 336.70,706.76 337.14,704.97 337.91,703.39 338.89,702.01 357.56,681.08 358.70,679.31 359.67,677.24 360.27,675.55 360.65,673.39 360.85,671.11 361.04,667.98 360.92,663.78 357.35,590.03 356.46,563.28 348.73,375.82"
        fill="none"
        stroke="#e94560"
        stroke-width="8.0"
        stroke-linejoin="round"
        stroke-linecap="round"/>
  <!-- Start/finish line -->
  <line x1="328.75" y1="376.65" x2="368.71" y2="374.99"
        stroke="#f5f5f5" stroke-width="9.6"
        stroke-linecap="round"/>
</svg>
