<?xml version="1.0" encoding="utf-8"?>
<svg xmlns="http://www.w3.org/2000/svg"
     width="477.9" height="800.0"
     viewBox="0 0 477.9 800.0">
  <rect width="100%" height="100%" fill="#1a1a2e"/>
  <!-- Track outline -->
  <polyline points="80.79,369.06 79.95,372.47 44.29,535.76 41.04,556.44 40.00,594.16 43.35,619.51 48.10,642.20 53.64,658.36 61.03,674.66 70.34,688.57 82.97,703.78 97.43,718.14 113.46,731.31 130.85,742.66 147.37,749.65 166.56,755.26 186.43,759.36 197.07,760.00 207.51,759.55 239.89,755.81 253.59,751.42 269.09,744.93 282.93,736.19 300.76,720.62 321.39,695.04 331.49,677.29 348.77,628.30 436.29,225.77 437.93,208.45 437.05,185.26 434.65,162.32 432.74,153.46 430.30,146.02 423.88,132.49 402.60,97.97 390.17,84.14 378.64,73.38 369.73,66.70 355.74,58.31 338.84,50.19 319.15,44.67 301.16,41.33 287.34,40.05 270.60,40.00 254.03,42.01 240.05,45.19 224.92,50.19 207.27,59.07 190.83,69.19 181.44,75.35 172.67,83.19 157.43,103.26 143.40,128.13 127.08,181.80 80.79,369.06"
        fill="none"
        stroke="#e94560"
        stroke-width="8.0"
        stroke-linejoin="round"
        stroke-linecap="round"/>
  <!-- Start/finish line -->
  <line x1="100.20" y1="373.86" x2="61.37" y2="364.26"
        stroke="#f5f5f5" stroke-width="9.6"
        stroke-linecap="round"/>
</svg>
