<?xml version="1.0" encoding="utf-8"?>
<svg xmlns="http://www.w3.org/2000/svg"
     width="485.8" height="800.0"
     viewBox="0 0 485.8 800.0">
  <rect width="100%" height="100%" fill="#1a1a2e"/>
  <!-- Track outline -->
  <polyline points="435.28,241.26 440.77,223.29 444.64,197.86 445.84,174.58 444.79,154.53 442.35,137.84 440.79,131.87 438.65,126.54 433.41,116.37 427.44,106.83 423.97,102.39 420.10,98.42 402.78,84.56 393.11,79.03 382.79,74.75 372.25,71.28 366.81,70.05 361.28,69.42 350.47,69.13 339.13,69.76 322.92,73.16 290.54,82.75 279.32,84.63 268.02,85.12 256.76,84.15 245.72,81.95 224.40,74.42 196.65,60.65 167.19,47.20 149.17,42.61 132.97,40.46 121.06,40.00 110.30,40.63 102.40,41.76 95.06,43.62 88.20,46.21 81.75,49.59 76.09,53.57 71.01,58.28 66.81,63.33 63.32,68.96 60.75,74.80 58.99,81.01 58.16,87.34 58.14,93.74 58.90,100.11 60.38,106.35 62.61,112.43 65.46,118.23 68.92,123.83 72.89,129.00 77.48,133.81 82.45,138.15 87.41,141.97 93.70,145.71 118.27,156.34 147.54,166.36 172.22,172.11 193.60,175.30 209.72,175.35 225.90,173.39 241.78,169.31 288.67,150.54 299.69,148.03 307.74,147.26 316.15,147.31 324.06,148.47 331.79,150.59 339.13,153.54 346.12,157.33 352.50,161.82 358.36,167.09 363.34,172.91 367.66,179.38 371.16,186.17 373.99,193.39 376.11,200.78 377.56,208.41 378.30,216.12 378.30,223.89 377.50,231.65 376.02,239.28 371.23,254.18 364.10,268.29 354.68,281.18 343.35,292.61 330.33,302.32 315.89,309.80 308.18,312.56 300.30,314.51 292.26,315.62 284.16,315.91 276.10,315.41 268.13,314.10 260.35,312.00 252.75,309.20 238.49,301.79 225.60,292.05 213.97,280.72 169.80,230.49 154.81,218.99 141.92,211.12 131.62,206.29 123.89,203.63 115.66,201.63 107.62,200.68 99.58,200.68 91.75,201.70 84.12,203.63 76.92,206.34 70.12,209.96 64.19,214.33 58.84,219.52 54.39,225.20 50.54,231.45 47.34,237.95 44.71,244.79 41.39,259.04 40.00,273.79 43.49,568.57 46.23,708.75 47.64,717.54 49.52,724.09 52.09,730.94 55.33,737.27 59.36,743.07 63.98,748.12 69.25,752.34 74.91,755.68 80.84,758.14 86.95,759.64 93.03,760.00 99.08,759.47 104.94,758.14 110.61,756.06 115.96,753.26 121.02,749.83 125.70,745.90 130.08,741.45 133.84,737.22 137.85,731.48 152.07,704.14 167.27,669.62 187.35,607.38 195.78,543.91 195.41,532.78 191.30,510.68 189.77,505.41 187.48,500.07 176.92,482.54 162.63,462.18 124.87,416.94 111.32,396.99 100.07,376.08 94.18,361.08 92.40,353.81 91.44,346.49 91.40,339.25 92.27,332.12 94.10,325.24 96.78,318.79 100.35,312.77 104.62,307.46 109.62,302.82 115.11,299.06 121.15,296.21 127.48,294.25 134.04,293.07 140.68,292.70 147.30,293.21 153.83,294.54 160.09,296.71 166.16,299.64 171.95,303.11 177.42,307.22 182.37,311.88 186.90,317.12 190.64,322.34 194.36,328.84 211.31,369.05 218.87,382.24 228.45,394.24 240.08,404.53 246.57,408.90 253.36,412.64 260.55,415.71 267.96,418.05 275.60,419.62 283.35,420.44 291.17,420.52 298.97,419.89 314.25,416.60 328.89,410.95 342.72,403.32 355.55,393.93 367.37,382.98 383.73,361.73 399.43,338.42 409.78,318.26 416.05,304.22 435.28,241.26"
        fill="none"
        stroke="#e94560"
        stroke-width="8.0"
        stroke-linejoin="round"
        stroke-linecap="round"/>
  <!-- Start/finish line -->
  <line x1="416.15" y1="235.42" x2="454.41" y2="247.10"
        stroke="#f5f5f5" stroke-width="9.6"
        stroke-linecap="round"/>
</svg>
