<?xml version="1.0" encoding="utf-8"?>
<svg xmlns="http://www.w3.org/2000/svg"
     width="800.0" height="699.1"
     viewBox="0 0 800.0 699.1">
  <rect width="100%" height="100%" fill="#1a1a2e"/>
  <!-- Track outline -->
  <polyline points="532.91,582.73 536.69,582.31 572.41,575.51 597.05,566.27 640.25,542.58 661.24,533.33 673.09,530.14 679.19,529.31 685.34,529.02 691.55,529.33 697.74,530.21 703.94,531.69 710.03,533.74 715.92,536.32 721.58,539.45 731.96,547.27 736.59,551.77 742.82,558.91 751.21,571.39 754.48,577.55 757.10,583.70 758.63,588.80 759.59,593.89 760.00,599.17 759.85,604.49 759.13,609.90 757.83,615.21 755.89,620.50 753.38,625.54 750.26,630.38 746.64,634.86 742.44,639.06 737.85,642.82 727.44,649.25 715.77,654.03 699.85,657.77 682.89,659.14 503.01,657.36 392.49,656.93 286.27,656.72 201.43,657.11 170.30,655.66 150.63,652.68 131.72,647.11 117.28,640.67 104.00,632.32 91.97,622.08 81.25,610.24 69.69,593.58 62.09,579.01 56.41,563.46 52.67,547.22 50.93,530.73 50.56,468.71 46.30,438.81 43.79,421.60 40.73,389.26 40.00,366.49 41.21,355.71 42.54,350.67 44.36,345.85 46.73,341.19 49.57,336.85 52.92,332.74 56.66,329.00 60.88,325.49 65.42,322.38 75.57,317.24 89.75,312.84 108.22,309.89 159.16,302.60 166.03,300.80 171.47,298.73 175.98,296.32 179.77,293.79 183.30,290.70 185.53,288.26 187.71,285.39 190.01,281.54 191.96,277.12 193.56,271.28 194.46,265.21 194.58,260.08 194.11,255.07 193.01,249.98 191.33,245.05 189.06,240.27 186.16,235.71 182.03,230.62 176.68,225.62 151.50,210.54 139.89,202.75 135.85,199.12 132.27,195.20 128.96,190.86 126.00,186.17 123.43,181.19 121.28,175.96 119.60,170.55 118.41,165.01 117.78,159.46 117.69,153.87 118.18,148.25 119.19,142.66 122.74,131.50 128.32,120.72 175.85,57.29 180.11,52.42 183.72,49.03 187.41,46.29 191.28,44.11 195.62,42.28 200.17,40.98 204.86,40.22 209.59,40.00 214.23,40.32 218.80,41.20 223.24,42.70 227.49,44.78 231.44,47.41 235.05,50.54 238.06,53.93 240.71,57.81 243.20,62.84 245.49,68.71 251.79,89.14 255.39,109.66 255.95,128.53 257.00,161.45 259.01,171.40 262.00,180.35 265.89,188.71 271.09,196.91 293.29,220.71 303.05,232.04 306.10,236.90 308.55,241.91 310.45,247.22 311.78,252.73 312.52,258.23 312.68,263.76 312.24,269.22 311.23,274.59 309.64,279.90 307.50,284.99 304.74,289.91 301.46,294.46 297.59,298.71 293.26,302.50 288.49,305.83 283.25,308.70 276.48,311.61 269.10,314.05 250.61,317.86 192.32,325.96 160.19,336.06 127.66,351.63 122.06,355.38 117.68,359.12 114.48,362.57 111.81,366.29 109.60,370.34 107.91,374.84 106.62,380.70 106.11,386.91 106.52,393.28 107.79,399.60 110.05,405.91 113.11,411.93 117.06,417.77 121.68,423.12 127.10,428.09 133.06,432.42 139.94,436.24 146.74,439.22 151.13,440.77 155.78,441.91 164.96,443.38 175.35,444.07 187.17,443.45 199.49,441.50 213.28,437.77 227.52,432.43 261.79,414.36 301.27,388.14 305.41,386.05 308.94,384.83 312.97,383.96 317.05,383.67 321.14,383.97 325.13,384.92 328.89,386.54 332.42,388.77 335.69,391.59 338.57,394.93 340.97,398.71 342.82,402.67 343.81,405.91 344.36,409.17 344.55,412.53 344.39,415.92 343.92,419.26 343.07,422.66 341.47,427.08 339.34,431.52 336.67,435.85 333.59,439.93 330.02,443.83 326.08,447.39 321.65,450.73 316.92,453.66 311.72,456.16 306.26,458.16 294.45,460.68 260.29,464.45 252.50,466.59 245.57,469.46 237.88,473.67 230.59,478.87 224.33,484.71 218.63,491.41 212.93,499.76 208.15,508.66 205.13,516.56 203.16,524.16 202.44,529.46 202.37,534.54 202.93,539.78 204.12,544.92 206.06,550.07 208.45,554.81 210.60,558.21 213.08,561.33 216.62,565.09 220.89,568.68 227.42,572.61 235.41,576.48 269.30,590.34 294.39,600.19 304.75,602.47 315.00,603.54 325.81,603.49 336.66,602.29 358.33,596.36 391.24,583.15 406.96,578.79 423.37,576.27 444.49,575.75 523.72,582.79 532.91,582.73"
        fill="none"
        stroke="#e94560"
        stroke-width="8.0"
        stroke-linejoin="round"
        stroke-linecap="round"/>
  <!-- Start/finish line -->
  <line x1="532.18" y1="562.74" x2="533.65" y2="602.71"
        stroke="#f5f5f5" stroke-width="9.6"
        stroke-linecap="round"/>
</svg>
