<?xml version="1.0" encoding="utf-8"?>
<svg xmlns="http://www.w3.org/2000/svg"
     width="510.4" height="800.0"
     viewBox="0 0 510.4 800.0">
  <rect width="100%" height="100%" fill="#1a1a2e"/>
  <!-- Track outline -->
  <polyline points="103.82,445.40 159.85,589.72 171.71,618.35 184.27,644.72 197.44,669.82 211.58,689.14 228.39,708.47 245.38,724.09 263.73,739.03 278.07,747.97 297.35,753.80 312.57,757.39 333.39,760.00 353.61,758.72 375.74,753.13 398.43,743.29 418.60,731.74 435.55,718.74 450.16,699.90 462.96,671.88 468.18,648.67 470.43,621.20 469.73,588.63 466.04,557.64 460.67,526.95 452.12,495.59 338.72,180.14 324.85,144.58 309.96,111.89 294.69,86.85 276.85,68.62 255.10,53.98 234.74,46.08 209.76,40.00 181.98,40.36 156.91,45.83 130.86,55.25 105.78,71.11 81.41,91.53 64.37,112.56 51.86,136.93 42.89,162.09 40.00,190.22 40.89,218.48 43.64,246.01 51.91,280.53 65.91,328.41 103.82,445.40"
        fill="none"
        stroke="#e94560"
        stroke-width="8.0"
        stroke-linejoin="round"
        stroke-linecap="round"/>
  <!-- Start/finish line -->
  <line x1="122.64" y1="438.63" x2="85.00" y2="452.16"
        stroke="#f5f5f5" stroke-width="9.6"
        stroke-linecap="round"/>
</svg>
