<?xml version="1.0" encoding="utf-8"?>
<svg xmlns="http://www.w3.org/2000/svg"
     width="465.9" height="800.0"
     viewBox="0 0 465.9 800.0">
  <rect width="100%" height="100%" fill="#1a1a2e"/>
  <!-- Track outline -->
  <polyline points="425.82,416.37 425.91,408.95 417.09,206.17 411.15,171.80 402.51,144.60 391.58,124.08 377.77,106.18 357.20,85.97 333.42,68.57 302.68,53.54 274.96,43.74 266.76,41.68 258.23,40.75 220.06,40.00 178.44,42.37 159.64,45.55 142.42,51.17 119.98,62.77 98.26,77.80 79.99,93.39 64.70,110.98 55.25,128.95 48.78,146.29 46.23,154.65 44.51,163.94 40.00,231.12 44.94,582.29 54.58,628.57 65.03,659.58 68.82,667.81 72.75,674.17 77.11,680.85 83.06,687.96 106.08,709.73 135.18,731.56 163.72,745.90 194.21,755.32 232.19,760.00 269.78,758.81 297.60,753.20 323.15,743.91 345.79,731.87 365.35,718.08 376.19,708.04 385.06,697.56 391.34,688.70 397.10,677.66 409.56,641.05 419.63,601.82 423.42,569.19 425.82,416.37"
        fill="none"
        stroke="#e94560"
        stroke-width="8.0"
        stroke-linejoin="round"
        stroke-linecap="round"/>
  <!-- Start/finish line -->
  <line x1="405.82" y1="416.06" x2="445.82" y2="416.68"
        stroke="#f5f5f5" stroke-width="9.6"
        stroke-linecap="round"/>
</svg>
