<?xml version="1.0" encoding="utf-8"?>
<svg xmlns="http://www.w3.org/2000/svg"
     width="800.0" height="727.3"
     viewBox="0 0 800.0 727.3">
  <rect width="100%" height="100%" fill="#1a1a2e"/>
  <!-- Track outline -->
  <polyline points="448.95,340.03 439.14,381.83 429.05,408.00 419.53,425.53 408.79,441.84 400.24,451.76 392.11,459.62 382.63,466.99 370.18,474.32 356.63,480.08 343.53,483.16 328.68,485.31 294.46,486.53 282.62,485.01 268.54,481.35 254.87,475.78 243.23,468.51 237.94,464.26 233.10,459.52 228.87,454.54 224.84,448.68 218.54,437.21 213.16,424.51 210.40,414.06 209.38,403.51 209.83,395.40 211.25,387.15 213.69,379.34 217.36,372.21 222.03,365.57 227.00,359.90 233.02,354.73 239.94,350.62 250.80,346.47 263.90,342.76 290.47,337.20 316.10,330.21 323.71,326.11 329.98,321.52 335.43,316.30 340.19,310.44 344.18,303.99 347.27,297.15 349.43,289.78 350.65,281.97 350.77,274.20 349.71,266.39 347.59,258.58 344.50,251.25 340.43,244.36 335.39,237.97 329.65,232.30 323.10,227.47 315.82,223.42 308.21,220.29 295.43,217.36 283.19,216.38 276.68,216.63 269.88,218.00 250.39,224.88 230.38,234.21 221.30,239.77 211.46,247.69 77.51,380.95 67.63,393.60 60.67,405.27 51.19,424.66 43.87,445.90 40.20,467.38 40.00,489.02 43.74,510.01 50.70,530.23 60.47,549.42 72.88,566.95 87.64,582.34 104.45,595.33 120.60,604.51 142.74,612.86 311.06,654.61 472.55,686.45 486.22,687.33 495.86,686.74 502.86,686.01 509.98,684.30 524.71,678.83 539.27,670.77 545.86,664.96 551.48,658.32 556.16,651.19 559.90,643.52 562.67,635.32 564.42,626.92 564.70,613.20 563.36,601.09 562.46,596.79 560.92,592.69 555.47,581.95 547.33,569.35 530.00,549.67 512.91,530.38 505.99,520.17 501.11,510.60 499.44,506.60 498.02,502.69 497.04,498.59 496.63,493.80 495.90,486.48 495.53,479.79 496.51,468.85 499.40,460.79 506.68,448.34 512.38,443.16 518.64,438.82 523.85,435.74 529.26,433.30 535.53,431.25 542.53,429.93 553.59,429.05 566.13,430.08 578.90,433.54 592.53,438.82 604.05,445.07 613.32,453.37 620.12,461.91 623.62,467.33 626.34,472.71 628.82,478.22 630.94,484.48 634.93,510.75 639.36,552.21 642.86,564.37 648.03,575.21 653.77,583.46 660.64,591.37 667.68,597.72 672.73,601.14 677.81,603.63 683.47,605.48 691.56,607.09 700.47,607.78 709.22,607.29 717.64,605.48 725.86,602.50 733.11,598.94 737.91,595.81 742.06,592.25 745.88,587.90 752.68,575.94 757.64,563.49 759.27,557.68 760.00,551.47 759.80,535.07 757.07,513.14 741.49,444.19 720.74,377.87 712.07,361.42 702.43,349.01 689.57,336.90 677.04,327.58 672.12,324.55 666.54,322.01 640.71,313.27 614.87,304.18 609.05,301.21 604.13,297.59 593.55,287.24 584.19,275.18 581.51,269.81 579.67,264.48 578.54,259.11 578.01,253.69 578.13,248.22 578.86,242.80 581.18,234.74 584.84,227.08 589.81,219.95 595.83,213.55 602.54,208.18 610.92,202.95 634.36,192.11 656.74,181.37 662.47,176.93 666.87,172.48 675.41,162.13 678.83,156.76 681.84,150.61 685.83,138.45 688.55,126.04 689.12,119.89 688.80,113.74 686.60,101.38 683.14,89.22 680.42,83.07 677.32,77.65 669.76,67.05 660.36,57.68 655.11,53.62 649.49,50.01 643.43,46.93 637.04,44.39 630.86,42.30 623.66,40.83 604.82,40.00 583.99,41.86 567.14,47.18 552.01,54.45 541.59,61.00 532.31,68.32 515.06,86.05 499.52,106.36 486.46,129.12 475.84,153.63 470.23,180.30 452.49,324.84 448.95,340.03"
        fill="none"
        stroke="#e94560"
        stroke-width="8.0"
        stroke-linejoin="round"
        stroke-linecap="round"/>
  <!-- Start/finish line -->
  <line x1="468.42" y1="344.59" x2="429.47" y2="335.47"
        stroke="#f5f5f5" stroke-width="9.6"
        stroke-linecap="round"/>
</svg>
