<?xml version="1.0" encoding="utf-8"?>
<svg xmlns="http://www.w3.org/2000/svg"
     width="800.0" height="605.2"
     viewBox="0 0 800.0 605.2">
  <rect width="100%" height="100%" fill="#1a1a2e"/>
  <!-- Track outline -->
  <polyline points="282.11,95.43 110.42,131.40 89.59,139.29 75.51,148.01 67.89,154.27 61.13,161.22 55.25,169.15 48.13,182.91 43.08,197.94 40.40,211.98 40.00,226.96 43.51,249.36 50.07,270.91 57.09,284.96 65.68,296.62 76.08,306.28 88.15,315.00 108.82,327.93 126.94,339.59 131.06,343.42 134.07,347.10 136.71,350.98 138.88,355.08 140.39,359.19 141.39,363.53 141.76,367.96 141.56,372.49 141.02,376.87 139.42,381.91 127.91,398.29 110.56,419.43 97.72,438.09 93.87,448.26 92.13,458.24 91.56,472.71 93.37,488.06 99.46,506.49 108.15,523.47 117.18,535.42 127.51,545.08 135.64,550.95 144.40,555.85 153.93,559.73 166.34,563.09 179.85,565.00 195.03,565.23 235.16,558.79 282.21,546.20 364.24,520.91 434.79,493.94 449.24,485.21 458.90,477.33 462.75,473.60 465.63,469.72 467.77,465.06 469.37,460.06 470.48,455.31 471.11,450.50 471.21,445.74 470.84,441.03 469.94,436.27 468.57,431.60 466.83,426.94 464.29,422.32 460.01,417.42 454.52,412.52 448.81,408.37 443.39,405.24 437.77,402.86 431.55,401.14 416.67,399.60 400.89,400.39 388.01,402.72 373.10,407.71 259.57,464.50 244.05,470.98 231.41,474.90 221.05,476.53 211.98,476.81 207.27,476.25 203.02,475.14 198.67,473.64 194.49,471.68 190.58,469.12 186.94,466.08 183.83,462.91 181.08,459.41 178.81,455.73 176.90,451.76 175.47,447.56 174.43,443.08 173.79,438.28 173.66,433.33 174.16,428.48 175.20,423.72 176.64,419.15 178.51,414.81 180.88,410.56 183.63,406.55 190.51,398.99 194.43,395.44 199.21,392.08 210.68,386.25 226.06,380.89 309.66,369.59 388.41,358.63 398.91,354.99 407.27,350.37 415.23,344.12 421.89,337.35 425.03,333.43 427.64,329.00 431.38,319.48 434.09,309.59 434.63,304.65 434.56,300.03 434.09,295.27 433.16,290.55 431.75,285.80 429.88,281.22 427.40,276.84 424.56,272.82 421.42,269.19 418.04,265.97 414.30,263.03 410.32,260.55 406.10,258.41 401.35,256.68 392.69,254.58 382.73,253.79 370.62,255.19 356.14,259.57 312.94,283.04 267.13,308.66 243.28,317.85 223.25,323.36 212.65,325.13 203.15,325.46 194.16,324.66 185.50,322.75 177.20,319.53 169.71,315.56 165.10,312.44 161.02,309.03 157.34,305.49 154.03,301.66 151.26,297.65 148.85,293.35 146.91,288.88 145.37,284.16 144.27,279.17 143.66,274.08 143.63,268.95 144.10,263.87 145.04,258.97 146.41,254.21 148.28,249.54 150.55,245.11 153.23,240.82 156.57,236.57 163.46,229.76 172.12,223.18 184.46,216.74 201.11,210.44 361.89,166.40 389.25,162.38 413.13,161.54 439.04,163.22 464.42,168.03 486.39,176.06 509.77,187.39 556.28,214.50 602.80,239.88 626.34,247.77 647.44,251.22 665.23,251.04 682.45,247.68 701.98,239.65 718.13,230.79 722.25,228.22 725.92,225.14 735.56,215.39 745.15,202.84 751.54,190.52 756.22,176.66 759.46,158.00 760.00,138.22 756.86,118.25 750.94,99.77 743.71,86.19 734.82,74.67 723.95,64.31 711.34,55.77 693.69,47.65 673.02,42.24 641.55,40.00 598.92,42.85 346.04,82.04 282.11,95.43"
        fill="none"
        stroke="#e94560"
        stroke-width="8.0"
        stroke-linejoin="round"
        stroke-linecap="round"/>
  <!-- Start/finish line -->
  <line x1="286.21" y1="115.01" x2="278.01" y2="75.86"
        stroke="#f5f5f5" stroke-width="9.6"
        stroke-linecap="round"/>
</svg>
