<?xml version="1.0" encoding="utf-8"?>
<svg xmlns="http://www.w3.org/2000/svg"
     width="800.0" height="652.4"
     viewBox="0 0 800.0 652.4">
  <rect width="100%" height="100%" fill="#1a1a2e"/>
  <!-- Track outline -->
  <polyline points="486.79,273.31 543.24,380.84 550.56,392.19 558.06,401.45 574.75,417.72 590.29,430.56 593.35,432.52 596.55,433.95 609.07,439.06 624.06,443.44 636.64,444.73 650.24,444.04 676.54,437.60 701.11,431.46 709.31,431.42 715.98,432.25 720.59,433.05 724.88,434.21 729.20,435.77 733.58,437.93 740.19,442.18 746.07,446.76 748.22,448.88 750.04,451.44 754.77,460.73 758.71,471.22 759.74,476.99 760.00,482.50 759.29,494.68 755.71,512.00 749.89,530.06 742.22,548.88 733.08,566.33 724.50,578.71 715.04,589.13 705.93,596.54 695.79,602.44 682.48,607.85 668.17,611.37 654.24,612.40 639.04,611.07 610.86,603.77 563.05,586.68 546.42,578.71 534.37,570.45 529.26,566.20 524.38,561.22 518.15,553.16 512.12,542.51 506.10,523.59 500.40,500.72 494.11,482.83 488.17,474.90 482.27,469.29 474.77,463.05 461.46,454.95 444.68,447.95 398.43,437.53 354.17,427.24 348.03,424.59 343.33,421.63 336.48,416.32 330.16,410.15 325.67,404.51 322.14,398.43 319.67,391.83 318.23,384.93 317.82,378.02 318.41,371.09 319.91,364.35 322.70,357.05 333.10,340.59 343.33,323.53 345.47,317.09 346.65,311.08 346.80,305.24 346.21,300.99 345.06,296.78 343.42,292.80 341.33,289.28 338.74,286.32 335.63,283.70 332.25,281.51 328.87,279.79 324.67,278.49 320.32,277.89 316.38,277.63 312.97,277.63 309.45,278.16 300.75,280.45 291.20,284.57 281.94,291.17 272.15,301.26 213.79,391.10 146.53,503.61 128.39,529.76 116.29,544.76 103.45,557.51 97.01,561.75 90.54,564.94 84.37,567.00 79.85,567.83 75.53,567.99 71.21,567.53 66.36,566.23 61.51,564.24 57.22,561.92 54.34,560.00 51.87,557.80 49.52,555.08 46.20,549.81 43.14,543.40 41.00,536.96 40.00,529.76 40.35,520.17 72.85,296.65 95.92,165.15 118.96,67.11 122.49,59.88 125.90,55.13 129.75,51.05 133.95,47.27 138.50,44.05 143.26,41.69 148.11,40.46 153.11,40.00 157.25,40.03 160.31,40.50 161.92,41.10 166.69,43.58 172.33,47.24 176.97,51.08 179.20,53.77 180.91,56.53 182.29,59.58 184.05,65.46 185.02,72.03 184.23,90.11 180.67,125.06 181.20,134.82 183.14,143.45 185.46,148.76 188.55,153.77 192.16,158.12 196.28,161.70 200.89,164.69 205.77,166.85 209.53,167.91 213.50,168.54 217.41,168.67 221.11,168.27 225.43,166.71 229.48,164.32 232.92,161.97 235.33,160.21 237.74,157.85 249.11,143.45 261.96,127.68 268.36,122.11 274.59,117.66 288.05,109.60 302.07,103.29 316.44,99.01 329.90,97.25 343.33,97.52 357.29,99.71 370.78,104.05 383.35,110.79 395.31,119.62 408.68,131.83 421.03,145.97 441.10,178.93 486.79,273.31"
        fill="none"
        stroke="#e94560"
        stroke-width="8.0"
        stroke-linejoin="round"
        stroke-linecap="round"/>
  <!-- Start/finish line -->
  <line x1="504.64" y1="264.29" x2="468.95" y2="282.34"
        stroke="#f5f5f5" stroke-width="9.6"
        stroke-linecap="round"/>
</svg>
