<?xml version="1.0" encoding="utf-8"?>
<svg xmlns="http://www.w3.org/2000/svg"
     width="403.5" height="800.0"
     viewBox="0 0 403.5 800.0">
  <rect width="100%" height="100%" fill="#1a1a2e"/>
  <!-- Track outline -->
  <polyline points="284.39,254.14 281.02,248.17 241.45,182.91 219.91,152.52 213.28,146.10 206.78,140.91 192.70,132.04 178.43,126.26 160.49,121.42 152.81,118.20 145.93,113.84 142.68,110.78 139.66,107.23 137.08,103.39 135.29,99.45 134.34,95.58 133.95,91.52 134.18,87.45 135.04,83.71 137.58,79.39 141.25,75.42 144.72,71.36 147.84,67.16 150.81,62.90 152.56,58.42 152.81,55.94 152.78,53.26 152.43,50.48 151.79,47.87 150.81,45.55 149.50,43.71 147.24,42.10 144.28,40.97 140.90,40.29 137.43,40.00 134.14,40.00 128.54,40.94 122.90,42.97 117.55,45.48 110.66,49.77 103.97,55.26 93.81,64.74 85.21,75.36 82.72,80.58 81.19,85.84 80.17,91.20 79.41,99.55 79.82,108.04 81.61,117.23 84.28,126.20 90.66,141.49 125.77,206.01 157.85,260.17 168.87,274.17 194.93,297.24 219.08,312.82 256.13,334.30 262.60,340.14 267.25,345.56 272.48,352.95 276.62,360.98 278.37,366.37 279.52,371.95 279.71,377.37 279.26,381.21 278.40,385.05 277.00,388.63 274.99,391.60 273.05,393.37 270.66,394.95 267.98,396.34 265.15,397.37 262.38,397.98 259.80,398.08 256.16,397.05 252.56,394.89 249.09,392.18 245.81,389.47 240.20,383.82 234.69,378.08 228.42,372.76 221.57,368.50 216.47,366.66 211.08,365.53 205.70,365.34 200.16,366.43 194.61,368.53 189.42,371.11 182.86,375.43 176.93,380.60 171.29,386.76 166.07,393.56 155.97,409.76 98.21,525.22 48.16,615.96 42.90,631.25 41.24,638.70 40.25,646.41 40.00,656.22 40.64,666.00 41.75,673.09 43.85,680.77 51.47,701.58 61.12,722.13 66.89,730.42 73.13,737.13 80.30,743.55 88.17,749.10 96.68,753.68 105.69,757.13 115.41,759.23 125.00,760.00 132.58,759.45 139.85,758.00 146.41,756.26 154.47,752.77 279.65,667.45 305.83,646.29 311.22,640.48 315.14,634.51 317.33,629.54 318.93,624.19 319.44,618.90 318.96,614.96 317.81,611.03 316.19,607.19 314.18,603.67 310.77,599.22 306.57,595.25 301.85,592.12 296.40,590.02 290.45,588.83 284.55,588.28 276.55,588.67 268.65,590.15 260.82,592.28 252.06,595.61 206.94,619.15 194.71,628.61 187.76,635.19 181.39,642.45 176.45,649.87 172.47,657.74 169.60,666.09 167.50,674.64 166.10,683.13 164.51,691.38 162.91,696.35 160.94,701.13 158.23,705.51 154.09,709.93 149.09,713.93 143.86,717.06 139.11,719.06 134.21,720.42 129.21,721.03 125.10,721.10 120.83,720.77 116.65,719.93 112.83,718.45 108.18,715.03 104.04,710.45 100.47,705.58 96.45,698.35 93.24,690.64 90.11,682.38 87.76,673.80 86.58,664.67 86.36,655.35 88.62,636.12 93.71,617.38 97.51,608.38 102.28,599.93 108.18,592.35 115.06,585.90 120.00,582.54 125.32,579.80 130.80,577.70 138.89,575.86 147.88,575.48 164.63,578.86 181.10,582.35 188.97,582.25 196.01,580.86 201.24,579.09 206.37,576.70 210.86,573.60 214.40,569.89 217.36,565.51 219.56,560.80 221.22,553.06 221.66,543.80 220.23,519.83 219.91,496.08 221.37,489.67 223.48,484.31 226.44,479.73 229.31,476.70 232.68,474.05 236.41,471.89 240.30,470.37 246.03,469.57 252.15,469.92 258.11,470.73 265.75,472.73 273.31,475.02 290.00,477.86 298.89,478.25 307.84,477.76 316.67,476.31 325.27,473.83 333.65,470.08 341.39,465.24 348.14,459.31 353.88,452.47 358.27,444.92 361.40,436.76 363.12,427.89 363.50,418.73 362.80,409.89 360.12,399.37 315.33,308.79 284.39,254.14"
        fill="none"
        stroke="#e94560"
        stroke-width="8.0"
        stroke-linejoin="round"
        stroke-linecap="round"/>
  <!-- Start/finish line -->
  <line x1="266.99" y1="263.99" x2="301.80" y2="244.29"
        stroke="#f5f5f5" stroke-width="9.6"
        stroke-linecap="round"/>
</svg>
