<?xml version="1.0" encoding="utf-8"?>
<svg xmlns="http://www.w3.org/2000/svg"
     width="800.0" height="648.4"
     viewBox="0 0 800.0 648.4">
  <rect width="100%" height="100%" fill="#1a1a2e"/>
  <!-- Track outline -->
  <polyline points="171.90,351.26 157.77,339.72 116.92,303.06 98.29,283.83 81.80,263.38 67.55,241.86 56.36,219.95 49.08,196.92 44.02,174.52 40.68,146.58 40.00,135.04 40.28,122.82 41.04,108.75 43.54,94.14 45.89,81.58 49.64,70.48 55.53,61.28 75.47,47.16 87.10,42.82 99.40,40.39 112.30,40.00 125.24,41.17 137.94,43.07 150.01,46.43 157.17,49.49 163.94,53.29 171.82,58.79 179.55,65.27 185.36,70.72 189.86,76.17 192.73,81.97 193.05,89.95 190.06,98.96 186.12,105.34 179.47,114.00 173.82,121.02 164.98,128.08 157.81,135.23 148.02,143.02 139.81,152.91 133.21,163.96 128.51,176.23 125.72,189.18 125.04,202.76 126.32,216.00 129.18,226.91 133.44,237.23 139.30,245.65 150.52,254.22 169.95,270.78 272.08,354.13 476.92,524.83 490.38,532.28 501.45,536.66 526.13,543.82 545.40,544.74 562.24,543.82 573.79,542.89 585.06,541.28 596.92,538.51 603.93,534.91 609.94,530.23 615.12,524.78 619.54,518.21 623.04,510.90 625.39,503.36 626.38,497.71 626.74,491.82 626.42,486.02 625.19,480.52 622.80,475.02 619.38,469.71 615.32,464.80 610.94,460.51 605.36,456.37 599.03,453.16 590.67,449.85 531.90,435.10 472.58,420.98 450.76,411.63 411.27,389.09 351.23,343.91 328.45,320.88 299.07,281.68 263.44,235.48 256.23,225.21 251.09,214.40 249.58,206.07 248.94,197.45 249.58,189.18 250.98,183.34 253.05,177.54 255.83,172.19 259.38,167.51 264.03,163.42 269.65,159.87 275.70,157.14 281.67,155.44 287.37,154.85 293.22,155.15 299.03,156.22 304.61,157.92 311.81,161.38 318.62,166.20 325.51,172.28 340.92,192.00 355.61,212.35 363.89,221.94 372.45,229.34 379.50,233.00 387.18,235.63 394.94,237.13 405.97,236.36 417.24,234.70 429.90,234.02 442.28,235.04 449.41,237.48 456.14,240.93 462.43,245.07 470.55,252.42 479.23,261.82 527.05,312.75 546.28,328.03 670.06,395.37 709.12,418.35 727.11,432.61 735.12,441.13 742.32,450.38 748.85,460.41 754.15,471.03 757.73,482.03 759.72,493.42 760.00,505.21 758.49,516.94 755.06,528.43 749.89,539.24 743.24,548.54 735.28,556.81 725.96,564.22 715.85,570.79 694.23,582.28 669.46,590.41 602.50,603.94 554.32,608.37 529.52,607.60 503.92,603.26 482.57,596.11 461.87,585.69 442.72,572.98 171.90,351.26"
        fill="none"
        stroke="#e94560"
        stroke-width="8.0"
        stroke-linejoin="round"
        stroke-linecap="round"/>
  <!-- Start/finish line -->
  <line x1="159.24" y1="366.73" x2="184.57" y2="335.78"
        stroke="#f5f5f5" stroke-width="9.6"
        stroke-linecap="round"/>
</svg>
