<?xml version="1.0" encoding="utf-8"?>
<svg xmlns="http://www.w3.org/2000/svg"
     width="489.4" height="800.0"
     viewBox="0 0 489.4 800.0">
  <rect width="100%" height="100%" fill="#1a1a2e"/>
  <!-- Track outline -->
  <polyline points="103.32,226.33 97.97,219.49 87.81,207.41 77.13,194.28 67.06,180.95 58.00,168.15 49.58,154.12 42.95,139.67 40.00,123.33 40.45,106.32 43.95,90.28 50.80,75.56 60.86,62.82 73.78,52.67 88.86,45.23 105.22,40.86 122.20,40.00 139.48,42.55 156.81,48.67 173.69,56.67 189.59,66.23 202.59,75.00 216.75,84.33 230.75,93.65 244.58,102.42 257.98,111.05 271.66,119.69 286.69,128.85 302.25,137.45 317.67,145.13 332.90,152.07 347.81,158.13 362.29,163.91 376.87,170.66 390.97,178.40 404.02,187.27 415.63,197.79 425.30,209.89 433.16,223.46 439.01,238.08 443.38,253.39 446.61,268.97 448.51,285.35 449.21,303.11 449.41,320.61 449.11,337.71 447.46,355.51 444.41,374.00 441.63,392.39 438.48,410.39 435.11,428.02 431.83,445.12 428.55,462.62 424.65,481.41 421.60,496.46 418.60,511.41 414.80,530.86 411.15,549.91 407.70,568.51 404.15,586.63 400.82,604.10 397.75,621.00 394.74,637.44 391.89,653.45 389.07,669.07 385.82,684.25 381.57,698.97 375.76,713.06 365.91,729.07 353.28,742.37 337.43,751.73 319.30,756.86 304.22,759.04 288.72,759.93 272.94,760.00 257.31,759.50 242.13,757.72 223.95,752.66 210.22,746.14 195.22,734.79 183.14,720.27 176.56,706.61 172.81,691.63 170.58,675.15 169.01,657.12 167.83,637.14 166.78,617.59 165.78,598.31 165.73,579.42 166.08,560.30 169.28,541.21 172.91,526.40 177.99,507.14 183.74,488.69 190.22,471.05 197.14,454.28 204.47,438.80 212.17,424.88 223.02,409.59 235.85,397.39 250.51,388.52 266.11,381.97 281.69,375.09 296.72,366.82 311.77,357.20 326.68,346.87 340.46,335.79 351.13,322.93 358.31,308.77 359.36,293.25 354.33,278.14 343.56,265.04 327.48,254.95 312.85,247.54 296.29,240.69 279.09,233.58 262.56,225.81 247.36,216.81 233.98,206.19 223.15,194.15 214.20,181.12 206.44,167.55 199.49,154.06 191.02,138.15 181.59,123.62 170.56,111.29 158.03,102.16 141.03,98.05 124.57,101.39 111.47,109.66 103.62,123.09 104.02,140.46 110.37,155.38 120.17,170.43 130.70,182.07 144.05,192.83 158.96,204.20 174.34,216.11 189.14,227.86 202.72,239.80 214.90,251.41 225.75,263.09 234.00,275.85 238.93,292.53 237.23,308.90 229.60,322.93 217.35,333.11 202.17,338.21 186.09,337.28 170.71,330.04 157.56,317.00 149.13,303.28 140.85,287.20 131.50,269.44 123.65,255.84 115.22,242.84 107.09,231.16 103.32,226.33"
        fill="none"
        stroke="#e94560"
        stroke-width="8.0"
        stroke-linejoin="round"
        stroke-linecap="round"/>
  <!-- Start/finish line -->
  <line x1="87.56" y1="238.65" x2="119.07" y2="214.02"
        stroke="#f5f5f5" stroke-width="9.6"
        stroke-linecap="round"/>
</svg>
