<?xml version="1.0" encoding="utf-8"?>
<svg xmlns="http://www.w3.org/2000/svg"
     width="710.0" height="800.0"
     viewBox="0 0 710.0 800.0">
  <rect width="100%" height="100%" fill="#1a1a2e"/>
  <!-- Track outline -->
  <polyline points="147.22,285.65 74.40,392.71 56.31,432.18 46.15,468.65 40.34,507.59 40.00,546.53 45.46,583.97 56.22,619.48 72.61,652.62 93.44,682.12 117.86,707.44 145.00,728.14 174.11,744.02 204.76,754.85 236.61,760.00 268.62,759.68 298.84,754.64 329.91,743.37 377.38,718.16 420.75,686.41 445.42,665.71 470.86,639.86 485.63,621.62 560.41,513.38 638.44,384.55 656.37,339.39 666.01,299.17 670.02,265.16 669.17,232.23 662.60,198.87 651.24,167.01 634.77,136.65 614.36,109.62 590.12,86.56 563.14,67.68 533.77,52.44 502.79,42.68 480.68,40.00 457.97,40.21 434.41,43.43 390.78,55.45 346.39,76.47 300.21,109.73 252.14,156.39 155.85,272.99 147.22,285.65"
        fill="none"
        stroke="#e94560"
        stroke-width="8.0"
        stroke-linejoin="round"
        stroke-linecap="round"/>
  <!-- Start/finish line -->
  <line x1="163.76" y1="296.90" x2="130.69" y2="274.40"
        stroke="#f5f5f5" stroke-width="9.6"
        stroke-linecap="round"/>
</svg>
