<?xml version="1.0" encoding="utf-8"?>
<svg xmlns="http://www.w3.org/2000/svg"
     width="700.8" height="800.0"
     viewBox="0 0 700.8 800.0">
  <rect width="100%" height="100%" fill="#1a1a2e"/>
  <!-- Track outline -->
  <polyline points="181.31,299.34 89.89,422.77 70.04,453.89 55.31,484.25 44.74,520.82 40.00,557.92 42.27,588.59 49.08,617.56 59.33,644.55 72.83,669.46 88.53,691.85 107.73,711.70 138.23,732.17 170.47,747.73 192.08,755.09 213.42,758.93 229.90,760.00 246.96,759.31 264.48,756.17 297.64,743.36 331.11,724.12 363.10,700.59 398.20,666.86 514.85,522.89 618.14,379.22 633.45,353.70 643.51,330.85 654.41,296.05 660.83,259.17 660.37,224.14 655.31,191.10 648.37,167.03 637.99,144.34 618.14,114.59 594.59,87.68 574.15,69.90 551.51,56.33 530.16,48.28 506.81,42.61 484.55,40.00 467.75,40.38 451.85,42.91 435.83,47.51 407.73,60.39 381.59,76.64 366.28,88.30 349.67,104.09 181.31,299.34"
        fill="none"
        stroke="#e94560"
        stroke-width="8.0"
        stroke-linejoin="round"
        stroke-linecap="round"/>
  <!-- Start/finish line -->
  <line x1="196.81" y1="311.98" x2="165.80" y2="286.71"
        stroke="#f5f5f5" stroke-width="9.6"
        stroke-linecap="round"/>
</svg>
