<?xml version="1.0" encoding="utf-8"?>
<svg xmlns="http://www.w3.org/2000/svg"
     width="598.5" height="800.0"
     viewBox="0 0 598.5 800.0">
  <rect width="100%" height="100%" fill="#1a1a2e"/>
  <!-- Track outline -->
  <polyline points="154.95,402.62 91.74,294.43 83.97,280.74 48.05,223.59 43.36,211.07 40.90,199.99 40.00,191.42 40.22,182.63 42.15,168.84 45.38,155.47 48.15,148.09 51.66,141.20 58.22,130.80 65.12,121.47 71.81,114.68 113.69,81.44 140.15,61.71 164.41,46.04 173.83,42.06 182.32,40.24 188.04,40.00 193.76,40.48 198.89,41.51 202.34,42.78 205.42,44.36 208.28,46.28 212.35,49.78 215.84,53.72 218.11,57.19 219.97,60.75 222.99,68.61 226.66,86.17 231.66,101.44 240.37,116.63 270.50,160.99 281.10,180.65 288.72,198.65 291.21,208.53 291.96,217.14 291.77,220.92 291.15,224.38 290.00,227.95 287.63,233.13 284.43,238.52 281.01,243.11 276.81,247.19 272.27,250.28 267.45,252.55 262.42,253.99 257.25,254.47 252.12,254.05 248.73,253.33 245.41,252.20 242.11,250.56 237.82,247.61 233.56,243.83 229.95,239.54 227.25,234.81 225.26,229.53 223.74,223.49 223.08,212.41 223.36,199.82 222.30,188.91 220.16,183.01 217.36,177.97 213.85,173.68 209.65,170.08 204.83,167.20 199.70,165.17 195.59,164.25 191.24,163.84 186.86,163.97 182.69,164.66 177.25,166.61 171.99,169.57 167.39,173.27 163.41,177.83 160.09,183.11 157.60,188.74 156.04,194.68 155.36,200.88 155.42,206.96 156.79,214.16 159.56,222.84 193.23,321.98 195.75,326.50 198.08,329.73 204.02,336.83 207.26,339.88 211.20,342.73 221.25,347.64 231.32,351.31 234.56,351.96 237.54,352.16 246.74,351.89 251.28,351.24 256.42,349.87 271.03,343.11 285.58,336.21 294.88,333.78 303.77,332.88 308.31,333.02 313.19,333.61 321.40,335.42 329.92,338.13 337.20,341.53 343.98,345.71 350.32,350.89 356.04,356.83 361.14,363.76 365.56,371.34 369.38,380.02 372.24,388.42 374.45,398.30 377.62,435.08 381.07,451.54 386.89,467.94 394.72,483.99 405.08,499.19 416.52,513.67 429.58,526.25 444.41,536.85 519.63,579.08 530.48,588.07 538.56,596.75 544.75,604.91 549.76,613.45 553.71,622.72 556.50,631.53 558.28,641.03 558.49,661.10 556.22,676.68 551.44,691.98 543.91,706.45 534.09,719.83 521.93,731.67 507.78,741.82 491.92,750.05 474.54,755.99 456.19,759.31 437.85,760.00 420.53,757.98 404.49,753.76 389.87,748.20 372.21,739.45 357.16,729.23 347.89,720.62 339.69,711.29 335.18,704.67 331.85,697.67 329.27,687.86 328.24,678.15 328.77,672.32 330.17,667.00 331.41,663.74 333.00,660.59 335.11,657.60 338.60,654.04 342.86,650.67 347.46,647.96 352.65,646.04 358.22,644.77 363.22,644.12 367.42,644.16 371.31,644.74 375.32,645.53 379.98,646.97 394.47,653.83 410.86,661.07 423.11,664.26 434.37,665.32 439.68,664.74 444.57,663.44 449.04,661.51 452.93,659.15 456.41,656.23 459.43,652.70 462.41,647.62 464.78,641.72 466.08,635.85 466.18,630.68 465.40,625.50 463.91,620.56 461.51,615.58 458.40,610.85 455.26,606.90 452.25,603.92 448.73,601.38 440.96,597.13 432.72,593.56 423.92,591.26 408.47,589.48 354.70,590.85 339.41,588.41 323.67,584.09 307.81,577.88 291.89,570.06 276.13,560.73 260.71,549.75 245.94,537.09 232.13,522.69 219.26,506.56 172.59,432.81 154.95,402.62"
        fill="none"
        stroke="#e94560"
        stroke-width="8.0"
        stroke-linejoin="round"
        stroke-linecap="round"/>
  <!-- Start/finish line -->
  <line x1="137.69" y1="412.71" x2="172.22" y2="392.54"
        stroke="#f5f5f5" stroke-width="9.6"
        stroke-linecap="round"/>
</svg>
