<?xml version="1.0" encoding="utf-8"?>
<svg xmlns="http://www.w3.org/2000/svg"
     width="533.5" height="800.0"
     viewBox="0 0 533.5 800.0">
  <rect width="100%" height="100%" fill="#1a1a2e"/>
  <!-- Track outline -->
  <polyline points="445.19,482.61 492.73,228.57 493.52,215.61 492.86,205.02 489.78,181.56 484.96,158.30 476.34,135.09 464.71,112.75 449.56,92.64 431.12,74.87 410.61,60.20 388.45,49.76 365.89,43.01 343.29,40.00 320.75,40.05 298.47,43.11 276.76,48.98 251.47,60.25 228.30,75.50 208.68,94.10 200.98,102.94 192.71,115.42 95.43,341.92 44.53,475.03 41.08,487.17 40.00,497.18 40.44,503.00 41.49,508.93 43.30,514.71 45.90,519.90 49.67,524.86 54.42,529.52 59.78,533.45 65.32,536.46 72.68,538.55 80.57,539.18 89.41,539.38 113.69,538.02 137.78,537.09 146.37,537.87 153.97,539.23 160.63,542.05 164.24,544.72 167.70,548.02 170.74,551.76 173.09,555.79 174.58,559.92 175.12,564.34 174.83,569.00 173.72,573.91 171.91,579.00 169.44,584.30 155.46,601.59 135.85,620.43 120.35,637.09 115.15,644.71 111.38,651.61 108.84,658.75 107.48,666.42 107.29,674.38 108.37,682.06 111.03,689.68 115.02,697.01 119.78,703.62 127.83,711.29 137.05,717.65 147.16,723.14 158.00,727.80 168.49,731.83 182.66,735.52 424.78,758.74 449.59,760.00 457.74,759.32 465.79,758.01 473.02,755.29 477.01,752.72 480.91,749.51 484.43,745.87 487.28,741.93 489.21,737.81 490.23,732.22 489.94,726.15 488.64,719.79 486.58,713.28 474.79,694.00 461.32,675.26 455.52,664.77 435.71,631.45 429.97,603.38 429.47,574.29 433.21,546.56 445.19,482.61"
        fill="none"
        stroke="#e94560"
        stroke-width="8.0"
        stroke-linejoin="round"
        stroke-linecap="round"/>
  <!-- Start/finish line -->
  <line x1="425.53" y1="478.93" x2="464.85" y2="486.29"
        stroke="#f5f5f5" stroke-width="9.6"
        stroke-linecap="round"/>
</svg>
