<?xml version="1.0" encoding="utf-8"?>
<svg xmlns="http://www.w3.org/2000/svg"
     width="646.9" height="800.0"
     viewBox="0 0 646.9 800.0">
  <rect width="100%" height="100%" fill="#1a1a2e"/>
  <!-- Track outline -->
  <polyline points="205.66,58.33 131.93,63.20 125.84,63.75 118.26,64.98 110.16,67.04 103.53,69.79 98.53,73.03 94.46,77.41 91.07,82.71 87.27,90.70 82.96,109.61 49.12,284.75 42.15,332.58 40.00,358.13 54.80,728.15 56.82,741.67 59.58,748.46 64.65,754.93 70.18,757.68 78.47,760.00 90.37,760.00 239.64,756.22 445.13,746.74 453.20,745.99 463.73,743.90 472.68,741.04 479.46,737.77 485.99,731.73 490.91,724.59 494.82,716.03 496.77,706.38 497.79,692.51 497.13,506.12 499.18,481.91 533.43,286.69 543.79,249.83 554.76,227.20 567.05,208.46 581.46,185.12 598.11,155.81 605.18,133.21 606.91,117.40 606.54,102.91 604.13,89.96 600.38,77.67 594.11,64.49 585.94,55.01 574.41,48.02 564.27,44.47 551.74,41.92 539.58,40.72 524.73,40.00 205.66,58.33"
        fill="none"
        stroke="#e94560"
        stroke-width="8.0"
        stroke-linejoin="round"
        stroke-linecap="round"/>
  <!-- Start/finish line -->
  <line x1="206.83" y1="78.30" x2="204.48" y2="38.37"
        stroke="#f5f5f5" stroke-width="9.6"
        stroke-linecap="round"/>
</svg>
