<?xml version="1.0" encoding="utf-8"?>
<svg xmlns="http://www.w3.org/2000/svg"
     width="393.5" height="800.0"
     viewBox="0 0 393.5 800.0">
  <rect width="100%" height="100%" fill="#1a1a2e"/>
  <!-- Track outline -->
  <polyline points="131.60,50.14 90.84,52.83 87.47,53.13 83.27,53.81 78.80,54.95 75.13,56.47 72.37,58.26 70.12,60.69 68.24,63.62 66.14,68.04 63.75,78.49 45.04,175.34 41.19,201.79 40.00,215.92 40.05,232.93 61.45,726.70 62.42,746.76 62.77,750.97 62.98,753.70 63.94,756.04 65.90,757.70 68.27,758.88 71.52,759.67 74.27,759.90 76.86,760.00 79.70,759.60 82.05,758.65 84.49,756.94 86.54,754.04 87.76,750.46 125.15,624.68 126.35,619.44 127.26,614.64 127.77,608.87 127.42,602.54 121.59,474.58 121.84,469.66 123.19,464.16 125.55,459.06 138.98,443.44 142.05,441.06 145.16,439.18 148.52,438.25 161.02,437.39 264.03,430.80 268.49,430.39 274.31,429.23 279.26,427.65 283.01,425.84 286.62,422.50 289.34,418.56 291.50,413.82 292.58,408.48 293.14,400.82 292.78,297.75 292.50,292.28 291.36,286.72 288.92,279.88 286.59,274.41 283.95,269.49 280.15,264.81 275.77,261.57 270.58,258.91 264.25,257.20 258.01,256.32 251.49,256.18 245.39,257.18 239.52,258.70 232.88,261.46 226.79,264.70 219.90,270.58 213.04,278.33 142.04,371.77 138.76,375.03 135.27,377.37 131.45,379.04 128.25,379.84 124.19,380.32 119.96,380.26 115.24,379.27 110.73,377.59 106.60,375.20 102.79,372.10 100.19,368.63 97.95,365.07 95.54,360.44 93.73,355.43 92.37,350.51 90.74,342.26 74.46,234.51 73.92,225.37 73.85,213.46 74.47,201.74 76.24,190.35 79.12,178.90 82.95,168.02 86.50,159.19 91.60,149.80 97.28,142.15 103.66,134.90 112.55,125.63 122.84,116.71 135.34,107.38 153.59,97.12 168.78,90.50 181.45,86.09 195.56,82.70 206.69,81.56 215.12,82.91 224.39,86.41 231.95,90.97 238.01,96.31 242.58,102.92 246.82,110.87 250.18,118.91 252.40,127.04 253.42,133.93 254.02,141.30 253.66,147.84 252.43,154.90 250.14,159.81 245.10,166.96 238.22,173.58 228.37,180.56 219.65,184.55 211.94,186.84 204.13,187.80 194.07,187.47 184.87,185.58 174.09,182.51 162.96,179.14 157.61,177.93 153.48,177.77 149.59,178.42 145.92,179.87 141.70,182.51 137.53,185.98 134.39,189.86 131.76,193.85 129.85,198.62 128.46,203.83 128.04,208.30 127.90,214.57 128.48,219.78 129.93,225.42 132.94,232.07 136.46,236.89 140.51,240.34 146.65,242.97 152.23,244.81 158.08,245.98 163.70,246.35 171.41,246.22 184.33,245.16 196.66,243.16 206.45,240.23 216.49,236.29 227.92,230.41 241.26,222.43 256.62,211.13 279.02,192.38 297.46,174.43 315.13,154.00 339.41,120.24 348.62,104.04 352.53,91.54 353.48,82.80 353.28,74.78 351.95,67.62 349.87,60.83 346.41,53.54 341.89,48.30 335.51,44.44 329.91,42.47 322.98,41.06 316.25,40.40 308.04,40.00 131.60,50.14"
        fill="none"
        stroke="#e94560"
        stroke-width="8.0"
        stroke-linejoin="round"
        stroke-linecap="round"/>
  <!-- Start/finish line -->
  <line x1="132.78" y1="70.10" x2="130.42" y2="30.17"
        stroke="#f5f5f5" stroke-width="9.6"
        stroke-linecap="round"/>
</svg>
