<?xml version="1.0" encoding="utf-8"?>
<svg xmlns="http://www.w3.org/2000/svg"
     width="612.9" height="800.0"
     viewBox="0 0 612.9 800.0">
  <rect width="100%" height="100%" fill="#1a1a2e"/>
  <!-- Track outline -->
  <polyline points="222.80,57.57 154.23,68.83 128.98,75.24 108.73,83.44 93.32,91.63 78.48,101.41 65.82,113.25 55.89,127.17 48.31,143.17 42.90,161.53 40.00,211.68 43.87,261.93 47.91,313.76 65.41,361.25 71.30,366.88 78.40,372.21 86.23,376.85 94.29,380.40 102.04,382.38 109.06,382.38 114.70,380.60 120.51,377.34 126.16,372.80 131.40,367.37 136.16,361.15 140.03,354.44 142.94,347.53 144.07,326.20 139.07,299.84 132.77,272.89 129.71,249.79 130.11,233.01 131.97,218.20 136.65,204.67 140.60,197.76 145.52,190.56 151.17,183.84 157.38,177.92 163.75,173.57 170.21,171.30 176.18,171.21 182.95,172.49 190.05,174.96 197.07,178.41 203.52,182.66 209.01,187.30 213.12,192.13 216.83,202.20 217.56,214.45 216.67,227.58 215.62,240.41 212.64,266.87 207.23,293.33 191.10,344.86 123.90,495.02 92.28,594.34 88.24,619.51 87.52,642.62 89.86,665.92 95.83,688.62 102.28,704.32 110.67,719.52 121.32,732.55 130.84,740.75 141.49,747.66 153.75,753.29 168.19,757.43 214.25,760.00 269.92,755.66 316.06,749.44 340.59,744.80 361.24,737.49 377.37,729.00 393.02,718.44 406.17,706.10 415.69,692.47 422.87,677.37 427.47,661.57 428.44,637.78 424.89,611.52 400.93,516.74 394.23,470.93 393.75,454.84 394.40,438.55 397.78,423.05 401.58,413.57 406.42,403.80 412.31,394.72 419.00,386.92 426.42,381.39 432.39,378.82 439.33,377.05 446.75,375.96 454.26,375.76 461.44,376.36 467.89,378.03 473.13,380.70 478.78,386.82 482.89,395.31 485.72,405.68 487.73,417.42 489.19,429.86 482.41,504.50 472.73,579.93 473.54,608.36 477.89,632.55 481.52,645.08 486.04,657.62 491.85,668.98 499.51,677.56 505.16,681.22 511.86,684.38 519.28,686.84 526.94,688.52 534.36,689.21 541.22,688.82 546.95,687.04 552.68,682.70 557.60,676.08 561.79,667.89 565.34,658.91 568.25,649.63 570.59,640.94 572.92,617.15 570.99,588.12 540.09,374.87 532.10,344.27 522.34,319.39 509.11,295.10 493.06,273.29 475.47,255.42 455.30,241.10 439.33,233.40 422.15,227.68 404.96,225.11 392.54,225.60 380.04,227.77 367.85,231.43 356.64,236.46 346.15,242.88 336.31,250.78 327.44,259.96 320.10,269.93 312.75,286.02 308.16,304.09 305.17,322.16 303.72,347.23 305.41,372.51 309.69,398.96 317.19,427.49 337.52,477.45 356.88,526.42 362.53,550.11 364.14,572.23 362.77,589.90 359.22,607.87 353.17,624.25 347.12,634.62 339.78,644.39 331.31,652.88 321.95,659.40 313.48,663.15 304.12,665.92 294.28,667.49 284.52,667.69 275.32,666.31 263.71,661.67 252.33,654.17 241.84,644.89 232.81,634.92 223.29,620.30 216.03,603.82 210.62,587.13 206.51,563.64 205.46,539.55 209.33,485.55 217.48,430.26 261.85,236.96 269.43,208.62 278.47,186.11 287.18,172.00 297.59,159.06 309.61,149.09 317.68,144.85 326.63,141.39 335.99,139.12 345.27,138.03 354.06,138.53 364.14,142.38 373.66,149.09 383.26,156.59 393.59,162.52 405.61,167.35 418.28,171.60 431.10,174.36 443.20,174.46 452.40,172.39 461.76,168.64 470.63,163.70 478.54,157.68 484.67,150.87 489.43,142.38 492.90,132.31 494.99,121.45 495.48,110.69 494.27,100.91 489.59,89.56 481.85,78.60 472.41,68.73 462.56,60.44 449.66,52.64 435.54,47.11 420.53,43.16 396.33,40.00 366.64,40.30 259.35,51.55 222.80,57.57"
        fill="none"
        stroke="#e94560"
        stroke-width="8.0"
        stroke-linejoin="round"
        stroke-linecap="round"/>
  <!-- Start/finish line -->
  <line x1="226.05" y1="77.31" x2="219.56" y2="37.84"
        stroke="#f5f5f5" stroke-width="9.6"
        stroke-linecap="round"/>
</svg>
