<?xml version="1.0" encoding="utf-8"?>
<svg xmlns="http://www.w3.org/2000/svg"
     width="439.9" height="800.0"
     viewBox="0 0 439.9 800.0">
  <rect width="100%" height="100%" fill="#1a1a2e"/>
  <!-- Track outline -->
  <polyline points="276.62,329.45 262.94,245.66 258.66,220.94 252.60,195.62 249.50,173.83 239.65,111.48 235.00,93.09 231.50,84.23 227.18,75.76 221.78,67.45 215.60,59.90 208.73,53.13 200.98,47.56 194.53,44.39 187.59,41.98 180.62,40.51 173.85,40.00 167.08,40.40 160.70,41.78 155.07,44.00 149.77,47.08 145.26,51.04 141.79,55.67 139.04,61.08 137.01,66.94 135.57,77.46 135.51,88.42 137.24,108.20 151.05,166.43 155.53,206.18 155.56,215.68 154.65,224.42 152.26,235.22 148.49,245.82 143.00,255.95 136.45,264.97 130.47,271.34 123.37,277.35 91.01,299.94 75.73,313.94 62.74,330.91 51.81,349.70 44.38,369.64 42.03,380.00 40.59,390.64 40.00,400.10 40.72,412.56 62.51,537.68 89.80,661.66 93.99,673.60 98.40,681.95 104.39,690.54 111.42,697.93 116.79,702.17 122.58,705.77 128.57,708.53 134.79,710.47 141.23,711.58 147.64,711.90 157.07,710.71 166.36,707.90 175.32,703.12 184.32,697.97 194.04,693.78 204.02,690.85 214.16,689.86 224.27,690.58 233.82,692.79 242.92,696.63 251.36,702.32 259.28,709.33 274.17,726.53 290.23,741.33 298.84,748.01 307.87,753.59 317.58,757.39 327.66,759.56 338.03,760.00 348.40,758.77 358.91,755.89 368.92,751.42 374.94,747.78 380.60,743.50 385.57,738.56 389.53,733.18 392.84,727.21 395.55,720.88 398.56,710.47 399.90,699.59 399.22,688.48 396.73,677.60 392.12,666.88 386.16,657.31 380.24,650.34 373.66,644.41 366.01,638.91 357.73,634.32 349.52,630.72 338.98,627.68 282.77,620.20 225.91,612.92 205.03,606.36 186.61,597.38 178.50,591.92 171.00,585.71 164.46,578.94 158.54,571.50 148.30,554.69 139.04,536.14 130.99,515.93 114.14,458.21 109.62,437.13 108.28,427.43 107.99,417.78 108.74,410.70 110.25,403.62 112.73,397.25 115.51,393.02 118.95,389.22 122.84,385.86 126.97,383.05 133.48,379.81 140.58,377.63 147.71,376.72 152.94,376.92 158.24,377.83 163.38,379.45 168.13,381.78 173.72,386.33 178.79,392.15 183.37,398.20 188.64,406.78 193.74,415.25 199.44,422.96 206.05,429.61 212.07,433.57 218.81,436.77 225.51,438.75 231.63,439.30 237.75,438.83 243.74,437.48 249.79,435.19 255.75,432.02 261.28,428.22 266.31,423.95 270.96,419.09 274.92,413.67 279.34,404.73 282.31,394.88 283.75,385.07 283.69,372.65 276.62,329.45"
        fill="none"
        stroke="#e94560"
        stroke-width="8.0"
        stroke-linejoin="round"
        stroke-linecap="round"/>
  <!-- Start/finish line -->
  <line x1="256.88" y1="332.67" x2="296.36" y2="326.22"
        stroke="#f5f5f5" stroke-width="9.6"
        stroke-linecap="round"/>
</svg>
