<?xml version="1.0" encoding="utf-8"?>
<svg xmlns="http://www.w3.org/2000/svg"
     width="800.0" height="422.9"
     viewBox="0 0 800.0 422.9">
  <rect width="100%" height="100%" fill="#1a1a2e"/>
  <!-- Track outline -->
  <polyline points="43.32,145.85 41.15,155.83 40.00,165.80 40.27,176.18 41.83,186.43 44.69,196.22 49.01,205.75 55.69,216.13 63.89,225.74 73.63,234.14 84.35,241.38 95.65,247.40 107.25,252.11 127.98,257.10 193.09,268.29 259.16,288.15 511.18,375.22 551.98,381.65 582.82,382.86 595.42,382.05 606.26,380.07 617.44,377.29 628.21,373.51 638.17,368.75 647.63,363.09 664.81,349.84 679.69,334.29 691.26,318.92 703.78,298.39 733.09,234.64 756.30,173.94 759.08,162.48 760.00,152.77 759.89,140.33 758.09,127.79 754.31,115.57 748.82,103.98 741.79,93.56 733.36,84.26 723.70,76.08 712.98,69.38 701.15,64.53 689.05,61.12 668.63,58.06 646.72,58.11 642.86,58.47 638.63,58.92 632.60,60.17 626.60,62.73 620.88,65.61 614.05,70.15 606.34,76.44 599.69,84.75 592.82,93.74 586.83,103.49 582.06,114.00 578.74,125.82 576.98,138.13 577.14,150.12 578.59,162.93 585.84,204.08 586.64,215.36 586.41,225.74 585.08,236.07 582.48,246.36 578.05,258.00 571.91,268.87 566.95,274.98 561.22,280.46 555.00,285.09 548.21,288.82 540.88,291.74 533.36,293.76 521.60,294.93 509.89,294.48 500.00,293.14 489.47,290.71 448.82,277.27 345.57,231.49 326.53,219.76 318.36,213.07 310.99,205.39 303.82,195.37 298.40,184.40 296.41,177.35 295.38,170.07 295.50,163.02 296.83,156.28 299.27,149.67 302.56,143.65 306.72,138.17 311.79,133.23 317.56,129.23 324.62,126.31 332.52,124.51 341.34,123.26 364.54,123.35 387.56,123.35 399.50,120.87 410.04,117.23 420.31,112.83 429.54,106.95 433.85,102.90 437.94,98.23 441.37,93.20 443.66,87.94 444.66,83.54 445.04,78.77 444.81,73.97 444.01,69.34 442.56,65.12 439.58,60.26 435.38,55.77 430.57,51.82 425.57,48.54 419.54,45.57 412.94,43.73 404.05,42.25 330.73,40.00 244.62,42.38 155.27,50.65 133.55,55.91 111.95,63.90 92.52,74.69 83.66,81.34 75.50,88.70 68.17,96.70 61.56,105.24 55.73,114.13 50.73,123.61 46.53,134.58 43.32,145.85"
        fill="none"
        stroke="#e94560"
        stroke-width="8.0"
        stroke-linejoin="round"
        stroke-linecap="round"/>
  <!-- Start/finish line -->
  <line x1="62.71" y1="150.76" x2="23.93" y2="140.95"
        stroke="#f5f5f5" stroke-width="9.6"
        stroke-linecap="round"/>
</svg>
