<?xml version="1.0" encoding="utf-8"?>
<svg xmlns="http://www.w3.org/2000/svg"
     width="800.0" height="409.9"
     viewBox="0 0 800.0 409.9">
  <rect width="100%" height="100%" fill="#1a1a2e"/>
  <!-- Track outline -->
  <polyline points="40.33,149.59 40.52,142.24 46.39,121.95 60.32,101.79 78.45,90.46 101.89,92.56 117.71,105.68 124.73,126.10 132.72,145.96 149.51,158.46 170.17,159.29 188.70,148.71 206.65,132.88 220.39,117.40 234.80,100.52 250.67,82.77 268.79,66.98 288.67,54.65 309.62,46.47 330.68,41.40 351.37,40.00 376.11,40.31 399.93,40.35 421.17,46.34 436.48,60.99 443.17,79.88 438.30,100.74 420.51,114.95 399.63,118.84 375.48,118.49 354.53,118.23 332.95,122.39 312.74,132.40 297.51,147.27 287.44,168.74 288.48,190.73 298.81,208.84 317.20,221.21 340.41,230.53 360.88,238.01 382.35,247.01 404.79,257.29 428.12,268.09 452.75,278.37 493.32,276.09 516.76,267.70 534.62,257.12 549.89,239.14 553.05,216.58 549.19,192.79 547.92,170.75 550.78,146.31 555.50,122.60 562.82,100.74 578.50,83.64 592.76,67.99 609.22,52.64 628.31,43.32 650.38,46.30 679.28,58.93 702.24,68.21 723.93,82.37 740.76,95.58 760.00,117.09 757.88,145.56 754.54,169.31 746.33,185.88 731.02,201.54 723.34,221.87 714.46,246.40 708.22,265.82 700.97,285.63 693.25,305.79 682.92,323.93 670.25,339.63 650.56,356.34 627.53,365.96 602.01,369.94 575.67,367.71 555.69,364.65 535.74,360.36 515.72,354.85 495.54,348.73 475.15,342.30 454.53,336.18 432.69,331.06 411.03,325.81 389.67,320.26 368.39,314.44 347.18,308.02 325.93,301.11 304.57,294.07 283.13,287.16 261.81,280.29 240.75,273.91 219.91,268.05 199.22,263.67 178.38,261.36 157.87,260.48 137.81,259.17 112.59,253.66 89.74,243.21 69.90,228.43 54.52,209.19 44.87,187.50 40.00,164.80 40.33,149.59"
        fill="none"
        stroke="#e94560"
        stroke-width="8.0"
        stroke-linejoin="round"
        stroke-linecap="round"/>
  <!-- Start/finish line -->
  <line x1="20.34" y1="149.12" x2="60.33" y2="150.05"
        stroke="#f5f5f5" stroke-width="9.6"
        stroke-linecap="round"/>
</svg>
