<?xml version="1.0" encoding="utf-8"?>
<svg xmlns="http://www.w3.org/2000/svg"
     width="556.6" height="800.0"
     viewBox="0 0 556.6 800.0">
  <rect width="100%" height="100%" fill="#1a1a2e"/>
  <!-- Track outline -->
  <polyline points="69.14,464.15 70.40,462.67 74.66,458.62 78.71,455.45 82.53,453.26 85.03,452.45 87.67,451.91 92.99,451.57 101.76,452.20 115.26,454.02 129.72,458.28 146.38,466.48 194.26,504.27 241.76,542.50 257.59,551.24 271.16,556.22 278.92,558.04 286.42,558.88 294.00,558.80 302.37,557.62 310.81,555.38 318.89,552.13 329.49,545.83 339.32,537.34 349.01,526.11 357.83,511.33 369.12,480.62 377.60,446.12 381.31,418.79 381.82,392.31 379.15,368.11 373.52,345.14 364.29,322.97 352.11,302.06 333.60,277.56 314.00,256.62 300.84,245.38 288.66,237.91 280.33,235.46 272.85,234.66 268.34,234.40 263.86,234.82 255.93,236.85 247.71,240.36 240.61,245.42 234.58,251.08 231.59,254.34 229.12,258.43 226.42,265.91 224.06,275.33 222.94,283.98 223.23,289.26 224.26,294.12 225.84,299.10 228.57,306.07 232.31,313.21 237.39,320.43 262.22,341.08 287.37,359.46 293.98,365.45 299.03,371.32 303.40,378.88 306.71,386.53 308.23,390.84 309.03,395.35 308.60,403.59 307.08,411.61 305.61,415.54 303.83,418.92 301.62,422.43 299.12,425.72 296.30,428.97 292.91,431.97 285.44,436.28 276.96,439.83 269.55,442.02 261.19,442.99 241.76,441.73 220.27,437.29 201.30,430.07 182.85,420.27 164.37,408.19 146.44,393.24 128.25,373.73 110.06,349.15 80.98,299.40 56.75,250.24 49.94,232.59 46.18,217.80 45.37,208.39 45.80,200.36 46.78,195.93 48.22,192.04 49.94,188.28 51.95,184.86 54.34,181.69 56.98,178.91 60.03,176.33 63.33,174.09 66.90,172.11 71.01,170.46 79.25,168.60 88.34,167.71 95.75,167.80 104.20,169.24 131.30,180.30 159.52,190.90 168.17,191.62 175.75,191.15 181.99,190.10 184.83,189.42 187.19,188.54 189.49,187.27 193.20,184.35 196.53,180.76 199.03,177.43 201.04,173.75 202.33,170.12 203.05,166.28 203.08,162.27 202.51,158.25 201.41,154.07 199.46,149.77 195.49,144.15 190.03,138.19 183.65,132.58 165.23,122.57 147.39,113.61 140.75,108.50 135.78,103.39 133.22,99.63 131.24,95.75 129.66,91.86 128.51,87.77 127.82,83.63 127.59,79.40 127.79,75.05 128.45,70.66 129.60,66.02 131.15,61.54 132.99,57.61 135.12,54.02 137.50,50.85 140.12,48.11 143.02,45.74 146.12,43.80 149.57,42.24 153.19,41.10 156.90,40.30 161.30,40.00 173.60,40.80 188.22,44.05 205.01,51.36 224.63,64.50 350.24,192.93 496.91,346.07 507.55,362.58 513.61,376.26 515.77,384.37 516.63,392.14 516.54,400.25 515.33,408.24 512.83,416.01 509.27,423.06 504.10,429.52 498.61,434.72 495.39,437.17 491.54,439.40 472.06,447.77 451.16,458.83 445.13,464.36 440.24,470.45 436.25,477.71 431.60,492.79 429.04,511.12 429.81,545.07 430.45,577.55 427.89,590.43 424.27,600.65 420.82,607.79 416.51,614.08 408.84,622.36 399.38,629.84 385.04,636.93 369.21,642.97 351.91,648.80 334.87,655.89 320.44,665.78 305.87,679.12 280.41,710.84 255.87,740.91 244.72,749.78 234.69,755.27 226.33,758.14 218.83,759.58 214.83,760.00 210.75,759.79 202.05,758.27 192.82,755.23 185.49,751.22 178.63,745.64 171.07,736.90 164.40,726.38 159.49,715.44 155.98,702.73 154.03,682.37 153.74,658.89 155.41,623.54 155.87,590.85 153.62,577.76 149.75,567.08 145.18,559.60 139.66,552.80 134.69,547.69 131.47,545.07 128.05,543.26 119.89,540.34 110.72,538.48 102.85,538.27 94.77,539.41 83.42,543.81 73.05,547.94 69.02,548.41 65.46,548.28 61.52,547.82 57.56,546.93 54.74,546.21 51.93,545.33 49.40,543.85 47.41,541.74 45.72,539.12 44.20,536.41 42.41,532.57 41.06,528.56 40.29,524.46 40.00,520.28 40.17,516.18 41.01,511.62 44.86,500.64 50.75,488.56 60.23,474.58 69.14,464.15"
        fill="none"
        stroke="#e94560"
        stroke-width="8.0"
        stroke-linejoin="round"
        stroke-linecap="round"/>
  <!-- Start/finish line -->
  <line x1="53.93" y1="451.16" x2="84.35" y2="477.14"
        stroke="#f5f5f5" stroke-width="9.6"
        stroke-linecap="round"/>
</svg>
