<?xml version="1.0" encoding="utf-8"?>
<svg xmlns="http://www.w3.org/2000/svg"
     width="800.0" height="640.0"
     viewBox="0 0 800.0 640.0">
  <rect width="100%" height="100%" fill="#1a1a2e"/>
  <!-- Track outline -->
  <polyline points="562.92,490.69 626.95,454.03 663.11,427.45 692.77,398.51 719.74,364.73 741.22,326.76 750.61,300.57 757.20,273.07 760.00,245.31 758.60,217.42 753.61,189.53 745.72,163.48 735.03,139.78 721.54,118.04 705.86,98.79 686.58,81.25 664.71,66.58 641.63,55.06 615.36,46.55 587.59,41.70 559.72,40.00 520.37,42.62 476.42,53.36 368.63,96.83 259.26,153.13 202.82,190.06 156.47,228.03 100.93,290.09 76.06,323.61 56.68,355.30 50.79,369.57 46.99,384.37 42.00,410.95 40.00,439.76 41.30,457.30 44.30,474.72 49.79,491.87 60.68,514.13 75.26,536.13 91.94,554.98 111.82,570.30 134.10,582.09 157.37,590.86 181.44,597.15 206.61,600.03 236.08,599.37 343.36,577.11 460.23,538.36 550.43,497.90 562.92,490.69"
        fill="none"
        stroke="#e94560"
        stroke-width="8.0"
        stroke-linejoin="round"
        stroke-linecap="round"/>
  <!-- Start/finish line -->
  <line x1="552.97" y1="473.34" x2="572.87" y2="508.04"
        stroke="#f5f5f5" stroke-width="9.6"
        stroke-linecap="round"/>
</svg>
