<?xml version="1.0" encoding="utf-8"?>
<svg xmlns="http://www.w3.org/2000/svg"
     width="390.1" height="800.0"
     viewBox="0 0 390.1 800.0">
  <rect width="100%" height="100%" fill="#1a1a2e"/>
  <!-- Track outline -->
  <polyline points="147.97,725.54 158.07,734.52 166.84,742.31 176.17,749.33 182.10,752.82 187.95,755.44 194.13,757.47 200.51,758.90 214.09,760.00 224.88,759.32 235.93,757.12 246.53,754.01 258.27,749.31 273.91,740.07 287.71,730.12 297.38,720.76 301.13,716.46 304.31,711.90 306.93,706.56 308.70,700.97 309.35,695.82 309.08,690.23 306.10,679.52 303.06,668.78 302.78,663.14 303.17,657.85 305.10,645.38 309.40,632.02 314.43,621.24 339.52,571.19 344.45,556.52 350.12,507.51 349.76,490.17 341.43,437.79 323.27,384.58 283.89,312.80 277.54,301.57 272.80,290.53 269.39,279.42 267.34,268.68 266.87,261.84 267.00,254.83 269.45,241.14 272.74,231.12 277.27,221.35 283.32,212.01 311.12,174.34 314.54,168.10 317.07,161.99 321.15,150.01 324.11,137.87 324.67,131.08 324.34,124.91 323.33,119.24 321.68,113.75 319.37,108.01 316.48,102.35 312.80,96.36 308.69,90.77 305.17,86.77 300.74,82.75 269.62,62.16 256.94,56.07 237.52,49.62 214.45,43.95 188.89,40.91 165.97,40.00 149.19,41.38 103.82,51.60 92.01,56.54 72.05,68.57 63.87,75.54 54.88,85.83 51.21,91.57 48.12,97.41 45.97,102.35 44.35,107.31 43.31,112.44 42.79,117.82 42.83,124.88 43.47,131.99 45.99,143.11 62.94,191.70 65.57,204.22 66.84,216.64 66.78,229.42 65.35,242.61 62.80,255.97 42.79,330.61 40.00,379.46 41.48,396.33 58.91,465.46 106.87,647.81 121.05,681.25 138.37,708.11 147.97,725.54"
        fill="none"
        stroke="#e94560"
        stroke-width="8.0"
        stroke-linejoin="round"
        stroke-linecap="round"/>
  <!-- Start/finish line -->
  <line x1="164.00" y1="713.58" x2="131.94" y2="737.50"
        stroke="#f5f5f5" stroke-width="9.6"
        stroke-linecap="round"/>
</svg>
