<?xml version="1.0" encoding="utf-8"?>
<svg xmlns="http://www.w3.org/2000/svg"
     width="800.0" height="548.1"
     viewBox="0 0 800.0 548.1">
  <rect width="100%" height="100%" fill="#1a1a2e"/>
  <!-- Track outline -->
  <polyline points="199.90,117.70 171.93,127.03 155.12,134.40 138.39,143.80 121.78,156.27 105.89,171.33 90.40,189.86 76.29,210.62 64.23,231.94 54.11,255.37 45.37,284.66 40.20,315.46 40.00,344.55 43.68,372.12 50.29,393.92 59.73,413.52 72.78,432.33 88.46,448.79 107.97,463.93 130.89,476.64 170.52,491.70 212.38,502.54 243.19,507.28 274.23,508.08 316.79,503.02 359.21,494.29 420.13,476.56 568.64,415.99 683.85,350.84 704.06,336.06 719.83,321.99 729.86,311.36 738.44,299.16 748.36,279.40 755.98,256.17 759.69,226.44 760.00,197.51 758.57,181.18 755.47,166.23 750.19,149.34 742.80,133.16 732.03,117.22 718.51,102.44 696.10,84.11 671.14,68.09 646.71,55.90 623.10,47.01 607.13,42.79 590.40,40.56 556.58,40.00 524.70,41.79 504.91,45.26 201.95,117.02 199.90,117.70"
        fill="none"
        stroke="#e94560"
        stroke-width="8.0"
        stroke-linejoin="round"
        stroke-linecap="round"/>
  <!-- Start/finish line -->
  <line x1="206.22" y1="136.68" x2="193.58" y2="98.73"
        stroke="#f5f5f5" stroke-width="9.6"
        stroke-linecap="round"/>
</svg>
