<?xml version="1.0" encoding="utf-8"?>
<svg xmlns="http://www.w3.org/2000/svg"
     width="231.3" height="800.0"
     viewBox="0 0 231.3 800.0">
  <rect width="100%" height="100%" fill="#1a1a2e"/>
  <!-- Track outline -->
  <polyline points="183.18,583.48 184.12,482.24 181.72,462.26 179.18,452.95 175.60,443.73 163.09,422.24 146.15,397.78 141.68,389.27 136.75,375.71 130.92,351.28 120.85,299.92 118.35,280.05 118.22,270.16 119.12,260.44 126.42,222.19 126.62,214.71 126.02,208.11 124.78,201.24 122.85,194.54 120.21,187.98 116.87,181.75 112.89,176.09 107.94,170.63 88.99,155.70 81.79,149.58 78.65,146.16 75.86,142.54 73.49,138.76 71.43,134.84 69.76,130.80 68.43,126.63 67.45,122.36 66.80,118.01 66.59,109.30 66.96,105.07 67.71,100.95 68.81,96.97 70.29,93.22 72.10,89.61 74.22,86.27 76.68,83.21 79.43,80.46 85.54,75.77 95.48,70.72 102.00,68.35 105.26,67.53 109.48,66.98 111.54,67.00 113.57,67.20 115.55,67.60 117.45,68.20 119.24,69.01 120.93,70.03 122.54,71.26 124.00,72.69 125.21,74.24 126.22,75.93 127.04,77.69 127.67,79.54 128.15,81.51 128.45,83.54 128.58,85.58 128.48,87.79 126.68,95.49 120.46,113.22 119.41,119.46 119.02,124.69 119.25,128.69 121.03,136.86 122.59,140.92 125.59,146.19 129.63,152.14 141.45,165.46 144.18,169.11 146.65,173.01 150.80,181.61 152.44,186.25 153.76,191.11 154.72,196.19 155.39,201.48 155.73,206.92 155.16,224.26 148.62,309.78 150.80,336.53 159.59,375.73 161.84,381.86 163.96,386.22 164.96,387.78 166.03,389.01 167.51,390.37 169.19,391.54 170.98,392.37 172.85,392.92 174.76,393.16 176.64,393.08 177.85,392.83 179.02,392.45 180.12,391.95 181.57,390.97 182.85,389.75 183.98,388.21 184.93,386.53 185.63,385.08 186.25,383.29 187.68,377.16 188.92,368.49 189.97,314.42 186.42,249.35 165.91,124.35 154.56,70.20 151.70,63.02 149.05,58.02 146.70,54.66 141.21,48.90 138.06,46.52 134.85,44.63 130.96,42.86 125.26,41.15 118.80,40.08 109.83,40.00 100.73,40.96 93.70,42.50 86.85,44.90 78.34,49.09 69.96,54.29 61.92,60.44 55.04,66.68 48.96,73.99 46.46,78.03 42.56,86.72 41.29,91.38 40.00,101.10 40.04,106.20 40.87,113.40 42.73,122.18 54.37,150.30 69.00,180.76 74.22,193.50 78.38,206.36 80.03,212.92 84.40,240.30 92.90,290.48 125.96,420.69 142.22,465.91 150.82,497.51 155.34,520.81 156.74,535.88 156.65,540.59 156.13,545.14 155.20,549.47 153.88,553.58 150.29,560.86 142.43,574.80 141.65,576.74 141.12,578.60 139.83,586.66 139.73,588.68 139.87,590.80 142.55,603.44 148.89,621.06 150.88,629.76 151.41,633.99 151.59,638.13 151.27,642.18 150.63,646.21 147.04,657.64 143.25,671.42 142.20,680.94 142.17,691.19 143.80,714.15 146.76,735.60 148.53,742.15 150.39,746.86 151.38,748.71 152.44,750.21 153.66,751.70 155.00,753.06 156.34,754.18 157.93,755.24 161.23,756.92 164.66,758.33 168.23,759.23 175.42,760.00 177.18,759.93 178.81,759.69 180.80,759.23 182.78,758.56 184.61,757.66 186.29,756.54 187.75,755.22 188.98,753.70 189.92,752.03 190.61,750.24 191.03,748.28 191.22,746.30 191.27,744.76 191.09,742.81 183.93,709.69 182.72,693.31 183.14,588.53 183.18,583.48"
        fill="none"
        stroke="#e94560"
        stroke-width="8.0"
        stroke-linejoin="round"
        stroke-linecap="round"/>
  <!-- Start/finish line -->
  <line x1="163.18" y1="583.29" x2="203.18" y2="583.66"
        stroke="#f5f5f5" stroke-width="9.6"
        stroke-linecap="round"/>
</svg>
