<?xml version="1.0" encoding="utf-8"?>
<svg xmlns="http://www.w3.org/2000/svg"
     width="727.6" height="800.0"
     viewBox="0 0 727.6 800.0">
  <rect width="100%" height="100%" fill="#1a1a2e"/>
  <!-- Track outline -->
  <polyline points="95.62,377.22 157.97,442.40 213.81,499.01 221.16,508.88 226.32,518.07 229.68,526.22 232.08,535.48 233.40,553.83 234.80,572.82 237.91,585.09 242.27,596.07 248.81,607.44 256.17,617.12 261.58,622.62 268.13,627.23 289.31,636.20 312.39,643.93 325.05,647.47 335.78,651.11 342.45,654.94 348.03,659.69 351.85,664.59 355.57,671.26 366.38,697.25 378.02,724.28 384.30,734.13 390.49,741.57 396.04,747.03 402.13,751.39 411.35,755.73 421.17,758.69 429.81,760.00 438.83,759.85 451.82,757.50 465.17,752.90 477.43,746.20 489.20,737.21 501.94,724.09 513.00,709.47 519.08,698.90 523.65,687.21 526.76,668.88 529.82,650.36 534.81,637.34 540.60,626.52 545.26,619.93 550.50,614.50 558.15,608.63 566.83,603.93 576.85,600.89 588.47,598.47 639.13,587.00 650.08,582.64 659.16,577.47 666.03,572.26 672.15,565.59 679.00,554.44 684.35,542.15 686.64,533.63 687.56,524.71 686.98,512.10 684.13,497.77 673.09,468.61 657.49,437.23 616.09,373.90 548.57,281.23 529.18,262.15 513.18,246.31 505.81,235.67 499.69,224.20 492.49,205.31 484.92,186.93 477.30,176.27 468.99,167.92 460.35,161.52 451.57,156.89 444.45,154.44 437.14,152.89 427.53,151.99 417.57,150.73 407.86,147.61 398.08,142.78 385.95,134.32 374.25,123.84 356.49,101.34 334.12,69.65 323.45,59.35 312.46,51.32 301.58,45.70 290.91,42.01 282.62,40.36 274.62,40.00 266.86,40.63 259.36,42.45 252.49,45.41 246.01,49.48 240.07,54.48 234.67,60.63 229.90,67.62 225.76,77.19 219.95,113.76 215.05,152.19 208.35,176.65 203.25,187.86 197.09,198.16 189.29,208.13 180.83,216.76 173.19,223.09 165.26,228.13 156.60,232.13 147.30,234.92 135.48,236.40 122.53,236.83 103.98,236.32 85.99,236.61 75.45,238.89 66.32,242.34 59.69,245.83 53.88,250.19 50.70,253.27 47.82,256.74 45.33,260.76 43.08,265.93 41.27,271.77 40.21,277.76 40.00,283.68 40.54,289.74 41.93,296.14 48.49,311.85 58.22,328.65 92.72,374.19 95.62,377.22"
        fill="none"
        stroke="#e94560"
        stroke-width="8.0"
        stroke-linejoin="round"
        stroke-linecap="round"/>
  <!-- Start/finish line -->
  <line x1="110.07" y1="363.40" x2="81.17" y2="391.05"
        stroke="#f5f5f5" stroke-width="9.6"
        stroke-linecap="round"/>
</svg>
