<?xml version="1.0" encoding="utf-8"?>
<svg xmlns="http://www.w3.org/2000/svg"
     width="800.0" height="547.8"
     viewBox="0 0 800.0 547.8">
  <rect width="100%" height="100%" fill="#1a1a2e"/>
  <!-- Track outline -->
  <polyline points="415.64,119.54 331.01,76.64 252.46,43.90 237.73,40.79 226.03,40.00 219.60,40.49 214.36,41.74 211.60,42.87 209.20,44.36 207.01,46.16 204.98,48.32 203.24,50.79 201.70,53.63 200.70,55.64 199.79,57.80 199.34,60.27 199.82,64.54 201.12,69.36 202.54,73.41 203.97,76.34 205.56,78.66 209.54,83.01 218.22,90.06 228.26,99.35 236.67,110.91 243.90,124.02 248.88,137.09 252.38,149.26 254.22,159.32 254.78,165.66 254.40,176.30 253.64,185.78 250.99,204.01 246.80,221.08 239.59,243.88 217.09,290.83 191.18,334.79 180.56,348.84 171.65,358.29 167.16,362.41 162.85,365.37 156.99,368.02 151.27,369.85 147.88,370.73 144.43,371.10 137.78,370.67 131.24,369.42 128.07,368.29 125.24,366.89 122.47,365.37 119.61,363.29 115.15,359.12 110.85,353.97 107.98,349.21 105.68,343.60 103.60,334.97 102.58,325.46 103.01,316.32 104.77,307.08 109.08,295.53 115.50,283.00 132.75,256.44 150.52,227.42 159.49,205.81 165.63,184.26 168.55,165.26 168.98,147.86 167.99,140.66 166.26,134.23 163.97,128.35 160.75,122.25 156.87,116.79 152.58,112.04 147.37,107.65 141.69,104.14 135.79,101.43 129.33,99.42 122.67,98.29 115.95,97.98 108.95,98.50 101.91,99.87 95.52,101.85 89.30,104.87 83.71,108.84 78.64,113.38 73.74,119.38 67.24,129.78 61.28,144.35 55.13,180.05 50.43,223.00 40.00,321.83 41.99,353.66 47.03,384.30 57.27,427.28 69.70,464.84 77.49,479.69 85.64,490.36 93.88,497.98 102.11,503.25 106.23,505.26 110.21,506.60 114.47,507.43 120.58,507.76 127.13,507.34 133.17,506.21 139.11,504.10 144.76,500.81 151.50,495.66 159.43,487.19 223.65,386.49 281.49,306.38 291.00,288.64 297.93,270.16 308.00,210.81 313.84,186.12 316.73,179.80 320.01,174.68 324.00,169.78 328.39,165.63 333.22,162.06 338.64,159.23 347.42,156.27 356.98,154.56 366.45,154.35 376.75,155.81 393.89,161.09 413.51,169.38 474.96,202.73 633.07,294.28 653.81,302.54 671.31,306.87 689.78,309.12 707.15,308.63 715.46,307.02 723.19,304.52 730.40,301.20 739.20,295.56 746.76,288.76 751.39,282.97 755.07,276.56 757.64,270.50 759.37,263.79 760.00,255.38 759.47,246.66 757.53,237.97 754.41,229.89 749.57,222.06 743.71,215.35 736.56,209.34 728.75,204.62 720.07,200.90 710.71,198.49 698.67,197.18 684.83,197.58 657.53,203.22 629.82,208.67 614.86,208.61 600.66,206.54 582.94,202.09 564.48,195.41 522.31,173.62 415.64,119.54"
        fill="none"
        stroke="#e94560"
        stroke-width="8.0"
        stroke-linejoin="round"
        stroke-linecap="round"/>
  <!-- Start/finish line -->
  <line x1="406.59" y1="137.37" x2="424.68" y2="101.70"
        stroke="#f5f5f5" stroke-width="9.6"
        stroke-linecap="round"/>
</svg>
