<?xml version="1.0" encoding="utf-8"?>
<svg xmlns="http://www.w3.org/2000/svg"
     width="800.0" height="445.1"
     viewBox="0 0 800.0 445.1">
  <rect width="100%" height="100%" fill="#1a1a2e"/>
  <!-- Track outline -->
  <polyline points="405.69,404.95 567.53,399.69 604.11,396.91 635.28,391.34 660.09,382.32 683.24,369.53 708.46,349.87 729.84,328.41 739.02,316.29 746.06,303.50 753.10,286.71 758.04,267.81 760.00,243.66 758.61,218.66 753.84,195.14 745.79,172.56 732.59,148.77 716.68,127.08 699.86,109.04 682.36,93.60 651.77,72.45 621.10,57.69 598.56,50.91 525.36,42.11 369.03,40.00 215.79,48.12 181.20,56.20 154.39,66.98 132.73,78.16 112.90,91.98 92.93,110.34 75.47,130.85 64.40,147.82 55.53,166.41 47.11,192.13 41.56,218.21 40.00,235.04 40.64,251.29 43.89,270.41 49.65,289.00 57.90,306.10 69.04,321.95 89.62,341.38 112.63,358.08 130.06,368.72 149.18,377.29 184.14,387.66 226.85,395.52 400.81,405.12 405.69,404.95"
        fill="none"
        stroke="#e94560"
        stroke-width="8.0"
        stroke-linejoin="round"
        stroke-linecap="round"/>
  <!-- Start/finish line -->
  <line x1="405.03" y1="384.96" x2="406.34" y2="424.93"
        stroke="#f5f5f5" stroke-width="9.6"
        stroke-linecap="round"/>
</svg>
