<?xml version="1.0" encoding="utf-8"?>
<svg xmlns="http://www.w3.org/2000/svg"
     width="562.0" height="800.0"
     viewBox="0 0 562.0 800.0">
  <rect width="100%" height="100%" fill="#1a1a2e"/>
  <!-- Track outline -->
  <polyline points="520.83,391.80 516.01,299.73 510.71,268.11 503.37,241.71 493.52,213.51 481.37,186.31 466.83,160.99 450.19,137.30 432.19,115.95 412.49,96.76 391.30,80.18 368.68,66.22 345.18,55.59 320.73,47.66 295.94,42.34 270.80,40.00 245.74,40.99 221.15,44.77 198.26,50.54 176.39,58.74 155.54,69.82 136.18,83.15 118.99,98.20 103.64,115.05 89.65,132.97 78.99,153.51 56.57,215.86 45.71,311.08 41.49,334.95 40.00,360.63 43.87,439.19 53.11,518.11 66.76,570.81 89.24,620.99 103.71,644.86 120.15,667.30 138.42,687.93 158.39,706.58 179.58,722.52 202.13,735.86 225.43,745.68 249.48,752.79 273.45,757.84 297.77,760.00 322.49,758.56 346.95,753.96 370.58,746.31 393.07,735.95 413.92,723.06 433.28,707.93 451.14,690.54 467.24,671.26 481.57,650.36 493.80,628.02 503.78,604.14 511.52,579.19 517.16,555.41 520.69,526.49 521.98,413.69 520.83,391.80"
        fill="none"
        stroke="#e94560"
        stroke-width="8.0"
        stroke-linejoin="round"
        stroke-linecap="round"/>
  <!-- Start/finish line -->
  <line x1="500.86" y1="392.85" x2="540.80" y2="390.75"
        stroke="#f5f5f5" stroke-width="9.6"
        stroke-linecap="round"/>
</svg>
