<?xml version="1.0" encoding="utf-8"?>
<svg xmlns="http://www.w3.org/2000/svg"
     width="800.0" height="710.7"
     viewBox="0 0 800.0 710.7">
  <rect width="100%" height="100%" fill="#1a1a2e"/>
  <!-- Track outline -->
  <polyline points="469.22,41.48 618.55,40.00 684.00,43.58 698.23,46.85 709.55,50.73 721.21,56.40 731.67,63.76 740.89,72.49 744.81,76.99 748.44,82.41 754.60,94.72 759.14,108.72 760.00,116.95 759.71,125.12 758.57,132.58 757.04,137.94 754.94,142.85 752.07,147.70 743.76,157.67 735.06,165.79 732.05,168.14 728.71,169.88 717.53,173.04 704.06,175.55 676.88,178.46 503.33,172.38 477.25,175.40 454.75,180.71 426.04,189.91 399.62,202.12 388.25,209.98 378.36,218.72 369.90,228.33 362.79,238.80 356.96,250.09 352.95,261.03 351.27,269.30 350.84,277.32 351.42,285.24 352.90,293.16 355.38,300.88 358.82,308.13 363.31,314.83 368.81,320.96 374.92,326.37 386.15,333.22 397.42,338.07 403.73,339.86 410.32,340.73 423.50,340.93 436.88,339.86 443.95,338.48 451.97,335.83 548.38,290.10 572.12,282.03 609.95,274.97 624.71,274.46 638.76,275.54 652.52,278.30 664.75,281.97 671.00,284.53 676.45,287.39 681.70,290.51 686.82,294.39 693.98,301.08 700.53,309.31 704.25,316.41 707.21,324.23 709.22,331.79 710.22,340.07 709.79,348.55 707.36,361.37 703.20,374.76 690.45,401.17 677.50,420.33 524.16,625.98 513.84,638.24 504.62,647.08 490.19,657.86 474.76,666.19 466.54,668.85 458.42,670.33 450.45,670.69 442.90,669.97 435.49,668.18 428.57,665.53 422.31,662.00 416.53,657.66 411.56,652.75 406.26,644.73 402.53,636.61 400.86,632.11 399.71,626.75 397.95,593.84 396.04,559.87 394.41,552.46 392.36,546.43 386.10,532.99 377.79,520.68 367.52,510.05 361.74,505.40 355.57,501.31 349.03,497.84 342.20,494.93 335.46,492.53 327.87,490.79 314.30,489.46 297.72,489.67 224.39,501.16 198.03,503.31 170.94,503.15 143.66,499.47 117.34,491.40 99.28,483.02 82.42,473.06 72.34,465.04 63.89,456.35 56.43,446.85 50.18,436.63 45.25,425.95 41.82,414.92 40.19,404.24 40.00,393.66 41.10,383.34 43.30,373.69 45.78,366.58 49.27,359.63 56.29,348.96 64.12,339.30 68.23,335.31 73.77,331.13 135.16,292.09 201.51,247.03 215.32,233.49 225.02,220.10 234.38,202.68 240.97,182.50 242.69,147.45 242.55,116.38 245.13,104.07 246.89,98.04 249.67,91.71 258.36,78.22 267.91,66.21 271.40,62.94 274.94,60.39 280.48,56.86 287.21,53.44 300.06,48.74 313.58,45.01 330.73,42.81 469.22,41.48"
        fill="none"
        stroke="#e94560"
        stroke-width="8.0"
        stroke-linejoin="round"
        stroke-linecap="round"/>
  <!-- Start/finish line -->
  <line x1="469.02" y1="21.48" x2="469.42" y2="61.48"
        stroke="#f5f5f5" stroke-width="9.6"
        stroke-linecap="round"/>
</svg>
