<?xml version="1.0" encoding="utf-8"?>
<svg xmlns="http://www.w3.org/2000/svg"
     width="800.0" height="536.5"
     viewBox="0 0 800.0 536.5">
  <rect width="100%" height="100%" fill="#1a1a2e"/>
  <!-- Track outline -->
  <polyline points="422.10,199.70 314.50,126.36 284.27,105.43 271.23,94.64 236.63,59.62 221.48,46.91 207.52,40.00 200.47,40.83 192.24,43.52 184.08,47.07 177.28,50.63 170.33,55.49 164.69,61.00 159.27,67.40 154.96,74.54 152.28,82.57 150.88,91.02 150.62,99.70 151.23,108.24 153.72,122.68 163.60,152.71 175.53,182.06 179.68,189.23 183.92,194.80 188.96,200.53 194.57,205.62 200.88,209.75 207.64,213.08 214.66,215.64 221.90,217.46 228.94,218.58 237.11,218.90 260.52,216.34 283.99,213.81 292.40,214.16 299.58,215.45 306.66,217.78 313.29,221.05 319.26,225.08 324.61,230.07 329.88,237.05 334.02,244.99 336.57,253.38 337.75,262.08 337.59,270.85 336.06,279.46 333.03,287.53 328.95,295.18 324.13,302.48 318.62,309.33 306.05,321.53 239.60,372.36 225.98,379.75 211.57,385.38 196.70,389.26 167.11,392.81 99.09,395.34 82.80,398.32 75.21,400.81 68.03,404.08 61.49,408.27 55.56,413.17 50.17,418.51 45.71,424.53 42.74,431.51 40.89,438.90 40.00,446.24 40.13,453.63 41.28,461.09 43.38,468.35 46.19,475.14 50.08,481.35 53.90,485.38 58.43,489.00 63.31,491.95 68.48,493.99 73.99,495.37 79.57,496.20 88.28,496.49 96.86,495.75 111.27,492.11 189.69,464.70 203.66,461.25 221.74,457.98 270.56,456.19 285.77,454.46 293.11,452.48 300.22,449.79 307.01,446.36 313.52,442.33 325.76,432.47 330.86,427.32 336.28,420.37 377.07,346.78 394.67,316.08 399.62,309.65 404.88,304.43 409.53,300.82 414.67,297.58 419.99,295.12 425.35,293.55 430.90,292.72 436.39,292.68 441.81,293.48 447.20,295.09 452.08,297.42 456.38,300.56 460.21,304.43 463.36,308.75 465.69,313.46 467.32,318.61 468.37,323.89 468.63,332.09 467.96,340.51 465.60,358.05 465.15,366.95 465.92,375.49 467.48,380.55 469.71,385.35 472.58,389.61 476.12,393.26 480.30,396.36 484.76,398.73 489.58,400.27 494.71,401.10 499.85,401.20 507.31,399.76 514.77,397.32 530.49,391.37 548.16,387.11 632.06,371.17 694.24,345.47 736.91,322.42 744.31,318.00 750.08,313.33 753.72,309.01 756.81,304.14 758.92,299.02 759.71,294.99 760.00,290.70 759.71,286.44 758.79,282.51 757.19,278.79 754.93,275.18 752.19,271.97 749.16,269.38 745.75,267.49 741.89,266.15 737.84,265.35 733.85,265.12 728.33,265.96 722.72,267.88 717.43,270.12 704.29,277.51 665.35,304.69 650.84,312.18 643.13,314.93 635.12,316.92 626.73,317.97 618.22,318.04 609.58,317.04 601.00,315.06 592.90,312.27 583.84,307.95 530.24,273.41 422.10,199.70"
        fill="none"
        stroke="#e94560"
        stroke-width="8.0"
        stroke-linejoin="round"
        stroke-linecap="round"/>
  <!-- Start/finish line -->
  <line x1="410.83" y1="216.22" x2="433.36" y2="183.17"
        stroke="#f5f5f5" stroke-width="9.6"
        stroke-linecap="round"/>
</svg>
