<?xml version="1.0" encoding="utf-8"?>
<svg xmlns="http://www.w3.org/2000/svg"
     width="800.0" height="533.4"
     viewBox="0 0 800.0 533.4">
  <rect width="100%" height="100%" fill="#1a1a2e"/>
  <!-- Track outline -->
  <polyline points="537.63,201.90 541.55,210.07 547.18,220.27 555.08,230.98 562.70,239.37 569.30,244.72 576.80,248.70 583.45,250.01 590.28,250.80 597.90,249.93 605.29,247.69 612.34,243.93 715.20,184.46 724.41,180.12 732.88,177.66 741.81,177.81 748.06,180.92 753.12,186.56 757.16,195.10 759.60,202.84 760.00,212.24 759.03,221.14 757.61,227.44 753.92,234.02 748.63,240.53 740.84,249.43 735.21,255.29 726.06,262.09 637.58,323.65 627.58,329.65 618.19,333.70 609.50,335.80 597.95,336.09 588.91,334.72 578.91,332.26 568.90,328.13 558.95,320.83 549.85,314.24 542.00,308.75 532.28,301.73 523.81,296.52 515.45,292.47 507.26,290.37 498.51,289.72 490.55,290.73 484.69,292.76 477.92,296.95 471.67,301.58 465.25,307.52 458.82,315.84 453.36,322.06 447.73,326.32 441.65,328.71 434.09,329.87 423.80,329.44 406.68,324.95 319.06,291.24 311.39,288.92 306.15,288.42 299.90,290.95 294.84,294.93 291.31,300.14 289.38,306.58 287.79,316.78 290.58,340.43 295.86,358.88 309.62,404.24 314.68,430.28 314.80,440.70 313.49,451.26 309.79,459.94 305.53,467.46 300.07,474.55 293.36,479.18 285.63,483.88 275.11,488.87 265.84,492.35 256.40,493.36 247.25,492.78 239.23,490.61 227.52,484.82 214.04,475.42 187.78,447.28 56.55,286.54 49.21,277.57 45.00,271.27 42.33,264.91 40.51,256.15 40.00,245.95 41.08,237.42 44.89,228.74 50.41,221.00 59.39,213.98 68.37,207.76 76.16,204.07 84.75,202.84 93.67,204.14 99.93,207.18 105.96,211.45 112.04,218.46 118.18,225.48 124.21,229.03 130.92,231.34 138.59,232.50 145.98,232.93 156.56,232.72 167.59,232.06 179.59,229.53 187.26,226.21 193.75,222.81 199.77,218.18 204.78,211.52 209.95,204.43 215.86,195.17 224.28,184.39 236.67,169.13 260.33,146.99 267.49,140.84 272.38,135.56 275.11,129.56 275.96,124.42 275.68,119.50 274.03,112.92 272.55,108.65 270.56,105.76 267.66,102.14 265.10,99.25 261.58,97.37 258.00,96.14 253.11,95.85 248.39,95.77 242.53,95.99 186.75,99.46 179.59,98.16 175.44,95.05 171.51,89.92 168.44,84.56 166.11,78.85 164.86,73.35 164.07,67.85 164.58,62.93 166.11,58.66 169.98,54.03 173.16,50.78 178.62,47.09 185.05,44.41 190.56,43.11 199.09,41.09 206.25,40.00 293.76,40.22 303.77,41.95 318.32,45.64 333.28,54.25 349.94,67.06 358.35,74.14 367.51,83.33 373.42,91.29 377.34,98.60 382.12,110.24 384.39,118.06 385.25,128.40 383.94,136.79 382.74,146.27 380.47,157.19 378.59,166.81 377.06,176.00 376.72,182.87 376.94,190.90 378.88,197.49 381.44,202.77 385.30,207.83 390.08,211.81 396.22,215.57 400.65,217.74 406.40,219.77 412.14,219.62 418.79,218.03 425.84,214.20 430.90,209.28 435.62,204.14 439.77,196.83 442.73,187.00 443.98,173.76 443.53,158.71 440.00,141.28 438.41,130.86 437.73,123.99 438.86,116.75 443.13,110.24 448.02,105.47 455.29,100.84 463.26,97.08 469.51,95.77 475.02,96.72 481.11,99.54 485.54,104.31 491.68,114.73 497.88,126.81 509.77,149.74 537.63,201.90"
        fill="none"
        stroke="#e94560"
        stroke-width="8.0"
        stroke-linejoin="round"
        stroke-linecap="round"/>
  <!-- Start/finish line -->
  <line x1="555.32" y1="192.58" x2="519.93" y2="211.22"
        stroke="#f5f5f5" stroke-width="9.6"
        stroke-linecap="round"/>
</svg>
