<?xml version="1.0" encoding="utf-8"?>
<svg xmlns="http://www.w3.org/2000/svg"
     width="800.0" height="636.9"
     viewBox="0 0 800.0 636.9">
  <rect width="100%" height="100%" fill="#1a1a2e"/>
  <!-- Track outline -->
  <polyline points="284.55,98.66 355.22,75.61 462.81,46.27 511.13,40.00 529.97,40.15 547.15,41.81 570.18,47.18 580.65,50.92 591.59,56.14 610.39,67.82 629.72,82.30 646.38,97.30 661.27,113.67 672.98,129.70 682.46,146.56 688.74,162.55 692.56,178.61 693.40,188.17 693.25,197.62 692.13,206.13 690.51,212.06 688.27,217.39 685.51,222.12 682.21,226.16 678.36,229.64 674.26,232.36 669.91,234.37 665.28,235.61 660.37,236.14 653.96,235.84 647.19,234.52 640.73,232.17 634.54,228.66 628.67,224.05 623.51,218.60 617.67,209.19 612.60,197.70 605.30,175.13 597.37,153.21 591.06,143.42 583.57,135.41 571.02,125.31 556.57,116.73 540.53,110.16 523.59,105.85 506.38,103.73 487.11,104.22 450.69,110.42 406.50,122.63 221.80,195.81 178.29,216.98 146.25,235.69 136.71,243.06 129.72,250.47 124.10,258.59 119.90,267.36 118.07,273.22 116.82,279.31 116.36,285.32 116.64,291.10 117.63,296.81 119.28,302.18 121.67,307.17 124.72,311.78 128.20,315.90 132.21,319.57 136.71,322.70 141.72,325.24 148.58,327.58 156.14,329.09 163.84,329.58 171.58,329.24 179.48,327.81 188.27,324.48 217.30,303.46 249.52,276.78 311.46,232.97 367.74,202.24 387.57,194.22 406.62,188.78 425.61,186.06 443.76,185.79 457.24,187.46 469.80,190.90 481.58,196.00 492.58,202.80 502.40,211.04 511.60,221.17 531.86,253.19 556.72,297.15 569.53,311.97 584.85,325.12 616.27,343.64 648.99,361.18 685.57,386.09 706.02,405.79 724.63,427.22 737.22,444.53 747.26,461.43 753.13,473.90 757.20,486.22 759.44,498.28 760.00,510.30 758.82,521.68 755.93,532.98 749.71,547.00 742.22,559.33 737.31,565.19 731.75,569.91 722.30,576.03 710.74,581.40 686.97,588.89 667.86,592.63 654.59,594.82 646.07,595.88 631.62,596.86 615.30,596.37 606.85,594.59 598.77,591.95 591.41,588.28 585.19,583.90 579.56,578.72 575.06,573.16 572.32,568.36 570.30,563.30 569.12,558.42 568.78,554.72 569.00,551.12 569.78,547.46 571.64,542.36 574.44,537.06 578.10,532.04 589.42,522.96 602.22,514.61 612.35,507.77 621.40,500.25 626.27,494.05 630.47,487.17 633.48,480.21 635.01,474.54 635.69,468.80 635.50,462.79 633.92,454.81 631.09,446.42 627.52,438.41 623.69,430.92 619.06,423.85 612.29,416.37 567.13,386.02 511.63,354.87 429.80,310.15 410.22,303.54 392.23,300.06 373.43,298.70 355.53,299.95 342.38,303.24 329.95,308.83 315.41,318.77 301.83,331.36 290.55,345.38 281.28,361.14 274.82,378.04 270.10,397.09 266.58,428.77 262.39,459.16 256.48,473.90 249.18,485.58 244.46,491.25 239.33,496.01 233.86,500.06 228.02,503.50 221.80,506.22 215.18,508.15 206.95,509.51 198.15,509.85 189.51,509.05 181.18,507.01 173.01,503.76 164.74,499.49 150.42,489.74 135.28,476.40 82.39,415.76 66.66,393.80 54.42,373.01 47.99,358.42 43.60,343.95 40.90,328.90 40.00,313.59 40.90,298.55 43.67,283.20 49.73,263.43 58.15,243.74 68.84,224.95 81.46,207.45 96.37,190.86 112.85,175.85 130.90,162.17 150.67,149.81 203.84,124.97 284.55,98.66"
        fill="none"
        stroke="#e94560"
        stroke-width="8.0"
        stroke-linejoin="round"
        stroke-linecap="round"/>
  <!-- Start/finish line -->
  <line x1="278.35" y1="79.65" x2="290.75" y2="117.68"
        stroke="#f5f5f5" stroke-width="9.6"
        stroke-linecap="round"/>
</svg>
