<?xml version="1.0" encoding="utf-8"?>
<svg xmlns="http://www.w3.org/2000/svg"
     width="473.0" height="800.0"
     viewBox="0 0 473.0 800.0">
  <rect width="100%" height="100%" fill="#1a1a2e"/>
  <!-- Track outline -->
  <polyline points="167.00,181.51 173.62,160.05 191.75,120.88 201.42,104.90 211.81,90.82 220.88,81.06 230.81,72.60 243.24,64.17 257.00,56.89 273.02,50.56 290.16,45.75 329.66,40.48 352.64,40.00 374.33,41.33 387.75,43.51 396.11,45.90 404.13,49.06 409.83,52.30 414.98,56.09 420.26,60.90 424.63,65.70 426.30,68.01 427.66,70.52 430.10,76.34 432.05,82.91 432.97,88.63 433.04,94.53 431.50,102.54 429.29,109.64 427.11,114.13 421.34,123.06 413.23,131.80 402.50,140.76 373.13,161.66 343.08,179.80 332.60,184.30 325.13,186.20 317.55,187.26 311.92,187.33 306.38,186.45 301.58,184.95 296.64,182.77 291.77,179.70 282.58,169.79 273.96,159.65 268.95,155.41 263.78,152.35 259.19,150.72 254.20,149.67 249.26,149.34 244.53,149.84 239.86,151.02 235.73,152.60 232.99,154.03 230.60,155.76 228.33,157.95 223.91,163.97 219.87,171.92 214.20,188.26 209.35,207.23 204.52,229.49 202.32,249.57 202.98,255.26 204.31,260.11 206.04,264.47 207.65,267.84 209.53,270.85 211.87,273.68 215.37,276.92 219.46,279.91 223.85,282.24 228.30,283.80 233.04,284.70 238.37,285.10 254.06,283.30 268.42,281.19 271.92,281.29 275.02,281.82 280.51,283.20 286.16,285.30 291.19,287.96 295.93,291.35 301.24,296.55 305.81,302.22 308.40,306.38 310.50,310.77 314.75,323.37 317.96,338.35 322.38,365.76 324.67,393.44 324.08,408.87 321.80,422.77 318.06,435.42 312.56,447.82 295.88,474.24 279.02,490.86 265.76,504.43 255.56,516.68 234.30,551.94 211.67,593.24 192.64,618.87 184.35,627.35 177.78,632.29 159.65,643.66 141.56,655.76 133.36,664.26 127.57,671.79 124.10,677.49 119.37,688.65 116.03,700.65 113.90,715.83 111.05,731.39 107.30,740.23 103.35,746.85 101.67,748.93 99.90,750.59 97.38,752.65 94.37,754.60 89.26,757.21 83.73,759.22 79.06,759.97 74.44,760.00 69.73,759.35 65.14,758.02 60.61,755.93 56.34,753.17 52.25,749.56 48.59,745.37 45.45,740.70 42.92,735.71 41.10,730.74 40.05,725.37 40.00,717.82 40.83,710.11 43.65,698.24 61.87,634.45 83.36,486.54 84.90,480.07 86.78,475.10 91.13,466.49 96.55,458.36 101.42,453.16 106.66,448.97 111.83,445.84 117.21,443.53 122.21,442.25 127.64,441.77 136.25,442.17 146.11,444.43 165.53,455.02 182.16,465.08 184.83,466.06 187.20,466.59 197.31,467.94 206.08,467.79 214.33,466.94 220.47,465.16 232.85,460.27 243.26,454.24 249.60,449.27 255.44,443.58 259.69,437.86 263.09,431.86 265.46,426.36 267.25,420.74 269.73,408.97 270.28,403.88 270.26,398.46 268.84,388.47 266.58,379.11 265.21,375.57 263.62,372.56 259.51,366.06 256.61,362.77 253.37,359.68 250.18,356.90 246.41,354.34 238.64,350.60 230.05,347.76 223.59,346.86 216.49,347.01 199.40,350.40 182.72,353.66 176.74,353.59 171.57,352.71 166.03,351.08 160.63,348.72 155.03,345.46 149.86,341.54 145.65,337.38 142.02,332.81 138.99,328.02 136.55,322.64 134.32,314.19 133.08,306.33 133.11,301.44 134.30,290.57 145.19,252.18 167.00,181.51"
        fill="none"
        stroke="#e94560"
        stroke-width="8.0"
        stroke-linejoin="round"
        stroke-linecap="round"/>
  <!-- Start/finish line -->
  <line x1="147.89" y1="175.61" x2="186.11" y2="187.41"
        stroke="#f5f5f5" stroke-width="9.6"
        stroke-linecap="round"/>
</svg>
