<?xml version="1.0" encoding="utf-8"?>
<svg xmlns="http://www.w3.org/2000/svg"
     width="800.0" height="622.3"
     viewBox="0 0 800.0 622.3">
  <rect width="100%" height="100%" fill="#1a1a2e"/>
  <!-- Track outline -->
  <polyline points="145.89,230.59 141.42,236.06 137.79,242.98 135.82,249.43 136.37,258.42 138.77,267.99 143.05,280.16 152.44,300.71 157.93,311.44 163.15,319.74 170.92,327.13 178.01,331.48 187.06,334.96 197.71,338.04 207.00,339.45 216.93,339.74 268.64,337.06 279.19,335.32 288.00,330.65 293.97,325.32 300.62,316.48 307.74,301.29 312.04,288.17 314.38,277.99 314.65,269.25 313.98,258.74 314.59,249.32 317.50,242.98 322.76,236.38 330.18,231.27 339.54,226.74 346.76,224.21 407.22,210.98 415.06,209.02 420.82,206.16 426.86,201.70 431.43,196.27 434.82,190.11 436.11,183.47 435.77,175.54 433.30,167.09 429.67,159.19 425.23,152.74 420.45,147.85 413.97,145.02 406.99,144.34 400.20,145.10 294.21,178.36 284.10,181.44 275.73,183.29 267.89,183.98 259.93,183.37 252.74,181.52 245.72,177.06 239.85,171.23 235.38,164.48 233.04,156.98 231.72,145.82 231.92,136.47 234.80,126.11 240.33,119.51 250.81,112.84 258.60,109.69 268.27,107.70 279.08,106.28 429.40,97.73 439.47,97.98 448.32,98.56 455.64,100.09 463.81,102.59 472.02,107.04 479.04,112.01 487.21,120.20 493.28,128.75 498.57,137.52 502.13,146.36 505.32,156.66 506.98,169.70 507.76,181.59 506.13,195.14 502.40,205.62 496.37,215.22 489.52,223.48 481.89,230.88 473.21,236.64 462.66,241.68 440.42,250.48 399.63,268.28 361.41,287.05 353.65,291.25 347.71,296.58 344.70,304.01 344.66,311.37 346.70,319.05 349.75,325.61 354.36,331.88 359.31,336.48 365.18,341.30 371.59,344.85 414.61,362.61 422.68,365.18 429.64,365.80 436.99,365.04 444.11,362.93 451.78,359.78 460.32,355.03 472.70,346.88 482.94,339.71 492.09,333.25 501.86,325.90 508.81,319.01 517.02,309.05 522.61,300.57 526.48,292.30 529.43,284.26 532.51,278.17 536.41,273.53 542.24,269.04 547.57,266.54 554.04,264.76 560.45,264.22 566.35,265.16 571.23,267.33 575.24,270.78 579.78,276.10 651.60,403.52 656.00,412.33 659.23,420.01 661.50,427.44 662.58,434.11 662.51,441.50 660.96,447.56 657.67,453.06 653.73,458.57 648.07,464.01 641.76,468.43 635.08,472.02 626.47,474.66 619.55,475.21 611.75,475.32 605.35,474.45 598.73,472.34 591.95,468.14 586.60,463.10 581.78,456.65 578.56,449.33 576.39,442.16 575.07,434.26 575.44,427.08 576.59,420.56 578.80,414.18 581.95,406.89 584.83,400.88 586.76,395.33 587.31,390.40 585.92,384.53 583.81,380.33 579.64,374.89 573.54,369.46 567.81,365.94 561.23,364.31 552.45,365.18 544.45,367.36 536.21,370.62 528.00,374.79 519.15,380.40 511.90,385.80 505.79,390.69 500.60,395.73 496.43,400.84 493.59,406.86 492.50,412.22 492.81,417.33 494.06,423.31 496.03,429.18 497.82,435.09 499.62,441.76 500.60,448.82 500.67,454.98 500.33,460.75 499.52,467.52 499.86,473.87 501.59,479.48 504.78,485.53 508.67,491.01 513.96,496.73 519.86,499.89 528.34,501.66 538.45,501.84 549.60,500.18 561.71,500.83 573.85,503.40 582.80,508.95 588.87,514.74 593.07,520.80 595.65,527.97 596.06,535.87 595.55,547.69 596.26,558.45 598.46,566.39 602.63,572.76 607.86,578.13 612.94,580.99 619.59,582.26 627.05,582.11 633.35,580.56 639.69,578.20 646.99,574.72 661.16,565.63 747.18,506.66 753.35,502.60 757.66,497.28 760.00,490.57 759.69,484.23 756.98,477.92 752.34,469.70 517.02,68.52 510.27,59.39 503.59,52.61 495.42,47.14 485.62,43.41 475.21,41.09 460.93,40.00 71.16,41.16 61.97,42.14 54.11,44.35 47.32,47.83 42.14,52.00 40.00,57.00 40.24,63.59 59.60,100.48 63.74,107.66 67.67,112.37 73.60,117.34 80.55,120.02 89.47,121.36 100.66,120.53 170.24,112.88 180.24,113.10 188.38,114.80 196.76,120.05 204.11,127.19 209.84,136.43 213.68,145.57 217.98,157.78 220.73,168.11 221.24,177.57 219.78,187.24 217.58,194.24 213.30,198.70 208.39,201.59 150.51,227.40 145.89,230.59"
        fill="none"
        stroke="#e94560"
        stroke-width="8.0"
        stroke-linejoin="round"
        stroke-linecap="round"/>
  <!-- Start/finish line -->
  <line x1="159.69" y1="245.06" x2="132.10" y2="216.11"
        stroke="#f5f5f5" stroke-width="9.6"
        stroke-linecap="round"/>
</svg>
