<?xml version="1.0" encoding="utf-8"?>
<svg xmlns="http://www.w3.org/2000/svg"
     width="800.0" height="748.6"
     viewBox="0 0 800.0 748.6">
  <rect width="100%" height="100%" fill="#1a1a2e"/>
  <!-- Track outline -->
  <polyline points="262.85,246.19 205.50,309.42 79.70,463.45 65.40,487.47 44.70,536.41 41.45,548.84 40.00,560.64 40.35,575.41 42.60,590.01 46.35,601.70 51.40,612.65 57.60,623.45 64.90,633.66 73.35,643.45 82.75,652.50 93.15,660.64 104.35,667.95 129.60,680.54 141.95,685.25 157.70,689.43 238.95,701.39 331.60,708.58 381.15,706.31 420.25,701.02 445.90,694.24 458.00,689.75 469.50,684.24 480.05,677.84 489.75,670.06 499.30,659.27 507.35,646.94 511.65,633.61 513.15,618.53 511.65,601.54 508.75,584.51 503.90,568.90 497.55,561.60 488.80,551.38 479.55,544.08 471.30,538.74 462.05,533.87 453.80,531.44 444.55,530.43 435.30,530.43 424.65,532.86 416.90,535.30 408.15,538.21 399.45,541.12 389.25,545.03 381.05,548.90 372.35,551.81 361.20,555.19 351.55,557.63 342.85,559.53 334.15,560.54 323.55,560.01 198.70,551.22 182.85,548.84 173.70,545.46 166.95,538.69 164.00,529.00 162.45,516.41 162.85,503.82 165.15,490.75 169.40,476.73 173.65,463.60 179.50,450.75 184.65,439.27 192.85,425.98 297.70,300.85 355.90,243.07 375.45,227.30 387.75,219.10 400.90,212.38 413.90,208.57 427.25,207.04 436.75,207.36 446.40,208.84 455.55,211.59 464.10,215.77 472.15,221.17 479.20,227.30 484.60,233.44 489.10,240.21 492.85,247.57 497.20,260.53 499.90,275.45 500.15,302.01 501.10,327.99 503.50,337.15 506.75,345.14 511.15,352.23 517.00,358.58 524.00,364.08 531.60,368.26 540.00,370.90 549.00,372.28 557.85,372.54 570.00,371.17 581.70,367.78 593.15,362.44 603.80,355.35 613.50,346.51 621.60,336.09 625.95,328.05 629.35,319.37 631.40,310.43 631.75,300.96 630.70,291.27 628.70,281.96 624.50,270.06 618.15,257.83 602.35,235.72 586.30,213.44 578.85,200.32 574.20,187.78 573.20,181.59 572.80,175.24 573.30,169.10 574.90,163.44 577.20,159.05 580.30,154.76 584.05,150.80 588.10,147.51 592.35,145.19 596.85,143.86 601.80,143.28 606.90,143.44 612.00,144.23 616.65,145.56 623.85,149.37 630.45,155.03 636.95,162.07 650.50,184.34 663.70,207.20 672.85,218.20 682.65,226.83 690.25,231.75 698.50,235.77 706.90,238.31 713.15,239.10 719.55,239.16 725.90,238.36 731.80,236.72 737.40,234.13 742.75,230.59 747.60,226.35 751.65,221.70 754.85,216.40 757.40,210.53 759.10,204.29 760.00,198.04 759.65,189.21 757.70,180.21 754.60,171.59 750.65,163.81 745.45,156.46 738.00,148.10 686.85,105.19 632.75,66.09 608.45,52.96 595.90,47.83 583.00,43.86 569.75,41.32 556.40,40.00 530.05,40.21 503.75,45.50 477.55,54.92 451.75,68.25 411.10,96.30 359.00,140.27 262.85,246.19"
        fill="none"
        stroke="#e94560"
        stroke-width="8.0"
        stroke-linejoin="round"
        stroke-linecap="round"/>
  <!-- Start/finish line -->
  <line x1="277.66" y1="259.63" x2="248.04" y2="232.75"
        stroke="#f5f5f5" stroke-width="9.6"
        stroke-linecap="round"/>
</svg>
