<?xml version="1.0" encoding="utf-8"?>
<svg xmlns="http://www.w3.org/2000/svg"
     width="567.8" height="800.0"
     viewBox="0 0 567.8 800.0">
  <rect width="100%" height="100%" fill="#1a1a2e"/>
  <!-- Track outline -->
  <polyline points="159.33,410.68 153.69,387.45 119.09,279.54 102.06,243.42 92.96,229.49 51.06,177.89 46.27,170.59 43.10,163.74 41.43,158.06 40.31,152.01 40.00,146.20 40.56,141.19 41.79,136.38 43.53,131.79 47.60,124.81 52.68,118.38 65.04,106.39 80.40,95.31 97.66,86.10 106.17,82.39 114.76,79.61 123.35,78.22 131.94,78.19 140.53,79.71 148.80,82.62 156.25,86.72 163.05,92.11 168.76,98.58 173.60,106.14 177.47,114.89 180.42,124.04 183.40,139.28 185.53,190.72 189.47,218.76 194.65,242.51 197.55,250.27 200.87,256.57 205.20,263.38 210.06,269.78 215.34,275.76 221.07,281.12 227.60,285.84 234.57,289.81 242.07,293.30 249.84,295.95 257.87,297.63 266.02,298.41 274.20,298.34 282.31,297.40 289.93,295.76 297.26,293.27 303.98,289.88 310.35,285.74 316.23,281.18 321.50,275.85 325.76,269.68 329.20,262.80 331.74,255.31 333.43,247.42 334.20,239.34 334.11,231.24 333.14,223.22 331.32,215.40 328.47,207.52 324.77,200.03 320.12,192.59 314.78,185.71 301.86,173.60 273.74,150.14 261.57,137.90 256.49,131.50 252.04,124.68 248.41,117.93 245.75,110.53 244.56,101.03 244.85,91.14 246.50,81.94 249.40,73.25 253.61,65.23 258.91,58.22 265.49,52.18 272.85,47.37 280.95,43.65 289.42,41.23 298.03,40.03 306.74,40.00 315.48,40.87 324.07,42.97 332.22,46.66 340.08,51.44 347.63,56.93 354.77,63.29 361.01,69.82 367.33,78.51 381.65,106.36 396.43,140.61 421.50,211.56 425.51,227.75 427.64,243.19 427.55,250.98 426.72,258.73 425.13,266.42 422.85,273.95 416.37,288.65 408.46,302.73 398.63,315.66 392.68,321.38 386.27,326.48 371.80,335.27 294.98,370.26 278.02,379.31 270.77,384.80 264.18,391.20 258.69,398.37 254.02,406.38 250.30,415.20 247.47,424.25 244.71,438.92 244.35,454.55 246.35,470.45 248.36,477.78 251.17,484.86 255.55,493.00 260.82,500.46 264.50,504.57 268.47,508.15 272.70,511.09 277.47,513.36 282.55,514.91 287.73,515.78 293.15,515.97 298.64,515.42 303.98,514.26 308.99,512.55 313.83,510.22 318.26,507.31 322.03,504.11 325.44,500.37 328.03,496.04 329.44,490.90 330.04,485.18 330.36,479.43 330.24,471.16 330.26,463.05 331.45,455.17 333.48,448.29 334.88,445.70 336.53,443.57 338.39,441.73 340.57,439.92 343.01,438.40 345.82,437.30 350.85,436.59 356.70,436.72 362.51,437.43 368.12,439.21 373.71,441.60 379.30,442.95 383.46,442.86 387.67,442.18 391.76,440.95 395.61,439.21 399.17,437.04 402.62,434.39 405.70,431.26 408.17,427.77 410.10,422.70 411.21,417.01 412.08,411.45 412.79,404.35 413.73,397.92 414.50,395.65 415.40,393.59 416.46,391.75 417.77,390.19 419.54,388.90 421.57,387.96 423.77,387.32 425.97,386.93 429.07,386.77 432.26,387.16 435.46,388.09 440.83,391.10 446.13,395.30 451.55,400.34 456.60,406.25 460.79,412.16 465.24,420.92 520.89,598.94 525.65,617.84 527.20,626.76 527.78,635.42 527.35,640.65 526.38,645.76 524.69,650.44 522.56,654.09 519.85,657.55 516.80,660.59 513.56,662.98 509.98,664.75 506.06,665.88 502.04,666.47 498.10,666.47 492.77,665.46 487.50,663.46 482.66,660.68 477.02,655.68 472.11,649.60 467.76,642.95 464.05,635.61 461.30,628.15 458.88,619.07 449.51,564.14 447.09,555.23 444.31,547.99 442.04,543.27 439.47,538.88 436.38,535.00 433.21,532.09 429.60,529.51 425.75,527.44 421.86,526.08 417.79,525.50 413.56,525.60 409.35,526.31 405.33,527.57 400.18,530.16 395.27,533.74 391.13,537.97 388.30,542.21 386.08,546.99 384.43,552.03 383.15,560.20 382.88,568.80 384.50,587.47 395.68,634.74 415.04,684.17 419.68,699.45 421.23,708.92 421.62,718.58 420.94,724.53 419.63,730.31 417.70,735.67 414.96,740.68 411.58,745.23 407.75,749.21 403.23,752.80 398.27,755.77 393.07,757.96 387.48,759.39 381.65,760.00 375.87,759.97 370.11,759.42 364.40,758.22 359.08,756.12 354.45,753.05 350.20,749.18 346.40,744.78 343.16,740.23 340.35,735.25 338.22,729.95 336.91,724.56 336.26,718.87 336.26,712.60 339.50,695.96 343.59,679.58 345.77,664.01 345.74,655.87 344.99,647.82 343.61,640.30 341.44,632.99 337.76,624.63 333.02,617.07 329.46,613.12 325.49,609.83 321.14,607.24 317.03,605.53 312.57,604.27 308.00,603.63 303.57,603.66 299.27,604.47 294.91,605.92 290.80,608.02 287.10,610.70 283.98,613.87 281.10,617.68 278.68,621.82 276.89,626.02 275.73,630.96 275.31,636.13 275.34,641.39 276.43,649.86 277.83,658.42 278.63,666.82 278.53,675.16 277.88,679.62 276.91,684.20 275.48,688.47 273.52,692.09 271.20,694.67 268.35,696.90 265.18,698.68 261.89,699.94 258.67,700.65 255.33,700.68 251.82,700.10 248.31,698.97 244.95,697.42 241.93,695.58 237.93,691.96 234.43,687.47 231.40,682.72 228.47,677.03 225.59,669.08 183.96,513.29 159.79,412.52 159.33,410.68"
        fill="none"
        stroke="#e94560"
        stroke-width="8.0"
        stroke-linejoin="round"
        stroke-linecap="round"/>
  <!-- Start/finish line -->
  <line x1="139.89" y1="415.40" x2="178.76" y2="405.95"
        stroke="#f5f5f5" stroke-width="9.6"
        stroke-linecap="round"/>
</svg>
