<?xml version="1.0" encoding="utf-8"?>
<svg xmlns="http://www.w3.org/2000/svg"
     width="800.0" height="799.5"
     viewBox="0 0 800.0 799.5">
  <rect width="100%" height="100%" fill="#1a1a2e"/>
  <!-- Track outline -->
  <polyline points="436.83,42.67 490.95,40.00 640.66,41.54 667.64,44.73 690.57,50.49 707.03,56.77 722.92,64.69 736.41,74.97 743.12,82.48 749.32,91.02 754.46,100.28 758.18,109.85 760.00,119.31 759.59,129.29 757.19,139.88 753.30,150.48 748.17,160.45 742.46,169.20 734.26,178.25 724.41,186.17 713.49,192.96 702.15,198.31 685.35,203.35 667.39,205.82 649.52,206.85 626.76,206.13 599.70,201.50 480.28,161.79 359.61,124.14 338.43,121.57 321.21,121.47 305.16,124.45 295.31,127.64 285.21,131.86 275.86,137.00 267.83,143.17 261.96,150.27 258.81,157.37 256.83,165.70 256.00,174.75 256.25,183.80 257.57,192.34 259.97,199.85 266.01,209.11 274.79,217.24 285.13,224.33 295.64,230.30 317.16,238.22 343.64,243.36 419.28,250.67 496.00,258.59 525.63,265.68 550.37,275.46 566.10,284.20 580.91,294.49 593.90,306.32 604.74,319.38 613.85,333.88 620.97,349.21 625.85,365.67 628.74,383.16 629.66,400.44 627.75,425.95 621.63,450.43 611.20,472.44 597.13,492.40 579.92,510.40 559.97,525.52 537.05,536.84 512.55,544.96 487.48,550.41 462.07,552.99 413.41,549.49 367.64,540.64 266.43,515.34 249.05,513.59 233.41,513.49 218.59,516.26 209.08,519.66 199.39,524.18 190.12,529.74 182.18,536.22 176.06,543.62 171.83,552.47 169.02,562.96 167.61,573.97 167.86,584.87 169.60,594.85 174.57,606.27 182.26,617.28 191.70,627.25 201.79,635.59 216.52,643.92 233.08,649.88 250.04,653.59 275.37,654.82 303.26,652.15 335.86,644.84 371.94,635.07 403.81,631.57 415.23,633.22 426.15,635.89 436.17,639.80 444.94,644.74 451.97,651.02 456.52,657.29 460.17,664.80 462.98,673.03 464.72,681.57 465.38,689.90 464.72,697.61 461.90,706.46 457.02,715.20 450.65,723.53 443.45,731.15 436.00,737.52 422.84,745.14 408.03,750.38 392.55,754.29 366.98,757.89 340.58,759.33 288.69,759.54 238.46,753.57 191.03,742.67 165.71,735.47 141.46,726.00 121.10,712.94 102.81,697.30 86.34,679.30 71.86,659.35 58.87,637.54 48.77,614.50 42.57,591.25 40.00,567.49 41.66,543.73 46.95,520.17 52.50,503.82 59.70,487.67 68.72,473.06 79.81,460.30 92.72,448.99 106.70,439.73 121.77,432.94 137.82,428.11 154.21,425.23 179.12,424.40 204.36,427.18 255.50,441.17 302.18,458.04 352.25,471.62 369.88,474.19 387.67,475.43 404.55,473.37 414.48,469.97 424.58,465.34 434.10,459.58 442.12,452.80 447.67,445.39 450.32,438.50 451.72,430.58 451.97,422.04 451.14,413.50 449.32,405.48 446.51,398.28 439.39,388.40 429.21,379.56 417.46,371.94 405.71,365.77 383.70,359.09 358.46,355.38 258.98,346.74 231.01,343.55 206.10,338.41 190.70,332.96 176.14,326.17 163.31,317.32 152.97,306.01 144.36,292.84 137.08,278.85 128.06,256.22 122.10,232.46 119.20,208.60 119.70,184.63 124.08,160.66 132.28,137.82 144.69,117.15 160.41,98.63 179.12,82.17 199.89,68.39 221.82,58.00 244.91,50.39 267.67,45.76 293.16,43.39 398.10,44.53 436.83,42.67"
        fill="none"
        stroke="#e94560"
        stroke-width="8.0"
        stroke-linejoin="round"
        stroke-linecap="round"/>
  <!-- Start/finish line -->
  <line x1="435.85" y1="22.70" x2="437.80" y2="62.65"
        stroke="#f5f5f5" stroke-width="9.6"
        stroke-linecap="round"/>
</svg>
