<?xml version="1.0" encoding="utf-8"?>
<svg xmlns="http://www.w3.org/2000/svg"
     width="446.3" height="800.0"
     viewBox="0 0 446.3 800.0">
  <rect width="100%" height="100%" fill="#1a1a2e"/>
  <!-- Track outline -->
  <polyline points="225.84,610.18 281.93,721.37 291.74,735.84 300.89,746.07 308.68,752.23 316.37,756.57 322.17,758.64 327.47,759.73 330.57,760.00 333.73,759.80 339.65,758.87 345.88,757.07 351.70,754.18 356.73,750.88 359.25,748.91 361.42,746.66 364.67,742.50 367.68,737.27 370.71,728.25 372.61,719.35 372.91,715.89 372.78,712.00 368.00,663.80 367.48,618.90 366.20,612.37 364.10,606.80 359.64,599.16 354.09,591.83 348.10,585.99 342.80,580.67 341.22,578.35 340.07,576.08 339.20,573.71 338.66,571.10 338.44,568.39 338.51,565.70 339.15,561.78 340.39,557.98 342.14,554.48 344.48,551.13 348.03,547.46 352.76,543.46 381.26,522.58 388.49,515.75 394.08,508.97 396.62,504.83 398.64,500.59 400.00,496.57 400.54,493.74 400.67,491.05 400.42,488.21 399.58,484.19 398.18,479.98 396.28,476.11 393.96,472.83 391.15,469.85 388.02,467.33 384.44,465.21 380.50,463.58 376.46,462.55 372.26,462.20 367.97,462.47 364.00,463.16 360.01,464.50 355.82,466.69 344.26,475.42 331.81,484.02 326.80,485.87 322.02,486.93 317.66,487.33 314.67,487.18 311.91,486.66 309.30,485.85 305.50,484.05 302.02,481.63 298.89,478.67 296.26,475.27 294.21,471.42 292.73,467.26 291.92,462.62 291.64,458.13 292.04,452.19 292.51,449.41 293.32,446.42 295.56,440.78 298.60,434.81 302.17,429.34 306.24,424.16 315.61,414.82 334.03,401.80 351.06,388.46 353.45,385.13 354.88,382.05 355.77,378.95 356.16,375.96 356.07,372.95 355.50,369.87 353.38,364.25 349.68,358.06 338.09,344.63 325.25,330.13 311.07,307.84 289.97,265.91 285.09,252.32 283.73,245.62 283.04,238.86 282.97,232.03 283.66,224.91 285.78,215.02 288.88,205.55 291.94,199.59 295.20,194.63 299.73,189.01 304.74,184.33 310.28,180.38 316.40,177.30 322.91,175.08 329.64,173.75 337.06,173.21 349.73,174.29 362.21,175.25 365.66,175.06 368.79,174.49 374.75,172.66 380.50,170.30 383.33,168.79 385.97,166.92 391.05,162.51 395.73,157.60 397.86,154.74 399.61,151.49 402.93,143.23 405.52,134.13 406.29,128.34 406.19,122.25 404.29,109.23 401.55,97.22 400.42,93.82 399.11,91.03 397.66,88.10 395.49,85.07 387.03,78.29 376.60,70.77 357.13,54.30 345.98,47.59 334.07,42.61 320.76,40.37 308.41,40.00 302.42,40.54 296.99,41.60 285.28,44.91 273.77,49.96 263.00,56.17 251.29,64.56 221.85,95.87 183.41,144.88 159.67,168.97 146.41,180.36 104.30,211.74 80.68,233.78 71.14,245.49 62.93,257.99 56.12,271.63 51.07,286.37 41.11,349.39 40.00,390.16 41.92,426.23 44.24,439.30 47.49,449.23 49.20,452.91 51.09,456.01 53.46,458.75 56.74,461.46 60.54,463.76 64.31,465.33 67.27,466.00 70.20,466.15 73.23,465.88 77.28,464.94 81.44,463.41 84.77,461.88 86.50,460.77 87.93,459.52 89.90,457.54 91.95,454.88 96.56,446.47 100.58,436.93 102.08,431.43 102.82,425.12 100.82,373.35 102.97,346.35 105.78,332.13 109.87,317.88 115.05,304.81 120.89,293.03 133.71,272.93 142.66,262.18 149.14,255.58 156.24,249.73 162.93,246.11 169.48,243.79 174.07,243.08 178.48,243.08 183.17,243.72 187.51,244.80 190.19,245.74 192.81,247.05 197.47,249.95 202.08,253.85 204.91,257.23 207.48,261.05 209.45,264.97 211.00,270.76 211.62,275.92 211.62,277.84 211.42,279.61 210.98,282.20 210.16,285.11 208.04,290.17 205.11,295.39 201.31,300.18 197.32,304.27 192.12,308.53 181.07,315.86 169.14,324.71 162.41,331.95 157.28,339.79 154.69,345.51 152.77,351.55 151.71,357.69 151.61,364.05 152.42,370.51 153.90,376.80 157.58,385.97 162.73,394.77 170.91,404.34 178.43,412.60 182.03,418.64 184.55,424.70 185.58,427.88 186.35,431.36 186.91,436.81 186.84,442.45 186.15,446.62 184.60,451.21 175.67,466.22 166.75,481.88 165.10,488.21 164.63,494.06 164.82,500.49 165.88,506.95 167.93,513.66 170.64,519.99 176.44,529.58 206.69,573.76 220.94,600.46 225.84,610.18"
        fill="none"
        stroke="#e94560"
        stroke-width="8.0"
        stroke-linejoin="round"
        stroke-linecap="round"/>
  <!-- Start/finish line -->
  <line x1="243.70" y1="601.17" x2="207.99" y2="619.18"
        stroke="#f5f5f5" stroke-width="9.6"
        stroke-linecap="round"/>
</svg>
