<?xml version="1.0" encoding="utf-8"?>
<svg xmlns="http://www.w3.org/2000/svg"
     width="583.1" height="800.0"
     viewBox="0 0 583.1 800.0">
  <rect width="100%" height="100%" fill="#1a1a2e"/>
  <!-- Track outline -->
  <polyline points="185.63,303.55 207.62,253.66 238.06,153.01 249.56,123.53 265.03,97.48 275.94,83.58 288.14,70.95 301.19,60.55 315.00,52.09 329.28,45.77 344.05,41.68 359.40,40.00 374.92,40.67 390.27,43.63 405.25,48.86 419.32,56.32 433.45,66.25 472.93,102.92 496.31,128.50 514.82,155.83 527.77,186.78 536.39,220.62 541.31,253.59 543.13,284.41 541.95,301.26 539.27,317.85 535.37,333.09 529.48,346.99 525.20,353.70 520.17,360.08 514.50,365.66 508.40,369.89 501.07,372.84 492.94,374.38 484.65,374.79 476.68,374.05 470.63,372.84 464.37,371.09 458.38,368.61 453.03,365.32 448.59,361.09 444.68,354.64 441.90,346.92 439.92,338.19 438.53,328.79 439.55,296.97 441.42,265.27 439.87,249.29 436.44,235.26 432.49,225.39 427.35,215.99 421.25,207.86 415.69,202.29 409.37,197.25 402.63,193.36 395.78,191.28 389.74,191.08 383.32,192.15 376.84,194.23 370.74,197.25 365.34,200.95 358.97,208.00 353.89,217.20 347.31,230.22 204.73,543.72 197.03,561.32 193.07,575.22 192.26,583.41 192.26,591.94 193.23,600.19 195.42,607.65 198.47,613.49 202.59,619.13 207.41,624.16 212.65,628.40 218.00,631.42 227.79,633.30 238.54,632.29 250.53,630.61 282.90,626.65 314.68,619.87 325.75,616.11 335.43,611.81 343.67,605.77 348.70,600.53 353.14,594.49 356.73,587.64 359.08,579.65 358.87,564.88 355.50,547.08 351.75,529.15 350.52,513.85 352.13,502.97 355.02,493.50 359.19,484.77 365.61,475.50 373.63,467.11 382.52,460.40 390.11,456.37 398.35,453.35 406.86,451.40 415.20,450.66 426.23,451.80 437.30,455.09 447.73,459.79 457.26,465.77 466.24,473.15 474.27,481.35 484.01,493.90 491.60,507.87 496.31,522.24 499.04,537.28 499.84,552.25 499.26,567.56 495.14,600.93 487.91,633.57 477.85,663.85 470.15,678.82 460.73,692.38 448.75,704.27 435.16,713.74 422.00,719.71 404.34,724.41 273.53,745.03 141.01,759.46 121.54,760.00 106.29,758.46 94.95,756.37 83.76,753.35 73.44,748.65 64.29,742.21 55.94,734.28 49.31,725.15 45.08,715.55 42.30,704.94 40.59,694.20 40.00,677.88 41.23,661.50 47.28,629.94 69.48,566.89 185.63,303.55"
        fill="none"
        stroke="#e94560"
        stroke-width="8.0"
        stroke-linejoin="round"
        stroke-linecap="round"/>
  <!-- Start/finish line -->
  <line x1="167.33" y1="295.48" x2="203.93" y2="311.62"
        stroke="#f5f5f5" stroke-width="9.6"
        stroke-linecap="round"/>
</svg>
