<?xml version="1.0" encoding="utf-8"?>
<svg xmlns="http://www.w3.org/2000/svg"
     width="800.0" height="656.3"
     viewBox="0 0 800.0 656.3">
  <rect width="100%" height="100%" fill="#1a1a2e"/>
  <!-- Track outline -->
  <polyline points="539.90,188.29 569.92,207.16 699.86,287.87 724.38,308.19 734.16,318.39 742.76,329.56 750.72,343.18 756.59,357.89 758.86,367.90 760.00,378.22 759.77,388.42 758.13,398.49 755.13,408.38 750.81,417.48 744.99,425.66 737.84,433.04 729.84,439.03 721.06,443.42 711.46,446.47 701.68,448.06 691.35,447.94 680.84,446.23 670.69,443.61 657.09,438.23 644.12,431.33 618.97,414.06 480.98,293.48 276.39,158.07 249.37,142.99 236.13,138.23 222.43,135.36 206.60,134.57 190.72,136.40 180.62,139.33 170.89,143.48 162.06,148.91 154.33,155.69 147.50,163.63 142.27,172.36 138.86,181.82 136.95,192.02 136.49,202.09 137.45,211.49 139.72,220.83 143.14,229.81 151.19,243.60 161.24,256.24 171.57,266.44 182.90,275.59 194.36,284.02 208.97,292.63 326.80,339.45 389.49,358.81 420.93,371.75 475.38,403.56 572.15,479.38 595.54,500.08 606.59,511.19 616.51,523.09 624.65,536.22 630.61,550.14 632.98,559.42 634.25,569.00 633.71,578.28 631.84,585.55 628.88,592.81 624.93,599.59 620.15,605.14 614.28,609.42 607.37,612.78 599.90,615.10 592.53,616.32 582.48,615.89 572.20,613.51 562.33,610.27 550.54,605.21 536.76,597.27 383.62,493.48 134.08,359.97 108.52,342.63 85.90,322.85 66.84,300.44 59.02,288.35 52.37,275.66 47.23,262.90 43.41,249.34 40.86,232.37 40.00,215.22 40.55,201.17 42.32,187.62 49.74,160.88 61.52,134.87 77.31,110.70 96.96,89.21 120.25,70.40 146.82,55.26 161.15,49.52 175.98,45.01 191.32,41.83 206.92,40.00 238.81,40.55 270.79,45.43 302.64,54.16 334.21,66.43 446.00,129.50 522.29,177.24 539.90,188.29"
        fill="none"
        stroke="#e94560"
        stroke-width="8.0"
        stroke-linejoin="round"
        stroke-linecap="round"/>
  <!-- Start/finish line -->
  <line x1="550.53" y1="171.35" x2="529.26" y2="205.23"
        stroke="#f5f5f5" stroke-width="9.6"
        stroke-linecap="round"/>
</svg>
