<?xml version="1.0" encoding="utf-8"?>
<svg xmlns="http://www.w3.org/2000/svg"
     width="405.7" height="800.0"
     viewBox="0 0 405.7 800.0">
  <rect width="100%" height="100%" fill="#1a1a2e"/>
  <!-- Track outline -->
  <polyline points="127.55,444.70 129.74,429.31 143.11,294.04 142.74,246.83 139.06,223.29 132.29,200.56 122.66,179.51 90.54,127.18 83.03,111.05 79.04,98.02 75.42,82.80 74.49,70.04 75.83,64.58 78.13,60.00 80.97,55.86 84.21,51.89 87.99,48.32 92.13,45.35 96.65,43.03 101.55,41.31 106.54,40.27 111.75,40.00 117.05,40.44 122.22,41.52 129.74,44.61 136.91,48.89 144.08,53.91 150.75,59.73 156.64,66.30 162.44,74.52 186.36,120.92 200.05,152.71 205.16,169.11 208.47,185.24 208.93,210.36 207.66,220.13 200.73,239.62 193.97,260.74 193.16,267.84 193.16,274.21 194.03,280.10 195.71,285.15 198.08,289.87 200.58,293.81 203.20,296.90 206.07,299.40 209.53,301.72 213.30,303.74 221.94,307.18 237.68,310.07 253.68,313.54 257.73,315.32 261.07,317.31 264.09,319.74 267.27,322.97 270.11,326.67 272.23,330.61 273.38,334.69 273.85,339.03 273.85,343.24 273.23,348.60 271.61,353.98 267.68,361.80 262.44,369.31 257.39,374.49 250.81,379.64 204.72,408.27 193.34,418.27 183.15,430.22 176.60,440.56 171.24,450.70 168.27,459.22 161.45,492.72 156.68,547.92 156.93,555.83 157.95,563.10 161.26,577.79 165.87,591.76 169.09,597.69 172.89,602.67 178.47,608.56 185.14,613.68 190.54,616.61 196.46,618.94 202.67,620.35 209.87,620.55 217.35,619.64 224.31,617.93 229.61,615.80 234.47,613.01 239.21,609.44 245.45,603.61 251.53,596.58 256.55,589.17 260.04,582.23 262.66,574.96 264.22,567.55 264.71,560.31 264.18,552.90 262.50,544.48 249.41,513.70 236.87,484.84 235.94,477.47 236.15,471.47 236.53,466.86 237.31,462.52 239.86,454.23 243.73,446.45 248.88,439.28 255.08,432.95 258.39,430.26 262.25,427.73 269.67,424.03 278.34,421.03 285.39,419.78 292.87,419.25 300.20,419.68 307.40,421.27 314.45,423.82 320.93,426.99 328.63,432.18 335.68,438.68 344.97,449.75 352.42,460.46 355.85,467.27 361.12,482.42 364.52,498.68 365.74,515.82 364.58,533.34 360.97,550.88 357.91,559.47 354.08,567.78 344.10,583.31 331.78,597.49 317.85,610.72 286.35,634.83 196.68,690.33 125.99,748.18 120.97,751.41 116.20,753.57 103.08,757.51 89.98,759.97 85.24,760.00 81.06,759.39 76.42,758.35 71.59,756.67 64.23,753.20 57.24,748.89 53.00,745.18 49.39,740.60 45.92,734.61 42.74,727.47 40.65,720.16 40.00,713.06 40.41,705.82 41.75,698.78 46.24,687.87 51.72,678.41 57.90,670.36 89.20,635.03 97.87,621.29 103.54,610.11 104.39,607.79 104.98,604.96 127.55,444.70"
        fill="none"
        stroke="#e94560"
        stroke-width="8.0"
        stroke-linejoin="round"
        stroke-linecap="round"/>
  <!-- Start/finish line -->
  <line x1="107.75" y1="441.91" x2="147.36" y2="447.49"
        stroke="#f5f5f5" stroke-width="9.6"
        stroke-linecap="round"/>
</svg>
