<?xml version="1.0" encoding="utf-8"?>
<svg xmlns="http://www.w3.org/2000/svg"
     width="582.9" height="800.0"
     viewBox="0 0 582.9 800.0">
  <rect width="100%" height="100%" fill="#1a1a2e"/>
  <!-- Track outline -->
  <polyline points="430.45,247.63 519.74,519.03 541.56,589.57 542.94,606.03 541.83,620.92 538.43,636.43 532.84,651.24 525.13,665.13 515.43,677.63 503.57,688.25 489.66,697.52 447.06,717.18 414.18,730.41 358.14,750.66 341.37,756.07 326.35,759.08 311.02,760.00 296.07,758.79 282.06,755.30 269.23,750.04 259.86,744.16 251.81,737.65 246.49,732.76 241.34,726.88 230.26,711.70 218.71,692.41 194.69,633.16 156.63,504.37 151.88,478.86 149.96,456.77 150.57,437.36 152.86,419.31 159.60,392.08 179.94,342.02 190.04,323.90 200.96,308.50 210.82,298.21 221.03,290.38 226.59,287.29 232.18,285.05 237.84,283.54 243.36,282.70 248.95,282.51 254.61,283.14 261.28,284.86 268.08,287.55 274.14,291.08 277.85,294.02 281.28,297.40 284.25,301.07 286.44,304.93 287.75,308.57 288.56,312.43 288.83,316.40 288.49,320.33 286.71,326.40 283.54,332.54 279.40,338.89 270.37,348.71 259.29,358.96 251.00,368.63 248.28,374.00 246.66,379.14 245.85,384.65 245.82,391.97 246.86,399.72 248.88,407.15 251.91,414.02 255.99,420.53 260.97,426.70 272.46,436.77 286.81,446.11 313.38,458.46 337.87,470.15 343.09,473.93 347.09,477.61 350.56,481.95 354.07,487.83 356.89,494.44 358.65,501.21 359.18,507.82 358.68,514.55 357.16,520.91 354.33,527.12 350.39,532.93 345.71,538.03 336.62,544.25 325.88,549.32 309.84,555.31 294.99,561.01 289.20,564.50 284.48,568.25 280.21,572.36 276.37,577.25 272.12,584.82 268.92,593.35 267.78,599.20 267.27,605.26 267.51,611.18 268.45,616.84 270.10,622.39 272.43,627.53 275.39,632.20 279.03,636.50 283.34,640.29 289.40,644.26 296.41,647.60 304.05,650.03 313.82,651.61 324.49,651.90 336.15,651.02 365.75,644.55 394.72,634.88 410.48,627.75 423.45,619.67 432.03,612.32 439.07,603.57 445.71,590.82 450.52,576.08 453.76,557.70 454.06,537.19 448.47,507.34 438.50,472.98 395.32,345.25 372.15,277.22 362.86,261.16 352.15,248.04 338.34,235.83 322.68,225.87 304.32,218.15 285.39,213.37 268.85,212.09 253.26,213.26 241.91,215.62 230.06,220.32 201.06,239.73 171.92,259.91 159.19,266.16 147.44,270.16 135.15,272.59 122.95,273.21 111.33,271.93 100.76,269.13 94.26,266.38 88.16,262.30 77.92,252.34 67.68,239.51 56.67,222.27 47.65,203.89 42.76,188.82 40.27,174.52 40.00,167.47 40.47,160.78 41.75,154.38 43.81,148.43 46.63,142.80 50.24,137.44 58.02,128.43 66.10,121.78 73.85,117.66 78.77,115.35 83.78,113.91 88.60,113.58 93.52,114.10 99.51,115.27 128.85,125.09 160.47,134.90 176.20,136.30 190.15,135.42 201.66,133.14 212.27,129.28 221.57,124.17 230.36,117.15 241.20,104.51 251.58,89.58 261.68,71.87 271.41,56.10 278.12,49.37 284.75,44.74 289.77,42.32 295.13,40.88 300.41,40.15 306.24,40.00 312.27,40.59 319.88,42.50 327.83,45.48 335.47,49.34 346.29,56.83 356.49,66.43 367.94,80.61 378.48,97.89 399.77,154.31 430.45,247.63"
        fill="none"
        stroke="#e94560"
        stroke-width="8.0"
        stroke-linejoin="round"
        stroke-linecap="round"/>
  <!-- Start/finish line -->
  <line x1="449.45" y1="241.38" x2="411.45" y2="253.88"
        stroke="#f5f5f5" stroke-width="9.6"
        stroke-linecap="round"/>
</svg>
