<?xml version="1.0" encoding="utf-8"?>
<svg xmlns="http://www.w3.org/2000/svg"
     width="800.0" height="390.5"
     viewBox="0 0 800.0 390.5">
  <rect width="100%" height="100%" fill="#1a1a2e"/>
  <!-- Track outline -->
  <polyline points="294.27,347.84 110.38,350.46 96.50,348.56 86.16,345.39 75.19,340.35 65.15,333.67 56.51,325.50 49.49,316.49 45.76,309.81 43.14,302.24 40.52,287.18 40.00,269.75 43.21,247.83 49.19,225.92 56.47,207.22 65.40,189.80 75.67,173.85 87.60,159.13 102.66,144.57 119.39,131.80 136.82,121.56 156.61,113.02 228.95,94.91 502.30,58.61 629.80,40.00 645.16,40.63 658.23,43.30 675.92,49.26 693.28,57.89 708.75,69.10 722.23,81.96 731.16,93.13 738.66,105.61 746.52,122.96 752.80,142.58 757.60,167.50 760.00,193.86 759.82,222.16 757.38,248.51 754.57,264.04 750.21,278.04 742.94,293.06 733.75,306.97 722.60,319.24 710.85,329.44 702.06,335.57 693.28,340.22 683.93,343.57 675.15,345.60 670.49,346.27 665.84,346.23 657.16,344.41 648.86,341.58 645.09,339.59 641.88,337.31 638.81,334.68 635.97,331.72 633.31,328.51 631.09,324.87 629.40,319.96 628.36,314.76 627.85,310.23 627.88,305.83 628.40,301.94 629.62,298.09 630.91,295.17 632.57,292.08 634.71,289.21 637.37,286.97 642.36,284.98 647.67,283.75 654.17,282.57 659.71,281.59 664.07,280.15 672.01,276.05 677.88,269.11 686.04,257.23 695.27,237.64 702.25,215.94 705.39,196.01 705.57,176.85 703.02,161.71 698.56,148.42 693.90,139.71 688.25,132.26 681.65,125.24 673.45,119.11 657.50,111.70 637.82,106.16 608.28,102.40 569.43,102.14 395.44,116.44 237.59,138.14 223.52,141.99 212.33,147.83 192.83,162.51 171.16,182.27 154.54,200.37 146.82,212.81 142.13,223.55 140.36,228.67 139.33,233.37 138.85,238.19 138.85,242.97 139.25,247.62 140.07,252.15 141.32,256.63 142.95,260.95 144.90,265.14 147.53,269.37 153.99,276.98 161.11,283.79 164.92,286.58 169.02,288.74 176.44,291.79 186.59,294.33 279.24,298.77 307.89,299.36 333.59,297.54 354.05,292.17 373.21,283.92 391.82,272.84 410.80,258.50 470.03,202.78 491.15,187.55 511.35,175.71 528.96,167.46 545.06,161.92 553.85,160.18 562.53,159.72 577.66,160.78 591.29,163.27 595.46,164.96 598.82,167.04 602.22,169.62 605.36,172.66 608.24,176.17 610.86,180.07 613.44,184.25 615.36,189.33 616.18,196.56 615.99,205.15 614.96,213.74 611.52,226.51 605.88,239.37 595.54,256.17 582.61,272.24 567.55,286.20 550.41,298.68 528.41,312.18 503.74,323.64 471.62,332.95 436.61,339.42 351.13,347.04 294.27,347.84"
        fill="none"
        stroke="#e94560"
        stroke-width="8.0"
        stroke-linejoin="round"
        stroke-linecap="round"/>
  <!-- Start/finish line -->
  <line x1="294.55" y1="367.84" x2="293.98" y2="327.84"
        stroke="#f5f5f5" stroke-width="9.6"
        stroke-linecap="round"/>
</svg>
