<?xml version="1.0" encoding="utf-8"?>
<svg xmlns="http://www.w3.org/2000/svg"
     width="800.0" height="766.9"
     viewBox="0 0 800.0 766.9">
  <rect width="100%" height="100%" fill="#1a1a2e"/>
  <!-- Track outline -->
  <polyline points="201.67,290.41 217.48,269.70 374.73,84.08 395.30,66.55 415.73,52.68 428.28,46.52 441.32,42.03 453.83,40.00 466.25,40.16 474.30,41.51 482.26,43.86 489.86,47.25 500.03,53.88 509.26,62.48 516.62,71.67 524.02,84.19 541.90,129.31 564.03,182.00 627.47,272.20 713.46,379.20 739.43,422.39 750.53,448.32 757.06,472.11 759.38,484.05 760.00,495.90 759.07,501.95 757.44,508.05 755.19,513.74 752.32,518.75 746.52,524.75 739.22,529.23 730.71,533.15 707.89,538.47 678.57,544.88 510.99,617.61 461.68,634.30 448.61,636.91 436.48,637.90 423.06,637.43 409.75,635.19 397.27,631.12 385.51,625.07 375.76,617.55 366.95,608.27 359.10,597.00 352.22,584.69 342.16,561.21 334.27,534.19 329.26,505.34 326.67,478.32 327.36,452.81 330.85,428.65 334.31,415.35 338.84,402.46 344.51,390.67 351.14,379.98 358.68,370.28 367.29,362.09 374.76,356.97 382.92,352.80 391.32,349.93 400.31,348.47 409.58,348.37 418.50,349.46 426.38,351.50 434.02,354.57 441.28,358.69 451.24,366.78 460.30,376.75 475.20,400.79 500.93,448.68 508.88,459.38 516.90,467.99 525.92,475.97 535.67,482.91 547.78,489.85 560.64,494.80 569.52,496.47 578.62,496.94 587.40,495.90 595.59,493.39 603.58,489.53 610.77,484.26 616.82,478.06 622.18,470.65 626.37,462.41 629.06,453.69 630.65,444.25 631.17,435.02 629.75,422.55 626.43,410.55 621.84,399.44 614.47,386.66 505.04,238.34 487.65,219.35 477.00,210.22 465.66,202.66 458.02,198.90 450.17,196.09 442.08,194.37 432.95,193.90 423.58,194.73 414.52,196.50 402.77,200.68 391.46,206.57 381.09,212.83 368.85,222.80 238.39,370.12 153.03,469.81 145.59,482.28 140.55,493.60 136.09,505.81 132.80,518.54 130.93,531.27 130.45,544.15 131.42,556.52 133.84,569.72 148.60,617.34 154.55,643.27 155.83,657.15 155.66,670.97 154.00,683.65 150.50,695.39 146.29,703.42 140.86,710.73 134.74,716.72 129.07,720.53 122.77,723.45 116.24,725.54 109.84,726.69 101.68,726.90 93.49,725.59 85.64,722.88 78.21,718.76 71.05,713.33 64.76,706.92 57.84,696.69 52.27,685.06 47.95,672.17 44.74,658.71 41.11,634.40 40.00,608.22 41.59,580.15 50.61,530.38 58.46,504.87 69.01,479.57 95.36,434.03 109.29,411.65 201.67,290.41"
        fill="none"
        stroke="#e94560"
        stroke-width="8.0"
        stroke-linejoin="round"
        stroke-linecap="round"/>
  <!-- Start/finish line -->
  <line x1="185.77" y1="278.28" x2="217.58" y2="302.53"
        stroke="#f5f5f5" stroke-width="9.6"
        stroke-linecap="round"/>
</svg>
