<?xml version="1.0" encoding="utf-8"?>
<svg xmlns="http://www.w3.org/2000/svg"
     width="800.0" height="447.0"
     viewBox="0 0 800.0 447.0">
  <rect width="100%" height="100%" fill="#1a1a2e"/>
  <!-- Track outline -->
  <polyline points="450.27,204.51 466.03,199.19 489.50,188.95 511.19,176.05 530.69,160.36 543.92,146.24 579.92,95.90 595.67,77.14 612.34,61.80 621.27,55.51 630.73,50.20 640.90,45.82 651.47,42.70 661.88,41.18 677.53,40.00 698.58,46.62 706.70,52.02 713.94,58.63 720.80,66.64 726.90,75.46 736.93,94.89 743.94,115.80 758.15,196.07 759.97,215.38 760.00,226.51 758.96,237.69 757.58,244.73 755.59,251.60 752.56,257.75 749.39,261.93 745.55,265.85 741.24,269.05 736.70,271.20 732.66,272.00 728.25,272.09 723.70,271.58 719.29,270.57 715.32,269.09 710.94,266.61 706.86,263.28 703.23,259.40 700.13,255.22 697.00,249.32 694.81,242.74 692.99,234.78 691.00,203.11 688.61,171.75 686.46,164.12 683.83,157.88 680.23,152.48 676.73,148.81 672.65,145.57 668.17,142.83 663.56,140.76 658.68,139.29 653.46,138.36 648.21,138.10 643.19,138.65 638.37,140.13 633.62,142.40 629.15,145.31 625.14,148.69 618.84,156.91 612.92,167.62 583.15,224.91 569.11,243.38 562.17,250.38 554.76,256.57 537.66,267.41 518.60,275.50 497.99,280.22 476.20,282.12 342.59,274.66 210.15,268.42 198.84,269.68 190.45,271.92 179.91,275.50 170.28,280.60 166.34,283.77 162.71,287.31 159.61,291.27 157.28,295.49 155.94,299.28 154.96,303.50 154.49,307.84 154.62,311.97 155.57,315.72 157.52,319.18 160.38,322.47 163.88,325.42 167.69,327.99 171.53,330.06 177.93,332.08 185.00,332.84 193.92,333.34 299.86,332.29 470.28,336.51 534.76,327.53 581.20,315.05 603.45,311.13 625.51,309.95 647.03,311.80 657.26,313.95 667.13,317.03 676.32,320.87 685.08,325.84 694.47,332.97 702.62,341.40 706.56,347.26 709.69,353.58 711.81,360.20 712.99,367.75 713.06,375.67 711.81,383.05 710.00,387.86 707.47,392.49 704.34,396.67 700.80,400.12 696.83,402.74 692.35,404.72 687.54,406.15 682.65,407.04 672.45,406.83 660.46,404.93 594.66,392.45 390.03,387.73 115.97,378.37 94.28,374.49 84.28,371.20 74.82,366.90 66.33,361.63 58.62,355.14 51.08,346.25 45.12,336.38 41.85,327.19 40.20,317.66 40.00,307.29 41.48,297.00 44.92,287.35 49.70,278.12 55.25,268.76 61.92,260.20 70.00,253.12 79.13,247.17 89.36,242.28 100.24,238.36 123.95,232.71 163.18,228.54 366.33,220.19 447.45,205.43 450.27,204.51"
        fill="none"
        stroke="#e94560"
        stroke-width="8.0"
        stroke-linejoin="round"
        stroke-linecap="round"/>
  <!-- Start/finish line -->
  <line x1="443.91" y1="185.55" x2="456.64" y2="223.47"
        stroke="#f5f5f5" stroke-width="9.6"
        stroke-linecap="round"/>
</svg>
