<?xml version="1.0" encoding="utf-8"?>
<svg xmlns="http://www.w3.org/2000/svg"
     width="511.9" height="800.0"
     viewBox="0 0 511.9 800.0">
  <rect width="100%" height="100%" fill="#1a1a2e"/>
  <!-- Track outline -->
  <polyline points="61.55,366.83 41.03,479.03 40.00,497.90 41.21,512.79 44.80,528.65 50.35,543.02 56.56,553.29 63.93,561.94 72.33,569.15 81.57,574.78 91.46,578.78 101.84,581.04 113.27,581.16 123.62,579.90 132.43,577.22 141.19,573.69 151.13,568.06 163.60,557.12 175.26,543.55 184.68,529.27 192.12,513.29 197.65,492.69 200.50,471.64 200.80,455.63 199.01,440.41 194.75,425.81 188.49,411.30 177.53,392.64 167.21,374.51 163.20,362.71 160.92,352.05 160.14,345.25 160.22,338.98 161.00,333.25 162.51,327.83 164.66,322.86 167.69,318.20 171.15,314.47 175.34,310.93 180.11,307.87 190.81,303.58 202.24,300.93 211.38,300.04 220.72,300.43 233.31,302.55 246.29,306.25 259.49,311.58 271.78,318.26 280.76,324.86 288.64,332.48 295.48,341.07 301.28,350.96 306.51,364.06 310.04,378.31 311.35,392.91 310.77,408.09 308.15,426.08 303.43,444.53 285.79,485.83 225.56,616.10 216.60,645.21 211.86,670.26 210.70,687.36 211.96,703.13 216.12,718.44 221.90,731.80 226.35,739.07 231.57,745.08 239.55,751.41 247.17,756.17 249.95,757.59 252.44,758.53 255.22,759.29 258.05,759.76 260.87,760.00 264.03,759.88 267.99,759.41 272.51,758.47 277.08,756.76 282.76,753.29 288.51,748.61 293.94,743.02 302.14,731.51 309.49,717.12 318.40,692.16 326.22,662.28 342.32,566.00 352.29,534.42 368.93,504.81 409.24,447.06 423.52,415.45 435.66,378.28 455.93,293.16 469.99,210.15 471.86,181.34 470.67,157.67 467.62,140.07 462.79,124.68 457.29,113.44 450.93,104.02 445.51,97.87 439.37,92.80 430.49,87.59 420.72,83.89 414.13,82.59 407.42,82.15 400.78,82.44 391.79,84.09 381.93,87.71 356.56,102.90 330.76,118.50 319.48,122.94 309.06,125.36 297.65,126.36 286.24,125.59 275.14,122.91 264.51,118.50 255.27,112.91 245.73,104.99 224.55,80.24 203.40,55.92 194.04,48.83 185.08,44.27 175.16,41.30 165.59,40.00 159.28,40.09 153.20,41.30 147.93,43.12 142.47,45.74 137.17,49.15 131.22,54.25 125.44,60.46 120.41,67.28 114.71,78.26 110.32,91.42 102.17,145.84 82.25,253.57 61.55,366.83"
        fill="none"
        stroke="#e94560"
        stroke-width="8.0"
        stroke-linejoin="round"
        stroke-linecap="round"/>
  <!-- Start/finish line -->
  <line x1="81.23" y1="370.43" x2="41.88" y2="363.23"
        stroke="#f5f5f5" stroke-width="9.6"
        stroke-linecap="round"/>
</svg>
