<?xml version="1.0" encoding="utf-8"?>
<svg xmlns="http://www.w3.org/2000/svg"
     width="800.0" height="703.1"
     viewBox="0 0 800.0 703.1">
  <rect width="100%" height="100%" fill="#1a1a2e"/>
  <!-- Track outline -->
  <polyline points="326.96,614.15 297.32,605.00 275.59,598.09 268.68,593.52 267.46,590.06 268.25,582.50 271.20,574.66 333.80,432.91 342.07,422.55 348.26,417.69 360.71,411.63 380.36,404.44 401.15,399.30 421.08,396.41 437.56,396.59 456.92,398.74 470.88,402.01 484.33,407.05 494.70,413.03 503.19,420.78 507.29,427.59 509.45,435.62 509.52,443.56 507.36,452.43 504.63,458.50 500.60,463.73 494.77,468.40 488.87,471.38 479.30,472.79 471.45,472.32 456.49,469.70 444.25,467.46 434.83,467.46 424.61,468.40 413.46,471.66 405.54,475.77 398.85,482.50 393.02,490.34 387.48,500.24 382.95,509.57 380.64,517.79 379.13,525.63 380.07,532.45 382.80,538.61 387.34,544.87 393.88,550.38 401.51,555.23 411.30,559.72 422.38,563.64 435.26,567.84 448.71,570.83 463.11,571.01 478.00,569.33 492.54,565.69 507.07,560.46 518.51,554.67 531.61,547.20 542.83,537.12 551.83,526.01 559.38,514.34 568.02,498.46 574.50,482.87 578.31,468.77 581.48,452.99 583.71,431.42 583.20,411.35 580.18,392.76 573.27,377.26 564.42,366.06 552.40,355.51 539.16,346.92 526.21,341.04 511.75,335.81 496.42,332.35 480.74,330.39 467.71,330.76 339.70,352.89 329.70,354.39 322.07,354.76 311.42,354.01 293.79,351.31 247.74,340.85 68.49,294.16 58.78,290.33 50.65,284.73 44.17,275.49 41.51,266.99 40.00,257.56 40.94,245.14 43.96,234.12 47.70,224.88 51.73,216.10 133.26,58.67 139.59,50.64 146.21,44.86 153.76,41.87 163.48,40.28 173.26,40.00 182.26,40.75 194.13,43.55 561.83,131.51 571.98,134.68 581.91,138.23 589.61,142.43 595.79,147.47 601.91,154.57 606.52,162.13 613.64,176.32 646.31,255.88 652.93,266.99 661.64,275.21 673.87,281.46 687.18,285.10 699.84,286.51 715.10,284.73 728.63,281.28 740.57,274.37 749.49,265.03 756.26,252.52 760.00,237.20 758.27,224.88 753.88,213.21 748.06,203.59 738.84,195.65 729.42,190.14 721.43,187.16 714.24,185.57 704.31,185.01 695.53,186.41 684.59,189.30 539.96,252.24 529.59,256.25 519.66,259.24 505.56,262.79 357.55,290.99 348.33,291.17 335.67,290.89 306.24,286.97 263.64,279.88 220.11,271.29 205.14,267.64 194.20,262.88 183.77,255.88 175.21,247.20 169.88,235.34 167.08,220.49 167.58,206.95 171.18,192.01 177.44,175.58 185.86,161.48 196.00,149.25 207.66,139.72 221.55,133.93 237.67,129.64 250.55,129.08 274.87,131.60 301.13,136.92 511.10,182.21 523.69,185.29 533.62,188.84 542.98,194.63 550.61,201.72 558.81,211.62 565.79,224.41 594.79,283.24 604.72,300.04 618.75,318.81 632.42,335.34 648.11,352.80 661.06,367.18 669.12,377.54 672.36,387.54 673.00,396.78 671.71,406.49 669.05,417.98 663.36,434.60 653.65,455.14 635.80,493.98 618.68,530.21 604.79,559.62 593.56,582.41 582.48,603.04 573.70,617.05 563.63,630.68 552.19,644.41 542.62,652.72 532.40,658.50 522.33,662.15 512.11,662.99 500.74,663.08 490.23,661.59 479.94,659.25 326.96,614.15"
        fill="none"
        stroke="#e94560"
        stroke-width="8.0"
        stroke-linejoin="round"
        stroke-linecap="round"/>
  <!-- Start/finish line -->
  <line x1="321.27" y1="633.32" x2="332.66" y2="594.98"
        stroke="#f5f5f5" stroke-width="9.6"
        stroke-linecap="round"/>
</svg>
