<?xml version="1.0" encoding="utf-8"?>
<svg xmlns="http://www.w3.org/2000/svg"
     width="765.7" height="800.0"
     viewBox="0 0 765.7 800.0">
  <rect width="100%" height="100%" fill="#1a1a2e"/>
  <!-- Track outline -->
  <polyline points="480.54,328.90 490.25,382.89 496.15,412.81 519.51,513.08 526.86,529.84 534.86,542.69 542.74,552.18 551.30,559.99 561.05,566.96 571.45,572.53 581.95,576.72 594.39,579.44 630.58,579.55 666.30,578.22 677.29,578.53 686.45,579.72 695.22,582.22 703.36,585.98 710.34,590.99 716.24,596.77 719.51,601.21 722.04,605.97 723.93,610.81 725.19,616.22 725.69,624.23 725.04,632.66 722.98,641.04 719.77,649.03 715.43,656.81 709.92,664.09 701.22,672.58 690.53,680.45 672.72,689.99 652.75,698.37 609.03,711.85 592.41,714.34 576.90,714.96 564.71,714.14 552.23,711.76 511.86,697.44 438.80,664.45 426.44,657.12 416.22,649.54 406.33,640.48 397.34,630.26 389.71,619.33 383.17,607.50 378.04,595.29 374.22,582.47 371.96,569.14 371.05,556.26 371.27,547.51 372.43,538.87 375.09,527.12 379.43,513.79 393.33,484.01 406.41,455.19 409.14,445.25 410.27,436.42 410.11,427.33 408.67,418.50 405.89,410.06 401.97,402.34 396.76,395.34 390.66,389.45 383.57,384.64 375.90,381.16 367.66,378.95 358.81,378.13 347.02,378.75 334.42,381.39 319.28,387.19 304.19,395.57 289.87,406.50 276.97,419.26 267.74,431.10 259.87,444.52 252.09,462.86 246.26,482.48 243.43,499.04 242.62,516.08 244.20,537.23 248.46,559.09 256.58,583.57 268.45,608.68 321.03,683.08 328.50,694.49 333.49,703.81 335.29,709.13 336.16,714.19 336.34,719.35 335.65,724.67 334.18,729.68 332.00,734.86 329.35,739.65 324.04,746.30 318.17,751.68 313.54,754.79 308.84,757.03 303.81,758.73 298.68,759.75 293.53,760.00 288.40,759.55 283.55,758.44 278.67,756.46 272.29,752.64 265.88,747.35 259.26,739.99 252.54,729.79 225.13,664.43 132.73,457.17 82.73,345.21 72.53,308.38 70.41,279.90 73.40,242.95 75.80,206.83 74.71,194.37 71.85,182.96 60.58,159.30 48.44,136.82 44.12,127.53 41.21,119.52 40.18,113.80 40.00,108.34 40.57,103.02 41.98,97.70 45.23,90.50 49.85,83.48 57.59,75.50 66.72,68.56 76.81,62.99 88.87,58.32 149.97,44.36 169.99,41.19 187.49,40.00 198.32,40.93 208.05,43.34 217.12,47.13 225.13,51.92 229.90,55.71 234.10,60.30 239.07,67.35 243.71,76.43 254.43,115.90 274.67,197.68 275.86,209.46 275.70,218.95 274.73,225.65 273.05,231.74 270.69,237.71 267.72,243.26 264.15,248.47 260.13,253.12 255.61,257.28 250.74,260.76 245.59,263.56 239.88,265.68 231.56,267.30 221.58,268.12 198.74,267.30 176.33,267.38 170.31,268.71 165.22,270.55 160.56,273.16 156.38,276.33 152.54,280.12 149.31,284.45 146.88,288.98 144.97,293.97 143.75,299.12 143.33,304.21 143.55,309.48 144.36,314.55 145.85,319.61 147.97,324.51 150.56,329.01 155.71,335.44 161.79,340.82 168.96,345.35 177.03,348.69 187.82,351.43 201.02,352.37 238.70,347.75 276.93,338.67 292.08,332.72 304.92,325.22 317.58,315.20 328.54,303.59 335.43,293.54 340.64,282.67 344.11,271.74 346.03,258.72 341.41,191.63 340.30,160.51 341.69,149.87 344.03,140.73 346.54,134.81 349.59,129.74 353.16,124.99 357.42,120.68 364.57,115.42 372.20,111.20 377.80,109.19 383.27,108.08 389.00,107.58 394.78,107.80 400.51,108.71 406.17,110.29 411.52,112.42 416.89,115.45 423.86,120.65 430.72,127.56 437.87,137.67 444.21,149.87 449.46,164.28 454.43,183.61 480.54,328.90"
        fill="none"
        stroke="#e94560"
        stroke-width="8.0"
        stroke-linejoin="round"
        stroke-linecap="round"/>
  <!-- Start/finish line -->
  <line x1="500.23" y1="325.36" x2="460.86" y2="332.44"
        stroke="#f5f5f5" stroke-width="9.6"
        stroke-linecap="round"/>
</svg>
