<?xml version="1.0" encoding="utf-8"?>
<svg xmlns="http://www.w3.org/2000/svg"
     width="449.3" height="800.0"
     viewBox="0 0 449.3 800.0">
  <rect width="100%" height="100%" fill="#1a1a2e"/>
  <!-- Track outline -->
  <polyline points="68.01,548.38 63.36,536.52 48.17,479.85 41.87,441.06 40.00,401.75 41.65,359.45 51.98,270.58 55.60,255.39 94.59,99.22 100.73,81.82 108.68,67.08 113.17,60.79 118.28,55.05 124.60,49.38 131.66,44.72 135.47,42.85 139.50,41.22 143.58,40.17 147.48,40.00 150.51,40.65 153.56,41.87 156.48,43.53 159.16,45.54 161.35,47.78 163.78,52.26 165.22,57.63 166.70,63.68 174.92,96.06 178.33,104.48 182.39,111.79 187.39,118.51 193.88,124.87 208.18,134.00 222.75,142.77 235.30,153.91 247.25,167.47 267.50,195.73 344.18,337.00 398.42,451.49 404.64,469.46 408.10,486.89 409.32,503.43 408.64,512.67 406.99,521.71 404.56,529.39 401.02,536.39 397.80,540.77 393.96,544.78 389.64,548.07 384.69,550.59 379.17,552.32 372.90,553.51 355.97,553.48 337.51,552.83 304.19,557.01 295.92,557.18 288.35,556.43 279.72,554.32 271.50,550.86 266.48,547.60 261.82,543.69 258.09,539.31 256.07,535.94 254.44,532.31 253.39,528.50 253.09,524.77 253.66,520.72 255.06,516.58 257.20,512.50 260.09,508.70 268.75,502.55 279.99,497.15 289.76,491.68 297.19,485.49 303.17,479.04 307.76,472.55 311.39,465.59 314.12,457.94 315.85,449.89 316.58,441.36 316.36,432.70 315.41,424.61 313.17,415.03 283.35,336.66 261.20,295.04 240.25,261.68 233.84,253.63 227.81,247.61 221.29,241.87 214.40,236.98 207.50,233.34 200.12,230.66 190.93,228.52 181.38,227.87 175.22,228.65 169.08,230.25 163.38,232.43 156.32,236.30 149.88,241.12 143.61,246.97 137.80,253.56 132.47,260.39 127.15,269.05 113.60,298.16 100.51,333.46 91.02,370.56 85.59,402.19 85.10,410.72 85.75,417.95 87.72,426.86 90.99,435.32 93.64,439.97 96.75,444.25 100.49,447.89 103.95,450.30 107.84,452.40 111.92,454.00 115.98,454.78 120.03,454.68 124.23,453.86 128.28,452.51 131.90,450.67 135.88,447.61 139.34,443.74 142.26,439.46 145.61,432.33 148.24,423.46 157.51,371.31 159.92,363.12 162.84,356.29 165.59,351.30 168.81,346.47 172.60,342.30 175.87,339.65 179.49,337.27 183.33,335.40 187.23,334.21 191.23,333.80 195.42,334.01 199.58,334.82 203.53,336.15 208.75,339.14 213.64,343.18 218.02,347.60 223.46,354.32 227.67,361.86 230.46,370.94 232.14,380.31 233.41,396.76 232.81,414.42 231.22,423.66 228.76,432.87 220.89,451.38 213.07,465.04 194.50,492.90 186.33,507.85 179.30,525.01 171.14,561.02 166.13,595.06 165.46,613.47 165.89,621.80 167.35,629.95 169.35,635.83 172.06,641.60 175.44,646.80 179.60,651.22 184.44,655.06 189.55,658.18 194.58,660.46 199.88,662.09 205.15,662.87 209.02,662.90 212.97,662.56 216.81,661.68 220.32,660.25 223.75,657.98 227.00,654.99 229.86,651.62 232.22,648.09 234.68,640.72 236.46,632.94 239.09,624.75 242.74,617.07 245.33,613.61 248.39,610.31 251.74,607.49 255.28,605.56 258.93,604.61 262.85,604.33 266.85,604.67 270.69,605.49 275.97,607.70 281.05,610.99 285.73,614.70 291.62,620.64 296.62,627.47 300.98,635.59 304.22,644.15 306.01,651.83 306.95,659.64 307.14,676.49 304.30,694.40 301.60,703.60 297.98,712.64 293.11,721.61 287.54,729.80 282.67,735.74 277.18,741.04 269.56,746.89 261.04,751.95 251.71,755.99 242.25,758.78 234.52,759.80 226.92,760.00 219.29,759.83 211.51,758.88 201.99,756.57 192.50,753.10 183.39,748.28 174.92,742.78 162.35,732.82 150.75,720.79 139.91,707.44 129.82,693.07 112.36,661.41 68.01,548.38"
        fill="none"
        stroke="#e94560"
        stroke-width="8.0"
        stroke-linejoin="round"
        stroke-linecap="round"/>
  <!-- Start/finish line -->
  <line x1="49.39" y1="555.68" x2="86.63" y2="541.08"
        stroke="#f5f5f5" stroke-width="9.6"
        stroke-linecap="round"/>
</svg>
