<?xml version="1.0" encoding="utf-8"?>
<svg xmlns="http://www.w3.org/2000/svg"
     width="800.0" height="409.0"
     viewBox="0 0 800.0 409.0">
  <rect width="100%" height="100%" fill="#1a1a2e"/>
  <!-- Track outline -->
  <polyline points="312.85,117.25 307.16,117.95 302.89,119.58 298.61,122.55 294.04,125.52 290.74,130.11 287.48,135.06 283.55,141.63 280.63,155.41 281.31,163.68 283.64,170.89 286.95,179.44 293.56,184.95 301.43,187.28 311.29,190.25 320.14,192.51 328.01,192.51 337.44,190.82 346.28,188.77 355.46,185.80 364.36,183.61 380.49,180.85 396.19,180.78 404.35,183.04 412.56,186.51 420.14,191.10 426.46,196.54 430.64,201.70 434.28,207.78 437.20,214.28 439.14,220.92 439.87,227.36 439.29,233.72 437.54,240.36 434.82,246.86 431.42,252.87 427.48,258.10 421.70,263.47 414.80,267.92 407.26,271.46 399.49,274.21 388.12,276.33 376.12,276.83 364.36,276.33 348.52,274.35 333.11,270.47 317.32,264.46 302.01,256.61 273.20,235.91 247.73,212.59 221.49,189.97 204.58,179.72 187.72,172.51 169.35,167.50 150.50,165.45 131.60,167.07 113.18,171.74 95.74,179.16 79.80,189.26 70.32,197.46 61.72,206.72 54.48,216.90 48.65,227.99 44.13,239.87 41.21,252.02 40.00,264.25 40.29,276.69 42.28,288.77 46.07,300.43 51.52,311.74 58.17,322.13 66.14,331.53 75.42,339.94 85.43,347.29 102.10,355.91 119.98,362.27 138.40,366.58 157.16,368.99 194.48,368.99 283.55,358.74 377.77,339.73 415.09,323.61 443.66,306.30 458.92,295.63 470.97,284.04 480.06,269.55 487.35,253.86 493.37,237.60 499.88,221.70 508.82,207.36 519.81,194.92 526.17,189.76 533.12,185.09 540.51,181.42 548.14,179.16 556.83,178.45 566.21,179.09 575.35,181.21 583.51,184.53 590.46,189.40 596.73,195.84 602.27,203.11 607.13,210.61 611.89,221.56 615.39,233.29 620.10,244.39 626.90,254.78 634.92,264.53 643.96,272.52 653.73,278.17 664.42,282.13 675.40,284.39 686.82,284.74 698.48,283.26 709.61,280.22 720.15,275.48 730.16,269.12 738.91,261.56 746.44,252.73 752.76,242.69 757.28,232.02 759.51,220.78 760.00,208.98 759.51,197.18 756.50,179.51 753.15,161.84 753.39,143.96 753.15,126.15 749.31,108.55 742.80,91.87 736.87,81.49 729.73,71.66 721.51,63.04 712.09,55.55 701.59,49.26 690.61,44.52 679.29,41.48 667.48,40.00 655.77,40.21 639.25,45.23 621.07,51.73 586.28,55.83 548.72,61.34 514.85,76.40 480.93,90.67 439.72,103.47 385.45,104.45 374.27,105.44 364.70,107.42 356.49,108.77 348.27,110.04 339.62,111.80 312.85,117.25"
        fill="none"
        stroke="#e94560"
        stroke-width="8.0"
        stroke-linejoin="round"
        stroke-linecap="round"/>
  <!-- Start/finish line -->
  <line x1="316.57" y1="136.90" x2="309.13" y2="97.60"
        stroke="#f5f5f5" stroke-width="9.6"
        stroke-linecap="round"/>
</svg>
