<?xml version="1.0" encoding="utf-8"?>
<svg xmlns="http://www.w3.org/2000/svg"
     width="800.0" height="599.0"
     viewBox="0 0 800.0 599.0">
  <rect width="100%" height="100%" fill="#1a1a2e"/>
  <!-- Track outline -->
  <polyline points="486.92,54.59 429.19,49.31 309.72,40.00 277.49,40.11 247.89,43.45 217.75,48.85 188.43,57.00 160.56,68.15 134.32,82.17 110.90,98.60 89.93,117.44 72.32,138.00 57.98,160.98 50.26,178.56 44.45,197.17 40.91,215.90 40.00,233.83 41.36,251.75 44.81,269.21 54.53,294.49 68.42,318.27 86.39,340.22 107.18,360.32 127.97,378.13 154.57,396.63 249.16,449.37 364.19,501.87 439.72,528.30 516.25,549.78 577.07,558.98 593.50,558.52 607.67,556.45 619.83,552.43 630.54,546.11 638.26,538.98 645.25,530.02 651.06,519.91 655.33,509.46 657.96,499.12 658.69,488.78 657.87,477.86 655.51,466.95 651.88,456.61 647.07,447.18 638.35,436.38 627.09,426.73 614.47,418.35 601.49,411.34 576.62,402.72 545.66,396.52 329.05,364.92 273.68,351.36 254.97,345.85 236.64,339.41 220.84,330.22 211.22,320.80 202.68,309.66 196.06,297.48 192.06,285.18 190.88,274.96 191.34,264.04 193.24,253.01 196.42,242.44 200.78,232.79 208.67,221.30 219.11,210.62 231.01,201.31 243.54,193.84 261.96,186.72 282.03,182.70 301.64,182.01 325.69,187.41 354.29,198.44 626.46,301.50 655.78,310.00 679.84,312.41 692.82,310.69 705.89,307.36 718.24,302.19 729.04,295.41 737.03,288.17 744.39,279.44 750.83,269.67 755.82,259.45 759.00,249.22 760.00,235.78 758.28,221.42 754.46,207.17 749.38,194.07 740.21,179.02 728.41,165.23 715.52,152.60 696.45,136.28 672.30,120.77 601.13,85.15 521.60,57.69 486.92,54.59"
        fill="none"
        stroke="#e94560"
        stroke-width="8.0"
        stroke-linejoin="round"
        stroke-linecap="round"/>
  <!-- Start/finish line -->
  <line x1="485.12" y1="74.51" x2="488.73" y2="34.67"
        stroke="#f5f5f5" stroke-width="9.6"
        stroke-linecap="round"/>
</svg>
