<?xml version="1.0" encoding="utf-8"?>
<svg xmlns="http://www.w3.org/2000/svg"
     width="233.0" height="800.0"
     viewBox="0 0 233.0 800.0">
  <rect width="100%" height="100%" fill="#1a1a2e"/>
  <!-- Track outline -->
  <polyline points="167.38,600.36 166.73,585.87 167.30,564.73 169.73,544.27 172.53,467.07 163.19,384.94 164.00,365.91 166.07,355.74 167.50,345.64 167.23,340.64 166.54,335.51 165.23,330.74 163.08,326.73 161.00,324.49 158.43,322.41 155.50,320.60 152.43,319.22 149.35,318.33 146.47,318.06 143.59,318.48 140.67,319.49 137.75,321.03 134.90,323.03 132.25,325.53 129.87,328.46 127.18,334.70 125.41,343.49 124.14,353.66 123.02,364.06 121.72,373.53 119.76,380.85 116.80,384.90 114.80,385.59 112.45,385.67 109.96,385.21 107.34,384.36 104.73,383.20 102.27,381.78 100.04,380.28 98.16,378.77 95.39,375.65 93.35,371.92 91.74,367.26 90.05,361.25 81.13,289.17 74.59,204.46 68.21,129.22 67.52,118.13 68.29,108.96 69.02,106.07 69.94,102.95 71.02,99.83 72.29,96.86 73.75,94.36 75.48,92.51 77.44,91.58 81.44,92.31 86.66,95.28 92.58,99.90 98.69,105.49 104.54,111.46 109.57,117.16 113.34,121.90 115.30,125.68 116.41,129.57 117.22,133.34 118.30,136.65 120.22,139.16 122.29,140.51 124.87,141.62 127.71,142.43 130.67,142.93 133.63,143.09 136.36,142.86 138.75,142.20 141.74,140.35 144.47,137.54 146.93,134.04 148.93,130.30 150.47,126.56 151.66,119.94 151.55,112.77 150.89,105.68 149.16,95.63 146.43,86.00 143.24,77.56 139.13,69.62 133.67,61.77 127.21,54.68 119.83,48.74 111.72,44.16 106.15,42.04 100.31,40.58 94.31,40.00 87.28,40.54 80.01,42.12 73.44,44.62 68.29,47.82 63.68,51.75 59.45,56.14 53.41,63.69 48.38,72.13 44.54,81.64 41.92,91.78 40.46,101.17 40.00,113.73 56.76,346.84 59.76,365.02 63.68,378.08 69.02,390.75 74.71,399.61 81.44,407.24 89.08,413.52 97.43,418.88 106.19,423.08 114.91,427.27 122.99,432.44 130.29,438.52 136.48,445.96 141.36,454.39 144.74,463.87 146.59,473.93 146.86,484.48 145.63,495.11 142.59,506.13 138.40,516.61 129.29,532.29 118.26,547.62 108.65,564.46 104.96,573.70 102.08,583.29 100.04,592.19 99.00,603.17 102.08,654.18 108.19,705.49 110.26,717.32 113.03,726.68 117.03,735.65 122.18,743.70 126.18,748.37 130.67,752.57 135.75,755.88 140.40,757.84 145.55,759.27 150.85,760.00 155.93,759.88 160.85,758.73 165.77,756.65 170.46,753.95 174.65,750.99 179.14,746.86 183.03,742.13 186.29,737.00 189.06,731.38 191.17,725.41 192.56,719.20 192.98,709.38 192.17,699.25 188.41,677.79 171.07,625.78 167.65,606.37 167.38,600.36"
        fill="none"
        stroke="#e94560"
        stroke-width="8.0"
        stroke-linejoin="round"
        stroke-linecap="round"/>
  <!-- Start/finish line -->
  <line x1="147.40" y1="601.26" x2="187.36" y2="599.46"
        stroke="#f5f5f5" stroke-width="9.6"
        stroke-linecap="round"/>
</svg>
