<?xml version="1.0" encoding="utf-8"?>
<svg xmlns="http://www.w3.org/2000/svg"
     width="800.0" height="372.9"
     viewBox="0 0 800.0 372.9">
  <rect width="100%" height="100%" fill="#1a1a2e"/>
  <!-- Track outline -->
  <polyline points="402.93,59.56 435.30,67.62 480.72,85.86 507.66,100.45 518.70,108.56 528.74,117.51 537.78,127.14 545.86,137.51 558.69,160.66 569.87,185.58 576.12,196.94 583.27,207.41 591.52,216.10 600.78,223.58 610.89,229.82 621.79,234.44 633.65,236.99 645.98,237.83 672.13,235.22 698.40,230.46 723.77,228.44 729.88,229.87 735.24,232.03 740.03,234.83 744.39,238.17 749.64,243.78 753.96,250.46 757.14,257.59 759.18,265.35 760.00,273.61 759.39,281.67 757.00,289.78 753.10,297.69 748.21,304.97 742.03,311.75 734.77,317.85 727.23,322.96 717.05,328.22 705.33,331.75 657.23,332.93 426.91,327.23 373.09,322.51 346.83,317.60 332.97,312.54 319.75,306.15 311.96,302.02 304.63,297.55 298.52,291.89 294.70,286.29 291.55,279.80 289.30,272.97 288.16,266.34 288.23,260.19 289.34,253.95 291.23,247.90 293.70,242.15 298.20,234.63 303.99,227.66 310.56,221.71 318.00,216.84 326.21,213.01 334.75,210.31 343.69,208.78 352.98,208.49 362.12,209.32 375.45,213.01 389.10,219.25 409.11,233.01 429.16,246.43 438.30,250.31 447.09,253.02 455.74,254.20 464.07,253.75 472.25,252.03 479.75,249.08 484.68,246.23 489.37,242.70 493.51,238.66 496.91,234.19 499.55,229.18 501.51,223.58 502.80,217.73 503.37,211.88 502.91,203.37 501.01,194.63 497.91,186.27 493.05,177.87 486.79,169.90 480.04,162.78 470.14,154.81 459.49,148.03 435.98,135.25 423.55,130.83 409.43,127.24 351.26,118.54 336.04,117.56 322.39,118.05 309.63,120.31 297.59,124.29 286.59,130.09 276.37,137.32 266.86,145.57 258.36,154.81 251.46,164.35 244.89,176.05 231.63,210.06 217.09,243.14 211.37,250.76 205.47,256.60 198.76,260.93 192.50,263.49 185.50,265.25 178.46,265.94 171.92,265.30 167.10,263.68 162.35,261.13 157.84,257.88 153.88,254.15 150.66,250.12 147.62,244.32 145.48,237.68 144.37,230.80 144.30,224.36 146.09,217.14 149.48,210.21 153.34,203.47 159.99,193.74 166.71,184.06 170.64,177.33 174.21,170.44 176.32,163.22 176.75,158.21 176.64,152.75 175.96,147.29 174.60,142.33 172.42,138.20 170.35,135.84 167.71,133.58 164.67,131.52 161.42,129.85 158.13,128.62 154.95,127.98 152.09,128.03 148.13,129.60 144.27,132.75 140.55,136.92 137.12,141.49 134.12,146.02 128.51,158.16 124.01,172.31 117.93,196.94 110.50,220.68 106.96,227.26 103.07,233.11 98.78,238.12 93.85,241.91 89.49,244.02 84.63,245.50 79.56,246.38 74.52,246.53 69.84,245.94 64.23,243.97 58.76,240.83 53.76,236.80 49.54,232.23 46.04,226.67 43.36,220.23 41.39,213.45 40.14,206.82 40.00,194.87 42.14,181.90 58.62,131.81 68.76,108.91 75.84,97.95 84.09,87.72 93.53,78.58 103.92,70.47 115.22,63.30 127.22,57.10 153.13,47.72 180.78,42.11 209.55,40.00 300.95,44.33 388.39,55.92 402.93,59.56"
        fill="none"
        stroke="#e94560"
        stroke-width="8.0"
        stroke-linejoin="round"
        stroke-linecap="round"/>
  <!-- Start/finish line -->
  <line x1="407.77" y1="40.16" x2="398.09" y2="78.97"
        stroke="#f5f5f5" stroke-width="9.6"
        stroke-linecap="round"/>
</svg>
