<?xml version="1.0" encoding="utf-8"?>
<svg xmlns="http://www.w3.org/2000/svg"
     width="655.4" height="800.0"
     viewBox="0 0 655.4 800.0">
  <rect width="100%" height="100%" fill="#1a1a2e"/>
  <!-- Track outline -->
  <polyline points="545.71,545.44 541.42,567.50 535.40,594.43 521.77,636.60 514.23,654.55 504.48,672.33 492.69,689.62 478.61,706.03 462.28,720.99 436.93,737.65 415.66,747.20 377.65,757.63 354.58,759.83 332.44,760.00 310.72,757.05 172.64,719.95 129.41,704.82 109.97,695.56 92.57,684.34 77.25,670.96 68.40,660.74 60.37,649.73 50.90,631.78 44.36,612.63 40.86,592.52 40.00,571.24 47.30,502.31 67.57,408.25 74.21,389.63 79.08,379.16 84.83,369.32 90.95,361.46 98.00,354.77 103.99,350.62 110.56,347.13 117.20,344.72 123.63,343.51 130.14,343.27 136.43,344.14 142.38,346.22 148.12,349.33 153.48,353.24 158.50,357.97 163.06,363.50 167.11,369.61 172.13,380.33 175.93,391.75 180.12,412.53 193.64,522.59 200.18,543.57 219.86,583.50 232.72,600.62 247.42,615.37 255.14,621.81 263.82,627.79 278.72,635.56 294.15,641.84 304.11,644.58 313.69,646.16 334.00,646.95 354.68,644.41 374.84,638.84 394.39,630.16 403.55,624.63 412.23,618.28 420.15,611.17 427.49,603.28 440.15,585.62 449.93,565.84 458.37,536.55 497.35,297.94 498.43,269.10 497.11,247.74 495.38,237.19 492.72,227.80 488.50,216.29 482.97,205.32 476.08,195.77 468.06,187.50 458.96,180.68 449.07,175.32 438.49,171.42 427.45,169.09 415.80,168.39 403.90,169.13 392.10,170.92 379.13,174.66 321.99,203.29 262.50,241.14 243.51,251.36 225.01,259.29 206.33,264.90 194.61,267.19 182.64,268.14 171.36,267.11 160.47,264.45 150.34,260.50 140.96,255.02 132.94,248.12 125.99,239.97 120.31,231.17 115.89,221.57 112.91,211.68 111.32,201.42 111.22,190.95 112.46,180.48 115.02,169.76 118.83,159.29 124.05,148.61 130.34,138.35 146.22,118.32 160.40,103.69 176.59,89.61 194.71,76.31 214.63,64.14 236.60,54.21 259.11,46.52 282.60,41.62 307.09,40.00 331.99,41.45 365.61,48.02 443.19,64.97 498.05,66.47 520.18,69.71 540.59,75.94 558.99,84.83 567.36,90.23 575.49,96.59 584.97,105.52 593.75,115.66 600.70,126.09 606.41,137.31 610.59,149.23 613.50,161.20 614.92,170.13 615.37,180.27 609.04,242.84 557.92,475.18 546.92,539.29 545.71,545.44"
        fill="none"
        stroke="#e94560"
        stroke-width="8.0"
        stroke-linejoin="round"
        stroke-linecap="round"/>
  <!-- Start/finish line -->
  <line x1="565.34" y1="549.27" x2="526.08" y2="541.62"
        stroke="#f5f5f5" stroke-width="9.6"
        stroke-linecap="round"/>
</svg>
