<?xml version="1.0" encoding="utf-8"?>
<svg xmlns="http://www.w3.org/2000/svg"
     width="800.0" height="708.3"
     viewBox="0 0 800.0 708.3">
  <rect width="100%" height="100%" fill="#1a1a2e"/>
  <!-- Track outline -->
  <polyline points="386.71,643.73 358.42,648.54 254.99,665.84 222.92,668.28 192.14,666.89 162.73,661.04 135.08,651.20 110.40,637.13 99.34,628.80 89.13,619.53 79.88,609.63 71.75,598.98 65.15,587.81 58.51,574.55 53.40,563.15 48.30,548.56 43.56,526.56 40.80,508.44 40.00,493.51 41.60,482.45 44.36,471.05 49.89,459.64 55.79,450.21 62.07,441.52 70.31,433.65 80.57,425.78 93.18,418.71 109.71,412.00 129.39,405.69 152.20,401.00 241.54,388.78 263.34,382.53 283.39,373.79 292.64,368.18 301.36,361.75 317.31,346.18 346.77,311.56 355.28,303.86 363.89,297.78 374.16,292.40 385.06,288.52 395.69,286.61 406.54,286.44 418.13,288.46 429.25,292.40 438.55,297.96 447.27,304.61 464.61,319.38 474.71,325.63 485.35,330.95 495.61,335.12 506.14,338.19 516.99,340.10 527.99,340.91 539.11,340.56 550.17,338.94 561.23,335.82 571.97,331.36 582.34,325.63 592.12,318.74 601.22,310.75 609.51,301.83 616.85,292.40 623.23,282.38 628.34,272.14 632.27,261.49 634.82,250.49 635.89,239.37 635.41,228.37 633.28,217.55 629.13,206.66 623.29,196.59 615.79,187.85 606.85,180.38 596.32,174.48 585.05,169.96 574.90,166.78 562.93,164.69 530.12,163.25 490.24,166.03 433.50,178.47 377.35,197.05 336.03,216.62 303.49,235.78 284.56,250.66 250.84,282.44 233.03,295.52 222.50,300.91 211.49,305.13 200.54,307.91 189.53,309.07 178.74,308.32 168.26,305.77 158.10,301.26 148.74,295.00 140.24,286.90 133.11,277.52 127.90,267.80 123.91,257.43 120.83,246.14 118.86,234.68 118.17,223.92 118.54,213.15 122.74,191.27 129.28,169.50 138.75,148.37 151.78,129.03 183.79,94.07 202.35,78.67 222.71,65.70 244.67,55.11 267.96,47.35 292.43,42.43 318.11,40.00 344.64,40.69 371.55,44.46 425.15,60.61 452.54,65.93 482.95,68.89 545.06,65.65 601.70,61.94 627.38,64.83 651.79,70.68 675.08,80.41 686.30,87.01 696.93,94.71 707.09,103.79 716.45,113.93 732.51,136.91 745.48,163.02 754.84,190.74 759.52,218.99 760.00,247.07 755.75,274.57 747.34,300.68 735.38,325.11 719.85,347.45 701.03,367.08 678.64,383.57 653.54,397.47 626.21,410.15 596.59,421.26 565.06,430.52 531.82,437.99 497.05,443.43 394.58,448.93 233.19,449.80 211.76,453.74 200.22,457.21 189.10,461.84 179.16,467.57 170.17,474.40 162.52,482.10 155.92,490.90 150.13,501.44 145.93,512.78 143.69,524.71 143.43,536.69 144.38,543.93 146.25,550.93 148.85,557.59 152.31,563.84 156.61,569.75 161.51,575.02 170.07,581.85 179.75,587.35 190.75,591.46 202.24,594.35 224.31,597.25 244.83,597.71 273.23,595.05 459.24,547.11 632.96,501.21 646.15,499.70 655.83,500.40 663.33,502.07 670.72,504.68 677.42,508.27 683.21,512.73 688.37,518.05 692.52,523.96 695.66,530.44 697.84,537.50 698.95,544.74 698.85,552.38 697.57,560.14 695.39,567.55 692.31,574.32 688.32,580.69 683.64,586.54 674.92,594.47 665.03,601.12 654.92,606.39 644.34,610.68 621.10,617.45 386.71,643.73"
        fill="none"
        stroke="#e94560"
        stroke-width="8.0"
        stroke-linejoin="round"
        stroke-linecap="round"/>
  <!-- Start/finish line -->
  <line x1="389.06" y1="663.59" x2="384.36" y2="623.87"
        stroke="#f5f5f5" stroke-width="9.6"
        stroke-linecap="round"/>
</svg>
