<?xml version="1.0" encoding="utf-8"?>
<svg xmlns="http://www.w3.org/2000/svg"
     width="800.0" height="605.2"
     viewBox="0 0 800.0 605.2">
  <rect width="100%" height="100%" fill="#1a1a2e"/>
  <!-- Track outline -->
  <polyline points="297.21,81.03 321.68,87.71 401.41,107.83 450.65,125.50 482.41,140.27 528.42,168.37 557.33,191.19 583.45,216.75 615.85,254.51 660.56,315.79 730.57,424.51 749.90,459.66 755.66,476.23 759.31,492.77 760.00,500.99 759.95,509.14 759.24,517.00 757.67,524.78 754.92,533.23 751.07,541.22 746.36,547.97 740.68,553.72 733.98,558.16 726.50,561.47 717.92,563.71 709.06,564.88 701.53,565.24 692.68,564.68 623.11,551.48 489.82,518.33 443.76,502.60 400.33,481.04 373.62,463.57 338.53,433.43 313.76,404.80 303.98,390.26 296.77,375.80 291.86,361.19 290.00,352.14 288.89,342.82 288.75,333.96 289.46,325.31 291.00,317.26 293.38,309.54 296.40,302.52 300.32,295.94 305.72,289.26 312.14,283.51 317.10,280.47 322.47,278.03 327.91,276.26 335.54,274.96 343.29,274.86 351.48,275.83 359.67,277.83 368.16,281.10 376.22,285.18 389.10,293.80 401.16,304.83 411.73,317.82 456.79,385.89 468.12,396.85 480.25,406.40 488.15,411.18 496.54,415.26 504.80,418.10 513.19,419.97 521.38,420.90 529.50,420.90 537.17,420.10 544.73,418.30 552.89,414.89 560.55,410.28 567.00,404.73 572.32,398.28 575.02,393.60 577.17,388.63 578.62,383.55 579.36,378.54 579.45,373.42 578.84,368.44 576.71,361.96 572.71,354.48 551.13,321.13 523.42,284.41 503.82,263.60 483.64,246.02 464.27,231.59 441.58,218.72 394.30,201.11 340.08,185.51 224.89,159.42 205.32,157.61 190.04,157.71 182.17,158.48 175.10,160.05 167.03,162.76 159.41,166.63 154.70,169.97 150.38,173.92 147.00,178.36 145.23,182.14 143.98,186.31 143.27,190.59 143.12,194.73 143.93,199.68 145.65,204.56 147.76,209.33 156.81,224.40 175.32,251.94 182.14,266.14 184.50,273.42 186.02,281.00 186.58,289.79 185.89,298.58 184.74,303.93 183.00,309.10 180.60,313.95 177.26,318.69 173.17,323.07 168.68,326.51 164.09,328.65 159.14,329.95 154.04,330.82 145.58,331.29 136.99,330.82 121.22,328.08 104.72,322.34 91.45,315.29 78.77,306.03 67.10,294.64 57.17,281.51 49.29,266.77 43.68,250.73 40.64,233.52 40.00,215.48 41.25,196.84 54.52,123.56 60.26,106.59 68.03,90.85 77.94,76.79 89.44,64.69 102.19,54.63 115.71,46.88 123.87,43.51 132.36,41.10 139.35,40.00 148.40,40.37 297.21,81.03"
        fill="none"
        stroke="#e94560"
        stroke-width="8.0"
        stroke-linejoin="round"
        stroke-linecap="round"/>
  <!-- Start/finish line -->
  <line x1="302.48" y1="61.74" x2="291.94" y2="100.32"
        stroke="#f5f5f5" stroke-width="9.6"
        stroke-linecap="round"/>
</svg>
