<?xml version="1.0" encoding="utf-8"?>
<svg xmlns="http://www.w3.org/2000/svg"
     width="800.0" height="706.3"
     viewBox="0 0 800.0 706.3">
  <rect width="100%" height="100%" fill="#1a1a2e"/>
  <!-- Track outline -->
  <polyline points="277.84,163.15 414.41,65.67 436.60,53.40 454.88,46.03 472.04,41.62 488.77,40.00 504.72,41.08 519.85,44.70 531.98,49.86 543.20,57.18 555.45,69.41 567.26,84.56 573.98,95.25 580.60,112.35 587.38,134.90 590.70,156.78 591.48,178.54 589.64,196.93 585.51,214.19 578.92,230.25 570.18,244.90 558.59,258.92 545.19,271.11 529.74,281.92 512.43,290.70 488.52,298.27 461.47,304.06 379.84,316.25 304.58,316.62 235.44,318.16 213.25,323.32 193.60,331.14 178.21,340.13 164.72,351.28 153.96,363.55 145.32,377.53 139.54,392.30 136.18,408.06 135.50,424.16 137.43,440.56 142.83,459.19 151.17,477.04 163.10,494.10 177.71,509.41 197.42,525.14 219.84,538.37 246.79,549.72 278.47,557.88 416.86,565.12 513.64,567.07 594.15,563.62 605.93,561.04 614.89,557.79 622.81,553.51 629.22,548.97 634.88,543.73 639.51,537.62 642.83,531.04 645.26,523.80 646.63,516.32 646.88,508.54 646.04,500.51 644.17,492.89 640.81,485.20 636.21,477.96 630.62,471.22 621.79,463.23 611.34,455.99 600.43,449.96 583.83,443.14 564.87,439.14 528.47,438.85 485.57,443.84 352.11,476.42 293.64,487.69 277.56,487.57 263.42,484.86 255.46,481.87 248.00,477.87 241.66,472.84 237.25,467.68 233.61,461.82 231.06,455.45 229.66,448.84 229.26,441.80 229.85,434.94 231.77,427.87 234.85,421.00 238.71,414.89 243.80,409.19 249.80,404.36 256.49,400.37 264.66,396.83 273.74,394.42 284.99,392.67 337.10,393.84 397.96,395.54 501.73,379.52 533.75,378.61 562.91,380.40 587.81,384.06 611.75,390.13 635.59,398.91 658.53,410.35 679.36,423.96 698.88,440.06 717.19,458.82 733.17,479.21 744.02,496.85 752.29,515.23 757.45,533.25 760.00,551.60 759.60,569.40 756.52,586.67 750.52,602.89 742.16,617.66 731.24,631.10 718.53,642.54 703.67,652.36 687.26,659.68 666.43,664.51 644.82,666.34 626.02,665.59 605.22,662.59 507.73,640.46 337.84,636.67 222.32,631.18 195.96,626.48 172.77,619.82 150.45,611.25 129.31,600.27 110.26,587.08 92.79,571.56 77.80,554.42 64.81,535.37 54.42,515.57 46.53,494.39 41.87,472.13 40.00,449.17 40.99,425.87 44.69,402.78 51.19,379.82 60.21,357.85 72.11,336.46 86.44,316.25 104.57,295.19 126.33,274.31 211.91,210.24 277.84,163.15"
        fill="none"
        stroke="#e94560"
        stroke-width="8.0"
        stroke-linejoin="round"
        stroke-linecap="round"/>
  <!-- Start/finish line -->
  <line x1="266.22" y1="146.87" x2="289.47" y2="179.42"
        stroke="#f5f5f5" stroke-width="9.6"
        stroke-linecap="round"/>
</svg>
