<?xml version="1.0" encoding="utf-8"?>
<svg xmlns="http://www.w3.org/2000/svg"
     width="770.3" height="800.0"
     viewBox="0 0 770.3 800.0">
  <rect width="100%" height="100%" fill="#1a1a2e"/>
  <!-- Track outline -->
  <polyline points="148.13,581.90 136.97,574.90 126.82,568.38 117.14,561.73 108.12,554.99 99.73,548.47 91.86,541.95 84.58,535.13 77.86,528.08 71.44,520.99 65.68,513.60 60.41,506.07 55.84,498.33 51.82,490.05 48.36,481.61 45.37,473.08 43.03,464.50 41.32,455.92 40.20,447.39 40.00,438.86 40.59,430.24 41.71,421.75 43.69,413.39 46.35,404.90 49.55,396.54 53.43,388.36 57.71,380.26 62.69,372.34 67.95,364.56 73.95,356.99 80.27,349.55 87.12,342.37 94.59,335.50 102.39,328.94 110.66,322.72 119.25,316.82 128.04,310.86 137.06,304.96 146.22,298.92 155.47,292.79 164.82,286.49 174.20,279.97 183.59,273.19 193.00,266.19 202.45,258.92 211.80,251.40 221.02,243.52 230.18,235.42 239.26,227.07 248.29,218.45 257.24,209.61 266.13,200.51 274.96,191.19 283.85,181.78 292.74,172.15 301.66,162.48 310.65,152.68 319.77,142.88 328.92,132.94 338.11,123.14 347.06,113.78 355.85,104.72 364.51,96.23 373.17,88.31 381.96,80.96 390.92,74.13 400.27,67.70 409.85,61.97 419.63,56.93 429.51,52.38 439.58,48.49 449.82,45.43 460.09,42.93 470.63,41.23 481.07,40.31 491.54,40.00 502.01,40.31 512.28,41.44 522.55,43.46 532.83,46.08 542.87,49.45 552.68,53.48 562.39,58.16 572.01,63.24 581.59,68.75 590.91,74.79 599.96,81.35 608.85,88.31 617.41,95.79 625.78,103.71 634.01,112.03 642.20,120.60 650.53,129.31 659.00,138.15 667.43,147.08 675.62,156.35 683.56,165.76 690.90,174.99 697.62,184.27 703.68,193.55 709.24,202.87 714.28,212.15 718.66,221.42 722.48,230.61 725.44,240.19 727.74,249.82 729.26,259.32 729.89,268.99 730.28,278.35 729.79,287.72 728.60,296.86 726.79,305.70 724.39,314.23 721.29,322.64 717.64,330.60 713.36,337.95 708.45,345.04 702.99,351.60 697.06,357.55 690.41,362.85 683.26,367.66 675.82,371.95 667.89,375.76 659.72,379.13 651.16,381.75 642.30,383.98 633.25,385.65 623.90,386.48 614.25,386.43 604.57,385.78 594.83,384.64 584.98,382.76 575.10,380.05 565.29,376.81 555.71,372.96 546.33,368.54 537.07,363.59 528.32,358.17 520.22,352.57 512.64,346.75 505.47,340.84 498.78,335.02 492.53,328.98 486.50,323.03 480.90,317.12 475.83,311.08 471.42,305.26 467.73,299.62 464.61,293.84 462.27,287.89 460.49,281.76 459.47,275.64 459.07,269.60 459.40,263.65 460.29,258.00 461.74,252.49 463.62,247.24 466.19,242.78 469.74,239.06 473.69,235.99 477.81,233.50 482.29,231.53 486.93,230.31 491.70,229.74 496.64,229.65 501.78,230.17 506.98,231.18 512.51,233.19 518.04,235.34 523.64,238.14 529.34,241.42 535.07,245.27 540.73,249.56 546.29,254.28 552.06,259.23 557.92,264.48 563.88,270.04 570.00,275.77 576.02,281.33 581.66,286.62 587.12,291.61 592.52,296.16 597.85,300.10 603.02,303.47 608.23,306.23 613.76,308.37 619.22,309.77 624.62,310.60 629.99,310.56 635.19,310.12 640.10,308.76 644.61,306.66 648.69,304.04 652.44,300.93 655.77,297.43 658.50,293.62 660.87,289.42 662.36,284.52 663.41,279.45 663.84,274.11 663.61,268.37 662.88,262.38 661.70,256.21 660.02,249.82 657.98,243.26 655.24,236.78 652.18,230.17 648.79,223.52 644.67,216.92 640.23,210.26 635.19,203.92 629.76,197.66 624.03,191.45 617.84,185.15 611.42,178.93 604.87,172.59 597.92,166.29 590.51,160.25 582.71,154.47 574.74,149.13 566.38,144.49 557.59,140.34 548.53,136.66 539.28,133.77 529.93,131.41 520.38,129.57 510.73,128.70 501.09,128.30 491.51,128.61 481.86,129.84 472.21,131.59 462.76,134.21 453.31,137.58 443.93,141.43 434.61,145.72 425.52,150.80 416.60,156.27 407.88,162.17 399.35,168.65 390.95,175.52 382.75,182.83 374.72,190.62 366.98,198.84 359.41,207.46 351.90,216.35 344.43,225.40 336.89,234.59 329.15,243.87 321.12,253.02 312.72,261.94 303.96,270.69 294.74,279.05 285.10,286.84 275.12,294.45 265.14,301.67 254.94,308.28 245.03,314.80 235.48,321.06 226.39,326.92 217.73,332.48 209.53,337.86 201.89,343.07 194.55,347.88 187.70,352.61 181.41,357.34 175.72,362.06 170.48,366.87 165.87,372.04 161.66,377.51 158.14,383.15 155.27,389.10 152.74,395.14 151.06,401.36 150.04,407.53 149.71,413.70 149.94,419.69 150.86,425.64 152.34,431.46 154.45,437.24 157.08,442.71 160.28,447.92 163.93,452.86 168.01,457.59 172.46,462.05 177.63,465.90 183.39,469.01 189.58,471.68 196.13,474.26 202.91,476.36 209.96,477.89 217.34,478.59 224.84,478.81 232.58,478.55 240.52,477.41 248.42,476.01 256.29,474.17 264.19,471.37 271.99,468.09 279.73,464.11 287.30,459.34 294.64,454.17 301.99,448.75 309.20,442.53 316.34,436.06 323.52,429.32 330.93,422.71 338.34,416.54 345.74,411.03 353.19,406.04 360.79,401.66 368.60,397.86 376.50,394.71 384.37,392.21 392.50,390.59 400.66,389.54 409.13,389.19 417.52,389.41 426.08,390.50 434.64,392.12 443.20,394.62 451.67,397.55 460.06,401.09 468.26,405.38 476.16,410.20 483.54,415.10 490.62,419.95 497.30,424.59 503.69,429.06 509.52,433.34 514.85,437.72 519.72,442.14 524.04,446.69 527.76,451.42 530.92,456.32 533.29,461.44 534.87,466.60 535.89,471.89 536.22,477.01 535.86,482.00 534.84,486.77 533.09,491.24 530.79,495.48 528.09,499.29 524.86,502.53 521.24,505.06 517.38,507.12 513.24,508.43 508.89,509.40 504.35,509.70 499.54,509.35 494.57,508.21 489.33,506.33 484.00,503.93 478.70,501.13 473.13,497.97 467.31,494.56 461.15,491.19 454.73,487.91 448.18,484.76 441.36,481.87 434.08,479.33 426.44,477.28 418.58,475.61 410.31,474.65 401.98,474.13 393.72,474.30 385.39,475.00 376.86,476.31 368.30,478.11 359.74,480.52 351.24,483.71 342.72,487.30 334.52,491.06 326.81,494.87 319.50,498.68 312.56,502.53 306.40,506.64 300.83,510.88 295.60,515.57 290.96,520.51 286.91,525.98 283.12,531.63 279.96,537.44 277.46,543.57 275.61,549.74 274.46,556.00 273.87,562.34 274.07,568.51 274.82,574.60 275.88,580.63 278.05,586.19 280.49,591.88 283.48,597.53 287.20,602.91 291.22,608.11 295.96,613.19 301.36,618.00 307.12,622.82 313.08,627.67 319.50,632.44 326.35,637.00 333.46,641.28 340.84,645.48 348.51,649.60 356.31,653.84 364.25,658.44 372.35,663.08 380.61,667.84 389.04,672.79 397.60,677.78 406.43,682.81 415.18,687.84 423.48,692.48 431.45,697.03 439.06,701.15 446.33,705.00 453.18,708.58 459.67,711.91 465.89,714.62 471.88,716.59 477.87,718.12 483.87,718.87 489.69,719.04 495.39,718.60 500.82,717.69 506.03,716.07 510.80,713.88 515.05,710.95 519.00,707.75 522.29,704.16 525.02,700.23 527.23,695.94 528.71,691.43 529.57,686.70 529.80,681.80 529.14,676.82 527.86,671.83 526.08,667.06 523.67,662.46 520.48,657.87 516.73,653.49 512.38,649.29 507.51,645.27 502.21,641.41 496.25,637.96 489.96,634.54 483.24,631.35 476.23,628.46 468.72,626.10 460.82,623.87 452.62,621.85 444.13,619.97 435.57,618.14 427.50,616.34 419.89,614.59 412.65,612.75 406.03,610.70 399.78,608.33 394.08,605.58 388.91,602.34 384.27,598.66 380.09,594.59 376.56,590.26 373.60,585.67 371.36,580.94 369.81,576.04 369.02,571.18 368.89,566.19 369.25,561.38 370.41,556.61 372.28,552.15 374.85,548.21 377.95,544.67 381.60,541.60 385.62,538.98 390.06,536.92 395.03,535.30 400.27,533.90 406.03,533.16 412.19,532.89 418.67,532.98 425.39,533.51 432.31,534.47 439.25,535.74 446.43,537.62 453.74,539.90 461.21,542.65 468.79,545.72 476.52,549.17 484.29,552.85 492.16,556.79 500.13,561.12 508.13,565.71 516.20,570.70 524.20,576.04 532.10,581.82 539.84,587.94 546.95,594.33 553.41,600.94 559.43,607.81 564.90,614.81 569.74,622.25 573.92,629.95 577.44,637.70 580.21,645.70 582.28,653.75 583.66,661.81 584.45,669.90 584.45,677.95 583.73,685.79 582.41,693.53 580.47,701.01 577.84,708.28 574.51,715.24 570.76,721.93 566.38,728.01 561.31,733.48 555.97,738.56 550.18,743.20 544.09,747.40 537.70,750.85 530.88,753.87 523.84,756.37 516.40,758.12 508.76,759.21 500.96,759.96 492.99,760.00 484.85,759.52 476.56,758.64 468.13,757.16 459.57,755.36 450.84,752.95 442.12,750.15 433.33,746.96 424.50,743.28 415.55,739.26 406.62,734.71 397.73,729.72 388.78,724.56 379.76,719.09 370.64,713.53 361.32,707.84 351.84,702.15 342.19,696.38 332.31,690.60 322.27,684.69 312.10,678.83 301.72,672.88 291.19,666.88 280.52,660.84 269.79,654.67 258.89,648.50 247.86,642.29 236.76,635.95 202.09,615.20 181.02,602.51 158.30,588.25 148.13,581.90"
        fill="none"
        stroke="#e94560"
        stroke-width="8.0"
        stroke-linejoin="round"
        stroke-linecap="round"/>
  <!-- Start/finish line -->
  <line x1="137.52" y1="598.86" x2="158.73" y2="564.95"
        stroke="#f5f5f5" stroke-width="9.6"
        stroke-linecap="round"/>
</svg>
