<?xml version="1.0" encoding="utf-8"?>
<svg xmlns="http://www.w3.org/2000/svg"
     width="706.4" height="800.0"
     viewBox="0 0 706.4 800.0">
  <rect width="100%" height="100%" fill="#1a1a2e"/>
  <!-- Track outline -->
  <polyline points="488.63,356.71 504.20,534.21 506.32,547.69 509.09,557.51 512.08,564.54 515.72,571.08 520.24,576.91 525.06,581.43 530.63,585.52 536.61,588.80 542.63,590.96 548.83,591.92 555.32,591.92 561.70,590.87 567.64,588.84 573.04,585.86 578.29,581.96 582.95,577.24 586.78,571.90 590.76,559.39 593.64,545.81 596.19,537.01 599.03,528.34 602.97,521.03 607.24,516.41 612.34,512.56 617.85,509.62 623.39,507.79 627.95,507.12 632.72,507.16 637.53,507.84 642.16,509.23 646.39,511.26 651.17,514.82 655.65,519.58 659.56,524.97 662.58,530.65 664.91,537.92 666.08,545.77 666.37,553.80 664.73,567.23 661.74,580.52 656.20,602.18 640.89,656.23 630.06,691.46 622.37,710.86 617.85,720.39 610.95,731.22 602.61,740.80 595.79,746.19 588.31,750.66 580.73,754.22 569.90,757.55 558.82,759.33 546.97,760.00 534.97,759.33 522.61,757.21 510.40,753.45 498.11,747.39 486.63,739.88 477.88,732.66 470.08,724.62 463.18,715.91 457.21,706.43 452.43,696.37 448.60,685.68 443.82,663.21 442.26,639.53 454.94,463.80 453.41,438.00 448.97,412.88 442.62,388.57 437.55,376.49 431.76,366.28 425.23,356.51 417.90,347.71 409.26,339.76 399.82,333.07 389.50,327.49 378.67,323.30 367.15,320.56 355.37,319.50 343.56,320.32 331.89,322.92 321.50,326.82 310.13,333.12 280.49,357.09 250.30,380.29 241.40,384.33 233.45,386.64 225.51,387.56 217.01,387.27 208.48,385.58 200.57,382.55 195.46,379.76 190.65,376.39 186.17,372.11 182.05,366.67 176.18,351.70 171.44,333.17 165.82,317.67 160.50,309.83 154.70,303.62 148.43,298.51 138.22,293.08 127.28,289.27 102.82,283.06 90.68,278.88 78.94,273.58 68.22,266.94 58.52,258.90 53.16,253.08 48.35,246.73 44.56,239.79 42.11,232.82 40.55,225.35 40.00,217.75 41.64,204.90 45.18,192.05 49.70,179.29 55.53,167.36 60.20,159.70 65.49,152.53 71.46,146.56 76.75,142.91 82.55,139.97 88.64,137.85 94.73,136.55 103.44,136.26 112.34,137.56 120.61,140.16 129.44,145.31 138.70,153.16 191.20,207.40 211.80,223.38 234.15,236.57 258.17,246.29 283.15,252.16 295.54,253.66 307.76,253.85 319.24,252.50 330.22,249.32 336.78,246.20 343.01,242.20 348.63,237.10 353.95,230.46 358.62,222.71 361.61,214.48 362.48,208.22 362.48,201.58 361.65,194.98 360.08,188.92 357.38,183.00 353.73,177.42 349.36,172.36 344.62,168.13 336.96,163.51 328.28,160.43 318.59,158.36 293.36,158.74 268.56,159.70 260.29,158.40 253.07,156.53 246.25,153.59 239.83,149.69 233.82,144.83 228.57,139.20 224.27,132.99 220.66,126.06 218.10,118.79 216.79,111.38 216.46,103.63 217.16,96.12 219.09,88.61 222.11,81.30 225.87,74.51 230.65,67.82 236.30,61.76 242.42,56.41 253.36,49.43 265.28,44.38 278.41,41.25 292.01,40.00 306.01,40.43 320.05,42.45 334.12,45.87 347.97,50.59 374.62,63.06 393.36,74.94 410.61,88.85 425.81,105.03 438.98,123.27 450.13,143.15 459.06,164.47 465.96,186.95 482.14,282.92 488.63,356.71"
        fill="none"
        stroke="#e94560"
        stroke-width="8.0"
        stroke-linejoin="round"
        stroke-linecap="round"/>
  <!-- Start/finish line -->
  <line x1="508.56" y1="354.96" x2="468.71" y2="358.45"
        stroke="#f5f5f5" stroke-width="9.6"
        stroke-linecap="round"/>
</svg>
