<?xml version="1.0" encoding="utf-8"?>
<svg xmlns="http://www.w3.org/2000/svg"
     width="800.0" height="495.3"
     viewBox="0 0 800.0 495.3">
  <rect width="100%" height="100%" fill="#1a1a2e"/>
  <!-- Track outline -->
  <polyline points="397.07,89.41 526.05,49.51 546.72,43.23 566.98,40.16 576.82,40.00 586.49,40.82 595.60,42.77 604.39,45.69 612.73,49.43 620.61,54.11 627.98,59.80 634.73,66.22 640.59,72.73 646.23,80.45 663.24,113.26 668.19,121.17 673.62,128.07 681.78,135.59 691.81,142.83 710.59,152.93 728.69,162.78 736.09,168.43 742.16,174.59 749.06,183.79 754.66,194.19 758.23,205.38 760.00,217.07 759.82,229.11 758.17,240.76 756.34,248.67 752.89,258.29 675.86,421.21 669.55,431.77 663.71,439.14 659.23,443.66 654.39,447.63 649.09,450.83 644.55,452.78 639.68,454.37 634.70,455.27 629.86,455.27 624.79,454.10 619.60,451.96 614.83,449.07 610.93,445.72 608.28,442.14 606.28,438.01 604.83,433.57 603.77,429.05 603.27,419.23 603.95,408.98 605.80,386.96 605.54,367.71 602.24,347.25 595.69,326.33 588.20,305.40 575.58,286.31 560.34,276.41 543.33,268.58 525.61,262.03 506.36,258.18 486.37,257.28 477.08,257.75 466.32,259.66 388.72,289.35 370.83,295.78 359.77,298.12 348.57,299.05 341.93,298.62 335.45,297.49 329.29,295.39 324.45,292.89 319.70,289.70 315.40,286.04 311.89,281.98 309.27,277.62 307.23,272.75 305.91,267.68 305.43,262.77 305.85,258.02 307.03,253.19 308.91,248.59 311.36,244.50 315.78,239.86 321.33,235.96 327.28,232.65 335.92,228.91 347.80,225.52 447.72,206.51 545.90,186.71 555.74,182.93 562.94,178.76 572.19,172.06 580.45,164.07 584.70,158.58 588.26,152.73 590.92,146.69 592.54,140.85 593.33,134.85 593.07,128.84 591.98,123.90 590.15,118.87 587.73,114.08 584.72,109.98 581.13,106.63 576.88,103.83 572.22,101.57 567.45,99.85 560.34,98.61 552.82,98.49 545.51,98.92 526.76,102.78 311.21,168.55 291.31,177.16 282.35,182.42 274.03,188.42 266.81,194.97 260.44,202.14 255.05,209.70 250.65,217.81 247.56,226.46 245.52,235.46 244.55,243.95 244.46,253.85 250.09,311.83 250.01,321.85 248.83,330.65 245.85,341.68 241.25,352.20 237.53,358.01 233.23,363.35 228.25,367.91 223.91,370.98 219.14,373.75 214.13,375.82 209.11,376.87 204.99,376.91 200.59,376.36 196.29,375.23 192.31,373.60 188.95,371.45 185.76,368.02 183.35,363.70 181.43,358.75 179.78,353.29 178.16,340.51 177.77,325.78 176.27,312.77 174.00,305.25 171.14,298.66 167.31,293.01 163.68,289.47 159.46,286.39 154.89,283.89 150.15,282.02 143.57,280.74 136.59,280.62 128.98,281.17 110.05,285.10 91.30,289.58 80.95,291.38 71.40,291.69 66.06,290.91 60.58,289.58 55.42,287.63 50.97,284.95 47.93,282.14 45.10,278.71 42.71,274.93 40.94,271.03 40.00,267.18 40.00,263.36 40.74,259.34 42.09,255.33 43.89,251.55 45.90,248.16 49.85,243.64 54.71,239.78 59.96,236.43 68.36,232.26 78.56,228.48 134.08,212.31 153.80,203.47 171.67,190.61 203.51,161.89 221.67,149.42 259.29,132.00 397.07,89.41"
        fill="none"
        stroke="#e94560"
        stroke-width="8.0"
        stroke-linejoin="round"
        stroke-linecap="round"/>
  <!-- Start/finish line -->
  <line x1="391.16" y1="70.30" x2="402.98" y2="108.52"
        stroke="#f5f5f5" stroke-width="9.6"
        stroke-linecap="round"/>
</svg>
