<?xml version="1.0" encoding="utf-8"?>
<svg xmlns="http://www.w3.org/2000/svg"
     width="720.6" height="800.0"
     viewBox="0 0 720.6 800.0">
  <rect width="100%" height="100%" fill="#1a1a2e"/>
  <!-- Track outline -->
  <polyline points="349.99,703.73 209.29,754.71 189.45,758.85 173.12,760.00 160.09,759.26 147.95,756.69 136.86,752.51 126.60,746.71 117.76,739.48 110.41,731.44 106.44,725.55 103.56,718.96 101.09,708.94 100.20,697.70 101.74,683.25 105.67,668.72 112.00,655.65 121.07,642.17 146.78,612.94 172.49,582.77 182.15,566.50 188.59,550.26 192.24,533.02 193.15,513.92 188.19,481.33 181.72,448.41 178.42,409.42 180.81,390.54 185.17,370.99 194.10,342.43 201.59,314.94 202.53,300.68 201.22,287.24 196.97,269.99 190.16,253.31 180.58,238.27 168.95,225.23 155.53,214.62 139.77,205.20 109.78,191.31 81.16,177.38 69.96,169.07 60.98,160.14 53.31,150.31 47.10,139.51 42.85,128.56 40.37,117.16 40.00,105.99 41.37,95.00 44.53,84.50 49.24,74.82 55.48,65.99 62.89,58.40 71.38,51.92 81.05,46.81 93.76,42.50 109.86,40.00 165.96,40.93 223.54,46.74 243.58,50.73 259.77,56.16 271.34,61.86 281.80,69.20 293.09,80.07 302.81,92.43 308.63,102.56 312.79,113.29 315.27,123.79 316.21,136.94 303.07,254.76 277.30,460.96 278.41,493.44 282.12,518.13 285.40,530.45 289.76,540.73 295.29,550.04 302.16,558.23 308.85,564.12 316.44,569.37 324.25,573.54 331.97,576.41 339.90,578.27 347.73,579.16 355.06,579.20 362.27,578.42 369.08,576.70 375.07,574.32 380.74,571.16 385.59,567.06 389.15,562.48 392.03,557.15 394.31,550.71 397.05,534.10 397.30,511.16 383.42,403.58 369.40,297.70 369.45,278.67 371.56,263.89 376.04,249.25 382.08,236.40 387.98,227.58 394.37,220.73 397.85,218.01 401.35,216.00 405.03,214.43 408.96,213.24 413.07,212.53 417.66,212.35 425.95,213.09 435.27,214.88 443.85,217.52 452.12,221.47 460.33,227.54 478.37,248.66 496.53,269.66 502.51,274.09 508.07,277.14 513.77,279.34 519.87,280.91 526.14,281.61 532.30,281.50 538.20,280.53 544.02,278.75 549.52,276.18 554.51,272.94 559.18,269.03 563.34,264.52 566.79,259.68 569.73,254.35 572.01,248.69 573.55,242.92 574.46,236.89 574.63,230.86 574.06,224.86 572.75,218.94 570.67,213.05 566.82,205.76 561.77,198.57 556.13,192.05 546.50,183.34 534.58,176.00 506.96,167.10 478.14,159.39 462.01,153.47 448.93,147.25 442.57,142.78 437.35,137.83 432.85,132.47 429.03,126.17 425.27,116.71 422.93,106.32 422.56,99.84 422.93,93.33 424.10,87.15 426.15,81.34 428.97,75.86 432.31,70.91 438.75,64.09 446.22,58.55 454.65,54.00 463.61,50.91 472.04,49.24 482.59,49.38 537.55,61.82 595.41,80.70 613.14,89.19 627.14,98.39 637.88,107.52 647.35,117.72 655.73,128.71 663.08,141.26 670.35,158.16 675.96,177.30 679.38,200.95 680.64,226.42 680.18,257.44 677.30,287.46 672.83,308.28 666.67,326.60 659.92,340.49 651.91,352.78 642.27,364.29 631.53,374.30 619.61,382.91 606.93,389.83 594.27,394.79 579.93,398.47 548.98,401.82 519.13,405.66 508.04,409.61 498.98,414.90 493.51,419.22 488.43,424.24 484.04,429.83 480.42,435.71 477.43,442.12 475.26,448.82 474.09,455.60 473.72,462.64 474.18,469.49 475.61,476.23 477.89,482.78 480.79,488.89 484.44,494.66 488.77,499.95 493.56,504.61 499.09,508.78 505.11,512.20 511.35,514.85 517.74,516.60 524.35,517.49 531.99,517.64 557.10,513.02 582.30,508.67 590.25,509.19 597.21,510.57 603.79,512.80 609.95,515.63 615.79,519.17 621.09,523.34 625.43,527.70 629.27,532.57 632.49,537.86 634.92,543.37 636.77,549.26 637.91,555.29 638.34,561.51 638.05,567.88 637.08,574.06 635.29,580.17 632.75,586.05 629.59,591.41 625.65,596.29 620.98,600.54 615.19,604.63 595.75,613.80 568.42,623.92 349.99,703.73"
        fill="none"
        stroke="#e94560"
        stroke-width="8.0"
        stroke-linejoin="round"
        stroke-linecap="round"/>
  <!-- Start/finish line -->
  <line x1="356.83" y1="722.52" x2="343.14" y2="684.94"
        stroke="#f5f5f5" stroke-width="9.6"
        stroke-linecap="round"/>
</svg>
