<?xml version="1.0" encoding="utf-8"?>
<svg xmlns="http://www.w3.org/2000/svg"
     width="544.3" height="800.0"
     viewBox="0 0 544.3 800.0">
  <rect width="100%" height="100%" fill="#1a1a2e"/>
  <!-- Track outline -->
  <polyline points="238.92,534.57 232.74,561.15 200.08,715.94 196.11,726.15 191.14,733.97 185.56,740.95 178.62,748.52 171.08,755.07 163.73,759.11 158.12,760.00 152.38,759.45 146.76,758.09 141.47,756.34 135.21,753.66 129.35,750.13 124.05,745.92 117.03,737.97 111.30,728.83 106.88,718.79 103.67,708.12 99.94,685.03 99.02,600.61 103.95,395.51 104.88,382.12 106.56,372.08 108.29,365.45 110.53,359.15 113.82,353.54 117.47,349.59 121.85,345.97 126.70,342.99 131.72,341.04 137.05,340.15 142.79,340.19 148.53,341.08 153.74,342.78 158.56,345.46 163.13,349.03 167.18,353.24 170.51,357.62 173.52,363.45 175.49,369.79 176.77,376.29 177.46,386.50 176.61,396.87 170.96,417.63 147.48,484.77 146.08,492.51 145.52,499.06 146.04,505.48 147.20,510.93 149.01,516.50 151.46,521.69 154.59,526.02 157.64,528.79 161.25,531.17 165.18,533.13 169.27,534.53 173.32,535.30 178.58,535.21 184.03,534.06 189.45,532.15 194.43,529.64 200.77,524.83 206.46,518.75 211.44,512.33 216.41,504.17 221.03,493.36 260.14,363.24 263.76,341.29 264.12,330.49 263.31,319.78 261.07,309.31 257.54,299.24 252.68,289.62 246.70,280.65 239.80,272.57 231.90,265.47 223.43,259.86 212.40,254.67 165.74,241.49 118.48,228.30 106.32,222.86 96.61,216.99 86.74,209.63 77.67,201.30 69.37,191.90 62.11,181.70 56.17,170.64 51.15,159.07 43.13,135.00 40.84,123.05 40.00,111.15 41.00,100.00 43.53,89.33 47.22,79.80 52.16,71.04 58.21,63.30 65.32,56.50 73.54,50.72 82.61,46.17 92.28,43.19 102.87,41.32 133.16,40.00 290.16,55.95 302.39,59.01 311.58,62.67 320.61,67.22 328.75,73.08 334.25,78.66 339.26,85.16 343.03,92.09 345.28,99.45 346.37,107.28 346.32,115.02 345.24,122.67 343.08,130.20 339.91,137.21 335.61,143.63 330.24,149.46 324.22,154.39 317.32,158.35 309.73,161.33 301.87,163.24 293.49,163.88 284.86,163.37 276.71,162.01 267.09,158.94 258.02,154.65 239.72,142.61 206.54,118.12 195.39,112.46 184.40,109.10 176.57,108.25 168.59,108.47 161.01,109.83 153.98,112.38 147.32,116.04 141.55,120.54 137.98,124.37 134.85,128.75 132.32,133.43 130.51,138.23 129.51,143.34 129.23,148.70 129.59,154.14 130.59,159.33 133.08,166.13 136.77,172.64 141.23,178.63 149.61,186.59 159.20,193.39 168.59,199.09 179.98,204.15 212.36,213.46 245.30,220.44 268.09,222.48 319.24,221.16 347.21,222.05 360.93,224.01 374.21,227.28 386.53,232.17 398.16,238.38 408.91,245.40 418.82,253.52 427.73,262.45 435.43,272.91 442.33,288.94 447.47,306.04 452.81,332.87 456.02,358.73 456.34,370.93 455.49,382.76 453.13,393.60 449.48,403.89 444.70,413.37 438.80,422.13 431.66,429.83 423.88,436.85 408.23,449.14 402.90,454.67 397.80,460.71 393.95,467.17 392.10,472.02 390.78,477.08 390.18,482.22 390.34,487.28 391.30,492.47 392.99,497.70 395.59,502.72 399.32,507.23 411.76,513.99 428.09,519.22 442.09,524.75 451.48,531.17 459.35,538.27 474.91,557.03 485.67,573.99 494.97,593.21 501.71,615.12 503.60,626.47 504.28,637.91 503.48,649.01 501.31,659.72 497.78,669.63 492.85,678.82 486.31,687.20 478.52,694.51 469.70,700.55 460.03,705.23 449.76,708.37 439.13,710.12 428.33,710.46 417.66,709.35 407.39,706.63 397.56,702.46 388.29,696.76 379.75,689.79 371.88,681.41 364.86,672.01 358.44,661.51 352.90,650.28 344.24,625.41 335.45,578.76 332.40,516.92 339.66,422.30 339.70,399.34 338.06,389.39 334.97,379.99 331.72,373.57 327.67,367.45 322.85,362.30 319.56,359.75 315.91,357.37 312.02,355.41 308.09,354.14 304.24,353.67 300.19,354.22 295.97,355.67 291.84,357.79 288.03,360.34 284.94,363.19 281.77,367.96 279.80,373.70 277.48,381.57 238.92,534.57"
        fill="none"
        stroke="#e94560"
        stroke-width="8.0"
        stroke-linejoin="round"
        stroke-linecap="round"/>
  <!-- Start/finish line -->
  <line x1="258.33" y1="539.41" x2="219.51" y2="529.74"
        stroke="#f5f5f5" stroke-width="9.6"
        stroke-linecap="round"/>
</svg>
