<?xml version="1.0" encoding="utf-8"?>
<svg xmlns="http://www.w3.org/2000/svg"
     width="363.0" height="800.0"
     viewBox="0 0 363.0 800.0">
  <rect width="100%" height="100%" fill="#1a1a2e"/>
  <!-- Track outline -->
  <polyline points="111.94,238.43 108.04,230.73 76.51,168.64 48.42,110.66 43.88,97.63 40.77,85.21 40.09,79.28 40.00,73.44 40.49,68.06 41.79,62.89 43.61,58.98 46.04,55.18 48.79,51.77 52.18,48.54 55.98,45.75 59.81,43.52 64.97,41.49 70.21,40.39 75.78,40.00 81.39,40.43 87.00,41.76 92.44,43.91 97.44,46.71 102.04,50.19 105.88,54.12 109.11,58.65 111.50,63.69 113.16,69.14 113.99,74.91 114.30,80.90 114.39,93.42 115.52,106.61 118.83,120.18 142.83,189.44 179.33,256.78 196.56,303.29 234.24,411.79 242.12,436.21 244.86,448.36 246.51,460.43 247.07,496.00 250.60,519.28 254.28,530.47 258.79,540.20 265.27,551.39 302.43,598.54 308.99,608.77 314.64,619.39 319.06,630.24 321.94,641.30 322.99,652.42 322.74,663.68 321.20,674.90 317.66,685.47 312.62,695.25 306.29,704.38 298.74,712.60 290.23,720.04 244.63,749.33 232.68,755.72 226.79,757.85 220.86,759.29 215.00,760.00 209.23,759.82 205.66,759.08 202.21,757.89 198.84,756.20 195.15,753.77 191.59,750.78 188.80,747.20 187.49,744.34 186.52,741.14 185.92,737.80 185.73,734.55 186.12,730.24 187.19,725.94 188.78,721.94 192.31,716.60 197.49,711.25 216.75,695.80 236.23,680.55 245.65,670.34 249.93,664.69 253.67,658.67 256.44,652.72 258.40,646.56 259.39,640.63 259.46,634.68 258.48,628.80 256.62,623.21 253.86,618.06 250.39,613.51 246.05,609.55 241.25,606.32 236.09,603.69 230.68,601.95 224.86,601.45 218.96,601.95 213.23,603.21 207.72,605.41 202.73,608.70 198.22,612.85 194.59,617.33 191.12,622.83 179.75,646.45 176.35,652.12 172.85,656.77 170.27,659.47 167.54,661.85 164.50,663.80 160.59,665.58 156.33,666.82 152.08,667.23 148.96,666.89 145.80,666.06 142.75,664.83 139.90,663.22 136.55,660.52 133.48,657.20 130.94,653.66 128.53,648.92 126.94,643.86 126.13,638.46 126.11,632.90 127.01,627.20 128.71,621.66 131.31,616.14 134.57,610.97 138.61,605.89 143.15,601.24 154.03,592.82 178.20,576.64 183.50,572.10 187.78,567.48 191.26,562.56 194.00,557.23 195.72,551.89 196.63,546.35 196.63,540.81 195.79,535.39 194.79,531.93 193.42,528.61 191.68,525.62 189.36,522.87 186.61,520.51 183.71,518.50 180.64,516.71 177.38,515.32 173.91,514.33 169.41,513.74 164.64,513.74 160.15,514.35 156.59,515.48 153.24,517.10 150.06,519.07 145.73,522.62 141.75,526.78 134.62,536.35 130.55,541.04 126.17,545.23 121.34,548.60 116.23,551.11 112.76,552.30 109.20,553.08 105.64,553.40 102.11,553.20 98.58,552.53 95.16,551.43 90.32,549.01 85.83,545.76 81.85,541.80 78.35,537.20 75.79,532.69 73.18,526.39 43.23,429.87 41.02,419.27 40.26,411.86 40.21,404.23 41.09,397.39 42.81,390.96 45.37,385.21 48.68,380.09 52.83,375.49 57.55,371.66 62.83,368.50 68.44,366.28 74.37,365.12 80.39,364.96 86.43,365.73 92.30,367.52 97.81,370.31 103.02,373.98 107.83,378.35 112.25,383.38 119.69,395.08 132.17,422.04 139.78,437.08 147.78,446.74 154.22,453.81 159.98,458.76 164.99,462.56 170.34,465.35 173.92,466.56 177.57,467.27 181.19,467.39 184.80,466.86 188.38,465.69 191.71,463.91 194.87,461.30 197.77,458.00 200.21,454.41 202.07,450.86 203.52,447.01 204.33,443.05 204.31,438.82 203.63,434.45 202.59,430.35 200.87,425.50 198.12,420.49 186.59,406.25 174.31,391.94 166.80,380.75 161.36,368.99 133.08,280.04 111.94,238.43"
        fill="none"
        stroke="#e94560"
        stroke-width="8.0"
        stroke-linejoin="round"
        stroke-linecap="round"/>
  <!-- Start/finish line -->
  <line x1="94.10" y1="247.48" x2="129.77" y2="229.37"
        stroke="#f5f5f5" stroke-width="9.6"
        stroke-linecap="round"/>
</svg>
