<?xml version="1.0" encoding="utf-8"?>
<svg xmlns="http://www.w3.org/2000/svg"
     width="800.0" height="344.4"
     viewBox="0 0 800.0 344.4">
  <rect width="100%" height="100%" fill="#1a1a2e"/>
  <!-- Track outline -->
  <polyline points="396.84,297.90 292.23,289.97 117.58,274.02 104.24,270.66 94.16,266.46 83.96,260.49 74.51,253.36 65.51,245.33 57.67,236.24 51.47,225.74 46.80,214.36 43.66,202.05 41.72,189.26 40.00,162.63 42.13,134.88 44.18,121.49 57.93,87.86 68.24,66.17 73.28,59.87 79.07,54.13 85.49,49.24 92.85,45.13 100.84,42.01 108.87,40.19 116.34,40.00 123.81,41.07 131.25,42.85 142.71,46.95 154.74,52.73 192.46,74.80 212.56,84.27 235.12,91.26 389.49,113.37 460.68,129.37 473.90,134.22 484.92,139.59 494.96,145.70 504.26,152.83 513.64,161.42 521.33,171.12 524.02,176.20 526.26,181.57 527.68,187.03 528.02,192.34 527.38,196.49 526.08,200.69 524.17,204.80 521.78,208.58 519.05,211.75 514.76,214.97 509.57,217.48 503.96,219.35 498.40,220.56 490.85,221.12 483.09,220.56 475.58,219.12 465.49,215.25 455.71,210.16 434.98,197.94 415.22,187.87 390.83,178.21 293.61,160.67 224.36,146.58 202.21,136.42 192.99,130.35 183.57,125.03 176.07,122.70 168.15,121.26 160.31,121.16 152.46,122.70 144.77,125.59 137.86,129.51 133.38,133.06 129.23,137.16 125.68,141.73 123.03,146.58 121.31,151.72 120.38,157.22 120.19,162.86 120.75,168.37 122.92,176.06 126.58,183.62 131.06,190.38 135.99,195.75 141.70,200.37 147.94,204.24 158.89,208.86 170.76,211.79 183.87,212.96 196.98,212.68 208.26,211.61 219.32,209.51 242.51,201.91 266.64,198.13 279.12,197.85 291.70,198.73 317.44,204.19 455.37,256.34 477.41,260.21 499.33,260.86 521.00,257.83 548.37,250.46 673.20,199.71 694.26,194.35 706.78,193.04 719.29,193.42 726.95,194.72 734.38,196.91 741.10,200.23 745.84,203.77 750.29,208.11 754.10,212.91 756.94,218.00 758.77,223.32 759.78,229.10 760.00,234.98 759.33,240.62 757.57,246.40 754.73,252.19 751.26,257.65 747.38,262.45 741.96,267.54 735.76,271.78 729.15,275.05 718.13,277.94 706.51,278.96 694.75,278.12 682.83,277.10 671.22,277.80 658.00,279.90 586.06,300.19 560.21,303.50 483.12,304.43 396.84,297.90"
        fill="none"
        stroke="#e94560"
        stroke-width="8.0"
        stroke-linejoin="round"
        stroke-linecap="round"/>
  <!-- Start/finish line -->
  <line x1="395.33" y1="317.84" x2="398.35" y2="277.96"
        stroke="#f5f5f5" stroke-width="9.6"
        stroke-linecap="round"/>
</svg>
