<?xml version="1.0" encoding="utf-8"?>
<svg xmlns="http://www.w3.org/2000/svg"
     width="553.4" height="800.0"
     viewBox="0 0 553.4 800.0">
  <rect width="100%" height="100%" fill="#1a1a2e"/>
  <!-- Track outline -->
  <polyline points="61.99,311.83 62.14,373.80 57.28,447.29 40.98,551.57 40.00,578.78 42.95,605.47 49.69,631.69 60.02,657.15 74.45,680.75 92.84,701.68 114.62,719.68 138.99,734.60 165.56,746.37 194.18,754.50 223.63,758.82 253.75,760.00 285.12,757.27 336.40,744.68 376.96,729.15 400.29,719.01 422.93,703.95 440.23,690.99 449.17,683.02 457.12,673.76 472.22,654.12 485.30,634.16 495.86,610.87 504.41,586.75 510.11,565.15 513.42,540.67 513.24,515.73 511.30,490.89 505.63,463.84 484.70,387.12 449.84,313.94 386.72,192.63 379.11,180.75 371.98,172.62 364.89,167.38 357.07,163.42 349.11,160.80 342.95,159.56 336.63,159.05 330.36,159.36 324.38,160.69 318.99,162.70 313.66,165.48 308.76,169.18 304.62,173.91 301.67,178.90 299.08,184.71 297.16,190.93 296.20,197.31 296.85,206.36 299.08,215.77 301.90,224.51 306.61,234.95 313.32,246.11 375.79,337.60 398.43,379.66 416.12,424.71 422.80,448.26 427.12,472.84 428.42,497.99 426.58,523.29 421.82,548.39 413.81,572.71 402.49,595.54 387.73,616.27 379.08,625.42 369.89,633.39 359.86,640.39 349.48,646.25 327.46,654.99 304.75,661.62 275.35,667.59 247.77,669.13 234.90,668.88 222.28,667.54 210.39,665.12 198.87,660.44 191.13,655.40 183.59,648.97 177.42,641.05 174.39,635.29 171.73,628.82 169.81,622.13 169.06,615.65 169.45,610.71 170.51,605.62 172.11,600.69 174.16,596.16 176.47,592.30 180.22,588.34 184.88,585.36 190.06,583.25 195.40,581.81 200.53,580.99 208.76,581.61 217.10,584.02 225.68,586.24 255.05,589.06 267.84,588.19 280.19,585.77 291.80,581.97 302.88,576.41 312.65,569.47 321.45,560.63 328.37,550.80 333.81,539.28 336.97,527.20 338.37,514.34 337.59,501.23 335.10,488.32 330.75,475.16 325.03,462.92 317.34,450.63 308.66,439.37 288.15,417.20 273.88,398.17 248.13,355.23 227.07,308.44 212.98,260.87 207.70,230.99 204.26,177.66 205.32,164.76 207.52,153.49 211.56,142.44 215.96,131.28 220.24,117.70 222.46,103.56 221.25,93.89 218.42,84.23 214.88,75.69 210.47,68.44 205.24,62.42 199.62,57.18 189.52,49.93 178.62,44.68 166.55,41.29 154.17,40.00 145.77,40.26 137.33,41.44 129.12,43.86 121.51,47.41 114.13,52.03 107.08,57.64 97.60,67.20 89.03,78.67 82.14,91.27 76.23,105.26 71.47,117.91 67.64,135.24 61.86,253.67 61.99,311.83"
        fill="none"
        stroke="#e94560"
        stroke-width="8.0"
        stroke-linejoin="round"
        stroke-linecap="round"/>
  <!-- Start/finish line -->
  <line x1="81.99" y1="311.78" x2="41.99" y2="311.88"
        stroke="#f5f5f5" stroke-width="9.6"
        stroke-linecap="round"/>
</svg>
