<?xml version="1.0" encoding="utf-8"?>
<svg xmlns="http://www.w3.org/2000/svg"
     width="800.0" height="526.6"
     viewBox="0 0 800.0 526.6">
  <rect width="100%" height="100%" fill="#1a1a2e"/>
  <!-- Track outline -->
  <polyline points="610.42,433.76 589.91,452.67 577.54,459.43 565.49,464.28 540.31,473.39 514.04,480.15 486.39,484.65 457.66,486.60 357.97,480.55 161.33,450.02 140.66,444.67 125.14,438.91 113.90,433.31 103.99,426.75 94.84,418.89 86.86,409.73 81.99,402.28 77.84,394.12 74.90,385.76 73.45,377.66 73.08,369.40 73.65,361.74 75.46,353.53 78.52,346.03 82.47,338.92 87.79,332.26 93.79,326.96 100.93,322.01 108.46,318.15 120.91,314.85 132.80,313.65 139.09,313.75 145.25,314.75 156.57,317.95 167.62,322.16 178.86,328.41 245.22,370.10 257.23,376.15 269.52,380.71 302.44,388.57 332.95,393.42 338.95,393.62 344.55,393.12 360.99,391.07 379.41,386.81 396.49,379.51 412.13,369.70 424.86,358.14 435.50,344.68 441.83,334.07 447.11,322.61 450.65,311.50 451.98,302.89 452.10,294.53 451.05,286.42 448.76,278.37 445.29,270.56 440.94,263.45 435.98,257.35 430.18,251.89 423.81,247.54 416.56,244.43 408.70,242.38 401.25,241.58 392.59,242.63 384.97,244.89 380.86,246.39 376.47,248.89 352.77,269.21 326.70,290.28 317.07,294.53 308.21,296.63 299.10,297.73 290.40,297.78 284.19,297.23 278.31,296.13 272.63,294.78 266.58,292.68 243.05,280.07 180.19,243.58 167.94,239.38 156.86,236.98 134.29,234.58 109.31,236.38 85.17,237.73 75.98,236.53 68.37,234.18 63.65,231.97 59.22,229.27 55.23,226.07 49.95,220.31 45.72,213.76 42.54,206.35 40.56,198.49 40.00,193.09 40.00,187.53 40.77,181.73 44.75,169.27 50.52,157.46 55.59,150.40 61.16,144.54 66.07,140.09 71.67,135.99 82.75,129.58 94.12,124.18 105.32,120.42 130.38,113.97 592.61,40.60 619.85,40.00 639.03,42.45 657.73,46.66 670.02,51.11 681.22,56.72 702.62,71.58 712.41,80.69 730.30,101.91 741.38,121.42 750.17,140.34 754.60,154.25 759.48,183.28 760.00,205.85 758.19,228.27 753.67,250.69 746.34,272.71 736.31,294.33 723.69,315.50 708.66,336.02 673.12,374.95 632.02,411.59 610.42,433.76"
        fill="none"
        stroke="#e94560"
        stroke-width="8.0"
        stroke-linejoin="round"
        stroke-linecap="round"/>
  <!-- Start/finish line -->
  <line x1="624.39" y1="448.07" x2="596.46" y2="419.44"
        stroke="#f5f5f5" stroke-width="9.6"
        stroke-linecap="round"/>
</svg>
