<?xml version="1.0" encoding="utf-8"?>
<svg xmlns="http://www.w3.org/2000/svg"
     width="437.5" height="800.0"
     viewBox="0 0 437.5 800.0">
  <rect width="100%" height="100%" fill="#1a1a2e"/>
  <!-- Track outline -->
  <polyline points="167.99,582.60 178.14,614.33 181.71,622.62 185.78,629.73 190.35,634.71 196.58,639.65 205.59,644.13 213.73,646.74 222.08,647.82 230.92,646.80 240.13,643.96 248.53,639.45 256.21,633.48 261.71,626.07 264.48,618.37 265.99,609.88 266.54,599.28 265.68,590.88 263.69,583.56 258.89,575.02 252.45,566.53 236.82,553.12 211.35,535.53 207.10,531.37 203.34,525.86 200.18,519.51 197.89,511.40 197.05,503.88 197.86,495.57 200.13,488.48 203.68,483.27 207.60,479.20 212.03,476.65 217.17,474.96 223.88,473.55 231.99,473.17 238.96,473.79 246.00,475.86 253.49,479.29 262.13,486.11 274.52,498.32 285.59,512.37 293.88,526.51 302.03,543.87 308.13,560.85 316.53,586.52 319.98,603.00 320.97,617.73 318.83,631.57 314.39,645.27 305.86,666.21 299.31,684.06 296.10,699.49 295.50,712.49 296.05,723.55 297.64,731.37 300.85,739.24 306.10,746.53 312.28,751.19 320.16,755.29 326.97,757.63 334.49,759.30 343.54,760.00 351.55,758.95 359.90,756.84 368.51,753.47 378.79,746.80 385.18,740.94 390.19,734.39 394.37,726.74 396.93,717.76 397.47,707.60 396.40,696.12 394.73,685.56 390.04,665.30 330.21,471.94 326.97,463.04 322.22,455.17 315.85,447.85 308.65,440.53 300.77,435.03 291.72,430.69 282.90,428.67 272.25,427.50 215.68,426.48 205.22,424.72 193.01,420.39 183.46,414.65 174.40,406.40 166.97,396.79 160.34,384.03 154.89,370.89 147.87,351.42 130.05,290.32 119.27,242.43 117.76,228.50 118.72,220.71 121.75,213.98 125.98,206.83 133.05,199.22 139.41,192.99 146.25,187.48 153.03,183.82 158.59,181.98 166.21,180.81 174.35,180.57 181.50,182.77 186.30,186.87 189.80,191.87 192.49,198.52 194.34,204.76 195.59,211.23 196.64,221.15 194.10,297.67 194.76,306.22 195.91,314.45 198.83,323.14 203.99,331.63 210.93,339.53 219.26,346.76 226.41,351.54 233.61,354.87 240.39,356.89 248.51,357.77 256.18,357.68 264.56,356.51 272.15,353.97 278.96,349.72 282.33,344.28 283.94,337.31 284.41,330.69 283.97,322.41 283.16,314.62 280.99,304.40 275.93,288.19 202.09,61.08 198.20,54.43 192.75,48.90 186.04,44.13 178.84,41.26 170.67,40.00 161.20,40.53 152.20,42.40 144.37,45.04 137.80,48.55 131.66,52.88 127.31,59.06 123.37,67.58 121.78,75.86 121.38,85.43 122.27,101.77 122.92,121.79 122.24,129.96 120.68,135.99 116.43,140.24 110.76,143.63 103.17,146.94 93.13,149.72 57.46,159.41 52.29,161.46 47.57,165.15 44.23,168.89 41.28,172.93 40.00,176.92 40.31,181.57 42.92,191.14 121.18,436.55 167.99,582.60"
        fill="none"
        stroke="#e94560"
        stroke-width="8.0"
        stroke-linejoin="round"
        stroke-linecap="round"/>
  <!-- Start/finish line -->
  <line x1="187.03" y1="576.50" x2="148.94" y2="588.70"
        stroke="#f5f5f5" stroke-width="9.6"
        stroke-linecap="round"/>
</svg>
