<?xml version="1.0" encoding="utf-8"?>
<svg xmlns="http://www.w3.org/2000/svg"
     width="523.3" height="800.0"
     viewBox="0 0 523.3 800.0">
  <rect width="100%" height="100%" fill="#1a1a2e"/>
  <!-- Track outline -->
  <polyline points="151.67,491.91 149.15,485.67 142.52,468.43 69.10,299.59 47.72,249.32 41.91,228.22 40.49,217.92 40.00,207.59 40.60,197.45 42.20,187.46 44.94,177.60 48.69,168.16 53.58,158.91 59.29,150.26 66.04,141.91 73.53,134.27 81.33,127.44 91.42,120.46 183.11,74.40 234.89,50.06 255.10,42.85 264.91,40.90 274.65,40.00 284.14,40.08 293.43,41.29 302.12,43.78 310.49,47.53 318.41,52.56 325.93,58.76 333.33,66.36 340.13,74.59 350.25,89.65 386.60,166.48 469.95,358.76 476.98,379.93 481.26,400.33 483.27,420.38 482.78,440.42 479.86,460.55 474.89,480.63 460.86,518.86 422.16,591.28 416.93,599.78 411.96,606.37 404.95,613.63 397.15,619.44 391.66,622.05 385.92,623.77 380.09,624.35 375.31,623.96 370.34,622.91 365.57,621.12 361.31,618.58 357.79,615.50 354.56,611.72 351.82,607.47 349.82,602.90 348.39,596.23 348.08,588.98 348.68,582.00 351.08,573.46 355.54,564.02 398.44,494.40 406.95,474.32 409.87,463.79 411.87,452.91 412.98,430.28 411.36,412.27 395.15,351.58 326.90,188.48 316.92,170.34 311.52,162.42 305.46,155.17 297.20,147.53 288.03,141.13 278.28,136.68 268.08,133.64 257.45,131.54 246.58,130.76 236.18,131.18 224.01,133.64 179.30,150.02 137.63,170.69 132.06,175.02 128.06,179.20 125.00,184.15 123.14,188.56 121.71,193.51 120.88,198.58 120.80,203.45 121.63,208.25 123.20,213.05 125.37,217.57 127.89,221.59 132.26,226.31 137.49,230.17 142.98,233.33 151.30,236.68 161.24,239.18 219.15,248.89 237.38,254.94 254.24,264.10 269.96,276.15 284.60,291.48 298.32,309.58 332.73,369.52 341.90,388.32 348.48,405.28 351.11,416.17 352.05,426.42 351.79,433.05 350.82,439.57 348.99,445.49 345.93,450.80 341.93,455.48 337.50,459.34 332.30,462.62 326.58,465.03 320.72,466.44 314.44,466.75 308.01,465.97 301.80,464.10 295.97,461.10 290.37,457.04 285.25,452.24 278.65,443.62 273.11,434.03 265.68,416.24 253.22,376.58 239.24,337.62 235.12,330.56 231.12,325.45 226.63,321.28 221.29,317.73 215.49,315.23 209.57,313.79 205.11,313.44 200.57,313.75 196.08,314.61 191.82,316.09 186.56,318.90 181.62,322.68 177.36,327.28 174.05,332.55 171.39,338.55 169.50,344.95 168.24,355.44 168.56,366.05 169.70,373.97 172.65,383.76 266.68,591.40 301.75,646.47 329.53,675.09 335.56,682.27 340.22,689.68 342.96,695.96 345.13,702.82 346.25,709.81 346.13,716.79 345.02,723.85 342.99,730.44 339.59,736.99 335.10,743.03 330.21,748.14 325.24,752.04 319.92,755.05 314.35,757.35 308.23,759.06 301.83,760.00 295.54,759.96 289.51,758.91 283.54,756.96 277.85,754.19 269.99,748.49 262.68,741.32 255.87,732.93 249.21,722.99 230.26,688.20 151.67,491.91"
        fill="none"
        stroke="#e94560"
        stroke-width="8.0"
        stroke-linejoin="round"
        stroke-linecap="round"/>
  <!-- Start/finish line -->
  <line x1="133.10" y1="499.34" x2="170.23" y2="484.47"
        stroke="#f5f5f5" stroke-width="9.6"
        stroke-linecap="round"/>
</svg>
