<?xml version="1.0" encoding="utf-8"?>
<svg xmlns="http://www.w3.org/2000/svg"
     width="800.0" height="555.9"
     viewBox="0 0 800.0 555.9">
  <rect width="100%" height="100%" fill="#1a1a2e"/>
  <!-- Track outline -->
  <polyline points="534.50,217.71 486.68,171.57 374.34,62.59 365.70,55.72 358.51,51.18 350.23,46.91 341.38,43.63 329.84,41.07 317.88,40.00 306.79,40.47 296.04,42.53 289.27,44.86 282.69,47.86 277.16,51.30 272.81,55.37 269.34,59.91 266.65,64.25 264.35,69.39 261.18,78.91 259.28,89.69 260.00,101.07 262.45,112.17 265.86,121.41 270.33,129.86 276.19,138.12 282.96,145.58 290.39,152.10 299.63,158.58 356.37,190.57 370.56,202.42 382.86,216.56 392.61,232.21 402.04,253.30 405.18,263.53 407.11,273.88 407.39,284.03 406.21,293.98 403.46,303.46 399.38,312.31 393.67,320.84 386.84,328.27 379.20,334.31 370.86,338.89 361.56,342.02 351.83,343.56 341.47,343.60 330.99,342.09 320.18,339.01 309.57,334.43 299.36,328.23 289.97,321.00 283.81,315.47 276.80,307.57 177.75,167.51 149.35,137.88 140.14,130.61 131.08,125.00 121.23,120.38 111.17,117.14 101.38,115.52 91.66,115.48 82.26,117.06 73.29,120.18 65.25,124.69 57.97,130.57 51.81,137.56 46.74,145.70 42.99,154.87 40.63,164.74 40.00,175.25 40.97,185.91 44.02,197.09 48.34,207.60 52.08,215.18 57.70,223.75 103.35,279.41 159.74,340.16 188.23,365.04 215.99,384.56 249.49,402.96 279.97,416.55 303.26,423.70 352.35,431.28 377.84,431.40 475.23,418.49 498.07,417.74 520.82,419.75 543.32,425.44 565.22,434.44 586.82,445.90 633.73,478.05 680.46,508.47 691.49,513.05 700.88,515.14 711.21,515.93 721.36,515.18 727.50,514.12 733.48,512.46 739.10,509.69 744.71,505.43 749.94,499.97 754.17,493.77 757.04,487.02 759.00,479.55 760.00,472.17 759.67,462.45 757.83,452.93 754.68,443.13 750.45,433.61 738.61,414.34 726.77,400.12 662.85,341.62 534.50,217.71"
        fill="none"
        stroke="#e94560"
        stroke-width="8.0"
        stroke-linejoin="round"
        stroke-linecap="round"/>
  <!-- Start/finish line -->
  <line x1="520.61" y1="232.10" x2="548.39" y2="203.32"
        stroke="#f5f5f5" stroke-width="9.6"
        stroke-linecap="round"/>
</svg>
