<?xml version="1.0" encoding="utf-8"?>
<svg xmlns="http://www.w3.org/2000/svg"
     width="800.0" height="420.2"
     viewBox="0 0 800.0 420.2">
  <rect width="100%" height="100%" fill="#1a1a2e"/>
  <!-- Track outline -->
  <polyline points="175.67,121.43 190.32,107.93 210.66,89.11 231.47,72.71 254.33,59.32 278.89,48.95 304.72,42.75 331.25,40.00 343.72,40.53 356.87,42.40 398.74,54.14 413.89,60.34 447.43,69.96 456.67,70.99 465.29,71.06 483.95,69.58 572.51,50.75 640.94,44.05 680.23,43.35 697.73,44.44 705.67,45.78 713.57,47.90 722.26,51.35 730.70,55.90 738.10,61.08 744.70,67.36 749.98,74.55 754.28,82.65 757.41,91.19 759.38,100.28 760.00,110.01 759.33,119.63 757.54,127.71 754.77,135.25 750.92,142.79 746.15,149.67 740.17,155.94 733.47,161.23 726.02,165.71 718.10,169.06 709.66,171.07 700.96,171.88 691.83,171.52 682.64,170.04 664.29,163.70 599.20,135.14 579.11,129.89 569.64,128.59 560.35,128.38 551.65,129.47 543.29,131.76 535.71,135.18 528.64,139.66 522.41,144.84 517.00,151.04 514.10,155.70 511.64,160.77 509.85,166.13 508.79,171.60 508.35,177.31 508.61,182.84 509.65,188.16 511.38,193.35 513.71,198.28 517.33,203.78 521.79,208.96 526.44,213.33 530.90,216.54 535.53,219.04 540.37,220.98 547.98,222.75 556.60,223.49 573.96,223.10 591.28,222.89 599.74,223.94 607.35,226.24 613.07,229.02 618.71,232.62 623.58,236.88 626.97,241.01 629.82,245.62 632.04,250.56 633.62,255.74 634.63,261.24 634.99,266.78 634.19,275.38 632.02,283.77 628.47,291.98 623.79,299.52 617.65,306.61 610.53,312.60 603.16,317.12 592.73,321.31 380.39,374.65 364.01,378.31 354.05,379.76 344.03,380.22 335.13,379.30 326.72,377.08 319.44,373.52 312.77,368.79 306.81,363.37 301.69,356.95 298.97,352.30 296.67,347.22 295.01,341.90 294.08,336.19 293.77,330.19 294.21,324.34 295.48,318.56 297.52,312.96 300.11,307.74 305.49,300.44 311.96,294.13 319.70,288.46 328.17,283.80 347.63,276.68 380.21,267.80 390.15,263.99 399.00,259.37 406.72,253.87 413.47,247.18 418.67,239.49 422.71,230.85 425.43,221.58 426.90,211.85 427.06,201.74 425.89,191.69 423.23,181.96 419.29,172.83 413.89,163.98 407.39,156.08 399.31,148.93 390.77,143.11 383.53,139.30 376.18,136.41 360.16,132.04 342.79,130.46 333.55,130.67 324.28,131.69 315.02,133.73 305.88,136.59 297.13,139.97 288.72,144.24 281.11,149.53 273.97,155.66 267.40,162.18 261.47,169.48 256.76,176.95 252.20,186.75 240.09,226.45 228.29,266.14 224.20,275.69 220.08,283.10 215.01,290.57 209.32,297.30 202.74,303.40 195.65,308.73 179.66,317.33 161.80,323.81 142.49,328.22 122.41,330.05 103.67,329.63 86.72,327.94 77.09,325.75 67.75,322.37 60.08,318.00 53.30,312.36 49.60,308.13 46.34,303.37 43.70,298.22 41.81,292.86 40.54,287.12 40.00,281.26 40.83,271.99 43.21,262.72 47.53,252.82 52.84,243.62 62.85,229.58 88.99,201.35 175.67,121.43"
        fill="none"
        stroke="#e94560"
        stroke-width="8.0"
        stroke-linejoin="round"
        stroke-linecap="round"/>
  <!-- Start/finish line -->
  <line x1="162.11" y1="106.73" x2="189.23" y2="136.14"
        stroke="#f5f5f5" stroke-width="9.6"
        stroke-linecap="round"/>
</svg>
