<?xml version="1.0" encoding="utf-8"?>
<svg xmlns="http://www.w3.org/2000/svg"
     width="332.3" height="800.0"
     viewBox="0 0 332.3 800.0">
  <rect width="100%" height="100%" fill="#1a1a2e"/>
  <!-- Track outline -->
  <polyline points="169.22,665.61 171.23,675.58 175.48,689.26 186.34,714.00 196.42,729.59 202.14,737.37 208.45,744.41 216.08,750.58 224.38,755.35 230.45,757.69 236.77,759.30 243.06,760.00 249.24,759.73 255.42,758.59 261.33,756.60 266.69,753.90 271.78,750.42 276.44,746.24 280.41,741.63 283.98,736.39 286.89,730.73 289.81,721.74 291.55,712.12 292.31,702.31 292.09,692.39 288.83,672.57 282.56,653.18 273.69,634.66 226.72,561.53 217.38,540.78 214.28,529.95 212.18,518.78 211.17,496.50 212.02,474.73 211.09,464.10 208.89,454.01 206.19,447.64 202.71,441.70 198.73,436.31 191.57,429.31 182.72,423.06 163.26,413.56 143.95,403.67 137.72,399.14 132.43,394.49 128.57,388.82 127.07,385.03 125.87,380.77 125.11,376.32 124.95,372.02 125.49,368.22 127.15,364.51 129.85,361.11 133.17,358.02 136.79,355.44 140.33,353.37 146.81,351.65 153.81,351.42 160.67,350.79 170.03,348.45 178.97,344.81 184.60,341.41 190.02,337.27 194.70,332.35 198.30,327.03 201.29,321.01 203.44,314.64 204.67,304.87 204.61,293.73 201.59,251.05 202.33,240.69 203.90,231.43 206.27,221.90 209.49,212.87 213.65,204.50 218.61,196.80 231.00,182.93 244.80,170.07 257.11,156.20 262.22,148.93 266.64,140.72 270.53,129.89 272.95,118.13 273.12,106.25 271.65,94.68 269.03,85.22 265.46,76.50 261.30,68.30 256.18,60.75 251.31,55.13 245.78,49.89 239.93,45.67 233.77,42.74 227.29,40.90 220.73,40.00 213.95,40.08 207.06,41.13 200.42,43.17 194.13,46.10 188.03,49.97 182.29,54.62 174.26,63.22 167.28,72.91 162.77,80.92 158.71,90.14 49.15,344.11 44.96,353.69 42.07,362.83 40.38,371.94 40.00,381.40 41.63,393.28 44.98,404.57 49.42,412.74 54.92,419.74 61.65,426.11 69.76,432.36 106.41,457.96 115.15,465.78 122.55,473.83 135.29,492.16 145.80,513.34 154.65,537.14 160.86,561.85 164.05,585.06 167.97,659.52 169.22,665.61"
        fill="none"
        stroke="#e94560"
        stroke-width="8.0"
        stroke-linejoin="round"
        stroke-linecap="round"/>
  <!-- Start/finish line -->
  <line x1="188.82" y1="661.63" x2="149.62" y2="669.60"
        stroke="#f5f5f5" stroke-width="9.6"
        stroke-linecap="round"/>
</svg>
