<?xml version="1.0" encoding="utf-8"?>
<svg xmlns="http://www.w3.org/2000/svg"
     width="800.0" height="451.6"
     viewBox="0 0 800.0 451.6">
  <rect width="100%" height="100%" fill="#1a1a2e"/>
  <!-- Track outline -->
  <polyline points="231.69,149.16 243.61,154.03 296.69,175.54 308.25,178.16 318.39,178.74 328.55,177.60 338.19,174.84 343.50,172.52 348.54,169.64 353.25,165.98 359.57,158.87 365.36,150.49 370.75,140.35 376.36,130.57 382.84,123.43 390.13,117.62 399.69,112.20 409.87,108.33 419.56,106.29 429.76,105.81 441.92,107.05 458.10,110.31 689.38,167.41 728.70,178.06 739.18,182.85 747.73,188.61 751.34,192.12 754.43,195.97 756.86,200.28 758.51,204.71 759.62,209.52 760.00,214.34 759.49,219.33 758.22,224.31 756.46,228.86 754.16,232.91 751.34,236.44 748.21,239.47 744.51,242.13 740.44,244.18 736.14,245.69 731.31,246.70 726.19,247.02 719.98,246.65 691.19,239.03 662.36,231.36 656.16,230.95 651.03,231.24 646.11,232.23 641.27,233.85 636.62,236.10 632.45,238.93 629.32,241.76 626.55,245.01 624.36,248.61 622.90,252.22 621.89,256.14 621.54,260.01 621.94,263.81 622.98,267.57 624.45,270.93 626.63,274.05 629.33,276.69 632.37,278.85 636.17,280.66 640.39,281.80 645.42,282.38 657.48,281.19 671.92,278.41 684.72,277.03 694.55,278.12 703.35,280.73 712.09,284.82 720.55,290.49 729.69,298.67 737.96,308.28 744.12,317.43 748.46,326.91 749.55,331.63 749.98,336.35 749.74,340.90 748.67,345.43 746.86,349.79 744.60,353.76 741.63,357.63 738.09,360.99 734.20,363.85 729.64,366.37 724.58,368.13 717.93,369.61 666.67,372.76 615.92,371.28 607.59,369.56 601.22,366.83 596.98,364.38 592.93,361.43 589.33,357.92 586.38,354.14 583.79,349.88 581.77,345.14 580.03,337.23 579.26,327.83 580.11,308.20 580.40,287.07 577.24,270.20 572.17,254.23 564.68,236.88 555.99,221.72 548.81,212.79 541.16,205.92 535.57,202.07 529.73,198.97 523.94,196.75 518.69,195.51 513.45,194.98 508.32,195.17 503.34,195.99 498.44,197.47 493.79,199.60 489.58,202.26 485.59,205.51 482.02,209.33 479.03,213.47 476.42,218.12 474.42,223.10 473.16,228.26 472.44,233.70 472.36,239.15 473.51,247.38 476.07,255.46 481.21,264.88 488.11,274.25 500.99,287.70 513.61,301.38 519.70,310.94 524.22,320.91 527.44,331.71 529.20,343.06 529.17,354.75 527.62,366.05 524.90,375.56 521.06,384.11 516.08,391.83 510.21,398.36 505.61,402.19 500.64,405.38 495.50,407.92 490.09,409.86 484.50,411.10 478.94,411.63 473.45,411.43 467.97,410.54 462.72,408.94 457.94,406.74 453.35,403.88 449.22,400.42 445.83,396.72 442.80,392.48 440.48,387.88 439.04,383.29 438.16,378.37 437.98,373.51 439.26,366.58 441.87,359.47 448.35,347.78 454.63,335.80 456.77,327.64 457.49,319.63 457.22,314.30 456.32,309.00 454.64,303.58 446.69,290.75 437.73,278.00 432.85,268.99 429.39,259.99 428.27,254.35 427.81,248.57 428.03,242.42 431.26,228.77 435.55,214.99 438.54,204.71 440.26,195.29 439.97,190.65 439.06,186.31 437.65,182.32 435.60,178.45 433.01,174.96 430.14,172.11 426.86,169.85 423.26,168.31 419.60,167.39 415.79,167.10 411.91,167.51 408.07,168.60 404.04,170.53 400.07,173.19 396.46,176.51 393.46,180.07 390.79,184.21 388.31,189.44 382.61,207.78 379.00,227.70 378.88,239.05 380.45,249.32 383.75,258.56 388.53,267.47 398.18,280.01 406.76,291.99 408.30,296.05 409.19,299.90 409.43,303.70 409.00,307.45 407.95,311.16 406.46,314.47 404.84,316.87 402.86,319.02 400.65,320.86 398.34,322.39 394.79,323.99 390.95,324.91 387.06,325.22 383.08,324.93 379.06,324.01 375.01,322.44 368.53,318.49 361.15,312.20 340.67,288.31 315.26,260.45 243.51,213.01 65.05,105.06 54.95,98.09 48.24,91.94 45.35,88.19 42.98,84.24 41.28,80.03 40.37,75.97 40.00,71.71 40.24,67.62 41.25,63.55 42.91,59.68 45.06,56.17 48.24,52.61 52.11,49.61 56.39,47.04 64.95,43.53 75.34,41.23 123.39,40.00 285.79,46.73 297.41,49.51 306.04,53.36 313.78,58.23 320.70,64.45 324.87,69.38 328.68,74.90 331.61,80.64 333.24,85.36 334.30,90.22 334.60,94.97 334.06,99.45 332.84,103.83 331.13,107.77 328.76,111.43 325.83,114.60 322.65,117.19 318.98,119.27 315.03,120.65 311.03,121.37 307.27,121.45 303.48,120.84 298.96,119.32 286.98,112.06 272.33,101.50 257.61,92.76 237.14,86.30 217.73,82.74 204.29,80.88 192.69,80.71 188.21,81.41 184.24,82.60 180.54,84.39 177.24,86.64 174.17,89.40 171.66,92.69 169.87,96.18 168.51,100.05 167.85,104.00 168.03,107.92 168.87,111.89 170.23,115.66 172.41,119.78 175.32,123.58 179.18,127.18 199.04,136.96 219.00,144.42 229.22,148.14 231.69,149.16"
        fill="none"
        stroke="#e94560"
        stroke-width="8.0"
        stroke-linejoin="round"
        stroke-linecap="round"/>
  <!-- Start/finish line -->
  <line x1="239.25" y1="130.65" x2="224.12" y2="167.67"
        stroke="#f5f5f5" stroke-width="9.6"
        stroke-linecap="round"/>
</svg>
