<?xml version="1.0" encoding="utf-8"?>
<svg xmlns="http://www.w3.org/2000/svg"
     width="800.0" height="533.2"
     viewBox="0 0 800.0 533.2">
  <rect width="100%" height="100%" fill="#1a1a2e"/>
  <!-- Track outline -->
  <polyline points="620.81,140.82 631.93,147.70 740.71,216.11 747.09,222.03 751.31,227.65 754.95,234.57 757.65,242.09 759.30,250.01 760.00,258.08 759.76,265.60 758.79,273.00 757.26,280.27 754.98,287.38 751.22,295.29 746.58,302.59 741.53,308.47 735.98,313.68 722.90,323.78 707.93,332.18 606.33,374.76 521.01,408.65 468.48,423.80 399.81,441.10 392.33,444.16 385.47,448.08 346.03,477.47 330.53,485.87 322.74,489.02 314.85,491.37 307.04,492.75 299.27,493.17 291.83,492.56 284.50,490.98 277.24,488.38 270.18,484.84 263.24,480.24 256.62,474.90 244.70,463.26 239.87,457.31 235.68,450.78 231.89,442.84 229.34,434.28 228.78,428.72 228.91,423.06 229.71,417.66 231.26,412.41 233.52,407.43 236.40,403.12 239.27,400.13 242.62,397.49 246.23,395.40 249.87,394.08 254.84,393.70 260.04,394.53 265.18,395.95 273.07,399.49 280.88,403.54 295.93,409.52 300.92,410.71 305.97,411.45 310.95,411.35 314.83,410.68 318.81,409.58 322.52,407.94 325.63,405.63 327.47,403.51 329.17,400.97 330.58,398.20 331.60,395.27 332.15,392.38 332.08,388.58 331.30,384.53 329.99,380.58 328.42,376.97 325.85,372.92 322.59,369.42 318.44,365.56 298.45,351.28 277.99,336.58 265.52,322.30 244.02,292.94 238.42,287.09 232.76,282.58 227.91,279.56 222.69,276.96 217.40,275.25 213.50,274.61 209.52,274.38 205.61,274.64 201.92,275.51 198.62,276.89 195.44,278.79 192.51,281.10 189.94,283.77 187.29,287.50 185.18,291.81 183.60,296.96 182.97,307.15 183.43,319.15 182.87,329.54 181.37,335.10 179.36,339.86 176.78,344.01 173.34,347.77 169.26,350.86 164.94,353.18 160.21,354.69 155.19,355.36 150.19,355.36 145.21,354.62 140.22,353.18 135.36,351.18 128.81,347.52 121.31,341.92 61.69,286.03 52.52,274.70 47.86,267.12 43.96,258.82 41.46,250.62 40.10,242.22 40.00,234.09 41.14,226.14 43.83,218.49 47.69,211.45 52.72,204.89 58.61,199.35 65.50,194.92 73.00,191.60 81.25,189.29 89.82,188.00 98.62,187.52 107.55,187.90 125.90,190.99 171.52,204.47 204.59,217.52 238.83,235.05 255.96,245.63 272.68,257.72 288.62,271.23 303.74,285.96 368.50,359.54 380.95,370.32 393.76,379.00 402.14,383.31 410.87,386.88 419.24,389.29 427.61,390.61 435.69,390.71 443.58,389.68 450.86,387.65 457.78,384.56 463.89,380.70 469.52,375.75 473.38,371.44 476.97,366.49 479.76,361.18 481.48,355.85 482.50,350.15 482.67,344.46 481.77,338.51 479.95,332.59 477.62,327.13 473.35,320.24 468.14,314.17 462.12,308.44 454.35,302.68 396.46,270.46 380.54,260.17 333.12,221.77 298.55,200.25 289.96,196.49 280.83,193.76 231.21,186.26 221.60,184.08 213.50,181.31 206.29,177.61 199.86,172.98 196.34,169.70 193.14,166.04 190.61,161.85 189.13,158.16 187.99,154.04 187.29,149.79 187.22,145.74 187.85,141.85 189.09,137.99 190.78,134.29 192.77,130.95 196.34,126.67 200.66,123.04 205.32,120.01 213.72,116.48 222.52,114.42 230.56,113.65 238.61,113.84 256.06,116.38 270.30,120.24 284.98,126.12 299.98,133.75 314.56,143.65 328.68,155.55 342.01,168.87 373.19,205.11 380.32,211.16 387.02,215.40 391.56,217.72 396.19,219.52 400.97,220.58 405.12,220.87 409.49,220.74 413.78,220.03 417.71,218.65 421.06,216.75 424.27,214.28 427.10,211.32 429.36,208.00 430.91,204.43 431.98,200.41 432.61,196.20 432.81,192.05 432.22,186.26 430.77,180.41 428.75,175.01 424.80,168.22 419.85,162.24 413.93,156.61 406.55,151.11 386.80,140.08 367.17,128.76 359.96,122.75 354.38,116.41 349.96,109.59 346.71,102.13 345.40,97.02 344.65,91.65 344.58,86.37 345.28,81.10 346.69,75.89 348.68,71.03 351.47,66.31 354.92,62.00 358.72,58.07 365.52,52.64 373.09,48.27 382.02,44.76 391.14,42.32 406.41,40.00 422.62,40.13 439.58,42.89 456.97,47.69 474.66,54.18 492.52,62.35 564.08,106.31 611.42,135.03 620.81,140.82"
        fill="none"
        stroke="#e94560"
        stroke-width="8.0"
        stroke-linejoin="round"
        stroke-linecap="round"/>
  <!-- Start/finish line -->
  <line x1="631.33" y1="123.81" x2="610.30" y2="157.84"
        stroke="#f5f5f5" stroke-width="9.6"
        stroke-linecap="round"/>
</svg>
