<?xml version="1.0" encoding="utf-8"?>
<svg xmlns="http://www.w3.org/2000/svg"
     width="800.0" height="524.8"
     viewBox="0 0 800.0 524.8">
  <rect width="100%" height="100%" fill="#1a1a2e"/>
  <!-- Track outline -->
  <polyline points="459.65,388.91 352.68,414.72 307.62,429.33 255.34,462.50 243.07,470.26 230.69,476.76 218.23,481.43 210.62,483.28 202.81,484.43 195.41,484.75 188.14,484.32 181.46,483.16 174.95,481.14 168.10,477.97 161.76,473.81 156.46,468.79 152.08,462.93 148.75,456.15 146.36,448.99 144.89,442.46 144.13,435.85 144.39,422.05 146.20,408.46 149.56,395.47 154.91,382.94 162.52,371.36 171.86,360.60 182.58,350.81 194.52,342.29 233.34,322.64 274.28,308.64 288.94,305.26 303.45,303.84 310.01,304.16 317.38,305.26 358.03,316.34 372.80,319.32 388.33,320.73 416.55,318.94 447.63,313.54 483.36,303.24 516.83,290.07 538.81,278.30 555.80,267.07 561.55,262.48 566.14,257.89 571.28,252.00 575.71,245.53 578.91,238.86 581.09,231.94 582.16,225.15 582.16,218.40 581.04,211.76 578.78,205.41 575.21,199.37 570.65,193.89 565.01,188.95 558.61,184.85 551.32,181.62 543.74,179.31 537.15,178.10 529.94,177.55 500.35,178.21 485.09,181.51 469.95,186.99 446.69,200.36 425.26,218.20 413.80,226.28 401.42,232.89 388.14,237.82 374.27,241.03 359.97,243.05 330.68,243.80 194.33,236.35 180.96,238.34 165.64,242.93 158.66,245.97 152.08,249.54 146.05,253.67 140.56,258.38 131.57,269.66 114.91,294.20 109.40,299.80 103.69,304.13 99.67,306.53 95.42,308.52 90.99,309.91 85.95,310.63 80.68,310.71 75.67,310.11 71.32,308.92 67.15,307.13 63.27,304.91 57.76,300.55 52.93,295.27 48.84,289.12 45.53,282.37 42.99,274.89 41.26,267.27 40.31,260.43 40.00,253.64 40.24,246.63 41.13,239.61 42.75,232.57 45.14,225.73 48.47,219.21 52.56,213.06 57.50,207.31 63.03,202.09 69.14,197.32 75.70,193.11 90.15,186.44 105.78,181.65 174.61,171.63 219.46,170.45 279.16,173.65 295.37,172.53 308.93,170.19 316.75,167.74 323.62,164.62 330.20,160.92 336.18,156.51 341.06,151.43 345.31,145.77 348.83,139.59 352.34,133.36 356.75,127.44 361.70,121.92 367.40,116.99 373.53,112.66 379.88,108.99 386.47,105.96 392.89,103.71 399.58,102.15 406.30,101.17 415.06,101.28 479.69,114.82 548.25,130.06 563.86,131.94 575.92,132.20 583.97,131.33 591.32,129.63 598.71,127.15 605.80,123.83 612.43,119.67 618.44,114.68 623.34,108.85 627.91,102.01 641.29,78.36 650.39,67.86 660.83,58.19 672.66,49.90 685.53,43.81 691.83,41.67 698.36,40.32 706.18,40.00 713.94,40.81 720.47,42.68 726.61,45.48 732.49,49.21 737.84,53.74 742.64,59.14 746.81,65.17 750.35,71.75 753.15,78.77 756.25,94.01 759.95,123.37 760.00,136.99 758.50,150.79 755.12,164.24 749.98,176.68 745.78,183.81 740.96,190.48 736.73,195.22 731.44,199.92 714.33,211.35 697.08,222.76 686.79,232.22 677.67,242.99 670.71,255.06 665.86,267.88 660.46,294.49 655.69,307.39 648.94,319.37 640.68,330.00 634.94,335.63 628.56,340.82 614.30,349.28 601.99,354.85 564.98,365.10 520.60,374.22 459.65,388.91"
        fill="none"
        stroke="#e94560"
        stroke-width="8.0"
        stroke-linejoin="round"
        stroke-linecap="round"/>
  <!-- Start/finish line -->
  <line x1="464.34" y1="408.36" x2="454.96" y2="369.47"
        stroke="#f5f5f5" stroke-width="9.6"
        stroke-linecap="round"/>
</svg>
