<?xml version="1.0" encoding="utf-8"?>
<svg xmlns="http://www.w3.org/2000/svg"
     width="800.0" height="634.3"
     viewBox="0 0 800.0 634.3">
  <rect width="100%" height="100%" fill="#1a1a2e"/>
  <!-- Track outline -->
  <polyline points="525.21,189.70 335.20,77.07 294.14,59.91 258.03,49.79 214.10,42.65 169.70,40.00 126.65,41.68 99.30,45.25 74.39,51.15 67.58,53.98 61.48,57.44 54.46,62.41 48.36,68.42 44.42,75.60 41.79,82.89 40.57,87.11 40.00,91.62 40.37,102.30 42.26,113.39 43.84,117.92 45.87,121.96 48.29,125.68 51.13,129.08 54.40,132.12 58.27,134.90 68.76,139.69 79.11,143.02 86.73,144.23 105.24,145.38 203.31,139.98 255.94,144.84 315.95,161.57 390.53,194.42 419.45,210.43 443.59,226.77 452.80,234.88 460.45,243.21 464.97,249.72 468.41,256.47 471.17,264.02 472.96,271.81 473.56,279.39 473.06,286.93 471.31,294.26 468.34,301.33 463.79,308.52 458.22,315.06 451.95,320.53 445.72,324.89 442.28,326.93 438.57,328.61 429.37,331.65 420.03,334.01 412.34,334.83 386.78,333.68 359.58,333.11 351.99,334.33 345.69,336.19 339.52,338.44 333.11,341.51 321.51,348.45 310.83,355.92 306.98,359.17 303.44,363.07 281.19,395.31 249.37,443.78 240.87,453.32 232.27,460.51 227.65,463.48 222.46,466.08 214.37,469.09 205.84,471.09 198.93,471.34 192.19,470.55 185.14,468.73 178.33,465.91 171.86,461.90 165.99,457.01 161.03,451.36 156.99,445.17 154.16,438.88 152.27,432.38 151.36,426.05 151.39,419.62 152.50,412.68 154.59,405.75 157.83,398.56 162.05,391.73 167.34,385.44 173.00,380.08 176.47,377.29 181.06,374.47 219.76,356.27 260.05,336.69 267.20,331.79 272.63,326.82 279.81,318.89 286.05,309.70 289.22,302.62 291.64,295.08 293.09,288.00 293.53,283.18 293.40,278.64 292.62,273.88 289.01,263.09 283.82,252.86 279.71,247.18 274.38,241.96 259.95,230.99 243.60,220.73 221.45,211.04 200.68,204.71 180.32,201.39 163.76,201.68 148.49,204.32 142.83,205.79 136.96,208.15 123.58,216.30 111.27,225.55 107.56,229.24 104.53,233.17 94.82,248.82 86.39,269.56 69.67,336.08 59.32,404.25 59.72,427.55 62.96,446.93 67.81,462.40 73.88,477.17 78.43,485.07 83.46,492.04 95.80,505.98 114.44,521.10 135.21,533.68 156.35,544.47 175.13,550.59 188.21,553.73 201.56,555.66 212.68,555.34 222.63,553.91 228.02,552.62 233.25,550.73 242.79,546.30 251.79,541.22 255.60,538.43 259.14,535.14 274.62,517.27 297.81,483.67 320.67,452.72 326.71,447.50 332.61,444.17 338.37,441.78 344.68,439.95 350.78,439.06 355.83,439.28 360.72,440.21 365.04,441.49 367.77,442.56 370.16,443.85 372.46,445.64 375.66,449.00 378.69,453.22 380.99,457.68 382.33,462.08 383.01,466.69 382.97,471.52 381.90,477.95 379.84,484.67 377.31,490.39 374.17,494.75 370.60,498.40 362.17,505.80 350.61,513.77 339.18,523.21 334.90,529.14 331.63,535.47 329.44,541.97 328.39,548.33 328.32,554.88 329.17,561.20 330.95,567.39 333.68,573.39 337.19,578.75 341.51,583.29 346.63,587.23 352.13,590.30 358.03,592.52 364.30,593.91 370.80,594.30 378.39,593.45 386.28,591.34 393.93,588.23 405.23,581.29 417.13,571.39 471.41,514.23 488.97,500.61 506.17,490.25 522.52,482.85 539.14,477.67 555.19,474.59 571.71,473.70 611.79,480.31 652.69,486.78 663.41,486.50 672.41,485.17 690.95,480.92 705.05,475.56 717.79,468.30 730.13,458.29 740.72,446.50 748.44,434.13 754.13,420.58 757.37,408.50 759.60,396.99 760.00,392.63 759.93,388.45 757.84,372.36 754.34,359.35 750.19,347.55 745.77,339.69 734.75,323.93 721.63,310.02 701.84,294.44 525.21,189.70"
        fill="none"
        stroke="#e94560"
        stroke-width="8.0"
        stroke-linejoin="round"
        stroke-linecap="round"/>
  <!-- Start/finish line -->
  <line x1="515.01" y1="206.91" x2="535.41" y2="172.50"
        stroke="#f5f5f5" stroke-width="9.6"
        stroke-linecap="round"/>
</svg>
