<?xml version="1.0" encoding="utf-8"?>
<svg xmlns="http://www.w3.org/2000/svg"
     width="800.0" height="794.3"
     viewBox="0 0 800.0 794.3">
  <rect width="100%" height="100%" fill="#1a1a2e"/>
  <!-- Track outline -->
  <polyline points="177.27,406.18 56.56,159.33 45.74,134.19 41.14,120.80 40.00,109.78 41.43,99.36 45.89,89.59 52.62,80.35 59.97,73.68 72.41,65.88 83.35,60.83 94.26,59.04 106.36,58.56 117.84,60.64 130.73,64.47 140.74,69.81 152.88,80.19 162.86,91.41 182.80,116.97 199.22,139.17 210.58,153.20 217.51,160.68 223.31,164.64 229.62,167.23 236.97,168.06 244.39,167.58 251.86,164.89 259.00,160.61 265.04,155.69 268.60,148.38 269.86,140.04 269.53,129.59 267.23,119.05 263.94,107.70 260.68,97.32 259.03,89.52 258.85,81.70 259.96,74.44 263.01,66.65 266.69,60.51 272.40,53.55 278.44,48.63 284.41,44.95 290.69,41.89 297.69,40.16 304.53,40.00 313.50,42.46 322.77,46.93 333.62,55.27 345.52,67.03 356.34,78.15 431.16,159.40 439.15,168.57 444.08,176.36 446.95,182.91 448.98,190.13 449.64,197.90 448.05,205.41 443.57,212.88 438.43,219.15 432.75,224.39 426.23,228.06 417.41,231.16 405.43,233.71 389.91,235.47 376.10,235.86 365.55,234.74 357.92,232.21 352.87,227.87 349.64,221.80 347.70,213.78 348.93,206.62 353.71,199.05 360.85,189.75 367.22,181.38 371.35,174.93 373.47,168.50 373.53,161.95 369.97,153.81 365.67,147.54 360.08,142.21 353.20,137.29 344.53,136.11 336.43,137.38 328.36,141.12 321.51,146.30 276.76,196.11 267.37,204.00 256.52,210.36 245.13,215.09 231.80,218.60 215.63,221.00 183.82,223.75 176.02,225.15 169.86,229.62 166.99,236.30 165.85,243.91 166.15,251.99 167.77,259.66 172.01,266.53 176.83,271.61 183.28,274.61 189.56,275.54 199.66,276.18 496.33,276.21 508.92,277.17 518.10,279.21 526.74,282.50 533.94,287.33 539.83,293.30 545.78,301.35 753.24,655.04 757.34,662.30 759.73,667.86 760.00,673.45 757.94,679.36 754.14,684.05 748.70,687.63 672.86,739.62 660.36,747.64 653.94,750.70 648.35,752.78 642.79,754.15 636.21,754.28 630.35,753.16 625.87,750.64 621.26,745.91 617.58,740.29 615.64,733.29 615.01,723.80 615.46,713.38 615.10,706.42 612.83,700.09 609.12,694.76 603.77,689.65 595.88,684.76 585.18,682.49 574.51,681.91 564.67,683.38 555.76,683.22 548.29,681.66 543.09,678.88 538.42,673.83 534.99,669.01 532.18,663.67 530.65,658.72 530.92,652.84 531.13,647.41 531.58,640.31 531.67,632.55 530.80,624.63 529.01,618.72 526.77,611.97 525.84,606.48 526.32,600.28 531.04,592.04 538.04,584.82 545.15,579.48 553.07,573.99 560.67,569.54 568.77,565.23 574.75,562.74 581.17,561.56 587.90,562.20 593.91,564.75 598.69,568.23 603.18,572.48 606.61,577.76 608.71,582.16 609.39,588.43 607.36,595.01 603.32,602.01 599.62,608.81 597.41,615.07 595.82,622.10 596.78,630.19 599.77,637.89 603.03,643.67 606.97,648.65 612.59,653.86 618.27,657.47 626.79,659.84 634.41,660.89 641.32,660.54 648.94,657.85 655.34,654.47 660.30,650.06 665.50,644.47 670.05,637.63 672.98,631.02 674.11,623.99 673.46,617.28 670.83,609.39 667.45,602.58 604.07,490.21 599.26,482.80 593.82,477.94 587.12,474.84 578.90,474.33 571.43,476.54 564.91,480.85 559.89,487.27 555.46,496.44 549.28,508.71 541.09,519.77 529.22,531.40 511.55,544.11 494.69,555.26 482.82,560.98 473.32,563.76 467.31,564.11 460.49,562.39 439.15,553.73 425.07,547.31 417.83,543.15 410.81,538.36 405.31,532.87 401.81,527.69 398.97,521.17 397.29,514.37 397.71,508.14 401.00,502.35 405.04,497.02 410.93,492.90 420.37,487.88 507.81,449.89 516.42,445.64 522.52,441.26 528.86,434.27 534.60,425.64 539.20,416.76 541.00,410.43 542.22,400.62 542.52,392.48 541.92,385.00 539.53,375.64 535.70,367.62 531.37,360.24 527.39,354.55 521.00,347.75 513.25,340.30 505.33,334.65 498.67,331.71 489.31,329.69 477.92,328.51 459.29,327.74 343.87,334.58 335.32,335.64 326.30,337.71 317.45,341.93 310.81,347.90 305.49,355.45 303.40,363.94 303.37,372.06 305.25,380.08 308.57,388.23 313.62,394.74 321.06,400.40 328.33,402.22 337.21,402.16 346.71,399.86 446.56,369.54 454.78,369.06 462.49,371.23 468.38,375.38 473.20,381.45 476.45,388.26 477.98,396.72 477.59,404.68 475.68,411.20 472.54,416.85 468.08,420.94 462.49,424.43 455.35,426.98 404.41,438.74 396.04,441.04 388.63,443.63 383.15,446.79 377.21,451.30 372.45,458.84 370.36,469.03 369.82,480.15 369.55,494.21 368.54,506.12 365.61,516.99 360.49,526.09 354.34,531.27 345.58,535.17 335.89,536.99 288.21,543.50 276.76,542.83 266.54,541.30 255.93,537.15 246.78,533.15 239.48,526.60 233.24,518.74 227.23,508.49 220.50,496.12 178.71,409.12 177.27,406.18"
        fill="none"
        stroke="#e94560"
        stroke-width="8.0"
        stroke-linejoin="round"
        stroke-linecap="round"/>
  <!-- Start/finish line -->
  <line x1="159.31" y1="414.97" x2="195.24" y2="397.40"
        stroke="#f5f5f5" stroke-width="9.6"
        stroke-linecap="round"/>
</svg>
