<?xml version="1.0" encoding="utf-8"?>
<svg xmlns="http://www.w3.org/2000/svg"
     width="800.0" height="741.1"
     viewBox="0 0 800.0 741.1">
  <rect width="100%" height="100%" fill="#1a1a2e"/>
  <!-- Track outline -->
  <polyline points="528.14,86.25 603.01,52.11 628.38,44.22 649.50,40.63 670.03,40.00 689.30,42.24 704.37,46.50 718.22,53.28 728.04,60.23 737.32,68.62 745.30,77.77 751.35,86.97 756.23,96.88 758.79,109.71 760.00,128.11 758.79,155.07 739.15,248.87 727.50,299.74 719.74,320.25 707.59,339.18 692.62,357.26 675.23,373.72 653.80,389.33 630.80,402.52 608.43,412.84 586.87,419.12 576.69,419.79 567.06,418.94 558.27,416.65 551.46,413.33 545.40,408.85 539.08,403.33 528.50,393.32 517.56,381.35 509.45,369.82 506.31,362.77 504.52,355.91 503.98,348.96 504.70,340.97 506.76,332.85 510.03,325.45 513.04,320.70 516.62,316.30 520.97,312.35 526.22,308.85 548.77,302.44 574.50,297.82 596.06,292.84 615.65,286.38 625.20,281.13 633.72,275.07 641.02,268.21 646.63,261.16 651.24,253.54 654.61,245.55 656.76,237.48 657.79,229.09 657.52,220.70 655.64,211.64 652.28,202.53 647.75,194.14 641.92,186.47 634.93,179.52 626.99,173.69 617.76,168.98 607.49,165.57 596.46,163.28 575.21,161.89 550.47,164.22 497.57,177.36 444.36,196.16 415.76,209.48 391.91,224.65 373.66,240.71 358.96,258.52 348.78,276.69 341.83,295.35 338.25,311.23 337.53,327.29 339.05,339.40 342.19,351.78 347.08,364.66 362.41,392.97 382.99,420.91 408.23,446.04 435.57,466.99 457.72,479.77 480.27,488.70 502.46,494.04 525.86,495.47 557.87,488.97 589.02,481.07 608.30,478.87 625.69,479.01 635.24,480.49 644.25,482.96 652.81,486.50 661.29,491.48 669.27,497.63 676.30,504.62 682.27,512.52 687.24,521.27 691.28,530.91 694.77,543.70 696.97,557.70 697.60,571.56 695.40,591.43 690.20,610.68 682.58,628.76 672.49,645.53 659.67,661.06 644.74,674.51 628.34,685.19 610.54,693.31 590.90,698.78 571.09,701.07 554.50,699.90 538.23,695.96 519.67,688.42 501.56,677.74 484.57,663.43 466.32,644.68 369.99,535.98 251.64,445.27 168.75,384.58 147.54,375.02 126.52,368.97 95.27,365.56 66.94,361.56 59.10,358.06 52.78,353.89 47.71,348.96 44.98,345.14 42.78,340.93 41.21,336.49 40.31,332.09 40.00,327.74 40.27,323.34 41.26,318.90 43.14,314.50 49.86,306.03 59.86,297.64 71.78,289.34 145.30,253.90 385.63,151.26 528.14,86.25"
        fill="none"
        stroke="#e94560"
        stroke-width="8.0"
        stroke-linejoin="round"
        stroke-linecap="round"/>
  <!-- Start/finish line -->
  <line x1="519.84" y1="68.05" x2="536.44" y2="104.45"
        stroke="#f5f5f5" stroke-width="9.6"
        stroke-linecap="round"/>
</svg>
