<?xml version="1.0" encoding="utf-8"?>
<svg xmlns="http://www.w3.org/2000/svg"
     width="706.9" height="800.0"
     viewBox="0 0 706.9 800.0">
  <rect width="100%" height="100%" fill="#1a1a2e"/>
  <!-- Track outline -->
  <polyline points="401.87,43.87 428.80,44.33 451.40,45.07 468.63,45.73 501.69,47.73 523.64,50.80 533.11,52.47 547.62,57.20 557.41,61.27 568.18,67.00 576.73,73.27 581.71,79.00 586.25,85.73 589.86,93.13 592.13,100.80 592.89,108.27 592.53,116.27 591.28,124.27 589.32,131.80 584.79,142.33 578.55,152.27 571.57,161.07 559.55,172.27 546.07,181.00 529.82,188.00 512.95,192.80 499.38,196.07 482.42,196.73 368.00,168.60 253.18,136.47 235.73,133.33 221.67,132.47 204.18,133.47 187.09,137.33 177.21,141.60 167.82,147.20 159.36,154.13 152.51,161.73 146.41,170.47 141.43,180.07 136.26,195.40 133.33,212.00 132.57,227.73 134.26,248.13 162.34,409.33 198.26,566.33 205.56,583.40 212.99,595.20 222.11,608.20 232.22,619.87 243.70,630.33 256.03,639.47 269.69,647.60 284.15,654.53 298.97,660.47 317.27,665.67 393.24,678.47 468.67,686.67 485.36,686.67 499.25,685.20 515.76,682.53 532.18,677.73 543.08,672.93 553.81,666.87 563.24,659.20 570.45,650.67 576.69,640.80 581.45,630.07 584.52,618.93 586.34,607.07 586.70,595.13 585.45,582.87 582.74,570.60 578.91,559.40 573.93,549.67 567.78,541.07 560.98,533.40 548.56,523.07 534.76,515.07 518.92,509.20 502.27,505.47 484.69,503.27 466.76,503.00 429.64,508.93 367.82,526.60 349.75,529.13 333.20,529.47 317.71,528.13 302.58,524.20 286.65,516.00 271.78,505.07 260.66,493.80 250.91,480.93 242.68,467.27 235.24,450.93 216.95,386.73 211.34,355.80 209.61,339.20 209.52,322.47 212.06,304.87 217.09,288.27 222.34,278.13 228.88,269.00 236.18,261.00 244.95,253.80 254.69,248.07 264.88,243.53 282.55,239.13 300.89,237.40 336.63,239.13 374.54,244.40 444.95,259.80 481.98,271.60 538.63,299.07 564.54,315.80 592.89,340.80 604.59,354.73 615.09,370.07 623.91,386.20 631.47,403.53 642.78,440.67 663.87,555.60 666.85,590.93 666.59,608.00 664.89,624.67 661.38,640.60 656.35,655.67 649.72,669.73 641.84,682.67 632.41,695.20 621.90,706.60 609.62,717.40 596.31,726.67 581.14,734.47 565.29,740.87 532.63,751.47 498.58,757.60 463.29,760.00 314.24,747.00 277.12,740.00 242.68,729.00 226.92,721.47 211.88,712.47 198.22,702.40 185.35,691.00 162.70,664.80 143.47,635.07 129.01,601.80 118.68,566.13 41.16,190.93 40.00,173.27 40.98,159.47 44.14,140.80 49.52,122.67 57.45,105.67 67.33,90.47 79.48,76.93 93.09,65.73 108.58,56.80 125.05,50.13 143.07,44.93 161.23,41.60 193.54,40.00 401.87,43.87"
        fill="none"
        stroke="#e94560"
        stroke-width="8.0"
        stroke-linejoin="round"
        stroke-linecap="round"/>
  <!-- Start/finish line -->
  <line x1="402.24" y1="23.87" x2="401.50" y2="63.86"
        stroke="#f5f5f5" stroke-width="9.6"
        stroke-linecap="round"/>
</svg>
