<?xml version="1.0" encoding="utf-8"?>
<svg xmlns="http://www.w3.org/2000/svg"
     width="595.3" height="800.0"
     viewBox="0 0 595.3 800.0">
  <rect width="100%" height="100%" fill="#1a1a2e"/>
  <!-- Track outline -->
  <polyline points="461.53,537.13 444.40,642.77 439.53,658.11 434.46,669.17 420.39,692.82 412.19,703.93 403.23,714.05 382.39,730.65 360.12,744.30 348.07,749.56 335.64,753.75 309.25,758.97 281.29,760.00 251.67,758.66 220.58,755.54 188.40,753.67 155.74,751.61 126.19,747.82 103.61,741.35 84.98,732.88 74.87,726.72 65.27,719.32 56.92,710.71 49.81,700.76 45.96,693.62 42.79,685.95 40.72,678.01 40.00,669.84 40.37,661.46 41.67,653.56 43.75,646.83 46.67,640.54 50.15,634.74 56.92,626.44 64.86,619.48 74.05,613.99 84.03,610.11 95.33,607.70 107.08,606.77 119.41,606.99 131.94,608.37 158.64,614.62 246.42,649.19 258.34,653.16 268.52,655.48 279.55,656.46 290.38,655.70 297.06,654.14 303.56,651.73 309.79,648.30 316.33,643.35 322.53,637.28 327.53,630.36 330.16,625.06 332.30,619.30 333.70,613.32 334.17,607.39 333.05,599.14 330.29,590.80 326.68,583.30 322.29,576.92 317.05,571.39 311.29,566.35 300.43,559.08 288.95,553.19 269.00,546.01 199.06,528.39 187.55,523.57 178.01,518.30 168.92,512.37 160.44,505.68 153.05,498.54 146.41,490.60 140.73,482.30 136.06,472.98 132.35,460.36 130.37,447.15 130.44,436.58 131.80,426.28 134.12,415.93 137.90,404.95 160.13,363.20 171.98,345.26 179.95,335.49 188.84,327.02 195.11,322.96 201.71,319.79 208.45,317.70 215.33,316.71 222.35,316.80 229.23,317.78 235.83,319.48 242.27,322.02 248.29,325.72 254.25,331.12 259.70,337.81 263.86,345.00 265.97,351.51 267.09,358.47 267.67,365.61 267.06,377.52 266.24,389.78 266.92,402.72 269.17,415.21 271.96,422.80 275.64,429.93 279.96,436.27 285.21,441.89 291.13,446.66 297.43,450.68 304.24,454.11 311.39,456.70 318.61,458.30 325.93,458.93 333.32,458.57 340.47,457.14 347.22,454.56 353.75,450.94 359.75,446.48 365.02,441.40 369.79,435.46 373.84,428.95 378.44,417.71 381.51,405.84 383.00,395.49 383.38,385.10 381.06,362.66 375.21,338.84 365.94,314.75 339.32,269.70 329.03,247.75 325.42,236.82 322.83,225.71 321.47,214.74 321.34,203.81 322.73,193.14 325.39,182.80 329.20,172.67 334.07,163.17 347.45,145.55 363.39,127.61 382.12,109.46 444.50,63.15 462.31,52.18 473.24,46.87 484.61,42.72 495.99,40.45 507.33,40.00 514.58,40.80 521.73,42.45 528.44,45.13 534.33,48.65 539.78,53.12 544.48,58.42 548.22,64.58 551.22,71.54 553.43,78.94 555.07,91.35 555.27,104.01 553.50,125.61 492.48,346.51 461.53,537.13"
        fill="none"
        stroke="#e94560"
        stroke-width="8.0"
        stroke-linejoin="round"
        stroke-linecap="round"/>
  <!-- Start/finish line -->
  <line x1="481.27" y1="540.33" x2="441.79" y2="533.93"
        stroke="#f5f5f5" stroke-width="9.6"
        stroke-linecap="round"/>
</svg>
