<?xml version="1.0" encoding="utf-8"?>
<svg xmlns="http://www.w3.org/2000/svg"
     width="800.0" height="540.9"
     viewBox="0 0 800.0 540.9">
  <rect width="100%" height="100%" fill="#1a1a2e"/>
  <!-- Track outline -->
  <polyline points="127.12,271.32 285.08,386.37 367.82,419.44 404.62,437.16 488.23,476.27 533.48,490.39 577.38,497.58 620.48,500.93 640.14,499.95 658.02,496.60 679.79,489.98 700.69,480.76 718.08,470.06 733.18,457.08 741.50,447.36 748.59,436.75 754.02,425.15 757.97,411.19 760.00,396.08 759.69,381.39 756.92,367.51 751.92,353.87 745.14,341.30 736.08,329.29 725.17,318.35 713.20,308.96 695.26,299.25 672.57,290.35 508.76,233.27 391.25,172.52 370.96,162.97 352.90,156.60 343.03,154.23 332.80,152.27 322.87,151.70 313.87,153.41 308.07,156.19 302.28,160.11 296.73,165.01 291.92,170.40 288.16,176.20 285.88,181.91 285.20,189.50 286.49,197.92 289.27,206.65 293.03,214.98 297.28,222.49 306.35,233.11 317.69,242.33 329.84,250.50 347.10,260.30 369.36,269.12 568.93,314.84 609.87,325.62 622.82,331.66 635.15,338.93 645.20,348.07 649.95,354.69 654.02,362.28 657.22,370.36 659.20,378.45 659.63,386.04 658.39,393.23 655.74,400.58 651.86,407.68 647.17,414.05 641.75,419.27 632.75,424.34 621.83,427.77 610.18,429.81 598.96,431.20 580.77,431.68 559.38,428.83 475.16,406.05 390.01,377.39 344.51,356.65 301.41,329.13 261.59,294.43 227.06,253.03 201.29,210.57 184.33,168.93 173.61,127.78 161.77,88.34 155.79,76.25 149.25,66.29 141.30,57.72 133.65,51.68 125.02,46.29 115.77,42.20 106.53,40.08 98.76,40.00 90.49,41.14 82.29,43.35 74.59,46.53 67.87,50.53 60.96,56.90 55.17,64.82 50.30,73.72 46.35,83.03 42.28,97.65 40.18,113.49 40.00,129.00 43.76,150.64 50.60,171.13 58.37,188.28 67.74,204.45 91.67,236.78 121.94,267.56 127.12,271.32"
        fill="none"
        stroke="#e94560"
        stroke-width="8.0"
        stroke-linejoin="round"
        stroke-linecap="round"/>
  <!-- Start/finish line -->
  <line x1="138.89" y1="255.15" x2="115.34" y2="287.49"
        stroke="#f5f5f5" stroke-width="9.6"
        stroke-linecap="round"/>
</svg>
