<?xml version="1.0" encoding="utf-8"?>
<svg xmlns="http://www.w3.org/2000/svg"
     width="783.9" height="800.0"
     viewBox="0 0 783.9 800.0">
  <rect width="100%" height="100%" fill="#1a1a2e"/>
  <!-- Track outline -->
  <polyline points="682.04,307.06 738.98,466.68 743.01,490.62 743.92,510.51 743.16,525.28 740.94,538.98 737.27,552.62 732.29,565.36 725.89,577.28 717.89,588.41 704.18,603.00 687.78,616.52 664.99,629.87 639.10,642.07 561.98,674.65 513.26,708.54 468.61,739.81 448.90,749.10 430.25,754.70 404.18,759.11 377.34,760.00 351.86,756.72 329.35,750.65 318.62,745.88 309.50,739.93 301.43,733.38 294.12,725.04 288.99,716.88 284.30,707.35 281.06,697.34 279.61,687.52 279.43,677.21 280.48,667.27 283.25,657.20 287.46,647.55 292.55,638.74 299.06,630.10 306.62,622.54 315.17,615.81 333.89,605.09 355.93,597.05 389.67,591.15 428.94,588.11 498.42,586.74 562.27,583.77 581.90,579.42 598.08,572.93 613.43,564.17 627.32,552.68 634.92,544.04 641.82,534.21 647.50,523.49 651.64,512.71 654.73,501.04 656.44,488.65 656.15,466.97 651.31,440.41 608.26,318.38 556.67,201.40 542.56,178.53 529.58,163.40 521.58,155.96 513.51,150.00 505.29,145.36 497.00,141.96 488.57,139.76 480.24,138.87 472.28,139.16 464.39,140.59 456.94,143.27 450.17,147.03 443.77,151.85 438.54,157.45 435.63,161.98 433.37,166.92 431.77,172.64 430.54,181.09 430.21,190.62 431.05,200.21 433.67,211.05 437.96,221.89 446.83,236.36 467.95,260.13 493.48,294.79 502.75,315.75 508.17,336.60 509.77,354.23 508.86,371.68 505.48,389.85 499.84,407.24 491.40,424.69 480.97,440.47 468.24,454.94 453.41,467.33 431.67,479.84 407.01,489.72 374.07,498.54 340.15,503.66 311.64,504.79 283.83,502.65 255.79,497.17 228.20,488.47 202.05,477.04 176.09,462.15 146.79,441.07 118.46,415.99 93.41,388.59 71.71,358.82 57.45,333.03 47.02,306.88 42.07,286.09 40.00,265.43 40.95,244.40 44.22,224.93 48.22,212.00 53.38,200.75 59.60,190.09 67.20,180.32 80.07,168.29 94.76,158.28 105.16,153.34 115.96,149.83 126.86,147.68 143.84,147.32 159.91,149.65 170.75,152.86 180.64,157.51 189.80,163.23 198.16,170.49 204.89,178.47 210.56,188.42 214.20,198.19 217.11,209.38 218.71,221.35 217.29,244.05 213.51,267.81 208.45,291.87 205.00,314.92 206.24,332.49 210.09,348.57 214.34,358.88 219.80,368.40 225.94,376.80 233.25,384.43 241.40,390.80 249.94,395.92 259.47,399.97 269.47,402.59 279.54,404.02 290.01,404.26 300.55,403.31 310.15,401.16 316.55,398.90 322.37,395.98 328.04,391.75 334.88,384.96 341.53,376.50 347.02,366.97 350.84,357.39 353.64,346.90 355.20,335.71 354.98,314.68 351.02,291.28 332.73,247.26 314.66,204.26 311.24,184.85 310.99,166.92 313.93,147.98 319.64,129.99 328.30,113.02 339.60,97.71 357.78,79.78 378.73,64.66 402.72,52.75 427.12,44.71 447.34,40.89 467.15,40.00 487.40,41.55 507.37,45.96 525.91,52.92 544.13,63.29 564.78,79.73 584.34,100.09 600.12,121.18 614.92,147.26 653.60,233.74 678.58,296.76 682.04,307.06"
        fill="none"
        stroke="#e94560"
        stroke-width="8.0"
        stroke-linejoin="round"
        stroke-linecap="round"/>
  <!-- Start/finish line -->
  <line x1="700.88" y1="300.36" x2="663.19" y2="313.76"
        stroke="#f5f5f5" stroke-width="9.6"
        stroke-linecap="round"/>
</svg>
