<?xml version="1.0" encoding="utf-8"?>
<svg xmlns="http://www.w3.org/2000/svg"
     width="584.7" height="800.0"
     viewBox="0 0 584.7 800.0">
  <rect width="100%" height="100%" fill="#1a1a2e"/>
  <!-- Track outline -->
  <polyline points="129.67,364.41 130.98,348.16 137.72,180.35 142.47,138.59 146.51,120.40 152.11,103.93 160.04,88.26 170.30,74.34 177.44,66.62 185.25,59.45 192.96,53.74 201.11,48.97 209.78,45.31 218.87,42.62 228.70,40.83 238.87,40.00 260.40,41.26 277.36,44.84 373.67,73.44 391.40,81.98 407.76,92.06 422.46,103.04 428.58,109.24 434.09,115.92 443.40,130.30 450.54,146.70 453.14,150.97 454.85,155.31 456.08,164.64 454.18,254.69 446.86,304.46 421.32,416.83 400.65,503.72 400.44,513.41 401.72,521.27 402.80,525.50 404.17,529.77 405.98,533.68 408.46,536.84 410.63,538.53 413.21,540.03 416.06,541.29 418.99,542.15 421.87,542.58 424.51,542.47 427.51,541.50 430.45,539.71 433.30,537.38 435.93,534.69 438.32,532.00 443.00,524.42 447.11,515.20 461.68,477.93 470.01,460.99 478.56,446.93 483.86,440.26 490.01,434.34 494.88,430.78 500.21,427.70 505.78,425.69 510.28,424.97 515.06,424.83 519.72,425.37 523.91,426.62 527.43,428.67 530.65,431.47 533.50,434.77 535.95,438.28 539.56,446.86 541.86,456.40 544.43,477.14 544.70,497.48 536.96,552.63 509.58,671.56 503.85,690.25 497.42,705.93 493.07,714.47 487.93,722.72 481.83,730.47 474.79,737.04 470.90,739.69 466.71,742.06 462.42,743.75 458.19,744.36 454.76,743.85 451.18,742.64 447.69,740.84 444.50,738.69 441.84,736.32 438.87,732.09 436.85,727.06 434.92,721.29 430.60,704.14 426.19,686.88 422.88,678.20 418.69,670.77 414.65,665.86 409.93,661.34 404.79,657.82 400.87,656.06 396.70,654.73 392.44,654.02 388.28,653.87 384.21,654.41 380.13,655.52 376.18,657.21 372.48,659.33 365.56,665.71 359.00,674.22 338.58,707.76 327.58,721.50 315.46,733.41 302.07,743.50 295.00,747.55 287.44,751.03 268.45,756.63 249.49,759.25 230.75,760.00 212.29,759.39 158.94,750.78 98.58,733.92 79.90,726.13 72.03,721.79 64.80,716.80 58.40,711.03 52.68,704.42 47.04,696.03 42.73,686.95 41.10,681.14 40.18,675.18 40.00,669.19 41.19,659.76 43.80,650.54 47.01,642.71 51.61,634.57 76.56,601.38 95.46,568.70 103.27,549.54 120.20,482.66 129.67,364.41"
        fill="none"
        stroke="#e94560"
        stroke-width="8.0"
        stroke-linejoin="round"
        stroke-linecap="round"/>
  <!-- Start/finish line -->
  <line x1="109.73" y1="362.81" x2="149.60" y2="366.01"
        stroke="#f5f5f5" stroke-width="9.6"
        stroke-linecap="round"/>
</svg>
