<?xml version="1.0" encoding="utf-8"?>
<svg xmlns="http://www.w3.org/2000/svg"
     width="548.7" height="800.0"
     viewBox="0 0 548.7 800.0">
  <rect width="100%" height="100%" fill="#1a1a2e"/>
  <!-- Track outline -->
  <polyline points="232.10,511.33 166.43,537.25 103.85,565.16 83.97,578.02 68.74,590.81 57.05,603.45 48.07,616.40 43.80,625.51 41.25,634.99 40.00,646.69 40.67,659.07 44.05,673.52 49.79,687.58 58.10,700.68 68.69,712.66 84.52,725.78 102.48,737.22 121.88,746.90 142.16,754.12 163.48,758.40 183.96,760.00 198.59,759.43 211.37,757.13 216.84,755.38 221.74,753.18 226.28,750.16 230.85,745.91 235.07,740.81 238.54,735.23 241.14,729.46 243.06,723.28 244.09,716.97 244.14,710.45 243.26,703.81 241.61,697.42 238.89,690.96 235.30,684.74 231.15,679.07 223.88,671.38 215.29,664.98 203.73,659.52 190.10,655.47 164.68,652.55 140.61,649.41 134.19,647.15 128.87,644.52 124.48,641.29 122.23,639.06 120.31,636.62 118.73,633.99 117.58,631.21 116.91,628.41 116.61,625.42 116.69,622.37 117.13,619.36 118.68,614.65 121.13,609.94 124.18,605.81 128.10,602.16 132.74,599.14 137.84,596.72 147.55,594.01 159.68,592.98 196.22,597.15 234.15,601.34 250.25,599.89 264.29,596.36 277.62,591.05 290.66,583.21 306.91,568.84 323.49,550.80 365.14,496.42 379.60,481.94 393.19,471.20 399.45,467.49 405.47,464.80 411.34,463.02 416.31,462.18 421.18,462.02 425.87,462.54 430.32,463.68 434.64,465.49 438.56,467.88 441.95,470.68 445.02,474.06 447.50,477.99 449.49,483.09 450.84,488.82 451.24,494.61 450.54,500.53 448.85,506.47 446.37,512.27 440.06,522.04 431.27,531.76 392.19,562.60 377.95,574.27 366.14,585.77 361.72,591.66 358.15,597.57 355.53,603.66 353.93,609.55 353.11,615.61 353.16,621.23 353.98,625.57 355.45,629.61 357.45,633.15 360.10,636.16 363.30,638.64 366.92,640.63 371.79,642.35 377.23,643.37 382.92,643.68 389.47,643.25 396.31,641.90 403.82,639.24 425.72,626.66 448.22,609.88 465.28,594.55 479.86,577.93 490.07,561.87 498.01,545.10 503.48,529.49 507.03,513.02 508.68,492.53 507.95,471.29 505.00,450.41 499.34,429.28 489.12,405.42 473.09,376.27 378.75,219.69 282.59,76.39 268.31,62.06 256.22,53.55 244.98,47.00 233.80,42.53 226.76,40.84 219.74,40.00 213.30,40.15 208.73,41.00 204.53,42.44 200.71,44.65 197.22,47.72 194.12,51.50 191.62,55.69 189.82,60.16 188.63,65.01 188.13,69.96 188.30,75.03 189.25,80.25 191.17,85.96 201.34,103.43 217.74,125.36 342.50,271.44 365.79,307.02 372.71,321.95 377.70,337.01 380.65,352.28 381.70,367.28 380.95,379.47 378.60,391.45 373.63,405.93 366.82,420.17 358.13,433.96 347.99,446.73 336.50,458.43 323.59,468.96 306.79,479.62 288.48,489.03 246.78,505.54 232.10,511.33"
        fill="none"
        stroke="#e94560"
        stroke-width="8.0"
        stroke-linejoin="round"
        stroke-linecap="round"/>
  <!-- Start/finish line -->
  <line x1="239.44" y1="529.93" x2="224.76" y2="492.73"
        stroke="#f5f5f5" stroke-width="9.6"
        stroke-linecap="round"/>
</svg>
