<?xml version="1.0" encoding="utf-8"?>
<svg xmlns="http://www.w3.org/2000/svg"
     width="637.1" height="800.0"
     viewBox="0 0 637.1 800.0">
  <rect width="100%" height="100%" fill="#1a1a2e"/>
  <!-- Track outline -->
  <polyline points="111.25,493.52 101.46,469.72 84.66,434.67 76.56,418.26 52.19,365.83 42.89,337.17 40.36,322.13 40.00,306.51 40.89,298.51 42.51,290.63 45.03,282.92 48.21,275.59 51.99,268.62 56.38,262.11 60.96,256.40 67.21,250.45 98.59,229.44 132.07,207.40 151.83,189.29 162.60,175.72 185.79,137.85 214.34,103.83 245.53,73.94 270.52,54.74 282.91,47.44 289.17,44.60 295.71,42.37 303.59,40.64 311.64,40.00 316.65,40.32 321.56,41.20 326.28,42.73 330.60,44.81 334.71,47.47 338.41,50.70 341.48,54.27 344.17,58.32 346.29,62.68 347.75,67.25 348.69,72.15 348.98,77.04 347.93,84.72 345.68,92.08 343.19,97.59 339.16,104.06 257.88,211.03 251.27,223.93 246.53,237.20 242.80,250.80 241.68,257.89 241.28,264.46 241.97,277.88 243.02,283.86 244.98,290.75 256.21,318.65 269.23,345.99 273.50,352.82 277.62,357.97 282.16,362.87 287.19,367.12 293.68,371.31 300.63,374.36 305.21,375.47 309.88,375.97 314.49,375.59 319.29,374.06 324.06,371.60 328.35,368.64 333.11,364.04 337.14,358.62 340.61,352.38 343.48,345.52 345.86,338.57 347.73,330.02 351.14,268.97 353.32,253.59 356.70,239.23 359.06,232.46 361.91,226.07 365.27,220.29 369.31,215.11 373.05,211.53 377.24,208.31 381.64,205.85 386.31,204.20 391.19,203.32 396.04,203.21 400.78,203.97 405.50,205.52 410.10,207.60 416.95,211.88 423.32,217.10 428.01,221.67 432.91,227.82 465.13,283.24 490.25,336.17 494.52,349.42 497.41,362.69 498.68,376.00 498.37,384.44 497.15,392.91 494.77,400.64 491.43,407.91 481.86,421.22 426.19,487.98 417.69,498.44 405.50,510.63 391.68,520.65 384.16,524.87 376.37,528.33 368.16,530.79 359.81,532.26 351.60,532.82 343.48,532.29 335.80,530.53 328.44,527.60 321.72,523.64 315.60,518.63 310.48,512.77 306.10,506.09 302.90,499.35 299.94,491.11 286.74,443.64 283.45,436.34 279.93,430.54 275.57,424.65 270.63,419.37 264.96,414.71 258.82,410.90 252.12,407.91 245.15,405.98 238.06,405.19 230.94,405.51 224.02,406.95 217.27,409.38 210.87,412.72 204.84,416.97 199.43,422.01 194.62,427.90 190.66,434.41 187.57,441.56 185.48,449.18 184.43,457.15 184.59,465.21 185.74,473.79 188.12,486.07 192.44,500.26 208.95,535.86 226.57,567.93 235.56,579.97 245.51,590.67 256.77,599.61 269.43,606.49 283.38,611.56 298.18,615.02 313.38,616.28 345.15,613.09 361.10,608.78 391.70,594.51 398.82,590.17 406.10,584.54 454.65,534.69 483.93,497.68 489.69,492.11 495.10,487.95 501.37,484.11 507.98,480.94 515.04,478.31 522.29,476.34 529.61,475.11 537.00,474.70 544.39,475.11 551.68,476.46 558.87,478.80 565.79,482.09 572.29,486.25 578.34,491.29 583.64,496.92 588.26,503.31 591.94,510.19 594.72,517.64 596.45,525.52 597.10,533.67 596.48,542.08 594.65,550.34 591.22,558.64 586.86,566.17 582.59,571.91 577.87,576.98 566.24,586.33 538.53,603.21 453.11,640.40 281.53,722.02 227.67,751.33 211.67,757.13 203.66,759.00 195.67,760.00 187.95,759.94 180.45,758.83 173.48,756.60 167.03,753.23 163.40,750.56 160.07,747.46 157.17,743.91 154.88,740.04 153.01,735.76 151.68,731.28 150.81,724.74 150.88,716.57 158.82,643.36 157.97,627.65 146.16,578.39 111.25,493.52"
        fill="none"
        stroke="#e94560"
        stroke-width="8.0"
        stroke-linejoin="round"
        stroke-linecap="round"/>
  <!-- Start/finish line -->
  <line x1="92.75" y1="501.13" x2="129.74" y2="485.91"
        stroke="#f5f5f5" stroke-width="9.6"
        stroke-linecap="round"/>
</svg>
