<?xml version="1.0" encoding="utf-8"?>
<svg xmlns="http://www.w3.org/2000/svg"
     width="590.6" height="800.0"
     viewBox="0 0 590.6 800.0">
  <rect width="100%" height="100%" fill="#1a1a2e"/>
  <!-- Track outline -->
  <polyline points="451.69,418.61 459.21,486.59 469.55,532.48 484.00,574.17 510.53,626.87 535.65,676.75 545.77,708.26 549.89,729.04 550.59,739.77 548.53,748.99 545.45,753.81 541.06,757.39 534.84,759.66 523.41,760.00 508.74,758.62 495.10,756.01 482.60,751.54 469.61,745.07 408.65,709.02 360.15,691.06 320.25,676.41 314.24,672.62 309.64,668.36 301.63,658.66 294.75,647.92 292.05,642.01 290.42,635.61 289.94,622.05 291.40,607.12 294.54,594.47 299.68,579.88 346.51,467.25 357.87,411.52 361.88,361.92 359.39,339.42 355.00,322.15 352.57,315.07 349.37,308.87 341.96,298.21 332.59,288.16 321.50,280.39 310.45,274.75 304.06,272.27 297.41,270.83 283.93,270.34 270.61,271.51 264.33,273.17 258.75,275.44 253.29,278.33 248.04,281.83 243.06,285.48 238.35,290.71 233.15,300.14 228.33,312.59 225.35,327.52 227.95,361.64 235.59,402.24 239.97,434.99 239.16,449.78 236.51,462.09 231.53,475.85 224.60,488.79 215.18,501.03 204.35,511.56 193.85,519.61 182.10,525.94 163.53,532.06 144.37,535.50 130.89,535.78 118.06,534.20 104.85,530.89 92.08,525.73 80.55,518.85 69.94,510.32 60.35,500.21 52.18,488.58 46.06,475.78 41.89,461.96 40.00,447.85 40.38,432.99 43.84,413.66 51.21,393.43 67.82,367.29 93.70,336.26 230.50,188.33 361.61,59.06 375.25,49.01 386.46,43.85 400.64,40.76 413.85,40.00 420.45,40.55 426.41,41.86 432.42,43.78 438.26,46.33 444.00,49.36 449.36,53.35 454.45,59.13 459.00,65.66 462.68,71.92 465.71,78.46 467.98,85.00 469.50,91.81 470.26,97.66 470.31,105.57 459.27,190.54 447.52,303.44 449.63,399.83 451.69,418.61"
        fill="none"
        stroke="#e94560"
        stroke-width="8.0"
        stroke-linejoin="round"
        stroke-linecap="round"/>
  <!-- Start/finish line -->
  <line x1="471.57" y1="416.42" x2="431.81" y2="420.81"
        stroke="#f5f5f5" stroke-width="9.6"
        stroke-linecap="round"/>
</svg>
