<?xml version="1.0" encoding="utf-8"?>
<svg xmlns="http://www.w3.org/2000/svg"
     width="498.7" height="800.0"
     viewBox="0 0 498.7 800.0">
  <rect width="100%" height="100%" fill="#1a1a2e"/>
  <!-- Track outline -->
  <polyline points="432.87,410.02 429.26,403.39 425.21,397.88 417.47,391.07 409.83,386.04 403.55,383.06 378.14,374.42 372.10,371.83 366.65,368.75 359.09,362.65 352.68,356.40 348.74,351.40 342.11,340.33 314.31,275.91 310.34,261.81 308.77,251.09 308.16,240.36 308.64,233.12 309.92,226.34 311.91,219.63 314.65,213.19 318.17,207.15 322.37,201.57 327.56,196.40 332.77,192.17 335.67,190.21 338.79,188.58 344.99,186.08 351.98,184.09 366.01,182.86 395.17,183.10 406.45,181.21 416.40,178.20 423.14,174.83 428.56,171.18 431.33,168.89 433.59,166.52 435.70,164.00 437.64,161.04 440.54,154.90 442.77,148.51 443.52,145.18 443.76,141.83 443.41,135.21 442.45,128.71 441.66,125.63 440.59,122.83 437.32,116.29 420.77,93.00 391.37,60.20 384.93,55.19 378.75,51.49 371.81,48.09 364.57,45.32 349.40,41.76 333.70,40.00 317.82,40.40 305.55,42.55 294.40,45.37 286.98,48.41 267.26,60.67 260.64,66.69 196.33,144.49 173.02,170.67 146.86,194.33 78.82,251.99 67.41,266.04 60.09,277.80 54.13,289.14 50.96,298.26 46.01,322.40 42.34,352.41 40.00,404.56 41.30,454.37 44.18,465.95 48.09,474.54 52.00,480.61 56.02,485.43 58.12,487.69 60.57,489.63 67.38,493.49 74.91,496.47 78.05,497.08 81.03,497.24 84.04,496.95 87.82,496.04 91.65,494.61 95.05,492.74 97.61,490.70 99.82,488.30 101.63,485.77 103.38,482.07 104.50,478.40 105.06,476.14 105.38,473.19 105.00,388.01 106.31,373.83 108.70,359.52 112.22,345.01 116.74,330.46 122.43,315.98 129.48,302.04 138.19,289.48 148.43,278.49 159.50,268.89 165.59,265.11 172.03,262.10 178.87,260.00 185.26,258.72 188.45,258.35 191.62,258.38 197.07,258.99 202.84,260.50 207.07,262.42 211.25,264.90 214.84,267.72 217.43,270.40 219.55,273.38 221.12,276.74 222.19,281.37 222.51,286.45 222.24,291.10 221.02,295.63 219.26,299.51 218.12,301.72 216.33,304.17 197.71,322.72 176.63,344.27 165.65,361.64 161.39,369.25 158.49,377.18 157.98,383.65 158.54,390.46 159.84,397.17 163.46,407.33 168.20,416.62 176.63,428.38 185.81,439.47 194.17,450.92 196.30,455.47 197.71,459.80 198.51,464.17 198.72,468.64 198.37,473.16 197.47,477.52 194.97,483.46 191.43,489.74 176.16,515.17 174.69,519.09 173.89,522.81 173.04,529.22 172.91,535.90 173.65,541.30 174.99,546.25 176.42,549.74 178.15,553.04 182.83,560.54 214.21,606.52 263.67,704.87 280.33,730.44 285.04,736.21 290.01,741.24 297.73,747.81 306.43,753.56 312.34,756.30 318.54,758.38 324.60,759.63 330.01,760.00 335.33,759.68 340.28,758.51 343.66,757.07 346.88,755.13 349.83,752.84 352.38,750.29 355.12,746.30 357.25,741.77 358.56,737.46 358.85,734.32 358.64,731.29 358.24,728.52 357.81,726.05 356.88,723.09 344.11,695.23 331.18,665.09 329.90,658.65 329.77,653.25 330.19,647.61 331.31,642.18 332.99,637.23 335.30,632.70 337.03,630.15 339.00,627.78 341.29,625.71 344.32,623.76 347.73,622.17 350.95,621.05 353.10,620.57 355.12,620.41 357.39,620.54 361.38,621.32 365.82,622.75 370.03,624.70 376.01,629.14 381.01,634.14 383.52,637.44 385.49,640.77 387.32,644.17 388.81,647.90 390.09,653.17 391.05,659.98 392.00,686.48 393.92,714.34 396.85,725.04 400.76,733.66 403.39,738.10 406.35,742.07 409.70,745.45 413.37,748.19 417.44,750.39 421.51,751.86 425.24,752.47 428.99,752.47 432.58,751.88 436.04,750.63 439.34,748.80 442.24,746.64 445.49,743.10 447.99,739.27 449.43,736.53 450.60,732.97 455.23,709.92 458.74,683.58 458.39,662.69 455.94,640.85 442.40,580.26 440.38,564.69 440.17,437.80 438.36,425.56 435.43,416.03 432.87,410.02"
        fill="none"
        stroke="#e94560"
        stroke-width="8.0"
        stroke-linejoin="round"
        stroke-linecap="round"/>
  <!-- Start/finish line -->
  <line x1="414.90" y1="418.80" x2="450.85" y2="401.24"
        stroke="#f5f5f5" stroke-width="9.6"
        stroke-linecap="round"/>
</svg>
