<?xml version="1.0" encoding="utf-8"?>
<svg xmlns="http://www.w3.org/2000/svg"
     width="800.0" height="556.0"
     viewBox="0 0 800.0 556.0">
  <rect width="100%" height="100%" fill="#1a1a2e"/>
  <!-- Track outline -->
  <polyline points="557.06,154.67 548.09,150.59 304.19,46.88 282.95,41.54 265.81,40.00 247.09,40.80 228.77,44.81 217.05,49.62 205.59,55.90 195.26,63.25 185.06,72.54 174.60,86.31 131.39,164.89 92.87,246.89 88.17,258.38 85.06,267.60 84.11,276.76 84.84,282.90 86.46,289.38 88.85,295.60 91.83,301.15 95.30,305.56 99.54,308.76 104.64,311.04 110.32,312.51 116.23,313.24 122.05,313.24 127.37,312.57 132.97,311.17 138.42,308.90 143.75,305.76 148.80,301.55 153.58,296.20 163.14,278.29 171.40,255.10 177.94,233.52 185.70,196.23 191.11,179.33 197.97,164.43 203.24,156.74 209.15,150.12 215.60,144.98 221.24,141.84 227.38,139.57 233.64,138.23 239.73,138.10 244.65,138.76 249.84,140.10 254.85,142.11 259.22,144.85 262.51,148.39 264.63,152.66 265.94,157.74 266.53,163.42 266.66,169.77 262.65,196.43 254.12,226.30 240.86,259.25 225.84,288.72 216.01,304.49 205.59,317.65 192.01,331.02 177.53,342.58 149.70,358.61 87.95,385.21 76.13,391.16 65.58,397.10 56.55,405.12 51.01,412.47 45.91,421.03 42.03,430.05 40.00,438.87 40.14,446.55 41.67,454.44 44.19,462.06 47.31,469.14 53.22,478.56 60.70,486.91 68.87,494.20 78.30,500.95 88.49,506.56 99.09,510.84 110.68,514.11 122.68,515.92 134.63,515.98 146.45,514.18 158.23,510.50 169.23,504.82 178.48,498.07 187.00,489.45 196.48,476.36 245.24,371.98 289.89,264.59 305.82,230.11 316.64,216.21 328.91,204.99 342.26,196.77 356.34,191.22 371.22,187.88 386.02,187.08 398.11,188.82 411.55,192.56 483.49,217.75 572.40,264.26 598.43,280.63 609.75,289.92 621.21,301.75 640.78,330.01 659.91,357.48 666.31,364.49 672.22,369.91 678.54,374.05 684.13,376.46 690.04,378.13 696.08,379.00 701.99,378.86 707.81,377.73 713.63,375.72 719.31,372.85 724.77,369.17 732.35,362.42 739.57,354.14 745.66,344.92 751.61,330.55 755.76,315.65 758.51,304.09 759.95,292.59 760.00,283.97 759.23,275.15 757.16,267.07 753.37,259.51 747.96,252.90 739.93,245.68 658.69,200.91 557.06,154.67"
        fill="none"
        stroke="#e94560"
        stroke-width="8.0"
        stroke-linejoin="round"
        stroke-linecap="round"/>
  <!-- Start/finish line -->
  <line x1="548.78" y1="172.87" x2="565.35" y2="136.46"
        stroke="#f5f5f5" stroke-width="9.6"
        stroke-linecap="round"/>
</svg>
