<?xml version="1.0" encoding="utf-8"?>
<svg xmlns="http://www.w3.org/2000/svg"
     width="800.0" height="675.9"
     viewBox="0 0 800.0 675.9">
  <rect width="100%" height="100%" fill="#1a1a2e"/>
  <!-- Track outline -->
  <polyline points="297.90,196.71 319.54,185.04 562.79,65.85 615.43,45.78 639.90,40.99 662.84,40.00 676.57,41.19 690.26,43.95 702.44,48.35 713.93,54.63 723.86,62.34 733.32,72.32 745.50,88.92 755.32,107.26 757.85,115.17 759.37,122.92 760.00,130.83 759.70,139.13 758.48,147.53 756.36,155.44 752.90,163.40 748.36,170.76 743.20,177.24 736.55,183.31 729.06,188.26 721.45,192.41 698.77,200.12 651.44,214.15 513.88,292.38 422.69,337.55 377.01,354.75 352.30,361.22 340.84,363.00 329.35,363.79 317.06,363.35 304.77,361.42 292.92,357.51 281.37,352.18 270.81,345.36 260.19,338.73 252.31,335.03 244.16,332.01 236.05,330.68 231.06,330.78 225.87,331.37 220.80,332.66 216.08,334.68 212.09,337.70 208.56,341.75 205.61,346.59 203.19,352.62 201.34,360.08 200.03,389.83 202.18,427.79 205.55,458.13 207.19,467.82 209.19,475.48 212.03,482.15 215.19,487.19 218.98,491.69 223.22,495.34 227.72,497.96 233.21,499.39 239.06,499.39 245.59,498.21 253.20,496.23 293.16,478.49 345.74,451.51 589.71,337.55 660.25,302.26 682.27,293.81 695.19,290.95 708.17,289.76 715.96,290.06 723.60,291.19 731.00,293.47 736.46,295.89 741.95,298.85 747.02,302.56 751.26,307.16 754.27,311.95 756.90,317.48 758.78,323.37 759.61,329.20 759.19,335.08 757.73,341.21 755.49,347.09 752.78,352.23 747.59,358.21 740.84,362.70 731.86,367.79 585.08,432.68 330.25,542.93 170.55,626.05 156.94,630.85 145.96,633.37 134.14,635.20 122.39,635.89 110.51,635.59 98.69,634.06 86.97,631.19 75.63,626.84 65.39,621.16 56.14,613.65 51.28,608.12 46.89,601.84 43.55,594.67 41.28,586.27 40.00,577.03 40.00,568.28 41.46,560.77 44.06,553.71 47.43,547.28 55.49,537.79 64.77,529.74 82.52,515.80 100.19,498.46 107.53,488.52 113.91,477.75 118.75,467.22 122.54,456.10 125.13,444.69 126.48,432.88 126.18,420.72 124.57,408.61 117.82,384.40 113.44,359.34 113.17,346.94 114.33,334.78 117.40,322.58 121.97,311.16 128.44,299.99 136.23,290.11 145.10,281.51 157.27,272.66 297.90,196.71"
        fill="none"
        stroke="#e94560"
        stroke-width="8.0"
        stroke-linejoin="round"
        stroke-linecap="round"/>
  <!-- Start/finish line -->
  <line x1="288.40" y1="179.11" x2="307.41" y2="214.30"
        stroke="#f5f5f5" stroke-width="9.6"
        stroke-linecap="round"/>
</svg>
