<?xml version="1.0" encoding="utf-8"?>
<svg xmlns="http://www.w3.org/2000/svg"
     width="446.2" height="800.0"
     viewBox="0 0 446.2 800.0">
  <rect width="100%" height="100%" fill="#1a1a2e"/>
  <!-- Track outline -->
  <polyline points="59.92,422.29 74.51,385.02 103.08,318.98 127.68,264.26 165.59,194.27 174.63,181.32 184.62,169.35 195.37,158.25 248.88,108.60 284.77,68.52 294.58,60.20 305.14,53.28 320.17,46.19 328.05,43.46 336.13,41.45 344.50,40.27 352.65,40.00 359.04,40.55 365.16,41.80 371.46,43.84 377.54,46.57 383.20,49.73 388.48,53.52 393.31,57.97 397.50,63.07 400.81,68.77 403.34,74.90 405.05,80.98 405.99,87.25 406.18,93.77 405.56,100.26 404.01,106.69 401.79,112.88 399.17,118.66 396.01,124.14 387.86,134.34 377.80,143.69 333.43,178.21 327.42,181.84 322.12,184.32 316.09,186.50 309.87,188.11 296.22,189.50 267.74,189.33 252.40,191.05 245.05,193.10 237.89,195.80 224.55,202.80 212.78,211.34 202.58,221.15 195.08,230.12 186.55,243.18 125.61,382.97 99.66,446.17 97.73,453.67 96.94,460.00 96.81,466.73 97.54,473.30 99.03,479.52 101.54,485.46 104.46,490.04 108.10,494.43 112.22,498.01 117.05,500.62 122.38,502.40 127.56,503.35 133.98,503.16 140.25,501.85 146.59,499.97 152.81,497.35 158.93,493.94 164.79,489.85 170.44,485.08 175.72,479.71 180.42,474.15 185.17,467.00 196.89,444.84 208.42,417.19 217.22,384.99 223.47,351.26 226.36,316.20 228.92,285.99 231.38,275.30 234.82,266.71 238.01,261.31 241.79,256.41 246.06,252.32 249.56,249.84 253.39,247.76 257.35,246.24 261.30,245.42 265.21,245.42 269.21,246.10 273.17,247.33 276.90,248.91 281.63,251.63 286.04,255.07 289.97,259.08 293.35,263.63 296.24,268.70 298.41,274.10 300.15,282.96 300.49,292.29 299.62,302.05 297.72,311.84 291.28,331.69 260.05,403.89 228.82,461.12 199.28,506.76 194.26,518.45 191.34,529.55 190.19,541.22 190.98,552.78 194.41,563.77 199.09,574.38 208.42,594.47 222.69,619.31 228.55,634.12 232.48,650.01 233.86,662.80 233.86,676.62 232.20,691.35 222.53,731.86 219.61,739.44 216.23,745.55 213.39,749.37 210.18,752.83 206.63,755.64 203.74,757.30 200.65,758.64 197.45,759.56 194.29,760.00 190.07,759.70 185.82,758.55 181.77,756.84 177.77,754.49 173.93,751.49 170.49,748.06 165.93,741.68 162.29,734.70 160.16,729.38 158.21,722.54 139.14,629.26 133.44,614.43 127.78,603.14 120.06,590.65 101.71,568.57 91.29,559.65 69.81,544.90 57.27,534.24 52.20,528.19 47.93,521.59 44.65,514.58 42.22,507.22 40.68,499.67 40.00,491.98 40.19,484.21 41.13,476.47 44.77,461.01 59.92,422.29"
        fill="none"
        stroke="#e94560"
        stroke-width="8.0"
        stroke-linejoin="round"
        stroke-linecap="round"/>
  <!-- Start/finish line -->
  <line x1="41.29" y1="415.00" x2="78.54" y2="429.58"
        stroke="#f5f5f5" stroke-width="9.6"
        stroke-linecap="round"/>
</svg>
