<?xml version="1.0" encoding="utf-8"?>
<svg xmlns="http://www.w3.org/2000/svg"
     width="508.2" height="800.0"
     viewBox="0 0 508.2 800.0">
  <rect width="100%" height="100%" fill="#1a1a2e"/>
  <!-- Track outline -->
  <polyline points="176.21,621.87 109.53,550.77 81.90,514.68 63.59,482.92 50.03,448.96 42.18,413.35 40.42,395.19 40.00,381.11 42.86,358.18 47.40,330.33 79.58,150.73 88.01,124.02 100.24,99.63 110.55,85.36 122.31,73.17 141.46,58.97 154.15,51.95 166.91,46.19 176.11,42.94 184.93,40.88 193.49,40.00 201.44,40.12 206.51,40.90 211.10,42.25 215.34,44.03 219.31,46.30 222.72,48.92 225.75,51.98 228.24,55.29 230.26,58.95 231.74,62.70 232.64,66.87 232.86,72.83 232.15,79.71 228.29,92.91 224.60,106.28 224.20,113.60 224.93,120.31 226.94,127.24 230.06,133.70 234.40,139.66 239.60,144.78 245.72,149.06 252.69,152.37 262.63,155.32 273.75,156.87 287.57,156.64 303.23,154.55 362.34,139.59 376.30,137.57 388.25,137.02 397.14,137.69 404.92,139.22 409.85,140.86 414.26,143.02 418.24,145.54 421.89,148.53 424.97,151.73 427.67,155.55 430.54,161.46 432.53,168.08 433.05,172.55 433.05,177.16 432.53,181.66 430.67,188.33 427.74,194.61 423.66,200.54 418.74,205.77 412.97,210.40 406.34,214.23 396.72,217.91 385.89,220.43 372.56,221.78 356.92,221.89 283.77,216.82 268.28,217.93 254.54,220.53 240.00,224.81 225.86,230.77 212.37,238.39 199.63,247.58 187.99,257.94 177.15,270.08 166.06,285.69 155.73,304.59 142.01,339.41 131.22,375.73 126.91,397.60 125.25,417.76 126.13,434.97 129.10,451.42 134.12,467.38 141.22,482.87 151.99,500.11 165.73,517.62 192.51,546.53 219.25,571.11 229.77,578.38 239.08,582.83 244.13,584.43 249.00,585.33 253.83,585.61 258.52,585.31 263.15,584.45 267.59,582.99 271.74,581.00 275.73,578.45 279.38,575.44 282.63,572.06 285.58,568.21 288.05,564.07 289.97,559.69 291.42,554.99 292.31,550.17 292.55,545.19 292.20,540.09 291.31,535.11 288.90,527.68 285.15,520.54 278.60,512.34 270.29,504.28 255.83,493.09 241.88,481.83 235.37,474.12 230.41,466.54 227.37,460.64 225.01,454.66 223.09,448.33 221.72,441.82 220.91,435.34 220.75,428.41 221.48,418.50 223.42,407.80 227.52,394.71 233.53,380.60 260.59,333.92 278.77,310.62 283.93,305.68 288.99,301.79 294.39,298.25 300.00,295.26 305.81,292.83 311.75,291.00 317.85,289.74 324.03,289.10 330.32,289.10 336.61,289.70 342.75,290.86 349.11,292.78 357.84,296.49 367.00,301.65 377.79,309.67 388.73,319.54 413.45,347.87 439.86,387.78 458.34,425.35 461.25,434.09 462.91,442.06 463.50,449.65 463.00,456.93 461.93,461.24 460.40,465.34 458.63,468.86 456.29,472.13 453.63,474.74 450.70,476.99 447.34,478.70 443.95,479.77 440.17,480.46 436.39,480.65 432.59,480.23 428.79,479.31 425.12,477.92 420.16,475.16 415.01,471.13 404.56,459.59 393.75,448.38 389.51,445.69 385.47,443.93 381.32,442.77 376.78,442.13 372.11,442.15 367.54,442.75 363.06,443.98 358.67,445.81 354.52,448.15 348.82,452.55 343.82,457.95 339.80,464.13 336.76,471.01 334.93,478.38 334.27,486.07 334.84,493.81 336.74,501.64 340.87,511.30 347.18,521.12 361.03,535.69 378.64,550.93 435.97,595.41 446.88,606.09 455.22,616.10 460.46,624.32 464.31,632.29 466.25,637.83 467.45,643.57 468.19,652.30 468.00,661.08 467.13,667.06 465.68,672.64 463.74,678.18 461.10,683.69 456.59,690.97 450.41,698.84 416.40,730.88 393.38,747.68 380.38,754.05 366.51,758.26 352.08,760.00 344.95,759.98 337.46,759.24 326.89,757.08 316.01,753.70 305.96,749.30 295.98,743.53 272.22,724.28 176.21,621.87"
        fill="none"
        stroke="#e94560"
        stroke-width="8.0"
        stroke-linejoin="round"
        stroke-linecap="round"/>
  <!-- Start/finish line -->
  <line x1="161.62" y1="635.55" x2="190.80" y2="608.19"
        stroke="#f5f5f5" stroke-width="9.6"
        stroke-linecap="round"/>
</svg>
