<?xml version="1.0" encoding="utf-8"?>
<svg xmlns="http://www.w3.org/2000/svg"
     width="685.6" height="800.0"
     viewBox="0 0 685.6 800.0">
  <rect width="100%" height="100%" fill="#1a1a2e"/>
  <!-- Track outline -->
  <polyline points="87.95,308.30 80.59,297.56 53.71,254.74 40.00,216.00 41.47,200.12 46.74,185.42 54.18,171.47 61.84,158.16 80.05,131.86 100.73,108.47 120.95,88.08 142.41,70.48 166.65,55.45 191.36,44.94 205.30,41.50 219.02,40.00 233.58,41.07 253.41,45.80 274.63,54.49 298.57,68.55 313.83,80.03 331.80,95.59 441.02,198.29 481.30,236.29 532.66,277.71 591.61,326.00 604.08,338.13 615.47,352.51 625.23,368.39 636.85,395.22 644.13,423.66 645.60,448.88 643.35,473.89 637.24,499.75 628.56,525.08 606.10,575.95 546.68,676.29 531.27,698.29 515.77,716.54 502.76,729.20 488.74,740.79 473.94,749.70 461.94,754.63 449.23,758.39 436.68,760.00 424.91,758.50 417.55,755.71 409.88,751.52 402.37,746.26 395.78,740.25 390.52,733.49 387.34,726.41 386.41,717.61 387.57,707.63 390.28,697.22 393.93,686.81 397.80,677.36 410.97,655.69 429.09,634.87 470.61,599.77 511.44,564.14 523.29,549.66 532.74,535.28 539.32,519.82 542.42,507.37 544.36,494.06 544.51,480.97 542.34,469.38 538.86,461.87 533.90,454.68 527.70,448.13 520.81,442.34 513.53,437.72 506.32,434.40 495.94,432.25 484.40,432.46 472.47,434.61 460.62,438.15 449.70,442.66 434.13,453.50 419.57,467.66 404.62,480.54 380.91,495.57 356.20,506.84 338.08,511.66 319.33,514.24 301.13,514.03 285.40,511.56 270.14,506.51 253.25,497.18 193.92,441.48 138.38,378.05 105.46,333.73 87.95,308.30"
        fill="none"
        stroke="#e94560"
        stroke-width="8.0"
        stroke-linejoin="round"
        stroke-linecap="round"/>
  <!-- Start/finish line -->
  <line x1="71.47" y1="319.63" x2="104.43" y2="296.97"
        stroke="#f5f5f5" stroke-width="9.6"
        stroke-linecap="round"/>
</svg>
