<?xml version="1.0" encoding="utf-8"?>
<svg xmlns="http://www.w3.org/2000/svg"
     width="433.1" height="800.0"
     viewBox="0 0 433.1 800.0">
  <rect width="100%" height="100%" fill="#1a1a2e"/>
  <!-- Track outline -->
  <polyline points="59.93,236.16 87.69,376.76 124.14,472.94 138.54,500.36 154.23,523.71 193.39,562.82 205.82,577.25 216.46,592.89 220.58,600.90 223.97,609.26 226.34,617.38 227.84,625.89 228.43,635.49 227.87,646.09 219.71,683.60 218.44,692.91 218.13,701.56 219.00,711.47 221.09,721.12 223.10,726.89 225.64,732.32 228.74,737.18 232.50,741.55 236.93,745.19 242.95,748.42 269.23,754.68 304.10,758.75 331.46,760.00 341.09,759.20 349.02,757.15 358.22,753.70 366.98,748.84 374.35,742.84 380.78,735.55 385.98,727.12 389.90,717.93 392.02,710.37 393.09,700.23 389.82,609.22 381.69,517.56 379.37,506.39 376.52,498.19 372.60,489.46 367.60,481.75 363.02,477.00 357.80,472.90 352.27,469.90 346.17,468.12 339.70,467.44 333.32,467.66 327.11,468.76 320.98,470.74 315.05,473.32 306.73,478.18 299.13,484.29 293.54,490.64 288.06,498.27 278.60,514.22 268.33,529.40 263.05,534.15 257.66,537.61 252.01,540.00 247.35,541.14 242.44,541.59 237.55,541.44 232.92,540.68 227.59,538.74 222.53,535.86 217.79,532.37 211.52,526.21 205.73,519.23 194.98,504.31 160.62,441.50 152.91,422.48 150.51,414.24 149.04,405.77 148.67,395.79 149.77,385.87 151.58,379.84 154.15,374.10 157.40,369.05 160.73,365.41 164.65,362.18 168.86,359.49 173.15,357.43 177.61,356.03 182.27,355.23 186.96,355.12 191.47,355.69 195.63,356.87 199.61,358.65 203.62,361.23 207.82,364.76 223.46,386.67 238.48,409.45 245.23,416.44 251.73,421.68 259.29,426.62 267.31,430.72 276.20,434.21 285.38,436.60 294.67,437.86 303.85,437.52 309.61,436.19 315.22,434.06 320.53,431.21 327.76,425.63 334.20,418.61 339.73,410.18 344.22,401.03 347.18,392.75 349.27,384.28 350.57,375.58 351.02,366.74 349.42,349.08 333.77,272.08 305.68,106.71 300.12,87.39 292.47,70.38 287.24,61.68 281.17,53.82 276.37,49.07 271.15,44.94 265.65,41.94 259.80,40.38 253.70,40.00 247.63,40.42 241.65,41.44 235.75,43.27 230.13,45.89 224.82,49.15 219.79,53.18 215.81,58.11 213.33,63.73 211.75,70.11 211.04,76.49 211.75,85.56 213.81,94.45 220.19,110.97 237.78,145.33 245.06,163.63 271.52,274.09 272.76,284.53 272.48,292.92 271.35,299.04 269.46,304.96 266.92,310.35 263.36,315.40 259.01,319.84 254.30,323.57 248.93,326.60 243.14,328.84 237.27,330.36 231.28,331.16 225.19,331.24 219.23,330.55 214.01,329.41 208.90,327.55 202.82,324.02 168.38,291.90 135.37,256.51 122.87,241.51 117.47,233.16 113.04,224.20 110.22,215.16 108.72,205.93 108.61,200.12 109.09,194.31 110.27,188.66 114.11,179.31 119.31,170.77 124.70,164.43 131.08,158.32 157.34,134.51 163.44,127.48 168.46,120.27 173.38,111.76 176.79,102.61 177.50,96.77 177.33,90.77 176.31,85.07 174.11,79.38 170.92,74.02 167.28,69.01 160.62,61.57 153.13,55.34 147.94,52.07 142.49,49.45 136.90,47.59 128.03,46.46 118.94,46.61 109.74,47.37 100.53,49.04 91.39,51.58 82.52,55.11 74.50,59.55 67.05,64.98 60.47,71.14 54.57,78.12 49.66,85.56 45.59,93.73 42.57,102.39 40.59,111.57 40.00,121.18 40.42,131.70 45.39,167.20 53.27,202.48 59.93,236.16"
        fill="none"
        stroke="#e94560"
        stroke-width="8.0"
        stroke-linejoin="round"
        stroke-linecap="round"/>
  <!-- Start/finish line -->
  <line x1="79.55" y1="232.28" x2="40.31" y2="240.03"
        stroke="#f5f5f5" stroke-width="9.6"
        stroke-linecap="round"/>
</svg>
