<?xml version="1.0" encoding="utf-8"?>
<svg xmlns="http://www.w3.org/2000/svg"
     width="521.1" height="800.0"
     viewBox="0 0 521.1 800.0">
  <rect width="100%" height="100%" fill="#1a1a2e"/>
  <!-- Track outline -->
  <polyline points="181.00,296.47 192.63,279.65 208.87,268.67 228.58,264.27 252.94,265.49 275.12,264.75 294.87,256.29 305.61,238.86 302.58,216.55 291.73,200.20 274.26,184.56 256.75,168.61 246.28,148.78 247.62,128.29 260.12,112.56 282.53,109.16 304.34,116.96 325.06,129.69 344.22,143.03 360.64,154.01 380.02,170.57 394.01,188.83 403.21,208.53 407.66,231.80 403.47,254.64 391.43,274.38 376.69,288.32 356.71,300.88 336.96,310.90 318.96,324.02 306.58,342.76 305.68,363.33 316.64,380.19 337.37,390.96 360.49,392.48 381.59,388.30 402.20,378.19 422.25,362.72 436.47,347.42 449.30,329.51 460.49,309.16 469.39,286.76 475.60,262.70 479.45,237.25 481.14,211.97 480.16,188.18 476.35,164.90 470.10,142.89 460.49,122.98 448.51,105.59 434.78,90.42 418.44,76.78 399.73,64.84 378.71,54.86 355.55,46.84 331.76,41.74 308.83,40.00 286.72,41.35 265.39,45.75 244.33,52.94 224.28,62.84 205.58,75.08 188.89,89.99 173.74,107.81 159.86,128.21 147.40,150.96 136.59,175.80 127.43,202.82 119.87,231.36 113.55,261.48 108.16,292.42 103.56,324.37 99.74,357.27 94.62,390.65 87.88,424.43 80.55,458.68 73.52,492.81 67.16,524.92 61.47,555.52 55.97,584.02 50.74,609.82 46.51,634.01 43.03,655.67 40.26,681.16 40.00,703.48 44.34,727.10 53.77,746.27 68.88,759.48 90.88,760.00 109.84,747.36 123.27,729.54 132.21,710.14 139.51,686.22 142.99,665.87 144.93,643.64 145.79,619.28 145.98,593.30 146.24,565.63 146.84,536.30 148.19,505.53 150.21,473.98 152.79,442.08 155.71,412.92 158.78,386.38 161.73,362.63 165.06,341.62 170.93,317.48 181.00,296.47"
        fill="none"
        stroke="#e94560"
        stroke-width="8.0"
        stroke-linejoin="round"
        stroke-linecap="round"/>
  <!-- Start/finish line -->
  <line x1="163.65" y1="286.52" x2="198.35" y2="306.42"
        stroke="#f5f5f5" stroke-width="9.6"
        stroke-linecap="round"/>
</svg>
