<?xml version="1.0" encoding="utf-8"?>
<svg xmlns="http://www.w3.org/2000/svg"
     width="715.8" height="800.0"
     viewBox="0 0 715.8 800.0">
  <rect width="100%" height="100%" fill="#1a1a2e"/>
  <!-- Track outline -->
  <polyline points="164.28,458.01 44.91,706.48 41.08,717.74 40.00,726.34 40.20,731.41 40.95,736.52 42.33,741.45 44.47,745.86 46.93,749.17 50.05,752.36 53.56,755.24 57.32,757.51 61.18,759.08 65.34,759.87 69.84,760.00 74.47,759.48 78.94,758.47 83.00,756.94 88.91,752.97 94.16,747.52 98.83,741.62 104.24,733.20 109.45,722.50 141.69,642.10 152.34,621.54 159.14,612.19 166.99,603.81 176.06,596.74 186.03,590.98 196.72,586.70 207.89,584.04 219.42,583.43 231.09,584.34 242.26,586.13 254.87,589.89 330.07,626.64 371.31,648.47 379.29,651.17 386.67,652.92 393.91,653.53 399.22,653.31 404.53,652.53 409.64,651.09 414.20,648.91 417.69,646.37 421.04,643.19 424.05,639.61 426.48,635.72 428.17,631.79 429.12,626.47 428.99,620.66 428.07,614.77 426.58,609.31 423.71,602.81 419.78,596.70 415.18,590.98 406.46,583.21 394.38,573.30 378.58,558.59 364.54,544.01 360.65,538.20 357.30,531.96 354.97,525.46 353.75,518.43 353.62,511.09 354.67,504.11 356.32,499.18 358.66,494.29 361.63,489.84 365.15,486.04 369.55,482.81 374.73,480.10 380.21,478.22 385.58,477.35 390.66,477.61 395.73,478.88 400.87,480.93 406.19,483.64 422.42,496.78 438.22,510.75 447.29,516.81 456.25,521.05 463.08,522.79 470.26,523.62 477.43,523.54 484.84,522.49 492.24,520.52 499.28,517.60 509.26,511.01 518.16,502.93 524.58,495.95 531.38,485.99 617.61,302.31 667.17,199.11 672.17,187.81 675.02,178.20 675.83,170.74 675.69,163.10 674.17,156.07 672.07,151.31 669.20,146.73 665.68,142.67 661.72,139.53 657.93,137.65 653.60,136.25 649.00,135.42 644.40,135.16 640.10,135.51 635.06,137.00 630.13,139.53 625.46,142.71 621.23,146.16 615.00,152.97 608.81,162.97 546.27,306.23 536.19,324.35 530.10,332.51 523.30,340.07 515.82,346.96 507.70,353.20 489.54,363.46 470.19,371.76 431.15,384.24 419.11,386.69 407.88,387.60 396.85,386.69 386.19,384.29 376.28,380.57 367.15,375.42 359.00,368.74 351.99,360.84 346.24,351.63 341.98,341.55 339.48,330.72 338.67,319.55 339.61,308.02 342.15,296.63 346.34,285.24 351.69,274.54 363.02,258.04 376.89,242.85 392.89,229.58 401.72,223.99 411.02,219.32 420.12,215.92 430.85,213.21 491.94,205.88 504.35,203.04 514.87,199.29 524.75,193.87 533.61,187.15 541.12,179.21 547.65,170.35 553.64,160.83 558.61,150.75 562.57,140.09 565.01,129.09 565.41,117.66 563.96,106.22 560.58,94.87 555.47,84.13 548.67,74.18 540.45,65.23 530.67,57.37 520.19,50.91 510.82,46.59 501.21,43.49 490.92,41.40 480.37,40.26 458.89,40.00 437.37,42.88 416.50,49.73 396.82,59.82 387.78,66.19 379.36,73.44 371.61,81.56 364.68,90.37 353.58,109.89 324.42,174.10 253.35,275.07 185.26,414.41 164.28,458.01"
        fill="none"
        stroke="#e94560"
        stroke-width="8.0"
        stroke-linejoin="round"
        stroke-linecap="round"/>
  <!-- Start/finish line -->
  <line x1="182.31" y1="466.68" x2="146.26" y2="449.35"
        stroke="#f5f5f5" stroke-width="9.6"
        stroke-linecap="round"/>
</svg>
