<?xml version="1.0" encoding="utf-8"?>
<svg xmlns="http://www.w3.org/2000/svg"
     width="410.9" height="800.0"
     viewBox="0 0 410.9 800.0">
  <rect width="100%" height="100%" fill="#1a1a2e"/>
  <!-- Track outline -->
  <polyline points="353.99,572.86 356.55,593.72 367.83,672.08 370.89,696.57 370.06,707.64 367.72,718.06 366.29,722.45 363.91,728.75 359.92,735.09 352.41,742.82 342.57,748.93 332.47,752.46 324.06,752.42 317.61,751.41 311.21,749.80 301.14,745.48 291.19,740.83 282.17,737.79 273.01,735.69 262.84,734.68 252.41,734.83 242.10,736.22 231.09,739.03 211.60,747.21 192.54,755.46 183.38,758.35 174.75,759.85 167.64,760.00 160.27,759.36 153.38,757.64 147.12,754.60 141.27,750.55 136.33,745.90 132.83,741.21 130.07,736.07 127.73,730.63 124.86,722.75 122.82,712.10 122.43,542.89 124.12,520.31 126.38,510.18 129.69,500.69 132.31,495.22 135.42,490.04 139.23,485.39 144.41,480.74 150.45,476.65 156.82,473.88 161.71,472.94 166.84,472.71 172.02,473.16 177.07,474.21 187.46,478.98 197.34,485.24 205.31,490.90 213.44,496.12 220.20,499.12 227.40,501.60 234.49,502.80 239.40,502.72 244.33,502.05 249.08,500.73 253.38,498.86 257.21,496.38 260.74,493.27 263.83,489.67 266.28,485.80 268.16,481.26 269.43,476.24 270.06,471.02 270.12,465.81 269.02,458.35 266.75,450.81 263.75,443.87 258.56,435.62 252.16,428.30 244.77,421.70 235.62,415.51 214.74,405.98 193.56,396.72 183.71,391.05 175.55,384.98 168.38,377.70 162.51,369.56 158.37,360.97 155.58,351.97 154.20,342.89 153.74,333.70 154.20,324.36 154.29,315.13 152.52,306.51 149.38,298.29 144.47,290.27 138.26,282.99 130.96,276.76 122.10,270.91 103.82,261.42 86.06,251.82 78.86,246.08 73.04,239.85 68.54,234.38 64.38,228.34 61.73,221.92 61.13,217.72 61.07,213.22 61.57,208.68 62.61,204.41 64.21,200.73 67.00,197.05 70.67,193.90 74.83,191.28 79.19,189.33 85.73,187.79 92.81,187.45 99.60,188.01 108.06,190.26 116.15,193.79 132.94,203.84 158.73,223.05 185.20,240.94 192.29,244.09 198.58,246.04 204.76,246.57 208.64,246.15 212.67,245.22 216.59,243.83 220.09,241.95 222.88,239.66 225.25,236.03 226.79,231.52 227.76,226.69 228.36,222.00 228.53,213.30 227.21,204.59 224.20,195.10 220.01,186.06 215.57,178.67 210.47,171.73 197.86,157.71 190.17,150.95 181.76,144.76 172.13,139.06 161.79,134.22 138.29,127.44 76.51,115.99 66.81,112.96 58.95,108.98 53.24,104.74 47.94,99.64 43.89,94.01 41.96,89.63 40.63,84.90 40.00,80.06 40.11,75.33 41.05,70.46 42.81,65.51 45.27,60.78 48.25,56.54 53.73,51.29 60.41,46.83 67.28,43.45 73.37,41.46 79.60,40.38 85.95,40.00 95.57,40.90 106.19,43.41 150.98,59.73 167.06,67.19 183.08,76.27 199.02,86.96 214.55,99.23 229.38,113.33 243.37,129.01 255.75,146.49 266.40,165.62 275.52,185.95 282.42,207.37 286.80,229.24 288.84,250.73 289.01,271.85 287.08,311.61 288.82,330.48 293.37,348.78 300.59,365.85 319.32,400.28 327.68,418.81 334.82,438.39 340.06,458.91 353.99,572.86"
        fill="none"
        stroke="#e94560"
        stroke-width="8.0"
        stroke-linejoin="round"
        stroke-linecap="round"/>
  <!-- Start/finish line -->
  <line x1="373.84" y1="570.44" x2="334.13" y2="575.29"
        stroke="#f5f5f5" stroke-width="9.6"
        stroke-linecap="round"/>
</svg>
