<?xml version="1.0" encoding="utf-8"?>
<svg xmlns="http://www.w3.org/2000/svg"
     width="800.0" height="652.0"
     viewBox="0 0 800.0 652.0">
  <rect width="100%" height="100%" fill="#1a1a2e"/>
  <!-- Track outline -->
  <polyline points="295.86,301.09 314.03,292.84 356.02,266.39 375.00,250.22 422.59,191.09 451.75,148.35 468.75,128.84 487.61,110.87 507.80,94.32 529.49,79.73 552.46,67.00 576.35,55.92 601.11,47.45 625.55,42.13 649.07,40.00 671.63,40.92 692.70,44.36 711.57,50.42 727.80,58.41 736.74,64.50 744.87,71.62 750.99,78.95 755.71,86.84 757.84,92.01 759.34,97.33 760.00,102.83 759.74,109.22 758.53,115.82 756.26,121.87 753.77,125.98 750.62,129.83 746.99,133.28 743.11,136.21 737.62,139.15 731.53,141.20 724.24,142.67 697.65,142.67 668.70,141.86 631.26,147.18 614.70,152.43 583.05,168.46 565.14,180.63 557.84,187.42 551.69,194.79 547.26,202.24 544.07,210.16 542.49,216.07 541.58,222.19 541.87,228.03 542.75,231.33 544.03,234.70 545.75,237.86 547.81,240.64 550.22,242.73 553.30,244.20 556.97,245.12 560.92,245.52 564.88,245.41 568.54,244.82 573.89,242.55 578.98,238.92 584.37,234.48 598.40,220.95 612.36,207.56 619.98,202.20 627.45,198.17 636.03,194.50 645.04,191.86 654.56,190.50 664.31,190.39 674.27,191.71 684.09,194.28 693.87,198.06 703.18,203.08 711.75,209.35 719.33,216.76 725.64,225.16 730.51,234.41 733.59,244.16 735.12,254.29 735.16,264.74 733.73,275.16 730.76,285.69 726.62,295.48 722.45,302.74 717.58,309.27 711.90,315.47 705.67,321.12 691.86,330.58 673.03,339.39 654.53,348.67 649.47,352.34 645.44,355.97 642.03,360.15 639.65,363.96 637.60,368.15 636.10,372.51 635.37,376.77 635.51,380.87 636.35,385.09 637.78,389.13 639.73,392.79 643.28,397.05 647.82,400.72 652.77,403.95 661.45,407.80 670.54,411.47 679.58,416.27 687.68,422.29 692.00,427.31 695.63,433.03 698.16,439.09 699.37,445.65 699.48,452.58 698.64,459.11 697.06,464.47 694.68,469.53 691.86,474.34 686.55,481.34 680.28,487.76 665.22,498.80 516.52,584.60 497.51,593.58 477.43,600.15 456.40,603.49 434.90,603.97 413.68,600.88 393.97,594.24 375.95,584.63 368.00,578.88 360.71,572.49 354.41,565.67 348.77,558.37 339.57,543.04 336.13,535.34 333.52,527.16 331.62,516.85 331.03,506.25 331.91,496.49 334.22,487.17 336.53,481.31 339.46,475.69 343.01,470.63 349.42,464.43 356.82,459.37 365.25,455.70 373.97,452.44 382.65,448.62 390.75,444.00 395.26,440.26 399.36,436.04 402.84,431.42 405.73,426.39 408.08,421.00 409.69,415.46 410.53,409.81 410.68,404.02 410.17,398.30 407.93,389.71 404.34,381.46 399.58,373.50 393.64,366.27 386.46,360.00 378.33,354.98 369.28,351.60 359.65,349.69 349.50,349.33 339.20,350.28 329.57,352.08 318.39,355.64 276.30,374.42 235.60,395.47 219.04,406.99 204.05,421.19 191.52,437.88 186.36,446.97 182.07,456.44 178.78,466.01 176.50,475.73 175.33,485.27 175.19,494.77 175.95,503.90 177.64,512.81 179.91,520.66 183.28,529.06 193.39,547.15 202.88,565.38 204.71,571.32 205.74,576.71 205.89,582.07 205.45,586.47 204.53,590.98 203.07,595.31 201.09,599.12 198.52,602.42 195.37,605.40 191.85,607.89 188.15,609.83 182.62,611.45 176.61,612.04 170.61,611.81 161.23,609.50 152.14,605.87 136.83,598.24 100.63,586.10 91.11,581.37 82.90,575.90 74.99,568.83 65.21,558.19 55.46,544.25 47.80,528.48 42.45,511.42 40.84,502.43 40.00,493.34 40.04,484.06 40.95,474.81 42.86,465.72 45.61,456.77 53.23,439.53 63.48,423.42 76.82,409.26 92.10,396.72 109.13,386.05 295.86,301.09"
        fill="none"
        stroke="#e94560"
        stroke-width="8.0"
        stroke-linejoin="round"
        stroke-linecap="round"/>
  <!-- Start/finish line -->
  <line x1="287.58" y1="282.89" x2="304.14" y2="319.30"
        stroke="#f5f5f5" stroke-width="9.6"
        stroke-linecap="round"/>
</svg>
