<?xml version="1.0" encoding="utf-8"?>
<svg xmlns="http://www.w3.org/2000/svg"
     width="491.8" height="800.0"
     viewBox="0 0 491.8 800.0">
  <rect width="100%" height="100%" fill="#1a1a2e"/>
  <!-- Track outline -->
  <polyline points="47.82,459.62 49.11,439.40 63.29,355.34 70.49,328.28 88.71,281.04 102.14,256.74 109.38,246.44 117.53,237.00 127.68,227.66 138.91,219.96 146.31,216.35 154.01,213.64 161.91,212.53 168.56,212.95 175.47,214.33 182.12,216.72 187.90,220.01 192.85,224.47 197.22,230.04 200.71,236.20 202.96,242.36 203.79,248.19 203.54,254.35 202.46,260.45 200.71,266.34 194.73,277.54 186.03,288.84 150.60,326.31 134.29,347.91 121.19,369.09 115.57,382.20 111.87,394.93 109.17,408.68 107.88,422.63 108.21,436.22 109.96,449.54 113.00,462.22 117.36,474.38 122.81,485.42 129.76,495.76 139.53,506.86 151.01,516.57 164.11,524.05 177.88,529.36 189.73,531.85 201.55,532.54 213.65,531.80 225.55,529.41 236.98,525.22 247.76,519.49 257.82,512.16 267.05,503.57 275.71,493.91 283.44,483.24 290.10,471.83 296.21,457.98 308.02,421.20 317.42,378.75 320.54,337.78 320.04,302.17 316.43,278.02 282.82,167.21 280.03,154.26 278.95,143.11 279.28,128.95 281.70,114.78 286.69,101.72 293.59,89.41 302.12,77.31 311.85,66.43 321.46,58.20 331.81,51.41 342.80,46.05 354.57,42.28 363.92,40.69 373.78,40.00 383.43,40.58 392.75,42.55 401.86,45.73 410.43,49.92 418.62,55.39 426.23,61.92 432.84,68.92 439.96,79.11 445.28,90.20 449.15,102.46 451.35,115.36 451.81,128.89 450.60,142.64 443.53,171.40 397.24,294.58 363.01,454.79 348.95,512.38 343.84,525.70 338.05,537.16 331.15,548.09 323.16,558.12 314.14,567.14 304.07,574.89 292.68,581.05 280.49,585.67 267.76,588.85 254.74,590.28 242.43,589.59 229.08,587.15 178.30,572.19 165.86,569.69 154.50,569.16 146.02,570.43 137.53,572.93 130.05,576.75 125.27,580.62 120.94,585.35 117.36,590.60 114.83,596.07 113.45,602.01 113.04,608.43 113.58,614.96 115.03,621.06 118.86,629.02 124.52,636.56 131.00,643.19 141.99,651.10 155.17,657.73 178.79,665.59 201.92,673.81 210.16,678.70 217.10,683.95 222.92,690.00 226.46,694.94 229.45,700.24 231.74,705.92 233.07,711.71 233.49,718.29 232.95,725.35 231.41,732.19 228.87,738.29 225.13,743.50 220.26,748.17 214.73,752.20 209.03,755.38 201.30,758.09 192.98,759.52 184.70,760.00 172.85,759.04 161.03,756.34 148.10,751.83 135.33,745.78 122.60,738.29 110.25,729.22 83.51,701.52 69.20,682.31 54.85,656.41 46.53,633.69 41.41,609.65 40.00,583.81 47.82,459.62"
        fill="none"
        stroke="#e94560"
        stroke-width="8.0"
        stroke-linejoin="round"
        stroke-linecap="round"/>
  <!-- Start/finish line -->
  <line x1="27.86" y1="458.37" x2="67.78" y2="460.88"
        stroke="#f5f5f5" stroke-width="9.6"
        stroke-linecap="round"/>
</svg>
