<?xml version="1.0" encoding="utf-8"?>
<svg xmlns="http://www.w3.org/2000/svg"
     width="800.0" height="622.3"
     viewBox="0 0 800.0 622.3">
  <rect width="100%" height="100%" fill="#1a1a2e"/>
  <!-- Track outline -->
  <polyline points="93.81,121.03 100.66,120.53 170.24,112.88 181.06,114.11 191.81,118.86 200.72,125.02 205.54,130.24 215.64,141.73 228.43,154.45 241.79,165.68 250.94,173.00 260.27,178.65 272.07,182.28 283.73,181.37 390.10,149.37 401.42,145.78 411.02,145.20 419.12,146.80 425.97,151.73 431.33,158.87 435.30,166.33 437.40,176.48 437.30,185.14 433.91,193.44 428.86,200.00 421.90,204.38 412.82,207.76 340.66,227.14 332.22,229.54 324.59,233.67 318.45,239.57 313.30,246.13 310.35,255.19 309.19,265.20 311.06,275.60 316.38,289.77 324.28,303.43 332.01,314.37 342.22,324.56 351.10,331.80 363.41,339.63 380.27,348.19 413.97,362.21 445.88,375.33 463.27,385.08 476.33,396.09 484.84,405.63 490.47,415.05 494.06,423.31 496.03,429.18 497.82,435.09 499.62,441.76 500.60,448.82 500.67,454.98 500.33,460.75 499.52,467.52 499.86,473.87 501.59,479.48 504.78,485.53 508.67,491.01 513.96,496.73 519.86,499.89 528.34,501.66 538.45,501.84 549.60,500.18 561.71,500.83 573.85,503.40 582.80,508.95 588.87,514.74 593.07,520.80 595.65,527.97 596.06,535.87 595.55,547.69 596.26,558.45 598.46,566.39 602.63,572.76 607.86,578.13 612.94,580.99 619.59,582.26 627.05,582.11 633.35,580.56 639.69,578.20 646.99,574.72 661.16,565.63 747.18,506.66 753.35,502.60 757.66,497.28 760.00,490.57 759.69,484.23 756.98,477.92 752.34,469.70 517.02,68.52 510.27,59.39 503.59,52.61 495.42,47.14 485.62,43.41 475.21,41.09 460.93,40.00 71.16,41.16 61.97,42.14 54.11,44.35 47.32,47.83 42.14,52.00 40.00,57.00 40.24,63.59 59.60,100.48 63.74,107.66 67.67,112.37 73.60,117.34 80.55,120.02 89.47,121.36 93.81,121.03"
        fill="none"
        stroke="#e94560"
        stroke-width="8.0"
        stroke-linejoin="round"
        stroke-linecap="round"/>
  <!-- Start/finish line -->
  <line x1="92.33" y1="101.09" x2="95.30" y2="140.98"
        stroke="#f5f5f5" stroke-width="9.6"
        stroke-linecap="round"/>
</svg>
