<?xml version="1.0" encoding="utf-8"?>
<svg xmlns="http://www.w3.org/2000/svg"
     width="800.0" height="572.4"
     viewBox="0 0 800.0 572.4">
  <rect width="100%" height="100%" fill="#1a1a2e"/>
  <!-- Track outline -->
  <polyline points="450.58,404.27 437.31,411.16 255.31,498.96 193.31,525.58 176.94,529.78 161.00,532.31 145.60,532.44 136.53,531.38 127.43,529.41 118.96,526.58 110.88,522.85 103.26,517.98 96.30,512.45 85.64,501.62 81.01,495.66 76.96,489.30 73.70,482.50 71.10,475.37 67.49,460.04 66.36,443.88 68.10,427.16 78.17,372.72 78.42,362.25 77.66,353.06 73.99,333.93 67.35,315.51 49.21,282.72 43.09,267.30 41.25,259.97 40.19,252.44 40.00,243.71 40.82,234.98 42.59,226.92 45.37,219.32 47.67,214.82 50.42,210.59 53.70,206.76 58.03,203.03 62.98,199.76 68.14,197.20 75.32,195.16 83.49,193.90 118.09,189.80 126.80,189.97 134.67,191.13 140.31,192.63 145.83,194.66 150.66,197.43 153.54,199.89 156.13,202.76 158.26,205.92 159.85,209.32 161.08,214.65 161.23,220.52 160.51,226.82 155.40,240.24 149.05,256.17 143.20,287.82 139.50,323.07 137.74,359.09 138.54,389.47 140.11,398.50 142.63,405.83 146.29,413.00 150.93,419.43 156.40,424.93 162.65,429.52 169.85,433.09 177.56,435.62 185.69,437.22 194.02,437.72 202.42,436.95 210.76,434.99 218.23,432.06 227.55,427.16 372.89,339.83 397.97,319.57 404.24,312.61 409.32,305.61 413.64,298.32 417.11,290.79 419.72,283.49 421.27,276.03 421.56,270.53 421.24,264.93 420.10,259.67 418.13,254.97 415.38,250.60 412.05,246.81 407.96,243.54 403.24,240.84 398.27,238.81 393.00,237.44 387.47,236.81 381.95,236.88 373.36,238.71 365.11,241.91 358.74,245.27 351.77,250.20 299.18,297.22 292.29,302.25 286.06,305.78 278.29,309.18 270.10,311.31 264.47,311.74 258.74,311.48 253.35,310.18 248.25,307.58 243.49,303.91 239.31,299.78 235.80,295.28 232.84,290.32 230.46,285.22 228.18,277.73 226.92,269.93 226.36,261.47 226.67,252.77 230.12,234.51 235.26,219.35 242.61,203.89 252.20,188.57 264.26,173.77 278.04,160.25 292.60,148.78 307.64,139.89 322.69,134.09 337.43,130.73 346.35,129.86 355.38,129.99 363.65,131.56 371.65,134.02 379.07,137.39 386.46,140.55 393.88,142.32 401.52,142.95 407.21,142.55 413.04,141.52 418.59,139.82 423.75,137.46 428.66,134.46 433.17,130.96 439.07,124.83 444.33,117.26 450.66,102.54 456.97,87.81 462.31,80.25 468.04,73.98 479.86,64.16 493.82,55.56 509.72,48.80 527.07,43.73 545.81,40.73 565.47,40.00 580.64,41.37 595.91,44.40 610.99,49.33 640.42,63.52 667.19,80.55 694.20,102.64 707.84,115.97 719.91,129.83 749.10,171.14 753.63,179.84 756.68,187.83 758.77,195.80 759.87,203.86 760.00,212.55 758.81,221.02 757.22,225.88 755.01,230.45 752.08,234.45 749.10,237.21 745.59,239.64 741.76,241.64 737.84,243.07 732.24,243.97 726.35,243.91 720.66,243.04 715.42,241.44 710.39,239.11 705.66,236.28 699.36,231.48 693.09,224.55 676.56,195.73 660.58,166.48 649.78,153.58 636.87,142.42 622.13,133.16 606.14,126.33 589.41,121.76 572.16,120.06 555.59,120.56 539.38,122.36 531.69,124.13 524.80,126.63 516.80,130.49 509.21,135.36 502.55,141.02 496.66,147.48 491.50,154.98 487.24,163.08 483.90,171.64 481.58,180.54 480.41,189.57 480.39,198.66 481.58,207.62 483.89,216.35 487.36,224.78 491.67,232.61 495.99,238.74 501.00,244.37 507.73,250.57 515.33,256.00 523.52,260.13 532.23,263.07 541.53,264.63 550.76,264.90 558.45,263.87 565.87,261.93 573.10,259.10 580.49,256.27 589.27,254.24 598.23,253.20 606.33,253.34 614.29,254.54 619.85,255.97 625.38,257.93 630.36,260.53 634.60,263.60 638.38,267.23 641.28,271.36 642.83,275.06 643.87,279.16 644.35,283.36 644.27,287.39 643.20,292.35 641.16,297.22 638.52,301.78 632.86,308.54 626.14,314.54 612.31,323.60 450.58,404.27"
        fill="none"
        stroke="#e94560"
        stroke-width="8.0"
        stroke-linejoin="round"
        stroke-linecap="round"/>
  <!-- Start/finish line -->
  <line x1="459.53" y1="422.15" x2="441.64" y2="386.38"
        stroke="#f5f5f5" stroke-width="9.6"
        stroke-linecap="round"/>
</svg>
