<?xml version="1.0" encoding="utf-8"?>
<svg xmlns="http://www.w3.org/2000/svg"
     width="653.9" height="800.0"
     viewBox="0 0 653.9 800.0">
  <rect width="100%" height="100%" fill="#1a1a2e"/>
  <!-- Track outline -->
  <polyline points="130.18,593.53 180.69,700.38 194.70,720.33 208.08,734.14 223.44,745.82 239.12,754.24 247.45,757.27 255.60,759.14 263.76,760.00 271.97,759.89 280.18,758.80 288.16,756.82 295.72,754.01 303.04,750.34 309.75,745.78 315.39,740.69 320.50,734.85 324.78,728.45 329.42,717.56 332.26,707.27 332.94,703.30 333.06,699.37 332.49,691.36 331.05,683.13 329.16,677.51 326.59,672.57 323.66,668.64 319.35,664.56 292.41,646.56 262.19,626.09 250.35,615.42 240.63,603.97 222.11,570.33 181.20,494.80 151.42,447.01 144.36,430.73 139.72,416.02 138.13,407.45 137.66,399.40 138.07,390.98 139.58,382.82 142.74,374.96 146.55,368.19 149.18,364.60 151.92,361.60 158.33,356.10 161.73,353.85 165.25,351.95 168.91,350.41 172.69,349.21 176.65,348.35 180.66,347.83 184.62,347.53 189.14,347.83 196.26,349.18 204.68,351.57 212.77,355.09 223.67,362.87 234.13,373.35 247.30,390.61 259.71,410.44 279.71,452.13 305.23,523.77 311.32,534.77 317.78,543.30 325.82,551.50 335.15,558.42 348.59,565.20 363.33,569.88 378.37,572.01 393.99,571.56 412.49,567.71 431.48,560.67 452.04,549.93 473.66,534.85 509.26,503.33 544.47,465.94 571.61,430.54 593.41,396.22 603.96,375.60 610.87,357.00 613.44,345.21 613.94,334.09 613.00,326.57 611.17,319.16 608.74,312.61 606.29,307.97 603.40,303.93 600.12,300.45 596.10,297.38 591.64,294.91 587.59,293.11 584.11,292.06 580.80,291.58 577.25,291.32 573.65,291.43 570.11,291.73 566.15,292.66 556.72,296.93 545.06,304.34 518.50,328.97 490.65,354.79 474.55,365.53 459.45,373.28 446.28,378.44 432.69,382.00 414.70,384.84 396.30,385.59 379.79,383.87 364.49,380.24 353.70,376.16 344.01,370.81 335.21,364.07 327.68,356.55 323.25,350.60 319.88,344.68 317.93,340.34 316.48,336.00 314.56,327.24 314.18,318.37 314.48,314.00 315.27,309.39 317.49,301.79 320.92,293.90 326.73,285.14 334.00,277.21 342.92,270.32 352.85,264.97 363.89,261.30 376.45,259.17 422.82,259.32 467.40,260.33 478.89,258.42 489.14,254.97 499.92,249.14 508.93,242.62 512.21,239.33 514.78,236.00 517.17,232.41 519.24,228.59 520.98,224.85 522.34,220.39 523.52,213.51 524.20,205.24 523.91,197.19 522.43,190.08 519.92,183.19 516.40,176.08 505.33,160.14 489.32,142.25 441.02,95.02 391.04,53.70 373.38,44.87 359.82,40.75 355.15,40.04 351.16,40.00 347.12,40.19 343.19,40.75 339.50,41.68 335.92,42.99 332.55,44.68 329.36,46.77 326.29,49.24 323.49,52.05 321.21,55.12 319.29,58.49 317.78,61.89 316.60,65.45 315.81,69.15 315.39,72.97 315.33,76.98 315.63,81.06 316.13,85.21 317.37,89.70 322.98,100.52 331.02,111.86 341.83,121.29 352.61,130.57 360.47,141.20 365.96,151.23 367.20,155.35 367.73,159.13 368.06,162.87 368.00,166.57 367.53,170.17 366.67,173.65 365.43,177.05 363.84,180.27 361.80,183.53 359.43,186.52 356.69,189.22 353.70,191.54 350.57,193.52 347.32,195.13 343.87,196.37 340.29,197.23 336.51,197.75 332.64,197.90 328.92,197.90 324.34,197.11 300.24,186.19 272.86,174.55 259.68,172.45 247.48,172.71 234.43,174.62 221.72,178.63 210.41,184.76 198.77,193.48 178.07,214.22 156.09,235.74 120.17,257.56 83.51,281.36 70.51,295.06 59.61,310.55 50.75,327.43 44.25,345.47 40.80,363.62 40.00,382.07 41.83,399.33 46.68,417.85 84.40,496.63 130.18,593.53"
        fill="none"
        stroke="#e94560"
        stroke-width="8.0"
        stroke-linejoin="round"
        stroke-linecap="round"/>
  <!-- Start/finish line -->
  <line x1="148.26" y1="584.98" x2="112.10" y2="602.08"
        stroke="#f5f5f5" stroke-width="9.6"
        stroke-linecap="round"/>
</svg>
