<?xml version="1.0" encoding="utf-8"?>
<svg xmlns="http://www.w3.org/2000/svg"
     width="800.0" height="564.5"
     viewBox="0 0 800.0 564.5">
  <rect width="100%" height="100%" fill="#1a1a2e"/>
  <!-- Track outline -->
  <polyline points="300.44,494.91 298.00,500.43 294.72,505.10 289.54,509.61 283.08,512.59 276.35,514.34 269.08,515.24 260.11,515.24 249.44,514.18 233.98,511.74 220.83,508.45 93.05,466.03 86.59,463.48 81.25,460.46 78.01,457.91 75.53,454.62 73.60,450.53 72.40,446.23 71.36,440.76 70.24,434.50 66.02,404.18 40.46,221.14 40.00,208.66 40.08,197.72 40.93,188.06 43.13,178.35 46.46,169.96 51.75,160.46 56.86,153.98 63.39,148.14 70.31,143.31 79.01,139.43 87.40,136.57 98.23,134.23 110.48,132.90 386.74,117.77 400.00,116.50 415.58,113.90 428.80,111.14 449.03,105.56 481.27,93.88 583.81,46.85 592.24,43.98 601.01,42.12 611.22,40.53 621.12,40.00 630.44,41.54 638.56,45.89 646.41,51.94 653.36,59.80 657.58,68.14 659.82,77.96 659.63,86.50 657.04,95.53 652.32,103.33 638.87,121.07 537.41,238.28 531.19,243.75 522.56,249.01 513.52,252.56 503.35,255.43 493.03,256.97 484.33,256.97 475.09,255.70 467.04,253.68 461.21,251.02 455.25,246.41 450.80,242.42 445.24,236.00 439.86,228.41 434.76,220.71 428.61,212.64 421.57,206.80 414.15,202.77 404.64,201.07 392.46,200.22 147.18,207.97 138.25,209.19 130.01,211.47 123.05,215.14 118.53,218.75 114.85,223.05 112.80,229.26 112.57,236.90 114.47,251.82 135.11,362.19 137.43,370.84 141.22,379.81 145.28,386.40 150.85,392.24 157.23,396.91 166.43,400.78 173.74,402.75 181.70,404.08 192.22,404.82 200.07,404.18 207.45,403.12 216.89,399.78 224.97,395.58 232.59,391.23 240.12,385.12 245.38,376.74 248.82,368.24 251.41,359.16 252.85,349.24 253.19,339.57 253.35,330.39 252.73,319.51 252.65,306.34 253.19,298.75 254.04,294.56 256.21,289.83 259.46,285.48 263.86,282.19 270.28,279.21 277.36,276.88 292.01,272.79 306.74,270.19 323.68,267.96 344.05,267.85 360.91,270.72 375.33,276.82 388.75,285.85 401.12,296.10 413.46,306.08 424.01,314.99 434.49,322.48 444.08,329.12 456.18,334.80 469.90,338.62 482.35,340.26 495.62,341.27 508.34,340.80 519.82,339.04 532.66,334.85 543.37,330.76 556.82,324.34 574.45,315.31 660.52,268.76 668.02,265.09 673.66,263.82 682.05,263.13 689.52,263.71 697.56,265.73 703.40,268.65 708.58,272.58 713.29,277.25 718.82,283.14 726.36,293.92 734.29,307.08 742.33,323.17 748.71,339.41 753.35,353.48 756.40,367.92 758.49,381.46 760.00,396.17 759.88,410.71 757.76,425.63 754.08,438.16 748.71,451.91 741.09,466.45 731.58,479.67 720.41,491.94 706.64,502.66 693.46,510.94 679.31,518.27 667.67,522.36 657.77,524.00 649.38,524.48 639.06,523.20 630.24,520.50 623.01,517.05 606.08,507.28 517.81,445.64 440.13,408.43 392.54,387.62 368.72,380.72 354.07,378.54 345.41,378.33 337.91,378.75 330.33,381.67 324.61,385.39 320.78,389.95 317.96,396.48 316.76,402.27 302.49,486.31 300.44,494.91"
        fill="none"
        stroke="#e94560"
        stroke-width="8.0"
        stroke-linejoin="round"
        stroke-linecap="round"/>
  <!-- Start/finish line -->
  <line x1="319.50" y1="500.96" x2="281.38" y2="488.85"
        stroke="#f5f5f5" stroke-width="9.6"
        stroke-linecap="round"/>
</svg>
