<?xml version="1.0" encoding="utf-8"?>
<svg xmlns="http://www.w3.org/2000/svg"
     width="436.9" height="800.0"
     viewBox="0 0 436.9 800.0">
  <rect width="100%" height="100%" fill="#1a1a2e"/>
  <!-- Track outline -->
  <polyline points="48.92,433.48 47.39,325.32 45.80,240.71 40.53,139.83 40.00,109.23 42.12,92.96 45.71,81.50 50.33,71.95 54.68,65.64 59.60,60.27 65.51,54.85 72.22,50.19 81.58,45.67 91.73,42.50 101.47,40.93 112.83,40.97 145.40,48.06 180.57,55.26 200.75,54.82 220.38,52.09 247.22,45.93 273.67,40.56 291.97,40.00 308.83,42.13 323.75,46.79 337.47,53.88 348.77,62.65 358.68,73.37 367.13,85.83 374.37,100.50 382.22,122.26 388.31,146.33 392.17,171.67 393.58,197.23 392.43,221.49 388.93,244.03 384.31,260.19 377.87,274.45 369.13,287.25 358.62,298.23 345.88,307.67 331.79,315.06 315.93,320.69 299.06,324.31 278.73,326.33 259.16,326.03 246.51,323.94 235.53,320.51 228.24,317.11 221.79,312.93 216.05,308.00 211.05,302.37 207.26,296.51 204.40,290.13 202.67,283.48 201.96,276.54 202.34,269.34 203.78,262.25 206.61,255.08 209.96,248.77 212.05,245.42 214.67,242.32 223.12,235.15 234.33,227.43 254.22,217.35 273.43,206.60 279.79,201.00 285.09,195.14 289.30,189.14 292.71,181.78 294.74,174.88 295.47,171.11 295.59,167.30 294.86,160.47 292.97,153.49 289.56,147.37 285.59,142.33 283.12,139.83 280.11,137.74 274.20,134.76 266.58,131.85 258.22,129.83 239.39,129.09 219.56,131.44 202.43,136.06 186.25,143.16 171.45,152.26 157.82,164.09 144.76,180.66 133.40,200.48 122.95,225.71 115.24,254.30 110.98,291.10 109.68,332.71 109.44,404.93 112.86,466.99 115.45,479.05 119.18,488.12 125.19,497.82 132.28,505.95 138.72,511.11 145.61,514.95 153.29,517.97 161.26,519.73 169.62,519.84 177.27,518.91 181.07,518.08 184.83,516.55 194.43,510.84 204.34,502.78 211.08,494.20 217.20,483.79 225.94,464.19 235.12,444.04 243.42,431.01 252.78,419.56 265.58,407.54 279.61,397.35 293.36,390.11 307.07,385.15 318.60,382.91 329.52,382.24 338.00,382.46 345.85,383.80 350.47,385.26 354.89,387.16 358.98,389.62 362.60,392.57 365.95,396.01 368.89,399.81 372.45,406.08 375.01,412.95 376.31,420.41 376.66,427.51 376.57,431.35 375.84,435.31 373.72,441.87 370.45,449.56 366.30,456.84 357.59,466.54 345.06,477.18 214.50,577.31 192.96,594.33 177.80,609.37 173.56,616.24 170.59,623.07 168.71,629.60 168.00,634.38 167.94,638.97 168.53,643.52 171.30,651.58 174.95,658.56 177.15,661.70 179.51,664.20 181.98,666.51 184.95,668.56 191.19,671.51 198.34,673.71 205.52,674.68 213.14,674.31 223.71,671.77 235.21,666.92 251.69,656.99 268.79,643.07 289.88,618.33 308.45,592.73 324.11,568.69 329.55,562.65 334.73,558.13 338.41,555.74 342.03,553.95 345.68,552.46 349.35,551.34 353.00,550.63 356.65,550.33 360.33,550.44 364.01,550.93 367.60,551.67 371.33,553.09 377.43,557.16 382.93,562.01 385.19,564.74 386.93,567.57 388.46,570.22 389.78,573.84 392.23,592.88 393.93,618.55 396.91,694.24 394.82,709.54 391.58,721.75 388.61,729.21 385.02,735.70 380.40,742.27 375.07,748.06 369.01,752.87 362.45,756.53 355.53,758.88 348.47,760.00 341.32,759.85 334.79,758.81 331.55,757.91 328.08,756.42 314.22,748.02 296.59,738.91 276.05,734.32 251.45,732.64 186.81,736.86 125.42,740.78 109.18,739.03 96.73,735.67 88.73,731.97 81.81,727.34 75.58,721.75 70.40,715.92 68.01,712.75 65.98,709.06 62.30,699.65 58.92,685.39 49.92,503.64 48.92,433.48"
        fill="none"
        stroke="#e94560"
        stroke-width="8.0"
        stroke-linejoin="round"
        stroke-linecap="round"/>
  <!-- Start/finish line -->
  <line x1="28.92" y1="433.76" x2="68.91" y2="433.19"
        stroke="#f5f5f5" stroke-width="9.6"
        stroke-linecap="round"/>
</svg>
