<?xml version="1.0" encoding="utf-8"?>
<svg xmlns="http://www.w3.org/2000/svg"
     width="561.9" height="800.0"
     viewBox="0 0 561.9 800.0">
  <rect width="100%" height="100%" fill="#1a1a2e"/>
  <!-- Track outline -->
  <polyline points="263.37,623.43 264.01,615.26 261.64,581.18 260.49,561.64 260.76,543.72 261.85,537.30 263.43,531.72 265.94,526.24 270.47,519.23 276.28,512.38 282.60,507.14 288.45,504.35 294.70,502.73 300.65,501.95 305.18,501.80 309.51,502.24 313.87,503.47 319.68,506.50 325.53,510.71 330.43,515.32 333.47,519.13 335.87,523.15 337.77,527.51 339.79,535.00 340.81,544.11 339.93,568.84 339.25,595.18 341.18,610.26 344.97,623.48 348.48,631.17 352.84,638.27 358.05,644.19 363.86,648.55 370.42,651.83 377.08,654.09 383.13,655.21 389.28,655.36 395.43,654.48 402.87,651.74 410.27,647.67 416.46,643.31 419.67,640.47 422.24,637.54 424.57,633.81 429.57,620.89 432.82,607.67 433.26,602.48 433.09,597.63 431.57,584.36 374.71,267.74 364.77,236.26 353.89,214.42 342.47,195.32 337.87,189.05 332.87,183.67 322.25,174.17 311.00,165.65 305.21,162.07 298.69,159.23 279.09,153.50 256.98,149.39 241.84,148.71 225.78,149.83 191.87,153.99 159.36,161.78 149.66,166.58 141.71,172.11 135.12,178.28 130.49,184.06 126.87,190.33 124.30,196.69 122.85,202.71 122.28,208.84 122.58,214.91 123.66,220.88 125.62,226.76 128.63,232.29 133.67,238.41 140.06,244.04 147.19,248.50 155.13,251.53 163.82,253.30 173.38,254.08 197.72,251.24 220.03,247.71 226.73,247.81 232.37,248.45 243.49,250.90 254.68,255.40 259.85,258.10 265.16,261.62 274.25,269.16 283.14,278.51 290.41,289.68 295.95,300.84 300.18,313.48 302.58,326.50 302.95,339.09 301.36,351.38 300.04,356.86 297.88,362.59 291.63,373.95 283.55,384.77 276.85,390.40 269.49,394.66 260.05,398.58 250.66,401.27 244.84,402.25 238.76,402.40 226.39,401.18 213.95,398.82 201.00,394.56 173.82,382.03 145.73,364.50 109.23,334.34 92.19,317.00 77.18,298.74 64.24,279.30 53.83,258.88 46.19,237.04 45.58,234.35 45.00,231.26 44.50,227.93 44.02,224.65 43.58,221.52 43.21,218.78 42.54,215.15 42.16,214.66 42.03,215.15 41.89,215.94 41.76,216.96 41.66,218.04 41.55,219.12 41.49,220.05 41.39,220.69 41.28,220.93 40.91,219.12 40.47,214.56 40.14,208.30 40.00,201.44 40.17,195.17 47.10,157.37 56.94,134.36 70.93,114.18 88.78,97.78 109.33,85.64 236.97,47.20 277.29,40.20 291.19,40.00 311.30,42.35 331.04,46.71 344.09,51.36 355.88,57.19 367.17,64.29 377.65,72.46 387.15,81.62 395.67,91.76 403.28,103.41 409.36,114.72 414.46,127.40 421.56,154.87 518.54,633.76 521.55,656.63 521.89,673.48 520.06,689.93 515.91,704.77 511.95,712.45 507.12,719.41 502.01,725.18 495.93,730.28 489.30,734.05 482.24,736.99 473.28,739.24 399.66,746.24 332.70,759.71 320.12,760.00 309.30,758.78 299.06,756.33 289.43,752.66 280.88,748.15 273.14,742.67 266.68,736.50 261.27,729.49 257.05,721.86 253.94,713.68 251.98,705.16 251.33,695.90 252.96,681.90 255.90,667.40 261.71,644.10 263.37,623.43"
        fill="none"
        stroke="#e94560"
        stroke-width="8.0"
        stroke-linejoin="round"
        stroke-linecap="round"/>
  <!-- Start/finish line -->
  <line x1="243.43" y1="621.84" x2="283.30" y2="625.02"
        stroke="#f5f5f5" stroke-width="9.6"
        stroke-linecap="round"/>
</svg>
