<?xml version="1.0" encoding="utf-8"?>
<svg xmlns="http://www.w3.org/2000/svg"
     width="800.0" height="484.8"
     viewBox="0 0 800.0 484.8">
  <rect width="100%" height="100%" fill="#1a1a2e"/>
  <!-- Track outline -->
  <polyline points="609.84,42.57 638.38,40.00 657.53,40.44 673.96,42.36 686.40,45.15 697.98,49.12 708.75,54.16 718.97,60.35 728.09,67.31 736.47,75.28 743.50,83.55 749.58,92.64 754.11,101.68 757.49,111.29 759.37,120.74 760.00,130.38 759.28,139.80 757.33,149.33 753.15,161.88 747.75,173.84 742.57,182.80 736.42,190.85 727.09,199.92 714.69,209.64 621.39,271.73 568.76,300.40 555.87,305.25 544.57,307.88 535.82,308.40 527.60,307.47 519.92,305.33 512.68,301.96 506.34,297.64 500.68,292.19 496.15,286.02 492.56,278.93 490.31,271.34 489.22,263.29 489.52,255.08 491.03,247.05 493.90,239.22 497.80,232.04 502.98,225.28 508.97,219.47 516.02,214.30 523.94,210.13 534.87,206.35 548.05,203.45 578.95,200.52 612.06,196.49 635.13,189.37 655.23,180.44 667.65,173.13 678.00,165.19 684.39,158.92 689.60,152.13 693.30,145.44 695.87,138.29 696.66,133.75 696.94,129.07 696.66,124.52 695.71,120.03 694.18,115.67 692.25,111.67 689.77,107.81 686.84,104.33 683.45,101.24 678.46,97.76 672.75,94.86 666.56,92.64 654.93,90.64 640.26,90.28 530.88,98.53 432.87,105.92 422.95,108.39 415.15,111.65 407.64,115.86 400.77,121.18 395.12,127.15 390.27,134.10 386.56,141.44 383.89,149.85 382.22,161.19 382.43,173.84 387.02,192.03 394.41,212.16 420.50,276.06 424.88,292.19 427.27,306.76 427.74,318.48 426.90,329.74 424.72,340.99 421.33,351.73 416.43,362.19 410.47,371.83 403.39,380.87 395.22,389.19 383.57,399.05 370.38,408.23 334.53,426.47 295.98,438.74 259.98,444.49 247.16,444.82 235.61,443.86 227.46,442.11 220.03,439.29 213.38,435.43 207.45,430.39 204.27,426.66 201.42,422.50 199.17,417.98 197.68,413.54 196.66,408.83 196.27,404.12 196.62,399.52 197.59,394.92 199.03,390.65 201.17,386.46 203.86,382.68 206.87,379.33 210.40,376.32 214.30,373.83 218.32,371.89 222.54,370.43 226.93,369.53 231.53,369.20 240.16,370.19 249.69,372.43 264.36,377.17 279.50,381.42 291.38,382.38 302.94,381.55 315.21,378.79 326.75,374.41 334.88,369.89 342.09,364.30 348.08,358.05 353.10,350.77 356.65,343.02 358.99,334.61 359.83,325.98 359.39,317.30 357.60,309.19 354.37,300.65 344.25,282.98 332.62,262.17 322.62,231.88 313.54,204.71 308.46,195.97 303.06,189.56 296.19,183.46 288.66,178.64 280.45,174.97 271.33,172.53 256.48,170.91 241.25,171.13 230.16,172.67 220.29,175.54 215.70,177.60 211.54,180.06 207.73,183.05 204.49,186.25 201.56,189.89 199.19,193.95 197.57,197.97 196.39,202.33 195.85,206.71 196.04,211.09 196.83,215.50 198.10,219.61 201.14,225.31 205.43,230.78 215.83,240.45 226.02,250.39 228.78,254.47 230.94,258.53 232.52,262.83 233.49,267.24 233.98,271.89 233.89,276.41 233.17,280.82 231.87,285.15 230.16,289.12 227.92,292.93 225.21,296.32 222.08,299.44 214.88,304.57 206.41,308.65 194.55,312.32 182.14,314.43 171.20,314.92 160.85,313.91 152.80,311.80 145.26,308.48 138.29,304.16 131.56,298.40 124.14,289.94 116.78,278.99 96.52,234.78 56.16,144.37 42.37,109.26 40.37,98.61 40.00,88.94 41.14,81.55 43.36,74.86 46.80,68.26 51.14,62.54 54.71,59.12 58.66,56.21 62.81,53.83 69.87,51.12 77.32,49.59 85.28,48.96 93.38,49.48 101.46,51.23 109.98,54.52 137.11,72.18 178.14,101.24 192.44,107.84 206.43,112.06 221.52,114.47 237.30,114.71 255.66,112.47 276.59,107.24 369.66,70.02 419.80,58.57 480.53,52.54 547.93,48.13 609.84,42.57"
        fill="none"
        stroke="#e94560"
        stroke-width="8.0"
        stroke-linejoin="round"
        stroke-linecap="round"/>
  <!-- Start/finish line -->
  <line x1="608.05" y1="22.65" x2="611.63" y2="62.49"
        stroke="#f5f5f5" stroke-width="9.6"
        stroke-linecap="round"/>
</svg>
