<?xml version="1.0" encoding="utf-8"?>
<svg xmlns="http://www.w3.org/2000/svg"
     width="800.0" height="651.5"
     viewBox="0 0 800.0 651.5">
  <rect width="100%" height="100%" fill="#1a1a2e"/>
  <!-- Track outline -->
  <polyline points="183.83,563.31 153.84,557.54 128.74,551.85 106.27,544.35 89.40,536.68 75.93,528.10 65.44,517.00 58.19,507.24 51.98,495.51 46.56,482.60 43.15,469.59 40.70,455.87 40.00,441.51 40.79,418.67 81.18,125.59 84.33,112.32 89.05,102.39 95.26,92.10 103.04,82.89 112.92,75.30 124.81,69.25 140.02,62.39 157.33,56.43 175.08,51.29 197.29,47.13 243.02,42.08 272.39,40.00 302.03,40.45 327.83,41.53 347.23,43.25 365.42,45.96 380.55,50.56 394.54,56.97 407.91,67.54 418.32,79.73 429.68,97.69 440.96,120.27 447.61,139.68 450.93,157.56 453.55,176.16 454.60,196.29 453.38,215.25 449.79,233.58 445.42,247.30 440.44,259.13 431.69,271.41 421.73,282.06 408.00,290.82 393.14,295.43 380.02,297.96 363.85,296.96 347.76,293.26 333.42,287.84 275.19,262.29 257.70,256.51 244.15,255.61 229.03,255.88 213.99,259.58 203.76,265.99 194.32,274.66 188.72,286.76 185.92,299.22 184.61,313.58 185.84,326.04 188.55,337.77 193.88,349.33 202.45,359.62 215.48,372.08 228.94,382.38 258.05,403.59 333.86,451.81 348.63,458.85 359.83,462.91 370.05,465.08 380.46,466.71 394.97,466.98 408.26,465.26 423.39,461.29 437.29,455.42 453.55,446.21 481.36,429.14 506.36,410.73 524.46,396.37 542.47,379.31 550.86,369.55 560.04,356.28 574.91,331.45 655.17,176.61 663.91,162.43 672.04,152.59 683.32,145.01 695.74,142.03 708.33,141.48 721.27,142.57 734.82,146.36 745.31,152.86 751.78,160.26 757.03,168.12 759.83,179.32 760.00,193.04 757.81,213.54 710.86,528.82 707.54,540.56 702.21,552.75 693.46,563.77 683.06,573.79 670.73,583.99 656.31,592.30 641.44,598.35 626.40,603.49 610.32,607.10 593.18,610.17 574.82,611.53 552.44,611.26 506.19,607.19 183.83,563.31"
        fill="none"
        stroke="#e94560"
        stroke-width="8.0"
        stroke-linejoin="round"
        stroke-linecap="round"/>
  <!-- Start/finish line -->
  <line x1="181.03" y1="583.12" x2="186.62" y2="543.51"
        stroke="#f5f5f5" stroke-width="9.6"
        stroke-linecap="round"/>
</svg>
