<?xml version="1.0" encoding="utf-8"?>
<svg xmlns="http://www.w3.org/2000/svg"
     width="462.3" height="800.0"
     viewBox="0 0 462.3 800.0">
  <rect width="100%" height="100%" fill="#1a1a2e"/>
  <!-- Track outline -->
  <polyline points="333.92,495.12 308.76,630.82 297.72,665.46 290.20,681.47 281.50,696.30 271.58,709.71 260.69,721.60 248.98,731.85 236.67,740.62 224.23,747.93 211.47,753.69 198.54,757.73 185.50,759.91 172.61,760.00 159.96,758.00 148.18,753.96 136.99,747.96 126.81,740.35 117.25,730.73 107.67,717.81 97.92,701.46 60.73,625.21 56.80,613.02 54.95,602.22 54.74,594.79 55.30,587.39 56.56,580.77 58.22,576.07 60.39,571.98 63.07,568.16 67.15,563.76 71.99,559.78 77.06,556.57 82.45,554.11 88.12,552.44 93.81,551.66 99.57,551.78 105.35,552.75 110.63,554.51 114.48,556.51 117.98,559.03 121.27,562.27 124.79,566.70 128.08,572.01 131.02,578.29 135.49,593.88 139.23,612.17 143.31,638.01 148.14,661.73 152.57,671.95 157.92,679.93 162.36,684.84 167.35,689.03 172.59,692.36 178.22,694.82 184.12,696.37 190.07,697.00 196.11,696.64 202.17,695.30 208.01,693.12 213.62,690.06 219.01,686.14 223.95,681.47 228.38,676.10 232.37,670.01 235.70,663.37 239.33,652.51 241.33,640.47 241.31,625.03 238.97,607.89 232.31,581.23 221.09,551.84 194.80,505.40 161.05,456.11 64.21,334.45 54.99,320.08 48.72,307.31 43.97,293.78 40.99,279.92 40.00,266.66 40.82,253.65 43.59,241.58 48.08,230.09 54.56,218.26 63.82,205.88 97.21,170.88 131.77,141.03 138.58,137.09 144.34,134.85 149.97,133.63 155.19,133.18 160.28,133.54 165.20,134.66 169.82,136.45 174.24,138.97 178.26,142.09 181.57,145.55 184.53,149.59 186.96,154.17 189.02,159.78 190.50,166.00 191.17,172.30 190.35,181.22 187.73,191.41 174.74,222.96 161.95,256.08 159.51,270.33 159.55,283.98 162.90,302.70 169.73,324.41 194.20,385.65 220.64,439.79 225.50,446.59 229.82,451.14 234.39,454.81 239.35,458.02 244.55,460.42 249.88,461.97 255.57,462.69 261.42,462.57 267.07,461.48 272.44,459.45 277.64,456.54 282.34,452.81 286.29,448.50 289.82,443.46 292.69,438.00 294.89,432.82 296.50,427.24 297.31,419.99 290.42,373.22 280.64,323.50 278.34,306.85 277.72,293.05 279.16,282.10 282.19,272.22 285.13,266.21 288.85,260.72 293.73,255.02 316.07,238.09 338.39,220.83 343.29,214.74 346.98,208.73 349.94,202.09 353.25,190.59 355.08,176.40 353.45,135.60 351.96,94.60 354.18,79.61 357.83,67.57 360.69,60.99 364.04,55.14 367.84,50.16 372.07,46.25 376.73,43.18 381.44,41.12 384.68,40.30 387.99,40.00 391.25,40.15 394.43,40.76 398.45,42.18 402.34,44.37 405.97,47.28 409.51,51.22 412.74,55.98 415.55,61.50 419.46,73.33 421.85,86.86 422.25,102.15 420.54,120.10 398.28,217.44 359.50,381.16 333.92,495.12"
        fill="none"
        stroke="#e94560"
        stroke-width="8.0"
        stroke-linejoin="round"
        stroke-linecap="round"/>
  <!-- Start/finish line -->
  <line x1="353.52" y1="499.10" x2="314.32" y2="491.13"
        stroke="#f5f5f5" stroke-width="9.6"
        stroke-linecap="round"/>
</svg>
