<?xml version="1.0" encoding="utf-8"?>
<svg xmlns="http://www.w3.org/2000/svg"
     width="800.0" height="699.0"
     viewBox="0 0 800.0 699.0">
  <rect width="100%" height="100%" fill="#1a1a2e"/>
  <!-- Track outline -->
  <polyline points="42.77,410.60 50.51,455.90 65.28,500.79 87.86,542.22 117.76,578.59 153.98,608.32 195.38,630.80 240.11,647.48 287.05,656.82 335.56,659.01 384.13,653.71 431.42,641.08 475.52,620.78 515.29,592.82 552.36,560.15 586.09,523.61 617.97,484.53 648.44,445.46 676.63,407.90 703.19,373.55 727.48,341.80 750.91,300.37 760.00,260.04 750.34,215.57 720.30,180.37 684.87,160.84 645.17,142.14 604.77,128.17 566.63,127.41 529.35,145.18 508.40,179.36 505.84,222.65 516.92,260.04 530.13,300.96 531.84,353.67 519.91,398.98 500.16,444.20 479.14,476.20 452.44,505.00 420.84,527.73 384.63,543.06 346.92,549.88 308.43,547.94 271.01,539.44 227.33,514.43 199.50,488.41 177.27,456.41 161.79,420.03 153.12,380.62 148.37,339.19 143.82,299.11 140.70,249.34 148.08,206.39 171.87,168.67 212.28,152.33 251.62,170.35 271.64,205.97 273.42,252.79 267.81,294.39 271.43,338.85 288.69,379.78 313.83,409.59 353.45,426.26 395.14,417.59 426.67,387.44 440.51,342.22 436.61,301.38 424.68,258.18 408.91,213.38 390.16,166.99 371.99,132.12 347.98,100.12 317.87,73.26 282.86,53.22 245.09,41.35 206.38,40.00 167.68,46.32 132.39,61.64 101.99,85.14 77.71,115.03 60.52,150.56 49.52,189.38 44.26,230.65 41.78,273.51 40.28,317.72 40.00,363.19 42.77,410.60"
        fill="none"
        stroke="#e94560"
        stroke-width="8.0"
        stroke-linejoin="round"
        stroke-linecap="round"/>
  <!-- Start/finish line -->
  <line x1="62.64" y1="408.35" x2="22.90" y2="412.85"
        stroke="#f5f5f5" stroke-width="9.6"
        stroke-linecap="round"/>
</svg>
