<?xml version="1.0" encoding="utf-8"?>
<svg xmlns="http://www.w3.org/2000/svg"
     width="447.1" height="800.0"
     viewBox="0 0 447.1 800.0">
  <rect width="100%" height="100%" fill="#1a1a2e"/>
  <!-- Track outline -->
  <polyline points="334.70,296.63 292.09,424.78 281.24,457.36 272.95,484.84 257.17,543.65 255.08,556.27 254.73,569.07 255.36,581.91 256.52,588.75 258.18,594.94 263.09,607.85 298.63,672.55 304.92,683.74 311.46,697.71 313.77,704.40 315.35,711.22 316.04,717.85 315.81,724.44 314.50,730.87 312.27,736.88 308.93,742.56 304.79,747.48 299.79,751.68 294.27,754.97 288.09,757.54 281.61,759.20 275.48,759.97 267.52,760.00 150.47,749.40 116.52,747.79 100.20,745.25 92.41,743.10 84.84,740.20 77.79,736.54 71.09,732.06 64.96,726.85 59.35,720.84 54.55,714.25 50.39,706.99 46.92,699.22 44.17,690.98 41.00,673.45 40.00,641.42 45.81,561.95 47.00,553.81 48.58,547.46 50.10,543.13 51.93,539.03 54.20,535.53 56.37,533.28 58.87,531.41 61.54,529.91 64.28,528.80 67.23,528.04 70.33,527.73 73.45,527.84 76.46,528.35 79.36,529.29 82.22,530.61 84.93,532.35 87.39,534.42 90.12,537.69 92.48,541.55 94.42,545.75 96.41,552.51 97.52,559.80 97.26,575.43 90.16,630.35 89.99,637.79 90.51,644.01 91.73,650.41 93.55,656.50 95.97,662.26 98.89,667.62 102.17,672.65 106.07,677.16 109.74,680.27 113.86,682.99 118.14,685.17 122.61,686.78 127.24,687.79 131.93,688.20 139.46,687.53 146.72,685.64 152.28,683.33 157.46,680.30 162.50,676.59 167.25,672.24 171.68,667.23 175.74,661.69 179.13,656.29 182.51,649.27 192.06,621.46 200.86,589.01 205.13,566.64 207.05,547.41 206.68,538.62 205.27,531.00 202.84,523.53 199.61,516.66 195.97,510.73 191.48,504.98 182.35,495.83 173.15,486.55 168.26,480.27 164.61,473.82 163.09,469.52 162.10,465.01 161.78,460.55 162.30,456.14 163.52,451.76 165.20,447.72 168.98,442.02 173.65,437.07 179.10,432.63 185.01,428.80 198.17,422.03 234.81,405.11 240.39,401.11 244.93,396.97 253.73,386.88 257.41,381.93 261.26,375.25 288.09,303.32 297.67,268.87 300.73,253.01 302.10,238.91 301.43,232.14 299.85,226.31 298.33,222.42 296.43,218.77 294.09,215.43 290.56,211.77 286.39,208.58 282.07,206.25 278.78,205.16 275.37,204.56 271.93,204.44 268.65,204.82 265.58,205.68 262.56,207.03 259.71,208.79 257.20,210.94 254.60,214.28 252.44,218.25 250.61,222.48 248.71,228.44 247.18,236.06 238.84,305.50 236.23,318.95 232.50,331.44 229.97,337.12 226.98,342.38 223.31,347.28 219.16,351.61 214.45,355.42 209.17,358.42 204.37,360.21 199.16,361.46 194.00,361.82 189.01,361.17 184.08,359.64 179.49,357.41 175.48,354.67 171.79,351.27 168.59,347.33 166.10,343.05 164.09,338.28 162.63,333.33 161.56,325.74 161.67,318.02 163.11,310.37 165.46,302.93 171.75,288.42 187.24,254.90 188.66,248.29 189.16,242.23 188.70,229.37 186.28,216.77 169.35,166.80 167.12,153.55 166.14,140.10 167.23,112.91 171.49,86.24 174.72,73.85 177.03,67.94 179.89,62.47 183.57,57.34 187.83,52.91 192.87,49.25 198.31,46.48 204.22,44.54 210.28,43.60 214.32,43.60 218.38,44.10 222.31,45.08 225.97,46.53 229.51,48.48 232.85,50.83 237.38,55.03 241.35,60.11 244.39,65.74 247.09,72.45 254.84,99.15 257.20,105.55 259.82,110.99 263.33,116.20 267.34,120.87 271.97,125.22 277.01,128.98 282.57,132.25 288.42,134.63 294.60,135.83 300.92,136.01 307.30,135.26 313.53,133.47 319.30,130.59 324.64,126.73 329.16,122.09 333.13,116.70 336.43,110.97 339.17,104.75 342.64,91.40 348.34,65.14 351.31,57.47 355.04,51.20 358.33,47.65 362.08,44.72 366.03,42.49 370.22,40.91 374.61,40.05 378.97,40.00 383.29,40.86 387.59,42.57 391.59,44.92 395.25,47.85 398.63,51.40 401.47,55.50 403.63,60.11 405.29,65.25 406.45,70.33 407.14,76.70 407.10,83.13 405.35,97.46 401.65,112.76 348.51,255.08 334.70,296.63"
        fill="none"
        stroke="#e94560"
        stroke-width="8.0"
        stroke-linejoin="round"
        stroke-linecap="round"/>
  <!-- Start/finish line -->
  <line x1="353.68" y1="302.94" x2="315.72" y2="290.32"
        stroke="#f5f5f5" stroke-width="9.6"
        stroke-linecap="round"/>
</svg>
