<?xml version="1.0" encoding="utf-8"?>
<svg xmlns="http://www.w3.org/2000/svg"
     width="592.1" height="800.0"
     viewBox="0 0 592.1 800.0">
  <rect width="100%" height="100%" fill="#1a1a2e"/>
  <!-- Track outline -->
  <polyline points="452.62,293.65 391.49,106.98 381.55,89.36 371.28,76.47 356.84,61.57 341.92,49.65 335.74,46.03 329.80,43.46 323.49,41.68 315.64,40.37 307.34,40.00 299.39,40.78 292.26,42.72 285.43,45.70 279.32,49.65 274.44,54.34 270.24,59.89 266.11,66.34 257.88,83.62 249.28,100.65 242.01,109.25 233.89,115.99 223.75,121.88 212.62,126.31 199.58,129.44 187.02,131.15 172.37,131.45 158.79,129.48 140.08,124.15 115.68,115.21 93.11,107.76 86.80,107.24 81.37,107.61 76.15,108.69 70.96,110.37 65.98,112.75 61.27,115.88 56.15,120.50 51.33,126.13 47.34,132.38 44.16,139.57 41.84,147.40 40.41,155.59 40.00,169.41 42.08,183.98 48.40,203.24 57.58,221.60 67.51,235.27 79.02,246.63 92.02,255.50 105.47,261.80 112.47,264.03 119.29,265.41 126.05,265.86 132.47,265.48 138.82,264.25 145.68,261.80 163.87,249.84 183.30,235.20 219.65,212.74 232.21,207.89 244.47,205.10 257.13,204.13 270.20,205.02 286.28,208.34 302.43,213.78 317.48,220.97 331.65,230.06 344.96,241.27 357.11,254.20 367.97,268.76 377.69,285.23 396.78,332.02 458.83,525.31 461.97,543.46 462.21,558.06 460.95,567.82 458.56,577.28 455.18,586.26 450.67,594.75 445.11,602.76 438.69,610.06 426.61,620.27 412.38,629.02 392.34,637.96 370.83,644.97 350.15,649.74 330.45,652.16 316.49,652.12 304.17,650.18 298.43,648.21 293.21,645.64 288.50,642.47 284.34,638.97 280.62,634.91 277.48,630.25 274.64,624.07 272.53,617.14 271.40,610.47 271.37,605.22 272.08,600.15 273.48,595.27 275.63,590.39 278.50,585.77 282.08,581.38 290.75,574.08 301.61,567.33 320.31,559.21 338.34,551.06 346.50,544.95 352.88,538.24 356.29,533.40 359.16,528.22 361.24,522.82 362.47,517.57 363.02,512.13 362.85,506.50 361.62,499.46 359.43,492.20 356.36,485.31 352.20,478.68 347.11,472.45 341.34,466.94 330.90,460.05 318.64,454.20 297.55,447.05 277.30,439.56 268.02,433.60 260.71,426.75 256.69,421.64 253.31,416.02 250.65,410.21 248.84,404.47 247.74,398.55 247.40,392.70 247.81,387.30 248.94,381.97 250.95,376.83 257.23,368.41 265.36,360.22 276.45,350.68 286.21,340.96 288.94,336.23 290.75,331.46 291.85,326.32 292.22,319.61 291.64,312.46 290.07,305.72 287.34,299.50 283.65,293.68 279.49,288.77 275.53,285.26 271.23,282.51 266.62,280.42 261.43,279.01 255.90,278.34 250.06,278.37 242.18,279.42 233.78,281.50 225.66,284.67 213.98,291.71 202.86,301.28 189.71,316.52 177.87,334.59 167.63,355.56 159.74,378.32 154.25,402.87 151.69,429.62 152.61,466.61 158.99,509.86 188.18,613.53 221.66,705.28 230.27,721.97 239.11,733.89 250.13,744.73 261.94,753.00 268.33,756.16 274.74,758.36 281.23,759.63 287.68,760.00 294.24,759.40 301.16,757.76 316.73,750.91 333.83,740.37 360.87,718.54 386.95,697.83 399.37,691.20 411.18,686.95 423.95,684.30 438.15,683.11 465.35,684.34 491.77,684.86 503.41,682.48 513.28,678.61 522.19,673.58 530.21,666.91 535.67,660.61 540.69,653.31 544.82,645.53 549.26,633.20 551.68,619.67 552.05,603.84 549.12,583.32 462.01,322.33 452.62,293.65"
        fill="none"
        stroke="#e94560"
        stroke-width="8.0"
        stroke-linejoin="round"
        stroke-linecap="round"/>
  <!-- Start/finish line -->
  <line x1="433.61" y1="299.87" x2="471.63" y2="287.42"
        stroke="#f5f5f5" stroke-width="9.6"
        stroke-linecap="round"/>
</svg>
