<?xml version="1.0" encoding="utf-8"?>
<svg xmlns="http://www.w3.org/2000/svg"
     width="357.2" height="800.0"
     viewBox="0 0 357.2 800.0">
  <rect width="100%" height="100%" fill="#1a1a2e"/>
  <!-- Track outline -->
  <polyline points="91.48,229.26 95.52,182.79 102.46,120.84 105.71,106.57 109.89,92.78 121.12,66.56 124.89,60.64 128.91,55.78 133.44,51.62 138.41,48.00 144.01,44.61 149.95,41.99 156.32,40.47 162.86,40.00 169.32,40.63 175.72,42.15 182.16,44.43 188.34,47.34 193.72,50.41 198.77,53.95 208.40,62.97 217.15,73.93 224.87,85.94 243.41,124.27 257.45,164.10 277.70,240.50 279.42,254.30 278.83,282.14 280.10,295.36 282.27,307.39 287.13,321.05 307.47,365.86 311.65,377.71 314.76,389.75 316.74,401.73 317.24,408.99 317.10,416.39 316.18,423.52 314.48,430.39 312.07,436.73 308.82,442.40 306.06,445.68 302.89,448.53 299.38,450.63 296.88,451.55 294.12,452.23 291.31,452.57 288.57,452.47 286.17,451.84 284.04,450.58 282.01,448.77 280.17,446.57 278.64,444.18 277.51,441.74 276.61,437.65 276.59,433.14 276.99,428.21 279.63,415.47 282.65,402.86 284.04,390.30 283.71,383.72 282.60,377.16 280.60,370.53 277.77,364.10 274.25,358.23 269.22,351.73 221.59,303.01 217.03,297.30 213.80,292.21 210.95,286.42 208.85,280.36 207.76,274.49 207.36,267.93 209.01,242.29 208.66,229.05 207.62,222.54 205.97,216.25 203.65,210.19 200.66,204.56 196.91,199.47 192.56,195.01 187.70,191.29 182.40,188.35 176.59,186.25 170.53,185.10 164.27,184.92 158.05,185.70 151.89,187.49 146.06,190.24 140.80,193.83 136.15,198.26 132.37,203.46 129.38,209.25 127.32,214.89 125.81,222.05 121.61,285.18 107.62,482.70 108.05,490.28 109.02,495.86 110.60,502.47 112.91,508.87 116.14,514.95 120.13,520.53 124.94,525.62 130.23,530.00 135.37,533.25 140.75,535.92 152.62,540.41 165.10,543.48 171.47,544.29 177.84,544.39 184.05,543.66 190.04,542.03 195.44,539.46 200.45,535.98 203.80,532.96 206.91,529.47 209.48,525.67 211.30,521.66 212.60,517.36 213.35,513.01 213.35,506.43 212.31,499.87 210.61,493.95 207.48,487.08 163.17,421.50 159.37,415.29 156.89,410.02 155.17,404.17 154.44,398.22 154.62,394.15 155.31,390.06 156.56,386.18 158.54,382.28 161.11,378.60 164.09,375.51 167.37,373.10 171.02,371.24 174.85,369.93 179.12,369.14 183.55,369.01 187.87,369.51 191.83,370.74 195.66,372.57 199.24,374.86 204.08,379.05 208.42,383.93 215.85,394.57 255.35,468.70 260.45,481.86 264.03,495.44 264.95,502.44 265.21,509.49 264.72,516.55 263.49,523.52 259.90,536.29 252.64,554.46 228.64,606.80 167.29,730.29 159.58,740.94 148.98,749.59 138.79,755.39 128.55,757.90 116.28,759.63 102.36,760.00 88.49,757.90 75.04,753.34 62.01,744.71 51.87,731.60 44.18,718.10 40.12,703.00 40.00,687.82 65.84,494.52 91.48,229.26"
        fill="none"
        stroke="#e94560"
        stroke-width="8.0"
        stroke-linejoin="round"
        stroke-linecap="round"/>
  <!-- Start/finish line -->
  <line x1="71.57" y1="227.36" x2="111.39" y2="231.15"
        stroke="#f5f5f5" stroke-width="9.6"
        stroke-linecap="round"/>
</svg>
