<?xml version="1.0" encoding="utf-8"?>
<svg xmlns="http://www.w3.org/2000/svg"
     width="717.7" height="800.0"
     viewBox="0 0 717.7 800.0">
  <rect width="100%" height="100%" fill="#1a1a2e"/>
  <!-- Track outline -->
  <polyline points="250.45,367.72 253.49,373.20 255.35,377.64 256.64,382.26 257.15,387.74 254.90,399.86 250.57,414.22 247.70,428.47 247.75,441.74 249.22,454.90 251.80,466.50 256.42,476.77 262.10,486.00 275.44,505.50 282.81,513.63 290.86,520.90 299.52,527.14 308.30,532.15 315.16,534.69 321.64,537.29 327.54,542.02 332.95,547.56 338.35,553.50 343.19,559.91 346.06,564.52 348.53,569.37 350.11,574.91 350.39,584.14 349.10,594.53 346.68,604.45 343.41,612.99 339.19,621.12 334.07,628.34 328.33,634.45 321.75,639.70 314.83,643.97 307.91,646.97 300.59,649.05 293.16,650.03 285.23,649.86 277.18,648.53 269.19,646.11 260.02,641.78 250.96,636.01 243.03,629.37 236.89,622.10 231.71,613.97 227.83,606.12 225.02,597.41 223.61,589.39 223.33,579.52 227.04,550.44 229.18,518.02 227.61,507.98 224.91,499.33 220.85,491.02 214.10,481.44 205.55,472.38 196.43,465.11 188.05,460.50 179.21,457.21 170.10,455.30 160.08,454.73 149.73,455.59 140.11,457.84 131.95,461.36 124.35,466.15 117.54,471.69 111.69,477.52 106.51,484.09 102.29,491.59 98.47,502.79 95.93,515.37 94.70,526.96 95.26,538.04 96.95,548.31 98.18,556.79 101.11,566.89 131.27,624.53 170.27,687.07 189.23,712.28 207.35,731.15 220.97,740.84 234.36,747.83 245.22,752.15 256.14,755.38 267.78,758.38 280.39,760.00 293.33,759.42 307.46,757.35 320.57,753.88 330.92,749.61 340.43,744.25 349.60,737.33 366.26,719.09 379.71,699.59 384.72,690.24 388.37,679.80 395.35,647.03 399.51,614.72 399.63,606.53 398.56,598.22 379.14,525.00 374.02,501.40 370.42,490.21 367.83,479.82 368.17,473.13 369.41,466.90 370.93,460.73 373.29,454.55 377.40,447.51 384.27,439.78 423.71,411.97 468.11,385.14 483.64,375.97 497.43,369.91 506.26,367.95 515.15,367.14 523.65,367.66 531.36,369.33 538.79,372.16 545.37,375.97 550.88,380.82 555.67,386.59 559.32,392.87 561.91,399.57 563.43,406.72 563.66,414.05 561.91,422.99 558.54,432.11 554.43,439.72 551.22,443.76 547.68,446.99 543.62,449.76 536.03,453.23 526.91,456.11 508.06,460.26 488.99,466.09 480.77,471.11 473.68,477.11 467.94,484.04 464.62,489.86 462.09,496.33 460.29,503.02 459.39,509.65 459.61,518.71 461.30,527.83 464.28,536.14 468.39,542.94 473.57,549.06 479.36,554.14 485.38,558.00 491.97,560.95 498.27,563.02 505.42,564.12 512.23,564.06 518.08,563.48 524.44,561.87 541.20,555.06 557.13,546.93 565.80,539.94 642.27,465.40 657.12,447.46 667.42,432.28 670.97,425.24 673.33,418.09 676.37,405.28 677.66,390.91 676.71,379.32 674.40,367.26 670.80,356.12 666.69,347.52 661.57,339.68 655.15,332.29 645.19,323.35 633.38,315.10 621.17,308.81 609.69,305.41 597.87,303.73 586.84,303.21 576.09,304.08 564.50,306.56 529.73,318.21 494.16,328.66 484.20,329.41 475.54,329.00 467.66,327.39 461.36,325.14 455.56,322.08 450.55,318.04 446.95,313.95 443.74,309.16 441.16,303.85 439.30,298.14 438.17,290.29 438.12,281.46 439.02,272.75 440.65,265.31 444.81,257.11 450.16,250.19 455.17,243.73 461.13,237.44 484.37,219.73 530.40,187.53 543.46,175.18 553.58,162.14 558.59,152.68 562.36,142.59 564.73,132.43 565.51,122.39 565.01,112.24 563.21,102.49 560.56,93.66 556.74,85.23 551.05,76.87 541.04,66.48 527.87,55.41 514.19,46.00 502.83,40.63 498.16,40.00 493.99,40.35 490.00,41.38 486.06,42.71 478.13,46.46 470.58,51.60 463.38,58.35 455.73,65.68 442.34,75.89 428.49,84.48 423.09,87.02 418.03,88.81 412.79,89.68 407.17,89.56 401.32,88.52 395.01,86.39 383.36,78.95 370.48,68.91 358.72,61.58 352.25,59.50 346.23,58.58 340.21,58.52 333.85,59.16 327.54,60.60 321.69,62.73 317.87,64.46 314.21,66.54 310.94,69.02 308.30,72.08 306.10,76.75 304.70,82.35 304.02,88.23 304.19,93.83 305.54,100.29 308.24,106.64 312.41,113.39 325.91,127.70 343.75,143.45 357.54,157.53 361.87,164.05 364.80,170.05 366.82,175.93 368.00,183.55 367.83,191.34 366.48,201.72 363.73,211.88 360.18,219.26 355.51,226.25 348.53,235.13 339.08,243.67 325.35,251.81 308.47,259.36 290.86,265.25 270.94,269.40 250.12,271.71 232.33,271.42 223.61,269.69 216.13,266.92 208.76,263.29 196.10,255.73 184.17,245.92 173.36,231.03 162.73,216.26 155.64,209.74 148.15,204.21 140.27,199.94 132.12,197.17 123.56,195.55 114.73,194.86 104.21,195.09 93.34,196.42 83.05,199.01 73.65,202.65 64.70,207.38 57.50,213.38 53.00,220.42 49.90,228.50 47.20,236.86 42.59,250.77 40.00,264.50 40.28,271.31 41.58,277.83 44.05,284.92 55.36,306.39 69.43,326.93 77.98,336.50 86.82,344.29 106.17,357.62 116.13,363.51 126.66,367.89 134.76,369.45 143.26,369.91 151.25,368.93 157.66,366.16 163.68,362.18 169.82,358.54 179.89,354.45 190.24,351.51 200.48,350.35 210.78,350.47 221.36,351.39 231.26,353.53 236.22,355.43 240.66,357.79 244.66,360.74 248.15,364.43 250.45,367.72"
        fill="none"
        stroke="#e94560"
        stroke-width="8.0"
        stroke-linejoin="round"
        stroke-linecap="round"/>
  <!-- Start/finish line -->
  <line x1="267.53" y1="357.31" x2="233.38" y2="378.13"
        stroke="#f5f5f5" stroke-width="9.6"
        stroke-linecap="round"/>
</svg>
