<?xml version="1.0" encoding="utf-8"?>
<svg xmlns="http://www.w3.org/2000/svg"
     width="751.6" height="800.0"
     viewBox="0 0 751.6 800.0">
  <rect width="100%" height="100%" fill="#1a1a2e"/>
  <!-- Track outline -->
  <polyline points="160.02,40.11 142.36,40.00 121.26,44.19 103.77,50.75 89.10,58.57 75.86,68.89 64.37,82.07 54.61,97.82 47.04,115.57 41.85,135.34 40.00,161.69 40.25,182.44 41.78,352.54 45.23,400.07 52.69,444.57 62.63,475.92 74.79,501.96 85.49,518.10 97.65,531.24 114.74,544.84 132.98,555.48 149.03,562.03 164.64,565.66 173.56,566.37 182.22,566.01 190.40,564.57 197.33,562.45 203.89,559.50 209.76,555.48 214.38,551.00 218.45,545.68 221.65,539.77 223.82,533.63 225.24,526.94 225.72,520.14 224.99,512.67 223.16,505.10 220.62,497.70 214.77,486.11 206.59,474.16 184.64,449.47 163.04,424.10 155.27,410.64 150.17,397.22 148.14,388.06 147.02,378.58 147.25,369.91 148.76,363.29 151.29,357.30 154.45,352.08 158.56,347.47 163.43,343.77 168.76,340.81 175.66,338.10 183.18,336.41 190.86,335.70 199.11,336.12 207.55,337.71 215.84,340.39 227.84,346.38 240.14,355.15 276.99,392.43 374.66,493.65 405.77,529.34 518.45,685.03 546.82,712.79 572.47,732.31 591.78,743.90 610.32,752.04 627.51,757.29 644.08,759.86 653.34,760.00 662.25,759.08 670.80,757.01 678.69,753.87 686.23,749.64 692.99,744.53 698.09,739.46 702.62,733.72 706.25,727.30 708.83,720.75 710.66,713.60 711.55,706.24 711.33,697.99 710.00,689.43 707.74,681.29 703.97,672.66 698.98,664.52 693.43,657.37 684.19,648.91 672.65,641.62 641.47,628.51 609.50,614.32 595.05,603.43 583.16,591.17 573.27,578.06 565.33,563.65 560.74,550.93 557.63,535.85 556.31,498.72 554.16,460.56 548.33,440.66 540.42,424.13 531.07,410.08 520.10,398.03 505.93,385.98 490.13,376.11 471.60,368.71 451.48,363.36 425.33,359.24 398.20,354.23 371.87,344.51 345.51,331.69 287.89,294.66 249.92,266.33 217.47,238.14 207.16,226.38 200.14,214.72 197.49,207.60 195.71,200.20 194.97,192.91 195.36,186.00 196.71,179.20 198.84,172.97 202.15,166.94 206.40,161.59 211.29,157.01 218.11,152.43 225.85,148.97 234.01,146.72 243.87,145.77 254.27,146.37 264.35,148.30 277.01,153.45 290.40,161.02 316.78,178.36 343.23,194.25 356.62,198.65 369.06,200.23 377.86,200.23 386.68,199.25 395.02,196.92 402.09,193.61 408.71,189.21 414.77,183.78 420.05,177.55 424.81,170.36 428.62,162.40 432.40,149.08 434.06,134.53 433.36,117.62 430.34,101.34 427.44,92.85 423.71,85.13 419.18,78.05 412.55,70.33 404.81,63.46 396.55,57.58 383.59,50.53 367.62,45.57 318.68,41.37 260.53,40.63 160.02,40.11"
        fill="none"
        stroke="#e94560"
        stroke-width="8.0"
        stroke-linejoin="round"
        stroke-linecap="round"/>
  <!-- Start/finish line -->
  <line x1="159.92" y1="60.11" x2="160.13" y2="20.11"
        stroke="#f5f5f5" stroke-width="9.6"
        stroke-linecap="round"/>
</svg>
