<?xml version="1.0" encoding="utf-8"?>
<svg xmlns="http://www.w3.org/2000/svg"
     width="800.0" height="783.6"
     viewBox="0 0 800.0 783.6">
  <rect width="100%" height="100%" fill="#1a1a2e"/>
  <!-- Track outline -->
  <polyline points="355.47,249.41 368.97,237.83 398.42,218.40 412.91,211.70 427.58,206.82 441.36,204.04 455.34,203.44 465.78,204.64 476.37,207.18 486.52,210.86 500.89,219.43 514.13,229.68 535.31,249.11 556.93,265.94 565.94,271.13 575.53,275.71 585.39,278.49 593.00,279.21 600.90,279.09 608.51,277.83 615.32,275.23 620.24,271.97 624.88,267.69 629.03,262.68 632.45,257.31 634.88,251.88 636.42,244.83 636.68,237.22 635.83,229.50 634.22,222.20 628.48,209.47 619.69,196.68 600.83,175.02 582.11,153.42 574.14,141.12 568.55,128.87 565.68,119.34 563.80,109.38 563.51,99.43 565.13,88.99 568.47,78.61 573.33,69.14 579.98,60.63 588.18,53.15 597.04,47.24 605.90,43.44 615.32,41.15 625.02,40.00 635.69,40.12 646.68,41.57 657.09,44.04 670.36,49.35 682.75,56.53 695.07,65.70 706.58,76.44 717.79,88.93 727.90,102.62 736.91,118.19 744.34,134.12 753.05,160.42 758.38,188.60 760.00,218.22 758.05,248.26 752.35,277.83 743.12,306.66 730.51,334.60 715.11,361.26 697.16,385.88 677.38,407.42 657.09,426.24 630.17,447.72 616.46,456.23 602.30,463.04 588.59,467.51 574.39,469.80 563.84,469.92 552.96,468.78 541.52,466.06 519.24,453.69 495.45,441.14 467.91,428.05 453.24,422.92 438.17,419.18 422.72,417.25 407.21,417.07 392.06,418.70 377.09,421.96 362.57,426.72 347.16,433.66 317.60,450.25 289.47,468.84 276.86,479.09 266.53,489.35 257.38,499.85 249.51,511.25 242.26,524.94 237.41,539.60 236.31,547.27 235.90,555.17 236.49,562.95 238.29,570.13 241.56,576.83 246.12,583.28 251.53,588.96 257.38,593.48 263.44,596.56 270.17,598.61 277.16,599.82 283.96,600.12 292.78,598.97 301.57,596.32 310.10,592.64 322.82,584.79 335.69,574.54 355.62,554.75 375.81,536.04 384.52,530.43 392.98,526.27 401.73,523.74 408.97,522.89 416.58,522.89 424.05,523.92 430.89,526.03 436.95,529.23 442.58,533.57 447.69,538.64 451.99,544.25 456.88,553.42 460.34,563.74 462.18,574.11 462.07,583.89 460.41,593.72 458.02,603.19 453.76,616.04 447.87,628.35 439.75,640.78 430.00,652.54 418.38,664.07 405.52,674.81 376.28,694.17 325.87,718.79 297.97,728.86 268.30,736.65 237.37,741.90 206.56,743.59 176.12,741.78 147.22,737.07 121.18,728.98 106.15,721.62 91.77,712.57 79.45,702.32 68.57,690.80 59.56,678.49 52.13,665.27 46.29,651.16 42.24,636.50 40.11,621.59 40.00,606.63 42.10,592.09 46.07,577.79 51.99,563.25 59.52,549.08 67.36,536.53 79.49,521.20 346.98,256.65 355.47,249.41"
        fill="none"
        stroke="#e94560"
        stroke-width="8.0"
        stroke-linejoin="round"
        stroke-linecap="round"/>
  <!-- Start/finish line -->
  <line x1="342.47" y1="234.22" x2="368.48" y2="264.60"
        stroke="#f5f5f5" stroke-width="9.6"
        stroke-linecap="round"/>
</svg>
