<?xml version="1.0" encoding="utf-8"?>
<svg xmlns="http://www.w3.org/2000/svg"
     width="800.0" height="786.0"
     viewBox="0 0 800.0 786.0">
  <rect width="100%" height="100%" fill="#1a1a2e"/>
  <!-- Track outline -->
  <polyline points="128.05,608.38 123.05,602.15 98.22,563.99 76.21,521.92 57.17,474.71 43.83,428.29 40.05,397.37 40.00,370.57 41.28,356.81 44.47,344.00 53.45,322.85 65.73,302.72 80.19,287.51 95.56,275.71 107.79,268.40 119.75,263.91 140.65,259.42 172.23,257.39 201.68,253.70 227.10,244.72 249.59,232.84 273.78,221.76 293.24,217.05 308.50,216.69 320.73,218.72 328.38,220.31 335.14,222.92 341.20,226.97 346.67,231.90 351.09,236.90 354.81,242.40 357.52,248.19 359.49,254.49 360.55,261.15 360.76,268.03 360.28,275.49 358.58,283.17 352.84,294.97 344.86,306.41 336.04,316.19 324.82,325.10 294.73,340.74 260.33,355.29 204.87,376.44 192.43,383.10 181.80,391.79 172.87,402.72 164.41,415.90 158.25,428.94 155.69,437.56 154.42,446.03 154.10,455.23 155.91,475.50 161.17,497.15 173.19,524.60 189.30,550.52 208.12,572.46 229.44,590.57 245.49,600.63 262.45,608.82 279.31,614.61 294.67,617.65 309.93,618.67 323.86,617.87 333.49,616.06 342.31,613.16 350.66,609.11 358.48,604.04 365.87,597.88 372.62,590.86 381.13,579.56 388.04,566.02 393.89,546.69 397.13,523.95 394.47,485.64 391.71,449.07 393.51,434.15 397.82,420.61 412.44,395.41 429.67,371.80 439.93,360.65 449.18,348.92 459.97,324.73 467.84,294.97 470.45,250.00 469.38,204.16 466.57,145.36 466.99,138.12 468.16,131.53 472.57,117.19 479.11,102.64 486.98,91.12 497.24,80.70 521.38,64.11 546.96,50.64 559.93,45.36 572.26,42.17 587.20,40.07 602.46,40.00 616.87,41.88 631.33,46.37 649.30,56.00 666.69,69.11 681.10,83.81 694.66,102.49 714.54,139.21 732.83,181.79 748.04,225.89 758.09,267.24 760.00,288.89 758.88,307.86 755.21,323.00 750.22,335.67 746.92,341.82 742.77,347.18 736.50,353.70 728.84,360.43 721.45,365.58 713.80,368.62 706.35,370.14 699.12,370.93 692.00,370.86 685.14,369.78 678.49,367.75 672.01,364.63 665.73,360.65 661.53,357.68 657.49,354.28 653.77,349.79 649.62,341.90 646.06,332.34 643.40,322.56 641.60,308.59 641.38,294.18 643.35,277.88 644.94,262.96 644.15,255.36 642.34,248.84 639.52,242.62 635.80,237.11 630.91,232.04 625.27,227.84 620.65,224.95 615.70,222.48 610.76,221.04 605.97,221.04 601.19,221.91 596.56,223.21 590.29,225.31 584.39,228.13 579.07,231.61 574.12,235.81 569.92,240.08 565.88,246.16 557.16,268.25 549.30,298.59 544.46,351.09 538.56,414.82 508.99,552.26 477.09,668.56 470.71,684.13 464.23,695.14 455.29,707.01 445.09,717.22 434.24,725.48 421.32,732.21 394.20,740.97 363.47,745.97 332.64,745.54 302.22,740.18 275.59,730.62 248.79,716.43 211.41,691.15 174.99,660.96 147.72,633.15 128.05,608.38"
        fill="none"
        stroke="#e94560"
        stroke-width="8.0"
        stroke-linejoin="round"
        stroke-linecap="round"/>
  <!-- Start/finish line -->
  <line x1="112.40" y1="620.84" x2="143.69" y2="595.93"
        stroke="#f5f5f5" stroke-width="9.6"
        stroke-linecap="round"/>
</svg>
