<?xml version="1.0" encoding="utf-8"?>
<svg xmlns="http://www.w3.org/2000/svg"
     width="800.0" height="454.3"
     viewBox="0 0 800.0 454.3">
  <rect width="100%" height="100%" fill="#1a1a2e"/>
  <!-- Track outline -->
  <polyline points="370.76,266.96 329.07,297.67 270.81,337.46 239.03,358.66 190.50,387.84 171.04,396.67 136.92,407.74 117.09,412.28 107.56,413.74 98.09,414.26 88.70,413.44 79.54,411.39 70.67,408.04 62.45,403.34 57.46,399.39 52.87,394.81 48.96,389.74 45.76,383.93 43.28,377.56 41.51,371.00 40.40,364.22 40.00,357.25 40.46,350.43 41.83,343.87 44.02,337.50 47.05,331.65 51.13,326.39 56.06,321.66 61.28,317.60 68.87,313.17 76.92,309.81 85.14,307.43 94.47,305.64 133.24,301.39 143.11,298.93 151.78,295.65 159.97,291.37 167.50,286.08 174.29,279.74 180.26,272.51 185.16,264.50 189.50,254.96 202.03,213.01 215.72,179.10 224.59,162.14 230.30,153.72 237.09,146.53 241.00,143.92 245.25,141.69 249.70,140.12 254.09,139.38 257.66,139.45 261.37,140.01 265.05,141.09 268.47,142.54 271.44,144.44 274.66,147.61 277.43,151.60 279.63,156.00 281.08,160.39 281.80,165.87 281.40,171.57 280.20,177.79 273.38,194.90 265.82,211.96 263.62,218.30 261.97,224.07 261.48,229.74 261.88,233.28 262.71,236.93 263.94,240.47 265.59,243.71 267.67,246.39 270.44,248.59 273.81,250.45 277.52,251.83 281.37,252.77 285.08,253.18 289.73,252.84 294.52,251.61 299.20,249.82 303.45,247.62 308.22,244.19 312.47,240.06 316.43,235.51 321.97,228.21 327.33,218.71 340.40,182.75 353.55,147.13 358.89,138.30 364.45,131.59 371.21,125.11 378.74,119.59 387.02,115.31 395.83,112.21 404.96,110.61 414.38,109.83 434.66,108.97 455.29,105.54 547.39,80.88 640.91,56.25 678.97,43.43 696.35,40.71 706.28,40.00 716.21,40.41 725.36,42.42 733.98,45.81 739.23,48.76 744.14,52.30 748.50,56.40 752.33,61.13 755.55,66.38 757.95,71.93 759.40,77.82 760.00,84.01 759.69,90.08 758.35,96.12 756.06,102.08 753.18,107.74 747.62,115.87 740.68,123.06 732.04,129.09 722.65,133.64 714.09,136.25 705.31,137.70 696.72,138.26 686.36,137.78 605.53,125.55 587.56,126.07 569.10,129.20 550.73,135.43 532.47,144.22 439.91,216.03 370.76,266.96"
        fill="none"
        stroke="#e94560"
        stroke-width="8.0"
        stroke-linejoin="round"
        stroke-linecap="round"/>
  <!-- Start/finish line -->
  <line x1="382.62" y1="283.07" x2="358.90" y2="250.86"
        stroke="#f5f5f5" stroke-width="9.6"
        stroke-linecap="round"/>
</svg>
