<?xml version="1.0" encoding="utf-8"?>
<svg xmlns="http://www.w3.org/2000/svg"
     width="404.2" height="800.0"
     viewBox="0 0 404.2 800.0">
  <rect width="100%" height="100%" fill="#1a1a2e"/>
  <!-- Track outline -->
  <polyline points="309.23,418.65 317.41,389.15 347.29,289.12 349.80,270.07 349.57,251.51 346.73,233.19 344.38,224.74 341.33,216.70 337.30,209.07 332.57,202.00 327.28,195.37 321.39,189.47 314.55,184.23 307.18,179.85 299.10,176.08 290.68,173.22 281.77,171.32 272.73,170.46 263.74,170.70 254.83,171.91 246.34,173.98 238.17,176.98 230.76,180.81 223.81,185.57 217.49,191.23 211.80,197.72 207.08,204.59 203.23,212.11 200.49,219.94 198.76,228.19 198.12,236.92 198.55,245.65 200.08,253.93 202.61,261.86 206.07,269.28 210.69,276.87 221.41,290.60 232.05,304.54 236.62,312.62 239.93,320.62 241.66,326.28 242.95,332.15 243.31,337.91 242.87,342.19 241.94,346.47 240.50,350.54 238.59,354.09 235.64,357.47 231.98,360.34 227.87,362.68 223.74,364.48 217.69,366.03 211.34,366.51 205.06,366.27 196.36,364.65 188.02,361.82 180.91,358.54 174.15,354.44 167.30,349.19 160.82,343.05 154.65,335.91 149.12,327.97 144.55,319.62 140.91,310.58 138.40,301.02 136.80,290.40 136.00,255.96 138.07,237.61 149.07,185.47 155.81,167.42 163.30,152.45 168.83,144.20 174.82,137.41 182.36,130.85 190.29,125.23 204.44,117.29 220.66,111.25 236.96,107.46 252.87,105.59 308.61,103.25 324.26,103.11 332.81,102.63 341.25,101.07 346.75,98.97 352.10,96.14 356.62,92.41 359.20,89.31 361.50,85.75 363.26,81.96 364.16,78.06 364.13,74.75 363.57,71.16 362.51,67.60 361.14,64.22 359.51,61.29 355.66,57.11 350.83,53.87 345.77,51.18 338.72,48.11 329.73,45.87 284.82,41.28 239.65,40.00 230.43,41.04 222.88,42.83 205.66,48.83 189.26,57.22 173.53,67.64 159.84,79.78 147.57,93.76 137.40,109.56 128.43,126.12 122.42,142.86 113.43,179.43 89.38,252.17 75.95,282.32 47.62,331.32 44.13,339.53 41.91,346.98 40.44,354.82 40.00,362.82 40.46,368.69 41.55,374.62 43.36,380.07 46.22,385.18 49.92,389.73 54.10,393.70 61.72,398.60 71.30,402.50 125.18,414.54 141.63,419.75 156.77,425.93 170.89,433.49 183.94,442.25 195.38,452.74 200.39,458.50 205.06,465.02 210.13,473.68 214.36,483.21 217.02,492.83 218.34,502.77 217.90,512.98 216.32,522.85 214.39,530.68 211.80,538.03 204.68,552.11 195.61,564.88 184.01,576.16 170.04,585.89 121.05,611.32 112.86,616.63 106.22,622.16 100.02,629.02 94.70,636.85 90.47,645.58 87.26,655.04 85.20,664.98 84.14,674.91 84.66,690.82 87.65,706.62 95.55,727.70 100.02,735.16 105.03,741.95 110.38,748.61 116.37,754.20 119.99,756.45 123.89,758.34 127.89,759.59 131.79,760.00 134.86,759.62 137.99,758.72 141.06,757.38 143.93,755.62 146.49,753.55 149.74,749.61 152.43,744.75 154.91,739.09 159.22,723.70 163.20,708.21 169.73,693.65 173.53,687.27 178.64,680.67 197.06,664.29 217.56,646.34 240.32,618.84 250.26,601.38 287.32,497.46 309.23,418.65"
        fill="none"
        stroke="#e94560"
        stroke-width="8.0"
        stroke-linejoin="round"
        stroke-linecap="round"/>
  <!-- Start/finish line -->
  <line x1="289.96" y1="413.30" x2="328.50" y2="424.00"
        stroke="#f5f5f5" stroke-width="9.6"
        stroke-linecap="round"/>
</svg>
