<?xml version="1.0" encoding="utf-8"?>
<svg xmlns="http://www.w3.org/2000/svg"
     width="800.0" height="592.4"
     viewBox="0 0 800.0 592.4">
  <rect width="100%" height="100%" fill="#1a1a2e"/>
  <!-- Track outline -->
  <polyline points="537.41,218.61 556.93,235.95 714.57,371.70 737.64,392.46 746.58,403.22 753.48,414.87 756.13,420.87 758.19,427.03 759.46,433.11 760.00,439.50 759.62,447.65 758.10,455.91 755.03,463.87 751.04,471.10 747.19,476.53 742.87,481.26 738.08,485.66 732.52,489.42 723.28,493.09 713.63,495.66 700.56,497.71 680.10,497.46 641.55,496.28 598.26,498.18 579.86,501.69 571.81,504.40 541.96,518.19 506.58,542.92 499.16,546.95 492.43,549.67 485.79,551.58 479.03,552.36 473.99,552.03 468.82,551.07 464.01,549.62 458.26,546.95 453.05,543.43 448.20,539.08 444.02,533.96 440.83,527.96 438.51,521.43 437.00,514.63 436.49,507.65 437.17,500.99 438.95,493.81 444.75,479.86 450.92,465.74 453.50,457.82 455.21,450.37 456.08,442.69 456.03,435.07 454.93,427.67 452.84,420.50 449.58,413.47 445.48,406.80 435.01,393.83 425.27,385.01 364.59,346.58 354.60,338.65 349.03,333.38 343.90,327.53 339.79,321.50 336.60,315.01 334.63,308.17 333.81,301.14 334.30,294.19 335.92,287.41 338.57,281.31 342.65,274.58 376.77,228.95 383.03,217.27 386.06,209.68 388.41,201.72 389.68,194.27 390.05,186.82 389.39,179.65 387.89,172.61 385.55,165.67 382.47,159.06 378.69,152.67 374.24,146.84 369.00,141.66 363.18,137.29 356.71,133.82 349.83,131.35 342.65,129.98 335.38,129.75 328.17,130.87 321.16,133.17 314.59,136.62 308.37,141.04 302.22,146.67 296.71,152.84 289.25,163.82 283.19,176.28 271.15,220.52 265.94,254.55 262.19,271.00 257.64,286.29 252.10,300.35 245.37,313.30 237.04,325.03 226.80,335.48 215.00,344.53 201.84,352.29 187.55,359.04 172.51,364.62 157.04,368.17 141.16,369.32 133.41,368.82 125.76,367.64 110.93,363.30 96.36,357.31 83.11,350.22 71.56,342.23 61.26,333.86 55.30,328.23 49.76,321.95 45.49,315.59 42.28,308.81 40.99,304.28 40.21,299.60 40.00,294.95 40.35,290.49 41.22,286.12 42.60,282.01 44.62,278.14 47.16,274.58 50.07,271.45 53.49,268.67 57.34,266.35 61.35,264.47 67.95,262.37 74.87,261.25 81.67,261.08 89.72,261.81 144.11,271.84 152.80,272.57 160.21,272.45 167.72,271.61 174.97,269.93 181.54,267.44 187.62,263.99 192.99,259.60 197.64,254.30 201.23,248.17 203.93,241.39 205.73,234.02 206.60,226.29 206.48,218.44 205.36,209.62 194.89,168.50 192.36,153.23 192.22,137.32 194.47,121.43 198.27,106.11 203.57,91.82 210.52,78.91 219.08,67.56 224.11,62.52 229.50,57.98 241.49,50.53 254.68,44.99 268.83,41.46 283.59,40.00 298.68,40.45 313.74,43.11 328.74,47.84 343.47,54.45 357.88,62.75 385.33,83.42 537.41,218.61"
        fill="none"
        stroke="#e94560"
        stroke-width="8.0"
        stroke-linejoin="round"
        stroke-linecap="round"/>
  <!-- Start/finish line -->
  <line x1="550.70" y1="203.66" x2="524.12" y2="233.56"
        stroke="#f5f5f5" stroke-width="9.6"
        stroke-linecap="round"/>
</svg>
