<?xml version="1.0" encoding="utf-8"?>
<svg xmlns="http://www.w3.org/2000/svg"
     width="676.8" height="800.0"
     viewBox="0 0 676.8 800.0">
  <rect width="100%" height="100%" fill="#1a1a2e"/>
  <!-- Track outline -->
  <polyline points="299.58,211.69 234.60,226.12 217.78,229.38 87.41,255.54 77.50,256.24 69.82,255.54 64.39,254.15 59.16,252.09 54.46,249.35 50.34,245.81 46.72,241.59 43.85,236.95 41.74,231.76 40.43,226.12 40.00,220.61 40.53,215.62 41.87,210.72 43.76,206.02 46.21,201.31 49.23,196.80 52.76,192.71 58.57,187.98 66.90,182.76 199.38,109.04 276.14,70.41 326.40,51.44 344.62,45.80 363.87,41.84 378.88,40.26 394.28,40.00 410.06,41.03 442.14,46.44 474.44,56.11 523.02,76.44 555.03,93.38 570.15,102.73 584.29,112.97 596.97,124.64 608.18,137.68 617.94,151.86 625.81,166.87 631.68,182.50 635.36,198.77 636.76,215.43 635.87,232.21 632.99,248.83 628.53,265.39 615.92,297.90 479.48,569.17 411.15,711.22 401.09,727.27 395.24,734.45 388.80,740.96 381.76,746.50 374.18,751.20 366.27,755.01 357.98,757.81 349.32,759.52 340.52,760.00 331.69,759.03 322.97,756.94 314.36,753.81 306.04,749.79 297.94,744.86 290.30,739.09 283.20,732.49 276.76,725.20 265.93,708.68 157.17,513.70 142.75,486.92 135.92,469.17 133.83,460.38 132.58,451.48 132.09,442.53 132.47,433.60 133.73,424.87 135.98,416.40 139.34,408.38 143.70,400.87 149.00,394.07 155.10,388.02 161.87,382.73 169.18,378.35 176.67,375.10 184.45,373.07 192.43,372.52 200.40,373.29 208.17,375.35 215.52,378.61 222.31,383.18 228.56,388.69 239.73,401.77 249.79,416.91 258.44,434.05 263.36,448.07 266.61,462.76 268.04,478.03 271.65,575.59 274.35,594.08 278.14,608.74 281.77,617.37 286.24,624.75 291.64,631.58 297.87,637.61 304.89,642.79 312.53,646.95 320.67,649.85 329.12,651.52 337.54,651.97 345.92,651.20 354.17,649.11 362.04,645.76 369.31,641.05 375.91,635.29 381.86,628.58 387.05,621.17 391.58,613.09 395.30,604.49 398.26,595.98 400.41,585.80 401.85,523.17 393.81,423.68 394.47,390.95 397.73,374.87 403.15,359.53 410.72,345.39 415.23,338.95 420.25,332.96 425.80,327.57 431.78,322.71 444.54,314.62 479.80,300.48 487.88,296.65 494.77,292.59 501.20,287.59 506.79,281.79 511.24,275.16 514.66,267.91 517.15,260.11 518.51,252.02 518.62,243.81 517.49,235.63 515.11,227.57 511.51,219.87 506.58,212.59 500.62,205.92 493.77,199.83 486.22,194.52 478.04,189.94 469.36,186.27 459.87,183.63 450.43,181.98 443.90,181.21 435.50,181.47 299.58,211.69"
        fill="none"
        stroke="#e94560"
        stroke-width="8.0"
        stroke-linejoin="round"
        stroke-linecap="round"/>
  <!-- Start/finish line -->
  <line x1="303.92" y1="231.21" x2="295.24" y2="192.16"
        stroke="#f5f5f5" stroke-width="9.6"
        stroke-linecap="round"/>
</svg>
