<?xml version="1.0" encoding="utf-8"?>
<svg xmlns="http://www.w3.org/2000/svg"
     width="566.5" height="800.0"
     viewBox="0 0 566.5 800.0">
  <rect width="100%" height="100%" fill="#1a1a2e"/>
  <!-- Track outline -->
  <polyline points="278.41,655.90 269.27,609.99 265.98,584.49 266.26,572.82 268.10,561.53 270.82,553.36 274.48,545.47 278.94,538.77 282.93,534.61 287.45,531.16 292.29,528.47 297.32,526.58 303.23,525.49 309.59,525.35 315.91,526.20 321.73,527.90 326.44,530.17 330.90,533.19 335.04,536.88 338.71,541.18 342.82,547.65 345.73,555.49 348.07,565.64 349.62,593.08 350.16,618.40 351.83,634.46 354.65,644.57 358.00,651.37 362.30,657.65 367.23,662.75 371.76,665.91 376.75,668.37 382.00,670.02 387.25,670.92 392.72,671.02 398.32,670.31 403.89,668.80 409.17,666.58 415.87,662.61 422.23,657.37 427.54,650.99 431.40,643.76 434.34,635.50 436.33,627.09 437.22,615.14 436.58,603.29 435.26,593.04 432.66,582.17 414.83,536.31 401.48,513.21 347.31,436.32 333.59,411.95 323.72,386.73 320.50,374.12 318.41,361.36 317.68,349.08 318.25,337.04 320.15,326.13 323.44,314.70 332.32,293.96 340.77,272.76 343.36,259.44 343.83,246.83 342.92,238.61 341.05,230.63 338.36,223.31 334.57,216.60 329.82,210.65 324.58,205.64 318.28,201.30 311.39,197.94 304.27,195.58 296.75,194.02 289.03,193.46 281.41,193.98 274.07,195.68 266.83,198.46 259.84,202.15 249.82,209.51 240.49,218.25 225.56,235.49 173.99,317.20 153.97,365.76 137.43,406.85 131.01,417.48 124.62,425.46 119.06,431.55 113.02,437.22 106.50,441.61 100.72,444.16 94.52,445.91 88.19,446.81 82.03,446.66 75.92,445.39 69.79,443.08 63.91,439.91 58.69,436.13 53.44,430.89 48.89,424.75 45.22,417.85 42.62,410.58 40.85,402.64 40.00,394.52 40.76,381.30 43.45,368.35 47.59,357.16 52.84,346.63 66.41,324.33 261.39,73.20 277.77,56.72 286.56,50.25 296.08,45.20 304.24,42.50 312.97,40.71 321.70,40.00 330.52,40.43 339.34,41.94 347.66,44.35 357.59,48.88 366.63,55.02 374.54,62.44 381.53,71.27 386.68,79.30 392.06,92.14 522.57,668.46 526.33,691.42 526.46,702.38 525.10,713.19 522.76,721.32 519.44,729.30 515.36,736.43 509.95,743.00 503.62,748.52 496.89,753.01 489.27,756.55 481.14,758.82 472.92,760.00 460.17,759.24 447.65,756.65 426.62,749.85 403.76,745.50 380.17,745.41 356.74,745.17 345.35,743.47 335.07,740.30 323.59,734.64 312.78,726.94 303.93,717.77 296.34,707.29 291.12,697.47 286.82,686.93 279.92,663.55 278.41,655.90"
        fill="none"
        stroke="#e94560"
        stroke-width="8.0"
        stroke-linejoin="round"
        stroke-linecap="round"/>
  <!-- Start/finish line -->
  <line x1="258.79" y1="659.80" x2="298.02" y2="652.00"
        stroke="#f5f5f5" stroke-width="9.6"
        stroke-linecap="round"/>
</svg>
