<?xml version="1.0" encoding="utf-8"?>
<svg xmlns="http://www.w3.org/2000/svg"
     width="424.7" height="800.0"
     viewBox="0 0 424.7 800.0">
  <rect width="100%" height="100%" fill="#1a1a2e"/>
  <!-- Track outline -->
  <polyline points="50.90,461.33 59.63,375.61 78.63,213.62 90.50,138.62 93.94,124.32 98.42,110.48 104.11,97.06 111.23,84.65 119.79,73.45 129.68,63.68 140.72,55.42 156.88,47.10 169.87,42.85 183.39,40.49 197.28,40.00 211.21,41.31 224.99,44.34 238.37,49.08 251.13,55.39 275.44,71.29 320.75,110.66 352.27,145.17 369.30,168.36 377.84,183.66 381.03,191.43 383.35,199.38 384.54,207.55 384.70,215.74 383.76,223.79 381.83,231.65 378.89,239.21 375.15,246.49 365.74,260.21 331.31,299.37 318.48,311.75 305.01,322.95 290.96,332.84 283.64,337.00 276.06,340.43 268.37,342.86 260.54,344.26 255.47,344.53 250.42,344.32 245.49,343.35 240.27,341.37 235.22,338.58 230.93,335.21 228.52,332.51 226.48,329.48 224.85,326.23 223.66,322.86 222.88,319.12 222.58,315.15 222.76,311.14 223.52,307.38 225.47,302.83 228.45,298.52 232.36,293.87 248.79,278.76 265.85,264.03 277.14,251.80 281.87,244.52 285.75,236.66 288.59,228.19 290.41,219.45 291.26,210.64 291.07,201.81 289.72,193.16 287.42,184.66 284.55,176.68 280.47,168.12 269.36,149.76 256.92,132.30 250.56,125.26 244.22,119.68 237.61,114.85 230.68,110.87 223.86,107.75 216.75,105.84 211.33,105.50 205.71,105.90 200.47,107.17 197.01,108.69 193.68,110.72 190.65,113.09 188.08,115.76 185.99,118.67 184.27,121.95 182.98,125.41 182.15,128.87 181.90,133.61 182.50,138.46 183.65,143.23 186.56,149.85 190.56,156.98 206.23,186.39 208.48,193.25 209.59,199.63 209.86,206.52 209.03,213.35 207.75,217.75 205.91,222.03 203.59,226.03 199.23,231.28 193.59,236.50 167.33,257.05 157.36,267.68 149.35,278.12 145.66,284.04 142.54,291.11 134.32,317.49 126.15,355.15 103.61,581.77 103.70,610.18 105.79,630.91 107.99,640.20 110.97,647.94 114.51,654.89 118.87,661.02 122.11,664.36 125.71,667.24 129.73,669.64 134.73,671.70 140.22,673.19 145.73,673.77 151.26,673.25 156.79,671.86 161.98,669.97 168.27,666.73 174.01,662.69 179.63,657.92 184.75,652.46 189.20,646.27 193.63,638.59 214.41,593.94 222.49,582.22 233.87,569.90 244.89,557.03 248.03,551.87 250.37,546.95 251.68,542.04 251.98,538.55 251.80,534.99 251.11,531.59 249.85,528.50 247.80,525.68 245.12,523.13 241.88,520.88 238.23,518.79 229.37,515.78 218.95,513.50 210.00,510.83 203.50,507.43 198.27,503.37 195.19,500.00 192.53,496.23 190.37,492.17 188.08,485.28 186.84,477.87 186.56,469.80 187.00,461.51 189.00,444.63 190.83,436.83 193.47,429.55 195.70,425.36 198.34,421.44 201.39,418.01 204.93,415.04 208.87,412.55 213.05,410.67 217.50,409.49 222.21,408.94 226.87,409.00 231.55,409.67 236.23,410.94 240.71,412.73 246.68,416.25 253.29,421.29 299.38,460.45 321.99,483.61 331.98,496.87 339.85,510.99 342.72,518.30 344.81,525.80 346.02,533.29 346.39,540.79 345.91,547.89 344.44,555.00 341.36,563.31 337.05,571.33 331.93,578.07 325.32,584.44 295.43,603.47 280.88,614.25 275.92,619.28 271.61,624.66 264.15,636.98 258.52,651.00 242.75,714.50 239.52,722.36 236.05,728.58 231.83,734.87 227.05,740.60 221.82,745.67 216.10,750.07 210.23,753.57 203.82,756.36 195.51,758.73 186.75,760.00 178.09,759.76 169.42,758.60 152.11,755.11 134.73,750.17 121.74,745.22 108.77,739.00 96.17,730.89 84.12,720.66 73.17,708.19 63.53,693.62 55.49,677.71 49.55,660.69 44.36,640.08 40.73,613.58 40.00,585.62 40.60,562.86 41.97,549.05 50.90,461.33"
        fill="none"
        stroke="#e94560"
        stroke-width="8.0"
        stroke-linejoin="round"
        stroke-linecap="round"/>
  <!-- Start/finish line -->
  <line x1="31.01" y1="459.30" x2="70.80" y2="463.35"
        stroke="#f5f5f5" stroke-width="9.6"
        stroke-linecap="round"/>
</svg>
