<?xml version="1.0" encoding="utf-8"?>
<svg xmlns="http://www.w3.org/2000/svg"
     width="543.8" height="800.0"
     viewBox="0 0 543.8 800.0">
  <rect width="100%" height="100%" fill="#1a1a2e"/>
  <!-- Track outline -->
  <polyline points="502.12,424.53 502.85,682.63 499.58,706.26 494.60,723.20 490.70,731.53 486.14,738.56 481.09,744.58 475.31,749.82 468.97,753.92 462.46,757.02 455.53,759.04 448.43,760.00 441.43,759.83 434.88,758.65 428.47,756.46 422.55,753.19 417.54,749.37 412.91,744.70 409.08,738.79 406.19,730.97 404.20,721.74 402.81,711.27 403.19,682.13 402.64,654.22 400.16,646.11 396.79,639.64 392.40,633.40 378.75,619.16 361.34,606.16 334.66,591.59 306.07,580.73 281.94,576.12 256.42,574.26 213.24,574.26 172.99,573.36 157.77,570.43 145.23,565.54 138.23,561.49 131.79,556.59 126.36,550.68 122.56,544.61 119.50,537.74 117.65,530.60 117.20,523.39 117.83,515.97 119.39,508.99 122.28,502.13 126.29,495.82 131.16,490.25 138.65,484.29 147.60,479.51 157.80,475.23 187.71,468.59 218.39,460.94 230.48,454.80 241.31,447.60 251.61,438.26 267.32,417.72 282.36,392.85 299.46,358.87 317.64,325.22 360.15,278.24 374.81,261.24 386.34,244.31 390.10,235.30 392.75,226.02 394.24,216.68 394.59,207.45 393.90,198.06 392.22,189.17 389.37,180.44 385.43,172.23 380.80,164.86 374.99,157.82 368.34,151.75 360.85,146.51 350.51,140.94 338.88,136.61 325.23,133.69 277.14,133.18 228.87,138.86 208.68,143.64 192.45,150.62 185.52,155.18 179.43,160.41 174.27,166.60 170.41,173.02 167.27,180.11 165.25,187.59 164.45,194.74 164.63,202.16 166.13,210.10 173.96,225.96 185.76,243.41 195.76,260.40 203.04,278.52 207.22,296.07 207.60,305.64 206.76,314.92 204.95,323.70 201.89,332.14 197.74,339.96 192.94,346.94 187.05,353.47 180.37,359.04 173.33,363.59 165.36,367.48 156.97,370.29 148.40,371.98 139.52,372.65 130.50,372.15 121.17,370.29 109.47,366.24 97.32,360.44 86.31,353.41 74.79,343.39 64.65,330.68 54.03,311.83 45.71,289.83 41.57,266.70 40.00,241.61 40.21,207.85 43.13,175.15 47.45,154.34 53.65,135.88 62.29,117.71 72.77,101.44 85.79,86.81 100.28,74.55 116.43,64.03 134.23,55.75 157.14,48.55 185.59,43.83 280.27,40.00 372.58,42.98 395.18,46.19 413.50,51.42 431.33,58.91 447.97,68.75 462.01,79.84 474.51,93.12 484.54,107.24 492.79,123.89 499.37,144.43 503.79,172.00 502.12,424.53"
        fill="none"
        stroke="#e94560"
        stroke-width="8.0"
        stroke-linejoin="round"
        stroke-linecap="round"/>
  <!-- Start/finish line -->
  <line x1="522.12" y1="424.57" x2="482.12" y2="424.50"
        stroke="#f5f5f5" stroke-width="9.6"
        stroke-linecap="round"/>
</svg>
