<?xml version="1.0" encoding="utf-8"?>
<svg xmlns="http://www.w3.org/2000/svg"
     width="665.4" height="800.0"
     viewBox="0 0 665.4 800.0">
  <rect width="100%" height="100%" fill="#1a1a2e"/>
  <!-- Track outline -->
  <polyline points="147.93,520.64 161.07,538.02 176.06,556.84 262.48,665.39 283.87,685.48 304.75,701.64 329.71,717.76 369.61,736.73 407.95,751.15 438.48,757.56 471.93,760.00 506.31,757.93 537.68,751.36 564.72,741.02 576.10,734.98 586.96,727.56 598.86,717.39 609.52,705.46 614.84,697.56 619.37,689.13 622.66,680.28 624.58,671.38 625.38,662.16 624.86,653.20 622.74,644.40 619.21,635.92 614.88,628.23 609.52,621.18 603.22,614.98 596.45,609.79 588.96,605.60 580.95,602.58 572.74,600.51 559.88,599.35 546.81,600.25 533.71,603.16 520.73,607.67 494.65,619.91 442.05,650.34 429.07,655.95 416.81,659.03 406.95,659.61 396.77,658.82 387.04,656.48 378.18,652.46 369.73,647.00 362.28,640.58 356.71,634.38 351.90,627.49 348.05,620.02 345.25,612.33 343.33,604.12 342.77,595.85 344.01,586.73 346.77,577.51 350.54,569.03 355.43,561.34 361.36,554.45 367.85,548.52 379.27,541.25 391.73,536.01 405.71,532.61 420.01,530.55 433.31,529.59 446.61,528.11 461.32,523.87 475.62,517.40 484.35,511.94 492.65,505.48 499.98,498.00 505.91,489.89 511.00,480.88 514.72,471.18 516.85,460.74 517.69,449.66 517.53,438.96 515.48,425.39 512.04,412.14 502.50,382.88 474.22,327.12 443.33,274.38 426.78,254.24 409.11,236.75 395.41,226.25 380.55,217.14 365.96,211.04 351.30,207.01 337.84,204.63 324.38,204.52 314.36,206.33 304.22,209.56 295.05,214.49 287.64,220.69 281.07,228.32 275.62,236.91 271.61,246.29 268.69,256.57 266.80,266.80 265.92,280.21 266.84,293.57 269.53,307.61 274.42,322.67 289.28,351.93 304.30,380.71 309.27,394.33 312.40,406.89 313.80,415.11 314.60,423.32 314.16,431.43 312.64,438.16 310.19,444.95 307.07,451.36 303.38,456.82 298.98,461.33 293.85,465.04 288.28,467.95 282.55,470.23 273.74,472.14 264.36,472.61 255.27,471.93 243.29,469.06 231.67,464.13 219.73,457.35 208.39,448.60 198.13,437.37 188.64,424.43 170.45,394.06 155.31,361.36 150.30,345.72 147.01,329.93 146.01,314.77 146.69,299.72 148.89,284.98 152.58,270.62 157.95,256.15 164.76,242.26 183.35,215.55 207.35,189.95 231.47,167.10 251.02,144.95 258.31,133.87 263.96,122.10 266.48,114.36 268.25,106.36 268.73,98.09 267.53,87.86 264.72,77.31 260.55,67.88 256.11,61.57 250.70,55.95 244.65,51.13 238.32,47.21 228.58,43.18 218.09,40.85 207.95,40.00 195.57,41.48 183.47,45.14 170.45,50.55 157.51,57.39 131.59,74.66 105.83,97.14 82.39,125.07 61.55,156.61 55.87,167.58 51.18,179.72 45.21,205.37 41.16,231.82 40.00,244.86 40.20,258.64 41.64,292.08 48.73,331.89 63.20,371.17 95.89,442.99 121.41,485.60 147.93,520.64"
        fill="none"
        stroke="#e94560"
        stroke-width="8.0"
        stroke-linejoin="round"
        stroke-linecap="round"/>
  <!-- Start/finish line -->
  <line x1="163.88" y1="508.57" x2="131.98" y2="532.70"
        stroke="#f5f5f5" stroke-width="9.6"
        stroke-linecap="round"/>
</svg>
