<?xml version="1.0" encoding="utf-8"?>
<svg xmlns="http://www.w3.org/2000/svg"
     width="738.1" height="800.0"
     viewBox="0 0 738.1 800.0">
  <rect width="100%" height="100%" fill="#1a1a2e"/>
  <!-- Track outline -->
  <polyline points="260.23,365.28 238.86,376.86 218.72,389.28 201.26,398.78 185.82,407.12 169.95,415.90 153.67,424.89 136.87,434.25 119.74,443.90 102.49,453.81 85.58,463.68 69.18,474.35 54.62,486.95 44.34,502.39 40.00,519.61 42.06,536.47 50.72,550.97 62.88,564.08 76.02,577.30 89.15,591.68 100.33,608.40 106.91,623.80 112.33,640.15 118.01,656.36 125.27,671.65 137.42,688.51 153.14,701.59 171.78,709.20 192.47,712.40 209.93,714.55 228.64,717.03 248.43,720.52 268.20,725.95 287.03,733.63 304.69,742.52 321.67,751.15 338.72,757.38 355.52,760.00 375.34,758.03 391.91,750.28 404.82,738.26 414.57,723.29 420.19,706.32 419.61,688.66 413.21,672.60 401.05,660.11 385.28,651.84 367.55,647.29 348.56,645.18 328.40,645.69 311.47,645.14 294.37,641.79 277.71,635.27 261.21,625.08 244.06,611.86 226.23,598.82 208.27,587.38 191.67,576.93 177.53,565.82 166.50,553.22 158.32,535.67 158.14,517.97 165.78,502.64 179.14,491.24 195.59,483.09 214.10,477.44 233.81,472.31 250.34,468.01 267.42,462.98 285.58,456.36 304.49,446.81 319.48,438.44 335.23,428.68 350.67,417.90 365.14,407.01 378.23,396.01 393.72,381.48 407.84,367.72 421.50,355.55 435.41,346.30 453.27,338.76 471.10,336.69 489.66,343.39 503.75,357.59 510.66,373.25 512.01,390.59 508.40,408.50 500.01,426.53 490.01,440.26 478.21,452.93 464.04,464.00 447.59,472.89 428.81,479.37 408.82,484.25 388.65,488.66 369.16,493.03 351.20,497.69 335.28,503.22 318.43,512.36 305.97,524.82 299.41,542.77 302.53,561.02 314.58,574.89 332.21,580.65 351.90,577.30 369.51,571.83 389.68,566.33 407.28,563.71 425.84,562.73 445.08,561.96 464.50,559.16 483.41,553.12 500.79,542.81 516.01,528.02 526.73,514.62 537.10,499.15 547.20,482.17 557.37,463.89 565.78,444.26 572.57,424.60 577.64,404.97 580.80,385.42 581.68,366.04 580.20,347.25 577.99,329.04 577.19,311.31 578.64,294.08 584.17,272.70 594.11,254.35 607.80,240.11 624.20,230.02 641.68,223.29 658.74,217.35 674.11,209.56 689.05,196.37 697.54,180.10 698.12,162.91 692.09,146.67 684.65,129.51 678.93,111.38 675.11,93.06 671.19,75.76 662.65,57.99 648.64,45.17 631.28,40.00 613.40,44.37 599.09,57.04 589.57,74.71 585.45,91.68 582.18,109.85 578.02,128.89 571.86,148.27 565.48,163.85 557.62,179.00 547.80,193.57 535.87,207.63 520.85,221.58 507.09,231.77 491.42,242.00 473.99,252.42 455.53,263.24 436.54,275.33 416.65,287.89 394.52,298.78 371.52,309.12 348.46,320.30 325.58,331.59 302.98,342.92 280.98,354.24 260.23,365.28"
        fill="none"
        stroke="#e94560"
        stroke-width="8.0"
        stroke-linejoin="round"
        stroke-linecap="round"/>
  <!-- Start/finish line -->
  <line x1="269.70" y1="382.90" x2="250.77" y2="347.66"
        stroke="#f5f5f5" stroke-width="9.6"
        stroke-linecap="round"/>
</svg>
