<?xml version="1.0" encoding="utf-8"?>
<svg xmlns="http://www.w3.org/2000/svg"
     width="720.4" height="800.0"
     viewBox="0 0 720.4 800.0">
  <rect width="100%" height="100%" fill="#1a1a2e"/>
  <!-- Track outline -->
  <polyline points="206.21,721.90 305.58,741.43 438.57,759.24 485.75,760.00 508.74,756.61 545.11,746.32 562.26,738.91 594.31,719.81 608.82,707.75 647.13,663.94 657.72,647.10 672.46,611.26 675.09,602.59 676.88,592.56 680.35,493.58 671.01,412.90 663.54,382.18 653.76,353.58 625.37,297.71 613.47,280.14 593.78,258.39 568.70,234.91 497.53,185.35 256.39,56.14 229.54,46.31 209.52,41.46 199.26,40.00 190.15,40.03 181.25,41.40 172.71,44.12 164.89,48.20 157.64,53.55 151.43,59.66 146.23,66.84 143.74,71.79 141.79,77.13 140.45,82.61 139.79,87.93 139.72,93.34 140.38,98.69 142.25,104.74 145.08,110.61 148.34,115.76 153.82,121.41 160.03,125.83 166.11,129.31 174.57,132.90 361.35,195.88 414.82,219.00 517.30,272.87 530.73,282.20 536.51,287.58 541.80,293.60 546.38,299.94 550.41,306.78 553.67,313.59 556.25,321.06 558.32,330.70 559.17,340.83 558.34,350.59 556.07,359.86 553.70,365.64 550.71,371.02 547.25,375.80 543.11,380.09 538.49,383.74 533.63,386.70 528.46,389.06 523.05,390.75 517.55,391.71 509.02,391.78 500.46,390.35 492.82,387.96 483.87,383.71 411.53,336.11 398.92,325.22 374.60,300.54 361.56,289.84 348.67,281.51 339.31,277.72 330.18,275.86 320.76,275.46 311.45,276.72 302.40,279.65 293.78,284.03 286.00,289.34 279.07,295.92 275.39,300.64 272.17,305.85 269.66,311.40 268.05,316.95 267.09,322.76 266.86,328.57 267.50,334.35 268.88,340.10 270.77,345.58 274.89,353.78 280.11,361.25 286.69,368.36 294.05,374.57 301.58,379.66 311.45,384.70 425.43,427.02 519.12,460.53 537.89,469.00 555.38,479.93 563.27,486.34 570.63,493.48 577.19,501.16 583.08,509.49 588.05,518.13 592.23,527.33 595.46,536.80 597.85,546.59 600.06,566.12 599.34,585.49 595.80,603.72 592.97,612.16 589.47,620.03 585.24,627.27 580.36,633.75 574.93,639.50 568.77,644.38 560.07,649.23 550.68,652.65 544.40,653.88 538.03,654.34 531.79,653.98 525.86,652.82 520.04,650.89 514.58,648.13 509.77,644.74 505.27,640.59 501.24,635.91 496.64,628.44 492.50,619.53 480.67,586.85 465.74,558.49 455.41,545.40 443.14,533.54 382.63,493.08 331.60,467.58 322.86,464.32 315.20,462.43 307.17,461.43 299.16,461.43 291.34,462.29 283.63,464.09 276.22,466.68 269.11,470.17 262.79,474.29 256.87,479.50 252.82,484.12 248.98,489.43 245.97,495.14 244.06,500.72 242.81,506.67 242.33,512.62 242.70,518.43 243.85,524.24 245.60,529.65 248.18,534.84 251.44,539.55 255.15,543.70 259.63,547.52 264.60,550.68 269.80,553.24 277.99,555.79 287.31,557.49 326.36,562.27 334.22,564.16 341.22,566.86 349.92,571.67 358.08,577.58 363.65,582.80 368.48,588.91 371.77,594.39 374.72,600.57 376.81,606.98 377.80,613.22 378.05,619.70 377.48,625.94 375.98,631.92 373.66,637.67 370.83,642.88 367.29,647.80 363.17,652.15 358.70,655.84 353.67,658.89 348.24,661.22 342.67,662.98 333.72,664.54 324.49,665.07 305.12,664.44 218.96,651.85 201.49,648.00 184.54,641.56 176.51,637.27 168.82,632.22 161.71,626.44 155.09,619.93 149.15,612.86 143.81,605.15 135.46,588.51 129.27,570.71 125.18,552.14 122.81,532.91 122.32,513.31 123.38,493.45 126.33,473.62 130.95,453.89 144.39,414.86 180.69,325.28 182.42,316.78 182.83,309.67 182.60,301.97 181.52,294.39 179.54,287.02 176.55,279.88 171.26,271.34 164.82,263.57 157.73,256.99 150.02,251.88 144.43,249.35 138.57,247.56 132.72,246.66 126.95,246.66 121.17,247.49 115.58,249.15 110.36,251.61 105.32,254.83 100.65,258.69 94.67,265.33 89.49,273.04 85.60,280.04 81.92,290.51 58.41,421.21 40.12,554.83 40.00,576.72 46.90,620.60 50.26,631.86 54.26,641.72 59.28,651.69 65.08,660.95 71.93,669.56 79.46,677.26 96.25,690.28 114.84,700.45 134.63,707.82 206.21,721.90"
        fill="none"
        stroke="#e94560"
        stroke-width="8.0"
        stroke-linejoin="round"
        stroke-linecap="round"/>
  <!-- Start/finish line -->
  <line x1="210.07" y1="702.28" x2="202.35" y2="741.53"
        stroke="#f5f5f5" stroke-width="9.6"
        stroke-linecap="round"/>
</svg>
