<?xml version="1.0" encoding="utf-8"?>
<svg xmlns="http://www.w3.org/2000/svg"
     width="503.7" height="800.0"
     viewBox="0 0 503.7 800.0">
  <rect width="100%" height="100%" fill="#1a1a2e"/>
  <!-- Track outline -->
  <polyline points="160.94,366.09 126.97,424.39 117.18,435.26 108.89,442.05 105.07,444.38 101.52,445.85 97.66,447.24 93.32,448.22 83.96,448.98 74.40,448.67 69.18,447.60 64.51,445.99 60.20,444.02 56.15,441.60 52.60,438.74 49.37,435.43 46.56,431.72 44.14,427.57 41.99,422.91 40.46,417.95 40.00,412.68 40.16,407.40 40.65,402.62 41.57,398.01 42.87,393.76 44.60,389.83 46.49,386.30 49.30,382.81 62.65,372.97 79.16,363.22 93.06,356.65 104.68,351.02 108.40,348.29 111.37,345.47 114.18,342.34 116.69,338.86 118.81,335.10 120.61,331.08 123.15,322.22 130.59,283.32 132.00,278.23 133.92,273.71 141.07,262.35 151.12,250.24 168.12,237.54 185.55,223.50 197.82,206.06 209.08,183.93 230.13,126.97 248.66,75.32 253.36,66.34 257.90,59.90 263.97,53.37 270.04,48.09 273.66,45.50 277.19,43.53 281.10,41.88 285.15,40.76 289.29,40.13 293.47,40.00 297.78,40.40 302.12,41.30 306.62,42.77 311.09,44.69 315.60,46.80 320.43,50.10 331.49,61.24 343.21,76.93 355.84,101.30 366.70,129.47 381.49,193.01 401.33,355.44 412.36,421.48 411.87,500.58 414.90,580.35 429.72,621.44 446.07,656.31 461.83,706.43 463.43,716.90 463.69,725.48 463.17,730.31 462.09,734.60 460.53,738.76 458.54,742.65 456.02,746.32 453.09,749.67 449.56,752.94 445.68,755.62 441.17,757.54 436.54,758.79 432.17,759.64 427.86,760.00 423.68,759.87 419.60,759.24 415.65,758.08 411.80,756.42 408.25,754.50 404.43,751.64 394.77,742.43 385.24,730.31 379.63,718.64 375.45,704.96 371.08,680.81 368.89,653.45 373.16,590.23 377.83,567.65 381.62,548.51 382.01,542.07 381.91,536.39 381.13,531.48 379.85,528.03 378.09,525.13 376.20,522.49 374.31,520.21 372.22,518.24 370.03,516.59 367.68,515.34 365.20,514.40 362.62,513.81 358.35,513.59 353.94,514.13 350.71,514.71 347.42,515.65 344.05,517.57 338.80,522.89 333.42,530.27 328.68,538.36 323.53,552.80 319.25,565.59 316.90,569.39 314.46,572.21 311.39,574.89 308.03,577.08 304.11,578.92 299.93,580.26 296.73,581.15 293.37,581.78 290.18,581.69 287.21,580.48 284.33,578.56 281.66,576.41 278.20,573.42 275.16,570.02 272.72,566.40 270.76,562.42 269.32,558.53 268.41,553.61 267.79,537.20 269.65,516.01 293.44,437.98 346.63,285.69 352.80,260.25 355.28,239.28 354.17,224.35 351.01,211.38 346.99,202.17 341.84,194.26 335.01,186.34 328.03,180.04 324.05,177.27 320.20,175.21 316.12,173.42 311.91,172.08 307.57,171.19 303.16,170.74 300.13,170.51 297.09,170.47 293.93,171.14 289.10,172.53 284.14,175.34 278.56,179.99 271.12,188.04 261.36,200.70 172.76,345.79 160.94,366.09"
        fill="none"
        stroke="#e94560"
        stroke-width="8.0"
        stroke-linejoin="round"
        stroke-linecap="round"/>
  <!-- Start/finish line -->
  <line x1="178.22" y1="376.15" x2="143.66" y2="356.02"
        stroke="#f5f5f5" stroke-width="9.6"
        stroke-linecap="round"/>
</svg>
