<?xml version="1.0" encoding="utf-8"?>
<svg xmlns="http://www.w3.org/2000/svg"
     width="733.6" height="800.0"
     viewBox="0 0 733.6 800.0">
  <rect width="100%" height="100%" fill="#1a1a2e"/>
  <!-- Track outline -->
  <polyline points="663.14,197.25 674.55,231.68 689.56,305.59 693.30,343.45 693.58,383.66 686.66,463.20 679.04,500.12 667.44,537.47 652.67,570.95 634.01,603.27 612.08,632.36 588.00,658.02 557.00,683.68 528.15,701.74 461.05,732.88 422.99,746.26 382.83,755.47 340.42,759.93 298.38,760.00 259.57,757.15 224.65,751.74 157.78,733.68 124.12,719.21 93.44,699.76 78.76,688.07 65.25,674.54 53.89,659.70 45.19,643.03 41.96,632.07 40.05,620.44 40.00,609.19 41.50,600.56 44.21,591.86 47.86,583.82 52.20,576.95 58.19,570.81 65.39,566.06 73.20,562.47 81.01,559.77 91.99,557.72 103.36,557.65 115.00,558.75 133.89,562.62 154.32,569.56 186.12,585.14 222.17,602.17 273.55,618.47 328.26,630.46 385.82,636.67 436.69,637.48 457.31,635.65 475.03,631.41 492.10,624.68 508.23,614.96 518.61,606.41 528.48,596.32 536.80,585.28 542.46,575.27 546.99,564.52 549.75,553.34 550.41,542.08 549.42,530.38 547.23,519.27 541.10,503.26 532.69,488.64 521.98,474.60 509.82,462.32 497.20,452.23 480.69,442.22 391.99,402.52 303.01,362.53 272.81,341.26 259.90,330.51 248.40,318.09 241.81,308.58 236.01,298.13 232.13,286.94 230.68,275.83 230.82,264.14 232.69,253.10 235.68,244.40 239.98,235.92 245.27,228.32 251.11,222.03 259.06,216.62 268.22,212.89 277.95,210.70 287.49,209.75 300.35,210.92 313.39,214.65 325.92,219.76 342.66,229.34 358.51,241.18 386.57,267.72 486.82,371.60 501.03,383.52 513.94,391.92 531.24,400.77 549.28,406.76 558.22,408.52 567.29,409.54 576.22,409.32 584.68,407.20 591.18,404.06 597.77,399.74 603.99,394.48 609.37,388.49 613.34,381.76 616.05,373.57 617.60,364.22 618.02,354.64 617.46,345.50 614.70,333.73 609.93,322.40 604.13,311.73 591.55,294.99 577.20,280.44 549.75,259.46 425.19,185.26 392.83,162.81 380.02,151.19 368.75,137.89 362.11,128.16 356.22,117.56 352.53,106.23 351.59,97.39 351.73,87.81 353.04,78.60 355.52,70.56 360.20,63.10 366.65,56.89 374.08,51.70 381.61,47.53 393.25,43.44 405.79,41.46 418.18,40.44 435.34,40.00 452.59,41.24 490.00,48.11 529.37,63.39 559.52,79.18 588.00,99.80 615.07,125.02 639.11,154.41 652.25,175.46 663.14,197.25"
        fill="none"
        stroke="#e94560"
        stroke-width="8.0"
        stroke-linejoin="round"
        stroke-linecap="round"/>
  <!-- Start/finish line -->
  <line x1="681.73" y1="189.87" x2="644.55" y2="204.62"
        stroke="#f5f5f5" stroke-width="9.6"
        stroke-linecap="round"/>
</svg>
