<?xml version="1.0" encoding="utf-8"?>
<svg xmlns="http://www.w3.org/2000/svg"
     width="800.0" height="546.6"
     viewBox="0 0 800.0 546.6">
  <rect width="100%" height="100%" fill="#1a1a2e"/>
  <!-- Track outline -->
  <polyline points="518.06,417.34 468.13,386.52 446.22,368.64 431.22,351.46 428.63,347.33 421.25,328.37 412.83,293.88 402.99,258.80 396.75,246.12 388.35,235.13 358.13,208.71 324.17,184.41 306.11,172.89 290.13,165.06 282.81,162.75 275.94,161.44 269.46,161.05 264.31,161.39 259.47,162.36 254.75,163.98 250.34,166.10 246.06,168.85 241.52,172.70 229.02,188.60 216.41,205.43 208.83,213.16 201.49,219.05 194.68,223.00 187.42,225.78 177.31,227.98 166.61,228.63 156.16,227.43 145.33,224.47 131.09,218.50 115.45,210.25 66.03,179.07 59.00,173.33 53.57,167.62 48.85,161.23 45.01,154.19 42.20,146.81 40.45,138.69 40.00,127.90 41.12,116.90 43.73,107.29 47.66,98.34 52.90,89.72 59.71,81.48 73.10,69.35 88.33,58.22 102.74,49.56 116.23,43.27 124.06,40.92 131.01,40.00 136.24,40.37 140.67,41.44 142.89,42.33 144.83,43.46 146.74,44.77 148.53,46.31 150.23,48.06 151.76,50.05 153.04,52.25 154.08,54.61 154.83,56.89 155.30,59.25 155.47,61.60 155.38,63.98 154.98,66.42 154.34,68.83 153.55,71.16 152.18,73.75 141.71,84.70 130.11,97.27 126.05,104.78 123.59,111.33 123.00,113.87 122.77,116.22 122.65,119.08 122.81,121.96 123.28,124.58 124.04,127.06 125.14,129.39 126.50,131.54 128.21,133.58 130.17,135.39 132.53,137.17 135.04,138.61 137.45,139.53 139.89,140.10 142.34,140.44 144.80,140.50 147.29,140.29 149.76,139.81 151.98,139.24 154.77,138.03 177.05,122.14 203.06,104.47 213.59,99.99 223.34,97.76 234.30,97.19 245.80,98.42 260.35,102.03 276.01,107.87 319.97,131.36 554.79,288.46 561.86,294.12 566.21,298.75 569.04,303.28 571.04,307.68 572.04,310.25 572.61,312.92 572.63,316.11 572.26,319.65 571.67,322.71 570.85,324.99 569.81,326.93 568.51,328.89 567.00,330.70 565.23,332.45 563.29,334.02 561.07,335.36 558.75,336.43 556.44,337.19 554.08,337.66 551.69,337.85 549.29,337.74 547.01,337.45 544.38,336.67 536.61,332.51 527.09,326.25 498.35,303.83 495.79,302.39 493.67,301.53 491.28,300.80 488.84,300.33 486.37,300.12 483.86,300.19 481.29,300.53 478.71,301.16 475.99,301.97 473.41,303.23 471.39,305.17 469.66,307.47 468.29,309.65 467.17,311.92 466.40,314.23 465.91,316.64 465.70,318.94 465.89,321.56 467.13,326.33 469.19,332.01 471.57,336.98 474.41,341.02 478.75,345.05 524.53,375.97 578.07,406.58 594.86,413.28 609.58,416.82 624.07,418.57 639.30,418.18 663.16,412.73 686.36,407.34 698.81,407.03 710.10,408.44 721.27,411.37 731.49,415.62 738.42,419.78 744.49,424.78 749.75,430.46 754.13,436.93 757.29,444.03 759.33,451.23 760.00,456.36 759.82,461.52 758.35,468.85 755.92,475.84 753.40,480.34 750.22,484.30 744.69,489.48 737.95,494.19 727.92,499.22 717.01,503.10 706.29,505.56 695.59,506.61 685.95,506.16 675.88,504.25 661.19,499.38 644.56,492.05 586.65,459.68 518.06,417.34"
        fill="none"
        stroke="#e94560"
        stroke-width="8.0"
        stroke-linejoin="round"
        stroke-linecap="round"/>
  <!-- Start/finish line -->
  <line x1="507.55" y1="434.36" x2="528.56" y2="400.32"
        stroke="#f5f5f5" stroke-width="9.6"
        stroke-linecap="round"/>
</svg>
