<?xml version="1.0" encoding="utf-8"?>
<svg xmlns="http://www.w3.org/2000/svg"
     width="800.0" height="652.4"
     viewBox="0 0 800.0 652.4">
  <rect width="100%" height="100%" fill="#1a1a2e"/>
  <!-- Track outline -->
  <polyline points="687.22,455.98 747.15,499.86 751.83,503.53 755.68,506.95 758.30,509.56 759.67,512.56 760.00,515.81 759.39,518.80 757.27,524.29 728.81,596.39 726.44,601.33 723.85,605.17 720.45,608.42 716.38,610.49 711.61,611.88 707.04,612.39 701.13,611.29 696.45,609.60 692.49,607.20 672.45,593.27 668.05,589.77 664.84,586.86 661.86,582.98 660.69,578.63 660.71,573.86 661.72,570.02 663.31,566.69 671.06,556.02 674.18,551.75 676.66,546.94 677.72,542.22 678.08,537.54 676.85,533.27 675.35,529.22 672.76,525.22 668.99,520.53 664.51,515.81 657.31,509.18 649.37,502.47 639.73,495.17 630.08,488.80 620.30,483.28 612.52,479.86 603.41,476.65 595.49,474.20 588.91,472.94 583.70,473.02 579.46,473.99 576.56,475.51 573.58,477.96 571.63,480.66 569.85,483.70 568.37,487.88 567.14,492.22 566.22,498.42 564.97,503.82 563.30,508.30 560.29,512.73 557.53,516.06 554.21,518.59 550.08,520.57 546.18,521.67 542.03,521.88 536.73,520.70 532.13,519.06 527.06,516.44 344.29,411.55 339.39,408.26 335.90,405.35 333.37,401.80 332.31,398.00 332.53,393.91 333.76,389.02 335.96,380.96 337.10,373.45 337.30,365.90 336.85,360.12 335.54,355.18 333.03,349.95 329.33,345.90 326.43,343.62 322.39,341.17 318.68,339.78 315.14,338.85 309.56,337.96 302.35,337.46 272.94,335.90 266.86,334.76 260.76,333.03 255.29,330.75 249.39,326.83 245.85,323.24 242.81,318.94 240.88,314.84 239.74,309.91 239.85,305.22 240.83,301.13 242.28,297.92 245.15,294.59 248.24,291.93 252.90,289.40 258.11,287.59 267.09,285.01 276.53,281.76 284.31,278.64 288.52,275.94 292.12,272.10 294.76,268.05 297.08,263.45 298.30,258.22 297.97,253.45 296.10,248.39 293.34,244.25 289.44,239.61 285.62,236.58 280.99,233.75 270.99,228.14 266.89,226.28 263.57,225.14 259.89,224.72 255.41,224.89 251.56,226.03 246.51,228.94 149.29,279.27 145.67,280.71 141.43,281.55 136.86,281.64 132.54,280.96 128.61,279.44 123.59,276.70 117.32,272.44 50.06,224.97 45.55,220.96 42.26,216.32 40.64,211.89 40.00,207.13 40.22,201.34 41.48,195.48 43.51,189.83 46.24,184.59 50.48,178.35 56.72,170.50 61.77,165.90 66.09,162.57 70.52,159.78 74.28,158.48 78.33,158.52 82.73,159.15 86.24,160.50 89.34,162.44 91.59,165.14 116.60,199.78 120.08,203.29 123.95,205.61 129.06,207.17 134.05,208.01 139.20,207.97 145.00,207.63 151.55,205.77 163.45,202.06 173.35,198.05 181.43,194.13 186.70,191.09 190.96,186.96 193.72,183.50 195.45,180.71 197.09,177.42 198.01,174.09 198.35,170.59 197.68,167.59 195.67,164.68 192.50,161.73 187.14,157.89 110.58,101.73 105.34,97.26 100.90,92.66 97.03,87.17 94.49,80.97 93.74,73.92 94.24,65.91 96.44,59.62 99.45,53.08 102.60,48.69 106.62,44.85 110.77,42.32 115.48,40.80 120.92,40.00 127.38,40.72 133.74,42.36 140.90,45.32 146.42,48.19 151.61,51.52 161.67,58.99 191.33,81.39 204.23,92.15 219.28,106.03 270.99,151.43 278.18,157.63 291.86,168.22 368.60,223.12 373.26,227.04 377.83,231.30 380.59,235.39 382.20,239.61 382.65,242.90 382.06,246.24 380.98,249.40 379.36,252.02 376.60,256.28 371.03,263.92 368.10,268.52 365.59,272.65 363.47,277.80 362.80,282.10 362.97,286.70 364.11,291.22 366.82,296.45 370.36,302.27 416.85,371.47 420.86,376.11 425.77,381.68 433.24,388.98 447.71,400.83 459.11,409.10 474.63,418.85 488.65,427.24 496.09,431.08 502.73,432.64 508.55,432.31 512.99,430.24 516.89,427.46 520.48,423.87 523.35,419.44 525.31,414.76 525.78,410.54 525.08,406.61 521.79,402.43 516.80,398.38 508.22,391.80 478.23,368.85 474.07,365.01 470.67,360.20 468.67,355.52 468.11,349.65 469.17,344.34 471.45,338.51 474.69,333.20 478.45,328.39 483.30,324.67 488.32,322.69 493.39,321.59 500.08,322.31 505.91,324.08 512.37,327.59 520.51,333.11 539.19,346.53 687.22,455.98"
        fill="none"
        stroke="#e94560"
        stroke-width="8.0"
        stroke-linejoin="round"
        stroke-linecap="round"/>
  <!-- Start/finish line -->
  <line x1="699.09" y1="439.88" x2="675.35" y2="472.08"
        stroke="#f5f5f5" stroke-width="9.6"
        stroke-linecap="round"/>
</svg>
