<?xml version="1.0" encoding="utf-8"?>
<svg xmlns="http://www.w3.org/2000/svg"
     width="539.3" height="800.0"
     viewBox="0 0 539.3 800.0">
  <rect width="100%" height="100%" fill="#1a1a2e"/>
  <!-- Track outline -->
  <polyline points="259.71,222.99 256.77,218.38 242.24,189.06 213.62,148.94 165.95,69.12 159.90,61.79 154.26,56.48 147.98,51.28 140.78,46.90 116.42,40.00 109.12,40.00 101.92,41.21 94.92,43.75 88.26,47.39 81.67,52.32 75.72,57.92 71.23,63.00 67.29,68.37 60.17,80.78 54.30,93.99 48.81,109.95 43.40,134.28 40.00,160.92 41.15,217.66 60.96,338.46 69.59,365.96 73.29,373.75 77.56,380.48 80.75,384.57 84.25,388.36 88.15,391.53 92.57,393.95 97.40,395.77 102.32,396.96 107.38,397.50 112.56,397.39 117.57,396.55 122.37,394.94 126.99,392.60 131.13,389.68 134.75,386.10 137.87,381.95 140.37,377.45 142.18,372.57 143.33,367.38 143.87,362.04 143.46,354.04 141.70,344.78 125.13,290.78 123.01,281.92 122.04,274.28 122.04,268.97 122.55,263.66 123.72,258.66 125.58,254.08 128.06,249.75 131.02,245.97 134.34,242.88 138.12,240.25 142.16,238.35 146.44,237.19 150.96,236.73 155.46,236.93 159.98,237.89 164.45,239.56 168.71,241.75 174.91,246.37 180.56,252.03 185.48,258.14 190.69,266.17 227.28,334.79 234.05,351.24 239.28,368.99 242.29,387.29 242.55,396.75 241.89,406.22 240.23,415.66 237.60,424.92 233.82,434.21 229.45,442.78 222.20,453.98 204.84,475.13 175.07,505.58 157.93,528.61 151.07,541.51 141.34,569.19 138.40,583.85 137.36,609.73 138.71,641.53 153.87,722.60 159.03,737.23 161.97,744.39 165.75,750.85 168.15,753.54 170.85,755.99 173.82,758.04 176.93,759.39 180.38,760.00 184.13,759.94 187.88,759.37 191.38,758.41 195.59,756.51 199.50,753.82 202.97,750.77 205.83,747.42 208.23,743.69 210.30,739.65 212.83,732.44 214.59,724.68 216.40,707.10 211.63,627.34 211.60,608.95 212.93,590.28 216.23,571.67 222.00,553.95 229.58,537.96 237.77,523.96 246.53,511.58 255.60,501.31 261.70,496.20 268.31,491.70 274.82,488.03 281.59,485.44 286.13,484.63 290.78,484.46 295.25,484.97 299.46,486.30 303.49,488.32 307.07,490.89 310.18,494.09 312.84,497.85 314.86,501.94 316.26,506.71 317.00,511.81 317.03,516.98 316.24,522.43 314.68,527.92 312.64,532.97 309.21,538.85 305.00,544.11 299.74,548.96 293.97,553.40 281.74,561.77 276.51,565.95 271.71,570.69 268.26,575.01 265.07,579.86 262.72,584.94 261.44,590.28 260.98,595.88 261.37,601.25 262.57,606.12 264.53,610.80 267.14,614.93 270.33,618.39 274.13,621.33 278.32,623.61 283.17,625.17 288.43,625.95 293.79,626.18 302.60,625.32 311.23,623.38 317.54,621.48 324.76,618.25 396.25,571.70 477.12,520.44 483.70,514.84 488.30,509.68 492.54,503.53 495.86,496.92 498.05,490.17 499.23,483.27 499.28,476.46 498.28,469.80 496.19,463.42 493.10,457.44 489.04,451.96 484.16,447.08 478.39,442.90 472.03,439.38 457.89,433.69 425.97,424.26 409.79,416.78 394.06,406.91 379.89,393.98 349.50,358.05 291.16,272.37 259.71,222.99"
        fill="none"
        stroke="#e94560"
        stroke-width="8.0"
        stroke-linejoin="round"
        stroke-linecap="round"/>
  <!-- Start/finish line -->
  <line x1="242.84" y1="233.74" x2="276.58" y2="212.25"
        stroke="#f5f5f5" stroke-width="9.6"
        stroke-linecap="round"/>
</svg>
