<?xml version="1.0" encoding="utf-8"?>
<svg xmlns="http://www.w3.org/2000/svg"
     width="537.8" height="800.0"
     viewBox="0 0 537.8 800.0">
  <rect width="100%" height="100%" fill="#1a1a2e"/>
  <!-- Track outline -->
  <polyline points="233.66,510.39 224.86,513.39 154.85,540.35 111.98,558.34 92.14,570.40 76.43,582.99 64.82,594.75 55.24,607.64 47.74,621.84 42.50,636.40 40.36,647.57 40.00,658.89 41.79,673.39 45.77,687.93 52.43,702.24 60.78,714.98 68.78,723.90 77.97,731.46 91.50,739.95 106.97,747.16 127.35,753.95 148.44,758.46 166.05,760.00 183.88,759.38 205.78,756.36 228.48,750.47 252.71,740.59 278.83,726.52 374.25,660.44 477.09,592.40 486.36,583.49 492.36,575.40 494.71,571.02 496.44,566.61 497.49,562.17 497.85,558.09 497.64,553.99 496.78,549.98 494.71,545.20 491.75,540.48 488.22,536.28 483.75,532.36 478.65,529.06 473.49,526.56 469.02,525.08 464.55,524.25 459.78,524.06 453.45,524.68 446.71,526.19 439.89,528.57 428.25,534.40 415.79,543.41 368.78,595.15 339.83,623.78 325.76,634.06 311.10,642.66 295.07,650.16 278.42,655.99 261.62,659.82 243.54,662.01 187.50,661.36 170.83,659.51 156.40,656.39 149.64,654.11 143.51,651.40 138.10,647.94 133.83,644.18 130.16,639.83 127.40,635.07 126.15,631.46 125.30,627.55 124.95,623.66 125.07,620.05 125.87,616.31 127.30,612.86 129.29,609.62 132.76,605.70 137.18,602.12 141.93,599.16 147.36,596.75 153.26,595.09 159.26,594.19 168.53,594.66 178.74,596.69 197.38,602.80 216.51,608.42 228.86,609.40 240.48,608.32 247.91,606.72 255.26,604.19 263.54,599.96 293.03,576.17 325.50,547.17 380.58,504.13 431.59,468.40 443.03,456.59 451.84,444.12 458.48,430.48 463.05,415.83 465.40,400.37 465.65,384.51 463.74,368.16 459.81,352.05 454.29,337.15 445.99,320.71 380.12,222.13 284.04,69.22 275.97,58.97 268.77,52.13 262.80,47.93 256.46,44.44 250.23,41.94 245.03,40.62 239.92,40.00 234.86,40.06 229.94,40.77 225.08,42.13 220.51,44.10 216.40,46.60 212.57,49.69 209.18,53.24 206.27,57.12 203.79,61.47 201.80,66.35 200.09,73.20 199.07,80.79 198.86,88.07 199.88,96.62 202.39,104.92 206.96,114.57 214.44,125.46 251.18,163.08 294.48,205.93 345.60,269.09 365.31,300.87 371.21,313.52 375.73,326.17 378.92,339.09 380.76,352.21 381.14,365.01 380.02,378.12 376.39,394.94 371.08,411.20 365.64,423.08 359.26,433.78 351.96,443.84 343.40,453.35 331.07,464.45 316.82,474.88 298.21,485.71 277.61,495.40 233.66,510.39"
        fill="none"
        stroke="#e94560"
        stroke-width="8.0"
        stroke-linejoin="round"
        stroke-linecap="round"/>
  <!-- Start/finish line -->
  <line x1="240.12" y1="529.32" x2="227.21" y2="491.46"
        stroke="#f5f5f5" stroke-width="9.6"
        stroke-linecap="round"/>
</svg>
