<?xml version="1.0" encoding="utf-8"?>
<svg xmlns="http://www.w3.org/2000/svg"
     width="800.0" height="297.5"
     viewBox="0 0 800.0 297.5">
  <rect width="100%" height="100%" fill="#1a1a2e"/>
  <!-- Track outline -->
  <polyline points="437.72,254.13 285.62,247.52 262.80,244.87 244.53,240.32 230.47,233.08 217.95,224.68 208.81,217.41 199.70,211.03 192.12,207.76 184.05,205.46 175.69,204.72 165.57,206.36 155.04,209.94 145.36,213.90 135.44,219.27 126.26,224.06 117.61,226.24 109.59,227.29 104.75,227.83 99.89,227.68 91.24,225.42 82.31,221.76 75.43,217.99 68.86,212.97 60.76,204.45 53.33,193.99 47.35,181.77 42.92,168.93 40.88,159.05 40.00,149.24 40.03,139.01 41.09,128.78 43.18,118.47 46.52,108.12 53.07,94.12 60.83,81.28 67.23,73.34 74.01,66.77 81.69,60.66 89.90,55.48 98.54,51.05 108.30,47.28 126.10,42.14 150.64,40.00 200.76,42.37 364.97,56.77 374.62,58.44 378.61,59.84 382.31,61.71 385.37,63.93 388.03,66.61 390.13,69.65 391.81,73.11 392.69,75.68 393.36,78.44 393.62,81.20 393.08,85.25 391.94,89.14 390.54,92.64 388.78,95.83 386.63,98.75 384.17,101.28 381.28,103.57 378.12,105.52 374.75,107.19 370.61,108.51 358.63,110.73 342.51,111.35 298.41,103.26 256.90,94.89 250.27,94.62 241.89,94.74 235.81,97.00 230.76,101.39 228.56,104.50 227.52,106.61 226.70,108.90 226.15,111.27 225.89,115.09 226.20,119.05 227.16,123.61 228.71,127.77 230.76,130.77 233.19,133.29 235.96,135.74 238.96,137.85 242.02,139.75 246.05,141.35 269.66,144.77 300.76,146.33 339.01,145.47 374.96,141.66 393.03,137.26 408.29,131.27 418.59,125.55 428.89,117.77 449.60,96.33 470.48,75.56 481.15,68.95 491.81,64.90 506.56,61.67 525.01,60.15 653.40,63.81 673.92,66.30 690.51,70.11 702.91,74.70 714.14,80.73 724.16,87.97 733.27,96.68 741.08,106.64 747.81,117.93 753.30,130.57 757.33,143.49 759.22,152.71 760.00,162.16 759.46,175.47 757.26,189.01 753.04,201.88 747.66,213.24 743.13,220.52 737.80,226.86 728.74,235.07 718.36,242.23 707.26,247.67 694.65,251.68 673.87,255.42 646.75,257.48 441.65,254.29 437.72,254.13"
        fill="none"
        stroke="#e94560"
        stroke-width="8.0"
        stroke-linejoin="round"
        stroke-linecap="round"/>
  <!-- Start/finish line -->
  <line x1="436.85" y1="274.11" x2="438.59" y2="234.15"
        stroke="#f5f5f5" stroke-width="9.6"
        stroke-linecap="round"/>
</svg>
