<?xml version="1.0" encoding="utf-8"?>
<svg xmlns="http://www.w3.org/2000/svg"
     width="596.2" height="800.0"
     viewBox="0 0 596.2 800.0">
  <rect width="100%" height="100%" fill="#1a1a2e"/>
  <!-- Track outline -->
  <polyline points="331.63,318.52 527.95,591.62 539.53,613.14 547.96,635.27 552.53,653.05 555.59,671.38 556.23,685.15 555.24,698.17 552.69,710.58 548.63,722.12 543.70,731.19 537.22,739.29 530.86,744.96 523.42,750.13 515.62,754.28 507.67,757.21 499.31,759.14 490.92,760.00 482.37,759.65 473.78,758.18 466.02,756.00 457.99,752.45 451.03,748.15 440.73,739.95 431.78,730.17 424.90,719.84 421.99,714.22 419.17,706.98 411.69,671.43 403.02,633.86 397.61,621.75 391.33,611.83 383.29,601.75 374.18,592.33 353.22,574.91 297.82,534.45 289.27,524.63 283.46,515.71 280.63,510.45 278.49,504.27 274.31,478.34 269.70,450.44 265.72,438.64 260.67,428.51 253.71,418.48 245.43,409.17 225.19,392.30 163.22,344.80 144.88,325.56 128.50,303.63 114.02,279.17 77.07,201.95 60.52,176.47 51.46,154.24 44.41,128.57 41.23,110.29 40.00,91.65 40.91,81.07 42.90,70.89 46.01,61.98 49.47,55.95 53.64,50.74 58.30,46.53 61.68,44.25 65.26,42.43 69.08,41.06 73.01,40.25 77.87,40.00 83.08,40.41 88.21,41.47 92.74,43.24 97.75,46.99 102.09,51.85 105.43,56.26 107.38,59.19 108.85,62.28 113.66,76.82 116.80,92.31 121.58,108.82 131.80,124.62 142.90,137.43 152.68,145.43 212.38,188.88 268.46,242.97 331.63,318.52"
        fill="none"
        stroke="#e94560"
        stroke-width="8.0"
        stroke-linejoin="round"
        stroke-linecap="round"/>
  <!-- Start/finish line -->
  <line x1="347.67" y1="306.58" x2="315.58" y2="330.46"
        stroke="#f5f5f5" stroke-width="9.6"
        stroke-linecap="round"/>
</svg>
