<?xml version="1.0" encoding="utf-8"?>
<svg xmlns="http://www.w3.org/2000/svg"
     width="552.7" height="800.0"
     viewBox="0 0 552.7 800.0">
  <rect width="100%" height="100%" fill="#1a1a2e"/>
  <!-- Track outline -->
  <polyline points="397.21,326.50 343.93,443.30 336.87,469.17 332.87,494.76 333.18,544.61 351.03,640.23 352.66,662.77 351.17,684.36 346.38,704.46 342.92,713.65 338.50,722.38 331.58,732.60 323.36,741.75 317.20,746.98 310.59,751.39 303.69,754.69 289.79,758.60 276.00,760.00 267.02,758.60 256.33,754.48 248.39,748.59 239.44,738.95 229.14,725.35 174.15,664.01 157.32,651.27 139.68,641.43 108.75,629.93 77.99,617.62 68.48,611.56 60.88,604.93 53.82,597.10 47.88,588.12 43.77,578.64 41.04,568.46 40.00,557.88 40.25,547.00 44.25,524.05 64.31,459.49 145.70,265.11 152.17,252.92 158.03,244.39 165.57,235.74 173.84,228.53 179.64,224.49 185.72,221.15 192.08,218.81 197.74,217.65 203.70,217.12 209.64,217.36 215.18,218.48 219.86,220.29 224.36,222.80 228.52,225.89 232.15,229.56 235.76,234.71 238.68,240.68 240.88,246.99 242.57,256.83 243.04,267.01 242.76,276.81 241.58,286.45 236.21,305.61 227.93,324.40 162.28,436.13 153.52,456.73 148.04,473.91 145.87,483.51 144.77,492.82 144.29,504.98 145.08,517.34 147.39,528.95 151.10,539.75 156.59,549.55 163.32,557.96 171.31,564.84 180.06,570.03 189.43,573.70 199.06,575.72 205.47,576.25 211.89,576.04 218.22,574.64 224.84,571.76 231.37,567.64 237.08,562.41 241.52,556.27 245.30,549.18 248.28,541.85 250.70,532.50 252.36,522.07 257.17,482.60 262.12,463.82 311.99,349.41 359.52,233.68 361.38,222.02 361.13,212.75 359.64,201.79 356.65,191.20 353.67,184.16 350.01,177.48 345.68,171.55 337.40,164.05 326.88,157.42 298.51,144.73 271.10,131.30 265.16,126.40 260.52,121.41 256.72,115.72 253.74,109.63 251.43,102.99 250.08,96.20 249.74,89.44 250.28,82.56 251.66,76.13 254.05,70.03 257.34,64.43 261.36,59.53 267.27,54.67 274.23,50.88 281.40,48.20 292.52,46.76 304.70,47.25 344.16,52.28 365.10,52.20 398.78,45.85 433.00,40.00 445.89,40.12 457.09,42.02 468.41,45.56 479.13,50.84 488.64,57.47 497.14,65.67 501.75,71.56 505.83,78.07 509.01,85.07 511.10,92.12 512.39,99.57 512.73,106.99 511.21,118.16 507.92,128.95 496.46,149.51 428.02,258.89 397.21,326.50"
        fill="none"
        stroke="#e94560"
        stroke-width="8.0"
        stroke-linejoin="round"
        stroke-linecap="round"/>
  <!-- Start/finish line -->
  <line x1="415.40" y1="334.80" x2="379.01" y2="318.20"
        stroke="#f5f5f5" stroke-width="9.6"
        stroke-linecap="round"/>
</svg>
