<?xml version="1.0" encoding="utf-8"?>
<svg xmlns="http://www.w3.org/2000/svg"
     width="800.0" height="434.3"
     viewBox="0 0 800.0 434.3">
  <rect width="100%" height="100%" fill="#1a1a2e"/>
  <!-- Track outline -->
  <polyline points="106.58,393.74 126.22,390.75 456.65,323.24 468.90,318.03 476.75,312.62 481.04,308.68 484.66,304.38 487.60,299.64 490.01,294.22 491.71,288.38 492.46,282.57 492.16,277.19 490.99,271.88 489.00,266.67 483.19,257.88 476.47,250.45 469.11,244.65 454.71,235.54 439.51,224.66 431.69,216.08 425.93,207.07 423.26,201.34 421.35,195.39 420.35,189.55 420.35,184.10 421.16,178.72 422.68,173.72 424.73,169.47 427.42,165.60 430.80,162.25 435.87,159.05 441.87,156.55 447.92,154.97 453.43,154.48 458.96,154.80 464.45,155.64 472.76,157.93 480.93,161.23 497.71,170.52 584.96,234.62 590.28,237.65 595.18,239.62 608.46,243.24 621.51,245.49 625.79,245.53 629.83,244.89 637.95,242.64 645.96,239.69 653.71,235.36 667.25,225.86 684.22,215.90 706.52,210.73 725.96,207.14 730.70,205.35 734.62,202.99 741.56,196.84 747.95,189.17 752.32,181.71 755.59,173.65 758.02,164.29 759.46,154.76 760.00,138.79 759.56,130.66 758.13,121.51 752.09,99.35 743.12,76.90 734.76,64.52 725.75,54.85 718.96,49.43 712.40,45.52 708.10,43.52 703.43,42.11 696.87,40.84 689.29,40.00 682.33,40.18 677.47,41.44 673.04,43.34 669.23,45.56 666.80,47.32 664.80,49.25 663.00,51.50 660.34,56.64 658.47,61.99 657.68,64.91 657.23,68.36 657.42,89.01 657.16,111.38 655.76,118.77 653.45,125.00 650.88,129.85 647.71,134.57 644.18,138.58 640.94,141.36 637.44,143.61 633.65,145.19 629.01,146.07 624.04,146.18 619.46,145.72 616.19,144.91 613.23,143.71 610.36,142.13 606.18,138.93 601.79,134.53 580.08,108.85 561.77,93.33 545.20,81.51 537.66,78.03 520.52,72.26 501.70,68.71 482.54,68.18 420.51,78.21 401.34,84.22 384.95,91.61 369.08,100.79 359.37,108.85 351.36,117.79 344.52,128.16 339.22,138.82 336.25,146.99 334.25,155.11 332.03,172.81 330.33,196.31 327.36,218.82 325.63,223.86 323.60,227.87 321.06,231.63 317.58,235.89 313.52,239.86 309.27,243.03 305.49,245.00 301.54,246.37 297.62,247.15 294.07,247.32 290.52,246.97 287.07,246.23 282.00,244.47 277.17,241.94 272.69,238.67 268.39,234.62 263.14,228.32 257.70,220.37 238.72,185.68 228.91,172.49 219.32,162.99 209.54,154.76 205.08,151.77 200.62,149.38 185.79,143.26 178.00,140.83 169.17,139.10 151.47,138.12 132.89,139.42 123.76,141.53 115.24,144.52 107.56,148.32 101.49,152.37 96.10,157.08 91.59,162.22 88.26,167.50 85.71,173.16 84.01,178.58 83.31,182.52 83.17,186.28 83.56,190.33 86.13,199.48 90.59,209.43 100.42,224.03 109.62,237.96 112.16,244.75 113.35,250.98 113.73,254.85 113.68,258.61 113.00,262.48 111.13,267.44 108.33,272.51 104.95,277.15 98.64,282.99 91.38,288.17 74.41,298.47 63.16,306.88 53.12,316.10 47.87,322.89 44.06,330.10 42.01,335.87 40.56,341.99 40.00,348.15 40.51,354.38 41.89,360.64 43.81,366.30 45.67,370.35 47.94,373.97 50.83,377.42 55.83,381.99 61.87,386.32 68.06,389.77 76.09,392.48 84.61,393.85 95.47,394.31 106.58,393.74"
        fill="none"
        stroke="#e94560"
        stroke-width="8.0"
        stroke-linejoin="round"
        stroke-linecap="round"/>
  <!-- Start/finish line -->
  <line x1="104.29" y1="373.88" x2="108.88" y2="413.61"
        stroke="#f5f5f5" stroke-width="9.6"
        stroke-linecap="round"/>
</svg>
