<?xml version="1.0" encoding="utf-8"?>
<svg xmlns="http://www.w3.org/2000/svg"
     width="800.0" height="648.3"
     viewBox="0 0 800.0 648.3">
  <rect width="100%" height="100%" fill="#1a1a2e"/>
  <!-- Track outline -->
  <polyline points="735.12,381.82 749.05,272.94 760.00,192.91 757.85,173.16 752.96,156.03 744.35,138.37 733.36,123.00 719.87,109.44 704.02,98.45 681.65,87.73 651.53,79.44 334.24,53.42 116.55,40.00 100.52,41.69 88.27,45.19 76.30,50.72 65.23,58.34 55.30,67.98 47.28,78.30 44.15,83.96 42.03,89.76 40.67,95.89 40.00,102.30 40.20,109.04 41.13,115.85 42.15,121.04 43.52,126.16 45.48,130.55 48.76,134.05 52.75,136.55 56.86,138.77 62.77,141.87 68.79,144.37 74.93,146.12 81.19,147.20 87.65,147.60 94.14,147.40 100.20,145.99 116.63,145.31 138.69,149.22 159.97,155.56 185.24,163.45 220.72,171.34 256.99,172.15 294.03,161.09 341.36,148.48 428.09,140.59 535.39,139.99 567.15,139.65 593.44,141.81 614.29,146.59 632.67,153.27 644.52,158.80 655.05,165.88 664.79,175.52 672.92,186.03 676.64,192.10 679.89,199.25 686.69,216.10 692.87,238.42 697.45,282.72 698.51,334.16 690.10,456.19 687.63,470.96 684.23,482.69 678.01,495.77 671.09,506.89 666.70,512.96 661.78,518.15 650.78,526.38 639.28,532.92 633.10,535.28 627.27,536.56 621.05,537.43 614.80,537.63 608.30,537.50 601.81,536.22 595.20,532.85 588.98,528.26 584.05,523.88 579.75,518.82 576.54,513.70 574.07,507.97 572.63,502.04 572.00,495.70 572.16,489.70 573.53,481.95 602.43,402.99 633.73,315.15 637.99,292.96 639.05,276.31 638.23,269.30 636.51,263.50 633.88,257.57 630.60,252.24 626.26,247.05 621.33,242.53 617.34,239.30 613.11,236.40 608.69,234.31 603.76,233.30 598.68,233.16 593.63,233.36 586.63,234.04 579.82,235.45 573.41,237.61 567.23,240.51 561.44,244.15 555.92,248.60 550.88,253.12 545.83,259.73 535.70,280.96 525.76,311.71 512.11,386.75 503.58,465.22 501.86,502.58 504.72,533.52 509.92,548.56 517.20,561.43 525.45,572.15 534.76,580.78 545.17,587.05 556.98,592.52 577.36,599.80 600.56,605.46 623.28,608.29 644.41,607.75 665.14,604.85 681.18,600.61 688.34,596.97 694.01,592.65 699.41,588.20 704.41,583.21 708.64,578.02 712.39,572.29 715.33,567.37 717.99,559.95 725.11,492.80 732.11,405.35 735.12,381.82"
        fill="none"
        stroke="#e94560"
        stroke-width="8.0"
        stroke-linejoin="round"
        stroke-linecap="round"/>
  <!-- Start/finish line -->
  <line x1="715.28" y1="379.29" x2="754.96" y2="384.36"
        stroke="#f5f5f5" stroke-width="9.6"
        stroke-linecap="round"/>
</svg>
