<?xml version="1.0" encoding="utf-8"?>
<svg xmlns="http://www.w3.org/2000/svg"
     width="444.4" height="800.0"
     viewBox="0 0 444.4 800.0">
  <rect width="100%" height="100%" fill="#1a1a2e"/>
  <!-- Track outline -->
  <polyline points="376.15,324.11 371.85,337.80 364.26,354.86 354.60,370.65 343.22,385.03 301.66,426.00 262.31,466.44 259.79,469.81 258.12,472.97 256.39,477.03 254.88,481.70 254.06,486.45 254.19,491.49 255.07,496.59 256.37,501.18 257.53,504.18 258.97,506.83 260.93,509.38 264.72,513.01 269.39,516.49 273.96,519.06 277.01,520.12 279.98,520.68 283.03,520.89 288.50,520.65 293.78,519.57 297.34,518.03 301.10,515.67 312.57,506.72 323.84,498.26 327.11,496.83 330.00,496.00 332.92,495.31 336.21,494.97 340.75,495.02 345.97,495.55 350.86,496.69 354.81,498.47 358.50,500.75 361.82,503.35 365.80,507.55 369.03,511.92 370.86,514.82 372.43,518.03 374.98,524.74 377.21,532.38 379.75,548.44 381.03,565.82 402.47,657.26 404.09,672.06 404.38,693.03 402.63,710.88 400.61,718.66 397.66,725.82 395.99,728.90 393.76,732.01 388.30,737.71 381.64,742.83 377.58,744.85 373.33,746.25 369.03,747.08 364.76,747.26 360.46,746.89 356.30,745.99 352.34,744.50 348.52,742.54 345.07,740.26 340.93,736.54 337.56,732.62 335.65,729.83 334.11,727.02 331.65,720.78 330.77,717.65 330.16,714.15 329.87,707.86 330.19,700.03 335.31,661.79 335.33,658.00 334.83,654.58 333.48,649.30 331.43,643.30 328.86,637.99 326.26,634.46 323.29,631.44 320.02,628.81 316.55,626.58 312.78,624.75 308.91,623.40 304.87,622.60 300.73,622.28 296.70,622.42 291.18,623.53 286.35,625.20 283.91,626.32 281.68,627.78 279.24,629.87 276.75,632.53 274.54,635.50 272.53,639.35 270.91,643.62 269.87,647.84 269.53,653.30 269.95,658.34 270.46,661.53 271.38,664.71 273.77,670.39 277.17,676.87 291.15,697.93 295.74,707.25 297.02,710.88 297.92,714.68 298.64,720.49 298.58,726.75 297.12,733.78 294.76,740.31 292.61,744.45 289.77,748.09 286.64,750.98 282.95,753.71 279.05,755.99 272.58,758.38 266.34,759.73 262.89,760.00 259.68,759.84 256.31,759.44 252.84,758.73 243.97,755.65 235.62,751.19 229.80,746.52 224.79,741.16 215.79,728.37 207.91,713.70 200.48,697.75 186.10,669.86 155.72,603.84 147.02,592.33 137.04,582.22 91.13,543.93 80.55,533.07 71.13,521.61 62.95,509.54 55.87,496.72 49.95,483.11 45.39,468.81 42.49,453.87 40.74,438.58 40.00,407.03 42.34,374.55 45.39,358.31 50.24,342.37 56.64,327.35 63.78,314.08 71.68,302.30 84.10,287.12 93.12,278.12 102.44,270.19 109.07,265.87 115.07,262.79 118.49,261.41 121.70,260.51 124.91,259.82 128.47,259.50 135.98,259.92 143.83,261.51 147.86,263.27 151.58,265.49 154.76,267.94 157.76,271.04 160.12,274.49 162.14,278.31 163.57,282.61 164.26,286.78 164.50,291.34 164.16,295.85 162.11,302.64 159.25,308.61 157.34,311.61 155.27,314.19 149.96,319.68 134.78,331.38 118.57,344.54 112.55,351.47 108.22,357.76 104.29,365.40 101.64,373.28 100.15,381.43 99.92,389.65 100.95,397.85 101.91,401.78 103.37,405.92 107.16,413.53 111.62,420.80 114.22,424.23 117.19,427.28 123.61,432.53 130.48,437.20 134.36,439.19 138.07,440.65 141.87,441.98 146.11,442.99 154.55,443.81 163.12,443.89 167.53,443.52 171.91,442.67 180.42,440.20 188.83,437.04 197.46,432.32 228.77,407.85 256.87,377.63 260.77,372.11 263.77,366.75 267.75,357.89 270.83,349.48 272.15,343.32 272.92,334.86 272.92,325.20 271.57,316.18 269.16,307.15 265.20,296.86 260.66,287.60 258.22,283.35 254.85,278.87 201.97,225.40 192.42,214.23 184.01,201.97 176.92,188.76 171.69,174.66 168.32,160.42 167.16,146.17 168.11,132.16 171.03,118.41 175.67,104.93 182.02,91.96 190.11,79.83 199.85,68.92 210.96,59.45 223.54,51.78 237.34,45.89 252.07,41.83 267.48,40.00 283.03,40.66 298.34,43.79 312.91,49.47 326.50,57.30 338.73,67.54 349.77,79.32 359.53,92.46 367.68,106.97 374.08,122.71 378.64,139.19 381.93,156.17 383.97,173.68 384.85,264.59 383.73,283.19 381.29,301.66 377.45,319.94 376.15,324.11"
        fill="none"
        stroke="#e94560"
        stroke-width="8.0"
        stroke-linejoin="round"
        stroke-linecap="round"/>
  <!-- Start/finish line -->
  <line x1="395.23" y1="330.09" x2="357.06" y2="318.13"
        stroke="#f5f5f5" stroke-width="9.6"
        stroke-linecap="round"/>
</svg>
