<?xml version="1.0" encoding="utf-8"?>
<svg xmlns="http://www.w3.org/2000/svg"
     width="733.2" height="800.0"
     viewBox="0 0 733.2 800.0">
  <rect width="100%" height="100%" fill="#1a1a2e"/>
  <!-- Track outline -->
  <polyline points="367.23,293.26 426.46,361.46 491.74,434.26 504.76,452.03 509.20,460.95 512.48,470.12 514.50,478.68 515.06,487.38 514.23,494.27 512.41,501.27 509.60,507.65 505.56,513.27 500.45,518.20 494.82,522.19 488.27,525.16 481.08,527.08 474.09,528.24 465.24,528.61 456.63,527.66 447.79,525.49 439.24,521.97 431.13,516.89 423.64,510.62 416.92,503.37 410.95,495.25 401.25,476.97 392.64,457.32 387.50,448.26 381.64,439.92 374.88,432.78 367.43,426.79 362.46,423.64 357.23,421.03 351.66,419.22 344.64,418.09 337.19,417.98 330.03,419.07 325.06,420.74 320.19,423.10 315.66,426.07 311.71,429.51 307.41,435.02 303.93,441.48 301.48,447.97 300.25,453.62 299.86,459.32 299.99,465.05 301.12,473.86 303.53,482.49 307.44,490.79 312.38,498.66 324.77,513.74 354.74,543.47 372.86,557.21 393.40,568.81 404.63,573.24 416.29,576.39 427.35,577.70 440.60,577.95 536.66,575.01 555.04,577.01 573.23,580.82 590.85,586.73 607.54,594.59 651.80,624.51 661.54,632.85 669.59,641.22 676.91,650.29 683.13,660.00 687.80,669.97 691.12,680.34 692.90,690.53 693.24,700.76 691.98,710.58 689.33,720.01 685.39,728.85 680.18,736.83 673.46,743.79 665.71,749.56 657.23,754.20 648.15,757.53 638.45,759.31 628.45,760.00 607.48,759.71 596.88,758.11 586.34,754.89 574.29,747.93 563.32,739.70 556.60,734.08 550.94,728.09 546.13,721.02 542.16,713.34 536.53,696.66 529.17,680.71 524.30,673.31 518.64,666.56 511.92,660.65 504.50,655.72 496.25,651.81 487.50,648.76 468.42,644.34 403.83,635.64 391.74,632.19 381.37,627.99 360.18,616.09 333.38,595.65 259.15,520.85 227.32,486.80 215.09,470.34 210.55,461.93 206.98,453.26 204.53,444.81 203.27,436.00 203.30,428.86 204.13,421.43 205.88,414.43 208.67,408.09 212.38,402.14 216.78,396.88 225.23,390.50 234.47,385.50 250.34,378.75 265.97,370.09 272.56,364.94 278.36,358.78 282.04,353.23 285.18,347.03 287.24,340.68 287.93,336.15 288.10,331.47 287.70,326.91 286.71,322.63 285.12,318.64 282.93,314.80 280.25,311.35 277.13,308.45 272.89,305.91 267.93,304.03 262.66,302.76 257.59,302.14 251.43,302.43 245.30,303.74 239.27,305.77 230.30,310.37 221.12,316.54 193.26,338.58 185.15,343.51 177.27,347.14 168.59,349.82 159.68,351.42 150.50,351.96 141.36,351.27 132.38,349.13 123.77,345.61 115.72,340.68 108.24,334.59 101.18,327.49 94.65,319.62 82.76,302.03 53.45,238.29 48.31,222.48 42.88,198.34 40.26,174.55 40.00,151.64 41.52,129.56 44.87,108.56 50.43,89.02 57.99,71.40 62.59,63.71 68.12,56.68 73.22,51.75 79.02,47.25 85.08,43.73 91.18,41.49 97.57,40.18 103.80,40.00 108.20,40.58 112.64,41.78 116.85,43.48 120.59,45.76 123.80,48.56 126.69,51.96 129.17,55.74 131.09,59.69 132.81,65.45 133.61,71.69 133.57,77.93 131.42,87.79 127.91,97.29 120.59,112.30 114.56,129.23 110.79,148.48 108.50,168.39 109.53,189.56 112.84,210.08 115.56,219.40 119.13,228.18 123.41,235.94 128.77,243.01 133.84,248.12 139.67,252.83 145.83,256.49 152.22,258.85 158.98,260.16 165.57,260.30 171.80,259.18 177.89,256.93 183.39,253.77 188.23,249.79 192.50,244.96 195.85,239.60 197.67,235.32 199.06,230.68 199.86,225.93 199.96,221.21 198.83,214.69 196.44,208.20 193.30,202.18 186.44,194.57 179.15,187.24 175.11,181.88 171.44,176.29 168.98,170.38 168.16,165.85 167.92,161.06 168.32,156.28 169.35,151.85 171.07,147.65 173.52,143.59 176.44,139.89 179.72,136.70 183.56,133.94 187.90,131.70 192.50,129.99 197.14,128.94 203.63,128.61 210.32,129.41 216.72,131.22 225.73,136.26 233.94,142.61 246.43,154.21 367.23,293.26"
        fill="none"
        stroke="#e94560"
        stroke-width="8.0"
        stroke-linejoin="round"
        stroke-linecap="round"/>
  <!-- Start/finish line -->
  <line x1="382.33" y1="280.14" x2="352.13" y2="306.37"
        stroke="#f5f5f5" stroke-width="9.6"
        stroke-linecap="round"/>
</svg>
