<?xml version="1.0" encoding="utf-8"?>
<svg xmlns="http://www.w3.org/2000/svg"
     width="800.0" height="586.5"
     viewBox="0 0 800.0 586.5">
  <rect width="100%" height="100%" fill="#1a1a2e"/>
  <!-- Track outline -->
  <polyline points="453.10,97.68 478.04,102.94 542.09,121.14 614.69,153.84 660.09,183.99 675.85,197.11 690.00,211.31 702.03,225.73 713.39,243.19 729.73,277.85 743.99,315.16 756.84,362.29 759.55,385.62 760.00,408.03 758.73,424.23 755.60,439.74 748.67,459.24 739.46,477.87 728.66,494.51 716.37,509.15 702.14,522.14 686.90,532.60 671.31,540.16 655.39,544.90 644.96,546.33 634.50,546.55 624.27,545.46 614.58,543.20 605.05,539.81 596.06,535.21 587.81,529.48 580.00,522.66 573.74,515.84 570.78,511.80 568.47,507.71 566.59,503.02 564.73,496.38 563.46,488.86 563.12,481.00 565.18,466.62 570.22,450.47 589.86,413.50 609.22,375.71 613.85,357.91 615.23,340.53 612.69,317.25 607.03,294.14 599.78,274.03 590.82,256.61 581.72,244.41 570.95,234.46 555.00,224.08 534.09,215.26 382.89,184.99 282.11,162.49 262.84,161.75 246.10,163.66 229.55,167.87 213.86,174.74 199.68,184.16 187.34,195.54 179.64,205.36 173.78,216.26 171.13,223.73 169.24,231.68 168.31,239.72 168.93,251.40 171.50,263.30 177.61,279.29 185.70,294.14 193.62,304.61 202.84,313.34 217.52,322.94 233.30,330.24 246.35,334.32 259.85,336.27 277.49,336.27 297.28,333.15 330.81,320.59 365.56,306.17 416.01,291.97 431.85,289.93 445.66,289.89 453.80,290.97 461.97,293.66 479.28,303.22 496.44,315.47 505.88,323.81 513.74,333.06 520.08,343.61 524.93,355.39 527.92,367.77 529.10,381.14 527.81,398.04 523.92,415.89 515.01,439.87 503.46,462.54 491.73,479.79 479.76,493.38 474.23,498.29 468.85,502.07 463.33,504.98 457.69,507.06 451.94,508.32 445.88,508.67 438.24,507.84 430.21,505.76 422.43,502.63 412.12,496.29 401.38,486.95 380.53,461.41 359.19,436.00 346.85,426.66 334.79,420.50 321.43,415.80 307.53,413.29 293.10,412.81 276.84,415.28 240.57,429.62 203.09,446.34 181.70,454.25 162.37,459.46 146.30,460.98 130.86,459.98 115.98,456.68 101.66,450.99 88.50,443.13 76.19,433.18 64.97,421.67 55.33,408.81 49.27,397.95 44.76,385.75 41.32,368.76 40.00,348.44 49.67,262.39 66.74,140.64 73.11,119.05 80.50,102.07 88.73,88.21 97.58,76.79 104.82,69.23 112.79,62.93 125.65,55.51 140.41,49.34 161.10,43.52 181.25,40.22 191.11,40.00 202.70,41.48 430.52,92.95 453.10,97.68"
        fill="none"
        stroke="#e94560"
        stroke-width="8.0"
        stroke-linejoin="round"
        stroke-linecap="round"/>
  <!-- Start/finish line -->
  <line x1="457.21" y1="78.11" x2="448.98" y2="117.25"
        stroke="#f5f5f5" stroke-width="9.6"
        stroke-linecap="round"/>
</svg>
