<?xml version="1.0" encoding="utf-8"?>
<svg xmlns="http://www.w3.org/2000/svg"
     width="800.0" height="663.2"
     viewBox="0 0 800.0 663.2">
  <rect width="100%" height="100%" fill="#1a1a2e"/>
  <!-- Track outline -->
  <polyline points="299.03,150.84 187.71,218.43 90.62,276.85 78.00,285.42 68.76,293.33 59.89,302.10 52.19,311.93 46.36,321.91 42.14,333.10 40.03,347.01 40.00,361.22 41.71,372.77 45.06,383.81 51.32,396.96 59.18,408.91 67.62,417.88 76.99,425.29 88.18,432.14 100.09,437.94 126.71,447.62 151.35,459.87 173.55,475.09 183.36,483.81 192.33,493.59 199.53,503.46 206.16,515.36 214.86,539.30 223.20,563.34 228.72,575.14 234.71,585.02 242.45,594.44 251.09,602.51 260.56,609.36 270.87,614.81 284.30,619.44 298.46,622.27 312.45,623.17 326.45,622.32 340.17,619.75 353.67,615.61 379.31,603.37 457.65,559.16 530.74,508.86 537.10,500.94 541.18,493.64 544.16,485.77 546.54,477.20 547.98,468.13 548.01,459.46 546.94,453.51 545.03,447.72 542.49,442.32 539.47,437.64 533.75,432.14 526.85,428.06 519.69,424.73 513.73,423.22 507.37,422.62 501.34,421.56 496.52,418.58 493.84,414.80 491.57,410.07 489.76,404.72 488.59,399.23 488.18,393.99 489.79,385.37 493.37,376.75 497.19,368.48 507.60,347.41 534.95,304.42 553.17,283.15 568.03,262.53 570.51,255.93 572.22,249.38 573.02,242.93 572.68,236.93 570.81,230.88 567.56,225.03 563.48,219.79 559.09,215.36 553.43,211.27 546.91,208.20 540.11,206.08 533.51,204.92 525.61,204.92 517.81,206.43 510.05,208.90 497.96,214.50 486.48,221.91 477.87,228.91 468.50,238.54 435.35,278.97 403.92,322.56 396.15,336.17 390.96,348.83 387.45,362.23 385.47,375.99 386.01,402.40 390.09,428.82 393.04,454.88 392.37,464.05 390.83,472.16 388.18,479.47 384.83,485.32 380.58,490.76 375.73,495.35 370.61,498.88 364.41,501.30 357.55,502.46 350.58,502.51 344.02,501.55 338.53,499.94 333.28,497.52 328.19,494.09 323.03,489.50 309.07,468.53 295.91,446.31 288.05,436.13 280.08,428.11 270.67,421.61 259.72,416.32 237.66,409.71 215.13,403.11 201.97,397.41 190.76,390.06 184.63,384.11 179.14,377.25 175.32,369.64 173.95,364.10 173.28,358.05 173.31,352.00 174.12,346.31 176.90,338.69 181.25,331.59 186.20,325.39 192.06,320.04 198.62,315.76 205.59,312.18 217.47,307.85 231.00,305.07 255.71,303.71 280.61,302.60 294.78,300.24 307.56,296.71 319.15,291.82 330.36,285.57 341.01,278.66 353.23,268.63 398.63,219.39 443.69,170.34 465.28,154.06 488.69,141.72 512.89,133.45 525.14,131.18 537.40,130.07 549.52,130.17 561.50,131.43 573.12,133.95 584.50,137.58 595.45,142.07 606.06,147.51 615.94,153.76 625.21,161.07 633.38,168.88 640.85,178.16 648.51,190.61 654.61,204.67 657.86,218.78 658.83,233.20 657.09,247.16 653.24,260.52 647.08,273.27 639.48,284.86 621.43,305.28 613.66,314.80 607.34,325.44 604.52,333.96 602.65,343.28 602.38,352.25 603.49,358.55 605.59,364.80 608.37,370.65 611.62,375.74 617.55,381.89 624.68,386.68 632.24,390.41 641.15,393.33 650.59,394.89 659.80,395.35 667.73,394.74 675.43,393.13 683.00,390.61 694.38,385.02 705.40,377.40 716.24,367.53 726.12,356.39 733.35,346.61 739.71,336.22 745.50,324.83 750.39,312.64 756.99,286.02 760.00,257.29 759.26,227.55 754.58,197.31 745.37,168.03 731.68,140.30 713.60,114.95 692.00,92.32 667.30,73.07 640.04,57.49 610.58,46.50 579.68,40.91 547.94,40.00 516.54,43.88 486.14,52.70 410.78,87.58 338.63,126.80 299.03,150.84"
        fill="none"
        stroke="#e94560"
        stroke-width="8.0"
        stroke-linejoin="round"
        stroke-linecap="round"/>
  <!-- Start/finish line -->
  <line x1="309.41" y1="167.93" x2="288.65" y2="133.74"
        stroke="#f5f5f5" stroke-width="9.6"
        stroke-linecap="round"/>
</svg>
