<?xml version="1.0" encoding="utf-8"?>
<svg xmlns="http://www.w3.org/2000/svg"
     width="800.0" height="550.1"
     viewBox="0 0 800.0 550.1">
  <rect width="100%" height="100%" fill="#1a1a2e"/>
  <!-- Track outline -->
  <polyline points="191.43,509.59 189.26,510.07 179.81,509.90 170.41,508.52 161.09,506.69 152.10,503.89 143.73,499.58 135.85,494.28 121.10,481.67 108.30,466.70 99.00,448.35 90.35,428.25 81.72,405.76 72.86,385.43 44.33,314.98 40.85,298.79 40.00,282.94 40.77,273.16 42.65,263.28 46.03,253.60 50.30,244.53 58.95,231.18 69.80,218.70 83.32,207.30 99.41,197.45 178.99,165.65 311.38,109.50 422.59,51.47 436.93,45.46 445.92,42.80 455.27,40.88 464.36,40.00 473.37,40.10 481.95,41.18 490.01,43.44 494.62,45.60 498.92,48.26 502.86,51.57 506.87,56.12 510.43,61.38 513.11,66.81 514.60,71.73 515.37,76.79 515.58,81.92 514.81,90.18 512.72,98.37 509.14,106.50 504.35,114.26 498.07,122.08 491.04,129.10 484.55,134.22 477.70,138.67 461.78,146.90 443.83,153.31 289.13,201.43 223.54,229.25 203.56,240.85 187.46,252.25 179.68,259.13 173.30,266.15 161.68,282.87 152.49,300.98 145.69,319.33 141.88,337.27 140.93,354.13 141.44,361.95 142.81,369.78 145.72,379.02 149.89,387.99 155.22,396.12 161.71,403.30 169.46,409.27 178.11,414.02 187.59,417.40 197.20,419.55 205.20,420.46 213.11,420.57 221.46,419.89 229.80,418.47 246.49,413.25 262.99,405.02 278.83,393.69 293.49,379.32 331.73,324.18 345.51,304.89 360.91,286.72 378.34,270.63 398.07,257.24 419.26,247.33 463.87,232.49 483.23,222.64 491.24,217.28 499.51,210.37 518.18,189.70 536.67,169.02 544.58,161.98 552.07,156.78 559.87,152.90 567.91,150.44 573.06,149.70 578.24,149.60 583.36,150.31 587.58,151.56 591.88,153.34 595.90,155.64 599.38,158.40 603.06,162.99 605.95,168.42 607.95,173.95 608.98,179.04 609.27,184.23 608.98,189.46 607.29,197.76 604.53,206.12 600.54,214.85 596.68,223.72 594.25,232.79 593.22,241.83 593.56,247.30 594.56,252.62 596.24,257.65 598.63,262.30 601.67,266.62 605.25,270.40 609.42,273.63 614.14,276.30 619.11,278.35 624.51,279.80 630.23,280.61 635.92,280.72 641.64,280.07 647.36,278.73 652.82,276.74 658.07,274.07 663.04,270.77 667.60,266.92 673.73,259.84 678.70,251.71 682.38,242.30 685.01,232.73 687.79,217.52 690.44,208.78 694.12,200.45 697.16,195.80 700.67,191.52 704.58,187.81 708.75,184.77 713.31,182.24 718.20,180.46 724.20,179.28 730.62,178.94 736.69,179.75 740.84,181.16 744.86,183.19 748.59,185.75 751.76,188.72 754.44,192.29 756.65,196.44 758.35,200.83 759.51,205.11 760.00,212.76 759.15,220.52 754.95,237.11 743.31,269.79 736.36,285.00 726.80,299.90 720.65,306.99 713.77,313.49 706.12,319.43 697.88,324.66 679.50,332.99 659.25,338.72 638.14,341.92 616.50,341.52 594.98,337.84 573.91,330.29 552.90,320.68 531.11,312.65 508.57,307.83 485.40,306.55 462.86,308.98 451.84,311.61 441.08,315.21 430.72,319.80 420.78,325.33 402.27,339.16 386.30,355.75 344.94,415.20 328.18,433.72 309.43,450.04 289.49,464.91 247.93,489.43 228.05,497.89 208.45,504.84 198.87,507.98 191.43,509.59"
        fill="none"
        stroke="#e94560"
        stroke-width="8.0"
        stroke-linejoin="round"
        stroke-linecap="round"/>
  <!-- Start/finish line -->
  <line x1="195.68" y1="529.14" x2="187.17" y2="490.05"
        stroke="#f5f5f5" stroke-width="9.6"
        stroke-linecap="round"/>
</svg>
