<?xml version="1.0" encoding="utf-8"?>
<svg xmlns="http://www.w3.org/2000/svg"
     width="800.0" height="776.0"
     viewBox="0 0 800.0 776.0">
  <rect width="100%" height="100%" fill="#1a1a2e"/>
  <!-- Track outline -->
  <polyline points="273.31,566.44 274.74,568.61 286.60,586.63 298.61,604.84 310.75,623.27 322.96,641.79 334.86,659.37 350.92,680.01 368.93,696.95 388.76,710.10 411.16,717.96 434.60,720.40 458.00,717.06 480.61,709.29 502.81,699.53 515.43,686.83 542.16,681.50 564.44,684.89 587.25,692.12 610.41,701.38 632.93,712.09 653.04,722.30 672.75,730.43 695.99,736.03 719.11,734.63 740.77,725.82 756.07,708.07 760.00,684.67 754.92,664.29 744.30,643.96 730.38,623.36 718.60,605.79 706.90,588.03 695.24,570.42 683.54,553.70 668.67,534.45 651.77,517.65 632.10,506.45 609.85,502.02 586.06,504.64 563.02,513.63 542.04,527.54 527.52,542.50 514.59,558.71 496.98,577.01 479.89,588.12 460.74,595.13 435.71,597.61 411.48,592.60 389.47,580.17 372.42,567.75 356.95,553.07 343.07,536.62 329.98,519.19 317.13,501.11 305.51,482.95 295.96,460.14 292.98,437.37 296.87,414.42 308.25,393.78 325.86,377.96 348.27,369.38 372.66,368.75 396.45,376.93 414.46,387.45 435.75,399.56 456.10,406.79 476.68,407.33 496.91,401.55 513.88,388.49 524.11,369.20 525.38,345.98 519.11,322.31 510.51,303.20 499.96,283.86 488.22,264.71 475.81,245.15 462.96,225.09 450.15,204.31 437.58,182.58 425.32,159.99 413.78,136.68 403.47,114.13 394.23,93.08 384.28,74.47 368.53,56.22 347.39,43.93 323.28,40.00 298.45,44.25 280.25,54.50 263.95,69.55 249.56,87.25 236.43,106.59 222.27,125.79 205.06,142.14 184.28,153.71 161.28,159.72 137.12,162.88 113.21,165.95 91.60,171.24 73.15,179.73 54.40,194.82 42.58,216.19 40.00,240.81 47.38,264.66 59.87,280.70 77.36,291.68 97.98,296.51 119.63,294.61 141.01,286.89 162.19,275.50 182.73,261.50 202.60,246.46 222.51,231.64 241.54,218.58 260.70,209.23 281.32,204.13 306.54,206.25 328.48,216.82 342.36,234.94 345.41,257.25 337.40,277.94 321.02,295.02 299.60,307.94 280.13,314.81 259.75,320.68 239.72,328.72 221.40,340.83 206.33,357.41 196.33,378.14 191.93,401.41 193.87,425.53 200.58,449.48 211.25,472.56 225.01,494.61 239.92,516.66 251.30,533.64 262.96,550.94 273.31,566.44"
        fill="none"
        stroke="#e94560"
        stroke-width="8.0"
        stroke-linejoin="round"
        stroke-linecap="round"/>
  <!-- Start/finish line -->
  <line x1="289.95" y1="555.34" x2="256.67" y2="577.54"
        stroke="#f5f5f5" stroke-width="9.6"
        stroke-linecap="round"/>
</svg>
