<?xml version="1.0" encoding="utf-8"?>
<svg xmlns="http://www.w3.org/2000/svg"
     width="800.0" height="728.1"
     viewBox="0 0 800.0 728.1">
  <rect width="100%" height="100%" fill="#1a1a2e"/>
  <!-- Track outline -->
  <polyline points="517.59,329.03 663.41,265.42 703.58,238.97 720.33,224.31 734.39,208.56 745.62,191.49 753.75,172.68 758.48,153.35 759.69,143.52 760.00,133.68 758.48,121.92 749.33,104.74 739.99,87.71 734.17,79.98 727.64,72.78 720.45,66.08 712.67,59.97 704.21,54.51 695.21,49.84 685.63,45.92 675.64,42.90 665.28,40.94 654.70,40.00 632.98,41.09 616.24,44.22 452.46,111.18 414.66,128.18 406.75,133.00 400.03,138.13 392.47,144.91 385.75,152.56 380.49,160.92 376.66,169.86 375.14,175.96 374.33,182.22 374.30,188.43 375.04,194.50 376.54,200.45 378.72,206.11 381.58,211.34 385.09,216.24 389.11,220.65 393.65,224.50 398.72,227.85 404.08,230.56 412.73,233.43 421.88,234.90 431.74,234.90 441.51,233.65 449.82,231.54 457.85,228.57 474.34,219.86 490.46,207.73 562.25,138.05 590.78,116.65 608.71,106.28 625.67,99.09 635.62,96.64 645.86,95.51 655.76,96.19 665.28,98.45 671.00,100.78 676.42,103.80 681.37,107.41 685.88,111.75 689.92,116.72 693.16,122.07 695.52,127.80 697.11,133.87 697.80,140.01 697.42,146.30 696.12,152.63 694.16,158.78 689.74,168.01 684.07,176.41 678.19,182.97 671.59,188.70 664.00,194.01 655.76,198.57 636.93,205.73 615.83,211.65 600.40,218.09 583.66,226.91 535.67,261.46 516.54,270.92 495.97,278.68 456.60,299.07 407.28,331.89 355.00,358.84 346.14,362.15 338.04,364.15 327.96,365.66 317.72,365.88 308.05,364.41 298.84,361.40 293.11,358.53 287.70,354.95 283.00,350.77 279.08,345.95 275.84,340.52 273.54,334.79 272.32,328.69 272.04,322.32 272.60,315.99 275.62,306.76 279.29,297.41 282.19,287.20 283.71,276.84 283.31,269.94 282.00,263.01 279.92,256.45 277.05,250.35 273.38,244.62 269.12,239.42 264.11,234.78 258.51,230.71 252.72,227.47 244.69,224.61 236.35,223.10 227.36,222.69 218.24,223.44 209.68,224.99 199.42,228.34 146.45,253.06 95.23,281.36 86.65,288.14 80.39,294.59 67.88,309.85 57.33,326.96 48.84,345.53 42.80,364.86 40.00,384.61 40.31,403.98 43.58,423.84 49.43,443.81 58.45,463.59 70.18,482.21 100.93,516.31 157.72,564.51 215.38,620.32 236.88,636.22 303.50,671.60 325.26,679.14 367.02,687.09 386.87,688.07 423.74,684.57 440.45,679.97 460.49,671.30 469.30,666.14 477.33,660.30 484.08,654.16 489.99,647.22 493.76,641.68 497.06,635.69 499.45,629.47 500.73,623.03 501.07,616.40 500.51,609.95 499.08,604.00 496.81,598.24 493.76,593.00 489.84,588.17 485.14,583.92 479.97,580.67 475.80,579.09 471.32,578.04 466.72,577.58 462.20,577.74 456.07,579.17 449.97,581.73 443.94,584.67 434.79,590.32 425.67,595.63 417.15,598.50 408.43,600.16 399.00,600.95 389.45,600.46 379.74,598.31 370.22,594.92 360.57,590.40 351.43,584.71 342.84,577.28 335.37,569.11 330.27,561.98 326.10,554.60 322.42,546.68 319.50,538.47 317.32,529.88 315.86,521.06 315.11,511.79 315.14,502.44 316.08,493.06 317.88,483.75 320.56,474.56 324.07,465.63 333.69,448.48 346.07,432.32 360.85,416.72 377.91,402.51 396.76,389.02 417.21,376.43 486.69,342.48 517.59,329.03"
        fill="none"
        stroke="#e94560"
        stroke-width="8.0"
        stroke-linejoin="round"
        stroke-linecap="round"/>
  <!-- Start/finish line -->
  <line x1="509.60" y1="310.70" x2="525.59" y2="347.36"
        stroke="#f5f5f5" stroke-width="9.6"
        stroke-linecap="round"/>
</svg>
