<?xml version="1.0" encoding="utf-8"?>
<svg xmlns="http://www.w3.org/2000/svg"
     width="662.8" height="800.0"
     viewBox="0 0 662.8 800.0">
  <rect width="100%" height="100%" fill="#1a1a2e"/>
  <!-- Track outline -->
  <polyline points="150.73,160.26 194.80,88.91 208.24,74.21 221.82,63.26 239.45,52.24 257.90,44.14 268.03,41.52 278.05,40.16 287.95,40.00 302.30,41.99 316.02,46.22 324.46,49.93 332.48,54.47 339.60,59.78 345.51,65.69 350.59,72.25 354.41,79.14 356.65,85.59 357.85,92.23 357.85,98.76 356.57,105.17 354.13,111.47 350.75,117.22 346.17,122.57 340.57,127.30 334.46,130.94 324.49,133.52 313.29,134.57 296.75,134.50 280.67,135.86 273.47,139.15 267.11,143.61 261.72,148.77 257.44,154.12 254.01,160.07 251.67,166.36 250.55,173.12 250.57,180.24 251.59,187.28 253.53,194.35 256.58,201.31 261.41,208.54 275.81,222.54 295.30,237.28 314.57,249.91 336.09,261.52 357.69,269.89 378.86,274.85 400.95,277.12 427.87,277.12 456.26,273.41 491.94,262.07 526.69,247.64 552.67,234.70 575.62,224.69 584.83,222.89 593.30,222.35 600.96,223.13 605.39,224.26 609.56,225.94 613.33,228.05 616.46,230.60 618.77,233.29 620.66,236.42 622.00,239.78 622.77,243.34 622.79,247.80 621.98,252.61 620.50,257.49 618.44,262.19 611.45,272.08 601.27,282.24 575.29,302.22 548.37,323.72 534.35,339.71 523.77,356.29 517.20,372.55 512.29,390.89 499.47,460.64 480.08,509.55 417.33,623.05 378.33,691.85 343.44,744.91 337.21,750.97 331.66,754.84 325.86,757.50 321.41,758.91 316.75,759.77 312.10,760.00 307.52,759.57 302.84,758.44 298.18,756.60 293.60,754.06 289.15,750.77 277.14,736.42 266.25,718.87 247.32,678.41 246.04,675.98 232.81,651.00 219.38,619.84 218.03,611.79 217.95,604.71 218.97,597.79 221.14,590.48 224.44,583.36 228.56,576.83 233.63,570.81 239.56,565.38 245.87,561.08 251.92,558.30 258.31,556.46 264.72,555.72 271.01,556.15 277.32,557.72 284.19,560.02 295.94,566.04 308.76,573.67 320.44,578.63 326.98,579.45 332.99,579.06 338.86,577.65 345.61,574.92 352.20,570.97 357.85,566.24 362.09,561.04 365.50,555.17 367.90,549.04 369.30,543.21 369.75,537.19 369.02,530.11 357.72,501.96 342.76,470.61 325.99,423.07 323.98,402.58 321.36,383.58 317.11,373.77 311.56,364.81 304.97,356.13 295.71,345.66 285.05,335.49 274.69,327.75 267.80,324.19 261.06,321.89 254.49,320.75 250.24,320.63 246.07,321.06 242.02,322.00 238.18,323.49 234.26,325.60 230.52,328.30 227.01,331.82 223.71,336.39 216.56,356.84 210.81,383.93 205.18,406.80 200.37,419.90 194.60,430.69 189.03,437.85 182.49,444.45 175.29,450.12 167.45,454.85 158.98,458.61 149.92,461.34 133.15,463.26 115.82,462.52 99.46,459.78 84.35,454.70 76.51,450.43 69.44,445.27 62.98,439.21 56.54,431.55 50.81,422.87 46.26,413.88 41.96,400.59 40.00,386.79 40.46,372.91 43.21,358.32 49.64,338.38 60.02,315.00 130.81,192.52 150.73,160.26"
        fill="none"
        stroke="#e94560"
        stroke-width="8.0"
        stroke-linejoin="round"
        stroke-linecap="round"/>
  <!-- Start/finish line -->
  <line x1="133.72" y1="149.75" x2="167.75" y2="170.77"
        stroke="#f5f5f5" stroke-width="9.6"
        stroke-linecap="round"/>
</svg>
