<?xml version="1.0" encoding="utf-8"?>
<svg xmlns="http://www.w3.org/2000/svg"
     width="441.5" height="800.0"
     viewBox="0 0 441.5 800.0">
  <rect width="100%" height="100%" fill="#1a1a2e"/>
  <!-- Track outline -->
  <polyline points="286.68,179.38 376.83,291.34 389.23,309.96 394.25,319.71 398.14,329.84 400.47,340.15 401.49,350.70 401.16,361.39 399.49,371.97 396.21,382.48 391.63,392.64 385.85,402.54 379.01,411.83 370.90,420.48 361.91,428.41 341.47,442.78 275.48,488.14 268.31,495.16 262.89,501.68 252.27,516.81 243.79,533.31 237.53,550.83 233.93,569.27 233.68,607.23 235.97,643.45 244.55,718.20 245.75,728.71 245.39,737.32 244.48,741.87 243.14,746.42 241.24,750.59 238.70,753.97 235.90,756.13 232.48,757.88 228.77,759.17 224.95,759.89 221.38,760.00 217.13,759.09 212.87,757.19 208.79,754.69 205.05,751.92 198.72,745.55 193.26,738.08 187.91,729.13 183.37,719.72 177.40,703.22 128.11,526.64 85.25,346.98 84.75,338.22 85.22,332.15 86.53,326.54 87.91,322.25 89.66,318.08 91.88,314.29 94.60,311.06 98.06,308.26 102.17,305.90 106.54,304.24 110.94,303.44 115.67,303.74 120.65,305.03 125.49,307.00 129.85,309.36 134.62,312.92 138.80,317.28 142.40,322.17 145.68,328.02 148.30,334.54 150.01,341.29 150.48,352.71 149.39,364.16 145.75,383.16 143.93,403.87 143.75,424.50 145.06,434.21 147.68,442.86 150.70,449.49 154.59,455.94 159.17,461.59 164.60,466.11 170.71,469.82 176.93,472.71 185.37,475.32 193.95,476.57 202.94,476.80 211.96,475.82 221.13,473.31 230.15,469.67 239.35,464.89 248.26,459.17 257.10,452.30 265.22,444.64 271.84,436.71 277.40,428.26 284.90,411.15 291.66,390.97 294.65,384.53 298.10,378.34 302.47,373.41 306.62,370.83 311.42,368.94 316.47,367.76 321.39,367.27 327.42,368.41 333.46,370.76 339.47,372.12 343.14,372.16 347.00,371.97 350.74,371.40 354.20,370.34 357.07,368.63 359.51,365.98 361.55,362.53 363.18,358.62 364.31,354.56 364.89,350.66 364.49,344.32 362.71,337.88 360.24,331.81 355.98,324.56 349.80,316.60 297.70,256.30 289.74,249.73 282.42,245.22 274.46,241.31 266.09,238.39 256.96,236.46 247.50,235.44 227.35,235.51 207.45,238.81 198.68,241.50 190.21,245.03 181.29,250.42 172.31,255.95 166.27,259.25 160.19,262.17 154.12,263.35 150.37,262.86 146.52,261.61 142.73,259.79 139.31,257.55 136.44,255.01 133.78,251.48 131.75,247.38 130.25,242.72 129.20,237.64 129.38,225.88 131.20,212.49 131.78,200.28 130.62,192.54 128.76,185.49 126.18,179.12 121.49,171.72 115.74,165.20 108.94,158.90 101.41,153.29 84.71,144.30 67.61,136.79 51.75,127.57 47.93,123.36 44.87,118.77 42.55,113.99 40.95,109.14 40.00,102.96 40.15,96.62 41.24,90.37 43.57,83.77 46.98,77.24 50.88,71.44 56.77,64.92 63.54,59.42 71.47,54.41 80.05,50.09 89.51,45.95 99.41,42.73 110.03,40.72 120.91,40.00 132.04,40.72 143.13,42.81 154.26,46.30 165.07,51.04 175.62,56.95 185.69,63.89 204.57,80.39 222.33,99.47 286.68,179.38"
        fill="none"
        stroke="#e94560"
        stroke-width="8.0"
        stroke-linejoin="round"
        stroke-linecap="round"/>
  <!-- Start/finish line -->
  <line x1="302.26" y1="166.84" x2="271.10" y2="191.92"
        stroke="#f5f5f5" stroke-width="9.6"
        stroke-linecap="round"/>
</svg>
