<?xml version="1.0" encoding="utf-8"?>
<svg xmlns="http://www.w3.org/2000/svg"
     width="800.0" height="432.3"
     viewBox="0 0 800.0 432.3">
  <rect width="100%" height="100%" fill="#1a1a2e"/>
  <!-- Track outline -->
  <polyline points="434.72,275.04 591.87,238.40 621.83,234.42 635.61,234.03 648.70,234.70 666.57,237.50 695.94,247.15 704.41,249.48 712.19,250.85 719.28,250.85 726.13,249.98 732.67,248.63 738.96,246.25 743.44,243.53 747.76,240.14 751.45,236.38 754.08,232.74 756.21,228.79 757.86,224.61 759.10,220.01 759.85,215.16 760.00,210.28 759.46,205.15 758.30,199.97 756.57,194.95 752.56,187.41 747.61,180.62 742.90,175.69 737.72,171.51 731.85,167.81 725.51,164.81 718.61,162.54 711.37,160.91 695.66,159.29 678.63,160.07 620.21,174.62 562.41,196.85 546.57,200.89 530.34,203.53 514.14,204.42 498.42,203.78 482.92,201.45 467.56,197.39 421.38,180.71 390.65,174.03 375.50,173.25 360.80,174.20 346.81,177.03 333.75,181.66 321.90,187.91 311.55,195.54 298.38,209.47 282.39,230.97 272.55,240.70 261.50,249.31 249.36,256.34 236.92,261.75 224.40,265.26 215.36,266.46 205.91,266.72 196.84,265.71 187.90,263.63 178.79,260.27 170.36,256.15 159.44,248.86 149.47,239.86 136.98,223.82 130.41,212.72 126.60,204.59 123.46,195.90 121.63,187.57 120.80,179.22 120.98,171.06 122.20,163.10 124.49,155.67 127.71,148.66 131.57,142.30 136.21,136.58 141.82,131.62 148.11,127.47 155.27,123.99 162.92,121.36 180.05,118.50 339.65,104.34 357.34,104.06 375.17,105.24 393.10,107.87 410.79,112.11 427.97,117.96 491.52,144.06 507.34,147.63 539.28,149.34 546.98,148.94 555.58,147.51 601.12,134.59 645.92,119.28 654.13,115.58 660.34,111.85 666.24,107.45 671.34,102.46 674.02,99.10 676.34,95.51 678.14,91.53 679.53,86.40 680.25,80.79 680.12,75.27 678.89,69.74 676.72,64.28 674.10,59.46 671.39,55.84 668.30,52.73 664.95,49.95 659.21,46.22 652.95,43.31 646.02,41.23 638.76,40.11 631.08,40.00 623.27,40.76 615.11,42.27 606.97,44.57 590.46,51.86 568.54,65.43 546.39,78.35 537.29,81.55 529.05,83.15 520.58,83.90 512.13,83.59 504.48,82.36 495.72,79.95 440.18,58.95 425.76,55.67 379.39,53.54 230.12,65.06 94.17,81.83 84.30,84.66 77.40,87.91 70.06,92.17 63.31,97.25 57.41,102.80 49.50,112.78 43.84,122.45 41.06,131.34 40.21,136.52 40.00,141.71 41.26,149.73 43.63,157.41 46.16,163.46 49.17,169.13 56.61,180.59 86.26,214.91 94.66,226.88 100.79,239.52 104.60,252.42 106.71,269.27 106.02,285.42 96.75,345.30 96.80,354.10 97.98,361.47 100.53,369.21 104.22,376.33 107.13,380.57 110.48,384.41 114.21,387.55 118.41,389.84 123.02,391.44 127.71,392.28 132.50,392.17 137.37,391.27 142.26,389.99 149.50,387.63 157.74,383.85 209.34,351.38 249.44,328.00 276.85,316.23 351.14,294.53 434.72,275.04"
        fill="none"
        stroke="#e94560"
        stroke-width="8.0"
        stroke-linejoin="round"
        stroke-linecap="round"/>
  <!-- Start/finish line -->
  <line x1="430.18" y1="255.57" x2="439.26" y2="294.52"
        stroke="#f5f5f5" stroke-width="9.6"
        stroke-linecap="round"/>
</svg>
