<?xml version="1.0" encoding="utf-8"?>
<svg xmlns="http://www.w3.org/2000/svg"
     width="584.1" height="800.0"
     viewBox="0 0 584.1 800.0">
  <rect width="100%" height="100%" fill="#1a1a2e"/>
  <!-- Track outline -->
  <polyline points="509.68,444.95 513.11,458.46 541.03,578.07 543.32,596.08 544.10,614.34 543.56,632.57 541.68,650.54 537.83,667.83 531.74,684.11 523.62,698.96 513.35,711.95 501.50,722.85 488.27,731.61 473.94,738.19 458.78,742.45 295.86,760.00 280.03,759.35 264.51,756.58 253.10,753.03 240.66,747.89 235.01,744.73 229.70,741.08 224.80,736.95 220.38,732.39 216.56,727.64 213.22,722.46 210.14,716.44 207.64,710.09 204.62,696.94 203.43,683.49 207.34,645.76 232.77,524.35 233.91,500.72 232.21,478.12 214.89,395.00 214.20,382.37 215.37,370.26 216.95,363.72 219.16,357.33 221.91,351.51 225.31,346.07 229.55,340.86 234.48,336.30 240.00,332.66 245.97,329.86 252.00,328.07 258.18,327.22 264.51,327.32 270.75,328.39 276.75,330.57 282.45,333.60 287.77,337.38 292.57,341.74 299.83,351.38 306.37,362.12 321.56,397.93 334.64,448.53 343.42,549.81 346.46,564.89 349.98,576.31 352.73,582.53 355.87,587.84 359.39,592.88 363.42,597.57 368.23,602.16 373.48,606.23 378.97,609.46 384.76,612.00 390.83,613.85 397.07,614.99 403.39,615.35 409.75,614.99 416.08,613.92 422.29,612.09 428.32,609.55 434.09,606.33 439.52,602.36 444.47,597.77 448.98,592.56 452.89,586.99 455.88,581.59 458.30,575.99 461.82,563.97 463.46,551.31 463.70,539.59 462.24,524.94 452.27,486.49 436.38,442.80 415.22,399.46 391.06,359.39 368.88,329.89 348.97,307.42 336.01,296.35 277.65,260.02 104.46,174.27 91.17,166.32 79.11,157.43 68.15,147.63 58.36,137.09 50.15,125.76 46.87,119.67 44.21,113.38 42.24,107.10 40.90,100.69 40.15,94.24 40.00,87.83 40.48,81.64 41.61,75.49 43.64,69.04 46.45,62.89 49.88,57.55 53.97,52.76 58.51,48.76 63.62,45.44 69.56,42.70 75.86,40.81 82.33,40.00 88.93,40.00 95.38,40.72 102.31,42.21 126.70,50.94 139.00,57.09 171.00,79.00 191.54,97.43 217.91,132.72 243.91,167.49 248.95,172.57 254.24,176.80 265.35,184.62 276.90,191.46 283.17,194.13 289.14,196.01 301.59,198.75 307.77,199.43 314.04,199.56 320.85,198.98 327.59,197.64 333.89,195.49 339.83,192.56 345.03,189.14 350.07,184.72 358.07,174.53 366.02,164.24 370.97,159.45 376.02,155.74 381.57,152.81 387.48,150.69 393.60,149.49 399.87,149.16 406.23,149.68 412.53,150.99 418.71,153.07 424.59,155.97 430.03,159.81 435.04,164.24 439.76,168.99 443.97,174.20 447.25,179.57 450.18,185.79 458.45,210.21 495.14,378.11 509.68,444.95"
        fill="none"
        stroke="#e94560"
        stroke-width="8.0"
        stroke-linejoin="round"
        stroke-linecap="round"/>
  <!-- Start/finish line -->
  <line x1="529.20" y1="440.58" x2="490.16" y2="449.31"
        stroke="#f5f5f5" stroke-width="9.6"
        stroke-linecap="round"/>
</svg>
