<?xml version="1.0" encoding="utf-8"?>
<svg xmlns="http://www.w3.org/2000/svg"
     width="800.0" height="507.8"
     viewBox="0 0 800.0 507.8">
  <rect width="100%" height="100%" fill="#1a1a2e"/>
  <!-- Track outline -->
  <polyline points="259.35,434.21 130.19,410.14 110.31,404.64 92.46,397.15 77.22,387.26 70.60,381.68 64.55,375.64 54.68,362.47 46.99,347.93 44.19,340.24 42.06,332.28 40.00,315.70 41.02,280.33 43.28,261.73 47.75,244.17 54.59,227.73 63.64,212.41 74.96,198.55 88.28,186.86 103.24,177.62 119.67,170.82 137.20,166.68 155.45,165.49 196.09,166.82 225.50,163.73 236.36,159.09 245.64,154.05 252.99,147.50 260.74,136.24 267.87,124.44 294.90,77.02 300.56,69.72 306.10,63.96 312.33,58.49 319.06,53.71 326.33,49.61 334.05,46.22 342.30,43.56 350.85,41.65 369.00,40.00 388.80,40.90 461.03,53.06 530.12,71.44 546.10,77.52 561.18,84.65 575.40,93.03 592.12,106.42 599.30,114.04 605.75,122.28 611.46,131.10 616.36,140.45 623.68,160.53 627.08,176.61 628.60,193.27 624.81,265.51 625.89,284.90 627.36,294.00 629.59,302.78 632.70,310.99 636.66,318.72 641.44,325.70 647.01,331.96 653.26,337.36 660.14,342.03 667.55,345.99 676.17,349.59 713.36,361.17 722.61,365.06 730.62,369.38 738.05,374.56 744.67,380.49 750.02,386.75 754.34,393.81 756.83,399.67 758.76,406.00 759.83,412.41 760.00,418.85 759.35,425.40 757.82,431.66 755.36,437.70 752.02,443.46 748.01,448.67 743.17,453.35 737.66,457.45 731.94,460.87 724.00,464.25 715.68,466.41 706.46,467.67 696.96,467.81 686.72,466.73 676.79,464.68 668.93,462.16 661.49,459.03 646.67,450.87 632.67,440.29 619.81,427.16 608.10,412.52 597.89,396.11 589.66,378.01 582.67,358.84 577.47,338.80 574.10,317.93 569.49,252.95 561.32,213.13 553.74,194.63 543.73,177.98 531.77,163.37 517.99,150.92 502.66,140.31 485.89,131.89 468.10,125.81 449.69,122.10 431.14,121.35 412.92,123.32 395.81,127.93 380.23,135.09 366.17,144.95 353.73,157.04 332.41,186.47 310.91,215.57 304.27,221.94 298.07,226.58 291.06,231.15 283.70,235.07 276.04,238.31 268.09,240.86 260.43,242.59 251.46,243.67 199.26,243.49 178.95,244.93 169.98,246.80 161.56,249.68 154.23,253.49 147.58,258.49 143.12,263.06 139.04,268.28 135.79,273.89 133.58,279.76 132.17,285.98 131.60,292.06 131.89,297.49 132.91,302.85 134.43,308.07 137.69,315.81 142.10,323.07 147.87,329.95 154.65,336.13 162.60,341.71 171.34,346.35 180.19,349.84 191.31,352.72 283.20,363.98 301.24,363.51 318.21,360.96 325.96,358.87 333.59,355.99 342.62,351.46 351.24,345.85 358.54,339.44 364.87,332.21 370.08,324.23 374.24,315.55 379.27,296.38 382.92,275.66 387.47,255.47 391.49,246.59 396.30,239.17 401.87,232.34 408.23,226.47 415.22,221.87 422.77,218.31 430.91,215.64 439.37,214.10 448.05,213.88 456.73,214.92 465.30,217.37 473.48,221.08 481.06,226.01 487.90,232.05 493.95,239.17 499.04,247.20 502.92,255.80 506.11,266.05 515.25,316.99 517.00,335.59 517.14,354.30 514.91,372.22 510.10,388.91 502.78,403.88 498.28,410.72 493.22,417.08 487.56,422.98 481.40,428.38 474.61,433.42 467.34,437.84 451.47,444.72 434.22,449.14 415.87,451.48 376.75,450.98 291.85,440.25 259.35,434.21"
        fill="none"
        stroke="#e94560"
        stroke-width="8.0"
        stroke-linejoin="round"
        stroke-linecap="round"/>
  <!-- Start/finish line -->
  <line x1="255.69" y1="453.87" x2="263.02" y2="414.55"
        stroke="#f5f5f5" stroke-width="9.6"
        stroke-linecap="round"/>
</svg>
