<?xml version="1.0" encoding="utf-8"?>
<svg xmlns="http://www.w3.org/2000/svg"
     width="800.0" height="482.7"
     viewBox="0 0 800.0 482.7">
  <rect width="100%" height="100%" fill="#1a1a2e"/>
  <!-- Track outline -->
  <polyline points="270.14,157.29 210.71,178.95 183.32,185.34 151.85,193.96 124.75,200.61 116.70,204.28 109.90,208.44 103.92,213.20 99.01,218.21 94.81,223.68 91.53,229.42 89.31,234.82 87.86,240.43 87.27,246.13 87.54,252.13 88.75,258.26 90.97,264.94 97.89,277.36 107.15,291.13 114.07,303.84 116.38,311.35 117.62,318.33 117.83,325.08 117.15,331.27 115.64,337.30 113.30,342.87 110.28,347.92 106.47,352.54 101.38,356.93 89.02,363.03 73.66,368.53 60.80,374.59 54.67,379.31 49.73,384.29 45.80,389.67 42.96,395.24 40.95,401.14 40.00,407.00 40.12,412.38 41.12,417.69 42.93,422.60 45.53,426.99 48.96,430.99 53.13,434.43 59.32,437.71 66.56,440.20 74.08,441.81 85.17,442.69 98.51,441.18 147.05,425.39 199.65,406.12 249.05,392.39 278.24,383.67 319.48,369.68 368.79,357.23 399.38,346.18 434.34,336.55 462.15,325.54 510.84,311.48 574.02,293.91 689.45,259.96 704.12,252.03 715.69,242.89 729.83,228.11 742.13,211.03 751.21,193.43 757.40,175.08 760.00,157.55 759.88,139.72 757.16,120.19 751.89,101.48 745.18,86.57 736.51,73.30 725.66,61.60 713.50,52.06 702.67,46.23 690.72,42.36 672.74,40.00 653.39,40.26 633.25,43.24 613.93,48.65 598.37,55.27 584.73,63.53 574.97,71.95 566.95,81.68 562.22,89.45 558.26,97.87 555.36,106.59 553.41,119.63 553.35,133.92 556.69,157.71 559.38,181.05 557.84,193.80 554.44,204.94 551.40,211.52 547.64,217.69 542.99,223.45 533.00,232.27 520.39,240.36 472.06,261.40 419.85,279.56 371.54,292.67 362.40,293.75 354.95,293.78 348.06,292.73 341.84,290.73 336.08,287.85 331.02,284.34 327.02,280.61 323.65,276.35 321.05,271.69 319.21,266.32 318.18,260.48 318.12,254.78 319.07,249.31 320.90,243.90 323.59,238.86 327.53,233.71 332.41,228.93 338.00,224.86 344.57,221.42 351.96,218.80 360.83,216.67 396.07,214.77 430.65,212.54 438.37,210.25 444.61,207.43 450.20,203.82 455.46,199.30 460.17,193.99 463.98,188.32 466.79,182.72 468.83,176.82 469.99,170.69 470.11,163.74 469.19,156.57 467.44,149.78 464.99,143.82 461.76,138.18 457.77,133.10 452.54,128.19 446.38,123.89 439.58,120.42 431.15,117.54 421.89,115.73 411.77,115.01 390.03,117.05 363.50,123.24 270.14,157.29"
        fill="none"
        stroke="#e94560"
        stroke-width="8.0"
        stroke-linejoin="round"
        stroke-linecap="round"/>
  <!-- Start/finish line -->
  <line x1="276.99" y1="176.08" x2="263.29" y2="138.50"
        stroke="#f5f5f5" stroke-width="9.6"
        stroke-linecap="round"/>
</svg>
