<?xml version="1.0" encoding="utf-8"?>
<svg xmlns="http://www.w3.org/2000/svg"
     width="800.0" height="750.7"
     viewBox="0 0 800.0 750.7">
  <rect width="100%" height="100%" fill="#1a1a2e"/>
  <!-- Track outline -->
  <polyline points="547.46,467.02 560.71,456.53 721.05,336.83 731.08,327.40 738.13,319.02 744.83,309.03 750.48,298.35 755.00,287.44 758.23,276.02 759.82,264.47 760.00,252.73 758.73,240.85 756.09,229.20 751.82,217.79 746.32,206.97 739.51,196.29 731.69,186.35 712.65,168.02 691.18,150.48 669.71,136.35 646.51,118.95 623.99,99.11 602.71,81.43 579.61,67.11 554.38,55.70 527.34,47.14 498.77,41.43 439.88,40.00 364.58,51.19 350.35,54.82 338.33,59.20 327.25,64.40 317.19,70.98 311.65,76.05 306.62,81.75 302.35,88.01 299.02,94.46 296.37,101.36 294.75,108.45 294.31,115.64 294.89,122.96 296.34,130.00 298.80,136.86 302.17,143.44 306.22,149.33 313.79,156.79 323.45,163.47 345.93,174.42 368.89,185.93 380.36,194.91 389.66,204.48 396.18,213.14 401.43,222.44 405.63,232.52 408.63,243.15 410.19,254.16 410.48,265.43 409.47,276.94 407.29,288.41 403.93,300.10 399.44,311.52 393.68,322.93 386.84,333.70 378.66,344.02 369.50,353.45 359.15,362.38 348.07,370.35 323.82,383.61 288.95,399.12 255.54,415.65 245.40,423.15 237.95,431.35 233.89,437.70 230.56,444.70 228.21,452.06 226.94,459.70 226.65,467.62 227.41,475.31 229.37,482.77 232.41,489.99 236.25,496.44 241.13,502.29 246.85,507.35 253.01,511.49 259.78,514.67 267.02,516.83 274.40,518.17 282.11,518.72 290.00,518.44 297.79,517.15 308.50,513.93 320.96,507.21 380.22,459.52 437.45,406.85 456.09,384.76 471.26,359.39 477.42,345.86 482.27,331.68 485.27,317.09 486.76,302.22 485.31,272.71 477.89,235.28 471.66,199.28 471.99,187.96 473.98,178.15 478.25,165.54 484.47,153.71 489.80,146.76 495.91,140.59 502.58,135.34 510.07,130.78 518.14,127.24 526.43,124.75 539.97,123.28 553.33,124.06 563.86,126.13 573.93,129.54 584.03,134.19 593.84,139.94 612.84,154.35 621.86,163.28 630.26,173.13 637.86,183.72 644.41,195.14 649.55,207.06 653.32,219.63 655.49,232.38 656.18,245.41 655.42,258.53 653.17,271.46 649.26,284.31 643.98,296.60 637.17,308.66 629.28,319.99 610.35,341.30 356.76,551.40 330.51,567.38 302.35,578.80 287.94,582.52 273.42,584.69 258.94,584.96 244.57,583.49 230.63,580.36 217.02,575.76 191.68,562.68 150.52,533.73 140.86,527.97 131.52,523.83 118.92,520.42 105.74,519.13 97.16,519.87 88.62,521.76 80.40,524.70 72.69,528.66 65.30,533.68 58.68,539.71 53.07,546.53 48.18,554.26 44.38,562.55 41.88,571.38 40.43,580.78 40.00,589.75 41.05,600.48 43.55,610.79 47.28,621.47 52.13,631.78 58.39,642.00 65.59,651.67 83.19,669.81 104.62,685.74 129.20,698.30 156.53,706.64 185.49,710.73 215.21,709.81 245.11,704.24 274.18,693.42 301.44,677.77 326.20,657.75 422.72,566.14 547.46,467.02"
        fill="none"
        stroke="#e94560"
        stroke-width="8.0"
        stroke-linejoin="round"
        stroke-linecap="round"/>
  <!-- Start/finish line -->
  <line x1="535.03" y1="451.36" x2="559.90" y2="482.68"
        stroke="#f5f5f5" stroke-width="9.6"
        stroke-linecap="round"/>
</svg>
