<?xml version="1.0" encoding="utf-8"?>
<svg xmlns="http://www.w3.org/2000/svg"
     width="800.0" height="794.3"
     viewBox="0 0 800.0 794.3">
  <rect width="100%" height="100%" fill="#1a1a2e"/>
  <!-- Track outline -->
  <polyline points="177.27,406.18 178.71,409.12 220.50,496.12 227.23,508.49 233.24,518.74 239.48,526.60 246.78,533.15 255.93,537.15 266.54,541.30 276.76,542.83 288.21,543.50 335.89,536.99 345.58,535.17 354.34,531.27 360.49,526.09 365.61,516.99 368.54,506.12 369.55,494.21 369.82,480.15 370.36,469.03 372.45,458.84 377.21,451.30 383.15,446.79 388.63,443.63 396.04,441.04 404.41,438.74 455.35,426.98 462.49,424.43 468.08,420.94 472.54,416.85 475.68,411.20 477.59,404.68 477.98,396.72 476.45,388.26 473.20,381.45 468.38,375.38 462.49,371.23 454.78,369.06 446.56,369.54 346.71,399.86 337.21,402.16 328.33,402.22 321.06,400.40 313.62,394.74 308.57,388.23 305.25,380.08 303.37,372.06 303.40,363.94 305.49,355.45 310.81,347.90 317.45,341.93 326.30,337.71 335.32,335.64 343.87,334.58 459.29,327.74 477.92,328.51 489.31,329.69 498.67,331.71 505.33,334.65 513.25,340.30 521.00,347.75 527.39,354.55 531.37,360.24 535.70,367.62 539.53,375.64 541.92,385.00 542.52,392.48 542.22,400.62 541.00,410.43 539.20,416.76 534.60,425.64 528.86,434.27 522.52,441.26 516.42,445.64 507.81,449.89 420.37,487.88 410.93,492.90 405.04,497.02 401.00,502.35 397.71,508.14 397.29,514.37 398.97,521.17 401.81,527.69 405.31,532.87 410.81,538.36 417.83,543.15 425.07,547.31 439.15,553.73 460.49,562.39 467.31,564.11 473.32,563.76 482.82,560.98 494.69,555.26 511.55,544.11 529.22,531.40 541.09,519.77 549.28,508.71 555.46,496.44 559.89,487.27 564.91,480.85 571.43,476.54 578.90,474.33 587.12,474.84 593.82,477.94 599.26,482.80 604.07,490.21 667.45,602.58 670.83,609.39 673.46,617.28 674.11,623.99 672.98,631.02 670.05,637.63 665.50,644.47 660.30,650.06 655.34,654.47 648.94,657.85 641.32,660.54 634.41,660.89 626.79,659.84 618.27,657.47 612.59,653.86 606.97,648.65 603.03,643.67 599.77,637.89 596.78,630.19 595.82,622.10 597.41,615.07 599.62,608.81 603.32,602.01 607.36,595.01 609.39,588.43 608.71,582.16 606.61,577.76 603.18,572.48 598.69,568.23 593.91,564.75 587.90,562.20 581.17,561.56 574.75,562.74 568.77,565.23 560.67,569.54 553.07,573.99 545.15,579.48 538.04,584.82 531.04,592.04 526.32,600.28 525.84,606.48 526.77,611.97 529.01,618.72 530.80,624.63 531.67,632.55 531.58,640.31 531.13,647.41 530.92,652.84 530.65,658.72 532.18,663.67 534.99,669.01 538.42,673.83 543.09,678.88 548.29,681.66 555.76,683.22 564.67,683.38 574.51,681.91 585.18,682.49 595.88,684.76 603.77,689.65 609.12,694.76 612.83,700.09 615.10,706.42 615.46,713.38 615.01,723.80 615.64,733.29 617.58,740.29 621.26,745.91 625.87,750.64 630.35,753.16 636.21,754.28 642.79,754.15 648.35,752.78 653.94,750.70 660.36,747.64 672.86,739.62 748.70,687.63 754.14,684.05 757.94,679.36 760.00,673.45 759.73,667.86 757.34,662.30 753.24,655.04 545.78,301.35 539.83,293.30 533.94,287.33 526.74,282.50 518.10,279.21 508.92,277.17 496.33,276.21 199.66,276.18 189.56,275.54 183.28,274.61 176.83,271.61 172.01,266.53 167.77,259.66 166.15,251.99 165.85,243.91 166.99,236.30 169.86,229.62 176.02,225.15 183.82,223.75 215.63,221.00 231.80,218.60 245.13,215.09 256.52,210.36 267.37,204.00 276.76,196.11 321.51,146.30 328.36,141.12 336.43,137.38 344.53,136.11 353.20,137.29 360.08,142.21 365.67,147.54 369.97,153.81 373.53,161.95 373.47,168.50 371.35,174.93 367.22,181.38 360.85,189.75 353.71,199.05 348.93,206.62 347.70,213.78 349.64,221.80 352.87,227.87 357.92,232.21 365.55,234.74 376.10,235.86 389.91,235.47 405.43,233.71 417.41,231.16 426.23,228.06 432.75,224.39 438.43,219.15 443.57,212.88 448.05,205.41 449.64,197.90 448.98,190.13 446.95,182.91 444.08,176.36 439.15,168.57 431.16,159.40 356.34,78.15 345.52,67.03 333.62,55.27 322.77,46.93 313.50,42.46 304.53,40.00 297.69,40.16 290.69,41.89 284.41,44.95 278.44,48.63 272.40,53.55 266.69,60.51 263.01,66.65 259.96,74.44 258.85,81.70 259.03,89.52 260.68,97.32 263.94,107.70 267.23,119.05 269.53,129.59 269.86,140.04 268.60,148.38 265.04,155.69 259.00,160.61 251.86,164.89 244.39,167.58 236.97,168.06 229.62,167.23 223.31,164.64 217.51,160.68 210.58,153.20 199.22,139.17 182.80,116.97 162.86,91.41 152.88,80.19 140.74,69.81 130.73,64.47 117.84,60.64 106.36,58.56 94.26,59.04 83.35,60.83 72.41,65.88 59.97,73.68 52.62,80.35 45.89,89.59 41.43,99.36 40.00,109.78 41.14,120.80 45.74,134.19 56.56,159.33 177.27,406.18"
        fill="none"
        stroke="#e94560"
        stroke-width="8.0"
        stroke-linejoin="round"
        stroke-linecap="round"/>
  <!-- Start/finish line -->
  <line x1="195.24" y1="397.40" x2="159.31" y2="414.97"
        stroke="#f5f5f5" stroke-width="9.6"
        stroke-linecap="round"/>
</svg>
