<?xml version="1.0" encoding="utf-8"?>
<svg xmlns="http://www.w3.org/2000/svg"
     width="800.0" height="622.3"
     viewBox="0 0 800.0 622.3">
  <rect width="100%" height="100%" fill="#1a1a2e"/>
  <!-- Track outline -->
  <polyline points="95.78,125.27 86.18,125.24 77.60,123.57 68.01,115.09 60.82,104.72 48.44,81.10 40.24,63.59 40.00,57.00 42.14,52.00 47.32,47.83 54.11,44.35 61.97,42.14 71.16,41.16 460.93,40.00 475.21,41.09 485.62,43.41 495.42,47.14 503.59,52.61 510.27,59.39 517.02,68.52 752.34,469.70 756.98,477.92 759.69,484.23 760.00,490.57 757.66,497.28 753.35,502.60 747.18,506.66 661.16,565.63 646.99,574.72 639.69,578.20 633.35,580.56 627.05,582.11 619.59,582.26 612.94,580.99 607.86,578.13 602.63,572.76 598.46,566.39 596.26,558.45 595.55,547.69 596.06,535.87 595.65,527.97 593.07,520.80 588.87,514.74 582.80,508.95 573.85,503.40 561.71,500.83 549.60,500.18 538.45,501.84 528.34,501.66 519.86,499.89 513.96,496.73 508.67,491.01 504.78,485.53 501.59,479.48 499.86,473.87 499.52,467.52 500.33,460.75 500.67,454.98 500.60,448.82 499.62,441.76 497.82,435.09 496.03,429.18 494.06,423.31 492.81,417.33 492.50,412.22 493.59,406.86 496.43,400.84 500.60,395.73 505.79,390.69 511.90,385.80 519.15,380.40 528.00,374.79 536.21,370.62 544.45,367.36 552.45,365.18 561.23,364.31 567.81,365.94 573.54,369.46 579.64,374.89 583.81,380.33 585.92,384.53 587.31,390.40 586.76,395.33 584.83,400.88 581.95,406.89 578.80,414.18 576.59,420.56 575.44,427.08 575.07,434.26 576.39,442.16 578.56,449.33 581.78,456.65 586.60,463.10 591.95,468.14 598.73,472.34 605.35,474.45 611.75,475.32 619.55,475.21 626.47,474.66 635.08,472.02 641.76,468.43 648.07,464.01 653.73,458.57 657.67,453.06 660.96,447.56 662.51,441.50 662.58,434.11 661.50,427.44 659.23,420.01 656.00,412.33 651.60,403.52 579.78,276.10 575.24,270.78 571.23,267.33 566.35,265.16 560.45,264.22 554.04,264.76 547.57,266.54 542.24,269.04 536.41,273.53 532.51,278.17 529.43,284.26 526.48,292.30 522.61,300.57 517.02,309.05 508.81,319.01 501.86,325.90 492.09,333.25 482.94,339.71 472.70,346.88 460.32,355.03 451.78,359.78 444.11,362.93 436.99,365.04 429.64,365.80 422.68,365.18 414.61,362.61 370.97,343.44 352.56,337.78 338.73,335.36 325.10,334.49 306.01,334.49 266.30,335.97 228.63,340.43 216.39,341.01 206.73,339.92 196.32,337.60 185.97,333.47 177.23,328.18 168.51,319.05 161.42,309.52 151.01,291.54 139.04,266.97 136.81,256.06 137.65,246.50 142.50,237.91 149.59,233.09 161.63,227.83 191.13,217.54 396.54,146.55 405.46,144.08 414.38,144.19 422.62,146.22 429.43,150.75 435.30,157.09 439.30,164.85 441.74,173.51 441.40,181.81 439.64,189.45 436.48,196.70 431.60,201.96 425.70,205.98 418.04,208.99 406.71,212.00 355.48,223.27 346.26,226.42 336.46,230.26 328.18,235.44 320.99,244.00 317.10,255.37 315.81,266.21 317.81,275.52 323.13,284.22 330.59,290.38 339.88,293.21 348.83,292.81 356.77,290.42 370.84,283.46 468.02,240.44 482.09,233.23 493.48,224.93 502.20,215.98 507.93,206.74 511.96,197.50 513.96,187.35 514.57,174.85 512.95,163.98 509.96,152.67 505.42,142.96 499.45,133.28 492.77,124.87 484.67,117.05 475.75,110.23 465.04,105.56 454.02,101.97 442.76,98.96 429.74,97.59 412.24,98.24 108.19,124.48 95.78,125.27"
        fill="none"
        stroke="#e94560"
        stroke-width="8.0"
        stroke-linejoin="round"
        stroke-linecap="round"/>
  <!-- Start/finish line -->
  <line x1="96.47" y1="145.26" x2="95.09" y2="105.28"
        stroke="#f5f5f5" stroke-width="9.6"
        stroke-linecap="round"/>
</svg>
