<?xml version="1.0" encoding="utf-8"?>
<svg xmlns="http://www.w3.org/2000/svg"
     width="793.6" height="800.0"
     viewBox="0 0 793.6 800.0">
  <rect width="100%" height="100%" fill="#1a1a2e"/>
  <!-- Track outline -->
  <polyline points="225.15,469.19 237.56,489.97 252.54,514.31 267.93,538.38 283.69,561.55 299.72,584.03 316.50,605.91 334.38,626.69 353.66,646.07 374.40,664.28 396.73,681.01 420.45,696.07 445.54,709.28 471.75,720.56 498.64,730.21 525.08,738.39 550.73,744.94 575.32,750.31 598.78,754.32 621.07,757.16 642.23,758.83 661.92,759.89 680.25,760.00 702.13,755.65 721.25,745.20 733.69,733.50 743.92,719.39 750.86,703.49 753.65,686.53 751.99,669.57 746.78,653.18 738.07,638.01 722.83,621.58 704.16,610.30 683.00,604.51 660.60,604.58 643.55,608.67 625.75,613.71 606.93,619.01 587.16,623.77 567.32,626.69 547.30,627.22 526.44,625.67 505.09,621.62 483.52,614.84 461.90,605.38 440.48,593.38 419.62,578.88 399.48,562.23 380.28,543.53 361.99,522.94 344.42,500.95 327.48,477.90 311.22,454.01 295.68,430.62 280.94,407.76 266.83,385.81 253.52,364.95 241.03,345.04 229.19,326.27 218.29,308.40 209.46,290.84 203.88,273.31 202.15,255.98 205.09,234.33 214.06,216.73 226.89,204.73 245.41,199.13 264.30,203.55 278.22,213.47 291.99,225.70 305.72,240.00 319.71,255.64 334.57,272.33 352.68,288.53 367.39,297.31 382.66,307.38 397.60,320.85 408.35,334.67 417.59,351.10 425.55,369.57 432.82,389.48 440.25,410.03 447.95,429.83 455.61,448.49 463.07,465.37 474.16,482.74 490.00,494.17 508.94,499.59 528.78,498.94 547.48,492.51 562.84,479.64 573.51,461.77 578.79,444.66 581.17,425.47 581.13,404.66 578.22,382.51 573.66,365.29 566.91,347.73 558.27,329.71 548.13,311.32 537.68,293.18 527.72,275.36 519.69,257.34 514.78,239.25 512.90,221.57 516.07,199.58 524.44,180.43 536.58,164.49 550.24,150.68 560.99,135.35 566.00,118.28 564.72,100.52 556.84,83.45 543.83,68.16 526.63,55.63 506.03,46.25 488.61,41.93 469.64,40.04 449.50,40.00 428.19,41.32 405.89,43.41 382.59,46.06 358.41,48.97 333.33,51.96 307.49,54.69 280.94,57.49 254.05,60.52 228.10,63.32 203.43,65.59 180.19,67.56 158.62,69.45 138.56,71.26 120.04,72.93 102.87,75.24 82.39,82.36 64.89,93.41 50.79,108.62 42.49,127.70 40.00,148.52 42.75,170.36 47.77,186.79 55.12,203.06 64.18,219.53 74.36,236.37 86.32,253.21 99.59,270.28 112.72,288.72 125.77,308.40 139.12,328.92 152.85,350.15 166.69,372.18 180.57,394.85 194.64,418.09 208.86,441.64 223.08,465.71 225.15,469.19"
        fill="none"
        stroke="#e94560"
        stroke-width="8.0"
        stroke-linejoin="round"
        stroke-linecap="round"/>
  <!-- Start/finish line -->
  <line x1="242.33" y1="458.94" x2="207.98" y2="479.44"
        stroke="#f5f5f5" stroke-width="9.6"
        stroke-linecap="round"/>
</svg>
