<?xml version="1.0" encoding="utf-8"?>
<svg xmlns="http://www.w3.org/2000/svg"
     width="501.0" height="800.0"
     viewBox="0 0 501.0 800.0">
  <rect width="100%" height="100%" fill="#1a1a2e"/>
  <!-- Track outline -->
  <polyline points="399.63,361.66 440.09,479.69 450.68,513.43 457.97,546.48 460.97,578.31 459.98,609.16 455.80,638.22 451.91,651.92 446.84,665.13 440.59,677.79 433.20,689.83 424.88,701.38 415.53,712.01 405.19,721.29 393.92,729.34 381.46,736.16 368.27,741.81 341.54,751.89 312.69,758.22 290.63,760.00 262.23,758.22 245.64,754.10 232.20,748.45 219.54,740.89 207.04,730.26 195.91,718.03 179.57,692.78 147.96,629.68 110.89,519.75 81.70,398.65 79.68,381.38 79.63,366.76 80.91,352.07 84.41,338.00 88.69,328.36 94.35,319.02 101.34,311.27 107.64,306.67 114.78,302.80 122.36,299.97 129.99,298.43 137.92,298.37 146.14,299.54 154.21,301.87 161.45,305.07 169.48,310.66 176.52,317.79 182.72,325.84 190.74,340.77 196.85,356.99 204.13,387.59 208.02,422.24 213.83,575.79 217.38,591.40 222.50,603.75 227.67,613.27 233.97,622.43 241.20,630.35 249.28,636.44 258.29,641.35 267.54,644.92 276.75,647.07 286.25,647.86 295.51,647.19 304.86,644.61 314.02,640.43 322.19,635.02 329.33,628.33 335.48,620.40 340.26,611.67 343.50,601.54 345.23,590.60 345.97,579.72 345.67,566.27 343.21,550.17 301.27,393.61 271.09,274.78 256.71,242.46 248.29,228.14 238.84,214.93 228.55,203.44 217.23,193.43 204.97,185.25 191.83,178.92 177.94,175.05 163.57,173.09 149.29,173.33 134.67,173.89 117.83,172.47 101.09,169.46 85.98,164.98 72.10,158.40 64.07,152.57 56.79,145.75 50.68,138.13 45.76,129.83 41.97,120.80 40.00,111.40 40.00,103.41 41.28,94.93 43.59,86.70 46.89,79.32 52.65,71.34 60.04,64.33 68.36,58.43 83.91,51.24 100.70,46.21 116.01,42.70 131.62,40.61 148.70,40.00 166.13,40.92 184.20,43.63 201.97,47.93 218.61,53.46 234.41,60.40 248.74,68.63 262.08,78.28 274.34,89.71 285.66,102.37 307.37,132.04 322.58,156.99 348.72,213.27 399.63,361.66"
        fill="none"
        stroke="#e94560"
        stroke-width="8.0"
        stroke-linejoin="round"
        stroke-linecap="round"/>
  <!-- Start/finish line -->
  <line x1="418.55" y1="355.17" x2="380.71" y2="368.15"
        stroke="#f5f5f5" stroke-width="9.6"
        stroke-linecap="round"/>
</svg>
