<?xml version="1.0" encoding="utf-8"?>
<svg xmlns="http://www.w3.org/2000/svg"
     width="232.8" height="800.0"
     viewBox="0 0 232.8 800.0">
  <rect width="100%" height="100%" fill="#1a1a2e"/>
  <!-- Track outline -->
  <polyline points="187.33,678.86 175.77,714.26 172.64,724.98 169.69,732.65 166.07,740.18 161.43,746.66 157.29,750.52 152.58,753.85 147.48,756.57 142.25,758.48 136.84,759.57 131.11,760.00 125.35,759.67 119.83,758.62 114.21,756.76 108.66,754.04 103.46,750.71 99.07,746.75 95.45,742.04 92.49,736.61 90.21,730.74 88.66,724.88 87.89,717.21 88.45,709.30 90.00,700.15 100.72,667.33 112.49,635.12 117.65,613.72 118.57,602.76 118.14,591.85 115.97,580.94 112.49,570.36 107.99,560.41 102.54,550.97 87.29,533.15 72.40,519.67 63.68,512.85 57.85,507.75 51.17,499.89 46.64,492.32 43.69,484.60 41.55,474.35 40.63,465.35 40.00,454.15 40.53,442.24 41.58,432.76 43.34,420.89 61.61,361.91 84.03,283.91 85.22,276.66 85.85,267.52 86.13,153.21 86.59,147.06 88.84,132.01 96.82,87.98 99.31,76.26 102.75,66.83 106.90,57.92 111.86,52.10 117.58,47.34 122.82,44.43 128.69,42.05 134.76,40.52 140.63,40.00 146.08,40.57 151.56,42.10 156.72,44.38 161.29,47.29 165.33,50.96 168.92,55.39 171.83,60.30 173.77,65.35 174.61,70.68 174.50,76.31 173.52,82.17 168.78,92.94 151.74,121.57 148.40,127.39 144.22,137.87 141.51,147.92 138.63,170.84 138.81,191.42 137.89,209.34 136.52,227.16 131.64,252.03 126.51,274.04 115.09,308.21 93.69,378.53 90.56,390.83 89.02,401.50 88.98,408.79 89.72,415.99 91.55,422.85 94.50,429.18 98.57,435.14 104.27,441.43 133.25,461.68 162.70,481.45 171.03,489.74 176.89,498.08 181.60,507.75 184.80,519.14 185.92,541.01 186.35,565.31 192.81,613.67 192.39,651.46 190.56,665.13 187.33,678.86"
        fill="none"
        stroke="#e94560"
        stroke-width="8.0"
        stroke-linejoin="round"
        stroke-linecap="round"/>
  <!-- Start/finish line -->
  <line x1="206.48" y1="684.62" x2="168.18" y2="673.09"
        stroke="#f5f5f5" stroke-width="9.6"
        stroke-linecap="round"/>
</svg>
