<?xml version="1.0" encoding="utf-8"?>
<svg xmlns="http://www.w3.org/2000/svg"
     width="791.9" height="800.0"
     viewBox="0 0 791.9 800.0">
  <rect width="100%" height="100%" fill="#1a1a2e"/>
  <!-- Track outline -->
  <polyline points="453.77,453.88 191.09,727.56 177.06,738.68 161.75,747.89 144.52,755.16 135.57,757.68 126.49,759.35 117.57,760.00 108.70,759.70 100.11,758.55 91.81,756.38 83.87,753.07 76.44,748.73 69.79,743.32 63.88,737.04 58.67,729.81 54.29,721.85 50.60,712.98 47.63,703.61 43.43,683.05 40.44,609.72 40.00,537.22 43.35,475.08 45.26,467.24 47.53,461.45 50.47,456.16 54.05,450.83 58.23,445.96 63.05,441.96 67.28,439.52 71.95,437.54 76.77,436.17 81.49,435.49 87.14,435.94 92.76,437.43 98.38,439.29 107.36,443.10 116.51,446.76 125.69,448.70 135.73,449.19 147.07,447.06 159.58,443.60 170.85,442.00 176.19,442.53 181.16,443.63 185.73,445.35 189.91,447.63 193.70,450.49 197.20,453.99 200.14,457.91 202.31,462.02 203.60,466.52 204.17,471.43 204.09,476.38 203.47,481.10 201.77,486.89 199.09,492.41 195.76,497.62 189.36,504.82 181.32,511.83 166.16,522.60 151.40,533.53 144.73,540.54 139.49,547.69 134.93,555.46 131.50,563.80 129.79,570.35 128.76,577.28 128.79,583.98 129.56,588.66 130.88,593.35 132.73,597.72 135.13,601.61 138.05,604.84 141.53,607.74 145.37,610.14 149.34,611.85 154.96,613.03 160.97,613.14 166.96,612.50 176.32,609.95 185.37,606.02 192.61,602.06 200.87,595.97 248.19,551.58 293.03,503.72 299.51,494.12 303.55,485.67 307.17,476.26 309.85,466.56 311.68,456.16 312.55,445.80 312.50,436.89 311.60,428.25 309.72,419.57 306.93,411.16 303.45,403.35 298.96,395.93 292.36,387.82 284.81,380.47 277.66,375.06 270.08,370.49 261.75,366.27 252.98,362.72 244.24,360.02 233.90,358.00 174.61,354.50 156.43,351.80 139.39,346.69 123.76,339.00 109.16,328.61 96.06,315.24 84.77,299.52 75.61,281.66 68.44,262.02 59.19,221.39 54.03,163.29 54.54,143.53 56.19,134.46 59.08,125.78 62.13,119.73 65.89,113.90 70.33,108.99 73.94,106.14 77.91,103.66 82.11,101.76 86.37,100.58 90.70,100.16 95.21,100.43 99.73,101.30 104.01,102.63 109.71,105.53 115.12,109.49 120.02,113.87 126.00,120.80 131.06,128.52 135.75,137.51 139.59,146.84 144.21,163.74 155.40,219.94 158.88,230.11 162.85,238.64 167.70,247.13 173.40,254.97 179.98,261.86 187.33,267.99 195.73,273.63 204.50,278.43 211.85,281.81 220.44,284.67 245.94,290.04 272.35,293.77 283.29,294.42 292.96,294.04 302.70,292.63 312.09,290.19 320.76,286.61 329.01,282.16 344.87,271.00 418.47,205.74 523.14,134.62 655.67,51.92 664.80,46.89 672.25,43.73 680.99,41.26 690.02,40.00 699.58,40.19 709.13,41.71 718.38,44.53 727.07,48.57 734.76,53.75 741.36,59.99 744.89,64.60 747.86,69.62 750.05,74.88 751.37,80.44 751.91,86.22 751.73,92.01 750.80,97.80 749.12,103.59 746.85,109.14 742.11,117.25 736.13,124.79 728.80,131.91 720.88,138.31 706.26,148.44 653.50,175.85 564.02,218.53 549.44,228.40 541.45,234.98 534.00,242.25 527.91,249.72 523.01,257.71 520.67,263.23 518.96,268.98 517.98,274.77 518.16,283.49 519.71,292.29 522.78,301.23 526.06,310.30 528.20,320.16 529.25,330.25 528.81,340.53 527.19,350.50 524.77,358.92 521.52,366.95 512.70,383.40 501.58,399.77 459.24,448.16 453.77,453.88"
        fill="none"
        stroke="#e94560"
        stroke-width="8.0"
        stroke-linejoin="round"
        stroke-linecap="round"/>
  <!-- Start/finish line -->
  <line x1="468.20" y1="467.72" x2="439.34" y2="440.03"
        stroke="#f5f5f5" stroke-width="9.6"
        stroke-linecap="round"/>
</svg>
