<?xml version="1.0" encoding="utf-8"?>
<svg xmlns="http://www.w3.org/2000/svg"
     width="800.0" height="630.7"
     viewBox="0 0 800.0 630.7">
  <rect width="100%" height="100%" fill="#1a1a2e"/>
  <!-- Track outline -->
  <polyline points="658.59,376.14 636.33,396.50 431.40,565.40 415.82,575.31 402.56,581.30 383.36,587.11 364.12,590.29 349.88,590.66 336.27,589.07 323.75,586.07 309.20,580.20 256.73,549.81 201.37,513.12 175.63,494.41 155.49,476.55 148.21,468.42 142.19,460.22 137.75,451.29 135.64,444.32 134.18,436.86 133.58,429.34 134.01,422.25 135.69,415.16 138.49,408.18 142.14,401.82 146.41,396.57 151.10,392.84 156.56,389.90 162.55,387.76 168.70,386.41 174.64,385.86 184.33,386.90 194.14,390.21 204.60,395.34 229.44,413.81 256.00,434.78 283.20,451.17 309.11,463.83 325.51,469.27 341.05,472.33 357.06,473.98 373.08,473.74 389.39,471.35 405.27,466.70 418.70,459.92 432.65,451.11 481.72,418.52 612.75,338.60 625.19,329.12 634.83,320.01 645.59,308.51 654.46,295.36 658.24,286.07 660.96,275.98 661.82,266.01 661.00,258.49 659.06,250.85 656.31,243.57 652.91,237.15 648.56,231.34 643.31,226.20 637.54,222.04 631.51,218.92 624.54,216.91 616.96,216.11 609.35,216.42 602.07,217.64 594.06,220.33 586.40,224.55 577.75,230.73 546.11,261.18 514.61,293.59 489.55,314.62 462.95,333.89 435.36,350.03 406.91,361.89 392.36,365.87 377.55,368.25 363.61,369.05 346.65,367.70 273.47,349.24 190.31,327.83 139.00,322.64 97.59,317.68 86.70,314.50 77.75,310.83 70.13,305.15 66.17,300.74 62.43,295.48 59.15,289.80 56.74,283.87 55.54,278.06 55.63,272.49 56.70,266.56 58.55,260.69 61.01,255.19 63.80,250.42 68.97,244.61 75.38,239.84 82.48,236.05 89.46,233.48 98.50,232.32 107.84,233.17 117.35,234.52 149.20,240.63 269.60,276.65 297.32,281.05 364.68,282.22 380.52,280.44 395.89,277.08 423.95,268.40 451.46,257.20 466.48,248.70 479.44,239.10 490.89,228.77 500.49,216.85 505.05,208.41 508.71,199.23 510.90,189.76 511.55,180.16 510.86,170.25 508.79,161.08 504.62,152.15 498.81,144.02 492.27,136.86 484.60,130.38 476.12,125.06 467.26,120.96 457.57,117.91 447.46,116.19 437.30,116.07 427.14,117.72 416.94,121.08 406.22,126.16 382.33,143.83 358.57,162.48 327.84,177.71 301.06,186.15 286.90,188.59 272.61,189.76 244.98,188.35 147.61,171.23 116.70,171.41 90.06,171.17 79.13,169.15 69.31,166.27 60.53,161.57 54.76,156.98 49.21,151.48 44.61,145.24 41.51,138.39 40.34,132.64 40.00,126.28 40.34,119.74 41.33,113.38 42.97,107.69 46.46,100.84 51.36,94.61 57.00,89.16 62.86,84.64 71.38,79.99 80.59,77.00 90.15,75.41 105.21,75.90 122.52,79.56 208.95,109.10 240.16,115.52 256.12,116.32 272.09,114.97 288.36,110.81 304.25,104.51 332.74,87.88 384.87,54.49 399.07,48.19 412.63,44.10 428.34,40.98 444.53,40.00 460.33,41.47 478.58,46.05 592.13,96.44 703.05,157.96 725.56,174.04 736.84,185.05 746.70,197.89 751.61,206.88 755.70,216.60 758.45,226.69 759.83,237.09 760.00,247.91 758.75,258.43 753.24,274.82 745.19,289.98 736.71,302.27 725.39,314.99 658.59,376.14"
        fill="none"
        stroke="#e94560"
        stroke-width="8.0"
        stroke-linejoin="round"
        stroke-linecap="round"/>
  <!-- Start/finish line -->
  <line x1="672.09" y1="390.89" x2="645.08" y2="361.39"
        stroke="#f5f5f5" stroke-width="9.6"
        stroke-linecap="round"/>
</svg>
