<?xml version="1.0" encoding="utf-8"?>
<svg xmlns="http://www.w3.org/2000/svg"
     width="800.0" height="563.1"
     viewBox="0 0 800.0 563.1">
  <rect width="100%" height="100%" fill="#1a1a2e"/>
  <!-- Track outline -->
  <polyline points="321.35,247.43 266.33,277.20 238.61,291.73 146.58,340.88 142.98,342.69 135.69,345.33 131.92,346.10 128.09,346.42 124.29,346.28 120.48,345.59 116.74,344.43 97.53,336.00 90.32,334.18 84.24,333.19 79.58,332.95 74.86,333.42 70.23,334.47 65.78,336.12 61.52,338.38 57.47,341.11 53.73,344.33 47.51,352.02 45.07,356.13 41.68,364.66 40.79,369.01 40.00,378.06 40.27,382.67 42.00,391.96 44.62,398.98 47.52,405.22 50.16,409.32 56.63,416.66 60.48,419.83 69.06,425.04 73.73,426.99 83.69,429.58 88.91,430.08 99.54,429.44 104.85,428.23 111.89,425.60 120.31,421.58 145.20,404.89 178.17,384.05 226.01,357.11 234.60,352.93 238.78,351.32 242.98,350.20 247.21,349.60 251.35,349.49 255.43,349.88 259.38,350.81 263.20,352.38 266.83,354.43 270.22,357.00 273.22,360.07 275.81,363.50 277.95,367.27 279.60,371.25 280.82,375.46 282.26,384.35 282.58,393.55 277.55,452.39 273.46,475.04 269.33,497.19 269.34,499.35 269.56,501.10 270.36,504.97 271.73,508.67 273.38,512.21 274.47,513.93 275.61,515.38 276.95,516.84 278.38,518.15 279.85,519.28 281.46,520.27 283.62,521.31 285.92,522.15 288.19,522.68 290.50,522.99 295.31,523.15 299.01,522.70 302.74,521.67 306.41,520.32 309.98,518.35 313.34,515.89 316.41,512.91 318.98,509.69 321.61,505.62 324.60,499.48 327.26,492.26 329.85,482.05 331.57,471.36 331.66,453.96 330.86,447.90 326.22,430.24 318.15,408.82 315.12,398.47 314.13,393.36 313.68,388.34 313.76,383.55 314.17,378.93 314.97,374.57 316.29,370.34 318.03,366.22 320.28,362.31 322.99,358.55 326.12,355.03 329.68,351.86 333.60,348.91 337.86,346.21 342.42,343.76 347.26,341.61 357.77,338.09 399.05,327.87 431.29,320.97 495.29,306.61 572.13,288.49 655.22,269.58 671.15,263.37 675.86,260.61 680.24,257.52 687.85,250.12 691.14,245.87 696.21,236.42 697.91,231.27 699.13,225.89 699.73,220.38 699.68,215.22 699.06,209.14 693.35,187.27 691.50,176.58 691.02,171.34 691.07,166.29 691.44,161.42 692.15,156.75 694.39,148.02 697.70,139.88 699.72,136.10 702.07,132.68 704.75,129.58 707.68,126.84 710.88,124.42 714.38,122.39 718.14,120.87 721.98,119.77 741.17,116.62 744.77,115.36 748.13,113.65 751.26,111.40 753.92,108.61 756.20,105.37 758.01,101.75 758.66,99.91 759.17,97.81 759.74,93.79 760.00,89.30 759.17,80.23 758.10,75.54 756.59,70.89 753.07,64.14 749.10,57.63 745.80,53.57 741.97,50.00 737.78,46.85 733.28,44.27 728.47,42.26 723.39,40.90 718.10,40.16 712.64,40.00 701.60,41.38 696.07,42.92 680.09,50.25 630.83,80.53 500.89,150.29 321.35,247.43"
        fill="none"
        stroke="#e94560"
        stroke-width="8.0"
        stroke-linejoin="round"
        stroke-linecap="round"/>
  <!-- Start/finish line -->
  <line x1="330.86" y1="265.02" x2="311.83" y2="229.84"
        stroke="#f5f5f5" stroke-width="9.6"
        stroke-linecap="round"/>
</svg>
