<?xml version="1.0" encoding="utf-8"?>
<svg xmlns="http://www.w3.org/2000/svg"
     width="751.4" height="800.0"
     viewBox="0 0 751.4 800.0">
  <rect width="100%" height="100%" fill="#1a1a2e"/>
  <!-- Track outline -->
  <polyline points="332.81,703.92 493.35,754.84 518.82,759.24 539.90,760.00 568.11,757.88 612.59,747.68 628.78,740.44 647.33,728.96 664.58,714.96 679.03,699.24 690.95,681.92 699.64,663.57 705.37,644.97 707.67,629.97 707.70,615.33 707.07,608.49 705.60,601.01 699.37,582.93 692.35,566.73 690.52,563.65 688.25,560.89 677.73,549.45 662.11,535.97 624.95,516.21 590.08,498.57 582.06,492.73 576.16,486.78 572.14,481.26 568.61,475.10 566.07,468.98 564.78,463.86 564.24,458.74 564.38,453.58 565.41,447.82 567.21,442.02 569.47,436.82 571.44,433.30 573.70,430.22 576.60,427.18 582.36,422.62 589.35,418.22 596.18,414.94 602.97,413.18 610.56,412.54 631.84,413.42 652.09,414.22 656.95,413.58 661.41,412.18 673.07,406.46 684.42,399.10 689.52,394.42 693.81,389.06 700.34,379.22 705.97,368.26 709.07,358.70 710.83,349.34 711.43,341.74 711.10,333.86 709.50,321.58 706.13,308.79 699.84,295.67 692.18,283.75 685.89,275.95 678.86,268.91 657.78,252.03 634.27,237.95 614.39,229.55 594.01,224.03 573.07,220.71 549.99,220.11 507.83,226.99 466.14,233.83 445.10,233.19 426.68,230.07 411.23,225.31 396.88,218.79 383.42,210.71 370.84,200.67 351.96,180.15 348.82,175.83 345.89,170.59 330.48,131.71 313.66,90.88 307.97,81.84 302.37,74.92 296.38,68.48 289.95,62.64 283.26,57.44 275.56,52.68 261.55,46.44 247.49,41.76 240.77,40.60 234.61,40.24 228.55,40.00 221.82,40.52 205.27,44.92 189.52,50.88 184.56,53.76 180.36,57.00 174.53,62.20 168.67,68.52 161.01,78.56 154.79,88.28 151.85,95.44 147.26,111.32 144.70,130.15 145.29,151.27 153.45,189.35 175.86,248.83 187.32,267.39 199.74,282.11 214.29,294.91 243.73,313.22 255.15,317.94 285.99,325.10 318.66,329.30 377.30,333.94 398.34,339.22 417.16,346.46 431.61,354.46 444.40,363.98 455.82,374.86 465.61,387.02 473.30,399.98 479.16,414.22 483.16,432.10 485.72,451.42 490.22,497.25 505.07,543.33 517.89,580.85 518.36,584.69 518.29,587.85 517.39,600.85 515.66,609.53 512.59,617.97 507.30,625.33 501.44,631.29 498.31,633.97 494.88,636.17 487.82,639.45 479.76,642.05 471.74,643.57 463.18,643.93 450.62,642.33 439.57,639.73 436.40,638.53 433.54,637.09 421.55,630.13 409.63,620.41 396.28,606.09 281.16,448.82 262.98,430.70 246.09,417.94 228.88,407.94 210.83,400.62 191.58,395.98 171.87,394.22 152.15,395.46 132.81,399.58 114.16,406.46 96.74,416.02 81.39,427.34 68.04,440.86 56.95,456.22 48.39,473.02 42.76,490.89 40.00,509.41 40.23,528.09 43.43,546.45 49.82,564.05 58.91,580.53 70.30,595.37 84.22,608.77 100.61,620.97 124.38,633.25 303.14,696.32 332.81,703.92"
        fill="none"
        stroke="#e94560"
        stroke-width="8.0"
        stroke-linejoin="round"
        stroke-linecap="round"/>
  <!-- Start/finish line -->
  <line x1="338.69" y1="684.81" x2="326.93" y2="723.04"
        stroke="#f5f5f5" stroke-width="9.6"
        stroke-linecap="round"/>
</svg>
