<?xml version="1.0" encoding="utf-8"?>
<svg xmlns="http://www.w3.org/2000/svg"
     width="800.0" height="692.4"
     viewBox="0 0 800.0 692.4">
  <rect width="100%" height="100%" fill="#1a1a2e"/>
  <!-- Track outline -->
  <polyline points="237.84,408.12 279.07,442.00 286.37,449.87 291.37,456.08 295.10,462.46 297.63,468.11 299.28,473.76 300.32,481.03 300.22,488.77 298.80,496.58 296.98,502.92 294.71,509.13 291.40,516.04 287.02,522.75 274.30,539.73 261.00,558.73 257.43,567.13 255.13,576.03 254.06,586.36 254.58,597.26 256.39,606.36 259.83,615.13 265.15,623.34 272.78,632.20 283.06,641.67 294.22,648.68 304.89,651.87 316.77,652.40 329.36,650.11 340.94,645.86 351.22,640.18 361.25,632.57 714.48,296.67 728.92,281.59 736.28,271.19 741.73,261.26 746.28,249.80 749.52,235.55 760.00,99.79 759.22,91.16 756.98,83.15 752.99,74.28 748.26,66.04 741.35,58.04 734.14,51.63 726.32,46.38 717.95,42.69 707.83,40.20 698.78,40.00 689.79,41.93 681.91,44.98 674.16,49.37 667.34,54.85 661.11,61.26 656.54,67.50 652.94,74.88 649.82,84.68 638.92,217.45 636.20,226.65 632.05,234.76 626.50,242.43 619.98,249.47 613.36,255.38 606.35,259.97 598.47,263.26 590.81,265.32 493.78,264.45 486.83,262.56 479.40,259.44 470.90,253.86 460.59,245.09 430.22,216.39 422.56,211.30 415.36,209.58 408.32,209.91 401.15,212.27 393.27,217.15 385.81,223.26 380.58,229.34 376.33,235.85 374.13,242.53 373.67,250.87 376.43,259.60 381.88,269.24 390.93,280.40 406.34,296.07 426.75,313.15 436.81,317.83 452.15,320.62 491.08,326.24 498.84,328.23 504.45,330.65 508.37,333.44 512.75,338.03 515.64,342.15 517.33,346.40 518.20,352.05 517.98,356.86 516.65,362.21 513.89,367.19 509.70,372.81 503.25,378.12 381.46,466.08 376.20,469.21 370.69,470.93 364.75,471.10 359.92,470.37 354.47,467.84 350.09,464.12 345.93,459.27 343.40,454.19 342.43,448.71 343.05,442.37 344.60,436.59 347.95,430.41 353.20,424.03 361.18,416.72 369.23,409.51 376.88,402.94 380.97,398.98 385.03,393.37 386.97,387.49 386.91,381.71 385.90,376.46 382.14,369.78 375.00,359.59 333.77,309.79 328.29,304.21 321.50,299.06 313.62,295.38 305.15,293.15 297.17,292.85 290.00,294.58 282.74,297.54 275.34,302.12 268.98,307.83 261.65,315.31 255.26,321.49 249.74,326.00 244.55,329.62 239.78,331.39 234.62,332.05 229.11,330.89 223.30,328.53 215.77,323.51 188.68,301.42 183.23,294.88 179.11,288.04 176.45,280.96 176.71,273.75 176.91,245.42 174.67,230.50 172.40,219.74 168.25,209.28 163.77,203.26 157.64,196.55 151.28,191.24 145.41,187.32 106.57,167.62 97.29,165.10 90.06,164.96 81.92,166.39 73.48,170.08 66.21,175.06 58.30,181.64 51.26,189.55 45.06,198.12 41.30,206.39 40.00,214.69 40.19,223.10 42.04,232.56 46.49,243.66 53.11,253.56 60.28,262.26 237.84,408.12"
        fill="none"
        stroke="#e94560"
        stroke-width="8.0"
        stroke-linejoin="round"
        stroke-linecap="round"/>
  <!-- Start/finish line -->
  <line x1="250.53" y1="392.66" x2="225.14" y2="423.57"
        stroke="#f5f5f5" stroke-width="9.6"
        stroke-linecap="round"/>
</svg>
