<?xml version="1.0" encoding="utf-8"?>
<svg xmlns="http://www.w3.org/2000/svg"
     width="800.0" height="591.2"
     viewBox="0 0 800.0 591.2">
  <rect width="100%" height="100%" fill="#1a1a2e"/>
  <!-- Track outline -->
  <polyline points="395.79,435.39 380.90,437.36 294.37,458.61 198.77,487.96 143.80,517.28 104.31,543.00 95.09,546.94 87.38,549.38 83.53,550.40 79.74,550.92 73.20,551.17 66.45,550.58 60.81,549.16 55.69,546.91 52.73,544.88 50.02,542.47 47.65,539.79 44.59,535.32 42.25,530.42 40.68,525.05 40.00,519.53 40.46,514.04 41.57,509.02 42.37,506.24 43.76,503.13 68.02,464.53 78.69,441.71 79.92,437.49 80.60,433.33 80.79,415.78 79.80,375.98 81.13,369.29 85.69,355.47 150.49,227.06 160.08,213.12 171.14,200.20 183.48,188.30 197.26,178.16 212.49,170.36 228.73,165.02 245.53,162.50 262.55,162.74 436.49,193.05 463.58,193.64 482.45,192.22 490.96,190.28 508.04,184.11 519.60,177.85 530.85,170.02 540.56,160.58 548.70,150.56 557.39,135.27 572.66,103.73 577.87,96.24 583.32,89.89 595.99,78.05 610.51,68.70 626.20,61.43 676.08,45.83 691.99,42.25 703.74,40.55 715.73,40.00 722.42,40.65 728.83,41.91 734.57,43.88 738.73,46.10 742.40,48.82 745.57,51.90 748.16,55.14 750.26,58.75 751.77,62.48 752.60,66.30 752.85,70.31 752.42,74.35 750.75,79.34 748.13,84.43 745.45,88.78 742.77,92.14 739.90,94.97 733.61,100.31 721.74,107.49 664.55,133.95 649.51,142.95 639.61,150.66 630.49,159.51 624.11,168.01 619.39,177.14 616.62,187.66 615.41,197.34 615.35,200.97 615.75,205.08 621.98,237.42 627.68,272.17 627.50,280.64 626.11,287.86 623.06,297.51 618.96,306.14 616.86,309.16 614.61,311.63 611.93,313.97 605.24,318.23 597.97,321.53 592.76,322.95 587.39,323.50 579.90,323.07 571.27,321.81 537.73,315.45 533.53,315.33 529.74,315.82 524.56,316.93 518.80,318.66 513.59,321.22 509.21,324.83 505.36,329.21 502.52,333.71 501.07,337.44 500.30,341.23 500.15,344.99 500.52,348.63 501.47,352.24 503.08,355.69 506.22,359.73 510.35,363.58 514.54,366.73 519.01,369.16 524.53,371.11 571.05,381.00 601.51,385.57 629.23,387.11 640.72,385.13 650.50,381.50 659.93,376.41 668.38,369.87 675.65,361.49 681.54,352.55 684.93,345.79 687.49,339.01 691.34,324.43 694.67,281.29 698.40,238.28 700.41,230.30 703.12,223.98 706.14,218.55 709.78,213.18 713.82,208.74 717.43,205.97 721.31,203.84 725.29,202.33 729.20,201.50 733.21,201.22 737.09,201.56 740.86,202.67 744.52,204.43 747.76,206.59 751.61,210.56 754.61,214.73 755.96,217.13 757.01,219.57 758.18,222.90 759.11,226.57 760.00,236.09 756.89,313.45 749.95,390.22 746.90,403.23 743.66,412.82 742.15,416.49 740.18,419.88 733.39,428.76 725.13,437.55 719.00,442.42 712.59,446.27 705.40,449.45 698.53,451.76 691.10,453.27 675.87,453.95 660.61,452.69 499.87,425.12 449.83,424.29 433.37,426.51 400.88,434.71 395.79,435.39"
        fill="none"
        stroke="#e94560"
        stroke-width="8.0"
        stroke-linejoin="round"
        stroke-linecap="round"/>
  <!-- Start/finish line -->
  <line x1="398.42" y1="455.22" x2="393.16" y2="415.57"
        stroke="#f5f5f5" stroke-width="9.6"
        stroke-linecap="round"/>
</svg>
