<?xml version="1.0" encoding="utf-8"?>
<svg xmlns="http://www.w3.org/2000/svg"
     width="426.7" height="800.0"
     viewBox="0 0 426.7 800.0">
  <rect width="100%" height="100%" fill="#1a1a2e"/>
  <!-- Track outline -->
  <polyline points="374.78,342.13 373.61,344.98 367.44,355.85 360.21,366.17 333.12,396.08 266.76,462.01 264.63,464.86 263.25,467.44 260.64,473.71 258.65,480.20 258.01,483.34 257.88,486.58 258.31,491.55 259.32,497.35 261.04,502.72 263.46,507.16 266.52,511.20 269.74,514.50 272.24,516.44 274.82,517.90 277.71,518.99 281.86,519.89 286.43,520.24 291.03,519.84 295.82,518.33 300.60,515.91 305.55,512.93 315.84,504.66 325.81,497.03 331.29,494.82 336.52,493.76 341.63,493.39 346.65,493.81 351.68,495.14 356.09,496.92 358.25,498.07 360.21,499.50 363.62,502.88 366.75,506.92 368.93,510.91 370.45,515.05 371.27,519.20 371.57,523.24 371.54,526.38 371.09,529.65 369.60,535.82 367.21,542.39 363.72,548.82 359.89,554.54 355.16,560.25 343.62,571.07 333.52,578.70 291.99,613.03 285.21,621.88 280.80,629.54 279.20,633.07 278.14,636.64 276.68,643.42 276.07,651.15 277.47,661.76 279.89,671.23 281.09,674.12 282.74,677.10 302.97,709.54 304.75,713.21 305.90,716.53 307.15,721.66 307.57,727.22 307.15,731.39 306.16,735.65 304.65,739.69 302.49,743.52 299.78,747.13 296.67,750.35 290.95,754.58 284.81,757.74 280.27,759.28 275.48,760.00 268.14,759.81 261.04,758.75 257.37,757.69 253.89,756.17 247.94,753.06 241.93,749.23 236.98,745.22 232.78,741.15 230.71,738.94 228.42,735.81 195.91,675.56 160.89,611.19 151.35,598.96 129.12,577.80 93.89,552.38 82.83,542.60 72.68,531.72 63.88,520.58 56.96,509.05 51.41,496.98 47.05,484.53 43.83,471.74 40.00,429.79 41.41,398.74 43.16,382.84 46.14,366.94 50.13,351.23 54.94,336.42 60.90,322.78 67.65,310.47 82.57,289.81 92.80,278.91 100.83,272.08 108.51,266.44 111.36,264.79 114.23,263.60 119.95,261.87 126.57,260.75 135.15,260.67 143.24,261.63 147.33,262.88 150.95,264.66 155.17,267.64 158.79,270.91 160.49,272.77 161.85,274.84 163.84,279.20 165.30,284.12 165.86,288.59 165.76,292.97 165.06,296.91 163.74,300.87 161.00,306.43 157.41,311.98 147.94,322.25 115.53,352.29 110.64,358.75 107.34,364.39 105.80,367.63 104.69,371.22 102.90,382.12 102.19,393.15 102.51,397.01 103.36,400.65 105.75,408.07 108.75,415.33 110.67,418.89 112.98,422.21 118.27,428.22 124.12,433.70 127.31,436.01 130.93,437.90 139.75,441.28 149.94,443.75 160.17,443.99 169.19,443.14 175.78,441.70 188.94,436.94 202.31,430.38 227.73,411.71 250.83,388.93 260.33,376.48 268.12,363.32 272.45,353.33 275.75,342.53 277.02,331.47 276.92,320.84 275.96,313.29 274.31,306.19 269.26,292.20 261.84,279.07 252.40,266.73 241.26,255.41 203.54,225.02 192.93,213.43 184.34,200.90 177.67,187.85 173.12,174.50 170.78,160.49 170.28,145.84 171.37,131.22 174.48,116.76 179.55,102.77 186.84,89.64 195.88,77.59 206.35,66.48 218.29,56.78 231.59,49.09 245.84,43.80 260.59,40.72 275.53,40.00 290.61,41.30 305.66,45.02 320.20,51.14 333.57,59.36 345.35,69.33 355.37,80.81 363.48,93.39 370.05,106.55 375.00,120.19 378.74,134.06 382.84,162.01 386.72,255.75 385.95,293.53 382.57,317.81 378.34,333.49 374.78,342.13"
        fill="none"
        stroke="#e94560"
        stroke-width="8.0"
        stroke-linejoin="round"
        stroke-linecap="round"/>
  <!-- Start/finish line -->
  <line x1="393.27" y1="349.75" x2="356.29" y2="334.51"
        stroke="#f5f5f5" stroke-width="9.6"
        stroke-linecap="round"/>
</svg>
