<?xml version="1.0" encoding="utf-8"?>
<svg xmlns="http://www.w3.org/2000/svg"
     width="800.0" height="242.8"
     viewBox="0 0 800.0 242.8">
  <rect width="100%" height="100%" fill="#1a1a2e"/>
  <!-- Track outline -->
  <polyline points="516.92,58.99 471.98,61.48 409.81,69.96 385.88,76.33 364.43,84.67 343.61,95.79 324.73,108.07 300.06,127.62 293.88,132.06 287.88,135.55 282.89,137.70 277.59,139.41 272.38,140.15 268.75,139.90 265.09,139.17 261.58,137.94 258.39,136.29 254.49,133.19 251.08,129.27 248.24,124.92 245.12,117.32 243.23,109.11 242.63,100.87 242.34,92.69 240.13,78.66 237.73,70.73 234.37,63.13 231.63,58.84 228.46,54.89 224.90,51.43 218.87,47.35 212.17,44.20 205.58,41.68 196.94,40.00 141.03,40.40 85.40,43.89 77.36,44.72 71.06,46.04 63.53,48.46 56.39,51.98 51.79,55.13 47.51,58.84 44.12,63.07 42.30,66.65 40.94,70.57 40.15,74.65 40.00,78.57 40.58,82.43 41.82,86.35 43.58,90.03 45.69,93.24 48.93,96.55 52.83,99.28 57.12,101.42 62.23,103.11 67.77,104.15 73.34,104.67 89.80,103.35 120.50,98.82 127.86,98.48 134.69,98.85 143.29,100.17 151.86,102.56 159.82,106.17 167.23,110.80 173.94,116.37 179.80,122.81 184.59,129.88 188.39,137.54 191.08,145.78 193.04,154.27 194.35,162.82 196.02,171.12 199.04,178.50 203.14,185.18 206.50,189.10 210.33,192.66 214.49,195.69 221.44,199.21 229.04,201.57 236.60,202.64 246.81,202.80 439.39,191.68 469.63,189.90 476.97,188.70 483.55,186.84 491.08,183.62 498.10,179.27 502.32,175.62 506.12,171.46 508.81,166.86 509.77,163.89 510.40,160.61 510.65,157.30 510.43,154.09 509.77,151.15 508.23,147.93 505.93,144.93 503.16,142.23 500.21,139.99 495.80,137.76 490.89,136.29 485.93,135.34 478.64,134.88 471.30,135.64 463.39,138.22 455.73,141.68 449.51,145.17 443.27,148.42 435.83,150.99 428.11,152.37 422.76,152.40 417.36,151.76 412.47,150.16 409.25,148.27 406.25,145.85 403.61,143.03 401.50,140.02 399.93,136.87 398.79,133.41 398.11,129.85 398.01,126.36 398.52,122.84 399.61,119.22 401.19,115.79 403.17,112.76 406.78,109.21 411.21,106.23 415.93,103.91 423.36,101.70 431.09,100.60 445.59,100.38 462.10,102.04 480.09,105.59 552.39,128.93 569.92,132.55 584.68,134.23 593.64,134.27 601.90,133.35 619.55,128.35 640.66,118.37 656.91,114.78 671.10,114.75 695.55,115.98 719.78,116.99 728.94,115.88 736.59,113.62 741.45,111.23 746.01,108.22 750.02,104.82 753.39,101.27 756.30,97.35 758.40,93.06 759.44,89.20 759.98,85.00 760.00,80.75 759.49,76.73 757.97,71.98 755.59,67.51 752.66,63.34 746.78,57.49 740.00,52.59 733.56,48.98 726.71,46.25 719.88,44.44 710.51,43.55 516.92,58.99"
        fill="none"
        stroke="#e94560"
        stroke-width="8.0"
        stroke-linejoin="round"
        stroke-linecap="round"/>
  <!-- Start/finish line -->
  <line x1="518.42" y1="78.94" x2="515.42" y2="39.05"
        stroke="#f5f5f5" stroke-width="9.6"
        stroke-linecap="round"/>
</svg>
