<?xml version="1.0" encoding="utf-8"?>
<svg xmlns="http://www.w3.org/2000/svg"
     width="800.0" height="765.4"
     viewBox="0 0 800.0 765.4">
  <rect width="100%" height="100%" fill="#1a1a2e"/>
  <!-- Track outline -->
  <polyline points="56.61,381.35 53.35,408.06 40.00,554.11 42.95,588.76 48.11,615.98 55.16,637.45 64.34,657.23 76.05,675.01 89.91,690.52 105.55,703.59 122.98,714.06 132.30,717.96 141.94,721.03 151.69,723.40 162.09,724.90 177.70,725.37 192.98,724.53 201.85,723.27 210.01,721.27 217.97,718.66 226.39,714.83 242.74,704.99 257.96,693.52 263.97,686.98 268.76,680.24 273.46,672.81 277.49,665.00 280.35,657.76 282.56,650.16 284.46,640.92 285.37,631.42 284.80,622.75 283.44,614.24 281.82,605.94 279.47,597.97 275.82,590.60 271.59,583.66 267.68,577.29 263.23,571.29 256.71,564.98 249.57,559.35 236.25,551.04 208.31,536.67 195.70,527.76 188.95,521.79 182.27,514.59 173.48,502.41 165.77,489.47 161.75,481.04 158.77,472.73 156.48,464.19 155.14,455.59 155.20,447.49 156.05,439.38 157.07,431.04 158.89,422.94 161.97,415.67 165.91,408.56 171.21,399.86 177.22,391.72 189.24,380.72 195.44,375.48 202.10,370.78 210.69,366.81 219.82,363.57 238.21,358.24 257.51,354.07 342.73,339.89 360.75,338.83 368.80,339.59 376.76,341.23 385.69,343.83 394.22,347.60 399.09,350.80 403.66,354.60 407.62,358.90 411.00,363.71 413.83,369.01 415.81,374.58 416.72,380.48 416.78,386.65 416.21,392.59 414.23,400.16 411.31,407.36 403.51,422.11 400.43,430.08 398.13,438.31 396.97,446.28 396.60,454.39 398.10,471.30 398.98,478.70 401.11,487.24 419.64,523.86 439.68,560.38 446.62,576.69 450.61,593.83 451.95,602.07 452.40,610.27 450.98,618.24 449.34,626.35 448.74,635.45 449.11,644.49 450.70,652.33 453.17,659.87 456.40,667.44 460.28,674.71 464.67,681.61 469.69,688.01 475.67,693.82 482.19,699.09 496.81,708.83 503.95,712.73 512.93,715.83 548.47,718.60 591.97,718.56 638.82,718.06 677.16,715.30 685.32,713.13 691.79,710.26 698.90,706.32 705.70,701.56 712.16,695.95 718.17,689.62 723.81,682.58 728.85,674.91 733.13,666.77 736.51,658.17 738.72,649.19 739.71,640.02 739.26,630.88 737.64,621.95 735.12,613.61 731.72,605.77 727.66,598.77 722.79,592.36 716.56,586.19 709.61,580.82 702.44,576.45 694.85,572.95 686.37,570.25 677.76,568.35 662.03,566.48 645.90,567.08 628.82,565.38 620.00,563.28 610.73,560.01 596.00,553.04 581.97,544.80 574.43,539.30 568.20,533.20 563.15,525.69 558.96,517.46 552.50,500.81 550.12,493.61 548.59,484.71 557.00,397.86 561.99,349.03 563.66,339.96 565.96,332.29 569.78,324.22 574.63,316.95 580.07,311.25 586.28,306.51 593.67,302.34 601.64,299.47 607.31,298.51 613.14,298.27 618.92,298.74 624.76,299.94 630.54,301.84 636.07,304.44 643.67,309.38 650.95,316.21 661.29,330.92 670.98,346.23 682.04,360.61 689.07,366.91 696.83,371.98 702.44,374.45 708.36,376.21 714.34,377.11 720.61,377.08 726.93,376.15 732.74,374.35 737.30,371.91 741.47,368.78 745.26,365.14 750.48,358.60 754.76,351.10 757.90,343.76 760.00,333.62 759.21,248.75 752.66,165.50 750.65,157.43 748.32,151.43 742.17,136.85 733.70,122.68 722.93,108.44 710.49,96.80 696.77,87.06 681.56,79.09 666.76,73.22 657.52,70.45 648.74,68.75 640.21,67.68 615.84,68.48 578.26,73.18 558.67,77.12 551.76,79.62 544.14,84.19 536.74,89.69 522.00,101.77 515.68,108.97 509.33,117.81 484.57,161.20 474.08,174.67 462.74,185.95 455.18,191.95 446.96,197.15 438.12,201.05 428.85,203.69 419.10,205.16 409.24,205.19 399.18,203.52 389.74,200.45 382.80,196.92 376.59,192.42 371.07,186.95 366.19,180.71 361.97,174.17 358.28,166.40 349.70,133.18 343.77,116.14 334.68,100.03 329.18,92.36 323.03,85.26 315.97,78.95 308.41,73.35 292.28,63.98 242.18,44.70 224.89,40.80 207.69,40.00 191.39,41.93 157.95,51.97 141.12,59.54 133.38,63.91 126.10,68.98 119.49,75.05 113.34,81.79 102.26,96.66 93.14,113.27 78.88,149.96 70.92,190.15 67.40,274.33 56.95,378.48 56.61,381.35"
        fill="none"
        stroke="#e94560"
        stroke-width="8.0"
        stroke-linejoin="round"
        stroke-linecap="round"/>
  <!-- Start/finish line -->
  <line x1="76.46" y1="383.77" x2="36.75" y2="378.93"
        stroke="#f5f5f5" stroke-width="9.6"
        stroke-linecap="round"/>
</svg>
