<?xml version="1.0" encoding="utf-8"?>
<svg xmlns="http://www.w3.org/2000/svg"
     width="800.0" height="615.3"
     viewBox="0 0 800.0 615.3">
  <rect width="100%" height="100%" fill="#1a1a2e"/>
  <!-- Track outline -->
  <polyline points="522.06,222.10 381.11,74.47 370.05,64.34 359.33,56.49 348.09,50.23 334.27,44.56 323.64,41.38 312.23,40.00 297.54,42.60 276.19,49.44 262.08,54.64 199.99,78.92 185.39,86.14 173.67,95.15 163.48,104.64 108.97,164.30 68.67,213.99 53.64,237.05 44.31,262.56 41.52,275.87 40.09,289.45 40.00,303.08 41.26,316.65 47.71,343.43 57.30,368.41 62.96,379.54 69.76,390.31 79.52,402.50 90.72,413.75 102.35,422.92 114.77,430.34 122.83,434.00 131.11,436.87 139.60,438.35 146.62,438.51 153.94,437.87 161.04,436.39 167.49,434.00 172.98,430.82 178.12,426.74 182.61,422.02 186.18,416.93 188.88,411.36 190.84,405.16 191.89,398.79 192.02,392.59 190.58,384.63 187.44,376.73 182.78,368.62 164.35,349.48 145.09,330.60 137.42,319.14 132.06,307.64 128.23,294.38 126.57,280.59 127.53,266.49 130.71,252.49 136.03,238.49 143.09,224.96 161.39,199.19 178.29,181.06 197.86,164.62 220.34,150.94 244.17,140.86 255.80,137.57 267.35,134.71 281.07,133.65 295.32,133.65 309.22,136.30 320.03,141.02 330.27,148.39 336.54,154.44 342.64,161.59 347.39,169.02 351.48,176.39 354.53,184.66 356.50,192.40 356.19,199.56 353.66,205.71 350.57,210.38 346.21,215.79 342.73,219.61 337.15,224.65 332.49,228.36 326.39,232.12 319.68,235.20 310.48,238.12 301.51,239.07 275.15,238.17 248.22,236.05 239.47,236.74 231.75,238.12 224.43,240.66 216.33,245.06 208.62,250.84 202.30,257.63 198.68,263.46 195.81,270.04 193.80,276.93 192.67,283.83 192.63,293.53 194.20,303.50 197.33,312.78 202.13,321.26 208.49,329.11 215.72,335.58 223.74,340.46 232.67,344.07 241.82,346.13 250.58,346.56 259.59,345.45 270.44,343.11 323.34,324.82 374.97,305.89 398.41,300.95 410.65,299.79 423.03,299.73 448.04,303.34 473.13,310.61 497.71,321.42 521.37,335.42 544.15,351.92 565.94,370.90 586.24,392.27 606.94,416.50 624.71,441.75 647.59,486.93 665.32,535.24 672.51,549.87 680.79,558.67 688.37,564.51 696.87,569.49 705.58,572.99 711.81,574.48 718.22,575.33 724.53,575.22 730.55,574.05 736.65,571.35 742.57,567.37 747.93,562.55 752.29,557.35 756.17,549.92 758.65,541.65 760.00,533.11 759.91,519.06 757.56,505.12 754.25,494.19 748.76,482.37 730.63,451.66 701.83,411.94 660.18,366.71 522.06,222.10"
        fill="none"
        stroke="#e94560"
        stroke-width="8.0"
        stroke-linejoin="round"
        stroke-linecap="round"/>
  <!-- Start/finish line -->
  <line x1="507.60" y1="235.91" x2="536.53" y2="208.29"
        stroke="#f5f5f5" stroke-width="9.6"
        stroke-linecap="round"/>
</svg>
