<?xml version="1.0" encoding="utf-8"?>
<svg xmlns="http://www.w3.org/2000/svg"
     width="800.0" height="256.2"
     viewBox="0 0 800.0 256.2">
  <rect width="100%" height="100%" fill="#1a1a2e"/>
  <!-- Track outline -->
  <polyline points="464.14,93.45 581.17,116.71 601.96,117.20 614.91,115.98 621.22,116.11 627.38,116.96 632.92,118.91 638.24,121.40 643.22,124.18 648.25,126.69 653.29,128.18 658.95,128.87 670.63,127.71 682.48,126.29 688.81,126.54 694.61,127.47 700.83,129.27 706.67,131.71 710.78,134.03 715.12,137.12 739.11,157.85 747.87,166.92 751.54,171.36 754.74,176.01 757.18,180.72 758.95,185.65 759.64,188.96 760.00,192.32 759.86,195.72 759.09,199.54 757.74,203.38 755.89,206.81 753.53,209.67 750.67,212.14 747.59,214.03 744.21,215.36 740.58,216.10 736.95,216.21 733.21,215.54 729.50,214.18 726.08,212.45 722.07,209.43 718.48,205.81 715.06,201.83 711.71,197.07 706.39,187.27 700.93,177.43 698.38,173.78 695.86,170.65 693.08,168.16 690.12,166.49 686.95,165.36 683.67,164.81 680.91,164.72 678.01,164.98 675.17,165.63 672.61,166.67 670.47,168.09 668.54,169.92 666.75,172.09 665.07,174.63 661.17,184.74 657.46,195.10 655.42,198.83 653.25,202.01 650.71,204.50 648.45,205.85 645.92,206.85 643.28,207.43 640.70,207.56 638.02,207.12 635.30,206.16 632.68,204.83 630.32,203.27 627.85,201.16 625.73,198.63 623.68,195.50 619.46,184.65 615.40,173.65 612.64,168.98 609.55,165.21 605.46,161.72 600.91,158.69 596.28,155.89 590.50,153.16 547.08,140.09 471.86,122.94 406.79,111.98 402.44,112.11 399.40,112.69 396.68,113.94 394.96,115.09 393.25,116.54 391.72,118.20 390.45,120.03 389.56,121.94 389.04,124.56 389.04,127.47 389.42,130.40 390.05,133.14 391.28,136.36 393.01,139.36 395.10,142.05 397.76,144.47 400.81,146.52 404.09,148.27 409.13,150.45 415.57,152.09 472.40,156.20 528.27,163.07 539.17,165.47 542.91,166.89 546.60,168.65 549.84,170.81 551.74,172.54 553.49,174.45 554.94,176.54 555.97,178.81 556.51,180.85 556.81,183.12 556.87,185.43 556.63,187.65 556.09,189.65 554.82,191.90 552.98,193.92 550.83,195.72 548.63,197.18 545.63,198.61 542.39,199.50 539.06,200.14 534.25,200.74 527.92,200.58 424.24,180.78 413.11,177.87 402.44,174.25 392.36,169.85 383.02,164.61 374.68,158.38 367.46,151.36 360.23,141.16 354.99,130.83 351.21,121.18 348.69,116.11 345.47,111.60 343.25,109.69 340.73,108.03 338.01,106.71 335.27,105.87 332.35,105.49 329.29,105.54 326.27,106.05 323.57,107.00 321.33,108.36 319.28,110.11 317.42,112.29 315.77,114.85 313.56,121.18 312.00,128.80 310.19,135.43 308.62,139.05 306.91,142.16 304.85,144.80 302.96,146.52 300.86,148.00 298.57,149.18 296.21,149.94 293.41,150.25 290.39,150.12 287.39,149.54 284.71,148.58 281.87,146.80 279.35,144.40 277.17,141.69 274.59,136.89 272.48,131.63 268.27,120.29 265.63,114.83 262.33,109.85 259.38,106.85 256.00,104.22 252.51,102.14 247.46,100.27 242.20,99.34 236.46,99.09 230.64,99.71 224.94,101.25 218.73,103.82 205.03,111.58 191.68,119.14 186.64,121.07 182.11,122.29 172.17,123.76 161.72,123.71 150.82,122.31 116.19,113.29 73.90,97.18 62.58,92.00 52.93,86.40 48.88,83.34 45.38,79.67 43.38,76.45 41.71,72.85 40.58,69.13 40.04,65.53 40.00,61.85 40.42,58.29 41.25,54.96 42.54,51.78 44.25,48.93 46.51,46.47 49.23,44.36 52.17,42.67 55.51,41.31 59.10,40.40 62.74,40.00 66.53,40.18 70.36,40.91 73.97,42.04 78.22,44.22 82.59,47.20 100.52,60.96 110.17,66.98 115.30,69.42 120.58,71.29 126.04,72.40 131.58,72.69 136.84,72.02 142.56,70.49 165.59,61.33 175.34,58.76 229.99,50.60 241.86,50.16 253.88,50.62 265.89,52.56 417.95,84.27 464.14,93.45"
        fill="none"
        stroke="#e94560"
        stroke-width="8.0"
        stroke-linejoin="round"
        stroke-linecap="round"/>
  <!-- Start/finish line -->
  <line x1="468.04" y1="73.83" x2="460.24" y2="113.06"
        stroke="#f5f5f5" stroke-width="9.6"
        stroke-linecap="round"/>
</svg>
