<?xml version="1.0" encoding="utf-8"?>
<svg xmlns="http://www.w3.org/2000/svg"
     width="597.9" height="800.0"
     viewBox="0 0 597.9 800.0">
  <rect width="100%" height="100%" fill="#1a1a2e"/>
  <!-- Track outline -->
  <polyline points="298.31,615.57 98.20,278.10 94.81,271.99 92.15,266.29 90.26,261.26 88.72,254.86 87.50,248.42 87.08,241.83 87.25,235.57 88.16,229.41 89.14,224.94 90.30,221.88 92.19,218.26 94.63,215.11 98.10,210.83 101.45,207.67 106.14,203.96 110.79,201.42 115.17,199.53 120.87,197.94 126.74,196.57 132.65,195.96 137.87,196.29 143.22,197.56 148.50,199.25 153.26,202.31 158.43,207.02 162.42,211.86 165.64,216.71 167.98,222.07 169.59,227.90 173.51,248.42 179.17,296.97 180.29,303.79 181.62,309.15 183.23,314.52 185.40,319.88 188.06,324.35 191.10,328.25 194.49,331.22 197.85,333.48 201.49,335.26 205.37,336.16 209.74,336.49 215.38,336.06 219.75,334.89 224.36,333.19 229.26,331.31 234.61,327.69 238.22,322.98 240.52,317.43 242.34,311.36 243.15,302.94 242.48,293.53 211.95,162.04 210.55,157.00 206.81,143.74 205.79,140.35 204.64,137.25 202.78,134.23 200.51,130.75 197.50,126.85 193.97,122.75 190.02,118.71 185.65,114.62 181.06,111.32 175.99,108.64 170.36,107.04 164.69,106.29 158.57,106.66 152.73,107.94 146.96,109.86 141.22,112.97 135.00,117.25 122.79,127.18 91.70,152.91 87.15,156.68 82.53,160.20 78.23,162.93 73.96,164.77 68.82,165.38 64.03,165.05 59.06,163.92 53.99,162.37 50.28,160.49 47.49,158.18 44.79,154.42 42.97,151.41 41.61,148.40 40.66,145.01 40.21,142.19 40.00,139.08 40.28,135.74 40.80,132.49 41.47,129.81 42.48,127.18 43.99,124.31 45.35,121.81 46.93,119.32 49.06,116.50 51.33,114.38 53.85,112.26 147.31,48.94 151.96,46.30 157.10,43.43 161.65,41.36 166.20,40.33 171.37,40.00 176.69,40.28 182.15,41.51 187.74,43.29 192.85,45.36 197.08,47.76 201.63,50.63 205.37,53.31 209.22,57.88 213.28,64.65 226.64,92.93 248.04,145.34 250.46,150.79 253.05,156.11 256.16,161.66 259.76,167.31 311.53,244.28 315.03,249.64 317.12,253.21 319.19,257.59 321.11,262.44 322.72,268.50 324.02,275.99 324.64,282.01 324.29,287.46 323.04,294.05 321.25,299.13 319.33,302.90 316.84,306.80 313.17,310.38 243.78,367.02 238.39,371.91 234.82,376.38 232.37,381.13 230.63,386.50 229.86,392.05 229.68,396.14 229.79,400.71 230.38,404.47 231.68,408.52 233.07,411.95 234.89,415.81 236.96,418.72 239.82,421.27 243.25,423.71 248.01,425.78 258.47,428.09 405.51,448.74 413.14,450.29 418.98,452.41 424.36,455.37 429.19,459.18 433.53,463.98 439.65,471.75 445.67,481.77 456.19,499.55 551.58,696.53 554.20,702.46 556.68,708.67 557.94,715.68 557.84,722.41 557.07,728.10 555.07,733.51 552.38,739.11 548.60,745.32 543.99,749.79 539.44,753.37 535.03,755.81 529.44,758.35 522.65,759.91 518.31,760.00 512.93,759.06 507.02,756.57 501.42,752.80 496.98,749.23 492.54,742.88 489.00,736.66 485.26,729.04 482.60,720.81 479.38,708.11 442.10,557.61 440.52,552.48 438.29,546.22 435.42,540.76 431.74,536.06 427.02,531.50 422.16,528.81 416.70,527.31 410.55,526.46 404.18,527.03 397.68,529.24 391.45,531.87 385.50,536.11 381.34,540.34 377.60,545.61 375.50,550.78 375.15,556.01 375.89,561.18 377.36,567.25 379.52,572.66 384.18,581.83 389.42,590.59 408.69,622.62 413.07,631.00 415.69,636.83 417.58,643.32 418.10,649.11 417.05,655.56 415.59,660.97 412.93,665.91 409.29,671.04 405.30,675.69 400.93,680.35 394.70,685.01 389.18,688.25 382.22,691.31 376.06,693.01 367.81,693.43 360.74,691.59 352.35,688.35 345.70,684.49 339.51,680.12 334.65,675.32 328.21,666.19 298.31,615.57"
        fill="none"
        stroke="#e94560"
        stroke-width="8.0"
        stroke-linejoin="round"
        stroke-linecap="round"/>
  <!-- Start/finish line -->
  <line x1="281.10" y1="625.76" x2="315.51" y2="605.37"
        stroke="#f5f5f5" stroke-width="9.6"
        stroke-linecap="round"/>
</svg>
