<?xml version="1.0" encoding="utf-8"?>
<svg xmlns="http://www.w3.org/2000/svg"
     width="800.0" height="707.6"
     viewBox="0 0 800.0 707.6">
  <rect width="100%" height="100%" fill="#1a1a2e"/>
  <!-- Track outline -->
  <polyline points="701.24,191.66 707.06,205.48 722.01,239.47 735.26,273.99 745.23,301.39 751.59,317.99 757.80,336.68 760.00,353.05 758.37,360.52 755.16,367.28 751.08,373.27 746.82,378.67 740.64,385.02 733.56,390.06 724.68,394.92 683.26,410.16 636.82,422.68 581.16,432.53 567.44,436.20 555.20,441.36 542.31,450.08 530.42,460.76 521.69,470.90 513.81,482.11 499.26,507.79 488.79,533.89 480.34,561.11 476.43,590.41 468.85,620.84 461.70,634.13 442.85,648.36 417.32,652.99 397.92,649.43 381.60,644.80 369.36,640.24 357.84,635.25 348.81,631.58 333.93,627.78 318.83,626.00 305.51,625.23 292.18,625.64 262.64,630.69 146.72,660.99 119.56,665.38 104.72,667.40 89.84,667.58 80.19,665.80 70.70,662.77 62.17,657.73 57.12,652.99 52.46,647.29 48.34,640.95 45.09,634.13 42.31,625.35 40.61,615.80 40.00,606.31 41.52,592.25 44.91,578.43 55.42,551.86 86.26,497.59 95.58,485.02 106.38,473.33 178.03,413.37 199.88,397.95 225.34,382.94 250.33,371.85 265.02,366.87 280.01,364.02 289.83,364.14 299.62,365.68 308.83,369.18 315.08,373.04 321.15,377.96 326.63,383.77 331.15,390.30 335.09,398.90 337.94,408.50 339.27,418.11 337.94,431.22 334.72,444.39 326.53,473.27 323.24,488.81 321.76,504.35 322.48,514.14 324.29,523.75 327.28,532.35 331.00,538.69 335.74,544.39 341.12,549.25 346.68,553.05 351.91,555.60 357.62,557.50 363.51,558.56 369.29,558.74 374.74,557.91 380.73,555.54 386.58,551.80 392.04,547.00 396.77,541.54 401.39,534.25 405.18,525.88 408.36,515.92 412.19,488.46 415.58,460.28 419.81,444.15 425.19,430.09 432.48,416.39 441.26,404.35 448.45,397.00 456.36,390.59 464.77,385.31 479.22,379.38 496.48,375.53 542.13,372.98 587.16,370.43 602.65,366.87 615.44,361.29 623.09,356.31 630.24,350.32 636.45,343.14 641.44,335.43 645.66,326.77 648.30,317.52 649.06,307.85 648.41,297.71 646.49,288.22 642.70,278.85 637.36,270.25 631.22,262.66 623.16,255.24 614.03,249.19 604.71,244.80 595.54,242.37 586.22,241.54 576.79,241.72 562.13,243.56 547.58,247.59 520.10,261.53 468.96,290.53 444.47,301.15 430.93,305.24 417.03,307.97 402.15,309.16 387.31,308.03 377.81,305.72 368.45,302.22 359.68,297.29 351.91,291.01 344.66,283.42 338.34,275.11 331.58,263.61 326.74,250.91 324.25,237.45 323.93,223.33 326.45,207.73 331.11,192.85 337.11,179.98 344.51,168.35 353.50,157.14 365.02,145.63 442.13,83.48 467.48,65.92 491.96,52.04 507.02,45.81 522.66,41.48 538.12,40.00 553.68,40.95 569.93,44.63 585.57,50.38 598.07,56.61 609.77,64.20 620.82,73.16 631.33,83.42 650.18,106.49 677.34,148.18 701.24,191.66"
        fill="none"
        stroke="#e94560"
        stroke-width="8.0"
        stroke-linejoin="round"
        stroke-linecap="round"/>
  <!-- Start/finish line -->
  <line x1="719.00" y1="182.45" x2="683.49" y2="200.87"
        stroke="#f5f5f5" stroke-width="9.6"
        stroke-linecap="round"/>
</svg>
