<?xml version="1.0" encoding="utf-8"?>
<svg xmlns="http://www.w3.org/2000/svg"
     width="594.4" height="800.0"
     viewBox="0 0 594.4 800.0">
  <rect width="100%" height="100%" fill="#1a1a2e"/>
  <!-- Track outline -->
  <polyline points="551.32,433.92 551.46,214.18 542.28,160.15 533.24,133.35 521.37,108.20 513.70,96.86 505.08,86.29 495.61,76.39 485.30,67.47 474.14,59.74 462.09,53.40 449.19,48.61 433.98,45.15 398.66,41.03 355.62,40.00 217.47,55.26 186.82,55.93 158.61,51.91 131.11,48.56 117.83,49.12 106.25,51.80 98.72,55.15 91.61,59.59 85.44,65.00 80.54,71.34 76.54,78.56 73.62,86.24 71.69,94.59 70.84,103.35 71.31,112.11 73.57,121.24 77.29,130.31 81.81,139.02 89.58,150.67 100.79,163.76 159.32,224.85 220.67,280.52 230.04,286.39 237.86,289.85 245.77,291.91 254.01,292.99 262.34,292.78 270.40,290.98 276.89,288.20 283.44,284.23 289.47,279.54 294.36,274.33 297.71,269.48 300.30,264.23 302.18,258.35 303.50,251.70 302.70,234.07 299.31,213.51 298.13,195.31 299.68,185.31 302.32,176.49 306.14,168.61 311.27,161.44 317.53,155.21 324.45,150.31 329.91,147.68 335.85,145.77 341.87,144.74 347.81,144.54 355.53,145.82 363.11,148.66 370.22,152.58 376.91,157.84 383.08,164.33 388.40,171.55 394.94,184.69 399.46,198.66 401.63,210.52 402.57,222.42 402.15,247.89 394.47,489.90 396.21,547.11 394.61,572.84 391.74,584.43 387.36,595.31 383.41,602.16 378.65,608.56 373.05,614.33 365.42,620.41 356.66,625.72 347.57,629.18 338.30,630.36 328.69,629.74 319.27,627.73 309.71,624.07 300.34,618.92 291.96,613.04 282.69,604.38 274.92,594.43 268.23,582.89 262.67,570.36 254.29,542.68 244.31,476.86 226.65,415.52 199.77,362.68 181.50,337.11 171.84,326.29 161.48,316.65 150.65,308.61 139.17,302.16 131.35,298.92 123.30,296.39 114.87,295.05 104.60,294.90 93.87,296.19 83.84,299.12 74.94,303.92 66.65,310.21 59.78,317.27 53.42,327.37 48.81,338.45 45.18,350.62 42.68,363.35 40.00,390.10 45.70,510.10 47.86,679.38 51.72,695.15 57.19,707.06 64.58,718.71 73.48,728.81 79.84,734.38 86.76,739.18 93.96,742.89 101.40,745.46 109.17,746.96 117.18,747.27 126.50,745.98 136.15,743.09 146.18,738.97 167.28,725.52 187.99,711.96 200.76,706.65 213.14,703.51 226.61,702.06 240.31,702.53 253.78,704.90 268.23,709.79 295.59,725.57 323.37,742.32 340.32,749.79 355.77,754.95 379.12,759.07 403.46,760.00 427.95,756.80 451.68,749.90 474.33,739.38 484.69,733.04 494.91,725.31 508.42,712.11 520.90,697.63 528.53,687.22 535.17,676.08 543.64,658.71 550.42,640.36 553.30,626.44 554.43,611.44 551.18,553.56 551.27,527.94 551.32,433.92"
        fill="none"
        stroke="#e94560"
        stroke-width="8.0"
        stroke-linejoin="round"
        stroke-linecap="round"/>
  <!-- Start/finish line -->
  <line x1="531.32" y1="433.91" x2="571.32" y2="433.93"
        stroke="#f5f5f5" stroke-width="9.6"
        stroke-linecap="round"/>
</svg>
