<?xml version="1.0" encoding="utf-8"?>
<svg xmlns="http://www.w3.org/2000/svg"
     width="524.0" height="800.0"
     viewBox="0 0 524.0 800.0">
  <rect width="100%" height="100%" fill="#1a1a2e"/>
  <!-- Track outline -->
  <polyline points="104.01,498.35 136.47,604.65 151.35,638.97 166.68,665.73 185.93,691.39 206.76,713.16 226.99,729.12 245.25,740.73 259.61,747.64 274.19,752.77 290.35,757.02 322.33,760.00 338.39,759.16 369.74,752.02 384.87,746.05 412.64,729.12 425.40,718.74 447.63,694.02 456.91,680.27 464.09,666.64 470.93,650.16 477.51,626.94 482.04,600.73 483.97,568.65 482.16,532.28 452.89,393.93 389.41,196.51 357.92,134.10 345.00,115.42 315.30,83.08 298.35,69.71 280.01,58.42 260.43,49.76 240.41,43.96 220.46,40.71 201.14,40.00 182.37,41.62 164.58,45.68 147.49,51.42 115.38,69.10 100.59,80.58 86.95,94.04 74.65,109.68 63.95,126.97 54.93,146.24 47.91,167.03 43.07,189.38 40.00,264.86 42.84,292.05 55.23,338.92 61.28,358.32 104.01,498.35"
        fill="none"
        stroke="#e94560"
        stroke-width="8.0"
        stroke-linejoin="round"
        stroke-linecap="round"/>
  <!-- Start/finish line -->
  <line x1="123.14" y1="492.51" x2="84.88" y2="504.19"
        stroke="#f5f5f5" stroke-width="9.6"
        stroke-linecap="round"/>
</svg>
