<?xml version="1.0" encoding="utf-8"?>
<svg xmlns="http://www.w3.org/2000/svg"
     width="537.0" height="800.0"
     viewBox="0 0 537.0 800.0">
  <rect width="100%" height="100%" fill="#1a1a2e"/>
  <!-- Track outline -->
  <polyline points="163.88,56.78 293.03,80.25 336.44,88.01 343.19,89.69 348.92,92.28 353.64,95.19 358.46,99.24 362.84,104.06 364.46,106.55 365.87,109.24 367.78,114.40 370.65,124.25 398.96,222.62 495.96,588.29 496.98,598.21 496.21,607.37 494.17,617.82 492.76,622.80 490.85,627.76 480.91,644.07 416.20,738.49 410.00,745.36 404.24,751.13 400.19,753.95 396.03,756.24 392.63,757.66 389.17,758.67 384.79,759.53 380.32,760.00 372.36,759.78 364.17,758.67 356.65,756.24 349.79,752.70 342.93,747.83 339.64,744.85 336.51,741.41 333.93,737.88 331.21,733.23 317.33,702.47 293.38,646.34 291.50,638.64 290.87,631.23 290.76,624.81 291.92,617.40 294.45,609.61 325.03,532.55 327.95,523.20 330.15,512.84 331.56,502.86 331.95,493.27 328.72,280.31 328.03,274.52 327.11,270.62 325.66,266.40 323.88,262.54 321.69,258.58 319.18,254.91 315.72,250.87 311.94,247.41 308.07,244.91 304.07,243.03 299.75,241.43 295.26,240.24 284.69,238.77 279.33,238.44 273.98,238.63 268.65,239.55 263.41,241.26 258.43,243.93 253.73,247.28 249.93,250.53 246.53,254.33 244.07,258.20 241.69,262.84 233.91,280.46 229.96,288.43 225.94,295.02 222.59,298.21 219.18,300.55 211.59,305.47 206.98,307.89 202.17,309.78 197.19,310.64 192.13,310.80 186.81,310.43 181.67,309.57 177.69,308.52 173.88,307.11 170.15,305.43 166.49,303.21 162.86,300.20 159.45,296.63 156.72,293.11 154.27,289.24 150.54,281.23 149.25,277.55 148.26,273.63 147.61,268.98 147.46,264.19 148.06,259.59 149.14,255.18 150.51,250.80 152.25,246.78 154.80,242.81 157.61,239.42 160.24,236.76 162.97,234.51 166.07,232.31 169.51,230.43 175.05,228.50 180.97,226.99 191.85,224.70 202.16,222.02 214.00,217.63 243.22,204.46 253.53,200.83 262.89,199.49 274.53,199.30 285.80,200.07 296.11,199.87 300.44,199.05 304.51,197.78 311.01,194.41 314.40,192.47 317.61,190.06 320.10,187.05 322.32,183.66 324.14,180.68 325.72,177.44 326.95,173.94 327.79,170.27 328.04,167.18 327.98,164.05 327.66,160.55 327.04,157.08 325.99,153.37 324.59,149.92 322.52,146.47 320.06,143.51 316.75,140.68 313.28,138.41 310.30,136.73 307.24,135.40 303.41,134.21 299.33,133.33 289.52,132.20 255.77,131.82 243.33,132.20 230.49,131.61 120.34,128.40 101.39,126.84 92.04,125.54 84.24,123.99 80.40,122.53 76.69,120.61 70.69,115.93 56.20,103.15 49.83,96.62 46.29,92.31 43.16,87.46 41.35,83.34 40.19,78.83 40.00,73.89 40.39,68.89 41.11,64.44 42.18,60.28 43.58,56.20 45.30,52.46 46.80,49.85 48.46,47.44 50.28,45.44 52.51,43.85 54.93,42.74 57.39,41.83 61.16,40.64 65.20,40.00 70.90,40.22 76.93,41.05 88.93,43.40 100.54,46.65 115.22,49.61 163.88,56.78"
        fill="none"
        stroke="#e94560"
        stroke-width="8.0"
        stroke-linejoin="round"
        stroke-linecap="round"/>
  <!-- Start/finish line -->
  <line x1="167.28" y1="37.07" x2="160.49" y2="76.49"
        stroke="#f5f5f5" stroke-width="9.6"
        stroke-linecap="round"/>
</svg>
