<?xml version="1.0" encoding="utf-8"?>
<svg xmlns="http://www.w3.org/2000/svg"
     width="800.0" height="750.2"
     viewBox="0 0 800.0 750.2">
  <rect width="100%" height="100%" fill="#1a1a2e"/>
  <!-- Track outline -->
  <polyline points="260.68,211.67 219.72,251.27 177.31,293.18 92.32,393.02 71.57,425.37 56.19,455.77 47.32,481.55 40.94,507.29 40.00,527.15 41.00,547.34 43.24,562.17 46.67,575.95 55.93,599.95 67.81,622.12 98.25,660.83 113.33,675.02 122.82,682.07 133.73,688.60 152.77,697.03 172.20,703.80 194.37,708.71 211.60,710.25 231.09,710.16 260.49,706.68 290.18,700.56 331.13,686.25 368.69,666.99 480.91,589.94 624.34,471.01 698.42,383.98 721.12,349.61 738.92,315.52 750.06,284.95 757.18,256.09 759.48,237.12 760.00,220.42 758.93,200.52 750.90,160.59 744.23,144.01 734.58,125.25 717.49,101.65 699.10,79.76 691.65,72.83 684.53,67.44 666.43,56.13 649.11,49.20 631.07,44.78 599.38,41.30 566.77,40.00 555.38,40.85 543.75,43.40 460.87,75.43 422.21,94.44 321.29,161.60 265.34,207.13 260.68,211.67"
        fill="none"
        stroke="#e94560"
        stroke-width="8.0"
        stroke-linejoin="round"
        stroke-linecap="round"/>
  <!-- Start/finish line -->
  <line x1="274.59" y1="226.04" x2="246.77" y2="197.29"
        stroke="#f5f5f5" stroke-width="9.6"
        stroke-linecap="round"/>
</svg>
