<?xml version="1.0" encoding="utf-8"?>
<svg xmlns="http://www.w3.org/2000/svg"
     width="800.0" height="551.4"
     viewBox="0 0 800.0 551.4">
  <rect width="100%" height="100%" fill="#1a1a2e"/>
  <!-- Track outline -->
  <polyline points="447.24,276.24 656.89,185.32 737.91,153.86 744.85,149.20 749.63,144.41 753.91,138.28 757.11,132.00 758.65,127.64 759.58,123.44 760.00,119.35 759.92,115.30 759.31,111.41 758.15,107.63 756.57,104.01 754.26,100.38 749.17,94.68 742.58,89.24 732.56,85.04 719.14,83.49 697.48,79.48 682.10,71.81 662.36,57.81 637.77,44.01 629.71,41.31 622.39,40.04 611.91,40.00 602.31,41.27 598.65,42.81 594.60,44.51 574.21,52.07 547.57,58.97 521.71,62.06 492.22,61.36 440.65,65.56 373.04,75.28 359.74,79.41 350.60,83.42 347.21,85.27 344.44,87.19 341.47,89.66 338.85,92.44 336.80,95.41 335.26,98.61 334.26,102.12 333.76,105.78 333.80,109.79 334.30,113.88 335.22,118.50 336.88,122.90 339.66,126.52 343.01,129.65 346.25,132.27 349.72,134.43 353.26,136.05 356.96,137.17 360.51,137.78 364.79,137.94 379.17,136.63 394.85,135.35 402.83,135.66 411.08,136.93 431.01,143.26 452.21,149.54 465.62,151.20 478.54,150.47 493.80,145.42 509.64,137.78 550.58,114.53 558.52,111.33 565.19,109.44 569.70,108.67 573.86,108.56 576.37,108.83 578.80,109.33 581.07,110.14 583.15,111.25 585.08,112.64 586.81,114.30 589.16,117.39 591.05,120.97 592.29,123.79 593.29,126.83 593.87,130.15 593.79,135.08 593.02,140.44 591.63,145.57 589.97,149.85 587.78,153.90 584.69,157.95 574.52,166.86 559.18,176.73 492.03,211.54 420.80,243.08 398.55,250.06 380.44,253.61 368.49,254.54 357.66,254.19 348.52,253.15 340.00,251.07 332.37,247.75 325.36,243.35 317.38,235.60 309.63,224.96 295.25,197.12 284.30,172.75 280.45,166.01 273.86,158.64 263.61,151.59 246.91,143.22 231.53,137.13 218.66,134.54 208.06,133.89 204.01,134.00 200.43,134.58 195.92,135.74 191.56,137.36 187.90,139.25 184.59,141.56 181.81,144.18 179.50,147.15 177.65,150.55 176.30,154.21 175.33,158.18 174.95,162.65 175.60,170.94 177.19,179.00 178.53,182.82 180.23,186.17 184.59,192.73 204.44,216.75 207.64,221.65 210.18,226.23 211.84,231.02 212.42,236.11 212.11,241.35 211.41,246.52 210.03,253.38 205.86,262.67 189.33,290.28 171.67,323.40 166.97,339.86 165.31,349.62 163.31,357.83 161.65,361.07 159.61,364.43 157.26,367.55 154.60,370.52 151.59,373.18 147.97,375.57 144.11,377.50 140.37,378.85 136.60,379.69 132.78,380.00 128.96,379.77 125.07,379.00 121.25,377.73 117.32,376.07 113.47,373.56 107.73,367.01 102.91,359.72 101.10,356.06 99.90,352.59 98.94,349.23 98.47,341.41 99.05,334.47 101.40,322.09 105.88,310.68 112.08,299.07 123.30,282.41 133.55,266.41 136.75,258.12 138.41,250.33 138.87,242.20 138.10,233.98 135.63,224.73 132.24,216.59 129.89,212.89 127.19,210.04 125.23,208.46 123.11,207.11 120.83,206.03 118.52,205.22 116.09,204.72 113.20,204.53 102.25,205.53 90.07,208.50 82.75,211.47 75.69,215.28 69.22,219.87 63.44,225.27 58.27,231.48 53.65,238.61 48.48,248.87 44.12,260.55 41.19,273.12 40.00,296.64 42.66,323.52 53.38,372.91 68.45,423.07 80.82,456.73 94.00,483.57 99.36,491.17 104.80,497.18 110.85,502.12 117.75,506.01 125.19,508.86 132.32,510.68 137.44,511.37 142.34,511.37 147.39,510.68 154.33,508.67 161.50,505.59 167.86,502.04 173.91,497.33 179.07,491.47 185.32,481.95 192.18,462.40 197.88,426.54 203.47,381.51 211.68,346.30 215.08,337.55 219.08,329.99 224.06,322.82 229.88,316.38 236.43,310.95 244.37,306.32 258.79,300.96 277.40,297.14 324.55,297.37 375.97,296.95 409.12,289.62 444.93,277.25 447.24,276.24"
        fill="none"
        stroke="#e94560"
        stroke-width="8.0"
        stroke-linejoin="round"
        stroke-linecap="round"/>
  <!-- Start/finish line -->
  <line x1="439.28" y1="257.90" x2="455.20" y2="294.59"
        stroke="#f5f5f5" stroke-width="9.6"
        stroke-linecap="round"/>
</svg>
