<?xml version="1.0" encoding="utf-8"?>
<svg xmlns="http://www.w3.org/2000/svg"
     width="365.2" height="800.0"
     viewBox="0 0 365.2 800.0">
  <rect width="100%" height="100%" fill="#1a1a2e"/>
  <!-- Track outline -->
  <polyline points="102.33,417.81 136.45,292.19 188.10,126.57 204.61,89.10 212.94,74.98 221.86,63.01 229.07,55.94 236.83,50.32 245.86,45.50 255.35,42.03 264.10,40.25 273.02,40.00 279.91,40.93 286.90,42.75 293.54,45.41 299.55,48.88 305.21,53.15 310.23,57.97 316.66,66.48 321.47,75.40 323.76,81.83 324.99,88.55 325.20,98.45 324.36,110.46 317.43,173.18 320.84,253.71 310.79,337.96 282.97,479.00 275.17,506.20 266.94,526.71 261.18,535.89 254.86,543.04 248.04,548.91 240.80,553.44 236.62,555.39 232.40,556.82 227.87,557.42 223.09,557.16 217.89,556.19 212.76,554.58 208.20,552.38 204.26,549.51 200.61,545.95 197.48,542.06 195.02,538.17 193.26,533.82 192.28,529.33 191.68,525.31 191.40,521.89 191.58,518.63 192.24,514.19 193.44,509.50 197.34,499.30 225.38,442.80 231.39,427.70 234.72,414.00 235.04,405.88 234.27,397.97 232.37,390.91 229.73,385.66 226.29,381.01 222.36,377.16 219.51,375.05 216.38,373.31 213.12,371.96 209.74,371.11 205.84,370.73 201.73,370.86 197.62,371.54 193.72,372.85 188.13,376.48 182.90,381.43 178.65,386.21 175.80,390.27 173.59,394.37 168.77,405.20 134.16,503.32 128.58,529.92 126.54,553.06 127.59,568.88 130.93,583.38 137.12,598.36 144.07,610.96 147.20,615.57 150.71,619.63 166.56,633.46 183.92,645.47 200.57,658.16 207.88,666.91 213.08,675.16 215.64,679.85 217.51,684.89 219.33,692.20 220.77,700.70 221.06,708.91 220.14,715.51 218.32,721.85 215.72,727.86 209.78,736.65 203.45,743.72 200.82,746.09 198.11,747.99 194.04,750.53 189.08,752.89 179.56,756.28 168.95,758.86 158.23,759.92 148.32,760.00 138.31,758.98 118.53,754.71 102.79,749.38 87.36,742.66 77.31,736.74 68.57,729.93 60.55,721.94 53.70,713.10 48.33,704.17 44.25,694.83 41.65,685.23 40.25,676.22 40.00,666.45 43.30,632.95 47.87,613.58 83.25,488.01 102.33,417.81"
        fill="none"
        stroke="#e94560"
        stroke-width="8.0"
        stroke-linejoin="round"
        stroke-linecap="round"/>
  <!-- Start/finish line -->
  <line x1="83.03" y1="412.56" x2="121.63" y2="423.05"
        stroke="#f5f5f5" stroke-width="9.6"
        stroke-linecap="round"/>
</svg>
