<?xml version="1.0" encoding="utf-8"?>
<svg xmlns="http://www.w3.org/2000/svg"
     width="437.7" height="800.0"
     viewBox="0 0 437.7 800.0">
  <rect width="100%" height="100%" fill="#1a1a2e"/>
  <!-- Track outline -->
  <polyline points="202.45,722.14 230.61,722.68 254.30,724.03 271.71,725.95 290.51,731.38 306.86,738.21 323.19,745.82 338.98,754.28 349.88,758.08 358.86,759.72 368.39,760.00 374.93,757.55 381.19,754.28 388.56,745.57 392.37,737.11 394.01,723.21 392.65,713.43 388.02,697.62 379.85,675.58 370.04,649.41 361.33,620.55 357.52,597.84 354.49,571.74 353.78,550.17 360.12,467.02 376.60,336.32 386.20,250.58 395.31,171.91 397.72,123.04 393.93,99.97 387.73,80.31 379.11,66.55 368.78,53.44 356.37,46.90 341.21,41.39 329.50,40.00 314.34,41.39 302.97,44.12 291.27,48.35 266.43,63.78 249.54,78.96 236.65,95.81 200.89,142.62 193.73,158.19 191.99,166.12 191.30,177.14 192.69,185.07 195.78,193.70 202.67,200.24 211.98,205.08 222.31,207.82 236.11,206.43 248.52,200.24 258.85,189.23 265.74,177.14 271.61,160.61 274.36,148.56 280.20,135.12 290.56,126.17 302.62,122.72 317.43,124.42 328.33,131.57 335.00,144.40 337.77,159.93 336.38,177.49 333.98,189.55 328.80,204.37 322.61,214.71 314.34,227.47 302.97,238.85 290.56,250.22 274.36,260.21 255.75,269.85 236.80,276.74 216.81,281.90 195.09,285.34 173.04,289.82 155.13,296.40 137.55,305.00 116.54,320.14 101.25,333.65 88.45,350.39 81.32,364.26 77.77,377.41 77.06,388.07 80.26,398.03 83.81,404.78 92.35,413.35 104.08,417.61 116.91,417.26 130.77,411.93 146.77,399.80 162.78,383.45 180.93,365.32 197.99,357.50 215.06,352.17 234.27,350.75 253.48,354.30 266.63,359.28 279.08,367.81 289.39,379.54 296.14,393.41 300.78,405.49 302.90,422.23 302.21,438.23 299.72,456.36 294.02,471.32 284.06,493.72 270.20,521.45 263.44,532.86 254.19,542.10 243.15,548.85 232.49,551.34 221.23,549.92 211.14,545.30 205.10,537.83 202.97,524.29 205.10,510.07 210.08,496.56 220.04,482.70 230.35,470.61 238.19,459.91 241.37,449.96 242.46,439.65 237.47,429.70 230.35,424.01 221.82,421.52 211.51,421.88 199.42,427.92 189.09,435.03 178.78,445.70 169.88,457.07 161.00,468.45 150.69,480.57 137.52,492.30 119.03,501.54 98.76,509.00 81.69,516.82 70.30,524.29 58.91,536.98 49.44,550.20 43.47,565.31 40.95,580.45 40.00,595.24 42.21,612.27 45.05,624.85 50.07,639.03 56.70,653.86 67.09,669.60 79.29,682.29 92.65,692.75 108.31,701.13 126.61,709.27 148.66,716.24 171.01,720.01 200.85,722.11 202.45,722.14"
        fill="none"
        stroke="#e94560"
        stroke-width="8.0"
        stroke-linejoin="round"
        stroke-linecap="round"/>
  <!-- Start/finish line -->
  <line x1="202.84" y1="702.15" x2="202.07" y2="742.14"
        stroke="#f5f5f5" stroke-width="9.6"
        stroke-linecap="round"/>
</svg>
