<?xml version="1.0" encoding="utf-8"?>
<svg xmlns="http://www.w3.org/2000/svg"
     width="349.3" height="800.0"
     viewBox="0 0 349.3 800.0">
  <rect width="100%" height="100%" fill="#1a1a2e"/>
  <!-- Track outline -->
  <polyline points="309.19,365.74 309.28,367.48 304.47,559.39 301.68,599.43 298.41,619.58 293.53,639.04 286.67,657.53 277.59,675.07 266.40,691.14 253.45,705.06 239.14,715.94 223.78,724.65 191.72,737.96 127.66,757.67 113.17,759.75 106.10,760.00 98.93,759.36 90.20,756.81 81.70,752.95 74.36,748.35 67.89,742.71 62.36,735.81 57.97,728.17 54.88,720.54 53.09,712.66 52.73,705.33 53.76,697.42 59.20,682.12 65.10,666.52 67.01,658.24 67.97,648.70 63.70,553.16 65.26,535.81 68.37,518.76 84.33,468.27 88.00,450.85 89.59,433.10 88.82,415.38 85.66,398.08 47.80,280.07 41.23,248.98 40.00,233.80 40.39,219.52 41.85,211.27 44.24,203.21 47.29,196.34 51.40,190.14 55.27,186.13 59.76,182.51 64.56,179.69 69.44,177.91 74.60,176.87 79.77,176.50 84.98,176.75 90.21,177.63 95.25,179.14 100.22,181.25 105.01,183.95 109.22,187.32 112.83,191.68 115.87,196.71 118.35,201.83 120.79,208.88 122.40,216.18 124.06,232.15 128.27,293.29 131.76,308.46 135.92,326.18 166.82,404.89 172.28,421.91 175.70,438.49 176.67,446.44 176.88,454.32 176.00,462.01 174.28,469.65 171.70,477.40 168.37,485.04 164.42,492.43 159.31,500.00 135.63,525.39 130.19,531.52 125.94,537.40 123.08,543.66 120.94,551.32 117.27,574.81 115.44,598.82 115.71,607.62 117.04,615.04 118.56,619.61 120.54,623.90 123.08,627.98 126.46,632.24 130.46,636.19 134.83,639.32 138.29,641.04 142.04,642.39 145.82,643.18 149.44,643.24 153.84,641.96 158.08,639.53 162.08,636.78 167.71,632.33 172.70,627.09 176.86,620.92 180.30,614.09 185.79,597.44 192.49,583.67 210.08,554.30 213.89,546.11 216.83,536.98 224.55,476.82 227.46,394.80 232.22,363.74 235.64,349.39 246.79,315.73 250.67,300.28 251.49,292.80 251.59,285.38 250.98,278.02 249.64,270.75 247.49,263.64 244.65,256.77 237.29,244.17 210.41,205.90 203.04,192.17 196.95,175.95 193.18,161.60 190.54,146.05 188.99,129.41 189.49,111.62 192.69,94.97 195.33,87.22 198.61,79.80 206.66,66.46 215.81,55.02 220.80,50.06 226.46,45.86 231.30,43.50 236.57,41.66 242.02,40.46 250.73,40.00 259.33,40.80 266.30,42.33 272.94,44.88 280.43,49.04 287.32,54.38 291.34,58.37 294.92,62.75 297.50,67.53 298.75,72.71 299.00,78.26 298.63,83.81 297.07,92.03 293.95,100.55 285.90,113.80 277.54,126.86 273.89,134.65 271.37,142.16 269.90,150.13 269.40,158.29 269.86,166.87 271.24,175.49 276.62,192.69 288.03,219.18 297.21,248.58 305.82,297.30 309.19,365.74"
        fill="none"
        stroke="#e94560"
        stroke-width="8.0"
        stroke-linejoin="round"
        stroke-linecap="round"/>
  <!-- Start/finish line -->
  <line x1="329.16" y1="364.75" x2="289.21" y2="366.72"
        stroke="#f5f5f5" stroke-width="9.6"
        stroke-linecap="round"/>
</svg>
