<?xml version="1.0" encoding="utf-8"?>
<svg xmlns="http://www.w3.org/2000/svg"
     width="800.0" height="311.0"
     viewBox="0 0 800.0 311.0">
  <rect width="100%" height="100%" fill="#1a1a2e"/>
  <!-- Track outline -->
  <polyline points="264.14,87.24 273.72,86.08 308.63,84.36 329.71,83.95 350.38,84.36 371.01,86.52 401.73,91.61 498.60,113.75 525.67,115.76 539.03,115.07 551.67,113.34 560.12,111.46 569.19,108.33 618.66,82.84 685.87,48.07 699.12,43.20 706.71,41.35 713.95,40.22 718.52,40.00 722.73,40.30 726.62,41.03 730.49,42.29 734.89,44.43 739.13,47.14 742.30,49.71 745.27,52.79 748.57,57.10 751.68,62.01 756.72,72.41 758.20,76.88 759.24,81.62 759.91,87.59 760.00,93.84 759.38,100.13 758.15,106.30 756.22,112.57 753.77,118.54 750.64,124.70 747.15,130.26 743.68,134.69 739.95,138.53 735.49,142.23 730.73,145.45 719.90,150.83 708.02,154.58 695.47,156.31 679.20,155.71 650.71,151.48 570.94,135.93 557.57,134.64 547.00,134.59 541.04,135.13 535.37,136.50 527.26,139.82 519.08,144.25 512.19,148.69 505.87,153.88 500.91,159.22 496.51,165.45 489.42,180.99 480.27,205.97 470.28,227.29 461.93,240.11 453.25,249.67 442.99,257.88 431.55,264.35 419.20,268.68 412.99,270.14 406.94,270.98 401.92,271.02 397.02,270.47 391.83,269.27 386.88,267.56 383.31,265.94 379.86,263.86 375.97,260.90 371.68,256.81 353.15,233.84 327.52,200.88 320.04,193.37 312.93,187.60 305.86,183.05 298.47,179.49 289.14,176.38 279.56,174.37 271.04,173.54 262.49,173.73 252.41,175.24 243.00,177.65 237.76,179.57 233.06,181.96 228.56,184.89 224.34,188.41 220.84,192.04 217.56,196.64 213.65,204.77 209.90,214.24 202.39,235.57 199.17,242.02 195.83,247.40 192.56,251.68 189.11,255.33 185.22,258.67 181.12,261.45 176.61,263.73 171.93,265.48 166.89,266.86 161.95,267.73 158.03,268.05 154.44,267.96 151.98,267.64 149.44,266.95 144.70,265.03 139.14,262.25 120.38,250.71 61.00,202.93 50.73,192.77 47.29,188.11 44.43,183.25 42.62,179.17 41.26,174.92 40.40,170.70 40.00,166.35 40.19,161.95 40.89,157.64 42.20,153.23 44.00,149.09 46.53,144.87 49.50,141.03 53.08,137.10 57.09,133.47 68.56,125.69 82.04,119.34 97.34,114.50 155.40,102.90 222.94,92.20 264.14,87.24"
        fill="none"
        stroke="#e94560"
        stroke-width="8.0"
        stroke-linejoin="round"
        stroke-linecap="round"/>
  <!-- Start/finish line -->
  <line x1="261.75" y1="67.38" x2="266.54" y2="107.10"
        stroke="#f5f5f5" stroke-width="9.6"
        stroke-linecap="round"/>
</svg>
