<?xml version="1.0" encoding="utf-8"?>
<svg xmlns="http://www.w3.org/2000/svg"
     width="313.0" height="800.0"
     viewBox="0 0 313.0 800.0">
  <rect width="100%" height="100%" fill="#1a1a2e"/>
  <!-- Track outline -->
  <polyline points="173.60,259.43 199.91,327.77 211.90,356.68 234.21,408.80 256.77,506.44 270.64,589.47 273.04,632.94 272.42,655.64 269.36,677.01 264.03,696.73 260.23,706.19 255.64,715.27 250.19,723.87 243.87,731.84 236.61,739.11 228.61,745.51 219.95,750.85 210.77,755.09 201.19,758.08 191.36,759.76 181.60,760.00 171.91,758.90 162.37,756.50 153.24,752.89 144.73,748.22 136.95,742.56 130.15,736.32 124.47,729.01 121.40,723.00 119.04,716.40 117.29,708.86 116.45,688.20 116.35,667.47 113.01,647.36 95.88,598.73 79.87,550.07 78.79,543.91 78.14,538.72 78.26,534.20 79.46,530.00 81.41,526.74 84.12,523.64 87.37,520.89 90.88,518.65 94.39,517.12 98.81,516.26 103.57,516.33 108.37,517.12 112.96,518.42 119.07,521.40 124.91,525.52 130.24,530.16 136.73,537.19 142.79,545.67 162.11,580.94 166.03,590.53 168.74,599.68 170.74,609.89 171.63,620.26 169.68,639.90 167.54,650.50 166.12,661.14 166.43,668.29 167.54,675.44 169.80,681.92 172.32,686.16 175.49,690.17 179.17,693.66 183.16,696.45 187.61,698.49 192.56,699.95 197.63,700.69 202.46,700.65 206.95,699.79 211.45,698.22 215.63,696.02 219.26,693.27 222.36,689.81 224.93,685.65 227.04,681.13 228.70,676.46 230.43,666.37 230.62,654.94 226.59,613.66 222.26,595.67 206.26,559.11 170.40,501.61 163.21,485.03 157.95,467.44 155.21,448.86 148.87,327.62 145.77,305.90 141.68,288.93 139.42,282.17 136.85,276.28 133.39,271.22 129.91,267.80 125.84,264.73 121.45,262.30 116.95,260.69 113.30,260.02 109.38,259.75 105.46,259.98 101.74,260.69 98.40,261.99 95.39,263.99 92.58,266.66 90.06,269.80 87.97,273.18 86.36,276.56 84.92,282.06 84.65,287.99 85.25,295.06 93.81,325.81 103.64,356.56 106.79,375.18 108.37,393.21 108.13,403.30 106.33,413.08 104.50,417.67 102.17,422.15 99.31,426.20 95.92,429.34 92.65,431.18 88.88,432.64 84.87,433.58 80.90,433.86 77.32,433.46 74.05,432.17 70.86,430.12 67.88,427.45 65.23,424.51 63.02,421.44 60.45,415.79 58.94,409.43 58.00,402.87 58.22,381.07 61.17,300.28 42.09,174.48 40.00,155.20 40.41,135.64 43.39,116.23 48.27,97.70 52.06,89.45 56.73,81.40 62.81,72.13 69.75,63.53 76.79,57.05 84.51,51.55 93.21,46.56 102.51,42.79 109.17,41.06 116.06,40.00 122.67,40.20 127.33,41.30 131.95,43.10 136.20,45.50 139.85,48.40 142.88,51.86 145.45,55.95 147.38,60.31 148.48,64.74 148.67,69.42 148.07,74.29 146.70,79.12 144.68,83.48 140.34,88.70 134.59,93.30 128.70,97.54 120.05,102.96 111.62,108.58 103.88,115.92 97.44,124.32 94.27,130.33 91.84,136.74 90.54,143.18 90.52,149.38 91.55,155.63 93.45,161.56 97.92,169.33 104.67,177.39 126.42,197.34 148.48,217.41 161.12,234.06 171.34,253.58 173.60,259.43"
        fill="none"
        stroke="#e94560"
        stroke-width="8.0"
        stroke-linejoin="round"
        stroke-linecap="round"/>
  <!-- Start/finish line -->
  <line x1="192.26" y1="252.24" x2="154.93" y2="266.62"
        stroke="#f5f5f5" stroke-width="9.6"
        stroke-linecap="round"/>
</svg>
