<?xml version="1.0" encoding="utf-8"?>
<svg xmlns="http://www.w3.org/2000/svg"
     width="783.5" height="800.0"
     viewBox="0 0 783.5 800.0">
  <rect width="100%" height="100%" fill="#1a1a2e"/>
  <!-- Track outline -->
  <polyline points="278.13,517.77 273.82,497.22 263.70,474.43 256.12,464.79 247.59,456.77 238.42,450.13 228.67,444.86 217.47,440.54 205.85,437.50 193.75,435.65 181.44,435.08 169.13,435.65 155.81,437.88 131.91,446.04 108.45,454.35 96.98,456.68 86.42,457.63 78.44,458.01 70.38,457.77 62.75,455.92 57.65,453.50 52.63,450.32 48.11,446.28 44.62,441.39 42.59,436.50 41.11,430.90 40.24,424.92 40.00,418.99 42.25,405.41 46.50,392.12 56.99,369.48 85.12,325.43 154.15,238.94 187.20,205.62 205.21,190.14 224.58,176.23 244.97,164.18 288.01,145.28 400.49,115.33 586.94,61.60 658.43,42.85 672.85,40.62 685.51,40.00 697.82,40.81 709.68,43.18 716.81,45.27 723.73,48.02 730.02,52.10 734.14,55.81 738.21,60.17 741.54,65.11 743.39,70.43 743.52,75.84 742.54,81.82 740.82,87.75 738.74,93.07 734.56,99.76 729.23,105.41 723.41,110.35 712.48,117.23 700.96,122.59 680.46,130.52 517.10,170.73 376.63,194.75 349.66,202.20 328.56,210.32 317.70,216.20 308.32,222.90 299.73,230.16 291.89,238.47 285.57,247.15 280.19,256.98 276.01,267.75 272.89,279.48 270.94,291.77 270.07,304.49 270.36,317.50 271.78,330.46 274.66,343.94 278.68,357.09 290.65,383.86 353.97,488.81 365.83,512.41 374.86,537.52 379.75,563.39 383.21,611.23 385.72,622.53 389.39,632.12 393.96,640.09 399.59,647.59 405.77,654.00 413.22,659.51 421.33,663.73 429.65,667.01 438.37,669.67 447.27,671.38 456.12,671.61 464.92,670.33 473.67,667.67 481.75,663.40 488.54,657.90 494.83,651.06 499.98,643.42 504.44,633.12 507.37,621.82 508.85,609.91 509.01,597.56 507.82,584.75 505.29,572.17 500.95,559.11 495.33,546.68 479.42,521.19 410.24,439.35 379.75,394.16 369.42,373.13 365.17,360.46 362.50,347.22 362.16,339.38 362.61,331.65 364.09,324.34 366.49,318.07 369.82,312.09 373.76,306.72 378.01,302.45 382.26,299.60 386.99,297.56 391.98,296.28 397.06,295.76 401.94,295.95 408.10,297.37 414.33,300.03 420.33,303.69 425.80,307.96 431.42,313.70 436.44,320.40 440.86,327.99 445.72,340.43 449.97,354.76 461.86,400.38 468.22,413.72 475.57,424.30 479.90,429.05 484.55,433.23 489.44,436.60 494.54,438.78 499.29,439.73 504.36,439.83 509.51,439.16 514.51,437.74 519.10,435.51 524.04,431.85 528.80,427.06 533.00,421.50 536.33,415.43 538.92,408.02 540.55,399.86 541.27,391.50 540.00,377.78 537.30,364.21 531.60,341.57 530.20,330.13 530.01,318.40 531.73,304.40 535.32,291.25 539.02,283.61 543.62,276.96 548.77,271.50 555.19,266.99 562.30,263.96 569.64,262.06 577.86,261.30 586.36,261.87 594.74,263.53 602.92,266.09 611.01,269.75 618.46,274.73 624.75,280.71 630.48,287.88 635.15,295.62 639.01,305.63 641.47,316.46 642.82,326.76 642.92,340.52 613.57,578.34 608.29,604.16 600.92,628.94 591.38,652.63 579.33,675.08 565.23,695.59 549.19,713.29 531.20,728.81 511.68,741.63 491.36,751.22 481.17,755.06 470.31,758.01 454.12,759.81 437.84,760.00 415.97,757.20 405.61,754.92 394.94,751.41 380.41,744.29 366.36,735.60 357.51,729.00 349.13,721.22 337.72,708.35 327.16,694.11 315.82,672.47 307.03,649.21 300.69,625.09 278.13,517.77"
        fill="none"
        stroke="#e94560"
        stroke-width="8.0"
        stroke-linejoin="round"
        stroke-linecap="round"/>
  <!-- Start/finish line -->
  <line x1="258.55" y1="521.88" x2="297.70" y2="513.66"
        stroke="#f5f5f5" stroke-width="9.6"
        stroke-linecap="round"/>
</svg>
