<?xml version="1.0" encoding="utf-8"?>
<svg xmlns="http://www.w3.org/2000/svg"
     width="289.1" height="800.0"
     viewBox="0 0 289.1 800.0">
  <rect width="100%" height="100%" fill="#1a1a2e"/>
  <!-- Track outline -->
  <polyline points="228.17,392.42 225.82,410.39 222.32,446.13 214.86,534.99 217.43,573.54 222.24,594.49 246.41,666.01 248.88,681.89 249.07,689.66 248.52,697.40 247.17,705.13 244.97,712.73 241.80,720.10 237.78,727.13 232.86,733.82 227.23,740.00 221.09,745.61 214.34,750.40 206.74,754.19 198.73,757.03 190.92,759.05 182.84,760.00 176.54,759.86 170.05,759.02 163.88,757.47 158.23,755.13 152.89,752.06 147.97,748.41 143.32,744.05 139.11,739.05 135.70,733.61 133.16,727.57 131.41,721.05 130.36,714.42 130.07,704.22 131.24,694.36 133.54,686.65 136.57,679.25 144.02,663.27 147.06,655.03 149.20,646.68 149.99,638.61 149.67,630.50 148.02,622.22 145.60,613.91 139.47,595.94 137.54,586.17 136.51,576.28 137.55,556.81 140.54,538.57 141.74,521.54 140.93,513.87 139.05,506.27 135.25,497.32 129.74,487.93 118.04,473.50 106.08,459.14 100.11,449.88 95.36,440.69 91.32,430.22 88.17,419.31 84.08,396.30 75.92,318.59 59.80,270.82 44.34,236.56 41.63,226.29 40.27,216.49 40.00,206.09 40.79,195.55 45.29,173.38 50.11,158.08 56.44,143.52 66.61,123.79 97.67,75.85 107.81,63.08 114.35,55.81 121.56,49.22 126.48,45.78 131.65,42.84 137.00,40.91 141.05,40.20 145.26,40.00 149.43,40.37 153.37,41.42 156.77,42.97 160.22,45.10 163.46,47.67 166.24,50.51 168.30,53.48 169.69,57.20 170.26,61.32 170.24,65.58 169.78,69.73 168.27,75.47 165.78,81.18 162.90,86.45 158.66,92.54 153.22,98.62 125.44,123.65 111.98,138.48 106.68,146.56 102.34,155.11 99.22,164.03 97.06,173.25 95.72,181.76 95.27,192.00 102.99,271.63 105.79,342.24 107.08,352.51 109.43,360.72 111.95,365.69 115.16,370.22 119.09,374.04 123.02,376.60 127.55,378.77 132.30,380.35 136.90,381.23 141.00,381.33 145.14,380.83 149.15,379.81 152.98,378.36 157.97,375.52 162.66,371.77 166.84,367.45 172.40,359.07 176.81,349.91 182.44,333.53 185.72,314.13 185.99,303.32 185.33,292.34 181.09,270.01 162.85,212.24 159.50,195.48 159.05,187.71 159.71,179.94 161.25,173.82 163.57,167.64 166.55,161.90 170.19,156.59 174.50,151.73 179.37,147.84 183.39,145.68 187.80,144.06 192.36,142.98 196.89,142.57 203.21,143.25 209.61,145.11 215.44,147.64 222.22,152.17 228.14,157.81 233.78,164.84 238.61,172.74 242.67,181.90 245.83,191.70 248.27,214.33 247.85,230.79 243.63,274.23 228.17,392.42"
        fill="none"
        stroke="#e94560"
        stroke-width="8.0"
        stroke-linejoin="round"
        stroke-linecap="round"/>
  <!-- Start/finish line -->
  <line x1="248.00" y1="395.01" x2="208.34" y2="389.82"
        stroke="#f5f5f5" stroke-width="9.6"
        stroke-linecap="round"/>
</svg>
