<?xml version="1.0" encoding="utf-8"?>
<svg xmlns="http://www.w3.org/2000/svg"
     width="800.0" height="383.5"
     viewBox="0 0 800.0 383.5">
  <rect width="100%" height="100%" fill="#1a1a2e"/>
  <!-- Track outline -->
  <polyline points="461.31,343.39 610.49,340.43 643.71,337.68 659.15,333.79 674.69,327.42 687.00,320.52 711.07,301.06 719.18,292.23 737.90,264.06 743.29,252.86 751.33,228.31 758.19,200.96 759.89,187.62 760.00,174.85 758.21,157.48 754.71,140.48 750.72,128.23 745.33,116.56 735.66,100.31 724.11,84.91 711.41,72.35 699.29,62.58 688.12,55.68 679.51,51.27 669.60,47.28 654.55,43.47 638.04,40.94 600.76,40.00 187.67,46.17 156.20,50.96 134.20,56.93 112.84,66.34 102.14,72.82 89.55,82.82 76.46,95.24 66.82,106.91 58.56,119.73 51.60,134.12 46.14,149.66 42.11,166.47 40.00,184.08 40.37,203.61 42.84,222.48 46.23,236.48 51.26,249.67 60.22,265.94 71.35,281.34 84.71,295.50 99.31,307.89 114.10,318.46 129.98,327.24 151.32,335.12 170.62,340.27 182.97,341.77 216.41,342.75 455.97,343.51 461.31,343.39"
        fill="none"
        stroke="#e94560"
        stroke-width="8.0"
        stroke-linejoin="round"
        stroke-linecap="round"/>
  <!-- Start/finish line -->
  <line x1="460.91" y1="323.39" x2="461.71" y2="363.38"
        stroke="#f5f5f5" stroke-width="9.6"
        stroke-linecap="round"/>
</svg>
