<?xml version="1.0" encoding="utf-8"?>
<svg xmlns="http://www.w3.org/2000/svg"
     width="800.0" height="552.9"
     viewBox="0 0 800.0 552.9">
  <rect width="100%" height="100%" fill="#1a1a2e"/>
  <!-- Track outline -->
  <polyline points="450.97,456.89 578.36,431.83 625.04,412.38 659.73,391.83 680.29,376.49 697.33,359.41 711.74,340.30 724.34,317.17 741.13,271.95 753.84,223.93 758.85,192.39 760.00,164.35 758.09,146.16 753.84,130.30 750.17,121.80 745.70,114.09 740.51,107.39 734.57,101.69 727.94,96.91 720.81,93.23 712.60,90.52 703.81,88.98 695.20,88.72 686.99,89.73 678.92,91.88 671.65,95.16 665.96,98.97 660.88,103.62 656.81,109.10 653.85,115.05 651.87,121.76 650.90,129.51 654.54,152.95 659.76,178.06 661.27,195.63 660.52,212.37 656.12,228.75 648.67,246.67 627.63,291.23 603.25,333.73 590.50,349.42 577.17,361.07 561.32,370.93 542.60,378.73 464.00,394.63 255.06,434.29 237.09,434.15 223.30,431.39 214.72,428.37 206.62,424.38 199.56,419.26 193.98,413.47 189.26,406.73 185.80,399.45 183.82,391.74 183.03,383.55 183.53,375.49 185.51,367.51 188.86,359.71 193.26,352.27 204.10,339.69 217.64,328.47 235.58,317.56 255.57,308.80 278.84,301.83 302.68,297.76 323.25,297.10 345.14,298.77 384.04,306.22 423.88,312.48 451.18,311.04 475.46,306.13 492.46,300.30 507.59,292.20 520.73,282.07 532.22,269.50 542.24,253.42 549.83,235.11 554.66,213.68 556.17,191.55 554.19,171.57 549.04,152.25 539.61,132.14 527.11,113.56 512.02,96.61 493.68,81.80 462.74,65.68 428.60,53.10 395.64,44.25 365.35,40.00 353.75,40.18 343.31,41.66 333.83,44.47 326.20,48.02 319.21,52.53 313.63,57.96 310.93,61.82 308.77,66.03 307.18,70.54 306.39,75.10 306.50,80.18 307.43,85.57 309.09,90.87 311.25,95.73 315.36,101.91 320.62,107.43 326.60,112.07 334.09,116.11 342.59,119.00 352.35,121.36 382.42,123.64 412.93,126.53 428.96,132.23 442.68,140.07 450.93,146.29 458.53,153.39 464.54,160.97 467.28,165.79 469.55,170.83 471.06,175.91 471.75,180.95 471.50,185.68 470.45,190.41 468.79,195.06 466.56,199.40 461.52,205.97 454.96,211.97 447.94,216.79 440.66,220.25 432.92,222.57 425.07,223.63 417.29,223.36 409.36,221.83 400.79,219.03 386.21,211.01 370.18,200.36 354.98,192.26 344.42,189.19 334.38,187.70 324.25,187.35 313.48,188.01 302.68,189.89 291.98,193.18 276.28,201.37 259.39,213.11 187.93,271.52 72.99,362.34 58.66,378.86 49.08,394.59 44.86,404.58 41.84,414.83 40.18,424.95 40.00,434.15 40.97,443.22 42.99,451.99 46.16,460.62 50.41,468.90 55.63,476.61 62.62,484.54 70.76,491.73 79.73,497.95 90.79,503.64 102.89,508.07 115.57,511.14 137.36,512.93 160.66,511.66 214.98,502.94 228.70,500.66 450.97,456.89"
        fill="none"
        stroke="#e94560"
        stroke-width="8.0"
        stroke-linejoin="round"
        stroke-linecap="round"/>
  <!-- Start/finish line -->
  <line x1="447.10" y1="437.27" x2="454.83" y2="476.52"
        stroke="#f5f5f5" stroke-width="9.6"
        stroke-linecap="round"/>
</svg>
