<?xml version="1.0" encoding="utf-8"?>
<svg xmlns="http://www.w3.org/2000/svg"
     width="628.8" height="800.0"
     viewBox="0 0 628.8 800.0">
  <rect width="100%" height="100%" fill="#1a1a2e"/>
  <!-- Track outline -->
  <polyline points="488.39,318.69 400.77,170.92 330.76,85.64 315.75,72.69 307.23,66.77 296.86,61.13 266.58,49.99 235.50,41.57 224.11,40.00 213.04,40.00 190.17,41.97 167.44,45.98 156.05,49.41 145.15,54.22 126.83,64.33 108.51,76.69 94.74,88.48 83.21,100.56 77.21,108.34 71.87,117.10 62.47,134.46 53.64,154.84 46.71,177.89 41.99,202.92 40.00,234.85 40.44,264.23 43.44,287.74 75.45,405.14 131.55,545.35 161.83,598.30 194.76,644.29 229.63,681.62 260.40,709.14 277.84,720.98 336.10,747.87 360.16,754.83 391.46,758.55 422.09,760.00 442.00,758.26 462.08,753.09 481.95,744.96 502.96,734.05 520.97,722.03 537.96,707.11 556.68,685.57 572.44,659.56 582.77,626.46 588.20,591.86 588.81,563.64 586.69,538.50 580.78,511.97 559.64,458.03 499.34,337.15 488.39,318.69"
        fill="none"
        stroke="#e94560"
        stroke-width="8.0"
        stroke-linejoin="round"
        stroke-linecap="round"/>
  <!-- Start/finish line -->
  <line x1="471.19" y1="328.89" x2="505.59" y2="308.49"
        stroke="#f5f5f5" stroke-width="9.6"
        stroke-linecap="round"/>
</svg>
