<?xml version="1.0" encoding="utf-8"?>
<svg xmlns="http://www.w3.org/2000/svg"
     width="800.0" height="535.6"
     viewBox="0 0 800.0 535.6">
  <rect width="100%" height="100%" fill="#1a1a2e"/>
  <!-- Track outline -->
  <polyline points="431.14,492.84 446.79,494.61 501.03,495.59 549.75,491.28 593.86,479.91 627.09,465.22 657.19,445.82 684.60,420.73 712.47,386.25 737.35,345.68 754.04,304.34 759.85,269.46 760.00,233.99 755.23,201.66 746.59,175.99 733.92,153.06 718.13,132.29 695.48,110.54 668.21,91.93 635.43,76.25 565.10,56.66 480.91,44.11 402.83,40.00 327.88,46.27 258.15,64.30 182.45,97.61 116.74,137.98 85.15,166.78 64.29,189.51 52.37,209.30 45.07,230.66 40.60,254.57 40.00,279.06 42.83,301.79 48.94,324.91 58.03,347.06 69.35,367.04 90.96,392.13 118.53,413.09 152.95,431.51 240.71,460.90 349.34,483.24 431.14,492.84"
        fill="none"
        stroke="#e94560"
        stroke-width="8.0"
        stroke-linejoin="round"
        stroke-linecap="round"/>
  <!-- Start/finish line -->
  <line x1="433.46" y1="472.98" x2="428.83" y2="512.71"
        stroke="#f5f5f5" stroke-width="9.6"
        stroke-linecap="round"/>
</svg>
