<?xml version="1.0" encoding="utf-8"?>
<svg xmlns="http://www.w3.org/2000/svg"
     width="311.5" height="800.0"
     viewBox="0 0 311.5 800.0">
  <rect width="100%" height="100%" fill="#1a1a2e"/>
  <!-- Track outline -->
  <polyline points="183.06,74.79 182.08,81.89 182.19,87.08 185.35,106.99 190.69,128.52 196.65,143.36 201.67,156.81 202.36,161.94 202.34,166.48 201.31,175.77 199.05,185.24 195.17,196.26 165.65,268.16 144.29,336.63 136.70,352.26 128.34,365.41 119.30,376.63 108.38,387.76 62.10,426.74 57.43,432.17 54.09,437.06 48.41,447.60 43.49,461.04 40.51,476.17 40.00,497.31 42.42,521.90 64.25,618.88 86.04,686.75 107.89,740.07 109.52,743.03 111.31,745.33 116.56,750.48 123.08,755.23 127.46,757.32 132.08,758.91 136.59,759.79 140.46,760.00 144.22,759.67 147.76,758.74 150.28,757.60 152.72,756.09 154.90,754.34 156.59,752.50 157.70,750.50 158.32,748.33 158.78,745.75 159.38,737.04 159.19,726.84 156.78,702.61 140.95,635.69 140.18,622.25 141.08,610.71 143.99,596.94 146.43,591.10 175.07,545.77 207.43,492.35 218.57,462.55 225.18,434.42 228.24,408.70 228.83,382.69 224.59,322.01 225.59,309.30 228.33,296.42 241.52,262.75 256.12,221.80 265.26,156.02 271.46,105.31 271.28,98.16 270.51,92.18 267.81,80.61 265.85,75.16 263.31,69.73 259.44,62.98 254.49,56.44 246.97,49.78 239.24,44.63 235.44,42.89 231.57,41.77 225.29,40.49 218.75,40.00 213.51,40.63 208.34,42.21 203.59,44.38 198.73,47.24 194.44,50.64 191.05,54.48 188.20,58.81 185.96,63.19 184.13,69.13 183.06,74.79"
        fill="none"
        stroke="#e94560"
        stroke-width="8.0"
        stroke-linejoin="round"
        stroke-linecap="round"/>
  <!-- Start/finish line -->
  <line x1="202.81" y1="77.95" x2="163.31" y2="71.62"
        stroke="#f5f5f5" stroke-width="9.6"
        stroke-linecap="round"/>
</svg>
