<?xml version="1.0" encoding="utf-8"?>
<svg xmlns="http://www.w3.org/2000/svg"
     width="800.0" height="446.0"
     viewBox="0 0 800.0 446.0">
  <rect width="100%" height="100%" fill="#1a1a2e"/>
  <!-- Track outline -->
  <polyline points="301.76,46.88 318.77,46.30 376.77,47.17 385.56,48.03 392.67,49.43 398.43,51.30 403.76,53.69 409.10,56.64 413.81,60.02 416.71,62.96 419.32,66.45 427.96,81.92 447.39,123.02 455.51,135.37 464.20,146.07 473.36,155.39 483.39,163.71 495.04,171.43 507.61,178.01 521.36,183.45 535.41,187.47 547.96,189.83 560.71,190.89 575.64,190.48 590.71,188.65 605.00,185.60 618.78,181.33 631.22,176.22 643.43,169.77 658.69,159.76 672.88,148.51 690.23,129.59 697.18,120.41 703.33,110.40 709.52,96.29 714.54,81.56 720.14,58.11 721.40,55.26 722.88,52.90 725.73,49.21 729.02,45.84 731.90,43.73 734.85,42.11 737.46,40.98 740.18,40.25 742.48,40.00 744.91,40.00 747.14,40.26 748.73,40.71 750.20,41.33 751.61,42.16 754.14,44.19 756.17,46.31 756.77,47.15 757.22,48.02 758.70,51.62 759.65,55.83 760.00,61.74 759.56,68.86 753.11,103.96 744.21,138.49 735.84,162.93 720.73,197.89 706.89,223.58 690.13,249.29 666.80,277.68 644.44,300.34 623.29,318.56 597.57,337.01 519.97,382.21 503.33,390.93 488.26,396.46 466.81,401.86 439.66,404.96 408.08,405.99 353.37,403.33 325.83,399.98 307.05,395.49 235.45,368.15 189.77,351.45 158.44,337.24 126.03,319.69 95.93,300.34 75.88,284.81 60.24,269.27 55.73,263.45 52.12,257.53 49.37,251.24 47.25,244.53 43.97,228.04 41.73,190.84 40.00,102.38 40.74,93.89 42.00,87.33 43.69,81.58 45.97,76.26 48.90,71.57 52.45,67.34 56.52,63.68 61.38,60.52 69.27,57.06 78.06,54.35 95.95,51.15 122.54,49.74 251.63,47.22 301.76,46.88"
        fill="none"
        stroke="#e94560"
        stroke-width="8.0"
        stroke-linejoin="round"
        stroke-linecap="round"/>
  <!-- Start/finish line -->
  <line x1="301.49" y1="26.89" x2="302.04" y2="66.88"
        stroke="#f5f5f5" stroke-width="9.6"
        stroke-linecap="round"/>
</svg>
