<?xml version="1.0" encoding="utf-8"?>
<svg xmlns="http://www.w3.org/2000/svg"
     width="800.0" height="407.8"
     viewBox="0 0 800.0 407.8">
  <rect width="100%" height="100%" fill="#1a1a2e"/>
  <!-- Track outline -->
  <polyline points="427.92,172.35 470.07,169.79 541.71,166.89 627.82,164.97 705.64,160.74 737.96,157.62 743.40,156.36 747.80,154.72 751.33,152.82 754.35,150.56 756.45,148.37 758.09,146.02 759.07,143.99 759.69,141.88 760.00,139.74 759.95,137.54 759.64,135.80 759.10,134.03 758.39,132.36 756.92,130.02 755.03,127.91 752.26,125.65 749.08,123.79 745.61,122.43 741.39,121.48 715.29,119.97 710.27,119.23 701.22,116.93 698.01,115.57 695.13,113.90 692.73,111.96 690.66,109.70 689.08,107.31 687.85,104.62 686.88,101.28 686.33,97.71 686.27,93.96 686.66,90.27 687.36,87.26 688.57,84.12 692.83,77.16 697.06,70.21 698.25,67.04 698.88,64.09 699.06,61.10 698.81,58.15 698.10,55.28 696.96,52.58 695.30,50.02 693.26,47.79 690.74,45.85 687.94,44.27 684.89,42.96 681.39,41.93 674.92,40.66 667.03,40.00 634.95,42.89 585.20,49.74 545.33,59.73 509.50,74.15 491.94,82.03 483.47,85.14 469.68,88.70 458.79,89.86 445.07,89.23 434.27,87.19 423.78,83.63 408.61,76.03 385.14,64.24 368.41,58.96 358.36,57.26 348.22,56.44 339.43,56.52 330.83,57.42 322.41,59.10 313.65,61.73 288.29,72.93 255.65,93.62 230.92,112.64 224.79,118.79 219.84,124.94 216.20,130.66 213.27,136.66 211.01,143.00 209.48,149.60 208.74,156.33 208.81,163.30 209.92,171.15 211.99,179.68 222.20,208.82 227.46,228.51 228.41,233.71 228.82,238.16 228.69,240.97 228.28,243.43 227.76,245.28 227.01,247.02 225.75,249.19 224.18,251.25 222.26,253.09 220.09,254.65 217.65,255.95 214.97,256.93 211.54,257.71 207.51,258.18 189.69,258.09 139.04,254.03 111.71,255.64 102.02,257.47 92.95,260.07 75.78,267.65 67.05,273.28 61.17,278.06 56.19,283.06 51.27,288.92 47.42,294.85 44.27,301.14 42.02,307.46 40.55,313.79 40.00,318.97 40.08,324.00 40.76,328.83 42.05,333.61 44.31,339.15 47.27,344.49 51.03,349.60 55.38,354.22 60.51,358.48 65.97,362.02 71.09,364.49 76.34,366.25 81.87,367.39 87.64,367.84 94.51,367.57 101.68,366.46 118.30,360.90 188.14,327.44 262.88,292.21 280.85,280.85 293.48,269.72 299.53,262.72 304.86,255.26 308.54,248.81 311.45,242.19 313.47,235.82 314.94,228.72 316.17,214.99 317.28,202.33 318.11,198.61 319.21,195.62 320.80,192.61 322.74,189.86 325.11,187.32 327.80,185.10 330.96,183.16 334.39,181.56 342.40,178.98 357.98,176.73 408.77,173.50 427.92,172.35"
        fill="none"
        stroke="#e94560"
        stroke-width="8.0"
        stroke-linejoin="round"
        stroke-linecap="round"/>
  <!-- Start/finish line -->
  <line x1="426.71" y1="152.38" x2="429.13" y2="192.31"
        stroke="#f5f5f5" stroke-width="9.6"
        stroke-linecap="round"/>
</svg>
