<?xml version="1.0" encoding="utf-8"?>
<svg xmlns="http://www.w3.org/2000/svg"
     width="800.0" height="546.9"
     viewBox="0 0 800.0 546.9">
  <rect width="100%" height="100%" fill="#1a1a2e"/>
  <!-- Track outline -->
  <polyline points="500.16,415.67 513.55,421.32 558.59,440.25 626.09,465.91 730.63,505.01 737.79,506.66 741.13,506.86 744.26,506.57 746.15,506.14 748.02,505.52 749.75,504.59 751.34,503.53 753.64,501.58 755.62,499.21 757.28,496.46 758.54,493.38 759.42,490.00 759.93,484.73 760.00,478.31 759.25,469.85 757.76,461.29 753.42,447.78 751.26,443.23 742.69,429.79 735.37,420.50 728.14,413.29 583.14,277.99 487.43,187.43 348.94,56.57 341.94,49.97 334.87,44.99 328.43,41.98 323.66,40.52 319.51,40.00 316.29,40.11 312.75,41.35 306.21,45.82 297.64,52.27 294.00,54.67 290.17,56.80 286.07,58.71 281.73,60.36 277.13,61.78 272.27,62.97 267.21,63.81 261.96,64.27 256.54,64.43 235.30,63.79 220.16,64.76 215.32,65.63 206.15,68.65 201.84,70.75 189.68,79.44 185.89,83.09 168.28,105.39 164.56,109.95 160.63,114.23 156.49,118.19 152.12,121.77 147.57,124.96 142.85,127.78 137.98,130.27 132.97,132.40 127.86,134.11 122.62,135.38 117.38,136.16 112.14,136.51 88.24,136.23 80.23,137.49 76.43,138.75 69.06,142.40 62.13,147.56 59.00,150.77 56.21,154.34 53.79,158.29 51.71,162.59 45.02,187.82 40.09,220.83 40.00,237.04 40.63,242.25 41.73,247.30 43.31,252.16 45.37,256.80 47.83,261.23 50.77,265.48 54.10,269.47 61.92,276.60 66.33,279.64 86.33,289.40 129.97,307.39 138.21,311.23 142.09,313.41 145.68,315.82 149.01,318.49 151.99,321.47 154.66,324.69 157.00,328.12 158.99,331.74 160.56,335.56 161.78,339.54 162.62,343.71 163.05,348.06 163.09,352.53 162.70,357.07 161.83,361.62 154.69,388.46 153.91,395.79 154.09,399.24 154.72,402.58 155.83,405.77 157.19,408.88 158.98,411.77 161.21,414.34 163.77,416.68 166.69,418.60 169.91,420.15 173.39,421.29 177.06,421.98 180.83,422.16 192.78,420.65 205.78,418.27 214.11,415.67 217.95,413.78 221.50,411.50 224.70,408.81 227.30,406.09 230.23,402.28 245.25,373.98 247.46,369.73 249.92,365.60 252.67,361.59 255.71,357.78 259.04,354.20 262.62,350.90 266.41,347.93 270.41,345.19 274.61,342.73 278.97,340.55 283.48,338.64 288.09,337.10 292.73,335.85 297.49,335.05 302.33,334.66 307.24,334.64 312.18,334.96 317.14,335.69 322.12,336.78 327.08,338.26 333.58,340.83 345.94,346.90 356.28,353.65 372.68,363.76 396.51,374.11 425.06,384.90 466.68,401.55 500.16,415.67"
        fill="none"
        stroke="#e94560"
        stroke-width="8.0"
        stroke-linejoin="round"
        stroke-linecap="round"/>
  <!-- Start/finish line -->
  <line x1="507.94" y1="397.25" x2="492.39" y2="434.10"
        stroke="#f5f5f5" stroke-width="9.6"
        stroke-linecap="round"/>
</svg>
