<?xml version="1.0" encoding="utf-8"?>
<svg xmlns="http://www.w3.org/2000/svg"
     width="800.0" height="797.0"
     viewBox="0 0 800.0 797.0">
  <rect width="100%" height="100%" fill="#1a1a2e"/>
  <!-- Track outline -->
  <polyline points="80.07,295.67 48.27,235.83 42.47,218.08 40.19,203.28 40.00,188.81 41.86,174.73 46.94,159.32 54.14,145.20 63.93,131.45 75.37,119.43 90.28,107.11 106.88,96.35 128.04,85.37 151.45,75.86 183.25,62.39 206.36,54.26 231.57,47.16 271.64,40.00 369.18,40.04 429.10,47.49 449.08,52.75 467.77,59.98 486.08,69.74 504.28,81.98 524.40,97.82 544.06,116.40 562.40,137.21 578.06,159.17 586.30,173.90 591.75,189.20 593.15,198.99 593.46,209.18 592.68,218.29 590.82,225.24 588.03,231.33 584.79,236.58 581.85,240.47 578.57,243.82 574.96,246.52 571.00,248.57 562.44,249.98 552.76,249.22 543.57,247.74 533.32,245.62 523.49,241.98 516.39,238.28 509.33,233.67 502.90,227.94 498.08,222.40 493.74,215.99 489.69,207.67 484.98,190.28 480.79,169.33 475.99,152.26 471.75,144.41 467.19,138.65 462.32,133.94 456.98,129.87 451.32,126.95 445.47,124.86 438.91,123.46 432.13,123.06 425.46,123.71 419.05,125.37 412.76,127.99 406.94,131.85 402.14,136.28 397.70,141.64 394.17,148.01 391.84,154.82 390.17,162.41 389.42,170.05 389.56,176.92 390.54,183.80 392.54,191.36 408.69,221.89 429.19,255.38 456.82,310.46 474.85,366.99 488.27,454.16 501.88,524.80 509.91,545.25 519.60,562.24 533.81,580.14 549.19,594.79 561.23,603.94 575.73,611.53 635.18,629.28 696.70,646.78 716.83,655.82 732.58,665.21 742.22,672.31 750.12,680.73 753.94,686.57 757.23,693.08 759.33,700.07 760.00,706.80 759.79,713.93 758.76,720.59 756.36,727.54 752.87,733.87 748.93,739.24 744.28,743.74 739.10,747.05 733.32,749.86 719.54,754.47 704.30,756.95 689.25,756.74 670.61,754.61 497.49,729.91 476.83,727.07 460.46,723.11 446.75,716.59 434.46,707.95 428.19,702.34 422.43,696.03 417.56,688.80 414.07,681.70 411.23,673.93 409.53,665.72 409.58,653.48 411.53,640.34 417.77,620.25 423.72,598.71 424.91,579.06 423.18,556.27 387.14,409.30 359.63,289.40 341.60,246.92 322.26,213.22 308.24,194.82 293.86,181.10 277.30,169.65 260.32,161.62 244.56,157.01 229.31,155.14 220.83,155.07 212.65,155.93 204.68,157.95 196.92,161.01 189.33,165.19 182.57,170.70 177.63,176.35 173.25,182.94 169.67,190.46 167.01,198.45 165.05,207.24 164.19,216.21 164.73,225.60 166.47,235.18 169.18,244.58 177.43,262.22 189.91,280.72 234.46,329.26 280.82,378.04 309.73,419.41 322.37,445.01 333.14,472.66 341.34,499.31 346.19,524.26 346.49,533.22 345.88,541.43 344.42,548.96 341.66,556.59 337.87,563.47 333.65,569.37 328.76,574.52 323.36,578.55 317.46,581.79 308.98,584.78 299.69,586.58 291.02,587.34 282.10,586.98 273.39,584.96 262.43,580.71 251.13,573.80 239.75,563.86 225.95,546.72 132.35,393.99 80.07,295.67"
        fill="none"
        stroke="#e94560"
        stroke-width="8.0"
        stroke-linejoin="round"
        stroke-linecap="round"/>
  <!-- Start/finish line -->
  <line x1="62.41" y1="305.05" x2="97.73" y2="286.28"
        stroke="#f5f5f5" stroke-width="9.6"
        stroke-linecap="round"/>
</svg>
