<?xml version="1.0" encoding="utf-8"?>
<svg xmlns="http://www.w3.org/2000/svg"
     width="800.0" height="755.8"
     viewBox="0 0 800.0 755.8">
  <rect width="100%" height="100%" fill="#1a1a2e"/>
  <!-- Track outline -->
  <polyline points="738.76,225.11 651.44,521.64 629.74,589.56 609.65,631.97 589.82,660.56 573.90,677.17 555.91,691.26 536.11,702.44 514.99,710.33 493.04,714.81 476.90,715.77 460.06,715.14 444.42,712.82 429.26,708.87 415.29,703.40 402.62,696.84 394.74,691.60 387.71,685.73 381.33,679.39 375.50,672.33 370.63,664.97 366.43,656.94 363.39,649.35 360.77,640.06 356.97,613.37 352.45,585.84 347.55,572.74 341.48,562.17 333.26,551.98 323.49,543.23 308.61,533.18 292.12,524.89 274.14,518.36 255.52,513.98 236.64,511.59 215.82,511.79 136.05,528.17 101.22,532.98 89.38,532.52 78.46,530.53 68.51,527.05 59.68,522.37 54.54,518.46 50.17,513.82 46.57,508.71 43.60,502.91 41.50,496.94 40.22,490.20 40.00,480.12 41.24,469.54 44.53,458.93 49.28,449.02 55.86,439.04 63.54,430.12 72.87,421.56 83.04,414.16 94.69,407.43 106.91,401.93 120.53,397.42 133.75,394.33 143.20,393.04 152.17,392.68 160.93,393.01 170.00,394.40 181.58,397.95 194.64,403.25 218.03,415.19 243.52,426.83 269.60,432.44 291.84,434.89 304.44,434.36 418.76,423.85 430.19,420.60 439.10,416.39 447.24,411.25 454.42,404.65 458.05,399.94 461.26,394.70 463.67,388.90 465.08,382.99 465.83,376.63 465.79,370.32 464.77,363.82 462.88,357.42 460.24,351.19 452.54,339.15 442.43,328.04 426.98,315.34 408.54,304.47 379.94,293.99 346.27,285.20 226.25,258.90 194.12,247.36 184.23,242.02 175.62,235.72 168.89,228.89 163.53,221.49 161.10,216.39 159.54,211.08 158.78,205.88 158.89,200.44 159.93,195.30 161.71,189.96 163.97,185.08 167.24,180.24 171.15,176.00 175.38,172.28 183.10,167.18 191.48,163.36 200.74,160.51 210.74,159.05 223.45,159.05 239.03,161.57 289.32,180.08 344.65,200.27 378.64,206.67 407.73,208.76 423.70,208.00 437.28,205.38 446.52,202.16 454.62,197.62 459.00,194.30 463.03,190.46 466.36,186.01 468.63,181.70 470.39,176.96 471.35,172.08 471.35,167.21 470.59,162.23 469.30,157.59 467.03,152.85 464.03,148.60 460.65,144.89 454.33,140.05 446.61,136.04 428.82,129.80 410.88,123.14 402.35,117.73 395.58,111.73 391.75,106.99 388.79,101.75 386.67,96.38 385.32,90.60 384.89,84.83 385.24,79.03 386.47,73.29 388.42,67.96 391.11,62.85 394.59,58.24 398.66,54.23 403.44,50.55 408.77,47.40 420.53,42.92 434.23,40.33 456.05,40.00 479.33,41.72 521.87,47.26 535.26,51.08 546.93,55.72 554.61,59.76 561.53,64.41 567.74,69.48 573.42,75.25 578.08,81.22 582.12,87.85 585.20,94.62 587.57,101.88 589.09,109.27 589.85,116.94 589.78,124.73 588.93,132.49 587.28,140.18 584.68,147.84 579.50,158.25 572.31,169.50 552.40,193.37 533.15,217.68 527.25,228.96 523.46,240.13 521.46,251.44 521.14,262.88 522.89,274.12 526.23,284.63 531.44,294.65 537.91,303.21 543.03,308.28 548.62,312.52 554.42,315.94 560.73,318.63 567.30,320.38 573.94,321.38 580.80,321.58 587.74,320.91 594.57,319.45 604.51,315.77 614.03,310.30 622.45,303.50 630.30,294.65 638.61,281.55 645.58,266.06 649.88,250.35 652.63,231.61 653.06,188.40 653.67,145.35 656.91,126.62 661.55,111.63 666.91,100.72 672.87,92.13 677.78,86.79 682.87,82.71 688.47,79.16 694.29,76.51 700.36,74.69 706.52,73.73 712.71,73.63 718.87,74.42 724.83,76.05 730.62,78.53 735.94,81.75 740.95,85.76 745.29,90.14 749.30,95.65 753.79,104.23 757.38,114.28 759.37,124.76 760.00,136.20 759.04,149.67 755.66,167.71 738.76,225.11"
        fill="none"
        stroke="#e94560"
        stroke-width="8.0"
        stroke-linejoin="round"
        stroke-linecap="round"/>
  <!-- Start/finish line -->
  <line x1="757.95" y1="230.76" x2="719.57" y2="219.46"
        stroke="#f5f5f5" stroke-width="9.6"
        stroke-linecap="round"/>
</svg>
