<?xml version="1.0" encoding="utf-8"?>
<svg xmlns="http://www.w3.org/2000/svg"
     width="800.0" height="557.7"
     viewBox="0 0 800.0 557.7">
  <rect width="100%" height="100%" fill="#1a1a2e"/>
  <!-- Track outline -->
  <polyline points="426.77,87.70 417.55,93.94 243.84,215.13 131.19,325.60 82.76,379.95 47.88,426.40 43.03,437.48 40.67,446.69 40.03,451.83 40.00,456.67 40.41,461.61 41.28,466.50 42.59,471.60 44.51,476.28 48.00,480.70 52.07,484.34 56.14,487.57 60.36,490.22 64.81,492.35 69.38,493.96 73.92,495.16 79.18,495.58 92.18,494.12 108.47,489.39 140.53,471.39 173.31,451.42 191.89,442.06 208.97,435.45 224.59,432.07 239.95,431.24 253.91,432.69 270.78,437.48 357.58,479.04 435.44,516.69 440.91,517.68 444.98,517.58 449.87,517.32 454.79,516.54 458.25,515.97 461.74,515.19 464.85,513.57 467.26,511.08 469.42,507.85 471.16,504.47 472.33,501.61 473.20,498.65 473.61,495.63 473.52,492.72 472.99,489.80 472.18,487.05 469.91,482.63 466.92,478.67 464.38,475.71 461.53,472.95 457.81,470.56 444.55,466.61 427.47,464.01 413.57,462.65 407.49,462.86 401.99,462.97 392.51,461.30 382.68,457.97 373.89,452.56 366.24,446.27 363.36,443.67 360.86,441.02 359.12,437.90 358.39,434.57 358.22,430.87 358.25,427.23 358.59,422.24 359.41,417.51 360.80,412.93 362.64,408.66 364.79,404.76 367.90,400.81 383.52,387.29 407.14,370.12 561.91,271.72 617.38,242.28 640.19,234.89 660.49,231.20 671.40,231.15 681.17,232.97 690.16,236.14 699.21,241.08 711.86,251.43 723.47,260.79 728.18,262.77 732.45,263.60 737.20,264.02 741.99,263.86 744.61,263.71 747.29,263.50 749.85,262.87 752.09,261.63 753.69,259.86 755.11,257.52 756.33,255.02 757.41,252.47 758.95,248.05 759.88,243.47 760.00,239.00 759.48,234.58 758.14,230.05 756.19,225.79 753.80,221.52 750.02,217.10 712.30,194.16 666.95,166.23 647.40,147.61 629.75,126.55 605.69,90.24 582.57,58.05 573.96,50.97 565.90,46.61 557.46,43.48 547.87,40.99 537.89,40.00 527.04,40.47 501.85,46.61 475.96,57.01 436.00,81.45 426.77,87.70"
        fill="none"
        stroke="#e94560"
        stroke-width="8.0"
        stroke-linejoin="round"
        stroke-linecap="round"/>
  <!-- Start/finish line -->
  <line x1="437.99" y1="104.26" x2="415.56" y2="71.13"
        stroke="#f5f5f5" stroke-width="9.6"
        stroke-linecap="round"/>
</svg>
