<?xml version="1.0" encoding="utf-8"?>
<svg xmlns="http://www.w3.org/2000/svg"
     width="521.8" height="800.0"
     viewBox="0 0 521.8 800.0">
  <rect width="100%" height="100%" fill="#1a1a2e"/>
  <!-- Track outline -->
  <polyline points="464.84,583.56 451.26,529.61 447.81,507.86 447.27,486.40 451.80,420.15 451.31,408.36 449.87,398.32 447.50,388.73 444.15,379.39 433.28,359.08 427.21,349.90 420.54,341.54 413.64,334.99 406.07,329.21 388.00,318.77 370.79,306.80 363.18,300.09 356.22,292.63 349.77,283.82 344.20,274.28 336.03,254.16 330.86,236.06 323.66,194.77 317.82,174.37 308.88,152.86 283.25,111.36 256.47,74.74 248.66,65.11 240.78,58.15 215.15,47.82 206.04,43.89 196.58,41.19 187.68,40.00 177.29,40.33 145.57,46.06 111.49,55.77 90.62,64.74 73.64,74.57 64.97,81.33 58.04,88.63 52.24,96.78 47.46,105.58 42.99,115.29 40.21,125.33 40.00,131.88 40.81,138.48 42.58,144.75 45.49,150.52 49.35,155.97 53.64,161.09 61.10,167.85 68.73,174.61 81.47,191.08 109.64,223.81 120.64,240.32 161.99,290.42 210.16,335.40 226.29,345.68 246.91,355.84 267.72,362.68 288.22,367.39 298.76,370.96 308.74,375.63 317.18,381.36 324.60,388.24 330.92,396.40 336.09,405.49 340.09,416.06 343.08,426.95 347.15,446.58 351.33,487.62 349.92,509.91 328.09,612.89 327.03,625.35 327.30,635.75 328.09,646.32 331.10,658.08 351.81,694.37 375.78,728.54 382.66,737.14 389.31,743.70 397.90,750.58 407.25,755.99 413.34,758.07 419.64,759.39 425.98,760.00 435.71,759.55 445.30,757.66 454.36,754.84 462.80,750.50 468.39,746.11 473.55,740.87 477.54,735.09 479.85,729.69 481.10,723.83 481.78,716.25 479.35,668.03 471.72,610.97 464.84,583.56"
        fill="none"
        stroke="#e94560"
        stroke-width="8.0"
        stroke-linejoin="round"
        stroke-linecap="round"/>
  <!-- Start/finish line -->
  <line x1="445.44" y1="588.44" x2="484.23" y2="578.69"
        stroke="#f5f5f5" stroke-width="9.6"
        stroke-linecap="round"/>
</svg>
