<?xml version="1.0" encoding="utf-8"?>
<svg xmlns="http://www.w3.org/2000/svg"
     width="800.0" height="745.4"
     viewBox="0 0 800.0 745.4">
  <rect width="100%" height="100%" fill="#1a1a2e"/>
  <!-- Track outline -->
  <polyline points="351.21,148.90 476.69,63.93 506.77,50.96 532.47,44.70 561.65,40.67 591.21,40.00 620.69,41.68 649.56,47.49 678.44,60.57 705.57,76.90 721.60,85.73 736.72,94.79 748.43,106.53 754.18,118.83 757.43,133.25 759.17,148.46 760.00,163.22 759.17,190.27 754.78,217.22 737.02,273.24 710.79,331.71 655.91,422.28 621.97,461.97 603.38,481.43 582.82,498.54 570.95,505.92 558.17,512.74 545.10,517.66 532.47,519.11 523.93,517.77 514.94,514.97 506.02,510.95 497.70,505.80 490.75,499.99 485.61,493.50 481.90,484.45 480.39,474.05 480.62,462.53 482.28,450.35 485.00,438.05 500.20,405.17 522.87,369.62 540.71,337.31 549.93,310.81 553.86,285.54 553.41,266.19 550.24,246.51 544.34,228.18 537.99,215.21 530.05,202.46 520.68,191.39 510.10,182.89 500.50,178.20 489.69,174.84 478.27,172.94 467.16,172.72 457.03,174.40 443.88,182.45 432.09,195.53 416.29,211.18 297.84,295.38 183.47,383.82 168.88,400.81 159.21,415.80 152.93,431.67 149.76,449.12 149.68,467.34 152.10,485.34 154.52,496.97 157.62,509.16 161.85,521.01 167.29,531.30 174.32,539.24 180.75,543.37 188.61,546.95 197.30,549.63 206.37,551.31 215.14,551.98 223.16,551.31 229.88,549.19 235.02,544.83 238.88,538.01 241.98,529.73 244.77,520.67 247.87,511.95 251.65,504.24 256.64,498.54 263.90,493.95 272.37,490.26 281.51,487.58 290.89,486.01 299.96,485.68 308.20,486.80 316.06,489.59 323.99,494.06 331.70,499.65 338.58,506.36 344.33,513.41 348.33,520.79 351.06,533.31 350.45,547.51 347.80,562.16 344.18,576.02 333.82,600.96 319.23,624.10 301.77,646.13 280.98,665.13 255.81,679.00 228.52,689.40 201.39,698.12 173.64,703.26 159.06,704.60 143.94,705.39 129.50,703.93 116.80,698.57 77.42,646.91 54.66,599.61 49.60,562.16 44.16,542.48 40.68,522.13 40.00,502.23 44.99,476.06 53.83,450.35 78.32,393.99 93.67,367.16 111.51,341.78 130.26,320.31 156.49,296.38 313.86,174.28 351.21,148.90"
        fill="none"
        stroke="#e94560"
        stroke-width="8.0"
        stroke-linejoin="round"
        stroke-linecap="round"/>
  <!-- Start/finish line -->
  <line x1="339.99" y1="132.35" x2="362.43" y2="165.46"
        stroke="#f5f5f5" stroke-width="9.6"
        stroke-linecap="round"/>
</svg>
