<?xml version="1.0" encoding="utf-8"?>
<svg xmlns="http://www.w3.org/2000/svg"
     width="800.0" height="715.0"
     viewBox="0 0 800.0 715.0">
  <rect width="100%" height="100%" fill="#1a1a2e"/>
  <!-- Track outline -->
  <polyline points="439.34,589.97 549.13,658.92 564.78,665.84 577.99,669.61 612.72,673.26 644.61,675.02 675.53,673.64 686.04,670.93 695.17,667.16 703.57,662.25 715.36,652.50 725.54,640.73 734.31,626.89 741.69,612.11 753.21,583.86 756.47,574.49 759.22,564.99 760.00,555.43 755.55,539.26 747.52,523.59 727.93,497.68 714.30,467.86 710.31,460.31 706.18,452.63 701.18,445.90 694.62,441.18 682.05,439.11 666.31,440.68 649.38,444.08 633.14,447.35 571.84,461.56 556.66,463.20 542.71,463.07 527.34,460.43 512.20,456.22 497.66,451.69 484.26,445.08 475.91,437.91 468.43,429.17 462.51,419.73 458.43,410.04 455.91,399.66 455.03,388.09 458.70,368.52 465.63,346.69 469.81,327.12 469.62,315.86 468.06,305.67 465.31,295.98 463.20,289.82 460.77,283.40 457.88,277.36 454.39,272.39 450.31,269.25 446.18,268.18 441.32,268.18 436.04,269.06 430.72,270.69 425.76,272.83 421.40,275.29 417.14,279.56 413.74,285.29 410.62,291.52 407.23,297.37 403.01,301.83 396.54,305.61 389.24,308.31 381.62,309.95 374.24,310.33 364.79,308.38 355.38,304.29 346.25,299.82 320.70,285.54 271.37,243.52 246.51,217.47 228.52,193.50 213.89,161.48 200.44,117.19 185.39,74.66 179.25,64.60 172.82,56.67 165.44,50.38 156.90,45.66 147.45,42.45 137.82,40.57 127.95,40.00 117.86,40.75 108.13,42.96 98.73,46.79 89.69,52.08 81.43,58.18 71.11,68.12 62.07,79.63 52.80,94.48 45.51,110.59 42.20,121.22 40.00,132.10 40.05,142.61 43.03,152.36 48.07,161.67 53.81,170.48 62.16,181.42 72.67,192.37 97.12,212.19 123.78,234.52 165.35,286.42 249.58,424.32 293.31,482.51 319.23,509.75 348.50,532.91 439.34,589.97"
        fill="none"
        stroke="#e94560"
        stroke-width="8.0"
        stroke-linejoin="round"
        stroke-linecap="round"/>
  <!-- Start/finish line -->
  <line x1="449.98" y1="573.03" x2="428.71" y2="606.90"
        stroke="#f5f5f5" stroke-width="9.6"
        stroke-linecap="round"/>
</svg>
