<?xml version="1.0" encoding="utf-8"?>
<svg xmlns="http://www.w3.org/2000/svg"
     width="797.7" height="800.0"
     viewBox="0 0 797.7 800.0">
  <rect width="100%" height="100%" fill="#1a1a2e"/>
  <!-- Track outline -->
  <polyline points="306.60,338.09 532.56,133.83 553.82,114.48 577.65,93.24 597.30,75.62 612.00,63.87 630.84,52.32 649.33,44.07 658.77,41.44 668.34,40.00 677.81,40.29 687.27,41.60 696.69,43.08 705.97,45.59 715.93,50.15 725.35,56.06 733.70,62.76 741.03,70.44 747.08,79.03 751.85,88.44 755.14,99.12 757.05,110.13 757.75,119.95 757.50,129.72 754.53,150.92 747.13,173.43 738.57,190.15 727.57,206.26 715.36,220.88 701.38,233.13 685.50,242.82 668.07,250.30 649.56,256.09 608.46,263.28 513.18,277.90 490.15,285.50 471.75,293.47 454.07,303.25 437.78,314.51 423.69,328.44 410.89,343.92 400.09,361.92 391.90,381.51 385.38,402.38 382.37,424.57 382.66,447.49 386.29,469.02 392.58,489.89 401.84,508.87 412.73,526.41 425.66,541.81 433.17,548.51 441.30,554.55 450.05,559.93 459.34,564.61 479.78,571.72 502.02,576.20 594.39,576.36 655.68,571.68 666.76,571.97 676.17,573.65 682.60,576.16 688.74,579.53 694.37,583.47 701.57,590.29 707.58,598.18 712.55,607.05 716.16,616.67 718.20,627.31 718.83,638.15 718.52,647.89 716.88,657.38 713.34,666.74 708.53,675.66 702.86,684.12 696.26,691.89 688.65,698.87 680.30,705.07 671.32,710.74 661.79,715.55 641.00,721.92 618.29,726.19 599.68,727.05 436.62,702.65 386.52,700.31 338.78,703.59 296.23,713.54 216.02,747.72 197.00,753.47 173.70,758.40 151.62,760.00 141.04,759.38 130.65,757.74 120.40,754.95 110.52,751.00 101.31,745.99 92.69,739.87 84.25,731.98 76.60,723.48 65.21,708.69 54.70,692.05 46.60,673.73 41.82,655.32 40.48,646.29 40.00,636.92 40.86,624.92 42.88,613.01 48.71,594.89 57.97,576.20 85.68,539.06 121.01,500.45 234.08,403.66 306.60,338.09"
        fill="none"
        stroke="#e94560"
        stroke-width="8.0"
        stroke-linejoin="round"
        stroke-linecap="round"/>
  <!-- Start/finish line -->
  <line x1="293.19" y1="323.25" x2="320.01" y2="352.93"
        stroke="#f5f5f5" stroke-width="9.6"
        stroke-linecap="round"/>
</svg>
