<?xml version="1.0" encoding="utf-8"?>
<svg xmlns="http://www.w3.org/2000/svg"
     width="800.0" height="600.6"
     viewBox="0 0 800.0 600.6">
  <rect width="100%" height="100%" fill="#1a1a2e"/>
  <!-- Track outline -->
  <polyline points="525.63,524.19 537.73,519.19 572.23,496.62 593.50,485.71 614.58,474.43 634.05,463.20 652.70,452.24 670.27,441.73 686.72,431.13 701.28,420.77 714.35,410.66 725.94,400.18 735.64,389.10 744.42,376.70 751.79,363.49 756.82,350.22 759.62,336.01 760.00,321.46 757.96,307.62 753.67,293.98 746.82,281.20 737.52,269.49 726.01,259.32 713.07,250.05 698.47,241.87 682.38,233.92 666.46,225.16 651.95,215.83 637.86,205.72 624.15,194.15 610.66,181.80 597.84,168.05 585.50,152.75 573.35,136.76 560.83,121.02 547.50,105.95 533.30,92.66 518.06,81.66 501.15,72.16 482.68,64.17 462.86,57.80 441.88,52.40 420.18,47.75 398.61,44.02 377.75,41.49 357.92,40.00 339.13,40.26 321.47,41.61 304.97,44.25 289.11,48.15 273.41,53.64 257.78,60.53 242.09,68.74 226.32,78.30 210.93,88.92 195.39,100.29 179.91,112.24 165.10,123.75 151.19,134.40 138.09,143.96 125.49,152.29 113.41,159.90 102.11,166.93 87.83,176.06 74.50,184.56 62.58,193.00 53.24,201.93 44.75,214.28 40.46,227.11 40.00,240.43 44.13,253.38 52.87,263.20 66.20,268.43 80.61,264.55 92.88,257.86 105.25,252.61 119.86,245.77 130.85,238.80 141.59,230.73 152.24,221.80 162.71,211.92 173.17,201.30 184.12,190.13 195.82,178.56 208.23,166.67 221.27,154.41 234.67,142.18 247.96,130.81 260.83,121.05 273.26,112.93 285.63,105.92 298.57,100.67 312.00,96.59 325.96,93.66 340.35,92.54 355.00,93.09 369.80,95.01 384.57,98.60 399.35,103.60 414.06,110.06 428.56,118.07 443.41,127.31 458.69,137.82 473.97,148.82 489.75,160.62 506.48,173.05 522.85,184.88 538.20,195.79 551.76,205.78 563.81,215.28 574.96,224.07 585.03,232.36 595.56,243.30 601.99,254.79 605.23,267.65 605.04,281.52 600.84,294.27 593.12,304.92 582.63,313.79 568.70,319.85 551.63,323.06 536.90,323.92 521.32,324.44 504.79,324.96 487.27,325.85 469.36,327.08 450.31,328.81 430.11,331.10 409.54,334.03 388.34,337.05 366.65,340.29 344.70,343.51 323.78,346.26 304.05,348.85 285.41,350.94 267.80,352.81 251.19,355.08 235.78,357.89 221.20,362.02 207.84,367.36 196.17,373.62 185.37,380.89 175.75,389.56 165.23,402.77 157.65,416.95 153.23,432.54 151.81,449.39 152.72,462.37 156.54,478.91 162.92,493.81 171.85,506.27 182.75,517.32 195.70,526.83 210.96,534.58 223.87,539.63 237.79,543.91 252.11,547.53 267.42,550.63 283.87,553.44 301.23,556.03 319.33,558.12 337.92,559.64 357.67,560.65 378.37,560.59 399.92,559.21 422.00,556.26 444.61,551.46 467.73,545.26 490.63,537.74 513.97,529.01 525.63,524.19"
        fill="none"
        stroke="#e94560"
        stroke-width="8.0"
        stroke-linejoin="round"
        stroke-linecap="round"/>
  <!-- Start/finish line -->
  <line x1="518.00" y1="505.70" x2="533.27" y2="542.67"
        stroke="#f5f5f5" stroke-width="9.6"
        stroke-linecap="round"/>
</svg>
