<?xml version="1.0" encoding="utf-8"?>
<svg xmlns="http://www.w3.org/2000/svg"
     width="800.0" height="501.9"
     viewBox="0 0 800.0 501.9">
  <rect width="100%" height="100%" fill="#1a1a2e"/>
  <!-- Track outline -->
  <polyline points="360.47,254.33 456.18,214.97 462.17,212.77 468.14,210.81 473.33,209.74 477.21,209.86 480.76,211.13 484.89,213.69 490.28,218.48 505.20,230.45 515.34,238.00 523.74,243.15 533.50,247.22 542.38,250.01 551.00,251.41 559.13,252.85 564.32,253.25 568.50,253.05 572.13,252.25 575.81,250.89 579.34,249.22 582.74,246.94 585.60,244.35 587.81,242.07 589.67,239.67 591.51,236.60 593.20,232.53 594.02,228.30 594.42,222.79 594.30,209.98 595.39,191.13 598.90,167.78 600.09,164.15 602.13,160.40 605.08,156.84 609.11,153.29 613.11,150.62 617.71,148.14 623.18,146.02 630.06,144.23 643.19,142.75 675.00,138.76 686.61,136.60 694.24,134.25 700.10,131.25 704.05,128.42 707.73,124.51 710.49,119.88 711.93,114.61 712.16,109.94 711.48,105.55 709.87,101.36 707.16,97.04 704.13,93.89 700.90,91.50 697.22,90.18 693.29,89.50 688.87,89.38 684.32,89.90 677.41,91.30 618.63,104.31 614.26,105.51 610.85,106.66 606.50,108.38 602.13,110.30 597.58,112.69 589.97,117.16 584.63,120.84 557.29,141.39 553.54,143.95 549.86,145.79 546.58,147.02 543.30,147.38 540.14,147.02 537.11,146.06 533.68,144.35 530.65,141.71 528.24,138.84 526.05,135.41 523.96,131.37 522.82,127.82 522.49,124.19 522.92,120.92 524.21,117.68 526.27,114.29 528.98,111.26 533.03,107.70 539.77,102.67 548.12,97.08 555.62,92.65 565.22,87.50 575.86,83.07 591.69,77.52 609.23,71.62 704.28,42.67 710.59,40.96 717.08,40.04 723.54,40.00 729.75,41.12 735.07,43.51 740.02,47.07 743.84,50.82 747.70,55.93 750.31,59.92 753.39,65.63 755.73,70.94 757.96,77.00 759.73,83.43 760.00,88.74 759.60,94.21 758.73,100.36 711.71,287.62 709.70,293.01 707.09,298.04 704.58,301.75 701.39,305.42 698.31,308.26 695.50,310.53 692.57,312.29 689.56,313.92 686.90,314.96 683.62,315.92 679.55,316.68 674.45,317.20 669.66,317.20 662.20,316.24 610.70,305.42 600.04,303.78 582.84,302.67 561.54,301.23 525.90,298.56 519.71,298.08 514.42,296.92 509.92,295.16 505.99,292.89 501.84,289.49 497.52,285.42 492.49,280.27 487.28,274.72 483.67,271.37 479.99,268.42 476.29,266.06 471.89,264.50 466.92,263.79 461.82,263.99 456.36,265.18 450.71,266.90 437.99,271.29 343.99,303.55 336.26,306.26 327.14,310.09 315.63,315.12 275.72,332.17 235.43,348.17 231.00,350.21 226.23,352.73 222.50,355.12 219.02,357.84 216.44,360.63 214.18,364.02 212.46,367.97 209.80,374.72 203.52,390.77 200.73,396.00 198.20,400.55 195.31,404.34 192.01,408.05 188.48,411.85 183.51,416.28 177.82,421.07 145.63,445.50 139.17,449.93 133.40,453.52 127.69,456.55 121.99,458.75 116.63,460.19 111.60,461.19 106.21,461.66 101.02,461.94 94.63,461.94 88.39,461.15 81.48,458.71 72.68,454.44 63.96,449.73 57.03,445.42 51.81,441.70 47.58,438.11 44.20,433.72 41.96,429.49 40.32,425.18 40.00,420.79 40.27,415.60 41.79,410.81 44.87,406.02 50.19,400.27 57.70,393.64 78.42,378.35 101.84,361.19 126.24,344.26 148.56,330.13 171.23,317.72 181.42,313.13 190.07,309.73 198.64,307.46 210.95,305.42 241.14,300.75 246.39,299.63 252.65,297.84 260.23,295.08 360.47,254.33"
        fill="none"
        stroke="#e94560"
        stroke-width="8.0"
        stroke-linejoin="round"
        stroke-linecap="round"/>
  <!-- Start/finish line -->
  <line x1="352.90" y1="235.81" x2="368.04" y2="272.84"
        stroke="#f5f5f5" stroke-width="9.6"
        stroke-linecap="round"/>
</svg>
