<?xml version="1.0" encoding="utf-8"?>
<svg xmlns="http://www.w3.org/2000/svg"
     width="473.3" height="800.0"
     viewBox="0 0 473.3 800.0">
  <rect width="100%" height="100%" fill="#1a1a2e"/>
  <!-- Track outline -->
  <polyline points="50.96,392.07 40.00,549.14 42.38,619.95 44.25,630.93 47.41,640.92 56.94,661.66 70.38,683.09 90.31,705.11 113.19,724.16 137.03,738.91 162.55,749.83 193.06,757.21 224.04,760.00 250.74,758.72 277.09,753.20 307.55,741.24 336.15,725.15 356.13,709.87 373.12,692.39 385.90,674.73 395.91,654.86 401.98,634.12 406.36,605.89 433.27,207.82 432.40,186.21 429.76,170.06 424.77,152.28 417.10,135.03 402.20,112.38 383.39,91.41 359.25,72.76 333.42,58.18 311.37,48.83 288.01,42.96 253.43,40.00 217.50,42.21 185.74,49.35 156.05,61.67 139.15,72.35 123.38,85.13 109.38,99.37 93.43,120.51 80.95,144.50 72.98,170.64 67.30,202.65 51.18,389.05 50.96,392.07"
        fill="none"
        stroke="#e94560"
        stroke-width="8.0"
        stroke-linejoin="round"
        stroke-linecap="round"/>
  <!-- Start/finish line -->
  <line x1="70.92" y1="393.46" x2="31.01" y2="390.68"
        stroke="#f5f5f5" stroke-width="9.6"
        stroke-linecap="round"/>
</svg>
