<?xml version="1.0" encoding="utf-8"?>
<svg xmlns="http://www.w3.org/2000/svg"
     width="336.1" height="800.0"
     viewBox="0 0 336.1 800.0">
  <rect width="100%" height="100%" fill="#1a1a2e"/>
  <!-- Track outline -->
  <polyline points="145.40,172.33 145.79,182.61 146.67,204.17 146.97,217.92 146.59,226.65 146.31,238.51 147.14,244.86 148.10,249.24 152.70,260.41 156.35,269.62 159.62,281.76 163.93,291.41 166.93,295.84 168.76,297.81 173.02,301.24 175.42,302.68 188.80,308.09 194.40,310.46 199.89,313.43 207.87,318.80 220.95,329.43 242.29,349.34 253.01,359.94 266.10,373.40 273.72,382.41 276.16,385.63 278.46,389.00 280.61,392.53 282.61,396.19 284.44,399.99 287.56,407.92 290.03,416.19 291.88,424.74 293.20,433.39 295.15,455.39 296.05,477.67 295.51,495.60 293.78,518.00 291.80,531.49 288.05,549.50 282.05,572.28 272.52,609.76 267.90,638.85 257.12,713.93 252.95,746.30 252.30,749.19 251.39,751.84 250.23,754.21 248.78,756.27 248.00,757.14 247.12,757.93 245.93,758.75 244.64,759.41 243.74,759.72 242.82,759.93 241.93,760.00 240.83,759.83 239.74,759.47 238.42,758.92 237.13,758.26 235.28,756.99 233.49,755.53 212.52,734.05 157.46,680.42 145.84,668.12 134.78,654.86 129.64,647.85 127.31,644.16 123.12,636.51 119.49,628.54 116.45,620.32 111.58,603.47 101.45,564.64 95.82,538.09 91.88,524.99 79.94,475.52 75.56,452.56 60.81,336.40 56.38,295.41 52.60,254.39 44.07,172.23 43.52,167.01 42.24,155.80 41.17,148.70 40.55,145.25 40.17,142.86 40.00,140.35 40.03,137.71 40.67,132.19 42.42,124.86 43.29,122.65 44.38,120.50 45.68,118.42 48.77,114.46 59.92,103.21 95.22,70.15 115.09,52.49 118.23,50.05 121.57,47.88 125.04,45.97 128.63,44.36 132.33,42.99 136.17,41.96 140.07,41.21 147.98,40.28 156.01,40.00 160.04,40.10 168.13,40.88 176.27,42.41 192.42,46.94 212.72,53.55 241.44,64.33 253.62,69.76 257.59,71.82 265.21,76.51 272.07,81.38 275.20,83.84 283.50,91.34 285.98,93.90 288.15,96.67 290.00,99.67 291.43,102.92 292.46,106.24 293.08,109.68 293.10,113.16 292.72,116.62 291.99,120.06 290.83,123.41 289.36,126.67 287.44,129.72 285.13,132.50 282.50,135.01 279.64,137.29 276.41,139.12 273.00,140.61 269.45,141.79 265.79,142.70 262.02,143.33 258.17,143.71 254.28,143.86 209.17,142.34 163.33,139.55 160.26,139.69 157.25,140.21 154.44,141.25 151.91,142.65 150.75,143.49 149.67,144.44 147.79,146.61 146.98,147.78 146.28,149.02 145.72,150.33 145.27,151.69 144.94,152.89 144.71,154.49 145.40,172.33"
        fill="none"
        stroke="#e94560"
        stroke-width="8.0"
        stroke-linejoin="round"
        stroke-linecap="round"/>
  <!-- Start/finish line -->
  <line x1="165.38" y1="171.57" x2="125.41" y2="173.10"
        stroke="#f5f5f5" stroke-width="9.6"
        stroke-linecap="round"/>
</svg>
