<?xml version="1.0" encoding="utf-8"?>
<svg xmlns="http://www.w3.org/2000/svg"
     width="433.0" height="800.0"
     viewBox="0 0 433.0 800.0">
  <rect width="100%" height="100%" fill="#1a1a2e"/>
  <!-- Track outline -->
  <polyline points="158.62,366.41 126.61,393.02 100.84,421.01 79.77,449.48 66.43,472.58 56.15,498.88 45.29,560.31 40.00,608.68 41.68,636.95 46.18,666.48 52.98,688.44 61.83,708.04 71.12,722.90 81.65,735.16 92.09,743.48 103.62,749.79 118.12,755.27 134.07,758.70 153.56,760.00 176.16,758.38 228.28,747.98 278.29,733.31 295.73,725.70 309.27,717.14 315.72,711.82 321.30,706.03 326.25,699.24 331.14,690.26 335.24,680.00 338.21,668.85 340.52,646.06 339.50,622.44 335.63,602.18 329.16,583.65 320.77,568.63 310.96,556.13 305.21,550.57 299.23,546.03 292.83,542.37 281.07,538.43 270.13,536.34 265.67,535.70 261.21,535.82 253.81,537.20 245.09,539.69 237.07,543.27 230.79,547.57 225.08,552.78 220.02,558.69 213.85,568.19 208.83,580.34 204.80,601.94 201.82,627.96 197.99,647.91 194.09,655.72 190.00,661.08 187.16,664.16 184.18,666.60 180.65,668.81 176.92,670.58 173.22,671.84 169.48,672.63 165.69,672.95 161.89,672.79 157.99,672.16 154.12,671.05 150.16,669.56 146.16,667.39 140.61,663.21 135.30,657.89 130.77,651.46 127.17,644.92 125.45,641.33 124.13,637.15 121.29,621.77 119.77,603.40 120.76,586.96 123.77,570.56 129.15,552.62 136.75,534.76 147.88,514.97 162.05,495.02 213.91,440.53 302.50,353.44 330.42,312.91 353.24,271.04 372.04,229.25 385.74,189.98 390.93,168.02 392.98,148.11 392.05,130.96 388.65,114.91 385.25,105.21 380.85,96.06 375.27,87.51 361.86,73.87 346.27,62.28 331.47,53.60 315.65,47.06 295.27,42.17 275.45,40.00 263.66,40.20 252.82,42.21 245.52,44.69 238.42,48.04 231.75,52.30 222.17,61.45 214.74,70.79 212.52,74.46 210.97,78.32 208.92,86.13 207.83,94.84 208.23,103.12 210.21,111.72 216.32,125.00 225.51,139.27 245.29,161.39 264.02,183.20 270.07,195.14 273.70,206.26 275.32,214.30 275.71,222.54 274.43,234.88 271.78,247.11 269.08,255.42 265.28,263.59 256.92,277.78 245.69,292.60 205.16,327.69 158.62,366.41"
        fill="none"
        stroke="#e94560"
        stroke-width="8.0"
        stroke-linejoin="round"
        stroke-linecap="round"/>
  <!-- Start/finish line -->
  <line x1="171.41" y1="381.79" x2="145.83" y2="351.03"
        stroke="#f5f5f5" stroke-width="9.6"
        stroke-linecap="round"/>
</svg>
