<?xml version="1.0" encoding="utf-8"?>
<svg xmlns="http://www.w3.org/2000/svg"
     width="476.1" height="800.0"
     viewBox="0 0 476.1 800.0">
  <rect width="100%" height="100%" fill="#1a1a2e"/>
  <!-- Track outline -->
  <polyline points="41.36,404.06 41.46,412.15 46.17,583.27 49.53,605.26 57.73,630.10 67.16,653.16 74.79,666.21 98.83,696.96 113.84,711.68 141.77,731.22 162.29,742.85 184.22,752.15 203.68,756.58 224.04,759.79 245.80,760.00 286.65,753.21 306.56,746.97 327.41,738.43 343.98,728.34 359.43,717.26 366.47,711.26 372.48,704.99 384.60,688.30 403.57,654.91 417.35,617.17 422.00,595.84 430.87,530.11 432.56,484.79 436.06,253.29 433.24,214.73 424.27,175.05 411.97,149.84 400.73,133.00 379.71,108.64 349.41,82.53 319.12,62.33 294.26,51.66 272.89,45.63 251.46,41.12 228.71,40.00 205.49,42.18 179.90,48.69 160.58,56.48 137.43,70.47 114.12,87.29 90.97,110.13 77.26,128.39 64.51,151.27 53.48,175.14 47.63,196.98 43.33,220.94 40.00,291.95 41.36,404.06"
        fill="none"
        stroke="#e94560"
        stroke-width="8.0"
        stroke-linejoin="round"
        stroke-linecap="round"/>
  <!-- Start/finish line -->
  <line x1="61.36" y1="403.82" x2="21.36" y2="404.30"
        stroke="#f5f5f5" stroke-width="9.6"
        stroke-linecap="round"/>
</svg>
