<?xml version="1.0" encoding="utf-8"?>
<svg xmlns="http://www.w3.org/2000/svg"
     width="800.0" height="768.0"
     viewBox="0 0 800.0 768.0">
  <rect width="100%" height="100%" fill="#1a1a2e"/>
  <!-- Track outline -->
  <polyline points="223.05,309.56 220.74,312.24 195.95,344.98 187.15,357.55 128.81,437.87 120.84,449.00 86.72,499.39 60.76,542.27 53.72,558.24 44.43,591.39 41.42,608.52 40.00,624.25 41.66,640.02 44.30,654.99 47.65,663.80 51.81,672.23 55.45,678.63 59.95,685.01 70.77,697.22 82.38,708.54 88.45,713.57 94.34,717.43 100.94,720.59 107.84,723.11 114.90,725.43 122.82,727.13 138.59,728.00 154.54,727.51 163.02,726.54 170.73,724.92 186.03,719.51 262.13,684.63 370.88,613.41 386.81,602.79 432.47,566.62 477.86,526.71 564.89,443.92 619.53,393.27 643.01,371.76 654.71,362.41 686.63,328.48 697.85,317.34 723.99,294.40 750.87,264.52 756.24,255.58 758.74,249.31 760.00,241.45 759.64,234.10 756.56,222.78 750.94,210.32 747.83,204.43 744.34,199.41 739.10,193.84 733.19,188.98 727.23,185.22 721.04,182.44 715.24,180.93 708.85,180.17 696.79,179.71 684.40,180.36 676.30,181.79 668.81,184.03 661.55,187.06 654.55,190.82 648.34,194.71 641.37,200.19 590.98,251.53 505.82,361.17 382.58,489.86 362.72,508.53 350.73,517.09 345.17,520.49 339.46,523.30 333.12,525.30 326.55,526.65 319.73,527.71 312.94,528.01 308.66,527.71 304.48,527.03 300.48,525.68 294.85,521.85 289.61,517.20 284.71,513.20 280.37,508.74 277.13,503.23 274.72,497.10 273.06,490.59 272.38,483.94 273.06,477.62 274.63,471.40 276.61,465.35 280.21,458.35 306.42,425.23 342.90,384.46 430.40,294.43 521.03,185.68 540.01,154.75 546.54,140.10 551.19,126.38 554.61,112.63 555.24,105.82 554.79,99.01 552.02,85.55 547.64,72.37 543.72,65.07 539.07,59.07 533.40,53.94 527.30,49.62 521.75,45.86 515.88,42.86 508.81,40.81 500.81,40.00 486.63,41.38 471.45,44.78 457.01,49.67 444.28,55.48 430.22,65.32 368.72,128.05 233.99,296.86 223.05,309.56"
        fill="none"
        stroke="#e94560"
        stroke-width="8.0"
        stroke-linejoin="round"
        stroke-linecap="round"/>
  <!-- Start/finish line -->
  <line x1="238.20" y1="322.62" x2="207.90" y2="296.51"
        stroke="#f5f5f5" stroke-width="9.6"
        stroke-linecap="round"/>
</svg>
