<?xml version="1.0" encoding="utf-8"?>
<svg xmlns="http://www.w3.org/2000/svg"
     width="326.8" height="800.0"
     viewBox="0 0 326.8 800.0">
  <rect width="100%" height="100%" fill="#1a1a2e"/>
  <!-- Track outline -->
  <polyline points="282.41,412.35 282.47,408.48 286.77,194.73 285.58,160.29 282.41,136.73 277.00,116.88 270.47,101.78 262.63,89.51 251.78,76.56 238.72,65.05 221.42,54.39 204.37,47.09 184.75,42.10 163.77,40.00 145.23,41.09 126.62,44.62 108.71,50.05 95.79,55.96 82.66,64.34 72.04,73.43 67.60,78.50 63.56,84.06 59.49,90.52 55.93,97.67 53.00,106.15 50.83,115.29 48.36,136.70 40.00,656.33 42.22,671.15 46.74,686.63 52.69,701.62 60.41,715.79 65.11,721.87 70.11,727.15 74.05,730.61 78.70,733.92 106.11,749.24 122.62,755.73 130.42,757.85 139.13,759.29 158.33,760.00 176.79,759.34 188.57,757.35 204.73,752.20 221.42,743.34 234.46,733.67 245.04,724.22 255.53,710.64 263.73,695.72 270.90,676.32 277.41,637.90 278.60,615.90 282.41,412.35"
        fill="none"
        stroke="#e94560"
        stroke-width="8.0"
        stroke-linejoin="round"
        stroke-linecap="round"/>
  <!-- Start/finish line -->
  <line x1="262.42" y1="411.97" x2="302.41" y2="412.72"
        stroke="#f5f5f5" stroke-width="9.6"
        stroke-linecap="round"/>
</svg>
