<?xml version="1.0" encoding="utf-8"?>
<svg xmlns="http://www.w3.org/2000/svg"
     width="497.4" height="800.0"
     viewBox="0 0 497.4 800.0">
  <rect width="100%" height="100%" fill="#1a1a2e"/>
  <!-- Track outline -->
  <polyline points="40.04,460.64 40.70,503.44 48.46,562.27 53.33,578.87 59.87,594.44 87.39,640.69 142.86,710.99 156.99,724.72 171.06,735.29 190.06,745.63 209.89,753.38 227.10,757.74 244.70,759.83 266.55,760.00 288.82,757.47 311.58,751.06 330.24,743.91 339.00,739.47 357.57,727.36 379.10,710.15 398.74,688.11 415.46,664.39 424.47,647.57 431.40,630.30 436.95,613.20 441.39,590.05 453.57,406.46 457.44,220.69 455.82,195.20 452.04,175.68 444.37,153.79 434.02,133.18 420.76,112.97 405.60,94.91 389.49,80.04 371.98,67.55 351.05,56.35 329.63,47.90 311.94,43.08 293.99,40.49 271.42,40.00 248.87,41.92 230.87,45.43 213.31,51.00 193.74,59.45 173.44,71.18 144.82,92.73 117.80,117.47 87.75,155.62 72.15,179.63 60.74,204.57 50.99,233.49 42.42,273.45 40.57,298.85 40.00,458.12 40.04,460.64"
        fill="none"
        stroke="#e94560"
        stroke-width="8.0"
        stroke-linejoin="round"
        stroke-linecap="round"/>
  <!-- Start/finish line -->
  <line x1="60.04" y1="460.33" x2="20.04" y2="460.95"
        stroke="#f5f5f5" stroke-width="9.6"
        stroke-linecap="round"/>
</svg>
