<?xml version="1.0" encoding="utf-8"?>
<svg xmlns="http://www.w3.org/2000/svg"
     width="383.5" height="800.0"
     viewBox="0 0 383.5 800.0">
  <rect width="100%" height="100%" fill="#1a1a2e"/>
  <!-- Track outline -->
  <polyline points="48.06,458.76 58.25,605.28 64.60,635.10 72.96,663.76 82.03,683.68 90.82,697.69 107.11,716.95 124.81,734.69 132.68,740.15 139.88,743.99 153.21,750.27 169.08,755.19 187.17,758.69 206.45,760.00 229.98,757.71 252.51,753.95 266.02,749.80 278.53,743.93 291.21,735.57 312.54,715.97 320.37,706.39 327.27,695.97 332.73,684.77 337.36,672.97 340.09,659.97 343.46,625.88 332.39,220.18 323.15,146.75 319.26,131.82 313.14,118.38 296.15,93.19 286.18,82.43 265.71,66.00 242.40,52.41 229.22,46.80 213.82,42.78 182.74,40.00 166.14,41.24 150.25,43.76 133.76,48.81 102.44,63.43 87.28,73.83 75.99,85.01 66.53,97.24 58.27,111.22 46.75,140.60 43.10,158.75 40.00,221.70 47.93,456.95 48.06,458.76"
        fill="none"
        stroke="#e94560"
        stroke-width="8.0"
        stroke-linejoin="round"
        stroke-linecap="round"/>
  <!-- Start/finish line -->
  <line x1="68.01" y1="457.37" x2="28.11" y2="460.14"
        stroke="#f5f5f5" stroke-width="9.6"
        stroke-linecap="round"/>
</svg>
