<?xml version="1.0" encoding="utf-8"?>
<svg xmlns="http://www.w3.org/2000/svg"
     width="726.0" height="800.0"
     viewBox="0 0 726.0 800.0">
  <rect width="100%" height="100%" fill="#1a1a2e"/>
  <!-- Track outline -->
  <polyline points="525.39,254.86 457.63,170.20 407.16,112.46 377.20,87.40 349.77,67.98 329.15,56.93 287.78,43.35 277.45,41.15 266.53,40.00 235.02,40.05 203.71,42.34 193.26,44.30 183.44,47.32 143.31,65.06 126.49,76.02 102.22,97.49 79.50,120.31 68.58,135.09 60.23,148.82 52.47,165.22 45.62,188.04 41.31,213.87 40.00,247.97 43.05,283.65 53.02,322.92 65.21,356.31 69.69,366.11 76.30,376.68 191.99,532.85 327.44,696.43 356.85,721.07 380.92,735.75 395.41,743.26 410.92,748.62 446.82,756.60 486.48,760.00 520.45,755.98 552.98,746.37 583.18,731.73 611.09,712.31 636.82,686.91 657.24,661.52 664.29,650.90 669.63,639.61 677.43,616.03 683.32,588.48 685.98,553.13 685.78,521.80 685.22,512.71 683.32,503.67 668.64,466.46 647.86,424.99 610.18,370.99 525.39,254.86"
        fill="none"
        stroke="#e94560"
        stroke-width="8.0"
        stroke-linejoin="round"
        stroke-linecap="round"/>
  <!-- Start/finish line -->
  <line x1="509.47" y1="266.96" x2="541.32" y2="242.76"
        stroke="#f5f5f5" stroke-width="9.6"
        stroke-linecap="round"/>
</svg>
