<?xml version="1.0" encoding="utf-8"?>
<svg xmlns="http://www.w3.org/2000/svg"
     width="471.7" height="800.0"
     viewBox="0 0 471.7 800.0">
  <rect width="100%" height="100%" fill="#1a1a2e"/>
  <!-- Track outline -->
  <polyline points="68.40,436.34 91.45,571.89 110.75,639.94 123.13,664.99 137.22,687.40 153.80,709.18 170.22,724.36 185.43,735.72 198.03,742.94 213.80,749.65 231.45,755.52 245.79,758.68 260.75,760.00 282.93,758.85 305.65,754.82 324.61,748.71 342.62,740.09 360.57,728.28 377.24,714.25 391.33,699.52 403.57,683.26 413.37,665.30 419.59,649.32 426.87,614.13 429.79,569.28 431.69,483.76 419.14,348.93 389.84,223.77 362.62,154.53 353.01,137.69 329.23,103.57 303.10,76.13 296.29,70.57 288.73,65.71 265.54,54.03 241.06,44.31 230.02,41.91 220.13,40.83 201.73,40.00 179.27,41.95 159.80,46.29 141.06,52.37 118.85,63.97 98.46,76.93 88.51,86.76 66.58,112.08 57.53,126.01 49.05,143.38 45.83,152.45 43.33,163.57 40.53,201.61 40.00,238.60 41.26,253.78 67.95,433.77 68.40,436.34"
        fill="none"
        stroke="#e94560"
        stroke-width="8.0"
        stroke-linejoin="round"
        stroke-linecap="round"/>
  <!-- Start/finish line -->
  <line x1="88.12" y1="432.98" x2="48.69" y2="439.69"
        stroke="#f5f5f5" stroke-width="9.6"
        stroke-linecap="round"/>
</svg>
