<?xml version="1.0" encoding="utf-8"?>
<svg xmlns="http://www.w3.org/2000/svg"
     width="395.9" height="800.0"
     viewBox="0 0 395.9 800.0">
  <rect width="100%" height="100%" fill="#1a1a2e"/>
  <!-- Track outline -->
  <polyline points="49.45,186.82 56.05,238.12 77.26,418.07 80.51,441.28 107.57,646.61 115.74,673.37 125.43,694.06 137.24,712.64 151.07,728.42 167.51,741.38 184.87,751.07 199.49,756.51 214.79,759.43 236.08,760.00 258.04,757.48 278.62,752.26 297.30,744.57 309.46,737.05 319.77,727.89 325.47,721.08 330.50,713.57 334.49,705.56 337.31,697.38 339.16,688.76 339.77,680.27 339.02,672.13 337.10,664.08 334.21,656.52 330.03,649.04 324.79,642.14 318.84,636.13 311.74,630.78 303.86,626.45 295.16,623.13 276.76,620.17 256.97,619.50 217.57,620.61 203.99,618.79 192.01,615.57 183.98,611.85 176.64,607.12 168.19,600.27 161.13,592.97 158.35,588.81 156.42,584.61 155.10,580.41 154.39,576.08 154.39,571.65 155.03,567.27 156.42,562.72 158.38,558.25 161.09,553.34 164.37,549.01 167.94,545.96 171.79,543.57 175.85,541.58 180.13,540.03 184.70,538.97 189.40,538.35 199.64,538.57 280.86,549.94 296.27,549.45 308.14,547.51 313.45,545.87 318.30,543.48 326.47,538.18 333.85,532.07 336.88,528.40 339.23,524.60 341.34,520.44 343.01,516.02 344.08,511.60 344.65,507.13 344.69,502.84 344.23,498.60 343.23,494.44 341.73,490.46 339.66,486.48 337.17,482.68 334.42,478.96 330.57,475.25 314.77,465.74 292.45,457.47 230.55,444.42 187.37,434.03 170.86,427.75 163.94,423.55 156.74,417.27 150.54,410.55 147.15,406.30 144.58,402.01 142.94,397.50 141.87,392.81 141.27,388.48 141.09,384.23 141.41,380.17 142.16,376.19 143.41,372.34 145.12,368.67 147.33,365.09 149.97,361.77 153.14,358.45 156.63,355.53 160.38,353.06 164.34,351.07 168.62,349.47 173.07,348.33 177.89,347.62 182.81,347.40 193.54,348.24 224.81,356.68 259.83,364.82 275.30,365.31 288.99,363.18 297.91,360.40 306.54,356.51 314.52,351.46 321.66,345.36 328.15,338.15 333.85,330.19 340.66,317.99 345.97,301.80 353.32,237.90 355.89,165.99 355.35,124.33 351.75,90.72 347.11,76.26 341.94,65.83 339.70,62.16 334.96,56.10 325.19,48.49 315.42,42.70 306.64,40.53 302.47,40.04 295.02,40.00 286.03,40.84 277.33,42.70 269.49,45.62 261.89,49.55 255.12,54.55 249.49,60.43 244.60,67.29 240.75,74.85 238.08,83.25 236.47,92.36 235.83,101.65 236.58,115.84 240.25,131.50 258.26,167.63 278.83,204.11 289.99,226.80 294.41,238.56 295.59,247.76 294.95,257.18 293.34,266.73 291.81,272.22 289.81,276.99 287.25,281.33 284.25,285.17 281.08,288.58 277.62,291.59 273.87,294.11 269.92,296.19 265.89,297.87 261.15,298.97 249.27,299.59 235.12,298.26 217.07,293.44 198.35,285.88 178.67,275.22 160.06,262.18 144.83,248.47 131.78,232.77 121.65,215.12 113.95,195.36 108.78,171.43 105.47,145.61 103.29,114.16 100.05,85.11 96.77,74.14 92.81,64.63 88.56,57.38 85.78,54.33 82.90,52.16 79.97,50.39 75.80,48.23 71.59,46.81 68.85,46.41 66.10,46.37 63.39,46.68 60.68,47.43 58.01,48.54 55.40,49.99 52.69,51.72 50.02,53.80 47.59,56.76 44.17,62.95 41.21,71.13 40.00,83.47 44.81,150.82 49.45,186.82"
        fill="none"
        stroke="#e94560"
        stroke-width="8.0"
        stroke-linejoin="round"
        stroke-linecap="round"/>
  <!-- Start/finish line -->
  <line x1="69.29" y1="184.27" x2="29.61" y2="189.37"
        stroke="#f5f5f5" stroke-width="9.6"
        stroke-linecap="round"/>
</svg>
