<?xml version="1.0" encoding="utf-8"?>
<svg xmlns="http://www.w3.org/2000/svg"
     width="462.6" height="800.0"
     viewBox="0 0 462.6 800.0">
  <rect width="100%" height="100%" fill="#1a1a2e"/>
  <!-- Track outline -->
  <polyline points="48.28,408.89 47.85,419.13 40.00,546.29 44.28,623.85 46.24,633.57 48.95,642.09 54.52,657.09 62.56,673.19 80.57,697.60 99.57,718.76 115.65,732.14 133.66,743.48 150.42,751.01 159.25,754.36 169.69,757.02 198.68,760.00 231.45,759.32 259.90,752.84 284.22,744.22 293.64,739.98 302.20,734.86 316.28,724.46 330.57,711.97 342.61,699.90 354.15,685.21 370.98,654.48 384.60,624.27 390.64,605.56 396.25,580.47 413.20,411.34 422.58,229.20 418.82,196.32 413.60,173.59 411.40,164.60 408.30,156.13 395.23,131.93 380.32,108.47 374.20,99.90 367.22,92.37 344.54,74.34 320.56,58.55 311.38,53.95 302.12,50.71 282.42,45.44 260.09,41.57 234.55,40.00 211.16,40.52 201.08,41.67 190.91,44.02 163.37,53.17 136.88,64.51 128.76,69.43 121.50,75.59 104.67,94.04 89.21,113.95 84.26,121.38 80.02,129.95 67.43,166.43 57.58,203.12 56.56,218.48 48.28,408.89"
        fill="none"
        stroke="#e94560"
        stroke-width="8.0"
        stroke-linejoin="round"
        stroke-linecap="round"/>
  <!-- Start/finish line -->
  <line x1="68.26" y1="409.75" x2="28.30" y2="408.02"
        stroke="#f5f5f5" stroke-width="9.6"
        stroke-linecap="round"/>
</svg>
