<?xml version="1.0" encoding="utf-8"?>
<svg xmlns="http://www.w3.org/2000/svg"
     width="537.2" height="800.0"
     viewBox="0 0 537.2 800.0">
  <rect width="100%" height="100%" fill="#1a1a2e"/>
  <!-- Track outline -->
  <polyline points="40.63,402.06 40.00,476.08 40.92,521.79 45.52,562.12 55.69,600.68 69.94,635.63 85.40,661.72 104.25,684.87 132.53,711.56 165.06,733.90 203.27,749.38 241.03,758.01 257.35,759.93 272.58,760.00 288.85,757.64 327.87,744.44 365.80,725.13 388.56,709.57 408.67,690.77 430.74,664.01 450.40,630.02 471.54,561.75 485.45,497.32 489.70,465.76 493.79,403.69 495.62,396.53 497.18,388.65 495.51,320.16 485.85,236.70 471.83,184.28 453.38,140.56 436.95,115.20 417.92,94.85 394.02,75.98 367.35,60.94 335.22,48.63 302.35,41.33 274.82,40.00 247.81,42.73 219.88,48.92 192.93,59.32 168.79,74.13 145.57,93.89 116.61,124.12 90.11,162.53 66.15,220.85 49.25,289.19 40.75,384.52 40.63,402.06"
        fill="none"
        stroke="#e94560"
        stroke-width="8.0"
        stroke-linejoin="round"
        stroke-linecap="round"/>
  <!-- Start/finish line -->
  <line x1="60.63" y1="402.23" x2="20.63" y2="401.90"
        stroke="#f5f5f5" stroke-width="9.6"
        stroke-linecap="round"/>
</svg>
