<?xml version="1.0" encoding="utf-8"?>
<svg xmlns="http://www.w3.org/2000/svg"
     width="800.0" height="741.4"
     viewBox="0 0 800.0 741.4">
  <rect width="100%" height="100%" fill="#1a1a2e"/>
  <!-- Track outline -->
  <polyline points="391.45,74.52 388.35,75.17 253.91,115.23 84.90,165.74 80.74,167.78 77.96,169.82 75.19,172.45 72.80,175.56 70.98,178.93 69.61,182.78 68.67,187.66 68.37,193.24 71.01,211.84 72.93,229.87 72.56,243.77 70.32,255.10 66.05,266.15 58.12,279.31 45.57,299.28 43.02,305.18 41.30,311.01 40.28,317.08 40.00,323.30 40.60,329.68 41.97,335.94 44.18,342.30 47.09,348.29 50.84,354.16 55.30,359.54 61.48,365.21 68.83,370.54 96.51,385.48 101.54,389.00 105.61,392.55 108.88,396.12 111.60,399.93 113.30,403.08 114.56,406.42 115.40,409.92 115.77,413.56 115.51,417.23 114.74,420.79 113.36,424.31 111.52,427.52 109.23,430.44 106.31,433.33 89.44,446.75 87.77,448.53 86.56,450.14 84.42,453.66 82.81,457.39 81.73,461.54 81.26,466.79 81.48,472.28 82.52,477.86 84.25,483.24 86.76,488.65 89.95,493.75 94.68,499.61 100.27,505.01 107.02,510.15 116.25,515.49 239.25,566.98 550.66,698.99 558.79,700.85 564.56,701.41 570.00,700.51 574.70,698.64 579.26,695.83 583.50,692.16 587.25,687.77 590.93,679.76 593.48,669.70 595.95,659.60 599.41,651.45 603.96,645.87 609.11,641.50 614.59,637.91 619.82,634.99 625.36,632.75 631.76,631.49 650.61,633.60 671.84,637.91 694.48,641.75 715.23,642.91 722.96,640.99 729.73,637.96 735.83,634.36 743.12,628.80 749.25,622.23 752.93,617.18 756.11,611.66 758.37,605.86 759.65,599.60 760.00,593.03 759.23,586.58 756.83,579.95 753.18,573.46 749.24,567.33 744.04,559.33 737.66,552.42 732.22,548.61 725.77,545.59 716.05,542.54 516.64,515.65 323.49,497.34 309.96,497.37 300.06,496.73 291.24,495.34 282.51,492.94 276.99,489.88 272.07,486.21 262.54,477.85 254.21,467.96 247.51,456.72 244.95,450.76 242.90,444.49 241.49,438.23 240.66,431.82 240.45,425.45 240.83,419.12 241.88,412.73 243.40,406.74 246.85,397.90 253.41,386.99 261.93,377.27 272.10,368.99 283.67,362.40 296.35,357.73 309.82,355.05 323.75,354.28 341.50,355.78 363.06,360.08 392.09,368.95 480.72,396.44 634.03,435.73 675.58,445.10 682.99,445.61 689.23,445.26 694.59,444.31 699.16,442.85 703.48,441.11 707.13,438.94 710.47,436.32 713.52,433.19 716.05,429.70 718.18,425.76 719.74,421.58 720.81,417.09 721.29,412.44 721.20,407.70 720.50,402.92 719.20,398.17 716.90,392.56 713.60,386.77 695.56,365.91 674.68,343.73 662.90,328.58 654.56,314.36 648.06,298.76 644.47,285.43 642.00,267.99 641.43,249.96 643.10,227.81 647.85,199.10 650.63,188.77 652.45,181.59 652.39,181.02 652.30,180.46 653.03,176.39 654.30,170.24 654.78,164.36 653.38,158.06 651.06,152.18 645.94,141.99 643.81,136.85 642.37,131.28 641.93,127.19 641.76,122.64 642.15,118.21 643.39,114.45 645.57,111.74 648.53,109.49 651.85,107.57 655.10,105.81 661.25,103.26 667.30,100.75 672.69,97.25 677.42,93.17 680.02,90.46 682.30,87.55 683.82,84.21 684.40,80.60 684.37,76.50 683.76,72.37 682.62,68.63 680.24,64.48 676.94,60.76 673.03,57.39 664.69,52.34 654.78,48.18 640.85,43.88 626.37,40.92 603.67,40.00 570.38,41.35 532.10,45.17 391.45,74.52"
        fill="none"
        stroke="#e94560"
        stroke-width="8.0"
        stroke-linejoin="round"
        stroke-linecap="round"/>
  <!-- Start/finish line -->
  <line x1="395.53" y1="94.10" x2="387.36" y2="54.94"
        stroke="#f5f5f5" stroke-width="9.6"
        stroke-linecap="round"/>
</svg>
