<?xml version="1.0" encoding="utf-8"?>
<svg xmlns="http://www.w3.org/2000/svg"
     width="800.0" height="633.2"
     viewBox="0 0 800.0 633.2">
  <rect width="100%" height="100%" fill="#1a1a2e"/>
  <!-- Track outline -->
  <polyline points="388.43,90.84 385.97,91.57 252.44,131.36 84.59,181.52 80.46,183.54 77.70,185.58 74.95,188.18 72.58,191.28 70.77,194.62 69.40,198.45 68.47,203.29 68.18,208.83 70.79,227.31 72.71,245.22 72.34,259.02 70.11,270.27 65.87,281.24 58.00,294.31 45.53,314.15 43.00,320.01 41.29,325.80 40.28,331.83 40.00,338.01 40.60,344.34 41.95,350.56 44.15,356.88 47.04,362.83 50.76,368.66 55.20,373.99 61.33,379.63 68.64,384.92 82.69,392.60 96.12,399.77 101.12,403.26 105.16,406.79 108.41,410.33 111.11,414.11 112.80,417.24 114.05,420.56 114.89,424.04 115.25,427.65 115.00,431.29 114.23,434.83 112.86,438.32 111.03,441.52 108.76,444.42 105.86,447.29 97.45,453.82 89.10,460.61 86.24,463.98 84.11,467.48 82.52,471.19 81.45,475.30 80.98,480.51 81.20,485.97 82.23,491.51 83.95,496.85 86.44,502.22 89.60,507.29 94.31,513.11 99.85,518.48 106.56,523.58 115.73,528.88 237.89,580.03 271.38,589.08 305.71,593.12 315.18,593.24 323.26,592.56 328.36,591.51 332.80,589.90 336.05,588.09 338.96,585.78 341.51,583.01 343.68,579.74 345.31,576.16 346.44,572.22 346.97,568.10 346.96,563.87 346.38,559.57 345.24,555.27 343.10,550.01 340.22,544.88 335.82,539.03 330.56,533.61 323.58,528.14 315.25,522.98 280.85,506.49 270.48,499.81 261.02,491.50 252.75,481.68 246.09,470.51 243.54,464.59 241.51,458.37 240.11,452.15 239.28,445.78 239.08,439.46 239.45,433.17 240.49,426.83 242.00,420.87 245.43,412.10 251.95,401.26 260.41,391.61 270.51,383.38 282.00,376.84 294.60,372.20 307.97,369.54 321.81,368.77 339.43,370.26 360.85,374.54 389.67,383.35 477.71,410.64 629.97,449.67 671.23,458.98 678.58,459.48 684.79,459.13 690.11,458.19 695.03,456.70 698.94,455.01 702.56,452.86 705.88,450.26 708.91,447.14 711.42,443.68 713.53,439.77 715.09,435.61 716.15,431.16 716.62,426.54 716.54,421.83 715.85,417.08 714.55,412.36 712.27,406.80 708.99,401.05 691.07,380.33 670.33,358.30 658.63,343.25 650.35,329.13 643.89,313.63 640.33,300.40 637.88,283.08 637.31,265.17 638.97,243.17 643.68,214.65 648.26,197.27 652.78,185.95 654.94,182.18 657.31,179.00 660.16,176.21 663.15,173.99 665.75,172.58 668.38,171.58 671.14,170.85 674.07,170.48 677.92,170.52 681.89,171.11 685.68,172.31 689.33,174.08 692.67,176.37 695.78,179.18 700.88,186.00 704.42,191.56 708.14,196.80 711.26,199.75 714.50,201.94 718.08,203.71 721.80,204.89 725.69,205.54 729.61,205.60 733.55,205.07 737.42,203.96 741.12,202.32 744.65,200.13 747.83,197.54 750.80,194.35 753.86,190.00 756.47,184.95 758.30,179.69 759.49,173.79 760.00,165.39 759.53,156.47 757.91,147.22 755.27,138.17 751.37,128.84 746.56,120.01 740.66,111.26 733.80,102.90 712.70,82.84 683.88,63.86 653.92,50.30 628.31,43.13 601.26,40.00 565.54,42.05 521.30,51.32 388.43,90.84"
        fill="none"
        stroke="#e94560"
        stroke-width="8.0"
        stroke-linejoin="round"
        stroke-linecap="round"/>
  <!-- Start/finish line -->
  <line x1="394.13" y1="110.01" x2="382.73" y2="71.67"
        stroke="#f5f5f5" stroke-width="9.6"
        stroke-linecap="round"/>
</svg>
