<?xml version="1.0" encoding="utf-8"?>
<svg xmlns="http://www.w3.org/2000/svg"
     width="800.0" height="722.9"
     viewBox="0 0 800.0 722.9">
  <rect width="100%" height="100%" fill="#1a1a2e"/>
  <!-- Track outline -->
  <polyline points="417.28,150.75 467.98,103.13 487.21,85.33 507.43,70.24 528.64,57.89 550.48,48.23 573.41,42.33 596.97,40.00 620.75,40.82 644.44,44.76 689.42,60.08 709.16,69.78 731.74,84.14 740.39,91.69 748.09,100.66 752.53,107.43 756.54,114.93 759.15,122.89 760.00,129.93 759.93,137.25 758.93,144.11 756.34,151.25 752.46,157.70 748.04,163.28 742.15,168.59 735.46,172.66 728.46,175.68 720.47,177.87 712.15,178.83 703.89,178.60 696.02,177.14 688.23,174.53 680.74,170.87 670.90,163.05 661.15,154.68 650.13,147.54 638.93,142.33 631.95,140.77 624.99,140.32 618.07,140.68 607.79,142.51 597.75,146.13 588.40,151.39 579.53,158.34 571.78,166.62 564.53,176.13 551.40,197.31 507.72,277.05 447.84,373.02 442.69,382.90 439.43,391.96 437.89,399.05 436.95,406.59 436.93,413.91 438.16,421.23 440.41,428.28 443.31,434.45 447.37,440.17 452.30,444.70 458.24,448.77 468.12,452.57 480.30,455.13 492.39,457.96 502.00,462.68 506.40,466.61 510.24,471.00 513.31,475.94 515.48,481.43 516.71,488.25 516.93,495.70 516.24,502.93 514.01,510.94 510.50,518.62 506.56,525.39 499.60,533.95 491.74,540.67 482.44,546.52 472.56,550.64 461.81,553.11 450.78,553.75 439.52,552.52 428.34,549.45 417.66,544.60 407.24,538.20 387.63,521.59 365.08,505.95 345.58,496.89 324.32,490.63 301.65,487.84 290.08,487.93 278.50,489.12 267.05,491.45 255.72,494.97 234.04,505.31 213.80,518.80 194.84,534.81 177.93,553.16 164.32,574.25 154.55,596.20 140.70,642.86 135.57,654.02 129.84,662.94 124.37,669.26 118.26,674.75 111.92,678.86 106.90,681.01 101.70,682.29 96.42,682.89 91.15,682.80 83.84,681.65 76.50,679.18 69.54,675.39 63.38,670.45 57.56,664.32 52.60,657.36 47.96,647.71 44.51,636.96 40.76,613.08 40.00,587.10 41.18,566.29 43.86,549.73 47.87,534.45 56.00,517.84 62.87,509.43 70.63,502.34 80.76,495.29 92.49,489.21 114.44,481.89 136.06,474.75 146.34,469.49 155.24,463.41 163.07,456.41 170.28,448.27 176.50,439.48 181.97,429.51 189.80,406.87 196.31,382.39 207.83,358.15 219.25,340.40 233.26,323.66 417.28,150.75"
        fill="none"
        stroke="#e94560"
        stroke-width="8.0"
        stroke-linejoin="round"
        stroke-linecap="round"/>
  <!-- Start/finish line -->
  <line x1="403.58" y1="136.17" x2="430.97" y2="165.32"
        stroke="#f5f5f5" stroke-width="9.6"
        stroke-linecap="round"/>
</svg>
