<?xml version="1.0" encoding="utf-8"?>
<svg xmlns="http://www.w3.org/2000/svg"
     width="453.0" height="800.0"
     viewBox="0 0 453.0 800.0">
  <rect width="100%" height="100%" fill="#1a1a2e"/>
  <!-- Track outline -->
  <polyline points="398.20,418.40 390.04,377.93 385.97,358.50 383.16,338.60 381.81,317.74 381.97,296.39 383.93,274.78 387.59,253.20 412.09,153.28 412.96,144.10 412.73,135.99 411.21,120.18 408.47,104.41 405.87,95.16 402.60,86.89 398.75,79.04 392.21,72.71 377.93,59.86 370.42,54.41 362.52,49.80 354.26,46.43 345.63,43.89 327.00,40.68 310.45,40.00 291.83,40.94 243.73,50.84 226.21,57.26 211.64,64.99 205.20,69.59 199.18,74.79 193.08,81.02 187.69,87.86 183.51,94.91 180.55,102.43 179.46,107.82 179.03,113.43 179.19,119.05 180.70,127.65 183.48,135.99 187.31,143.74 192.11,151.04 197.57,157.76 204.28,164.22 230.77,182.10 237.58,187.42 243.31,192.84 248.30,199.20 252.61,206.11 256.53,213.51 259.74,221.27 262.11,229.44 263.75,237.82 264.96,254.95 263.42,272.05 259.24,289.86 252.08,307.97 237.19,335.88 206.92,381.05 167.94,428.56 137.65,459.97 78.82,509.75 67.03,523.89 57.53,540.25 43.98,575.81 40.33,594.57 40.00,613.33 41.19,630.33 52.44,671.05 66.27,711.33 74.35,727.49 83.60,740.66 89.37,747.54 96.06,753.41 101.43,756.07 107.28,757.99 113.10,759.25 120.79,760.00 128.40,759.68 136.10,758.44 143.56,756.11 150.73,752.41 157.39,747.64 163.62,741.70 169.16,734.92 174.08,727.10 178.24,718.72 184.68,700.55 191.05,669.17 197.72,638.51 204.67,623.48 212.88,608.88 221.61,596.10 227.54,589.12 234.20,582.66 241.43,577.31 249.22,572.80 257.78,569.00 266.80,566.01 286.08,562.25 317.75,558.19 333.52,553.65 347.24,547.58 360.42,539.44 372.41,529.57 383.75,518.38 389.85,510.30 394.63,502.06 398.58,493.29 401.54,484.14 403.51,474.28 404.55,464.48 404.85,457.14 404.28,448.64 398.20,418.40"
        fill="none"
        stroke="#e94560"
        stroke-width="8.0"
        stroke-linejoin="round"
        stroke-linecap="round"/>
  <!-- Start/finish line -->
  <line x1="378.59" y1="422.35" x2="417.80" y2="414.45"
        stroke="#f5f5f5" stroke-width="9.6"
        stroke-linecap="round"/>
</svg>
