<?xml version="1.0" encoding="utf-8"?>
<svg xmlns="http://www.w3.org/2000/svg"
     width="535.1" height="800.0"
     viewBox="0 0 535.1 800.0">
  <rect width="100%" height="100%" fill="#1a1a2e"/>
  <!-- Track outline -->
  <polyline points="173.60,371.25 149.13,340.61 81.10,249.35 72.07,230.30 65.08,214.46 58.48,205.13 52.28,196.40 47.17,186.46 43.25,176.18 40.88,166.11 40.00,156.00 40.88,146.02 43.13,136.17 46.60,126.27 51.28,116.86 57.27,108.18 64.32,100.19 72.71,92.55 81.77,85.91 90.37,80.97 99.31,76.89 118.95,70.46 205.58,53.28 313.41,40.78 334.14,40.00 353.87,41.26 377.24,45.21 398.49,52.45 417.55,63.09 434.73,76.45 449.47,92.77 462.05,111.69 472.54,132.26 480.75,154.39 486.13,177.66 492.06,225.61 495.10,272.87 494.40,283.93 492.30,293.05 487.89,304.33 481.72,314.75 476.89,320.30 471.45,325.21 465.95,329.07 461.60,331.24 457.19,332.71 452.69,333.67 445.27,334.10 438.22,333.45 433.54,332.19 429.19,330.41 419.89,325.34 403.72,313.31 385.78,301.64 378.91,299.17 372.41,297.87 365.93,297.47 359.31,298.00 352.71,299.43 346.48,301.64 340.70,304.64 335.26,308.45 330.09,313.14 320.61,325.38 313.37,337.83 311.31,342.82 310.12,348.12 308.91,362.01 308.81,379.02 312.89,430.44 324.74,472.36 327.84,494.67 327.33,512.20 325.63,528.00 323.19,537.55 315.81,555.90 287.87,608.54 285.56,614.49 284.28,620.09 283.37,627.47 283.10,635.80 283.92,643.83 286.08,651.16 289.27,658.19 293.34,664.09 297.90,668.09 303.10,671.21 307.90,673.34 310.70,674.12 313.31,674.42 315.84,674.38 318.79,673.86 322.25,672.51 341.55,660.62 363.62,647.65 374.17,644.00 384.02,642.13 393.75,641.40 403.57,642.00 411.02,643.31 418.58,645.39 425.52,648.43 430.26,651.42 434.85,655.02 438.80,659.06 441.69,663.27 443.24,667.39 444.03,671.86 444.24,676.24 444.06,680.06 443.54,682.93 442.66,685.49 441.57,687.74 440.14,690.13 438.16,692.39 433.45,696.25 426.55,700.63 369.92,727.67 292.98,757.79 281.91,759.83 271.85,760.00 255.80,758.09 240.05,754.36 229.93,750.63 220.84,745.94 212.09,739.86 204.55,733.53 197.43,725.89 185.43,709.44 174.70,690.17 166.09,669.13 163.33,658.45 162.02,647.30 163.18,633.19 166.03,620.13 168.22,613.71 171.44,608.02 178.07,600.52 187.13,593.27 206.98,583.24 225.61,574.26 230.30,570.92 234.19,566.97 243.67,554.60 252.21,539.33 256.74,523.18 258.81,508.56 259.17,503.13 258.63,497.75 254.40,482.52 248.56,467.50 245.89,462.47 242.03,456.96 173.60,371.25"
        fill="none"
        stroke="#e94560"
        stroke-width="8.0"
        stroke-linejoin="round"
        stroke-linecap="round"/>
  <!-- Start/finish line -->
  <line x1="157.97" y1="383.73" x2="189.23" y2="358.77"
        stroke="#f5f5f5" stroke-width="9.6"
        stroke-linecap="round"/>
</svg>
