<?xml version="1.0" encoding="utf-8"?>
<svg xmlns="http://www.w3.org/2000/svg"
     width="544.1" height="800.0"
     viewBox="0 0 544.1 800.0">
  <rect width="100%" height="100%" fill="#1a1a2e"/>
  <!-- Track outline -->
  <polyline points="164.02,363.49 150.12,346.10 136.96,329.02 123.61,311.54 110.17,293.62 96.83,275.36 83.63,256.78 71.42,238.69 51.32,206.06 42.98,183.02 40.00,158.97 41.41,135.40 48.01,113.15 59.36,93.88 75.35,78.37 95.08,67.60 116.92,60.37 140.58,56.12 165.59,53.14 191.58,50.82 211.55,48.94 232.08,47.27 253.07,45.56 274.30,43.50 295.87,41.49 317.93,40.00 340.27,40.09 362.54,43.20 384.30,49.55 405.16,58.44 424.62,70.49 441.86,85.34 456.04,102.90 466.93,122.75 475.92,143.90 482.92,166.11 487.55,189.15 490.68,212.67 492.98,236.59 494.45,260.81 495.83,285.26 497.37,309.74 498.90,334.27 500.47,358.76 502.00,382.89 503.38,405.85 504.12,427.44 503.38,447.77 497.83,472.87 487.55,494.77 473.13,512.73 454.63,524.86 434.71,528.80 412.40,523.02 396.20,507.21 390.53,485.00 396.79,462.49 406.02,444.70 415.72,425.60 424.10,404.62 427.87,381.67 426.40,357.58 419.03,334.27 405.78,314.34 388.69,300.85 367.21,293.84 345.48,297.35 325.63,310.18 312.53,325.82 303.82,345.22 300.47,366.69 301.70,388.98 304.37,412.11 308.94,435.98 314.62,460.78 318.51,480.18 320.54,500.33 320.02,520.61 314.49,546.15 304.52,569.24 291.67,589.82 281.69,610.24 278.07,629.95 282.28,650.67 296.02,666.57 317.84,667.44 335.88,656.36 353.62,646.55 374.85,640.02 397.06,638.27 417.01,642.04 434.93,655.00 442.78,673.14 435.72,694.73 417.74,708.57 397.92,717.38 375.03,725.09 355.43,732.49 335.24,741.34 313.85,750.63 291.05,758.38 268.22,760.00 246.71,757.24 226.86,750.76 208.27,740.42 191.12,726.53 174.98,709.93 161.35,689.74 153.65,667.44 151.90,645.23 155.68,624.69 167.86,603.80 187.50,590.96 205.48,582.42 223.00,570.90 237.88,555.09 248.56,535.73 253.99,513.43 253.31,490.43 246.07,468.57 232.91,449.13 217.81,429.68 201.70,409.70 189.12,394.42 176.39,378.73 164.02,363.49"
        fill="none"
        stroke="#e94560"
        stroke-width="8.0"
        stroke-linejoin="round"
        stroke-linecap="round"/>
  <!-- Start/finish line -->
  <line x1="148.44" y1="376.03" x2="179.60" y2="350.95"
        stroke="#f5f5f5" stroke-width="9.6"
        stroke-linecap="round"/>
</svg>
