<?xml version="1.0" encoding="utf-8"?>
<svg xmlns="http://www.w3.org/2000/svg"
     width="757.8" height="800.0"
     viewBox="0 0 757.8 800.0">
  <rect width="100%" height="100%" fill="#1a1a2e"/>
  <!-- Track outline -->
  <polyline points="195.29,174.37 227.22,149.22 251.50,130.75 293.92,99.66 369.38,47.09 373.43,44.61 377.54,42.93 380.73,42.12 383.57,42.27 386.54,43.57 388.77,45.42 390.90,47.83 392.86,50.73 394.64,53.94 396.53,56.92 398.68,59.69 401.26,62.15 404.46,64.64 407.42,66.49 411.50,68.02 415.12,68.54 418.94,68.27 422.54,67.26 425.85,65.44 429.48,62.94 433.19,60.03 439.74,54.05 444.47,50.21 449.04,47.06 454.41,44.50 461.73,42.10 470.01,40.48 477.72,40.00 486.52,40.42 496.32,42.76 503.72,46.27 573.73,98.77 585.59,107.23 599.01,115.47 618.38,125.93 674.72,150.55 679.52,152.69 682.76,154.57 685.92,156.82 688.69,159.29 691.60,162.51 694.21,165.72 696.36,169.36 716.05,216.23 717.16,220.26 717.81,225.84 717.84,231.11 717.38,235.74 716.73,238.90 715.79,242.45 714.58,245.36 712.86,248.32 710.74,251.22 708.23,253.93 705.91,256.13 702.55,258.88 696.83,262.87 635.32,298.26 631.64,300.66 628.46,303.15 625.68,305.78 623.02,308.97 620.71,312.38 618.25,316.21 616.25,321.09 614.50,326.95 594.09,445.53 593.14,449.43 590.85,456.61 587.87,464.45 584.59,470.99 579.49,479.40 573.54,487.56 567.59,494.92 558.71,503.48 352.00,684.80 349.82,687.00 347.70,689.52 345.80,692.52 344.23,695.63 342.54,700.21 341.74,704.20 341.46,708.03 341.56,711.18 341.95,714.46 342.69,717.76 343.21,721.55 343.20,725.39 342.74,729.65 342.03,733.30 340.66,737.15 338.55,741.19 335.69,745.61 332.68,749.07 328.87,752.51 324.66,755.32 319.41,757.82 313.30,759.72 307.62,760.00 301.61,759.41 295.98,757.86 291.06,755.90 286.77,753.43 282.95,750.66 279.16,747.12 276.16,743.24 273.48,739.07 268.59,730.15 217.13,621.33 215.87,617.28 215.51,612.98 215.97,608.42 216.82,604.82 218.29,600.63 220.43,596.86 223.46,592.92 226.89,589.94 230.84,587.24 234.99,585.31 239.87,584.14 254.77,580.79 258.07,579.51 261.69,577.23 264.85,574.45 267.37,571.14 269.62,567.03 270.55,563.14 270.46,559.63 269.60,556.28 267.99,552.03 265.39,546.73 261.40,540.80 257.48,536.19 254.81,533.62 251.43,531.16 248.50,529.66 245.90,528.99 243.35,528.99 240.01,529.49 235.82,530.09 231.80,530.08 227.86,529.69 223.82,528.65 220.30,527.03 216.96,524.99 213.87,522.37 211.34,519.90 209.07,517.04 207.11,513.51 205.69,509.64 205.12,506.01 204.86,501.24 203.81,478.04 202.69,465.10 200.68,452.92 198.20,442.55 194.32,431.27 188.20,416.78 174.83,387.48 167.38,374.58 164.64,370.84 161.35,366.99 157.23,363.03 153.09,359.71 148.81,357.01 143.83,354.61 138.51,352.90 134.00,352.15 127.63,352.09 120.43,352.65 114.74,353.38 109.86,354.34 104.97,355.66 100.39,357.17 76.73,364.15 71.36,364.71 65.76,364.24 60.62,362.97 55.30,360.50 51.16,357.43 46.18,352.19 42.18,346.42 40.32,340.31 40.00,333.26 41.19,326.23 43.63,319.74 46.37,313.82 50.25,307.67 54.42,302.36 59.61,296.82 65.55,291.17 90.04,267.97 107.68,250.40 123.38,235.71 195.29,174.37"
        fill="none"
        stroke="#e94560"
        stroke-width="8.0"
        stroke-linejoin="round"
        stroke-linecap="round"/>
  <!-- Start/finish line -->
  <line x1="182.49" y1="159.00" x2="208.09" y2="189.74"
        stroke="#f5f5f5" stroke-width="9.6"
        stroke-linecap="round"/>
</svg>
