<?xml version="1.0" encoding="utf-8"?>
<svg xmlns="http://www.w3.org/2000/svg"
     width="535.5" height="800.0"
     viewBox="0 0 535.5 800.0">
  <rect width="100%" height="100%" fill="#1a1a2e"/>
  <!-- Track outline -->
  <polyline points="176.16,359.61 187.25,373.55 201.46,391.78 215.80,410.19 229.65,429.08 241.65,448.85 250.22,468.97 254.98,489.35 256.14,510.04 253.59,530.24 244.72,553.73 232.04,571.66 212.88,583.93 191.09,590.07 172.30,604.01 160.48,625.18 156.30,645.08 157.31,666.25 171.28,687.64 185.34,706.79 199.10,724.19 216.60,738.87 235.54,750.36 255.47,757.15 276.28,760.00 297.50,756.19 318.93,747.90 341.25,738.70 364.24,729.36 386.72,722.13 407.35,716.26 428.44,705.96 443.95,689.21 446.90,667.04 434.55,650.29 416.10,643.41 392.58,643.94 371.43,650.38 349.08,660.59 325.78,666.64 305.57,664.27 288.26,650.25 282.02,628.64 287.43,609.09 298.08,589.41 309.69,568.02 317.03,548.69 321.26,527.13 321.60,504.03 317.27,480.58 310.85,456.48 305.57,431.45 302.44,405.46 302.04,385.34 304.50,365.35 312.45,341.25 324.24,321.70 340.82,307.23 359.89,299.69 384.29,300.48 405.14,311.53 422.12,325.77 443.70,333.14 466.08,328.53 483.06,313.02 492.49,290.40 494.97,269.80 495.47,247.84 494.61,224.61 492.89,200.51 489.91,175.70 484.26,150.72 477.32,132.26 468.05,114.47 456.35,97.81 442.60,82.52 426.94,68.80 409.07,57.66 389.45,49.82 368.85,44.43 347.51,41.23 325.38,40.00 302.90,40.70 280.21,42.28 257.22,44.51 233.82,46.75 210.15,48.85 186.08,50.83 161.98,53.02 138.37,55.56 116.26,59.59 96.12,66.91 78.50,78.18 63.76,92.29 51.82,108.64 43.56,127.18 40.00,152.78 44.33,177.32 53.97,200.33 66.50,222.82 77.64,239.30 90.17,255.21 103.55,271.25 117.12,287.51 130.72,304.21 144.51,321.22 158.79,338.27 173.09,355.71 176.16,359.61"
        fill="none"
        stroke="#e94560"
        stroke-width="8.0"
        stroke-linejoin="round"
        stroke-linecap="round"/>
  <!-- Start/finish line -->
  <line x1="191.83" y1="347.18" x2="160.50" y2="372.04"
        stroke="#f5f5f5" stroke-width="9.6"
        stroke-linecap="round"/>
</svg>
