<?xml version="1.0" encoding="utf-8"?>
<svg xmlns="http://www.w3.org/2000/svg"
     width="679.3" height="800.0"
     viewBox="0 0 679.3 800.0">
  <rect width="100%" height="100%" fill="#1a1a2e"/>
  <!-- Track outline -->
  <polyline points="41.73,286.42 41.69,284.34 41.43,273.50 41.14,262.57 40.85,251.60 40.59,240.58 40.29,229.51 40.04,218.31 40.00,192.82 40.00,181.81 40.07,171.06 40.18,160.67 40.44,150.56 40.88,140.76 41.77,131.33 43.16,122.17 45.11,113.28 47.65,104.62 50.70,96.23 54.38,88.34 58.57,81.04 63.28,74.33 68.35,68.21 73.79,62.67 79.60,57.82 85.71,53.56 92.11,49.84 98.83,46.71 105.90,44.17 113.14,42.22 120.57,40.77 128.18,40.00 135.86,40.00 143.59,40.59 151.31,41.77 158.99,43.49 166.57,45.80 174.00,48.71 181.35,52.29 188.63,56.42 195.80,61.00 202.94,65.89 210.03,71.15 217.06,76.69 224.15,82.36 231.32,88.16 238.57,94.10 245.85,100.13 253.17,106.30 260.59,112.60 268.06,118.95 275.63,125.44 283.25,131.97 290.89,138.54 298.65,145.21 306.45,151.92 314.28,158.68 322.22,165.48 330.24,172.28 338.33,179.13 346.46,186.02 354.69,192.92 362.97,199.85 371.31,206.84 379.85,213.87 388.38,220.85 396.98,227.88 405.62,234.95 414.23,242.03 422.65,248.97 430.81,255.72 438.68,262.30 446.29,268.69 453.57,274.95 460.60,281.12 467.25,287.20 473.47,293.18 479.24,299.21 484.57,305.38 489.46,311.64 493.80,318.03 497.52,324.56 500.60,331.14 503.10,337.71 504.91,344.15 506.01,350.59 506.38,356.90 506.08,363.11 505.13,369.00 503.51,374.58 501.16,379.89 498.18,384.83 494.65,389.37 490.60,393.54 486.04,397.26 481.08,400.48 475.71,403.15 469.97,405.24 463.98,406.78 457.73,407.82 451.26,408.37 444.60,408.37 437.83,407.78 430.96,406.60 423.94,405.01 416.76,403.15 409.41,401.20 401.84,399.25 394.00,397.48 385.95,395.99 377.64,394.67 369.14,393.63 360.47,392.68 351.60,391.86 342.56,391.09 333.37,390.36 324.06,389.55 314.69,388.46 305.24,387.01 295.86,385.10 286.67,382.65 277.73,379.71 269.16,376.26 261.00,372.36 253.39,367.87 246.36,362.75 240.00,357.08 234.23,350.96 228.97,344.52 224.34,337.80 220.37,330.87 217.02,323.61 214.30,316.04 212.17,308.24 210.58,300.30 209.67,292.18 209.33,283.93 209.67,275.54 210.40,267.11 211.39,258.72 212.39,250.55 213.31,242.71 214.04,235.09 214.52,227.74 214.59,220.67 214.15,213.91 213.16,207.47 211.58,201.31 209.37,195.32 206.61,189.51 203.38,184.03 199.70,178.99 195.62,174.46 191.17,170.47 186.39,167.16 181.35,164.39 176.06,162.26 170.61,160.76 165.13,159.99 159.62,159.99 154.18,160.72 148.81,162.12 143.62,164.21 138.66,166.98 133.92,170.33 129.50,174.23 125.49,178.63 121.89,183.57 118.69,188.92 115.75,194.64 113.10,200.76 110.79,207.16 108.76,213.87 107.07,220.85 105.56,228.20 104.31,235.77 103.21,243.57 102.25,251.60 101.48,259.85 100.82,268.28 100.27,276.86 99.94,285.56 99.90,294.41 100.23,303.38 101.00,312.45 102.29,321.61 104.20,330.82 106.74,339.98 109.90,349.01 113.65,357.85 117.92,366.46 122.70,374.90 127.96,383.06 133.77,390.86 140.17,398.25 147.08,405.28 154.51,411.86 162.34,417.89 170.54,423.47 179.00,428.55 187.79,433.13 196.91,437.12 206.28,440.56 215.88,443.47 225.62,445.82 235.55,447.59 245.59,448.91 255.74,449.72 266.00,450.18 276.30,450.27 286.70,450.18 297.18,449.95 307.70,449.77 318.29,449.72 328.88,450.00 339.54,450.68 350.17,451.81 360.83,453.40 371.42,455.48 381.94,458.02 392.31,461.02 402.42,464.37 412.09,467.91 421.40,471.58 430.37,475.30 439.16,478.93 447.84,482.24 456.37,485.10 464.75,487.36 473.06,488.95 481.26,489.90 489.39,490.22 497.41,490.04 505.20,489.22 512.74,487.82 520.06,485.78 527.12,483.24 533.96,480.15 540.58,476.48 547.01,472.40 553.37,468.05 559.66,463.92 565.98,460.25 572.35,457.16 578.74,454.67 585.11,452.81 591.43,451.63 597.61,451.18 603.60,451.40 609.34,452.31 614.71,453.90 619.67,456.03 624.19,458.75 628.13,461.92 631.55,465.60 634.38,469.72 636.66,474.26 638.28,479.11 639.16,484.24 639.27,489.50 638.72,494.94 637.73,500.38 636.33,505.78 634.38,511.13 631.88,516.39 628.83,521.47 625.30,526.45 621.29,531.31 616.91,536.02 612.17,540.65 607.06,545.09 601.54,549.40 595.62,553.53 589.33,557.47 582.68,561.15 575.69,564.59 568.34,567.59 560.65,570.08 552.67,572.08 544.44,573.48 536.02,574.34 527.45,574.66 518.70,574.52 509.80,574.07 500.64,573.39 491.49,572.48 482.26,571.26 472.92,569.72 463.54,567.90 454.05,565.82 444.56,563.46 435.04,560.83 425.48,557.93 415.85,554.93 406.17,552.12 396.61,549.76 387.20,548.00 377.86,546.91 368.67,546.45 359.58,546.77 350.80,547.90 342.34,549.90 334.25,552.62 326.60,556.07 319.36,560.24 312.41,565.09 305.86,570.62 299.76,576.70 294.06,583.28 288.80,590.35 283.87,597.88 279.31,605.77 275.16,613.93 271.41,622.46 267.91,631.16 264.49,640.10 260.89,649.08 256.95,657.97 252.65,666.85 247.94,675.56 242.76,684.13 237.06,692.43 230.92,700.46 224.34,708.21 217.46,715.65 210.40,722.63 203.30,729.07 196.17,734.92 189.00,740.23 181.76,744.99 174.51,749.07 167.19,752.56 159.88,755.37 152.60,757.55 145.39,759.05 138.33,759.91 131.49,760.00 124.94,759.27 118.77,757.87 112.99,755.78 107.62,753.15 102.70,750.02 98.28,746.40 94.35,742.18 90.89,737.51 88.06,732.47 85.93,727.17 84.53,721.64 83.83,716.01 83.76,710.30 84.24,704.63 85.38,698.96 87.18,693.47 89.68,688.17 92.80,683.22 96.44,678.60 100.64,674.29 105.38,670.44 110.57,666.99 116.19,663.91 122.22,661.28 128.62,658.92 135.31,656.83 142.26,654.84 149.25,652.98 156.02,650.98 162.45,648.76 168.41,646.17 173.96,643.14 179.03,639.69 183.67,635.79 187.71,631.53 191.13,626.90 193.89,621.91 196.02,616.65 197.38,611.12 198.01,605.45 197.86,599.83 197.09,594.30 195.69,588.90 193.63,583.68 190.91,578.79 187.57,574.25 183.59,570.13 179.07,566.45 174.07,563.32 168.63,560.60 162.82,558.33 156.68,556.43 150.28,554.80 143.62,553.30 136.82,551.71 129.83,549.95 122.70,547.90 115.46,545.41 108.32,542.37 101.34,538.65 94.53,534.35 88.02,529.36 81.81,523.82 76.04,517.75 70.74,511.17 65.96,504.10 61.62,496.62 57.72,488.77 54.38,480.65 51.66,472.22 49.52,463.56 47.94,454.62 46.73,445.55 45.85,436.35 45.18,426.96 44.63,417.44 44.19,407.82 43.82,398.12 43.53,388.28 43.35,378.35 43.16,368.23 43.02,358.03 42.83,347.74 42.65,337.35 42.46,326.92 42.28,316.35 42.10,305.74 41.91,295.09 41.73,286.42"
        fill="none"
        stroke="#e94560"
        stroke-width="8.0"
        stroke-linejoin="round"
        stroke-linecap="round"/>
  <!-- Start/finish line -->
  <line x1="21.73" y1="286.83" x2="61.72" y2="286.01"
        stroke="#f5f5f5" stroke-width="9.6"
        stroke-linecap="round"/>
</svg>
