<?xml version="1.0" encoding="utf-8"?>
<svg xmlns="http://www.w3.org/2000/svg"
     width="258.5" height="800.0"
     viewBox="0 0 258.5 800.0">
  <rect width="100%" height="100%" fill="#1a1a2e"/>
  <!-- Track outline -->
  <polyline points="140.81,462.03 120.48,547.47 113.59,568.14 110.15,575.43 106.49,581.73 103.28,586.25 99.70,590.28 88.56,599.44 61.58,617.20 55.19,623.38 50.19,629.44 47.28,633.72 45.01,638.14 43.31,642.59 42.04,648.32 40.00,699.89 41.66,725.77 43.22,732.32 45.28,737.74 47.38,741.63 49.94,745.04 53.84,748.93 58.43,752.41 64.79,755.99 71.25,758.63 75.82,759.66 79.65,760.00 81.11,759.95 82.57,759.67 86.52,758.46 91.37,756.35 99.84,751.46 108.54,745.04 115.42,738.22 121.75,730.21 128.68,719.35 134.78,707.19 139.30,694.72 142.95,680.76 149.87,635.10 170.02,499.20 217.89,144.34 218.52,126.41 217.81,108.98 216.14,98.42 212.94,86.17 208.43,76.40 202.25,65.81 196.20,59.34 188.92,52.88 180.62,47.94 171.06,44.03 159.83,40.93 149.89,40.00 139.85,40.35 131.97,42.29 124.72,46.20 117.74,52.46 112.54,59.42 107.63,68.72 104.02,78.24 101.56,89.02 100.98,99.04 102.36,107.77 105.54,115.83 137.99,186.12 150.30,212.10 158.19,234.46 163.96,258.26 167.54,283.32 168.56,309.19 167.03,335.61 162.04,369.25 149.81,424.20 140.81,462.03"
        fill="none"
        stroke="#e94560"
        stroke-width="8.0"
        stroke-linejoin="round"
        stroke-linecap="round"/>
  <!-- Start/finish line -->
  <line x1="160.27" y1="466.66" x2="121.35" y2="457.40"
        stroke="#f5f5f5" stroke-width="9.6"
        stroke-linecap="round"/>
</svg>
