<?xml version="1.0" encoding="utf-8"?>
<svg xmlns="http://www.w3.org/2000/svg"
     width="800.0" height="399.4"
     viewBox="0 0 800.0 399.4">
  <rect width="100%" height="100%" fill="#1a1a2e"/>
  <!-- Track outline -->
  <polyline points="477.49,215.10 455.35,235.25 357.23,320.76 332.34,340.13 328.60,342.35 325.23,343.88 321.00,345.28 317.26,346.17 314.97,346.35 310.47,346.18 305.88,345.53 303.00,344.68 300.34,343.50 297.25,341.74 294.18,339.53 290.79,336.47 287.34,332.77 278.65,320.97 269.09,308.76 265.50,305.61 262.07,303.23 254.11,298.48 246.72,295.09 237.36,292.02 149.41,273.49 138.70,272.53 130.47,272.66 125.45,273.26 120.83,274.39 115.59,276.32 110.50,278.82 105.79,281.72 101.48,285.12 97.68,289.07 92.05,297.31 90.06,301.70 87.67,309.06 85.75,317.46 83.36,339.53 82.39,343.58 81.17,346.95 79.63,350.02 77.75,352.73 75.63,354.87 73.23,356.64 70.57,358.06 67.83,359.04 65.59,359.41 63.32,359.41 60.59,359.01 57.85,358.21 55.14,357.04 52.58,355.51 50.23,353.57 48.14,351.31 46.31,348.70 44.72,345.68 42.85,340.91 41.37,335.70 40.46,330.67 40.00,325.42 40.41,311.98 42.80,297.43 46.98,284.74 51.97,274.69 59.90,263.43 68.04,254.50 81.83,245.35 105.57,232.20 113.61,230.62 121.21,230.56 129.09,232.70 155.14,248.57 160.67,250.23 166.16,250.97 172.10,250.53 180.23,247.11 184.87,241.47 187.91,235.99 190.36,229.58 196.88,210.88 201.62,198.63 205.75,191.35 213.11,182.00 219.26,176.64 230.43,169.72 238.91,166.96 248.58,165.04 256.92,165.76 264.54,166.52 272.45,167.88 284.88,168.08 292.98,168.35 302.47,167.23 307.87,164.92 313.51,160.58 317.99,155.99 322.83,150.48 329.55,142.47 337.06,133.98 345.06,126.70 356.41,119.05 371.66,111.40 393.89,102.99 458.03,80.78 564.71,43.18 579.21,40.26 582.45,40.00 585.43,40.11 588.99,40.67 592.40,41.61 594.92,42.62 597.26,43.93 599.91,45.93 602.39,48.28 604.45,50.73 606.42,53.61 609.44,59.44 612.78,65.24 614.22,66.91 615.89,68.43 619.05,70.81 622.30,72.89 623.99,73.75 625.64,74.40 629.87,75.51 634.67,76.20 650.26,76.80 655.01,77.57 659.49,78.83 665.04,81.20 670.43,84.16 678.98,90.38 686.64,98.04 693.41,106.82 700.31,118.90 704.49,129.86 706.95,141.56 707.70,154.09 705.65,182.01 706.02,186.19 706.88,190.12 708.27,193.96 712.23,201.08 714.81,204.30 718.33,207.55 722.33,210.38 726.64,212.52 731.43,214.35 746.41,218.93 749.59,220.55 752.15,222.31 754.03,224.02 755.64,225.99 757.27,228.80 759.32,233.51 759.62,234.48 759.81,235.44 760.00,239.13 759.67,243.02 758.92,246.07 757.76,248.95 756.13,251.87 754.13,254.58 751.87,256.97 749.21,259.08 745.46,261.17 741.28,262.83 736.69,263.99 731.77,264.78 719.12,265.83 696.21,264.78 649.16,262.98 614.63,268.31 558.35,280.09 550.21,280.77 547.29,280.56 541.85,279.37 539.27,278.37 536.90,277.07 534.62,275.44 531.73,272.80 529.08,269.81 527.18,267.07 525.66,264.18 524.49,261.14 523.75,257.88 523.53,253.82 523.82,249.70 524.46,246.05 525.46,242.65 526.66,239.88 529.78,234.87 531.82,232.51 535.27,229.48 539.27,226.66 543.57,224.23 548.16,222.23 553.19,220.70 558.55,219.61 572.23,218.56 589.74,219.46 610.39,222.91 638.77,228.54 645.48,229.07 651.35,228.91 656.34,228.13 660.58,226.83 664.58,225.24 666.41,224.25 668.04,223.13 672.38,219.54 676.31,215.33 678.99,211.40 681.17,207.08 683.41,201.13 684.93,195.07 685.34,190.60 685.13,186.44 684.46,182.96 683.36,179.68 681.87,176.50 679.87,173.46 676.72,170.12 672.76,167.00 666.26,163.36 649.37,156.12 646.49,154.31 645.25,153.31 644.10,152.22 642.23,149.79 640.62,146.89 638.39,141.75 636.44,135.93 633.00,118.75 632.09,115.58 631.07,113.06 630.02,111.34 628.85,109.89 627.76,108.86 626.59,107.97 624.00,106.44 621.13,105.25 618.19,104.49 615.70,104.24 613.13,104.34 609.43,104.84 603.77,107.65 598.20,111.08 587.04,119.45 565.59,137.68 516.53,180.33 488.78,204.83 477.49,215.10"
        fill="none"
        stroke="#e94560"
        stroke-width="8.0"
        stroke-linejoin="round"
        stroke-linecap="round"/>
  <!-- Start/finish line -->
  <line x1="490.95" y1="229.90" x2="464.03" y2="200.31"
        stroke="#f5f5f5" stroke-width="9.6"
        stroke-linecap="round"/>
</svg>
