<?xml version="1.0" encoding="utf-8"?>
<svg xmlns="http://www.w3.org/2000/svg"
     width="800.0" height="603.3"
     viewBox="0 0 800.0 603.3">
  <rect width="100%" height="100%" fill="#1a1a2e"/>
  <!-- Track outline -->
  <polyline points="632.26,287.18 538.20,350.41 513.32,372.13 492.19,394.65 472.16,420.98 455.06,448.15 434.19,492.91 426.15,507.11 416.67,519.95 405.63,531.43 393.20,541.70 379.62,550.32 365.06,556.83 349.63,561.05 333.82,563.14 317.83,563.32 301.90,561.90 286.00,559.07 270.34,555.26 239.62,544.84 82.33,476.28 66.01,467.27 55.67,460.48 52.92,458.16 50.46,455.62 46.87,451.16 43.68,445.94 41.99,441.75 40.73,437.24 40.00,432.69 40.14,425.74 41.31,419.18 42.88,414.67 44.88,410.71 46.80,407.72 48.93,405.02 53.93,400.06 56.72,397.92 59.96,395.89 66.01,392.95 72.13,390.53 77.90,389.04 89.90,387.32 102.19,387.14 127.07,389.68 139.46,392.08 151.32,395.83 223.97,425.92 239.95,429.93 253.95,431.79 276.58,430.86 303.29,427.08 333.61,418.79 365.97,406.03 462.71,350.03 485.76,336.08 503.21,323.52 510.29,315.77 515.15,308.08 517.23,303.52 518.73,298.94 519.58,294.36 519.77,289.96 519.34,285.54 518.38,281.34 515.68,275.37 512.35,270.30 510.24,267.83 507.76,265.64 502.51,261.94 496.06,258.49 487.22,255.48 477.72,253.57 467.87,253.19 459.10,253.75 452.11,255.09 411.21,269.17 397.65,276.17 293.20,357.16 282.02,364.26 276.44,366.57 270.69,368.12 264.66,368.79 258.54,368.68 252.33,367.86 246.16,366.42 233.87,361.92 221.89,355.84 197.92,340.43 180.82,327.15 176.11,322.26 172.19,316.80 169.12,310.88 167.97,307.90 167.08,304.55 166.17,297.99 165.84,291.35 166.07,287.90 166.61,284.76 168.42,278.30 171.14,272.15 174.73,266.44 179.09,261.24 184.04,256.97 189.85,252.83 196.04,249.46 202.56,246.60 216.49,242.20 259.03,234.84 365.10,233.35 378.80,231.03 404.88,222.72 416.81,216.57 432.32,205.06 448.57,193.35 457.17,188.82 465.45,185.76 474.36,183.91 483.28,183.21 491.11,183.52 498.71,184.73 506.28,186.95 513.41,189.78 523.82,195.44 544.25,208.74 566.93,218.78 578.70,222.07 590.80,223.69 615.73,222.85 628.16,220.50 652.24,212.22 673.46,200.35 685.54,191.19 695.44,181.93 704.21,171.92 706.88,167.67 708.88,163.58 710.24,159.33 710.96,154.88 711.06,150.32 710.56,145.85 708.43,139.05 705.55,133.08 703.60,129.99 701.49,127.34 696.52,122.33 693.73,120.11 690.47,118.11 684.53,115.35 677.92,113.24 671.47,112.55 665.51,112.62 662.42,112.88 659.25,113.63 650.30,117.23 641.57,121.68 635.97,125.95 624.38,136.56 612.09,146.93 607.66,149.35 603.53,150.74 599.08,151.53 594.60,151.66 590.40,151.23 586.23,150.07 582.64,148.37 579.00,146.13 575.77,143.48 573.05,140.37 570.70,136.84 568.83,133.08 566.86,126.73 565.94,120.32 565.99,115.61 566.62,111.26 567.42,107.84 568.66,104.36 571.52,98.34 574.78,92.70 578.42,87.97 587.19,79.32 597.39,71.58 608.88,64.89 621.52,59.22 679.00,41.39 687.00,40.15 693.82,40.00 701.07,40.75 708.20,42.34 715.18,44.74 721.94,47.85 728.41,51.66 734.46,56.16 739.95,61.33 744.78,67.15 748.86,73.66 752.24,80.64 757.21,95.61 759.20,107.55 760.00,119.83 759.79,132.44 758.48,145.20 755.76,157.92 751.44,170.35 745.62,182.36 738.57,193.82 721.87,215.56 702.50,235.79 680.66,254.63 632.26,287.18"
        fill="none"
        stroke="#e94560"
        stroke-width="8.0"
        stroke-linejoin="round"
        stroke-linecap="round"/>
  <!-- Start/finish line -->
  <line x1="643.42" y1="303.78" x2="621.10" y2="270.59"
        stroke="#f5f5f5" stroke-width="9.6"
        stroke-linecap="round"/>
</svg>
