<?xml version="1.0" encoding="utf-8"?>
<svg xmlns="http://www.w3.org/2000/svg"
     width="445.4" height="800.0"
     viewBox="0 0 445.4 800.0">
  <rect width="100%" height="100%" fill="#1a1a2e"/>
  <!-- Track outline -->
  <polyline points="402.67,471.48 405.39,436.53 404.32,355.33 403.45,288.48 396.46,227.63 384.81,169.61 375.01,143.37 362.87,121.43 347.73,99.83 330.16,80.94 309.97,65.22 287.35,53.01 268.42,46.45 248.13,41.92 227.94,40.00 208.23,40.57 188.62,43.73 169.69,49.39 151.25,58.10 133.58,69.52 117.76,82.53 99.90,102.77 85.14,125.73 72.42,151.52 62.13,179.23 54.08,206.71 48.15,240.87 40.00,386.31 40.29,532.10 49.51,594.19 55.82,623.37 64.46,651.31 76.69,677.10 92.03,700.40 110.48,720.08 131.45,736.14 154.45,748.24 178.92,756.15 204.15,760.00 229.69,759.43 246.87,756.49 263.95,751.52 280.26,744.62 303.37,730.25 324.43,712.05 343.36,690.33 359.67,665.56 373.16,637.62 383.74,607.77 397.04,543.07 402.67,471.48"
        fill="none"
        stroke="#e94560"
        stroke-width="8.0"
        stroke-linejoin="round"
        stroke-linecap="round"/>
  <!-- Start/finish line -->
  <line x1="382.74" y1="469.92" x2="422.61" y2="473.04"
        stroke="#f5f5f5" stroke-width="9.6"
        stroke-linecap="round"/>
</svg>
