<?xml version="1.0" encoding="utf-8"?>
<svg xmlns="http://www.w3.org/2000/svg"
     width="587.3" height="800.0"
     viewBox="0 0 587.3 800.0">
  <rect width="100%" height="100%" fill="#1a1a2e"/>
  <!-- Track outline -->
  <polyline points="387.43,664.16 408.05,651.09 519.77,570.30 531.57,557.36 538.48,545.92 543.18,535.18 546.03,523.78 547.27,508.96 546.09,493.03 541.15,473.74 532.57,452.29 483.77,365.42 460.24,311.24 439.99,267.42 433.56,259.04 427.22,253.26 419.73,247.80 411.60,243.66 403.26,241.23 393.80,240.28 373.85,242.81 354.47,245.37 347.01,244.65 340.64,242.87 334.12,239.98 328.60,236.53 326.08,234.23 324.11,231.77 322.32,229.14 320.81,226.35 319.63,223.39 318.75,220.27 318.08,217.25 317.84,213.57 319.56,199.64 323.60,181.27 335.42,146.41 346.25,112.54 348.10,99.01 347.89,87.44 346.10,78.05 342.85,69.40 338.00,61.26 331.85,54.03 326.84,49.66 321.35,45.78 315.93,42.89 309.41,40.95 303.43,40.16 300.07,40.00 296.64,40.30 290.21,41.45 282.84,43.84 271.62,49.66 259.31,58.69 237.14,81.86 217.19,108.01 208.48,123.48 202.91,137.81 200.69,147.50 200.12,157.16 201.18,170.00 204.30,183.51 210.15,198.55 220.01,215.51 313.38,321.26 400.99,423.67 411.24,438.62 417.88,451.79 421.52,463.95 423.06,476.21 422.43,488.79 419.97,501.27 415.94,513.53 410.39,525.16 403.41,535.93 394.56,546.32 379.64,559.66 360.32,573.88 262.89,632.89 252.24,637.36 243.27,639.79 233.38,641.23 223.98,641.36 217.58,640.51 211.58,638.80 204.88,636.11 198.69,632.39 193.69,627.33 189.84,621.98 188.23,618.99 187.11,616.03 186.17,613.01 185.50,609.63 185.04,603.06 185.41,595.96 186.77,589.55 189.05,583.47 192.26,577.82 196.60,572.50 203.85,566.00 213.22,559.92 252.43,545.00 284.96,531.30 293.55,525.16 300.58,518.23 306.46,510.64 311.07,501.83 313.59,493.72 315.23,484.75 315.90,475.65 315.05,461.78 311.89,447.69 305.83,431.69 295.70,414.28 257.82,370.91 216.52,329.25 200.54,312.62 186.83,300.44 177.98,295.11 169.18,291.66 159.33,289.40 148.81,288.74 134.80,290.12 120.45,293.77 106.56,299.75 93.25,307.96 79.39,319.72 66.93,333.26 57.38,346.27 49.67,360.46 43.46,378.33 40.06,394.99 40.00,401.92 41.06,408.10 43.03,415.00 46.00,421.44 48.46,424.99 51.28,428.17 54.40,430.93 57.68,433.26 61.23,435.20 65.20,436.71 71.23,438.03 78.00,438.69 84.76,438.46 94.68,436.29 105.44,432.21 126.55,420.88 147.68,409.87 158.33,406.52 168.21,405.01 178.28,405.14 188.08,406.92 194.35,409.12 200.39,412.01 205.66,415.33 210.61,419.66 214.64,424.69 218.55,431.00 221.46,437.90 222.83,444.73 223.04,451.66 222.28,458.27 220.58,464.64 217.86,470.78 214.25,476.40 209.91,481.36 204.60,485.73 196.48,490.43 185.98,494.57 155.45,500.68 125.21,507.12 115.60,511.66 107.99,516.98 100.95,523.29 94.83,530.84 88.67,541.78 84.21,553.48 82.76,559.23 82.03,564.85 82.21,571.58 88.73,598.95 100.44,631.87 120.42,680.16 141.44,721.89 149.59,733.36 157.93,741.67 167.85,748.86 178.68,754.35 190.44,758.16 202.72,760.00 215.10,759.84 228.59,757.11 252.43,747.32 282.93,730.40 387.43,664.16"
        fill="none"
        stroke="#e94560"
        stroke-width="8.0"
        stroke-linejoin="round"
        stroke-linecap="round"/>
  <!-- Start/finish line -->
  <line x1="376.72" y1="647.27" x2="398.14" y2="681.06"
        stroke="#f5f5f5" stroke-width="9.6"
        stroke-linecap="round"/>
</svg>
