<?xml version="1.0" encoding="utf-8"?>
<svg xmlns="http://www.w3.org/2000/svg"
     width="800.0" height="619.5"
     viewBox="0 0 800.0 619.5">
  <rect width="100%" height="100%" fill="#1a1a2e"/>
  <!-- Track outline -->
  <polyline points="340.08,535.34 368.20,520.41 506.34,439.62 642.10,353.98 713.00,300.36 728.53,282.86 739.82,267.13 747.61,252.96 753.72,238.14 757.62,219.69 759.59,203.36 760.00,185.32 756.71,163.64 751.77,144.51 749.27,137.65 745.92,131.25 733.83,112.87 720.42,95.32 708.96,84.15 696.89,74.60 682.32,65.20 661.53,55.38 638.61,47.62 612.29,42.27 585.85,40.00 563.60,40.76 542.58,43.87 508.49,54.48 477.69,67.81 419.38,99.87 104.33,306.35 83.45,325.07 69.40,342.65 58.58,362.05 49.86,383.88 42.82,406.61 40.73,418.44 40.00,430.22 40.35,449.51 42.38,468.61 45.32,480.51 49.16,491.34 59.08,512.75 66.15,523.44 74.23,533.40 83.77,543.10 94.15,551.71 105.15,558.91 116.92,564.97 131.55,570.62 146.47,574.86 171.48,578.23 199.05,579.48 221.42,577.74 257.83,569.02 295.78,557.09 328.76,541.36 340.08,535.34"
        fill="none"
        stroke="#e94560"
        stroke-width="8.0"
        stroke-linejoin="round"
        stroke-linecap="round"/>
  <!-- Start/finish line -->
  <line x1="330.69" y1="517.68" x2="349.46" y2="553.00"
        stroke="#f5f5f5" stroke-width="9.6"
        stroke-linecap="round"/>
</svg>
