<?xml version="1.0" encoding="utf-8"?>
<svg xmlns="http://www.w3.org/2000/svg"
     width="800.0" height="646.0"
     viewBox="0 0 800.0 646.0">
  <rect width="100%" height="100%" fill="#1a1a2e"/>
  <!-- Track outline -->
  <polyline points="143.22,424.12 130.03,414.34 119.90,406.90 99.85,392.70 57.16,360.31 51.56,354.12 47.22,348.17 43.92,341.52 41.79,334.90 40.39,327.78 40.00,320.77 40.80,313.94 42.59,307.21 45.04,301.09 48.71,294.97 53.24,289.70 58.20,285.29 64.21,281.44 70.74,278.74 77.62,276.92 85.83,275.93 94.48,276.10 103.49,277.42 119.64,282.44 137.64,290.62 170.28,307.96 202.44,328.78 219.49,343.19 234.69,359.63 266.66,407.57 337.87,505.48 344.70,512.42 350.40,517.08 356.09,520.50 361.63,522.81 367.15,524.10 372.60,524.38 376.59,523.95 380.58,523.03 384.46,521.50 388.08,519.40 392.22,516.05 396.06,511.85 399.12,506.83 401.10,501.60 402.50,495.73 403.08,489.64 402.74,482.95 401.42,475.98 398.96,468.36 378.44,435.37 354.83,401.67 345.97,386.36 339.06,370.77 329.14,326.04 325.84,312.87 321.92,301.55 317.97,294.43 313.34,288.17 308.31,282.72 299.43,276.07 289.32,270.77 273.13,264.75 257.09,257.92 250.32,253.04 244.22,247.53 238.75,241.12 232.11,231.01 227.06,219.34 224.37,207.70 223.44,193.32 227.73,145.10 236.39,97.66 241.72,83.31 247.91,72.71 255.54,62.67 264.16,54.63 274.66,48.15 285.96,43.70 298.66,40.75 311.74,40.00 325.17,41.67 338.47,45.59 350.93,51.25 363.39,59.54 377.64,73.17 393.62,91.07 466.16,176.35 473.13,189.05 477.33,201.22 478.97,209.62 479.79,218.41 479.62,226.88 478.24,235.10 475.84,243.01 472.76,250.27 466.21,260.34 457.90,269.45 441.59,282.44 426.34,295.75 422.44,301.30 419.42,306.96 417.44,313.05 416.64,319.03 416.62,325.33 417.38,331.27 419.38,337.39 422.40,343.08 425.91,348.10 430.57,353.05 435.92,357.11 441.71,360.35 449.13,363.23 457.17,364.97 465.52,365.72 479.98,364.44 495.59,360.74 517.79,352.23 540.45,343.97 558.32,340.98 576.11,340.45 597.23,342.48 619.05,347.18 666.78,365.79 725.42,397.25 738.40,406.72 748.60,416.93 752.95,423.02 756.62,429.50 759.03,436.22 759.87,441.53 760.00,446.97 759.31,452.10 757.84,456.37 755.62,460.39 752.91,464.06 749.98,467.33 744.50,471.78 738.18,475.16 731.48,477.65 723.46,479.43 714.97,480.11 706.28,479.75 691.77,477.12 676.81,471.96 643.46,452.74 622.89,438.00 602.04,424.55 583.74,417.65 565.82,413.80 548.75,412.27 532.76,413.16 525.19,414.62 518.14,416.83 511.54,420.07 505.79,423.98 500.38,428.75 495.72,434.44 492.20,440.28 489.23,446.83 487.38,453.66 486.90,460.03 487.29,466.62 488.39,472.81 490.46,478.90 493.45,484.48 497.25,489.75 505.83,497.05 516.37,503.52 525.70,510.25 531.05,515.30 535.75,520.47 539.40,526.41 541.59,532.03 543.08,538.12 543.66,544.42 543.00,551.64 541.23,559.04 538.73,565.88 534.82,572.78 529.85,578.83 524.28,584.21 516.61,589.94 507.99,594.67 498.85,598.55 481.51,603.28 463.04,605.67 443.05,605.95 422.64,603.89 401.42,599.40 380.21,592.43 360.20,583.39 338.97,571.04 265.37,514.88 143.22,424.12"
        fill="none"
        stroke="#e94560"
        stroke-width="8.0"
        stroke-linejoin="round"
        stroke-linecap="round"/>
  <!-- Start/finish line -->
  <line x1="131.29" y1="440.18" x2="155.15" y2="408.07"
        stroke="#f5f5f5" stroke-width="9.6"
        stroke-linecap="round"/>
</svg>
