<?xml version="1.0" encoding="utf-8"?>
<svg xmlns="http://www.w3.org/2000/svg"
     width="800.0" height="673.7"
     viewBox="0 0 800.0 673.7">
  <rect width="100%" height="100%" fill="#1a1a2e"/>
  <!-- Track outline -->
  <polyline points="287.03,100.73 404.37,226.59 416.71,237.44 426.43,244.43 433.54,248.49 440.14,251.24 445.81,252.83 451.36,253.65 456.97,253.80 462.54,253.26 467.84,252.14 473.29,250.11 480.58,245.77 488.19,240.32 504.37,227.33 509.32,224.35 513.86,222.26 517.65,221.03 521.37,220.32 525.17,219.96 529.13,220.09 534.25,220.90 539.50,222.45 544.50,224.74 549.33,227.78 553.79,231.51 558.01,235.96 561.89,240.99 565.63,246.82 574.12,263.71 583.12,288.30 607.40,363.67 625.03,400.79 645.48,430.72 679.95,467.25 718.27,504.25 735.00,524.00 745.23,539.60 752.69,554.81 757.55,569.61 759.92,583.59 760.00,596.45 759.26,602.35 758.03,607.89 756.22,613.08 754.06,617.62 751.99,620.88 749.73,623.61 747.08,626.17 744.24,628.34 741.05,630.22 737.69,631.70 734.06,632.82 730.17,633.48 724.75,633.68 719.01,633.21 713.13,632.04 707.02,630.14 691.31,622.72 648.79,595.80 555.78,536.51 249.35,348.42 231.78,335.59 225.84,330.12 220.74,324.47 217.44,319.92 214.69,315.13 212.65,310.58 211.08,305.61 210.14,299.98 209.63,293.74 209.73,284.39 209.52,275.55 208.37,271.11 206.69,267.43 204.10,263.50 200.86,259.99 195.81,255.83 189.53,251.93 160.41,239.82 137.75,229.79 122.46,220.79 103.65,206.28 76.43,181.08 55.51,158.91 50.31,152.20 46.15,145.65 43.51,140.33 41.55,134.81 40.46,129.38 40.00,124.05 40.19,120.11 40.81,116.44 41.84,112.78 43.33,109.28 46.10,104.64 49.48,100.24 53.68,95.87 58.37,91.89 71.15,83.47 132.10,55.27 155.50,45.25 171.61,41.17 188.09,40.00 200.35,41.05 212.27,43.80 227.61,50.04 242.45,58.99 260.63,73.73 287.03,100.73"
        fill="none"
        stroke="#e94560"
        stroke-width="8.0"
        stroke-linejoin="round"
        stroke-linecap="round"/>
  <!-- Start/finish line -->
  <line x1="301.60" y1="87.03" x2="272.46" y2="114.43"
        stroke="#f5f5f5" stroke-width="9.6"
        stroke-linecap="round"/>
</svg>
