<?xml version="1.0" encoding="utf-8"?>
<svg xmlns="http://www.w3.org/2000/svg"
     width="800.0" height="748.1"
     viewBox="0 0 800.0 748.1">
  <rect width="100%" height="100%" fill="#1a1a2e"/>
  <!-- Track outline -->
  <polyline points="282.87,169.44 383.33,275.30 390.48,281.00 396.20,284.38 402.08,287.00 407.98,288.70 414.14,289.59 420.34,289.62 426.46,288.77 432.60,287.00 439.12,284.16 445.55,280.18 451.75,274.65 457.82,268.10 464.21,259.88 470.38,252.29 474.80,248.44 479.23,245.62 484.50,243.31 489.85,241.82 494.51,241.13 499.24,241.12 505.21,241.85 511.29,243.44 516.94,245.83 522.37,249.07 527.33,253.02 531.98,257.77 536.04,262.98 539.91,269.15 548.93,288.46 597.46,425.65 616.96,464.59 637.13,491.84 680.74,533.52 713.82,564.09 730.13,582.27 741.16,598.64 750.69,617.99 756.97,636.81 759.73,654.28 760.00,662.72 759.60,670.67 758.74,676.42 757.34,681.61 755.10,686.74 752.30,691.32 748.69,695.59 744.66,699.19 740.07,702.35 735.23,704.83 729.98,706.68 724.58,707.77 718.94,708.07 713.27,707.55 708.34,706.60 701.86,704.11 549.90,611.93 280.09,445.62 211.40,401.68 171.84,372.87 138.41,344.85 72.81,281.12 50.74,257.97 47.73,253.29 45.69,248.68 44.51,244.34 43.95,239.80 44.13,234.97 44.95,230.16 46.56,225.19 48.81,220.44 56.79,209.37 71.79,191.31 75.40,185.07 78.20,178.37 80.56,169.98 82.01,161.14 82.31,153.41 81.72,145.87 80.09,138.35 77.62,131.30 74.20,124.48 69.74,118.10 59.77,108.48 50.00,99.97 46.58,96.54 43.92,93.13 41.91,89.33 40.53,85.11 40.12,82.27 40.00,79.28 40.20,76.38 41.32,71.96 43.11,67.86 45.75,63.74 48.90,60.12 52.73,56.68 57.11,53.64 64.00,49.90 71.61,46.63 80.18,43.75 88.95,41.61 97.48,40.40 106.11,40.00 124.98,41.67 141.54,45.81 158.46,52.77 178.57,64.53 196.96,79.07 219.23,102.01 282.87,169.44"
        fill="none"
        stroke="#e94560"
        stroke-width="8.0"
        stroke-linejoin="round"
        stroke-linecap="round"/>
  <!-- Start/finish line -->
  <line x1="297.40" y1="155.69" x2="268.35" y2="183.19"
        stroke="#f5f5f5" stroke-width="9.6"
        stroke-linecap="round"/>
</svg>
