<?xml version="1.0" encoding="utf-8"?>
<svg xmlns="http://www.w3.org/2000/svg"
     width="800.0" height="720.0"
     viewBox="0 0 800.0 720.0">
  <rect width="100%" height="100%" fill="#1a1a2e"/>
  <!-- Track outline -->
  <polyline points="205.13,417.72 188.47,396.81 70.69,241.63 45.26,207.09 41.39,198.75 40.41,191.93 40.00,184.72 40.05,178.10 41.39,167.12 44.33,156.13 48.72,146.14 54.29,137.94 61.15,130.66 68.84,124.24 82.61,115.97 97.67,110.01 107.79,107.23 118.15,105.38 128.42,105.11 138.43,106.44 148.23,109.22 157.46,113.45 164.38,117.82 171.03,123.11 176.96,129.14 181.61,135.75 184.75,143.03 186.71,151.04 187.13,160.44 186.66,171.42 184.91,182.07 180.68,196.83 177.53,212.98 175.98,229.32 177.58,245.53 181.25,261.28 186.04,275.11 192.90,289.54 205.85,309.33 341.11,498.65 362.88,520.88 374.85,530.35 387.85,538.42 402.91,545.23 418.80,549.47 429.33,550.00 439.95,549.07 450.22,546.89 463.94,541.33 478.59,532.53 516.87,504.41 552.83,473.57 563.14,462.58 572.53,449.22 619.94,363.85 663.02,275.64 669.57,258.70 672.97,244.48 674.42,233.42 674.78,222.24 673.59,211.46 670.65,201.53 666.27,192.13 660.64,183.60 653.83,176.18 645.84,169.77 637.22,164.34 623.04,158.12 607.87,154.15 597.40,152.30 586.72,151.44 576.50,152.49 568.97,155.01 561.44,158.78 554.63,163.48 549.01,168.91 544.11,176.38 540.91,185.18 538.12,196.70 531.16,273.66 525.85,351.35 522.91,367.76 519.04,381.06 512.95,396.74 504.59,411.03 497.63,418.58 489.58,425.06 480.76,429.76 473.28,432.01 465.18,433.27 456.98,433.40 449.24,432.28 440.26,428.90 431.80,423.28 421.85,414.61 353.44,329.24 287.88,238.85 273.53,211.06 263.27,180.75 257.39,150.11 252.90,114.38 252.18,99.95 252.90,89.37 254.34,80.63 258.57,70.11 265.02,61.37 272.71,54.69 279.72,50.39 301.65,44.57 318.98,41.26 335.80,40.00 366.55,41.06 522.80,65.34 584.76,80.83 676.12,114.97 705.16,129.07 718.83,137.41 731.32,147.00 742.05,158.19 750.66,171.02 755.10,181.15 758.30,192.13 760.00,203.12 759.33,218.87 756.08,234.48 744.11,265.25 627.06,487.66 616.43,502.55 600.03,518.37 580.27,533.06 554.89,549.07 538.59,560.79 530.03,569.39 521.46,580.97 514.03,595.20 500.98,623.58 480.40,659.78 471.32,668.25 462.50,674.47 453.11,678.38 445.22,679.83 436.76,679.96 428.40,678.90 420.66,676.72 412.41,672.42 404.98,666.07 395.43,656.47 205.13,417.72"
        fill="none"
        stroke="#e94560"
        stroke-width="8.0"
        stroke-linejoin="round"
        stroke-linecap="round"/>
  <!-- Start/finish line -->
  <line x1="189.49" y1="430.18" x2="220.77" y2="405.25"
        stroke="#f5f5f5" stroke-width="9.6"
        stroke-linecap="round"/>
</svg>
