<?xml version="1.0" encoding="utf-8"?>
<svg xmlns="http://www.w3.org/2000/svg"
     width="800.0" height="475.6"
     viewBox="0 0 800.0 475.6">
  <rect width="100%" height="100%" fill="#1a1a2e"/>
  <!-- Track outline -->
  <polyline points="204.47,139.47 745.97,365.83 750.54,368.37 754.25,371.48 757.06,375.36 759.10,379.44 760.00,383.08 759.96,386.84 758.58,391.66 743.62,426.64 741.86,429.66 739.35,432.30 736.62,433.96 733.26,435.16 729.78,435.63 726.04,435.11 722.25,433.64 715.26,430.63 627.73,392.94 623.20,391.28 618.42,390.18 614.08,389.87 609.24,390.30 604.13,391.46 554.14,411.26 549.56,412.62 543.31,414.07 537.69,414.62 529.83,414.83 488.66,412.18 483.50,411.03 477.66,409.20 470.49,406.46 309.22,337.81 301.46,334.07 293.01,329.11 286.22,323.83 278.06,316.11 271.24,308.90 264.14,300.43 259.89,294.02 253.93,283.43 233.45,234.45 231.69,230.68 229.07,226.94 225.92,223.35 222.20,220.03 217.95,217.44 211.84,214.74 52.28,146.02 49.28,144.49 46.31,142.24 43.99,139.47 42.15,136.24 40.89,132.76 40.00,128.48 40.00,124.79 40.82,121.00 41.85,117.70 68.09,54.91 69.76,51.18 72.19,47.46 74.60,44.92 77.66,42.46 80.62,40.90 83.95,40.14 87.13,40.00 90.06,40.28 93.65,40.82 98.57,42.52 135.94,58.52 138.73,59.91 140.98,62.00 142.50,64.49 143.04,67.82 142.97,71.01 142.18,74.57 140.85,78.27 137.61,86.50 136.72,89.70 136.50,93.72 136.93,97.10 138.20,100.89 139.90,104.42 142.38,107.84 145.17,110.88 148.38,113.68 151.97,116.37 155.33,118.56 159.39,120.86 169.19,125.27 204.47,139.47"
        fill="none"
        stroke="#e94560"
        stroke-width="8.0"
        stroke-linejoin="round"
        stroke-linecap="round"/>
  <!-- Start/finish line -->
  <line x1="212.17" y1="121.01" x2="196.77" y2="157.92"
        stroke="#f5f5f5" stroke-width="9.6"
        stroke-linecap="round"/>
</svg>
