<?xml version="1.0" encoding="utf-8"?>
<svg xmlns="http://www.w3.org/2000/svg"
     width="443.9" height="800.0"
     viewBox="0 0 443.9 800.0">
  <rect width="100%" height="100%" fill="#1a1a2e"/>
  <!-- Track outline -->
  <polyline points="254.21,572.82 127.15,709.70 89.58,742.09 76.56,751.26 68.31,755.86 63.85,757.67 58.95,759.31 54.36,760.00 51.77,759.76 49.23,759.14 46.91,758.24 44.91,757.11 43.52,756.02 42.32,754.76 41.36,753.32 40.61,751.69 40.00,748.37 40.05,744.50 40.51,740.46 42.59,732.66 45.50,724.45 52.01,706.89 60.49,689.01 81.92,658.70 143.93,585.79 161.94,557.08 176.08,527.97 187.00,497.34 194.84,464.74 200.47,423.57 202.69,380.94 197.46,300.38 189.83,261.44 179.18,225.28 168.61,199.67 155.46,176.50 137.50,154.08 117.17,132.85 67.59,85.04 62.68,78.22 59.43,72.13 56.78,66.14 55.21,60.18 55.00,56.57 55.26,53.02 56.01,49.81 56.76,47.99 57.69,46.33 58.84,44.84 60.23,43.53 62.17,42.25 64.47,41.20 66.98,40.45 69.57,40.00 73.89,40.11 78.48,40.94 82.88,42.08 88.32,44.06 93.55,46.60 104.63,53.44 117.59,64.06 132.43,78.97 185.18,138.01 210.64,168.48 229.85,194.86 233.75,203.23 235.56,210.31 235.85,215.58 235.51,220.74 234.79,226.45 234.31,232.52 234.63,238.13 235.43,244.07 237.06,249.12 239.03,252.03 241.51,254.41 244.21,256.52 248.69,259.41 253.76,261.76 267.71,265.29 283.48,268.23 298.19,271.71 301.42,273.07 303.98,274.51 306.25,276.33 308.01,278.17 309.63,280.31 310.97,282.58 311.82,284.88 312.06,287.15 311.90,289.56 311.45,291.86 310.30,294.77 308.97,296.38 305.10,298.86 301.26,300.44 296.88,301.80 289.38,302.87 280.84,303.51 273.45,305.06 269.18,307.25 265.58,309.98 262.38,313.08 258.24,318.67 255.01,324.57 251.41,333.63 233.96,407.46 220.78,492.75 220.75,496.49 221.26,499.48 222.17,503.20 223.53,507.21 225.37,510.65 226.92,512.50 228.73,514.10 230.65,515.44 232.52,516.40 233.91,516.91 235.29,517.20 236.68,517.26 238.18,517.04 241.48,515.63 245.06,513.25 248.10,510.71 250.74,507.58 252.93,504.19 257.25,496.30 261.87,485.21 283.62,396.02 288.05,384.28 293.54,374.74 300.24,366.32 308.51,358.68 317.88,352.37 327.97,347.72 338.83,344.67 348.00,343.44 357.40,343.07 363.93,343.60 370.04,344.86 376.13,346.81 381.89,349.40 386.94,352.45 391.47,356.03 395.26,359.96 398.44,364.32 400.86,368.94 402.60,373.89 403.61,379.05 403.85,384.58 402.76,392.70 400.70,400.80 395.90,412.03 388.43,425.04 376.05,441.62 254.21,572.82"
        fill="none"
        stroke="#e94560"
        stroke-width="8.0"
        stroke-linejoin="round"
        stroke-linecap="round"/>
  <!-- Start/finish line -->
  <line x1="268.87" y1="586.43" x2="239.56" y2="559.22"
        stroke="#f5f5f5" stroke-width="9.6"
        stroke-linecap="round"/>
</svg>
