<?xml version="1.0" encoding="utf-8"?>
<svg xmlns="http://www.w3.org/2000/svg"
     width="651.4" height="800.0"
     viewBox="0 0 651.4 800.0">
  <rect width="100%" height="100%" fill="#1a1a2e"/>
  <!-- Track outline -->
  <polyline points="566.58,216.67 554.68,262.94 492.99,445.33 463.76,498.63 445.55,523.94 424.36,547.57 401.03,569.21 376.51,587.99 299.15,632.02 213.76,678.22 188.76,697.81 166.03,719.64 142.67,740.47 128.52,749.12 114.60,754.96 105.09,757.82 95.38,759.75 85.75,760.00 78.29,758.94 70.68,756.95 63.47,753.97 57.24,750.11 52.17,745.26 47.76,739.48 44.22,733.07 41.64,726.36 40.00,716.72 40.22,706.33 41.23,694.83 53.21,633.01 62.50,438.87 75.71,288.50 82.73,255.04 93.59,225.19 107.25,198.39 117.36,184.40 129.31,171.90 137.89,165.37 147.18,159.83 156.89,155.61 166.89,152.74 177.30,151.13 187.56,151.07 197.49,152.62 207.27,155.67 216.37,159.96 224.62,165.49 232.20,172.40 239.81,180.98 256.98,210.02 274.44,238.62 282.32,246.46 290.27,252.49 298.85,257.41 313.44,262.88 329.08,265.93 346.36,266.67 363.64,265.37 378.60,262.82 393.12,258.90 408.12,253.61 422.71,246.90 436.97,238.38 450.40,228.49 462.72,217.23 473.99,204.86 484.18,191.86 493.10,178.05 500.04,164.44 506.05,148.95 513.92,118.11 521.72,87.70 527.06,73.58 533.70,61.77 538.29,55.92 543.55,50.32 549.30,45.53 555.50,42.24 560.95,40.75 566.92,40.00 573.04,40.06 578.97,40.93 584.31,42.67 590.39,46.34 595.99,51.57 600.88,57.66 604.83,64.00 608.42,72.83 610.51,82.41 611.44,92.24 610.43,108.65 607.07,125.13 596.36,154.36 567.70,212.32 566.58,216.67"
        fill="none"
        stroke="#e94560"
        stroke-width="8.0"
        stroke-linejoin="round"
        stroke-linecap="round"/>
  <!-- Start/finish line -->
  <line x1="585.95" y1="221.66" x2="547.21" y2="211.69"
        stroke="#f5f5f5" stroke-width="9.6"
        stroke-linecap="round"/>
</svg>
