<?xml version="1.0" encoding="utf-8"?>
<svg xmlns="http://www.w3.org/2000/svg"
     width="501.1" height="800.0"
     viewBox="0 0 501.1 800.0">
  <rect width="100%" height="100%" fill="#1a1a2e"/>
  <!-- Track outline -->
  <polyline points="41.44,396.01 40.81,409.55 40.00,431.20 40.76,596.71 46.42,626.02 54.87,650.36 66.35,674.60 81.14,696.63 102.77,718.22 127.12,735.98 150.83,748.50 174.89,756.65 196.01,760.00 218.19,759.57 251.85,753.79 286.02,742.94 313.90,729.07 339.39,711.47 361.54,691.39 381.38,667.64 400.12,637.46 415.93,604.26 437.10,535.44 440.11,525.78 457.07,424.78 461.15,266.83 457.24,233.09 450.23,203.51 438.67,170.96 423.75,140.89 407.52,117.03 388.10,96.19 358.09,74.22 326.56,57.00 305.27,48.10 283.43,42.65 250.19,40.00 216.41,42.32 190.70,48.64 167.15,58.68 147.69,70.99 129.50,86.91 108.42,111.42 89.47,139.49 75.70,166.21 64.69,194.28 50.16,252.79 46.46,293.23 41.44,396.01"
        fill="none"
        stroke="#e94560"
        stroke-width="8.0"
        stroke-linejoin="round"
        stroke-linecap="round"/>
  <!-- Start/finish line -->
  <line x1="61.42" y1="396.98" x2="21.47" y2="395.03"
        stroke="#f5f5f5" stroke-width="9.6"
        stroke-linecap="round"/>
</svg>
