<?xml version="1.0" encoding="utf-8"?>
<svg xmlns="http://www.w3.org/2000/svg"
     width="800.0" height="746.3"
     viewBox="0 0 800.0 746.3">
  <rect width="100%" height="100%" fill="#1a1a2e"/>
  <!-- Track outline -->
  <polyline points="665.52,281.67 546.92,117.29 517.66,90.13 493.26,72.33 482.88,65.73 472.50,60.55 449.92,51.53 426.88,44.24 403.60,40.64 380.98,40.00 351.97,43.40 301.53,57.20 240.82,78.89 99.91,150.26 77.44,164.90 67.72,172.69 58.91,181.46 51.74,191.08 45.94,201.77 43.15,208.87 41.01,216.31 40.00,224.00 40.24,232.53 41.68,241.25 44.30,249.19 48.84,256.68 54.79,263.24 61.25,268.56 68.07,272.41 75.37,274.92 82.89,276.69 95.12,277.98 107.67,277.58 120.85,275.71 134.03,272.46 159.72,262.45 191.53,245.79 223.27,230.61 236.17,227.40 247.84,226.42 260.70,226.71 273.53,228.83 286.01,232.87 298.04,238.74 308.38,245.79 319.32,255.60 370.64,316.08 387.73,330.96 477.70,388.24 498.33,407.71 516.64,428.81 524.37,439.75 531.12,451.38 536.46,463.56 540.55,476.42 543.14,489.73 544.12,503.38 543.14,517.13 540.45,530.54 535.94,543.46 529.89,555.38 522.10,566.57 513.08,576.38 502.52,585.01 491.09,591.96 478.51,597.28 465.44,600.83 451.84,602.56 438.10,602.51 424.29,600.63 410.52,597.38 383.05,587.92 357.32,575.64 345.09,567.90 333.52,558.88 323.20,548.58 313.73,537.20 297.97,512.80 286.96,487.66 272.21,435.71 262.94,411.55 256.79,400.27 249.69,389.87 241.41,380.06 232.22,371.43 221.70,363.84 210.47,357.73 198.31,353.05 185.69,349.89 172.51,348.21 159.20,347.87 145.84,348.51 132.60,350.33 119.73,353.24 107.29,357.43 96.03,362.80 85.55,369.56 76.70,377.10 68.98,385.92 62.86,395.73 58.21,406.62 55.52,417.91 54.47,429.69 55.21,441.62 57.44,453.45 61.39,465.38 66.46,476.96 79.01,499.98 101.73,531.48 131.58,566.28 173.88,605.22 219.84,639.87 262.52,665.01 304.47,683.93 338.62,694.83 372.11,701.63 408.25,705.47 439.99,706.31 451.28,705.87 462.81,703.90 501.65,692.81 548.31,674.42 605.08,643.37 658.95,607.68 693.87,580.08 721.03,554.50 730.53,543.16 737.91,532.07 744.90,519.70 750.81,506.54 755.32,492.78 758.43,478.49 759.93,463.60 760.00,449.06 756.99,426.64 751.58,404.16 744.10,382.96 737.45,373.75 730.50,365.81 717.25,344.76 683.97,306.47 669.36,287.00 665.52,281.67"
        fill="none"
        stroke="#e94560"
        stroke-width="8.0"
        stroke-linejoin="round"
        stroke-linecap="round"/>
  <!-- Start/finish line -->
  <line x1="649.30" y1="293.37" x2="681.74" y2="269.97"
        stroke="#f5f5f5" stroke-width="9.6"
        stroke-linecap="round"/>
</svg>
