<?xml version="1.0" encoding="utf-8"?>
<svg xmlns="http://www.w3.org/2000/svg"
     width="800.0" height="764.3"
     viewBox="0 0 800.0 764.3">
  <rect width="100%" height="100%" fill="#1a1a2e"/>
  <!-- Track outline -->
  <polyline points="512.44,512.47 654.53,402.51 699.84,357.10 723.33,323.99 741.86,290.03 751.08,265.44 757.58,238.90 760.00,210.88 758.39,183.15 752.11,157.09 744.05,135.43 740.54,128.17 736.28,121.67 725.74,107.91 711.70,93.86 688.96,79.75 666.21,69.13 646.99,63.61 543.76,43.98 472.08,40.00 432.93,44.26 399.42,52.58 364.36,64.45 302.13,95.61 213.98,153.66 194.47,171.41 180.19,187.13 174.95,193.90 170.00,202.15 113.46,321.75 78.86,419.91 54.97,507.37 40.00,588.48 40.98,616.22 45.87,638.71 52.44,656.11 60.09,670.57 64.70,677.83 70.23,684.47 83.58,696.63 98.09,707.60 106.15,712.28 113.98,715.77 130.91,721.50 139.49,723.38 149.39,724.29 173.74,722.69 199.82,718.28 215.88,713.46 233.27,705.78 355.67,632.98 386.24,609.86 432.93,574.02 512.44,512.47"
        fill="none"
        stroke="#e94560"
        stroke-width="8.0"
        stroke-linejoin="round"
        stroke-linecap="round"/>
  <!-- Start/finish line -->
  <line x1="500.20" y1="496.66" x2="524.68" y2="528.29"
        stroke="#f5f5f5" stroke-width="9.6"
        stroke-linecap="round"/>
</svg>
