<?xml version="1.0" encoding="utf-8"?>
<svg xmlns="http://www.w3.org/2000/svg"
     width="800.0" height="751.1"
     viewBox="0 0 800.0 751.1">
  <rect width="100%" height="100%" fill="#1a1a2e"/>
  <!-- Track outline -->
  <polyline points="357.80,574.06 141.89,387.57 99.69,351.34 80.43,331.50 64.02,309.62 51.30,285.47 46.58,272.57 43.09,259.28 40.86,245.60 40.00,231.78 40.58,217.86 42.57,204.03 45.94,190.36 50.73,177.16 56.97,164.84 64.44,153.20 82.58,131.91 119.18,96.70 136.83,83.07 175.88,59.69 196.99,50.43 219.02,43.64 241.47,40.00 264.10,40.10 286.33,43.40 329.55,56.93 355.16,67.65 366.29,73.90 376.60,81.08 386.06,89.28 394.40,98.30 401.02,107.18 406.26,116.78 409.05,124.35 411.06,132.45 411.80,140.50 411.02,148.64 408.97,156.74 405.96,164.36 402.17,171.20 397.47,177.55 392.05,183.03 382.42,189.34 371.57,194.09 346.99,200.06 300.56,206.17 254.95,214.37 246.02,218.00 239.08,222.08 232.94,226.98 227.12,233.04 222.11,239.97 218.19,247.25 215.47,254.57 213.78,262.24 213.56,269.80 214.52,275.53 216.33,281.35 218.94,286.83 222.27,291.58 226.66,295.75 231.98,299.34 237.78,302.20 243.56,304.34 250.92,305.74 258.50,305.94 266.13,305.31 276.76,302.98 289.95,298.23 457.30,224.26 478.15,217.81 491.23,215.53 504.62,214.51 516.84,215.00 528.75,217.18 537.02,220.04 545.13,223.87 552.31,228.62 558.17,233.96 563.23,240.07 567.04,246.81 569.53,254.48 570.71,262.77 570.67,271.02 569.21,279.55 566.42,288.04 562.74,295.75 556.64,304.29 548.44,312.19 529.20,325.39 509.03,338.24 489.41,354.29 480.72,363.99 473.14,374.66 466.86,386.50 461.94,399.06 458.31,412.35 456.24,425.88 455.90,438.69 457.34,451.01 459.31,458.38 462.04,465.46 465.55,472.01 472.35,480.74 480.56,488.26 489.81,494.32 499.92,498.98 511.00,502.47 522.53,504.36 534.45,504.31 546.37,502.52 557.33,498.98 569.69,493.59 642.90,457.80 657.53,453.38 670.75,451.15 684.92,450.38 698.80,451.35 711.18,454.06 722.76,458.43 733.05,464.10 742.22,471.38 747.92,477.59 752.98,484.67 756.73,492.09 758.96,499.65 760.00,507.61 759.72,515.47 757.99,523.37 754.90,531.13 750.73,538.17 745.25,544.47 738.67,550.05 731.49,554.37 723.86,557.03 715.66,558.54 707.37,559.31 694.75,558.59 682.09,558.25 673.40,560.09 664.77,563.05 656.85,566.73 647.40,572.80 639.29,580.22 632.55,589.04 627.41,598.89 624.40,609.56 622.58,620.76 619.97,644.34 617.30,656.22 613.19,667.67 606.91,678.24 599.02,687.79 589.75,696.09 579.30,702.78 567.78,707.54 555.62,710.40 543.16,711.12 530.76,709.86 519.02,706.57 507.89,701.52 497.67,694.63 487.96,686.68 468.28,669.46 357.80,574.06"
        fill="none"
        stroke="#e94560"
        stroke-width="8.0"
        stroke-linejoin="round"
        stroke-linecap="round"/>
  <!-- Start/finish line -->
  <line x1="344.73" y1="589.19" x2="370.88" y2="558.92"
        stroke="#f5f5f5" stroke-width="9.6"
        stroke-linecap="round"/>
</svg>
