<?xml version="1.0" encoding="utf-8"?>
<svg xmlns="http://www.w3.org/2000/svg"
     width="800.0" height="538.3"
     viewBox="0 0 800.0 538.3">
  <rect width="100%" height="100%" fill="#1a1a2e"/>
  <!-- Track outline -->
  <polyline points="407.66,438.96 308.98,389.64 239.03,363.12 161.53,343.08 127.10,333.90 109.45,326.55 93.23,317.87 78.79,307.47 66.61,295.57 56.59,282.07 48.44,267.41 45.18,259.74 41.84,248.01 40.26,236.26 40.00,224.18 41.01,211.96 42.86,199.54 45.47,189.16 49.34,179.18 54.41,169.95 60.29,161.56 67.06,153.87 74.70,146.56 83.23,139.72 92.66,133.47 102.95,127.82 114.03,122.86 130.09,117.82 147.34,114.53 165.22,113.27 193.18,114.97 222.66,120.53 253.00,130.26 284.18,143.69 304.95,154.83 325.38,168.18 344.93,183.46 363.16,200.44 380.38,219.14 410.91,259.22 442.44,307.40 487.85,376.66 507.43,397.96 525.26,411.28 534.58,416.18 543.92,419.97 553.34,422.26 562.71,423.05 571.90,422.55 580.29,420.49 588.10,417.20 595.24,412.85 601.58,407.56 607.57,401.64 610.28,398.25 612.74,394.42 616.79,387.46 621.06,377.69 638.18,306.31 679.65,83.63 681.88,74.33 684.61,65.81 688.11,58.30 690.95,53.88 694.21,49.84 697.79,46.55 701.62,43.95 705.58,42.00 709.68,40.70 713.94,40.05 718.26,40.00 722.75,40.51 727.18,41.62 731.44,43.41 735.57,45.78 739.53,48.65 743.30,52.02 746.84,55.98 750.03,60.22 754.22,67.55 757.43,75.87 759.33,85.09 760.00,95.15 759.54,106.05 758.12,117.57 748.99,156.34 694.73,345.18 681.74,388.43 673.44,408.00 668.80,417.13 658.03,434.24 645.98,449.66 632.83,463.58 619.14,475.17 604.47,485.11 597.10,489.18 585.70,493.90 574.19,496.72 562.35,498.22 550.38,498.26 538.29,497.03 526.28,494.63 502.26,486.22 407.66,438.96"
        fill="none"
        stroke="#e94560"
        stroke-width="8.0"
        stroke-linejoin="round"
        stroke-linecap="round"/>
  <!-- Start/finish line -->
  <line x1="398.72" y1="456.85" x2="416.60" y2="421.07"
        stroke="#f5f5f5" stroke-width="9.6"
        stroke-linecap="round"/>
</svg>
