<?xml version="1.0" encoding="utf-8"?>
<svg xmlns="http://www.w3.org/2000/svg"
     width="800.0" height="704.3"
     viewBox="0 0 800.0 704.3">
  <rect width="100%" height="100%" fill="#1a1a2e"/>
  <!-- Track outline -->
  <polyline points="269.52,295.91 260.01,369.09 256.90,412.25 256.70,437.93 259.11,458.27 263.74,481.35 270.63,500.02 279.41,517.07 288.86,530.91 300.00,543.50 315.23,557.00 332.42,568.87 351.00,578.44 371.47,585.82 398.11,591.97 429.49,595.11 568.11,584.88 681.81,575.74 698.64,575.77 712.31,577.25 723.53,580.17 733.28,584.09 739.21,587.42 744.30,591.28 748.80,595.58 752.67,600.42 755.73,605.60 758.02,611.12 759.36,616.96 759.94,622.45 760.00,625.40 759.59,628.36 757.38,634.92 754.07,641.70 750.61,646.72 746.27,651.15 738.98,656.01 730.54,659.90 721.82,662.67 711.79,664.27 669.33,662.60 570.11,655.70 474.30,655.98 371.30,651.62 326.69,642.80 308.52,636.36 291.39,628.32 274.70,618.37 259.55,607.01 248.41,596.27 238.87,584.56 230.61,571.88 223.90,558.29 219.30,544.79 215.75,529.03 211.10,488.88 205.52,448.95 200.14,432.91 193.60,420.29 187.37,411.81 180.22,405.00 174.75,401.17 168.85,397.97 163.00,395.77 157.95,394.86 152.97,394.70 148.64,394.92 145.32,395.46 142.42,396.37 139.63,397.43 136.80,399.00 132.01,402.77 127.38,407.60 123.81,412.85 121.07,418.97 119.47,424.93 118.48,431.62 118.37,438.75 120.93,452.72 126.10,468.82 141.72,504.48 156.17,539.17 158.82,551.57 159.46,562.56 158.50,574.42 156.11,585.41 153.35,592.66 149.80,599.10 145.30,605.22 140.64,610.37 137.94,612.94 135.00,615.11 129.10,618.47 122.38,621.26 115.69,622.83 108.86,623.40 101.82,622.96 94.90,621.54 88.45,619.22 82.37,615.99 76.64,611.81 71.38,606.88 66.69,601.39 62.59,595.36 59.25,589.27 56.43,582.02 52.74,566.17 49.95,545.57 46.43,440.66 47.50,421.73 50.06,405.38 54.98,387.67 61.78,371.22 69.28,358.73 78.15,347.83 88.30,338.42 100.16,330.13 139.04,312.61 177.89,293.27 189.53,283.98 199.30,273.62 207.70,262.10 214.59,249.20 220.41,232.65 224.04,215.14 225.12,198.34 223.78,181.89 219.83,166.39 213.95,152.54 210.17,146.26 205.90,140.77 201.13,135.94 192.05,129.53 183.48,125.14 180.39,124.04 177.60,123.50 174.58,123.16 171.53,123.13 168.53,123.35 165.30,124.01 161.23,125.20 156.67,126.99 152.36,129.59 147.91,133.77 143.84,139.14 140.29,145.86 134.91,170.03 130.73,195.96 122.35,222.73 118.95,229.36 115.11,234.95 110.66,240.19 105.66,244.80 100.08,248.76 94.12,251.84 88.18,253.75 82.14,254.63 76.03,254.44 70.04,253.25 64.40,251.14 59.16,248.19 54.48,244.46 50.38,240.03 46.92,235.01 44.13,229.20 41.48,220.63 40.00,210.55 40.38,194.07 42.82,176.24 46.98,158.25 52.88,140.61 60.53,123.60 69.89,107.59 81.09,92.90 93.80,79.46 108.68,66.62 124.07,55.85 135.87,49.42 147.74,44.77 160.47,41.51 173.53,40.00 186.76,40.47 199.85,42.86 212.44,47.13 224.33,53.18 235.12,60.75 244.75,69.82 252.57,80.06 259.20,91.67 265.68,106.61 270.92,123.13 277.84,164.31 278.74,221.73 269.52,295.91"
        fill="none"
        stroke="#e94560"
        stroke-width="8.0"
        stroke-linejoin="round"
        stroke-linecap="round"/>
  <!-- Start/finish line -->
  <line x1="289.36" y1="298.43" x2="249.68" y2="293.39"
        stroke="#f5f5f5" stroke-width="9.6"
        stroke-linecap="round"/>
</svg>
