<?xml version="1.0" encoding="utf-8"?>
<svg xmlns="http://www.w3.org/2000/svg"
     width="368.7" height="800.0"
     viewBox="0 0 368.7 800.0">
  <rect width="100%" height="100%" fill="#1a1a2e"/>
  <!-- Track outline -->
  <polyline points="70.36,468.38 93.28,363.67 118.95,245.64 122.05,230.62 123.36,215.49 123.48,200.32 122.57,192.46 120.80,185.37 117.88,177.92 113.96,170.79 109.33,164.65 103.11,157.91 55.44,112.77 50.49,106.81 46.99,101.40 43.87,95.29 41.59,88.88 40.58,84.34 40.00,79.71 40.04,75.11 40.79,70.60 42.19,66.18 44.11,62.02 46.70,58.04 49.84,54.36 53.41,51.10 59.85,46.89 67.06,43.71 75.35,41.54 83.76,40.39 90.77,40.00 97.67,40.30 104.82,41.28 111.95,43.00 119.25,45.55 126.34,48.81 133.32,52.82 139.89,57.51 146.01,62.88 151.56,68.91 156.47,75.85 160.62,83.36 166.56,99.77 170.38,117.28 191.24,302.45 193.33,321.08 193.41,339.99 190.96,358.36 185.88,375.54 182.26,383.91 177.89,391.96 166.62,406.65 154.28,420.83 143.51,435.97 126.32,470.46 103.75,549.85 88.63,635.77 87.47,651.23 88.63,665.77 90.10,672.48 92.34,679.10 95.92,686.96 100.67,694.26 104.44,698.18 108.74,701.59 113.35,704.29 118.21,706.16 123.40,707.29 128.61,707.71 133.91,707.29 139.24,706.13 144.31,704.35 149.11,702.04 153.68,699.13 157.54,695.66 160.52,691.65 162.87,687.14 164.44,682.42 165.19,677.64 165.17,672.66 164.44,667.23 159.23,652.89 153.25,638.73 149.49,624.64 144.56,593.09 143.85,575.99 146.09,541.24 149.09,525.24 151.40,517.88 154.40,510.85 158.27,504.26 162.94,498.18 168.43,492.66 174.57,487.91 181.19,484.20 188.22,481.50 195.49,479.98 202.93,479.48 210.52,479.89 218.07,481.29 225.58,483.69 232.83,486.99 239.85,491.26 246.52,496.22 259.08,507.82 293.62,550.94 303.81,565.75 312.68,581.04 319.47,597.90 324.30,615.94 327.42,634.93 328.65,653.75 328.45,671.44 327.12,687.85 324.06,702.99 321.68,710.11 318.56,716.79 314.80,722.66 310.11,727.95 305.68,731.60 300.63,734.89 295.39,737.24 291.55,738.22 287.58,738.72 283.60,738.72 279.81,738.19 276.19,737.06 272.66,735.40 269.34,733.32 266.40,730.89 262.96,727.00 260.10,722.46 257.97,717.59 256.62,712.28 256.04,706.61 256.18,700.97 258.09,692.27 261.13,683.93 267.31,670.96 271.70,656.45 273.23,641.23 272.42,625.68 269.02,609.95 264.03,595.76 257.55,582.11 252.13,574.60 245.99,568.43 239.05,563.05 231.46,558.93 226.18,557.03 220.67,555.75 215.31,555.40 211.61,555.75 207.91,556.55 204.40,557.77 201.24,559.46 197.60,562.49 194.48,566.29 191.96,570.44 189.99,575.13 188.66,580.24 187.86,585.46 187.72,593.92 188.62,602.26 191.94,615.50 208.95,658.53 211.33,667.23 212.64,675.09 213.22,683.76 212.86,692.45 211.47,701.18 209.05,709.72 205.39,717.95 200.76,725.75 195.26,733.11 188.96,739.79 181.96,745.55 174.33,750.32 166.26,753.80 157.84,756.35 149.11,758.37 140.21,759.58 131.07,760.00 122.03,759.41 113.50,757.63 105.32,754.78 97.59,750.83 90.37,745.93 83.70,740.06 77.64,733.41 72.13,726.05 67.28,718.18 59.57,701.12 53.97,682.72 50.09,663.34 48.37,643.01 51.60,587.30 65.12,492.39 70.36,468.38"
        fill="none"
        stroke="#e94560"
        stroke-width="8.0"
        stroke-linejoin="round"
        stroke-linecap="round"/>
  <!-- Start/finish line -->
  <line x1="50.83" y1="464.11" x2="89.90" y2="472.65"
        stroke="#f5f5f5" stroke-width="9.6"
        stroke-linecap="round"/>
</svg>
