<?xml version="1.0" encoding="utf-8"?>
<svg xmlns="http://www.w3.org/2000/svg"
     width="800.0" height="538.1"
     viewBox="0 0 800.0 538.1">
  <rect width="100%" height="100%" fill="#1a1a2e"/>
  <!-- Track outline -->
  <polyline points="446.90,41.30 440.04,40.58 345.57,40.00 226.35,49.88 199.06,56.55 179.27,63.43 158.58,72.70 135.80,86.64 115.98,101.26 101.42,115.71 86.34,133.85 71.18,155.72 59.25,179.98 50.45,201.96 46.25,216.01 42.28,241.21 40.00,270.61 44.38,319.82 48.17,336.44 56.28,357.04 68.29,379.71 89.51,407.30 113.81,431.81 134.34,447.49 156.20,460.16 217.06,484.50 234.59,489.31 259.37,492.71 571.14,498.11 590.50,495.61 645.28,479.57 651.66,476.96 657.65,473.56 678.00,458.57 698.23,441.62 704.96,435.32 711.10,428.08 725.87,405.60 739.72,381.26 749.32,359.21 755.32,337.81 758.57,311.82 760.00,283.32 756.57,239.98 747.25,201.92 737.96,180.13 715.40,142.33 708.77,133.71 700.99,125.67 673.90,103.62 645.87,83.70 628.23,74.18 576.60,56.58 550.10,52.09 446.90,41.30"
        fill="none"
        stroke="#e94560"
        stroke-width="8.0"
        stroke-linejoin="round"
        stroke-linecap="round"/>
  <!-- Start/finish line -->
  <line x1="444.82" y1="61.19" x2="448.98" y2="21.41"
        stroke="#f5f5f5" stroke-width="9.6"
        stroke-linecap="round"/>
</svg>
