<?xml version="1.0" encoding="utf-8"?>
<svg xmlns="http://www.w3.org/2000/svg"
     width="660.8" height="800.0"
     viewBox="0 0 660.8 800.0">
  <rect width="100%" height="100%" fill="#1a1a2e"/>
  <!-- Track outline -->
  <polyline points="139.46,283.31 126.02,303.85 59.07,435.97 50.36,461.88 40.87,513.18 40.00,538.10 49.52,608.33 55.75,629.83 66.60,656.45 80.18,680.75 96.76,702.63 116.71,721.47 140.19,737.36 159.97,747.19 181.24,754.54 204.03,758.96 228.00,760.00 252.22,759.24 264.64,757.82 277.03,755.11 325.95,737.41 349.71,724.22 381.32,701.49 416.94,670.21 456.10,625.08 494.95,570.27 587.20,398.39 613.90,316.72 618.69,290.28 620.79,266.17 620.83,238.98 615.79,202.25 608.44,168.46 604.24,153.23 599.30,140.84 593.71,131.73 586.71,123.05 554.76,90.16 535.65,75.97 494.46,55.00 473.35,47.88 445.50,41.80 418.38,40.00 391.57,40.28 366.16,44.41 342.26,51.53 319.83,61.69 298.86,74.55 271.71,96.95 239.62,130.21 139.46,283.31"
        fill="none"
        stroke="#e94560"
        stroke-width="8.0"
        stroke-linejoin="round"
        stroke-linecap="round"/>
  <!-- Start/finish line -->
  <line x1="156.20" y1="294.26" x2="122.72" y2="272.36"
        stroke="#f5f5f5" stroke-width="9.6"
        stroke-linecap="round"/>
</svg>
