<?xml version="1.0" encoding="utf-8"?>
<svg xmlns="http://www.w3.org/2000/svg"
     width="800.0" height="720.3"
     viewBox="0 0 800.0 720.3">
  <rect width="100%" height="100%" fill="#1a1a2e"/>
  <!-- Track outline -->
  <polyline points="516.60,630.61 561.73,610.79 634.99,565.40 650.37,554.65 686.18,520.42 724.00,472.78 740.33,440.63 753.07,405.64 760.00,368.83 759.31,325.52 752.06,280.13 741.02,238.98 721.61,194.84 697.53,157.52 673.44,128.70 646.52,104.55 614.25,82.81 578.31,65.40 530.28,49.74 478.90,40.75 425.69,40.00 370.97,47.25 306.67,65.07 245.01,90.14 200.88,113.88 160.85,142.45 122.77,177.93 90.06,218.07 68.56,255.39 52.92,295.28 43.59,337.01 40.00,380.16 42.27,424.30 50.53,467.61 65.66,509.67 86.46,548.65 113.63,585.05 145.47,616.37 183.04,642.61 223.20,662.26 261.65,674.51 302.06,680.34 353.13,679.17 408.35,669.51 487.09,643.61 516.60,630.61"
        fill="none"
        stroke="#e94560"
        stroke-width="8.0"
        stroke-linejoin="round"
        stroke-linecap="round"/>
  <!-- Start/finish line -->
  <line x1="508.55" y1="612.30" x2="524.65" y2="648.92"
        stroke="#f5f5f5" stroke-width="9.6"
        stroke-linecap="round"/>
</svg>
