<?xml version="1.0" encoding="utf-8"?>
<svg xmlns="http://www.w3.org/2000/svg"
     width="800.0" height="668.8"
     viewBox="0 0 800.0 668.8">
  <rect width="100%" height="100%" fill="#1a1a2e"/>
  <!-- Track outline -->
  <polyline points="417.01,157.81 462.39,187.12 672.04,317.91 721.74,350.25 735.08,360.88 740.93,366.54 746.11,372.45 750.55,378.61 754.20,384.99 756.98,391.54 758.79,398.19 759.62,404.05 760.00,410.45 759.90,417.17 758.90,423.30 757.03,426.82 754.74,429.77 750.74,434.19 746.08,438.22 740.79,441.74 734.93,444.81 728.46,447.45 721.41,449.61 713.82,451.29 705.70,452.40 697.15,453.03 678.80,453.05 648.60,450.67 616.26,445.98 583.59,438.90 562.84,432.71 552.82,429.03 543.08,424.88 533.58,420.28 524.41,415.13 515.61,409.48 507.22,403.29 499.19,396.59 491.54,389.42 484.39,381.78 477.65,373.69 471.40,365.14 465.65,356.17 460.41,346.85 455.79,337.19 451.85,327.26 445.39,307.07 431.96,250.39 428.05,234.33 423.83,223.36 418.91,216.08 413.76,210.42 407.90,206.10 402.88,203.21 397.05,200.50 391.38,198.71 385.50,197.21 378.36,196.51 371.95,196.96 314.91,211.42 306.74,212.68 296.73,212.80 286.67,212.33 276.65,211.05 266.68,208.93 256.90,205.85 247.30,201.91 240.42,197.79 233.61,192.46 199.26,164.75 191.22,158.75 180.59,152.50 169.98,147.81 159.35,144.06 150.13,141.90 142.24,141.00 133.94,141.17 127.92,142.11 123.02,144.02 119.18,146.66 115.69,150.72 112.81,155.71 110.46,161.35 109.16,167.78 109.45,173.83 109.83,178.90 111.10,184.46 112.99,189.83 117.20,198.15 123.14,207.59 145.22,233.28 185.48,267.63 310.87,347.22 532.70,482.88 595.97,523.25 610.27,533.63 616.68,538.98 622.59,544.59 627.91,550.39 632.49,556.47 636.23,562.80 638.97,569.31 640.77,575.91 641.30,579.20 641.51,582.69 641.23,587.75 640.47,592.72 639.49,596.12 638.37,599.01 636.88,601.95 633.12,607.41 628.43,612.43 622.79,616.76 616.36,620.51 609.15,623.55 601.27,625.84 592.81,627.40 583.90,628.34 574.55,628.78 564.83,628.62 554.79,627.86 544.44,626.53 533.85,624.62 523.06,622.07 512.10,618.95 500.94,615.11 489.63,610.59 478.34,605.49 467.10,599.84 444.68,586.87 422.24,571.85 400.02,555.13 386.23,543.61 370.69,529.07 77.45,213.15 70.75,204.79 64.24,194.57 58.40,184.42 53.26,174.28 48.81,164.16 45.26,154.20 42.55,144.39 40.78,134.68 40.00,125.18 40.25,115.97 41.47,107.12 43.41,98.40 46.13,90.10 49.95,81.55 54.02,73.82 58.66,66.56 63.07,61.06 68.40,55.37 73.92,50.87 80.45,47.04 87.56,43.96 95.05,41.47 103.18,40.12 110.78,40.00 118.41,40.87 128.37,42.55 242.59,70.00 254.56,73.17 267.97,77.15 285.09,82.59 299.20,87.78 312.66,93.38 323.35,98.55 333.97,104.44 346.43,112.21 417.01,157.81"
        fill="none"
        stroke="#e94560"
        stroke-width="8.0"
        stroke-linejoin="round"
        stroke-linecap="round"/>
  <!-- Start/finish line -->
  <line x1="427.86" y1="141.01" x2="406.15" y2="174.61"
        stroke="#f5f5f5" stroke-width="9.6"
        stroke-linecap="round"/>
</svg>
