<?xml version="1.0" encoding="utf-8"?>
<svg xmlns="http://www.w3.org/2000/svg"
     width="800.0" height="628.6"
     viewBox="0 0 800.0 628.6">
  <rect width="100%" height="100%" fill="#1a1a2e"/>
  <!-- Track outline -->
  <polyline points="493.14,131.66 528.45,154.47 691.57,256.23 730.23,281.39 740.61,289.66 745.16,294.06 749.19,298.66 752.65,303.45 755.49,308.42 757.65,313.51 759.06,318.69 759.70,323.25 760.00,328.22 759.92,333.45 759.15,338.22 757.69,340.97 755.91,343.26 752.79,346.70 749.17,349.83 745.05,352.58 740.49,354.96 735.46,357.01 729.98,358.70 724.07,360.00 717.76,360.87 711.10,361.36 696.82,361.37 673.32,359.52 648.16,355.87 622.75,350.37 606.60,345.55 598.80,342.68 591.23,339.45 583.84,335.88 576.70,331.87 569.85,327.47 563.33,322.66 557.08,317.45 551.13,311.87 545.56,305.92 540.32,299.63 535.46,292.97 530.98,286.00 526.91,278.74 523.31,271.23 520.24,263.50 515.22,247.79 504.77,203.70 501.72,191.20 498.45,182.66 494.62,177.00 490.61,172.59 486.05,169.23 482.15,166.98 477.61,164.88 473.20,163.48 468.63,162.32 463.06,161.78 458.08,162.12 413.70,173.38 407.35,174.35 399.56,174.44 391.73,174.08 383.93,173.09 376.18,171.43 368.57,169.04 361.10,165.98 355.74,162.77 350.45,158.62 323.72,137.06 317.47,132.39 309.19,127.53 300.94,123.88 292.67,120.96 285.50,119.28 279.36,118.58 272.90,118.71 268.21,119.44 264.40,120.93 261.41,122.99 258.70,126.14 256.46,130.03 254.63,134.41 253.61,139.42 253.84,144.12 254.14,148.07 255.13,152.39 256.60,156.58 259.87,163.05 264.49,170.40 281.68,190.38 313.00,217.10 410.56,279.03 583.15,384.58 632.38,415.99 643.50,424.07 648.49,428.23 653.09,432.59 657.23,437.11 660.79,441.84 663.70,446.76 665.83,451.83 667.24,456.97 667.64,459.52 667.81,462.24 667.59,466.17 667.00,470.05 666.24,472.69 665.37,474.94 664.21,477.23 661.28,481.47 657.64,485.38 653.24,488.75 648.24,491.66 642.63,494.03 636.50,495.81 629.92,497.03 622.98,497.76 615.71,498.10 608.15,497.97 600.34,497.39 592.28,496.35 584.05,494.86 575.65,492.88 567.12,490.45 558.44,487.46 549.64,483.95 540.86,479.98 532.11,475.58 514.67,465.49 497.21,453.80 479.92,440.79 470.51,433.48 462.71,427.66 455.99,423.28 447.66,420.29 438.61,418.56 431.30,418.46 422.77,419.09 414.17,420.35 407.56,422.04 399.49,425.18 391.47,429.39 381.40,435.08 372.80,440.81 365.63,446.30 361.72,449.77 356.22,455.14 347.41,465.23 271.74,553.80 259.00,566.92 250.81,574.04 243.64,579.16 234.53,583.72 224.22,586.75 212.76,588.44 201.64,588.61 190.44,587.34 183.20,585.18 176.75,582.61 170.83,579.67 164.39,576.06 158.21,572.00 151.79,566.84 142.78,558.54 46.19,453.04 40.81,445.57 40.00,441.51 40.05,437.13 41.19,432.69 43.00,428.48 45.47,423.85 48.27,419.80 52.77,413.85 67.00,396.31 74.42,386.33 82.13,375.31 89.26,363.97 96.88,350.35 134.97,281.97 145.57,261.05 153.20,242.64 158.55,226.07 160.98,213.03 162.23,203.24 163.71,197.82 165.57,193.14 167.38,189.71 169.55,187.07 172.92,185.22 177.82,184.81 182.15,186.06 186.25,188.12 190.22,191.05 194.67,195.40 198.37,200.27 201.49,205.75 204.59,213.56 207.01,221.56 208.93,230.24 209.50,237.79 208.96,247.30 207.71,254.77 205.32,263.48 200.84,275.46 190.71,297.12 180.74,315.25 173.39,329.10 165.82,346.43 158.36,369.71 154.51,384.18 151.86,401.54 150.54,417.89 151.67,442.64 156.89,464.61 162.11,476.48 169.88,487.63 178.35,495.09 187.62,500.08 198.34,503.16 208.10,504.14 217.15,503.95 225.66,502.34 233.09,499.49 239.99,495.76 247.84,491.11 257.11,484.47 264.09,478.75 277.87,466.92 289.00,455.64 300.11,443.82 310.75,431.60 323.07,415.29 331.92,400.25 337.77,387.18 342.55,373.67 345.56,358.50 347.09,343.26 346.83,327.44 344.65,315.42 340.21,305.95 335.48,297.37 328.97,287.80 320.59,277.40 228.95,174.72 223.73,168.22 218.67,160.26 214.12,152.36 210.12,144.47 206.66,136.60 203.90,128.86 201.79,121.22 200.41,113.67 199.81,106.27 200.01,99.11 200.95,92.23 202.46,85.43 204.58,78.98 207.55,72.32 210.72,66.31 214.33,60.66 217.75,56.39 221.90,51.96 226.20,48.46 231.28,45.48 236.81,43.08 242.64,41.14 248.96,40.09 254.88,40.00 260.82,40.68 268.56,41.98 357.43,63.34 366.75,65.81 377.18,68.90 390.50,73.14 401.48,77.17 411.95,81.53 420.27,85.56 428.53,90.14 438.22,96.18 493.14,131.66"
        fill="none"
        stroke="#e94560"
        stroke-width="8.0"
        stroke-linejoin="round"
        stroke-linecap="round"/>
  <!-- Start/finish line -->
  <line x1="503.99" y1="114.86" x2="482.28" y2="148.46"
        stroke="#f5f5f5" stroke-width="9.6"
        stroke-linecap="round"/>
</svg>
