<?xml version="1.0" encoding="utf-8"?>
<svg xmlns="http://www.w3.org/2000/svg"
     width="536.0" height="800.0"
     viewBox="0 0 536.0 800.0">
  <rect width="100%" height="100%" fill="#1a1a2e"/>
  <!-- Track outline -->
  <polyline points="220.72,751.96 246.59,758.96 261.89,760.00 273.73,759.44 278.67,758.91 283.51,757.82 295.09,754.19 307.44,748.62 317.70,741.31 326.95,732.42 335.06,722.27 342.09,711.06 348.10,699.15 352.73,686.56 355.60,673.17 356.79,660.28 356.32,651.61 355.02,644.04 353.87,639.34 352.24,634.83 348.86,627.67 344.93,620.86 342.29,617.13 339.10,613.60 330.68,605.90 319.72,598.05 302.60,589.94 281.99,582.65 241.58,570.81 206.22,562.96 199.86,562.77 195.12,563.35 191.93,563.96 188.84,565.00 184.04,567.32 179.51,570.16 177.10,572.14 174.98,574.49 172.07,578.68 169.64,583.18 168.57,585.99 167.91,588.92 167.44,593.89 167.50,598.88 167.94,601.90 168.74,604.83 170.67,609.63 173.04,614.23 174.71,616.82 176.81,619.26 182.78,624.69 190.22,629.70 198.04,632.75 207.19,634.57 227.58,634.86 247.23,634.69 254.06,635.66 259.50,636.99 262.84,638.08 265.99,639.51 270.74,642.34 275.17,645.59 277.54,647.79 279.64,650.28 282.61,654.74 285.12,659.48 286.29,662.49 287.10,665.64 287.78,670.87 287.90,676.10 287.57,679.17 286.81,682.13 284.98,686.80 282.67,691.23 280.96,693.68 278.96,695.88 275.21,699.20 271.18,702.15 268.54,703.68 265.74,704.89 261.15,706.44 255.77,707.50 248.26,707.82 238.45,706.82 190.05,695.44 143.30,681.45 136.10,678.32 130.64,675.10 124.75,670.96 119.54,666.60 113.96,660.60 106.52,649.29 103.31,641.93 101.39,635.88 99.91,628.83 99.13,618.17 99.52,606.79 101.37,595.46 104.46,584.35 109.26,572.72 114.39,562.77 119.50,555.34 129.73,544.13 136.78,538.29 149.87,530.13 158.38,526.23 173.35,521.51 185.42,519.55 198.35,518.68 210.92,519.21 223.97,521.07 259.40,530.81 297.77,547.49 334.34,562.36 346.82,564.73 357.70,564.90 369.02,563.40 379.81,560.23 389.23,555.58 397.05,550.40 400.24,547.76 403.07,544.56 409.02,536.21 414.81,525.38 420.47,508.82 424.09,491.27 424.69,477.66 423.50,464.68 420.86,452.98 417.13,441.72 407.56,419.71 405.02,411.11 403.44,403.46 402.98,399.44 402.98,395.54 403.64,389.13 404.90,382.86 406.09,379.25 407.72,375.86 411.08,370.58 414.93,365.74 417.57,363.15 420.49,360.92 425.74,357.67 431.24,354.86 438.28,352.39 454.31,349.15 470.97,345.11 476.75,342.32 481.43,339.03 485.80,334.94 489.42,330.62 491.27,327.82 492.74,324.76 494.49,319.53 495.66,314.13 495.99,310.94 495.83,307.55 494.30,299.51 491.19,290.19 484.48,277.43 474.43,263.40 415.09,205.65 254.10,59.66 236.31,47.80 228.15,44.36 214.44,40.82 209.12,40.10 203.63,40.00 193.84,41.28 185.61,43.05 183.18,44.02 180.13,45.55 176.65,47.72 172.01,51.77 167.81,56.32 165.63,59.40 163.88,62.52 160.99,69.52 159.92,73.00 159.14,76.93 158.44,84.87 158.46,93.13 160.42,103.39 164.91,116.16 172.22,132.79 180.19,145.65 189.64,157.51 201.65,169.48 215.41,180.23 232.71,190.40 252.77,199.53 324.44,222.94 347.95,233.26 366.16,242.94 371.56,246.70 375.72,250.50 379.67,254.98 382.95,259.55 384.63,262.48 385.97,265.61 387.64,270.86 388.81,276.24 389.19,279.43 389.14,282.61 388.44,287.76 387.21,292.78 386.06,295.66 384.51,298.30 381.28,302.37 377.59,306.07 375.04,308.06 372.24,309.73 367.48,312.12 361.84,314.28 352.82,316.51 342.95,317.77 332.86,317.57 322.73,316.07 312.55,313.21 302.63,309.12 283.72,297.40 259.17,276.80 233.24,256.41 217.96,248.92 205.31,244.52 200.87,243.28 196.46,242.65 184.97,242.02 172.86,242.56 165.38,244.23 158.91,246.50 154.96,248.22 151.17,250.35 145.30,254.40 139.78,258.93 136.80,261.88 134.16,265.17 130.41,270.98 127.18,277.16 125.70,281.06 124.64,285.13 123.57,292.12 123.06,299.22 123.10,303.38 123.66,307.77 126.19,318.47 130.33,330.09 136.14,340.65 143.22,350.38 151.23,359.30 160.81,367.55 176.21,377.82 196.03,388.09 306.41,428.55 334.22,442.59 339.57,446.47 343.94,450.44 347.89,454.87 351.17,459.30 352.82,462.06 354.11,464.97 355.57,469.79 356.50,474.68 356.65,477.58 356.40,480.44 355.39,485.04 353.89,489.47 352.65,491.99 351.11,494.29 348.02,497.78 344.58,500.90 342.23,502.53 339.68,503.83 335.37,505.62 330.26,507.00 322.15,507.90 313.40,507.59 305.43,505.92 296.06,502.48 260.16,483.37 221.75,463.27 205.69,457.61 190.96,454.34 174.48,452.52 158.34,452.72 144.95,454.80 132.26,458.67 120.07,464.39 108.75,471.55 99.62,478.94 91.22,487.73 81.73,500.06 72.91,515.19 62.65,541.10 53.86,570.50 45.66,604.28 40.56,635.00 40.00,647.81 41.17,658.95 44.22,670.07 48.88,680.43 55.05,689.78 62.51,697.99 70.54,704.79 81.05,710.92 163.84,736.61 220.72,751.96"
        fill="none"
        stroke="#e94560"
        stroke-width="8.0"
        stroke-linejoin="round"
        stroke-linecap="round"/>
  <!-- Start/finish line -->
  <line x1="225.93" y1="732.65" x2="215.50" y2="771.27"
        stroke="#f5f5f5" stroke-width="9.6"
        stroke-linecap="round"/>
</svg>
