<?xml version="1.0" encoding="utf-8"?>
<svg xmlns="http://www.w3.org/2000/svg"
     width="416.1" height="800.0"
     viewBox="0 0 416.1 800.0">
  <rect width="100%" height="100%" fill="#1a1a2e"/>
  <!-- Track outline -->
  <polyline points="40.00,405.38 40.00,410.81 40.45,557.70 46.24,634.76 48.29,643.04 51.04,650.23 57.25,665.04 65.81,681.08 80.88,701.47 98.13,720.10 113.33,732.76 129.08,742.79 145.08,750.62 162.07,756.18 183.79,759.49 206.09,760.00 225.92,758.17 245.51,754.06 266.73,747.59 286.85,738.53 302.21,727.77 315.93,715.39 326.99,704.22 337.29,690.67 352.05,663.71 364.57,632.62 371.81,600.95 375.59,573.68 376.14,559.19 368.01,196.84 365.31,177.33 360.97,162.05 349.14,134.61 334.94,109.33 325.94,96.98 315.95,86.56 299.63,72.93 281.47,60.87 263.41,51.78 244.77,45.21 225.54,41.26 205.56,40.00 181.55,41.83 157.96,46.50 140.09,52.06 123.20,60.05 104.82,72.77 87.81,87.73 75.32,100.90 64.42,115.17 54.67,131.68 47.31,147.24 45.02,153.52 43.46,160.06 40.29,192.38 40.00,405.38"
        fill="none"
        stroke="#e94560"
        stroke-width="8.0"
        stroke-linejoin="round"
        stroke-linecap="round"/>
  <!-- Start/finish line -->
  <line x1="60.00" y1="405.41" x2="20.00" y2="405.36"
        stroke="#f5f5f5" stroke-width="9.6"
        stroke-linecap="round"/>
</svg>
