<?xml version="1.0" encoding="utf-8"?>
<svg xmlns="http://www.w3.org/2000/svg"
     width="429.4" height="800.0"
     viewBox="0 0 429.4 800.0">
  <rect width="100%" height="100%" fill="#1a1a2e"/>
  <!-- Track outline -->
  <polyline points="240.66,214.33 289.10,82.93 295.60,71.09 303.37,60.67 307.48,56.20 312.06,52.07 318.07,47.70 324.66,44.06 331.35,41.67 338.25,40.30 345.27,40.00 352.24,40.72 358.94,42.49 365.30,45.24 371.07,48.90 376.25,53.41 380.73,58.70 384.45,64.61 387.34,71.06 389.36,80.86 388.95,91.16 387.12,103.10 383.28,118.25 377.79,135.33 354.25,208.25 349.71,220.47 344.17,232.51 337.45,244.10 329.82,254.37 321.70,263.12 313.17,270.85 301.73,278.93 280.84,291.49 275.63,296.15 271.59,301.14 269.40,304.81 267.64,308.69 266.38,312.68 265.61,316.72 265.31,320.84 265.64,324.92 266.40,328.19 267.54,331.51 269.07,334.62 270.93,337.29 273.05,339.36 275.52,341.15 278.21,342.55 280.97,343.42 283.37,343.75 285.95,343.75 288.57,343.45 291.05,342.80 293.27,341.83 296.37,339.13 298.98,335.47 301.36,331.68 304.41,325.87 307.51,320.24 311.22,315.62 315.55,311.66 319.01,309.34 322.80,307.40 326.78,305.93 331.09,304.95 335.58,304.48 340.06,304.58 344.63,305.28 349.16,306.55 353.39,308.37 357.26,310.76 360.82,313.68 363.84,317.02 366.23,320.74 368.08,324.85 369.37,329.14 369.97,336.04 369.67,343.00 368.34,354.81 355.64,407.64 339.12,456.53 301.50,556.27 296.98,568.46 291.88,578.86 288.09,584.07 283.55,588.71 279.93,591.37 275.95,593.67 271.89,595.19 268.99,595.76 266.00,595.99 263.09,595.76 260.40,595.01 258.29,593.87 256.25,592.30 254.36,590.43 252.74,588.36 251.48,586.26 250.30,582.60 249.91,578.59 249.95,574.52 250.85,568.24 252.71,561.41 261.53,537.30 272.72,513.02 276.76,500.55 277.91,493.82 278.37,486.99 278.10,480.21 277.11,473.56 275.43,467.30 273.02,461.36 269.95,455.96 266.11,451.22 263.06,448.63 259.66,446.41 256.03,444.79 252.08,443.79 247.91,443.42 243.83,443.69 239.77,444.71 235.81,446.41 232.28,448.68 229.25,451.62 226.65,455.11 224.67,458.92 223.39,462.84 222.73,467.05 222.48,472.06 224.54,491.51 227.01,510.98 226.34,524.31 225.09,531.12 223.22,537.85 220.59,544.53 217.29,550.96 213.09,557.22 208.46,562.90 200.16,570.83 190.72,577.81 125.83,619.22 115.93,628.02 107.22,637.94 100.23,649.01 95.30,661.05 92.32,673.67 91.20,686.26 94.74,723.63 94.80,730.41 94.08,736.29 92.87,740.70 91.15,745.07 88.89,748.98 86.05,752.30 82.70,755.16 79.04,757.41 76.08,758.63 72.88,759.50 69.63,759.98 66.43,760.00 62.14,759.25 57.87,757.71 53.97,755.56 50.42,752.65 47.22,749.08 44.61,745.34 42.77,741.90 41.40,738.31 40.47,734.62 40.00,728.84 40.42,722.98 41.38,717.92 43.38,711.24 100.67,552.31 115.02,513.99 120.75,501.55 127.35,489.91 135.06,479.39 143.89,470.22 153.57,462.86 166.49,455.91 178.65,450.55 183.78,447.63 188.47,444.06 191.64,440.70 194.55,436.83 196.85,432.75 198.36,428.63 199.27,424.29 199.64,419.46 197.84,406.77 195.33,394.15 194.40,381.79 194.77,368.80 198.28,341.20 201.43,326.84 234.99,229.67 240.66,214.33"
        fill="none"
        stroke="#e94560"
        stroke-width="8.0"
        stroke-linejoin="round"
        stroke-linecap="round"/>
  <!-- Start/finish line -->
  <line x1="221.89" y1="207.42" x2="259.42" y2="221.25"
        stroke="#f5f5f5" stroke-width="9.6"
        stroke-linecap="round"/>
</svg>
