<?xml version="1.0" encoding="utf-8"?>
<svg xmlns="http://www.w3.org/2000/svg"
     width="800.0" height="427.8"
     viewBox="0 0 800.0 427.8">
  <rect width="100%" height="100%" fill="#1a1a2e"/>
  <!-- Track outline -->
  <polyline points="414.06,387.55 502.73,387.76 562.39,387.72 613.43,375.83 650.29,362.67 678.19,346.60 695.11,333.48 713.72,313.33 727.76,293.42 739.44,272.21 749.91,248.67 755.47,228.94 758.79,210.93 760.00,192.67 758.56,172.80 756.58,161.21 753.39,149.95 748.67,140.41 742.60,131.26 732.96,118.78 721.73,106.63 708.51,95.04 694.60,85.13 681.93,78.38 669.25,73.06 644.87,65.26 529.61,47.72 467.59,42.70 229.76,40.00 198.19,42.91 185.17,46.20 171.32,51.64 140.90,68.30 112.30,86.94 103.20,94.02 95.00,102.25 76.36,124.94 58.61,151.97 48.46,175.21 42.01,196.80 40.41,207.51 40.00,217.30 40.67,235.68 43.32,253.35 46.06,263.10 49.80,272.80 62.02,293.93 77.63,313.92 91.42,325.68 107.99,337.32 126.05,348.08 137.86,353.05 151.21,357.06 234.52,375.45 297.68,382.74 414.06,387.55"
        fill="none"
        stroke="#e94560"
        stroke-width="8.0"
        stroke-linejoin="round"
        stroke-linecap="round"/>
  <!-- Start/finish line -->
  <line x1="414.55" y1="367.56" x2="413.57" y2="407.54"
        stroke="#f5f5f5" stroke-width="9.6"
        stroke-linecap="round"/>
</svg>
