<?xml version="1.0" encoding="utf-8"?>
<svg xmlns="http://www.w3.org/2000/svg"
     width="800.0" height="509.1"
     viewBox="0 0 800.0 509.1">
  <rect width="100%" height="100%" fill="#1a1a2e"/>
  <!-- Track outline -->
  <polyline points="114.70,459.51 106.77,463.50 86.30,469.12 67.59,468.60 51.62,462.12 40.00,448.76 40.99,430.04 50.27,411.84 60.92,397.11 70.32,385.16 74.69,370.24 74.24,350.03 69.84,329.49 65.32,312.11 62.88,293.76 64.00,274.78 69.52,256.10 79.43,238.54 92.98,221.87 104.69,209.47 117.39,196.97 130.84,184.20 144.89,170.96 159.43,157.34 174.28,143.31 189.46,128.98 205.06,114.50 220.55,100.66 235.92,87.63 251.42,75.65 267.21,64.97 283.41,55.85 300.45,48.34 318.32,42.94 336.80,40.07 355.77,40.00 374.83,42.31 393.92,46.85 412.92,53.40 431.88,61.44 450.78,70.66 468.87,80.27 485.62,89.83 501.06,99.10 519.73,110.93 535.94,122.62 549.61,135.04 560.00,149.22 566.23,169.24 564.24,190.38 558.11,206.79 547.58,221.16 532.89,232.77 515.18,240.84 495.89,246.65 475.71,250.04 455.98,249.48 437.85,243.67 422.19,234.26 409.80,221.90 401.07,203.59 399.70,183.72 399.34,162.84 393.44,144.24 379.87,129.91 360.61,121.76 342.58,120.90 323.84,125.03 305.62,134.41 288.80,148.74 276.90,161.76 265.22,176.09 252.70,189.19 235.60,203.04 218.95,214.39 204.16,225.18 192.19,238.02 184.46,257.18 187.41,276.24 199.86,291.72 219.08,301.69 237.53,306.49 257.71,310.06 279.47,313.82 296.82,317.02 315.27,320.48 334.85,324.17 355.54,327.89 377.30,331.35 400.11,334.14 423.82,335.78 448.34,335.55 473.17,332.61 497.30,325.58 520.82,316.72 543.09,306.79 563.21,295.51 580.70,283.27 596.48,271.03 611.60,260.34 627.29,252.12 648.98,246.39 670.06,247.39 689.50,253.53 708.37,263.55 726.79,275.64 742.67,290.00 753.84,306.27 760.00,323.57 758.49,344.34 748.32,361.20 732.31,370.80 712.74,370.50 693.00,362.13 677.09,352.71 661.01,344.08 644.13,338.68 623.50,340.06 605.92,350.59 592.41,362.61 577.81,375.71 561.03,388.55 540.94,398.97 523.45,403.92 504.33,407.12 483.89,408.23 462.30,406.86 439.96,403.43 417.05,397.96 393.31,392.08 368.51,386.95 342.80,383.97 316.53,384.12 289.86,386.54 263.20,391.19 237.17,397.78 213.24,405.78 191.35,414.82 171.49,424.87 153.84,435.51 137.83,446.12 122.46,455.64 114.70,459.51"
        fill="none"
        stroke="#e94560"
        stroke-width="8.0"
        stroke-linejoin="round"
        stroke-linecap="round"/>
  <!-- Start/finish line -->
  <line x1="123.65" y1="477.40" x2="105.75" y2="441.63"
        stroke="#f5f5f5" stroke-width="9.6"
        stroke-linecap="round"/>
</svg>
