<?xml version="1.0" encoding="utf-8"?>
<svg xmlns="http://www.w3.org/2000/svg"
     width="675.6" height="800.0"
     viewBox="0 0 675.6 800.0">
  <rect width="100%" height="100%" fill="#1a1a2e"/>
  <!-- Track outline -->
  <polyline points="73.39,425.75 42.46,283.42 40.66,274.12 40.00,267.24 40.17,260.36 41.02,253.72 42.22,247.64 44.23,241.56 47.61,233.46 50.97,227.68 55.47,221.60 60.50,215.16 67.03,207.97 73.23,202.09 80.23,196.87 87.20,193.26 93.47,190.07 100.16,186.99 108.65,184.46 115.46,183.10 121.04,182.32 125.77,181.35 130.71,179.55 134.52,177.08 139.32,173.19 142.23,170.16 144.29,167.69 145.87,165.20 147.03,162.81 147.98,160.48 149.23,157.98 150.98,155.67 152.76,154.29 155.40,152.70 159.71,150.84 164.93,148.85 226.92,131.52 232.80,130.33 237.56,130.22 242.86,131.30 248.65,134.38 272.16,150.09 276.58,152.93 281.21,155.76 286.58,158.17 290.70,159.64 294.74,160.09 299.71,159.92 303.70,159.34 308.08,158.48 311.41,156.81 313.97,154.54 317.44,150.98 338.02,117.23 340.48,113.78 342.86,111.68 345.87,109.90 349.41,108.34 354.36,106.79 382.81,100.46 386.38,99.96 388.98,100.21 392.08,101.79 393.85,103.57 395.58,106.07 397.18,109.12 398.91,112.12 400.73,115.01 402.76,117.31 404.77,119.03 407.49,120.56 410.64,121.39 414.04,121.28 419.08,120.28 467.37,108.62 469.93,108.01 471.68,107.21 472.83,105.93 474.18,103.87 477.16,98.60 478.82,94.88 480.83,91.58 483.26,88.02 484.92,85.78 486.39,83.80 488.04,82.06 489.91,80.14 491.35,79.03 493.69,78.09 496.86,77.06 500.22,76.23 502.44,76.31 505.78,76.84 508.73,77.95 512.28,79.89 515.69,82.25 518.97,84.14 521.90,85.61 525.48,86.58 529.21,86.89 532.90,86.33 535.55,85.69 538.43,84.00 542.15,81.14 545.08,78.53 553.19,70.31 563.34,59.07 568.89,53.82 573.77,50.30 578.28,47.77 583.46,45.41 588.83,43.78 594.36,42.25 600.16,41.14 605.83,40.19 611.08,40.00 616.29,40.28 620.57,41.25 624.42,42.94 627.59,45.75 630.12,48.99 632.15,52.85 633.45,56.27 634.54,60.04 635.30,63.76 635.56,67.29 635.13,70.65 634.23,74.62 632.51,78.31 629.46,82.94 625.65,87.14 621.89,90.55 617.94,93.22 614.65,95.16 611.74,96.82 608.03,98.96 604.60,100.65 600.68,102.38 596.07,103.90 268.42,205.70 264.14,206.72 260.07,207.14 256.43,206.89 252.98,206.31 249.12,204.67 245.17,202.62 241.63,200.48 238.01,198.06 234.48,196.06 230.82,194.51 226.37,193.45 222.26,193.04 218.36,192.90 213.74,193.32 210.36,194.15 206.34,195.34 201.87,197.56 196.60,200.31 191.44,203.12 187.73,205.17 185.15,206.81 182.24,209.17 179.83,211.42 177.82,213.66 175.53,216.47 173.66,219.30 171.93,221.88 169.97,224.85 167.98,227.18 165.86,229.35 163.07,231.79 160.61,233.51 157.74,235.23 155.26,236.79 152.26,237.93 148.40,238.98 144.55,239.54 137.05,239.95 129.39,240.09 123.98,240.59 119.58,241.84 115.49,243.62 112.13,245.86 109.19,248.61 106.12,252.03 103.68,255.47 101.53,259.44 100.42,263.16 100.00,266.55 99.92,269.38 100.40,272.54 100.97,275.54 102.22,279.32 103.71,282.84 106.43,288.14 118.04,308.57 119.41,312.04 119.98,315.35 119.79,318.23 119.17,320.95 118.20,323.76 116.62,326.70 114.61,329.00 112.86,330.73 110.14,332.67 106.24,334.53 103.38,336.00 100.21,337.67 97.18,339.97 94.93,342.30 93.23,344.77 91.98,347.02 91.25,349.77 91.10,352.24 91.29,355.15 99.50,393.99 100.33,396.77 101.41,399.40 102.69,401.98 104.25,403.96 106.40,405.34 108.77,406.26 111.82,406.90 114.47,407.20 117.19,407.40 121.66,407.68 126.46,408.54 130.01,409.48 132.89,410.26 135.66,411.67 138.00,413.42 140.10,415.67 142.07,418.03 143.65,420.58 145.00,422.92 145.90,425.19 146.84,427.63 147.39,430.19 147.69,433.13 147.67,436.24 146.61,442.13 125.49,506.78 124.92,508.80 124.64,510.30 124.31,511.83 124.16,513.30 124.47,515.74 124.94,517.08 125.49,518.10 127.71,520.13 129.93,521.24 151.88,528.79 154.39,529.79 156.94,530.82 159.16,531.93 161.22,533.59 163.02,535.59 164.77,537.76 166.33,539.95 167.56,542.31 168.72,544.97 169.92,548.72 187.23,645.58 188.16,655.24 192.53,742.98 192.22,746.51 191.51,749.15 190.62,751.01 189.10,753.00 187.26,754.73 185.65,755.95 183.57,757.00 181.70,757.92 179.45,758.72 176.85,759.56 174.04,759.97 171.70,760.00 169.24,759.61 167.06,758.89 165.22,757.61 163.47,756.06 162.03,753.87 160.70,751.48 159.57,748.31 158.81,744.87 153.37,639.69 153.04,636.14 151.90,627.09 146.32,583.12 145.68,579.59 145.02,576.48 143.91,573.98 142.47,571.68 140.43,569.54 138.68,568.07 136.49,566.85 134.00,565.96 130.60,565.41 126.46,565.04 111.42,565.35 108.53,564.93 106.43,564.05 104.16,562.46 102.19,560.19 100.16,556.52 98.13,550.86 97.02,546.33 94.25,534.54 73.39,425.75 73.39,425.75"
        fill="none"
        stroke="#e94560"
        stroke-width="8.0"
        stroke-linejoin="round"
        stroke-linecap="round"/>
  <!-- Start/finish line -->
  <line x1="53.85" y1="429.99" x2="92.94" y2="421.50"
        stroke="#f5f5f5" stroke-width="9.6"
        stroke-linecap="round"/>
</svg>
