<?xml version="1.0" encoding="utf-8"?>
<svg xmlns="http://www.w3.org/2000/svg"
     width="737.1" height="800.0"
     viewBox="0 0 737.1 800.0">
  <rect width="100%" height="100%" fill="#1a1a2e"/>
  <!-- Track outline -->
  <polyline points="253.26,160.54 283.39,102.17 299.80,74.54 308.90,63.01 313.66,58.01 319.07,53.36 327.82,47.82 336.27,43.50 339.50,42.30 342.51,41.50 350.39,40.19 354.45,40.00 358.51,40.19 362.33,40.85 366.28,42.02 372.48,44.54 378.99,48.14 386.76,54.10 393.83,60.93 398.28,66.51 402.05,72.36 409.07,85.83 414.31,101.13 417.16,117.99 417.76,140.37 426.43,254.82 433.41,298.49 436.44,335.27 440.42,357.16 446.37,376.54 454.02,395.07 459.95,404.39 466.64,412.15 474.34,419.42 482.87,425.65 492.14,430.68 501.98,434.36 512.33,436.61 522.83,437.15 533.39,435.27 543.20,432.01 549.93,429.06 556.04,425.51 567.92,416.16 597.26,386.10 608.13,377.58 626.63,367.28 630.46,365.69 634.26,364.57 641.29,363.26 648.85,362.71 655.81,363.29 662.55,364.82 668.79,367.19 674.63,370.45 680.08,374.60 684.91,379.52 688.88,385.09 692.09,391.21 694.50,397.64 696.13,404.69 697.05,415.75 696.94,426.30 695.48,435.05 663.58,548.48 658.73,561.90 652.87,574.39 645.15,585.32 636.86,595.13 630.44,600.49 623.50,605.13 617.65,608.06 611.70,610.24 605.52,611.83 599.17,612.84 585.50,613.39 520.97,608.74 484.24,603.55 428.99,590.71 395.11,579.47 379.42,572.51 365.07,564.23 352.12,554.85 340.42,544.49 319.94,521.89 292.73,487.22 287.88,481.97 282.88,477.60 272.64,470.30 261.10,464.12 250.48,461.23 240.87,459.94 236.58,459.70 232.43,460.00 224.93,461.04 216.44,463.30 202.93,469.70 190.47,477.35 185.15,481.53 180.59,486.20 167.99,503.53 149.38,536.13 143.86,551.38 140.22,567.86 137.26,622.84 140.72,655.39 151.20,697.20 153.09,716.60 152.61,723.00 151.00,730.68 148.73,736.72 145.72,742.65 142.80,746.86 139.17,750.54 135.24,753.41 130.68,755.98 125.90,757.98 118.11,759.59 110.65,760.00 106.46,759.70 102.32,758.85 95.23,756.88 87.96,754.07 82.01,750.85 76.21,746.72 67.95,739.23 60.36,730.76 55.65,723.90 51.92,716.77 46.51,700.29 42.18,683.18 40.00,665.09 41.10,646.10 44.02,626.61 58.10,566.27 71.07,524.60 129.51,400.34 253.26,160.54"
        fill="none"
        stroke="#e94560"
        stroke-width="8.0"
        stroke-linejoin="round"
        stroke-linecap="round"/>
  <!-- Start/finish line -->
  <line x1="235.49" y1="151.37" x2="271.04" y2="169.71"
        stroke="#f5f5f5" stroke-width="9.6"
        stroke-linecap="round"/>
</svg>
