<?xml version="1.0" encoding="utf-8"?>
<svg xmlns="http://www.w3.org/2000/svg"
     width="800.0" height="472.8"
     viewBox="0 0 800.0 472.8">
  <rect width="100%" height="100%" fill="#1a1a2e"/>
  <!-- Track outline -->
  <polyline points="364.46,401.86 503.28,425.14 600.54,432.83 636.43,429.55 667.82,422.64 686.22,415.88 702.41,406.32 718.64,391.42 732.97,373.68 744.23,355.70 752.89,336.93 757.64,321.15 760.00,304.63 759.62,282.92 756.31,260.92 751.03,241.86 742.25,223.23 718.30,193.39 690.02,166.83 671.02,152.91 650.38,141.88 573.71,115.67 408.29,72.79 246.89,40.59 213.18,40.00 186.91,43.38 166.50,47.35 146.92,53.92 122.45,66.22 98.88,82.59 78.62,101.89 61.78,124.63 50.45,149.72 43.19,176.87 40.00,205.00 40.61,232.84 44.60,257.05 51.52,279.05 60.26,295.96 71.21,311.20 86.79,328.20 104.20,343.25 121.53,354.91 139.09,363.78 152.78,368.39 169.73,372.02 364.46,401.86"
        fill="none"
        stroke="#e94560"
        stroke-width="8.0"
        stroke-linejoin="round"
        stroke-linecap="round"/>
  <!-- Start/finish line -->
  <line x1="367.61" y1="382.11" x2="361.31" y2="421.61"
        stroke="#f5f5f5" stroke-width="9.6"
        stroke-linecap="round"/>
</svg>
