<?xml version="1.0" encoding="utf-8"?>
<svg xmlns="http://www.w3.org/2000/svg"
     width="759.2" height="800.0"
     viewBox="0 0 759.2 800.0">
  <rect width="100%" height="100%" fill="#1a1a2e"/>
  <!-- Track outline -->
  <polyline points="47.34,659.22 46.22,661.54 42.92,671.86 40.78,682.82 40.00,693.59 40.57,704.32 42.50,714.64 45.81,724.52 50.47,733.73 56.46,741.96 61.20,746.66 66.53,750.83 72.21,754.26 78.23,756.87 84.58,758.73 91.04,759.85 101.06,760.00 111.04,758.51 120.18,755.56 130.04,750.65 141.48,744.16 154.91,735.81 168.27,725.90 179.42,714.79 190.98,701.60 200.22,689.97 205.06,680.51 206.73,673.46 207.15,666.23 206.78,660.53 205.79,656.88 203.61,652.74 201.42,649.61 198.84,646.70 195.98,644.24 192.96,642.38 188.79,640.93 184.15,640.25 179.39,640.22 174.91,640.81 169.44,642.57 164.21,645.36 159.42,648.83 155.02,653.04 151.08,657.96 147.36,663.85 140.38,681.21 133.48,698.58 128.07,706.85 121.92,713.38 117.29,716.99 112.18,720.01 106.82,721.91 102.29,722.58 97.47,722.62 92.73,721.95 88.51,720.46 84.74,717.89 81.27,714.38 78.36,710.32 76.14,706.22 74.76,702.20 74.01,697.95 73.80,693.59 74.16,689.30 75.47,683.71 77.89,678.23 81.69,672.08 106.01,646.37 132.65,622.29 147.44,610.22 164.05,598.63 182.83,588.19 203.58,579.62 290.03,552.45 305.71,544.62 319.98,535.19 333.31,524.72 339.35,518.39 344.30,512.01 353.44,497.74 367.60,466.54 382.73,434.83 389.22,425.51 396.35,417.50 411.92,403.19 426.95,388.88 432.94,380.56 437.39,372.37 443.77,354.59 447.15,345.98 451.24,337.85 456.53,330.88 462.67,324.77 469.42,319.78 476.79,315.75 484.73,312.66 493.06,310.39 510.87,307.55 527.64,303.16 546.81,295.74 581.00,274.91 596.59,260.97 631.62,223.07 694.37,148.97 709.45,125.91 716.95,108.76 718.82,100.19 719.16,94.26 718.80,88.26 717.75,82.37 714.79,73.58 710.36,65.34 706.64,60.20 702.34,55.35 697.52,51.18 692.11,47.68 686.19,44.84 680.05,42.65 670.42,40.48 660.52,40.00 650.55,41.53 640.76,44.66 631.82,48.53 621.75,54.87 539.62,130.15 389.92,292.83 353.31,348.44 344.27,368.71 319.59,448.84 311.07,466.32 305.89,474.22 300.08,481.56 293.81,488.16 286.98,494.12 279.69,499.30 272.01,503.81 255.89,510.82 202.82,523.75 185.40,531.02 169.08,540.71 116.14,585.43 65.67,632.39 54.48,646.44 49.97,653.67 47.34,659.22"
        fill="none"
        stroke="#e94560"
        stroke-width="8.0"
        stroke-linejoin="round"
        stroke-linecap="round"/>
  <!-- Start/finish line -->
  <line x1="65.40" y1="667.83" x2="29.29" y2="650.62"
        stroke="#f5f5f5" stroke-width="9.6"
        stroke-linecap="round"/>
</svg>
