<?xml version="1.0" encoding="utf-8"?>
<svg xmlns="http://www.w3.org/2000/svg"
     width="326.9" height="800.0"
     viewBox="0 0 326.9 800.0">
  <rect width="100%" height="100%" fill="#1a1a2e"/>
  <!-- Track outline -->
  <polyline points="54.21,143.10 55.71,155.73 66.95,230.13 78.13,375.14 78.48,394.49 74.11,471.80 72.20,490.18 44.67,600.62 40.00,660.79 42.87,698.38 44.15,705.29 45.88,711.18 48.44,717.00 51.57,722.60 55.26,728.56 59.48,734.14 64.09,738.62 69.15,742.62 80.84,749.92 91.02,754.30 101.92,757.31 113.12,759.48 119.08,760.00 125.07,759.90 136.09,758.90 147.15,756.97 153.95,754.83 160.10,752.23 165.91,749.56 171.27,746.34 175.90,742.26 180.00,737.64 183.67,732.80 186.89,727.58 189.64,722.38 192.02,715.57 196.71,683.38 200.15,639.14 205.03,473.30 206.18,457.95 208.65,442.29 220.06,400.88 229.37,378.86 254.68,336.23 274.69,305.94 279.80,295.97 283.48,285.13 286.88,262.36 286.64,250.11 284.60,238.57 281.24,227.01 275.68,213.80 261.86,192.68 245.83,172.13 223.88,147.96 123.87,52.01 118.96,48.10 114.83,45.60 108.81,42.81 102.40,40.83 96.10,40.00 89.84,40.02 84.14,40.67 78.72,42.10 73.79,44.39 69.22,47.37 64.87,50.97 60.96,55.14 57.55,59.88 54.69,65.05 52.40,70.61 50.73,76.45 49.79,82.34 49.51,89.39 53.62,138.21 54.21,143.10"
        fill="none"
        stroke="#e94560"
        stroke-width="8.0"
        stroke-linejoin="round"
        stroke-linecap="round"/>
  <!-- Start/finish line -->
  <line x1="74.07" y1="140.74" x2="34.35" y2="145.46"
        stroke="#f5f5f5" stroke-width="9.6"
        stroke-linecap="round"/>
</svg>
