<?xml version="1.0" encoding="utf-8"?>
<svg xmlns="http://www.w3.org/2000/svg"
     width="608.7" height="800.0"
     viewBox="0 0 608.7 800.0">
  <rect width="100%" height="100%" fill="#1a1a2e"/>
  <!-- Track outline -->
  <polyline points="62.02,362.94 55.09,386.76 40.00,483.30 40.29,532.85 47.44,580.74 53.80,603.16 61.95,624.75 83.83,665.04 96.91,683.48 111.43,700.44 127.44,715.25 144.67,728.15 162.83,738.91 181.92,747.51 202.01,753.96 222.68,758.10 243.63,760.00 264.72,759.67 285.74,757.10 306.54,752.56 326.99,746.10 346.94,737.75 365.96,727.33 384.12,715.08 417.08,686.46 447.18,654.45 472.85,618.63 493.73,579.34 530.83,470.15 562.22,358.06 568.44,310.83 568.66,263.51 562.65,218.43 557.00,198.91 549.00,179.80 534.34,154.90 517.25,131.41 487.51,99.81 454.62,73.42 436.67,62.67 417.94,53.81 398.42,47.36 378.40,42.98 358.10,40.41 337.79,40.00 317.84,41.99 298.25,46.04 279.30,51.99 260.93,59.85 243.27,69.28 226.54,80.53 211.52,92.78 196.51,108.00 172.06,137.36 146.10,175.66 103.35,259.62 68.46,341.02 62.02,362.94"
        fill="none"
        stroke="#e94560"
        stroke-width="8.0"
        stroke-linejoin="round"
        stroke-linecap="round"/>
  <!-- Start/finish line -->
  <line x1="81.22" y1="368.55" x2="42.82" y2="357.33"
        stroke="#f5f5f5" stroke-width="9.6"
        stroke-linecap="round"/>
</svg>
