<?xml version="1.0" encoding="utf-8"?>
<svg xmlns="http://www.w3.org/2000/svg"
     width="486.9" height="800.0"
     viewBox="0 0 486.9 800.0">
  <rect width="100%" height="100%" fill="#1a1a2e"/>
  <!-- Track outline -->
  <polyline points="159.36,266.83 49.48,100.95 45.73,95.15 43.77,91.95 42.30,89.36 41.41,87.34 40.41,84.34 40.03,81.98 40.00,79.51 40.24,76.34 40.72,73.22 41.56,70.29 42.70,67.30 43.98,64.67 45.40,62.12 47.12,59.75 48.83,57.65 51.05,55.50 53.58,53.42 56.12,51.60 58.67,49.96 61.07,48.55 63.64,47.18 66.72,45.70 70.69,43.92 74.15,42.69 77.41,41.60 80.37,40.84 83.10,40.37 85.99,40.10 88.60,40.00 91.25,40.09 93.97,40.28 96.77,40.65 100.00,41.29 103.85,42.12 108.20,43.28 112.67,44.94 119.56,47.91 145.52,59.00 150.63,61.23 156.35,63.21 161.70,64.81 211.54,74.52 214.74,75.30 217.34,76.08 220.17,77.21 224.82,79.63 380.52,165.56 382.50,167.04 383.99,168.59 385.33,170.45 386.38,172.83 387.12,175.28 387.50,178.24 387.36,181.27 386.80,183.85 385.98,186.27 384.52,188.54 382.64,190.59 381.16,191.96 379.50,193.17 377.35,194.70 375.12,196.00 372.16,197.57 318.88,219.88 316.84,220.53 314.52,221.01 312.04,221.13 309.35,220.95 306.48,220.49 304.17,219.80 301.96,218.93 300.17,218.08 298.25,216.77 296.51,215.27 294.56,213.45 291.78,210.45 286.08,203.78 270.42,183.71 259.57,169.31 251.44,159.01 246.91,153.54 242.28,148.31 237.13,143.08 230.94,137.20 226.00,132.80 219.35,127.29 204.39,116.18 182.37,103.51 154.45,91.61 120.51,79.28 117.96,78.49 115.41,78.26 113.32,78.46 110.99,79.25 108.74,80.44 106.52,81.96 104.60,83.65 102.87,85.39 100.89,88.09 99.78,91.20 99.06,94.60 98.63,98.07 98.77,101.45 99.28,104.85 100.29,107.92 101.78,110.78 103.44,113.35 105.59,116.14 107.96,118.69 110.18,120.63 112.83,122.12 116.34,123.14 125.43,125.52 170.80,135.39 176.27,137.12 181.48,139.10 187.59,142.03 193.56,145.19 198.91,148.48 204.41,152.22 209.14,155.62 213.83,159.62 218.84,164.34 223.53,169.21 226.92,173.17 232.33,180.05 239.55,189.54 258.79,216.48 281.67,249.56 284.02,252.72 286.54,255.43 288.83,257.52 290.84,258.94 293.16,259.90 295.90,260.59 298.49,260.79 301.24,260.71 304.06,260.33 307.03,259.69 310.09,258.64 312.80,257.32 340.83,242.95 343.16,242.02 345.24,241.69 347.75,241.77 349.83,242.21 351.84,242.90 353.87,244.08 355.78,245.56 357.22,246.96 358.62,248.81 359.63,250.44 360.53,252.51 360.96,254.40 361.21,256.26 361.28,258.34 361.05,260.29 360.56,261.99 359.83,263.89 358.93,265.47 350.31,277.61 347.31,282.87 344.63,288.75 342.43,293.92 340.71,298.60 339.14,304.26 337.65,313.46 333.39,382.00 333.79,387.46 334.63,393.56 335.77,399.44 337.53,404.66 361.34,464.37 362.25,467.21 362.89,470.18 363.10,473.25 362.56,476.02 361.51,478.39 360.13,480.72 358.81,482.30 357.67,483.52 356.68,484.23 354.72,485.43 351.80,486.99 349.06,488.60 346.30,490.30 343.16,492.66 340.97,494.63 338.87,497.36 337.41,500.07 336.14,503.46 335.48,506.29 335.02,509.57 334.91,513.26 335.22,516.60 336.01,519.94 337.56,524.09 396.13,649.96 398.06,654.00 400.05,657.77 403.26,663.07 408.93,671.50 415.87,680.20 441.43,708.39 443.11,710.64 444.34,712.42 445.39,714.31 446.46,716.62 446.86,718.84 446.66,721.45 446.08,723.46 445.08,725.65 443.63,728.04 441.38,730.78 416.01,756.09 414.57,757.19 412.67,758.32 411.31,758.89 409.66,759.37 407.06,759.86 404.71,760.00 402.50,760.00 400.31,759.64 398.10,758.98 396.42,758.22 394.75,757.21 393.09,756.04 391.43,754.50 390.10,753.09 388.76,751.53 387.72,750.08 386.77,748.32 385.99,746.44 385.39,744.79 385.00,742.86 384.77,739.56 384.69,713.14 384.32,708.36 383.56,703.61 382.66,699.15 381.52,694.13 380.18,688.81 378.20,682.34 376.70,677.74 374.62,672.58 372.28,667.49 369.67,662.15 340.85,605.81 301.83,529.79 300.11,526.19 296.32,517.14 284.26,482.73 273.34,450.43 271.96,446.61 269.97,441.84 267.34,436.27 159.36,266.83"
        fill="none"
        stroke="#e94560"
        stroke-width="8.0"
        stroke-linejoin="round"
        stroke-linecap="round"/>
  <!-- Start/finish line -->
  <line x1="142.59" y1="277.73" x2="176.13" y2="255.94"
        stroke="#f5f5f5" stroke-width="9.6"
        stroke-linecap="round"/>
</svg>
