<?xml version="1.0" encoding="utf-8"?>
<svg xmlns="http://www.w3.org/2000/svg"
     width="800.0" height="424.9"
     viewBox="0 0 800.0 424.9">
  <rect width="100%" height="100%" fill="#1a1a2e"/>
  <!-- Track outline -->
  <polyline points="462.61,50.18 565.17,58.14 574.88,59.91 619.47,63.18 638.92,66.80 650.66,70.09 672.85,78.79 693.31,89.69 731.30,114.88 739.89,122.05 747.43,129.90 752.03,136.40 755.86,143.29 757.62,148.07 758.74,153.08 759.70,160.60 760.00,168.93 758.08,190.57 755.32,201.40 754.46,207.88 753.09,214.59 749.58,222.31 744.59,230.60 723.40,259.99 713.31,272.07 703.85,281.58 699.19,284.72 694.68,286.92 684.59,290.52 673.83,292.59 662.85,293.46 651.99,293.29 606.30,287.23 565.97,276.59 532.53,264.35 501.39,248.89 466.60,225.78 394.50,162.17 374.78,149.79 353.06,139.41 322.47,128.97 290.17,121.53 259.54,118.26 239.17,118.06 220.60,119.33 212.26,121.16 205.88,123.30 201.02,125.65 183.37,136.49 175.74,142.90 161.99,158.71 156.59,167.91 152.82,177.70 150.47,187.77 149.73,198.02 152.30,227.83 156.15,255.63 156.83,258.36 157.81,260.71 162.26,269.85 168.40,279.51 174.31,285.29 180.62,289.74 185.87,292.57 191.06,294.49 194.00,295.23 196.88,295.65 199.82,295.62 203.19,295.06 206.60,293.97 209.84,292.40 213.18,289.95 216.31,286.90 218.90,283.67 220.63,280.86 221.95,277.90 222.98,274.62 224.13,267.76 224.39,259.62 221.11,227.70 221.15,216.23 222.17,210.34 223.66,205.11 224.85,202.49 226.21,200.25 229.52,195.86 233.46,192.11 235.53,190.50 237.91,189.00 242.50,186.81 247.65,184.87 257.73,182.45 278.91,180.43 301.11,181.71 312.18,183.57 323.21,186.23 331.12,189.87 338.11,193.86 342.55,197.28 350.42,205.37 357.28,214.73 360.03,219.68 362.45,225.10 367.22,241.44 367.92,247.30 367.92,258.10 367.11,268.72 365.08,278.68 358.88,298.44 343.71,328.96 337.37,338.62 330.18,348.00 322.20,356.79 313.34,364.62 303.49,371.05 292.86,376.39 281.61,380.64 269.74,383.19 260.00,384.48 250.17,384.92 228.04,384.22 204.16,379.81 192.43,376.54 169.82,367.41 159.07,361.67 129.73,341.07 97.48,312.26 62.01,270.81 56.26,262.02 47.17,242.85 43.86,232.82 41.61,222.73 40.00,202.54 40.39,191.44 50.79,129.18 62.62,88.63 66.80,78.88 71.79,69.68 76.54,63.44 81.86,57.66 86.08,54.11 90.48,51.16 95.26,48.59 100.27,46.52 105.71,45.04 110.79,44.10 116.17,43.73 127.02,44.62 201.69,56.59 212.67,56.11 267.75,45.67 303.18,40.00 335.12,40.31 462.61,50.18"
        fill="none"
        stroke="#e94560"
        stroke-width="8.0"
        stroke-linejoin="round"
        stroke-linecap="round"/>
  <!-- Start/finish line -->
  <line x1="464.16" y1="30.24" x2="461.06" y2="70.12"
        stroke="#f5f5f5" stroke-width="9.6"
        stroke-linecap="round"/>
</svg>
