<?xml version="1.0" encoding="utf-8"?>
<svg xmlns="http://www.w3.org/2000/svg"
     width="800.0" height="531.8"
     viewBox="0 0 800.0 531.8">
  <rect width="100%" height="100%" fill="#1a1a2e"/>
  <!-- Track outline -->
  <polyline points="379.18,40.28 349.18,40.00 289.12,43.86 232.76,52.13 198.94,61.97 168.26,76.03 132.18,100.58 100.31,128.80 82.08,149.20 67.49,171.72 52.02,207.30 41.88,244.89 40.00,275.69 42.00,301.24 43.69,309.33 46.26,316.41 50.96,326.98 57.91,338.93 77.20,365.58 102.25,393.34 134.06,417.89 164.62,436.73 189.11,447.49 242.53,461.82 371.66,491.52 393.02,491.79 414.62,489.68 554.15,470.56 601.31,453.55 639.26,433.79 677.52,406.58 705.08,379.65 728.56,352.71 735.89,342.24 741.53,331.39 751.23,307.40 758.43,282.85 760.00,271.46 759.87,260.06 756.81,236.34 751.55,212.63 747.47,200.49 741.90,188.73 728.69,166.39 712.28,144.33 697.50,129.71 680.47,116.48 651.03,97.54 622.04,81.92 597.99,73.00 452.39,40.92 379.18,40.28"
        fill="none"
        stroke="#e94560"
        stroke-width="8.0"
        stroke-linejoin="round"
        stroke-linecap="round"/>
  <!-- Start/finish line -->
  <line x1="379.00" y1="60.27" x2="379.36" y2="20.28"
        stroke="#f5f5f5" stroke-width="9.6"
        stroke-linecap="round"/>
</svg>
