<?xml version="1.0" encoding="utf-8"?>
<svg xmlns="http://www.w3.org/2000/svg"
     width="800.0" height="712.8"
     viewBox="0 0 800.0 712.8">
  <rect width="100%" height="100%" fill="#1a1a2e"/>
  <!-- Track outline -->
  <polyline points="556.69,463.89 628.90,385.12 716.37,278.40 746.46,226.85 752.06,213.89 755.91,201.34 758.78,184.59 760.00,167.19 759.95,150.97 758.25,135.11 754.59,120.14 749.04,105.87 741.64,92.56 732.53,80.42 721.63,69.53 709.35,60.18 695.72,52.37 681.11,46.33 665.67,42.43 649.80,40.36 633.53,40.00 617.17,41.30 599.98,43.49 583.37,48.88 556.73,65.51 526.64,87.70 486.76,112.50 434.79,134.82 408.21,142.57 380.40,148.19 351.47,151.21 322.11,151.68 175.92,141.56 158.53,143.75 144.31,147.60 129.36,152.87 115.09,159.56 102.04,167.49 89.87,176.54 78.67,186.43 68.63,197.32 60.36,209.15 53.39,221.82 47.60,235.26 43.31,249.34 40.78,264.61 40.00,280.30 40.83,296.45 43.31,312.55 47.55,328.71 53.25,344.51 59.72,359.13 68.63,374.76 94.44,411.28 123.13,444.18 131.84,451.40 140.03,456.61 148.65,459.75 154.34,460.70 160.43,460.99 166.52,460.52 172.31,459.28 177.43,457.20 182.05,454.07 186.48,449.87 190.38,444.95 193.40,439.74 195.35,434.54 195.98,427.73 194.96,420.45 192.91,413.17 190.28,406.42 183.46,395.59 174.16,384.70 153.90,363.87 134.13,342.56 126.20,330.66 120.40,318.71 114.95,303.56 111.78,287.81 111.49,277.87 112.41,267.93 114.80,258.63 118.70,250.29 123.96,242.48 130.19,235.67 137.64,229.69 146.16,224.78 155.12,220.99 169.78,217.74 185.12,216.91 217.85,222.00 343.58,248.75 357.46,249.70 370.81,248.81 413.51,242.12 456.12,232.53 484.13,221.82 548.36,182.93 613.42,146.42 625.01,142.87 634.70,141.39 643.86,141.74 650.53,143.04 657.05,145.29 663.14,148.37 668.35,152.22 672.68,157.01 676.39,162.75 679.21,169.09 681.21,175.54 682.33,185.24 681.74,195.54 679.84,205.48 674.29,219.10 666.79,231.88 650.92,253.78 610.98,298.70 552.84,373.28 528.49,396.78 515.54,406.30 501.95,414.35 488.51,420.63 474.68,425.30 461.04,428.26 447.07,429.21 430.70,427.14 414.88,422.64 402.65,416.72 391.50,409.32 370.46,390.15 351.57,368.72 331.60,348.54 322.64,342.26 313.78,337.53 304.62,334.93 297.22,334.51 289.43,335.28 281.93,337.23 275.16,340.25 270.20,343.68 265.42,348.01 261.19,353.04 257.68,358.36 255.15,363.81 253.59,370.79 253.35,378.31 254.17,385.94 255.59,393.22 258.51,402.16 262.79,410.74 268.00,418.97 278.43,430.93 291.14,442.94 313.68,461.47 334.48,480.46 340.32,488.51 344.65,496.44 347.53,504.85 348.99,512.01 349.72,519.70 349.38,527.22 347.72,534.15 345.14,539.41 341.54,544.62 337.20,549.42 332.43,553.50 327.51,556.58 321.18,558.71 314.22,559.60 307.06,559.60 300.05,559.18 286.95,556.10 273.70,552.73 263.52,551.72 253.05,551.61 243.36,553.32 237.08,555.93 231.04,559.42 225.73,563.80 221.45,568.89 218.14,575.58 215.95,583.51 214.78,591.73 214.68,599.55 216.19,608.60 219.31,617.36 223.45,625.77 231.63,638.14 242.00,649.15 255.15,658.91 269.56,666.37 282.61,670.39 295.96,672.35 310.13,672.76 324.40,671.34 339.05,668.03 353.47,662.94 367.83,656.01 381.71,647.49 408.30,625.77 556.69,463.89"
        fill="none"
        stroke="#e94560"
        stroke-width="8.0"
        stroke-linejoin="round"
        stroke-linecap="round"/>
  <!-- Start/finish line -->
  <line x1="541.94" y1="450.38" x2="571.43" y2="477.41"
        stroke="#f5f5f5" stroke-width="9.6"
        stroke-linecap="round"/>
</svg>
