<?xml version="1.0" encoding="utf-8"?>
<svg xmlns="http://www.w3.org/2000/svg"
     width="796.0" height="800.0"
     viewBox="0 0 796.0 800.0">
  <rect width="100%" height="100%" fill="#1a1a2e"/>
  <!-- Track outline -->
  <polyline points="461.46,299.49 409.13,262.05 265.86,165.39 113.53,62.61 98.92,54.19 85.45,46.68 74.07,41.68 63.98,40.00 53.78,43.04 48.54,47.72 43.87,54.33 41.10,60.95 40.00,68.93 41.39,77.75 44.97,84.66 49.64,90.71 57.38,97.33 65.56,104.19 111.31,136.41 246.80,233.88 285.79,269.33 343.51,325.05 369.91,343.63 397.03,358.90 452.32,380.41 477.05,393.66 500.62,411.36 521.17,434.03 534.66,460.24 537.90,478.54 537.09,489.92 533.83,502.13 529.22,512.37 524.66,517.11 520.11,520.56 516.39,522.83 512.19,524.56 503.65,526.57 494.69,527.43 488.90,526.84 483.72,525.41 479.69,523.62 475.93,521.19 471.08,517.11 466.74,512.22 463.60,507.02 461.29,501.11 459.78,492.58 459.03,483.06 458.90,470.49 458.30,458.37 456.45,450.92 453.79,444.39 450.61,438.71 446.95,433.97 443.88,431.28 440.49,429.23 436.15,427.29 431.51,426.00 426.92,425.63 422.34,426.00 417.94,427.19 414.05,428.83 412.10,429.87 410.25,431.31 407.38,434.07 404.22,437.71 401.54,441.83 398.69,449.32 396.78,459.24 393.35,501.20 393.08,543.71 394.54,554.47 397.09,563.27 400.90,572.42 406.01,581.11 413.20,590.08 421.72,598.04 431.20,604.49 441.49,609.44 452.29,612.65 463.52,614.23 475.22,614.19 486.88,612.52 498.35,609.15 509.33,604.22 519.43,598.19 529.11,590.08 542.62,572.23 555.43,553.09 572.55,531.29 578.54,525.51 584.65,520.89 590.99,517.34 597.66,514.74 604.77,513.26 611.69,512.74 616.45,512.93 621.29,513.82 630.00,516.59 639.08,520.81 647.60,526.59 655.79,533.77 665.41,544.07 674.23,555.47 681.04,566.32 686.70,577.62 691.37,589.54 694.78,601.64 696.78,612.90 697.24,623.96 695.61,634.59 692.54,644.47 688.82,652.00 684.58,658.28 681.52,661.65 678.24,664.42 674.25,667.17 669.90,669.50 665.58,671.24 660.61,672.49 638.37,673.66 630.89,673.68 623.95,674.28 617.26,676.57 611.04,679.90 605.68,683.81 601.07,688.51 598.47,692.15 596.29,696.14 594.60,700.34 593.09,707.23 592.73,714.32 593.54,721.39 595.43,728.24 598.22,734.44 602.17,740.28 606.45,744.94 611.54,749.41 616.84,753.11 624.10,756.59 631.95,758.75 642.41,760.00 653.61,759.54 666.72,756.51 679.55,751.53 690.36,745.59 700.25,738.33 709.19,729.96 717.83,719.77 731.78,700.28 744.04,678.21 750.71,657.93 754.52,638.09 756.01,622.78 755.68,608.01 753.54,593.14 749.24,578.08 740.51,558.79 728.95,539.82 715.77,523.33 699.48,506.60 627.92,445.22 525.64,345.38 461.46,299.49"
        fill="none"
        stroke="#e94560"
        stroke-width="8.0"
        stroke-linejoin="round"
        stroke-linecap="round"/>
  <!-- Start/finish line -->
  <line x1="449.83" y1="315.76" x2="473.09" y2="283.22"
        stroke="#f5f5f5" stroke-width="9.6"
        stroke-linecap="round"/>
</svg>
