<?xml version="1.0" encoding="utf-8"?>
<svg xmlns="http://www.w3.org/2000/svg"
     width="800.0" height="768.3"
     viewBox="0 0 800.0 768.3">
  <rect width="100%" height="100%" fill="#1a1a2e"/>
  <!-- Track outline -->
  <polyline points="522.25,545.97 542.30,528.13 582.87,490.36 669.27,396.24 704.78,350.53 727.73,318.76 746.26,285.64 752.08,270.68 756.30,255.02 759.04,235.76 760.00,216.30 759.44,200.44 757.49,185.13 754.20,169.74 749.22,154.35 740.61,135.37 729.75,116.98 716.83,100.13 702.07,85.06 684.17,71.17 665.39,59.81 649.55,52.48 633.26,47.11 613.31,42.71 593.04,40.30 575.32,40.00 557.99,41.58 540.75,45.12 523.84,50.47 507.27,57.50 491.61,66.11 466.63,85.87 262.99,276.95 72.57,471.32 62.37,485.56 50.23,511.60 44.25,531.79 41.31,550.89 40.00,571.12 41.09,587.22 43.52,602.21 46.05,613.88 49.77,625.38 57.61,642.45 67.54,659.28 79.28,674.21 90.72,686.38 101.37,695.47 114.41,704.32 129.57,712.85 145.23,719.33 161.50,724.09 179.83,727.01 196.03,728.28 207.08,728.12 241.31,722.17 251.99,718.60 278.73,706.47 378.86,650.61 434.92,613.43 522.25,545.97"
        fill="none"
        stroke="#e94560"
        stroke-width="8.0"
        stroke-linejoin="round"
        stroke-linecap="round"/>
  <!-- Start/finish line -->
  <line x1="509.81" y1="530.31" x2="534.69" y2="561.63"
        stroke="#f5f5f5" stroke-width="9.6"
        stroke-linecap="round"/>
</svg>
