<?xml version="1.0" encoding="utf-8"?>
<svg xmlns="http://www.w3.org/2000/svg"
     width="504.2" height="800.0"
     viewBox="0 0 504.2 800.0">
  <rect width="100%" height="100%" fill="#1a1a2e"/>
  <!-- Track outline -->
  <polyline points="41.55,387.61 40.07,407.81 40.00,552.48 44.31,590.50 52.39,623.02 65.84,650.05 82.54,673.72 101.08,695.00 121.28,713.37 142.21,728.64 164.73,740.91 192.71,750.94 221.32,757.30 245.24,760.00 269.45,759.39 300.56,754.20 331.38,744.68 356.00,732.92 379.15,717.40 403.74,695.20 425.48,670.06 439.09,649.44 449.81,627.81 457.92,603.58 462.97,582.71 464.15,572.58 463.56,217.54 461.09,196.32 456.70,179.88 446.38,155.75 432.04,132.23 409.93,106.94 384.90,84.95 361.35,68.76 336.80,56.34 309.82,47.38 282.13,42.09 255.12,40.00 227.80,41.48 197.21,47.53 168.02,57.26 147.37,67.03 127.87,80.06 102.33,103.42 80.03,129.23 69.78,144.65 62.45,160.38 58.36,175.35 55.48,194.74 41.55,387.61"
        fill="none"
        stroke="#e94560"
        stroke-width="8.0"
        stroke-linejoin="round"
        stroke-linecap="round"/>
  <!-- Start/finish line -->
  <line x1="61.50" y1="389.05" x2="21.60" y2="386.16"
        stroke="#f5f5f5" stroke-width="9.6"
        stroke-linecap="round"/>
</svg>
