<?xml version="1.0" encoding="utf-8"?>
<svg xmlns="http://www.w3.org/2000/svg"
     width="594.3" height="800.0"
     viewBox="0 0 594.3 800.0">
  <rect width="100%" height="100%" fill="#1a1a2e"/>
  <!-- Track outline -->
  <polyline points="433.99,475.19 539.13,263.23 548.34,236.24 554.30,199.07 552.26,173.46 545.35,144.45 533.02,119.13 517.60,96.40 498.10,76.49 468.62,57.90 431.44,42.65 394.09,40.00 358.06,47.31 323.26,66.24 294.59,91.05 280.92,111.42 54.53,560.36 44.08,593.45 40.00,624.13 42.13,648.01 54.66,677.65 73.58,703.14 102.16,728.00 129.76,743.89 160.12,756.26 191.76,760.00 222.67,757.47 257.91,743.83 280.95,729.44 308.06,702.91 323.71,681.96 330.46,669.59 432.08,478.99 433.99,475.19"
        fill="none"
        stroke="#e94560"
        stroke-width="8.0"
        stroke-linejoin="round"
        stroke-linecap="round"/>
  <!-- Start/finish line -->
  <line x1="416.07" y1="466.30" x2="451.90" y2="484.08"
        stroke="#f5f5f5" stroke-width="9.6"
        stroke-linecap="round"/>
</svg>
