<?xml version="1.0" encoding="utf-8"?>
<svg xmlns="http://www.w3.org/2000/svg"
     width="800.0" height="689.0"
     viewBox="0 0 800.0 689.0">
  <rect width="100%" height="100%" fill="#1a1a2e"/>
  <!-- Track outline -->
  <polyline points="54.59,295.88 57.15,279.09 60.20,238.07 63.50,196.81 67.46,175.98 73.14,155.78 80.83,137.09 90.23,119.75 100.97,103.99 113.42,90.05 129.59,77.38 147.04,66.93 163.52,58.85 180.55,52.51 219.54,43.72 263.24,40.00 310.35,41.19 346.48,46.34 471.52,75.48 563.68,101.85 624.76,126.16 642.46,136.38 655.03,147.55 667.36,162.83 678.16,179.78 694.70,212.33 751.64,364.47 756.77,387.83 759.08,408.10 760.00,428.85 759.08,449.36 756.28,469.24 751.33,488.80 743.34,509.87 732.60,529.51 717.83,546.85 701.23,561.90 668.52,585.74 629.04,608.39 587.78,628.42 546.65,641.73 527.18,646.16 507.59,648.62 486.17,649.02 465.18,645.69 452.12,640.78 439.55,633.81 428.99,624.86 423.13,617.42 418.06,608.94 414.16,599.83 411.84,590.49 411.29,580.75 412.27,570.29 414.59,560.16 418.19,551.05 426.49,539.57 437.65,529.83 449.43,521.67 467.98,512.80 487.27,506.54 522.91,497.59 542.13,491.10 560.99,482.70 578.93,471.46 595.35,457.84 608.53,443.42 619.82,427.11 626.53,414.75 632.33,401.53 635.99,387.99 637.21,375.16 636.60,362.09 633.98,349.66 629.89,339.76 624.28,330.01 617.56,321.22 610.24,314.10 601.88,308.47 592.48,304.36 582.72,301.82 573.13,301.11 563.37,302.61 553.36,306.10 543.78,311.09 535.36,317.11 527.12,325.90 520.16,336.35 513.69,347.60 504.91,367.00 495.93,386.24 484.83,402.16 472.13,416.42 456.08,430.44 438.69,442.47 421.18,452.53 402.93,459.74 389.44,462.59 375.47,463.78 362.10,462.67 350.08,459.42 338.55,454.19 328.23,446.99 319.69,438.20 312.18,427.66 306.75,416.18 303.58,404.06 302.23,391.07 302.97,378.32 306.57,364.86 312.61,351.64 319.81,339.76 332.50,325.66 346.72,313.23 377.73,286.69 387.18,275.69 395.91,263.73 402.26,250.82 405.55,238.15 406.90,224.68 406.10,211.54 402.26,197.44 395.85,183.66 388.28,171.31 379.98,160.93 370.52,151.90 360.39,144.06 349.10,137.01 337.02,131.31 324.69,127.27 311.94,124.98 298.88,124.26 286.00,125.06 267.08,128.86 248.90,135.83 232.36,145.49 217.35,157.84 204.77,172.18 194.58,188.73 187.56,207.34 183.29,227.61 182.25,249.16 183.54,272.68 192.93,346.57 193.97,390.12 193.54,409.84 190.98,428.85 186.77,442.08 180.85,454.91 173.47,465.99 166.27,473.36 157.90,479.69 148.99,484.84 139.90,488.80 130.56,491.50 120.74,493.00 110.97,493.16 101.52,491.97 92.67,489.44 83.88,485.63 75.58,480.65 68.01,474.63 59.22,464.65 51.53,452.69 45.13,440.33 41.34,425.45 40.00,406.52 41.95,388.14 44.58,370.40 48.54,342.21 51.78,314.65 54.59,295.88"
        fill="none"
        stroke="#e94560"
        stroke-width="8.0"
        stroke-linejoin="round"
        stroke-linecap="round"/>
  <!-- Start/finish line -->
  <line x1="34.81" y1="292.89" x2="74.36" y2="298.87"
        stroke="#f5f5f5" stroke-width="9.6"
        stroke-linecap="round"/>
</svg>
