<?xml version="1.0" encoding="utf-8"?>
<svg xmlns="http://www.w3.org/2000/svg"
     width="800.0" height="637.5"
     viewBox="0 0 800.0 637.5">
  <rect width="100%" height="100%" fill="#1a1a2e"/>
  <!-- Track outline -->
  <polyline points="403.69,60.74 212.24,40.04 181.71,40.00 158.16,42.70 137.02,47.73 118.49,54.76 107.45,60.78 97.96,68.22 92.06,74.31 86.65,81.19 82.36,88.67 79.52,96.60 77.59,105.07 77.84,113.09 79.55,121.27 84.69,131.12 90.71,139.71 100.17,149.16 110.05,156.03 134.64,165.60 166.11,177.99 181.31,185.60 187.58,190.35 193.43,196.40 200.40,207.03 205.91,217.75 207.59,222.08 208.66,226.09 209.45,230.26 209.85,234.48 209.82,238.73 209.42,242.94 208.72,247.20 207.41,251.53 203.98,258.12 199.36,264.50 193.61,270.22 186.73,275.09 176.45,279.92 164.00,283.64 138.43,286.71 113.04,290.18 101.33,294.52 91.36,300.28 82.61,307.40 74.63,316.44 65.85,329.00 58.08,346.66 45.78,415.54 40.00,488.14 40.95,513.00 44.44,532.67 48.72,545.11 54.44,555.70 62.05,565.88 71.02,574.72 81.78,582.57 94.08,588.79 111.36,594.23 131.95,597.54 219.18,595.78 453.12,591.45 472.75,586.46 487.25,579.71 498.72,572.39 508.57,563.39 516.58,552.96 522.92,541.06 527.23,528.30 529.58,514.80 529.77,500.57 527.84,486.46 524.02,473.74 517.53,460.69 495.51,432.80 470.86,404.25 445.74,368.55 439.87,355.99 436.05,343.51 434.49,330.84 434.03,322.33 434.73,316.77 436.02,312.23 439.38,303.76 444.03,295.09 448.92,288.46 454.86,282.66 465.04,275.91 475.96,270.80 483.61,268.51 491.47,267.40 503.43,267.20 516.00,268.71 528.12,272.35 539.74,277.83 550.51,285.15 560.02,293.54 565.86,299.92 571.06,307.52 578.95,322.66 585.77,341.06 590.15,363.96 592.93,390.79 598.59,496.03 603.24,518.40 610.00,536.72 616.21,547.56 623.55,557.26 631.29,565.31 638.29,570.92 645.63,575.17 653.16,578.32 661.17,580.32 669.37,581.14 676.99,581.06 684.79,579.79 692.03,577.17 699.50,573.33 706.78,567.77 715.71,557.95 723.54,546.05 728.77,534.02 732.17,520.40 733.85,501.63 732.69,479.18 706.96,369.12 697.48,316.48 697.26,295.50 699.62,276.24 703.96,261.80 710.88,247.77 730.21,223.47 749.23,198.98 755.66,183.88 759.14,169.81 760.00,160.12 759.42,150.96 757.28,141.43 754.31,132.96 752.38,128.51 749.72,124.29 740.33,113.82 728.40,103.84 717.58,97.95 703.63,93.62 558.70,77.46 403.69,60.74"
        fill="none"
        stroke="#e94560"
        stroke-width="8.0"
        stroke-linejoin="round"
        stroke-linecap="round"/>
  <!-- Start/finish line -->
  <line x1="401.54" y1="80.62" x2="405.83" y2="40.85"
        stroke="#f5f5f5" stroke-width="9.6"
        stroke-linecap="round"/>
</svg>
