<?xml version="1.0" encoding="utf-8"?>
<svg xmlns="http://www.w3.org/2000/svg"
     width="800.0" height="648.3"
     viewBox="0 0 800.0 648.3">
  <rect width="100%" height="100%" fill="#1a1a2e"/>
  <!-- Track outline -->
  <polyline points="392.46,58.38 231.83,45.13 166.25,40.00 146.28,41.83 128.32,45.96 112.80,51.96 98.75,59.88 87.78,68.42 78.30,78.55 70.89,89.13 64.81,102.38 58.39,129.72 53.62,166.06 43.65,273.87 40.00,374.09 42.34,392.72 46.51,406.60 51.81,418.14 58.89,428.27 70.73,439.14 85.00,449.19 106.60,461.23 127.58,474.03 139.08,484.82 149.30,498.49 165.16,533.37 181.18,567.71 188.16,576.71 195.24,583.46 203.28,589.33 215.03,595.79 228.27,600.92 242.11,604.75 267.01,608.17 291.51,608.25 309.06,606.13 324.80,601.96 336.58,596.96 346.99,590.29 352.81,585.08 358.14,579.08 362.54,572.46 365.78,565.54 368.21,558.04 369.68,550.37 370.08,542.54 369.49,534.53 367.96,526.95 365.44,520.12 361.91,513.70 357.12,506.74 335.30,484.40 309.52,457.86 283.28,420.43 262.12,384.09 255.08,368.63 250.84,354.67 249.28,342.76 249.44,331.63 250.81,323.63 253.24,316.17 256.89,307.92 261.59,300.33 267.67,293.79 274.56,288.46 282.38,284.20 289.95,281.25 294.10,280.00 298.55,279.41 306.16,279.41 315.32,280.33 324.42,282.58 333.80,286.87 343.09,292.62 351.44,299.08 359.58,306.83 367.71,317.83 425.99,438.44 455.57,499.32 461.30,506.74 466.94,512.36 472.62,516.82 480.41,520.95 487.73,523.49 492.13,524.57 496.24,525.03 500.64,524.91 505.00,524.32 509.02,523.37 512.88,522.03 516.50,520.28 519.96,518.12 523.17,515.57 526.19,512.61 529.06,509.49 531.58,505.53 534.39,496.95 536.07,487.99 536.26,483.69 535.95,479.82 535.45,476.07 534.26,472.03 529.37,462.61 521.45,451.36 466.98,396.26 434.87,359.97 428.14,348.63 423.53,337.75 421.16,328.96 420.20,320.25 420.85,311.25 422.50,303.12 423.84,298.75 425.77,294.71 430.51,287.54 436.37,280.58 442.20,275.16 448.87,270.70 459.59,265.99 471.40,262.95 483.68,262.20 496.09,263.41 508.33,266.45 520.24,271.29 531.40,277.79 541.74,285.95 550.56,295.00 558.29,305.87 565.68,320.71 571.32,338.05 576.00,386.60 583.79,508.16 589.21,529.16 595.72,545.41 601.15,556.00 607.54,565.04 613.58,571.62 620.41,577.62 627.73,582.63 635.96,586.58 644.72,589.42 653.51,591.04 662.20,591.46 670.96,590.75 679.28,588.92 686.48,586.25 693.34,582.63 699.72,578.08 705.55,572.71 710.91,566.46 715.46,559.58 718.99,552.79 721.73,545.41 723.44,536.49 721.51,506.49 716.27,467.44 702.00,282.08 703.09,267.54 705.62,256.28 709.73,244.49 715.90,232.36 734.60,207.98 752.58,183.15 756.32,174.27 758.69,165.81 759.91,157.27 760.00,148.43 759.00,139.47 756.98,130.97 753.64,122.64 749.15,114.76 743.98,107.68 737.81,101.13 730.86,95.47 723.26,90.67 709.95,84.92 692.53,80.76 525.94,67.05 409.60,59.54 401.34,59.13 392.46,58.38"
        fill="none"
        stroke="#e94560"
        stroke-width="8.0"
        stroke-linejoin="round"
        stroke-linecap="round"/>
  <!-- Start/finish line -->
  <line x1="390.81" y1="78.31" x2="394.10" y2="38.45"
        stroke="#f5f5f5" stroke-width="9.6"
        stroke-linecap="round"/>
</svg>
