<?xml version="1.0" encoding="utf-8"?>
<svg xmlns="http://www.w3.org/2000/svg"
     width="569.4" height="800.0"
     viewBox="0 0 569.4 800.0">
  <rect width="100%" height="100%" fill="#1a1a2e"/>
  <!-- Track outline -->
  <polyline points="526.60,365.00 523.12,322.82 509.62,238.66 497.02,199.87 480.76,163.83 458.83,129.37 437.58,102.53 430.36,95.11 422.64,89.11 399.31,73.97 374.65,60.25 352.40,51.55 301.03,41.33 276.05,40.00 253.61,41.08 228.24,44.77 191.84,55.88 159.14,68.86 148.55,73.82 138.71,79.87 115.24,97.62 93.02,117.18 84.91,126.28 78.59,134.93 69.83,150.02 49.26,207.49 43.66,234.77 40.00,273.36 42.05,505.40 52.38,570.00 63.66,600.38 79.27,632.87 97.97,665.37 114.23,686.60 130.35,703.47 152.39,719.64 174.11,732.18 195.57,741.91 219.80,750.56 247.62,756.51 274.15,759.61 289.15,760.00 304.19,758.82 359.47,748.00 381.94,739.80 406.10,728.19 417.66,720.87 429.97,711.23 456.28,686.16 480.47,659.17 494.54,635.87 504.49,614.73 512.60,588.09 528.03,498.22 529.40,430.53 527.64,377.73 526.60,365.00"
        fill="none"
        stroke="#e94560"
        stroke-width="8.0"
        stroke-linejoin="round"
        stroke-linecap="round"/>
  <!-- Start/finish line -->
  <line x1="506.67" y1="366.64" x2="546.53" y2="363.36"
        stroke="#f5f5f5" stroke-width="9.6"
        stroke-linecap="round"/>
</svg>
