<?xml version="1.0" encoding="utf-8"?>
<svg xmlns="http://www.w3.org/2000/svg"
     width="505.6" height="800.0"
     viewBox="0 0 505.6 800.0">
  <rect width="100%" height="100%" fill="#1a1a2e"/>
  <!-- Track outline -->
  <polyline points="299.41,381.70 164.53,375.57 155.68,376.33 147.75,377.84 140.47,380.20 133.57,383.34 126.97,387.26 120.81,391.88 115.10,397.21 109.98,403.14 105.47,409.66 101.66,416.62 98.59,423.94 96.26,431.63 94.66,439.74 93.82,448.78 95.03,482.44 99.97,538.14 101.67,570.40 101.06,584.01 98.79,596.26 94.80,608.01 84.61,628.75 77.83,645.68 76.21,653.14 75.47,660.54 75.54,668.01 76.46,675.37 78.14,682.24 80.86,689.23 101.21,721.10 102.75,724.51 103.79,727.80 104.44,731.25 104.65,734.74 104.37,738.29 103.63,741.72 102.50,744.79 100.99,747.65 99.05,750.33 96.77,752.76 94.14,754.90 91.25,756.71 88.09,758.17 84.81,759.23 81.71,759.82 78.53,760.00 74.91,759.72 71.27,758.99 67.73,757.80 64.34,756.17 61.14,754.12 58.19,751.68 55.52,748.84 53.18,745.70 51.15,742.29 49.44,738.61 47.99,734.41 46.85,729.72 45.13,714.40 42.60,638.54 40.32,526.02 40.21,516.58 40.06,507.24 40.00,499.05 40.16,493.07 40.72,490.35 40.82,490.35 40.92,490.39 41.02,490.43 41.11,490.44 41.43,489.49 41.58,485.17 41.82,479.69 50.45,430.16 71.21,366.51 127.30,219.80 132.66,209.02 135.37,204.97 138.27,201.41 140.93,198.76 143.82,196.46 147.30,194.24 150.97,192.42 154.36,191.19 157.86,190.38 161.86,189.92 165.96,189.92 170.09,190.43 174.19,191.39 182.29,194.64 206.53,207.10 212.01,208.95 216.91,209.93 221.26,210.23 225.42,209.94 229.14,209.12 232.63,207.80 235.84,205.96 238.80,203.66 241.63,200.77 244.17,197.41 246.71,193.05 248.75,188.32 250.06,183.66 250.77,178.57 249.90,161.89 246.98,140.73 246.66,128.38 247.16,124.36 248.05,120.71 249.25,117.48 250.80,114.46 252.73,111.61 254.98,108.99 257.54,106.64 260.37,104.61 263.42,102.91 266.71,101.56 270.43,100.52 274.65,99.85 289.98,99.72 308.18,99.26 314.46,98.07 320.33,96.18 326.32,93.33 332.37,89.39 350.52,72.27 361.64,61.08 371.69,53.48 381.76,48.18 394.67,43.59 406.19,41.06 419.11,40.00 429.09,40.63 433.36,41.49 437.37,42.72 440.76,44.18 443.95,46.01 447.22,48.45 450.26,51.28 452.96,54.39 455.36,57.83 457.59,61.85 459.51,66.26 462.73,77.46 464.41,90.73 465.59,160.22 464.78,183.67 462.66,200.85 459.18,215.53 454.22,228.60 447.58,240.80 426.76,271.67 423.08,279.26 420.60,286.27 419.02,292.82 418.23,299.41 418.24,306.48 419.11,313.55 420.76,320.16 423.47,327.03 437.61,350.03 445.18,363.47 450.37,376.38 453.27,388.59 453.86,393.92 453.98,399.04 453.68,403.42 452.99,407.58 451.98,411.28 450.60,414.78 448.86,418.08 446.78,421.15 444.40,423.89 441.69,426.34 438.47,428.63 435.00,430.54 431.40,431.97 427.70,432.97 424.00,433.51 420.34,433.61 417.11,433.28 414.01,432.54 410.98,431.39 408.14,429.83 405.61,427.94 403.23,425.62 397.74,417.85 388.14,403.46 384.03,399.19 379.52,395.61 373.82,392.19 367.36,389.35 359.32,386.91 349.42,385.05 299.41,381.70 299.41,381.70"
        fill="none"
        stroke="#e94560"
        stroke-width="8.0"
        stroke-linejoin="round"
        stroke-linecap="round"/>
  <!-- Start/finish line -->
  <line x1="298.50" y1="401.68" x2="300.32" y2="361.72"
        stroke="#f5f5f5" stroke-width="9.6"
        stroke-linecap="round"/>
</svg>
