<?xml version="1.0" encoding="utf-8"?>
<svg xmlns="http://www.w3.org/2000/svg"
     width="800.0" height="758.1"
     viewBox="0 0 800.0 758.1">
  <rect width="100%" height="100%" fill="#1a1a2e"/>
  <!-- Track outline -->
  <polyline points="191.60,270.03 186.26,274.46 126.48,323.53 88.27,362.79 79.15,373.91 71.40,385.95 61.75,406.84 53.39,431.48 45.38,466.56 40.63,500.25 40.00,515.43 41.37,530.29 47.86,559.41 58.35,589.83 72.35,617.09 88.90,641.25 104.99,659.22 123.06,674.38 147.64,689.17 173.59,701.07 196.08,709.49 218.60,715.26 242.13,718.10 265.84,718.10 289.14,715.31 312.63,709.60 339.89,699.15 365.97,686.36 401.96,663.54 674.11,435.52 711.91,393.44 724.77,375.58 735.81,356.30 746.54,330.24 754.60,302.35 758.93,276.38 760.00,250.35 757.04,224.02 751.16,198.80 744.13,177.93 734.85,158.12 720.03,134.52 703.70,113.03 692.22,99.41 679.10,87.37 648.61,69.12 618.96,54.55 601.67,47.19 584.50,42.81 564.27,40.06 533.68,40.00 502.07,43.87 475.94,51.73 451.75,62.29 414.96,84.78 191.60,270.03"
        fill="none"
        stroke="#e94560"
        stroke-width="8.0"
        stroke-linejoin="round"
        stroke-linecap="round"/>
  <!-- Start/finish line -->
  <line x1="204.37" y1="285.42" x2="178.83" y2="254.63"
        stroke="#f5f5f5" stroke-width="9.6"
        stroke-linecap="round"/>
</svg>
