<?xml version="1.0" encoding="utf-8"?>
<svg xmlns="http://www.w3.org/2000/svg"
     width="800.0" height="694.4"
     viewBox="0 0 800.0 694.4">
  <rect width="100%" height="100%" fill="#1a1a2e"/>
  <!-- Track outline -->
  <polyline points="616.90,233.70 608.40,241.24 598.61,247.57 583.63,255.38 567.31,261.58 551.76,264.73 536.67,265.97 525.17,265.70 514.08,264.37 490.71,259.28 467.16,250.28 444.31,237.16 428.17,224.75 414.00,210.08 402.17,193.76 392.01,177.54 388.97,171.60 386.70,165.62 380.21,139.60 376.58,114.16 371.72,88.71 367.90,78.43 363.37,69.25 358.03,61.28 352.58,55.11 346.42,49.88 339.89,45.72 333.29,42.84 326.28,40.98 319.05,40.00 311.00,40.13 302.69,41.37 294.34,43.59 280.02,49.66 266.45,58.17 254.39,69.52 245.05,80.69 239.67,89.51 235.22,98.02 230.95,108.57 225.68,130.16 222.83,152.19 223.38,163.49 225.35,173.82 232.62,195.94 242.41,215.48 266.97,251.03 302.50,293.32 311.44,300.10 354.54,325.94 377.61,335.74 450.13,354.89 520.42,374.52 530.36,379.35 537.41,384.41 541.67,388.13 545.46,392.30 548.83,397.17 552.84,405.28 556.18,414.68 558.22,423.81 558.66,431.13 558.11,438.31 556.62,445.18 554.06,451.91 550.58,458.34 546.68,463.84 541.64,468.94 536.04,472.97 529.55,476.34 522.83,478.78 517.30,479.88 511.81,480.42 500.32,480.55 475.69,478.38 454.32,474.34 406.95,461.40 357.51,443.14 331.40,431.30 305.10,416.41 281.03,400.67 203.95,339.90 187.55,330.55 174.13,324.52 168.08,322.35 162.07,320.93 150.09,319.47 138.04,319.16 131.66,319.74 125.42,321.11 114.00,325.01 103.06,329.80 98.20,332.59 93.34,336.05 78.72,347.62 63.48,362.33 52.54,377.49 44.60,393.01 41.30,403.91 40.00,415.17 40.56,431.79 43.45,448.06 47.57,458.78 52.43,467.65 55.28,472.13 58.88,476.43 70.86,487.51 84.03,497.79 89.18,501.12 95.97,504.35 322.64,583.38 535.15,647.34 577.73,653.28 600.84,654.44 623.02,653.20 639.97,648.94 654.73,642.65 664.64,636.04 672.57,629.08 680.10,620.62 686.33,611.17 688.82,606.21 690.93,600.54 693.42,589.68 694.94,578.37 694.87,565.03 688.52,445.09 692.08,392.08 696.24,367.30 703.25,344.16 713.00,321.78 733.26,287.60 752.77,251.34 758.07,233.52 760.00,216.81 759.63,204.54 757.89,192.12 754.96,180.82 751.62,172.62 747.43,165.17 742.49,158.53 736.89,152.81 730.55,147.84 723.95,143.94 717.64,141.55 711.11,140.09 705.10,139.42 701.13,139.47 697.50,139.95 693.86,141.02 687.04,144.47 680.88,148.69 677.84,151.17 674.61,154.49 632.74,209.28 624.58,222.62 616.90,233.70"
        fill="none"
        stroke="#e94560"
        stroke-width="8.0"
        stroke-linejoin="round"
        stroke-linecap="round"/>
  <!-- Start/finish line -->
  <line x1="632.00" y1="246.82" x2="601.80" y2="220.59"
        stroke="#f5f5f5" stroke-width="9.6"
        stroke-linecap="round"/>
</svg>
