<?xml version="1.0" encoding="utf-8"?>
<svg xmlns="http://www.w3.org/2000/svg"
     width="520.0" height="800.0"
     viewBox="0 0 520.0 800.0">
  <rect width="100%" height="100%" fill="#1a1a2e"/>
  <!-- Track outline -->
  <polyline points="461.14,609.68 460.16,621.77 455.41,643.98 448.92,666.42 439.91,687.84 433.86,697.97 426.93,707.57 410.42,725.25 394.82,737.83 382.13,745.56 368.65,752.14 357.62,755.82 347.47,758.27 335.41,760.00 312.32,759.64 289.76,756.67 267.87,751.78 226.63,736.58 170.05,709.03 119.70,680.38 110.19,672.47 103.83,665.53 100.17,661.22 97.02,656.47 91.89,646.47 87.57,636.08 85.87,630.70 84.86,625.28 84.17,616.35 84.51,607.15 85.90,600.04 88.45,593.11 93.56,584.31 100.49,574.89 115.17,559.16 128.34,542.72 130.73,537.08 132.27,531.52 133.03,526.06 133.03,520.68 131.61,513.48 128.87,506.46 125.69,500.55 122.35,496.38 117.91,492.47 100.52,480.20 82.47,466.83 75.60,459.50 70.75,452.25 68.57,447.90 67.00,443.41 66.12,438.52 66.15,431.28 67.19,423.51 68.76,416.80 70.75,411.95 73.17,407.78 79.19,399.51 94.97,383.69 110.51,367.47 113.69,362.76 115.86,357.97 119.26,346.15 121.06,333.31 120.30,324.15 118.38,315.84 116.65,310.42 113.69,304.07 55.69,208.31 46.71,186.23 41.70,163.97 40.00,141.66 40.79,124.56 43.06,107.58 45.99,96.39 49.99,86.21 55.41,76.12 61.23,67.37 64.57,63.11 68.38,59.33 76.32,53.02 85.68,47.33 95.67,43.42 106.22,40.98 117.40,40.00 128.71,40.53 140.06,42.71 151.11,46.31 161.86,51.29 172.00,57.51 181.64,65.24 190.37,73.68 203.03,89.14 214.81,110.43 222.69,132.38 227.64,154.64 234.82,198.18 240.33,213.38 247.70,226.40 253.56,233.15 260.24,239.02 267.20,243.73 273.69,246.93 280.44,249.24 287.21,250.61 293.95,251.06 300.72,250.70 307.34,249.50 313.96,247.28 320.41,244.17 326.30,240.57 333.33,234.93 339.47,228.18 345.81,218.84 350.97,209.34 355.45,197.92 369.50,150.86 372.21,145.09 375.54,140.15 380.74,133.98 387.26,127.45 394.16,122.11 400.56,118.69 407.27,116.25 414.07,114.87 421.16,114.78 428.28,115.67 434.11,116.87 437.42,117.94 440.35,119.31 444.54,121.49 449.01,124.47 456.76,131.22 463.88,138.73 467.09,142.86 469.74,147.44 473.84,156.90 477.21,167.75 479.22,178.99 480.04,190.54 478.15,214.71 454.97,333.04 453.64,364.94 454.56,401.87 465.58,555.74 461.14,609.68"
        fill="none"
        stroke="#e94560"
        stroke-width="8.0"
        stroke-linejoin="round"
        stroke-linecap="round"/>
  <!-- Start/finish line -->
  <line x1="481.07" y1="611.32" x2="441.21" y2="608.05"
        stroke="#f5f5f5" stroke-width="9.6"
        stroke-linecap="round"/>
</svg>
