<?xml version="1.0" encoding="utf-8"?>
<svg xmlns="http://www.w3.org/2000/svg"
     width="565.0" height="800.0"
     viewBox="0 0 565.0 800.0">
  <rect width="100%" height="100%" fill="#1a1a2e"/>
  <!-- Track outline -->
  <polyline points="271.02,44.66 366.97,63.67 397.07,70.94 430.99,82.50 461.39,98.34 486.76,120.14 503.56,142.51 516.86,168.79 524.96,196.38 524.80,228.25 521.29,259.19 514.26,283.23 501.27,302.06 487.22,315.10 470.41,321.81 453.45,324.24 440.00,323.30 424.42,318.83 414.34,312.87 407.92,303.55 402.57,287.14 398.14,268.88 390.04,251.73 376.75,237.94 361.93,227.87 340.84,219.30 315.33,214.83 293.48,213.15 274.23,215.76 259.56,223.22 249.78,233.84 240.00,248.00 231.60,271.12 176.44,504.47 172.16,525.72 169.87,544.54 170.94,561.32 174.30,574.36 180.87,583.12 190.04,590.20 200.28,595.61 213.11,598.59 224.57,599.15 241.84,595.98 259.41,588.71 346.34,515.84 364.37,503.54 380.11,497.20 393.86,494.22 409.90,494.40 423.50,496.45 434.96,500.37 445.20,507.82 455.44,517.14 461.24,529.82 464.14,543.98 465.06,557.77 463.08,572.87 458.49,587.78 448.71,604.74 420.91,634.56 364.07,682.65 318.99,715.64 285.84,735.21 257.11,748.63 228.85,756.46 201.65,760.00 171.86,758.14 146.95,753.85 119.15,744.16 96.07,731.86 77.74,717.13 59.56,693.09 45.04,662.71 40.00,628.79 40.76,586.48 50.39,521.24 120.37,205.88 129.84,176.43 144.20,139.90 160.86,106.91 177.66,81.94 193.25,64.23 206.24,50.81 216.47,44.85 228.85,40.93 237.40,40.00 271.02,44.66"
        fill="none"
        stroke="#e94560"
        stroke-width="8.0"
        stroke-linejoin="round"
        stroke-linecap="round"/>
  <!-- Start/finish line -->
  <line x1="274.61" y1="24.99" x2="267.42" y2="64.33"
        stroke="#f5f5f5" stroke-width="9.6"
        stroke-linecap="round"/>
</svg>
