<?xml version="1.0" encoding="utf-8"?>
<svg xmlns="http://www.w3.org/2000/svg"
     width="800.0" height="608.1"
     viewBox="0 0 800.0 608.1">
  <rect width="100%" height="100%" fill="#1a1a2e"/>
  <!-- Track outline -->
  <polyline points="249.81,75.45 232.98,64.70 211.66,53.02 190.28,45.56 170.67,40.75 149.88,40.00 131.55,42.01 117.14,47.14 102.20,56.97 90.02,68.41 79.66,82.00 71.26,95.72 65.26,110.96 59.84,131.85 40.67,239.93 40.00,260.20 41.47,277.35 44.63,292.12 49.22,305.35 54.28,315.52 60.27,324.44 67.33,332.64 75.45,339.98 85.00,346.64 129.65,365.28 176.84,381.27 190.27,382.45 200.40,381.62 208.88,378.87 216.92,374.58 225.19,367.11 231.48,359.78 236.21,351.64 239.26,342.59 239.96,330.74 239.45,310.34 240.26,299.63 243.01,289.76 247.60,280.91 254.17,272.51 262.44,265.67 271.49,261.40 281.76,258.79 291.28,260.48 300.68,265.22 307.86,271.41 313.68,277.74 320.05,286.12 433.88,463.79 444.13,474.51 455.66,483.99 469.63,493.66 481.42,500.82 503.96,511.18 608.96,557.05 632.34,563.86 651.54,567.30 663.31,568.12 674.70,567.38 691.39,564.11 707.64,559.04 717.96,554.38 727.16,548.66 735.38,541.89 742.67,533.93 748.55,525.04 753.31,515.17 756.74,504.59 758.96,493.43 760.00,481.88 759.81,470.14 758.36,458.21 755.47,446.14 749.94,431.25 742.34,416.31 730.53,398.83 716.54,382.13 700.26,366.11 681.18,350.57 608.01,304.01 249.81,75.45"
        fill="none"
        stroke="#e94560"
        stroke-width="8.0"
        stroke-linejoin="round"
        stroke-linecap="round"/>
  <!-- Start/finish line -->
  <line x1="239.05" y1="92.31" x2="260.57" y2="58.59"
        stroke="#f5f5f5" stroke-width="9.6"
        stroke-linecap="round"/>
</svg>
