<?xml version="1.0" encoding="utf-8"?>
<svg xmlns="http://www.w3.org/2000/svg"
     width="486.5" height="800.0"
     viewBox="0 0 486.5 800.0">
  <rect width="100%" height="100%" fill="#1a1a2e"/>
  <!-- Track outline -->
  <polyline points="417.80,449.96 445.83,658.57 446.50,671.43 445.58,685.41 441.95,695.89 435.01,707.57 427.86,715.09 418.31,721.09 406.78,726.43 393.20,730.45 374.20,734.28 169.12,759.54 153.60,760.00 146.40,758.94 139.81,755.71 133.53,750.63 129.24,744.04 127.10,735.66 126.28,726.36 126.89,718.91 129.29,711.66 134.14,705.00 140.78,700.71 148.44,697.35 157.78,695.23 210.93,686.92 252.39,679.93 282.92,672.75 325.09,660.94 336.01,655.60 343.57,649.93 348.88,643.73 353.02,636.60 355.77,628.49 357.05,618.14 356.79,605.21 311.97,253.09 309.87,242.47 307.48,234.89 303.24,227.57 297.77,221.37 291.04,215.83 283.48,211.48 274.75,208.31 263.62,204.88 251.16,201.52 239.01,199.21 226.40,198.15 214.56,197.89 201.64,198.48 187.24,199.67 174.84,202.04 164.27,206.00 155.95,211.34 147.88,220.05 143.33,229.41 140.37,241.88 139.71,257.51 153.90,445.61 155.64,455.10 158.70,465.85 163.91,475.55 170.29,483.46 178.87,490.19 187.75,494.54 199.19,498.57 213.33,502.00 244.42,507.73 254.17,511.43 262.39,517.76 267.75,524.88 271.18,532.99 273.57,544.01 273.98,552.32 273.06,560.96 269.80,569.27 264.44,577.64 256.01,585.75 244.52,593.08 224.31,602.70 186.12,614.18 166.67,619.06 154.31,620.25 142.42,619.59 132.41,617.68 124.14,614.38 117.76,608.51 112.55,602.31 108.21,594.33 104.69,585.03 101.57,573.88 98.46,556.74 40.66,82.28 40.00,72.65 41.07,64.47 43.52,57.02 48.63,49.83 54.96,45.28 63.59,41.71 73.08,40.00 82.63,40.07 91.31,42.11 98.87,46.53 105.09,52.79 112.24,64.20 122.71,79.97 129.91,87.02 141.14,96.32 154.41,105.16 171.21,113.93 191.27,121.38 208.17,124.75 325.80,139.39 340.81,142.62 352.35,147.96 362.56,154.82 370.99,164.12 378.44,176.06 381.71,184.50 384.11,199.21 417.80,449.96"
        fill="none"
        stroke="#e94560"
        stroke-width="8.0"
        stroke-linejoin="round"
        stroke-linecap="round"/>
  <!-- Start/finish line -->
  <line x1="437.63" y1="447.30" x2="397.98" y2="452.62"
        stroke="#f5f5f5" stroke-width="9.6"
        stroke-linecap="round"/>
</svg>
