<?xml version="1.0" encoding="utf-8"?>
<svg xmlns="http://www.w3.org/2000/svg"
     width="524.1" height="800.0"
     viewBox="0 0 524.1 800.0">
  <rect width="100%" height="100%" fill="#1a1a2e"/>
  <!-- Track outline -->
  <polyline points="130.72,525.84 53.10,649.18 48.07,659.71 44.95,668.46 42.32,678.59 40.69,688.87 40.00,698.99 40.31,708.99 41.57,718.47 44.15,727.59 47.10,733.73 50.87,739.68 55.19,745.02 59.91,749.64 65.18,753.69 70.81,756.75 75.13,758.35 79.65,759.56 84.32,760.00 90.70,759.28 96.28,756.75 102.54,752.61 108.78,747.71 113.70,742.85 116.93,735.94 118.25,728.95 118.22,723.29 117.73,716.58 116.67,706.22 116.62,695.98 118.39,689.35 121.31,682.92 125.43,676.46 140.25,662.60 155.50,649.18 160.02,643.64 163.62,638.34 166.34,632.60 168.43,622.23 169.09,611.51 168.83,601.79 169.17,592.31 170.83,586.04 173.29,579.94 176.50,574.20 182.99,566.52 191.29,559.05 224.42,533.75 238.90,519.01 250.28,502.42 258.69,485.55 262.10,476.64 264.73,467.48 266.28,458.00 266.79,448.40 266.22,439.32 264.42,428.96 246.96,369.07 244.10,358.19 242.59,348.71 242.39,342.24 242.84,335.86 244.56,330.03 246.45,326.70 248.88,323.36 251.74,320.35 254.86,317.90 258.09,316.30 261.58,315.57 265.45,315.57 269.42,316.18 273.28,317.26 276.78,318.71 281.55,322.68 285.76,327.90 290.45,332.52 296.26,336.18 302.58,339.19 308.99,340.80 313.77,340.84 318.69,340.03 323.52,338.59 328.02,336.66 333.25,333.41 338.03,329.15 343.55,323.20 370.53,287.78 401.91,239.78 446.78,161.46 479.88,94.38 482.45,86.87 483.74,81.09 484.05,75.39 483.77,70.57 482.97,65.67 481.56,61.01 479.45,56.91 476.36,53.37 472.44,50.32 468.06,47.71 463.68,45.54 457.07,42.81 449.26,41.20 442.43,40.28 436.88,40.00 431.75,40.96 426.12,43.33 420.91,46.63 413.87,53.05 390.59,77.31 377.05,92.94 372.25,101.25 368.76,110.13 366.98,120.33 366.32,130.73 366.30,149.33 364.72,160.21 362.12,170.94 358.80,179.85 354.68,188.21 349.96,196.24 344.12,203.59 335.77,210.42 326.41,216.04 318.17,219.70 308.82,222.59 289.02,225.96 269.11,229.50 259.24,232.83 250.63,237.01 242.67,242.15 234.35,249.10 192.83,294.21 186.08,303.32 181.13,311.88 177.01,321.60 174.50,331.76 174.24,342.36 175.64,352.97 178.82,362.89 182.28,372.81 184.54,383.57 185.62,394.30 185.11,403.49 183.22,413.25 177.99,430.57 169.92,450.81 130.72,525.84"
        fill="none"
        stroke="#e94560"
        stroke-width="8.0"
        stroke-linejoin="round"
        stroke-linecap="round"/>
  <!-- Start/finish line -->
  <line x1="147.96" y1="535.99" x2="113.49" y2="515.69"
        stroke="#f5f5f5" stroke-width="9.6"
        stroke-linecap="round"/>
</svg>
