<?xml version="1.0" encoding="utf-8"?>
<svg xmlns="http://www.w3.org/2000/svg"
     width="737.4" height="800.0"
     viewBox="0 0 737.4 800.0">
  <rect width="100%" height="100%" fill="#1a1a2e"/>
  <!-- Track outline -->
  <polyline points="225.42,543.51 340.21,677.04 385.27,718.15 396.17,725.86 407.73,732.24 436.72,744.84 465.30,755.07 474.73,757.62 484.24,758.94 511.48,760.00 540.98,758.11 561.01,753.08 578.28,746.70 596.70,737.62 612.91,727.18 630.31,712.60 653.04,685.41 673.18,654.44 684.63,629.29 692.46,606.11 695.50,593.95 697.17,582.72 697.38,560.21 690.17,511.75 680.59,479.54 667.36,446.24 624.33,369.98 536.91,254.95 409.20,121.72 361.99,83.26 321.34,60.79 298.68,52.12 253.08,41.76 240.36,40.26 228.53,40.00 216.81,40.79 203.68,43.17 170.69,52.60 138.66,64.85 127.82,71.15 118.08,78.50 82.97,109.26 66.32,129.87 56.89,146.35 48.27,168.29 40.72,208.78 40.00,231.11 50.67,299.53 58.56,325.04 72.17,351.87 92.44,381.83 218.41,535.36 225.42,543.51"
        fill="none"
        stroke="#e94560"
        stroke-width="8.0"
        stroke-linejoin="round"
        stroke-linecap="round"/>
  <!-- Start/finish line -->
  <line x1="240.59" y1="530.47" x2="210.25" y2="556.55"
        stroke="#f5f5f5" stroke-width="9.6"
        stroke-linecap="round"/>
</svg>
