<?xml version="1.0" encoding="utf-8"?>
<svg xmlns="http://www.w3.org/2000/svg"
     width="800.0" height="606.2"
     viewBox="0 0 800.0 606.2">
  <rect width="100%" height="100%" fill="#1a1a2e"/>
  <!-- Track outline -->
  <polyline points="519.21,296.12 474.96,278.00 391.87,240.32 241.97,170.10 236.11,166.47 232.18,163.21 229.03,159.84 226.43,156.09 224.49,152.16 223.12,147.94 222.50,143.74 222.52,139.49 223.28,135.30 224.66,131.32 226.70,127.44 229.24,123.96 232.40,120.74 235.94,118.04 239.99,115.78 244.28,114.10 248.86,112.93 253.71,112.39 259.90,112.50 266.30,113.47 272.60,115.36 278.97,118.17 294.02,127.78 345.54,165.97 361.76,175.22 376.22,181.84 385.99,185.26 394.83,187.22 401.57,187.77 407.77,187.36 412.68,186.23 417.23,184.36 421.37,181.88 425.17,178.74 428.34,175.25 431.02,171.23 433.02,166.93 434.43,162.24 435.16,157.37 435.16,152.25 434.10,145.99 432.13,139.83 429.24,133.88 425.34,128.19 417.57,119.83 408.50,112.00 399.51,105.44 389.53,99.74 373.99,93.31 356.16,87.86 302.72,77.57 271.77,70.50 236.94,65.70 166.48,55.11 67.00,40.00 60.88,40.20 56.38,41.19 53.78,42.14 51.37,43.37 49.12,44.87 46.25,47.45 43.80,50.54 41.99,53.79 40.71,57.51 40.00,62.29 40.04,67.38 40.99,72.64 42.77,77.85 45.84,83.91 50.10,89.99 58.93,99.54 69.97,109.24 105.73,133.34 152.49,164.49 176.57,183.48 205.82,211.94 241.30,252.23 262.44,275.88 268.42,280.15 274.54,283.28 284.51,287.43 294.84,290.55 302.37,291.86 310.07,292.11 321.50,290.74 333.98,288.15 365.19,279.56 371.14,278.80 376.34,278.88 381.70,279.77 386.72,281.42 390.46,283.35 393.81,285.85 396.65,288.74 399.10,292.27 401.24,297.02 402.72,302.38 403.27,308.01 403.03,313.77 401.86,319.49 399.97,325.44 395.95,334.87 392.13,344.50 390.67,351.24 390.08,357.84 390.37,364.63 391.58,371.61 394.53,381.14 398.83,390.73 404.84,400.51 413.29,410.98 483.63,476.59 545.29,528.29 591.85,559.89 599.47,563.33 606.02,565.20 612.17,566.13 617.97,566.22 622.14,565.69 626.46,564.57 634.51,561.40 643.15,558.22 650.59,556.88 658.18,556.45 676.98,558.20 697.17,559.89 704.46,559.17 711.35,557.62 718.15,555.23 724.72,552.05 730.85,548.21 736.62,543.62 741.75,538.55 746.46,532.58 751.14,524.78 755.07,516.00 757.84,506.79 759.54,497.07 760.00,486.97 759.24,476.55 756.74,464.03 752.80,451.55 747.14,438.76 740.24,426.58 731.78,414.39 722.13,402.90 709.91,390.68 695.95,379.04 669.89,361.98 647.49,350.20 559.69,312.70 519.21,296.12"
        fill="none"
        stroke="#e94560"
        stroke-width="8.0"
        stroke-linejoin="round"
        stroke-linecap="round"/>
  <!-- Start/finish line -->
  <line x1="511.63" y1="314.63" x2="526.79" y2="277.62"
        stroke="#f5f5f5" stroke-width="9.6"
        stroke-linecap="round"/>
</svg>
