<?xml version="1.0" encoding="utf-8"?>
<svg xmlns="http://www.w3.org/2000/svg"
     width="525.6" height="800.0"
     viewBox="0 0 525.6 800.0">
  <rect width="100%" height="100%" fill="#1a1a2e"/>
  <!-- Track outline -->
  <polyline points="41.75,407.84 41.82,411.77 45.49,532.32 46.51,567.42 48.93,585.07 53.04,602.28 62.33,624.59 73.10,644.35 80.14,655.52 88.51,665.92 118.98,695.19 152.00,722.20 166.90,732.01 180.76,739.07 213.36,750.78 249.97,757.94 282.92,760.00 300.35,758.73 317.44,755.88 345.77,746.62 369.98,735.78 394.23,718.77 418.57,698.23 437.66,673.96 452.71,650.77 466.78,618.76 474.23,588.70 485.63,422.85 479.53,242.18 476.02,215.61 470.68,193.45 457.47,160.11 442.90,131.92 436.39,121.58 428.96,112.80 401.79,87.60 371.44,65.05 354.68,57.16 338.40,52.16 318.26,46.18 295.97,41.96 259.61,40.00 222.23,42.40 194.49,48.58 169.07,57.85 149.80,67.60 131.44,79.56 111.26,95.35 93.26,112.07 77.23,132.17 67.40,148.69 59.18,167.52 51.44,192.57 44.26,237.48 40.00,289.64 41.75,407.84"
        fill="none"
        stroke="#e94560"
        stroke-width="8.0"
        stroke-linejoin="round"
        stroke-linecap="round"/>
  <!-- Start/finish line -->
  <line x1="61.75" y1="407.55" x2="21.76" y2="408.14"
        stroke="#f5f5f5" stroke-width="9.6"
        stroke-linecap="round"/>
</svg>
