<?xml version="1.0" encoding="utf-8"?>
<svg xmlns="http://www.w3.org/2000/svg"
     width="800.0" height="455.2"
     viewBox="0 0 800.0 455.2">
  <rect width="100%" height="100%" fill="#1a1a2e"/>
  <!-- Track outline -->
  <polyline points="434.95,112.08 601.66,45.47 619.36,41.04 636.03,40.00 651.74,41.79 667.61,46.65 685.46,55.59 696.87,63.28 712.42,75.24 727.49,87.73 739.31,99.08 748.49,112.51 754.29,124.52 758.77,136.67 760.00,147.69 758.17,158.88 752.67,168.73 744.04,175.99 732.11,182.82 653.22,212.08 641.59,215.10 632.51,215.50 625.28,213.95 619.57,211.20 615.33,207.06 612.15,200.92 609.90,192.70 609.88,184.35 611.04,177.06 624.84,132.64 626.30,125.83 626.35,119.55 624.58,113.33 621.36,108.16 617.63,104.55 612.73,102.10 607.43,102.12 601.52,103.54 556.42,123.75 547.16,129.51 537.24,138.30 523.89,154.69 507.91,179.03 476.46,226.05 443.78,271.30 434.81,281.95 427.42,287.77 413.77,295.03 390.87,305.44 362.94,315.72 92.85,413.80 85.75,415.08 79.02,415.16 73.43,413.67 67.42,409.53 62.89,404.14 58.33,395.94 43.11,356.48 40.38,346.21 40.00,335.90 40.77,323.62 43.15,310.91 46.78,300.34 51.46,290.20 58.82,280.75 66.61,273.51 76.29,266.62 87.20,261.20 146.31,234.86 160.50,229.62 171.19,227.65 178.72,228.48 185.85,231.71 191.55,235.31 197.45,238.81 203.80,241.24 210.59,240.78 216.39,238.94 221.08,236.62 224.94,232.16 228.69,225.19 231.98,217.00 237.18,204.98 246.34,195.00 258.64,186.03 434.95,112.08"
        fill="none"
        stroke="#e94560"
        stroke-width="8.0"
        stroke-linejoin="round"
        stroke-linecap="round"/>
  <!-- Start/finish line -->
  <line x1="427.36" y1="93.57" x2="442.53" y2="130.59"
        stroke="#f5f5f5" stroke-width="9.6"
        stroke-linecap="round"/>
</svg>
