<?xml version="1.0" encoding="utf-8"?>
<svg xmlns="http://www.w3.org/2000/svg"
     width="800.0" height="389.4"
     viewBox="0 0 800.0 389.4">
  <rect width="100%" height="100%" fill="#1a1a2e"/>
  <!-- Track outline -->
  <polyline points="305.44,201.85 328.86,201.40 519.93,198.54 534.38,199.25 547.90,200.83 560.53,203.22 572.37,206.49 583.38,211.33 593.42,217.37 602.58,224.37 610.44,232.55 623.70,251.71 650.46,307.31 657.01,316.97 664.49,325.47 672.53,333.27 677.09,336.70 681.55,339.41 690.96,344.05 700.33,346.99 709.73,349.05 714.40,349.44 718.60,349.21 722.69,348.25 726.65,346.86 730.69,345.35 734.51,343.42 737.88,340.86 741.01,337.93 747.23,331.30 752.40,323.56 756.61,315.30 758.22,310.95 759.38,306.44 759.91,301.61 760.00,296.71 759.37,287.04 756.82,277.65 752.91,268.42 750.68,264.21 747.80,259.90 741.89,252.64 733.34,244.47 706.71,225.61 674.22,206.64 611.67,180.76 506.29,151.00 474.83,139.58 420.00,118.38 406.36,115.56 378.38,113.31 364.27,113.91 305.51,124.69 291.87,126.33 278.86,126.92 266.26,126.27 253.98,124.28 242.02,120.87 230.60,116.17 219.84,110.29 209.92,103.03 200.24,94.84 154.59,52.55 146.00,46.94 137.21,42.97 132.90,41.67 128.15,40.76 119.18,40.00 110.29,40.11 105.81,40.93 101.80,42.19 93.78,45.55 86.08,50.32 78.95,56.39 72.46,63.30 66.95,71.34 58.18,89.85 48.06,124.69 40.00,192.58 41.12,229.16 43.05,239.55 45.94,249.08 50.27,257.45 55.71,264.86 58.70,268.18 61.94,271.19 65.46,273.82 69.24,275.98 73.25,277.52 77.40,278.63 85.79,279.71 94.41,279.50 103.20,277.78 111.91,274.60 120.34,269.98 153.12,242.97 162.64,236.17 173.01,229.73 195.40,218.89 207.50,214.51 220.32,210.94 247.61,205.89 291.72,202.11 305.44,201.85"
        fill="none"
        stroke="#e94560"
        stroke-width="8.0"
        stroke-linejoin="round"
        stroke-linecap="round"/>
  <!-- Start/finish line -->
  <line x1="305.05" y1="181.86" x2="305.82" y2="221.85"
        stroke="#f5f5f5" stroke-width="9.6"
        stroke-linecap="round"/>
</svg>
