<?xml version="1.0" encoding="utf-8"?>
<svg xmlns="http://www.w3.org/2000/svg"
     width="800.0" height="530.4"
     viewBox="0 0 800.0 530.4">
  <rect width="100%" height="100%" fill="#1a1a2e"/>
  <!-- Track outline -->
  <polyline points="363.06,81.31 226.27,105.49 165.93,123.66 140.75,135.19 118.55,148.13 104.84,158.70 92.92,169.99 72.37,194.10 63.88,207.24 53.75,229.91 45.12,253.27 41.90,268.79 40.00,285.70 40.49,318.09 42.17,332.77 45.61,348.14 55.63,375.81 68.70,402.12 79.13,415.41 90.19,426.60 113.20,448.68 132.95,461.80 152.69,472.56 172.41,480.11 206.21,488.53 227.81,490.41 245.19,489.44 608.63,414.47 640.06,405.09 654.65,398.51 679.49,385.37 693.22,374.57 705.26,363.31 715.76,350.59 734.56,322.87 751.88,283.82 757.04,267.38 759.38,252.85 760.00,223.92 758.91,196.05 756.55,185.73 748.59,160.31 736.23,132.62 727.63,120.12 717.97,108.58 697.31,88.34 663.94,63.98 641.85,52.70 614.62,44.73 586.41,40.00 557.54,40.27 492.08,51.46 363.06,81.31"
        fill="none"
        stroke="#e94560"
        stroke-width="8.0"
        stroke-linejoin="round"
        stroke-linecap="round"/>
  <!-- Start/finish line -->
  <line x1="367.04" y1="100.91" x2="359.07" y2="61.71"
        stroke="#f5f5f5" stroke-width="9.6"
        stroke-linecap="round"/>
</svg>
