<?xml version="1.0" encoding="utf-8"?>
<svg xmlns="http://www.w3.org/2000/svg"
     width="465.7" height="800.0"
     viewBox="0 0 465.7 800.0">
  <rect width="100%" height="100%" fill="#1a1a2e"/>
  <!-- Track outline -->
  <polyline points="42.83,424.97 42.80,426.98 40.00,555.63 45.57,621.42 51.92,644.22 62.57,667.35 73.27,684.42 86.12,699.76 102.31,714.21 121.33,728.13 141.21,738.85 168.61,749.28 197.14,756.38 225.70,759.89 250.74,760.00 275.43,756.34 287.17,753.26 298.44,749.17 307.86,744.37 317.43,738.24 333.44,726.19 348.32,713.14 354.70,706.40 360.60,698.40 391.24,641.00 399.83,617.37 418.28,537.02 424.07,463.91 425.68,390.55 418.02,237.74 409.43,185.64 402.90,163.38 392.02,139.35 379.08,118.59 362.68,99.63 343.34,81.13 326.28,68.79 304.04,57.39 280.73,48.25 253.30,42.40 226.24,40.00 212.16,40.18 198.15,41.61 184.56,44.59 171.17,49.04 144.07,62.66 131.70,70.37 119.45,80.01 102.10,98.52 86.12,118.77 69.33,145.45 59.11,171.98 51.72,205.51 46.44,242.19 42.83,424.97"
        fill="none"
        stroke="#e94560"
        stroke-width="8.0"
        stroke-linejoin="round"
        stroke-linecap="round"/>
  <!-- Start/finish line -->
  <line x1="62.83" y1="425.37" x2="22.84" y2="424.58"
        stroke="#f5f5f5" stroke-width="9.6"
        stroke-linecap="round"/>
</svg>
