<?xml version="1.0" encoding="utf-8"?>
<svg xmlns="http://www.w3.org/2000/svg"
     width="331.1" height="800.0"
     viewBox="0 0 331.1 800.0">
  <rect width="100%" height="100%" fill="#1a1a2e"/>
  <!-- Track outline -->
  <polyline points="68.54,199.84 70.01,206.41 73.55,215.83 79.65,227.25 98.38,250.98 117.54,274.62 129.33,295.35 139.35,323.69 154.29,398.76 155.72,422.30 155.24,430.77 154.00,438.14 152.53,442.60 150.18,446.74 144.63,452.60 137.49,458.80 132.32,463.91 131.27,465.43 130.56,466.74 130.08,468.24 129.77,470.34 129.75,472.68 130.10,474.97 131.69,478.83 134.30,482.90 141.11,490.74 148.78,500.09 155.86,513.37 161.92,527.21 168.77,546.17 170.16,553.62 170.38,561.56 166.98,576.63 163.43,591.31 163.20,597.66 163.96,603.50 166.60,611.60 170.53,619.38 175.50,626.29 181.29,632.06 187.37,636.11 194.66,639.43 212.67,644.71 231.03,650.29 239.37,654.64 246.86,659.89 265.74,677.60 284.44,699.61 286.92,703.40 288.66,706.93 289.98,710.54 290.81,714.24 291.07,717.77 290.72,721.56 288.57,728.48 285.23,735.62 281.00,742.31 276.18,748.10 271.56,752.08 266.83,755.09 263.00,756.97 258.91,758.28 252.67,759.53 245.67,760.00 235.83,759.25 226.06,757.28 219.25,754.87 213.15,751.55 209.52,748.81 206.15,745.67 203.40,742.44 201.85,740.14 200.62,737.79 199.84,735.16 199.91,729.96 200.65,724.10 202.06,707.05 200.71,697.36 198.33,688.44 196.28,683.40 193.22,678.31 178.62,661.23 160.15,640.02 120.82,582.16 100.91,544.93 74.99,491.80 72.06,483.26 70.46,475.47 69.96,466.42 70.59,456.36 74.30,438.86 77.76,419.35 76.95,395.71 73.97,373.85 71.65,362.97 68.35,353.79 63.26,345.36 57.08,337.89 51.57,332.87 45.66,328.26 41.58,324.26 40.74,322.87 40.24,321.61 40.00,320.15 40.45,316.25 41.65,311.54 44.63,302.72 47.37,292.30 47.64,277.85 46.54,261.62 42.31,215.70 40.51,145.80 42.12,105.69 46.84,78.77 50.21,67.85 54.36,58.10 59.29,50.04 64.13,43.92 65.56,42.48 66.85,41.44 68.14,40.69 69.04,40.33 69.92,40.09 70.82,40.00 71.73,40.13 72.82,40.55 73.96,41.24 75.05,42.15 76.05,43.27 77.49,45.48 78.73,48.21 79.58,51.22 79.83,56.55 79.11,63.38 67.56,122.53 66.33,167.67 67.32,194.44 68.54,199.84"
        fill="none"
        stroke="#e94560"
        stroke-width="8.0"
        stroke-linejoin="round"
        stroke-linecap="round"/>
  <!-- Start/finish line -->
  <line x1="88.05" y1="195.46" x2="49.02" y2="204.23"
        stroke="#f5f5f5" stroke-width="9.6"
        stroke-linecap="round"/>
</svg>
