<?xml version="1.0" encoding="utf-8"?>
<svg xmlns="http://www.w3.org/2000/svg"
     width="509.3" height="800.0"
     viewBox="0 0 509.3 800.0">
  <rect width="100%" height="100%" fill="#1a1a2e"/>
  <!-- Track outline -->
  <polyline points="372.17,335.46 410.68,423.87 466.42,568.46 468.61,577.37 469.28,584.52 468.70,592.02 466.94,599.64 462.71,610.63 457.17,621.37 451.13,630.81 444.37,639.33 436.40,647.52 427.55,655.02 415.71,663.49 403.08,670.99 377.60,681.74 266.38,716.85 146.73,757.56 136.06,759.69 127.97,760.00 123.92,759.49 120.19,758.51 116.69,757.07 113.62,755.41 110.72,753.38 108.25,750.82 106.41,748.10 104.89,744.99 103.87,741.63 103.44,738.17 103.49,734.44 103.99,730.14 108.13,714.02 114.76,694.89 138.10,640.04 141.46,627.28 143.19,615.57 143.68,605.15 142.80,594.21 138.35,575.10 131.45,555.27 122.79,536.90 111.71,518.22 61.33,449.92 49.15,428.03 44.93,416.87 41.87,405.19 40.30,393.40 40.00,381.43 40.98,369.58 43.33,357.41 55.84,322.68 113.90,190.14 139.61,143.35 166.16,104.68 205.53,59.54 213.96,51.90 221.53,46.51 228.36,42.85 235.18,40.63 242.20,40.00 249.25,40.63 256.29,42.11 263.15,44.77 269.56,48.75 275.78,54.09 282.74,61.81 289.17,70.84 294.01,79.59 298.23,89.62 306.93,122.00 326.44,205.61 343.58,261.62 372.17,335.46"
        fill="none"
        stroke="#e94560"
        stroke-width="8.0"
        stroke-linejoin="round"
        stroke-linecap="round"/>
  <!-- Start/finish line -->
  <line x1="390.65" y1="327.82" x2="353.69" y2="343.11"
        stroke="#f5f5f5" stroke-width="9.6"
        stroke-linecap="round"/>
</svg>
