<?xml version="1.0" encoding="utf-8"?>
<svg xmlns="http://www.w3.org/2000/svg"
     width="702.5" height="800.0"
     viewBox="0 0 702.5 800.0">
  <rect width="100%" height="100%" fill="#1a1a2e"/>
  <!-- Track outline -->
  <polyline points="571.21,400.74 518.52,527.62 479.70,617.50 473.63,628.12 466.73,638.22 459.05,647.71 450.60,656.43 441.47,664.42 421.62,678.06 410.98,683.71 399.85,688.26 392.38,690.43 384.54,691.99 376.79,692.54 369.06,692.28 361.79,691.33 354.02,689.50 325.40,678.58 280.16,669.23 264.68,668.43 233.50,671.05 221.94,673.98 211.52,678.06 200.18,683.95 186.01,694.31 172.05,706.60 146.86,733.49 128.08,749.48 122.65,752.81 117.39,755.29 111.85,757.44 105.95,758.97 98.32,759.97 90.43,760.00 83.03,758.73 75.89,756.51 69.13,753.55 62.83,749.80 57.20,745.30 52.27,740.15 48.19,734.39 44.92,728.15 42.55,721.59 40.98,714.77 40.14,707.82 40.00,700.79 41.72,686.86 45.39,673.24 55.95,646.57 62.58,633.51 71.21,618.55 87.67,595.93 107.58,575.10 116.37,566.80 152.93,535.47 159.86,530.95 166.23,527.67 173.13,524.87 180.21,522.86 187.40,521.86 194.65,521.75 201.75,522.60 208.67,524.24 221.42,529.31 227.52,531.40 233.64,532.86 239.74,533.23 245.83,532.62 252.20,530.71 258.28,527.73 263.45,523.92 268.81,518.87 294.65,490.30 298.49,484.88 301.33,479.86 303.86,474.12 305.84,468.17 307.37,462.01 308.23,455.72 307.42,442.95 305.37,430.08 305.07,416.73 306.90,403.22 310.74,389.93 439.85,108.97 451.92,86.58 458.91,75.98 466.81,65.96 475.84,57.23 485.93,50.07 496.86,44.71 508.42,41.35 520.24,40.00 532.17,40.11 544.03,41.45 567.24,47.06 600.59,60.38 621.63,71.98 631.41,78.86 640.21,86.89 645.29,92.79 649.99,99.29 653.94,106.08 657.20,113.19 659.66,120.54 661.37,128.05 662.26,135.56 662.46,143.12 661.15,158.13 654.78,187.50 630.38,258.24 571.21,400.74"
        fill="none"
        stroke="#e94560"
        stroke-width="8.0"
        stroke-linejoin="round"
        stroke-linecap="round"/>
  <!-- Start/finish line -->
  <line x1="589.68" y1="408.41" x2="552.74" y2="393.07"
        stroke="#f5f5f5" stroke-width="9.6"
        stroke-linecap="round"/>
</svg>
