<?xml version="1.0" encoding="utf-8"?>
<svg xmlns="http://www.w3.org/2000/svg"
     width="800.0" height="590.4"
     viewBox="0 0 800.0 590.4">
  <rect width="100%" height="100%" fill="#1a1a2e"/>
  <!-- Track outline -->
  <polyline points="400.91,549.58 413.04,550.36 529.58,542.52 550.81,538.10 641.44,500.45 655.57,492.20 701.19,454.82 712.68,442.42 725.87,425.15 738.95,399.44 750.58,368.49 757.39,336.86 760.00,305.37 758.15,280.52 752.97,256.23 743.19,226.47 729.82,197.20 712.31,168.76 691.73,142.83 665.82,118.63 641.94,100.03 626.51,90.05 601.25,77.83 568.68,65.48 514.11,51.90 456.24,42.51 366.63,40.00 317.67,44.79 237.23,59.64 188.96,78.01 145.45,100.17 124.07,115.57 106.78,130.98 85.55,153.31 70.62,173.46 63.99,185.58 57.94,200.21 47.97,234.22 40.91,268.04 40.00,280.07 40.40,291.46 42.03,310.52 45.76,331.67 54.42,361.52 67.21,392.15 87.69,425.88 111.02,455.64 129.14,473.60 148.74,488.10 175.88,502.27 204.44,513.76 254.41,528.80 384.09,548.49 400.91,549.58"
        fill="none"
        stroke="#e94560"
        stroke-width="8.0"
        stroke-linejoin="round"
        stroke-linecap="round"/>
  <!-- Start/finish line -->
  <line x1="402.19" y1="529.62" x2="399.62" y2="569.54"
        stroke="#f5f5f5" stroke-width="9.6"
        stroke-linecap="round"/>
</svg>
