<?xml version="1.0" encoding="utf-8"?>
<svg xmlns="http://www.w3.org/2000/svg"
     width="800.0" height="645.2"
     viewBox="0 0 800.0 645.2">
  <rect width="100%" height="100%" fill="#1a1a2e"/>
  <!-- Track outline -->
  <polyline points="441.89,495.61 638.62,381.90 665.70,360.22 683.16,340.77 719.03,288.00 751.57,230.62 755.67,220.97 758.10,211.39 760.00,190.46 758.63,166.86 754.95,149.19 749.13,131.15 741.35,114.38 724.25,91.07 707.27,73.77 702.82,70.29 697.59,67.46 664.34,52.62 630.96,40.59 626.39,40.00 621.70,40.30 554.12,48.31 526.22,55.59 504.60,65.09 315.47,176.43 190.53,259.27 91.72,336.69 74.50,359.26 63.57,381.45 49.62,416.26 40.71,449.52 40.00,464.14 41.31,477.13 46.35,501.40 50.33,514.54 55.44,527.24 61.50,537.63 69.22,547.95 84.06,564.80 102.11,580.46 123.73,591.52 144.93,599.09 155.97,602.35 167.08,604.21 186.43,605.18 208.11,603.84 236.55,598.49 264.64,590.70 303.83,575.41 441.89,495.61"
        fill="none"
        stroke="#e94560"
        stroke-width="8.0"
        stroke-linejoin="round"
        stroke-linecap="round"/>
  <!-- Start/finish line -->
  <line x1="431.89" y1="478.30" x2="451.90" y2="512.93"
        stroke="#f5f5f5" stroke-width="9.6"
        stroke-linecap="round"/>
</svg>
