<?xml version="1.0" encoding="utf-8"?>
<svg xmlns="http://www.w3.org/2000/svg"
     width="800.0" height="598.6"
     viewBox="0 0 800.0 598.6">
  <rect width="100%" height="100%" fill="#1a1a2e"/>
  <!-- Track outline -->
  <polyline points="471.89,72.50 437.73,62.94 301.44,42.39 259.78,40.00 223.24,41.19 188.35,47.89 160.94,57.45 133.91,70.35 108.88,86.12 87.68,104.77 70.69,125.80 56.44,149.93 45.85,175.74 40.00,201.79 41.83,240.99 51.88,281.61 64.66,316.03 77.45,339.93 95.17,362.39 148.52,419.75 216.85,476.63 291.94,517.97 372.50,546.41 460.75,558.12 539.30,558.60 568.35,556.45 595.39,550.23 649.65,530.40 700.26,503.87 716.70,490.49 729.86,476.39 740.27,461.57 749.40,441.97 754.88,420.94 759.27,393.94 760.00,363.59 755.25,312.92 741.73,260.58 725.47,228.08 704.28,197.25 679.07,169.29 648.56,143.24 613.48,120.30 571.46,100.22 471.89,72.50"
        fill="none"
        stroke="#e94560"
        stroke-width="8.0"
        stroke-linejoin="round"
        stroke-linecap="round"/>
  <!-- Start/finish line -->
  <line x1="466.52" y1="91.77" x2="477.26" y2="53.24"
        stroke="#f5f5f5" stroke-width="9.6"
        stroke-linecap="round"/>
</svg>
