<?xml version="1.0" encoding="utf-8"?>
<svg xmlns="http://www.w3.org/2000/svg"
     width="800.0" height="669.8"
     viewBox="0 0 800.0 669.8">
  <rect width="100%" height="100%" fill="#1a1a2e"/>
  <!-- Track outline -->
  <polyline points="422.89,284.43 458.12,328.78 490.19,380.28 518.21,423.75 526.93,433.17 535.16,439.20 541.34,442.23 547.79,444.32 554.31,445.54 560.55,445.89 566.81,445.40 573.60,444.08 589.60,437.31 606.68,430.45 623.96,428.84 638.76,429.30 643.03,429.50 647.37,430.48 667.19,438.95 690.40,451.43 726.33,477.23 727.82,478.73 738.58,491.08 750.94,507.74 755.72,517.82 758.66,528.00 760.00,538.53 759.80,549.26 757.74,560.94 754.30,571.89 750.83,579.42 746.38,586.39 738.27,596.33 728.60,605.67 717.78,613.48 706.09,619.79 693.25,624.75 679.58,628.02 662.55,629.84 645.77,629.42 633.05,626.59 622.15,622.90 611.91,618.71 544.38,576.07 470.93,524.65 455.41,511.40 444.42,499.55 437.43,489.30 432.59,480.20 431.19,476.96 430.30,473.57 429.18,464.72 428.87,455.51 429.18,451.12 430.05,446.55 434.35,432.78 438.55,418.87 439.30,413.99 439.41,409.28 438.46,400.01 436.59,390.94 434.94,386.31 432.93,382.26 430.60,378.32 427.67,374.38 420.93,367.45 413.58,361.10 409.61,358.17 404.74,355.70 380.10,347.99 346.58,340.43 234.62,325.64 175.59,316.06 105.43,299.84 82.56,289.98 72.35,283.63 62.96,276.31 54.99,268.50 48.72,260.06 46.24,255.64 44.11,251.00 42.46,246.26 41.23,241.34 40.31,236.43 40.00,231.06 41.43,221.02 43.89,211.22 47.55,202.33 52.33,194.14 55.16,190.20 58.29,186.64 61.75,183.64 65.47,181.10 69.42,178.86 73.53,176.98 77.92,175.45 82.45,174.33 92.26,173.15 102.92,173.39 108.28,174.40 113.57,175.87 123.80,179.91 133.59,185.59 142.98,192.88 171.11,222.17 203.75,254.24 220.38,265.85 235.54,273.59 243.20,276.55 250.53,278.54 257.80,279.45 264.96,279.13 272.03,277.84 278.43,275.89 282.77,274.01 286.66,271.71 290.40,268.71 297.17,261.21 302.82,252.71 305.61,246.57 307.29,240.23 307.79,233.15 307.18,225.93 305.50,218.78 302.57,211.67 296.16,201.67 287.86,192.25 277.57,184.16 266.07,177.68 254.08,172.83 239.31,169.14 135.18,158.85 115.47,154.98 99.14,150.14 86.17,144.73 75.04,138.53 68.49,133.65 63.01,128.21 58.43,122.18 54.68,115.59 51.88,108.65 50.09,101.99 49.62,98.50 49.67,94.95 50.65,87.87 52.58,80.37 55.46,73.43 59.24,67.05 64.08,61.41 70.03,56.35 80.49,49.69 91.73,44.32 100.09,41.81 108.34,40.49 117.26,40.00 126.21,40.56 134.90,42.09 143.49,44.60 151.15,47.67 160.29,52.55 256.01,118.58 322.73,175.20 404.68,261.53 422.89,284.43"
        fill="none"
        stroke="#e94560"
        stroke-width="8.0"
        stroke-linejoin="round"
        stroke-linecap="round"/>
  <!-- Start/finish line -->
  <line x1="438.55" y1="271.99" x2="407.23" y2="296.88"
        stroke="#f5f5f5" stroke-width="9.6"
        stroke-linecap="round"/>
</svg>
