<?xml version="1.0" encoding="utf-8"?>
<svg xmlns="http://www.w3.org/2000/svg"
     width="453.6" height="800.0"
     viewBox="0 0 453.6 800.0">
  <rect width="100%" height="100%" fill="#1a1a2e"/>
  <!-- Track outline -->
  <polyline points="74.87,302.63 70.75,291.41 43.13,202.60 40.00,181.85 40.32,161.23 41.49,151.05 43.51,141.07 46.54,131.63 50.59,122.69 55.80,114.42 61.92,106.73 68.82,99.58 76.36,93.01 93.34,81.41 108.43,74.30 195.27,48.56 214.34,43.24 227.17,40.75 235.77,40.00 244.47,41.16 253.57,43.62 262.79,47.23 270.32,51.60 275.97,56.75 280.17,61.91 284.73,70.56 288.54,79.87 290.74,90.18 290.46,97.04 288.42,104.40 284.87,111.18 280.07,117.50 274.72,122.90 269.47,126.81 263.76,129.93 257.77,132.46 248.56,134.96 235.67,136.87 215.65,138.49 202.29,139.24 193.13,139.70 183.95,140.82 175.35,143.94 165.56,149.05 155.88,155.91 146.79,165.10 140.18,173.91 136.08,182.64 131.90,193.45 127.95,205.64 126.15,215.90 126.57,228.59 128.41,241.72 130.75,254.74 134.52,266.38 139.17,277.98 143.50,286.13 148.27,294.02 153.88,299.35 160.40,302.22 169.17,303.96 177.29,303.00 185.80,300.39 195.63,296.15 204.01,291.57 211.55,286.83 217.16,282.22 224.35,274.86 230.81,266.67 235.99,257.40 240.41,247.54 248.66,227.13 253.79,217.98 259.66,209.42 266.26,201.52 273.67,194.70 278.94,191.08 284.59,188.09 290.56,185.80 297.44,184.10 304.71,183.19 311.71,183.52 318.09,185.39 324.22,188.42 329.93,192.12 337.92,199.19 343.92,209.29 350.17,224.64 356.61,244.80 381.07,326.16 405.67,409.73 409.16,423.57 411.48,437.04 412.27,449.64 411.36,462.36 408.57,478.37 403.93,490.72 395.82,503.15 386.84,511.13 375.58,517.28 362.04,521.69 350.27,523.81 335.04,523.52 322.65,520.40 309.89,513.63 302.02,506.60 295.06,493.59 291.16,480.12 291.61,467.81 297.78,442.37 313.18,375.84 314.31,366.99 314.69,359.05 314.15,350.73 312.78,342.50 310.46,336.02 307.27,330.74 302.99,327.08 298.55,324.21 292.62,321.76 286.26,320.34 279.76,319.80 272.88,320.09 265.88,321.34 259.08,323.42 248.77,328.62 239.34,335.35 231.96,342.29 225.58,350.11 219.83,359.13 214.48,368.36 209.39,379.59 203.86,392.27 199.75,405.86 197.85,419.42 198.31,434.09 201.34,454.17 205.84,476.12 211.51,499.70 219.99,527.39 231.03,551.92 242.37,566.97 253.35,577.07 265.76,586.46 279.90,595.03 334.45,610.00 360.10,616.73 371.10,620.47 379.07,626.13 388.19,634.23 396.47,643.59 403.00,653.78 408.09,664.79 411.74,676.56 413.62,688.62 413.38,700.30 411.24,711.69 407.20,722.58 401.49,732.56 397.05,738.21 391.99,743.33 386.42,747.74 377.05,752.89 366.84,756.55 355.80,758.96 344.34,760.00 332.92,759.79 320.14,758.09 262.57,742.16 181.02,709.07 161.73,698.34 144.49,686.54 125.83,672.23 114.34,661.84 107.46,653.73 101.99,645.42 98.77,638.10 97.59,631.91 98.24,623.63 101.31,615.40 110.25,602.43 139.31,561.69 144.37,551.71 147.78,541.90 150.04,531.09 150.97,519.99 149.70,509.38 145.93,497.08 74.87,302.63"
        fill="none"
        stroke="#e94560"
        stroke-width="8.0"
        stroke-linejoin="round"
        stroke-linecap="round"/>
  <!-- Start/finish line -->
  <line x1="56.09" y1="309.50" x2="93.66" y2="295.77"
        stroke="#f5f5f5" stroke-width="9.6"
        stroke-linecap="round"/>
</svg>
