<?xml version="1.0" encoding="utf-8"?>
<svg xmlns="http://www.w3.org/2000/svg"
     width="342.7" height="800.0"
     viewBox="0 0 342.7 800.0">
  <rect width="100%" height="100%" fill="#1a1a2e"/>
  <!-- Track outline -->
  <polyline points="180.50,539.71 150.03,720.52 148.42,724.76 145.73,728.89 141.76,733.34 134.57,737.94 95.66,757.39 91.24,759.05 86.90,760.00 82.43,759.96 77.88,758.59 73.44,756.26 69.92,753.32 67.03,749.11 65.45,744.94 64.88,740.53 65.57,736.63 68.41,732.00 74.07,726.98 107.55,701.75 111.99,697.86 117.95,691.04 122.71,683.96 126.17,675.77 128.77,665.43 129.53,655.47 127.87,643.83 124.65,633.86 119.74,624.25 63.48,548.01 55.77,536.12 51.19,527.24 47.84,518.71 45.45,509.95 43.00,497.79 41.12,485.36 40.00,473.83 40.15,466.95 40.84,461.46 41.79,456.62 43.14,452.68 45.25,448.76 49.61,442.86 54.96,435.61 58.26,430.85 61.50,425.47 65.14,417.07 67.83,408.69 70.89,396.33 73.20,386.31 75.09,379.25 76.81,375.45 79.24,372.83 82.64,370.79 86.83,368.39 90.60,365.72 96.24,361.26 101.06,356.52 103.98,353.17 105.86,349.93 106.92,346.71 107.55,343.22 107.59,338.96 107.10,336.25 105.18,331.88 102.36,326.73 96.05,318.33 88.43,309.01 79.52,299.96 70.70,292.57 62.44,286.19 57.09,281.56 54.05,278.27 52.33,274.89 51.61,270.92 51.37,265.95 51.82,261.06 52.61,255.26 65.23,163.20 68.92,144.54 73.67,130.53 79.21,118.68 85.84,107.83 92.73,99.27 101.05,90.35 108.62,83.43 118.07,76.89 128.92,71.56 142.82,65.37 156.16,60.42 169.61,56.61 247.13,40.88 253.99,40.00 260.16,40.08 266.20,40.46 271.87,41.23 276.94,42.57 282.19,45.09 287.50,48.91 292.20,53.51 296.46,59.01 299.79,65.27 301.85,71.37 302.67,78.07 302.59,85.21 301.76,92.36 300.41,101.27 290.57,154.54 285.07,187.47 280.02,229.52 278.90,235.64 276.89,241.94 274.71,247.24 272.12,251.21 268.84,254.95 264.25,258.83 258.92,261.91 252.44,264.99 246.44,267.78 240.67,270.58 235.53,273.93 232.04,277.11 228.09,282.22 224.64,287.96 221.94,294.24 219.63,302.20 199.13,423.67 180.50,539.71"
        fill="none"
        stroke="#e94560"
        stroke-width="8.0"
        stroke-linejoin="round"
        stroke-linecap="round"/>
  <!-- Start/finish line -->
  <line x1="200.24" y1="542.98" x2="160.77" y2="536.45"
        stroke="#f5f5f5" stroke-width="9.6"
        stroke-linecap="round"/>
</svg>
