<?xml version="1.0" encoding="utf-8"?>
<svg xmlns="http://www.w3.org/2000/svg"
     width="525.1" height="800.0"
     viewBox="0 0 525.1 800.0">
  <rect width="100%" height="100%" fill="#1a1a2e"/>
  <!-- Track outline -->
  <polyline points="362.92,539.71 332.44,720.52 330.84,724.76 328.14,728.89 324.18,733.34 316.99,737.94 278.07,757.39 273.66,759.05 269.32,760.00 264.85,759.96 260.30,758.59 255.86,756.26 252.33,753.32 249.44,749.11 236.58,725.90 220.03,698.26 209.61,683.88 204.17,677.73 197.72,671.36 191.11,666.27 183.35,661.05 175.56,657.14 168.54,654.49 161.75,652.52 155.72,651.43 148.60,650.74 141.92,650.87 133.35,651.95 121.33,655.13 111.03,659.29 74.53,676.95 67.71,679.13 62.82,679.51 57.74,678.76 52.61,677.22 48.64,675.04 46.20,671.79 44.86,667.26 42.59,653.08 40.85,636.38 40.00,617.59 40.12,604.54 40.95,595.41 42.97,587.01 47.45,575.62 60.57,548.31 63.65,540.05 66.01,531.18 67.83,522.37 69.72,514.10 73.46,505.91 80.60,494.61 99.91,469.34 130.25,431.28 170.59,379.56 177.42,372.06 182.81,367.79 187.20,366.25 193.28,365.93 200.09,366.15 207.70,366.35 215.48,366.11 222.27,365.54 228.56,364.33 233.76,362.51 239.88,360.05 247.51,357.37 253.12,355.94 258.28,355.85 264.32,356.75 270.55,357.67 275.68,357.87 279.82,357.16 283.41,356.10 286.49,354.27 288.23,352.10 289.71,348.80 290.40,345.42 290.21,341.83 289.22,337.65 287.42,332.69 285.03,327.66 282.26,323.38 277.93,318.02 270.97,309.76 263.18,301.83 253.12,293.27 240.84,283.25 238.44,280.92 235.77,277.95 234.10,273.52 233.36,268.47 233.82,263.43 242.40,204.14 247.64,163.20 251.34,144.54 256.09,130.53 261.62,118.68 268.26,107.83 275.15,99.27 283.47,90.35 291.04,83.43 300.48,76.89 311.34,71.56 325.24,65.37 338.58,60.42 352.03,56.61 429.55,40.88 436.41,40.00 442.58,40.08 448.61,40.46 454.29,41.23 459.36,42.57 464.60,45.09 469.92,48.91 474.61,53.51 478.88,59.01 482.20,65.27 484.27,71.37 485.09,78.07 485.00,85.21 484.17,92.36 482.82,101.27 472.99,154.54 467.49,187.47 462.43,229.52 461.32,235.64 459.30,241.94 457.12,247.24 454.53,251.21 451.25,254.95 446.67,258.83 441.34,261.91 434.86,264.99 428.85,267.78 423.09,270.58 417.94,273.93 414.45,277.11 410.50,282.22 407.05,287.96 404.36,294.24 402.04,302.20 381.55,423.67 362.92,539.71"
        fill="none"
        stroke="#e94560"
        stroke-width="8.0"
        stroke-linejoin="round"
        stroke-linecap="round"/>
  <!-- Start/finish line -->
  <line x1="382.65" y1="542.98" x2="343.19" y2="536.45"
        stroke="#f5f5f5" stroke-width="9.6"
        stroke-linecap="round"/>
</svg>
