<?xml version="1.0" encoding="utf-8"?>
<svg xmlns="http://www.w3.org/2000/svg"
     width="800.0" height="513.5"
     viewBox="0 0 800.0 513.5">
  <rect width="100%" height="100%" fill="#1a1a2e"/>
  <!-- Track outline -->
  <polyline points="754.90,305.54 760.00,218.19 759.29,200.09 758.23,195.13 756.67,190.71 754.01,185.28 750.73,180.20 746.64,175.35 741.99,170.99 728.97,162.03 681.51,137.70 675.79,135.72 671.06,134.72 666.45,134.23 661.91,134.29 657.31,134.88 652.76,136.02 648.45,137.72 644.30,139.99 640.54,142.69 636.95,146.02 633.22,150.40 629.89,155.39 627.61,160.02 625.85,165.00 624.62,170.29 623.95,175.81 623.92,181.30 624.53,187.06 629.27,204.39 632.86,220.17 634.16,232.01 633.84,243.94 632.21,253.48 628.25,265.17 622.48,276.27 616.58,284.42 608.00,293.18 597.47,301.15 587.57,306.70 583.45,308.35 579.53,309.48 576.26,310.03 573.09,310.13 569.91,309.77 566.78,308.99 563.80,307.83 560.91,306.30 558.23,304.49 555.72,302.30 553.54,299.89 551.64,297.11 550.20,294.18 549.14,290.98 548.53,287.75 548.32,284.42 548.61,281.05 549.31,277.76 550.48,274.45 552.08,271.27 557.64,263.71 570.88,248.61 572.91,245.34 574.42,241.91 575.97,236.63 576.96,230.97 577.15,226.15 576.80,221.59 576.03,217.92 574.88,214.57 573.32,211.39 571.45,208.56 569.26,205.99 566.87,203.84 564.23,202.03 561.47,200.64 558.54,199.64 555.53,199.07 552.45,198.91 549.17,199.22 544.39,200.36 539.07,202.32 523.23,211.13 513.30,216.05 504.39,218.84 494.85,220.35 482.23,220.53 426.08,216.00 407.80,215.11 392.36,212.81 376.99,208.64 365.01,203.86 353.56,197.74 340.06,188.37 327.48,177.40 313.55,162.62 272.50,117.46 266.00,111.83 260.17,107.81 253.52,104.13 246.21,100.98 221.52,93.56 217.43,92.16 214.12,90.65 211.63,89.02 209.34,86.98 206.94,84.18 204.68,80.77 200.46,71.35 194.67,56.18 192.31,52.37 189.76,49.34 186.61,46.40 183.29,44.04 180.30,42.44 177.17,41.31 173.01,40.39 168.63,40.00 164.26,40.13 159.44,40.98 139.85,48.60 107.28,63.44 104.03,65.79 101.56,68.22 99.28,71.01 97.32,74.17 95.85,77.46 94.76,81.02 94.16,84.57 93.99,88.32 94.32,92.67 95.35,97.48 105.46,119.79 109.14,128.96 110.26,133.21 110.96,137.53 111.14,141.93 110.87,146.20 110.22,149.72 109.22,153.00 107.81,156.31 106.10,159.40 104.01,162.45 101.69,165.23 99.04,167.89 96.10,170.32 87.56,175.58 73.22,181.49 50.74,190.83 47.92,192.63 45.72,194.57 43.79,196.81 42.17,199.38 41.06,201.97 40.30,204.75 40.00,207.50 40.08,210.27 40.62,213.07 41.53,215.72 42.93,218.36 44.70,220.76 47.43,223.45 50.76,225.89 56.61,229.20 63.64,232.14 88.16,237.76 139.90,247.54 144.67,247.65 148.38,247.16 151.57,246.34 154.65,245.02 158.18,242.91 161.61,240.19 164.61,237.02 167.22,233.47 168.91,230.40 170.21,227.11 171.08,223.78 171.55,220.21 171.54,215.84 170.95,211.30 169.29,205.93 167.00,200.52 160.70,188.06 159.58,184.52 158.92,181.09 158.68,177.66 158.85,174.25 159.46,170.90 160.45,167.73 161.87,164.63 163.61,161.84 165.75,159.19 168.13,156.91 170.87,154.88 173.79,153.25 176.99,151.97 180.29,151.10 183.68,150.60 187.23,150.51 191.60,150.92 196.25,151.83 207.64,155.59 219.53,161.29 297.21,209.74 307.41,217.37 314.30,224.48 319.80,232.55 323.85,241.30 332.41,266.06 334.89,271.05 337.33,274.82 339.44,277.28 341.73,279.26 345.11,281.41 348.69,283.07 351.87,284.03 355.06,284.52 358.30,284.65 361.73,284.29 371.83,280.93 380.70,277.37 384.57,276.49 388.42,276.03 392.42,275.89 396.46,276.12 400.45,276.70 404.54,277.69 409.45,279.41 414.57,281.73 426.40,288.83 524.68,354.80 613.37,411.66 708.71,470.73 713.04,472.47 716.38,473.16 720.34,473.45 724.29,473.15 728.18,472.25 731.84,470.80 734.58,469.21 737.06,467.20 739.21,464.89 741.17,462.10 743.08,458.50 744.69,454.19 745.93,448.39 746.83,440.92 749.48,389.14 754.55,311.55 754.90,305.54"
        fill="none"
        stroke="#e94560"
        stroke-width="8.0"
        stroke-linejoin="round"
        stroke-linecap="round"/>
  <!-- Start/finish line -->
  <line x1="734.93" y1="304.38" x2="774.87" y2="306.71"
        stroke="#f5f5f5" stroke-width="9.6"
        stroke-linecap="round"/>
</svg>
