<?xml version="1.0" encoding="utf-8"?>
<svg xmlns="http://www.w3.org/2000/svg"
     width="783.7" height="800.0"
     viewBox="0 0 783.7 800.0">
  <rect width="100%" height="100%" fill="#1a1a2e"/>
  <!-- Track outline -->
  <polyline points="389.50,524.51 256.89,428.37 191.98,381.64 135.87,338.90 94.47,304.25 65.86,277.70 52.25,262.63 48.30,257.07 45.17,251.68 43.08,247.09 41.54,242.49 40.51,237.77 40.00,232.98 40.10,228.21 40.73,223.50 41.83,218.99 43.48,214.51 46.17,209.16 49.42,204.07 52.58,200.14 56.07,196.63 64.24,190.43 68.78,187.94 73.58,185.89 83.90,183.05 97.98,181.78 122.56,182.66 198.18,191.69 251.78,196.64 291.28,194.95 331.68,186.86 372.52,173.46 412.22,154.07 445.50,131.23 532.11,51.42 542.74,43.78 546.32,42.01 549.83,40.83 553.45,40.15 557.09,40.00 560.61,40.38 564.01,41.26 567.26,42.64 570.25,44.50 572.94,46.84 575.30,49.58 577.34,52.77 578.93,56.24 579.99,60.14 580.44,62.91 580.66,65.84 580.47,68.84 580.03,71.73 579.01,76.03 577.17,80.85 574.45,86.11 559.78,107.15 499.55,186.08 483.53,203.89 468.01,217.69 450.07,229.81 426.44,242.19 379.93,267.59 355.92,283.85 350.60,288.94 346.36,294.17 342.61,300.04 339.60,306.27 337.44,312.73 336.13,319.36 335.80,325.95 336.35,332.47 337.76,338.74 339.98,344.76 342.74,350.26 344.38,352.90 346.67,355.85 369.24,377.03 409.92,412.15 416.92,416.50 427.74,421.02 432.65,422.12 440.04,422.95 447.71,422.99 454.17,422.23 460.55,420.64 467.83,417.86 475.75,413.63 508.72,388.26 529.94,372.68 540.53,367.07 547.31,364.56 554.24,362.66 559.94,361.77 565.68,361.50 572.60,361.83 579.61,362.86 586.52,364.67 593.12,367.04 603.53,372.27 619.01,383.69 690.95,448.02 705.35,463.17 720.51,483.30 731.64,501.33 740.62,520.09 742.32,525.28 743.32,529.98 743.69,533.76 743.56,537.39 742.89,540.97 741.71,544.42 739.98,547.69 737.81,550.72 735.22,553.55 732.27,556.01 728.95,557.99 725.22,559.50 720.15,560.68 714.68,561.31 703.03,561.14 695.66,559.99 680.41,555.24 618.69,534.82 610.72,533.00 604.39,532.37 602.09,532.48 599.93,532.81 595.82,533.88 591.72,535.61 588.00,537.52 586.89,538.30 586.02,539.09 585.19,539.96 584.43,540.93 582.81,543.73 581.57,546.96 580.66,551.03 580.33,555.32 580.67,559.57 581.68,563.76 583.41,567.81 584.59,569.82 586.07,571.87 592.09,578.23 600.14,585.25 634.33,611.86 650.38,627.20 665.83,645.70 680.14,666.91 692.78,690.68 713.82,737.31 716.75,744.78 717.42,748.91 716.81,752.49 715.20,755.56 712.34,758.26 708.88,759.90 704.65,760.00 700.32,758.54 696.61,756.16 691.99,752.66 412.68,541.31 408.15,538.04 389.50,524.51"
        fill="none"
        stroke="#e94560"
        stroke-width="8.0"
        stroke-linejoin="round"
        stroke-linecap="round"/>
  <!-- Start/finish line -->
  <line x1="377.76" y1="540.70" x2="401.24" y2="508.32"
        stroke="#f5f5f5" stroke-width="9.6"
        stroke-linecap="round"/>
</svg>
