<?xml version="1.0" encoding="utf-8"?>
<svg xmlns="http://www.w3.org/2000/svg"
     width="309.2" height="800.0"
     viewBox="0 0 309.2 800.0">
  <rect width="100%" height="100%" fill="#1a1a2e"/>
  <!-- Track outline -->
  <polyline points="73.46,364.55 69.79,406.98 40.79,564.54 40.00,583.19 40.72,595.29 42.76,607.04 44.72,612.99 47.23,618.47 50.40,623.32 54.33,627.53 58.88,631.17 63.66,633.73 67.06,634.72 70.64,635.19 74.14,635.25 77.33,634.87 79.65,634.34 81.82,633.51 83.84,632.40 85.69,630.98 87.75,628.79 89.60,626.13 91.19,623.16 92.38,620.02 93.43,612.36 93.13,603.24 90.43,582.18 87.92,562.73 88.03,558.14 88.56,554.37 90.60,546.14 93.81,538.25 98.17,530.65 103.59,523.81 106.63,520.93 110.20,518.14 116.54,514.06 124.08,510.26 134.65,506.71 146.07,504.46 157.84,504.21 169.09,505.41 176.94,507.15 184.12,509.69 191.22,513.07 197.34,516.75 200.32,519.03 202.85,521.47 205.57,524.60 208.04,528.05 212.12,535.47 213.52,538.92 214.59,542.75 215.78,549.97 216.14,557.73 215.37,564.19 213.54,570.40 211.48,574.80 208.85,579.04 205.83,582.62 202.91,585.03 199.73,586.90 196.35,588.13 192.46,588.64 188.37,588.48 185.04,588.07 183.16,587.59 181.55,586.86 179.51,585.72 177.36,584.01 172.62,578.31 167.73,571.47 164.09,565.36 160.22,559.95 158.06,557.95 155.72,556.15 153.23,554.75 150.62,553.96 147.55,553.90 144.24,554.53 141.01,555.61 138.18,556.97 135.44,558.96 133.12,561.43 131.16,564.35 128.74,570.36 127.10,577.93 125.83,596.75 124.21,616.73 120.72,629.46 116.68,639.78 112.26,647.92 84.88,684.75 82.50,689.03 80.95,693.18 78.91,703.09 77.95,712.62 78.10,715.63 78.59,718.32 79.56,722.38 81.14,726.78 84.58,733.75 89.07,740.56 93.94,745.78 99.46,750.18 105.97,753.92 112.33,756.67 115.66,757.81 119.41,758.54 132.95,759.87 147.85,760.00 156.50,758.73 163.82,756.77 167.88,755.25 171.68,753.25 177.85,749.23 184.14,743.82 190.69,735.99 197.58,724.50 253.51,579.64 263.42,544.59 267.42,525.49 269.25,507.72 268.67,500.72 267.35,494.45 265.31,488.66 262.80,483.69 259.72,479.09 256.13,475.04 249.26,469.72 242.56,465.92 239.91,464.84 237.36,464.15 229.49,463.07 219.92,463.20 146.28,469.94 137.97,469.28 131.31,467.82 124.83,465.70 118.87,462.63 115.09,459.84 111.60,456.55 108.69,452.78 106.27,448.06 104.48,442.80 103.63,437.83 103.61,435.04 103.91,432.38 104.61,429.78 105.74,427.28 108.97,423.10 113.28,419.11 117.39,416.07 120.55,414.36 123.98,413.22 131.25,411.54 138.88,410.40 148.00,410.12 175.21,412.94 205.00,414.65 216.97,412.46 226.17,409.20 230.19,407.14 233.74,404.58 239.67,399.54 245.43,393.05 251.05,382.79 255.26,371.74 257.21,363.31 258.21,354.95 258.62,336.42 245.82,218.49 226.41,99.70 223.20,90.58 219.99,84.24 216.33,78.98 213.06,75.12 209.51,71.89 205.55,69.36 202.04,67.81 198.17,66.60 194.26,65.87 190.61,65.78 187.54,66.29 184.55,67.27 181.76,68.63 179.27,70.24 176.55,72.65 174.26,75.56 172.43,78.89 170.92,83.51 170.00,88.71 169.54,93.39 169.86,101.03 171.98,118.29 182.40,163.22 183.59,174.91 183.53,185.33 182.95,191.57 181.89,197.55 180.04,202.94 177.36,207.31 174.04,211.17 170.83,214.02 169.49,214.94 166.90,216.08 165.39,216.27 162.58,215.86 159.29,214.75 156.12,213.36 153.76,212.15 152.10,211.05 147.51,204.14 141.86,189.32 140.67,182.10 140.03,165.16 143.73,99.16 142.52,81.14 140.45,67.36 139.50,63.37 138.14,59.95 136.31,56.28 133.97,52.45 131.12,49.03 127.36,45.86 123.02,43.10 118.64,41.20 115.86,40.44 113.03,40.03 110.20,40.00 107.35,40.38 102.72,41.96 98.02,44.53 93.87,47.63 90.49,51.27 87.60,55.42 85.37,59.29 83.90,62.52 82.90,65.75 81.20,75.18 73.91,359.38 73.46,364.55"
        fill="none"
        stroke="#e94560"
        stroke-width="8.0"
        stroke-linejoin="round"
        stroke-linecap="round"/>
  <!-- Start/finish line -->
  <line x1="93.39" y1="366.27" x2="53.54" y2="362.82"
        stroke="#f5f5f5" stroke-width="9.6"
        stroke-linecap="round"/>
</svg>
