<?xml version="1.0" encoding="utf-8"?>
<svg xmlns="http://www.w3.org/2000/svg"
     width="800.0" height="291.2"
     viewBox="0 0 800.0 291.2">
  <rect width="100%" height="100%" fill="#1a1a2e"/>
  <!-- Track outline -->
  <polyline points="655.75,250.26 637.03,251.17 623.54,250.35 514.54,229.46 452.26,215.54 409.30,200.81 394.05,193.47 354.10,173.00 345.23,170.76 337.35,169.94 324.33,170.57 295.69,174.14 280.91,174.14 266.75,171.33 252.93,167.02 218.03,154.07 193.57,144.69 177.06,140.13 161.20,138.48 153.39,138.54 145.64,139.31 130.41,143.39 100.16,153.56 86.79,156.11 78.75,156.71 70.79,156.48 64.28,155.43 58.18,153.39 54.04,151.12 50.12,148.26 46.76,144.95 44.11,141.15 42.04,136.93 40.65,132.48 40.00,127.63 40.09,122.61 40.92,117.77 43.88,111.53 47.87,104.99 53.50,92.03 59.86,79.73 63.11,75.88 66.55,72.79 70.41,70.27 77.89,67.26 86.00,65.48 101.86,64.66 130.81,65.90 146.37,64.74 161.97,61.14 207.65,43.85 222.22,40.77 236.36,40.00 242.91,40.31 249.47,41.28 257.18,43.37 264.62,46.49 270.54,50.20 276.50,55.36 290.08,71.94 303.39,88.58 308.78,93.59 313.92,97.45 325.73,104.25 338.93,109.83 502.79,143.98 521.01,145.34 537.86,144.61 554.02,141.52 623.82,116.44 641.81,111.42 659.67,108.05 677.58,106.26 693.99,106.46 708.22,108.16 721.57,111.96 727.53,114.45 733.28,117.57 739.78,122.02 745.73,127.32 750.42,133.13 754.20,139.53 757.11,146.73 759.03,154.36 760.00,162.40 759.91,170.57 758.70,178.62 756.47,186.49 753.15,194.29 749.13,201.54 745.38,207.04 741.22,212.09 730.86,221.83 718.63,230.54 704.65,237.85 689.42,243.83 673.10,247.99 655.75,250.26"
        fill="none"
        stroke="#e94560"
        stroke-width="8.0"
        stroke-linejoin="round"
        stroke-linecap="round"/>
  <!-- Start/finish line -->
  <line x1="657.51" y1="270.18" x2="654.00" y2="230.34"
        stroke="#f5f5f5" stroke-width="9.6"
        stroke-linecap="round"/>
</svg>
