<?xml version="1.0" encoding="utf-8"?>
<svg xmlns="http://www.w3.org/2000/svg"
     width="800.0" height="395.5"
     viewBox="0 0 800.0 395.5">
  <rect width="100%" height="100%" fill="#1a1a2e"/>
  <!-- Track outline -->
  <polyline points="350.62,92.94 600.90,45.59 641.32,41.28 681.37,40.00 710.69,40.66 727.10,43.65 740.30,50.28 748.79,58.89 755.14,69.93 758.96,80.01 760.00,87.68 759.76,98.01 758.41,110.13 751.87,136.17 718.36,220.89 709.35,236.47 695.39,253.56 682.01,264.83 667.74,273.59 595.25,310.72 523.74,337.85 468.11,351.21 425.65,355.47 390.33,354.66 342.31,350.68 217.88,328.57 205.54,325.30 187.46,316.16 169.92,303.33 140.84,280.65 127.74,272.88 113.93,267.77 93.49,262.80 63.19,254.51 55.12,249.87 47.64,242.25 43.64,235.62 40.40,225.96 40.00,215.96 41.16,206.68 45.04,194.70 52.22,180.54 61.87,165.11 74.70,151.85 88.45,141.86 107.45,131.87 126.51,125.66 142.89,122.73 157.40,121.97 176.64,122.49 190.54,122.54 203.71,120.74 350.62,92.94"
        fill="none"
        stroke="#e94560"
        stroke-width="8.0"
        stroke-linejoin="round"
        stroke-linecap="round"/>
  <!-- Start/finish line -->
  <line x1="346.90" y1="73.29" x2="354.34" y2="112.59"
        stroke="#f5f5f5" stroke-width="9.6"
        stroke-linecap="round"/>
</svg>
