<?xml version="1.0" encoding="utf-8"?>
<svg xmlns="http://www.w3.org/2000/svg"
     width="800.0" height="605.3"
     viewBox="0 0 800.0 605.3">
  <rect width="100%" height="100%" fill="#1a1a2e"/>
  <!-- Track outline -->
  <polyline points="599.49,395.98 600.48,396.78 630.64,423.75 645.44,438.78 653.81,449.86 656.83,455.11 659.26,460.46 661.01,465.55 662.30,470.96 663.89,486.22 664.65,530.12 665.78,537.32 667.46,543.17 669.53,548.00 672.10,552.30 674.92,555.85 678.15,558.90 681.79,561.41 685.72,563.35 689.61,564.61 693.84,565.27 700.01,565.20 707.03,564.24 718.69,561.51 730.40,557.70 738.37,554.18 745.27,550.19 750.34,546.34 754.40,542.22 756.65,538.88 758.24,535.32 759.43,531.09 760.00,526.64 759.88,521.98 759.02,517.20 757.14,511.62 754.23,505.76 748.75,497.39 741.25,488.14 705.39,453.60 643.57,398.31 619.56,374.43 558.99,307.69 533.64,286.84 485.99,259.19 459.65,243.31 435.37,226.31 404.85,202.11 358.27,161.03 248.93,62.18 229.97,49.49 221.59,45.31 213.28,42.24 206.12,40.70 198.37,40.00 169.45,41.39 143.45,42.19 104.07,42.79 96.46,44.07 90.20,45.96 85.51,48.00 81.17,50.74 75.73,55.48 70.55,61.32 65.38,68.71 60.57,77.54 48.03,111.12 40.78,141.72 40.00,150.01 40.13,157.32 40.94,162.97 42.37,168.15 44.22,172.64 46.57,176.77 49.22,180.37 52.47,183.71 57.62,187.66 63.76,191.23 81.59,197.64 120.30,207.54 136.40,213.34 146.89,218.90 159.67,228.55 171.99,240.75 186.63,254.98 191.24,258.18 195.79,260.58 200.20,262.36 205.44,263.63 220.28,264.88 236.80,264.97 249.19,264.30 259.82,262.81 264.91,261.35 269.24,259.42 273.36,256.95 276.99,254.01 279.74,250.92 281.92,247.48 283.54,243.61 284.51,239.57 284.77,235.84 284.43,232.17 283.56,228.70 282.12,225.35 279.87,221.83 276.96,218.53 273.02,215.19 268.30,212.19 261.46,208.95 253.30,206.20 223.57,201.32 207.27,198.64 194.61,194.80 181.82,188.51 171.53,181.22 162.00,171.95 151.20,158.05 135.33,132.56 129.49,120.41 127.86,115.54 126.83,110.86 126.51,106.82 126.72,102.92 127.42,99.24 128.62,95.68 130.38,92.16 132.60,88.85 135.26,85.73 138.31,82.96 141.79,80.60 145.60,78.67 149.79,77.16 154.21,76.12 158.97,75.55 163.90,75.49 174.91,76.89 187.07,80.33 202.66,87.31 217.15,96.06 236.54,110.55 261.61,132.52 321.60,188.58 415.38,273.18 423.67,278.97 430.21,282.53 434.67,284.48 439.23,285.68 446.45,285.85 453.68,285.62 462.42,286.34 466.56,287.40 470.72,288.96 480.92,294.55 498.39,307.60 533.19,338.05 580.59,379.89 596.51,393.59 599.49,395.98"
        fill="none"
        stroke="#e94560"
        stroke-width="8.0"
        stroke-linejoin="round"
        stroke-linecap="round"/>
  <!-- Start/finish line -->
  <line x1="612.01" y1="380.39" x2="586.97" y2="411.58"
        stroke="#f5f5f5" stroke-width="9.6"
        stroke-linecap="round"/>
</svg>
