<?xml version="1.0" encoding="utf-8"?>
<svg xmlns="http://www.w3.org/2000/svg"
     width="800.0" height="681.5"
     viewBox="0 0 800.0 681.5">
  <rect width="100%" height="100%" fill="#1a1a2e"/>
  <!-- Track outline -->
  <polyline points="428.22,143.46 404.83,141.71 351.73,134.90 295.67,119.23 259.03,102.37 211.96,70.82 182.32,55.67 155.53,44.64 146.39,42.26 137.06,41.19 106.61,40.00 76.01,41.06 68.53,42.00 62.28,43.28 56.73,45.41 52.36,48.05 48.51,51.28 45.37,55.07 43.15,59.41 41.63,64.27 40.59,69.16 40.00,75.81 40.30,82.45 41.18,88.24 43.18,95.73 95.91,244.45 115.30,281.06 134.69,309.80 148.83,326.19 161.82,337.82 167.96,341.61 174.36,344.16 182.84,347.01 192.46,349.53 200.86,350.55 204.78,350.16 208.15,349.10 212.15,347.35 231.50,336.24 249.59,322.92 252.78,319.68 255.07,316.66 256.85,312.95 258.55,305.89 259.33,297.63 259.18,289.92 257.62,282.30 254.74,275.02 248.93,264.33 242.30,255.22 238.60,252.07 234.72,249.81 229.61,247.13 223.10,244.87 199.68,242.70 175.66,241.30 167.89,240.19 161.34,238.62 154.97,236.19 148.39,232.74 136.99,224.99 126.18,216.18 116.01,204.98 112.23,200.21 108.98,194.68 105.09,183.48 102.54,171.86 101.95,165.56 102.20,159.81 102.72,156.06 103.61,152.44 105.02,149.12 107.27,146.10 110.09,143.46 113.12,141.08 117.89,137.84 123.00,135.33 128.26,133.84 133.70,133.07 139.17,132.82 144.83,133.07 151.01,133.58 159.08,135.33 290.41,191.10 301.14,196.00 306.51,199.02 312.28,203.15 325.05,215.16 337.74,229.16 351.17,248.54 357.76,261.14 361.90,274.55 363.27,281.62 363.94,289.54 360.31,322.15 345.73,408.88 345.18,425.52 346.73,439.06 348.17,444.90 350.62,451.62 361.50,476.32 378.44,506.12 413.78,548.31 450.94,586.16 483.98,615.41 504.89,629.08 520.47,636.79 527.76,639.21 535.01,640.74 539.64,641.30 544.19,641.47 548.48,640.92 551.96,639.72 555.22,637.98 558.14,635.68 560.80,632.61 563.14,628.95 565.13,624.95 567.02,620.48 568.54,615.67 569.39,610.43 569.17,602.77 567.87,594.51 566.02,587.23 563.32,581.14 560.06,575.90 556.55,570.88 552.48,566.15 547.30,561.17 540.64,555.89 520.43,543.67 497.19,528.86 475.36,510.08 456.23,489.90 445.13,474.70 436.10,459.07 427.92,441.66 421.81,424.67 419.30,413.69 418.11,403.55 417.85,395.21 418.67,387.16 420.00,381.42 421.96,375.80 424.48,370.81 427.36,367.07 430.77,363.92 434.51,361.32 441.13,358.34 448.24,356.51 455.08,355.57 462.00,355.44 469.44,356.08 476.84,357.49 483.58,359.53 490.09,362.21 496.01,365.15 502.30,369.54 516.47,384.23 533.79,404.96 613.72,506.50 619.35,511.61 624.27,514.59 628.52,516.25 633.00,517.36 637.48,518.00 643.58,518.17 649.65,517.36 653.98,516.30 658.27,514.76 662.20,512.63 665.08,510.34 667.60,507.53 670.60,503.48 689.99,472.53 712.26,428.67 739.68,351.70 758.26,285.88 759.70,277.32 760.00,269.61 759.30,245.56 756.82,222.10 754.93,214.77 752.41,208.81 748.79,202.77 744.38,197.36 739.09,192.85 733.17,189.19 727.58,186.59 719.44,184.25 430.33,143.63 428.22,143.46"
        fill="none"
        stroke="#e94560"
        stroke-width="8.0"
        stroke-linejoin="round"
        stroke-linecap="round"/>
  <!-- Start/finish line -->
  <line x1="426.72" y1="163.40" x2="429.71" y2="123.52"
        stroke="#f5f5f5" stroke-width="9.6"
        stroke-linecap="round"/>
</svg>
