<?xml version="1.0" encoding="utf-8"?>
<svg xmlns="http://www.w3.org/2000/svg"
     width="523.2" height="800.0"
     viewBox="0 0 523.2 800.0">
  <rect width="100%" height="100%" fill="#1a1a2e"/>
  <!-- Track outline -->
  <polyline points="244.52,554.29 245.47,557.96 287.56,693.32 298.48,714.32 309.63,729.29 316.66,736.39 324.00,741.92 332.39,746.66 354.74,754.56 377.79,759.07 391.91,760.00 405.04,758.70 418.21,755.17 430.88,749.27 442.58,741.09 453.50,730.12 464.65,714.70 473.87,695.88 480.32,673.01 483.23,646.67 480.03,609.45 470.73,561.31 417.14,323.49 359.09,109.00 350.25,90.37 341.55,78.66 330.14,66.53 316.97,56.77 304.70,50.45 291.19,45.62 277.10,42.23 253.82,40.00 227.29,41.44 168.78,51.01 113.92,64.95 97.85,71.32 84.86,78.99 72.90,88.60 62.24,100.13 53.63,112.30 46.74,125.92 43.51,134.79 41.09,144.27 40.00,155.24 44.06,187.48 53.40,228.65 80.51,350.12 109.23,452.81 113.26,460.01 116.98,464.19 121.07,467.45 126.11,470.56 131.56,472.70 137.12,473.86 142.85,474.14 148.70,473.49 154.55,471.72 161.20,468.38 167.86,463.78 173.27,458.48 175.52,455.50 177.42,452.34 178.89,448.95 179.78,445.19 179.93,439.33 178.83,432.78 176.76,424.14 140.98,325.91 105.11,224.57 102.43,208.81 102.20,195.90 103.81,181.17 107.36,167.04 113.29,153.24 120.49,141.48 126.63,134.28 133.95,128.33 149.99,119.13 168.55,111.70 188.19,106.91 207.58,104.87 222.65,105.33 237.66,108.03 257.60,114.67 276.03,123.22 285.11,128.89 292.92,135.30 299.97,142.13 306.69,150.82 315.19,165.55 324.40,188.37 409.16,537.38 425.93,616.37 427.20,636.40 426.13,653.55 423.25,665.86 418.78,676.41 414.81,682.82 410.14,688.44 405.13,693.27 399.60,697.41 393.66,700.66 387.30,702.99 378.97,704.57 370.10,704.94 361.91,703.96 355.95,702.06 350.45,699.31 345.84,695.83 343.10,693.00 340.86,689.74 339.07,685.79 337.60,680.26 336.76,673.76 336.48,665.63 341.83,628.50 346.36,577.01 322.07,416.57 289.34,266.25 282.34,237.11 275.00,216.11 269.29,205.24 262.93,195.94 256.33,188.46 250.48,183.49 244.40,179.91 238.15,177.36 231.44,175.68 224.49,175.08 217.35,175.54 208.71,177.36 199.78,180.52 191.85,184.74 186.58,188.74 181.94,193.48 177.79,199.33 173.53,207.33 169.84,216.67 167.54,226.84 167.54,244.08 170.97,266.76 244.52,554.29"
        fill="none"
        stroke="#e94560"
        stroke-width="8.0"
        stroke-linejoin="round"
        stroke-linecap="round"/>
  <!-- Start/finish line -->
  <line x1="263.89" y1="549.34" x2="225.14" y2="559.25"
        stroke="#f5f5f5" stroke-width="9.6"
        stroke-linecap="round"/>
</svg>
