<?xml version="1.0" encoding="utf-8"?>
<svg xmlns="http://www.w3.org/2000/svg"
     width="800.0" height="607.4"
     viewBox="0 0 800.0 607.4">
  <rect width="100%" height="100%" fill="#1a1a2e"/>
  <!-- Track outline -->
  <polyline points="391.12,70.15 693.35,40.00 711.14,40.67 723.73,43.46 731.64,46.45 739.08,50.33 745.46,54.93 749.54,58.89 753.01,63.28 755.81,68.21 757.86,73.40 759.33,79.09 760.00,84.74 759.83,90.18 758.95,95.66 757.25,100.81 754.12,106.50 749.71,111.69 743.57,117.34 696.01,147.66 643.40,174.94 626.01,182.15 611.08,186.28 598.12,188.22 584.99,188.31 569.07,186.16 550.03,181.05 491.23,156.30 433.60,133.24 422.42,131.08 413.29,130.49 404.36,131.17 395.20,132.90 386.24,135.85 377.77,139.98 370.45,144.62 363.59,150.31 357.16,158.20 345.92,184.64 335.82,213.06 329.22,227.90 321.11,241.90 295.03,269.48 269.75,296.68 264.62,305.28 260.93,313.46 258.57,321.90 257.54,330.33 257.63,338.98 258.90,347.07 261.70,354.66 265.81,361.66 270.70,368.07 277.88,375.28 286.15,381.61 294.03,386.12 299.25,388.06 304.21,388.95 309.46,388.90 316.17,387.72 323.31,385.19 331.57,380.98 362.65,356.18 396.98,328.18 447.17,301.87 482.08,287.66 514.85,277.58 530.39,275.47 543.71,276.14 550.48,277.66 556.80,279.98 562.71,283.10 568.01,286.73 573.01,291.03 577.28,296.05 580.53,301.24 583.25,306.97 585.02,312.96 585.77,318.82 585.74,324.93 584.91,330.71 583.08,336.32 580.33,341.55 576.84,346.40 570.84,352.30 563.55,357.45 555.80,361.66 543.04,365.71 528.39,368.24 499.45,370.94 469.40,374.86 450.36,380.89 431.24,390.00 393.95,414.50 363.29,436.64 356.60,441.24 242.45,514.86 175.27,557.03 160.54,563.27 147.22,566.56 137.98,567.45 128.74,567.19 120.27,565.84 114.23,563.99 108.70,561.37 103.43,557.71 97.85,552.35 92.58,545.90 88.56,539.07 86.53,533.75 85.28,528.23 84.90,522.83 85.20,518.99 86.01,515.24 87.25,511.53 88.97,508.07 93.66,502.30 100.07,497.19 107.87,491.71 140.45,474.04 173.38,454.94 185.95,443.34 195.14,431.11 198.66,424.71 201.33,418.00 203.41,409.69 204.71,376.97 205.63,343.57 208.51,330.08 212.92,318.48 221.05,304.02 232.26,289.47 261.43,263.79 288.98,238.40 294.45,230.18 298.39,222.25 300.86,214.41 301.72,208.42 301.69,202.48 300.86,196.45 298.50,188.43 294.84,180.25 290.45,172.79 284.79,165.58 278.24,159.25 271.14,153.86 262.87,149.13 253.99,145.59 244.42,142.98 224.94,140.61 204.35,141.08 183.23,144.11 163.87,149.64 152.60,155.08 142.75,162.08 133.73,170.60 125.88,180.67 119.83,191.60 115.45,203.61 113.78,211.33 112.92,219.39 113.23,228.49 120.33,257.00 131.43,288.80 145.66,324.01 156.74,355.72 158.01,364.78 158.18,372.84 157.35,380.01 155.71,385.61 153.32,390.63 150.44,395.06 146.69,399.28 142.33,402.82 137.70,405.73 132.37,408.13 126.68,409.74 120.88,410.58 114.61,410.62 108.18,409.86 101.88,408.30 95.75,406.11 89.75,403.20 83.92,399.19 77.82,393.58 71.94,386.71 66.28,378.24 55.40,355.59 46.58,330.08 42.19,310.05 40.06,289.34 40.00,262.95 42.50,236.34 47.44,212.89 54.37,191.26 62.56,172.79 71.91,156.64 80.57,144.79 90.36,134.54 104.85,123.16 121.47,113.37 142.97,104.35 167.45,97.22 248.94,84.36 391.12,70.15"
        fill="none"
        stroke="#e94560"
        stroke-width="8.0"
        stroke-linejoin="round"
        stroke-linecap="round"/>
  <!-- Start/finish line -->
  <line x1="389.13" y1="50.25" x2="393.11" y2="90.05"
        stroke="#f5f5f5" stroke-width="9.6"
        stroke-linecap="round"/>
</svg>
