<?xml version="1.0" encoding="utf-8"?>
<svg xmlns="http://www.w3.org/2000/svg"
     width="701.5" height="800.0"
     viewBox="0 0 701.5 800.0">
  <rect width="100%" height="100%" fill="#1a1a2e"/>
  <!-- Track outline -->
  <polyline points="191.39,257.38 198.75,268.58 222.01,299.02 230.09,306.69 237.47,312.18 250.02,319.85 279.06,333.47 295.39,337.52 315.61,340.32 335.37,344.34 341.21,347.02 346.02,350.12 349.89,353.68 351.85,356.23 353.47,359.00 354.67,361.88 355.48,364.78 355.86,367.53 355.93,370.33 355.59,373.17 354.81,376.02 352.44,380.82 348.92,385.65 344.99,389.73 340.98,392.64 336.60,394.92 332.26,396.62 327.29,397.73 321.63,398.12 290.15,396.69 258.34,393.09 241.72,389.70 225.37,384.96 210.13,378.27 196.53,370.04 153.24,333.79 109.60,297.91 101.92,293.17 95.17,290.40 89.08,288.76 82.66,287.78 76.49,287.85 70.94,289.28 65.66,291.67 61.25,294.22 58.19,296.47 55.46,299.38 48.99,308.06 43.29,318.67 41.28,325.24 40.13,331.96 40.00,338.56 40.92,344.63 42.73,350.54 45.10,356.00 49.55,362.76 54.43,368.31 60.65,373.50 78.50,385.65 103.13,398.81 166.11,422.03 223.20,439.01 239.17,441.32 262.55,441.91 287.58,440.74 303.02,438.06 316.28,434.47 331.45,428.46 358.97,411.15 375.30,399.04 389.82,386.30 397.42,377.19 403.11,368.24 406.28,361.78 408.95,353.97 415.70,319.75 422.73,287.06 424.40,283.02 426.06,280.08 428.27,277.69 430.65,276.03 433.42,274.66 436.42,273.68 439.46,273.19 443.00,273.19 446.73,273.77 450.44,274.82 453.91,276.19 458.16,278.77 462.08,282.04 465.50,285.50 468.72,289.64 471.99,295.59 502.28,363.38 528.74,433.94 529.80,440.21 529.91,444.95 529.39,448.97 528.97,450.89 528.41,452.56 527.60,454.12 526.42,455.63 522.95,458.34 518.18,460.75 512.19,463.14 452.10,477.83 378.57,491.32 293.94,500.04 279.04,503.60 271.18,506.08 262.86,509.64 248.21,518.26 234.61,528.32 228.52,534.55 223.65,541.08 214.58,557.05 187.61,615.41 172.10,644.37 160.20,669.12 158.16,677.74 157.78,684.70 157.96,687.54 158.43,690.09 159.44,692.60 161.70,695.90 164.74,699.10 167.96,701.78 170.71,703.57 173.60,704.91 176.84,705.92 182.01,706.84 187.81,707.16 193.40,706.68 198.46,705.24 203.31,702.99 207.90,700.08 215.14,693.12 221.09,685.65 226.04,677.22 273.09,580.11 280.96,567.21 288.21,558.55 291.59,556.07 295.01,554.37 298.43,553.30 300.78,552.84 303.15,552.61 305.52,552.77 307.83,553.33 310.58,554.77 313.33,556.89 315.88,559.34 318.01,561.72 320.45,565.38 322.21,569.36 323.71,574.52 324.74,580.27 325.66,596.14 320.78,695.77 323.44,712.36 328.21,730.64 334.32,747.53 336.49,751.38 338.75,754.38 341.45,756.73 344.00,758.14 346.89,759.18 349.93,759.84 352.97,760.00 357.63,759.25 362.41,757.55 366.84,755.23 370.94,752.16 374.67,748.44 377.92,744.49 381.45,738.71 384.05,733.03 385.30,729.70 386.22,725.81 389.44,693.32 385.88,611.78 387.89,580.20 390.22,566.78 393.06,555.62 394.65,551.57 396.46,548.20 398.72,544.90 401.32,541.87 403.96,539.09 407.16,536.38 413.38,532.14 421.03,528.12 433.15,523.84 445.70,520.81 454.25,519.66 462.32,519.66 467.67,520.32 472.91,521.46 477.54,523.19 480.78,525.15 483.60,527.50 485.93,530.24 487.76,533.64 489.08,537.43 489.86,541.02 490.02,544.71 489.66,548.33 487.98,556.46 481.79,579.68 476.84,604.43 476.89,610.08 477.63,614.82 479.26,619.16 481.38,622.52 484.16,625.69 487.22,628.50 490.22,630.62 493.22,631.96 496.26,632.68 499.12,633.14 501.83,633.40 504.96,633.33 535.48,629.58 570.35,621.61 599.15,611.42 625.30,599.34 635.41,592.45 643.24,584.78 650.71,574.07 656.06,563.88 657.38,560.25 658.25,556.63 661.36,540.79 661.47,523.06 659.46,506.89 633.06,413.76 607.22,279.23 596.62,250.88 589.30,235.34 581.14,221.53 576.93,216.17 572.57,211.66 567.85,208.11 562.93,205.79 557.74,204.25 553.20,203.50 551.47,203.40 549.95,203.47 548.50,203.80 547.04,204.42 544.78,206.24 542.44,208.89 540.38,211.70 538.90,213.98 538.18,215.45 537.76,216.92 537.22,219.24 537.00,222.28 537.89,233.25 540.98,248.70 578.39,347.70 594.56,394.01 598.07,409.55 599.91,420.82 600.73,432.41 600.29,439.50 599.24,446.42 596.86,452.52 595.52,454.12 593.89,455.10 590.56,455.24 584.45,452.98 579.28,450.17 577.29,448.61 575.70,446.65 572.93,442.47 569.33,435.58 523.55,325.37 474.52,213.00 468.30,203.76 462.91,198.41 460.47,196.61 458.05,195.34 455.25,194.52 450.22,194.19 444.40,194.78 438.70,196.12 432.84,198.47 427.09,201.71 421.59,205.56 413.60,212.81 405.55,222.34 394.74,239.68 383.04,260.35 373.13,273.61 371.03,274.85 369.13,275.50 367.25,275.70 365.28,275.67 363.22,275.47 361.03,275.05 358.81,274.33 356.75,273.32 354.99,272.01 352.93,269.27 351.27,265.68 350.02,261.89 349.13,258.56 348.63,254.80 348.66,251.18 349.35,241.48 363.80,110.96 363.58,88.07 362.08,67.72 359.06,53.19 357.25,49.31 355.14,46.53 352.68,44.25 350.76,42.78 348.68,41.50 346.40,40.52 343.98,40.00 339.24,40.33 334.05,41.70 329.55,43.33 326.22,44.96 323.04,47.25 315.03,54.63 307.09,64.26 301.18,76.05 297.27,87.02 295.79,94.83 294.32,109.49 293.26,189.20 292.64,195.70 291.81,200.82 290.20,205.26 288.45,208.07 286.26,210.62 283.91,212.81 281.65,214.41 280.15,215.16 278.68,215.62 277.16,215.84 275.48,215.91 271.74,215.35 267.63,214.15 263.91,212.74 260.47,211.01 257.38,208.99 251.41,204.19 240.54,192.66 231.68,180.64 224.18,166.47 213.58,139.07 202.95,113.70 201.01,110.60 199.22,108.41 196.96,106.65 194.12,105.28 190.74,104.23 187.31,103.58 184.32,103.35 182.53,103.48 180.94,103.81 179.42,104.39 177.78,105.28 173.82,108.51 169.73,113.11 166.26,118.40 163.35,125.88 161.36,134.37 160.11,142.89 159.66,154.45 160.45,166.83 166.29,207.49 170.94,221.33 178.08,237.07 191.39,257.38"
        fill="none"
        stroke="#e94560"
        stroke-width="8.0"
        stroke-linejoin="round"
        stroke-linecap="round"/>
  <!-- Start/finish line -->
  <line x1="208.11" y1="246.41" x2="174.66" y2="268.35"
        stroke="#f5f5f5" stroke-width="9.6"
        stroke-linecap="round"/>
</svg>
