<?xml version="1.0" encoding="utf-8"?>
<svg xmlns="http://www.w3.org/2000/svg"
     width="580.5" height="800.0"
     viewBox="0 0 580.5 800.0">
  <rect width="100%" height="100%" fill="#1a1a2e"/>
  <!-- Track outline -->
  <polyline points="85.31,212.78 48.12,185.47 44.92,182.75 42.46,179.88 40.43,176.46 40.00,173.28 40.51,170.42 41.93,167.53 90.01,97.03 92.23,93.89 94.42,91.33 97.08,89.89 99.96,89.81 104.16,91.83 109.40,95.15 115.84,98.83 125.80,103.13 131.00,104.29 138.84,105.18 146.98,105.22 153.82,104.42 160.59,102.73 168.31,99.78 176.72,95.29 211.69,68.38 234.20,51.86 245.44,45.91 252.62,43.24 259.98,41.23 266.02,40.29 272.11,40.00 279.44,40.35 286.89,41.44 294.22,43.36 301.21,45.88 312.26,51.43 328.67,63.54 404.99,131.77 420.27,147.83 436.35,169.19 448.15,188.31 457.68,208.21 459.48,213.72 460.54,218.70 460.94,222.71 460.80,226.56 460.09,230.36 458.83,234.02 457.00,237.48 454.69,240.70 451.95,243.70 448.82,246.31 445.30,248.41 441.34,250.02 435.96,251.27 430.16,251.93 417.80,251.76 409.99,250.53 393.80,245.49 328.34,223.84 319.88,221.91 313.17,221.23 310.73,221.36 308.43,221.70 304.09,222.84 299.73,224.67 295.78,226.70 294.61,227.53 293.69,228.37 292.81,229.29 292.00,230.32 290.28,233.29 288.97,236.72 288.00,241.03 287.65,245.58 288.01,250.09 289.08,254.53 290.92,258.82 292.17,260.96 293.73,263.14 300.13,269.88 308.66,277.33 344.93,305.55 361.96,321.82 378.35,341.45 393.52,363.95 406.93,389.16 464.42,514.20 494.64,566.65 527.20,616.10 534.90,631.36 538.75,644.00 540.50,657.05 540.21,670.36 537.70,683.38 531.75,699.25 524.71,711.56 510.99,728.93 496.66,743.43 491.85,747.33 487.03,750.53 481.78,753.22 476.15,755.46 468.96,757.65 461.65,759.23 455.63,759.89 449.96,760.00 441.37,759.13 435.83,757.85 425.35,753.75 420.55,751.09 415.90,747.86 410.52,743.19 405.23,737.68 393.63,722.16 337.89,634.52 327.87,615.43 321.95,599.44 317.48,579.34 316.16,563.38 317.32,547.52 321.91,527.81 341.39,459.00 342.55,448.09 342.30,438.64 341.00,428.39 338.51,418.36 334.79,408.66 329.92,399.38 323.91,390.55 316.58,382.05 292.83,362.21 209.33,301.64 144.07,255.35 109.82,230.72 105.01,227.25 85.31,212.78"
        fill="none"
        stroke="#e94560"
        stroke-width="8.0"
        stroke-linejoin="round"
        stroke-linecap="round"/>
  <!-- Start/finish line -->
  <line x1="73.48" y1="228.90" x2="97.15" y2="196.66"
        stroke="#f5f5f5" stroke-width="9.6"
        stroke-linecap="round"/>
</svg>
