<?xml version="1.0" encoding="utf-8"?>
<svg xmlns="http://www.w3.org/2000/svg"
     width="510.4" height="800.0"
     viewBox="0 0 510.4 800.0">
  <rect width="100%" height="100%" fill="#1a1a2e"/>
  <!-- Track outline -->
  <polyline points="87.20,171.46 109.70,108.36 116.36,93.22 120.06,86.39 124.11,79.97 128.61,73.85 133.60,68.09 139.02,62.84 144.86,58.12 151.11,54.00 157.77,50.49 164.80,47.49 172.09,44.91 179.67,42.88 187.38,41.49 195.25,40.58 211.21,40.00 219.16,40.24 226.99,40.89 234.69,41.97 242.26,43.57 249.66,45.73 256.75,48.52 263.51,51.81 269.98,55.75 276.06,60.31 287.51,70.78 292.78,76.73 297.81,83.16 302.56,90.18 311.37,105.32 327.54,139.64 366.08,228.13 378.33,247.16 409.23,282.65 447.97,329.88 452.69,336.53 456.96,343.27 460.71,350.24 463.91,357.45 466.48,364.94 468.36,372.75 469.70,380.69 470.36,388.66 470.21,396.81 469.34,404.88 467.83,412.98 465.50,421.18 462.51,429.23 458.89,437.28 454.62,445.30 449.76,453.21 444.33,461.01 438.32,468.57 424.68,483.28 393.49,512.85 328.33,579.69 261.31,653.01 175.51,745.83 164.60,755.38 162.08,756.95 159.55,758.09 155.54,759.32 151.47,760.00 148.78,759.91 146.25,759.43 143.70,758.62 141.28,757.50 139.01,756.04 136.95,754.39 135.48,752.96 134.09,751.31 129.99,745.24 128.80,742.52 127.13,736.33 126.71,733.08 126.62,727.94 127.40,722.41 134.61,692.09 135.49,681.54 135.21,671.39 131.05,649.36 125.12,628.19 123.89,621.35 123.32,614.42 123.32,607.35 124.09,600.33 125.60,593.58 127.78,587.04 130.72,580.87 134.16,575.07 138.24,569.72 142.96,564.91 148.25,560.55 153.97,556.77 160.15,553.46 166.73,550.78 173.82,548.83 181.19,547.50 188.96,546.69 196.98,546.39 257.11,547.95 263.14,547.19 267.56,546.16 270.04,545.41 272.39,544.42 276.72,542.04 280.64,539.47 281.89,538.46 283.05,537.28 286.59,533.30 289.99,528.55 291.64,524.73 292.59,521.06 292.84,518.52 292.80,515.94 292.50,511.94 291.88,508.03 291.17,505.73 290.28,503.62 287.88,498.88 286.42,496.89 284.71,494.99 282.22,492.63 279.50,490.48 274.46,487.77 268.89,485.56 262.91,484.08 214.75,478.83 199.27,475.64 191.32,473.56 183.33,470.91 175.20,467.76 167.29,464.11 159.51,459.92 152.13,455.21 144.90,450.08 137.78,444.53 124.19,432.40 111.96,419.59 100.89,407.31 86.56,389.00 50.08,344.45 46.68,339.35 43.96,334.02 42.01,328.46 40.75,322.58 40.00,316.59 40.02,310.19 40.70,303.49 43.50,294.30 45.38,288.74 87.20,171.46"
        fill="none"
        stroke="#e94560"
        stroke-width="8.0"
        stroke-linejoin="round"
        stroke-linecap="round"/>
  <!-- Start/finish line -->
  <line x1="68.36" y1="164.74" x2="106.04" y2="178.18"
        stroke="#f5f5f5" stroke-width="9.6"
        stroke-linecap="round"/>
</svg>
