<?xml version="1.0" encoding="utf-8"?>
<svg xmlns="http://www.w3.org/2000/svg"
     width="800.0" height="512.7"
     viewBox="0 0 800.0 512.7">
  <rect width="100%" height="100%" fill="#1a1a2e"/>
  <!-- Track outline -->
  <polyline points="269.50,40.57 242.10,42.73 185.49,53.13 170.70,58.21 156.60,64.86 134.28,77.61 112.00,93.37 93.18,111.00 77.47,128.92 63.37,150.33 52.89,172.42 44.55,195.32 41.69,208.06 40.00,222.20 41.45,271.26 45.08,291.33 52.05,313.03 60.67,334.45 72.76,354.95 88.03,375.17 104.67,394.00 123.44,408.66 149.31,424.42 201.20,445.45 228.92,451.92 261.00,455.80 492.19,472.66 586.51,470.65 616.36,464.95 645.37,456.23 670.15,444.01 694.12,429.07 708.47,416.75 719.95,404.63 730.83,389.97 741.06,371.91 750.09,352.37 753.67,340.77 756.05,328.75 760.00,286.78 759.56,272.60 757.54,258.42 751.94,236.62 743.72,214.20 732.28,191.92 720.07,172.52 705.33,154.55 691.55,140.51 674.34,125.95 643.68,105.83 607.22,87.48 558.67,70.85 502.34,58.30 300.60,40.53 276.79,40.00 269.50,40.57"
        fill="none"
        stroke="#e94560"
        stroke-width="8.0"
        stroke-linejoin="round"
        stroke-linecap="round"/>
  <!-- Start/finish line -->
  <line x1="271.07" y1="60.51" x2="267.93" y2="20.64"
        stroke="#f5f5f5" stroke-width="9.6"
        stroke-linecap="round"/>
</svg>
