<?xml version="1.0" encoding="utf-8"?>
<svg xmlns="http://www.w3.org/2000/svg"
     width="665.6" height="800.0"
     viewBox="0 0 665.6 800.0">
  <rect width="100%" height="100%" fill="#1a1a2e"/>
  <!-- Track outline -->
  <polyline points="176.24,338.20 46.43,623.17 41.29,644.09 40.00,661.25 40.18,670.22 41.22,679.54 43.93,692.08 48.65,704.67 53.91,713.09 60.38,721.11 67.35,728.12 77.82,735.87 88.30,741.62 94.52,744.20 101.81,746.19 167.16,756.24 209.02,760.00 246.95,759.37 258.60,756.42 268.47,752.21 277.23,747.19 284.13,742.30 290.21,736.73 295.46,730.30 300.39,721.97 304.33,712.64 306.97,702.95 307.97,687.28 306.58,672.34 304.36,663.06 301.22,654.37 292.06,634.81 237.15,552.49 225.89,529.13 218.56,508.12 215.81,494.58 215.13,481.86 216.31,469.55 219.24,457.86 224.00,447.09 230.29,437.40 238.19,428.80 247.20,421.64 257.25,415.98 268.36,412.00 275.62,410.46 283.27,409.51 291.35,409.19 299.86,409.64 323.13,414.40 389.19,436.95 426.09,453.65 434.06,458.32 440.96,463.39 449.47,471.09 457.01,480.01 462.51,490.10 466.27,500.43 467.88,507.90 468.34,515.46 467.55,525.55 465.45,535.92 461.91,546.38 457.51,555.75 454.47,560.64 450.25,565.58 425.94,585.91 400.88,607.32 395.02,614.61 390.77,621.99 384.87,634.54 380.61,648.26 379.54,657.18 379.54,666.23 380.61,674.79 382.62,682.08 385.48,688.96 389.12,695.34 393.48,701.28 398.56,706.71 404.17,711.42 410.32,715.27 416.93,718.39 423.58,720.70 432.31,722.51 441.39,722.78 449.47,721.92 458.01,720.07 466.16,717.21 477.99,710.29 487.90,702.36 492.01,698.20 495.80,692.85 525.93,631.23 579.06,515.09 622.28,406.97 624.85,394.97 625.64,385.78 625.03,376.91 623.24,367.81 620.24,359.02 616.34,351.33 612.41,345.89 607.80,341.28 602.76,337.34 597.14,334.12 591.07,331.59 584.95,329.82 576.27,328.82 568.22,329.05 563.86,329.50 559.00,330.91 531.26,346.21 502.30,362.47 495.01,365.18 488.43,366.59 478.82,367.58 468.81,367.36 459.37,365.82 450.29,363.01 441.64,359.02 433.70,353.82 426.80,347.48 420.90,339.92 415.47,329.68 411.79,318.95 410.75,310.80 411.00,302.70 412.29,292.92 414.47,283.50 416.72,276.80 419.51,270.51 422.73,264.17 427.66,256.74 460.83,219.75 494.65,181.99 500.62,173.07 504.70,165.37 508.20,157.54 510.85,149.80 512.42,143.14 513.31,136.49 513.46,122.86 510.99,105.29 507.74,93.11 502.73,80.98 495.22,70.11 486.25,60.74 477.56,54.13 468.56,49.01 460.87,45.70 453.15,43.31 445.50,41.45 437.10,40.36 422.98,40.00 407.07,41.86 384.12,49.69 362.20,59.92 338.90,74.46 315.34,93.88 285.77,125.26 255.56,167.32 224.89,229.44 188.96,310.22 176.24,338.20"
        fill="none"
        stroke="#e94560"
        stroke-width="8.0"
        stroke-linejoin="round"
        stroke-linecap="round"/>
  <!-- Start/finish line -->
  <line x1="194.44" y1="346.49" x2="158.04" y2="329.91"
        stroke="#f5f5f5" stroke-width="9.6"
        stroke-linecap="round"/>
</svg>
