<?xml version="1.0" encoding="utf-8"?>
<svg xmlns="http://www.w3.org/2000/svg"
     width="800.0" height="577.3"
     viewBox="0 0 800.0 577.3">
  <rect width="100%" height="100%" fill="#1a1a2e"/>
  <!-- Track outline -->
  <polyline points="517.82,250.63 630.73,284.64 649.89,288.09 665.25,289.01 681.65,288.09 697.47,285.07 711.79,280.02 724.89,273.00 732.48,267.45 739.49,261.17 745.54,253.84 751.23,244.41 755.89,233.75 758.87,222.85 760.00,211.64 759.50,200.11 757.33,189.09 753.22,178.55 747.44,168.45 740.93,159.33 734.56,152.06 718.97,138.39 706.10,131.79 691.10,126.37 348.33,43.02 329.67,40.43 315.35,40.00 299.58,40.92 284.26,43.76 269.94,48.75 256.52,55.65 244.09,64.46 232.80,74.75 223.63,84.60 213.50,99.20 127.52,270.96 49.58,445.12 44.38,460.40 41.99,472.41 40.59,482.64 40.00,493.18 41.22,503.28 43.61,510.73 47.00,518.19 51.39,524.90 56.58,530.08 60.65,532.60 65.35,534.70 70.41,536.30 75.56,537.22 80.48,537.35 84.87,536.55 89.02,534.51 93.09,531.31 96.93,527.24 100.32,522.62 103.17,517.88 105.29,513.26 106.56,504.20 105.70,494.47 105.56,484.74 107.59,470.69 112.29,456.15 129.51,432.25 148.26,408.34 162.94,377.97 196.56,291.85 205.28,276.20 214.54,263.32 225.84,250.57 238.40,239.05 252.05,229.01 266.64,220.51 281.87,213.67 297.77,208.68 314.17,205.78 330.94,204.80 365.32,208.25 401.06,215.45 517.82,250.63"
        fill="none"
        stroke="#e94560"
        stroke-width="8.0"
        stroke-linejoin="round"
        stroke-linecap="round"/>
  <!-- Start/finish line -->
  <line x1="523.58" y1="231.48" x2="512.05" y2="269.78"
        stroke="#f5f5f5" stroke-width="9.6"
        stroke-linecap="round"/>
</svg>
