<?xml version="1.0" encoding="utf-8"?>
<svg xmlns="http://www.w3.org/2000/svg"
     width="800.0" height="524.7"
     viewBox="0 0 800.0 524.7">
  <rect width="100%" height="100%" fill="#1a1a2e"/>
  <!-- Track outline -->
  <polyline points="313.35,409.33 359.14,423.78 538.33,477.18 570.30,482.72 596.32,484.69 613.15,484.22 627.96,482.32 638.65,480.15 649.12,476.86 664.00,470.54 679.46,462.10 713.99,435.60 721.45,427.97 744.57,393.81 749.14,383.93 755.58,362.91 758.81,341.13 760.00,317.94 758.10,299.26 755.04,283.54 751.69,272.27 745.32,257.54 736.56,241.05 724.86,223.97 711.80,208.12 700.25,196.36 687.86,186.08 674.70,177.20 658.28,168.82 550.51,133.43 392.38,84.26 272.82,46.88 229.72,40.47 207.97,40.00 186.36,41.52 163.84,45.75 145.05,50.79 134.91,54.87 121.60,62.22 106.63,72.28 88.59,88.34 73.75,103.64 66.81,112.63 58.89,126.21 51.23,142.27 46.07,157.51 42.49,173.13 40.42,188.98 40.00,205.01 41.41,221.54 44.66,237.97 50.59,255.33 57.09,270.14 62.87,279.94 84.52,306.69 97.41,318.51 111.97,329.48 153.57,352.75 207.81,373.81 221.63,380.37 313.35,409.33"
        fill="none"
        stroke="#e94560"
        stroke-width="8.0"
        stroke-linejoin="round"
        stroke-linecap="round"/>
  <!-- Start/finish line -->
  <line x1="319.37" y1="390.26" x2="307.33" y2="428.40"
        stroke="#f5f5f5" stroke-width="9.6"
        stroke-linecap="round"/>
</svg>
