<?xml version="1.0" encoding="utf-8"?>
<svg xmlns="http://www.w3.org/2000/svg"
     width="587.8" height="800.0"
     viewBox="0 0 587.8 800.0">
  <rect width="100%" height="100%" fill="#1a1a2e"/>
  <!-- Track outline -->
  <polyline points="294.64,388.05 313.41,348.45 333.15,310.00 371.71,237.78 401.47,176.29 424.34,119.46 438.38,81.53 445.68,65.42 450.43,57.48 455.84,50.81 458.76,48.05 461.82,45.66 464.97,43.69 468.21,42.13 471.49,41.00 474.82,40.29 478.08,40.00 481.32,40.13 484.47,40.66 487.53,41.60 490.50,42.96 493.32,44.71 495.93,46.81 498.32,49.29 500.41,52.05 502.22,55.13 503.70,58.47 504.86,62.06 505.70,65.95 506.22,70.01 506.28,78.90 504.74,91.25 496.66,128.38 496.17,135.11 496.42,140.80 497.20,145.66 498.43,150.07 499.83,153.51 501.59,156.69 504.17,160.32 507.55,163.92 524.75,176.00 531.87,181.28 537.92,187.40 540.37,190.65 542.53,194.11 544.30,197.62 545.74,201.30 546.79,205.06 547.48,208.95 547.78,213.01 547.72,217.16 546.49,225.90 543.84,234.90 539.89,243.84 531.60,257.78 517.25,278.02 459.52,356.75 447.71,375.80 444.94,382.05 443.02,388.05 442.01,393.20 441.62,398.33 441.78,403.33 442.64,408.64 449.59,427.61 452.33,436.42 453.66,445.14 453.51,453.76 451.79,462.43 448.49,471.18 442.30,482.35 432.11,496.58 388.43,549.87 367.71,575.00 357.07,586.33 349.68,592.54 341.87,597.47 333.59,601.09 324.74,603.40 315.36,604.31 286.84,604.46 278.74,605.48 271.38,607.15 264.30,609.50 257.66,612.47 252.43,615.51 247.57,619.07 243.03,623.11 238.71,627.83 234.15,633.88 229.81,641.01 220.36,663.21 210.15,699.19 205.55,711.72 200.04,722.93 193.59,732.70 186.16,741.10 177.80,748.17 168.62,753.72 161.31,756.85 153.68,758.96 145.79,760.00 134.89,759.85 123.62,758.06 111.90,754.71 96.62,748.49 82.07,740.98 69.63,732.95 61.26,726.01 54.20,718.30 48.49,709.75 44.24,700.42 41.49,690.42 40.08,679.89 40.00,665.96 41.99,647.64 47.75,616.82 63.10,540.14 66.27,529.69 69.66,522.33 71.72,519.03 74.00,516.02 76.54,513.28 79.29,510.86 82.33,508.72 85.54,506.94 89.06,505.48 92.72,504.39 100.76,503.18 121.00,501.65 127.74,500.16 133.79,498.11 138.55,495.84 142.94,493.05 146.95,489.79 150.75,485.89 154.82,480.56 158.55,474.48 161.74,467.91 164.61,460.25 171.97,430.32 179.53,394.81 191.47,348.32 198.53,324.54 203.02,313.06 207.34,305.01 212.47,298.10 215.35,295.10 218.38,292.44 221.57,290.13 224.87,288.19 228.27,286.64 231.75,285.49 235.24,284.75 238.75,284.40 242.20,284.43 245.61,284.88 248.98,285.75 252.26,287.04 255.40,288.71 258.37,290.77 261.06,293.14 263.49,295.85 265.56,298.78 267.31,302.02 268.69,305.54 269.69,309.14 270.20,312.03 270.41,314.99 270.34,319.02 269.88,323.20 267.62,331.68 263.80,340.39 256.96,351.73 233.96,383.11 229.52,391.14 226.24,398.67 222.43,412.13 218.31,441.33 215.40,453.35 210.99,465.34 205.10,477.16 195.93,491.84 182.78,509.50 116.62,591.05 89.70,629.12 85.15,637.33 81.90,644.85 79.80,651.57 78.48,658.15 77.97,663.65 78.05,668.99 78.74,674.24 79.95,679.17 81.37,683.01 83.11,686.49 85.22,689.80 87.61,692.80 90.31,695.50 93.23,697.83 96.40,699.82 99.83,701.44 104.33,702.95 109.11,703.93 114.09,704.24 119.16,703.92 124.45,702.91 129.74,701.24 135.10,698.86 140.49,695.73 146.95,691.01 153.22,685.51 163.19,674.06 175.67,653.99 201.60,596.71 256.37,473.02 290.09,397.64 294.64,388.05"
        fill="none"
        stroke="#e94560"
        stroke-width="8.0"
        stroke-linejoin="round"
        stroke-linecap="round"/>
  <!-- Start/finish line -->
  <line x1="276.57" y1="379.48" x2="312.71" y2="396.61"
        stroke="#f5f5f5" stroke-width="9.6"
        stroke-linecap="round"/>
</svg>
