<?xml version="1.0" encoding="utf-8"?>
<svg xmlns="http://www.w3.org/2000/svg"
     width="457.2" height="800.0"
     viewBox="0 0 457.2 800.0">
  <rect width="100%" height="100%" fill="#1a1a2e"/>
  <!-- Track outline -->
  <polyline points="416.91,457.71 409.93,379.55 395.23,252.72 379.61,172.37 370.81,148.00 354.15,116.69 339.39,98.42 325.61,85.05 307.02,71.00 287.79,60.34 246.57,44.82 227.31,41.32 208.75,40.00 184.33,41.36 160.29,46.59 138.93,55.48 123.25,64.22 107.43,75.14 92.69,88.67 80.13,102.72 73.87,111.46 68.77,120.23 59.83,139.82 51.18,167.32 44.90,207.29 40.00,292.31 42.71,389.42 62.95,551.69 73.96,598.18 96.87,664.06 104.05,678.94 111.61,691.22 119.79,701.69 128.87,710.99 152.14,728.40 174.62,741.88 195.66,750.43 218.52,757.40 240.40,760.00 262.05,759.70 283.38,755.37 307.16,746.85 332.04,734.84 352.31,720.03 367.04,706.32 380.21,691.59 385.66,682.97 390.36,673.40 408.03,630.98 414.31,608.08 416.45,586.91 417.20,460.91 416.91,457.71"
        fill="none"
        stroke="#e94560"
        stroke-width="8.0"
        stroke-linejoin="round"
        stroke-linecap="round"/>
  <!-- Start/finish line -->
  <line x1="396.99" y1="459.49" x2="436.83" y2="455.93"
        stroke="#f5f5f5" stroke-width="9.6"
        stroke-linecap="round"/>
</svg>
