<?xml version="1.0" encoding="utf-8"?>
<svg xmlns="http://www.w3.org/2000/svg"
     width="800.0" height="430.0"
     viewBox="0 0 800.0 430.0">
  <rect width="100%" height="100%" fill="#1a1a2e"/>
  <!-- Track outline -->
  <polyline points="326.33,137.33 214.40,134.77 154.06,140.99 121.72,149.72 92.51,160.32 76.96,167.29 64.23,174.75 55.49,182.05 49.46,188.17 48.62,189.14 47.93,190.19 44.66,195.81 41.53,203.01 40.51,207.46 40.00,212.05 40.12,216.35 40.79,219.85 41.95,223.14 43.58,226.24 46.15,229.61 49.32,232.73 52.72,235.27 56.11,237.11 59.69,238.45 63.55,239.30 68.27,239.80 73.36,239.66 79.21,238.69 99.15,230.89 120.75,221.08 151.69,209.84 189.46,201.31 233.23,196.60 264.61,197.61 276.07,199.61 286.35,202.61 293.86,205.88 300.49,210.00 306.20,215.00 310.86,220.62 313.53,225.25 315.40,230.54 317.35,250.13 319.92,272.37 323.06,281.60 327.58,290.40 334.71,300.59 344.55,311.20 371.71,334.02 402.59,355.89 423.80,368.20 444.43,377.66 465.10,384.74 483.90,389.11 493.55,390.04 501.81,389.67 507.70,388.56 513.01,386.62 516.17,384.94 519.15,382.90 521.79,380.56 524.00,378.01 525.90,375.18 527.43,372.15 528.51,368.99 529.21,365.66 529.50,362.30 529.36,358.91 528.81,355.47 527.79,352.01 525.81,347.59 523.14,343.10 519.87,338.81 512.38,331.62 502.84,324.97 465.53,308.61 440.01,295.90 430.37,289.41 421.71,282.29 414.39,274.87 408.31,267.15 404.83,261.13 402.31,254.98 400.67,248.63 399.91,242.19 400.09,235.88 401.22,229.77 403.46,224.01 406.60,218.70 410.69,213.78 415.71,209.42 423.39,204.59 432.01,200.65 441.26,197.86 450.88,196.12 461.25,195.21 471.41,195.25 479.68,196.12 487.22,197.61 492.42,199.17 497.20,201.15 501.76,203.48 506.28,206.45 512.17,211.28 518.04,217.32 524.17,225.73 530.25,235.90 539.20,254.50 548.55,272.75 555.55,282.17 563.07,289.69 571.52,295.82 581.25,300.53 597.31,304.25 613.90,306.57 635.74,309.58 643.25,311.83 650.10,314.84 656.26,318.54 662.05,323.27 668.25,330.40 674.30,338.99 681.94,352.36 689.40,364.79 693.92,369.98 698.57,373.84 702.03,375.95 705.68,377.60 709.43,378.76 713.27,379.38 717.19,379.52 721.07,379.20 726.79,377.81 732.27,375.42 737.35,372.15 742.13,367.82 747.61,361.03 752.39,353.04 756.06,344.09 758.59,334.47 759.93,324.04 760.00,313.30 758.82,302.37 756.23,291.27 751.53,278.25 744.41,264.69 729.09,244.69 707.72,221.28 575.15,86.72 536.01,49.28 529.76,45.20 524.10,42.67 518.02,40.85 511.87,40.00 505.82,40.14 499.94,41.25 496.27,42.55 492.74,44.27 489.45,46.39 485.08,50.31 481.35,55.04 478.52,60.13 476.21,66.52 473.12,85.10 469.81,103.88 466.92,110.99 463.40,116.75 458.91,122.21 453.74,126.90 447.91,130.76 441.35,133.82 432.34,136.46 421.63,138.16 376.56,138.49 326.33,137.33"
        fill="none"
        stroke="#e94560"
        stroke-width="8.0"
        stroke-linejoin="round"
        stroke-linecap="round"/>
  <!-- Start/finish line -->
  <line x1="325.87" y1="157.33" x2="326.79" y2="117.34"
        stroke="#f5f5f5" stroke-width="9.6"
        stroke-linecap="round"/>
</svg>
