<?xml version="1.0" encoding="utf-8"?>
<svg xmlns="http://www.w3.org/2000/svg"
     width="609.8" height="800.0"
     viewBox="0 0 609.8 800.0">
  <rect width="100%" height="100%" fill="#1a1a2e"/>
  <!-- Track outline -->
  <polyline points="480.06,582.94 404.77,601.30 394.80,604.11 386.47,606.27 379.11,608.80 373.34,611.01 368.28,613.74 363.14,616.76 357.77,620.92 354.35,624.76 352.51,628.39 351.51,631.73 350.70,635.57 350.47,638.83 350.96,642.67 352.08,646.58 353.72,650.29 355.76,653.72 359.47,657.88 364.03,661.55 368.77,664.78 374.86,668.29 382.50,671.71 448.83,695.74 462.91,703.94 476.73,714.14 482.96,719.49 488.33,725.40 490.63,728.79 492.76,732.46 494.28,736.17 494.77,739.81 494.39,742.21 493.56,744.74 492.32,747.27 490.80,749.60 489.05,751.72 487.18,753.39 483.74,756.17 479.51,758.49 473.88,760.00 467.62,760.00 439.90,755.27 401.32,745.68 322.26,720.83 257.89,700.44 223.68,689.75 198.37,674.49 187.22,664.13 176.97,652.54 171.94,645.81 167.57,637.93 164.76,630.30 162.58,622.02 161.25,611.99 160.16,601.54 160.42,585.51 162.98,568.25 168.06,550.99 228.82,370.67 281.90,228.24 295.35,172.92 301.87,155.13 303.48,146.81 304.31,137.75 305.09,120.45 303.56,103.77 302.04,99.40 300.09,95.53 297.70,92.18 294.92,89.49 291.67,87.49 287.97,86.06 284.03,85.20 280.21,84.96 275.15,85.82 270.07,87.77 265.27,90.18 259.07,94.10 252.89,99.28 242.64,109.32 232.01,122.33 217.99,145.18 205.55,171.98 188.72,239.38 154.33,352.02 109.29,487.96 95.99,518.56 91.31,526.47 86.25,533.25 80.53,539.57 74.07,545.00 70.48,547.40 66.63,549.65 62.69,551.32 58.87,551.93 55.86,551.52 52.73,550.50 49.71,548.99 46.98,547.12 44.77,545.00 42.76,541.81 41.38,537.98 40.52,533.86 40.00,529.70 40.06,521.62 42.07,511.13 98.37,347.37 143.70,227.55 189.87,123.47 208.22,93.20 219.45,79.70 230.89,68.76 245.22,57.95 259.67,49.22 267.17,45.79 275.01,43.10 283.86,41.14 292.79,40.00 308.30,40.12 341.43,44.85 350.22,47.34 357.97,50.49 365.64,54.48 372.51,59.50 376.36,63.74 379.66,68.52 382.27,73.54 384.69,80.88 385.89,88.59 386.09,96.71 385.35,105.64 379.17,138.40 321.03,309.43 288.80,383.23 228.33,485.02 222.12,501.34 219.86,509.71 218.45,518.11 218.05,523.70 218.10,529.29 219.22,534.51 220.95,538.18 223.30,541.77 226.15,544.95 229.28,547.52 232.87,549.48 236.92,550.87 241.14,551.77 245.22,552.09 250.28,551.69 255.27,550.38 259.93,548.38 264.09,545.53 267.91,541.89 271.51,537.98 281.70,523.78 317.30,483.31 357.80,428.93 383.65,362.30 403.99,295.52 435.99,211.47 458.63,161.21 476.01,133.06 479.45,128.41 482.79,124.49 486.67,121.68 489.48,120.49 492.64,119.68 495.92,119.27 499.08,119.31 501.95,119.96 504.65,121.35 507.26,123.47 509.65,126.04 511.71,128.90 513.41,131.80 515.31,136.94 516.22,142.65 516.51,149.01 515.05,165.37 511.54,182.96 501.52,214.41 416.49,403.51 376.76,474.21 357.28,500.32 308.07,546.50 284.23,565.19 269.06,574.61 207.45,604.03 202.96,606.72 199.17,609.09 196.18,611.58 194.03,614.60 193.11,617.04 192.51,619.82 192.25,622.80 192.36,625.69 192.88,628.43 193.80,630.71 195.67,633.04 198.28,635.08 201.38,636.79 204.66,638.14 207.82,639.03 212.87,639.36 218.10,638.63 223.36,637.57 230.71,635.85 239.53,632.67 329.85,583.63 346.51,574.53 421.97,527.82 485.00,495.75 517.57,484.29 526.37,482.57 534.49,482.00 542.60,482.21 550.41,483.68 554.34,485.06 558.28,486.82 561.87,489.02 564.77,491.71 566.84,494.98 568.33,498.77 569.31,502.85 569.83,506.89 569.71,512.56 568.65,518.44 566.90,523.98 564.43,529.17 561.24,534.06 557.56,538.59 551.64,544.14 543.86,549.65 487.90,580.53 483.25,582.16 480.06,582.94"
        fill="none"
        stroke="#e94560"
        stroke-width="8.0"
        stroke-linejoin="round"
        stroke-linecap="round"/>
  <!-- Start/finish line -->
  <line x1="484.80" y1="602.37" x2="475.32" y2="563.51"
        stroke="#f5f5f5" stroke-width="9.6"
        stroke-linecap="round"/>
</svg>
