<?xml version="1.0" encoding="utf-8"?>
<svg xmlns="http://www.w3.org/2000/svg"
     width="694.1" height="800.0"
     viewBox="0 0 694.1 800.0">
  <rect width="100%" height="100%" fill="#1a1a2e"/>
  <!-- Track outline -->
  <polyline points="169.17,45.47 112.16,49.59 96.92,52.65 83.38,57.62 69.63,64.51 58.62,72.99 49.02,83.26 43.32,93.67 40.31,105.98 40.00,117.31 41.35,128.48 46.52,140.08 53.78,147.71 61.57,153.47 73.31,158.67 86.52,162.43 101.14,165.04 120.83,165.97 151.23,163.88 178.93,162.77 202.85,163.51 234.35,165.83 272.41,170.77 298.71,176.32 333.23,186.70 349.99,193.43 366.86,202.15 381.82,213.24 397.72,227.69 413.18,245.97 422.52,261.34 434.76,285.12 450.31,319.95 456.48,335.70 462.14,357.43 465.27,380.39 467.14,404.58 467.33,430.12 464.68,476.29 461.67,553.05 461.76,602.07 463.25,623.07 467.37,641.88 474.67,661.77 490.66,692.57 506.77,718.98 523.85,739.98 534.24,748.85 547.40,755.83 562.01,759.68 577.74,760.00 592.73,757.28 606.23,751.44 617.12,742.78 626.48,731.34 632.58,716.26 637.16,698.40 638.83,680.26 637.42,656.99 626.78,604.77 618.37,545.84 617.71,522.28 620.91,487.41 635.35,417.79 652.71,335.33 654.14,319.16 652.27,303.18 646.29,284.53 636.34,262.14 620.23,235.72 595.69,212.40 567.29,194.17 314.08,60.18 294.47,51.75 273.66,44.25 257.93,40.66 245.12,40.00 169.17,45.47"
        fill="none"
        stroke="#e94560"
        stroke-width="8.0"
        stroke-linejoin="round"
        stroke-linecap="round"/>
  <!-- Start/finish line -->
  <line x1="170.61" y1="65.42" x2="167.74" y2="25.52"
        stroke="#f5f5f5" stroke-width="9.6"
        stroke-linecap="round"/>
</svg>
