<?xml version="1.0" encoding="utf-8"?>
<svg xmlns="http://www.w3.org/2000/svg"
     width="800.0" height="568.5"
     viewBox="0 0 800.0 568.5">
  <rect width="100%" height="100%" fill="#1a1a2e"/>
  <!-- Track outline -->
  <polyline points="461.78,490.84 332.38,515.40 265.98,526.81 243.90,528.47 221.76,527.46 200.62,522.94 180.32,515.43 141.89,494.24 106.51,467.86 90.05,452.43 75.24,436.00 61.73,417.74 51.14,397.86 43.38,376.90 41.08,366.07 40.00,355.16 40.39,344.37 41.98,333.70 48.24,313.16 57.47,293.32 69.01,274.76 82.45,258.01 97.90,243.63 115.24,231.40 133.68,222.51 142.81,219.14 154.02,214.12 171.06,217.87 180.66,222.28 189.59,228.23 194.66,232.91 199.20,238.17 202.95,243.90 205.92,250.08 208.11,256.66 209.26,263.27 209.33,269.73 208.42,276.23 206.38,282.26 202.83,288.02 198.09,293.32 192.89,297.77 184.83,301.79 176.49,305.39 168.27,310.57 160.86,316.76 156.86,321.48 153.43,326.70 150.66,332.19 148.59,337.88 147.17,343.79 146.47,349.87 146.98,359.57 148.92,369.28 152.00,378.83 156.17,388.12 161.35,397.24 167.66,405.64 175.58,412.98 184.21,419.17 191.53,423.43 199.84,427.18 236.07,439.28 245.15,441.49 255.27,442.76 290.24,443.03 337.39,439.63 564.55,399.33 574.06,396.47 580.92,393.14 589.76,386.92 597.70,379.49 603.50,372.45 608.13,364.87 611.56,356.79 613.90,348.36 615.45,330.76 615.65,275.57 617.87,257.24 622.15,240.30 629.05,220.27 631.63,210.36 632.94,200.54 632.72,194.28 631.73,188.09 629.70,182.29 627.17,177.95 623.94,173.74 620.17,170.03 616.11,167.13 611.65,165.08 606.74,163.72 601.64,163.06 596.76,163.14 591.99,164.11 587.20,165.85 582.66,168.25 578.66,170.99 574.45,175.17 570.93,180.08 567.93,185.38 564.25,194.39 561.35,204.83 554.03,244.01 548.75,262.11 545.05,270.62 540.60,278.70 535.29,286.40 529.18,293.36 522.26,299.28 514.64,304.23 506.42,308.14 497.74,310.96 488.65,312.47 479.39,312.85 470.23,312.20 461.11,310.57 442.74,304.62 433.58,302.18 424.37,300.67 415.16,300.75 405.98,301.95 396.77,303.96 387.83,306.90 379.75,310.53 371.56,315.60 357.33,328.94 343.24,342.36 335.55,347.62 327.86,351.37 321.46,353.58 314.69,355.13 308.04,355.63 303.43,355.20 298.83,354.24 294.43,352.69 290.40,350.60 285.43,346.66 281.03,341.71 277.38,336.25 274.48,330.22 272.40,323.68 271.11,316.95 270.74,306.94 272.27,295.64 280.34,268.53 290.31,242.00 298.92,223.05 309.97,204.41 323.05,187.16 338.27,170.14 354.61,154.32 368.40,143.42 383.35,133.90 403.72,123.31 583.89,50.33 604.69,43.98 625.33,40.31 635.55,40.00 645.74,40.70 656.03,42.44 666.02,45.26 675.26,49.24 683.94,54.31 692.09,60.34 699.48,67.27 705.92,75.04 711.29,83.55 715.45,92.91 718.29,102.73 719.69,112.79 719.78,122.92 718.72,132.55 716.38,142.91 702.12,183.14 697.47,204.72 696.50,226.61 698.10,249.12 702.98,271.01 706.87,281.18 711.63,290.92 723.46,308.87 749.64,341.24 754.63,350.33 757.86,359.19 759.70,369.05 760.00,379.07 758.85,388.43 756.30,397.44 752.34,406.02 747.22,413.95 741.28,420.99 734.47,427.18 726.71,432.36 718.35,436.69 700.31,443.31 619.45,460.90 461.78,490.84"
        fill="none"
        stroke="#e94560"
        stroke-width="8.0"
        stroke-linejoin="round"
        stroke-linecap="round"/>
  <!-- Start/finish line -->
  <line x1="465.51" y1="510.49" x2="458.05" y2="471.19"
        stroke="#f5f5f5" stroke-width="9.6"
        stroke-linecap="round"/>
</svg>
