<?xml version="1.0" encoding="utf-8"?>
<svg xmlns="http://www.w3.org/2000/svg"
     width="436.9" height="800.0"
     viewBox="0 0 436.9 800.0">
  <rect width="100%" height="100%" fill="#1a1a2e"/>
  <!-- Track outline -->
  <polyline points="178.89,405.01 179.86,406.99 181.63,409.33 183.64,412.13 197.69,434.45 217.30,472.84 222.66,480.43 228.64,487.40 236.40,494.70 264.72,511.40 287.25,523.28 307.21,537.15 326.94,555.54 331.36,560.86 334.70,565.87 336.75,570.05 338.15,573.93 338.78,576.27 339.14,578.46 339.28,580.48 339.17,582.65 338.50,586.67 337.47,590.58 336.70,592.51 335.77,594.22 334.53,596.07 333.11,597.84 329.85,601.06 326.15,603.69 322.12,605.74 317.95,607.11 313.67,607.84 311.62,607.99 309.39,607.89 304.55,606.83 300.11,605.33 298.87,604.64 297.88,603.84 296.70,602.61 295.31,600.77 287.99,588.14 279.08,574.17 275.58,570.39 272.14,567.40 268.63,565.20 266.37,564.24 264.03,563.59 261.81,563.23 259.89,563.18 258.87,563.30 257.98,563.56 257.13,563.97 256.25,564.57 254.00,566.77 251.70,569.83 249.73,573.16 247.53,578.84 246.21,584.85 245.88,590.99 246.22,596.44 246.54,598.44 247.20,600.80 273.73,671.83 275.30,678.60 275.90,683.89 275.92,688.20 275.55,691.98 275.21,694.12 274.66,696.18 271.55,703.40 267.52,711.00 257.29,729.39 255.78,733.65 255.04,737.70 254.87,741.06 255.07,744.55 255.68,747.80 256.68,750.50 258.01,753.01 259.64,755.16 261.48,756.82 263.56,758.15 265.57,759.15 266.97,759.68 268.36,759.98 269.84,760.00 272.34,759.37 275.07,758.19 277.35,756.94 278.92,755.78 280.24,754.50 283.14,751.03 300.43,722.90 388.76,612.11 392.98,605.62 395.31,601.02 396.07,598.90 396.48,596.77 396.86,592.25 396.81,587.78 396.57,585.78 396.07,583.88 394.62,580.34 392.79,576.96 391.61,575.33 390.07,573.73 383.51,568.45 376.42,562.60 373.15,558.89 370.71,555.47 369.54,553.51 368.64,551.36 367.32,546.13 366.57,541.05 366.52,539.60 366.77,538.11 370.05,530.57 373.56,522.03 374.11,518.99 374.25,516.18 374.06,513.43 373.52,510.65 372.63,507.89 371.43,505.35 369.95,503.06 368.16,500.96 366.16,499.18 363.97,497.83 361.56,496.80 359.06,496.03 355.32,495.45 350.90,495.33 324.77,497.09 288.37,496.75 278.39,495.57 268.59,492.60 261.32,489.38 254.28,485.23 247.69,480.02 241.69,473.90 236.49,466.86 211.89,423.06 200.61,397.68 197.81,388.60 197.07,384.04 196.82,379.47 197.14,375.00 197.95,370.60 200.99,362.52 210.91,343.10 212.77,336.78 213.87,330.85 214.56,326.36 214.78,320.84 211.54,284.81 205.98,248.47 204.19,242.18 201.84,237.28 197.15,230.73 192.35,225.45 190.85,224.12 189.09,222.94 167.66,212.02 161.96,208.33 157.32,204.52 155.10,202.12 153.21,199.61 151.73,196.98 150.72,194.23 150.08,191.36 149.81,188.67 149.87,186.72 150.19,184.91 150.69,183.17 151.37,181.51 152.23,179.92 153.38,178.42 156.25,175.96 159.98,173.56 168.06,169.60 176.01,165.29 178.53,163.14 180.57,160.90 182.24,158.46 183.61,155.72 184.63,152.78 185.20,149.83 185.28,146.92 184.93,143.98 184.19,141.18 183.03,138.53 181.45,136.02 179.60,133.76 177.53,131.79 175.17,130.10 172.18,128.58 164.26,126.68 154.52,125.32 146.57,123.59 142.43,121.59 139.12,119.20 135.86,116.16 132.90,112.72 127.56,105.01 121.14,97.54 113.19,91.03 92.61,79.00 86.68,74.11 80.18,66.54 72.26,55.69 63.99,45.55 61.41,43.47 58.97,42.00 56.53,40.96 54.33,40.31 52.12,40.00 49.95,40.10 48.20,40.55 46.42,41.28 44.77,42.22 43.37,43.26 42.39,44.22 41.59,45.26 40.93,46.44 40.44,47.79 40.00,50.90 40.09,54.54 40.63,58.20 42.20,63.65 45.31,69.77 60.29,88.62 77.41,108.53 91.92,128.27 100.03,142.44 103.43,149.67 163.51,358.47 165.99,365.96 168.21,372.19 169.88,377.05 171.54,381.90 173.06,386.77 174.87,392.75 178.89,405.01"
        fill="none"
        stroke="#e94560"
        stroke-width="8.0"
        stroke-linejoin="round"
        stroke-linecap="round"/>
  <!-- Start/finish line -->
  <line x1="197.76" y1="398.39" x2="160.01" y2="411.62"
        stroke="#f5f5f5" stroke-width="9.6"
        stroke-linecap="round"/>
</svg>
