<?xml version="1.0" encoding="utf-8"?>
<svg xmlns="http://www.w3.org/2000/svg"
     width="437.6" height="800.0"
     viewBox="0 0 437.6 800.0">
  <rect width="100%" height="100%" fill="#1a1a2e"/>
  <!-- Track outline -->
  <polyline points="159.51,365.26 162.58,373.00 181.22,419.41 215.78,481.69 222.10,489.60 237.07,503.22 303.86,543.97 317.14,553.04 321.04,556.58 324.07,559.92 325.39,561.77 326.47,563.76 328.19,567.76 329.65,572.27 330.53,576.81 330.92,581.41 330.82,585.90 330.21,590.31 328.91,594.65 327.31,598.48 326.23,600.47 325.07,602.19 323.88,603.79 322.38,605.37 318.77,608.14 314.69,610.46 311.95,611.26 309.22,611.53 306.14,611.44 303.08,610.86 300.26,609.62 297.78,608.09 296.46,607.15 295.01,605.81 283.48,591.91 270.55,577.39 268.00,575.50 265.72,574.26 263.33,573.41 260.38,572.80 257.28,572.61 254.44,572.85 252.46,573.39 250.66,574.23 248.91,575.37 246.62,577.24 244.37,579.57 242.53,582.12 241.18,585.08 240.21,588.28 239.61,590.97 239.41,592.50 239.47,594.00 240.03,597.25 241.19,601.57 253.20,635.56 261.93,666.85 267.75,694.11 267.93,699.56 267.35,703.98 266.10,708.97 264.38,713.68 260.72,720.73 251.88,737.15 251.21,739.09 250.93,740.96 250.80,743.95 250.97,747.46 251.59,750.62 252.49,752.78 253.72,754.71 255.14,756.34 256.66,757.60 258.37,758.60 260.18,759.34 262.14,759.81 264.22,760.00 266.38,759.85 269.28,759.05 272.29,757.77 274.79,756.49 276.35,755.47 277.69,754.35 280.77,751.17 311.97,708.86 381.30,619.93 387.69,610.37 392.57,600.26 395.72,589.87 397.40,578.91 397.62,567.62 395.52,548.89 391.71,530.10 388.93,523.30 385.53,517.75 381.35,512.44 376.47,507.81 370.86,504.03 365.07,501.16 360.72,499.63 356.38,498.62 346.95,497.48 293.61,497.89 282.31,496.58 271.68,493.60 261.62,488.89 252.12,482.80 243.29,475.39 235.38,466.90 227.95,457.63 221.87,447.76 206.86,417.79 199.32,399.65 196.50,391.24 195.53,387.25 194.95,383.03 195.01,376.92 195.72,370.84 196.80,366.55 198.12,362.88 199.94,359.05 204.73,351.78 207.87,345.98 210.53,339.58 212.08,333.30 212.80,325.93 209.50,285.40 206.63,261.39 202.51,241.28 199.81,235.73 196.57,231.51 192.07,227.13 187.66,223.73 185.94,222.62 184.17,221.76 176.67,219.05 163.05,214.80 159.79,212.99 157.06,210.82 154.21,207.58 151.91,204.06 150.71,201.44 149.96,198.77 149.55,195.62 149.52,192.69 149.65,191.19 150.03,189.77 151.31,187.04 152.89,184.46 153.77,183.26 154.82,182.19 161.23,177.68 168.74,173.34 175.97,168.55 179.12,165.01 181.36,161.64 182.46,159.78 183.30,157.89 184.37,154.85 184.98,151.34 184.89,147.94 184.32,144.25 183.34,140.91 182.08,138.46 180.50,136.26 178.74,134.36 176.05,132.20 173.26,130.55 171.37,129.66 169.15,128.98 160.50,127.84 151.00,126.43 145.95,124.66 141.61,122.50 138.14,120.30 135.01,117.80 129.22,111.67 124.04,104.54 114.79,94.68 110.90,91.83 94.85,83.34 88.97,79.19 84.35,75.33 81.59,72.20 77.29,65.54 72.62,55.71 67.59,46.38 65.85,44.44 64.11,43.03 62.26,41.91 60.28,40.97 58.20,40.29 56.00,40.00 53.97,40.10 51.79,40.49 49.66,41.16 47.73,42.08 45.99,43.30 44.37,44.82 42.95,46.53 41.82,48.36 40.77,51.09 40.17,54.07 40.00,57.00 40.55,60.78 41.66,64.50 44.91,72.42 49.56,80.45 84.55,123.28 90.27,131.98 95.47,141.42 100.15,151.58 104.07,162.32 112.39,197.24 129.62,272.86 159.51,365.26"
        fill="none"
        stroke="#e94560"
        stroke-width="8.0"
        stroke-linejoin="round"
        stroke-linecap="round"/>
  <!-- Start/finish line -->
  <line x1="178.51" y1="359.01" x2="140.51" y2="371.51"
        stroke="#f5f5f5" stroke-width="9.6"
        stroke-linecap="round"/>
</svg>
