<?xml version="1.0" encoding="utf-8"?>
<svg xmlns="http://www.w3.org/2000/svg"
     width="800.0" height="480.7"
     viewBox="0 0 800.0 480.7">
  <rect width="100%" height="100%" fill="#1a1a2e"/>
  <!-- Track outline -->
  <polyline points="444.95,112.58 230.73,47.04 203.41,41.66 176.52,40.00 150.37,42.44 125.64,48.79 102.51,58.55 82.18,71.76 65.11,87.36 58.25,95.23 52.27,103.84 46.55,114.74 42.49,126.34 40.81,133.75 40.00,141.21 41.18,148.30 46.25,155.66 53.04,161.74 61.81,169.15 66.55,172.37 72.00,174.85 77.78,176.60 83.36,177.48 89.91,177.20 96.46,175.59 103.59,172.97 123.58,161.46 143.68,148.71 166.34,137.76 192.58,129.89 238.49,123.77 284.74,123.63 306.08,125.56 332.50,130.21 489.28,176.37 512.44,185.53 522.66,190.64 532.13,196.53 540.47,203.25 547.69,211.21 552.26,218.07 556.16,225.67 558.82,233.54 559.96,241.54 559.93,249.83 558.92,257.98 556.94,266.21 554.01,274.31 550.28,281.72 543.90,290.33 536.17,297.74 526.72,304.41 516.34,310.08 504.94,315.14 493.11,319.19 470.12,323.88 449.29,325.13 424.25,324.34 403.04,320.75 379.08,312.51 368.83,307.41 359.22,301.38 340.97,285.59 326.38,270.13 317.47,261.93 307.93,254.62 298.35,249.28 288.20,245.36 276.84,242.88 265.11,241.87 254.12,242.05 241.75,243.80 177.53,263.27 130.88,271.09 118.98,273.30 108.76,276.62 102.61,280.21 97.00,284.72 92.33,289.92 88.63,296.04 85.84,302.85 84.13,309.98 83.56,317.85 84.16,326.00 85.64,333.78 89.17,343.77 94.35,353.02 101.54,361.95 110.04,370.23 119.28,378.15 130.68,386.06 192.48,417.13 217.22,425.41 301.24,439.22 606.91,440.74 663.31,436.69 704.04,430.25 716.28,426.20 725.85,421.00 735.16,414.09 743.26,405.76 750.05,395.82 755.19,384.91 758.49,373.59 760.00,361.85 759.43,349.47 757.14,336.95 753.11,323.70 747.77,311.04 742.73,301.70 735.97,291.80 714.33,263.91 686.33,233.40 655.04,206.10 617.60,180.93 552.63,150.55 475.23,121.83 444.95,112.58"
        fill="none"
        stroke="#e94560"
        stroke-width="8.0"
        stroke-linejoin="round"
        stroke-linecap="round"/>
  <!-- Start/finish line -->
  <line x1="439.10" y1="131.71" x2="450.80" y2="93.46"
        stroke="#f5f5f5" stroke-width="9.6"
        stroke-linecap="round"/>
</svg>
