<?xml version="1.0" encoding="utf-8"?>
<svg xmlns="http://www.w3.org/2000/svg"
     width="481.9" height="800.0"
     viewBox="0 0 481.9 800.0">
  <rect width="100%" height="100%" fill="#1a1a2e"/>
  <!-- Track outline -->
  <polyline points="44.45,364.32 42.34,379.75 40.00,420.50 41.29,454.54 42.06,465.00 45.80,487.85 69.29,627.80 73.66,645.37 84.45,674.22 91.04,687.50 95.27,693.70 120.16,720.03 135.24,732.34 147.90,740.50 166.29,749.60 179.87,753.85 194.50,757.05 225.82,760.00 239.62,759.67 253.28,757.90 273.16,752.71 292.17,744.41 311.00,732.42 322.16,722.66 332.60,711.89 346.27,693.60 353.70,680.67 368.68,644.84 376.63,615.13 439.12,234.25 441.91,196.46 440.28,177.53 433.23,144.75 427.34,129.33 420.60,115.57 409.81,99.56 390.10,78.22 370.13,62.98 348.91,51.78 336.52,47.23 323.68,43.74 297.45,40.27 279.92,40.00 263.14,42.34 246.57,45.92 238.20,48.40 230.32,51.64 219.20,57.58 207.74,65.13 195.52,74.81 183.61,86.17 160.37,115.80 141.96,145.84 75.66,265.69 67.59,283.33 53.57,322.38 44.45,364.32"
        fill="none"
        stroke="#e94560"
        stroke-width="8.0"
        stroke-linejoin="round"
        stroke-linecap="round"/>
  <!-- Start/finish line -->
  <line x1="64.07" y1="368.16" x2="24.82" y2="360.48"
        stroke="#f5f5f5" stroke-width="9.6"
        stroke-linecap="round"/>
</svg>
