<?xml version="1.0" encoding="utf-8"?>
<svg xmlns="http://www.w3.org/2000/svg"
     width="800.0" height="471.3"
     viewBox="0 0 800.0 471.3">
  <rect width="100%" height="100%" fill="#1a1a2e"/>
  <!-- Track outline -->
  <polyline points="410.47,418.10 530.27,403.80 614.03,388.26 639.37,379.81 657.65,370.94 705.18,336.64 718.39,323.29 727.59,311.36 736.61,296.95 746.59,276.20 754.50,253.29 758.69,230.54 760.00,207.56 758.15,184.81 754.59,165.23 752.53,157.99 749.87,151.34 744.17,138.74 736.31,125.08 720.86,105.92 704.97,89.58 698.70,84.30 691.86,79.81 643.94,55.36 624.64,49.09 557.15,40.00 493.94,41.96 342.30,58.64 192.84,83.88 159.44,95.96 136.43,107.80 128.25,112.78 120.60,118.71 99.42,136.97 77.97,159.19 65.21,178.13 55.74,195.57 49.26,210.55 44.48,225.52 40.81,243.11 40.00,268.16 41.37,290.91 44.27,305.14 49.08,320.61 52.13,327.74 56.43,335.44 71.01,355.51 88.46,375.66 101.36,387.20 113.76,396.30 122.30,401.92 131.89,406.78 157.17,416.18 186.74,424.22 248.19,431.31 267.64,430.59 405.69,418.67 410.47,418.10"
        fill="none"
        stroke="#e94560"
        stroke-width="8.0"
        stroke-linejoin="round"
        stroke-linecap="round"/>
  <!-- Start/finish line -->
  <line x1="408.10" y1="398.25" x2="412.84" y2="437.96"
        stroke="#f5f5f5" stroke-width="9.6"
        stroke-linecap="round"/>
</svg>
