<?xml version="1.0" encoding="utf-8"?>
<svg xmlns="http://www.w3.org/2000/svg"
     width="800.0" height="277.9"
     viewBox="0 0 800.0 277.9">
  <rect width="100%" height="100%" fill="#1a1a2e"/>
  <!-- Track outline -->
  <polyline points="419.71,198.70 389.14,192.44 330.13,178.34 304.98,170.97 285.59,165.18 251.00,156.21 173.33,138.54 54.37,114.86 50.16,113.38 46.56,111.16 43.42,108.49 40.93,104.86 40.00,100.42 40.64,95.93 42.41,90.95 53.01,74.45 57.36,69.71 62.16,66.35 67.05,64.17 73.52,62.75 80.51,62.32 90.19,63.20 103.69,65.50 195.82,81.47 223.41,87.30 236.99,91.68 245.66,95.14 254.66,99.94 286.78,116.35 293.40,118.97 300.08,120.08 306.92,119.74 313.03,118.61 318.89,116.49 324.07,114.17 330.85,109.99 337.82,104.40 356.35,83.34 373.08,65.66 387.57,54.48 400.96,47.32 408.06,44.67 415.60,42.62 434.92,40.00 473.26,41.73 523.50,46.83 573.80,51.62 578.52,52.30 582.57,53.49 588.04,56.19 592.79,59.37 596.18,62.47 598.90,65.93 600.32,68.40 601.46,71.01 602.26,73.65 602.69,76.14 602.81,78.65 602.61,81.22 601.51,85.75 599.64,90.24 597.01,94.65 593.70,98.75 589.56,102.70 585.56,106.07 580.09,109.78 574.04,113.38 566.75,116.45 560.43,118.27 553.22,119.70 546.12,119.93 540.20,119.18 535.44,118.08 486.63,98.06 476.34,94.53 464.34,92.51 453.75,92.05 444.22,92.72 434.82,94.62 423.47,98.47 412.90,103.46 406.00,107.90 400.39,112.69 396.98,116.77 394.42,120.96 392.68,124.71 391.13,129.13 390.46,132.25 390.40,135.55 390.64,138.65 391.31,141.83 392.92,145.27 395.50,148.35 399.53,150.80 405.53,153.88 412.24,156.47 445.12,165.22 484.08,174.01 518.81,179.55 534.26,181.27 547.06,180.19 557.68,177.06 569.44,172.63 581.34,167.36 593.91,160.26 637.76,128.78 659.54,116.50 676.03,110.44 682.92,108.91 689.67,108.07 696.31,107.85 702.89,108.26 709.25,109.30 715.46,110.95 721.47,113.21 727.23,116.05 732.68,119.43 737.76,123.36 742.38,127.84 746.52,132.77 750.15,138.05 753.27,143.66 755.82,149.53 757.80,155.61 759.15,161.76 759.88,168.00 760.00,174.20 759.49,180.37 758.31,186.46 756.51,192.42 754.10,198.25 751.10,203.84 747.48,209.13 743.34,214.07 738.66,218.60 733.53,222.68 728.09,226.89 721.76,231.05 713.37,234.69 702.32,236.96 688.74,237.87 668.86,237.51 586.93,228.93 493.49,213.82 419.71,198.70"
        fill="none"
        stroke="#e94560"
        stroke-width="8.0"
        stroke-linejoin="round"
        stroke-linecap="round"/>
  <!-- Start/finish line -->
  <line x1="415.70" y1="218.30" x2="423.73" y2="179.11"
        stroke="#f5f5f5" stroke-width="9.6"
        stroke-linecap="round"/>
</svg>
