<?xml version="1.0" encoding="utf-8"?>
<svg xmlns="http://www.w3.org/2000/svg"
     width="800.0" height="473.0"
     viewBox="0 0 800.0 473.0">
  <rect width="100%" height="100%" fill="#1a1a2e"/>
  <!-- Track outline -->
  <polyline points="391.28,431.09 519.64,432.98 595.90,431.94 624.06,424.89 650.57,414.61 677.81,401.56 702.02,386.47 715.33,375.36 726.79,361.96 741.80,336.94 753.58,309.55 758.22,290.98 760.00,271.93 759.35,245.17 754.51,217.53 742.33,188.30 726.23,161.60 711.14,141.94 693.06,124.37 659.89,100.60 623.01,79.85 591.06,65.91 557.48,55.34 464.08,40.40 451.69,40.00 336.05,47.79 223.19,65.76 181.18,80.85 146.28,97.42 131.71,105.66 118.68,115.29 77.00,158.27 71.80,164.33 67.36,171.03 55.01,196.34 44.32,226.02 40.65,247.21 40.00,267.26 41.41,283.24 45.65,299.47 60.22,329.30 79.38,357.84 95.20,375.41 113.40,389.50 142.21,402.90 174.12,412.78 240.17,424.89 391.28,431.09"
        fill="none"
        stroke="#e94560"
        stroke-width="8.0"
        stroke-linejoin="round"
        stroke-linecap="round"/>
  <!-- Start/finish line -->
  <line x1="391.86" y1="411.10" x2="390.71" y2="451.08"
        stroke="#f5f5f5" stroke-width="9.6"
        stroke-linecap="round"/>
</svg>
