<?xml version="1.0" encoding="utf-8"?>
<svg xmlns="http://www.w3.org/2000/svg"
     width="642.8" height="800.0"
     viewBox="0 0 642.8 800.0">
  <rect width="100%" height="100%" fill="#1a1a2e"/>
  <!-- Track outline -->
  <polyline points="601.03,241.36 601.65,348.50 602.83,406.97 601.64,422.76 598.57,438.00 593.57,452.85 586.87,467.04 580.43,476.90 572.76,485.97 560.82,496.59 547.26,505.52 528.59,514.50 512.54,519.85 491.33,524.10 473.67,525.56 441.69,525.44 411.39,523.47 395.81,520.96 380.88,516.25 366.77,508.97 353.58,499.64 341.43,488.63 330.55,475.89 318.72,458.07 280.09,396.94 273.77,388.84 267.97,382.83 261.73,377.81 255.35,373.77 249.62,370.89 243.81,368.77 237.77,367.32 231.43,366.60 223.58,366.65 215.49,367.60 207.31,369.48 199.48,372.18 193.34,375.08 187.50,378.77 180.83,384.16 174.53,390.57 169.12,397.66 164.46,405.50 160.78,413.94 157.95,422.90 156.01,432.12 154.92,441.85 155.38,465.70 159.68,489.64 168.40,512.95 185.53,542.68 198.08,566.12 205.05,582.79 210.15,600.10 213.40,617.90 214.76,636.00 214.13,653.79 211.71,670.87 206.30,690.95 199.48,708.96 191.33,724.76 185.24,732.96 177.91,740.13 166.46,748.02 153.57,754.26 143.18,757.66 132.30,759.58 121.21,760.00 110.11,758.75 99.21,755.87 88.72,751.46 78.85,745.61 66.91,735.76 58.97,727.09 52.23,717.26 46.97,706.41 43.17,694.87 40.87,682.87 40.00,666.40 41.70,645.60 46.15,620.27 54.86,585.76 83.43,490.60 101.90,434.51 113.18,406.23 128.87,373.60 144.39,346.17 170.98,306.30 208.97,254.05 231.72,225.88 248.81,207.82 263.81,194.77 280.11,183.15 301.97,170.68 330.04,158.47 354.36,150.04 388.10,141.14 419.01,135.29 452.51,131.35 476.14,128.39 483.29,126.07 489.80,123.01 496.27,119.12 502.38,114.40 507.73,109.31 512.90,102.72 529.34,69.32 535.41,56.23 537.73,52.63 540.22,49.64 543.25,46.93 546.59,44.69 550.42,42.79 554.48,41.38 558.95,40.41 563.37,40.00 566.85,40.15 570.34,40.77 575.00,42.16 579.56,44.05 582.95,45.90 586.05,48.08 588.94,50.56 591.67,53.54 594.70,57.78 597.39,62.62 599.46,67.65 601.04,73.16 602.80,87.82 601.03,241.36"
        fill="none"
        stroke="#e94560"
        stroke-width="8.0"
        stroke-linejoin="round"
        stroke-linecap="round"/>
  <!-- Start/finish line -->
  <line x1="621.03" y1="241.45" x2="581.03" y2="241.27"
        stroke="#f5f5f5" stroke-width="9.6"
        stroke-linecap="round"/>
</svg>
