<?xml version="1.0" encoding="utf-8"?>
<svg xmlns="http://www.w3.org/2000/svg"
     width="585.2" height="800.0"
     viewBox="0 0 585.2 800.0">
  <rect width="100%" height="100%" fill="#1a1a2e"/>
  <!-- Track outline -->
  <polyline points="141.94,656.75 143.11,659.23 184.14,733.22 188.95,739.08 193.41,742.98 199.79,747.43 206.61,751.12 213.55,754.10 220.75,756.43 229.06,758.41 237.63,759.65 246.48,760.00 255.55,759.47 265.41,757.98 275.98,755.35 308.10,742.96 359.63,717.02 421.34,684.73 489.21,648.48 509.06,635.97 515.92,630.08 522.19,623.51 528.28,615.87 533.75,607.42 537.98,599.00 541.34,590.18 543.41,582.24 544.67,574.19 545.15,566.46 544.82,558.79 543.46,551.15 541.20,543.47 536.98,533.03 531.56,522.39 514.95,497.58 498.13,478.54 490.43,471.80 482.71,466.23 475.40,462.00 467.97,458.66 460.44,456.00 451.85,454.03 410.91,451.30 386.64,450.07 374.71,448.46 371.08,447.43 367.75,446.09 364.48,444.35 361.34,442.22 358.49,439.85 355.80,437.01 353.15,433.38 350.60,429.04 344.49,415.31 334.72,393.99 324.21,378.46 307.67,361.52 279.81,338.85 264.16,323.86 251.15,308.81 237.63,290.18 215.67,255.71 189.93,214.09 180.96,196.93 175.67,183.55 171.91,169.78 169.33,153.44 168.37,128.78 167.52,88.91 166.64,83.33 165.35,78.75 163.17,73.28 160.34,68.13 156.25,62.74 151.51,57.97 145.67,53.56 139.40,49.80 132.67,46.31 125.77,43.50 118.80,41.56 111.77,40.41 104.65,40.00 97.76,40.42 92.20,41.58 87.01,43.38 82.83,45.35 78.71,48.03 73.24,52.82 67.81,58.71 58.44,72.38 47.05,95.42 43.91,104.91 41.70,114.38 40.47,123.08 40.00,131.92 40.32,141.65 41.47,151.05 43.25,158.54 45.64,165.41 48.76,172.23 52.36,178.33 56.11,183.16 60.30,187.37 65.93,191.87 72.70,196.21 103.29,211.24 138.14,232.15 145.35,237.97 152.76,246.23 158.97,255.68 165.21,267.99 173.43,290.24 177.93,306.58 180.21,320.85 181.04,336.48 179.84,349.90 174.23,375.19 162.57,410.50 150.50,442.77 129.77,497.86 124.53,523.64 123.26,555.44 123.51,575.81 122.17,584.11 120.06,590.78 118.22,597.40 117.91,601.26 118.20,605.10 119.61,611.12 122.14,618.02 139.06,651.00 140.57,653.82 141.94,656.75"
        fill="none"
        stroke="#e94560"
        stroke-width="8.0"
        stroke-linejoin="round"
        stroke-linecap="round"/>
  <!-- Start/finish line -->
  <line x1="160.04" y1="648.24" x2="123.84" y2="665.26"
        stroke="#f5f5f5" stroke-width="9.6"
        stroke-linecap="round"/>
</svg>
