<?xml version="1.0" encoding="utf-8"?>
<svg xmlns="http://www.w3.org/2000/svg"
     width="800.0" height="427.1"
     viewBox="0 0 800.0 427.1">
  <rect width="100%" height="100%" fill="#1a1a2e"/>
  <!-- Track outline -->
  <polyline points="277.14,40.52 229.30,40.00 179.42,47.28 150.58,53.75 123.16,63.11 102.24,75.49 84.41,89.76 71.87,102.80 62.46,114.76 59.36,119.25 56.76,124.21 48.77,143.87 42.01,165.80 40.39,177.37 40.00,188.15 40.90,209.75 42.64,221.80 45.63,234.32 51.25,250.06 58.92,265.56 69.15,279.87 80.52,292.40 89.10,300.05 98.81,306.95 117.46,318.06 139.29,328.60 193.74,345.70 261.64,360.82 485.21,386.82 524.20,387.10 547.68,385.02 638.64,368.29 661.06,360.35 682.19,348.59 702.29,334.64 720.23,318.06 735.41,299.63 746.98,279.59 754.69,257.99 758.78,236.21 760.00,214.14 758.23,197.41 755.40,182.19 751.90,172.03 741.90,152.23 728.92,133.43 712.75,114.62 695.64,100.63 676.76,88.01 651.46,72.13 629.27,60.13 624.28,58.34 618.77,57.11 529.90,43.31 277.14,40.52"
        fill="none"
        stroke="#e94560"
        stroke-width="8.0"
        stroke-linejoin="round"
        stroke-linecap="round"/>
  <!-- Start/finish line -->
  <line x1="276.92" y1="60.52" x2="277.36" y2="20.52"
        stroke="#f5f5f5" stroke-width="9.6"
        stroke-linecap="round"/>
</svg>
