<?xml version="1.0" encoding="utf-8"?>
<svg xmlns="http://www.w3.org/2000/svg"
     width="407.8" height="800.0"
     viewBox="0 0 407.8 800.0">
  <rect width="100%" height="100%" fill="#1a1a2e"/>
  <!-- Track outline -->
  <polyline points="68.06,376.08 67.67,379.29 44.11,572.57 40.00,631.77 42.27,648.00 46.10,662.35 50.30,674.55 56.08,686.55 67.87,704.85 82.38,722.12 97.88,734.67 113.97,744.41 126.69,750.43 139.89,754.75 157.55,758.37 175.61,760.00 190.65,759.31 205.15,757.01 219.19,753.47 232.13,748.94 240.58,745.08 248.74,740.33 260.86,732.09 273.08,721.80 285.59,707.72 296.38,692.38 302.90,680.29 307.89,667.20 315.55,625.83 367.76,169.37 367.11,155.51 365.12,145.57 361.77,134.09 357.09,122.73 350.08,109.40 341.60,96.51 331.69,84.53 320.77,73.72 309.21,64.34 296.97,56.43 284.57,50.29 271.20,45.62 252.92,41.81 234.16,40.00 219.04,40.20 204.09,42.33 186.04,47.55 168.86,54.67 157.35,60.88 146.53,68.75 131.15,83.49 117.48,100.12 110.51,111.77 105.08,124.71 93.22,173.95 68.06,376.08"
        fill="none"
        stroke="#e94560"
        stroke-width="8.0"
        stroke-linejoin="round"
        stroke-linecap="round"/>
  <!-- Start/finish line -->
  <line x1="87.91" y1="378.55" x2="48.21" y2="373.61"
        stroke="#f5f5f5" stroke-width="9.6"
        stroke-linecap="round"/>
</svg>
