<?xml version="1.0" encoding="utf-8"?>
<svg xmlns="http://www.w3.org/2000/svg"
     width="676.1" height="800.0"
     viewBox="0 0 676.1 800.0">
  <rect width="100%" height="100%" fill="#1a1a2e"/>
  <!-- Track outline -->
  <polyline points="84.26,369.74 75.88,383.53 46.93,438.49 42.54,450.34 40.48,460.12 40.00,468.12 40.65,475.79 42.22,483.28 44.95,490.59 49.94,499.23 56.85,507.67 70.59,519.19 87.24,530.38 110.30,544.51 132.80,555.78 144.75,559.36 155.40,560.90 163.74,561.07 171.61,560.03 179.08,557.85 186.18,554.51 192.57,550.08 198.36,544.62 202.98,538.88 207.21,531.63 213.63,513.73 220.05,495.75 224.34,488.26 228.96,482.24 234.40,476.61 240.33,471.92 246.55,468.38 253.04,465.96 259.70,464.73 266.73,464.67 275.73,466.05 285.17,468.94 306.88,480.79 366.72,518.53 374.92,523.49 382.73,529.94 389.44,536.38 397.31,544.84 405.08,554.81 424.99,583.58 428.76,591.57 431.25,599.41 432.54,607.59 432.91,616.95 431.23,637.76 429.87,659.46 431.15,672.36 433.95,684.47 439.40,699.47 446.61,713.68 454.83,725.33 463.93,735.24 472.58,742.49 481.69,748.34 491.47,753.22 501.66,756.83 512.55,759.14 523.65,760.00 534.97,759.27 546.22,756.98 557.36,753.03 568.21,747.52 578.97,740.49 589.31,731.72 600.24,719.81 609.94,706.06 617.10,691.81 622.52,676.05 626.34,656.39 628.33,634.52 627.17,572.08 636.07,465.81 635.46,450.86 633.21,437.93 626.92,419.60 618.89,401.86 611.02,387.83 604.44,375.98 602.63,371.01 601.59,366.48 601.09,361.64 601.06,357.17 601.22,354.87 601.67,352.60 603.08,348.30 605.12,343.92 607.72,340.21 610.85,336.60 615.85,331.77 620.88,326.44 624.69,320.52 627.55,314.03 628.75,309.34 629.44,304.44 629.58,299.93 628.90,295.35 627.52,291.19 625.48,287.07 622.88,283.33 619.83,280.09 616.00,277.24 608.18,273.38 597.59,269.88 526.42,257.67 467.61,248.19 457.30,249.03 448.60,251.51 442.93,254.00 437.51,257.15 432.54,260.93 426.33,267.40 421.14,274.98 417.23,282.88 414.51,292.42 413.88,314.16 414.36,337.14 412.24,363.30 409.86,373.21 406.66,381.95 403.24,388.32 399.23,393.83 394.38,398.86 388.98,403.11 383.11,406.56 376.65,409.20 367.72,411.31 358.22,412.39 348.92,412.61 338.95,411.55 305.18,400.99 294.55,398.10 284.44,396.31 273.47,396.14 262.52,397.54 252.10,400.43 241.66,405.29 228.88,414.40 215.41,426.59 174.11,472.53 168.63,477.36 163.64,480.69 156.89,483.69 150.60,485.72 147.90,486.43 145.28,486.73 140.56,486.41 136.00,485.50 133.86,484.70 131.99,483.71 130.15,482.54 128.41,481.18 126.78,479.71 125.24,477.86 123.09,474.21 121.32,469.91 120.34,465.75 120.04,461.04 121.03,451.98 123.47,441.88 127.84,430.72 134.59,417.55 196.78,316.16 234.28,258.10 268.65,215.23 315.40,168.52 397.03,91.63 402.37,83.67 405.37,76.59 406.87,69.55 407.32,63.27 407.16,60.64 406.71,58.37 406.09,56.10 405.27,53.94 404.22,51.89 402.98,49.99 401.59,48.20 399.85,46.52 396.18,44.04 391.91,41.94 387.57,40.60 382.85,40.00 375.89,40.17 368.06,41.79 356.51,47.36 343.34,54.72 299.19,75.36 276.69,87.79 256.80,101.00 246.73,110.07 238.51,119.93 231.42,131.07 225.55,144.19 215.87,189.69 208.00,218.70 202.98,229.99 196.96,240.29 189.76,249.96 180.72,259.46 159.53,275.37 137.16,292.74 123.67,307.92 110.41,326.70 84.26,369.74"
        fill="none"
        stroke="#e94560"
        stroke-width="8.0"
        stroke-linejoin="round"
        stroke-linecap="round"/>
  <!-- Start/finish line -->
  <line x1="101.35" y1="380.12" x2="67.17" y2="359.35"
        stroke="#f5f5f5" stroke-width="9.6"
        stroke-linecap="round"/>
</svg>
