<?xml version="1.0" encoding="utf-8"?>
<svg xmlns="http://www.w3.org/2000/svg"
     width="800.0" height="554.7"
     viewBox="0 0 800.0 554.7">
  <rect width="100%" height="100%" fill="#1a1a2e"/>
  <!-- Track outline -->
  <polyline points="366.24,452.64 504.00,500.23 534.96,508.69 563.15,514.26 586.30,514.74 604.85,513.15 622.29,510.01 636.93,506.35 661.01,496.68 674.49,488.27 687.24,479.41 697.06,470.97 717.06,450.45 733.98,428.23 739.85,418.40 745.10,407.51 754.65,376.64 759.44,346.92 760.00,334.65 758.58,312.48 750.47,280.16 742.65,262.29 728.85,240.25 718.60,227.04 695.89,205.29 678.07,192.43 659.36,182.19 645.00,175.92 295.21,54.19 254.69,45.03 241.47,42.26 208.04,40.00 173.60,42.46 165.03,44.29 154.45,47.71 122.95,62.61 114.52,68.26 89.87,89.35 80.46,100.00 70.99,112.62 64.17,123.73 57.32,137.09 47.04,164.36 43.47,177.96 40.00,205.48 40.14,231.19 41.65,241.32 46.90,260.14 60.45,290.99 75.79,316.02 82.91,324.50 99.39,340.98 109.51,349.39 130.53,363.31 167.23,380.88 362.64,451.40 366.24,452.64"
        fill="none"
        stroke="#e94560"
        stroke-width="8.0"
        stroke-linejoin="round"
        stroke-linecap="round"/>
  <!-- Start/finish line -->
  <line x1="372.77" y1="433.74" x2="359.71" y2="471.55"
        stroke="#f5f5f5" stroke-width="9.6"
        stroke-linecap="round"/>
</svg>
