<?xml version="1.0" encoding="utf-8"?>
<svg xmlns="http://www.w3.org/2000/svg"
     width="751.4" height="800.0"
     viewBox="0 0 751.4 800.0">
  <rect width="100%" height="100%" fill="#1a1a2e"/>
  <!-- Track outline -->
  <polyline points="89.22,323.66 49.26,392.35 43.77,405.55 41.87,412.29 40.59,419.18 40.00,426.12 40.06,433.06 40.74,439.66 42.04,446.07 43.95,452.14 46.44,457.89 49.60,463.52 53.25,468.82 62.14,478.59 72.48,486.83 107.58,508.01 143.53,527.33 156.02,531.48 168.57,533.80 174.84,534.17 181.06,533.90 187.06,533.01 192.88,531.41 198.19,529.19 203.20,526.31 207.68,522.93 211.74,518.96 215.25,514.58 218.35,509.77 223.27,499.35 232.20,476.65 238.10,465.34 245.26,454.82 253.62,446.04 258.27,442.30 263.19,439.06 268.33,436.40 273.64,434.29 278.99,432.75 284.44,431.68 290.09,431.08 295.78,430.98 307.44,432.46 319.06,435.62 330.53,440.41 412.53,491.11 423.80,499.72 434.43,508.95 448.54,523.48 464.82,544.39 475.99,561.63 482.13,574.20 486.33,587.69 488.04,598.65 491.21,659.72 494.22,672.65 503.29,697.07 509.66,708.41 517.27,718.97 536.57,737.69 547.93,745.71 560.11,752.19 573.19,756.95 587.00,759.61 601.28,760.00 615.46,758.21 629.06,754.13 641.76,747.96 653.43,739.67 663.90,729.80 672.75,718.37 680.01,705.84 686.06,692.48 695.68,656.04 704.29,608.00 708.39,482.50 711.41,427.36 711.08,420.66 710.04,414.37 705.85,397.86 699.28,379.24 676.50,338.19 672.25,328.09 670.45,321.85 669.23,315.37 668.78,309.37 669.02,303.50 669.99,297.84 671.73,292.35 674.89,286.50 678.73,280.92 687.03,270.45 690.07,265.76 692.63,260.88 694.62,255.53 695.92,249.95 696.44,244.44 696.05,238.85 694.93,234.52 693.21,230.17 691.18,226.23 687.82,221.59 683.91,217.72 679.23,214.36 674.11,211.70 668.26,209.60 662.12,208.07 648.79,205.97 560.87,203.09 523.77,198.24 513.37,194.90 507.30,192.19 501.42,188.76 496.35,184.74 491.86,180.05 488.20,174.83 485.27,169.05 483.14,162.84 481.87,156.31 481.63,149.83 482.34,143.43 484.03,137.41 486.55,131.75 490.02,126.29 494.16,121.45 499.01,117.24 504.35,113.83 510.31,111.08 516.58,109.22 523.19,108.27 529.91,108.25 536.63,109.14 543.27,110.93 556.23,117.03 595.80,140.96 601.16,143.33 605.97,144.85 612.63,146.40 619.54,147.25 626.07,147.22 632.46,146.30 638.40,144.51 643.97,141.78 647.19,139.53 650.20,136.90 652.86,133.90 655.10,130.64 657.01,127.04 658.44,123.24 659.33,119.27 659.74,115.12 659.69,111.01 659.09,106.92 658.02,102.88 656.55,99.06 653.38,93.60 649.46,88.64 645.25,84.29 639.60,79.79 613.30,63.23 586.19,48.39 573.95,43.96 560.98,41.18 547.23,40.00 533.25,40.99 526.38,42.39 519.63,44.40 513.80,46.58 506.65,50.25 409.14,117.75 387.94,137.36 383.43,143.04 379.79,148.70 376.51,154.64 373.78,160.88 371.79,167.19 370.40,173.70 369.53,180.22 369.25,186.82 369.66,193.42 370.68,199.95 372.24,206.46 374.37,212.77 376.86,218.33 380.51,224.61 421.07,278.53 434.04,299.20 438.93,309.52 441.06,316.24 442.53,323.28 443.01,329.95 442.54,336.50 440.93,342.67 438.39,348.37 434.75,353.71 430.35,358.38 425.21,362.42 419.55,365.58 413.22,367.83 406.57,369.21 399.48,369.94 392.52,369.91 381.65,368.15 370.58,365.10 323.24,348.93 316.33,347.91 310.39,347.74 297.66,348.37 285.15,350.89 273.07,355.84 261.48,362.51 250.76,370.81 203.00,421.67 194.72,430.62 186.33,438.04 180.65,441.81 174.60,444.96 168.63,447.04 162.65,448.29 157.21,448.78 151.77,448.34 147.67,447.30 143.51,445.68 139.75,443.63 136.85,441.43 134.25,438.89 132.01,435.99 130.20,432.87 128.74,429.43 127.68,425.86 126.92,420.13 127.05,414.23 128.13,408.26 129.93,402.36 135.40,390.41 189.93,295.11 194.63,288.78 198.81,284.33 204.13,279.59 209.90,275.58 216.33,272.41 222.97,270.21 229.24,269.10 235.46,269.00 241.48,269.94 247.30,271.88 252.65,274.97 257.81,278.69 268.39,286.94 274.12,290.47 280.08,293.35 286.19,295.40 292.39,296.51 296.62,296.63 300.85,296.29 304.88,295.35 308.35,293.97 311.64,292.09 314.57,289.60 317.20,286.24 319.47,282.27 321.19,278.14 322.51,272.51 322.92,266.68 322.51,260.59 321.44,254.45 320.01,248.55 317.65,241.92 306.55,220.77 295.82,199.98 294.08,194.32 293.15,189.36 292.07,178.46 292.83,167.27 295.38,156.36 299.81,146.01 310.78,125.37 312.75,119.76 313.99,114.44 314.72,109.12 314.85,103.61 314.23,96.84 312.68,90.12 309.71,83.64 305.90,77.96 302.04,73.92 297.79,70.68 292.98,67.92 287.88,65.89 282.44,64.68 276.89,64.27 271.43,64.66 266.07,65.77 260.91,67.59 255.94,70.03 251.50,72.73 246.67,76.46 235.30,86.61 221.30,102.33 145.54,226.86 89.22,323.66"
        fill="none"
        stroke="#e94560"
        stroke-width="8.0"
        stroke-linejoin="round"
        stroke-linecap="round"/>
  <!-- Start/finish line -->
  <line x1="106.51" y1="333.72" x2="71.94" y2="313.61"
        stroke="#f5f5f5" stroke-width="9.6"
        stroke-linecap="round"/>
</svg>
