<?xml version="1.0" encoding="utf-8"?>
<svg xmlns="http://www.w3.org/2000/svg"
     width="538.7" height="800.0"
     viewBox="0 0 538.7 800.0">
  <rect width="100%" height="100%" fill="#1a1a2e"/>
  <!-- Track outline -->
  <polyline points="81.08,329.35 63.49,403.07 54.39,453.65 40.00,574.85 40.17,623.13 44.54,660.13 50.02,689.73 51.26,693.34 52.91,696.50 60.60,710.23 69.94,724.58 75.11,730.72 80.71,735.96 90.08,743.17 99.20,749.10 102.60,750.89 106.36,752.32 122.69,756.90 138.31,760.00 140.52,759.97 142.83,759.46 199.94,742.81 281.39,710.73 297.96,701.59 303.81,697.33 309.32,692.30 317.38,683.00 324.17,673.20 326.69,667.81 328.46,662.42 330.60,654.79 331.93,648.00 332.01,646.10 331.76,643.98 323.05,597.45 308.52,548.66 300.97,530.91 292.53,516.79 283.55,505.80 278.99,501.18 273.80,496.90 265.36,491.62 256.60,487.51 251.38,486.08 246.04,485.46 237.62,485.01 228.86,485.79 223.38,487.45 218.09,489.81 213.43,492.49 208.87,496.09 205.16,499.99 202.56,503.21 200.33,506.99 196.88,515.69 194.60,524.36 194.34,527.22 194.73,530.47 204.16,561.23 214.57,594.51 216.27,607.91 215.83,620.39 213.55,632.42 209.16,644.34 203.17,655.12 196.81,663.02 189.48,669.63 181.14,675.14 172.11,679.31 167.77,680.80 162.97,681.87 153.96,682.67 144.45,682.38 136.76,680.65 129.94,678.15 125.92,676.09 122.15,673.56 116.48,669.03 111.16,663.61 107.45,658.01 104.49,651.93 101.92,644.93 100.12,637.91 99.37,632.69 99.13,627.51 100.10,614.52 116.36,551.29 133.07,481.41 131.52,424.72 128.46,378.67 130.57,351.39 135.01,324.76 140.40,304.42 147.61,285.41 157.09,266.97 168.33,249.43 180.99,232.72 195.09,217.20 210.91,202.99 227.60,190.54 242.79,181.31 258.42,173.74 274.87,167.58 291.80,162.99 326.43,158.58 386.89,156.94 454.51,151.82 463.80,148.93 470.84,145.68 475.30,143.30 479.16,140.74 482.46,138.21 485.62,135.02 491.20,127.51 495.93,118.70 497.53,113.51 498.43,108.27 498.67,103.03 498.28,97.79 497.24,92.57 495.61,87.60 491.58,80.18 487.17,74.14 485.28,72.08 483.29,70.38 479.94,67.82 475.74,65.35 466.88,61.83 458.37,59.36 456.16,59.03 453.64,59.03 394.73,64.16 333.51,72.08 304.69,73.57 290.49,71.48 276.56,67.52 250.92,53.82 223.70,41.19 215.37,40.00 207.92,40.21 201.23,41.40 196.28,43.07 191.84,45.42 187.83,48.28 184.24,51.62 181.09,55.49 178.49,59.90 176.26,66.12 174.76,73.03 174.10,78.96 174.37,82.86 175.15,86.38 177.40,94.09 183.03,107.14 188.25,121.02 189.07,127.54 188.93,133.41 188.32,138.59 187.20,143.66 183.56,154.29 176.43,167.13 166.39,181.61 139.62,214.37 112.01,250.77 97.62,277.58 85.91,309.06 81.08,329.35"
        fill="none"
        stroke="#e94560"
        stroke-width="8.0"
        stroke-linejoin="round"
        stroke-linecap="round"/>
  <!-- Start/finish line -->
  <line x1="100.53" y1="333.99" x2="61.62" y2="324.71"
        stroke="#f5f5f5" stroke-width="9.6"
        stroke-linecap="round"/>
</svg>
