<?xml version="1.0" encoding="utf-8"?>
<svg xmlns="http://www.w3.org/2000/svg"
     width="597.6" height="800.0"
     viewBox="0 0 597.6 800.0">
  <rect width="100%" height="100%" fill="#1a1a2e"/>
  <!-- Track outline -->
  <polyline points="84.45,349.60 63.94,456.12 40.00,579.79 40.41,621.32 44.68,657.09 49.61,678.99 56.59,697.91 64.81,712.96 74.94,726.03 86.71,736.70 100.30,745.42 117.21,752.85 136.60,757.83 165.47,760.00 198.23,758.63 249.08,752.44 295.48,743.35 312.34,738.37 325.41,732.35 331.49,728.17 336.66,723.52 340.83,718.44 343.69,713.46 345.73,708.14 346.74,702.69 346.63,697.01 345.48,691.26 343.41,685.71 340.01,679.89 335.49,674.34 330.37,669.59 324.81,665.85 318.66,662.87 311.96,660.77 303.79,659.36 294.94,659.13 284.86,660.17 251.25,671.13 217.08,684.24 200.14,689.52 185.02,692.73 176.25,693.30 167.78,692.96 159.86,691.63 153.24,689.55 147.08,686.65 141.58,682.97 136.68,678.32 132.41,672.90 129.25,667.25 127.48,662.07 126.58,656.72 126.58,651.27 127.58,645.15 129.60,638.97 132.51,633.25 138.75,626.03 147.36,619.04 169.93,604.87 192.16,589.92 197.98,583.94 202.48,578.05 205.88,571.90 208.14,565.95 209.50,559.76 210.02,553.18 209.67,544.89 208.09,536.03 204.96,526.26 187.12,495.84 166.72,464.74 149.32,430.48 144.55,414.43 141.86,398.14 141.26,381.29 142.81,363.81 147.38,341.61 154.46,319.27 163.42,298.85 174.48,279.22 188.62,258.86 204.79,239.50 223.18,221.21 242.78,204.93 261.14,192.26 280.04,181.99 296.74,175.27 317.49,169.89 413.76,158.96 507.23,147.86 523.68,142.91 535.50,136.93 541.84,132.48 547.37,127.43 551.76,121.98 554.64,116.76 556.66,111.18 557.64,105.56 557.47,99.81 556.30,93.96 554.32,88.41 551.40,83.00 547.59,77.91 543.07,73.40 537.29,69.19 530.62,65.68 523.30,62.90 509.52,59.96 491.62,58.82 413.76,64.07 334.21,69.09 313.87,67.38 295.54,63.60 259.29,51.07 225.55,40.50 217.27,40.00 210.24,40.57 204.14,42.17 200.82,43.58 197.79,45.35 195.15,47.42 193.00,49.86 191.37,52.67 190.17,55.88 189.43,59.29 189.19,62.80 190.96,71.16 194.44,80.42 200.98,94.97 206.73,110.45 208.09,124.52 207.14,138.30 204.63,150.77 199.92,163.07 190.39,177.92 177.37,194.67 112.85,276.91 98.04,306.27 86.82,337.23 84.45,349.60"
        fill="none"
        stroke="#e94560"
        stroke-width="8.0"
        stroke-linejoin="round"
        stroke-linecap="round"/>
  <!-- Start/finish line -->
  <line x1="104.09" y1="353.38" x2="64.81" y2="345.82"
        stroke="#f5f5f5" stroke-width="9.6"
        stroke-linecap="round"/>
</svg>
