<?xml version="1.0" encoding="utf-8"?>
<svg xmlns="http://www.w3.org/2000/svg"
     width="729.5" height="800.0"
     viewBox="0 0 729.5 800.0">
  <rect width="100%" height="100%" fill="#1a1a2e"/>
  <!-- Track outline -->
  <polyline points="90.76,404.22 79.53,423.53 56.93,463.39 40.83,498.90 40.00,508.09 40.77,514.95 41.26,517.93 42.07,520.72 46.19,530.61 49.90,537.05 53.67,542.54 55.10,544.11 56.88,545.65 86.78,567.17 127.87,591.45 166.68,610.24 173.09,611.67 178.32,612.00 182.88,611.81 186.71,611.28 190.32,610.22 195.99,608.13 201.86,604.99 208.98,598.67 214.78,592.08 216.34,589.88 217.76,587.18 238.72,535.11 245.09,523.60 250.78,515.96 257.22,509.19 262.31,505.60 267.78,503.02 275.25,501.08 282.10,500.10 286.65,500.07 296.05,501.13 304.50,503.40 314.34,507.76 397.95,560.58 428.31,584.89 448.82,608.30 456.50,619.64 462.92,631.43 468.03,643.95 471.94,657.19 476.60,688.80 477.80,721.89 478.79,729.88 480.61,736.85 482.70,741.39 485.30,745.68 488.09,749.31 490.22,751.52 492.47,753.30 495.13,754.89 499.73,756.95 505.08,758.69 510.39,759.74 515.10,760.00 519.80,759.67 524.33,758.78 528.76,757.28 533.02,755.22 536.85,752.64 540.16,749.55 543.06,745.94 545.34,742.07 546.87,738.20 547.81,734.06 548.31,729.35 547.00,715.05 545.63,701.18 546.41,695.86 547.88,691.36 549.86,687.14 552.56,683.18 557.13,678.56 562.44,674.60 567.10,672.26 572.67,670.19 589.77,665.60 607.17,659.74 612.54,656.13 616.93,652.12 620.44,648.33 622.93,645.05 624.87,641.53 627.53,635.58 629.49,628.83 630.09,623.67 630.11,618.28 629.49,613.06 628.25,608.11 626.40,603.31 623.97,598.97 620.73,595.13 616.93,591.73 613.59,589.15 611.59,587.84 609.40,586.95 602.95,585.40 596.15,584.72 593.11,585.07 589.87,586.03 577.93,591.26 565.42,596.37 560.57,597.19 556.28,597.19 553.49,596.89 550.76,596.28 548.08,595.29 544.97,593.65 541.93,591.54 539.33,589.15 537.46,586.64 536.01,583.88 534.87,581.02 533.83,576.40 533.42,572.02 533.40,569.58 533.67,567.12 534.80,562.20 536.31,557.33 538.49,552.64 542.86,545.72 548.46,539.35 556.36,532.74 565.48,527.07 575.80,522.52 586.87,519.29 611.29,517.02 630.30,517.34 642.32,517.16 654.20,515.70 664.36,511.93 672.96,507.15 677.28,503.75 680.63,500.21 682.75,497.31 684.51,494.26 686.37,490.72 687.90,487.02 688.83,483.48 689.34,479.64 689.53,473.80 688.96,467.45 687.18,460.25 683.92,452.17 671.54,431.83 659.54,413.22 656.16,405.91 654.95,402.23 654.12,398.17 653.64,390.63 653.93,383.20 654.65,379.52 655.71,376.26 658.59,370.10 662.54,363.81 670.84,353.78 675.18,348.37 678.88,342.53 680.61,338.04 681.81,333.25 682.39,328.47 681.85,321.14 680.28,314.53 678.99,311.25 677.24,308.22 673.77,303.35 669.47,298.69 665.15,295.29 659.74,292.43 647.05,288.66 629.62,285.14 509.23,266.39 497.23,266.74 487.55,268.55 479.58,271.27 472.46,275.06 466.36,279.70 463.66,282.26 461.05,285.42 456.30,293.34 452.25,302.23 450.62,308.30 449.64,314.34 448.42,328.57 449.37,383.22 447.99,395.99 445.47,406.66 442.32,414.20 438.22,420.83 433.13,426.79 427.03,431.92 418.81,436.58 409.72,440.15 400.22,442.51 390.16,443.61 378.61,443.31 365.60,441.51 312.80,427.91 297.54,427.00 283.67,428.17 271.14,431.10 259.31,435.67 243.13,444.76 240.36,446.75 237.57,449.33 206.79,485.66 181.72,516.97 177.91,520.18 169.99,525.59 165.93,528.03 161.72,530.00 157.38,531.22 152.97,531.78 148.65,531.71 144.46,530.96 140.52,529.46 136.85,527.33 133.54,524.66 130.63,521.52 128.14,517.98 126.15,513.90 124.24,507.38 123.23,500.66 123.43,495.78 124.15,491.52 125.52,486.83 130.57,476.10 138.63,462.74 206.84,360.60 267.06,267.19 300.18,224.68 375.01,152.61 440.27,88.14 444.14,82.75 446.35,77.97 447.58,73.65 448.31,69.08 448.46,64.89 448.17,62.10 447.52,59.52 446.46,56.94 444.52,53.52 441.96,50.08 439.01,47.10 435.54,44.66 431.63,42.67 427.62,41.22 421.13,40.14 415.44,40.00 413.66,40.19 411.97,40.56 402.95,43.19 344.10,69.37 284.15,101.82 271.52,111.81 262.56,121.63 255.02,132.20 249.05,143.52 244.70,155.42 241.22,167.80 239.62,186.15 236.26,208.34 232.05,224.30 226.58,239.09 220.19,251.91 212.81,263.51 205.74,272.63 196.50,279.80 183.94,287.86 166.88,297.82 157.22,307.17 146.05,320.88 135.43,335.53 123.38,352.05 90.76,404.22"
        fill="none"
        stroke="#e94560"
        stroke-width="8.0"
        stroke-linejoin="round"
        stroke-linecap="round"/>
  <!-- Start/finish line -->
  <line x1="107.80" y1="414.68" x2="73.71" y2="393.76"
        stroke="#f5f5f5" stroke-width="9.6"
        stroke-linecap="round"/>
</svg>
