<?xml version="1.0" encoding="utf-8"?>
<svg xmlns="http://www.w3.org/2000/svg"
     width="560.5" height="800.0"
     viewBox="0 0 560.5 800.0">
  <rect width="100%" height="100%" fill="#1a1a2e"/>
  <!-- Track outline -->
  <polyline points="119.78,311.38 54.04,504.67 50.03,517.61 44.41,537.88 40.40,558.96 40.00,575.29 40.76,588.83 42.78,601.20 45.47,613.66 49.50,627.16 54.96,640.01 61.11,652.59 68.05,664.07 80.24,678.86 90.77,688.76 103.57,698.55 118.34,707.48 133.28,714.18 148.61,718.93 165.00,721.93 179.65,723.08 203.09,721.84 219.97,718.59 235.90,713.36 252.15,706.49 269.03,696.80 286.21,683.99 299.86,670.48 316.53,647.32 327.70,630.00 337.90,610.56 350.22,570.71 360.41,535.61 368.90,480.12 371.46,457.18 374.28,424.35 377.96,376.09 378.70,367.66 379.61,361.79 381.45,355.73 384.93,350.05 388.97,345.84 394.47,342.17 400.15,339.79 406.10,338.67 412.82,338.66 420.45,339.65 427.33,341.42 431.25,342.92 439.14,347.33 445.39,352.27 451.38,358.82 457.65,368.78 462.38,381.21 464.61,394.06 464.94,405.38 463.84,419.70 459.68,436.77 451.32,458.20 432.97,501.85 407.19,553.43 392.41,579.88 350.47,644.61 338.79,663.76 332.31,675.99 327.75,688.70 324.67,700.82 322.92,714.08 322.73,723.24 325.38,732.04 329.28,740.06 335.55,747.64 342.47,752.84 348.95,756.20 353.83,758.04 361.88,759.74 371.66,760.00 379.84,758.58 392.02,753.89 403.67,746.98 418.47,736.03 427.72,727.51 436.85,714.22 444.96,699.52 449.96,685.94 453.13,672.43 454.04,660.52 453.44,652.26 450.94,644.16 449.06,633.43 447.80,622.14 447.74,611.84 449.00,581.98 450.14,570.76 455.10,544.47 457.20,537.01 462.15,522.26 468.29,507.86 483.88,480.58 511.02,435.63 516.32,424.00 519.27,412.38 520.46,402.57 520.01,392.92 518.03,383.63 513.59,369.32 508.02,360.29 501.74,353.10 494.17,346.88 486.56,342.07 473.96,336.89 465.03,333.50 455.12,328.24 450.47,325.12 442.04,317.82 436.70,311.52 432.00,304.62 427.83,297.08 423.38,286.24 420.26,274.23 418.44,264.04 418.10,252.89 418.77,237.34 420.60,222.51 423.11,207.95 428.32,181.00 430.46,169.17 430.77,152.83 428.65,136.99 425.66,120.27 421.17,110.03 416.77,101.72 410.95,91.30 406.47,84.55 403.46,78.76 401.18,72.48 397.84,66.17 395.52,61.97 393.26,59.20 387.37,53.21 380.33,47.95 372.60,44.15 363.92,41.42 354.86,40.00 346.77,40.41 339.18,42.31 330.19,44.95 318.14,48.15 308.02,50.79 301.64,53.30 262.54,69.57 241.85,82.43 220.88,97.04 207.54,108.95 196.28,122.64 183.20,140.31 175.83,153.32 169.92,166.15 131.44,277.13 119.78,311.38"
        fill="none"
        stroke="#e94560"
        stroke-width="8.0"
        stroke-linejoin="round"
        stroke-linecap="round"/>
  <!-- Start/finish line -->
  <line x1="138.72" y1="317.82" x2="100.85" y2="304.94"
        stroke="#f5f5f5" stroke-width="9.6"
        stroke-linecap="round"/>
</svg>
