<?xml version="1.0" encoding="utf-8"?>
<svg xmlns="http://www.w3.org/2000/svg"
     width="800.0" height="589.7"
     viewBox="0 0 800.0 589.7">
  <rect width="100%" height="100%" fill="#1a1a2e"/>
  <!-- Track outline -->
  <polyline points="360.67,187.21 333.94,202.75 291.57,221.60 166.60,264.92 104.67,280.06 90.26,286.50 77.38,295.04 66.27,305.66 53.87,321.56 49.49,327.46 45.79,333.81 42.15,345.36 40.15,356.32 40.00,359.88 40.41,363.26 41.84,369.92 44.60,377.60 52.52,391.23 61.98,404.21 67.84,410.60 74.02,416.13 91.42,428.90 124.35,448.09 139.97,454.13 380.28,509.12 500.12,514.25 551.09,517.90 598.98,525.70 642.12,538.59 681.27,549.22 693.35,549.68 702.35,548.63 706.13,547.77 709.35,546.61 712.72,545.23 715.96,543.51 718.94,541.57 722.06,538.90 729.88,529.94 737.41,519.53 740.90,513.27 743.83,506.42 754.00,475.59 758.57,444.74 760.00,388.92 759.13,378.24 757.39,369.15 754.77,360.99 751.26,353.34 746.76,346.00 741.65,339.25 731.87,329.03 720.83,320.09 714.87,316.16 707.90,312.57 694.85,307.47 677.85,303.51 632.00,302.50 581.79,304.80 519.08,309.44 490.34,308.70 479.45,306.46 469.69,303.24 462.57,299.98 456.16,295.81 451.39,291.66 446.86,286.84 443.40,282.14 441.80,278.95 440.78,275.82 440.13,272.60 439.77,269.25 439.81,265.81 440.32,262.25 442.96,254.67 446.62,247.64 449.11,244.20 452.04,241.16 457.68,236.37 463.66,232.13 470.76,228.60 569.03,187.95 657.35,155.47 672.94,146.72 687.25,136.96 695.94,129.34 703.88,120.53 708.12,114.21 711.70,107.45 714.24,100.42 715.60,92.93 715.91,85.19 715.28,78.01 713.98,72.54 711.97,67.45 709.57,62.93 705.77,58.02 701.65,54.00 698.94,51.64 695.70,49.55 685.29,44.91 674.56,41.23 671.20,40.49 667.66,40.15 653.72,40.00 638.44,40.95 631.05,42.18 622.99,44.61 548.35,78.10 360.67,187.21"
        fill="none"
        stroke="#e94560"
        stroke-width="8.0"
        stroke-linejoin="round"
        stroke-linecap="round"/>
  <!-- Start/finish line -->
  <line x1="370.72" y1="204.50" x2="350.62" y2="169.92"
        stroke="#f5f5f5" stroke-width="9.6"
        stroke-linecap="round"/>
</svg>
