<?xml version="1.0" encoding="utf-8"?>
<svg xmlns="http://www.w3.org/2000/svg"
     width="800.0" height="459.8"
     viewBox="0 0 800.0 459.8">
  <rect width="100%" height="100%" fill="#1a1a2e"/>
  <!-- Track outline -->
  <polyline points="552.29,303.76 528.61,313.45 505.15,322.45 483.75,330.51 463.52,336.68 439.05,338.71 416.31,333.35 396.46,322.41 380.73,305.52 371.51,283.36 371.68,259.41 376.74,236.62 378.29,213.74 370.51,193.34 353.96,177.35 332.05,169.61 310.16,174.61 293.89,191.54 287.08,211.08 287.01,234.10 294.82,257.92 303.52,281.74 306.59,305.84 302.11,328.31 291.76,349.70 275.10,368.61 252.60,383.65 232.99,393.61 211.55,402.07 190.01,408.60 169.13,413.96 142.46,418.60 117.35,419.82 94.50,416.57 74.23,409.68 57.51,396.26 43.51,375.05 40.00,350.19 42.68,328.94 51.22,308.40 62.36,289.44 75.13,271.93 88.48,255.08 101.97,239.10 116.49,223.20 133.52,207.89 154.88,193.84 173.09,183.79 192.84,173.08 213.76,161.28 233.99,149.79 253.12,139.21 271.83,130.52 296.64,122.28 321.55,117.86 345.88,118.18 368.10,124.66 386.17,136.33 399.62,157.85 403.41,178.21 402.55,199.87 403.51,225.27 415.21,245.31 434.20,256.52 456.32,256.57 478.03,246.53 493.76,230.04 509.90,212.08 527.55,196.31 547.54,185.91 569.76,182.31 594.23,186.41 614.42,191.31 635.27,195.68 661.56,198.52 684.37,195.05 704.85,180.42 713.76,161.73 714.48,141.10 706.43,121.74 690.19,105.03 667.41,93.95 641.57,91.20 615.08,97.15 595.91,106.43 572.52,119.98 551.87,132.86 532.40,142.14 509.35,144.30 490.01,135.07 479.07,113.90 483.06,92.37 498.61,73.96 517.57,63.73 540.35,56.35 566.08,50.94 586.86,46.08 609.33,41.67 631.83,40.00 654.13,42.07 675.98,48.06 696.83,56.75 715.86,67.74 732.13,81.25 745.24,98.00 756.77,122.32 760.00,147.45 755.08,173.89 745.89,192.71 732.65,210.14 716.20,226.17 696.38,240.40 674.50,253.37 650.62,264.31 622.06,275.80 592.20,288.05 572.45,295.70 552.29,303.76"
        fill="none"
        stroke="#e94560"
        stroke-width="8.0"
        stroke-linejoin="round"
        stroke-linecap="round"/>
  <!-- Start/finish line -->
  <line x1="559.79" y1="322.30" x2="544.78" y2="285.23"
        stroke="#f5f5f5" stroke-width="9.6"
        stroke-linecap="round"/>
</svg>
