<?xml version="1.0" encoding="utf-8"?>
<svg xmlns="http://www.w3.org/2000/svg"
     width="591.6" height="800.0"
     viewBox="0 0 591.6 800.0">
  <rect width="100%" height="100%" fill="#1a1a2e"/>
  <!-- Track outline -->
  <polyline points="439.81,113.80 457.43,130.71 504.13,181.75 520.09,202.50 532.51,224.01 541.77,244.76 549.15,267.81 551.12,278.79 551.63,289.95 550.56,298.53 548.47,307.25 545.67,315.16 541.65,322.82 536.75,329.58 531.39,335.28 525.13,340.08 518.38,343.62 511.41,346.35 503.98,348.46 496.33,349.61 488.63,349.85 480.67,349.08 472.65,347.31 465.00,344.63 455.50,339.55 446.49,332.98 437.72,325.22 429.38,316.07 415.03,293.88 405.19,273.47 386.82,228.81 374.52,207.72 361.36,189.56 353.18,180.41 344.38,172.21 334.40,165.31 324.04,159.80 313.83,155.30 303.43,152.32 295.90,151.27 288.20,151.08 280.68,152.04 275.19,153.43 269.66,155.30 264.45,158.03 259.92,161.81 256.53,165.98 253.44,170.92 250.93,176.33 249.37,182.04 248.96,189.22 249.71,196.84 251.15,204.17 254.51,214.62 260.70,226.27 388.41,380.52 403.73,400.65 416.42,421.30 426.24,441.71 433.11,462.18 438.08,488.96 438.59,502.29 437.94,515.56 433.21,541.53 424.80,566.93 401.68,611.21 349.50,690.95 315.90,728.56 297.85,744.19 287.60,751.71 276.90,757.41 269.27,759.33 261.48,760.00 253.76,759.57 246.23,758.27 238.77,755.93 231.81,752.05 225.76,746.82 220.14,740.26 215.29,732.88 211.73,725.98 208.78,718.45 206.81,710.40 206.03,697.27 207.05,683.95 209.49,672.16 213.09,661.00 217.50,649.88 224.01,637.56 262.62,584.52 301.34,531.85 307.94,520.06 312.44,509.52 316.17,499.07 318.41,487.96 318.44,479.33 317.46,470.32 315.68,461.94 312.83,454.03 309.03,446.89 304.77,440.52 299.48,434.53 293.59,429.49 287.42,425.28 277.17,420.15 266.47,416.80 255.36,414.88 244.01,414.74 232.12,416.70 219.11,420.25 172.14,434.96 157.94,436.59 144.71,436.30 131.38,434.24 118.33,430.69 106.02,426.38 94.18,420.49 83.46,412.72 73.35,403.52 64.26,394.18 56.10,383.64 49.99,372.76 45.09,360.73 41.88,348.41 40.00,335.28 40.73,306.39 43.97,284.01 49.09,261.68 56.35,239.40 65.73,217.59 77.32,196.22 91.94,175.47 126.73,135.60 167.51,99.09 188.66,83.18 209.76,69.71 230.78,58.88 252.66,49.97 275.07,43.11 298.68,40.24 322.63,40.00 346.94,43.31 370.67,50.54 382.49,54.81 394.03,60.85 405.19,70.76 416.16,82.98 439.81,113.80"
        fill="none"
        stroke="#e94560"
        stroke-width="8.0"
        stroke-linejoin="round"
        stroke-linecap="round"/>
  <!-- Start/finish line -->
  <line x1="454.94" y1="100.72" x2="424.68" y2="126.88"
        stroke="#f5f5f5" stroke-width="9.6"
        stroke-linecap="round"/>
</svg>
