<?xml version="1.0" encoding="utf-8"?>
<svg xmlns="http://www.w3.org/2000/svg"
     width="800.0" height="518.9"
     viewBox="0 0 800.0 518.9">
  <rect width="100%" height="100%" fill="#1a1a2e"/>
  <!-- Track outline -->
  <polyline points="340.73,165.55 468.57,218.00 484.07,222.19 506.81,225.62 517.80,225.98 528.62,225.36 539.01,223.66 549.00,220.84 558.27,217.05 566.81,212.11 571.81,208.35 576.40,204.09 584.56,192.28 590.37,174.84 590.64,168.66 590.08,162.37 588.67,156.32 586.31,150.50 583.09,144.93 579.20,139.89 574.46,135.38 569.01,131.42 563.45,128.28 556.40,125.83 548.52,124.12 516.81,118.46 507.19,115.26 498.68,111.33 491.15,106.78 484.61,101.35 481.16,97.33 478.21,92.91 475.93,88.23 474.34,83.19 473.41,77.86 473.35,72.59 474.24,67.22 476.01,61.86 478.56,57.01 481.99,52.70 486.19,48.90 490.86,45.79 496.17,43.47 501.96,41.93 507.92,40.82 517.71,40.00 527.41,40.03 542.85,41.34 672.09,71.61 708.89,81.19 724.81,86.86 731.70,90.23 738.25,94.25 745.36,99.78 751.64,106.19 754.81,110.51 757.45,115.09 759.20,120.00 759.89,124.42 760.00,129.16 759.54,133.87 758.49,138.16 756.29,142.81 753.23,147.00 749.61,150.76 742.79,155.63 735.00,159.69 716.84,167.05 707.76,171.04 699.24,175.82 694.18,179.72 689.55,184.10 685.71,188.98 682.83,194.31 680.72,200.10 679.51,206.02 679.26,212.08 679.91,218.26 681.34,224.28 685.33,232.85 690.73,241.72 708.24,269.86 711.47,278.20 713.29,286.15 713.88,294.20 713.29,302.19 711.52,309.94 708.65,317.44 704.64,324.67 699.65,331.44 693.48,337.79 686.54,343.64 678.73,349.40 670.37,354.47 662.16,358.37 652.09,361.80 615.58,369.17 579.94,376.36 572.10,379.11 565.31,382.45 552.68,389.55 538.51,399.53 488.90,449.53 472.63,462.62 464.32,467.56 455.70,471.61 447.03,474.69 438.20,476.95 429.44,478.35 420.63,478.91 411.92,478.45 403.33,477.14 387.03,472.37 379.50,469.19 372.42,465.43 366.18,461.27 360.52,456.27 356.65,451.75 353.13,446.65 350.55,441.25 349.11,435.72 348.56,429.89 348.86,424.10 350.28,417.92 352.65,411.77 355.44,406.07 359.69,399.50 364.63,393.58 376.55,382.42 390.93,372.44 408.14,364.62 443.13,352.41 458.23,345.35 470.98,337.26 475.71,332.65 479.48,327.71 482.45,322.47 484.65,316.94 486.08,311.09 486.59,305.26 486.13,299.60 484.79,294.01 482.62,288.77 479.47,283.86 475.47,279.35 470.90,275.42 463.19,270.78 453.15,266.95 418.40,258.44 382.73,252.58 361.48,252.55 339.49,255.72 324.77,259.91 281.07,279.64 265.74,284.91 184.06,303.20 155.44,314.20 145.06,317.21 135.05,319.10 125.30,319.63 115.65,319.01 106.12,317.30 96.85,314.56 87.86,310.66 79.37,305.79 71.53,299.96 64.33,293.35 57.73,286.19 51.92,278.53 47.17,270.68 43.47,262.50 41.05,254.64 40.00,246.50 40.32,240.08 41.51,233.51 43.78,227.49 47.41,222.19 52.11,217.44 57.14,213.61 61.78,211.16 66.70,209.49 71.78,208.28 80.13,207.30 88.78,207.30 107.17,209.85 157.32,224.74 167.41,227.16 176.25,228.31 182.00,228.21 187.64,227.52 192.79,225.92 196.17,224.12 199.34,221.86 202.12,219.14 204.37,216.10 206.20,212.14 207.49,207.56 208.11,202.85 207.96,198.50 206.97,194.80 205.28,191.23 203.06,187.90 200.55,184.82 196.36,180.89 191.40,177.46 186.05,174.64 177.21,171.57 166.56,169.64 139.29,168.66 112.51,167.71 103.43,165.87 95.87,163.29 88.67,159.89 82.03,155.34 77.31,150.95 72.92,145.82 69.49,140.35 67.24,134.76 65.89,128.84 65.57,122.98 66.10,118.63 67.23,114.24 68.92,110.05 71.12,106.23 75.23,101.55 80.32,97.49 85.65,94.25 93.01,91.31 100.75,89.67 109.26,89.08 118.02,89.47 136.72,92.81 225.32,120.00 340.73,165.55"
        fill="none"
        stroke="#e94560"
        stroke-width="8.0"
        stroke-linejoin="round"
        stroke-linecap="round"/>
  <!-- Start/finish line -->
  <line x1="348.21" y1="147.00" x2="333.26" y2="184.10"
        stroke="#f5f5f5" stroke-width="9.6"
        stroke-linecap="round"/>
</svg>
