<?xml version="1.0" encoding="utf-8"?>
<svg xmlns="http://www.w3.org/2000/svg"
     width="361.8" height="800.0"
     viewBox="0 0 361.8 800.0">
  <rect width="100%" height="100%" fill="#1a1a2e"/>
  <!-- Track outline -->
  <polyline points="114.67,281.42 151.86,363.63 226.32,475.43 234.83,488.92 241.68,501.79 251.02,527.98 253.59,541.42 254.08,548.18 253.80,555.02 252.44,562.67 250.01,569.97 247.95,573.89 245.46,577.52 242.56,580.73 237.69,584.54 231.40,588.00 212.36,595.25 193.04,602.58 186.12,606.38 180.42,610.47 174.73,615.67 169.53,621.49 164.54,627.91 160.20,634.84 156.80,642.40 154.21,650.27 152.41,658.19 151.46,666.26 151.46,674.58 152.33,682.62 153.69,688.84 155.87,695.26 161.44,707.28 167.99,718.90 176.59,729.78 186.77,739.35 198.38,746.96 211.13,752.76 223.88,756.76 237.14,759.57 245.61,760.00 253.50,759.26 261.09,757.47 268.38,754.77 275.36,751.22 281.89,746.90 287.80,742.02 293.11,736.51 297.71,730.34 301.64,723.73 304.69,717.31 307.49,709.47 314.70,684.50 320.58,653.79 321.82,619.08 319.72,579.40 300.18,417.23 273.71,310.56 267.58,256.88 261.34,207.82 257.07,192.94 251.06,179.39 243.10,166.95 239.05,161.83 233.32,156.18 157.23,101.61 146.09,91.41 133.19,74.20 120.05,57.19 113.86,51.70 107.90,47.75 102.18,44.74 96.18,42.50 89.21,40.74 82.00,40.00 77.11,40.31 72.23,41.22 67.55,42.67 63.15,44.72 58.97,47.30 55.15,50.34 50.13,55.71 46.03,61.90 42.86,69.06 40.80,76.50 40.00,82.95 40.11,89.45 41.11,96.16 43.11,104.11 61.72,160.24 68.52,179.42 114.67,281.42"
        fill="none"
        stroke="#e94560"
        stroke-width="8.0"
        stroke-linejoin="round"
        stroke-linecap="round"/>
  <!-- Start/finish line -->
  <line x1="132.89" y1="273.18" x2="96.44" y2="289.66"
        stroke="#f5f5f5" stroke-width="9.6"
        stroke-linecap="round"/>
</svg>
