<?xml version="1.0" encoding="utf-8"?>
<svg xmlns="http://www.w3.org/2000/svg"
     width="693.7" height="800.0"
     viewBox="0 0 693.7 800.0">
  <rect width="100%" height="100%" fill="#1a1a2e"/>
  <!-- Track outline -->
  <polyline points="526.01,418.16 485.35,370.04 409.88,281.36 396.82,261.88 387.41,242.33 381.63,223.06 378.96,203.36 379.69,183.67 386.75,141.67 387.00,121.88 384.74,103.24 382.48,94.15 379.39,85.83 374.85,78.44 369.59,72.02 363.71,65.75 357.38,60.26 350.03,55.36 342.29,51.20 334.00,47.33 325.46,44.19 316.50,42.04 307.35,40.74 287.82,40.00 248.76,43.77 210.16,50.29 200.30,53.49 192.37,57.54 188.42,59.73 184.43,62.09 180.93,65.01 178.40,68.92 177.33,72.31 176.60,76.29 176.21,80.51 176.21,84.64 176.67,88.27 178.33,92.63 181.00,96.47 184.20,99.89 187.47,102.96 192.81,107.08 198.70,110.28 204.68,112.61 213.57,114.09 222.70,114.02 243.36,110.85 263.71,109.12 272.71,109.05 281.32,110.32 288.63,113.03 293.33,115.46 296.52,119.41 298.40,125.79 298.40,134.24 296.52,142.13 292.76,149.07 289.03,153.79 284.04,158.51 278.24,162.14 272.36,165.10 263.94,168.27 255.26,170.39 235.06,172.89 198.15,174.86 177.03,178.00 166.09,180.18 155.36,183.81 145.75,189.80 134.47,196.67 124.26,204.24 116.25,211.78 109.16,218.02 98.48,228.24 77.42,250.36 63.82,267.45 54.04,282.67 45.59,298.87 42.19,308.38 40.34,317.86 40.00,324.34 40.32,330.97 41.51,336.85 43.49,341.18 46.24,344.99 49.48,348.16 52.85,350.70 57.17,352.74 61.95,353.83 66.90,354.15 71.63,354.01 77.24,353.06 82.70,351.22 88.09,348.69 96.20,343.47 103.87,337.27 115.40,325.86 125.65,310.96 146.09,274.74 160.04,256.67 176.82,240.53 195.91,227.39 215.32,217.77 233.98,212.13 251.59,209.53 259.83,209.11 268.12,209.70 274.56,211.11 281.16,213.30 287.19,216.33 291.69,219.46 295.82,223.23 299.33,227.78 301.89,232.46 303.99,237.75 305.27,243.38 305.54,249.09 305.02,255.15 303.86,261.63 297.09,279.64 290.08,297.32 288.37,305.53 287.76,313.53 288.44,324.17 290.08,334.74 294.49,351.44 297.39,369.30 297.71,387.09 294.36,428.41 295.84,451.28 300.13,473.33 307.92,494.01 319.31,513.53 334.30,532.45 351.56,548.55 369.55,560.84 387.04,570.04 403.35,575.64 412.85,577.82 422.44,578.39 427.09,577.72 431.78,576.52 436.25,574.65 440.18,571.87 443.10,568.81 445.80,565.11 448.06,560.95 449.65,556.55 450.52,551.19 450.64,545.45 450.29,539.63 448.58,529.77 445.87,520.33 439.02,504.83 428.94,489.04 389.74,442.15 384.83,434.72 381.10,427.53 377.27,418.51 374.48,408.65 373.50,401.92 373.13,394.98 373.73,388.74 375.22,384.48 377.47,380.64 380.15,377.36 383.04,374.62 386.86,372.15 391.18,370.57 395.70,369.65 400.08,369.23 405.45,369.47 410.79,370.64 416.11,372.36 424.31,375.88 432.35,380.75 440.20,387.23 447.49,394.70 458.10,408.86 496.03,463.01 523.69,491.97 530.40,500.74 535.88,509.62 543.28,527.55 548.35,545.34 549.53,554.15 549.94,563.06 548.58,580.47 544.15,597.48 536.49,615.03 513.50,651.03 504.57,668.72 501.51,677.00 499.25,685.81 497.91,696.06 497.88,706.52 499.76,716.49 503.06,725.65 506.31,731.78 510.23,737.31 514.51,742.17 522.75,748.90 531.47,753.87 539.19,756.90 546.95,758.73 555.26,759.82 563.67,760.00 572.25,759.33 580.79,757.75 588.97,755.35 596.98,752.04 604.63,747.95 611.97,742.91 618.65,737.03 624.96,730.20 636.30,714.24 645.16,695.92 650.97,674.92 653.55,652.16 653.68,640.64 652.59,628.13 647.68,603.93 639.52,577.58 624.93,545.17 604.52,511.10 526.01,418.16"
        fill="none"
        stroke="#e94560"
        stroke-width="8.0"
        stroke-linejoin="round"
        stroke-linecap="round"/>
  <!-- Start/finish line -->
  <line x1="510.73" y1="431.07" x2="541.28" y2="405.25"
        stroke="#f5f5f5" stroke-width="9.6"
        stroke-linecap="round"/>
</svg>
