<?xml version="1.0" encoding="utf-8"?>
<svg xmlns="http://www.w3.org/2000/svg"
     width="800.0" height="501.1"
     viewBox="0 0 800.0 501.1">
  <rect width="100%" height="100%" fill="#1a1a2e"/>
  <!-- Track outline -->
  <polyline points="285.47,145.15 188.78,157.55 135.99,171.79 112.36,182.80 101.48,189.51 91.34,197.10 82.18,205.66 73.94,215.09 66.71,225.18 60.48,235.82 51.14,257.98 45.40,281.01 40.00,310.80 40.46,334.53 41.30,346.15 43.25,357.39 46.96,367.47 52.24,376.77 59.31,385.10 67.79,392.27 77.98,398.37 89.14,402.91 101.31,405.73 113.58,406.70 120.81,406.38 127.88,405.36 134.62,403.46 144.18,398.56 153.00,392.08 161.16,384.54 168.37,375.98 179.24,356.55 199.19,311.78 206.64,300.35 214.36,290.73 229.56,275.60 247.60,262.37 256.32,257.24 268.07,252.15 444.63,208.89 562.77,185.21 575.42,184.70 585.61,186.13 592.80,188.35 599.71,191.55 605.85,195.66 609.88,199.41 613.55,203.76 616.63,208.48 618.85,213.43 620.19,218.84 620.71,224.62 620.49,230.50 619.51,236.05 616.92,242.94 613.01,249.56 608.22,255.52 598.57,263.71 587.50,270.42 576.28,275.55 564.77,279.58 543.34,284.94 391.43,311.82 365.46,318.95 345.64,326.44 335.30,331.85 326.68,338.28 317.95,347.40 310.72,357.80 305.71,368.30 302.60,379.27 301.70,386.39 301.65,393.61 302.70,400.78 305.34,408.64 309.28,416.41 313.92,423.45 321.49,431.54 330.19,438.48 340.12,444.91 350.80,450.37 362.35,455.04 374.40,458.51 386.94,460.45 399.65,461.10 412.13,460.64 424.47,458.74 436.94,454.86 448.62,449.54 457.07,444.17 465.97,437.09 517.02,390.60 536.94,376.35 559.42,364.19 695.58,306.83 714.84,294.75 731.80,280.78 740.47,270.97 747.95,260.10 753.30,248.72 757.07,236.79 759.19,224.53 760.00,212.13 758.53,187.52 753.57,163.51 728.67,95.42 723.37,84.04 717.80,74.69 710.86,65.63 702.87,57.67 693.77,51.43 683.90,46.52 673.66,42.64 663.08,40.28 652.23,40.00 641.31,41.48 630.12,44.86 619.19,49.76 597.69,63.64 561.71,90.33 539.84,101.53 515.04,110.64 466.26,122.02 285.47,145.15"
        fill="none"
        stroke="#e94560"
        stroke-width="8.0"
        stroke-linejoin="round"
        stroke-linecap="round"/>
  <!-- Start/finish line -->
  <line x1="288.01" y1="164.99" x2="282.93" y2="125.31"
        stroke="#f5f5f5" stroke-width="9.6"
        stroke-linecap="round"/>
</svg>
