<?xml version="1.0" encoding="utf-8"?>
<svg xmlns="http://www.w3.org/2000/svg"
     width="421.7" height="800.0"
     viewBox="0 0 421.7 800.0">
  <rect width="100%" height="100%" fill="#1a1a2e"/>
  <!-- Track outline -->
  <polyline points="131.09,606.61 75.66,522.33 49.43,482.56 43.62,470.53 41.64,464.52 40.36,458.37 40.00,452.10 40.55,445.86 42.12,439.63 44.63,433.74 48.22,428.08 52.65,423.04 57.94,418.64 63.84,415.12 70.49,412.54 77.21,411.00 82.75,410.53 88.16,410.83 93.68,411.65 99.37,413.42 109.19,417.90 120.49,424.14 129.11,430.08 135.07,436.02 139.23,441.69 142.87,447.44 145.86,452.61 148.30,458.09 151.33,469.67 154.77,495.70 157.88,506.46 168.89,528.95 176.91,540.30 230.95,599.50 236.85,604.54 241.98,608.01 247.64,611.22 253.50,613.69 259.60,615.23 265.82,615.81 272.18,615.37 278.49,613.93 284.65,611.43 290.47,607.96 295.84,603.28 300.57,597.99 303.90,593.26 306.75,588.27 311.70,576.97 315.15,564.18 316.67,550.08 316.12,535.26 313.74,521.05 309.58,508.02 303.64,496.44 296.14,486.61 287.54,478.59 241.52,445.74 186.89,401.51 178.02,392.26 170.95,382.57 168.16,377.70 165.82,372.48 163.68,365.91 162.24,359.01 161.84,352.49 162.18,345.99 163.21,339.56 164.91,333.24 167.35,326.72 170.28,320.57 176.30,311.22 180.06,306.73 184.26,302.53 194.51,294.80 206.45,288.43 233.13,278.32 245.21,272.64 250.63,269.19 255.68,265.25 260.18,260.99 264.16,256.23 267.38,251.08 269.94,245.56 271.76,239.85 272.91,233.93 273.29,227.88 273.07,221.75 271.01,209.19 247.78,135.16 244.73,119.92 243.86,105.50 244.28,98.67 245.27,92.01 246.83,85.69 248.93,79.68 251.48,74.14 254.47,68.96 257.86,64.23 261.64,59.92 265.78,55.98 270.22,52.49 275.03,49.37 280.10,46.71 291.21,42.63 303.62,40.33 310.35,40.00 317.17,40.28 324.22,41.28 331.19,42.94 337.80,45.17 344.14,47.99 349.92,51.25 355.32,55.08 360.02,59.29 364.26,63.93 367.88,68.75 371.03,73.88 375.72,84.37 378.67,95.15 380.26,105.90 381.72,182.95 380.97,585.80 380.04,596.99 377.84,607.66 373.05,620.92 368.06,630.38 361.84,639.46 339.86,665.51 334.14,674.95 316.45,719.48 310.79,729.94 304.28,739.22 300.77,743.22 296.87,746.95 291.64,750.98 285.92,754.45 280.08,756.99 274.04,758.77 267.88,759.77 261.66,760.00 255.29,759.46 248.95,758.11 242.41,755.78 236.24,752.80 231.56,749.84 227.21,746.49 218.81,738.14 211.03,728.12 131.09,606.61"
        fill="none"
        stroke="#e94560"
        stroke-width="8.0"
        stroke-linejoin="round"
        stroke-linecap="round"/>
  <!-- Start/finish line -->
  <line x1="114.38" y1="617.60" x2="147.80" y2="595.62"
        stroke="#f5f5f5" stroke-width="9.6"
        stroke-linecap="round"/>
</svg>
