<?xml version="1.0" encoding="utf-8"?>
<svg xmlns="http://www.w3.org/2000/svg"
     width="369.2" height="800.0"
     viewBox="0 0 369.2 800.0">
  <rect width="100%" height="100%" fill="#1a1a2e"/>
  <!-- Track outline -->
  <polyline points="41.73,562.75 43.36,569.13 60.03,601.94 83.25,640.64 137.00,726.44 147.50,738.11 157.27,746.28 165.92,751.77 174.75,755.75 183.94,758.49 193.32,759.89 202.71,760.00 211.95,758.66 220.53,755.70 228.50,751.29 235.38,745.75 241.58,738.81 247.97,728.45 253.45,717.43 260.24,701.32 271.08,675.87 285.42,654.36 306.95,630.13 313.12,619.18 318.04,606.40 324.53,578.00 328.30,546.67 328.23,521.34 325.53,497.80 321.52,480.46 315.20,463.54 284.89,413.11 268.54,382.16 263.78,367.98 260.33,353.00 255.90,312.20 256.11,293.54 257.81,276.06 260.43,263.17 264.34,250.94 270.27,237.27 278.29,223.07 295.82,200.91 312.87,178.43 319.72,164.01 324.27,148.76 328.05,123.24 329.21,97.88 328.37,83.65 326.21,71.49 323.66,63.24 320.05,56.00 316.23,50.97 311.75,46.32 307.69,42.93 305.78,41.78 304.01,41.05 302.23,40.54 300.53,40.19 298.83,40.00 297.17,40.05 295.57,40.32 293.98,40.81 292.46,41.51 291.11,42.23 289.81,43.17 288.17,44.89 264.25,85.96 234.89,138.19 205.37,180.36 196.21,189.40 186.81,196.31 164.03,206.83 123.60,224.26 110.37,233.56 98.88,244.80 87.94,260.21 78.22,278.61 66.28,307.41 57.33,336.81 54.55,355.07 53.99,371.29 56.39,392.03 61.64,412.20 66.49,433.23 67.38,448.07 66.65,461.74 65.04,471.98 62.06,482.69 51.80,505.87 42.15,529.03 40.21,539.73 40.00,549.49 40.68,558.72 41.73,562.75"
        fill="none"
        stroke="#e94560"
        stroke-width="8.0"
        stroke-linejoin="round"
        stroke-linecap="round"/>
  <!-- Start/finish line -->
  <line x1="61.09" y1="557.76" x2="22.36" y2="567.74"
        stroke="#f5f5f5" stroke-width="9.6"
        stroke-linecap="round"/>
</svg>
