<?xml version="1.0" encoding="utf-8"?>
<svg xmlns="http://www.w3.org/2000/svg"
     width="800.0" height="732.2"
     viewBox="0 0 800.0 732.2">
  <rect width="100%" height="100%" fill="#1a1a2e"/>
  <!-- Track outline -->
  <polyline points="394.65,427.95 396.12,428.90 446.00,461.06 524.35,515.00 582.24,552.13 626.99,584.25 656.48,608.39 688.82,638.95 722.68,674.84 730.32,683.29 736.46,689.28 738.29,690.45 739.91,691.15 741.62,691.64 743.90,692.04 746.32,692.17 748.64,691.96 750.56,691.50 752.39,690.79 754.10,689.74 755.67,688.33 757.13,686.61 758.31,684.70 759.07,682.89 759.63,680.94 759.96,678.90 760.00,675.57 759.48,672.09 758.13,667.77 755.74,663.03 746.41,650.95 733.42,636.83 685.22,589.71 636.53,552.31 581.38,519.83 499.59,476.97 493.50,472.91 489.14,469.18 485.75,465.50 482.89,461.42 480.57,456.92 478.81,452.02 477.78,446.91 477.41,441.62 477.79,436.29 478.83,431.06 482.89,420.94 491.71,402.89 493.63,395.84 494.61,389.00 494.67,383.28 494.05,377.74 492.74,372.17 490.73,366.71 487.39,360.13 483.12,353.78 477.17,347.00 469.58,340.44 430.33,317.99 336.76,270.32 260.88,226.32 210.23,195.57 185.30,177.91 165.46,161.30 147.07,142.64 124.40,114.38 74.54,46.97 70.78,43.54 67.67,41.68 65.64,40.81 63.61,40.26 61.56,40.00 59.44,40.00 57.30,40.28 55.20,40.86 53.09,41.74 51.01,42.92 49.06,44.39 47.26,46.08 45.58,48.08 44.09,50.42 42.07,55.10 40.68,60.58 40.00,67.19 40.38,75.09 44.84,96.16 51.99,120.25 71.44,169.43 94.59,210.91 115.93,236.94 152.82,269.26 245.85,331.14 394.65,427.95"
        fill="none"
        stroke="#e94560"
        stroke-width="8.0"
        stroke-linejoin="round"
        stroke-linecap="round"/>
  <!-- Start/finish line -->
  <line x1="405.56" y1="411.18" x2="383.74" y2="444.71"
        stroke="#f5f5f5" stroke-width="9.6"
        stroke-linecap="round"/>
</svg>
