<?xml version="1.0" encoding="utf-8"?>
<svg xmlns="http://www.w3.org/2000/svg"
     width="800.0" height="763.6"
     viewBox="0 0 800.0 763.6">
  <rect width="100%" height="100%" fill="#1a1a2e"/>
  <!-- Track outline -->
  <polyline points="237.25,207.40 103.84,340.11 83.35,363.89 67.92,386.21 55.67,410.49 46.75,436.41 41.49,465.24 40.00,494.08 41.49,517.35 46.51,540.62 60.20,574.29 78.52,606.95 96.56,632.25 117.48,654.34 145.25,675.25 175.97,692.56 208.71,706.28 241.93,716.06 270.95,721.46 299.69,723.59 328.33,722.92 358.41,717.91 403.30,702.23 450.70,678.85 555.28,605.15 600.50,567.04 693.99,465.41 717.91,432.58 736.04,400.54 746.84,371.59 753.97,341.52 758.99,305.88 760.00,271.42 757.44,249.28 751.47,227.47 735.02,189.52 713.09,152.42 691.53,126.45 666.99,103.97 634.40,80.02 599.73,60.46 570.13,48.60 539.41,41.57 499.69,40.00 460.63,43.99 433.77,50.68 408.51,60.85 378.38,77.94 353.30,94.81 340.72,105.04 237.25,207.40"
        fill="none"
        stroke="#e94560"
        stroke-width="8.0"
        stroke-linejoin="round"
        stroke-linecap="round"/>
  <!-- Start/finish line -->
  <line x1="251.34" y1="221.59" x2="223.16" y2="193.20"
        stroke="#f5f5f5" stroke-width="9.6"
        stroke-linecap="round"/>
</svg>
