<?xml version="1.0" encoding="utf-8"?>
<svg xmlns="http://www.w3.org/2000/svg"
     width="643.8" height="800.0"
     viewBox="0 0 643.8 800.0">
  <rect width="100%" height="100%" fill="#1a1a2e"/>
  <!-- Track outline -->
  <polyline points="474.50,233.51 428.61,166.40 377.63,106.02 356.38,86.88 335.55,70.63 317.20,60.38 278.57,46.15 260.05,42.01 240.66,40.00 214.15,40.81 186.81,44.80 160.86,51.87 137.51,61.08 124.70,68.04 112.98,76.32 98.78,88.08 84.85,101.96 70.88,119.10 59.29,135.85 51.46,151.20 46.33,166.52 40.79,200.01 40.00,227.98 41.50,256.37 49.68,294.74 61.47,326.14 184.44,604.44 212.75,654.76 234.79,684.27 259.16,710.45 284.06,728.79 306.22,741.43 313.51,745.07 321.04,747.70 373.74,758.80 391.30,760.00 406.93,759.11 424.92,756.13 453.46,747.35 481.51,735.79 497.60,727.16 512.34,717.03 528.88,702.91 544.56,686.98 556.94,672.66 568.58,655.53 585.91,620.25 599.25,585.71 601.79,575.54 602.99,565.02 603.85,533.58 602.22,499.19 593.38,454.87 584.13,425.35 526.65,312.92 474.50,233.51"
        fill="none"
        stroke="#e94560"
        stroke-width="8.0"
        stroke-linejoin="round"
        stroke-linecap="round"/>
  <!-- Start/finish line -->
  <line x1="457.88" y1="244.63" x2="491.12" y2="222.39"
        stroke="#f5f5f5" stroke-width="9.6"
        stroke-linecap="round"/>
</svg>
