<?xml version="1.0" encoding="utf-8"?>
<svg xmlns="http://www.w3.org/2000/svg"
     width="800.0" height="660.4"
     viewBox="0 0 800.0 660.4">
  <rect width="100%" height="100%" fill="#1a1a2e"/>
  <!-- Track outline -->
  <polyline points="629.96,255.21 345.11,71.93 318.78,60.40 288.35,50.88 254.25,43.32 222.30,40.00 191.15,40.60 163.12,45.88 138.98,53.71 128.05,58.93 118.77,64.86 110.46,70.79 101.85,78.57 81.77,101.58 63.29,126.23 57.40,135.69 52.81,145.65 45.13,168.55 40.00,193.52 40.04,212.13 42.23,228.61 44.55,238.24 47.50,246.62 50.17,253.20 54.01,260.38 71.73,286.01 91.54,310.92 105.60,323.60 459.17,571.29 504.69,595.88 540.84,610.68 565.43,617.10 585.51,619.98 592.74,620.42 600.06,619.87 623.27,615.96 649.24,608.88 669.72,600.18 688.69,589.08 705.29,576.13 720.19,560.79 733.63,542.40 744.74,522.00 752.90,498.94 758.13,477.83 759.55,470.10 760.00,462.11 758.08,435.94 754.24,409.44 752.28,400.31 749.02,391.44 732.55,361.73 712.34,331.65 689.58,307.22 629.96,255.21"
        fill="none"
        stroke="#e94560"
        stroke-width="8.0"
        stroke-linejoin="round"
        stroke-linecap="round"/>
  <!-- Start/finish line -->
  <line x1="618.68" y1="271.73" x2="641.24" y2="238.70"
        stroke="#f5f5f5" stroke-width="9.6"
        stroke-linecap="round"/>
</svg>
