<?xml version="1.0" encoding="utf-8"?>
<svg xmlns="http://www.w3.org/2000/svg"
     width="220.2" height="800.0"
     viewBox="0 0 220.2 800.0">
  <rect width="100%" height="100%" fill="#1a1a2e"/>
  <!-- Track outline -->
  <polyline points="164.09,171.43 161.72,97.08 161.17,88.66 159.76,76.19 157.79,64.71 156.88,62.32 155.85,60.44 154.47,58.26 152.79,56.10 150.18,53.13 146.78,50.15 138.98,45.77 129.89,42.27 120.98,40.59 112.05,40.00 96.13,40.91 78.39,43.26 61.10,47.08 53.36,50.48 47.43,54.28 44.37,56.99 42.21,59.67 41.42,61.12 40.91,62.78 40.36,65.64 40.00,69.18 40.10,72.93 41.94,80.74 45.02,88.66 48.40,95.13 52.84,101.77 75.74,129.17 77.50,131.70 78.80,134.25 81.27,141.64 83.42,151.65 86.96,204.39 90.77,243.32 93.70,254.79 97.65,264.75 125.68,315.78 131.77,329.42 135.94,344.23 137.95,384.90 137.00,422.95 135.98,437.97 134.02,447.33 130.94,456.09 128.63,460.15 125.92,463.71 122.74,466.85 118.67,469.88 114.01,472.36 108.38,474.52 86.98,478.06 66.43,480.75 60.96,482.35 56.65,484.25 54.11,485.65 51.77,487.27 49.80,489.14 48.40,491.16 47.33,493.43 46.46,495.82 45.47,500.09 45.06,504.15 45.16,506.14 45.59,508.08 46.72,511.62 48.55,515.30 51.70,519.17 55.61,522.64 60.31,525.76 65.66,528.31 72.54,530.52 80.64,532.04 98.20,532.72 114.96,533.49 120.49,534.74 125.15,536.78 129.02,539.31 132.80,542.52 136.00,546.25 138.37,550.25 140.16,554.78 141.45,560.05 142.32,576.48 141.39,593.10 140.42,600.86 138.60,607.61 136.51,612.23 133.88,616.64 130.90,620.55 126.45,624.89 120.65,628.76 100.63,637.24 81.53,644.74 78.11,646.62 75.19,648.70 67.94,654.99 61.16,661.81 58.81,664.69 56.89,667.86 53.61,674.86 50.96,683.37 49.56,694.86 49.78,706.49 51.60,715.30 54.36,723.03 56.83,728.00 59.78,732.50 63.83,737.78 68.53,742.79 74.51,747.90 81.03,752.33 87.77,755.76 94.63,758.24 100.69,759.51 106.70,760.00 112.68,759.93 118.91,759.16 127.80,757.14 136.59,754.12 142.91,750.91 148.78,746.80 155.42,740.78 161.66,733.37 168.16,722.78 173.49,711.67 176.26,704.02 178.16,696.24 180.17,675.31 164.09,171.43"
        fill="none"
        stroke="#e94560"
        stroke-width="8.0"
        stroke-linejoin="round"
        stroke-linecap="round"/>
  <!-- Start/finish line -->
  <line x1="144.10" y1="172.07" x2="184.08" y2="170.79"
        stroke="#f5f5f5" stroke-width="9.6"
        stroke-linecap="round"/>
</svg>
