<?xml version="1.0" encoding="utf-8"?>
<svg xmlns="http://www.w3.org/2000/svg"
     width="756.9" height="800.0"
     viewBox="0 0 756.9 800.0">
  <rect width="100%" height="100%" fill="#1a1a2e"/>
  <!-- Track outline -->
  <polyline points="681.83,382.59 716.92,140.70 713.97,110.20 708.55,88.71 705.54,80.65 702.11,74.26 697.96,67.95 693.20,62.20 687.78,57.01 681.83,52.46 675.14,48.39 667.98,45.03 663.05,42.80 657.93,40.88 651.61,40.00 633.55,42.40 611.22,48.62 590.64,56.21 569.27,67.07 552.59,78.73 547.42,83.76 542.78,90.71 520.09,143.18 497.58,197.00 492.46,205.79 487.77,212.17 482.17,218.48 476.09,223.91 469.53,228.54 462.55,232.22 454.84,235.17 447.14,237.01 440.94,237.73 433.84,236.77 427.39,233.82 421.80,229.26 418.19,223.51 415.30,216.89 408.92,200.67 396.34,179.99 382.55,160.75 376.95,154.52 371.48,149.88 364.19,145.65 356.49,142.30 348.84,139.74 341.08,137.99 333.13,137.03 325.07,136.87 308.64,139.02 233.04,155.87 149.31,180.55 123.61,192.85 103.32,207.78 91.40,219.12 80.81,232.30 71.36,250.59 56.37,308.80 45.36,384.35 40.00,450.31 40.72,494.39 46.74,532.01 58.66,566.18 72.26,592.46 78.04,599.57 83.82,604.68 90.50,609.95 97.66,614.58 105.55,618.89 113.80,622.17 122.22,623.60 130.77,623.84 138.90,623.36 146.96,622.01 154.79,619.77 162.43,616.65 177.06,607.63 331.81,492.56 346.38,485.29 358.78,481.77 369.07,480.42 379.66,480.26 388.93,481.77 394.53,484.25 399.41,487.60 403.92,491.36 409.58,496.71 414.33,502.78 417.76,509.09 420.17,516.03 421.26,522.66 421.44,531.13 415.42,576.81 410.30,628.07 413.01,651.87 418.73,671.68 423.00,681.26 428.18,689.72 434.68,697.47 445.03,706.65 457.55,714.80 472.54,722.15 524.66,736.60 582.09,747.30 662.08,760.00 672.68,759.68 681.28,758.08 686.34,756.65 691.16,754.73 695.55,752.17 699.10,749.30 702.29,746.02 704.94,742.19 706.93,737.96 708.43,733.25 709.39,728.22 710.00,723.82 710.30,719.27 710.12,714.64 708.91,710.25 704.46,704.50 697.66,699.23 690.13,694.04 683.63,688.21 674.30,676.39 666.78,662.49 660.70,643.89 657.45,618.89 664.61,515.63 680.92,388.66 681.83,382.59"
        fill="none"
        stroke="#e94560"
        stroke-width="8.0"
        stroke-linejoin="round"
        stroke-linecap="round"/>
  <!-- Start/finish line -->
  <line x1="662.03" y1="379.72" x2="701.62" y2="385.46"
        stroke="#f5f5f5" stroke-width="9.6"
        stroke-linecap="round"/>
</svg>
