<?xml version="1.0" encoding="utf-8"?>
<svg xmlns="http://www.w3.org/2000/svg"
     width="748.8" height="800.0"
     viewBox="0 0 748.8 800.0">
  <rect width="100%" height="100%" fill="#1a1a2e"/>
  <!-- Track outline -->
  <polyline points="616.86,406.04 489.99,148.37 473.54,121.95 453.95,98.11 431.75,77.65 407.46,61.00 394.97,54.07 382.06,48.38 368.68,44.51 355.06,41.93 328.34,40.00 302.05,42.26 289.53,44.94 277.45,48.75 266.35,53.37 255.62,59.28 243.38,67.76 232.28,77.75 223.97,88.23 217.61,99.88 214.23,109.06 211.89,118.84 211.06,128.29 211.98,136.40 214.20,144.24 217.27,151.76 223.61,162.50 231.72,172.16 241.47,180.76 252.57,187.63 265.12,192.30 278.43,194.83 292.21,194.83 306.11,193.27 319.82,190.32 333.57,187.68 347.16,187.25 377.23,191.44 400.23,200.41 412.19,207.23 423.39,215.50 432.58,224.69 442.05,237.20 505.52,351.86 571.60,471.02 605.24,520.70 616.95,543.63 621.54,555.39 624.67,567.69 625.75,581.81 624.52,595.88 622.46,604.15 619.41,612.10 615.08,619.24 610.50,624.40 604.96,629.23 598.87,633.31 592.54,636.32 583.38,638.47 573.60,638.95 564.19,638.04 555.88,635.89 547.92,632.51 540.42,628.27 529.59,620.00 520.06,609.95 511.82,597.98 505.30,585.14 498.32,561.78 462.07,401.15 452.57,377.15 439.74,354.65 425.17,333.33 416.22,323.28 407.12,314.91 386.89,299.17 364.72,287.09 353.15,282.42 341.28,278.87 330.46,276.56 316.62,275.49 223.85,281.45 131.70,293.00 118.60,296.49 108.29,300.68 94.43,307.23 81.02,315.34 69.12,324.68 58.82,335.42 50.95,347.29 45.10,360.02 42.43,368.40 40.65,377.04 40.00,385.80 40.65,395.57 42.61,405.50 45.97,414.69 50.79,422.74 56.94,429.99 64.05,436.06 72.23,440.73 81.36,444.06 90.77,446.21 100.76,447.02 111.03,446.48 120.84,444.87 132.62,441.06 144.83,435.20 193.66,406.47 208.26,400.08 222.31,395.62 237.50,392.88 252.94,391.97 268.56,392.67 283.94,395.35 298.82,400.35 312.90,407.33 326.06,416.51 337.62,426.93 344.70,434.88 352.26,446.16 415.05,567.90 479.87,690.83 498.75,712.63 519.63,731.91 530.61,739.54 542.02,746.04 553.06,751.35 564.74,755.54 579.59,758.66 595.09,760.00 610.43,759.41 625.50,756.78 640.08,751.78 653.82,744.75 666.43,735.94 677.71,725.52 687.46,713.49 695.49,700.17 701.48,685.08 705.64,669.72 707.82,657.53 708.83,645.56 708.13,620.69 706.99,609.36 703.82,595.61 636.51,445.94 616.86,406.04"
        fill="none"
        stroke="#e94560"
        stroke-width="8.0"
        stroke-linejoin="round"
        stroke-linecap="round"/>
  <!-- Start/finish line -->
  <line x1="598.92" y1="414.88" x2="634.80" y2="397.21"
        stroke="#f5f5f5" stroke-width="9.6"
        stroke-linecap="round"/>
</svg>
