<?xml version="1.0" encoding="utf-8"?>
<svg xmlns="http://www.w3.org/2000/svg"
     width="515.1" height="800.0"
     viewBox="0 0 515.1 800.0">
  <rect width="100%" height="100%" fill="#1a1a2e"/>
  <!-- Track outline -->
  <polyline points="77.14,502.32 41.55,672.95 40.00,690.32 40.75,703.25 44.05,718.55 49.05,732.03 53.35,739.59 58.32,745.70 62.01,749.37 66.01,752.55 70.31,755.18 78.80,758.22 86.96,759.78 90.93,760.00 94.48,759.74 98.01,759.15 101.45,758.18 104.53,757.00 107.86,755.07 113.30,751.22 119.60,745.89 125.35,739.00 133.26,722.51 140.25,698.77 175.23,480.76 180.47,459.46 186.16,443.56 192.99,430.45 200.46,419.63 206.42,413.04 212.11,407.00 218.66,403.00 226.49,400.67 232.43,399.81 239.43,401.07 245.73,403.63 252.25,406.96 374.15,477.57 393.61,484.46 409.13,487.65 417.95,488.54 426.28,487.87 433.47,486.17 440.88,483.46 447.82,479.79 453.87,475.35 459.50,470.05 464.47,464.16 468.66,458.23 472.30,451.83 474.60,445.01 475.13,437.67 474.38,429.93 472.96,422.78 471.35,417.30 469.22,412.30 466.41,407.52 461.75,401.63 456.06,396.07 449.93,391.26 439.32,385.22 427.89,381.11 415.84,379.18 403.27,378.81 388.45,380.00 373.88,380.88 362.44,379.51 352.03,376.92 344.51,373.99 337.77,370.18 331.91,365.88 326.77,360.55 322.33,353.25 319.09,345.84 317.95,341.95 317.31,338.25 316.92,330.54 318.09,315.98 318.53,298.20 313.70,277.31 308.84,255.90 308.70,235.93 311.01,216.18 315.26,196.92 322.00,176.44 341.96,135.46 359.19,97.01 360.86,84.56 360.33,74.12 358.89,65.75 356.67,58.82 354.97,55.48 353.03,52.78 350.67,50.08 348.04,47.71 344.98,45.52 341.68,43.63 337.88,41.82 333.96,40.52 330.38,40.04 326.86,40.00 323.36,40.26 319.92,40.89 316.50,41.85 313.12,43.19 306.46,46.89 285.75,62.12 263.13,77.64 255.50,80.90 248.64,82.56 241.73,83.64 233.82,83.49 210.87,77.08 189.58,70.86 185.41,70.78 182.11,71.34 178.75,72.23 175.56,73.56 172.62,75.30 169.87,77.53 167.43,79.90 165.07,83.27 160.18,94.53 155.10,111.31 133.73,230.97 77.14,502.32"
        fill="none"
        stroke="#e94560"
        stroke-width="8.0"
        stroke-linejoin="round"
        stroke-linecap="round"/>
  <!-- Start/finish line -->
  <line x1="96.72" y1="506.40" x2="57.56" y2="498.23"
        stroke="#f5f5f5" stroke-width="9.6"
        stroke-linecap="round"/>
</svg>
