<?xml version="1.0" encoding="utf-8"?>
<svg xmlns="http://www.w3.org/2000/svg"
     width="519.1" height="800.0"
     viewBox="0 0 519.1 800.0">
  <rect width="100%" height="100%" fill="#1a1a2e"/>
  <!-- Track outline -->
  <polyline points="77.62,507.19 40.11,696.33 40.00,707.51 41.32,715.51 43.87,724.56 47.65,732.89 52.91,740.56 59.19,747.10 66.53,752.52 74.48,756.52 82.97,758.95 91.77,760.00 101.01,759.93 110.34,758.69 118.55,756.78 129.00,752.78 311.72,652.92 327.86,642.08 334.72,635.43 340.71,627.84 345.39,619.50 348.81,610.41 350.57,601.10 350.80,591.68 349.17,582.52 346.09,573.78 341.44,565.33 335.76,557.59 329.09,550.15 321.78,543.30 304.89,530.71 285.22,521.06 263.76,513.36 243.68,505.54 226.93,496.38 218.86,489.88 211.63,482.51 206.09,475.26 201.77,467.33 199.87,461.80 198.55,455.93 197.91,449.99 197.99,443.86 198.75,437.65 200.15,431.78 202.22,426.25 204.97,421.05 208.33,416.34 213.06,411.59 218.61,407.48 224.32,404.34 229.95,402.28 235.78,401.16 241.66,400.79 250.96,401.91 260.32,404.60 269.06,408.30 279.51,414.06 376.32,477.28 387.38,482.85 396.71,486.25 406.60,488.68 416.54,489.95 426.74,490.36 436.80,489.32 443.24,487.56 449.57,485.06 455.42,481.73 460.55,477.73 465.26,472.98 469.37,467.60 472.88,461.69 475.82,455.18 477.86,448.42 478.93,441.50 479.12,434.36 478.31,427.55 476.24,421.05 473.07,414.92 469.26,409.42 464.22,404.26 458.39,399.89 452.54,396.19 444.72,392.34 436.74,389.42 419.04,384.78 391.02,382.39 362.73,379.44 352.09,376.56 343.29,372.48 338.11,369.08 333.29,365.04 329.17,360.37 325.98,355.36 323.35,349.79 321.47,343.92 320.35,334.31 320.32,324.40 320.88,315.21 321.05,306.16 319.51,297.19 316.82,288.51 312.39,280.25 307.86,271.87 304.58,261.89 302.59,251.54 302.42,242.34 303.26,233.14 307.07,213.33 314.63,191.83 323.63,172.20 356.57,106.77 360.52,96.08 362.76,86.62 363.77,77.24 363.24,68.19 361.78,62.47 359.54,57.01 356.51,52.19 352.93,48.45 348.59,45.16 343.91,42.54 339.29,40.79 333.60,40.00 327.83,40.49 322.11,41.76 313.85,45.12 305.08,50.21 273.32,72.90 263.32,78.43 253.76,82.06 247.52,83.26 241.24,83.59 235.05,83.18 225.92,80.53 216.90,77.20 208.21,74.51 199.61,72.94 193.93,73.20 188.24,74.28 182.78,76.27 177.46,79.22 172.33,83.07 167.79,87.71 164.29,92.30 161.38,97.65 158.21,105.65 114.32,322.09 77.62,507.19"
        fill="none"
        stroke="#e94560"
        stroke-width="8.0"
        stroke-linejoin="round"
        stroke-linecap="round"/>
  <!-- Start/finish line -->
  <line x1="97.24" y1="511.08" x2="58.00" y2="503.30"
        stroke="#f5f5f5" stroke-width="9.6"
        stroke-linecap="round"/>
</svg>
