<?xml version="1.0" encoding="utf-8"?>
<svg xmlns="http://www.w3.org/2000/svg"
     width="535.3" height="800.0"
     viewBox="0 0 535.3 800.0">
  <rect width="100%" height="100%" fill="#1a1a2e"/>
  <!-- Track outline -->
  <polyline points="74.42,482.76 75.73,487.97 79.86,505.52 86.54,529.38 96.45,563.93 121.89,635.16 137.48,664.32 152.45,687.58 168.63,709.05 179.54,719.83 190.39,728.35 212.28,741.62 234.14,751.39 262.74,757.65 294.27,760.00 328.56,757.93 352.37,752.95 374.68,746.36 385.25,742.13 395.40,736.60 414.33,723.84 434.06,707.39 452.58,688.09 468.79,665.88 481.08,639.99 489.51,614.42 493.37,586.55 495.33,557.35 492.06,513.30 433.51,196.95 424.28,167.75 411.61,139.09 398.05,118.78 391.03,110.48 382.53,102.24 336.85,69.21 317.44,59.03 292.72,49.86 263.98,42.86 237.75,40.00 209.84,40.18 182.02,42.49 168.46,45.39 156.34,49.31 132.73,59.81 121.92,65.75 111.39,72.94 99.89,83.49 89.05,95.28 72.60,116.61 66.50,127.39 61.00,140.75 50.09,178.20 41.72,223.35 40.00,275.64 42.24,322.63 47.09,355.66 49.50,368.24 52.91,384.96 56.94,404.31 61.31,424.81 65.71,444.94 69.77,463.18 73.22,478.02 74.42,482.76"
        fill="none"
        stroke="#e94560"
        stroke-width="8.0"
        stroke-linejoin="round"
        stroke-linecap="round"/>
  <!-- Start/finish line -->
  <line x1="93.81" y1="477.86" x2="55.03" y2="487.66"
        stroke="#f5f5f5" stroke-width="9.6"
        stroke-linecap="round"/>
</svg>
