<?xml version="1.0" encoding="utf-8"?>
<svg xmlns="http://www.w3.org/2000/svg"
     width="572.4" height="800.0"
     viewBox="0 0 572.4 800.0">
  <rect width="100%" height="100%" fill="#1a1a2e"/>
  <!-- Track outline -->
  <polyline points="67.02,388.26 41.23,558.95 40.00,573.68 40.61,589.64 45.64,608.84 54.18,631.82 69.95,661.47 89.01,689.13 105.79,707.25 124.17,722.35 147.61,736.86 169.67,747.60 178.32,750.88 187.65,753.03 222.70,757.89 263.54,760.00 295.73,757.76 327.85,751.87 370.57,738.89 405.87,724.96 413.17,720.94 419.21,716.71 438.93,700.53 460.27,680.13 467.39,671.05 474.56,659.31 503.93,608.72 523.50,547.84 528.38,531.17 531.02,516.95 532.39,491.32 529.43,445.91 511.41,360.23 501.39,332.61 447.97,214.09 397.01,124.18 380.30,102.45 361.81,84.83 335.77,64.30 313.81,52.23 303.50,47.59 293.38,44.02 285.31,42.36 276.12,41.49 249.18,40.00 219.70,41.29 199.69,46.68 182.37,53.98 171.95,59.62 162.73,65.79 154.16,72.18 146.05,79.52 137.48,89.60 129.63,100.59 117.88,121.41 97.51,179.01 92.52,204.59 67.74,383.45 67.02,388.26"
        fill="none"
        stroke="#e94560"
        stroke-width="8.0"
        stroke-linejoin="round"
        stroke-linecap="round"/>
  <!-- Start/finish line -->
  <line x1="86.80" y1="391.25" x2="47.24" y2="385.28"
        stroke="#f5f5f5" stroke-width="9.6"
        stroke-linecap="round"/>
</svg>
