<?xml version="1.0" encoding="utf-8"?>
<svg xmlns="http://www.w3.org/2000/svg"
     width="800.0" height="634.1"
     viewBox="0 0 800.0 634.1">
  <rect width="100%" height="100%" fill="#1a1a2e"/>
  <!-- Track outline -->
  <polyline points="757.33,390.46 754.94,316.47 754.07,311.37 752.85,307.21 746.00,290.32 743.79,286.41 741.18,282.79 735.25,276.04 728.82,269.77 721.54,264.66 713.79,260.64 705.54,257.85 697.62,256.17 688.09,255.16 672.82,255.47 652.75,258.24 474.36,308.62 466.17,312.04 456.69,317.75 452.61,320.96 448.89,324.76 445.48,329.67 441.80,336.75 440.14,340.99 438.92,345.34 438.23,349.71 438.01,354.11 438.26,358.46 438.93,362.81 441.49,371.56 445.62,380.03 451.19,388.21 458.23,395.66 466.51,402.13 475.91,407.62 486.17,411.80 495.39,414.30 505.89,416.04 519.37,416.54 533.41,415.42 547.38,412.46 561.42,407.47 578.42,398.24 595.18,387.03 625.39,363.31 632.84,358.59 642.94,353.47 653.21,350.02 658.34,348.96 663.47,348.40 668.43,348.46 673.28,349.09 677.88,350.35 682.25,352.15 686.20,354.41 689.90,357.08 693.43,360.12 696.66,363.51 699.52,367.30 701.98,371.38 705.70,380.38 708.59,390.11 710.64,400.35 711.61,411.14 710.99,431.19 709.65,439.91 707.54,448.35 704.58,456.57 699.43,466.90 693.22,476.36 685.83,484.68 677.32,491.59 667.96,497.14 657.53,501.63 639.98,506.74 620.54,510.24 599.44,511.84 576.64,511.05 564.66,509.70 539.84,504.74 527.19,501.07 506.05,493.08 493.41,487.27 468.59,473.27 456.60,465.22 445.19,456.61 434.41,447.46 424.30,437.76 414.90,427.53 406.25,416.75 398.50,405.49 391.65,393.90 385.61,381.95 380.46,369.66 372.05,344.10 356.79,274.51 325.58,130.97 319.55,115.11 313.90,103.98 310.74,98.95 307.50,94.79 303.92,90.79 300.02,87.17 295.94,84.09 291.62,81.56 287.27,79.78 282.78,78.58 278.33,77.98 273.89,78.00 269.58,78.62 265.37,79.91 260.79,82.24 256.59,85.31 253.08,89.05 250.23,93.30 248.18,97.98 246.86,102.96 246.30,108.20 246.31,113.42 247.36,122.09 249.76,130.97 253.43,140.03 274.21,177.00 278.37,186.73 281.56,196.66 283.43,206.62 283.89,216.35 283.43,221.11 282.52,225.75 281.09,230.20 279.23,234.46 277.03,238.39 274.44,242.08 271.35,245.59 267.90,248.82 264.01,251.85 259.82,254.54 250.53,258.78 240.16,261.82 228.94,263.31 220.19,263.56 211.27,262.73 202.46,260.91 193.85,258.28 185.36,254.52 177.32,249.80 169.96,244.27 163.10,237.85 156.79,230.65 145.74,213.93 136.00,194.57 128.19,173.57 122.47,152.58 119.15,132.00 115.91,71.67 114.88,66.43 113.53,62.33 111.62,57.90 109.23,53.78 106.41,50.14 103.17,46.97 99.66,44.39 95.73,42.38 90.75,40.89 85.44,40.08 80.03,40.00 74.73,40.50 70.28,41.28 66.07,42.53 62.09,44.39 58.39,46.77 55.03,49.67 52.11,53.04 49.84,56.66 47.86,61.22 43.64,75.52 40.53,90.48 40.00,96.17 40.19,101.85 42.23,116.15 45.21,130.16 48.58,140.12 71.59,182.46 126.48,253.60 207.74,338.43 351.71,464.02 447.56,537.83 498.99,566.27 550.61,584.03 600.04,593.26 645.61,594.07 695.09,587.38 712.84,581.61 721.05,577.45 735.96,566.56 742.35,559.88 747.70,552.69 749.81,549.20 751.74,544.79 756.34,528.95 760.00,507.30 758.01,411.64 757.33,390.46"
        fill="none"
        stroke="#e94560"
        stroke-width="8.0"
        stroke-linejoin="round"
        stroke-linecap="round"/>
  <!-- Start/finish line -->
  <line x1="737.34" y1="391.10" x2="777.32" y2="389.81"
        stroke="#f5f5f5" stroke-width="9.6"
        stroke-linecap="round"/>
</svg>
