<?xml version="1.0" encoding="utf-8"?>
<svg xmlns="http://www.w3.org/2000/svg"
     width="641.9" height="800.0"
     viewBox="0 0 641.9 800.0">
  <rect width="100%" height="100%" fill="#1a1a2e"/>
  <!-- Track outline -->
  <polyline points="41.12,407.33 40.22,427.69 40.00,484.98 47.87,549.86 64.06,588.96 86.32,626.15 111.95,659.82 139.38,689.95 169.96,716.83 204.37,737.19 239.44,749.41 279.02,757.01 318.14,760.00 352.77,758.37 380.65,752.13 405.16,741.54 430.12,726.33 464.52,699.46 499.15,665.25 529.28,626.43 554.01,583.53 574.47,536.29 589.09,485.25 598.98,421.99 601.91,354.66 596.28,291.13 581.67,237.92 559.86,187.96 534.67,145.88 512.64,118.46 488.13,96.20 460.92,77.74 425.85,60.36 387.40,47.33 348.50,40.54 310.72,40.00 272.72,44.89 235.17,56.56 191.55,78.82 148.60,109.23 111.73,142.35 88.12,168.69 68.56,196.65 53.94,229.77 43.15,316.65 41.12,407.33"
        fill="none"
        stroke="#e94560"
        stroke-width="8.0"
        stroke-linejoin="round"
        stroke-linecap="round"/>
  <!-- Start/finish line -->
  <line x1="61.12" y1="407.86" x2="21.13" y2="406.80"
        stroke="#f5f5f5" stroke-width="9.6"
        stroke-linecap="round"/>
</svg>
