<?xml version="1.0" encoding="utf-8"?>
<svg xmlns="http://www.w3.org/2000/svg"
     width="800.0" height="609.1"
     viewBox="0 0 800.0 609.1">
  <rect width="100%" height="100%" fill="#1a1a2e"/>
  <!-- Track outline -->
  <polyline points="530.04,195.03 553.65,204.72 601.29,224.52 643.57,244.14 668.07,259.75 689.72,277.08 709.62,296.70 727.10,318.54 741.33,342.35 752.06,367.15 757.58,387.82 760.00,408.36 759.64,428.29 755.98,448.96 744.17,480.85 729.01,511.39 717.77,530.45 706.27,545.81 697.15,554.94 687.56,561.73 680.96,565.12 674.00,567.59 666.11,569.13 644.19,568.88 620.63,565.12 600.42,559.63 581.60,551.24 566.80,541.18 550.66,525.39 478.68,425.57 402.37,320.94 376.33,295.59 352.31,278.44 328.79,266.35 304.71,258.45 281.31,254.26 255.32,254.07 200.66,266.66 148.74,278.99 136.52,279.36 126.31,278.44 116.62,276.16 107.39,272.83 98.52,268.26 90.07,262.28 76.30,248.40 63.92,231.00 52.01,207.62 43.45,182.45 40.00,160.73 40.26,139.26 42.68,124.83 46.86,110.51 52.53,97.19 60.06,84.48 69.13,72.76 78.67,62.83 87.18,55.85 96.05,50.24 105.33,45.86 115.12,42.59 125.33,40.62 136.06,40.00 154.98,42.16 177.87,48.45 339.26,116.68 530.04,195.03"
        fill="none"
        stroke="#e94560"
        stroke-width="8.0"
        stroke-linejoin="round"
        stroke-linecap="round"/>
  <!-- Start/finish line -->
  <line x1="537.63" y1="176.53" x2="522.44" y2="213.53"
        stroke="#f5f5f5" stroke-width="9.6"
        stroke-linecap="round"/>
</svg>
