<?xml version="1.0" encoding="utf-8"?>
<svg xmlns="http://www.w3.org/2000/svg"
     width="485.6" height="800.0"
     viewBox="0 0 485.6 800.0">
  <rect width="100%" height="100%" fill="#1a1a2e"/>
  <!-- Track outline -->
  <polyline points="316.76,110.18 365.27,128.80 379.48,136.41 390.43,144.11 401.26,153.69 410.83,164.54 418.63,176.00 424.96,188.46 429.21,200.44 432.51,215.65 444.60,357.74 445.60,391.21 443.95,422.16 440.43,442.20 435.10,460.10 429.02,473.63 420.95,487.16 400.04,513.61 380.75,540.35 377.12,549.16 375.09,557.38 373.85,567.29 375.34,605.16 377.80,645.69 378.94,688.94 376.45,703.19 372.36,716.01 366.57,727.98 359.27,738.50 353.66,744.33 347.44,749.35 340.89,753.46 334.08,756.54 326.93,758.67 319.41,760.00 306.05,760.00 289.30,759.77 233.10,757.67 120.76,758.71 88.67,759.09 63.94,756.86 57.99,755.05 53.23,752.75 49.15,749.64 46.55,746.82 44.25,743.59 42.35,740.06 41.03,736.47 40.30,732.97 40.00,729.25 40.16,725.59 40.84,722.19 42.11,719.02 43.92,716.04 46.22,713.25 48.87,710.70 58.26,705.06 69.90,700.34 105.18,691.82 145.95,683.37 185.70,674.60 207.13,668.29 225.01,658.61 241.81,647.05 256.94,633.65 268.65,620.83 278.96,604.38 294.14,558.35 306.37,509.73 311.46,486.71 316.68,468.52 319.95,462.37 323.60,457.38 327.91,453.11 336.97,447.70 347.41,443.53 360.94,439.58 373.82,435.04 379.21,431.58 383.91,427.60 387.97,422.94 391.38,417.50 394.11,411.35 396.31,404.71 398.88,392.18 399.61,378.91 398.96,370.30 397.36,361.69 394.33,352.56 381.72,330.09 362.24,303.87 299.71,230.16 238.54,166.38 226.61,157.19 216.22,151.59 204.26,146.86 191.92,143.92 180.02,142.82 166.89,143.43 139.87,149.58 113.57,154.89 106.04,154.66 99.61,153.56 93.57,151.49 88.11,148.67 83.02,145.05 78.34,140.55 73.50,134.37 69.14,127.15 65.54,119.41 61.73,106.56 59.75,93.45 59.53,82.54 61.02,72.24 63.16,65.93 66.08,59.97 69.65,54.70 73.98,50.00 78.93,46.02 84.29,42.98 90.00,41.10 96.14,40.23 102.91,40.00 118.90,41.29 138.21,45.28 228.42,76.26 316.76,110.18"
        fill="none"
        stroke="#e94560"
        stroke-width="8.0"
        stroke-linejoin="round"
        stroke-linecap="round"/>
  <!-- Start/finish line -->
  <line x1="323.93" y1="91.51" x2="309.59" y2="128.86"
        stroke="#f5f5f5" stroke-width="9.6"
        stroke-linecap="round"/>
</svg>
