<?xml version="1.0" encoding="utf-8"?>
<svg xmlns="http://www.w3.org/2000/svg"
     width="724.2" height="800.0"
     viewBox="0 0 724.2 800.0">
  <rect width="100%" height="100%" fill="#1a1a2e"/>
  <!-- Track outline -->
  <polyline points="193.16,355.25 190.42,350.87 141.48,275.35 71.77,167.60 57.98,143.95 50.18,128.34 44.13,113.83 41.79,107.07 40.63,101.66 40.00,95.64 40.00,90.38 40.60,84.34 41.57,80.20 42.99,76.27 44.87,72.62 47.20,69.11 49.99,65.88 53.26,62.98 56.95,60.40 61.00,58.16 65.37,56.29 70.03,54.78 74.89,53.66 79.97,52.93 85.20,52.54 90.54,52.58 95.96,53.09 101.46,54.04 106.79,55.33 111.77,56.97 116.26,59.05 120.29,61.56 123.78,64.49 126.67,67.79 128.97,71.34 130.10,73.76 131.00,76.35 131.54,78.92 131.78,81.51 131.70,84.04 131.33,86.54 130.67,88.97 129.73,91.31 128.51,93.57 127.04,95.70 125.31,97.70 123.36,99.51 118.89,102.45 114.30,105.03 112.22,106.44 110.32,108.01 108.71,109.77 107.33,111.68 106.16,113.67 105.24,115.74 104.62,117.87 104.25,120.05 104.16,122.27 104.32,124.51 105.30,129.07 107.02,133.65 134.12,180.91 152.20,204.17 180.46,230.48 203.12,245.74 212.67,250.66 222.28,254.56 242.44,259.47 249.10,260.07 268.02,259.30 284.71,255.39 289.71,253.39 298.80,248.18 302.77,245.33 306.55,241.97 311.23,236.59 315.54,230.42 319.25,223.26 322.01,216.70 323.54,211.76 325.06,201.92 324.95,197.22 324.26,192.77 322.99,188.60 321.17,184.79 318.83,181.38 317.04,179.44 315.03,177.61 310.75,174.55 308.56,173.36 306.26,172.44 303.66,171.90 300.98,171.66 298.31,171.61 295.73,171.81 293.67,172.18 291.52,172.82 287.65,174.37 283.22,176.61 268.23,186.88 263.44,189.34 261.06,190.21 258.66,190.84 256.29,191.14 253.94,191.18 251.64,190.94 249.39,190.45 247.21,189.76 245.12,188.81 243.17,187.58 241.37,186.11 239.69,184.41 238.19,182.50 236.84,180.36 235.67,178.07 233.91,172.98 233.12,168.80 232.79,164.43 232.93,159.87 233.52,155.21 234.56,150.47 236.06,145.68 238.00,140.89 261.86,94.34 278.49,61.39 281.40,56.84 284.55,52.66 288.02,48.99 291.83,45.90 295.91,43.44 300.20,41.64 304.68,40.49 309.32,40.00 314.02,40.11 318.72,40.80 323.43,41.95 332.83,45.19 342.15,49.47 355.91,57.82 364.83,64.54 373.27,72.32 377.22,76.62 380.97,81.18 384.49,86.00 387.76,91.05 390.73,96.35 393.45,101.86 395.88,107.57 397.98,113.44 399.73,119.49 401.07,125.70 401.94,132.02 402.62,144.74 401.81,162.77 392.90,233.74 392.96,252.89 395.46,278.00 395.58,287.70 394.59,296.59 393.66,300.71 391.82,305.74 389.45,310.43 382.16,322.30 380.46,326.22 379.34,330.37 378.54,334.62 378.36,336.80 378.43,339.12 379.01,345.48 380.47,353.22 384.39,365.19 389.87,377.85 405.09,403.02 442.45,448.79 467.93,473.47 483.70,488.98 509.75,515.69 531.55,531.41 536.65,534.15 546.44,537.75 548.82,538.32 551.23,538.65 556.06,538.83 560.89,538.66 565.72,537.80 570.42,536.34 574.93,534.27 579.21,531.61 583.11,528.34 586.60,524.57 592.32,515.74 593.45,513.52 594.41,510.84 601.48,476.62 604.05,465.95 605.81,461.19 608.00,456.89 610.61,453.06 613.66,449.75 617.13,446.92 620.95,444.60 625.02,442.90 629.13,441.90 631.14,441.67 633.22,441.63 635.92,441.83 638.61,442.24 642.62,443.47 646.51,445.29 650.24,447.70 653.78,450.61 657.04,453.94 660.06,457.68 670.99,475.18 675.95,485.16 680.29,495.99 682.06,501.73 683.35,507.69 684.06,513.77 684.16,519.98 683.79,526.28 682.97,532.62 681.79,539.01 680.25,545.45 678.38,551.86 676.16,558.30 673.57,564.66 670.54,570.94 667.12,577.07 663.25,583.03 658.94,588.76 654.25,594.28 649.22,599.54 643.95,604.38 638.48,608.76 632.84,612.81 626.80,616.39 620.51,619.59 613.94,622.26 607.20,624.37 600.24,625.79 593.12,626.57 585.90,626.68 578.65,626.11 571.41,624.88 564.24,623.06 557.20,620.59 550.34,617.56 543.70,613.92 537.31,609.72 506.72,587.70 496.60,582.72 488.08,579.48 481.79,577.99 475.52,577.18 469.33,577.06 463.27,577.59 457.42,578.80 451.81,580.65 441.35,586.22 436.47,589.86 427.77,598.71 424.06,603.87 420.87,609.40 418.24,615.31 416.15,621.48 413.78,634.52 413.53,641.27 416.50,675.65 416.74,682.71 416.65,689.84 416.24,697.01 415.47,704.16 414.36,711.29 412.88,718.21 411.13,724.73 409.12,730.76 406.87,736.34 404.50,741.32 401.96,745.77 399.27,749.67 396.36,753.02 393.26,755.75 391.12,757.18 388.80,758.39 386.46,759.24 384.04,759.79 381.64,760.00 379.25,759.90 376.96,759.50 374.75,758.80 372.65,757.82 370.67,756.59 368.80,755.07 367.08,753.34 365.50,751.37 364.09,749.23 361.78,744.42 360.55,740.41 357.73,722.53 350.86,648.76 342.51,609.73 326.35,569.42 307.81,535.97 259.51,461.19 193.16,355.25"
        fill="none"
        stroke="#e94560"
        stroke-width="8.0"
        stroke-linejoin="round"
        stroke-linecap="round"/>
  <!-- Start/finish line -->
  <line x1="176.21" y1="365.86" x2="210.11" y2="344.63"
        stroke="#f5f5f5" stroke-width="9.6"
        stroke-linecap="round"/>
</svg>
