<?xml version="1.0" encoding="utf-8"?>
<svg xmlns="http://www.w3.org/2000/svg"
     width="523.3" height="800.0"
     viewBox="0 0 523.3 800.0">
  <rect width="100%" height="100%" fill="#1a1a2e"/>
  <!-- Track outline -->
  <polyline points="477.22,353.79 471.27,275.71 465.44,234.63 456.70,201.05 443.58,165.52 425.01,132.42 407.16,111.23 386.16,91.67 363.81,75.05 341.72,61.03 318.53,49.45 294.97,44.08 227.47,40.00 162.99,53.69 131.79,80.91 106.17,114.00 86.62,155.08 78.61,184.10 64.04,220.45 54.45,257.45 48.01,295.27 40.00,369.76 41.09,407.58 46.56,448.82 64.65,525.43 89.05,599.93 105.56,636.28 125.11,667.25 150.85,698.71 181.33,725.44 204.52,738.97 229.65,749.57 255.15,756.74 279.92,760.00 304.93,760.00 329.94,757.23 356.53,751.52 383.00,742.56 406.92,729.84 427.92,712.40 446.38,691.21 461.31,668.39 471.51,646.71 478.19,623.40 482.92,594.06 483.29,434.96 477.22,353.79"
        fill="none"
        stroke="#e94560"
        stroke-width="8.0"
        stroke-linejoin="round"
        stroke-linecap="round"/>
  <!-- Start/finish line -->
  <line x1="457.27" y1="355.29" x2="497.16" y2="352.28"
        stroke="#f5f5f5" stroke-width="9.6"
        stroke-linecap="round"/>
</svg>
