<?xml version="1.0" encoding="utf-8"?>
<svg xmlns="http://www.w3.org/2000/svg"
     width="454.4" height="800.0"
     viewBox="0 0 454.4 800.0">
  <rect width="100%" height="100%" fill="#1a1a2e"/>
  <!-- Track outline -->
  <polyline points="343.33,226.91 353.71,267.29 364.70,303.21 365.93,307.89 366.92,312.50 367.53,317.12 367.78,321.82 367.67,326.54 367.17,331.19 366.15,335.81 364.62,340.23 362.61,344.44 360.03,348.37 357.04,352.08 353.71,355.56 350.04,358.84 346.12,361.91 341.96,364.83 319.07,378.77 252.70,417.05 242.01,422.55 236.65,424.95 225.85,429.15 220.31,430.88 214.65,432.38 175.99,441.05 162.26,446.94 158.17,449.52 154.38,452.55 150.86,455.95 147.83,459.72 145.26,463.78 143.24,468.14 141.77,472.70 140.75,477.44 140.27,482.36 140.37,487.35 141.93,497.40 145.16,507.34 155.32,526.45 180.20,565.92 202.30,603.29 233.35,659.68 252.32,693.02 262.76,707.08 270.72,715.12 275.07,718.77 279.69,722.04 284.62,724.86 295.08,729.26 300.53,730.90 311.80,733.05 323.32,733.80 340.86,732.48 363.68,727.21 382.68,721.71 386.74,720.86 390.59,720.35 394.25,720.12 397.78,720.17 401.12,720.64 404.27,721.53 405.77,722.19 407.18,723.00 408.51,723.97 409.74,725.07 410.85,726.31 411.83,727.66 412.66,729.11 413.32,730.65 413.81,732.29 414.15,733.98 414.36,735.71 414.40,737.46 414.23,739.24 413.85,740.98 413.26,742.67 412.47,744.29 411.48,745.82 410.33,747.27 407.61,749.93 404.45,752.21 400.87,754.10 396.99,755.62 392.86,756.81 388.49,757.74 379.30,758.94 359.30,760.00 337.54,759.51 331.90,759.16 326.21,758.59 320.51,757.76 314.78,756.61 309.09,755.12 303.59,753.31 298.30,751.19 293.17,748.73 288.16,745.98 282.38,742.66 275.39,738.23 254.41,722.08 251.64,720.49 245.95,718.22 237.47,716.29 234.91,715.24 233.70,714.56 232.54,713.78 231.46,712.86 230.46,711.83 228.70,709.48 227.19,706.78 225.93,703.77 221.72,689.89 214.38,675.15 199.23,653.46 148.18,589.68 89.22,513.98 85.51,508.36 84.16,505.67 83.14,502.94 82.52,500.14 82.38,497.30 82.74,494.48 84.41,488.98 85.35,483.15 85.36,481.59 85.23,480.14 84.64,477.20 83.54,474.31 81.91,471.53 79.83,468.94 77.59,466.69 74.53,464.21 57.17,454.68 53.82,452.67 50.72,450.37 47.90,447.79 45.44,444.96 43.38,441.88 41.79,438.49 40.70,434.90 40.08,431.15 40.00,427.23 40.38,423.19 41.09,419.03 43.17,410.47 49.28,392.62 72.76,334.09 79.57,310.14 83.67,276.69 86.55,224.48 85.60,204.29 81.10,183.71 75.60,162.97 72.43,148.97 71.66,144.63 71.24,140.34 71.24,136.09 71.65,131.90 72.53,127.81 73.80,123.73 75.33,119.67 77.12,115.63 79.24,111.68 81.71,107.90 84.55,104.37 87.75,101.12 91.28,98.12 95.15,95.45 99.30,93.06 103.68,90.91 108.29,89.04 113.10,87.41 117.99,86.03 123.00,84.86 166.06,76.76 223.95,61.62 258.46,52.51 307.98,40.69 311.69,40.20 315.34,40.00 318.97,40.17 322.51,40.75 325.89,41.78 329.07,43.31 331.89,45.29 334.29,47.70 336.29,50.44 337.91,53.45 339.18,56.67 340.07,60.03 340.60,63.52 340.85,67.18 340.88,71.07 340.69,75.19 339.69,83.70 332.92,121.80 331.55,147.68 333.49,175.39 340.38,215.45 343.33,226.91"
        fill="none"
        stroke="#e94560"
        stroke-width="8.0"
        stroke-linejoin="round"
        stroke-linecap="round"/>
  <!-- Start/finish line -->
  <line x1="362.70" y1="221.93" x2="323.96" y2="231.89"
        stroke="#f5f5f5" stroke-width="9.6"
        stroke-linecap="round"/>
</svg>
