<?xml version="1.0" encoding="utf-8"?>
<svg xmlns="http://www.w3.org/2000/svg"
     width="800.0" height="586.9"
     viewBox="0 0 800.0 586.9">
  <rect width="100%" height="100%" fill="#1a1a2e"/>
  <!-- Track outline -->
  <polyline points="254.88,478.12 220.82,469.71 195.95,461.32 171.90,451.42 149.08,439.22 128.46,423.22 110.59,403.43 95.21,382.76 83.58,360.25 74.70,336.36 67.62,311.62 42.21,186.10 40.00,162.71 40.39,140.46 43.33,119.38 46.24,109.41 49.87,100.24 54.37,91.24 59.44,83.12 65.33,75.41 71.66,68.64 78.71,62.51 86.13,57.30 94.41,52.66 103.00,48.88 121.75,43.31 142.15,40.09 162.91,40.00 250.88,49.32 271.56,52.55 281.68,55.39 289.06,58.41 293.63,61.34 298.13,64.83 301.93,69.23 304.35,73.36 306.34,78.02 307.47,83.00 307.55,87.75 306.94,92.74 305.93,97.45 303.14,104.93 299.35,111.47 293.99,117.62 287.92,122.78 273.40,132.46 188.61,179.74 173.93,192.08 160.75,207.09 155.27,215.59 150.41,225.03 146.75,233.88 143.61,244.93 139.00,273.95 136.24,302.91 136.84,319.92 137.88,327.77 139.47,335.10 141.77,341.87 143.91,347.76 147.86,355.18 154.77,363.48 163.07,368.99 172.04,370.72 181.04,368.02 188.01,364.15 194.86,359.23 201.30,353.25 207.19,346.56 210.96,341.67 214.96,334.90 246.86,258.45 255.18,241.09 266.19,224.50 279.74,209.20 287.33,202.60 295.18,196.89 303.35,192.02 311.65,188.00 320.13,184.72 328.66,182.29 337.12,180.71 345.50,180.06 353.48,180.41 361.17,181.97 367.73,184.69 373.91,188.47 379.38,192.67 384.30,198.09 387.93,204.71 391.03,212.19 393.69,219.19 395.74,226.67 396.84,234.17 397.16,241.94 396.55,249.97 395.15,257.80 392.65,265.95 389.39,273.45 384.99,280.90 379.97,287.58 367.54,300.60 352.86,312.53 307.53,347.06 301.10,353.36 295.97,359.52 291.62,365.73 287.83,372.48 284.91,378.69 282.83,385.70 282.17,391.29 282.04,397.36 282.56,402.99 284.14,408.50 286.57,413.49 289.36,417.79 293.12,421.93 297.42,425.12 301.90,427.70 306.86,429.96 312.04,431.48 317.34,432.39 326.36,432.30 335.28,430.90 342.53,428.99 349.53,426.41 363.47,419.46 376.86,410.29 389.37,399.00 412.10,370.72 421.61,354.24 437.49,319.74 450.09,278.09 458.65,246.51 463.50,231.97 470.13,218.17 478.43,204.77 488.89,191.87 495.31,186.10 502.15,181.03 509.88,176.13 517.92,171.97 526.66,168.45 535.67,165.78 545.30,163.91 555.11,162.97 575.13,163.94 595.42,168.10 677.72,199.00 713.91,214.24 729.60,222.62 736.31,227.40 742.58,232.88 747.77,238.54 752.37,244.96 755.87,251.00 758.49,258.01 759.48,263.55 760.00,269.61 759.80,275.39 758.51,281.25 756.36,286.73 753.77,291.63 750.10,296.52 745.80,300.48 741.48,303.82 735.55,307.25 729.31,310.13 714.83,314.70 702.70,317.16 687.10,318.66 662.83,316.43 625.44,310.98 596.72,305.29 574.52,301.86 565.99,301.77 559.40,302.56 552.83,304.09 546.45,306.70 541.99,309.28 537.57,312.47 533.71,316.49 530.93,320.36 528.51,324.75 527.09,329.59 526.98,334.31 527.62,339.35 528.69,344.07 531.74,351.31 535.82,357.61 541.27,363.83 547.37,369.10 562.27,378.57 575.29,384.79 621.17,399.82 637.94,406.68 653.16,415.21 659.79,419.96 666.01,425.30 671.15,430.69 675.79,436.73 679.46,442.59 682.47,449.16 684.51,455.58 685.57,462.61 684.86,471.47 682.94,480.06 680.27,486.77 676.96,492.57 672.76,498.61 668.12,504.09 657.09,514.68 644.29,524.26 629.73,532.47 613.26,539.36 595.06,544.25 575.61,546.89 554.94,546.89 533.51,544.55 443.34,524.70 254.88,478.12"
        fill="none"
        stroke="#e94560"
        stroke-width="8.0"
        stroke-linejoin="round"
        stroke-linecap="round"/>
  <!-- Start/finish line -->
  <line x1="250.08" y1="497.54" x2="259.68" y2="458.71"
        stroke="#f5f5f5" stroke-width="9.6"
        stroke-linecap="round"/>
</svg>
