<?xml version="1.0" encoding="utf-8"?>
<svg xmlns="http://www.w3.org/2000/svg"
     width="800.0" height="555.8"
     viewBox="0 0 800.0 555.8">
  <rect width="100%" height="100%" fill="#1a1a2e"/>
  <!-- Track outline -->
  <polyline points="427.20,510.60 521.76,504.40 568.43,494.55 603.15,483.24 634.70,470.29 646.14,463.84 656.87,456.00 705.45,412.01 717.90,395.96 747.48,340.69 751.72,329.67 754.68,318.73 758.15,300.59 760.00,280.27 759.22,255.08 755.79,229.27 748.68,202.16 740.34,178.78 731.29,161.06 710.94,130.59 690.54,109.93 670.31,92.55 654.59,81.65 593.77,53.45 572.85,47.17 509.75,40.00 487.02,40.71 364.43,47.75 229.45,63.38 195.81,74.49 168.26,88.69 137.88,107.92 110.93,129.80 95.84,146.43 82.81,164.99 67.40,191.35 54.46,219.63 47.47,242.22 43.02,265.43 40.00,291.87 40.33,319.74 47.23,356.11 58.64,390.09 70.18,411.00 84.04,428.77 102.50,447.41 124.04,464.09 154.91,482.15 188.34,496.77 221.50,506.62 254.90,512.78 318.69,515.84 417.73,511.23 427.20,510.60"
        fill="none"
        stroke="#e94560"
        stroke-width="8.0"
        stroke-linejoin="round"
        stroke-linecap="round"/>
  <!-- Start/finish line -->
  <line x1="425.89" y1="490.65" x2="428.51" y2="530.56"
        stroke="#f5f5f5" stroke-width="9.6"
        stroke-linecap="round"/>
</svg>
