<?xml version="1.0" encoding="utf-8"?>
<svg xmlns="http://www.w3.org/2000/svg"
     width="783.3" height="800.0"
     viewBox="0 0 783.3 800.0">
  <rect width="100%" height="100%" fill="#1a1a2e"/>
  <!-- Track outline -->
  <polyline points="291.24,618.69 336.69,663.44 361.68,682.23 468.36,738.60 519.45,754.74 545.16,759.20 570.95,760.00 595.89,757.29 620.44,752.78 643.61,744.82 664.95,733.64 684.21,720.16 706.57,700.22 715.82,689.34 723.87,677.82 730.41,666.14 735.70,654.01 739.66,641.79 742.28,629.31 743.35,616.98 743.04,604.40 741.13,590.37 737.84,576.44 733.83,563.76 728.50,551.84 721.56,541.21 713.24,531.64 703.46,523.02 692.43,516.01 679.80,511.25 666.42,508.39 652.50,507.24 638.49,507.59 624.75,509.04 611.19,511.65 598.03,515.36 585.31,520.27 561.79,533.60 519.72,564.21 497.89,574.29 474.50,581.45 449.99,585.26 424.83,585.16 399.79,580.65 375.11,573.08 363.06,567.47 351.45,560.76 329.44,544.12 308.90,523.88 161.66,343.42 148.37,324.23 133.92,299.48 122.89,275.82 115.73,252.92 111.59,230.07 110.75,216.84 111.19,203.51 113.37,190.84 117.11,178.51 122.49,166.63 129.25,155.46 137.38,145.03 146.63,135.56 156.59,127.29 167.31,120.23 178.30,114.47 189.68,110.06 201.02,107.30 212.76,106.05 226.28,106.35 239.66,108.25 250.96,111.51 261.63,116.07 272.03,122.08 281.73,129.30 290.71,137.87 298.94,147.34 306.85,157.66 313.70,168.74 318.95,180.71 323.04,193.19 328.91,219.25 331.58,247.06 329.93,293.21 332.51,317.17 336.73,338.96 344.29,361.21 356.75,386.57 364.39,397.95 373.02,408.57 382.67,418.49 393.21,427.41 404.73,435.28 417.00,441.89 429.98,447.20 443.46,451.16 457.29,453.77 471.21,454.67 484.86,453.42 498.20,450.36 510.74,445.55 522.61,439.34 533.37,432.07 543.33,423.85 560.10,406.21 576.95,385.02 583.35,373.99 588.33,362.47 591.45,350.74 592.74,338.81 591.71,326.74 588.96,314.76 584.73,302.88 579.13,291.46 572.33,280.68 563.88,269.76 530.57,235.58 463.69,169.69 374.27,94.17 331.26,65.86 307.47,54.03 282.88,46.01 257.27,41.45 230.81,40.00 204.13,42.10 177.98,47.57 153.44,57.24 131.16,71.07 110.70,88.41 91.58,109.05 75.35,132.36 62.32,157.81 44.71,213.84 40.36,242.95 40.00,272.37 44.18,301.33 60.90,359.31 64.90,369.98 70.37,380.61 94.03,415.48 130.14,460.03 291.24,618.69"
        fill="none"
        stroke="#e94560"
        stroke-width="8.0"
        stroke-linejoin="round"
        stroke-linecap="round"/>
  <!-- Start/finish line -->
  <line x1="305.28" y1="604.44" x2="277.21" y2="632.94"
        stroke="#f5f5f5" stroke-width="9.6"
        stroke-linecap="round"/>
</svg>
