<?xml version="1.0" encoding="utf-8"?>
<svg xmlns="http://www.w3.org/2000/svg"
     width="800.0" height="487.3"
     viewBox="0 0 800.0 487.3">
  <rect width="100%" height="100%" fill="#1a1a2e"/>
  <!-- Track outline -->
  <polyline points="389.88,41.10 205.85,49.54 168.88,57.17 158.03,60.49 147.03,65.21 122.94,79.21 100.37,95.38 92.97,102.56 86.37,110.95 71.20,133.09 56.69,159.90 47.18,186.51 41.38,214.08 40.00,239.64 42.07,264.74 47.58,289.24 55.86,312.29 65.98,332.42 77.95,350.75 92.03,368.02 107.56,383.24 123.27,395.39 141.74,406.18 183.72,424.21 229.65,438.72 260.64,444.79 296.48,447.25 439.84,443.79 583.37,430.53 621.44,421.65 651.44,410.45 674.66,399.71 695.34,386.15 713.09,369.13 728.47,348.94 740.99,325.34 750.49,301.29 754.99,286.13 757.82,269.66 760.00,230.75 759.49,193.59 756.19,172.50 744.47,136.91 739.86,127.27 734.46,118.33 723.90,103.82 711.63,89.51 699.48,77.56 685.87,66.91 663.92,54.61 642.59,45.52 632.97,43.06 624.12,41.81 603.04,40.00 397.46,40.75 389.88,41.10"
        fill="none"
        stroke="#e94560"
        stroke-width="8.0"
        stroke-linejoin="round"
        stroke-linecap="round"/>
  <!-- Start/finish line -->
  <line x1="390.79" y1="61.08" x2="388.96" y2="21.13"
        stroke="#f5f5f5" stroke-width="9.6"
        stroke-linecap="round"/>
</svg>
