<?xml version="1.0" encoding="utf-8"?>
<svg xmlns="http://www.w3.org/2000/svg"
     width="663.6" height="800.0"
     viewBox="0 0 663.6 800.0">
  <rect width="100%" height="100%" fill="#1a1a2e"/>
  <!-- Track outline -->
  <polyline points="521.83,289.39 482.38,222.80 419.81,131.16 388.04,98.53 370.20,83.07 351.27,69.50 330.62,58.88 309.14,50.62 286.57,44.08 263.45,40.28 239.58,40.00 215.70,42.47 170.97,53.28 148.06,60.49 126.24,70.83 107.85,86.10 91.39,104.89 76.84,125.85 64.42,148.81 54.75,171.95 47.48,196.24 43.02,221.28 40.69,246.99 40.00,273.26 41.51,299.16 52.21,346.02 66.34,388.52 180.44,596.55 207.19,638.10 237.24,676.24 270.04,710.96 291.65,726.80 313.12,737.90 334.94,745.49 359.23,750.70 406.02,758.10 453.42,760.00 480.59,754.21 505.15,745.20 527.52,736.38 548.51,725.28 566.90,711.62 583.43,695.49 596.74,678.04 607.79,658.50 616.64,636.96 622.33,613.82 623.64,590.39 621.10,563.35 606.07,494.67 584.19,421.63 544.81,328.09 521.83,289.39"
        fill="none"
        stroke="#e94560"
        stroke-width="8.0"
        stroke-linejoin="round"
        stroke-linecap="round"/>
  <!-- Start/finish line -->
  <line x1="504.62" y1="299.59" x2="539.03" y2="279.19"
        stroke="#f5f5f5" stroke-width="9.6"
        stroke-linecap="round"/>
</svg>
