<?xml version="1.0" encoding="utf-8"?>
<svg xmlns="http://www.w3.org/2000/svg"
     width="771.5" height="800.0"
     viewBox="0 0 771.5 800.0">
  <rect width="100%" height="100%" fill="#1a1a2e"/>
  <!-- Track outline -->
  <polyline points="160.59,581.87 225.72,654.98 259.67,683.56 295.54,708.02 340.75,731.66 380.26,748.43 400.97,754.07 457.32,760.00 477.83,759.55 498.87,756.99 535.75,748.67 569.73,738.38 580.66,733.97 591.18,728.29 621.50,708.64 650.99,686.57 669.46,667.21 682.37,651.60 695.08,632.86 708.55,603.91 719.04,575.86 724.89,554.44 731.51,481.96 729.92,459.10 724.77,435.58 688.25,343.12 674.63,321.42 524.76,136.29 493.82,107.67 466.87,89.05 436.85,72.21 404.43,58.29 371.48,48.03 339.72,42.35 311.85,40.00 289.99,40.99 237.27,50.05 189.64,66.69 168.92,77.60 129.30,107.05 112.96,122.91 93.51,147.91 74.34,177.11 63.46,198.19 54.86,220.51 46.91,250.46 41.63,281.22 40.00,328.87 42.72,356.34 68.78,436.41 93.96,489.25 159.02,580.10 160.59,581.87"
        fill="none"
        stroke="#e94560"
        stroke-width="8.0"
        stroke-linejoin="round"
        stroke-linecap="round"/>
  <!-- Start/finish line -->
  <line x1="175.53" y1="568.57" x2="145.66" y2="595.18"
        stroke="#f5f5f5" stroke-width="9.6"
        stroke-linecap="round"/>
</svg>
