<?xml version="1.0" encoding="utf-8"?>
<svg xmlns="http://www.w3.org/2000/svg"
     width="579.9" height="800.0"
     viewBox="0 0 579.9 800.0">
  <rect width="100%" height="100%" fill="#1a1a2e"/>
  <!-- Track outline -->
  <polyline points="142.11,719.24 114.67,701.34 86.61,681.89 73.18,671.12 63.81,661.75 57.03,652.74 50.75,641.25 45.89,628.76 42.40,614.51 40.31,598.60 40.00,581.16 41.51,560.24 45.12,536.72 50.80,510.53 57.61,484.88 73.30,433.56 78.91,420.10 84.20,411.00 92.73,400.11 102.75,389.91 111.34,383.00 121.58,376.67 132.66,371.51 144.62,367.65 174.11,361.52 200.96,355.25 206.74,352.93 211.51,350.32 215.43,347.53 218.77,344.48 221.10,341.70 222.94,338.70 225.19,333.83 225.64,332.14 226.27,327.76 226.28,323.22 225.67,319.05 224.43,314.87 222.06,309.67 218.94,304.61 215.39,300.25 210.99,296.08 179.81,275.38 164.32,262.88 148.85,248.59 139.03,237.33 129.56,224.06 121.15,209.55 114.64,195.45 86.27,120.47 83.33,108.90 82.16,97.37 82.49,86.65 84.35,76.98 85.69,72.81 87.34,68.91 89.16,65.55 91.28,62.40 93.82,59.23 96.67,56.27 103.11,51.18 110.97,46.74 121.69,42.78 133.17,40.51 143.69,40.00 155.27,40.99 168.65,43.76 210.96,56.36 235.05,60.10 255.65,62.34 258.63,63.18 261.01,64.25 263.14,65.58 265.04,67.20 268.96,71.33 275.37,79.80 280.80,87.07 289.27,98.92 297.74,109.77 307.08,119.34 314.79,125.52 323.27,129.76 330.98,132.25 337.17,133.02 344.01,131.93 349.22,130.74 353.57,129.77 356.98,129.19 360.34,129.00 363.30,129.22 366.16,129.81 368.97,130.74 371.68,132.02 374.43,133.76 377.00,135.83 379.34,138.24 381.38,140.92 383.12,143.89 384.51,147.06 385.57,150.41 386.25,153.87 386.52,157.33 386.38,161.08 383.96,174.30 382.27,188.48 382.65,194.46 383.75,200.31 385.65,206.53 388.31,212.83 392.09,220.21 397.06,227.89 433.43,268.01 444.49,282.37 453.80,296.91 460.50,309.71 465.62,323.15 469.23,337.12 471.08,348.94 472.69,371.81 473.89,379.84 476.64,387.39 481.92,395.67 491.55,404.20 499.69,410.86 506.21,417.68 516.56,436.07 521.61,446.56 526.76,457.23 532.69,468.35 536.84,479.15 539.09,488.89 539.90,499.61 539.16,511.23 537.07,520.19 532.50,531.41 526.33,541.99 517.83,553.38 507.29,565.00 487.92,583.10 462.02,603.74 422.46,636.32 381.78,674.38 351.53,700.48 311.65,731.36 294.17,743.65 282.27,750.42 270.07,755.47 258.29,758.59 247.97,760.00 235.97,759.96 223.27,758.16 210.76,754.81 198.57,750.14 178.96,740.33 144.08,720.52 142.11,719.24"
        fill="none"
        stroke="#e94560"
        stroke-width="8.0"
        stroke-linejoin="round"
        stroke-linecap="round"/>
  <!-- Start/finish line -->
  <line x1="131.19" y1="736.00" x2="153.04" y2="702.49"
        stroke="#f5f5f5" stroke-width="9.6"
        stroke-linecap="round"/>
</svg>
