<?xml version="1.0" encoding="utf-8"?>
<svg xmlns="http://www.w3.org/2000/svg"
     width="414.1" height="800.0"
     viewBox="0 0 414.1 800.0">
  <rect width="100%" height="100%" fill="#1a1a2e"/>
  <!-- Track outline -->
  <polyline points="132.78,261.05 122.54,316.41 53.64,680.46 40.51,750.83 40.02,753.99 40.00,756.19 40.57,758.13 41.83,759.35 43.48,759.91 44.94,760.00 46.65,759.74 47.63,758.86 48.15,757.44 48.62,755.30 126.02,342.03 134.09,298.87 137.02,287.21 141.58,275.69 146.18,266.76 150.21,260.57 156.59,252.53 163.72,246.22 168.62,243.10 174.50,240.07 180.97,237.39 186.94,235.52 193.23,233.90 200.92,232.27 213.85,229.41 235.14,225.63 261.64,222.27 291.16,220.30 322.11,222.26 351.66,226.31 364.80,228.58 368.13,228.51 370.89,227.56 372.84,225.76 373.76,223.79 374.05,221.83 373.85,219.79 373.10,218.02 371.96,216.65 329.70,197.88 125.87,104.29 119.55,101.21 114.68,98.40 110.02,94.73 106.70,90.44 104.28,85.47 102.67,79.28 102.11,73.74 102.15,67.32 103.26,61.88 105.28,57.12 108.09,52.66 110.83,49.33 114.03,46.66 117.75,44.02 121.83,41.84 125.47,40.74 128.81,40.09 132.26,40.00 136.93,40.32 141.54,41.01 145.63,42.26 149.95,44.20 154.23,47.30 157.68,50.84 160.47,55.17 162.64,60.09 164.37,65.27 166.21,71.57 167.74,76.77 169.85,82.73 171.05,86.88 171.50,90.92 171.42,95.70 169.00,113.94 150.17,221.95 149.34,225.49 148.50,228.00 147.42,230.40 145.08,232.25 142.29,233.69 140.36,234.71 138.04,237.15 136.42,241.41 132.78,261.05"
        fill="none"
        stroke="#e94560"
        stroke-width="8.0"
        stroke-linejoin="round"
        stroke-linecap="round"/>
  <!-- Start/finish line -->
  <line x1="152.45" y1="264.69" x2="113.12" y2="257.41"
        stroke="#f5f5f5" stroke-width="9.6"
        stroke-linecap="round"/>
</svg>
