<?xml version="1.0" encoding="utf-8"?>
<svg xmlns="http://www.w3.org/2000/svg"
     width="711.6" height="800.0"
     viewBox="0 0 711.6 800.0">
  <rect width="100%" height="100%" fill="#1a1a2e"/>
  <!-- Track outline -->
  <polyline points="377.64,121.84 425.99,113.09 519.26,99.53 569.50,98.94 599.82,104.38 613.64,109.24 626.55,115.47 638.60,123.09 649.49,132.26 658.23,142.22 661.78,147.46 664.79,152.90 667.27,158.51 669.20,164.28 670.65,170.35 671.47,176.47 671.64,182.33 671.27,188.10 669.20,199.49 665.29,210.62 659.51,221.51 651.92,232.14 647.42,236.62 642.60,240.60 637.61,244.07 632.37,247.08 626.88,249.60 621.15,251.56 615.25,253.24 609.02,254.03 603.78,253.66 598.25,252.57 592.68,250.77 582.37,245.45 573.67,239.47 569.00,235.74 558.44,228.54 538.40,217.45 492.90,199.61 419.55,187.14 343.28,182.03 290.27,182.07 245.51,186.26 224.10,190.95 206.57,197.69 193.99,205.27 183.14,214.47 173.41,225.36 164.99,238.46 155.79,259.85 149.15,285.34 145.81,322.52 147.01,367.73 158.64,483.47 177.70,591.26 187.23,617.67 197.95,636.68 203.89,644.59 210.16,651.20 217.01,656.81 224.27,661.46 232.02,665.19 239.99,667.87 247.95,669.41 256.07,670.00 264.04,669.58 271.71,668.28 279.17,666.07 286.23,662.88 292.91,658.66 299.10,653.51 304.42,647.60 308.75,640.95 312.22,633.54 314.65,625.84 316.01,617.55 316.30,608.88 315.48,600.39 313.58,592.31 310.57,584.35 306.07,575.60 285.03,547.43 261.15,518.13 235.28,480.75 225.59,461.49 217.59,441.02 209.79,414.78 204.67,388.91 203.64,371.74 204.39,356.47 205.91,345.83 208.43,336.04 211.85,326.58 216.27,317.53 221.75,308.95 228.11,301.00 235.32,293.72 243.29,287.14 251.54,281.41 261.48,276.13 284.74,267.13 314.11,258.89 371.08,249.18 422.44,243.90 433.78,243.73 443.15,245.07 455.07,249.05 465.92,254.53 472.39,259.27 478.05,264.92 485.47,273.96 491.54,284.05 494.30,292.92 495.66,301.38 496.20,306.73 496.07,311.72 495.08,316.61 493.52,321.34 491.62,325.74 489.27,329.84 486.54,333.65 483.41,337.17 479.82,340.43 475.86,343.40 471.69,346.17 466.70,348.47 456.10,351.11 443.11,352.11 421.12,348.85 398.56,343.66 369.35,336.87 355.08,336.67 341.22,338.63 332.55,341.27 324.22,344.91 316.47,349.47 309.33,354.92 302.85,361.28 297.24,368.35 292.62,376.31 288.95,385.01 286.23,394.06 283.88,409.00 283.79,424.45 286.02,440.27 290.72,456.34 299.14,474.97 311.31,494.90 341.55,530.81 371.54,567.44 391.38,611.02 398.23,630.23 405.40,647.35 410.39,654.97 415.84,661.63 420.87,666.57 424.50,669.04 428.46,670.75 437.99,673.85 447.81,675.73 452.68,675.48 457.09,674.48 461.42,673.14 465.59,671.30 469.55,668.95 473.26,666.15 476.73,663.09 480.11,659.07 484.40,652.29 488.73,643.80 491.91,635.05 493.39,626.76 493.85,618.30 493.39,609.76 491.41,596.62 486.83,583.06 474.09,562.04 457.13,541.07 415.96,504.15 399.42,492.85 384.90,482.26 376.20,472.63 370.01,463.54 367.91,459.02 366.67,454.75 365.84,450.48 365.55,446.26 365.84,442.11 366.67,438.05 368.11,434.03 370.05,430.18 371.54,427.50 373.27,424.87 375.62,422.60 380.61,420.13 386.88,418.33 393.11,417.25 398.47,416.79 403.84,416.95 409.69,417.92 425.49,423.27 442.61,432.07 461.50,445.63 482.01,463.71 569.50,554.47 579.69,568.15 586.78,580.71 592.77,595.32 596.77,610.52 598.71,625.63 598.38,641.33 594.70,661.50 588.15,680.80 580.76,693.99 571.23,705.67 556.75,718.81 539.80,730.20 521.36,738.73 500.32,745.14 428.21,754.47 246.79,760.00 223.20,757.45 204.39,752.88 188.26,746.73 173.49,738.73 159.63,728.77 147.17,717.01 136.53,703.70 127.49,688.59 119.45,669.79 112.64,647.27 94.41,544.33 40.00,131.72 40.50,107.35 43.22,90.57 46.06,81.23 49.82,73.28 54.56,65.58 60.21,58.63 66.48,52.68 73.37,47.74 80.76,44.06 87.89,41.55 91.85,40.63 95.69,40.21 100.89,40.00 106.17,40.25 110.91,40.96 115.41,42.13 119.53,43.73 123.37,45.78 126.87,48.29 130.09,51.26 132.90,54.27 135.58,58.50 139.79,71.44 144.28,88.93 149.85,104.30 155.09,113.00 160.99,120.46 167.84,126.90 176.13,132.55 185.41,137.07 195.81,140.67 217.13,145.11 244.15,146.03 377.64,121.84"
        fill="none"
        stroke="#e94560"
        stroke-width="8.0"
        stroke-linejoin="round"
        stroke-linecap="round"/>
  <!-- Start/finish line -->
  <line x1="374.08" y1="102.16" x2="381.21" y2="141.52"
        stroke="#f5f5f5" stroke-width="9.6"
        stroke-linecap="round"/>
</svg>
