<?xml version="1.0" encoding="utf-8"?>
<svg xmlns="http://www.w3.org/2000/svg"
     width="800.0" height="742.3"
     viewBox="0 0 800.0 742.3">
  <rect width="100%" height="100%" fill="#1a1a2e"/>
  <!-- Track outline -->
  <polyline points="433.08,524.32 440.10,531.87 446.09,538.33 452.03,544.83 457.93,551.30 463.83,557.73 469.66,564.09 475.47,570.46 481.25,576.73 486.84,582.86 492.08,588.64 497.48,594.68 502.82,600.62 508.03,606.43 513.22,612.14 518.33,617.81 523.49,623.39 528.54,628.84 533.48,634.12 538.22,639.18 542.69,643.87 547.06,648.43 551.27,652.76 555.30,656.86 559.17,660.70 562.82,664.31 566.32,667.76 569.69,671.04 573.00,674.29 576.28,677.47 579.46,680.49 582.58,683.41 585.77,686.23 589.01,688.92 592.39,691.42 595.88,693.68 599.47,695.65 603.22,697.39 607.09,698.93 611.05,700.18 615.14,701.16 619.27,701.89 623.48,702.28 627.73,702.34 631.97,702.08 636.19,701.49 640.24,700.57 644.15,699.33 647.86,697.78 651.39,695.95 654.76,693.85 658.01,691.45 661.07,688.83 663.97,685.94 666.66,682.85 669.18,679.54 671.49,676.03 673.62,672.32 675.58,668.45 677.43,664.44 679.39,660.01 681.23,656.04 683.17,652.17 685.23,648.36 687.38,644.72 689.73,641.18 692.19,637.80 694.82,634.58 697.62,631.60 700.56,628.84 703.65,626.38 706.90,624.15 710.30,622.24 713.76,620.60 717.26,619.29 720.82,618.24 724.35,617.42 727.81,616.63 731.25,615.71 734.65,614.60 738.05,613.19 741.02,611.58 743.83,609.74 746.45,607.64 748.89,605.28 751.17,602.68 753.23,599.90 755.04,596.91 756.57,593.76 757.75,590.61 758.63,587.69 759.34,584.18 759.81,580.57 760.00,576.89 759.94,573.15 759.63,569.38 759.09,565.54 758.35,561.70 757.38,557.86 756.16,553.99 754.72,550.02 753.10,546.18 751.32,542.34 749.32,538.53 747.14,534.76 744.77,531.02 742.21,527.34 739.49,523.70 736.62,520.09 733.59,516.48 730.44,512.93 727.16,509.39 723.75,505.81 720.26,502.27 716.64,498.69 712.95,495.08 709.21,491.47 705.37,487.80 701.50,484.06 697.56,480.25 693.63,476.38 689.60,472.41 685.57,468.34 681.48,464.17 677.39,459.91 673.21,455.54 669.00,451.11 664.69,446.58 660.38,441.96 655.98,437.23 651.58,432.47 647.05,427.48 642.40,422.40 637.68,417.21 632.81,411.96 627.79,406.58 622.64,401.17 617.30,395.69 611.87,390.11 606.31,384.43 600.50,378.52 594.73,372.65 588.92,366.74 583.15,360.87 577.46,355.06 571.84,349.38 566.38,343.80 560.98,338.36 555.67,332.94 550.37,327.59 545.00,322.15 539.84,316.90 534.85,311.78 529.92,306.69 525.08,301.70 520.30,296.71 515.53,291.79 510.84,286.94 506.25,282.21 501.82,277.62 497.57,273.25 493.45,269.02 489.52,264.98 485.77,261.21 482.15,257.60 478.69,254.19 475.32,250.90 472.07,247.75 468.92,244.70 465.89,241.68 462.89,238.63 460.05,235.65 457.33,232.76 454.65,229.90 452.06,227.11 449.50,224.42 446.91,221.83 444.22,219.43 441.44,217.24 438.54,215.30 435.57,213.72 432.48,212.38 429.30,211.36 426.05,210.64 422.81,210.21 419.56,210.11 416.37,210.31 413.31,210.80 410.38,211.62 407.57,212.77 404.92,214.22 402.51,215.92 400.30,217.86 398.27,220.06 396.52,222.42 395.05,224.95 393.93,227.61 393.12,230.36 392.55,233.22 392.30,236.10 392.40,239.03 392.77,241.91 393.46,244.77 394.46,247.56 395.71,250.25 397.24,252.87 398.99,255.47 400.92,257.99 402.98,260.45 405.14,262.88 407.35,265.24 409.76,267.67 412.25,270.10 414.84,272.53 417.50,274.96 420.18,277.45 422.96,279.95 425.80,282.47 428.74,285.03 431.73,287.66 434.95,290.41 438.04,293.07 441.19,295.80 444.35,298.58 447.53,301.44 450.68,304.43 453.84,307.51 456.99,310.69 460.17,313.94 463.33,317.22 466.42,320.47 469.73,323.89 473.07,327.33 476.50,330.81 480.00,334.32 483.59,337.80 487.27,341.31 491.02,344.85 494.86,348.43 498.79,352.04 502.85,355.75 506.91,359.46 511.00,363.20 515.15,366.97 519.37,370.81 523.67,374.72 528.04,378.65 532.51,382.63 537.04,386.66 541.81,390.86 547.03,395.49 551.80,399.79 556.64,404.18 561.51,408.75 566.47,413.44 571.44,418.23 576.43,423.09 581.37,427.94 586.24,432.73 591.29,437.72 596.48,442.78 601.28,447.47 606.00,452.03 610.56,456.49 614.93,460.76 619.08,464.86 623.04,468.77 626.79,472.47 630.35,475.98 633.31,478.97 635.84,481.46 638.87,484.48 641.77,487.37 644.55,490.16 647.30,492.92 649.98,495.67 652.61,498.46 655.10,501.29 657.51,504.21 659.79,507.29 662.07,510.74 664.06,514.05 665.88,517.53 667.53,521.11 668.97,524.85 670.21,528.65 671.24,532.59 672.03,536.56 672.49,540.53 672.74,544.40 672.71,548.08 672.43,551.92 671.93,555.69 671.18,559.43 670.21,563.18 669.00,566.88 667.53,570.53 665.81,574.10 663.85,577.61 661.63,580.99 659.13,584.31 656.45,587.36 653.54,590.15 650.45,592.68 647.24,594.91 643.87,596.81 640.40,598.42 636.81,599.76 633.10,600.81 629.26,601.57 625.23,602.03 621.36,602.13 617.52,601.93 613.71,601.44 609.99,600.65 606.34,599.50 602.84,598.06 599.50,596.32 596.35,594.28 593.48,592.09 590.98,589.85 588.33,587.16 585.92,584.24 583.71,581.09 581.74,577.75 580.05,574.27 578.62,570.62 577.43,566.85 576.50,562.95 575.78,558.94 575.15,554.77 574.56,550.61 573.90,546.37 573.16,542.11 572.25,537.74 571.16,533.38 569.91,529.01 568.44,524.65 566.76,520.29 564.91,515.89 562.82,511.52 560.57,507.16 558.14,502.86 555.55,498.56 552.77,494.30 549.83,490.06 546.71,485.83 543.47,481.63 540.03,477.46 536.47,473.33 532.79,469.29 528.92,465.22 524.86,461.18 520.65,457.18 516.27,453.24 511.72,449.37 506.97,445.60 502.01,441.92 496.83,438.41 491.39,434.97 485.46,431.52 479.69,428.44 473.85,425.58 467.98,423.02 462.08,420.69 456.12,418.62 450.18,416.75 444.32,414.98 438.54,413.24 432.92,411.44 427.52,409.57 422.21,407.53 417.03,405.40 412.00,403.13 407.16,400.77 402.51,398.28 398.05,395.59 393.87,392.73 389.93,389.68 386.22,386.43 382.72,382.89 379.63,379.28 376.82,375.47 374.38,371.53 372.23,367.50 370.42,363.33 368.92,359.10 367.74,354.80 366.83,350.37 366.14,345.97 365.64,341.67 365.18,337.18 364.61,332.68 363.90,328.18 362.96,323.75 361.74,319.39 360.27,315.12 358.49,310.99 356.47,306.99 354.12,303.18 351.53,299.54 348.82,296.16 346.01,292.88 343.26,289.59 340.67,286.25 338.33,282.77 336.27,279.16 334.52,275.45 332.99,271.61 331.77,267.64 330.83,263.67 330.18,259.47 329.80,255.20 329.71,250.90 329.90,246.54 330.37,242.14 331.12,237.75 332.08,233.32 333.27,228.89 334.64,224.39 336.14,219.70 337.67,215.23 339.20,210.80 340.73,206.41 342.23,202.07 343.63,197.84 344.95,193.71 346.16,189.64 347.22,185.63 348.10,181.73 348.75,178.02 349.22,174.25 349.47,170.54 349.53,166.90 349.32,163.32 348.85,159.84 348.16,156.46 347.19,153.21 346.01,150.19 344.54,147.34 342.67,144.58 340.73,142.35 338.61,140.38 336.33,138.68 333.93,137.33 331.43,136.28 328.87,135.53 326.21,135.07 323.50,134.87 320.72,134.93 317.85,135.30 315.10,135.95 312.42,136.84 309.76,138.02 307.23,139.50 304.83,141.20 302.58,143.14 300.49,145.34 298.62,147.73 296.99,150.23 295.68,152.69 294.50,155.58 293.53,158.63 292.81,161.78 292.28,165.03 291.87,168.37 291.53,171.79 291.28,175.23 291.03,178.78 290.81,182.42 290.56,186.16 290.28,189.93 289.94,193.74 289.50,197.55 288.94,201.32 288.22,205.03 287.35,208.67 286.29,212.18 285.07,215.59 283.60,218.88 282.01,221.99 280.17,224.95 278.17,227.70 275.98,230.26 273.58,232.63 271.02,234.76 268.27,236.70 265.34,238.40 262.25,239.91 259.00,241.22 255.53,242.27 252.07,243.03 248.51,243.52 244.89,243.72 241.27,243.62 237.65,243.26 233.99,242.63 230.34,241.75 226.66,240.63 222.94,239.39 219.32,238.04 215.57,236.56 211.80,234.96 207.99,233.22 204.21,231.35 200.43,229.28 196.66,227.05 192.97,224.68 189.41,222.22 185.98,219.66 182.70,217.04 179.58,214.32 176.58,211.59 173.77,208.80 171.09,205.98 168.65,203.09 166.44,200.14 164.56,197.12 162.97,194.04 161.72,190.98 160.79,187.96 160.13,184.91 159.79,181.93 159.72,178.97 160.01,176.09 160.57,173.33 161.38,170.67 162.50,168.14 163.81,165.72 165.37,163.39 167.22,161.15 169.18,159.09 171.37,157.15 173.71,155.41 176.27,153.90 178.99,152.56 181.83,151.41 184.79,150.39 187.82,149.44 190.94,148.55 194.16,147.73 197.44,146.91 200.78,146.09 204.18,145.24 207.65,144.29 211.17,143.30 214.73,142.19 218.32,141.01 221.94,139.69 225.60,138.25 229.25,136.64 232.81,134.90 236.24,132.97 239.55,130.87 242.74,128.63 245.76,126.27 248.64,123.78 251.35,121.15 253.91,118.43 256.28,115.57 258.50,112.59 260.50,109.54 262.31,106.39 263.90,103.10 265.28,99.72 266.40,96.25 267.24,92.73 267.77,89.19 268.02,85.65 267.99,82.10 267.68,78.49 267.09,74.95 266.21,71.47 265.03,68.09 263.59,64.78 261.87,61.59 259.91,58.57 257.69,55.78 255.25,53.16 252.51,50.66 249.29,48.24 246.17,46.30 242.86,44.59 239.39,43.12 235.80,41.94 232.12,41.02 228.31,40.36 224.47,40.03 220.57,40.00 216.82,40.23 213.36,40.69 209.49,41.51 205.62,42.63 201.78,44.00 198.00,45.68 194.25,47.58 190.57,49.71 186.92,52.04 183.36,54.54 179.86,57.23 176.46,60.02 173.02,63.00 169.59,66.12 166.19,69.34 162.81,72.65 159.38,76.06 155.95,79.51 152.48,83.05 148.98,86.63 145.43,90.31 141.87,94.01 138.21,97.76 134.47,101.56 130.63,105.30 126.66,109.08 122.64,112.85 118.45,116.66 114.21,120.46 109.93,124.27 105.68,128.08 101.41,131.92 97.32,135.66 93.26,139.40 89.29,143.11 85.42,146.78 81.61,150.46 77.93,154.10 74.34,157.74 70.84,161.38 67.47,164.99 64.23,168.57 61.10,172.21 58.08,175.86 55.20,179.53 52.49,183.27 49.99,187.05 47.74,190.92 45.74,194.86 44.03,198.86 42.59,203.03 41.37,207.62 40.62,211.76 40.16,215.96 40.00,220.19 40.12,224.46 40.53,228.75 41.22,232.99 42.28,237.15 43.62,241.16 45.34,245.16 47.49,249.10 49.74,252.51 52.30,255.76 55.08,258.81 58.14,261.67 61.42,264.26 64.88,266.56 68.50,268.59 72.28,270.30 76.46,271.81 80.80,272.92 84.92,273.65 89.14,274.04 93.38,274.14 97.69,273.97 102.03,273.55 106.40,272.96 110.84,272.23 115.30,271.51 118.89,270.95 121.95,270.53 126.60,269.97 131.35,269.58 136.19,269.31 141.06,269.25 146.02,269.35 150.98,269.74 155.98,270.40 161.00,271.28 166.12,272.50 172.37,274.30 177.36,276.04 182.36,278.01 187.29,280.27 192.19,282.80 197.06,285.52 201.90,288.48 206.71,291.63 211.49,294.94 216.45,298.62 221.54,302.59 226.22,306.49 230.90,310.60 235.59,314.86 240.24,319.32 244.92,323.95 249.60,328.78 254.32,333.73 259.13,338.88 264.28,344.46 269.52,350.20 274.58,355.75 279.76,361.36 285.07,367.10 290.44,372.94 295.93,378.92 301.55,384.95 307.26,391.09 313.10,397.33 319.47,404.12 325.78,410.85 331.93,417.38 338.14,423.94 344.32,430.54 350.47,437.10 356.50,443.56 362.49,450.03 368.45,456.46 374.42,462.83 378.72,467.42 382.25,471.13 388.15,477.40 394.12,483.66 400.02,489.96 405.88,496.26 417.53,508.80 427.74,518.84 433.08,524.32"
        fill="none"
        stroke="#e94560"
        stroke-width="8.0"
        stroke-linejoin="round"
        stroke-linecap="round"/>
  <!-- Start/finish line -->
  <line x1="447.58" y1="510.55" x2="418.57" y2="538.09"
        stroke="#f5f5f5" stroke-width="9.6"
        stroke-linecap="round"/>
</svg>
