<?xml version="1.0" encoding="utf-8"?>
<svg xmlns="http://www.w3.org/2000/svg"
     width="573.4" height="800.0"
     viewBox="0 0 573.4 800.0">
  <rect width="100%" height="100%" fill="#1a1a2e"/>
  <!-- Track outline -->
  <polyline points="165.38,448.79 177.84,419.01 180.80,405.09 182.16,391.04 181.29,377.34 175.71,350.68 173.45,344.13 170.87,338.52 167.72,333.08 163.87,327.69 146.76,308.73 139.37,298.36 136.67,292.77 134.51,286.81 133.06,280.81 132.18,274.65 131.88,268.50 132.26,262.41 133.53,256.37 135.48,250.60 138.27,244.81 141.62,239.42 149.95,229.30 160.31,220.01 172.15,211.45 185.44,205.13 199.76,200.37 215.21,197.78 246.28,197.56 289.44,203.02 303.36,202.92 316.97,200.78 323.33,198.96 329.51,196.55 335.34,193.45 340.91,189.73 345.99,185.62 350.76,180.96 359.16,170.31 366.17,158.18 371.54,144.66 384.17,100.25 389.91,86.40 398.17,73.64 407.98,61.73 413.52,56.67 419.38,52.36 425.63,48.81 432.13,45.97 446.09,41.99 453.62,40.65 461.23,40.00 468.79,40.28 476.23,41.28 489.98,45.11 496.34,47.60 502.42,50.65 507.88,54.10 512.91,58.20 517.00,62.84 520.76,68.00 524.39,73.38 527.57,79.28 529.98,85.62 531.77,92.44 533.45,107.20 533.12,122.55 531.68,130.23 529.57,137.69 523.54,152.36 516.25,167.22 499.31,196.45 450.62,309.52 432.13,386.33 423.14,441.16 413.10,517.83 411.51,573.82 411.77,587.52 409.86,597.69 406.71,607.28 404.41,611.63 401.75,615.31 398.79,618.43 395.15,621.23 391.17,623.37 387.04,624.93 382.63,625.91 378.10,626.24 373.55,626.06 368.95,625.43 364.34,624.27 359.93,622.41 355.82,619.77 351.88,616.47 348.37,612.92 344.75,608.31 341.70,603.18 339.11,597.51 337.09,591.37 334.98,577.97 334.30,562.99 335.47,541.11 346.38,486.99 366.92,420.07 371.95,406.04 373.63,399.50 374.70,392.95 375.02,386.98 374.55,381.07 373.51,376.46 371.95,371.88 369.94,367.82 367.16,364.20 363.86,361.18 360.29,358.66 353.68,355.49 346.82,353.55 341.03,352.69 335.31,352.62 329.24,353.27 323.13,354.63 317.00,356.57 310.93,359.19 304.95,362.56 299.12,366.64 288.02,376.64 283.09,381.82 277.78,389.12 242.64,462.71 206.83,542.85 146.82,679.91 130.99,721.35 124.13,734.27 116.66,744.44 111.38,749.98 105.54,754.64 101.22,756.90 96.69,758.54 92.08,759.57 87.26,760.00 82.35,759.77 77.52,758.94 70.31,756.45 63.59,752.90 58.76,749.53 54.42,745.47 50.47,740.69 46.99,735.18 44.17,729.21 41.98,722.69 40.63,715.69 40.00,708.34 40.09,700.53 40.86,692.65 44.59,676.16 48.49,664.83 65.59,630.16 108.53,560.83 151.18,482.76 165.38,448.79"
        fill="none"
        stroke="#e94560"
        stroke-width="8.0"
        stroke-linejoin="round"
        stroke-linecap="round"/>
  <!-- Start/finish line -->
  <line x1="146.93" y1="441.08" x2="183.83" y2="456.51"
        stroke="#f5f5f5" stroke-width="9.6"
        stroke-linecap="round"/>
</svg>
