<?xml version="1.0" encoding="utf-8"?>
<svg xmlns="http://www.w3.org/2000/svg"
     width="243.3" height="800.0"
     viewBox="0 0 243.3 800.0">
  <rect width="100%" height="100%" fill="#1a1a2e"/>
  <!-- Track outline -->
  <polyline points="110.76,548.35 112.91,520.46 113.01,518.85 127.22,347.10 128.68,339.24 130.58,333.92 132.22,331.01 134.17,328.50 136.33,326.54 138.00,325.54 139.82,324.80 141.66,324.33 143.44,324.18 145.03,324.30 146.60,324.65 148.12,325.28 149.51,326.21 151.43,328.62 153.06,331.82 154.73,335.16 157.64,341.11 160.93,346.45 162.59,348.05 164.37,349.40 166.22,350.44 168.07,351.16 169.79,351.55 171.55,351.68 173.30,351.51 174.93,351.03 176.64,350.07 178.29,348.70 179.80,347.01 181.12,345.12 182.79,341.76 184.03,337.78 184.82,333.08 184.01,317.36 182.24,299.56 182.69,267.41 192.05,189.87 203.30,95.09 203.25,83.48 202.03,74.47 200.81,69.96 199.20,65.88 197.19,62.21 194.77,58.99 191.96,56.15 188.92,53.83 185.71,52.11 182.29,50.87 178.85,50.23 175.43,50.23 171.99,50.79 168.70,51.87 165.54,53.48 162.55,55.59 159.91,58.11 157.66,61.04 155.77,64.38 154.32,67.96 153.28,71.84 152.72,75.97 152.65,80.55 155.06,92.90 158.02,105.38 159.00,112.46 159.01,118.88 158.25,122.86 156.98,126.70 155.28,130.19 153.19,133.24 150.70,135.95 147.92,138.12 144.85,139.68 141.49,140.70 138.10,141.18 134.61,141.11 131.06,140.49 127.65,139.40 124.36,137.81 121.21,135.71 118.36,133.21 115.82,130.22 113.60,126.81 111.77,123.12 109.75,117.11 108.56,109.86 109.07,90.43 109.32,70.95 107.62,63.34 104.95,57.11 102.64,53.31 99.90,49.86 96.85,46.90 93.55,44.43 89.94,42.43 86.24,41.00 82.52,40.22 78.69,40.00 74.93,40.35 71.26,41.32 67.67,42.86 64.30,44.84 61.08,47.31 58.09,50.25 55.37,53.67 51.39,60.64 48.45,68.55 46.81,77.29 46.50,86.54 47.74,97.31 50.55,108.14 55.03,118.78 61.28,129.15 71.94,141.72 84.39,153.94 111.82,177.69 119.27,185.62 125.16,193.39 128.89,200.11 131.42,206.93 132.30,211.29 132.66,215.68 132.50,219.83 131.87,223.19 130.83,226.34 129.37,229.33 127.22,232.55 124.59,235.57 121.67,238.13 118.44,240.17 114.92,241.73 111.29,242.77 107.47,243.27 103.52,243.25 99.50,242.69 92.61,240.28 85.60,237.10 78.16,233.55 70.98,230.85 67.54,230.36 64.27,230.36 61.24,230.92 59.31,231.64 57.46,232.65 55.77,233.87 54.33,235.30 53.18,236.91 52.22,238.76 51.49,240.77 51.06,242.84 51.01,246.24 51.57,249.89 52.65,253.43 55.57,258.83 59.81,264.28 69.08,273.23 78.19,282.54 82.21,289.20 84.82,295.96 85.84,300.45 86.34,305.05 86.32,309.56 85.36,315.77 83.26,322.14 77.41,332.14 71.87,342.13 70.77,346.43 70.30,350.53 70.39,354.56 70.93,358.39 72.01,362.18 73.66,366.18 80.72,376.40 87.94,386.91 90.70,394.03 92.21,401.26 92.61,410.11 91.81,419.10 90.06,426.77 87.17,435.21 77.94,455.33 68.27,476.09 61.67,503.16 56.73,538.13 45.65,639.80 40.00,727.70 40.68,735.71 42.22,741.40 43.80,745.28 45.79,748.91 48.07,752.05 50.32,754.38 52.81,756.31 55.52,757.83 58.81,759.04 62.35,759.78 65.84,760.00 69.00,759.74 72.11,759.00 75.16,757.81 78.52,755.92 81.81,753.45 84.92,750.45 88.41,746.11 91.63,741.00 94.34,735.40 97.30,725.51 99.27,713.48 102.85,651.11 110.76,548.35"
        fill="none"
        stroke="#e94560"
        stroke-width="8.0"
        stroke-linejoin="round"
        stroke-linecap="round"/>
  <!-- Start/finish line -->
  <line x1="90.82" y1="546.82" x2="130.70" y2="549.88"
        stroke="#f5f5f5" stroke-width="9.6"
        stroke-linecap="round"/>
</svg>
