<?xml version="1.0" encoding="utf-8"?>
<svg xmlns="http://www.w3.org/2000/svg"
     width="639.7" height="800.0"
     viewBox="0 0 639.7 800.0">
  <rect width="100%" height="100%" fill="#1a1a2e"/>
  <!-- Track outline -->
  <polyline points="227.58,444.00 215.76,463.87 200.01,486.54 182.55,508.22 163.17,528.48 142.13,547.12 117.85,565.47 92.54,581.37 62.65,599.51 56.33,605.13 51.38,610.84 47.44,616.67 44.34,622.70 42.24,628.28 40.83,633.94 40.05,639.71 40.00,645.75 41.01,653.55 43.03,661.65 46.19,670.33 50.65,679.33 69.08,705.22 89.78,727.61 98.87,735.28 108.31,741.85 118.62,747.68 129.32,752.47 139.60,755.96 149.93,758.41 159.58,759.70 169.37,760.00 180.60,759.21 191.76,757.34 201.65,754.57 210.99,750.97 219.10,747.01 226.80,742.24 234.90,735.94 242.87,728.33 262.92,702.76 289.59,656.83 292.38,651.32 296.13,643.28 305.97,617.10 310.62,594.07 311.49,583.84 311.35,572.87 305.00,532.46 289.17,471.60 288.52,465.83 288.50,458.90 288.85,456.79 289.90,452.77 292.54,446.13 294.02,443.70 296.53,440.38 299.53,437.21 302.90,434.58 306.58,432.40 310.52,430.64 314.63,429.44 318.82,428.89 323.01,428.98 327.08,429.76 331.02,431.13 334.90,433.10 340.62,437.24 342.65,439.35 347.68,446.64 357.10,463.99 360.06,467.68 363.12,470.56 366.14,472.66 369.34,474.53 373.35,476.15 377.72,477.30 382.82,477.90 388.07,477.85 393.27,477.11 398.33,475.68 403.20,473.49 407.73,470.62 411.88,467.02 415.46,462.92 418.08,458.98 420.23,454.45 422.53,447.10 424.38,438.00 433.29,343.02 439.76,300.11 444.56,278.22 449.10,265.72 451.81,260.73 454.94,256.13 458.56,251.77 462.60,247.74 471.94,240.63 480.68,235.93 492.04,231.96 506.21,229.42 521.36,229.07 561.63,229.52 567.61,228.57 572.55,227.06 577.46,224.81 581.67,222.13 585.61,219.22 588.90,215.96 592.29,211.78 595.20,207.13 597.45,202.05 598.99,196.81 599.69,192.12 599.75,187.45 599.15,182.70 597.92,178.03 596.03,173.43 593.52,169.09 590.40,165.09 586.65,161.49 581.75,157.97 576.24,155.11 570.18,153.14 563.52,152.00 554.24,151.57 543.99,152.42 530.57,155.48 515.29,160.47 455.04,185.19 443.15,191.52 433.46,197.92 425.66,204.39 418.86,211.44 412.93,219.11 407.89,227.34 403.88,235.97 400.74,245.22 396.52,268.74 393.30,356.28 391.68,368.29 390.40,373.13 387.52,380.29 385.94,382.87 383.66,385.79 381.00,388.48 378.06,390.75 374.78,392.66 370.49,394.47 366.13,395.76 363.05,396.29 360.00,396.38 356.19,395.96 352.34,395.04 348.63,393.70 345.09,391.91 341.71,389.61 338.60,386.90 335.75,383.79 333.23,380.36 331.00,376.61 329.13,372.63 327.70,368.36 326.67,363.83 326.03,358.35 325.88,352.51 327.19,338.61 332.69,313.26 353.47,230.68 360.50,209.59 368.16,194.38 373.54,186.46 383.08,176.12 390.33,170.23 402.52,162.82 420.35,155.02 467.58,138.97 473.84,135.74 478.91,132.17 485.12,126.65 490.86,120.15 496.19,112.31 500.50,104.08 503.11,97.02 504.77,90.05 505.59,83.71 505.65,77.45 504.94,71.24 503.56,65.31 501.78,60.41 499.49,55.92 496.71,51.89 493.46,48.32 489.74,45.35 485.75,42.99 482.10,41.48 478.28,40.52 473.65,40.00 468.89,40.14 464.20,41.06 459.67,42.66 455.30,45.00 451.71,47.67 448.38,50.58 445.50,53.93 433.50,71.72 429.60,76.01 425.58,79.58 420.97,82.96 416.00,85.87 404.95,90.19 371.74,99.47 361.77,103.84 353.12,108.76 346.27,113.64 339.99,119.20 333.26,126.36 326.98,134.49 320.80,144.29 315.24,155.16 304.95,183.86 295.31,227.04 278.71,304.43 269.06,341.78 255.80,382.26 243.33,413.18 231.47,437.46 227.58,444.00"
        fill="none"
        stroke="#e94560"
        stroke-width="8.0"
        stroke-linejoin="round"
        stroke-linecap="round"/>
  <!-- Start/finish line -->
  <line x1="244.77" y1="454.23" x2="210.39" y2="433.77"
        stroke="#f5f5f5" stroke-width="9.6"
        stroke-linecap="round"/>
</svg>
