<?xml version="1.0" encoding="utf-8"?>
<svg xmlns="http://www.w3.org/2000/svg"
     width="613.4" height="800.0"
     viewBox="0 0 613.4 800.0">
  <rect width="100%" height="100%" fill="#1a1a2e"/>
  <!-- Track outline -->
  <polyline points="528.16,406.58 527.37,413.51 519.81,569.78 510.37,699.58 506.82,713.08 505.01,718.13 502.38,723.35 493.40,735.91 483.41,747.32 479.55,750.50 475.49,752.87 467.58,756.25 458.77,758.78 450.50,759.92 442.28,760.00 434.48,759.06 427.05,757.11 420.24,754.05 414.02,750.01 408.55,745.32 403.78,739.53 398.79,730.36 395.09,720.13 393.39,710.75 392.76,699.95 394.10,671.98 394.34,643.04 391.07,628.16 385.68,615.27 377.57,603.33 368.40,593.26 362.14,587.80 355.37,583.15 344.39,576.63 332.74,571.25 323.85,568.92 314.88,567.62 293.19,566.56 195.74,573.12 178.46,575.81 164.96,579.48 157.13,583.03 150.28,587.80 144.38,593.46 138.75,600.27 134.42,607.41 131.98,613.93 130.64,620.70 130.25,627.46 130.84,634.15 132.41,640.79 134.89,647.03 138.59,653.07 143.28,658.65 148.16,663.26 152.01,666.07 155.99,668.23 160.47,669.94 171.26,672.15 181.61,672.84 185.58,672.51 189.91,671.33 214.12,660.12 241.20,648.01 253.00,644.99 263.20,643.97 270.48,644.46 277.33,646.18 285.00,649.72 292.17,654.53 298.15,659.96 303.19,666.07 307.04,672.39 309.92,679.61 311.69,687.31 312.71,695.91 312.67,703.94 311.61,709.69 309.76,715.07 307.40,720.21 303.07,727.71 297.36,734.72 287.17,743.29 277.29,749.93 271.31,752.66 258.12,756.82 242.14,759.02 223.49,759.27 181.73,757.15 140.32,751.56 122.22,746.34 106.63,739.21 90.30,728.73 75.66,716.05 64.21,702.64 54.88,687.92 47.67,671.86 42.76,654.94 40.08,637.04 40.00,619.43 42.48,605.33 47.28,591.47 56.37,573.32 68.02,556.20 80.07,543.44 93.80,532.68 110.41,523.02 128.71,515.60 148.35,510.79 171.53,508.67 292.76,519.18 319.68,517.15 343.21,511.97 366.55,503.24 388.08,491.42 406.30,477.23 421.93,460.93 434.01,444.21 443.69,425.91 451.25,403.36 456.84,380.66 457.94,371.52 458.06,362.72 457.15,346.08 455.11,329.94 453.26,322.19 450.78,315.26 447.31,307.80 442.79,300.30 435.11,290.07 426.18,280.77 418.39,275.27 409.57,271.03 394.38,266.63 380.37,264.02 372.77,263.77 353.96,265.69 261.35,288.32 207.70,304.91 184.44,313.27 164.96,322.52 158.94,327.05 154.18,331.86 150.28,336.91 147.49,341.64 145.36,346.61 144.06,351.75 143.55,357.25 143.87,362.96 145.12,368.59 147.88,374.99 151.82,381.27 156.38,386.57 161.06,390.28 166.34,393.21 171.85,395.33 177.95,396.68 184.33,397.21 190.07,397.04 194.83,396.23 200.27,394.23 238.95,373.15 279.69,350.53 296.50,344.13 307.08,341.72 317.91,340.42 327.35,340.54 336.36,341.80 344.20,344.13 351.48,347.43 357.93,351.43 363.68,356.24 368.48,361.62 372.38,367.57 374.46,371.69 376.08,376.01 377.14,380.70 377.45,387.50 376.86,394.88 375.76,401.32 374.27,406.05 372.06,410.54 366.87,419.39 360.29,428.23 353.13,434.75 345.97,439.93 337.55,444.54 322.24,450.45 302.28,454.98 218.49,466.06 136.39,470.22 125.05,468.96 115.57,466.35 104.47,461.25 99.39,458.32 94.51,454.77 88.76,449.27 83.29,442.38 76.84,431.09 71.72,418.57 69.05,407.24 67.83,395.54 69.24,368.34 73.81,341.07 78.30,324.40 84.44,309.72 90.18,300.18 96.16,291.82 98.68,288.81 101.91,285.83 123.99,270.50 148.08,252.40 156.93,241.39 162.52,232.10 163.70,229.65 164.61,226.80 170.63,196.39 177.91,162.30 181.37,153.01 185.11,145.47 194.09,130.95 205.81,116.93 219.51,104.62 235.14,94.26 252.22,86.15 279.89,78.65 290.47,77.55 341.64,80.44 422.87,87.49 438.62,85.21 451.68,81.05 461.56,76.04 471.56,69.68 490.73,56.10 510.21,44.08 517.45,41.59 524.22,40.29 530.64,40.00 535.95,40.65 541.03,42.08 545.75,44.08 551.89,47.91 557.36,52.76 562.48,58.71 566.77,65.48 570.11,72.86 572.39,81.13 573.38,93.73 572.95,106.90 569.72,128.30 542.68,278.41 528.16,406.58"
        fill="none"
        stroke="#e94560"
        stroke-width="8.0"
        stroke-linejoin="round"
        stroke-linecap="round"/>
  <!-- Start/finish line -->
  <line x1="548.03" y1="408.84" x2="508.28" y2="404.33"
        stroke="#f5f5f5" stroke-width="9.6"
        stroke-linecap="round"/>
</svg>
