<?xml version="1.0" encoding="utf-8"?>
<svg xmlns="http://www.w3.org/2000/svg"
     width="800.0" height="726.7"
     viewBox="0 0 800.0 726.7">
  <rect width="100%" height="100%" fill="#1a1a2e"/>
  <!-- Track outline -->
  <polyline points="671.35,238.89 691.72,297.13 737.09,425.90 756.02,482.85 758.83,495.61 760.00,508.39 759.56,518.00 757.79,527.43 753.70,539.57 747.93,551.42 738.55,565.65 710.96,602.19 707.63,605.74 704.68,608.24 701.22,610.56 697.74,612.36 694.93,613.42 692.16,614.12 689.32,614.55 686.47,614.67 683.72,614.51 680.90,613.98 677.36,612.80 673.78,611.11 670.32,608.91 666.99,606.26 663.77,603.17 660.77,599.68 658.14,595.90 655.65,591.54 649.64,577.11 630.66,528.33 612.40,491.97 606.77,483.67 601.18,476.94 595.51,471.22 589.54,466.26 582.95,461.70 575.85,457.71 567.16,453.71 557.46,450.29 526.69,444.19 471.67,434.80 442.04,430.47 438.08,430.67 434.79,431.39 431.43,432.60 428.23,434.31 425.28,436.40 422.60,438.94 420.40,441.78 418.62,444.99 417.46,448.25 416.74,451.80 416.51,456.22 416.86,460.80 417.87,465.37 419.57,469.99 423.01,476.52 427.65,483.25 445.94,501.99 519.30,567.72 556.53,604.40 566.80,615.48 569.59,619.26 571.89,623.13 573.81,627.33 575.32,631.80 576.38,636.62 576.98,641.42 576.89,648.87 575.59,656.16 573.15,662.99 571.53,666.18 569.67,669.14 567.59,671.86 565.23,674.38 561.83,677.30 558.08,679.94 553.99,682.17 549.70,683.95 545.08,685.35 540.31,686.28 535.32,686.73 530.25,686.71 519.93,685.24 509.51,681.99 454.27,657.34 343.07,609.56 333.60,604.08 327.24,598.84 319.78,590.25 315.23,582.94 311.82,575.12 309.65,566.97 308.70,558.54 308.97,550.05 310.54,541.78 313.41,533.84 319.01,523.62 336.07,498.45 339.30,491.92 341.59,485.62 343.14,479.21 343.96,472.49 343.93,464.41 343.02,456.40 341.40,449.70 339.11,443.45 336.15,437.37 332.52,431.65 327.15,425.16 321.15,419.30 315.21,414.60 308.96,410.61 301.93,406.95 294.56,403.94 286.59,401.50 278.37,399.79 270.02,398.78 260.89,398.55 227.86,402.01 189.25,408.17 169.15,410.11 153.22,410.09 137.49,408.31 125.80,405.65 114.34,401.79 99.60,394.88 82.39,384.45 56.53,366.17 48.08,358.66 46.01,356.18 44.31,353.62 42.83,350.89 41.63,347.98 40.77,345.03 40.21,341.96 40.00,338.84 40.11,335.69 40.52,332.51 41.28,329.29 42.77,325.13 44.72,321.02 47.20,317.04 50.04,313.35 56.97,306.42 67.66,298.71 77.68,293.66 88.85,290.14 100.90,288.42 110.09,288.57 118.99,290.13 127.39,293.01 135.31,297.13 145.22,304.41 169.35,327.30 176.96,332.64 184.39,336.80 192.74,340.64 201.38,343.73 219.78,347.72 254.92,349.41 360.69,346.42 404.54,346.80 420.43,348.20 435.87,351.30 447.29,355.10 461.83,361.95 501.48,384.83 505.40,386.25 508.64,386.84 512.10,386.98 515.52,386.58 518.82,385.62 522.02,384.12 525.07,382.13 527.91,379.65 530.43,376.78 532.64,373.49 534.38,369.97 535.73,365.99 536.76,360.72 537.18,355.07 536.83,349.16 535.73,343.11 533.55,336.06 530.19,328.27 508.55,291.26 489.26,266.98 461.93,241.76 424.02,209.50 417.18,201.88 413.27,195.53 410.48,188.63 408.82,181.22 408.42,173.59 408.70,169.80 409.34,165.92 412.47,155.67 417.49,145.56 425.84,133.21 438.16,118.70 468.19,84.72 490.63,59.44 499.21,51.95 506.39,47.49 514.34,44.05 525.99,41.03 535.31,40.00 548.21,40.45 561.25,42.93 574.00,47.23 583.05,51.68 591.47,57.25 599.16,63.95 606.08,71.74 614.07,83.54 622.43,100.00 632.41,125.05 667.94,229.14 671.35,238.89"
        fill="none"
        stroke="#e94560"
        stroke-width="8.0"
        stroke-linejoin="round"
        stroke-linecap="round"/>
  <!-- Start/finish line -->
  <line x1="690.23" y1="232.29" x2="652.47" y2="245.50"
        stroke="#f5f5f5" stroke-width="9.6"
        stroke-linecap="round"/>
</svg>
