<?xml version="1.0" encoding="utf-8"?>
<svg xmlns="http://www.w3.org/2000/svg"
     width="800.0" height="389.1"
     viewBox="0 0 800.0 389.1">
  <rect width="100%" height="100%" fill="#1a1a2e"/>
  <!-- Track outline -->
  <polyline points="256.75,332.90 297.43,325.46 385.68,303.92 394.94,299.68 401.96,294.93 408.42,288.94 413.64,282.32 415.60,279.05 417.11,275.74 418.22,271.81 418.74,259.73 418.71,246.90 419.66,238.20 421.20,230.91 422.75,227.25 424.68,224.23 427.32,221.29 430.06,218.88 431.63,217.63 433.43,216.68 436.81,215.67 441.07,214.95 445.64,214.77 454.39,216.08 465.07,219.35 500.89,233.81 533.73,250.02 539.19,254.14 542.89,258.05 545.34,261.42 547.12,264.61 547.88,266.34 548.37,268.19 548.80,272.06 548.81,276.05 548.56,278.33 548.01,280.35 546.94,282.42 545.61,284.29 544.30,285.88 542.85,287.26 541.33,288.41 539.72,289.33 538.21,289.93 536.21,290.42 521.55,291.86 504.31,294.02 495.78,296.58 488.59,299.91 483.34,303.45 479.05,307.40 476.51,310.52 474.61,313.85 473.32,317.33 472.64,321.01 472.56,323.54 472.77,326.13 473.26,328.62 474.75,332.31 476.62,335.45 477.86,336.95 479.17,338.13 480.68,339.32 482.31,340.37 483.98,341.30 486.04,342.12 492.71,343.81 502.15,344.73 566.10,334.92 711.26,309.31 734.69,306.26 739.98,304.47 744.66,301.90 748.53,299.04 752.34,295.57 755.45,291.84 757.32,288.59 758.70,285.14 759.60,281.54 760.00,277.63 759.89,273.54 759.32,269.53 758.27,265.39 756.72,261.32 754.64,257.43 751.38,253.01 747.38,248.87 743.17,245.29 736.84,241.32 730.05,238.50 722.76,236.51 714.24,235.79 693.20,239.04 671.04,243.61 646.93,246.38 639.17,245.99 632.04,244.59 625.27,242.12 618.99,238.50 613.57,233.69 608.91,227.89 605.24,221.45 602.48,214.19 600.59,205.04 599.94,195.60 600.56,187.70 602.27,179.80 605.92,169.33 610.80,158.96 616.65,149.27 623.05,140.69 628.44,134.75 634.06,129.85 640.06,125.92 646.03,122.94 650.45,121.36 654.76,120.43 659.39,120.08 663.67,120.18 665.95,120.41 668.19,120.90 672.26,122.24 676.51,124.17 680.06,126.29 683.50,129.23 688.51,135.90 693.40,143.80 697.67,151.96 702.01,159.43 706.62,164.18 710.90,167.52 712.60,168.55 714.16,169.26 715.84,169.88 717.75,170.35 721.74,170.68 725.85,170.62 728.22,170.33 730.38,169.78 732.44,168.98 734.40,167.97 736.19,166.84 737.89,165.54 739.43,164.10 740.85,162.50 742.09,160.91 743.28,158.82 745.85,152.19 748.10,142.81 750.14,116.48 749.94,90.40 748.95,82.56 747.02,75.94 742.95,67.65 737.54,59.93 730.70,52.98 723.18,47.38 716.42,43.79 709.35,41.42 702.12,40.00 692.96,40.02 646.25,49.75 592.00,64.19 530.65,81.86 526.59,83.67 523.60,85.62 520.40,88.51 517.67,91.59 516.24,93.50 515.13,95.42 514.33,97.49 513.77,99.61 513.42,101.63 513.31,103.65 513.44,105.64 513.79,107.59 514.37,109.51 515.18,111.38 516.09,113.11 517.50,115.04 528.23,124.19 539.51,134.17 542.00,137.94 543.57,141.31 544.49,143.37 545.01,145.57 545.03,148.28 544.68,151.33 544.09,154.27 542.97,157.91 541.25,161.43 537.78,166.26 533.66,170.64 530.06,173.48 526.34,175.77 522.65,177.72 518.87,179.22 515.18,180.09 511.19,180.48 504.77,180.33 497.87,179.22 491.08,176.90 483.55,173.17 465.34,160.73 447.03,148.45 439.41,145.01 432.20,143.04 422.67,142.01 413.11,142.42 405.46,144.00 398.23,146.78 391.24,150.87 384.46,156.35 376.52,164.51 368.71,175.41 356.90,201.93 345.88,229.64 339.48,243.54 333.13,254.73 326.96,261.83 321.48,266.67 319.86,267.78 318.26,268.52 314.57,269.67 310.72,270.43 308.48,270.60 306.39,270.51 304.28,270.10 302.22,269.44 300.32,268.66 298.51,267.69 296.83,266.56 295.25,265.25 293.77,263.79 292.43,262.16 291.17,260.47 290.06,258.38 288.51,253.19 287.53,247.45 287.37,243.75 287.91,239.68 293.09,226.80 298.67,212.48 300.10,202.88 299.99,194.15 299.24,189.79 298.00,185.76 296.32,181.98 294.03,178.19 291.25,174.67 288.13,171.55 284.49,168.69 280.46,166.30 276.24,164.39 269.35,162.48 261.92,161.76 252.25,162.42 241.87,164.64 228.35,169.27 215.11,175.56 204.99,182.06 196.25,189.42 190.31,196.07 185.48,203.37 181.74,210.92 178.82,220.18 175.86,246.18 173.76,272.71 172.29,283.51 170.31,291.80 168.12,295.85 165.76,298.80 164.30,300.28 162.83,301.43 161.20,302.54 159.47,303.49 157.60,304.31 155.67,304.97 153.73,305.44 151.78,305.71 149.88,305.73 148.01,305.50 146.17,305.03 144.37,304.33 142.56,303.40 140.81,302.23 139.07,301.00 137.39,299.17 134.59,292.91 131.84,284.50 128.23,270.20 124.06,256.24 120.23,249.12 115.52,243.19 107.98,236.43 99.54,231.02 94.57,228.77 89.53,227.15 84.49,226.20 76.99,226.00 69.81,227.01 64.31,228.67 59.26,231.12 54.58,234.35 50.38,238.34 46.80,242.84 43.85,248.19 41.32,256.18 40.00,264.65 40.11,271.25 41.36,277.81 44.50,286.27 49.24,294.89 57.61,306.22 68.21,317.02 83.68,328.21 100.62,337.33 116.15,343.29 132.24,347.10 149.79,349.09 170.61,348.62 256.75,332.90"
        fill="none"
        stroke="#e94560"
        stroke-width="8.0"
        stroke-linejoin="round"
        stroke-linecap="round"/>
  <!-- Start/finish line -->
  <line x1="253.16" y1="313.22" x2="260.34" y2="352.57"
        stroke="#f5f5f5" stroke-width="9.6"
        stroke-linecap="round"/>
</svg>
