<?xml version="1.0" encoding="utf-8"?>
<svg xmlns="http://www.w3.org/2000/svg"
     width="800.0" height="500.2"
     viewBox="0 0 800.0 500.2">
  <rect width="100%" height="100%" fill="#1a1a2e"/>
  <!-- Track outline -->
  <polyline points="316.25,109.50 418.93,50.66 434.18,43.78 441.53,41.32 449.07,40.00 454.84,40.06 460.77,40.87 466.25,42.65 471.07,45.52 475.47,49.34 479.30,53.63 483.96,61.00 486.60,70.56 491.05,85.33 503.96,130.27 507.47,137.47 511.64,143.16 515.74,147.26 520.52,150.95 525.66,153.69 531.27,155.24 537.26,155.83 543.03,155.54 548.15,154.37 553.11,152.43 557.80,150.01 564.13,145.55 570.55,139.74 582.56,126.52 595.03,113.70 600.20,109.95 605.21,107.10 610.42,105.13 616.03,104.04 621.83,103.74 627.51,104.39 635.81,107.49 643.57,111.92 649.46,115.67 655.86,120.80 704.41,171.08 737.23,209.04 747.88,223.25 751.91,229.78 755.27,236.66 758.26,245.03 759.93,253.79 760.00,259.60 759.30,265.45 757.68,270.88 754.97,275.72 751.33,280.18 747.16,283.96 739.76,288.19 731.55,291.26 723.63,293.49 713.80,295.08 629.11,298.56 492.86,298.95 476.98,297.21 469.54,295.62 462.14,293.33 453.33,289.58 444.99,284.74 438.47,279.24 432.65,272.27 425.05,257.47 418.23,242.38 414.36,235.18 410.26,229.04 405.07,223.45 399.15,218.73 392.50,215.11 385.36,212.56 377.80,211.17 370.08,210.91 362.27,211.82 354.55,213.72 339.57,220.25 324.62,228.88 207.66,323.12 195.61,335.98 185.31,349.81 177.13,365.22 171.10,381.66 162.94,413.16 156.15,431.00 151.77,438.65 146.53,445.50 142.63,449.35 138.37,452.77 133.80,455.58 129.00,457.62 123.92,459.04 118.75,459.91 110.85,460.20 102.92,459.33 95.08,457.43 87.53,454.45 80.22,450.38 73.45,445.37 67.31,439.40 61.77,432.71 56.69,425.50 52.22,417.85 48.32,409.58 45.17,400.95 41.18,382.40 40.00,363.12 41.76,343.76 43.64,334.27 46.35,324.99 50.11,316.08 54.74,307.55 59.80,299.86 66.64,291.78 114.53,251.72 195.54,187.23 301.11,118.15 316.25,109.50"
        fill="none"
        stroke="#e94560"
        stroke-width="8.0"
        stroke-linejoin="round"
        stroke-linecap="round"/>
  <!-- Start/finish line -->
  <line x1="306.31" y1="92.14" x2="326.19" y2="126.85"
        stroke="#f5f5f5" stroke-width="9.6"
        stroke-linecap="round"/>
</svg>
