<?xml version="1.0" encoding="utf-8"?>
<svg xmlns="http://www.w3.org/2000/svg"
     width="696.4" height="800.0"
     viewBox="0 0 696.4 800.0">
  <rect width="100%" height="100%" fill="#1a1a2e"/>
  <!-- Track outline -->
  <polyline points="382.22,225.58 287.52,104.89 261.55,79.46 240.32,62.29 231.67,56.76 223.43,52.78 199.38,44.15 186.97,41.47 174.46,40.00 161.64,40.08 149.23,41.38 130.15,45.91 111.84,53.49 95.26,63.92 79.55,77.16 65.72,92.78 54.39,109.54 46.26,127.39 43.41,136.60 41.39,146.11 40.00,165.84 41.29,186.20 45.70,206.48 52.62,224.95 64.33,246.44 70.58,255.49 77.53,263.75 86.05,271.91 95.33,278.95 104.82,284.27 114.69,287.96 121.15,289.47 127.72,290.22 134.29,289.89 141.31,288.29 148.33,285.49 154.72,281.59 160.00,276.69 164.70,270.66 169.49,263.58 180.44,242.51 191.35,221.98 197.99,213.56 205.11,207.15 211.40,203.09 218.32,199.73 225.34,197.43 232.05,196.34 238.86,196.17 245.74,196.72 256.90,199.11 267.74,202.92 276.95,207.32 285.71,212.64 302.77,226.38 332.45,259.47 437.23,412.42 448.98,431.86 457.67,449.58 461.18,460.43 463.33,471.61 463.65,478.36 463.26,485.02 461.98,491.43 459.48,498.17 455.93,504.63 451.66,510.16 447.76,513.72 443.32,516.69 438.55,519.12 433.76,520.84 427.05,522.05 420.10,522.09 413.36,520.96 406.89,518.62 400.67,515.14 394.94,510.95 388.20,504.50 381.70,495.58 366.41,464.33 351.39,432.65 345.17,423.27 338.88,415.81 330.33,407.60 320.88,400.65 310.87,395.50 300.37,392.19 293.11,391.22 285.71,391.18 278.55,392.06 271.91,393.78 265.45,396.33 259.47,399.69 254.22,403.71 249.43,408.44 245.08,413.80 239.28,423.35 234.72,434.00 231.63,445.64 229.65,457.58 227.77,478.53 228.71,501.48 233.68,525.95 249.36,564.66 260.65,584.09 290.57,621.59 309.03,638.09 460.94,739.22 479.91,748.52 498.40,755.22 510.36,758.03 522.80,759.75 535.13,760.00 547.47,758.95 560.09,756.56 572.11,753.09 581.11,749.65 589.80,745.30 600.58,738.59 610.86,730.97 624.80,717.23 636.93,701.23 646.31,683.92 652.32,664.61 655.83,644.38 656.36,623.31 653.78,601.82 651.59,591.22 648.12,580.28 639.36,563.15 629.14,546.98 615.80,530.22 403.56,252.77 382.22,225.58"
        fill="none"
        stroke="#e94560"
        stroke-width="8.0"
        stroke-linejoin="round"
        stroke-linecap="round"/>
  <!-- Start/finish line -->
  <line x1="366.48" y1="237.93" x2="397.95" y2="213.24"
        stroke="#f5f5f5" stroke-width="9.6"
        stroke-linecap="round"/>
</svg>
