<?xml version="1.0" encoding="utf-8"?>
<svg xmlns="http://www.w3.org/2000/svg"
     width="800.0" height="645.5"
     viewBox="0 0 800.0 645.5">
  <rect width="100%" height="100%" fill="#1a1a2e"/>
  <!-- Track outline -->
  <polyline points="539.45,248.74 522.76,231.19 376.80,100.45 336.91,73.04 302.32,54.39 280.41,45.96 260.69,41.38 245.94,40.00 232.18,40.89 223.85,42.51 215.78,45.03 208.24,48.55 201.79,52.73 195.80,57.76 190.64,63.64 186.59,69.92 183.25,76.97 180.91,84.35 179.68,91.89 179.37,99.76 179.99,107.38 181.68,114.80 184.36,121.93 187.76,128.42 192.29,134.42 197.66,139.65 203.45,144.11 213.27,149.54 224.51,153.27 242.89,156.03 264.00,157.00 326.89,155.09 346.30,157.61 364.10,162.03 381.11,167.95 396.98,175.81 410.02,184.89 421.17,195.80 426.42,203.01 430.88,210.80 433.93,218.50 435.16,224.17 435.55,229.77 435.18,235.16 434.04,240.27 432.16,245.17 429.53,249.72 424.94,254.99 419.18,259.65 412.95,263.50 405.45,266.82 397.40,269.17 389.61,270.39 383.68,270.55 377.97,269.82 371.15,268.04 343.41,254.17 311.14,238.49 280.52,230.86 248.51,227.17 206.93,226.57 167.61,230.17 145.89,235.32 127.23,242.62 113.51,250.12 100.89,259.89 87.14,274.44 74.56,292.36 63.11,315.03 53.75,341.46 45.22,381.03 40.51,419.38 40.00,437.34 41.60,453.07 45.22,467.30 51.30,480.88 65.57,500.38 82.97,517.73 99.18,529.48 116.53,538.24 138.05,545.50 159.45,549.31 175.20,549.15 189.12,546.71 195.17,544.89 200.65,542.54 205.53,539.46 209.41,536.09 212.87,532.16 215.58,527.78 217.37,523.57 218.57,518.98 219.03,514.08 218.37,507.39 216.55,500.17 213.86,492.84 205.25,477.47 194.29,461.98 180.82,445.85 168.64,430.20 162.96,419.38 159.28,408.35 157.94,400.73 157.39,392.90 157.74,385.32 159.02,378.31 161.13,371.58 163.90,365.54 167.30,360.47 171.35,356.13 176.20,351.96 190.72,342.59 205.70,335.42 212.89,333.15 219.60,332.17 226.88,332.13 234.84,333.47 249.82,338.74 264.86,346.44 274.36,353.38 282.38,361.73 288.77,371.34 293.88,382.61 297.96,396.63 300.78,414.88 301.70,490.16 303.41,561.75 305.29,570.19 307.55,576.27 310.51,581.90 315.25,588.75 320.93,595.04 326.35,599.86 329.69,602.09 332.94,603.59 336.54,604.61 341.85,605.42 347.81,605.46 355.26,604.65 398.15,592.93 443.46,577.65 461.04,571.69 474.56,565.52 479.19,562.44 483.04,559.12 486.09,555.19 488.15,550.97 489.54,546.23 490.17,541.12 489.69,533.86 488.03,525.96 485.69,518.74 482.92,512.78 479.56,507.39 475.70,502.69 471.37,498.67 466.49,495.47 460.52,492.35 436.35,484.89 411.30,477.15 400.11,471.11 390.67,463.93 381.97,454.93 374.38,444.63 368.33,433.93 363.67,422.42 360.85,410.70 359.82,398.82 360.34,391.28 361.71,383.86 363.85,377.09 366.79,371.17 370.47,365.86 374.55,361.32 379.14,357.43 384.19,354.31 389.47,351.96 395.29,350.30 401.40,349.53 407.85,349.69 416.41,351.15 425.48,353.99 434.64,358.08 449.08,367.44 465.63,381.31 567.50,483.11 604.00,510.55 638.41,531.67 666.98,546.11 692.23,555.75 704.87,558.47 716.11,559.08 726.44,558.23 736.14,555.75 741.68,553.44 746.90,550.52 751.44,546.92 753.95,544.28 756.29,541.40 758.17,538.24 759.43,534.71 760.00,529.04 759.43,522.67 757.97,515.94 751.98,500.38 740.71,481.28 577.32,289.85 547.95,257.66 539.45,248.74"
        fill="none"
        stroke="#e94560"
        stroke-width="8.0"
        stroke-linejoin="round"
        stroke-linecap="round"/>
  <!-- Start/finish line -->
  <line x1="524.96" y1="262.53" x2="553.94" y2="234.95"
        stroke="#f5f5f5" stroke-width="9.6"
        stroke-linecap="round"/>
</svg>
