<?xml version="1.0" encoding="utf-8"?>
<svg xmlns="http://www.w3.org/2000/svg"
     width="753.9" height="800.0"
     viewBox="0 0 753.9 800.0">
  <rect width="100%" height="100%" fill="#1a1a2e"/>
  <!-- Track outline -->
  <polyline points="156.92,308.46 158.99,304.88 163.77,296.72 210.85,215.42 250.37,152.61 318.43,54.75 322.80,49.49 326.25,46.13 329.31,43.76 332.37,42.02 335.59,40.77 338.88,40.10 342.12,40.00 345.33,40.46 348.38,41.46 351.30,43.01 354.04,45.07 356.58,47.66 358.92,50.96 360.77,54.18 361.86,56.68 364.40,64.97 366.48,81.25 370.30,120.12 371.48,137.46 370.19,150.91 366.57,164.23 360.70,176.87 352.65,188.42 342.62,198.62 330.85,207.24 312.91,216.11 284.49,229.43 275.61,235.53 267.44,242.70 258.20,252.76 249.82,264.02 244.21,273.58 239.56,284.03 235.23,297.54 232.16,311.66 230.94,323.31 230.88,334.78 234.03,357.83 240.66,380.64 247.10,397.57 266.88,436.07 285.39,461.88 308.13,484.88 320.37,494.60 334.86,503.96 412.71,540.72 460.92,561.65 465.74,562.72 469.68,562.95 473.81,562.73 477.81,561.96 481.49,560.68 484.95,558.86 487.96,556.61 490.65,553.84 492.86,550.78 494.68,547.12 496.18,542.11 497.24,536.22 497.79,526.73 498.43,517.37 499.75,511.96 501.40,507.37 502.89,504.07 504.67,501.00 507.74,496.57 511.33,492.30 515.49,488.32 519.99,484.82 525.11,481.59 530.51,478.86 536.41,476.59 542.49,474.87 555.31,472.98 568.68,473.30 582.26,475.90 595.67,480.68 608.59,487.51 620.73,496.21 635.49,510.42 648.62,527.09 662.87,550.62 700.88,629.36 709.77,652.20 713.40,668.57 713.85,674.52 713.73,680.21 713.06,685.83 711.85,691.25 710.05,696.56 707.77,701.55 701.52,710.93 698.99,713.77 690.30,721.28 685.24,724.50 679.93,727.25 668.07,731.58 650.74,734.74 477.21,749.14 366.23,759.79 333.76,760.00 307.48,757.61 281.27,752.45 261.99,746.51 243.11,739.09 212.50,723.81 104.72,657.40 88.43,645.32 78.77,636.56 70.13,627.15 62.51,617.11 55.92,606.51 50.42,595.35 46.06,583.76 42.82,571.82 40.77,559.62 40.00,547.22 40.51,534.72 43.42,516.16 48.68,498.05 58.86,474.76 75.24,446.91 113.27,384.18 156.92,308.46"
        fill="none"
        stroke="#e94560"
        stroke-width="8.0"
        stroke-linejoin="round"
        stroke-linecap="round"/>
  <!-- Start/finish line -->
  <line x1="139.59" y1="298.47" x2="174.25" y2="318.45"
        stroke="#f5f5f5" stroke-width="9.6"
        stroke-linecap="round"/>
</svg>
