<?xml version="1.0" encoding="utf-8"?>
<svg xmlns="http://www.w3.org/2000/svg"
     width="800.0" height="455.5"
     viewBox="0 0 800.0 455.5">
  <rect width="100%" height="100%" fill="#1a1a2e"/>
  <!-- Track outline -->
  <polyline points="750.27,241.62 752.87,248.21 757.01,265.04 759.56,288.01 760.00,305.58 758.41,322.49 754.58,340.09 748.70,353.52 742.17,364.16 735.33,372.90 727.11,380.05 712.99,388.88 698.32,395.24 657.94,404.83 639.95,408.14 614.32,411.03 597.35,412.92 533.43,415.52 508.22,415.24 481.69,412.24 460.54,406.70 441.71,397.84 426.44,387.80 408.67,374.40 357.77,336.78 217.04,229.57 107.77,168.02 78.92,151.67 63.33,140.19 53.93,130.57 50.19,125.59 46.93,120.16 43.68,113.01 41.28,105.68 40.27,100.14 40.00,94.76 40.31,89.59 41.34,84.32 43.62,77.68 46.74,71.37 49.83,66.98 53.39,63.14 57.49,59.60 62.22,56.46 69.04,53.01 76.28,50.30 82.26,48.91 88.23,48.15 94.46,47.81 101.01,48.06 118.38,51.29 130.82,56.80 146.41,64.84 175.79,81.13 203.72,97.39 230.02,120.67 242.65,133.85 254.58,148.08 287.43,195.74 326.22,252.20 330.69,257.66 336.47,262.41 345.63,268.35 355.95,273.30 363.86,276.39 368.96,277.29 372.94,277.21 376.49,276.24 381.37,274.04 385.36,271.38 390.39,267.05 396.31,259.44 400.66,252.54 404.59,244.93 409.76,233.93 418.90,204.85 422.46,190.48 424.87,176.00 426.35,164.40 426.06,151.90 425.51,140.08 423.07,122.17 419.36,103.25 419.47,88.85 421.10,75.98 422.96,68.46 425.66,61.19 429.16,55.16 433.42,49.96 436.56,47.16 439.97,44.72 443.57,42.77 447.21,41.39 451.00,40.42 454.81,40.00 458.63,40.08 462.51,40.68 466.25,41.73 471.84,44.27 477.05,47.78 482.01,52.47 486.25,57.71 489.14,62.40 491.42,67.32 493.34,72.78 494.79,78.47 496.32,90.60 496.48,103.47 494.35,121.41 487.03,149.35 450.29,280.12 445.52,303.77 444.81,319.04 444.55,331.06 445.85,337.17 447.88,342.94 451.37,348.63 455.43,352.45 460.52,355.64 464.91,357.06 469.51,357.42 473.80,357.37 478.30,356.80 482.82,355.59 487.99,353.04 492.42,349.73 496.23,346.03 499.43,341.67 502.63,335.93 505.33,329.90 508.18,322.72 514.20,306.37 519.46,286.34 522.13,263.20 522.80,237.92 518.66,166.13 519.18,148.36 521.42,125.56 524.27,110.38 528.33,96.94 533.58,85.26 536.63,80.31 540.04,75.75 543.50,71.85 547.55,68.34 551.89,65.57 556.80,63.08 561.66,61.44 565.55,60.93 569.40,61.04 573.14,61.58 576.83,62.52 580.42,63.87 583.81,65.66 588.65,69.25 592.87,73.69 596.53,79.15 599.38,85.23 601.30,91.62 602.48,99.23 602.75,140.27 611.07,203.49 610.59,219.36 606.66,240.86 601.37,256.84 580.78,301.47 578.81,307.53 577.72,312.87 576.99,319.72 576.74,325.69 577.14,331.68 578.21,336.95 579.02,340.88 580.65,345.12 582.68,348.49 585.99,352.45 589.94,355.76 594.86,358.13 599.30,359.29 603.21,359.57 608.29,359.63 614.21,358.50 621.39,355.73 627.33,351.97 632.16,348.29 637.25,343.25 641.37,338.11 648.19,326.62 653.90,315.36 658.36,302.75 664.47,270.22 665.01,255.23 658.99,207.74 642.42,144.80 640.41,131.73 640.28,119.85 640.91,114.62 642.19,109.47 644.55,103.61 647.84,98.21 650.39,95.36 653.28,92.87 656.39,90.83 659.64,89.27 663.09,88.17 666.60,87.55 670.26,87.46 674.03,87.89 677.71,88.71 683.38,90.80 688.76,93.86 693.95,98.16 698.49,103.08 701.67,107.55 704.33,112.27 708.13,120.28 710.56,130.88 713.30,143.07 716.98,157.22 750.27,241.62"
        fill="none"
        stroke="#e94560"
        stroke-width="8.0"
        stroke-linejoin="round"
        stroke-linecap="round"/>
  <!-- Start/finish line -->
  <line x1="768.88" y1="234.29" x2="731.67" y2="248.96"
        stroke="#f5f5f5" stroke-width="9.6"
        stroke-linecap="round"/>
</svg>
