<?xml version="1.0" encoding="utf-8"?>
<svg xmlns="http://www.w3.org/2000/svg"
     width="399.9" height="800.0"
     viewBox="0 0 399.9 800.0">
  <rect width="100%" height="100%" fill="#1a1a2e"/>
  <!-- Track outline -->
  <polyline points="40.11,405.78 40.00,413.52 40.69,572.11 49.03,630.75 54.12,645.32 69.46,677.32 80.09,693.29 89.67,704.83 101.55,716.53 122.26,731.50 143.86,744.10 156.67,749.90 169.41,754.00 186.66,757.83 204.24,759.93 218.50,760.00 233.04,758.07 254.55,751.70 274.90,743.06 285.42,737.03 295.17,729.66 310.48,715.59 324.57,699.89 331.96,688.92 338.08,677.36 344.92,662.75 350.79,645.78 356.22,619.95 359.87,584.64 359.48,195.75 355.03,163.35 348.71,139.98 342.35,124.68 334.43,111.28 323.66,96.67 310.12,82.91 285.34,65.07 257.65,50.63 233.81,43.27 209.72,40.00 183.56,40.63 158.64,44.57 141.14,49.77 125.44,56.37 113.09,62.30 101.63,70.00 88.20,84.44 77.16,99.24 70.23,110.98 58.08,141.08 47.28,173.42 43.93,193.89 42.80,210.62 40.11,405.78"
        fill="none"
        stroke="#e94560"
        stroke-width="8.0"
        stroke-linejoin="round"
        stroke-linecap="round"/>
  <!-- Start/finish line -->
  <line x1="60.11" y1="406.06" x2="20.11" y2="405.51"
        stroke="#f5f5f5" stroke-width="9.6"
        stroke-linecap="round"/>
</svg>
