<?xml version="1.0" encoding="utf-8"?>
<svg xmlns="http://www.w3.org/2000/svg"
     width="800.0" height="687.4"
     viewBox="0 0 800.0 687.4">
  <rect width="100%" height="100%" fill="#1a1a2e"/>
  <!-- Track outline -->
  <polyline points="674.33,427.59 461.28,598.47 416.44,628.04 398.52,636.40 380.69,642.22 360.53,646.17 339.95,647.44 319.09,645.73 298.10,641.32 278.27,634.95 254.80,624.46 161.70,574.11 76.47,521.18 65.57,511.82 57.82,502.75 50.96,492.83 45.43,481.75 42.17,470.52 40.30,460.23 40.00,456.69 40.14,453.18 41.31,444.90 43.43,436.17 46.44,428.60 50.43,421.77 57.78,413.12 66.44,405.73 75.74,400.40 87.57,395.59 196.16,358.14 225.93,348.29 241.00,346.87 255.38,347.58 266.25,349.71 275.89,353.29 282.07,356.87 287.62,361.53 293.17,367.39 297.87,374.59 300.64,382.31 302.28,390.03 302.55,394.06 302.35,397.83 301.99,401.48 301.01,405.66 290.47,427.07 279.60,451.69 277.84,463.55 277.89,474.33 279.11,482.27 281.42,489.55 286.22,498.72 292.34,506.78 297.49,511.82 303.14,515.99 309.04,519.46 315.74,522.41 322.76,524.46 329.87,525.65 337.25,526.06 344.72,525.54 352.11,524.13 362.91,520.25 373.22,514.39 381.98,507.30 389.79,498.54 395.62,489.29 400.20,478.81 402.65,468.55 404.24,457.77 406.12,436.43 408.32,428.11 410.91,421.29 412.63,417.93 414.43,415.28 416.67,412.60 419.12,410.28 421.94,408.12 424.95,406.29 428.36,404.65 431.93,403.31 435.73,402.04 440.09,401.33 450.31,402.23 461.28,404.58 468.66,407.52 476.19,410.25 488.32,411.66 500.92,411.18 511.51,408.83 521.10,404.99 527.26,401.26 532.82,396.56 538.25,390.78 542.92,383.73 545.95,375.86 547.84,368.02 548.31,364.14 548.15,360.11 546.82,353.21 544.46,345.19 541.52,338.00 537.77,331.84 533.33,326.69 528.06,321.88 513.90,312.15 493.55,302.75 365.11,266.04 241.12,232.25 227.56,226.69 217.51,220.83 207.05,212.66 197.82,203.41 192.55,196.81 187.93,188.83 181.70,173.83 177.22,156.79 176.51,142.73 177.71,128.81 181.00,114.08 186.04,100.43 193.48,87.30 202.30,76.18 213.24,66.37 224.42,59.06 232.91,55.03 241.21,52.42 249.76,50.67 258.36,49.96 267.00,50.26 275.51,51.60 283.31,53.84 290.80,57.12 297.49,61.11 304.02,66.52 311.75,74.58 318.84,85.21 323.85,99.64 328.20,115.27 332.53,129.89 337.23,142.46 340.33,147.24 343.67,150.78 347.51,153.99 353.82,158.32 361.00,162.01 368.24,164.73 375.28,166.34 382.37,166.93 389.49,166.67 396.84,165.55 404.21,163.50 411.28,160.41 417.53,156.83 423.53,152.35 429.29,146.01 438.70,128.25 446.91,110.01 454.66,95.62 459.30,89.61 464.92,84.35 477.20,76.55 492.76,69.73 556.55,55.33 655.26,40.11 668.54,40.00 679.06,41.27 686.58,43.06 693.53,45.74 700.55,49.51 706.68,53.84 709.55,56.56 711.93,59.51 713.94,62.64 715.64,66.15 716.88,69.77 717.77,73.72 718.23,76.44 718.51,79.28 718.35,82.22 716.79,87.22 714.13,92.44 711.19,97.14 706.61,102.93 700.58,108.15 677.64,120.64 651.78,133.07 622.97,149.66 610.75,160.82 600.39,173.76 594.72,184.20 590.71,195.66 588.47,207.67 588.05,219.83 589.28,227.51 591.52,234.86 594.36,241.57 598.52,248.51 603.54,254.52 608.97,259.74 615.29,264.62 622.13,268.50 629.97,271.79 653.04,276.15 677.73,279.43 696.42,283.42 713.59,288.83 726.89,295.51 738.68,303.86 747.12,312.26 753.96,321.47 757.43,328.22 759.74,334.30 760.00,342.96 758.48,351.61 752.88,363.02 740.17,375.74 726.96,385.67 710.32,398.83 703.84,403.94 674.33,427.59"
        fill="none"
        stroke="#e94560"
        stroke-width="8.0"
        stroke-linejoin="round"
        stroke-linecap="round"/>
  <!-- Start/finish line -->
  <line x1="686.85" y1="443.19" x2="661.82" y2="411.99"
        stroke="#f5f5f5" stroke-width="9.6"
        stroke-linecap="round"/>
</svg>
