<?xml version="1.0" encoding="utf-8"?>
<svg xmlns="http://www.w3.org/2000/svg"
     width="519.0" height="800.0"
     viewBox="0 0 519.0 800.0">
  <rect width="100%" height="100%" fill="#1a1a2e"/>
  <!-- Track outline -->
  <polyline points="199.90,431.63 207.12,508.55 209.96,544.62 209.17,553.47 207.59,561.21 205.49,568.18 202.84,574.48 200.25,579.22 197.14,583.51 192.59,588.15 187.19,592.54 170.09,603.45 70.46,652.31 62.96,656.49 57.37,660.78 51.02,668.24 45.70,676.74 42.32,684.16 40.25,691.90 40.00,700.23 41.01,708.63 42.89,716.96 45.70,724.97 49.38,732.75 53.85,739.75 58.98,745.47 64.76,750.28 71.64,754.53 79.14,757.66 87.70,759.55 96.64,760.00 105.97,758.99 115.71,756.48 127.63,751.71 142.19,744.04 256.49,670.95 263.60,664.58 268.70,658.72 274.19,651.40 278.96,643.73 284.88,630.74 288.83,615.75 292.65,579.50 291.01,529.80 290.93,486.55 292.21,482.13 293.79,479.03 295.70,476.31 297.31,474.22 299.11,472.33 301.08,470.70 303.23,469.44 305.99,468.57 309.04,468.15 312.20,468.15 315.20,468.43 318.91,469.13 322.51,470.35 325.79,472.20 328.68,474.74 331.27,477.88 333.31,481.43 334.95,487.08 336.04,494.40 339.20,525.41 343.21,556.61 345.64,564.55 348.69,570.62 351.50,574.52 354.72,577.97 358.24,580.86 362.03,583.20 366.12,584.94 370.21,585.99 374.19,586.19 378.17,585.74 382.18,584.87 388.57,582.81 394.59,579.75 399.37,575.95 403.65,571.28 407.85,565.39 411.50,558.87 414.39,552.60 416.66,545.87 418.29,538.69 419.06,529.25 405.94,405.18 405.17,375.52 406.02,368.62 407.44,362.38 412.70,347.74 419.82,333.49 469.59,267.62 473.90,260.44 476.63,254.23 478.18,248.03 478.97,241.83 478.97,230.78 476.95,218.06 475.35,212.72 473.27,207.67 470.49,202.48 467.25,197.60 459.88,189.23 448.84,180.17 442.76,176.10 436.43,172.82 430.02,170.97 423.36,169.79 408.28,168.11 379.02,169.65 351.15,170.03 347.19,169.09 344.17,167.80 341.47,166.06 339.04,163.90 336.86,161.32 335.00,158.53 333.45,155.71 332.17,152.68 331.40,149.54 331.24,146.16 331.62,142.64 332.49,139.15 335.74,132.81 340.02,126.57 349.73,113.64 353.00,107.75 355.46,101.79 356.71,96.46 357.26,91.02 357.31,84.82 356.55,78.79 354.75,73.91 352.24,69.45 349.08,64.95 345.42,60.84 341.22,56.94 336.45,53.66 330.39,51.08 322.79,48.99 297.67,43.66 271.43,40.00 260.93,40.00 251.69,41.08 242.41,42.89 233.36,45.51 224.69,48.78 216.29,52.96 207.86,58.54 200.09,65.20 194.09,72.17 188.69,80.53 181.43,95.38 176.01,110.71 174.86,118.66 174.70,126.92 176.33,162.33 198.12,412.88 199.90,431.63"
        fill="none"
        stroke="#e94560"
        stroke-width="8.0"
        stroke-linejoin="round"
        stroke-linecap="round"/>
  <!-- Start/finish line -->
  <line x1="219.81" y1="429.75" x2="179.98" y2="433.50"
        stroke="#f5f5f5" stroke-width="9.6"
        stroke-linecap="round"/>
</svg>
