<?xml version="1.0" encoding="utf-8"?>
<svg xmlns="http://www.w3.org/2000/svg"
     width="593.8" height="800.0"
     viewBox="0 0 593.8 800.0">
  <rect width="100%" height="100%" fill="#1a1a2e"/>
  <!-- Track outline -->
  <polyline points="546.74,334.36 538.11,269.48 535.40,259.26 532.20,250.81 527.88,241.64 522.68,233.04 516.40,225.05 509.35,217.85 501.61,211.32 493.19,205.91 483.65,201.93 473.68,199.31 463.59,197.78 453.44,197.56 443.34,198.74 433.43,201.32 424.36,205.43 414.77,210.87 380.03,231.77 371.47,235.40 363.57,237.57 355.81,238.43 348.12,238.20 340.83,237.31 333.65,235.18 328.09,232.47 322.58,228.97 318.10,224.76 315.50,220.59 313.62,215.91 312.24,211.07 310.94,203.58 310.65,195.97 311.31,188.45 313.01,181.16 314.81,176.45 317.14,171.95 319.93,167.85 325.46,162.21 331.82,157.53 338.29,153.77 345.82,150.65 361.85,146.79 378.07,142.75 386.31,139.05 393.44,134.53 400.28,128.80 406.37,122.05 411.54,114.47 415.46,106.15 417.10,100.39 418.08,94.40 418.30,88.44 417.66,82.58 416.26,76.82 414.24,71.31 409.84,63.41 404.28,56.34 400.09,52.01 395.48,48.12 390.50,45.00 384.67,42.68 378.41,41.21 372.13,40.32 362.96,40.00 353.82,40.99 344.65,43.38 335.67,46.91 327.24,51.08 318.07,57.10 296.95,74.21 270.56,100.07 125.04,283.84 63.77,368.50 55.66,384.27 44.11,417.90 40.87,435.29 40.00,452.90 40.77,468.03 44.27,487.43 75.11,568.93 112.82,652.73 139.35,700.95 150.69,715.25 163.55,728.09 177.54,738.95 192.03,747.20 206.29,753.41 216.10,756.75 226.27,759.20 235.44,760.00 244.35,759.52 252.43,757.80 260.06,754.81 266.85,750.64 272.89,745.38 277.87,739.33 281.98,732.58 284.18,727.99 286.01,723.21 287.09,718.31 287.33,713.37 286.88,708.37 285.90,703.50 283.28,696.33 279.51,689.71 274.53,683.69 268.78,678.40 262.71,673.85 255.58,669.67 224.21,657.22 215.94,653.08 208.62,648.53 201.42,642.76 194.76,636.14 188.96,628.84 183.82,620.88 179.34,612.44 175.66,603.49 170.91,583.68 167.57,563.29 155.36,507.02 153.61,476.95 156.74,446.12 179.15,369.58 186.15,355.03 195.40,341.81 206.58,330.60 212.23,325.85 218.48,321.62 227.94,317.09 238.17,313.69 247.95,311.87 257.76,311.46 267.53,312.54 277.05,315.06 285.93,318.88 294.30,324.01 301.96,330.31 308.88,337.70 314.97,345.82 320.01,354.74 323.56,364.39 325.89,374.55 327.00,384.81 326.87,395.16 325.33,405.61 322.58,415.80 318.65,425.77 313.65,435.13 307.66,443.57 300.32,451.69 286.40,463.19 272.36,474.59 264.65,482.65 258.15,490.96 252.43,500.01 247.95,509.75 245.30,519.98 244.19,530.55 244.64,541.00 246.49,551.29 249.57,561.22 253.89,570.52 259.24,578.71 266.61,586.86 291.15,606.71 316.80,624.41 325.52,629.64 333.31,633.14 341.63,635.56 350.03,636.71 358.51,636.49 366.83,634.86 374.78,631.80 382.20,627.44 388.62,621.96 394.07,615.46 398.24,608.33 401.18,600.53 402.58,592.31 402.71,583.90 401.23,575.65 399.32,567.34 398.02,558.71 397.47,550.01 398.21,541.13 400.17,532.50 403.59,524.15 408.12,516.48 413.53,509.69 419.78,503.89 427.09,499.09 434.99,495.33 443.10,492.72 452.27,490.71 490.11,485.20 500.00,481.98 508.80,477.87 517.49,472.65 525.54,466.34 532.59,458.89 538.79,450.51 543.99,441.50 548.20,431.85 551.25,421.79 553.16,411.31 553.77,400.64 553.40,389.30 549.29,356.11 547.62,340.98 546.74,334.36"
        fill="none"
        stroke="#e94560"
        stroke-width="8.0"
        stroke-linejoin="round"
        stroke-linecap="round"/>
  <!-- Start/finish line -->
  <line x1="526.92" y1="337.00" x2="566.57" y2="331.72"
        stroke="#f5f5f5" stroke-width="9.6"
        stroke-linecap="round"/>
</svg>
