<?xml version="1.0" encoding="utf-8"?>
<svg xmlns="http://www.w3.org/2000/svg"
     width="643.1" height="800.0"
     viewBox="0 0 643.1 800.0">
  <rect width="100%" height="100%" fill="#1a1a2e"/>
  <!-- Track outline -->
  <polyline points="591.42,332.41 584.71,296.19 575.62,256.17 564.62,216.49 550.27,177.69 531.92,140.66 509.47,106.54 482.96,75.54 423.22,54.31 378.42,43.66 332.00,40.00 300.00,41.76 267.47,47.05 236.39,57.16 206.46,71.07 177.99,88.77 151.65,110.20 126.82,131.16 92.50,168.20 67.32,212.22 55.28,244.16 46.83,277.67 41.85,312.06 40.00,346.72 41.04,381.72 44.92,416.38 51.52,450.91 59.51,485.63 69.06,520.43 80.57,554.89 94.99,588.39 112.99,620.61 134.98,650.39 160.85,677.45 189.68,701.80 221.11,722.36 255.08,738.97 291.55,750.98 329.34,758.24 367.77,760.00 405.69,755.25 442.21,744.60 476.36,728.12 507.38,706.01 533.77,678.33 565.61,629.84 581.24,594.23 592.58,556.85 599.47,517.31 603.06,477.22 603.11,437.07 600.22,396.78 592.18,336.41 591.42,332.41"
        fill="none"
        stroke="#e94560"
        stroke-width="8.0"
        stroke-linejoin="round"
        stroke-linecap="round"/>
  <!-- Start/finish line -->
  <line x1="571.76" y1="336.06" x2="611.09" y2="328.76"
        stroke="#f5f5f5" stroke-width="9.6"
        stroke-linecap="round"/>
</svg>
