<?xml version="1.0" encoding="utf-8"?>
<svg xmlns="http://www.w3.org/2000/svg"
     width="800.0" height="788.7"
     viewBox="0 0 800.0 788.7">
  <rect width="100%" height="100%" fill="#1a1a2e"/>
  <!-- Track outline -->
  <polyline points="618.54,318.50 622.87,426.79 629.20,459.79 636.61,485.70 644.28,503.14 653.49,519.40 676.67,547.62 690.18,560.24 730.59,593.91 740.97,605.16 749.40,617.25 753.97,626.60 757.58,636.20 759.14,642.61 759.92,648.88 760.00,656.36 759.45,663.44 757.81,671.53 755.14,678.97 751.55,685.91 747.20,692.07 744.88,694.81 742.09,697.53 736.62,701.75 730.22,705.65 723.49,708.42 716.37,710.38 708.81,711.52 701.05,711.86 692.77,711.38 684.73,710.12 672.42,706.29 660.07,700.33 648.03,692.49 583.45,639.03 570.81,626.10 558.73,612.10 547.63,597.24 526.80,562.68 505.26,529.62 502.14,526.09 498.94,523.38 492.83,519.29 486.51,515.90 483.07,514.53 479.81,513.64 476.63,512.97 473.16,512.63 466.86,512.71 459.75,513.75 449.86,517.22 440.39,522.06 434.66,526.18 428.88,531.69 392.92,574.91 382.50,585.12 370.59,594.08 357.36,601.58 342.63,607.60 326.57,612.05 254.68,623.92 236.80,629.35 222.34,635.20 207.80,643.54 194.59,653.58 182.94,665.20 160.99,697.11 138.96,728.62 132.95,734.81 127.33,739.12 120.89,742.96 114.06,745.87 107.03,747.77 99.85,748.72 92.79,748.64 85.90,747.57 79.48,745.53 73.43,742.59 67.89,738.92 62.87,734.50 58.40,729.27 54.56,723.45 51.38,716.93 48.86,710.01 45.50,694.90 40.37,651.91 40.00,637.69 41.11,623.30 44.08,609.50 49.00,596.46 52.00,590.33 55.73,584.23 62.44,575.94 69.19,568.86 74.40,564.66 85.78,558.03 110.99,546.83 129.08,535.55 132.26,533.03 135.07,530.10 141.30,521.64 146.90,511.26 150.00,500.40 151.25,489.06 150.72,477.31 148.36,465.75 144.19,454.78 138.41,444.56 130.66,435.04 122.82,427.37 119.64,424.72 115.81,422.20 91.58,409.82 66.13,396.25 59.40,391.21 54.34,386.17 49.89,380.38 46.30,374.11 43.65,367.36 41.91,360.31 41.11,353.01 41.07,345.59 41.66,337.75 42.87,330.25 44.18,324.82 46.15,319.67 49.91,313.29 54.64,307.19 60.02,301.73 66.01,296.92 72.71,292.69 79.89,289.16 87.50,286.42 95.40,284.46 103.62,283.28 111.68,282.89 124.36,283.98 137.32,286.76 150.31,291.43 163.04,297.87 201.34,324.79 319.27,415.59 347.70,431.52 361.34,436.58 375.10,439.52 389.25,440.47 403.67,439.63 417.95,436.61 431.85,431.57 445.00,424.66 456.90,415.76 467.01,405.32 475.17,393.62 480.20,383.99 484.13,374.70 485.30,370.95 485.84,367.06 485.36,356.17 483.70,343.24 477.57,312.25 474.19,299.57 470.54,289.13 468.65,285.58 466.17,282.28 456.03,271.53 445.04,261.45 441.60,258.85 437.66,256.61 395.67,240.35 340.03,224.34 211.49,203.68 100.77,180.31 87.48,176.03 75.71,170.43 68.80,165.70 62.71,160.66 59.90,157.84 57.43,154.70 53.15,148.07 49.41,141.13 47.88,137.35 46.83,133.79 45.50,126.40 45.29,118.99 46.34,111.74 47.16,108.32 48.43,104.71 51.47,98.30 55.49,91.70 60.28,85.87 65.80,80.64 72.14,75.97 79.03,71.99 86.62,68.72 94.31,66.25 106.88,64.04 344.13,47.81 379.14,48.03 395.32,49.96 410.42,53.24 424.18,58.28 436.59,65.25 447.52,73.59 456.79,83.44 464.36,94.19 474.90,115.24 486.47,136.06 490.47,140.54 494.41,143.92 498.29,146.53 501.22,148.12 504.11,149.24 507.27,150.00 511.78,150.45 516.70,150.39 521.16,149.83 524.11,149.07 526.78,147.98 529.38,146.39 532.99,143.34 536.52,139.42 539.31,135.22 540.97,131.27 541.95,127.08 542.69,121.84 542.57,96.34 543.04,70.68 544.56,64.88 546.51,60.18 548.74,56.12 551.61,52.15 554.92,48.87 558.59,45.99 562.87,43.61 567.28,41.96 572.25,40.67 577.27,40.00 582.28,40.06 587.32,40.76 592.43,42.16 599.16,45.15 605.97,49.12 610.95,52.76 612.26,54.05 613.14,55.25 614.03,56.88 617.41,65.16 620.59,75.77 625.70,103.48 628.86,134.77 618.25,311.08 618.54,318.50"
        fill="none"
        stroke="#e94560"
        stroke-width="8.0"
        stroke-linejoin="round"
        stroke-linecap="round"/>
  <!-- Start/finish line -->
  <line x1="638.52" y1="317.70" x2="598.56" y2="319.29"
        stroke="#f5f5f5" stroke-width="9.6"
        stroke-linecap="round"/>
</svg>
