<?xml version="1.0" encoding="utf-8"?>
<svg xmlns="http://www.w3.org/2000/svg"
     width="442.4" height="800.0"
     viewBox="0 0 442.4 800.0">
  <rect width="100%" height="100%" fill="#1a1a2e"/>
  <!-- Track outline -->
  <polyline points="133.78,405.80 60.34,259.51 47.78,228.75 43.66,213.29 41.04,197.67 40.00,182.47 40.50,167.38 42.66,152.81 46.40,138.66 51.75,125.29 58.46,112.54 66.39,100.37 75.37,88.94 85.31,77.97 96.14,68.05 107.74,59.64 119.99,52.53 132.51,46.84 145.38,42.66 158.02,40.42 170.66,40.00 182.95,41.46 194.82,44.75 206.07,49.71 216.47,56.35 225.83,64.81 234.31,74.47 249.45,96.67 353.76,286.62 363.54,311.01 366.36,322.91 367.47,335.24 366.97,345.11 365.35,355.29 362.31,364.64 359.11,370.65 355.14,376.34 350.56,381.41 345.47,385.64 339.85,388.93 333.57,391.54 327.05,393.26 320.62,394.05 314.26,393.84 307.75,392.69 301.47,390.70 295.77,387.94 289.14,382.82 283.32,376.29 278.08,369.13 271.07,356.44 265.33,343.18 257.01,320.62 250.30,295.39 234.89,209.84 230.61,196.37 225.26,185.19 219.90,176.68 213.54,168.48 206.18,161.85 201.25,158.71 195.82,155.94 190.15,153.80 184.49,152.55 179.21,152.39 173.20,154.06 167.34,157.41 161.80,161.64 156.75,166.13 148.08,176.31 141.03,187.70 135.56,198.77 131.55,210.47 128.85,223.84 127.97,237.78 129.39,253.29 132.78,268.39 137.14,280.35 142.99,291.37 150.43,301.24 159.95,311.21 181.64,329.39 203.49,348.09 213.89,360.05 222.17,372.16 229.42,385.90 235.20,400.47 242.63,431.75 255.66,498.40 261.40,515.68 268.33,530.88 277.27,545.45 287.79,558.77 312.68,580.97 339.65,600.97 363.58,623.11 383.35,646.77 390.82,659.15 396.68,672.05 400.57,684.64 402.38,697.64 402.11,707.72 400.61,718.11 397.53,727.72 394.14,734.04 389.86,740.00 384.89,745.38 379.46,749.92 373.41,753.63 366.70,756.66 359.69,758.80 352.68,759.95 345.51,760.00 338.15,759.01 330.95,757.13 324.16,754.46 315.57,749.24 307.63,742.45 300.81,735.19 294.03,724.90 288.48,713.94 277.31,689.81 254.27,645.78 133.78,405.80"
        fill="none"
        stroke="#e94560"
        stroke-width="8.0"
        stroke-linejoin="round"
        stroke-linecap="round"/>
  <!-- Start/finish line -->
  <line x1="115.91" y1="414.77" x2="151.66" y2="396.82"
        stroke="#f5f5f5" stroke-width="9.6"
        stroke-linecap="round"/>
</svg>
