<?xml version="1.0" encoding="utf-8"?>
<svg xmlns="http://www.w3.org/2000/svg"
     width="800.0" height="545.2"
     viewBox="0 0 800.0 545.2">
  <rect width="100%" height="100%" fill="#1a1a2e"/>
  <!-- Track outline -->
  <polyline points="467.96,88.63 581.40,44.43 596.83,40.97 609.51,40.00 620.08,40.58 630.79,42.92 647.32,49.12 664.33,58.17 680.04,69.88 694.84,83.65 708.12,97.89 720.61,114.65 735.65,141.65 748.30,170.35 755.09,190.46 759.13,209.82 760.00,226.98 758.45,243.66 754.36,260.25 748.06,275.89 739.32,290.71 728.83,304.01 717.04,315.72 703.11,326.46 648.58,356.67 461.33,441.63 318.26,501.69 310.33,504.07 304.17,505.04 297.19,505.22 290.26,504.43 283.49,502.66 277.01,499.81 271.26,495.99 266.14,491.20 262.13,485.58 259.06,479.84 257.75,476.60 256.91,473.14 256.28,466.51 256.57,459.37 257.46,455.01 258.85,450.75 260.84,446.57 266.93,438.07 274.62,430.28 282.94,423.97 293.62,418.24 376.70,390.30 524.85,337.46 611.11,303.00 640.05,291.68 646.09,287.75 651.07,282.85 655.01,277.30 658.66,270.77 661.26,264.39 662.30,259.92 662.72,255.52 662.62,251.16 661.96,246.58 660.76,242.04 659.08,237.83 656.69,233.72 653.75,229.93 650.55,226.58 645.38,222.43 638.87,218.58 619.27,210.25 595.26,199.76 563.43,179.07 532.02,159.75 512.65,152.68 493.60,149.08 471.27,147.64 444.61,150.20 276.43,201.02 212.30,224.34 202.43,230.15 195.06,236.46 191.80,240.38 189.10,244.64 186.90,249.22 184.61,256.61 183.43,264.39 183.51,272.43 184.48,279.71 185.35,283.32 186.84,286.74 190.52,292.69 195.58,299.39 200.78,304.98 204.98,308.26 209.28,310.71 213.77,312.69 221.22,314.97 229.33,316.05 240.85,315.83 253.29,313.45 268.17,307.14 284.38,297.52 311.83,276.32 340.59,254.19 385.36,230.36 432.22,211.37 473.58,198.50 479.17,197.96 483.45,198.25 487.78,199.04 495.94,201.45 503.26,204.77 506.80,207.15 509.82,209.78 512.55,212.52 515.01,215.55 517.06,218.72 518.82,222.14 520.18,225.75 521.23,229.53 521.94,233.57 522.28,237.72 522.18,241.86 521.68,245.94 520.87,249.86 519.74,253.65 518.24,257.33 516.46,260.86 514.46,264.21 511.84,267.60 504.44,274.70 494.39,282.09 451.41,301.30 253.10,373.79 238.20,376.50 226.36,376.75 213.56,375.67 200.62,372.53 185.03,365.65 169.29,356.06 153.18,343.73 136.80,328.09 90.33,268.93 49.32,209.13 45.33,200.88 42.81,193.49 40.94,185.52 40.00,177.45 40.05,169.44 41.10,161.69 43.31,154.45 46.46,147.71 50.76,141.29 55.80,135.63 61.57,130.62 67.87,126.48 74.80,123.05 82.51,120.46 94.82,118.15 107.47,117.07 116.15,116.89 124.99,117.97 139.24,122.76 155.12,129.94 176.87,142.01 199.07,153.37 215.87,158.67 233.55,161.12 262.60,160.00 295.82,154.16 400.50,117.39 450.28,94.72 460.98,91.40 467.33,88.88 467.96,88.63"
        fill="none"
        stroke="#e94560"
        stroke-width="8.0"
        stroke-linejoin="round"
        stroke-linecap="round"/>
  <!-- Start/finish line -->
  <line x1="460.70" y1="69.99" x2="475.23" y2="107.26"
        stroke="#f5f5f5" stroke-width="9.6"
        stroke-linecap="round"/>
</svg>
