<?xml version="1.0" encoding="utf-8"?>
<svg xmlns="http://www.w3.org/2000/svg"
     width="800.0" height="407.3"
     viewBox="0 0 800.0 407.3">
  <rect width="100%" height="100%" fill="#1a1a2e"/>
  <!-- Track outline -->
  <polyline points="441.70,286.73 421.06,281.22 298.24,255.28 165.25,233.30 144.73,226.81 125.25,218.12 107.07,206.98 89.38,193.47 73.57,178.55 60.70,160.61 50.29,141.38 46.25,131.96 43.10,122.07 40.97,109.81 40.06,97.25 40.00,86.07 41.27,75.14 43.16,67.40 45.83,59.79 49.74,53.16 53.72,48.99 58.48,45.25 63.67,42.32 68.89,40.52 73.02,40.00 77.42,40.09 81.85,40.77 85.95,41.98 89.50,43.79 92.47,46.19 95.17,49.29 97.45,52.86 99.21,56.65 100.30,60.43 100.30,67.53 98.51,75.19 96.08,82.63 90.86,93.04 86.13,103.36 84.95,110.37 84.73,117.51 85.71,124.31 87.22,129.21 89.38,134.03 92.20,138.46 95.63,142.03 99.24,144.44 103.52,146.46 108.13,147.92 112.75,148.70 116.97,148.61 120.79,147.62 124.61,145.90 128.25,143.45 131.50,140.44 134.26,136.82 136.72,129.68 137.63,120.35 138.03,110.20 138.88,100.65 141.12,93.08 144.49,88.09 148.59,84.00 153.11,80.65 157.81,77.94 164.10,75.49 170.80,74.15 177.60,73.77 187.37,74.93 198.85,78.28 284.37,115.36 329.95,126.89 367.53,137.64 373.38,140.78 378.18,143.92 381.97,147.36 384.83,151.45 386.53,155.49 387.62,160.18 388.10,165.08 387.86,169.73 386.86,173.82 385.04,177.17 382.40,180.40 379.18,183.19 375.66,185.52 372.02,187.19 367.04,188.27 361.67,188.27 355.78,187.45 349.20,186.12 317.48,174.63 286.95,160.83 269.29,151.66 248.47,138.76 238.85,133.90 228.89,130.76 223.07,130.24 216.87,130.37 210.93,131.32 205.80,133.30 202.91,135.28 200.09,137.77 197.54,140.69 195.42,143.88 193.87,147.10 193.11,150.24 193.35,154.29 194.75,158.72 196.93,163.10 199.64,167.23 202.58,170.72 207.86,174.85 214.32,177.82 222.73,181.13 332.32,214.12 451.14,255.24 550.38,285.13 558.88,285.74 565.07,285.13 570.83,283.37 574.66,281.69 578.51,279.54 582.12,276.96 585.19,274.04 587.50,270.77 588.86,267.46 589.77,263.63 590.26,259.54 590.26,255.46 589.74,251.63 588.74,248.27 586.86,245.05 584.16,242.08 580.94,239.45 577.42,237.17 573.81,235.24 567.10,232.92 559.64,231.67 551.32,230.81 506.74,230.16 493.99,228.70 482.64,226.12 475.81,223.80 469.35,220.96 463.52,217.17 459.21,213.39 455.08,208.91 451.71,204.10 449.65,199.15 449.07,195.24 449.14,191.02 449.80,186.81 451.08,182.81 452.87,179.36 455.51,176.22 458.97,173.43 462.94,170.98 467.16,169.08 471.41,167.75 478.73,166.98 486.59,167.92 495.93,169.90 538.97,184.44 580.39,201.47 598.91,210.76 607.65,216.57 615.72,223.24 622.43,230.59 628.80,239.37 649.38,275.50 655.08,284.32 661.00,291.80 668.35,298.60 676.54,304.40 685.58,309.22 695.36,313.05 718.88,318.26 729.74,318.90 740.18,320.15 744.40,321.35 748.83,322.81 753.02,324.58 756.51,326.77 758.85,329.57 759.82,332.71 760.00,336.54 759.54,340.75 758.54,345.01 757.18,349.05 755.57,352.54 753.23,356.02 750.29,359.29 746.89,362.22 743.28,364.62 739.58,366.30 733.72,367.29 727.41,366.82 719.82,365.79 653.81,352.75 441.70,286.73"
        fill="none"
        stroke="#e94560"
        stroke-width="8.0"
        stroke-linejoin="round"
        stroke-linecap="round"/>
  <!-- Start/finish line -->
  <line x1="435.82" y1="305.84" x2="447.58" y2="267.61"
        stroke="#f5f5f5" stroke-width="9.6"
        stroke-linecap="round"/>
</svg>
