<?xml version="1.0" encoding="utf-8"?>
<svg xmlns="http://www.w3.org/2000/svg"
     width="800.0" height="685.5"
     viewBox="0 0 800.0 685.5">
  <rect width="100%" height="100%" fill="#1a1a2e"/>
  <!-- Track outline -->
  <polyline points="249.97,264.11 251.20,262.65 347.97,156.70 395.81,114.96 435.50,90.09 486.37,69.30 548.28,53.79 564.37,51.40 651.24,41.39 668.87,40.00 685.40,40.31 701.90,44.43 717.36,50.46 728.82,57.18 738.77,65.25 746.16,73.39 752.11,82.64 756.21,92.82 758.82,103.63 760.00,114.09 759.58,124.79 756.74,137.47 751.80,149.70 744.38,161.09 735.01,171.31 706.47,191.09 677.09,209.73 664.92,221.99 652.78,237.40 609.33,306.19 553.24,374.74 510.10,417.76 491.85,432.10 473.44,443.88 434.66,460.40 396.46,475.40 386.83,481.74 378.76,489.53 371.55,500.03 364.71,513.81 351.03,552.33 337.13,591.02 329.69,605.22 321.81,616.45 312.09,626.66 301.78,634.84 293.08,639.93 284.18,643.33 274.57,645.23 264.78,645.51 255.17,644.09 245.51,640.94 233.75,634.91 222.81,627.18 215.68,620.26 209.76,612.36 204.72,602.56 201.32,593.31 200.64,589.78 200.49,586.59 200.59,583.37 201.01,580.25 201.79,577.20 202.86,574.29 204.33,571.42 206.05,568.72 207.96,566.12 210.57,563.52 220.91,557.15 234.30,550.11 270.31,531.55 283.21,520.98 294.10,508.38 302.20,492.23 308.62,475.75 316.82,454.96 320.76,448.49 325.51,442.81 333.66,435.57 343.61,429.16 358.83,423.17 376.38,418.14 401.76,412.36 427.88,404.88 449.31,394.28 471.17,379.00 512.32,340.14 550.06,298.09 564.65,279.25 575.52,261.23 582.88,243.71 587.58,226.08 589.09,210.90 588.47,196.60 586.35,185.69 582.62,175.40 575.65,162.79 566.77,151.19 556.06,141.32 544.13,133.49 530.84,127.81 516.92,124.48 502.58,123.51 488.22,124.86 474.72,128.02 460.65,134.11 437.48,150.50 413.12,171.97 385.13,199.85 362.52,226.32 356.54,235.32 352.93,244.05 351.65,251.57 351.29,259.54 351.65,266.08 352.54,269.89 353.87,273.01 355.41,276.02 357.21,278.79 359.33,281.29 361.68,283.47 364.37,285.41 367.24,287.04 370.30,288.46 373.95,289.46 380.04,290.19 387.43,290.29 394.87,289.15 402.70,286.17 410.61,281.64 418.71,275.85 434.72,261.20 450.88,242.74 468.98,215.10 485.79,190.16 492.09,183.96 498.01,179.38 503.16,176.34 506.73,175.16 510.00,174.78 513.24,174.57 516.42,174.74 519.48,175.30 522.48,176.23 525.35,177.58 528.12,179.31 530.89,181.43 533.40,183.92 535.35,186.76 536.95,189.91 538.17,193.03 539.06,196.32 539.56,199.68 539.69,203.15 539.48,206.78 538.91,210.42 538.12,214.06 536.63,218.14 528.90,230.75 517.36,246.44 466.16,307.16 450.62,321.36 435.66,332.17 421.29,339.83 406.59,345.37 390.98,349.35 375.10,351.47 359.75,351.85 343.53,349.98 317.92,341.18 293.53,332.62 282.38,331.17 272.35,331.51 262.03,333.32 252.06,336.71 243.44,340.83 234.28,347.86 207.09,383.30 179.08,422.89 165.94,439.20 153.59,451.95 141.42,460.75 129.23,467.16 119.15,470.90 109.12,472.98 98.75,473.56 88.49,472.66 78.86,470.24 69.92,466.71 63.53,463.21 57.73,459.02 52.25,454.03 47.47,448.28 43.86,442.01 41.28,435.22 40.05,428.29 40.00,421.26 41.33,414.23 43.42,407.96 44.94,404.60 46.89,401.55 51.39,396.29 56.87,391.37 62.46,387.59 69.72,384.44 101.52,379.11 136.75,372.66 152.91,366.29 168.73,355.80 207.46,314.61 249.97,264.11"
        fill="none"
        stroke="#e94560"
        stroke-width="8.0"
        stroke-linejoin="round"
        stroke-linecap="round"/>
  <!-- Start/finish line -->
  <line x1="234.67" y1="251.23" x2="265.27" y2="276.99"
        stroke="#f5f5f5" stroke-width="9.6"
        stroke-linecap="round"/>
</svg>
