<?xml version="1.0" encoding="utf-8"?>
<svg xmlns="http://www.w3.org/2000/svg"
     width="800.0" height="581.4"
     viewBox="0 0 800.0 581.4">
  <rect width="100%" height="100%" fill="#1a1a2e"/>
  <!-- Track outline -->
  <polyline points="140.52,306.56 67.82,178.56 51.20,144.31 45.30,127.83 41.28,112.22 40.00,101.86 40.12,92.14 41.47,82.73 44.11,73.85 47.81,66.33 52.48,59.61 57.54,54.00 63.20,49.24 69.34,45.48 75.91,42.68 82.77,40.84 89.82,40.00 97.20,40.20 104.29,41.24 109.59,42.64 114.93,44.76 123.50,49.08 132.43,55.00 142.52,64.49 151.44,74.97 156.98,82.97 161.49,91.18 168.66,109.34 173.01,129.31 174.56,151.07 177.91,235.54 182.29,256.11 188.71,275.79 197.80,293.92 209.48,310.96 223.91,325.57 240.41,337.57 258.38,346.74 278.07,352.66 299.00,355.74 339.34,354.38 380.95,353.58 396.65,355.98 408.77,359.46 414.75,361.94 419.73,365.06 424.75,369.42 429.02,374.58 431.29,378.35 433.16,382.39 434.56,386.83 435.63,393.19 435.95,400.19 435.43,406.91 432.96,416.04 429.22,424.28 425.59,429.88 421.56,434.64 418.26,438.04 414.35,441.13 406.58,445.97 397.77,450.05 389.56,452.13 381.35,453.05 373.57,452.93 366.40,451.97 361.94,450.73 357.87,449.05 353.88,447.09 349.46,444.25 335.99,431.96 320.92,419.60 314.62,416.60 308.49,414.72 302.47,413.92 296.81,414.20 291.27,415.36 286.44,417.12 283.37,418.80 280.82,420.84 278.47,423.44 275.72,427.68 273.33,432.80 271.86,438.16 271.42,444.25 272.02,450.65 273.41,456.89 275.68,463.01 278.75,468.97 282.58,474.46 287.20,479.62 292.58,484.26 298.76,488.30 312.75,493.86 326.58,497.30 332.24,498.10 338.98,498.10 468.95,481.38 576.97,465.05 665.54,445.85 675.74,441.17 682.95,436.32 688.73,431.00 692.84,426.24 696.03,421.16 698.18,415.68 699.14,410.84 699.46,405.67 699.06,400.47 697.90,395.59 695.75,390.91 692.68,386.43 689.09,382.31 685.27,378.67 679.84,374.74 673.95,371.54 668.37,369.18 663.22,367.66 657.84,366.90 648.00,366.42 636.92,367.54 622.93,371.94 607.82,379.35 582.59,397.27 558.80,415.36 539.62,426.60 530.02,430.12 520.53,432.36 512.88,433.12 505.54,432.76 498.57,431.44 491.71,428.84 486.05,425.36 480.47,420.96 475.89,416.40 472.26,411.24 469.59,406.03 467.64,401.87 466.12,397.15 463.89,385.71 463.37,373.06 464.09,367.78 465.37,362.50 467.16,357.58 469.63,353.34 472.82,349.98 476.73,347.06 480.75,344.74 485.85,342.61 488.76,342.21 493.23,343.74 499.61,348.66 502.67,351.74 506.18,356.86 509.41,363.18 512.72,369.34 516.63,373.94 519.53,375.95 522.72,377.63 526.03,378.79 529.30,379.39 532.37,379.31 536.24,377.79 540.10,374.98 543.49,371.90 545.92,369.42 547.00,368.06 547.75,366.66 548.75,363.98 552.38,347.10 556.44,331.93 557.36,330.33 558.76,328.65 562.78,324.93 568.20,320.97 574.38,317.65 589.33,313.77 603.68,311.89 613.40,311.93 653.06,316.93 671.55,321.41 690.57,328.33 709.34,338.57 726.04,351.30 736.24,361.70 745.33,373.02 750.91,382.55 754.98,391.55 758.41,402.59 759.48,407.56 760.00,412.96 759.76,420.04 758.80,428.04 757.09,435.08 755.26,439.21 752.95,442.77 750.23,446.13 745.29,451.17 739.35,455.73 730.15,460.97 720.18,465.53 702.40,471.78 527.59,508.59 389.40,537.28 370.31,540.48 352.17,541.40 335.23,539.84 318.01,536.68 306.13,532.79 296.05,528.47 285.73,522.91 270.74,512.39 256.91,499.70 244.07,485.10 232.48,468.37 140.52,306.56"
        fill="none"
        stroke="#e94560"
        stroke-width="8.0"
        stroke-linejoin="round"
        stroke-linecap="round"/>
  <!-- Start/finish line -->
  <line x1="123.13" y1="316.44" x2="157.91" y2="296.68"
        stroke="#f5f5f5" stroke-width="9.6"
        stroke-linecap="round"/>
</svg>
