<?xml version="1.0" encoding="utf-8"?>
<svg xmlns="http://www.w3.org/2000/svg"
     width="443.0" height="800.0"
     viewBox="0 0 443.0 800.0">
  <rect width="100%" height="100%" fill="#1a1a2e"/>
  <!-- Track outline -->
  <polyline points="95.12,444.97 92.43,425.93 81.09,356.68 70.17,291.38 66.42,229.11 52.23,167.39 40.22,109.52 40.00,95.25 41.15,83.23 43.59,72.76 46.66,65.15 50.67,58.59 55.37,53.03 59.83,49.09 64.85,45.78 70.20,43.17 75.62,41.33 81.38,40.23 87.40,40.00 93.46,40.55 99.32,41.84 106.59,44.77 113.67,49.09 121.35,54.82 142.49,76.25 164.43,97.41 173.97,103.19 183.17,107.14 192.84,109.84 211.13,111.17 230.18,110.67 250.23,110.07 268.20,110.94 274.22,112.55 279.44,114.80 284.18,118.10 287.64,121.50 290.97,125.58 293.82,130.13 295.94,134.94 297.22,139.72 297.96,144.81 298.12,150.04 297.64,155.09 296.19,160.64 293.92,166.20 291.04,171.38 287.74,175.83 282.26,180.74 275.79,184.32 268.49,187.26 249.98,190.70 229.67,193.04 209.49,196.39 191.24,201.53 184.10,205.29 177.82,209.79 172.37,215.43 167.73,221.54 163.85,228.74 161.04,238.65 163.15,302.21 170.96,379.35 177.31,494.44 175.06,560.57 175.51,615.59 178.07,626.19 181.41,634.31 185.60,641.47 190.89,648.31 197.10,654.13 203.89,658.95 212.31,663.17 221.54,666.16 231.11,667.72 242.42,667.81 254.14,666.20 264.87,662.76 273.13,658.26 280.66,652.39 286.81,645.51 290.75,639.04 293.73,631.83 295.46,623.80 294.82,607.83 291.20,587.96 262.60,465.07 246.65,382.47 238.90,313.54 240.31,302.85 242.90,294.68 246.29,287.62 250.27,281.47 254.94,276.37 260.19,272.20 266.76,268.71 273.97,266.42 281.17,265.36 288.03,265.50 294.85,266.78 301.48,269.31 308.40,273.48 315.12,279.04 321.02,285.64 325.56,292.76 329.38,300.88 332.61,310.33 340.49,361.82 361.37,564.56 384.85,639.95 402.69,698.88 403.04,710.03 401.98,719.02 399.68,727.14 396.16,734.72 391.42,741.37 385.97,747.01 379.12,752.02 371.37,755.73 363.01,758.39 348.27,760.00 329.12,759.36 228.23,754.81 129.49,743.48 117.96,739.72 109.41,735.50 101.62,729.90 94.10,723.06 87.24,715.03 81.67,706.13 77.76,697.13 74.91,687.36 73.41,677.31 74.11,662.21 77.38,645.32 88.75,610.40 99.99,571.03 102.87,530.78 101.62,491.09 95.44,447.17 95.12,444.97"
        fill="none"
        stroke="#e94560"
        stroke-width="8.0"
        stroke-linejoin="round"
        stroke-linecap="round"/>
  <!-- Start/finish line -->
  <line x1="75.32" y1="447.78" x2="114.92" y2="442.17"
        stroke="#f5f5f5" stroke-width="9.6"
        stroke-linecap="round"/>
</svg>
