<?xml version="1.0" encoding="utf-8"?>
<svg xmlns="http://www.w3.org/2000/svg"
     width="800.0" height="530.0"
     viewBox="0 0 800.0 530.0">
  <rect width="100%" height="100%" fill="#1a1a2e"/>
  <!-- Track outline -->
  <polyline points="466.39,74.12 539.21,49.80 559.09,44.70 578.81,41.22 598.35,40.00 617.57,41.33 636.59,44.92 655.05,51.09 672.84,59.63 689.69,70.43 705.15,83.56 718.94,98.91 730.88,116.14 740.65,135.22 748.51,155.53 754.59,175.95 758.67,196.40 760.00,216.71 758.51,236.58 753.97,255.92 745.97,274.36 735.00,291.37 721.21,306.55 704.97,319.64 668.14,341.39 546.19,397.79 340.42,482.79 322.11,487.88 313.68,489.35 305.11,490.00 295.08,489.64 285.18,487.96 279.25,486.09 273.56,483.61 268.49,480.46 264.23,476.72 260.55,472.38 257.73,467.65 255.93,462.44 255.01,456.81 254.88,451.21 255.64,445.58 257.23,439.95 259.45,434.53 264.08,426.71 269.98,419.57 277.14,413.22 285.15,407.62 293.51,402.74 303.80,398.11 370.69,378.85 556.64,318.68 625.64,288.29 635.26,282.58 642.67,276.80 649.36,270.02 654.71,262.49 657.30,257.25 659.18,251.72 660.07,245.98 659.96,241.07 659.15,235.90 657.74,230.88 655.71,226.25 651.71,220.76 646.62,215.85 641.26,211.54 633.84,206.80 626.06,202.79 609.16,194.93 592.52,183.80 550.99,154.74 535.48,147.67 501.32,138.20 482.82,136.44 465.48,136.23 443.54,138.35 308.45,178.67 258.83,195.90 220.67,212.04 211.08,218.21 204.05,224.60 197.58,232.03 192.25,240.14 189.43,245.70 187.18,251.51 185.74,257.39 185.22,263.28 185.48,269.23 186.66,274.94 188.85,280.36 191.93,285.52 195.64,290.12 200.03,294.06 205.07,297.36 210.45,300.02 219.28,302.57 228.55,303.64 238.17,303.36 247.86,301.78 258.30,298.69 268.33,294.53 284.03,285.24 343.43,242.90 360.35,233.32 435.50,202.18 453.67,196.22 470.52,192.45 480.79,191.59 491.08,192.13 497.27,193.49 503.22,195.57 508.60,198.41 513.20,201.89 517.27,206.05 520.54,210.64 522.86,215.67 524.41,221.16 525.08,226.68 524.82,232.28 523.70,237.95 521.82,243.36 519.10,248.53 515.60,253.45 511.61,258.00 504.45,264.28 496.41,269.84 477.84,279.39 326.47,336.51 263.97,359.43 242.55,363.74 221.40,364.64 211.21,363.70 201.29,361.84 191.91,359.04 182.87,355.42 166.02,346.16 150.51,334.25 135.96,319.93 57.71,209.75 48.15,192.02 44.65,183.41 42.01,174.73 40.47,166.55 40.00,158.19 40.97,148.18 43.47,138.31 47.44,129.73 52.72,121.98 59.17,115.24 66.59,109.43 74.63,104.69 83.98,100.53 121.07,89.23 141.86,84.99 150.93,84.53 159.65,85.50 164.17,86.79 168.74,88.58 172.95,90.84 176.32,93.68 178.33,96.29 180.02,99.34 181.30,102.61 182.09,105.98 182.30,109.18 181.85,112.40 180.78,115.74 179.24,119.04 177.31,122.09 175.11,124.82 170.23,128.73 164.30,131.82 158.22,134.43 149.47,137.13 140.72,139.64 132.23,142.94 124.44,147.46 121.47,150.04 118.51,152.95 115.85,156.18 113.73,159.69 112.01,164.11 111.12,169.49 111.41,175.01 112.72,180.97 115.67,187.54 118.59,192.85 121.70,195.93 125.44,198.59 129.56,200.74 133.82,202.21 140.19,203.00 146.98,202.57 153.57,201.46 161.40,198.98 170.75,194.82 274.08,145.06 381.61,102.47 466.39,74.12"
        fill="none"
        stroke="#e94560"
        stroke-width="8.0"
        stroke-linejoin="round"
        stroke-linecap="round"/>
  <!-- Start/finish line -->
  <line x1="460.06" y1="55.15" x2="472.73" y2="93.09"
        stroke="#f5f5f5" stroke-width="9.6"
        stroke-linecap="round"/>
</svg>
