<?xml version="1.0" encoding="utf-8"?>
<svg xmlns="http://www.w3.org/2000/svg"
     width="527.4" height="800.0"
     viewBox="0 0 527.4 800.0">
  <rect width="100%" height="100%" fill="#1a1a2e"/>
  <!-- Track outline -->
  <polyline points="89.97,364.45 90.49,362.22 140.26,175.41 146.90,156.86 155.01,139.46 164.63,123.28 175.78,108.30 188.92,94.37 204.14,82.11 221.13,71.30 240.09,62.58 261.04,56.06 346.25,42.61 383.10,40.00 405.62,40.71 426.82,43.28 436.84,45.44 446.46,48.46 455.45,52.37 463.70,57.33 470.72,63.36 476.73,70.30 481.51,77.52 485.03,85.54 486.62,92.24 487.38,99.43 487.33,106.33 486.51,112.10 484.98,117.62 482.82,122.91 478.23,130.55 472.33,137.41 465.09,143.48 456.95,148.55 448.02,152.68 438.45,155.81 416.30,159.43 338.52,163.42 299.43,170.16 289.89,173.29 281.48,177.02 272.90,181.67 264.73,187.08 257.00,193.34 249.84,200.31 243.67,207.46 237.52,216.55 223.72,243.08 208.89,278.75 163.65,437.26 143.02,511.90 130.43,570.03 130.29,577.45 131.03,583.04 132.45,588.37 134.50,593.77 137.18,598.87 140.45,603.53 144.33,607.78 148.81,611.54 153.65,614.64 158.98,616.98 164.69,618.62 170.50,619.63 176.41,619.96 182.42,619.63 188.26,618.59 196.79,615.42 204.79,610.80 212.19,604.76 218.78,597.64 224.38,590.04 229.62,580.17 241.70,547.93 253.58,505.98 277.43,368.59 282.76,349.96 286.23,341.65 290.60,333.71 296.83,325.10 304.15,317.46 309.18,313.59 314.56,310.31 320.16,307.77 325.84,306.06 331.72,305.05 337.54,304.87 343.30,305.57 349.01,307.10 354.45,309.30 359.72,312.21 364.72,315.82 369.17,320.00 373.13,324.99 376.55,330.58 379.36,336.50 382.50,346.27 384.31,356.59 385.07,366.80 384.14,379.43 352.64,502.40 295.00,713.94 291.26,723.18 287.43,729.85 281.34,738.39 274.07,746.10 266.18,752.03 257.52,756.46 251.53,758.43 245.28,759.70 239.05,760.00 232.57,759.22 226.13,757.47 220.31,754.71 213.48,748.37 207.44,740.73 201.46,732.20 194.96,724.26 189.71,720.20 183.95,716.85 177.88,714.50 171.62,713.35 165.07,713.16 157.94,713.68 140.45,718.00 122.91,722.29 112.18,722.51 102.26,721.17 92.45,718.38 83.11,714.17 73.90,708.20 65.63,701.24 59.48,694.79 54.18,687.82 48.99,673.03 44.97,655.85 41.91,638.67 40.14,620.82 40.00,602.15 48.52,538.77 89.97,364.45"
        fill="none"
        stroke="#e94560"
        stroke-width="8.0"
        stroke-linejoin="round"
        stroke-linecap="round"/>
  <!-- Start/finish line -->
  <line x1="70.51" y1="359.83" x2="109.43" y2="369.08"
        stroke="#f5f5f5" stroke-width="9.6"
        stroke-linecap="round"/>
</svg>
