<?xml version="1.0" encoding="utf-8"?>
<svg xmlns="http://www.w3.org/2000/svg"
     width="800.0" height="515.2"
     viewBox="0 0 800.0 515.2">
  <rect width="100%" height="100%" fill="#1a1a2e"/>
  <!-- Track outline -->
  <polyline points="717.33,399.08 710.54,409.32 690.23,430.85 678.88,440.10 666.76,448.29 640.51,461.28 612.52,470.22 598.03,472.92 583.27,474.36 552.80,475.21 520.06,470.87 481.36,461.43 457.78,454.78 115.37,352.92 70.92,336.44 63.10,332.24 56.39,327.79 50.71,322.50 47.04,317.60 43.86,312.16 41.45,306.36 40.11,300.52 40.00,294.47 40.96,288.18 42.78,282.04 45.19,276.39 49.45,269.85 54.87,263.90 60.87,258.86 67.21,254.71 74.07,251.41 81.26,248.96 92.94,247.17 105.03,247.22 116.22,248.61 130.42,252.11 339.89,324.15 537.56,389.44 550.42,391.69 560.58,391.69 568.66,390.74 576.71,388.84 583.90,385.54 588.83,381.85 593.43,377.25 597.21,372.11 599.73,366.71 600.81,361.02 600.73,354.87 599.73,348.73 597.99,343.03 594.36,336.29 589.31,330.09 583.64,324.40 573.52,316.35 562.47,309.56 541.97,300.22 495.15,282.63 422.93,248.32 395.98,240.57 370.21,237.32 346.00,237.57 332.62,236.38 319.72,233.38 312.30,230.03 305.37,225.74 299.25,220.54 293.62,214.00 288.84,206.45 285.57,198.61 284.20,190.77 284.20,182.67 285.43,174.68 287.98,166.59 291.84,158.64 296.62,151.30 302.59,144.31 309.60,137.96 316.97,132.72 327.87,127.57 339.40,124.18 351.82,121.78 364.61,120.73 377.96,120.98 391.38,122.63 404.80,125.52 419.07,130.12 467.94,152.75 539.78,195.06 605.92,231.78 614.64,234.88 621.49,236.38 628.50,236.83 633.65,236.73 639.14,236.33 644.52,235.43 649.41,233.88 653.34,231.48 655.90,228.68 658.05,225.09 659.79,221.04 661.01,216.79 661.72,212.55 661.79,208.65 660.53,203.11 657.90,197.61 654.42,192.36 650.60,187.62 642.70,180.38 631.73,173.43 584.42,151.35 537.30,128.22 529.22,122.18 523.25,116.48 518.43,110.19 515.35,104.94 512.80,99.35 510.98,93.55 510.16,87.66 510.50,81.11 511.91,74.22 514.17,67.58 517.10,61.73 521.66,55.69 527.29,50.59 533.59,46.44 540.82,43.30 548.76,41.20 556.76,40.00 568.37,40.00 580.16,41.65 593.28,44.70 607.30,49.39 651.89,70.47 675.25,84.66 698.01,102.39 718.40,123.13 734.98,145.96 747.32,170.98 755.40,198.11 759.74,227.73 760.00,259.16 756.07,291.78 748.92,325.25 739.42,356.52 727.00,384.44 717.33,399.08"
        fill="none"
        stroke="#e94560"
        stroke-width="8.0"
        stroke-linejoin="round"
        stroke-linecap="round"/>
  <!-- Start/finish line -->
  <line x1="734.01" y1="410.12" x2="700.65" y2="388.05"
        stroke="#f5f5f5" stroke-width="9.6"
        stroke-linecap="round"/>
</svg>
