<?xml version="1.0" encoding="utf-8"?>
<svg xmlns="http://www.w3.org/2000/svg"
     width="573.9" height="800.0"
     viewBox="0 0 573.9 800.0">
  <rect width="100%" height="100%" fill="#1a1a2e"/>
  <!-- Track outline -->
  <polyline points="369.65,225.64 509.03,418.92 516.94,431.72 523.41,444.07 528.29,456.29 531.88,469.56 533.92,483.87 533.50,498.44 531.78,513.20 527.97,527.71 522.62,540.71 516.06,553.06 506.29,567.11 362.54,732.30 354.49,740.79 346.86,747.52 339.51,752.49 331.46,756.14 322.43,758.89 313.27,760.00 304.76,759.22 295.54,756.34 287.31,751.70 280.05,745.82 273.54,738.83 267.17,730.66 144.58,528.36 116.90,480.21 114.06,471.52 114.20,462.37 115.64,453.61 119.92,445.05 125.69,436.75 134.02,428.98 143.93,421.53 156.17,413.23 261.17,347.82 268.42,341.36 273.26,334.43 276.84,324.82 278.75,314.04 278.89,304.24 278.01,293.07 275.77,283.40 272.28,274.71 267.12,265.89 219.16,203.09 213.34,197.47 205.90,193.10 197.94,190.16 192.13,188.98 186.50,188.52 178.82,190.09 171.38,193.42 165.19,198.06 160.12,203.48 156.26,209.43 153.42,214.85 151.09,223.22 149.98,252.43 148.77,262.42 145.74,271.31 140.30,280.33 133.65,288.04 124.53,296.20 115.23,302.61 104.06,307.57 94.57,309.99 87.45,310.45 78.24,308.49 69.63,304.70 60.28,298.43 52.19,289.80 45.54,279.02 41.58,268.17 40.00,257.20 41.21,154.22 43.72,143.57 48.70,133.50 56.10,123.83 67.26,113.31 79.17,104.43 148.12,54.38 161.65,46.66 175.24,42.16 188.22,40.00 206.32,41.57 221.85,46.01 236.00,54.24 248.88,65.81 369.65,225.64"
        fill="none"
        stroke="#e94560"
        stroke-width="8.0"
        stroke-linejoin="round"
        stroke-linecap="round"/>
  <!-- Start/finish line -->
  <line x1="385.76" y1="213.77" x2="353.55" y2="237.50"
        stroke="#f5f5f5" stroke-width="9.6"
        stroke-linecap="round"/>
</svg>
