<?xml version="1.0" encoding="utf-8"?>
<svg xmlns="http://www.w3.org/2000/svg"
     width="800.0" height="795.0"
     viewBox="0 0 800.0 795.0">
  <rect width="100%" height="100%" fill="#1a1a2e"/>
  <!-- Track outline -->
  <polyline points="471.61,298.57 646.79,471.98 683.40,505.61 699.55,522.84 713.72,539.80 725.83,556.37 745.46,589.26 752.37,605.42 757.24,621.90 759.81,638.70 760.00,654.92 758.10,671.01 754.22,686.81 747.89,701.73 739.65,715.72 730.35,727.58 723.68,734.04 716.27,739.96 708.63,744.71 700.60,748.52 692.16,751.33 683.40,753.30 664.26,755.05 649.10,753.95 633.48,750.81 617.36,746.10 601.08,738.92 584.55,730.23 568.14,719.31 552.17,706.32 538.41,691.75 526.28,676.37 515.88,659.25 506.99,640.77 499.87,620.77 493.95,599.57 467.60,477.73 438.24,407.17 421.56,377.44 403.03,350.75 383.37,329.49 365.26,313.28 352.60,304.75 339.10,297.60 330.26,294.54 320.89,292.27 311.97,290.98 301.47,290.82 233.23,302.10 215.21,303.71 196.70,303.58 161.16,299.74 144.58,295.34 128.94,288.43 113.78,279.58 99.08,268.69 85.42,255.83 72.97,241.22 62.18,225.13 53.52,209.01 46.94,193.41 42.52,176.90 40.27,160.71 40.00,145.26 42.09,129.89 46.45,114.99 52.94,100.58 61.53,87.37 71.98,75.35 84.32,64.59 98.09,55.38 112.44,48.37 127.28,43.55 142.23,40.65 149.40,40.00 156.74,40.03 165.50,41.10 174.26,43.10 182.08,45.91 189.50,49.56 196.41,53.99 202.91,59.16 215.37,72.18 234.36,96.61 258.49,118.29 305.33,147.98 321.98,160.03 391.83,221.42 466.90,293.89 471.61,298.57"
        fill="none"
        stroke="#e94560"
        stroke-width="8.0"
        stroke-linejoin="round"
        stroke-linecap="round"/>
  <!-- Start/finish line -->
  <line x1="485.69" y1="284.36" x2="457.54" y2="312.79"
        stroke="#f5f5f5" stroke-width="9.6"
        stroke-linecap="round"/>
</svg>
