<?xml version="1.0" encoding="utf-8"?>
<svg xmlns="http://www.w3.org/2000/svg"
     width="761.1" height="800.0"
     viewBox="0 0 761.1 800.0">
  <rect width="100%" height="100%" fill="#1a1a2e"/>
  <!-- Track outline -->
  <polyline points="360.89,744.35 277.84,758.99 251.15,760.00 229.26,758.03 207.07,753.08 186.72,745.51 172.91,737.84 160.37,727.94 146.44,713.20 134.09,695.73 124.96,677.36 118.32,657.47 114.56,637.37 112.95,614.66 115.73,568.77 117.72,522.63 114.64,498.95 108.18,476.68 89.63,441.04 69.10,405.20 56.97,378.80 47.73,352.85 42.14,327.10 40.00,302.11 41.46,282.83 45.78,265.31 50.40,254.81 56.26,245.22 62.56,237.14 68.23,231.69 74.28,227.40 80.62,223.96 87.38,221.19 94.44,219.37 101.87,218.56 111.48,218.91 121.62,220.73 131.38,223.96 140.62,228.86 149.48,235.22 157.14,242.34 162.39,248.50 166.83,255.21 170.58,262.89 175.16,278.08 178.20,296.86 179.93,342.80 182.33,388.89 186.91,408.38 193.37,424.28 198.81,433.62 205.12,442.00 211.65,448.67 217.10,452.76 222.73,455.63 228.77,457.55 234.48,458.46 240.64,458.66 246.83,458.11 252.69,456.69 259.97,453.41 266.96,448.72 273.19,442.96 278.56,436.35 283.25,428.62 287.04,419.99 290.23,408.99 292.30,396.77 292.82,384.05 289.75,361.63 282.57,336.64 260.09,286.21 237.97,236.08 232.00,212.30 229.45,191.00 229.52,173.43 231.70,156.67 235.94,139.96 242.03,124.16 249.84,109.52 259.60,95.94 274.65,80.39 292.11,66.86 312.31,55.85 333.90,47.82 358.04,42.37 381.92,40.00 400.80,40.40 418.90,43.03 436.84,47.77 454.19,54.54 470.30,63.02 485.39,73.37 498.23,84.27 510.39,97.85 525.26,120.62 540.39,148.99 566.97,203.06 588.19,256.17 592.47,276.21 593.07,294.03 591.56,305.90 588.60,317.46 584.51,328.16 579.03,338.06 572.34,347.09 565.36,354.51 559.20,359.41 552.78,363.10 546.21,365.82 539.60,367.69 532.81,368.60 525.79,368.45 517.30,366.93 508.48,364.06 500.18,359.87 492.56,354.41 485.43,347.75 479.16,340.08 474.05,332.10 469.77,323.16 466.35,312.11 466.17,290.65 467.97,260.21 461.59,225.58 453.14,198.42 442.21,176.31 436.21,167.22 429.82,159.65 422.92,153.39 415.52,148.19 407.67,144.25 399.71,141.88 393.78,141.32 387.74,141.67 381.77,142.84 376.02,144.80 368.70,148.64 361.72,153.84 355.56,160.15 350.42,167.32 346.02,175.50 342.76,184.28 340.69,193.62 339.79,203.52 340.02,213.82 343.13,231.99 350.45,253.24 391.60,326.55 434.22,400.56 443.75,423.58 449.12,444.12 451.22,465.33 449.98,486.13 447.17,499.00 442.93,511.37 437.48,522.78 430.42,533.58 422.13,543.37 413.49,551.65 401.52,560.13 388.83,566.24 375.01,570.74 360.14,573.16 340.69,572.86 319.41,570.38 288.84,564.12 259.97,559.38 250.59,559.58 242.33,560.69 234.22,563.06 225.06,567.05 216.01,572.30 208.39,578.41 203.81,583.56 200.09,589.16 197.35,595.22 195.66,601.18 194.80,607.49 194.98,613.95 196.97,622.13 200.58,630.51 205.01,638.28 210.86,645.91 217.81,652.77 225.32,658.73 238.57,666.45 252.99,671.80 267.48,674.73 285.47,674.78 365.17,661.10 448.82,638.03 477.99,624.80 501.16,609.56 517.26,595.57 532.02,577.80 554.02,535.85 575.61,494.96 584.43,484.31 593.03,476.28 602.11,469.67 611.88,464.27 622.09,460.28 631.93,457.80 639.73,456.95 647.28,457.25 655.01,458.66 664.63,461.74 674.54,466.39 683.77,472.34 692.11,479.56 699.84,488.04 706.53,497.59 712.08,508.04 716.63,519.55 719.70,531.56 721.09,544.43 720.98,557.86 719.40,571.09 713.81,591.43 705.17,610.77 693.01,629.75 678.29,646.76 660.05,662.57 639.85,676.10 616.87,688.16 592.58,698.06 539.00,712.65 510.51,718.00 360.89,744.35"
        fill="none"
        stroke="#e94560"
        stroke-width="8.0"
        stroke-linejoin="round"
        stroke-linecap="round"/>
  <!-- Start/finish line -->
  <line x1="364.36" y1="764.05" x2="357.42" y2="724.65"
        stroke="#f5f5f5" stroke-width="9.6"
        stroke-linecap="round"/>
</svg>
