<?xml version="1.0" encoding="utf-8"?>
<svg xmlns="http://www.w3.org/2000/svg"
     width="800.0" height="692.7"
     viewBox="0 0 800.0 692.7">
  <rect width="100%" height="100%" fill="#1a1a2e"/>
  <!-- Track outline -->
  <polyline points="193.20,368.58 358.56,501.62 396.78,538.63 429.13,581.49 455.66,615.59 467.67,626.60 480.05,635.49 493.10,642.80 506.56,648.20 520.34,651.51 534.30,652.72 548.60,651.75 562.16,648.84 571.77,645.41 581.03,640.22 594.16,629.63 606.35,616.68 614.19,605.40 620.31,592.93 625.00,577.67 627.37,562.29 627.33,554.86 626.44,547.82 624.79,541.45 622.37,535.93 619.29,531.02 615.96,527.07 613.80,525.19 611.56,523.74 609.20,522.68 606.68,521.89 603.38,521.31 599.81,521.16 596.19,521.49 592.74,522.34 588.57,524.28 584.56,527.14 580.45,530.84 571.68,542.58 562.64,554.44 557.69,558.53 552.67,561.66 547.43,564.08 541.62,565.99 535.55,567.15 529.45,567.51 523.25,567.05 517.05,565.81 511.00,563.72 502.47,559.17 494.09,552.56 483.20,540.63 472.84,526.13 463.80,510.06 456.15,492.43 449.95,472.81 445.73,452.57 444.09,434.19 444.35,416.39 446.16,401.25 449.41,386.84 454.26,372.52 460.46,359.15 467.87,347.19 476.44,336.30 487.40,325.08 498.85,315.68 507.85,310.06 516.77,306.27 522.52,304.76 528.27,303.94 533.85,304.06 539.01,305.06 544.03,306.85 548.62,309.49 552.60,312.86 556.24,316.95 559.00,321.35 560.48,325.05 561.41,328.96 561.73,333.09 561.24,338.52 559.90,344.22 557.94,349.62 553.64,356.93 547.50,364.09 529.69,378.44 512.33,393.27 508.44,398.70 505.53,404.01 503.57,409.59 502.54,415.08 502.26,420.75 502.82,426.12 504.32,431.16 506.69,435.89 509.56,439.96 512.25,442.62 515.31,444.87 518.62,446.66 522.02,447.99 527.06,448.99 532.40,449.06 538.33,448.60 554.15,444.96 570.39,441.56 580.79,441.96 590.55,444.02 599.81,447.36 610.29,452.94 642.96,477.05 676.30,500.96 688.57,506.48 699.53,509.30 707.15,510.33 714.76,510.57 721.80,509.88 726.88,508.63 731.57,506.78 736.16,504.14 741.35,500.23 746.43,495.41 750.83,489.92 754.27,484.03 757.11,477.57 759.03,471.14 759.85,465.95 760.00,460.79 759.48,455.49 757.87,448.60 755.24,441.56 751.82,434.77 743.72,424.00 732.67,412.99 670.22,362.00 556.01,252.43 502.02,202.20 485.57,192.40 470.77,186.30 461.15,183.75 451.67,182.87 439.35,183.81 425.98,186.36 407.31,192.06 388.99,197.28 377.49,198.47 366.89,197.95 356.96,195.80 347.96,192.22 343.83,189.73 340.08,186.85 336.76,183.51 333.97,179.90 331.49,175.90 329.59,171.59 328.34,167.22 327.59,162.61 327.48,157.76 329.14,148.54 332.48,138.65 339.91,123.81 346.95,109.25 349.10,100.94 349.92,92.96 349.49,84.56 347.83,76.37 344.84,68.42 340.75,61.20 335.52,54.83 329.51,49.59 322.79,45.46 315.34,42.52 308.64,40.91 301.41,40.00 293.85,40.00 280.73,41.82 265.49,46.95 223.71,69.94 182.75,97.73 167.85,110.28 156.44,122.75 148.79,133.94 143.17,145.23 140.44,153.60 139.08,161.91 139.12,170.04 140.41,177.96 143.06,185.60 147.03,192.79 151.42,198.50 156.69,203.90 162.40,208.57 168.39,212.48 174.87,215.57 183.03,218.15 223.47,222.25 270.31,223.95 339.31,228.16 381.41,235.75 393.18,239.72 403.43,244.72 411.94,250.55 419.09,257.28 422.00,260.98 424.41,264.87 426.28,269.02 427.57,273.33 428.37,277.88 428.59,282.43 428.16,286.98 427.12,291.50 425.51,295.93 422.62,301.39 418.85,306.70 414.63,311.43 406.97,317.53 398.12,322.35 385.93,326.84 371.78,330.12 347.32,333.33 321.97,334.57 304.23,334.00 287.28,331.75 269.77,327.66 252.07,321.50 211.39,299.99 146.51,253.16 92.97,213.18 84.94,209.29 77.81,206.84 71.14,205.65 65.93,205.59 61.02,206.35 56.39,208.02 53.20,209.75 50.08,211.93 47.26,214.54 44.89,217.55 43.10,220.76 41.62,224.40 40.54,228.22 40.00,232.08 40.22,237.35 41.34,242.75 43.14,248.06 46.20,254.16 50.36,260.10 55.91,266.41 117.91,312.86 191.64,367.34 193.20,368.58"
        fill="none"
        stroke="#e94560"
        stroke-width="8.0"
        stroke-linejoin="round"
        stroke-linecap="round"/>
  <!-- Start/finish line -->
  <line x1="205.73" y1="353.00" x2="180.66" y2="384.16"
        stroke="#f5f5f5" stroke-width="9.6"
        stroke-linecap="round"/>
</svg>
