<?xml version="1.0" encoding="utf-8"?>
<svg xmlns="http://www.w3.org/2000/svg"
     width="800.0" height="729.4"
     viewBox="0 0 800.0 729.4">
  <rect width="100%" height="100%" fill="#1a1a2e"/>
  <!-- Track outline -->
  <polyline points="444.09,561.70 342.47,642.10 309.03,666.88 290.52,678.81 278.36,684.63 267.84,687.86 259.33,688.94 251.63,689.37 246.15,688.73 238.30,687.36 231.37,684.13 223.06,678.16 216.76,672.56 209.57,663.29 201.98,651.22 193.01,634.05 50.10,270.71 45.08,257.85 41.95,243.48 40.00,230.62 40.51,220.84 43.95,210.07 49.54,198.86 56.77,188.80 65.75,178.67 74.47,170.55 84.83,163.65 95.70,158.34 107.09,154.46 119.20,153.16 128.69,153.23 139.35,155.53 148.74,159.49 159.62,166.10 170.80,175.58 179.77,186.14 187.16,197.92 192.29,210.93 195.16,225.01 197.78,243.69 209.78,405.86 213.01,427.63 219.22,453.99 226.60,479.43 233.27,496.03 244.09,517.01 253.33,529.72 262.15,537.84 272.25,544.45 284.41,548.84 295.18,550.56 304.88,549.34 316.47,546.54 329.55,540.79 343.19,533.32 359.76,522.32 378.48,508.46 401.46,488.77 428.49,462.76 437.47,453.28 447.52,441.06 457.88,426.76 467.58,412.32 475.63,399.82 481.94,389.91 487.99,382.07 494.51,375.75 502.56,368.93 513.43,359.87 529.49,349.31 550.31,337.53 601.76,315.47 623.66,303.47 635.61,293.48 643.56,284.14 651.31,269.85 654.70,259.00 653.36,248.65 649.67,239.45 643.92,230.69 637.00,223.50 628.07,215.31 616.38,209.28 609.10,208.06 599.91,207.62 587.66,208.99 569.09,212.73 549.08,219.48 524.00,232.77 497.53,249.01 476.25,263.67 460.19,278.68 444.75,297.65 429.31,319.28 410.28,346.80 397.05,367.27 386.59,382.29 377.46,392.49 367.20,400.40 354.63,404.42 343.86,405.93 333.81,404.28 324.57,398.96 316.67,391.99 310.01,383.44 303.08,373.81 300.16,363.54 300.26,354.05 303.13,342.41 308.21,332.79 314.06,322.51 322.16,308.64 328.57,294.13 331.65,277.82 331.29,263.67 328.88,251.67 326.37,240.46 319.29,223.43 313.44,210.43 307.54,195.55 303.29,181.26 302.16,167.60 304.88,154.17 310.31,138.58 317.85,126.36 327.75,114.79 337.19,106.96 346.01,101.57 354.79,99.06 364.48,97.69 374.94,98.84 386.69,101.57 400.28,106.53 418.49,114.15 466.09,134.27 484.09,139.87 497.38,141.52 507.74,141.02 520.56,138.00 532.52,133.04 550.83,123.20 566.37,112.28 576.83,102.22 590.01,87.56 602.27,74.20 622.12,56.88 633.97,49.56 650.39,42.44 664.08,40.00 679.62,41.80 691.93,49.77 704.50,62.06 713.58,73.84 721.27,86.13 729.69,105.60 734.92,123.49 738.92,138.43 758.46,232.34 760.00,253.25 757.49,269.85 752.05,284.29 745.69,296.93 738.87,307.42 730.61,317.77 721.27,328.26 709.84,340.40 698.50,350.46 444.09,561.70"
        fill="none"
        stroke="#e94560"
        stroke-width="8.0"
        stroke-linejoin="round"
        stroke-linecap="round"/>
  <!-- Start/finish line -->
  <line x1="456.76" y1="577.17" x2="431.41" y2="546.22"
        stroke="#f5f5f5" stroke-width="9.6"
        stroke-linecap="round"/>
</svg>
