<?xml version="1.0" encoding="utf-8"?>
<svg xmlns="http://www.w3.org/2000/svg"
     width="800.0" height="631.9"
     viewBox="0 0 800.0 631.9">
  <rect width="100%" height="100%" fill="#1a1a2e"/>
  <!-- Track outline -->
  <polyline points="310.26,129.74 385.47,171.00 416.98,183.88 445.55,191.98 470.29,195.92 494.12,196.23 516.42,192.86 537.66,186.07 555.61,176.70 573.94,163.69 606.24,133.95 637.95,104.91 653.96,93.96 668.97,86.69 679.16,83.54 689.43,81.70 699.50,81.17 708.88,81.96 718.03,83.89 726.17,86.91 731.63,89.97 736.43,93.70 740.85,98.38 745.39,104.60 749.44,111.92 752.65,120.33 755.36,138.02 756.47,160.27 760.00,284.13 757.06,305.51 752.09,323.68 744.15,343.61 734.05,362.62 722.57,380.05 706.95,398.84 639.22,466.38 571.26,525.24 561.62,531.29 553.84,534.88 546.45,537.11 540.31,538.16 534.39,538.30 528.67,537.59 523.34,536.24 518.21,534.13 513.28,531.03 507.85,526.21 502.72,520.12 498.54,513.33 495.56,505.93 493.50,497.83 492.65,489.64 493.17,481.36 494.91,473.04 497.82,465.02 503.08,455.87 510.04,447.19 518.15,438.79 559.73,408.61 642.52,355.31 656.55,342.43 666.84,329.29 671.74,320.49 675.67,311.24 678.18,302.31 679.03,295.83 679.03,289.52 678.25,283.52 676.68,277.69 674.36,272.18 671.45,267.14 667.79,262.45 663.47,258.38 658.83,254.96 653.60,252.12 647.98,250.01 641.97,248.79 634.02,248.44 625.49,249.36 617.26,251.50 609.80,254.66 602.64,259.04 595.13,265.56 574.04,295.30 553.42,327.36 542.37,341.33 531.94,352.02 525.89,356.71 519.85,360.43 513.38,363.23 505.30,365.29 496.74,366.21 488.79,365.95 483.07,364.90 477.78,363.01 472.91,360.39 468.86,357.45 465.16,353.82 461.50,348.69 455.32,333.49 449.21,313.83 442.15,296.62 435.45,286.32 428.13,277.74 419.66,269.94 399.85,257.02 378.87,247.39 363.83,242.52 349.48,240.33 340.59,240.47 331.90,241.65 324.02,243.84 318.40,246.25 313.33,249.36 308.62,253.43 303.62,259.34 299.01,266.44 295.55,274.15 293.42,282.29 292.38,290.97 292.44,299.64 293.59,307.92 295.94,316.19 299.76,325.48 323.59,361.22 352.03,403.13 374.29,450.48 390.96,494.63 396.65,513.64 399.30,530.54 399.30,540.75 398.12,550.69 395.77,559.80 392.04,567.82 387.20,575.00 381.94,580.87 377.14,584.77 372.00,587.61 366.68,589.72 361.12,591.20 355.37,591.90 349.38,591.69 341.96,590.20 334.25,587.44 327.12,583.50 320.95,578.50 315.29,572.37 310.36,565.10 304.64,551.52 299.47,533.43 266.26,390.30 238.44,309.01 210.20,242.74 199.74,225.49 189.15,213.09 181.24,205.51 172.74,198.99 162.61,193.43 129.53,185.45 96.91,179.85 84.85,176.39 74.75,172.10 65.46,165.96 57.23,158.30 50.56,149.63 45.26,139.82 41.77,129.52 40.00,118.27 40.10,108.54 41.31,98.25 43.43,88.92 46.01,82.05 49.28,75.96 53.34,70.22 59.55,63.52 66.87,57.43 74.68,52.22 87.76,46.00 101.68,42.01 116.55,40.00 132.18,40.74 151.30,45.83 172.97,54.85 265.18,105.00 310.26,129.74"
        fill="none"
        stroke="#e94560"
        stroke-width="8.0"
        stroke-linejoin="round"
        stroke-linecap="round"/>
  <!-- Start/finish line -->
  <line x1="319.88" y1="112.21" x2="300.64" y2="147.28"
        stroke="#f5f5f5" stroke-width="9.6"
        stroke-linecap="round"/>
</svg>
