<?xml version="1.0" encoding="utf-8"?>
<svg xmlns="http://www.w3.org/2000/svg"
     width="800.0" height="619.5"
     viewBox="0 0 800.0 619.5">
  <rect width="100%" height="100%" fill="#1a1a2e"/>
  <!-- Track outline -->
  <polyline points="224.17,280.17 338.11,158.56 394.69,100.42 418.22,81.81 441.42,66.91 462.23,56.49 483.21,48.75 505.20,43.34 527.49,40.45 548.06,40.00 571.97,42.12 648.84,58.52 713.89,77.13 721.49,81.36 725.32,86.45 730.38,97.85 733.75,109.21 736.28,120.61 737.98,135.02 737.98,147.69 736.28,162.91 734.58,170.53 732.05,175.17 727.82,179.40 719.35,181.97 707.53,184.49 696.99,185.75 681.77,185.31 670.00,184.04 656.10,181.07 644.30,176.88 635.84,172.64 626.95,167.55 620.15,162.51 614.22,158.72 608.26,154.04 602.33,150.66 586.67,145.33 565.79,141.70 546.06,141.05 525.89,143.29 505.54,148.70 483.17,157.95 459.11,172.93 411.00,218.24 364.45,268.77 340.61,294.50 323.16,317.14 318.74,325.56 315.65,333.50 313.86,341.32 313.34,347.87 313.74,354.31 315.00,360.86 317.88,369.53 322.01,378.33 326.77,385.94 331.28,391.19 336.25,395.43 342.12,399.21 351.88,404.10 363.31,408.09 376.22,410.98 409.36,411.79 448.21,409.84 568.51,406.66 581.98,403.77 593.31,399.09 610.58,388.71 626.11,376.09 633.43,367.62 639.39,357.56 647.21,335.25 654.34,314.08 658.05,307.69 661.94,302.80 666.26,298.20 671.45,294.13 678.37,290.22 686.49,286.68 694.46,284.32 700.95,283.42 707.28,283.47 713.52,284.36 719.79,286.15 725.93,288.80 731.77,292.10 736.99,295.76 741.93,300.04 746.38,305.25 750.86,312.33 754.78,320.47 757.68,329.11 759.97,342.66 760.00,357.16 756.97,375.64 751.20,394.33 742.83,412.00 731.00,430.93 656.69,526.44 646.31,538.53 636.86,547.65 625.22,555.96 612.28,562.80 594.55,569.64 574.93,574.77 524.38,579.45 370.81,579.04 317.57,577.05 304.38,573.87 293.51,569.23 288.60,566.22 284.30,562.72 280.57,558.36 276.12,549.04 272.63,538.17 269.51,524.37 265.62,510.97 261.51,503.81 256.54,497.50 251.23,492.37 246.19,488.95 240.88,486.54 235.07,484.91 227.01,483.98 218.27,484.26 209.59,485.44 197.18,488.70 184.91,494.40 171.39,504.66 157.83,517.57 141.80,535.68 126.39,552.17 117.09,558.85 107.98,563.21 101.43,565.20 94.70,566.42 88.06,566.71 81.82,566.14 75.67,564.79 69.87,562.64 64.65,559.83 59.74,556.33 55.26,552.17 51.37,547.65 47.91,542.52 45.03,536.66 42.47,528.56 40.68,519.40 40.00,510.16 40.59,500.63 42.32,490.98 45.07,481.70 50.53,469.53 60.32,455.07 224.17,280.17"
        fill="none"
        stroke="#e94560"
        stroke-width="8.0"
        stroke-linejoin="round"
        stroke-linecap="round"/>
  <!-- Start/finish line -->
  <line x1="209.57" y1="266.49" x2="238.77" y2="293.84"
        stroke="#f5f5f5" stroke-width="9.6"
        stroke-linecap="round"/>
</svg>
