<?xml version="1.0" encoding="utf-8"?>
<svg xmlns="http://www.w3.org/2000/svg"
     width="319.8" height="800.0"
     viewBox="0 0 319.8 800.0">
  <rect width="100%" height="100%" fill="#1a1a2e"/>
  <!-- Track outline -->
  <polyline points="185.99,303.26 178.19,325.89 147.42,411.16 143.97,425.01 142.77,436.07 143.16,440.78 144.15,445.01 145.68,448.88 147.62,452.34 150.04,455.48 152.97,458.08 156.93,460.24 161.51,461.77 166.10,462.63 170.31,462.73 174.54,462.24 178.71,461.28 185.15,458.94 191.63,455.27 201.04,446.75 210.06,437.94 215.24,433.97 220.30,430.85 225.67,428.31 231.38,426.49 238.36,425.45 245.50,425.58 250.13,426.49 254.69,427.99 258.94,430.05 262.88,432.75 266.54,436.00 269.65,439.53 272.96,444.83 275.47,450.60 277.60,457.01 279.04,463.80 279.83,470.50 279.85,478.79 269.49,557.38 267.84,570.78 264.78,577.12 261.07,583.10 251.88,593.78 241.27,603.73 231.53,611.05 220.77,617.52 209.11,622.61 197.24,626.15 191.51,627.24 185.62,627.73 178.69,627.32 171.86,625.97 167.77,624.67 163.87,622.98 160.50,620.64 158.27,618.17 156.33,615.21 154.81,612.01 153.81,608.79 153.44,605.47 153.59,601.99 154.19,598.53 155.20,595.31 156.64,592.30 158.52,589.41 160.75,586.81 163.27,584.61 169.63,581.70 176.62,579.75 189.67,576.29 195.65,573.75 201.10,570.45 204.26,567.74 207.11,564.65 209.36,561.27 210.64,558.62 211.61,555.79 212.25,552.88 212.42,549.95 212.06,546.70 211.20,543.32 209.90,540.07 208.18,537.19 205.95,534.64 203.23,532.36 200.22,530.41 197.14,528.88 193.36,527.50 189.34,526.77 184.43,526.67 159.55,531.37 135.24,538.54 129.29,540.91 124.50,543.66 118.81,548.08 113.61,553.14 109.77,557.79 106.44,562.68 100.64,573.54 91.09,600.12 83.00,627.37 81.20,640.28 80.83,646.26 81.10,652.23 82.48,659.12 84.98,665.74 87.37,669.64 90.30,673.20 93.65,676.32 99.69,680.01 106.22,682.71 112.06,684.37 117.98,685.36 124.24,685.93 130.59,685.85 136.99,684.94 144.24,683.05 183.70,667.25 196.69,663.30 203.04,662.31 209.32,662.11 215.24,662.70 221.00,664.31 225.15,666.29 229.20,668.86 232.68,671.93 235.43,675.41 237.64,679.36 239.37,683.49 240.69,687.83 241.54,692.32 241.77,696.87 241.27,701.54 240.14,706.22 238.59,710.64 235.72,716.22 232.07,721.26 227.54,725.78 222.36,729.76 216.36,733.27 209.88,736.28 195.10,741.29 100.54,758.91 85.31,760.00 78.39,759.32 71.77,757.84 65.68,755.64 60.10,752.60 55.34,748.72 51.27,744.13 47.95,738.72 45.30,732.80 43.22,726.20 41.69,719.26 40.00,704.27 44.79,597.31 47.06,582.81 50.88,568.99 72.96,502.01 80.48,450.49 79.82,381.67 81.39,366.76 84.65,353.12 87.08,346.80 90.20,340.91 93.89,335.97 98.54,331.09 108.53,322.69 118.56,314.10 123.18,308.82 127.50,302.69 139.28,283.20 149.69,263.28 152.18,256.65 153.61,250.75 154.50,244.42 154.64,238.08 154.10,231.97 152.62,226.02 150.84,221.94 148.53,218.02 145.79,214.54 140.93,210.69 135.53,207.42 124.13,200.74 119.12,196.38 114.78,191.36 111.36,185.39 108.71,179.02 105.66,167.33 103.82,153.98 102.91,125.66 105.54,84.43 106.24,77.39 107.50,71.49 110.01,65.69 113.46,60.42 117.75,55.80 122.71,51.95 126.14,49.98 129.75,48.39 133.57,47.40 140.21,47.40 147.02,48.34 159.37,50.65 173.55,51.54 185.35,50.37 196.71,47.40 207.75,43.43 219.10,40.23 224.06,40.00 228.68,40.42 233.12,41.48 237.56,43.30 241.81,45.79 245.59,48.63 249.82,52.96 253.24,57.98 255.39,62.24 257.16,66.86 258.26,71.44 258.47,76.84 257.60,83.18 244.00,135.17 185.99,303.26"
        fill="none"
        stroke="#e94560"
        stroke-width="8.0"
        stroke-linejoin="round"
        stroke-linecap="round"/>
  <!-- Start/finish line -->
  <line x1="204.90" y1="309.78" x2="167.09" y2="296.74"
        stroke="#f5f5f5" stroke-width="9.6"
        stroke-linecap="round"/>
</svg>
