<?xml version="1.0" encoding="utf-8"?>
<svg xmlns="http://www.w3.org/2000/svg"
     width="800.0" height="417.2"
     viewBox="0 0 800.0 417.2">
  <rect width="100%" height="100%" fill="#1a1a2e"/>
  <!-- Track outline -->
  <polyline points="153.56,273.41 67.02,202.56 58.92,194.81 53.31,187.98 47.18,178.13 42.53,167.85 40.69,160.03 40.00,153.35 40.00,151.07 40.38,148.79 42.80,140.69 46.87,131.83 50.78,126.69 55.45,122.09 60.51,117.99 69.51,112.49 78.75,107.91 100.89,101.66 123.60,95.71 189.00,81.36 233.38,76.80 280.52,78.91 296.65,81.71 311.22,85.74 322.51,90.09 333.20,95.71 344.91,103.81 355.94,113.30 365.00,122.97 372.60,133.17 377.25,141.81 380.68,150.21 382.48,156.03 383.59,161.68 384.07,167.37 383.97,173.07 383.38,178.64 382.17,183.98 380.22,188.96 377.60,193.54 375.19,196.71 372.43,199.65 369.79,201.85 367.22,203.06 364.71,203.72 362.11,204.23 359.49,204.48 356.80,204.45 354.10,204.15 351.52,203.67 348.57,202.68 340.17,198.28 329.67,191.14 309.28,171.67 288.09,151.96 275.33,143.91 262.76,138.41 248.20,134.34 232.77,132.26 213.72,132.31 195.03,134.59 181.13,138.16 169.15,142.84 162.52,146.41 156.76,150.82 150.42,157.65 145.54,164.49 144.35,167.07 143.62,169.50 143.07,172.00 142.74,174.56 142.68,177.12 142.88,179.70 143.28,182.26 144.06,184.89 146.40,189.52 149.19,193.75 150.94,195.67 152.74,197.16 154.77,198.63 156.91,199.90 159.17,201.04 161.76,201.97 166.79,202.99 172.36,203.29 177.84,202.40 182.82,200.91 185.46,199.80 188.01,198.35 192.52,194.94 197.52,191.34 203.17,188.63 208.57,186.61 211.56,185.62 214.68,185.07 221.42,184.99 228.81,186.05 235.74,188.53 242.33,192.15 248.20,196.53 253.32,201.87 256.95,207.59 259.92,214.58 263.02,229.36 266.35,244.17 270.11,251.64 274.63,257.69 279.99,263.10 286.29,267.61 295.25,271.96 306.08,275.00 328.98,276.92 353.17,275.78 369.31,272.52 383.90,267.38 395.67,261.51 406.47,254.17 416.33,245.33 425.12,235.06 432.30,224.27 438.12,211.47 442.66,188.13 446.01,165.12 451.29,145.98 455.24,137.68 460.03,130.21 465.52,123.91 472.32,118.11 485.91,109.48 504.24,100.07 627.20,47.16 640.14,43.19 650.73,41.14 661.89,40.00 671.96,40.15 677.30,41.14 682.19,42.81 688.03,45.42 693.20,48.45 695.57,50.38 697.54,52.43 699.32,54.61 700.89,56.96 702.18,59.41 703.21,62.02 704.00,64.76 704.53,67.62 704.90,70.55 704.86,73.74 703.69,79.69 701.68,85.79 699.59,90.35 696.62,94.70 688.05,102.75 677.02,110.55 646.25,124.95 570.24,153.48 560.01,158.87 552.06,164.49 545.34,170.81 540.06,177.57 537.57,182.69 536.06,187.42 535.60,189.90 535.46,192.20 535.52,194.58 535.81,196.94 536.27,199.24 537.09,201.57 539.47,205.47 542.64,209.21 546.63,212.38 550.67,214.78 552.95,215.95 555.59,216.78 565.52,218.33 578.18,218.71 595.85,216.55 614.10,211.97 629.42,205.59 644.75,197.16 665.76,182.56 685.86,168.92 696.91,163.70 707.21,160.51 717.90,159.04 727.58,159.07 732.58,159.90 736.81,161.27 739.72,162.59 742.37,164.16 747.23,167.73 751.35,172.00 753.11,174.31 754.75,176.99 757.01,181.67 758.87,187.22 759.94,194.10 760.00,201.67 758.41,211.74 755.40,222.02 750.89,232.58 745.31,242.12 739.82,248.93 733.23,254.95 721.27,263.18 706.71,270.92 657.30,289.33 548.91,317.04 530.33,320.03 514.36,320.97 483.71,317.30 456.60,314.54 443.48,316.34 430.54,320.16 417.63,326.18 404.40,334.36 385.58,349.42 367.14,363.82 356.08,369.77 345.41,373.72 333.73,376.22 321.84,377.21 309.86,376.88 297.97,375.09 286.92,371.97 275.43,367.04 238.61,343.04 153.56,273.41"
        fill="none"
        stroke="#e94560"
        stroke-width="8.0"
        stroke-linejoin="round"
        stroke-linecap="round"/>
  <!-- Start/finish line -->
  <line x1="140.89" y1="288.88" x2="166.23" y2="257.93"
        stroke="#f5f5f5" stroke-width="9.6"
        stroke-linecap="round"/>
</svg>
