<?xml version="1.0" encoding="utf-8"?>
<svg xmlns="http://www.w3.org/2000/svg"
     width="800.0" height="713.8"
     viewBox="0 0 800.0 713.8">
  <rect width="100%" height="100%" fill="#1a1a2e"/>
  <!-- Track outline -->
  <polyline points="332.67,267.95 395.59,338.71 409.11,352.74 437.26,380.63 450.92,391.92 458.50,396.58 465.90,399.72 469.92,401.09 474.07,402.11 483.02,402.45 489.51,402.20 497.40,401.26 545.92,390.19 554.78,389.15 558.86,389.28 562.93,389.79 567.23,390.61 571.56,391.88 576.07,393.87 580.49,396.35 588.70,402.35 596.86,410.25 606.58,423.39 615.92,438.53 628.94,461.75 647.52,493.19 663.75,517.60 681.79,537.52 701.74,554.65 735.38,575.90 743.39,581.44 747.62,586.18 751.75,591.61 756.49,601.73 758.81,607.45 759.56,610.59 759.99,613.89 760.00,617.59 759.69,621.31 759.22,624.67 758.42,627.96 755.01,635.13 750.38,643.25 747.61,646.54 744.51,649.57 736.43,656.25 729.90,660.14 722.82,663.60 709.01,668.31 691.38,672.29 672.37,673.79 654.41,673.06 637.46,669.61 619.28,663.29 600.31,653.76 292.32,459.38 275.11,448.05 263.41,439.06 253.60,428.60 244.27,416.01 237.57,405.00 233.61,395.56 230.60,385.47 229.15,374.38 229.54,360.15 234.52,326.56 236.01,315.28 236.27,304.91 235.67,296.56 234.23,288.47 231.76,279.88 228.86,272.47 224.44,264.52 218.53,257.02 213.71,252.29 208.31,247.91 202.64,244.35 196.51,241.41 179.69,236.44 119.05,223.17 103.30,217.84 96.48,215.03 89.74,211.40 81.06,204.81 73.13,197.39 68.76,192.30 65.06,186.93 61.40,180.62 58.22,173.62 53.27,155.80 43.61,117.53 41.17,105.40 40.00,93.31 40.42,86.60 41.46,80.15 42.80,75.24 44.55,70.81 49.03,63.31 53.76,56.90 58.70,51.97 65.03,47.65 72.85,43.81 78.23,41.81 86.38,40.45 95.65,40.00 105.11,40.98 114.06,42.73 121.91,45.39 129.23,48.72 144.90,59.40 154.71,67.83 332.67,267.95"
        fill="none"
        stroke="#e94560"
        stroke-width="8.0"
        stroke-linejoin="round"
        stroke-linecap="round"/>
  <!-- Start/finish line -->
  <line x1="347.62" y1="254.66" x2="317.73" y2="281.25"
        stroke="#f5f5f5" stroke-width="9.6"
        stroke-linecap="round"/>
</svg>
