<?xml version="1.0" encoding="utf-8"?>
<svg xmlns="http://www.w3.org/2000/svg"
     width="800.0" height="572.1"
     viewBox="0 0 800.0 572.1">
  <rect width="100%" height="100%" fill="#1a1a2e"/>
  <!-- Track outline -->
  <polyline points="427.00,54.92 380.53,48.79 294.19,40.00 239.20,40.21 228.96,41.23 218.74,43.46 189.29,53.56 161.34,65.21 147.84,73.06 104.68,107.46 92.46,120.16 77.94,139.75 63.64,162.60 55.26,180.31 48.83,197.99 41.51,230.55 40.00,248.28 40.78,290.83 43.14,308.75 47.24,326.76 55.46,351.81 66.46,376.59 81.20,399.66 95.83,418.41 108.07,430.95 141.03,456.81 158.36,466.45 194.53,481.05 231.90,489.81 511.95,531.05 541.26,532.07 564.74,530.32 588.46,525.85 608.67,520.14 623.42,513.74 669.46,485.18 690.38,467.07 707.68,449.49 719.41,434.19 740.83,396.31 753.04,359.82 759.06,324.96 760.00,301.68 759.00,282.34 755.92,260.85 746.74,229.66 735.89,201.64 725.26,182.51 715.92,168.76 690.00,140.93 655.10,111.72 639.02,101.60 621.65,93.26 566.57,78.29 431.20,55.49 427.00,54.92"
        fill="none"
        stroke="#e94560"
        stroke-width="8.0"
        stroke-linejoin="round"
        stroke-linecap="round"/>
  <!-- Start/finish line -->
  <line x1="424.37" y1="74.75" x2="429.62" y2="35.10"
        stroke="#f5f5f5" stroke-width="9.6"
        stroke-linecap="round"/>
</svg>
