<?xml version="1.0" encoding="utf-8"?>
<svg xmlns="http://www.w3.org/2000/svg"
     width="800.0" height="428.6"
     viewBox="0 0 800.0 428.6">
  <rect width="100%" height="100%" fill="#1a1a2e"/>
  <!-- Track outline -->
  <polyline points="369.31,110.03 346.81,110.19 315.38,110.84 307.59,109.19 300.95,106.43 296.82,104.04 293.03,101.15 289.93,97.71 288.04,94.42 286.58,90.66 285.59,86.75 285.09,82.93 285.31,78.09 286.33,73.28 288.04,68.75 290.49,64.49 293.59,60.52 297.13,56.95 303.27,52.23 310.16,48.41 318.08,45.53 326.24,43.45 340.92,40.84 355.66,40.00 373.34,40.78 538.18,56.02 622.90,68.99 653.65,76.41 679.88,88.33 691.98,95.91 703.24,104.41 713.64,113.91 723.13,124.28 731.30,135.77 738.56,148.06 743.21,161.44 747.31,177.61 749.88,193.54 759.57,283.41 760.00,294.89 757.98,312.84 753.24,329.72 750.01,337.80 746.13,345.49 741.51,352.66 736.14,359.31 729.96,365.33 723.13,370.67 715.78,375.26 707.96,379.14 691.26,384.92 673.24,387.99 654.58,388.58 466.10,368.53 450.89,364.99 444.00,362.23 437.58,358.72 431.90,354.59 426.84,350.15 422.37,345.71 419.30,341.40 416.97,336.65 415.73,332.77 415.33,328.17 416.57,323.02 418.56,317.15 421.38,311.91 424.30,307.53 428.11,303.06 432.30,299.67 438.01,296.14 445.68,292.10 453.72,289.21 460.92,287.97 468.18,287.78 483.29,290.30 565.74,309.05 590.04,310.26 609.62,309.17 617.10,307.87 623.52,306.04 636.90,300.98 649.56,293.75 661.01,284.87 670.44,274.28 678.04,262.36 681.06,255.93 683.48,249.29 686.45,235.48 687.17,221.14 686.58,213.72 685.34,206.33 683.44,199.03 680.90,191.96 677.83,185.25 674.17,178.92 669.85,172.99 664.98,167.49 659.74,162.43 654.06,157.93 647.88,154.14 641.37,150.98 634.54,148.40 627.46,146.48 620.14,145.14 612.66,144.46 597.46,145.08 582.31,148.15 567.57,153.49 553.55,161.01 501.35,204.31 487.35,214.77 472.09,224.12 441.49,238.77 403.63,257.80 385.51,268.69 371.73,281.33 361.24,296.01 354.72,311.38 349.36,323.70 344.05,331.93 337.60,339.01 325.52,344.53 312.74,348.19 298.84,349.96 280.34,348.88 196.15,341.05 179.67,338.35 165.49,333.67 153.58,328.73 142.50,325.50 132.47,324.51 120.09,322.93 62.19,316.59 55.11,314.23 49.71,310.23 44.93,304.49 41.86,297.90 40.22,290.21 40.00,282.82 42.33,275.99 47.79,270.06 55.48,266.71 64.05,265.37 77.70,265.50 223.34,267.27 238.63,266.61 250.05,264.13 260.92,259.10 271.16,251.15 283.20,238.67 295.58,219.96 308.02,201.52 314.01,195.00 320.06,190.25 327.14,186.86 334.68,184.50 350.66,181.90 426.50,179.94 441.12,180.25 449.15,179.85 457.04,178.48 461.82,176.74 466.38,174.48 470.54,171.68 474.32,168.33 477.70,164.48 480.43,160.32 482.48,155.88 483.91,151.16 484.56,146.38 484.41,141.48 483.44,136.54 481.77,131.92 479.22,127.60 475.87,123.60 472.09,120.12 465.17,115.84 457.63,112.70 451.33,110.75 443.35,109.47 369.31,110.03"
        fill="none"
        stroke="#e94560"
        stroke-width="8.0"
        stroke-linejoin="round"
        stroke-linecap="round"/>
  <!-- Start/finish line -->
  <line x1="369.46" y1="130.03" x2="369.16" y2="90.03"
        stroke="#f5f5f5" stroke-width="9.6"
        stroke-linecap="round"/>
</svg>
