<?xml version="1.0" encoding="utf-8"?>
<svg xmlns="http://www.w3.org/2000/svg"
     width="800.0" height="545.9"
     viewBox="0 0 800.0 545.9">
  <rect width="100%" height="100%" fill="#1a1a2e"/>
  <!-- Track outline -->
  <polyline points="237.77,133.61 207.70,133.82 165.68,134.69 155.27,132.49 146.39,128.80 140.88,125.60 135.82,121.74 131.67,117.14 129.14,112.74 127.19,107.72 125.86,102.49 125.20,97.39 125.49,90.91 126.86,84.48 129.14,78.42 132.42,72.74 136.56,67.43 141.29,62.66 149.51,56.35 158.71,51.24 169.29,47.39 180.20,44.61 199.82,41.12 219.52,40.00 243.17,41.04 463.51,61.41 576.74,78.76 617.85,88.67 652.90,104.61 669.08,114.73 684.13,126.10 698.03,138.80 710.72,152.66 721.63,168.01 731.34,184.44 737.56,202.33 743.03,223.94 746.48,245.23 759.42,365.36 760.00,380.71 757.30,404.69 750.96,427.27 746.64,438.06 741.46,448.35 735.28,457.93 728.10,466.81 719.85,474.86 710.72,482.00 700.89,488.14 690.44,493.33 668.12,501.04 644.02,505.15 619.09,505.94 367.15,479.13 346.82,474.40 337.61,470.71 329.03,466.02 321.44,460.50 314.68,454.57 308.70,448.64 304.60,442.87 301.49,436.52 299.83,431.33 299.29,425.19 300.95,418.30 303.60,410.46 307.38,403.45 311.28,397.60 316.38,391.62 321.98,387.10 329.61,382.37 339.85,376.98 350.60,373.12 360.22,371.46 369.93,371.21 390.13,374.57 500.34,399.63 532.82,401.25 558.99,399.80 568.99,398.05 577.57,395.61 595.45,388.84 612.37,379.17 627.68,367.31 640.29,353.16 650.45,337.22 654.48,328.63 657.71,319.75 661.69,301.29 662.65,282.12 661.86,272.20 660.20,262.33 657.67,252.58 654.27,243.11 650.16,234.15 645.27,225.69 639.50,217.76 632.99,210.42 625.98,203.65 618.39,197.64 610.13,192.57 601.42,188.34 592.30,184.90 582.84,182.33 573.05,180.54 563.06,179.63 542.73,180.46 522.49,184.57 502.79,191.70 484.04,201.74 414.27,259.63 395.56,273.61 375.15,286.10 334.26,305.69 283.65,331.12 259.43,345.69 241.01,362.58 227.98,381.08 220.81,393.86 199.99,418.30 183.39,432.16 165.60,442.99 147.18,450.75 137.81,453.49 128.06,455.28 116.61,455.77 105.08,454.78 94.34,452.12 84.30,447.97 75.55,442.37 66.63,435.98 54.81,425.07 47.96,417.06 43.40,410.63 41.04,402.25 40.00,394.94 40.71,388.14 43.65,380.21 48.13,372.33 55.06,363.12 62.81,354.78 73.27,345.19 106.57,322.24 122.67,305.56 139.22,280.54 155.85,255.90 163.86,247.18 171.95,240.83 181.40,236.31 191.48,233.16 212.84,229.67 314.22,227.06 333.76,227.47 344.50,226.93 355.04,225.11 361.42,222.78 367.52,219.75 373.08,216.02 378.14,211.54 382.66,206.39 386.31,200.83 389.05,194.90 390.96,188.59 391.83,182.20 391.62,175.64 390.34,169.05 388.10,162.86 384.69,157.10 380.21,151.74 375.15,147.10 365.90,141.37 355.82,137.18 347.40,134.57 336.74,132.86 237.77,133.61"
        fill="none"
        stroke="#e94560"
        stroke-width="8.0"
        stroke-linejoin="round"
        stroke-linecap="round"/>
  <!-- Start/finish line -->
  <line x1="237.92" y1="153.61" x2="237.63" y2="113.61"
        stroke="#f5f5f5" stroke-width="9.6"
        stroke-linecap="round"/>
</svg>
