<?xml version="1.0" encoding="utf-8"?>
<svg xmlns="http://www.w3.org/2000/svg"
     width="396.0" height="800.0"
     viewBox="0 0 396.0 800.0">
  <rect width="100%" height="100%" fill="#1a1a2e"/>
  <!-- Track outline -->
  <polyline points="45.06,514.33 49.74,410.04 52.49,345.75 56.53,313.26 63.22,280.69 73.29,248.71 86.30,218.20 102.78,190.56 142.88,139.48 163.38,116.70 183.13,97.73 208.96,77.21 234.46,59.31 255.31,48.88 265.67,45.06 276.03,42.27 286.04,40.47 296.15,40.00 307.51,41.24 318.68,44.42 325.40,47.60 331.87,51.59 337.69,56.52 342.21,61.59 346.22,67.38 349.57,73.78 352.99,83.86 355.17,94.81 355.99,117.17 353.56,265.36 352.52,276.57 350.71,285.11 348.38,291.97 345.35,298.50 341.61,304.03 337.52,307.98 332.79,311.16 327.73,313.52 322.72,314.85 318.68,315.19 314.47,314.94 310.28,314.08 306.29,312.58 302.65,310.43 298.88,307.17 295.34,303.05 292.26,298.28 289.93,293.18 288.30,286.70 287.58,279.57 287.46,271.72 289.98,251.55 293.01,231.24 293.60,219.40 293.01,208.67 290.75,198.15 287.08,188.67 283.51,182.88 279.23,177.81 274.47,173.35 268.22,168.71 261.33,164.94 254.42,162.40 247.97,161.37 241.50,161.46 235.06,162.32 225.44,165.11 215.93,169.31 206.95,174.16 197.06,180.99 172.72,200.99 149.90,223.22 143.08,232.53 137.85,241.80 128.68,262.92 121.94,284.51 118.57,307.94 119.14,355.36 122.53,403.00 128.09,427.68 135.22,449.01 139.76,458.11 145.19,466.22 150.34,471.85 156.12,476.82 162.19,480.99 168.83,484.38 175.80,486.82 182.79,488.28 189.80,488.67 196.87,488.03 203.73,486.39 210.15,483.95 216.40,480.60 222.22,476.31 229.61,468.41 236.08,459.31 240.54,450.82 244.95,442.19 251.32,432.23 258.48,423.30 263.66,418.54 269.16,414.59 274.99,411.55 280.22,409.61 285.77,408.28 291.35,407.73 296.63,408.20 301.26,409.57 305.87,411.76 310.08,414.76 313.60,418.54 316.11,422.58 318.24,427.25 319.85,432.36 320.69,437.51 320.54,444.29 319.16,451.42 316.90,459.36 303.39,488.80 289.71,517.98 286.79,528.63 285.32,538.45 284.80,549.44 285.45,560.52 287.31,571.03 290.53,582.58 312.81,640.86 315.69,653.13 317.02,664.38 317.02,675.92 315.64,687.17 312.64,697.90 308.40,707.85 302.75,717.55 296.11,726.14 287.93,734.12 278.93,740.86 268.69,746.61 257.84,751.16 233.10,757.68 212.85,760.00 170.87,759.53 148.34,757.12 126.85,752.53 107.32,745.58 89.72,736.61 81.69,730.90 74.05,724.42 67.29,717.90 60.94,710.21 54.40,699.57 48.92,687.94 46.02,679.10 43.92,669.14 40.00,626.74 45.06,514.33"
        fill="none"
        stroke="#e94560"
        stroke-width="8.0"
        stroke-linejoin="round"
        stroke-linecap="round"/>
  <!-- Start/finish line -->
  <line x1="25.08" y1="513.44" x2="65.04" y2="515.23"
        stroke="#f5f5f5" stroke-width="9.6"
        stroke-linecap="round"/>
</svg>
