<?xml version="1.0" encoding="utf-8"?>
<svg xmlns="http://www.w3.org/2000/svg"
     width="677.3" height="800.0"
     viewBox="0 0 677.3 800.0">
  <rect width="100%" height="100%" fill="#1a1a2e"/>
  <!-- Track outline -->
  <polyline points="206.80,379.08 277.45,465.89 284.61,475.32 300.06,496.56 301.71,499.46 302.77,501.86 303.29,504.25 303.28,506.59 302.53,508.67 301.09,510.73 299.67,512.48 297.48,514.28 293.11,516.63 289.00,518.03 265.17,520.94 224.65,520.40 221.36,520.44 218.06,521.12 215.73,522.35 213.36,524.50 211.07,527.69 205.29,538.26 197.94,553.46 194.43,572.90 194.53,589.54 195.72,605.70 197.12,618.08 198.13,628.02 199.39,636.14 200.60,640.85 202.75,646.30 205.99,651.29 210.58,656.16 215.55,659.83 221.79,662.54 401.77,747.09 420.95,754.40 439.45,758.12 454.91,760.00 471.86,759.90 486.64,758.22 502.70,756.10 518.59,751.93 531.87,746.48 545.13,739.95 559.68,731.63 572.76,721.98 584.09,711.75 594.12,700.60 603.42,689.19 611.89,675.96 618.54,663.25 624.61,649.40 629.32,637.66 632.50,624.64 634.90,611.67 636.52,599.82 637.31,586.16 636.33,573.03 633.50,555.32 629.37,539.13 622.99,521.39 615.88,505.57 607.31,491.40 592.85,471.63 557.55,424.03 554.23,420.29 549.73,416.50 539.93,410.93 525.52,405.12 510.10,401.02 502.39,401.12 495.69,402.71 487.68,406.24 475.57,413.56 469.74,418.39 463.43,422.95 457.68,426.38 452.70,428.98 445.83,431.87 439.35,432.83 433.31,431.61 428.25,428.01 423.34,422.45 418.46,415.34 299.18,250.56 288.25,235.56 262.04,198.56 198.89,106.23 183.56,88.61 174.24,80.43 163.53,72.69 123.72,52.01 102.33,41.96 96.95,40.55 92.11,40.00 88.05,40.08 84.07,40.79 79.42,42.42 74.77,44.81 69.56,48.49 64.72,52.85 60.88,57.22 57.64,61.95 54.93,67.09 52.91,72.50 51.73,78.17 51.33,83.94 51.73,89.54 52.95,95.34 55.79,103.39 59.70,112.53 63.81,120.75 68.40,129.45 72.99,137.08 77.55,142.95 82.93,148.81 90.09,154.84 96.77,160.05 102.47,164.29 108.01,167.87 114.53,172.26 119.09,175.19 124.30,179.27 128.00,182.98 130.79,186.89 132.47,190.66 133.86,194.71 134.56,198.62 135.12,203.23 134.56,206.86 132.75,210.50 130.51,213.56 127.58,216.50 124.23,219.02 120.18,221.64 114.59,224.04 52.21,251.19 48.02,253.71 44.81,256.64 42.36,259.93 40.96,263.91 40.22,267.88 40.00,271.96 40.17,275.53 40.81,280.04 41.89,284.11 43.49,287.88 45.22,290.88 48.65,294.20 52.08,296.57 55.73,298.93 100.27,318.04 187.36,359.50 190.46,361.43 193.07,363.33 195.35,365.33 198.12,368.17 200.02,370.35 206.80,379.08"
        fill="none"
        stroke="#e94560"
        stroke-width="8.0"
        stroke-linejoin="round"
        stroke-linecap="round"/>
  <!-- Start/finish line -->
  <line x1="222.34" y1="366.48" x2="191.26" y2="391.67"
        stroke="#f5f5f5" stroke-width="9.6"
        stroke-linecap="round"/>
</svg>
