<?xml version="1.0" encoding="utf-8"?>
<svg xmlns="http://www.w3.org/2000/svg"
     width="800.0" height="768.9"
     viewBox="0 0 800.0 768.9">
  <rect width="100%" height="100%" fill="#1a1a2e"/>
  <!-- Track outline -->
  <polyline points="192.40,555.40 191.19,554.91 68.18,504.10 65.85,503.07 63.06,501.73 60.59,500.40 58.00,498.59 55.07,496.19 52.42,493.36 49.92,490.15 47.46,486.51 45.37,482.78 43.66,478.66 42.39,475.15 41.53,471.69 40.76,467.35 40.33,463.49 40.12,460.29 40.08,456.87 40.00,453.26 40.27,449.97 40.91,445.67 41.68,441.63 42.58,437.75 43.53,433.98 44.51,430.59 45.70,426.93 46.88,424.00 47.97,421.51 49.53,418.37 51.31,415.13 53.81,410.58 56.20,406.54 58.01,403.69 59.82,401.03 61.65,398.36 63.67,395.68 65.97,393.04 68.59,390.66 71.18,388.72 73.53,387.04 75.64,385.78 77.71,384.80 79.73,383.95 82.42,383.08 85.07,382.46 88.73,381.89 100.31,380.14 127.21,375.33 132.85,374.28 135.95,373.23 139.00,371.65 142.33,369.67 145.54,367.39 147.76,365.34 149.15,363.47 150.27,361.63 151.53,358.82 152.21,356.16 152.76,353.20 153.09,349.50 153.03,346.16 152.57,343.18 151.76,340.44 150.60,337.95 149.13,335.57 147.11,332.57 144.66,329.74 142.24,327.36 139.68,325.35 136.99,323.41 128.15,318.01 123.11,315.11 117.34,312.15 111.11,309.22 106.61,307.41 103.36,306.21 100.56,305.30 98.15,304.55 95.60,303.53 93.42,302.44 91.50,301.24 89.57,299.80 87.82,298.19 86.33,296.27 85.24,294.49 84.14,292.55 83.02,290.08 82.35,288.01 81.93,285.89 81.72,283.41 81.74,281.47 81.87,279.65 82.23,277.24 82.74,275.20 83.38,273.43 84.43,271.37 85.68,269.17 86.96,267.28 88.43,265.84 90.00,264.51 91.75,263.33 111.14,252.45 226.67,189.82 228.98,188.12 230.87,186.32 233.00,183.90 234.88,180.92 236.40,177.69 237.53,173.70 238.19,169.41 238.46,165.19 238.18,161.80 237.73,158.82 236.90,155.68 235.91,152.93 234.71,150.22 233.34,147.80 232.00,145.86 230.42,143.93 228.99,142.54 227.40,140.97 225.27,139.30 221.92,137.14 218.31,135.34 213.68,133.49 201.71,129.40 188.72,125.62 174.04,121.73 165.59,119.30 161.08,117.68 158.86,116.66 157.22,114.82 156.59,112.45 156.60,109.82 157.28,107.17 158.88,104.51 160.51,102.78 164.31,100.21 236.35,58.13 243.10,54.37 248.93,51.57 253.54,49.52 258.83,47.73 265.01,45.74 271.44,44.13 276.62,42.96 281.72,42.03 290.14,40.78 298.44,40.23 305.25,40.00 314.22,40.06 320.15,40.61 326.59,41.59 332.76,42.69 339.00,44.16 345.53,46.09 351.78,48.13 357.92,50.46 363.17,52.69 370.09,56.12 377.27,60.33 384.40,65.31 391.35,70.77 397.28,76.09 401.64,79.99 406.78,85.28 412.03,91.65 594.26,344.09 597.55,348.69 600.04,353.27 601.55,357.06 602.19,360.99 602.04,367.36 600.26,381.08 599.95,382.80 599.40,384.54 598.83,385.97 597.88,387.18 596.71,388.33 595.52,389.30 563.62,410.93 561.45,412.26 559.82,413.16 558.35,413.88 557.32,413.97 556.37,413.59 555.53,413.02 554.87,412.23 552.81,409.41 504.41,343.13 503.03,341.72 501.37,340.28 499.81,339.13 498.28,338.00 496.85,336.65 495.28,334.83 488.76,325.47 426.79,234.00 425.00,231.55 423.36,229.77 421.34,227.99 419.13,226.33 416.35,224.78 413.52,223.79 410.13,222.91 405.97,222.42 402.78,221.82 399.10,221.44 396.04,220.79 393.68,220.07 391.71,219.25 390.10,218.37 388.67,217.37 386.91,215.98 385.54,214.60 384.55,213.32 383.28,211.66 382.01,210.13 380.37,208.43 378.61,206.96 376.95,205.65 374.89,204.45 373.17,203.78 371.44,203.27 369.47,202.83 367.51,202.56 365.19,202.59 362.50,202.80 360.39,203.18 358.69,203.54 356.83,204.18 355.67,204.73 354.59,205.49 353.47,206.39 352.59,207.36 334.78,230.93 333.66,232.90 332.74,235.51 332.25,237.80 332.33,240.58 332.82,242.89 333.91,246.03 335.68,249.57 347.82,270.17 350.23,273.70 354.81,278.88 358.93,282.40 394.31,312.53 395.97,314.16 396.91,315.49 397.79,317.28 398.30,318.96 398.66,320.96 398.56,323.08 398.22,325.18 397.57,327.05 396.87,328.72 395.97,330.15 394.75,331.59 393.15,332.70 391.16,333.66 344.13,353.79 342.55,354.56 340.83,355.54 339.24,356.50 337.08,357.97 335.43,359.29 333.32,361.18 331.69,362.86 330.24,364.81 329.14,366.57 328.41,368.39 327.86,370.22 327.56,372.11 327.44,374.58 327.48,377.29 327.82,379.61 328.39,382.09 329.39,384.28 330.54,386.12 331.95,387.69 333.81,389.42 337.51,391.85 434.31,437.27 435.69,437.97 437.40,439.10 438.78,440.17 439.98,441.21 440.98,442.29 449.25,452.10 470.09,476.13 475.69,482.60 516.81,537.23 518.67,539.44 520.44,541.14 522.69,542.80 524.46,543.80 526.64,544.61 529.28,544.88 532.04,544.44 535.27,543.44 541.09,541.41 547.50,538.68 552.18,536.13 557.16,533.03 563.03,528.70 569.49,523.21 592.79,501.74 595.46,499.25 597.92,497.56 599.99,496.36 602.71,495.02 621.34,488.61 625.30,487.03 629.47,485.43 632.70,483.64 635.83,481.63 639.30,479.30 642.63,477.17 646.19,474.95 655.57,469.76 658.13,468.81 660.91,468.01 664.07,467.57 669.13,467.31 673.44,467.60 679.11,468.69 682.57,469.55 686.29,471.07 689.16,472.98 691.97,475.07 695.01,477.79 698.09,481.51 731.23,526.58 735.98,533.64 742.20,543.64 747.05,552.45 751.61,562.07 754.24,569.09 756.75,577.43 758.52,585.08 759.61,593.12 760.00,600.75 759.69,610.12 759.15,618.12 757.93,625.22 756.30,632.68 754.60,639.67 752.39,646.30 750.30,652.01 747.73,658.15 744.93,663.61 741.94,668.68 738.17,674.66 732.93,681.52 727.98,687.36 723.71,691.79 718.63,696.39 713.76,700.69 708.70,704.31 702.20,708.67 695.31,712.79 687.70,716.88 680.02,720.40 674.14,722.80 667.66,725.12 661.07,726.90 653.31,728.19 646.71,728.47 637.99,728.88 626.56,728.42 617.40,726.66 603.46,723.57 588.77,718.08 192.40,555.40 192.40,555.40"
        fill="none"
        stroke="#e94560"
        stroke-width="8.0"
        stroke-linejoin="round"
        stroke-linecap="round"/>
  <!-- Start/finish line -->
  <line x1="184.89" y1="573.94" x2="199.90" y2="536.87"
        stroke="#f5f5f5" stroke-width="9.6"
        stroke-linecap="round"/>
</svg>
