<?xml version="1.0" encoding="utf-8"?>
<svg xmlns="http://www.w3.org/2000/svg"
     width="635.3" height="800.0"
     viewBox="0 0 635.3 800.0">
  <rect width="100%" height="100%" fill="#1a1a2e"/>
  <!-- Track outline -->
  <polyline points="243.38,564.23 245.98,567.58 252.56,575.97 297.64,631.14 353.51,703.22 359.79,711.00 364.39,716.12 369.67,719.80 374.91,721.75 381.01,722.64 386.60,721.92 394.89,718.54 409.27,711.94 415.24,710.15 422.38,709.50 427.73,709.98 433.91,711.67 441.19,715.61 448.20,720.21 500.25,755.64 504.81,758.03 508.88,759.38 513.78,760.00 518.19,759.24 521.78,757.75 524.83,755.63 527.80,752.06 529.55,748.89 530.28,745.51 530.03,741.89 528.85,738.02 526.49,732.13 520.03,716.79 498.50,662.93 496.25,656.32 495.12,652.12 495.19,648.98 496.44,646.07 498.18,643.71 500.80,641.57 503.62,639.82 506.35,638.44 519.23,632.85 539.51,625.50 545.72,622.32 551.78,619.36 556.41,616.51 561.46,613.05 567.76,608.02 573.45,602.38 577.50,597.44 580.11,593.54 582.60,588.34 585.19,582.46 588.39,574.20 590.52,567.79 591.85,562.08 593.43,555.45 594.49,548.16 594.97,541.64 595.27,536.36 594.77,530.96 593.67,526.21 592.20,522.11 590.23,518.10 588.11,514.46 585.41,510.29 243.18,51.89 239.66,48.13 235.82,45.02 231.82,42.83 227.26,41.29 221.78,40.00 215.47,40.37 209.71,41.60 204.43,43.16 199.73,45.16 195.32,47.29 189.56,50.72 158.09,71.39 149.25,78.06 142.62,84.35 102.81,129.10 54.76,189.83 52.10,193.73 49.79,197.65 48.27,202.48 47.90,207.89 49.50,213.77 52.69,221.81 67.90,247.68 76.42,260.95 82.33,268.09 89.32,273.99 97.03,278.96 117.74,288.28 237.44,332.89 247.96,337.55 257.13,342.79 269.79,352.04 279.67,361.26 335.26,419.82 341.36,426.58 344.76,431.11 346.54,434.38 347.57,438.02 347.85,442.33 346.96,446.85 345.17,452.17 342.91,455.73 340.38,459.28 337.45,462.36 334.27,464.86 331.00,466.64 327.94,467.43 324.50,467.48 321.11,466.96 317.04,465.68 312.74,463.80 306.68,460.23 162.68,369.94 158.51,368.22 152.98,367.40 147.51,367.88 137.76,372.26 130.95,375.20 54.89,408.30 49.78,411.36 45.87,414.94 42.88,418.96 41.17,423.81 40.26,428.64 40.00,433.62 40.20,437.98 40.99,443.48 42.30,448.44 44.26,453.03 46.36,456.69 50.55,460.74 54.73,463.62 59.18,466.50 113.49,489.81 219.68,540.36 223.46,542.72 226.65,545.03 229.42,547.48 232.79,550.93 235.11,553.59 243.38,564.23"
        fill="none"
        stroke="#e94560"
        stroke-width="8.0"
        stroke-linejoin="round"
        stroke-linecap="round"/>
  <!-- Start/finish line -->
  <line x1="259.17" y1="551.96" x2="227.59" y2="576.50"
        stroke="#f5f5f5" stroke-width="9.6"
        stroke-linecap="round"/>
</svg>
