<?xml version="1.0" encoding="utf-8"?>
<svg xmlns="http://www.w3.org/2000/svg"
     width="800.0" height="740.0"
     viewBox="0 0 800.0 740.0">
  <rect width="100%" height="100%" fill="#1a1a2e"/>
  <!-- Track outline -->
  <polyline points="315.36,135.75 375.47,78.94 389.42,66.94 402.54,56.99 414.66,49.34 427.20,43.75 440.28,40.44 450.10,40.00 459.13,42.13 467.97,45.55 473.47,49.22 478.84,53.71 481.72,56.99 488.09,65.41 496.44,77.40 516.18,108.54 519.35,113.74 521.60,119.74 523.11,127.42 523.74,136.01 522.76,146.98 520.13,157.61 518.12,167.51 516.27,178.23 516.03,190.20 517.65,201.90 521.98,212.68 527.92,222.93 534.63,232.35 543.03,240.74 550.18,245.97 558.74,250.38 568.40,254.16 578.83,256.23 590.24,255.99 601.06,255.01 609.73,253.89 617.48,253.92 625.70,256.08 632.41,259.83 638.34,264.64 645.76,273.54 739.88,380.87 747.23,389.97 753.25,399.33 757.37,408.64 759.55,418.80 760.00,427.96 758.64,435.76 754.90,443.35 750.04,449.79 736.38,465.39 533.89,677.98 526.99,684.89 519.41,691.66 512.33,696.03 503.97,698.78 495.46,700.02 488.27,699.96 479.58,697.12 473.27,694.41 463.38,688.23 363.84,624.01 354.40,618.13 344.53,613.02 334.55,609.85 323.45,608.50 313.34,608.91 300.24,610.33 288.99,611.30 276.93,611.63 264.52,611.89 251.60,611.92 240.40,610.03 227.63,607.58 209.70,600.99 71.19,528.32 62.35,522.47 54.84,516.62 48.09,509.53 43.72,501.96 41.02,493.51 40.00,484.09 42.32,474.19 46.51,466.28 51.34,460.54 58.38,454.19 67.00,447.66 76.76,439.92 84.07,431.65 89.28,423.59 95.38,412.83 98.68,401.52 100.95,391.98 101.31,379.48 99.95,369.67 96.99,359.01 91.89,348.28 86.85,338.56 82.64,330.58 80.81,322.64 81.44,314.25 84.31,305.74 88.17,298.35 92.09,292.50 97.14,286.03 101.85,281.19 106.81,277.38 120.09,270.73 169.55,249.84 184.14,243.37 197.64,235.81 212.39,225.68 244.61,201.22 277.91,171.14 315.36,135.75"
        fill="none"
        stroke="#e94560"
        stroke-width="8.0"
        stroke-linejoin="round"
        stroke-linecap="round"/>
  <!-- Start/finish line -->
  <line x1="301.63" y1="121.21" x2="329.10" y2="150.28"
        stroke="#f5f5f5" stroke-width="9.6"
        stroke-linecap="round"/>
</svg>
