<?xml version="1.0" encoding="utf-8"?>
<svg xmlns="http://www.w3.org/2000/svg"
     width="800.0" height="762.9"
     viewBox="0 0 800.0 762.9">
  <rect width="100%" height="100%" fill="#1a1a2e"/>
  <!-- Track outline -->
  <polyline points="212.10,622.03 210.73,621.47 71.82,564.09 69.20,562.93 66.04,561.42 63.25,559.92 60.32,557.87 57.02,555.16 54.03,551.97 51.20,548.34 48.43,544.22 46.06,540.02 44.14,535.37 42.70,531.40 41.73,527.50 40.86,522.59 40.37,518.23 40.13,514.62 40.09,510.76 40.00,506.68 40.31,502.97 41.03,498.11 41.90,493.55 42.91,489.17 43.98,484.91 45.09,481.09 46.44,476.94 47.77,473.64 49.00,470.83 50.76,467.28 52.78,463.62 55.60,458.48 58.29,453.92 60.33,450.70 62.39,447.69 64.44,444.68 66.73,441.65 69.33,438.67 72.28,435.99 75.21,433.80 77.86,431.90 80.25,430.48 82.58,429.37 84.87,428.42 87.90,427.42 90.90,426.72 95.02,426.08 108.10,424.10 138.49,418.68 144.86,417.49 148.35,416.30 151.79,414.52 155.56,412.28 159.18,409.71 161.69,407.39 163.25,405.29 164.52,403.21 165.94,400.03 166.71,397.03 167.34,393.68 167.71,389.51 167.64,385.74 167.12,382.37 166.21,379.28 164.89,376.46 163.23,373.78 160.96,370.38 158.19,367.19 155.46,364.50 152.57,362.24 149.53,360.04 139.54,353.94 133.86,350.68 127.34,347.33 120.30,344.02 115.22,341.97 111.55,340.62 108.39,339.60 105.66,338.75 102.79,337.60 100.32,336.36 98.16,335.01 95.98,333.39 94.00,331.57 92.32,329.40 91.09,327.39 89.84,325.20 88.58,322.40 87.82,320.07 87.35,317.68 87.11,314.88 87.14,312.69 87.28,310.62 87.69,307.91 88.27,305.60 88.98,303.60 90.17,301.27 91.58,298.79 93.03,296.66 94.69,295.03 96.46,293.53 98.43,292.20 120.34,279.92 250.80,209.19 253.41,207.27 255.54,205.23 257.95,202.50 260.07,199.14 261.79,195.49 263.07,190.99 263.81,186.14 264.12,181.37 263.79,177.54 263.29,174.17 262.35,170.64 261.23,167.53 259.88,164.47 258.33,161.74 256.82,159.54 255.04,157.37 253.42,155.79 251.62,154.02 249.21,152.13 245.43,149.70 241.36,147.67 236.13,145.57 222.61,140.96 207.94,136.68 191.36,132.30 181.82,129.55 176.73,127.73 174.22,126.57 172.37,124.49 171.66,121.82 171.68,118.84 172.43,115.86 174.25,112.85 176.09,110.90 180.38,107.99 261.73,60.47 269.35,56.22 275.93,53.07 281.15,50.75 287.12,48.72 294.09,46.48 301.35,44.66 307.21,43.35 312.96,42.30 322.47,40.88 331.84,40.26 339.54,40.00 349.66,40.07 356.36,40.69 363.63,41.79 370.60,43.03 377.65,44.70 385.02,46.88 392.07,49.18 399.02,51.82 404.94,54.33 412.75,58.20 420.86,62.95 428.91,68.58 436.76,74.75 443.46,80.75 448.38,85.16 454.19,91.13 460.11,98.32 729.69,469.62 734.08,476.16 736.16,480.50 737.31,484.09 737.19,489.01 736.65,492.70 736.10,498.25 735.13,503.44 734.25,507.94 732.92,511.90 731.42,516.02 729.70,519.90 727.98,523.00 724.99,527.31 722.46,530.07 719.53,532.68 716.32,535.16 712.01,538.47 707.15,541.54 702.70,543.91 699.22,546.00 696.17,548.43 694.08,550.77 692.90,553.50 692.74,555.84 693.18,558.32 694.16,560.35 695.54,562.54 697.46,565.35 699.27,568.21 700.66,570.89 701.32,573.22 701.30,575.89 700.71,579.13 700.11,582.35 699.89,585.12 699.83,588.02 700.34,590.99 701.39,593.78 702.83,596.24 704.37,598.27 706.25,600.20 708.26,601.97 710.50,603.24 713.09,604.03 715.62,604.19 718.18,604.14 720.68,603.78 722.54,603.68 724.53,603.96 726.60,604.54 728.65,605.80 730.59,607.48 732.54,609.67 756.97,637.78 758.30,639.67 759.21,641.45 759.72,643.35 760.00,645.35 759.96,646.94 759.64,648.31 759.20,649.57 758.37,650.95 757.00,652.71 703.51,709.26 701.84,710.94 700.34,712.23 698.69,713.26 697.40,713.83 695.97,714.16 694.59,714.19 693.19,714.06 691.32,713.69 689.73,713.13 687.81,712.24 683.70,709.62 661.72,695.24 658.80,693.70 655.76,692.45 652.36,691.50 648.74,691.25 645.04,691.42 641.68,691.91 638.24,692.04 635.16,691.75 631.80,691.21 628.48,690.53 625.52,689.40 620.73,687.23 587.91,669.87 586.33,668.78 584.93,667.57 583.62,665.93 582.76,664.26 582.28,662.51 582.33,660.75 582.60,659.01 583.14,657.30 583.92,655.73 585.15,654.17 586.75,652.66 588.59,651.16 590.09,649.94 591.47,648.55 592.68,647.08 593.83,645.07 595.07,642.12 595.79,639.51 596.10,636.58 595.82,633.71 595.25,631.40 594.37,628.96 593.22,626.61 591.44,623.82 589.87,621.88 588.02,620.37 585.85,619.05 583.28,617.97 580.65,617.31 577.69,617.40 575.08,617.96 557.83,620.74 552.71,620.88 520.05,619.72 516.34,619.67 512.80,619.81 510.17,620.47 507.82,621.71 505.82,623.26 504.38,625.01 502.87,627.32 500.81,631.01 497.52,638.33 494.42,646.29 492.43,652.60 491.17,659.51 490.85,666.46 492.69,689.30 492.97,694.17 492.39,697.73 491.39,700.58 488.79,705.68 484.43,711.69 480.87,716.27 477.34,719.20 471.51,721.74 464.72,722.93 459.24,722.75 452.35,720.86 212.10,622.03 212.10,622.03"
        fill="none"
        stroke="#e94560"
        stroke-width="8.0"
        stroke-linejoin="round"
        stroke-linecap="round"/>
  <!-- Start/finish line -->
  <line x1="204.59" y1="640.57" x2="219.60" y2="603.49"
        stroke="#f5f5f5" stroke-width="9.6"
        stroke-linecap="round"/>
</svg>
