<?xml version="1.0" encoding="utf-8"?>
<svg xmlns="http://www.w3.org/2000/svg"
     width="800.0" height="424.4"
     viewBox="0 0 800.0 424.4">
  <rect width="100%" height="100%" fill="#1a1a2e"/>
  <!-- Track outline -->
  <polyline points="455.98,62.50 381.36,54.69 299.65,49.39 273.03,47.76 169.96,40.00 144.39,40.16 123.50,42.06 112.56,44.59 102.91,48.04 93.73,52.04 84.75,57.23 74.31,65.11 64.77,74.18 58.62,81.90 53.48,90.18 48.97,99.13 45.27,108.67 42.38,118.69 40.59,129.03 40.00,139.33 40.85,149.82 44.24,162.81 49.33,174.85 52.71,180.40 56.51,185.19 60.86,189.47 66.92,194.02 73.75,197.82 80.78,200.55 88.05,201.94 95.55,202.18 102.99,201.51 114.29,198.46 125.03,193.86 140.92,183.88 173.40,159.41 183.20,153.66 192.67,149.31 203.18,145.54 213.89,142.97 224.48,141.78 234.98,141.94 244.90,143.25 254.76,146.10 266.20,151.80 276.65,159.29 283.12,166.18 288.24,174.02 291.97,182.65 294.59,191.96 296.92,211.72 296.89,232.79 293.98,277.90 294.98,290.10 297.15,300.95 300.57,311.41 305.16,321.03 311.01,329.66 317.84,337.19 325.63,343.68 334.11,348.87 343.26,352.67 352.82,355.01 362.88,355.80 373.03,355.25 383.16,353.39 393.25,350.54 413.58,342.89 454.30,321.43 465.92,316.87 476.81,313.98 487.93,312.59 499.05,312.63 510.03,313.98 520.79,316.67 531.00,320.52 540.68,325.74 549.36,332.48 557.45,340.32 571.87,358.02 579.87,365.98 588.38,372.79 597.50,377.90 607.06,381.51 616.98,383.68 626.98,384.36 633.42,384.12 639.84,383.29 646.19,381.43 653.17,378.14 660.08,373.70 665.97,368.24 670.20,362.42 673.64,355.76 675.88,348.83 676.53,342.14 676.12,335.21 675.23,328.24 669.73,306.14 668.14,296.91 667.50,287.88 668.32,278.50 670.44,269.43 674.14,260.63 679.12,252.75 685.24,246.02 692.98,240.12 710.81,232.16 728.90,224.36 737.40,218.50 744.41,211.76 750.29,203.72 754.94,194.65 758.03,184.91 759.74,174.61 760.00,164.04 758.85,153.47 756.09,142.85 751.91,132.83 746.08,123.29 739.08,114.69 730.87,106.73 721.81,100.00 711.63,94.50 700.86,90.34 677.50,85.66 455.98,62.50"
        fill="none"
        stroke="#e94560"
        stroke-width="8.0"
        stroke-linejoin="round"
        stroke-linecap="round"/>
  <!-- Start/finish line -->
  <line x1="453.90" y1="82.39" x2="458.06" y2="42.60"
        stroke="#f5f5f5" stroke-width="9.6"
        stroke-linecap="round"/>
</svg>
