<?xml version="1.0" encoding="utf-8"?>
<svg xmlns="http://www.w3.org/2000/svg"
     width="800.0" height="510.7"
     viewBox="0 0 800.0 510.7">
  <rect width="100%" height="100%" fill="#1a1a2e"/>
  <!-- Track outline -->
  <polyline points="322.51,367.90 396.47,374.89 427.64,379.42 499.30,392.90 528.69,394.11 536.87,394.54 571.39,390.00 586.44,387.77 591.68,387.76 596.66,388.27 602.01,389.35 607.18,390.98 611.64,392.98 615.93,395.51 620.76,399.05 625.32,403.13 632.70,412.12 646.34,431.77 652.84,438.55 660.59,444.94 678.50,456.52 696.06,466.12 701.59,468.51 706.48,469.90 711.72,470.65 716.90,470.67 721.54,469.98 726.02,468.64 730.64,466.49 734.98,463.73 738.78,460.50 742.16,456.74 745.29,452.36 748.19,446.79 754.33,429.47 759.04,411.34 759.99,404.02 760.00,397.71 759.40,392.49 758.17,387.57 756.26,382.74 753.72,378.20 750.57,374.02 746.78,370.16 741.81,366.18 736.10,362.70 729.00,359.63 721.20,357.37 712.11,356.05 701.97,355.57 668.03,357.14 661.99,356.71 656.81,355.79 651.58,354.30 646.62,352.32 642.36,350.10 638.42,347.46 634.81,344.33 631.51,340.68 625.14,330.66 616.99,318.40 612.94,314.38 608.60,311.09 604.24,308.54 599.65,306.61 594.84,305.28 589.91,304.61 584.99,304.61 580.02,305.32 574.56,306.95 568.89,309.36 561.06,313.86 553.58,318.11 549.60,319.62 545.86,320.54 541.92,321.05 538.01,321.02 534.37,320.40 530.86,319.26 527.46,317.59 524.19,315.41 520.45,312.27 516.94,308.58 513.76,304.33 510.96,299.62 508.32,294.02 506.18,288.10 503.66,276.07 500.85,246.48 499.27,240.67 497.23,235.83 494.75,231.49 491.78,227.60 488.22,224.16 484.22,221.19 480.15,218.77 475.02,216.72 459.06,213.54 437.86,210.79 348.22,201.67 305.42,200.58 300.36,199.81 296.34,198.71 292.65,197.23 289.28,195.35 286.33,193.12 283.78,190.53 281.76,187.69 280.22,184.62 279.22,181.42 278.76,178.18 278.84,175.17 279.43,172.18 280.70,168.84 282.49,165.66 284.68,162.89 287.26,160.44 290.32,158.26 293.71,156.47 297.42,155.10 301.40,154.18 305.99,153.71 310.77,153.74 315.69,154.29 320.72,155.38 332.76,159.84 352.98,167.39 384.88,172.00 445.45,173.03 454.01,171.94 460.78,170.22 466.00,168.24 470.59,165.77 474.29,163.09 477.55,159.93 480.63,155.80 483.17,151.20 485.03,146.30 486.27,141.14 486.93,135.59 486.92,129.96 486.20,124.54 484.81,119.24 482.69,113.94 479.81,108.83 475.54,103.34 470.46,98.28 464.76,93.89 458.46,90.21 451.07,87.13 443.37,85.02 436.25,84.14 429.07,84.23 421.39,85.37 413.45,87.55 392.92,96.72 380.15,101.31 368.62,103.37 363.03,103.62 357.49,103.35 352.11,102.57 346.86,101.25 341.83,99.44 336.96,97.08 331.94,93.92 327.24,90.28 323.18,86.48 319.47,82.30 312.46,71.91 299.15,48.69 296.40,45.56 293.68,43.34 290.90,41.73 287.99,40.64 285.10,40.07 282.18,40.00 280.16,40.26 278.16,40.75 276.21,41.51 274.19,42.63 272.26,44.05 270.44,45.69 267.74,48.92 265.44,52.70 263.47,57.36 262.13,62.55 261.54,68.92 261.71,76.18 265.38,103.77 265.10,118.01 264.16,124.26 262.71,130.12 260.98,134.98 258.82,139.46 256.28,143.48 253.24,147.27 244.25,155.40 237.78,160.11 231.61,164.99 227.80,169.33 224.78,173.91 222.51,178.52 220.85,183.54 219.58,189.81 219.16,197.03 221.04,211.16 223.38,224.72 223.90,229.83 223.94,234.24 223.28,238.72 222.06,242.97 220.42,246.61 218.29,250.01 215.47,253.42 212.23,256.48 208.83,258.93 205.10,260.98 200.57,262.78 195.67,264.10 189.98,264.93 184.11,265.19 172.66,264.06 139.29,256.49 129.30,255.92 119.89,256.49 109.45,258.17 99.23,260.97 90.28,264.57 81.34,269.36 68.25,278.17 56.35,287.59 50.78,292.84 46.50,297.88 43.76,302.17 41.79,306.52 40.55,310.71 40.00,314.95 40.18,319.26 41.05,323.49 42.67,327.53 44.90,331.26 47.52,334.38 50.68,337.12 54.83,339.85 59.69,342.13 66.29,344.11 75.09,345.68 163.23,352.84 267.28,362.68 322.51,367.90"
        fill="none"
        stroke="#e94560"
        stroke-width="8.0"
        stroke-linejoin="round"
        stroke-linecap="round"/>
  <!-- Start/finish line -->
  <line x1="324.39" y1="347.99" x2="320.63" y2="387.81"
        stroke="#f5f5f5" stroke-width="9.6"
        stroke-linecap="round"/>
</svg>
