<?xml version="1.0" encoding="utf-8"?>
<svg xmlns="http://www.w3.org/2000/svg"
     width="451.0" height="800.0"
     viewBox="0 0 451.0 800.0">
  <rect width="100%" height="100%" fill="#1a1a2e"/>
  <!-- Track outline -->
  <polyline points="46.31,534.79 76.68,226.81 88.37,160.60 94.13,136.91 102.08,115.03 112.26,94.91 124.67,77.06 131.70,69.45 139.37,62.66 147.81,56.77 156.82,51.69 166.28,47.44 176.12,44.13 186.30,41.89 196.76,40.52 219.01,40.00 242.97,42.58 267.68,48.43 291.40,58.06 313.03,71.77 332.23,88.63 347.96,108.53 360.61,129.86 369.01,152.73 373.74,177.24 374.53,202.91 371.10,228.84 363.94,254.89 352.08,279.44 337.06,304.55 311.87,337.10 184.69,469.57 161.96,500.01 146.61,525.42 141.23,537.59 137.97,548.72 135.88,559.64 135.19,570.39 135.50,577.05 136.43,583.63 138.24,590.00 141.29,596.62 145.34,602.94 150.10,608.36 155.35,612.48 161.25,615.71 167.45,617.90 174.17,618.89 181.23,618.76 188.12,617.69 195.08,615.54 201.87,612.35 208.14,608.31 216.71,599.93 224.01,590.21 229.87,580.67 234.77,570.43 242.83,546.06 254.55,500.22 262.92,477.86 272.24,458.09 282.87,441.06 290.75,431.86 299.56,423.52 308.06,417.03 317.25,412.00 324.21,409.54 331.58,407.95 338.84,407.52 345.77,408.47 352.59,410.53 358.90,413.41 367.02,419.09 374.22,426.18 381.18,435.04 387.21,444.76 391.94,454.30 395.78,464.41 401.71,488.53 410.01,556.85 410.97,583.68 408.95,611.62 404.97,638.88 398.49,664.85 388.69,685.70 376.21,703.93 361.74,719.37 344.06,732.53 322.94,743.27 299.15,751.49 273.65,757.08 246.91,760.00 218.70,759.79 165.32,754.11 141.47,748.82 119.22,742.07 99.41,732.70 82.23,721.30 72.91,713.61 64.37,704.71 57.24,693.92 51.55,682.52 44.90,663.13 41.10,641.68 40.00,618.07 40.62,592.32 46.31,534.79"
        fill="none"
        stroke="#e94560"
        stroke-width="8.0"
        stroke-linejoin="round"
        stroke-linecap="round"/>
  <!-- Start/finish line -->
  <line x1="26.40" y1="532.83" x2="66.21" y2="536.75"
        stroke="#f5f5f5" stroke-width="9.6"
        stroke-linecap="round"/>
</svg>
