<?xml version="1.0" encoding="utf-8"?>
<svg xmlns="http://www.w3.org/2000/svg"
     width="800.0" height="575.8"
     viewBox="0 0 800.0 575.8">
  <rect width="100%" height="100%" fill="#1a1a2e"/>
  <!-- Track outline -->
  <polyline points="473.91,484.67 613.44,452.19 655.87,437.96 690.39,420.02 705.88,406.65 719.15,391.47 730.61,375.12 743.49,352.19 752.81,325.87 757.71,298.27 760.00,267.38 758.89,236.91 754.00,207.08 745.70,177.68 734.32,151.46 719.71,129.59 702.17,110.59 683.28,94.14 663.37,79.59 642.04,67.71 618.02,57.94 556.00,44.56 491.93,40.00 452.34,42.97 410.71,50.62 313.60,70.04 216.74,98.49 170.60,121.84 131.73,151.57 94.59,193.60 65.12,238.29 52.33,263.87 44.27,290.20 40.95,313.23 40.00,337.97 41.82,362.49 47.11,388.39 55.56,413.97 66.47,437.43 80.22,458.45 96.57,477.13 114.19,493.05 143.18,511.42 174.23,524.26 207.34,532.33 238.15,535.83 253.16,535.73 269.83,533.50 436.30,493.48 473.91,484.67"
        fill="none"
        stroke="#e94560"
        stroke-width="8.0"
        stroke-linejoin="round"
        stroke-linecap="round"/>
  <!-- Start/finish line -->
  <line x1="469.37" y1="465.19" x2="478.45" y2="504.15"
        stroke="#f5f5f5" stroke-width="9.6"
        stroke-linecap="round"/>
</svg>
