<?xml version="1.0" encoding="utf-8"?>
<svg xmlns="http://www.w3.org/2000/svg"
     width="583.5" height="800.0"
     viewBox="0 0 583.5 800.0">
  <rect width="100%" height="100%" fill="#1a1a2e"/>
  <!-- Track outline -->
  <polyline points="304.69,485.06 313.58,496.51 401.98,609.30 482.78,718.08 507.33,751.83 509.45,754.01 511.46,755.54 515.00,757.67 518.85,759.29 522.16,759.94 525.45,760.00 528.81,759.54 532.06,758.53 534.06,757.56 535.97,756.36 537.69,754.95 539.15,753.38 540.44,751.62 541.51,749.74 542.71,746.74 543.41,743.36 543.54,737.94 542.78,731.94 540.82,724.87 537.35,717.01 513.28,682.13 467.35,626.57 437.49,590.01 413.46,556.85 384.47,511.25 365.90,479.16 362.94,472.55 360.98,466.54 359.73,460.34 359.22,454.06 359.46,447.47 360.41,441.09 361.82,435.97 363.77,431.16 366.30,426.49 369.33,422.11 372.77,418.05 376.86,414.19 391.03,404.52 405.58,394.24 410.79,388.97 415.25,383.28 418.96,377.32 422.00,370.89 424.51,363.22 426.13,355.23 426.71,347.56 426.34,340.26 425.24,334.75 423.35,329.75 420.58,325.23 417.11,321.22 412.92,317.69 408.21,314.80 403.21,312.62 397.39,311.05 386.06,309.48 372.76,309.06 334.25,313.60 281.03,326.40 275.72,327.10 271.73,327.17 269.22,326.84 267.00,326.20 264.97,325.32 263.10,324.09 261.73,322.84 260.45,321.36 259.38,319.74 258.55,317.94 257.94,316.01 257.59,314.04 257.51,312.04 257.69,310.01 258.10,308.01 259.22,304.96 260.84,302.11 263.04,299.46 265.76,297.08 269.72,294.63 274.42,292.43 290.22,287.23 310.46,283.96 444.86,269.92 454.36,268.30 461.30,266.41 466.83,264.12 471.58,261.33 474.92,258.55 477.71,255.38 480.00,251.91 481.81,248.01 483.29,243.08 484.10,237.33 483.98,226.80 482.39,214.63 471.72,179.17 440.84,110.14 409.63,58.06 404.49,51.89 401.92,49.37 398.99,47.05 394.18,44.17 388.76,41.83 382.94,40.48 376.88,40.00 370.63,40.32 364.10,41.59 355.43,44.47 345.73,49.13 306.66,76.72 244.89,128.82 225.88,142.24 204.96,154.17 183.07,163.80 160.74,171.08 151.65,173.26 138.00,175.86 107.05,179.41 77.02,181.02 52.16,183.13 49.78,183.80 48.10,184.52 46.57,185.49 44.97,186.80 43.52,188.37 42.31,190.12 41.31,192.17 40.55,194.42 40.11,196.75 40.00,199.29 40.24,201.93 40.78,204.52 42.21,208.39 44.61,212.40 51.62,220.15 60.49,228.39 81.26,245.89 98.92,263.70 119.00,287.40 133.32,308.38 147.58,334.11 164.39,365.81 168.94,371.70 173.63,376.42 179.07,380.98 185.45,385.09 208.58,394.49 220.61,400.45 238.12,412.93 258.74,431.37 279.30,453.76 288.16,464.46 304.69,485.06"
        fill="none"
        stroke="#e94560"
        stroke-width="8.0"
        stroke-linejoin="round"
        stroke-linecap="round"/>
  <!-- Start/finish line -->
  <line x1="320.36" y1="472.63" x2="289.02" y2="497.49"
        stroke="#f5f5f5" stroke-width="9.6"
        stroke-linecap="round"/>
</svg>
