<?xml version="1.0" encoding="utf-8"?>
<svg xmlns="http://www.w3.org/2000/svg"
     width="308.0" height="800.0"
     viewBox="0 0 308.0 800.0">
  <rect width="100%" height="100%" fill="#1a1a2e"/>
  <!-- Track outline -->
  <polyline points="92.13,358.46 91.51,354.12 80.70,275.04 78.43,253.41 78.42,238.71 80.27,223.64 84.17,206.64 89.01,185.92 89.29,179.41 88.78,173.32 87.47,167.14 85.44,161.21 82.57,155.22 78.84,149.41 63.66,133.37 55.47,124.02 49.18,114.70 46.99,110.31 45.11,105.46 41.56,91.07 40.00,78.82 40.00,74.47 40.38,70.49 41.06,67.27 42.07,64.22 43.77,60.59 45.88,57.17 48.48,54.00 51.40,51.19 54.83,48.49 58.51,46.17 62.63,44.07 66.96,42.41 71.68,41.16 76.53,40.36 81.68,40.00 86.92,40.10 97.88,41.75 106.80,44.57 117.81,50.03 128.08,57.31 135.43,64.26 143.46,74.35 150.39,86.08 157.42,101.95 200.96,223.91 226.65,298.07 266.81,414.80 267.71,418.50 268.02,421.15 267.95,423.34 267.55,425.32 267.07,426.58 266.42,427.75 265.68,428.79 264.76,429.79 263.72,430.65 262.62,431.37 261.37,432.00 260.06,432.47 258.74,432.76 257.42,432.88 256.09,432.81 254.79,432.53 253.61,432.05 252.46,431.37 251.26,430.47 248.38,427.72 245.85,424.62 244.97,423.11 244.31,421.28 242.38,407.42 237.23,372.49 223.23,325.53 164.01,156.69 162.03,153.10 160.34,151.04 158.39,149.26 156.38,147.98 154.66,147.24 152.79,146.84 149.56,146.70 146.20,147.05 143.56,147.75 141.19,148.79 139.56,149.82 138.10,151.16 136.56,153.14 135.24,155.61 134.16,158.90 133.57,162.53 133.57,166.09 134.26,170.05 137.93,179.52 143.20,190.57 158.56,221.83 174.58,259.11 188.32,295.78 200.75,333.56 209.72,366.62 214.71,390.22 218.32,416.55 218.69,426.64 218.31,430.40 217.59,433.93 216.48,437.43 215.01,440.84 209.99,449.03 203.87,456.71 197.98,464.64 195.69,469.25 194.11,473.91 193.07,478.60 192.62,484.02 193.36,495.43 195.33,509.22 205.68,558.21 214.77,602.60 222.97,652.09 227.57,684.07 227.71,695.85 226.04,707.41 223.14,716.23 218.74,724.57 212.94,732.31 205.83,739.20 197.69,744.71 188.63,748.80 173.67,752.94 145.19,759.69 142.17,760.00 139.70,759.84 137.05,759.18 134.47,758.06 132.07,756.60 129.74,754.71 124.66,748.88 110.47,730.71 102.27,719.56 96.48,708.90 92.23,697.07 90.33,686.98 89.98,676.60 91.05,666.16 93.58,655.89 97.63,646.04 102.96,637.11 109.18,629.42 116.04,623.21 123.33,618.55 139.88,609.76 142.91,607.37 145.22,604.90 146.64,602.83 147.69,600.59 148.34,598.28 148.61,595.75 148.39,592.57 147.58,589.15 145.14,583.82 141.71,578.06 129.25,560.13 123.92,549.83 119.59,538.01 115.61,522.34 111.39,496.74 98.15,400.94 92.13,358.46"
        fill="none"
        stroke="#e94560"
        stroke-width="8.0"
        stroke-linejoin="round"
        stroke-linecap="round"/>
  <!-- Start/finish line -->
  <line x1="72.32" y1="361.27" x2="111.93" y2="355.65"
        stroke="#f5f5f5" stroke-width="9.6"
        stroke-linecap="round"/>
</svg>
