<?xml version="1.0" encoding="utf-8"?>
<svg xmlns="http://www.w3.org/2000/svg"
     width="585.8" height="800.0"
     viewBox="0 0 585.8 800.0">
  <rect width="100%" height="100%" fill="#1a1a2e"/>
  <!-- Track outline -->
  <polyline points="210.15,608.65 227.56,645.04 251.35,686.77 265.52,705.26 276.54,716.17 287.47,725.24 300.49,734.25 318.52,743.54 338.50,751.12 363.64,756.89 387.13,760.00 408.01,759.76 414.02,759.10 420.43,757.69 440.06,750.93 458.92,743.14 468.05,737.95 499.59,712.31 504.44,707.44 508.85,701.86 521.14,682.94 532.98,660.47 539.01,643.36 542.97,626.21 545.76,592.14 545.09,578.89 539.78,552.74 528.19,514.97 359.88,154.59 341.91,123.41 325.66,101.39 306.98,83.52 289.74,70.14 276.05,61.12 261.90,54.31 229.25,43.91 211.04,40.96 190.60,40.00 170.29,42.45 153.43,46.81 137.48,52.24 123.91,59.36 106.37,70.00 94.62,80.08 73.07,104.48 63.23,117.91 48.09,147.62 43.48,163.02 40.69,179.78 40.00,195.79 41.86,213.58 50.19,249.65 65.81,289.81 208.71,605.65 210.15,608.65"
        fill="none"
        stroke="#e94560"
        stroke-width="8.0"
        stroke-linejoin="round"
        stroke-linecap="round"/>
  <!-- Start/finish line -->
  <line x1="228.19" y1="600.02" x2="192.11" y2="617.28"
        stroke="#f5f5f5" stroke-width="9.6"
        stroke-linecap="round"/>
</svg>
