<?xml version="1.0" encoding="utf-8"?>
<svg xmlns="http://www.w3.org/2000/svg"
     width="800.0" height="607.0"
     viewBox="0 0 800.0 607.0">
  <rect width="100%" height="100%" fill="#1a1a2e"/>
  <!-- Track outline -->
  <polyline points="458.41,111.78 479.06,119.78 498.51,127.73 517.70,135.64 536.44,143.72 555.06,151.93 573.44,159.84 591.52,167.67 609.40,175.92 626.63,184.64 648.79,197.20 669.59,210.99 688.96,226.68 706.84,244.05 722.93,263.48 736.63,285.06 747.48,307.97 755.47,332.04 759.75,356.88 760.00,382.20 756.75,407.35 750.19,431.81 740.73,454.80 729.35,476.12 716.47,495.34 702.41,512.40 687.61,527.06 671.94,539.31 651.64,551.56 630.63,559.86 609.08,565.23 587.60,566.99 566.16,566.39 545.36,564.03 525.73,559.99 504.22,552.72 484.77,545.12 464.11,537.59 445.63,530.33 426.51,523.06 408.53,515.28 390.65,507.46 372.92,499.47 354.15,491.51 333.60,482.06 314.98,474.02 296.46,465.68 277.94,457.68 259.82,449.69 239.34,440.62 221.61,432.54 203.20,424.20 184.75,415.17 165.45,405.24 145.18,394.15 127.59,383.45 110.54,371.33 94.45,357.27 80.57,342.27 69.15,325.55 59.94,308.35 51.27,287.16 45.82,268.42 41.82,248.73 40.00,227.71 40.68,206.44 43.71,185.68 48.81,166.25 55.91,147.68 65.33,129.92 76.54,113.20 89.13,98.16 106.36,82.73 122.24,71.64 139.54,61.71 157.99,53.02 177.51,46.06 199.02,41.50 222.71,40.00 246.30,40.86 269.27,44.34 291.75,50.06 311.62,60.55 334.67,71.94 357.19,78.21 381.02,85.22 399.64,91.11 418.95,97.56 439.03,104.74 458.41,111.78"
        fill="none"
        stroke="#e94560"
        stroke-width="8.0"
        stroke-linejoin="round"
        stroke-linecap="round"/>
  <!-- Start/finish line -->
  <line x1="465.44" y1="93.06" x2="451.37" y2="130.51"
        stroke="#f5f5f5" stroke-width="9.6"
        stroke-linecap="round"/>
</svg>
