<?xml version="1.0" encoding="utf-8"?>
<svg xmlns="http://www.w3.org/2000/svg"
     width="800.0" height="665.2"
     viewBox="0 0 800.0 665.2">
  <rect width="100%" height="100%" fill="#1a1a2e"/>
  <!-- Track outline -->
  <polyline points="512.53,551.20 657.15,623.79 673.79,625.16 695.20,622.32 715.57,617.66 721.63,615.51 726.94,612.58 737.44,604.85 747.27,595.02 751.54,588.66 754.91,581.89 757.42,574.80 759.14,567.39 760.00,559.66 759.89,551.61 756.99,536.20 751.79,521.29 746.34,510.82 739.77,501.53 731.92,492.98 723.46,485.61 716.36,480.54 709.04,476.28 701.23,472.53 692.87,469.42 671.78,464.62 647.58,462.06 561.55,461.15 550.33,459.68 540.43,457.12 523.18,450.72 507.62,442.62 503.24,439.15 499.80,435.49 496.86,431.33 493.70,425.61 491.16,419.20 489.76,412.62 489.79,405.39 491.08,397.94 493.31,391.31 496.03,386.50 499.44,382.34 503.31,378.73 510.02,374.57 516.76,371.64 520.60,370.36 524.54,369.49 539.60,367.57 557.68,367.98 601.79,376.17 647.94,382.75 658.59,381.88 667.41,379.96 675.26,377.08 681.11,374.15 686.27,370.59 690.93,366.20 696.03,359.70 700.47,352.06 703.70,344.01 705.53,335.41 706.07,326.31 705.31,317.44 702.98,308.52 699.36,299.83 695.34,292.28 690.68,285.88 685.34,280.30 669.85,267.08 553.30,183.07 433.28,106.04 423.85,101.01 415.31,97.77 398.17,93.56 379.99,91.77 370.16,92.78 360.73,95.02 352.45,98.09 347.07,101.01 342.41,104.40 338.18,108.29 334.27,112.49 330.83,117.16 327.96,122.51 325.16,130.51 323.26,139.52 322.54,148.17 322.97,155.03 324.34,161.57 326.70,168.06 331.04,176.07 336.74,184.03 342.98,190.75 348.33,195.05 354.10,198.48 361.27,201.63 391.03,208.63 420.73,215.58 430.77,220.57 438.69,226.29 445.58,232.78 451.39,240.10 456.01,247.97 459.42,256.38 461.28,265.44 462.00,273.94 462.00,278.34 461.36,282.73 458.95,291.37 455.22,300.43 450.28,308.57 444.25,315.98 437.04,322.65 428.97,328.33 420.05,332.99 410.54,336.42 400.61,338.57 390.39,339.39 379.67,338.80 369.30,337.06 361.31,334.96 353.70,332.17 338.21,324.44 321.07,312.50 303.61,296.54 254.59,234.38 138.40,71.01 125.49,58.11 114.27,49.83 107.92,46.08 101.61,43.11 95.22,41.14 89.20,40.18 83.14,40.00 77.08,40.87 69.98,43.20 62.88,46.77 56.53,51.25 51.08,56.65 46.38,62.96 42.87,69.82 40.79,77.73 40.00,86.19 40.07,94.24 41.00,102.25 43.77,111.94 76.33,192.03 116.13,276.51 138.15,308.70 166.66,340.26 223.64,387.28 290.12,432.42 392.22,489.32 507.11,548.46 512.53,551.20"
        fill="none"
        stroke="#e94560"
        stroke-width="8.0"
        stroke-linejoin="round"
        stroke-linecap="round"/>
  <!-- Start/finish line -->
  <line x1="521.50" y1="533.33" x2="503.56" y2="569.08"
        stroke="#f5f5f5" stroke-width="9.6"
        stroke-linecap="round"/>
</svg>
