<?xml version="1.0" encoding="utf-8"?>
<svg xmlns="http://www.w3.org/2000/svg"
     width="597.0" height="800.0"
     viewBox="0 0 597.0 800.0">
  <rect width="100%" height="100%" fill="#1a1a2e"/>
  <!-- Track outline -->
  <polyline points="525.74,322.83 517.35,285.61 498.01,235.85 473.46,189.77 446.12,146.28 429.57,125.98 412.79,109.16 374.65,78.11 353.13,65.18 330.76,54.53 308.23,45.67 284.15,40.00 249.27,40.10 214.08,44.88 188.14,50.55 163.90,59.41 140.21,72.74 118.15,89.86 98.73,110.16 82.03,132.75 70.14,153.35 60.43,174.84 46.29,220.62 42.18,243.71 40.00,269.29 40.00,316.16 45.20,369.10 61.13,438.16 85.37,507.93 121.18,578.58 157.76,637.50 188.53,676.70 225.66,711.44 246.48,726.36 268.38,739.10 291.77,749.65 316.00,757.01 341.79,760.00 367.82,759.40 392.98,755.72 417.53,749.05 441.15,739.70 463.44,727.36 483.48,712.13 501.27,693.92 515.41,673.32 527.06,650.53 543.84,601.17 553.94,549.72 556.89,525.24 557.05,496.38 540.89,390.30 525.74,322.83"
        fill="none"
        stroke="#e94560"
        stroke-width="8.0"
        stroke-linejoin="round"
        stroke-linecap="round"/>
  <!-- Start/finish line -->
  <line x1="506.23" y1="327.21" x2="545.25" y2="318.44"
        stroke="#f5f5f5" stroke-width="9.6"
        stroke-linecap="round"/>
</svg>
