<?xml version="1.0" encoding="utf-8"?>
<svg xmlns="http://www.w3.org/2000/svg"
     width="800.0" height="771.4"
     viewBox="0 0 800.0 771.4">
  <rect width="100%" height="100%" fill="#1a1a2e"/>
  <!-- Track outline -->
  <polyline points="309.26,582.12 408.19,670.44 445.46,698.03 478.23,717.92 495.09,724.64 510.08,728.49 521.25,730.73 534.03,731.36 578.31,726.25 627.08,714.25 658.25,699.56 685.08,681.64 703.74,665.07 719.13,647.96 728.09,636.76 735.92,623.77 748.49,594.57 757.99,560.00 760.00,519.06 757.39,483.14 754.98,471.85 751.64,462.54 747.09,452.59 740.87,442.11 704.34,395.35 535.90,229.19 357.35,73.05 334.61,58.63 316.48,50.12 297.75,44.48 264.50,40.00 230.39,41.25 192.32,48.33 158.74,58.63 145.29,64.45 133.12,71.71 113.45,85.77 93.98,103.24 78.00,121.96 64.15,143.91 50.64,174.63 41.61,208.32 40.00,242.09 42.27,271.92 43.95,282.66 47.16,293.06 61.27,323.78 80.47,356.48 121.95,403.68 303.57,577.02 309.26,582.12"
        fill="none"
        stroke="#e94560"
        stroke-width="8.0"
        stroke-linejoin="round"
        stroke-linecap="round"/>
  <!-- Start/finish line -->
  <line x1="322.58" y1="567.20" x2="295.93" y2="597.04"
        stroke="#f5f5f5" stroke-width="9.6"
        stroke-linecap="round"/>
</svg>
