<?xml version="1.0" encoding="utf-8"?>
<svg xmlns="http://www.w3.org/2000/svg"
     width="800.0" height="649.9"
     viewBox="0 0 800.0 649.9">
  <rect width="100%" height="100%" fill="#1a1a2e"/>
  <!-- Track outline -->
  <polyline points="309.29,147.38 306.39,145.73 252.94,114.03 148.47,51.69 129.68,44.61 113.51,41.13 99.77,40.00 86.63,41.10 78.11,43.13 69.81,46.19 62.25,50.18 56.31,54.51 50.94,59.53 46.58,65.24 43.57,71.01 41.34,77.34 40.13,83.63 40.00,89.41 40.70,95.15 42.26,100.62 45.08,106.29 48.92,111.62 53.36,116.09 58.52,119.60 64.35,122.14 71.12,124.45 93.43,128.47 115.12,133.25 120.95,136.28 125.73,139.75 129.47,143.88 131.32,146.80 132.80,150.00 133.82,153.40 134.33,157.04 132.56,167.05 129.42,177.81 126.41,189.61 125.17,200.58 125.98,204.19 127.35,207.49 129.17,210.48 131.35,213.19 135.78,217.01 141.24,220.07 147.42,222.41 161.42,224.85 178.87,224.99 224.47,218.25 269.33,211.99 284.14,212.85 296.56,215.81 304.73,218.90 312.60,222.93 319.67,227.84 325.20,233.03 330.12,238.91 334.45,245.52 340.01,257.17 344.26,270.48 347.67,287.67 349.63,307.85 348.29,351.08 348.45,390.45 350.36,397.60 352.91,403.03 356.19,407.78 360.87,412.52 366.43,416.41 372.45,419.43 379.09,421.70 386.24,422.91 394.89,423.18 431.50,417.47 472.56,407.64 504.68,398.05 531.37,391.20 537.90,390.72 543.35,391.03 548.38,392.41 551.93,394.13 555.34,396.39 558.41,399.11 560.77,402.10 562.22,404.92 563.30,408.05 563.91,411.28 564.05,414.45 563.59,417.71 562.57,421.08 561.12,424.25 559.32,427.07 555.85,430.47 551.47,433.12 546.12,435.70 532.82,439.86 516.67,443.74 503.04,448.73 494.60,454.75 486.94,462.86 470.25,487.55 452.57,512.79 440.88,522.86 428.92,531.04 412.95,541.12 398.58,551.71 393.79,557.11 389.92,562.75 387.15,568.66 385.59,574.33 384.87,580.28 385.06,585.96 385.84,589.91 387.10,593.83 388.82,597.47 390.89,600.60 393.58,603.35 396.80,605.62 400.30,607.41 403.84,608.72 407.61,609.58 411.50,609.89 415.56,609.65 419.81,608.82 431.36,603.66 444.48,595.14 471.11,573.20 498.37,551.74 512.31,544.69 527.20,539.78 565.93,533.04 602.54,525.85 609.87,522.69 615.68,519.28 620.52,515.06 624.06,510.83 626.91,506.05 629.12,500.20 630.70,482.12 631.35,463.38 632.29,456.50 633.47,450.34 635.46,445.05 637.53,441.82 640.05,438.96 642.88,436.56 645.89,434.66 649.38,433.19 653.17,432.22 657.12,431.85 661.04,431.98 669.40,434.66 678.08,438.79 688.59,444.02 699.15,447.97 704.93,448.42 710.58,447.90 716.03,446.39 721.43,443.85 726.67,440.30 731.54,435.76 736.59,429.30 741.19,421.53 745.41,412.49 753.33,388.90 758.71,363.87 760.00,346.85 758.84,331.20 756.80,322.30 753.79,313.94 749.92,306.10 741.86,294.65 731.67,284.47 715.57,273.02 698.43,264.01 689.83,260.54 681.52,258.03 673.62,256.90 667.25,257.07 661.20,258.20 655.51,260.34 650.59,263.36 646.02,267.32 641.34,271.99 631.67,284.68 621.56,296.75 615.84,300.63 609.95,303.28 603.93,304.93 597.70,305.69 591.33,305.45 584.53,304.14 570.82,298.36 553.65,288.81 415.91,208.17 309.29,147.38"
        fill="none"
        stroke="#e94560"
        stroke-width="8.0"
        stroke-linejoin="round"
        stroke-linecap="round"/>
  <!-- Start/finish line -->
  <line x1="299.39" y1="164.76" x2="319.20" y2="130.01"
        stroke="#f5f5f5" stroke-width="9.6"
        stroke-linecap="round"/>
</svg>
