<?xml version="1.0" encoding="utf-8"?>
<svg xmlns="http://www.w3.org/2000/svg"
     width="800.0" height="759.3"
     viewBox="0 0 800.0 759.3">
  <rect width="100%" height="100%" fill="#1a1a2e"/>
  <!-- Track outline -->
  <polyline points="500.01,168.34 479.61,149.10 432.24,110.72 390.51,83.45 358.45,68.69 327.34,58.06 296.51,48.50 265.40,42.13 232.88,40.00 200.92,42.01 173.47,47.79 147.53,57.36 123.19,70.70 100.81,87.58 81.73,106.71 65.47,129.14 51.84,157.24 42.82,188.06 40.00,220.41 41.88,252.53 46.86,279.33 55.23,305.07 68.67,334.12 84.93,362.10 120.46,412.28 243.97,535.07 384.77,651.37 436.00,681.95 489.58,704.74 517.78,712.53 546.63,717.49 577.46,719.26 608.48,716.67 639.69,708.16 669.39,694.11 687.53,681.95 704.73,667.43 719.77,650.78 737.63,622.21 750.69,591.16 757.27,564.47 760.00,537.43 759.25,508.98 754.83,480.52 746.46,451.83 734.72,424.09 721.27,398.94 701.44,371.19 597.39,260.08 500.01,168.34"
        fill="none"
        stroke="#e94560"
        stroke-width="8.0"
        stroke-linejoin="round"
        stroke-linecap="round"/>
  <!-- Start/finish line -->
  <line x1="486.29" y1="182.90" x2="513.73" y2="153.79"
        stroke="#f5f5f5" stroke-width="9.6"
        stroke-linecap="round"/>
</svg>
