<?xml version="1.0" encoding="utf-8"?>
<svg xmlns="http://www.w3.org/2000/svg"
     width="775.8" height="800.0"
     viewBox="0 0 775.8 800.0">
  <rect width="100%" height="100%" fill="#1a1a2e"/>
  <!-- Track outline -->
  <polyline points="55.91,383.58 58.84,394.12 79.99,442.52 108.00,492.08 191.35,602.93 247.82,658.80 299.82,696.94 350.74,728.00 392.96,742.32 419.40,750.74 454.41,756.65 487.01,760.00 500.60,758.94 578.22,742.38 603.66,732.18 625.03,721.08 647.76,705.19 666.95,687.24 689.28,658.52 708.33,630.36 711.74,624.06 714.36,617.26 725.33,581.52 734.51,542.60 735.82,528.72 735.56,515.73 729.97,473.68 713.88,407.95 692.42,364.84 660.87,312.49 606.89,239.39 545.31,169.08 491.78,119.40 438.68,80.26 397.99,59.57 349.30,43.23 336.23,41.56 282.82,40.00 253.32,43.07 226.71,48.03 214.43,51.49 202.36,56.45 171.33,72.56 143.36,89.57 137.77,93.92 132.65,99.16 104.90,131.22 77.24,167.80 69.81,181.23 64.04,195.34 51.06,231.81 41.14,271.17 40.00,296.32 41.75,319.29 47.82,354.42 55.91,383.58"
        fill="none"
        stroke="#e94560"
        stroke-width="8.0"
        stroke-linejoin="round"
        stroke-linecap="round"/>
  <!-- Start/finish line -->
  <line x1="75.18" y1="378.23" x2="36.64" y2="388.93"
        stroke="#f5f5f5" stroke-width="9.6"
        stroke-linecap="round"/>
</svg>
