<?xml version="1.0" encoding="utf-8"?>
<svg xmlns="http://www.w3.org/2000/svg"
     width="414.7" height="800.0"
     viewBox="0 0 414.7 800.0">
  <rect width="100%" height="100%" fill="#1a1a2e"/>
  <!-- Track outline -->
  <polyline points="40.77,430.66 40.00,453.57 40.61,574.23 48.31,645.53 52.89,663.37 58.98,678.61 66.79,691.90 76.78,704.27 96.30,721.86 114.81,735.92 119.29,739.04 124.00,741.52 142.75,748.93 165.50,755.62 186.77,759.19 208.24,760.00 230.15,757.73 252.09,751.81 278.44,738.72 300.32,723.93 306.48,718.13 311.36,711.72 318.69,700.17 325.83,685.09 336.16,652.22 345.79,608.89 363.93,500.91 374.73,385.43 361.34,254.71 354.23,218.92 324.38,131.48 310.85,103.60 305.30,95.13 298.20,87.14 275.68,69.27 249.97,53.25 234.19,46.04 217.87,41.74 191.14,40.00 164.35,41.99 152.78,43.81 142.18,46.57 131.57,51.63 117.10,62.70 102.60,77.49 89.81,93.71 75.24,118.55 63.86,146.85 54.27,183.77 47.67,228.60 40.77,430.66"
        fill="none"
        stroke="#e94560"
        stroke-width="8.0"
        stroke-linejoin="round"
        stroke-linecap="round"/>
  <!-- Start/finish line -->
  <line x1="60.76" y1="431.35" x2="20.79" y2="429.98"
        stroke="#f5f5f5" stroke-width="9.6"
        stroke-linecap="round"/>
</svg>
