<?xml version="1.0" encoding="utf-8"?>
<svg xmlns="http://www.w3.org/2000/svg"
     width="498.5" height="800.0"
     viewBox="0 0 498.5 800.0">
  <rect width="100%" height="100%" fill="#1a1a2e"/>
  <!-- Track outline -->
  <polyline points="306.35,404.13 308.51,421.33 308.59,429.16 307.02,438.75 297.82,472.93 295.00,483.51 292.52,491.67 289.12,502.47 287.46,508.53 285.48,535.10 283.65,551.75 280.42,571.04 276.36,589.56 270.48,609.96 263.52,630.90 254.41,652.07 242.64,674.34 229.80,697.93 215.47,719.21 198.73,736.41 186.64,745.45 172.39,751.73 154.08,756.58 132.71,759.78 115.56,760.00 93.52,758.90 80.02,757.46 64.69,753.39 52.84,746.00 46.30,737.84 41.41,727.92 40.00,717.23 41.74,707.19 45.55,698.26 50.69,690.11 58.47,682.83 70.65,678.09 84.90,674.56 98.24,674.12 112.91,677.65 122.93,682.28 131.46,684.48 140.99,684.70 154.91,680.40 167.00,674.23 177.86,665.19 188.21,651.30 200.47,631.13 217.46,593.31 224.75,565.09 228.56,541.39 230.22,518.02 230.05,495.08 225.66,471.60 218.12,446.03 210.33,419.90 205.61,398.84 202.71,376.02 201.55,356.29 202.88,337.66 205.86,321.23 209.17,308.11 215.72,293.78 224.17,280.55 234.44,270.41 247.03,260.05 266.59,247.59 290.20,234.03 305.03,224.33 320.11,210.99 329.14,197.87 336.18,181.88 342.06,159.50 345.54,131.28 347.36,107.14 346.37,81.12 342.14,62.49 336.51,49.59 328.39,43.09 320.27,40.00 309.09,41.32 300.30,44.85 291.69,53.23 285.31,63.04 281.42,75.17 279.84,89.28 280.92,99.20 285.23,111.33 291.44,120.59 299.14,127.64 310.41,132.05 329.30,133.93 420.60,140.98 432.94,143.52 441.48,146.50 449.35,151.24 453.82,156.86 456.80,164.35 458.46,175.82 458.38,183.21 456.47,189.82 453.16,195.00 444.87,203.16 436.84,208.78 417.28,220.36 357.80,257.84 349.35,263.90 341.56,271.18 331.12,280.88 324.08,290.58 318.78,301.72 314.55,314.84 311.49,327.40 308.67,340.85 306.35,355.41 304.94,379.55 306.27,403.69 306.35,404.13"
        fill="none"
        stroke="#e94560"
        stroke-width="8.0"
        stroke-linejoin="round"
        stroke-linecap="round"/>
  <!-- Start/finish line -->
  <line x1="326.19" y1="401.62" x2="286.51" y2="406.65"
        stroke="#f5f5f5" stroke-width="9.6"
        stroke-linecap="round"/>
</svg>
