<?xml version="1.0" encoding="utf-8"?>
<svg xmlns="http://www.w3.org/2000/svg"
     width="536.5" height="800.0"
     viewBox="0 0 536.5 800.0">
  <rect width="100%" height="100%" fill="#1a1a2e"/>
  <!-- Track outline -->
  <polyline points="190.81,708.75 185.87,699.84 181.86,690.13 179.17,679.80 177.77,669.20 177.83,658.43 179.20,647.66 185.56,626.77 194.18,606.49 200.18,585.43 203.31,563.45 203.70,552.00 202.97,540.54 200.85,529.12 197.39,518.19 192.87,508.39 186.93,499.53 181.77,493.90 175.89,488.84 169.64,484.91 165.06,482.97 160.27,481.51 155.39,480.74 150.57,480.78 145.38,481.80 140.08,483.74 135.07,486.37 130.77,489.45 127.40,492.89 124.49,496.86 122.15,501.19 120.39,505.68 118.94,512.04 118.57,518.80 119.45,526.17 124.76,539.04 132.74,553.17 138.41,566.04 139.89,573.33 140.29,580.05 139.41,586.49 137.71,591.59 135.22,596.73 132.07,601.39 128.40,605.15 124.22,607.90 119.39,609.93 114.30,611.26 109.29,611.71 102.47,610.70 95.59,608.15 89.13,604.95 80.64,599.36 72.90,592.52 65.41,584.02 58.83,574.79 49.55,557.50 45.73,547.79 42.85,537.66 41.15,526.81 40.00,508.11 41.52,486.66 47.34,444.31 53.83,408.48 59.95,387.47 87.67,305.86 92.46,262.17 92.98,225.17 90.80,205.62 79.30,149.95 77.06,126.39 77.48,115.50 79.06,105.02 81.97,95.34 86.07,86.23 91.10,78.05 97.01,70.61 103.65,63.89 110.96,57.93 118.91,52.79 127.40,48.50 136.53,45.06 146.08,42.51 166.46,40.00 187.99,40.40 264.47,49.51 331.07,59.35 342.32,62.35 346.11,64.78 349.08,67.37 351.42,70.24 353.18,73.48 354.39,77.33 354.96,81.70 354.93,86.23 354.27,90.56 352.99,94.37 350.42,98.22 346.81,101.58 342.65,104.53 338.50,107.24 330.55,111.41 321.30,115.06 283.03,127.44 245.85,146.27 228.02,159.55 211.98,175.74 205.15,185.09 199.15,195.13 189.57,216.91 182.90,240.27 179.77,266.83 179.20,296.54 181.99,324.84 188.14,353.75 201.58,392.65 216.04,425.93 226.17,442.77 238.45,458.11 251.89,472.45 259.07,478.60 267.63,484.47 340.32,524.75 445.76,598.63 461.32,611.30 474.75,625.31 480.36,632.60 485.34,640.57 490.37,650.94 494.16,662.03 496.13,672.84 496.47,683.65 495.04,693.89 492.04,703.73 487.40,713.04 481.30,721.46 473.78,728.75 465.17,734.78 455.47,739.43 445.12,742.59 434.78,744.17 423.41,743.93 404.18,740.61 380.77,734.33 359.24,730.93 340.01,729.56 332.83,727.86 326.55,725.67 320.94,722.47 316.91,719.07 313.21,715.02 310.05,710.57 307.75,705.91 306.41,701.18 305.84,696.12 305.90,690.94 306.47,685.96 309.99,676.32 314.39,666.85 317.85,657.82 320.03,648.67 320.03,642.11 319.03,635.43 317.12,629.16 314.18,623.37 310.29,617.98 305.81,613.29 300.86,609.40 295.31,606.20 289.37,603.94 282.24,602.56 274.63,602.28 267.35,603.29 260.53,605.76 254.01,609.48 248.40,613.94 244.18,618.59 240.76,623.85 238.15,629.48 236.33,635.76 235.36,642.40 235.15,649.16 236.36,659.80 239.06,670.45 242.70,681.02 247.58,691.02 253.92,699.76 261.11,707.70 268.75,714.17 275.87,720.81 278.94,724.82 281.82,729.11 284.00,733.60 284.94,738.02 284.73,741.05 283.97,744.33 282.76,747.61 281.12,750.69 279.18,753.44 277.00,755.59 273.69,757.53 269.66,758.91 265.23,759.72 260.74,760.00 256.53,759.80 249.86,758.02 243.30,754.82 237.03,751.26 220.08,739.80 202.91,724.78 196.48,717.17 190.81,708.75"
        fill="none"
        stroke="#e94560"
        stroke-width="8.0"
        stroke-linejoin="round"
        stroke-linecap="round"/>
  <!-- Start/finish line -->
  <line x1="173.76" y1="719.19" x2="207.87" y2="698.30"
        stroke="#f5f5f5" stroke-width="9.6"
        stroke-linecap="round"/>
</svg>
