<?xml version="1.0" encoding="utf-8"?>
<svg xmlns="http://www.w3.org/2000/svg"
     width="779.0" height="800.0"
     viewBox="0 0 779.0 800.0">
  <rect width="100%" height="100%" fill="#1a1a2e"/>
  <!-- Track outline -->
  <polyline points="306.94,641.34 411.94,709.44 450.10,733.39 480.60,749.19 504.78,756.84 528.19,760.00 552.81,759.00 577.24,753.76 601.04,743.87 623.12,731.06 654.26,706.04 682.99,677.27 706.85,643.42 716.22,625.96 724.06,607.00 730.96,583.47 735.90,558.78 739.00,511.88 738.56,465.07 733.81,184.27 729.00,140.36 724.13,120.49 716.66,102.20 708.56,89.89 698.69,78.66 687.74,69.77 678.56,64.86 668.63,61.29 658.44,59.21 648.44,58.63 638.69,59.54 628.75,61.87 619.33,65.69 610.84,70.85 603.95,76.75 597.74,83.74 592.30,92.14 587.49,102.11 581.92,128.56 578.82,160.49 573.57,187.76 567.30,202.06 559.90,213.87 551.29,224.34 533.70,237.57 515.09,249.54 504.02,258.19 493.38,267.25 484.97,278.23 480.41,288.04 476.80,299.01 474.65,310.41 474.46,321.30 478.32,335.27 485.54,348.82 493.38,361.54 505.47,377.84 517.62,393.72 524.78,404.53 531.42,415.59 535.60,427.48 536.61,437.46 536.29,448.27 534.58,458.75 531.48,468.14 526.29,476.87 519.27,484.69 511.11,491.34 502.62,496.41 489.02,500.57 474.08,501.73 459.46,501.24 439.97,497.99 421.05,491.76 402.63,482.86 384.98,471.63 367.89,458.58 352.32,443.20 339.66,425.40 329.28,405.36 321.44,383.25 316.44,360.38 314.66,342.09 315.55,321.46 328.21,261.43 342.13,200.90 345.17,178.53 345.55,158.99 342.32,138.62 336.12,119.24 326.94,101.03 315.23,84.82 300.17,70.68 283.08,59.29 263.27,50.39 242.39,44.32 220.56,40.58 198.72,40.00 185.12,41.41 171.70,44.16 158.98,48.73 147.46,54.80 136.51,62.45 126.83,71.51 118.73,81.49 111.70,92.72 106.32,104.77 102.78,117.50 100.82,131.05 100.38,144.60 103.03,164.81 108.48,184.60 125.31,223.10 132.02,242.06 136.83,261.43 138.92,280.64 137.84,299.76 135.37,309.99 131.83,320.22 127.21,329.78 121.64,337.93 111.77,345.91 100.00,351.56 88.29,357.55 70.25,367.95 54.56,381.17 49.24,389.56 44.75,399.21 41.52,409.44 40.00,419.67 40.44,430.47 42.72,441.78 46.27,452.76 50.63,462.65 56.96,472.88 65.00,481.70 77.02,492.34 306.94,641.34"
        fill="none"
        stroke="#e94560"
        stroke-width="8.0"
        stroke-linejoin="round"
        stroke-linecap="round"/>
  <!-- Start/finish line -->
  <line x1="317.82" y1="624.56" x2="296.06" y2="658.13"
        stroke="#f5f5f5" stroke-width="9.6"
        stroke-linecap="round"/>
</svg>
