<?xml version="1.0" encoding="utf-8"?>
<svg xmlns="http://www.w3.org/2000/svg"
     width="337.8" height="800.0"
     viewBox="0 0 337.8 800.0">
  <rect width="100%" height="100%" fill="#1a1a2e"/>
  <!-- Track outline -->
  <polyline points="45.24,409.61 45.37,415.85 47.93,621.75 53.39,671.72 55.79,680.51 60.06,691.55 68.68,707.13 83.36,726.63 89.05,732.91 94.61,737.67 100.39,741.55 109.14,746.75 120.38,751.79 138.48,757.71 147.51,759.38 156.51,760.00 185.25,759.24 195.08,757.60 204.42,754.95 215.23,750.23 225.52,744.64 240.15,734.69 254.96,721.36 269.27,705.09 280.16,687.48 289.48,666.82 294.88,648.26 297.85,622.66 294.09,234.50 291.37,198.11 286.51,169.90 278.30,143.46 267.66,120.15 256.70,103.84 245.39,90.62 230.70,77.26 212.98,64.08 193.97,52.17 182.22,47.08 171.01,43.74 160.21,41.56 149.66,40.44 140.50,40.00 131.15,40.65 118.30,43.67 105.47,48.53 94.92,54.56 85.39,61.53 77.84,67.85 70.98,74.86 64.00,83.50 57.91,93.02 53.45,102.86 49.89,113.06 44.58,132.82 40.00,173.96 45.24,409.61"
        fill="none"
        stroke="#e94560"
        stroke-width="8.0"
        stroke-linejoin="round"
        stroke-linecap="round"/>
  <!-- Start/finish line -->
  <line x1="65.24" y1="409.16" x2="25.25" y2="410.05"
        stroke="#f5f5f5" stroke-width="9.6"
        stroke-linecap="round"/>
</svg>
