<?xml version="1.0" encoding="utf-8"?>
<svg xmlns="http://www.w3.org/2000/svg"
     width="800.0" height="765.3"
     viewBox="0 0 800.0 765.3">
  <rect width="100%" height="100%" fill="#1a1a2e"/>
  <!-- Track outline -->
  <polyline points="445.37,724.81 548.80,725.27 672.66,723.88 693.05,719.07 709.70,712.17 722.36,705.04 733.53,696.24 742.88,686.20 750.58,674.49 755.92,661.85 759.19,648.14 760.00,638.75 759.78,629.07 758.50,619.72 755.85,610.37 752.02,601.34 747.37,593.19 741.54,585.60 734.80,578.98 727.54,573.28 719.18,568.24 710.20,564.35 701.07,561.52 691.96,559.67 682.64,558.98 672.19,559.63 642.44,568.19 611.98,578.56 592.33,583.14 576.46,585.23 570.88,584.67 566.14,583.47 561.46,582.03 557.00,580.13 552.92,577.91 549.08,575.27 545.59,572.26 542.35,568.84 539.42,565.04 536.83,560.88 534.86,556.48 533.34,551.85 532.37,547.31 531.84,542.68 531.81,537.96 532.28,533.28 533.09,528.70 534.71,523.75 540.91,512.17 549.96,498.84 568.95,477.13 587.94,454.30 597.29,438.24 604.12,420.92 609.11,398.79 611.07,372.31 606.77,315.04 595.98,250.23 577.18,173.52 556.07,109.12 547.06,90.42 537.36,76.62 524.39,63.56 510.48,53.43 498.82,47.18 486.66,43.06 470.72,40.28 454.32,40.00 443.97,41.39 433.74,43.89 424.67,47.31 416.15,52.22 408.76,58.43 402.18,65.51 396.41,74.31 392.33,83.24 388.81,93.52 386.53,104.17 385.69,114.72 386.06,125.60 387.81,136.57 394.85,156.30 406.42,177.27 440.38,221.25 474.21,263.61 484.35,280.46 491.46,295.28 495.42,305.74 497.94,315.92 499.04,325.65 498.82,335.23 497.13,344.40 494.20,353.05 489.71,361.43 484.16,368.84 477.49,375.18 470.07,380.27 461.46,384.49 452.39,387.27 442.84,388.42 433.21,388.15 423.95,386.62 414.91,383.70 406.05,379.44 397.69,373.75 390.43,367.17 383.66,358.47 375.09,342.82 366.98,321.06 354.07,248.10 342.87,189.77 333.30,161.85 325.26,151.02 318.15,143.84 310.63,138.52 302.18,134.40 294.07,131.71 289.68,130.65 285.06,130.42 277.27,131.43 268.07,133.66 259.77,136.76 254.57,139.77 249.95,143.29 245.68,147.45 239.97,154.30 235.11,162.87 230.74,176.34 227.66,192.55 226.63,219.17 225.07,246.20 219.89,265.14 212.87,281.48 205.55,293.70 196.72,304.26 183.56,315.65 166.97,325.97 126.44,340.92 87.33,355.97 74.55,365.74 65.32,375.14 61.27,379.67 57.93,384.67 53.47,393.79 49.98,404.16 48.42,414.49 48.11,424.12 48.45,429.26 49.45,434.21 52.60,443.42 57.12,452.77 63.26,461.39 69.72,468.56 73.49,472.22 77.86,475.37 91.14,482.73 107.76,488.84 128.74,491.15 153.19,490.09 204.17,481.20 252.57,472.40 268.57,471.76 281.69,472.91 291.98,475.14 301.43,478.70 309.73,483.28 317.21,489.12 323.23,495.55 328.12,503.10 330.40,508.38 332.15,514.02 333.27,519.95 333.64,529.72 332.55,539.63 329.81,549.35 325.69,558.42 319.89,567.26 312.53,575.27 299.84,585.41 285.19,593.70 268.75,599.21 251.48,601.80 233.80,601.20 214.15,598.24 174.58,588.93 135.11,580.83 115.46,580.46 98.40,582.91 84.68,587.45 72.49,593.88 63.89,600.41 56.46,608.14 50.29,616.71 45.30,626.25 41.90,636.11 40.00,646.43 40.06,656.99 41.34,666.71 42.59,671.99 44.49,676.94 49.35,686.01 55.68,694.99 63.26,702.68 72.02,709.16 79.45,713.56 87.68,717.22 98.22,720.13 153.50,722.77 228.59,723.79 445.37,724.81"
        fill="none"
        stroke="#e94560"
        stroke-width="8.0"
        stroke-linejoin="round"
        stroke-linecap="round"/>
  <!-- Start/finish line -->
  <line x1="445.46" y1="704.81" x2="445.28" y2="744.81"
        stroke="#f5f5f5" stroke-width="9.6"
        stroke-linecap="round"/>
</svg>
