<?xml version="1.0" encoding="utf-8"?>
<svg xmlns="http://www.w3.org/2000/svg"
     width="612.6" height="800.0"
     viewBox="0 0 612.6 800.0">
  <rect width="100%" height="100%" fill="#1a1a2e"/>
  <!-- Track outline -->
  <polyline points="279.42,604.37 281.54,602.67 296.21,588.33 320.25,555.11 366.34,473.64 384.80,445.80 447.88,364.46 479.82,310.95 507.91,257.26 544.95,180.19 567.69,127.25 570.74,115.93 572.23,106.12 572.56,98.48 571.92,91.21 570.15,83.85 567.40,76.77 563.74,70.11 559.19,63.92 553.44,57.89 546.87,52.55 539.44,48.00 531.50,44.43 523.58,41.97 515.28,40.51 505.66,40.00 495.48,40.73 482.34,43.53 469.41,47.69 459.42,51.90 450.25,56.97 441.88,62.98 434.18,69.96 426.76,78.32 420.14,87.54 414.39,97.53 409.61,108.18 405.79,119.67 402.86,132.35 390.58,243.40 374.49,354.32 369.01,379.78 363.46,395.69 360.50,401.56 357.18,406.84 353.70,411.31 349.87,415.32 345.69,418.81 341.12,421.84 335.84,424.56 330.28,426.70 324.83,428.08 319.23,428.90 313.11,429.24 306.82,428.99 293.22,426.45 277.04,421.15 260.07,416.11 250.00,414.80 240.18,414.74 228.27,415.80 214.32,418.50 173.38,430.32 136.91,443.43 133.80,444.90 131.41,446.36 128.48,448.63 126.06,450.84 124.59,452.59 122.81,455.30 121.15,458.39 120.30,460.76 119.81,462.99 119.69,464.54 119.76,466.13 120.09,468.77 120.73,471.40 121.56,473.16 122.64,474.74 124.11,476.32 125.91,477.88 129.03,480.27 132.07,482.26 134.28,483.21 139.34,484.75 146.70,485.72 154.99,485.69 178.53,481.52 196.79,479.19 219.35,479.80 227.61,480.67 234.85,482.08 239.34,483.57 241.26,484.42 243.18,485.50 246.18,487.76 248.83,490.23 249.83,491.52 250.61,492.89 251.73,495.38 252.63,498.09 253.11,500.53 253.30,502.88 253.19,504.73 252.89,506.52 251.85,510.21 250.14,514.47 247.81,518.67 244.55,523.01 240.65,527.04 236.20,530.61 230.79,534.02 205.86,545.71 144.01,577.94 114.09,597.52 103.76,606.50 94.44,616.37 75.00,643.48 47.85,697.70 40.58,716.24 40.22,718.86 40.00,724.17 40.60,729.33 41.94,734.31 43.96,738.98 46.68,743.36 50.41,747.72 54.76,751.56 59.36,754.56 64.36,756.90 70.10,758.71 76.12,759.76 82.37,760.00 88.65,759.42 94.96,757.95 101.10,755.68 107.13,752.55 112.80,748.67 118.05,744.10 122.99,738.58 134.95,719.52 148.30,694.02 158.19,680.04 170.33,667.10 184.71,655.81 201.04,646.43 224.88,636.23 254.21,622.44 267.85,613.67 279.42,604.37"
        fill="none"
        stroke="#e94560"
        stroke-width="8.0"
        stroke-linejoin="round"
        stroke-linecap="round"/>
  <!-- Start/finish line -->
  <line x1="266.88" y1="588.79" x2="291.95" y2="619.96"
        stroke="#f5f5f5" stroke-width="9.6"
        stroke-linecap="round"/>
</svg>
