<?xml version="1.0" encoding="utf-8"?>
<svg xmlns="http://www.w3.org/2000/svg"
     width="800.0" height="628.5"
     viewBox="0 0 800.0 628.5">
  <rect width="100%" height="100%" fill="#1a1a2e"/>
  <!-- Track outline -->
  <polyline points="444.62,522.09 231.35,415.55 155.82,380.74 121.82,357.97 94.13,331.62 72.09,302.25 55.15,270.94 49.06,254.59 44.45,237.71 41.43,220.36 40.00,202.72 40.00,185.02 41.91,167.56 52.76,134.09 66.27,101.79 72.09,87.25 78.93,73.93 85.07,66.17 92.06,59.22 99.63,53.32 107.42,48.59 115.73,44.91 124.42,42.34 134.53,40.53 145.07,40.00 154.92,41.52 161.28,44.09 167.42,47.71 172.93,52.21 177.49,57.29 180.98,62.95 183.74,69.44 185.59,76.27 186.44,83.10 185.59,92.45 182.83,102.09 179.13,112.48 166.73,138.42 154.61,164.64 150.37,180.70 148.62,196.12 149.31,212.47 152.17,228.83 157.15,245.42 163.77,260.95 170.81,272.87 178.92,283.67 187.71,293.95 199.15,304.64 232.46,329.70 278.06,358.37 393.04,417.95 497.10,463.62 513.26,467.60 526.23,468.70 540.43,468.76 554.41,467.30 568.02,464.50 581.20,460.29 593.70,454.57 605.57,447.50 616.64,439.15 626.91,429.51 636.34,418.48 644.76,406.39 652.07,393.13 658.32,379.11 667.74,348.85 672.83,320.70 675.16,292.32 673.89,275.55 670.23,260.66 666.47,251.67 661.71,243.26 655.77,235.78 647.83,228.48 638.56,222.23 628.82,217.97 621.24,216.27 613.25,215.63 605.25,216.10 597.62,217.67 587.72,221.82 578.24,227.89 570.08,235.02 561.82,246.29 555.31,258.97 549.75,273.33 543.92,287.99 535.66,302.77 525.65,316.44 513.20,328.30 499.17,338.11 483.92,345.88 467.87,351.02 451.45,353.00 434.93,352.13 418.83,348.15 401.93,341.85 348.44,317.61 320.37,302.13 306.97,292.49 294.42,281.63 283.09,269.42 272.97,256.05 264.29,241.80 257.03,226.84 251.63,211.83 247.76,196.47 245.59,181.40 244.90,166.45 245.59,152.49 247.98,138.65 253.22,122.82 260.79,108.10 266.62,100.16 273.24,93.15 280.76,87.48 287.64,83.92 295.22,81.12 303.06,79.31 310.52,78.84 317.35,79.66 324.19,81.64 330.70,84.56 336.47,88.30 341.66,92.97 346.38,98.64 350.30,104.89 353.16,111.49 354.53,121.13 354.16,131.46 354.16,141.63 355.43,155.18 358.19,168.20 361.84,176.96 366.61,185.43 372.28,193.08 379.21,200.03 387.10,206.11 395.47,211.07 404.48,215.04 414.06,217.97 423.59,219.37 432.97,219.13 442.29,217.44 451.29,214.64 459.87,210.72 468.13,205.70 475.60,199.63 482.12,192.56 487.89,184.32 493.24,174.63 502.98,145.60 512.04,116.63 518.13,103.90 525.28,93.09 536.98,80.48 550.81,69.67 566.32,61.96 582.95,56.82 600.85,54.19 618.60,53.96 632.84,55.54 646.61,58.75 660.91,63.83 674.84,70.37 688.34,78.14 701.16,87.19 712.97,97.65 723.72,109.33 733.15,122.18 741.30,136.08 748.03,150.97 753.27,166.57 759.05,199.33 760.00,234.09 757.46,269.71 720.17,491.02 714.98,507.90 709.37,520.63 702.06,533.71 693.53,545.80 684.37,556.55 673.78,566.07 659.27,575.65 643.17,583.01 626.01,587.04 608.90,588.50 594.97,588.09 581.52,585.99 569.66,582.83 554.35,576.87 444.62,522.09"
        fill="none"
        stroke="#e94560"
        stroke-width="8.0"
        stroke-linejoin="round"
        stroke-linecap="round"/>
  <!-- Start/finish line -->
  <line x1="435.68" y1="539.98" x2="453.56" y2="504.20"
        stroke="#f5f5f5" stroke-width="9.6"
        stroke-linecap="round"/>
</svg>
