<?xml version="1.0" encoding="utf-8"?>
<svg xmlns="http://www.w3.org/2000/svg"
     width="800.0" height="598.0"
     viewBox="0 0 800.0 598.0">
  <rect width="100%" height="100%" fill="#1a1a2e"/>
  <!-- Track outline -->
  <polyline points="211.80,245.06 396.15,126.60 470.66,70.87 491.74,58.51 514.53,49.42 538.34,42.17 550.85,40.47 563.52,40.00 589.37,42.39 608.90,46.69 628.35,53.47 647.35,62.56 665.63,74.20 683.22,87.63 699.67,103.07 714.27,120.68 726.90,139.95 737.21,160.63 745.82,182.51 757.00,228.56 760.00,252.74 757.91,326.76 753.78,351.88 738.88,401.98 728.95,426.58 716.96,450.51 702.29,472.89 684.70,492.93 665.13,510.93 644.43,526.28 622.89,538.43 600.41,548.37 577.85,555.15 567.08,557.07 555.82,557.96 540.08,557.45 524.65,555.36 514.83,552.84 505.54,549.09 492.61,541.72 480.63,532.97 473.46,526.11 467.43,518.48 461.25,508.24 455.42,495.83 446.69,469.23 437.06,442.66 428.95,429.65 419.62,418.95 408.63,409.14 396.00,401.13 378.71,394.52 362.48,390.72 356.45,390.21 350.73,390.64 339.85,392.47 329.11,395.37 317.59,400.70 229.55,456.09 141.77,510.08 135.59,512.51 130.81,513.74 118.72,516.09 106.58,516.60 94.98,515.06 83.91,511.70 73.75,506.79 69.04,503.76 64.61,500.31 60.51,496.43 56.76,492.21 50.35,482.87 47.89,478.09 45.76,472.64 42.81,462.15 40.68,450.42 40.00,438.78 40.57,427.01 42.73,414.64 45.69,403.39 50.20,391.92 62.75,369.74 78.41,348.85 106.66,319.85 156.94,280.33 211.80,245.06"
        fill="none"
        stroke="#e94560"
        stroke-width="8.0"
        stroke-linejoin="round"
        stroke-linecap="round"/>
  <!-- Start/finish line -->
  <line x1="200.99" y1="228.24" x2="222.61" y2="261.89"
        stroke="#f5f5f5" stroke-width="9.6"
        stroke-linecap="round"/>
</svg>
