<?xml version="1.0" encoding="utf-8"?>
<svg xmlns="http://www.w3.org/2000/svg"
     width="412.7" height="800.0"
     viewBox="0 0 412.7 800.0">
  <rect width="100%" height="100%" fill="#1a1a2e"/>
  <!-- Track outline -->
  <polyline points="370.16,399.96 369.86,416.95 369.81,420.14 369.80,423.59 368.27,571.15 366.05,616.09 362.81,641.10 357.97,660.36 351.37,676.10 343.44,688.85 332.20,701.71 320.22,711.60 306.29,719.87 286.26,728.24 254.09,737.78 183.95,754.32 156.92,758.89 137.57,760.00 121.19,758.40 105.60,754.20 92.66,748.18 79.30,739.00 67.07,727.60 56.59,714.11 49.41,700.58 43.64,683.76 40.54,665.33 40.00,645.34 42.47,616.35 53.26,550.29 86.82,354.74 132.37,79.76 137.21,62.66 139.64,57.23 142.39,52.55 145.06,49.12 148.05,46.21 151.36,43.83 154.88,41.97 158.18,40.83 161.63,40.19 165.69,40.00 169.93,40.40 174.85,41.62 179.75,43.57 184.68,46.40 189.36,49.92 193.92,54.23 198.08,59.14 202.01,64.97 205.40,71.21 210.33,84.05 213.31,98.46 214.22,116.40 215.65,128.27 217.77,137.31 221.17,145.27 226.97,153.42 236.08,161.25 247.61,167.09 258.63,169.79 267.64,170.08 275.38,168.32 281.14,163.97 285.63,157.76 288.14,151.98 289.86,145.79 292.11,140.20 294.71,135.58 297.75,131.51 300.93,128.28 304.46,125.56 308.33,123.28 312.44,121.54 316.73,120.38 321.13,119.81 325.64,119.83 330.14,120.44 334.68,121.68 339.09,123.49 343.43,125.95 347.56,128.93 351.49,132.47 355.14,136.55 358.90,141.79 362.24,147.61 365.15,154.17 367.53,161.15 370.90,177.04 372.75,201.54 372.50,267.13 370.16,399.96"
        fill="none"
        stroke="#e94560"
        stroke-width="8.0"
        stroke-linejoin="round"
        stroke-linecap="round"/>
  <!-- Start/finish line -->
  <line x1="390.15" y1="400.31" x2="350.16" y2="399.61"
        stroke="#f5f5f5" stroke-width="9.6"
        stroke-linecap="round"/>
</svg>
