<?xml version="1.0" encoding="utf-8"?>
<svg xmlns="http://www.w3.org/2000/svg"
     width="800.0" height="478.1"
     viewBox="0 0 800.0 478.1">
  <rect width="100%" height="100%" fill="#1a1a2e"/>
  <!-- Track outline -->
  <polyline points="498.79,437.31 564.86,436.11 591.06,431.59 617.56,424.83 645.88,414.53 671.85,399.82 695.30,382.32 711.81,365.81 725.04,349.65 731.10,341.45 736.40,332.10 747.95,304.11 757.25,275.32 759.28,265.48 760.00,255.63 759.92,231.77 756.61,205.12 746.77,176.28 733.43,149.83 721.30,131.83 707.16,116.12 686.60,97.67 662.36,81.76 627.28,68.19 588.85,58.74 505.27,48.20 422.99,43.28 177.87,40.00 150.68,44.33 129.64,51.04 113.05,58.74 98.07,68.84 83.62,82.31 70.73,98.22 59.86,115.97 51.13,135.51 44.73,156.89 40.95,179.31 40.00,202.13 42.02,225.15 47.66,249.62 57.20,273.98 75.50,304.95 98.68,333.94 126.70,359.25 157.66,380.43 190.83,397.98 226.90,411.90 272.62,424.23 326.30,432.58 454.10,438.10 498.79,437.31"
        fill="none"
        stroke="#e94560"
        stroke-width="8.0"
        stroke-linejoin="round"
        stroke-linecap="round"/>
  <!-- Start/finish line -->
  <line x1="498.43" y1="417.31" x2="499.15" y2="457.30"
        stroke="#f5f5f5" stroke-width="9.6"
        stroke-linecap="round"/>
</svg>
