<?xml version="1.0" encoding="utf-8"?>
<svg xmlns="http://www.w3.org/2000/svg"
     width="800.0" height="759.8"
     viewBox="0 0 800.0 759.8">
  <rect width="100%" height="100%" fill="#1a1a2e"/>
  <!-- Track outline -->
  <polyline points="516.68,668.34 523.66,666.92 536.64,664.30 595.52,642.10 632.34,624.89 663.76,607.45 673.64,599.80 681.49,592.15 697.45,573.87 711.84,552.70 723.56,529.04 743.53,461.08 758.90,393.69 760.00,381.64 759.55,372.74 758.57,367.67 756.84,362.73 752.42,352.90 746.57,342.99 740.39,335.51 733.59,329.42 729.62,326.62 725.53,324.39 720.97,322.79 714.49,321.73 707.36,321.59 700.38,322.39 693.45,324.26 686.68,327.15 680.56,330.98 675.07,335.91 670.24,341.74 666.72,347.79 665.11,353.17 664.42,358.69 664.27,363.36 664.42,366.29 665.08,369.14 667.31,374.79 670.66,381.46 678.53,394.36 685.73,407.26 687.46,412.91 688.26,418.64 688.68,429.94 688.17,441.24 685.99,452.80 682.20,464.23 676.83,474.95 673.73,479.89 669.73,484.78 659.79,493.41 649.71,500.44 646.49,501.95 643.41,502.93 638.76,504.26 633.15,505.15 620.29,505.06 607.99,503.77 604.29,502.89 601.07,501.60 596.38,499.37 591.31,496.21 582.30,488.74 573.88,480.42 569.85,475.49 566.57,470.55 560.66,459.16 556.87,448.09 553.98,437.10 552.73,426.96 552.28,405.83 553.59,380.97 557.53,359.62 564.18,338.40 573.20,323.42 582.48,311.58 590.47,303.13 610.71,287.57 648.10,266.08 667.02,251.63 683.04,235.66 691.84,221.03 697.36,207.77 698.92,202.75 699.66,197.76 700.20,188.16 699.21,177.26 694.41,161.91 688.20,148.35 685.40,143.81 681.97,140.08 674.27,134.25 664.69,128.42 635.77,113.83 627.27,107.56 612.65,93.06 585.07,60.55 575.17,52.05 565.97,45.96 560.96,43.69 555.65,42.27 545.06,40.49 532.79,40.00 516.32,41.73 499.46,45.96 483.38,53.12 468.48,62.64 455.50,73.76 444.31,86.75 434.91,102.00 427.90,118.77 423.72,138.43 422.05,157.42 423.28,179.44 429.60,225.30 430.02,229.57 430.47,234.06 430.92,238.51 431.21,242.60 431.30,246.02 430.47,249.71 430.02,249.71 429.42,249.31 428.77,248.74 428.08,248.07 427.45,247.45 426.89,247.09 426.50,247.05 426.38,249.63 427.69,255.10 429.42,262.08 430.50,269.42 423.72,353.22 413.28,383.28 402.06,401.25 363.77,437.37 326.98,458.18 305.79,465.97 284.96,471.66 174.19,490.08 113.20,501.24 66.02,512.67 60.77,514.98 57.10,517.30 53.67,520.32 48.92,525.61 44.57,531.97 41.49,538.42 40.27,543.72 40.00,549.05 40.48,554.44 41.79,560.31 43.97,566.18 47.04,571.96 55.07,582.15 65.39,591.53 78.61,600.38 93.42,607.36 110.75,611.86 126.54,614.13 138.00,614.26 180.10,609.54 201.86,603.58 242.35,586.24 297.53,546.92 348.61,511.16 356.61,507.78 363.15,506.00 369.23,505.24 373.89,505.20 378.25,505.78 382.81,507.07 389.94,510.27 397.43,514.76 403.31,519.43 405.88,522.32 407.73,525.26 409.19,528.90 410.92,536.69 411.79,545.98 411.79,554.52 410.50,562.80 408.24,570.09 405.97,575.43 402.92,580.68 396.18,589.80 388.84,598.25 380.93,605.32 364.01,617.64 342.77,628.49 256.26,657.40 239.43,660.87 225.82,664.16 219.67,666.92 214.27,670.08 209.88,673.73 207.65,676.17 205.77,678.80 204.36,681.64 203.56,684.67 203.62,688.98 204.60,693.83 206.18,698.59 207.91,702.50 209.56,705.26 211.47,707.49 214.06,709.62 220.66,713.31 229.19,716.65 238.26,718.96 252.74,719.81 271.80,717.98 516.68,668.34"
        fill="none"
        stroke="#e94560"
        stroke-width="8.0"
        stroke-linejoin="round"
        stroke-linecap="round"/>
  <!-- Start/finish line -->
  <line x1="512.70" y1="648.74" x2="520.65" y2="687.95"
        stroke="#f5f5f5" stroke-width="9.6"
        stroke-linecap="round"/>
</svg>
