<?xml version="1.0" encoding="utf-8"?>
<svg xmlns="http://www.w3.org/2000/svg"
     width="426.9" height="800.0"
     viewBox="0 0 426.9 800.0">
  <rect width="100%" height="100%" fill="#1a1a2e"/>
  <!-- Track outline -->
  <polyline points="51.94,530.47 41.53,436.87 40.00,405.22 41.98,390.74 43.69,384.19 45.99,377.81 49.08,371.14 53.07,364.97 56.49,361.23 60.38,357.84 64.57,355.35 67.77,354.18 71.18,353.42 74.60,353.16 77.82,353.54 80.88,354.65 83.86,356.40 86.61,358.63 89.01,361.05 91.38,364.94 93.16,369.36 95.24,373.69 99.44,379.98 104.39,385.68 108.16,388.90 112.27,391.71 116.57,393.78 120.85,394.98 125.32,395.48 129.82,395.42 134.75,394.69 139.72,393.29 144.29,391.27 148.26,388.64 151.84,385.42 154.85,381.76 158.03,375.09 160.27,367.84 161.82,360.56 163.47,353.42 165.02,348.91 166.90,344.56 169.46,340.90 171.52,339.06 173.90,337.39 176.51,336.01 179.18,335.02 181.80,334.52 184.91,334.61 188.04,335.37 191.28,336.75 194.80,338.65 204.86,347.13 216.11,358.68 226.14,367.63 230.82,370.47 235.06,372.40 239.41,373.69 243.85,374.39 248.38,374.48 252.88,374.04 257.64,372.96 262.38,371.26 266.76,369.07 270.71,366.44 274.32,363.31 277.34,359.74 279.65,355.61 281.34,351.05 282.58,346.43 283.54,339.93 283.69,332.77 282.94,318.49 280.98,304.13 278.72,296.23 275.94,289.24 269.69,277.28 266.36,271.99 261.25,265.67 152.15,169.78 140.52,159.40 129.93,148.23 120.57,136.32 113.60,123.63 108.45,110.32 106.63,103.80 105.56,97.10 105.52,89.32 106.69,81.45 109.36,73.73 113.08,66.56 116.99,61.00 121.52,56.12 126.65,51.76 132.30,48.01 138.45,44.97 144.96,42.63 151.92,41.05 159.07,40.20 166.29,40.00 173.50,40.56 180.56,42.08 187.41,44.39 193.89,47.46 199.97,51.26 205.55,55.85 210.54,61.12 214.76,67.00 218.24,73.37 220.77,79.93 222.75,87.39 224.97,102.33 227.34,117.16 229.61,124.33 232.45,130.56 236.08,136.47 240.35,142.00 250.78,152.09 303.31,191.49 322.40,209.97 332.78,223.87 340.95,238.93 347.48,254.93 360.79,321.30 383.36,528.42 386.92,600.76 386.47,614.63 382.28,640.98 377.91,657.45 372.73,672.78 366.85,686.82 360.13,699.39 352.31,710.33 346.74,716.12 340.40,721.10 333.52,724.49 326.21,726.68 321.31,727.44 316.32,727.68 311.44,727.30 304.56,725.19 297.85,722.59 291.50,720.57 285.02,719.28 279.94,719.14 274.72,719.58 269.82,720.69 264.10,723.38 258.46,727.39 248.16,737.21 237.90,747.28 232.14,751.72 226.52,755.17 222.41,757.28 218.13,759.06 213.71,760.00 209.99,760.00 206.12,759.47 202.31,758.48 198.86,757.07 195.82,755.29 192.96,753.07 190.45,750.49 188.48,747.66 187.03,744.29 186.08,740.49 185.66,736.57 185.79,732.80 186.97,728.23 189.12,723.82 191.83,719.05 209.21,694.22 229.94,655.31 237.20,633.90 241.94,614.57 243.16,606.49 243.39,599.44 243.19,594.91 242.61,590.49 241.39,586.31 239.90,583.09 238.01,579.88 235.73,577.01 233.13,574.90 230.72,573.82 227.99,573.12 225.08,572.80 222.19,572.83 219.46,573.21 215.18,575.08 211.07,577.97 206.81,580.52 202.31,582.36 197.71,583.88 193.10,584.61 189.72,584.61 186.24,584.23 182.97,583.39 180.11,581.98 178.09,580.31 176.23,578.21 174.63,575.81 173.41,573.29 172.70,570.78 172.94,566.36 174.43,561.71 176.12,557.09 181.73,543.17 185.08,529.18 186.41,521.46 187.03,513.65 186.55,505.78 184.99,498.12 182.27,491.01 178.47,484.52 175.34,480.60 171.75,477.00 167.77,474.08 163.40,471.97 158.65,470.51 153.83,469.72 148.91,469.54 143.93,470.07 139.14,471.24 134.48,473.23 130.02,475.92 126.00,479.14 122.43,482.88 119.30,487.12 116.64,491.66 113.51,499.20 111.44,507.01 110.44,513.24 110.24,520.64 112.97,551.33 117.74,582.22 122.43,596.99 128.95,610.09 136.88,621.38 156.65,642.56 161.36,648.47 164.71,654.41 165.88,658.03 166.68,661.95 166.99,665.87 166.71,669.59 165.82,673.01 164.38,676.34 162.49,679.47 160.27,682.22 156.54,685.29 152.13,687.75 147.58,689.59 143.27,690.79 138.85,691.47 134.37,691.61 127.25,690.79 120.17,688.95 113.09,686.14 106.31,682.46 99.68,677.63 93.66,672.19 84.86,661.92 76.84,650.60 70.14,637.85 64.90,623.93 61.20,609.07 56.36,570.16 51.94,530.47"
        fill="none"
        stroke="#e94560"
        stroke-width="8.0"
        stroke-linejoin="round"
        stroke-linecap="round"/>
  <!-- Start/finish line -->
  <line x1="32.06" y1="532.68" x2="71.82" y2="528.26"
        stroke="#f5f5f5" stroke-width="9.6"
        stroke-linecap="round"/>
</svg>
