<?xml version="1.0" encoding="utf-8"?>
<svg xmlns="http://www.w3.org/2000/svg"
     width="643.1" height="800.0"
     viewBox="0 0 643.1 800.0">
  <rect width="100%" height="100%" fill="#1a1a2e"/>
  <!-- Track outline -->
  <polyline points="177.09,472.32 200.09,467.96 330.33,454.67 444.29,434.89 453.30,431.81 459.69,428.83 466.45,424.84 473.52,419.29 480.83,412.19 486.61,404.79 491.47,396.43 494.88,387.71 497.13,378.32 498.02,368.52 497.64,358.55 495.73,348.38 492.58,338.58 488.08,328.81 482.36,319.66 474.02,309.59 463.94,300.03 428.35,275.61 408.11,260.37 389.86,241.56 371.42,215.58 354.13,183.87 343.19,156.03 338.46,137.20 337.27,127.74 337.05,118.70 337.61,108.96 339.34,99.75 342.02,90.98 345.85,82.53 350.51,74.81 356.22,67.48 362.58,61.06 369.86,55.22 377.64,50.36 386.17,46.33 395.03,43.31 404.44,41.21 414.03,40.11 423.91,40.00 433.84,40.90 443.80,42.84 453.68,45.77 463.38,49.64 472.87,54.49 481.97,60.22 490.73,66.89 506.67,82.64 520.49,101.14 534.57,127.41 545.17,156.41 559.22,213.17 599.72,404.79 603.08,433.09 602.89,442.30 601.89,450.87 600.13,459.26 597.43,467.65 585.20,491.23 574.19,516.88 571.03,533.11 569.23,550.72 568.29,592.77 564.21,614.44 560.62,625.27 556.16,635.61 544.23,655.56 532.92,669.32 524.42,677.81 505.39,692.92 484.41,704.95 457.63,715.62 405.52,729.45 377.83,734.24 368.37,734.47 359.75,733.65 352.95,732.06 346.63,729.55 340.93,726.27 335.71,722.09 331.38,717.34 327.71,711.79 325.01,705.90 323.14,699.51 322.30,693.04 322.38,686.45 323.54,679.81 325.59,673.47 328.73,667.10 332.66,661.34 337.69,655.84 343.30,651.12 349.78,646.86 356.66,643.38 372.03,638.33 380.37,636.83 407.27,635.48 450.22,634.22 461.40,632.22 471.12,629.17 478.91,625.49 485.82,620.88 490.70,616.37 494.84,611.15 498.11,605.57 500.62,599.17 502.34,590.71 502.87,581.93 502.09,574.68 500.24,567.68 496.58,559.24 491.63,551.07 483.89,541.38 475.08,532.71 466.10,525.81 456.60,520.22 445.83,515.50 434.63,512.11 422.90,509.98 411.01,509.33 399.10,510.24 387.30,512.67 375.23,517.01 364.73,521.93 360.72,524.08 356.71,526.89 329.38,552.92 318.33,562.08 312.29,565.50 306.03,568.03 299.52,569.62 292.92,570.26 286.27,569.91 279.72,568.60 273.50,566.39 267.54,563.23 262.41,559.29 257.16,554.49 248.74,545.97 240.16,538.07 234.31,534.69 228.60,532.60 222.62,531.25 216.64,530.81 210.95,531.22 205.44,532.48 200.54,534.42 195.97,537.14 192.16,540.37 188.68,544.49 185.09,550.36 182.16,557.23 180.28,564.83 179.44,572.96 179.78,581.19 181.39,590.55 198.03,642.22 203.29,672.54 203.88,683.66 203.42,693.99 201.95,702.64 199.62,710.67 196.37,718.49 192.22,725.83 185.87,734.30 178.83,741.83 172.47,747.38 165.88,751.86 158.68,755.44 151.20,757.98 143.34,759.51 135.35,760.00 127.26,759.48 119.20,757.94 111.29,755.35 103.58,751.76 96.28,747.25 89.30,741.84 82.94,735.84 76.82,728.86 70.19,719.82 63.88,709.39 51.96,682.39 43.60,652.35 41.81,641.74 40.00,614.08 42.04,591.14 44.64,579.55 48.21,568.36 52.98,557.20 58.65,546.76 65.38,536.74 72.85,527.62 90.42,511.21 110.78,497.43 124.76,489.36 136.38,484.02 168.03,474.04 177.09,472.32"
        fill="none"
        stroke="#e94560"
        stroke-width="8.0"
        stroke-linejoin="round"
        stroke-linecap="round"/>
  <!-- Start/finish line -->
  <line x1="173.36" y1="452.67" x2="180.81" y2="491.97"
        stroke="#f5f5f5" stroke-width="9.6"
        stroke-linecap="round"/>
</svg>
