<?xml version="1.0" encoding="utf-8"?>
<svg xmlns="http://www.w3.org/2000/svg"
     width="503.8" height="800.0"
     viewBox="0 0 503.8 800.0">
  <rect width="100%" height="100%" fill="#1a1a2e"/>
  <!-- Track outline -->
  <polyline points="49.96,439.10 40.00,334.46 40.52,210.26 43.36,176.83 49.55,146.24 53.76,132.07 60.51,119.38 76.41,103.08 90.80,94.60 101.24,90.69 108.65,89.50 115.92,88.97 122.67,89.26 129.53,90.92 136.46,93.83 143.36,97.74 156.57,110.43 169.77,127.15 182.39,141.02 190.51,147.42 198.33,152.46 206.63,156.02 215.77,158.09 225.37,158.75 234.66,157.92 243.59,155.60 252.26,151.93 260.11,146.89 267.42,139.89 273.76,131.42 278.97,122.52 283.39,109.66 286.93,96.26 291.69,81.50 298.04,67.51 303.83,59.50 310.69,52.27 318.40,46.64 324.74,43.68 331.68,41.54 338.84,40.30 345.88,40.00 355.40,41.19 364.92,44.03 373.92,48.06 382.59,53.52 390.70,60.22 398.00,67.63 407.01,79.54 414.38,92.53 420.06,104.68 425.01,119.68 446.33,238.90 463.78,394.75 463.48,409.75 461.82,422.08 458.61,437.20 454.04,452.20 441.83,479.17 426.56,503.78 418.33,515.34 409.22,525.95 398.89,535.14 387.38,542.78 378.68,547.05 369.45,550.55 360.01,552.45 352.67,552.74 345.07,552.15 337.65,550.73 330.87,548.36 324.82,545.10 319.10,540.89 314.05,536.03 310.10,530.57 307.33,524.35 305.60,517.35 304.71,510.00 304.42,502.89 306.00,489.67 309.69,475.32 328.36,417.34 331.05,401.81 331.72,387.52 330.50,372.70 327.07,358.47 323.27,349.64 318.36,341.22 312.64,333.63 306.30,326.99 299.14,321.12 291.21,316.38 281.58,312.53 271.11,309.98 260.63,309.09 250.27,310.04 239.90,312.65 230.35,316.44 222.41,321.06 215.15,326.76 208.58,333.16 199.62,344.42 192.31,357.11 186.93,371.22 183.05,386.16 178.44,418.41 182.02,539.35 187.33,567.39 197.51,596.79 204.12,609.89 211.86,622.11 230.46,643.21 274.65,683.17 281.62,690.70 287.34,697.87 290.92,705.64 291.84,711.33 291.88,717.49 291.10,723.78 289.59,729.82 287.38,735.22 283.54,740.97 278.49,746.19 272.62,750.69 266.46,754.31 257.20,757.69 247.02,759.47 236.84,760.00 221.82,758.28 207.14,754.25 193.57,748.68 180.51,741.50 154.13,722.18 132.96,700.83 114.55,675.40 98.69,646.95 75.86,588.67 55.79,500.28 49.96,439.10"
        fill="none"
        stroke="#e94560"
        stroke-width="8.0"
        stroke-linejoin="round"
        stroke-linecap="round"/>
  <!-- Start/finish line -->
  <line x1="30.05" y1="440.99" x2="69.87" y2="437.20"
        stroke="#f5f5f5" stroke-width="9.6"
        stroke-linecap="round"/>
</svg>
