<?xml version="1.0" encoding="utf-8"?>
<svg xmlns="http://www.w3.org/2000/svg"
     width="426.1" height="800.0"
     viewBox="0 0 426.1 800.0">
  <rect width="100%" height="100%" fill="#1a1a2e"/>
  <!-- Track outline -->
  <polyline points="67.27,545.91 69.81,570.32 80.97,626.93 87.74,650.29 95.94,670.35 104.79,686.40 115.21,700.67 130.51,716.80 147.15,730.80 162.40,740.91 177.37,748.65 189.74,753.58 201.96,756.98 214.52,759.21 227.64,760.00 244.49,759.07 261.81,756.09 278.14,751.19 294.40,743.84 312.74,732.40 330.36,718.04 345.26,702.32 358.38,684.30 368.85,664.87 377.16,643.62 382.75,622.53 386.11,598.84 384.16,514.92 362.01,284.99 348.75,175.91 343.41,153.92 337.26,136.06 331.11,122.37 323.75,109.91 312.15,94.63 298.82,80.59 283.61,68.01 267.98,57.76 254.79,51.11 241.57,46.28 227.45,42.65 213.10,40.56 198.79,40.00 183.99,41.19 164.93,45.21 146.21,51.28 132.83,57.11 120.00,64.64 104.45,76.31 89.39,90.40 76.51,105.49 65.16,122.46 56.19,140.22 49.00,160.03 43.23,183.40 40.00,210.97 48.46,331.53 65.13,525.31 67.27,545.91"
        fill="none"
        stroke="#e94560"
        stroke-width="8.0"
        stroke-linejoin="round"
        stroke-linecap="round"/>
  <!-- Start/finish line -->
  <line x1="87.16" y1="543.83" x2="47.38" y2="547.98"
        stroke="#f5f5f5" stroke-width="9.6"
        stroke-linecap="round"/>
</svg>
