<?xml version="1.0" encoding="utf-8"?>
<svg xmlns="http://www.w3.org/2000/svg"
     width="800.0" height="764.8"
     viewBox="0 0 800.0 764.8">
  <rect width="100%" height="100%" fill="#1a1a2e"/>
  <!-- Track outline -->
  <polyline points="404.53,700.33 601.27,664.70 627.72,655.76 646.24,647.07 667.00,635.00 685.70,620.90 696.44,610.52 706.67,598.76 715.42,586.45 723.10,573.21 729.89,553.12 734.15,534.21 735.36,515.35 736.57,490.97 737.00,459.48 738.21,435.05 749.58,287.13 760.00,155.36 758.51,141.15 755.77,129.75 751.82,117.08 746.70,105.12 740.13,93.87 732.31,83.85 722.49,74.96 711.58,67.65 700.31,61.83 686.38,56.97 639.56,47.00 580.97,40.00 424.26,43.27 375.81,52.16 352.74,59.99 332.79,69.54 311.78,82.07 272.46,115.19 249.00,131.39 236.52,138.03 223.69,143.15 210.57,146.26 197.45,147.34 184.94,145.85 172.74,142.58 162.04,137.98 150.42,132.72 126.53,124.34 102.28,118.25 93.43,117.49 85.47,117.74 77.72,119.28 70.00,121.93 62.50,125.82 55.89,130.98 50.77,137.01 46.43,144.07 43.13,151.89 41.10,160.47 40.11,169.78 40.00,178.92 41.39,191.40 44.41,203.56 49.24,216.49 55.50,228.76 63.21,240.57 72.10,251.10 82.77,260.60 94.11,268.37 104.59,273.74 115.37,277.78 139.26,283.30 191.09,287.44 218.89,285.70 259.42,277.93 302.33,266.38 327.60,256.26 348.58,245.52 368.52,231.52 423.77,181.07 446.20,166.04 468.91,153.88 490.24,145.19 504.18,141.25 518.29,138.55 529.88,137.57 541.40,138.19 555.09,141.15 568.56,146.47 580.61,154.08 591.28,163.54 598.50,172.33 604.40,182.45 609.44,195.54 612.82,209.49 614.03,221.25 613.85,232.90 612.32,245.12 609.55,257.13 605.50,268.93 600.20,279.87 593.41,289.89 585.48,298.58 577.02,305.79 566.04,312.28 520.18,328.38 473.18,343.00 449.50,353.17 437.91,360.12 427.50,368.91 422.09,375.50 417.44,382.97 414.45,390.94 413.63,397.02 413.63,403.51 414.45,410.01 416.02,415.88 420.10,423.55 425.86,430.40 432.12,436.18 438.59,440.78 445.59,444.30 452.85,446.91 464.58,449.06 477.80,449.62 504.22,448.19 530.56,447.42 543.64,449.36 555.23,453.09 566.64,458.97 577.13,466.89 583.10,473.03 588.51,479.98 592.84,487.65 595.90,495.36 598.03,503.59 598.71,511.92 597.93,518.62 596.15,525.52 593.62,532.11 590.64,537.94 585.73,544.28 579.87,549.49 573.50,554.04 563.51,559.77 549.93,564.72 361.87,600.91 337.59,603.06 314.09,601.78 302.79,599.58 291.52,595.95 278.83,589.92 266.95,581.64 260.63,575.41 254.97,568.25 250.53,560.43 247.76,552.92 246.01,544.84 245.30,535.74 249.11,509.83 254.05,483.61 254.87,469.86 254.05,457.49 252.16,449.11 249.39,440.98 245.80,433.72 241.14,427.13 235.60,421.40 229.55,416.75 222.98,413.38 215.80,411.28 206.98,409.44 124.75,402.24 100.93,398.15 93.22,397.89 85.54,398.25 78.00,399.89 70.04,403.00 62.22,407.40 55.54,413.23 50.67,420.02 46.68,427.95 44.02,436.23 42.95,443.79 42.99,451.66 43.77,459.43 46.36,470.98 51.02,483.76 85.97,552.10 95.85,576.99 103.56,602.80 112.81,651.87 116.36,664.19 120.59,674.87 126.35,685.61 133.18,695.21 141.35,703.60 150.42,710.45 160.66,715.86 171.54,719.85 183.34,722.56 195.46,724.14 220.92,724.76 404.53,700.33"
        fill="none"
        stroke="#e94560"
        stroke-width="8.0"
        stroke-linejoin="round"
        stroke-linecap="round"/>
  <!-- Start/finish line -->
  <line x1="401.41" y1="680.57" x2="407.65" y2="720.08"
        stroke="#f5f5f5" stroke-width="9.6"
        stroke-linecap="round"/>
</svg>
