<?xml version="1.0" encoding="utf-8"?>
<svg xmlns="http://www.w3.org/2000/svg"
     width="800.0" height="733.2"
     viewBox="0 0 800.0 733.2">
  <rect width="100%" height="100%" fill="#1a1a2e"/>
  <!-- Track outline -->
  <polyline points="249.45,238.71 350.18,179.06 577.35,51.38 594.11,44.43 608.01,41.16 619.53,40.00 631.32,40.14 642.17,42.66 648.23,45.66 654.20,49.61 659.69,54.32 664.33,59.63 667.77,65.22 670.01,71.43 671.21,78.45 671.49,85.81 670.82,92.97 669.20,99.65 665.38,107.62 659.69,115.33 652.96,122.35 645.80,128.35 630.80,136.46 612.89,142.66 544.58,161.00 532.98,164.95 522.85,169.11 514.40,175.11 509.86,180.43 505.80,186.77 502.45,193.72 500.16,200.81 499.16,207.56 499.54,214.03 501.07,220.78 503.60,227.39 506.90,233.46 510.81,238.64 515.64,243.07 521.42,246.96 527.82,250.09 534.50,252.27 541.05,253.30 549.79,252.34 558.91,249.28 567.94,244.98 576.54,240.41 591.34,230.60 606.44,218.53 659.79,173.06 674.50,164.20 689.12,158.48 700.92,155.89 713.29,154.79 724.99,156.09 731.77,158.34 738.60,161.54 745.05,165.57 750.64,170.27 754.84,175.59 757.66,181.93 759.33,189.29 760.00,197.13 759.71,204.83 758.57,211.85 754.65,221.60 748.54,230.60 741.32,238.91 728.24,250.50 711.95,261.20 647.32,291.88 578.45,317.37 560.73,320.10 544.39,320.99 511.29,321.12 478.19,318.06 409.17,307.35 391.16,306.40 372.25,307.49 322.57,315.88 267.12,330.33 214.05,349.96 169.97,372.25 158.55,380.50 149.67,388.75 142.79,398.02 138.87,405.58 135.82,413.83 134.10,422.22 133.95,430.26 135.19,436.80 137.53,443.55 140.78,450.03 144.84,455.76 149.43,460.19 154.97,463.32 161.56,465.57 168.68,466.87 175.84,467.28 182.48,466.80 192.08,463.73 201.30,458.28 211.38,451.53 268.17,408.17 284.89,398.02 301.32,390.45 320.57,384.52 340.53,381.18 360.40,380.70 379.99,383.02 398.81,388.13 416.43,395.97 431.86,406.33 445.19,419.08 452.59,428.69 458.89,439.19 463.77,450.23 467.16,461.96 469.12,474.16 469.64,486.57 467.30,506.34 462.28,525.42 456.41,540.56 448.91,554.60 439.55,568.44 428.71,581.39 402.44,605.11 346.27,646.35 311.44,668.03 279.06,685.28 268.55,689.09 257.95,692.02 247.15,693.18 238.27,692.64 229.05,691.00 220.26,688.28 212.67,684.32 207.80,680.44 203.31,675.73 199.44,670.48 196.33,664.83 194.28,658.96 193.23,652.01 193.32,644.24 194.37,636.33 196.33,628.70 199.87,621.33 204.69,614.31 211.43,608.31 221.36,603.20 230.58,599.11 245.63,594.20 265.83,588.82 297.12,581.32 327.83,570.62 337.57,564.69 345.41,557.73 352.33,549.96 357.63,543.49 362.70,536.40 366.76,529.04 369.14,521.47 369.77,514.99 369.43,508.04 368.24,501.09 366.09,494.75 362.93,489.57 358.45,485.48 352.67,482.20 346.07,479.68 339.24,478.05 332.65,477.23 322.00,478.05 311.06,481.39 298.69,486.43 254.94,511.72 211.86,538.17 181.05,551.67 165.57,556.17 149.52,558.76 130.42,559.17 111.36,556.44 99.47,552.14 88.10,546.21 77.92,539.26 66.27,528.35 56.81,515.67 49.22,500.95 43.87,484.93 40.72,467.55 40.00,449.62 41.96,431.21 46.50,413.08 54.09,394.75 63.69,377.77 83.47,353.03 107.59,328.55 135.91,305.85 249.45,238.71"
        fill="none"
        stroke="#e94560"
        stroke-width="8.0"
        stroke-linejoin="round"
        stroke-linecap="round"/>
  <!-- Start/finish line -->
  <line x1="239.26" y1="221.50" x2="259.63" y2="255.92"
        stroke="#f5f5f5" stroke-width="9.6"
        stroke-linecap="round"/>
</svg>
