<?xml version="1.0" encoding="utf-8"?>
<svg xmlns="http://www.w3.org/2000/svg"
     width="800.0" height="664.6"
     viewBox="0 0 800.0 664.6">
  <rect width="100%" height="100%" fill="#1a1a2e"/>
  <!-- Track outline -->
  <polyline points="334.48,576.36 326.27,583.52 298.57,600.37 268.01,612.33 235.56,620.65 202.10,624.57 169.83,624.28 140.63,620.94 114.29,615.86 91.34,608.16 81.46,603.32 72.17,597.22 62.25,588.36 53.62,577.86 47.06,566.00 42.51,553.12 40.28,538.55 40.00,523.98 40.94,512.07 43.07,500.50 51.00,476.45 211.77,155.16 221.66,137.93 231.58,122.20 243.17,105.98 255.08,91.07 258.75,87.97 282.89,70.16 306.64,58.35 331.96,50.46 358.72,44.65 409.95,40.00 460.15,42.23 602.62,66.87 673.80,84.73 694.79,93.73 704.19,99.15 713.23,105.64 723.68,114.84 733.25,125.49 741.21,137.83 747.50,150.76 754.20,172.98 758.32,197.66 760.00,224.24 758.53,252.12 753.78,280.93 746.17,310.36 735.59,339.98 613.48,591.08 607.99,599.98 603.56,606.08 598.35,610.92 591.75,614.94 584.42,617.85 576.94,619.44 571.25,619.83 565.42,619.49 559.65,618.43 554.24,616.63 548.97,613.88 543.94,610.24 539.33,605.99 535.38,601.29 531.05,593.88 527.84,585.51 525.91,577.13 525.46,569.49 526.12,561.84 527.59,554.29 530.77,543.93 536.85,531.05 601.78,427.80 666.50,324.44 672.23,311.42 675.37,301.02 677.92,290.12 679.21,278.89 679.07,265.15 677.12,251.40 673.20,238.91 667.48,227.44 660.04,217.61 651.06,209.19 640.83,202.31 629.51,197.23 617.08,194.23 604.05,193.16 590.74,193.99 576.56,196.74 531.75,212.53 506.22,218.29 478.83,219.69 450.58,216.45 392.63,206.67 364.23,205.12 336.82,207.78 323.68,211.12 310.93,215.62 298.71,221.09 287.01,227.68 275.62,235.47 264.90,244.28 255.47,253.33 245.41,265.34 179.22,372.37 154.35,426.00 150.27,438.93 147.82,450.79 146.46,462.50 146.32,474.03 147.33,484.82 149.78,495.52 154.84,508.30 161.97,520.40 167.80,527.37 174.47,533.71 181.74,539.13 189.56,543.54 197.94,546.98 206.54,549.40 215.27,550.65 224.21,550.85 233.01,549.98 241.85,547.99 250.54,544.94 258.79,540.88 270.80,532.31 281.25,522.14 288.55,512.65 294.52,502.49 299.69,491.31 303.74,479.54 308.56,453.69 311.46,401.32 312.82,389.55 315.13,379.05 319.70,366.66 326.09,355.14 331.09,348.99 336.78,343.61 343.07,339.16 349.98,335.82 357.42,333.40 365.04,332.09 372.93,331.85 380.93,332.63 388.58,334.61 395.81,337.90 402.65,342.31 408.84,347.58 414.43,353.83 419.32,360.94 423.26,368.59 427.45,381.81 429.55,395.36 429.55,406.59 428.22,417.63 422.56,440.82 413.62,464.73 402.06,489.42 387.98,514.49 370.94,539.13 350.33,562.47 334.48,576.36"
        fill="none"
        stroke="#e94560"
        stroke-width="8.0"
        stroke-linejoin="round"
        stroke-linecap="round"/>
  <!-- Start/finish line -->
  <line x1="347.65" y1="591.41" x2="321.31" y2="561.31"
        stroke="#f5f5f5" stroke-width="9.6"
        stroke-linecap="round"/>
</svg>
