<?xml version="1.0" encoding="utf-8"?>
<svg xmlns="http://www.w3.org/2000/svg"
     width="800.0" height="753.4"
     viewBox="0 0 800.0 753.4">
  <rect width="100%" height="100%" fill="#1a1a2e"/>
  <!-- Track outline -->
  <polyline points="356.33,181.65 249.31,241.13 186.88,270.26 128.88,307.44 101.89,330.65 79.33,353.99 68.95,367.77 61.02,381.29 54.26,395.40 49.05,409.96 45.75,423.48 43.62,440.25 40.00,518.52 40.75,596.92 42.93,613.95 46.49,627.73 52.03,642.49 59.21,656.40 67.94,669.01 78.10,680.45 89.60,690.66 102.21,699.24 115.41,705.16 129.78,710.23 165.17,713.41 193.54,710.16 211.52,706.33 234.41,698.13 262.77,683.96 396.04,602.64 450.90,576.96 538.50,544.72 553.56,536.01 565.11,526.13 572.30,517.48 578.36,507.73 582.51,497.59 584.06,490.18 584.64,482.44 584.27,474.77 582.83,467.42 579.00,457.93 573.31,448.83 566.55,440.51 555.11,429.85 540.10,420.16 499.65,401.51 453.67,386.03 418.23,379.60 386.35,377.52 368.68,378.30 352.56,380.96 335.68,385.38 319.13,391.43 302.69,399.43 287.31,408.59 275.17,417.11 264.16,426.79 252.61,440.12 242.82,454.94 235.95,469.70 231.27,485.17 229.09,501.36 228.71,517.80 230.84,534.06 231.91,549.85 229.89,559.47 226.37,568.71 221.85,577.48 217.70,584.24 212.86,590.94 207.37,596.79 201.25,601.01 195.61,603.03 189.28,604.13 182.68,604.33 176.19,603.74 170.23,602.38 163.31,599.39 156.66,595.03 150.70,589.70 145.64,583.72 140.48,573.97 137.02,562.72 134.62,551.48 132.97,535.88 133.13,520.08 137.18,486.80 145.00,458.13 156.60,429.07 172.52,401.25 193.43,375.89 240.85,329.48 265.91,309.13 293.43,293.14 349.10,262.46 411.95,227.48 494.86,181.85 526.47,165.14 558.35,150.58 573.63,146.16 589.17,144.01 600.40,144.21 611.79,145.70 622.43,148.95 629.93,152.59 637.22,157.27 643.77,162.80 649.04,168.97 653.03,176.00 656.01,183.86 657.77,192.12 658.09,199.98 657.23,206.09 655.42,212.33 652.87,218.38 649.62,223.91 645.79,228.59 639.99,233.14 632.97,236.58 625.36,239.18 617.64,240.94 600.77,240.74 583.58,239.38 567.83,240.16 552.77,243.28 545.15,246.46 537.60,250.56 530.73,255.50 525.25,261.22 521.21,267.72 518.17,275.13 516.31,282.87 515.88,290.41 516.68,296.58 518.44,302.95 521.05,309.20 524.40,314.92 528.28,319.86 534.40,324.86 541.80,328.83 549.78,331.95 557.66,334.42 572.56,336.95 587.89,337.47 604.07,336.76 620.41,334.55 637.38,330.84 653.62,325.45 667.03,318.49 679.37,309.98 690.71,300.03 701.94,287.68 722.32,260.57 740.79,231.51 749.41,214.35 755.37,198.16 758.62,183.47 760.00,168.84 759.73,153.83 757.76,138.94 753.99,124.05 748.45,109.75 741.32,96.30 732.65,83.81 722.53,72.63 711.04,62.82 698.21,54.56 684.38,48.06 669.74,43.25 654.68,40.46 639.46,40.00 624.29,41.63 609.44,45.20 595.02,50.40 567.40,64.31 356.33,181.65"
        fill="none"
        stroke="#e94560"
        stroke-width="8.0"
        stroke-linejoin="round"
        stroke-linecap="round"/>
  <!-- Start/finish line -->
  <line x1="366.05" y1="199.13" x2="346.62" y2="164.17"
        stroke="#f5f5f5" stroke-width="9.6"
        stroke-linecap="round"/>
</svg>
