<?xml version="1.0" encoding="utf-8"?>
<svg xmlns="http://www.w3.org/2000/svg"
     width="800.0" height="749.0"
     viewBox="0 0 800.0 749.0">
  <rect width="100%" height="100%" fill="#1a1a2e"/>
  <!-- Track outline -->
  <polyline points="552.69,513.13 718.65,349.28 734.68,329.91 747.12,309.73 751.77,299.53 755.46,289.17 757.99,279.18 759.49,269.19 760.00,259.81 759.27,250.39 756.38,239.34 751.80,228.54 745.84,218.50 738.67,209.28 730.65,200.80 721.76,193.69 715.65,190.28 709.21,187.64 702.66,185.93 696.29,185.16 689.81,185.24 683.59,186.17 677.70,188.00 671.99,190.64 666.79,193.97 662.11,198.03 657.90,202.79 654.39,207.98 651.61,213.83 649.52,220.17 648.31,226.67 647.73,234.47 650.18,243.32 654.24,254.29 655.96,265.54 655.05,274.80 653.22,283.93 650.18,293.68 646.15,303.35 634.74,323.21 611.86,354.36 584.46,384.82 570.66,397.41 552.11,410.21 543.10,414.67 533.66,417.84 522.94,419.55 512.00,419.47 501.35,417.15 491.25,413.17 483.27,408.58 474.96,402.21 432.19,359.97 420.15,345.39 406.42,326.01 401.15,316.35 397.02,306.39 394.38,296.57 393.10,286.57 393.36,276.38 395.15,266.31 398.55,256.60 403.39,247.46 409.24,239.50 417.18,231.42 467.61,194.74 552.95,136.18 569.52,121.43 576.44,113.76 582.37,105.67 586.80,97.55 589.73,88.90 590.64,82.16 590.68,75.13 589.69,68.43 587.68,62.42 584.67,56.77 580.94,51.82 576.40,47.72 571.13,44.39 565.50,41.91 559.46,40.49 553.06,40.00 546.62,40.16 536.59,41.62 526.67,44.43 518.00,47.64 508.01,53.00 412.02,128.95 294.26,219.97 281.09,233.94 274.10,242.95 268.13,252.66 264.29,262.12 262.06,271.75 261.54,277.84 261.76,283.93 262.90,289.99 265.42,296.81 269.08,303.59 273.40,309.56 279.99,315.86 288.37,321.50 330.09,342.01 347.25,352.74 363.68,366.34 378.24,383.16 390.06,402.65 399.32,423.81 405.14,446.35 407.19,470.11 405.51,494.73 400.20,519.62 391.42,543.63 380.22,565.48 367.78,584.97 353.98,602.03 338.54,616.57 330.27,622.66 321.60,627.94 312.67,632.21 303.41,635.50 294.11,637.69 284.71,638.83 275.27,638.87 265.90,637.85 256.79,635.74 247.93,632.66 239.37,628.55 231.17,623.52 215.58,610.52 153.30,547.08 140.64,532.05 134.49,522.02 129.55,511.22 126.69,500.45 125.52,489.61 126.14,479.17 128.49,469.18 130.83,463.25 133.90,457.65 137.82,452.57 143.42,447.57 150.00,443.27 156.85,440.02 163.18,438.11 169.73,437.09 176.35,436.93 187.00,438.56 197.69,441.93 208.45,446.84 219.35,453.34 249.76,477.02 260.15,483.64 270.29,488.84 280.46,492.66 290.67,495.05 296.97,495.78 303.23,495.90 309.23,494.97 313.73,493.43 318.19,491.23 322.29,488.51 325.77,485.34 328.55,481.57 330.78,477.22 332.46,472.55 333.60,467.76 334.15,460.53 333.56,452.89 332.03,445.75 329.76,439.69 326.65,434.05 322.84,428.81 316.11,421.78 306.59,415.00 268.86,396.93 225.79,380.68 201.53,373.94 180.63,370.24 169.07,369.51 158.49,370.08 147.84,371.66 137.49,374.14 118.17,381.09 82.78,400.22 74.25,406.63 67.04,413.29 60.16,420.81 54.16,429.01 49.19,437.95 45.27,447.41 42.38,457.12 40.59,467.03 40.00,477.06 40.55,487.09 42.20,497.20 44.90,507.20 48.71,517.15 53.43,526.81 65.80,545.78 170.42,660.80 191.79,678.35 214.96,692.52 239.59,702.60 252.18,705.89 264.91,708.04 290.34,708.97 315.27,705.56 339.60,698.33 363.68,687.53 386.81,673.31 548.12,517.63 552.69,513.13"
        fill="none"
        stroke="#e94560"
        stroke-width="8.0"
        stroke-linejoin="round"
        stroke-linecap="round"/>
  <!-- Start/finish line -->
  <line x1="538.64" y1="498.89" x2="566.74" y2="527.36"
        stroke="#f5f5f5" stroke-width="9.6"
        stroke-linecap="round"/>
</svg>
