<?xml version="1.0" encoding="utf-8"?>
<svg xmlns="http://www.w3.org/2000/svg"
     width="673.0" height="800.0"
     viewBox="0 0 673.0 800.0">
  <rect width="100%" height="100%" fill="#1a1a2e"/>
  <!-- Track outline -->
  <polyline points="53.06,404.52 60.38,442.80 84.09,524.32 116.23,600.38 148.83,648.46 169.48,676.82 208.57,708.24 256.08,742.45 283.41,753.26 313.79,759.62 360.28,760.00 403.17,755.17 418.26,751.73 432.62,745.76 470.69,723.62 510.33,692.72 541.91,656.98 568.86,615.01 596.93,553.32 618.05,488.97 628.70,442.03 633.05,396.12 630.55,347.41 621.10,299.08 603.97,250.62 579.98,204.58 548.58,161.34 511.16,122.80 468.74,90.37 422.34,64.93 374.18,48.39 324.90,40.00 276.18,41.02 234.23,47.12 219.59,50.68 205.88,55.90 172.63,71.92 140.12,91.00 125.86,101.69 113.36,114.02 92.79,137.68 73.34,166.68 55.28,208.65 43.15,252.27 40.00,281.78 40.93,312.94 47.22,374.24 53.06,404.52"
        fill="none"
        stroke="#e94560"
        stroke-width="8.0"
        stroke-linejoin="round"
        stroke-linecap="round"/>
  <!-- Start/finish line -->
  <line x1="72.70" y1="400.75" x2="33.42" y2="408.28"
        stroke="#f5f5f5" stroke-width="9.6"
        stroke-linecap="round"/>
</svg>
