<?xml version="1.0" encoding="utf-8"?>
<svg xmlns="http://www.w3.org/2000/svg"
     width="524.0" height="800.0"
     viewBox="0 0 524.0 800.0">
  <rect width="100%" height="100%" fill="#1a1a2e"/>
  <!-- Track outline -->
  <polyline points="270.79,645.90 278.96,617.65 289.69,556.17 288.89,512.78 286.54,498.58 267.09,442.35 263.98,428.21 262.39,414.22 262.55,400.17 264.26,386.18 267.92,372.19 273.31,357.99 280.21,343.85 288.83,330.01 299.51,316.84 324.38,292.81 338.31,281.52 443.06,211.97 456.46,199.37 467.30,186.63 476.91,173.25 480.42,166.96 482.73,160.47 483.65,155.28 484.04,149.67 483.79,144.21 481.59,135.68 478.20,127.82 474.41,121.20 470.05,115.32 464.93,109.25 458.57,103.15 441.72,89.83 420.42,75.96 382.92,57.69 349.40,44.25 341.87,41.97 335.47,40.82 327.06,40.00 318.52,40.24 310.32,41.94 302.50,44.82 296.16,48.31 290.24,52.74 284.75,57.90 279.71,63.85 275.57,69.92 272.06,76.57 269.53,82.91 267.78,89.89 267.01,98.38 267.26,107.06 268.43,114.16 270.67,121.87 290.69,171.15 294.31,188.08 295.95,204.08 295.87,211.75 295.14,219.28 293.52,226.84 291.25,234.06 288.36,241.40 284.94,248.20 280.62,254.69 275.82,260.52 270.48,266.13 264.81,271.05 258.72,275.21 252.39,278.54 245.80,281.09 239.07,282.85 232.06,283.88 225.01,284.07 218.10,283.31 211.13,281.58 203.43,278.70 196.01,274.48 191.90,271.11 188.03,267.16 184.58,262.61 180.44,255.12 177.32,246.83 175.83,239.79 175.21,232.51 175.35,225.14 176.46,216.24 185.78,177.49 194.79,139.17 195.51,131.16 195.34,124.51 194.51,117.50 193.00,110.80 190.72,104.12 187.69,97.87 182.91,90.65 177.27,84.46 172.86,81.03 168.15,78.33 163.29,76.35 158.01,75.02 152.58,74.47 147.16,74.65 141.75,75.56 136.36,77.17 131.32,79.39 125.39,83.09 119.93,87.85 114.87,93.62 110.38,100.39 106.96,107.52 104.19,115.38 102.19,122.81 100.85,132.46 100.18,179.04 102.68,232.21 112.08,287.37 117.30,304.06 151.23,369.91 179.64,416.74 193.81,446.29 203.52,474.48 213.96,524.31 215.75,538.69 216.21,555.53 215.27,563.82 213.54,571.65 211.93,576.56 209.96,581.12 207.55,585.21 203.82,589.55 199.42,593.13 194.86,595.86 190.11,597.65 185.19,598.53 180.22,598.72 175.10,598.29 169.93,597.17 164.95,595.26 160.35,592.62 155.93,589.28 151.86,585.27 146.72,578.60 142.53,570.95 140.29,564.76 138.69,557.08 137.49,533.99 136.32,508.47 133.66,491.20 130.21,476.94 127.48,469.93 124.18,464.26 120.70,459.67 116.69,455.46 112.39,451.94 107.27,448.96 101.82,446.78 96.43,445.29 89.23,444.38 82.14,444.71 75.05,445.99 68.14,448.39 61.93,451.66 56.18,456.06 51.46,461.16 47.37,467.23 44.20,473.63 41.80,480.73 40.52,487.99 40.00,495.66 40.09,503.46 41.09,512.57 46.25,539.91 55.35,573.04 104.32,680.47 129.51,724.04 138.93,737.30 144.22,743.13 149.87,748.10 156.28,751.93 163.26,755.36 174.02,758.82 184.88,760.00 195.15,760.00 204.84,759.12 212.75,756.48 219.52,753.26 225.97,749.14 231.51,744.28 236.81,737.57 240.68,732.36 244.74,724.83 261.97,676.40 270.79,645.90"
        fill="none"
        stroke="#e94560"
        stroke-width="8.0"
        stroke-linejoin="round"
        stroke-linecap="round"/>
  <!-- Start/finish line -->
  <line x1="251.58" y1="640.35" x2="290.00" y2="651.46"
        stroke="#f5f5f5" stroke-width="9.6"
        stroke-linecap="round"/>
</svg>
