<?xml version="1.0" encoding="utf-8"?>
<svg xmlns="http://www.w3.org/2000/svg"
     width="800.0" height="682.5"
     viewBox="0 0 800.0 682.5">
  <rect width="100%" height="100%" fill="#1a1a2e"/>
  <!-- Track outline -->
  <polyline points="491.86,605.80 626.74,576.48 648.25,570.18 667.27,560.87 703.24,537.40 718.61,524.38 730.97,510.37 742.03,495.75 750.19,480.76 754.23,470.90 757.42,460.49 759.22,450.31 760.00,440.05 759.87,429.64 758.73,419.27 753.05,399.12 722.70,329.01 668.90,159.59 649.97,117.02 638.70,99.01 625.96,83.95 612.38,70.12 597.89,58.88 582.98,50.26 567.61,44.55 551.67,40.73 543.68,40.00 534.89,40.15 518.03,42.04 501.33,45.31 492.80,48.11 485.18,51.46 469.28,60.26 439.58,84.06 396.24,130.95 380.50,144.96 363.70,156.24 345.36,163.99 326.35,169.77 214.21,194.33 162.28,213.10 116.09,234.49 87.73,251.30 66.40,267.60 59.17,275.82 53.92,283.90 49.21,291.90 45.36,300.16 42.47,308.60 40.62,317.19 40.00,325.48 40.57,333.89 42.65,343.46 46.22,352.77 51.37,361.28 57.64,368.74 63.91,374.16 70.75,378.67 78.13,382.78 85.99,386.17 94.86,388.90 104.02,390.57 112.24,391.01 122.17,390.02 215.14,363.47 299.86,330.21 490.80,266.84 508.38,262.40 529.19,259.60 546.80,260.29 555.78,261.49 564.23,264.04 568.05,266.15 571.70,268.73 574.97,271.71 577.70,275.10 580.41,280.66 582.13,286.99 583.27,293.36 583.64,301.84 583.61,311.11 587.20,347.89 587.15,369.87 584.73,387.55 580.54,404.98 573.41,421.38 564.80,436.41 552.21,452.64 545.11,459.69 537.39,465.99 528.90,471.30 519.85,475.77 500.24,482.51 484.11,486.03 466.27,487.85 309.44,493.31 231.22,506.37 215.27,511.94 206.12,516.09 197.32,521.07 189.91,526.82 183.22,533.22 177.32,539.51 172.33,546.43 168.40,554.83 165.90,563.85 165.20,569.86 165.17,575.93 165.87,581.97 168.63,591.39 172.74,600.27 177.14,607.29 182.31,613.62 188.45,619.77 195.37,625.30 203.41,630.40 212.10,634.65 220.97,637.85 231.50,640.15 257.85,642.47 289.85,642.29 383.18,628.76 409.22,623.77 491.86,605.80"
        fill="none"
        stroke="#e94560"
        stroke-width="8.0"
        stroke-linejoin="round"
        stroke-linecap="round"/>
  <!-- Start/finish line -->
  <line x1="487.61" y1="586.26" x2="496.11" y2="625.34"
        stroke="#f5f5f5" stroke-width="9.6"
        stroke-linecap="round"/>
</svg>
