<?xml version="1.0" encoding="utf-8"?>
<svg xmlns="http://www.w3.org/2000/svg"
     width="339.7" height="800.0"
     viewBox="0 0 339.7 800.0">
  <rect width="100%" height="100%" fill="#1a1a2e"/>
  <!-- Track outline -->
  <polyline points="44.32,316.86 41.44,366.48 40.00,410.76 40.68,426.67 42.35,442.67 47.43,456.29 51.83,462.10 57.51,467.71 63.96,472.86 70.71,476.95 77.53,479.71 83.82,480.48 89.36,479.33 95.20,476.57 101.11,472.67 106.80,467.81 111.95,462.48 116.35,456.86 119.61,451.33 122.49,441.24 122.95,429.90 121.96,418.00 120.60,406.38 115.59,383.71 109.30,358.95 98.00,264.48 97.24,241.52 98.76,220.86 101.26,206.10 105.13,191.52 111.50,178.57 118.70,169.62 127.50,161.33 137.43,154.48 147.66,149.90 156.38,148.00 165.86,147.33 175.49,147.90 184.66,149.71 192.78,152.95 201.42,158.86 208.93,166.76 215.52,176.86 221.44,189.33 235.92,279.05 241.38,372.38 242.89,420.10 239.25,442.95 232.05,464.57 220.07,483.43 204.83,500.29 186.86,515.52 167.15,529.24 125.60,553.24 107.10,564.57 90.34,577.81 80.03,590.10 70.93,604.00 63.96,618.48 59.33,632.57 56.60,647.14 55.92,661.81 57.59,677.33 61.46,692.86 67.37,707.43 75.56,721.05 85.72,733.71 97.47,744.00 110.51,751.52 125.07,756.76 139.93,759.71 155.55,760.00 171.55,757.81 186.79,753.43 201.19,746.86 214.76,738.10 226.59,727.71 235.92,716.95 243.42,704.48 250.55,686.76 280.35,518.48 298.32,319.81 299.68,218.10 292.63,140.19 288.46,123.43 283.38,110.29 276.48,98.19 267.31,86.29 256.31,75.52 244.41,66.00 231.52,57.33 217.72,50.00 203.24,44.57 187.85,41.24 171.77,40.00 156.00,40.95 140.08,44.29 124.31,49.90 110.13,57.71 97.62,68.00 86.63,80.38 77.83,93.81 70.33,112.95 65.40,136.48 44.32,316.86"
        fill="none"
        stroke="#e94560"
        stroke-width="8.0"
        stroke-linejoin="round"
        stroke-linecap="round"/>
  <!-- Start/finish line -->
  <line x1="64.21" y1="318.93" x2="24.43" y2="314.78"
        stroke="#f5f5f5" stroke-width="9.6"
        stroke-linecap="round"/>
</svg>
