<?xml version="1.0" encoding="utf-8"?>
<svg xmlns="http://www.w3.org/2000/svg"
     width="606.7" height="800.0"
     viewBox="0 0 606.7 800.0">
  <rect width="100%" height="100%" fill="#1a1a2e"/>
  <!-- Track outline -->
  <polyline points="442.37,426.29 485.63,355.29 561.61,200.28 566.67,170.01 565.97,144.79 561.72,121.94 557.94,108.41 552.93,95.64 546.30,84.03 537.62,73.78 524.11,63.54 507.52,54.90 489.41,48.10 471.54,43.36 447.84,40.00 423.51,40.15 399.75,43.82 375.94,52.15 352.77,64.31 331.87,78.37 309.74,97.40 286.92,125.38 160.11,326.17 50.13,540.94 42.21,572.28 40.00,597.66 40.52,622.57 42.33,648.41 46.64,673.71 53.97,696.03 60.38,708.10 68.06,719.11 76.85,728.74 86.69,736.84 102.41,744.79 120.11,750.06 137.81,753.96 154.41,757.55 171.00,760.00 186.89,759.24 201.68,753.73 215.83,745.10 229.22,735.85 245.87,724.69 263.22,708.64 318.07,630.83 382.34,524.74 442.37,426.29"
        fill="none"
        stroke="#e94560"
        stroke-width="8.0"
        stroke-linejoin="round"
        stroke-linecap="round"/>
  <!-- Start/finish line -->
  <line x1="425.29" y1="415.88" x2="459.45" y2="436.70"
        stroke="#f5f5f5" stroke-width="9.6"
        stroke-linecap="round"/>
</svg>
