<?xml version="1.0" encoding="utf-8"?>
<svg xmlns="http://www.w3.org/2000/svg"
     width="800.0" height="361.8"
     viewBox="0 0 800.0 361.8">
  <rect width="100%" height="100%" fill="#1a1a2e"/>
  <!-- Track outline -->
  <polyline points="544.79,114.01 575.22,110.00 633.09,95.04 658.78,90.24 692.96,86.60 708.31,86.09 715.49,86.52 722.49,87.57 728.89,89.36 735.05,91.82 740.63,94.66 746.03,98.30 750.06,101.35 754.03,104.89 757.51,110.24 759.97,118.89 760.00,129.06 759.34,135.91 758.03,142.79 753.77,156.79 747.32,170.84 738.85,184.87 665.18,289.99 656.92,301.63 652.68,306.61 648.13,311.05 642.34,315.44 636.13,318.90 631.84,320.45 627.46,321.47 623.13,321.79 618.91,321.44 614.74,320.42 610.77,318.68 607.20,316.30 603.84,313.27 600.94,309.66 598.66,305.73 596.79,301.31 595.56,296.60 595.12,291.59 595.32,286.35 596.01,281.39 598.05,275.10 600.88,269.29 608.53,257.22 618.55,245.26 650.05,214.88 658.49,203.77 661.98,198.28 664.97,192.28 667.43,185.19 668.85,177.69 668.92,173.01 668.43,168.33 667.43,163.99 665.73,159.84 663.44,156.07 660.79,152.75 657.24,149.59 653.25,147.02 649.18,144.93 644.00,142.79 637.15,141.34 508.42,140.17 430.52,143.67 417.58,143.00 405.46,141.00 390.05,136.10 375.98,129.22 364.26,121.75 352.60,114.92 345.78,112.46 339.37,111.39 333.16,111.66 326.47,113.16 313.91,118.14 301.26,123.54 287.52,127.50 275.33,129.73 245.82,131.25 161.11,128.92 113.47,122.47 85.14,115.00 70.59,109.70 64.12,106.57 58.06,102.72 52.81,98.09 48.17,92.52 44.53,86.31 41.79,79.48 40.73,75.33 40.05,71.02 40.00,66.77 40.78,62.06 42.28,57.35 44.28,53.20 47.24,49.40 50.87,46.29 54.63,43.83 58.48,41.90 62.51,40.59 66.58,40.00 70.96,40.19 75.41,41.12 79.63,42.84 83.37,45.33 86.89,48.51 90.22,51.97 94.34,57.32 98.48,62.65 103.53,67.60 109.03,71.53 113.33,73.25 117.89,74.21 122.43,74.61 129.00,74.24 135.64,72.76 150.48,66.63 175.77,54.00 187.84,49.13 195.16,47.15 202.61,45.94 209.41,45.76 215.95,46.64 219.87,47.87 223.65,49.58 227.22,51.86 232.01,56.11 236.33,61.44 239.88,68.05 243.23,74.99 246.61,81.17 250.38,86.68 253.74,90.11 257.48,93.03 261.36,95.09 264.38,95.95 267.52,96.27 270.69,96.16 273.87,95.62 278.45,94.07 283.04,91.69 287.49,88.82 299.42,78.17 319.10,59.17 325.92,54.21 332.57,50.41 339.41,47.25 346.31,45.17 350.84,44.60 355.36,44.60 359.81,45.22 364.10,46.48 368.30,48.32 372.25,50.68 377.26,54.75 381.64,59.75 384.86,65.00 387.40,70.86 388.88,77.13 390.36,83.50 392.83,89.92 396.03,95.78 399.01,99.53 402.43,102.85 406.15,105.74 413.40,109.68 421.08,112.43 427.45,113.96 435.32,114.87 473.35,117.49 523.54,116.80 544.79,114.01"
        fill="none"
        stroke="#e94560"
        stroke-width="8.0"
        stroke-linejoin="round"
        stroke-linecap="round"/>
  <!-- Start/finish line -->
  <line x1="542.18" y1="94.18" x2="547.40" y2="133.84"
        stroke="#f5f5f5" stroke-width="9.6"
        stroke-linecap="round"/>
</svg>
