<?xml version="1.0" encoding="utf-8"?>
<svg xmlns="http://www.w3.org/2000/svg"
     width="724.6" height="800.0"
     viewBox="0 0 724.6 800.0">
  <rect width="100%" height="100%" fill="#1a1a2e"/>
  <!-- Track outline -->
  <polyline points="155.88,241.71 132.72,268.86 117.23,290.70 104.17,314.43 70.74,393.21 44.13,475.75 40.00,506.87 40.25,534.79 42.86,564.58 48.51,593.38 56.34,618.32 66.95,641.60 81.69,665.43 99.29,687.17 120.76,707.48 144.59,724.80 171.96,739.26 200.77,750.07 229.99,756.91 259.72,760.00 290.46,759.56 321.03,755.81 350.25,749.08 378.46,739.37 404.23,727.12 428.90,712.66 473.20,680.44 531.14,621.96 584.95,559.39 612.66,514.37 639.44,461.41 659.57,415.83 674.64,355.03 684.33,294.57 684.58,273.27 682.48,254.18 678.35,229.90 671.70,204.74 659.65,173.52 644.66,144.06 629.76,122.43 613.00,103.78 592.96,86.46 570.97,71.78 546.30,59.64 520.61,50.59 495.10,44.41 468.57,40.99 436.32,40.00 403.64,42.98 373.74,50.26 345.03,61.52 317.82,76.41 292.06,94.29 246.58,135.23 155.88,241.71"
        fill="none"
        stroke="#e94560"
        stroke-width="8.0"
        stroke-linejoin="round"
        stroke-linecap="round"/>
  <!-- Start/finish line -->
  <line x1="171.10" y1="254.68" x2="140.66" y2="228.74"
        stroke="#f5f5f5" stroke-width="9.6"
        stroke-linecap="round"/>
</svg>
