<?xml version="1.0" encoding="utf-8"?>
<svg xmlns="http://www.w3.org/2000/svg"
     width="800.0" height="347.3"
     viewBox="0 0 800.0 347.3">
  <rect width="100%" height="100%" fill="#1a1a2e"/>
  <!-- Track outline -->
  <polyline points="365.58,288.13 607.43,291.24 673.56,288.85 683.29,287.53 691.31,285.58 698.28,283.26 705.38,279.99 728.30,264.90 737.61,257.39 745.45,249.94 749.13,245.48 752.05,240.90 754.45,235.85 756.24,230.61 757.15,226.16 757.54,221.70 757.49,217.32 756.82,212.55 749.73,192.53 747.03,183.52 745.71,172.30 746.22,163.38 748.31,154.46 758.09,126.34 759.52,118.36 760.00,111.00 759.71,104.33 758.69,97.92 756.85,91.52 754.34,85.43 751.13,79.52 747.25,73.99 741.75,67.85 735.54,62.30 728.53,57.39 721.08,53.32 713.05,49.98 704.56,47.47 694.71,45.56 683.63,44.59 642.13,46.61 621.94,47.14 597.77,45.74 539.94,40.00 505.92,40.94 476.40,45.12 467.02,47.69 458.59,50.97 451.41,54.78 445.13,59.07 441.35,62.37 438.18,66.03 435.59,70.13 433.51,74.53 432.24,78.33 431.44,82.35 431.05,87.39 431.29,92.73 432.51,99.20 434.48,105.49 436.89,110.86 439.81,115.73 443.45,120.46 447.54,124.66 452.24,128.44 457.29,131.61 462.83,134.30 468.62,136.36 474.77,137.80 481.23,138.55 489.18,138.56 497.38,137.73 505.30,136.17 513.68,133.61 540.37,121.26 557.61,113.89 573.10,109.04 589.47,105.78 606.38,104.36 625.08,104.94 649.09,107.75 653.29,108.74 656.84,110.02 660.30,111.73 663.54,113.87 666.41,116.37 669.01,119.26 671.23,122.43 673.11,125.93 674.55,129.66 675.60,133.62 676.22,137.71 676.41,141.89 676.13,146.13 675.40,150.32 674.18,154.54 672.56,158.62 670.45,162.70 668.01,166.56 661.85,173.88 654.23,180.33 645.42,185.84 630.44,192.59 602.96,202.41 584.94,207.12 568.98,209.39 555.75,209.83 542.31,208.77 528.91,206.11 515.77,201.91 499.82,194.94 445.76,166.53 430.38,156.39 415.99,144.46 402.75,130.89 390.84,115.79 361.34,77.23 353.54,69.29 346.56,63.40 341.52,59.91 336.88,57.42 333.58,56.17 330.41,55.47 327.20,55.21 324.04,55.41 320.98,56.05 318.05,57.15 315.41,58.60 312.98,60.47 310.95,62.66 309.21,65.22 307.88,68.02 306.92,71.19 306.31,75.35 306.24,79.79 306.76,84.19 308.02,88.93 318.42,109.65 336.19,139.92 345.58,158.59 347.02,162.28 347.95,165.66 348.49,169.10 348.59,172.54 348.20,175.88 347.37,179.10 346.09,182.27 344.38,185.30 341.64,189.00 338.54,192.39 335.56,195.03 332.42,197.29 328.91,199.39 325.10,201.18 320.00,202.98 314.56,204.38 302.89,205.80 282.50,205.50 202.32,201.78 131.25,200.02 88.20,200.17 85.41,200.71 83.33,201.51 81.27,202.65 79.43,204.12 78.44,205.19 77.56,206.38 76.87,207.68 76.41,208.97 76.11,210.36 75.99,211.77 76.06,213.20 76.32,214.66 76.84,216.24 80.02,221.61 83.70,227.01 86.77,232.56 87.73,235.54 88.26,238.64 88.25,241.80 87.82,244.81 87.14,247.02 86.14,249.05 84.40,251.56 82.27,253.84 79.69,255.86 76.78,257.58 68.25,260.87 53.38,266.01 50.13,267.82 47.42,269.89 45.09,272.19 43.11,274.83 41.66,277.55 40.61,280.48 40.08,283.42 40.00,286.40 40.46,289.37 41.36,292.22 42.79,295.05 44.61,297.62 46.93,300.09 49.55,302.21 52.61,304.06 55.89,305.51 59.52,306.58 63.28,307.18 67.20,307.33 71.27,306.97 76.07,305.90 81.42,304.02 102.30,293.35 114.34,288.88 117.26,288.23 120.02,287.89 124.46,287.67 311.47,288.61 365.58,288.13"
        fill="none"
        stroke="#e94560"
        stroke-width="8.0"
        stroke-linejoin="round"
        stroke-linecap="round"/>
  <!-- Start/finish line -->
  <line x1="365.76" y1="268.13" x2="365.41" y2="308.13"
        stroke="#f5f5f5" stroke-width="9.6"
        stroke-linecap="round"/>
</svg>
