<?xml version="1.0" encoding="utf-8"?>
<svg xmlns="http://www.w3.org/2000/svg"
     width="800.0" height="737.0"
     viewBox="0 0 800.0 737.0">
  <rect width="100%" height="100%" fill="#1a1a2e"/>
  <!-- Track outline -->
  <polyline points="142.83,564.90 134.75,560.42 98.99,536.06 82.02,522.52 67.73,508.16 55.87,492.59 47.27,476.31 44.32,468.43 42.08,460.22 40.00,443.18 40.40,425.39 41.31,416.37 43.74,407.37 51.49,384.51 66.98,351.22 86.32,322.22 103.35,303.64 119.20,288.57 135.45,276.96 149.51,267.08 164.98,259.04 180.97,253.51 197.21,250.80 205.32,250.50 213.44,251.03 221.54,252.56 229.56,254.88 245.05,261.36 252.46,265.58 259.60,270.52 272.43,282.48 283.59,295.40 296.38,307.34 309.91,317.80 317.94,321.89 325.62,324.15 330.83,324.93 336.04,325.03 341.23,324.54 348.98,322.58 356.51,319.21 363.54,314.63 370.00,308.78 375.37,301.98 379.78,294.09 382.85,285.59 384.66,276.40 384.93,266.56 383.92,256.98 382.04,249.46 379.37,242.52 375.84,235.39 371.66,228.79 367.03,222.77 360.88,216.52 303.28,174.08 289.47,161.45 278.55,148.44 269.90,135.16 263.74,120.97 259.99,105.99 258.76,96.77 258.64,87.35 259.58,81.27 261.24,75.32 263.42,69.82 266.41,64.49 270.02,59.72 274.02,55.47 281.53,49.68 289.85,45.36 299.39,42.26 309.00,40.52 316.91,40.00 324.67,40.43 332.62,41.90 340.56,44.15 356.51,50.43 372.81,58.21 388.66,68.45 395.95,74.66 402.84,81.66 414.79,97.59 424.85,115.61 432.86,135.13 487.17,295.14 541.51,413.00 546.84,422.78 551.62,429.74 557.48,436.18 563.88,441.42 568.79,444.69 573.94,447.40 579.19,448.87 583.37,448.97 587.71,448.35 591.89,447.01 595.56,444.95 598.31,442.59 600.83,439.68 602.95,436.31 604.51,432.65 605.18,427.39 605.03,421.53 605.36,415.84 606.59,410.12 608.33,404.56 610.73,399.72 613.62,396.19 617.11,393.21 620.93,390.76 624.72,388.80 629.73,387.13 634.92,386.35 640.19,386.12 648.73,386.64 657.40,388.37 666.48,391.38 675.21,395.34 688.23,403.61 700.51,414.40 711.82,427.26 722.18,441.94 731.89,458.06 740.86,475.56 748.67,494.43 754.71,514.54 758.83,535.86 760.00,557.54 758.28,577.88 753.48,596.03 746.01,612.58 736.11,628.44 723.55,643.02 709.11,656.56 693.22,669.09 675.83,680.30 657.46,689.00 639.53,694.56 630.80,696.16 622.22,696.95 614.47,696.98 606.63,696.07 597.08,693.48 587.81,689.72 581.07,685.90 574.83,681.32 568.93,676.05 563.36,670.10 553.50,656.89 545.18,641.98 522.40,592.04 497.75,516.24 481.69,479.81 472.46,464.67 452.15,440.30 444.98,433.86 437.95,428.83 430.81,424.51 423.33,421.50 417.36,420.39 411.14,420.09 405.20,420.78 400.31,422.29 395.67,424.57 391.17,427.39 384.72,432.46 378.67,438.57 373.48,444.85 368.12,453.25 340.38,516.66 330.93,532.10 318.95,546.45 304.72,559.57 288.68,571.08 271.11,580.37 252.40,586.65 232.53,589.69 212.27,589.39 192.02,586.19 172.37,579.61 153.37,570.72 142.83,564.90"
        fill="none"
        stroke="#e94560"
        stroke-width="8.0"
        stroke-linejoin="round"
        stroke-linecap="round"/>
  <!-- Start/finish line -->
  <line x1="133.14" y1="582.40" x2="152.51" y2="547.40"
        stroke="#f5f5f5" stroke-width="9.6"
        stroke-linecap="round"/>
</svg>
