<?xml version="1.0" encoding="utf-8"?>
<svg xmlns="http://www.w3.org/2000/svg"
     width="800.0" height="658.5"
     viewBox="0 0 800.0 658.5">
  <rect width="100%" height="100%" fill="#1a1a2e"/>
  <!-- Track outline -->
  <polyline points="141.53,385.63 57.66,199.71 47.47,172.32 41.36,146.17 40.00,133.88 40.07,121.38 42.62,106.10 47.40,91.48 52.13,82.62 57.91,74.63 64.34,67.45 76.08,57.56 89.11,49.95 104.23,44.62 117.44,41.52 127.71,40.00 136.83,40.22 144.36,40.98 158.08,43.59 176.60,47.18 208.02,50.82 307.86,57.50 508.58,59.90 619.16,63.32 635.60,66.09 649.32,70.12 662.89,75.44 675.74,82.35 687.16,90.56 697.39,100.56 705.50,111.70 711.86,124.26 715.84,137.36 717.71,151.06 717.60,159.81 716.52,168.56 714.51,176.83 711.25,184.82 706.94,192.27 702.06,198.90 696.31,204.93 689.88,210.10 682.88,214.34 673.59,218.25 663.46,221.02 653.55,222.44 644.86,222.49 636.36,221.40 627.96,219.28 615.35,213.68 602.90,206.24 577.19,187.48 554.54,174.65 542.51,169.43 530.27,165.36 518.13,162.69 505.57,161.28 489.99,161.12 474.26,162.69 460.44,165.85 447.52,170.90 440.37,174.93 433.62,179.71 427.45,185.58 421.56,192.76 416.25,201.02 412.40,210.04 410.54,219.39 409.96,229.45 410.57,239.02 413.84,251.47 419.01,263.21 425.83,275.93 434.16,287.67 445.36,299.20 457.93,308.87 471.82,316.65 486.50,322.30 502.62,326.10 518.56,327.84 531.45,327.68 543.98,326.16 570.26,319.47 643.64,291.80 659.55,287.78 673.87,285.93 688.92,285.93 703.64,288.11 712.65,290.77 721.37,294.41 729.52,299.25 736.66,304.90 743.34,311.59 748.98,319.25 753.25,327.41 756.70,336.38 758.96,345.73 760.00,355.35 759.96,365.35 758.74,375.03 755.91,384.98 751.74,394.60 746.68,403.41 736.27,416.13 724.49,426.46 713.54,433.41 702.13,438.52 690.06,442.55 676.42,445.48 618.94,450.10 555.04,450.54 521.18,448.20 488.80,441.84 459.47,431.57 446.29,424.66 433.77,416.29 422.20,406.56 411.33,395.52 392.05,370.41 323.98,242.44 314.11,228.74 305.09,218.69 295.62,209.12 285.42,201.07 276.88,196.18 267.72,192.27 258.42,190.04 248.62,189.93 238.64,191.56 229.38,194.71 222.06,198.57 215.27,203.57 209.17,209.61 203.89,216.40 199.22,224.18 195.56,232.66 193.05,241.68 191.47,251.36 191.00,261.14 192.83,276.53 196.96,291.58 203.28,305.72 212.04,320.67 260.29,392.42 279.86,416.34 303.34,438.20 350.58,472.06 388.31,491.36 422.42,509.79 434.20,519.25 443.03,529.36 446.55,534.53 449.78,540.02 452.29,545.83 453.58,551.81 453.40,558.50 452.04,565.62 449.78,572.58 446.94,578.50 441.41,585.03 434.45,590.08 427.02,594.32 414.52,599.76 400.27,604.05 348.43,615.25 320.50,618.51 306.53,618.41 292.71,616.39 279.03,611.56 265.85,604.33 253.54,594.70 242.45,583.45 234.94,573.88 227.33,561.98 186.26,484.73 141.53,385.63"
        fill="none"
        stroke="#e94560"
        stroke-width="8.0"
        stroke-linejoin="round"
        stroke-linecap="round"/>
  <!-- Start/finish line -->
  <line x1="123.30" y1="393.86" x2="159.76" y2="377.40"
        stroke="#f5f5f5" stroke-width="9.6"
        stroke-linecap="round"/>
</svg>
