<?xml version="1.0" encoding="utf-8"?>
<svg xmlns="http://www.w3.org/2000/svg"
     width="539.3" height="800.0"
     viewBox="0 0 539.3 800.0">
  <rect width="100%" height="100%" fill="#1a1a2e"/>
  <!-- Track outline -->
  <polyline points="131.06,444.01 222.22,649.49 249.55,694.18 265.82,713.54 283.87,729.89 303.24,743.03 318.30,750.20 334.68,755.84 351.52,758.97 367.75,760.00 378.82,759.46 389.75,757.57 406.56,752.75 421.67,747.07 431.65,741.67 440.45,735.82 450.14,727.91 466.20,710.82 480.41,692.12 486.18,681.00 490.25,670.09 496.42,646.28 499.27,620.87 498.09,594.76 493.42,568.81 417.72,378.11 309.27,140.91 291.88,112.70 271.90,87.74 261.26,77.11 249.15,67.27 229.51,55.28 210.71,46.05 204.11,43.67 197.30,42.22 178.67,40.00 157.54,40.08 138.16,43.79 119.62,50.46 102.31,60.06 86.54,72.17 72.09,87.32 60.36,103.14 54.59,113.31 50.18,124.48 44.01,148.90 40.06,173.37 40.00,193.38 42.91,213.48 98.62,370.86 131.06,444.01"
        fill="none"
        stroke="#e94560"
        stroke-width="8.0"
        stroke-linejoin="round"
        stroke-linecap="round"/>
  <!-- Start/finish line -->
  <line x1="149.35" y1="435.90" x2="112.78" y2="452.12"
        stroke="#f5f5f5" stroke-width="9.6"
        stroke-linecap="round"/>
</svg>
