<?xml version="1.0" encoding="utf-8"?>
<svg xmlns="http://www.w3.org/2000/svg"
     width="436.0" height="800.0"
     viewBox="0 0 436.0 800.0">
  <rect width="100%" height="100%" fill="#1a1a2e"/>
  <!-- Track outline -->
  <polyline points="392.87,460.68 393.52,450.81 395.96,255.90 392.62,180.77 387.55,159.78 380.00,140.89 368.25,119.59 353.06,99.60 328.82,77.88 303.72,60.46 290.51,53.01 276.52,47.87 246.66,41.94 214.36,40.00 188.74,42.78 163.99,49.50 137.39,60.88 112.81,76.10 100.24,86.38 88.91,97.87 79.17,111.51 66.60,141.31 58.10,173.06 52.66,218.12 41.16,402.12 40.00,594.83 44.50,624.32 50.81,647.09 59.86,667.71 73.16,688.17 89.25,706.54 104.65,721.33 118.34,732.14 133.31,740.27 163.47,751.71 196.64,759.16 225.55,760.00 252.97,756.43 274.25,750.50 294.20,741.11 315.13,726.16 334.70,707.17 353.66,682.45 369.19,655.70 377.47,635.97 383.31,612.41 392.87,460.68"
        fill="none"
        stroke="#e94560"
        stroke-width="8.0"
        stroke-linejoin="round"
        stroke-linecap="round"/>
  <!-- Start/finish line -->
  <line x1="372.91" y1="459.42" x2="412.83" y2="461.94"
        stroke="#f5f5f5" stroke-width="9.6"
        stroke-linecap="round"/>
</svg>
