<?xml version="1.0" encoding="utf-8"?>
<svg xmlns="http://www.w3.org/2000/svg"
     width="439.5" height="800.0"
     viewBox="0 0 439.5 800.0">
  <rect width="100%" height="100%" fill="#1a1a2e"/>
  <!-- Track outline -->
  <polyline points="41.33,393.86 40.00,481.98 45.77,581.01 53.56,620.31 64.63,655.10 78.15,681.01 91.50,700.56 96.08,706.24 101.20,711.09 141.81,740.98 154.79,748.11 169.75,753.93 187.32,758.40 208.81,760.00 231.46,757.91 257.06,750.30 281.40,739.14 298.61,728.46 313.82,715.85 326.23,702.45 337.66,686.25 352.99,657.23 365.32,627.78 371.96,600.66 383.86,512.01 399.55,238.94 396.48,206.23 388.26,171.44 378.52,139.95 375.02,131.75 370.91,124.67 346.57,92.45 328.65,74.93 311.48,62.56 295.11,54.02 275.45,47.28 254.39,42.04 240.26,40.24 227.09,40.00 216.09,40.73 204.55,42.72 183.06,48.25 162.04,55.48 142.42,66.20 123.52,79.59 107.91,94.73 95.83,110.21 86.67,125.35 77.43,144.56 65.06,180.08 54.64,221.56 43.79,324.04 41.37,391.63 41.33,393.86"
        fill="none"
        stroke="#e94560"
        stroke-width="8.0"
        stroke-linejoin="round"
        stroke-linecap="round"/>
  <!-- Start/finish line -->
  <line x1="61.33" y1="394.17" x2="21.34" y2="393.56"
        stroke="#f5f5f5" stroke-width="9.6"
        stroke-linecap="round"/>
</svg>
