<?xml version="1.0" encoding="utf-8"?>
<svg xmlns="http://www.w3.org/2000/svg"
     width="481.9" height="800.0"
     viewBox="0 0 481.9 800.0">
  <rect width="100%" height="100%" fill="#1a1a2e"/>
  <!-- Track outline -->
  <polyline points="52.51,364.53 40.54,523.69 40.00,574.69 42.78,616.31 46.50,633.64 52.47,648.80 66.77,672.72 84.44,695.14 100.76,711.23 119.10,724.78 147.66,740.25 178.78,751.99 209.13,758.32 239.44,760.00 269.75,756.40 295.94,750.00 305.76,746.52 314.64,742.05 328.99,733.72 343.74,722.29 359.66,704.77 373.96,683.47 385.62,656.69 393.87,631.41 397.95,612.77 441.94,231.21 441.67,206.55 439.56,189.03 437.50,178.28 433.87,167.72 420.46,141.88 402.48,115.48 383.47,95.48 362.39,78.52 335.67,61.68 310.87,49.19 301.46,45.40 291.82,43.11 266.03,40.00 236.80,40.19 209.31,45.53 183.71,54.10 166.09,62.43 150.98,71.62 142.10,78.02 133.40,85.85 114.75,105.35 96.27,130.08 82.33,160.08 72.42,189.40 66.99,217.05 52.51,364.53"
        fill="none"
        stroke="#e94560"
        stroke-width="8.0"
        stroke-linejoin="round"
        stroke-linecap="round"/>
  <!-- Start/finish line -->
  <line x1="72.44" y1="366.25" x2="32.58" y2="362.81"
        stroke="#f5f5f5" stroke-width="9.6"
        stroke-linecap="round"/>
</svg>
