<?xml version="1.0" encoding="utf-8"?>
<svg xmlns="http://www.w3.org/2000/svg"
     width="585.8" height="800.0"
     viewBox="0 0 585.8 800.0">
  <rect width="100%" height="100%" fill="#1a1a2e"/>
  <!-- Track outline -->
  <polyline points="539.94,413.80 542.97,540.39 545.80,683.43 545.21,694.20 543.36,703.60 540.29,711.81 535.87,719.44 530.26,726.39 524.08,731.95 517.03,736.42 506.70,741.09 497.03,743.63 485.43,744.96 457.39,747.80 406.55,756.65 387.17,758.65 354.32,760.00 342.73,759.38 339.30,758.74 336.17,757.82 333.10,756.56 330.14,754.96 327.15,752.88 324.36,750.51 321.99,748.05 319.87,745.39 317.96,742.51 316.31,739.41 314.90,735.89 313.81,732.19 312.55,724.39 312.52,713.70 314.69,698.12 331.13,594.65 337.23,563.30 345.12,530.96 356.34,492.95 372.50,444.85 407.47,347.18 416.55,314.69 424.68,279.03 432.68,230.19 432.80,224.78 432.41,221.40 431.76,218.32 430.71,215.11 429.36,212.68 427.39,210.09 425.06,207.85 422.06,206.20 418.91,205.05 415.22,204.25 410.23,203.70 398.91,203.71 380.86,204.80 331.68,208.02 313.25,208.68 306.26,209.69 302.37,211.08 299.27,212.80 296.68,214.99 294.09,217.32 291.80,219.97 289.88,222.91 288.32,226.12 287.10,229.76 286.32,234.66 286.42,241.47 287.08,248.67 292.54,283.31 293.54,297.81 293.03,307.81 291.18,317.10 287.96,326.16 283.88,334.17 278.11,342.14 270.61,349.89 258.39,359.86 195.69,406.33 152.50,441.89 149.82,444.96 148.10,447.64 146.66,450.58 145.66,453.60 145.17,456.57 145.10,459.60 145.48,462.87 146.33,466.20 148.30,470.46 153.00,477.09 165.66,491.66 177.23,505.65 185.03,517.09 189.19,524.91 192.46,534.07 194.39,543.77 194.87,553.12 193.84,562.54 191.60,571.12 188.13,579.25 183.14,587.38 177.52,594.14 170.45,600.44 162.60,605.55 154.09,609.36 145.72,611.66 136.95,612.69 127.26,612.37 118.36,610.72 109.69,607.71 101.47,603.39 93.30,597.28 85.88,589.99 80.41,582.95 74.95,573.76 70.61,563.85 67.31,552.60 50.59,471.07 41.41,429.66 40.02,417.36 40.00,404.06 41.32,390.92 43.47,379.95 46.83,369.42 52.11,357.62 58.82,346.51 68.81,332.92 87.50,311.33 116.29,279.41 143.84,250.63 160.06,228.72 166.10,219.36 179.66,195.67 195.91,162.42 208.56,127.44 226.59,64.62 229.81,56.69 231.50,52.97 233.37,49.91 235.70,47.15 238.10,45.17 241.03,43.11 244.03,41.66 247.35,40.76 251.22,40.21 255.20,40.00 261.16,40.36 267.92,41.41 275.07,43.30 285.18,46.52 297.54,51.57 309.66,57.63 321.00,64.87 330.61,73.00 351.22,94.13 357.08,98.12 362.72,101.12 368.81,103.56 375.09,105.35 381.45,106.47 388.01,106.94 395.34,106.74 403.22,105.77 426.90,99.73 465.34,86.87 481.27,83.25 492.41,82.05 500.83,82.29 505.08,82.76 510.48,83.93 514.31,85.31 517.23,86.83 520.50,89.04 523.89,91.95 526.53,94.66 528.62,97.44 531.24,101.74 532.67,104.99 533.86,108.90 534.70,115.15 535.09,122.07 535.18,132.76 534.80,182.89 535.62,245.35 539.79,407.83 539.82,408.95 539.94,413.80"
        fill="none"
        stroke="#e94560"
        stroke-width="8.0"
        stroke-linejoin="round"
        stroke-linecap="round"/>
  <!-- Start/finish line -->
  <line x1="559.94" y1="413.32" x2="519.95" y2="414.28"
        stroke="#f5f5f5" stroke-width="9.6"
        stroke-linecap="round"/>
</svg>
