<?xml version="1.0" encoding="utf-8"?>
<svg xmlns="http://www.w3.org/2000/svg"
     width="296.0" height="800.0"
     viewBox="0 0 296.0 800.0">
  <rect width="100%" height="100%" fill="#1a1a2e"/>
  <!-- Track outline -->
  <polyline points="131.16,41.57 138.54,44.96 149.63,50.94 175.23,68.78 191.05,80.36 204.27,91.62 212.54,99.51 218.54,106.79 223.63,115.01 230.17,126.79 234.82,140.04 239.42,157.59 245.30,189.70 248.05,211.41 249.82,230.21 250.14,246.76 248.43,274.25 243.37,427.20 244.00,450.38 249.93,544.73 256.04,643.60 254.75,667.74 250.62,686.41 247.22,695.59 243.23,704.10 235.50,716.20 225.94,726.97 214.71,736.19 197.86,745.79 179.49,752.69 160.08,756.88 118.60,760.00 94.87,759.99 87.36,758.84 80.47,756.97 73.90,754.37 67.69,751.00 62.05,746.94 56.88,742.19 52.28,736.82 48.26,730.88 44.96,724.56 42.37,717.83 40.61,710.90 40.00,702.79 41.66,683.95 47.07,651.08 73.48,513.70 78.22,428.40 75.85,335.20 50.30,107.49 49.80,96.97 49.91,89.77 51.59,79.50 53.67,70.99 57.26,64.01 62.82,57.05 68.78,52.05 75.60,48.59 82.42,46.01 90.44,43.92 100.43,41.75 108.20,40.51 116.53,40.00 124.12,40.04 131.16,41.57"
        fill="none"
        stroke="#e94560"
        stroke-width="8.0"
        stroke-linejoin="round"
        stroke-linecap="round"/>
  <!-- Start/finish line -->
  <line x1="137.62" y1="22.64" x2="124.70" y2="60.49"
        stroke="#f5f5f5" stroke-width="9.6"
        stroke-linecap="round"/>
</svg>
