<?xml version="1.0" encoding="utf-8"?>
<svg xmlns="http://www.w3.org/2000/svg"
     width="800.0" height="418.7"
     viewBox="0 0 800.0 418.7">
  <rect width="100%" height="100%" fill="#1a1a2e"/>
  <!-- Track outline -->
  <polyline points="440.43,45.87 407.92,47.01 230.23,58.05 173.22,66.19 148.14,74.95 125.97,85.55 114.07,92.82 102.63,102.11 78.07,125.41 55.97,152.74 47.89,171.40 43.10,189.09 40.90,199.26 40.00,210.38 42.33,243.93 47.76,277.39 51.44,288.87 56.48,299.03 69.02,318.83 83.37,337.40 92.23,346.60 101.86,354.13 119.44,364.38 139.35,372.53 160.55,376.99 182.59,378.66 231.78,374.72 658.39,314.89 692.58,303.15 715.08,291.93 722.77,287.20 729.23,281.60 735.76,274.50 742.29,265.74 747.91,255.06 755.41,225.27 759.29,195.14 760.00,183.05 759.10,171.05 752.11,140.04 742.03,110.60 736.08,100.53 729.81,92.82 723.87,85.81 716.43,79.07 694.65,65.40 667.70,53.14 637.51,44.73 601.51,40.00 440.43,45.87"
        fill="none"
        stroke="#e94560"
        stroke-width="8.0"
        stroke-linejoin="round"
        stroke-linecap="round"/>
  <!-- Start/finish line -->
  <line x1="441.15" y1="65.86" x2="439.71" y2="25.88"
        stroke="#f5f5f5" stroke-width="9.6"
        stroke-linecap="round"/>
</svg>
