<?xml version="1.0" encoding="utf-8"?>
<svg xmlns="http://www.w3.org/2000/svg"
     width="800.0" height="410.0"
     viewBox="0 0 800.0 410.0">
  <rect width="100%" height="100%" fill="#1a1a2e"/>
  <!-- Track outline -->
  <polyline points="403.92,40.87 400.14,40.87 256.42,46.68 207.13,53.14 164.67,62.53 141.02,71.18 120.01,82.22 98.53,97.10 79.38,113.85 67.34,126.90 57.46,141.51 48.83,161.38 42.84,182.21 40.20,197.14 40.00,212.94 42.91,232.49 48.39,254.15 55.63,273.61 68.08,294.07 83.37,311.29 103.23,327.96 124.85,341.65 145.05,351.76 167.65,359.37 206.38,366.33 255.91,369.81 410.89,370.03 564.29,360.74 609.25,352.31 645.28,340.68 674.03,327.73 699.34,311.98 718.12,296.13 734.02,277.82 742.71,264.63 750.22,250.35 755.70,235.28 758.78,219.99 760.00,203.96 759.39,187.98 754.28,162.48 745.15,138.35 732.50,117.01 716.90,98.42 697.31,81.62 675.79,67.93 654.11,57.54 630.09,49.84 592.53,43.39 548.89,40.00 403.92,40.87"
        fill="none"
        stroke="#e94560"
        stroke-width="8.0"
        stroke-linejoin="round"
        stroke-linecap="round"/>
  <!-- Start/finish line -->
  <line x1="404.04" y1="60.87" x2="403.81" y2="20.87"
        stroke="#f5f5f5" stroke-width="9.6"
        stroke-linecap="round"/>
</svg>
