<?xml version="1.0" encoding="utf-8"?>
<svg xmlns="http://www.w3.org/2000/svg"
     width="775.2" height="800.0"
     viewBox="0 0 775.2 800.0">
  <rect width="100%" height="100%" fill="#1a1a2e"/>
  <!-- Track outline -->
  <polyline points="382.31,754.44 559.60,754.34 639.61,754.09 656.34,750.72 670.81,745.48 685.14,738.17 697.96,729.30 706.25,721.64 713.46,712.27 722.05,696.00 729.00,677.34 732.95,660.37 735.16,639.49 731.61,472.78 727.76,299.61 729.21,148.75 726.88,129.71 722.98,114.46 716.84,99.33 708.98,85.54 699.30,72.83 688.68,62.15 679.50,55.22 669.55,49.98 656.13,45.40 639.99,42.35 562.08,40.00 472.86,42.26 455.70,45.75 441.61,50.93 431.09,56.81 421.81,64.12 413.82,72.57 406.87,82.65 400.42,95.61 395.33,111.38 390.54,139.76 389.09,173.00 402.85,268.97 404.39,287.12 404.35,302.40 402.54,314.77 399.16,326.62 392.80,341.27 384.50,355.35 374.31,368.35 362.41,380.17 345.90,393.10 328.57,404.29 314.15,412.24 300.99,417.92 289.05,420.18 275.81,418.65 243.76,414.05 164.53,405.15 143.19,406.10 124.10,409.79 104.42,416.56 86.07,425.46 72.22,434.07 60.54,443.70 55.64,448.85 51.47,454.25 48.14,460.64 44.83,473.28 43.05,490.41 40.00,571.07 41.48,654.36 44.33,676.74 48.95,694.57 55.54,710.96 63.75,724.98 69.08,731.56 74.89,737.06 81.46,741.89 95.83,749.00 112.46,754.12 134.93,758.22 161.23,760.00 267.34,755.04 382.31,754.44"
        fill="none"
        stroke="#e94560"
        stroke-width="8.0"
        stroke-linejoin="round"
        stroke-linecap="round"/>
  <!-- Start/finish line -->
  <line x1="382.26" y1="734.44" x2="382.36" y2="774.44"
        stroke="#f5f5f5" stroke-width="9.6"
        stroke-linecap="round"/>
</svg>
