<?xml version="1.0" encoding="utf-8"?>
<svg xmlns="http://www.w3.org/2000/svg"
     width="485.8" height="800.0"
     viewBox="0 0 485.8 800.0">
  <rect width="100%" height="100%" fill="#1a1a2e"/>
  <!-- Track outline -->
  <polyline points="443.64,315.26 443.59,311.96 426.71,189.09 418.08,162.31 409.21,142.13 400.69,127.94 391.76,114.65 380.36,100.73 362.80,85.69 342.70,71.91 321.05,59.05 298.02,48.86 273.20,42.53 247.87,40.00 223.63,41.62 199.90,47.03 176.06,56.66 153.55,69.59 132.99,85.41 114.57,103.83 98.16,126.25 85.55,147.55 78.00,164.98 51.11,261.35 41.15,347.53 40.00,489.09 47.37,539.07 62.86,589.54 80.94,632.63 99.88,664.40 123.49,693.93 151.36,718.81 163.97,727.81 178.08,735.96 202.61,747.49 229.79,756.42 256.45,760.00 282.93,759.16 307.64,753.46 330.96,743.69 352.43,729.77 371.15,713.89 382.89,701.59 393.14,687.95 406.85,665.11 417.73,642.89 420.78,634.74 423.03,625.67 437.31,528.74 445.83,409.38 443.64,315.26"
        fill="none"
        stroke="#e94560"
        stroke-width="8.0"
        stroke-linejoin="round"
        stroke-linecap="round"/>
  <!-- Start/finish line -->
  <line x1="423.65" y1="315.72" x2="463.64" y2="314.80"
        stroke="#f5f5f5" stroke-width="9.6"
        stroke-linecap="round"/>
</svg>
