<?xml version="1.0" encoding="utf-8"?>
<svg xmlns="http://www.w3.org/2000/svg"
     width="800.0" height="669.2"
     viewBox="0 0 800.0 669.2">
  <rect width="100%" height="100%" fill="#1a1a2e"/>
  <!-- Track outline -->
  <polyline points="349.95,51.88 389.08,58.54 422.92,66.47 457.58,75.73 503.69,90.16 577.34,115.72 618.82,130.22 628.71,134.81 639.19,140.67 651.34,148.85 661.39,157.01 668.72,164.35 673.96,171.26 678.15,178.59 681.92,187.40 685.27,198.28 758.88,542.57 759.66,548.46 760.00,555.66 759.66,563.21 757.99,571.09 755.30,578.63 750.78,586.50 746.26,592.36 740.73,597.06 689.71,626.05 684.68,627.89 679.49,628.90 674.46,629.23 668.60,628.56 663.41,627.05 658.54,624.37 654.86,621.19 651.84,616.66 649.33,609.62 624.55,526.02 623.83,520.14 623.37,512.50 623.67,506.98 624.79,500.45 626.84,492.05 629.50,484.29 642.12,453.07 646.05,443.07 649.55,433.48 653.42,421.31 655.82,409.70 657.85,396.79 659.14,382.16 660.43,367.22 660.43,350.63 659.15,333.47 654.15,265.10 652.85,256.54 650.43,246.34 645.74,235.19 640.56,225.64 634.57,216.75 626.49,207.36 618.40,200.24 609.66,195.07 600.77,191.51 592.03,189.08 517.80,176.64 508.94,175.94 496.87,176.14 484.58,178.32 472.51,181.88 460.44,187.23 449.35,194.15 443.03,200.08 437.39,206.92 433.37,216.99 431.97,227.45 433.17,237.11 437.19,246.35 469.49,292.14 490.99,317.94 526.31,348.65 536.31,359.27 544.59,369.66 550.74,381.12 553.92,393.00 554.98,405.30 554.77,418.03 553.07,432.68 547.55,444.98 539.06,456.65 529.73,464.29 518.27,471.37 419.27,507.29 410.81,508.98 402.34,508.98 394.63,507.67 387.85,504.28 379.39,498.25 372.61,490.92 367.91,482.08 365.08,471.16 364.52,461.94 365.65,451.40 366.58,424.50 367.15,401.63 366.57,384.80 363.67,366.27 359.34,348.03 334.72,270.73 329.22,249.02 309.20,148.52 306.34,139.18 302.15,132.01 296.78,124.85 287.83,116.69 277.48,110.13 263.35,103.95 248.02,98.78 232.89,94.01 217.37,91.62 196.95,91.62 175.85,93.01 160.53,95.59 152.16,98.18 146.20,101.18 140.82,105.55 137.04,110.72 134.65,117.49 134.05,124.45 134.65,132.62 136.84,141.37 143.41,150.93 151.37,157.89 164.90,164.45 216.66,181.18 222.62,183.76 229.39,187.74 234.77,192.11 238.95,198.09 245.31,209.63 300.52,352.99 302.51,360.28 303.83,369.13 304.50,381.28 304.06,394.53 301.18,411.34 293.89,432.99 285.71,449.79 272.27,471.79 259.67,487.49 243.76,503.62 225.20,516.89 209.28,523.52 195.58,527.05 183.42,528.82 173.70,528.60 162.43,526.61 150.50,521.30 139.84,512.92 130.57,502.52 124.59,491.70 120.40,477.78 119.51,463.41 120.17,450.59 125.03,434.24 132.77,419.66 140.85,408.06 153.58,392.94 204.93,341.20 209.24,334.52 212.65,323.78 213.95,313.82 213.70,303.61 211.60,292.09 208.45,283.44 203.74,276.90 196.40,269.56 79.28,187.50 71.47,179.86 64.74,171.15 59.47,160.97 54.38,146.98 40.33,79.25 40.00,73.89 40.54,69.17 42.16,65.11 45.13,60.26 50.13,55.26 56.07,51.21 64.30,47.56 73.62,44.72 85.37,42.02 97.39,40.54 109.81,40.00 121.71,40.04 229.12,42.33 269.99,43.58 305.03,46.09 331.51,49.00 349.95,51.88"
        fill="none"
        stroke="#e94560"
        stroke-width="8.0"
        stroke-linejoin="round"
        stroke-linecap="round"/>
  <!-- Start/finish line -->
  <line x1="353.22" y1="32.15" x2="346.68" y2="71.61"
        stroke="#f5f5f5" stroke-width="9.6"
        stroke-linecap="round"/>
</svg>
