<?xml version="1.0" encoding="utf-8"?>
<svg xmlns="http://www.w3.org/2000/svg"
     width="800.0" height="721.8"
     viewBox="0 0 800.0 721.8">
  <rect width="100%" height="100%" fill="#1a1a2e"/>
  <!-- Track outline -->
  <polyline points="164.92,366.53 97.24,414.55 64.93,447.13 56.68,458.34 48.12,473.71 44.52,481.53 41.76,489.53 40.39,497.54 40.00,505.48 40.36,512.61 41.60,519.55 43.81,526.38 46.87,532.96 50.72,539.21 55.17,545.13 59.98,550.93 65.37,556.19 71.69,560.50 78.48,564.10 92.06,569.29 98.06,571.07 105.33,572.43 166.56,573.31 196.88,570.35 212.57,566.21 268.85,541.48 283.98,536.52 290.96,535.23 297.96,534.80 305.53,535.44 312.83,537.28 317.08,539.21 321.05,541.69 324.65,544.71 328.10,548.64 331.11,553.20 333.53,557.94 335.67,564.76 336.95,572.49 338.82,602.24 341.65,618.91 345.55,634.10 348.85,642.14 352.55,649.14 356.20,655.45 360.40,661.37 365.92,667.47 372.12,672.82 378.42,676.84 385.17,679.74 390.01,681.03 395.03,681.79 399.98,681.73 404.95,680.73 409.83,678.92 414.23,676.44 417.86,673.21 421.01,669.32 423.86,665.21 427.63,658.87 431.02,651.56 440.65,622.63 472.13,481.08 496.20,374.26 507.72,329.14 513.29,314.13 520.33,300.33 529.69,287.13 541.12,275.50 547.21,270.58 553.69,266.44 560.44,263.48 567.49,261.34 574.79,259.83 582.27,259.16 590.32,259.59 598.35,260.92 606.02,262.91 613.41,265.75 627.10,274.42 662.23,301.17 677.03,310.17 684.13,313.71 691.38,316.42 698.82,317.96 706.41,318.45 714.63,317.66 722.59,315.76 729.25,313.22 735.25,309.72 738.92,306.55 742.25,302.89 745.10,298.85 748.25,292.66 750.72,284.32 756.87,240.59 760.00,191.00 758.93,167.51 756.08,147.18 748.25,117.52 736.69,91.49 727.31,76.42 716.02,63.83 710.04,58.03 703.04,52.71 689.78,46.10 675.80,41.33 667.09,40.00 658.87,40.12 650.96,41.54 643.22,43.87 627.85,50.24 621.28,53.62 613.59,58.85 521.50,149.48 468.41,199.16 438.23,221.23 386.31,252.37 177.22,360.03 164.92,366.53"
        fill="none"
        stroke="#e94560"
        stroke-width="8.0"
        stroke-linejoin="round"
        stroke-linecap="round"/>
  <!-- Start/finish line -->
  <line x1="176.18" y1="383.05" x2="153.66" y2="350.00"
        stroke="#f5f5f5" stroke-width="9.6"
        stroke-linecap="round"/>
</svg>
