<?xml version="1.0" encoding="utf-8"?>
<svg xmlns="http://www.w3.org/2000/svg"
     width="453.9" height="800.0"
     viewBox="0 0 453.9 800.0">
  <rect width="100%" height="100%" fill="#1a1a2e"/>
  <!-- Track outline -->
  <polyline points="87.52,456.25 127.60,619.46 140.19,656.90 152.46,684.43 159.82,695.25 167.77,704.24 179.44,716.78 192.08,728.23 203.20,735.84 214.46,742.08 236.66,751.70 249.99,755.94 263.68,758.91 276.69,760.00 289.38,759.71 299.90,758.68 310.79,756.28 329.54,749.41 347.97,740.48 359.19,733.27 368.66,725.54 375.27,718.90 381.07,711.63 386.58,702.98 391.68,692.79 404.46,655.07 411.31,617.97 413.88,490.25 408.23,431.69 369.62,266.47 341.54,196.69 313.14,140.93 289.70,109.21 266.12,84.60 241.81,66.96 213.27,51.91 198.47,46.47 183.95,42.58 172.13,40.57 160.74,40.00 150.39,40.80 139.46,42.98 119.97,48.76 100.90,56.60 90.51,63.07 81.36,70.46 72.03,78.87 63.53,88.55 55.90,100.40 49.70,113.96 45.29,130.11 42.48,149.00 40.00,187.58 40.32,225.31 45.33,253.88 78.93,421.15 87.52,456.25"
        fill="none"
        stroke="#e94560"
        stroke-width="8.0"
        stroke-linejoin="round"
        stroke-linecap="round"/>
  <!-- Start/finish line -->
  <line x1="106.95" y1="451.48" x2="68.10" y2="461.01"
        stroke="#f5f5f5" stroke-width="9.6"
        stroke-linecap="round"/>
</svg>
