<?xml version="1.0" encoding="utf-8"?>
<svg xmlns="http://www.w3.org/2000/svg"
     width="434.2" height="800.0"
     viewBox="0 0 434.2 800.0">
  <rect width="100%" height="100%" fill="#1a1a2e"/>
  <!-- Track outline -->
  <polyline points="44.59,429.90 40.00,611.77 42.03,650.44 43.17,657.46 44.97,663.99 49.89,676.63 56.42,689.62 64.40,701.25 72.52,711.17 82.27,721.04 99.42,733.21 117.45,744.27 131.16,750.53 147.98,755.67 167.84,759.46 193.15,760.00 218.54,758.00 256.25,750.65 270.58,745.13 293.21,732.54 316.11,715.00 339.69,691.55 351.11,676.78 359.75,661.44 367.26,644.40 373.53,624.58 378.09,604.30 380.46,583.00 394.23,309.22 392.51,233.95 383.68,156.24 379.16,140.56 366.48,113.05 360.46,103.03 352.57,93.16 339.73,78.91 328.28,69.31 314.33,60.90 281.49,46.98 263.33,42.03 246.23,40.00 215.30,40.64 196.67,43.91 180.27,48.78 148.62,62.98 135.67,71.12 91.24,109.24 80.95,120.77 73.05,131.60 65.50,146.52 59.93,160.42 55.21,176.08 51.85,209.16 44.68,426.63 44.59,429.90"
        fill="none"
        stroke="#e94560"
        stroke-width="8.0"
        stroke-linejoin="round"
        stroke-linecap="round"/>
  <!-- Start/finish line -->
  <line x1="64.59" y1="430.40" x2="24.60" y2="429.39"
        stroke="#f5f5f5" stroke-width="9.6"
        stroke-linecap="round"/>
</svg>
