<?xml version="1.0" encoding="utf-8"?>
<svg xmlns="http://www.w3.org/2000/svg"
     width="800.0" height="621.9"
     viewBox="0 0 800.0 621.9">
  <rect width="100%" height="100%" fill="#1a1a2e"/>
  <!-- Track outline -->
  <polyline points="467.50,59.87 512.86,65.74 558.23,78.35 596.89,94.54 627.25,113.19 654.48,135.60 682.28,164.32 707.12,196.71 728.37,231.73 744.90,269.12 755.53,308.08 760.00,348.17 757.20,389.32 748.18,430.99 731.24,480.63 715.75,513.38 697.14,543.49 686.04,556.36 674.13,567.22 661.91,575.19 654.00,578.60 645.78,580.88 637.71,581.93 630.20,581.40 624.85,579.83 619.66,577.29 614.71,573.96 610.31,570.02 606.64,565.73 602.80,559.08 600.01,551.37 598.33,543.06 597.69,534.56 599.37,520.82 603.68,506.20 609.35,490.61 626.77,453.84 642.26,420.05 644.74,408.84 645.54,397.99 645.38,376.36 643.30,352.90 639.63,331.89 633.64,310.26 620.54,276.91 606.00,246.88 592.18,226.57 584.83,217.46 575.81,208.36 555.92,192.07 531.16,176.23 493.69,160.91 458.07,150.75 445.45,148.56 432.35,148.30 386.26,152.85 338.10,161.87 318.05,168.61 299.04,177.63 262.61,196.71 226.75,220.88 201.99,246.00 182.98,272.71 175.39,286.89 169.72,301.16 166.76,315.60 166.60,326.99 167.96,338.63 170.76,350.01 174.75,360.08 179.46,368.05 185.29,375.14 192.00,381.53 199.67,387.13 213.81,394.40 230.10,399.83 246.48,402.89 262.05,403.42 277.63,401.67 292.97,397.55 310.14,389.06 326.99,377.76 340.73,366.56 349.52,357.63 357.43,346.68 372.36,318.49 389.94,282.95 408.31,257.30 416.29,251.96 424.44,248.72 432.67,246.88 440.98,246.09 449.52,246.18 458.23,247.40 466.70,249.68 474.12,253.01 481.79,258.70 488.26,265.88 493.69,273.41 498.89,283.12 502.64,293.80 506.47,307.90 509.19,324.53 511.35,360.25 510.87,396.76 509.03,415.94 505.44,433.18 499.61,450.69 491.78,467.06 482.27,481.16 470.93,493.59 458.07,504.01 443.77,512.41 427.40,518.72 411.50,522.83 402.40,524.41 392.73,524.85 346.24,520.47 292.33,510.49 124.67,480.55 105.82,472.67 91.52,463.65 78.50,452.88 67.16,440.45 57.41,426.27 49.66,410.68 44.07,391.86 40.88,373.56 40.00,363.14 40.40,352.29 50.94,298.27 88.32,183.06 116.84,132.54 139.21,101.63 150.63,89.99 162.77,79.57 189.21,61.80 202.87,54.97 217.08,49.46 232.02,44.99 248.00,41.84 290.01,40.00 338.26,43.24 467.50,59.87"
        fill="none"
        stroke="#e94560"
        stroke-width="8.0"
        stroke-linejoin="round"
        stroke-linecap="round"/>
  <!-- Start/finish line -->
  <line x1="470.05" y1="40.04" x2="464.94" y2="79.71"
        stroke="#f5f5f5" stroke-width="9.6"
        stroke-linecap="round"/>
</svg>
