<?xml version="1.0" encoding="utf-8"?>
<svg xmlns="http://www.w3.org/2000/svg"
     width="566.3" height="800.0"
     viewBox="0 0 566.3 800.0">
  <rect width="100%" height="100%" fill="#1a1a2e"/>
  <!-- Track outline -->
  <polyline points="83.29,379.54 52.98,488.15 40.75,554.50 40.00,574.16 44.61,613.82 49.88,634.26 57.44,654.92 67.44,672.98 79.95,691.49 96.09,708.88 119.47,727.72 144.77,742.24 171.68,751.85 193.50,756.91 216.62,760.00 238.61,759.48 258.69,756.98 280.48,751.47 325.76,733.45 345.87,722.43 365.14,707.91 383.19,689.89 403.99,661.89 423.08,631.65 434.61,603.80 443.54,572.45 520.14,285.97 524.78,259.83 526.28,238.27 525.13,212.66 520.78,187.52 512.70,164.33 501.54,142.47 485.08,118.83 468.31,99.17 452.64,85.20 415.23,60.14 395.53,51.69 376.90,45.47 354.42,41.97 330.48,40.00 310.58,41.56 291.34,44.32 269.90,49.61 242.75,61.63 218.59,75.41 209.49,81.85 201.44,89.07 188.72,101.96 175.62,118.19 159.25,144.67 144.62,173.78 127.79,222.97 84.44,375.37 83.29,379.54"
        fill="none"
        stroke="#e94560"
        stroke-width="8.0"
        stroke-linejoin="round"
        stroke-linecap="round"/>
  <!-- Start/finish line -->
  <line x1="102.55" y1="384.91" x2="64.02" y2="374.17"
        stroke="#f5f5f5" stroke-width="9.6"
        stroke-linecap="round"/>
</svg>
