<?xml version="1.0" encoding="utf-8"?>
<svg xmlns="http://www.w3.org/2000/svg"
     width="800.0" height="655.6"
     viewBox="0 0 800.0 655.6">
  <rect width="100%" height="100%" fill="#1a1a2e"/>
  <!-- Track outline -->
  <polyline points="321.69,486.10 344.95,501.36 378.19,523.74 415.86,548.76 461.08,575.56 503.44,599.14 542.52,613.26 578.29,615.60 613.58,613.71 643.73,605.70 674.80,589.69 700.22,570.39 724.23,544.98 743.99,513.90 755.78,481.42 760.00,444.72 757.19,413.19 743.42,377.93 722.22,347.34 693.08,316.76 654.94,287.02 613.76,256.98 572.59,229.18 515.84,193.22 467.46,161.84 421.06,132.30 374.26,104.60 332.40,79.98 286.61,57.80 243.20,43.33 209.27,40.00 179.75,40.55 153.28,46.71 129.88,57.80 107.71,73.17 88.64,90.43 69.56,111.96 54.17,137.82 46.78,164.28 40.61,196.31 40.00,227.09 44.29,255.39 56.01,282.49 74.47,307.71 107.10,340.98 151.41,374.20 321.69,486.10"
        fill="none"
        stroke="#e94560"
        stroke-width="8.0"
        stroke-linejoin="round"
        stroke-linecap="round"/>
  <!-- Start/finish line -->
  <line x1="332.67" y1="469.38" x2="310.71" y2="502.81"
        stroke="#f5f5f5" stroke-width="9.6"
        stroke-linecap="round"/>
</svg>
