<?xml version="1.0" encoding="utf-8"?>
<svg xmlns="http://www.w3.org/2000/svg"
     width="800.0" height="715.0"
     viewBox="0 0 800.0 715.0">
  <rect width="100%" height="100%" fill="#1a1a2e"/>
  <!-- Track outline -->
  <polyline points="300.36,447.48 309.20,454.10 451.20,582.55 486.17,607.57 520.23,628.71 555.36,645.90 588.05,660.65 611.48,669.40 626.67,673.13 640.01,674.95 651.50,674.49 664.85,673.13 676.69,670.24 688.96,665.52 700.28,659.66 714.53,649.40 726.92,637.00 737.91,622.32 746.74,605.97 753.26,587.11 757.51,567.57 760.00,531.75 757.60,494.63 741.81,422.00 727.44,386.18 707.23,351.66 681.41,319.87 524.05,179.17 407.74,83.73 373.98,62.82 358.11,54.22 341.72,47.15 329.62,43.35 317.05,40.61 304.78,40.00 295.99,41.29 287.19,43.88 278.78,47.53 271.15,52.02 261.92,59.70 253.82,69.13 247.55,79.55 243.22,91.49 240.82,104.49 240.35,117.19 241.80,128.83 245.02,140.16 249.53,151.11 259.05,167.31 271.28,182.22 286.89,196.21 304.05,208.45 337.13,226.48 414.35,257.96 479.26,294.16 574.67,366.41 603.33,391.81 615.81,404.28 626.84,417.90 633.53,428.85 639.23,440.71 643.14,452.73 645.03,464.36 645.24,476.23 643.31,487.71 640.01,496.84 635.25,505.96 629.28,514.48 622.46,521.63 614.40,527.41 605.17,532.13 595.35,535.70 585.61,537.83 573.13,538.36 560.43,536.77 548.11,533.65 529.92,525.74 513.11,515.01 499.85,503.84 486.21,489.01 448.71,437.29 409.89,385.12 392.77,368.77 376.21,356.30 339.36,335.00 265.87,301.92 233.18,283.59 173.46,235.38 157.50,223.66 141.80,214.92 129.10,210.43 115.68,207.31 102.46,206.55 93.07,207.62 83.63,209.90 74.66,213.32 66.51,217.96 58.79,224.12 51.54,231.72 45.58,240.17 41.59,248.84 40.00,257.51 40.13,266.71 41.59,275.99 43.99,284.96 49.27,297.13 56.69,308.84 65.27,319.41 78.52,331.35 96.37,342.84 243.05,410.67 281.23,433.11 300.36,447.48"
        fill="none"
        stroke="#e94560"
        stroke-width="8.0"
        stroke-linejoin="round"
        stroke-linecap="round"/>
  <!-- Start/finish line -->
  <line x1="312.37" y1="431.48" x2="288.36" y2="463.48"
        stroke="#f5f5f5" stroke-width="9.6"
        stroke-linecap="round"/>
</svg>
