<?xml version="1.0" encoding="utf-8"?>
<svg xmlns="http://www.w3.org/2000/svg"
     width="800.0" height="639.8"
     viewBox="0 0 800.0 639.8">
  <rect width="100%" height="100%" fill="#1a1a2e"/>
  <!-- Track outline -->
  <polyline points="455.87,336.45 479.11,330.47 506.62,319.40 518.57,312.06 529.14,303.23 535.11,296.77 540.43,289.55 544.29,282.04 547.13,274.14 549.06,265.95 550.05,257.56 550.12,249.48 549.10,240.12 542.31,212.15 535.20,181.92 533.51,148.63 534.14,132.19 536.35,116.78 539.85,102.34 545.22,89.25 551.96,77.19 560.34,66.45 566.36,60.11 573.05,54.18 579.98,49.45 587.32,45.61 594.87,42.79 602.66,40.91 610.57,40.00 618.53,40.09 626.58,41.29 634.47,43.52 642.21,46.78 649.46,51.12 656.02,56.76 662.16,63.78 677.82,88.93 748.24,225.30 753.78,238.21 758.85,254.47 759.97,262.28 760.00,269.91 759.33,274.40 758.15,278.72 756.36,282.92 753.53,287.61 749.95,292.13 745.87,295.98 741.42,299.00 736.48,301.38 731.41,302.88 726.24,303.40 720.92,303.05 715.79,302.00 710.81,300.12 706.03,297.45 701.80,294.36 698.56,291.16 695.80,287.58 693.39,283.74 690.69,277.72 688.06,269.94 664.99,194.95 657.80,179.04 653.81,172.20 649.28,166.01 646.11,162.52 642.68,159.37 638.81,156.79 633.90,154.62 628.48,153.06 623.12,152.45 619.33,152.62 615.52,153.30 611.85,154.38 608.48,155.94 604.46,158.73 600.87,162.31 597.88,166.33 595.39,171.12 593.56,176.43 592.45,181.71 592.27,188.70 593.28,195.68 595.06,202.38 598.30,210.45 642.28,292.37 649.06,307.54 653.97,322.66 656.09,337.45 655.82,352.30 654.75,359.85 653.01,367.30 650.58,374.47 647.49,381.36 643.74,387.88 639.38,393.98 634.43,399.62 628.95,404.79 616.26,413.71 601.91,420.81 494.65,467.16 487.43,469.42 481.48,470.56 473.29,471.39 465.02,471.18 457.54,469.71 450.54,467.07 446.31,464.63 442.36,461.70 438.77,458.32 434.06,452.22 430.06,445.41 423.30,430.15 419.28,422.49 414.55,415.38 408.86,409.48 402.37,404.58 395.09,400.79 387.26,398.24 378.76,397.21 370.34,397.39 363.89,398.30 357.10,399.97 329.63,409.42 322.73,412.83 316.72,416.53 310.99,420.81 305.74,425.54 301.18,430.53 297.01,436.05 292.34,443.33 288.64,451.16 287.24,456.27 286.46,461.49 286.30,466.66 287.13,473.62 289.32,480.95 296.45,494.19 303.32,507.46 304.92,514.83 305.18,521.72 304.49,528.74 302.79,535.61 300.12,542.39 296.42,548.61 293.70,551.96 290.51,554.92 285.88,558.18 244.01,577.14 199.80,593.64 183.14,597.95 165.75,599.83 148.53,599.30 132.16,595.98 116.68,590.08 109.45,586.39 102.68,582.10 96.79,577.20 91.51,571.77 87.00,565.99 83.07,559.79 79.63,553.16 76.84,546.17 74.87,539.39 73.52,531.03 73.01,461.79 77.26,278.78 75.10,258.91 50.08,181.98 42.41,151.92 40.56,138.51 40.00,121.86 41.72,107.80 43.57,100.88 46.10,94.21 49.24,88.17 53.18,82.50 58.57,76.63 64.80,71.49 71.60,67.71 78.90,64.83 94.61,61.34 110.22,59.64 117.56,59.34 124.75,59.67 131.63,60.75 138.17,62.95 142.47,65.51 146.54,68.76 150.04,72.40 153.67,77.92 156.76,85.11 171.37,139.56 176.32,168.56 178.34,198.35 177.56,212.88 174.96,228.35 170.26,244.38 152.10,288.20 146.44,305.61 137.58,334.61 136.24,341.91 135.68,348.64 135.61,355.56 136.21,362.40 137.58,369.09 139.81,375.70 143.36,382.83 147.94,389.49 153.45,395.16 159.80,399.88 167.18,403.64 174.92,406.28 181.76,407.52 188.64,407.87 194.96,407.57 203.42,406.14 413.32,347.43 455.87,336.45"
        fill="none"
        stroke="#e94560"
        stroke-width="8.0"
        stroke-linejoin="round"
        stroke-linecap="round"/>
  <!-- Start/finish line -->
  <line x1="450.88" y1="317.09" x2="460.87" y2="355.82"
        stroke="#f5f5f5" stroke-width="9.6"
        stroke-linecap="round"/>
</svg>
