<?xml version="1.0" encoding="utf-8"?>
<svg xmlns="http://www.w3.org/2000/svg"
     width="787.7" height="800.0"
     viewBox="0 0 787.7 800.0">
  <rect width="100%" height="100%" fill="#1a1a2e"/>
  <!-- Track outline -->
  <polyline points="512.29,652.25 492.58,684.97 485.77,695.68 480.04,703.01 473.15,709.99 461.77,718.79 394.14,752.60 383.35,756.58 373.32,758.99 363.89,760.00 351.51,759.32 338.06,756.96 324.66,753.24 313.33,749.18 300.73,743.77 289.67,738.10 276.03,729.61 255.68,715.82 62.63,560.69 55.40,554.75 49.68,548.74 44.84,541.53 41.50,532.77 40.00,523.53 40.02,511.62 41.57,497.12 44.35,483.52 47.75,471.08 53.32,456.13 61.13,437.61 104.87,344.43 127.41,296.76 153.26,241.38 238.78,56.49 242.78,50.07 248.41,44.17 255.73,40.75 264.36,40.00 274.15,40.60 283.45,44.10 292.29,50.48 301.46,60.85 330.39,102.74 335.32,111.83 339.47,121.11 342.39,133.02 345.35,146.32 345.79,157.82 344.40,169.39 341.32,179.12 337.21,187.50 331.09,196.37 323.50,204.18 315.01,211.36 305.31,217.11 297.64,219.29 289.25,220.15 281.29,219.70 271.79,218.65 262.04,217.97 253.34,218.87 244.06,222.14 235.49,227.89 229.19,234.69 222.67,244.08 206.16,276.24 195.54,302.54 188.40,326.66 184.27,349.36 179.78,383.92 174.65,412.17 168.87,436.44 165.31,448.05 161.00,458.20 156.53,465.22 151.05,472.44 143.67,478.86 134.82,486.94 128.07,495.02 123.72,502.76 121.54,509.93 121.62,516.92 123.70,523.23 127.32,529.47 133.14,535.18 194.37,580.86 213.83,594.01 243.22,610.09 262.80,616.41 274.24,617.68 283.50,616.82 289.73,614.53 295.63,611.22 301.09,606.26 305.68,600.66 309.86,594.50 312.82,588.57 315.05,580.98 316.18,573.43 315.92,565.95 313.77,558.43 309.99,552.46 303.58,546.75 296.52,541.94 287.54,536.79 272.03,529.09 262.18,524.06 252.26,518.35 243.28,511.32 237.96,505.57 232.68,497.19 230.36,489.57 229.76,478.03 232.06,465.15 257.05,364.05 259.28,358.94 262.66,353.45 267.30,348.87 274.66,344.47 284.50,341.58 295.76,341.65 307.45,343.31 319.36,347.40 330.41,352.47 342.08,359.09 354.34,368.48 363.98,379.34 369.63,389.52 373.17,399.81 373.98,408.45 377.05,564.07 379.22,574.03 384.50,582.33 392.48,590.07 401.27,595.74 412.65,600.10 423.44,600.81 435.61,598.30 444.82,592.66 452.85,585.56 459.32,577.97 464.20,569.86 467.01,560.61 468.13,550.13 466.10,532.81 440.10,360.78 440.56,335.45 443.78,318.47 448.27,305.13 454.64,293.56 469.62,269.56 487.94,242.54 516.00,209.18 524.63,201.59 534.78,196.29 545.39,192.54 558.68,191.07 570.07,192.20 580.36,194.90 588.10,198.92 596.62,206.25 602.15,214.97 606.33,226.69 615.65,252.69 624.42,267.30 633.06,278.27 642.01,285.52 652.60,291.61 666.45,296.49 724.70,313.66 734.53,318.02 741.71,323.32 746.42,329.89 747.68,339.06 746.08,348.94 742.39,357.32 735.59,367.80 729.09,375.73 719.39,383.73 709.54,388.05 699.53,389.89 689.61,389.44 677.98,386.96 665.23,381.67 649.39,373.02 580.43,331.88 571.85,328.65 561.21,326.17 552.12,325.84 543.24,328.05 536.10,332.22 529.87,338.46 525.63,345.75 523.27,354.77 523.46,362.17 526.12,369.94 531.77,378.89 606.32,459.32 611.36,468.15 613.57,479.42 612.64,489.83 607.78,503.24 599.92,517.97 589.24,535.14 512.29,652.25"
        fill="none"
        stroke="#e94560"
        stroke-width="8.0"
        stroke-linejoin="round"
        stroke-linecap="round"/>
  <!-- Start/finish line -->
  <line x1="529.10" y1="663.09" x2="495.49" y2="641.41"
        stroke="#f5f5f5" stroke-width="9.6"
        stroke-linecap="round"/>
</svg>
