<?xml version="1.0" encoding="utf-8"?>
<svg xmlns="http://www.w3.org/2000/svg"
     width="800.0" height="640.9"
     viewBox="0 0 800.0 640.9">
  <rect width="100%" height="100%" fill="#1a1a2e"/>
  <!-- Track outline -->
  <polyline points="356.49,397.51 351.46,381.60 339.64,346.59 334.46,336.07 329.12,327.35 322.32,319.96 315.31,314.70 307.15,310.11 298.58,306.78 290.29,305.45 283.92,306.05 277.37,307.78 270.91,310.58 264.96,314.11 259.81,318.23 254.17,324.96 249.51,333.14 245.91,342.06 243.57,350.85 242.71,361.90 243.78,373.15 245.76,384.46 250.33,402.63 256.80,420.74 274.81,456.68 315.92,512.06 323.54,523.11 330.07,533.43 333.85,544.08 334.49,550.94 334.15,558.26 332.90,565.51 330.80,572.37 327.84,578.36 323.91,583.55 318.94,588.34 313.24,592.54 307.15,595.93 300.93,598.46 292.33,600.33 283.01,600.86 273.65,600.13 265.02,598.20 255.39,593.94 246.52,587.75 238.29,580.49 226.32,566.38 216.08,550.80 201.75,522.98 155.61,385.13 135.40,349.85 62.43,257.13 53.29,243.22 47.07,230.44 43.35,219.85 40.67,208.67 40.00,197.75 41.86,187.24 45.67,176.92 50.88,167.47 57.62,158.68 65.82,150.76 74.93,144.30 82.43,140.44 90.56,137.38 98.95,135.32 107.24,134.59 115.65,135.32 124.24,137.45 132.50,140.64 139.94,144.90 148.44,152.96 155.73,162.94 162.46,172.93 170.54,186.37 178.95,199.09 189.99,210.20 202.51,219.59 211.44,224.84 220.89,229.17 230.74,232.17 241.50,233.50 252.71,233.30 263.81,232.03 280.20,227.84 296.33,221.72 328.48,205.08 494.01,87.99 532.38,66.96 571.49,50.78 608.34,42.33 641.83,40.00 661.19,41.33 680.27,44.46 696.18,48.39 711.05,54.51 721.38,61.23 731.14,69.49 739.34,78.61 747.38,92.98 752.96,108.56 757.13,124.53 759.45,140.71 760.00,156.48 758.29,171.86 755.58,181.65 751.71,191.10 746.53,200.08 739.15,209.87 730.22,219.12 720.16,226.11 711.78,229.44 702.61,231.57 693.19,232.37 684.17,231.83 667.56,225.98 650.76,216.26 602.18,183.04 583.92,177.78 565.15,175.19 554.12,175.72 543.30,177.59 532.84,180.78 517.39,188.50 502.94,198.89 488.59,212.66 476.12,228.04 467.50,241.82 460.64,256.20 454.91,271.51 451.07,287.41 449.85,304.05 450.82,320.76 453.54,337.40 458.56,353.24 463.35,362.83 469.26,371.88 476.15,380.00 484.26,387.12 493.34,393.25 502.94,398.37 518.09,403.97 533.91,407.09 550.03,406.96 566.37,405.03 600.63,398.84 617.51,398.37 634.37,400.30 646.62,403.63 658.84,408.36 669.90,414.62 679.48,422.27 687.95,431.32 694.78,441.31 699.80,452.42 703.19,464.54 704.77,476.78 704.62,489.23 702.64,501.88 698.65,513.66 691.94,524.84 683.10,535.16 673.62,543.81 660.64,552.20 646.65,558.26 631.17,562.98 614.92,565.91 597.67,566.91 580.05,566.25 543.48,560.52 506.87,549.94 470.36,533.96 435.49,513.79 419.61,500.95 405.11,486.44 392.30,470.46 381.00,453.35 362.98,417.94 356.49,397.51"
        fill="none"
        stroke="#e94560"
        stroke-width="8.0"
        stroke-linejoin="round"
        stroke-linecap="round"/>
  <!-- Start/finish line -->
  <line x1="337.43" y1="403.55" x2="375.56" y2="391.47"
        stroke="#f5f5f5" stroke-width="9.6"
        stroke-linecap="round"/>
</svg>
