<?xml version="1.0" encoding="utf-8"?>
<svg xmlns="http://www.w3.org/2000/svg"
     width="800.0" height="385.0"
     viewBox="0 0 800.0 385.0">
  <rect width="100%" height="100%" fill="#1a1a2e"/>
  <!-- Track outline -->
  <polyline points="381.18,345.01 571.90,344.15 615.30,341.22 651.84,334.94 680.83,323.61 702.70,312.13 707.06,309.47 711.01,306.22 724.95,292.62 739.53,274.53 749.66,255.73 756.74,234.98 760.00,211.79 759.53,187.79 754.79,162.82 746.27,138.98 733.81,117.20 718.34,98.29 700.41,82.96 680.57,70.50 658.45,59.50 634.93,51.43 611.15,47.21 580.13,45.31 364.57,40.00 153.37,46.93 127.52,53.65 108.70,62.81 90.82,74.08 75.39,87.40 65.47,99.38 57.33,113.73 47.50,139.09 41.10,167.64 40.00,186.38 41.02,205.40 44.24,223.50 53.65,248.04 67.08,270.47 85.26,292.79 105.69,311.80 125.87,325.24 144.30,334.61 151.72,337.64 159.48,339.59 206.56,343.60 377.66,345.01 381.18,345.01"
        fill="none"
        stroke="#e94560"
        stroke-width="8.0"
        stroke-linejoin="round"
        stroke-linecap="round"/>
  <!-- Start/finish line -->
  <line x1="381.09" y1="325.01" x2="381.27" y2="365.01"
        stroke="#f5f5f5" stroke-width="9.6"
        stroke-linecap="round"/>
</svg>
