<?xml version="1.0" encoding="utf-8"?>
<svg xmlns="http://www.w3.org/2000/svg"
     width="790.2" height="800.0"
     viewBox="0 0 790.2 800.0">
  <rect width="100%" height="100%" fill="#1a1a2e"/>
  <!-- Track outline -->
  <polyline points="605.38,245.01 519.60,111.83 506.06,93.50 496.46,81.58 482.57,66.32 469.03,54.34 455.29,45.70 445.90,42.10 438.76,40.46 432.41,40.00 426.22,41.64 418.12,45.50 408.28,51.07 395.54,60.04 251.34,180.39 237.00,192.11 228.86,197.80 218.02,205.20 205.53,211.88 192.14,216.14 177.50,219.41 161.31,221.96 143.17,224.78 130.48,226.61 115.79,231.46 101.45,237.74 91.01,243.18 79.27,249.99 69.18,256.93 62.33,261.84 55.69,267.08 48.49,273.30 43.85,279.06 40.70,287.18 40.00,296.61 41.00,316.65 61.98,434.77 66.78,448.85 71.58,459.19 77.22,467.31 85.37,475.04 94.41,478.84 108.20,481.39 120.74,481.98 134.38,481.72 148.02,479.88 162.51,474.51 173.50,467.84 180.30,461.29 185.69,453.10 189.64,443.48 191.74,434.44 200.03,369.29 202.68,359.67 207.68,349.45 213.37,341.86 221.47,333.21 230.36,327.19 240.40,323.06 253.24,320.51 266.83,319.99 283.22,319.66 295.96,319.13 306.05,318.54 313.60,317.37 321.79,314.42 328.69,311.47 335.08,307.09 342.03,301.39 349.62,294.06 356.67,285.74 364.01,273.76 398.79,205.40 402.18,198.20 406.78,192.30 413.13,187.06 418.67,184.12 424.92,182.81 430.81,183.59 436.56,185.69 442.75,190.93 447.90,196.76 453.25,203.50 459.94,212.67 508.95,287.90 584.05,405.83 591.84,419.91 596.74,430.51 600.34,442.43 601.14,453.43 599.29,462.73 596.44,470.52 591.24,477.00 584.80,481.59 577.75,484.34 568.86,486.63 559.22,486.10 549.87,481.59 541.98,475.04 467.68,403.08 460.79,396.46 453.55,390.05 446.35,384.61 440.50,382.26 434.61,381.54 428.96,383.96 422.27,388.15 397.09,404.85 389.19,409.76 379.65,414.60 369.41,418.27 356.87,421.67 343.53,425.60 332.58,429.73 324.44,433.13 318.20,437.06 313.70,442.04 310.15,448.52 303.06,463.25 283.42,503.46 276.33,515.57 265.33,529.39 252.14,541.37 232.11,559.83 211.42,580.92 197.33,595.13 192.04,600.56 189.09,607.30 189.29,616.47 190.24,629.50 194.04,651.76 200.13,673.18 208.93,697.27 221.87,723.86 229.16,736.10 237.85,745.07 249.40,751.88 262.69,756.66 278.37,760.00 293.86,758.56 309.35,755.42 328.59,747.76 350.57,736.56 417.72,696.16 427.56,687.52 434.26,677.56 434.96,669.38 433.66,661.13 428.76,653.14 420.82,647.70 411.78,643.64 383.05,629.76 374.15,621.71 367.81,614.64 363.81,606.13 361.81,597.68 361.76,589.30 366.01,577.51 371.81,566.12 381.65,552.30 390.59,543.86 399.93,536.85 411.43,531.42 422.67,530.11 430.96,532.40 444.00,538.62 547.83,593.16 555.72,595.65 564.31,596.63 575.21,596.70 586.70,595.85 600.49,593.03 613.03,589.30 625.12,584.91 695.12,551.06 709.41,543.33 726.64,533.12 734.74,526.90 741.43,519.30 747.08,510.07 749.58,502.21 750.23,494.94 750.23,484.73 747.43,472.75 740.53,458.67 730.44,441.45 605.38,245.01"
        fill="none"
        stroke="#e94560"
        stroke-width="8.0"
        stroke-linejoin="round"
        stroke-linecap="round"/>
  <!-- Start/finish line -->
  <line x1="588.54" y1="255.79" x2="622.23" y2="234.24"
        stroke="#f5f5f5" stroke-width="9.6"
        stroke-linecap="round"/>
</svg>
