<?xml version="1.0" encoding="utf-8"?>
<svg xmlns="http://www.w3.org/2000/svg"
     width="559.1" height="800.0"
     viewBox="0 0 559.1 800.0">
  <rect width="100%" height="100%" fill="#1a1a2e"/>
  <!-- Track outline -->
  <polyline points="100.97,488.28 151.86,614.36 187.31,680.18 206.43,701.97 226.53,720.27 248.31,734.98 270.07,746.19 296.41,755.00 314.99,758.31 334.72,760.00 355.01,759.92 375.68,757.60 398.51,752.05 421.21,743.48 444.04,730.89 464.65,716.25 477.75,704.18 488.37,692.37 498.99,677.70 507.07,662.08 513.70,645.99 515.73,638.36 516.90,630.34 519.09,589.50 517.09,565.42 502.73,499.33 402.98,210.97 379.26,158.53 355.64,117.58 341.66,99.40 325.49,81.90 308.37,69.39 289.79,58.25 271.27,49.91 249.90,43.15 221.55,40.04 195.74,40.00 178.12,42.36 158.93,46.92 138.48,53.77 121.65,62.54 106.46,72.46 95.74,80.48 86.39,88.98 79.19,97.32 72.98,105.97 63.72,121.91 53.82,143.31 48.66,163.57 40.00,228.52 40.13,260.66 43.61,294.41 69.27,394.45 99.42,484.38 100.97,488.28"
        fill="none"
        stroke="#e94560"
        stroke-width="8.0"
        stroke-linejoin="round"
        stroke-linecap="round"/>
  <!-- Start/finish line -->
  <line x1="119.52" y1="480.80" x2="82.43" y2="495.76"
        stroke="#f5f5f5" stroke-width="9.6"
        stroke-linecap="round"/>
</svg>
