<?xml version="1.0" encoding="utf-8"?>
<svg xmlns="http://www.w3.org/2000/svg"
     width="800.0" height="285.2"
     viewBox="0 0 800.0 285.2">
  <rect width="100%" height="100%" fill="#1a1a2e"/>
  <!-- Track outline -->
  <polyline points="413.47,97.83 407.86,96.89 360.81,87.29 154.55,41.12 138.51,40.00 133.39,40.51 123.67,42.99 119.14,44.92 105.93,51.72 101.32,53.42 96.50,54.55 91.55,55.18 86.55,55.19 81.55,54.67 76.66,53.65 56.26,47.07 53.89,46.59 51.94,46.42 50.07,46.44 48.24,46.72 46.91,47.08 45.59,47.57 44.39,48.23 43.33,49.04 42.39,50.01 41.60,51.08 40.96,52.26 40.48,53.55 40.16,54.88 40.00,56.27 40.02,57.72 40.18,59.09 40.71,60.85 41.51,62.50 42.53,64.09 43.76,65.57 45.22,66.98 46.86,68.23 48.50,69.25 50.73,70.19 80.40,75.92 130.47,83.10 149.39,82.90 176.33,79.01 197.36,76.17 204.58,75.66 211.90,75.47 219.27,75.77 226.66,76.53 234.01,77.82 241.24,79.59 248.20,81.93 254.86,84.66 281.01,96.27 309.38,102.53 352.35,109.34 357.01,110.51 361.34,112.02 365.41,113.91 369.25,116.32 372.62,119.17 375.44,122.36 377.73,125.98 379.65,129.82 381.04,133.95 381.78,138.35 383.62,152.55 384.87,157.11 386.67,161.42 389.03,165.50 391.96,169.42 395.41,173.09 403.52,179.27 408.17,181.66 418.08,184.90 483.21,197.52 689.76,243.62 708.29,245.17 719.25,244.24 724.46,243.03 729.42,241.33 734.17,239.09 738.60,236.34 742.64,233.16 749.72,225.58 752.70,221.40 757.27,212.48 758.77,207.86 759.74,203.18 760.00,198.40 759.55,193.56 758.66,189.00 757.13,184.52 754.94,180.30 752.38,176.35 749.26,172.78 741.87,166.45 737.64,163.73 733.01,161.45 717.57,157.22 682.84,152.42 598.08,133.57 463.08,107.66 413.47,97.83"
        fill="none"
        stroke="#e94560"
        stroke-width="8.0"
        stroke-linejoin="round"
        stroke-linecap="round"/>
  <!-- Start/finish line -->
  <line x1="409.64" y1="117.46" x2="417.30" y2="78.20"
        stroke="#f5f5f5" stroke-width="9.6"
        stroke-linecap="round"/>
</svg>
