<?xml version="1.0" encoding="utf-8"?>
<svg xmlns="http://www.w3.org/2000/svg"
     width="800.0" height="240.7"
     viewBox="0 0 800.0 240.7">
  <rect width="100%" height="100%" fill="#1a1a2e"/>
  <!-- Track outline -->
  <polyline points="519.95,94.21 518.15,94.60 516.89,94.87 493.85,100.13 454.71,109.60 367.08,132.04 262.93,158.59 257.37,159.76 255.30,159.86 253.35,159.69 251.64,159.27 249.83,158.52 246.30,156.20 242.60,153.83 240.05,152.84 237.41,152.26 233.55,151.86 229.05,151.88 211.81,154.16 203.95,154.16 195.64,153.10 185.18,150.54 149.00,139.08 111.24,127.65 99.24,125.60 60.13,123.78 57.13,123.33 54.80,122.70 52.38,121.79 50.08,120.60 48.01,119.15 46.09,117.46 44.42,115.61 42.94,113.57 41.79,111.49 40.89,109.34 40.41,107.58 40.13,105.80 40.00,103.87 40.05,101.90 40.29,99.89 40.71,97.92 41.31,96.00 42.10,94.11 43.42,91.72 44.91,89.47 47.63,86.30 49.20,84.90 50.92,83.64 53.38,82.23 56.04,81.03 58.84,80.10 61.73,79.43 68.17,78.84 75.10,79.20 81.95,80.55 90.38,83.42 143.09,106.86 174.07,118.61 203.42,126.49 229.57,130.46 254.23,131.25 282.57,128.84 320.72,122.05 364.80,111.26 376.54,107.74 411.50,94.83 444.21,81.40 462.40,75.02 478.02,70.59 494.23,67.06 510.97,64.55 531.44,62.73 572.29,60.04 600.78,54.83 631.24,46.57 645.73,42.67 655.26,40.87 664.83,40.00 674.43,40.15 683.97,41.35 693.36,43.64 702.44,47.01 711.12,51.41 719.32,56.84 726.84,63.23 733.55,70.44 739.44,78.42 744.48,87.11 748.60,96.49 751.81,106.50 754.73,119.57 757.70,139.43 759.86,160.88 760.00,171.50 759.26,180.31 758.66,182.97 757.85,185.35 756.71,187.78 755.33,190.04 753.66,192.23 751.78,194.19 749.64,195.96 747.34,197.45 744.78,198.70 742.21,199.66 740.13,200.21 738.01,200.55 735.09,200.74 732.14,200.68 729.90,200.42 727.74,199.96 723.54,198.53 721.57,197.57 719.61,196.37 717.20,194.59 714.83,192.47 712.67,190.10 710.68,187.49 707.25,181.68 704.60,175.38 702.69,168.46 698.46,143.17 697.05,138.87 695.44,135.44 693.55,132.36 691.40,129.66 688.90,127.22 686.11,125.11 682.51,123.06 678.44,121.27 665.56,117.19 660.22,114.56 655.43,111.16 651.24,106.96 646.81,100.88 639.46,90.01 636.59,86.86 633.60,84.23 629.74,81.55 625.71,79.38 622.19,77.99 618.39,77.04 612.07,76.21 605.05,75.99 588.70,78.09 564.26,84.20 543.45,89.45 526.55,92.79 519.95,94.21"
        fill="none"
        stroke="#e94560"
        stroke-width="8.0"
        stroke-linejoin="round"
        stroke-linecap="round"/>
  <!-- Start/finish line -->
  <line x1="524.16" y1="113.76" x2="515.75" y2="74.66"
        stroke="#f5f5f5" stroke-width="9.6"
        stroke-linecap="round"/>
</svg>
