<?xml version="1.0" encoding="utf-8"?>
<svg xmlns="http://www.w3.org/2000/svg"
     width="800.0" height="639.9"
     viewBox="0 0 800.0 639.9">
  <rect width="100%" height="100%" fill="#1a1a2e"/>
  <!-- Track outline -->
  <polyline points="345.43,597.06 416.19,599.86 479.19,592.99 540.41,577.20 596.52,553.02 648.21,519.41 684.58,487.33 718.08,449.65 742.70,408.40 753.57,374.29 759.33,337.37 760.00,300.20 755.12,265.32 744.47,234.00 728.28,203.96 708.10,175.70 685.25,150.75 647.76,121.22 604.29,97.03 558.60,77.17 483.40,55.02 407.32,43.06 345.43,40.00 286.21,45.60 247.39,54.51 209.46,67.75 173.31,86.34 133.83,114.34 96.56,149.22 67.95,188.43 53.97,221.02 44.88,256.92 40.44,293.83 40.00,329.73 54.64,410.70 79.04,462.63 109.65,498.28 146.91,529.34 185.95,554.29 240.52,576.44 297.52,589.93 345.43,597.06"
        fill="none"
        stroke="#e94560"
        stroke-width="8.0"
        stroke-linejoin="round"
        stroke-linecap="round"/>
  <!-- Start/finish line -->
  <line x1="347.10" y1="577.13" x2="343.77" y2="616.99"
        stroke="#f5f5f5" stroke-width="9.6"
        stroke-linecap="round"/>
</svg>
