<?xml version="1.0" encoding="utf-8"?>
<svg xmlns="http://www.w3.org/2000/svg"
     width="644.4" height="800.0"
     viewBox="0 0 644.4 800.0">
  <rect width="100%" height="100%" fill="#1a1a2e"/>
  <!-- Track outline -->
  <polyline points="213.97,231.68 236.96,187.35 286.01,102.28 300.46,83.69 314.83,69.13 328.26,58.67 342.28,50.57 356.66,44.91 371.87,41.41 390.35,40.00 409.14,41.33 427.02,45.93 442.83,52.32 451.07,56.92 458.08,62.09 470.64,74.72 488.45,98.18 507.59,121.18 516.74,128.03 526.66,132.82 548.82,138.60 570.35,143.92 578.76,147.95 585.14,152.10 588.30,154.80 590.89,157.65 593.34,160.80 595.55,164.23 597.45,167.61 599.13,171.76 602.07,183.51 603.90,196.28 604.42,203.77 604.42,215.75 602.95,228.79 599.59,244.12 591.42,263.81 575.15,295.79 522.03,393.21 508.71,411.01 495.49,424.70 481.93,435.46 468.15,443.71 457.21,448.39 446.20,451.31 435.02,452.53 422.43,452.30 394.73,447.78 366.33,444.01 355.54,444.66 345.82,446.33 336.99,449.19 326.47,455.38 318.20,462.19 315.15,465.00 312.45,468.62 302.18,491.13 292.18,513.22 289.73,516.34 287.42,518.47 284.72,520.63 281.84,522.46 278.72,523.98 275.42,525.20 271.88,526.22 268.24,526.68 264.28,526.19 260.38,525.01 257.05,523.56 254.00,521.70 251.37,519.42 249.13,516.72 247.20,513.60 245.69,510.14 244.40,506.34 243.77,501.89 244.61,492.65 247.83,480.21 271.81,422.30 300.39,364.73 308.70,351.84 316.90,342.11 326.89,332.49 337.90,324.31 349.08,318.38 362.90,313.40 409.11,304.58 456.05,294.73 472.42,287.39 485.26,278.95 494.79,270.77 502.51,261.57 506.43,255.03 509.62,248.00 511.94,240.77 513.72,230.01 513.58,218.68 510.67,203.54 505.56,188.94 499.74,178.37 492.51,169.28 486.97,163.92 480.77,159.25 473.51,155.06 453.91,147.99 432.18,143.47 412.75,141.94 393.82,143.16 376.29,147.23 359.60,153.85 344.18,162.52 329.31,174.38 311.08,194.99 290.96,224.46 157.59,474.78 128.63,530.29 125.16,542.84 124.07,554.25 125.51,566.26 128.24,576.34 129.65,579.69 131.30,582.39 133.22,585.16 135.71,587.94 141.18,592.77 148.61,597.52 165.13,603.83 186.58,609.27 234.97,615.43 281.88,622.20 298.07,627.79 311.29,634.75 324.12,644.21 334.01,653.23 336.43,655.89 338.32,658.66 341.97,665.47 345.16,673.38 347.02,680.76 347.79,688.67 347.12,700.00 344.84,711.71 340.81,722.93 335.59,732.96 330.78,739.35 325.42,744.71 319.04,749.70 312.73,753.69 309.26,755.63 305.44,757.11 294.29,759.20 282.05,760.00 274.09,759.28 266.66,757.49 259.33,754.79 252.36,751.18 246.40,747.00 239.98,741.33 222.24,721.18 203.20,701.14 193.88,695.21 183.29,690.68 150.58,680.76 115.17,669.84 93.71,660.34 75.62,649.88 63.95,640.68 54.58,630.75 48.55,621.78 44.17,612.20 41.30,601.97 40.00,591.28 40.21,580.26 42.17,568.81 46.77,555.69 54.97,538.16 213.97,231.68"
        fill="none"
        stroke="#e94560"
        stroke-width="8.0"
        stroke-linejoin="round"
        stroke-linecap="round"/>
  <!-- Start/finish line -->
  <line x1="196.21" y1="222.47" x2="231.72" y2="240.89"
        stroke="#f5f5f5" stroke-width="9.6"
        stroke-linecap="round"/>
</svg>
