<?xml version="1.0" encoding="utf-8"?>
<svg xmlns="http://www.w3.org/2000/svg"
     width="398.9" height="800.0"
     viewBox="0 0 398.9 800.0">
  <rect width="100%" height="100%" fill="#1a1a2e"/>
  <!-- Track outline -->
  <polyline points="45.86,404.57 40.00,580.63 40.93,629.66 47.09,670.85 56.10,691.41 67.57,709.60 77.62,722.90 82.56,728.22 87.98,732.39 104.14,742.53 121.78,751.44 130.72,754.82 140.41,757.05 166.93,760.00 196.22,760.00 218.80,756.12 239.21,749.65 253.27,743.39 266.16,734.69 276.77,724.34 287.07,711.76 295.83,698.46 304.65,679.19 310.69,659.64 315.26,628.94 358.86,192.70 358.06,164.95 355.29,146.11 353.07,137.56 349.49,129.51 335.12,106.72 318.65,85.15 312.11,78.17 304.71,72.35 282.57,58.84 255.62,47.12 236.01,42.44 215.41,40.00 195.61,40.22 178.34,42.95 161.69,47.98 146.21,55.10 125.73,70.27 109.02,86.66 101.92,94.21 95.75,103.27 81.51,136.48 69.91,170.27 65.78,187.38 46.11,397.30 45.86,404.57"
        fill="none"
        stroke="#e94560"
        stroke-width="8.0"
        stroke-linejoin="round"
        stroke-linecap="round"/>
  <!-- Start/finish line -->
  <line x1="65.85" y1="405.23" x2="25.87" y2="403.90"
        stroke="#f5f5f5" stroke-width="9.6"
        stroke-linecap="round"/>
</svg>
