<?xml version="1.0" encoding="utf-8"?>
<svg xmlns="http://www.w3.org/2000/svg"
     width="468.0" height="800.0"
     viewBox="0 0 468.0 800.0">
  <rect width="100%" height="100%" fill="#1a1a2e"/>
  <!-- Track outline -->
  <polyline points="63.19,596.42 68.11,622.38 74.62,643.91 83.45,665.09 93.62,684.15 103.12,699.21 113.75,712.50 127.11,725.17 141.46,735.90 155.48,743.78 169.70,749.90 182.65,754.86 197.21,758.32 217.94,760.00 242.19,759.56 265.64,756.28 285.97,750.08 305.64,741.30 324.31,730.31 349.69,710.73 372.35,686.63 391.89,658.00 407.50,624.86 418.13,585.43 424.38,538.46 428.03,435.14 423.65,328.44 415.14,267.65 402.52,215.72 388.90,179.21 374.15,149.35 364.44,133.67 354.15,120.29 325.44,90.78 310.36,77.93 294.88,67.03 281.06,60.03 265.58,54.53 232.49,45.94 199.33,40.35 184.58,40.00 170.10,41.60 139.86,47.36 110.63,56.57 97.61,64.10 86.58,73.67 75.28,86.35 65.05,102.65 52.76,135.88 43.85,170.18 40.00,201.01 40.80,282.45 63.19,596.42"
        fill="none"
        stroke="#e94560"
        stroke-width="8.0"
        stroke-linejoin="round"
        stroke-linecap="round"/>
  <!-- Start/finish line -->
  <line x1="83.12" y1="594.81" x2="43.25" y2="598.02"
        stroke="#f5f5f5" stroke-width="9.6"
        stroke-linecap="round"/>
</svg>
