<?xml version="1.0" encoding="utf-8"?>
<svg xmlns="http://www.w3.org/2000/svg"
     width="800.0" height="440.0"
     viewBox="0 0 800.0 440.0">
  <rect width="100%" height="100%" fill="#1a1a2e"/>
  <!-- Track outline -->
  <polyline points="510.84,395.35 647.35,400.03 673.38,398.29 697.91,393.42 709.17,389.61 719.87,384.78 729.07,379.46 737.58,372.70 743.61,366.32 749.30,358.97 753.86,351.11 756.95,343.35 759.10,335.18 760.00,327.09 759.62,319.60 758.19,312.25 755.74,305.46 752.16,299.25 747.45,293.70 741.54,288.28 720.25,276.10 698.51,263.79 688.87,254.65 681.37,244.68 677.15,237.33 673.65,229.48 671.23,221.40 670.07,213.49 669.88,205.36 670.71,197.56 672.55,190.34 675.45,183.36 679.41,176.06 695.31,156.90 711.21,137.43 716.97,125.35 720.25,113.40 721.19,105.14 721.19,96.73 720.06,88.69 717.73,81.07 714.30,73.85 710.04,67.38 704.62,61.59 698.25,56.67 691.47,52.49 679.79,47.58 667.32,44.13 655.60,41.56 640.15,40.00 508.24,41.52 377.70,49.32 363.68,52.03 353.36,55.62 342.77,60.53 333.05,66.73 324.84,73.95 317.83,82.35 314.14,88.23 311.01,94.57 308.78,101.37 307.47,109.50 307.16,118.23 308.11,126.59 310.59,134.44 314.32,141.97 318.81,148.86 324.23,155.43 330.49,161.31 337.27,166.27 345.07,170.55 353.43,173.85 362.06,175.92 370.46,176.75 379.13,176.24 389.75,174.40 447.06,153.46 503.50,131.69 516.68,128.70 527.65,127.73 539.10,128.06 550.22,129.94 560.39,133.34 569.96,138.16 578.74,144.32 586.76,151.67 593.81,159.61 599.69,168.89 603.15,177.02 605.86,186.03 607.18,195.03 606.84,203.53 605.22,212.02 602.59,219.97 598.67,227.41 593.62,234.30 588.01,240.69 577.83,250.01 566.95,258.01 557.56,263.84 547.99,268.66 537.44,272.84 526.48,276.01 516.12,277.99 502.89,279.00 335.84,273.26 274.31,275.87 246.58,273.67 234.15,270.64 222.39,266.23 212.14,260.90 202.95,254.19 197.98,249.32 193.53,243.95 189.69,237.75 186.00,229.43 183.10,220.16 181.29,211.11 180.80,200.68 182.30,189.75 190.18,168.80 198.81,147.90 201.93,136.78 203.40,126.13 203.18,117.08 201.90,107.71 199.37,99.07 195.38,91.31 190.18,84.28 184.23,78.45 177.29,73.85 169.61,70.55 161.66,68.34 153.26,67.29 144.59,67.38 136.04,68.53 123.04,72.43 110.79,78.08 101.53,83.73 93.01,90.21 84.68,97.65 76.89,105.96 69.69,115.15 63.25,125.21 52.96,147.85 44.97,172.66 40.41,199.58 40.00,213.54 40.87,227.50 42.98,241.24 46.25,254.61 55.75,279.41 61.78,290.48 68.63,300.72 76.17,310.09 84.42,318.73 104.20,334.30 127.00,347.81 152.39,358.92 240.78,377.34 413.19,391.31 444.35,393.05 510.84,395.35"
        fill="none"
        stroke="#e94560"
        stroke-width="8.0"
        stroke-linejoin="round"
        stroke-linecap="round"/>
  <!-- Start/finish line -->
  <line x1="511.53" y1="375.36" x2="510.16" y2="415.34"
        stroke="#f5f5f5" stroke-width="9.6"
        stroke-linecap="round"/>
</svg>
