<?xml version="1.0" encoding="utf-8"?>
<svg xmlns="http://www.w3.org/2000/svg"
     width="800.0" height="642.2"
     viewBox="0 0 800.0 642.2">
  <rect width="100%" height="100%" fill="#1a1a2e"/>
  <!-- Track outline -->
  <polyline points="508.99,598.51 633.05,602.21 662.96,599.46 676.70,596.48 689.89,592.36 701.94,587.40 713.20,581.25 723.09,574.07 731.88,565.67 739.03,556.36 744.70,546.06 748.44,535.22 750.40,523.92 750.25,513.22 748.36,501.56 741.51,479.38 734.51,456.97 732.43,444.32 731.84,432.44 732.43,420.29 734.80,407.32 744.18,383.20 753.77,359.08 756.70,345.89 757.74,333.55 756.85,320.77 754.15,308.43 749.51,296.91 743.21,286.39 735.21,276.95 725.95,268.82 715.24,261.90 703.75,256.39 691.41,252.06 678.67,248.89 651.73,245.55 491.02,250.02 404.39,252.73 374.60,256.39 361.07,260.14 348.33,265.43 337.21,272.11 327.17,280.24 318.68,289.23 311.64,299.31 308.20,306.18 305.46,313.40 303.71,320.81 303.01,328.13 303.23,335.59 304.34,342.72 306.46,349.59 309.46,356.19 313.13,362.19 320.35,369.92 328.62,376.56 337.43,382.21 346.18,388.35 352.26,394.27 358.04,401.00 362.45,408.36 364.52,413.83 366.04,419.66 366.82,425.58 366.74,431.27 365.71,436.69 363.78,442.11 361.22,447.21 358.22,451.82 353.03,457.56 346.81,462.48 340.14,466.50 328.65,470.75 316.39,473.28 289.89,474.95 268.81,474.00 246.73,471.02 235.61,468.18 224.75,464.11 214.27,458.60 204.56,451.60 196.15,443.15 189.11,433.39 184.10,422.77 180.92,411.39 179.66,400.46 180.40,388.58 187.59,366.53 195.52,344.35 197.81,331.79 198.48,320.00 197.11,307.62 194.63,295.29 188.33,270.17 186.99,257.61 187.29,245.23 189.81,233.71 194.07,223.05 200.15,213.38 207.63,205.03 216.71,197.98 226.72,192.42 237.72,188.09 249.25,184.92 273.74,180.81 299.75,178.87 589.92,167.80 680.74,159.67 696.60,156.51 709.90,152.35 722.35,146.93 733.69,140.11 742.84,132.43 750.48,123.48 754.26,117.21 757.33,110.43 759.30,103.43 760.00,96.42 759.67,89.20 758.33,82.37 755.74,75.91 752.07,69.82 747.81,64.30 740.14,56.90 731.36,50.89 721.50,46.28 711.01,43.03 701.05,40.95 688.52,40.00 557.39,49.67 233.61,48.04 217.19,49.17 205.04,51.34 192.66,54.95 181.21,60.06 171.51,66.43 163.02,74.29 156.42,83.14 151.16,93.08 147.75,103.83 144.68,114.90 140.42,125.97 135.27,136.54 120.74,155.97 103.58,174.62 95.54,184.92 88.54,196.08 83.76,207.42 79.61,221.29 61.23,306.00 40.82,398.38 40.00,409.99 40.48,420.24 42.59,436.46 46.04,452.41 49.52,463.03 53.75,472.74 64.83,491.49 78.35,508.56 94.69,523.70 112.07,537.57 131.30,549.18 149.35,557.67 173.54,565.80 363.82,590.69 422.99,595.03 452.45,596.84 508.99,598.51"
        fill="none"
        stroke="#e94560"
        stroke-width="8.0"
        stroke-linejoin="round"
        stroke-linecap="round"/>
  <!-- Start/finish line -->
  <line x1="509.59" y1="578.52" x2="508.40" y2="618.50"
        stroke="#f5f5f5" stroke-width="9.6"
        stroke-linecap="round"/>
</svg>
