<?xml version="1.0" encoding="utf-8"?>
<svg xmlns="http://www.w3.org/2000/svg"
     width="800.0" height="451.4"
     viewBox="0 0 800.0 451.4">
  <rect width="100%" height="100%" fill="#1a1a2e"/>
  <!-- Track outline -->
  <polyline points="322.47,211.52 299.89,211.12 289.25,211.76 280.01,212.62 272.81,214.23 264.54,216.08 247.72,221.71 238.91,225.98 226.91,232.12 215.16,241.44 201.25,254.16 185.73,266.51 167.78,277.19 154.61,283.58 141.28,288.55 122.12,293.99 104.05,297.46 95.43,298.34 87.00,298.44 79.50,297.64 72.05,295.76 66.51,293.72 60.91,291.04 55.70,287.39 51.48,283.22 47.58,278.26 44.41,272.81 41.92,266.30 40.40,259.21 40.00,252.00 40.51,244.78 42.24,237.39 44.86,230.60 48.67,223.66 53.19,217.64 59.09,211.73 65.59,206.80 73.35,202.33 81.56,198.83 90.35,196.21 100.27,194.26 142.01,190.03 161.90,186.20 179.49,181.21 187.95,177.47 195.26,172.87 201.76,167.64 207.68,161.34 212.36,154.79 216.26,147.18 218.77,139.88 220.49,130.99 220.79,112.58 220.88,93.77 222.22,83.82 224.30,75.39 227.78,67.12 232.08,60.12 237.54,53.76 243.57,48.73 250.40,44.63 257.55,41.83 265.25,40.24 273.10,40.00 281.20,41.13 289.24,43.62 296.98,47.21 304.31,52.20 310.46,58.11 315.87,65.38 319.72,72.50 322.76,81.57 324.75,99.22 326.36,117.24 328.26,126.73 330.74,134.74 334.68,142.83 339.41,149.68 345.44,155.92 352.02,160.82 359.44,164.93 367.19,167.76 375.55,169.28 384.13,169.70 393.30,169.31 402.59,167.97 412.14,165.69 421.64,162.28 430.41,157.71 439.62,151.66 469.61,126.98 477.12,121.86 484.08,118.21 491.67,115.75 499.36,114.53 507.18,114.53 514.99,115.66 522.70,117.76 530.25,121.07 536.90,125.33 543.84,131.42 555.73,145.97 567.89,160.85 576.35,168.15 584.25,173.54 596.86,180.08 610.37,184.92 624.56,187.69 639.27,188.42 683.71,186.47 703.33,186.93 721.21,188.91 729.08,191.07 736.55,194.33 742.99,198.52 748.86,203.94 753.43,209.63 757.09,216.45 758.54,220.74 759.65,225.43 760.00,230.18 759.19,235.96 757.39,241.83 755.09,247.03 751.21,252.42 746.44,256.65 741.63,259.97 737.14,262.37 732.61,263.89 728.02,264.81 723.28,265.14 718.50,264.84 713.79,263.93 707.07,261.46 700.52,257.96 694.55,253.58 688.57,249.29 682.15,246.15 675.34,244.20 669.51,243.66 663.36,243.93 657.43,245.33 652.12,247.70 646.99,251.05 642.64,255.31 640.02,258.93 637.81,263.04 636.22,267.70 635.41,272.29 635.05,277.29 635.23,282.15 636.22,287.36 637.90,292.35 639.93,296.94 644.44,303.94 650.34,310.34 665.36,322.11 680.73,333.71 687.59,340.37 693.23,347.46 697.46,354.52 700.65,362.50 701.78,367.52 702.48,372.87 702.53,377.99 701.65,382.98 700.05,387.73 698.09,392.02 695.36,396.49 692.14,400.26 688.68,403.46 684.47,406.35 679.96,408.45 675.32,409.97 670.29,411.01 665.12,411.37 659.92,411.10 651.89,409.27 643.89,406.05 636.50,402.03 628.46,396.19 593.54,362.47 583.62,351.02 574.67,338.36 567.68,325.43 565.26,319.47 563.13,312.07 557.67,272.51 555.34,262.77 552.54,254.64 548.38,246.21 543.44,238.91 536.92,231.97 529.70,226.40 521.25,221.62 512.34,218.18 503.70,215.99 492.30,214.62 322.47,211.52"
        fill="none"
        stroke="#e94560"
        stroke-width="8.0"
        stroke-linejoin="round"
        stroke-linecap="round"/>
  <!-- Start/finish line -->
  <line x1="322.10" y1="231.52" x2="322.83" y2="191.52"
        stroke="#f5f5f5" stroke-width="9.6"
        stroke-linecap="round"/>
</svg>
