<?xml version="1.0" encoding="utf-8"?>
<svg xmlns="http://www.w3.org/2000/svg"
     width="800.0" height="544.1"
     viewBox="0 0 800.0 544.1">
  <rect width="100%" height="100%" fill="#1a1a2e"/>
  <!-- Track outline -->
  <polyline points="359.15,127.28 486.14,63.62 516.13,52.22 542.42,45.00 566.03,41.09 588.84,40.00 609.47,41.69 630.26,46.13 657.51,55.40 683.31,67.53 699.44,78.02 713.57,90.15 727.44,105.23 739.38,121.88 747.92,137.76 754.24,154.69 758.39,173.80 760.00,193.23 758.94,210.77 755.44,227.58 749.23,243.55 740.58,258.62 728.05,274.55 712.89,289.38 692.78,304.74 669.00,319.54 582.77,362.55 562.70,369.29 544.99,372.63 535.08,373.12 525.60,372.55 516.79,370.86 509.68,368.52 503.06,365.33 497.19,361.10 491.98,355.62 487.48,349.09 484.19,342.07 482.23,334.74 481.37,326.96 481.75,319.34 483.43,312.08 486.38,305.02 490.64,297.69 507.08,278.98 526.94,259.31 547.02,238.99 564.14,218.71 569.56,209.24 573.57,199.85 576.32,190.41 577.73,181.46 578.07,172.47 577.25,163.89 575.39,156.19 572.51,148.93 568.81,142.64 565.55,138.89 561.84,135.67 557.72,132.96 553.40,130.87 546.60,128.89 539.23,128.17 531.20,128.57 513.94,132.88 491.81,142.03 292.72,247.34 215.38,289.87 206.35,298.09 200.07,306.68 196.09,313.93 192.87,321.88 191.22,329.50 191.19,333.97 191.77,338.36 193.00,342.60 194.89,346.51 198.53,351.10 203.40,355.34 208.93,359.13 214.59,362.31 222.55,365.82 231.06,368.28 240.70,369.69 267.29,367.55 294.37,364.13 309.84,363.72 323.81,365.29 332.66,368.04 341.17,371.91 349.03,376.78 356.03,382.51 362.44,389.16 367.59,396.58 371.16,404.52 373.60,413.11 374.87,421.69 374.97,429.64 374.01,437.58 371.91,445.32 367.80,454.07 362.20,462.57 355.92,470.31 345.39,480.31 333.17,488.62 316.43,496.52 298.55,501.96 282.42,504.10 265.27,503.85 239.36,500.63 210.81,494.26 134.19,467.45 111.44,456.16 91.78,443.46 75.89,429.84 62.51,414.68 53.04,400.13 46.00,384.69 41.72,369.45 40.00,354.05 40.48,344.33 42.09,334.78 44.74,325.67 50.50,313.49 58.63,301.80 73.22,285.63 91.50,269.79 150.49,234.35 326.90,143.45 359.15,127.28"
        fill="none"
        stroke="#e94560"
        stroke-width="8.0"
        stroke-linejoin="round"
        stroke-linecap="round"/>
  <!-- Start/finish line -->
  <line x1="350.19" y1="109.40" x2="368.11" y2="145.16"
        stroke="#f5f5f5" stroke-width="9.6"
        stroke-linecap="round"/>
</svg>
