<?xml version="1.0" encoding="utf-8"?>
<svg xmlns="http://www.w3.org/2000/svg"
     width="800.0" height="699.6"
     viewBox="0 0 800.0 699.6">
  <rect width="100%" height="100%" fill="#1a1a2e"/>
  <!-- Track outline -->
  <polyline points="335.67,584.40 140.81,491.89 120.66,481.25 103.35,470.30 85.57,456.18 70.97,439.74 58.22,420.59 49.09,398.27 44.09,375.48 40.91,350.88 40.00,327.18 40.44,310.74 42.94,299.24 46.86,288.16 56.23,264.90 113.29,158.61 119.98,138.56 128.37,98.30 131.28,88.04 134.89,79.02 140.74,69.10 147.94,60.30 156.66,53.09 166.37,47.51 177.42,43.65 188.81,41.29 199.16,40.13 209.47,40.00 220.32,40.73 231.14,42.62 241.86,45.92 252.17,50.60 261.50,56.36 269.98,63.35 277.12,71.17 282.93,80.05 285.67,86.23 287.76,92.84 288.85,99.50 288.81,106.06 287.83,112.68 286.14,118.99 282.02,128.04 276.57,136.41 270.73,143.84 262.38,152.25 201.93,201.96 142.16,252.40 134.56,261.50 129.38,269.62 124.41,278.72 120.32,288.25 117.25,298.04 115.22,308.08 114.41,318.12 114.75,328.21 116.40,338.17 119.21,347.79 123.26,357.15 128.37,365.86 134.52,374.02 141.59,381.23 149.77,387.41 158.63,392.30 168.16,395.95 178.06,398.14 188.21,398.74 198.41,397.88 208.56,395.57 218.43,391.92 227.76,387.11 236.62,381.10 244.70,374.06 252.13,366.03 265.05,347.74 275.05,327.14 298.55,257.68 309.26,236.48 321.71,217.50 336.48,200.68 354.60,186.30 375.42,174.32 398.65,165.73 423.22,160.80 448.44,159.72 461.19,160.88 473.80,163.24 497.77,171.31 519.94,182.73 539.69,197.54 598.17,245.28 606.86,250.64 615.34,254.55 652.77,266.40 697.63,274.04 707.77,276.49 716.80,279.79 727.14,285.54 736.84,292.88 744.85,301.13 751.45,310.61 755.94,320.83 758.82,331.78 760.00,342.89 759.39,354.01 757.70,361.27 755.10,368.35 751.82,374.96 745.36,384.49 737.55,392.69 727.88,399.51 717.57,404.79 708.24,408.44 698.78,411.19 678.09,415.05 565.55,436.35 543.30,440.90 521.46,442.44 510.99,441.54 500.71,439.57 490.77,436.60 481.40,432.35 475.89,428.83 470.72,424.71 466.06,419.73 461.63,413.42 457.77,406.21 455.14,398.70 453.89,391.19 453.75,383.37 454.77,375.95 457.33,368.99 461.12,362.43 465.35,356.16 472.85,347.23 480.42,338.21 486.75,328.08 491.55,317.18 493.30,309.75 494.15,302.03 493.98,294.52 492.66,287.26 490.30,280.18 487.12,273.78 482.82,268.07 477.65,263.14 472.07,258.84 465.82,254.98 459.09,251.85 452.13,249.53 440.77,247.68 429.11,247.77 417.21,249.83 405.88,253.69 397.03,258.50 388.95,264.55 381.44,271.63 374.54,279.62 368.59,287.52 362.48,297.91 343.10,341.86 326.51,387.19 323.70,399.00 322.48,409.17 322.08,419.99 322.92,430.64 325.29,440.77 328.84,450.43 333.57,459.57 339.22,468.16 353.01,484.38 369.51,499.45 388.81,512.80 410.99,523.79 435.70,530.96 455.48,533.71 474.14,534.05 496.99,531.82 603.95,499.28 623.09,493.31 634.85,491.85 646.68,492.28 653.95,493.95 660.98,496.57 667.30,500.31 672.37,504.86 676.87,510.31 680.59,516.32 683.46,522.76 685.63,529.76 687.05,537.01 687.66,548.82 686.81,560.58 685.05,570.71 682.25,580.41 678.19,590.45 673.05,600.03 666.53,609.47 659.09,618.31 650.23,627.16 640.90,634.93 624.44,645.27 605.71,653.34 595.64,656.39 585.29,658.49 563.28,659.57 540.40,658.37 516.66,655.23 492.39,650.08 467.85,642.74 393.14,611.66 335.67,584.40"
        fill="none"
        stroke="#e94560"
        stroke-width="8.0"
        stroke-linejoin="round"
        stroke-linecap="round"/>
  <!-- Start/finish line -->
  <line x1="327.09" y1="602.47" x2="344.24" y2="566.33"
        stroke="#f5f5f5" stroke-width="9.6"
        stroke-linecap="round"/>
</svg>
