<?xml version="1.0" encoding="utf-8"?>
<svg xmlns="http://www.w3.org/2000/svg"
     width="664.0" height="800.0"
     viewBox="0 0 664.0 800.0">
  <rect width="100%" height="100%" fill="#1a1a2e"/>
  <!-- Track outline -->
  <polyline points="92.10,382.65 97.62,411.29 125.30,579.56 153.94,726.60 157.40,735.10 160.60,740.29 164.34,744.74 169.48,749.75 175.24,753.90 181.27,756.99 187.80,759.04 194.63,760.00 201.37,759.87 207.99,758.78 214.55,756.64 220.62,753.37 225.69,749.58 230.36,744.83 234.62,738.42 239.24,725.47 243.16,709.59 247.58,695.94 251.69,688.27 256.09,681.95 261.02,676.45 270.14,669.30 280.91,663.55 301.52,656.48 321.76,649.11 328.43,645.10 334.13,640.74 339.23,635.47 343.52,629.45 347.28,622.65 350.27,615.32 353.01,603.59 354.35,591.51 354.53,581.31 353.73,571.37 351.95,561.08 349.25,551.05 345.49,540.89 340.88,531.21 335.15,521.53 328.70,512.50 313.04,495.84 297.98,481.58 283.90,466.15 279.55,459.17 276.14,452.15 273.74,444.74 272.43,437.37 271.95,429.74 272.38,422.37 273.87,415.44 276.25,408.76 279.18,402.70 282.81,396.95 287.07,391.89 291.79,387.44 297.90,383.08 304.64,379.55 311.52,376.98 318.67,375.49 325.98,375.01 333.23,375.36 340.37,376.45 347.49,378.33 354.29,381.21 363.57,387.18 372.05,394.90 379.22,403.79 385.30,413.74 389.09,421.80 392.69,432.66 425.09,577.86 432.45,596.92 436.69,606.08 441.65,614.75 449.06,624.48 457.59,632.85 464.12,637.34 471.11,640.83 478.26,643.36 485.86,644.93 493.61,645.45 501.37,644.97 509.13,643.58 516.87,641.22 524.20,637.73 530.76,633.33 536.97,627.92 542.28,621.86 545.82,616.41 548.73,610.57 551.00,604.29 553.10,594.61 553.77,584.49 552.70,574.11 550.28,564.00 546.54,553.92 541.72,544.55 535.98,535.87 528.41,527.06 501.56,504.35 474.15,481.63 465.38,472.38 458.47,463.27 452.36,453.33 447.54,442.56 444.58,431.79 443.25,420.67 443.94,409.90 446.13,399.52 449.75,389.58 454.47,380.47 460.28,371.66 466.92,363.98 474.82,357.27 483.38,351.99 492.47,348.37 502.76,345.71 544.14,338.91 554.84,335.47 564.44,331.28 574.03,326.13 583.23,319.94 591.66,312.88 599.50,304.77 606.33,295.92 612.27,286.06 616.80,275.60 620.30,264.39 622.62,253.31 624.00,240.76 623.60,190.17 619.60,164.58 614.27,145.57 604.03,121.85 597.39,110.86 589.85,100.96 580.73,91.89 570.78,84.13 559.53,77.28 548.17,71.83 529.40,65.64 509.69,61.93 411.73,59.88 312.83,62.50 300.38,64.20 290.97,66.86 281.47,70.61 272.57,75.71 264.78,81.86 257.85,89.36 252.41,97.91 248.01,107.46 244.70,117.31 242.81,127.69 243.00,138.24 244.84,148.53 248.52,158.52 253.58,167.59 260.33,176.18 267.85,183.98 284.03,199.51 290.78,208.01 296.67,217.38 301.12,226.89 304.43,237.01 306.38,246.82 306.99,256.98 305.71,268.71 302.86,280.22 298.48,291.29 292.78,301.19 285.10,310.13 276.33,317.50 266.19,323.65 255.47,328.10 244.33,330.80 233.02,331.72 221.58,330.71 210.33,327.92 199.67,323.65 189.56,317.59 180.60,309.74 172.79,300.54 167.64,292.21 163.51,283.18 160.36,273.81 158.15,263.91 156.87,243.63 161.48,177.97 165.08,111.82 163.67,99.35 161.19,89.67 157.56,79.20 152.87,69.74 146.84,61.37 139.70,54.39 133.06,49.77 125.75,45.93 118.47,43.01 111.97,41.18 105.49,40.17 99.03,40.00 92.53,40.61 86.05,42.01 79.76,44.19 70.90,48.72 62.72,54.91 55.92,62.37 50.08,71.13 45.57,80.51 42.24,90.76 40.53,101.40 40.00,112.38 42.05,134.88 83.57,338.34 92.10,382.65"
        fill="none"
        stroke="#e94560"
        stroke-width="8.0"
        stroke-linejoin="round"
        stroke-linecap="round"/>
  <!-- Start/finish line -->
  <line x1="111.74" y1="378.86" x2="72.46" y2="386.43"
        stroke="#f5f5f5" stroke-width="9.6"
        stroke-linecap="round"/>
</svg>
