<?xml version="1.0" encoding="utf-8"?>
<svg xmlns="http://www.w3.org/2000/svg"
     width="749.4" height="800.0"
     viewBox="0 0 749.4 800.0">
  <rect width="100%" height="100%" fill="#1a1a2e"/>
  <!-- Track outline -->
  <polyline points="100.32,441.85 138.69,635.41 154.04,679.13 164.30,700.34 172.25,711.70 181.35,721.91 191.67,730.42 202.70,737.44 214.36,743.32 227.27,748.20 271.57,758.41 294.75,760.00 317.83,758.46 328.88,756.27 339.97,752.83 352.48,747.30 364.69,739.98 375.41,731.07 385.00,720.91 391.73,712.10 397.49,702.34 402.88,690.39 406.90,677.34 408.81,664.49 409.06,651.44 407.50,638.40 404.43,625.70 399.80,613.05 393.77,601.35 385.92,590.49 376.42,580.29 341.34,550.71 333.48,542.39 326.81,533.68 319.81,522.57 314.11,510.22 310.79,498.02 309.45,485.52 309.97,477.51 311.46,469.54 313.78,462.22 317.37,455.10 321.94,448.73 326.99,443.10 332.99,437.92 339.60,433.69 346.45,430.35 353.85,427.76 361.52,426.22 369.23,425.82 377.02,426.72 384.82,428.76 392.40,431.84 403.09,438.37 413.26,446.68 422.70,456.05 431.41,466.70 439.05,478.40 445.32,490.90 448.64,500.86 451.38,513.06 456.80,557.08 465.21,608.07 483.17,656.13 502.81,694.32 511.10,705.77 519.32,713.74 528.85,721.01 538.99,726.49 549.98,730.12 561.28,731.82 572.88,731.72 584.39,729.67 591.67,727.33 598.82,724.20 605.46,720.06 611.16,715.38 616.42,709.86 620.96,703.48 624.52,696.76 627.48,689.29 629.46,681.47 630.31,673.26 630.25,664.59 629.27,656.18 627.17,647.36 624.04,638.80 620.14,630.88 612.22,619.82 601.99,609.82 579.55,595.18 556.89,581.03 546.39,571.62 537.62,562.06 530.71,553.20 524.65,543.74 519.41,533.63 515.12,522.72 512.04,511.47 510.09,499.77 509.45,487.72 509.94,475.57 511.55,463.12 514.32,451.02 518.41,438.87 523.64,427.51 530.59,416.76 538.62,407.34 548.28,399.08 558.78,392.46 570.44,387.38 582.59,383.94 607.93,381.25 632.41,376.62 643.71,372.74 654.52,367.56 664.32,361.28 673.43,353.66 681.25,345.20 688.26,335.54 694.10,325.13 698.88,313.73 702.14,302.57 704.58,289.08 708.35,248.30 709.42,206.87 707.90,191.93 705.19,179.23 701.26,165.93 696.30,153.39 690.08,141.24 682.96,130.03 674.65,119.37 665.51,109.86 655.10,101.35 644.04,94.08 619.71,82.53 593.40,74.31 565.54,69.83 359.76,67.89 346.21,69.03 335.61,71.17 322.64,75.21 310.16,81.18 299.65,88.70 290.27,98.11 282.72,108.77 276.81,120.92 273.28,133.67 271.64,147.11 272.03,160.56 274.28,173.65 278.73,186.65 284.94,198.40 293.62,209.11 303.49,218.47 314.51,226.88 325.26,235.60 333.85,245.26 340.88,256.31 344.02,263.88 346.42,272.00 347.85,280.37 347.97,293.01 346.12,305.61 341.98,318.36 336.16,330.26 328.55,342.11 319.72,352.57 309.36,361.93 298.16,369.25 285.98,374.18 273.40,376.97 260.55,378.06 247.79,377.17 235.86,374.43 224.38,369.75 213.93,363.42 204.31,355.26 195.88,345.60 188.84,334.19 184.00,321.70 181.02,308.50 180.35,298.04 181.02,285.99 186.56,252.18 191.64,211.30 188.87,154.88 181.81,105.93 177.76,92.68 172.82,82.53 166.37,72.17 158.94,63.11 150.57,55.19 141.25,48.81 133.09,44.98 124.32,42.09 115.49,40.40 106.78,40.00 98.04,40.75 89.54,42.84 81.38,46.22 73.43,50.91 66.34,56.43 58.85,64.65 52.58,74.21 47.34,84.52 43.32,95.77 40.79,106.28 40.00,119.97 72.95,301.58 91.64,397.88 96.52,422.68 100.32,441.85"
        fill="none"
        stroke="#e94560"
        stroke-width="8.0"
        stroke-linejoin="round"
        stroke-linecap="round"/>
  <!-- Start/finish line -->
  <line x1="119.94" y1="437.96" x2="80.70" y2="445.74"
        stroke="#f5f5f5" stroke-width="9.6"
        stroke-linecap="round"/>
</svg>
