<?xml version="1.0" encoding="utf-8"?>
<svg xmlns="http://www.w3.org/2000/svg"
     width="800.0" height="468.3"
     viewBox="0 0 800.0 468.3">
  <rect width="100%" height="100%" fill="#1a1a2e"/>
  <!-- Track outline -->
  <polyline points="257.98,140.30 230.24,137.66 199.33,136.78 162.78,137.33 121.75,141.85 92.31,145.38 73.30,149.23 59.32,154.85 48.58,161.69 42.63,170.40 40.00,182.85 40.85,194.98 43.86,207.54 49.20,218.79 57.54,227.71 67.35,234.88 154.13,272.35 167.19,276.21 179.09,277.42 189.83,276.21 199.02,274.12 207.68,269.93 214.17,264.64 219.81,255.05 231.47,233.33 237.12,222.09 243.61,214.05 250.79,208.98 260.61,205.45 271.89,203.90 286.88,203.90 395.05,212.17 418.39,212.17 433.84,210.41 456.56,206.66 473.72,203.57 485.77,202.47 500.53,202.80 510.19,205.23 518.76,211.07 525.25,219.34 529.74,230.03 530.43,242.04 526.65,254.06 518.76,263.32 505.71,270.48 491.56,274.67 473.02,277.09 444.89,278.42 420.86,277.76 398.76,275.11 370.56,269.60 336.25,263.43 318.02,261.66 304.96,263.10 294.68,266.51 288.11,271.25 281.24,279.19 274.75,291.53 270.57,303.22 265.09,316.33 257.90,325.92 249.32,333.53 235.88,340.36 215.94,346.87 200.18,349.62 184.03,349.95 166.88,347.20 152.04,342.02 136.59,335.18 121.52,328.68 107.77,325.59 95.40,325.59 81.96,328.02 70.99,333.09 63.10,343.12 58.62,356.79 56.23,372.99 57.23,388.09 61.71,402.20 68.59,412.45 79.25,420.39 91.62,425.90 108.77,428.32 141.76,427.66 206.67,418.73 268.95,406.61 691.31,306.08 705.06,300.24 716.73,294.40 727.39,286.57 737.67,277.54 745.94,267.28 752.12,255.27 755.90,242.15 758.61,227.05 760.00,210.96 759.69,195.09 757.60,178.66 739.68,71.97 736.28,61.27 732.18,54.11 723.92,47.94 711.86,43.09 698.49,40.33 681.65,40.00 667.89,42.09 657.62,47.61 650.35,56.20 645.56,66.78 644.17,77.81 645.56,89.49 649.74,100.18 657.93,111.43 666.89,121.79 675.47,134.13 681.26,148.57 685.05,168.08 686.83,184.95 686.83,198.06 684.74,208.98 680.64,218.67 674.46,226.17 664.49,230.69 654.14,232.01 643.17,231.35 632.89,226.17 622.54,218.67 611.56,208.64 575.17,168.74 553.84,142.62 545.65,133.36 535.69,127.19 525.33,125.09 514.67,125.42 504.08,126.86 420.24,143.61 393.74,147.14 374.66,147.14 257.98,140.30"
        fill="none"
        stroke="#e94560"
        stroke-width="8.0"
        stroke-linejoin="round"
        stroke-linecap="round"/>
  <!-- Start/finish line -->
  <line x1="256.67" y1="160.26" x2="259.29" y2="120.35"
        stroke="#f5f5f5" stroke-width="9.6"
        stroke-linecap="round"/>
</svg>
