<?xml version="1.0" encoding="utf-8"?>
<svg xmlns="http://www.w3.org/2000/svg"
     width="800.0" height="767.0"
     viewBox="0 0 800.0 767.0">
  <rect width="100%" height="100%" fill="#1a1a2e"/>
  <!-- Track outline -->
  <polyline points="479.83,436.06 496.24,424.70 599.86,373.28 707.51,318.19 724.56,304.87 737.53,291.34 747.02,277.95 753.89,265.45 756.03,259.82 757.28,255.30 757.96,252.10 759.64,238.78 760.00,222.71 758.63,215.91 756.39,209.73 753.44,203.85 748.83,196.89 743.18,190.42 736.97,184.91 729.85,180.23 722.07,176.74 713.75,174.31 703.29,172.92 692.07,173.03 679.86,174.61 650.80,183.91 620.70,195.31 574.91,208.19 559.79,209.66 546.03,208.81 538.24,207.08 530.86,204.47 524.25,200.83 519.31,196.86 514.94,192.15 511.27,186.52 508.12,179.43 505.73,171.37 504.56,163.46 504.63,156.77 505.68,150.22 507.81,143.97 512.85,136.03 519.77,128.67 527.15,122.64 534.63,118.34 542.54,115.36 550.28,113.56 556.66,112.75 562.90,112.89 569.89,114.33 584.04,121.35 599.99,131.47 613.68,138.16 619.66,139.15 624.87,138.97 629.94,137.90 633.91,136.69 637.88,135.03 641.62,132.83 644.92,129.92 647.72,126.28 650.24,121.90 652.28,117.20 653.65,112.45 654.44,106.68 654.36,100.72 653.34,94.87 650.65,87.92 646.53,81.12 641.46,74.72 628.05,63.06 612.38,53.39 596.51,45.99 580.07,41.32 562.79,40.00 545.42,41.69 528.14,46.22 511.25,53.68 496.39,63.43 478.81,78.43 289.92,270.45 176.35,386.96 168.79,398.55 163.57,408.81 160.17,418.81 158.64,426.61 158.13,434.26 158.77,441.43 160.65,447.76 163.60,453.64 167.21,459.31 172.78,466.59 179.43,473.61 186.29,479.31 192.63,483.10 199.19,485.79 206.06,487.59 214.08,488.73 222.50,488.80 231.30,487.77 248.58,482.84 265.60,474.86 278.80,465.96 290.53,454.63 300.66,440.59 308.95,423.56 315.01,397.74 319.89,371.19 324.58,352.76 330.27,336.43 337.75,322.97 346.91,310.98 360.17,297.67 374.98,286.34 390.32,277.95 406.12,272.11 420.60,269.20 436.83,267.84 472.55,268.35 510.99,266.99 567.93,248.02 588.36,239.78 606.53,233.82 614.34,232.90 621.49,233.01 628.23,234.15 634.01,235.84 639.45,238.31 644.24,241.95 647.24,245.44 649.99,249.56 652.25,254.12 653.80,258.87 654.67,265.34 654.52,272.22 653.42,278.69 651.18,284.76 647.90,290.38 643.83,295.46 634.24,303.00 621.31,310.06 537.28,348.93 521.20,355.04 507.18,358.50 493.95,358.97 481.15,357.21 469.24,353.16 457.51,347.79 445.20,341.03 432.91,335.55 425.30,334.48 417.75,334.70 410.44,335.88 403.73,337.75 397.21,340.55 391.21,344.41 385.79,349.34 380.80,355.26 376.71,361.92 373.76,368.76 371.59,376.30 370.12,384.90 370.86,409.14 371.36,433.60 368.16,446.87 362.97,458.97 353.15,475.89 341.11,492.04 327.63,506.53 313.10,518.74 298.47,527.79 283.18,534.33 266.36,538.60 249.06,540.36 232.47,539.89 213.72,536.91 165.84,522.27 118.41,508.96 106.15,507.96 95.72,508.40 85.95,510.13 77.66,512.63 69.87,516.13 62.75,520.54 56.89,525.21 51.58,530.62 47.17,537.05 44.43,542.86 42.06,549.45 40.46,556.14 40.00,562.43 40.74,567.62 42.37,572.65 44.61,577.40 47.20,581.67 51.83,587.18 57.45,591.82 63.61,595.64 75.49,600.05 88.75,602.89 106.74,604.73 124.29,607.30 132.05,610.06 139.12,613.52 145.41,617.93 150.29,622.53 154.57,627.86 158.03,634.07 161.34,645.84 163.24,659.45 164.01,679.20 165.66,697.85 168.13,704.80 171.31,710.68 175.10,715.65 178.61,719.07 182.55,721.94 186.73,724.22 190.87,725.83 194.79,726.72 198.79,726.97 202.81,726.64 206.90,725.76 213.62,723.22 220.46,719.36 226.49,714.47 230.77,709.43 234.38,703.55 237.79,696.56 243.31,677.66 249.67,657.35 260.10,639.70 273.61,622.34 330.99,563.83 450.54,456.40 479.83,436.06"
        fill="none"
        stroke="#e94560"
        stroke-width="8.0"
        stroke-linejoin="round"
        stroke-linecap="round"/>
  <!-- Start/finish line -->
  <line x1="468.43" y1="419.63" x2="491.23" y2="452.49"
        stroke="#f5f5f5" stroke-width="9.6"
        stroke-linecap="round"/>
</svg>
