<?xml version="1.0" encoding="utf-8"?>
<svg xmlns="http://www.w3.org/2000/svg"
     width="800.0" height="773.8"
     viewBox="0 0 800.0 773.8">
  <rect width="100%" height="100%" fill="#1a1a2e"/>
  <!-- Track outline -->
  <polyline points="623.97,563.48 718.73,482.99 742.09,460.83 747.62,454.20 752.08,447.66 755.35,441.60 757.85,435.43 759.26,430.29 760.00,424.97 759.93,418.60 759.05,411.92 757.01,403.86 753.90,395.37 740.10,369.18 706.33,319.01 700.32,312.29 694.84,307.50 689.27,303.66 683.51,300.66 677.14,298.23 670.70,296.57 665.10,295.70 658.96,295.53 632.51,299.35 614.98,302.43 605.58,302.73 596.62,301.55 592.33,300.41 588.14,298.88 584.06,296.95 580.27,294.73 577.51,292.74 574.97,290.54 570.28,285.25 564.82,276.62 550.21,249.43 544.73,242.09 539.02,235.91 532.20,229.70 524.52,223.93 500.47,210.10 453.80,190.23 435.60,180.81 421.46,171.90 404.40,158.94 357.67,118.63 328.65,99.07 278.37,71.55 255.38,56.87 236.67,45.20 230.50,42.59 224.93,40.93 220.95,40.21 217.18,40.00 213.44,40.15 209.54,40.81 203.94,42.52 198.13,45.10 192.60,48.43 187.01,52.88 171.90,70.02 161.76,81.95 158.86,84.67 156.06,86.81 153.08,88.63 150.03,90.06 146.95,91.09 143.82,91.72 140.79,91.92 137.36,91.71 128.67,89.85 119.84,88.04 116.06,87.91 112.48,88.33 106.97,89.68 101.19,91.87 95.34,94.95 89.59,98.86 83.97,103.62 78.49,109.30 72.51,116.71 66.78,125.30 60.96,136.07 55.82,148.06 48.47,175.43 42.65,213.67 40.00,268.51 41.74,318.22 48.50,368.10 54.46,406.02 55.34,418.35 54.77,434.40 52.02,453.89 46.80,487.14 47.07,509.30 50.74,531.86 56.66,550.01 67.96,571.27 87.97,598.39 115.82,631.89 125.53,645.60 133.09,658.57 138.45,670.66 141.08,679.70 141.78,684.16 142.09,688.62 141.99,692.78 141.51,696.99 138.93,707.63 136.10,718.02 135.82,720.77 135.91,723.25 136.20,724.86 136.67,726.41 137.24,727.77 137.84,728.79 138.54,729.65 139.35,730.42 140.59,731.30 142.00,732.03 143.56,732.64 146.79,733.47 150.49,733.84 155.86,733.64 162.51,732.56 203.41,719.87 252.64,704.65 383.79,668.07 407.13,661.95 416.87,660.55 420.54,660.50 424.00,660.81 427.19,661.45 430.23,662.46 432.86,663.79 435.28,665.51 437.31,667.54 439.11,669.93 440.51,672.55 441.82,675.61 443.81,681.26 445.97,686.75 447.74,689.55 449.60,691.70 451.24,693.17 453.01,694.32 455.51,695.44 458.29,696.17 461.94,696.47 465.82,696.19 470.01,695.27 474.38,693.68 479.69,691.08 485.64,687.23 510.63,665.18 545.92,632.04 623.97,563.48"
        fill="none"
        stroke="#e94560"
        stroke-width="8.0"
        stroke-linejoin="round"
        stroke-linecap="round"/>
  <!-- Start/finish line -->
  <line x1="610.91" y1="548.33" x2="637.04" y2="578.62"
        stroke="#f5f5f5" stroke-width="9.6"
        stroke-linecap="round"/>
</svg>
