<?xml version="1.0" encoding="utf-8"?>
<svg xmlns="http://www.w3.org/2000/svg"
     width="712.6" height="800.0"
     viewBox="0 0 712.6 800.0">
  <rect width="100%" height="100%" fill="#1a1a2e"/>
  <!-- Track outline -->
  <polyline points="223.63,512.72 380.54,702.77 399.85,719.97 421.76,734.79 444.88,747.67 457.85,752.65 470.23,755.91 496.61,760.00 523.37,759.61 549.27,755.47 574.20,746.90 585.72,741.53 597.51,734.45 618.28,717.92 637.29,699.34 645.67,688.06 652.18,676.78 663.43,652.28 669.85,625.96 672.56,599.42 671.77,574.48 663.97,532.74 661.90,526.32 658.61,519.19 559.23,356.18 414.94,170.55 336.45,96.29 300.32,71.08 276.65,57.64 252.20,46.80 232.29,41.94 212.38,40.00 191.26,40.44 170.14,43.59 148.74,49.84 128.17,58.97 108.50,71.13 90.55,85.95 74.37,104.64 61.40,123.66 55.28,135.05 50.66,146.11 43.45,170.05 40.00,195.16 40.35,220.82 41.53,232.48 44.43,245.75 59.01,284.85 79.11,327.31 116.61,383.05 223.63,512.72"
        fill="none"
        stroke="#e94560"
        stroke-width="8.0"
        stroke-linejoin="round"
        stroke-linecap="round"/>
  <!-- Start/finish line -->
  <line x1="239.05" y1="499.99" x2="208.21" y2="525.45"
        stroke="#f5f5f5" stroke-width="9.6"
        stroke-linecap="round"/>
</svg>
