<?xml version="1.0" encoding="utf-8"?>
<svg xmlns="http://www.w3.org/2000/svg"
     width="717.3" height="800.0"
     viewBox="0 0 717.3 800.0">
  <rect width="100%" height="100%" fill="#1a1a2e"/>
  <!-- Track outline -->
  <polyline points="234.15,575.75 277.10,635.72 347.65,712.50 361.68,723.78 379.44,734.72 400.32,745.12 423.35,753.25 445.89,758.62 461.24,760.00 475.69,759.85 502.50,757.68 530.68,751.18 546.53,745.17 562.14,737.58 575.96,729.30 589.82,719.05 629.82,680.22 644.35,662.92 656.68,644.10 667.55,618.28 674.85,593.98 676.68,584.96 677.34,576.14 676.89,557.76 674.56,538.00 670.25,520.36 664.60,504.15 653.52,481.97 624.84,441.27 349.81,100.71 317.81,74.74 293.62,59.96 284.90,55.03 275.77,51.53 242.94,44.14 208.87,40.00 196.59,40.59 185.17,42.86 166.75,47.98 146.95,56.16 120.43,72.38 97.94,89.18 91.96,94.50 86.77,100.86 70.13,127.67 54.15,160.39 46.10,187.59 41.45,211.44 40.21,220.21 40.00,228.64 41.12,245.34 44.52,264.36 53.65,291.86 65.57,319.31 88.68,359.62 234.15,575.75"
        fill="none"
        stroke="#e94560"
        stroke-width="8.0"
        stroke-linejoin="round"
        stroke-linecap="round"/>
  <!-- Start/finish line -->
  <line x1="250.67" y1="564.48" x2="217.63" y2="587.02"
        stroke="#f5f5f5" stroke-width="9.6"
        stroke-linecap="round"/>
</svg>
