<?xml version="1.0" encoding="utf-8"?>
<svg xmlns="http://www.w3.org/2000/svg"
     width="424.7" height="800.0"
     viewBox="0 0 424.7 800.0">
  <rect width="100%" height="100%" fill="#1a1a2e"/>
  <!-- Track outline -->
  <polyline points="267.49,386.20 373.63,620.48 376.09,626.32 377.89,631.15 379.56,635.70 381.06,640.69 382.59,646.58 383.61,651.30 384.35,655.86 384.66,660.31 384.66,664.06 383.91,669.36 382.20,676.06 379.39,683.19 375.78,690.11 373.14,694.50 370.42,698.04 367.03,702.06 362.55,706.08 357.93,709.83 354.19,712.78 349.71,716.05 344.69,719.05 340.25,721.57 335.46,724.25 330.41,726.71 325.22,728.91 317.08,731.91 197.49,757.53 189.89,758.66 184.21,759.57 178.54,760.00 173.35,760.00 168.61,758.87 164.60,756.57 161.09,753.68 157.31,749.82 153.66,744.67 150.40,738.77 144.60,725.32 127.28,669.63 126.48,664.00 126.22,658.75 126.62,653.98 127.80,648.62 131.10,641.65 150.53,609.23 152.34,606.01 153.74,602.53 155.11,598.88 156.29,594.86 156.47,591.00 155.85,587.25 154.98,584.41 153.17,580.71 150.80,577.17 145.48,570.37 137.70,562.43 104.37,533.44 101.64,530.76 99.93,527.70 98.48,523.41 96.63,516.44 84.50,436.96 84.10,432.51 84.32,428.49 85.11,425.27 86.12,422.38 87.88,419.32 90.56,416.32 94.08,413.69 98.13,411.71 102.43,410.75 107.09,410.43 112.41,411.12 116.81,412.03 121.52,413.21 125.69,414.66 129.17,416.43 132.73,419.27 136.64,422.81 141.08,427.42 144.51,431.86 151.33,443.55 206.07,555.14 208.62,561.25 210.81,568.06 212.66,576.32 213.85,589.45 213.32,606.28 207.47,649.32 206.90,656.07 206.94,660.41 207.60,664.97 209.23,669.31 211.56,673.54 214.51,677.67 217.72,681.05 220.93,683.78 223.92,686.09 226.86,687.53 230.07,688.55 234.07,688.98 238.82,688.93 243.35,687.75 247.79,686.25 252.54,684.10 256.89,681.80 261.73,678.42 266.26,674.72 270.39,670.97 274.30,666.68 277.60,662.88 281.03,658.21 284.81,652.64 288.33,646.80 291.27,641.17 293.38,634.95 294.22,629.97 294.31,625.20 294.04,619.62 293.25,613.24 291.71,606.81 290.04,601.13 287.01,593.25 178.98,354.57 177.35,351.09 175.20,346.96 172.43,342.51 169.18,338.82 165.70,336.14 161.39,333.99 156.25,332.44 151.06,331.37 99.05,323.49 94.26,322.25 87.31,319.31 81.95,316.30 77.24,312.82 73.02,308.32 69.41,303.82 67.04,299.85 64.14,294.81 61.81,290.04 60.18,285.48 59.74,280.71 60.31,276.05 61.54,271.23 63.92,266.51 67.22,262.71 70.73,260.24 74.78,257.93 78.78,256.27 84.80,253.81 89.64,250.97 94.78,247.38 99.05,242.98 102.74,237.78 105.12,233.06 107.05,227.12 107.84,222.02 108.37,216.29 107.84,211.41 106.83,207.07 104.98,202.30 101.91,197.26 98.04,193.19 93.68,189.76 87.62,186.92 80.93,184.99 74.34,183.38 68.01,181.29 63.17,178.98 59.35,175.66 56.49,172.66 54.03,168.26 51.52,162.74 49.37,156.47 47.47,147.41 40.00,71.03 40.18,65.46 41.10,61.55 43.17,57.90 46.33,54.31 49.80,50.99 54.16,47.88 58.95,45.52 64.27,43.54 70.29,41.66 76.54,40.27 83.31,40.00 89.16,40.48 94.52,41.34 100.02,43.32 104.59,45.90 108.24,48.90 113.03,53.99 118.13,60.53 123.14,68.51 134.93,88.83 150.05,115.36 155.19,125.60 267.49,386.20"
        fill="none"
        stroke="#e94560"
        stroke-width="8.0"
        stroke-linejoin="round"
        stroke-linecap="round"/>
  <!-- Start/finish line -->
  <line x1="285.78" y1="378.12" x2="249.19" y2="394.27"
        stroke="#f5f5f5" stroke-width="9.6"
        stroke-linecap="round"/>
</svg>
