<?xml version="1.0" encoding="utf-8"?>
<svg xmlns="http://www.w3.org/2000/svg"
     width="800.0" height="495.7"
     viewBox="0 0 800.0 495.7">
  <rect width="100%" height="100%" fill="#1a1a2e"/>
  <!-- Track outline -->
  <polyline points="415.60,52.34 407.10,51.70 284.70,40.00 200.00,41.32 173.71,45.92 150.52,53.11 131.92,62.52 116.44,72.35 109.97,76.60 103.74,82.05 82.37,107.84 62.69,135.64 58.32,143.43 55.05,151.51 48.22,172.96 42.63,197.61 40.28,221.65 40.00,242.55 40.46,249.36 41.74,256.26 48.50,283.28 59.42,314.36 75.82,343.08 92.33,366.62 104.67,381.09 124.87,398.80 135.30,405.69 147.60,411.95 177.45,422.97 210.42,432.21 259.01,438.93 568.41,455.66 600.92,451.66 625.97,444.85 646.49,436.30 663.64,427.02 678.68,416.72 696.04,401.44 713.97,382.33 727.99,362.49 739.80,340.15 750.72,308.61 757.94,279.92 759.50,271.79 760.00,263.62 758.90,237.40 753.99,207.44 741.86,177.14 728.73,152.19 724.78,145.09 720.12,138.70 700.92,119.21 678.93,100.10 667.69,91.59 655.81,84.73 631.45,75.45 607.26,68.56 587.37,65.28 415.60,52.34"
        fill="none"
        stroke="#e94560"
        stroke-width="8.0"
        stroke-linejoin="round"
        stroke-linecap="round"/>
  <!-- Start/finish line -->
  <line x1="414.10" y1="72.29" x2="417.10" y2="32.40"
        stroke="#f5f5f5" stroke-width="9.6"
        stroke-linecap="round"/>
</svg>
