<?xml version="1.0" encoding="utf-8"?>
<svg xmlns="http://www.w3.org/2000/svg"
     width="800.0" height="578.8"
     viewBox="0 0 800.0 578.8">
  <rect width="100%" height="100%" fill="#1a1a2e"/>
  <!-- Track outline -->
  <polyline points="485.81,191.46 500.60,205.08 628.10,318.02 729.18,409.66 738.49,419.40 748.06,431.72 755.21,444.59 757.27,449.98 758.74,455.45 759.65,461.13 760.00,466.91 759.77,472.75 759.01,478.58 755.95,490.15 750.90,501.31 743.87,511.66 735.08,520.81 730.06,524.86 724.75,528.43 719.03,531.53 713.08,534.09 706.89,536.13 700.56,537.60 694.06,538.48 687.50,538.76 680.87,538.43 674.28,537.48 667.85,535.90 661.55,533.74 655.43,531.01 649.49,527.71 638.35,519.47 628.31,509.16 619.38,497.02 595.08,460.14 588.32,452.11 581.63,445.61 573.97,439.56 565.87,434.36 557.49,429.88 548.39,426.13 535.25,422.34 521.51,419.66 509.39,418.32 497.70,418.08 487.64,418.84 477.87,420.52 468.43,422.95 458.50,426.63 425.88,444.52 385.06,471.28 373.55,476.82 369.02,478.13 364.54,478.88 360.25,479.01 355.79,478.74 352.63,478.16 349.58,477.15 345.87,475.27 342.29,472.79 339.14,469.91 336.36,466.55 334.10,462.84 332.35,458.78 331.23,454.44 330.73,449.89 330.88,445.15 331.63,440.43 333.06,435.59 335.04,430.91 337.63,426.33 340.85,421.78 352.75,408.63 374.29,386.62 380.27,378.12 384.83,369.72 387.39,362.98 389.03,356.36 389.77,351.04 389.89,345.01 388.43,339.38 386.27,332.73 383.87,325.20 381.87,317.71 381.32,310.08 382.73,302.91 383.95,297.58 384.84,292.65 386.51,284.36 387.77,276.55 388.24,271.94 388.31,266.99 387.89,263.38 387.33,257.09 386.10,251.41 383.71,244.39 380.26,237.31 374.45,228.51 366.75,219.28 330.04,185.67 306.32,169.38 284.26,158.89 273.03,155.27 260.44,152.59 234.33,149.75 208.67,148.78 197.58,149.33 188.32,150.77 181.87,152.54 176.03,155.00 170.71,158.13 166.00,161.83 162.77,165.19 160.11,168.92 158.03,172.98 156.50,177.36 155.57,181.95 155.20,186.69 155.42,191.53 156.26,196.49 158.12,202.66 160.86,208.92 165.16,216.14 170.77,223.41 193.55,244.28 257.07,290.47 273.36,304.55 284.41,316.67 288.06,321.70 293.91,332.14 296.05,337.46 297.65,342.93 298.61,348.27 298.98,353.65 298.72,358.98 297.87,364.20 296.41,369.27 294.40,374.08 291.78,378.64 288.69,382.81 285.03,386.75 280.99,390.25 276.45,393.43 271.62,396.13 266.36,398.41 260.88,400.17 255.10,401.41 249.17,402.09 242.97,402.25 236.71,401.84 230.44,400.87 224.03,399.26 208.22,393.02 192.26,383.77 165.68,364.19 90.59,305.29 71.19,287.74 60.53,275.54 52.02,262.67 45.66,249.34 41.65,235.33 40.00,220.95 40.71,206.52 43.81,192.51 46.28,185.81 49.30,179.42 57.00,167.47 66.75,156.74 78.45,147.43 95.12,137.86 134.35,119.23 148.39,109.57 153.35,105.05 165.84,89.44 179.98,67.71 188.03,58.52 192.56,54.48 197.38,50.90 202.64,47.77 208.15,45.20 213.97,43.18 220.15,41.70 236.63,40.00 254.64,40.66 273.92,43.55 294.28,48.72 315.33,56.31 332.30,64.29 353.24,76.92 378.26,94.93 407.37,119.23 485.81,191.46"
        fill="none"
        stroke="#e94560"
        stroke-width="8.0"
        stroke-linejoin="round"
        stroke-linecap="round"/>
  <!-- Start/finish line -->
  <line x1="499.36" y1="176.75" x2="472.26" y2="206.17"
        stroke="#f5f5f5" stroke-width="9.6"
        stroke-linecap="round"/>
</svg>
