<?xml version="1.0" encoding="utf-8"?>
<svg xmlns="http://www.w3.org/2000/svg"
     width="800.0" height="682.3"
     viewBox="0 0 800.0 682.3">
  <rect width="100%" height="100%" fill="#1a1a2e"/>
  <!-- Track outline -->
  <polyline points="63.06,234.49 53.76,259.09 42.54,298.71 40.00,349.75 43.59,387.17 52.89,422.28 67.70,455.78 87.95,486.96 119.43,522.19 157.21,553.95 207.09,585.59 262.50,611.00 328.07,630.40 395.57,641.03 458.69,642.30 519.36,634.91 570.64,619.89 616.93,598.30 650.24,575.78 679.52,548.75 705.38,517.80 727.21,482.92 743.43,445.61 754.56,405.77 760.00,364.88 759.30,322.04 748.87,266.71 731.68,213.93 714.15,177.21 693.20,145.56 668.48,117.38 641.13,93.82 613.16,75.57 580.72,61.48 517.43,46.93 446.68,40.00 375.50,40.81 306.33,50.39 248.73,67.60 196.40,92.67 156.42,122.12 120.56,156.30 89.44,193.72 63.06,234.49"
        fill="none"
        stroke="#e94560"
        stroke-width="8.0"
        stroke-linejoin="round"
        stroke-linecap="round"/>
  <!-- Start/finish line -->
  <line x1="80.61" y1="244.07" x2="45.50" y2="224.91"
        stroke="#f5f5f5" stroke-width="9.6"
        stroke-linecap="round"/>
</svg>
