<?xml version="1.0" encoding="utf-8"?>
<svg xmlns="http://www.w3.org/2000/svg"
     width="753.4" height="800.0"
     viewBox="0 0 753.4 800.0">
  <rect width="100%" height="100%" fill="#1a1a2e"/>
  <!-- Track outline -->
  <polyline points="509.91,246.20 511.39,247.48 631.63,344.37 650.04,363.59 663.88,381.29 674.42,397.28 683.33,414.60 701.44,469.14 708.69,501.70 713.03,532.37 713.41,549.72 711.90,564.36 709.65,573.13 706.36,580.85 702.02,588.23 696.82,594.87 691.13,600.30 684.81,604.80 677.99,608.18 670.78,610.51 663.53,611.68 656.24,611.79 649.30,611.02 642.25,609.04 632.52,604.46 623.02,598.05 614.80,590.05 607.36,580.35 598.45,565.68 590.50,548.63 577.32,501.51 547.20,400.78 538.52,383.81 528.95,370.11 517.12,356.52 504.53,344.99 494.80,337.97 484.33,332.57 474.99,329.08 464.87,326.36 454.72,325.04 445.18,325.27 435.68,326.83 425.57,329.70 377.77,355.13 357.04,365.65 340.14,370.34 321.49,373.80 279.28,377.49 275.01,378.26 271.29,379.66 265.29,383.04 258.58,387.73 252.80,393.17 248.58,399.07 245.21,405.63 242.84,412.07 241.76,417.00 241.41,421.85 241.64,427.06 242.88,434.94 245.13,443.44 248.31,451.28 251.99,457.57 256.49,463.31 262.07,468.98 276.49,480.43 295.79,491.65 395.02,527.01 455.03,551.47 471.03,560.71 484.60,571.30 497.90,584.23 508.71,598.56 517.47,614.16 523.91,631.20 527.82,647.66 528.64,657.60 528.21,667.22 527.01,679.22 524.33,691.37 519.14,703.79 512.59,715.01 507.35,721.96 500.88,728.29 485.42,739.04 470.10,747.77 461.27,751.34 444.60,755.89 424.40,759.46 404.29,760.00 382.97,758.14 324.24,744.20 253.58,720.21 242.92,714.97 234.66,709.50 227.92,703.17 222.69,696.84 220.52,693.27 218.96,689.82 217.65,686.13 216.72,682.36 216.10,678.56 215.98,674.44 217.10,667.03 219.12,659.93 220.67,656.63 222.53,653.83 224.59,651.11 227.22,648.48 232.88,644.09 239.62,640.05 246.72,637.14 254.28,635.20 262.34,634.15 271.06,634.19 283.74,635.63 297.57,639.28 317.65,649.48 336.96,661.44 348.16,669.28 358.86,675.84 371.80,680.11 383.47,682.17 387.77,682.09 391.49,681.39 395.14,680.27 398.55,678.68 401.73,676.54 404.64,673.94 407.35,670.80 409.79,667.22 412.12,662.95 413.94,658.53 414.98,654.92 415.64,651.35 415.95,647.78 415.88,644.17 415.53,640.71 414.67,637.02 412.16,630.23 407.85,622.70 401.26,614.74 392.66,606.44 382.27,598.48 353.24,583.61 320.13,570.14 256.33,546.73 206.64,519.91 188.54,507.14 172.30,492.43 155.55,471.00 141.44,447.75 125.47,408.93 67.95,192.83 41.28,112.86 40.04,104.01 40.00,96.40 40.85,86.08 42.56,76.53 44.07,71.71 45.93,67.52 48.06,63.52 50.50,59.76 53.22,56.30 56.24,53.16 59.54,50.29 63.14,47.76 66.78,45.47 71.24,43.57 84.27,40.97 98.22,40.00 105.35,40.78 112.06,42.76 121.56,47.06 131.36,53.70 144.97,67.76 158.19,85.84 186.13,142.87 194.54,161.04 206.91,185.92 229.47,227.03 237.84,238.36 246.18,247.68 254.78,254.94 266.18,260.68 276.68,264.02 281.33,265.26 285.95,265.81 294.78,265.73 303.35,264.60 307.46,263.20 310.99,261.38 314.55,259.09 317.92,256.41 321.18,253.23 324.13,249.73 326.65,245.93 328.74,241.89 330.37,237.93 331.61,233.86 332.34,229.78 332.65,225.63 332.50,221.44 331.88,217.21 331.03,213.05 329.36,208.59 323.12,198.84 313.70,187.94 291.57,170.62 271.60,155.52 268.31,151.72 266.06,148.26 263.89,144.58 262.11,140.77 260.71,136.97 259.70,133.09 259.08,129.17 258.85,125.17 258.89,121.21 259.59,117.02 262.38,110.07 265.98,103.62 268.12,100.79 270.71,98.34 276.37,94.23 283.15,90.74 290.48,88.95 298.16,88.37 305.71,88.68 313.85,90.35 328.31,95.98 344.55,104.94 396.03,147.25 509.91,246.20"
        fill="none"
        stroke="#e94560"
        stroke-width="8.0"
        stroke-linejoin="round"
        stroke-linecap="round"/>
  <!-- Start/finish line -->
  <line x1="523.03" y1="231.10" x2="496.80" y2="261.30"
        stroke="#f5f5f5" stroke-width="9.6"
        stroke-linecap="round"/>
</svg>
