<?xml version="1.0" encoding="utf-8"?>
<svg xmlns="http://www.w3.org/2000/svg"
     width="778.3" height="800.0"
     viewBox="0 0 778.3 800.0">
  <rect width="100%" height="100%" fill="#1a1a2e"/>
  <!-- Track outline -->
  <polyline points="292.04,117.51 114.69,50.72 81.95,40.75 74.20,40.00 67.25,40.48 62.70,41.47 58.26,42.98 54.20,44.91 51.00,46.96 48.12,49.34 45.63,52.05 43.64,54.88 41.99,57.99 40.83,61.32 40.17,65.11 40.00,69.13 40.40,73.14 41.46,77.41 43.15,81.69 45.42,85.77 51.08,92.29 58.22,98.82 81.62,119.50 104.02,146.55 132.55,191.99 172.79,268.95 219.43,364.22 240.63,416.47 256.72,469.57 311.67,710.42 316.53,722.72 321.55,731.24 328.21,739.71 335.86,746.85 344.26,752.32 353.34,756.32 362.87,758.90 373.59,760.00 392.80,758.88 415.57,755.47 495.66,738.04 613.33,720.64 692.46,709.57 703.89,706.46 712.95,702.66 720.44,698.14 726.81,692.80 731.20,687.58 734.58,681.83 736.83,675.82 738.07,669.53 738.27,665.37 737.99,661.19 737.24,657.11 736.02,653.11 734.28,649.24 731.92,645.31 724.68,636.68 715.03,628.02 697.61,615.81 679.14,605.48 667.64,600.72 656.00,597.67 640.19,595.48 621.52,595.38 533.83,610.53 473.87,620.47 457.98,621.23 444.10,620.63 433.63,619.16 423.79,616.66 414.04,613.04 404.67,608.34 395.74,602.50 387.39,595.60 379.67,587.55 372.66,578.53 366.41,568.79 360.70,557.70 347.31,521.28 306.29,400.55 279.17,350.97 227.30,277.70 222.29,268.37 219.26,260.37 217.59,252.90 217.12,245.51 218.07,238.02 220.12,230.94 222.84,225.26 226.30,220.21 230.61,215.58 235.55,211.72 241.18,208.64 247.23,206.45 253.65,205.16 260.46,204.81 268.33,205.49 278.26,207.71 378.99,245.05 425.33,265.03 434.57,270.50 442.28,276.25 449.45,282.79 455.89,290.02 461.44,297.60 466.08,305.79 469.58,314.57 471.90,323.50 472.74,331.05 472.61,338.50 471.53,346.21 469.51,353.80 466.53,361.30 462.52,368.58 449.22,384.65 422.10,413.55 415.98,423.14 411.77,432.60 409.59,441.25 408.78,450.05 409.31,459.41 411.23,468.68 414.76,477.93 419.58,486.65 425.84,495.09 433.13,502.67 441.50,509.42 450.59,514.99 460.35,519.23 470.57,522.05 480.76,523.50 492.38,523.31 519.46,518.28 549.53,509.92 578.54,500.10 603.01,489.49 611.58,484.21 618.34,478.41 624.60,471.29 629.82,463.19 633.76,454.10 636.40,444.40 637.59,434.62 637.39,424.62 635.82,414.34 632.06,402.80 591.86,334.47 539.18,250.31 524.05,231.93 508.43,216.61 488.13,200.07 464.81,184.75 391.13,150.84 292.04,117.51"
        fill="none"
        stroke="#e94560"
        stroke-width="8.0"
        stroke-linejoin="round"
        stroke-linecap="round"/>
  <!-- Start/finish line -->
  <line x1="285.23" y1="136.32" x2="298.85" y2="98.71"
        stroke="#f5f5f5" stroke-width="9.6"
        stroke-linecap="round"/>
</svg>
