<?xml version="1.0" encoding="utf-8"?>
<svg xmlns="http://www.w3.org/2000/svg"
     width="800.0" height="526.3"
     viewBox="0 0 800.0 526.3">
  <rect width="100%" height="100%" fill="#1a1a2e"/>
  <!-- Track outline -->
  <polyline points="664.85,454.65 662.86,455.13 600.41,479.53 582.99,484.16 565.83,486.28 548.54,485.98 533.65,483.44 519.32,478.65 505.69,471.40 492.86,461.64 481.16,449.58 470.95,435.48 460.95,417.27 436.64,363.64 396.54,270.35 392.10,255.19 391.22,249.51 390.92,244.09 391.16,238.88 391.97,233.83 393.36,229.07 395.31,224.52 397.90,220.11 401.01,215.98 404.67,212.06 408.78,208.51 413.35,205.29 418.28,202.50 423.62,200.14 429.40,198.19 445.27,194.93 460.88,193.94 475.20,195.34 480.53,196.58 485.52,198.28 490.44,200.51 495.08,203.25 499.39,206.54 503.25,210.22 506.23,213.81 508.79,217.74 511.24,222.65 513.18,227.93 514.54,233.43 515.29,239.08 515.43,244.79 515.00,250.66 512.20,264.37 502.20,292.06 486.44,335.01 484.46,344.92 483.85,353.75 484.38,361.92 485.85,369.63 487.89,376.11 490.60,382.09 493.75,387.37 497.47,392.13 501.64,396.24 506.29,399.70 511.25,402.38 516.53,404.33 522.12,405.52 527.94,405.94 534.45,405.49 541.02,404.18 547.58,401.97 553.89,398.96 560.05,395.12 565.62,390.71 569.80,386.46 573.34,381.77 576.43,376.37 578.95,370.11 581.63,359.42 583.44,347.22 584.21,315.79 578.23,273.82 563.77,225.48 552.42,197.90 546.79,188.48 540.48,180.15 533.55,172.82 525.85,166.37 517.19,160.73 507.72,156.02 497.24,152.13 484.49,148.92 406.85,139.29 363.06,136.90 354.41,137.55 346.92,139.01 339.35,141.48 332.33,144.73 326.90,148.07 321.91,152.13 316.29,158.15 311.15,165.19 306.27,173.94 302.39,183.22 300.03,191.87 298.73,200.37 298.40,207.34 298.98,214.29 300.81,222.53 303.99,231.34 319.84,259.29 326.16,272.07 327.82,277.07 328.88,281.95 329.35,286.72 329.20,291.40 328.41,295.73 327.05,299.92 325.10,304.09 322.61,308.06 319.35,312.00 315.56,315.67 311.06,319.22 306.02,322.47 292.69,328.81 272.89,334.93 242.67,341.19 205.07,346.15 178.23,348.21 171.30,347.90 165.06,346.99 159.11,345.48 153.37,343.40 147.63,340.65 142.22,337.42 137.58,334.04 133.36,330.29 129.47,326.02 126.07,321.41 123.41,316.71 121.34,311.80 119.88,306.69 118.96,301.39 118.55,295.82 118.67,289.85 121.36,271.60 128.59,237.27 128.63,230.72 127.83,224.99 126.34,219.01 124.13,213.37 121.39,208.66 118.01,204.44 114.02,200.69 108.94,197.23 83.13,186.59 54.67,175.03 50.74,172.86 47.68,170.64 44.87,167.93 42.60,164.95 41.60,163.11 40.85,161.22 40.33,159.28 40.00,156.34 40.17,153.37 40.85,150.36 42.06,147.45 44.12,144.30 46.75,141.41 49.93,138.88 53.58,136.72 58.21,134.74 63.62,133.10 83.89,129.45 183.95,110.84 509.21,42.22 528.74,40.00 543.23,40.33 550.29,41.38 557.08,43.00 562.97,44.99 568.56,47.51 573.89,50.58 579.14,54.34 592.27,66.58 626.08,105.66 645.10,129.92 653.89,144.75 659.14,157.99 660.85,164.66 661.96,171.43 662.20,185.46 657.66,227.01 661.23,262.09 671.44,319.21 676.09,343.74 678.03,348.36 680.32,352.05 682.85,354.99 685.74,357.40 688.98,359.30 692.57,360.68 696.86,361.59 701.78,361.85 711.27,360.55 721.00,358.82 732.40,357.92 736.67,358.36 740.66,359.34 744.43,360.89 747.94,362.97 751.16,365.63 753.97,368.75 756.35,372.37 758.18,376.33 759.40,380.55 760.00,384.92 759.96,389.40 759.31,393.87 758.02,398.31 756.14,402.62 753.63,406.89 750.58,410.93 746.87,414.81 742.52,418.51 728.88,427.31 702.95,439.78 670.16,453.36 664.85,454.65"
        fill="none"
        stroke="#e94560"
        stroke-width="8.0"
        stroke-linejoin="round"
        stroke-linecap="round"/>
  <!-- Start/finish line -->
  <line x1="669.57" y1="474.08" x2="660.12" y2="435.21"
        stroke="#f5f5f5" stroke-width="9.6"
        stroke-linecap="round"/>
</svg>
