<?xml version="1.0" encoding="utf-8"?>
<svg xmlns="http://www.w3.org/2000/svg"
     width="800.0" height="525.8"
     viewBox="0 0 800.0 525.8">
  <rect width="100%" height="100%" fill="#1a1a2e"/>
  <!-- Track outline -->
  <polyline points="664.36,453.82 660.79,455.02 590.18,480.14 576.81,483.72 570.17,484.89 563.55,485.58 556.89,485.84 550.28,485.64 543.65,485.05 536.94,484.07 530.19,482.66 523.56,480.71 517.07,478.23 510.74,475.28 504.63,471.85 498.75,467.91 493.07,463.42 487.60,458.53 482.46,453.14 477.70,447.25 473.27,441.00 469.19,434.39 465.48,427.48 458.83,412.88 443.17,373.57 434.56,358.91 431.18,354.67 423.29,347.47 418.73,344.46 408.67,339.54 403.16,337.71 385.04,334.26 327.32,332.05 268.22,335.84 195.36,344.25 177.21,345.29 166.24,344.91 161.00,344.13 155.81,342.95 150.73,341.28 145.82,339.12 141.17,336.45 136.76,333.29 132.59,329.71 128.71,325.75 125.20,321.41 122.09,316.78 119.51,311.86 117.47,306.66 115.94,301.26 114.93,295.67 114.34,289.90 114.21,284.00 114.54,278.00 115.29,271.96 116.51,265.91 126.32,229.40 126.69,227.21 126.77,225.29 126.42,220.08 125.72,215.32 125.45,214.34 125.06,213.41 122.76,208.83 120.17,204.36 118.72,202.72 114.27,198.54 108.42,194.07 90.53,184.96 59.43,172.49 50.14,167.74 47.49,165.80 45.39,163.94 43.54,161.89 42.06,159.67 40.92,157.27 40.50,156.06 40.19,154.70 40.00,152.05 40.09,149.37 40.35,147.99 40.75,146.73 41.84,144.21 43.40,141.85 45.37,139.70 47.76,137.77 50.56,136.05 57.17,133.27 74.34,129.54 179.27,110.34 411.24,63.34 520.27,41.97 532.60,40.34 538.32,40.00 543.99,40.14 549.60,40.72 555.19,41.81 560.77,43.33 566.20,45.47 571.51,48.14 576.63,51.43 581.65,55.15 586.57,59.26 591.35,63.76 600.46,73.96 645.34,130.07 649.19,135.91 652.60,141.94 655.57,148.23 658.01,154.66 660.00,161.20 661.35,167.81 662.16,174.56 662.47,181.28 662.19,188.02 661.47,194.82 656.99,222.59 656.81,233.49 657.74,244.49 664.37,274.57 669.33,300.67 675.21,338.94 676.50,343.01 677.81,345.96 679.70,349.07 681.98,351.84 684.61,354.23 687.59,356.24 690.82,357.83 694.34,358.97 698.11,359.54 701.95,359.82 705.93,359.51 727.18,355.61 731.50,355.48 735.71,355.91 739.74,356.88 743.48,358.36 746.92,360.29 750.08,362.61 752.88,365.26 755.25,368.24 757.16,371.53 758.60,375.04 759.54,378.71 760.00,382.56 759.97,386.50 759.45,390.50 758.44,394.52 756.99,398.57 755.03,402.60 752.63,406.58 749.78,410.53 746.46,414.36 742.70,418.11 738.54,421.76 733.94,425.20 728.92,428.36 717.78,434.00 678.86,448.93 664.36,453.82"
        fill="none"
        stroke="#e94560"
        stroke-width="8.0"
        stroke-linejoin="round"
        stroke-linecap="round"/>
  <!-- Start/finish line -->
  <line x1="670.75" y1="472.77" x2="657.97" y2="434.87"
        stroke="#f5f5f5" stroke-width="9.6"
        stroke-linecap="round"/>
</svg>
