<?xml version="1.0" encoding="utf-8"?>
<svg xmlns="http://www.w3.org/2000/svg"
     width="488.2" height="800.0"
     viewBox="0 0 488.2 800.0">
  <rect width="100%" height="100%" fill="#1a1a2e"/>
  <!-- Track outline -->
  <polyline points="130.98,84.10 85.78,102.74 73.82,109.71 63.11,118.28 58.33,123.08 54.03,128.25 50.31,133.82 47.16,139.72 44.61,145.90 42.67,152.30 40.50,165.56 40.00,171.98 40.54,179.18 47.08,197.22 54.82,215.15 59.48,228.55 73.70,268.88 94.49,307.57 100.13,321.65 152.47,413.99 215.72,517.25 357.09,726.80 366.27,736.55 376.21,744.93 386.90,751.30 400.70,756.84 407.50,758.79 414.29,759.92 418.63,760.00 422.95,759.62 427.09,758.68 430.91,757.20 434.56,755.20 437.88,752.70 441.18,749.46 444.12,745.67 446.34,741.52 447.65,736.83 448.19,731.80 448.11,726.86 447.42,722.36 446.17,717.96 444.46,713.71 441.49,708.11 436.44,701.41 318.78,584.08 300.86,563.27 292.91,552.45 286.31,541.20 281.36,529.64 279.17,522.03 277.69,514.10 277.23,506.57 277.71,499.19 279.11,492.24 281.43,485.71 284.54,480.02 288.55,474.89 294.31,470.22 300.26,465.61 305.10,460.53 309.09,454.95 311.09,450.92 312.64,446.66 313.47,442.35 313.51,438.12 312.87,433.84 311.57,429.80 309.42,425.93 306.58,422.31 303.33,419.04 297.42,414.65 290.99,411.11 279.32,406.74 239.61,395.76 226.58,391.06 214.22,384.50 202.55,376.04 197.37,371.02 192.68,365.53 184.89,353.14 164.35,312.84 143.30,282.00 125.14,254.77 121.78,247.16 119.92,240.63 118.90,234.39 118.50,228.22 118.92,215.61 121.55,203.23 126.14,191.23 132.82,179.59 141.36,168.53 151.11,158.28 161.61,149.20 167.31,145.46 173.30,142.44 179.50,140.46 185.87,139.39 190.02,139.15 194.18,139.31 198.27,140.11 202.72,141.81 207.08,144.28 210.88,147.25 213.89,150.65 216.39,154.55 218.27,158.70 219.86,165.75 220.26,172.97 219.86,178.77 218.73,185.25 209.13,223.82 208.67,230.85 208.92,237.09 210.55,250.51 212.28,257.02 214.81,263.14 216.96,266.79 219.48,270.20 222.49,273.22 226.50,276.18 231.09,278.71 235.87,280.49 240.88,281.35 246.08,281.46 251.01,280.93 255.10,279.92 258.96,278.38 262.55,276.38 267.52,272.45 271.80,267.67 275.35,262.24 278.13,256.28 280.07,249.82 281.24,243.07 281.72,236.45 281.49,228.52 273.47,169.21 273.10,156.25 274.43,143.07 277.84,130.25 282.82,118.53 290.65,105.21 298.15,91.65 300.61,84.73 301.80,78.30 302.01,73.99 301.72,69.71 300.82,65.48 299.00,60.81 296.48,56.20 293.51,52.22 290.49,49.36 287.10,47.00 283.51,45.00 277.61,42.64 271.34,41.07 264.74,40.19 258.02,40.00 252.09,40.16 244.39,41.51 164.51,70.26 130.98,84.10"
        fill="none"
        stroke="#e94560"
        stroke-width="8.0"
        stroke-linejoin="round"
        stroke-linecap="round"/>
  <!-- Start/finish line -->
  <line x1="138.61" y1="102.58" x2="123.36" y2="65.61"
        stroke="#f5f5f5" stroke-width="9.6"
        stroke-linecap="round"/>
</svg>
