<?xml version="1.0" encoding="utf-8"?>
<svg xmlns="http://www.w3.org/2000/svg"
     width="800.0" height="483.2"
     viewBox="0 0 800.0 483.2">
  <rect width="100%" height="100%" fill="#1a1a2e"/>
  <!-- Track outline -->
  <polyline points="415.83,40.50 362.77,40.89 264.90,48.12 216.12,58.71 168.32,76.44 144.90,88.52 122.69,102.77 102.26,119.31 84.01,138.02 69.15,158.62 56.88,180.70 49.53,195.45 43.23,210.70 40.00,227.63 41.86,267.92 59.46,311.29 70.69,330.90 83.69,348.82 99.03,365.05 115.99,379.91 153.46,405.75 194.16,423.97 213.62,430.70 238.09,435.95 352.52,443.08 476.72,443.18 567.40,433.57 612.87,425.15 633.30,418.22 654.54,407.93 681.59,391.00 711.06,369.41 734.24,347.73 744.50,333.67 751.68,319.51 756.69,304.66 759.68,279.51 759.52,253.57 760.00,228.42 757.66,203.96 752.73,188.02 745.71,172.58 737.15,158.02 721.32,138.32 702.91,120.79 682.64,105.35 661.00,91.78 615.77,69.11 570.63,54.06 524.85,45.45 469.37,40.00 415.83,40.50"
        fill="none"
        stroke="#e94560"
        stroke-width="8.0"
        stroke-linejoin="round"
        stroke-linecap="round"/>
  <!-- Start/finish line -->
  <line x1="415.99" y1="60.49" x2="415.66" y2="20.50"
        stroke="#f5f5f5" stroke-width="9.6"
        stroke-linecap="round"/>
</svg>
