<?xml version="1.0" encoding="utf-8"?>
<svg xmlns="http://www.w3.org/2000/svg"
     width="760.0" height="800.0"
     viewBox="0 0 760.0 800.0">
  <rect width="100%" height="100%" fill="#1a1a2e"/>
  <!-- Track outline -->
  <polyline points="549.47,159.64 560.66,179.24 705.04,508.71 716.36,544.11 719.31,562.17 720.05,580.43 718.20,599.30 713.59,617.63 705.78,634.82 695.38,650.69 682.28,665.48 667.15,678.68 630.36,701.34 574.20,727.61 530.95,742.27 469.81,755.47 425.15,760.00 382.52,758.07 362.46,753.93 342.96,748.07 324.02,740.80 305.81,731.87 288.83,721.47 273.20,709.41 260.10,696.21 249.03,681.68 240.79,666.62 235.25,650.69 233.47,640.09 232.91,629.29 233.77,618.76 236.11,608.43 239.80,598.36 244.54,588.83 253.95,574.97 265.64,562.70 278.86,552.44 296.15,543.51 355.70,527.91 417.33,514.78 456.70,502.91 474.91,494.18 491.95,483.45 507.51,470.72 521.29,456.06 532.86,439.79 541.90,422.06 547.50,403.20 550.27,383.47 550.45,363.81 547.44,341.08 530.03,273.76 508.13,208.57 499.46,189.31 490.35,174.11 480.57,160.51 469.19,148.85 459.23,141.65 448.15,135.58 437.02,132.12 429.21,131.52 421.21,132.18 413.52,134.12 406.57,137.12 400.42,141.38 394.70,146.85 389.77,153.18 385.96,159.98 383.13,167.71 381.35,176.31 380.67,185.17 381.22,193.84 384.73,205.84 390.76,217.70 398.33,230.23 420.41,259.36 442.86,288.02 453.69,304.82 461.81,321.08 467.04,337.61 469.50,354.34 469.19,365.14 467.59,375.94 464.76,386.14 460.70,395.67 455.41,404.67 449.20,413.00 437.63,424.40 424.22,433.99 408.11,442.06 390.88,447.79 373.47,450.99 356.25,451.52 345.98,450.46 336.01,448.19 326.48,444.39 316.39,438.33 306.85,430.46 299.04,421.20 293.38,410.20 289.51,397.80 287.23,385.54 286.49,374.94 287.17,364.47 289.32,354.01 295.72,340.81 304.39,326.88 311.59,308.15 317.31,284.15 320.88,263.63 322.60,245.96 322.17,234.83 320.57,223.90 317.13,213.70 312.45,205.64 306.30,197.84 299.22,191.04 291.66,186.04 285.08,183.44 277.82,181.84 270.25,181.24 262.87,181.64 256.04,183.24 247.86,187.31 239.99,193.44 232.85,200.77 226.76,208.50 220.73,219.17 216.24,230.90 212.98,242.70 210.70,257.43 210.21,274.56 218.33,380.27 217.96,397.07 215.20,411.33 210.40,422.86 203.69,434.13 195.63,443.39 188.87,448.59 181.30,452.79 173.30,455.86 165.18,457.66 153.74,457.79 141.87,455.59 130.24,451.86 112.22,442.73 95.67,431.06 83.43,420.13 72.66,407.93 62.58,393.87 53.96,378.40 46.71,360.47 41.72,341.54 40.00,322.21 40.62,302.55 42.95,282.29 47.44,262.23 54.76,241.83 64.54,222.57 76.66,205.44 90.57,189.71 104.96,175.44 122.55,161.18 216.67,104.72 305.56,62.86 347.70,47.00 368.18,42.27 388.73,40.00 409.34,40.80 429.58,44.47 449.20,51.20 467.90,60.66 485.18,72.79 501.06,87.26 515.27,103.99 528.61,123.05 549.47,159.64"
        fill="none"
        stroke="#e94560"
        stroke-width="8.0"
        stroke-linejoin="round"
        stroke-linecap="round"/>
  <!-- Start/finish line -->
  <line x1="566.84" y1="149.74" x2="532.10" y2="169.55"
        stroke="#f5f5f5" stroke-width="9.6"
        stroke-linecap="round"/>
</svg>
