<?xml version="1.0" encoding="utf-8"?>
<svg xmlns="http://www.w3.org/2000/svg"
     width="754.5" height="800.0"
     viewBox="0 0 754.5 800.0">
  <rect width="100%" height="100%" fill="#1a1a2e"/>
  <!-- Track outline -->
  <polyline points="219.90,106.97 291.61,67.24 325.24,52.41 358.68,42.48 375.28,40.34 391.87,40.00 408.59,41.41 425.13,44.43 441.11,48.59 456.53,54.36 471.20,62.01 485.20,71.20 511.52,93.28 535.24,121.33 556.23,153.33 594.38,225.80 610.29,257.34 638.84,324.98 649.06,360.41 651.29,377.79 651.48,395.17 649.31,412.28 645.16,429.19 638.84,446.30 630.67,462.74 620.26,478.78 608.56,493.27 597.29,504.14 585.28,513.67 557.47,531.32 526.94,544.67 496.72,552.99 441.66,560.17 387.79,569.90 376.95,574.40 368.53,579.43 361.59,586.01 357.88,590.97 354.59,596.74 351.87,602.92 350.07,609.16 349.45,615.19 350.07,621.23 351.87,627.41 354.53,633.51 357.94,639.22 361.72,644.38 368.03,650.56 375.65,655.93 384.01,660.42 392.37,663.78 403.52,666.26 415.10,666.86 426.55,666.46 442.72,664.04 458.82,659.68 494.18,645.66 551.40,610.30 607.57,575.54 623.61,567.96 637.91,563.79 649.43,562.39 661.32,562.39 672.47,564.47 679.84,567.49 686.96,571.65 693.46,576.75 699.10,582.52 703.99,589.23 708.20,596.88 711.48,605.06 713.59,613.45 714.46,625.73 713.34,638.61 710.62,650.62 706.72,660.42 701.45,669.41 695.26,677.73 683.55,689.27 669.93,699.14 654.57,707.26 636.06,714.77 537.90,747.25 499.81,755.91 460.06,760.00 420.11,757.52 382.65,749.73 349.21,737.99 319.85,724.23 302.33,714.44 285.67,703.03 272.73,691.22 262.14,678.07 257.00,669.01 252.91,659.35 250.00,649.15 248.02,637.27 247.40,624.72 248.64,612.51 252.29,600.43 257.86,588.69 264.49,578.02 275.45,565.20 288.39,554.47 302.95,545.54 321.52,537.69 386.80,521.72 451.39,506.83 467.80,500.85 480.99,494.21 494.24,485.49 506.44,475.36 517.09,464.48 526.69,452.00 536.91,434.36 545.08,415.63 549.48,400.34 552.14,385.04 553.94,352.02 553.44,335.72 550.97,317.13 536.29,265.53 517.96,214.20 509.60,194.40 500.74,178.10 491.08,163.60 479.56,151.39 472.26,146.15 464.14,141.52 455.66,137.97 447.24,135.89 439.13,135.28 430.83,135.96 422.78,137.77 415.47,140.99 408.59,146.02 402.22,152.60 396.64,160.18 392.18,168.03 388.10,178.90 385.74,190.71 385.06,202.32 386.24,213.12 389.03,223.79 392.99,234.19 402.03,250.16 413.36,265.33 441.23,294.45 453.00,309.61 462.78,325.58 469.35,341.82 473.00,358.40 473.62,368.80 472.88,379.13 470.34,389.13 464.58,400.27 456.47,410.94 447.36,420.06 437.95,426.91 427.61,432.28 416.96,436.57 405.93,439.99 394.60,442.34 383.45,443.01 372.86,441.87 362.40,439.19 352.43,435.23 342.64,429.93 333.29,423.35 324.99,415.63 317.81,406.71 311.62,396.64 306.60,385.98 301.15,368.40 298.36,349.81 298.55,330.82 301.46,310.22 312.42,274.79 321.83,239.96 322.33,230.23 321.96,221.11 320.47,212.79 317.56,205.27 313.97,199.57 309.26,194.13 303.87,189.30 298.05,185.48 292.17,182.99 285.92,181.92 279.04,182.12 272.04,183.40 265.29,185.48 259.22,188.23 252.72,192.72 246.78,198.49 241.45,205.14 236.87,212.32 231.60,223.66 227.83,236.34 225.35,249.02 224.79,266.00 225.97,284.59 231.54,359.07 228.69,380.00 223.18,398.39 218.48,409.46 212.78,419.79 205.72,428.99 196.37,437.58 185.53,444.82 174.01,449.92 161.56,452.41 148.44,452.67 135.86,451.13 125.09,448.11 114.81,443.55 104.90,437.85 89.79,426.44 76.35,413.15 66.69,400.87 58.64,387.72 51.77,373.09 46.32,357.73 42.23,341.89 40.00,325.79 40.25,309.82 42.35,293.85 46.01,277.54 51.21,261.44 58.08,245.26 66.57,229.63 88.86,199.90 115.86,172.26 146.83,147.50 219.90,106.97"
        fill="none"
        stroke="#e94560"
        stroke-width="8.0"
        stroke-linejoin="round"
        stroke-linecap="round"/>
  <!-- Start/finish line -->
  <line x1="210.20" y1="89.47" x2="229.60" y2="124.46"
        stroke="#f5f5f5" stroke-width="9.6"
        stroke-linecap="round"/>
</svg>
