<?xml version="1.0" encoding="utf-8"?>
<svg xmlns="http://www.w3.org/2000/svg"
     width="303.7" height="800.0"
     viewBox="0 0 303.7 800.0">
  <rect width="100%" height="100%" fill="#1a1a2e"/>
  <!-- Track outline -->
  <polyline points="207.62,576.19 200.19,552.24 195.10,541.09 188.77,530.68 181.55,521.56 173.42,513.95 164.71,507.51 155.52,502.35 150.62,500.39 145.63,498.90 140.53,497.89 135.38,497.35 130.23,497.27 125.12,497.64 120.12,498.44 115.19,499.73 105.65,503.92 80.19,517.65 74.98,519.42 70.33,520.30 65.47,520.61 60.70,520.13 57.74,519.38 54.83,518.28 52.11,516.77 49.73,514.98 47.51,512.84 45.60,510.38 44.13,507.81 42.92,504.96 42.09,501.94 41.67,497.01 41.94,492.07 42.67,487.99 43.81,484.14 45.40,480.11 47.37,476.34 49.92,472.64 52.81,469.27 59.92,463.11 94.01,438.25 102.31,430.47 110.18,421.84 117.20,412.38 123.07,402.77 126.70,395.53 129.45,387.55 131.48,379.23 132.40,370.48 132.12,358.71 130.05,342.94 92.41,224.90 42.89,69.64 40.72,60.98 40.02,56.38 40.00,51.91 40.50,49.85 41.28,47.86 42.28,46.05 43.40,44.48 44.94,43.04 46.73,41.90 48.66,41.05 50.62,40.44 52.74,40.07 54.96,40.00 57.17,40.20 59.26,40.68 61.60,41.65 63.81,43.02 65.93,44.69 68.96,47.73 71.67,51.23 75.49,58.19 78.91,66.52 157.86,320.60 164.18,341.33 165.95,351.10 166.34,360.57 165.39,370.04 163.00,379.33 159.46,387.96 145.56,409.78 143.41,413.84 141.98,417.67 141.24,421.74 141.12,425.85 141.45,428.47 142.06,431.03 142.97,433.46 144.58,436.28 146.62,438.90 148.79,441.09 150.98,442.69 153.29,443.86 155.68,444.81 163.80,446.58 182.47,449.81 186.33,451.15 189.73,452.74 196.77,456.91 203.34,462.48 209.37,469.37 214.49,477.61 218.59,486.92 259.19,617.24 261.94,629.71 263.51,642.25 263.69,654.97 262.31,667.75 259.13,680.55 254.53,693.11 248.62,705.34 242.14,716.55 235.32,726.54 228.27,735.15 221.13,742.49 213.95,748.43 206.78,753.07 197.65,757.52 193.46,759.00 189.25,759.85 186.12,760.00 182.95,759.78 179.99,758.98 178.12,758.08 176.31,756.93 174.67,755.50 173.30,753.82 172.27,752.03 171.38,750.01 170.76,747.87 170.48,745.75 170.61,743.62 171.08,741.43 171.81,739.34 172.73,737.46 174.61,735.08 177.03,733.14 179.85,731.31 188.50,727.22 197.13,723.48 203.81,719.13 206.92,716.45 209.87,713.42 215.10,706.44 219.44,698.32 225.26,679.60 226.75,669.36 227.22,658.67 222.59,624.46 207.62,576.19"
        fill="none"
        stroke="#e94560"
        stroke-width="8.0"
        stroke-linejoin="round"
        stroke-linecap="round"/>
  <!-- Start/finish line -->
  <line x1="188.52" y1="582.11" x2="226.72" y2="570.26"
        stroke="#f5f5f5" stroke-width="9.6"
        stroke-linecap="round"/>
</svg>
