<?xml version="1.0" encoding="utf-8"?>
<svg xmlns="http://www.w3.org/2000/svg"
     width="800.0" height="780.9"
     viewBox="0 0 800.0 780.9">
  <rect width="100%" height="100%" fill="#1a1a2e"/>
  <!-- Track outline -->
  <polyline points="491.30,704.20 499.17,707.10 520.12,712.42 633.44,737.75 657.06,740.88 679.80,739.89 700.92,736.05 712.84,732.61 724.35,727.97 734.40,722.11 743.23,714.92 748.08,709.52 752.29,703.53 755.60,697.23 757.92,690.57 759.39,683.56 760.00,676.54 759.81,669.62 758.80,662.74 756.85,655.99 753.63,648.85 749.36,641.88 744.27,635.80 738.83,631.06 732.59,627.13 724.51,623.38 682.39,612.48 639.86,603.05 619.20,595.41 599.07,585.36 580.57,572.05 572.09,564.27 564.52,555.65 558.68,547.12 553.21,535.68 534.92,468.62 517.51,401.25 508.29,380.52 495.14,359.97 334.45,173.18 241.24,74.58 224.61,62.34 207.09,52.29 195.68,47.68 183.63,43.98 171.58,41.38 159.42,40.00 147.29,40.00 135.34,41.43 123.88,44.24 113.03,48.53 103.13,54.43 94.34,61.80 87.03,70.65 81.11,80.61 76.90,89.95 73.38,102.68 50.37,324.32 40.00,480.51 41.09,493.86 43.39,504.23 46.91,514.82 51.89,524.51 56.05,530.10 60.90,535.14 66.29,539.30 72.29,542.34 78.85,544.48 85.51,545.69 92.23,545.87 99.06,545.15 105.61,543.54 114.84,539.34 123.40,533.67 130.97,527.33 138.41,519.42 163.50,484.71 174.78,463.17 183.15,442.62 186.00,431.27 187.52,419.57 187.25,407.28 185.36,394.95 176.53,370.60 149.13,311.45 142.22,291.12 137.29,265.44 136.86,253.51 137.74,241.98 139.74,231.57 143.21,221.65 146.86,214.68 151.42,207.94 156.67,202.00 162.67,197.04 169.36,192.84 176.40,189.66 183.68,187.56 191.25,186.40 198.64,186.40 205.46,187.52 212.13,189.62 218.26,192.66 223.86,196.68 228.95,201.64 233.22,207.09 236.66,213.07 239.30,219.60 240.90,226.30 240.79,236.62 239.08,247.12 236.52,257.53 234.12,267.98 233.08,278.84 233.78,289.43 235.06,294.43 236.87,299.39 239.30,304.04 242.36,308.01 246.52,311.63 251.51,314.71 256.89,317.08 262.28,318.38 269.40,317.97 276.73,315.92 284.09,313.60 295.34,309.75 306.51,306.45 316.75,305.24 326.77,305.64 333.41,306.98 339.92,309.17 345.94,312.39 350.56,315.96 354.96,320.25 358.77,325.12 361.59,330.26 363.30,335.89 364.10,342.01 364.15,348.26 363.62,354.12 362.07,360.77 359.57,367.12 356.45,373.15 351.12,380.92 343.49,389.28 276.89,447.36 268.12,456.83 261.85,465.76 258.17,472.73 255.24,480.06 253.64,487.39 253.45,492.66 253.91,498.06 255.11,503.25 257.08,508.03 260.15,512.63 264.17,517.01 268.78,520.71 273.64,523.35 278.86,524.87 284.59,525.45 290.38,525.14 295.74,524.02 301.82,521.16 307.42,516.78 313.63,511.06 336.24,485.51 358.34,459.60 374.28,445.48 383.32,439.14 392.95,433.82 403.24,429.84 413.85,427.65 420.86,427.52 427.90,428.32 434.59,430.29 439.69,432.84 444.67,436.19 449.20,440.12 452.91,444.50 455.71,449.37 457.84,454.77 459.28,460.49 460.06,466.16 459.87,473.98 458.43,481.89 456.35,489.44 452.59,499.00 447.60,507.80 441.79,515.71 434.30,523.48 417.24,536.04 399.75,548.50 390.98,556.19 383.88,564.18 378.02,573.92 373.83,584.60 371.57,596.62 371.25,608.77 372.66,619.09 375.54,629.01 379.62,638.70 385.11,647.86 392.87,656.80 401.96,664.88 412.20,672.03 423.26,678.24 447.84,688.20 491.30,704.20"
        fill="none"
        stroke="#e94560"
        stroke-width="8.0"
        stroke-linejoin="round"
        stroke-linecap="round"/>
  <!-- Start/finish line -->
  <line x1="498.21" y1="685.43" x2="484.39" y2="722.97"
        stroke="#f5f5f5" stroke-width="9.6"
        stroke-linecap="round"/>
</svg>
