<?xml version="1.0" encoding="utf-8"?>
<svg xmlns="http://www.w3.org/2000/svg"
     width="800.0" height="659.9"
     viewBox="0 0 800.0 659.9">
  <rect width="100%" height="100%" fill="#1a1a2e"/>
  <!-- Track outline -->
  <polyline points="222.93,492.69 243.88,507.12 317.95,551.12 407.78,595.93 462.16,611.98 513.37,619.26 560.26,619.95 604.07,614.17 636.83,603.90 666.42,588.88 692.94,569.60 716.09,546.16 734.73,519.25 748.86,489.22 757.02,457.93 760.00,425.48 757.50,393.14 749.43,360.58 739.25,334.71 725.51,308.73 707.64,282.97 654.32,229.51 586.20,178.23 479.07,114.83 369.93,65.41 305.08,47.28 247.81,40.00 210.25,40.81 176.04,47.39 154.52,54.44 133.77,63.90 114.65,75.68 97.93,89.43 82.75,105.36 69.69,122.92 54.99,151.44 45.00,182.62 40.00,215.53 40.00,249.02 44.71,281.93 54.80,314.73 74.40,353.88 101.01,391.99 143.19,435.76 185.65,471.21 222.93,492.69"
        fill="none"
        stroke="#e94560"
        stroke-width="8.0"
        stroke-linejoin="round"
        stroke-linecap="round"/>
  <!-- Start/finish line -->
  <line x1="233.43" y1="475.67" x2="212.43" y2="509.71"
        stroke="#f5f5f5" stroke-width="9.6"
        stroke-linecap="round"/>
</svg>
