<?xml version="1.0" encoding="utf-8"?>
<svg xmlns="http://www.w3.org/2000/svg"
     width="527.5" height="800.0"
     viewBox="0 0 527.5 800.0">
  <rect width="100%" height="100%" fill="#1a1a2e"/>
  <!-- Track outline -->
  <polyline points="40.73,430.86 41.75,488.33 46.15,518.94 53.32,559.73 65.40,607.02 78.39,637.49 95.10,664.92 121.51,696.31 151.94,723.17 181.63,741.05 212.00,753.00 239.38,758.80 266.76,760.00 294.87,756.96 322.48,749.54 348.50,738.16 373.45,721.97 400.10,697.30 423.97,667.46 442.66,635.94 457.73,598.54 472.92,532.94 482.40,456.94 487.54,352.60 483.19,255.05 473.20,209.87 458.69,172.12 442.04,140.59 422.11,113.03 398.12,88.35 371.25,68.21 341.05,53.29 310.40,43.75 286.52,40.00 262.53,40.28 231.87,45.09 201.17,54.92 173.56,69.48 148.10,88.42 126.26,110.48 106.84,136.57 88.10,169.15 71.84,209.31 51.01,298.24 40.00,386.89 40.73,430.86"
        fill="none"
        stroke="#e94560"
        stroke-width="8.0"
        stroke-linejoin="round"
        stroke-linecap="round"/>
  <!-- Start/finish line -->
  <line x1="60.73" y1="430.51" x2="20.74" y2="431.20"
        stroke="#f5f5f5" stroke-width="9.6"
        stroke-linecap="round"/>
</svg>
