<?xml version="1.0" encoding="utf-8"?>
<svg xmlns="http://www.w3.org/2000/svg"
     width="800.0" height="667.8"
     viewBox="0 0 800.0 667.8">
  <rect width="100%" height="100%" fill="#1a1a2e"/>
  <!-- Track outline -->
  <polyline points="422.76,50.25 487.25,44.78 558.45,40.00 578.64,40.76 597.41,44.04 614.82,49.50 627.92,55.57 640.08,63.48 651.36,73.05 661.48,84.32 672.71,101.12 682.54,120.11 690.53,140.66 697.04,163.16 705.08,202.72 710.25,240.65 713.27,281.05 717.73,434.83 725.34,477.10 738.90,520.75 754.43,558.36 759.01,574.93 759.77,580.12 760.00,585.16 759.66,591.13 758.73,596.83 757.46,600.98 755.69,604.75 752.69,609.22 749.12,613.32 744.90,617.22 740.45,620.47 736.42,622.68 732.13,624.39 726.09,626.12 719.79,627.28 714.23,627.78 708.50,627.75 692.98,625.77 676.35,620.76 658.45,612.69 639.78,601.61 613.09,582.06 585.94,558.86 403.06,384.45 338.64,323.84 255.53,250.10 229.91,231.15 218.38,225.06 207.95,220.74 202.62,219.03 197.35,218.07 188.24,217.65 178.56,218.34 169.54,220.21 161.16,223.02 155.46,225.72 150.32,229.05 145.78,232.85 141.51,237.49 136.84,243.97 132.73,251.49 129.87,259.21 127.49,268.29 121.07,306.32 119.06,312.80 116.84,317.88 114.46,322.03 111.80,325.65 108.65,329.07 105.24,332.04 101.44,334.70 97.43,336.87 93.16,338.52 88.77,339.61 84.17,340.14 79.52,340.09 74.80,339.45 70.11,338.25 65.52,336.53 61.07,334.28 56.95,331.60 53.09,328.42 49.77,324.87 46.80,320.85 44.35,316.62 42.37,312.01 40.99,307.26 40.16,302.25 40.00,297.07 40.39,291.64 43.14,277.57 50.77,256.77 71.90,214.85 85.55,191.11 99.22,171.15 115.15,151.80 133.25,133.78 153.36,117.37 175.31,102.46 193.93,91.99 213.41,83.20 238.95,74.66 271.15,67.10 310.86,60.64 365.20,55.12 409.51,51.38 422.76,50.25"
        fill="none"
        stroke="#e94560"
        stroke-width="8.0"
        stroke-linejoin="round"
        stroke-linecap="round"/>
  <!-- Start/finish line -->
  <line x1="421.06" y1="30.33" x2="424.45" y2="70.18"
        stroke="#f5f5f5" stroke-width="9.6"
        stroke-linecap="round"/>
</svg>
