<?xml version="1.0" encoding="utf-8"?>
<svg xmlns="http://www.w3.org/2000/svg"
     width="766.8" height="800.0"
     viewBox="0 0 766.8 800.0">
  <rect width="100%" height="100%" fill="#1a1a2e"/>
  <!-- Track outline -->
  <polyline points="541.52,555.47 611.42,479.76 704.87,377.82 711.27,368.53 715.67,360.16 721.65,345.49 725.86,331.62 726.67,326.57 726.81,321.77 726.50,313.38 725.22,304.79 722.95,298.18 719.79,292.15 715.97,286.58 711.10,281.48 705.74,277.35 699.47,273.48 692.83,270.46 682.72,267.94 670.88,266.90 641.69,268.40 613.76,269.79 605.56,268.68 598.85,266.77 592.53,264.19 586.50,260.56 578.60,253.45 572.13,246.22 568.78,241.06 563.00,229.37 558.82,215.40 555.57,198.64 543.32,116.01 536.77,94.45 529.53,78.97 521.84,65.50 518.53,61.13 515.24,57.69 507.85,51.35 503.37,48.37 498.28,45.63 490.49,42.28 481.76,40.00 470.54,40.12 460.39,41.63 456.59,42.58 453.19,43.94 448.23,46.40 443.07,49.69 436.40,54.86 430.01,61.19 424.54,68.45 419.10,78.70 396.83,145.70 375.41,213.49 366.16,232.81 355.97,249.36 345.36,262.90 333.55,274.68 306.38,292.52 270.51,312.88 265.84,317.04 262.19,321.37 257.35,327.96 253.17,335.34 250.62,342.85 248.52,351.61 239.26,393.94 236.20,400.03 228.50,412.30 218.08,424.86 203.47,438.79 74.71,538.80 59.93,553.07 52.35,562.30 46.01,572.33 42.21,582.38 40.25,592.17 40.00,596.50 40.26,600.59 41.13,604.72 43.01,610.01 45.69,615.39 49.08,620.22 53.23,624.40 58.11,628.03 63.39,630.89 69.25,633.05 75.53,634.43 81.95,634.89 89.20,634.19 96.57,632.46 103.07,630.25 108.73,627.36 113.79,623.91 125.31,614.65 181.71,560.14 310.91,448.36 328.80,427.84 342.15,408.09 365.74,356.29 410.12,249.05 418.23,235.21 424.54,227.40 427.82,223.86 431.50,220.57 436.83,216.94 442.69,213.96 448.37,212.17 454.10,211.34 459.48,211.46 464.76,212.45 469.94,214.36 474.78,217.09 479.39,221.03 483.21,225.24 485.06,227.74 486.54,230.44 488.47,235.64 490.13,241.58 492.82,254.81 503.57,301.16 520.65,340.91 535.96,376.81 538.38,387.63 539.10,396.59 538.89,403.54 537.85,410.15 535.96,417.32 533.18,424.21 529.67,430.21 525.17,435.68 518.19,441.44 510.63,446.23 499.47,451.28 483.14,457.06 466.18,464.29 461.11,467.49 456.44,471.43 449.09,479.40 442.64,488.19 439.76,493.58 437.42,500.22 430.10,536.21 422.56,574.08 415.45,593.37 406.68,610.50 394.20,629.11 379.66,646.71 363.70,663.13 346.91,677.34 332.28,687.03 321.63,692.20 310.91,696.11 304.24,697.31 297.42,697.62 291.18,696.88 285.22,695.25 279.83,692.88 274.92,689.77 270.64,686.05 267.05,681.71 264.20,676.58 262.25,671.04 261.30,665.47 261.30,659.87 261.80,656.24 262.74,652.61 264.25,649.01 267.30,644.18 271.27,639.32 275.50,635.23 280.59,631.94 286.90,628.96 332.83,608.78 340.90,603.98 347.05,598.96 350.11,595.33 352.60,591.37 354.61,587.12 356.27,582.20 357.37,576.94 357.71,571.86 357.26,567.43 356.14,563.16 354.38,559.04 351.60,554.54 348.03,550.24 343.85,546.67 338.78,543.84 333.05,541.81 327.10,540.70 320.39,540.79 313.39,541.99 306.64,543.84 297.43,547.81 288.51,552.88 269.53,565.90 239.30,593.37 234.44,598.53 230.24,604.19 215.78,621.54 202.71,642.77 190.54,665.75 184.88,680.48 179.27,696.08 176.71,712.94 177.24,726.29 180.76,736.16 185.92,743.57 195.41,749.66 207.48,754.96 232.64,760.00 257.79,758.95 280.68,756.71 313.07,746.34 337.71,732.56 368.37,713.12 413.75,680.30 475.88,626.28 513.16,587.18 541.52,555.47"
        fill="none"
        stroke="#e94560"
        stroke-width="8.0"
        stroke-linejoin="round"
        stroke-linecap="round"/>
  <!-- Start/finish line -->
  <line x1="526.76" y1="541.97" x2="556.28" y2="568.97"
        stroke="#f5f5f5" stroke-width="9.6"
        stroke-linecap="round"/>
</svg>
