<?xml version="1.0" encoding="utf-8"?>
<svg xmlns="http://www.w3.org/2000/svg"
     width="800.0" height="574.6"
     viewBox="0 0 800.0 574.6">
  <rect width="100%" height="100%" fill="#1a1a2e"/>
  <!-- Track outline -->
  <polyline points="177.38,347.61 446.09,514.23 468.37,522.74 517.59,533.48 556.49,534.57 588.07,531.87 617.78,526.99 630.83,523.00 642.05,518.17 663.06,506.60 683.06,490.98 718.95,453.36 732.65,432.97 751.75,389.38 757.56,366.08 760.00,340.71 757.97,308.27 754.11,278.54 752.77,272.57 750.69,266.76 735.82,233.19 720.05,202.42 717.97,199.77 715.61,197.44 677.00,159.82 657.57,146.27 638.47,135.37 627.05,129.46 611.89,123.91 412.56,78.76 212.50,41.40 197.54,40.00 185.23,40.36 153.89,44.26 125.52,50.01 119.10,52.35 113.57,55.15 93.41,67.66 72.64,84.00 66.34,90.80 60.97,97.86 52.11,113.01 48.41,121.52 45.32,130.91 41.99,146.43 40.00,161.32 40.24,173.25 43.41,196.61 50.41,219.75 61.26,242.48 82.27,273.87 106.09,302.72 115.19,309.52 126.94,316.32 177.38,347.61"
        fill="none"
        stroke="#e94560"
        stroke-width="8.0"
        stroke-linejoin="round"
        stroke-linecap="round"/>
  <!-- Start/finish line -->
  <line x1="187.92" y1="330.61" x2="166.84" y2="364.60"
        stroke="#f5f5f5" stroke-width="9.6"
        stroke-linecap="round"/>
</svg>
