<?xml version="1.0" encoding="utf-8"?>
<svg xmlns="http://www.w3.org/2000/svg"
     width="800.0" height="677.8"
     viewBox="0 0 800.0 677.8">
  <rect width="100%" height="100%" fill="#1a1a2e"/>
  <!-- Track outline -->
  <polyline points="426.31,177.61 488.61,200.59 618.73,255.77 668.87,279.80 696.44,297.19 714.96,311.54 730.51,325.50 734.71,330.66 738.08,335.92 750.26,357.01 754.28,367.71 757.35,378.68 759.19,390.13 760.00,401.94 759.52,414.34 754.72,439.59 711.46,549.88 695.01,585.39 683.40,604.20 675.03,614.55 665.75,623.32 655.78,630.23 650.85,632.86 645.66,634.97 639.57,636.72 633.34,637.74 627.64,637.83 622.10,637.13 616.96,635.60 612.11,633.34 607.56,630.32 603.39,626.74 596.08,618.58 582.74,599.69 579.76,594.16 577.57,588.85 575.86,583.41 574.87,577.83 574.96,571.92 575.82,566.06 577.11,560.76 578.98,555.57 584.79,544.78 598.29,526.48 628.86,489.55 644.69,460.83 649.30,448.27 652.23,436.17 653.22,425.41 653.02,419.31 652.23,413.24 650.96,407.62 648.91,402.29 646.86,398.82 644.36,395.55 641.48,392.92 638.37,391.15 634.90,389.94 631.33,389.29 627.36,389.24 623.25,389.82 619.29,390.85 613.70,393.20 608.49,396.27 603.85,399.59 599.51,403.38 590.95,412.96 564.88,453.36 558.38,461.55 549.42,471.46 539.80,479.71 534.87,482.97 529.74,485.69 524.62,487.80 519.36,489.34 514.12,490.22 508.79,490.39 502.75,489.55 496.82,487.71 493.15,485.92 489.65,483.69 486.48,481.08 483.65,478.08 481.15,474.71 479.08,471.08 476.79,464.92 475.50,458.48 475.25,452.69 475.73,446.87 478.50,434.15 487.50,400.55 487.94,393.99 487.50,388.24 486.46,382.64 484.78,377.24 482.54,372.13 479.70,367.24 476.13,362.45 472.02,357.92 462.17,349.31 453.08,343.29 419.67,328.80 379.52,315.40 365.70,309.52 351.86,302.68 338.18,294.82 324.75,286.01 311.72,276.12 234.86,208.49 189.97,183.33 173.61,176.82 111.85,157.19 98.67,151.91 86.70,146.14 75.97,140.03 66.56,133.49 58.57,126.68 50.11,117.17 46.94,112.21 44.36,107.05 42.45,101.84 41.11,96.49 40.28,91.12 40.00,85.70 40.25,80.09 41.08,74.54 42.49,69.23 44.59,64.09 47.80,58.56 51.79,53.47 56.24,49.33 61.27,45.91 67.06,43.23 73.08,41.35 78.41,40.40 83.79,40.00 95.65,40.58 108.48,42.98 151.78,55.54 163.43,60.35 175.45,65.51 299.42,119.21 410.07,171.63 426.31,177.61"
        fill="none"
        stroke="#e94560"
        stroke-width="8.0"
        stroke-linejoin="round"
        stroke-linecap="round"/>
  <!-- Start/finish line -->
  <line x1="433.23" y1="158.84" x2="419.40" y2="196.37"
        stroke="#f5f5f5" stroke-width="9.6"
        stroke-linecap="round"/>
</svg>
