<?xml version="1.0" encoding="utf-8"?>
<svg xmlns="http://www.w3.org/2000/svg"
     width="800.0" height="774.6"
     viewBox="0 0 800.0 774.6">
  <rect width="100%" height="100%" fill="#1a1a2e"/>
  <!-- Track outline -->
  <polyline points="373.79,60.64 522.24,52.04 597.71,43.15 685.15,40.00 698.82,41.42 715.38,44.91 731.48,49.59 738.05,52.63 743.07,55.76 745.66,57.76 747.85,59.87 752.36,65.24 754.31,68.20 755.99,71.30 757.25,74.32 758.24,77.74 759.36,84.31 760.00,90.93 759.84,97.55 758.21,111.95 754.93,124.63 749.83,137.53 742.48,150.16 734.60,159.70 724.91,168.30 713.83,175.83 700.87,181.89 686.69,186.67 647.73,194.82 411.34,226.04 396.11,230.58 374.94,240.78 368.90,244.76 363.45,249.22 356.54,255.90 350.34,263.53 347.16,268.77 344.55,274.30 342.68,280.04 341.50,289.39 341.88,299.08 343.51,309.20 346.79,319.80 364.34,351.96 389.84,392.29 464.88,496.44 520.19,588.45 531.48,610.85 537.09,625.25 541.36,639.00 543.90,651.42 545.45,664.64 545.29,676.07 543.98,686.59 542.22,693.72 539.76,700.24 536.29,706.89 532.50,712.68 530.25,715.57 527.72,718.16 522.38,722.59 516.29,726.73 510.87,729.54 505.26,731.70 499.20,733.33 492.92,734.32 486.32,734.61 479.62,734.24 472.79,733.14 465.98,731.33 459.09,728.66 452.36,725.32 439.38,716.72 430.40,708.57 422.23,699.04 407.41,677.25 383.14,626.56 315.36,462.47 267.34,326.03 256.69,307.01 247.87,295.23 238.93,284.98 230.17,277.61 219.41,270.10 203.84,261.50 184.96,253.63 109.57,235.87 98.16,231.75 84.09,224.81 71.46,216.29 63.10,209.00 55.52,201.09 51.16,195.17 47.69,189.16 44.81,182.88 42.56,176.39 41.04,169.87 40.19,163.28 40.00,156.87 40.61,150.19 42.86,140.55 46.12,131.15 49.11,124.85 52.63,119.13 56.90,113.58 61.68,108.42 72.37,99.29 84.54,91.41 97.90,84.95 112.37,79.87 153.07,72.42 215.53,67.19 298.08,63.96 333.17,61.45 361.85,61.34 373.79,60.64"
        fill="none"
        stroke="#e94560"
        stroke-width="8.0"
        stroke-linejoin="round"
        stroke-linecap="round"/>
  <!-- Start/finish line -->
  <line x1="372.63" y1="40.68" x2="374.95" y2="80.61"
        stroke="#f5f5f5" stroke-width="9.6"
        stroke-linecap="round"/>
</svg>
