<?xml version="1.0" encoding="utf-8"?>
<svg xmlns="http://www.w3.org/2000/svg"
     width="698.3" height="800.0"
     viewBox="0 0 698.3 800.0">
  <rect width="100%" height="100%" fill="#1a1a2e"/>
  <!-- Track outline -->
  <polyline points="506.13,401.75 493.50,395.21 472.00,386.56 453.91,383.02 344.58,350.40 330.16,344.28 317.28,337.61 305.56,329.22 295.35,320.29 286.79,310.57 279.29,299.76 276.14,294.42 273.47,288.72 270.55,276.79 260.35,225.47 257.68,218.15 254.35,211.82 231.22,178.66 167.95,109.79 124.22,58.00 119.18,53.42 114.80,50.29 109.44,47.06 103.75,44.43 96.81,42.21 89.72,40.76 83.34,40.00 77.00,40.00 70.22,40.73 63.58,42.58 59.65,44.48 55.86,46.90 52.39,49.87 48.23,54.77 44.76,60.66 42.29,66.96 40.64,73.79 40.00,79.59 40.28,86.45 44.92,109.71 53.81,140.29 114.50,294.21 149.07,353.50 193.69,405.68 205.08,418.89 214.96,433.03 223.24,447.80 229.70,462.67 237.12,491.67 249.58,559.16 274.23,625.66 303.73,676.33 342.00,721.92 353.25,732.15 378.55,748.80 391.29,754.48 397.20,756.69 403.67,758.44 416.15,759.77 428.62,760.00 440.69,758.59 452.22,755.26 466.38,748.43 472.88,744.21 479.03,739.26 484.38,733.85 489.23,727.67 493.17,721.29 496.57,714.28 499.30,707.09 501.40,699.49 502.69,691.75 503.32,684.07 503.38,678.18 502.85,672.03 497.38,648.22 492.71,636.21 486.89,625.43 478.81,613.63 433.14,568.59 412.28,547.44 395.82,526.94 389.28,516.49 386.21,510.08 383.64,503.10 381.89,496.12 381.01,489.04 381.37,482.55 382.61,476.40 384.96,470.38 387.99,464.94 391.46,459.63 395.44,454.91 401.03,450.17 407.08,446.60 412.92,444.67 418.86,443.76 425.23,443.42 431.73,443.87 438.76,445.20 445.69,447.12 457.14,451.58 468.70,458.22 499.50,482.50 528.73,512.61 547.17,536.55 583.62,595.63 590.30,607.22 597.65,617.75 602.53,622.88 607.69,627.41 612.67,631.16 617.83,634.21 623.80,636.68 629.97,638.14 633.16,638.56 636.42,638.77 639.58,638.51 642.48,637.46 644.77,635.82 646.92,633.61 648.88,631.03 650.59,628.24 652.89,622.75 654.67,616.73 657.40,604.28 658.30,590.78 656.51,576.25 653.33,564.27 651.19,558.51 647.92,552.00 598.10,483.18 557.02,436.68 537.29,420.58 517.04,407.40 506.13,401.75"
        fill="none"
        stroke="#e94560"
        stroke-width="8.0"
        stroke-linejoin="round"
        stroke-linecap="round"/>
  <!-- Start/finish line -->
  <line x1="496.93" y1="419.51" x2="515.33" y2="383.98"
        stroke="#f5f5f5" stroke-width="9.6"
        stroke-linecap="round"/>
</svg>
