<?xml version="1.0" encoding="utf-8"?>
<svg xmlns="http://www.w3.org/2000/svg"
     width="800.0" height="536.7"
     viewBox="0 0 800.0 536.7">
  <rect width="100%" height="100%" fill="#1a1a2e"/>
  <!-- Track outline -->
  <polyline points="415.75,40.52 354.83,43.03 284.31,55.07 220.85,76.62 164.64,104.66 130.25,127.68 100.92,155.41 80.67,181.67 62.34,211.49 49.08,240.36 43.32,259.93 40.44,278.87 40.00,298.33 42.44,321.24 47.94,344.78 55.97,366.96 66.97,388.10 80.67,407.77 96.65,425.24 116.37,440.94 138.80,453.91 163.68,465.21 221.03,483.62 266.50,493.56 300.98,496.70 318.26,496.70 339.38,495.45 363.12,493.67 388.00,492.31 408.68,489.38 433.47,486.35 461.49,482.89 490.99,478.92 520.32,474.52 547.81,469.92 571.73,465.21 590.32,460.40 626.19,446.69 656.48,428.59 694.54,398.04 727.18,362.88 738.70,345.83 747.61,328.36 754.06,309.10 758.60,283.26 760.00,255.12 758.25,228.23 753.89,205.31 746.82,183.45 737.13,162.83 722.99,141.59 705.62,121.82 686.16,104.24 663.20,87.50 637.72,73.27 608.04,61.55 522.41,45.34 429.46,40.00 415.75,40.52"
        fill="none"
        stroke="#e94560"
        stroke-width="8.0"
        stroke-linejoin="round"
        stroke-linecap="round"/>
  <!-- Start/finish line -->
  <line x1="416.57" y1="60.51" x2="414.94" y2="20.54"
        stroke="#f5f5f5" stroke-width="9.6"
        stroke-linecap="round"/>
</svg>
