<?xml version="1.0" encoding="utf-8"?>
<svg xmlns="http://www.w3.org/2000/svg"
     width="370.9" height="800.0"
     viewBox="0 0 370.9 800.0">
  <rect width="100%" height="100%" fill="#1a1a2e"/>
  <!-- Track outline -->
  <polyline points="40.00,578.88 41.32,613.21 44.70,646.90 51.56,676.42 65.41,704.49 88.42,729.20 118.41,747.01 150.57,756.31 183.45,760.00 215.00,757.43 244.51,749.09 270.65,733.21 292.45,710.27 306.66,680.91 317.38,648.02 322.56,607.43 324.97,562.03 330.87,190.80 328.94,152.94 323.52,123.58 314.61,100.32 300.76,79.95 281.25,60.21 258.12,48.82 231.50,42.41 200.67,40.00 172.73,41.93 141.05,50.11 116.48,60.53 93.24,77.22 77.70,98.07 66.38,119.73 59.87,138.66 56.26,167.38 40.00,578.88"
        fill="none"
        stroke="#e94560"
        stroke-width="8.0"
        stroke-linejoin="round"
        stroke-linecap="round"/>
  <!-- Start/finish line -->
  <line x1="59.99" y1="579.55" x2="20.01" y2="578.21"
        stroke="#f5f5f5" stroke-width="9.6"
        stroke-linecap="round"/>
</svg>
