<?xml version="1.0" encoding="utf-8"?>
<svg xmlns="http://www.w3.org/2000/svg"
     width="434.7" height="800.0"
     viewBox="0 0 434.7 800.0">
  <rect width="100%" height="100%" fill="#1a1a2e"/>
  <!-- Track outline -->
  <polyline points="40.11,424.10 40.11,426.30 40.00,529.17 50.39,602.62 57.97,629.19 73.46,664.53 93.88,700.05 115.10,722.51 134.64,738.22 140.97,742.68 147.41,746.05 164.25,753.00 181.97,758.48 190.83,759.85 200.41,760.00 233.12,757.50 265.00,752.95 272.73,751.04 279.92,748.30 298.39,739.25 317.50,727.75 328.89,719.28 339.50,709.01 354.84,688.80 368.72,666.38 376.90,649.89 382.77,634.77 386.55,618.62 391.32,588.09 394.66,401.93 387.72,206.92 381.24,176.97 372.95,155.25 364.52,137.63 353.84,121.09 331.95,94.81 307.71,71.71 290.63,60.65 274.97,53.16 256.14,46.80 217.78,40.34 208.27,40.00 198.91,40.73 182.68,43.23 165.24,48.07 147.16,56.88 129.26,68.33 109.94,82.97 93.60,97.74 87.87,104.45 82.85,111.84 63.03,147.42 46.76,198.36 42.42,222.53 40.39,251.50 40.11,424.10"
        fill="none"
        stroke="#e94560"
        stroke-width="8.0"
        stroke-linejoin="round"
        stroke-linecap="round"/>
  <!-- Start/finish line -->
  <line x1="60.11" y1="424.13" x2="20.11" y2="424.07"
        stroke="#f5f5f5" stroke-width="9.6"
        stroke-linecap="round"/>
</svg>
