<?xml version="1.0" encoding="utf-8"?>
<svg xmlns="http://www.w3.org/2000/svg"
     width="659.1" height="800.0"
     viewBox="0 0 659.1 800.0">
  <rect width="100%" height="100%" fill="#1a1a2e"/>
  <!-- Track outline -->
  <polyline points="447.92,352.33 505.14,226.30 506.85,222.81 509.24,219.36 511.80,216.38 517.23,210.94 526.12,203.35 559.42,178.77 575.40,166.99 581.41,162.34 587.46,157.14 592.89,151.64 598.41,145.51 604.00,139.23 607.63,134.43 610.71,129.38 613.94,122.42 615.87,116.99 617.08,111.48 618.41,104.12 619.09,97.85 619.05,91.23 618.64,86.47 617.34,80.91 615.80,76.55 613.99,71.92 612.61,68.49 611.02,65.52 609.07,61.76 606.32,57.74 603.11,54.29 599.99,51.66 596.02,48.99 591.34,46.40 586.90,44.30 582.79,42.74 578.04,41.27 573.67,40.46 569.11,40.05 564.29,40.00 559.71,40.06 554.72,40.22 550.14,40.67 546.20,41.22 541.48,42.19 537.66,43.09 532.83,44.38 498.21,59.05 439.67,89.27 436.53,91.66 433.84,94.72 431.21,98.13 428.60,101.99 426.17,106.40 424.19,110.33 422.58,114.41 421.38,118.20 420.24,122.52 419.29,126.94 418.47,131.76 417.75,136.41 416.85,141.49 416.18,145.62 415.91,148.72 416.24,151.62 417.27,155.86 418.36,160.27 418.99,164.68 419.20,169.15 418.96,173.67 418.18,178.56 416.88,183.40 415.03,188.08 412.68,192.58 409.82,196.89 406.46,200.99 397.36,209.34 385.87,217.13 346.66,238.42 337.63,244.95 330.06,251.66 323.09,259.06 316.81,267.18 310.81,276.73 305.60,286.89 301.31,297.03 297.86,307.86 293.00,336.93 290.78,378.10 288.20,394.79 283.94,409.67 278.21,422.54 270.91,434.78 261.27,446.95 248.13,460.12 233.15,472.30 217.86,482.27 203.55,489.32 189.47,494.15 176.77,496.50 165.67,496.79 160.42,496.24 155.29,495.23 150.40,493.79 145.69,491.91 141.13,489.56 136.89,486.84 133.35,484.06 130.14,480.95 127.05,477.29 124.36,473.36 122.32,469.60 120.71,465.69 119.50,461.61 118.72,457.34 118.38,452.57 118.54,447.73 119.25,442.87 120.45,438.14 122.00,433.95 123.98,429.93 126.65,425.66 129.75,421.65 133.00,418.23 136.67,415.04 147.11,408.13 173.95,392.31 182.65,385.51 190.27,378.31 196.90,370.88 203.12,362.42 219.22,333.73 223.13,324.38 225.69,316.12 226.55,311.23 226.71,306.76 226.28,302.62 225.32,298.76 224.07,295.70 222.39,292.96 220.17,290.48 217.53,288.36 214.39,286.65 210.97,285.40 207.39,284.56 203.61,284.22 199.00,284.52 194.06,285.55 187.46,287.87 180.17,291.43 153.76,309.67 94.94,352.42 74.57,368.66 66.07,377.16 59.33,387.10 54.68,397.06 49.22,410.69 46.17,424.03 43.55,439.84 40.50,459.67 40.00,464.40 40.10,467.66 41.48,470.32 43.26,472.10 45.72,473.29 48.68,473.58 51.84,473.68 54.70,474.37 57.46,476.24 60.32,479.79 76.94,502.21 190.19,646.69 196.70,655.11 200.01,659.66 202.11,663.46 203.74,668.90 204.73,674.05 205.28,678.82 205.19,683.30 204.57,689.86 203.64,696.11 202.72,700.03 201.67,703.90 200.94,707.68 200.39,712.52 199.94,716.87 200.15,721.53 200.48,726.51 200.84,730.58 201.73,734.08 203.17,738.12 204.71,741.66 206.84,744.81 209.30,747.85 212.84,750.87 216.36,753.34 220.25,755.32 224.85,757.23 228.89,758.33 234.17,759.35 239.23,760.00 244.10,759.35 248.08,758.02 253.56,755.51 258.75,752.47 263.70,748.24 267.84,744.03 271.47,738.90 275.71,731.65 447.92,352.33"
        fill="none"
        stroke="#e94560"
        stroke-width="8.0"
        stroke-linejoin="round"
        stroke-linecap="round"/>
  <!-- Start/finish line -->
  <line x1="429.71" y1="344.07" x2="466.13" y2="360.60"
        stroke="#f5f5f5" stroke-width="9.6"
        stroke-linecap="round"/>
</svg>
