<?xml version="1.0" encoding="utf-8"?>
<svg xmlns="http://www.w3.org/2000/svg"
     width="495.0" height="800.0"
     viewBox="0 0 495.0 800.0">
  <rect width="100%" height="100%" fill="#1a1a2e"/>
  <!-- Track outline -->
  <polyline points="282.70,350.90 281.92,352.75 238.61,464.41 132.87,705.25 123.72,722.38 115.08,734.93 106.32,744.36 101.63,748.29 96.74,751.73 92.08,754.39 87.27,756.55 82.19,758.22 77.05,759.37 72.21,760.00 67.49,759.72 62.91,758.51 58.43,756.53 53.42,753.39 50.10,750.53 47.46,747.32 44.90,742.99 42.66,738.14 41.45,733.77 40.52,728.95 40.03,723.18 40.00,715.54 40.85,709.56 42.47,704.25 44.29,699.04 46.78,693.64 50.20,687.85 55.23,681.80 59.07,677.77 64.33,673.57 67.74,670.66 71.37,667.45 74.64,664.17 78.71,658.76 80.80,655.32 82.63,651.36 83.61,647.25 84.18,642.96 83.88,637.68 82.45,631.49 76.51,607.63 75.74,601.33 75.94,590.59 76.78,585.70 78.09,581.01 79.89,576.47 82.25,572.07 85.15,567.82 88.97,563.29 93.33,558.97 103.78,550.85 137.90,529.32 146.27,522.47 153.62,515.14 162.10,505.22 171.20,492.20 221.23,397.82 253.46,329.24 275.95,272.51 298.48,209.70 330.49,117.04 340.66,91.65 348.74,76.00 357.12,63.84 365.84,54.55 370.16,51.03 374.66,47.99 379.26,45.47 384.03,43.41 389.00,41.82 394.11,40.72 399.35,40.10 404.62,40.00 409.84,40.45 414.92,41.39 419.42,42.67 423.76,44.42 428.29,46.83 432.64,49.72 436.73,53.06 440.50,56.81 443.91,60.96 446.94,65.43 449.55,70.14 451.69,75.02 453.20,79.65 454.24,84.43 454.88,89.93 455.03,95.62 453.80,107.50 450.50,119.69 445.63,130.64 438.09,142.26 428.49,153.45 414.66,166.07 371.35,202.34 347.32,229.23 325.92,261.35 290.69,331.77 282.70,350.90"
        fill="none"
        stroke="#e94560"
        stroke-width="8.0"
        stroke-linejoin="round"
        stroke-linecap="round"/>
  <!-- Start/finish line -->
  <line x1="301.15" y1="358.61" x2="264.24" y2="343.19"
        stroke="#f5f5f5" stroke-width="9.6"
        stroke-linecap="round"/>
</svg>
