<?xml version="1.0" encoding="utf-8"?>
<svg xmlns="http://www.w3.org/2000/svg"
     width="624.1" height="800.0"
     viewBox="0 0 624.1 800.0">
  <rect width="100%" height="100%" fill="#1a1a2e"/>
  <!-- Track outline -->
  <polyline points="372.68,558.11 363.37,573.71 357.58,582.27 352.54,588.79 348.69,593.27 345.24,596.42 341.53,599.06 329.96,605.51 295.12,619.59 285.51,624.43 279.49,628.75 274.76,633.36 270.63,638.72 267.21,644.27 264.33,650.70 262.08,656.80 260.57,664.04 260.04,670.76 259.88,675.95 260.64,681.14 262.20,686.85 264.27,693.03 274.51,719.58 276.06,726.40 276.52,731.39 275.85,736.94 274.39,742.32 272.12,747.11 269.48,750.86 266.13,754.27 263.20,756.35 259.29,758.18 254.05,759.62 248.88,760.00 242.81,759.51 236.73,758.16 230.79,755.57 225.18,751.82 220.69,747.53 216.71,743.37 74.04,563.89 54.47,535.29 48.03,523.33 44.34,511.56 41.77,499.97 40.31,488.39 40.00,477.21 40.78,466.17 42.62,455.56 45.56,445.17 49.82,434.57 55.21,424.29 61.87,414.20 69.70,404.45 91.31,383.67 161.92,332.37 193.61,310.48 202.37,306.19 210.28,303.42 216.21,302.18 221.74,301.82 226.29,302.22 230.58,303.23 234.69,304.73 238.46,306.79 241.62,309.33 244.28,312.31 246.31,315.59 247.81,319.27 248.96,323.91 249.48,328.87 249.28,334.24 248.25,340.10 245.18,350.02 240.49,361.24 221.16,395.68 213.69,405.83 205.74,414.75 196.59,423.39 186.14,431.56 153.93,450.55 141.40,458.84 137.00,462.66 133.09,466.78 129.37,471.59 126.17,476.71 123.79,481.54 121.93,486.57 120.49,492.24 119.64,498.07 119.45,503.89 119.86,509.61 120.79,514.73 122.24,519.64 124.18,524.33 126.63,528.84 129.85,533.56 133.56,537.95 137.41,541.68 141.67,545.02 146.76,548.29 152.23,551.11 157.88,553.36 163.74,555.09 169.90,556.30 176.21,556.95 189.53,556.62 204.77,553.79 221.68,547.99 238.85,539.53 257.20,527.57 275.18,512.95 290.95,497.14 302.53,482.53 311.29,467.83 318.16,452.39 323.27,434.54 326.37,414.49 329.04,365.08 334.87,330.19 339.01,317.19 344.16,305.02 350.42,292.83 357.62,281.36 365.15,271.62 373.52,262.73 382.61,254.68 393.44,246.85 440.51,221.29 454.30,211.95 465.22,201.92 469.25,196.99 472.68,191.82 475.51,186.43 477.73,180.80 479.29,174.99 480.22,169.13 480.51,163.71 480.26,158.34 479.50,153.04 478.19,147.75 477.15,144.00 476.46,141.68 475.71,140.06 475.21,138.31 475.15,136.70 475.34,134.97 475.88,131.30 476.66,127.50 477.47,123.76 478.31,119.04 479.19,114.78 480.16,110.06 481.08,105.58 482.10,101.82 483.46,97.99 484.69,94.64 486.15,91.54 487.65,88.72 489.94,84.74 491.95,81.15 494.17,77.55 496.19,74.51 498.24,71.69 500.29,69.10 502.37,67.16 545.75,43.73 550.32,41.84 555.69,40.34 559.89,40.00 565.30,40.38 569.10,41.87 572.21,43.81 575.80,46.75 579.33,50.44 581.42,53.91 583.08,58.26 584.06,62.77 584.10,67.29 583.57,71.90 527.83,232.01 509.43,282.39 494.35,319.78 471.48,369.96 462.56,387.89 372.68,558.11"
        fill="none"
        stroke="#e94560"
        stroke-width="8.0"
        stroke-linejoin="round"
        stroke-linecap="round"/>
  <!-- Start/finish line -->
  <line x1="390.32" y1="567.53" x2="355.04" y2="548.69"
        stroke="#f5f5f5" stroke-width="9.6"
        stroke-linecap="round"/>
</svg>
