<?xml version="1.0" encoding="utf-8"?>
<svg xmlns="http://www.w3.org/2000/svg"
     width="706.8" height="800.0"
     viewBox="0 0 706.8 800.0">
  <rect width="100%" height="100%" fill="#1a1a2e"/>
  <!-- Track outline -->
  <polyline points="494.48,350.84 502.47,331.72 537.70,261.31 559.09,229.19 583.12,202.31 626.42,166.05 640.25,153.43 649.85,142.25 657.38,130.62 662.26,119.67 665.56,107.49 666.79,95.61 666.64,89.92 665.99,84.42 664.95,79.64 663.45,75.02 661.31,70.14 658.69,65.43 655.67,60.96 652.26,56.80 648.49,53.06 644.40,49.72 640.06,46.83 635.52,44.42 631.18,42.67 626.69,41.38 621.61,40.45 616.39,40.00 611.12,40.10 605.88,40.72 600.77,41.82 595.80,43.41 591.03,45.46 586.43,47.99 581.93,51.03 577.61,54.55 568.90,63.83 560.52,76.00 552.43,91.64 542.27,117.03 510.26,209.67 487.74,272.47 465.25,329.19 433.03,397.76 383.00,492.12 373.91,505.14 365.43,515.06 358.09,522.39 349.71,529.23 315.60,550.76 305.15,558.88 300.79,563.20 296.97,567.73 294.08,571.98 291.71,576.38 289.92,580.91 288.61,585.61 287.77,590.49 287.56,601.23 288.33,607.53 294.28,631.39 295.09,638.02 295.10,643.79 294.41,647.84 293.16,651.51 291.32,654.94 289.00,658.04 286.23,660.78 283.11,663.05 279.80,664.75 276.27,665.88 272.49,666.37 268.61,666.27 264.53,665.62 260.45,664.39 256.19,662.41 251.86,659.63 246.11,654.91 239.30,647.96 125.59,502.90 111.61,479.24 107.46,469.32 104.37,459.48 102.22,449.78 101.00,440.10 100.74,430.74 101.39,421.51 102.93,412.63 105.39,403.93 108.96,395.07 113.46,386.48 119.03,378.03 125.58,369.88 143.66,352.50 202.73,309.58 229.24,291.26 236.56,287.68 243.18,285.36 248.14,284.33 252.77,284.03 256.57,284.36 260.16,285.20 263.60,286.46 266.75,288.18 269.40,290.30 271.63,292.80 273.32,295.55 274.57,298.62 275.54,302.50 275.97,306.65 275.81,311.14 274.95,316.05 272.37,324.34 268.45,333.73 252.28,362.54 246.03,371.03 239.38,378.49 231.73,385.72 222.99,392.55 196.05,408.44 185.57,415.37 181.88,418.57 178.61,422.01 175.50,426.04 172.82,430.32 170.83,434.36 169.28,438.57 168.07,443.31 167.36,448.19 167.20,453.06 167.54,457.85 168.32,462.13 169.54,466.23 171.16,470.15 173.20,473.93 175.90,477.87 179.00,481.55 182.23,484.67 185.79,487.46 190.05,490.20 194.62,492.56 199.35,494.44 204.25,495.88 209.40,496.90 214.68,497.45 225.82,497.17 238.58,494.80 252.72,489.95 267.08,482.87 282.44,472.86 297.48,460.64 310.66,447.42 320.35,435.19 327.68,422.90 333.43,409.98 337.70,395.05 340.29,378.28 342.53,336.94 347.41,307.76 350.87,296.89 355.17,286.70 360.41,276.50 366.43,266.91 372.74,258.77 379.73,251.33 387.34,244.59 396.40,238.04 435.77,216.66 447.31,208.85 456.44,200.45 459.82,196.34 462.69,192.01 465.05,187.50 466.91,182.79 468.21,177.93 468.99,173.03 469.24,168.49 469.02,164.00 468.39,159.57 467.30,155.14 465.50,150.16 463.24,145.36 460.86,141.38 458.18,137.79 455.46,134.91 452.47,132.41 449.16,130.24 445.62,128.45 441.86,127.06 437.90,126.06 433.51,125.43 428.93,125.26 423.85,125.66 418.64,126.58 407.24,130.16 391.64,137.63 262.98,212.86 137.27,288.10 111.24,305.15 93.35,318.98 79.91,331.58 68.25,344.98 58.64,359.14 50.35,375.11 44.84,389.92 41.31,405.02 40.00,418.94 40.47,434.26 43.01,449.84 47.46,465.63 55.05,484.50 65.72,505.14 82.41,532.71 123.06,592.40 155.13,636.76 207.79,708.09 224.50,728.74 236.59,740.82 247.09,748.83 257.98,755.00 263.59,757.10 269.23,758.62 274.25,759.57 279.21,760.00 284.04,759.87 288.87,759.25 294.02,758.09 299.09,756.43 303.91,754.27 308.56,751.60 313.45,748.17 318.13,744.24 326.89,734.81 335.53,722.26 344.68,705.14 450.40,464.34 493.71,352.70 494.48,350.84"
        fill="none"
        stroke="#e94560"
        stroke-width="8.0"
        stroke-linejoin="round"
        stroke-linecap="round"/>
  <!-- Start/finish line -->
  <line x1="476.03" y1="343.13" x2="512.94" y2="358.55"
        stroke="#f5f5f5" stroke-width="9.6"
        stroke-linecap="round"/>
</svg>
