<?xml version="1.0" encoding="utf-8"?>
<svg xmlns="http://www.w3.org/2000/svg"
     width="713.2" height="800.0"
     viewBox="0 0 713.2 800.0">
  <rect width="100%" height="100%" fill="#1a1a2e"/>
  <!-- Track outline -->
  <polyline points="502.15,352.14 330.04,731.23 325.81,738.48 322.18,743.60 318.04,747.81 313.10,752.03 307.91,755.08 302.43,757.58 297.42,759.26 291.79,760.00 283.44,759.89 275.34,758.21 266.75,755.05 260.09,752.06 252.56,747.31 247.30,743.13 242.37,738.27 133.51,604.39 122.03,588.87 116.56,580.49 54.82,479.92 49.50,468.70 44.70,454.96 41.38,436.98 40.00,420.23 41.28,401.47 44.42,386.81 50.41,370.75 58.35,356.02 67.25,343.36 78.41,331.35 90.45,320.93 105.75,310.55 198.41,253.82 241.38,229.17 417.44,128.23 552.41,59.04 587.01,44.38 591.83,43.09 595.65,42.19 600.37,41.22 604.31,40.67 608.88,40.21 613.88,40.06 618.45,40.00 623.27,40.05 627.83,40.46 632.19,41.27 636.94,42.74 641.05,44.30 645.48,46.40 650.16,48.99 654.13,51.65 657.25,54.28 660.45,57.73 663.20,61.75 665.15,65.50 666.74,68.47 668.12,71.90 669.93,76.53 671.47,80.89 672.77,86.44 673.18,91.20 673.22,97.81 672.54,104.08 671.21,111.43 670.00,116.95 668.07,122.37 664.84,129.32 661.77,134.38 658.14,139.17 652.55,145.44 647.03,151.57 641.61,157.07 635.56,162.26 629.55,166.91 613.59,178.69 580.31,203.25 571.42,210.83 565.99,216.27 563.43,219.25 561.04,222.70 559.34,226.19 502.15,352.14"
        fill="none"
        stroke="#e94560"
        stroke-width="8.0"
        stroke-linejoin="round"
        stroke-linecap="round"/>
  <!-- Start/finish line -->
  <line x1="520.36" y1="360.41" x2="483.94" y2="343.88"
        stroke="#f5f5f5" stroke-width="9.6"
        stroke-linecap="round"/>
</svg>
