<?xml version="1.0" encoding="utf-8"?>
<svg xmlns="http://www.w3.org/2000/svg"
     width="680.2" height="800.0"
     viewBox="0 0 680.2 800.0">
  <rect width="100%" height="100%" fill="#1a1a2e"/>
  <!-- Track outline -->
  <polyline points="299.01,359.29 212.91,479.50 204.96,489.70 197.81,498.30 189.82,506.67 178.50,516.61 162.17,528.25 62.48,593.51 57.23,597.19 51.72,602.35 46.20,609.44 42.48,616.47 40.25,624.94 40.00,632.77 42.13,641.37 45.91,648.83 52.08,656.39 71.23,677.64 77.18,683.26 83.83,688.79 90.85,693.61 184.00,754.18 190.38,757.22 196.06,759.36 201.63,760.00 207.34,759.23 213.13,757.36 218.90,753.78 224.47,748.59 230.18,741.96 234.65,735.17 238.28,727.94 241.18,720.78 244.52,711.51 246.89,704.11 249.26,698.36 251.54,693.57 255.64,686.85 267.49,669.85 270.71,664.79 272.44,660.44 273.22,656.06 273.06,651.67 271.65,647.22 269.15,642.81 265.75,638.72 261.41,634.64 257.20,631.76 252.44,629.95 248.25,629.19 245.23,629.49 241.32,630.89 238.01,633.27 233.91,638.02 213.89,662.08 207.38,668.87 198.66,676.94 192.28,682.13 187.92,684.97 183.40,686.91 177.52,687.58 170.96,686.48 163.96,684.67 155.66,680.65 146.49,675.13 138.59,669.71 131.65,664.22 127.99,660.04 123.89,653.68 121.21,646.96 120.85,640.90 122.19,635.11 124.70,630.06 127.96,626.11 135.08,619.01 234.16,540.20 239.77,535.55 244.92,530.60 249.75,524.77 259.33,511.76 417.42,290.35 421.85,285.67 426.84,282.12 432.73,279.38 438.86,278.47 445.16,279.14 451.25,280.91 457.74,283.73 464.20,287.61 468.99,291.12 473.58,295.67 476.95,301.19 478.70,307.02 478.99,312.54 478.36,319.00 476.57,324.08 473.35,329.61 469.12,334.96 462.75,340.98 420.44,373.71 414.47,379.67 407.58,388.07 394.29,406.11 284.58,563.02 282.15,570.09 282.35,576.01 285.21,582.50 289.51,587.96 295.14,591.80 301.61,594.48 308.74,594.35 315.88,592.74 321.18,589.93 326.49,585.31 330.89,580.46 333.89,576.61 336.98,573.16 340.53,570.05 353.58,561.95 403.62,530.70 411.29,524.44 418.01,518.11 423.13,512.56 465.66,463.50 477.31,454.03 485.83,446.77 495.66,438.23 502.19,431.57 626.86,274.92 630.67,269.74 633.86,264.25 637.31,257.02 639.32,249.49 640.06,242.20 640.15,235.23 638.65,227.64 636.84,220.84 634.29,215.12 631.00,208.73 626.88,202.94 622.21,197.95 616.97,193.00 603.84,182.56 525.52,127.14 521.92,125.17 517.27,123.93 511.94,123.70 507.49,124.97 502.90,128.21 498.47,132.93 494.81,137.85 492.46,143.24 491.47,148.79 492.28,155.02 494.22,161.08 497.49,166.73 502.10,171.52 507.45,175.63 575.32,225.23 579.17,229.71 581.49,235.00 582.57,241.26 582.63,247.25 581.74,253.31 579.77,258.83 576.30,264.32 571.87,269.27 566.80,273.35 561.67,276.00 555.63,277.03 550.00,276.90 544.45,275.49 538.63,273.12 532.93,270.14 527.24,266.39 462.68,217.93 456.62,213.11 451.63,207.96 447.36,201.97 443.93,195.91 441.81,190.46 440.00,185.10 439.12,179.58 438.27,71.46 437.54,68.08 435.63,63.99 433.33,60.98 429.80,56.93 423.51,52.05 417.71,48.27 412.77,45.49 406.22,42.44 399.88,40.60 392.84,40.00 386.93,40.94 381.81,43.28 377.04,47.46 372.57,52.32 369.28,57.94 367.16,64.70 366.46,72.09 367.36,82.37 371.36,240.59 370.31,249.69 367.16,259.97 362.12,270.74 355.34,282.15 299.01,359.29"
        fill="none"
        stroke="#e94560"
        stroke-width="8.0"
        stroke-linejoin="round"
        stroke-linecap="round"/>
  <!-- Start/finish line -->
  <line x1="315.23" y1="370.99" x2="282.80" y2="347.58"
        stroke="#f5f5f5" stroke-width="9.6"
        stroke-linecap="round"/>
</svg>
