<?xml version="1.0" encoding="utf-8"?>
<svg xmlns="http://www.w3.org/2000/svg"
     width="800.0" height="487.2"
     viewBox="0 0 800.0 487.2">
  <rect width="100%" height="100%" fill="#1a1a2e"/>
  <!-- Track outline -->
  <polyline points="279.86,446.80 299.63,447.21 447.72,445.77 503.79,440.72 555.31,431.26 595.96,418.57 628.16,405.55 644.36,396.61 673.22,375.50 685.48,363.25 734.01,297.92 741.91,282.71 751.34,259.86 757.43,236.82 760.00,213.67 759.77,202.05 758.53,190.59 756.20,179.27 752.86,168.44 748.34,157.61 742.92,147.41 728.99,127.74 714.74,112.35 698.79,97.65 684.67,86.67 668.61,76.95 632.70,61.26 593.94,48.53 565.21,42.75 540.30,40.00 517.23,40.04 496.53,43.60 478.09,49.91 469.57,54.14 461.46,59.33 454.30,65.45 447.74,72.54 442.16,80.03 437.29,88.42 433.39,97.39 430.35,107.04 428.46,116.83 427.50,126.93 427.55,137.05 428.52,147.00 430.48,156.57 433.36,165.51 437.48,173.75 442.45,181.09 448.49,188.07 455.13,193.93 462.33,198.60 470.17,201.94 477.20,203.80 484.72,204.84 492.21,204.87 499.65,203.72 507.06,201.53 514.00,198.75 521.54,194.49 529.38,188.99 562.87,163.62 579.67,152.82 587.66,148.67 595.96,145.36 606.47,142.73 617.26,141.73 623.97,142.14 630.58,143.36 636.78,145.62 642.05,148.59 646.99,152.45 651.24,157.24 654.49,162.50 657.19,168.52 658.95,175.01 659.57,181.91 659.31,189.25 658.36,196.12 655.60,204.80 651.77,212.85 641.47,230.10 635.23,238.30 626.99,247.02 552.13,306.75 516.59,330.83 495.59,340.70 484.84,344.00 474.03,346.23 463.25,347.34 452.48,347.30 441.82,346.15 431.35,343.70 421.54,339.81 412.08,334.69 403.38,328.83 395.29,321.81 388.43,313.99 382.44,305.01 377.79,295.51 374.17,285.16 372.03,275.44 370.71,263.12 370.71,148.85 367.15,128.04 361.30,109.64 353.34,92.87 343.40,77.55 337.50,70.76 331.08,64.86 323.69,59.70 315.79,55.54 307.57,52.21 297.63,49.72 264.21,46.49 229.63,45.57 205.55,47.42 144.11,64.60 125.35,72.65 108.19,83.18 100.93,88.64 93.07,96.24 70.07,125.85 49.49,157.20 45.46,165.51 42.91,173.49 40.72,184.06 40.00,195.08 41.47,205.47 44.42,215.26 48.71,224.76 54.14,232.96 61.11,239.60 68.86,244.68 77.46,248.95 86.47,251.69 96.11,252.77 105.79,252.21 115.08,250.21 124.06,246.80 132.13,242.23 139.73,236.52 152.56,222.57 165.39,206.51 180.66,191.93 198.11,180.09 207.35,175.16 216.76,171.15 226.36,168.14 236.00,166.55 242.31,166.51 248.58,167.25 254.61,168.85 260.04,171.19 265.29,174.34 270.05,178.27 273.93,182.58 277.44,187.55 280.33,193.08 283.26,201.65 284.85,210.88 284.91,220.05 283.62,229.06 280.56,238.23 276.16,246.57 269.86,254.70 262.51,261.64 254.29,267.57 244.41,273.10 192.10,296.66 173.22,308.38 164.75,315.02 156.91,322.52 150.61,330.12 145.21,338.58 141.30,347.26 138.52,356.61 137.18,366.15 137.12,375.83 138.59,385.55 141.30,394.83 145.47,403.99 150.71,412.26 157.51,420.05 165.11,426.73 173.86,432.85 183.12,437.86 192.66,441.65 219.37,445.51 279.86,446.80"
        fill="none"
        stroke="#e94560"
        stroke-width="8.0"
        stroke-linejoin="round"
        stroke-linecap="round"/>
  <!-- Start/finish line -->
  <line x1="280.28" y1="426.81" x2="279.43" y2="466.80"
        stroke="#f5f5f5" stroke-width="9.6"
        stroke-linecap="round"/>
</svg>
