<?xml version="1.0" encoding="utf-8"?>
<svg xmlns="http://www.w3.org/2000/svg"
     width="800.0" height="321.5"
     viewBox="0 0 800.0 321.5">
  <rect width="100%" height="100%" fill="#1a1a2e"/>
  <!-- Track outline -->
  <polyline points="308.25,256.05 304.17,256.33 218.43,263.24 145.36,270.95 129.13,271.53 116.56,270.68 104.88,268.27 94.05,264.16 83.88,258.30 74.48,250.80 66.09,241.76 60.33,233.57 55.64,224.60 51.24,212.57 48.26,199.77 45.79,180.94 44.23,150.58 41.80,98.90 40.00,59.81 40.21,55.57 40.72,52.28 41.53,49.42 42.60,46.95 43.75,45.13 45.05,43.62 46.56,42.33 48.23,41.32 49.66,40.72 51.20,40.28 52.74,40.04 54.28,40.00 55.83,40.16 57.35,40.51 58.74,40.99 60.09,41.65 61.40,42.52 63.26,44.34 65.16,46.58 71.16,53.61 74.30,56.10 77.85,58.13 83.82,60.51 90.93,62.34 116.48,64.56 162.20,65.23 265.18,69.00 449.90,77.14 519.28,80.10 569.03,82.50 589.05,80.29 596.31,78.50 603.12,76.06 609.58,72.91 615.64,69.02 625.00,60.08 632.35,51.64 635.04,49.30 637.68,47.48 640.26,46.08 642.92,45.05 645.85,44.34 648.89,44.02 652.16,44.09 655.60,44.58 664.72,47.29 680.25,54.39 728.16,78.88 737.29,84.92 745.36,92.15 751.17,99.31 754.94,105.86 757.65,113.22 759.58,123.45 760.00,134.64 758.81,149.63 751.26,198.27 747.66,214.02 742.70,228.03 737.02,239.22 731.18,247.85 724.23,255.77 716.36,262.76 707.62,268.74 696.19,274.54 685.95,278.22 675.25,280.60 664.32,281.50 653.41,280.97 642.84,279.07 633.03,275.98 623.83,271.77 615.26,266.33 607.67,259.80 600.26,251.16 594.75,242.38 590.11,232.76 585.54,223.80 583.34,220.91 581.16,218.83 578.62,216.98 575.89,215.60 572.78,214.62 569.27,214.12 563.43,214.14 556.39,214.96 526.24,222.29 477.45,234.60 444.99,241.07 412.62,245.82 344.06,252.99 316.68,255.48 315.29,255.58 308.25,256.05"
        fill="none"
        stroke="#e94560"
        stroke-width="8.0"
        stroke-linejoin="round"
        stroke-linecap="round"/>
  <!-- Start/finish line -->
  <line x1="309.59" y1="276.01" x2="306.90" y2="236.10"
        stroke="#f5f5f5" stroke-width="9.6"
        stroke-linecap="round"/>
</svg>
