<?xml version="1.0" encoding="utf-8"?>
<svg xmlns="http://www.w3.org/2000/svg"
     width="800.0" height="603.4"
     viewBox="0 0 800.0 603.4">
  <rect width="100%" height="100%" fill="#1a1a2e"/>
  <!-- Track outline -->
  <polyline points="572.82,434.08 631.72,403.41 691.82,364.94 704.25,354.15 715.06,342.08 730.95,320.71 744.99,295.60 754.51,268.45 759.68,239.28 760.00,216.84 757.66,193.66 752.98,171.32 745.56,149.85 735.63,129.44 723.77,110.63 698.04,82.53 673.67,61.80 667.06,56.78 659.96,53.14 634.22,44.92 601.38,40.00 554.26,43.21 505.05,52.72 419.69,81.14 170.62,187.99 129.80,214.17 98.01,243.24 70.66,281.81 51.13,319.21 46.13,333.42 43.31,346.67 40.24,375.52 40.00,391.98 41.69,409.50 47.50,435.47 58.23,462.07 84.37,495.09 112.37,521.81 123.18,530.46 133.59,537.09 163.60,552.58 177.08,557.71 192.57,561.13 232.10,563.37 277.12,560.17 317.38,550.44 361.92,534.20 565.88,437.71 572.82,434.08"
        fill="none"
        stroke="#e94560"
        stroke-width="8.0"
        stroke-linejoin="round"
        stroke-linecap="round"/>
  <!-- Start/finish line -->
  <line x1="563.58" y1="416.34" x2="582.06" y2="451.82"
        stroke="#f5f5f5" stroke-width="9.6"
        stroke-linecap="round"/>
</svg>
