<?xml version="1.0" encoding="utf-8"?>
<svg xmlns="http://www.w3.org/2000/svg"
     width="800.0" height="641.0"
     viewBox="0 0 800.0 641.0">
  <rect width="100%" height="100%" fill="#1a1a2e"/>
  <!-- Track outline -->
  <polyline points="303.43,554.81 277.28,529.32 256.03,509.38 110.90,375.22 97.99,367.43 87.56,361.88 76.97,354.71 67.19,346.58 59.15,337.64 52.20,327.69 46.84,317.60 42.84,306.70 40.68,295.42 40.00,283.71 40.87,271.32 43.23,258.99 47.62,245.88 53.17,233.55 64.83,214.33 170.96,70.36 181.38,60.03 190.43,53.34 200.40,47.22 210.99,42.87 219.84,40.91 229.14,40.00 238.05,40.24 245.38,41.48 252.35,43.68 259.16,46.65 269.04,52.48 278.28,60.03 286.19,69.02 293.97,80.26 319.51,127.55 335.17,147.44 354.35,164.94 409.85,198.55 463.57,233.84 470.16,240.82 474.78,247.32 477.97,254.44 479.49,259.94 480.39,265.87 480.65,271.85 480.14,277.44 478.68,282.94 476.42,288.25 473.52,293.17 470.22,297.48 464.22,302.73 457.15,306.70 449.88,309.72 439.10,312.15 427.83,312.92 401.49,311.87 379.47,308.76 368.23,305.51 357.16,301.20 346.44,295.95 336.04,289.59 317.05,273.81 282.93,235.89 266.20,220.78 257.16,214.52 247.48,209.31 235.14,204.57 222.29,201.37 210.18,199.94 198.34,200.51 190.97,202.28 183.84,205.05 177.12,208.78 171.25,213.13 165.76,218.34 160.95,224.27 157.01,230.63 153.65,237.66 151.20,245.12 149.71,253.01 149.10,261.38 149.39,269.70 152.00,282.94 156.33,295.52 161.27,305.75 167.11,315.07 182.35,333.77 311.28,462.10 319.77,468.84 326.48,473.24 333.36,476.30 339.14,477.88 345.11,478.74 351.05,478.74 356.77,477.92 362.13,476.30 367.45,473.91 372.49,470.75 376.95,466.83 381.76,460.57 385.86,453.16 389.12,445.41 391.51,434.65 393.70,423.85 398.00,412.90 403.52,402.71 410.75,392.82 419.24,384.26 429.96,376.61 441.78,370.73 456.02,366.37 470.55,363.51 495.05,360.54 521.33,360.25 548.65,363.41 576.13,370.53 603.12,381.58 628.43,397.12 696.39,450.38 734.07,486.39 742.50,495.33 749.38,504.46 753.61,511.82 757.32,519.81 759.55,528.03 760.00,533.82 759.77,539.84 758.87,545.68 757.32,550.98 754.77,556.05 751.35,560.64 747.41,564.66 743.18,568.00 738.04,570.92 732.36,572.98 726.42,574.27 720.48,574.84 711.89,574.32 703.14,572.26 694.88,569.10 684.67,562.79 675.21,554.62 657.23,533.15 629.56,491.17 601.86,451.24 593.17,442.54 584.91,436.95 577.64,433.36 569.86,430.73 562.08,429.82 557.24,430.21 552.17,431.11 547.16,432.74 542.61,435.03 538.74,438.09 535.86,441.54 533.22,445.70 531.02,450.29 529.44,455.07 528.73,459.80 529.24,465.97 531.12,472.47 533.80,478.83 536.86,484.47 545.78,493.70 555.56,502.16 559.98,506.95 564.53,511.92 568.22,517.13 570.15,522.68 570.25,525.98 569.80,529.66 568.93,533.48 567.70,537.26 566.15,540.75 564.44,543.76 562.57,546.06 559.69,548.07 556.20,549.21 552.33,549.64 548.26,549.50 544.26,548.93 540.51,548.07 533.64,544.43 526.98,539.03 520.08,534.44 512.58,531.28 504.87,528.94 497.05,527.84 488.69,528.08 480.23,529.61 472.19,532.67 464.93,537.31 458.12,543.33 452.08,550.03 446.14,559.92 440.46,569.96 433.03,579.34 424.67,587.37 414.72,593.49 403.97,597.70 392.22,600.37 380.11,601.00 367.68,599.13 355.31,595.21 343.59,589.90 331.03,581.68 303.43,554.81"
        fill="none"
        stroke="#e94560"
        stroke-width="8.0"
        stroke-linejoin="round"
        stroke-linecap="round"/>
  <!-- Start/finish line -->
  <line x1="289.48" y1="569.14" x2="317.38" y2="540.48"
        stroke="#f5f5f5" stroke-width="9.6"
        stroke-linecap="round"/>
</svg>
