<?xml version="1.0" encoding="utf-8"?>
<svg xmlns="http://www.w3.org/2000/svg"
     width="800.0" height="564.0"
     viewBox="0 0 800.0 564.0">
  <rect width="100%" height="100%" fill="#1a1a2e"/>
  <!-- Track outline -->
  <polyline points="479.99,136.54 299.15,61.58 266.11,51.45 230.61,44.28 196.31,40.00 183.11,40.60 171.90,42.34 153.57,46.41 144.28,49.79 134.41,54.96 115.98,68.95 97.85,85.67 87.12,97.33 77.53,110.29 65.49,130.69 54.78,153.91 45.88,181.59 40.52,206.30 40.00,213.81 40.54,221.13 43.75,241.28 48.20,260.60 49.99,266.18 52.54,271.48 66.44,292.90 82.76,314.27 89.48,321.22 97.04,327.40 151.08,362.98 168.13,371.57 480.37,504.33 516.68,515.23 546.96,521.00 610.09,524.03 628.82,522.22 647.21,519.08 664.70,513.62 678.26,507.70 694.05,498.12 708.65,486.23 722.31,471.01 730.82,459.54 738.86,444.89 752.14,411.76 756.93,392.00 759.38,365.73 760.00,339.61 757.59,321.30 753.62,306.76 746.60,291.05 735.43,272.98 722.69,255.66 715.31,248.08 707.31,241.51 675.32,219.21 656.84,208.93 482.96,137.76 479.99,136.54"
        fill="none"
        stroke="#e94560"
        stroke-width="8.0"
        stroke-linejoin="round"
        stroke-linecap="round"/>
  <!-- Start/finish line -->
  <line x1="472.33" y1="155.01" x2="487.65" y2="118.06"
        stroke="#f5f5f5" stroke-width="9.6"
        stroke-linecap="round"/>
</svg>
