<?xml version="1.0" encoding="utf-8"?>
<svg xmlns="http://www.w3.org/2000/svg"
     width="800.0" height="498.4"
     viewBox="0 0 800.0 498.4">
  <rect width="100%" height="100%" fill="#1a1a2e"/>
  <!-- Track outline -->
  <polyline points="341.23,363.26 400.09,386.49 448.59,404.37 542.33,438.29 597.21,453.56 615.90,456.97 632.53,458.44 650.52,457.69 670.02,453.18 686.53,446.05 707.14,432.18 724.78,416.80 739.77,403.31 752.89,385.69 757.76,370.69 760.00,355.34 759.27,340.71 755.51,324.95 746.15,310.70 728.51,292.70 696.14,270.92 632.84,234.58 593.39,220.67 584.47,216.92 576.82,212.60 571.32,208.32 566.14,203.35 561.87,197.93 558.83,192.36 556.59,186.38 555.48,180.39 555.42,176.03 555.96,171.60 557.03,167.28 558.64,163.30 561.71,158.53 565.73,154.25 570.28,150.42 578.94,145.64 588.08,141.29 596.20,136.66 603.60,131.32 607.87,127.08 611.69,122.38 614.73,117.34 616.82,112.00 618.11,106.31 618.74,100.63 618.33,92.14 616.56,83.61 613.34,74.37 608.85,65.65 603.51,58.30 597.02,51.94 591.62,48.15 585.64,44.93 579.54,42.50 571.04,40.53 562.34,40.00 553.17,40.80 544.10,43.03 535.34,46.86 527.00,51.86 518.84,57.85 511.25,64.74 504.11,72.59 497.69,81.19 491.94,90.78 487.10,101.01 483.40,111.50 480.62,122.98 477.90,141.40 476.70,159.63 477.01,169.29 478.37,178.95 488.96,217.83 497.03,235.87 506.61,252.65 518.56,266.86 525.16,273.08 532.25,278.65 539.77,283.42 547.67,287.36 555.26,290.28 564.27,292.63 617.32,299.18 628.58,301.84 638.22,305.25 647.29,309.60 655.42,315.06 662.06,321.50 667.40,328.85 670.06,333.89 672.11,339.27 673.44,344.92 674.01,351.85 673.69,359.13 672.46,365.95 670.47,371.44 667.75,376.60 664.49,381.37 658.55,388.12 651.53,393.91 643.31,398.65 634.30,402.25 624.37,404.71 614.07,405.93 603.57,405.77 592.44,404.22 558.23,393.91 351.12,315.55 149.83,244.24 133.74,236.28 124.63,230.11 116.29,222.83 109.81,214.76 104.72,205.97 101.30,196.95 99.37,187.70 98.93,181.83 99.12,175.96 100.16,170.16 102.34,163.68 105.54,157.28 109.52,151.67 114.33,147.05 119.92,143.22 125.87,140.41 132.00,138.82 138.42,138.25 144.74,138.71 150.97,140.30 157.10,142.92 162.76,146.36 170.54,153.60 177.34,161.90 187.96,177.25 194.44,184.90 201.71,191.80 209.96,197.37 218.88,201.53 228.17,203.85 237.72,204.64 247.33,203.77 257.01,201.95 277.14,197.59 287.51,197.18 297.79,198.09 307.59,200.36 316.98,203.96 325.89,209.00 334.30,215.14 350.02,230.48 364.94,247.08 372.08,254.20 379.61,260.34 384.73,263.49 390.10,266.14 395.76,267.92 402.21,268.91 408.95,268.98 415.27,268.00 419.35,266.60 423.27,264.63 426.84,262.16 429.94,259.21 432.82,255.27 435.22,250.57 437.02,245.60 438.03,240.75 438.03,234.88 436.93,228.97 435.12,223.21 430.89,214.27 425.42,205.93 420.11,199.30 413.56,192.71 398.32,179.82 381.69,167.77 361.43,157.28 246.64,118.85 184.01,96.04 164.44,87.71 145.66,81.95 126.91,77.85 117.36,77.36 108.67,78.01 100.13,79.26 91.66,81.49 81.64,85.58 72.06,91.08 63.87,97.82 56.79,105.67 50.81,114.57 46.10,124.31 42.66,135.07 40.57,145.87 40.00,154.55 40.41,162.96 41.77,171.56 43.98,180.01 46.83,188.05 50.84,196.53 60.55,212.56 71.55,227.98 77.78,235.30 85.18,242.31 106.33,259.62 135.73,278.91 284.64,340.90 341.23,363.26"
        fill="none"
        stroke="#e94560"
        stroke-width="8.0"
        stroke-linejoin="round"
        stroke-linecap="round"/>
  <!-- Start/finish line -->
  <line x1="348.57" y1="344.66" x2="333.88" y2="381.86"
        stroke="#f5f5f5" stroke-width="9.6"
        stroke-linecap="round"/>
</svg>
