<?xml version="1.0" encoding="utf-8"?>
<svg xmlns="http://www.w3.org/2000/svg"
     width="800.0" height="541.5"
     viewBox="0 0 800.0 541.5">
  <rect width="100%" height="100%" fill="#1a1a2e"/>
  <!-- Track outline -->
  <polyline points="520.31,371.88 530.31,367.68 637.84,325.37 686.10,299.74 724.52,273.88 735.11,262.76 742.77,251.54 749.15,239.74 754.03,227.15 757.48,213.65 759.41,199.47 760.00,183.93 758.65,167.49 753.53,145.03 745.20,123.14 732.68,103.63 718.89,87.75 710.06,79.70 700.31,73.46 682.65,65.29 657.43,58.49 500.21,43.06 343.17,40.00 318.53,44.20 300.79,50.43 289.44,55.99 279.36,62.68 260.61,79.02 163.00,177.13 65.89,287.60 53.03,310.40 45.97,331.73 41.26,359.40 40.00,386.28 41.26,402.16 44.20,416.34 47.90,428.70 53.03,440.05 60.09,450.37 69.34,460.01 88.09,475.09 110.37,488.25 136.10,497.10 162.66,501.52 188.30,500.73 211.76,496.98 236.56,489.50 520.31,371.88"
        fill="none"
        stroke="#e94560"
        stroke-width="8.0"
        stroke-linejoin="round"
        stroke-linecap="round"/>
  <!-- Start/finish line -->
  <line x1="512.65" y1="353.40" x2="527.97" y2="390.35"
        stroke="#f5f5f5" stroke-width="9.6"
        stroke-linecap="round"/>
</svg>
