<?xml version="1.0" encoding="utf-8"?>
<svg xmlns="http://www.w3.org/2000/svg"
     width="800.0" height="691.0"
     viewBox="0 0 800.0 691.0">
  <rect width="100%" height="100%" fill="#1a1a2e"/>
  <!-- Track outline -->
  <polyline points="274.40,512.27 406.84,598.62 470.16,634.10 498.71,643.77 522.73,649.51 536.65,650.96 566.21,650.54 598.43,647.88 613.78,644.80 628.19,640.16 648.33,631.63 668.74,620.68 689.17,606.76 706.34,592.92 712.43,587.07 717.82,580.56 729.57,564.02 741.14,543.65 751.01,517.13 757.73,492.72 759.30,484.97 760.00,476.96 759.94,448.21 757.49,417.07 753.67,399.51 749.13,385.24 746.62,378.83 743.56,372.91 736.81,362.14 727.42,349.82 676.06,297.97 660.23,285.40 345.10,79.10 313.01,62.45 286.48,52.04 258.26,44.53 233.85,40.53 225.50,40.00 217.17,40.67 191.79,45.52 166.81,52.25 159.00,55.26 151.61,59.12 133.08,70.10 113.43,84.31 97.68,99.46 83.45,116.82 68.64,140.19 57.14,161.83 51.54,175.64 45.84,196.79 41.39,221.58 40.00,245.63 41.48,269.57 46.45,292.80 54.08,314.97 63.29,334.52 74.82,353.18 92.54,375.67 112.04,396.46 145.01,424.37 274.40,512.27"
        fill="none"
        stroke="#e94560"
        stroke-width="8.0"
        stroke-linejoin="round"
        stroke-linecap="round"/>
  <!-- Start/finish line -->
  <line x1="285.48" y1="495.62" x2="263.32" y2="528.92"
        stroke="#f5f5f5" stroke-width="9.6"
        stroke-linecap="round"/>
</svg>
