<?xml version="1.0" encoding="utf-8"?>
<svg xmlns="http://www.w3.org/2000/svg"
     width="800.0" height="660.9"
     viewBox="0 0 800.0 660.9">
  <rect width="100%" height="100%" fill="#1a1a2e"/>
  <!-- Track outline -->
  <polyline points="517.66,529.86 618.89,479.14 663.74,454.84 692.34,432.96 715.42,408.07 732.57,383.83 738.10,373.51 742.98,361.48 751.77,332.58 758.39,299.03 760.00,265.11 757.52,231.44 751.42,201.12 741.58,172.34 726.82,142.80 707.88,115.78 680.37,89.25 651.59,68.07 633.43,57.28 614.97,49.61 589.81,43.24 561.94,40.00 522.84,40.59 483.75,45.07 458.49,50.20 430.15,59.29 201.88,162.38 159.91,188.09 126.55,213.86 103.35,236.10 83.54,261.46 64.51,296.84 50.01,334.77 43.00,364.73 40.00,394.15 40.87,422.58 44.35,447.35 47.01,457.44 51.10,467.40 67.65,500.14 89.98,535.05 114.76,561.00 140.44,582.00 159.73,595.27 178.89,605.59 198.22,613.72 219.16,619.15 253.30,620.86 285.91,619.15 312.99,614.90 408.34,580.46 514.09,531.63 517.66,529.86"
        fill="none"
        stroke="#e94560"
        stroke-width="8.0"
        stroke-linejoin="round"
        stroke-linecap="round"/>
  <!-- Start/finish line -->
  <line x1="508.71" y1="511.98" x2="526.62" y2="547.74"
        stroke="#f5f5f5" stroke-width="9.6"
        stroke-linecap="round"/>
</svg>
