<?xml version="1.0" encoding="utf-8"?>
<svg xmlns="http://www.w3.org/2000/svg"
     width="731.0" height="800.0"
     viewBox="0 0 731.0 800.0">
  <rect width="100%" height="100%" fill="#1a1a2e"/>
  <!-- Track outline -->
  <polyline points="183.81,531.35 279.75,648.06 326.12,692.63 367.95,726.26 385.49,736.76 402.73,743.98 431.94,753.74 464.06,760.00 498.83,760.00 533.22,754.38 562.75,744.83 591.26,729.55 613.74,712.68 636.06,691.88 655.01,668.65 668.64,645.20 679.69,619.73 687.21,594.91 691.04,567.21 690.34,539.52 683.60,504.08 674.05,472.89 669.66,462.49 663.00,451.14 564.16,302.60 442.52,139.73 402.02,99.95 365.13,73.21 342.42,60.16 319.70,50.08 296.36,43.29 270.83,40.00 244.59,40.21 218.66,43.29 180.20,53.05 143.47,68.86 111.51,88.91 83.94,113.00 72.11,127.00 62.17,141.96 53.94,158.41 47.13,176.66 42.11,196.50 40.00,217.29 44.39,255.07 56.76,297.40 96.55,386.74 142.29,471.30 183.81,531.35"
        fill="none"
        stroke="#e94560"
        stroke-width="8.0"
        stroke-linejoin="round"
        stroke-linecap="round"/>
  <!-- Start/finish line -->
  <line x1="199.59" y1="519.08" x2="168.02" y2="543.63"
        stroke="#f5f5f5" stroke-width="9.6"
        stroke-linecap="round"/>
</svg>
