<?xml version="1.0" encoding="utf-8"?>
<svg xmlns="http://www.w3.org/2000/svg"
     width="800.0" height="406.6"
     viewBox="0 0 800.0 406.6">
  <rect width="100%" height="100%" fill="#1a1a2e"/>
  <!-- Track outline -->
  <polyline points="306.64,40.24 217.83,41.89 173.62,48.51 138.42,56.61 108.52,68.90 98.36,74.67 88.99,81.36 79.43,89.79 70.61,99.62 63.21,110.95 56.72,122.96 47.13,144.25 43.95,154.53 41.69,166.30 40.00,192.38 40.55,218.35 42.16,229.19 44.95,239.47 52.77,260.80 61.86,281.11 72.13,297.52 92.14,320.98 103.00,329.57 116.56,337.47 132.56,344.41 150.36,348.84 335.34,364.40 599.94,366.58 647.76,359.64 666.47,354.04 682.14,346.66 697.50,337.39 712.25,326.87 718.83,320.82 724.72,314.09 733.23,303.17 741.40,290.35 748.75,274.78 754.45,259.30 758.43,241.20 760.00,220.16 759.89,197.26 758.20,186.42 755.39,175.13 741.90,138.69 732.54,123.05 720.68,106.60 702.78,88.66 687.77,76.81 669.98,66.77 650.50,58.30 630.11,51.25 605.27,47.62 320.06,40.00 306.64,40.24"
        fill="none"
        stroke="#e94560"
        stroke-width="8.0"
        stroke-linejoin="round"
        stroke-linecap="round"/>
  <!-- Start/finish line -->
  <line x1="307.01" y1="60.24" x2="306.27" y2="20.25"
        stroke="#f5f5f5" stroke-width="9.6"
        stroke-linecap="round"/>
</svg>
