<?xml version="1.0" encoding="utf-8"?>
<svg xmlns="http://www.w3.org/2000/svg"
     width="800.0" height="787.8"
     viewBox="0 0 800.0 787.8">
  <rect width="100%" height="100%" fill="#1a1a2e"/>
  <!-- Track outline -->
  <polyline points="250.61,308.84 462.51,480.62 473.35,493.58 481.60,506.57 487.72,519.93 491.66,533.32 492.53,538.27 492.84,543.48 492.25,552.49 490.56,561.96 487.88,570.47 484.22,578.51 479.29,586.12 474.11,592.62 468.03,598.51 457.44,605.90 452.17,608.81 445.41,611.58 410.97,619.11 376.10,626.72 368.67,629.56 362.53,632.94 353.09,639.33 344.08,647.44 338.45,654.47 333.44,662.34 329.75,670.27 327.83,677.20 326.93,684.23 326.87,690.98 327.52,696.87 328.90,702.54 331.04,708.11 337.21,717.91 344.05,726.13 347.09,729.11 350.25,731.55 360.92,738.30 372.92,743.22 387.09,746.63 406.21,747.81 545.70,736.83 683.59,716.72 700.74,711.30 713.39,704.77 726.20,696.26 732.09,691.23 737.50,685.78 742.14,680.00 746.26,673.82 753.07,660.40 757.55,646.36 759.97,631.18 760.00,611.90 757.44,594.34 753.55,577.58 750.85,570.22 747.72,563.90 744.26,557.76 739.98,551.66 731.86,542.54 723.33,534.65 719.02,531.74 714.71,529.55 709.00,527.21 702.86,525.28 688.83,522.66 660.50,522.80 632.28,522.73 625.04,521.51 618.76,519.42 607.97,514.40 597.95,507.72 593.86,503.56 590.51,499.03 587.75,494.22 584.68,486.29 583.02,478.21 582.82,471.64 583.58,465.15 585.33,457.68 588.06,450.36 591.95,443.57 596.23,437.68 598.74,434.63 602.12,431.54 625.69,416.25 650.47,399.95 656.10,394.64 660.30,389.65 664.16,384.55 667.62,378.56 672.66,365.67 676.33,352.21 677.17,344.99 677.17,338.28 675.62,323.96 671.03,308.34 662.75,290.07 621.10,214.61 576.06,144.36 570.52,137.57 565.14,132.33 556.49,125.33 546.75,119.34 540.10,116.46 533.17,114.27 526.13,113.05 518.81,112.95 511.40,113.81 504.36,115.46 498.19,117.72 492.39,120.70 487.21,124.25 482.96,128.24 479.24,132.80 476.11,137.68 473.49,142.85 471.41,148.31 470.03,154.16 469.55,165.75 470.45,176.41 471.24,180.61 472.42,184.38 477.41,195.51 484.48,206.60 514.27,242.68 518.10,249.29 520.78,255.32 523.09,261.53 524.81,268.06 525.99,277.07 526.38,285.65 525.74,293.95 523.48,303.39 519.82,311.82 517.65,315.74 514.78,319.72 507.51,327.12 498.95,333.79 492.50,337.02 485.80,339.21 477.49,341.01 469.18,341.91 462.85,341.91 456.71,341.26 450.37,340.08 444.01,338.28 429.61,332.14 414.24,322.99 362.44,281.88 314.76,234.79 168.28,73.78 155.61,61.83 145.75,54.14 139.76,50.70 133.39,48.04 119.73,43.70 106.27,40.57 101.11,40.00 96.19,40.18 86.67,41.65 77.43,44.09 72.95,45.89 68.78,48.33 61.21,54.14 54.25,60.68 51.21,64.38 48.70,68.43 44.65,77.05 41.46,86.06 40.42,90.98 40.00,95.79 40.39,108.64 42.87,121.74 47.27,134.02 50.34,140.05 54.31,146.19 70.64,164.42 95.88,186.75 250.61,308.84"
        fill="none"
        stroke="#e94560"
        stroke-width="8.0"
        stroke-linejoin="round"
        stroke-linecap="round"/>
  <!-- Start/finish line -->
  <line x1="263.12" y1="293.24" x2="238.10" y2="324.45"
        stroke="#f5f5f5" stroke-width="9.6"
        stroke-linecap="round"/>
</svg>
