<?xml version="1.0" encoding="utf-8"?>
<svg xmlns="http://www.w3.org/2000/svg"
     width="332.6" height="800.0"
     viewBox="0 0 332.6 800.0">
  <rect width="100%" height="100%" fill="#1a1a2e"/>
  <!-- Track outline -->
  <polyline points="58.00,359.65 40.00,584.22 40.40,619.09 44.42,649.12 57.01,690.16 72.91,724.55 81.28,735.41 89.92,742.97 97.96,748.98 107.06,753.67 122.56,758.03 139.31,760.00 154.74,758.85 168.92,755.97 177.36,753.34 185.21,749.88 195.17,744.78 204.66,738.53 211.98,731.54 218.38,723.81 223.65,717.14 228.34,708.75 235.13,685.64 241.46,650.02 274.10,397.74 292.56,148.00 290.12,125.55 286.04,109.26 280.30,95.44 273.97,84.99 266.45,76.28 258.14,68.46 243.37,57.19 227.21,48.55 209.48,42.96 192.59,40.25 182.57,40.00 173.27,41.07 163.45,43.54 154.15,47.16 146.89,50.86 140.23,55.22 134.37,60.15 128.83,66.08 122.76,73.73 116.63,84.01 103.44,113.78 90.25,154.58 58.93,348.47 58.00,359.65"
        fill="none"
        stroke="#e94560"
        stroke-width="8.0"
        stroke-linejoin="round"
        stroke-linecap="round"/>
  <!-- Start/finish line -->
  <line x1="77.94" y1="361.25" x2="38.07" y2="358.05"
        stroke="#f5f5f5" stroke-width="9.6"
        stroke-linecap="round"/>
</svg>
