<?xml version="1.0" encoding="utf-8"?>
<svg xmlns="http://www.w3.org/2000/svg"
     width="569.5" height="800.0"
     viewBox="0 0 569.5 800.0">
  <rect width="100%" height="100%" fill="#1a1a2e"/>
  <!-- Track outline -->
  <polyline points="489.70,273.70 487.19,264.00 471.84,220.67 449.02,168.39 428.12,136.52 404.63,109.51 378.43,85.92 350.45,66.77 322.67,52.80 294.29,43.60 266.51,40.00 238.66,41.25 210.81,47.44 182.69,58.82 147.30,79.81 114.36,105.07 93.32,124.90 75.85,146.73 62.29,170.32 51.97,198.75 43.18,256.55 40.00,317.86 44.76,395.15 61.43,488.58 84.39,580.59 99.14,620.65 116.34,653.86 137.64,684.47 162.12,710.40 188.78,729.97 217.29,744.53 246.46,753.98 276.23,758.91 305.01,760.00 334.51,756.32 371.82,744.69 407.74,727.30 433.74,708.98 456.69,686.90 477.60,660.72 495.72,630.02 513.12,588.11 525.23,542.11 529.46,496.02 527.48,446.59 501.15,318.62 489.70,273.70"
        fill="none"
        stroke="#e94560"
        stroke-width="8.0"
        stroke-linejoin="round"
        stroke-linecap="round"/>
  <!-- Start/finish line -->
  <line x1="470.33" y1="278.65" x2="509.08" y2="268.75"
        stroke="#f5f5f5" stroke-width="9.6"
        stroke-linecap="round"/>
</svg>
