<?xml version="1.0" encoding="utf-8"?>
<svg xmlns="http://www.w3.org/2000/svg"
     width="687.1" height="800.0"
     viewBox="0 0 687.1 800.0">
  <rect width="100%" height="100%" fill="#1a1a2e"/>
  <!-- Track outline -->
  <polyline points="332.13,408.20 291.58,449.80 216.47,521.06 102.48,635.16 49.25,687.11 42.88,698.46 40.00,711.54 40.79,722.76 44.87,733.58 55.24,746.74 69.99,755.95 87.69,760.00 116.26,756.96 150.32,744.06 196.25,714.70 208.69,701.35 216.26,686.41 219.44,668.95 217.80,650.27 208.79,617.22 187.63,536.02 181.04,503.57 176.41,477.44 172.11,439.25 170.43,402.46 171.50,385.47 175.83,370.57 183.98,356.35 193.76,346.77 205.56,340.70 221.32,337.59 257.58,341.62 274.10,338.02 288.03,330.13 298.70,317.93 306.05,302.50 309.14,285.19 306.67,253.81 306.51,237.00 309.82,220.16 327.53,164.24 336.52,142.02 356.47,105.03 378.06,72.32 391.20,57.06 404.42,47.26 419.72,41.32 434.27,40.00 445.80,42.82 454.02,48.62 459.59,57.00 461.89,67.19 460.45,77.80 454.72,90.79 441.96,107.29 413.59,138.87 380.02,181.84 364.33,201.90 360.82,212.81 360.49,224.79 363.40,234.58 370.60,244.63 381.24,251.51 394.11,254.17 409.35,250.64 423.24,241.07 434.67,226.45 453.41,191.52 473.49,163.77 488.29,148.59 504.05,138.04 523.08,131.08 544.36,127.85 571.30,128.70 598.43,133.96 627.51,144.36 639.35,152.62 644.93,160.37 647.14,169.64 645.64,179.49 640.52,189.07 632.00,196.91 620.83,201.91 602.48,204.17 566.33,205.64 549.62,210.55 537.17,216.44 518.48,228.24 502.09,240.58 347.43,392.48 332.13,408.20"
        fill="none"
        stroke="#e94560"
        stroke-width="8.0"
        stroke-linejoin="round"
        stroke-linecap="round"/>
  <!-- Start/finish line -->
  <line x1="346.45" y1="422.16" x2="317.80" y2="394.25"
        stroke="#f5f5f5" stroke-width="9.6"
        stroke-linecap="round"/>
</svg>
