<?xml version="1.0" encoding="utf-8"?>
<svg xmlns="http://www.w3.org/2000/svg"
     width="542.0" height="800.0"
     viewBox="0 0 542.0 800.0">
  <rect width="100%" height="100%" fill="#1a1a2e"/>
  <!-- Track outline -->
  <polyline points="381.21,472.34 498.50,141.01 501.36,127.06 502.04,116.56 501.58,105.70 499.78,95.21 496.53,84.87 492.10,75.23 486.98,66.98 480.99,59.72 474.02,53.44 466.31,48.32 457.86,44.47 448.53,41.87 435.43,40.12 421.32,40.00 405.54,41.84 390.06,45.50 377.29,50.27 365.55,56.45 355.56,63.55 346.71,71.67 339.86,79.79 334.11,88.65 329.46,98.21 326.05,108.37 324.16,118.96 323.67,129.79 324.52,140.37 326.96,151.45 342.87,187.71 351.07,209.78 353.20,219.90 354.24,230.03 354.13,240.05 352.91,250.15 350.25,261.53 346.49,272.55 342.15,281.98 336.91,290.63 330.57,298.71 323.42,305.99 315.54,312.45 306.92,318.08 285.47,327.89 258.01,339.61 248.12,346.37 239.39,354.22 232.14,362.64 225.45,372.90 215.05,394.08 206.50,416.31 203.25,428.28 201.57,439.78 201.23,453.12 202.53,466.74 205.79,480.92 211.01,495.47 232.81,535.42 248.74,566.91 252.05,576.12 254.07,584.78 254.78,592.77 254.46,600.66 253.10,608.56 250.73,616.38 246.87,625.10 242.08,633.35 236.94,640.36 231.17,646.56 224.41,652.11 217.20,656.65 210.47,659.80 203.42,662.04 195.00,663.56 186.28,664.01 177.60,663.31 169.04,661.51 160.81,658.66 152.94,654.78 145.69,650.04 138.86,644.31 125.73,628.81 116.41,614.88 106.92,601.82 100.37,595.92 93.87,591.78 88.15,589.36 82.36,587.98 76.34,587.44 70.33,587.87 64.50,589.32 58.99,591.78 54.09,595.16 49.74,599.38 46.20,604.16 43.39,609.61 41.21,616.27 40.00,623.54 40.01,631.88 41.22,640.53 43.79,650.15 47.90,659.83 55.45,671.85 65.18,683.38 78.21,694.61 94.25,705.90 130.24,729.86 166.05,750.54 179.70,755.86 191.61,758.71 201.66,760.00 211.76,759.97 224.64,758.39 237.54,755.28 248.70,751.07 259.21,745.57 268.94,738.92 278.05,730.75 287.32,719.85 296.03,706.35 317.52,654.61 379.21,477.99 381.21,472.34"
        fill="none"
        stroke="#e94560"
        stroke-width="8.0"
        stroke-linejoin="round"
        stroke-linecap="round"/>
  <!-- Start/finish line -->
  <line x1="362.36" y1="465.66" x2="400.06" y2="479.01"
        stroke="#f5f5f5" stroke-width="9.6"
        stroke-linecap="round"/>
</svg>
