<?xml version="1.0" encoding="utf-8"?>
<svg xmlns="http://www.w3.org/2000/svg"
     width="587.1" height="800.0"
     viewBox="0 0 587.1 800.0">
  <rect width="100%" height="100%" fill="#1a1a2e"/>
  <!-- Track outline -->
  <polyline points="378.98,139.53 374.62,144.50 266.56,303.20 194.66,435.26 138.68,541.01 131.16,553.93 127.17,559.88 122.97,565.39 118.39,570.36 113.41,574.67 108.06,578.11 102.44,580.70 96.69,582.40 79.62,586.74 76.89,587.83 74.42,589.13 65.05,595.56 60.94,599.44 55.91,605.44 50.78,612.82 46.44,621.22 44.52,627.07 43.31,633.20 42.49,638.93 41.98,643.90 40.00,675.75 40.94,703.86 45.63,729.82 47.85,735.33 53.72,744.99 57.28,749.10 61.26,752.52 65.53,755.25 70.00,757.33 74.68,758.70 79.44,759.69 84.33,760.00 89.13,759.66 93.72,758.59 97.93,756.81 101.73,754.48 103.43,753.16 105.04,751.65 106.89,749.51 108.54,747.20 110.52,743.36 111.93,739.14 112.76,734.53 113.96,706.24 115.82,693.76 117.19,687.82 118.92,682.14 121.14,676.78 123.88,671.72 127.12,666.99 130.80,662.61 134.92,658.60 139.51,655.09 144.42,652.01 149.71,649.47 166.17,643.72 171.31,641.13 176.04,637.80 184.15,629.60 187.51,624.88 192.94,614.09 194.97,608.04 199.39,580.35 204.17,546.64 206.65,530.58 209.19,514.88 211.59,507.07 214.35,499.55 217.69,492.36 221.82,485.57 231.51,473.04 236.91,467.09 242.74,461.40 249.04,456.03 286.98,429.21 291.92,424.73 296.18,419.98 302.84,409.56 304.11,406.91 305.14,404.01 309.07,386.29 311.19,380.30 313.96,374.46 317.48,369.05 321.77,364.04 326.50,359.33 330.89,354.09 343.88,336.77 348.07,327.24 354.97,295.97 357.64,287.63 360.74,279.42 364.33,271.58 368.33,264.00 372.83,256.53 377.76,249.29 383.03,242.39 388.75,235.68 423.27,198.56 428.28,192.76 435.25,185.30 440.50,181.53 446.01,178.33 451.88,175.94 458.16,174.36 477.85,169.89 484.27,167.33 496.73,160.56 502.74,156.30 508.32,151.47 515.00,144.08 521.94,135.09 532.71,115.65 543.96,84.49 546.55,73.43 547.05,68.16 546.85,63.06 545.98,58.15 545.24,55.84 544.30,53.62 543.17,51.56 541.86,49.63 540.35,47.81 538.67,46.15 536.78,44.67 534.75,43.39 532.52,42.33 530.19,41.50 525.23,40.48 519.85,40.00 514.16,40.14 505.54,41.58 495.64,44.08 486.20,47.57 476.31,52.37 443.68,73.94 411.34,102.57 378.98,139.53"
        fill="none"
        stroke="#e94560"
        stroke-width="8.0"
        stroke-linejoin="round"
        stroke-linecap="round"/>
  <!-- Start/finish line -->
  <line x1="394.03" y1="152.71" x2="363.94" y2="126.35"
        stroke="#f5f5f5" stroke-width="9.6"
        stroke-linecap="round"/>
</svg>
