<?xml version="1.0" encoding="utf-8"?>
<svg xmlns="http://www.w3.org/2000/svg"
     width="735.1" height="800.0"
     viewBox="0 0 735.1 800.0">
  <rect width="100%" height="100%" fill="#1a1a2e"/>
  <!-- Track outline -->
  <polyline points="102.68,292.50 42.45,114.37 40.19,102.20 40.00,93.16 41.22,83.25 43.98,73.84 46.69,68.06 50.13,62.54 54.07,57.61 60.95,51.29 68.82,46.24 74.51,43.52 80.52,41.42 86.59,40.19 92.63,40.00 98.75,40.65 104.67,41.99 113.16,45.21 121.03,49.84 127.99,55.81 134.03,62.85 139.26,70.74 143.51,79.27 146.60,88.00 148.93,97.99 152.95,139.25 157.95,160.15 167.28,180.05 179.09,198.88 188.53,210.79 205.54,227.28 241.77,258.78 263.06,271.91 286.19,282.36 311.03,289.63 338.71,293.42 372.72,294.95 500.58,283.32 519.27,283.20 537.73,285.00 555.69,288.68 573.12,294.11 589.67,301.27 605.42,310.03 620.10,320.37 633.59,332.23 645.40,345.82 665.51,376.14 673.76,392.56 686.45,427.19 690.73,445.18 695.05,482.12 694.25,519.32 687.94,555.84 677.20,591.63 661.91,625.84 652.55,642.23 642.00,657.77 630.19,672.46 617.23,685.98 603.28,698.49 572.59,720.19 539.33,737.80 499.51,753.19 478.29,759.08 468.09,760.00 458.04,759.50 448.21,757.55 438.92,754.11 430.55,749.13 423.18,742.93 417.10,735.89 412.32,728.00 410.07,722.38 408.50,716.44 407.66,710.43 407.66,704.39 408.42,698.26 409.84,692.33 413.12,683.60 417.75,675.53 423.79,668.33 430.97,662.17 439.19,657.31 448.14,653.63 457.20,651.11 467.48,649.31 509.56,645.52 520.91,643.41 531.19,640.47 541.70,636.18 551.79,630.74 561.43,624.16 570.26,616.51 578.13,607.78 584.97,598.17 590.86,587.76 595.60,576.70 598.96,565.02 601.25,553.01 603.24,528.40 601.33,490.12 596.40,452.00 592.46,438.64 587.46,427.50 581.42,416.67 574.38,406.83 566.74,398.60 558.33,391.48 549.77,385.67 540.67,381.11 531.12,378.05 521.33,376.67 514.95,376.86 508.60,377.82 502.49,379.54 493.62,383.71 485.44,389.30 478.14,395.89 472.06,403.50 467.67,412.23 464.76,421.61 463.27,431.37 463.12,441.36 464.19,451.04 466.52,461.57 473.55,481.97 480.17,502.64 481.66,514.12 481.47,524.80 479.90,535.78 476.73,546.19 473.82,552.24 470.23,557.91 466.10,562.92 461.48,567.17 456.32,570.80 450.85,573.75 445.12,576.01 439.04,577.58 433.00,578.34 427.11,578.27 421.23,577.43 415.46,575.67 408.84,572.49 402.31,568.13 396.57,563.03 391.80,556.91 387.82,550.02 384.61,543.09 381.71,534.33 379.91,525.49 378.50,506.62 380.60,466.31 379.53,455.37 377.50,445.34 374.48,434.85 370.58,424.63 360.03,405.11 346.27,386.78 338.32,378.43 329.76,371.01 321.47,365.00 312.52,360.37 305.30,358.07 297.62,356.61 290.20,356.61 285.12,357.69 280.11,359.52 275.37,362.01 271.21,365.00 267.50,368.67 264.21,373.00 261.50,377.70 259.51,382.53 258.33,387.54 257.79,392.82 257.94,398.14 258.71,403.23 260.92,409.63 264.25,415.71 268.07,421.57 275.45,429.61 282.52,437.87 285.85,444.53 288.29,451.69 289.59,459.00 289.59,466.54 288.37,474.20 286.07,481.35 282.60,487.94 278.01,494.10 272.66,499.34 266.24,503.71 258.97,507.19 251.79,509.68 242.65,511.36 233.60,511.55 224.42,510.37 215.36,507.99 206.30,504.51 197.67,499.96 189.60,494.10 182.11,487.33 175.12,479.67 168.77,471.33 158.07,452.72 149.89,432.09 102.68,292.50"
        fill="none"
        stroke="#e94560"
        stroke-width="8.0"
        stroke-linejoin="round"
        stroke-linecap="round"/>
  <!-- Start/finish line -->
  <line x1="83.74" y1="298.91" x2="121.63" y2="286.10"
        stroke="#f5f5f5" stroke-width="9.6"
        stroke-linecap="round"/>
</svg>
