<?xml version="1.0" encoding="utf-8"?>
<svg xmlns="http://www.w3.org/2000/svg"
     width="779.7" height="800.0"
     viewBox="0 0 779.7 800.0">
  <rect width="100%" height="100%" fill="#1a1a2e"/>
  <!-- Track outline -->
  <polyline points="712.91,430.61 709.59,442.25 632.66,683.09 621.08,707.71 610.50,724.79 603.06,734.29 595.27,741.87 585.83,748.88 576.57,754.38 571.10,757.10 565.86,758.96 560.20,759.88 554.50,760.00 549.07,759.54 543.79,758.38 538.68,756.58 533.75,754.09 529.10,751.14 524.36,747.14 516.43,738.52 509.13,727.98 504.62,717.61 501.88,706.43 501.01,698.38 501.06,690.04 502.20,681.53 505.12,670.93 509.72,660.05 516.24,648.41 545.34,617.08 579.35,578.22 616.38,504.85 644.70,429.04 654.64,390.65 658.56,356.48 657.01,331.17 651.54,306.91 640.00,276.97 624.50,248.01 606.58,221.66 585.33,197.69 555.41,172.61 522.67,151.88 492.17,138.04 460.61,128.95 424.86,124.26 389.75,124.03 362.16,126.98 337.17,132.71 319.66,139.08 303.98,147.37 289.70,158.08 278.21,168.73 274.61,172.67 271.46,177.25 262.75,192.94 255.14,212.69 252.81,226.93 252.13,241.99 253.18,256.87 257.88,278.76 267.31,301.47 297.32,344.26 332.39,387.29 377.35,445.31 392.21,457.48 406.44,465.58 418.11,469.58 428.55,471.43 434.12,471.55 439.23,470.97 444.51,469.87 449.76,468.19 454.68,466.22 460.06,463.09 473.61,451.92 487.38,436.92 494.08,426.67 499.78,415.55 504.02,403.91 507.26,385.26 507.58,367.02 505.62,353.87 502.15,342.99 499.10,337.54 495.59,333.20 491.76,329.38 487.56,326.19 482.96,323.76 478.08,322.02 472.70,320.98 467.13,320.63 461.48,320.98 454.77,322.08 432.84,328.22 409.31,334.01 397.00,334.53 386.74,333.49 381.22,332.10 376.34,330.19 371.56,327.93 366.54,324.80 357.05,316.70 348.57,307.55 345.65,302.86 343.65,298.11 342.19,292.89 341.41,287.39 341.28,281.49 341.82,275.41 342.96,268.98 344.92,262.20 349.94,250.21 356.64,238.40 363.89,229.89 372.15,222.77 381.91,216.40 392.49,211.30 404.30,207.30 416.61,204.76 429.19,203.77 442.33,204.52 459.33,207.71 477.03,213.85 497.82,225.43 517.20,240.14 530.65,253.92 542.23,270.02 554.46,293.01 563.80,318.66 568.55,344.55 569.69,372.00 566.31,406.40 559.20,442.30 548.66,483.48 535.03,521.29 522.08,544.75 507.58,563.22 493.76,574.80 479.81,582.91 469.46,587.02 459.20,589.28 448.12,590.26 436.95,589.57 425.91,587.25 414.37,582.68 398.32,573.12 377.71,555.52 206.44,356.83 52.36,159.47 45.02,146.61 41.50,137.23 40.32,131.15 40.00,125.42 40.09,119.92 40.73,114.53 41.96,109.38 43.69,104.45 46.06,99.71 48.89,95.30 52.31,90.96 56.32,87.02 61.84,83.26 67.77,80.19 73.33,77.82 78.94,76.02 84.41,74.92 89.84,74.51 95.22,74.75 100.51,75.67 105.30,77.00 110.91,79.49 132.66,95.48 157.56,112.27 168.23,116.27 178.44,118.47 188.75,119.22 199.14,118.70 209.63,116.73 221.17,113.08 252.40,95.77 286.33,76.31 316.88,64.79 349.90,55.93 405.71,45.50 459.93,40.00 485.92,40.58 508.95,44.75 531.20,52.74 552.68,64.90 574.93,83.55 598.82,107.87 700.69,220.97 716.52,243.21 727.60,263.48 733.98,280.97 737.95,297.93 739.59,310.33 739.68,323.76 736.72,354.05 730.52,386.13 712.91,430.61"
        fill="none"
        stroke="#e94560"
        stroke-width="8.0"
        stroke-linejoin="round"
        stroke-linecap="round"/>
  <!-- Start/finish line -->
  <line x1="731.65" y1="437.60" x2="694.18" y2="423.62"
        stroke="#f5f5f5" stroke-width="9.6"
        stroke-linecap="round"/>
</svg>
