<?xml version="1.0" encoding="utf-8"?>
<svg xmlns="http://www.w3.org/2000/svg"
     width="507.9" height="800.0"
     viewBox="0 0 507.9 800.0">
  <rect width="100%" height="100%" fill="#1a1a2e"/>
  <!-- Track outline -->
  <polyline points="266.42,516.79 271.74,510.92 278.39,503.11 287.92,494.48 295.39,485.43 302.72,476.30 310.19,467.36 317.47,458.37 324.77,449.52 332.09,440.60 339.48,431.52 346.44,422.56 352.71,413.48 358.18,404.06 362.52,394.47 365.70,384.58 367.09,374.48 366.81,364.32 364.35,351.58 358.58,340.02 350.57,330.83 340.99,325.19 330.07,321.73 318.69,318.37 308.02,313.49 298.68,306.49 291.58,297.37 287.88,286.77 287.80,275.87 291.35,265.59 297.83,256.18 305.54,246.44 314.16,236.44 321.40,228.90 329.25,221.33 337.86,213.95 347.26,206.93 357.45,200.47 368.03,193.96 378.64,186.85 388.78,178.45 398.73,169.35 408.79,160.02 418.45,150.85 427.50,141.78 435.75,132.79 443.15,123.78 449.93,114.81 455.80,105.71 460.66,96.57 465.61,84.22 467.92,71.73 466.32,59.85 460.72,49.64 451.91,42.69 441.26,40.00 430.19,41.56 419.59,46.77 410.05,54.99 402.71,65.92 398.54,75.50 395.35,85.80 392.27,96.43 388.06,106.59 382.47,115.90 375.38,124.25 366.83,131.37 357.28,137.46 347.60,143.99 338.19,151.40 328.89,159.48 319.63,168.02 310.40,177.05 301.43,186.62 292.57,196.58 283.99,206.43 275.76,215.98 268.16,225.42 261.47,235.08 255.58,245.02 250.99,255.09 247.50,265.16 245.23,275.28 244.93,288.76 245.75,299.13 245.78,309.47 244.62,319.61 240.64,332.14 232.98,342.57 222.63,350.46 214.11,356.06 204.99,361.36 195.34,366.47 185.32,371.73 175.18,377.42 165.01,383.81 155.04,390.94 145.15,398.78 135.43,407.16 125.92,416.17 116.45,425.56 107.08,435.30 97.78,445.30 88.65,455.48 79.92,465.85 71.58,476.44 63.84,487.14 56.92,498.19 50.94,509.63 46.06,521.51 42.76,534.02 41.16,546.87 40.29,560.02 40.00,573.34 40.42,586.86 41.47,600.55 43.05,614.35 45.07,628.28 47.41,642.10 49.76,655.47 52.06,668.41 54.65,680.87 57.76,692.80 61.65,704.02 66.37,714.57 71.90,724.32 78.17,733.47 85.26,741.87 93.57,749.00 102.69,754.69 112.62,758.37 122.74,760.00 136.02,759.25 147.99,755.30 158.03,748.48 165.33,739.56 169.24,729.33 170.17,719.13 166.95,707.38 158.76,698.55 147.42,693.07 135.22,689.97 123.05,686.86 114.55,681.08 107.67,672.54 102.45,662.13 99.28,650.03 96.31,636.91 94.29,626.47 92.54,615.50 91.18,604.05 90.40,592.19 90.75,579.98 92.37,567.53 95.55,555.07 99.99,542.67 105.40,530.27 111.63,517.92 118.64,505.73 126.40,493.67 134.69,481.68 143.15,469.98 151.42,458.76 159.58,448.01 167.60,437.91 175.58,428.34 183.66,419.67 191.89,411.95 200.43,405.44 209.18,400.23 221.03,395.66 232.88,394.35 243.48,397.18 252.42,405.33 255.16,416.24 253.90,428.30 248.87,437.44 241.88,446.27 234.22,455.66 225.85,465.60 219.09,473.35 211.98,481.32 204.38,489.40 196.33,497.60 187.87,505.95 179.18,514.63 170.78,523.57 163.31,532.85 157.31,542.51 152.75,552.43 149.15,562.27 146.10,572.01 142.73,584.45 140.39,596.19 140.18,607.26 143.84,618.84 151.90,626.18 162.51,627.67 173.43,624.89 183.47,617.53 191.23,609.63 199.04,600.30 207.14,590.09 213.52,581.99 220.29,573.45 227.30,564.46 234.52,555.16 241.95,545.49 255.29,530.12 263.91,519.55 266.42,516.79"
        fill="none"
        stroke="#e94560"
        stroke-width="8.0"
        stroke-linejoin="round"
        stroke-linecap="round"/>
  <!-- Start/finish line -->
  <line x1="251.61" y1="503.35" x2="281.23" y2="530.23"
        stroke="#f5f5f5" stroke-width="9.6"
        stroke-linecap="round"/>
</svg>
