<?xml version="1.0" encoding="utf-8"?>
<svg xmlns="http://www.w3.org/2000/svg"
     width="800.0" height="755.3"
     viewBox="0 0 800.0 755.3">
  <rect width="100%" height="100%" fill="#1a1a2e"/>
  <!-- Track outline -->
  <polyline points="558.84,287.19 601.40,299.89 650.38,316.89 668.40,325.76 683.86,335.43 698.38,346.48 711.81,359.04 723.22,372.25 733.44,386.63 742.05,401.27 749.30,416.80 754.74,432.22 758.44,448.14 760.00,463.56 759.64,479.49 756.51,499.35 751.07,519.03 734.47,553.92 694.48,624.48 673.40,669.82 663.83,683.49 653.83,694.33 644.59,701.59 635.00,707.03 624.78,711.25 613.89,713.97 599.61,715.30 584.87,714.48 572.71,712.11 557.78,706.46 457.60,652.28 359.80,591.67 346.62,581.25 337.69,571.49 333.26,565.22 329.58,558.60 326.76,551.30 324.70,538.10 323.81,524.22 323.33,511.30 321.99,499.45 319.84,493.44 316.95,488.11 313.40,483.28 308.38,478.02 302.37,473.48 294.98,469.43 266.15,462.31 232.65,456.41 171.96,439.20 110.56,412.90 88.19,400.77 69.34,388.21 59.79,379.90 52.13,370.92 48.09,364.70 44.59,357.97 42.06,350.95 40.65,343.98 40.00,336.71 40.29,330.02 41.32,324.94 43.04,320.32 45.38,316.03 49.52,310.95 54.69,306.44 60.24,302.68 66.61,299.53 73.43,297.24 80.32,295.92 87.19,295.53 94.15,296.06 101.62,297.57 117.31,303.54 135.50,312.27 209.12,349.02 228.89,355.11 249.20,358.51 292.44,359.15 334.51,359.86 351.81,363.26 366.29,368.13 377.36,373.25 387.49,379.58 396.20,386.49 405.19,396.15 425.77,428.82 447.35,463.17 460.08,477.73 473.22,489.29 491.55,501.64 511.29,511.62 531.77,518.92 551.94,523.11 568.36,523.64 583.46,521.71 594.46,518.56 604.47,513.73 613.30,507.47 621.10,499.63 625.26,493.91 628.92,487.54 631.77,480.74 633.66,473.87 634.86,466.61 635.14,459.34 634.47,452.11 632.89,444.89 630.48,437.76 623.59,424.53 614.16,412.04 600.33,399.44 581.62,386.77 431.90,308.02 321.80,246.75 293.81,237.24 267.27,232.30 201.78,232.69 178.59,234.80 158.90,235.63 149.35,233.98 141.17,230.90 136.19,228.18 131.45,224.86 127.31,220.85 124.04,216.63 121.24,211.83 119.18,206.36 117.84,199.20 117.38,191.22 117.89,183.49 119.30,176.48 121.71,169.68 125.40,162.02 149.57,126.67 178.45,92.14 193.02,78.25 207.45,67.62 225.78,57.14 244.59,49.05 260.50,44.26 276.27,41.36 292.49,40.00 309.29,40.29 330.90,42.76 350.95,46.69 360.69,49.55 369.23,53.06 377.34,57.25 384.95,62.36 391.58,68.20 397.61,74.89 402.61,81.72 407.13,90.02 418.04,124.63 431.54,180.48 440.13,199.95 450.63,216.95 464.82,233.30 481.57,247.72 507.37,264.15 532.99,277.28 558.84,287.19"
        fill="none"
        stroke="#e94560"
        stroke-width="8.0"
        stroke-linejoin="round"
        stroke-linecap="round"/>
  <!-- Start/finish line -->
  <line x1="565.11" y1="268.20" x2="552.56" y2="306.18"
        stroke="#f5f5f5" stroke-width="9.6"
        stroke-linecap="round"/>
</svg>
