<?xml version="1.0" encoding="utf-8"?>
<svg xmlns="http://www.w3.org/2000/svg"
     width="527.9" height="800.0"
     viewBox="0 0 527.9 800.0">
  <rect width="100%" height="100%" fill="#1a1a2e"/>
  <!-- Track outline -->
  <polyline points="253.97,510.79 264.84,396.12 264.38,386.11 262.94,378.66 259.84,367.85 255.30,357.64 251.22,351.67 246.48,346.37 241.32,341.80 232.27,336.17 222.50,332.16 212.75,329.51 200.80,328.08 152.38,329.85 104.58,331.70 97.17,331.06 87.57,329.63 77.73,326.49 66.67,320.97 60.06,313.79 58.54,309.78 57.47,305.47 56.90,301.01 56.90,296.74 57.59,292.39 58.95,288.00 60.77,283.88 62.95,280.18 67.11,275.45 72.16,271.63 77.57,268.49 86.39,265.17 97.63,263.20 194.60,262.45 214.45,263.66 233.78,266.45 251.94,271.93 268.66,280.25 300.05,301.88 332.06,323.24 342.55,328.23 351.73,331.02 358.04,332.12 364.35,332.50 370.45,331.97 376.12,330.50 381.63,328.19 386.71,325.05 391.05,321.35 395.02,316.89 398.51,311.89 402.48,304.49 405.64,294.58 410.95,254.24 412.79,213.11 411.85,202.11 409.61,193.34 407.13,187.48 403.97,182.11 400.33,177.42 395.87,173.23 390.84,169.79 385.56,167.06 379.74,164.95 373.63,163.66 367.45,162.98 358.73,163.09 347.78,164.79 216.68,200.41 206.73,202.22 198.78,202.37 192.34,201.54 185.85,199.84 179.98,196.97 175.36,193.34 171.23,188.76 167.62,182.83 164.10,171.60 161.46,158.07 158.43,146.19 155.72,139.28 152.79,133.34 149.23,128.46 145.66,125.36 141.58,122.91 137.28,121.17 132.99,120.11 128.66,119.77 124.20,120.07 119.84,121.13 115.86,122.94 112.48,125.36 109.27,128.43 106.45,132.06 104.22,135.99 102.19,144.64 100.76,153.87 99.22,159.92 97.45,165.85 94.93,171.03 92.11,174.55 88.73,177.57 85.01,180.03 81.19,181.85 76.91,183.05 72.31,183.55 67.72,183.32 63.39,182.26 59.44,180.45 55.59,177.88 52.03,174.66 49.00,170.92 46.00,165.48 43.72,159.12 41.97,151.75 40.21,131.30 40.00,110.39 40.80,88.84 42.05,79.20 44.41,70.06 47.36,63.48 51.10,57.28 55.52,51.98 61.26,47.49 67.77,44.12 74.37,41.70 83.75,40.00 93.37,40.00 103.01,41.32 114.71,44.20 212.27,73.72 359.89,86.92 402.74,91.49 421.62,95.50 439.26,101.96 447.42,106.35 455.11,111.68 461.98,117.95 468.22,125.25 473.60,133.42 478.22,142.41 481.96,151.94 484.86,162.00 487.89,183.24 487.63,206.04 464.42,460.17 462.42,471.09 459.75,478.69 457.34,483.15 454.39,487.42 451.08,491.17 447.55,494.08 444.26,495.82 440.67,497.06 436.90,497.78 433.16,497.93 429.59,497.59 425.36,496.42 421.13,494.42 417.15,491.73 413.67,488.45 408.72,479.98 404.74,470.41 398.10,453.85 394.20,445.27 389.61,437.14 385.40,431.40 380.66,426.03 375.50,421.83 371.14,419.53 366.45,417.90 361.68,416.99 357.01,416.92 352.47,417.64 347.91,419.15 343.60,421.38 339.81,424.25 336.21,428.03 333.21,432.76 330.42,439.83 322.34,480.28 315.44,536.50 313.42,578.69 314.36,587.00 316.03,593.20 318.57,598.57 321.39,602.62 324.85,606.13 328.73,609.04 332.78,611.35 339.11,613.39 346.04,614.11 353.73,614.19 374.17,611.58 394.46,608.63 404.90,608.55 414.20,609.84 420.13,611.50 425.85,613.77 431.18,616.87 435.85,620.54 440.18,624.96 443.78,630.14 447.39,639.36 449.78,649.68 451.49,660.72 452.08,671.99 451.44,683.14 449.44,693.92 447.16,700.80 444.19,707.34 440.60,713.23 433.44,720.99 425.10,727.37 415.00,733.12 404.66,737.88 387.74,744.73 369.55,750.47 330.60,758.41 311.34,760.00 302.41,759.92 293.39,759.05 282.46,756.94 271.74,753.12 265.71,749.60 260.02,745.26 254.89,740.23 248.68,731.95 243.71,722.46 240.27,712.29 238.14,701.40 237.55,691.61 238.09,678.42 253.97,510.79"
        fill="none"
        stroke="#e94560"
        stroke-width="8.0"
        stroke-linejoin="round"
        stroke-linecap="round"/>
  <!-- Start/finish line -->
  <line x1="234.06" y1="508.90" x2="273.88" y2="512.67"
        stroke="#f5f5f5" stroke-width="9.6"
        stroke-linecap="round"/>
</svg>
