<?xml version="1.0" encoding="utf-8"?>
<svg xmlns="http://www.w3.org/2000/svg"
     width="796.4" height="800.0"
     viewBox="0 0 796.4 800.0">
  <rect width="100%" height="100%" fill="#1a1a2e"/>
  <!-- Track outline -->
  <polyline points="65.81,141.91 55.43,171.47 45.50,208.37 40.00,242.54 40.29,260.29 43.09,275.77 45.95,284.79 49.64,293.15 54.14,300.68 59.71,307.48 66.04,313.41 72.34,318.06 77.13,320.70 81.89,322.38 87.09,323.54 94.71,324.28 103.01,324.07 111.14,322.84 118.82,320.57 126.31,317.32 132.90,312.42 141.29,304.06 147.92,295.33 153.51,287.63 157.98,278.90 161.03,271.98 170.74,239.00 183.73,201.57 193.21,186.42 202.76,175.43 208.51,170.20 214.75,166.24 226.67,161.35 238.47,157.97 243.42,156.90 248.25,156.57 257.63,157.43 266.86,159.29 271.20,160.69 275.34,162.66 283.06,167.48 290.65,173.57 295.79,179.26 300.07,185.52 303.44,192.06 305.92,199.47 307.75,210.88 307.84,223.11 305.66,235.05 301.51,246.46 295.56,256.71 287.01,267.29 256.83,295.37 227.29,323.54 219.96,334.08 215.20,343.96 212.27,353.02 210.76,362.12 210.92,371.22 212.14,379.49 213.30,383.86 215.04,387.94 219.31,395.35 224.81,402.68 231.63,409.02 238.50,414.08 242.46,416.55 246.83,418.49 258.95,422.19 273.64,424.46 292.06,423.18 312.67,419.11 346.87,408.19 379.50,398.39 393.52,397.04 405.92,397.86 418.78,400.70 430.45,405.15 437.62,409.31 443.79,414.33 449.23,419.97 453.79,426.48 457.00,433.72 459.19,441.71 460.25,447.76 460.80,454.15 460.35,460.65 458.03,468.80 454.21,477.16 449.39,485.36 436.40,500.02 423.35,514.47 416.89,525.67 412.35,537.32 409.56,549.51 408.78,562.93 411.71,584.71 418.24,607.77 429.00,631.00 443.60,654.88 473.30,696.96 503.49,733.28 514.93,743.41 525.80,750.24 538.56,755.80 551.07,759.14 559.58,760.00 568.01,759.30 575.63,757.57 583.60,754.81 591.18,751.15 600.92,744.39 610.18,735.25 622.17,719.36 634.00,698.40 653.81,650.18 668.24,603.53 669.88,594.47 670.43,586.98 669.85,579.57 667.69,570.80 664.22,562.07 660.27,554.66 656.80,549.84 653.00,545.84 649.18,542.80 644.64,540.66 640.14,539.42 635.87,538.52 631.66,538.06 627.64,538.14 623.68,538.72 620.12,539.63 616.26,541.40 607.26,548.07 597.07,557.87 582.54,577.55 569.74,594.89 566.17,597.85 562.93,599.78 559.20,601.68 555.34,603.20 551.23,604.44 547.01,605.14 542.84,605.14 538.72,604.68 534.86,603.90 531.10,602.71 527.53,601.18 524.13,599.29 520.88,596.99 517.79,594.35 514.90,591.51 512.14,587.93 508.21,580.60 504.94,572.03 502.91,563.51 502.04,554.41 502.81,542.43 505.45,529.87 511.24,514.92 519.24,500.43 529.69,486.30 541.87,473.54 556.40,461.60 572.76,451.26 618.48,433.23 679.78,410.87 695.24,401.61 707.81,391.11 714.05,384.15 719.45,376.65 723.69,368.54 726.62,359.89 728.51,350.67 729.35,342.02 728.84,332.72 726.97,324.03 723.88,315.51 719.71,307.68 714.69,300.68 708.42,294.47 701.41,289.36 693.28,284.75 684.76,281.17 675.70,278.70 666.21,277.42 656.28,277.25 637.73,279.56 617.74,285.82 587.62,303.40 559.07,322.47 532.39,337.45 518.34,341.70 504.77,343.92 495.10,344.25 485.94,343.30 477.03,341.24 468.38,338.03 460.06,333.67 452.31,328.19 445.75,321.93 440.13,314.68 435.63,306.49 432.32,297.55 430.39,288.37 429.78,278.98 430.74,269.27 432.67,260.46 434.12,255.68 436.14,251.19 440.90,243.12 446.88,235.05 453.50,228.17 461.38,221.96 475.59,213.76 491.56,207.17 506.83,203.47 523.58,202.03 584.30,209.15 668.59,218.95 686.69,218.17 702.25,215.24 715.88,210.39 728.22,203.47 735.14,198.16 741.47,192.02 746.77,185.06 750.73,177.40 753.72,169.00 755.65,160.36 756.45,151.67 756.22,142.77 755.00,134.13 752.46,125.23 748.83,116.59 744.72,109.18 738.74,101.97 732.66,96.58 729.16,93.82 725.14,91.68 713.60,87.81 699.39,85.25 681.36,85.29 660.85,87.93 587.10,107.36 520.46,115.76 447.39,112.10 370.24,97.60 294.89,72.28 217.80,43.87 194.37,40.12 173.28,40.00 156.72,42.59 141.39,47.78 127.89,54.91 114.93,64.87 98.70,81.79 83.40,103.41 68.03,135.61 65.81,141.91"
        fill="none"
        stroke="#e94560"
        stroke-width="8.0"
        stroke-linejoin="round"
        stroke-linecap="round"/>
  <!-- Start/finish line -->
  <line x1="84.68" y1="148.54" x2="46.94" y2="135.28"
        stroke="#f5f5f5" stroke-width="9.6"
        stroke-linecap="round"/>
</svg>
