<?xml version="1.0" encoding="utf-8"?>
<svg xmlns="http://www.w3.org/2000/svg"
     width="633.7" height="800.0"
     viewBox="0 0 633.7 800.0">
  <rect width="100%" height="100%" fill="#1a1a2e"/>
  <!-- Track outline -->
  <polyline points="480.01,419.88 486.40,410.90 493.71,400.71 501.19,390.63 508.71,380.44 516.32,370.35 523.88,360.22 531.40,349.92 538.93,339.63 546.41,329.22 553.49,318.56 560.32,307.63 566.71,296.81 572.36,285.83 577.62,274.84 582.06,263.76 585.67,252.14 588.62,240.63 590.84,228.86 592.54,217.35 593.62,205.84 593.71,194.49 593.10,183.29 591.97,172.21 589.93,161.54 587.36,150.98 583.97,140.95 579.88,130.97 575.19,121.20 569.67,112.28 563.62,103.46 557.19,95.07 549.97,87.25 542.45,79.81 534.40,72.95 525.80,66.87 516.97,61.17 507.66,56.21 498.10,51.88 488.32,47.87 478.23,44.80 468.01,42.75 457.58,41.06 447.23,40.11 436.75,40.00 426.36,40.84 415.97,42.32 405.84,44.54 395.71,47.29 385.66,50.56 375.70,54.20 365.75,58.11 355.75,62.23 345.75,66.29 335.66,70.36 325.40,74.32 315.01,78.23 304.62,81.97 294.14,85.78 283.62,89.63 273.22,93.75 263.40,98.61 253.92,103.89 245.01,109.85 236.61,116.19 228.87,123.16 221.53,130.28 214.87,138.05 209.35,146.44 203.79,154.83 199.09,163.76 195.22,172.84 191.96,182.13 189.57,191.48 187.44,200.77 186.18,210.22 185.74,219.72 185.87,229.44 187.87,239.63 190.05,249.50 192.74,258.95 195.87,268.30 199.66,277.27 203.96,286.09 208.83,294.70 213.96,302.83 219.22,310.43 224.70,317.61 230.05,324.42 235.48,330.70 241.05,336.62 247.05,342.05 253.18,347.18 259.48,351.45 265.96,354.99 272.48,357.79 279.05,359.53 285.53,360.75 291.83,361.01 298.05,360.80 303.92,359.90 309.92,358.47 315.27,356.05 320.62,353.25 325.27,349.55 329.83,345.54 333.70,340.95 336.96,335.93 339.75,330.44 341.79,324.74 343.18,318.88 343.88,312.65 343.83,306.57 343.14,300.34 341.70,294.17 339.83,287.99 337.62,281.81 335.09,275.58 332.57,269.19 330.27,262.59 328.09,255.89 326.18,248.81 324.79,241.63 323.75,234.29 323.18,226.74 323.18,219.14 323.92,211.38 325.31,203.73 327.40,196.28 330.49,188.99 333.79,181.71 337.83,174.74 342.53,168.25 347.57,161.75 353.40,155.89 359.62,150.51 366.27,145.49 373.27,141.21 380.49,137.57 387.92,134.67 395.71,133.13 403.79,132.24 411.66,131.81 419.40,132.24 426.97,133.29 434.23,134.93 441.32,137.57 448.05,140.84 454.53,144.70 460.66,149.29 466.49,154.10 471.53,160.17 476.23,166.03 479.92,172.84 483.40,179.86 486.19,187.25 488.36,194.91 490.14,202.77 491.06,210.96 491.66,219.19 491.62,227.54 491.06,236.04 489.93,244.38 487.88,252.83 486.19,261.38 483.62,269.72 480.58,278.17 477.36,286.56 473.49,294.75 469.40,302.98 465.05,311.22 460.45,319.46 455.58,327.59 450.58,335.82 445.53,344.06 440.27,352.46 434.88,360.85 429.40,369.30 423.88,377.75 418.14,386.19 412.44,394.80 406.71,403.51 400.97,412.22 395.18,421.09 389.53,430.07 383.79,439.04 378.01,448.12 372.18,457.26 366.27,466.45 360.36,475.69 354.36,484.92 348.23,494.22 342.18,503.67 336.14,513.07 330.01,522.52 323.88,532.02 317.79,541.63 311.70,551.24 305.88,560.43 300.31,569.35 294.83,578.11 289.57,586.40 284.40,594.43 279.53,602.24 274.62,609.90 269.83,617.45 265.01,624.68 260.09,631.49 255.05,637.77 249.88,643.42 244.40,648.60 238.83,653.03 233.09,656.94 227.14,660.00 221.18,662.59 215.00,664.17 208.96,665.12 202.57,664.86 196.31,664.49 190.35,663.06 184.66,661.43 179.35,659.05 174.53,656.31 170.48,652.93 166.66,649.13 163.44,645.17 160.31,640.36 157.92,635.50 156.22,630.54 155.35,625.31 155.13,619.93 155.00,614.54 155.61,609.10 156.35,603.35 157.79,597.75 159.66,592.16 162.05,586.67 165.00,581.44 168.48,576.26 172.53,571.51 176.92,566.87 181.74,562.59 186.96,558.47 192.53,554.88 198.48,551.45 204.57,548.12 210.83,544.64 217.00,540.89 223.00,536.67 228.96,531.97 234.44,526.90 239.57,521.46 244.40,515.55 248.53,509.42 252.05,503.25 254.96,496.80 257.09,490.10 258.44,483.29 259.09,476.42 258.96,469.72 258.09,463.12 256.66,456.78 254.66,450.92 251.83,445.06 248.66,439.52 244.53,434.66 240.05,429.80 235.09,425.47 229.61,421.67 223.83,418.24 217.53,415.44 211.09,413.38 204.27,411.80 197.40,411.11 190.35,411.11 183.40,411.91 176.53,413.60 169.70,415.76 162.92,418.51 156.26,421.62 149.83,425.32 143.57,429.54 137.31,433.98 131.35,438.94 125.52,444.22 119.96,449.92 114.57,455.94 109.44,462.38 104.57,469.03 99.96,476.05 95.48,483.24 91.04,490.73 87.04,498.34 82.96,506.20 78.87,514.12 75.00,522.20 71.04,530.49 67.26,538.88 63.48,547.38 59.70,555.99 56.00,564.70 52.48,573.68 49.17,582.71 46.22,592.00 43.83,601.40 41.91,610.90 40.57,620.51 40.00,630.17 40.00,639.83 41.17,649.49 42.61,659.16 45.13,668.66 48.17,678.01 51.74,686.61 56.13,694.95 60.65,703.24 65.83,711.48 71.74,719.19 77.83,725.63 84.83,731.59 92.48,736.98 100.31,742.00 108.65,746.38 117.18,750.44 126.05,753.66 135.13,756.25 144.39,758.42 153.74,759.74 163.44,760.00 173.05,760.00 182.57,759.05 192.13,757.62 201.61,755.25 210.83,752.77 220.00,749.49 229.09,745.64 238.01,741.63 246.70,736.77 255.01,731.28 263.31,725.42 271.01,718.92 278.48,711.95 285.48,704.56 292.22,696.70 298.62,688.46 304.79,680.06 310.96,671.41 317.09,662.64 323.23,653.88 329.40,645.01 335.62,636.08 341.92,626.95 348.14,618.03 354.44,608.84 360.83,599.60 367.18,590.20 373.49,580.70 379.84,571.20 386.23,561.53 392.53,551.82 399.01,542.05 405.53,532.23 412.18,522.57 418.92,512.75 425.66,502.88 432.49,493.00 439.36,483.13 446.27,473.10 453.19,463.17 460.14,453.19 470.62,436.25 480.01,419.88"
        fill="none"
        stroke="#e94560"
        stroke-width="8.0"
        stroke-linejoin="round"
        stroke-linecap="round"/>
  <!-- Start/finish line -->
  <line x1="463.04" y1="409.31" x2="496.99" y2="430.45"
        stroke="#f5f5f5" stroke-width="9.6"
        stroke-linecap="round"/>
</svg>
