<?xml version="1.0" encoding="utf-8"?>
<svg xmlns="http://www.w3.org/2000/svg"
     width="800.0" height="777.6"
     viewBox="0 0 800.0 777.6">
  <rect width="100%" height="100%" fill="#1a1a2e"/>
  <!-- Track outline -->
  <polyline points="133.45,494.76 104.63,465.11 61.83,419.01 52.79,406.29 45.89,392.21 42.04,380.23 40.08,367.89 40.00,355.40 41.99,343.19 46.12,331.56 51.84,320.64 59.25,310.85 68.20,302.49 78.42,295.70 89.70,290.64 101.68,287.53 107.80,286.74 113.94,286.48 120.09,286.82 126.20,287.70 138.14,290.97 143.73,293.31 149.28,296.27 161.94,305.58 189.00,329.17 197.38,334.88 205.56,339.28 214.55,342.93 223.83,345.51 233.43,346.92 242.87,347.23 250.74,346.59 258.30,345.07 265.60,342.68 272.63,339.45 279.23,335.50 285.53,330.63 292.81,325.41 302.75,320.55 313.43,317.16 323.13,315.95 339.62,315.70 420.87,314.73 426.97,315.17 432.24,316.33 436.85,318.96 441.30,322.75 444.59,326.70 446.90,331.15 448.05,336.58 448.54,345.31 450.50,531.67 450.99,537.50 451.92,544.96 456.11,561.09 461.52,579.62 465.55,589.25 467.90,592.83 470.59,595.19 472.83,596.65 475.29,597.09 478.10,596.98 480.90,595.97 483.03,594.18 484.94,591.37 486.50,587.79 497.49,558.55 500.13,551.97 501.70,546.93 502.71,541.44 503.15,535.95 503.18,78.46 503.94,72.98 505.25,68.19 508.01,63.04 511.96,57.54 516.15,53.58 520.82,51.20 526.57,50.00 620.85,40.12 624.80,40.00 628.75,40.24 632.10,40.84 639.29,42.76 684.01,60.05 688.88,62.89 694.27,66.36 699.18,70.67 703.13,74.50 706.96,78.94 710.30,83.12 714.26,89.83 719.98,101.53 723.57,109.79 725.85,115.66 757.25,224.49 758.32,229.77 758.99,235.31 759.67,242.21 760.00,252.63 760.00,262.89 757.46,408.44 756.73,416.82 755.08,422.19 751.98,426.92 748.77,430.33 744.30,433.05 739.29,434.25 734.05,434.68 727.19,434.68 720.76,433.82 716.41,432.62 712.37,430.55 708.23,427.71 703.77,423.25 698.65,417.14 694.18,410.60 690.37,404.17 687.09,397.75 684.92,391.86 682.30,383.02 680.77,374.63 678.92,358.51 657.62,142.50 656.96,138.94 655.41,135.40 653.29,132.01 650.46,129.39 647.49,127.84 644.10,126.71 573.59,107.36 570.48,106.69 567.36,106.23 564.95,106.08 562.19,106.58 559.94,107.40 558.05,108.64 556.72,110.07 555.39,112.06 554.41,114.21 553.70,116.72 553.34,119.47 553.29,122.80 557.72,453.69 558.42,458.84 559.76,463.68 561.76,467.20 565.78,472.22 570.96,475.39 579.48,478.40 595.70,481.75 659.82,492.46 666.31,493.68 670.53,495.27 673.48,498.33 676.44,503.50 681.66,514.64 686.86,524.89 689.04,528.27 692.13,531.78 695.22,533.89 699.29,535.79 704.78,537.12 710.68,538.04 732.53,539.51 736.78,540.46 740.15,541.93 743.03,543.83 745.42,546.14 746.62,548.61 747.39,551.35 747.95,555.00 748.16,558.94 746.94,645.05 746.77,649.20 746.24,652.23 745.36,654.74 744.18,656.89 742.78,659.18 740.93,661.39 738.49,663.32 733.84,665.61 727.92,667.83 722.83,669.01 718.53,669.60 714.84,669.82 711.07,669.38 707.31,668.19 703.83,666.42 700.73,664.05 698.59,661.25 697.18,658.22 696.15,654.52 682.30,608.64 681.43,606.29 680.10,604.43 678.31,603.27 676.28,602.64 674.08,602.34 671.93,602.57 668.98,603.21 484.68,663.15 476.40,666.12 471.55,668.40 467.71,671.24 462.74,676.36 456.48,686.17 453.49,691.86 451.50,697.41 450.79,704.24 450.79,708.64 450.36,713.19 449.22,717.75 447.09,721.45 444.24,724.29 439.41,726.85 434.29,728.99 427.32,731.12 402.05,736.84 396.54,737.55 391.06,737.55 385.15,737.24 379.14,736.08 373.55,733.44 367.53,729.64 361.90,724.55 341.87,701.88 133.45,494.76"
        fill="none"
        stroke="#e94560"
        stroke-width="8.0"
        stroke-linejoin="round"
        stroke-linecap="round"/>
  <!-- Start/finish line -->
  <line x1="119.33" y1="508.92" x2="147.58" y2="480.60"
        stroke="#f5f5f5" stroke-width="9.6"
        stroke-linecap="round"/>
</svg>
