<?xml version="1.0" encoding="utf-8"?>
<svg xmlns="http://www.w3.org/2000/svg"
     width="800.0" height="510.4"
     viewBox="0 0 800.0 510.4">
  <rect width="100%" height="100%" fill="#1a1a2e"/>
  <!-- Track outline -->
  <polyline points="381.60,338.68 623.17,209.45 715.92,163.93 732.60,152.58 744.06,141.40 748.83,135.18 752.57,128.71 755.57,121.90 758.52,110.55 759.90,99.61 760.00,93.21 759.36,87.38 757.93,81.50 755.82,75.97 753.21,71.09 750.01,66.72 746.22,62.88 741.94,59.68 737.02,57.00 731.66,54.90 727.82,53.56 723.79,52.57 719.07,52.28 702.98,55.72 684.53,62.53 663.27,73.82 643.15,84.07 631.24,86.74 620.91,87.62 615.69,87.85 609.20,87.27 520.69,64.74 422.34,41.22 401.48,40.00 386.47,40.93 380.57,41.46 374.71,43.09 355.77,52.28 335.06,66.20 318.28,82.26 304.01,100.83 293.68,119.46 285.41,141.46 276.06,189.31 267.95,233.55 263.86,244.85 258.99,253.58 251.56,262.54 243.64,269.88 238.62,273.84 233.55,276.57 229.67,277.68 225.54,278.26 221.55,278.38 216.24,277.97 211.22,276.69 208.17,275.35 205.31,273.66 202.61,271.62 200.15,269.41 197.88,266.79 195.67,263.07 187.80,237.92 180.12,205.55 173.23,170.69 165.12,138.90 159.61,127.38 153.46,117.65 146.86,109.56 137.86,101.76 128.86,96.29 122.76,93.44 116.90,91.58 111.14,90.29 105.39,89.65 99.83,89.77 94.32,90.59 88.95,92.10 83.69,94.25 78.57,96.93 73.55,100.71 68.78,105.43 63.96,111.25 59.73,118.12 54.02,132.32 49.74,152.46 42.02,272.90 40.00,398.64 43.54,424.31 48.66,441.43 51.76,447.02 55.20,451.27 59.04,455.46 63.27,459.12 67.90,462.33 72.87,465.00 77.93,467.22 83.99,468.84 100.96,470.36 120.39,469.78 138.30,466.57 154.78,461.63 176.88,451.21 246.10,411.22 381.60,338.68"
        fill="none"
        stroke="#e94560"
        stroke-width="8.0"
        stroke-linejoin="round"
        stroke-linecap="round"/>
  <!-- Start/finish line -->
  <line x1="372.16" y1="321.05" x2="391.03" y2="356.32"
        stroke="#f5f5f5" stroke-width="9.6"
        stroke-linecap="round"/>
</svg>
