<?xml version="1.0" encoding="utf-8"?>
<svg xmlns="http://www.w3.org/2000/svg"
     width="384.5" height="800.0"
     viewBox="0 0 384.5 800.0">
  <rect width="100%" height="100%" fill="#1a1a2e"/>
  <!-- Track outline -->
  <polyline points="44.45,397.44 43.04,118.13 44.27,100.56 45.77,93.23 47.80,86.45 50.02,80.94 52.69,75.85 55.97,70.91 59.70,66.37 64.00,62.21 68.67,58.54 73.75,55.26 79.12,52.46 91.02,48.12 111.41,44.26 153.69,40.30 177.72,40.00 198.03,42.23 218.05,47.34 233.49,53.66 248.02,61.96 261.42,72.33 276.49,87.82 289.65,105.67 300.81,125.80 309.96,147.89 320.15,181.32 330.94,227.40 338.81,269.88 342.59,302.40 344.51,345.71 343.10,451.99 342.40,458.04 341.34,462.55 339.65,467.44 337.43,471.99 334.56,476.19 331.20,479.90 327.21,483.12 323.02,485.69 319.53,487.31 316.00,488.45 312.26,489.24 308.32,489.59 303.09,489.38 297.69,488.53 292.48,487.01 287.40,484.88 282.43,482.20 277.68,478.97 273.16,475.12 268.93,470.70 264.97,465.62 261.27,459.89 253.51,444.07 247.81,425.80 243.32,400.77 240.54,370.04 235.71,243.68 229.62,180.83 227.57,172.82 225.02,166.41 221.52,159.70 217.35,153.51 212.55,147.81 206.99,142.71 199.77,137.73 190.72,133.19 164.50,124.38 139.77,117.95 134.74,117.05 130.66,116.86 126.18,117.32 121.99,118.37 119.01,119.59 116.24,121.29 113.03,123.99 110.00,127.45 107.02,132.20 104.52,137.92 102.30,146.26 100.89,156.41 101.25,200.40 103.21,386.51 104.22,492.27 105.50,500.98 107.30,507.52 109.51,513.30 112.38,518.69 116.73,524.92 121.87,530.73 127.74,535.99 134.16,540.50 141.15,544.27 148.72,547.24 158.05,549.59 168.24,551.19 196.32,553.03 209.93,555.82 218.03,558.63 225.86,562.09 231.78,565.37 237.20,569.11 246.69,578.06 263.22,596.89 268.01,600.87 272.88,603.93 279.33,606.89 286.42,609.37 296.04,611.71 305.18,614.16 310.07,616.36 314.29,619.05 318.09,622.43 321.46,626.36 324.31,630.58 326.72,635.16 328.63,639.87 330.07,644.99 331.52,658.94 330.86,715.24 330.13,721.92 328.98,727.33 327.16,732.94 324.79,738.25 321.69,743.34 318.08,748.03 313.96,752.39 310.65,755.00 307.41,756.87 303.55,758.33 298.75,759.48 293.75,760.00 289.16,760.00 284.46,759.28 280.39,757.81 276.63,755.51 272.87,752.60 270.27,749.35 268.60,745.30 266.69,739.36 253.37,694.81 252.33,691.78 250.87,688.87 249.20,686.89 247.11,685.42 244.29,684.80 241.17,684.90 232.93,687.45 108.96,730.13 92.36,736.19 87.08,737.04 82.10,737.24 77.05,736.85 72.09,735.87 67.32,734.31 62.74,732.18 58.41,729.46 54.51,726.30 51.87,723.56 49.56,720.42 46.97,715.68 44.72,710.32 42.91,704.45 41.56,698.10 40.00,681.17 41.10,655.77 43.80,582.88 44.45,397.44"
        fill="none"
        stroke="#e94560"
        stroke-width="8.0"
        stroke-linejoin="round"
        stroke-linecap="round"/>
  <!-- Start/finish line -->
  <line x1="24.45" y1="397.47" x2="64.45" y2="397.40"
        stroke="#f5f5f5" stroke-width="9.6"
        stroke-linecap="round"/>
</svg>
