<?xml version="1.0" encoding="utf-8"?>
<svg xmlns="http://www.w3.org/2000/svg"
     width="800.0" height="691.8"
     viewBox="0 0 800.0 691.8">
  <rect width="100%" height="100%" fill="#1a1a2e"/>
  <!-- Track outline -->
  <polyline points="489.20,189.91 309.79,70.80 273.16,50.97 259.97,46.04 246.23,42.74 223.51,40.11 200.16,40.00 183.13,42.22 166.98,46.58 150.82,53.14 134.68,62.08 115.67,75.16 97.15,91.66 78.72,113.93 62.95,138.55 53.03,159.41 45.92,181.19 41.71,205.62 40.00,228.68 41.29,252.76 44.59,271.34 49.73,290.66 57.35,310.51 66.15,328.39 73.34,339.50 80.55,348.66 91.57,360.06 123.12,386.20 483.66,627.27 502.82,637.70 518.80,643.71 546.44,649.43 574.82,651.81 596.04,651.35 616.48,648.29 638.48,641.93 659.61,633.15 676.54,624.07 692.25,613.16 707.36,599.80 721.00,584.77 731.41,570.49 740.40,554.35 749.71,531.40 756.60,506.45 759.88,482.99 760.00,459.10 755.77,431.87 748.34,406.17 740.02,387.64 729.84,370.98 715.94,352.88 701.48,337.14 682.34,320.89 489.20,189.91"
        fill="none"
        stroke="#e94560"
        stroke-width="8.0"
        stroke-linejoin="round"
        stroke-linecap="round"/>
  <!-- Start/finish line -->
  <line x1="478.06" y1="206.52" x2="500.35" y2="173.31"
        stroke="#f5f5f5" stroke-width="9.6"
        stroke-linecap="round"/>
</svg>
