<?xml version="1.0" encoding="utf-8"?>
<svg xmlns="http://www.w3.org/2000/svg"
     width="800.0" height="565.9"
     viewBox="0 0 800.0 565.9">
  <rect width="100%" height="100%" fill="#1a1a2e"/>
  <!-- Track outline -->
  <polyline points="553.01,495.94 554.60,496.68 561.01,499.27 627.93,523.70 645.20,525.94 660.52,525.31 669.08,523.77 677.17,521.30 684.86,517.67 692.09,512.88 698.91,506.90 705.49,499.68 717.24,483.25 728.28,461.25 747.10,401.50 759.41,342.27 760.00,324.16 758.14,310.13 757.09,305.79 755.75,301.87 754.17,298.42 752.28,295.77 750.82,294.42 749.21,293.30 747.50,292.51 745.74,292.06 743.94,291.99 741.77,292.40 739.50,293.34 737.21,294.79 734.85,296.74 732.49,299.21 720.62,320.20 708.43,348.90 693.36,392.33 678.48,432.07 669.98,446.25 661.11,456.50 655.69,461.10 650.01,464.69 643.78,467.35 635.53,469.22 626.57,469.82 617.70,469.52 605.20,467.69 592.77,463.57 578.91,455.38 563.87,444.19 506.47,397.76 462.25,373.18 411.30,353.42 334.21,341.30 259.11,333.93 185.62,319.97 163.45,312.49 143.97,303.51 127.97,293.90 114.45,283.12 108.69,277.17 103.79,270.96 100.31,264.45 98.95,259.92 98.17,255.17 97.92,250.50 98.27,246.23 98.98,242.94 100.13,239.83 101.65,236.95 103.54,234.41 106.42,231.75 109.93,229.51 113.83,227.67 117.96,226.21 124.96,224.79 132.66,224.38 141.03,224.79 159.11,228.31 180.81,234.56 286.24,269.61 383.39,284.92 460.55,299.88 506.75,319.15 566.81,347.81 622.32,371.34 631.22,373.18 638.35,373.70 644.71,373.14 649.05,372.32 652.93,370.86 657.11,368.20 666.97,358.59 677.89,344.89 686.91,330.71 694.54,313.13 699.01,294.79 700.28,275.19 698.57,255.73 694.01,237.85 687.35,221.87 680.80,211.02 672.74,201.71 661.55,192.61 645.82,183.52 474.38,114.75 304.32,47.48 285.19,41.87 270.86,40.00 266.71,40.34 262.96,41.09 259.51,42.36 256.32,44.23 253.22,46.81 250.33,50.03 247.79,53.69 245.71,57.58 243.57,63.31 242.15,69.52 241.71,75.81 242.37,82.17 244.01,88.53 246.61,94.78 251.14,102.30 257.19,109.59 264.91,116.89 293.25,135.74 327.39,153.03 360.35,166.27 397.41,177.01 470.38,188.50 541.32,199.54 571.15,208.18 596.43,218.54 620.09,231.04 638.69,244.55 642.07,248.21 644.80,251.88 646.82,255.47 648.00,259.06 648.31,261.79 648.15,264.49 647.56,267.14 646.57,269.69 644.62,272.83 641.95,275.83 638.75,278.59 635.34,280.99 629.30,284.02 622.41,286.19 615.22,287.46 603.53,287.31 589.11,284.88 533.45,268.64 473.41,252.33 449.54,251.39 423.40,250.72 299.67,224.27 172.01,198.26 134.89,196.54 105.43,198.98 84.75,203.17 67.75,209.19 61.86,212.18 56.90,215.48 52.59,219.48 48.99,224.12 46.02,229.43 43.63,235.34 41.58,243.12 40.31,251.69 40.00,260.26 40.78,268.75 42.51,277.21 45.12,285.22 48.56,292.62 52.87,299.55 58.30,306.17 72.65,318.10 90.42,329.44 146.39,359.00 178.58,374.23 277.10,392.63 346.59,407.34 457.17,451.08 553.01,495.94"
        fill="none"
        stroke="#e94560"
        stroke-width="8.0"
        stroke-linejoin="round"
        stroke-linecap="round"/>
  <!-- Start/finish line -->
  <line x1="561.49" y1="477.82" x2="544.54" y2="514.05"
        stroke="#f5f5f5" stroke-width="9.6"
        stroke-linecap="round"/>
</svg>
