<?xml version="1.0" encoding="utf-8"?>
<svg xmlns="http://www.w3.org/2000/svg"
     width="800.0" height="750.7"
     viewBox="0 0 800.0 750.7">
  <rect width="100%" height="100%" fill="#1a1a2e"/>
  <!-- Track outline -->
  <polyline points="134.06,622.97 171.87,649.89 219.99,682.14 266.03,707.59 276.26,710.15 284.96,710.71 293.26,710.12 300.79,709.00 307.96,706.93 314.75,703.47 321.38,697.94 327.52,690.77 333.88,682.08 365.71,626.32 396.84,582.71 510.73,451.95 526.63,436.94 541.66,425.62 590.76,399.91 657.10,366.80 684.14,346.06 708.12,322.66 727.43,298.67 742.98,274.28 751.65,256.67 757.33,239.52 759.21,229.42 760.00,219.41 759.54,210.06 757.95,202.59 755.39,195.62 751.98,189.07 744.86,179.42 734.85,170.17 705.71,151.54 672.82,133.84 630.43,113.20 597.42,90.19 562.42,66.96 529.00,51.42 497.03,41.68 481.78,40.00 467.41,40.30 455.27,41.91 449.02,43.49 443.70,45.66 438.90,48.49 434.75,51.82 431.07,55.70 428.12,59.95 426.60,62.91 425.40,66.07 424.58,69.33 424.28,72.68 424.96,77.98 426.73,83.48 429.22,88.78 432.79,94.37 437.26,99.71 442.72,104.81 457.12,115.04 476.14,124.32 575.02,146.94 623.63,157.96 646.96,168.69 667.72,180.51 679.06,187.19 688.80,194.60 698.16,204.96 705.58,216.48 708.42,222.93 710.41,229.52 711.39,236.03 711.31,241.99 710.35,247.88 708.55,253.74 702.91,264.14 694.86,274.51 681.05,288.76 664.11,303.14 610.43,338.63 534.81,381.08 510.51,402.12 486.75,427.95 438.11,493.39 393.53,552.73 381.20,564.51 370.65,571.59 365.33,573.89 360.20,575.24 355.02,575.87 350.11,576.03 345.17,575.47 339.20,573.53 306.08,550.98 265.73,519.35 178.50,455.21 168.95,451.03 160.19,449.08 150.02,447.90 138.83,447.67 128.52,448.69 122.79,449.97 117.20,451.75 112.29,454.02 108.55,456.79 106.81,458.92 105.55,461.29 104.68,463.89 104.16,466.73 104.19,472.29 105.28,478.48 107.13,484.60 110.05,491.31 114.04,497.93 119.38,504.51 138.83,520.34 163.41,535.32 196.04,549.67 228.12,563.49 266.03,588.70 280.95,600.52 293.31,613.06 298.28,620.40 302.21,627.97 304.71,635.14 305.42,638.76 305.70,642.25 305.53,645.61 304.85,648.77 303.49,652.00 301.50,655.06 299.07,657.85 296.39,660.19 291.73,662.86 286.33,664.63 280.65,665.62 274.14,665.82 267.26,665.03 260.22,663.38 248.30,658.71 234.36,650.71 139.60,577.22 107.22,544.53 81.05,519.12 74.81,515.17 69.41,512.74 64.17,511.16 60.60,510.43 56.99,510.04 53.58,510.11 50.56,510.70 48.43,511.52 46.49,512.67 44.75,514.15 43.30,516.00 41.88,518.86 40.82,522.38 40.16,526.20 40.00,530.02 40.74,535.84 42.54,541.90 45.29,547.99 53.97,560.36 66.46,573.23 128.49,619.02 134.06,622.97"
        fill="none"
        stroke="#e94560"
        stroke-width="8.0"
        stroke-linejoin="round"
        stroke-linecap="round"/>
  <!-- Start/finish line -->
  <line x1="145.66" y1="606.67" x2="122.46" y2="639.26"
        stroke="#f5f5f5" stroke-width="9.6"
        stroke-linecap="round"/>
</svg>
