<?xml version="1.0" encoding="utf-8"?>
<svg xmlns="http://www.w3.org/2000/svg"
     width="800.0" height="554.6"
     viewBox="0 0 800.0 554.6">
  <rect width="100%" height="100%" fill="#1a1a2e"/>
  <!-- Track outline -->
  <polyline points="376.51,359.78 253.30,290.44 236.45,283.22 218.82,278.22 200.79,275.86 145.75,276.95 128.05,274.56 111.14,269.08 95.44,261.24 81.41,251.16 75.15,245.23 69.50,238.74 60.21,224.41 53.11,209.07 41.36,170.43 40.00,157.11 40.15,130.48 42.16,117.47 46.16,104.93 51.38,92.49 57.47,80.49 61.41,74.90 65.59,70.18 75.41,61.13 86.86,53.88 99.26,48.15 111.63,43.77 124.32,41.07 137.25,40.00 145.41,40.14 154.15,41.10 166.00,43.85 177.25,47.76 184.07,51.21 189.79,55.20 194.07,59.19 197.54,63.49 199.86,67.42 201.57,71.64 202.94,76.72 203.65,82.03 203.55,87.29 202.72,92.49 201.12,97.49 198.83,102.24 195.92,106.68 192.41,110.64 188.41,113.95 183.96,116.62 178.98,118.59 173.94,119.74 170.13,119.91 165.97,119.49 155.46,117.21 145.15,114.99 141.68,114.71 138.34,114.97 130.39,116.96 123.01,119.69 120.94,120.78 119.05,122.24 112.40,129.04 106.05,137.25 103.69,142.05 102.22,146.66 101.40,150.37 101.06,154.39 101.33,162.48 102.36,170.60 103.33,174.67 104.82,178.61 108.47,185.83 113.56,193.13 120.74,199.88 128.65,205.24 134.52,208.05 140.83,209.82 150.22,210.95 160.62,210.70 174.40,207.52 187.63,204.01 201.96,202.83 209.23,203.25 216.46,204.35 230.66,208.56 244.38,214.80 291.88,243.88 339.17,271.84 346.46,274.53 352.10,275.80 356.15,276.53 360.22,276.78 366.65,276.59 373.38,275.43 377.96,273.78 382.45,271.53 386.50,268.80 389.94,265.68 392.97,262.12 395.46,258.27 397.32,254.25 398.63,249.98 399.39,245.62 399.63,241.24 399.28,236.77 398.32,232.50 396.65,228.37 394.30,224.41 391.41,220.78 384.94,215.53 378.09,211.43 374.69,209.80 370.54,208.36 311.80,193.47 298.49,187.82 286.53,180.97 279.93,175.80 275.32,171.08 271.08,165.46 268.75,161.07 266.85,156.35 265.57,151.55 265.05,146.83 265.08,142.05 265.61,137.70 266.26,134.66 267.25,131.88 268.68,129.18 271.23,125.70 274.44,122.30 278.02,119.43 281.93,117.24 286.19,115.58 290.57,114.52 297.75,114.26 304.36,114.99 307.65,115.75 310.65,116.79 318.16,120.11 393.41,162.54 404.90,170.85 415.55,180.41 425.33,191.28 433.93,203.36 441.29,216.29 454.67,250.88 456.27,258.88 456.92,275.66 457.07,299.54 457.50,303.39 458.50,307.04 463.39,317.38 469.24,327.27 474.12,332.98 485.11,343.07 500.85,353.94 518.05,363.55 524.85,366.22 531.25,367.99 537.32,368.78 542.22,368.64 546.90,367.76 551.17,366.16 554.09,364.39 556.86,362.12 559.29,359.59 561.18,357.00 562.60,353.77 563.44,350.37 563.84,347.53 563.91,345.82 563.71,344.25 563.25,342.05 562.40,339.64 560.20,335.40 556.73,330.31 543.41,316.51 530.90,303.50 529.06,300.67 527.92,297.94 526.39,293.00 525.57,287.46 525.77,283.22 526.52,278.86 527.59,274.98 529.14,271.56 531.19,268.58 534.28,265.21 537.95,262.31 542.04,260.18 546.48,258.72 551.37,258.04 556.18,257.99 559.67,258.27 563.04,258.88 570.29,261.05 595.74,273.94 684.71,325.06 729.99,353.52 738.30,360.66 744.59,367.46 748.80,373.16 752.17,379.09 755.02,386.06 757.09,392.74 758.51,400.11 760.00,415.08 759.42,429.58 756.22,443.57 750.78,456.86 743.20,469.59 724.83,491.51 716.98,499.07 709.20,505.25 702.87,508.87 697.02,511.49 693.73,512.69 690.31,513.54 683.31,514.41 676.33,514.63 673.01,514.32 669.97,513.71 662.63,511.60 611.20,489.49 432.64,391.37 376.51,359.78"
        fill="none"
        stroke="#e94560"
        stroke-width="8.0"
        stroke-linejoin="round"
        stroke-linecap="round"/>
  <!-- Start/finish line -->
  <line x1="366.70" y1="377.21" x2="386.32" y2="342.36"
        stroke="#f5f5f5" stroke-width="9.6"
        stroke-linecap="round"/>
</svg>
