<?xml version="1.0" encoding="utf-8"?>
<svg xmlns="http://www.w3.org/2000/svg"
     width="769.0" height="800.0"
     viewBox="0 0 769.0 800.0">
  <rect width="100%" height="100%" fill="#1a1a2e"/>
  <!-- Track outline -->
  <polyline points="608.43,48.73 588.77,50.73 300.10,83.47 96.06,110.91 84.98,113.59 76.88,116.68 68.95,120.89 61.67,126.12 54.94,132.40 49.24,139.77 45.33,148.02 42.60,157.06 40.73,165.38 40.00,176.82 70.80,445.44 96.65,665.63 101.34,685.87 108.77,704.07 118.62,720.10 130.46,734.73 137.33,741.19 144.62,746.82 152.04,751.37 159.72,754.97 167.18,757.42 174.99,759.02 184.68,760.00 194.65,759.86 204.20,757.79 213.78,755.42 233.99,753.55 375.01,745.40 394.11,742.10 412.62,735.89 429.74,727.40 444.90,716.60 451.54,710.56 457.49,703.83 462.15,696.67 466.01,688.96 469.13,680.84 471.48,672.42 473.80,655.27 473.29,637.24 443.81,480.35 401.57,261.48 393.67,200.49 393.47,182.42 394.39,174.17 396.09,166.26 398.66,158.79 402.13,151.56 407.40,142.93 413.91,135.02 422.17,128.50 430.99,123.34 438.51,119.91 446.07,117.32 462.38,113.62 479.74,111.62 653.94,99.77 689.12,94.61 699.06,91.89 707.74,88.39 712.65,85.88 717.23,82.96 721.20,79.29 723.88,75.72 726.33,71.62 728.18,67.30 728.99,63.13 728.79,60.04 728.04,56.84 726.84,53.72 725.27,50.87 723.49,48.46 720.44,45.98 716.70,44.18 712.63,42.85 708.52,41.77 700.42,40.31 690.60,40.00 619.85,47.57 608.43,48.73"
        fill="none"
        stroke="#e94560"
        stroke-width="8.0"
        stroke-linejoin="round"
        stroke-linecap="round"/>
  <!-- Start/finish line -->
  <line x1="610.45" y1="68.62" x2="606.41" y2="28.83"
        stroke="#f5f5f5" stroke-width="9.6"
        stroke-linecap="round"/>
</svg>
