<?xml version="1.0" encoding="utf-8"?>
<svg xmlns="http://www.w3.org/2000/svg"
     width="800.0" height="552.4"
     viewBox="0 0 800.0 552.4">
  <rect width="100%" height="100%" fill="#1a1a2e"/>
  <!-- Track outline -->
  <polyline points="229.48,476.18 306.05,484.03 316.41,483.62 330.08,483.30 346.03,483.36 360.29,485.09 373.42,487.74 451.84,511.26 461.23,512.40 469.79,512.19 481.07,508.02 490.77,503.06 504.62,494.84 520.55,485.65 543.10,471.87 639.96,417.39 737.04,360.36 743.23,355.35 748.79,350.37 753.57,344.93 757.36,339.13 759.43,332.74 760.00,326.10 759.31,319.13 756.93,311.58 754.09,304.81 748.54,298.10 742.59,292.79 734.85,288.11 725.25,285.20 716.54,283.23 707.59,282.74 698.58,284.48 688.99,288.99 681.22,294.95 665.65,312.25 657.72,319.17 653.69,322.04 649.33,324.46 643.83,326.53 638.00,327.80 631.97,327.93 626.10,327.18 621.26,325.86 616.77,323.90 612.55,321.16 608.70,317.81 605.09,313.87 601.96,309.44 599.34,304.59 597.33,299.41 596.11,293.80 595.56,287.96 596.16,275.49 606.26,223.33 606.61,212.43 603.67,189.97 600.44,178.54 595.66,167.32 581.50,145.79 572.34,135.52 537.45,107.09 462.37,64.87 413.78,47.64 381.09,41.27 364.26,40.00 328.86,42.89 311.37,46.39 276.81,58.10 260.07,66.41 243.95,76.35 213.69,100.66 160.13,163.35 70.29,298.46 53.68,324.39 48.49,333.35 44.49,342.52 41.65,351.81 40.00,363.12 41.09,373.99 43.32,384.99 47.72,397.68 51.46,408.10 56.57,420.11 62.14,429.58 68.10,440.52 74.27,450.14 80.15,456.48 86.53,460.56 92.41,462.07 229.48,476.18"
        fill="none"
        stroke="#e94560"
        stroke-width="8.0"
        stroke-linejoin="round"
        stroke-linecap="round"/>
  <!-- Start/finish line -->
  <line x1="231.53" y1="456.29" x2="227.44" y2="496.08"
        stroke="#f5f5f5" stroke-width="9.6"
        stroke-linecap="round"/>
</svg>
