<?xml version="1.0" encoding="utf-8"?>
<svg xmlns="http://www.w3.org/2000/svg"
     width="518.8" height="800.0"
     viewBox="0 0 518.8 800.0">
  <rect width="100%" height="100%" fill="#1a1a2e"/>
  <!-- Track outline -->
  <polyline points="403.16,436.89 339.46,616.69 315.75,692.32 300.57,742.15 298.70,746.07 296.89,748.87 294.93,751.33 292.78,753.46 290.35,755.41 287.73,757.04 284.87,758.37 281.88,759.31 278.71,759.87 275.48,760.00 272.17,759.68 268.89,758.94 265.63,757.75 262.45,756.16 259.36,754.19 256.41,751.85 253.58,749.18 250.93,746.19 246.19,739.29 241.52,729.19 238.35,717.69 236.82,705.11 237.04,691.74 239.10,677.78 243.56,660.47 250.89,639.61 260.30,618.35 302.02,528.79 313.58,498.85 315.23,491.70 316.02,485.05 316.15,477.77 315.50,470.46 313.95,462.98 311.57,455.70 308.20,448.49 304.06,441.68 293.44,428.90 267.30,404.48 249.77,385.67 200.95,329.71 170.56,298.04 161.20,286.20 153.30,273.26 148.27,262.16 144.59,250.38 142.34,237.90 141.37,221.86 142.30,188.62 142.64,172.52 142.01,168.94 140.98,165.88 139.46,162.85 137.55,160.10 135.18,157.62 132.51,155.54 129.49,153.84 126.30,152.60 122.92,151.83 119.47,151.55 115.99,151.79 112.53,152.52 109.14,153.70 105.78,155.41 101.99,157.96 98.07,161.42 86.27,176.23 81.24,181.96 78.53,184.26 75.66,186.17 72.56,187.62 69.48,188.62 67.02,189.06 64.62,189.17 62.18,189.04 59.76,188.63 57.38,187.93 55.07,186.97 52.88,185.77 50.75,184.23 48.23,181.89 45.89,179.10 43.96,176.00 42.38,172.58 41.19,168.89 40.40,165.00 40.00,160.91 40.02,156.73 40.48,152.40 41.38,148.11 42.72,143.74 44.47,139.51 46.68,135.33 49.27,131.40 52.38,127.60 55.68,124.24 58.45,121.84 61.41,119.74 65.58,117.30 70.08,115.15 79.57,112.05 104.56,105.89 110.85,103.37 116.42,100.40 121.69,96.93 127.02,92.35 144.47,70.63 152.17,62.02 160.96,54.39 170.82,48.13 178.87,44.60 190.28,41.47 202.25,40.02 214.61,40.00 227.15,41.48 239.73,44.49 258.62,51.02 304.20,69.80 342.05,86.86 388.13,109.70 414.49,124.48 441.96,141.30 453.29,150.13 461.34,158.18 468.20,167.23 473.49,177.16 477.04,187.83 478.48,196.26 478.79,207.93 477.48,219.88 473.99,234.99 465.57,259.64 424.53,374.28 403.99,434.55 403.16,436.89"
        fill="none"
        stroke="#e94560"
        stroke-width="8.0"
        stroke-linejoin="round"
        stroke-linecap="round"/>
  <!-- Start/finish line -->
  <line x1="422.02" y1="443.57" x2="384.31" y2="430.22"
        stroke="#f5f5f5" stroke-width="9.6"
        stroke-linecap="round"/>
</svg>
