<?xml version="1.0" encoding="utf-8"?>
<svg xmlns="http://www.w3.org/2000/svg"
     width="800.0" height="640.7"
     viewBox="0 0 800.0 640.7">
  <rect width="100%" height="100%" fill="#1a1a2e"/>
  <!-- Track outline -->
  <polyline points="407.24,59.45 358.84,48.90 266.99,40.00 220.74,43.18 180.77,53.24 150.89,65.27 127.59,79.00 114.41,89.06 101.98,100.64 91.81,113.16 82.83,126.44 68.95,151.80 57.67,176.71 49.17,203.49 42.52,231.76 40.00,267.35 41.78,290.70 46.09,315.34 52.47,334.92 60.67,354.74 78.38,385.37 105.88,420.83 134.56,452.85 154.83,468.68 233.47,516.62 330.64,561.21 392.50,581.91 441.46,594.21 495.79,600.07 534.91,600.74 572.69,595.33 605.42,587.37 638.90,574.76 668.74,556.78 692.71,536.79 716.99,508.70 735.73,476.51 748.01,445.74 756.14,411.08 760.00,370.75 756.29,331.84 745.97,287.70 729.16,248.12 709.56,217.04 681.80,181.89 649.18,153.72 616.04,131.99 574.28,112.40 483.73,79.98 423.08,62.90 407.24,59.45"
        fill="none"
        stroke="#e94560"
        stroke-width="8.0"
        stroke-linejoin="round"
        stroke-linecap="round"/>
  <!-- Start/finish line -->
  <line x1="402.98" y1="78.99" x2="411.49" y2="39.91"
        stroke="#f5f5f5" stroke-width="9.6"
        stroke-linecap="round"/>
</svg>
