<?xml version="1.0" encoding="utf-8"?>
<svg xmlns="http://www.w3.org/2000/svg"
     width="626.3" height="800.0"
     viewBox="0 0 626.3 800.0">
  <rect width="100%" height="100%" fill="#1a1a2e"/>
  <!-- Track outline -->
  <polyline points="108.09,512.14 94.13,462.03 45.19,274.99 41.66,253.75 40.00,233.00 40.82,212.00 44.96,191.61 48.32,181.73 52.52,172.29 57.81,163.17 63.90,154.65 78.81,138.86 97.10,124.66 148.79,96.03 241.70,52.36 264.24,45.00 287.03,40.76 298.64,40.00 310.18,40.32 321.11,41.84 331.71,44.56 341.69,48.36 351.21,53.52 360.31,60.36 368.49,68.55 375.11,77.59 380.33,87.55 383.66,97.71 385.45,108.26 385.75,118.86 384.54,129.34 381.73,139.74 377.46,149.58 371.49,158.97 364.29,167.37 356.20,174.49 346.25,181.13 295.28,205.44 264.79,225.56 255.72,233.52 247.83,241.96 240.59,251.31 234.33,261.03 226.41,277.31 220.63,295.26 217.14,314.54 215.64,332.93 216.30,356.37 247.57,500.34 257.88,544.53 268.12,578.40 273.56,588.72 279.56,596.28 284.36,600.92 289.61,604.91 295.18,608.11 301.28,610.63 307.71,612.35 314.23,613.15 321.08,612.95 328.02,611.75 334.77,609.67 344.56,604.59 353.49,598.04 360.34,591.52 366.44,584.24 372.05,576.04 377.01,567.16 384.77,547.25 390.21,525.05 391.88,506.78 391.65,488.78 388.45,466.31 382.03,445.51 364.19,406.96 360.93,397.04 358.94,387.76 358.03,378.08 358.32,368.45 359.98,359.01 362.88,349.93 367.09,341.13 372.47,333.09 379.61,325.78 387.73,319.34 396.93,313.22 406.81,307.98 417.90,303.58 429.41,300.30 441.12,298.18 452.83,297.22 463.91,297.38 474.77,298.70 485.11,301.14 495.03,304.90 504.42,310.22 513.12,316.90 520.85,324.66 527.47,333.57 532.53,343.81 536.15,354.53 538.01,363.49 538.92,372.45 538.86,391.72 535.95,411.68 529.89,431.67 521.05,451.63 501.19,488.86 493.75,506.74 488.44,523.85 486.64,535.41 486.42,546.41 487.49,557.33 489.91,567.88 493.72,578.16 498.81,587.72 505.20,596.48 512.64,604.15 530.44,615.83 565.07,637.51 572.02,644.15 577.40,651.18 580.50,656.26 583.11,661.66 585.00,667.54 586.11,674.78 586.34,682.54 585.65,689.86 584.09,695.93 581.74,701.65 578.77,706.97 572.80,714.61 565.66,721.21 557.22,727.13 548.02,731.97 539.02,735.69 526.98,738.76 333.14,756.80 292.02,760.00 271.21,758.96 251.09,755.20 225.69,747.88 203.35,737.88 186.59,725.85 178.73,717.81 171.68,709.05 161.71,693.01 153.49,675.18 108.09,512.14"
        fill="none"
        stroke="#e94560"
        stroke-width="8.0"
        stroke-linejoin="round"
        stroke-linecap="round"/>
  <!-- Start/finish line -->
  <line x1="88.83" y1="517.50" x2="127.36" y2="506.77"
        stroke="#f5f5f5" stroke-width="9.6"
        stroke-linecap="round"/>
</svg>
