<?xml version="1.0" encoding="utf-8"?>
<svg xmlns="http://www.w3.org/2000/svg"
     width="765.7" height="800.0"
     viewBox="0 0 765.7 800.0">
  <rect width="100%" height="100%" fill="#1a1a2e"/>
  <!-- Track outline -->
  <polyline points="428.02,42.79 432.56,44.03 625.55,125.80 659.41,146.00 671.01,155.32 681.45,165.51 690.98,176.63 699.62,188.78 707.01,201.32 713.37,214.67 718.36,228.30 722.17,242.49 724.61,256.58 725.70,271.45 725.15,289.20 722.44,310.29 707.60,379.00 690.25,440.33 686.14,448.91 681.87,454.58 678.26,458.20 674.29,461.21 670.13,463.66 665.68,465.67 661.04,467.09 656.38,467.90 651.65,468.08 646.87,467.65 642.23,466.47 637.78,464.62 633.43,462.04 629.27,458.64 622.77,450.71 616.73,441.32 611.51,430.94 606.14,421.44 602.31,417.35 598.22,414.09 593.87,411.55 588.94,409.63 583.76,408.52 578.55,408.02 573.43,408.05 568.31,408.74 563.38,410.16 558.78,412.27 554.33,415.12 550.07,418.80 545.28,424.19 540.73,430.70 536.94,437.85 532.97,449.62 530.86,461.92 530.84,472.11 532.32,481.99 535.29,492.12 539.85,501.91 547.77,513.84 558.38,525.23 582.04,540.78 605.76,554.63 615.65,561.79 623.38,568.76 627.79,574.15 631.38,580.28 635.27,589.57 638.20,599.92 639.78,610.14 640.06,621.01 638.45,634.77 634.98,650.22 625.30,681.97 613.81,711.96 607.54,723.82 601.33,732.83 596.13,738.84 590.71,743.77 584.80,748.11 578.20,751.76 567.87,755.76 556.63,758.61 545.32,760.00 533.47,759.97 519.97,758.33 502.17,754.11 239.33,665.83 222.86,658.28 210.95,650.75 200.92,642.01 191.51,631.76 180.12,616.12 169.03,601.90 164.12,597.84 159.35,594.96 154.36,592.79 148.84,591.15 143.07,590.31 136.40,590.22 113.96,594.53 91.51,600.01 82.01,601.71 73.71,602.24 68.59,601.68 63.64,600.51 58.98,598.62 54.94,596.20 51.16,593.16 47.84,589.57 45.16,585.61 42.88,581.15 41.25,576.38 40.31,571.36 40.00,566.03 40.27,560.76 41.73,553.36 45.22,544.97 75.82,499.22 108.40,458.14 112.96,454.05 116.80,451.79 119.66,450.46 122.59,449.53 125.77,448.94 130.32,448.72 135.21,449.07 139.64,449.93 142.55,450.89 145.18,452.19 147.56,453.87 149.59,455.66 151.43,457.83 152.98,460.65 154.96,469.26 156.11,479.67 156.57,492.77 157.70,505.19 159.41,510.43 161.69,514.98 164.43,519.04 170.05,524.49 176.99,529.17 190.32,535.92 203.05,542.46 207.73,545.93 211.60,549.98 215.99,556.71 220.10,565.16 224.99,580.15 230.24,595.09 235.44,603.70 241.73,610.91 251.89,619.40 264.78,627.02 325.81,647.87 410.70,676.24 421.40,677.98 430.28,678.04 439.33,676.89 448.00,674.38 455.79,670.70 462.98,665.65 467.12,661.74 470.95,657.25 474.37,651.93 477.78,645.08 480.66,637.24 482.75,627.95 483.53,600.91 481.71,568.97 474.08,482.05 476.04,444.61 479.64,425.62 484.63,407.99 489.84,395.04 495.96,383.49 503.15,372.74 511.53,362.80 537.59,340.81 558.78,327.45 579.72,312.99 593.70,298.55 605.20,283.44 612.34,271.82 617.57,260.52 620.01,252.46 621.08,244.63 620.93,239.67 620.22,234.74 618.95,230.16 616.98,225.73 614.41,221.67 611.49,218.11 607.83,214.80 603.73,212.07 599.43,209.93 595.00,208.23 590.36,207.18 584.88,206.90 564.17,211.64 542.88,217.74 533.41,219.38 524.42,219.88 511.80,218.70 497.05,215.42 429.11,189.27 380.43,168.46 369.27,161.95 359.83,154.86 351.72,147.05 344.66,138.29 339.22,129.18 335.19,119.92 333.48,113.63 332.79,107.16 333.35,97.68 335.32,87.95 338.78,78.66 343.47,70.17 349.48,62.24 356.46,55.49 364.82,49.73 373.89,45.36 383.95,42.20 394.39,40.40 405.91,40.00 416.63,40.68 428.02,42.79"
        fill="none"
        stroke="#e94560"
        stroke-width="8.0"
        stroke-linejoin="round"
        stroke-linecap="round"/>
  <!-- Start/finish line -->
  <line x1="432.13" y1="23.22" x2="423.91" y2="62.36"
        stroke="#f5f5f5" stroke-width="9.6"
        stroke-linecap="round"/>
</svg>
