<?xml version="1.0" encoding="utf-8"?>
<svg xmlns="http://www.w3.org/2000/svg"
     width="800.0" height="388.8"
     viewBox="0 0 800.0 388.8">
  <rect width="100%" height="100%" fill="#1a1a2e"/>
  <!-- Track outline -->
  <polyline points="754.70,232.27 760.00,149.47 758.41,135.16 755.45,122.14 752.50,114.33 748.61,106.90 744.02,100.90 738.70,95.79 735.04,93.09 731.16,90.83 727.05,89.09 720.45,87.61 713.63,87.26 706.76,87.84 700.11,89.55 695.87,91.44 691.84,93.88 688.11,96.72 683.19,101.77 679.00,107.57 675.27,114.19 672.48,121.32 670.98,128.98 670.49,136.90 670.77,144.56 671.92,153.27 681.90,197.37 682.74,204.42 682.86,210.68 682.25,218.98 680.75,227.31 678.36,234.97 674.99,241.99 672.34,245.85 669.27,249.36 665.76,252.37 661.49,255.07 656.73,257.25 651.84,258.73 646.85,259.48 641.74,259.57 636.89,258.73 632.46,256.78 628.31,253.97 624.54,250.66 619.50,244.51 615.49,237.69 612.94,231.46 611.02,225.01 607.85,211.26 605.63,204.15 602.70,197.28 598.65,190.75 593.77,184.72 588.38,179.35 581.68,174.33 566.29,166.81 550.87,159.91 539.32,152.86 528.37,144.27 508.08,123.53 483.85,104.70 469.96,97.10 455.62,91.61 441.86,88.07 433.29,87.26 424.69,87.67 419.65,88.86 414.80,90.66 410.32,92.95 406.31,95.65 402.64,98.81 399.43,102.35 396.66,106.27 394.36,110.59 392.61,115.06 391.41,119.73 390.76,124.60 390.69,129.42 391.18,134.09 392.26,138.73 393.85,143.14 397.20,148.97 401.93,154.80 413.27,165.16 424.85,175.72 430.22,182.42 434.43,189.21 438.23,196.99 441.04,205.20 442.61,213.73 443.01,222.32 442.35,230.44 440.50,238.30 437.10,245.90 432.51,252.78 427.19,258.35 421.15,262.85 417.05,265.17 412.74,267.00 408.21,268.10 402.96,268.39 397.48,267.81 392.33,266.42 387.64,264.01 383.28,260.79 379.44,257.25 375.20,252.03 371.68,246.34 365.68,233.49 336.16,129.53 324.07,100.93 315.80,87.20 305.70,74.61 294.10,63.30 280.86,54.25 266.99,47.28 252.51,42.41 237.13,40.00 222.33,40.29 215.46,41.25 208.69,42.96 201.03,45.86 193.76,49.78 189.38,53.11 185.37,56.89 182.40,60.45 181.01,63.15 180.10,66.11 177.90,72.81 176.30,80.33 176.14,85.00 176.49,89.67 177.52,94.14 179.30,98.40 181.74,102.44 184.65,106.06 189.59,110.39 196.39,114.42 251.19,136.32 265.35,143.49 272.28,148.04 278.84,153.21 285.10,159.33 290.65,165.83 297.89,177.20 305.04,193.19 307.41,201.75 308.91,210.22 309.49,216.98 309.42,223.56 307.24,236.97 303.05,250.14 300.21,256.52 296.77,262.64 292.48,268.50 287.63,273.99 282.43,278.98 276.83,283.48 270.92,287.39 264.71,290.76 251.38,295.81 244.63,297.43 237.79,298.45 223.85,298.53 210.00,296.47 203.53,294.65 197.11,292.18 189.36,288.49 182.00,283.88 176.00,278.43 170.99,272.13 167.19,264.99 164.35,257.39 162.20,249.68 161.14,241.81 161.71,233.98 163.49,225.59 168.57,211.20 173.45,197.08 174.57,189.85 174.76,183.21 174.31,176.53 173.00,169.89 170.31,162.23 166.39,155.09 163.21,151.06 159.55,147.46 155.47,144.82 152.22,143.69 148.68,143.08 145.07,142.94 141.53,143.14 136.82,144.04 132.14,145.64 127.64,147.75 121.03,152.11 115.05,157.27 106.10,167.54 48.97,255.57 45.74,262.24 43.73,267.95 41.38,276.19 40.00,284.81 40.23,293.05 41.62,301.09 43.87,308.60 47.15,315.62 51.67,322.06 57.08,327.84 63.24,332.97 70.06,337.27 77.54,340.51 85.43,342.84 102.21,344.69 294.45,347.85 625.27,348.75 660.20,344.81 668.05,342.84 675.57,340.08 690.36,333.12 704.54,325.08 716.77,315.33 721.97,310.40 727.05,304.54 735.51,291.98 742.87,278.66 748.07,263.95 754.70,232.27"
        fill="none"
        stroke="#e94560"
        stroke-width="8.0"
        stroke-linejoin="round"
        stroke-linecap="round"/>
  <!-- Start/finish line -->
  <line x1="734.81" y1="230.20" x2="774.60" y2="234.34"
        stroke="#f5f5f5" stroke-width="9.6"
        stroke-linecap="round"/>
</svg>
