<?xml version="1.0" encoding="utf-8"?>
<svg xmlns="http://www.w3.org/2000/svg"
     width="800.0" height="717.9"
     viewBox="0 0 800.0 717.9">
  <rect width="100%" height="100%" fill="#1a1a2e"/>
  <!-- Track outline -->
  <polyline points="364.27,649.76 147.83,606.67 115.57,597.52 101.50,591.71 87.96,584.37 72.86,573.75 59.27,561.12 52.50,552.64 46.77,543.42 42.72,533.60 40.91,525.32 40.00,516.44 40.30,507.55 41.81,499.34 44.89,491.72 49.30,484.51 54.68,477.90 60.54,472.09 69.78,465.47 80.35,460.26 91.41,456.46 109.77,453.65 128.38,453.18 160.33,455.12 195.91,451.91 211.50,448.31 228.17,442.43 259.10,425.20 290.21,407.96 307.67,401.49 324.04,398.15 340.35,398.35 356.29,401.29 370.85,406.36 386.02,414.38 413.68,435.75 441.65,458.06 458.26,468.48 474.51,476.29 492.70,482.04 511.48,485.24 530.63,485.98 549.54,483.84 567.24,478.70 583.55,470.82 592.67,464.74 601.07,457.66 608.32,449.38 614.90,439.16 620.34,427.67 623.60,415.98 624.32,404.83 623.06,393.47 620.22,382.78 615.57,373.10 609.22,364.15 602.03,355.87 588.14,344.84 573.76,334.49 562.29,324.67 552.26,313.52 546.10,303.17 540.96,291.48 537.22,279.85 535.65,264.63 534.74,249.46 531.60,233.50 526.64,218.20 521.99,208.79 516.32,199.90 509.49,191.95 500.49,184.27 490.16,177.66 479.47,173.25 471.55,171.65 463.34,171.12 455.18,171.72 447.51,173.45 440.68,176.12 434.22,179.80 428.00,184.61 422.02,190.75 411.02,209.59 400.82,233.37 390.67,253.20 380.58,265.76 369.77,275.25 356.29,283.13 341.56,288.81 325.49,292.48 308.81,294.28 273.48,293.75 196.58,283.93 166.37,276.25 151.88,270.64 137.74,263.22 122.03,252.00 108.08,238.31 101.25,228.56 95.64,217.87 91.59,206.92 89.35,196.23 88.51,185.28 89.05,174.59 91.10,164.30 94.49,154.22 98.96,144.80 107.72,131.77 118.53,120.35 130.49,111.13 145.83,102.59 249.19,63.78 309.18,48.08 341.19,43.01 408.67,40.00 515.29,48.15 588.68,60.57 625.35,70.52 660.27,85.95 676.40,95.84 691.56,107.06 705.45,119.35 718.08,132.91 729.07,147.40 738.49,162.97 746.11,179.13 752.09,196.03 756.19,213.33 758.73,230.96 760.00,246.66 759.28,266.50 737.29,397.95 708.71,529.60 695.54,566.53 676.52,600.00 665.16,615.29 652.60,629.18 638.70,641.34 623.78,651.76 608.07,660.31 591.70,667.12 574.91,672.13 557.82,675.54 522.66,677.94 486.72,674.14 364.27,649.76"
        fill="none"
        stroke="#e94560"
        stroke-width="8.0"
        stroke-linejoin="round"
        stroke-linecap="round"/>
  <!-- Start/finish line -->
  <line x1="360.36" y1="669.37" x2="368.17" y2="630.14"
        stroke="#f5f5f5" stroke-width="9.6"
        stroke-linecap="round"/>
</svg>
