<?xml version="1.0" encoding="utf-8"?>
<svg xmlns="http://www.w3.org/2000/svg"
     width="800.0" height="727.6"
     viewBox="0 0 800.0 727.6">
  <rect width="100%" height="100%" fill="#1a1a2e"/>
  <!-- Track outline -->
  <polyline points="358.24,659.57 148.12,619.48 114.39,609.84 99.77,603.79 85.88,596.47 71.87,587.50 59.30,576.46 52.33,567.42 46.31,557.31 42.23,546.80 40.30,536.36 40.00,525.53 41.38,515.15 44.63,505.51 49.50,496.40 55.51,488.22 62.91,480.91 71.57,474.66 80.95,469.67 97.85,464.49 115.83,462.03 134.11,462.16 152.09,463.89 178.43,466.81 200.38,465.75 218.24,460.96 234.72,453.85 249.75,444.40 258.23,437.09 265.87,428.85 272.30,419.87 277.23,410.63 281.02,400.72 283.31,390.41 283.79,378.64 282.59,366.41 279.76,355.11 275.49,345.66 269.84,337.02 263.28,329.17 251.20,318.73 237.24,310.16 220.47,303.18 202.97,297.79 170.85,290.01 155.82,283.49 141.69,275.32 129.12,265.81 117.82,254.70 107.17,241.21 98.75,226.24 95.14,216.27 92.80,205.83 91.72,195.39 92.08,185.22 93.76,175.05 96.53,165.07 103.44,149.51 112.58,135.15 122.45,123.51 133.75,113.61 146.86,105.23 162.32,97.91 225.94,77.24 283.67,53.83 318.67,43.19 334.36,40.53 350.06,40.00 361.66,41.26 373.39,43.86 384.52,47.98 395.04,53.90 404.96,61.28 413.68,69.52 423.18,81.89 430.58,95.65 436.17,111.41 439.72,128.23 441.22,146.12 440.50,164.41 437.73,182.23 432.14,202.57 406.71,263.48 382.83,322.79 379.76,338.95 379.04,352.91 379.16,367.94 380.97,383.23 385.30,401.65 391.85,419.67 400.33,435.69 410.67,450.26 422.64,463.02 436.05,474.26 451.08,484.43 467.14,492.81 484.16,499.26 501.84,503.78 520.18,506.31 538.40,506.57 555.12,504.51 571.05,500.26 585.01,494.61 597.82,486.63 606.17,479.31 613.93,470.67 619.88,461.03 623.07,452.98 625.42,444.21 626.62,435.23 626.26,426.78 624.09,418.81 620.37,410.96 615.62,403.58 610.44,396.86 597.69,385.89 584.04,375.98 572.68,366.14 562.34,355.44 553.86,343.34 545.98,327.84 514.53,228.17 506.23,193.20 504.85,176.97 505.51,161.08 508.51,145.72 513.69,131.09 521.14,117.06 530.70,104.56 542.61,94.06 556.14,85.68 571.18,79.10 587.05,75.04 603.17,73.91 619.34,75.31 635.64,79.16 651.64,85.35 667.87,94.19 682.85,104.76 694.03,114.80 704.13,125.77 722.78,150.98 738.35,179.70 750.26,211.28 757.71,245.26 760.00,280.24 756.45,314.75 707.68,535.76 696.20,567.48 681.34,595.34 663.42,620.14 650.13,634.11 635.28,647.14 619.52,658.24 602.75,667.62 584.71,675.20 566.06,680.98 546.82,685.31 527.52,687.63 511.40,687.43 490.83,684.91 358.24,659.57"
        fill="none"
        stroke="#e94560"
        stroke-width="8.0"
        stroke-linejoin="round"
        stroke-linecap="round"/>
  <!-- Start/finish line -->
  <line x1="354.49" y1="679.22" x2="361.99" y2="639.93"
        stroke="#f5f5f5" stroke-width="9.6"
        stroke-linecap="round"/>
</svg>
