<?xml version="1.0" encoding="utf-8"?>
<svg xmlns="http://www.w3.org/2000/svg"
     width="728.9" height="800.0"
     viewBox="0 0 728.9 800.0">
  <rect width="100%" height="100%" fill="#1a1a2e"/>
  <!-- Track outline -->
  <polyline points="363.25,555.46 358.55,559.71 208.05,699.45 162.25,734.67 144.84,745.19 128.48,753.07 116.23,757.35 104.52,759.63 97.30,760.00 90.17,759.60 83.32,758.28 77.03,756.12 70.99,753.17 65.40,749.41 60.37,744.92 55.77,739.68 51.73,733.87 46.70,723.74 43.03,712.57 40.73,700.35 40.00,687.14 41.39,669.29 44.85,651.28 49.71,635.89 56.18,621.45 64.59,607.26 74.50,594.12 86.20,581.84 99.14,570.94 113.72,561.09 129.29,552.78 145.16,546.04 163.74,540.41 210.29,533.27 259.70,524.68 289.17,514.21 317.53,499.84 400.81,439.85 500.79,347.07 513.81,331.04 522.81,316.60 528.31,304.84 531.78,293.11 532.86,285.54 533.12,277.91 532.43,270.46 530.67,263.04 527.94,255.84 524.45,249.00 517.37,238.91 508.40,229.70 495.31,219.76 478.83,210.34 439.48,194.83 398.63,178.76 377.08,166.63 358.25,153.58 341.19,139.70 326.00,124.83 314.55,111.23 305.50,97.56 300.70,87.46 297.89,77.58 297.31,71.77 297.51,66.01 298.55,60.72 300.50,56.04 303.25,51.76 306.51,48.13 310.53,45.05 315.11,42.68 319.96,41.02 325.47,40.09 331.31,40.00 337.45,40.71 349.60,43.94 362.90,49.73 403.77,77.18 461.77,114.80 492.86,128.90 526.47,140.10 623.04,157.06 637.60,160.05 649.50,163.68 660.22,168.97 669.70,175.78 674.78,180.82 679.28,186.46 682.96,192.61 685.72,199.11 687.74,206.06 688.88,213.24 688.80,224.87 686.86,236.72 682.99,249.31 677.33,262.02 668.00,278.25 656.33,294.71 620.18,333.53 363.25,555.46"
        fill="none"
        stroke="#e94560"
        stroke-width="8.0"
        stroke-linejoin="round"
        stroke-linecap="round"/>
  <!-- Start/finish line -->
  <line x1="376.33" y1="570.59" x2="350.17" y2="540.33"
        stroke="#f5f5f5" stroke-width="9.6"
        stroke-linecap="round"/>
</svg>
