<?xml version="1.0" encoding="utf-8"?>
<svg xmlns="http://www.w3.org/2000/svg"
     width="800.0" height="464.9"
     viewBox="0 0 800.0 464.9">
  <rect width="100%" height="100%" fill="#1a1a2e"/>
  <!-- Track outline -->
  <polyline points="599.92,177.53 677.03,270.44 722.82,326.67 737.97,345.43 747.62,358.10 753.44,368.04 756.89,375.90 758.68,381.78 759.73,387.55 760.00,393.20 759.55,398.67 758.01,405.38 755.51,411.31 753.01,415.23 750.03,418.58 748.37,420.01 746.63,421.27 744.81,422.35 742.93,423.24 741.03,423.93 739.11,424.44 737.19,424.77 735.25,424.92 733.31,424.89 731.38,424.69 727.48,423.76 723.64,422.13 718.64,418.87 713.81,414.44 709.17,408.98 703.73,400.76 690.94,377.95 683.62,368.54 680.32,365.27 676.90,362.49 673.29,360.16 669.51,358.26 661.23,355.71 647.29,352.87 641.17,350.58 637.14,348.24 633.65,345.45 630.68,342.21 628.21,338.51 625.63,332.82 618.73,312.24 616.63,307.87 614.38,304.26 611.75,300.98 608.84,298.11 605.69,295.65 602.32,293.61 598.79,291.99 594.79,290.70 579.13,288.03 572.25,286.66 566.00,284.43 560.39,281.26 555.46,277.33 552.37,273.96 549.16,268.96 547.48,264.95 546.46,260.74 546.13,256.31 546.48,251.68 547.93,245.19 553.61,227.28 554.54,222.31 554.92,217.85 554.83,214.29 554.32,210.85 553.21,206.92 551.64,203.10 549.64,199.55 547.26,196.26 544.39,193.14 541.21,190.31 537.75,187.70 533.80,185.29 519.55,179.10 509.45,176.56 496.58,175.42 483.54,176.46 470.86,179.70 460.52,183.97 448.54,191.49 437.18,201.28 414.54,228.52 406.45,237.81 400.99,242.81 395.22,246.83 388.95,249.86 381.97,251.95 372.34,253.51 357.78,254.77 350.25,254.76 347.47,254.41 344.95,253.86 343.09,253.25 341.38,252.48 339.79,251.58 338.30,250.51 336.97,249.31 335.74,247.95 334.65,246.44 333.65,244.71 331.42,239.28 328.76,229.14 323.20,201.52 319.23,181.35 316.14,165.11 314.64,151.60 314.10,139.23 314.43,132.45 315.78,124.24 317.31,118.76 320.06,112.49 325.95,100.54 326.73,98.02 327.11,95.89 327.14,94.63 327.00,93.48 326.71,92.42 326.27,91.45 325.90,90.88 325.47,90.36 325.00,89.91 324.49,89.52 323.93,89.20 323.35,88.96 322.75,88.78 322.12,88.68 321.46,88.67 320.57,88.77 319.62,89.00 318.64,89.37 316.78,90.44 314.83,92.00 312.09,94.79 309.12,98.66 296.77,120.87 291.53,130.01 286.09,137.87 280.85,144.02 276.65,147.79 274.47,149.26 272.23,150.47 269.99,151.39 267.63,152.07 261.88,152.93 257.49,152.86 253.04,153.03 249.67,154.12 246.32,155.62 237.47,159.75 231.59,161.56 224.99,162.69 215.68,163.16 207.52,162.68 196.67,160.91 185.32,158.01 176.06,154.59 169.16,151.17 160.20,145.62 153.73,140.72 145.67,133.38 138.29,125.36 131.71,116.63 125.90,107.16 123.27,102.21 117.45,89.56 106.33,63.30 103.46,58.10 100.56,53.83 97.13,49.81 93.75,46.52 91.88,44.98 89.99,43.77 87.36,42.48 84.45,41.43 80.74,40.57 76.72,40.08 71.73,40.00 66.63,40.42 61.76,41.35 57.18,42.72 53.70,44.25 50.60,46.04 48.34,47.71 46.35,49.56 44.64,51.54 43.17,53.70 42.00,55.92 41.08,58.28 40.43,60.69 40.07,63.26 40.00,66.50 40.36,69.93 41.40,74.14 42.98,78.41 45.23,82.91 47.97,87.29 55.42,96.19 68.86,108.07 90.35,122.55 123.44,141.48 157.89,157.93 185.73,169.44 225.05,184.48 320.16,218.72 342.98,224.83 347.96,225.54 352.44,225.72 357.02,225.48 361.79,224.74 375.58,220.56 389.12,214.15 404.64,203.59 421.96,188.57 446.95,164.12 462.84,150.11 472.71,142.65 480.67,137.62 486.29,134.96 488.40,134.31 490.36,133.98 491.87,133.98 493.29,134.25 494.12,134.53 494.92,134.91 495.76,135.47 497.88,137.70 499.99,139.93 500.77,140.47 501.51,140.85 502.30,141.12 503.15,141.32 504.04,141.39 505.14,141.33 510.39,139.89 516.20,137.98 523.08,136.21 529.54,135.49 536.64,135.67 544.19,136.93 552.03,139.35 560.02,142.95 568.03,147.70 576.00,153.49 585.93,162.04 588.74,164.61 590.74,166.59 599.92,177.53"
        fill="none"
        stroke="#e94560"
        stroke-width="8.0"
        stroke-linejoin="round"
        stroke-linecap="round"/>
  <!-- Start/finish line -->
  <line x1="615.31" y1="164.75" x2="584.54" y2="190.31"
        stroke="#f5f5f5" stroke-width="9.6"
        stroke-linecap="round"/>
</svg>
