<?xml version="1.0" encoding="utf-8"?>
<svg xmlns="http://www.w3.org/2000/svg"
     width="588.1" height="800.0"
     viewBox="0 0 588.1 800.0">
  <rect width="100%" height="100%" fill="#1a1a2e"/>
  <!-- Track outline -->
  <polyline points="543.14,443.49 546.32,408.59 548.09,311.34 544.64,276.54 538.29,246.46 529.28,214.71 517.19,184.21 501.39,155.18 482.50,128.45 460.43,104.24 435.72,83.39 408.27,66.62 379.14,53.83 348.77,44.82 317.88,40.10 287.16,40.00 256.79,44.30 227.75,52.26 199.42,65.15 166.67,88.73 137.19,116.09 119.53,135.90 104.70,156.65 91.29,179.28 79.81,203.39 70.63,226.86 62.77,255.06 49.27,334.50 40.62,422.74 40.00,485.94 44.68,541.17 51.56,572.09 61.27,599.44 74.43,627.42 90.40,653.62 109.29,678.36 130.83,700.47 155.55,719.55 182.38,735.27 211.33,747.74 241.43,756.12 272.33,760.00 303.31,759.48 333.59,754.66 363.07,745.75 390.79,732.96 416.83,716.61 440.31,697.22 461.58,674.90 480.38,650.27 496.80,623.65 510.39,595.67 521.69,566.32 530.61,538.24 537.49,505.01 543.14,443.49"
        fill="none"
        stroke="#e94560"
        stroke-width="8.0"
        stroke-linejoin="round"
        stroke-linecap="round"/>
  <!-- Start/finish line -->
  <line x1="523.23" y1="441.67" x2="563.06" y2="445.32"
        stroke="#f5f5f5" stroke-width="9.6"
        stroke-linecap="round"/>
</svg>
