<?xml version="1.0" encoding="utf-8"?>
<svg xmlns="http://www.w3.org/2000/svg"
     width="800.0" height="538.3"
     viewBox="0 0 800.0 538.3">
  <rect width="100%" height="100%" fill="#1a1a2e"/>
  <!-- Track outline -->
  <polyline points="410.66,40.07 371.43,40.94 329.96,42.52 268.43,48.57 205.69,61.11 170.84,74.59 140.98,89.40 121.89,103.05 101.61,120.70 82.20,144.88 65.04,169.85 56.02,188.15 46.22,219.35 42.10,241.26 40.00,264.64 41.16,290.08 44.79,314.54 49.64,333.24 55.43,349.27 64.42,366.49 78.61,387.79 96.25,409.94 116.29,428.35 135.19,442.66 151.24,451.92 199.06,472.74 233.91,483.01 273.76,490.90 408.48,498.25 517.41,491.05 588.25,478.40 618.28,468.64 642.35,456.53 667.23,440.78 691.87,420.32 712.36,400.29 725.24,384.40 744.38,352.48 750.36,336.55 755.05,319.30 758.73,298.94 760.00,270.26 759.25,243.89 756.80,225.73 751.81,207.07 745.32,188.62 740.50,178.89 734.47,169.49 700.81,126.94 688.34,114.65 674.93,103.92 654.20,90.01 629.56,77.15 584.62,61.22 540.73,49.62 505.42,44.83 413.33,40.00 410.66,40.07"
        fill="none"
        stroke="#e94560"
        stroke-width="8.0"
        stroke-linejoin="round"
        stroke-linecap="round"/>
  <!-- Start/finish line -->
  <line x1="411.11" y1="60.07" x2="410.22" y2="20.08"
        stroke="#f5f5f5" stroke-width="9.6"
        stroke-linecap="round"/>
</svg>
