<?xml version="1.0" encoding="utf-8"?>
<svg xmlns="http://www.w3.org/2000/svg"
     width="800.0" height="365.1"
     viewBox="0 0 800.0 365.1">
  <rect width="100%" height="100%" fill="#1a1a2e"/>
  <!-- Track outline -->
  <polyline points="381.45,69.08 245.78,42.34 211.92,40.00 203.49,40.27 186.85,42.38 178.62,44.19 162.69,49.34 155.04,52.69 140.48,60.84 126.81,70.54 120.58,76.08 109.28,88.27 104.21,94.81 91.59,115.89 82.24,138.49 70.51,177.74 41.96,277.16 41.12,286.42 40.00,295.65 40.11,300.07 40.73,304.30 41.71,307.42 42.82,310.18 43.85,311.97 46.33,315.24 49.29,318.12 52.63,320.70 56.31,322.82 59.17,323.98 62.26,324.83 65.45,325.13 68.51,325.04 70.64,324.75 72.63,324.26 76.58,322.76 80.27,320.64 83.58,318.01 86.41,314.88 88.70,311.32 90.45,307.39 91.61,303.19 92.16,298.78 92.10,294.21 89.88,269.26 89.95,264.01 90.33,258.72 91.08,253.37 92.26,248.03 93.89,242.73 95.99,237.57 98.57,232.56 101.60,227.75 105.07,223.17 109.01,218.90 113.33,215.02 118.07,211.56 123.17,208.53 128.57,205.99 134.20,203.94 140.05,202.33 146.07,201.18 152.19,200.50 158.39,200.13 183.70,200.40 215.50,202.57 295.15,209.13 307.88,208.28 313.77,207.11 319.17,205.33 324.19,202.89 328.81,199.81 333.04,196.21 344.19,183.50 348.43,179.57 353.01,176.04 357.90,172.89 363.14,170.13 368.62,167.84 374.36,165.96 380.29,164.41 386.40,163.09 399.05,161.14 419.01,159.76 570.65,156.03 586.91,156.75 595.00,157.66 603.07,158.96 611.05,160.71 618.90,162.98 626.53,165.83 633.90,169.27 640.89,173.31 647.43,178.01 653.51,183.11 659.04,188.41 673.19,203.86 682.39,212.26 687.43,215.46 692.86,218.06 698.53,220.00 704.41,221.12 710.37,221.43 716.28,220.93 727.92,218.09 733.66,216.00 739.11,213.31 744.12,209.94 748.70,206.20 752.57,202.02 755.61,197.42 757.87,192.44 759.32,187.22 760.00,181.81 759.86,176.36 759.00,171.01 757.34,165.84 754.94,160.99 751.92,156.45 748.38,152.25 744.39,148.40 735.14,141.99 730.04,139.37 713.27,134.11 621.25,115.33 498.79,92.87 386.14,70.01 381.45,69.08"
        fill="none"
        stroke="#e94560"
        stroke-width="8.0"
        stroke-linejoin="round"
        stroke-linecap="round"/>
  <!-- Start/finish line -->
  <line x1="377.58" y1="88.71" x2="385.32" y2="49.46"
        stroke="#f5f5f5" stroke-width="9.6"
        stroke-linecap="round"/>
</svg>
