<?xml version="1.0" encoding="utf-8"?>
<svg xmlns="http://www.w3.org/2000/svg"
     width="725.7" height="800.0"
     viewBox="0 0 725.7 800.0">
  <rect width="100%" height="100%" fill="#1a1a2e"/>
  <!-- Track outline -->
  <polyline points="616.60,171.93 592.60,137.63 555.23,89.91 534.29,67.21 517.44,50.92 515.04,49.20 512.78,48.03 507.62,45.60 501.22,43.37 489.06,41.02 477.85,40.00 474.97,40.27 472.29,40.94 459.46,45.09 453.28,47.67 446.90,51.24 436.09,59.26 425.21,69.83 413.82,86.00 404.63,103.14 400.24,114.58 397.16,125.89 392.40,151.88 386.88,247.64 381.97,280.13 374.61,308.59 366.04,327.73 355.45,344.92 342.64,362.03 327.87,378.00 290.89,407.52 217.07,459.35 151.61,524.02 65.10,627.09 51.61,648.74 43.39,665.07 41.77,669.33 40.86,672.94 40.18,676.50 40.00,680.65 41.31,693.29 44.81,707.46 51.03,719.56 58.52,729.78 63.70,734.83 69.58,739.06 80.05,745.12 90.47,750.06 99.46,752.72 120.24,756.95 153.45,760.00 174.23,759.92 193.77,758.04 204.76,755.11 214.88,750.64 229.04,741.72 240.74,732.64 243.46,730.01 246.01,726.80 280.21,675.56 383.36,495.91 454.67,390.17 493.27,337.52 509.66,315.95 525.43,298.45 532.17,293.32 538.75,289.53 545.26,286.71 553.30,284.48 561.61,283.73 568.77,283.89 576.30,284.83 583.41,286.94 590.41,291.01 596.99,296.34 602.17,301.39 605.25,305.22 607.69,309.45 612.05,318.38 615.93,328.79 618.66,340.42 620.12,352.32 620.30,363.08 618.99,373.93 615.16,387.12 609.46,399.84 603.06,409.79 594.88,419.18 562.96,444.51 477.00,506.68 437.70,545.55 408.31,581.53 384.69,616.02 379.51,628.11 376.94,638.56 376.03,646.24 376.05,653.91 376.58,664.32 378.49,674.38 380.50,679.20 383.12,683.51 386.24,687.46 390.12,691.30 394.55,694.74 399.27,697.36 403.96,699.01 408.93,699.91 414.04,700.18 420.09,699.63 426.32,698.26 432.08,696.31 438.88,692.67 444.64,688.44 447.94,685.62 451.17,682.02 471.89,650.27 493.00,615.23 506.27,597.85 520.58,582.98 563.58,554.48 589.77,539.40 621.51,516.23 628.12,508.71 640.21,491.33 657.96,457.12 672.71,419.22 681.11,387.63 685.40,357.13 685.72,332.39 682.21,307.61 671.82,275.47 645.95,221.84 616.60,171.93"
        fill="none"
        stroke="#e94560"
        stroke-width="8.0"
        stroke-linejoin="round"
        stroke-linecap="round"/>
  <!-- Start/finish line -->
  <line x1="599.70" y1="182.63" x2="633.49" y2="161.22"
        stroke="#f5f5f5" stroke-width="9.6"
        stroke-linecap="round"/>
</svg>
