<?xml version="1.0" encoding="utf-8"?>
<svg xmlns="http://www.w3.org/2000/svg"
     width="532.5" height="800.0"
     viewBox="0 0 532.5 800.0">
  <rect width="100%" height="100%" fill="#1a1a2e"/>
  <!-- Track outline -->
  <polyline points="118.36,556.80 132.36,529.84 139.63,516.23 147.84,503.08 157.31,490.74 167.80,479.33 179.15,468.76 190.88,459.33 202.64,451.45 214.74,445.31 227.68,440.87 241.25,438.30 287.38,433.43 298.33,433.54 345.85,431.49 352.53,430.39 358.14,428.83 363.98,426.62 369.57,423.70 374.54,420.21 379.09,416.05 382.94,411.63 386.11,406.57 387.54,403.24 388.64,399.68 389.22,395.98 389.11,391.79 388.42,387.45 387.29,383.54 385.68,380.32 383.64,377.56 381.38,375.06 377.50,371.68 372.57,368.46 339.15,351.06 327.93,343.52 323.20,339.22 318.92,334.32 315.45,329.01 312.46,323.15 309.90,316.78 307.95,310.25 307.01,305.31 306.65,299.63 310.01,265.22 338.96,120.30 347.55,87.45 352.18,74.55 357.06,65.17 360.88,59.54 365.16,54.28 369.71,49.79 374.51,46.09 379.54,43.24 384.77,41.26 390.42,40.23 396.21,40.00 402.27,40.39 408.36,41.49 414.45,43.26 420.33,45.91 425.59,49.49 430.37,54.05 434.34,59.36 437.77,65.08 442.19,74.60 445.16,85.03 446.20,96.21 445.53,107.82 443.68,119.70 440.47,131.75 436.15,143.75 430.51,155.59 423.38,166.80 387.80,219.15 385.25,224.55 383.57,229.33 380.92,240.18 380.17,251.15 380.51,256.69 381.36,262.14 382.90,267.59 384.93,272.78 390.43,282.87 397.22,292.18 404.62,300.74 409.00,304.62 413.73,307.89 434.86,319.54 445.44,326.34 455.05,334.09 463.63,343.10 470.71,353.08 476.32,363.95 480.71,375.75 490.20,413.95 492.15,426.64 492.53,439.08 492.00,451.75 490.40,464.60 487.55,477.56 483.43,490.46 477.99,502.83 471.42,514.34 463.58,525.24 454.62,535.56 444.66,545.24 433.77,554.23 422.30,562.28 410.84,569.26 388.87,579.91 368.17,586.90 361.32,588.09 354.89,588.32 348.73,587.56 342.75,585.95 337.24,583.75 332.05,580.64 328.82,578.14 325.74,575.22 323.42,571.82 322.45,569.43 321.71,566.83 321.30,564.14 321.35,561.61 322.10,558.83 323.46,556.11 325.18,553.56 326.95,551.36 329.64,548.90 332.65,547.01 335.81,545.36 346.99,541.24 379.38,532.55 390.87,528.28 395.76,525.47 400.14,521.89 402.45,519.17 404.52,516.07 406.12,512.69 407.14,509.31 407.78,505.68 407.95,502.09 407.54,498.60 406.62,495.15 405.38,491.95 403.55,488.76 401.30,485.91 398.83,483.40 394.28,480.05 389.27,477.52 384.24,475.66 377.93,474.34 351.30,472.05 319.76,471.45 272.31,475.45 265.77,476.85 260.30,478.74 254.57,481.54 249.03,485.06 243.83,489.03 239.07,493.70 235.19,498.69 232.06,504.39 230.13,510.46 229.10,516.97 229.10,523.82 229.91,530.46 231.10,535.33 233.07,540.41 241.70,555.33 250.64,570.51 253.38,576.51 254.99,582.18 255.32,586.37 255.14,590.69 254.57,594.76 253.08,599.89 250.87,604.53 247.47,609.45 243.46,613.79 238.90,617.82 233.97,621.17 222.00,626.23 200.08,633.61 194.34,636.55 189.19,639.89 184.49,643.26 179.21,648.51 136.64,714.99 130.79,724.18 114.36,744.32 109.37,748.67 104.46,751.95 98.66,755.01 92.60,757.38 86.15,759.13 79.59,760.00 72.95,759.82 66.47,758.62 60.74,756.62 55.42,753.66 51.00,749.95 47.12,745.36 43.98,740.21 41.61,734.39 40.37,728.21 40.00,721.72 40.63,714.90 41.95,708.34 45.50,698.28 78.89,632.85 118.36,556.80"
        fill="none"
        stroke="#e94560"
        stroke-width="8.0"
        stroke-linejoin="round"
        stroke-linecap="round"/>
  <!-- Start/finish line -->
  <line x1="100.61" y1="547.59" x2="136.11" y2="566.02"
        stroke="#f5f5f5" stroke-width="9.6"
        stroke-linecap="round"/>
</svg>
