<?xml version="1.0" encoding="utf-8"?>
<svg xmlns="http://www.w3.org/2000/svg"
     width="555.6" height="800.0"
     viewBox="0 0 555.6 800.0">
  <rect width="100%" height="100%" fill="#1a1a2e"/>
  <!-- Track outline -->
  <polyline points="41.33,326.52 41.14,231.60 43.77,210.00 48.83,188.29 56.09,167.03 65.96,147.37 72.14,138.26 78.96,130.10 87.30,122.25 95.95,115.57 111.17,106.72 128.13,99.17 164.65,87.44 395.93,41.86 416.12,40.00 425.71,40.15 435.18,41.18 444.37,43.11 453.37,46.00 461.75,49.53 469.75,54.04 476.78,59.39 483.21,65.89 488.58,72.98 493.04,81.10 496.07,89.38 497.81,98.22 497.91,104.03 497.33,109.99 496.19,115.61 492.81,124.15 488.21,131.81 482.23,139.37 475.43,145.82 467.28,151.74 458.57,156.63 438.77,164.30 417.02,169.35 320.38,185.06 300.97,191.86 263.69,210.68 246.29,222.79 214.38,252.96 200.81,271.03 178.94,310.96 167.32,341.32 157.58,376.16 150.17,419.81 146.90,463.69 149.16,496.82 153.60,524.07 159.17,542.75 166.64,560.24 176.59,575.92 182.57,582.94 188.99,589.24 196.04,595.12 203.39,600.25 211.24,604.69 219.31,608.26 227.81,610.99 236.50,612.81 245.59,613.61 254.79,613.49 273.37,610.99 282.50,608.67 291.46,605.49 299.96,601.43 308.15,596.38 315.67,590.68 322.68,584.00 328.62,576.72 333.92,568.48 338.13,559.94 341.68,550.72 346.61,531.51 348.98,511.66 342.96,449.30 334.96,408.46 332.74,388.31 332.10,368.19 333.72,348.38 338.07,329.40 341.28,320.22 345.12,311.64 349.93,303.37 355.35,295.97 361.67,289.10 368.45,283.10 375.96,277.67 383.82,273.16 392.26,269.55 400.92,266.93 409.94,265.34 419.07,264.69 428.32,264.81 437.55,265.72 446.63,267.42 455.57,270.01 464.01,273.35 472.15,277.71 479.39,282.83 486.17,288.98 492.04,295.78 497.31,303.48 501.62,311.64 505.36,320.52 511.06,339.35 514.46,359.58 515.64,381.02 514.85,403.23 493.89,541.68 488.70,565.22 481.78,588.26 473.25,610.12 463.57,631.11 451.73,651.18 437.48,669.93 420.60,686.33 401.88,700.37 381.66,712.29 360.03,722.61 337.08,730.55 215.68,754.99 193.12,758.44 171.31,760.00 149.76,758.60 128.28,754.84 107.97,748.20 89.10,738.86 80.66,733.13 72.68,726.45 65.75,719.35 59.45,711.27 54.31,702.57 49.87,693.01 43.59,672.74 40.00,651.15 41.60,459.66 41.33,326.52"
        fill="none"
        stroke="#e94560"
        stroke-width="8.0"
        stroke-linejoin="round"
        stroke-linecap="round"/>
  <!-- Start/finish line -->
  <line x1="21.33" y1="326.56" x2="61.33" y2="326.48"
        stroke="#f5f5f5" stroke-width="9.6"
        stroke-linecap="round"/>
</svg>
