<?xml version="1.0" encoding="utf-8"?>
<svg xmlns="http://www.w3.org/2000/svg"
     width="641.2" height="800.0"
     viewBox="0 0 641.2 800.0">
  <rect width="100%" height="100%" fill="#1a1a2e"/>
  <!-- Track outline -->
  <polyline points="259.43,532.39 226.05,498.56 112.27,370.71 91.84,343.06 74.04,314.10 60.01,283.47 49.02,252.03 41.25,212.60 40.00,193.31 40.60,174.32 43.11,156.20 47.47,138.60 53.74,121.93 61.80,106.22 71.48,91.59 82.94,78.56 96.20,67.94 110.84,59.06 126.07,51.35 142.97,46.04 181.85,40.00 217.92,40.00 240.74,41.89 272.10,46.62 301.60,54.19 334.69,67.36 365.39,83.88 378.89,94.50 391.07,106.51 401.70,119.82 411.20,134.08 427.98,164.94 455.46,232.10 465.31,265.28 473.20,302.17 475.41,338.99 472.42,375.73 471.70,384.97 471.22,394.65 469.67,403.24 466.09,409.57 462.03,412.12 456.77,413.72 450.74,414.44 444.41,414.59 438.14,414.15 432.34,413.35 423.92,411.31 415.50,408.04 407.62,403.67 400.81,398.36 393.64,389.27 388.15,378.28 383.55,367.00 374.41,332.37 354.58,227.59 347.77,210.05 339.95,195.57 330.69,181.09 319.70,167.92 305.30,155.69 289.18,145.51 271.92,137.87 254.00,132.56 237.22,129.57 220.37,128.84 202.99,130.59 186.03,134.59 170.38,140.56 155.81,148.93 145.89,156.86 136.70,166.10 129.59,176.21 126.07,183.93 123.50,192.22 122.24,200.66 122.48,208.67 123.98,214.92 126.48,221.26 129.83,227.29 133.95,232.75 138.61,237.12 146.07,241.19 154.97,243.88 164.47,245.34 173.55,245.85 189.91,242.79 206.22,238.72 223.18,237.41 240.08,238.65 251.91,241.56 263.68,245.99 274.19,252.11 283.44,260.26 291.45,270.08 297.66,280.70 302.26,297.37 304.71,316.43 312.11,384.32 315.76,401.49 320.65,416.84 327.58,432.63 336.36,447.62 347.47,461.52 360.25,474.26 389.46,496.38 421.53,515.15 489.02,541.71 518.53,558.66 545.34,578.67 556.87,590.10 567.56,602.76 578.61,617.96 588.17,634.19 595.46,649.84 600.17,666.21 601.25,678.43 600.65,691.09 598.38,703.39 594.20,715.61 588.17,727.40 580.64,737.73 573.95,744.21 566.31,750.03 558.07,754.69 549.53,758.04 537.22,760.00 524.20,759.71 511.72,757.67 501.39,754.83 491.53,750.32 479.11,742.46 360.25,634.63 259.43,532.39"
        fill="none"
        stroke="#e94560"
        stroke-width="8.0"
        stroke-linejoin="round"
        stroke-linecap="round"/>
  <!-- Start/finish line -->
  <line x1="245.20" y1="546.44" x2="273.67" y2="518.35"
        stroke="#f5f5f5" stroke-width="9.6"
        stroke-linecap="round"/>
</svg>
