<?xml version="1.0" encoding="utf-8"?>
<svg xmlns="http://www.w3.org/2000/svg"
     width="800.0" height="571.6"
     viewBox="0 0 800.0 571.6">
  <rect width="100%" height="100%" fill="#1a1a2e"/>
  <!-- Track outline -->
  <polyline points="109.29,477.00 110.24,478.95 119.08,494.43 127.08,505.68 136.57,514.35 148.19,521.84 160.44,526.43 173.94,529.36 187.98,531.17 200.60,531.61 214.77,531.11 228.70,529.16 241.05,525.99 253.41,521.50 266.11,516.41 277.93,511.84 290.11,506.72 302.71,499.73 313.38,492.15 323.84,483.27 333.59,472.71 341.66,460.68 347.80,447.45 351.96,433.14 353.95,418.63 352.57,404.73 348.43,392.09 342.19,380.92 332.99,369.25 322.53,359.42 312.43,351.96 300.49,344.19 289.42,337.26 276.85,330.18 264.67,324.25 251.34,317.93 239.48,311.97 227.42,305.01 215.50,296.99 204.52,286.93 194.28,275.96 186.88,263.10 182.09,249.17 181.30,235.14 184.34,222.02 191.22,211.49 203.08,202.94 216.75,198.63 231.11,199.02 244.93,203.00 257.03,206.40 269.63,210.60 282.42,215.20 295.74,219.54 309.57,224.02 323.80,228.65 338.12,233.66 349.85,238.09 361.84,242.88 374.11,247.39 386.62,251.90 399.39,256.50 411.83,261.40 424.01,266.02 436.02,270.64 447.78,275.52 459.70,280.11 471.67,284.40 485.88,289.77 499.32,295.68 512.60,301.75 525.89,307.37 539.00,313.06 552.30,318.79 565.33,324.33 578.46,329.63 591.27,334.94 603.59,340.04 616.18,344.61 628.93,348.09 642.34,350.23 655.86,352.13 669.84,353.07 684.54,351.90 698.15,348.70 710.94,343.19 723.23,335.31 734.77,325.45 744.39,313.47 752.11,300.16 756.38,288.30 759.01,275.74 759.94,262.76 760.00,249.59 759.22,236.69 757.87,221.16 756.29,206.90 754.26,194.14 751.57,180.61 747.77,167.77 741.99,156.60 734.25,145.30 726.36,135.41 718.08,124.69 708.80,114.36 698.91,106.53 687.97,99.71 676.24,93.66 663.26,87.54 649.46,82.05 635.07,77.96 621.25,74.48 607.84,71.58 595.56,68.99 582.52,65.95 569.00,63.17 556.14,61.72 542.92,60.33 529.96,58.07 517.54,56.04 503.59,53.92 490.46,51.06 476.16,48.30 463.13,46.35 450.04,44.43 437.17,42.84 423.84,41.64 409.93,40.64 395.50,40.11 382.97,40.03 370.01,40.00 356.13,40.36 341.85,40.53 327.03,40.50 312.07,40.45 296.63,40.70 281.44,41.31 266.89,42.23 252.42,43.73 237.97,45.79 223.87,47.88 209.24,50.36 194.04,53.45 181.83,56.79 169.37,60.61 156.73,64.87 144.44,69.49 131.95,74.48 119.79,80.19 107.67,86.54 96.03,93.80 85.01,102.49 74.72,112.02 65.45,122.65 57.92,134.57 51.99,147.30 47.46,160.28 43.99,173.73 41.68,187.24 40.41,200.13 40.00,215.20 41.23,229.54 44.10,243.18 46.90,256.08 49.60,270.31 52.98,283.40 56.17,297.46 58.76,310.22 61.41,323.86 64.00,336.20 66.57,348.62 70.04,361.68 73.88,375.16 77.89,387.02 85.35,412.36 89.56,424.92 93.29,437.18 97.86,449.76 103.16,464.36 109.29,477.00"
        fill="none"
        stroke="#e94560"
        stroke-width="8.0"
        stroke-linejoin="round"
        stroke-linecap="round"/>
  <!-- Start/finish line -->
  <line x1="127.29" y1="468.28" x2="91.29" y2="485.72"
        stroke="#f5f5f5" stroke-width="9.6"
        stroke-linecap="round"/>
</svg>
