<?xml version="1.0" encoding="utf-8"?>
<svg xmlns="http://www.w3.org/2000/svg"
     width="666.1" height="800.0"
     viewBox="0 0 666.1 800.0">
  <rect width="100%" height="100%" fill="#1a1a2e"/>
  <!-- Track outline -->
  <polyline points="321.53,209.97 425.49,148.13 541.30,55.98 550.74,49.88 558.75,46.06 566.53,43.18 574.77,40.89 582.91,40.00 590.47,40.59 597.89,42.42 604.81,45.51 609.32,48.35 613.72,51.78 617.63,55.77 620.81,60.34 622.90,64.75 624.60,69.67 625.70,74.80 626.05,79.80 625.11,86.50 622.92,93.11 620.00,99.21 615.65,105.40 610.31,110.78 604.53,115.62 594.59,121.89 582.12,127.95 494.65,165.84 473.08,180.42 452.91,197.50 434.85,216.70 419.64,237.47 413.63,248.41 408.55,259.98 404.66,271.30 401.73,283.46 399.67,299.36 399.14,315.42 400.23,327.67 402.54,339.20 406.28,350.94 411.09,362.04 416.74,372.56 424.27,383.58 477.73,442.62 492.21,463.73 497.78,474.92 502.33,486.78 505.56,498.65 507.65,510.94 508.44,523.07 507.98,535.15 506.07,547.27 502.89,559.05 498.08,571.17 492.11,582.62 476.05,604.40 455.32,627.08 421.42,657.09 402.82,670.31 338.80,710.11 276.63,741.22 256.64,749.40 236.44,755.38 216.25,758.98 196.10,760.00 176.19,758.39 156.91,754.15 144.90,750.17 132.92,744.91 122.49,738.76 112.75,731.43 104.46,723.51 96.88,714.69 84.67,696.51 74.75,678.92 70.07,668.36 66.91,657.17 66.45,649.88 66.94,642.42 68.46,635.77 70.70,631.02 73.78,626.74 77.32,623.05 81.05,620.17 85.48,617.92 90.36,616.61 95.37,616.10 100.23,616.31 104.89,617.25 109.54,618.98 114.05,621.40 118.34,624.41 126.13,632.80 133.15,642.55 138.49,651.20 143.91,659.38 148.33,664.34 153.09,668.79 158.33,672.43 165.43,675.61 173.18,677.65 180.92,678.32 188.50,677.43 196.05,675.23 203.10,672.09 211.34,666.41 219.05,659.46 234.61,642.97 243.24,635.22 252.32,628.48 261.80,623.35 272.49,619.03 293.78,613.22 314.94,606.65 322.44,602.79 329.01,598.47 334.68,593.30 338.72,588.25 342.18,582.66 344.85,576.43 347.19,567.27 348.11,555.41 336.99,445.75 336.10,420.07 333.97,399.81 331.88,394.00 329.31,389.09 326.34,384.89 323.03,381.29 318.73,377.85 313.85,375.18 308.73,373.36 303.72,372.34 298.76,372.13 293.68,372.64 288.77,374.04 284.32,376.33 280.70,379.21 277.35,382.81 274.34,387.01 271.93,391.67 269.72,398.50 268.29,406.12 267.55,413.71 269.05,434.06 274.78,482.67 274.19,503.44 271.06,522.68 267.25,534.59 262.06,545.74 257.56,552.44 252.39,558.33 246.82,563.25 240.51,567.23 233.75,570.07 226.88,571.85 219.71,572.61 212.43,572.28 205.49,570.66 199.38,567.99 193.56,564.22 188.42,559.39 184.35,553.92 180.87,547.56 178.27,540.61 176.41,529.13 176.26,517.30 177.53,507.30 179.80,497.63 186.74,476.87 205.92,436.98 210.60,424.99 213.55,413.54 214.26,406.42 214.21,399.26 213.09,392.56 211.01,387.05 208.01,381.75 204.39,377.05 200.55,373.32 195.82,370.39 190.53,368.57 185.01,367.68 179.65,367.60 174.43,368.36 169.17,370.01 164.05,372.39 159.22,375.31 150.85,382.60 143.47,391.50 137.93,400.11 133.22,409.56 129.26,419.60 125.90,431.34 122.64,454.95 119.18,478.10 117.00,485.51 114.53,491.70 111.27,497.08 107.28,501.58 102.50,505.43 97.33,508.49 92.12,510.56 86.50,511.54 80.60,511.41 74.75,510.35 69.33,508.53 63.55,505.35 58.21,500.98 53.43,495.68 49.34,489.71 45.75,482.84 43.00,475.34 40.56,462.71 40.00,449.74 41.45,438.89 44.27,428.42 48.50,416.98 53.81,405.91 68.44,383.24 87.92,361.28 119.67,333.52 176.82,296.09 321.53,209.97"
        fill="none"
        stroke="#e94560"
        stroke-width="8.0"
        stroke-linejoin="round"
        stroke-linecap="round"/>
  <!-- Start/finish line -->
  <line x1="311.30" y1="192.78" x2="331.76" y2="227.15"
        stroke="#f5f5f5" stroke-width="9.6"
        stroke-linecap="round"/>
</svg>
