<?xml version="1.0" encoding="utf-8"?>
<svg xmlns="http://www.w3.org/2000/svg"
     width="800.0" height="336.2"
     viewBox="0 0 800.0 336.2">
  <rect width="100%" height="100%" fill="#1a1a2e"/>
  <!-- Track outline -->
  <polyline points="308.65,220.81 294.91,214.70 279.07,206.15 236.62,178.43 222.97,172.12 216.37,169.96 209.52,168.40 201.29,167.26 192.86,167.07 184.74,168.17 176.82,170.36 161.69,177.72 138.34,190.30 131.66,192.69 125.27,194.22 118.39,195.22 111.44,195.59 104.51,195.27 97.61,194.31 90.76,192.66 84.08,190.39 77.56,187.52 71.32,184.08 65.39,180.02 59.89,175.39 54.92,170.22 50.55,164.57 46.90,158.52 43.95,152.12 41.81,145.42 40.46,138.54 40.00,131.58 40.30,124.60 41.27,117.67 42.91,110.85 45.15,104.20 48.15,97.55 55.43,85.85 63.40,77.58 72.19,71.30 83.80,65.82 96.44,61.82 109.83,59.37 123.64,58.72 137.64,60.34 151.28,64.49 164.23,70.85 217.65,99.80 246.71,113.21 260.35,121.98 298.96,154.28 327.90,172.49 343.18,178.66 358.29,182.32 372.85,183.40 379.63,183.12 386.45,182.15 394.45,180.05 402.12,176.95 406.34,174.62 410.26,171.92 413.73,168.74 417.01,164.68 419.81,160.05 421.78,155.19 422.80,150.11 422.98,144.77 422.34,139.62 420.70,134.68 418.19,129.91 415.28,125.62 410.73,120.68 405.52,116.59 399.59,113.01 393.17,110.39 386.58,108.97 379.21,108.72 364.78,111.61 350.23,114.54 342.37,114.26 335.31,112.81 328.33,110.25 321.97,106.64 318.40,103.75 315.21,100.39 312.56,96.73 310.50,92.75 308.95,88.49 307.96,84.14 307.52,79.83 307.60,75.45 308.23,71.19 309.44,67.04 311.19,63.01 313.40,59.26 316.10,55.77 319.27,52.56 322.75,49.72 328.69,46.22 335.21,43.58 342.27,41.85 349.62,40.80 365.24,40.00 435.71,46.90 646.16,70.34 663.63,73.55 680.48,79.09 696.28,87.07 711.22,96.87 724.73,108.52 736.37,121.93 746.07,136.90 753.41,153.03 758.16,170.08 760.00,187.46 759.79,196.15 758.81,204.79 754.62,221.38 747.95,237.06 738.83,251.29 727.61,263.85 714.41,274.56 699.71,283.28 683.85,290.04 667.12,294.36 649.88,296.18 632.42,295.95 615.21,293.85 599.12,290.13 584.34,284.61 571.73,277.34 566.36,273.28 561.42,268.62 556.22,262.34 551.90,255.41 549.93,250.92 548.48,246.32 547.70,241.58 547.69,236.41 548.40,231.10 549.93,226.12 552.41,221.61 555.67,217.43 559.28,213.85 564.61,210.13 570.46,207.35 576.86,205.24 583.56,203.94 590.63,203.51 597.82,203.85 612.69,206.69 643.92,216.07 652.54,217.32 660.42,217.46 667.98,216.61 675.12,214.65 679.41,212.72 683.46,210.30 687.06,207.46 690.17,204.17 692.86,200.42 695.01,196.44 696.59,192.26 697.65,187.89 698.16,183.46 697.86,176.72 696.43,170.05 693.91,163.51 690.40,157.38 685.88,151.75 680.53,146.78 674.35,142.55 667.58,139.14 660.27,136.53 652.62,134.77 645.08,133.80 636.50,133.83 616.54,136.27 593.74,141.70 567.96,152.04 541.35,165.99 476.17,210.24 461.81,218.65 446.58,225.61 430.61,230.81 413.93,234.36 396.90,236.21 379.63,236.29 362.30,234.93 344.99,232.23 327.90,227.86 311.22,221.95 308.65,220.81"
        fill="none"
        stroke="#e94560"
        stroke-width="8.0"
        stroke-linejoin="round"
        stroke-linecap="round"/>
  <!-- Start/finish line -->
  <line x1="300.54" y1="239.09" x2="316.77" y2="202.53"
        stroke="#f5f5f5" stroke-width="9.6"
        stroke-linecap="round"/>
</svg>
