<?xml version="1.0" encoding="utf-8"?>
<svg xmlns="http://www.w3.org/2000/svg"
     width="381.7" height="800.0"
     viewBox="0 0 381.7 800.0">
  <rect width="100%" height="100%" fill="#1a1a2e"/>
  <!-- Track outline -->
  <polyline points="41.77,511.57 41.73,520.41 41.11,543.54 40.00,582.25 43.68,652.10 45.66,660.38 49.79,672.02 56.13,685.38 68.85,703.29 83.46,719.78 94.47,730.11 106.38,738.60 124.14,747.37 143.52,753.97 163.87,758.15 184.04,760.00 200.67,759.67 217.02,757.66 252.64,748.66 258.82,746.41 264.73,743.37 279.47,733.34 294.87,720.45 305.96,708.60 315.72,695.17 325.06,678.22 332.65,659.32 338.10,635.94 341.15,615.64 341.71,606.05 341.40,580.02 340.85,168.01 338.15,149.23 334.10,135.62 327.35,120.10 318.50,105.46 305.55,89.53 291.40,75.59 279.92,66.50 268.63,59.20 259.46,53.84 249.44,49.42 230.29,44.00 209.16,40.56 188.72,40.00 168.46,41.89 149.15,46.03 130.73,52.35 114.65,60.44 100.58,69.28 92.99,74.70 86.09,80.83 76.82,90.98 68.17,102.91 61.20,116.40 55.81,129.82 51.42,146.03 43.34,208.66 43.00,227.23 41.77,511.57"
        fill="none"
        stroke="#e94560"
        stroke-width="8.0"
        stroke-linejoin="round"
        stroke-linecap="round"/>
  <!-- Start/finish line -->
  <line x1="61.77" y1="511.66" x2="21.77" y2="511.49"
        stroke="#f5f5f5" stroke-width="9.6"
        stroke-linecap="round"/>
</svg>
