<?xml version="1.0" encoding="utf-8"?>
<svg xmlns="http://www.w3.org/2000/svg"
     width="800.0" height="648.5"
     viewBox="0 0 800.0 648.5">
  <rect width="100%" height="100%" fill="#1a1a2e"/>
  <!-- Track outline -->
  <polyline points="330.21,562.96 393.03,588.27 433.56,598.66 474.67,605.37 514.63,608.55 554.74,607.21 597.00,600.17 637.68,587.43 661.82,575.86 684.54,561.79 704.66,544.86 722.34,524.41 737.43,501.28 748.93,476.64 756.26,450.15 759.71,422.16 760.00,394.34 753.96,352.77 741.46,312.21 701.07,238.62 643.71,209.29 605.77,180.46 538.21,135.54 465.19,98.67 389.15,67.66 313.54,47.38 271.28,41.01 228.73,40.00 187.33,47.21 147.95,60.95 123.94,73.02 101.38,87.77 82.12,105.54 66.59,127.33 54.52,152.30 45.89,177.95 41.29,203.26 40.00,229.40 41.29,255.39 47.62,295.11 60.27,333.83 80.68,371.04 106.41,405.74 134.29,436.58 168.36,466.24 239.66,514.35 314.55,556.59 330.21,562.96"
        fill="none"
        stroke="#e94560"
        stroke-width="8.0"
        stroke-linejoin="round"
        stroke-linecap="round"/>
  <!-- Start/finish line -->
  <line x1="337.70" y1="544.41" x2="322.73" y2="581.50"
        stroke="#f5f5f5" stroke-width="9.6"
        stroke-linecap="round"/>
</svg>
