<?xml version="1.0" encoding="utf-8"?>
<svg xmlns="http://www.w3.org/2000/svg"
     width="554.6" height="800.0"
     viewBox="0 0 554.6 800.0">
  <rect width="100%" height="100%" fill="#1a1a2e"/>
  <!-- Track outline -->
  <polyline points="100.85,460.37 118.97,503.07 154.55,589.59 176.10,644.06 193.57,670.44 211.15,692.09 225.86,706.01 240.89,717.64 259.22,729.16 286.53,741.50 316.42,751.26 347.17,757.22 376.38,760.00 395.32,759.96 411.82,758.27 422.24,756.06 431.73,753.02 450.13,744.73 467.06,733.59 474.83,727.10 481.95,719.93 488.11,712.09 493.51,703.65 502.39,685.49 505.83,676.37 508.65,665.34 512.81,633.67 514.56,591.72 499.49,395.80 488.43,267.41 481.27,235.89 471.21,207.00 451.70,166.97 431.73,133.27 418.34,116.76 387.73,86.79 360.81,68.25 334.79,53.54 325.12,49.49 315.49,46.79 275.40,40.45 254.89,40.00 213.90,45.07 193.78,50.36 137.83,75.49 119.50,87.54 84.46,118.94 70.32,137.78 58.94,157.89 52.14,175.37 45.73,200.73 40.97,230.04 40.00,256.56 42.33,284.74 50.95,328.15 64.99,375.84 100.85,460.37"
        fill="none"
        stroke="#e94560"
        stroke-width="8.0"
        stroke-linejoin="round"
        stroke-linecap="round"/>
  <!-- Start/finish line -->
  <line x1="119.27" y1="452.56" x2="82.44" y2="468.18"
        stroke="#f5f5f5" stroke-width="9.6"
        stroke-linecap="round"/>
</svg>
