<?xml version="1.0" encoding="utf-8"?>
<svg xmlns="http://www.w3.org/2000/svg"
     width="800.0" height="737.7"
     viewBox="0 0 800.0 737.7">
  <rect width="100%" height="100%" fill="#1a1a2e"/>
  <!-- Track outline -->
  <polyline points="453.02,260.58 449.84,267.82 442.04,285.15 430.59,309.72 418.37,332.02 403.35,351.01 384.31,365.62 362.37,375.99 337.76,380.76 311.31,382.02 283.41,384.49 264.27,387.85 244.99,392.66 225.63,398.82 206.37,406.14 187.23,414.56 168.31,423.95 149.56,434.11 134.25,447.03 114.41,458.69 96.03,471.11 79.56,484.80 65.64,500.34 54.42,517.67 46.28,536.85 41.47,557.78 40.00,580.33 41.55,603.56 45.44,625.42 51.58,645.22 59.78,662.79 74.07,682.10 91.96,694.40 112.63,697.68 130.70,691.97 143.33,674.53 144.54,655.82 143.12,633.36 144.17,613.56 147.38,592.84 152.26,572.52 159.59,553.13 170.70,534.83 185.62,518.72 204.14,506.33 224.76,498.24 247.40,495.24 271.83,495.97 297.89,498.96 325.31,503.70 343.51,507.26 369.89,512.57 395.02,516.94 419.74,517.99 443.22,513.50 465.31,502.81 484.83,487.35 501.17,467.88 516.59,448.53 531.48,431.08 545.32,415.17 558.03,400.68 571.48,382.02 576.39,362.79 568.67,342.87 550.92,335.26 530.17,342.10 516.93,356.39 499.35,369.75 479.47,367.00 475.48,346.07 479.13,325.75 483.73,306.28 490.90,283.77 498.80,264.79 507.55,244.42 515.01,225.20 521.65,207.30 532.79,186.62 548.79,171.44 567.15,164.36 588.74,168.77 605.37,181.03 625.15,195.61 641.04,209.65 657.27,223.38 674.00,233.62 692.13,239.97 710.80,241.19 733.08,234.67 749.83,219.97 759.29,199.98 760.00,177.27 751.73,154.68 739.98,138.77 724.09,124.32 705.44,109.79 684.98,94.53 663.63,79.14 643.43,65.42 623.89,53.84 604.87,44.61 586.24,40.00 562.66,41.62 542.77,52.23 527.22,70.56 519.21,88.98 511.65,110.19 503.35,133.35 494.55,158.24 488.03,175.61 481.07,193.54 473.72,212.00 465.89,230.78 457.83,249.65 453.02,260.58"
        fill="none"
        stroke="#e94560"
        stroke-width="8.0"
        stroke-linejoin="round"
        stroke-linecap="round"/>
  <!-- Start/finish line -->
  <line x1="471.33" y1="268.62" x2="434.71" y2="252.53"
        stroke="#f5f5f5" stroke-width="9.6"
        stroke-linecap="round"/>
</svg>
