<?xml version="1.0" encoding="utf-8"?>
<svg xmlns="http://www.w3.org/2000/svg"
     width="800.0" height="401.3"
     viewBox="0 0 800.0 401.3">
  <rect width="100%" height="100%" fill="#1a1a2e"/>
  <!-- Track outline -->
  <polyline points="490.67,361.24 508.33,361.12 539.75,360.60 600.86,354.45 629.89,348.19 657.23,339.48 679.45,328.74 697.49,317.67 703.57,313.05 709.15,307.73 736.55,276.25 740.57,270.12 743.88,263.51 750.79,246.90 756.73,226.89 759.55,200.68 760.00,177.93 758.98,167.64 753.11,146.16 749.10,135.73 743.70,124.99 731.46,106.24 716.48,88.13 701.13,75.04 684.94,64.61 669.91,57.05 653.40,51.26 624.43,45.30 595.18,41.58 562.27,40.00 201.62,42.50 176.29,45.44 156.96,50.03 137.44,57.03 119.04,65.97 102.62,76.29 88.04,87.52 79.04,95.72 70.94,105.21 59.92,122.45 50.33,141.40 44.77,156.52 41.20,170.30 40.20,177.08 40.00,184.40 41.62,210.76 44.55,235.53 46.82,243.65 55.86,265.72 62.78,277.49 73.33,291.01 86.26,304.95 99.09,316.04 114.13,326.05 144.69,340.87 178.04,352.62 205.24,357.47 229.51,359.54 253.77,360.29 480.72,361.31 490.67,361.24"
        fill="none"
        stroke="#e94560"
        stroke-width="8.0"
        stroke-linejoin="round"
        stroke-linecap="round"/>
  <!-- Start/finish line -->
  <line x1="490.53" y1="341.24" x2="490.80" y2="381.23"
        stroke="#f5f5f5" stroke-width="9.6"
        stroke-linecap="round"/>
</svg>
