<?xml version="1.0" encoding="utf-8"?>
<svg xmlns="http://www.w3.org/2000/svg"
     width="373.3" height="800.0"
     viewBox="0 0 373.3 800.0">
  <rect width="100%" height="100%" fill="#1a1a2e"/>
  <!-- Track outline -->
  <polyline points="40.60,408.19 40.56,414.65 40.00,433.86 40.04,598.28 45.07,630.74 52.28,659.28 57.42,673.80 64.24,688.28 75.96,706.68 90.35,723.70 107.14,737.50 126.00,748.18 150.59,756.03 172.80,759.79 179.66,760.00 186.24,758.99 203.55,754.01 220.62,747.59 227.02,744.76 233.28,741.09 251.69,727.62 271.32,709.98 286.17,692.46 299.16,671.94 313.23,641.59 324.17,605.50 330.79,551.63 333.25,486.50 332.83,197.08 329.84,172.80 324.91,153.60 315.48,129.54 303.76,107.25 292.15,90.49 281.07,77.23 276.46,72.12 271.18,67.65 252.88,55.58 230.50,44.94 207.81,40.84 185.64,40.00 168.79,40.59 154.99,42.20 150.66,43.00 146.20,44.43 123.25,53.97 97.36,69.00 85.50,79.89 75.05,92.35 66.21,105.81 56.93,126.24 50.24,149.88 43.41,196.40 40.46,237.05 41.30,249.47 40.60,408.19"
        fill="none"
        stroke="#e94560"
        stroke-width="8.0"
        stroke-linejoin="round"
        stroke-linecap="round"/>
  <!-- Start/finish line -->
  <line x1="60.60" y1="408.28" x2="20.60" y2="408.10"
        stroke="#f5f5f5" stroke-width="9.6"
        stroke-linecap="round"/>
</svg>
