<?xml version="1.0" encoding="utf-8"?>
<svg xmlns="http://www.w3.org/2000/svg"
     width="800.0" height="505.3"
     viewBox="0 0 800.0 505.3">
  <rect width="100%" height="100%" fill="#1a1a2e"/>
  <!-- Track outline -->
  <polyline points="365.09,403.78 542.68,452.39 574.33,460.58 605.74,465.24 618.39,465.30 630.48,464.27 641.25,462.46 651.72,459.61 661.93,455.79 672.86,450.45 694.66,437.42 715.44,422.45 724.58,413.42 731.85,404.15 737.69,395.36 742.98,385.06 751.36,363.05 757.87,338.26 760.00,315.35 759.59,294.02 758.02,280.68 755.33,268.44 751.72,256.26 747.14,244.74 742.27,234.98 736.07,225.35 722.81,208.98 708.53,194.07 700.45,187.16 692.57,181.83 675.20,173.83 653.19,166.31 424.64,99.40 198.33,40.42 187.25,40.00 179.22,41.03 170.13,42.30 160.07,44.73 136.90,53.27 113.88,64.00 103.11,70.61 93.81,77.82 84.56,86.49 75.67,96.73 64.34,112.91 54.63,129.28 50.47,137.28 47.27,146.07 42.49,169.59 40.00,195.59 40.97,214.74 43.66,231.41 45.84,239.65 49.10,247.71 59.05,267.29 71.20,286.87 80.09,297.59 89.34,306.57 108.54,321.48 129.53,333.17 159.71,342.93 356.66,401.48 365.09,403.78"
        fill="none"
        stroke="#e94560"
        stroke-width="8.0"
        stroke-linejoin="round"
        stroke-linecap="round"/>
  <!-- Start/finish line -->
  <line x1="370.37" y1="384.49" x2="359.81" y2="423.08"
        stroke="#f5f5f5" stroke-width="9.6"
        stroke-linecap="round"/>
</svg>
