<?xml version="1.0" encoding="utf-8"?>
<svg xmlns="http://www.w3.org/2000/svg"
     width="800.0" height="440.6"
     viewBox="0 0 800.0 440.6">
  <rect width="100%" height="100%" fill="#1a1a2e"/>
  <!-- Track outline -->
  <polyline points="509.92,375.84 593.15,364.76 668.54,344.10 680.77,339.02 692.03,332.42 716.65,312.69 738.25,291.92 743.33,285.54 747.04,279.38 750.80,272.24 753.99,263.54 758.14,242.72 760.00,218.87 758.30,196.16 753.38,173.61 743.41,147.82 730.86,124.89 721.01,111.86 709.15,100.78 684.69,83.96 655.02,69.09 615.10,55.46 568.81,46.16 490.47,40.00 403.09,42.49 294.11,58.49 195.07,82.23 152.00,97.26 117.05,114.78 92.79,131.87 73.14,150.47 62.40,164.74 54.09,179.61 47.83,194.48 43.35,209.08 41.41,218.55 40.44,228.39 40.00,244.99 41.70,263.91 50.74,296.30 61.67,325.29 69.75,340.70 74.43,347.56 80.24,354.32 93.03,366.00 108.21,377.09 125.40,385.85 142.32,392.34 152.28,395.53 164.39,397.69 240.96,400.55 336.53,398.12 488.61,378.71 509.92,375.84"
        fill="none"
        stroke="#e94560"
        stroke-width="8.0"
        stroke-linejoin="round"
        stroke-linecap="round"/>
  <!-- Start/finish line -->
  <line x1="507.28" y1="356.02" x2="512.57" y2="395.67"
        stroke="#f5f5f5" stroke-width="9.6"
        stroke-linecap="round"/>
</svg>
