<?xml version="1.0" encoding="utf-8"?>
<svg xmlns="http://www.w3.org/2000/svg"
     width="483.1" height="800.0"
     viewBox="0 0 483.1 800.0">
  <rect width="100%" height="100%" fill="#1a1a2e"/>
  <!-- Track outline -->
  <polyline points="41.22,351.09 40.00,477.76 41.00,498.68 45.95,563.89 50.61,584.49 74.43,647.96 85.47,667.54 103.28,694.17 124.42,720.13 139.97,731.99 154.15,739.84 160.10,742.29 166.48,744.17 207.40,753.93 251.93,760.00 264.01,760.00 276.23,758.57 301.24,753.40 326.53,745.10 343.16,735.78 356.99,725.21 365.26,717.05 372.90,707.73 399.55,670.22 418.51,631.24 425.28,609.69 441.37,482.58 443.12,278.66 436.71,224.34 425.46,176.70 407.97,133.84 396.04,110.34 382.61,89.33 371.07,77.20 358.99,67.74 348.68,61.45 337.64,56.37 306.93,46.69 271.25,40.00 234.84,40.22 214.10,42.32 192.92,47.09 167.77,58.15 144.91,71.98 131.12,83.31 120.94,93.97 114.85,103.20 73.68,180.81 61.03,221.62 52.07,263.63 41.22,351.09"
        fill="none"
        stroke="#e94560"
        stroke-width="8.0"
        stroke-linejoin="round"
        stroke-linecap="round"/>
  <!-- Start/finish line -->
  <line x1="61.19" y1="352.22" x2="21.25" y2="349.97"
        stroke="#f5f5f5" stroke-width="9.6"
        stroke-linecap="round"/>
</svg>
