<?xml version="1.0" encoding="utf-8"?>
<svg xmlns="http://www.w3.org/2000/svg"
     width="647.7" height="800.0"
     viewBox="0 0 647.7 800.0">
  <rect width="100%" height="100%" fill="#1a1a2e"/>
  <!-- Track outline -->
  <polyline points="294.90,707.72 323.84,703.54 404.68,681.94 424.07,676.81 428.81,676.08 433.14,675.84 437.70,676.07 442.23,676.81 446.66,678.10 450.97,679.89 455.11,682.16 459.06,684.89 462.79,688.05 466.25,691.62 469.37,695.56 472.25,699.97 478.17,712.13 486.41,729.70 490.36,735.60 494.71,740.74 499.73,745.48 505.18,749.61 511.10,753.12 517.33,755.94 523.94,758.06 530.73,759.42 537.60,760.00 544.66,759.74 553.00,758.34 561.22,756.03 568.01,753.30 574.39,749.90 580.49,745.77 586.20,740.97 591.39,735.56 596.03,729.55 599.93,723.08 603.11,716.16 605.47,708.98 607.02,701.54 607.73,694.00 607.58,686.43 606.52,678.92 604.61,671.61 601.87,664.52 598.37,657.86 594.06,651.62 589.10,645.98 583.44,640.97 577.30,636.66 570.72,633.00 563.82,630.06 556.33,627.82 549.11,626.33 539.82,625.44 533.63,625.43 486.53,629.13 470.21,629.85 457.38,628.52 447.67,625.91 438.52,621.78 434.23,619.17 430.16,616.16 426.42,612.81 422.99,609.09 419.96,605.09 417.29,600.78 413.11,591.45 410.47,581.26 409.09,567.45 409.81,536.59 413.76,449.04 422.70,241.41 424.94,226.20 428.69,214.23 433.28,205.13 439.36,196.73 446.79,189.40 450.98,186.26 455.41,183.54 460.12,181.24 465.01,179.43 470.09,178.13 475.26,177.33 485.68,177.13 505.88,177.53 513.45,176.48 520.42,174.74 526.20,172.57 531.43,169.89 535.37,167.19 538.88,164.12 542.02,160.75 544.78,157.03 547.03,153.22 548.90,148.90 550.64,142.91 552.04,135.07 555.16,101.61 556.38,69.28 555.86,63.74 554.83,59.44 553.24,54.90 551.19,50.82 549.10,47.86 546.72,45.39 544.03,43.32 541.12,41.73 538.04,40.65 534.86,40.08 531.61,40.00 528.27,40.48 524.17,41.76 520.05,43.74 516.13,46.34 512.32,49.74 507.64,55.38 502.99,62.35 491.17,85.35 485.19,94.03 477.90,101.63 469.37,107.92 459.78,112.86 454.66,114.73 449.41,116.15 443.99,117.07 438.52,117.50 433.01,117.44 427.51,116.88 422.12,115.81 416.82,114.23 411.65,112.14 406.62,109.57 397.15,103.08 388.86,94.97 380.40,83.80 363.73,60.10 360.48,56.92 357.47,54.80 354.70,53.50 352.00,52.76 349.89,52.53 347.86,52.65 345.87,53.07 343.97,53.81 342.21,54.80 340.55,56.15 338.69,58.21 337.06,60.76 335.65,64.04 334.73,68.24 334.97,80.64 336.00,94.77 336.40,116.16 337.07,154.00 338.19,161.33 339.82,167.43 341.87,172.61 344.32,177.18 346.77,180.64 349.51,183.64 352.55,186.24 356.14,188.69 371.89,196.80 375.86,199.52 379.32,202.39 382.68,205.70 385.75,209.36 388.45,213.30 390.80,217.53 394.40,226.71 396.52,236.85 397.31,250.71 397.08,320.17 397.08,360.95 395.65,378.70 392.58,395.64 387.92,411.68 381.53,426.64 370.48,445.19 361.09,462.90 357.72,472.04 355.24,481.53 353.80,491.45 353.34,501.81 355.63,526.77 364.11,559.50 370.96,583.40 373.88,599.85 374.26,610.43 373.04,620.56 371.77,625.43 370.08,630.13 367.94,634.68 365.41,638.99 359.18,647.02 351.53,654.09 342.60,660.08 332.56,664.89 318.83,669.08 304.01,671.28 291.60,671.41 279.00,669.86 266.61,666.57 236.55,655.62 226.80,653.59 217.75,652.62 209.87,652.44 201.83,653.11 179.73,658.48 163.82,663.08 150.68,665.09 137.46,665.09 124.40,662.98 96.13,656.05 85.90,654.84 76.69,654.57 70.32,655.05 64.61,656.10 60.22,657.37 56.17,659.06 52.50,661.10 49.13,663.54 46.25,666.27 43.80,669.37 41.97,672.65 40.68,676.19 40.05,679.79 40.00,683.46 40.55,687.14 41.65,690.72 43.31,694.25 45.45,697.54 48.15,700.66 51.35,703.49 55.98,706.64 61.30,709.40 68.37,712.02 76.32,714.07 99.68,716.88 146.93,715.89 279.82,709.89 294.90,707.72"
        fill="none"
        stroke="#e94560"
        stroke-width="8.0"
        stroke-linejoin="round"
        stroke-linecap="round"/>
  <!-- Start/finish line -->
  <line x1="292.04" y1="687.92" x2="297.75" y2="727.51"
        stroke="#f5f5f5" stroke-width="9.6"
        stroke-linecap="round"/>
</svg>
