<?xml version="1.0" encoding="utf-8"?>
<svg xmlns="http://www.w3.org/2000/svg"
     width="644.6" height="800.0"
     viewBox="0 0 644.6 800.0">
  <rect width="100%" height="100%" fill="#1a1a2e"/>
  <!-- Track outline -->
  <polyline points="52.73,448.63 57.23,385.88 62.66,303.45 63.39,293.07 73.72,135.61 75.07,123.95 75.90,120.83 76.93,118.14 78.04,115.98 79.35,114.03 80.91,112.25 82.74,110.63 85.30,108.92 88.16,107.46 91.19,106.37 94.51,105.58 104.39,104.81 126.42,103.78 131.35,102.84 135.57,101.51 139.18,99.92 142.59,97.90 146.40,94.99 150.02,91.48 157.09,81.72 164.16,70.05 169.50,63.49 171.93,61.16 174.45,59.14 177.03,57.43 179.72,56.01 182.40,54.93 185.16,54.14 187.92,53.66 190.72,53.48 193.54,53.64 196.33,54.13 199.12,54.96 201.82,56.10 204.39,57.57 206.78,59.34 208.97,61.40 210.95,63.71 212.70,66.23 214.24,69.03 215.77,72.63 217.05,76.67 219.09,88.50 221.16,112.74 221.39,128.84 220.25,142.56 217.16,157.53 212.23,174.57 201.16,203.60 186.42,240.17 184.33,248.28 183.25,255.69 182.88,263.60 183.27,271.55 184.36,279.48 186.29,287.58 194.46,307.73 233.39,381.18 251.43,411.87 255.23,416.70 258.79,420.34 261.88,422.92 265.10,425.00 268.65,426.69 272.29,427.90 275.53,428.53 278.73,428.69 281.90,428.35 284.87,427.57 287.12,426.59 289.17,425.26 291.49,423.20 293.55,420.72 295.21,417.94 296.51,414.75 297.66,410.09 298.24,404.93 298.10,399.11 297.21,392.59 290.52,367.30 288.06,352.03 287.54,339.75 288.43,326.94 291.14,311.59 295.84,293.99 300.73,280.74 306.31,270.25 313.30,260.47 321.61,251.44 331.28,243.53 339.90,238.14 349.21,233.71 361.65,229.54 374.76,226.88 391.13,225.36 442.53,221.88 447.97,220.75 452.19,219.32 455.86,217.60 459.20,215.51 462.32,213.01 465.11,210.14 467.48,206.95 469.44,203.49 470.94,199.80 471.98,195.94 472.54,191.94 472.59,187.77 472.01,182.74 470.81,177.65 468.94,172.61 466.44,167.78 463.28,163.17 459.53,158.95 455.18,155.21 450.37,152.02 445.21,149.42 439.62,147.40 425.76,144.92 407.05,143.26 399.10,141.42 395.24,139.92 391.63,138.11 388.76,136.31 386.14,134.29 383.68,132.03 381.38,129.45 378.85,125.98 376.57,122.15 373.07,113.71 370.80,104.45 370.09,94.87 371.10,85.21 373.71,75.65 377.05,68.33 381.46,61.67 386.86,55.94 393.15,51.04 400.25,46.98 410.07,43.23 420.68,40.99 434.11,40.00 447.87,40.39 459.41,41.91 470.63,44.80 481.50,49.21 492.09,54.90 502.16,61.89 511.52,70.11 519.83,79.11 526.78,88.76 531.36,97.19 534.90,106.25 537.34,115.80 538.88,128.19 541.81,186.04 547.76,235.70 549.62,243.15 551.85,249.24 554.53,254.87 557.76,260.08 561.54,264.85 566.15,269.38 582.95,280.82 590.56,286.46 593.88,289.63 596.83,292.95 598.98,295.91 600.78,299.00 602.25,302.34 603.38,305.84 604.13,309.48 604.52,313.20 604.57,316.99 604.30,320.78 602.79,328.36 600.07,335.82 595.07,344.73 585.08,360.11 582.59,365.47 580.80,370.98 578.53,386.67 576.71,396.81 572.19,414.63 571.70,420.69 571.90,426.28 572.61,430.94 573.88,435.47 576.00,440.46 578.81,445.66 588.79,460.69 593.09,469.97 595.96,479.88 597.36,490.37 596.96,500.83 594.88,511.18 591.21,521.34 587.07,528.91 580.49,537.33 572.63,544.71 563.86,550.61 537.84,564.33 532.56,568.34 528.37,572.48 524.91,576.91 522.06,581.73 519.82,586.79 518.07,592.78 514.56,622.13 508.30,670.11 497.55,742.62 496.71,746.39 495.77,749.10 494.47,751.60 492.90,753.77 491.34,755.38 489.54,756.74 486.96,758.13 484.19,759.20 481.78,759.76 479.38,760.00 476.89,759.94 474.43,759.56 471.99,758.85 469.64,757.81 467.38,756.39 465.29,754.68 463.38,752.70 461.72,750.49 460.42,748.25 459.26,745.52 454.99,729.34 453.25,725.55 451.17,722.24 448.09,718.36 444.38,714.68 439.52,710.99 434.00,707.71 427.43,704.72 419.82,702.12 336.45,683.83 305.43,675.86 302.34,674.66 299.94,673.40 297.49,671.75 295.24,669.85 293.23,667.72 291.40,665.29 289.44,662.00 287.74,658.40 285.31,650.54 282.94,636.61 282.67,627.16 283.70,619.39 286.56,609.61 290.88,599.89 297.53,588.73 305.40,578.36 313.03,570.59 321.61,564.07 331.01,558.79 340.66,555.12 350.34,553.11 357.73,552.77 364.98,553.59 368.60,554.47 372.14,555.67 375.56,557.20 378.80,559.03 381.75,561.13 384.47,563.48 386.86,566.02 389.00,568.76 390.83,571.59 392.43,574.67 395.32,582.90 399.58,597.57 401.36,601.10 403.41,604.11 405.91,607.01 408.75,609.59 411.92,611.79 415.33,613.55 418.95,614.80 422.70,615.55 426.51,615.74 430.33,615.42 434.11,614.57 437.76,613.22 441.27,611.35 444.54,609.05 447.55,606.36 450.29,603.23 453.05,599.14 455.40,594.52 457.36,589.19 458.86,582.54 461.17,559.46 461.98,536.01 461.62,528.62 460.69,522.50 459.27,517.08 457.38,512.16 455.31,508.29 452.87,504.83 450.11,501.76 447.04,499.07 443.77,496.83 440.16,494.99 435.63,493.32 430.69,492.19 424.82,491.67 418.62,491.88 411.44,493.00 404.29,494.90 391.83,500.36 364.08,516.37 336.85,529.60 306.05,542.41 291.10,548.17 283.88,549.88 280.27,550.26 276.65,550.32 272.99,550.04 269.36,549.42 265.75,548.45 262.21,547.17 255.42,543.68 249.17,539.04 242.28,531.83 235.13,521.66 228.00,508.27 196.69,437.92 189.24,425.21 186.48,421.80 183.58,418.96 180.39,416.46 176.96,414.40 173.43,412.86 169.78,411.80 166.16,411.28 162.53,411.25 159.16,411.67 155.62,412.66 149.65,415.27 143.50,418.77 137.94,422.70 132.96,427.03 129.29,430.97 126.21,435.18 123.66,439.81 121.69,444.75 120.27,450.12 119.52,455.51 119.46,460.18 119.97,464.71 121.01,469.16 122.57,473.45 124.61,477.45 127.20,481.28 130.72,485.33 135.03,489.42 150.87,501.78 158.14,509.22 164.46,517.72 169.83,527.19 174.10,537.52 177.19,548.56 179.92,564.91 189.59,658.34 192.96,693.03 192.95,697.12 192.60,700.37 191.98,703.16 191.07,705.76 189.88,708.26 188.41,710.61 186.67,712.79 184.68,714.74 182.45,716.42 180.03,717.78 177.50,718.80 174.87,719.46 172.26,719.77 169.55,719.73 166.64,719.30 162.77,718.33 71.54,689.28 63.04,685.15 56.86,680.76 54.08,678.17 51.55,675.33 49.26,672.22 47.25,668.90 44.05,661.65 41.47,651.80 40.00,639.25 40.15,623.90 51.21,469.70 52.73,448.63"
        fill="none"
        stroke="#e94560"
        stroke-width="8.0"
        stroke-linejoin="round"
        stroke-linecap="round"/>
  <!-- Start/finish line -->
  <line x1="32.78" y1="447.20" x2="72.68" y2="450.06"
        stroke="#f5f5f5" stroke-width="9.6"
        stroke-linecap="round"/>
</svg>
