<?xml version="1.0" encoding="utf-8"?>
<svg xmlns="http://www.w3.org/2000/svg"
     width="800.0" height="705.6"
     viewBox="0 0 800.0 705.6">
  <rect width="100%" height="100%" fill="#1a1a2e"/>
  <!-- Track outline -->
  <polyline points="335.61,179.75 473.54,75.71 495.85,62.31 525.85,49.90 560.56,42.10 592.02,40.00 617.16,41.22 637.96,44.89 660.96,54.04 683.54,68.37 700.78,82.99 715.99,99.65 729.01,119.17 742.60,143.63 751.17,166.99 757.44,196.29 760.00,222.16 758.07,243.30 752.37,266.02 744.58,284.43 733.19,302.25 719.18,317.22 298.71,642.22 277.33,655.32 256.38,662.14 231.76,665.63 202.18,663.07 174.48,657.36 144.43,644.26 115.37,625.03 93.52,604.18 75.12,578.90 61.06,556.35 47.94,526.76 42.35,500.08 40.00,472.88 43.29,445.15 53.54,415.32 68.80,389.17 91.32,363.94 335.61,179.75"
        fill="none"
        stroke="#e94560"
        stroke-width="8.0"
        stroke-linejoin="round"
        stroke-linecap="round"/>
  <!-- Start/finish line -->
  <line x1="323.57" y1="163.78" x2="347.65" y2="195.72"
        stroke="#f5f5f5" stroke-width="9.6"
        stroke-linecap="round"/>
</svg>
