<?xml version="1.0" encoding="utf-8"?>
<svg xmlns="http://www.w3.org/2000/svg"
     width="800.0" height="392.6"
     viewBox="0 0 800.0 392.6">
  <rect width="100%" height="100%" fill="#1a1a2e"/>
  <!-- Track outline -->
  <polyline points="461.77,226.65 459.79,227.15 455.17,228.36 450.49,229.53 445.79,230.67 441.01,231.84 436.18,233.05 431.32,234.32 426.43,235.63 421.52,236.96 416.56,238.30 411.54,239.68 406.50,241.05 401.40,242.46 396.25,243.86 391.07,245.27 385.87,246.61 380.62,247.95 375.31,249.25 369.95,250.59 364.56,251.97 359.12,253.37 353.68,254.81 348.19,256.22 342.64,257.66 337.04,259.07 331.42,260.44 325.77,261.85 320.06,263.28 314.33,264.76 308.57,266.27 302.79,267.81 297.01,269.41 291.17,271.05 285.31,272.80 279.42,274.50 273.48,276.24 267.54,277.95 261.57,279.69 255.52,281.50 249.47,283.28 243.37,285.05 237.27,286.79 231.12,288.53 224.94,290.24 218.73,291.98 212.50,293.82 206.27,295.70 200.01,297.57 193.70,299.48 187.36,301.43 181.05,303.33 174.68,305.28 168.37,307.29 162.11,309.26 156.04,311.20 150.10,313.05 144.29,314.79 138.58,316.46 133.01,318.00 127.54,319.44 122.16,320.71 116.85,321.85 111.59,322.79 106.39,323.46 101.29,323.86 96.25,324.06 91.34,324.03 86.56,323.69 81.88,323.09 77.37,322.19 72.98,320.98 68.79,319.58 64.80,317.97 61.05,316.13 57.56,314.05 54.39,311.74 51.49,309.19 48.90,306.38 46.58,303.33 44.54,300.05 42.88,296.67 41.58,293.12 40.63,289.47 40.11,285.69 40.00,281.84 40.24,278.02 40.71,274.20 41.43,270.42 42.40,266.60 43.59,262.82 45.02,259.03 46.63,255.32 48.48,251.67 50.54,248.05 52.78,244.53 55.18,241.02 57.69,237.53 60.31,234.09 63.05,230.70 65.96,227.39 68.97,224.14 72.14,220.93 75.41,217.74 78.79,214.63 82.28,211.62 85.90,208.70 89.65,205.92 93.56,203.24 97.60,200.63 101.77,198.15 106.05,195.81 110.46,193.57 114.95,191.42 119.57,189.38 124.27,187.47 129.08,185.66 133.99,184.06 138.98,182.65 144.08,181.48 149.20,180.51 154.43,179.57 159.66,178.60 164.91,177.49 170.19,176.25 175.48,174.98 180.86,173.68 186.28,172.44 191.74,171.23 197.26,170.09 202.83,169.09 208.46,168.18 214.14,167.48 219.87,166.91 225.68,166.48 231.54,166.18 237.43,166.01 243.40,165.94 249.37,165.97 255.36,166.14 261.38,166.48 267.43,167.05 273.53,167.78 279.60,168.79 285.65,170.06 291.67,171.57 297.69,173.27 303.71,175.05 309.76,176.82 315.89,178.50 322.10,179.94 328.38,181.14 334.74,182.08 341.14,182.68 347.53,182.92 353.92,182.82 360.33,182.42 366.73,181.68 373.12,180.64 379.51,179.37 385.79,177.83 391.97,175.92 397.99,173.64 403.86,170.93 409.51,167.75 414.95,164.17 420.26,160.38 425.46,156.46 430.53,152.38 435.47,148.09 440.27,143.57 444.97,138.88 449.62,134.03 454.19,129.11 458.71,124.08 463.27,119.06 467.92,114.04 472.68,109.08 477.51,104.16 482.42,99.27 487.49,94.52 492.75,89.93 498.19,85.57 503.81,81.42 509.65,77.47 515.67,73.79 521.82,70.37 528.13,67.19 534.52,64.14 540.99,61.26 547.60,58.55 554.33,56.04 561.09,53.70 567.90,51.55 574.72,49.51 581.56,47.60 588.40,45.86 595.32,44.29 602.32,42.91 609.37,41.74 616.44,40.84 623.55,40.23 630.62,40.00 637.73,40.17 644.78,40.74 651.70,41.74 658.51,43.21 665.14,45.16 671.61,47.50 677.92,50.28 683.97,53.46 689.75,57.11 695.33,61.10 700.63,65.38 705.70,69.90 710.54,74.66 715.18,79.58 719.73,84.70 724.08,90.03 728.26,95.59 732.17,101.35 735.81,107.31 739.22,113.43 742.31,119.73 745.11,126.16 747.59,132.66 749.75,139.29 751.63,146.08 753.21,153.02 754.56,160.05 755.77,167.11 756.83,174.15 757.76,181.21 758.55,188.34 759.18,195.54 759.68,202.78 759.97,210.04 760.00,217.24 759.76,224.41 759.29,231.54 758.57,238.71 757.70,245.84 756.65,252.97 755.40,260.10 753.95,267.17 752.26,274.10 750.31,280.83 748.12,287.33 745.66,293.66 743.05,299.78 740.22,305.71 737.13,311.27 733.78,316.46 730.24,321.32 726.49,325.90 722.63,330.19 718.64,334.17 714.58,337.82 710.40,341.11 706.15,343.99 701.87,346.46 697.57,348.54 693.27,350.18 688.91,351.45 684.52,352.29 680.11,352.59 675.70,352.39 671.35,351.76 667.10,350.68 662.92,349.24 658.96,347.44 655.24,345.33 651.86,342.91 648.74,340.30 645.92,337.46 643.43,334.34 641.24,330.93 639.34,327.18 637.73,323.16 636.46,318.97 635.64,314.75 635.25,310.43 635.30,306.18 635.77,301.99 636.70,297.88 638.05,293.82 639.82,289.91 641.95,286.19 644.38,282.61 647.00,279.16 649.69,275.71 652.44,272.26 655.08,268.71 657.56,264.99 659.81,261.11 661.73,257.02 663.35,252.77 664.61,248.38 665.48,243.83 665.91,239.28 665.83,234.72 665.33,230.20 664.45,225.75 663.24,221.33 661.68,217.07 659.65,213.02 657.19,209.24 654.37,205.69 651.28,202.34 647.92,199.23 644.36,196.35 640.53,193.63 636.49,191.16 632.26,188.98 627.90,187.20 623.44,185.90 618.93,185.13 614.36,184.83 609.79,184.96 605.19,185.40 600.57,186.07 595.92,186.90 591.25,187.91 586.60,189.01 581.90,190.29 577.23,191.66 572.50,193.13 567.75,194.64 562.94,196.18 558.11,197.72 464.36,226.02 461.77,226.65"
        fill="none"
        stroke="#e94560"
        stroke-width="8.0"
        stroke-linejoin="round"
        stroke-linecap="round"/>
  <!-- Start/finish line -->
  <line x1="466.61" y1="246.06" x2="456.93" y2="207.24"
        stroke="#f5f5f5" stroke-width="9.6"
        stroke-linecap="round"/>
</svg>
