<?xml version="1.0" encoding="utf-8"?>
<svg xmlns="http://www.w3.org/2000/svg"
     width="800.0" height="290.7"
     viewBox="0 0 800.0 290.7">
  <rect width="100%" height="100%" fill="#1a1a2e"/>
  <!-- Track outline -->
  <polyline points="671.12,204.50 679.00,206.91 692.00,212.46 705.08,216.98 718.37,219.03 731.26,217.78 744.91,211.26 755.19,200.20 760.00,186.08 758.87,171.10 753.72,159.47 742.93,148.79 731.21,143.58 718.32,141.75 705.01,142.19 691.52,143.69 677.82,145.47 663.96,147.13 650.39,148.57 637.29,149.46 622.39,148.41 609.04,144.44 590.44,129.49 584.41,116.45 580.66,104.24 577.34,91.76 573.20,79.22 567.43,67.02 559.25,56.28 547.99,48.57 535.03,43.38 520.94,40.58 506.31,40.00 491.23,41.03 476.33,43.88 462.07,48.68 448.67,55.81 438.53,63.50 429.56,72.51 420.09,84.44 410.55,96.17 398.74,105.27 384.74,110.38 370.23,109.32 357.64,101.83 347.01,91.37 335.57,81.39 324.37,74.92 311.94,70.43 298.63,68.41 284.84,67.96 270.93,68.02 257.02,68.27 243.13,68.60 229.32,69.04 215.59,69.29 201.96,69.74 188.40,70.26 174.91,70.82 161.88,71.98 148.36,77.12 141.10,87.96 144.29,101.72 155.34,108.13 169.85,110.10 182.60,110.10 195.54,109.82 208.92,109.71 222.76,109.93 236.87,110.51 251.15,111.46 265.50,113.20 279.64,116.37 293.43,120.94 306.97,126.38 319.77,132.65 331.21,140.17 340.49,151.40 341.77,164.27 334.86,177.06 321.57,183.39 308.01,182.86 294.66,177.89 280.79,171.51 268.09,166.58 254.66,162.36 240.66,159.03 226.24,156.31 211.62,154.09 196.79,152.10 181.91,150.15 166.89,148.77 151.78,147.32 137.29,146.08 123.91,144.88 110.84,143.44 97.78,141.69 84.78,139.86 72.14,138.53 57.61,139.47 45.82,146.55 40.00,159.11 42.45,173.12 52.73,183.55 64.81,187.52 78.12,189.07 91.82,189.93 105.80,190.52 119.99,191.01 134.36,191.51 148.89,191.99 163.49,192.24 178.09,192.43 192.70,193.23 207.21,194.79 221.69,197.17 235.99,200.42 249.97,204.61 263.79,208.71 277.35,212.21 290.40,215.81 301.61,222.14 311.22,233.26 321.02,243.22 334.05,248.63 348.40,250.71 363.30,250.65 377.97,247.49 390.05,239.25 397.96,226.69 402.28,212.51 408.10,199.14 419.00,189.57 433.05,185.22 448.18,185.97 460.18,190.52 471.10,197.84 480.97,206.66 490.51,215.90 501.49,223.61 514.45,228.07 528.19,229.13 541.96,226.91 555.23,222.14 567.75,215.45 579.99,208.13 593.09,202.44 607.07,199.11 621.47,198.17 636.05,198.81 650.65,200.22 665.13,202.64 671.12,204.50"
        fill="none"
        stroke="#e94560"
        stroke-width="8.0"
        stroke-linejoin="round"
        stroke-linecap="round"/>
  <!-- Start/finish line -->
  <line x1="677.01" y1="185.38" x2="665.23" y2="223.61"
        stroke="#f5f5f5" stroke-width="9.6"
        stroke-linecap="round"/>
</svg>
