<?xml version="1.0" encoding="utf-8"?>
<svg xmlns="http://www.w3.org/2000/svg"
     width="639.9" height="800.0"
     viewBox="0 0 639.9 800.0">
  <rect width="100%" height="100%" fill="#1a1a2e"/>
  <!-- Track outline -->
  <polyline points="277.49,111.36 530.67,41.19 535.19,40.30 540.12,40.00 545.17,40.65 549.76,41.80 553.31,43.51 556.38,45.71 559.45,48.70 562.22,52.05 564.33,55.56 566.19,59.62 567.35,63.27 568.06,67.02 568.37,72.79 570.62,184.22 570.20,189.31 569.19,192.89 567.72,196.12 565.64,198.78 563.30,200.97 560.11,202.96 556.86,204.53 553.68,205.53 550.11,206.15 546.36,206.36 534.53,205.95 531.46,205.94 528.92,206.21 526.16,206.67 523.58,207.56 521.07,208.78 518.47,210.42 516.66,212.29 515.06,214.44 513.64,217.04 504.72,237.54 503.87,240.29 503.59,242.81 503.76,245.23 504.38,247.81 505.26,250.06 506.73,253.05 510.94,260.35 519.65,271.57 530.43,283.52 547.08,299.11 586.14,331.13 588.56,333.18 590.85,335.98 592.94,339.63 594.61,343.19 595.82,347.36 596.72,352.01 597.25,357.16 599.93,464.14 599.41,468.38 598.21,472.36 596.57,475.98 594.18,479.42 518.77,566.46 516.22,568.97 513.29,571.16 510.18,572.80 506.91,574.19 503.69,575.15 499.58,576.19 494.85,577.04 489.97,577.58 480.70,577.69 473.97,577.54 466.05,577.75 458.94,578.33 452.68,579.48 445.05,581.45 436.66,584.31 429.47,587.52 419.79,593.58 412.57,599.33 406.25,604.99 399.81,611.91 394.69,618.49 379.14,640.07 375.74,643.46 368.85,649.34 354.08,660.63 343.80,667.11 181.40,756.49 177.26,758.33 174.01,759.35 170.20,759.95 166.41,760.00 162.63,759.44 159.20,758.08 155.47,755.49 152.25,752.07 149.89,748.37 148.37,744.62 147.58,741.32 147.14,737.24 147.25,732.17 153.30,598.66 154.25,594.57 156.14,589.94 158.20,586.02 161.03,582.67 164.80,579.62 168.59,577.53 174.27,574.89 246.50,545.01 250.66,542.83 254.90,540.00 258.78,536.49 263.34,531.87 266.77,526.97 269.07,521.82 270.97,516.76 272.48,511.90 273.31,507.32 273.77,502.07 273.84,496.59 273.60,490.22 261.20,356.72 260.10,352.55 258.69,348.39 256.50,344.09 254.09,340.58 250.89,336.84 247.50,333.67 243.77,331.21 239.46,329.42 234.83,328.01 230.81,327.40 226.60,327.14 210.91,326.24 203.85,325.62 196.42,324.37 187.42,321.80 178.73,318.76 168.33,314.24 161.04,310.53 153.31,305.79 144.91,299.21 138.21,292.72 132.22,285.67 104.47,246.58 58.55,179.68 54.09,173.07 49.90,165.25 46.33,157.14 43.72,148.52 41.58,138.45 40.32,128.08 40.00,118.25 40.26,106.66 41.34,97.56 45.34,85.33 52.68,71.21 61.50,57.56 66.65,51.52 69.61,48.93 72.51,46.94 75.43,45.44 77.97,44.83 81.18,44.56 83.90,45.10 86.80,46.40 89.26,48.39 91.58,51.01 93.80,54.06 95.44,57.15 96.60,60.35 97.60,63.69 98.03,67.56 98.24,72.98 91.73,135.65 91.70,138.89 91.89,141.78 92.60,144.74 93.57,147.54 95.60,150.90 97.98,153.27 101.02,155.37 105.22,156.89 109.37,157.31 114.05,156.59 120.57,155.13 127.51,152.94 277.49,111.36"
        fill="none"
        stroke="#e94560"
        stroke-width="8.0"
        stroke-linejoin="round"
        stroke-linecap="round"/>
  <!-- Start/finish line -->
  <line x1="272.15" y1="92.09" x2="282.84" y2="130.63"
        stroke="#f5f5f5" stroke-width="9.6"
        stroke-linecap="round"/>
</svg>
