<?xml version="1.0" encoding="utf-8"?>
<svg xmlns="http://www.w3.org/2000/svg"
     width="358.5" height="800.0"
     viewBox="0 0 358.5 800.0">
  <rect width="100%" height="100%" fill="#1a1a2e"/>
  <!-- Track outline -->
  <polyline points="306.21,286.06 314.12,392.60 313.52,409.22 316.83,499.71 314.89,515.13 311.28,529.86 303.38,550.98 301.65,554.08 299.62,556.80 289.25,567.00 268.34,583.43 247.88,601.03 242.01,608.93 238.46,616.09 237.39,619.25 236.76,622.29 236.64,625.48 237.06,629.81 238.13,634.40 239.89,638.82 244.96,645.59 250.72,651.34 257.25,656.56 291.87,682.63 300.82,690.74 308.03,698.74 313.16,706.28 316.77,713.68 318.11,718.66 318.53,723.49 318.44,726.77 318.05,730.05 317.13,733.34 315.25,737.45 312.66,741.63 309.52,745.36 305.50,748.73 300.88,751.65 296.08,754.03 289.07,756.39 281.73,757.97 273.83,759.34 265.48,760.00 254.27,759.40 244.13,758.03 236.91,756.03 222.98,749.68 210.16,741.87 198.86,732.77 189.64,722.72 172.14,697.60 165.49,685.46 155.47,669.12 143.93,653.67 139.45,649.70 134.98,646.75 130.36,644.54 122.96,642.75 116.31,642.16 113.87,642.16 111.42,642.52 96.12,646.93 79.93,654.18 63.71,660.29 58.19,660.92 53.18,660.71 48.83,659.87 47.01,659.34 45.28,658.68 43.70,657.91 42.33,656.89 41.28,655.67 40.51,653.79 40.09,651.52 40.00,649.02 40.18,646.48 40.51,644.07 42.53,638.07 45.19,632.91 47.87,629.09 57.09,618.59 79.75,598.01 87.65,589.69 94.30,580.75 100.24,567.77 104.06,555.60 104.77,551.81 104.86,547.07 85.36,290.03 85.48,274.13 86.88,263.40 89.65,252.81 92.28,246.75 95.56,241.12 99.14,236.91 101.16,235.51 103.31,234.56 105.52,233.93 107.75,233.54 110.94,233.45 114.23,233.87 117.06,234.58 119.35,235.57 121.44,237.03 125.23,240.31 129.14,244.55 133.73,250.66 137.84,257.43 140.83,263.90 143.12,270.64 145.95,285.74 147.30,302.41 147.68,365.13 159.94,476.56 163.88,489.93 171.36,507.70 180.76,525.06 184.96,530.52 189.29,534.96 193.61,538.09 195.88,539.17 198.14,539.85 200.47,540.18 202.85,540.21 205.78,539.85 208.91,539.08 211.92,537.92 214.54,536.48 217.26,534.19 219.52,531.41 221.40,528.61 223.07,525.48 224.41,521.78 227.01,511.76 228.92,500.66 229.13,485.66 211.56,248.01 205.60,215.50 198.47,192.11 193.43,182.12 187.47,174.31 179.47,167.42 171.60,162.32 168.50,160.74 165.07,159.48 136.86,151.40 126.18,147.08 116.88,142.30 110.94,138.31 105.82,133.62 100.15,126.50 95.68,118.89 93.74,113.79 92.72,108.78 92.28,103.71 92.66,98.43 94.48,91.06 97.79,83.34 104.35,73.64 112.56,64.73 121.14,58.07 130.06,52.86 143.96,47.25 158.93,43.04 174.97,40.69 191.55,40.00 207.71,40.57 223.22,42.98 234.14,46.20 244.60,50.38 251.25,54.14 257.16,58.40 268.34,69.14 273.26,75.40 281.52,89.72 287.67,105.83 291.33,118.77 298.04,175.83 306.21,286.06"
        fill="none"
        stroke="#e94560"
        stroke-width="8.0"
        stroke-linejoin="round"
        stroke-linecap="round"/>
  <!-- Start/finish line -->
  <line x1="326.16" y1="284.59" x2="286.27" y2="287.54"
        stroke="#f5f5f5" stroke-width="9.6"
        stroke-linecap="round"/>
</svg>
