<?xml version="1.0" encoding="utf-8"?>
<svg xmlns="http://www.w3.org/2000/svg"
     width="400.8" height="800.0"
     viewBox="0 0 400.8 800.0">
  <rect width="100%" height="100%" fill="#1a1a2e"/>
  <!-- Track outline -->
  <polyline points="73.81,337.13 70.02,365.93 42.05,591.21 40.00,616.73 41.22,638.88 44.59,661.17 49.11,676.26 55.60,690.24 67.70,708.46 81.63,724.73 92.72,734.87 104.53,742.99 120.37,751.03 136.69,756.81 149.11,759.27 162.17,760.00 185.38,758.82 208.51,755.26 221.85,751.30 233.83,746.04 244.83,739.94 255.42,732.13 267.58,720.27 279.12,705.79 290.74,686.62 300.24,666.34 304.62,653.45 308.26,636.03 340.30,399.08 360.81,162.83 358.42,146.05 354.09,133.75 346.19,115.70 336.64,98.92 328.42,87.54 319.11,77.57 305.03,66.02 290.08,56.28 278.80,50.43 266.75,46.10 245.52,41.73 224.15,40.00 211.88,41.05 200.29,43.78 186.22,48.61 171.94,55.39 156.20,65.38 141.66,76.75 132.37,85.37 124.01,95.19 113.72,111.01 105.14,127.54 101.65,136.17 98.79,147.30 73.81,337.13"
        fill="none"
        stroke="#e94560"
        stroke-width="8.0"
        stroke-linejoin="round"
        stroke-linecap="round"/>
  <!-- Start/finish line -->
  <line x1="93.64" y1="339.74" x2="53.98" y2="334.52"
        stroke="#f5f5f5" stroke-width="9.6"
        stroke-linecap="round"/>
</svg>
