<?xml version="1.0" encoding="utf-8"?>
<svg xmlns="http://www.w3.org/2000/svg"
     width="800.0" height="763.6"
     viewBox="0 0 800.0 763.6">
  <rect width="100%" height="100%" fill="#1a1a2e"/>
  <!-- Track outline -->
  <polyline points="380.41,669.80 686.03,564.63 708.18,551.92 723.78,538.09 734.26,525.24 743.61,510.49 750.94,495.15 755.72,480.79 758.92,465.84 760.00,451.28 758.87,438.11 755.96,425.20 751.44,413.15 744.50,400.90 735.74,389.64 725.94,379.83 714.92,371.20 702.76,364.22 688.74,358.36 649.02,351.18 606.21,345.85 572.45,338.80 539.62,328.52 506.45,312.26 468.01,288.09 203.29,90.05 171.55,66.15 145.76,50.08 131.49,44.48 117.66,41.12 104.42,40.00 93.00,40.86 82.08,43.49 71.94,47.84 65.30,51.92 58.95,56.86 53.29,62.59 48.61,68.98 45.22,75.56 42.46,82.87 40.64,90.51 40.00,98.28 41.23,109.55 44.82,121.14 50.58,134.05 82.42,179.82 124.50,233.49 229.77,384.77 257.62,425.27 277.11,460.04 281.00,472.23 283.02,483.49 283.12,494.49 281.74,503.05 279.18,511.61 275.69,519.71 271.55,526.76 266.58,532.82 260.77,538.09 254.52,542.37 248.27,545.33 242.42,546.98 236.31,547.57 230.31,547.17 224.65,545.66 218.06,541.84 211.95,536.11 205.46,529.39 190.40,510.23 174.26,491.85 164.71,485.46 154.91,480.99 145.02,478.48 137.54,477.82 129.86,478.15 122.43,479.54 115.69,482.17 110.18,485.53 105.11,488.82 99.55,493.43 93.74,499.89 88.48,511.54 84.19,527.81 82.37,543.81 82.37,560.41 84.19,580.43 86.65,594.85 93.40,626.80 106.93,660.98 115.25,675.93 124.75,688.90 135.13,699.70 146.01,708.00 157.77,714.26 170.27,718.87 184.84,722.29 200.34,723.61 218.15,722.62 270.22,708.59 336.51,684.88 380.41,669.80"
        fill="none"
        stroke="#e94560"
        stroke-width="8.0"
        stroke-linejoin="round"
        stroke-linecap="round"/>
  <!-- Start/finish line -->
  <line x1="373.91" y1="650.89" x2="386.92" y2="688.71"
        stroke="#f5f5f5" stroke-width="9.6"
        stroke-linecap="round"/>
</svg>
