<?xml version="1.0" encoding="utf-8"?>
<svg xmlns="http://www.w3.org/2000/svg"
     width="800.0" height="624.2"
     viewBox="0 0 800.0 624.2">
  <rect width="100%" height="100%" fill="#1a1a2e"/>
  <!-- Track outline -->
  <polyline points="365.50,518.39 510.30,465.45 665.74,410.15 695.35,393.57 718.78,375.18 730.81,362.69 741.28,349.10 749.58,334.59 754.92,320.72 758.50,306.08 760.00,291.72 759.38,278.60 756.94,265.77 752.90,253.90 746.83,243.08 739.00,233.44 729.98,224.35 716.50,212.83 701.15,202.21 685.81,194.24 672.64,189.93 659.47,187.85 646.56,187.92 634.27,190.00 622.19,194.24 610.21,200.83 589.11,219.28 567.75,244.33 537.63,290.54 508.13,334.39 496.57,346.60 485.52,356.03 474.12,363.04 465.46,366.58 456.44,368.87 447.52,369.98 439.22,369.84 432.53,368.80 425.95,366.86 420.04,364.08 415.22,360.33 412.78,357.42 410.65,354.09 408.89,350.41 407.70,346.60 407.18,342.64 405.68,332.93 404.74,316.14 406.66,282.00 413.30,238.50 415.79,188.89 415.48,143.10 411.95,126.52 406.87,112.16 400.18,98.90 390.90,85.38 379.75,73.10 367.93,62.76 355.80,54.50 342.99,48.12 329.72,43.54 315.41,40.76 300.69,40.00 286.17,41.25 272.02,44.58 258.07,49.99 245.00,57.28 233.13,66.16 222.09,76.84 212.39,88.91 204.30,102.17 197.46,116.74 192.79,131.51 190.62,144.42 190.10,157.46 191.39,170.85 199.64,196.59 212.29,223.10 232.15,255.22 249.88,287.21 254.49,302.75 257.08,317.94 257.45,332.44 255.58,345.14 251.85,357.28 246.82,367.90 242.26,374.56 236.86,380.46 230.95,385.38 224.89,389.06 218.77,391.42 212.39,392.74 205.81,392.87 199.22,391.97 189.11,388.16 178.79,381.77 168.27,373.59 154.22,358.53 139.75,340.49 125.29,326.34 113.67,319.75 102.01,315.65 90.81,313.78 83.60,313.57 76.50,314.33 69.76,316.14 63.54,319.19 57.84,323.63 52.50,329.32 47.83,335.91 44.20,343.13 41.19,353.67 40.00,367.83 42.13,386.49 54.41,450.11 59.13,473.84 66.60,500.42 78.31,528.65 90.55,545.72 100.66,556.89 112.38,566.47 124.10,573.89 136.38,578.82 149.24,582.29 162.05,584.16 175.37,584.02 192.95,581.38 365.50,518.39"
        fill="none"
        stroke="#e94560"
        stroke-width="8.0"
        stroke-linejoin="round"
        stroke-linecap="round"/>
  <!-- Start/finish line -->
  <line x1="358.63" y1="499.60" x2="372.36" y2="537.17"
        stroke="#f5f5f5" stroke-width="9.6"
        stroke-linecap="round"/>
</svg>
