<?xml version="1.0" encoding="utf-8"?>
<svg xmlns="http://www.w3.org/2000/svg"
     width="800.0" height="599.9"
     viewBox="0 0 800.0 599.9">
  <rect width="100%" height="100%" fill="#1a1a2e"/>
  <!-- Track outline -->
  <polyline points="251.58,94.56 438.90,47.74 457.06,44.20 475.44,41.55 493.91,40.12 512.53,40.00 531.15,41.21 549.49,43.88 567.53,48.13 584.91,54.20 601.51,61.87 617.17,71.09 631.54,81.74 644.69,93.56 668.18,120.21 689.49,148.58 726.11,209.01 741.68,240.82 748.03,257.35 753.00,274.38 756.81,291.64 759.21,309.23 760.00,326.93 759.16,344.74 756.81,362.43 752.83,379.88 747.30,397.06 740.27,413.95 731.94,430.43 712.50,461.74 701.94,476.13 669.32,513.02 648.65,532.31 638.41,540.46 627.92,547.38 616.95,552.79 605.61,556.77 594.06,559.20 582.51,559.85 571.01,558.50 559.60,555.12 548.54,550.03 537.99,543.23 528.09,535.15 518.60,526.10 393.51,381.94 385.68,371.46 379.04,360.85 373.64,350.10 369.71,339.08 367.40,327.90 366.59,320.28 366.59,313.00 367.49,306.30 369.39,298.85 376.00,286.52 383.65,277.30 389.05,272.78 396.47,268.29 401.94,265.74 407.82,263.27 413.95,261.47 420.34,260.45 426.84,260.11 433.38,260.41 439.90,261.28 446.57,262.74 453.12,264.82 459.52,267.57 465.63,270.94 471.47,274.97 476.98,279.55 487.17,290.18 493.74,299.62 515.76,342.63 562.76,434.17 569.78,444.24 573.65,448.46 577.97,452.30 583.41,456.25 589.33,459.58 595.27,461.88 601.39,463.24 605.48,463.56 609.58,463.41 613.58,462.76 617.43,461.57 621.15,459.87 624.65,457.78 629.48,453.92 633.67,449.29 637.10,443.83 639.86,437.86 642.05,431.50 643.67,425.09 645.21,413.88 646.86,278.19 643.60,255.09 640.32,244.29 634.13,230.97 626.06,219.05 616.17,208.35 610.57,203.76 604.57,199.69 591.49,193.09 580.88,189.71 569.80,187.99 558.30,187.72 511.43,193.69 499.74,194.06 487.98,193.09 476.34,190.63 465.10,186.46 422.18,162.31 410.46,157.63 398.20,154.64 386.79,153.09 372.35,152.75 333.30,157.80 289.71,166.63 223.68,186.34 211.58,192.16 202.36,197.82 193.22,205.00 188.10,210.10 183.32,215.75 179.29,221.65 175.90,227.86 173.23,234.34 171.18,241.09 169.70,248.05 168.83,255.19 168.96,269.89 171.66,295.26 171.59,309.04 170.78,315.74 169.38,322.31 167.34,328.75 164.63,334.89 161.21,340.52 157.13,345.69 152.39,350.34 147.12,354.42 141.39,357.87 135.27,360.61 128.81,362.50 122.14,363.57 115.30,363.77 108.44,363.13 101.54,361.63 94.82,359.30 88.19,356.02 82.10,352.21 73.50,344.96 65.68,336.39 58.56,326.88 52.31,316.34 47.27,304.99 43.45,292.80 40.92,279.99 40.00,266.62 40.68,252.83 42.96,239.05 46.80,225.68 52.15,212.50 58.98,199.76 66.96,187.50 76.05,175.88 86.37,164.96 97.79,154.84 110.19,145.62 123.40,137.51 137.38,130.38 167.27,118.19 247.97,95.45 251.58,94.56"
        fill="none"
        stroke="#e94560"
        stroke-width="8.0"
        stroke-linejoin="round"
        stroke-linecap="round"/>
  <!-- Start/finish line -->
  <line x1="246.73" y1="75.15" x2="256.42" y2="113.96"
        stroke="#f5f5f5" stroke-width="9.6"
        stroke-linecap="round"/>
</svg>
