<?xml version="1.0" encoding="utf-8"?>
<svg xmlns="http://www.w3.org/2000/svg"
     width="765.3" height="800.0"
     viewBox="0 0 765.3 800.0">
  <rect width="100%" height="100%" fill="#1a1a2e"/>
  <!-- Track outline -->
  <polyline points="224.71,593.28 323.16,691.09 367.23,723.77 391.14,737.61 415.77,748.60 438.67,754.61 461.85,757.96 508.81,760.00 556.05,753.99 578.95,748.19 600.98,739.85 621.42,727.74 640.78,713.59 659.78,699.24 677.12,683.26 691.35,664.43 703.19,643.36 714.10,618.02 721.90,591.25 725.30,564.78 725.30,538.02 722.19,510.03 716.34,482.85 710.27,461.88 700.16,438.88 655.66,364.78 590.72,278.88 480.93,170.18 373.01,82.85 302.21,48.14 276.79,42.75 250.93,40.10 224.63,40.00 198.70,43.56 173.20,52.62 149.15,65.45 127.69,80.51 108.62,98.02 93.17,116.54 79.73,136.59 67.45,158.27 57.12,181.17 48.52,206.01 42.60,231.86 40.00,258.63 40.58,285.70 44.84,313.38 51.70,340.25 68.32,384.83 88.54,425.45 119.03,473.18 220.73,589.31 224.71,593.28"
        fill="none"
        stroke="#e94560"
        stroke-width="8.0"
        stroke-linejoin="round"
        stroke-linecap="round"/>
  <!-- Start/finish line -->
  <line x1="238.80" y1="579.10" x2="210.61" y2="607.47"
        stroke="#f5f5f5" stroke-width="9.6"
        stroke-linecap="round"/>
</svg>
