<?xml version="1.0" encoding="utf-8"?>
<svg xmlns="http://www.w3.org/2000/svg"
     width="659.4" height="800.0"
     viewBox="0 0 659.4 800.0">
  <rect width="100%" height="100%" fill="#1a1a2e"/>
  <!-- Track outline -->
  <polyline points="343.26,552.26 342.19,579.38 342.15,593.74 344.06,639.99 347.36,659.12 353.88,676.97 356.85,682.58 364.14,692.90 370.52,699.64 377.89,706.10 385.62,711.61 394.47,716.56 425.60,728.01 529.31,757.56 549.59,760.00 562.50,759.56 568.71,758.51 580.48,754.80 586.04,752.22 591.26,749.11 596.10,745.55 600.51,741.55 608.00,732.50 611.06,727.56 615.82,717.02 618.77,705.73 619.44,699.95 619.28,688.38 618.40,682.70 615.19,671.72 612.82,666.48 606.69,656.73 600.64,650.01 594.61,644.22 589.98,640.63 574.61,631.58 551.48,622.74 506.66,611.48 484.94,604.69 480.07,602.65 475.69,600.21 471.71,597.45 467.96,594.46 464.48,591.17 461.34,587.60 458.46,583.83 455.85,579.79 453.58,575.45 451.66,570.86 450.05,566.01 448.79,560.95 447.97,555.65 447.68,550.30 447.84,544.88 448.34,539.37 449.31,533.87 450.84,528.46 452.94,523.14 455.59,517.94 458.72,512.86 462.35,508.06 470.70,499.01 487.72,481.46 491.07,476.65 493.69,471.56 495.61,466.23 496.96,460.69 497.65,454.96 497.58,449.14 496.94,443.27 495.59,437.47 479.33,401.85 474.25,389.94 469.51,374.71 467.34,366.02 465.19,358.77 464.08,356.75 462.86,355.24 461.59,353.94 459.91,352.75 454.72,350.68 448.90,348.49 441.44,344.02 435.52,339.38 432.55,336.58 429.64,333.34 426.87,329.57 424.45,325.41 422.38,320.98 420.88,316.22 419.99,311.24 419.51,306.05 419.47,300.71 419.98,295.22 421.09,289.65 422.77,284.00 424.95,278.32 427.68,272.65 431.05,267.09 434.93,261.65 439.36,256.37 444.35,251.31 449.84,246.49 480.26,223.37 494.52,208.66 498.07,203.82 501.05,198.83 503.16,193.64 504.50,188.25 505.27,182.72 505.00,171.38 504.03,165.65 502.21,160.01 497.12,148.88 492.25,141.14 485.91,132.83 460.51,107.37 420.70,71.35 403.18,59.02 384.14,49.66 374.26,46.37 363.33,43.86 324.96,40.00 246.82,40.11 228.13,42.43 222.31,43.96 205.87,51.01 200.70,54.10 181.37,69.42 159.10,92.49 93.82,159.81 63.08,191.73 46.91,212.35 44.09,217.38 42.14,222.37 40.81,227.45 40.09,232.58 40.00,237.35 40.45,242.82 42.17,250.73 44.82,259.05 52.79,276.00 61.67,299.67 65.86,309.44 67.73,315.02 70.91,327.30 73.45,340.96 75.23,355.99 83.09,489.18 88.35,533.72 91.13,556.84 93.21,565.29 94.82,569.28 97.01,573.02 99.71,576.50 102.96,579.61 106.79,582.31 110.81,584.58 115.73,586.81 123.24,589.23 132.36,591.29 171.35,595.62 190.91,595.38 194.62,594.79 196.73,594.18 198.79,593.33 200.68,592.26 202.42,590.96 204.01,589.45 205.41,587.76 206.56,585.87 207.49,583.84 208.21,581.85 208.75,579.46 209.50,563.84 209.26,554.79 209.74,550.08 210.85,545.25 212.66,540.32 214.86,535.19 217.56,529.97 231.28,507.98 241.00,488.56 246.16,474.02 248.07,466.39 251.37,433.81 252.20,380.35 251.62,314.27 250.53,237.73 250.09,202.64 246.81,169.87 245.81,159.15 246.00,149.54 246.57,144.96 247.64,140.45 249.33,136.09 251.55,131.96 254.32,128.05 257.57,124.49 261.51,121.52 265.81,119.11 268.06,118.19 270.35,117.48 272.59,117.02 274.84,116.78 279.36,116.87 283.86,117.63 288.31,119.02 292.78,120.94 297.26,123.34 310.23,131.99 318.93,138.65 323.46,142.54 327.88,146.76 331.94,151.26 335.54,156.26 338.65,161.80 341.20,167.83 343.19,174.27 344.85,181.07 346.13,188.16 347.08,195.56 347.57,203.21 346.67,243.78 344.97,386.08 345.13,448.84 343.93,535.43 343.26,552.26"
        fill="none"
        stroke="#e94560"
        stroke-width="8.0"
        stroke-linejoin="round"
        stroke-linecap="round"/>
  <!-- Start/finish line -->
  <line x1="363.24" y1="553.05" x2="323.28" y2="551.47"
        stroke="#f5f5f5" stroke-width="9.6"
        stroke-linecap="round"/>
</svg>
