<?xml version="1.0" encoding="utf-8"?>
<svg xmlns="http://www.w3.org/2000/svg"
     width="793.6" height="800.0"
     viewBox="0 0 793.6 800.0">
  <rect width="100%" height="100%" fill="#1a1a2e"/>
  <!-- Track outline -->
  <polyline points="235.06,611.09 307.54,668.02 356.53,702.43 406.99,730.78 460.93,747.37 513.06,756.45 549.40,760.00 582.09,759.53 604.72,756.27 626.70,749.52 658.44,733.86 687.43,714.71 701.20,702.48 712.25,688.98 721.28,673.67 729.16,654.57 742.66,611.20 752.21,558.23 753.59,478.42 747.22,415.83 737.11,380.79 727.91,358.67 700.25,316.58 671.60,283.80 615.73,222.85 504.33,119.29 452.80,83.14 405.35,58.40 371.24,47.16 338.17,41.69 303.24,40.00 251.97,44.66 200.01,55.31 159.71,72.25 127.88,93.44 102.28,118.07 83.62,140.19 68.04,165.63 55.36,194.62 46.19,227.80 40.00,277.34 40.26,329.79 48.86,380.91 62.75,425.50 73.29,446.22 92.91,476.32 212.31,593.21 235.06,611.09"
        fill="none"
        stroke="#e94560"
        stroke-width="8.0"
        stroke-linejoin="round"
        stroke-linecap="round"/>
  <!-- Start/finish line -->
  <line x1="247.42" y1="595.36" x2="222.71" y2="626.81"
        stroke="#f5f5f5" stroke-width="9.6"
        stroke-linecap="round"/>
</svg>
