<?xml version="1.0" encoding="utf-8"?>
<svg xmlns="http://www.w3.org/2000/svg"
     width="389.9" height="800.0"
     viewBox="0 0 389.9 800.0">
  <rect width="100%" height="100%" fill="#1a1a2e"/>
  <!-- Track outline -->
  <polyline points="308.40,356.94 303.65,317.36 300.13,292.11 295.91,274.80 288.91,258.78 279.22,244.47 263.70,225.44 255.40,212.32 252.61,206.37 250.44,200.42 249.01,195.09 248.21,189.86 248.11,185.36 248.59,180.83 249.85,175.04 251.80,169.35 254.44,164.34 257.66,159.68 261.88,154.56 266.46,149.95 270.62,146.56 274.93,143.73 279.49,141.33 284.50,139.36 300.28,135.89 316.45,131.80 322.36,129.14 327.77,125.81 332.74,121.75 337.34,116.86 342.03,110.37 345.93,103.43 348.08,98.12 349.44,92.73 349.92,87.08 349.67,81.39 348.75,75.80 347.18,70.39 344.87,65.15 341.96,60.30 338.38,55.76 334.31,51.76 329.65,48.22 324.62,45.34 319.15,43.14 313.31,41.58 305.83,40.38 298.41,40.00 293.31,40.38 288.00,41.57 278.16,45.01 265.50,51.07 171.51,111.11 118.30,147.14 110.26,154.34 104.15,161.36 99.58,168.35 95.54,176.23 85.47,202.15 77.46,215.66 54.23,247.60 48.84,257.86 44.86,267.88 42.11,277.63 40.46,287.15 40.00,294.54 40.36,301.63 41.56,308.72 43.50,315.46 46.02,321.26 49.14,326.51 52.75,331.23 57.04,335.45 63.17,339.76 70.58,343.81 100.54,356.82 117.57,366.88 133.58,379.07 144.05,389.61 151.72,400.25 154.85,406.13 157.48,412.36 160.93,425.63 162.69,443.21 164.04,476.72 168.27,508.39 168.42,527.18 166.19,544.13 161.13,562.44 143.10,608.49 140.01,620.78 138.28,632.05 137.58,642.23 137.98,651.88 139.54,659.72 142.08,667.27 146.15,676.28 151.18,684.78 156.78,691.88 163.04,698.02 169.71,703.02 177.56,707.53 212.32,722.03 233.23,731.41 270.58,751.38 283.20,755.85 294.94,758.63 304.86,759.88 314.06,760.00 320.97,759.24 327.20,757.77 331.84,756.08 335.97,753.93 339.15,751.72 341.94,749.05 344.42,745.70 346.37,741.87 347.55,738.10 348.19,733.38 346.47,697.78 331.88,580.91 325.71,527.10 308.65,358.99 308.40,356.94"
        fill="none"
        stroke="#e94560"
        stroke-width="8.0"
        stroke-linejoin="round"
        stroke-linecap="round"/>
  <!-- Start/finish line -->
  <line x1="288.54" y1="359.32" x2="328.26" y2="354.55"
        stroke="#f5f5f5" stroke-width="9.6"
        stroke-linecap="round"/>
</svg>
