<?xml version="1.0" encoding="utf-8"?>
<svg xmlns="http://www.w3.org/2000/svg"
     width="441.3" height="800.0"
     viewBox="0 0 441.3 800.0">
  <rect width="100%" height="100%" fill="#1a1a2e"/>
  <!-- Track outline -->
  <polyline points="50.28,390.54 40.00,603.49 43.61,638.10 48.76,654.84 56.69,672.72 69.40,691.11 96.38,720.00 110.21,731.22 130.72,743.64 147.65,751.23 157.37,754.69 168.51,757.45 192.97,759.69 216.69,760.00 224.75,759.48 232.53,758.07 268.95,746.33 283.24,739.33 310.54,718.55 316.25,713.41 321.89,706.95 342.96,675.89 363.15,640.10 369.85,622.74 373.80,607.49 375.67,589.47 401.28,189.16 398.40,165.69 394.29,149.99 388.38,135.32 380.45,119.31 369.50,104.43 346.62,82.21 332.92,71.23 317.45,61.40 293.42,50.97 267.59,43.52 242.51,40.45 220.35,40.00 202.61,41.52 167.31,51.39 151.74,58.40 124.21,75.17 117.50,80.62 111.20,87.18 98.27,103.71 86.20,121.97 80.89,131.94 76.48,143.16 68.34,170.35 61.15,206.04 51.06,374.70 50.28,390.54"
        fill="none"
        stroke="#e94560"
        stroke-width="8.0"
        stroke-linejoin="round"
        stroke-linecap="round"/>
  <!-- Start/finish line -->
  <line x1="70.26" y1="391.51" x2="30.31" y2="389.58"
        stroke="#f5f5f5" stroke-width="9.6"
        stroke-linecap="round"/>
</svg>
