<?xml version="1.0" encoding="utf-8"?>
<svg xmlns="http://www.w3.org/2000/svg"
     width="800.0" height="454.2"
     viewBox="0 0 800.0 454.2">
  <rect width="100%" height="100%" fill="#1a1a2e"/>
  <!-- Track outline -->
  <polyline points="512.88,147.92 596.23,166.93 699.59,189.57 723.72,196.38 731.64,200.23 738.76,205.09 744.92,210.78 750.33,217.62 754.45,224.99 757.57,233.26 759.38,241.69 760.00,250.84 758.89,262.90 756.02,275.41 749.94,290.45 741.43,305.89 705.42,355.27 677.17,384.61 667.02,392.37 656.99,398.43 645.77,403.82 634.20,408.03 622.00,411.19 609.60,413.20 597.10,414.17 584.08,413.90 567.22,411.72 549.82,407.73 516.16,394.44 450.63,362.87 390.49,329.76 381.45,322.78 375.26,315.97 371.21,309.72 368.25,302.77 366.50,295.34 365.85,287.50 366.47,279.40 368.31,271.25 372.77,260.28 378.51,250.28 384.17,243.25 390.33,237.70 397.32,233.09 404.71,229.77 412.62,227.65 420.64,226.89 428.66,227.45 436.53,229.38 443.75,232.42 450.82,237.05 458.79,244.48 466.39,254.25 473.45,267.82 480.00,283.14 486.57,300.70 493.11,316.36 498.04,323.51 503.29,328.87 509.68,334.00 516.87,338.13 527.57,342.24 539.22,344.83 551.89,345.73 564.84,344.83 578.21,342.13 591.35,337.44 603.53,330.96 615.06,322.25 625.67,311.08 635.08,297.96 642.39,284.34 647.41,271.05 648.31,266.64 648.67,262.54 648.52,258.58 647.75,254.50 646.41,250.59 644.71,247.05 642.30,243.50 639.40,240.43 636.27,237.83 632.62,235.55 628.69,233.81 624.70,232.67 620.62,232.03 616.47,231.94 612.22,232.53 607.52,233.90 602.71,236.02 597.57,239.12 589.49,246.15 580.80,254.89 573.02,261.51 568.87,263.71 565.13,264.97 561.30,265.72 557.11,266.11 552.85,265.92 548.42,265.14 542.94,263.52 537.25,261.06 531.56,257.63 522.70,249.48 513.05,238.81 474.49,194.45 459.64,182.48 445.30,173.66 432.51,167.77 420.28,164.03 410.52,162.52 401.12,162.46 391.75,163.66 382.62,166.29 374.23,170.17 366.35,175.47 359.92,181.25 353.73,189.35 344.18,210.39 335.13,232.42 330.06,242.44 324.90,250.76 318.09,258.94 310.56,265.92 301.87,272.06 292.62,276.97 282.70,280.88 272.03,283.64 258.85,285.60 241.76,286.35 149.75,284.73 64.22,277.78 58.10,275.99 53.79,274.04 50.11,271.42 47.36,268.85 44.98,265.92 43.02,262.51 41.59,258.94 40.53,255.00 40.00,250.95 40.09,246.77 40.71,242.47 41.84,238.20 45.60,230.13 51.26,221.59 68.01,202.24 85.31,180.75 93.11,166.09 98.90,149.34 103.52,118.30 106.70,88.40 108.45,77.24 110.75,68.14 113.42,62.19 116.69,56.86 120.18,52.34 123.67,48.93 127.38,46.28 131.27,44.13 135.70,42.26 140.33,40.95 145.03,40.17 152.50,40.00 160.01,41.14 167.38,43.55 174.48,47.26 180.84,51.98 186.56,57.98 191.02,64.62 194.47,72.30 196.45,80.14 197.17,88.71 195.95,99.96 192.92,111.60 186.61,125.56 178.02,139.94 159.92,164.25 144.62,186.47 142.97,190.80 142.01,194.65 141.63,198.53 141.77,202.55 142.44,206.63 143.59,210.53 146.14,215.67 149.58,220.56 153.24,224.71 156.76,227.84 160.49,230.24 164.57,232.22 173.19,234.88 183.30,236.08 202.61,235.27 222.07,232.25 232.90,229.32 242.13,225.36 248.27,221.45 253.61,216.59 258.03,211.09 261.64,204.64 263.38,200.37 264.74,195.74 265.45,190.10 262.63,167.99 258.59,144.63 257.69,132.96 258.06,122.96 259.24,117.77 261.00,113.11 263.14,108.87 265.99,104.54 269.30,100.72 272.90,97.37 279.47,92.87 286.59,89.61 294.43,87.37 302.88,86.40 314.03,86.65 326.95,88.68 380.57,106.21 512.88,147.92"
        fill="none"
        stroke="#e94560"
        stroke-width="8.0"
        stroke-linejoin="round"
        stroke-linecap="round"/>
  <!-- Start/finish line -->
  <line x1="518.30" y1="128.67" x2="507.46" y2="167.17"
        stroke="#f5f5f5" stroke-width="9.6"
        stroke-linecap="round"/>
</svg>
