<?xml version="1.0" encoding="utf-8"?>
<svg xmlns="http://www.w3.org/2000/svg"
     width="399.3" height="800.0"
     viewBox="0 0 399.3 800.0">
  <rect width="100%" height="100%" fill="#1a1a2e"/>
  <!-- Track outline -->
  <polyline points="176.29,590.96 116.52,386.30 115.64,382.74 115.35,380.12 115.76,376.94 116.56,373.07 120.45,343.70 120.63,340.03 120.44,336.94 118.38,329.30 40.23,54.26 40.00,51.93 40.03,50.38 40.29,48.95 40.89,47.22 41.79,45.64 42.77,44.30 43.87,43.20 45.07,42.34 46.33,41.62 47.74,40.91 49.20,40.36 50.75,40.05 52.48,40.00 54.31,40.27 56.73,40.90 77.87,49.44 99.13,59.63 105.62,64.09 108.97,66.80 112.11,69.90 116.59,76.62 119.95,82.67 123.31,91.64 204.07,368.25 206.84,374.47 208.44,377.19 210.26,379.63 212.90,382.18 215.84,384.35 222.50,387.79 349.71,448.60 352.95,450.25 355.11,451.81 356.52,453.18 357.80,454.76 358.72,456.58 359.11,458.28 359.28,460.15 359.23,461.98 358.66,464.76 357.69,467.38 356.32,469.97 354.73,472.27 352.99,474.31 351.12,476.14 349.25,477.89 346.62,479.61 317.76,487.45 288.90,494.10 286.33,494.89 284.43,495.75 282.54,496.96 280.33,498.94 258.98,525.16 256.77,527.50 254.84,529.15 252.49,530.72 249.38,532.09 230.13,536.11 211.15,539.40 209.23,539.76 207.81,540.06 206.51,540.73 205.58,541.50 204.68,542.45 203.90,543.57 203.32,544.85 202.90,547.53 202.79,550.56 202.59,558.21 204.68,574.07 206.55,581.83 231.20,664.61 252.61,745.35 252.56,747.69 252.21,749.27 251.71,750.69 251.04,752.23 250.20,753.58 249.24,754.78 247.20,756.49 245.02,757.77 243.21,758.58 241.34,759.16 238.80,759.72 236.26,760.00 234.51,759.94 232.78,759.60 230.34,758.85 227.91,757.60 226.67,756.83 225.51,755.84 224.10,753.65 203.73,688.66 176.29,590.96"
        fill="none"
        stroke="#e94560"
        stroke-width="8.0"
        stroke-linejoin="round"
        stroke-linecap="round"/>
  <!-- Start/finish line -->
  <line x1="157.07" y1="596.50" x2="195.51" y2="585.42"
        stroke="#f5f5f5" stroke-width="9.6"
        stroke-linecap="round"/>
</svg>
