<?xml version="1.0" encoding="utf-8"?>
<svg xmlns="http://www.w3.org/2000/svg"
     width="800.0" height="572.5"
     viewBox="0 0 800.0 572.5">
  <rect width="100%" height="100%" fill="#1a1a2e"/>
  <!-- Track outline -->
  <polyline points="106.25,321.55 89.44,301.42 74.46,280.11 61.12,257.61 51.01,234.75 44.00,211.08 40.40,187.85 40.00,165.15 41.20,153.98 43.37,143.02 46.54,132.42 50.64,122.16 61.72,102.76 76.20,84.34 93.71,68.44 114.33,55.20 136.44,45.71 158.43,40.61 169.67,40.00 183.68,41.83 193.62,45.42 203.06,50.80 217.24,64.12 222.78,73.50 227.08,83.60 230.12,93.10 232.12,102.84 232.82,124.72 231.55,143.63 228.18,164.41 218.54,209.16 217.27,231.41 217.97,242.09 219.57,252.52 222.21,262.54 225.68,272.28 234.72,290.34 246.16,307.21 258.84,323.26 274.05,337.53 289.73,348.65 310.41,359.53 321.39,363.24 332.73,365.69 344.47,366.79 356.12,366.34 366.99,364.10 377.30,360.23 386.81,354.77 395.48,348.04 403.12,340.34 409.86,331.66 415.56,321.19 421.13,310.51 427.47,300.85 434.74,292.13 443.25,284.96 452.72,278.97 463.27,274.12 474.44,270.53 486.62,268.21 498.73,267.27 508.64,267.76 518.31,269.27 538.86,274.77 560.31,284.06 582.36,296.08 659.15,350.61 713.00,396.25 727.67,411.25 743.32,429.63 749.39,439.00 754.33,448.66 757.73,457.99 759.67,467.73 760.00,475.31 759.50,483.09 757.80,490.47 754.73,497.11 750.49,503.31 745.72,508.73 738.15,514.80 729.54,519.65 718.70,524.09 707.36,527.47 687.41,531.06 665.09,532.48 641.34,532.36 499.46,515.53 389.11,492.22 297.00,459.66 255.77,440.10 200.76,406.68 168.10,381.66 106.25,321.55"
        fill="none"
        stroke="#e94560"
        stroke-width="8.0"
        stroke-linejoin="round"
        stroke-linecap="round"/>
  <!-- Start/finish line -->
  <line x1="91.97" y1="335.55" x2="120.53" y2="307.55"
        stroke="#f5f5f5" stroke-width="9.6"
        stroke-linecap="round"/>
</svg>
