<?xml version="1.0" encoding="utf-8"?>
<svg xmlns="http://www.w3.org/2000/svg"
     width="754.3" height="800.0"
     viewBox="0 0 754.3 800.0">
  <rect width="100%" height="100%" fill="#1a1a2e"/>
  <!-- Track outline -->
  <polyline points="491.33,188.90 471.55,167.90 386.67,86.12 375.03,77.34 363.91,70.83 344.51,61.58 316.01,52.85 273.09,43.96 241.52,40.41 216.47,40.00 205.98,41.63 182.51,45.76 161.05,53.38 144.86,61.11 127.71,72.28 110.37,88.16 93.65,105.96 85.65,115.90 78.42,127.54 61.80,160.40 47.33,200.36 41.25,243.86 40.00,287.19 40.81,319.36 44.69,351.58 70.27,445.86 87.04,484.48 125.98,547.70 148.35,574.34 232.28,649.20 277.59,680.03 326.60,707.19 397.40,738.19 447.07,754.07 471.36,758.37 494.01,760.00 516.38,757.91 549.29,751.22 584.84,738.13 613.53,722.66 634.94,707.25 654.68,690.20 672.69,667.52 689.93,641.23 700.52,617.68 710.39,588.71 713.02,574.58 714.31,560.33 713.07,531.13 706.75,494.95 697.60,458.42 691.18,441.27 682.75,424.46 630.63,341.69 506.66,205.24 491.33,188.90"
        fill="none"
        stroke="#e94560"
        stroke-width="8.0"
        stroke-linejoin="round"
        stroke-linecap="round"/>
  <!-- Start/finish line -->
  <line x1="476.76" y1="202.60" x2="505.90" y2="175.20"
        stroke="#f5f5f5" stroke-width="9.6"
        stroke-linecap="round"/>
</svg>
