<?xml version="1.0" encoding="utf-8"?>
<svg xmlns="http://www.w3.org/2000/svg"
     width="800.0" height="612.7"
     viewBox="0 0 800.0 612.7">
  <rect width="100%" height="100%" fill="#1a1a2e"/>
  <!-- Track outline -->
  <polyline points="217.92,567.27 293.05,572.68 304.28,571.58 313.20,569.58 323.23,566.78 332.99,563.08 342.42,558.24 351.31,552.53 359.03,546.52 367.08,538.81 425.49,462.08 432.19,456.94 440.26,453.28 449.49,451.73 463.63,449.35 476.33,444.96 488.16,438.57 497.74,430.07 508.26,416.12 516.95,403.76 523.25,397.41 530.30,393.44 543.42,389.78 553.93,385.43 566.16,378.36 577.21,367.44 618.26,318.68 643.01,293.32 653.80,279.98 665.52,261.23 674.19,241.99 677.37,232.65 679.64,223.32 680.75,214.74 680.68,206.08 678.68,195.91 675.41,185.71 670.99,176.26 666.98,166.85 665.32,157.25 665.23,147.68 665.96,141.83 667.38,136.12 669.63,130.75 673.14,125.31 677.61,120.21 682.57,116.16 687.62,113.63 693.09,111.97 698.76,110.95 708.08,111.06 717.55,111.47 726.93,110.42 735.85,107.96 741.28,105.12 746.35,101.50 750.73,97.30 754.44,92.61 757.49,87.40 759.40,81.88 760.00,77.23 759.91,72.28 759.13,67.40 757.64,62.91 754.24,57.46 749.55,52.59 744.48,48.43 739.63,45.25 734.43,42.72 728.94,40.98 722.66,40.08 716.08,40.00 709.70,40.57 701.23,42.42 693.05,45.29 676.52,53.53 660.60,64.87 646.10,79.65 587.31,154.98 533.05,233.03 529.36,240.67 527.36,246.60 526.49,252.46 526.43,257.03 526.92,261.61 527.98,266.03 529.67,270.03 531.54,273.02 533.90,276.01 536.59,278.65 539.50,280.77 542.50,282.09 545.82,282.55 549.49,282.32 553.27,281.45 556.85,280.16 559.96,278.50 564.01,274.84 567.28,270.00 570.41,264.25 576.81,247.21 583.06,229.78 587.80,220.44 593.36,212.92 596.65,209.94 600.30,207.25 604.17,205.14 608.19,203.74 611.68,203.17 615.42,203.06 619.20,203.36 622.78,204.12 625.98,205.40 628.85,207.25 631.54,209.71 633.96,212.58 635.92,215.68 637.32,218.86 638.17,223.32 638.10,228.19 637.39,233.14 636.32,237.87 633.21,245.81 628.18,254.31 593.18,300.12 578.64,314.48 570.34,321.21 561.43,327.22 552.04,332.17 541.35,336.22 502.14,342.79 484.93,347.33 468.50,354.51 453.42,364.30 439.68,376.43 422.63,396.77 404.81,421.79 376.89,475.35 364.81,491.45 350.42,505.36 334.08,516.66 316.25,525.70 297.32,531.74 277.75,534.47 257.87,533.94 80.92,509.14 69.17,508.61 60.32,509.75 55.65,511.18 51.01,513.07 46.85,515.49 43.71,518.51 42.05,521.35 40.87,524.71 40.18,528.30 40.00,531.90 40.31,535.22 41.60,539.19 43.80,543.08 46.60,546.75 49.70,550.11 54.79,554.38 60.68,558.09 66.84,561.07 76.29,563.87 85.92,565.42 103.29,566.06 160.28,563.15 217.92,567.27"
        fill="none"
        stroke="#e94560"
        stroke-width="8.0"
        stroke-linejoin="round"
        stroke-linecap="round"/>
  <!-- Start/finish line -->
  <line x1="219.35" y1="547.32" x2="216.48" y2="587.22"
        stroke="#f5f5f5" stroke-width="9.6"
        stroke-linecap="round"/>
</svg>
