<?xml version="1.0" encoding="utf-8"?>
<svg xmlns="http://www.w3.org/2000/svg"
     width="663.4" height="800.0"
     viewBox="0 0 663.4 800.0">
  <rect width="100%" height="100%" fill="#1a1a2e"/>
  <!-- Track outline -->
  <polyline points="188.01,524.31 210.71,480.10 228.49,431.11 241.22,372.78 248.74,308.77 250.81,133.05 251.97,108.50 254.78,89.19 257.88,79.22 261.81,70.23 266.65,62.30 272.27,55.57 278.72,49.83 285.54,45.39 292.65,42.34 300.09,40.55 307.49,40.00 314.48,40.75 321.34,42.64 327.83,45.64 333.87,49.73 339.53,54.97 344.58,61.30 349.87,70.48 354.33,81.16 357.64,92.64 359.92,111.30 359.46,134.80 345.65,234.73 333.25,334.97 334.70,359.51 338.96,378.42 342.59,388.15 347.10,396.88 352.39,404.57 358.30,411.15 364.92,416.74 371.86,421.18 378.93,424.27 386.29,426.27 393.49,426.97 400.10,426.42 406.55,424.82 412.51,422.13 417.63,418.63 422.30,414.19 426.31,408.76 430.08,401.17 433.01,392.19 435.37,381.22 437.44,335.91 439.34,286.72 444.55,258.53 452.40,232.04 466.33,198.26 483.29,165.53 500.65,137.59 519.13,113.49 534.96,97.53 550.96,85.70 559.85,81.41 568.70,78.57 577.38,77.12 585.36,76.92 593.26,77.92 600.45,80.16 604.96,82.51 609.22,85.40 613.06,88.89 616.29,92.84 619.55,98.62 621.91,105.21 623.27,112.44 623.44,122.22 622.08,132.95 619.31,143.93 609.71,164.53 595.86,187.83 530.71,292.21 493.00,415.59 472.33,470.57 461.17,489.53 448.56,505.90 434.87,519.72 419.45,531.64 376.12,552.70 305.92,582.43 265.78,612.52 225.72,648.54 140.55,733.86 125.29,745.53 111.48,753.21 102.22,756.76 92.88,759.10 83.78,760.00 75.60,759.50 67.62,757.80 60.38,754.81 55.96,752.02 51.78,748.62 48.14,744.73 45.17,740.44 43.02,736.00 41.41,731.11 40.37,725.92 40.00,720.53 40.87,710.96 43.35,700.68 47.11,690.60 56.58,674.23 69.73,657.52 113.80,611.77 131.20,595.35 156.67,566.52 188.01,524.31"
        fill="none"
        stroke="#e94560"
        stroke-width="8.0"
        stroke-linejoin="round"
        stroke-linecap="round"/>
  <!-- Start/finish line -->
  <line x1="171.05" y1="513.70" x2="204.97" y2="534.91"
        stroke="#f5f5f5" stroke-width="9.6"
        stroke-linecap="round"/>
</svg>
