<?xml version="1.0" encoding="utf-8"?>
<svg xmlns="http://www.w3.org/2000/svg"
     width="600.4" height="800.0"
     viewBox="0 0 600.4 800.0">
  <rect width="100%" height="100%" fill="#1a1a2e"/>
  <!-- Track outline -->
  <polyline points="328.07,607.51 350.71,575.34 434.39,442.73 441.33,428.00 445.23,416.02 449.13,400.85 451.36,385.23 451.82,374.51 451.36,363.73 449.18,353.57 446.25,346.42 442.40,339.40 437.69,333.19 432.11,328.36 426.64,325.54 420.36,323.47 413.68,322.22 406.94,321.78 400.66,322.22 393.41,324.10 386.32,327.42 379.53,331.69 373.30,336.45 353.04,361.66 335.97,389.94 325.54,402.48 313.73,413.14 305.48,418.40 296.66,422.54 287.50,425.05 280.00,425.80 272.05,425.61 264.30,424.42 257.36,421.98 251.18,418.03 245.45,412.82 240.49,406.74 236.54,400.47 233.04,391.88 231.07,382.54 230.21,372.94 231.02,357.33 234.21,341.47 239.93,324.92 247.23,309.05 262.52,282.84 281.57,256.76 304.82,231.80 333.19,210.36 365.96,192.99 400.71,181.71 434.44,175.31 494.52,168.85 511.59,165.53 526.43,160.57 535.25,156.06 543.35,150.54 549.99,143.83 553.99,137.63 557.23,130.60 559.46,123.20 560.37,115.81 559.71,107.91 557.63,99.75 554.44,91.79 550.54,84.52 544.06,76.12 536.11,68.65 527.70,62.01 515.39,53.67 502.17,47.27 487.53,43.32 472.13,41.13 438.95,40.00 367.88,49.28 313.43,66.40 286.08,80.13 248.44,105.02 207.26,137.12 170.33,172.99 136.39,212.74 76.88,305.67 61.78,340.09 43.95,407.12 40.00,438.34 40.20,468.38 51.25,524.12 62.59,581.05 63.35,617.23 61.43,650.90 62.69,681.37 65.68,695.35 70.85,708.71 76.52,718.18 83.56,727.21 91.21,735.17 102.56,743.76 114.97,750.41 128.80,755.67 143.33,758.93 158.53,760.00 173.83,758.75 189.18,754.67 204.12,748.53 219.01,740.50 233.09,730.78 245.15,720.81 258.78,706.08 328.07,607.51"
        fill="none"
        stroke="#e94560"
        stroke-width="8.0"
        stroke-linejoin="round"
        stroke-linecap="round"/>
  <!-- Start/finish line -->
  <line x1="311.71" y1="596.01" x2="344.43" y2="619.02"
        stroke="#f5f5f5" stroke-width="9.6"
        stroke-linecap="round"/>
</svg>
