<?xml version="1.0" encoding="utf-8"?>
<svg xmlns="http://www.w3.org/2000/svg"
     width="743.9" height="800.0"
     viewBox="0 0 743.9 800.0">
  <rect width="100%" height="100%" fill="#1a1a2e"/>
  <!-- Track outline -->
  <polyline points="299.44,299.54 465.67,91.26 485.16,73.73 504.14,60.20 520.81,51.28 537.76,45.00 554.58,41.36 573.18,40.00 609.17,41.47 644.41,46.55 653.11,48.72 661.16,51.55 672.09,56.75 682.30,62.99 688.90,68.46 694.30,74.43 698.49,80.48 701.59,87.07 703.03,92.30 703.86,97.85 703.89,103.16 703.27,107.62 702.04,111.84 700.04,115.80 697.70,118.94 694.75,121.96 691.48,124.56 688.21,126.50 684.43,127.70 680.48,128.13 676.35,128.05 668.55,126.58 660.26,124.06 640.53,116.92 627.12,113.47 613.30,111.88 604.84,112.70 596.56,114.68 588.79,117.62 581.77,121.42 575.27,126.11 569.64,131.50 565.13,137.55 561.45,144.22 558.70,150.93 556.67,159.30 555.99,168.14 556.71,181.01 558.77,195.01 566.71,230.14 639.77,463.82 645.10,490.30 646.85,511.16 646.13,526.67 643.86,537.68 640.36,548.34 636.61,555.67 632.00,562.07 626.19,567.96 620.28,572.77 616.91,575.02 613.40,576.88 600.96,581.73 586.52,584.56 562.48,585.45 534.09,584.01 433.42,573.82 414.20,568.78 402.30,563.77 391.27,557.69 384.50,552.49 378.82,546.75 373.94,540.55 369.92,533.84 366.96,526.98 365.00,519.81 364.07,512.44 364.21,504.96 365.45,498.05 367.82,490.03 378.10,463.47 387.59,435.21 388.86,426.13 389.03,418.03 388.14,410.35 386.32,403.26 383.53,396.51 379.82,390.58 376.45,386.86 372.53,383.56 368.27,380.77 363.90,378.68 357.95,377.12 351.73,376.62 346.02,376.97 341.97,377.98 338.22,379.53 334.99,381.20 332.27,382.75 329.55,385.00 318.76,396.90 307.89,411.52 303.12,420.74 299.64,429.97 294.62,450.95 288.37,507.98 275.27,686.37 273.34,696.18 270.83,703.82 266.02,715.30 260.04,726.38 254.19,734.95 247.59,742.28 240.89,747.55 233.22,751.86 220.98,756.43 209.36,759.42 205.10,759.96 201.11,760.00 195.13,759.65 188.83,758.72 175.63,754.88 152.46,744.10 126.78,729.21 91.23,706.61 60.63,683.23 53.72,676.10 48.42,669.04 44.61,662.37 41.93,655.24 40.62,649.34 40.00,643.06 40.34,636.94 41.93,630.89 44.54,625.03 47.77,620.07 51.14,616.78 54.96,614.10 58.53,612.20 61.52,611.11 64.72,610.61 70.84,610.26 78.88,611.00 108.90,620.96 139.91,630.46 147.03,630.89 153.01,630.38 158.68,628.87 163.15,626.93 167.55,624.37 171.58,621.31 174.98,617.90 177.59,614.26 179.69,610.18 181.27,605.84 182.34,601.34 182.78,594.17 182.10,586.61 180.65,579.75 177.97,573.23 174.29,566.68 166.14,553.11 158.72,538.92 156.48,529.58 155.66,521.36 155.86,512.59 158.54,497.47 163.94,481.96 173.05,464.40 187.67,442.49 283.35,319.70 299.44,299.54"
        fill="none"
        stroke="#e94560"
        stroke-width="8.0"
        stroke-linejoin="round"
        stroke-linecap="round"/>
  <!-- Start/finish line -->
  <line x1="283.81" y1="287.07" x2="315.07" y2="312.02"
        stroke="#f5f5f5" stroke-width="9.6"
        stroke-linecap="round"/>
</svg>
