<?xml version="1.0" encoding="utf-8"?>
<svg xmlns="http://www.w3.org/2000/svg"
     width="427.9" height="800.0"
     viewBox="0 0 427.9 800.0">
  <rect width="100%" height="100%" fill="#1a1a2e"/>
  <!-- Track outline -->
  <polyline points="383.30,425.59 383.57,409.16 387.88,199.25 382.23,164.84 372.68,137.00 357.22,111.07 338.12,88.76 324.54,75.79 309.75,64.73 293.07,55.56 267.79,46.92 239.69,41.56 212.12,40.00 188.05,42.42 164.65,48.13 142.60,57.12 122.70,68.53 104.01,82.88 87.60,99.83 73.75,120.92 61.92,144.44 53.98,164.67 51.30,174.70 49.95,187.32 40.00,381.50 44.71,601.10 53.31,637.58 64.47,665.94 77.79,689.97 90.83,708.13 105.49,723.17 121.49,735.45 139.10,745.30 157.93,752.39 178.10,757.06 203.25,760.00 230.01,759.83 256.36,755.50 283.80,745.99 310.82,732.16 333.28,715.56 346.06,701.73 356.14,686.51 364.48,669.39 373.89,638.79 379.67,601.27 383.30,425.59"
        fill="none"
        stroke="#e94560"
        stroke-width="8.0"
        stroke-linejoin="round"
        stroke-linecap="round"/>
  <!-- Start/finish line -->
  <line x1="363.31" y1="425.18" x2="403.30" y2="426.00"
        stroke="#f5f5f5" stroke-width="9.6"
        stroke-linecap="round"/>
</svg>
