<?xml version="1.0" encoding="utf-8"?>
<svg xmlns="http://www.w3.org/2000/svg"
     width="767.2" height="800.0"
     viewBox="0 0 767.2 800.0">
  <rect width="100%" height="100%" fill="#1a1a2e"/>
  <!-- Track outline -->
  <polyline points="504.28,521.62 381.87,647.82 374.57,655.39 369.90,662.00 367.40,668.03 365.71,674.11 364.92,680.50 364.98,686.69 365.65,695.27 366.47,702.20 367.49,709.88 367.94,716.44 366.98,722.52 364.09,730.25 360.44,737.34 354.89,743.90 348.82,749.76 343.33,753.92 337.30,756.91 330.16,759.47 324.51,760.00 318.51,759.15 312.63,756.05 308.09,752.64 302.41,748.16 296.73,743.42 64.06,517.41 53.11,505.84 47.56,499.38 43.65,492.83 41.21,486.91 40.00,481.10 40.32,475.12 42.16,469.10 45.37,463.82 49.65,458.38 54.98,453.85 60.70,450.12 67.71,447.77 77.84,447.19 90.29,448.52 100.44,450.12 108.63,453.64 115.71,458.81 247.62,584.53 260.57,596.32 270.03,602.55 279.14,606.34 288.06,607.51 296.67,607.19 303.40,605.17 310.44,601.38 316.32,596.58 321.46,590.72 324.86,584.96 326.79,577.55 327.27,568.00 326.22,559.21 323.62,549.88 319.71,541.08 312.57,532.60 283.49,503.49 276.44,496.93 273.87,491.92 273.40,486.48 274.86,480.88 277.46,475.18 281.65,469.42 287.36,462.75 300.95,448.36 308.32,442.71 315.49,439.88 323.94,439.83 331.30,442.23 339.33,447.56 387.11,488.19 396.19,492.93 404.86,495.01 413.90,495.65 422.98,493.09 430.73,488.93 438.63,483.07 446.76,475.92 599.65,319.38 608.16,309.68 613.46,302.32 618.00,294.80 621.01,287.66 623.05,280.04 623.33,272.57 622.00,264.41 620.00,257.86 615.81,250.87 610.12,245.17 602.89,239.51 595.55,235.73 586.35,233.17 576.47,232.26 566.89,233.06 556.28,235.94 548.13,240.63 540.89,246.82 421.90,377.98 414.03,384.00 406.79,387.26 398.98,388.16 391.24,386.94 382.82,384.32 374.00,382.94 365.36,383.74 357.40,386.99 350.51,391.68 343.27,398.88 337.46,404.96 329.17,410.72 321.14,413.49 314.19,413.49 306.60,411.46 299.14,406.66 251.11,363.96 243.68,357.13 237.52,349.61 234.09,342.84 232.35,336.34 232.28,330.37 234.38,322.26 238.57,314.96 292.76,252.15 299.81,244.05 308.06,237.01 315.05,233.44 322.44,230.50 329.65,229.86 336.92,230.66 343.94,233.01 349.84,236.74 369.52,253.38 377.68,259.35 384.22,262.49 390.51,263.93 396.38,263.83 401.40,262.44 405.40,259.83 410.06,255.19 443.05,218.93 454.41,205.92 459.93,197.77 463.55,191.90 466.79,185.24 469.33,178.15 470.92,170.68 471.05,164.12 470.06,158.10 467.30,152.61 462.76,146.95 457.49,142.10 450.95,137.25 443.65,132.99 436.51,130.32 427.17,127.97 414.09,125.15 405.46,121.42 397.78,117.10 390.00,107.45 385.05,97.85 381.49,86.60 380.00,75.24 382.51,63.14 386.51,54.72 392.98,48.42 400.09,44.64 409.30,42.13 486.51,40.00 499.05,41.17 510.66,43.36 521.40,46.88 532.28,52.42 541.05,58.55 548.22,65.11 554.22,71.94 685.58,239.51 696.06,254.02 703.46,265.27 710.89,276.73 715.62,285.15 719.27,293.79 722.60,302.48 724.85,310.59 726.51,317.84 727.17,325.94 727.05,334.05 726.35,344.50 725.52,352.65 723.97,358.79 721.78,364.38 718.85,369.72 715.08,374.57 710.76,378.78 705.74,383.10 701.93,385.92 698.63,387.84 695.20,389.50 692.32,390.30 688.57,390.24 683.58,389.50 678.35,388.06 672.85,385.92 667.39,384.06 660.82,382.73 654.44,381.93 647.97,382.14 642.47,383.15 636.70,385.44 631.90,388.54 626.44,392.80 621.36,397.28 504.28,521.62"
        fill="none"
        stroke="#e94560"
        stroke-width="8.0"
        stroke-linejoin="round"
        stroke-linecap="round"/>
  <!-- Start/finish line -->
  <line x1="518.74" y1="535.44" x2="489.83" y2="507.80"
        stroke="#f5f5f5" stroke-width="9.6"
        stroke-linecap="round"/>
</svg>
