<?xml version="1.0" encoding="utf-8"?>
<svg xmlns="http://www.w3.org/2000/svg"
     width="718.5" height="800.0"
     viewBox="0 0 718.5 800.0">
  <rect width="100%" height="100%" fill="#1a1a2e"/>
  <!-- Track outline -->
  <polyline points="480.91,535.44 364.94,654.99 354.90,666.51 349.46,677.17 348.58,686.56 350.24,697.47 351.77,709.34 352.13,720.50 350.21,731.56 345.73,740.81 338.99,748.48 330.93,754.60 320.10,759.19 311.68,760.00 302.57,757.93 295.02,753.59 287.90,748.28 279.69,741.06 135.78,603.73 57.41,524.23 51.46,516.95 45.71,509.88 41.56,503.37 40.00,496.24 41.02,488.52 43.43,482.00 47.25,476.70 51.79,472.45 56.42,469.53 62.59,466.70 70.40,465.74 79.82,465.33 87.34,466.14 96.24,468.16 104.54,471.34 112.51,475.89 231.27,588.12 240.41,596.45 250.66,604.84 259.69,610.95 267.60,614.69 274.27,616.40 281.52,616.86 288.92,614.84 296.50,610.39 303.26,604.79 308.25,598.02 311.68,590.39 313.64,582.41 313.04,573.57 311.71,564.53 309.52,557.51 305.37,550.64 300.89,545.64 199.15,449.37 192.77,443.01 187.66,437.00 183.66,430.89 180.74,424.72 179.39,418.86 179.12,412.35 180.20,406.04 182.55,399.52 186.79,392.60 191.00,387.20 196.20,382.15 201.52,378.76 208.11,376.24 214.70,375.28 221.67,376.19 227.18,377.90 233.91,381.49 239.93,385.93 289.34,430.58 362.69,498.21 372.52,505.23 380.94,509.88 388.76,511.65 397.24,511.30 405.99,508.42 414.23,503.92 421.45,497.61 572.84,344.01 581.11,333.15 587.34,323.76 591.34,315.98 593.56,307.49 593.38,298.50 591.82,291.08 587.94,284.06 581.38,275.93 574.16,270.42 565.29,265.87 556.09,262.59 548.93,261.58 539.34,262.44 528.00,265.77 518.14,271.99 510.26,279.36 405.15,397.35 395.86,405.38 386.60,409.82 377.09,410.94 368.43,410.08 360.55,406.74 353.43,400.53 346.78,393.81 341.67,385.28 339.26,377.80 338.24,369.72 337.67,361.23 338.45,353.86 341.16,346.18 346.00,337.90 352.61,329.31 438.89,228.65 442.32,223.09 445.39,216.78 447.80,210.06 449.30,202.99 449.42,196.78 448.49,191.07 445.87,185.87 441.57,180.51 436.58,175.92 430.38,171.32 423.47,167.28 416.70,164.76 407.86,162.53 399.62,161.62 392.31,162.48 385.30,165.67 377.90,171.22 372.43,176.83 367.47,182.69 343.71,212.79 325.82,232.39 316.40,240.97 310.12,245.62 303.32,248.65 295.62,249.76 287.74,248.50 280.77,245.77 274.72,241.93 268.38,236.78 261.97,230.42 232.23,199.05 199.18,161.98 176.50,135.61 165.95,121.62 156.56,108.29 150.04,97.78 146.37,90.91 144.54,86.52 142.55,80.76 141.68,75.46 142.01,69.65 143.03,63.89 145.02,58.64 148.11,53.33 151.09,49.50 155.21,45.91 159.69,42.98 165.53,41.06 171.75,40.05 178.22,40.00 184.53,40.61 191.00,41.77 357.39,77.83 376.10,80.36 390.93,81.22 464.07,79.19 475.94,80.31 486.95,82.38 497.12,85.71 507.43,90.96 515.73,96.77 522.53,102.98 528.21,109.45 652.66,268.20 662.58,281.94 669.29,290.62 674.46,298.05 677.29,305.68 678.49,315.12 677.11,323.40 674.04,330.22 668.50,337.39 658.67,348.51 480.91,535.44"
        fill="none"
        stroke="#e94560"
        stroke-width="8.0"
        stroke-linejoin="round"
        stroke-linecap="round"/>
  <!-- Start/finish line -->
  <line x1="495.35" y1="549.28" x2="466.47" y2="521.60"
        stroke="#f5f5f5" stroke-width="9.6"
        stroke-linecap="round"/>
</svg>
