<?xml version="1.0" encoding="utf-8"?>
<svg xmlns="http://www.w3.org/2000/svg"
     width="571.6" height="800.0"
     viewBox="0 0 571.6 800.0">
  <rect width="100%" height="100%" fill="#1a1a2e"/>
  <!-- Track outline -->
  <polyline points="478.79,534.45 362.96,653.86 356.06,661.02 351.64,667.28 349.27,672.98 347.67,678.73 346.92,684.78 346.98,690.63 347.61,698.76 348.40,705.31 349.36,712.58 349.78,718.78 348.88,724.53 346.14,731.85 342.69,738.56 337.43,744.76 331.69,750.31 326.50,754.25 320.79,757.07 314.03,759.50 308.69,760.00 303.01,759.19 297.45,756.27 293.16,753.04 287.78,748.80 282.40,744.31 61.27,529.00 50.90,517.39 45.20,510.03 41.41,503.17 40.00,496.31 40.03,489.50 41.56,484.05 44.06,478.80 47.72,474.31 53.13,469.82 58.11,466.49 64.15,464.67 70.91,464.07 79.95,464.57 90.67,466.54 100.23,470.17 107.91,474.26 114.22,478.60 245.40,601.79 251.83,606.89 257.53,610.42 263.18,612.79 269.16,613.95 275.25,614.51 281.77,614.36 287.36,613.04 292.71,610.07 297.51,606.18 301.66,601.69 305.29,596.80 308.18,591.91 310.22,585.60 310.28,579.19 309.56,572.08 307.66,563.91 305.50,557.40 301.63,550.74 296.97,544.13 292.53,538.88 193.79,444.39 185.92,436.47 181.93,430.92 179.61,424.97 177.93,418.57 177.87,412.06 179.13,404.79 181.60,397.83 184.69,392.18 189.53,386.18 266.69,298.65 273.00,290.63 276.64,284.22 279.79,276.70 280.96,270.30 280.24,263.54 278.89,256.93 276.10,250.52 273.06,244.82 268.02,238.16 259.39,229.18 235.03,203.45 197.46,161.33 173.94,134.64 153.03,105.63 148.08,97.76 144.26,90.40 141.89,82.93 141.17,76.32 141.83,68.81 143.39,61.79 146.69,55.54 150.90,49.53 155.79,45.15 160.78,42.22 167.69,40.20 175.38,40.00 182.95,40.66 331.97,72.44 338.90,74.25 344.22,77.43 349.63,81.72 354.34,86.06 358.28,92.06 360.44,99.08 362.12,106.04 362.30,112.65 362.00,121.63 362.21,130.55 363.50,140.49 366.36,154.72 366.75,166.02 365.43,175.15 362.12,183.58 357.95,190.74 352.69,198.16 325.15,233.07 323.16,238.41 322.68,243.96 324.52,250.77 328.21,258.29 334.01,265.10 351.22,280.89 357.02,286.95 361.28,293.30 363.05,299.15 362.93,304.90 360.53,311.01 357.62,316.96 353.62,322.61 348.91,329.37 343.68,337.34 339.72,345.57 336.17,354.80 334.16,364.28 333.83,373.06 336.08,382.09 337.64,390.52 338.45,398.28 337.73,404.99 335.39,410.75 331.54,416.09 320.07,429.31 316.62,434.15 314.60,439.65 314.21,444.45 315.17,449.79 317.49,454.94 321.48,460.44 327.52,467.45 357.89,495.20 366.87,501.50 375.31,506.14 382.76,508.36 389.94,509.57 396.40,509.32 403.36,507.61 410.24,504.23 416.82,499.84 480.53,436.17 485.40,432.03 490.50,429.66 496.12,428.76 502.13,430.02 507.35,433.30 518.44,443.79 525.14,451.15 529.25,458.07 531.57,464.37 531.35,470.33 529.55,477.24 525.50,484.05 520.84,490.00 478.79,534.45"
        fill="none"
        stroke="#e94560"
        stroke-width="8.0"
        stroke-linejoin="round"
        stroke-linecap="round"/>
  <!-- Start/finish line -->
  <line x1="493.19" y1="548.32" x2="464.39" y2="520.57"
        stroke="#f5f5f5" stroke-width="9.6"
        stroke-linecap="round"/>
</svg>
