<?xml version="1.0" encoding="utf-8"?>
<svg xmlns="http://www.w3.org/2000/svg"
     width="730.3" height="800.0"
     viewBox="0 0 730.3 800.0">
  <rect width="100%" height="100%" fill="#1a1a2e"/>
  <!-- Track outline -->
  <polyline points="479.36,534.41 590.16,416.75 594.96,412.51 600.13,408.48 604.67,405.55 610.13,403.38 615.33,402.42 621.46,402.22 627.50,402.98 633.72,404.24 638.88,406.00 644.08,408.02 649.04,409.38 653.75,410.09 657.30,410.14 660.03,409.38 663.28,407.82 666.40,406.00 670.01,403.33 674.75,399.24 678.84,395.26 682.41,390.67 685.18,385.62 687.25,380.32 688.72,374.52 689.50,366.80 690.16,356.91 690.28,349.24 689.65,341.57 688.09,334.71 685.96,327.04 682.80,318.82 679.35,310.64 674.87,302.67 667.84,291.82 660.84,281.18 650.93,267.45 526.62,108.87 520.94,102.41 514.15,96.21 505.86,90.41 495.55,85.16 485.40,81.83 474.40,79.76 462.54,78.65 389.48,80.67 350.63,77.14 183.51,41.21 174.41,40.00 166.30,40.00 160.62,41.46 155.96,44.44 150.70,49.69 147.10,55.04 143.91,62.45 142.14,71.69 141.99,79.05 142.95,86.52 145.66,93.38 151.39,102.62 157.79,112.10 194.81,158.62 221.93,188.69 253.84,223.15 262.91,231.68 270.45,237.89 277.93,243.29 285.11,247.32 292.14,248.89 300.07,248.94 307.76,245.40 315.15,240.01 325.31,230.62 366.97,180.82 373.46,174.06 380.40,169.27 387.70,165.38 394.94,162.66 400.83,161.45 408.25,161.60 415.31,163.57 421.98,166.64 428.89,170.68 435.08,175.27 440.07,179.86 444.36,185.21 446.98,190.41 447.91,196.11 447.79,202.32 446.29,209.38 443.88,216.09 440.82,222.40 437.39,227.95 432.17,235.67 421.41,247.98 390.20,282.29 385.78,286.68 382.00,289.15 377.25,290.46 371.69,290.56 365.74,289.20 359.55,286.22 351.83,280.57 333.21,264.83 327.62,261.30 320.98,259.08 314.10,258.32 307.28,258.93 300.28,261.70 293.67,265.08 285.86,271.74 279.19,279.41 227.91,338.85 223.95,345.76 221.96,353.43 222.02,359.08 223.68,365.24 226.92,371.64 232.75,378.76 239.78,385.22 285.23,425.63 292.29,430.17 299.47,432.09 306.05,432.09 313.65,429.47 321.49,424.02 326.99,418.26 333.84,411.45 340.36,407.01 347.90,403.94 356.07,403.18 364.42,404.49 372.38,406.96 379.71,408.12 387.10,407.27 393.95,404.19 401.40,398.49 514.00,274.37 520.85,268.51 528.57,264.07 538.60,261.35 547.68,260.59 557.02,261.45 565.73,263.87 572.67,267.45 579.52,272.80 584.90,278.20 588.86,284.81 590.76,291.02 592.02,298.74 591.75,305.80 589.82,313.01 586.97,319.78 582.67,326.89 577.66,333.85 569.61,343.04 424.93,491.17 417.23,497.93 409.75,503.48 402.42,507.42 393.83,509.84 385.27,509.24 377.07,507.27 368.48,502.78 323.26,464.33 315.66,459.29 308.69,457.01 300.70,457.07 293.91,459.74 286.94,465.09 274.09,478.71 268.68,485.02 264.71,490.47 262.25,495.87 260.87,501.16 261.32,506.31 263.75,511.05 270.42,517.26 297.94,544.81 304.70,552.83 308.39,561.15 310.86,569.98 311.85,578.31 311.40,587.34 309.57,594.35 306.35,599.80 301.48,605.35 295.93,609.89 289.26,613.48 282.89,615.39 274.75,615.70 266.30,614.59 257.68,611.00 248.73,605.10 236.47,593.95 111.65,474.98 104.95,470.08 97.20,466.75 87.59,465.24 75.81,463.98 66.23,464.53 59.59,466.75 54.18,470.28 49.13,474.57 45.08,479.72 42.04,484.71 40.30,490.42 40.00,496.07 41.14,501.57 43.45,507.17 47.15,513.37 52.41,519.48 62.77,530.43 282.95,744.31 288.33,748.80 293.70,753.04 298.00,756.27 303.56,759.19 309.23,760.00 314.58,759.50 321.34,757.07 327.05,754.25 332.25,750.31 337.98,744.76 343.24,738.56 346.70,731.85 349.43,724.53 350.33,718.78 349.91,712.57 348.95,705.31 348.17,698.75 347.54,690.62 347.48,684.77 348.23,678.72 349.82,672.96 352.19,667.26 356.61,661.01 363.52,653.84 479.36,534.41"
        fill="none"
        stroke="#e94560"
        stroke-width="8.0"
        stroke-linejoin="round"
        stroke-linecap="round"/>
  <!-- Start/finish line -->
  <line x1="464.90" y1="520.59" x2="493.82" y2="548.23"
        stroke="#f5f5f5" stroke-width="9.6"
        stroke-linecap="round"/>
</svg>
