<?xml version="1.0" encoding="utf-8"?>
<svg xmlns="http://www.w3.org/2000/svg"
     width="672.4" height="800.0"
     viewBox="0 0 672.4 800.0">
  <rect width="100%" height="100%" fill="#1a1a2e"/>
  <!-- Track outline -->
  <polyline points="409.49,521.62 287.08,647.82 279.78,655.39 275.11,662.00 272.60,668.03 270.92,674.11 270.13,680.50 270.19,686.69 270.86,695.27 271.68,702.20 272.70,709.88 273.14,716.44 272.19,722.52 269.30,730.25 265.65,737.34 260.09,743.90 254.03,749.76 248.54,753.92 242.51,756.91 235.36,759.47 229.71,760.00 223.71,759.15 217.84,756.05 213.30,752.64 207.62,748.16 201.94,743.42 49.33,599.03 44.32,593.76 41.14,588.37 40.00,582.99 40.44,577.49 41.87,571.79 44.60,566.46 48.41,561.77 52.67,557.23 125.27,484.61 130.29,479.71 136.73,475.66 143.75,472.14 150.82,472.25 159.75,474.32 167.33,476.30 173.59,475.34 178.95,472.46 184.16,467.71 209.02,441.64 214.76,435.08 217.11,431.08 217.27,426.29 216.06,422.02 212.95,417.27 208.16,412.53 202.19,406.72 144.29,353.08 138.86,347.75 136.35,342.68 135.05,337.19 135.46,331.75 137.75,326.58 141.65,321.09 210.54,241.75 216.51,235.36 223.21,230.72 230.09,228.85 237.90,228.96 246.28,231.41 253.36,235.62 275.27,254.76 280.25,260.68 285.21,268.73 287.08,275.61 285.75,282.75 281.27,290.86 275.62,299.23 268.98,310.00 262.89,320.50 258.76,330.31 256.41,339.70 255.97,349.30 258.25,358.89 263.46,367.90 271.52,376.06 280.00,381.71 290.44,386.35 299.90,387.79 309.43,387.15 318.60,383.79 326.54,379.21 333.94,372.22 339.71,365.13 343.62,357.67 346.35,349.61 346.51,341.51 344.60,333.78 341.21,324.72 336.06,316.77 330.48,309.25 324.25,302.96 317.81,296.40 313.14,288.89 310.89,282.97 309.78,276.84 310.70,269.80 313.43,261.75 316.67,255.03 321.52,247.99 365.14,197.77 368.76,191.90 372.00,185.24 374.54,178.15 376.13,170.68 376.25,164.12 375.27,158.10 372.51,152.61 367.97,146.95 362.70,142.10 356.16,137.25 348.86,132.99 341.71,130.32 332.38,127.97 325.94,127.39 319.30,126.59 314.28,125.68 309.01,122.91 304.51,119.28 299.94,114.32 295.78,108.57 291.55,101.48 288.25,93.96 286.41,84.15 286.41,75.88 288.92,66.77 292.67,59.73 296.73,54.72 301.75,50.50 308.25,46.61 315.40,43.95 324.38,42.77 391.71,40.00 404.25,41.17 415.87,43.36 426.60,46.88 437.49,52.42 446.25,58.55 453.43,65.11 459.43,71.94 590.79,239.51 601.27,254.02 608.66,265.27 616.09,276.73 620.82,285.15 624.47,293.79 627.81,302.48 630.06,310.59 631.71,317.84 632.38,325.94 632.25,334.05 631.55,344.50 630.73,352.65 629.17,358.79 626.98,364.38 624.06,369.72 620.28,374.57 615.97,378.78 610.95,383.10 607.14,385.92 603.84,387.84 600.41,389.50 597.52,390.30 593.78,390.24 588.79,389.50 583.55,388.06 578.06,385.92 572.60,384.06 566.03,382.73 559.65,381.93 553.17,382.14 547.68,383.15 541.90,385.44 537.11,388.54 531.65,392.80 526.57,397.28 409.49,521.62"
        fill="none"
        stroke="#e94560"
        stroke-width="8.0"
        stroke-linejoin="round"
        stroke-linecap="round"/>
  <!-- Start/finish line -->
  <line x1="423.95" y1="535.44" x2="395.03" y2="507.80"
        stroke="#f5f5f5" stroke-width="9.6"
        stroke-linecap="round"/>
</svg>
