<?xml version="1.0" encoding="utf-8"?>
<svg xmlns="http://www.w3.org/2000/svg"
     width="800.0" height="280.0"
     viewBox="0 0 800.0 280.0">
  <rect width="100%" height="100%" fill="#1a1a2e"/>
  <!-- Track outline -->
  <polyline points="364.18,46.46 315.87,42.15 255.42,40.00 239.51,41.02 227.58,43.04 221.55,44.78 216.21,46.95 204.36,53.24 182.52,67.14 169.56,71.71 94.14,89.60 74.54,97.82 63.83,103.62 54.44,109.99 49.64,114.69 45.96,119.64 43.11,124.68 41.14,130.20 40.28,134.95 40.00,140.03 40.33,145.27 42.66,154.75 46.28,163.85 49.62,170.13 53.66,176.09 67.05,191.75 78.67,203.56 91.96,214.85 107.48,224.02 121.03,230.33 127.59,232.15 144.86,235.27 166.90,236.88 255.13,227.63 273.21,224.00 286.71,219.83 291.74,217.23 295.64,214.24 297.91,212.09 299.94,209.76 301.63,207.06 303.33,203.02 304.58,198.42 305.03,193.85 304.51,189.30 303.22,184.75 301.41,180.81 299.45,178.16 297.13,175.93 294.95,174.09 293.16,172.71 291.12,171.54 285.96,169.29 279.52,167.53 269.05,166.91 259.08,167.55 255.41,168.22 251.47,169.55 202.72,192.98 184.47,198.78 180.79,199.49 177.24,199.80 170.84,199.70 164.08,198.85 157.98,197.17 152.21,194.77 147.09,191.83 142.46,188.15 139.40,184.85 136.62,181.10 134.40,177.08 132.82,172.89 131.81,168.47 131.31,163.98 131.72,156.64 133.03,150.05 134.12,147.04 135.45,144.40 136.90,141.85 138.77,139.19 148.48,128.95 160.30,119.75 170.51,113.59 194.11,102.96 232.25,90.64 269.95,84.46 294.67,82.95 306.80,83.49 317.80,85.18 328.73,87.81 335.46,90.46 341.28,93.66 345.86,97.03 349.73,100.76 352.48,104.31 354.60,107.92 355.78,110.75 356.63,113.61 357.82,120.18 358.46,136.05 359.93,153.93 362.86,164.31 366.67,173.07 369.85,178.26 373.66,183.27 381.95,192.65 390.36,203.27 393.99,211.40 396.89,219.96 400.20,226.96 402.96,230.33 405.93,232.94 409.25,235.14 413.27,237.08 417.68,238.51 422.44,239.51 432.64,239.99 442.28,239.38 446.15,238.87 450.37,237.79 500.24,218.55 539.76,199.80 552.15,195.66 563.76,192.85 633.49,184.95 727.36,176.45 738.45,173.25 746.43,169.44 750.98,166.12 754.52,162.42 756.43,159.99 758.04,157.41 759.19,154.55 759.91,150.49 760.00,146.01 759.50,141.93 758.66,139.17 757.43,136.66 755.75,134.21 752.91,131.04 749.38,127.97 745.39,125.29 737.32,121.82 728.66,119.44 722.03,118.24 713.64,117.91 592.45,130.73 486.55,155.06 472.83,156.49 465.77,156.31 458.75,155.39 451.46,153.42 444.93,151.00 441.69,149.54 438.62,147.70 432.50,143.15 426.80,137.53 423.67,132.14 421.74,127.08 421.20,125.09 420.96,122.74 421.49,105.11 422.05,86.86 421.80,83.57 421.12,80.68 418.04,73.57 414.31,66.98 412.77,64.96 411.15,63.33 406.23,59.37 400.72,56.17 387.34,51.09 372.45,47.21 364.18,46.46"
        fill="none"
        stroke="#e94560"
        stroke-width="8.0"
        stroke-linejoin="round"
        stroke-linecap="round"/>
  <!-- Start/finish line -->
  <line x1="362.40" y1="66.39" x2="365.96" y2="26.54"
        stroke="#f5f5f5" stroke-width="9.6"
        stroke-linecap="round"/>
</svg>
