<?xml version="1.0" encoding="utf-8"?>
<svg xmlns="http://www.w3.org/2000/svg"
     width="767.2" height="800.0"
     viewBox="0 0 767.2 800.0">
  <rect width="100%" height="100%" fill="#1a1a2e"/>
  <!-- Track outline -->
  <polyline points="504.28,521.62 621.36,397.28 626.44,392.80 631.90,388.54 636.70,385.44 642.47,383.15 647.97,382.14 654.44,381.93 660.82,382.73 667.39,384.06 672.85,385.92 678.35,388.06 683.58,389.50 688.57,390.24 692.32,390.30 695.20,389.50 698.63,387.84 701.93,385.92 705.74,383.10 710.76,378.78 715.08,374.57 718.85,369.72 721.78,364.38 723.97,358.79 725.52,352.65 726.35,344.50 727.05,334.05 727.17,325.94 726.51,317.84 724.85,310.59 722.60,302.48 719.27,293.79 715.62,285.15 710.89,276.73 703.46,265.27 696.06,254.02 685.58,239.51 554.22,71.94 548.22,65.11 541.05,58.55 532.28,52.42 521.40,46.88 510.66,43.36 499.05,41.17 486.51,40.00 409.30,42.13 400.09,44.64 392.98,48.42 386.51,54.72 382.51,63.14 380.00,75.24 381.49,86.60 385.05,97.85 390.00,107.45 397.78,117.10 405.46,121.42 414.09,125.15 427.17,127.97 436.51,130.32 443.65,132.99 450.95,137.25 457.49,142.10 462.76,146.95 467.30,152.61 470.06,158.10 471.05,164.12 470.92,170.68 469.33,178.15 466.79,185.24 463.55,191.90 459.93,197.77 454.41,205.92 443.05,218.93 410.06,255.19 405.40,259.83 401.40,262.44 396.38,263.83 390.51,263.93 384.22,262.49 377.68,259.35 369.52,253.38 349.84,236.74 343.94,233.01 336.92,230.66 329.65,229.86 322.44,230.50 315.05,233.44 308.06,237.01 299.81,244.05 292.76,252.15 238.57,314.96 234.38,322.26 232.28,330.37 232.35,336.34 234.09,342.84 237.52,349.61 243.68,357.13 251.11,363.96 299.14,406.66 306.60,411.46 314.19,413.49 321.14,413.49 329.17,410.72 337.46,404.96 343.27,398.88 350.51,391.68 357.40,386.99 365.36,383.74 374.00,382.94 382.82,384.32 391.24,386.94 398.98,388.16 406.79,387.26 414.03,384.00 421.90,377.98 540.89,246.82 548.13,240.63 556.28,235.94 566.89,233.06 576.47,232.26 586.35,233.17 595.55,235.73 602.89,239.51 610.12,245.17 615.81,250.87 620.00,257.86 622.00,264.41 623.33,272.57 623.05,280.04 621.01,287.66 618.00,294.80 613.46,302.32 608.16,309.68 599.65,319.38 446.76,475.92 438.63,483.07 430.73,488.93 422.98,493.09 413.90,495.65 404.86,495.01 396.19,492.93 387.11,488.19 339.33,447.56 331.30,442.23 323.94,439.83 315.49,439.88 308.32,442.71 300.95,448.36 287.36,462.75 281.65,469.42 277.46,475.18 274.86,480.88 273.40,486.48 273.87,491.92 276.44,496.93 283.49,503.49 312.57,532.60 319.71,541.08 323.62,549.88 326.22,559.21 327.27,568.00 326.79,577.55 324.86,584.96 321.46,590.72 316.32,596.58 310.44,601.38 303.40,605.17 296.67,607.19 288.06,607.51 279.14,606.34 270.03,602.55 260.57,596.32 247.62,584.53 115.71,458.81 108.63,453.64 100.44,450.12 90.29,448.52 77.84,447.19 67.71,447.77 60.70,450.12 54.98,453.85 49.65,458.38 45.37,463.82 42.16,469.10 40.32,475.12 40.00,481.10 41.21,486.91 43.65,492.83 47.56,499.38 53.11,505.84 64.06,517.41 296.73,743.42 302.41,748.16 308.09,752.64 312.63,756.05 318.51,759.15 324.51,760.00 330.16,759.47 337.30,756.91 343.33,753.92 348.82,749.76 354.89,743.90 360.44,737.34 364.09,730.25 366.98,722.52 367.94,716.44 367.49,709.88 366.47,702.20 365.65,695.27 364.98,686.69 364.92,680.50 365.71,674.11 367.40,668.03 369.90,662.00 374.57,655.39 381.87,647.82 504.28,521.62"
        fill="none"
        stroke="#e94560"
        stroke-width="8.0"
        stroke-linejoin="round"
        stroke-linecap="round"/>
  <!-- Start/finish line -->
  <line x1="489.83" y1="507.80" x2="518.74" y2="535.44"
        stroke="#f5f5f5" stroke-width="9.6"
        stroke-linecap="round"/>
</svg>
