<?xml version="1.0" encoding="utf-8"?>
<svg xmlns="http://www.w3.org/2000/svg"
     width="748.6" height="800.0"
     viewBox="0 0 748.6 800.0">
  <rect width="100%" height="100%" fill="#1a1a2e"/>
  <!-- Track outline -->
  <polyline points="501.67,558.77 687.80,363.03 698.10,351.40 703.89,343.89 707.10,336.75 708.55,328.07 707.29,318.18 704.33,310.20 698.91,302.42 691.89,293.33 681.50,278.94 551.20,112.72 545.25,105.95 538.13,99.44 529.44,93.36 518.64,87.86 507.99,84.37 496.47,82.20 484.03,81.04 407.45,83.16 391.93,82.26 372.34,79.61 198.11,41.85 191.34,40.63 184.73,40.00 177.95,40.05 171.44,41.11 165.33,43.12 160.64,46.19 156.32,49.94 153.20,53.96 149.96,59.52 147.88,65.02 146.81,71.04 146.47,77.13 147.38,82.68 149.46,88.71 151.38,93.31 155.22,100.50 162.05,111.50 171.88,125.46 182.93,140.11 206.67,167.72 241.28,206.54 272.42,239.38 279.13,246.05 285.77,251.44 292.10,255.46 299.41,258.32 307.66,259.64 315.72,258.48 322.84,255.30 329.42,250.44 339.27,241.45 358.01,220.93 382.89,189.41 388.08,183.27 393.81,177.40 401.56,171.58 408.90,168.25 416.55,167.35 425.18,168.30 434.44,170.63 441.52,173.27 448.76,177.51 455.25,182.32 460.48,187.13 464.98,192.74 467.72,198.18 468.70,204.16 468.57,210.67 467.00,218.07 464.48,225.10 461.26,231.71 457.67,237.53 367.33,342.94 360.40,351.93 355.33,360.60 352.50,368.64 351.68,376.36 352.53,385.99 354.67,394.61 357.03,402.96 357.76,410.37 356.94,418.51 354.52,426.07 349.60,433.64 337.07,447.92 332.57,452.30 327.75,455.48 322.30,457.06 316.38,457.43 311.12,456.17 306.21,453.36 301.08,448.97 249.34,402.22 243.04,397.57 235.99,393.81 230.23,392.01 222.92,391.06 216.03,392.07 209.13,394.71 203.56,398.25 198.11,403.54 193.70,409.20 189.26,416.45 186.80,423.27 185.67,429.88 185.95,436.70 187.37,442.84 190.42,449.29 194.61,455.69 199.97,461.98 206.64,468.65 313.17,569.45 317.86,574.68 322.21,581.88 324.51,589.23 325.89,598.70 326.52,607.95 324.47,616.31 320.89,624.29 315.66,631.38 308.57,637.25 300.64,641.90 292.89,644.02 285.30,643.54 278.31,641.75 270.03,637.83 260.58,631.43 249.85,622.65 240.27,613.93 115.92,496.41 107.58,491.65 98.89,488.32 89.56,486.21 81.69,485.36 71.84,485.78 63.65,486.79 57.19,489.75 52.34,492.82 47.59,497.26 43.59,502.81 41.07,509.63 40.00,517.73 41.64,525.18 45.98,532.01 52.00,539.41 58.23,547.03 140.29,630.27 257.47,742.07 266.25,749.58 273.34,754.98 280.26,757.88 287.41,760.00 294.62,758.57 303.13,754.98 312.04,749.95 325.10,738.42 380.24,683.95 501.67,558.77"
        fill="none"
        stroke="#e94560"
        stroke-width="8.0"
        stroke-linejoin="round"
        stroke-linecap="round"/>
  <!-- Start/finish line -->
  <line x1="487.23" y1="544.93" x2="516.10" y2="572.60"
        stroke="#f5f5f5" stroke-width="9.6"
        stroke-linecap="round"/>
</svg>
