<?xml version="1.0" encoding="utf-8"?>
<svg xmlns="http://www.w3.org/2000/svg"
     width="583.1" height="800.0"
     viewBox="0 0 583.1 800.0">
  <rect width="100%" height="100%" fill="#1a1a2e"/>
  <!-- Track outline -->
  <polyline points="318.19,556.29 233.51,707.40 224.62,720.94 212.51,730.83 199.51,739.37 185.90,746.38 171.29,751.93 152.91,756.60 134.44,759.35 120.38,760.00 107.08,758.97 94.61,756.13 83.32,751.84 79.47,749.89 75.73,747.44 69.43,742.18 63.68,736.42 61.14,733.17 59.08,729.68 56.23,723.65 53.95,716.92 52.66,710.15 52.24,703.27 52.77,696.38 54.22,689.58 56.76,682.76 59.72,676.73 63.51,670.85 70.29,663.23 78.80,655.93 96.34,644.52 113.97,631.76 118.40,626.97 121.75,622.30 124.07,617.39 125.10,613.70 125.66,609.83 125.68,605.99 125.24,602.35 124.26,599.07 122.78,595.85 120.94,592.93 118.93,590.50 116.23,588.41 113.22,586.87 110.57,585.81 108.87,585.30 107.16,585.13 103.90,585.22 99.74,585.72 75.84,590.42 72.05,590.56 68.65,590.12 63.76,588.61 58.97,586.28 54.67,583.27 50.88,579.57 47.59,575.20 44.85,570.20 42.51,563.67 40.92,557.14 40.00,548.99 41.23,519.47 48.23,474.46 50.12,467.79 52.19,462.56 54.06,458.83 56.15,455.52 60.89,449.76 66.53,444.89 72.83,441.04 75.98,439.54 79.63,438.33 87.67,436.94 96.15,436.61 101.59,437.56 106.72,439.30 112.57,442.08 118.13,445.62 122.70,449.58 126.86,454.02 134.92,464.30 158.88,503.25 162.86,508.33 166.91,512.35 173.77,517.61 180.83,521.89 184.65,523.63 188.66,524.82 196.73,526.21 204.87,526.83 208.91,526.68 212.87,525.97 219.93,524.08 227.35,520.89 232.76,517.19 238.03,512.67 242.41,508.00 246.21,502.21 248.86,496.66 250.14,493.41 251.09,489.98 253.60,475.14 254.04,458.39 251.95,435.55 242.86,398.29 236.58,384.87 227.82,371.60 217.59,359.96 207.85,351.72 196.95,345.07 182.11,339.28 133.30,327.52 120.41,322.02 109.06,315.37 101.11,309.11 94.17,301.72 86.61,291.08 80.33,279.08 76.12,266.88 73.58,253.49 72.77,235.35 73.81,213.13 87.42,83.76 90.35,72.00 92.02,67.54 94.14,63.23 97.60,57.79 101.95,52.56 107.81,47.45 114.39,43.37 118.68,41.68 123.12,40.59 127.44,40.00 132.74,40.09 137.98,41.03 144.15,42.95 150.17,45.58 155.42,48.63 160.35,52.17 170.12,60.83 180.13,72.68 189.25,86.48 205.93,122.53 226.26,183.67 247.71,242.62 252.51,251.46 257.25,258.43 266.71,269.66 274.24,276.51 277.83,279.23 282.19,281.74 293.23,286.26 306.26,289.72 319.87,290.55 332.92,289.54 341.96,287.54 349.68,284.88 353.84,283.19 358.16,280.80 388.82,257.63 423.54,227.73 463.51,203.85 480.67,196.17 496.03,191.06 499.85,190.14 503.70,189.76 511.46,190.14 519.24,191.68 523.95,193.83 528.11,196.73 532.57,200.69 536.48,205.33 539.43,210.44 541.53,215.94 542.72,221.55 543.06,227.25 541.92,233.52 537.29,239.28 531.09,243.15 524.54,246.61 520.30,248.91 514.50,251.25 505.60,255.09 495.53,267.47 454.50,333.25 401.37,410.40 320.79,551.65 318.19,556.29"
        fill="none"
        stroke="#e94560"
        stroke-width="8.0"
        stroke-linejoin="round"
        stroke-linecap="round"/>
  <!-- Start/finish line -->
  <line x1="335.64" y1="566.06" x2="300.75" y2="546.51"
        stroke="#f5f5f5" stroke-width="9.6"
        stroke-linecap="round"/>
</svg>
