<?xml version="1.0" encoding="utf-8"?>
<svg xmlns="http://www.w3.org/2000/svg"
     width="800.0" height="464.4"
     viewBox="0 0 800.0 464.4">
  <rect width="100%" height="100%" fill="#1a1a2e"/>
  <!-- Track outline -->
  <polyline points="345.01,384.73 526.50,415.49 598.85,424.39 620.26,423.70 629.33,422.43 639.09,420.06 681.09,402.58 688.12,399.03 694.71,394.66 710.84,380.93 727.20,363.58 738.40,347.03 747.41,329.55 753.66,314.07 757.87,297.12 760.00,270.08 758.62,242.27 754.07,220.82 746.88,201.46 736.83,184.31 726.54,170.30 722.11,164.58 717.06,159.39 700.52,145.58 678.86,131.70 643.33,118.34 609.46,109.07 586.11,104.29 217.41,42.25 179.15,40.00 168.95,40.86 159.15,42.74 145.18,46.29 130.40,51.80 112.76,61.48 95.75,73.98 81.68,87.83 69.25,104.21 57.42,125.86 48.16,149.83 42.57,175.93 40.06,199.54 40.00,208.36 41.04,217.02 45.43,238.92 52.02,261.42 58.30,275.06 65.02,286.21 74.62,298.02 86.90,309.29 102.78,321.14 133.19,336.70 165.34,350.55 189.54,357.20 337.38,383.43 345.01,384.73"
        fill="none"
        stroke="#e94560"
        stroke-width="8.0"
        stroke-linejoin="round"
        stroke-linecap="round"/>
  <!-- Start/finish line -->
  <line x1="348.35" y1="365.01" x2="341.66" y2="404.45"
        stroke="#f5f5f5" stroke-width="9.6"
        stroke-linecap="round"/>
</svg>
