<?xml version="1.0" encoding="utf-8"?>
<svg xmlns="http://www.w3.org/2000/svg"
     width="709.2" height="800.0"
     viewBox="0 0 709.2 800.0">
  <rect width="100%" height="100%" fill="#1a1a2e"/>
  <!-- Track outline -->
  <polyline points="215.97,539.01 273.37,614.53 346.57,696.65 367.74,714.48 389.14,728.48 419.37,743.06 447.19,753.58 456.68,756.39 466.25,758.04 494.98,760.00 523.49,759.64 532.51,758.44 541.34,755.85 568.51,744.00 595.23,729.73 604.10,723.67 611.88,716.93 625.28,703.02 637.44,688.36 642.51,681.09 646.97,672.98 657.01,651.71 665.66,625.94 669.20,594.33 669.24,565.58 668.32,555.46 666.17,545.52 657.70,517.74 644.52,485.15 591.80,396.08 399.73,135.41 373.51,107.23 351.06,87.48 333.28,74.46 314.62,63.81 287.35,51.64 258.25,42.76 228.90,40.00 202.90,40.31 182.75,42.23 144.74,52.22 124.26,60.91 105.21,73.30 97.50,79.32 89.65,86.94 72.89,107.72 57.63,130.10 48.18,150.30 42.26,167.59 40.73,176.47 40.04,186.54 40.00,207.49 42.34,231.97 50.37,266.16 62.85,302.01 104.07,379.31 211.89,533.61 215.97,539.01"
        fill="none"
        stroke="#e94560"
        stroke-width="8.0"
        stroke-linejoin="round"
        stroke-linecap="round"/>
  <!-- Start/finish line -->
  <line x1="231.90" y1="526.91" x2="200.05" y2="551.11"
        stroke="#f5f5f5" stroke-width="9.6"
        stroke-linecap="round"/>
</svg>
