<?xml version="1.0" encoding="utf-8"?>
<svg xmlns="http://www.w3.org/2000/svg"
     width="575.8" height="800.0"
     viewBox="0 0 575.8 800.0">
  <rect width="100%" height="100%" fill="#1a1a2e"/>
  <!-- Track outline -->
  <polyline points="248.76,251.52 264.18,232.01 398.20,76.46 415.47,60.63 427.20,52.49 439.37,45.78 448.60,42.31 457.63,40.40 466.41,40.00 474.87,40.84 481.89,42.51 488.28,45.07 493.34,48.18 497.92,52.17 503.23,58.87 507.64,65.97 511.38,74.23 515.54,89.55 517.72,107.02 516.39,162.19 517.25,284.31 523.19,352.49 522.86,358.63 521.93,363.82 519.62,372.39 516.26,380.85 512.57,387.27 507.77,393.02 502.60,397.41 496.51,401.40 490.34,404.27 484.95,405.66 479.47,406.14 474.01,405.63 467.82,403.63 461.68,400.48 456.61,397.05 452.84,393.26 450.00,389.15 447.83,385.12 446.12,380.81 444.60,376.18 443.34,370.28 441.85,344.99 438.85,316.70 435.32,305.73 430.81,295.92 425.36,287.02 419.16,279.20 412.08,272.18 404.48,266.24 396.63,261.73 388.35,258.18 380.58,255.74 373.06,254.55 365.54,254.51 354.53,255.15 343.35,257.34 337.21,259.57 331.37,262.65 324.46,267.59 284.70,307.93 237.55,363.42 180.19,435.51 137.07,497.50 131.67,509.55 129.14,520.20 127.60,536.84 128.06,551.52 128.86,555.51 130.43,559.14 134.09,565.72 139.22,573.34 145.08,580.00 155.35,587.18 165.46,592.13 169.84,593.76 174.49,594.60 187.98,595.08 201.97,593.92 208.56,592.13 214.67,589.41 224.00,584.55 233.15,577.89 242.26,566.64 249.06,555.47 250.74,551.84 252.09,547.45 261.23,502.89 272.28,454.65 276.68,444.12 281.56,436.18 287.01,429.36 293.15,423.62 299.73,419.07 306.84,415.60 314.38,413.44 322.15,412.49 329.88,412.69 337.59,413.96 345.39,416.52 353.21,420.11 371.66,431.56 392.48,447.67 472.00,521.28 488.44,541.82 501.30,562.37 513.39,586.86 523.00,612.79 530.08,640.64 534.13,668.44 535.75,694.89 534.60,704.51 532.31,712.77 528.87,721.82 524.41,730.32 519.42,737.34 513.61,743.48 506.92,748.63 499.60,752.82 491.66,756.05 483.49,758.32 476.08,759.52 468.42,760.00 448.98,759.12 353.29,744.56 256.11,723.50 214.81,706.78 157.25,676.46 134.26,670.32 114.24,664.30 106.86,659.75 100.72,654.48 94.74,647.74 81.77,624.36 69.00,599.15 56.83,583.59 46.61,569.99 43.06,561.61 41.07,553.51 40.00,545.21 40.19,536.48 42.92,523.63 46.64,512.30 50.00,505.84 60.74,489.52 248.76,251.52"
        fill="none"
        stroke="#e94560"
        stroke-width="8.0"
        stroke-linejoin="round"
        stroke-linecap="round"/>
  <!-- Start/finish line -->
  <line x1="233.07" y1="239.12" x2="264.45" y2="263.91"
        stroke="#f5f5f5" stroke-width="9.6"
        stroke-linecap="round"/>
</svg>
