<?xml version="1.0" encoding="utf-8"?>
<svg xmlns="http://www.w3.org/2000/svg"
     width="800.0" height="250.6"
     viewBox="0 0 800.0 250.6">
  <rect width="100%" height="100%" fill="#1a1a2e"/>
  <!-- Track outline -->
  <polyline points="745.17,94.82 743.67,96.39 742.61,97.29 741.94,97.65 741.28,97.84 740.65,97.97 739.99,97.97 739.19,97.92 738.39,97.75 737.57,97.32 736.88,96.86 736.26,96.32 735.79,95.84 735.36,95.23 735.10,94.59 734.83,93.74 734.77,93.05 734.75,92.31 734.83,91.61 734.93,90.90 735.31,89.17 735.81,86.72 736.01,85.50 736.05,84.73 735.97,84.21 735.73,83.76 735.43,83.43 734.95,83.21 734.45,83.08 733.90,83.03 733.25,83.03 732.66,83.14 732.09,83.35 731.68,83.61 731.34,84.02 731.10,84.58 731.06,85.09 731.68,93.19 731.85,97.58 731.94,98.47 732.13,99.24 732.33,99.88 732.57,100.42 732.88,100.87 733.27,101.30 733.76,101.78 735.89,103.65 738.38,105.23 739.02,105.73 739.46,106.08 740.06,106.74 740.56,107.30 741.06,108.01 744.97,114.88 745.52,115.73 746.14,116.73 747.31,118.82 749.07,122.47 751.37,127.09 752.29,128.94 753.53,131.56 754.65,134.19 756.03,138.83 756.48,140.37 756.89,141.94 757.23,143.61 757.47,144.56 759.11,150.02 759.47,151.09 759.78,152.25 759.92,153.19 760.00,154.15 759.98,155.06 759.95,155.92 759.88,156.77 759.75,157.57 759.46,158.37 759.12,159.03 758.62,159.75 757.91,160.38 756.86,160.95 755.56,161.55 754.36,161.99 753.33,162.30 752.56,162.51 751.58,162.70 750.67,162.74 749.79,162.64 748.86,162.42 747.99,162.10 747.33,161.72 746.63,161.21 746.01,160.55 745.60,159.81 745.29,159.05 745.13,158.31 745.13,157.36 745.16,156.16 745.24,155.30 745.36,154.54 745.71,153.36 746.11,152.48 746.91,150.47 747.37,148.95 747.50,148.02 747.49,147.09 747.37,146.47 747.09,145.76 746.56,144.82 745.79,143.87 744.46,142.35 742.25,139.75 740.07,137.17 738.43,135.12 737.59,134.02 736.44,132.79 734.01,130.73 733.29,130.17 728.96,126.98 727.08,125.56 724.77,124.06 723.42,123.31 722.15,122.72 721.02,122.23 719.94,121.89 718.95,121.63 717.94,121.45 716.80,121.37 716.12,121.41 715.34,121.54 714.69,121.82 714.12,122.29 713.73,122.83 713.57,123.27 713.46,123.75 713.44,124.25 713.54,124.71 713.76,125.23 714.34,125.96 717.27,128.45 717.81,128.94 718.32,129.57 718.71,130.28 718.97,130.95 719.11,131.79 719.16,132.59 719.11,133.19 718.97,133.77 718.72,134.61 718.38,135.29 717.88,135.91 717.34,136.42 716.75,136.76 716.03,136.93 715.12,136.98 714.39,136.86 713.67,136.61 713.00,136.21 712.35,135.42 711.70,134.39 711.19,133.28 710.66,131.86 710.26,130.21 710.15,128.75 710.12,126.86 710.18,124.86 710.17,123.76 710.14,122.95 709.97,122.37 709.78,121.82 709.54,121.47 709.21,121.08 708.90,120.81 705.70,118.39 705.03,117.93 704.38,117.32 703.94,116.82 702.44,114.72 701.55,113.16 700.97,112.05 700.53,111.25 700.15,110.44 699.72,109.58 699.48,108.65 699.24,107.67 699.14,106.63 699.12,101.17 699.23,99.02 699.40,96.45 699.50,95.50 699.54,94.73 699.51,93.97 699.40,93.28 699.23,92.64 699.02,92.00 698.44,90.66 697.88,89.29 697.46,88.41 697.15,87.90 696.84,87.50 696.56,87.24 696.22,87.01 695.86,86.92 695.44,86.92 695.00,86.99 694.57,87.12 694.13,87.36 693.84,87.71 693.73,88.09 693.69,88.71 693.74,89.36 693.81,90.07 694.72,102.19 694.69,103.28 694.58,104.08 694.42,104.88 694.20,105.46 693.94,105.91 693.57,106.28 693.06,106.50 692.46,106.60 691.82,106.60 691.11,106.53 690.25,106.40 689.51,106.30 688.44,106.26 687.57,106.31 686.78,106.49 686.16,106.72 685.60,107.03 685.08,107.41 684.62,107.96 681.24,114.43 680.87,115.19 680.61,115.93 680.44,116.68 680.39,117.49 680.43,118.39 680.58,119.29 680.89,120.11 681.29,120.82 681.89,121.42 682.77,121.99 683.59,122.38 684.34,122.65 685.17,122.80 686.37,122.97 687.34,123.13 688.73,123.38 689.89,123.62 694.78,125.04 695.70,125.34 696.48,125.73 697.11,126.21 697.36,126.72 697.51,127.23 697.47,127.77 697.38,128.23 697.19,128.78 696.88,129.18 696.39,129.54 695.91,129.79 695.33,129.88 694.62,129.87 693.99,129.73 692.94,129.25 691.95,128.68 690.96,128.12 690.12,127.72 689.26,127.45 688.02,127.23 686.96,127.19 685.85,127.28 684.65,127.54 683.43,127.90 682.09,128.42 680.56,129.06 678.85,129.82 678.00,130.18 677.04,130.63 676.13,130.87 675.28,131.01 674.40,131.03 673.65,130.98 672.99,130.84 672.38,130.64 671.76,130.29 671.11,129.87 670.35,129.22 669.67,128.50 669.15,127.72 668.86,127.12 668.63,126.26 668.46,125.39 668.36,124.37 668.21,122.15 668.20,118.88 668.25,117.84 668.29,116.80 668.36,116.02 668.57,115.16 668.80,114.57 669.07,113.89 669.42,113.23 670.02,111.91 670.46,110.93 670.62,110.11 670.73,109.49 670.73,108.84 670.70,108.31 670.60,107.54 670.40,106.88 670.11,106.23 669.75,105.60 669.35,104.88 668.68,103.93 668.04,103.09 667.40,102.17 666.85,101.50 666.25,100.67 665.92,100.04 665.72,99.45 665.59,98.81 665.52,98.13 665.52,97.64 665.55,96.93 665.67,95.97 665.96,94.27 666.23,92.35 666.42,90.43 666.61,87.56 666.93,82.21 666.93,81.82 666.87,81.51 666.80,81.19 666.66,80.90 666.34,80.63 665.94,80.43 665.55,80.37 665.17,80.43 664.75,80.54 664.39,80.77 664.12,81.09 663.79,81.65 663.57,82.21 663.40,82.71 663.08,83.27 662.53,83.97 661.58,84.86 660.43,85.71 659.03,86.57 657.43,87.46 655.77,88.33 654.90,88.79 654.25,89.10 653.44,89.35 652.43,89.62 651.69,89.66 651.04,89.64 650.42,89.44 649.77,89.10 648.96,88.47 648.17,87.73 647.43,86.89 646.71,85.77 646.19,84.81 645.59,83.75 645.12,82.81 644.53,81.55 643.97,80.43 643.23,79.15 642.67,78.30 641.94,77.32 641.06,76.35 640.23,75.52 639.43,74.76 638.19,73.81 637.16,73.25 635.87,72.58 634.79,72.24 633.67,71.97 632.66,71.86 631.81,71.86 630.96,71.92 630.02,72.06 629.14,72.24 628.15,72.39 627.32,72.55 626.36,72.62 625.51,72.60 624.63,72.51 623.91,72.37 623.20,72.15 622.48,71.88 621.81,71.67 621.07,71.49 620.12,71.36 619.16,71.33 618.04,71.36 613.37,71.83 607.27,72.37 604.74,72.66 602.84,72.95 596.76,73.94 592.14,74.91 590.53,75.25 589.11,75.52 585.46,76.29 584.21,76.49 583.26,76.64 572.95,77.80 570.60,78.02 569.17,78.22 568.12,78.39 567.04,78.61 563.37,79.58 558.93,80.75 553.23,82.30 547.32,83.89 543.98,84.78 538.69,86.23 536.66,86.78 535.13,87.27 533.40,87.92 532.16,88.43 531.13,88.98 529.87,89.67 528.73,90.42 527.64,91.29 524.99,93.26 524.60,93.45 524.16,93.58 523.69,93.68 523.25,93.70 522.83,93.58 522.41,93.43 522.09,93.08 521.87,92.73 521.73,92.33 521.65,91.93 521.60,91.50 521.66,91.09 521.77,90.68 521.99,90.24 522.30,89.82 522.69,89.50 524.74,88.15 529.73,85.02 531.81,83.64 533.31,82.66 534.44,81.84 535.37,81.13 536.65,79.95 537.22,79.34 538.06,78.16 539.25,76.58 539.61,75.98 539.92,75.25 540.09,74.53 540.24,73.73 540.26,72.98 540.25,72.13 540.24,71.56 539.63,61.91 539.56,60.13 539.57,59.54 539.67,58.74 539.85,57.94 540.16,57.09 540.53,56.44 541.17,55.68 541.78,55.19 542.32,54.85 542.98,54.60 543.68,54.41 544.42,54.22 546.75,53.86 553.88,52.72 556.67,52.15 557.67,51.91 561.57,50.82 563.77,50.05 568.87,48.29 569.46,48.05 569.96,47.73 570.41,47.43 570.85,47.05 571.17,46.54 571.36,45.93 571.40,45.28 571.37,44.67 571.16,44.13 570.91,43.65 570.61,43.28 570.18,42.87 569.71,42.59 569.02,42.38 568.47,42.38 567.40,42.53 564.70,42.96 563.56,43.14 562.35,43.30 561.24,43.33 560.11,43.23 558.94,43.02 557.88,42.66 555.29,41.60 554.28,41.20 553.15,40.76 551.77,40.39 550.67,40.15 549.52,40.00 548.31,40.03 547.21,40.13 546.12,40.34 545.21,40.64 544.00,41.12 540.44,42.60 539.09,43.23 537.69,43.84 536.84,44.14 536.02,44.37 534.99,44.59 533.69,44.75 532.07,44.80 530.77,44.74 529.09,44.75 527.53,44.94 525.96,45.21 524.29,45.57 522.53,46.00 521.01,46.36 519.77,46.66 518.81,46.97 517.97,47.35 517.16,47.79 516.39,48.33 515.55,49.03 514.95,49.71 514.04,50.86 513.13,52.06 511.98,53.14 510.15,54.68 507.70,56.44 506.46,57.35 504.73,58.71 500.18,62.88 499.10,63.82 498.38,64.35 497.56,64.85 496.65,65.31 495.48,65.79 494.09,66.22 492.09,66.72 482.13,69.12 477.02,70.34 474.30,71.06 473.54,71.27 472.77,71.51 471.91,71.83 467.61,73.64 455.77,78.67 432.55,88.49 427.07,90.87 426.11,91.34 425.34,91.77 424.55,92.23 423.93,92.62 423.25,93.19 422.75,93.67 422.06,94.42 421.36,95.31 420.39,96.61 417.13,101.04 415.90,102.67 415.01,103.89 414.15,105.12 411.31,109.09 408.94,112.40 407.00,115.05 397.11,128.45 396.28,129.54 395.53,130.57 394.84,131.33 392.85,133.07 391.36,134.33 390.15,135.27 388.95,136.20 387.90,137.18 387.18,137.91 386.70,138.55 386.22,139.20 385.82,139.80 385.43,140.62 385.14,141.51 384.64,143.20 384.01,145.92 383.36,149.35 382.66,152.17 382.26,153.64 381.92,154.49 381.49,155.23 380.86,156.10 380.07,157.36 379.28,158.72 378.63,160.12 377.30,163.22 374.58,169.29 373.84,170.68 373.23,171.68 372.02,173.45 370.49,175.83 369.44,177.23 368.84,178.32 368.28,179.50 367.88,180.59 367.45,181.81 366.08,185.41 363.86,190.37 360.85,196.82 360.20,197.80 359.61,198.54 359.14,198.99 358.45,199.43 357.77,199.72 357.07,199.88 356.36,199.95 355.52,200.00 354.78,199.93 354.17,199.78 353.60,199.43 353.12,199.05 352.66,198.55 349.23,193.40 348.83,192.90 348.28,192.41 347.72,192.11 347.21,191.94 346.70,191.84 346.17,191.83 345.51,191.98 344.73,192.19 341.75,193.30 340.40,193.81 339.29,194.14 338.06,194.42 336.74,194.69 335.42,194.90 333.93,195.12 332.52,195.42 331.03,195.80 329.25,196.36 327.55,197.02 324.94,198.01 320.94,199.66 319.18,200.32 318.56,200.46 317.73,200.56 317.12,200.55 316.39,200.48 315.61,200.33 314.59,200.08 312.85,199.59 311.41,199.22 310.47,199.04 309.68,198.97 308.77,199.09 307.38,199.39 283.78,205.54 275.47,207.45 272.20,208.16 268.64,208.97 265.45,209.63 263.80,209.93 259.62,210.47 258.03,210.57 256.44,210.56 253.55,210.34 252.28,210.21 251.30,210.06 250.47,209.91 243.16,207.44 227.68,202.35 226.06,201.86 224.80,201.40 223.82,200.95 215.46,196.46 213.21,195.28 211.46,194.29 210.50,193.71 209.53,193.04 208.83,192.41 208.22,191.74 207.28,191.03 206.48,190.73 205.79,190.58 204.88,190.48 203.97,190.52 202.92,190.71 201.77,190.96 200.72,191.13 199.96,191.14 199.08,191.00 196.67,190.42 192.61,189.53 190.92,189.17 189.34,188.87 187.58,188.71 184.30,188.39 181.87,188.23 179.69,188.19 175.06,188.14 167.87,187.94 166.78,187.84 164.94,187.66 163.17,187.39 161.70,187.10 159.88,186.65 158.33,186.15 155.21,185.01 153.97,184.58 152.63,184.18 151.06,183.84 149.28,183.52 146.75,183.16 144.27,182.79 142.24,182.46 138.52,181.85 136.20,181.37 134.16,180.89 132.26,180.31 130.86,179.83 129.40,179.28 128.16,178.71 127.07,178.16 126.10,177.50 124.71,176.47 120.66,173.60 111.56,166.78 110.55,166.07 109.29,165.14 108.58,164.56 107.95,163.94 107.34,163.32 106.82,162.70 106.37,162.16 106.04,161.66 105.72,161.02 105.38,160.27 105.06,159.36 104.68,158.07 104.32,156.63 102.68,149.72 102.45,148.84 102.12,147.95 101.66,147.03 101.20,146.10 100.84,145.44 100.42,144.75 99.79,143.87 99.37,143.26 98.80,142.53 98.27,141.82 97.69,141.17 97.01,140.51 96.38,139.72 95.75,138.89 95.10,138.00 94.39,137.01 93.37,135.29 92.79,134.15 92.19,132.84 91.82,131.78 91.41,130.42 90.70,128.04 90.22,126.20 89.82,124.75 89.55,123.75 89.36,123.20 89.03,122.59 88.65,122.06 88.28,121.63 87.77,121.14 87.11,120.71 86.40,120.36 85.79,120.21 85.17,120.16 84.59,120.19 84.03,120.28 83.42,120.44 82.89,120.66 82.41,120.97 81.97,121.37 81.49,121.91 80.99,122.64 80.43,123.73 79.69,125.25 79.13,126.48 78.59,127.55 78.10,128.44 77.48,129.29 76.89,129.98 76.21,130.72 75.60,131.34 74.95,131.92 74.27,132.46 73.49,132.98 72.64,133.55 71.74,134.13 70.82,134.62 69.73,135.10 68.72,135.46 67.78,135.72 66.42,135.99 65.16,136.14 63.96,136.21 62.74,136.25 61.53,136.23 60.25,136.11 59.18,135.94 58.18,135.70 57.27,135.41 56.41,135.13 55.37,134.74 54.53,134.34 53.67,133.85 52.79,133.26 40.00,123.36"
        fill="none"
        stroke="#e94560"
        stroke-width="8.0"
        stroke-linejoin="round"
        stroke-linecap="round"/>
  <!-- Start/finish line -->
  <line x1="744.11" y1="74.85" x2="746.24" y2="114.79"
        stroke="#f5f5f5" stroke-width="9.6"
        stroke-linecap="round"/>
</svg>
