<?xml version="1.0" encoding="utf-8"?>
<svg xmlns="http://www.w3.org/2000/svg"
     width="800.0" height="729.4"
     viewBox="0 0 800.0 729.4">
  <rect width="100%" height="100%" fill="#1a1a2e"/>
  <!-- Track outline -->
  <polyline points="534.64,518.52 655.96,419.13 698.46,373.43 720.48,344.55 739.30,312.69 751.96,279.60 759.34,244.89 760.00,210.17 755.16,176.00 749.43,154.72 741.61,134.24 731.38,115.39 716.84,96.82 699.45,80.27 680.73,66.58 660.81,56.41 639.56,49.22 618.09,44.20 585.39,40.00 552.48,40.54 519.56,46.10 486.86,55.73 420.81,85.29 359.27,124.21 224.84,229.57 99.45,341.84 78.09,369.50 64.00,395.40 51.56,424.28 43.30,454.79 40.00,488.15 42.20,521.91 47.82,545.37 56.40,568.42 67.08,589.58 86.57,616.29 109.91,638.93 137.65,658.46 168.04,673.38 190.39,681.38 213.83,687.07 237.50,689.38 262.61,687.34 287.93,681.51 312.37,673.38 344.95,656.83 376.33,637.31 437.10,598.39 534.64,518.52"
        fill="none"
        stroke="#e94560"
        stroke-width="8.0"
        stroke-linejoin="round"
        stroke-linecap="round"/>
  <!-- Start/finish line -->
  <line x1="521.97" y1="503.05" x2="547.32" y2="534.00"
        stroke="#f5f5f5" stroke-width="9.6"
        stroke-linecap="round"/>
</svg>
