<?xml version="1.0" encoding="utf-8"?>
<svg xmlns="http://www.w3.org/2000/svg"
     width="800.0" height="574.1"
     viewBox="0 0 800.0 574.1">
  <rect width="100%" height="100%" fill="#1a1a2e"/>
  <!-- Track outline -->
  <polyline points="487.46,533.82 499.62,534.08 564.70,533.63 592.12,529.18 617.75,522.28 640.19,513.28 658.84,503.98 671.93,495.76 687.57,483.41 704.20,467.82 719.35,449.23 732.38,429.69 741.10,414.00 748.06,397.46 754.56,374.65 758.73,350.40 760.00,326.09 758.77,302.10 755.77,280.67 750.37,259.81 741.47,237.72 729.79,216.49 715.19,196.53 698.19,178.28 679.01,161.98 657.35,147.29 629.85,132.12 597.10,117.76 458.13,74.79 311.45,43.34 272.48,40.00 238.94,40.24 217.05,42.42 196.23,47.00 169.24,56.41 143.40,68.57 123.76,81.21 108.06,93.35 97.46,103.31 80.42,125.14 63.73,149.87 57.06,161.98 52.00,174.65 45.40,199.32 41.07,225.66 40.00,245.12 41.29,264.55 46.13,289.62 53.72,314.82 62.84,337.15 74.31,358.80 108.58,405.73 118.76,416.31 138.69,431.25 164.61,447.57 198.37,465.06 237.93,481.20 377.91,516.23 487.46,533.82"
        fill="none"
        stroke="#e94560"
        stroke-width="8.0"
        stroke-linejoin="round"
        stroke-linecap="round"/>
  <!-- Start/finish line -->
  <line x1="490.36" y1="514.03" x2="484.56" y2="553.61"
        stroke="#f5f5f5" stroke-width="9.6"
        stroke-linecap="round"/>
</svg>
