<?xml version="1.0" encoding="utf-8"?>
<svg xmlns="http://www.w3.org/2000/svg"
     width="800.0" height="394.8"
     viewBox="0 0 800.0 394.8">
  <rect width="100%" height="100%" fill="#1a1a2e"/>
  <!-- Track outline -->
  <polyline points="464.27,343.55 332.89,348.81 204.86,354.79 188.86,354.05 173.05,352.33 157.40,349.41 142.16,345.20 127.43,339.50 113.49,332.19 100.59,323.46 88.68,313.37 82.86,308.05 77.71,302.33 74.63,296.53 71.65,290.02 57.05,265.43 48.77,247.21 45.83,237.08 41.50,215.32 40.27,204.41 40.00,193.31 40.49,181.78 41.95,169.80 44.70,157.53 48.42,145.72 52.94,134.44 58.26,123.72 64.32,113.49 86.46,84.32 109.32,59.46 116.85,52.61 124.55,47.01 129.57,44.33 134.91,42.16 140.06,40.77 145.24,40.04 150.41,40.00 155.48,40.68 160.33,42.07 164.87,44.15 168.86,46.93 172.41,50.29 175.47,54.18 177.97,58.51 179.88,63.19 181.03,68.12 181.28,73.10 180.71,78.07 179.29,82.85 177.11,87.34 174.19,91.47 170.64,95.14 166.66,98.20 161.83,100.92 151.50,104.81 141.03,108.59 135.93,111.09 131.56,113.85 127.45,117.18 123.84,121.00 120.88,125.21 118.56,129.75 116.96,134.56 116.13,139.54 116.13,144.59 116.89,149.59 118.37,154.47 120.55,159.12 123.45,163.47 126.98,167.40 131.15,170.86 135.77,173.83 140.92,176.46 146.18,178.54 150.15,179.81 154.87,180.74 172.10,182.10 194.10,182.17 258.75,175.44 275.06,171.61 289.74,166.49 321.10,149.63 374.54,111.42 385.47,105.33 396.56,100.03 419.03,91.59 441.95,85.51 453.45,83.41 476.04,81.48 487.03,81.68 497.61,83.19 507.49,86.27 516.34,90.93 524.18,96.77 537.86,109.66 541.60,112.48 545.40,114.64 550.64,116.69 556.24,118.00 561.66,118.32 567.03,117.84 572.24,116.67 577.31,114.86 582.00,112.70 587.07,109.64 599.50,99.33 611.94,88.93 617.03,85.61 621.78,83.29 626.93,81.62 632.15,80.75 637.24,80.75 642.17,81.58 645.19,82.61 648.07,84.02 650.70,85.75 653.00,87.76 655.07,90.04 656.84,92.52 658.99,96.61 660.51,101.02 661.40,105.75 661.66,110.63 661.27,115.71 660.29,120.78 658.69,125.88 656.61,130.88 651.23,140.89 646.18,148.38 640.22,155.65 633.30,162.56 625.62,169.17 617.04,175.18 607.55,180.49 597.15,184.72 566.98,193.95 558.42,198.06 554.68,200.54 551.21,203.50 547.45,207.67 544.29,212.40 542.81,215.63 541.68,219.01 540.98,222.42 540.70,225.76 540.84,229.12 541.35,232.39 542.85,237.10 545.09,241.53 548.05,245.64 551.62,249.31 555.83,252.51 560.49,255.13 565.59,257.15 570.95,258.58 576.72,259.40 582.43,259.68 591.45,259.06 600.71,257.15 661.13,233.42 671.34,229.55 681.54,226.51 691.77,224.61 701.90,223.79 711.80,224.23 721.27,226.04 730.10,229.18 734.14,231.12 738.05,233.50 742.65,237.06 746.96,241.19 750.65,245.70 753.76,250.58 756.32,255.80 758.23,261.28 759.45,266.92 760.00,272.68 759.81,278.50 758.95,284.26 757.39,290.02 755.32,295.42 753.28,299.49 750.94,303.24 745.21,310.23 738.31,316.43 730.40,321.67 721.64,325.96 712.15,329.37 702.12,332.05 691.51,333.88 630.16,336.92 464.27,343.55"
        fill="none"
        stroke="#e94560"
        stroke-width="8.0"
        stroke-linejoin="round"
        stroke-linecap="round"/>
  <!-- Start/finish line -->
  <line x1="465.07" y1="363.53" x2="463.47" y2="323.57"
        stroke="#f5f5f5" stroke-width="9.6"
        stroke-linecap="round"/>
</svg>
