<?xml version="1.0" encoding="utf-8"?>
<svg xmlns="http://www.w3.org/2000/svg"
     width="767.1" height="800.0"
     viewBox="0 0 767.1 800.0">
  <rect width="100%" height="100%" fill="#1a1a2e"/>
  <!-- Track outline -->
  <polyline points="575.36,280.81 540.76,256.97 447.27,203.58 371.41,179.64 350.12,172.31 332.09,164.10 320.59,156.07 310.71,146.37 303.20,135.78 296.03,123.23 285.79,101.70 274.45,80.73 262.21,67.85 248.86,58.28 233.36,50.11 217.07,44.41 199.72,41.05 182.12,40.00 164.32,40.75 147.49,43.90 139.19,46.92 131.47,50.75 124.63,55.53 119.89,60.08 115.68,65.23 112.19,70.63 108.98,77.44 106.89,83.99 106.33,87.38 106.24,90.60 106.48,93.83 107.06,96.98 107.93,100.00 109.32,103.12 114.69,111.26 121.80,119.54 129.64,126.29 139.09,131.81 161.47,137.95 184.94,143.11 198.38,147.48 210.04,152.81 218.72,159.12 225.60,165.43 227.91,167.87 229.84,170.62 232.75,176.42 235.20,183.23 236.46,189.92 237.00,196.22 237.00,199.58 236.57,202.87 234.83,208.98 232.20,215.12 228.82,220.47 224.61,225.26 217.05,231.53 208.43,236.76 198.86,240.52 189.41,242.62 182.33,243.03 175.56,242.39 169.14,241.16 162.36,238.62 151.37,231.74 139.22,222.41 122.94,207.45 106.98,193.61 100.31,189.54 94.08,186.66 87.79,184.73 80.95,183.78 74.06,183.78 68.24,184.39 64.34,185.40 60.97,186.86 57.78,188.49 54.74,190.46 52.03,192.59 49.51,195.07 47.30,197.78 45.32,200.80 43.60,203.79 42.17,207.59 40.91,213.79 40.00,221.46 40.02,228.99 42.50,240.11 46.67,250.46 51.53,259.34 58.17,267.82 79.49,287.43 105.04,305.98 127.13,318.06 150.48,327.38 183.10,337.02 217.05,343.19 277.78,342.54 293.12,343.02 306.32,344.88 316.29,348.45 324.97,353.23 330.45,357.43 335.14,362.39 338.83,367.54 341.76,373.44 343.14,377.41 344.17,381.65 344.49,386.20 342.43,396.27 338.33,407.29 329.66,423.64 321.65,440.26 319.87,447.79 318.90,455.18 318.77,461.93 319.85,469.02 321.94,475.36 325.13,481.67 329.12,487.17 334.27,492.22 339.97,496.26 346.01,499.31 352.66,501.35 362.92,502.60 373.80,502.13 384.24,499.65 394.38,495.41 402.89,490.66 412.12,483.00 438.30,449.72 464.77,414.89 475.38,403.97 484.92,396.27 494.25,391.05 503.22,387.69 509.91,386.20 516.35,385.75 522.98,386.06 529.51,387.25 535.59,389.25 541.45,392.13 546.84,395.79 551.83,400.31 555.91,405.09 559.43,410.58 562.14,416.18 564.16,422.66 565.50,432.22 565.74,441.99 565.07,448.74 563.49,455.12 559.91,463.43 554.09,472.75 524.25,507.18 488.72,548.22 463.40,584.51 443.64,619.65 436.13,639.12 432.16,657.23 431.68,665.91 432.20,674.26 433.66,682.46 439.60,698.00 447.40,711.97 453.72,721.20 461.21,729.17 478.68,741.99 497.22,752.44 507.71,756.98 517.59,759.49 524.69,760.00 531.83,759.63 538.41,758.54 545.29,756.40 551.50,753.22 556.80,749.45 561.51,744.64 563.92,741.38 566.03,737.72 567.94,732.87 571.37,712.58 574.04,691.69 577.27,677.99 579.88,671.81 584.02,665.23 648.07,602.05 701.28,545.10 712.34,528.41 720.34,511.52 724.67,496.22 726.92,480.05 727.10,460.92 724.86,441.79 719.82,423.78 711.88,406.44 692.73,379.79 671.48,356.96 648.83,337.56 592.27,292.48 575.36,280.81"
        fill="none"
        stroke="#e94560"
        stroke-width="8.0"
        stroke-linejoin="round"
        stroke-linecap="round"/>
  <!-- Start/finish line -->
  <line x1="564.00" y1="297.28" x2="586.71" y2="264.35"
        stroke="#f5f5f5" stroke-width="9.6"
        stroke-linecap="round"/>
</svg>
