<?xml version="1.0" encoding="utf-8"?>
<svg xmlns="http://www.w3.org/2000/svg"
     width="773.0" height="800.0"
     viewBox="0 0 773.0 800.0">
  <rect width="100%" height="100%" fill="#1a1a2e"/>
  <!-- Track outline -->
  <polyline points="382.79,581.23 240.14,709.26 213.80,729.32 190.93,743.46 171.21,752.84 152.73,758.53 143.38,759.87 134.51,760.00 125.94,758.84 118.09,756.71 110.48,753.46 103.06,748.70 91.19,737.19 79.73,721.76 65.96,697.48 54.01,670.17 46.35,646.29 41.50,622.15 40.00,600.04 41.21,578.25 45.49,556.60 52.51,535.48 63.68,512.17 78.98,486.78 170.54,356.18 193.61,328.87 214.66,308.02 232.45,293.83 249.49,283.74 258.67,280.09 267.60,277.87 276.19,277.07 283.61,277.51 290.77,279.11 297.49,282.05 302.05,284.89 306.47,288.36 310.51,292.54 313.89,297.43 317.40,305.04 319.99,313.80 321.15,322.56 320.58,330.69 318.71,338.79 315.79,346.30 307.83,357.38 296.10,368.63 254.31,402.65 206.28,444.27 167.86,489.23 137.40,533.34 126.50,554.60 120.02,574.16 118.54,583.55 118.17,592.66 119.03,601.16 121.33,609.21 124.84,616.68 129.07,623.04 132.98,627.22 137.40,630.64 142.14,633.35 147.05,635.40 154.39,637.09 162.16,637.27 170.70,636.02 184.07,631.93 199.02,624.99 215.97,614.81 274.94,568.47 332.72,514.62 356.64,488.03 375.23,461.75 387.69,438.40 396.69,413.72 400.84,389.13 402.80,363.65 403.15,336.30 404.43,311.17 406.87,300.68 410.14,291.52 414.10,283.96 417.24,279.78 420.75,276.44 424.50,273.77 428.49,271.82 434.84,270.44 441.72,270.66 449.28,271.33 468.51,274.93 487.56,277.24 493.05,276.44 498.08,275.15 502.75,273.15 507.06,270.35 510.78,267.15 514.32,263.37 517.34,258.97 519.51,254.03 520.77,246.91 520.85,238.87 520.48,229.84 517.29,205.20 514.85,179.06 517.13,157.75 522.17,138.05 529.96,120.22 540.62,103.99 560.85,82.82 583.33,64.95 600.55,54.19 617.75,46.63 636.34,41.87 654.90,40.00 671.70,40.36 687.48,43.42 695.81,46.54 703.61,50.67 710.76,56.14 716.92,62.63 722.49,70.28 726.97,78.82 729.99,87.18 732.06,96.34 732.97,106.84 727.80,137.88 722.01,172.61 726.46,208.40 730.31,240.56 728.79,251.14 726.05,260.21 722.33,268.75 713.33,282.89 700.93,296.76 669.13,325.76 634.54,352.48 614.64,365.51 595.97,374.54 578.88,378.72 561.20,380.68 536.61,380.77 513.78,382.28 506.36,384.81 499.93,388.15 494.25,392.77 489.86,397.98 486.06,404.25 482.06,412.34 470.28,446.58 457.20,484.16 445.12,507.68 431.27,528.72 386.99,577.45 382.79,581.23"
        fill="none"
        stroke="#e94560"
        stroke-width="8.0"
        stroke-linejoin="round"
        stroke-linecap="round"/>
  <!-- Start/finish line -->
  <line x1="396.15" y1="596.12" x2="369.43" y2="566.35"
        stroke="#f5f5f5" stroke-width="9.6"
        stroke-linecap="round"/>
</svg>
