<?xml version="1.0" encoding="utf-8"?>
<svg xmlns="http://www.w3.org/2000/svg"
     width="798.7" height="800.0"
     viewBox="0 0 798.7 800.0">
  <rect width="100%" height="100%" fill="#1a1a2e"/>
  <!-- Track outline -->
  <polyline points="225.39,581.05 306.05,661.51 347.54,695.59 378.22,715.05 412.01,732.48 450.91,747.83 489.85,758.00 520.43,760.00 549.15,758.25 571.96,755.72 594.43,750.39 623.22,738.50 651.17,722.95 673.16,707.39 693.04,689.72 710.78,670.42 726.45,648.52 740.95,621.36 751.82,591.15 757.31,555.40 758.69,519.40 758.04,491.35 754.38,464.43 745.89,435.81 734.74,409.39 713.44,374.74 670.92,322.17 502.27,149.85 458.06,113.33 418.57,86.46 391.79,72.53 364.83,61.99 328.14,49.93 291.41,41.71 265.49,40.00 240.54,41.67 213.96,46.23 187.42,54.54 158.39,68.83 130.92,87.11 108.00,107.26 88.36,129.33 75.21,148.39 64.26,169.20 52.70,197.82 44.18,227.83 40.66,252.26 40.00,276.89 42.49,306.78 47.14,334.75 55.81,364.72 68.54,395.66 71.79,400.59 74.65,404.74 76.66,409.34 78.73,413.86 85.35,422.50 118.83,470.01 219.83,575.51 225.39,581.05"
        fill="none"
        stroke="#e94560"
        stroke-width="8.0"
        stroke-linejoin="round"
        stroke-linecap="round"/>
  <!-- Start/finish line -->
  <line x1="239.51" y1="566.89" x2="211.26" y2="595.21"
        stroke="#f5f5f5" stroke-width="9.6"
        stroke-linecap="round"/>
</svg>
