<?xml version="1.0" encoding="utf-8"?>
<svg xmlns="http://www.w3.org/2000/svg"
     width="685.5" height="800.0"
     viewBox="0 0 685.5 800.0">
  <rect width="100%" height="100%" fill="#1a1a2e"/>
  <!-- Track outline -->
  <polyline points="45.47,272.93 40.00,399.05 41.16,420.09 41.88,423.96 42.77,427.39 44.06,430.31 45.63,432.43 47.50,434.17 49.45,435.56 51.28,436.54 53.18,437.21 55.23,437.64 59.32,437.79 63.63,437.37 72.21,435.52 132.43,412.55 142.94,409.76 147.69,409.36 152.39,409.51 157.19,410.22 161.66,411.50 164.70,413.13 167.55,415.19 171.27,418.13 174.71,421.44 176.62,423.96 178.67,427.36 211.58,487.74 215.07,492.49 218.13,495.87 221.06,498.75 224.17,501.17 227.74,503.01 231.49,504.43 235.26,505.56 239.19,506.30 243.61,506.48 248.54,506.08 256.38,505.07 266.84,502.03 332.70,466.78 393.20,429.27 397.88,425.46 400.78,422.09 402.99,418.53 404.61,414.79 405.35,412.49 405.87,410.12 406.04,407.73 405.76,404.94 405.09,402.09 404.17,399.39 403.07,396.84 401.73,394.42 400.11,392.36 398.13,390.74 395.90,389.45 393.61,388.43 390.32,387.30 386.88,386.72 382.82,386.81 378.45,387.64 372.65,389.66 365.25,393.04 292.96,430.28 283.69,433.71 275.88,435.71 268.25,437.00 260.62,437.49 252.09,437.12 243.92,435.89 238.22,434.36 232.80,432.03 225.99,427.95 219.72,422.85 215.46,417.76 211.94,412.18 208.96,406.56 206.52,400.52 204.72,394.17 203.23,385.18 193.26,272.32 187.28,162.89 187.82,156.85 188.74,152.65 189.90,148.32 191.44,144.43 193.26,141.45 195.39,138.93 197.65,137.03 200.20,135.59 202.38,134.73 204.72,134.12 207.01,133.81 209.01,133.81 210.99,134.09 212.91,134.61 215.02,135.47 217.10,136.60 218.90,138.01 220.18,139.52 221.24,141.24 222.11,143.26 223.22,147.34 223.96,153.48 224.53,231.76 226.30,306.80 227.48,310.36 228.94,312.66 230.10,314.38 231.38,315.97 232.90,317.29 235.08,318.37 237.55,319.04 239.96,319.41 242.89,319.38 245.74,318.89 247.83,318.37 249.93,317.63 251.94,316.56 254.07,314.87 256.10,312.75 257.77,310.58 258.69,309.01 259.39,307.38 260.03,305.02 262.24,273.67 264.99,238.79 267.68,229.22 270.79,222.25 273.03,218.73 275.44,215.84 278.04,212.90 280.89,210.26 284.25,207.90 287.80,206.09 290.75,205.11 294.01,204.58 301.03,204.49 308.63,205.44 315.08,207.59 320.91,210.44 324.35,212.47 328.49,215.60 422.20,301.86 562.13,456.48 572.38,470.56 580.78,485.68 585.64,499.15 589.08,514.27 592.78,552.62 602.39,739.11 603.06,743.89 603.98,747.18 604.96,749.63 606.19,751.99 607.70,754.02 609.76,755.74 612.15,757.12 614.62,758.22 617.13,759.11 619.75,759.72 622.40,760.00 626.59,759.60 630.67,758.62 634.22,757.52 637.45,755.89 639.30,754.48 641.02,752.82 642.44,750.80 643.64,747.91 644.52,744.60 645.11,741.26 645.47,737.54 645.31,732.05 618.91,461.42 584.82,185.10 582.27,176.76 579.50,171.45 575.64,165.53 571.07,160.38 567.50,157.31 563.62,154.61 559.74,152.62 556.40,151.57 553.09,151.02 549.83,150.84 546.82,150.90 543.89,151.27 541.09,152.03 538.60,153.08 536.26,154.46 533.90,156.42 529.17,162.56 523.88,170.96 510.52,194.25 496.42,215.90 492.36,219.74 488.53,222.35 484.45,224.25 476.87,225.97 469.11,226.49 462.69,226.64 456.29,226.06 448.48,223.97 440.88,221.12 435.20,218.73 429.88,215.84 425.05,212.38 418.94,206.92 292.40,74.63 277.88,62.85 268.99,57.70 258.59,53.07 236.65,45.52 214.87,40.34 205.72,40.00 197.68,40.98 189.97,42.79 182.70,45.37 176.74,48.01 171.04,51.35 164.39,56.14 158.32,62.12 153.60,69.63 149.92,77.89 147.56,85.25 145.89,93.01 143.71,112.98 135.10,328.31 134.54,335.45 133.41,340.33 132.28,342.79 130.86,345.12 129.24,347.17 127.45,348.80 125.49,349.90 123.31,350.61 121.02,350.98 118.81,351.16 115.96,351.04 113.11,350.49 110.47,349.60 108.31,348.58 106.33,347.30 104.53,345.49 102.40,341.90 100.60,337.39 99.21,332.91 98.31,328.21 97.80,321.93 91.82,172.89 90.84,166.30 89.37,161.82 87.96,159.24 86.24,156.97 84.24,154.92 81.49,152.74 78.33,150.84 75.04,149.46 71.39,148.57 67.56,148.17 63.97,148.44 61.71,149.00 59.50,149.89 57.47,151.02 55.67,152.37 53.90,154.37 52.46,156.73 51.23,159.27 49.61,163.54 48.50,168.08 47.86,176.91 45.86,263.95 45.47,272.93"
        fill="none"
        stroke="#e94560"
        stroke-width="8.0"
        stroke-linejoin="round"
        stroke-linecap="round"/>
  <!-- Start/finish line -->
  <line x1="65.45" y1="273.80" x2="25.49" y2="272.07"
        stroke="#f5f5f5" stroke-width="9.6"
        stroke-linecap="round"/>
</svg>
