<?xml version="1.0" encoding="utf-8"?>
<svg xmlns="http://www.w3.org/2000/svg"
     width="567.7" height="800.0"
     viewBox="0 0 567.7 800.0">
  <rect width="100%" height="100%" fill="#1a1a2e"/>
  <!-- Track outline -->
  <polyline points="45.09,368.04 40.00,444.68 43.84,517.36 55.28,570.73 74.31,631.54 84.69,654.93 96.32,675.32 110.83,693.79 133.71,713.82 160.62,731.09 187.53,744.41 210.40,752.56 233.37,757.72 256.34,760.00 291.13,758.32 325.25,750.88 355.91,739.61 385.42,722.58 419.34,694.75 450.67,658.89 479.03,611.75 501.52,555.02 520.26,465.19 527.66,370.67 522.85,295.95 509.40,229.03 493.44,184.29 472.11,145.55 441.83,108.97 407.81,79.10 378.30,60.51 347.55,48.16 325.35,42.76 302.28,40.00 278.93,40.24 252.30,44.32 225.30,51.99 201.75,61.71 188.20,69.39 176.57,78.14 162.92,90.61 123.61,139.07 91.80,203.96 64.03,280.72 45.57,360.48 45.09,368.04"
        fill="none"
        stroke="#e94560"
        stroke-width="8.0"
        stroke-linejoin="round"
        stroke-linecap="round"/>
  <!-- Start/finish line -->
  <line x1="65.05" y1="369.36" x2="25.14" y2="366.71"
        stroke="#f5f5f5" stroke-width="9.6"
        stroke-linecap="round"/>
</svg>
