<?xml version="1.0" encoding="utf-8"?>
<svg xmlns="http://www.w3.org/2000/svg"
     width="800.0" height="754.3"
     viewBox="0 0 800.0 754.3">
  <rect width="100%" height="100%" fill="#1a1a2e"/>
  <!-- Track outline -->
  <polyline points="430.46,626.41 404.01,648.33 376.59,665.07 346.03,678.02 313.67,686.92 280.70,691.43 248.40,691.50 218.21,686.32 181.38,673.04 153.48,659.82 127.81,644.28 115.33,632.26 104.97,619.51 84.48,591.22 67.60,560.87 56.15,531.78 47.29,499.57 42.53,476.66 40.00,453.35 40.48,440.26 42.23,427.64 45.42,416.35 49.34,408.12 54.34,400.75 60.31,394.44 67.96,388.99 76.70,384.61 85.14,381.82 89.96,381.02 94.66,380.82 99.30,381.29 103.76,382.48 110.57,386.27 117.14,391.78 122.62,397.69 127.81,405.46 131.54,413.90 134.32,423.93 135.94,435.02 136.00,466.36 133.11,497.91 133.35,506.14 134.50,514.18 137.75,526.93 142.75,539.42 146.25,545.66 150.29,551.24 155.35,556.35 163.85,562.46 174.03,567.77 184.52,571.36 195.06,572.75 205.97,572.36 216.46,570.50 226.46,567.04 236.05,562.13 244.84,556.35 255.75,546.99 265.64,534.83 281.25,506.21 293.24,475.33 296.61,457.06 297.34,441.33 296.91,432.69 295.65,424.92 294.02,417.22 291.37,409.18 284.50,395.63 275.34,381.89 264.61,370.07 252.08,358.64 232.13,343.57 213.27,328.56 204.41,318.73 197.72,308.30 193.62,298.81 190.48,288.45 188.92,278.15 188.98,268.46 190.42,258.83 193.56,249.79 197.60,243.02 202.84,236.45 208.81,230.60 214.83,225.95 221.58,222.37 228.75,220.11 236.53,218.78 253.34,218.71 270.94,221.44 287.45,226.75 302.88,234.05 315.78,242.29 327.59,251.85 339.04,263.08 349.47,275.50 358.87,289.31 366.94,304.05 373.45,319.59 378.45,335.86 381.89,353.13 383.70,370.73 382.31,406.59 375.92,439.20 366.76,467.82 352.78,497.18 340.67,515.44 330.24,533.64 327.65,542.54 326.45,551.17 326.75,559.60 328.01,565.71 330.06,571.82 333.01,577.54 336.69,582.45 341.69,586.63 347.84,590.15 354.41,592.81 360.86,594.60 368.57,595.40 376.35,594.87 384.24,593.14 399.49,586.37 413.05,577.73 418.95,572.75 424.32,567.11 444.14,543.13 502.06,457.86 517.61,425.65 527.61,395.10 530.75,371.46 529.90,348.81 525.50,326.50 517.67,305.31 505.38,284.86 492.42,268.19 481.45,257.63 455.60,238.24 420.58,216.32 386.89,193.08 374.84,180.26 366.22,168.24 357.48,152.77 354.17,145.53 351.52,137.29 348.20,119.96 347.36,101.03 349.23,90.21 352.48,79.71 356.58,70.48 360.37,64.37 364.71,59.06 369.54,54.41 374.72,50.29 380.38,46.71 386.83,43.92 396.66,41.53 407.62,40.20 417.57,40.00 426.31,41.13 434.26,43.32 442.22,45.84 450.47,49.43 464.45,57.47 478.68,67.23 501.22,87.09 522.97,111.46 544.31,139.95 724.62,409.91 738.61,438.67 749.03,467.69 756.08,496.85 760.00,526.46 760.00,564.78 755.12,600.18 746.44,632.06 739.45,648.73 730.29,664.93 716.67,682.60 701.06,697.74 692.02,703.85 682.74,708.57 673.40,711.82 665.14,713.68 656.94,714.28 648.99,713.41 642.78,711.29 636.51,708.03 630.85,704.18 626.21,700.33 622.95,696.68 620.54,692.83 618.68,688.38 616.63,680.81 615.42,672.04 615.66,663.27 617.71,654.31 621.45,645.28 626.93,635.51 652.91,605.23 678.34,575.21 682.98,566.05 685.87,557.74 687.50,549.31 688.10,540.81 687.50,532.31 685.39,523.87 680.57,513.98 673.70,504.22 665.62,495.98 656.58,489.61 646.46,484.63 635.97,481.31 625.67,479.78 615.00,479.84 603.79,481.31 577.94,489.34 554.91,499.63 547.74,503.89 541.29,508.80 513.51,532.97 430.46,626.41"
        fill="none"
        stroke="#e94560"
        stroke-width="8.0"
        stroke-linejoin="round"
        stroke-linecap="round"/>
  <!-- Start/finish line -->
  <line x1="444.97" y1="640.18" x2="415.96" y2="612.65"
        stroke="#f5f5f5" stroke-width="9.6"
        stroke-linecap="round"/>
</svg>
