<?xml version="1.0" encoding="utf-8"?>
<svg xmlns="http://www.w3.org/2000/svg"
     width="800.0" height="447.9"
     viewBox="0 0 800.0 447.9">
  <rect width="100%" height="100%" fill="#1a1a2e"/>
  <!-- Track outline -->
  <polyline points="428.78,254.08 200.74,314.03 184.54,316.48 169.97,316.57 154.91,314.65 139.98,310.79 129.18,304.76 120.23,295.92 114.76,286.90 111.70,277.27 111.35,268.26 114.76,257.14 150.93,179.16 156.26,170.15 162.65,164.02 171.54,159.21 182.62,155.18 193.42,153.34 204.44,153.43 220.57,155.00 240.32,159.12 316.15,182.05 325.95,183.80 335.55,183.80 344.15,182.22 353.74,178.20 359.99,174.26 366.17,168.92 371.65,161.92 374.42,154.30 375.34,147.74 374.20,140.65 371.86,133.39 367.52,126.65 360.28,119.38 350.19,112.91 330.29,104.50 255.25,85.77 245.16,83.15 237.13,79.12 230.02,72.30 220.78,62.84 212.75,54.70 206.07,48.31 199.75,43.50 192.71,40.88 184.82,40.00 176.79,40.61 169.69,42.63 161.23,46.91 155.48,50.68 151.07,56.63 145.67,64.68 45.33,253.20 42.20,261.61 40.36,271.06 40.00,280.77 41.71,290.40 44.19,299.94 47.67,310.18 52.22,321.47 58.97,333.90 96.92,384.93 103.46,392.28 111.49,399.19 119.94,403.92 128.19,406.46 138.35,407.94 152.42,407.86 170.11,405.76 188.24,402.08 445.05,329.00 463.96,321.30 530.97,291.89 539.42,288.91 548.52,287.43 555.91,287.43 564.79,288.91 575.45,293.12 646.87,329.61 657.88,334.16 670.39,337.31 685.74,339.33 700.45,339.15 714.59,337.84 726.60,335.30 738.89,332.06 745.79,328.56 751.90,323.92 756.45,318.50 759.01,311.67 760.00,303.71 758.37,296.00 755.88,288.30 750.76,281.21 744.44,276.40 736.98,272.46 725.89,267.91 696.47,260.82 682.19,257.41 669.75,253.47 653.83,246.55 579.86,212.42 570.62,210.06 561.88,209.09 551.93,210.23 533.81,214.52 505.53,225.37 477.74,237.45 453.30,247.17 428.78,254.08"
        fill="none"
        stroke="#e94560"
        stroke-width="8.0"
        stroke-linejoin="round"
        stroke-linecap="round"/>
  <!-- Start/finish line -->
  <line x1="433.90" y1="273.41" x2="423.66" y2="234.75"
        stroke="#f5f5f5" stroke-width="9.6"
        stroke-linecap="round"/>
</svg>
