<?xml version="1.0" encoding="utf-8"?>
<svg xmlns="http://www.w3.org/2000/svg"
     width="659.1" height="800.0"
     viewBox="0 0 659.1 800.0">
  <rect width="100%" height="100%" fill="#1a1a2e"/>
  <!-- Track outline -->
  <polyline points="399.78,629.08 404.56,634.44 442.38,692.99 454.63,720.49 465.72,743.19 470.17,748.51 474.64,752.52 479.42,755.61 484.29,757.88 489.39,759.41 494.40,760.00 497.85,759.83 501.31,759.16 504.57,758.09 507.47,756.55 509.84,754.71 511.91,752.45 513.69,749.70 515.20,746.32 516.91,733.16 517.04,716.42 518.56,702.32 520.86,696.26 523.69,691.28 527.18,686.97 531.23,683.17 535.88,680.00 540.94,677.71 546.84,676.56 553.22,676.42 560.01,676.70 574.39,678.96 588.42,680.35 594.28,679.27 599.58,677.36 604.32,674.75 608.50,671.44 612.18,667.44 615.11,662.98 617.25,657.97 618.60,652.47 619.06,646.83 618.50,640.70 616.89,634.44 614.26,627.86 604.09,611.91 592.27,597.26 579.89,585.28 574.59,578.32 536.70,533.52 492.16,470.27 451.27,415.26 445.31,409.52 440.28,405.73 434.94,403.01 430.50,401.51 425.82,400.54 421.18,400.16 416.84,400.40 413.21,401.20 409.69,402.49 406.47,404.26 403.60,406.46 401.00,409.28 398.76,412.65 396.99,416.41 395.73,420.35 395.01,427.00 395.50,434.27 396.95,441.41 399.19,448.37 402.52,455.23 407.39,462.54 430.99,484.89 457.59,507.90 473.00,523.60 485.11,538.43 491.33,549.18 495.35,559.91 496.83,567.25 497.42,574.73 497.00,581.84 495.75,587.82 493.64,593.53 490.71,598.79 486.36,604.12 481.03,608.95 475.27,612.75 469.34,615.29 463.02,616.89 456.74,617.48 450.88,617.07 445.08,615.74 439.25,613.55 432.18,609.86 425.03,604.92 417.82,598.58 401.43,578.56 385.30,554.30 354.52,498.29 343.52,471.03 335.13,443.46 327.10,388.88 326.14,349.02 324.17,313.02 320.64,299.90 315.54,289.14 311.10,282.22 305.83,275.78 299.21,269.58 279.10,257.81 257.93,246.85 245.88,239.12 235.48,230.63 225.37,218.83 217.11,205.60 211.97,193.10 208.02,178.37 201.87,139.53 195.02,100.71 189.59,85.53 182.94,73.24 174.97,62.98 165.66,54.38 158.91,49.75 151.66,45.85 144.13,42.92 136.32,41.01 128.26,40.03 120.26,40.00 112.33,40.91 104.42,42.72 96.95,45.47 90.01,49.05 83.45,53.51 77.46,59.01 68.67,71.05 61.04,86.19 50.76,113.66 43.09,143.88 40.00,170.37 40.30,196.75 44.12,223.94 51.69,251.48 65.41,284.10 84.01,316.75 110.09,351.66 142.12,386.93 251.22,484.05 349.88,573.10 399.78,629.08"
        fill="none"
        stroke="#e94560"
        stroke-width="8.0"
        stroke-linejoin="round"
        stroke-linecap="round"/>
  <!-- Start/finish line -->
  <line x1="414.71" y1="615.77" x2="384.85" y2="642.38"
        stroke="#f5f5f5" stroke-width="9.6"
        stroke-linecap="round"/>
</svg>
