<?xml version="1.0" encoding="utf-8"?>
<svg xmlns="http://www.w3.org/2000/svg"
     width="800.0" height="625.7"
     viewBox="0 0 800.0 625.7">
  <rect width="100%" height="100%" fill="#1a1a2e"/>
  <!-- Track outline -->
  <polyline points="321.99,87.50 189.42,124.53 148.34,141.54 137.97,146.80 128.09,153.28 110.26,168.80 93.61,185.97 79.71,205.17 67.04,226.64 55.95,249.30 52.12,260.91 49.41,273.71 40.00,348.56 41.98,373.01 47.21,401.23 65.61,451.41 73.61,467.40 82.99,482.39 100.69,505.00 119.51,525.43 141.93,543.74 163.68,556.54 197.61,570.34 232.12,581.65 256.26,585.24 281.68,585.68 310.54,583.01 598.63,521.88 610.94,518.02 621.27,513.11 655.36,491.29 687.67,467.27 696.22,459.65 703.04,452.07 717.97,430.02 732.83,404.12 745.01,374.06 753.53,342.51 759.65,310.17 760.00,276.51 757.13,239.79 745.78,198.46 731.46,163.97 712.16,131.90 693.28,109.02 663.56,83.56 637.44,68.00 605.26,52.88 571.93,43.51 541.57,40.00 505.02,41.80 464.68,50.91 356.50,77.86 321.99,87.50"
        fill="none"
        stroke="#e94560"
        stroke-width="8.0"
        stroke-linejoin="round"
        stroke-linecap="round"/>
  <!-- Start/finish line -->
  <line x1="327.37" y1="106.77" x2="316.61" y2="68.24"
        stroke="#f5f5f5" stroke-width="9.6"
        stroke-linecap="round"/>
</svg>
