<?xml version="1.0" encoding="utf-8"?>
<svg xmlns="http://www.w3.org/2000/svg"
     width="800.0" height="401.9"
     viewBox="0 0 800.0 401.9">
  <rect width="100%" height="100%" fill="#1a1a2e"/>
  <!-- Track outline -->
  <polyline points="309.99,360.03 176.70,357.10 112.44,359.94 93.09,360.19 82.14,359.67 73.48,357.90 65.72,354.57 58.34,350.11 52.74,345.13 47.84,339.05 43.93,332.33 41.09,324.72 40.00,317.27 40.00,309.60 41.12,301.84 43.21,294.63 45.31,290.05 47.85,285.96 50.72,282.38 54.33,279.09 58.35,276.49 62.58,274.35 70.19,271.82 78.25,270.38 87.38,269.62 96.50,269.74 111.98,271.91 218.52,298.48 234.17,299.77 241.18,299.58 248.22,298.57 256.47,296.19 264.49,292.56 270.78,288.25 276.46,282.97 280.21,278.26 282.19,271.75 282.19,265.55 279.37,259.05 276.54,251.69 275.41,243.90 275.84,236.35 277.03,228.99 278.90,222.12 281.42,215.64 285.22,208.37 289.80,201.80 295.86,195.72 302.58,190.87 310.29,187.11 318.35,184.54 326.83,183.20 335.28,181.95 343.19,179.63 350.78,176.21 355.38,173.30 359.79,169.82 363.67,165.55 366.64,161.02 369.23,155.89 371.21,150.30 372.78,141.99 373.29,132.25 371.19,110.38 368.83,88.45 368.88,78.70 369.81,70.27 371.02,64.83 372.68,59.70 374.76,55.21 377.70,51.06 381.17,47.73 384.92,44.98 389.53,42.57 394.49,40.98 399.54,40.12 404.87,40.00 410.29,40.70 415.51,42.26 420.27,44.52 424.88,47.54 429.09,51.45 434.32,58.60 438.61,66.88 441.18,73.97 443.00,81.54 444.75,98.44 444.03,117.28 430.51,230.18 430.69,246.89 432.41,259.96 434.09,266.35 436.26,271.91 438.85,276.79 442.16,281.41 445.94,285.23 449.95,288.31 454.56,290.78 459.44,292.37 464.36,293.29 469.30,293.66 474.27,293.35 479.04,292.10 483.26,289.93 487.32,286.94 491.11,283.30 496.27,276.83 500.59,269.34 503.10,262.84 504.78,255.84 505.70,248.81 505.69,240.17 492.51,164.69 491.02,146.61 491.88,129.26 493.38,120.86 495.60,112.94 498.78,105.43 502.69,98.74 507.68,92.57 513.26,87.41 519.74,82.83 526.61,79.22 534.19,76.47 542.06,74.70 550.54,73.85 559.27,73.75 578.22,75.28 699.90,95.38 716.92,99.87 724.81,102.93 732.31,106.77 738.77,111.17 744.65,116.55 749.33,122.47 753.31,129.32 756.23,136.43 758.39,144.19 759.59,152.23 760.00,160.63 758.58,178.83 752.64,214.05 749.87,222.51 746.56,229.42 742.09,236.17 736.98,241.88 730.93,246.77 724.42,250.56 717.18,253.64 709.65,255.66 701.68,256.54 693.56,256.27 685.16,254.65 676.69,252.02 659.23,244.42 610.04,220.31 601.67,217.96 594.40,217.02 586.94,216.68 579.44,217.57 573.79,219.06 568.05,221.32 562.82,224.56 558.71,228.26 554.96,232.72 552.01,237.91 550.23,242.71 549.02,248.05 548.32,254.47 550.03,277.89 552.32,301.45 552.04,310.33 550.95,317.85 548.76,325.45 545.70,332.27 541.40,338.68 536.36,344.06 530.06,348.95 523.18,352.79 515.16,355.91 506.71,358.14 487.70,360.86 396.02,361.93 309.99,360.03"
        fill="none"
        stroke="#e94560"
        stroke-width="8.0"
        stroke-linejoin="round"
        stroke-linecap="round"/>
  <!-- Start/finish line -->
  <line x1="309.55" y1="380.03" x2="310.43" y2="340.04"
        stroke="#f5f5f5" stroke-width="9.6"
        stroke-linecap="round"/>
</svg>
