<?xml version="1.0" encoding="utf-8"?>
<svg xmlns="http://www.w3.org/2000/svg"
     width="800.0" height="561.5"
     viewBox="0 0 800.0 561.5">
  <rect width="100%" height="100%" fill="#1a1a2e"/>
  <!-- Track outline -->
  <polyline points="398.35,521.52 438.90,519.34 558.39,504.57 599.70,493.33 639.30,477.72 672.16,456.99 701.91,430.81 716.40,415.03 729.49,398.00 740.42,379.95 749.19,360.99 755.17,342.19 758.79,322.89 760.00,302.58 759.05,281.94 756.12,260.79 751.23,240.06 744.81,221.35 736.61,203.47 715.13,170.33 687.73,138.35 658.05,111.50 622.14,89.43 606.00,81.62 586.17,74.66 511.04,57.37 420.66,43.86 332.69,40.00 258.07,42.52 235.25,45.62 216.19,50.24 175.83,64.92 139.92,84.98 108.96,109.74 81.95,139.36 70.13,156.23 59.96,174.19 51.50,193.40 45.21,213.29 41.53,233.52 40.00,253.82 40.13,273.29 42.16,292.59 46.17,311.81 52.20,330.69 71.59,368.79 94.41,402.61 121.74,432.15 137.75,445.07 154.85,456.49 191.08,474.36 226.04,487.79 266.84,499.54 328.18,513.97 398.35,521.52"
        fill="none"
        stroke="#e94560"
        stroke-width="8.0"
        stroke-linejoin="round"
        stroke-linecap="round"/>
  <!-- Start/finish line -->
  <line x1="399.32" y1="501.55" x2="397.38" y2="541.50"
        stroke="#f5f5f5" stroke-width="9.6"
        stroke-linecap="round"/>
</svg>
