<?xml version="1.0" encoding="utf-8"?>
<svg xmlns="http://www.w3.org/2000/svg"
     width="485.0" height="800.0"
     viewBox="0 0 485.0 800.0">
  <rect width="100%" height="100%" fill="#1a1a2e"/>
  <!-- Track outline -->
  <polyline points="40.00,408.35 43.05,490.31 49.30,571.46 61.03,631.80 67.70,650.53 74.87,666.01 84.77,682.27 90.93,690.07 98.42,697.91 114.30,711.77 133.38,725.46 158.80,739.11 184.19,749.88 199.97,754.92 215.39,758.09 235.36,759.88 254.44,760.00 265.04,759.43 275.98,757.68 301.67,750.98 328.13,741.31 343.37,733.10 357.78,722.86 379.54,703.56 398.53,684.05 404.50,677.15 409.56,669.43 420.84,645.82 430.83,618.55 435.22,600.35 438.06,578.57 445.01,385.55 443.42,338.91 428.64,186.81 420.78,155.97 412.37,135.73 402.06,117.73 396.43,109.65 389.11,101.40 363.79,80.80 337.24,62.59 328.77,57.88 319.81,54.43 285.77,46.22 252.03,40.57 244.10,40.00 236.39,40.37 209.39,43.74 181.81,49.26 171.69,52.76 162.46,57.31 146.97,66.66 132.28,77.18 118.02,90.91 81.88,136.91 72.27,155.73 63.71,177.47 47.74,251.79 45.42,275.56 40.00,408.35"
        fill="none"
        stroke="#e94560"
        stroke-width="8.0"
        stroke-linejoin="round"
        stroke-linecap="round"/>
  <!-- Start/finish line -->
  <line x1="60.00" y1="408.57" x2="20.00" y2="408.13"
        stroke="#f5f5f5" stroke-width="9.6"
        stroke-linecap="round"/>
</svg>
