<?xml version="1.0" encoding="utf-8"?>
<svg xmlns="http://www.w3.org/2000/svg"
     width="792.1" height="800.0"
     viewBox="0 0 792.1 800.0">
  <rect width="100%" height="100%" fill="#1a1a2e"/>
  <!-- Track outline -->
  <polyline points="232.82,610.52 280.03,659.29 307.73,687.40 335.12,707.91 365.91,726.89 397.88,741.90 425.52,752.23 441.32,755.77 478.14,760.00 512.73,757.23 547.98,751.09 570.92,744.82 591.63,737.00 608.29,729.27 625.08,719.19 654.67,696.63 681.69,672.14 691.86,660.35 700.52,647.87 714.06,626.62 726.86,601.18 739.41,560.96 748.16,521.35 752.15,484.78 751.81,439.88 748.87,419.11 742.35,398.70 733.84,378.63 720.21,357.38 684.84,311.36 647.90,271.42 503.18,125.41 460.80,89.75 426.01,67.81 405.67,58.47 363.29,44.85 332.71,40.51 298.30,40.00 260.65,43.07 226.82,50.91 195.07,62.23 169.10,75.15 147.46,88.47 130.43,102.02 108.20,124.61 85.14,153.70 66.00,190.10 51.56,226.16 45.47,244.89 41.73,264.09 40.00,301.90 41.36,339.43 46.62,374.47 52.30,392.72 63.74,417.32 79.76,444.92 129.69,504.01 232.82,610.52"
        fill="none"
        stroke="#e94560"
        stroke-width="8.0"
        stroke-linejoin="round"
        stroke-linecap="round"/>
  <!-- Start/finish line -->
  <line x1="247.19" y1="596.61" x2="218.45" y2="624.44"
        stroke="#f5f5f5" stroke-width="9.6"
        stroke-linecap="round"/>
</svg>
