<?xml version="1.0" encoding="utf-8"?>
<svg xmlns="http://www.w3.org/2000/svg"
     width="800.0" height="561.8"
     viewBox="0 0 800.0 561.8">
  <rect width="100%" height="100%" fill="#1a1a2e"/>
  <!-- Track outline -->
  <polyline points="529.42,204.10 513.41,220.96 510.33,223.79 506.94,226.37 503.23,228.58 501.27,229.52 499.19,230.31 497.04,230.95 494.83,231.43 492.55,231.73 487.97,231.78 485.69,231.48 483.40,231.00 481.15,230.35 478.92,229.50 476.77,228.47 474.69,227.27 470.80,224.44 469.03,222.79 465.82,219.05 459.32,208.33 449.91,192.23 448.37,190.46 446.66,188.92 444.76,187.63 443.74,187.12 442.68,186.70 440.47,186.15 438.20,185.92 431.10,186.06 428.66,185.91 426.24,185.46 424.32,184.84 422.44,184.01 420.62,182.92 417.14,180.14 410.64,172.69 395.87,155.58 382.77,144.21 332.92,113.28 273.88,77.62 257.48,68.18 245.15,63.68 227.38,60.31 219.92,58.74 215.13,57.26 210.55,55.41 204.17,51.89 190.55,43.26 187.39,41.85 184.45,40.92 181.38,40.29 178.27,40.00 174.96,40.12 172.07,40.47 170.05,40.99 167.38,42.02 164.36,43.54 160.90,45.95 157.60,48.89 152.13,56.15 144.27,68.48 137.82,76.56 130.35,84.30 105.90,106.26 90.82,123.89 77.82,143.62 67.04,164.19 61.51,173.72 56.96,179.99 44.95,193.61 43.51,195.74 41.43,200.35 40.21,205.09 40.00,207.57 40.20,212.48 40.64,214.93 42.32,219.78 43.49,222.11 46.50,226.39 48.27,228.30 59.47,237.78 60.90,239.24 62.63,241.30 64.93,244.75 66.83,248.57 73.81,268.06 83.31,284.76 116.95,337.46 135.19,360.75 165.32,392.04 195.21,419.09 218.79,436.43 258.51,461.74 312.34,499.34 330.78,511.50 343.88,517.41 354.25,520.26 368.62,521.85 379.48,521.19 397.26,517.04 469.99,493.66 483.63,487.14 499.01,476.38 518.28,459.38 568.06,413.82 589.84,393.12 603.51,376.11 612.74,360.70 618.62,347.68 624.30,327.75 627.68,303.61 628.87,295.79 630.78,288.53 632.58,283.97 634.89,279.72 636.21,277.69 639.22,273.92 642.74,270.55 646.69,267.60 648.80,266.30 653.30,264.15 658.09,262.52 663.13,261.52 668.34,261.11 670.97,261.14 676.26,261.66 681.57,262.71 692.19,266.09 700.05,269.56 705.14,272.28 714.59,278.63 720.97,284.00 726.64,289.79 736.09,301.61 748.11,317.89 748.88,318.72 749.55,319.29 750.45,319.93 751.40,320.46 752.35,320.83 753.34,321.05 754.08,321.10 754.83,321.07 755.55,320.94 756.25,320.69 756.92,320.34 757.54,319.91 758.11,319.42 758.63,318.86 759.06,318.25 759.42,317.56 759.70,316.81 759.89,316.06 760.00,314.96 759.96,313.86 759.79,312.85 759.52,311.85 758.64,309.75 740.24,275.13 674.30,155.60 672.84,152.88 671.73,151.05 670.85,149.46 669.98,147.64 669.18,146.13 668.31,144.47 667.60,143.20 666.89,142.09 666.25,140.83 665.78,139.95 665.24,138.76 664.62,137.57 663.97,136.41 663.52,135.65 663.08,135.01 662.70,134.43 662.17,133.68 661.57,132.77 660.98,131.89 660.42,131.21 659.79,130.41 659.17,129.73 658.57,129.06 657.93,128.36 657.22,127.63 656.43,126.95 655.78,126.34 655.05,125.71 654.27,125.12 653.56,124.58 652.85,124.03 652.05,123.48 651.19,122.91 650.48,122.47 649.67,121.98 649.03,121.56 648.17,121.07 647.33,120.57 646.52,120.16 645.75,119.78 645.07,119.45 644.30,119.10 643.55,118.76 642.72,118.40 641.77,117.99 640.77,117.58 639.87,117.25 638.75,116.94 637.76,116.62 636.48,116.33 635.38,116.14 634.37,115.95 633.33,115.76 632.16,115.57 631.10,115.39 630.02,115.30 629.16,115.21 628.16,115.21 626.82,115.29 625.66,115.42 624.36,115.55 623.14,115.72 622.23,115.85 621.14,116.06 620.23,116.19 619.09,116.45 618.22,116.75 617.17,117.14 616.20,117.49 615.28,117.93 614.41,118.29 613.37,118.76 612.46,119.15 611.59,119.53 610.67,120.09 609.76,120.65 609.10,121.13 608.44,121.61 607.78,122.13 606.94,122.74 606.28,123.22 605.18,123.97 604.52,124.50 603.68,125.15 602.97,125.77 602.30,126.26 601.13,127.22 599.97,128.37 599.07,129.21 597.04,130.78 533.16,200.17 529.42,204.10"
        fill="none"
        stroke="#e94560"
        stroke-width="8.0"
        stroke-linejoin="round"
        stroke-linecap="round"/>
  <!-- Start/finish line -->
  <line x1="543.92" y1="217.87" x2="514.92" y2="190.32"
        stroke="#f5f5f5" stroke-width="9.6"
        stroke-linecap="round"/>
</svg>
