<?xml version="1.0" encoding="utf-8"?>
<svg xmlns="http://www.w3.org/2000/svg"
     width="800.0" height="486.8"
     viewBox="0 0 800.0 486.8">
  <rect width="100%" height="100%" fill="#1a1a2e"/>
  <!-- Track outline -->
  <polyline points="524.06,42.50 464.16,43.40 384.98,44.46 302.30,45.30 233.22,45.72 138.81,46.52 76.82,47.97 71.62,48.83 67.66,50.02 64.24,51.46 60.98,53.36 57.37,56.05 53.81,59.47 49.53,64.84 45.75,70.79 43.47,75.49 41.79,80.32 40.60,85.44 40.00,90.71 40.04,96.02 40.71,101.42 42.31,107.81 44.58,113.97 47.14,119.01 50.24,123.70 59.46,133.94 88.26,158.22 103.96,173.47 110.10,180.81 115.04,188.71 118.78,197.20 121.47,206.14 122.85,215.37 122.79,224.77 121.43,234.22 118.80,243.51 114.80,252.40 108.17,262.77 74.78,305.22 65.98,319.24 63.68,324.48 62.01,329.87 60.76,336.63 60.18,343.55 60.29,349.51 60.98,355.30 62.29,361.05 64.23,366.72 67.25,373.10 71.12,379.43 76.97,387.08 83.80,394.52 101.23,409.42 126.48,424.56 141.76,430.93 158.11,434.74 183.71,436.41 287.77,435.12 356.07,436.44 359.69,435.92 362.39,435.11 365.24,433.92 367.90,432.35 370.22,430.48 372.28,428.25 374.01,425.75 375.43,422.98 376.47,420.05 377.15,416.97 377.41,413.83 377.27,410.67 376.70,407.51 375.69,404.35 373.90,400.58 371.55,396.87 368.20,392.72 364.22,388.85 358.84,384.83 352.88,381.37 346.37,378.46 339.11,376.18 314.70,372.73 274.46,369.11 239.55,364.43 228.82,362.02 225.64,360.86 222.79,359.46 220.13,357.77 217.69,355.76 215.58,353.52 213.74,350.98 212.23,348.24 211.02,345.28 210.16,342.16 209.66,338.91 209.54,335.53 209.78,332.14 210.41,328.70 211.38,325.36 212.74,322.11 214.40,319.05 216.36,316.22 218.55,313.67 221.00,311.41 223.65,309.46 226.51,307.79 229.61,306.41 238.12,304.15 282.31,294.44 324.23,284.12 358.99,277.27 380.57,274.51 400.52,273.79 415.90,274.35 428.76,276.40 438.76,279.31 448.36,283.33 457.33,288.41 465.47,294.58 472.64,301.78 478.80,309.89 483.87,318.78 487.71,328.34 501.25,376.58 503.37,381.17 505.56,384.61 508.41,388.31 511.61,391.64 515.28,394.68 519.23,397.27 523.39,399.29 527.97,400.97 543.08,404.71 550.41,407.76 557.23,412.02 564.78,418.93 578.45,432.77 583.98,436.83 589.63,440.02 595.96,442.69 602.55,444.67 609.09,446.02 616.57,446.77 654.00,445.75 721.04,443.77 726.22,442.73 730.34,441.24 735.71,438.60 740.71,435.44 743.90,432.92 746.74,430.02 749.78,426.10 752.50,421.53 754.92,416.05 756.88,409.58 758.82,398.21 760.00,384.90 759.98,345.57 755.34,303.03 745.60,237.63 742.01,212.16 740.45,207.19 738.53,203.06 735.92,198.82 732.86,194.97 729.28,191.41 725.23,188.28 719.99,185.18 713.98,182.57 694.39,177.93 664.27,173.62 654.18,171.22 650.43,169.76 647.07,168.02 644.53,166.29 642.23,164.31 640.12,162.06 638.23,159.55 636.62,156.81 635.30,153.85 634.34,150.74 633.72,147.51 633.48,144.26 633.62,141.01 634.16,137.82 635.08,134.75 636.38,131.75 637.99,128.93 639.88,126.23 642.08,123.67 645.14,120.78 648.52,118.13 656.08,113.76 668.58,108.51 680.57,103.20 683.54,101.25 685.84,99.23 688.00,96.86 689.89,94.20 691.42,91.32 692.61,88.21 693.43,84.97 693.86,81.50 693.86,77.10 693.32,72.59 692.10,67.97 690.39,63.64 688.53,60.19 686.28,57.02 682.94,53.32 679.11,49.97 674.78,47.06 670.14,44.67 665.21,42.75 659.87,41.35 644.30,40.00 566.81,41.86 553.12,42.07 524.06,42.50"
        fill="none"
        stroke="#e94560"
        stroke-width="8.0"
        stroke-linejoin="round"
        stroke-linecap="round"/>
  <!-- Start/finish line -->
  <line x1="524.35" y1="62.50" x2="523.76" y2="22.51"
        stroke="#f5f5f5" stroke-width="9.6"
        stroke-linecap="round"/>
</svg>
