<?xml version="1.0" encoding="utf-8"?>
<svg xmlns="http://www.w3.org/2000/svg"
     width="800.0" height="518.6"
     viewBox="0 0 800.0 518.6">
  <rect width="100%" height="100%" fill="#1a1a2e"/>
  <!-- Track outline -->
  <polyline points="379.80,477.43 520.80,478.56 554.93,474.72 599.40,463.08 650.78,443.98 665.72,436.62 678.63,427.33 690.69,417.23 695.91,412.43 700.88,406.39 719.11,375.81 737.53,337.71 748.61,306.90 756.08,275.80 759.88,242.73 760.00,210.60 756.50,184.34 751.50,162.37 746.06,146.59 730.11,116.56 720.04,102.62 708.62,89.94 695.44,78.78 680.81,69.42 648.52,55.29 624.83,48.07 595.28,42.55 418.24,40.00 318.18,44.06 182.77,44.71 142.44,48.81 125.16,53.71 94.71,68.00 81.77,76.78 70.99,86.91 66.46,92.49 62.39,98.68 58.11,106.81 54.63,115.49 52.37,123.98 51.22,132.59 51.27,141.14 52.45,149.53 54.68,157.30 57.84,164.69 61.68,171.43 66.39,177.66 72.41,183.40 79.18,188.50 86.33,193.02 94.00,196.82 102.33,199.76 112.13,202.02 133.91,205.15 160.79,206.41 257.84,195.50 393.42,178.69 426.13,175.56 445.00,176.18 453.82,177.79 462.27,180.34 470.01,183.76 477.24,187.92 483.80,192.37 489.71,197.60 493.56,202.11 496.99,207.15 499.53,212.34 500.91,217.31 501.49,222.41 501.32,227.41 500.37,232.21 498.65,236.89 496.50,241.34 492.43,247.54 487.36,253.06 481.21,257.70 474.27,261.54 466.53,264.73 457.74,267.35 426.50,273.25 309.58,286.87 180.49,319.74 96.11,352.58 81.72,359.74 65.80,370.13 58.94,376.07 52.91,382.55 48.26,389.20 44.61,396.26 42.16,403.36 40.66,410.81 40.00,419.36 40.47,428.01 41.35,433.40 42.70,438.62 44.73,443.53 47.52,447.95 50.98,452.01 54.80,455.66 61.17,460.24 68.15,464.01 75.60,467.24 83.46,469.76 101.06,472.92 284.17,476.69 379.80,477.43"
        fill="none"
        stroke="#e94560"
        stroke-width="8.0"
        stroke-linejoin="round"
        stroke-linecap="round"/>
  <!-- Start/finish line -->
  <line x1="379.96" y1="457.43" x2="379.64" y2="497.43"
        stroke="#f5f5f5" stroke-width="9.6"
        stroke-linecap="round"/>
</svg>
