<?xml version="1.0" encoding="utf-8"?>
<svg xmlns="http://www.w3.org/2000/svg"
     width="800.0" height="549.8"
     viewBox="0 0 800.0 549.8">
  <rect width="100%" height="100%" fill="#1a1a2e"/>
  <!-- Track outline -->
  <polyline points="419.89,472.65 537.80,474.79 584.05,468.67 621.20,460.68 631.86,457.49 641.32,453.48 660.18,443.57 678.16,432.20 686.51,425.49 694.12,417.94 721.13,385.34 732.19,367.48 743.90,342.60 754.24,310.79 759.74,254.24 760.00,196.80 755.41,135.04 750.77,114.97 743.42,96.13 738.89,87.43 733.67,79.28 727.97,72.19 721.53,65.66 713.67,59.10 705.09,53.43 696.46,49.42 687.48,46.34 668.53,41.91 658.84,40.53 649.18,40.00 639.92,40.60 630.92,42.51 624.74,44.84 618.72,47.88 613.40,51.59 609.06,55.83 605.33,60.67 602.37,65.85 600.20,71.37 598.75,77.26 598.09,83.19 598.07,88.70 598.81,94.29 600.83,101.05 623.03,140.14 650.69,181.68 674.15,215.30 678.45,225.16 681.24,234.66 683.18,244.64 683.95,254.66 683.32,264.19 681.55,273.38 679.05,281.59 675.54,289.40 672.35,294.95 668.59,300.36 664.23,304.82 660.70,307.41 656.82,309.59 652.75,311.16 648.61,311.95 642.86,311.39 636.90,309.40 630.49,306.66 614.34,297.62 598.21,288.27 588.69,284.18 579.77,281.33 571.34,279.61 562.87,278.82 553.96,278.82 544.98,279.79 536.80,281.67 527.09,285.12 438.78,328.83 370.42,351.95 240.00,380.72 120.13,402.97 83.97,414.94 74.16,419.37 65.67,424.21 58.35,429.28 51.94,435.09 48.21,439.48 44.93,444.28 42.45,449.46 40.80,455.35 40.00,461.66 40.17,467.85 41.40,473.93 43.56,479.89 46.50,485.48 50.37,490.81 55.02,495.69 60.00,499.85 67.38,504.28 75.36,507.36 84.20,509.12 93.31,509.83 111.52,509.04 244.19,488.56 356.18,475.43 402.14,470.96 419.89,472.65"
        fill="none"
        stroke="#e94560"
        stroke-width="8.0"
        stroke-linejoin="round"
        stroke-linecap="round"/>
  <!-- Start/finish line -->
  <line x1="420.45" y1="452.66" x2="419.33" y2="492.64"
        stroke="#f5f5f5" stroke-width="9.6"
        stroke-linecap="round"/>
</svg>
