<?xml version="1.0" encoding="utf-8"?>
<svg xmlns="http://www.w3.org/2000/svg"
     width="800.0" height="489.7"
     viewBox="0 0 800.0 489.7">
  <rect width="100%" height="100%" fill="#1a1a2e"/>
  <!-- Track outline -->
  <polyline points="434.41,252.85 438.58,253.72 495.34,263.92 513.49,263.52 529.54,260.78 537.26,258.46 544.38,255.46 551.00,251.48 556.47,247.25 561.55,242.29 565.79,236.25 568.64,229.88 570.92,222.76 572.31,216.57 572.51,209.15 571.66,177.61 573.12,168.93 575.39,161.48 578.64,153.91 582.55,147.22 587.42,140.78 592.85,135.54 599.37,131.52 606.29,128.74 613.44,126.49 621.19,125.23 633.05,124.97 645.63,126.35 657.70,129.39 669.94,134.34 684.39,142.45 698.69,153.05 711.43,165.42 723.34,179.85 733.81,195.05 742.95,212.19 749.66,229.70 754.79,249.60 760.00,305.49 757.79,393.83 754.97,410.14 751.22,422.48 747.22,430.29 743.06,436.15 740.31,439.62 737.58,442.34 734.48,444.69 731.29,446.57 728.04,448.02 724.73,449.03 721.34,449.61 717.92,449.72 714.40,449.39 710.86,448.63 707.19,447.40 703.55,445.74 700.16,443.60 696.95,441.07 694.22,438.50 691.69,435.57 689.61,432.57 687.78,429.21 686.35,425.77 685.21,422.01 684.44,418.06 683.98,413.94 684.09,405.04 685.57,395.27 690.14,375.63 703.08,336.78 713.69,299.01 716.04,278.43 716.08,260.88 713.46,248.95 709.94,239.69 708.03,235.67 705.80,232.49 700.31,227.02 694.46,222.57 691.25,220.80 688.22,219.68 684.95,218.74 681.60,218.20 678.28,217.91 674.61,218.13 667.55,219.61 659.98,222.39 653.48,226.01 647.24,231.22 642.75,236.25 638.41,242.29 634.97,249.20 633.00,255.46 631.68,262.37 631.07,270.58 634.64,302.20 638.67,332.33 638.51,339.78 637.46,345.90 634.40,353.96 630.27,361.12 625.78,366.84 620.55,371.51 611.41,377.01 601.77,381.02 594.48,382.79 587.97,383.59 584.50,383.95 580.77,383.55 569.58,378.78 555.02,370.42 524.19,347.99 489.40,324.55 457.59,311.20 422.38,301.33 280.33,277.20 179.56,255.78 148.32,245.91 121.66,234.77 106.21,226.12 92.66,215.99 80.80,204.52 70.24,191.07 62.46,177.75 55.94,161.98 45.93,115.50 42.01,92.02 40.00,72.67 40.36,67.82 41.21,63.98 42.41,60.04 43.93,56.50 45.90,53.13 48.14,50.20 50.88,47.45 53.84,45.10 57.35,42.86 61.05,41.19 65.21,40.33 69.42,40.04 73.32,40.00 77.12,40.33 80.67,41.01 84.13,42.06 87.36,43.44 90.47,45.21 93.25,47.16 96.14,49.77 101.08,55.27 105.93,62.07 109.16,67.93 111.78,75.16 114.30,89.05 115.63,104.36 114.91,116.47 114.43,128.16 116.48,140.35 120.07,151.78 126.03,163.39 133.40,173.34 142.67,182.35 153.47,189.62 169.63,196.78 191.58,203.19 434.41,252.85"
        fill="none"
        stroke="#e94560"
        stroke-width="8.0"
        stroke-linejoin="round"
        stroke-linecap="round"/>
  <!-- Start/finish line -->
  <line x1="438.42" y1="233.26" x2="430.40" y2="272.45"
        stroke="#f5f5f5" stroke-width="9.6"
        stroke-linecap="round"/>
</svg>
