<?xml version="1.0" encoding="utf-8"?>
<svg xmlns="http://www.w3.org/2000/svg"
     width="800.0" height="652.7"
     viewBox="0 0 800.0 652.7">
  <rect width="100%" height="100%" fill="#1a1a2e"/>
  <!-- Track outline -->
  <polyline points="465.69,524.36 548.97,479.92 658.42,406.65 687.80,382.60 711.63,358.04 727.08,335.71 739.36,310.99 750.92,277.47 758.36,243.40 760.00,220.35 758.53,198.24 753.86,174.02 745.68,150.02 730.37,121.63 712.15,96.29 697.75,80.98 681.96,68.62 660.54,56.31 636.96,47.13 610.36,41.34 581.33,40.00 536.51,46.40 494.76,57.15 463.05,70.74 139.28,244.62 106.71,268.40 83.61,291.00 67.95,311.88 55.96,335.16 46.84,365.00 41.51,396.40 40.00,424.13 41.86,451.36 47.22,478.31 56.44,504.48 73.18,533.88 93.30,559.82 111.47,576.86 130.03,589.83 144.95,597.80 161.35,603.59 191.72,609.94 224.99,612.66 257.17,610.49 288.10,604.48 335.65,585.99 465.69,524.36"
        fill="none"
        stroke="#e94560"
        stroke-width="8.0"
        stroke-linejoin="round"
        stroke-linecap="round"/>
  <!-- Start/finish line -->
  <line x1="456.79" y1="506.45" x2="474.60" y2="542.26"
        stroke="#f5f5f5" stroke-width="9.6"
        stroke-linecap="round"/>
</svg>
