<?xml version="1.0" encoding="utf-8"?>
<svg xmlns="http://www.w3.org/2000/svg"
     width="555.0" height="800.0"
     viewBox="0 0 555.0 800.0">
  <rect width="100%" height="100%" fill="#1a1a2e"/>
  <!-- Track outline -->
  <polyline points="114.44,298.00 73.24,230.82 53.52,188.33 48.43,173.52 42.04,144.14 40.00,125.01 40.70,107.79 41.97,99.78 43.91,92.29 47.00,84.93 50.82,78.31 55.71,71.79 61.15,66.00 67.43,60.44 74.12,55.62 81.62,51.38 89.42,47.91 106.09,42.67 123.01,40.19 131.00,40.00 138.88,40.80 146.47,42.99 153.89,46.07 160.81,49.32 167.31,53.53 172.64,58.67 177.23,64.97 180.53,71.50 182.89,78.86 183.96,86.25 184.02,93.87 182.78,101.55 180.56,108.81 177.25,115.76 172.88,122.57 151.86,148.32 143.32,163.17 139.80,171.23 136.92,179.91 135.07,188.59 134.14,197.65 134.40,206.91 135.58,216.13 140.58,234.42 161.73,285.37 170.25,299.99 180.95,313.72 193.94,325.61 201.28,330.82 208.91,335.19 216.98,338.59 225.18,340.94 233.43,342.16 241.58,342.10 246.60,341.36 251.54,340.04 256.41,337.98 261.40,335.12 266.33,331.52 270.62,326.93 273.76,322.23 276.44,316.83 278.16,311.05 278.66,305.58 278.44,299.80 277.64,294.34 274.64,286.14 270.49,278.71 265.75,271.23 260.00,264.28 247.90,254.87 235.86,245.96 230.55,240.50 226.15,234.65 222.44,228.35 219.50,221.25 217.72,214.01 217.04,206.49 217.45,201.51 218.48,196.59 220.02,192.03 223.03,186.69 226.93,181.97 230.93,177.82 236.51,172.68 242.52,168.69 248.01,166.19 253.93,164.42 259.85,163.68 265.75,164.13 271.64,165.61 277.04,168.02 280.98,170.75 284.59,174.13 287.97,177.95 292.42,184.06 296.48,190.94 303.46,206.11 346.33,335.73 382.80,406.16 437.46,483.55 494.76,578.02 502.11,591.06 510.05,608.20 512.73,616.55 514.49,625.17 514.94,630.47 514.96,635.84 514.33,640.92 513.11,645.16 511.33,649.21 509.17,652.87 506.78,655.99 503.34,658.98 499.34,661.17 495.13,662.61 491.07,663.48 486.13,663.67 481.24,662.87 476.48,661.26 471.96,659.11 467.56,656.22 463.55,652.52 459.25,646.83 454.90,638.41 426.83,559.18 401.44,508.81 391.60,492.52 386.06,485.32 380.23,479.08 376.17,475.52 371.96,472.46 367.52,470.12 361.98,468.41 356.14,467.64 350.32,467.61 346.01,467.83 341.59,468.38 337.44,469.57 333.88,471.82 331.94,473.84 330.07,476.26 328.43,478.99 327.18,481.94 326.49,485.03 326.70,490.24 327.97,495.89 329.57,501.20 332.19,507.75 336.12,514.86 384.59,585.76 394.79,601.22 410.71,631.56 428.12,674.47 432.49,688.84 434.04,698.22 434.64,708.03 433.77,717.54 431.76,726.57 428.31,735.35 423.87,742.80 420.20,747.08 416.12,750.55 411.78,753.44 406.40,756.14 400.64,758.14 394.92,759.36 389.51,760.00 384.12,759.97 378.92,758.75 375.14,757.01 371.35,754.66 367.86,751.74 365.01,748.17 362.88,743.93 361.25,739.11 360.13,733.93 359.46,726.09 359.66,717.19 363.64,682.86 363.01,655.67 360.67,630.57 356.48,610.25 349.32,593.64 333.28,567.25 289.05,508.14 253.51,470.50 211.07,435.44 154.54,363.37 114.44,298.00"
        fill="none"
        stroke="#e94560"
        stroke-width="8.0"
        stroke-linejoin="round"
        stroke-linecap="round"/>
  <!-- Start/finish line -->
  <line x1="97.39" y1="308.46" x2="131.49" y2="287.54"
        stroke="#f5f5f5" stroke-width="9.6"
        stroke-linecap="round"/>
</svg>
