<?xml version="1.0" encoding="utf-8"?>
<svg xmlns="http://www.w3.org/2000/svg"
     width="755.4" height="800.0"
     viewBox="0 0 755.4 800.0">
  <rect width="100%" height="100%" fill="#1a1a2e"/>
  <!-- Track outline -->
  <polyline points="79.76,454.66 139.33,672.38 143.80,688.16 147.88,700.16 152.63,710.24 158.10,719.83 164.64,729.15 171.95,736.82 178.30,742.08 185.52,746.25 194.39,749.97 203.81,751.56 214.79,751.23 223.85,750.25 235.07,747.51 243.05,744.77 252.16,740.55 260.78,735.89 267.81,730.52 273.56,724.93 279.39,717.26 283.78,707.61 285.37,697.31 285.65,688.49 284.54,677.75 282.66,668.60 278.51,656.32 273.08,645.85 252.44,613.25 248.21,606.23 245.13,599.66 243.21,593.58 241.74,586.40 240.70,577.25 240.34,567.49 241.50,558.01 243.33,548.37 244.93,542.67 265.45,494.83 268.25,487.76 269.96,480.47 270.24,472.91 269.72,465.40 267.85,457.07 265.33,448.91 262.22,441.62 259.06,435.43 255.23,429.13 250.80,423.15 245.37,417.78 239.66,414.00 233.11,410.60 227.32,408.30 220.58,406.77 212.15,405.67 195.54,404.47 184.01,403.10 176.02,401.23 167.96,397.89 160.09,393.34 152.91,387.75 144.04,379.48 136.50,371.15 129.03,362.00 123.56,353.94 118.13,344.24 113.30,333.06 110.35,323.31 108.31,310.71 106.83,298.27 106.59,285.00 107.55,274.76 109.71,264.73 111.90,257.28 116.02,248.40 120.09,239.96 125.60,231.80 130.19,225.44 134.06,221.22 139.49,215.96 144.60,211.41 150.47,207.19 157.86,203.19 167.64,198.59 178.26,194.75 186.80,191.79 194.27,189.82 201.61,188.50 211.32,188.07 221.14,188.12 231.20,188.94 240.22,190.37 247.77,192.34 255.11,194.86 261.58,197.93 267.41,201.05 274.60,206.15 281.58,212.40 288.49,220.23 295.40,229.17 299.99,237.93 305.14,248.45 309.65,259.69 313.32,271.20 316.76,289.55 322.90,347.31 338.63,632.15 339.99,641.03 342.47,651.01 345.86,660.98 350.37,670.40 355.60,678.90 361.63,686.68 367.66,692.49 374.21,697.64 380.35,702.19 387.42,705.48 394.89,707.45 403.47,709.09 412.17,709.69 420.48,709.20 428.78,707.94 435.53,706.41 442.52,704.76 450.22,702.95 458.65,701.20 467.71,700.00 475.81,699.83 483.60,700.21 492.34,701.53 502.48,704.27 511.71,708.22 518.61,712.82 526.48,719.12 532.55,724.38 538.18,730.57 545.04,738.68 550.43,744.88 556.30,750.25 562.45,754.79 570.19,758.63 577.22,760.00 583.13,759.89 589.88,758.30 597.50,756.27 605.49,752.93 614.31,748.05 621.06,742.79 625.17,737.75 628.52,730.90 629.84,722.90 629.32,716.38 627.88,710.08 625.81,703.23 622.85,696.82 619.46,690.57 615.03,685.09 610.08,680.49 603.05,675.45 583.97,665.97 422.75,601.25 413.13,596.10 407.18,590.89 402.11,584.64 398.68,577.58 396.44,570.62 394.37,562.78 393.33,554.72 393.53,545.52 394.93,536.42 397.32,527.05 399.72,520.31 402.67,513.52 406.58,506.94 410.54,502.39 416.21,497.35 422.39,493.35 429.30,489.40 436.85,486.17 444.67,483.87 453.30,482.01 460.24,480.86 471.38,478.83 477.89,477.79 483.56,476.31 491.10,473.79 496.69,471.10 503.00,467.54 510.27,462.33 517.14,456.52 522.48,449.46 527.36,442.28 531.27,434.22 534.42,424.96 536.90,414.93 537.06,405.07 536.10,396.19 533.86,385.34 529.95,373.29 526.36,364.19 522.01,356.68 516.98,350.11 511.27,344.57 504.92,339.97 496.93,335.53 488.07,332.08 479.09,329.12 469.27,326.54 461.08,325.72 452.34,324.51 442.72,323.31 433.61,321.06 424.03,317.77 415.21,312.95 408.22,308.02 400.60,302.16 394.09,295.42 388.10,287.91 383.11,279.80 379.60,272.29 376.88,264.29 374.37,255.52 372.21,246.10 370.85,236.84 370.37,227.90 370.57,216.73 371.33,208.94 372.53,201.44 375.08,192.67 377.12,186.09 379.76,179.74 383.39,174.20 387.90,167.74 392.97,162.80 398.88,158.04 404.99,154.15 411.26,151.35 418.72,148.23 426.35,145.82 434.89,144.45 443.47,143.51 457.01,142.64 466.35,142.97 476.41,143.90 484.48,145.10 492.34,146.97 499.69,149.76 507.47,154.26 512.90,158.31 520.49,164.78 525.12,170.86 528.87,176.45 533.22,184.18 537.46,193.05 541.65,204.40 545.00,214.81 559.53,267.14 607.48,437.89 610.00,449.18 611.40,460.09 611.64,471.32 610.00,481.18 606.13,492.91 601.73,502.61 596.50,511.65 589.96,521.35 584.89,529.68 581.25,535.54 578.78,540.04 577.26,544.81 576.74,549.30 576.82,554.89 578.02,561.90 579.70,568.26 582.09,574.62 584.61,580.10 587.80,586.18 590.72,591.17 594.51,597.47 598.30,602.56 602.45,607.60 606.33,611.61 610.24,615.11 615.07,618.73 620.34,620.81 625.33,622.46 631.16,624.04 637.27,625.36 642.94,625.58 648.53,625.63 653.92,624.92 661.66,623.72 667.77,622.40 674.52,620.26 680.31,617.69 686.05,614.40 691.56,610.29 697.27,605.80 703.34,599.82 707.77,594.07 711.25,586.84 714.16,576.26 715.44,557.41 713.52,509.19 685.66,202.64 684.10,189.38 682.34,179.79 679.91,170.69 676.71,159.68 671.80,146.25 665.17,133.27 659.98,123.84 653.56,114.47 646.81,106.03 638.86,97.05 631.16,88.88 622.46,80.11 614.07,73.37 604.85,67.40 595.03,61.32 585.69,55.89 576.26,51.29 566.88,47.73 557.30,44.49 545.96,42.52 533.54,41.21 522.25,40.27 509.51,40.00 497.85,40.71 485.12,42.52 472.62,45.10 458.97,48.22 450.42,50.74 441.68,54.63 433.77,59.67 419.36,70.91 381.91,97.81 374.25,102.80 365.70,107.18 358.20,110.75 347.98,114.96 339.07,118.47 330.77,121.27 322.10,123.62 314.28,125.32 305.98,126.75 295.75,128.12 285.85,128.66 262.90,127.29 229.84,125.54 215.43,125.71 205.61,126.64 192.79,127.79 180.97,128.99 168.72,132.28 156.34,136.34 144.00,141.38 133.26,146.75 123.52,152.01 112.70,158.64 104.80,164.39 96.49,170.86 88.95,177.87 82.56,184.34 76.41,191.30 70.18,199.57 63.83,208.89 57.73,219.14 52.34,229.17 47.11,239.58 43.39,249.60 40.52,261.06 40.00,272.29 40.08,283.42 41.44,294.54 43.59,305.72 79.76,454.66"
        fill="none"
        stroke="#e94560"
        stroke-width="8.0"
        stroke-linejoin="round"
        stroke-linecap="round"/>
  <!-- Start/finish line -->
  <line x1="99.12" y1="449.61" x2="60.41" y2="459.71"
        stroke="#f5f5f5" stroke-width="9.6"
        stroke-linecap="round"/>
</svg>
