<?xml version="1.0" encoding="utf-8"?>
<svg xmlns="http://www.w3.org/2000/svg"
     width="601.9" height="800.0"
     viewBox="0 0 601.9 800.0">
  <rect width="100%" height="100%" fill="#1a1a2e"/>
  <!-- Track outline -->
  <polyline points="117.26,303.33 116.23,306.83 111.02,320.18 104.65,333.91 96.99,347.76 57.26,412.39 51.98,423.75 46.08,438.05 42.46,449.56 40.39,458.90 40.00,467.98 41.51,478.85 47.84,498.40 56.05,520.20 84.57,589.53 90.45,605.27 94.30,618.76 96.73,629.92 97.45,638.02 97.05,644.79 95.87,652.22 93.20,658.19 88.61,664.76 76.61,677.35 65.86,689.89 54.20,706.68 52.45,711.09 51.69,714.98 51.74,718.92 53.00,723.16 55.16,726.96 58.10,729.99 65.03,733.97 117.88,747.70 160.14,755.74 197.51,758.79 246.24,760.00 324.95,759.12 345.56,757.87 356.61,755.01 368.19,749.67 373.61,746.40 378.65,742.62 383.23,738.21 387.32,733.35 390.88,728.19 393.82,722.69 395.93,717.03 397.38,711.14 398.23,704.92 398.51,698.77 397.77,688.77 393.21,665.44 392.81,659.90 393.12,654.87 393.88,650.98 395.07,647.07 396.74,643.49 398.93,640.44 401.58,637.74 404.54,635.41 407.90,633.45 411.57,631.94 415.26,630.84 420.32,630.14 425.45,630.20 430.92,630.88 436.39,632.22 442.13,634.40 447.59,637.08 456.08,642.59 464.53,649.53 495.19,682.38 503.87,690.47 508.35,693.94 513.39,697.12 518.57,699.32 523.68,700.55 527.94,700.48 532.85,699.89 535.91,699.23 539.90,697.82 543.02,696.27 546.53,694.24 549.75,691.76 552.67,688.86 555.15,685.81 557.64,681.50 559.45,676.91 560.86,671.75 561.69,666.30 561.94,660.21 561.67,654.17 560.23,644.17 556.73,631.61 550.33,609.70 547.34,594.32 545.56,577.56 545.77,565.57 550.57,548.98 556.56,530.44 558.13,522.42 558.53,515.72 558.31,510.07 557.48,504.34 556.02,498.78 553.87,493.42 551.02,488.43 547.48,484.01 543.36,480.17 538.81,477.05 533.85,474.61 528.57,472.92 523.11,472.00 517.64,471.95 512.18,472.72 506.75,474.37 501.47,476.76 496.02,480.10 490.97,483.95 483.54,491.48 476.69,500.73 447.79,551.40 440.30,561.81 436.31,566.20 432.01,570.14 427.40,573.47 422.50,576.20 417.48,578.09 412.22,579.21 408.34,579.54 404.33,579.47 400.55,578.86 397.15,577.98 393.60,576.51 390.35,574.51 387.74,571.96 386.03,568.86 384.83,565.72 383.75,561.81 383.49,558.25 383.47,554.32 384.50,549.22 386.62,543.57 394.11,528.30 401.60,512.88 403.63,506.80 404.77,501.35 405.36,495.88 405.25,490.54 404.39,485.57 402.79,480.85 400.37,476.52 397.29,472.50 393.70,468.74 389.22,465.05 378.95,458.86 368.79,452.66 364.44,449.32 360.24,445.70 356.75,441.39 354.00,437.28 352.58,433.77 352.33,429.59 352.79,426.50 353.67,422.85 354.90,418.96 357.04,415.60 359.99,412.85 363.51,410.79 367.71,409.29 372.72,407.87 378.06,407.21 390.26,407.01 482.83,416.68 496.20,416.87 506.53,416.08 512.65,414.94 518.03,413.18 523.10,410.79 527.73,407.73 531.79,403.95 535.38,399.63 538.70,394.53 541.51,389.21 545.17,379.94 546.56,375.50 547.64,369.51 548.65,255.66 549.31,165.21 547.86,155.21 546.39,149.41 544.39,143.79 541.96,138.97 538.99,134.67 536.77,132.19 534.31,129.92 531.57,128.01 528.21,126.30 524.50,124.96 520.71,124.21 516.66,124.21 512.52,124.83 508.54,125.81 503.71,127.57 498.32,130.41 458.86,157.17 446.54,166.85 429.73,183.44 422.18,194.98 415.74,209.45 404.50,240.52 402.22,251.55 401.99,262.84 403.99,280.55 406.28,293.20 406.75,303.53 405.57,312.87 403.88,318.65 401.59,324.25 399.00,329.02 395.79,333.32 393.02,336.09 389.88,338.64 386.53,340.66 383.05,342.07 379.39,342.99 375.72,343.41 372.15,343.32 368.60,342.75 365.24,341.67 362.03,340.04 359.03,337.89 356.38,335.36 354.08,332.27 352.16,328.75 350.61,325.17 349.17,320.10 348.30,314.84 347.33,303.16 352.04,255.55 355.94,216.33 359.66,189.97 362.61,174.76 367.92,162.35 376.06,153.12 407.76,128.93 419.37,117.47 425.56,109.21 431.75,98.00 433.80,92.51 435.16,86.97 435.78,81.85 435.58,76.76 434.75,72.95 433.45,69.15 431.75,65.68 428.77,61.64 425.12,58.17 420.66,54.92 415.65,52.15 410.46,49.84 403.63,47.78 317.30,41.30 273.72,40.00 163.58,40.68 155.66,42.04 147.82,44.59 141.27,48.85 133.75,56.70 128.98,65.88 125.63,77.85 124.47,91.08 124.54,110.15 125.17,149.04 126.98,235.36 126.16,250.74 123.31,279.38 120.28,293.09 117.26,303.33"
        fill="none"
        stroke="#e94560"
        stroke-width="8.0"
        stroke-linejoin="round"
        stroke-linecap="round"/>
  <!-- Start/finish line -->
  <line x1="136.45" y1="308.98" x2="98.08" y2="297.68"
        stroke="#f5f5f5" stroke-width="9.6"
        stroke-linecap="round"/>
</svg>
