<?xml version="1.0" encoding="utf-8"?>
<svg xmlns="http://www.w3.org/2000/svg"
     width="800.0" height="534.2"
     viewBox="0 0 800.0 534.2">
  <rect width="100%" height="100%" fill="#1a1a2e"/>
  <!-- Track outline -->
  <polyline points="273.37,73.84 650.39,150.92 669.10,155.18 684.08,158.49 699.32,162.49 714.17,167.02 728.09,172.83 740.31,180.76 750.12,191.04 756.83,203.13 760.00,216.38 759.23,230.21 754.34,243.75 746.51,256.27 736.19,267.07 724.20,276.46 711.15,285.57 700.37,292.97 689.46,300.74 678.32,308.78 666.99,317.05 655.44,325.46 643.75,334.01 632.09,343.00 620.39,352.36 607.96,361.80 594.83,371.54 581.06,381.59 570.41,389.37 559.47,397.32 548.48,405.24 537.75,412.87 527.20,420.42 516.77,428.19 506.40,435.97 495.95,443.63 485.48,451.23 471.61,461.17 458.07,470.59 444.84,479.29 431.59,486.86 417.74,491.90 403.85,494.21 390.49,493.17 375.54,487.67 364.34,477.65 358.35,463.48 357.91,447.55 362.85,432.37 372.81,419.70 383.57,411.78 395.74,405.09 408.69,398.67 422.27,391.76 436.17,384.24 449.91,375.98 463.04,366.87 475.19,356.68 485.07,344.49 491.84,330.38 494.54,314.74 493.59,298.41 489.08,282.34 481.70,266.73 475.03,255.21 467.83,243.60 460.13,231.91 452.02,220.16 443.61,208.32 434.73,196.48 425.23,184.79 414.50,173.96 402.25,164.71 388.74,157.25 374.59,150.60 359.69,146.14 344.32,143.60 328.73,142.79 313.36,143.28 298.25,144.95 283.61,148.15 269.77,153.34 257.05,160.13 245.55,168.34 235.18,177.27 226.04,186.92 215.54,200.46 206.56,214.57 198.94,228.51 192.10,242.02 186.31,255.24 182.91,268.72 182.83,282.11 188.16,297.03 198.38,308.69 212.74,315.46 228.90,316.10 242.31,314.57 256.33,313.30 270.69,313.62 285.10,315.81 299.34,320.36 311.97,328.05 321.52,338.68 327.36,351.84 329.81,366.56 328.52,381.82 324.22,397.14 317.04,412.12 306.93,425.75 294.27,437.04 279.16,444.81 262.20,448.35 248.87,449.02 235.36,447.75 221.90,444.38 208.59,439.74 195.11,434.59 181.39,429.23 167.54,423.58 153.44,417.80 139.26,411.63 124.95,405.58 111.26,399.97 98.42,394.55 86.43,389.20 71.47,382.20 58.40,373.87 47.95,363.30 41.39,350.95 40.00,335.19 45.82,321.25 57.04,310.36 67.33,301.75 78.04,292.71 87.22,282.40 93.25,270.56 95.87,257.63 95.77,243.98 93.81,229.83 90.16,215.61 85.22,201.41 79.63,187.06 73.82,172.49 68.05,157.57 62.60,142.36 58.04,126.69 55.44,110.65 55.39,94.61 58.14,78.97 64.09,64.88 72.89,53.16 84.03,44.69 96.64,40.35 109.92,40.00 123.36,42.22 135.61,44.61 149.43,47.72 164.33,50.74 179.46,54.23 273.37,73.84"
        fill="none"
        stroke="#e94560"
        stroke-width="8.0"
        stroke-linejoin="round"
        stroke-linecap="round"/>
  <!-- Start/finish line -->
  <line x1="277.39" y1="54.25" x2="269.35" y2="93.43"
        stroke="#f5f5f5" stroke-width="9.6"
        stroke-linecap="round"/>
</svg>
