<?xml version="1.0" encoding="utf-8"?>
<svg xmlns="http://www.w3.org/2000/svg"
     width="800.0" height="445.9"
     viewBox="0 0 800.0 445.9">
  <rect width="100%" height="100%" fill="#1a1a2e"/>
  <!-- Track outline -->
  <polyline points="420.06,41.04 244.65,40.00 172.69,47.33 155.30,51.26 139.34,57.08 119.07,68.02 99.74,81.49 85.82,93.71 73.50,107.35 62.61,122.08 53.42,138.95 46.01,160.87 41.30,184.56 40.00,208.12 41.08,230.50 43.11,245.63 46.51,259.61 51.78,274.18 58.89,288.54 70.98,307.44 85.24,325.09 100.26,339.07 116.52,351.00 135.21,362.20 155.34,371.69 206.11,387.17 249.11,394.60 604.80,405.91 623.80,403.96 637.94,400.78 652.03,396.45 665.65,390.81 679.14,384.04 692.56,375.38 709.25,360.65 723.28,346.16 730.69,336.64 748.82,302.39 753.43,289.40 758.98,260.39 760.00,237.93 758.64,214.72 753.88,193.49 747.98,175.63 741.99,162.77 717.78,125.05 710.01,116.87 666.45,82.30 654.00,75.18 623.15,62.57 606.73,59.30 426.09,41.07 420.06,41.04"
        fill="none"
        stroke="#e94560"
        stroke-width="8.0"
        stroke-linejoin="round"
        stroke-linecap="round"/>
  <!-- Start/finish line -->
  <line x1="419.94" y1="61.04" x2="420.18" y2="21.04"
        stroke="#f5f5f5" stroke-width="9.6"
        stroke-linecap="round"/>
</svg>
