<?xml version="1.0" encoding="utf-8"?>
<svg xmlns="http://www.w3.org/2000/svg"
     width="443.9" height="800.0"
     viewBox="0 0 443.9 800.0">
  <rect width="100%" height="100%" fill="#1a1a2e"/>
  <!-- Track outline -->
  <polyline points="250.90,42.74 259.21,41.64 278.02,40.28 299.85,40.00 350.29,41.52 380.31,43.47 387.91,44.66 390.63,45.39 393.14,46.31 395.44,47.44 397.53,48.77 399.06,50.03 400.39,51.45 401.53,53.00 402.48,54.70 403.19,56.50 403.67,58.39 403.90,60.35 403.88,62.33 403.61,64.37 403.09,66.36 402.31,68.36 401.29,70.27 400.02,72.14 398.55,73.88 396.86,75.54 394.96,77.09 392.30,78.86 389.48,80.42 384.44,82.34 378.90,83.47 371.44,83.81 363.63,83.07 354.07,80.82 340.85,76.30 321.47,69.69 314.95,68.39 308.89,67.76 303.74,67.65 298.61,68.04 286.14,70.68 280.52,72.62 275.37,74.92 271.79,76.96 268.66,79.20 266.29,81.36 264.28,83.65 262.91,85.63 261.78,87.79 260.73,90.57 259.95,93.65 259.51,97.45 259.49,101.52 260.00,106.12 261.13,111.46 270.57,141.39 273.43,147.27 276.15,151.72 277.81,154.01 279.43,155.81 280.94,157.13 282.52,158.17 284.20,158.97 286.00,159.52 288.20,159.83 290.67,159.75 295.08,158.58 299.40,157.17 303.38,156.22 305.44,156.07 307.50,156.14 309.59,156.48 311.65,157.06 313.71,157.89 315.72,158.96 317.67,160.23 319.60,161.76 324.08,166.37 328.10,171.99 331.40,178.42 333.68,185.35 334.55,191.11 334.43,196.92 333.34,202.69 330.14,211.27 326.56,222.03 324.05,237.47 319.98,265.74 319.90,299.16 319.88,323.21 318.70,343.65 315.77,371.88 312.87,406.42 313.08,429.16 316.48,453.54 318.26,465.40 318.82,474.76 318.37,488.61 317.35,511.78 318.84,528.32 319.73,540.11 319.59,549.43 318.54,558.58 316.51,567.56 312.05,580.76 299.24,613.17 297.85,618.86 297.17,623.83 296.94,628.38 297.14,632.95 297.83,638.32 299.08,643.93 304.61,658.36 314.54,678.31 320.27,692.14 324.92,706.14 328.66,720.52 330.42,731.06 330.58,737.54 330.28,739.96 329.75,742.23 328.96,744.46 327.97,746.58 326.75,748.63 325.30,750.60 323.30,752.86 321.09,754.93 318.86,756.62 316.55,757.98 314.27,758.98 311.96,759.65 309.71,759.97 307.53,760.00 305.80,759.85 304.21,759.50 302.97,759.06 301.78,758.42 300.22,757.23 298.69,755.73 297.43,754.21 296.02,752.08 280.60,723.03 230.08,636.41 213.06,605.46 195.48,570.20 176.63,530.75 154.08,479.91 127.37,416.90 101.39,357.66 93.46,344.42 83.34,333.07 75.12,325.06 73.10,322.58 71.48,320.13 70.22,317.71 69.27,315.30 68.74,313.47 68.45,311.68 68.40,309.97 68.58,308.30 69.01,306.73 69.70,305.22 70.84,303.52 72.42,301.68 77.20,297.09 82.12,292.17 84.17,289.36 85.75,286.51 87.12,283.26 88.15,279.71 88.89,275.30 89.19,270.56 89.03,265.12 88.28,259.30 83.49,242.41 76.78,226.87 70.34,216.62 67.32,212.97 64.06,209.70 55.62,203.24 49.82,198.40 45.90,193.87 43.54,190.07 41.81,185.93 40.43,179.93 40.00,173.53 40.52,166.91 41.97,160.22 44.38,153.62 47.77,147.29 52.09,141.33 58.58,134.38 66.01,127.96 79.30,118.37 93.67,109.19 116.69,96.28 149.66,79.03 178.31,65.19 194.57,58.23 210.46,52.09 219.40,49.31 230.61,46.41 243.47,43.71 250.90,42.74"
        fill="none"
        stroke="#e94560"
        stroke-width="8.0"
        stroke-linejoin="round"
        stroke-linecap="round"/>
  <!-- Start/finish line -->
  <line x1="248.30" y1="22.91" x2="253.51" y2="62.57"
        stroke="#f5f5f5" stroke-width="9.6"
        stroke-linecap="round"/>
</svg>
