<?xml version="1.0" encoding="utf-8"?>
<svg xmlns="http://www.w3.org/2000/svg"
     width="715.7" height="800.0"
     viewBox="0 0 715.7 800.0">
  <rect width="100%" height="100%" fill="#1a1a2e"/>
  <!-- Track outline -->
  <polyline points="229.54,48.59 265.14,49.74 296.99,50.95 325.63,51.56 353.10,53.92 385.81,61.36 416.28,73.89 441.91,90.78 461.30,112.02 476.18,140.34 483.91,172.78 486.15,203.95 485.15,238.69 483.73,266.16 481.80,296.06 479.83,328.80 476.80,363.90 474.11,398.28 471.86,430.65 469.83,460.07 468.52,494.80 467.76,524.64 469.38,556.96 478.59,587.22 498.02,607.37 526.83,612.88 555.61,600.29 574.24,578.08 583.24,552.42 584.38,521.19 581.62,489.84 577.83,462.30 574.58,433.80 570.96,402.45 567.61,368.80 564.82,336.61 562.16,306.83 559.47,271.67 557.71,241.83 557.92,209.76 564.51,182.34 582.00,159.04 610.16,151.60 638.11,162.73 655.77,183.73 667.78,213.21 672.54,243.10 673.30,278.39 673.30,307.62 673.30,338.97 673.34,373.16 673.27,409.05 673.13,446.09 673.72,485.06 674.37,522.28 675.06,556.41 675.51,587.46 675.72,615.84 675.17,649.92 671.34,680.11 661.16,707.65 644.63,731.50 622.10,749.05 590.15,760.00 562.68,758.12 534.66,751.22 505.06,743.54 474.11,732.65 446.09,716.30 421.69,693.97 402.85,665.77 391.50,639.93 382.67,611.91 378.53,581.95 377.29,549.69 377.60,515.38 380.05,479.43 384.08,441.37 388.36,402.33 392.29,366.20 394.43,333.22 394.68,303.68 392.29,268.22 385.84,235.78 374.18,205.52 355.72,179.92 328.56,161.95 294.92,149.90 266.84,145.36 236.30,145.00 204.80,148.69 175.67,153.29 141.58,158.92 111.80,163.52 80.41,163.70 54.18,151.72 40.00,127.57 41.69,97.98 57.36,72.80 87.03,55.01 119.84,45.20 148.45,41.57 178.23,40.00 229.54,48.59"
        fill="none"
        stroke="#e94560"
        stroke-width="8.0"
        stroke-linejoin="round"
        stroke-linecap="round"/>
  <!-- Start/finish line -->
  <line x1="231.76" y1="28.72" x2="227.31" y2="68.47"
        stroke="#f5f5f5" stroke-width="9.6"
        stroke-linecap="round"/>
</svg>
