<?xml version="1.0" encoding="utf-8"?>
<svg xmlns="http://www.w3.org/2000/svg"
     width="550.1" height="800.0"
     viewBox="0 0 550.1 800.0">
  <rect width="100%" height="100%" fill="#1a1a2e"/>
  <!-- Track outline -->
  <polyline points="40.71,542.58 40.00,520.39 40.78,501.45 49.48,396.09 64.67,271.39 69.85,248.02 74.45,232.48 80.44,217.92 87.44,204.63 95.25,192.49 101.90,184.54 109.48,176.91 117.64,170.17 126.39,164.33 136.09,159.45 145.72,155.65 159.67,151.75 174.15,149.19 235.34,146.44 278.91,145.11 299.79,143.13 315.89,139.73 331.23,133.83 346.09,126.75 359.53,117.54 371.49,106.57 381.70,94.12 396.56,73.53 405.86,62.75 411.32,58.11 419.56,52.15 428.48,46.95 437.00,43.34 445.67,40.99 454.31,40.00 462.93,40.37 471.32,42.10 479.31,45.19 486.38,49.52 492.75,55.05 498.06,61.48 502.43,68.80 505.72,76.78 508.04,85.28 509.56,94.12 510.14,103.17 509.76,112.47 508.42,121.74 506.12,131.08 502.89,140.16 498.59,149.10 493.48,157.59 481.05,173.70 465.81,188.04 448.24,199.93 421.98,212.64 363.60,230.56 332.74,238.23 317.98,243.45 304.46,249.60 295.41,255.10 287.43,261.34 280.40,268.24 274.31,275.90 269.48,283.87 265.79,292.47 263.52,301.40 262.53,310.61 262.91,319.94 264.58,329.15 267.69,338.08 271.76,346.70 281.59,363.55 285.08,371.98 287.40,380.70 288.09,389.45 287.40,398.13 285.31,406.57 281.94,414.51 277.60,421.59 271.71,428.32 257.40,439.02 242.67,449.46 235.72,455.95 230.11,462.66 225.69,469.98 222.20,477.87 219.59,486.06 218.10,494.52 218.05,503.18 219.24,511.77 221.64,520.27 225.20,528.33 230.11,535.97 235.97,542.86 242.87,549.23 250.43,554.79 258.74,559.64 267.49,563.72 286.34,569.87 327.56,577.20 341.59,581.12 355.04,586.68 364.41,592.34 373.33,598.77 383.92,608.81 393.02,620.18 400.02,632.92 404.80,646.58 407.35,660.82 407.50,675.32 405.20,689.57 400.70,703.29 397.55,709.75 393.88,715.87 384.93,727.02 374.42,736.60 362.57,744.58 349.68,750.85 335.95,755.43 321.67,758.42 307.02,760.00 276.94,759.69 230.77,753.02 215.40,749.09 185.05,738.03 155.70,723.35 127.80,705.11 114.84,694.48 102.93,682.71 91.81,670.10 81.70,656.53 64.39,627.35 57.24,611.90 51.25,595.92 43.79,565.64 40.71,542.58"
        fill="none"
        stroke="#e94560"
        stroke-width="8.0"
        stroke-linejoin="round"
        stroke-linecap="round"/>
  <!-- Start/finish line -->
  <line x1="20.78" y1="544.25" x2="60.64" y2="540.91"
        stroke="#f5f5f5" stroke-width="9.6"
        stroke-linecap="round"/>
</svg>
