<?xml version="1.0" encoding="utf-8"?>
<svg xmlns="http://www.w3.org/2000/svg"
     width="784.5" height="800.0"
     viewBox="0 0 784.5 800.0">
  <rect width="100%" height="100%" fill="#1a1a2e"/>
  <!-- Track outline -->
  <polyline points="197.48,581.71 258.91,646.51 311.10,692.59 345.85,712.94 382.29,729.88 419.12,744.21 457.64,754.63 501.37,760.00 545.36,759.35 586.10,752.18 624.62,739.16 647.92,727.92 669.78,714.08 689.30,697.31 707.52,675.01 723.14,649.28 734.73,621.93 743.31,576.34 744.49,530.26 741.62,492.32 734.99,455.52 711.04,379.00 674.47,303.61 651.56,267.95 625.01,235.06 594.82,207.06 558.51,179.70 401.16,81.85 356.91,62.14 314.61,49.28 269.71,40.98 224.94,40.00 196.57,44.88 168.98,53.51 143.34,65.73 119.91,81.68 98.44,101.06 80.22,123.04 65.51,148.11 54.19,175.79 46.12,204.45 40.00,250.85 41.56,298.56 51.71,347.41 67.46,393.81 101.82,463.18 146.85,528.30 197.48,581.71"
        fill="none"
        stroke="#e94560"
        stroke-width="8.0"
        stroke-linejoin="round"
        stroke-linecap="round"/>
  <!-- Start/finish line -->
  <line x1="211.99" y1="567.95" x2="182.96" y2="595.47"
        stroke="#f5f5f5" stroke-width="9.6"
        stroke-linecap="round"/>
</svg>
