<?xml version="1.0" encoding="utf-8"?>
<svg xmlns="http://www.w3.org/2000/svg"
     width="512.5" height="800.0"
     viewBox="0 0 512.5 800.0">
  <rect width="100%" height="100%" fill="#1a1a2e"/>
  <!-- Track outline -->
  <polyline points="41.86,442.02 44.11,508.71 50.08,554.16 60.48,592.83 78.14,634.15 100.41,671.17 123.46,699.02 149.40,721.66 180.28,740.25 212.12,753.06 238.06,758.68 263.61,760.00 289.61,757.69 315.17,751.74 338.86,742.89 361.97,729.92 388.87,708.77 413.71,682.49 433.36,653.81 449.22,621.01 461.93,577.71 470.98,531.10 472.52,483.59 470.98,419.71 467.84,358.97 461.61,280.30 457.69,241.38 450.89,210.97 436.06,173.21 414.81,136.35 389.25,103.22 361.58,76.11 340.01,60.99 317.67,50.49 292.18,43.14 265.73,40.00 238.00,41.49 210.39,47.44 183.87,57.52 158.52,71.48 135.08,88.59 113.38,109.83 91.55,138.91 72.74,173.21 57.40,213.29 46.68,262.12 40.00,385.66 41.86,442.02"
        fill="none"
        stroke="#e94560"
        stroke-width="8.0"
        stroke-linejoin="round"
        stroke-linecap="round"/>
  <!-- Start/finish line -->
  <line x1="61.85" y1="441.35" x2="21.87" y2="442.69"
        stroke="#f5f5f5" stroke-width="9.6"
        stroke-linecap="round"/>
</svg>
