<?xml version="1.0" encoding="utf-8"?>
<svg xmlns="http://www.w3.org/2000/svg"
     width="726.6" height="800.0"
     viewBox="0 0 726.6 800.0">
  <rect width="100%" height="100%" fill="#1a1a2e"/>
  <!-- Track outline -->
  <polyline points="164.94,322.97 168.57,311.66 182.97,265.37 200.26,205.62 208.71,180.79 230.54,143.30 252.03,114.49 266.85,97.60 290.28,74.51 302.49,62.17 310.03,55.62 318.53,50.31 326.31,46.03 334.07,42.74 341.18,40.88 348.30,40.00 355.67,40.11 363.02,41.12 370.26,42.92 377.51,45.55 385.67,49.47 393.91,54.37 411.67,68.18 428.60,84.41 443.22,102.62 454.26,119.38 467.07,139.63 476.88,156.31 491.59,185.06 503.00,207.97 518.97,239.90 529.85,263.97 540.87,290.12 553.23,319.58 560.12,330.14 567.86,339.38 576.60,347.82 586.28,355.21 610.80,367.77 640.12,379.17 655.10,388.01 661.93,393.35 668.10,399.11 672.65,404.24 676.55,409.69 679.83,415.52 682.39,421.74 683.85,427.73 684.81,434.76 686.58,465.35 686.17,483.10 684.75,493.62 682.93,500.35 679.48,507.35 675.35,513.90 671.43,518.76 667.18,522.98 662.46,526.77 657.42,529.98 651.99,532.65 646.33,534.60 640.49,535.75 634.33,536.12 627.08,535.64 618.61,534.28 575.93,524.40 538.49,515.23 531.64,512.33 525.67,508.94 518.29,503.98 511.11,498.16 504.66,491.91 498.48,484.72 484.15,462.79 475.85,445.92 470.55,427.84 466.11,397.60 460.78,371.42 447.09,329.26 420.38,279.88 410.96,262.85 403.88,254.20 399.47,249.54 393.76,245.60 387.65,242.47 381.10,240.20 374.34,238.95 367.39,238.90 360.47,239.95 353.72,242.12 347.24,245.28 341.17,249.26 335.39,254.20 329.23,260.79 323.52,268.59 317.82,278.79 313.16,290.18 309.82,302.87 308.05,316.21 308.10,330.25 309.83,344.69 319.37,378.58 341.68,429.89 347.80,451.29 349.89,468.42 349.09,485.57 345.21,502.70 336.53,523.68 324.28,543.88 306.02,566.40 277.83,594.31 113.57,743.90 101.74,753.08 96.49,755.89 91.19,757.94 85.67,759.33 80.08,760.00 74.52,759.91 69.05,759.05 63.78,757.44 58.80,755.03 54.28,751.84 50.27,747.88 46.98,743.30 44.32,738.16 42.30,732.62 40.91,726.58 40.04,718.85 40.00,710.57 40.94,701.01 42.89,690.97 51.31,665.30 84.32,574.63 164.94,322.97"
        fill="none"
        stroke="#e94560"
        stroke-width="8.0"
        stroke-linejoin="round"
        stroke-linecap="round"/>
  <!-- Start/finish line -->
  <line x1="145.89" y1="316.87" x2="183.99" y2="329.08"
        stroke="#f5f5f5" stroke-width="9.6"
        stroke-linecap="round"/>
</svg>
