<?xml version="1.0" encoding="utf-8"?>
<svg xmlns="http://www.w3.org/2000/svg"
     width="800.0" height="231.3"
     viewBox="0 0 800.0 231.3">
  <rect width="100%" height="100%" fill="#1a1a2e"/>
  <!-- Track outline -->
  <polyline points="409.09,40.17 734.38,40.17 739.56,40.41 744.45,41.24 748.87,42.99 752.45,45.48 755.22,48.97 757.24,52.83 758.71,57.25 759.63,61.21 760.00,65.51 759.92,68.77 759.59,71.47 758.94,73.91 757.47,76.68 703.05,131.10 698.66,134.89 690.22,140.51 625.73,181.02 622.08,182.99 618.61,184.39 615.05,185.33 611.77,185.80 608.30,185.80 603.65,184.78 594.00,180.28 542.34,153.58 538.38,152.68 533.94,152.44 528.69,152.85 523.98,153.96 517.48,156.60 511.12,161.02 504.75,165.72 492.44,176.38 487.39,180.36 482.68,183.26 476.33,186.03 469.55,188.25 462.48,189.76 452.66,190.87 438.17,191.27 417.41,190.85 403.72,189.19 393.07,186.84 382.97,183.24 372.73,177.57 290.20,120.07 279.70,113.85 268.42,108.60 257.54,105.11 246.07,103.16 229.55,101.99 58.73,99.07 52.79,97.82 47.73,95.38 43.40,91.08 41.09,85.75 40.00,79.45 40.25,73.03 42.91,66.00 47.03,59.33 54.18,51.70 60.72,46.13 68.12,42.49 74.90,40.55 81.87,40.00 89.19,40.17 409.09,40.17"
        fill="none"
        stroke="#e94560"
        stroke-width="8.0"
        stroke-linejoin="round"
        stroke-linecap="round"/>
  <!-- Start/finish line -->
  <line x1="409.09" y1="20.17" x2="409.09" y2="60.17"
        stroke="#f5f5f5" stroke-width="9.6"
        stroke-linecap="round"/>
</svg>
