<?xml version="1.0" encoding="utf-8"?>
<svg xmlns="http://www.w3.org/2000/svg"
     width="700.1" height="800.0"
     viewBox="0 0 700.1 800.0">
  <rect width="100%" height="100%" fill="#1a1a2e"/>
  <!-- Track outline -->
  <polyline points="145.31,525.99 187.91,585.80 277.75,691.00 306.79,714.47 336.17,732.00 370.86,747.27 407.24,757.17 432.55,760.00 458.32,760.00 483.85,756.89 509.62,750.38 535.04,740.77 559.00,727.62 581.37,710.51 602.27,690.01 619.90,668.23 636.85,639.39 648.94,608.42 656.74,575.62 660.13,541.68 658.09,507.46 652.56,473.53 635.61,407.64 590.86,300.46 538.54,194.41 515.61,156.65 491.76,126.82 461.03,98.26 426.79,74.93 388.37,57.25 347.92,45.66 306.11,40.00 264.19,40.85 223.28,48.20 183.73,61.78 146.90,80.44 113.56,105.18 95.03,124.98 78.53,147.32 64.75,171.64 53.67,197.38 45.08,224.95 40.00,253.09 40.00,297.06 46.55,339.62 56.50,371.30 71.07,403.11 145.31,525.99"
        fill="none"
        stroke="#e94560"
        stroke-width="8.0"
        stroke-linejoin="round"
        stroke-linecap="round"/>
  <!-- Start/finish line -->
  <line x1="162.16" y1="515.21" x2="128.46" y2="536.76"
        stroke="#f5f5f5" stroke-width="9.6"
        stroke-linecap="round"/>
</svg>
