<?xml version="1.0" encoding="utf-8"?>
<svg xmlns="http://www.w3.org/2000/svg"
     width="800.0" height="651.9"
     viewBox="0 0 800.0 651.9">
  <rect width="100%" height="100%" fill="#1a1a2e"/>
  <!-- Track outline -->
  <polyline points="317.30,114.03 269.64,138.33 177.34,189.09 136.24,221.80 104.47,258.09 75.78,299.82 51.64,343.81 44.47,367.70 41.39,390.67 40.00,416.92 42.24,442.86 49.25,465.93 59.28,487.87 70.77,508.89 84.19,528.58 99.15,546.73 116.03,563.24 136.24,578.72 158.21,591.74 180.58,601.28 204.10,607.94 228.85,611.43 256.07,611.94 304.11,608.46 351.15,600.77 396.72,583.64 483.86,541.19 597.83,478.95 697.85,413.23 716.35,390.98 728.00,369.45 737.95,346.58 745.58,322.89 755.99,272.86 759.15,249.48 760.00,225.79 757.07,198.21 750.21,170.94 738.87,145.41 724.30,122.13 708.64,103.67 690.83,87.68 670.01,73.22 647.26,61.22 622.05,51.59 595.52,44.72 566.68,40.92 537.92,40.00 489.57,44.20 410.14,69.84 317.30,114.03"
        fill="none"
        stroke="#e94560"
        stroke-width="8.0"
        stroke-linejoin="round"
        stroke-linecap="round"/>
  <!-- Start/finish line -->
  <line x1="326.06" y1="132.01" x2="308.53" y2="96.05"
        stroke="#f5f5f5" stroke-width="9.6"
        stroke-linecap="round"/>
</svg>
