<?xml version="1.0" encoding="utf-8"?>
<svg xmlns="http://www.w3.org/2000/svg"
     width="632.1" height="800.0"
     viewBox="0 0 632.1 800.0">
  <rect width="100%" height="100%" fill="#1a1a2e"/>
  <!-- Track outline -->
  <polyline points="269.73,507.33 283.70,592.30 284.25,613.49 282.35,638.14 276.96,660.50 274.06,669.71 263.77,689.91 249.31,711.01 239.62,720.21 233.99,724.34 226.02,728.62 204.81,735.58 197.86,737.10 181.63,738.33 167.41,737.32 159.69,735.55 145.44,729.58 139.69,726.31 133.42,721.90 122.98,712.47 114.75,702.45 107.17,690.30 101.70,678.27 98.11,665.65 96.77,658.54 95.96,650.86 95.69,628.84 96.51,550.70 92.82,499.67 92.56,481.07 93.38,457.94 94.29,450.98 95.98,443.94 102.47,427.25 109.31,412.69 112.34,407.95 119.47,399.22 129.74,387.70 149.85,369.33 158.47,360.11 163.04,353.36 166.99,345.98 169.61,339.02 171.41,332.51 172.09,329.18 172.39,325.75 172.11,318.03 171.34,310.84 171.02,309.01 170.42,307.24 165.47,297.61 159.50,287.61 154.93,281.64 150.15,276.97 142.92,271.30 132.04,265.26 89.25,245.14 82.15,240.32 76.41,235.15 71.02,228.80 66.15,221.47 61.37,212.65 56.88,202.17 44.58,161.17 41.89,149.73 40.72,140.23 40.00,128.36 40.70,118.61 43.39,104.73 46.22,96.39 49.80,88.87 53.86,82.74 58.86,76.46 72.62,63.27 77.01,59.84 83.02,56.10 98.70,48.60 114.49,43.24 135.03,40.21 144.23,40.00 159.85,41.62 177.25,45.66 189.83,50.65 235.47,69.67 256.37,74.91 279.63,78.20 383.10,79.94 442.54,82.43 452.61,84.40 464.00,88.17 475.73,92.84 486.93,98.74 511.00,116.32 521.32,124.90 531.39,134.57 540.77,144.60 547.91,154.36 554.53,165.62 559.58,175.75 568.48,198.93 572.56,211.36 575.86,224.41 577.54,234.98 580.10,269.11 581.57,307.69 592.08,629.98 588.77,686.80 586.73,696.98 584.21,705.20 581.71,711.48 578.72,717.13 574.37,723.24 570.08,728.24 566.50,731.44 561.58,734.78 538.70,744.81 521.83,749.84 481.11,757.23 457.44,759.81 431.80,760.00 412.80,756.94 401.17,753.06 389.37,746.58 379.06,739.15 368.78,728.92 364.15,723.09 356.54,710.85 353.86,704.92 351.72,698.67 350.12,691.64 349.16,684.41 348.84,677.70 349.15,670.94 352.03,655.72 356.35,643.62 362.14,633.16 370.52,622.86 381.06,613.13 390.15,606.90 415.47,592.94 437.89,577.69 443.99,572.65 449.37,567.16 455.43,558.98 460.28,551.17 461.65,548.61 462.72,545.76 465.49,535.11 467.51,521.48 466.71,502.28 465.33,483.80 466.20,466.55 467.25,461.19 469.25,454.84 480.61,426.77 516.84,346.36 529.88,310.44 532.29,299.04 533.27,288.37 533.46,277.93 533.05,273.28 532.04,268.57 528.00,254.76 521.76,239.71 511.95,225.60 502.27,214.56 495.86,208.77 488.44,203.74 480.79,199.91 472.25,196.72 462.90,194.04 455.63,192.79 447.67,192.39 429.03,193.68 411.70,196.06 403.62,198.24 376.81,209.37 366.94,215.19 334.06,242.20 301.63,274.76 282.10,299.39 273.42,312.53 265.79,326.69 259.41,343.91 254.97,359.81 253.21,371.72 253.32,406.27 254.85,416.64 269.49,505.82 269.73,507.33"
        fill="none"
        stroke="#e94560"
        stroke-width="8.0"
        stroke-linejoin="round"
        stroke-linecap="round"/>
  <!-- Start/finish line -->
  <line x1="289.47" y1="504.09" x2="250.00" y2="510.57"
        stroke="#f5f5f5" stroke-width="9.6"
        stroke-linecap="round"/>
</svg>
