<?xml version="1.0" encoding="utf-8"?>
<svg xmlns="http://www.w3.org/2000/svg"
     width="657.4" height="800.0"
     viewBox="0 0 657.4 800.0">
  <rect width="100%" height="100%" fill="#1a1a2e"/>
  <!-- Track outline -->
  <polyline points="114.73,219.50 111.58,224.18 88.98,264.79 55.53,341.72 44.39,376.86 40.46,405.18 40.00,456.68 42.24,510.89 43.46,519.84 45.13,526.82 46.90,531.26 48.96,534.91 50.85,537.41 53.01,539.49 56.15,541.62 59.65,543.25 63.43,544.32 67.45,544.78 72.48,544.54 77.50,543.60 81.73,542.21 85.66,540.23 89.17,537.69 92.31,534.57 95.07,530.87 97.28,526.77 98.58,522.92 99.34,518.81 99.72,513.92 99.45,508.40 94.21,486.59 89.16,463.11 85.49,435.70 84.50,414.86 85.82,393.07 88.37,378.98 90.29,373.21 92.58,367.96 94.92,363.72 97.51,359.91 100.26,356.55 103.33,353.48 107.50,350.11 111.96,347.18 115.94,345.11 120.02,343.50 124.42,342.24 129.10,341.35 141.38,340.54 149.27,341.34 231.03,362.07 257.40,369.17 268.76,373.83 277.10,379.18 284.80,386.07 291.41,394.27 297.99,406.02 302.65,419.35 306.62,438.12 308.89,458.97 309.69,488.49 308.24,517.03 303.53,551.82 297.31,582.01 266.31,692.55 262.88,709.18 262.73,714.69 263.25,719.88 264.47,725.25 266.32,730.42 268.88,735.50 271.90,740.10 274.78,743.63 278.15,746.76 283.94,750.63 290.54,753.95 297.58,756.47 305.23,758.25 315.80,759.61 327.50,760.00 359.68,756.87 452.56,739.88 514.57,728.84 544.06,722.13 550.14,719.70 555.22,716.93 559.44,714.03 563.38,710.51 567.82,705.34 572.16,698.91 578.00,688.03 583.50,675.09 593.90,637.71 600.35,587.71 601.59,524.81 603.52,430.33 606.17,409.47 610.50,390.23 617.06,364.27 617.35,360.67 617.12,357.65 616.33,354.56 615.09,351.70 613.38,349.06 611.21,346.72 608.08,344.45 604.29,342.42 596.87,339.54 589.85,336.68 587.46,335.11 585.42,333.20 582.11,329.12 579.00,324.43 576.84,320.49 575.07,316.38 573.64,311.80 572.56,306.82 571.14,292.96 571.45,274.87 573.46,245.32 572.42,233.53 570.25,222.91 567.60,215.51 564.22,208.89 559.91,202.35 555.05,196.54 550.14,191.96 545.06,188.20 540.71,185.60 535.94,183.54 527.75,181.29 518.73,179.86 509.40,179.37 499.85,179.89 489.84,181.50 479.19,184.36 446.29,198.12 423.29,206.97 394.92,216.00 382.78,218.38 377.80,218.58 373.16,218.29 369.62,217.69 366.14,216.67 361.67,214.81 357.16,212.38 352.71,209.38 348.45,205.87 340.38,197.04 331.39,183.33 319.88,161.14 274.08,62.15 267.57,49.84 264.62,46.25 261.62,43.51 259.31,42.00 256.89,40.97 253.64,40.21 250.27,40.00 248.25,40.16 246.27,40.54 244.25,41.20 240.58,43.08 236.87,45.81 232.75,49.92 228.17,55.62 200.78,96.58 171.06,137.37 162.10,149.47 159.68,152.82 145.47,173.89 114.73,219.50"
        fill="none"
        stroke="#e94560"
        stroke-width="8.0"
        stroke-linejoin="round"
        stroke-linecap="round"/>
  <!-- Start/finish line -->
  <line x1="131.32" y1="230.68" x2="98.15" y2="208.32"
        stroke="#f5f5f5" stroke-width="9.6"
        stroke-linecap="round"/>
</svg>
