<?xml version="1.0" encoding="utf-8"?>
<svg xmlns="http://www.w3.org/2000/svg"
     width="800.0" height="580.5"
     viewBox="0 0 800.0 580.5">
  <rect width="100%" height="100%" fill="#1a1a2e"/>
  <!-- Track outline -->
  <polyline points="342.66,466.02 426.47,501.33 552.11,538.76 568.69,540.53 582.85,540.38 599.30,539.89 615.35,537.82 628.67,533.93 641.52,528.61 667.86,514.53 689.51,497.78 708.99,477.84 724.64,457.45 738.26,433.96 748.31,408.80 755.97,378.56 760.00,345.37 755.90,317.25 749.08,294.25 745.88,287.01 742.38,281.06 738.16,273.57 732.46,265.59 712.98,246.19 689.77,227.13 653.71,205.71 313.16,52.95 289.61,46.16 229.74,40.10 218.95,40.00 208.30,41.18 180.16,48.03 152.69,56.99 134.84,65.76 114.82,79.35 99.11,93.83 80.29,117.71 63.08,142.97 58.01,151.89 54.05,161.39 46.73,186.21 41.27,211.27 40.00,228.90 41.30,249.34 42.83,259.49 45.19,269.24 48.56,277.71 53.22,286.47 79.16,325.23 96.41,344.09 113.72,358.12 131.94,370.68 155.32,382.70 323.38,457.89 342.66,466.02"
        fill="none"
        stroke="#e94560"
        stroke-width="8.0"
        stroke-linejoin="round"
        stroke-linecap="round"/>
  <!-- Start/finish line -->
  <line x1="350.42" y1="447.59" x2="334.89" y2="484.45"
        stroke="#f5f5f5" stroke-width="9.6"
        stroke-linecap="round"/>
</svg>
