<?xml version="1.0" encoding="utf-8"?>
<svg xmlns="http://www.w3.org/2000/svg"
     width="684.9" height="800.0"
     viewBox="0 0 684.9 800.0">
  <rect width="100%" height="100%" fill="#1a1a2e"/>
  <!-- Track outline -->
  <polyline points="422.13,521.49 393.42,554.54 259.83,712.36 243.09,729.63 224.79,743.52 214.88,748.97 204.51,753.41 193.48,756.70 182.14,758.90 158.79,760.00 135.06,757.80 123.36,754.90 111.94,750.68 90.27,737.41 69.52,721.77 61.21,713.06 54.14,703.31 48.58,691.92 44.39,679.97 41.71,669.03 40.12,658.04 40.00,635.72 43.38,612.77 50.99,588.82 61.56,567.55 73.14,550.24 86.77,532.70 94.85,524.00 103.75,516.79 110.19,513.58 117.07,511.34 123.95,510.51 129.15,510.86 134.47,511.96 139.56,513.80 144.07,516.44 147.99,519.91 151.57,524.18 154.52,529.01 156.58,534.11 157.66,539.73 157.86,545.89 157.31,552.08 156.19,557.97 151.88,568.39 145.97,578.32 138.86,588.43 132.45,598.75 129.93,605.65 128.22,612.82 127.71,619.98 128.65,627.28 130.78,634.57 133.97,641.25 138.63,647.67 144.46,653.43 150.71,658.04 156.81,661.03 163.30,663.01 169.98,664.33 180.93,665.29 191.96,664.46 202.76,661.38 213.02,656.55 222.23,650.35 230.42,642.70 237.26,633.69 242.74,623.54 246.62,612.33 248.95,600.42 249.46,587.24 248.60,574.14 247.51,564.17 245.03,552.92 211.97,468.19 205.17,443.71 203.89,431.58 204.12,419.49 206.10,407.23 209.72,395.41 214.65,384.73 221.91,373.65 243.32,349.48 269.73,323.68 325.21,276.09 382.85,238.82 393.19,230.43 402.55,220.89 423.25,194.61 443.26,165.16 462.91,127.46 470.96,104.52 475.89,83.77 479.85,72.83 485.06,62.68 489.45,56.79 494.50,51.47 500.09,47.12 506.38,43.65 513.22,41.14 520.17,40.00 525.61,40.13 531.17,41.10 536.64,42.77 541.81,45.10 548.45,49.54 554.63,55.25 560.11,61.45 566.09,70.63 571.29,80.52 582.21,102.54 608.51,139.28 634.11,175.32 639.27,184.90 642.42,193.69 644.60,205.33 644.91,217.37 643.94,225.07 642.11,232.67 639.20,239.74 634.85,246.56 629.33,252.75 623.15,257.94 616.08,262.11 608.35,265.23 600.43,267.04 592.62,267.56 584.70,266.77 576.31,264.40 563.06,256.44 548.96,245.37 536.10,236.80 525.53,232.80 515.47,230.95 504.52,230.51 493.53,231.88 482.42,235.26 471.65,240.45 461.87,246.86 450.83,256.44 360.87,356.78 326.49,387.15 318.29,396.59 312.23,406.35 309.43,413.69 307.57,421.47 306.87,429.29 307.38,437.38 309.05,445.51 312.04,452.85 315.38,457.86 319.61,462.43 324.39,466.38 329.44,469.37 335.03,471.39 341.13,472.45 347.31,472.76 353.21,472.36 359.97,470.87 366.50,468.23 372.79,464.93 382.27,458.43 391.21,450.47 399.91,440.85 407.64,430.48 417.89,411.76 437.98,368.86 442.48,362.36 446.99,357.00 452.19,352.51 457.24,349.26 462.88,346.45 468.70,344.38 474.49,343.33 480.16,343.33 485.99,344.25 491.62,346.01 496.71,348.56 501.26,351.99 505.45,356.29 509.10,361.17 511.94,366.18 514.11,372.51 515.24,379.23 515.51,386.05 514.35,396.55 511.51,407.05 507.00,418.00 501.18,428.63 485.45,450.21 422.13,521.49"
        fill="none"
        stroke="#e94560"
        stroke-width="8.0"
        stroke-linejoin="round"
        stroke-linecap="round"/>
  <!-- Start/finish line -->
  <line x1="437.13" y1="534.72" x2="407.13" y2="508.26"
        stroke="#f5f5f5" stroke-width="9.6"
        stroke-linecap="round"/>
</svg>
