<?xml version="1.0" encoding="utf-8"?>
<svg xmlns="http://www.w3.org/2000/svg"
     width="800.0" height="445.5"
     viewBox="0 0 800.0 445.5">
  <rect width="100%" height="100%" fill="#1a1a2e"/>
  <!-- Track outline -->
  <polyline points="218.25,235.40 232.67,221.99 259.88,192.36 267.72,185.50 276.37,179.49 316.47,160.40 373.16,138.04 391.72,132.74 401.62,130.51 411.67,129.59 417.02,129.97 422.51,130.85 427.74,132.36 432.30,134.68 435.46,137.20 438.47,140.35 441.03,143.84 442.99,147.54 444.04,151.24 444.08,155.11 443.22,159.19 441.71,163.39 439.72,167.38 437.49,171.04 430.76,178.15 420.37,185.75 277.16,278.79 261.13,291.99 253.75,299.64 247.09,307.88 241.21,316.71 236.39,326.00 232.89,335.34 230.67,345.09 229.77,356.52 230.67,367.96 232.48,374.94 235.15,381.71 238.65,387.72 242.91,392.80 247.91,397.22 253.49,400.71 259.92,403.32 266.92,404.95 273.96,405.50 281.19,404.83 288.46,402.98 295.23,400.12 301.33,395.96 306.90,390.74 311.99,385.24 323.84,368.42 336.87,352.99 344.85,346.73 353.47,341.31 371.80,332.60 392.09,326.46 412.80,324.24 433.35,322.09 443.56,319.78 452.59,316.67 461.55,312.34 469.98,307.00 477.21,301.20 484.81,293.25 508.57,259.07 532.77,225.78 538.27,220.77 543.24,217.33 548.62,214.76 553.48,213.08 558.67,211.90 563.94,211.36 568.91,211.74 572.75,212.74 576.67,214.34 580.40,216.44 583.75,218.97 586.49,221.78 588.75,225.19 590.63,229.18 591.99,233.51 592.78,237.89 592.93,242.09 591.39,248.69 588.07,255.21 584.01,262.18 560.22,296.32 554.87,305.19 551.22,313.77 549.79,320.41 549.26,327.31 550.02,333.99 551.67,339.12 554.19,344.25 557.39,348.91 561.12,352.61 564.62,354.84 568.65,356.61 572.94,357.83 577.35,358.54 581.52,358.63 588.38,357.15 595.19,354.09 601.55,350.26 609.23,344.25 617.85,334.87 684.33,245.49 746.18,154.18 751.53,144.22 754.69,136.02 757.82,125.30 759.62,114.20 760.00,106.93 759.70,99.66 758.38,92.76 755.82,86.33 752.28,80.23 747.92,74.77 742.34,69.72 735.87,65.39 729.17,61.69 720.51,57.83 708.77,54.80 612.96,45.21 495.54,40.00 366.53,45.26 243.10,51.77 232.33,54.00 223.90,56.82 214.71,60.60 205.94,65.27 190.13,77.00 173.08,93.52 165.62,102.30 159.30,111.64 154.74,121.39 151.81,131.52 151.02,141.36 151.58,151.37 154.06,162.34 155.76,173.31 155.38,177.68 154.63,182.18 153.46,186.55 151.77,190.51 149.43,193.74 145.29,196.81 140.02,199.00 134.30,200.43 128.84,201.31 119.17,200.64 109.49,199.12 99.63,198.62 89.80,199.04 80.05,200.97 70.76,204.46 64.73,208.16 59.01,212.70 54.00,217.71 49.94,222.83 46.47,228.38 43.73,234.27 41.69,240.66 40.38,247.39 40.00,254.15 40.56,261.09 42.07,268.07 44.48,274.71 47.98,281.06 52.46,287.03 57.50,292.37 66.09,299.01 75.65,304.18 85.81,307.88 96.54,310.11 108.21,310.99 119.92,310.32 130.99,308.22 141.64,304.60 151.35,299.81 161.44,292.75 205.41,247.30 218.25,235.40"
        fill="none"
        stroke="#e94560"
        stroke-width="8.0"
        stroke-linejoin="round"
        stroke-linecap="round"/>
  <!-- Start/finish line -->
  <line x1="204.64" y1="220.75" x2="231.86" y2="250.06"
        stroke="#f5f5f5" stroke-width="9.6"
        stroke-linecap="round"/>
</svg>
