<?xml version="1.0" encoding="utf-8"?>
<svg xmlns="http://www.w3.org/2000/svg"
     width="652.6" height="800.0"
     viewBox="0 0 652.6 800.0">
  <rect width="100%" height="100%" fill="#1a1a2e"/>
  <!-- Track outline -->
  <polyline points="609.84,406.53 611.96,387.37 612.59,336.83 606.87,288.24 593.94,242.98 574.66,199.66 550.71,159.40 522.10,120.80 488.83,85.54 451.11,59.71 419.33,48.05 384.15,41.39 348.33,40.00 314.22,43.89 269.93,58.88 227.12,83.04 189.19,112.19 158.67,143.57 132.61,179.39 83.44,249.36 41.48,386.26 40.00,431.24 44.66,476.22 54.41,520.37 70.30,566.46 91.92,611.72 119.26,652.82 143.84,681.14 172.02,707.52 202.54,730.01 234.33,746.39 267.17,755.56 302.14,760.00 337.32,759.17 370.59,753.06 412.54,735.01 452.17,707.80 487.56,675.87 532.06,618.67 566.82,555.36 590.98,497.05 606.45,435.68 609.84,406.53"
        fill="none"
        stroke="#e94560"
        stroke-width="8.0"
        stroke-linejoin="round"
        stroke-linecap="round"/>
  <!-- Start/finish line -->
  <line x1="589.97" y1="404.26" x2="629.71" y2="408.79"
        stroke="#f5f5f5" stroke-width="9.6"
        stroke-linecap="round"/>
</svg>
