<?xml version="1.0" encoding="utf-8"?>
<svg xmlns="http://www.w3.org/2000/svg"
     width="800.0" height="557.1"
     viewBox="0 0 800.0 557.1">
  <rect width="100%" height="100%" fill="#1a1a2e"/>
  <!-- Track outline -->
  <polyline points="370.08,513.20 436.95,517.10 513.37,513.62 589.08,504.43 624.20,495.93 654.75,483.18 686.25,461.79 711.67,439.36 719.10,430.93 725.23,421.81 736.24,402.79 746.49,379.53 755.23,348.39 760.00,314.67 758.19,277.82 752.77,245.43 749.25,233.03 744.53,222.09 735.28,204.33 722.52,185.52 694.84,155.29 662.73,126.94 635.65,107.29 605.21,91.06 546.88,71.21 479.31,56.23 389.07,44.25 302.31,40.00 253.17,42.86 211.72,49.61 187.96,55.60 166.10,64.59 138.67,81.80 112.80,102.90 94.21,121.43 77.83,142.75 61.15,171.31 48.24,203.63 41.96,240.90 40.00,275.10 41.46,301.09 45.53,324.01 52.71,348.32 66.48,375.00 84.36,400.28 110.44,428.01 136.61,450.51 149.17,459.29 162.39,466.18 190.07,477.96 224.53,488.96 370.08,513.20"
        fill="none"
        stroke="#e94560"
        stroke-width="8.0"
        stroke-linejoin="round"
        stroke-linecap="round"/>
  <!-- Start/finish line -->
  <line x1="372.71" y1="493.38" x2="367.45" y2="533.03"
        stroke="#f5f5f5" stroke-width="9.6"
        stroke-linecap="round"/>
</svg>
