<?xml version="1.0" encoding="utf-8"?>
<svg xmlns="http://www.w3.org/2000/svg"
     width="800.0" height="786.9"
     viewBox="0 0 800.0 786.9">
  <rect width="100%" height="100%" fill="#1a1a2e"/>
  <!-- Track outline -->
  <polyline points="318.63,645.44 367.52,684.91 417.47,714.27 449.31,725.98 528.32,745.35 556.32,746.90 585.29,744.30 615.23,737.07 629.85,731.66 644.87,724.43 666.64,711.18 686.78,696.50 696.63,687.34 704.93,677.95 720.03,656.98 743.39,607.74 751.52,580.74 760.00,524.99 758.90,498.00 744.41,420.66 733.06,390.14 718.22,362.21 688.90,321.03 646.76,272.50 549.25,187.77 449.66,112.98 375.47,68.93 336.65,52.75 302.38,42.15 290.10,40.11 277.56,40.00 236.35,43.64 194.97,50.32 181.37,53.97 168.78,58.77 144.54,70.03 121.26,83.17 110.44,91.17 100.50,100.61 82.44,121.03 65.97,143.17 58.73,156.20 53.16,169.00 44.64,195.67 40.00,226.14 40.35,284.04 44.81,314.57 51.75,341.62 62.17,370.82 78.38,403.72 102.27,439.27 186.23,527.92 279.81,614.14 318.63,645.44"
        fill="none"
        stroke="#e94560"
        stroke-width="8.0"
        stroke-linejoin="round"
        stroke-linecap="round"/>
  <!-- Start/finish line -->
  <line x1="331.19" y1="629.87" x2="306.07" y2="661.01"
        stroke="#f5f5f5" stroke-width="9.6"
        stroke-linecap="round"/>
</svg>
