<?xml version="1.0" encoding="utf-8"?>
<svg xmlns="http://www.w3.org/2000/svg"
     width="500.4" height="800.0"
     viewBox="0 0 500.4 800.0">
  <rect width="100%" height="100%" fill="#1a1a2e"/>
  <!-- Track outline -->
  <polyline points="344.94,301.44 337.16,308.68 326.77,311.90 316.93,312.49 306.93,312.25 295.74,311.37 285.67,310.37 275.19,309.43 264.36,308.29 253.40,306.93 242.46,305.34 231.75,303.89 221.74,302.80 211.12,301.64 200.26,300.87 190.05,300.79 180.14,301.29 169.65,302.84 160.06,305.51 150.59,310.45 142.95,317.15 137.68,326.60 135.81,336.33 135.97,346.63 136.79,356.71 137.59,366.62 139.03,377.01 140.73,387.18 142.28,397.81 144.09,408.75 145.67,419.62 147.38,429.81 148.85,440.05 150.20,450.18 150.54,461.13 150.50,471.20 150.61,481.65 150.61,492.17 151.16,502.58 152.01,512.82 152.74,523.34 153.61,534.43 154.51,545.23 155.70,556.37 157.07,567.43 158.46,577.78 159.65,587.97 159.49,598.19 158.16,608.07 155.24,617.96 152.45,627.56 150.45,637.36 149.70,648.19 151.76,658.25 156.84,667.44 163.63,675.38 170.78,683.03 177.85,690.45 184.55,697.97 191.42,705.69 199.22,713.11 208.26,718.22 218.08,721.42 228.36,722.97 238.66,723.04 248.96,722.69 259.40,722.03 270.26,721.46 280.84,721.13 291.80,721.22 301.96,720.87 312.68,719.80 323.32,718.29 334.15,716.32 343.91,713.96 353.74,711.18 363.55,707.99 373.62,704.27 383.83,700.18 393.99,696.57 404.09,693.88 414.11,692.28 423.97,691.47 434.68,692.55 444.76,696.55 452.54,702.74 457.92,710.98 460.36,721.81 459.47,732.86 455.56,741.91 447.94,749.89 438.12,754.66 428.21,756.76 417.96,757.51 407.80,757.79 397.40,757.88 386.46,757.70 375.59,757.59 365.00,757.57 353.58,757.94 342.96,758.40 332.45,758.45 322.36,758.38 312.04,758.53 301.62,758.75 291.39,759.45 280.88,759.89 270.95,759.98 261.06,759.98 250.52,760.00 239.85,759.63 229.32,759.06 218.84,758.47 208.54,757.81 198.70,757.55 188.06,757.48 177.44,757.00 166.70,756.59 156.72,756.37 145.95,756.39 134.45,756.50 123.99,756.59 113.51,756.52 103.54,756.35 92.43,755.71 81.61,754.55 71.31,752.54 61.67,748.93 52.86,742.50 46.91,733.42 44.01,723.91 42.31,713.41 41.33,702.45 40.75,692.57 40.67,682.29 40.87,671.63 41.28,661.49 41.42,651.36 41.72,641.08 41.94,630.95 42.18,620.04 42.20,610.11 42.54,599.85 43.05,589.04 43.48,578.11 43.59,568.20 43.57,558.20 43.77,547.97 43.82,536.92 43.78,526.80 44.03,516.12 44.12,505.97 44.07,495.30 44.00,485.43 44.00,474.13 43.00,463.23 42.75,452.84 42.65,441.84 42.56,430.29 42.34,419.95 42.08,409.76 41.51,399.87 40.69,388.60 40.28,378.78 40.00,368.77 40.11,357.83 40.82,347.97 43.27,337.60 48.24,328.41 56.18,321.94 66.91,320.52 75.98,326.27 80.37,335.72 82.18,346.32 82.77,357.39 82.75,367.93 82.46,378.98 82.16,390.22 81.42,400.24 80.87,411.72 80.40,422.99 80.12,433.22 79.80,443.96 79.66,454.44 79.07,465.25 78.89,476.44 79.07,486.70 79.12,497.60 79.04,507.50 79.12,517.52 79.39,527.60 79.89,537.58 80.67,548.56 81.36,559.49 81.58,570.34 81.79,581.35 81.84,592.30 82.14,602.89 82.27,613.50 82.14,624.48 81.74,635.68 81.10,646.66 80.51,657.77 80.71,668.11 83.28,678.68 88.80,686.92 99.03,690.23 107.82,684.85 111.04,674.63 111.93,664.66 112.34,653.77 112.58,643.81 112.30,633.64 112.02,623.25 111.54,613.08 110.91,603.24 110.51,593.22 110.38,582.64 110.49,571.44 110.58,559.84 110.47,548.21 110.28,538.21 110.17,528.09 109.99,517.78 109.85,507.77 109.44,496.35 109.62,485.46 109.78,474.10 109.85,462.40 109.87,452.41 109.58,442.19 109.09,431.82 108.43,421.46 107.86,410.96 107.19,400.55 106.26,390.42 105.27,380.47 103.74,368.96 101.64,357.83 99.62,346.72 97.51,336.11 95.55,325.94 93.81,316.01 91.29,304.88 88.87,294.95 86.28,284.73 83.53,274.25 81.20,263.67 78.96,253.21 76.90,242.63 74.83,231.95 72.93,221.83 70.65,212.07 68.13,202.25 66.02,192.56 64.37,182.70 63.25,172.77 62.52,161.52 62.25,151.42 62.32,140.22 62.64,130.20 63.44,119.90 66.11,110.17 73.25,103.10 82.59,106.58 84.65,116.51 84.59,126.68 84.63,136.61 85.00,146.83 85.29,157.21 86.05,167.47 86.81,177.78 87.29,187.99 87.21,198.58 87.10,208.92 88.02,219.40 90.65,230.18 95.45,239.30 103.22,245.58 114.09,246.45 122.62,241.47 129.40,233.05 134.13,224.14 137.96,214.54 140.15,204.83 140.38,194.00 137.04,184.60 129.97,176.81 121.25,171.08 116.14,161.83 115.12,151.22 115.78,141.18 117.29,131.38 118.92,121.39 121.02,111.11 124.11,100.52 128.94,90.53 134.82,82.50 142.12,74.62 150.22,67.58 158.76,61.02 167.75,55.60 177.03,51.24 186.84,47.46 197.03,45.01 207.33,42.80 217.44,41.14 227.93,40.02 239.09,40.00 250.15,41.09 260.97,43.00 271.50,45.66 282.19,48.64 291.85,51.18 301.46,53.89 311.92,56.60 322.10,59.25 332.22,61.83 341.86,64.56 352.07,67.95 361.63,71.30 371.49,75.41 377.79,83.15 379.50,93.57 379.07,104.55 378.16,115.35 377.28,125.70 376.12,136.41 374.82,147.33 373.40,158.70 371.93,168.76 370.51,178.78 368.93,188.86 367.42,199.21 365.93,209.51 364.49,219.42 362.84,230.58 361.06,241.34 359.13,252.25 357.03,262.88 354.72,273.14 351.99,282.81 350.42,288.12 344.94,301.44"
        fill="none"
        stroke="#e94560"
        stroke-width="8.0"
        stroke-linejoin="round"
        stroke-linecap="round"/>
  <!-- Start/finish line -->
  <line x1="361.74" y1="312.29" x2="328.13" y2="290.60"
        stroke="#f5f5f5" stroke-width="9.6"
        stroke-linecap="round"/>
</svg>
