<?xml version="1.0" encoding="utf-8"?>
<svg xmlns="http://www.w3.org/2000/svg"
     width="800.0" height="630.3"
     viewBox="0 0 800.0 630.3">
  <rect width="100%" height="100%" fill="#1a1a2e"/>
  <!-- Track outline -->
  <polyline points="488.42,62.40 341.61,40.59 301.08,40.00 246.30,46.98 200.82,62.11 177.43,72.21 134.54,99.35 115.32,116.18 88.14,148.93 64.98,180.51 59.73,190.86 45.02,234.58 40.89,257.96 40.00,292.22 42.47,331.12 49.84,367.68 55.67,388.81 63.93,410.28 79.30,436.00 95.71,458.50 111.30,475.58 129.68,491.84 158.71,512.24 193.49,531.56 247.80,554.31 307.29,572.75 365.51,583.98 424.46,589.59 485.99,590.27 543.32,585.35 580.84,576.37 606.43,566.80 630.64,555.53 657.55,537.27 702.33,497.89 717.00,479.93 728.85,461.67 743.01,429.17 757.76,384.66 759.27,372.90 760.00,326.92 755.10,269.04 753.59,263.43 751.39,257.91 721.90,195.39 711.75,180.36 700.51,166.80 682.21,147.27 662.72,129.51 635.50,112.13 601.42,94.42 560.07,78.90 512.40,65.96 488.42,62.40"
        fill="none"
        stroke="#e94560"
        stroke-width="8.0"
        stroke-linejoin="round"
        stroke-linecap="round"/>
  <!-- Start/finish line -->
  <line x1="485.48" y1="82.18" x2="491.36" y2="42.62"
        stroke="#f5f5f5" stroke-width="9.6"
        stroke-linecap="round"/>
</svg>
