<?xml version="1.0" encoding="utf-8"?>
<svg xmlns="http://www.w3.org/2000/svg"
     width="554.4" height="800.0"
     viewBox="0 0 554.4 800.0">
  <rect width="100%" height="100%" fill="#1a1a2e"/>
  <!-- Track outline -->
  <polyline points="94.02,303.07 111.14,352.68 128.06,404.60 168.12,522.27 177.13,539.78 185.95,552.71 193.51,561.23 201.28,567.80 208.43,572.24 215.86,575.28 224.09,577.02 232.45,577.36 240.28,576.43 248.11,574.16 257.29,570.05 266.57,564.05 277.42,554.34 288.31,541.66 316.67,494.40 331.29,467.00 337.93,458.21 344.72,451.22 350.21,447.18 355.93,444.27 362.63,441.99 369.64,440.77 377.15,440.67 384.42,441.76 390.11,443.76 395.33,446.73 400.21,450.67 404.53,455.50 408.08,461.00 410.86,467.34 412.96,475.61 413.92,484.51 413.56,493.44 411.89,503.29 398.56,544.67 363.41,659.85 361.95,673.02 362.28,684.10 363.76,696.40 366.61,708.16 370.71,718.37 375.98,727.66 382.63,736.36 390.09,743.91 397.55,749.87 405.51,754.54 414.26,757.81 423.44,759.64 433.29,760.00 443.47,758.80 455.45,755.55 467.05,750.75 476.12,745.63 484.35,739.46 491.56,732.36 498.00,724.10 504.14,713.74 509.11,702.68 512.07,693.54 513.85,683.41 514.41,665.33 512.73,643.38 493.54,549.75 468.23,419.31 443.45,284.36 435.61,234.69 427.15,188.05 414.20,133.93 410.24,124.77 405.96,117.86 401.89,113.08 397.39,109.37 394.02,107.37 390.41,105.83 386.37,104.63 376.65,103.13 365.47,103.13 349.48,105.54 331.71,110.42 280.20,133.01 216.67,164.62 162.55,191.97 153.04,198.92 145.70,206.02 140.42,212.72 136.32,220.17 133.33,229.21 131.72,238.84 131.72,248.11 132.91,258.09 140.51,291.88 152.38,326.34 157.86,339.49 163.43,351.67 183.63,397.27 190.17,409.32 196.49,420.25 204.62,433.76 216.03,446.12 221.84,451.12 227.45,454.63 231.27,456.36 235.17,457.62 239.21,458.38 243.75,458.61 248.43,458.28 252.98,457.46 259.17,455.52 264.95,452.53 268.41,449.96 271.66,446.94 274.46,443.55 276.72,439.99 278.56,436.08 279.85,431.97 280.49,427.65 280.55,423.14 280.07,418.51 278.08,410.37 274.22,401.51 261.90,383.01 245.26,362.96 219.42,338.18 196.49,316.28 190.52,308.73 186.48,301.72 184.62,297.19 183.24,292.56 182.53,288.05 182.52,284.19 183.03,280.40 183.99,276.76 185.56,272.94 187.67,269.30 190.10,266.24 192.79,263.95 195.79,262.20 198.93,260.92 202.53,260.09 206.28,259.76 209.53,259.76 211.70,259.97 213.90,260.60 219.69,263.23 226.42,266.90 234.39,272.18 242.24,276.74 245.80,277.89 249.18,278.46 252.74,278.53 257.50,277.94 262.50,276.67 267.05,274.96 270.37,273.24 273.37,271.22 275.92,268.86 277.74,266.60 279.22,264.09 280.29,261.32 281.03,258.24 281.27,254.85 280.68,250.61 261.78,213.43 237.56,171.72 222.82,139.75 199.30,105.41 172.59,73.37 157.10,59.19 141.54,49.25 130.13,44.51 118.25,41.41 106.53,40.00 95.00,40.59 83.59,42.70 74.44,45.41 70.94,46.82 68.15,48.40 65.37,50.60 59.67,57.04 54.14,65.62 46.58,81.41 41.07,97.30 40.00,103.34 40.21,110.21 49.59,153.10 64.55,206.97 80.93,263.80 94.02,303.07"
        fill="none"
        stroke="#e94560"
        stroke-width="8.0"
        stroke-linejoin="round"
        stroke-linecap="round"/>
  <!-- Start/finish line -->
  <line x1="112.96" y1="296.64" x2="75.09" y2="309.51"
        stroke="#f5f5f5" stroke-width="9.6"
        stroke-linecap="round"/>
</svg>
