<?xml version="1.0" encoding="utf-8"?>
<svg xmlns="http://www.w3.org/2000/svg"
     width="635.9" height="800.0"
     viewBox="0 0 635.9 800.0">
  <rect width="100%" height="100%" fill="#1a1a2e"/>
  <!-- Track outline -->
  <polyline points="159.88,497.18 152.00,360.05 151.33,354.34 150.54,349.28 149.26,344.43 147.75,340.65 145.24,336.55 142.06,332.91 138.48,329.60 130.25,323.64 98.16,302.50 75.58,285.78 65.70,277.43 56.91,268.16 50.67,259.43 46.59,252.76 43.56,246.63 41.81,240.71 40.50,233.93 40.00,228.05 40.33,222.52 41.55,216.18 42.97,211.47 45.21,206.37 48.27,200.92 55.77,189.08 88.54,148.71 114.63,121.65 131.71,105.96 153.40,89.63 172.36,77.83 220.90,53.19 234.03,48.77 243.37,46.53 253.03,45.70 563.37,40.00 568.28,40.46 573.53,42.00 577.48,44.21 581.52,47.20 585.71,50.88 588.89,54.51 591.69,59.11 593.85,63.96 595.22,69.24 595.81,74.34 595.94,79.51 595.07,85.03 592.97,89.99 589.61,95.52 542.80,156.02 539.94,160.62 538.15,165.58 537.34,171.25 537.56,176.99 538.65,183.59 540.57,189.68 545.87,202.09 571.94,252.65 574.47,259.00 577.31,268.55 588.06,318.72 589.13,326.71 589.37,332.70 589.02,338.40 587.48,344.72 585.10,349.99 581.82,354.41 577.24,358.09 396.98,496.36 392.50,499.18 388.14,501.35 384.00,502.42 379.26,502.92 374.24,502.74 369.60,502.03 365.28,500.39 361.72,498.29 358.54,495.79 356.38,492.94 354.83,489.16 353.72,485.31 353.45,481.63 353.72,477.21 354.54,471.69 444.36,192.50 445.63,188.22 446.48,183.91 446.65,179.45 445.93,174.92 444.86,170.32 443.42,166.26 441.31,161.76 438.82,157.99 435.77,154.67 431.71,152.00 427.61,149.93 423.29,148.79 418.75,148.18 414.50,147.79 401.38,147.68 232.83,147.36 226.75,147.82 221.64,148.75 216.32,150.53 210.73,152.85 205.26,156.31 200.26,160.45 195.94,165.33 191.53,171.53 188.63,178.45 186.82,184.66 186.10,192.00 186.50,199.06 188.11,206.16 190.47,213.43 193.41,218.78 197.60,224.41 202.31,228.30 208.55,231.76 217.06,235.86 225.42,240.42 230.65,244.74 235.56,250.12 238.90,255.61 243.72,264.67 247.34,276.47 251.14,293.48 253.10,312.84 255.50,341.61 278.62,623.33 279.26,628.71 280.72,633.46 283.18,637.56 286.04,640.59 290.17,643.33 294.70,645.44 299.85,646.33 306.61,646.33 374.72,645.65 379.52,646.19 384.74,647.79 389.12,650.11 394.25,653.60 398.94,657.63 401.69,661.23 404.00,665.33 405.20,670.04 405.53,674.64 404.57,680.88 385.79,734.47 383.71,739.50 381.16,743.35 378.28,746.09 374.83,748.09 370.60,749.52 365.82,750.34 356.03,751.37 203.29,759.86 197.80,760.00 192.23,758.50 187.87,756.54 183.96,753.83 180.52,750.48 178.16,746.52 176.24,742.07 175.04,737.29 174.34,732.62 159.88,497.18"
        fill="none"
        stroke="#e94560"
        stroke-width="8.0"
        stroke-linejoin="round"
        stroke-linecap="round"/>
  <!-- Start/finish line -->
  <line x1="139.92" y1="498.38" x2="179.84" y2="495.98"
        stroke="#f5f5f5" stroke-width="9.6"
        stroke-linecap="round"/>
</svg>
