<?xml version="1.0" encoding="utf-8"?>
<svg xmlns="http://www.w3.org/2000/svg"
     width="508.2" height="800.0"
     viewBox="0 0 508.2 800.0">
  <rect width="100%" height="100%" fill="#1a1a2e"/>
  <!-- Track outline -->
  <polyline points="291.45,723.44 297.83,722.75 313.74,721.45 334.39,719.60 354.96,717.61 370.57,715.75 384.84,713.83 396.80,710.40 407.08,703.96 417.03,695.52 428.91,684.68 440.28,672.26 449.73,660.19 457.58,646.06 463.12,627.81 466.43,604.97 468.24,544.95 464.12,487.60 458.67,471.00 451.57,458.45 443.14,446.65 433.15,435.81 400.54,407.61 385.13,396.02 369.48,386.35 353.02,379.76 336.40,375.37 320.87,372.84 305.05,371.94 285.83,374.07 266.73,375.37 256.49,373.86 246.67,371.12 236.81,366.46 224.42,358.57 211.96,348.14 201.55,334.97 195.42,323.31 190.01,309.86 186.27,295.80 185.18,282.29 186.82,271.17 190.38,259.79 195.42,248.74 201.38,238.59 207.80,230.02 218.76,220.34 231.89,213.14 245.62,208.27 258.38,205.59 266.14,204.63 273.57,204.43 280.88,205.39 288.22,207.93 295.86,212.52 311.10,229.81 327.13,255.60 342.99,282.42 357.73,303.21 369.56,315.56 380.68,324.89 392.60,331.06 403.68,333.67 415.56,334.15 427.31,332.64 437.89,329.34 444.52,326.19 451.11,322.28 457.20,317.48 462.23,311.71 465.80,304.92 467.86,295.80 468.24,285.44 467.27,273.71 465.34,260.40 441.96,174.04 410.02,92.27 400.79,77.52 391.72,67.37 382.11,59.14 371.74,52.07 360.83,46.86 349.08,43.16 333.55,40.55 316.89,40.00 300.31,41.44 285.07,43.70 269.96,47.96 252.42,57.36 201.76,102.15 141.87,166.70 96.24,223.02 78.74,251.01 66.61,277.07 57.46,300.33 50.95,325.85 47.47,406.04 47.14,432.79 49.36,456.39 53.51,469.42 59.31,481.08 66.23,491.03 75.05,499.26 85.25,505.37 96.28,510.65 119.41,517.92 143.33,524.57 163.40,531.98 181.70,542.00 189.50,548.10 197.14,554.96 203.61,562.78 207.84,571.63 209.40,580.69 209.44,590.98 208.22,601.13 206.08,609.98 202.77,617.45 198.23,623.97 192.82,629.66 186.90,634.40 174.90,640.16 160.96,643.18 146.82,644.82 124.99,643.32 103.46,641.74 90.74,643.11 78.40,645.79 67.11,650.59 60.06,655.25 53.26,660.88 47.39,667.32 43.19,674.53 41.26,680.77 40.21,687.63 40.00,694.56 40.50,701.14 42.64,709.51 46.30,717.47 50.95,725.02 58.97,734.76 68.71,743.74 78.66,750.81 87.55,755.27 96.66,758.08 106.15,759.66 117.73,760.00 129.86,758.77 141.61,756.16 155.97,749.44 170.78,743.26 185.05,738.67 200.54,734.96 217.41,732.42 233.78,730.30 270.30,725.70 291.45,723.44"
        fill="none"
        stroke="#e94560"
        stroke-width="8.0"
        stroke-linejoin="round"
        stroke-linecap="round"/>
  <!-- Start/finish line -->
  <line x1="289.32" y1="703.55" x2="293.58" y2="743.32"
        stroke="#f5f5f5" stroke-width="9.6"
        stroke-linecap="round"/>
</svg>
