<?xml version="1.0" encoding="utf-8"?>
<svg xmlns="http://www.w3.org/2000/svg"
     width="800.0" height="457.7"
     viewBox="0 0 800.0 457.7">
  <rect width="100%" height="100%" fill="#1a1a2e"/>
  <!-- Track outline -->
  <polyline points="378.35,413.83 564.09,417.68 608.52,414.54 630.91,408.92 651.60,401.02 664.55,393.72 677.04,384.66 715.18,350.47 730.02,333.15 741.93,314.21 752.60,290.45 756.04,279.16 758.40,266.70 760.00,244.41 759.38,222.18 756.95,209.87 753.47,198.93 749.95,188.85 744.94,178.17 728.21,151.53 708.03,125.24 693.04,110.70 677.98,99.61 664.52,92.22 650.18,86.44 606.48,74.39 430.25,53.07 251.40,40.00 222.40,41.11 200.96,44.31 186.58,47.50 172.54,52.21 150.47,61.63 126.99,74.74 97.99,96.78 74.11,119.06 68.27,126.41 63.55,134.26 54.08,152.69 46.02,172.19 43.48,181.86 42.03,192.35 40.00,222.94 40.11,253.08 41.45,262.34 43.81,270.60 48.56,284.02 55.79,298.46 73.90,322.82 96.62,346.47 123.11,366.68 150.00,383.04 168.87,393.17 188.40,400.76 217.03,406.94 250.42,410.69 378.35,413.83"
        fill="none"
        stroke="#e94560"
        stroke-width="8.0"
        stroke-linejoin="round"
        stroke-linecap="round"/>
  <!-- Start/finish line -->
  <line x1="378.80" y1="393.84" x2="377.91" y2="433.83"
        stroke="#f5f5f5" stroke-width="9.6"
        stroke-linecap="round"/>
</svg>
