<?xml version="1.0" encoding="utf-8"?>
<svg xmlns="http://www.w3.org/2000/svg"
     width="637.3" height="800.0"
     viewBox="0 0 637.3 800.0">
  <rect width="100%" height="100%" fill="#1a1a2e"/>
  <!-- Track outline -->
  <polyline points="56.57,411.82 56.37,408.74 40.00,136.87 40.85,126.08 44.33,117.01 48.07,107.56 55.88,98.21 67.62,87.42 80.55,78.07 91.28,72.22 102.56,67.95 116.74,64.58 131.76,63.22 148.56,64.44 164.96,67.95 178.45,72.92 190.98,79.68 203.05,88.47 214.01,98.94 223.56,110.92 231.50,124.12 237.43,137.85 241.73,153.15 245.80,193.11 251.51,233.42 254.26,240.50 257.35,245.89 261.19,250.86 266.40,256.36 272.51,261.37 279.07,265.29 286.35,267.92 294.13,269.49 301.21,270.09 305.57,269.88 309.58,269.14 313.71,267.81 319.55,265.36 325.59,262.00 331.43,257.69 341.66,246.41 350.19,233.91 354.33,225.72 357.48,217.49 363.41,197.63 378.74,110.60 385.66,91.20 392.35,77.16 397.17,70.19 405.01,61.50 414.23,53.66 419.12,50.40 424.57,47.42 433.33,43.71 442.64,40.91 450.25,40.00 457.77,40.11 465.44,41.16 472.96,43.08 480.31,45.99 486.80,49.32 490.21,51.52 493.40,54.11 504.26,65.11 514.75,79.12 524.30,97.01 532.24,117.26 544.97,170.98 550.19,222.08 549.40,239.62 546.94,256.01 542.87,271.88 537.10,286.93 529.68,300.77 520.36,313.83 506.42,328.71 490.84,342.06 476.99,351.58 461.74,359.74 411.54,377.36 304.10,404.22 289.37,410.91 278.21,418.37 273.82,422.05 269.62,426.46 262.89,435.32 256.95,445.37 253.54,454.13 251.61,463.27 251.18,470.66 251.57,478.36 252.89,485.89 255.22,493.28 258.43,500.49 262.47,507.18 270.44,516.53 279.39,524.27 286.68,528.76 294.09,532.12 301.38,534.64 308.92,536.53 326.60,538.84 363.45,538.04 403.11,534.11 500.97,518.21 518.10,518.46 532.50,520.39 544.97,522.98 556.42,526.62 565.97,530.96 574.33,536.14 580.17,540.94 585.16,546.65 590.64,556.49 594.48,566.47 595.36,571.10 595.66,575.72 595.95,592.98 594.87,614.59 597.26,678.33 596.21,691.36 595.03,696.96 593.23,702.67 589.42,711.50 585.16,719.59 580.43,725.68 573.12,732.96 568.89,736.33 564.23,739.37 558.22,742.35 551.73,744.87 537.52,748.48 520.10,750.23 500.71,749.67 439.56,738.22 328.44,709.04 306.56,707.33 296.65,707.75 286.55,709.15 259.81,716.92 231.99,728.03 169.79,755.66 162.37,757.93 155.71,759.12 145.11,760.00 134.29,759.68 125.46,758.14 117.36,755.69 111.03,752.93 105.16,749.67 94.16,741.86 90.13,738.32 86.23,734.15 82.85,727.29 79.96,720.64 77.89,713.14 77.37,702.74 63.39,492.44 58.54,442.15 56.57,411.82"
        fill="none"
        stroke="#e94560"
        stroke-width="8.0"
        stroke-linejoin="round"
        stroke-linecap="round"/>
  <!-- Start/finish line -->
  <line x1="36.61" y1="413.11" x2="76.53" y2="410.53"
        stroke="#f5f5f5" stroke-width="9.6"
        stroke-linecap="round"/>
</svg>
