<?xml version="1.0" encoding="utf-8"?>
<svg xmlns="http://www.w3.org/2000/svg"
     width="800.0" height="331.7"
     viewBox="0 0 800.0 331.7">
  <rect width="100%" height="100%" fill="#1a1a2e"/>
  <!-- Track outline -->
  <polyline points="458.16,266.36 670.71,288.31 715.19,291.68 724.92,290.47 733.18,288.20 739.83,285.46 745.80,281.85 750.82,277.43 754.97,272.40 756.74,269.57 758.17,266.65 759.20,263.47 759.83,259.52 760.00,255.27 759.64,251.23 758.76,247.72 757.39,244.39 755.63,241.23 753.00,237.70 749.79,234.38 746.19,231.42 738.98,227.04 730.47,223.71 717.65,221.20 701.91,219.92 623.76,219.25 427.48,213.87 387.59,212.48 377.49,210.52 368.80,207.63 361.95,204.22 355.97,199.93 352.86,196.91 350.09,193.56 347.88,190.01 346.48,186.80 345.49,183.44 345.01,180.06 345.09,176.66 345.66,173.25 346.64,170.00 348.09,166.78 350.01,163.75 352.28,161.01 355.40,158.25 359.03,155.90 362.94,153.93 370.26,151.51 378.25,150.15 386.97,149.74 397.38,150.47 429.80,156.54 463.30,162.24 476.85,162.25 488.66,160.72 499.87,158.08 510.48,154.13 519.90,149.07 528.45,142.75 535.31,135.65 540.97,127.85 544.54,121.24 547.01,113.93 548.10,106.85 548.46,99.08 548.06,91.85 546.36,83.95 543.43,76.65 538.59,68.55 532.59,61.19 525.53,54.76 517.71,49.50 509.18,45.36 499.74,42.44 486.99,40.29 471.22,40.00 371.99,57.22 293.67,75.11 244.10,86.37 119.60,118.08 92.44,126.93 73.42,137.70 63.67,144.21 55.68,151.05 49.29,158.12 44.28,165.58 41.76,171.42 40.34,177.38 40.00,181.44 40.12,185.57 40.69,189.61 42.52,195.66 45.36,201.40 49.80,207.41 55.30,212.78 62.16,217.74 70.80,222.09 92.47,229.39 120.40,235.63 235.06,246.12 383.37,258.16 438.17,263.27 441.21,264.16 443.39,264.88 446.65,265.17 458.16,266.36"
        fill="none"
        stroke="#e94560"
        stroke-width="8.0"
        stroke-linejoin="round"
        stroke-linecap="round"/>
  <!-- Start/finish line -->
  <line x1="460.22" y1="246.47" x2="456.11" y2="286.26"
        stroke="#f5f5f5" stroke-width="9.6"
        stroke-linecap="round"/>
</svg>
