<?xml version="1.0" encoding="utf-8"?>
<svg xmlns="http://www.w3.org/2000/svg"
     width="800.0" height="589.5"
     viewBox="0 0 800.0 589.5">
  <rect width="100%" height="100%" fill="#1a1a2e"/>
  <!-- Track outline -->
  <polyline points="191.81,212.38 186.07,219.45 81.78,350.97 63.66,382.69 51.36,410.35 45.71,427.51 42.23,442.57 40.20,460.11 40.00,468.72 40.61,477.30 42.55,486.05 45.30,494.63 48.40,503.11 52.36,510.99 57.63,517.67 63.77,523.63 71.01,529.40 78.73,534.45 86.46,538.51 94.40,541.73 101.51,543.90 110.65,545.48 232.21,549.47 405.36,535.18 615.46,519.00 687.10,506.61 706.16,500.06 717.40,494.88 729.58,488.40 739.30,481.22 745.01,473.17 749.17,464.59 753.44,455.80 756.87,446.66 759.06,437.42 760.00,428.04 759.82,421.94 759.00,415.85 757.34,410.11 752.27,401.74 745.80,394.21 739.12,387.31 731.81,381.26 723.52,375.83 714.68,371.45 706.19,368.16 695.85,366.44 660.07,370.47 616.13,379.26 512.63,402.72 362.88,426.18 321.86,435.42 304.82,436.96 288.07,436.02 268.66,430.52 251.42,423.13 243.66,418.93 237.36,414.03 232.21,407.62 227.85,400.44 223.81,393.44 220.85,385.88 220.00,379.78 219.94,373.31 220.64,367.00 222.08,360.77 224.22,354.75 227.09,349.46 232.71,343.86 239.24,339.13 253.29,329.01 270.21,321.41 288.31,315.88 412.15,298.83 466.20,280.97 483.71,272.36 515.03,249.46 528.76,235.42 539.86,219.73 548.73,203.62 555.93,186.89 557.87,177.75 558.66,169.06 559.27,150.44 557.08,132.75 552.10,115.74 545.13,99.95 534.91,85.06 523.44,72.21 510.17,61.22 495.30,52.26 479.20,45.81 461.54,42.00 444.00,40.00 426.09,40.77 390.98,48.19 373.88,54.71 352.63,66.33 326.78,83.70 224.83,175.37 196.14,207.02 191.81,212.38"
        fill="none"
        stroke="#e94560"
        stroke-width="8.0"
        stroke-linejoin="round"
        stroke-linecap="round"/>
  <!-- Start/finish line -->
  <line x1="207.34" y1="224.97" x2="176.27" y2="199.79"
        stroke="#f5f5f5" stroke-width="9.6"
        stroke-linecap="round"/>
</svg>
