<?xml version="1.0" encoding="utf-8"?>
<svg xmlns="http://www.w3.org/2000/svg"
     width="552.4" height="800.0"
     viewBox="0 0 552.4 800.0">
  <rect width="100%" height="100%" fill="#1a1a2e"/>
  <!-- Track outline -->
  <polyline points="221.24,207.96 222.57,210.41 259.14,272.18 332.88,380.96 342.57,398.01 344.74,403.48 346.21,408.80 347.08,414.25 347.36,419.75 347.09,425.09 346.21,430.80 343.29,440.69 340.51,450.63 339.91,456.55 340.06,462.11 340.91,467.82 342.49,473.36 344.70,478.54 348.05,483.84 371.47,506.64 389.40,525.43 412.01,553.23 475.77,642.35 494.14,670.86 504.62,691.90 510.70,709.01 511.91,714.85 512.43,720.28 512.31,724.73 511.69,729.01 510.57,733.32 508.98,737.46 506.87,741.47 504.34,745.18 501.43,748.54 498.07,751.53 493.40,754.57 488.63,756.98 482.39,759.02 478.14,759.79 474.05,760.00 469.61,759.80 465.46,759.00 461.42,757.68 457.61,755.88 453.88,753.50 449.61,750.00 445.36,745.60 434.83,730.42 413.01,691.51 366.03,610.19 339.73,575.27 321.10,556.73 311.43,548.99 300.78,541.98 268.43,527.27 244.85,518.34 231.81,511.03 222.59,503.53 214.82,494.57 208.59,484.24 204.13,472.66 194.88,433.09 177.95,392.66 147.31,339.35 117.81,299.52 109.73,291.04 101.54,284.22 79.08,271.55 68.43,264.57 58.97,255.61 53.89,249.43 49.32,242.82 46.09,237.10 43.52,231.21 41.67,225.14 40.48,218.86 40.00,212.38 40.16,205.64 42.73,188.78 74.52,66.70 77.48,58.85 80.21,53.38 82.74,49.35 85.44,46.07 87.99,43.83 90.70,42.13 93.62,40.92 96.66,40.21 99.80,40.00 103.07,40.33 107.15,41.41 111.42,43.20 116.52,46.11 121.75,49.84 134.26,61.52 148.61,79.64 166.19,107.60 206.50,179.48 221.24,207.96"
        fill="none"
        stroke="#e94560"
        stroke-width="8.0"
        stroke-linejoin="round"
        stroke-linecap="round"/>
  <!-- Start/finish line -->
  <line x1="238.99" y1="198.74" x2="203.49" y2="217.18"
        stroke="#f5f5f5" stroke-width="9.6"
        stroke-linecap="round"/>
</svg>
