<?xml version="1.0" encoding="utf-8"?>
<svg xmlns="http://www.w3.org/2000/svg"
     width="800.0" height="710.6"
     viewBox="0 0 800.0 710.6">
  <rect width="100%" height="100%" fill="#1a1a2e"/>
  <!-- Track outline -->
  <polyline points="704.54,416.99 703.28,427.51 695.22,466.46 691.33,479.36 678.25,510.82 659.97,546.37 638.73,579.16 611.07,610.82 603.08,618.40 594.10,625.40 574.43,637.94 534.05,656.40 513.43,663.42 468.07,669.69 433.13,670.64 389.26,666.45 323.59,652.17 303.99,645.63 294.22,641.49 284.66,636.44 275.32,630.31 266.48,623.18 258.39,615.21 250.89,606.48 244.00,597.00 219.62,553.97 88.72,286.25 54.43,226.80 49.99,217.09 46.26,206.77 41.24,184.77 40.02,173.59 40.00,162.71 40.72,156.87 41.95,151.16 43.66,146.14 45.81,141.43 48.37,136.82 51.46,132.61 54.07,129.91 56.99,127.47 60.14,125.59 63.82,124.30 67.77,123.60 71.67,123.49 75.39,124.01 79.04,125.07 82.55,126.47 87.14,128.92 91.45,131.97 95.59,135.59 99.80,140.10 113.71,158.99 190.79,296.30 209.12,320.56 226.90,339.68 244.71,356.07 265.02,371.07 342.96,411.56 422.90,443.92 460.85,452.90 473.38,453.81 496.87,451.43 507.52,448.56 517.36,444.69 528.17,438.58 532.72,435.05 536.89,431.13 540.52,426.99 543.71,422.51 546.34,417.85 548.52,412.87 550.24,407.53 551.41,401.94 552.01,396.03 551.91,390.06 551.04,384.13 549.50,378.33 547.24,372.63 544.38,367.22 540.78,362.02 536.80,357.29 533.39,353.67 529.21,350.14 502.55,334.29 385.23,282.92 356.94,268.03 346.89,261.72 337.37,254.70 328.59,246.26 321.31,237.25 315.53,228.00 311.12,218.04 309.56,212.74 308.61,207.31 308.52,201.81 309.11,196.29 310.32,190.50 312.16,184.86 314.59,179.50 317.67,174.56 321.70,170.02 326.21,166.17 330.70,163.29 335.46,161.05 340.69,159.29 346.11,158.20 351.57,157.84 357.05,158.16 362.49,159.13 367.89,160.71 378.88,165.67 387.55,171.01 456.34,225.82 502.25,250.67 514.23,254.86 536.84,259.59 557.34,260.25 569.50,258.71 581.12,255.38 586.58,252.98 591.79,250.08 596.60,246.76 601.00,242.89 604.83,238.56 608.00,233.70 610.23,228.49 611.68,222.93 612.25,216.86 612.10,210.82 611.44,205.66 610.30,200.68 606.89,190.70 601.97,181.17 595.90,172.35 587.69,162.73 551.34,133.78 532.46,118.96 524.81,111.56 521.30,106.87 518.27,101.69 515.99,96.06 514.28,90.20 513.13,84.85 512.48,79.51 512.37,74.29 512.87,69.13 514.10,64.08 516.01,59.30 518.74,54.78 522.06,50.75 525.98,47.22 530.40,44.35 535.99,42.01 541.85,40.54 547.22,40.00 552.58,40.18 558.19,41.04 563.70,42.56 568.40,44.41 573.84,47.33 593.97,61.84 619.20,78.74 679.87,102.28 699.98,110.34 709.35,115.20 718.62,121.13 727.08,128.03 734.69,135.91 741.58,144.83 747.51,154.72 752.22,165.35 755.80,176.37 758.22,187.46 760.00,209.57 758.59,230.87 756.73,241.78 750.29,264.73 736.16,299.71 720.25,331.58 712.06,354.35 704.54,416.99"
        fill="none"
        stroke="#e94560"
        stroke-width="8.0"
        stroke-linejoin="round"
        stroke-linecap="round"/>
  <!-- Start/finish line -->
  <line x1="724.40" y1="419.37" x2="684.69" y2="414.60"
        stroke="#f5f5f5" stroke-width="9.6"
        stroke-linecap="round"/>
</svg>
