<?xml version="1.0" encoding="utf-8"?>
<svg xmlns="http://www.w3.org/2000/svg"
     width="695.2" height="800.0"
     viewBox="0 0 695.2 800.0">
  <rect width="100%" height="100%" fill="#1a1a2e"/>
  <!-- Track outline -->
  <polyline points="244.58,512.03 216.38,533.36 161.31,575.71 150.87,586.56 139.75,602.44 132.89,615.68 121.05,646.25 116.66,654.74 111.92,661.77 106.51,667.42 100.51,672.07 93.50,675.88 86.10,679.01 70.84,684.50 63.21,687.89 56.06,692.05 49.97,697.28 45.19,702.93 43.29,706.48 42.02,710.10 40.95,714.07 40.30,718.13 40.00,721.85 40.30,725.85 42.67,733.66 46.01,741.31 48.45,745.73 51.17,749.35 54.14,752.16 57.45,754.48 61.32,756.61 65.75,758.22 70.64,759.32 76.17,760.00 82.06,759.94 94.95,756.97 106.66,752.54 110.40,750.64 114.39,747.70 147.45,717.91 185.54,678.14 204.59,651.83 219.45,626.68 234.86,592.79 243.43,577.68 262.16,552.89 268.94,545.86 275.89,540.05 284.07,535.07 292.62,530.88 301.47,527.33 310.02,523.49 316.98,518.58 323.39,512.90 329.39,506.67 334.85,499.76 339.29,492.63 343.75,483.56 367.84,419.29 372.70,410.57 377.61,403.66 383.74,396.01 390.30,389.14 395.78,384.43 402.86,379.58 439.79,360.89 486.90,334.52 597.45,237.81 641.47,192.30 646.76,185.78 650.45,180.09 652.64,175.35 654.11,170.54 654.91,165.96 655.16,160.98 654.79,152.30 653.17,143.26 651.07,137.71 648.26,132.42 644.84,127.57 637.21,120.28 628.59,114.34 620.33,110.21 612.68,107.43 605.15,105.98 588.85,104.20 580.89,104.49 573.06,105.56 565.81,107.27 558.63,109.72 542.82,117.50 526.72,124.12 519.24,125.74 512.43,126.35 508.72,126.19 505.28,125.51 501.31,124.22 497.50,122.25 494.21,119.67 491.34,116.50 489.05,112.98 487.23,109.14 485.91,105.24 485.16,101.17 485.08,98.46 485.33,95.71 485.93,93.13 487.08,90.49 488.65,87.97 490.49,85.80 492.66,84.00 495.11,82.58 497.70,81.45 502.24,80.32 506.87,79.87 510.71,80.06 514.55,80.22 519.29,79.64 523.78,78.48 525.70,77.70 527.42,76.77 529.01,75.51 530.66,73.64 532.15,71.41 533.35,68.95 534.22,66.24 534.77,63.31 534.97,60.50 534.82,58.14 534.35,55.88 533.57,53.75 532.18,51.49 530.33,49.43 528.41,47.65 525.65,45.71 522.61,44.16 518.39,42.32 513.95,40.90 510.16,40.23 506.05,40.00 498.47,40.29 490.40,41.58 483.07,44.07 476.46,47.26 473.09,49.26 468.93,52.62 364.99,152.85 266.32,255.18 264.13,258.82 263.13,261.83 262.21,266.09 261.91,270.54 262.03,273.38 262.46,276.22 263.33,278.71 264.45,280.36 265.90,281.81 267.54,283.00 269.24,284.00 271.70,284.97 274.35,285.52 277.04,285.65 279.93,285.29 282.87,284.52 285.67,283.42 288.91,281.71 292.37,279.03 303.07,267.25 315.61,253.27 339.84,232.90 368.01,212.02 379.23,201.01 408.62,162.86 414.26,156.72 419.57,151.95 426.25,147.30 433.00,143.49 438.22,141.07 443.18,139.29 447.04,138.20 451.38,137.58 462.37,137.55 474.89,139.13 488.13,143.33 499.59,148.88 504.16,152.30 507.75,156.08 510.69,160.15 513.16,164.54 515.13,168.86 516.57,173.70 517.47,181.90 517.27,190.07 516.30,194.65 514.80,198.75 513.08,202.59 510.84,206.53 506.10,213.44 500.27,220.31 493.34,226.29 485.76,231.42 468.86,239.71 410.04,263.92 395.96,273.22 383.22,284.81 372.20,298.46 363.07,314.51 356.02,332.20 338.77,409.76 332.44,427.58 328.10,435.78 323.11,443.46 311.27,457.47 282.32,483.65 266.19,496.47 244.58,512.03"
        fill="none"
        stroke="#e94560"
        stroke-width="8.0"
        stroke-linejoin="round"
        stroke-linecap="round"/>
  <!-- Start/finish line -->
  <line x1="256.48" y1="528.10" x2="232.68" y2="495.96"
        stroke="#f5f5f5" stroke-width="9.6"
        stroke-linecap="round"/>
</svg>
