<?xml version="1.0" encoding="utf-8"?>
<svg xmlns="http://www.w3.org/2000/svg"
     width="628.6" height="800.0"
     viewBox="0 0 628.6 800.0">
  <rect width="100%" height="100%" fill="#1a1a2e"/>
  <!-- Track outline -->
  <polyline points="511.07,422.87 377.81,646.20 327.55,722.07 306.40,742.00 285.88,752.31 269.03,757.61 252.21,760.00 235.86,759.89 216.81,757.04 153.67,741.26 113.92,729.81 79.02,716.66 69.38,710.96 61.61,704.98 55.08,698.32 49.91,691.14 45.76,683.34 42.74,675.53 40.50,665.62 40.00,655.08 41.74,638.22 45.76,622.05 50.01,613.39 55.17,605.99 60.83,599.15 67.27,592.77 84.00,579.44 239.47,492.07 398.78,400.37 412.44,389.26 421.85,379.07 434.91,362.27 445.24,345.92 448.39,339.31 450.36,332.42 452.09,321.54 453.01,308.67 452.37,296.65 450.36,287.82 447.20,279.68 443.09,272.04 438.02,264.87 432.04,258.32 425.41,252.62 417.92,247.89 409.79,244.08 401.88,241.29 393.25,239.35 384.11,239.12 372.96,240.49 360.44,243.34 348.66,247.78 338.29,253.76 328.60,261.34 318.87,270.68 297.17,300.41 277.43,328.60 269.80,336.29 261.76,342.16 251.80,348.08 240.38,353.67 229.28,357.37 220.78,358.51 212.51,358.34 204.56,356.91 197.02,354.23 189.81,350.36 183.18,345.63 176.97,339.82 171.39,333.16 166.78,326.21 162.35,316.87 159.42,306.90 157.28,294.71 156.77,282.18 158.33,270.05 161.07,258.89 163.17,252.45 166.32,245.33 205.39,178.86 251.48,114.04 268.98,93.37 286.02,77.59 306.90,62.61 329.52,50.99 354.55,43.53 380.46,40.00 406.59,40.11 432.77,43.76 459.26,50.94 484.94,61.64 508.93,76.11 530.44,93.08 545.25,108.18 557.76,124.70 568.41,142.41 577.04,162.29 584.26,189.57 588.28,217.71 588.60,238.90 586.18,259.97 580.15,286.00 570.15,314.48 547.30,362.15 511.07,422.87"
        fill="none"
        stroke="#e94560"
        stroke-width="8.0"
        stroke-linejoin="round"
        stroke-linecap="round"/>
  <!-- Start/finish line -->
  <line x1="528.25" y1="433.12" x2="493.90" y2="412.62"
        stroke="#f5f5f5" stroke-width="9.6"
        stroke-linecap="round"/>
</svg>
