<?xml version="1.0" encoding="utf-8"?>
<svg xmlns="http://www.w3.org/2000/svg"
     width="392.8" height="800.0"
     viewBox="0 0 392.8 800.0">
  <rect width="100%" height="100%" fill="#1a1a2e"/>
  <!-- Track outline -->
  <polyline points="287.85,298.57 282.19,291.33 260.72,260.23 146.14,69.70 134.22,53.64 128.64,48.38 123.17,44.33 119.76,42.42 116.20,41.15 110.80,40.16 105.11,40.00 101.60,40.41 98.15,41.19 94.90,42.42 91.88,44.14 89.07,46.29 86.51,48.76 83.00,53.41 80.26,58.23 78.98,61.16 78.03,64.19 75.98,74.56 74.61,85.27 74.73,93.03 75.70,101.12 77.75,109.29 84.53,125.11 89.29,132.65 112.88,161.67 122.03,175.97 125.64,182.98 128.36,190.56 130.09,198.67 130.84,206.86 130.39,215.05 128.71,223.08 125.93,230.80 122.20,237.86 117.41,244.27 111.70,250.02 104.97,255.06 89.32,263.60 81.58,268.58 74.42,274.66 67.77,281.70 62.05,289.80 57.23,298.72 52.41,311.99 47.82,328.62 40.36,380.02 40.00,394.74 41.43,410.96 42.49,414.73 45.58,422.45 49.70,429.69 54.67,436.04 60.71,441.48 67.48,446.18 75.07,450.03 83.39,452.93 92.35,454.91 101.86,455.95 148.93,453.39 157.18,453.47 165.22,454.62 173.06,456.98 180.71,460.51 187.92,465.37 194.12,471.24 199.23,478.01 203.34,485.32 204.90,489.19 206.11,493.17 207.43,501.34 207.47,509.59 206.07,517.72 203.30,525.59 199.24,533.17 193.94,540.33 187.73,547.28 180.85,554.00 165.02,566.45 110.23,602.69 102.03,609.95 87.86,626.29 82.30,635.33 77.72,644.78 74.16,654.30 71.55,663.94 70.02,673.67 69.68,683.36 70.62,693.04 72.69,702.54 76.09,711.95 80.55,721.05 85.70,729.41 91.63,736.80 98.25,743.28 105.65,748.89 113.83,753.44 122.60,756.91 131.99,759.07 141.80,760.00 151.95,759.86 162.25,758.54 172.59,755.94 182.75,752.01 192.57,746.84 201.90,740.43 210.56,732.82 218.34,724.01 225.34,714.29 231.57,703.79 241.80,680.78 252.20,642.96 260.88,588.79 269.18,551.40 272.09,540.54 281.64,513.00 285.63,504.93 290.85,497.28 297.07,490.43 304.18,484.55 320.55,474.65 330.48,467.06 338.33,460.18 340.90,456.88 345.58,449.56 349.18,441.61 351.60,433.09 352.75,424.14 352.68,414.96 351.45,405.52 348.94,396.03 345.15,386.66 322.66,349.18 287.85,298.57"
        fill="none"
        stroke="#e94560"
        stroke-width="8.0"
        stroke-linejoin="round"
        stroke-linecap="round"/>
  <!-- Start/finish line -->
  <line x1="271.47" y1="310.04" x2="304.24" y2="287.11"
        stroke="#f5f5f5" stroke-width="9.6"
        stroke-linecap="round"/>
</svg>
