<?xml version="1.0" encoding="utf-8"?>
<svg xmlns="http://www.w3.org/2000/svg"
     width="487.9" height="800.0"
     viewBox="0 0 487.9 800.0">
  <rect width="100%" height="100%" fill="#1a1a2e"/>
  <!-- Track outline -->
  <polyline points="40.18,413.32 40.24,508.32 50.82,595.92 56.14,615.60 66.84,639.90 81.09,665.58 96.44,686.80 114.38,705.65 140.52,725.29 168.52,741.15 193.99,751.14 215.94,757.25 223.22,758.75 230.52,759.42 251.89,760.00 276.29,758.42 298.45,754.01 320.16,746.56 341.50,735.45 361.98,720.84 382.49,701.87 401.23,679.19 417.71,651.39 430.77,622.59 437.31,603.03 441.86,583.10 447.92,529.21 440.18,246.24 434.53,208.99 428.01,182.61 424.77,173.00 420.52,164.26 408.11,143.45 391.42,120.90 363.05,92.18 335.96,69.25 327.95,63.84 319.82,59.81 297.23,50.45 271.37,42.75 248.28,40.00 225.63,40.25 205.48,42.33 184.63,47.53 151.49,61.85 119.76,80.49 102.09,94.60 86.93,110.70 72.01,131.76 59.57,153.36 52.99,166.13 47.98,180.36 42.87,211.66 40.00,251.06 40.18,411.28 40.18,413.32"
        fill="none"
        stroke="#e94560"
        stroke-width="8.0"
        stroke-linejoin="round"
        stroke-linecap="round"/>
  <!-- Start/finish line -->
  <line x1="60.18" y1="413.30" x2="20.18" y2="413.33"
        stroke="#f5f5f5" stroke-width="9.6"
        stroke-linecap="round"/>
</svg>
