<?xml version="1.0" encoding="utf-8"?>
<svg xmlns="http://www.w3.org/2000/svg"
     width="800.0" height="684.5"
     viewBox="0 0 800.0 684.5">
  <rect width="100%" height="100%" fill="#1a1a2e"/>
  <!-- Track outline -->
  <polyline points="547.89,109.56 485.71,90.92 327.94,52.32 246.79,40.79 227.93,40.00 210.58,41.03 189.43,44.82 168.67,50.74 151.20,57.69 134.86,66.61 118.13,79.24 103.07,94.16 90.87,110.43 80.74,128.03 66.02,164.90 44.98,239.43 41.40,260.91 40.00,280.88 40.56,300.62 43.13,320.04 54.16,357.31 69.33,391.34 78.45,408.47 89.19,424.26 97.53,433.42 106.82,441.71 117.01,447.79 123.95,450.39 131.62,452.52 139.40,453.79 146.73,453.71 152.99,452.05 157.58,449.05 161.84,444.79 165.70,439.50 168.89,433.65 171.35,427.57 172.75,421.81 171.91,412.65 168.33,403.02 164.30,393.15 162.23,383.44 162.34,374.12 163.40,364.65 165.76,355.57 169.50,347.52 177.73,338.28 188.53,330.46 199.89,323.91 216.46,316.49 233.92,311.12 271.25,304.41 347.20,299.83 465.12,302.67 486.22,301.57 503.56,297.78 510.34,294.94 517.22,291.38 523.60,287.28 528.92,282.54 532.50,277.25 534.18,271.96 534.85,265.72 534.63,259.17 533.51,252.54 531.66,246.38 529.03,241.09 524.16,235.48 517.61,230.59 510.00,226.41 502.00,222.93 494.27,220.33 483.08,217.96 471.50,217.56 457.23,218.43 381.28,233.83 305.45,251.04 268.96,254.59 249.09,254.12 229.44,251.04 216.57,246.93 204.15,241.33 193.63,233.75 188.25,227.83 183.38,220.96 179.30,213.46 176.33,205.80 174.82,198.38 174.82,191.27 176.00,183.93 178.24,176.59 181.37,169.80 185.29,163.80 191.89,157.40 200.23,152.03 209.41,147.53 218.53,143.82 234.93,138.85 255.08,136.40 329.06,138.53 410.05,146.35 489.74,160.64 533.62,173.98 570.89,191.19 586.62,200.75 601.17,211.80 615.72,226.09 627.98,242.12 633.80,252.78 638.27,264.07 641.07,275.75 642.08,289.01 641.18,302.75 638.22,315.70 633.01,327.23 625.85,337.96 617.46,347.44 608.00,355.41 597.31,362.20 585.89,367.81 567.14,373.65 544.59,378.15 424.76,397.57 387.77,409.81 371.15,417.47 355.14,426.71 337.85,439.34 322.12,453.79 313.84,462.95 306.57,472.66 301.25,483.16 298.39,492.39 296.60,502.50 296.21,512.45 297.83,521.53 300.80,528.16 305.17,534.71 310.48,540.79 316.47,545.77 322.68,549.40 334.16,551.13 346.97,549.71 359.90,549.00 379.49,550.90 398.57,555.00 414.80,561.71 431.48,571.27 492.54,617.22 509.39,627.72 525.78,635.61 538.21,640.19 551.14,643.59 563.84,644.46 571.73,643.43 580.01,641.38 588.02,638.46 594.90,634.59 599.94,629.77 602.51,624.95 604.19,619.03 605.03,612.64 604.97,606.01 604.19,599.53 602.74,593.77 596.02,583.74 586.06,574.58 576.77,564.95 568.43,553.90 560.76,542.29 556.34,530.37 555.84,523.34 556.51,515.92 558.13,508.58 560.65,501.63 564.01,495.39 571.95,486.55 582.48,479.21 595.01,472.02 634.52,455.68 674.20,440.05 691.22,430.65 705.38,420.63 718.47,408.47 730.06,394.97 740.30,380.60 748.69,364.73 755.52,344.75 759.50,323.67 760.00,302.91 757.48,281.91 752.28,259.33 742.82,236.51 719.93,204.69 693.79,176.43 679.24,163.40 664.63,152.82 649.86,143.43 629.66,134.03 547.89,109.56"
        fill="none"
        stroke="#e94560"
        stroke-width="8.0"
        stroke-linejoin="round"
        stroke-linecap="round"/>
  <!-- Start/finish line -->
  <line x1="542.15" y1="128.72" x2="553.63" y2="90.40"
        stroke="#f5f5f5" stroke-width="9.6"
        stroke-linecap="round"/>
</svg>
