<?xml version="1.0" encoding="utf-8"?>
<svg xmlns="http://www.w3.org/2000/svg"
     width="800.0" height="800.0"
     viewBox="0 0 800.0 800.0">
  <rect width="100%" height="100%" fill="#1a1a2e"/>
  <!-- Track outline -->
  <polyline points="296.25,296.02 562.31,108.55 643.84,60.61 679.22,44.69 690.83,41.49 701.68,40.00 711.10,40.16 720.06,41.76 728.44,44.82 736.09,49.12 742.36,54.10 747.77,60.12 752.76,67.98 756.57,76.81 758.98,86.81 759.97,97.35 759.62,107.92 757.63,120.33 746.13,157.35 732.43,202.49 729.63,278.57 726.78,318.84 724.34,336.75 718.94,354.39 712.18,371.02 704.01,386.92 694.31,402.42 683.44,416.82 672.40,428.89 660.57,439.61 648.47,448.63 635.55,456.42 605.82,469.01 561.41,486.00 548.18,494.29 537.05,503.73 527.98,514.16 520.44,525.76 514.26,538.56 509.28,553.02 500.13,601.07 495.53,614.25 489.85,626.05 482.34,638.31 473.48,649.98 462.93,661.35 451.22,671.76 424.89,689.02 351.88,724.27 271.27,755.11 259.05,758.09 248.79,759.19 240.50,760.00 231.25,759.12 224.25,757.25 218.08,754.39 212.12,751.30 205.94,747.14 201.17,742.63 197.26,737.90 194.39,732.58 193.19,727.54 193.45,722.11 194.78,716.36 197.18,711.97 199.84,708.16 204.63,702.98 273.73,644.25 326.86,598.46 368.57,554.64 414.06,490.35 439.61,463.97 453.51,453.06 468.13,443.62 497.80,429.93 558.44,409.61 577.26,399.34 593.27,387.69 605.70,375.86 616.14,362.98 624.35,349.75 630.92,335.40 633.99,322.72 635.94,310.92 636.39,300.76 634.75,290.33 632.05,280.28 627.15,268.68 622.32,258.88 616.94,249.03 610.94,240.16 604.41,233.04 595.19,226.08 583.69,222.25 572.41,222.34 562.07,224.21 553.06,228.37 540.71,236.08 527.38,246.24 512.83,259.53 459.18,312.63 425.22,343.13 390.60,374.08 362.73,400.26 351.61,411.77 340.35,424.50 259.93,519.65 212.92,573.43 201.72,583.16 191.92,589.60 181.27,595.17 170.21,599.36 158.91,602.22 147.43,603.68 136.15,603.64 124.91,602.08 113.30,598.70 102.08,593.81 91.72,587.69 81.81,580.14 70.28,569.17 60.08,557.30 53.37,548.42 47.76,538.94 43.81,530.13 41.21,520.49 40.00,509.74 41.37,500.06 44.79,490.75 50.40,479.47 57.30,470.05 66.23,459.28 79.02,446.28 94.91,434.30 180.10,377.84 296.25,296.02"
        fill="none"
        stroke="#e94560"
        stroke-width="8.0"
        stroke-linejoin="round"
        stroke-linecap="round"/>
  <!-- Start/finish line -->
  <line x1="284.73" y1="279.68" x2="307.77" y2="312.37"
        stroke="#f5f5f5" stroke-width="9.6"
        stroke-linecap="round"/>
</svg>
