<?xml version="1.0" encoding="utf-8"?>
<svg xmlns="http://www.w3.org/2000/svg"
     width="800.0" height="696.6"
     viewBox="0 0 800.0 696.6">
  <rect width="100%" height="100%" fill="#1a1a2e"/>
  <!-- Track outline -->
  <polyline points="354.17,55.89 549.81,40.00 571.70,41.22 589.55,44.37 608.59,49.41 626.83,56.52 643.49,65.65 658.79,76.71 672.16,89.24 683.81,103.31 693.37,118.39 700.96,134.56 706.35,151.29 709.61,168.51 710.54,184.85 709.48,202.70 702.60,237.34 696.60,271.96 697.31,289.94 700.66,306.04 706.54,321.40 715.09,336.77 733.50,359.97 750.83,382.44 756.29,394.37 759.19,405.75 760.00,413.34 759.90,421.00 758.87,428.42 756.80,435.56 753.80,442.49 750.06,448.90 745.44,454.92 740.05,460.41 734.14,465.06 727.59,468.88 720.45,471.82 713.13,473.85 705.31,474.90 697.27,475.00 689.27,474.23 677.26,471.40 665.41,466.57 652.34,458.83 640.01,448.93 628.77,436.68 619.28,422.96 612.40,409.11 607.46,394.44 604.37,379.11 603.20,362.60 608.27,314.51 614.99,275.56 619.41,239.13 618.12,224.15 614.73,211.45 611.44,203.36 607.34,195.73 602.43,188.94 596.81,183.13 590.42,178.10 583.64,173.97 576.38,170.78 568.69,168.51 560.88,167.18 552.84,166.79 544.67,167.35 536.67,168.86 528.69,171.38 520.88,174.91 513.55,179.29 503.42,187.54 494.54,197.80 486.60,211.20 480.69,226.42 477.27,243.54 476.17,264.01 478.91,318.78 486.50,374.39 493.12,398.43 501.74,418.76 511.97,436.75 525.18,453.80 549.84,476.79 577.96,499.12 632.16,538.70 642.27,549.58 649.66,560.57 653.50,568.34 656.47,576.53 658.37,584.75 659.08,592.70 658.76,600.67 657.53,608.41 655.34,615.72 652.24,622.79 648.40,629.30 643.75,635.32 638.33,640.82 632.39,645.50 625.70,649.49 618.47,652.68 610.79,654.95 596.84,656.60 582.25,656.00 567.37,653.31 552.23,648.27 534.12,639.14 515.46,627.03 490.89,608.48 468.23,587.94 454.80,572.22 444.02,556.02 435.75,539.89 429.49,523.09 425.45,506.53 422.97,487.53 422.90,442.74 422.07,397.70 417.97,377.22 411.67,359.66 403.05,343.10 392.27,328.33 379.71,316.47 364.99,305.83 341.49,293.16 318.41,280.00 305.52,268.46 293.81,254.98 275.89,228.94 258.23,204.62 248.35,195.84 238.34,189.85 231.08,186.88 223.49,184.81 215.84,183.76 208.13,183.69 200.35,184.64 192.44,186.63 178.52,193.04 164.19,201.68 146.63,214.25 129.20,225.45 120.74,228.66 112.54,230.69 104.34,231.64 96.20,231.60 88.10,230.62 80.35,228.63 73.22,225.73 66.41,221.91 60.24,217.33 54.85,212.01 50.07,205.88 46.17,199.30 43.23,192.20 41.13,184.60 40.00,176.84 40.23,164.48 42.52,152.09 46.88,139.84 53.04,128.23 61.21,117.13 71.12,107.05 84.32,96.97 99.40,88.43 117.25,81.33 138.04,75.91 221.82,66.35 354.17,55.89"
        fill="none"
        stroke="#e94560"
        stroke-width="8.0"
        stroke-linejoin="round"
        stroke-linecap="round"/>
  <!-- Start/finish line -->
  <line x1="352.57" y1="35.95" x2="355.78" y2="75.82"
        stroke="#f5f5f5" stroke-width="9.6"
        stroke-linecap="round"/>
</svg>
