<?xml version="1.0" encoding="utf-8"?>
<svg xmlns="http://www.w3.org/2000/svg"
     width="532.7" height="800.0"
     viewBox="0 0 532.7 800.0">
  <rect width="100%" height="100%" fill="#1a1a2e"/>
  <!-- Track outline -->
  <polyline points="485.08,334.10 482.36,310.12 474.59,264.74 462.88,220.74 444.90,178.53 421.48,139.29 402.68,114.91 381.44,92.52 357.74,73.49 331.05,58.23 302.04,46.54 272.48,40.20 242.11,40.00 211.20,45.15 182.19,54.86 155.63,69.33 131.11,88.55 109.73,110.36 84.81,148.60 66.15,191.02 52.26,235.21 43.68,280.79 40.00,324.00 41.36,371.76 53.62,470.06 74.18,567.17 89.71,613.94 110.41,653.97 130.57,681.72 154.40,707.48 181.51,728.49 204.79,740.97 230.40,750.88 256.82,757.62 282.56,760.00 307.21,758.02 332.14,752.07 355.83,742.76 377.22,730.67 396.28,715.01 413.44,695.79 428.15,674.58 440.00,652.19 465.20,593.13 481.13,542.20 491.35,476.60 492.71,401.49 485.08,334.10"
        fill="none"
        stroke="#e94560"
        stroke-width="8.0"
        stroke-linejoin="round"
        stroke-linecap="round"/>
  <!-- Start/finish line -->
  <line x1="465.21" y1="336.36" x2="504.95" y2="331.85"
        stroke="#f5f5f5" stroke-width="9.6"
        stroke-linecap="round"/>
</svg>
