<?xml version="1.0" encoding="utf-8"?>
<svg xmlns="http://www.w3.org/2000/svg"
     width="419.7" height="800.0"
     viewBox="0 0 419.7 800.0">
  <rect width="100%" height="100%" fill="#1a1a2e"/>
  <!-- Track outline -->
  <polyline points="201.37,450.48 263.86,440.70 290.08,435.50 294.28,433.96 297.81,432.14 301.91,429.42 304.78,426.62 306.70,424.47 308.31,422.32 309.39,420.40 310.16,418.48 310.62,415.80 310.54,413.03 309.57,408.03 304.67,390.56 298.39,370.18 290.88,350.11 284.14,335.85 277.09,328.50 269.27,323.75 262.53,320.99 257.29,318.74 245.87,313.72 239.14,309.91 232.71,305.41 228.70,302.00 225.00,298.26 221.65,294.18 217.35,287.66 213.85,281.01 211.96,276.45 211.21,274.07 210.63,271.61 209.94,266.49 209.66,255.93 210.67,245.22 218.72,220.08 221.40,193.60 219.72,165.11 217.41,126.30 214.95,109.73 214.10,106.49 213.17,103.93 212.46,102.43 211.65,101.17 211.04,100.45 210.37,99.81 209.50,99.19 205.74,97.70 201.73,96.22 199.71,95.06 198.00,93.75 196.42,92.13 195.12,90.37 194.36,88.84 193.87,87.25 193.63,85.59 193.64,83.80 193.99,81.26 194.65,78.51 197.25,71.47 202.29,62.25 206.74,54.27 207.64,51.47 208.12,48.90 208.21,47.14 208.06,45.51 207.81,44.49 207.46,43.50 207.03,42.65 206.61,42.06 206.12,41.56 205.56,41.13 204.79,40.69 203.91,40.34 203.01,40.11 202.04,40.00 201.03,40.02 200.03,40.15 198.53,40.52 197.06,41.19 195.37,42.38 193.70,44.02 191.46,46.88 189.28,50.55 183.72,65.36 173.42,100.03 152.34,165.29 112.54,288.81 91.14,354.20 65.18,432.52 48.11,481.18 41.03,502.03 40.28,505.47 40.00,508.27 40.06,510.18 40.37,511.83 40.63,512.57 40.96,513.22 41.37,513.85 42.37,514.95 43.58,515.91 44.97,516.74 46.56,517.34 48.70,517.61 51.08,517.64 57.61,517.36 59.52,517.59 61.26,518.02 62.92,518.68 64.50,519.54 65.98,520.57 67.37,521.84 68.92,523.72 70.40,526.00 73.96,533.25 77.26,543.96 84.77,566.86 93.10,584.53 104.89,601.19 115.86,613.16 117.59,614.88 151.89,645.18 182.21,668.42 226.60,700.40 270.88,727.54 304.57,744.61 329.13,755.58 339.29,759.28 342.29,759.84 344.98,760.00 347.07,759.85 348.96,759.46 350.37,758.97 351.64,758.29 352.76,757.50 353.87,756.32 355.55,753.30 356.86,747.99 357.70,743.97 358.91,741.64 361.99,738.84 365.35,736.98 370.67,734.11 375.07,730.15 377.13,727.14 378.51,723.79 379.19,719.49 379.37,715.71 379.62,710.63 379.71,705.39 379.71,701.43 379.71,695.15 379.62,691.11 379.11,686.55 378.08,681.91 377.05,678.73 375.59,675.55 373.09,673.14 370.94,671.67 369.14,671.07 366.21,670.82 360.61,671.42 350.89,673.14 327.19,677.67 312.70,681.01 292.06,684.78 280.24,685.76 271.04,685.67 260.62,684.90 252.47,682.86 243.55,678.87 234.63,674.53 226.69,669.63 218.11,662.92 212.39,657.17 207.68,651.11 203.07,643.17 198.18,632.10 193.95,618.87 192.77,612.51 192.69,611.95 192.71,611.37 193.05,608.99 193.79,605.76 195.05,602.92 196.59,601.30 198.54,599.93 200.62,598.80 202.53,597.93 204.96,597.21 207.46,596.84 215.31,596.11 231.86,595.76 234.09,595.29 235.90,594.59 237.76,593.59 239.47,592.32 240.92,590.84 242.29,588.34 243.67,584.79 244.28,579.43 244.02,573.29 243.93,567.40 242.89,554.60 242.03,550.02 240.82,547.17 239.35,545.26 236.32,542.75 234.16,541.63 231.82,540.68 226.80,539.81 220.92,538.95 216.94,538.60 212.45,538.69 202.42,539.99 194.03,541.37 187.11,542.49 180.27,543.96 171.54,546.30 160.31,549.15 141.61,552.19 133.10,552.62 128.20,552.44 123.58,551.36 120.34,549.78 117.24,547.57 114.21,545.05 110.82,541.83 108.46,539.08 104.92,534.37 91.57,509.71 85.67,496.65 83.50,490.18 82.36,484.54 81.62,480.13 81.38,477.18 81.46,474.08 82.12,471.63 83.26,468.77 85.38,466.40 87.02,464.93 89.55,463.38 93.39,462.32 108.37,461.01 146.87,458.10 191.71,451.99 201.37,450.48"
        fill="none"
        stroke="#e94560"
        stroke-width="8.0"
        stroke-linejoin="round"
        stroke-linecap="round"/>
  <!-- Start/finish line -->
  <line x1="198.28" y1="430.72" x2="204.46" y2="470.24"
        stroke="#f5f5f5" stroke-width="9.6"
        stroke-linecap="round"/>
</svg>
