<?xml version="1.0" encoding="utf-8"?>
<svg xmlns="http://www.w3.org/2000/svg"
     width="503.0" height="800.0"
     viewBox="0 0 503.0 800.0">
  <rect width="100%" height="100%" fill="#1a1a2e"/>
  <!-- Track outline -->
  <polyline points="292.25,655.01 389.94,639.73 430.92,631.59 437.49,629.19 443.00,626.34 449.41,622.09 453.91,617.72 456.91,614.36 459.43,611.00 461.11,607.99 462.31,604.99 463.03,600.79 462.91,596.48 461.40,588.65 453.73,561.34 443.91,529.48 432.17,498.10 421.64,475.82 410.62,464.33 398.40,456.90 387.86,452.59 379.67,449.07 361.81,441.23 351.29,435.27 341.24,428.23 334.98,422.90 329.20,417.05 323.96,410.68 317.24,400.49 311.76,390.09 308.80,382.96 307.29,376.88 306.69,369.42 308.43,353.89 313.54,335.97 318.64,319.40 325.33,295.01 327.89,266.45 328.07,247.40 324.87,200.29 320.34,145.05 317.00,104.34 314.08,75.94 312.84,70.58 310.64,62.60 307.89,57.39 304.88,52.44 300.21,47.36 296.21,44.33 292.77,42.13 288.27,40.50 283.94,40.00 278.54,40.59 274.04,42.83 268.17,47.46 262.77,55.40 255.38,76.45 246.36,106.68 215.61,209.19 166.59,354.75 165.98,363.38 166.82,371.81 168.71,377.73 171.65,385.11 173.54,391.23 174.18,396.51 173.95,404.12 172.27,411.09 167.20,418.69 159.38,426.93 150.36,434.71 142.37,441.24 134.56,451.79 130.57,460.22 116.48,506.81 79.36,626.93 52.68,703.00 41.61,735.59 40.45,740.98 40.00,745.35 40.10,748.34 40.57,750.92 40.98,752.07 41.50,753.09 42.15,754.08 43.70,755.79 45.59,757.30 47.78,758.59 50.25,759.52 53.60,759.96 57.32,760.00 67.53,759.57 73.39,758.67 78.13,756.66 82.34,752.56 86.55,746.14 90.71,734.59 95.37,719.55 102.66,696.34 105.29,688.57 107.62,683.61 110.94,679.90 113.50,677.60 117.45,675.18 123.45,673.52 146.88,671.47 207.06,666.92 277.15,657.37 292.25,655.01"
        fill="none"
        stroke="#e94560"
        stroke-width="8.0"
        stroke-linejoin="round"
        stroke-linecap="round"/>
  <!-- Start/finish line -->
  <line x1="289.16" y1="635.25" x2="295.34" y2="674.77"
        stroke="#f5f5f5" stroke-width="9.6"
        stroke-linecap="round"/>
</svg>
