<?xml version="1.0" encoding="utf-8"?>
<svg xmlns="http://www.w3.org/2000/svg"
     width="334.2" height="800.0"
     viewBox="0 0 334.2 800.0">
  <rect width="100%" height="100%" fill="#1a1a2e"/>
  <!-- Track outline -->
  <polyline points="82.29,592.08 51.56,666.55 44.91,686.47 40.97,702.64 40.00,711.57 40.33,719.62 41.93,727.38 44.72,734.61 47.23,738.90 50.24,742.88 53.57,746.40 58.89,750.62 65.02,754.04 74.11,757.43 83.69,759.55 91.51,760.00 99.01,759.29 105.94,757.57 112.39,754.79 116.11,752.38 119.55,749.52 122.62,746.29 126.17,741.27 129.31,734.84 135.09,715.53 140.95,695.70 144.57,687.81 148.64,681.30 153.75,675.07 159.57,669.68 166.27,665.35 171.75,663.77 178.16,662.96 186.81,662.26 199.75,661.22 214.14,658.97 220.49,656.68 226.28,653.36 234.62,646.94 243.30,637.75 258.27,614.67 272.12,587.62 281.43,565.13 288.27,541.60 292.59,512.60 294.20,481.02 289.74,395.27 285.71,373.56 280.24,355.44 274.63,343.06 268.23,332.79 262.90,326.27 256.86,320.86 248.56,315.55 239.05,310.91 225.29,306.11 211.70,301.05 202.72,295.65 195.12,289.50 189.69,283.54 185.26,277.00 181.71,269.98 179.11,262.54 177.51,254.96 176.94,247.00 177.68,237.01 179.67,226.76 182.53,217.40 187.11,206.47 211.50,161.88 235.20,116.27 239.18,103.18 240.81,92.05 241.00,82.14 239.94,72.95 238.21,65.90 235.57,59.57 233.21,55.73 230.42,52.17 227.32,49.03 223.90,46.31 220.18,44.02 216.33,42.23 212.43,40.98 208.37,40.22 204.32,40.00 200.29,40.31 196.25,41.14 192.20,42.57 184.86,46.68 177.68,52.42 170.49,60.04 163.48,70.27 151.19,96.50 138.19,131.26 91.10,284.17 49.43,420.01 47.38,433.65 47.18,444.38 47.96,453.22 49.95,461.15 51.86,465.41 54.28,469.28 57.31,472.75 64.82,477.73 73.00,481.71 78.95,484.29 84.49,487.03 89.78,491.09 94.45,495.93 98.15,501.32 100.96,507.27 102.76,513.60 103.63,520.50 103.58,529.70 102.20,539.64 93.11,565.83 82.29,592.08"
        fill="none"
        stroke="#e94560"
        stroke-width="8.0"
        stroke-linejoin="round"
        stroke-linecap="round"/>
  <!-- Start/finish line -->
  <line x1="100.78" y1="599.70" x2="63.80" y2="584.45"
        stroke="#f5f5f5" stroke-width="9.6"
        stroke-linecap="round"/>
</svg>
