<?xml version="1.0" encoding="utf-8"?>
<svg xmlns="http://www.w3.org/2000/svg"
     width="800.0" height="360.5"
     viewBox="0 0 800.0 360.5">
  <rect width="100%" height="100%" fill="#1a1a2e"/>
  <!-- Track outline -->
  <polyline points="304.64,306.35 280.21,309.67 182.28,320.14 157.42,320.48 137.57,318.62 119.68,315.87 103.31,312.11 88.37,307.20 80.40,303.34 72.79,298.76 66.27,293.75 60.35,288.22 55.03,282.39 50.36,275.92 46.14,267.79 42.94,259.21 41.16,251.66 40.25,244.07 40.00,236.10 40.50,228.07 43.68,211.43 49.44,194.08 63.27,164.53 72.50,148.95 95.18,118.21 116.19,96.86 141.12,74.87 177.13,49.59 187.91,44.51 198.82,41.02 208.68,40.00 217.00,40.68 225.18,42.88 235.40,48.64 283.99,81.21 289.31,85.44 293.62,90.12 297.59,97.10 299.74,105.91 300.64,114.01 300.28,122.45 298.48,130.55 294.71,137.36 290.40,142.17 285.72,145.59 275.48,149.35 216.61,162.37 201.32,167.21 186.72,172.77 175.95,180.09 169.69,186.70 166.22,195.37 166.22,204.42 169.35,214.86 175.24,223.87 183.60,231.19 194.37,236.41 207.57,239.19 222.53,238.81 241.98,235.36 254.50,231.19 299.70,210.65 310.10,206.89 322.21,204.18 334.84,204.45 345.33,206.08 355.56,209.84 365.51,214.69 375.98,220.58 386.21,225.97 394.81,229.19 402.61,230.82 408.49,230.24 413.16,228.31 416.73,225.09 418.66,220.38 419.48,214.89 418.98,209.57 418.33,203.27 417.53,196.49 417.97,187.58 419.74,179.17 422.97,171.28 428.14,165.62 433.15,162.06 438.82,160.43 444.31,160.13 493.91,162.87 499.25,163.89 504.85,165.75 509.74,168.06 515.06,171.96 518.95,176.12 523.40,182.16 526.14,188.63 528.30,195.68 530.87,204.42 532.74,211.64 535.05,218.52 537.78,222.99 541.23,226.58 545.98,229.16 551.87,230.31 557.90,230.17 567.25,228.72 585.54,224.14 603.80,217.09 612.15,211.77 617.89,206.45 622.64,200.15 626.80,191.95 630.84,183.04 638.17,167.92 645.93,159.15 656.14,151.39 666.29,147.05 673.63,145.46 685.57,144.20 703.12,144.74 718.11,148.20 726.12,151.35 733.71,155.22 740.16,159.42 745.98,164.40 751.53,170.77 755.98,177.89 757.88,182.73 759.18,187.81 759.89,192.97 760.00,198.32 759.48,203.74 758.38,209.03 755.50,216.62 751.36,223.67 745.85,230.24 739.44,236.00 732.74,240.54 725.49,244.30 718.61,247.29 708.80,250.17 695.22,253.45 304.64,306.35"
        fill="none"
        stroke="#e94560"
        stroke-width="8.0"
        stroke-linejoin="round"
        stroke-linecap="round"/>
  <!-- Start/finish line -->
  <line x1="307.33" y1="326.17" x2="301.96" y2="286.53"
        stroke="#f5f5f5" stroke-width="9.6"
        stroke-linecap="round"/>
</svg>
