<?xml version="1.0" encoding="utf-8"?>
<svg xmlns="http://www.w3.org/2000/svg"
     width="800.0" height="360.5"
     viewBox="0 0 800.0 360.5">
  <rect width="100%" height="100%" fill="#1a1a2e"/>
  <!-- Track outline -->
  <polyline points="304.64,306.35 280.21,309.67 182.28,320.14 157.42,320.48 137.57,318.62 119.68,315.87 103.31,312.11 88.37,307.20 80.40,303.34 72.79,298.76 66.27,293.75 60.35,288.22 55.03,282.39 50.36,275.92 46.14,267.79 42.94,259.21 41.16,251.66 40.25,244.07 40.00,236.10 40.50,228.07 43.68,211.43 49.44,194.08 63.27,164.53 72.50,148.95 95.18,118.21 116.19,96.86 141.12,74.87 177.13,49.59 187.91,44.51 198.82,41.02 208.68,40.00 217.00,40.68 227.91,43.29 246.60,53.39 351.38,120.11 384.36,135.29 418.88,146.88 451.33,153.86 485.09,158.23 529.40,159.01 566.33,156.44 621.65,148.64 648.70,144.78 683.05,142.20 702.13,143.93 718.11,148.20 726.12,151.35 733.71,155.22 740.16,159.42 745.98,164.40 751.53,170.77 755.98,177.89 757.88,182.73 759.18,187.81 759.89,192.97 760.00,198.32 759.48,203.74 758.38,209.03 755.50,216.62 751.36,223.67 745.85,230.24 739.44,236.00 732.74,240.54 725.49,244.30 718.61,247.29 708.80,250.17 695.22,253.45 304.64,306.35"
        fill="none"
        stroke="#e94560"
        stroke-width="8.0"
        stroke-linejoin="round"
        stroke-linecap="round"/>
  <!-- Start/finish line -->
  <line x1="307.33" y1="326.17" x2="301.96" y2="286.53"
        stroke="#f5f5f5" stroke-width="9.6"
        stroke-linecap="round"/>
</svg>
