<?xml version="1.0" encoding="utf-8"?>
<svg xmlns="http://www.w3.org/2000/svg"
     width="506.3" height="800.0"
     viewBox="0 0 506.3 800.0">
  <rect width="100%" height="100%" fill="#1a1a2e"/>
  <!-- Track outline -->
  <polyline points="46.45,489.53 49.34,427.88 50.67,407.77 51.99,399.88 54.08,392.04 58.37,380.96 63.88,370.39 69.04,363.35 74.93,357.24 82.28,351.39 89.57,346.66 97.34,342.78 107.00,339.66 118.29,337.89 151.31,337.66 185.26,336.93 193.52,335.39 200.18,333.35 212.97,327.85 225.07,320.59 230.96,315.93 236.99,310.12 260.52,282.28 284.54,247.13 354.22,100.76 364.64,82.53 373.32,69.88 381.93,59.54 389.92,51.38 397.34,45.65 404.35,42.54 411.46,40.65 418.36,40.00 425.20,40.46 431.75,42.08 437.99,44.77 443.95,48.65 449.35,53.50 454.20,59.19 458.31,65.57 461.73,72.92 464.27,80.34 465.56,85.76 466.26,91.23 466.29,106.11 405.53,527.33 401.00,543.79 395.18,557.14 390.09,565.33 384.03,573.14 377.47,579.67 370.26,585.29 362.41,589.83 354.19,593.29 346.45,595.48 338.50,596.83 320.76,597.71 293.64,594.79 265.61,588.79 241.07,581.83 225.66,575.67 211.68,568.56 204.61,563.44 198.89,557.91 194.04,551.87 190.21,545.10 188.01,539.33 186.41,533.06 185.68,526.64 186.13,519.41 187.56,511.99 189.58,505.14 192.86,497.49 197.11,490.57 202.55,483.84 208.54,478.07 213.63,474.42 219.04,471.45 232.21,466.11 265.99,459.07 301.06,450.49 308.97,446.76 315.28,442.76 320.51,438.27 324.21,433.96 327.14,429.27 329.19,424.34 330.41,419.31 330.80,414.00 330.34,408.65 328.63,402.27 325.81,395.73 322.12,389.73 317.27,384.08 311.45,378.96 305.07,374.62 297.61,370.96 289.56,368.20 281.75,366.35 272.72,365.70 263.80,366.20 244.28,368.93 221.20,374.66 199.03,383.58 177.69,394.08 158.80,407.19 142.97,421.31 129.34,437.27 118.08,455.11 106.44,479.80 99.02,508.14 94.66,564.33 94.42,589.29 97.06,611.17 102.22,624.63 104.87,630.28 108.29,635.71 117.21,645.90 126.70,654.63 129.90,656.86 133.84,658.59 164.27,666.24 195.82,674.12 201.61,676.59 206.14,679.32 212.00,683.66 217.33,689.12 220.68,694.05 223.57,699.54 225.49,704.97 226.18,709.16 226.22,713.24 225.80,717.39 224.30,724.47 221.65,731.43 217.68,738.00 212.66,743.96 206.66,749.08 199.90,753.31 192.06,756.58 183.79,758.81 175.99,759.81 168.11,760.00 151.58,758.69 134.26,755.35 117.56,749.89 103.34,743.08 90.34,734.43 78.38,723.47 67.78,710.85 58.44,696.74 50.77,681.47 45.09,665.70 41.05,647.90 40.00,627.28 46.45,489.53"
        fill="none"
        stroke="#e94560"
        stroke-width="8.0"
        stroke-linejoin="round"
        stroke-linecap="round"/>
  <!-- Start/finish line -->
  <line x1="26.47" y1="488.59" x2="66.43" y2="490.46"
        stroke="#f5f5f5" stroke-width="9.6"
        stroke-linecap="round"/>
</svg>
