<?xml version="1.0" encoding="utf-8"?>
<svg xmlns="http://www.w3.org/2000/svg"
     width="800.0" height="691.6"
     viewBox="0 0 800.0 691.6">
  <rect width="100%" height="100%" fill="#1a1a2e"/>
  <!-- Track outline -->
  <polyline points="571.79,111.69 558.19,103.97 488.79,70.15 463.96,58.33 412.46,43.36 386.45,40.00 361.49,40.32 336.13,42.73 320.58,46.04 306.46,50.71 293.43,56.70 281.28,64.11 270.73,72.35 261.19,81.86 252.70,92.57 245.38,104.39 239.41,116.89 234.83,130.12 231.79,144.04 230.26,158.33 230.22,172.56 231.65,187.90 242.42,241.94 244.68,266.05 243.77,290.47 241.33,305.75 237.41,320.98 231.79,334.74 224.77,347.56 216.32,359.79 206.73,370.98 195.89,381.38 184.17,390.62 158.33,405.49 129.92,417.09 102.08,431.43 89.28,440.10 77.42,449.92 67.23,460.42 58.39,471.98 51.63,484.11 46.36,497.03 42.57,510.16 40.35,523.60 40.00,536.89 41.26,550.12 44.10,563.25 48.37,575.91 54.16,587.83 61.26,598.92 69.97,609.31 79.82,618.56 90.89,626.91 102.82,634.05 115.85,640.20 129.49,645.03 144.00,648.55 158.81,650.70 173.93,651.59 189.18,651.12 219.93,645.87 230.91,642.93 242.72,638.41 308.64,600.75 421.83,517.51 472.98,486.37 500.38,473.55 528.87,463.57 645.24,432.38 671.43,421.03 693.52,407.69 713.99,392.83 722.84,384.53 730.24,375.65 738.96,363.42 746.67,349.92 752.38,336.00 756.51,321.61 759.00,307.75 760.00,293.88 759.48,280.80 757.52,268.04 754.21,255.80 749.59,244.09 743.49,232.54 736.21,221.61 717.78,200.87 695.74,182.38 571.79,111.69"
        fill="none"
        stroke="#e94560"
        stroke-width="8.0"
        stroke-linejoin="round"
        stroke-linecap="round"/>
  <!-- Start/finish line -->
  <line x1="561.88" y1="129.06" x2="581.69" y2="94.31"
        stroke="#f5f5f5" stroke-width="9.6"
        stroke-linecap="round"/>
</svg>
