<?xml version="1.0" encoding="utf-8"?>
<svg xmlns="http://www.w3.org/2000/svg"
     width="800.0" height="666.5"
     viewBox="0 0 800.0 666.5">
  <rect width="100%" height="100%" fill="#1a1a2e"/>
  <!-- Track outline -->
  <polyline points="475.63,267.54 443.44,145.06 430.45,110.21 417.40,83.04 408.83,69.89 400.00,59.72 392.16,52.89 383.83,47.64 375.03,43.76 365.48,41.26 352.84,40.00 339.28,40.87 323.11,45.05 306.35,51.92 286.05,62.90 272.49,73.06 262.81,81.42 255.27,88.67 250.66,93.63 237.60,109.95 224.01,129.71 218.65,140.91 215.30,152.21 213.29,165.85 213.71,180.91 219.79,204.55 229.31,230.29 256.17,292.18 259.10,303.71 260.39,313.59 260.60,321.13 259.85,328.65 257.66,339.04 253.80,349.70 246.89,361.23 238.05,371.91 227.07,381.63 215.18,389.53 204.64,394.42 194.43,397.69 186.80,399.34 179.43,400.02 171.92,399.83 164.52,398.76 157.69,397.08 150.87,394.39 141.98,389.21 133.59,382.53 126.80,374.57 121.89,366.89 120.57,363.75 119.82,360.87 119.31,357.86 119.10,354.78 119.25,351.67 119.73,348.60 120.60,345.45 121.77,342.35 125.12,336.03 137.43,320.74 150.36,303.03 153.38,296.33 155.36,289.91 156.50,283.40 156.80,276.51 156.26,269.54 155.03,263.26 153.53,258.99 151.59,255.20 149.28,251.64 144.94,246.49 139.91,242.08 134.61,238.62 128.56,236.09 122.28,234.67 115.30,233.92 108.41,233.95 102.19,234.76 96.11,236.32 90.03,238.68 79.40,244.93 69.31,253.25 59.88,263.71 51.98,275.70 46.23,288.88 42.37,303.32 40.00,321.49 40.18,340.47 43.74,359.93 49.94,378.88 58.38,396.95 68.77,413.27 79.58,425.90 91.86,436.39 105.81,444.81 121.86,451.09 146.38,456.37 174.94,458.51 224.46,455.92 271.50,448.83 291.32,443.26 306.74,436.23 315.24,430.11 322.16,422.92 328.92,413.59 334.10,403.29 336.14,396.78 337.31,390.02 337.69,382.70 336.32,366.83 331.50,348.21 309.61,303.42 285.87,259.67 273.08,229.90 271.20,222.81 270.24,216.17 269.91,208.63 270.51,201.11 272.13,193.99 274.70,187.29 278.29,181.23 282.63,175.76 287.40,171.00 292.63,166.92 298.35,163.55 304.40,161.02 310.69,159.53 317.16,158.95 323.74,159.18 330.87,160.63 344.10,166.14 357.69,173.98 368.56,182.20 378.44,192.08 388.41,205.65 397.72,221.65 420.15,271.75 433.11,318.12 437.07,356.98 434.97,397.59 434.01,435.94 436.38,449.02 440.78,460.23 449.76,474.93 462.34,489.57 484.31,508.51 513.44,528.72 596.35,578.75 673.65,619.33 687.28,624.13 698.47,626.04 710.87,626.49 722.75,624.90 732.66,621.08 740.99,616.52 744.64,614.22 747.66,611.82 750.36,609.20 752.75,606.41 754.76,603.63 756.50,600.68 757.87,597.70 758.92,594.59 759.67,591.64 760.00,588.18 758.98,578.50 756.32,567.52 752.16,557.38 746.11,547.28 734.07,532.51 719.52,518.62 704.91,507.86 688.02,498.99 658.11,489.73 627.40,482.93 591.74,476.39 578.86,471.69 567.25,465.63 557.19,458.22 547.99,449.25 538.47,437.39 529.49,422.95 506.29,367.41 482.40,293.22 475.63,267.54"
        fill="none"
        stroke="#e94560"
        stroke-width="8.0"
        stroke-linejoin="round"
        stroke-linecap="round"/>
  <!-- Start/finish line -->
  <line x1="456.29" y1="272.62" x2="494.97" y2="262.45"
        stroke="#f5f5f5" stroke-width="9.6"
        stroke-linecap="round"/>
</svg>
