<?xml version="1.0" encoding="utf-8"?>
<svg xmlns="http://www.w3.org/2000/svg"
     width="680.7" height="800.0"
     viewBox="0 0 680.7 800.0">
  <rect width="100%" height="100%" fill="#1a1a2e"/>
  <!-- Track outline -->
  <polyline points="486.03,283.89 539.61,380.37 550.18,393.70 572.45,418.89 616.39,489.87 631.25,518.83 637.91,535.17 639.82,543.17 640.73,551.23 640.57,559.36 639.13,567.36 636.04,575.00 631.78,582.18 626.71,588.54 620.93,594.48 607.45,606.19 600.00,611.28 592.21,615.67 576.76,621.43 559.84,625.15 541.45,626.95 533.38,626.74 525.50,625.68 517.46,623.52 509.83,620.19 502.88,615.53 496.82,609.76 491.87,602.86 488.09,595.15 485.53,586.81 483.99,578.04 483.55,559.43 485.18,523.82 484.21,514.94 482.12,507.20 479.80,502.18 476.86,497.40 473.39,493.12 469.32,489.30 464.69,486.01 459.72,483.61 454.12,482.30 448.15,481.91 442.27,482.40 436.45,483.75 430.69,485.94 425.41,488.88 420.50,492.66 416.03,497.22 412.18,502.28 407.55,511.12 404.26,520.53 402.39,528.21 401.39,537.47 404.30,616.87 416.65,703.98 416.74,713.21 415.90,720.67 414.21,728.45 411.33,735.95 408.27,741.33 404.52,746.56 400.17,751.02 395.32,754.55 389.97,757.42 384.40,759.26 378.77,760.00 372.96,759.79 367.42,758.66 362.26,756.50 357.35,753.46 352.97,749.81 349.15,745.50 345.84,740.55 343.02,735.35 339.68,726.90 337.30,717.95 334.67,698.82 331.23,648.28 329.60,638.80 327.26,630.73 323.72,622.42 319.03,614.85 313.03,608.52 306.08,603.29 298.42,599.22 290.19,596.29 281.31,594.87 272.30,593.81 263.51,591.97 255.13,589.32 247.56,585.43 240.84,580.48 237.05,576.76 233.71,572.63 230.92,567.99 228.39,562.09 226.51,555.61 225.73,549.11 226.35,542.60 228.04,536.06 230.30,529.94 234.11,522.51 238.80,515.69 250.31,502.56 264.45,490.54 280.43,478.80 355.97,427.09 362.51,420.44 367.23,414.36 376.68,400.50 383.93,385.46 388.94,369.97 390.31,362.72 391.00,354.02 390.47,323.50 386.94,288.49 380.52,261.29 372.08,236.53 363.92,217.86 355.44,202.58 350.59,195.83 345.31,190.34 340.52,186.38 335.20,182.78 329.60,179.95 323.85,178.11 317.87,177.05 311.93,176.76 306.21,177.19 300.52,178.39 295.23,180.51 290.04,183.91 285.25,188.33 281.34,193.28 278.50,198.62 276.49,204.46 275.31,210.47 275.12,219.17 276.59,229.50 286.44,264.90 296.14,299.70 297.14,308.58 297.04,316.11 296.26,324.56 294.67,332.98 292.35,341.18 289.26,349.18 285.41,356.89 280.78,364.17 275.31,370.79 269.11,376.73 262.29,381.89 254.94,386.28 247.09,389.92 238.90,392.79 230.33,394.77 221.60,395.97 204.18,396.25 186.94,393.74 170.46,388.29 154.48,380.48 139.15,370.75 124.54,359.86 110.38,347.62 96.93,333.65 59.27,284.39 49.07,268.47 45.07,260.30 42.06,251.85 40.38,243.01 40.00,234.09 41.06,225.39 43.41,217.01 46.88,209.09 51.48,201.84 57.17,195.47 63.80,190.17 68.81,187.37 74.19,185.15 79.72,183.63 88.20,182.67 96.74,183.20 105.31,185.11 113.47,188.47 118.48,191.58 123.17,195.33 127.39,199.58 132.74,207.00 137.15,215.31 143.94,234.20 152.26,266.14 155.17,276.22 158.64,285.20 161.48,290.47 164.77,295.35 168.68,299.73 173.68,303.87 179.38,307.44 185.38,309.96 190.07,311.09 195.01,311.65 199.96,311.62 204.71,310.91 210.93,308.68 216.94,305.32 222.04,301.29 225.64,297.22 228.51,292.66 230.83,287.82 233.39,279.82 234.61,271.37 234.33,262.28 232.86,252.98 227.32,233.35 208.59,184.01 206.31,173.23 205.52,163.43 206.18,152.82 207.78,142.60 211.65,126.76 217.72,110.73 225.98,94.75 235.89,79.22 246.47,65.61 253.54,58.14 261.42,51.46 269.71,46.51 278.59,42.86 288.10,40.74 297.92,40.00 308.12,40.71 317.97,42.65 325.76,45.23 333.08,48.63 340.36,52.77 347.37,57.61 360.76,69.57 372.52,82.97 382.53,97.54 486.03,283.89"
        fill="none"
        stroke="#e94560"
        stroke-width="8.0"
        stroke-linejoin="round"
        stroke-linecap="round"/>
  <!-- Start/finish line -->
  <line x1="503.51" y1="274.18" x2="468.54" y2="293.60"
        stroke="#f5f5f5" stroke-width="9.6"
        stroke-linecap="round"/>
</svg>
