<?xml version="1.0" encoding="utf-8"?>
<svg xmlns="http://www.w3.org/2000/svg"
     width="629.2" height="800.0"
     viewBox="0 0 629.2 800.0">
  <rect width="100%" height="100%" fill="#1a1a2e"/>
  <!-- Track outline -->
  <polyline points="481.86,304.38 557.53,450.97 573.02,488.11 579.19,508.09 586.85,547.73 588.91,565.91 589.16,574.41 588.63,582.86 586.85,592.20 583.74,601.22 580.87,606.58 577.41,611.65 573.39,616.16 568.69,620.21 563.42,623.74 557.81,626.59 551.76,628.71 545.69,630.40 539.67,631.67 533.63,632.93 528.24,633.57 521.91,633.89 515.86,633.89 510.78,633.89 505.74,632.62 500.34,630.08 496.57,628.81 492.46,626.59 487.10,624.06 482.08,620.60 477.72,616.80 473.05,610.81 469.40,602.63 467.69,590.44 466.44,570.88 463.57,535.15 461.20,509.82 459.27,498.86 456.09,493.78 452.91,489.06 449.39,484.73 445.47,481.45 442.22,479.30 437.58,476.41 432.91,474.61 427.73,473.52 423.00,473.87 417.89,475.32 413.46,477.86 409.72,481.45 406.70,486.17 403.99,491.99 401.65,497.80 400.37,505.06 398.38,512.00 396.23,524.09 394.23,542.76 393.61,553.12 403.99,678.74 403.18,711.30 402.18,720.25 400.37,728.39 398.35,734.10 395.79,739.70 392.58,744.71 388.78,748.90 384.39,752.56 379.59,755.52 374.26,757.82 368.55,759.37 362.82,760.00 357.12,759.61 351.38,758.31 346.09,756.12 341.22,752.92 336.77,748.83 333.00,744.18 329.85,738.75 327.42,732.76 325.80,726.70 325.14,718.31 325.83,709.86 329.94,692.31 332.06,673.46 331.97,665.49 331.10,657.60 329.16,648.16 326.14,638.82 321.84,630.15 316.45,622.12 309.75,614.79 302.39,608.41 296.29,604.01 288.93,599.85 265.84,590.79 242.50,581.28 234.05,575.96 227.42,570.25 223.52,566.09 220.06,561.58 217.32,556.68 215.14,550.97 213.70,544.88 213.33,538.78 214.27,532.72 216.29,526.66 218.78,520.99 223.02,513.90 228.10,507.35 240.32,494.77 255.31,483.81 333.81,436.10 348.92,423.59 362.51,409.11 373.73,392.62 381.83,374.47 387.03,355.13 389.65,335.08 389.81,325.35 388.84,314.46 383.73,289.51 375.66,262.13 365.10,236.38 354.13,214.64 349.20,206.64 344.12,200.08 337.73,193.00 330.54,186.73 325.27,183.24 319.63,180.31 313.83,178.34 308.04,177.50 302.08,177.53 296.41,178.62 292.30,180.21 288.28,182.39 284.57,185.07 281.39,188.17 277.99,193.18 275.44,198.92 273.69,204.77 272.54,212.38 272.95,221.19 279.33,247.19 286.81,273.38 289.93,290.92 291.05,309.67 288.99,328.91 284.10,347.27 280.55,355.76 276.28,363.79 271.45,371.12 265.93,377.82 259.76,383.70 252.94,388.81 245.37,393.08 237.29,396.49 228.54,399.03 219.47,400.65 210.15,401.32 200.80,400.97 191.42,399.38 182.20,396.85 164.06,389.16 146.77,378.73 106.00,344.27 93.82,332.64 82.35,319.82 62.62,292.37 52.40,274.75 44.95,258.05 42.43,250.37 40.75,242.51 40.00,233.28 40.53,223.97 41.75,218.12 43.61,212.45 46.14,207.09 49.41,202.02 53.34,197.30 57.70,193.07 64.96,187.75 72.88,183.80 78.18,182.08 83.66,180.98 89.11,180.70 94.57,181.30 99.99,182.71 105.10,184.79 109.99,187.64 114.57,191.20 118.63,195.29 123.49,202.30 127.38,210.86 131.62,227.95 135.39,245.19 141.69,261.08 150.38,276.65 160.26,289.87 166.65,296.17 173.72,301.60 178.40,304.28 183.26,306.39 188.40,307.84 194.51,308.54 200.93,308.47 206.97,307.48 212.05,305.69 216.82,303.15 221.12,300.01 225.02,296.35 228.41,292.09 231.12,287.40 233.12,281.83 234.30,275.77 234.71,269.82 233.90,262.42 231.53,253.85 206.16,189.44 202.08,172.35 201.08,163.47 200.86,154.59 201.52,145.96 203.02,137.43 208.78,120.87 216.07,104.24 224.77,88.52 235.46,73.37 247.45,59.87 253.69,54.45 260.54,49.73 269.30,45.25 278.52,41.94 286.44,40.42 294.45,40.00 303.61,40.46 312.62,42.18 320.50,45.46 327.76,49.97 334.52,55.75 340.76,62.34 352.69,77.46 420.29,187.40 472.86,287.22 475.85,292.76 481.86,304.38"
        fill="none"
        stroke="#e94560"
        stroke-width="8.0"
        stroke-linejoin="round"
        stroke-linecap="round"/>
  <!-- Start/finish line -->
  <line x1="499.64" y1="295.21" x2="464.09" y2="313.56"
        stroke="#f5f5f5" stroke-width="9.6"
        stroke-linecap="round"/>
</svg>
