<?xml version="1.0" encoding="utf-8"?>
<svg xmlns="http://www.w3.org/2000/svg"
     width="547.9" height="800.0"
     viewBox="0 0 547.9 800.0">
  <rect width="100%" height="100%" fill="#1a1a2e"/>
  <!-- Track outline -->
  <polyline points="407.87,243.59 432.69,284.72 462.37,344.52 471.39,366.08 487.25,411.94 493.95,436.16 504.97,470.05 506.79,488.20 507.87,505.66 507.62,522.36 504.20,552.15 501.21,565.16 498.77,572.70 495.69,580.00 492.09,586.12 487.89,591.70 483.21,596.70 478.02,601.13 472.35,604.90 466.28,608.07 459.78,610.69 453.01,612.63 445.93,613.92 438.75,614.41 431.55,613.97 424.43,612.74 417.44,610.80 410.70,608.12 404.37,604.65 398.42,600.50 392.75,595.66 387.59,590.22 382.99,584.15 379.00,577.62 375.60,570.54 372.85,563.08 369.18,546.77 368.26,533.65 368.46,519.76 374.02,444.77 373.13,428.56 370.39,414.02 368.08,407.43 365.13,401.15 361.48,394.89 357.01,389.37 353.52,386.53 349.64,384.15 345.58,382.26 341.39,380.87 337.03,379.97 332.66,379.69 328.25,380.13 323.81,381.20 319.50,382.73 312.93,386.06 306.79,390.22 301.86,394.21 296.76,399.32 283.81,414.54 270.15,433.94 257.44,458.43 246.23,485.46 225.83,550.15 158.49,717.34 152.12,728.16 147.21,734.47 141.66,740.49 135.96,745.65 129.90,750.16 123.68,753.77 117.16,756.58 110.41,758.47 103.52,759.59 96.74,760.00 90.05,759.70 83.71,758.72 77.59,756.94 71.79,754.29 66.37,750.87 61.34,746.69 56.82,741.91 52.77,736.50 49.27,730.59 46.26,724.09 43.86,717.23 40.79,701.98 40.00,685.09 42.51,656.69 52.42,607.69 73.85,531.57 81.33,511.43 90.43,491.26 101.18,471.22 113.66,451.71 127.58,433.07 212.72,335.34 221.67,321.89 227.39,310.90 230.14,303.82 231.83,297.05 232.83,289.78 232.91,282.53 232.10,276.03 230.41,269.82 227.83,263.87 224.45,258.34 220.37,253.56 215.59,249.38 210.24,245.94 203.51,242.71 161.69,228.75 149.36,223.31 142.56,218.80 136.25,213.44 131.15,207.78 126.87,201.58 123.38,194.77 120.91,187.53 119.71,179.61 119.51,171.71 119.92,165.17 120.98,158.86 125.23,145.77 131.81,132.49 149.55,105.46 170.98,79.33 181.58,68.64 192.03,59.90 202.61,52.93 217.02,45.90 224.48,43.28 232.10,41.34 239.65,40.30 247.24,40.00 254.72,40.27 262.18,41.20 269.78,42.90 277.23,45.30 291.29,52.33 304.49,61.43 315.85,72.99 323.77,83.07 331.17,94.28 351.56,135.06 391.12,215.82 407.87,243.59"
        fill="none"
        stroke="#e94560"
        stroke-width="8.0"
        stroke-linejoin="round"
        stroke-linecap="round"/>
  <!-- Start/finish line -->
  <line x1="425.00" y1="233.26" x2="390.74" y2="253.92"
        stroke="#f5f5f5" stroke-width="9.6"
        stroke-linecap="round"/>
</svg>
