<?xml version="1.0" encoding="UTF-8"?>
<svg id="EXAMPLE_-_Active" data-name="EXAMPLE - Active" xmlns="http://www.w3.org/2000/svg" viewBox="0 0 1920 1080">
  <path d="M1084.22852,884.28906c-7.73047,0-13.77832-.21484-17.95703-.4375-9.75391-.51855-19.70801-1.375-29.58594-2.54395l-.25879-.03125c-12.74219-1.5127-24.63184-7.66699-33.40234-17.32129l-7.39941-8.1416c-11.76953-12.95605-13.26855-32.21484-3.64453-46.83398,6.09473-9.25781,15.40039-15.71875,26.20117-18.19336,18.41309-4.2168,36.16016-10.39551,52.74902-18.36328,22.45801-10.78516,36.85742-18.23926,49.38086-34.85645,20.5166-27.22656,20.55469-59.16895,20.5752-76.3291.01074-9.5752-.8418-19.2373-2.53418-28.71973-3.29297-18.4502,3.56445-37.36816,17.89551-49.37207l55.91699-46.83545c4.07031-3.41016,6.12988-8.39941,5.64844-13.68799-.48145-5.28906-3.40723-9.82422-8.02734-12.44336l-465.98047-264.16406c-21.979-12.45947-46.91406-19.91797-72.12354-21.57568l-17.56641-.16309c-5.39111-.0498-10.57959-2.35156-14.23535-6.31445-3.65527-3.96289-5.53174-9.32031-5.14746-14.69873l.3916-5.47852c.92041-12.86621,11.77979-22.63135,24.63379-22.2749l459.20654,13.38525.17188.0127c17.61719,1.32227,35.19434,4.3418,52.24219,8.9751l156.40527,42.50488c19.04883,5.17627,32.62207,21.89453,33.77734,41.60107l8.00293,136.66504c1.29395,22.0957-1.49805,43.97998-8.29785,65.04395l-.11523.35498c-5.16992,16.01562-7.61426,32.67236-7.26172,49.50146l3.84277,183.7832c.33984,16.22168-8.83887,31.34863-23.38281,38.54004l-40.96875,20.25293c-8.21387,4.06055-13.15723,12.59473-12.59473,21.74121l1.48535,24.11523c.95117,15.4502-8.70703,29.52051-23.4873,34.21582-23.22168,7.37891-46.45508,13.20508-71.02734,17.81348-45.30762,8.49707-81.33789,10.27344-103.52832,10.27344ZM659.05273,190.49902c-4.71484,0-8.62793,3.62109-8.96631,8.35449l-.3916,5.47852c-.12402,1.73291.70557,2.91113,1.21143,3.45898.50537.54785,1.6123,1.46973,3.34912,1.48584l18.18848.18018c27.52686,1.77539,54.76172,9.90479,78.75928,23.50879l465.98145,264.16406c8.82812,5.00439,14.64746,14.02637,15.56738,24.13232.91992,10.10645-3.17578,20.03076-10.95605,26.54736l-55.91699,46.83594c-10.22168,8.56152-15.11133,22.06348-12.75977,35.23633,1.84863,10.35547,2.7793,20.91016,2.76758,31.37207-.02051,17.56543-.06445,54.11328-23.59668,85.33984-15.35449,20.375-33.66406,29.16895-54.86523,39.35059-17.59082,8.44922-36.39648,14.99805-55.89355,19.46289-7.0166,1.60742-13.06152,5.80566-17.02148,11.82031-5.85645,8.89648-4.94434,20.61523,2.2168,28.49902l7.39941,8.14258c6.34082,6.97852,14.91504,11.4248,24.14551,12.52148l-.72266,7.4668.85352-7.45117c9.60547,1.13672,19.2334,1.96484,28.66504,2.4668,15.63379.82715,58.42773,1.55762,117.92383-9.59961,23.96582-4.49512,46.61816-10.17578,69.25-17.36621,8.2168-2.61133,13.58691-10.42383,13.05957-18.99902l-1.48535-24.11523c-.93555-15.19141,7.27539-29.36523,20.91797-36.11035l40.96875-20.25293c9.35059-4.62305,15.25195-14.34961,15.03418-24.77832l-3.84277-183.78369c-.3877-18.50244,2.29883-36.81494,7.98438-54.42871l.11523-.35498c6.22461-19.28271,8.78125-39.32129,7.59668-59.55371l-8.00293-136.66504c-.77734-13.26514-9.91406-24.51904-22.73633-28.00342l-156.40527-42.50488c-16.07617-4.36865-32.64844-7.22119-49.26074-8.479l-458.86279-13.375c-.08984-.00244-.18018-.00391-.26904-.00391Z" style="fill: #fff;"/>
</svg>