<?xml version="1.0" encoding="utf-8"?>
<!-- Generator: Adobe Illustrator 24.0.1, SVG Export Plug-In . SVG Version: 6.00 Build 0)  -->
<svg version="1.1" id="Inactive_Configs" xmlns="http://www.w3.org/2000/svg" xmlns:xlink="http://www.w3.org/1999/xlink" x="0px"
	 y="0px" viewBox="0 0 1920 1080" style="enable-background:new 0 0 1920 1080;" xml:space="preserve">
<style type="text/css">
	.st0{fill:#A7A9AC;}
</style>
<title>inactive</title>
<path class="st0" d="M1502,488.7c-1.9-57.5-15.7-109.1-41.3-153.3c-21.9-37.9-52.3-70.5-90.5-96.9c-82.6-57-172.8-66.6-198.4-68.2
	c-69.5-4.3-174.6-3.1-276.2-1.9c-53.1,0.6-103.2,1.2-147,1c-51-0.2-98.7,9-141.8,27.6c-39,16.8-73.5,40.7-102.7,71.2
	c-54.9,57.3-86.8,135.9-83.4,204.9c5.2,106.6,44.2,187.1,115.8,239.5c53.3,39,123.3,62.1,214,70.7c51.3,4.9,128.5,6.1,205.5,6.1
	c46.1,0,92.2-0.4,132.7-0.8c26.6-0.3,51.6-0.5,71.9-0.6c52.8-0.2,103-10,149.3-29.3c43.8-18.3,81.9-44,113.3-76.6
	C1476.2,627.1,1504.2,558.4,1502,488.7z M1401.5,661.4c-59.1,61.2-146.9,96.4-241.1,96.7c-20.4,0.1-45.5,0.3-72.1,0.6
	c-107.4,1.1-254.6,2.5-335.1-5.1C575.5,736.7,477.5,658.8,455,516c17.9,29.8,41,63.8,63.2,83.2c20.1,17.6,71,54,120,66.4
	c77.4,19.5,201,25.9,330.5,25.9c91.9,0,186.9-3.2,270.3-7.4l0.3,0c1.8-0.1,44.2-3.1,96.8-20.9c31-10.5,59.2-24,83.7-40.1
	c7.9-5.2,15.4-10.7,22.6-16.4C1431.5,626,1417.8,644.4,1401.5,661.4z M1468.6,535.1c-37.5,55.2-97.4,84.5-141.3,99.4
	c-47.8,16.3-87.6,19.4-89.9,19.6c-285.2,14.1-489.9,8-591.9-17.7c-45.1-11.3-92.9-47.1-107.6-59.9c-37.2-32.6-80.9-117.8-86.9-129.9
	c4.6-54.6,31.9-113,74.7-157.7c39.2-40.9,109.2-89.6,220.8-89.6c0.6,0,1.2,0,1.8,0c44,0.2,94.2-0.4,147.4-1
	c101.1-1.2,205.6-2.4,274.1,1.9c48.9,3,122.7,21.1,183.2,62.9c75.7,52.3,115.7,128.5,118.9,226.5
	C1472.5,504.9,1471.3,520.1,1468.6,535.1z"/>
</svg>
