<?xml version="1.0" encoding="utf-8"?>
<!-- Generator: Adobe Illustrator 24.0.1, SVG Export Plug-In . SVG Version: 6.00 Build 0)  -->
<svg version="1.1" id="Background_Details" xmlns="http://www.w3.org/2000/svg" xmlns:xlink="http://www.w3.org/1999/xlink" x="0px"
	 y="0px" viewBox="0 0 1920 1080" style="enable-background:new 0 0 1920 1080;" xml:space="preserve">
<style type="text/css">
	.st0{fill:#C2C6F7;}
	.st1{fill:none;}
	.st2{fill:#636466;}
	.st3{fill:#C7C8CA;}
</style>
<title>background</title>
<g id="Water_1_">
	<path id="Water" class="st0" d="M968.8,688.1l-2.2-1.8l-111.1-1.8l-0.4,6c0,0,79.3,11.1,80,11.1s29.8,1.5,29.8,1.5l4.2-3.1
		L968.8,688.1z"/>
</g>
<g id="Bridge_1_">
	<polygon class="st1" points="1386.4,880.7 1397.4,884.1 1414.7,829.2 1403.7,825.8 	"/>
	
		<rect x="1414.5" y="864.1" transform="matrix(0.2807 -0.9598 0.9598 0.2807 204.0499 2010.5618)" class="st1" width="57.8" height="10.1"/>
	
		<rect x="664.9" y="520.5" transform="matrix(8.263356e-02 -0.9966 0.9966 8.263356e-02 67.0174 1171.6337)" class="st1" width="10.1" height="57.8"/>
	
		<rect x="694" y="476.3" transform="matrix(7.010432e-02 -0.9975 0.9975 7.010432e-02 146.0453 1167.094)" class="st1" width="10.1" height="57.8"/>
</g>
<g id="Pavement">
	<polygon class="st2" points="265.4,911.2 272.6,910.6 278.5,946.2 294.5,945 285.6,881 	"/>
	<path class="st2" d="M987.7,377.7c-77.9-61.3-160-47.7-160-47.7l-76.7,100.2l28.4-20.2l54.5-11l80,6.8l131.3,27L987.7,377.7z"/>
	<path class="st2" d="M1174.8,648.8l-23.8,5.8l12.7,22.4l13.6,34.9l26.4,3.5v-31.8l12.4-5.3l4-4l-2.2-51.5c0,0-35.8-28.9-93.8-24.9
		c0,0-32-5.1-130.9,39.5l121.8,4.5L1174.8,648.8z"/>
	<path class="st2" d="M1356,744.4l1.4-6.1l-11.9-43.3c-14.6-5.4-38-1.9-38-1.9l-19.6,7l-2,1.8l-6.9,6.2l56.6,16.2L1356,744.4z"/>
	<polygon class="st2" points="1311.8,793.3 1292.2,810.4 1278.8,825.4 1249.9,858 1231.9,875.3 1240.1,886 1243.6,892.6 
		1304.4,857.6 1351,841.4 1361.3,843.6 1344.6,767 	"/>
	<polygon class="st2" points="1309.9,786.7 1343.1,757.8 1341.8,755.7 1304.7,787.8 1267.8,824.9 1233.7,859.2 1225.1,868.4 
		1228.3,870.3 1268.7,827.8 	"/>
	<polygon class="st2" points="1218.7,889 1215.4,890 1214.9,887.6 1211.1,886.8 1186.7,898 1194.3,905 1216.4,894.9 1216.2,892.7 
		1217.6,891.8 	"/>
	<polygon class="st2" points="1221.4,911.8 1219.3,907.6 1217.3,907.3 1200.1,915.4 1195.2,916.8 1181.9,916.6 1181.1,916 
		1179.9,916.8 1176.2,926.1 1176.7,930.9 1175.9,934.1 1174.2,935.8 1177.9,938.1 1210.2,950.9 1214.4,949.8 1216.2,948.4 
		1226.4,935.9 1222.7,911.7 	"/>
	<polygon class="st2" points="1171,885.4 1176.2,889.3 1199.2,878.4 1198.7,874 1149.2,829.4 1146.6,830.1 1144.4,841.7 
		1164.4,872.9 	"/>
	<path class="st2" d="M1209.6,766c-2.7,8.2-9.4,14.5-17.8,16.7l-25.4,12.2l-10,25.7l38.9,30l19.3-4.5l17.8-6.7
		c0,0,21.8-10.7,33.6-26.8c0,0,7.3-7.6,8.9-17.8c0,0,0.6-17-2.7-24.9l-21.1-54l-28.7-3.2l1.6,54.2L1209.6,766z"/>
	<path class="st2" d="M623.2,811.7c0,0-8.2-4.2-9.3-30.4l1.8-34.4l35-32.9l126,11.3l5.8-1.2l-49.2-17l-46.2-16.9l-8.4-1.6l-18.8-2.8
		c0,0-31.8-2.3-55.8,8.4c0,0-34.1,13.9-52.3,49c0,0-20,38.4-13,66.7l14.2,7.8l24.7,8l50.5,12.5l-21.3-24.9L623.2,811.7z"/>
	<path class="st2" d="M1155.3,910.6c7.1-6.3,8.8-15.7,9.1-17.8c1.9,0.3,7.6,1.7,10.1,5.8l5-0.3l32.6-15.6l-4.8-2.5l-24.8,12.5
		c0,0-7.6,2.1-10.6-0.2l-2.8-1.5l-4.2-3l-0.1,0.2l-0.5-0.4l-8.4-12.8l-23.8-41.1l-17.1-28c-3.4-10.5-15-13.6-15-13.6l-10-1.7
		l-54.8-7l-38.8-5.9v-0.1c0,0-12.3-1.5-12.8-1.6s-104.9-8.9-104.9-8.9l-58.2-7.4l-4.4-0.6l-52.2-3.7l-83.3-6.5
		c0,0-33.9-5.5-42.2,33.2c0,0-3,37,36.9,43.8l142.9,26.9l0.2,3.2l-2.4,0.3l-37.3-4.2L705.6,840l18.2,6.8l109.5,33.4L980,918.3
		l161.9,43l23.7-6.5l-15.1-8.3l-15.1-8l4-11.8L1155.3,910.6z M858.6,825.5l-15-3.5l1-4.3l14.7,4L858.6,825.5z M964.1,788.8l-21-1.5
		l-13.4-3l-43.3-10.1l-19.4-4.7l-16.1-2l-43.9-5.2l-30.6-2.2l-41-2.9l-58.4-4c-28.6,0-32.8,27.9-32.8,27.9
		c-2.2,28.9,21.5,37.1,21.5,37.1l8.8,2l55,8.2l89.7,13.6l-0.1,1.2l-85.7-13l-35.4-5.5l-20.7-3c0,0-38.1-4.7-33.6-40.9
		c0,0,4.2-34.2,43.5-28.9l130.7,9.9l86.5,10.7l72.1,7.7C973.5,789.9,964.1,788.8,964.1,788.8z M1093.9,845.6l-29.9-8l1.9-5.9l29.3,7
		L1093.9,845.6z"/>
	<path class="st2" d="M1190.1,954.9l7.4,8.9l24.1-0.2l4.7-14.7C1210.3,966.8,1190.1,954.9,1190.1,954.9z"/>
	<path class="st2" d="M1169.7,1037.6c-10.6-1.6-19.7-3.5-23.6-4.3C1153.9,1035.2,1161.7,1036.6,1169.7,1037.6z"/>
	<path class="st2" d="M1391.4,953.1c-2.9,3.3-5.7,6.3-8.1,8.9C1386.1,959,1388.9,956,1391.4,953.1z"/>
	<path class="st2" d="M1469.2,904.1l30,30.2c22.7,19.6,50.9,20,50.9,20l10.4-1.3l-4.7-72.9l-2-6.2l-9.1,16.2l-33.8,3.8l-52-12.9
		l1.1,6.9L1469.2,904.1z"/>
	<path class="st2" d="M1531.1,958.4c19,5,30.6,2.2,30.6,2.2c10.8-0.7,9.9-11.3,9.9-11.3l-2-35.7l-2.7-67.2l0.3-56l0.6-75.7l0.6-69.3
		l0.2-80.3l-0.1-64.1l0.9-70.8v-61.1l-0.2-66.1l-0.1-72l1.2-22.6l5.8-19.2l2.7-26.5l6.7-74.7l-0.3-0.1l0.5-5.7
		c0.6-34.8-32.2-60-32.2-60c-25-20.3-56.7-15.6-56.7-15.6c-14.1,1.2-16.2,6.8-16.3,9.9l-0.7,0.3l-2.8,59.7l-1.3,24.3l-0.2,53.5
		l-0.3,35l-3.7,74.5l-2.8,72.3l-2.8,34.4l-1.2,7.1l-11.3,29.3l-3,4.6c0,0-8.6,13-33.5,11.5c0,0-21.5-2.8-31.7-15l-24.3-36l-17.6-28
		l-15.8-23.9l-16.1-16.2c0,0-25.3-17.6-49-21.3c0,0-39.7-9.6-77.3,10.7c0,0-17.9,11.4-32.3,22.4l-31.6,29l-19.8,17.9
		c0,0-19.1,14.8-37.9,14.8c0,0-18.2,3.3-43.7-3.7l0,0.1l-7.6-2.6l-33.7-17.1l-24.1-12.4l-17.3-7l-38.3-11.2c-11.5-3.3-23.2-6-35-8
		c-10.2-0.6-20.4-0.5-30.6,0.4c-8.5,0.2-11.6,3.9-11.6,3.9l-13.2,16.5l-21.3,28.1L777,378l-5.1,6.7l-12.7,20.7l-1.4,2.5l-4.2,6
		l-17.5,20l-4.1,4.5l-2.2,5.7l-21.7,29.3l-12.8,14.9l-10.4,9.8l5.4,0.7l8.5-9.9l9-10.4l9.2-12.5l13.9-19.3l4-6.9l20.7-23.9l5-7
		l5.3-9l6.6-11.4l24.9-33.1l24.7-31.3l5-3.4c13.2-3.5,33.8-1.8,33.8-1.8l33,6.1l40.2,12.1l11.7,5.5l41.3,19.9l18.6,8.9l2.8,0.3
		l13,4.6l-0.1-0.2c3.7,1.4,24.1,8.4,50.1,2.8c0,0,25.5-4.9,39.7-21.2l48.9-43.7l12.3,0.3l14.5-9.8l-0.7-7.6c0,0,11.3-9.6,43.3-12.6
		c0,0,35.4-5.5,74.7,19.7l22.1,19.6l28.6,46.3l21.2,33c0,0,7.4,10.8,18.1,15.7c0,0,11.3,10.1,37.5,6.7c0,0,20.2-2.4,25-18.4l11-27.7
		l1.6-9.2l2.8-33.8l4.6-95.7l2.7-75.7l-0.3-68.6l5.3-80.8l0.1-0.3c44.3-16.1,73,16.2,73,16.2c22.7,18.3,23.7,52.1,23.7,58.3
		l-4.8,66.1l-3.6,32.3l-4.9,18.3l-1.3,14.7l-0.1,77.3l0.3,75.2l-0.3,82.3l-0.3,87.4v80.8l-0.8,78.3l-0.8,76.3l-0.6,66.4l4.7,96.9
		l0.3,8l-1.4,5.1c-7.8,6.8-27.8,3.1-41.6-1.2c-8.6-2.8-16.6-6.8-23.9-12.1l-16.8-15l-15.5-13.6l-12.7-8.2l-2.4-0.4l-12-9.3l-2,3.3
		l11.4,8.3v5.5l15.6,12.9l7.4-1.1l2.8-0.2L1493,938C1512.6,954.6,1531.1,958.4,1531.1,958.4z"/>
	<path class="st2" d="M1473.7,1020.8c0,0,10.5-6.7,11.4-17.6c0,0-1.2-9.2,0.4-14.3l81.3-19c14.2-2.7,16.4-13.6,16.4-13.6l22.4-81.8
		l1.6-6.9l0.9-40.2l0.4-139.8l1.8-160.7l14.7-0.7l-1.6-59.3l-6.7-0.2l-1.3,37.8c-0.9,7.8-4.4,4.9-4.4,4.9v-24.7l1.8-156.4l3.3-129.8
		l-3.1-7.6l-17.1-126c-7.8-45.6-50.9-61.3-50.9-61.3c-29-11.3-54.7-6.3-65.9-3.1l-0.3-0.5c0,0-13.8,1.1-12.5,22.9v18l-11.9,35.6
		l-25.3-12.1l-25.7,44.3l-1,3.7c0,0,2.1,5.5,2.1,5.9s20.1,12,20.1,12l27.2-46.5l-8.1,22.4l-1.6,6.2l-1.3,18.2l-4,84.2l-3.1,98.8
		l-1.5,21.2c0,0,0.4,22.7-21.8,26.2c0,0-13.6,1-22.5-12.7l-22.9-35.1c0,0-26.2-37-47.6-45c0,0-18.7-11.7-27.8-13.3l5.3-55.4l-86.5-4
		v50.4c0,0-31.7,4.9-60.7,24.7l0,0c0,0-0.2,0.1-0.5,0.4c-1.5,1-3,2.1-4.5,3.2c-5.8,4.3-15.4,12-22,19.6l-25.4,25.3
		c0,0-17.5,13.9-28.5,15.1c0,0-17.5,4.2-34.7-1.2l-42.4-19l-15.8-7.4l1.8-6l38.4,19.4l11.5,3.5l6.6,1l5.3,4.8l6.7,2.2l8-1.1l9.8-1.4
		l5.3-2.4l6.3-8.1c0,0,9.5-13.8,9.7-14.2s2.6-6.4,2.6-6.4l13-31.3l-2.8-1c0,0-13.3,34.2-13.8,34.6c-0.4,0.3-8.7,13.3-8.7,13.3
		s-2.4,3-3.8,3.1c-1.3,0.1-5.7,1.2-5.7,1.2c-6.9,0.1-13.3-3.8-16.3-10l2.7-6.5l5.2-5.3l-0.9-4.5l-0.7-6.8l-4.8-1.5l-10.1-7.4
		l-5.7-6.5l-6.7-5.9l-2.9-1.2l-8.5-1.4l-5.3-1.9l-4.8-0.3c-14.1,0-32.5-9.8-32.5-9.8l-23.2,9.9l1.9,4.4l0.9,5.2c0,0,1.2,4.2,1,5.1
		s-1.4,5.5-1.9,5.9c-0.5,0.3-2.5,5.7-3,5.8c-0.3,0.1-1.2,0.5-1.9,1l-20.6,5.4l-30.6,3.9L819,307.5l-18.7,4.2c0,0-22.1,3.6-34,14.7
		l-60-5.6l-18.8,15.7l-6.1-1.1c0,0-13,10.8-13.3,10.9l-7,2.5l-5.3-0.8L641,361.7l1.5,1.9l-8.5,7.8c0,0-7.4,5.3-12.5,2.8l5.6-15.6
		l6.8-27.1l1-15l-0.7-18.4l-4.4-18.4l-9.6-36l-12.5-39.1l-3.2-8.2l8.6-3.1l29.5,65.6l3.9,2.1l11.6,27c3.9,7.6,15.1,2.2,15.1,2.2
		l75.1-36c-4.1-32.9,24.3-38.1,24.3-38.1l55.1-10.7l11.4,14.2c0,0,17.6-7.1,17.9-7.1s19.9-11.8,19.9-11.8c6.4-3.5,15.7,0.7,15.7,0.7
		l5.1,2.2l5.7,1c0,0,3.2-1.4,3.6-1.6c0.2-0.1,0.6-1.4,0.8-2.1l26.2,12.3c0,0,4.4-0.1,5.1-0.1s9-2.1,9.3-2.1s8.3-0.3,8.9-0.2
		s7.5,3.6,7.5,3.6l4.4,3.4l11.9,14.6l5.2,4.9l6.3,3.2l7.8,0.8l7.9-1.1v-1.9c0,0-6.8,0.8-7.8,0.8s-6.5-0.2-6.5-0.2l-6.5-3.1
		l-15.7-18.5c-9.3-12-23.9-7.5-23.9-7.5l-5.6,0.9c0,0-3.4,0.9-4.2,1c-0.8,0.1-5.4-1.3-5.4-1.3l-25.2-12l-6.6-49.1l-1.2-1.7l-32-3.5
		l-52.2-4.3c-11.6-1.3-13.6-6.6-14-8.3l24.5-43.7l-25.3-16.8l-28.7-3.3L756.6,95l-2.3,1.8l-72.8-64.9l0.2-0.3l-20.5-17.5l-6.2,7.7
		l-4.8-4l-74,81.4l-0.9-0.8l26-41.4l22.5-38.6c0,0-4.5-6.3-5.9-6.7c-1.3-0.3-0.9-12.8-0.9-12.8L531-0.8l8.1,7.4l-0.9,1.6L526.9-2
		L524-1.4l12.6,11.3l-1.5,0.9L521.9-1l-47.6-0.4l-37.1-0.5l11.3,11.8l-4.2,0.2c0,0,18.2,23.1,18,24.2c-0.2,1.1,15.6,15.6,15.6,15.6
		l48.7,36l16.2-30.2l-4.2,19.8l-5.1,16.9c0,0-2.1,2.5-3.8,4.2l-0.1-0.1l-1.8,1.5c-0.4-0.7-6.1-0.7-6.1-0.7l-52-38L443.4,33
		L426.5,4.3c0,0-3.8-5.8-4.7-6c-0.9-0.2-77.1,0.2-77.1,0.2s11.5,8.7,12.4,9.1c0.9,0.4,10.5,3.1,10.5,3.1l10.4,5.6l14.2,22l9.3,7.7
		c27.9,0.7,34.7,6.2,34.7,6.2l9.8,5.5l22.9,16.6l47.8,35.5l8.9,9.3l-3-2.6l2.1,6.7l7.8,12.6l2.8,10.4l13.3,21c0,0,10.7-5.5,11.1-5.5
		s1.3,0.9,1.3,0.9l11.8,18.5l-5.2,4.4l-14.2,4.6l8.2,23.6l14.2-4.7l-5.6-17.9l7-3.1l9.3,18.2l-7.5,8.9l-23,7.3l6,16.9l21.3-6.2
		l-3.3-13.5l1.9-3l6.3-4.7l7.4,21.5l-29.9,10.4l5.8,17.8l23.8-7l-2.4-8.4c1.3-2.7,4.4-1.5,4.4-1.5l3.8,12.7l-1.1,0.3L567,269.7
		l22,60.7l0.7,9.1l-3.3,10.5l1.8,7.3l-2.2,7.1l-19.1,25.6H563l-3.8,1.5l-2.9,6.7c0,0,2.2,4.4,2.5,5.1c0.2,0.7,3.1,5.8,3.1,5.8
		l1.8,3.6l-2.9,5.5l-14.5,12l-36.7,16.5L466.3,469l-10.2,8.7l-3.8,0.4c-20-22.4-77.5-18.9-77.5-18.9l-17.1-2.2l-33.6-17.8L285,417.4
		l-47.1-34.2l-42.7-36l-41.3-36l-54.2-52l-71.1-69.8l-7.1,6.7l71.1,68.5l53.3,50.7L185,349l48,42.2l47.6,35.1l36.1,19.7l18.7,12.2
		l20.4,7.3l11.3,0.9l35.9,1.5l10.7,1.6l10.4,3.1l1.6,3.3l-47.7,3.3l-12.5-2.1l-29.3-10.6l-59.3-30.2L227.4,400l-26.1-24.6l-6.5,5.6
		l24.4,21.3l56.5,40.9l51.5,24.5l27.8,12.2l-26.4-6.9c0,0-43.1-6-44.5-6c-1.3,0-24.2,32.4-24.2,32.4l57.3,27.7l18,6.7l12.1,6.2
		l6.5,5.2l19.2,26.7l0.4,2.7l-11.9,30.2l-9.2,38.5l-2.5,24.2l0.1,29l2.7,26.5l5.8,27.9l7.2,22.6l13.9,31.3l22.3,32.8l0.5,0.6
		l-9.4,11l-23.3,22.1l-6.1,6.1l-4.6,5l-3.6,2.4l2.1,1.8l7.3,7.8l3.7,3.4c0,0,4.1,2.1,5.5,2.1s12.1-1.7,12.1-1.7s9.5,9.2,10.8,9.9
		c1.3,0.7,9,8.6,10.1,8.7c1.1,0.1,3.4,2.2,5.9,1.3s10.2-4.3,12.7-5c2.5-0.7,14.4-6.5,15.1-6.8c0.7-0.3,11.6-7.2,13.8-8.6
		c11.4,11.5,24.3,24.6,24.3,24.6l45.9,31.6l37,19l51,19.4l37.6,10.1c0,0,55.7,15,56.3,15s8.9,3.7,8.9,3.7c0.1,0.4,0.3,0.9,0.5,1.3
		l-1.7,1.3l-8.7-3.6c0,0-11.3-2.4-12.2-2.2c-4.4,0.5-8.7,0.8-13.1,0.9c-4,0-13.3,0.4-13.3,0.4l-25.3-4.9l-24.7-6.9l-16.7-2.4
		c0,0-22-2-23.1-2s-23.1-5.8-23.1-5.8L529,991l-10.4-3.3l-11.3,5.5l-3.1,8.7c0,0-4.7,17.3-6.9,18.4c-2.2,1.1-11.8,14.2-11.8,14.2
		l-21.8,22.9l2.9,4l24.7-27.6c0,0,8.2-10.5,8.9-11.1c0.7-0.7,4.2-7.8,4.2-7.8l2.9-8.9c0,0,2.2-9.1,3.8-10s3.1-3.3,4.9-4
		s8,0.9,10,1.8s3.1,1.8,4.7,1.8s44.7,10.2,44.7,10.2l24,2.9l16.2,2l22,6.4c0,0,21.1,3.3,24.9,4.2s14.9,1.3,18,1.6s15.6-0.9,18.2-0.2
		s9.1,2.7,10.4,3.1s4.4,1.3,2.7,4.7s-6,4.4-6.5,5.3s-4.7,4.2-4.7,4.2l-1.6,18l-2,24.4l60.7,0.9l-2-9.1c0,0-8.7-4.7-8.7-5.8
		s-20.2-26.2-20.2-26.2l2.7-5l5.3-0.3l33,39l-4,6.7l17.6-0.9l2.8-6.7l1.9-1.6l10.7,8.8h6.5l-11-9.6c0,0,0-3.1,0.4-3.1
		c0.3,0,10.6-5.8,17.4-9.6l0.6-0.3l2,1.3l23.8,20.4l218.9-0.7l-0.2,0.7l244,1.1v-6l3.1-2.2l24.9-7.6l3.1,6.7l-5.8,9.8l30.9,0.7
		c7.1-26.5,24-37.8,24-37.8c20.5-10.7,40.7-26.7,40.7-26.7c18.2-17.8,36.2-23.8,36.2-23.8l21.3-5c2.6,3.7,5.2,9.7,2.8,16.4
		c0,0-2.8,7.9-25.8,25c0,0-18.2,13-27,25.5c0,0-10.7,14.1-12.9,23.6l5,0.2c0,0,1.8-14.5,26.1-38.7L1473.7,1020.8z M956,289l4.9,0.6
		l5.7,3.1l3.9,6l-0.7,6l-17.9-8.4l-0.1-3.8L956,289z M636,391.8l10.4-7.3l10.1,0.6l7.4-2.7l0.2-0.8c2.6-1.8,7.1-4.8,7.1-4.8l2.5,1.1
		l6.7-6.2l-3-3.6l0.6-1.5l39.8-32.9l38.4,2.9l-0.4,1.7c0,0-12.7,13.3-13,13.6s-21.8,20.3-21.8,20.3l0.6-0.3l-7.7,6.4l-32.9,21.8
		L645,419.5l-14.5,6.3L594.2,436l-13.3,3.6l-5.2,0.2l-3.3-3.5l6.8-5.9l20.5-20.7l8.3-11l5.3-9.9L636,391.8z M578.5,418.1
		c15.8-13.7,28.7-39,28.7-39c0.3-0.4,0.5-0.9,0.8-1.3l5.9,1.9l-6.7,12.1l-9.8,14.1l-11.8,12.9l-13,12l-1.8,1.7
		C570.4,424.6,578.5,418.1,578.5,418.1z M672.6,286c0,0-4.9,1.5-5.3,1.7c-0.4,0.2-5.5-3-5.8-3.2c-0.3-0.2-4.8-8.4-4.8-8.4l-8.5-22.3
		l-8.8-25.2l-11.5-32l-7.5-17.2l1.6-0.6l5.2-0.6l2.2,0.7l30.2,71.4c1.4,4.5,3.9,6.9,5.7,8.2c-0.2,0.1-0.3,0.1-0.5,0.2
		c0,0-2.9,0.8-3.5,1c-0.5,0.2,0.3,2.4,0.3,2.4l11.3,23.9L672.6,286z M724.1,200.3c0,0-11.4,11.7-11.3,19.4h0l-8.7-4.9l-22.2-13.6
		l-7.3-4.6l-3.1-5.4l-20-48.2l-8.3-19.4c0,0-4.2-10.7,7.3-12.9c0,0,8.7-3.2,11.9,10l8.6,24.8l9.4,7.8l21.3,3.6l8.1,1.9
		c2.5,2.9,3.7,6.7,3.3,10.6C713.1,169.3,707.4,196.4,724.1,200.3z M644.6,147.8l19.5,46.3l2.8,4.2l6.1,6.4l37.4,22.9
		c2.4,1.8,3.7,4.8,3.5,7.8c0,0,1,6.8-5.3,9.1L679,254c0,0-7.3,1.4-9.9-4.2L628.2,155l0.1-0.8l0.3,0.2
		C628.7,154.4,638.8,155.9,644.6,147.8z M858.9,146.8c7.7,0.5,9.8,8.1,9.8,8.1l3.7,28.8c0.5,5.3-4.3,8.7-4.3,8.7l-5.8,1.2
		c7.2-2.8,5.7-7.9,5.7-7.9l-2-21.3c-0.5-10.9-6.9-11.7-6.9-11.7l-9-1.2l-10.9-0.7c-9.5-1-6.3,3.1-6.3,3.1s4.2,1.1,13.4,4.5
		s9.6,17.1,9.6,17.1c-0.7,7.7-4.6,11.2-4.6,11.2c-1.5,1.2-3,2.4-4.5,3.4c-0.3,0-7.1,4-7.5,4.1s-2.3,5-2.3,5l-46.2,8.9l-29.8,7.9
		c-15.1,7-17,20-17,20l-0.5,6.8l-1.1,4.4l-0.8,4.1l-3.3,2.5l-21.5,10.2l-7.1-9.2c13-7,12.8-16.5,12.8-16.5
		c-1.1-7.9-1.3-16.1-1.3-16.1c1.1-21.2,26.5-17.8,26.5-17.8c17,3.3,36,0.1,36,0.1c14.7-1.8,29.2-4.7,43.5-8.4
		c16-4.3,21.3-12.1,22.7-14.7c1.9-2.8,2.1-5.1,2.1-5.1c3.1-20-18-17.9-18-17.9s-24.2,1.5-24.7,1.5c-0.1,0-1.1,0.2-2.6,0.4l-0.2-0.7
		l-3.8-5.3l-13.1-11.8l8.1,0.1l0.2-0.8L858.9,146.8z M779.1,168.1l2.2,0.7l3.7-0.3l4.4-2.5c0,0,2.5-1,4.3-1.7
		c-10.4,14.3-14.3,10.9-14.3,10.9l-4.2-4.6l0.8-3.6L779.1,168.1z M770.1,180.7l0.2-0.4c9.5,11.9,22.9-1.8,22.9-1.8l5-2.9l10.9-5.3
		l-0.1-0.4l28.6-2.7c8.9,0.3,7.3,8.2,7.3,8.2l0,0.1c-2.1,6.8-14,12.8-14,12.8l-11.7,2.4l-38,6.1l-15.8,1c-26-1.2-32.9-3.8-32.9-3.8
		c-12.1-2-11.8-8.2-11.8-8.2l0.1-20c0-12.8-13.9-16.2-13.9-16.2s-7.2-1.5-7.6-1.5s-16.2-2.7-16.5-2.7s-4.3-2.3-4.3-2.3l-8.3-23.9
		c-2.4-10.9-9.5-14-9.5-14c-15.1-8.2-22.9,4.6-22.9,4.6c-6.6,7.7-2.5,15.2-2.5,15.2l3.9,10.8c-0.1,17.4-15.4,8.8-15.4,8.8l-8.2-19.1
		c-6.2-14.2,4-24.7,4-24.7l21.8-16.8c10.3-7.9,21.1-1.7,21.1-1.7l6.5,5.2l58.4,54L770.1,180.7z M650,32.7l20.8,17.1l0,0l14.6,14.2
		c0,0-3.1,3.9-4.1,4.3s-7.5-0.5-7.5-0.5c-21.5-7.6-35.5,5.4-35.5,5.4l-31.9,26.8c-9.8,13.2-0.1,25.5-0.1,25.5l20.5,47.1l-4.1,3.9
		c0,0-1.8,0.2-3.4,0.4l-7.8-14.7l-16.5-32.4l-5.1-6.2l-4-5.8l-2.7-7.7l0.6-5.5l5.9-7.7L650,32.7z M539.4,95.6l1.6-4.2l7.9-30.7
		l1.4,1.2l0.8,20.7l2.7,3l57.4-60.8L573,88.7l-15.3,16l13.5,16l0.2-0.2l2.7,2.8l14.2,22.7l18.7,36v2.7l-7.1,3.4l-2.3-4.3l-14.8-24.7
		l-13.9-20.5l-15-18.1l-19.1-19.3L539.4,95.6z M552.3,155.8C551.8,156,529,124,529,124l-0.5-1.9l6.1,6.3l20.7,24.9
		C554.3,154.2,553.3,155.1,552.3,155.8z M583.6,173.2L571,153.9l-2.3-2.2l-4.5-2.9L552.6,134l-22.7-24.3l-0.3-1.9l1.4-2.2l1.9-2.2
		l9,9.7l12.9,13l18.8,25l13,20.4L583.6,173.2z M592.4,190.8c-0.3,0.1-3.7-2.4-3.7-2.4l-1.9-3.8l0.2-7.2l2.4-1.4l0.5,0.7l7,14.1
		l-0.5-0.7C596.4,190.1,592.8,190.7,592.4,190.8z M596.6,206.1c-2.1-5.5,1.8-7.5,1.8-7.5l2.1-0.8l3.4,6.8L620,256l10.5,42.4
		c0,0,1,20.5,1.2,21.2s-1.2,12.3-1.2,12.3s-7.8,33.6-12.3,41L612,370c8.6-19,11.3-41.1,11.3-41.1c3-18.7-2.2-41.8-2.2-41.8
		s-0.1,0-0.2,0l-6-22.7l-8.2-29.3L596.6,206.1z M567.9,404.7l2.8-4.4l13-16.6l12.7-18.8l5.2-14.4l5.5-25.3l1.3-15.1l-0.6-9.3
		l-5.9-20.6c-5-12-1.3-13.5-1.3-13.5l3.3-0.5l0.7,2.4l6.1,24.3l0.2,0.1c0.7,5.4,2.3,15.4,2.3,15.4l-0.3,9.5l-1,8.5l-1.6,11.5
		l-6.2,21l-6.4,13.3l-9,15.4l-15.9,19c0,0-3.5,3.4-4.3,2.2c-0.4-0.6-0.7-1.3-0.7-2.1L567.9,404.7z M382.9,783.3l-6.7-8.2l-9.4-29.7
		c-9.1-30.2-7.2-76.5-7.2-76.5c3.4-38.7,13.3-65.2,13.3-65.2c3.9-16.1,22.5-47,22.5-47l19.6-27.2l6.8-2.1l8.4-10.1l4.6-8.7
		l21.5-18.6c15.8-14.3,49.7-28.7,49.7-28.7c20.3-6.5,47.6-22.9,47.6-22.9l6.2,1.6l0.6,0.4l-3.8,3.1l-12,6.5c0,0-28.1,12.9-28.7,12.9
		s-37.6,19-37.6,19L451,501.4l-24.6,24.2l-15,19.4l-19.8,30.1l-10.4,24l-8.5,24.3l-6.2,40.6l-0.7,32.9l3.4,31.1l5.6,21.9l9.6,27.5
		l8.6,17l7.3,12.7l15.1,22.4l17.3,21.5l3,3.1l-0.6,1.3l-1.9,0.3l-21-25C399,814.9,382.9,783.3,382.9,783.3z M449,893.2l-10.8,8.8
		l-1.6-2.4l-0.5-5.5l-31.8-39.4c0,0-3.1-5.8-2.8-6.4c0.8-1.1,1.7-2.1,2.7-3.1l2.2-1.9l0.5,0.6l16.4,18.9l0.2,7.5l7.1,7.5l10.4,7.9
		l0.6-0.9c2.8,2.7,6.6,6.5,10.8,10.7L449,893.2z M747,1036.8c0,0-12.9-13.5-12.9-13.9c0,0-6.4-8.6-20-12.7l-48.6-12.9l-64.4-17.5
		l-20.1-8.5l-39.1-18.8L514,935.5l-29.8-22.1l-2.1-5.6l-11.9-10.7l-5.6-2.1l-18.3-18.7l-1.2-3.6l1.6-5.8l10.1,10.9l0.8,1.7l25,23.8
		l25.2,21.8l35,22.4l31.5,15.1l13.8,4.2l43.1,14.1l81.5,21.9l10.2,3.5l8.1,5.3l20.9,20l26.9,33l-5.3,3.1L747,1036.8z M782.8,1062.6
		l-40.4-45.9c-9.6-11.4-26.4-17.3-26.4-17.3l-45.2-11.4l-33-8.3L577,958.4l-22.4-9L526,933.3l-36.1-27.6l-29.4-28.5l0.2-0.2l6.1-6.6
		l-12.1-14.8l10.1-16.2l-11-9.2l-14,18.3l-4.3-0.1L413,820.3l-19.7-32.7l-10.2-24l-9.5-35l-4.2-32.6l1.5-29.4c0,0,4.6-38.2,4.6-38.7
		s8.6-25.9,8.6-25.9l11.1-25l24.6-38.7l23.6-25.2l31.6-25.6l26.7-14.4l29.9-13.3l23.1-10.8l8.7-6.6l0.4,0.3
		c11.5,12.4,27.3,4.3,27.3,4.3l41.5-12.3c23.7-9.5,56.6-28.9,56.6-28.9l45.6-33l13.1-14.4l3.1-1.6c0,0,8.4-6.9,14.9,3l2.5,4
		l-1.6,3.6l-20.1,24.2l-32.7,29.2l-31.1,22.1l-29.9,18.3L591,490l-0.2,0c0,0-6.4,3.4-27.1,7.5c0,0-43.9,9.3-74.5,33.6
		c0,0-37.3,24.7-61.5,71.1c0,0-20.1,31.7-22.8,85.2c0,0-2.5,24.6,14.5,82.5c0,0,19.6,47,52.8,72.5l8.2,8.3
		c29.3,44,68.9,66.2,68.9,66.2c23.1,17.8,75.8,30,75.8,30l32,5.8l19.1,3.8l87.3,24l2.5,2.7l-2,8.7l36.2,45.6
		c-0.9,5-0.6,10.1,1.1,14.9l0.2,0.3L782.8,1062.6z M476.9,757.9l-2.2,1.3c-5.4-9.8-17.3-36.5-14.3-77.3l4.2-23.1
		c2.3-7.7,15.2-47.6,33.1-61.2c0,0,10.5-8.2,21.4-10.6l31.1-9.1l-17.3,15.8l16-11.6l5.4-2.9l0.2,0.7c0,0-22.3,11.5-32,24.3
		c0,0-20.7,23-29.3,45c0,0-8.7,16.7-11.9,48.2l-0.7,22.9l-2.2,29.2L476.9,757.9z M835.4,499.8l-0.1-18.9c0,0-1.3-15.7,17.6-15
		l75.6,13.2l117.5,22.8l4.6,1.9l-2.4,1l-190.4-13.6l-1.8,14.4l101.9,7l0.9-8.6l95.4,5.3c0,0,10.2-0.9,14.8-1.5l74.9,5.7l-4,10.2
		l19.4,0.6l64.6,5c24.6,2.9,48.9,8.3,72.4,16.1c0,0,47.4,17.6,78.5,46.2l36.8,40.2l1-0.9l3.5,3.9l6.4,1.6l7-0.5l0.6-0.4l16.3,26.3
		c12.7,20.2,22.4,58.5,22.4,58.5c10.1,35.1,10.2,72,10.2,72l4.6,0.2c1.1-27.4-11-73.3-11-73.3l7.3,16.7h1.5l3.8,10.6l12.4,50.7
		c-0.8,15.4-15.8,16.7-15.8,16.7c-11.6,0.9-18.4,2.1-22.4,3.2l-0.1-0.4c-7.1,1.9-9,0-9.5-1.5c0.2-6.9,0.7-24.5,0.3-29.2
		c0,0-2.4-37.9-8.1-53.3c0,0-7.1-26.1-15.1-43c0,0-9.3-22.1-20.7-35.9c0,0-14.9-22.8-27.2-34.1c0,0-22-20.6-31.9-27l0.1-0.1
		c0,0-35.2-25-69.8-34.5c0,0-21.1-6.4-59-10.6l-123.8-9.5l-181-11.8l-78.5-4.9l0.4-20.9L835.4,499.8z M1471.3,575.5l0.4,0.2
		l19.1-21.2c0,0,18.2-15.7,28.4-61.8l-1,12.7c0,0-5.2,24.5-17.2,42.2c0,0-17.6,24.6-29.8,34.4c0,0-2.7,0.7-5,0L1471.3,575.5z
		 M1242.1,611.4l0.2,0.3l-17-5.8l-17-4.9c-8.1-5.1-24-9.4-24-9.4l-4.2-1l-17-1.7l-28.4-2.1l-22.9-1.6l-0.2,0l-47-3.4L1051,579
		c0,0-14.6-3.1-24.9-3.4c-0.8-0.7-1.5-1.4-2.3-2l43.4,2.9l130.4,8.9c0,0,29.1,6.7,46.7,19.6C1244.3,605,1246.8,610.1,1242.1,611.4z
		 M1240.7,615.3l-5.1,9.2l-12.6-13.2c0.1-1.2,1.1-2.2,2.3-2.2L1240.7,615.3z M797.9,579.5v3.5l-1.6,1.2l-67.8-4c0,0-9-0.5-7.4,10.8
		c0,0,0.3,12.2,13.8,12.5l6.5,0.2l-0.2,1.3c0,0-25.8,1-27.8-15.6c0,0-5-24.3,21.8-24.9l119.9,8l113.2,8l47,3c0,0,9.6,0.5,8.1,8.8
		c0,0-0.9,7.4-9.5,5.6l-17.2-6.7c0,0-12.9-4.7-26.4-1.9l-54.8,4l-0.3-1.3l-80.9-4.7l0.1-5.9L797.9,579.5z M838,626.5h1.6l27.3,1.9
		l49.7,0.4l0.9-15.3l54.7,4c6.8,0.1,10,5.9,11.1,8.4l-4.9-1.5v4l-22.1,1.8h-87.9c-15.4-1.6-30.4-2.2-30.4-2.2L838,626.5z
		 M995.4,623.3c-0.7-15.5-13.7-15.9-13.7-15.9l-68.2-3.7c-2.2,0-1.2-2.1-1.2-2.1l64.3-4.9c10.7-2.1,21.9,4.9,21.9,4.9
		c4.6,4.7,13.2,6.7,13.2,6.7c20,1.6,20.7-13.8,20.7-13.8c0.8-6.5-0.9-11.5-3.4-15.2c3.6,0.2,11.6,0.8,23.8,3.2
		c0,0,14.2,3.1,21.2,2.8l24.2,2.2l0.9,0.5l-43.8,15.1l-1.4-3.9l-13.6,4.1l-5.4,4.9c-6.8,8.7-19.9,12.3-19.9,12.3
		c-7.7,1.8-14.5-4-14.5-4l-3.7,8L995.4,623.3z M738.9,555.1c-41-3-36.2,35.4-36.2,35.4c4,26.8,37.6,23.8,37.6,23.8l0.3,1.8
		c-32.3,5-44.7-16.9-44.7-16.9c-16-22.4,1.8-41.2,1.8-41.2l-14.8-1.2c-16.7,19.8-9.3,43.6-9.3,43.6c8.5,29.3,42.5,28,42.5,28
		l26.5-0.2l52.4-0.3l27.7-1.3l11-0.1l-0.3,1.3l-6.4,0.5l-33.9,1.6l-85.5-0.3c-31.4-3.4-37-32.3-37-32.3
		c-4.9-23.6,10.8-40.7,10.8-40.7h-4.2c-9.9,11.6-13.6,27.2-10.1,42.1l-1.8,5.9l3,5.2l3.5,0.5c9.6,22.2,36.3,22.1,36.3,22.1l40.4,0.9
		l45.5-0.5l34.7-1.5l0.2,1.3l-4.9,3.5l8.5,0.3l-1-4c4.6-2.1,27.5-0.2,27.5-0.2l17.5,1.3h69.8l19.9-0.9c12.3-0.4,29.6-3.3,29.6-3.3
		l0-0.1l20.8-5.7c16.3-4.6,22.5-13.9,22.5-13.9l1.4,3.2l52.9-19.8c15.1-3.5,19.1-3.5,19.1-3.5l3.2,2.3l53.1,0.2
		c14,0.1,28.7,6.9,28.7,6.9c11.6,4.7,27.7,19,27.7,19l-1.2,8.2l9,1.7l4.3,4.8l0.1-0.1l9.8,13.4l10.7,15l15.8,16.7
		c10.3,8.2,17.7,8.5,17.7,8.5l46.2-0.4l13.1,1.5l-3.9,7l11.3,41.7c0.6,2.8,0,5.6-1.4,8l1.4,3.9c2.4-2.6,3.7-5.9,3.7-9.4l-0.1-2.9
		l-10.4-38.8l1.1-1.5c4.8-5.8,8.7,5.3,8.7,5.3l12,62.4c-3.5-5.4-13.4-9.1-13.4-9.1l0.4,3.9c10.3,2,14.3,14.7,14.3,14.7l4,21.5
		l7.4,37.6l-2.4-0.7l2.9,7.3c5.9,5.7,14.2,9.5,14.2,9.5l0.9-3.6c-10.6-2-11.9-11-11.9-11l-2-8.2l-10.6-54.2l-11.2-58.9
		c-2-14.2-6.7-20.4-6.7-20.4c-4.2-11.7-18.7-8.6-18.7-8.6l-24.9,0.7l-20.1-0.1c-18-1.7-32.2-20.9-32.2-20.9l-23.5-32.5
		c-1.6-8.8,5.1-12.4,7.2-13.4l0.2,0.2c0,0,7.9-3.1,16,5.2c0,0,1.6,0.8,2-1.5l-7.8-5.9l3.7-8.2l-18.3-6.6l-1.9-1.6l-20.6-9.8v-2
		c15.7,0.7,31.3,3.2,46.4,7.4c0,0,34.1,10.7,55.8,26.8l0.1-0.1c5.1,3.8,29.7,22.8,40.5,36.5c0,0,27.8,32.5,38,65.8
		c0,0,12.4,33.7,12.1,68.8l-0.7,27.5l3.7-0.1l3.8,7.3l-7.4,37.9l-28.7,44.4l13.3,8.8l-12,11.4c0,0-18.5,15-38.7,31.5l-36.4,9.2
		l-23.4,7.3l-2.9-0.2l23.4-25.8c7.4-9.2,12.6-20,15.1-31.5c1.6-12.2,5.6-19.9,5.6-19.9c9-20.1,28.8-25.9,28.8-25.9
		c20.5-7.3,34.3,1,34.3,1l1.2-2.5c-5.8-4.1-22.1-4.8-22.1-4.8c-3.7,0.4-5-0.5-5-0.5l0.4-3.4l-7.4-2.1l-1.8,8.8
		c-5.5,2.1-10.7,4.8-15.6,8.2c-17.5,14.9-19.7,30.5-19.7,30.5l-8,10.7l1,2.4l4.4-2.2c-2.1,16-18.3,35.5-18.3,35.5l-21.6,19.8l0,0
		c-4,3.1-18.4,13.3-42.2,19.2c0,0-23.9,3.5-37.8,1c0,0-21.7-4.1-57.7-20.6l1.2-5.5l52.5,19.4c11.4,2.5,32.7,0.9,32.7,0.9
		c36-2.2,52.1-23.8,52.1-23.8c19.8-13.9,28.3-39.2,28.3-39.2l-38.8-27.2l-15.2,8.4l-3.7,2.8l-3.4,6.4l-0.7,6.2l1.9,8.1
		c3.4,21-7.8,30.8-7.8,30.8l-17.7,12.3l-29.6,3l-28.9-6.2l-21.4-4l0.8-3.7l-11.1-1.7l-3.1,12.7l-78.1-31.3L973,923.7l5.9,4.8
		l-0.6,0.8l-45.2-14.1l-122.7-31.2l-1,3.8l-38.2-12.2L647,843.9l-5,3.1l-65.8-17.1l-4.4-0.5l-14.6-5l-19.1-4.9c0,0-6.3-1.4-8.3-6.5
		l0.2-0.1l0.2-21.5l-5-12c0,0,19.1-40.2,25.9-48.5l0.6-11c0,0,16.4-25,50.7-38.4l2,5.3l5.1-1.7L608,680c0,0,19.8-6.9,53.3-4.9
		c0,0,24.1,1.6,52.2,13.8l11,4.5l-0.3,1.8l9.2,2.9l0.9-2l4,1.3l45.8,15.5l39.3,13.5l5.9,1.5l55.2,9.1l60.7,8.1l63.6,8.6l65.4,8.9
		l64.2,8.5l3.6,1.6l8.6,0.8l-3-6.3l9.4-8.5c0,0,13.8-10.7,13.6-31.7c0,0,0.2-24.8-17.8-40c0,0-13.2-12.2-26.2-16.1l-5-2l-3-1.5
		l-3.3-0.7l-1.1-0.1l1,1.9l-10.7-0.4l-39.2-3.9l-57.1-5.5l-28.2-0.8l-55.2-1.1l-49.9,1.5l-21.2-1.5l-139.7,0.7l-35.8-0.7l-20.8-0.6
		c0,0-24.3,0.9-46.6,2.9l-48.5,6.1c0,0-4.4,0.9-3.5-7.3c0,0-2.8-1.7-5.1-0.1c0,0,0.1,4.3-2.3,4.9c0,0-3,0.9-3.3-5.3l-0.6,0.1
		c1.1-10.7,5.6-20,5.6-20l2.4,0.6c3.1-20.7,21.8-40.9,21.8-40.9l14.1-12.7l35.1-31.3l-5.3-1.5l-37.9,31.3
		c-28.3,22.2-35,50.4-35,50.4c-3.7,11.9-4.2,20.1-3.8,25.2l-0.2,2.8l-1.2-3.5l-2.8-16.8c-2.4-21.4,7.1-34.4,7.1-34.4
		c7.6-17.6,25.6-28,25.6-28l-2.9-4.6l0.2-0.1l-3-5.1l-7.8,3.6L509,586.3l-0.9-1.8c0,0,30.5-29.1,72.9-37.1c0,0,22.7-3.5,43.3-0.4
		l32.2-13.1l46,3.8l7.8,14l47.7,3.4L738.9,555.1z M1406.8,934.9l-6.9,11.6c0.7-1,1.4-1.9,2.1-2.8l-2.6,3.7l-21.3,23.8l-22.7,19.8
		l-27.1,18.9l-32.4,14.9l-32,10.2l-27.2,5c-5.3,0.7-9.6,1.2-12.6,1.5l-7.4,0.5c-6.4,0.2-12.9,0.2-19.3,0l-7.8-0.4
		c-1.8-0.1-3.7-0.2-5.5-0.4c1.3,0.1,2.5,0.2,3.8,0.3l-6.9-0.3l-15.6-2.2l-22-5l-21.7-5.4l-46.6-12.7l-1.7-0.5l0,0l-7.4-2
		l-202.4-55.3l92.3,24.5l152.7,41.1c44.4,12.9,88,16.2,88,16.2c82.2,0.4,136-36.2,136-36.2c33.3-17.7,69.3-64.6,78.3-76.8l1.4,0.9
		C1410.5,930.1,1408.6,932.5,1406.8,934.9z M1211.9,1042.3l-3.4,0.2l-5.2-0.3c2.5,0,5,0.1,7.5,0
		C1211.2,1042.3,1211.5,1042.3,1211.9,1042.3z M1070.9,1034.1l17.2,4.7l-0.9,2.9l-16.9-5.1L1070.9,1034.1z M1073,1026.2l0.6-2.1
		l17.5,4.9l-0.2,2.4L1073,1026.2z M555.5,900.8c25.3,16.3,71.3,30.5,71.3,30.5l0.3-1l19,6.1l-0.5,1.6l29.3,7.5l0.3-1.3l19,5l0.4,3.3
		l-26.4-6.4l-23.1-5.3l-22.5-1.9l-20.7-6c-36.5-9.6-73.9-39.7-73.9-39.7c-19.7-16-35.3-42.1-35.3-42.1l2.2-2.8l-0.4-3.8l1-1.5
		l3.7,3.4l2.1,1c19.5,14.8,61.4,27.9,61.4,27.9l65.3,17.6l38.2,11L589,882.3c-0.4,0-0.8-0.1-1.1-0.2l84.3,23.3l49.8,14.3l-14.5-3.8
		l-65.3-18l-63.7-17.2c-38.4-6.7-82.1-35.1-82.1-35.1C510.5,869.9,555.5,900.8,555.5,900.8z M520.3,818l4.1,13.6l25,13.9L512.8,833
		l-3,1.9L520.3,818z M773.2,914.3l82.7,23.8l121,32.3l89.7,22.6l87.7,21.2l32.7,4l-41.2-2.3l-202.5-52.5L773.2,914.3z M750.1,907.7
		l-107.3-30.2l-53-18.1l63.7,20l102.9,30.1L750.1,907.7z M1267.3,1008.4l42.6-18.1c-8.6,7-14.6,11.6-14.9,11.8
		C1294.5,1002.3,1282.1,1005.1,1267.3,1008.4z M541.7,724.8l4.3-14.7c6.8-7.5,14.5-14.3,22.8-20.1c0,0,17.9-13.8,62.7-19.9
		c0,0,31.7-3.4,79.1,5l72.7,23.6L816,710c10.8,3,21.8,5.2,33,6.4l72.1,7.6l46.2,4.8c0,0,16.2,1.4,14.8,17.3l8.5,1.2l-17.3-2.4
		l-99-12.9l-48.8-8.3l-43-14.2l-52.2-18.2l-39-13.3c0,0-21.8-7.3-43.5-5.7c0,0-30.2-0.5-51.2,8.2c0,0-35.6,14.8-54,46.1l-0.1,0.1
		L541.7,724.8z M541,663.1c0,0-0.1,3.1-3.9,1.9l-31.3-7.4c0,0-9.7-2.9-7.3-12.1c0,0,14.6-31.8,36.7-48.5l0,0c3.6,1.3,11.8,4,11.8,4
		c-16.6,23.7-9.3,51.2-6.6,59.2L541,663.1z M996.8,735.2l1.7-3.7l20.6,0.6l102.8,12.5l9.9,0.6c20.3-2.7,12.7-25.5,12.7-25.5
		c-6.4-26.1-34.4-29.6-34.4-29.6l-71.4-6.8l-41-4.2l-0.5,30.7l1.1,6.9l11.3,2.9l12.2,4.2l0.6,1.6h-17.8c-6.1,0.1-9.3-1-10.8-1.8
		l-0.2-0.6l-0.7-12.5l-0.8-0.2l-0.1-32.2l3.9-17.5l44.8,4.1l52.2,4.9l22,1.9c0,0,17.7,2,31.6,14.3c14,11.1,21.4,28.6,19.6,46.4
		c0,0-2.4,25.7-27.9,32.1c-6,1.6-12.3,2-18.4,1.1L995.3,748L996.8,735.2z M980.1,660.2l1,47.9c-0.5,1.5-3.9,10.3-13,10.7L851.8,707
		c0,0-29.2-4.2-41.5-9.4l-75.5-25.5l-20.6-6.7l-6.3-0.5l-24.1-2.5c0,0-31.7-3.9-54.5-1.3c0,0-47.5,2.1-82.5,32.7l-0.9-2l1.1-14.6
		c0,0,0.7-5.7,10.3-7.4l67.9-9.1c27.7-2,55.4-2.1,83.1-0.5l45.5-0.2h88.5l32.9,1.3l6.9,0.2l20-1.3l68.8-0.1L980.1,660.2z
		 M482.3,738.8l1.9-0.2l1.3-35.9l0.3-8.5c0,0,0.9-17.1,4.4-27.3c0,0,3.2-8.1,12.3-6.9l33,9.2c0,0,8.4,0.9,7.5,13l-1,10.2l-2.9,5.7
		l-7.3,9.8l-37.1,60.7l15.5,7.2c0,0,18-45.4,31.3-60.6c-1.8,6.2-4.6,15.6-6.7,21.6l-2,2.7l-14.9,46.5l-1.9,11.5l3.7,9l-2.8,2.8
		l5.1,5.9l-1.3,0.6c-4.2-3.4-34-28.1-40.7-45.8L482.3,738.8z M1224.3,1073.4l-33.8,1.6l-41.1-4l-16.4-1.8l-66.9-16.4l1-3.8
		l66.6,17.5l0.4-1.6l22.4,4.9l0.4-2.2l11.3,1.8l29.1,2.2l24-0.4l30-4.2l34.4-8.4l1.1,1.1l-5.3,2.2l-31.6,7.6L1224.3,1073.4z
		 M1464,960.2l-20.3-28.5c-4.4-4.7-8.1-10-11-15.8l1-3.6l-21.4-22.3l17.5-48.9l27.5,1.5c1.3-11.1,4.4-13.2,4.4-13.2l0-0.1l3.4-1.7
		l25-4.6l2.4,6.5c21.6-6.5,25.8-26.8,25.8-26.8l0.7-9.9l-13,12.2c2.3-4.2,1-13.8,1-13.8c-5.3-22.2-10.7-40-10.7-40
		c-12.4-33.8-27.8-65.3-27.8-65.3c-7.4-16.9-24.9-46.4-30.2-55.1l1.6-1l28.4,49.8l23.5,46.5l11.3,25.3l5.3,9.3l7.4-71l7.9-68.7
		l-1.9-0.6l7.6-77.6l-0.9-51.3l1.2-22.1l-4.7-52.3l-7.4-70.7l1.6-0.4l3.6,33.9l4.6,1.3l2.7,1.6l5.2,44.6l0.4,69.2l-0.3,84.2
		l-0.2,79.7l-1.6,80.1l-0.1,77.2l-0.9,19.5c0,0-2.4,11.3-7.8,12.9l-1.5-3.3c-6,3.9-12.8,6.5-19.8,7.7c0,0-29.6,4.7-53.5,1.3l1,3.3
		c21.1,2.1,42.3,1.2,63.1-2.5l2.7,3l6-1.9l2.9-1.7l0.2-2.5c0,0,7.8-4.5,9.4-13.5l0.8-6.3l1.1-48l-0.1-67.3l0.9-73.5l0.3-75.8
		l0.2-70.9v-69.8l5.8,0.1l0.6-65.9l1.1-91.2l1.6-113.7l-0.9-25.2c0,0-5-22.8-23.4-22.7c0,0-12.7-1.5-23.3,11.7l-2.5,73.3l3.3-0.6
		l5.2-50.8c0,0,0.4-6.7,6.2-6.8l-7,79.1l-1,51.1l-0.2,42.1l3.6,39.7l8.4,82.4l3.1,30.8l-0.4,3.4l-0.5-0.1l-3.9-38.3l-1.3-12.8
		l-5.1-27l-8.7-50.6h-3.6l8.6,46.4l6.1,40.9l4.1,40.4l-1.3-0.4c0,0,0.7,24.5-2.2,36.3c0,0-6.1,38.5-30.1,59.1l-9.6,5.3l-1.5-0.1
		l-7.2-7.8l-5-0.7l-4.6-4.7l-47.1-55.1l-2.5,1.9l61.5,71.6l-0.1,0.1l2.1,2.5c-0.8,1.1-2.2,2.4-4.2,1.6l-33.2-41.8l-31.8-38.4
		l-7.7-8.5l-11.4-9l-17-15.7l-4.9-4.7l-14.3-17.7l-20.6-23.7l-17.2-15.7l-10.4-7.4c0,0-22.1-8-40,0.1c0,0-19.3,4-32.2,32.3
		l-7.8,39.6l-8.2,9.6l-4.4,9.5l-5.5,5.9l-0.3,0.3l-4.1-0.2l-96.4-19.7L981,445.1l-100.3-18.1l-2.4-4.4l-29.6,0.6l0.6,2.4
		c0,0-36.5,3.6-71.7,23c0,0-39,23.9-56.7,51.5l5.3-0.1c0,0,18.2-26.2,51.3-47.4c0,0,43.9-26.1,90.2-23.1c0,0,49.9,6.2,105.2,18.5
		l128.7,24.9l93.2,18.8c2.7,0.7,10,2,14.8-3.3c0,0,4.4-5.5,6.1-16.9l8.6-46.4c0,0,2.5-24.6,40.7-33.6c0,0,25.3-6.7,45.6,17.5
		l35.4,38.9l9.5,12h-0.6l-25.5-27.5l-30.5-28.5c0,0-42.8-27.4-63.3,19.4l27.8,3.6c0,0,12-22.1,39.3-7l6.5,4.8l-1.5,1.3
		c0,0-24.7-21.6-43.8,2.5l-14.6,80.9c0,0,54.8,7.5,99.7,35.4l48.9,35.3l30.4-34.5l-37-45.9l-14.7-13l1.2-1c0,0,14.1,12.3,14.5,12.5
		s38.2,47.8,38.2,47.8l-1.6,2.2l3.7,3.3l-7.1,8l-4-3.4l-23,25.9l23.4,25c0,0,0.4,2.5-2.2,1.2l-24.3-25l-5.8-4.5l-33.2-25.6l-22.5-13
		c0,0-49.9-25.8-84.3-27.1c0,0-49.3-5.3-70.5-6.7l-73.8-4.9l-52.6-6.2l-38.4-7L893,463.2l-49.2-6.7c0,0-27.7-4.5-63.5,8.6
		c0,0-31.7,11.3-52,35l13.3,0.2c0,0,19.4-25.6,74.1-33.9c0,0,11.3,0,10.1,14.8l0.2,17.9l0.3,0.1c-0.4,3.6-2.1,8.3-8.3,9.3l-12.7-0.9
		l3.5-19.6l6.9-6.4l-2.6-5.9l-13,6.1l4.1,7.2l2.1-0.8l0.5,0.7l-3.3,18.7L737,503l-4,8.7l77.4,6.1l4.2,0.3l-1.5-0.3
		c3,0.4,8.3,0.9,11.4-1l0.7,3.8L713,513.7l-90.4-6.5c0,0-77.3-5.3-119.4,33.5c0,0-57.2,32.9-75.2,105.6l-0.1,0
		c0,0-20.5,47.9,13.6,131.8l-0.4,0.2c0,0,0.8,1.5,2.2,4.1c0.3,0.6,0.5,1.3,0.8,1.9l0.2-0.1c4.5,7.8,13.3,22,24.7,33.8l21.9,19.5
		l-4.6,5.2c-3.8-3.7-10.3-9.6-10.3-9.6l-11.1-10.7l-12-12c0,0-16.9-25-23.3-41.9c0,0-18.8-45.3-15.3-80.3c0,0-0.6-39.7,16.9-72.5
		c0,0,11.4-27.5,37.8-54.1c0,0,36.7-39.4,82.2-50.7c19.9-5.5,40.6-7.8,61.2-6.7l19,1.6l31.2,1.6l2.4-8.7l-29.8-1.6l-2-0.3
		c-5.2-1.7-9.9-5.2-5.1-12c0,0,9.5-5.7,9.8-5.8s42.6-23.2,42.6-23.2l15.5-10.8l27.8-20.9l14.6-13l19.8-17l6.6-8.1l6.7-10.9
		l19.2-27.8l18.2-25c0,0,3.3-4.8,12-6.5l38.4-7.1l61.9-9.3c7.8-1.5,15.8-0.8,23.3,1.8c0,0-4.5,8.4-4.2,8.3s47.6,21.9,47.6,21.9
		l33.3,16.6c0,0,12.4,5,31.3,2.9c0,0,11.5-0.5,11.8-0.6s-1.3-8.5-1.3-8.5s15.6-2.5,27-10.7c0,0,15-10.4,25.3-22.2l20.6-21.7
		c0,0,4.4-3.9,8.7-7.5c2.8-2.1,36.4-26.5,70-26.4c0,0,44.1-3.7,73.3,9.8l1.3-2.2c0,0,36.6,12.5,64.2,45.9l31.8,48.2
		c0,0,14.2,18.2,35.9,8.6c0,0,17.7-8.7,16.7-29.9l2.9-85.9l4.6-96l1.5-37l2.4-7.5l22.5-63.7l2.2-7.2V30l0.2-11.4c0,0-0.6-6,3.7-10.9
		l0.3,0.3c34.9-16.4,73.1,5.8,73.1,5.8c29.1,12.9,37.6,54.9,37.6,54.9l16.9,128.4l-0.9,126l-1.1,124.9v69.8l-1.7,174.5l-0.2,59v60.4
		l-0.8,52.9l-8.7,35l-15.6,54.9c-2,5.1-6.2,9.1-11.4,10.8l-57.4,12.2l-17.3-0.3l-18.2-9.1L1464,960.2z"/>
	<path class="st2" d="M1929,925c-187.6,3.6-307.4,37.6-307.4,37.6l-40.9,16.3c-66.4,22.5-90.8,44.9-90.8,44.9
		c-35.3,20.6-56.9,58.5-57.3,58.7l9.6,2.5c21-33.5,61.6-60.2,61.6-60.2c45.3-33.5,114.5-52.3,114.5-52.3
		c209.8-42.2,311.6-29.8,311.6-29.8L1929,925z"/>
	<polygon class="st2" points="1528.4,1080.1 1589.3,1081.6 1551.2,1050.8 	"/>
	<path class="st2" d="M1732.6,982.1c-0.7,0-15.3-4.9-15.3-4.9l-90,9.3c0,0-10.4,2.7-11.3,2.7s-21.3,6.4-21.3,6.4s-4.6,4.9-5.9,4.9
		s-17.8,7.1-19.6,7.3s-8.4,5.3-8.9,5.6s-12.9,11.8-13.8,12.1s-1.3,2.4-1.3,2.4l1.9,1.9l5.9,1.6l4.4,4.6l24.2,22.6
		c0,0,4.9,6.7,4.9,7.1s21.8,17.3,21.8,17.3l187,0.2l-37.8-88.9C1757.4,994.4,1733.2,982.1,1732.6,982.1z"/>
	<path class="st2" d="M1489.6,434.8l-17.6,66.8l-38.1,4.6l-5.3,1l-10.1-5.9l-34.7-35.3l-3.6,3.4l31.2,30.7l53.3,49.3l10.7-0.7
		c39.1-30.5,31.1-84.5,31.1-84.5l-10.7-40.2l-6.7-9.1L1489.6,434.8z"/>
	<path class="st2" d="M1561.1,177.5l1.1,23.7l4.4-9.8l2.8-26.2l3.3-46.2c0,0,6.6-32.2,0.5-51.6c0,0-13.8-56-75-50.8l-11.1,5.9
		l-2.4,76.7l2.2-0.6l12-16.6l28.6-8c0,0,15.7,9.3,16.1,9.2c0.4-0.1,16.2,23,16.2,23L1561.1,177.5z"/>
	<path class="st2" d="M1542.5,105l-0.5-3.6l-2.2-4.8l-1.5,0.7c0,0-2.9-9-13.9-7.1l0.1,13c0,0,12.3,2.7,17.6,11.6
		c0,0,0.1-4.2,0.3-4.2s2.8,0.7,2.8,0.7l0.1-2.7l-1.6-0.4L1542.5,105z"/>
	<polygon class="st2" points="1398.1,857.1 1400.2,848.9 1373.9,843.3 1375.7,846.4 	"/>
	<path class="st2" d="M1527,809.4l1.6-6.8l1.6-18.5l0.6-90.5l-14.5-1.8l-7.4,71.1l2.4,23.3l9.8,1.2l-2.4,19c0,0-5.2,16.5-25.1,23.7
		l2.4,7.4C1496,837.4,1519.4,831.5,1527,809.4z"/>
	<path class="st2" d="M1329.8,345.7c0,0-19.1-24.3-29.5-30.5c0,0-49-37.8-109.3-11l-5.8,15l-6.2,13.5l-0.1,2.5l-7.1,21.9
		c0,0-0.4,2.8,0,3.1s0.9,3.1,0.9,3.1l34.5-11.3l-22.4,16.7l-14.4,43.7c0,0-18.4,33.5-20.2,34.4s-42.1,11.3-42.1,11.3s-8.6,3-9,3
		s-12-0.6-12-0.6l-48.9-8l-1.2,3.4l63.8,12.5l46.8,7l37.2,5.8l5.3-0.7l3.7-3.6l13.5-35.1c0,0,1.5-13,1.5-13.8c0-0.8,0.9-27,0.9-27
		l-0.2-31.1l7.8-15.7l-1.8-4l-3.5,0.3l3.9-1.3l23.7-12.2l60.7,29.5l45.6,35.7l5-5.3l-12.6-35L1329.8,345.7z"/>
	<path class="st2" d="M614.9,162.1l3.5-1.9l-12.3-29.5l-6.3-15.9c-1.5-5.1-0.4-10.6,3.1-14.6l-1.3-1.5L586.1,112l4.9,8.9
		L614.9,162.1z"/>
	<path class="st2" d="M618.6,80.9l2.2,0.2l17.5-12.2l6-3.1l10.8-2.6l8.3-0.9c-0.2-1.2-0.4-2.4-0.8-3.5c-0.5-1.3-1.6,0.1-2.5,0.1
		s-3.4,0.2-4-0.1c-0.6-0.3-2.8-2.2-2.8-2.2l-3.8-4l-6.6-3.8l-1.4-2.6l-25.3,27.6l0.5,3.6L618.6,80.9z"/>
	<path class="st2" d="M656.2,81.7l-4.5,0.3l-3.8,0.3l-28.3,20.9c0,0-10.6,14.6,1.4,29.9l9-12.8l0.6,0.4l0.9-6.8l2.3-5.3l3.8-4.1
		l7.2-4c0,0,4.9-0.7,5.2-0.7s8.1,1.3,8.1,1.3l5.5,0.6l3.3-1.6l0.4-2.1l-1.4-2.8l-3.9-2.8c-2.3-1.3-5.8-1.6-8.9-1.4l-0.3-7.8l2.2-0.2
		c0,0,5,1.4,5.6,1.5s8.5,8,8.5,8l0.9-1.4l-7.9-6.9L656.2,81.7z M652.2,91c-3.8,0.3-7,1-7,1c-18.1,5.6-21,18.7-21,18.7l3.5,5.7v2.4
		l1.1,0.6l-7.8,12.1c0,0-9.2-13.3-0.7-26.8c0,0,8.5-8,9-8s17.8-12.2,18.1-12.3s3.5-1.2,3.5-1.2l1.2-0.1L652.2,91z"/>
	<path class="st2" d="M728.7,192c0,0,17.4,2.9,18,2.7c0.8-0.7,1.4-1.4,2-2.2l-0.5-2.5l2.3-5.2l3.4-6.6l-1.1-0.9l-5.3,12.1l-0.8,3
		l-1,0.4l-15.8-2.3l-3.7-1.3l13.9-24.2l-1.5-0.3l-13,23.2l-2-5c0,0,0-11.6,0.7-11.9c0.7-0.3,9.5-12.9,9.5-12.9l-0.9-0.1l-10.1,12.5
		l-0.7,12.6l3.1,7.4L728.7,192z"/>
	<path class="st2" d="M307.7,249.6l16,42.8c0,0,6.4-8.3,6.5-8.7c0.1-0.4,26.4-31,26.4-31s17.9-5.9,21.9,13l1.2,9.3l-3.3,0.6
		l-2.2-0.3v15.1l5.6,0.9c0,0,1.6,0.6,2.1,1.6c0.5,1,0.4,6.8,0.4,6.8l-3.3,7l-5.8,2.4c0,0-2.1,2.2-2.8,2.8c-0.7,0.6-3-0.7-3-0.7
		l-15.7,15l1.9,7.1c0,0-8.3,8.3-7.5,8.3s13.5,13.5,13.5,13.5l12.9,15.3l33.8,30.8l27.7-30.4l-4.9-5l10.8-12l2.4,1l5.3,1.8l0.1,1.3
		l1.3,2.7l4.3,3.3l3.9-1.2l2.2-4.2l-1.8-4l5-6.8l5.9-5.6l8.3-8.6c3.3-4.6-0.2-11.7-1.9-14.6l11.9-13.1l5.5,4.7l4.6,9.2l0.6,10.2
		c0,0-1.8,4.4-1.8,5.8c0,1.3-3.9,9.8-4,10.2c-0.2,0.5-2.5,6.8-2.5,6.8l-1.3,10.3c0,0-3.3,27.5-3.4,28.1c-0.1,0.6-3.4,7.3-4,8.3
		c-0.6,1-6.5,7-6.5,7s-8.6,5.3-9.2,5.5l-14.1,3.6l-27.4,2.1l-6.1-4.6l-53.7-0.9l-45.9-12.4l-3.4,6.8l44.5,11.1l38.2,3.3l32.4,2
		l1.3,1.3c0,0,45.3,3.3,59.1-25.8c3.1-11.9,4.8-24.1,5.2-36.3c1.7-9.2,4.8-18.1,9.2-26.4c0,0,4-13.2-4-25.3l-7.4-9.5l-27.1-23.5
		c0,0-17-11.4-34.5-11l-24.3-2.7l-13.9-3.4l-22.2-15.1l-2.4-5.5l2.1-39.1c0,0-6.7-0.8-7.1-1.3c-0.4-0.6-5.8-12.4-5.8-12.4
		s-11,2.2-11.7,2.2s-37,1.5-37,1.5l2.7,6.7l48.1,35.1l-45.2-29.9L307.7,249.6z M439.4,280.3l3-5.5c0,0,19.1,8,20.3,8.3
		c1.2,0.3,17,16.5,17,16.5l-1.3,4L454.2,330l6.1,5.2l12.6-13.9c0.5,2.2,1.2,5.6,1.1,5.9c0,1.5,0.1,3,0.3,4.5l-4.9,6.1l-6.8,6.2
		l-6.8,8.6c-4-3.6-7.4,1.8-7.4,1.8l-6.7-2.3l14.5-16.1l-18.7-17.5l3.4-3.4l-6.4-6l16.1-17.5L439.4,280.3z"/>
	<path class="st2" d="M340.1,344.4l7.4,1.9l-5.9-6.4l-3.4-1c0,0-15.5-6.7-17-6.5l-11.2-8.2v5.8l12.6,8.6L340.1,344.4z"/>
	<path class="st2" d="M608.8,582.3c0,0-46.9,15.6-47.8,70.5l88.7-0.2l-17.1-17.8l-7.6-26.2l32.7-53.1l-19.6-2L608.8,582.3z"/>
</g>
<g id="Buildings">
	<path class="st3" d="M550.6,873.4c0,0-40.2-13.5-53.3-28c9.5,15.5,22,28.9,36.7,39.6c0,0,39.1,31.6,91.8,46l2-4.2L647,933l-1.3,4.7
		l29.5,8.2l1.6-6l9.3,2.9l-1.3,4.2l10.2,2.9l-1.1,3.3l77.5,20l1.8-6.4l9.3,2.2l7.8-30.2l-153.8-42L550.6,873.4z"/>
	<polygon class="st3" points="809.2,942.3 798.1,981.9 802.1,983.2 799,995.9 1057.7,1066.1 1061.4,1052.3 1065.4,1053.4 
		1075.4,1014.6 935.9,977.4 	"/>
	<path class="st3" d="M1129.7,1039.2l-38.4-11.3l-8,28l39.1,11.2l0.7-1.9l9.6,2.4l6.2-22.8l-3.4,17.6l9.6,2.5l-1.2,5.5l10.4,1.8
		l4.4-24.7c0,0-27.5-6.9-28.2-6.9S1129.7,1039.2,1129.7,1039.2z"/>
	<polygon class="st3" points="1166.2,1046.9 1163.1,1068.8 1172.8,1070.2 1175.5,1048.1 	"/>
	<polygon class="st3" points="1174.4,1070.4 1184.7,1071.3 1186,1049.4 1176.4,1048.4 	"/>
	<polygon class="st3" points="1186.1,1070.9 1196.3,1071.1 1196.9,1049.9 1187.1,1049.6 	"/>
	<polygon class="st3" points="1197.7,1071.3 1207.4,1071.7 1207.6,1050 1197.8,1049.8 	"/>
	<polygon class="st3" points="1229.9,1048.4 1232.2,1069.7 1242.4,1069 1239.7,1047.3 	"/>
	<polygon class="st3" points="1240.8,1047 1244.1,1068.4 1253.8,1066.9 1249.8,1045.6 	"/>
	<polygon class="st3" points="1251.1,1045.3 1255.9,1066.2 1265.4,1064.2 1260.4,1043.7 	"/>
	<polygon class="st3" points="1261.6,1043.3 1266.7,1064.1 1276.2,1061.8 1270.7,1041 	"/>
	<polygon class="st3" points="1272,1040.1 1277.7,1061 1287.1,1058.4 1280.7,1038 	"/>
	<polygon class="st3" points="1282,1037.6 1288.9,1057.9 1298,1054.4 1291.2,1034.7 	"/>
	<polygon class="st3" points="1292,1034.2 1299.9,1054.9 1308.8,1050.1 1300.4,1030.6 	"/>
	<polygon class="st3" points="1301.9,1030.2 1310.4,1049.8 1319.4,1045.9 1310.9,1026.2 	"/>
	<polygon class="st3" points="1311.9,1025.6 1321.3,1045.2 1329.3,1040.8 1320.2,1021.7 	"/>
	<polygon class="st3" points="1325.3,1019 1335.7,1037.8 1344.4,1032.9 1333.7,1014 	"/>
	<polygon class="st3" points="1334.6,1013.4 1345.9,1032.3 1354.4,1027.2 1342.4,1008.6 	"/>
	<polygon class="st3" points="1343.7,1008.1 1355.7,1026.3 1363.7,1020.8 1351.4,1002.8 	"/>
	<polygon class="st3" points="1357.9,997.6 1371.4,1014.8 1379.6,1009 1365.9,992.1 	"/>
	<path class="st3" d="M1366.8,991.4l13.8,16.2l7.8-6.8l-14.4-15.8C1373.9,985.1,1367.2,991.3,1366.8,991.4z"/>
	<polygon class="st3" points="1374.9,984.1 1389.9,1000.3 1397.2,993.6 1381.6,977.3 	"/>
	<polygon class="st3" points="1382,976.7 1398.7,992.9 1405.4,985.9 1389,970 	"/>
	<polygon class="st3" points="1389.9,969.3 1406.9,984.1 1413,976.8 1396.2,962.2 	"/>
	<polygon class="st3" points="1575.9,761.2 1576.6,811.4 1574.7,811.6 1577.9,875.2 1574.8,875.4 1572.9,921 1582.1,921.9 
		1583.1,916.4 1589.1,895.8 1591.3,896.1 1596.9,869.3 1597.3,852.2 1598,814.1 1597.4,759.4 	"/>
	<path class="st3" d="M1519.4,787.1l3.9,0.2l-2.6,18.8l-3,7.2l-5.6,6c-4.1,4.6-9.2,8-15,10l0.9,4.5c0,0,7.3-2.2,7.7-2.7
		s9.3-6.2,9.3-6.2l7.2-8.7l3.4-7.8l2.6-22.3l-0.3-7l0.4-9.8l2.7-73.4l-1.9-0.6L1519.4,787.1z"/>
	<polygon class="st3" points="1517.3,783.4 1527.7,693.6 1518.3,692.7 1510.9,764.8 1512.9,783.1 	"/>
	<polygon class="st3" points="1462.8,730.3 1455.8,709 1449,689.6 1444.4,679.2 1426.2,688.4 1436.6,714.2 1443.1,736.3 
		1447.4,756.7 1449.9,785.9 1470.2,784.7 1466.9,755.7 	"/>
	<polygon class="st3" points="1425.9,645.4 1408.1,656.7 1423.4,683.1 1441.7,673.6 	"/>
	<path class="st3" d="M1296.7,553.9l37.6,18.1l32.4,23c0,0,40.4,41.6,41,42.2s3.7,5.7,3.7,5.7l6.5-4.9l-8-10l-18.2-20.9l-18.2-16.4
		l-16.2-12.9l-23-14.2l-20-10.5l-21.9-9.2l-36.2-10.1l-29-3.8l-54.2-4.5l-33-1.8l-0.3,8.6l73.8,4.3l45.6,6.1L1296.7,553.9z"/>
	<polygon class="st3" points="1452.3,574.5 1440.3,559.8 1435.2,563.8 1447.2,578.3 	"/>
	<polygon class="st3" points="1305.9,430.8 1359.2,477 1363.2,472.1 1309.2,426.3 	"/>
	<path class="st3" d="M1266.6,406.8c0,0-2.5-10-3.1-10s-9.6,3.3-9.6,3.3l4.7,8.9L1266.6,406.8z"/>
	<polygon class="st3" points="1312.1,415.9 1302.8,408.1 1300.1,411.9 1309.2,419.7 	"/>
	<rect x="1522.6" y="323" class="st3" width="6" height="19.3"/>
	<rect x="1505.2" y="271" class="st3" width="4.2" height="8.4"/>
	<rect x="1523.9" y="400.1" class="st3" width="7.8" height="13.8"/>
	<rect x="1579" y="284.6" class="st3" width="9.8" height="42"/>
	<polygon class="st3" points="1580.3,375.9 1580.3,409.2 1581,409.2 1581,436.1 1584.8,436.1 1584.8,486.1 1595.2,486.1 
		1595.2,436.1 1593.2,436.1 1593.2,406.8 1589.2,406.8 1589.2,375.9 	"/>
	<rect x="1601" y="486.8" class="st3" width="6.9" height="18.2"/>
	<rect x="1609" y="765.9" class="st3" width="7.6" height="20.9"/>
	<rect x="1609.4" y="790.3" class="st3" width="7.3" height="26"/>
	<polygon class="st3" points="722.1,976.6 743,982.6 744.1,976.3 723.7,970.3 	"/>
	<path class="st3" d="M844.6,841.9l4.3,6.2l-1,7.4l32.2,8.2l5.6-24.6l-6.5-1.3l5.6-21.3l8.2,0.6l-8.7-9.9l0.5-4
		c-27.4-25.9-47.7,2.8-47.7,2.8C825.3,825.7,844.6,841.9,844.6,841.9z"/>
	<polygon class="st3" points="951.7,798.8 891.8,784.1 890.6,789.2 950.9,803.8 	"/>
	<polygon class="st3" points="977,805.4 957.6,801 955.4,806.8 975.8,811.5 	"/>
	<polygon class="st3" points="1029.9,812.8 991.1,803.5 988.6,813.2 1027.8,822.9 	"/>
	<polygon class="st3" points="1049.9,803.7 1042.3,801.4 1039.2,816 1047.2,817.6 	"/>
	<path class="st3" d="M1121.6,840.8c0,0-25-5.9-25.5-5.9l-2.7,11.3l25.6,5.8L1121.6,840.8z"/>
	<polygon class="st3" points="1134.3,869.3 1148,891.5 1159.4,884.8 1145.9,862.3 	"/>
	<polygon class="st3" points="1142.2,884.4 1136.1,888.1 1140.3,895.4 1146.8,891.4 	"/>
	<polygon class="st3" points="1114,909.7 1117,910.8 1118,905.9 888.4,850.3 885.9,861 1113,916.6 1114.5,914.8 1114.9,912.1 
		1113,911.4 1113.9,906.5 	"/>
	<circle class="st3" cx="785.7" cy="815.8" r="3.8"/>
	<ellipse class="st3" cx="678.8" cy="781.1" rx="4.2" ry="3.9"/>
	<rect x="711.7" y="756.7" class="st3" width="13.2" height="5.3"/>
	<polygon class="st3" points="551.2,623.4 547.4,621.7 544.3,629.6 548.6,631.4 	"/>
	<polygon class="st3" points="558,609.9 552.8,607.8 547.5,618.3 552.3,621.2 	"/>
	<path class="st3" d="M566.3,598.2l-5.3-3.6c0,0-7.8,9.6-8.3,9.6l5.9,4L566.3,598.2z"/>
	<polygon class="st3" points="577.3,588.1 571.8,582 562.6,590.6 568,596.6 	"/>
	<polygon class="st3" points="788.6,585.2 743.4,582.3 742.6,594.1 787.9,597.2 	"/>
	<polygon class="st3" points="731.2,594.6 731.4,584 722.9,584.1 723.5,594.8 	"/>
	<path class="st3" d="M833.2,581.3l-33.3-1.8c0,0,0,11.1-0.4,11.1s33.3,1.9,33.3,1.9L833.2,581.3z"/>
</g>
</svg>
