<?xml version="1.0" encoding="utf-8"?>
<!-- Generator: Adobe Illustrator 24.0.1, SVG Export Plug-In . SVG Version: 6.00 Build 0)  -->
<svg version="1.1" id="Background_Details" xmlns="http://www.w3.org/2000/svg" xmlns:xlink="http://www.w3.org/1999/xlink" x="0px"
	 y="0px" viewBox="0 0 1920 1080" style="enable-background:new 0 0 1920 1080;" xml:space="preserve">
<style type="text/css">
	.st0{fill:#636466;}
	.st1{fill:#C7C8CA;}
</style>
<title>background</title>
<g id="Pavement">
	<path class="st0" d="M742.2,789.4l-2.4,3.3l54.2,42.2l6.4,3.5l2.4-1.5c0,0-4.7-17-7.1-19.1L742.2,789.4z"/>
	<path class="st0" d="M1038.3,949.6c0,0-10.1,35.3-13.6,40.6l-0.4,1.2h40.3l4.4-1.2l4.3-2.7l7.1-5.9l0.9-2.4l5.8-8.3l0.7-3.7h-13.3
		L1038.3,949.6z"/>
	<path class="st0" d="M1320.1,597.2l-0.2-6.2l1.6-5.9l0.2-5.6l-2.2-6.4l-27.4-53.2l-6.8-8.3l-5.9,4.2c0,0,3.8,5.2,4,4.7
		s2.1-1.6,2.1-1.6l30.8,55.1c0,0,3.6,10.2-0.4,16.6c-1.4,4-1.3,8.3,0.2,12.3l-2.1,7l3.1,4l11.1-11l-6.4-0.6L1320.1,597.2z"/>
	<polygon class="st0" points="1321.4,575.4 1323.1,580.4 1322.2,588.1 1320.7,592.8 1321.4,596.7 1321.7,598.3 1323.4,600.1 
		1354,572 1377.9,553.7 1417.9,510.3 1419.7,498 1364.1,526.6 1294.3,521 	"/>
	<path class="st0" d="M1298.8,477.4l-2.7-33.8l-1.3-11.6l-6-30l-8.2-27.1l-13.3-9.1l-61.8-0.9l29.1,22l56.5,101.6
		C1291.1,488.6,1299.4,483.7,1298.8,477.4z"/>
	<polygon class="st0" points="931.7,440.6 934.8,444.5 932.6,457 939.7,463.4 949.7,407.2 941.7,405.4 935.7,439 918.6,432.3 
		918.8,437.7 	"/>
	<polygon class="st0" points="910.3,644.6 913.2,635.7 904.8,632.8 902.1,641.4 	"/>
	<path class="st0" d="M1672.3,724.8l24.4,5.8l1.1-11.3l-36-8.7l-1.1-3.1l32.4-17.1l-24.7-0.9l-12.7,7.6l4-125.3l9.3-8.2l1.8-11.5
		l-8-12.2l-0.2-6.5c3.1-42.7-16.2-72.2-16.2-72.2l-4.7-8l-0.6,0.3l-57.1-100.7h0.2l-26.1-48c-14.2-24.3-44.4-26.1-44.4-26.1h-14.5
		l-21.4-1.2l-32.6-0.6l2.1-7.1l24.6-3l-0.6-6.8l36.7-17.2l-0.3-4.1l-24.9-59.9l-2.1-2.1l10.4-3l-1.4-1l-6.5-7.6l-8.9,3l-5,4.1
		l-24.3,10.1l6.2-19.3l-4.7-13l2.4-3l-8-18.1l-11,4.4l-1.8-3l-11.8,5l-5.3-3.6l-8-1.2l-9.5,5.3l-3.8,8.9l-0.9,52.7l-2.1,0.3l0.9-61
		l2.4-9.2l5.3-4.1h8.9l52.2,4.4l1.8,4.1l-2.1,10.4l-5.3,14.8l3.3,2.1c0.9-1.3,2-2.4,3.3-3.3c2.1-1.5,8.3-1.8,8.3-1.8l5.6,0.6l8,5.3
		l2.1-2.1l-1.2-4.2l-8.3-4.7l3.3-7.7c-0.9-7.1-6.8-0.9-6.8-0.9l-1.8,7.4l-2.4-1.2l0.6-9.5l3.3-6.5l3.3-1.8l7.1,0.6l60.2-0.9
		l53.9-4.7l40.3-7.1l63.7-15.7l0.3-10.1l-72.9,18.7l-2.1-3.9l75-18.4l-0.9-9.8l-85,20.4l-53.6,8.3c0,0-48,2.4-48.9,2.4
		s-33.5-1.8-33.5-1.8l-96.6-9.5l-176.6-14.8l-24.3-3.6l-3.9-9.5l-10.4-1.8l-8,0.9c0,0-10.7,5.9-12.1,5.6s-4.4,5-4.4,5l-0.6,3.8
		l-118.5-8.9l-166-12.7l-12,92l-6.2,0.4l-2.2,24.4v15.6l-1.1,2.7c0.3,0,0.5,0,0.8,0l41.8,36.2l17.5,11.5l14.8,5.9l6.2,2.4l-0.9,9.2
		l-2.1,2.1l-7.4-0.9l-14.8-3.6l-59-55.5l-0.3,0.6l-30.7-26.2l-26.7-22.7l-24-12.9l-22.4-14.8l-1.2-1.8c0,0-14.3-12.6-18.9-20.9
		l-1.4-1.4L697.4,89l-6.7-14l-10.9-10.2L665,59.7l-67.1-4.5h-21.1l-28.5,5.6l-22,10.7l-33.1,27.3l-59.8,48.4l-46.7,40.7l-26.7,25.8
		l-17.5,21.8l-8.5,13.3l-6,11.5l-7.5,10.7l-21.8,24.9l-12.2,14.4l-14.7,12.2l-28.5,15.8L183,378.1l-21.6,16.7
		c-13.8,11.1-6.2,33.3-6.2,33.3l10.3,14l-0.7,0.4l26.7,39.3l0.1,0l5.5,7.8l28,30.7l12.4,6.2l41.8,17.3l1.4,0.1l24.4,13.6l40.9,26.1
		l90.7,57.8l82.1,51.9l10.4,6.5l6.5,14.5l19,46.5l1,1l-0.1,0.2l0.9,0.6l0.9,0.9l0.8,0.3l1.6,1.1l0.4-0.4l7.9,2.6l7.1,0.6l6.5-0.9
		l24-3.3l18.7-2.4l8.3,4.7l-0.3,6.2l16.9,9.5l6.8-0.6l59,40.3l8.6,7.4l10.4,23.4l7.7,21.6l3.6,17.2h-4.4l5,25.5l7.7,30.2l8,18.4
		l13.9,21l19.1,21.2l-3.5,0.8c0,0,8.9,18.9,9.8,38.4c0.7,6.2,3.4,12,7.8,16.4v7.3l5.6,1.3l7.8,3.6l18,9.8l18.9,8.9
		c0,0,22.2,8.9,38.9,4c0,0,33.1-11.6,51.1-23.6l4.7-0.4l0.2,3.8l2.2,2.7l4.7,4.7l6.5,0.9l8.7-8l0.9-5.1l-0.4-2.4
		c0,0-7.6-6.7-7.6-7.3c-0.3-1.1-0.8-2.1-1.3-3.1l0.9-2.9l15.8-12l29.5-18.2l40.9-21.8l48.2-25.6l32.7-17.3c0,0,15.1-10,38.4-10.7
		l58.7,2.5l73.8,3.5l1.3,1.6l16.4-0.7l24.4,2l7.1,0.2l8.9,4.9c0,0,11.8,12.7,36.9,20c0,0,24,9.3,25.3,9.1s19.1,4.7,20,4.7
		s18.4,3.1,20,3.6s24,2.7,24,2.7l19.8,1.3h14.2l6.4-2.2l8.9-3.8l18.8-13.7l1.6,2.8l5.4-4.2l0.1,0.2l52.4-41.1l18.7-18.9l8.2-13.8
		l-12.7-4.9l-0.4-24.7l2.2-86.2l1.6-8.2l2.4-11.3l12.2-37.6l3.6-10.7l11.5,21.7c-1.8,2.5-2.9,5.6-2.9,8.9c0,8.3,6.5,15,14.5,15
		s14.5-6.7,14.5-15s-6.5-15-14.5-15c-0.6,0-1.3,0.1-1.9,0.1l-7.9-16.3C1664.6,723.9,1672.3,724.8,1672.3,724.8z M1612.4,412.5
		l0.4,4.2l-3.4,3.3c-2.2-3-4-5.5-4.3-5.6c-0.9-0.3-5.6,3.8-5.6,3.8l-16-19.3l3-4.7l-4.1-4.8l7.9-6.8l5.3-0.4L1612.4,412.5z
		 M1578.7,352l12.2,21.9l-0.9,2.9l-11.3,8.5l-3.5-5.4l-5.6,4.1l-16.9-19.5l24-15.7L1578.7,352z M1545.4,329.1l2.5,4.2l1.9,3.5
		l-12.4,9.8l-4.6-5L1545.4,329.1z M1531.5,340.1l-5.7-6.3l9.3-16.1l7.4,6.5l1.8,3L1531.5,340.1z M1550.7,338.4l8.3,15.5l-9.2,6.3
		l-10.9-12.1L1550.7,338.4z M1549.8,301.4l3.3,3.6l5.8,10.7l13.1,24.7v3.3l-3.1,3.5l-8.3,5.7l-7.8-15.1l-7-11.5l-5.6-8l-3.5-3.3
		l9.5-16.6L1549.8,301.4z M1500.5,283.9c0,0,11.6-0.2,12.9,0c1.3,0.2,14.9,1.5,14.9,1.5l11.1,5.1l3.6,3.8l-20.4,37.1l-7.3-7.8
		l-12.4-26l-3.8-9.3L1500.5,283.9z M1488.7,283l5.6,6.4l14.2,34.5l-10-4.5l-34.7-17.8l-30.2-19.6L1488.7,283z M1419,205.3l16.6,36.4
		l-6.2,3.3l-16-37.3L1419,205.3z M1305.7,117.3l67,5.9l1.8,0.6l-1.1,36.7c0,0-1.5,3-3.8,3s-27-3.8-27-3.8s-9.2,2.4-8,1.8
		c1.2-0.6,5.9-24.3,5.9-24.3l5-14.5l-5-0.3l-3,5.9h-5.5l-3.6-1.2l-5.3,22.2l-14.2-2.4l-15.4,78.2l24.9,5l4.7-23.7l5.3-0.6l3.6,3.9
		l2-36.7l0.6-5.6l6.5-3.3l23.7,2.4h7.2l-0.9,21.9l-6.2,1.2l-1.5-0.3l-0.6-7.1l-27-0.3l-0.9,29.6l20.4-0.9l-0.3,13h1.6l1.1-0.5
		l0.8-11.6l3.8,0.3l0.6-18.7l4.4,0.6l3.8,2.1l-0.6,13.6l-2.1,5.9l-3.8,4.4l-7.1,3.3v0.5h-1l-23.8,11.3l-43.3-7.7l-4.7-5
		L1305.7,117.3z M1370.2,232.2l-1.8,37.7l-4.2,4.1l-7.1,1.5l-29.9-1.8l-4.7-3l3.8-21.3l35.6-19.3c0,0,3.3-0.3,4.2-0.3
		S1370.2,232.2,1370.2,232.2z M1283.3,233.7l2.1-0.6h6.2l33.5,5.9l-3.8,7.4l-2.7,9.5l-0.6,8l-36.4-1.2l-6.2,4.1L1283.3,233.7z
		 M1317.1,269.2l-2.7,2.1l-3.3,2.7l-30.8-3l-1.5-2.7l3-2.4l33.5,1.2L1317.1,269.2z M1168.6,289c0-14.7,23-14.7,23-14.7l11.7,0.2
		l11.3,1.5l10.4,0.9l34.9,1.6l3.6,2.7l2.4,3.1l-0.7,11.8l1.8,0.9h15.8l-3.1-9.1c0,0-6.4-0.9-7.1-0.9s-1.8-6.4-1.8-6.4l3.1-2
		l77.3,2.4l-78.7,45.1l-6.6,1.9l-12.5-0.2l0.3-37.3l-5.3,0.2l0.1,15.2l-1.8,4.8l-4.4,2.3l-70,1.1v5.7l64.4,1.4c0,0,5.7,2.3,5.9,7
		l-71.6-1.1l-3.8-0.9L1168.6,289z M1162.6,456.1l9-11.7l17.2-5.2l-0.3,74.5l1.2,20.5l-16.8,4.1l-3.8,0.6l-2.5-0.7
		c-1.2-1.6-2.9-2.8-4.8-3.5L1162.6,456.1z M1272.7,635.7l-2.4,9.4l-6.8,5.4l-66.8-72l20.9-19.5c0,0,1.6,0.1,2.6,0.1l10.8,11.7
		l-18.4,19.5L1272.7,635.7z M1232.5,564.4l13.4-13.2l8.5,6.2l-3.3,9.2l-4.3-5.1l-1.8-0.5l-8.1,8.8L1232.5,564.4z M1307.6,720.6
		l-55.1,50.2l-18.8-6.9l61.4-58l-1.3-3.3l-63.2,60.2l-11.5-4.2l55.6-51.7l-0.7-3.3l-58.7,53.7l-1.5-0.6l-4.2,1.3l-3.8-6l0.3-8
		l20.9-18.4l27.7-31.3l4.9-26.2l-6.5-7.7l-25.8,16.2l-22.5,21.5l-42.7,38.7l-4.7,0.6l-10.2-4.5l-6.8-6.7l1.5-3.1l7.4-3.7l56.9-41.2
		l34.1-17l-25.1-36.4l-16.7,2.2l-2.4-0.7l-4.9-0.6l-1.2-0.6l0,0.1l-19.1-23.3l18.2-15.9l117.8,125.6c-0.5,1.2-0.8,2.5-0.8,3.8
		C1305.9,717.1,1306.5,719,1307.6,720.6z M1404.7,605.8l6.8-7.7l2.1,8.5l1.2,1.9l-0.9,1.9l-3,3.7l-13.5,12.1l-9.2-8.9l9.2-6.2
		c0.8,1,2,1.6,3.4,1.6c2.5,0,4.5-2.1,4.5-4.6C1405.5,607.4,1405.2,606.5,1404.7,605.8z M1403.3,604.4c-0.7-0.4-1.5-0.7-2.4-0.7
		c-2.5,0-4.5,2.1-4.5,4.6c0,0,0,0,0,0l-10.3,6.5l-11.3-11.6l17.9-16l10.2,9.3l7.9-1.2l0.1,0.3L1403.3,604.4z M1378.7,614.2
		l10.4,10.7l-0.8,0.8l-9.2-10.3l-20,17.9l9.6,10.6l1.6-1.6l4.8,4.8c-2.6,4-6,3-6,3l-3.3-3.8l-8-12.9L1378.7,614.2z M1416,620.8
		c0,0,11.1-7.5,14.8,0.5l-0.4,27.7c0,0-0.4,5.5-8.6,3.7l-0.3-11.8l-26.4,0.5l-0.1,7.4l-6.8,0.2l-1.8,3.3l-3.3,0.6v7.9l-8.7,0.6
		l-0.4,3.3h-1.9l-0.6,31.3l-8.1,0.3l-1.2-0.9l0.1-24.6l0.3,0.3L1416,620.8z M1414.3,867.4l16.9,6.6l-13.1,3.9l-6.9-2.7l-16.7-1.3
		L1414.3,867.4z M1378.6,872.6l-45.6-3.5l0.8-7.8l1.6-0.7l11.3,0.2l32.4,4.2l9.6-1.3l8.7-2.9l1.8,0.7l5.9,2.3v1.9L1378.6,872.6z
		 M1364,703.2l7.7,0.5l0.2,4.9l49.3,0.9l1-52.1c0,0,7.8-1.6,8.6,4.1l-0.4,45.3c0.2,2.8-1.6,5.3-4.3,5.9l-62.3-0.4l-1.7-1.4v-4.6
		C1362,702.7,1364,703.2,1364,703.2z M1385,856.2c-4.2,1.7-10,0.6-10,0.6l-27.1-3.6l-69.3-2.9l-68,2c-29,1.3-38.3,5.9-40.4,7.2
		l-45.4,11.2l-20,4.2c0,0-8.4,2.4-9.8-4.9c-1.1-6,4.1-24.2,6-30.3l0.1,0.2l49.6-45.8l5.5-2.2l19.7-18.7l5.6,6.4l0,0l5.6,4
		l168.7,61.6l0,0.3L1385,856.2z M1241.7,860.6l-4-2.9l13.3-0.5c2.4,2.7,10.2,4.2,10.2,4.2h13.3c8.4,0.5,15.8-4.4,15.8-4.4l10.5,1.1
		l2.4,3.8h26.7l-1,7l-72.9-3.1l-6.5-2.8L1241.7,860.6z M1245.7,865l-0.1,0.3l-7.4-0.3l-34-0.2l-24.9-1.3l-0.6-0.3
		c9.2-5.1,53.5-5.7,53.5-5.7l5.8,4.9L1245.7,865z M1356.3,808.8l-46.3-17l40.2-37.5h-3.5l-39.9,36.3l-26.9-9.9l67-61.2l8.8,0.2
		l0.7,88.8L1356.3,808.8z M1276.9,779.7l-20.3-7.4l54-48.9c1.4,0.9,3.1,1.4,4.9,1.4c3.9,0,7.3-2.4,8.7-5.8l0.3,0.1l17.8,0.4
		L1276.9,779.7z M1094.2,708.1l-0.8,2.2l1.4,0.9l-0.4,1.1l-4.4-1.3l-1.8-2.6l-5.7-24.2l-1.1-4.9l83.1-72.5l21.2,21.8v4.2l0,0.1
		l-86.3,81.5l-3.3-0.9l0.5-1.9l2.1,0.8l0.7-2.3L1094.2,708.1z M1214.4,554.3l-22.3,19.2l-24.3-26.2c0.4-1.1,0.7-2.2,0.7-3.4
		c0-0.2,0-0.5,0-0.7l31.8-6.1l14.2,15.5L1214.4,554.3z M1158.8,553.7l25.2,26.9l-18,15.5l-3.6-4.4l-1.3-4.6l0.2-29.9l-5.9-0.3
		c0.1,0.3-1,27.7-1,27.7l-6.3,5.4l11.4,11.7l-79.9,69l-1.2-5.3l-4.3-16.5c-1.3-7.6-1.6-15.3-0.9-23l2.3-39.6l3.4-20.5l4.9-13.1
		l6.8,0.1l6.2-11.7l19,10.2l2.4-0.3c0,0,5.2,4.2,25.3-1l6-1.2c1.8,2.9,5,4.9,8.8,4.9C1158.5,553.7,1158.7,553.7,1158.8,553.7z
		 M1026.6,516.5l2.1-39.1c0,0,1.2-5.2,4.9-0.1l0.7,2.5l1,30.1c0,0,0.4,10.4,6.5,12.4c0,0,7,0.7,6.7,7.3l-4.8,77c0,0-0.3,6.3-5,5.1
		l-4-2.2l-12.9-21.9L1026.6,516.5z M1018.6,568.9c0,0,0,6.2-4.1,3.4l-10.8-19.8l2.4-21.2l0.7-16.3l3.4-28.2l0.7-11.4
		c0.6-0.9,1.6-1.4,2.7-1.3l7.7-0.1c2,0.1,3.6,1.6,3.7,3.5L1018.6,568.9z M1046.3,615.8l0.6-7l6.2-77.8c-0.4-5.5,5.9-4,5.9-4
		l23.1,4.9c5.3,2,2.5,8.1,2.5,8.1l-6.2,15l-4,13.9l-3.8,26.1l-2.4,32.6l-0.3,8.3c-1.8,5.2-8.7,1.8-8.7,1.8l-10.2-12.5
		C1046.9,622.5,1045.9,619.2,1046.3,615.8z M1080.4,695.9v3.1l-1.3,1.1h-3.2l-5.2-15.7l-2.5-13.4l5-3.2l1.7,1.9L1080.4,695.9z
		 M1102.1,485.8l0.4-4.5l12.7,2.1l-4,24l15.8,2.9l9.7-37.9l3.2,0.3l2.9-9.7l5-7.5l7.1-1.9l-1.7,81.9c-3,1.7-5,4.8-5,8.4
		c0,0.2,0,0.3,0,0.5l-17.4,3.8c0,0-8,1-13-1.7l-17.3-9.9l2.7-3l8.6,0.9l2.3-14.9l-8.2-1.6l-7.8,0.1l-0.1-2.1l4.2,0.5l3.6-29.8
		L1102.1,485.8z M1105.6,463.3l1.9-11.8l3.1-7.6l6.2-12.1l2-0.5c0,0,2.8,0.5,3.1,0.5c1,0.6,1.9,1.3,2.8,2l1.9,3.2l2.8,17.3
		c0,0-1.3,2.6-1.8,2.7l-3.4,0.9l-5.1-0.7l-1.2,7.8l-6-1.2L1105.6,463.3z M922.7,256.8c0,0,6.8,1.2,7.7,1.2s30.2,2.1,30.2,2.1
		l124.7,1.2l41.5,1.2l-17.2,5.9l-12.4,1.5l-98.1,0.3l-70.8-2.7l-6.5-3.8L922.7,256.8z M962.3,278.8l10.6,0l0.3,2.4
		c0,0,8,4.2,6.5,15.4l176.7,3.2l-1.5,26.1l-5.2-0.1l-16.9-3l-8.8-1.3l-66-0.8h-34.3l-2.2-1.6l-1.1-3l0.1-4l-20.8-0.2l-0.5-5.7
		l-36.1-0.7c0,0,0.1,2.4-1.6,3.8l-0.2-3.9l-15-0.9c-4.6-0.7-8.7-2.9-11.8-6.4l-21.9-22.5l-2.1,0.2l-1.6-2.4L962.3,278.8z
		 M764.6,161.4l10.7,8.5l14.2,11.5l80.5,74.2c11.1,8,25.8,14.7,25.8,14.7l6.1,6.4l-0.8,0.1c0,0-25.6,1.3-39-6.7
		c0,0-17.9-8.6-33-28.9l-1.6-14.2l-53-52.6l-5.6,5.9l-31.1-33.8L764.6,161.4z M416.3,170.3l81.3-69.1l32.9-24l21.3-10.9l20-4.7
		l29.3-0.9c0,0,64.2,4.9,65.6,5.1c1.3,0.2,12,4.9,12,4.9l7.5,8.2l6.5,14.7l-9.3-11.8c-5.3-5.6-12-9.7-19.4-11.7
		c0,0-30.4-7.7-55.8-6.1c0,0-36.9-1.3-67.3,27.1L479.1,142l-72.4,59.3l-9.9-12.5L416.3,170.3z M644.8,80.1
		c-1.5-0.4-10.7-2.7-23.6-3.4l6-6.7c5,0.5,9.9,1.1,14.8,1.9C642.8,74,643.9,77.5,644.8,80.1z M563.5,82.3c7.6-4.8,25.9-13.5,57-12.8
		l-5.2,7C602,76.4,586,78.2,571,85.3L563.5,82.3z M566.1,87.8l-26.6,15.4l-3.3-0.6l22.5-17L566.1,87.8z M366.6,217.2l7-6.6
		c0.4,3.3,1.4,13.7,0.3,17.1c0,0-0.7,4.4-5.9,4.3l0,0.1l-13-1.1L366.6,217.2z M266.6,332.1l13.8-8.9l14.2-14l26.2-27.8
		c0,0,8.4-9.6,8.7-10.2c0.2-0.7,6.2-10.2,6.2-10.2l11.1-18.4l4.5-6.4l17.9,1.7l0.6,3.1l-2.3,1.9l-3.4-4.1l-19.5,15.3l3.4,4.8
		l-38.7,36.5l-5.5,6.9l-3.8,5.1l-10.7,15.1l-11.5,11.8c0,0-19.3,9.3-20,9.6c-0.1,0-0.7,0.4-1.4,0.8c-1.7,0.3-3.9,0.5-4.4,0.5
		c-0.9,0-3.6-2-3.6-2L266.6,332.1z M357,268.7l-33.1,32l-31.6,30.7l-14.7,12.9l-4-3.3l8.4-6l7.1-6l4.7-7.1l9.8-14.2l10.7-11.8
		l35.8-34l0.3-0.3L357,268.7z M226.6,446.1l-3.8,9.3l-2.5,9.6l-0.2,5.6l1.6,2l-4.7-1.6l13.5-60.5l29.8-42.1l0.5,0.4l-18.7,31.5
		l-6,16l-3.3,8l-2.9,5.1l-3.6,3.3v6.7L226.6,446.1z M215.7,469.6l-3.4-4.4l10-56.7l35.1-42.5l1.7,1.4l-30.3,42.3L215.7,469.6z
		 M171.9,438.3l-1,0.6l-10.1-15.5l-1.8-7.1l1.3-8.7l4.7-6.7l12-10.9l52.7-35.8l14.8-1l-23,23l-13.3,19.3l-12-4.9l-3.3,4.2l8.4,3.3
		L181,433.2L171.9,438.3z M186.3,444.8l22-36l-4.7,32L186.3,444.8z M272.4,533.9l-33-12.2l-10.4-6.2l-27.8-29.1l-4.9-7.8l13.5-7.5
		l36.2,35.3l26.5,27.3L272.4,533.9z M414,621.9l-120.4-76.8l2,0.2l7.1,1.8l64,42l104.9,68l39.8,25.5L414,621.9z M923.7,1082.8
		l-24.2,10.2c0,0-12,3.8-22.9,0.4l-15.6-5.1l-24-11.3l-17.3-9.8l-12.5-14.2l-4.4-15.1c0,0-0.5-7.1,0.2-7.6s-2-11.3,16.2-14.7
		l2.7,26.7l28.4-2.4c0,0,30.9,30.9,59.1,24.9c0,0,7.5-0.9,20.5-6.7l8.8-0.4l4.4,2l6.2,8.4L923.7,1082.8z M1628.1,825.4l-0.2,17.3
		l-19.6-0.3l0.2,3.4l19.3,0.2l-0.4,6.1l-5,4.6l-5.3,0.3l-19.7,1l-0.4,13.9h5.1l-7.3,45.5l-1,5.6l-7.8,15l-8.3,10.7l-18.7,15.2
		l-4.5-5.4l0,0l-1.8-2.1l-4.9,1.2l-2.4-3.3l28.6-7v-2.5l0.2-16c0,0,3.4-18.8,3.6-19.5s0.6-8.5,0.6-8.5l0.6-19.8l-1.3-22.1l-2.7,3.7
		l0.3,13.6l-3.6-0.5l-11,16.2l-17.8,15.6l-36.6,15.7l-23.4,7.6l-55,10.1l-13.3-2.4l-59.6,4.6l-5.9,2.3l-9-2.4l-4.2,1.5l9.9,4.3
		l8.4,2.7l-0.2,1.5l65.2,9l55.8,7.7l11,0.9l13.2,0.5l11.6-1.5l29.2-6.2l4.3-1l0.8-0.3l1.1,0.7l0.2,2.4l3.8,3l0.8,3l4.8,11.3l0.3,0.5
		l-2.2,2.8l-14.9,6.7l-18.4,3.8l-17.1,0.5l-10-1.1l-0.2-13.5l-4.4-0.5l-1.6,8l-11.8-2l-1.3,2.5l-2.2,8l-26.2-2.7l-22.4-6.4
		l-25.1-9.6l-24-11.3l-11.8-7.6l-7.3-2.9l-36.7-3.1l-35.3-2l-80-3.3l-31.6-0.7c0,0-22.4,0.9-38.4,11.1l-70.9,37.8l-63.8,33.3
		l-30.2,21.8l-8.9-11.3c3.8-2.7,7.7-5.6,11.8-8.9l36.2-24l8.5-6.4l-22.2-2.7l-35.5,27.1c0,0-14.7,10.9-25.6,0l-6-11.8v-13.1l-2-1.1
		l-1.3-3.3l-75.6,8.4v-2.4l69.6-7.1l28.4-0.7l35.8-0.2l36.7,3.1l22.4,3.3l4.9-0.2l10.7-4.2l1.1-4l-18.9,0.2l-31.1-2l-58.4-2.7
		l-33.8-0.4H901l-15.1,1.5l-33.8,9.3l-7.5,2l-11.6-0.4l2.4-6.2l36.2-7l0.6-26.2c0,0-10.2,1.8-23.1-8.4l-21.8-19l-21.2-37
		c0,0-16.3-35.4-16.3-35.9s-21.9-17.7-21.9-17.7c-0.4-0.3-7.5-1.6-7.5-1.6l-6.1,8.6l7.5,24l13.8,69.5l5.3,23.8c0,0,0.2,4,11.7,20
		l14.7,17.5c0.8,0.5,1.7,0.9,2.7,1.2c1.7,0,3.3-0.1,5-0.3l8.3-1.6l8.5-0.3l0.2-0.4l2.5,1.1l-2,2.5l-28,6.7l-8.7-6.3l-8.3-13.7
		l-18.1-25.2l-10.4-21l-7.1-30.8l-2.1-22.2l-2.4-15.1l-7.4-25.2l-9.8-23.1l-5.9-7.4l-9.8-7.1L664.4,781l2.1-5.3l-2.7-1.8l-3.3,4.1
		h-2.1l-32-20.7l-37.9,4.7h-20.5l-4.8-1.7l17.3-26.4l-4.2-3.3l-18.4,27.6l-18.6-47.7l-6.5-13l-4.8-4.3l31.4,20.1
		c0,0,0.5-2.4,1.3-2.4l-84.5-54l-120-79.6l-36-24.7l-13.3-8l-6.2-2.7l-12.6-2.8c0.6,0,1,0,1.1-0.1c0.9-1.2,1.8-2.3,2.9-3.3
		l-10.9-6.7l2-2.7l14,9.6l3.1-0.5l5.8-1.3l-22-14.9l5.8-9.1L276.6,495l-16.7-42l12.7-39.8l22.7-23.8l42-21.1
		c9.6-2.2,47.6-19.5,47.6-19.5l5.3-1.3l7.8-4.4l-8.5,0.9l-0.9-2.9c0,0-22,1.3-23.1,1.3s-9.1,1.3-9.8,1.6c-0.7,0.2-30.9,5.5-30.9,5.5
		l-4.9-3.8l51.8-51.1l5.3-11.8l-1.8-2.5l-19.8,17.6L335,314.8l-38.9,26.4l10.5-9.1l30.7-22.4l31.9-27.7l122.5-110l17-15.7l2.7,3.1
		l27.8-24.1l2.5,3.8l35.6-17l34.7-3.8l36.2,8.9l51.4,40.3l25.4,17.8l9.8-8.7l60.7,67.1l31,30.1l-2.7,2.7l5.9,6.1l2.8-5.8l20.3,17.6
		l16.3,12.7l-6.5,6.5l26.2,23.4l30.8,16.4l7.1-16.6l-23-8.4l-44.6-34.1l-8.7-9.6l4.5-1.8l0.3-3.7l-21.3-15.8l-86.5-88.2l-55.1-65.8
		c0,0-25.2-24-43-28.6l-3.1-8.2c6.4,1.1,12.8,2.5,19.2,4.1c8.4,3.4,15.6,9.3,20.6,16.9l34.2,42.1l40.6,43.9l55.1,56.9l23.8,24.6
		l7.8,7.3c0,0,15.8,12.1,29.6,13.5c0,0,21.8,2.4,28.7,1.3c0,0,13.8,2.4,8,20.7c0,0,28.4,4.3,45,10.1l0,0l2.5,0.9
		c0.2,0.1,0.3,0.1,0.5,0.2l0,0l1.1,0.4l3.7,4.7l-0.3,4.6l33.1,2l52.6-0.1l71.7-0.2l2.3,3.3l-2.6,4.2l-35.1,0.2l4.3,3.3l-0.2,1.7
		l-5.2,10.2l-1.8,0.9l-1.9,1l-1.2,0.6l-0.3,2.3l-3.8,0.6l66.1-8.8l4,0.3l1.8-5.3l4.3,4.4l1.2,6.1l1.1,12.4l-1.8,84.9l-5,0.6
		l-3.3-14.5l-1.7,0.7l-3-18l-6.3-3.9l-1.6-4.6l-9.7-10.3l-6.8,2l-0.3-1.5l-3.3,0.7l0.2,3.1l-1.9,1.1l-15.6-7l-14.7,0.1l-5.7,6.7
		c0,0-4.4,3.8-8.6,0.3l-3.1-3.5l-0.1-8l2.4-2.1l5.2-11.2l-3.2,0.2l-24.4,24.8l-0.6-5.5l-14.9-12.5l-4.7,2.5l-32,26.2l-12.2,0.9
		l-28.7-5.6l-2.9,19.6l1.8,1.5l18.9,6l5.1,5.3l8.2,6.7l14.9,9.3l18.4-20.3l44.7-45.5l-0.1,8.6l8.1,6.6l2.8,1.1l3.2-0.5l3.2-2
		l2.6-3.5l0.1,14l14.8-0.1l0.6-11.5l1.4-1.7l2.2-0.1l15.6,6.9l0.8,3.3l-2,0.5l0.1,1.8l-19.8,3.5l0.1,16.7l-9.3,4.1l-1.7,11.7
		l-2.2,0.1l-0.3,7l4.6,0.3l0.4-6.7l-1.8-0.2l2-11.1l15.6-7.2l2.3,2.5l-4.8,21.5l3.3,0.5l-1.7,7l-7.1-0.9l-6.4,55.7l3.7,0.5l-0.4,4.8
		l-0.9,2.3l0.2,0.2l-1.9,0.8l-28.2-6.6l-0.7-2.1l1.8-8.9l2.9-1.9l-2-2.7l-4.8,3l1.1,2.7l-0.2,2l-2.1,5.7l-1.6,1l-7.3-1.7
		c-3.7-1-6.5-4.1-7.1-7.9l-1.6-31.9c0,0-0.8-9.3-9-9.7l-42.1,1.6l-6.1-0.9l-3.2,0.8c0,0-9.7-1.9-14.7-9l-7.4-8.1l-4-4.3l-2-1.2
		l-0.8,3.8l1.9,2.2l3.7,3.3l2.8,5.8l10,26.8l16.2,31.3l2.5-1.9l1.4-6.4l1.9-10.1l0.2-6.3l2.9-6.3l1.2-3.2l0.6-7.7
		c-0.1-0.7-0.1-1.5,0-2.2c0.1-0.6,0.8-2.3,0.8-2.3l10.2-0.2l1.7,1.7l0.3,3.8c0,0-1.8,16.8-1.8,17.1s-1.2,8.8-1.2,8.8l-1.9,25.6
		l-0.8,9.8c0,0-0.5,3.6-2.7,0.9l-4.2-8.6l-1.8-0.3l-1.7,1.3l26,50.9l10.7,20l10.2,12.8l18.9,22.3l9,10.1l2.9,4.9l0.4,2.8l-3.9,1.9
		l-1,12.5l2,10.7l3.1,7.8l3.3,6.3l3.8,7.2l1.8,3.3l-0.2-0.1l-31.7-11.8l-104.1-39l1-3l-4.9-2l1.6-4.9l-11.1-4.4l-3.8,7.9l-37.2-13.9
		c-6.1-1.5-11.5-5.9-14.7-9l-6.8-12.8l-72.4-137.8l-61.8-117.3l-81.9-154.6c6.4,4,12.5,8.4,18.2,13.3l24.3,21.3l4.6,6.2l4.7,6.8
		l8,10.7c0,0,3.4,4.4,14.1,5.6l17.8,0.7c0,0,7.4,0.3,15.5,8.3l29.2,26.5c0,0,6.4,5.8,4.6,17.3l-9.5,24.6c0,0-3.7,6.8,10.1,14.1
		l63.9,49l14.5,11.3c0,0,13.5,6.7,24.1,6.5l-5.6-4.5l-4.7-0.3l-2.7,0.9l-1.6-0.1l-1.6-3l-6.7-3.5l-47.3-36.6L793,357l-3.3-8.9
		l0.9-2.1l-0.9-3.3l1.4-3l2.7-0.6l49.5,40.5l-0.4-6.5l51.3,32.5l8.7-9.6l-32.7-26.2c0,0-1.3-4,2.5-5.3l-12.2-11.8l-15.1-7.6
		l-13.3-9.1L805,313l-2,2.3l11.2-27.6l-2.8-0.9l-23.7,55.7l9.8-27.9c0,0,0.6-4.4-4.2-7.8l-40.7-37.9c0,0-6.2-4.6-16.1-3
		c0,0-12.3,2.2-20.7-3.6c0,0-9.1-16.8-16.3-21.5l-33.7-30.3c0,0-7.4-7.4-12.8-11.2l0.3-0.5l-0.7-6.4l-12-2.2l-4.5-2
		c0,0-11.5-19.1-2.7-30.7c0,0,6.7-11.5,24.2-10l-21.3-18l-29.1-4.7l-38.9,8.9l-29.1,24.2c0,0,30.2-16,40.5,0l33.5,64.6l3.4,2.5
		l-13.3,14.8l-2.7,3.3l-0.9,3.7c-3.3,21.9-11.4,32.3-11.4,32.3c-3.9,5.5-8.8,10.3-14.4,14c-1.8-0.5-4.1-1.7-5.8-4.9l-11-20.2
		l-2.2,0.9l11.3,22.4l0.2,6.1l-18.1,8.7l-3.4,1.8c-5.2-9-11.3-8.5-11.3-8.5c-3.4-0.3-7.4,2.8-7.4,2.8l-8,5.2l-23.9,19.3L455.8,356
		L425,379.5l-28.2,21.2c-7,5.8-9,11.4-9.6,13.9c-4.2,1.4-7.7,4.2-9.8,8.1l-5.8,10.7l-6.8,13.9l-2,1.9l-2.8,0.8l-4.3-0.7l-4.6,3.7
		l-1.5,0.6l-5.8-9l-7.3-3.6l-7.5-3l21.5-22.5l39.7-38.7l21.3-21.3l-9.2,5.2L388.6,373l-37.2,24.3l-38.8,41l-27.1,18.1l3.9,12.2
		l-4.9,6.8l-1.3,4l3,3.8l2.2-7.5l3.6-4.2l4.4,3.3c5.8-5.1,16.9-4.2,16.9-4.2l11.3,3.3l20.7,7.8l0.7-1.8l5.7,1.9l5.2,11.1
		c1.9,2.2,4.1,4.2,6.4,5.9l-10.1,13.3l23,15.6l9.9-13.9l80.2,52.2l84.4,55l17.5,11.4l11.6,5.5l37.4,15.4c0,0,4.8,1.8,4.8,8.1
		l-23.5,36.2l4.5,2l22.2-32.9l4.7-4l15.3,5.5l-12.7,32.7l65.6,27.1l7.1,12.9l-2,5.3l8.9,4l18-45.5c0,0,1.5-6.9,10-3.8l79.5,31.3
		c0,0,8.9,2.9,15.8,14.9l31.8,60c0,0,0.2,2.9-2.7,2.4l-25.3-10l-2.2,4l37.5,17.8l13.1,24.2l-8.7,3.8l7.3,14.7l10.7-1.1l3.9,6.1
		l4.3,3.3l9.8,3.3l3.4,0.3l32-1.3l5.3-1.2l7.3-3.7l1,1l1.5-1l2.2,4l0.8,1.3l-16,12l-26.2,0.9l-12.9,1.1l-21.1,2.4l8.2,11.6l16,24.4
		l75.8-45.3l17.3-18.7l8.7-19.1L1013,825l-10.2,10.9c0,0-10.7,12.7-10.2,18l-4.9-0.2l0.2-4l-0.5-3.8l-50-96L907,692.5
		c1.8-9.7,8.7-7.3,8.7-7.3l128.7,48l8.9,42.7l-0.4,39.1l8.4-14.7l8.9-25.5l7.3-28.9l36.9,10.4l7.3,6.9l1.3,7.1l-2,3.6l-35.9,33.7
		l-0.1-0.1l-23.1,21.6l-10.4,1.3l-3.6,4.9l-4.7,0.2l-3.3,6.2h4.7l-26.9,36.2l-10.9,15.5l-7.3,2.7l-2.7,4.7l0.9,5.5l2.2,4.2l3.8,2.9
		l20.9,1.6l2.9-6.7l5.3-4.7l3.3,3.5l27.1-32.9l19.1-16l2.2,1.1l0.9,10.5l0.4,8l-3.3,10.4l-8.2,2.9h-2.9l-18.4,9.3l-1.3,5.1
		l31.3-14.5l8.9-6l22.9-6.9l44.4-9.8l11.3-3.1l17.6,3.3v11.3h18.4v5.8l188.4,8.2l1.1-3.1l27.6,0.4l0.2-10.2h-4.7l18.3-4.7l12.5,4.9
		c1.2,0.1,2.5,0,3.7-0.1c0.9-0.3,10.5-3.7,10.5-3.7l6.1-3.1l14.1-10.7l2.1-2.3c2.4,0.8,6.3,2.1,6.6,2c0.4-0.1,6.1,1.3,6.1,1.3
		l1.8,2.1l16.2,6.4l3.6,4.9l1.9-0.9l-2.2,7.1l9.9-5.2l9.9-7.5l-12.6-0.9l-13.2-4.7l-2.7-4.6l9.3,4.2l26.2,1.6l1.2-7.1l-22.8-0.7
		l-9.3-0.4l-1.4-1.2l5.7-1.5l29.2,1.6l12.6,0.2l0.9-133.8l1-100.7l0.7-96.5c0,0-2.3-26.3-2.3-26.9s-11.6-26.1-11.6-26.1l-0.8,0.4
		l-18.7-24.1l-10.7-8.6l-4,3.3l1.5,2.3l-1.9,9.5l-8.3,1.6l-10.8-4.3l-8-4.6c-1.8-1.5,0.6-3,0.6-3l5.6-1.9l5-5.9l5.8-10.2l5-4
		l-7.3-7.9l-12.9,19.7l-1.3-0.1l-12.4-26.7l-9.5-21l-23.8-12.9l-36.3-13.9c-23.7-7.1-35.7,6.5-35.7,6.5c-17.4,14.7-7,37.3-7,37.3
		l15.1,4c-12.3-8.9-8-24.4-8-24.4c7.7-20.3,28.8-16.2,28.8-16.2l46,18.2c11.8,3.6,17.1,15.1,17.1,15.1l13.1,30.6l3.9,13.9
		c3.8,8.9,15.4,11.3,15.4,11.3l4.3,3.7l-0.4,4.3l-7.9-1.8l-2.5,3.3l-2.7,0.6l-3.8,4.5l-7.7,9.3l-7.8,8.7l-2.4,4.9l-3.3,3.7l-1.5-0.6
		l2.1-3.9l5.6-7.7l7-6.4l9-12l-9.2-21.6l-4.9-12.6l-5.8-9.8l-6.5-16.8l-5.3-7.3l-10-2.5l-26.4-0.7l-20.4,4l-2.7,12.2l46.8,16
		l11.1,18.4l2.1,31.5l-13.2,31.5l1.7,1.1l-58,54.5l-52.3,51.6l2.8,5.6l3.1,2.1l12.9,5l8.9,11.8l4.6,8.4c0,0,3,11.9-4.8,12.1
		l-33.5-36.4l-3.4,2.8l33.9,35.8c1,2.3-1.3,6.5-1.3,6.5l-10.8,9.3c-3.6,4-6.8-0.1-6.8-0.1l-26.4-33.1l1.4-8.1l-23.3,20.9l7.1,0.3
		l10-9.8l26.3,33.3l2.9,2.8c2.5,2.1,6,2.1,8.6,0.1l8.2-7.6c2.1-2.2,3-0.1,3-0.1l-0.2,31l-1.1,1.1l-29,0.2l-0.1,0.1
		c-1.2-4-4.8-6.9-9.2-6.9c-0.3,0-0.7,0-1,0.1l-44.8-48.3l39.3-35.6l-4-4.6l-5.2,3.6l-13.8,0.1c-0.4,0-1.2,2.7-1.2,2.7l-34.8-40.2
		l8-22.8l47.3,51.1l2.7-3.2l-36.8-39.5l8,1.9l13.8,12.6l13.9-10.2l-25.3-51.4l-15.8,1.2l-15.3,11.5l-1,9.9l24.6,21.8l-6.4-1.2
		l-6.2-6.6l-4.6-4c0,0-8.1-6-11.6-8.4l5-13.1l10.8-8.7l3.6-2.2l12.1-0.3l1.6-1.6l-3.6-5.8l-0.9-13l-3,0.3l-8.2-14.8l-4.3,2.1
		l-34.8-54.2l3.1-2.7l-9.9-15l-4.3,2.7l-2.4-3.4l-37.1,17.3l0.2-12.9l-9.2,0.1l1.7-56.3l1.4-14.5l1.1-5.3l4-3.9l3.9-1.1l10-1.1
		l6.4,1.5l77.9,0.4l0.3-6.1l55.2-32.4l31.6-19.8l10.2,0.4l0.2,22.3l-12.5,5.7l-9.8,6.7l-20.3,19.6l-19,14.4l-14.1,5.2l-5.6,16.5
		l10.8,44.1l6.1,17.2l9.5,19.1l13.5-13.8l-13.6-9.9l-2.8,2.4l-13-57.6l-2.7-1.2l6.7-14.8l8.2,1.8l22.5,17.9l13.3-35.2l46.8-11.8
		l56.3,28.6l4.9-7.8l-24.4-18.2l-44.9-28.4l-1.6-0.1l2.5-22.9l6.9-0.9l1.1,2.7l0.4,4.9l0.7,4l4.4,1.8l-0.7-6.2l3.8-6.5l19.6,0.2
		l4,3.5l3.8,8l0.4,3.1V309l-3.6,7.1l4.4,1.3l6-1.8l8.4-2.2l6.4-4.7l3.8-5.1l54.4,25.5l-11.3,30l20.4,10.7l0.9,5.1l10.9,6.4
		l10.2-11.3l16.7,17.3l29.1,32.9l15.1,19.8l7.8,10.5l5,7.8l-1,0.6l-15.1,7.6l-2.9-4.2l-17.5,10l-0.6-1.2l-12.4-26.5l-16.3-20.9
		l-28.6-29l-5.5,7.8l-0.9,21.8l-15.1,21l-6.8,3l3,2.2l15.5,6.8l7.6-7l-1.8-9.9l13.9-13.6l28.9,32.7l16.6,26.5l6.1,0.4l1.2-1l3.9,2.5
		l-5,0.6l-7-2.1l4,17.9l4.6-3.9c0,0,4.6-0.3,5-0.3c1.1,0.6,2.1,1.4,2.8,2.4c0.2,0.4,0.7,4,0.7,4L1591,540l0.7,84.5v57.9l-0.7,3.4
		l-11.8-0.2l0.3,17.9l8.4-2.8l4.6,3v3l11.3,0.3l7.9,3l0.7,4.6c0,0-1.2,7.4-1.9,8.3s-3.4,4-3.4,4l-4.6,2.2l-5.2-0.6l-5,1l-0.2,7.9
		v14.4c0,0,9.9,0.4,10.4,0.4s8.3,4,8.3,4l3.8,8.9l-1.5,11.8l1.5,5.6l-0.3,15.8l-0.7,4.6l0.6,1.5l10.8,1.2c3.3,0.6,3.8,4.5,3.8,4.5
		l-0.9,12.3l-18.8-0.4l-0.3,3.5L1628.1,825.4z M977.1,498l1.5-5.2l3.8-16.7l6.3,0.6l1.9,3.1l0.2,5.5c0,0-1,3.2-1.2,3.6
		c-0.2,0.3-2.6,4.4-2.6,4.4l-0.9,4.5l-0.3,6.4l-1.2,7.8c0,0-1.8,1.7-1.9,1.3s-6-11.7-6-11.7L977.1,498z M975.9,487.2l-0.7,2.8
		l-1.3,2.6l-1.8-0.1l-6.2-15.2l-0.1-2.4c0,0-0.1-3.6,4.3-1.2l5.3,1.4l2,1.4l-0.1,3l-0.4,2.7L975.9,487.2z M650.6,657.2l-1.6,3.2
		l-11.4-4c0,0-3.5-1.5-0.6-5.9l6.7-10.4l75.1,25.8l13.6-36.7L668,605l3.7-3.6l5-2.1l165.6,60.7l9.9,4.8l1.4,2.6
		c-0.3,1.7-0.7,3.3-0.7,3.3l-54.7,47.5l-75.1-28.6L653,662.2l1-4L650.6,657.2z M468.4,547.8c0,0,6.2-16.7,8.1-20.4l187.7,67.5
		c1.2,2.5,1.8,5.7-0.5,8.2l-33.3,49.6l-3.5,0.1l-54.4-22.8l-10.2-5.9l-43.3-28.7L473.4,565l6.4-9.3L468.4,547.8z M391.8,417.8
		l22.5-11c13.2-4.6,33.8-21,33.8-21l40-32.1l29.6-23.7l22.7-13.6l29.3-15.6c29.3-11.7,34.2-48.3,34.2-48.3c0.7-7,3.3-10.2,3.3-10.2
		l14-12.8l40.6,76.9c-9.2,1.2-25.9,5.4-31.9,20.5l-27,54.1c0,0-6.5,14.7-23,8.6l-21-8.1c0,0-18.1-6.7-24.3,12.9l-30.5,80.9
		c0,0-5.8,12.4,3.2,25.9l-39.3-14.7l-85-29.6l-13.5-5.5l10.7-22.4C383,424.3,387,420.4,391.8,417.8z M390,413.3
		c1.2-5.8,9.7-12.6,9.7-12.6l42.2-31.8l47.1-35.6l20.9-16.8l6.8-4.2l5.5-4.2c8.5-7.4,11-7,11-7c6.1,0.5,8.7,5.2,9.6,7.7l-16.4,8.5
		L511.4,328l-18.2,14l-19,15.5l-24.3,20.6L433,390.4L413,402L390,413.3z M667,316.3l54,102.3l97.2,181.6l1.5,2.8
		c-3.6,8.1-9.4,6.4-9.4,6.4L735.1,582l-113.2-40.8l-100.2-36.9l-0.5-0.1c-6-4.8-15.5-15.7-7.1-32l30.4-77.5c0,0,3.5-8.1,14.7-4.5
		l22.1,8.6c0,0,19.4,5.9,28.9-14.5l28.1-55.8C638.3,328.6,645.5,314.8,667,316.3z M467.4,524.1l5.7,2l-8,19.2l-8.7-5.2l-7.3,9.6
		l-56-36.6l-21.5-14.5c0,0-10.3-6.8-11.5-14L467.4,524.1z M856.9,673.8l32.4,61.6l41.3,73l25.9,51.4c0,0,1.2,8.3-5.5,9.3l-29.2,2.2
		c-2.8,0.5-5.7,0-8-1.6c0,0-16.9-15.4-23-26.5l-38.7-73.5l-13.5-26.4c0,0-7-13.3-18.2-15.8l-17.6-7L856.9,673.8z M1511.7,824.4v32.8
		c-1.5,0.7-3.5,1.5-3.9,1.6c-0.6,0.2-5.8,0.6-5.8,0.6l-10.4-1.3l-3.3-2.6l0.1-0.3l0.4-30.8H1511.7z M1491.4,631.2v-9.1h12.4v9.1
		H1491.4z M1497.4,501.9l-3.3-3.1l-6.9,6.3l-7.2-12.2l27.1-25.2c0,0,0.2-1.3,0.2-1.8s9.3,0,9.3,0l0.1-1l5.9,1l17.9,13.2l0.2-0.1
		l-6.8,3.2l-8.2-7.1L1497.4,501.9z M1630.2,768.1l-4.6,14.4l0.3,15.6l-3.4,2.1c-0.7,0.5-2.8-0.6-2.8-0.6l-1.2-2.2l-0.2-15.1l-1-3.4
		l0.1-8.6l1-6.7l-0.7-2.5l-4.2-5.2v-2.4l6.7-5.5l0.4-12.6l-1.5-1.3l-3.6-1.8l-0.6-1.6l1.5-2.1l3.4-1.2l10.2,0.2l1.6,2.8
		L1630.2,768.1z M1625.4,461l1.1-2.7l-3.1-5.8l-0.4,0.3l-9.9-17l3-1.5l8.1,10.4l9.1,15.6C1629.6,463.3,1625.4,461,1625.4,461z
		 M1634.8,458.7l-8.8-16.2l-7.7-9.2l0.2-0.1c0,0-3.1-4.5-6.3-9.1l2.9-1.5l4.4,2.8l17,30.6C1636,457,1635.4,457.9,1634.8,458.7z
		 M1640.8,749.7l-2.4-0.7l2.4-18.4l6,0.7L1640.8,749.7z M1653.7,613v26.9l-2.9,0.2l-0.9-0.2c1.6-9.6-5.8-32.2-5.8-32.2l5.8,0.2
		C1653.9,608.8,1653.7,613,1653.7,613z M1654.3,601.9l-1.6,1.5l-10.2,0.7l-3.3-9.5l1.8-24.2l14,2L1654.3,601.9z"/>
	<path class="st0" d="M1491,887.1l-6.4,4.5l2.5,5.2c0,0,14.7-7.8,14.4-8.4s-1.5-8.2-1.5-8.2L1491,887.1z"/>
	<polygon class="st0" points="1516,894.5 1520.3,904.7 1525,902.9 1523.7,889.2 	"/>
	<path class="st0" d="M828.6,204.1l0.3,0.3l3.1-7.3C827.8,197.6,828.6,204.1,828.6,204.1z"/>
</g>
<g id="Buildings">
	<polygon class="st1" points="1509.2,473.7 1498.5,481.7 1497.6,486.8 1499.1,493.9 1503.5,498.9 1505.8,496.5 1509,499.7 
		1516.1,491.7 1512.9,488.9 1519.5,481.8 1530.3,492 1547.5,529.9 1547.4,544.6 1544.6,544.7 1545,550.3 1548,550.3 1547.8,579.2 
		1546.9,579.2 1546.9,586.2 1536.9,586.2 1536.9,603.4 1545.2,603.4 1545.2,699.9 1553.7,699.9 1553.7,603.4 1553.7,603.4 
		1553.7,586.2 1552.9,586.2 1552.9,579.2 1552.7,579.2 1552.1,529.9 1534,490.5 1522.3,478.7 1523.4,477.6 1517.2,472.6 	"/>
	<polygon class="st1" points="1477.7,501 1461,516.3 1469,524.8 1485.4,509 	"/>
	<polygon class="st1" points="1558.5,528.3 1540.3,488.6 1525.3,474.9 1523.4,477.6 1535.4,489.1 1554.2,531.2 1553.6,578.5 
		1559.7,578.6 	"/>
	<rect x="1526.7" y="537.1" class="st1" width="6" height="4.7"/>
	<rect x="1527.2" y="543.7" class="st1" width="2.3" height="10.8"/>
	<polygon class="st1" points="1512.5,504.5 1508.6,508.1 1504.8,504.7 1503.3,506.5 1508.5,511.4 1514,506 	"/>
	<rect x="1541.1" y="578.9" class="st1" width="5.3" height="3.1"/>
	<rect x="1546.2" y="707.5" class="st1" width="7.8" height="6.7"/>
	<rect x="1539.8" y="722" class="st1" width="15" height="96.3"/>
	<rect x="1522" y="835.5" class="st1" width="18.4" height="14.4"/>
	<path class="st1" d="M1512,823.5h-19.2v35.3h19.2V823.5z M1493.4,824.5h16.7v2h-16.7V824.5z M1501.6,854.1h-7.8v-3h7.8V854.1z
		 M1510.8,847.3h-16.9v-3h16.9V847.3z M1511.3,840.2h-17.7v-3.1h17.7V840.2z M1511.4,833.3h-17.7v-3.2h17.7V833.3z"/>
	<rect x="1525.2" y="860.1" class="st1" width="21.3" height="5.3"/>
	<rect x="1489.9" y="614.6" class="st1" width="15.3" height="138.4"/>
	<rect x="1441.9" y="582.3" class="st1" width="59.8" height="27.8"/>
	<polygon class="st1" points="1434.6,558.8 1443.3,551.1 1442.4,550.2 1447.1,546 1450.1,548.8 1453.6,545.2 1452.1,543.7 
		1455,540.7 1453.4,539.6 1452.9,538.2 1453.4,537.6 1448.3,532.3 1450.3,530.4 1448.8,529 1445,532.4 1438.9,532.7 1444.1,527.8 
		1442.9,525.9 1355.2,606.6 1357,608.7 1410.6,559 1413.9,562.4 1420.7,563 1423.7,566.8 1426.3,564.4 1425.3,563.4 1432.1,556.7 	
		"/>
	<polygon class="st1" points="1419.3,577 1412.7,583.4 1421,592.4 1426.2,588 1429.4,590.9 1431.4,588.7 	"/>
	<polygon class="st1" points="1416.9,590.2 1414.6,592 1417.6,595 1419.7,592.7 	"/>
	<polygon class="st1" points="1409.4,578.8 1411.4,581.1 1414,578.6 1411.8,576.4 	"/>
	<polygon class="st1" points="1387.6,624.9 1378.4,615.2 1358.8,633.4 1369.1,643.7 1370.1,642.3 1375,647.4 1385.2,637.7 
		1380.3,632.6 1383.8,629.2 	"/>
	<polygon class="st1" points="1282.3,521.2 1271.5,526.6 1297,577.3 1308.4,571.1 	"/>
	<polygon class="st1" points="1264.4,543.4 1259.4,510.2 1246.6,512 1252,544.7 	"/>
	<polygon class="st1" points="1228.3,511.1 1231.8,522.9 1237.6,521.6 1233.9,509.4 	"/>
	<polygon class="st1" points="1200.7,529.2 1219.8,525 1217.2,513 1197.9,517.3 	"/>
	<polygon class="st1" points="1189.3,518.8 1169.3,523.4 1172.3,535.8 1192.1,531.5 	"/>
	<polygon class="st1" points="1257.9,489.4 1212.8,419.8 1206.6,424.4 1251.5,493.6 	"/>
	<polygon class="st1" points="1250.3,494.2 1205.6,424.8 1199.7,428.1 1244.3,498.2 	"/>
	<polygon class="st1" points="1198.6,429.4 1192.4,432.8 1237.2,502.8 1243.4,498.9 	"/>
	<rect x="1174" y="409.1" class="st1" width="12.4" height="17.6"/>
	<polygon class="st1" points="1194.2,406.3 1194.2,415.4 1199.2,415.4 1199.2,415.2 1206.5,415.2 1206.5,409 1199.2,409 
		1199.2,406.3 	"/>
	<rect x="1172.6" y="443.7" class="st1" width="13" height="66.4"/>
	<polygon class="st1" points="1138.3,408.7 1124.4,411.2 1123.7,407.8 1118.5,409 1120.1,417 1139.5,413.3 	"/>
	<polygon class="st1" points="1125.7,436.4 1126.5,440.3 1145.2,436.7 1144.6,432.7 	"/>
	<polygon class="st1" points="1087.4,455.4 1093.2,456.1 1093.4,453.7 1100.7,454.6 1101.6,448.4 1089,445.9 	"/>
	<polygon class="st1" points="1116.1,455.8 1107.2,454.6 1106.6,456.8 1113,457.7 1112.1,464.1 1105.6,463.4 1103.4,478 
		1115.5,480.4 1117.9,465.7 1114.6,465.1 	"/>
	<path class="st1" d="M1044,417.6c-0.4,0,9.3,8,9.3,8l14.4-15.4l-8.3-8C1059.4,402.2,1044.4,417.6,1044,417.6z"/>
	<rect x="1092.1" y="423.7" class="st1" width="4.6" height="11.4"/>
	<polygon class="st1" points="1101.9,529.2 1110.6,530 1111.5,520.7 1103.1,519.7 	"/>
	<polygon class="st1" points="1054.3,342 1005.7,340.4 1005.4,351.7 1053.7,353.1 	"/>
	<polygon class="st1" points="925.7,328.7 905.9,320.7 866.3,289.6 862.5,294.6 903.4,325.3 929.9,335.4 1001.2,351.7 1001.9,346.6 
		944,333.3 	"/>
	<polygon class="st1" points="958.8,324.6 918.5,312.3 916.6,319.2 956.8,331.4 	"/>
	<polygon class="st1" points="991.8,299.2 981.6,298.2 980.8,312.7 990.8,313.6 	"/>
	<polygon class="st1" points="1087.4,277.6 1073.9,277.6 1073.9,279.5 1046.8,279.5 1046.8,278.5 1033.7,278.5 1033.7,317.3 
		1036.8,317.3 1036.8,317.4 1073.9,317.4 1073.9,317.9 1087.4,317.9 1087.4,317.4 1151.8,317.4 1151.8,279.5 1087.4,279.5 	"/>
	<polygon class="st1" points="1197.7,231.7 1190.9,224.6 1180.6,234.8 1187.4,241.6 	"/>
	<rect x="1171.7" y="298.5" class="st1" width="57.2" height="29.9"/>
	<rect x="1272.4" y="291.1" class="st1" width="12.6" height="4.9"/>
	<polygon class="st1" points="1368.2,291.4 1361.8,281 1268.3,336.8 1274.6,347.3 	"/>
	<polygon class="st1" points="1366,297.4 1346.4,305.8 1342.4,308.1 1336.9,312.3 1315.1,332.4 1302.9,338.8 1278.7,347.8 
		1282.3,358.6 1307.6,349.1 1311.4,345.2 1348.1,313.2 1360.4,308.1 1359,305.6 1362.8,303.8 1361.6,300.9 1366.8,298.7 	"/>
	<polygon class="st1" points="1377.8,298.9 1477.4,359.2 1479.8,355.2 1485.8,358.9 1491.8,348.7 1376.7,277.4 1370.3,288 
		1380.2,294.1 	"/>
	<polygon class="st1" points="1512.9,374.8 1515.2,370.6 1493.7,357.7 1491.2,362.5 	"/>
	<polygon class="st1" points="1556.3,416.9 1563.8,408.6 1520.3,370 1512.6,378.3 	"/>
	<polygon class="st1" points="1586.1,466.9 1595.7,461.7 1566,411.6 1556.3,417.4 	"/>
	<polygon class="st1" points="1596.6,636.1 1598.3,691.8 1605,691.7 1605,688.6 1614.1,688.4 1612.8,636.1 1603.6,636 1603.6,632.8 
		1612.4,632.7 1610.9,550.1 1609.3,486.1 1593.6,486.6 	"/>
	<polygon class="st1" points="1617.8,612.9 1617.1,556.4 1612.2,556.3 1613.3,613 	"/>
	<polygon class="st1" points="1615.3,700.3 1636.9,703.4 1637.7,697 1616.3,694 	"/>
	<polygon class="st1" points="1640.8,714.7 1639.4,730.8 1646.8,731.3 1648.3,715.2 	"/>
	<polygon class="st1" points="1624.9,723.1 1634.6,723.6 1634.7,719 1624.8,718.9 	"/>
	<rect x="1612.3" y="735.2" class="st1" width="7.7" height="10.4"/>
	<rect x="1619.7" y="772.7" class="st1" width="10.2" height="7.6"/>
	<rect x="1602.2" y="746.9" class="st1" width="8.9" height="49.8"/>
	<rect x="1602.1" y="810.3" class="st1" width="8.3" height="41.8"/>
	<polygon class="st1" points="1586.9,918 1581,930.3 1586.6,933.3 1592.6,919.4 1596.6,895.4 1597,871.5 1602.8,871.7 1602.6,857.2 
		1598.2,856.8 1598.3,778.3 1597,751.4 1593.3,747.5 1590.6,753.6 1591.8,858.9 1590.3,898.9 	"/>
	<polygon class="st1" points="1595.1,919.7 1603.2,921 1609.4,879.4 1601,878.3 	"/>
	<polygon class="st1" points="1560.4,967.5 1566.5,973.7 1597.3,944.1 1591.5,937.9 	"/>
	<polygon class="st1" points="1496.4,982.8 1497.9,991.1 1546.8,983.4 1544.7,975.1 	"/>
	<polygon class="st1" points="1552.4,973.3 1554.3,978.2 1561.3,975.1 1558.8,970.3 	"/>
	<polygon class="st1" points="1510.9,976.6 1542.6,969.9 1541.4,965 1505.3,972 1491.1,971.8 1411.8,961.6 1411.4,966.9 
		1497.4,977.9 	"/>
	<polygon class="st1" points="1477.1,997.4 1485.4,998.8 1486,992.6 1477.8,991.2 	"/>
	<rect x="1417.7" y="724.3" class="st1" width="12.7" height="107.8"/>
	<rect x="1437" y="724.1" class="st1" width="12.4" height="108.4"/>
	<rect x="1450.8" y="724.8" class="st1" width="13.8" height="114.7"/>
	<rect x="1469.9" y="725" class="st1" width="14.2" height="122.9"/>
	<path class="st1" d="M1423.7,901.3l0.1-8.5l-28.1-1.2c0,0,0.6,8.7,0.1,8.7S1423.7,901.3,1423.7,901.3z"/>
	<polygon class="st1" points="1302.6,887.5 1391.1,891.7 1391.4,873.9 1303.5,869.9 	"/>
	<polygon class="st1" points="1207.1,884 1295.5,887.8 1296.1,869.4 1207.8,865.6 	"/>
	<polygon class="st1" points="1174.8,890.1 1203.1,891.7 1203.4,883 1175.1,881.8 	"/>
	<path class="st1" d="M1190,878.4l16.1,0.3l0.6-13.2c0,0-16-0.8-16.3-0.8L1190,878.4z"/>
	<polygon class="st1" points="821.2,1024.6 822.1,1035 992.1,1021.7 991,1011 	"/>
	<polygon class="st1" points="653.7,676.3 645.4,698.3 662.8,704.8 671.4,683 	"/>
	<polygon class="st1" points="664.3,713.9 696.1,725.9 701.9,712.3 719,718.6 725.4,703.2 676.3,685.2 	"/>
	<polygon class="st1" points="272.8,554.6 361.4,612.3 367.9,603.4 277.9,545.9 	"/>
	<polygon class="st1" points="201.9,472.1 239.4,513.4 246.6,507 209.7,465 	"/>
	<polygon class="st1" points="181.2,448.3 182.6,459 197.2,457.2 195.7,446.6 	"/>
	<polygon class="st1" points="218.3,406.8 208.3,404.8 200.1,460.3 209.9,461.9 	"/>
	<polygon class="st1" points="212.1,397.2 220.3,404.6 257,361.9 249.2,355.4 	"/>
	<polygon class="st1" points="421.4,207.7 418.6,203.4 390.1,228.6 393,232.1 365.9,253.4 363.7,250.3 350.3,261.9 369.4,282.6 
		471.7,190.8 458.8,176.8 	"/>
	<polygon class="st1" points="469.9,180.1 475,186.3 495.4,167.9 490.3,161.9 	"/>
	<polygon class="st1" points="503.4,142.1 510.8,150.1 531,132.6 523.2,124.8 	"/>
	<polygon class="st1" points="515.2,92.8 524.3,104.6 531.9,98.1 523.4,85.9 	"/>
	<polygon class="st1" points="594.3,81.9 572.3,91 575.4,100.8 597.9,92.6 618.3,91.7 617.7,80.8 	"/>
	<polygon class="st1" points="352.6,453 349.2,461.4 355.7,464 359.4,453.9 	"/>
	<polygon class="st1" points="1265,353.6 1195.2,348 1194.6,354.3 1264.4,359.7 	"/>
	<polygon class="st1" points="1434.8,242.1 1451,235.4 1435.2,199.4 1419.7,205.9 	"/>
	<polygon class="st1" points="1491,217.4 1475.2,181.9 1459,188.6 1474.8,224.8 	"/>
	<polygon class="st1" points="1403.9,236.8 1386.6,236.6 1385.7,266.3 1402.6,267 	"/>
	<polygon class="st1" points="1398.3,187.7 1392.3,187.2 1392.1,196.8 1397.7,196.6 	"/>
	<polygon class="st1" points="1433,173.7 1415.2,138.3 1401.2,145.4 1418.1,181 	"/>
</g>
</svg>
