<?xml version="1.0" encoding="UTF-8"?>
<svg id="Inactive_Configs" data-name="Inactive Configs" xmlns="http://www.w3.org/2000/svg" viewBox="0 0 1920 1080">
  <defs>
    <style>
      .cls-1 {
        fill: #a7a9ac;
      }
    </style>
  </defs>
  <path class="cls-1" d="M1710.19,507.02c-2.33-26.2-7.41-66.39-12.32-105.27-3.94-31.19-7.66-60.65-9.83-81.65-4.1-39.79-28.14-44.44-39.69-46.68-9.19-1.78-19.61-4.4-28.8-6.71-3.63-.91-7.02-1.76-10.01-2.48-16.73-4.02-26.99-8.57-31.37-13.92-3.22-3.94-3.11-7.99-2.64-14.81l.06-.9c2-29.69-26.29-44.74-44.59-47.26-11.4-1.57-32.69-6.09-46.78-9.08-2.91-.62-5.57-1.18-7.85-1.66-15.13-3.17-35-7.37-56.66-11.94-48.5-10.24-103.48-21.85-136.7-28.6-38.73-7.87-116.97-23.6-156.42-31.34-18.74-3.67-75.27-14.44-75.84-14.55l-.44-.06c-31.34-3.15-56.34-.83-85.28,1.86-3.71.34-7.48.69-11.35,1.04l-3.68.33c-8.17.73-20.51,1.83-27.13,2.47-19.72,1.91-52.75,4.42-77.09,6.14-27.05,1.91-32.52.25-41.4-3.38-3.91-1.6-10.02-3.82-15.92-5.96-4.02-1.46-7.82-2.84-10.47-3.86-43.69-16.85-72.55-.11-92.8,16.35-11.12,9.04-17.4,10.92-22.88,12.07-11.5,2.41-35.04,7.45-47.53,10.26-7.39,1.66-16.24,3.63-25.98,5.8-39.6,8.8-93.82,20.86-123.63,28.95-42.74,11.6-73.14,30.55-98.27,47.39-2.64,1.77-5.87,3.91-9.43,6.26-12.39,8.2-29.36,19.44-38.39,26.38-2.45,1.88-5.87,4.21-9.83,6.9-11.57,7.88-25.96,17.68-31.72,26.86-3.69,5.89-4.33,10.98-1.88,15.13,3.99,6.79,14,6.61,15.97,6.51,58.74-3.13,179-8.74,240.24-11.01,14.6-.54,33.54-1.59,53.6-2.7,26-1.44,52.89-2.92,70.36-3.28,3.42-.07,5.94.56,6.56,1.65,1.11,1.94-.71,7-2.45,9.95-2.49,2.99-7.79,9.66-8.86,13.64-2.3,8.55-.83,16.16,4.27,22.02,3.82,4.39,8.74,6.89,13.05,8.76,18.4,7.99,43.21,18.45,57.66,23.88,12.15,4.56,36.26,12.7,49.61,16.75,12.94,3.92,40.42,9.33,51.71,11.33,25.92,4.6,56.77,8.47,84,11.88,24.4,3.06,47.45,5.95,63.69,8.92,17.41,3.18,31.93,11.72,44.4,26.09,1.92,2.21,4.6,5.26,7.39,8.42,3.56,4.05,7.25,8.23,9.66,11.04,2.13,2.48,4.58,5.32,7.26,8.43,15.13,17.56,38,44.09,49.65,59.15,34.04,43.99,32.38,83.19,31.17,111.81l-.04.92c-.29,6.94-.76,15.87-1.25,25.33-1.45,27.74-3.25,62.25-2.67,82.32,1.2,41.05,7.36,75.77,19.39,109.26,16.23,45.19,25.61,60.31,36.46,77.83l2.15,3.47c12,19.47,32.18,42.96,44,53.56,1.22,1.1,2.45,2.15,3.67,3.15,18.34,15.02,36.4,19.31,51.04,19.3,11.96,0,21.64-2.86,27.34-5.08,17.13-6.66,58.86-23.72,76.38-38.15,27.49-22.65,15.81-45.26,10.2-56.13l-.05-.1c-12.08-23.39-36.91-70.83-52.13-98.59-23.06-42.05,19.55-73.07,19.96-73.34,19.35-11.76,30.33-25.44,32.63-40.65,2.27-15.02-3.99-31-18.61-47.51-8.15-9.2-20.92-23.06-33.27-36.46-11.39-12.35-23.16-25.13-30.66-33.56-5.49-6.17-12.9-14.24-20.74-22.79-16.54-18.02-37.12-40.45-49.61-55.89-16.1-19.91-24.99-41.06-26.42-62.85-1.08-16.48,2.44-32.84,9.65-44.88,19.26-32.16,26.87-40.59,37.69-51.67,17.9-18.33,57.81-11.09,74.14-7.13,7.87,1.91,22.9,7.07,31.08,10.4,30.48,12.43,82.83,27.74,110.57,35,6.35,1.66,12.53,3.18,18.59,4.6,28.88,7.3,57.7,15.94,85.78,25.74l34.79,12.14c8.82,3.9,14.64,12.29,15.19,21.93,1.3,22.68,3.45,54.4,3.62,56.98,0,.04,0,.08,0,.1.08,2.15.23,4.23.44,6.24.02.15.04.3.06.45.09.84.19,1.68.31,2.49,1.8,12.54,6.36,21.97,13.61,28.11,9.51,8.05,21.17,8.48,29.27,7.42,24.81-3.24,34.52-22.62,33.04-39.25ZM846.49,111.92c24.4-1.72,57.53-4.25,77.35-6.17.2-.02.41-.04.62-.06-9.71,2.84-19.48,5.1-26.49,6.26-10.33,1.7-28.66,3.14-43.39,4.3-6.97.55-13.56,1.07-18.5,1.54-12.65,1.22-17.93-.88-22.65-3.35-6.17-3.22-11.8-5.95-16.97-8.26,1.55.59,2.97,1.14,4.15,1.62,10.88,4.45,18.08,6.07,45.89,4.1ZM774.4,98.07c.26.1.53.2.81.31-14.75-4.01-25.19-3.18-35.98-.19-14.42,3.99-38.76,13.2-53.08,18.77,1.69-1.22,3.47-2.57,5.36-4.11,18.16-14.76,43.99-29.78,82.9-14.78ZM467.8,171.81c29.58-8.03,83.68-20.06,123.18-28.84,9.75-2.17,18.61-4.14,26.01-5.8,3.6-.81,8.12-1.81,13.01-2.87l-8.04,2.31c-4.01.94-101.57,23.82-134.45,30.84-12.4,2.65-22.51,8.49-30.64,13.19-4.56,2.63-8.49,4.91-11.66,5.95-2.52.83-6.53,2-11.17,3.36-11.75,3.43-27.85,8.13-36.1,12.11-1.18.57-2.48,1.22-3.88,1.94,20.12-12.18,43.86-24.08,73.74-32.19ZM656.35,270.59c-.24,0-.48,0-.73,0-17.65.36-44.62,1.85-70.71,3.29-20.01,1.11-38.91,2.15-53.42,2.69-61.28,2.28-181.62,7.89-240.4,11.02-3.08.16-6.32-.74-6.82-1.59-.13-.22-.2-1.65,1.74-4.75,3.77-6,13.69-13.41,22.76-19.71-2.82,5.76-3.14,10.66-.97,14.79,5.35,10.18,22.98,8.91,26.92,8.5l226.81-10.36.4-.02,34.6-7.24,58.57-.33c1.55.1,16.47,1.31,17.47,12.77l.04.41.08.35c.09.4,1.37,6.24-2.16,12.83,1.79-4.28,3.49-10.73.53-15.94-2.53-4.46-7.48-6.71-14.73-6.71ZM1618.45,413.3l-35.31-12.34c-.79-.28-1.59-.54-2.38-.82,4.04.56,8.01,1.1,11.92,1.64l7.04.96c15.69,2.15,23.19,8.12,26.74,15.37-2.41-1.91-5.09-3.54-8.01-4.81ZM1675.85,536.35c-6.1.8-14.79.55-21.52-5.13-6.7-5.67-10.37-15.8-10.88-30.1v-.14s0,0,0-.01h0s0-.02,0-.02c-.08-1.31-3.36-51.82-3.91-68.63-.28-8.5-1.12-34.36-38.45-39.48l-7.04-.96c-28.63-3.91-60.56-8.27-97.66-16.94-2.54-.64-5.07-1.29-7.61-1.91l-10.78-2.64c-17.55-4.59-39.69-10.97-60.59-17.57-.08-.02-.15-.05-.23-.07-3.56-1.12-7.08-2.25-10.53-3.38-.14-.05-.28-.09-.42-.14-6.89-2.25-13.5-4.5-19.63-6.67-.26-.09-.53-.19-.78-.28-2.76-.99-5.41-1.95-7.95-2.9-1.58-.59-3.11-1.17-4.59-1.75-1.59-.62-3.13-1.23-4.59-1.82-8.5-3.47-24.21-8.85-32.5-10.86-22.35-5.42-62.94-11.35-83.65,9.86-12.42,12.72-20.33,22.15-39.11,53.52-8.23,13.75-12.26,32.22-11.05,50.68,1.54,23.55,11.44,47.23,28.62,68.48,12.68,15.68,32.52,37.3,50.02,56.37,7.82,8.52,15.2,16.56,20.64,22.67,7.56,8.5,18.84,20.74,30.78,33.69,12.32,13.36,25.06,27.18,33.14,36.31,12.56,14.19,18.02,27.44,16.21,39.39-1.84,12.14-11.23,23.45-27.93,33.6-2.06,1.25-14.3,10.71-22.85,25.54-11.48,19.89-11.72,41.04-.69,61.15,15.18,27.68,39.96,75.03,52.01,98.37l.05.1c5.73,11.1,13.59,26.31-7.67,43.83-16.86,13.89-60.63,31.49-73.65,36.55-14.19,5.52-42.38,10.84-71.75-15.5-11.35-10.18-31-33.24-42.17-51.36l-2.16-3.49c-10.56-17.04-19.67-31.75-35.55-75.94-11.66-32.46-17.64-66.2-18.8-106.17-.57-19.66,1.22-53.95,2.66-81.51.5-9.48.96-18.44,1.26-25.43l.04-.92c1.28-30.16,3.03-71.46-33.25-118.35-11.81-15.27-34.79-41.92-49.99-59.56-2.67-3.1-5.12-5.94-7.25-8.42-2.46-2.86-6.16-7.07-9.75-11.13-2.76-3.14-5.43-6.17-7.34-8.36-14.02-16.16-30.43-25.77-50.16-29.37-16.52-3.02-39.7-5.93-64.25-9.01-27.11-3.4-57.83-7.25-83.5-11.81-13.71-2.43-39.26-7.63-50.55-11.05-13.19-4-37.01-12.04-49-16.54-14.29-5.36-39.74-16.11-57.19-23.69-6.89-2.99-11.68-6.48-12.3-12.58,22.1-10.07,24.4-27.94,22.43-36.48-1.68-16.15-18.39-21.13-27.06-21.5h-.12s-59.85.33-59.85.33l-34.8,7.28-226.56,10.35-.32.02c-6.92.75-15.66-.37-17.13-3.19-.94-1.79.51-6.82,7.63-15.1l1.66-1.37c.19-.09.38-.18.56-.29.56-.34,56.2-34.42,75.78-43.87,7.51-3.62,23.14-8.19,34.56-11.52,4.73-1.38,8.82-2.57,11.5-3.46,4.15-1.37,8.5-3.88,13.54-6.79,7.91-4.57,16.87-9.75,27.72-12.07,33.5-7.15,133.76-30.67,134.77-30.91l53.57-15.4.48-.17c.43-.17,43.09-17.29,63.47-22.93,15.77-4.36,31.1-3.18,66.91,15.5,5.86,3.06,12.87,5.92,28.24,4.43,4.86-.47,11.4-.98,18.32-1.53,15.69-1.23,33.48-2.63,44.23-4.4,13.12-2.16,34.21-7.66,49.06-13.96.17-.07,16.75-6.67,32.92-7.08.67-.02,1.3-.17,1.88-.42,21.44-1.78,41.74-2.7,65.65-.32,3.89.74,57.45,10.95,75.57,14.5,39.43,7.73,117.64,23.46,156.36,31.33,33.18,6.74,88.14,18.35,136.62,28.58,21.66,4.57,41.54,8.77,56.67,11.94,2.28.48,4.92,1.04,7.82,1.66,15.08,3.21,35.74,7.59,47.5,9.21,9.88,1.36,37.71,11.01,35.98,36.68l-.06.89c-.47,6.86-1.01,14.64,4.88,21.83,5.89,7.2,17.58,12.7,36.78,17.31,2.96.71,6.32,1.55,9.91,2.46,9.32,2.34,19.88,4.99,29.34,6.82,11.27,2.18,28.31,5.48,31.65,37.88,2.17,21.12,5.9,50.63,9.85,81.88,4.9,38.78,9.97,78.88,12.28,104.9.23,2.56,1.47,25.07-24.38,28.45Z"/>
</svg>