<?xml version="1.0" encoding="UTF-8"?>
<svg id="Inactive_Configs" data-name="Inactive Configs" xmlns="http://www.w3.org/2000/svg" viewBox="0 0 1920 1080">
  <defs>
    <style>
      .cls-1 {
        fill: #a7a9ac;
        stroke-width: 0px;
      }
    </style>
  </defs>
  <path class="cls-1" d="M1656.87,867.47l-1.04-29.4s0,0,0-.01l-4.24-119.9c-.69-19.52-6.49-38.62-16.78-55.23l-149.03-240.65c-13.48-21.78-32.84-39.08-55.98-50.05-5.68-2.7-11.99-5.68-18.84-8.93-2.28-1.08-4.63-2.19-7.04-3.33-9.62-4.56-20.19-9.56-31.55-14.94-2.84-1.34-5.73-2.71-8.67-4.1s-5.92-2.8-8.96-4.24c-3.03-1.43-6.11-2.89-9.23-4.37-3.12-1.48-6.28-2.97-9.48-4.49-164.93-78.01-437.48-206.45-500.89-233.48-.62-.26-1.21-.52-1.79-.76-9.09-3.84-17.59-6.1-25.48-7.13-7.55-2.46-15.46-3.76-23.3-3.8-5.31-.05-15.91.62-28.02,5.21-4.68,1.78-14.43,5.47-24.02,14.39-5.31,4.93-14.19,13.18-16.88,26.4-.42,2.06-.64,4.12-.69,6.31-.21,10.26,3.97,20.38,11.47,27.76l20.02,19.73c10.95,10.79,23.17,20.18,36.38,28.01,12.97,12.74,28.44,22.71,45.44,29.21,1.37.53,2.76,1.03,4.15,1.51,12.63,4.35,29.17,10.04,47.73,16.38,51.27,17.54,117.97,40.13,160.38,53.67.26.08.52.16.78.25,1.9.61,3.77,1.2,5.57,1.77.21.07.41.13.62.2.81.25,1.61.51,2.39.75.17.05.33.1.49.15,1.17.37,2.31.72,3.43,1.07,4.97,1.55,9.41,2.89,13.21,4,.95.28,1.88.55,2.74.8,1.9.54,3.8,1.1,5.71,1.69,1.91.58,3.83,1.18,5.75,1.8,57.6,18.62,118.28,54.3,125.24,88.55.37,1.84.59,3.62.64,5.32.01.43.01.85,0,1.26-.09,4.58-1.42,8.65-4.01,12.33-2.48,3.52-6.14,6.69-10.91,9.49-9.11,5.35-22.26,9.33-38.93,11.73l-230.2,37.13c-3.1.5-6.26.9-9.39,1.2l-1.46.14c-3.48.33-6.95.73-10.42,1.19-8.98.85-21.05,1.88-36.09,2.97-.38.03-.75.05-1.13.08-1.37.1-2.76.2-4.18.3-25.45,1.8-58.62,3.73-98.96,5.34-1.43.06-2.87.11-4.32.17-12.74.49-32.75.38-56.99-.14-.76-.08-1.53-.14-2.31-.16l-42.45-1.08h-.18c-.17,0-.35,0-.52,0-73.09-2.37-163.17-6.69-217.48-9.43-2.94-.15-5.78-.29-8.5-.43-1.19-.06-2.35-.12-3.5-.18-.13,0-.26-.01-.4-.02-8.09-.41-15.51-3.77-21.08-9.17-.09-.09-.2-.17-.29-.27-.11-.11-.2-.22-.31-.33-1-1.02-1.94-2.1-2.81-3.25-.05-.07-.1-.15-.15-.22-1.12-1.52-2.11-3.16-2.96-4.89-.54-1.1-1.05-2.22-1.47-3.39l-30.98-85.3c-4.41-12.15-15.59-20.2-28.34-20.65-.85-.03-1.7-.03-2.57.01l-66.87,2.98c-12.49.56-23.61,7.9-29.03,19.17-5.42,11.27-4.21,24.54,3.15,34.65l124.85,171.36.52.71.35.34,1.13,1.37c7.1,8.44,13.61,16.17,26.79,25.26h0s.03.02.04.03c4.77,3.29,10.42,6.76,17.29,10.5,4.79,2.61,10.17,5.36,16.27,8.27,21.17,10.12,46.22,16.32,65.28,19.37l-.04.16,44.61,9.79c14.8,3.25,28.92,9.9,40.85,19.23l20.31,15.89c18.86,14.75,42.43,22.87,66.37,22.87h13.28c11.99,0,23.87-1.78,35.33-5.3l-1.47-4.78,1.52,4.76,157.15-50.32s0,0,0,0h0l52.53-16.82.16.04,1.25-.5,1.02-.33-.02-.07,12.31-4.88,348.35-109.34,26.45-9.38-.9-2.92,54.78-16.56c24.93-6.2,54.09,3.26,72.69,23.58l37.86,49.39c21.93,45.44,47.65,98.62,62.99,130.03.11.22.22.45.33.67.41.83.8,1.64,1.19,2.44.19.39.38.78.57,1.16,1.2,2.44,2.31,4.72,3.35,6.83.29.6.58,1.18.86,1.75.2.41.4.82.6,1.22,6.86,13.93,9.43,25.72,9.74,35.34,0,.08,0,.15,0,.22.04,1.29.03,2.55,0,3.76,0,.2-.02.4-.03.61,0,.22-.02.44-.03.66-.9,16.31-8.27,25.09-9.11,26.04l-.2.2-36.11,45.37c-.28.35-.55.71-.82,1.07-17.22,21.57-39.23,49.04-63.18,78.69-21.78,26.96-19.38,46.02-13.54,57.25,2.35,4.52,5.58,8.32,9.21,11.41,7.99,6.81,17.93,10.18,24.76,10.18.44,0,.87-.01,1.28-.04,9.35-.63,18.33-3.52,26.88-7.22.78-.34,1.55-.68,2.32-1.03,1.54-.7,3.06-1.42,4.57-2.15,1.51-.73,3-1.48,4.48-2.23,29.2-14.84,99.31-50.58,119.77-62,30.12-16.81,29.12-49.97,28.94-53.34ZM733.45,155.62c-5.55-5.46-8.64-12.91-8.49-20.44.05-2.35.38-3.98.49-4.52,2.05-10.08,9.17-16.69,13.89-21.07,8.17-7.58,16.36-10.69,20.76-12.36,1.08-.41,2.15-.78,3.2-1.12-4.79,3.29-8.82,7.16-12.01,11.29-7.64,9.88-11.32,21.65-11.09,33.57.16,8.19,2.17,16.46,6.01,24.22,1.19,2.4,2.57,4.76,4.12,7.05l-16.87-16.63ZM1075.27,301.01c-.9-.26-1.86-.54-2.85-.83-.26-.08-.51-.15-.78-.23-.33-.1-.67-.2-1.01-.3-.02,0-.04-.01-.06-.02-25.76-7.65-77.5-24.85-127.85-41.89-40.08-13.56-79.27-27.02-103.76-35.45-18.9-6.51-35.77-18-48.78-33.21-15.21-17.8-20.2-23.88-21.71-25.84-.65-.85-1.27-1.72-1.84-2.6s-1.11-1.77-1.61-2.68c-.25-.45-.49-.91-.72-1.36-5.97-11.88-5.37-25.42,1.95-35.8.28-.4.57-.79.87-1.18,11.78-15.25,33.64-18.09,58.47-7.61.57.24,1.17.49,1.78.75,68.64,29.25,384.57,178.42,540.71,252.34,20.91,9.9,38.96,18.45,53.16,25.18,3.68,1.75,7.26,3.68,10.7,5.8,14.94,9.16,27.54,21.69,36.84,36.71l149.03,240.65c7.4,11.95,11.98,25.46,13.39,39.41.2,1.99.34,3.99.41,6l4.24,119.91c.2,5.91-3.14,11.3-8.51,13.75l-79.71,36.21c-2.03.92-4.12,1.5-6.23,1.74-4.62.53-9.29-.56-13.39-3.24-2.18-1.43-4.02-3.18-5.47-5.18-.06-.08-.11-.17-.17-.25-.18-.25-.35-.51-.52-.77-.1-.16-.2-.34-.3-.5-.11-.18-.22-.36-.33-.55-.13-.23-.24-.47-.36-.71-.06-.13-.13-.25-.19-.38-.13-.28-.25-.57-.37-.85-.04-.09-.08-.18-.12-.28-.12-.31-.23-.63-.34-.95-.02-.07-.05-.14-.08-.21-.11-.34-.21-.69-.3-1.04-.01-.05-.03-.1-.04-.15-.09-.37-.18-.74-.25-1.11,0-.04-.02-.07-.02-.11-.07-.38-.13-.76-.19-1.15,0-.03-.01-.06-.02-.1-.05-.38-.09-.77-.12-1.16,0-.03,0-.07-.01-.1-.03-.38-.04-.77-.05-1.16,0-.04,0-.08,0-.12,1.06-7.47,4.06-14.53,8.66-20.52,20.58-25.78,34.23-43.03,36.02-45.28,1.61-1.83,7.31-8.86,11.01-20.65,0-.02.01-.04.02-.05.39-1.25.76-2.55,1.1-3.9,0,0,0-.02,0-.03.11-.45.22-.9.32-1.36,0-.02,0-.03.01-.05.1-.45.2-.91.3-1.38,0-.03.01-.05.02-.08.09-.46.18-.92.27-1.38,0-.04.01-.07.02-.11.08-.46.17-.92.24-1.39,0-.05.01-.09.02-.14.07-.46.15-.92.21-1.39,0-.05.01-.11.02-.16.06-.46.13-.93.18-1.4,0-.06.01-.11.02-.17.06-.47.11-.95.16-1.43,0-.05,0-.11.01-.16.05-.49.09-.98.13-1.48,0-.07,0-.13.01-.2.04-.49.07-.98.1-1.47,0-.06,0-.13,0-.19.03-.5.05-1.01.07-1.52,0-.05,0-.1,0-.15.02-.53.03-1.06.03-1.6,0-.08,0-.16,0-.25,0-.51,0-1.02,0-1.53,0-.08,0-.17,0-.25,0-.52-.02-1.04-.04-1.56,0-.06,0-.12,0-.19-.02-.55-.04-1.1-.07-1.66,0-.09-.01-.18-.02-.26-.03-.54-.07-1.07-.11-1.62,0-.11-.02-.22-.03-.33-.04-.53-.09-1.06-.14-1.59,0-.09-.02-.19-.03-.28-.06-.55-.12-1.11-.19-1.67-.01-.12-.03-.24-.05-.36-.07-.54-.14-1.08-.22-1.62-.02-.12-.04-.24-.06-.36-.08-.55-.17-1.11-.26-1.67-.01-.06-.02-.13-.03-.19-.1-.62-.21-1.23-.33-1.86-.02-.11-.05-.23-.07-.34-.11-.58-.23-1.16-.35-1.75-.03-.13-.06-.27-.09-.4-.12-.57-.25-1.14-.39-1.72-.04-.18-.09-.37-.14-.55-.13-.53-.26-1.06-.4-1.6-.05-.18-.1-.36-.15-.54-.15-.55-.29-1.1-.45-1.65-.04-.13-.08-.26-.11-.38-.17-.61-.35-1.22-.54-1.84-.06-.2-.13-.39-.19-.59-.17-.55-.34-1.1-.53-1.66-.07-.23-.16-.46-.23-.69-.18-.53-.36-1.06-.55-1.6,0,0,0,0,0,0-.03-.08-.06-.16-.09-.24-.24-.69-.49-1.38-.75-2.08-.05-.14-.11-.28-.16-.42-.24-.64-.49-1.28-.74-1.92-.14-.36-.3-.73-.45-1.09-.18-.43-.35-.86-.53-1.29-.13-.31-.27-.63-.41-.95-.21-.49-.42-.98-.64-1.47-.17-.38-.35-.76-.52-1.15-.2-.43-.39-.87-.6-1.31-.39-.82-.78-1.65-1.19-2.48-14.25-28.91-48.63-100.03-75.2-155.11-.62-1.28-1.24-2.56-1.85-3.83-.1-.2-.19-.4-.29-.59-18.28-37.9-32.38-67.18-32.73-67.89l-.14-.27c-5.47-10.53-21.51-27.05-46.97-25.8-.94.05-1.9.12-2.87.21-1.94.19-3.93.49-5.97.89-2.04.41-4.13.93-6.27,1.57-6.53,1.95-29.69,9.13-63.09,19.52-123.47,38.41-389.37,121.55-493.18,154.02l-34.45,9.19c-.92.24-1.6-.08-2.02-.39-.42-.31-.92-.88-.94-1.83l-1-49.07-.26-12.76c0-.95.04-1.9.09-2.86.01-.21.02-.41.03-.62.06-.88.13-1.76.23-2.63.06-.55.14-1.09.21-1.64.02-.17.05-.35.08-.52,3.13-20.33,17.61-38.11,37.66-45.45l12.05-4.41c17.72-6.49,36.11-11.03,54.8-13.55,4.49-.43,8.25-.81,11.26-1.15.35-.04.69-.08,1.03-.11.66-.07,1.29-.15,1.87-.22,1.17-.14,2.17-.26,3.01-.37l5.03-.81c.09-.01.17-.02.26-.04l216.74-34.96,13.2-2.13c.96-.14,1.92-.28,2.86-.43.01,0,.03,0,.04,0,.89-.14,1.77-.29,2.64-.44.07-.01.14-.02.21-.03,4.56-.79,8.88-1.7,12.97-2.73.13-.03.27-.06.4-.1.65-.17,1.29-.34,1.93-.51.19-.05.38-.1.57-.15.39-.11.76-.22,1.14-.32.43-.12.87-.24,1.3-.37.15-.04.29-.09.43-.13.44-.13.87-.26,1.3-.4.21-.07.43-.13.64-.19.23-.07.46-.15.69-.22,2.85-.91,5.56-1.89,8.14-2.95.02,0,.05-.02.07-.03,8.31-3.4,15.19-7.53,20.62-12.37.1-.09.2-.18.3-.27,1.33-1.2,2.58-2.45,3.73-3.74,1.18-1.32,2.27-2.68,3.26-4.09,6.91-9.81,9.19-21.7,6.61-34.41-.3-1.46-.65-2.92-1.07-4.38-.83-2.91-1.9-5.82-3.21-8.71-8.18-18.07-25.63-35.67-52.08-52.51-1.06-.67-2.13-1.35-3.22-2.02-26.09-16.1-59.34-30.57-91.23-39.68ZM816.59,665.98c6.85-2.14,15.72-4.92,26.31-8.23l1.39-.37.41-.12c1.31-.41,34.84-10.91,84.86-26.55l-14.14,13.1-46.95,15.03c-21.59,6.91-38.93,9.28-51.88,7.13ZM757.9,520.93c1.47-.06,2.94-.11,4.39-.17,19.33-.77,36.98-1.61,52.92-2.47-12.43,7.6-22.39,18.41-28.72,31.47-3,6.19-5.17,12.8-6.45,19.57-.05.28-.1.55-.15.83-.1.56-.19,1.13-.28,1.69-.06.4-.13.81-.18,1.21-.1.69-.19,1.39-.26,2.08-.05.4-.08.8-.12,1.21-.05.49-.09.97-.13,1.46-.03.37-.06.74-.08,1.11-.04.67-.07,1.34-.1,2,0,.15-.02.31-.02.46,0,.04,0,.08,0,.11-.02.76-.04,1.52-.04,2.29l1.27,62.14s0,0,0,0l.2,9.77c-15.81,3.06-41,4.63-54.36-11.95l-48.01-58.95c.23-.01.45-.03.68-.04.4-.02.8-.05,1.2-.08.48-.04.95-.08,1.42-.13.39-.04.79-.08,1.18-.13.47-.06.94-.13,1.41-.2.38-.06.77-.11,1.15-.18.47-.08.94-.17,1.41-.27.37-.07.75-.14,1.11-.22.48-.11.96-.23,1.44-.34.35-.09.7-.17,1.05-.26.53-.14,1.05-.3,1.57-.46.29-.09.58-.17.87-.26.81-.26,1.61-.53,2.41-.83,7.13-2.66,12.95-6.42,17.8-11.5,13.12-13.76,13.66-31.8,13.29-38.92-.05-.97-.07-1.81-.07-2.58v-.15s0-.15,0-.15h0s-.01-.29-.01-.29c0,0,0,0,0,0l-.33-6.62c13.25.12,24.37.05,32.56-.27ZM466.09,623.33l.36-.06,106.98-24.71,9.39-2.17-32.02,24.98-8.13,6.34c-1.34.86-2.64,1.72-3.91,2.58-7.16,4.78-12.03,8.04-21.62,8.09-.64,0-1.3,0-1.98-.03-.41-.02-.84-.04-1.29-.06-11.57-.64-37.31-4.51-61.59-13.29,6.44-.58,11.48-1.3,13.83-1.67ZM255.47,403.73c-.55-1.45-.85-2.97-.88-4.5-.05-2.14.41-4.31,1.4-6.37.85-1.76,2-3.27,3.39-4.49,2.31-2.03,5.27-3.23,8.51-3.37l66.87-2.98c4.99-.22,9.5,2.79,11.21,7.49l30.98,85.3c7.25,19.97,25.64,33.57,46.85,34.65.15,0,.32.02.47.02,13.51.69,27.79,1.45,42.46,2.22,66.15,3.5,141.1,7.46,187.88,7.84,15.57.5,30.38.92,43.93,1.21,3.83.66,6.84,3.87,7.14,7.83,0,.38,0,.77.02,1.17,0,.16,0,.31,0,.47.02.58.04,1.18.07,1.8.24,4.53-.04,15.93-7.79,24.06-2.75,2.88-6.02,4.97-10.3,6.56-4.18,1.56-8.74,2.28-13.54,2.18l-24.66-.57-3.07-.07c-2.86-.42-5.77-.55-8.69-.38-.39.02-.79.04-1.18.07-.11,0-.22.02-.33.03-3.15.25-6.29.84-9.36,1.78l-155.33,35.88c-7.74,1.79-15.58,2.98-23.31,3.56-3.53.26-6.99.44-10.3.53-16.87.42-33.6-6.08-45.88-17.9l-10.42-10.03-124.34-170.66c-.77-1.05-1.37-2.17-1.81-3.33ZM711.4,709.14c-10.5,3.22-21.39,4.86-32.38,4.86h-13.28c-21.72,0-43.1-7.37-60.21-20.75l-20.31-15.89c-13.1-10.25-28.62-17.55-44.87-21.12l-5.17-1.14c.3-.12.59-.24.89-.36.2-.08.39-.16.59-.25.47-.2.93-.4,1.39-.61.19-.09.37-.17.55-.26.45-.21.9-.43,1.34-.65.18-.09.35-.18.52-.27.43-.23.86-.45,1.28-.68.17-.1.34-.19.51-.29.41-.23.82-.47,1.22-.7.17-.1.33-.2.5-.3.39-.24.79-.47,1.17-.72.17-.1.33-.21.49-.31.38-.24.76-.48,1.13-.72.16-.1.32-.21.47-.31.37-.24.74-.48,1.1-.72.51-.34,1.02-.68,1.53-1.02,1.28-.86,2.59-1.73,3.94-2.59l.41-.26,56.73-44.25c8.71-6.79,18.56-11.58,29.29-14.23l4.88-1.21c4.16.96,8.09,3.04,11.31,6.16.21.22.43.43.64.66l1.44,1.6,51.74,63.52c1.79,2.22,3.69,4.23,5.68,6.04.05.04.09.08.14.12.45.41.91.81,1.37,1.2,0,0,0,0,0,0,16.81,14.13,39.53,15.2,57.05,13.13.03,0,.07,0,.1-.01,1.03-.12,2.04-.25,3.03-.4.09-.01.19-.03.28-.04.41-.06.83-.12,1.23-.18.17-.03.33-.05.5-.08.33-.05.66-.1.98-.16.23-.04.46-.08.69-.12.25-.04.5-.09.75-.13.43-.08.85-.15,1.27-.23.04,0,.09-.02.13-.02.28-.05.55-.11.83-.16.18-.04.37-.07.55-.11.89-.18,1.75-.36,2.59-.54,0,0,0,0,.01,0,6.21-1.36,10.76-2.82,12.68-3.46,2.52,1.31,5.47,2.51,8.97,3.46,1.95.53,4,.95,6.13,1.28l-103.79,33.23ZM1447.99,524.93l-.27-.32c-21.02-23.1-54.28-33.82-82.77-26.67l-55.19,16.68-.76-2.45c8.97-2.79,17.46-5.44,25.39-7.91,34.71-10.8,58.55-18.18,64.93-20.09,5.3-1.58,9.98-2.07,14.09-1.83,4.08.24,7.61,1.18,10.6,2.5.08.04.16.08.24.12.38.17.75.34,1.11.52.16.08.31.17.47.25.27.14.54.28.8.43.28.16.54.32.81.49.13.08.27.16.39.24.29.19.57.38.85.57.09.06.19.12.28.18.31.22.61.44.91.66.05.04.1.07.15.11,4.78,3.66,7.26,7.79,7.85,8.86.93,1.93,8.24,17.1,18.78,38.97l-8.67-11.32ZM1632.12,889.15c-.5.95-1.06,1.89-1.67,2.83-2.76,4.22-6.69,8.25-12.27,11.37-20.15,11.25-89.99,46.85-119.08,61.63-9.26,4.71-20.03,9.79-30.52,10.5-2.52.05-12.46-3.27-16.33-11.12-5.3-10.74,3.33-25.05,11.5-35.17,3.31-4.1,6.58-8.15,9.81-12.15,1.61-2,3.22-3.99,4.81-5.96.8-.99,1.59-1.97,2.38-2.95,6.98-8.67,13.72-17.06,20.13-25.06,2.84,8.46,8.44,15.84,16.18,20.9,6.71,4.39,14.37,6.61,22.08,6.61,4.97,0,9.95-.92,14.72-2.79.68-.27,1.36-.55,2.03-.86l79.69-36.2s.01,0,.02,0l1.32-.6c-.04,3.09-.56,10.23-4.08,17.59-.23.47-.46.95-.72,1.42Z"/>
</svg>