<?xml version="1.0" encoding="UTF-8"?>
<svg id="EXAMPLE_-_Turns" data-name="EXAMPLE - Turns" xmlns="http://www.w3.org/2000/svg" viewBox="0 0 1920 1080">
  <g id="Rally_Cross" data-name="Rally Cross">
    <path d="M874.40039,446.71191h-3.16406v-20.16211c-.76172.72656-1.76074,1.45312-2.99707,2.17969s-2.34668,1.27148-3.33105,1.63477v-3.05859c1.76953-.83203,3.31641-1.83984,4.64062-3.02344s2.26172-2.33203,2.8125-3.44531h2.03906v25.875Z" style="fill: #fff;"/>
    <path d="M872.98828,170.28564v3.04102h-17.0332c-.02344-.76172.09961-1.49414.36914-2.19727.43359-1.16016,1.12793-2.30273,2.08301-3.42773s2.33496-2.42578,4.13965-3.90234c2.80078-2.29688,4.69336-4.11621,5.67773-5.45801s1.47656-2.61035,1.47656-3.80566c0-1.25391-.44824-2.31152-1.34473-3.17285s-2.06543-1.29199-3.50684-1.29199c-1.52344,0-2.74219.45703-3.65625,1.37109s-1.37695,2.17969-1.38867,3.79688l-3.25195-.33398c.22266-2.42578,1.06055-4.27441,2.51367-5.5459s3.4043-1.90723,5.85352-1.90723c2.47266,0,4.42969.68555,5.87109,2.05664s2.16211,3.07031,2.16211,5.09766c0,1.03125-.21094,2.04492-.63281,3.04102s-1.12207,2.04492-2.10059,3.14648-2.60449,2.61328-4.87793,4.53516c-1.89844,1.59375-3.11719,2.6748-3.65625,3.24316s-.98438,1.13965-1.33594,1.71387h12.63867Z" style="fill: #fff;"/>
    <path d="M1289.57422,153.09961l3.16406-.42188c.36328,1.79297.98145,3.08496,1.85449,3.87598s1.93652,1.18652,3.19043,1.18652c1.48828,0,2.74512-.51562,3.77051-1.54688s1.53809-2.30859,1.53809-3.83203c0-1.45312-.47461-2.65137-1.42383-3.59473s-2.15625-1.41504-3.62109-1.41504c-.59766,0-1.3418.11719-2.23242.35156l.35156-2.77734c.21094.02344.38086.03516.50977.03516,1.34766,0,2.56055-.35156,3.63867-1.05469s1.61719-1.78711,1.61719-3.25195c0-1.16016-.39258-2.12109-1.17773-2.88281s-1.79883-1.14258-3.04102-1.14258c-1.23047,0-2.25586.38672-3.07617,1.16016s-1.34766,1.93359-1.58203,3.48047l-3.16406-.5625c.38672-2.12109,1.26562-3.76465,2.63672-4.93066s3.07617-1.74902,5.11523-1.74902c1.40625,0,2.70117.30176,3.88477.90527s2.08887,1.42676,2.71582,2.46973.94043,2.15039.94043,3.32227c0,1.11328-.29883,2.12695-.89648,3.04102s-1.48242,1.64062-2.6543,2.17969c1.52344.35156,2.70703,1.08105,3.55078,2.18848s1.26562,2.49316,1.26562,4.15723c0,2.25-.82031,4.15723-2.46094,5.72168s-3.71484,2.34668-6.22266,2.34668c-2.26172,0-4.13965-.67383-5.63379-2.02148s-2.34668-3.09375-2.55762-5.23828Z" style="fill: #fff;"/>
    <path d="M1473.48633,629.33887v-6.16992h-11.17969v-2.90039l11.75977-16.69922h2.58398v16.69922h3.48047v2.90039h-3.48047v6.16992h-3.16406ZM1473.48633,620.26855v-11.61914l-8.06836,11.61914h8.06836Z" style="fill: #fff;"/>
    <g>
      <path d="M972.9707,1003.61816l3.2168-.28125c.15234,1.28906.50684,2.34668,1.06348,3.17285s1.4209,1.49414,2.59277,2.00391,2.49023.76465,3.95508.76465c1.30078,0,2.44922-.19336,3.44531-.58008s1.7373-.91699,2.22363-1.59082.72949-1.40918.72949-2.20605c0-.80859-.23438-1.51465-.70312-2.11816s-1.24219-1.11035-2.32031-1.52051c-.69141-.26953-2.2207-.68848-4.58789-1.25684s-4.02539-1.10449-4.97461-1.6084c-1.23047-.64453-2.14746-1.44434-2.75098-2.39941s-.90527-2.02441-.90527-3.20801c0-1.30078.36914-2.5166,1.10742-3.64746s1.81641-1.98926,3.23438-2.5752,2.99414-.87891,4.72852-.87891c1.91016,0,3.59473.30762,5.05371.92285s2.58105,1.52051,3.36621,2.71582,1.20703,2.54883,1.26562,4.06055l-3.26953.24609c-.17578-1.62891-.77051-2.85938-1.78418-3.69141s-2.51074-1.24805-4.49121-1.24805c-2.0625,0-3.56543.37793-4.50879,1.13379s-1.41504,1.66699-1.41504,2.7334c0,.92578.33398,1.6875,1.00195,2.28516.65625.59766,2.37012,1.20996,5.1416,1.83691s4.67285,1.1748,5.7041,1.64355c1.5.69141,2.60742,1.56738,3.32227,2.62793s1.07227,2.28223,1.07227,3.66504c0,1.37109-.39258,2.66309-1.17773,3.87598s-1.91309,2.15625-3.38379,2.83008-3.12598,1.01074-4.96582,1.01074c-2.33203,0-4.28613-.33984-5.8623-1.01953s-2.8125-1.70215-3.70898-3.06738-1.36816-2.90918-1.41504-4.63184Z" style="fill: #fff;"/>
      <path d="M1004.64648,1009.06738l.45703,2.79492c-.89062.1875-1.6875.28125-2.39062.28125-1.14844,0-2.03906-.18164-2.67188-.54492s-1.07812-.84082-1.33594-1.43262-.38672-1.83691-.38672-3.73535v-10.74023h-2.32031v-2.46094h2.32031v-4.62305l3.14648-1.89844v6.52148h3.18164v2.46094h-3.18164v10.91602c0,.90234.05566,1.48242.16699,1.74023s.29297.46289.54492.61523.6123.22852,1.08105.22852c.35156,0,.81445-.04102,1.38867-.12305Z" style="fill: #fff;"/>
      <path d="M1019.92188,1009.59473c-1.17188.99609-2.2998,1.69922-3.38379,2.10938s-2.24707.61523-3.48926.61523c-2.05078,0-3.62695-.50098-4.72852-1.50293s-1.65234-2.28223-1.65234-3.84082c0-.91406.20801-1.74902.62402-2.50488s.96094-1.3623,1.63477-1.81934,1.43262-.80273,2.27637-1.03711c.62109-.16406,1.55859-.32227,2.8125-.47461,2.55469-.30469,4.43555-.66797,5.64258-1.08984.01172-.43359.01758-.70898.01758-.82617,0-1.28906-.29883-2.19727-.89648-2.72461-.80859-.71484-2.00977-1.07227-3.60352-1.07227-1.48828,0-2.58691.26074-3.2959.78223s-1.2334,1.44434-1.57324,2.76855l-3.09375-.42188c.28125-1.32422.74414-2.39355,1.38867-3.20801s1.57617-1.44141,2.79492-1.88086,2.63086-.65918,4.23633-.65918c1.59375,0,2.88867.1875,3.88477.5625s1.72852.84668,2.19727,1.41504.79688,1.28613.98438,2.15332c.10547.53906.1582,1.51172.1582,2.91797v4.21875c0,2.94141.06738,4.80176.20215,5.58105s.40137,1.52637.7998,2.24121h-3.30469c-.32812-.65625-.53906-1.42383-.63281-2.30273ZM1019.6582,1002.52832c-1.14844.46875-2.87109.86719-5.16797,1.19531-1.30078.1875-2.2207.39844-2.75977.63281s-.95508.57715-1.24805,1.02832-.43945.95215-.43945,1.50293c0,.84375.31934,1.54688.95801,2.10938s1.57324.84375,2.80371.84375c1.21875,0,2.30273-.2666,3.25195-.7998s1.64648-1.2627,2.0918-2.18848c.33984-.71484.50977-1.76953.50977-3.16406v-1.16016Z" style="fill: #fff;"/>
      <path d="M1027.72656,1011.89746v-18.66797h2.84766v2.83008c.72656-1.32422,1.39746-2.19727,2.0127-2.61914s1.29199-.63281,2.03027-.63281c1.06641,0,2.15039.33984,3.25195,1.01953l-1.08984,2.93555c-.77344-.45703-1.54688-.68555-2.32031-.68555-.69141,0-1.3125.20801-1.86328.62402s-.94336.99316-1.17773,1.73145c-.35156,1.125-.52734,2.35547-.52734,3.69141v9.77344h-3.16406Z" style="fill: #fff;"/>
      <path d="M1046.6582,1009.06738l.45703,2.79492c-.89062.1875-1.6875.28125-2.39062.28125-1.14844,0-2.03906-.18164-2.67188-.54492s-1.07812-.84082-1.33594-1.43262-.38672-1.83691-.38672-3.73535v-10.74023h-2.32031v-2.46094h2.32031v-4.62305l3.14648-1.89844v6.52148h3.18164v2.46094h-3.18164v10.91602c0,.90234.05566,1.48242.16699,1.74023s.29297.46289.54492.61523.6123.22852,1.08105.22852c.35156,0,.81445-.04102,1.38867-.12305Z" style="fill: #fff;"/>
    </g>
    <path d="M1714.01074,480.35449l3.32227-.28125c.24609,1.61719.81738,2.83301,1.71387,3.64746s1.97754,1.22168,3.24316,1.22168c1.52344,0,2.8125-.57422,3.86719-1.72266s1.58203-2.67188,1.58203-4.57031c0-1.80469-.50684-3.22852-1.52051-4.27148s-2.34082-1.56445-3.98145-1.56445c-1.01953,0-1.93945.23145-2.75977.69434s-1.46484,1.06348-1.93359,1.80176l-2.9707-.38672,2.49609-13.23633h12.81445v3.02344h-10.2832l-1.38867,6.92578c1.54688-1.07812,3.16992-1.61719,4.86914-1.61719,2.25,0,4.14844.7793,5.69531,2.33789s2.32031,3.5625,2.32031,6.01172c0,2.33203-.67969,4.34766-2.03906,6.04688-1.65234,2.08594-3.9082,3.12891-6.76758,3.12891-2.34375,0-4.25684-.65625-5.73926-1.96875s-2.3291-3.05273-2.54004-5.2207Z" style="fill: #fff;"/>
    <path d="M1444.5166,719.91797l-3.14648.24609c-.28125-1.24219-.67969-2.14453-1.19531-2.70703-.85547-.90234-1.91016-1.35352-3.16406-1.35352-1.00781,0-1.89258.28125-2.6543.84375-.99609.72656-1.78125,1.78711-2.35547,3.18164s-.87305,3.38086-.89648,5.95898c.76172-1.16016,1.69336-2.02148,2.79492-2.58398s2.25586-.84375,3.46289-.84375c2.10938,0,3.90527.77637,5.3877,2.3291s2.22363,3.55957,2.22363,6.02051c0,1.61719-.34863,3.12012-1.0459,4.50879s-1.65527,2.45215-2.87402,3.19043-2.60156,1.10742-4.14844,1.10742c-2.63672,0-4.78711-.96973-6.45117-2.90918s-2.49609-5.13574-2.49609-9.58887c0-4.98047.91992-8.60156,2.75977-10.86328,1.60547-1.96875,3.76758-2.95312,6.48633-2.95312,2.02734,0,3.68848.56836,4.9834,1.70508s2.07129,2.70703,2.3291,4.71094ZM1431.59668,731.02734c0,1.08984.23145,2.13281.69434,3.12891s1.11035,1.75488,1.94238,2.27637,1.70508.78223,2.61914.78223c1.33594,0,2.48438-.53906,3.44531-1.61719s1.44141-2.54297,1.44141-4.39453c0-1.78125-.47461-3.18457-1.42383-4.20996s-2.14453-1.53809-3.58594-1.53809c-1.42969,0-2.64258.5127-3.63867,1.53809s-1.49414,2.37012-1.49414,4.03418Z" style="fill: #fff;"/>
    <path d="M1309.21289,510.98291v-3.04102h16.68164v2.46094c-1.64062,1.74609-3.2666,4.06641-4.87793,6.96094s-2.85645,5.87109-3.73535,8.92969c-.63281,2.15625-1.03711,4.51758-1.21289,7.08398h-3.25195c.03516-2.02734.43359-4.47656,1.19531-7.34766s1.85449-5.63965,3.27832-8.30566,2.93848-4.91309,4.54395-6.74121h-12.62109Z" style="fill: #fff;"/>
    <g>
      <path d="M1205.60254,618.90234l3.07617-.42188c.08203,1.96875.45117,3.31641,1.10742,4.04297s1.56445,1.08984,2.72461,1.08984c.85547,0,1.59375-.19629,2.21484-.58887s1.04883-.92578,1.2832-1.59961.35156-1.74902.35156-3.22559v-17.75391h3.41016v17.56055c0,2.15625-.26074,3.82617-.78223,5.00977s-1.34766,2.08594-2.47852,2.70703-2.45801.93164-3.98145.93164c-2.26172,0-3.99316-.65039-5.19434-1.95117s-1.77832-3.23438-1.73145-5.80078Z" style="fill: #fff;"/>
      <path d="M1223.76074,616.88086c0-3.45703.96094-6.01758,2.88281-7.68164,1.60547-1.38281,3.5625-2.07422,5.87109-2.07422,2.56641,0,4.66406.84082,6.29297,2.52246s2.44336,4.00488,2.44336,6.96973c0,2.40234-.36035,4.29199-1.08105,5.66895s-1.76953,2.44629-3.14648,3.20801-2.87988,1.14258-4.50879,1.14258c-2.61328,0-4.72559-.83789-6.33691-2.51367s-2.41699-4.08984-2.41699-7.24219ZM1227.0127,616.88086c0,2.39062.52148,4.18066,1.56445,5.37012s2.35547,1.78418,3.9375,1.78418c1.57031,0,2.87695-.59766,3.91992-1.79297s1.56445-3.01758,1.56445-5.4668c0-2.30859-.52441-4.05762-1.57324-5.24707s-2.35254-1.78418-3.91113-1.78418c-1.58203,0-2.89453.5918-3.9375,1.77539s-1.56445,2.9707-1.56445,5.36133Z" style="fill: #fff;"/>
      <path d="M1244.97754,626.21484v-25.76953h3.16406v14.69531l7.48828-7.59375h4.0957l-7.13672,6.92578,7.85742,11.74219h-3.90234l-6.16992-9.54492-2.23242,2.14453v7.40039h-3.16406Z" style="fill: #fff;"/>
      <path d="M1275.73926,620.20312l3.26953.4043c-.51562,1.91016-1.4707,3.39258-2.86523,4.44727s-3.17578,1.58203-5.34375,1.58203c-2.73047,0-4.89551-.84082-6.49512-2.52246s-2.39941-4.04004-2.39941-7.0752c0-3.14062.80859-5.57812,2.42578-7.3125s3.71484-2.60156,6.29297-2.60156c2.49609,0,4.53516.84961,6.11719,2.54883s2.37305,4.08984,2.37305,7.17188c0,.1875-.00586.46875-.01758.84375h-13.92188c.11719,2.05078.69727,3.62109,1.74023,4.71094s2.34375,1.63477,3.90234,1.63477c1.16016,0,2.15039-.30469,2.9707-.91406s1.4707-1.58203,1.95117-2.91797ZM1265.35059,615.08789h10.42383c-.14062-1.57031-.53906-2.74805-1.19531-3.5332-1.00781-1.21875-2.31445-1.82812-3.91992-1.82812-1.45312,0-2.6748.48633-3.66504,1.45898s-1.53809,2.27344-1.64355,3.90234Z" style="fill: #fff;"/>
      <path d="M1282.94629,626.21484v-18.66797h2.84766v2.83008c.72656-1.32422,1.39746-2.19727,2.0127-2.61914s1.29199-.63281,2.03027-.63281c1.06641,0,2.15039.33984,3.25195,1.01953l-1.08984,2.93555c-.77344-.45703-1.54688-.68555-2.32031-.68555-.69141,0-1.3125.20801-1.86328.62402s-.94336.99316-1.17773,1.73145c-.35156,1.125-.52734,2.35547-.52734,3.69141v9.77344h-3.16406Z" style="fill: #fff;"/>
    </g>
  </g>
</svg>