<?xml version="1.0" encoding="utf-8"?>
<!-- Generator: Adobe Illustrator 24.0.1, SVG Export Plug-In . SVG Version: 6.00 Build 0)  -->
<svg version="1.1" id="Background_Details" xmlns="http://www.w3.org/2000/svg" xmlns:xlink="http://www.w3.org/1999/xlink" x="0px"
	 y="0px" viewBox="0 0 1920 1080" style="enable-background:new 0 0 1920 1080;" xml:space="preserve">
<style type="text/css">
	.st0{fill:#636466;}
	.st1{fill:#C7C8CA;}
</style>
<title>background</title>
<g id="Pavement">
	<path class="st0" d="M485.4,734.5l8.3-1.8l-14.8-20.4l-1.5,10.1c-5.3-4.5-10.7-8.6-16-12.4l3.8-6.5l-3.3-1.8l-3.5,6
		c-33.6-23.5-64.5-33.9-64.5-33.9l16.6-6.2l-13.6-9.2l-65.5-41.8c-44.1-24.6-33.9-68.4-33.9-68.4l-0.3-0.1
		c20.3-38.3,53.6-37.5,53.6-37.5l113.1,2.4l17.8-5.8l20.7,1.3l65.3-0.9c58.2,0.9,88.2-36.2,88.2-36.2c34.7-32.7,20.7-74,20.7-74
		c-13.6-39.8-58.7-37.8-58.7-37.8l-17.1,1.8l-2.5-3.5l-18.4-0.2l-109.3-0.2l-116-0.7c-74,2.4-102.5,19.1-102.5,19.1l-6.9-0.2
		l-59.8,46.2c-50,45.3-46.7,102-46.7,102c0,50.4,31.1,73.3,31.1,73.3l-3.3,16l37.8,26l46.2,19.1l56.7,24l26.2,30.5l20.2,6.2
		l14.2,36.4c33.8,53.3,54.7,57.8,54.7,57.8l3.1,3.1l6,3.6l29.8,0.9c22.7,0,25.8-24.7,25.8-24.7v-40.3
		C488.1,735.1,485.4,734.5,485.4,734.5z M320.8,643.8c27.5,15.8,58.7,27.3,58.7,27.3l4.9,8.5c31,7.1,62.8,29.8,69.9,35.1l-8.5,14.5
		l-3.3-4.4L422,709.9l-40-25.5l1.5-3.3l-4.7-8l-31.1-13.3c-9.7-3.5-20-10.3-29.5-17.8C319.8,643.2,320.8,643.8,320.8,643.8z
		 M440.6,730.8l-3.6,3.6l-3.6-1.8l-7.5,15.1l-5.3-2.9l-5.8,8.9l-6.9-5.3l-10.5-14.9l-8.4-15.1l-10-25.8l5.6-2.7l10.2,8.2l20.4,12.5
		l21.8,16.7L440.6,730.8z M479.5,798.7c-9.5,22.8-34.4,14.2-34.4,14.2c-40.6-18.4-72.6-63.4-72.6-63.4C363.1,718.7,353,698,353,698
		c-21-40.6-76.8-66.6-76.8-66.6l-21.9-11.3l-21-4.7l-27.3-7.1c-64-21.3-59.9-82.7-59.9-82.7c0.3-74.7,64.3-113.8,64.3-113.8
		l24.9-12.1l2.4-2.7l11.9-7.4l3.8-5c11.3-5.9,40-12.8,40-12.8c38.5-7.1,99.9-8.3,99.9-8.3l93.9-0.6l92.7,5.9l38.2-1.8
		c51.5-1.5,53,44.5,53,44.5c-1.2,65.8-72.9,86.2-72.9,86.2c-19.9,5.3-45.3,4.7-45.3,4.7l-42.7-3.2l-43.3-3.3l-31.1-2.1l-54.2-0.3
		l-101.2,3.8l-9.3-2.2l-12-1.8l-16,0.9l-11.7,8.1l-3.5-0.9l-2.7,1.5l-7.7-11.3l1.5-4.7l4.7-16l14.2-6.8l59.9-23.4l22.2-7.4l14.2-2.1
		l40,5l11.3,1.8l25.2-0.3l12.7,4.7l16,2.1l0.9-5.3l-3.9-0.6l0.6-3l-11.3-1.5l-4.2,2.1l-7.1-2.1l-14.2-1.8l-12.7,1.2l-3.3-0.9
		l2.7-18.7l61.6,8.3l-5.9,10.4l8,0.6l6.8-9.2l16.9,0.3c-3.3,8-20.7,15.1-20.7,15.1l1.5,2.7c11-3,24.9-16.3,24.9-16.3
		c30.8,2.7,37.3-0.6,37.3-0.6c11.6-1.8,22.2-17.8,22.2-17.8l-5.3-0.8c-4.7,8-14.4,12-14.4,12c-13.3,6.7-57.8,0.4-57.8,0.4l-57.5-8
		c-23.6-4-35.3,1.6-35.3,1.6l-67.5,18.7l-46,7.3l-10,2l-30.9,14c-20.2,12.4-12.7,25.8-12.7,25.8c-4.7,15.1-3.5,31.5-3.5,31.5
		l-6.5,0.5l-0.9,8.2l6.7,21.5l22,36l7.8-3.3l-2.7-4.2l4.7-1.3l5.1,1.1l2.2-2l24,24.2l29.8,32.9c18.2,20.2,48.7,35.3,48.7,35.3
		c11.3,3.8,23.1,16.2,23.1,16.2l8.7,12.7l15.3,31.5c13.1,22.9,22,34.7,22,34.7l5.1,4.7l21.5,16l19.6,9.3h5.1l2.7-2.4l11.1-37.1
		c0,0-2.7-1.8-3.3-1.8c-1.8,0.4-3.6,0.9-5.3,1.5l-16-15.1l8.2-14.1l16.7,14c5.3,2.7,5.9,10.7,5.9,10.7L479.5,798.7z M230.9,549.6
		L217.3,536l-5-12.4l-2.7,0.6c-5.3-17.5-0.3-34.4-0.3-34.4l15.9,17.2l3.6,3.6l7.8,17.1l6.3,11.5h-0.5l3,5.9l15.6,30.7l12.7,19.1
		c2.1,4,4.5,7.8,7.2,11.4L241,567.1l2.7-1.5L230.9,549.6z M208.8,470.1l2-4l7.1-7.3l23.5-10.5l16.5-0.7l-5.3,3.1l-10.7,4.4l-16,6.9
		l-8.7,5.3l-7.3,7.8L208.8,470.1z"/>
	<polygon class="st0" points="574.3,740.7 506.2,724.1 505.6,778.3 492.3,831.4 576.1,836.4 557.2,794.9 	"/>
	<path class="st0" d="M1251.4,495.9l-10.2-27.6c-12.7-40.4-52-46.2-52-46.2l-50.7-11.8l-34-10.2l2.9-0.2l77.8,17.8
		c38.5,5.5,54.7,37.8,54.7,37.8l14.4,42l35,21.3c-21.6-17.5-31.1-53.9-31.1-53.9c-12.2-53.6-67.3-62.5-67.3-62.5L1032.1,368l61.6,37
		L1251.4,495.9z"/>
	<path class="st0" d="M1876.6,514.3l6.2,45.8l11.6,10.7l31.1,10.2l1.8-58.7l-30.7-103.1l-19.1-21.3l-34.2-42.2l-23.6-21.3l-16.4,2.7
		l-55.6-21.4l-29.8-12l-11.1-4.9l-8.4,0.9l-32.9-12l-18.2-10.2c-3.1-8.9-9.5-10.2-13.9-9.9l1-5.2c0,0-91.1-19.5-92.4-19.5
		s0.9-3.6,0.9-3.6l60.4,12.5l10.7-56l-9.3-1.8l2.7-11.6l-11.6,2.7c0,0-56.5-8.4-58.2-8s-40.4-20.9-40.4-20.9l-24.9-4.9l-60.4,2.2
		l-35.1,9.8l-60.4,25.8l-23.1-4.4l-14.2-3.1l-4-4.9L1401,83.2c52-25.8,95.6,0.5,95.6,0.5l122.2,71.1l100.4,67.1l97.8,86.2l52,56.9
		l54.8,62.2l2.2-35.5l-118.2-111.6l-91.6-81.3l-124.9-78.2L1502,71.2c-60-32-112.4,7.6-112.4,7.6l-80.9,58.1l1.8-3.4
		c48-40.4-7.6-136.9-7.6-136.9l-29.3-0.5c21.7,9.3,41,60.2,41,60.2c9.2,24.6,2.1,49.2,2.1,49.2c-12.8,29.3-32.9,35.9-32.9,35.9
		c-11.6,2.4-9.5-3.6-9.5-3.6c25.8-12.7,33.2-35.3,33.2-35.3c5.7-22.5-5.3-30.2-5.3-30.2c-31.4-20.2-50.4,5.6-50.4,5.6
		c-12.4,13.6,3.3,22.2,3.3,22.2c-1.5,16-20.2,34.1-20.2,34.1c-17.8,16.6-10.7,32.9-10.7,32.9c-3.8,4.5-16,1.5-16,1.5
		c-85.6-26.1-148.2,4.4-148.2,4.4l-117.6,40.3l-86.8,24.9c0,0-26.4,4.1-27.3,4.1l-111.1-0.9l-261.3-3.3l-99-0.9
		c-111.7-0.9-196.7,51.3-196.7,51.3c-69,43-95.7,81.8-95.7,81.8C23.5,360.6-5.2,360-5.2,360l0.8,7.6c48.9-2.9,57.2,19,57.2,19
		c-22.5,23.7-38.2,60.4-38.2,60.4c-21,50.4,3.8,137.8,3.8,137.8l35,111.1c12.2,46.5,41.8,64.6,41.8,64.6c44,28.4,82.7,32,82.7,32
		l0.1-0.2l-0.1,0.2c33.7,7.7,45,24,45,24l24.6,39.4c15.4,29.6,38.2,45,38.2,45c24.3,16.3,53,17.2,53,17.2l268.4,3
		c13.5-0.8,27,2,39.1,8l36.7,21.6c18.1,14.8,47.7,16.6,47.7,16.6l100.2-0.6l48-5.3l0.9,3h31.1l53.6,0.9l47.7-1.5l22.5-3.5
		c11.3,1.5,15.7,7.7,15.7,7.7l0.6,7.7h10.4l1.5-47.7h-10.1l0.3,11.8l-0.9,5l-5.9,5.9l-9.5,1.8l-85,1.5
		c-18.7-0.3-16.3-13.9-16.3-13.9c2.1-10.7,40.6-15.1,40.6-15.1c43.6-6.2,105.2-2.7,105.2-2.7c11.8,0,25.5,8.9,25.5,8.9l25.8,16.3
		l23.4,8.9l207.1,1.1l32.3-5.3l23.7-3.6l97.8-2.4l41.8-5.9l23.4-5.3l51-9.2l80.6-0.3l13-3.5l76.2-2.7c71.1-10.2,80.9-69.8,80.9-69.8
		c4.9-25.8,1.8-81.3,1.8-81.3l16.4-25.8l0.9-32.4l-9.3-10.7l-9.8-20.4l-4.4-94.2h0l0-0.1l-1.8-17.5l-7.7-77.6l-10.4-63.1
		c-11.6-60.1-73.8-77.9-73.8-77.9l-62.1-23.2l4.1-8.6l67.6,24.9l17.3,9.8c0,0,34.7,36,34.2,37.3c-0.4,1.3,17.8,29.3,17.8,29.3
		l8.4,48.9l-1.8,19.1L1876.6,514.3z M1558.3,267.7l31.1,4.9l40.4,12.9l0,0v0c0,0,14.7,5.8,16,5.8s37.3,8,37.3,8l5.8,3.6l24.9,11.1
		l-3.4,6.4l-0.2-0.1l-61.9-23.4l-61.3-21l-29-5L1558.3,267.7z M1478.3,258.3l66.7,6.2l0.3,5l-25.7-2.3l-42.2-3.8L1478.3,258.3z
		 M1278.3,196.2l11,5l3.6-12.7l20.7,3.9l0.3,9.2c0,0,24.5,21.8,22.7,22.2s28,15.1,28,15.1l20.9,6.7l32,4.9l51.6,6.2
		c0,0,0.2,3.8,0.7,6.2l-39.1-3.5l0,0.1l-40.3-4.2l-27.8-5.6l-24.6-10.7l-32.9-19.3l-30.6-20.7L1278.3,196.2z M1223.8,253.6
		l15.1-21.6l11.3-7.4l17.2-3l11.8,4.1l20.2,11.3l37.4,21.3l27.3,9.8l32.8,6.5l32.9,2.7l-1.1,6.8l-1.8,5.6l-4.4,1.8l-50.1-8.6
		l-1.5,6.5l-38.2-13l1.3-0.3l-16-12.9l-30.7-20.9l-11.1-3.6h-20l-3.5,5.8l5.3,0.9l-4.5,6.7l-5.3,8.6l-3.9-1.4l-3.8,7.7l10.7,4.1
		l-0.9,5.6l-5.6-0.9l-7.7,74.7c-1.8,8.3,3,7.7,3,7.7l24.6,6.5c5.9,1.2,6.5-3.8,6.5-3.8l3.6-13.6l3.3-3.5l16.9-17.2l2.7,1.8l6.2,2.4
		l14.2-13.7l-3.3-3.3l1.2-10.4l-12.2-7.1l0.6-3l2.7-8.9l-4.8,0.6l0.3-6.2l6.2,0.6l13.3,3.3l15.7,11.3l12.7,1.2l-0.3,9.5l7.7,1.2
		l-0.9,9.2l43.8,7.4l1.2,20.2l-0.6,5.9l-16,36.1l-3.3,13.6l-7.7,5.9l-5.9,2.7l-19.3-3.3l-9.5,3.3c7.7,16,3.8,45.6,3.8,45.6
		c-2.4,16,0.9,24.6,0.9,24.6l8.9,18.1l22.2,23.7l33.2,35.5l5.9,4.2l17,8.5l0.2-0.2l-0.1,0.2l19.8,10.2l16.9,9.6l35.3,36.2l11.4,13.5
		l-19.3-11.9l-20.7-9.8l-28.1-12.5l-59-37l-16.9-13.9l-18-18.7l-8-9.2l-31.4-28.5l-14.2-29.6l-11-46.5c0,0-2.1-12.2-15.1-13.6
		l-32.9-4.7l-6.8-1.8l-12.4-7.7l-7.1-10.4l-2.3,0.2c0.5-11,4.3-90,3.2-90.6c-1.2-0.6,3.6-25.5,3.6-25.5L1223.8,253.6z M1320.5,276.7
		l-15.5-4.1h-11l-11,0.9l-27.8-10.2l10.6-16.6l3.5-1.8l10.2,2.2l34.7,20.9L1320.5,276.7z M1386.1,403.2l-6,10.2l-2.7,15.1l-0.9,62.9
		l-2.9,0.2l-2-20.5l3.1-46l2.4-11.8l4.4-6.9L1386.1,403.2z M1362.8,450.1l-1.8,12l-7.1-0.7l1.6-11.8L1362.8,450.1z M1455.8,554.6
		c15.7,6.5,53,21.3,53,21.3l8.3,5.6l40,57.2l-3.3,7.7l18.8,15.2l-0.7,1.4l-35.3-28.4l-0.3,0.1l-18.5-17.1l-26-22.9l-33.8-27.8
		l-21.6-17.3c-5.5-7.5-7.1-17.2-4.2-26l-2.3-4.9l21.9,3.8l3.8-6.2l-27.8-4.7l1.4-11.3l24,10.7l7.9,1.7l-14.8,21.7
		C1446.6,534.5,1440.1,548.1,1455.8,554.6z M1528,638.9l-5,2.5l-2.6-1.6l-15.6-25.9l16.2,12.9L1528,638.9z M1096.1,193.1l4.4-9.5
		c29.6-15.5,78.2-4.5,78.2-4.5c28.5,7.1,33.5,27.6,33.5,27.6l4.2,10.1l-5.6,15.1l4.4,9.5l-0.6,5.6l-14.2,34.7l-41.2,95.4l9.2,3
		l34.1-83.5h3.6l-5.5,85.5l-27.8,2.8l-19-6.5l-23.1-20.7l-8.3,2.1l-35.3-13.3l-20.4-8.9l-16.9-6.5l-44.2-11l-27-7.7
		c0,0-28.7-7.4-46.7,30.5l-5,5.9l-3.9,3L899.4,389l-35.3,47.1l-30.8,34.4l-27,29c0,0-37.9,46.8-50.1,79.1l-19.8,74.1l-5.6,21
		c0,0-1.8,16.9-41.5,27.6l-33.5-1.2l-30.5,0.3l-61.6,6.8c0,0-36.7,1.5-82.7-26.7l-0.2-0.2l8-12.1c0.8-0.8,1.8-1.3,2.9-1.5
		c1.5-0.2,4.2-0.7,4.2-0.7l55.8-1.3l31.5,7.5l22,4.7l20.2,4.2l15.6,5.1c0,0,66.4,5.8,78.2-68.9l12.7-55.5l6.2-20.9l8.7-23.1l4.7-9.3
		l19.8-28.9l12.9-18l25.1-23.1l34-26.9l17.3-14l28.2-31.8l13.1-16l34.2-35.1l18.5-12c0,0,10.9-3.1,11.5-3.1s34.9,7.3,34.9,7.3l4-12
		c0,0,29.3,4.2,52,13.6l33.1,12.9l27.8,14.5l11.3-2l8.9-9.8l9.3-12.9l15.3-26.4l-5.1-2.2l-21.1,33.3c0,0-9.3,12.9-24.2,10.9
		l-6.9-2.5l-11.3-6.9c0,0-18.4-10.7-33.3-13.5l-28.7-9.6l-4.9-2.4l8.4-19.3l87.8,38.7c30.4-7.3,22.7-33.1,22.7-33.1
		c16-3.3,14.4-35.8,14.4-35.8c-2-15.1,6.9-14.2,6.9-14.2c28.2,2.7,19.8-27.1,19.8-27.1c-6.7-22.7-41.3-14.1-41.3-14.1l-40.9,13.9
		l-4.2,5.6l-5.1,1.8l-2-6.6L1096.1,193.1z M744.4,341.5C718,321.7,662.6,322,662.6,322l-11.3-4.1l-14.2,2.1l-67.3-5.4
		c0,0-70.5-5-133-8.6s-122.1-2.4-122.1-2.4c-90.4,15.4-145.5,59.5-145.5,59.5c-44.4,29.3-69,75.9-69,75.9
		c-31.7,50.1-23.4,117.6-23.4,117.6c2.7,51.9,31.4,71.6,31.4,71.6l57.5,24l0.6-1.2l33.5,12.2c18.1,7.7,63.4,27.6,63.4,27.6
		c-1.2,3,1.5,5.3,1.5,5.3c25.2,18.7,19.3,43,19.3,43l-5.9-0.3l-0.6-8.3c-4.1-44.8-61.6-57.8-61.6-57.8L182,660.1l-67-22.5
		c-32.6-19.6-37.6-54.2-37.6-54.2c-15.1-86.5,16.9-139.9,16.9-139.9c24.3-51.6,74.1-84.7,74.1-84.7c37.3-30.5,107.5-51.3,107.5-51.3
		c24.5-6.1,49.7-9.3,75-9.5l76.1,1.3l35.6,5l18.7,1.5l150.8,10.7l13.6-2.7l72.3,11.6l20.2,1.2l14.2,3l1.8-0.1l-0.2,6.3l-4.5,2
		l-0.7,31.3c0,0-6.8,43.3-18.1,64.8C750.3,386.8,744.4,341.5,744.4,341.5z M753,439.4c0,0,31.7-58.3,28.7-111.3l19.8-1l-0.6-6.8
		c1.6,3.5,2.3,8.4,1.3,15.3c0,0-10.8,73.5-35.4,108.4l-22.4,29.8c0,0-22.7,28-35.3,39.5l-15.8,12.7l-28.2,15.6l-62.9,24.2l-47.1-2.2
		l-50.4-4l-25.6-3.3l-41.3-4.9c0,0-16.2-3.5-21.6,6.5l-11.8-1.1c0,0-2.2,7.5,4,8c0,0,1.5,33.8,21.5,46.4l112.2,49.3l-56.7,1.3
		l-9.1,15.5l-91-65c0,0-16.9-22.5-15.1-52.2c0,0,0.3-16,19-15.4l27.6,0.9l22.5,4.7l66.1,7.1l63.7,2.4l17.8,2.7l12.2-3.8l85.3-31.4
		C684.6,527.4,731.4,484.4,753,439.4z M776.8,466.1l-29.6,41.6l-7.3,15.5l-8.9,18.9l-5.6,19.1l-6.2,23.3l-6,24.7l-5.3,3.6l-23.6,18
		l-2.9,5.5l-3.1,17.1l-3.8,1.1l-3.8,6.9l2.2,2.9l-3.6,9.1c-21.1,11.8-31.8,6.9-31.8,6.9c-13.3-7.1-18.5-8.7-18.5-8.7l2.2-5.8
		l29.3,7.1c15.1,0.7,18.7-9.8,18.7-9.8l-0.7-8.9c0,0-1.1-9.5-1.8-9.5s-6.9,4.7-6.9,4.7l-5.3,2.9l-8.7-2c-13.8-8.4-20.4,0-20.4,0
		l-7.3-3.1l-2.2,4.5h-8l-2.7,8.4l4.5,3.1l-2.7,7.1l-32.2-4.9l-21.8-6l-19.5-8.9l-12.7-6.2l-11.1-11.8l-5.1-9.8l3.1-2.2l14.7-4.2
		l32-10.9l9.3-5.1l6.9-5.3c0,0,8-13.3,8-14s6.2-8.4,6.2-8.4s5.8-2,6.4-2s9.3,1.3,9.3,1.3s-1.6,17.8-1.6,18.4
		c-0.4,1.6-0.8,3.1-1.3,4.7l-5.1,3.1l-20.7-2.9l-2.9,3.8l30,4l4.2-4l2.9-6.2l1.1-20.2l24.7,2.7l9.3,20.7l2,20l5.1-1.1l-2-18.7
		l4.6-11.9l1.2,6.3l3,0.5l4.7-1.3l5.9-2.4l11.7-7.4l21.6-13.3v6.1l-7.7,11.5l-3.5,0.3l-1.9,1.3l-2.1-1.6l-1.9-3.8l-13.2,7.4l3,5.6
		l5.9-2.2l3-0.6l3.3-0.6l1.5-2.1l1.9-0.7l3,1.3l2.8-0.6l2.1-1.2l-0.5-2.4l1.2-2.4l6.2-9.6l0.5-7l12.6-17l6.7-8.5l1.3-3.1l4-9.2
		l0.7-5.2l4.9-7.4c5.9-4.4,9.5-15.4,9.5-15.4l1.9-3.4l-8.5-6.5l37.1-42.2c8.9-2.1,9.2,2.1,9.2,2.1l-6.9,10L776.8,466.1z
		 M495.2,616.1l-26.2,1.3l-14.9-0.9l-6.4-3.8l-14-5.6c0,0-22.2-18.9-16-41.3c0,0,3.8-12,32.9-8.5l49.8,4.9l3.1,2.7
		C503.4,565,478.1,581.4,495.2,616.1z M518.8,565.7l19.3,0.7l39.6,4.9l-3.6,7.3l-10.4,15.5l-6.7,4.5l-29.8,12.2l-20,5.1l-6,0.2
		l-2.9-6.7C498.3,609.4,481.2,573.4,518.8,565.7z M479,623.7c4.2-3.1,20-2,20-2l7.6,15.1c1.5,2.7-0.9,2.2-0.9,2.2l-23.6-10.2
		C476.8,627,479,623.7,479,623.7z M693.1,558.8l-0.2,2.5l-3.8,1.6l-0.5,2.4l-7.7,5.3l-7.3,7.8l-4,1l-9.2,6.8l-5-0.6l-2.3-6.6
		l6.7-9.9l10.2-10.4l14.9-13.3l16.2-17.1l24-26.6l4.5,5.2l0.2,7.3l-4,3.4l-4.5,4.3l-3,4.2l-3.4,3.5l-4.3,2.1l-3.3,3.5l-1.3,6.4
		l-8.6,8l-3.4,4.3l-0.7-3.8l-2.2,2.1L693.1,558.8z M825,338.6l-8-6.7c0,0,4.9-13.1,12.9-11.6c0,0,4.2-0.7,4.7,8.9l3.1,8.5
		c0,0,0.2,4-5.1,2.9l0,0L825,338.6z M819.9,340.3l0.9,4.2l-7.3-1.1l1.3-4.2L819.9,340.3z M821.2,359.7l0,2.7l-5.3,6.7l-2.9-0.7
		l-2.9-7.5l1.1-2.2L821.2,359.7z M976.6,288.8c0,0-13.8,0.9-11.3-10.5c0,0,0.9-4.2,3.1-4.9l13.6-4.4c0,0,5.1-0.4,6,6.9
		C987.9,275.9,990.6,288.1,976.6,288.8L976.6,288.8z M1008.9,260.6l10.7,5l-6.2,16.1C1012.2,275.3,1009.6,263.6,1008.9,260.6z
		 M1053.9,253.9c23.1-5.8,21.6-21.1,21.6-21.1l7.6-2.7l1.1,17.1l1.8,10.7l-8,17.5l-51.3-22.7l0.9-2.7l7.8-2.9
		C1038.3,251.7,1053.9,253.9,1053.9,253.9z M1049,241.9l12.4-4.2c0,0-1.1,6.4-8.4,5.8L1049,241.9z M1135.7,258.1
		c8.7-11.5,7.6-27.1,7.6-27.1c4-3.6,5.6,2.2,5.6,2.2l0.2,5.6c5.6,13.5-5.6,22.4-5.6,22.4l0,0C1134.1,267,1135.7,258.1,1135.7,258.1z
		 M1130.8,217.7c0,0-3.1-1.3-0.7-4.7l18-5.8c0,0,2,7.8-2,10C1146.1,217.2,1140.8,223,1130.8,217.7z M1160.6,210.6
		c-0.1-4.2,3.3-7.7,7.6-7.8s7.7,3.3,7.8,7.6c0,0,0,0.1,0,0.1c0,4.2-3.3,7.6-7.5,7.7c0,0,0,0,0,0l0,0
		C1164.1,218.2,1160.6,214.8,1160.6,210.6z M1120.6,241.3c-0.2,4.4-4,7.7-8.3,7.5c-4.2-0.2-7.5-3.7-7.5-7.9c0.1-4.5,3.9-8,8.3-7.9
		C1117.5,233.2,1120.8,237,1120.6,241.3z M1098.1,267.2l9.6,2.5l12.4-1.6c0,0,8.2-1.8,9.8,6.5l3.3,11.5c0,0,4.2,12.7-8,10h0
		l-34-14.2C1091.2,281.9,1083.9,271.7,1098.1,267.2z M1004.6,241.1L1004.6,241.1l-13.1,5.2l-4.7,2.2L883.7,287
		c0,0-31.6,5.1-22.5,30.9c0,0,13.1,20,32.2,1.5c0,0,5.3-6.4,3.3-16.7c0,0,0.4-4.9,8.9-7.8l13.3-3.8l-7.6,13.3l2.5,4.2
		c0,0-4.7,4.4-11.3,16c0,0-8.2,14.7-21.1,16.2l-0.7-5.8c0,0-29.3,1.3-28.5-26.9c0,0,1.8-7.3,5.1-10.9l-3.3-0.9l2.4-4.4l68.4-26.7
		l144.3-56.9l15.1-5.6l5,2.1l1.8,4.9L1004.6,241.1z M145.6,765.9l-34.1-14.8L92,735.7l-11-18.4l-20.4-50.7l-24-80.9L31.8,533
		l2.4-22.5l6.2-19l7.4-16.3l11.6-18.4l3.6,3l-3.3,5.6l-4.2,12.1l-3.8,24l5,1.5l3.6-19.5l6.8-26.7l7.4-17.8L86,419.8l25.5-36.1
		l21-24.3l40.3-28.4l35-19.3l38.8-15.7l57.5-14.3l22.2-2.4h27l74.4,3l76.7,1.2l68.1,1.5l7.1,13.6l47.4,2.7l0.3-8.6v-3.5l11.3-1.5
		l21.9-1.2l43.5-5.6l26.7-1.8l13.3,4.1l34.4-1.5l25.8-8.9l10.1-1.2l19.6-5l5.3-4.4l19.8-5.9c0,0,30.5-6.5,32.3-7.1
		s18.7-5.6,18.7-5.6l46.8-17.2l130.1-42.7l3.3,1.2l-7.7,9.8l-5.6,4.4l-74.7,30.2l-149,59.9l-11.7,3.8l0,0l0,0
		c0,0-20.7,12.2-49.8,12.2l-72.2-1.5c0,0-1.8,4.7,3.8,4.9l64,3.1c0,0,9.6-0.5,13.7,8.4l-1.1,1.1l-44.1,0.6l-70.8-8.6l-49.2-6.8
		h-10.4l-46.8-2.1l-51.5-7.4l-38.5-0.3l-31.1,0.6l-30.5-1.8l-42.7-4.1L332,288l-25.5,1.8l-85.6,24.9l-48.6,26.7L140.9,363l-5.6,5
		l-10.3,14.2c-48,51.3-55.7,92.7-55.7,92.7c-13.9,59.6-5.3,99.9-5.3,99.9c7.4,44.7,37,61.6,37,61.6c21.9,13.3,51.6,21.3,51.6,21.3
		c7.1,2.1,25.5,12.5,25.5,12.5l50.1,16.6c33.5,10.3,38.5,37.3,38.5,37.3c7.7,22.2-4.7,73.8-4.7,73.8c-5.6,16.9-1.8,25.5-1.8,25.5
		l23.1,32.9l0.5,0l5,6.5c0,0,9.5,3.1,10.2,3.1c0.7,0,14.4,3.1,14.4,3.1l14.7,9.8l7.1,8.4l3.3,6.7l-19.8-1.1l-12-2l-11.1-4l-8.9-6.5
		l-13.1-15.5l-12.2-18.2L251,829.9l-10.4-16.5c0,0-6.5-12.4-15.8-18l-11.3-6.2l-14-6.4l-10.4-3.3l0,0l-3.1-2L145.6,765.9z
		 M595.5,910.1c-0.3,0-0.4,0.1-0.4,0.1l-97.8-0.3l-164.2-1.5c-39.1-3-58.1-28.7-58.1-28.7c-15.2-18.9-28.5-39.2-39.7-60.7
		c-13.8-23.7-41.6-31.6-51.3-33.7l4.4-5.2l-2.7,3.4c0,0,22.9,8.9,23.8,8.9c0.9,0,15.3,9.6,15.3,9.6l8.7,8.9l11.1,17.3l16,27.8
		l15.1,20c0,0,16.4,18,34.2,24.2c0,0,14.7,5.6,58.2,6.2l165.8,0.7l61.6,0.9L595.5,910.1z M580.8,903.1L444,902.8l-77.6-0.3l-16.3-5
		l2.6-1.5l30.8,2.4l198.2,0.6l13.9,2.7L580.8,903.1z M650.8,906.2l0.9-18.2l-4.9-0.5l-3.1,15.5l-8.5-1.8l-20.4-5.5l-10.2-2.5
		l-0.5-10.2l-13.3-0.2l-0.2,10.7l-32.7,0.7l-45.6-0.2l-78.4-0.5l-69.6-0.9L355,891l-4.2-3.1l-7.1-12.2l-0.9-5.6l2-4l2.4-5.1l0.5-3.1
		l352.8,0.4l2.7,5v7.7h0.6l0,0l-0.6,0.1l0.6,0.6l0.1,14.9c0,0,0.2,20.9-18.2,20.2c0,0-21.8,1.8-24.2-17.6H655
		c0,0,0.7,20.9,18.9,22.5c0,0,24.2,7.1,33.3-13.1l2-8l0.6-13.8l5.9-1l5.5,14.9l-1.5,5.3l-3.6,2.9l-9.8,8.9c0,0-8.4,8.9-20.7,8.4
		c0,0-12,1.6-20.9-4L650.8,906.2z M722.6,881.2c0,0,2.3-10.7-12.4-11.1l1.1-12.1l136.9,2.1v-0.9h36c10.9-1.5,13.6,5.1,13.6,5.1
		L899,883l-0.4,3.1l-1.8,3.1l-33.3,18.5l-18.9,11.8l-4.9,0.5l-36.9-0.5l-1.1-3.1l-8.9-2.4l-5.1,1.8l-7.6-0.5l-10-4.7l-14.9-8.2
		l-14.2-6.4l-9.1-2.5l-4.9-1.8v-8.9L722.6,881.2z M862.1,927.1l-8.3,13c-6.5,9.5-17.5,9.2-17.5,9.2s-100.5,1.5-101.9,1.2
		c-29.3,1.2-56.6-21.9-56.6-21.9c0,0-0.1-0.1-0.1-0.1c-0.4-2.3,0.1-4.8,3.3-5.5c0,0,25.8,1.1,44.7-23.3c0,0,7.5-8,37.1,13.1
		c0,0,10.7,12,56.9,12.2l24.7,0.4l5.6-1.3l17.3-10l-5.4,3.5C865.4,923,862.1,927.1,862.1,927.1z M1039.8,902.2
		c-65.5-2.1-91.8,8.9-91.8,8.9c-6.8,3-14.5,3.1-21.3,0.3c-9.4-7.7-21-5-21-5S883.1,912,882,912c-7.5,2-6.9-1.2-6-3l13.5-7.8
		c0,0,22.2-16.7,55.1-16.4l87.6,0.2c0,0,6,0.9,12.8,7.6C1043.3,896.2,1040.7,902,1039.8,902.2z M1071.8,893
		c-10.5,0.5-17.7-3.1-20.3-4.7l-4.8-5.1l23.6,4.2l5.7-16.1l0.2,21.1L1071.8,893z M1537.6,896c-0.9,0-47.1-11.3-47.1-11.3l-69.6-16
		L1076,864l0,4.6l-7.7-1.6h-3.3l-6.9,2l-6.7,1.8l-1.8,2.4c1.5,0.4,3.1,0.7,4.7,0.9c1.1,0,5.1,2.9,5.1,2.9l-1.8,2.2l-3.8,1.6
		l-6.9-0.2l-14.4-1.3l-38.5-1.3l-51.1-0.2l-3.8-0.2l-12-0.7l-10,1.8c0,0-6.4,3.5-7.1,3.8c-1.8,0.2-3.6,0.3-5.3,0.2l-1.1-0.7
		l-0.9-23.5l77.3,0.9l78.2,0.2l62.4-1.1l164.2,1.8l80.7,0.2l52.2,0.7l17.8,1.6l79.6,22l20.9,7.1l24.3,6.6
		C1553.3,897.6,1538.3,896,1537.6,896z M1795.7,720.6l-8.9,4.4v21.3l-29.3,64l-66.7,33.8L1577,845c0,0,0.1,2.1,0.2,5.6l-140.8,1.3
		l-0.7,2.9l-10.2,0.2l-95.8-1.1l-131.1-0.2l-82.4,1.5l-33.1-0.4l-62.4-0.9l-100.9,0.7l-71.6,1v-0.2l0.3-5.9l-6.8,5l-220.2-3.8
		l-234.1-9.2l-37-12.4l-17.8-34.4l0.9-48.3l-8.9-30.8l-31.7-26.1l-72.3-27.8l-62.8-39.7l-40-59l2.1-91.6l41.5-69l67.2-38.6
		l78.8-22.2l53-5l283.5-1.5c61.3,13,58.7,76.5,58.7,76.5l-17.8,58.7L643,508.1l-68.7,22.2l-208-0.3l0.3,6.5h35
		c96.3,13.9,174.2,11.5,174.2,11.5l6.8-1.2c85.6-22.5,110.8-59.3,110.8-59.3c15.8-14.7,26.9-31.3,34.6-47.8l5,0.5l1.3,0.1
		c-0.4,0.8-0.8,1.5-1.2,2.2c0,0-16.9,39.1-59.6,70.5c0,0-45.6,32.3-85.9,38.5l-90.7-1.5c0,0-56.6-4.8-83.8-10.7
		c0,0-55.7-9.5-51.9,18.1l2.4,0.6c0,0-0.3,39.4,19,60.4l89.8,65.7l-3,5.1l4,2l3.1-4.7c11.3,6,49.9,25.7,79.1,29.9l6.5,8.6l126.2,5
		l9.8-19.5l-0.6-3.6l-11,3l-67-0.6l-1.5-1.8l61.9,0.3c0,0,39.4,0,55.7-26.4l27.9-93.3l-0.3-9.2c0,0,41.2-72.3,69.3-97.8l39.4-39.7
		l4.5-10.7l56.9-76.4c0,0,11.3-39.1,45.3-36.7c0,0-16.3,7.4-22.2,15.7l-42.6,55.7l1.8,1.2c0,0,40-45.3,116.1-24l19.9,4.7l109.9,24.6
		v-5.9l-43.3-16l0.6-4.5l-22.2-9.4l67.3,26.6l29.9,10.7l82.1,18.4l2.7,1.5l6.2,46.8l5.6-0.6c0,0,4.4,22.8,13.9,33.8l5.9,6.5
		l-16.9-9.7l-17.3-14.5l-8.2,4.5c0,0,4.7,15.5,22.2,32.9l61.6,41.8l1.8-9.7l19.7,12.6l157.9,96.9c0,0-3-4.4-0.6-4.7l5.3-6.2l8.3-1.5
		l16,13.6l-1.2,7.4l21,14.2l-3.3-12.5l2.7-3.8l18.6,3.8l-4.2-18.1l-11.2-2.9l0.2-0.3l-22.8-63.4l-4.2-1.8l-6.5-14.8l-8.3-5.9
		l-0.9,8.6l-3,0.9l11.8,16.6l18.7,45.3l-37.6-54.9l-9.8-9.8l-53.6-23.1l-2.7-4.7l4.4-4.7l9.2-14.5l10.1-5l-11.7-9.6l6.7-4.6
		l-26.7-58.7l20.4-39.1l58.7-24.9l174.2,55.1l32,29.3l-9.8,127.1l4.4,31.1l55.1,14.2l8.9-1.8L1795.7,720.6z M1751.5,433.2
		l-141.3-58.4l-3,1.8l-53.6-19c-32.3-7.4-50.1,5.6-50.1,5.6c-31.1,7.1-48.9,28.5-48.9,28.5l-2.7-1.5c-15.4,16-19.8,42.7-19.8,42.7
		l-3.5,23.5l1.1-13.4c0,0,2.2-32.2,21.6-54.5c0,0,17.3-20.7,48.2-29.3l7.8-5.2l20.4-4.2l15.1,0.9l26.5,6.7l34.7,13.3l52.6,21.2
		l68.5,29.2l91.7,37.8l6.7,0.2l9.3,1.9l2.4,1.6l5.8,65.8l2.1,40.4c0,0,1,33.4-6.4,57.8l6.2-46.7c0.6-35.3-8.9-116.4-8.9-116.4
		l-8.6,1.2L1751.5,433.2z M1726.6,345.1l70.8,28.4c36.8,21,43.6,51.3,43.6,51.3l4.2-1.2c-0.3-17.2-25.5-41.5-25.5-41.5l1.8-1.2
		c24.6,19.3,30.8,54.8,30.8,54.8l12.2,91l6.2,62.2l0.3,0.2l0.4,22.6l5.3,118.7l-2.7-0.4l-2.7-86.2l-8.4,0.9l0.9,18.7l-7.1-7.1
		l-2.2,5.3c8,10.2,5.8,30.2,5.8,30.2l-8.9,22.7l-8,23.6l-11.6-2.7l14.2-92.4l1.8-12l-5.8-2.4l-5.3-1.6l0-0.1l4.2,1.1l7.6-38.7
		l-2.7-84.2l-3.3-30.4l0.7-14.7l-7.3-16.9l-8-0.2l-7.3,9.1l-3.3-2.9l-32.2-8.7l-54.7-22l-15.8-6.4l-96.9-41.3l-12.9-8.2l-16.4-8.2
		c0,0-32.9-11.5-61.6-12.7c0,0-22.9,5.1-26.7,4.9c0,0-30.2,14.5-38.9,21.1l-14.2,13.6l-6.4,7.8l-11.8,25.1l-4.7,10l-7.8,48.2
		l2.4,1.8l-0.7,63.1c0,0-0.3,6.3,5,12.6v5.4l-12.7-7.4l-25.1-24.9l-24.3-27.3l-11-16.3l-3-14.8l3-0.6l1.8,6.8l9.5,16l9.2,11.9
		l4.4,6.5l8.9,2.7l-0.6-39.7l5.9-33.2l11.3-39.7l-5.6-10.7l11-23.1l14.6-19.3l18.4-15.7l35-17.5l41.2-8.9l42.4,0.6l58.4,15.4
		l103.1,56.3l40.6,10.1l22.5,7.7l19.5,12.7l3.3-3.9l-13.6-9.2l-12.4-6.8l-16.3-5.9l-31.7-9.2l0.6-4.7l-9.2-3l1.8-8.3l-15.7-6.2
		c-5-5.6,1.5-7.4,1.5-7.4L1726.6,345.1z"/>
	<path class="st0" d="M1727.2,625.7c0,0-10-9.6-12-39.6l1.8-0.4l-1.8-25.6l-16.4-42.9l28.9,27.3l0.7-8.5l-36.2-31.5
		c0,0-22.4-20.2-63.8-33.8l1.8-4.9l-71.8-7.1c0,0-11.3-0.5-17.1,8.7c0,0,3.3,8.7,69.3,16l8.2,1.8l-0.4,4.5c0,0,18.9-3.3,42,11.1
		c0,0,38,24.9,46,66.4l-4.9,0.7l7.1,15.5l9.3,82.9l0.2,5.8h-4.9l-2.9-21.1h-3.1l-6.9-37.8c-14.2-62.4-80.4-93.8-80.4-93.8
		l-53.6-24.3l-58.1-25.2c-4.7-2.3-8.3-6.5-9.8-11.6l5.9-4.7c-13.6-16.9,11-31.7,11-31.7c39.4-14.8,64.9,17.5,64.9,17.5
		c8.3,9.8,26.1,12.2,26.1,12.2l36.2,5.6l48.3,13c14.5,5.3,23.7,26.1,23.7,26.1l16.9,26.1l2.7-25.8l-9.5-16.3
		c-11.3-22.3-47.4-27.3-47.4-27.3l-26.7-5c-48-5-55.7-12.4-55.7-12.4l-18.4-13.9c-38.2-30.8-69.3-8.3-69.3-8.3
		c-43.5,30.8-10.1,70.2-10.1,70.2l67,64.3l40.6,126.9l-7.7,31.1l8.9,22.2l69.9,43.7l2.7,7l-1.3-0.3l-19.8-10.1l-6.2-5.6l-107-64.6
		l-46.8-28.5l3.3-2.4l-187-117l-69.3-40.3l-8.3,2.7l-103.4-62.8l-72.3-42.7c-9.4-5.2-20.2-7.3-30.8-5.9l-23.7,3l34.4-15.2l-13.3-3.9
		l-3.8,6.2l-36.2,14.2l-72.3,33.8l-7.7,6.8l-5.6,2.4l-42.4,59.5l-18.1,32.3l-11.5,27.8l-11.3,45.6l-3.6,28.1l-1.3,32.1l-4.2-24
		c0,0-2-22.7,7.5-37.1l3.1-12l8.7-36.9l-2.4-0.2l-19.1,20L793,597.7l-17.8,34.4l-4,35.8l-7.5,49.1l-29.8,24.9l-120.4,1.8l-5.1,16.7
		l4.5,4.7l39.1,2.9l89.1,1.8l4,1.6l-2.2-0.3l-9.8-0.2l-84.7-1.3l-33.3-2.9l-14-3.3c-6.9,2.9-11.4,6.9-14.1,11.3l-15.6-6.9l-4.7,11.9
		h13.6l3.9,1.2c-3.7,13,3.2,26.9,3.2,26.9c8,17.8,32.3,14.5,32.3,14.5l38.9,0.8l64.4-2.2l120.9-4.7l101.1-2l-0.3,2.8l-250.8,10.7
		c0,0,3.1,6.7,4.9,6.7s290.7,4.5,290.7,4.5l-4.9-3l12.2-0.1l0.1-15.1l667.2,7l26.4-2.7l40.3-16l27.6-27.5l15.7-43.9l1.8-87.1
		l-15.7-17.8C1760.1,632.6,1742.6,634.6,1727.2,625.7z M731.9,791l-78.2-1.1l-0.5-11.1c-6.2-1.6-7.3,3.1-7.3,3.1l-0.9,4.4l-0.9,24.2
		h12.2l0.9-1.8l6-5.6c3.1-5.1,14-6.2,14-6.2l50.7,1.3l5.8,2.5c5.8,5.1,0.2,9.8,0.2,9.8l-0.6,1.9l-63,2.5l-60-2
		c-24.9-6.2-14.2-33.8-14.2-33.8c2.9-10.2,17.1-7.1,17.1-7.1l38,2.5l49.6,2.4l0.2,8.9l37.3,0.4V781l3.5-0.1
		C738.6,791.2,731.9,791,731.9,791z M824.8,761.4l0.1,2.6l-44,2.2L824.8,761.4z M756.3,769l6.8-0.8L759,769l-4.1,2.4L756.3,769z
		 M996.7,799.4c-28.4-0.6-27.3,6.9-27.3,6.9l-50.4,0.9l-79.3,2l-86.9,2.5l-0.9,0l-2.9-7.6l3.3-19.3l-0.9-4.2
		c6.5-9.8,23.6-6.9,23.6-6.9l60.4,4.2l0.2-0.6l2.4,3.3l0.9,17.8l6.4,6l120.7-1.3l6.7-6.4l22.2-0.2l-0.4-26.9l2.9-10L996.7,799.4z
		 M919.7,695l-1.6,4.7l-34.4-12.5l1.1-4l-3.1-1.1l19.5-65.8l27,8.1l-1.1,3.8l-24.4-7.1l-3.8,12l22.4,8.9l-7.1,22l-5.5-2l-7.3,17.3
		l2,0.7l-1.1,4.4l-10.2-3.5l-0.9,3.3l9.6,4l-1.8,3.8l5.8,2l1.8-3.8l10.7,4.2l6.2-1.5l1.6-3.8l2.2,0.9l6.4-18l-13.5-6l4.4-11.8
		l28.9,8.7L932.6,715h46.9l2.2,10l-4-2l-46.5-2l-16.9,39.8l-8.9,18.4l-52.9-10l4-22.2c2.7-7.8,13.5-5.1,13.5-5.1l22,8.7l19.1-5.8
		l16.5-46.9L919.7,695z M959,639.2v-5.3l30.9,8.9l-4.9,2.9l-11.3-2L959,639.2z M1037.9,675.7l-20.7-16.5l-17.5-13.5
		c0,0,32.2,2.7,51.3,29.8C1051,675.4,1047,681.2,1037.9,675.7z M1050.6,719.4l0.2-34.9l4-1.6l1.1,24.9l0.2,11.5H1050.6z
		 M1028.3,640.8l-60.7-18.5l1.4-3.5l59.1,15.3l21.6-7.3l2.7-2.9l11.8-41.3l-60.7-19.3c0,0-10.4-2.7-13.5,6.9l-2.2,5.8l-12-4.2
		l-2.2,4.9l-35.3-12.5l-2.4,8.2l35.8,12.2l-1.8,4.7l4.4,2l-4,8.2l-4.2-0.9l-2.2,6.4h-3.6l-33.5-11.3l0.4-1.8l18.7,6.2l2.4-9.3
		l-16.4-5.8c0,0-12.5-3.1-15.3,11.8l-2,8l47.1,14.7l-1.1,2.6l-48.3-14.8l-1.1-0.4l-0.7-3.5l9.2-38.2c8.6-19.8,39.7-17.8,39.7-17.8
		l22.5,4.8l7.7-6.2l27.6,10l55.4,12.4l26.1-64l6.8,1.8l1.9,3.5l-43.9,106.4l-5,11.5L1028.3,640.8z M923.7,521.8l-2.7,6.8l-3.6-2.1
		l11.6-55.1l4.2-1.8l0.9,3L923.7,521.8z M939.1,468.4c5-8.4,12.6-14.9,21.6-18.7l-30.8,85.9l-7.1,4.1l7.4-25.2L939.1,468.4z
		 M1084.8,631.4l2,7.8l3.6,3.1l12.7,4.9l2.2,2.2l5.6,5.6c-39.8,2.7-36.2-34.9-36.2-34.9C1080.6,621.4,1084.8,631.4,1084.8,631.4z
		 M1066,663.2c-3.3,0-6.1-2.7-6.1-6c-0.1-3.4,2.6-6.2,6-6.2c3.4-0.1,6.2,2.6,6.2,6c0.1,3.4-2.6,6.2-6,6.2
		C1066.1,663.2,1066,663.2,1066,663.2z M1110.1,689.2l-25.6,4.5l-6.9-2.2l-6,11.3h-3.3c0,0-0.7-34.9,32.9-35.6l12,10.5L1110.1,689.2
		z M1135.2,493.7l-45.8,104.4l-5.1,6l49.8-124.4l16.2,16.9l12.4,8.9L1135.2,493.7z M1734.6,778.6c0,0-22.7,25.8-55.1,28.4
		l-18.4-10.4l-32.4-20.7l-11.8-5.8l-25.3-10.4l-22-14.2l-4.2-3.8l-43.8-24.9l-56.4-30.9l-23.6-12.5l-9.8-8.4l-97-46.1l-46.2-28.2
		L1257,570l-30.5-22.8l-21.3-19.5c0,0-22.2-21.9-33.8-27l-21.9-15.1c0,0-10.4-10.1-9.5-19.9l-12.7-6.5l-15.5,37.4l-5.6,2.3l-5.6-1.7
		l-0.9-2.7l4.7-1.2l16-35l-76.4-44.4l-36.2,3.5l-8,3.3l-13.9,8.9l-34.1,17.2l-5.9,2.4l-7.7,6.8c-10.4,8.3-8.9-2.4-8.9-2.4l2.1-8.6
		l-1.8-0.9l-12.4,8l-8.3,7.1l-13.9,24l-31.7,50.7l-10.7,24l-4.2,2.4l-3.9,23.5l-0.3-0.1l-4.7,27.5l48.9,19.3l1.5,5.9l-51.3-19.3
		l-4.7,27.9l18.4,8.6l16,2.7l13.9,4.2l-5.3,18.1l-9.5,2.1l-14.8,56.6l-3.9,21.9l-2.4,8.9l-6.6-1.7l1.1-2.9l0,0l0,0l-9.3-34.9
		l-5.6-45.3l3.3-61.6l10.1-59.8l9.5-23.4l17.5-28.7l39.1-56l10.1-8l75.3-35.6l56-3l8.6,3.9l90.1,53.9l80.9,50.1l19.8,16.7l22.8,17.5
		l37.9,23.1l27,16l57.5,32.6l85.3,43.3l77.3,47.4l91.3,53.6l26.4,17.5l7.4,2.4l1.5,0.6l7.3-0.7l13.8-22.7l13.8-27.1l6.9-18l3.1-23.6
		l8.7-4.2l10.2,0.7l13.8,8.9C1757.9,698.8,1759.4,750.6,1734.6,778.6z"/>
</g>
<g id="Buildings">
	<polygon class="st1" points="1411.7,811.8 1419.4,811.8 1419.4,799.7 1411.7,799.7 1411.7,783.7 1331.1,783.7 1331.1,767.7 
		1322.8,767.7 1322.8,783.7 1272.1,783.7 1272.1,767.4 1263.5,767.4 1263.5,783.7 1212.9,783.7 1212.9,766.8 1204.6,766.8 
		1204.6,783.7 1154.5,783.7 1154.5,766.5 1145.3,766.5 1145.3,783.7 1095.2,783.7 1095.2,766.5 1086.6,766.5 1086.6,783.7 
		1023.8,783.7 1023.8,713.7 1025,713.7 1025,698.9 1023.8,698.9 1023.8,697.4 1018.8,697.4 1018.8,698.9 1012.3,698.9 1012.3,713.7 
		1018.8,713.7 1018.8,771.2 1008.1,771.2 1008.1,783.7 1008.1,791.4 1008.1,812.1 1411.7,812.1 	"/>
	<rect x="1456.1" y="706.9" class="st1" width="31.4" height="23.1"/>
	<rect x="1417.3" y="709.3" class="st1" width="7.7" height="11"/>
	<rect x="1406" y="725" class="st1" width="6.8" height="8"/>
	<polygon class="st1" points="734.9,863.1 724.8,863.1 724.8,875.2 729.9,875.2 729.9,885 890.8,885 890.8,863.4 734.9,863.4 	"/>
	<rect x="597.4" y="861.6" class="st1" width="99" height="24.6"/>
	<rect x="491.7" y="860.7" class="st1" width="97.8" height="24.3"/>
	<polygon class="st1" points="362.8,861.3 358.3,861.3 358.3,866.9 362.8,866.9 362.8,884.7 484.6,884.7 484.6,860.4 362.8,860.4 	
		"/>
	<rect x="1076" y="859.8" class="st1" width="344.9" height="35"/>
	<rect x="1349.4" y="925.6" class="st1" width="32.3" height="13.3"/>
	<polygon class="st1" points="1623.5,752.6 1564,717.3 1563.1,719.4 1555.4,715.2 1553,720 1559.2,722.9 1556.6,729.2 1618.5,765.6 
		1619.7,763.2 1624.4,766.2 1627.7,759.1 1621.7,756.1 	"/>
	<polygon class="st1" points="1846,642 1826.5,760.6 1839.2,762.3 1858.8,644.7 	"/>
	<rect x="1857.3" y="741.3" class="st1" width="6.5" height="19.6"/>
	<polygon class="st1" points="1360.4,660.4 1399.5,681.4 1408.7,662.8 1370.5,641.7 	"/>
	<polygon class="st1" points="1409,672.1 1402.8,683.2 1407.9,685.9 1413.7,674.1 	"/>
	<polygon class="st1" points="1090.8,685.9 1107.4,684.1 1107,677.9 1090.6,679 	"/>
	<polygon class="st1" points="933,656.8 953.4,663.2 961.9,633 941.4,627 	"/>
	<polygon class="st1" points="902.1,679.4 926.6,688.3 932.8,671.7 908.6,661.9 	"/>
	<polygon class="st1" points="868.1,734.8 893.4,744.1 897,735 905.2,737.7 912.8,717.2 879,703.9 	"/>
	<polygon class="st1" points="969.4,589 977.2,591 981.7,575.7 974.1,573.2 	"/>
	<polygon class="st1" points="993.7,531 989,543.2 1018.1,553.9 1038.6,498.8 979.4,476.8 975,488.6 1021.4,506.8 1010.8,537 	"/>
	<polygon class="st1" points="947.7,488.3 957.4,491.7 965.7,471.7 955.4,467.7 	"/>
	<polygon class="st1" points="951.9,497.9 945.9,495.2 930.3,535.4 936.6,537.7 	"/>
	<polygon class="st1" points="1003.2,456.6 1057.7,476.8 1055.2,483.4 1072.3,490.6 1075,483.9 1077.9,484.1 1091.9,448.1 1069,439 
		1062.3,457.7 1009.9,437.7 	"/>
	<polygon class="st1" points="1066.1,564.1 1072.8,566.8 1086.1,537.4 1079.2,534.3 	"/>
	<polygon class="st1" points="1081.4,531.9 1088.3,534.1 1093.9,520.8 1088.1,517.9 	"/>
	<polygon class="st1" points="470,752 433.9,732.7 426.5,747.2 420,744.3 415.5,753.2 457.9,775.7 	"/>
	<polygon class="st1" points="340.9,450.6 354.5,452.1 357.7,436.7 342.9,435.5 	"/>
	<polygon class="st1" points="633.3,581.9 619.1,578.9 616.4,593.7 631.2,597 	"/>
	<polygon class="st1" points="835.1,344 820.8,342.8 819.1,358.2 833.9,359.4 	"/>
	<polygon class="st1" points="950.9,315.5 972.6,309.9 1050.5,329.4 1054,315.2 1058.8,316.7 1060.3,309.3 998.9,292.7 996.8,300.4 
		1001.9,302.2 1000.4,307.5 974.6,300.7 947.4,307.2 945.6,308.7 940.6,305.4 900.6,347.8 910.3,358.2 	"/>
	<rect x="791.2" y="253.6" class="st1" width="14.8" height="11.3"/>
	<rect x="736.4" y="262.2" class="st1" width="27.3" height="7.1"/>
	<polygon class="st1" points="1010.2,285.6 1005.4,263.4 993.6,265.1 997.7,287.7 	"/>
	<polygon class="st1" points="1374,296 1357.7,295.7 1357.7,309.6 1373.7,309.9 	"/>
	<polygon class="st1" points="1522.8,279.7 1478,275.2 1470.6,293.3 1518.6,286.5 	"/>
	<polygon class="st1" points="1469.7,284.1 1448.4,282.6 1447.5,287.7 1469.2,289.7 	"/>
	<polygon class="st1" points="1569.6,245.6 1594.2,250.6 1601.6,213.3 1575.5,208.8 1572,229.3 1547.1,225.1 1545,238.5 
		1570.2,242.6 	"/>
	<polygon class="st1" points="1573.7,210.9 1565.4,209.1 1564.3,216.6 1572.3,218.6 	"/>
	<polygon class="st1" points="1728.4,349.9 1715.7,342.5 1708,355.2 1721.3,362.6 	"/>
	<polygon class="st1" points="1806.6,416.8 1796.8,430.8 1793.3,429 1801.6,407.1 1770.5,392.6 1760.1,416.8 1790.9,431.1 
		1814.9,450.6 1828.8,434.3 	"/>
	<polygon class="st1" points="1724.3,370.3 1695.8,357.6 1665.6,341.9 1624.1,315.2 1593,302.5 1548.8,295.7 1518,296 1484.6,302.8 
		1460.6,311.4 1435.1,324.4 1418.5,338.3 1442.2,363.8 1452.6,353.7 1479.8,338.9 1530.2,328.8 1581.2,334.5 1599.8,341.6 
		1645.2,368.3 1682.2,389.3 1708.6,400 1751.8,413.6 1760.4,380.7 	"/>
	<polygon class="st1" points="1401,395.8 1419.1,405 1418.8,408 1397.7,404.7 1383.2,462.8 1402.5,468.7 1403.4,472.3 1382,474.3 
		1384.1,509.9 1410.8,510.2 1409.6,469.9 1423.5,410.3 1441,374.8 1417.3,363.8 	"/>
</g>
</svg>
