<?xml version="1.0" encoding="utf-8"?>
<!-- Generator: Adobe Illustrator 24.0.1, SVG Export Plug-In . SVG Version: 6.00 Build 0)  -->
<svg version="1.1" id="Background_Details" xmlns="http://www.w3.org/2000/svg" xmlns:xlink="http://www.w3.org/1999/xlink" x="0px"
	 y="0px" viewBox="0 0 1920 1080" style="enable-background:new 0 0 1920 1080;" xml:space="preserve">
<style type="text/css">
	.st0{fill:#636466;}
	.st1{fill:#C7C8CA;}
</style>
<title>background</title>
<g id="Pavement">
	<path class="st0" d="M1912.9,967.7l8.4-0.3l0.6-4.2l-11.7,0.4c-2.8-5-5.1-12.3-5.8-22.9l18.1-0.6l-2.4-51.5
		c-5.8-7.2-6-17.4-0.6-24.9l2.7-2.4l-0.6-99.3h-25.5c0,0-10.7-0.3-10.4-14.2l-1.2-30.2l-13.9,0.6l-1.8-27.3l-28.4,0.9l-5.3-91
		l-155,4.2l0.3,5.6l-21.9,2.4l2.4,41.5l18.4-0.3l3.6,1.2l-1.8,4.7l-25.7,1.6l-2.4-65.3c1.3-0.1,2.8-0.1,4.4,0l63.1-1.2l2.1-2.7
		l58.7-0.6l-0.3-4.4l-6.5-8.6c0,0-1.8-8.6,8-6.2c0,0,26.1,19.6,50.1,17.2l93-2.1l-1.8-274.7l-55.4,1.8l-0.9,3.5l0.3,6.5l-3.9,8
		c0,0-3.8,3.3-5.9,0.9l-7.7-165.9l-2.7-53l-20.2,0.6c0,0-10.7-1.5-6.5-10.1l53-0.9l3.6,88.9l46.5-0.6L1922.5-3L1870-1.8l3.8,77.6
		l-11.6,0.3c0,0,3.6-8.3-7.4-9.2l-72,2.7l-4.2-1.5l5.9-19.5l69.6-2.4l-1.1-49.5H1564l8.9,210.7l7.4,214.8l6.8,199.4l8,201.8
		l5.3,159.9l-9.1,3l-1.1-0.3l-3.3-99.3l-9.2-211.9l-6.2-149.6l-5.3-187l-8-204.4L1553-3l-5,0.9l5.6,119.7l-12,8.3l-5.1-129.5
		l-309.4-7.7l-7.1,28.5l27.8,10.7l-3,9.8L1213.7,26l0.5,6.3l-6.3-0.1l1.9-38.8L1012-8.9v63.4l83.6,4.2l5.3,48.6v41.1l-405.2-3.8
		c-108.5-4.9-181.3,41.8-181.3,41.8c-126.2,61.3-176,204.4-176,204.4l0.6,0.1C263.8,621.8,393,760.1,393,760.1l0.7-1.4
		c65.4,96.3,168.2,133.7,221.8,147.2l-21.3,27.9h-75.4l-112.5-104c0,0-74.7-71.6-112-157.3c0,0-36-91.6-32.4-164
		c0,0-0.7-65.3,10.5-116.3l107.3-265.5L438.9,5.9l21.3-14.8L258.8-4.2c0,0-59.6,0.8-57.3,87l11.1,220.4l5.3,82.2l-7.1,15.1l-9.8,9.3
		l-14.7,0.4l-15.5,6.7l-38.2,19.6l0.9,36.4l-20.4,8l-14.2-0.9l-24,0.5l-80-1.3v30.2l88.9,3.1l3.1,13.3l-0.9,25.8l3.5,8.9l-11.5,28.9
		l-14.7,14.2l-19.1,3.1l-48-2.7l-0.4,10.7l55.5,4.4l-18.7,37.3l-9.3,25.8l-8,19.6l-4,22.2H-3v178.2L60.6,937l57.8,34.7l39.6,28
		l1.8,11.1l53.8,29.8l28,20.4l14.7,19.1l9.3,5.8l403.1-0.4h508.9l395.6,1.8l-0.9-55.6c0,0,12-0.4,13.3-0.4c0.2,0,0.7,0.1,1.3,0.2
		l2.1,58.9l4.7,0.3l-1.9-58.3c4,0.8,8.7,1.9,10.5,2.3l2.5,56l65.4-2.6l238.5-3.8l-2.1-48.9c0,0,0.3-23.7,16.3-28.7v-32
		C1922.7,974.5,1917.7,973.8,1912.9,967.7z M244.6,748.1l-2.7,26.2l-6.2,21.3l-21.8,9.3l-60,1.3l3.1,109.8h12l12.9,63.6l17.3-1.8
		l3.6,9.3l20.4-0.4l4.4-4.5l-6.7-50.7l5.8-1.3l2.7,46.7l4.9,3.1l1.3,10.7l-4.4,13.3l-11.6,4.9l-20.4-12.9l-33.8-24l-5.3-8.4l-5.8-8
		l-9.8-14.2l-1.3-13.8V901l-3.6-14.2l-67.6,5.8l-3.1,9.8l-18.7-12.9l-12-22.7l-3.5-31.1l1.8-45.3l2.2-39.5L49,720.1l16.4-26.7
		l11.6-7.1c0,0,5.3,1.3,6.7,2.2c1.3,0.9,4,3.1,4,3.1l4.4,9.8l3.6,20.5l13.8,0.9l-3.1-25.8l4.9-4.9l14.2,0.9l13.8,5.8l-3.6,16.4
		l-10.7,4.4l8.9,4l9.8-3.6l12.4-9.8l-0.4-32.9l-17.3-1.8l-10.2,2.2l-14.2-0.9l-0.9-5.8l22.7,0.5l18.7,0.4v-8l-28.9,1.8l-9.8-1.8
		l-13.3-2.7l-0.4-26.7l4-14.2l4.9-17.3c2.7-38.7,15.3-59.8,15.3-59.8l23.1-2.4l1.6,12.9l5.8,1.8l3.1,218.7l58.2-1.3L213,563.7h15.1
		l2.2,31.1l2.2,32l4,42.7l9.3,44.9L244.6,748.1z M290.2,830.8L290.2,830.8c-5.3,1.8-10.7-4.2-14.2-5.9s-3.5-10.1-3.5-10.1l2.4-21.9
		l6.5-22.5l26.7,25.5l1.8,21.9C309.8,817.7,295.5,829,290.2,830.8z M1516.9,131.5l23.2,0.3l13.5,5.6l1.4,49.4l-0.5-8.2l-5,7.4
		l-38.8-28.4l-1.2-16L1516.9,131.5z M1496.4,132.1l9.2,7.7l-1.2,7.1l-3,2.7l-23.1-17.5H1496.4z M1465.3,101l-35.6-32.3l35.3,0.6
		L1465.3,101z M1386.5-6.6l45.3,4.2l0.3,24.9L1396.3,10C1396.3,10,1382.6,6.2,1386.5-6.6z M1254.9,30.5l67.3,21.3l-3.3,8.6l-67-21
		L1254.9,30.5z M1402.2,526.7l16.3,0.3c-1.1,39.8-12.1,67.9-12.1,67.9c-10.3,36.7-45.3,69.6-45.3,69.6l-4.4,5.3l11.8-103.1
		l-10.1-0.6l-11.6,97.5l-0.9,5.6l-5.9,7.1c-50.4,21.6-88.7,21.5-88.7,21.5l-1.8-132l15.3-11.6l-0.6-40l-107.3,1.2l-1.2-126.8
		l-38.5-1.2l0.9-23.7c57.2,0.9,98.1,18.4,98.1,18.4c23.1,8.6,59.3,45.3,59.3,45.3c27,22.8,21,59.8,21,59.8l-11,120l17.8,1.8
		l13.6-114.4c10.2-70.8-37.3-100.8-37.3-100.8c-68.4-63.4-139-49.5-139-49.5l-26.7,3.3l-3.8-15.4l9.5-27.3l0.9-10.1l3.6-9.8
		c96.6-18.7,166.2,44.1,166.2,44.1c73.5,43.6,112,134.5,112,134.5c5.3,18.1,5.9,38.2,5.9,38.2l-10.7,10.7L1402.2,526.7z
		 M1084.9,765.3l0.3-8.9c124.2,13.3,237-12.7,237-12.7l18.1,12.4c-70.5,52.4-181.6,75.3-181.6,75.3l-13.9,2.1l-105,2.2l-124-46.2
		l0.4-11.5l140.3,2.8l0.6,16l67.3,0.3l0.6-30.2L1084.9,765.3z M519.2,603.7c9.3,68,64,104,64,104l-4.4,8l-88.5-89.8
		C465.4,589,475.7,525,475.7,525l-11.1-1.3c-11.6,67.5,15.1,104.4,15.1,104.4c26.2,33.8,92,96.5,92,96.5l-9.5,16.1
		c-47.4-17.8-100.8-109.6-100.8-109.6l-9.2,4.4c-45.2-90.9-11-197.2-3.3-218.6l0.6,0.1c51.1-124,158.2-145.8,158.2-145.8
		c30.2-8.9,109.8-15.5,109.8-15.5l96-0.9l0.9,5.3l44.5,1.8l0.4-6.2l209.3,4.4c9,2.4,17,7.7,22.7,15.1l-0.9,9.3l-28,55.5
		c-11.6,24.9-30.2,27.6-30.2,27.6l-4.9-64l-349.3,9.8l-1.8,69.3c-47.5,17.8-82.7,48.4-82.7,48.4
		C503.7,509.4,519.2,603.7,519.2,603.7z M733.7,825.4l0.9,2.7c-51,8.3-64.9-32.6-64.9-32.6c37.6,11.5,55.4,1.5,55.4,1.5l25.8-6.8
		l0.9,8.9l-4.7-1.8l-11.8,2.1l-26.1,9.2L733.7,825.4z M1565.9,992.6l-27.1-0.5l-5.8-50.2l-4-57.8l-13.3-6.2l-12.5,3.1l-0.4,42.2
		l-9.8,6.2l-131.1,7.6l-1.3-12.4l-12.9-8.9l-49.8,6.2l-59.6,1.3l-196,4.5l-391.5,4l-1.3-18.8c0.8,0.1,1.3,0.2,1.3,0.2l322.2,4.9
		l227.6-1.3c153.8-3.1,256.9-135.1,256.9-135.1c108-122.2,89.3-281.3,89.3-281.3c-12.9-180.4-152-277.8-152-277.8
		c-98.3-73.9-212.7-76.6-253.3-74.8l32.2-56.9l-4.7,40.9l24.9-20.7l11.3-21.9l0.2-4.3l20.1,2.7l6.1-46l9.1,4.1l-6.5,28.1l151.4,47.7
		l23.7-50.4l55.4,38.5l2.1,22.8l31.1,23.1l-37,47.7l8.6,5.3l36.8-48l21.9,16.3l-13.9,21.3l24.3,16.6l16.7-21.1l5.5,192l6.5,151.1
		l9.2,224.9l8.7,223.5l-1.4-0.3L1565.9,992.6z M1900.7,816.7c0,0,6.9-2,7.3-4.9l-1.1-3.1l-4-5.8c0,0-0.4-5.6,5.6-4l3.8,0.9l4.4,10.7
		c0,0,2.4,11.5-8,18.2c0,0-16.2,9.4-21.3-11.7l0,0L1900.7,816.7z M1863.4,889.4l4.4-10l8.7-15.8c9.3-4.7,9.1,4.2,9.1,4.2
		c2.3,11.2-2,22.9-2,22.9l0,0c-2.2,6.9-10,7.3-10,7.3C1861,899.9,1863.4,889.4,1863.4,889.4z M1746.3,762.8L1746.3,762.8l10,0.8
		c2.4,6.9,7.6,0,7.6,0l79.1-4c5.1,1.3,2.4,5.3,2.4,5.3l-101.9,4.2C1738,765.5,1746.3,762.8,1746.3,762.8z M1711.2,815.4l11.1-6.9
		c4,1.3,9.1,10.7,9.1,10.7l-0.4,2l-8.4-0.2l-9.1,6l7.1,8.4c-0.2,8.2-7.8,5.1-7.8,5.1C1699.4,828.6,1711.2,815.4,1711.2,815.4
		L1711.2,815.4z M1727.6,887.2l-5.1,9.6c0,0-4,4.7-10.9-0.7c0,0-10.4-19.8,8.2-28.7c0,0,6.2,0,3.3,6.5l-4.9,8.9L1727.6,887.2z
		 M1681.9,695.9c0,0,4.7,3.3,0.3,5.3l-18.7,1.2l1.8,50.4l30.5,0.3c0,0,5.3,3.3,5,7.4l1.2,5.6l-0.6,4.4l-42,1.4l-2.7-74.5
		L1681.9,695.9z M1674.8,535.7l-12,11.1l-12.4,1.8l-6.2-171.1c0,0,0-9.3,5.3-4.4l6.7,155.6l18.2-1.8l2.2,3.5L1674.8,535.7z
		 M1642.3,320.1l-3.1-84.4c9.8-6.7,13.3,3.1,13.3,3.1l2.2,76.9C1649.4,326.3,1642.3,320.1,1642.3,320.1L1642.3,320.1z M1702,480.8
		l-0.6-13.6c0,0,1.2-7.7,9.2-5l0.9,19.3C1711.5,481.5,1705.6,485.6,1702,480.8z M1701.1,455.1c0,0-1.9-39.9-2.8-53.6
		c-0.9-13.8,11.6-16,11.6-16l1.6,69.6H1701.1z M1813.4,212.1L1813.4,212.1l4,105.7l-0.2,0.2l21-0.6c0,0,3.1,11.1-18.2,15.6
		l-41.3,0.4l0.9-9.8h-0.9l-5.3-120l34.2-1.3C1807.6,202.3,1815.2,199.7,1813.4,212.1z M1792.5,106.3c0,0,6.2,7.6-2.7,10.2L1773,117
		l-0.4-4.9l-96.9,4.9l1.3,44c0,0-21.3,11.1-28.4,19.1c0,0-6,3.2-12.2,4l-1.8-42.5l-1.1-30.1L1792.5,106.3z M1675.2,45.8l1.3,5.8
		l-10.2,3.1l-0.4,14.3l3.1,14.7l-34.2,2.2l-2.4-0.6l-1.4-38.6l5.5-0.8H1675.2z M1620.1,52.1l6.6-4.3l1.4,36.5l-6.2-1.5L1620.1,52.1z
		 M1624.6,179.7L1624.6,179.7l-1.4-60.5c0,0,1.3-7.5,5.8-7.5l0.2,0l2.8,72.6C1628.9,183.9,1626.1,182.7,1624.6,179.7z M1627.6,245.8
		c0,0,0.9-8.4,6.7-6.2l2.2,76c0,0-7.1-3.6-8.9-14.2V245.8z M1632.5,389.8c0,0,0.9-12.9,5.8-12.9l1.8,8.4l6.2,161.8l-7.1-1.3
		L1632.5,389.8z M1641.6,653.3l-1.2-49.5c0,0-0.2-4.5,6.9-6.5l2.6,64.7l-2.1,0.1C1647.8,662.2,1642.8,661.3,1641.6,653.3z
		 M1644.8,706.6c0,0-1.4-7.6,6.5-8.8l2.8,71.7l-8.2-11.5L1644.8,706.6z M1647.8,818.5c2.7-3.5,5.1-6,7.2-7.7l6.9,153.6
		c0.5,4.6-1.8,7.2-3.7,8.5c-3.6-6.3-4.5-12.4-4.5-12.4L1647.8,818.5z M1693.6,1024.5c0,0-11.3,24.7-30.2,37.1c0,0-5.3,1.6-6-0.9
		l0.2-18.7c0,0,5.8-20.2,36.2-25.3L1693.6,1024.5z M1771.2,1082.5l-2.9-51.6c0,0-6.9,3.1-7.3-10.2l-1.8-8c0,0,8.9-1.3,11.3,8l2.7,62
		L1771.2,1082.5z M1848.3,981.4L1848.3,981.4l-164.9,5.3c-7.8,0.5-13.6-1.7-17.8-5.1c1.7-2.7,4.3-4.7,7.4-5.6h13.9l-0.3-7.1
		l-15.7,0.3l-3.9-1.5l-6.4-160.2c1.2-0.5,1.8-0.5,1.8-0.5c14.9-2.4,15.6,10.9,15.6,10.9l4,130l56.4-1.8l-20.7,8.2l12.7,6.9l16.4,4
		l5.3-5.5l29.8-15.3l93.1-4l0.7,4.7c0.3,8.2-2,14.7-5.4,19.9l-169.9,5.5l-0.3,5l166.7-6C1858.9,978.1,1848.3,981.4,1848.3,981.4z"/>
	<polygon class="st0" points="78.6,80.3 88.7,89.7 92.6,199.7 14.9,202.6 14.6,189.3 1.6,189.3 1.9,250.9 33.9,250.9 33.3,212.7 
		92.8,210.6 93.4,259.7 38.3,261 40.6,313 85,313.4 89,312.1 91.7,284.6 99.7,275.7 91.2,22.3 77,22.3 76.3,6.5 -5.5,8.8 -1.7,81.7 
			"/>
	<polygon class="st0" points="-4.9,969.4 201.9,1092.1 214.9,1085 -2,951.7 	"/>
</g>
<g id="Buildings">
	<polygon class="st1" points="1345,931.6 1344.1,927.1 1326.3,929.7 1327.3,934.3 1315.3,936.1 1314.5,931.5 1286.6,935.7 
		1287.6,940.2 1274.5,942.2 1270.3,942.4 1269.2,936.6 1252.3,937.2 1252.8,943.1 1020.2,953.1 1019.4,946.6 1004.8,947.5 
		1005.3,953.7 978.9,954.8 978.5,949 963.4,949.6 963.6,955.5 924.6,957.1 924,950.8 908.3,951.1 908,957.9 886.3,958.8 
		879.2,958.6 878.9,949.6 857.9,949.3 858.1,958.1 819.4,957.1 819.7,948.7 798,947.8 798,956.5 758.2,955.5 757.7,947.8 
		737.6,947.2 737.6,954.9 697.9,953.9 697.9,946.3 677.2,946 676.7,953.4 656.4,952.8 653.4,1071.4 889.3,1075.5 1260.8,1061.3 
		1365.7,1046.5 1345.6,931.5 	"/>
	<polygon class="st1" points="1358,935.7 1361.4,968.1 1387.2,967.7 1389.4,1007.2 1507.2,1002.8 1505,929.7 	"/>
	<polygon class="st1" points="1287,685.7 1315.9,678.3 1312.8,668.8 1283.9,676.8 	"/>
	<polygon class="st1" points="1319.2,676.6 1335.4,674.3 1334.3,664.6 1317,667.7 	"/>
	<polygon class="st1" points="1259.9,574.3 1250.6,574.6 1250.1,608.6 1261,608.1 	"/>
	<polygon class="st1" points="1261,648.3 1261,612.8 1251,613 1251.9,649 	"/>
	<polygon class="st1" points="1264.8,555 1274.8,554.8 1274.3,524.6 1264.3,525.4 	"/>
	<polygon class="st1" points="1255,525.2 1217.7,525.4 1218.3,553.4 1255.7,552.8 	"/>
	<polygon class="st1" points="1155.9,555.2 1209.7,554.6 1209.4,531.4 1154.8,531.4 	"/>
	<polygon class="st1" points="1161.4,489.2 1161.4,516.3 1176.5,516.3 1176.5,514.1 1184.5,514.1 1184.5,509 1176.5,509 
		1176.5,489.2 	"/>
	<rect x="1187.7" y="517" class="st1" width="10" height="7.8"/>
	<polygon class="st1" points="856.6,273 856.6,279.7 850.3,279.7 850.3,290.6 861.2,290.6 861.2,279.7 860.3,279.7 860.3,273 	"/>
	<rect x="864.6" y="273.2" class="st1" width="7.3" height="14.2"/>
	<rect x="483.1" y="527.1" class="st1" width="9.5" height="17.8"/>
	<polygon class="st1" points="499.4,482.8 489.7,481.2 485.4,512.8 495.2,513.4 	"/>
	<polygon class="st1" points="510.6,448.3 500.3,445.2 491.9,474.8 502.3,477 	"/>
	<rect x="150.8" y="555.2" class="st1" width="72.4" height="222.2"/>
	<rect x="65" y="719.2" class="st1" width="72.9" height="177.8"/>
	<rect x="154.3" y="804.1" class="st1" width="63.1" height="109.8"/>
	<rect x="273.9" y="907.2" class="st1" width="169.8" height="55.1"/>
	<rect x="255.2" y="925.4" class="st1" width="16.9" height="26.2"/>
	<polygon class="st1" points="479.7,968.1 301.4,974.3 304.6,1041.4 482.3,1034.3 	"/>
	<polygon class="st1" points="341.4,1055.7 342.8,1093.9 584.1,1092.6 582.3,1046.8 	"/>
	<rect x="1071.2" y="772.4" class="st1" width="20.7" height="9.8"/>
	<rect x="1100.3" y="820.7" class="st1" width="17.5" height="10.4"/>
	<polygon class="st1" points="1093,40.1 1069.9,40.1 1069.9,-4.8 986.8,-4.8 986.8,40.1 957.9,40.1 957.9,12.1 912.1,12.1 
		912.1,40.1 861,40.1 861,-4.3 745.9,-4.3 745.9,40.1 565.4,40.1 565.4,125 1093,125 	"/>
	<polygon class="st1" points="1228.8,64.8 1235.5,66.7 1229,85.4 1376.1,138.3 1469.9,211.2 1493.4,182.3 1481.9,173 1495.7,156.1 
		1432.1,106.3 1443.7,88.6 1412.1,64.1 1344.6,41 1337.4,64.6 1260.1,37.4 1254.8,55.2 1241,50.8 1238.4,58.3 1230.5,55.2 
		1233.9,35.2 1145,22.8 1138.3,77.4 1224.6,89.9 	"/>
	<rect x="1506.8" y="236.6" class="st1" width="15.6" height="9.3"/>
	<polygon class="st1" points="1498.8,229.9 1506.3,222.3 1500.1,215.2 1491.7,223.2 	"/>
	<rect x="1667.2" y="236.6" class="st1" width="56" height="72"/>
	<rect x="1776.1" y="220.1" class="st1" width="42.2" height="104.4"/>
	<polygon class="st1" points="1738.3,162.8 1775.7,162.8 1775.7,113.4 1738.3,113.4 1738.3,118.3 1688.6,118.3 1688.6,155.7 
		1738.3,155.7 	"/>
	<polygon class="st1" points="1925.4,363.7 1812.6,368.6 1813,381.4 1794.3,382.3 1793.4,371.7 1769.9,372.6 1769.9,382.8 
		1707.2,387.2 1711.2,457 1749.4,456.6 1749.9,461 1768.1,460.1 1768.6,456.1 1801,454.3 1790.3,463.7 1811.2,484.1 1818.8,477.4 
		1821,552.6 1860.6,551.2 1861,557.4 1925.9,555.7 	"/>
	<polygon class="st1" points="1835.2,605 1757.4,608.1 1760.1,696.6 1839.7,693 	"/>
	<polygon class="st1" points="1798.8,1058.8 1777.9,1058.8 1777.9,1094.3 1833.9,1094.3 1833.9,1071.2 1847.2,1071.2 1847.2,1031.7 
		1798.8,1031.7 	"/>
	<rect x="1701" y="-3.9" class="st1" width="29.3" height="19.6"/>
	<rect x="94.6" y="3.5" class="st1" width="15.4" height="20.7"/>
	<rect x="100" y="75.2" class="st1" width="10.1" height="14.8"/>
	<polygon class="st1" points="87.5,311.1 87.5,275.8 94.3,275.8 94.3,264.8 87.5,264.8 87.5,205.6 94.3,205.6 94.3,196.1 
		87.5,196.1 87.5,161.1 21.2,161.1 21.2,188.1 1,188.1 1,252.1 21.2,252.1 21.2,269.3 10.8,269.3 10.8,281.1 21.2,281.1 21.2,311.1 
			"/>
</g>
</svg>
