<?xml version="1.0" encoding="utf-8"?>
<!-- Generator: Adobe Illustrator 24.0.1, SVG Export Plug-In . SVG Version: 6.00 Build 0)  -->
<svg version="1.1" id="Inactive_Configs" xmlns="http://www.w3.org/2000/svg" xmlns:xlink="http://www.w3.org/1999/xlink" x="0px"
	 y="0px" viewBox="0 0 1920 1080" style="enable-background:new 0 0 1920 1080;" xml:space="preserve">
<style type="text/css">
	.st0{fill:#A7A9AC;}
</style>
<title>inactive</title>
<path class="st0" d="M1808.4,580.3c-17.3-26.8-58-35.2-80.6-37.8c-9-1-18.1-2-27.2-3l-108.3-28.3c-20.3-5.9-48.2-8.9-49.4-9
	l-299.3-32l-0.2,0c-25.5-1.8-36.3-1.2-36.8-1.2l-0.3,0l-76.7,12.9c-0.5,0.1-1,0.3-1.5,0.5c-36.6-7.2-49.8-17.7-50.8-36
	c-1.7-30.9,25.5-35.5,33.9-36.2l74-5.9c29.3-2.2,58.7-6.8,87.3-13.7c22.2-5.4,51-11.9,81.4-18.8c49.6-11.2,105.7-24,151.6-35.7
	c14-3.6,23.5-9.8,28.2-18.5c4.9-9.1,3-18.3,1.4-23c-8.1-23.7-29.3-25-39.6-22.3c-78,14.3-107.7,20.6-129.5,25.2
	c-13.1,2.8-23.5,5-39.8,7.9c-47.1,8.6-62.5,10.2-81.9,12.2c-2,0.2-4,0.4-6,0.6c-55,5.8-147,15.5-239.7,19.7
	c-21.6,1-34.8,5.2-41.3,13.3c-4.2,5.1-5.6,11.6-4.3,19.8c4,25.1-8.2,27.4-8.8,27.4l0.1,0l0.2,1.3c-0.4-0.1-0.9-0.2-1.4-0.2
	c-70.8-0.4-148.8-1.3-231.5-2.3c-170.7-2-347.2-4.1-463.1-1.3c-54,1.3-86.5,23.1-104.2,41.2c-14.3,14.7-20.8,24.5-27.9,35.8
	c-5.4,8.6-13.5,21.6-18.1,37.2c-2.4,8-9.6,32.5,1.6,48.3c26.2,36.8,56.1,80.3,84.9,122.3c40.9,59.6,83.3,121.2,114.3,162.5
	c23.9,31.9,63.4,33.1,82.7,26.3c31-10.9,60-27.9,86.3-50.6c41-35.3,82.1-43.6,113.4-46.8c28.6-3,90.8-3.5,117.2-2.3
	c29.3,1.2,55.3,4.6,72.4,7.1c10.9,1.5,33,6,43.9,8.8c18.1,4.7,24.8,10.2,30.7,15c44.1,36.3,122.8,103.9,164.7,140.3
	c20.2,17.6,38,22.8,52.7,22.8c13.1,0,23.7-4.1,31.2-7.1c36.6-14.3,73.4-30.5,109.4-48.2c14.6-7.1,28.3-15.2,40.5-22.4
	c16.7-9.8,31.1-18.3,43.6-22.4c25.3-8.2,52.6-10.6,79-6.9c7.9,1.1,16.4,2.9,26.2,5c16.1,3.5,34.4,7.4,57.5,9.8
	c42.9,4.5,67.3,1.9,85.5-1.2c8.4-1.4,36.7-6.4,50.5-10.8c27.2-8.7,43.8-17.4,57.2-24.4l1.6-0.9c13.5-7.1,34.7-19.9,45.3-28.4
	c15.7-12.6,34.3-33.6,42.9-44.7c60.6-77.6,68.4-97,79-130.1C1818.9,611.6,1817.5,594.4,1808.4,580.3z M1207.5,479
	c1.8-0.1,12.6-0.4,35.2,1.2l299.2,32c0.3,0,28.2,3,47.7,8.7l45.5,11.9c-54.5-5.4-109.7-10.2-163.8-15
	c-109.5-9.6-213.4-18.8-307.5-31.4L1207.5,479z M1803,628.4c-10.3,32-17.9,50.8-77.4,127c-8.3,10.7-26.2,31-41.2,43
	c-10.1,8.1-30.5,20.5-43.6,27.3l-1.6,0.9c-13.7,7.2-29.3,15.3-55.6,23.7c-10.4,3.3-32.2,7.6-49.1,10.5c-18.4,3.2-41.2,5.5-82.8,1.1
	c-22.6-2.4-40.6-6.2-56.4-9.6c-10-2.2-18.7-4-27-5.2c-27.8-3.8-56.7-1.3-83.4,7.3c-13.6,4.4-28.4,13.2-45.6,23.2
	c-12.6,7.4-25.6,15-39.8,22c-35.7,17.6-72.3,33.7-108.6,47.8c-20.2,7.9-42.5,13.3-73.7-13.9c-41.9-36.4-120.7-104.1-164.9-140.5
	c-7.8-6.4-15.8-12.1-34.5-17c-11.4-2.9-33.6-7.4-45-9c-17.3-2.5-43.6-5.9-73.4-7.2c-27.3-1.2-89.2-0.7-118.7,2.4
	c-30.2,3.1-75.3,11.7-118.9,49.2c-25.4,21.9-53.4,38.2-83.1,48.7c-11.1,3.9-48.2,8.1-71.3-22.8c-30.9-41.2-73.2-102.7-114-162.2
	c-28.9-42.1-58.8-85.6-85-122.5C99.8,541,106,520,108,513.1c4.2-14.2,11.5-26,16.9-34.6c7-11.2,13-20.2,26.6-34.2
	c16.4-16.8,46.6-37,97.3-38.2c115.8-2.8,292.2-0.7,462.7,1.3c82.7,1,160.8,1.9,231.6,2.3c0,0,0,0,0,0c1.3,0,2.5-0.5,3.4-1.3
	c2.2-0.5,7.4-2.1,11.6-7.7c5.3-7.1,6.9-17.5,4.8-31c-0.8-5.3-0.2-9,2.1-11.9c4.5-5.5,16-8.8,34-9.6c93-4.2,185.2-13.9,240.3-19.8
	c2.1-0.2,4.1-0.4,6-0.6c18.9-2,35.2-3.6,82.6-12.3c16.5-3,26.9-5.2,40.1-8c21.7-4.6,51.4-10.9,129.4-25.2l0.4-0.1
	c2.1-0.5,20.8-4.8,27.8,15.8c1.1,3.1,2.4,9.2-0.7,15c-3.3,6.1-10.6,10.7-21.9,13.6c-45.7,11.7-101.8,24.4-151.3,35.7
	c-30.5,6.9-59.3,13.5-81.5,18.8c-28.1,6.8-56.9,11.3-85.7,13.4l-74.1,5.9c-21,1.7-44.9,14.9-43.1,46.7c1,18.2,11.5,30.5,33.1,38.4
	c18.3,6.8,45.3,11.2,92.9,15.1c0.1,0,0.3,0,0.4,0c0.4,0,0.8-0.1,1.1-0.1c85.5,10.6,178.2,18.7,275.4,27.3
	c75.5,6.6,153.3,13.5,228.4,21.7c0.4,0.1,0.7,0.1,1.1,0.1c0,0,0,0,0.1,0c8.9,1,17.8,2,26.7,3c16.8,1.9,57.7,9,73.4,33.3
	C1807.4,597.2,1808.4,611.6,1803,628.4z"/>
</svg>
