<svg id="PEC_Inactive_Configs" data-name="PEC Inactive Configs" xmlns="http://www.w3.org/2000/svg" viewBox="0 0 1920 1080"><defs><style>.cls-1{fill:#a7a9ac;}</style></defs><path class="cls-1" d="M2485.92,223.51a24.51,24.51,0,0,0-12.57-11.94c-8.86-3.71-17.36-1-21,.15-5.64,1.8-11.63,3.18-17.43,4.51-9,2.08-18.33,4.23-27.15,8-10.27,4.43-21.1,8.23-31.57,11.9-8.15,2.85-16.57,5.81-24.77,9.07-18.8,7.47-27.64,10.39-39.88,14.44-10.48,3.47-23.53,7.78-47.38,16.42-20.82,7.55-29.93,11.17-41.48,15.76-10.82,4.31-24.29,9.66-52.15,20.13-32.16,12.07-65,24-95.13,34.59-18.41,6.46-27,9.34-36.14,12.39-8.91,3-18.12,6.06-37.24,12.75-29.66,10.39-46,16.45-57.92,20.88-14,5.19-21.66,8-37.52,12.86-27.31,8.3-50.31,13.77-69.91,18-4,.75-8.34,1.69-12.78,2.66-2.25.5-4.51,1-6.76,1.47h0c-23.52,4.89-55.74,11.59-99.69,16.41a799.08,799.08,0,0,1-86.06,5.33c-37.1.23-64.66-2.29-89-4.51-35-3.21-70.93-8.18-106.74-14.78-52.37-9.66-91.83-20.59-115.42-27.12-32.49-9-56-15.49-88.22-27.48-25.36-9.43-50.24-20.83-99.83-43.56-37.82-17.33-56.8-26-76.1-35.78-18.13-9.17-24-12.62-38.24-21-12.2-7.16-30.64-18-68.34-39.12l-4.13-2.32c-31.83-17.82-47.81-26.77-65.57-45.79-10.8-11.57-22-23.53-27.28-42.46-1.78-6.33-1.82-9.58-1.92-19.24-.08-7.34-.21-18.45-1.2-37-1.72-32-3.52-39-6.07-46-3.33-9.16-9-17.87-20.29-35.23-8.4-12.9-13.25-18.87-21.59-22.48a38.73,38.73,0,0,0-21.73-2.41c-16.18,2.57-26.38,13.76-31.86,19.77l-.32.35c-6.6,7.24-14.28,13.86-21.71,20.27C716.93,31.2,707.75,39.12,700,48.37c-12.65,15.06-44.45,48.53-107.81,115.2-7.57,8-32.7,33.11-82.77,83.19C481.77,274.4,463.88,292.21,452,304c-21.13,21-24.38,24.28-32.24,32.77-22.65,24.5-60.57,65.5-100.68,126.38-27.4,41.59-51.94,86.22-69.1,125.67-7.17,16.49-23.44,56.21-19.51,68.82C242.6,696.5,338.13,893.38,402.1,1020.77c15.82,31.5,42.71,87,70.73,148.25,8.33,18.2,17.77,36.18,26.91,53.56,10.77,20.49,21.91,41.68,31.17,63.21l.05.11a283.88,283.88,0,0,0,45.93,72.94c11.48,13.1,24.82,26,44.52,31.21a76.7,76.7,0,0,0,19.81,2.53,94.75,94.75,0,0,0,16.32-1.5c13.38-2.25,23.19-6.93,41.51-17.27a654.37,654.37,0,0,0,71.64-46.72c17.15-12.77,25.47-20,32.55-32.09,3.11-5.27,10.37-17.62,10.28-33.79-.07-11.88-4.15-21.21-12.7-36.43-10.27-18.28-19.47-31.44-36.21-54-25-33.69-29.79-38.67-37.16-44.28-8.86-6.76-17.53-11.07-34.81-19.67-5.8-2.89-10.72-5.16-15.48-7.36a258.14,258.14,0,0,1-29.9-15.62c-8.46-5.19-13.16-8.72-17.94-13.5a85,85,0,0,1-14.91-20.49c-8.66-15.93-12.68-29.57-16.93-44l-.6-2c-5.64-19.1-9.38-30.67-12.1-39.11-4.08-12.63-5.61-17.36-7.55-28.94-4.34-25.83-2.41-36,.06-42.55a57.18,57.18,0,0,1,45.35-36.41c5.26-.93,14.06-2.49,24.67.5,7.85,2.22,13.2,6,18.86,10.08a106.35,106.35,0,0,1,19.76,18.28c38.39,46.54,57.65,69.9,62.57,76.73,12.7,17.66,18,23.54,26,32.44,8.38,9.33,19.85,22.11,46.51,55.86,6.77,8.57,12.69,16.18,17.92,22.89,20.15,25.9,32.31,41.54,54.61,62.67,29.46,27.93,45.61,36,58.66,40.66,8.35,2.95,33.77,11.93,72.75,4.84,15.75-2.87,29.4-7.87,68.65-29.93,45-25.34,73.64-44.55,73.93-44.74,27.84-18.76,37.13-24.37,48.88-31.47,12.91-7.8,29-17.5,77.24-49.52,52.06-34.53,77.66-52.59,102.42-70.06,23.28-16.42,45.27-31.93,87.41-59.79,26.61-17.59,38.35-25,54.6-35.15,16.69-10.48,37.47-23.51,83-52.94,38.81-25.12,58.28-38,82.92-54.34,20.93-13.87,44.65-29.58,86.54-57,35.5-23.23,51.8-33.75,74.36-48.3,22-14.22,49.49-31.92,105.86-68.56h0c60.66-39.42,91.38-59.54,111.71-72.85,23.53-15.41,31.45-20.6,54.27-35,27-17.1,46.92-29.42,66.14-41.34,27.84-17.25,54.13-33.55,99.92-62.88,42.15-27,60.24-39,68.93-44.84,8.1-5.39,8.77-5.84,13.81-8.4,15.65-7.95,30.08-18.23,44-28.17,12.51-8.92,25.45-18.14,39-25.45l.1-.05c3.62-1.95,14.64-7.89,18.24-19.84A24.34,24.34,0,0,0,2485.92,223.51ZM1718.49,454c44.44-4.87,78.27-11.91,100.66-16.57,5.93-1.23,12.23-2.54,18.92-4,7.13-1.33,14-2.22,16.09-1,.95,5.09-.51,33.19-2.28,57.5-14.39-22.39-46-26.15-58.68-27.66l-.46-.06c-9.76-1.16-42.81-4.55-78.23-7.77ZM1088.67,1143.1c-38,21.36-50.93,26.15-65.54,28.81-9,1.64-36.37,6.62-67.63-4.43-12-4.25-27-11.85-55.11-38.49-21.75-20.61-33.06-35.15-53.6-61.55-5.24-6.73-11.17-14.35-18-23-26.86-34-38.45-46.91-46.92-56.34-8-9-12.91-14.38-25.3-31.6-5.1-7.1-24.44-30.54-63-77.25A116.46,116.46,0,0,0,672,859.24c-6.11-4.36-12.42-8.87-22-11.56-12.82-3.62-23.43-1.74-29.13-.73a67.22,67.22,0,0,0-53,42.74c-2.93,7.79-5.29,19.56-.56,47.73,2.06,12.3,3.77,17.58,7.89,30.35,2.71,8.39,6.42,19.89,12,38.88l.59,2c4.41,15,8.58,29.09,17.75,46a94.54,94.54,0,0,0,16.62,22.79c5.33,5.32,10.69,9.37,19.78,14.94A265.89,265.89,0,0,0,673,1108.52c4.7,2.17,9.55,4.42,15.22,7.24,16.72,8.32,25.11,12.49,33.21,18.67,6.53,5,11,9.64,35.19,42.29,16.48,22.22,25.52,35.14,35.52,53,8.81,15.67,11.37,22.76,11.42,31.59.08,13.41-6,23.71-8.9,28.66-6.11,10.39-13.15,16.67-29.9,29.14a646.83,646.83,0,0,1-70.59,46c-19.19,10.83-27.41,14.3-38.25,16.12-5.29.89-17.67,3-31.9-.83-16.15-4.31-27.5-14.37-39.57-28.14a273.36,273.36,0,0,1-44.26-70.3l0-.12c-9.42-21.88-20.65-43.24-31.51-63.91-9.07-17.26-18.45-35.11-26.67-53.06-28.07-61.38-55-117-70.88-148.58C347.22,889.19,252,693,240.06,654.67c-1.26-4,2.83-24.39,19.13-61.87,16.94-38.93,41.19-83,68.28-124.15,39.66-60.2,77.23-100.82,99.68-125.09,7.71-8.34,10.94-11.56,31.94-32.47,8.13-8.1,19.11-19,34.13-34,3.16-3.24,13.31-9.11,25.93-13.6a60.21,60.21,0,0,1,22.92-3.22c6.67.18,16.74.44,25.95,5.56,4,2.22,6.69,4.55,23.91,33.05,16.13,26.69,18.52,32.32,19.67,35a154.62,154.62,0,0,1,9.8,30.78c1.75,8.64,2,13.88,2.36,22.55.16,3.51.34,7.49.64,12.43,0,.24,1.55,24.42,5.41,49.31,2.37,15.26,5.06,32.55,11.74,52.56,4.46,13.32,10.37,27.2,24.76,51.66,15.57,26.45,28,43.2,43.7,64.39,3.55,4.8,7.26,9.8,11.2,15.18,1.64,2.24,1.76,2.4,4.73,6.72,4.65,6.76,15.54,22.57,48.17,69.45,8.32,11.94,8.54,12.25,14.18,20,6.18,8.56,19.05,26.37,56.77,79.15l.09.13c9.61,13.46,18.87,26.39,31.2,39.84l0,0c.75.87,1.55,1.72,2.37,2.55,4.6,4.89,9.63,9.84,15.26,14.93a268.54,268.54,0,0,0,37.61,28.57c28.74,17.81,53.84,25.2,68.83,29.61,26.38,7.77,57,13.26,73.5,16.21l4.75.84c14.1,2.48,22.61,4,33.34,9.77a189.63,189.63,0,0,1,36,24.21c4.72,4,9.08,7.84,13,11.5-3,4.15-7.33,9.62-13.46,17.31l-3.49,4.39c-20.76,26.08-23.57,30.31-25.11,37.77-2.17,10.57-.79,21.81,1,36,.51,4.15,1,7.36,1.47,10,.82,5,1.28,7.75.79,12-1.1,9.58-8.33,21.89-13.19,27.73Q1099.54,1137,1088.67,1143.1ZM689.46,163.38a37.88,37.88,0,1,1-5.1,1.36C686,164.25,687.74,163.79,689.46,163.38ZM944.55,817.12a24.82,24.82,0,0,0-1.18-4.18,147.83,147.83,0,0,0,35.74,4.71c1.43,0,2.87,0,4.32-.08-.37,4.68-1,11-1.95,17.56a118.91,118.91,0,0,0-36.34,6.32C947,833.9,946.14,825.51,944.55,817.12ZM734.41,523.2c-3.95-10.93-20.86-19-35.77-26.08-4.58-2.18-8.91-4.25-12.25-6.12-11.57-6.48-13.27-36-14.52-57.51-1-17.49-5-34.41-8.18-48-1.49-6.33-2.89-12.3-3.74-17.25-1.29-7.52-3.57-18.93-5.79-30l-.36-1.81c-2.09-10.51-1.36-16,14.26-21.31,10.79-3.64,38.65-13,50.07-7.18,2.62,2,5.3,4,8.09,5.92l1.64,1.14c12.34,8.65,29.25,20.5,46.09,24s46.27,5.12,60.12,4.78c1.3,0,2.61-.1,3.92-.16,11.11-.57,21.61-1.1,40.83,21.49,14.95,17.58,42.34,46.15,64.35,69.1,11.87,12.38,22.12,23.07,27.19,28.69,1.6,1.78,3.79,4.12,6.42,6.9h0c2.67,2.79,3.33,6.17,4.31,11.28,1.13,5.83,2.53,13.09,7.71,21.89,9.69,16.49,53,78.57,63.15,91.12l.31.38c10.66,13.17,22.73,28.09,45.5,30.47,5.88.61,10.87,1,14.88,1.25,9.63.68,14,1.06,15.77,3.13s3.26,3.69,4.4,5.06c4.19,5.08,11.4,12.7,20.52,22.35,17.16,18.16,40.67,43,61.81,69.64q6.06,7.64,11.68,14.6c25,31.12,43.09,53.6,41.86,72.15-1.45,21.77-10.2,30.49-20.62,38.88-8.93,7.19-42.87,3.61-66.1-4.27l-.17-.06c-18.88-6.4-38.4-13-51-25.58a120.34,120.34,0,0,1-10.37-12.35c-7.42-9.68-15.09-19.7-29.7-22.42-11.23-2.1-21.11-1.64-29.27,1.13a5.07,5.07,0,0,0-.76.22c-3.57,1.43-35.84,14.08-68.46,18.16-27.68,3.46-53.24-5.13-68.51-10.27L921.9,796a2.1,2.1,0,0,0-.24-.06c-5.12-1.66-10.58-2.88-15.82-4-5-1.13-10.25-2.29-14.82-3.75-17.77-5.67-24.92-24.28-28.75-37.79-5.11-18-10.33-38.07-13.9-62.73-4-27.59-17.78-43.36-29.34-54-8.21-7.57-24-14.17-40.65-21.15-6.49-2.72-13.21-5.54-19.54-8.43-18.28-8.38-20.8-20.67-20.8-32.7,0-1.58,0-3.42.05-5.44C738.23,553.32,738.46,534.37,734.41,523.2Zm258-37.15c5.34,5.49,11.15,11.44,17.08,17.52,20.1,20.58,42.88,43.91,50,52.26,6.29,7.34,20.16,21.89,34.86,37.29,7.66,8,15.45,16.21,22.15,23.34l-3.2-.23c-4.14-.29-8.83-.62-14.54-1.22-18.64-2-28.42-14-38.76-26.81l-.32-.39c-10-12.37-52.74-73.62-62.3-89.89A47.5,47.5,0,0,1,992.42,486.05Zm44.42,361.64c-12.79-6.12-29.2-11.18-45.31-12.31,1-7.1,1.65-13.81,2-18.61h0c17.35-2.17,34.55-6.66,47.72-10.72a44,44,0,0,0-3.73,11.13C1035.12,829.28,1034.89,839.38,1036.84,847.69Zm-102.7,10c.06,0,.12-.06.17-.1,8.81-6.14,26.42-11.79,45.64-12.46-.88,5.23-1.87,10.19-2.91,14.19-2.34,8.94-7.65,23-11.63,33.15-5.47,1.88-12.22,2.32-15.57.6-4.21-2.26-8.54-4.73-13-7.47a251.31,251.31,0,0,1-27.65-20.09c.58,0,1.15.06,1.73.06a37,37,0,0,0,15.08-3.26A42.23,42.23,0,0,0,934.14,857.74Zm52.57,4.16c1.22-4.69,2.36-10.53,3.35-16.6h0c22.14,1.37,45.62,11.24,56.53,19.84,5.81,5.4,13.83,8.8,24,10.09,16.12,2.06,27.24,0,38-2,9.17-1.7,17.84-3.31,29.22-2.06,12.12,1.34,26,4.76,39.75,8.36a70.37,70.37,0,0,0-7.78,7.62c-3,3.26-5.81,6.34-8.89,8.11-8.2,4.7-61.45,5.73-87.15,4.49-12.85-.62-26.55-4-39.79-7.25-6.18-1.53-12.58-3.1-18.75-4.36-16-3.24-28.25-3.77-36.74-1.62C981.65,878,985,868.63,986.71,861.9Zm199.65,9.63c-16.12-4.26-32.78-8.67-47.48-10.29-12.85-1.41-22.66.41-32.15,2.17-10,1.85-20.32,3.77-34.89,1.9-10-1.28-17-4.76-21.19-10.63-5.4-7.48-6.51-19.45-3.33-35.56,4.93-24.93,28.19-24.46,41.61-22,10.85,2,16.47,9.37,23.6,18.67a129.28,129.28,0,0,0,11.23,13.34c14.21,14.2,35.78,21.52,54.82,28l.17.06c22.36,7.58,61.85,13.65,75.58,2.59,11.37-9.16,22.61-20.25,24.32-46,1.5-22.45-16.61-45-44-79.08q-5.59-7-11.65-14.56c-21.41-27-45.08-52-62.37-70.29-9-9.51-16.1-17-20.08-21.85-1.19-1.43-2.73-3.2-4.55-5.24h0c-8-8.9-21.33-22.92-34.34-36.56-13.95-14.63-28.38-29.76-34.5-36.9-7.36-8.59-29.27-31-50.46-52.74-16.73-17.14-32.54-33.32-38.88-40.35-5.17-5.74-15.47-16.48-27.4-28.92-21.91-22.86-49.18-51.3-63.94-68.65-22.42-26.36-36.52-25.65-49-25-1.22.06-2.44.12-3.66.15-13.05.32-42.08-1.3-57.84-4.58-14.82-3.07-30.75-14.24-42.38-22.39L732,305.68c-1.86-1.3-3.66-2.61-5.44-3.93a4.74,4.74,0,0,0-.9-.89,17.67,17.67,0,0,0-2.06-1.33c-24.71-18.94-41.44-39.52-51.76-58.09a47.79,47.79,0,0,0,64.27-13.8,262.81,262.81,0,0,0,15.7,64.81c5.37,13.37,20.31,27,32,29.11,7.89,1.45,32.28,1.27,56.6,1l7.7-.1c15.8-.14,18.66,1.68,22.75,5.19,3,2.54,24.19,24.19,42.94,43.29,16.36,16.66,31.81,32.41,38.12,38.57,5.44,5.32,32.17,33.15,63.12,65.38,50.35,52.43,113,117.69,135.66,140,32.38,31.84,70.93,79.25,97.56,113.42,16.11,20.67,49.26,73.74,57.68,94,7.85,18.9.24,43.56-11.65,56.49-10.76,11.7-44.36,5.9-66.59,2.06-2.26-.39-4.44-.77-6.51-1.11C1210.7,878,1198.88,874.83,1186.36,871.53Zm-537.59-671c0,1.27.07,2.53.17,3.77a4.91,4.91,0,0,0-.13,1.84c3,23.86,19.14,58.22,55,90.06-11.59.84-25.26,4.83-38.94,9.44-6.8,2.3-11.89,5-15.43,8.35-.31-1.74-.55-3.2-.7-4.28a146.46,146.46,0,0,1-.71-15.41,223.22,223.22,0,0,0-1.15-22.79,23.55,23.55,0,0,0-9.33-15.92c-7.61-5.93-19.08-8.76-30-7.38a24.69,24.69,0,0,0-4.38,1c15.61-32.58,31.55-54.69,50-68.74A47.59,47.59,0,0,0,648.77,200.55Zm-55,69.21c.16-.36.34-.72.53-1.06l.06-.11c3.05-5.58,8.71-9.72,14.44-10.44,8.2-1,17.06,1.06,22.55,5.34a13.63,13.63,0,0,1,5.56,9.22A216.47,216.47,0,0,1,638,294.47a151.11,151.11,0,0,0,.8,16.61c.65,4.75,2.81,15.58,5.16,27.31h0c.12.61.24,1.22.37,1.83,2.2,11,4.47,22.31,5.73,29.69.9,5.25,2.34,11.37,3.86,17.85,3.27,13.91,7,29.67,7.94,46.3,1.53,26.48,3.27,56.49,19.61,65.65,3.63,2,8.1,4.17,12.84,6.43,11.86,5.65,28.11,13.38,30.67,20.46,3.43,9.46,3.21,28,3.08,39.13,0,2.06-.05,3.94-.05,5.56,0,8.85,0,29.59,26.64,41.79,6.48,3,13.27,5.81,19.84,8.56,15.85,6.64,30.82,12.91,37.73,19.28,11,10.13,22.7,23.76,26.22,48.1,3.65,25.23,9,45.68,14.18,64,2.57,9.06,10.39,36.63,35.33,44.59,5,1.6,10.43,2.81,15.69,4,17.51,3.9,29.14,7.21,31.05,17.36,3,15.85,1.67,24.36-5.68,30.15-.14.11-.3.21-.44.31a3.57,3.57,0,0,0-.37.31,34.42,34.42,0,0,1-6.22,3.46c-16.24,7.19-29.78-3.22-35.84-9.26-13.22-14-22.84-27.49-32.88-41.54l-.1-.13c-37.73-52.81-50.61-70.63-56.8-79.19-5.58-7.73-5.8-8-14.07-19.91-32.61-46.85-43.5-62.65-48.15-69.4-3-4.35-3.17-4.61-4.89-7-3.95-5.39-7.67-10.41-11.24-15.22-15.54-21-27.81-37.52-43.11-63.52-13.95-23.7-19.64-37-23.89-49.75-6.42-19.21-9-36.06-11.35-50.92-3.79-24.42-5.29-48.16-5.31-48.4-.3-4.85-.47-8.78-.63-12.25-.39-8.85-.65-14.69-2.55-24.09A164.06,164.06,0,0,0,620.81,330c-1.34-3.14-3.82-9-20.32-36.3-2.38-3.94-4.5-7.4-6.41-10.48C590.81,278,592.5,272.56,593.81,269.76ZM1166.26,977.5c-3.74-3.4-7.69-6.87-11.8-10.35A199.64,199.64,0,0,0,1131,949.9c13.18,2.46,23.46,4.83,26.21,6.88,1.47,1.1,8.84,7,9.77,15.3A11.21,11.21,0,0,1,1166.26,977.5Zm24.09,41.59c3.59,7.58,5.74,26.46-3,47.38-7,16.74-18.82,26.63-26.72,33.2-3.78,2.5-15.48,10.14-33.2,20.86a53.55,53.55,0,0,0,4.78-15.68c.64-5.6,0-9.43-.87-14.73-.43-2.62-.92-5.6-1.41-9.54-1.7-13.84-2.94-23.84-1.09-32.81,1-5.06,3-8.25,23.13-33.55l3.49-4.38c5.46-6.85,9.72-12.19,13-16.63C1180.66,1005.18,1188.15,1014.44,1190.35,1019.09ZM1477.94,887.9c-42.27,27.94-64.32,43.49-87.67,60-24.7,17.43-50.23,35.44-102.18,69.9-48.09,31.9-64.06,41.54-76.88,49.29-5.79,3.5-11.19,6.76-18.76,11.59a80.08,80.08,0,0,0,4.07-8.3c9.42-22.42,8.09-44.5,2.86-55.53-3.19-6.74-12.54-17.71-25.45-30.13,2.68-5,3.49-8.94,3-13.7-1.35-12.13-10.85-20.07-13.73-22.22-6.33-4.71-25.24-8-60.91-14l-11.16-1.87c-3.3-.66-6.8-1.28-10.66-2l-4.72-.84c-16.28-2.91-46.58-8.34-72.43-16a310.52,310.52,0,0,1-31.45-10.72c.41-1,.87-2.16,1.36-3.4a26.13,26.13,0,0,0,3.34-2c2.45-1.76,10.93-5.31,36.65-.09,6,1.22,12,2.7,18.35,4.27,13.7,3.37,27.88,6.87,41.7,7.53,3.29.16,13,.42,25.12.42,24.48,0,58.5-1.07,67.48-6.23,4.44-2.54,7.92-6.34,11.29-10,6.08-6.64,10.19-10.69,16.92-10,9,2.31,17.52,4.36,25.44,5.68l6.45,1.1c13.22,2.28,28.93,5,43.07,5,13.48,0,25.52-2.47,32.58-10.15,13.83-15,23.27-43.64,13.53-67.09-8.67-20.87-42.59-75.24-59-96.34-26.82-34.41-65.67-82.18-98.43-114.4-22.56-22.17-85.17-87.37-135.47-139.75-32.29-33.62-57.79-60.18-63.34-65.61-6.23-6.09-22.37-22.53-38-38.43-24.34-24.79-40.52-41.24-43.56-43.86-7.12-6.13-13.42-7.76-29.37-7.61l-7.73.1c-16.45.21-47.08.6-54.67-.79-7.42-1.36-20.18-12.25-24.51-23-2.76-6.87-16.54-43.43-16.54-88.17a47.83,47.83,0,0,0-63.41-45.25c-20.77,6.21-38.65,18.37-54.48,37.06-14.37,17-27.39,39.68-41,71.41-.32.57-.62,1.16-.9,1.76s-.6,1.39-.86,2.09c-4.65-6.39-7.37-8.55-11-10.57-11.35-6.3-23.36-6.62-30.53-6.81a70.76,70.76,0,0,0-25.84,3.56c50.11-50.12,75.27-75.28,82.92-83.34C662.92,103.64,694.8,70.09,707.64,54.8c7.25-8.63,15.73-15.94,24.7-23.68C740,24.52,747.91,17.7,754.91,10l.32-.35c5-5.47,13.32-14.62,26-16.63a28.92,28.92,0,0,1,16.19,1.71c5.5,2.38,9,6.23,17.17,18.75C825.51,30.22,831,38.61,833.91,46.7c2.17,6,3.84,12.56,5.48,43.08,1,18.33,1.11,29.3,1.19,36.56.11,10.07.15,14.24,2.29,21.83,6,21.28,18.53,34.72,29.6,46.58,18.82,20.16,35.26,29.36,68,47.7l4.13,2.31c37.61,21.09,56,31.88,68.17,39,14,8.22,20.38,12,38.79,21.27,19.47,9.84,38.51,18.57,76.47,36,49.79,22.82,74.78,34.27,100.49,43.83,32.66,12.14,57.54,19,89,27.75,23.74,6.58,63.47,17.58,116.27,27.31,36.1,6.65,72.32,11.67,107.64,14.9,24.53,2.25,52.34,4.8,89.94,4.56,5.94,0,11.66-.15,17.16-.3,48.89,3.29,127.07,11.15,143,13l.45.06c28.25,3.35,60.25,12.1,57,50.21-2.31,27-8,43.18-17.87,51.06-7.38,5.88-17.6,7.71-32.13,5.73-29.1-4-58.9-8.32-79.23-11.3l-15.75-2.3c-12.7-1.84-26.79-4-41.71-6.27-46.67-7.13-99.58-15.22-150-20a28.12,28.12,0,0,0-19.79,6.52c-10.23,8.66-10.33,23.15-10.43,37.18-.21,32-.33,48.14.87,57.94,3.33,27.41,5.34,44,15.37,63.14a73.76,73.76,0,0,0,10.93,16,110,110,0,0,1,13.1,18.46c10.81,18.35,17.94,30.48,19.11,47.69,1.3,19.16-5.58,34.41-11.11,46.66-.92,2-1.77,4-2.61,5.93-4.64,10.67-8.32,19.13-18.1,28.48C1501.22,872.61,1491.51,878.93,1477.94,887.9ZM1859.4,640.13c-22.57,14.56-38.88,25.08-74.42,48.33-41.91,27.42-65.65,43.14-86.58,57-24.62,16.31-44.07,29.2-82.83,54.28-45.42,29.39-66.17,42.41-82.84,52.87l-.46.29c1.68-3.36,3.15-6.75,4.64-10.19.82-1.89,1.66-3.81,2.56-5.8,5.67-12.57,13.44-29.78,12-51.45-1.33-19.57-9.36-33.21-20.47-52.08a119.3,119.3,0,0,0-14.13-19.9,63.49,63.49,0,0,1-9.66-14.1c-9.18-17.56-11-32.53-14.31-59.71-1.11-9.16-1-25-.79-56.66.11-14.89.62-24.31,6.89-29.61a18.11,18.11,0,0,1,12.37-4.2c50.17,4.79,102.93,12.85,149.47,20,14.94,2.28,29,4.44,41.78,6.28l15.74,2.29c50.3,7.37,143.21,21,168,21h1.2l2.07,0c13.17-.27,25.53-.53,37.64-2.38C1895.17,617.05,1875.79,629.56,1859.4,640.13Zm617.89-401.89c-2.4,8-10.68,12.45-13.41,13.91l-.09.06c-14.13,7.61-27.32,17-40.09,26.11-13.65,9.72-27.76,19.78-42.75,27.4-5.57,2.83-6.62,3.53-14.82,9-8.67,5.78-26.71,17.8-68.78,44.74-45.73,29.29-72,45.57-99.8,62.8-19.24,11.93-39.14,24.27-66.21,41.38-22.89,14.47-30.83,19.68-54.41,35.12-20.32,13.3-51,33.41-111.67,72.82h0c-24.69,16-48.42,16.53-75.9,17.09l-2.07,0h-1.08c-9.17,0-28.9-2.06-52.36-5a37.48,37.48,0,0,0,3.54-2.48c12.33-9.83,19-27.7,21.58-57.91,1.79-14.65,7.27-84.4,4.81-93.75a10.21,10.21,0,0,0-.71-1.9c13.93-3.38,29.31-7.47,46.39-12.66,16.14-4.91,23.94-7.8,38.09-13,11.89-4.42,28.17-10.46,57.75-20.82,19-6.66,28.22-9.74,37.1-12.71,9.15-3.06,17.8-5.95,36.28-12.44,30.15-10.57,63.11-22.56,95.34-34.66,27.95-10.5,41.46-15.88,52.33-20.2,11.46-4.55,20.52-8.15,41.19-15.65,23.71-8.59,36.69-12.88,47.11-16.33,12.4-4.1,21.36-7.06,40.43-14.64,8-3.19,16.34-6.1,24.38-8.93,10.64-3.72,21.64-7.58,32.24-12.15,8-3.45,16.45-5.4,25.43-7.47,6-1.38,12.18-2.81,18.27-4.75,2.8-.88,8.62-2.73,14.09-.44a13.67,13.67,0,0,1,7.81,17.45Z"/></svg>