<?xml version="1.0" encoding="UTF-8"?>
<svg id="a" data-name="Inactive Configs" xmlns="http://www.w3.org/2000/svg" viewBox="0 0 1920 1080">
  <defs>
    <style>
      .b {
        fill: #a7a9ac;
        stroke-width: 0px;
      }
    </style>
  </defs>
  <path class="b" d="m1536.85,547.76l-.34-.67-.47-.59c-.31-.4-31.67-39.91-51-62.65-11.61-13.67-28.8-26.51-45.98-34.36-22.29-10.18-43.89-12.06-62.46-5.41-41.32,14.78-59.49,50.86-77.05,85.75-16.77,33.32-33.72,45.67-34.92,46.52-6.21,3.74-164.84,99.33-209.66,123.17-19.67,10.46-35.19,13.76-47.45,10.08-9.88-2.97-18.57-10.44-29.06-24.98-14.47-20.06,13.47-51.11,16.74-54.64l317.12-249.85c14.2-11.25,36.79-40.44,20.62-70.45-8.3-15.4-22.84-25.09-42.07-28.03-13.96-2.14-25.58.07-26.07.17l-.11.02c-1.12.23-112.16,23.58-165.56,36.32-55.98,13.35-75.79,39.29-76.6,40.39l-.2.28c-1.5,2.22-149.78,222.03-178.37,263.61-25.81,37.55-63.6,33.79-65.17,33.61l-.39-.04c-1.04-.07-104.12-7.23-157.38-13.83-51.17-6.35-55.29-25.93-55.22-48.96.05-19.41,23.86-42.45,33.66-50.23,12.99-7,233.78-125.96,284.53-153,23.56-12.56,39.45-34.81,45.94-64.37,4.8-21.86,2.79-39.97,2.71-40.66-.35-3.35-8.74-82.39-14.38-108.1-3.35-15.28-11.16-28.23-22.57-37.46-12.84-10.38-29.62-15.82-49.89-16.16-46.09-.76-49.36,42.68-49.39,43.1-.03.47-3.1,47.73-3.29,82.67-.17,31.35-14.69,44.52-28.29,54.4-8.67,6.3-70.15,43.41-115.03,70.5-27.83,16.8-51.86,31.3-58.34,35.45-15.19,9.71-36.82,27.14-47.79,44.27-5.8,9.06-26.87,52.95-47.24,95.39-12.41,25.85-24.13,50.27-28.7,58.97-10.93,20.8-40,39.24-48.65,44.39-1.26.75-2.62,1.52-4.04,2.33-11.11,6.34-27.91,15.91-35.88,36.33-9.92,25.41,22.86,50.51,24.26,51.57l.5.38.56.29c1.36.71,13.6,7.12,30.41,15.8,32.34,21.12,97.84,62.73,166.46,99.5,11.04,5.92,20.83,9.91,30.61,9.91,3.2,0,6.4-.43,9.64-1.35,10.62-3.03,38.72-8.08,49.89-8.6,5.13-.24,81.51-1.84,162.38-3.54,112.88-2.37,229.61-4.82,235.09-5.22,7.9-.59,169.09-7.34,189.22-7.34.23,0,.45,0,.64,0,.14,0,.28,0,.42,0,17.29,0,72.99-9.43,110.97-27.5,35.36-8.65,52.82-25.12,54.57-26.84,3.31-3.13,60.91-57.73,96.67-104.42,38.58-50.38-2.82-132.46-4.6-135.92Zm-257.62,284.68c-.11,0-.22,0-.32,0-.2,0-.41,0-.64,0-20.24,0-182.12,6.78-190.05,7.37-5.21.39-132.38,3.05-234.56,5.2-84.44,1.77-157.37,3.3-162.63,3.54-12.77.59-41.87,6.03-52.17,8.97-8.71,2.49-17.59.39-32.78-7.75-26.25-14.06-52.03-28.84-75.67-42.9,1.53.71,3,1.38,4.37,2,36.45,16.38,114.01,18.81,117.3,18.91h.14s425.42-3.53,425.42-3.53c2.7-.01,199.26-1.06,268.4-3.88-28.65,8.03-56.86,12.09-66.82,12.09Zm250.08-158.05c-35.29,46.08-94.5,102.1-95.1,102.66l-.15.15c-.25.24-25.25,24.38-78.29,27.39-56.21,3.18-276.01,4.35-278.22,4.36l-425.16,3.54c-3.68-.12-78.33-2.73-111.34-17.57-33.41-15.02-120.83-60.67-128.88-64.88-6.82-5.35-23.37-21.62-18.76-33.44,6-15.37,18.87-22.71,29.21-28.6,1.51-.86,2.96-1.69,4.3-2.49,12.2-7.27,41.91-26.74,54.35-50.41,4.7-8.95,15.94-32.36,28.95-59.47,18.28-38.09,41.04-85.49,46.34-93.76,7.81-12.2,25.15-28.12,43.15-39.64,6.32-4.04,30.27-18.5,58-35.24,47.63-28.75,106.92-64.53,116.12-71.22,16.99-12.35,34.39-29.93,34.59-66.68.19-34.48,3.22-81.29,3.25-81.78.07-1.19,2.15-28.8,33-28.8.29,0,.58,0,.87,0,42.49.71,54.44,26.37,57.78,41.61,5.46,24.89,14.02,105.61,14.11,106.49.02.17,1.8,16.71-2.54,36.15-5.63,25.18-18.45,43.25-38.1,53.72-52.06,27.74-282.85,152.09-285.17,153.35l-.56.3-.5.39c-1.63,1.27-39.97,31.4-40.05,62.64-.03,12.61,1.36,28.7,12.58,41.32,10.84,12.2,28.65,19.46,56.05,22.85,52.69,6.53,153.39,13.58,158.04,13.9,4.02.42,48.94,4.11,79.37-40.16,28.22-41.05,172.77-255.32,178.29-263.5,1.37-1.68,19.56-23.06,67.83-34.57,52.6-12.54,161.56-35.47,165.08-36.21,2.09-.39,37.37-6.5,51.72,20.12,14.11,26.19-15.4,50.21-16.64,51.2l-317.54,250.19-.4.31-.35.36c-1.7,1.74-41.26,43.01-18.5,74.57,8.9,12.33,20.25,25.62,37.05,30.67,16.31,4.91,35.63,1.23,59.04-11.22,45.84-24.39,208.91-122.69,210.55-123.68l.24-.15c.84-.55,20.88-13.98,40.26-52.48,19.92-39.58,35.46-66.4,68.54-78.23,18.63-6.66,38-1,50.96,4.92,15.24,6.97,30.45,18.31,40.69,30.36,17.83,20.99,46.1,56.5,50.18,61.63,1.74,3.54,10.22,21.47,15.22,43.77,4.98,22.18,7.37,53.25-9.48,75.24Z"/>
</svg>