<?xml version="1.0" encoding="utf-8"?>
<!-- Generator: Adobe Illustrator 24.0.1, SVG Export Plug-In . SVG Version: 6.00 Build 0)  -->
<svg version="1.1" id="Background_Details" xmlns="http://www.w3.org/2000/svg" xmlns:xlink="http://www.w3.org/1999/xlink" x="0px"
	 y="0px" viewBox="0 0 1920 1080" style="enable-background:new 0 0 1920 1080;" xml:space="preserve">
<style type="text/css">
	.st0{fill:none;}
	.st1{fill:#636466;}
	.st2{fill:#C7C8CA;}
</style>
<title>background</title>
<g id="Bridge_1_">
	
		<rect x="1633.1" y="254.5" transform="matrix(0.8779 -0.4789 0.4789 0.8779 64.2819 819.0439)" class="st0" width="10.1" height="57.9"/>
	
		<rect x="1684.4" y="228.3" transform="matrix(0.8779 -0.4789 0.4789 0.8779 83.0894 840.4354)" class="st0" width="10.1" height="57.9"/>
</g>
<g id="Pavement">
	<path class="st1" d="M249.9,14.2c0,0,10.1,5.9,15.1-4.8V-4.2h-22.2l0.6,4.4L249.9,14.2z"/>
	<path class="st1" d="M426.5,4.1l4.7-9.5l-31.4-4.2C399.8-9.5,405.7,8.6,426.5,4.1z"/>
	<path class="st1" d="M756.6,14.5l139.3,0.1l74.7,0.7l123.8,2.9l67.3,1.8l91.1,2.4l34.7,2.2c0,0,80,10.2,119.6,20.2l4.2-20.4
		l0.9-16.7L1361-2.1L751.5-4.8l0.3,16.6L756.6,14.5z"/>
	<path class="st1" d="M1889.3,688l-5.8,10.7l0.5-1.3l-56.9-28.1l3.3-13l9.5-28.5l-54.8-24.3l18.7-68.2l16.3-86.5l12.2-98.1
		l10.4-66.7l15.7-133.3l-52.2,30.5c0,0-4.4-13.9-6.8-15.1l15.1-10.4l-4.4-9.2l-35.6-58.1l0.6-93.9l-319.7,4.2l36.4,20l46.7,30.7
		l32.4,28l27.6,33.3l31.6,38.2c0,0,30.7,37.3,54.7,44.4l30.5-18.4l15.1,21.6c0,0,3.3,5.6,14.8,0.3l37.6-22.5c0,0,6.5,9.8,1.5,18.1
		l-94.3,53.3l9.3,15.7l134.2-74.1l-6.5,78.8l-10.1,5.9l-6.2,37.6l-3.8,23.7l-19.8,14.8l-16.9,13.9l-6.8,11.3c0,0-1.5,16,6.5,49.5
		c0,0,6.8,62.5,2.4,91.6c0,0-7.4,58.4-14.8,82.7l-7.7,30.5l-4.7,23.4l-35.9,57.8l-25.2,40.3l-15.1,15.4l-5,16.9l-48,51l-21.7,6.9
		l-1.1-1l-37.3-72.9l-308.2,162.5l4.4-16.2l71.6-29.8l92-44.2l123.1-68.7l39.1-25.5c0,0,135.6-94.7,147.1-261.8
		c0,0,17.5-89.9-31-187.2l0.2-0.2l-20.4-40l-14.8-23.1l-0.2,0.1c-6.5-9.9-56-80.6-166.6-130.4c0,0-58.2-21.4-100.9-26.7L1301,69
		l0.8-0.9L705,62.8c0,0-251.8-19-379.8,153.5l-13-5.9l5.3-10.7l-51.5-32l-25.8,41.2c-6.1-20.2-0.6-54.8-0.6-54.8
		c5.6-30.8,32.3-44.4,32.3-44.4l33.7,8.6l-4.1,3.4l-24.1,25.2l23.6-18.2l11.7-0.6l23.9,29.9l31.8-25.5l31.4-21.4l46.9-27.1l36.4-16
		l38.2-12.7l32.9-9.3l18.2-4.2L652.1,31l-2.2-32.2L523.1-1.8l-46.8,0.6l-34.1,7.4l-67,10.7l-33.5,3l-102.2,5
		c-35,0.9-89.2-3.4-89.2-3.4l4.5-66.2h-16.7l-4.9-0.3l-21.3,389.3c3,109.6,13.6,199.9,13.6,199.9l6.6,21.8l0,0l2.4,9.5l-6.8,7.2
		l-0.3-0.2L-7.9,695.7l0.5,28l129.3-102.1l0-0.1l0,0.1l17.2-23.7c0,0,10,66.7,51.3,144.7l-23.6,22l-17.3,11.5l-28.9,14.7v0l0,0
		L-3,844.6c0,0,0,251.1,0.4,249.8s124.9-55.6,124.9-55.6v0l104-121.3l12.9-13.3c0,0,10.2-11.5,21.8,5.8l31.1,29.8l49.3,47.1
		l63.1,59.5l6.7,13.3l-12.4,23.6l41.8-0.4l11.5-14.7l-64.4-54.2L337,970.8l-72-76l0.4-11.1l7.1-9.2l38.4,46.4l37.9,38.5l72.9,63.4
		l68.2,59.8l35,1.2l-106.1-92.4l3.5-4.2l110.8,96.6H1348l56.3-27.3l42.1-22.5l13.6-8.9c0,0,19-10.1,32,2.4l24.9,14.8l13,9.5h9.5
		l56.3-25.5l36.1-20.1l31.4-25.5l7.1-11.8l-27.3-23.1l-65.8,59.3c0,0-16.6,16.6-19.6,17.8s-20.2,8.3-39.1-19.6l-32-57.5l122.7-65.7
		l10.9-14l4.2-4l57.8-70.5l83.8-102.6l8.3-9.2h5.9l56.9,26.3l33.7,16l-20.4,37.6l-32.3,49.5l-43.6,53.9l-67,76.7l-42.7,48.6
		l-27.1,21.5l-28.4,20.9l-34.7,19.6l-59.1,25.3l-71.1-36l-23.6,11.6c-2.9,3.5-4.2,8-3.6,12.4l12.9,23.6l128.3-0.4l71.1-43.8
		c19-10.7,49.5-39.4,49.5-39.4l31.7-34.7l29.3-33.5l59-66.4l44.1-57.2l40.3-61l30.5-70.8l10.4-30.8l0.3-46.8L1889.3,688z
		 M1643.8,242l32.6,58.2l-31.6,22.7l-33.2-61L1643.8,242z M148.3,109.6c0,0,2.2-73.2,1.6-73.5c-0.6-0.3,41.3,2.8,41.3,2.8l54.4-0.1
		l80.3-4.2l53.3-4.3l41-5.8l40.4-7.7l-0.4,1.2l-32,15.1l-12.7,7.5l-16.8-2.2l-50.4,2.1l-24,3.8C303.6,44.7,308,54.8,308,54.8
		l18.4,46.5l-5.4,4.2l-4.2,3.5l-13.8-29.6c-5.7-13.2-16.5-23.6-29.9-28.7l-15.4-6l-11.9-0.6l-67-1.8c-18.1,0-19.6,13.6-19.6,13.6
		l-5,150.8c-0.6,8.6,6.5,9.5,6.5,9.5l23.1,1.8l30.2,0.9l3.6-56.3l11.6-32l14.5-24.6l8.6,0.6c-18.4,22.2-24.3,49.5-24.3,49.5
		c-7.5,26.6-1.5,61.2,0.6,71.2l-12.4,19.8l-12.1,34.7l-13.3-5.9l-23,69.5l-21.9-2.2c-6.1-0.5-6.5-11.5-6.5-11.5l-0.1-11.1l4-84.2
		l4.9-111.8L148.3,109.6z M148.6,555.7L148.6,555.7l-2-11.9l-4.3-27.7l-3-38.7l-1-41.8l0.9-76.5l22.1,1.3l18.8,7.2l-8.9,74.2
		l11.9,100.7L148.6,555.7z M257,876.1c0,0-11.6,4.9-15.6-4.4L181,779.2l0.9-10.7L197,755l24.4,45.6l45.4,66.7L257,876.1z
		 M1086.8,925L941,927.2l-94.7-11.5l-68.9-17.3c0,0-68-20.4-110.2-44c0,0-26.7-27.5,6.7-37.8l4-4.8l35.1,11.9l65.3,8.9l69.3,5.3
		l274.8-0.3l35.8-0.6l81.5-8.6l59.6-9.5c0,0,27.6,9.8,10.1,33.2l-43.8,21.1l-17.1,7.2l0-0.3l-116.4,35.6L1086.8,925z"/>
	<polygon class="st1" points="1699.4,1047.7 1659.7,1086.2 1670.3,1087.1 1704.4,1049.4 	"/>
	<path class="st1" d="M1761.9,1005c-60.7,16-60.7,84.4-60.7,84.4h23.4c-9.8-30.5,7.1-50.7,7.1-50.7c33.2-35.6,79.7-20.5,79.7-20.5
		c44.7,14.8,57.2,68.5,57.2,68.5h14.8c-6.2-28.1-34.4-60.4-34.4-60.4C1816.1,988.7,1761.9,1005,1761.9,1005z"/>
	<path class="st1" d="M1771,1050.1l-6-0.2l-6.9,2l-6.2,0.4c0,0-9.3,8-2.9,18l12,14.2l56-0.1l-36.4-28.2L1771,1050.1z"/>
</g>
<g id="Buildings">
	<rect x="665.3" y="490" class="st2" width="32" height="218.1"/>
	<rect x="510.9" y="672.3" class="st2" width="13" height="11.8"/>
	<rect x="771.7" y="643.8" class="st2" width="14.2" height="22.5"/>
	<rect x="857.9" y="465.7" class="st2" width="7.4" height="5.6"/>
	<rect x="932.3" y="465.7" class="st2" width="11.6" height="7.7"/>
	<polygon class="st2" points="1248.4,499.5 1236.1,499.5 1236.1,492.3 1229,492.3 1229,499.5 1214.6,499.5 1214.6,623.1 
		1248.4,623.1 	"/>
	<polygon class="st2" points="1379.4,510.1 1352,510.1 1352,505 1343.8,505 1343.8,510.1 1321,510.1 1321,527.9 1379.4,527.9 	"/>
	<rect x="269.4" y="83.5" class="st2" width="22.5" height="6.5"/>
	<polygon class="st2" points="270.6,607.4 241.9,526.8 233.7,441.2 243.2,353 273.9,269.9 315.9,201.4 264.8,169.7 217,245.9 
		182.3,339.4 171.2,439 181.9,540.6 217.4,638.8 262.6,711.9 315.2,680.1 	"/>
	<polygon class="st2" points="1325.7,1016.8 1608.6,869.7 1555.7,767.2 1421.9,836.1 1255.9,923.9 1246.3,929.2 1063,969.7 
		904.6,968.6 723.2,926.1 417,762.6 345.7,706.1 317,742.8 314.6,741 273.9,792.6 356.1,859 362.6,863 473.4,921.4 641.7,1012.3 
		671.9,953.7 678.8,957.2 669.4,975 700.8,992.1 695.4,1011.9 696.1,1012 694.6,1018.9 711.5,1022.8 712.9,1016 734.1,1020.9 
		732.3,1032.3 749.2,1036.7 751.2,1024.9 777.9,1031.1 775.5,1042.3 791.5,1046.5 794.5,1034.9 820.9,1041.1 818.8,1052.7 
		835.7,1056.6 838.4,1045.2 854.5,1048.9 851.4,1061.6 868.6,1065.2 871.5,1052.8 898.8,1059.2 898.8,1071.4 917.7,1071.4 
		917.7,1059.7 1046,1060.2 1046,1071.1 1063.8,1071.1 1063.8,1060.3 1070.1,1060.3 1096.3,1054.5 1098.8,1064.6 1115.1,1061 
		1112.7,1050.8 1129.5,1047.1 1131.7,1057.7 1148.8,1053.9 1146.2,1043.4 1173.3,1037.4 1175.5,1048 1192.4,1044.7 1189.3,1033.8 
		1216.8,1027.7 1220,1038.8 1236.3,1034.6 1233.6,1023.9 1254.3,1019.3 1256.1,1026 1273.9,1022.2 1272.3,1015.3 1272.8,1015.2 
		1268.3,993 1298.6,977.4 1289.9,961 1295.7,958.3 	"/>
	<polygon class="st2" points="752.8,810.6 809.4,817 848.7,818.9 884,819.8 1126.6,819.8 1159.8,818.2 1198.6,814.5 1227.1,811.7 
		1274.3,804.8 1326.3,794 1321.9,774.8 1260,787.2 1213.7,793.6 1162.8,799.1 1130.2,801.3 1064,801.4 1063.5,704.6 1140,625.9 
		1140,570.9 1057.6,489.3 988.8,489.5 988.8,472.5 989.2,472.5 989.2,466.3 964,466.3 964,472.5 982.6,472.5 982.6,489.6 
		973.3,489.6 973,483.4 959.4,483.7 959.8,489.4 919.5,489.7 833.3,570.9 832.4,623.1 905.6,696 904.7,800 890.5,799.7 828.3,798.5 
		728.1,787.2 662.6,774.5 658.2,793.4 704.6,803.7 	"/>
	<polygon class="st2" points="334.3,855.7 328.4,863.4 343.2,874.6 349.2,866.9 	"/>
	<polygon class="st2" points="347.7,887.7 372,900.7 375.8,894.8 350.6,882.3 	"/>
	<polygon class="st2" points="575.8,1009.7 599.2,1023.1 603.1,1016 578.2,1003.2 	"/>
	<polygon class="st2" points="617.9,1010.6 613.7,1018.9 629.7,1028.4 635.7,1019.2 629.7,1016.6 	"/>
	<polygon class="st2" points="1332.3,1024.3 1337.9,1032.6 1354.5,1023.1 1350.6,1014.2 	"/>
	<polygon class="st2" points="1263.2,1060.1 1265,1065.7 1286.3,1057.7 1284,1052.1 	"/>
	<polygon class="st2" points="1534,918.5 1538.8,927.4 1557.2,917.9 1551.8,909 	"/>
</g>
</svg>
