<?xml version="1.0" encoding="UTF-8"?>
<svg id="Inactive_Configs" data-name="Inactive Configs" xmlns="http://www.w3.org/2000/svg" viewBox="0 0 1920 1080">
  <path id="Inactive_Config" data-name="Inactive Config" d="M1534.45703,582.86914c-33.92773-20.7334-82.55859-3.55078-101.89258,4.79785-29.51465,12.74414-28.28906,49.78027-27.39355,76.82227.18652,5.63379.36328,10.95508.23535,15.41699-.02026.71283-.06104,1.43237-.12122,2.15778-1.86597,22.47693-22.52637,50.62134-40.7561,62.5531-.19714.1239-2.19751,1.36975-5.4054,3.04449-18.27466,8.86963-46.22168,9.95667-56.90479-2.15088-15.2522-17.28485-19.32434-56.57269-22.44019-92.75238-.00073-18.44086-3.01831-34.30798-3.43774-36.42047-.08179-.67438-.16772-1.32355-.25183-1.98358-.06665-.52313-.13147-1.0578-.19958-1.57208-.08582-.64777-.17554-1.27338-.26367-1.90753-.07495-.53851-.14795-1.08765-.22461-1.61652-.08569-.59155-.17529-1.16241-.26331-1.74219-.08337-.55035-.16504-1.11035-.25049-1.65045-.08533-.53955-.17456-1.06-.26196-1.58954-.09192-.55713-.18213-1.12299-.27625-1.66931-.08313-.48206-.17017-.94684-.255-1.42072-.10315-.57642-.20483-1.16022-.31067-1.72485-.0791-.42139-.16187-.82733-.24243-1.24231-.11548-.59521-.22949-1.19653-.34814-1.77905-.07874-.38635-.16113-.75861-.24121-1.13959-.12512-.59558-.24902-1.19611-.37756-1.77893-.07532-.34131-.15417-.67017-.23059-1.0072-.13733-.60504-.27356-1.21375-.41479-1.80554-.07397-.31049-.15161-.60992-.22668-.91687-.14819-.60547-.29553-1.2135-.44788-1.80579-.06982-.27118-.14282-.5329-.21362-.80145-.16138-.61322-.32227-1.22803-.48828-1.82794-.07166-.25861-.14661-.50842-.21899-.76459-.1698-.59998-.33899-1.20105-.51367-1.78851-.06445-.21698-.13208-.42676-.19714-.64209-.18665-.61664-.37317-1.23303-.56531-1.83691-.05835-.18353-.11963-.36133-.17847-.54376-.20239-.62646-.40527-1.25177-.61377-1.86566-.05627-.16571-.11523-.32654-.17188-.49139-.21509-.62463-.43091-1.24768-.65247-1.8606-.04895-.13519-.09998-.26672-.14929-.40137-.23193-.63489-.46521-1.2674-.70435-1.89111-.06079-.15826-.12427-.31268-.1853-.47028-.23169-.59674-.46411-1.19238-.70251-1.78033-.05566-.13739-.11389-.27185-.17004-.40875-.24707-.60339-.49548-1.20532-.75-1.80084-.05664-.13251-.11584-.26276-.17285-.39496-.25708-.59631-.51562-1.19122-.78027-1.78107-.05774-.12866-.11816-.25549-.17615-.38391-.2677-.5918-.53699-1.18243-.81262-1.76929-.04175-.08923-.08569-.17743-.12769-.2666-.29419-.62299-.59082-1.24463-.8938-1.86365-.05225-.10675-.10669-.21283-.1593-.31946-.29529-.59991-.5929-1.19904-.89673-1.79688-.0741-.14563-.15125-.29102-.22571-.43665-.28625-.55896-.57336-1.11786-.86719-1.67657-.08057-.1532-.16443-.3067-.24561-.45996-.2915-.5506-.58386-1.1012-.88281-1.65283-.10034-.18488-.20435-.37085-.30542-.55597-.28479-.52142-.56934-1.04272-.86084-1.56635-.12756-.229-.25964-.46027-.38843-.68982-.26941-.4801-.5376-.95959-.81274-1.44257-.23096-.40576-.46875-.81573-.7041-1.224-.17883-.31061-.35437-.61896-.53564-.93127-.33911-.58398-.68555-1.17352-1.03296-1.76422-.08276-.1405-.1626-.27887-.24585-.41986-2.16846-3.67529-4.50049-7.49683-7.00879-11.60675-1.47363-2.41455-3.0127-4.93506-4.61914-7.5918-1.43018-2.36548-3.26038-4.66107-5.42505-6.8844-15.15234-15.56342-46.69189-27.58777-72.11987-35.2782-.99292-.30029-1.99072-.59802-2.99292-.89301-25.05322-7.37531-52.78491-13.05951-72.25391-14.98352-.77881-.07697-1.54443-.14789-2.2959-.21271-1.5033-.12958-2.95093-.23462-4.33716-.31396-2.07935-.11902-4.021-.1803-5.80566-.1803-15.94043,0-34.82715,5.62207-54.82324,11.57422-22.58411,6.72314-47.99274,14.28571-71.86176,14.16681-.9549-.00476-1.90192-.0473-2.85168-.07721-.63306-.0199-1.27032-.02002-1.90082-.05151-5.20844-.26093-10.15894-2.77057-13.7395-6.92999-.23871-.27728-.47131-.56195-.69751-.8537-.92444-1.19275-1.70801-2.46497-2.34485-3.7926-1.27374-2.65515-1.96063-5.53168-2.01465-8.43579-.02698-1.4519.10425-2.91071.39954-4.35217,3.13379-15.30322,12.24561-28.79004,25.65625-37.97607,36.31512-24.87402,119.13586-81.45367,166.70691-112.77625,5.77332-3.80127,11.02405-7.22839,15.61292-10.1839.70581-.37646,3.37964-1.79883,6.45166-3.39673.48193-.25067.97119-.50446,1.4668-.76044.0332-.01715.06592-.03412.09912-.05133.47681-.24609.95569-.49207,1.43335-.73657,1.19336-.6109,2.3728-1.20795,3.45483-1.74408.06946-.02808.1377-.05884.20728-.08673,4.94849-1.98431,10.10547-3.46869,15.43237-4.52673,4.78979-.77991,9.83667-1.24658,15.01904-1.72113l1.66968-.15332c1.12402-.00739,6.9574-.03839,15.81006.15997,11.34229.75793,23.09106,2.70258,35.01196,5.41223.99316.27954,1.98804.53088,2.98291.7359.26013.05365.52258.09644.78369.14557,7.05908,1.69183,14.16821,3.63025,21.28003,5.73346.94312.27893,1.88647.56079,2.82971.84521,15.09167,4.55109,30.16321,9.77698,44.74817,14.83435,9.41016,3.2627,18.29883,6.34424,26.95898,9.16406,8.43774,2.74731,17.13501,4.76398,25.87866,6.2168.15125.02551.29614.06555.44849.08838.25684.03845.51245.07086.76904.10846,36.28406,5.8053,73.19373,1.81006,95.70764-1.99542.08875-.01495.17834-.02985.26685-.0448.57776-.09808,1.14563-.19562,1.70398-.29321.17725-.03088.35645-.06183.53223-.09271.20923-.03687.4126-.07349.61938-.11029.1355-.02411.27136-.04822.40576-.07227.17578-.03156.3645-.06366.53809-.09509.14343-.02594.27368-.05109.41577-.07703.07104-.01294.14062-.02582.21143-.03876.21802-.03986.43652-.07971.65161-.11945.37744-.06976.7478-.13916,1.11621-.20856.16724-.03156.33667-.06311.50146-.09442.10962-.02081.22144-.04169.33032-.0625.12305-.0235.24084-.04669.36279-.07019.49683-.09552.98511-.19049,1.46411-.28491.09558-.01886.19238-.03766.28687-.0564.13013-.02576.25684-.05121.3855-.0769.61755-.12311,1.2251-.24542,1.81104-.36584,8.88574-1.82568,17.96875-3.46338,27.76758-5.00537l2.60059-.40967c2.63538-.41479,5.18469-1.02454,7.63428-1.81531,2.44946-.79077,4.79919-1.76257,7.0354-2.90143,1.11792-.56946,2.20764-1.1806,3.26721-1.83179.52979-.32556,1.052-.66119,1.56653-1.00659,1.02905-.69073,2.0271-1.42072,2.99243-2.18805.48267-.38367.95703-.77673,1.42322-1.17883,8.38977-7.23865,14.06165-17.43604,15.76062-29.32019.37769-2.64099.5437-5.25702.50745-7.83081-.07263-5.14752-.95447-10.12598-2.57141-14.79755-.20215-.58392-.41577-1.16309-.64075-1.73718-4.2738-10.90753-12.64099-19.98596-24.10486-25.38593l-37.6377-17.72852c-1.88672-.88873-3.698-1.88708-5.42712-2.98615-3.45837-2.19812-6.58875-4.79889-9.33899-7.73059-6.87549-7.32935-11.37488-16.72699-12.68408-27.07184l-3.89062-30.73267-3.88965-30.73267c-.23096-1.82349-.61426-3.59192-1.12146-5.30206-.80432-2.71393-1.93274-5.27448-3.35217-7.63129-.13123-.21796-.27161-.42926-.40759-.64374-.12903-.20331-.2533-.40991-.38647-.61005-3.3053-4.96948-7.9054-8.95782-13.29041-11.51892-4.48438-2.13281-9.51318-3.27594-14.7915-3.17188h-.00586l-336.25073,4.31165c-.00427.00006-.00854-.00018-.01294-.00012l-535.98242,6.87305c-.80798.01038-1.61237.03778-2.41266.08203-22.40851,1.23816-41.64392,15.6333-49.2926,36.39752-.81952,2.22473-1.50598,4.52258-2.04913,6.88519l-43.81396,190.59131c-1.94922,8.479.42725,17.33984,6.35742,23.70312.0481.05164.09998.09857.14844.14978.29327.30975.59198.61273.89807.90607.1391.13336.28302.25995.42468.38989.22748.20862.45605.41547.68988.61517.15912.13586.3208.26758.48279.39929.22687.18457.45599.36536.68823.54169.16632.12628.33301.2514.50201.37341.245.17694.49377.34729.7442.5152.15948.10693.31744.21606.479.31934.30725.19641.61975.38312.93433.5661.10913.06348.21558.13184.32556.19373.42249.23773.85138.46222,1.28546.6756.13245.06512.26782.12347.40131.18628.31207.14685.62537.29047.94275.42474.05756.02435.11322.05298.1709.0769.11145.0462.2262.08392.3382.12854.2887.11505.57867.22614.87115.33075.18097.06476.36243.12744.5448.18817.29156.09711.58502.18774.87994.27454.17975.05292.35895.10712.53979.15613.32434.08795.65118.16614.97894.24152.15155.03491.30176.07446.45398.10663.47156.09961.94592.18726,1.42328.26074.12701.01953.25525.03174.38263.04944.3584.04974.71747.09564,1.07849.13055.19055.01843.3819.03003.57306.04431.30225.02252.60461.04205.9082.05408.20483.00806.40979.01257.61517.01587.1394.00226.2782.01074.41779.01074.10284,0,.20648-.01074.30945-.01196.44812-.00531.89667-.02362,1.34613-.05212.18103-.01141.36157-.0191.54272-.0343.62134-.05237,1.2431-.12048,1.86469-.21802,56.50714-8.85376,178.00726-28.42584,242.34216-42.784.32306-.07208.64435-.14404.96448-.21588,1.72302-.3866,3.39508-.76849,5.03131-1.14703,8.78094-2.03149,16.27789-3.94263,22.11615-5.68469,1.34692-.40192,2.62073-.79633,3.78662-1.17963,39.05371-12.83984,57.74561-38.50928,77.53467-65.68604,1.04218-1.43121,2.08887-2.86859,3.14319-4.31085.38879-.53186.78497-1.06757,1.17609-1.60077.66919-.91229,1.33575-1.82343,2.01288-2.73914.43927-.59406.88928-1.19128,1.33246-1.78662.64404-.86517,1.28394-1.72913,1.9375-2.59656.43787-.58118.8891-1.16449,1.33173-1.74658.66974-.88062,1.33459-1.7605,2.01654-2.64276.47449-.61389.96539-1.22913,1.44641-1.84363.66779-.85315,1.32935-1.70593,2.01086-2.55988.50604-.63409,1.03131-1.26868,1.54553-1.90302.67627-.83435,1.34503-1.66852,2.03656-2.50293.54523-.65802,1.11285-1.31555,1.66827-1.97339.68427-.81049,1.35974-1.62115,2.06042-2.43115.58478-.67596,1.19482-1.35059,1.79175-2.026.66022-.74701,1.31189-1.49445,1.98779-2.24042l4.58258-3.59241c.90527-.70923,1.86359-1.33344,2.85657-1.88568,2.37671-.99597,4.96143-1.50824,7.79919-1.5152h.05859c.67957,0,1.37811.03864,2.08539.09515.85535.06842,1.72998.17645,2.62488.32684.34467.05792.69385.12549,1.04425.1955.96667.19312,1.94934.41992,2.95898.70453.22314.06287.45282.13989.67804.20721.40289.12048.80359.23608,1.21301.37073.21899.07202.44434.15759.66522.2337.42279.14557.84369.28705,1.27325.44745.45081.16833.91022.35559,1.36835.54016.20612.08301.40814.15674.61572.24304.26776.11133.54224.23755.81244.35431,1.08044.4668,2.1748.96472,3.29327,1.51782.45502.22498.91797.46844,1.37915.70764.2475.12836.49091.24744.74011.37982.3443.18292.69568.38226,1.04327.57294.37305.20459.74255.40131,1.11938.61481.35059.19867.70801.41351,1.06183.61987.38037.22186.75739.43573,1.14148.66644,11.12317,6.68091,23.79095,17.06653,37.50702,30.81195,3.65771,3.66559,7.39001,7.57007,11.18744,11.70697,6.43213,7.00684,9.40234,16.42285,8.14893,25.8335-.15601,1.17139-.37537,2.32556-.6554,3.45844-1.96014,7.92993-6.8938,14.81439-13.88953,19.23297l-67.22559,42.45801-.0033.00238-113.30432,71.56061c-.6756.4267-1.33759.86694-1.9859,1.32025-1.17291.82013-2.29443,1.68848-3.37659,2.59045-.14899.12421-.30133.24542-.44861.37115-1.13391.96771-2.21741,1.97791-3.24677,3.02881-.01251.01276-.02594.02484-.03845.0376-.89838.91919-1.74683,1.87494-2.56372,2.85187-11.36688,13.59302-14.78516,32.50952-8.21936,49.56989.56311,1.46332,1.19958,2.91284,1.91064,4.34424,25.33423,50.99438,78.76862,158.82764,101.47235,206.71429,4.98303,10.51038,8.49377,18.14893,9.89337,21.64801,9.13135,22.82715-8.42188,43.35449-20.23291,51.88477-2.98859,2.15863-17.21277,4.78857-47.2818,5.87708l-89.85852-1.69556c-.35687-.04492-.70758-.1015-1.06018-.15454-.32648-.04907-.65607-.09222-.97888-.14819-.37158-.06451-.73566-.14282-1.10236-.21643-.32446-.06512-.65216-.12433-.97272-.19647-.35724-.08044-.70679-.17456-1.05914-.26373-.32098-.08118-.64532-.15668-.96222-.24506-.34186-.09534-.67603-.20416-1.01306-.3078-.31866-.09802-.64062-.19037-.95502-.29572-.32642-.10938-.64502-.23199-.96674-.34924-.31555-.11499-.63446-.22449-.94537-.34705-.31323-.12341-.61841-.25989-.927-.39087-.30994-.13159-.62335-.25787-.92853-.39703-.29834-.13605-.58856-.28479-.88232-.42804-.30634-.14935-.61609-.29346-.91736-.45062-.28491-.14856-.56152-.30969-.84192-.46521-.29974-.16626-.60291-.32721-.8974-.50122-.271-.1601-.53357-.33252-.80005-.49921-.29492-.18445-.59332-.36389-.88275-.55634-.25409-.16895-.49982-.34979-.74963-.52484-.2912-.2041-.58594-.40332-.87128-.6156-.24133-.1795-.474-.37067-.71112-.55603-.28369-.22174-.57086-.43878-.84839-.66882-.22992-.19055-.45117-.39264-.67682-.58881-.27435-.2384-.55219-.47229-.82019-.71899-.22009-.20258-.43127-.41656-.64709-.62463-.26306-.25366-.52972-.50269-.78638-.76453-.20795-.2121-.40686-.43536-.6106-.65271-.25439-.27155-.51251-.53864-.76025-.81836-.19226-.2171-.37555-.44501-.56378-.66699-.24829-.29272-.5-.58136-.74121-.88257-.18036-.22522-.35162-.46112-.52795-.69104-.23798-.31024-.47937-.61633-.70996-.93494-.17126-.23663-.33313-.48383-.50031-.72504-.22473-.32434-.45319-.64453-.67047-.97711-.16028-.2453-.31104-.50092-.46722-.75061-.21332-.34106-.4303-.67804-.63599-1.02728-.14783-.2511-.28607-.51215-.42993-.7674-.20264-.35956-.40894-.71527-.60358-1.08307-.13855-.26184-.26733-.53363-.40186-.79962-.18842-.37262-.38068-.74127-.56104-1.12189-.13007-.27441-.25-.55872-.37585-.83734-.1734-.38391-.35083-.76385-.51617-1.15558-.12134-.28754-.23248-.5849-.34949-.87659-.15784-.39349-.31995-.78302-.46979-1.18396-.11414-.30554-.21759-.62085-.32709-.93073-.14087-.39862-.28632-.79315-.41943-1.19879-.1062-.32397-.20142-.65771-.30261-.98608-.12396-.40204-.25287-.7998-.36926-1.20844-.09753-.34247-.18353-.69482-.27576-1.04187-.10785-.40601-.22095-.8075-.32141-1.21967-.08765-.35962-.16345-.72906-.24548-1.09332-.09216-.40948-.19006-.81439-.27502-1.22968-.08038-.3927-.14819-.79541-.22211-1.19324-.07385-.39758-.15387-.79028-.22125-1.19293-.06824-.40778-.1236-.82538-.18512-1.23828-.06012-.40338-.12653-.802-.18018-1.21027-.05585-.42529-.09857-.86029-.1474-1.29071-.04602-.40533-.09863-.80579-.13837-1.21564-.04498-.46393-.07605-.93768-.11285-1.40741-.03033-.38629-.06769-.76752-.09253-1.15771-.03546-.55835-.05603-1.12689-.0802-1.69299-.01318-.31018-.03406-.61511-.04382-.92761-.02765-.8833-.04163-1.77576-.04163-2.67725,0-1.29669.09998-2.55548.29413-3.77893,2.91211-18.35168,27.00305-28.74707,52.41534-39.71326,10.33936-4.46191,21.03076-9.0752,30.34814-14.3418,8.83203-4.99219,14.57471-12.82324,17.06836-23.27637,6.43506-26.97461-11.37646-66.01855-20.48975-79.68848-11.51221-17.26855-62.94727-60.74707-110.36475-66.5708-1.21008-.14856-2.41235-.25159-3.61029-.33234-1.58307-.10675-3.15479-.15656-4.71423-.15216-1.1535.00323-2.30243.02576-3.44165.08588-1.40515.0741-2.79749.19531-4.17908.35016-.13062.01459-.2627.0246-.39307.03992-.52795.06213-1.05157.13684-1.57587.21002-.22534.03149-.45276.05682-.67743.09033-.36499.05438-.72601.11938-1.08911.17896-.38062.06244-.76312.11969-1.1416.18768-.19702.0354-.3913.07751-.58777.11444-.54102.10156-1.08221.2027-1.61871.31519-.0531.01117-.10541.02435-.15845.03558-.67731.14349-1.35175.29364-2.02161.4538-.12518.02997-.24835.06415-.37335.09467-.5954.14539-1.1897.29321-1.77899.45111-.2475.06635-.49121.13965-.73761.20807-.46423.12897-.92969.25574-1.38995.39209-.12238.03625-.24255.07629-.36469.11304-.58008.17462-1.159.35144-1.73242.53711-.22906.07422-.45428.1543-.68231.23016-.46289.15405-.92694.30652-1.38531.46741-.23254.0816-.46106.16882-.69244.25214-.44989.16199-.90094.32233-1.34631.49042-.21661.08179-.42926.16858-.64484.25177-.45441.17535-.90991.34943-1.35938.53082-.26093.10529-.51709.21594-.77637.32318-.40051.16565-.80292.32916-1.19934.49927-.16254.06976-.32153.14294-.48328.21338-.487.21204-.97412.42407-1.45471.64233-.25934.11774-.51361.23999-.77106.3595-.37909.1759-.76025.34998-1.13513.52942-.2254.10785-.44586.21948-.66968.32855-.40076.19531-.80316.38934-1.19897.58832-.19806.09955-.39148.20221-.58826.30261-.41724.21289-.83563.42511-1.24707.64172-.10645.05603-.20984.11371-.31592.16998-.4953.26276-.98914.52649-1.47577.79388-.35968.19769-.71234.39856-1.06726.59851-.2287.12891-.461.2561-.68768.3858-.24017.13745-.47437.27716-.71228.41553-.33722.19611-.67682.3913-1.00934.58905-.03833.02283-.07532.04596-.11359.06879-.52594.3136-1.0473.62866-1.56128.94562-.06769.04175-.13306.08392-.2005.12573-3.22839,1.99945-6.21771,4.05463-8.92853,6.06177-.00323.00238-.00616.00494-.0094.00732-.00043.00031-.00092.00067-.00134.00098-.16071.11902-.3125.24677-.47168.36731-.56799.43018-1.13464.86188-1.68323,1.31097-10.57153,8.65131-17.50726,20.7594-19.6322,34.37982-.92365,5.92181-2.15918,13.77405-3.63489,22.99316-.00806.05011-.01556.09784-.02362.14795-.44025,2.74988-.90363,5.63092-1.38464,8.6084-.07916.48981-.15765.97644-.23785,1.47192-.32416,2.00372-.65692,4.05377-.9975,6.1452-.02356.14484-.04639.28564-.07007.43085-.26898,1.651-.54443,3.33612-.82294,5.03632-.42572,2.59918-.86218,5.2525-1.30847,7.9541-.1825,1.10449-.36646,2.21606-.55212,3.33588-5.42749,32.73199-12.19971,71.78363-18.6803,104.2453-.1098.55011-.21924,1.09338-.32892,1.63965-.41943,2.08966-.83795,4.15778-1.25427,6.18665-.00574.02783-.01129.05487-.01703.0827-.74933,3.65076-1.49292,7.19781-2.22797,10.61914-.3847,1.79065-.76624,3.53564-1.146,5.25482-.35126,1.59027-.70099,3.16016-1.0473,4.68445-.41638,1.83264-.82825,3.60553-1.23663,5.33539-.29865,1.2652-.59595,2.51221-.88983,3.71869-.36993,1.51849-.73468,2.97479-1.09637,4.39465-.12793.50226-.25586,1.00427-.38269,1.49371-1.53772,5.9328-2.99384,10.91669-4.33539,14.68591-6.07227,17.05859-19.92285,27.12695-41.16846,29.92383-17.84131,2.34961-31.51172,17.20117-32.50488,35.31543-.82764,15.10742,10.77637,28.28711,25.8667,29.38086l266.24854,19.28418c.8465.06128,1.68719.14856,2.52118.26129,12.50989,1.6908,23.50867,9.1004,29.76447,20.18011,25.89966,45.87054,33.78198,57.49677,36.63501,61.0517.10974.13672.21204.26154.30762.37585.23901.28589.43604.50635.60284.68481.16675.17847.30322.31488.42084.43256.51123.51172,1.06738,1.09473,1.6792,1.73535.82196.86078,1.72723,1.80878,2.73541,2.82062.67218.67462,1.39008,1.37756,2.15955,2.10199,1.15424,1.08667,2.42456,2.22168,3.83063,3.38165.93738.77332,1.935,1.5578,2.9989,2.34637.53192.39435,1.08044.78961,1.64618,1.18518,11.88055,8.30634,31.37659,16.69366,65.23529,17.15833.62207.00781,1.23438.0127,1.84814.0127,30.30579-.0014,49.99725-10.34241,65.14264-22.14789.65851-.51331,1.30841-1.02936,1.9502-1.54742,1.28361-1.03619,2.53485-2.08051,3.75769-3.1272,3.66852-3.13995,7.08154-6.30078,10.34674-9.32495,4.96191-4.59473,9.64844-8.93555,14.35596-12.3877,17.11877-12.55298,32.55402-7.12347,46.35596-.71161.47595.22107.94989.44342,1.42194.66614.94409.4455,1.88043.89282,2.80902,1.33649l1.37207.65527c14.00879,6.66992,27.97656,4.08789,40.30176,1.80957,2.75098-.50879,5.35059-.99023,7.94922-1.37988,12.1377-1.82227,20.68457,3.79883,33.14258,15.52246,10.96289,10.31934,21.37305,12.39941,44.18164,16.95605,5.6875,1.13672,12.13379,2.4248,19.64551,4.04492,1.7168.37048,3.39819.61713,5.0448.74805,2.74426.21814,5.39209.11481,7.94641-.27252.51074-.07745,1.01794-.16632,1.52124-.26617,27.18408-5.39349,43.5437-43.0304,53.07812-65.57526.17651-.41748.35083-.82983.52271-1.23663,1.54688-3.66211,2.88379-6.82422,4.05176-9.33984,8.32422-17.92969,62.60449-29.02832,91.76562-34.99023l1.27246-.26074c33.53906-6.85938,124.65332-21.20996,156.01367-24.06152,32.28516-2.93555,66.93457-50.06641,85.5498-75.38574,1.28613-1.74902,2.49121-3.38867,3.60938-4.89551,12.85059-17.32129,20.07422-57.17578,21.46875-118.45898.69043-30.40723-13.35938-52.74219-45.55664-72.41895ZM1306.94238,760.50439c-11.13477,1.13477-25.50952,2.18842-43.09863,2.67236-20.63647.56842-38.65942,1.12115-52.52905,1.56738,1.40967-1.2359,2.75635-2.5553,4.01245-3.97754l44.22949-50.08496c5.83936-6.61224,10.52026-14.12958,13.88794-22.14246,3.48169,25.98749,9.23755,49.9444,21.27612,63.58777,3.21143,3.63971,7.40942,6.39697,12.22168,8.37744ZM861.2168,478.25049c-3.13525-1.49854-5.15479-4.4624-5.40234-7.92871l-5.6626-79.2749c-.04724-.6618-.07416-1.32239-.08105-1.98102-.08728-8.33514,3.03845-16.34357,8.64465-22.4151,1.03815-1.12421,2.15125-2.18988,3.35577-3.17035l66.98151-42.30414c.65686-.41486,1.29993-.84631,1.92871-1.29358.00885-.00629.01703-.01318.02588-.01947.69147-.49268,1.36176-1.00848,2.01807-1.5387,8.28198-6.68994,13.72369-16.28699,15.14795-26.97784,1.64551-12.35303-2.25-24.70996-10.6875-33.90283-6.23389-6.79138-12.25946-12.95465-18.07184-18.48669-.12927-.12299-.25635-.23969-.38538-.36206-.83728-.79413-1.67212-1.58124-2.50049-2.34906-.48523-.44977-.96454-.88196-1.44666-1.32269-.46716-.42706-.93744-.86304-1.40173-1.28162-.72253-.65137-1.43829-1.28296-2.15381-1.91376-.21985-.19379-.44263-.39606-.6618-.58795-1.82007-1.59326-3.61652-3.11731-5.39081-4.5766-.04376-.03595-.08826-.07428-.13196-.11017-1.96613-1.6145-3.90161-3.13959-5.81104-4.58911l52.64984,14.4635.15723.04053c15.89893,3.81738,32.91162-1.85596,43.33643-14.45605l20.82715-25.17383c9.0332-10.91846,21.63574-18.58545,35.48633-21.58789l15.48828-3.35693c16.71289-3.62305,28.84375-18.66553,28.84375-35.76709v-6.89844c0-7.67194-2.83618-14.89105-8.01221-20.48376l153.58398-1.96936c3.4187-.02917,6.65491,1.25793,9.09326,3.66455,2.4375,2.40723,3.78027,5.61914,3.78027,9.04541v45.50391c0,9.06744-6.21021,16.66278-14.7002,18.69495-1.21277.29034-2.47217.4671-3.7666.51843l-15.72656.62402c-1.51843.06024-3.00049.26758-4.43213.60803-10.02148,2.38312-17.57739,11.28882-17.91064,21.92126l-1.2334,39.26465c-.33398,10.64258-3.1123,20.96094-8.03418,29.83984-5.08984,9.18213-8.5625,10.18066-9.50586,10.26807l-.21887.02008c-5.44897.24731-10.66248.80884-15.64819,1.68768-7.01819,1.02924-13.71899,2.6261-19.98987,5.70282-4.90088,2.00793-9.53638,4.41156-13.90967,7.22711-2.65088,1.70679-5.5249,3.57245-8.59351,5.57721-1.5343,1.00238-3.11731,2.03943-4.74548,3.10895-1.30469.85706-2.64612,1.7403-4.00696,2.63757-3.72754,2.45758-7.65149,5.05603-11.74939,7.78003-2.80334,1.8634-5.68433,3.78296-8.63147,5.75055-.00439.00299-.00879.00586-.01318.00879-1.96313,1.31055-3.95532,2.64227-5.97314,3.9928-.08142.05444-.16418.10992-.24561.16443-3.54126,2.37024-7.16333,4.79944-10.84265,7.27124-.8927.59967-1.78845,1.20172-2.68787,1.8064-1.15625.77734-2.3175,1.55847-3.48389,2.34338-1.30225.87646-2.60962,1.75653-3.92297,2.64136-4.53503,3.05511-9.12976,6.1554-13.75427,9.28052-.10522.07123-.21069.14246-.31616.21368-8.17065,5.52179-16.42529,11.1142-24.58459,16.65192-1.97961,1.34351-3.95306,2.68347-5.91864,4.01868-9.44476,6.41571-18.69934,12.71497-27.47144,18.69446-.07074.04822-.1402.09558-.21082.14374-3.79083,2.58405-7.4892,5.10669-11.07587,7.55463-.87292.59576-1.73767,1.1861-2.5968,1.77258-.53668.36639-1.06982.73041-1.60095,1.09302-2.21954,1.5155-4.38879,2.99713-6.50317,4.44183-.52936.36169-1.05511.72095-1.57739,1.07788-1.02759.70221-2.03967,1.39398-3.03888,2.07703-1.71838,1.17462-3.39282,2.31958-5.02124,3.43329-5.25293,3.59265-10.02844,6.86163-14.18707,9.71014l-76.15576,52.96338c-.35651.24799-.7243.46948-1.10114.66437-2.63782,1.36407-5.71802,1.42224-8.46136.11102ZM1201.74512,286.91162c-2.71558-.08112-5.21106-.14117-7.48633-.18658,1.16235-1.63593,2.31128-3.46545,3.44824-5.51654.89453-1.61389,1.72046-3.27197,2.49121-4.96112,1.85205,4.05597,4.34204,7.77362,7.27612,11.08044-1.97998-.2132-3.91077-.36182-5.72925-.4162ZM1306.89258,315.02295c-14.02612-4.86346-28.96814-10.03949-44.14844-14.62872,8.04736-3.15222,14.39087-8.22876,16.78906-14.4118,1.25317-3.23199,2.35571-6.74469,3.30432-10.52258,1.58105-6.29651,2.73462-13.32965,3.44568-21.02771.21558-2.33594.85791-4.52985,1.84607-6.5072,2.71741-5.4375,8.04968-9.23816,14.31348-9.85303.56946-.05591,1.14661-.08545,1.7301-.08752l84.46289-.30273h.04492c3.27734,0,6.35938,1.27295,8.68262,3.5874,2.33301,2.32471,3.61816,5.41943,3.61816,8.71387,0,10.27295-8.03711,18.71533-18.29785,19.21924l-23.92773,1.17529c-11.7207.57617-21.14746,10.21582-21.46191,21.94629l-.61621,23.02686c-.09814,3.66418.58789,7.13666,1.88745,10.27197-1.6405-.47308-3.27344-.96838-4.89429-1.49609-8.57031-2.79004-17.41406-5.85693-26.77832-9.10352ZM1525.13184,288.81689c-.52209,3.64984-1.51855,7.09821-2.93115,10.28601-1.00891,2.27698-2.23022,4.42102-3.64258,6.41064-.28247.39789-.57263.78967-.87012,1.17505-5.6543,7.32239-14.00647,12.35211-23.89209,13.90808l-2.60059.40918c-2.48853.39172-4.93188.78955-7.3385,1.19495-7.21985,1.21625-14.10803,2.50085-20.88806,3.89392-.69165.14221-1.41858.28882-2.17456.43848-.12695.02515-.26147.05072-.38989.07599-.59326.1167-1.20312.23511-1.83337.35522-.32764.06238-.66614.12524-1.00134.18799-.42786.0802-.8606.16064-1.30371.24188-.50586.09253-1.02002.18518-1.5415.27795-.23352.04169-.47034.0835-.70764.12531-22.22266,3.90283-58.04346,7.83752-95.36902,2.29059-.13586-.02228-.27185-.04285-.40771-.06537-7.01306-1.12085-11.76306-7.02002-11.56616-14.4046l.61621-23.02686c.1748-6.53467,5.42676-11.90479,11.95605-12.22559l23.92773-1.17529c15.59277-.76611,27.80762-13.5957,27.80762-29.20752,0-5.97217-2.33008-11.58252-6.55957-15.79785-4.21094-4.1958-9.79785-6.50342-15.73926-6.50342h-.08203l-84.46289.30273c-14.51758.05176-26.47461,11.02686-27.81152,25.52832-1.05273,11.39258-3.11035,21.10059-6.11719,28.854-.08972.23145-.19263.46191-.30811.69116-.04297.08527-.09644.16937-.14282.25427-.07837.14337-.15308.28711-.24121.42938-.06201.09991-.13501.19836-.20166.29767-.08435.12585-.16382.25232-.25562.37714-.07568.10278-.16223.2038-.24292.30585-.09448.11963-.18396.24011-.28516.35864-.08496.09955-.18042.19714-.27002.2959-.10803.11908-.21143.23901-.32605.35675-.09607.09869-.20215.19513-.30273.29285-.11877.11536-.23303.23169-.35803.34558-.10449.09521-.21814.18805-.32678.28223-.13171.11426-.2594.22949-.39734.3421-.10376.08472-.21606.16693-.323.25067-.15283.11938-.30212.23969-.46155.35706-.10852.0799-.22473.1571-.3363.23602-.16663.11786-.33032.23669-.50342.35223-.11694.078-.24121.15308-.36108.22998-.17712.11371-.35168.22858-.53516.33978-.11377.06891-.23413.13507-.3501.203-.19775.11584-.39355.23254-.5979.3454-.11279.06226-.23157.12158-.34631.18292-.21497.11481-.42822.23047-.64978.34198-.11365.05713-.23267.11121-.3479.16748-.23022.11224-.45923.22516-.69604.33362-.11047.0506-.22559.09814-.3374.14789-.24756.11011-.49438.2207-.74854.32648-.11499.04779-.23413.09241-.35034.13934-.25708.10376-.51343.20807-.77661.30737-.11597.04382-.23608.08429-.35327.1272-.26929.09845-.53809.19739-.81323.29095-.11426.03888-.23206.0744-.34729.11243-.28247.09314-.5647.18652-.85291.27435-.11633.03552-.23584.06763-.35327.10217-.29224.08618-.58423.17255-.88184.25305-.11218.0304-.22729.05737-.34021.08691-.30603.08008-.61243.16003-.92371.23395-.11499.02734-.23254.05121-.34827.07764-.31213.07135-.62427.14258-.9408.20752-.12134.02484-.24475.04608-.36646.06995-.31531.06189-.63074.1236-.94995.17889-.12207.02112-.24609.03845-.36865.05859-.32104.05273-.64185.10529-.96631.15118-.13135.01862-.26465.03314-.39673.05054-.31885.04211-.63757.08429-.95923.11957-.13452.01477-.27051.02527-.40527.03876-.32141.03223-.64282.06458-.96655.08978-.14111.01099-.28369.01746-.42542.0271-.31885.02173-.63757.04364-.95837.05835-.15332.00696-.30762.00909-.46143.01447-.31006.0108-.62036.02234-.93188.02643-.16663.00214-.33398-.00092-.50098-.00073-.30042.00043-.60071.00177-.9021-.00433-.17639-.0036-.35352-.01282-.53015-.01862-.29236-.00964-.58459-.01794-.87756-.03394-.18909-.01031-.37842-.02667-.5675-.03961-.28052-.01917-.56091-.03668-.84167-.06183-.20642-.01849-.41272-.04364-.61914-.06537-.26282-.02771-.52563-.05322-.78833-.0863-.22583-.02844-.45142-.06409-.677-.09662-.24268-.03491-.48547-.0672-.72778-.10687-.24121-.03955-.48157-.08667-.72229-.13098-.21082-.03876-.422-.07501-.6322-.11749-.54395-.15228-1.98987-.55072-4.04907-1.07684-13.48584-4.43793-25.97168-17.15912-25.4729-33.09796l.37891-12.07245c.00073-.0213.0022-.04248.00293-.06378l1.23145-39.26465c.21777-6.93115,5.81641-12.57568,12.74512-12.85059l15.72656-.62402c15.74023-.62451,28.07031-13.45312,28.07031-29.20557v-45.50391c0-7.16992,5.83203-13.07812,13.00195-13.16992l26.94873-.34558,97.4165-1.24915.02734-.00049c3.69446-.06561,7.20801.73407,10.33813,2.2215,6.88611,3.27234,11.91626,9.87354,12.93335,17.91376l7.78027,61.46533c.63208,4.99109,1.87964,9.79938,3.68005,14.33826,4.72546,11.91467,13.26025,21.97327,24.46716,28.61072,1.60083.94824,3.25635,1.8266,4.96313,2.63062l37.6377,17.72852c15.24805,7.18213,23.55859,22.604,21.17285,39.28857ZM732.84375,310.9624c-2.49457.82013-5.4389,1.68719-8.76532,2.59283-.22644.06165-.45215.12317-.68219.18518-4.29401,1.15747-9.2085,2.37762-14.66254,3.64917-1.45233.33856-2.95563.68207-4.48151,1.02759-3.16193.716-6.4646,1.44525-9.91846,2.18805-2.5603.5506-5.19635,1.10797-7.90161,1.67126-5.4104,1.12653-11.09753,2.27673-17.00842,3.44354-1.92023.37903-3.87213.76044-5.83783,1.14276-2.17133.42236-4.36823.84644-6.59033,1.27222-6.28009,1.20325-12.75055,2.41858-19.36163,3.63916-2.13916.39496-4.29059.79034-6.45673,1.1861-4.09766.74872-8.24219,1.49829-12.41718,2.24738-1.72375.30933-3.45239.61841-5.18628.92737-8.72284,1.55426-17.55969,3.10266-26.40344,4.63086-.87164.15063-1.74298.30096-2.61456.45117-47.53235,8.19153-94.85327,15.75085-124.3775,20.37671-.16608.02606-.33142.04193-.49713.06299-1.84924.2337-3.67493.16388-5.42108-.20636-3.17072-.67285-6.08148-2.31134-8.40405-4.80389-2.78864-2.99261-4.29114-6.74329-4.35229-10.67444-.02032-1.31042.11945-2.64093.42505-3.97009l43.81396-190.59131c4.75684-20.69189,22.90625-35.33398,44.13623-35.60596l536.02905-6.87329c.07349-.00067.14636-.00122.21997-.00122,5.34473,0,10.37305,2.0625,14.18359,5.8252,3.87402,3.82471,6.00781,8.92871,6.00781,14.37256v6.89844c0,12.42871-8.81641,23.36084-20.96289,25.99365l-15.48828,3.35742c-16.03027,3.4751-30.61719,12.34912-41.07227,24.98682l-20.82715,25.17334c-7.99219,9.66064-21.02051,14.02197-33.21973,11.12549l-87.10303-23.92822c-7.85358-2.15717-16.24072-1.1886-23.36157,2.53613-3.71844,1.60547-7.08832,4.01886-10.08588,7.22656l-.05353.04199-.28369.31201c-4.14844,4.56317-7.98376,9.12158-11.60809,13.65601-6.04053,7.55731-11.49487,15.04779-16.83575,22.38208-14.10895,19.3764-26.83521,36.85345-46.24121,49.54504-7.59369,4.96631-16.21014,9.19983-26.33252,12.52771ZM748.51953,435.19727l93.45056-59.02142c-.78241,2.53363-1.3374,5.14392-1.63586,7.80353-.28729,2.55969-.34381,5.16266-.15698,7.77991l5.6626,79.27539c.12683,1.77466.48047,3.48505,1.03992,5.10034,1.67828,4.84589,5.20874,8.83594,10.02405,11.13794,2.38062,1.13776,4.88495,1.77197,7.39172,1.91272.35809.02008.71625.03015,1.0741.03015,1.46027,0,2.91553-.16718,4.34174-.49969,2.37701-.55414,4.6734-1.56744,6.77789-3.03107l45.44507-31.60547c-2.11438,4.6618-3.73218,9.5553-4.77173,14.63135-.3313,1.61761-.52551,3.24866-.58618,4.87781-.0202.54303-.02563,1.08588-.0163,1.62793.11182,6.505,2.34088,12.89917,6.45599,18.20813,5.40771,6.97656,13.36816,11.2207,21.84082,11.64453,26.93311,1.35498,55.10693-7.04053,79.96729-14.44092,2.40967-.71729,4.80261-1.42963,7.17371-2.12701,16.59753-4.88165,32.12305-9.03168,44.79602-9.03168,15.5918,0,49.72266,5.54932,84.79004,16.15527,3.57642,1.08167,7.04761,2.18286,10.40845,3.30078,32.48755,10.80634,54.64575,23.17023,61.47534,34.46387,1.61328,2.66943,3.15918,5.20166,4.63965,7.62793,2.47302,4.05212,4.75354,7.78894,6.85876,11.35406.84216,1.42603,1.65613,2.82458,2.44324,4.2049s1.54724,2.74237,2.28149,4.09534c8.44446,15.55908,13.46985,29.9176,16.74561,57.05957,1.09766,9.09277,1.9541,19.16406,2.86133,29.82715.15723,1.84912.31628,3.71265.47705,5.58197-.00513,3.48163-.12549,7.04242-.40576,10.59186-1.15918,14.68066-7.30664,29.00391-17.30859,40.33008l-44.22949,50.08496c-5.95605,6.74377-14.31531,10.84662-23.19873,11.49274-1.5354.05426-2.50195.08911-2.80615.10004l-103.10547-.57715-14.81934-.08301h-.00977c-.0918,0-.17969-.00098-.27148-.00098-19.71863,0-38.63306,7.87323-52.52112,21.74652-.9259.92487-1.82941,1.8764-2.70935,2.85406l-20.86426,23.18164c-2.1673,2.4082-4.4964,4.6319-6.95966,6.66656-.05493.04535-.10828.09296-.16333.13812-.19244.1579-.38965.3089-.58368.46448-.31519.25269-.6286.50793-.94806.75446-.00336.00262-.00684.00507-.01019.00763-10.83429,8.35663-24.06866,13.14856-37.76953,13.64911-3.26318.11914-6.55298-.00507-9.84338-.38251-12.07373-1.38867-22.86182-8.52832-28.85791-19.09863l-9.25684-16.31836-.00079-.00134-47.40009-83.55823c-.03711-.09119-.0838-.20129-.12323-.297-.07715-.18732-.1554-.37689-.24127-.58142-.06482-.1543-.13519-.31952-.20496-.48352-.09442-.22211-.19006-.44653-.29352-.68622-.07458-.17279-.15454-.3562-.23376-.53802-.1123-.25793-.22601-.51849-.34753-.79431-.08167-.18542-.16846-.38092-.25421-.57428-.13086-.2951-.26306-.5929-.40326-.90637-.0907-.20264-.1864-.41528-.28094-.62561-.14862-.33063-.29889-.66425-.45703-1.01343-.09314-.20569-.19092-.42035-.28729-.63232-.17139-.37695-.3446-.75757-.52612-1.1543-.09558-.20898-.1955-.42639-.29388-.64075-.19366-.42206-.38959-.84845-.59381-1.2912-.09747-.2113-.19916-.43073-.29901-.64673-.21393-.46271-.4303-.93011-.65509-1.41388-.09564-.20599-.19489-.41876-.29248-.62842-.24438-.52509-.49213-1.0567-.74841-1.60504-.08484-.18146-.17279-.36914-.25891-.5531-.26727-.57098-.53784-1.14838-.81726-1.74323-.09863-.21002-.20068-.42639-.30084-.6394-.28461-.60498-.57257-1.21674-.86908-1.84497-.07935-.16803-.16107-.3407-.24121-.51038-.32843-.69531-.66187-1.40039-1.00415-2.12274-.04858-.10254-.09869-.20795-.14752-.31104-.36993-.78033-.74615-1.57281-1.13159-2.38342-.04645-.09766-.09418-.19794-.14087-.29602-.40259-.84625-.81226-1.70642-1.23108-2.58429-.00134-.00275-.00275-.00562-.00403-.00836-22.73297-47.6507-69.01337-141.14258-98.88354-201.26807-.36786-.74042-.70148-1.48877-1.01959-2.24042-7.29224-17.23358-1.59412-37.15808,13.78687-47.91254.51782-.36206,1.04663-.71375,1.58624-1.05457ZM848.40662,740.16522l24.22241,42.69977c-6.82812-2.78223-14.03412-4.19513-20.35022-4.31421l-28.48529-.53748c9.63928-7.45508,21.57831-21.13062,24.6131-37.84808ZM1558.23145,751.72791c-.25513.76337-.51147,1.50104-.7688,2.21393-.12866.35651-.25757.70673-.38672,1.0509-.25818.68829-.51709,1.35229-.77661,1.99274-1.94556,4.80353-3.91724,8.28467-5.78564,10.80261-1.12598,1.51758-2.33984,3.16895-3.63477,4.93066-16.42383,22.33887-50.59766,68.82324-78.39941,71.35059-31.61133,2.87402-123.36133,17.32031-157.11133,24.22363l-1.27148.25977c-44.72168,9.14355-89.19141,19.80859-98.83301,40.57715-1.24121,2.67383-2.60938,5.91016-4.19238,9.6582-9.875,23.37207-28.26172,66.87207-56.79492,60.71973-7.58594-1.63574-14.07129-2.93164-19.79395-4.0752-22.12891-4.42188-30.40918-6.07617-39.28711-14.43164-11.76172-11.07031-23.78418-20.79199-41.47949-18.12988-2.7666.41406-5.57227.93359-8.28516,1.43457-11.87891,2.19727-23.10059,4.27246-34.18359-1.00488l-1.35938-.64844c-15.65527-7.48145-37.09668-17.7207-60.81201-.33301-5.16943,3.79102-10.05957,8.32031-15.2373,13.11523-.53479.4953-1.07178.99268-1.61157,1.49146-.05499.05084-.11084.10199-.16589.15283-.49054.45306-.98254.90692-1.47809,1.36176-.02173.02002-.04395.03998-.06573.06-.52313.47998-1.04901.96069-1.57867,1.44165-.08337.07568-.16827.15137-.25177.22705-.47156.42731-.94464.85461-1.42212,1.28168-.09949.08893-.20081.17761-.30054.26654-.4635.41327-.92847.82635-1.39832,1.23853-.11749.10309-.23724.20551-.3551.30847-.45428.39673-.90973.79315-1.37054,1.18811-.13617.1167-.27509.23242-.41187.34894-.44678.38062-.89453.76093-1.34802,1.1391-.15051.12555-.30426.24976-.45557.375-.44281.36646-.88635.7326-1.33606,1.09607-.1698.13721-.34314.27271-.51392.40948-.43616.34918-.87292.69812-1.31604,1.04388-.18903.14752-.3822.29297-.57257.43982-.43011.33167-.86047.66327-1.29755.99115-.20801.15607-.42053.30963-.63019.46484-.4259.31519-.85199.63031-1.28497.94141-.22681.16296-.45831.32294-.68707.48468-.42212.29846-.84412.59686-1.27325.89099-.24823.1701-.50165.33691-.75226.50549-.41742.28076-.83466.56171-1.25897.83795-.2699.17572-.54529.34766-.81805.52142-.41254.26282-.82471.52594-1.24402.78412-.29303.18042-.59186.35669-.88824.53467-.40881.24561-.81714.49158-1.2326.73242-.31519.18268-.63647.36078-.95557.54065-.4057.2287-.81079.45782-1.22302.68176-.3396.18445-.68567.36407-1.02985.5451-.40155.2113-.80237.42316-1.21021.6297-.36456.18457-.73584.36389-1.10559.54449-.39886.19489-.79688.39032-1.20184.58038-.38879.1825-.78467.35944-1.17932.53729-.39679.17889-.79279.35846-1.19562.53265-.41498.17944-.83734.35297-1.25885.52716-.39429.16302-.78778.32654-1.18787.4848-.44049.17419-.88849.34229-1.33624.51056-.39441.14832-.78815.29724-1.18829.44086-.46478.16681-.93719.32715-1.40985.48743-.39557.13422-.79065.26886-1.19183.39838-.48975.15802-.98724.30939-1.48547.46021-.39844.12067-.79645.24164-1.2005.3576-.51239.14697-1.03271.28723-1.55426.42639-.40424.10797-.80829.21606-1.21802.31921-.53455.13446-1.07709.26202-1.62128.38818-.41199.09552-.82397.19104-1.24158.28162-.55469.12036-1.11743.23358-1.68225.34509-.4231.0835-.8465.16681-1.27533.24524-.57092.10443-1.14978.20172-1.73102.29694-.44092.0722-.88251.1438-1.32947.21057-.58307.08716-1.17389.16724-1.76746.245-.4624.06055-.92596.12006-1.39484.17474-.59192.06909-1.19135.13135-1.7937.19092-.49011.04846-.98187.0954-1.479.13745-.59399.05029-1.19513.09399-1.79932.13501-.52728.03564-1.05682.06921-1.59192.09766-.58813.03137-1.18292.05664-1.7807.0791-.57312.02142-1.14941.03992-1.73157.05298-.57446.013-1.15485.02051-1.73822.02533-.89447.00708-1.78857.01453-2.70435.00171-47.39697-.64941-63.68359-17.7041-71.51025-25.90039-.67041-.70215-1.28027-1.33984-1.84033-1.89941-.16907-.16907-.4364-.4707-.85156-1.00696-.09229-.11914-.19183-.24994-.29919-.39337-.10742-.14343-.22272-.29962-.34631-.4696-.14923-.20514-.31219-.43317-.48682-.68048-.34601-.49023-.74329-1.06659-1.2002-1.74573-.24823-.3689-.51398-.76813-.79828-1.19977-.19055-.28937-.39032-.59473-.59802-.91406-.52051-.80035-1.0946-1.69495-1.73059-2.70013-.33557-.5304-.6889-1.09247-1.05902-1.68488-5.26965-8.4339-14.12317-23.32007-28.96057-49.5976-4.38708-7.77045-10.65607-14.07343-18.06671-18.49512-6.64905-3.96753-14.21472-6.42426-22.20331-7.00293l-266.24854-19.28418c-.60541-.04382-1.20215-.11798-1.7887-.22083-8.21167-1.43994-14.43451-8.50885-14.82281-16.83636-.02771-.59485-.0257-1.19611.00751-1.80219.72949-13.31348,10.74951-24.22656,23.8252-25.94824,24.91309-3.2793,41.95557-15.89551,49.28369-36.48438.2644-.74292.53406-1.54401.80603-2.37091,5.88458-17.89178,13.48584-55.04773,20.76361-95.00555.25739-1.41296.51428-2.82892.77075-4.24817.17944-.99298.35852-1.98718.53748-2.98267.24829-1.38159.49603-2.76483.74323-4.14996.38477-2.15619.76849-4.31488,1.14996-6.47565,7.06134-39.99353,13.50879-80.33057,17.36353-105.04321,1.86273-11.91675,8.20764-22.41876,17.86835-29.57202,1.11621-.82648,2.2832-1.66217,3.49786-2.49817.17517-.12054.3551-.24103.53229-.36157.23291-.15845.46381-.31708.70007-.47546.24982-.16742.50507-.33447.75861-.50159.16766-.11053.33252-.22137.50183-.33173.25409-.16565.51349-.33051.77112-.49561.17523-.1123.34766-.22504.52448-.33698.33136-.20984.66803-.41846,1.00507-.62701.10565-.06543.20905-.13135.31525-.19666,11.1499-6.85016,25.31354-12.88458,40.60895-12.8847,2.27826,0,4.58484.13428,6.90704.41943,43.7251,5.37012,92.83008,46.54248,103.26318,62.19189,7.12158,10.68262,24.87354,47.54785,19.08301,71.82129-1.84814,7.74707-5.85889,13.27246-12.26221,16.8916-8.85059,5.00293-19.29199,9.50781-29.38916,13.86523-28.88232,12.46289-58.74756,25.35059-58.74756,52.67383,0,33.84277,18.09521,57.90332,46.09961,61.29688l.25244.03027.01721.00031c11.52734,1.34497,54.56543,3.00598,90.90393,1.71533l82.7146,1.56073c13.05103.24609,26.35693,6.53345,32.4491,15.31201l9.15198,16.1333c2.3645,4.1684,5.31946,7.91394,8.72992,11.14728,7.50293,7.1134,17.21033,11.74786,27.68463,12.95233.02075.00238.04156.00385.06232.00623.71686.08173,1.43372.15314,2.15021.21405.26483.02252.52948.03705.79431.05676.47241.03516.94482.07166,1.41693.09784.31659.01758.63269.02704.94904.04059.41931.01801.83868.03778,1.25757.04871.33691.00879.67322.01001,1.00977.01434.32031.00409.64093.01367.96094.01367.05133,0,.10229-.00397.15356-.00409,1.17139-.00244,2.33978-.03595,3.50568-.09265.20428-.00995.40833-.01996.61243-.03149,1.1535-.06549,2.30365-.15564,3.44977-.27356.18481-.01898.3689-.04132.55347-.06171,1.18262-.13049,2.36169-.28217,3.53418-.46783.07001-.01111.1394-.02472.20941-.03601,1.16266-.18744,2.31915-.40417,3.46985-.64514.12366-.02588.24792-.04877.37146-.07526,1.13983-.24469,2.27161-.52014,3.39764-.81671.19171-.05054.38342-.10028.57477-.15222,1.1037-.29993,2.19995-.62421,3.28827-.97345.18475-.05927.36853-.12103.55286-.18176,1.11108-.36597,2.21515-.7522,3.30792-1.16901.09991-.03815.19855-.07941.29828-.11792,1.09192-.42175,2.17426-.8681,3.24585-1.33997.0835-.03674.16803-.07098.2514-.10803,1.07538-.47821,2.13727-.98688,3.19-1.51495.16797-.08423.3363-.16693.5036-.25244,1.02039-.52136,2.02881-1.06677,3.02576-1.63458.17395-.09906.34686-.19983.52008-.30035,1.00598-.5835,2.00122-1.18658,2.98102-1.81702.11536-.07422.22858-.15173.34357-.22656.99628-.64868,1.98029-1.31812,2.94708-2.01477.03955-.0285.08008-.05542.11957-.08405.97083-.70245,1.92224-1.43475,2.86133-2.18494.14093-.11261.28302-.22314.42322-.33679.89868-.72852,1.78058-1.48065,2.64783-2.25256.15607-.13892.31122-.27875.46625-.41907.86444-.78241,1.71442-1.58368,2.54504-2.40906.1192-.11847.23578-.24005.35431-.35938.8667-.87274,1.7193-1.76263,2.54651-2.68182l20.86426-23.18164c.7616-.84613,1.54358-1.66968,2.34485-2.47015,12.01904-12.00647,28.3866-18.81891,45.45105-18.81891h.22559l118.03125.66113.10547.00098.01392-.00049c.04419.00024.08838.00049.13257.00049.99524-.00006,1.98486-.04541,2.97119-.11176,9.27539-.32843,39.3064-1.36371,79.02002-2.45758,47.54785-1.30859,71.69141-6.59473,73.46777-6.99805,10.8999-2.19305,20.8916-6.83295,26.81836-9.98126,1.73657-.87848,3.40063-1.81885,4.97729-2.82068.32349-.198.52759-.32715.59302-.36896,21.33203-13.94629,44.67578-46.53223,45.42676-72.8125.13574-4.76953-.04492-10.24121-.23633-16.0332-.84473-25.51367-1.89648-57.26758,21.36328-67.31152,17.9043-7.73047,62.7793-23.7373,92.71289-5.44434,18.69885,11.42737,30.41248,23.35132,36.26416,37.48431,2.99731,7.23901,4.46436,15.05475,4.52869,23.68616.0061.82184-.00037,1.651-.01941,2.48773-1.10034,48.36957-5.72217,77.17511-11.02271,94.29962-.25244.81543-.50635,1.60443-.76147,2.36774Z" style="fill: #a7a9ac;"/>
</svg>