<?xml version="1.0" encoding="UTF-8"?>
<svg id="Background" xmlns="http://www.w3.org/2000/svg" viewBox="0 0 1920 1080">
  <polygon points="0 71.80847 0 126.82758 1920 186.20093 1920 131.18188 0 71.80847" style="fill: #c2c6f7;"/>
  <g id="Pavement">
    <polygon points="1920 0 1910.24329 0 1920 111.52917 1920 0" style="fill: #636466;"/>
    <path d="M1002.87366,818.01245c-4.46552,7.82446-4.20618,17.40015.49408,24.91437l-.49408-24.91437Z" style="fill: #636466;"/>
    <path d="M996.36523,855.14062c-1.07465-1.18286-2.06134-2.41968-2.95947-3.70166-.59875-.85468-1.15814-1.72937-1.67792-2.62158-1.03955-1.78442-1.92078-3.63879-2.64203-5.54218-4.1474-10.94458-3.00653-23.51215,3.72961-33.74591.04614-.07013.09644-.13654.14301-.2063-8.57495,1.01721-15.50323,1.40485-20.19281,1.53638-2.26758.06348-4.5293.09473-6.76562.09473-2.27362.00012-4.52917-.03491-6.76965-.0976-.18298-.00513-.36249-.01642-.54529-.02197-2.02942-.0614-4.04712-.14349-6.04858-.25403-.27863-.01544-.55231-.039-.83038-.05536-1.89874-.11139-3.78821-.23804-5.66101-.39166-.32739-.02692-.64917-.06226-.97577-.09045-1.40588-.12103-2.79987-.26019-4.19183-.40216l.1355,4.88666.90125,32.50885c16.90045,4.66663,37.11127,10.19873,60.36255,14.7196l-6.01154-6.61536Z" style="fill: #636466;"/>
    <path d="M934.65302,808.90387c-.39191-.05023-.78998-.09186-1.1803-.14435-.36633-.04926-.72699-.10596-1.09222-.15674-1.70557-.23712-3.40283-.48456-5.08368-.7536-.15814-.02533-.3147-.05261-.47162-.07941l.69647,35.11853c2.61523.77356,5.23151,1.53174,7.85046,2.276l-.71912-36.26044Z" style="fill: #636466;"/>
    <path d="M636.12207,197.85547c.05493-.76837.14697-1.52527.27393-2.2691l.00201-.01208c.1261-.73645.28693-1.45996.48004-2.16913.00354-.013.00696-.026.01056-.039.19214-.70081.41644-1.38721.67059-2.05817.00677-.01788.01331-.03589.02014-.05371.25488-.66785.53992-1.31982.85297-1.9549.00763-.01544.01489-.03107.02252-.04651.05908-.1192.12402-.2348.18512-.35278l-147.05096-4.28619,24.62817,8.06342c4.87958,1.5976,9.9682,2.46631,15.10144,2.57819l20.59399.44867c12.21643.26611,23.93726,4.88116,33.05554,13.0155l13.69476,12.21692c12.4126-4.45978,25.31848-7.58643,38.41052-9.2948-.58502-1.4455-1.01135-2.95374-1.22144-4.50385-.1698-1.25317-.21271-2.52795-.12152-3.80396l.3916-5.47852Z" style="fill: #636466;"/>
    <path d="M911.82855,804.85962c-.79382-.17712-1.59387-.34802-2.38043-.53253-.38287-.08978-.76105-.18365-1.14233-.27496-1.45105-.34735-2.89117-.70416-4.31976-1.07178l.64954,32.75415c2.61401.86279,5.2309,1.71985,7.85596,2.55518l-.66296-33.43005Z" style="fill: #636466;"/>
    <path d="M889.427,798.7713c-.7019-.22388-1.41034-.44354-2.10535-.67206-.38153-.12543-.76025-.25226-1.13977-.37891-1.37225-.45807-2.73218-.92255-4.07825-1.39575-.37933-.1333-.75641-.26758-1.13367-.40204-1.33008-.47418-2.6474-.95435-3.95111-1.44183-.37823-.14136-.7547-.2832-1.13068-.4256-1.28687-.48761-2.55994-.98053-3.82031-1.47955-.37732-.14935-.7536-.29883-1.12854-.44916-1.24243-.49823-2.47052-1.0011-3.6864-1.50891-.37616-.15704-.75189-.3139-1.12549-.4718-1.1972-.50616-2.37927-1.01617-3.54993-1.53021-.37549-.16486-.75134-.32922-1.12408-.49481-1.15216-.5119-2.28851-1.02686-3.41418-1.54486-.37238-.17133-.74579-.34204-1.11523-.51398-1.10645-.51501-2.19623-1.03223-3.27625-1.5517-.3714-.17853-.74463-.35645-1.11279-.53546-1.06183-.51642-2.10602-1.03412-3.14142-1.55341-.36578-.18341-.73438-.36621-1.0968-.54987-1.01392-.51392-2.00934-1.02832-2.99701-1.54358-.36664-.19122-.73706-.38196-1.1001-.5733-.96625-.50934-1.91296-1.01819-2.85309-1.5274-.36212-.19604-.72894-.39197-1.08716-.58789-.91577-.5011-1.8111-1.00055-2.70117-1.50006-.36353-.20398-.73279-.40808-1.09204-.61169-.8667-.49139-1.71191-.97992-2.55328-1.46838-.35822-.20789-.72333-.41644-1.0769-.62372-.82043-.48108-1.61823-.95813-2.41364-1.43512-.35272-.21149-.71362-.42419-1.0614-.63477-.77533-.46948-1.52673-.93365-2.27716-1.39783-.34338-.2124-.69617-.42664-1.0343-.63776-.75104-.46906-1.47675-.93115-2.20166-1.39331-.31134-.19849-.63336-.39972-.93988-.5968-.73944-.47552-1.4519-.94263-2.1629-1.4093-.27087-.1778-.55341-.35913-.82007-.53558-.78143-.51691-1.53448-1.0238-2.27991-1.52783-.17432-.1178-.35919-.23944-.53149-.35657-.9126-.62024-1.79901-1.23041-2.65558-1.82788l-219.99902-130.50781c-9.42542-5.59143-19.43268-9.64331-29.69403-12.18396-.11279-.02795-.22461-.06146-.33746-.08899-5.10992-1.2478-10.28241-2.11584-15.47687-2.61438-.08112-.00781-.16199-.01959-.24316-.02722-10.41443-.97595-20.91431-.44391-31.17816,1.5661-.13617.02667-.27325.04694-.4093.0741-1.92181.38397-3.83154.83783-5.73431,1.32587-1.95636.50183-3.90509,1.04083-5.83673,1.65253-.16138.05115-.32068.11047-.48193.16235-1.10724.35626-2.21204.72272-3.30981,1.11511-.14679.05243-.29144.11255-.43805.16565-9.90277,3.5874-19.3988,8.63867-28.16193,15.15167l-34.83252,25.89062c-14.85889,11.04492-32.43457,16.49805-49.95361,16.5-20.33838.00098-40.60303-7.3457-56.4873-21.8252l-40.271-36.70996c-6.62628-6.03998-13.93127-11.11096-21.69666-15.17883-21.57861-11.30347-46.74591-14.79016-71.03479-9.25769-2.4126.6084-4.93848,1.19238-7.61133,1.81055-11.63605,2.6925-25.7619,5.95996-40.31769,13.67865-2.07941,1.10272-4.16754,2.2962-6.25848,3.59186-17.63397,10.92615-31.35449,23.99127-41.00452,39.01123-4.38635,6.82727-7.93176,14.05847-10.62146,21.67627-.07288.20648-.15045.42615-.23212.65869-.73499,2.09283-1.80365,5.22845-2.81653,9.18195-1.46301,5.71057-2.80951,13.1275-2.86536,21.57263-.02148,3.24805.14801,6.64807.57513,10.16168.34174,2.81097.84839,5.69458,1.5542,8.6311,1.33539,5.55573,2.89508,12.04474,6.4516,17.68115.32336.51239.66315,1.01776,1.02081,1.51471.71527.9939,1.50201,1.95428,2.37061,2.87036.86865.91608,1.81927,1.7879,2.86255,2.60468,7.1698,5.61389,15.35284,6.16998,29.67065,6.14032.95483-.00195,1.93701-.00653,2.948-.01239,12.37354-.07031,19.73779-1.54297,27.53467-3.10156,4.47473-.89429,9.06396-1.81165,14.65027-2.48389,1.86206-.22406,3.83496-.4209,5.95129-.58057.24445-.01849.4798-.02991.72235-.047-9.34869-1.79211-21.30115-4.15137-27.24072-5.32794-1.26038-.24963-1.51941-1.93494-.39526-2.55719l5.04297-2.79156c2.64026-1.46155,5.61621-2.20892,8.63373-2.16815l59.57202.8042c2.59869.0351,4.6629,2.19537,4.57983,4.79297l-.38977,12.18481c4.0542.76697,7.95331,1.52069,11.71088,2.26166l.39496-13.034c.078-2.57501,2.20868-4.61053,4.78461-4.57092l4.45959.0686c1.8443.02838,3.31818,1.54321,3.29602,3.38763l-.20105,16.71851c9.8822,2.04083,18.74768,3.98114,26.93237,5.83051l.5979-49.73346c.03693-3.07019,2.49176-5.56329,5.56104-5.64771l3.67023-.10089c2.80688-.07721,5.11938,2.18652,5.10205,4.99445l-.33276,53.84253c2.61566.60913,5.17468,1.20807,7.69141,1.79706,17.41162,4.0752,32.44873,7.59473,48.74268,10.28516,10.24988,1.69189,20.67017,2.9964,31.21899,3.91064,12.30682,1.06659,24.78851,1.60211,37.37866,1.60193,5.39575-.00006,10.81158-.09857,16.24219-.29578l259.90088-10.30078c2.2168-.08789,4.43359-.13184,6.64305-.13184h.00099c2.41046,0,4.81598.05542,7.21637.15961,14.71948.63867,29.23212,3.22974,43.33051,7.74945,1.0932.35046,2.1839.71246,3.27197,1.08606l119.85693,41.14551c3.09106,1.13599,6.20404,2.24365,9.32202,3.34308l-.63428-31.98584ZM258.1994,720.83948c-.03064,2.5498-2.13916,4.58289-4.68842,4.52069l-8.08856-.19727c-2.01642-.04919-3.60522-1.73413-3.53601-3.74988l3.27148-95.28162c.07245-2.10925,2.23157-3.50458,4.18176-2.69775,2.20605.91272,4.26068,2.13641,6.10425,3.62616,2.43689,1.96924,3.82349,4.95917,3.78583,8.09204l-1.03033,85.68762Z" style="fill: #636466;"/>
    <g>
      <path d="M1788.69495,235.61377c8.46667.4259,16.17322.80469,23.25525,1.12402l.55664.02539c4.24414.19043,7.31055.32861,11.76855.82031,10.24951,1.13068,20.36475,3.32031,30.33569,6.51764l.96704-4.32623c.8457-3.7832-.0332-7.70801-2.41211-10.76807-.38232-.49176-.80591-.93878-1.24683-1.3645-6.03101-1.64691-12.11829-2.94293-18.255-3.91071l-639.57629-18.64191,133.43457,36.26233c17.57861,4.77698,30.38623,19.60449,32.72852,37.45343l.00354.00433-6.46924-55.30676,94.80237,1.44037c-2.09106.88171-4.19849,1.82233-6.32202,2.8432-8.5127,4.09229-31.12695,14.96387-48.51562,39.53027-5.41797,7.65332-15.15527,23.83105-19.49902,46.19141-2.06152,10.61035-2.69434,21.48535-1.88379,32.32178l15.3291,154.19434.28931-.02875,2.71387,46.1004c.62903,10.68561-7.71387,19.76965-18.41431,20.05011l-18.70325.49017,3.15149,150.72205c.28967,13.85559-6.53406,26.89398-17.75635,34.63959-1.60303,1.10651-3.29602,2.10504-5.0708,2.98248l-40.96777,20.25293c-1.07202.52991-2.0907,1.13281-3.05151,1.80078-6.7251,4.67603-10.61243,12.54236-10.09888,20.89844l1.48535,24.11523c.02881.46851.04761.93573.05652,1.40137.07166,3.75317-.50085,7.4054-1.62927,10.83392,21.66016-7.84125,42.97034-16.65228,66.38623-26.33783l6.09961-2.52246c14.69141-6.07214,28.18323-11.61261,40.61475-16.6861l.59131-7.49139v-.00006c0-12.83075-1.19934-25.63348-3.58228-38.24103l-29.08716-153.88782-.09265-2.47284-.37207.01398-.03577-.18933,19.99292-.52399c7.14136-.18719,13.14331,5.32507,13.56311,12.45654l10.9198,185.49121c14.56104-5.91547,27.53589-11.13416,39.14233-15.75867l-10.17505-172.84076c-.34558-5.87006,4.23755-10.86029,10.11572-11.01434l22.06152-.57825c4.51978-.11841,8.31323,3.38104,8.55908,7.89563l7.33411,134.72949-19.7301,9.42334,2.71069,24.12415c33.3772-13.10858,52.97314-20.29065,67.24609-25.52106,21.91992-8.03418,29.30469-10.74023,54.35059-23.2627,41.65723-20.82812,105.93262-54.99121,182.85059-110.96777,5.56055-4.04688,8.59668-10.55762,8.12109-17.41602-.47559-6.84668-4.37207-12.86426-10.42383-16.09766l-31.36035-16.75391-6.80176-3.4082c-31.35449-15.70947-39.38379-47.52295-33.43164-72.08203,5.9043-24.36719,27.32031-48.78467,61.90625-48.78467.27246,0,.54102.00146.81445.00488l48.19629.53125c12.40332.16699,23.89355-6.42871,30.08496-17.1333l13.17175-22.77142c-7.7196-5.91833-17.10168-9.45007-26.97961-9.98114l-293.69873-15.79028-7.13208-.67688c-14.88086-1.41406-29.33594,5.40479-37.70996,17.79443l-24.61914,36.42236c-3.17969,4.70361-8.46777,7.51221-14.14551,7.51221h-21.72217l-.04175-.70801c6.25891-16.93158,19.68652-42.91034,46.52954-59.4873,16.32031-10.07812,37.52832-16.43213,59.71777-17.89111,5.88281-.3877,11.86914-.38672,17.79102,0l.1377.00928,256.49023,7.28955c8.9248.33301,17.80664,1.66162,26.39844,3.94922,11.62964,3.09686,21.64563,7.67963,29.97095,12.56384l7.50732-12.97906c-9.3429-5.47473-20.58032-10.60797-33.6189-14.0799-9.66895-2.57422-19.66113-4.06934-29.76562-4.4458l-256.28223-7.28418c-5.03967-.32501-10.12183-.39056-15.16333-.21002-.21729-.12268-.43457-.2453-.64941-.3667-2.61047-1.47504-3.68396-4.50372-2.88135-7.17865h297.19702l.12695-.00439c4.42883-.14978,8.82056-.48419,13.17981-.96381-.67395-3.79205-.63086-7.76379.25476-11.72516l.78064-3.49249c-4.81799.61328-9.68445,1.01593-14.59802,1.18585h-24.5564l-108.0752-19.65002-.00708-.96265,58.68567-32.92676c12.19641-4.52258,24.39001-9.81818,36.13232-16.51868ZM1433.22314,439.21173c4.27478-.21057,9.40881-.42017,15.38428-.5921,12.39709-.35675,19.54736-2.65735,23.26367-4.41681v7.95056h-9.86499l6.27966,112.71552c.26685,4.78937-3.47644,8.85236-8.27161,8.97803l-9.31873.24426c-10.50159.27521-19.32751-7.83075-19.94495-18.31775l-5.73486-97.41742c-.28271-4.80182,3.4032-8.90759,8.20752-9.14429ZM1387.31934,344.61914c-.70215-9.47607-.14453-18.97998,1.65625-28.25049,3.80762-19.60156,12.2959-33.71582,17.0166-40.38525,15.14648-21.39648,34.50586-30.70361,42.77246-34.67773,26.31738-12.65137,50.65234-12.96631,61.04395-13.10059,96.05396-1.242,184.5426,2.6806,247.92944,5.84485-5.65015,2.33295-11.37549,4.46252-17.13708,6.46326-.10144.0249-50.11206,12.2951-82.17761,16.85492-32.09814,4.56439-103.21472-1.47241-142.82202,0-39.60742,1.47235-68.61353,22.6748-96.29456,49.17792-27.68103,26.50305-29.41479,63.94977-29.41479,63.94977l-2.57263-25.87665Z" style="fill: #636466;"/>
      <path d="M1894.21228,0h-31.69946c2.06848,23.48322,1.76257,47.05579-.95227,70.38818-4.4834,38.53613-9.12012,78.38379-36.68555,114.56885-7.44043,9.76678-15.64819,17.89526-24.4043,24.80145l21.89478.63812c5.04248-4.94788,9.87878-10.36102,14.44116-16.34973,30.05762-39.45605,35.15625-83.26953,39.6543-121.92578,1.76465-15.16858,2.5481-30.43353,2.37219-45.71143l10.2323,69.53479,16.14429,155.9386c-11.93225-7.72882-24.1438-13.97504-36.60254-18.75537.4624,3.11365.36523,6.32263-.34155,9.48364l-1.33594,5.97675c13.74939,5.65155,27.20068,13.29431,40.31055,22.90881l.82886,8.00604c-6.82104,4.54761-13.26892,8.09625-18.86206,10.78809-8.82324,4.24695-17.94519,7.62256-27.30835,10.12964-.0863-.16949-.17871-.34375-.24829-.50043-3.53381-7.95093,1.65637-35.12402,1.65637-35.12402l-10.28625,46.01825c-1.94629,8.70361,3.22754,17.50781,11.77734,20.04492l3.16992.94043c5.7998,1.7207,10.40918,5.93066,12.64746,11.55029,2.2373,5.62012,1.78418,11.84619-1.24414,17.08203l-31.84766,55.05811c-8.53613,14.75977-24.39453,23.84131-41.48242,23.62354l-48.19531-.53125c-29.88184-.31543-45.55176,20.71875-49.94434,38.84277-4.3916,18.12402-.05566,44.03125,26.62207,57.39746l7.02148,3.52148,31.44141,16.79639c10.02637,5.35645,16.48145,15.32422,17.26758,26.66504.78711,11.35254-4.2373,22.12891-13.44043,28.82715-77.69922,56.54395-142.61523,91.04883-184.68555,112.08301-25.7002,12.84961-33.86719,15.84277-55.69141,23.84082-14.5874,5.34607-34.75391,12.73749-69.62524,26.46094l.68579,4.07715c.69995,4.16101,5.08398,6.59351,8.98499,4.98523l140.54053-57.94324,5.29626,32.81921c-59.14294,17.02173-103.52271,37.42761-134.21533,51.54211-4.83643,2.22412-9.46704,4.39508-13.91113,6.51752-12.81921,6.12207-27.75-2.6889-28.58484-16.87042l-.96179-16.33685c-11.64368,4.65039-24.62085,9.88055-39.14038,15.7887l2.37354,40.31952c.43469,7.38428-3.24951,14.39697-9.56079,18.25507-5.82727,3.56213-11.43091,7.05518-16.9939,10.52374-16.0957,10.03613-31.29785,19.51465-50.61133,29.76953-82.24109,43.66534-155.37183,57.04688-242.61792,69.09155l-.68384-31.33362c-.12158-5.57013,4.17798-10.24194,9.73901-10.58228l143.4104-8.77722c19.72754-1.20703,38.73535-6.2168,56.49609-14.88965l54.10449-26.42383c14.58203-7.12109,25.85059-20.04688,30.91602-35.46191l8.58838-34.43579c-8.66748,3.54614-17.83838,7.31427-27.54272,11.3186l14.89648,6.6366-2.69482,8.19958-53.0957,1.99023c-7.01929,2.84045-13.93262,5.58722-20.81885,8.24304l71.37109-2.67523c-2.45825,6.50458-6.22363,12.43115-10.98901,17.41577l-116.02271,4.34888c-10.64575,3.12329-21.67529,6.03088-33.32959,8.71198l139.84265-5.2417c-1.63171,1.0437-3.31946,2.00708-5.07043,2.86206l-28.51587,13.9267-232.29187,8.70807-.1051-4.81378c-.69934.00366-1.39111.00616-2.06372.00616h-.00195c-6.74536,0-12.20703-.16443-16.25916-.35345-.57898-.02698-1.12903-.0545-1.65002-.08209-2.25427-.11993-4.4834-.26147-6.70129-.41254-.42712-.02917-.85364-.05908-1.28137-.08954-1.03418-.07336-2.04895-.16211-3.07507-.24188l.76514,35.05255-9.46106-.16071v-35.64868c-.70361-.06818-1.4187-.12799-2.11841-.19904-.16028-.01624-.32031-.03253-.48047-.04895-1.922-.19714-3.81006-.41736-5.70178-.63489v36.39056l-12.97314-.22034-.75269-37.95081c-2.64252-.38135-5.25214-.77881-7.82953-1.19287l.78143,39.40131c-4.26575.35938-8.48578,1.08154-12.61865,2.14526l-.86761-43.74475c-2.65192-.4942-5.26062-1.00262-7.83588-1.52167l.94604,47.70532c-4.16809,1.55963-8.211,3.48218-12.0769,5.75934l-2.00848,1.18311-1.14459-57.71405c-2.66107-.60547-5.27502-1.21704-7.84198-1.83435l1.27106,64.09314-12.73999,7.50439-1.48407-74.83301c-2.66937-.69116-5.2959-1.38037-7.84637-2.06293l1.60309,80.83441c-5.54822,2.3573-11.4248,3.89648-17.42072,4.56427l-1.78931-90.22418c-2.61731-.72925-5.23462-1.46478-7.84943-2.22314l1.84161,92.8606-14.93347.28192-1.93713-97.68182c-2.62323-.81842-5.24109-1.64935-7.85474-2.49518l1.98956,100.32434-14.47015.27319-2.09167-105.47406c-2.63019-.90875-5.24695-1.83508-7.86017-2.76984l2.18329,110.09454h.00049l.20697,10.29474,47.2226-.8916c12.66748-.25586,25.1333-3.79004,36.05029-10.2207l22.99316-13.54395c10.27637-6.05273,22.03125-9.13086,33.93457-8.94336l31.22632.5304.8855,40.56665c-.81323.10852-1.61621.21594-2.43213.32483-61.51849,8.2088-115.16052,10.23517-168.54156,9.08765-5.33759-.11475-9.65399-4.38184-9.80487-9.71851l-3.70477-131.0318-21.19574-7.27625,3.85333,136.28436c.16467,5.82367-4.66089,10.55444-10.48016,10.27472-34.20398-1.64404-69.0957-4.25909-106.6394-7.07526l-8.86963-.66504c-28.93439-2.16656-69.17035-5.17999-118.35065-11.15546-2.50775-.30469-4.39386-2.43732-4.39386-4.9635l-.00006-2.62311c0-2.97498,2.57385-5.29279,5.53143-4.97174,16.61652,1.80365,38.27087,4.21136,59.84271,6.77435,39.37433,4.6781,144.46472,8.49603,168.60425,9.32825,2.71777.09369,4.95288-2.10858,4.90759-4.82758l-1.78961-107.38013c-.06317-3.78772-3.2135-6.79126-6.99988-6.67377l-86.64874,2.68982c-3.34277.10376-6.12628-2.54309-6.1908-5.88684l-.88135-45.68274c-13.73315-3.33362-27.8241-4.7356-42.06122-4.17151l-259.92236,10.30176c-29.84668,1.08496-59.26465-.72852-87.45068-5.38184-16.71973-2.76074-31.95117-6.3252-49.5874-10.45312-1.58502-.37097-3.18909-.74628-4.8114-1.12524l-.55261,89.40973c-.05151,8.33118,5.68945,15.58063,13.81073,17.4397l141.43854,32.37671,122.69263,19.1839c2.43365.38049,4.2276,2.47675,4.2276,4.93994v2.04095c0,3.03497-2.68237,5.37457-5.68787,4.95251-51.7572-7.26855-111.448-17.80402-176.92181-33.55609-12.02344-2.89258-26.2876-6.45117-44.34717-10.95703-15.90039-3.9671-34.10217-8.50818-55.26129-13.71509-9.02618-2.22119-15.33862-10.36804-15.22687-19.66284l1.15222-95.84308c-.76624-.17438-1.53394-.34894-2.31213-.52496-1.41443-.31989-2.84906-.64258-4.30579-.96796s-2.93536-.6535-4.43793-.9845c-5.00415-1.10229-10.2774-2.23633-15.87592-3.40302l-.15387,12.79706c-.03174,2.63837-1.97424,4.8548-4.58344,5.24756-1.4715.2215-2.93097.50427-4.37244.84882-6.14404,1.46875-10.08594,3.56543-13.89795,5.59375-2.79492,1.4873-5.43506,2.8916-8.92822,3.98633-5.06592,1.58594-8.91309,1.62598-15.84033,1.56055-22.67627-.21191-38.66895-.89551-51.51953-1.44434-21.03857-.89844-32.62744-1.39355-47.66895,1.52734l-.91455.17871c-3.93311.77734-10.52148,2.0752-19.35791,1.94824-12.75879-.1875-22.20703-3.2002-26.74805-4.64746-14.53955-4.63586-26.81354-12.34637-36.29834-19.91016,2.32928.22137,4.65662.43347,6.98096.63574,8.91168.77582,17.90784,1.41187,26.88922,1.91962,1.00879.05707,1.56799,1.18842.99982,2.02399-.7771,1.1427.11487,2.67535,1.49188,2.55969,9.37341-.78748,36.62427-3.33313,64.16467-8.34045,29.06299-5.28418,73.2774-12.82483,85.53174-14.90784-6.29803-.99316-11.65228-1.61163-16.92407-1.82635-4.13379-.1684-8.22089-.09015-12.68304.24615-7.67383.5791-13.19092,1.68262-19.03174,2.84961-8.05566,1.61035-16.38574,3.27539-30.00928,3.35352-14.91602.08496-26.95276.12994-37.76007-6.81952-.99097-.63721-1.97546-1.31146-2.94696-2.07208-2.97827-2.33203-5.41571-4.92883-7.43036-7.65253-1.00732-1.36188-1.90894-2.75537-2.7196-4.16345-4.05328-7.04016-5.83252-14.44244-7.18109-20.05219-1.84094-7.65918-2.52631-14.97058-2.50159-21.69098.02197-5.97375.60492-11.48053,1.43616-16.34943.04535-.26587.09418-.52222.14099-.78424.06207-.34735.12292-.69849.18726-1.039,1.22089-6.45868,2.83466-11.67432,4.03192-15.20386.10901-.32135.21454-.62872.31604-.92175.20294-.58612.38971-1.11499.55524-1.58398,3.00555-8.51227,6.94592-16.57928,11.80481-24.18182,10.68958-16.72552,25.82489-31.20312,45.2323-43.22833,12.75537-7.90356,25.11212-12.30969,36.21368-15.36151,5.04614-1.38715,9.83295-2.49451,14.27997-3.52325,2.63672-.61035,5.12695-1.18652,7.43652-1.76953l.14453-.03516c5.81262-1.3277,11.67035-2.19696,17.52478-2.62061,25.85541-1.87134,51.64264,4.95337,73.19708,19.36609l.27649-22.99731h10.27704v30.96222c1.07074.90741,2.13251,1.82825,3.17432,2.77789l40.271,36.70996c24.98047,22.77051,62.80078,24.66113,89.92822,4.49902l34.83252-25.89062c38.54614-28.651,89.73596-32.14172,131.6618-9.336,1.35242.73566,2.69525,1.49866,4.02765,2.28912l167.71765,99.4939,6.10468-7.00244,86.35583,49.0307,57.20245-32.02454,7.13251,14.40222-57.54022,32.93732c.83514.36566,1.67432.73029,2.5238,1.09174.56555.24072,1.13611.47955,1.70776.71826.94421.3941,1.89575.78558,2.85669,1.17358.5647.22809,1.1333.45459,1.70374.68042.97162.38458,1.95178.76544,2.93988,1.14282l175.27142-100.3288-.27417,22.36841h-4.08972c-7.43457,0-14.81934,1.87598-21.35645,5.42578l-51.08984,27.74805c-6.44824,3.50293-10.4541,10.2373-10.4541,17.5752v43.50128c.65729-.01062,1.31195-.01593,1.96924-.02649.87732-.01447,1.74622-.01154,2.62842-.03632,1.54688-.0434,3.36664-.11896,5.40234-.23572v-43.20276c0-3.66895,2.00293-7.03613,5.22754-8.78809l8.625-4.68451v55.43994c3.1142-.37177,6.45624-.83118,10-1.39972v-59.47156l9.3252-5.06482v62.85718c3.17334-.62891,6.45056-1.33246,9.84363-2.14246.05219-.01251.10419-.02557.15637-.03809v-66.10797l13.13867-7.13605c.01697-.00922.03467-.01678.05176-.026v69.74005c1.00854-.29895,2.0155-.60181,3.01904-.91272.83911-.25946,1.67627-.51617,2.52319-.78766,1.49292-.47943,2.97729-.97687,4.45776-1.48303v-70.1181c2.14929-.41235,4.33765-.62543,6.53223-.62543h3.96704l-.82373,67.2132c1.34033-.51959,2.67847-1.0437,4.00659-1.58569.36902-.15045.73584-.29462,1.10571-.44745,1.83655-.7597,3.65894-1.54419,5.47095-2.34564.44507-.19666.89062-.39673,1.33643-.59698.38574-.17334.76489-.35742,1.14966-.5321l2.92261-238.48022h3.83435l-3.04504,157.03064-2.40027,80.84259c1.04639-.48138,2.09875-.95325,3.13489-1.45087,22.59375-10.85059,37.08398-18.35352,49.74609-35.15625,3.88477-5.15497,7.04248-10.474,9.60938-15.82819,11.1228-23.20105,11.15137-47.06268,11.16797-61.10065.01074-9.63373-.84668-19.35541-2.5498-28.89734-.50476-2.82788-.76648-5.66693-.79504-8.48962-.15442-15.24243,6.48743-30.00537,18.34778-39.94006l55.91699-46.83545c3.7854-3.17102,5.93335-7.6261,6.06909-12.45544.01929-.68988-.00232-1.38745-.06616-2.08997-.12793-1.40503-.41821-2.76001-.8584-4.04565-1.32056-3.85687-3.98999-7.08948-7.67188-9.17651l-465.98047-264.16406c-.26978-.15295-.54535-.29584-.81598-.44727-1.13556-.63531-2.27332-1.26569-3.42126-1.87311-.52252-.27649-1.05365-.53687-1.57922-.80786-.91492-.47168-1.82794-.94788-2.75024-1.40198-.46844-.23077-.94403-.44733-1.41467-.67377-1.00287-.48212-2.005-.96619-3.01599-1.42761-.31042-.14185-.62531-.27405-.93658-.41406-1.19958-.53864-2.401-1.07239-3.61121-1.58203-.07794-.0329-.15692-.06329-.23499-.09607-18.30048-7.67395-37.78204-12.02228-57.43579-13.00635l-14.08832-.13098c-15.8916.50848-31.7384,3.21741-47.00836,8.17444-4.65125,1.50995-9.24896,3.2276-13.7782,5.15393l-105.98486,45.0791c-26.10004,11.10205-55.22394,10.94843-80.84894.12799-3.34088-1.41071-6.6214-3.00323-9.82874-4.77557-.66461-.36725-1.32507-.74377-1.98322-1.12653-1.46936-.85449-2.92706-1.73639-4.36206-2.66779l-72.6333-47.14502c-12.3999-8.04883-17.56738-22.36816-13.16406-36.48047,4.26941-13.68365,16.04565-22.39758,30.23901-22.51007l-94.75433-1.77185L0,157.02655v27.01593l248.34863,8.57275c8.38574.28955,15.03564,7.05859,15.18896,15.43408l-2.36768,265.74561-.49158,40.88031H0v12.12488h260.53259l-.24011,19.96869c-4.89636-.81885-13.00592-2.06696-18.53174-2.35779-8.39264-.44171-26.28223.6626-26.28223.6626l-.60754-7.89832c-.15564-2.02368-1.84314-3.58636-3.87286-3.58636h-43.85547c-11.47137,0-22.90778,1.26483-34.10187,3.77167l-38.09705,8.53143c-1.4585.3266-2.98596.11139-4.29742-.60553l-6.05243-3.30865c-2.0058-1.0965-4.52039-.37683-5.64246,1.61481l-5.30908,9.42365H0v9.2843h68.41168l-16.12207,28.61652c-2.80573,4.9801-6.16272,9.62872-10.00781,13.85828l-5.20166,5.7218c-3.67676,4.04437-5.93329,9.16937-6.43085,14.61255-1.14148,12.48718-2.98859,37.31726-2.67999,64.62646.3194,28.26385,20.95569,62.06488,32.36438,78.62341.95697,1.38898-.10864,3.27209-1.7923,3.17096-7.74072-.46509-15.48303-1.02509-23.16199-1.69366-11.7608-1.02374-23.59851-2.29956-35.37939-3.80658v13.07727c1.92737.24261,3.85022.50458,5.7796.73511,3.76678.45001,7.32037,2.0293,10.1626,4.54187,10.7356,9.49042,26.0014,20.2287,44.89374,26.25214,4.56592,1.45605,15.2583,4.86426,29.34961,5.07129.46631.00781.92676.01074,1.38135.01074,9.08398,0,15.77637-1.32227,19.85254-2.12695l.88623-.17383c12.09344-2.3493,21.61932-2.33313,37.53473-1.70557,3.71649.14655,6.6225,3.2608,6.49042,6.97784-.28278,7.95782-.74664,21.01062-.98865,27.82153-.09235,2.59888,1.64099,4.90759,4.16174,5.54688l65.03101,16.492c3.79926.9635,7.54608-1.74103,7.82806-5.65033l3.94623-54.70941c.84131-.43005,1.65771-.86304,2.46472-1.29248,3.46533-1.84277,6.73828-3.58496,11.7627-4.78516.63263-.15125,1.26965-.28735,1.91034-.409,2.48187-.47107,4.76215,1.49866,4.73175,4.02472l-.65778,54.71448c-.1543,12.83258-12.17981,22.19989-24.65985,19.20868-17.42584-4.17664-36.32172-8.66302-56.86841-13.48517-44.86243-10.52905-100.54749-23.5871-174.99268-28.11993v40.07452c6.85388.4389,13.54993.95282,20.08612,1.53619,5.19409.46362,9.14514,4.86597,9.08203,10.08032l-.91852,75.8576-28.24963.96582v113.43848h284.4082v-41.87012c0-11.71948-2.0097-23.35217-5.94177-34.39227l-3.14807-8.83887c-3.09863-8.70001-4.60138-17.88794-4.43604-27.12177l.44501-24.85187c.11487-6.41327,6.15631-11.06177,12.3855-9.53192,23.38782,5.74377,43.25122,10.69952,60.42633,14.98474,18.15039,4.52832,32.48682,8.10449,44.67334,11.03711,151.7002,36.49707,272.60889,45.5498,337.56543,50.41309l8.86377.66406c63.6167,4.77148,119.77295,8.98438,177.93701,8.98438,21.55188,0,43.38214-.58075,65.96674-1.92389,2.92346-.17389,5.41919,2.09253,5.50391,5.0199l1.66235,57.42743h22.71283v-21.09814c0-5.79395,4.6969-10.49084,10.49078-10.49084h6.09552c4.92114,0,8.96289,3.88843,9.15308,8.80591l.8811,22.78308h451.16113l-53.95898-90.31915c-8.57056-14.34583-13.3811-30.62292-13.98608-47.32294l-1.49707-41.33087c-.21094-5.82196,2.74561-11.30865,7.73706-14.31256,1.84863-1.11255,3.72583-2.23328,5.63745-3.36371,4.92175-2.91046,11.23901-1.51892,14.49292,3.18274,6.76074,9.7688,14.19971,18.96631,22.27246,27.51434,13.86426,14.68359,28.20117,29.86719,51.64941,37.94922,11.64648,4.01367,21.11523,4.86914,41.66406,4.86914,1.38672,0,2.82715-.00391,4.31934-.01074,8.01514-.03796,16.10571-.17291,24.23804-.38342l6.66943,123.52795h286.85754l-14.61292-270.35144c-.14893-2.7572-2.50488-4.87164-5.26208-4.7229l-207.60144,11.20197c-2.58032.13928-4.84448-1.70544-5.23096-4.2605-.44141-2.91943-.86951-5.74878-1.27722-8.44238-1.02527-6.77435,3.27356-13.21161,9.92249-14.86554l.14771-.03674c35.67688-8.88757,66.31848-13.76666,100.0625-17.19562,15.18896-.54449,78.30908-1.26068,113.29102,22.1214,16.05518,10.73169,33.04858,36.06116,47.65918,62.58142v-23.84711c-12.8927-20.92346-27.07666-39.41003-40.99121-48.71088-12.88354-8.61194-28.84131-14.23541-44.97681-17.88367,5.46045-.34491,11.05078-.69391,16.82544-1.05383,22.99487-1.43256,46.08374-2.4342,69.14258-3.05005v-40.01355c-23.88965.625-47.8125,1.65729-71.63672,3.14172-78.94629,4.91992-131.10059,8.16992-199.04492,25.0957-4.22009,1.05127-8.36719,2.12585-12.45569,3.21674l-5.59363-34.66174,3.30151-1.36115,123.16748-13.54602,100.2207-13.71259c5.42871-.7428,9.42456-5.45801,9.26685-10.935l-1.47314-51.14331c-.1709-5.93268,4.54395-10.85883,10.47839-10.94806l17.70862-.2663c5.73218-.08624,10.15649-5.07019,9.56226-10.77222l-15.94165-152.99066c-1.74878-16.78448-8.45142-32.66931-19.25464-45.63336l-3.0271-3.63263c3.04126-4.35645,8.71997-12.94812,13.6189-22.88959,2.10718,1.82239,3.92224,3.51807,5.42603,5.00049,16.23535,16.00488,23.50586,32.47998,28.81543,44.50928,2.63647,5.97491,4.922,12.08545,6.86133,18.30511v-38.97748c-5.41345-10.47266-13.10718-22.65051-25.14551-34.51904-2.54761-2.51129-5.88147-5.56219-9.9613-8.83685,1.13586-3.52014,2.01184-7.03857,2.48718-10.44739,2.09448-15.02203-8.0437-30.75049-16.29907-42.06171,8.40918-2.54724,16.63135-5.74713,24.63159-9.5979,4.29346-2.06628,9.05029-4.59979,14.0813-7.64099l10.20581,98.57861v-145.65802L1894.21228,0ZM1070.75635,462.07513l4.30493,3.26843-1.06641,54.99384h-3.95251l.71399-58.26227ZM941.68475,734.6886l-9.29828-12.48615-3.67328-26.1214,7.36456-12.47803,47.2467,27.25006-41.63971,23.83551ZM1045.02454,467.99384l9.3833-18.3313,3.46741,2.63263-.83398,68.04224h-12.18555l.16882-52.34357ZM1056.83813,536.90186l-.55029,44.89209-45.11865-25.4209,11.49188-19.47119h34.17706ZM696.73004,474.61963l54.3313-75.09204s-3.3092-35.45514-5.78284-59.96997l249.16937,174.85919,22.55719,12.39471-2.43658,4.12836-25.63977-14.8031-6.86285,11.88678,25.52582,14.7373-7.61102,12.89569-22.51447-12.99872-6.86285,11.88672,22.40051,12.93292-18.20203,30.84021-22.10315-12.76129-18.0495,31.2627,21.80341,12.5882-18.66034,31.61682-22.85126-13.19324-6.86285,11.88678,22.73737,13.12744-9.70642,16.4458-21.18884-13.46881-295.50916-110.65033,92.31897-90.55212ZM286.99359,571.79755l.52313-43.50922h9.43799l.24158,31.71002v11.79919h-10.2027ZM311.43402,459.81824c-.00446-.58533.02826-1.16913.05872-1.75287l196.84467-5.70978v11.4444l-196.82959,5.70941-.07379-9.69116ZM517.14197,430.5437l.16235,12.57465-203.91089,5.91479c.96942-2.57086,2.26721-5.01849,3.90729-7.23444l4.12854-5.57788,195.71271-5.67712ZM327.18927,427.07635c2.07104-4.18658,3.54956-8.62695,4.3949-13.22614l185.27283-5.37439.16907,13.09387-189.83679,5.50665ZM311.57611,478.4845l196.76129-5.7074v15.02289l-196.64691,5.7041-.11438-15.01959ZM311.75879,502.47919l186.41913-5.40741v12.19873l-186.32629,5.40472-.09283-12.19604ZM311.91998,523.65039l206.34692-5.98547.15857,12.28302-206.41199,5.98737-.09351-12.28491ZM312.19037,559.17188l-.10858-14.26147,206.45959-5.98871.17639,13.66113-206.5274,6.58905ZM546.76605,398.63062l-.46667.01355h-29.56934l.01105.85742-184.30389,5.34631.27698-11.94696,213.36865-6.18945.68323,11.91913ZM545.56903,377.74884l-212.64661,6.16846.27814-11.99774,211.68231-6.1405.68616,11.96979ZM543.68872,344.94794l.68036,11.86847-210.98712,6.1203c-.03363-4.04486-.61743-8.01886-1.73352-11.83789l212.04028-6.15088ZM413.12653,327.68262l23.43176,11.32965v.06573l-108.6225,3.15094c-.63306-1.1405-1.31317-2.26038-2.05255-3.35114l-5.76025-8.49731,93.00354-2.69788ZM311.33881,283.46136l44.82684,16.67975,39.44446,19.07202-80.79791,2.34381c-2.27271-4.974-3.47339-10.37543-3.47339-15.91888v-22.1767ZM290.50842,211.46381l5.83038,5.41919v88.75507c0,10.72119,3.17969,21.0791,9.19531,29.95312l7.93311,11.70312c3.35254,4.94629,5.05176,10.71826,4.91309,16.69189l-.24194,10.43707h-29.08197l1.45203-162.95947ZM288.82684,400.19019h28.71417l-.12164,5.24817c-.17102,7.38019-2.62036,14.52686-7.01221,20.46045l-5.16309,6.97559c-5.79224,7.82556-8.88422,17.32172-8.81006,27.05743l.4046,53.11725h-9.13873l.46857-38.97192.65839-73.88696ZM235.35583,553.24536c8.93469-.95728,19.59503,1.31207,24.82697,2.64612l-.31897,26.52716c-10.15833-5.75189-34.01019-19.25641-41.07245-23.24677-9.05518-5.11646,4.19635-4.60132,16.56445-5.92651ZM263.07422,999.2666l1.70282,4.78094-147.35986,6.74384.29449-7.95093,145.0509-4.51459c.1076.31274.20056.62885.31165.94073ZM206.79138,983.40491l.14728-11.77917,50.95288-2.45227c.00006,1.67828.04584,3.35193.13898,5.02045l-45.64404,2.43799-.14722,6.77301h-5.44788ZM42.12805,893.12976c.07269-6.00079,5.37976-10.5741,11.32983-9.79199,44.55927,5.85718,81.18726,14.4469,112.39563,21.77063,32.13983,7.54309,60.23389,14.26373,84.96985,20.25964,4.54999,1.10291,7.72272,5.21576,7.63892,9.89679l-.41046,22.92224-30.35242,1.95404v-26.07629c0-2.00116-1.66364-3.6012-3.66327-3.52319l-97.58856,3.80566c-2.43787.09503-4.466-1.85553-4.466-4.29523v-11.37415c0-2.25891-1.77271-4.1203-4.02893-4.23047l-76.03772-3.71252.21313-17.60516ZM271.4082,1053.84204c-11.08282.23511-53.19672,1.12109-58.43274,1.12109-6.0368,0-7.21472-4.12268-3.97546-6.92017,3.23926-2.79761,6.0368,3.53369,6.0368,3.53369l51.23926-1.47241-.29449-5.44775h5.42664v9.18555ZM270.91528,1028.91064l-155.11774,7.64771.14722-3.68115,146.35583-7.65637v-5.59509h7.16846c.64856,3.06622,1.12415,6.16455,1.44623,9.28491ZM1302.14319,887.47284l-9.03577,4.4129c-16.69141,8.15137-34.55566,12.86035-53.09668,13.99512l-143.47449,8.78119c-5.20667.31866-9.63403-3.75586-9.74792-8.97107l-.22131-10.13684,215.57617-8.0813ZM1382.50977,968.66833l-85.66919,6.24078c-7.10864.51782-13.375,4.85602-16.36206,11.32739l-2.23022,4.83173c-2.17944,4.7218-6.74622,7.89215-11.93201,8.28357l-66.05457,4.98529c-4.61877.34857-8.68616,3.17236-10.6272,7.37799l-3.91016,8.47205c-2.18372,4.73132-6.79248,7.87854-11.99414,8.19043l-157.93262,9.4679c-3.6922.22144-6.82397-2.67993-6.88507-6.37817l-.1485-8.99835c-.06567-3.98053,2.9364-7.34894,6.90021-7.71967,14.37946-1.34485,29.13068-3.00696,44.37775-5.04126,102.26367-13.64648,190.58203-25.43164,289.42871-77.91406,5.95581-3.16241,11.57251-6.27338,16.93518-9.33948,9.67371-5.53094,21.75879,1.21716,22.16199,12.35315l.94336,26.05194c.14709,4.06268-2.9469,7.51337-7.00146,7.80878ZM1531.27625,927.50891l28.87439-1.55817.58313,3.91547c-15.82605-.00104-22.91101-.53851-29.45752-2.3573ZM1613.87695,839.05499l-26.69946,1.44073v-.00006l-70.9436,3.82843.72559,13.42664c-3.95801,1.39929-9.01538,3.37225-13.87354,5.80139-10.15955,5.07977-8.17188,18.3313-7.7301,24.73621.23645,3.4281-2.50073,7.48773-5.09619,10.52191-1.03357-1.08765-2.0719-2.18445-3.12488-3.2995-5.69226-6.02802-11.03027-12.42688-15.99585-19.16016-4.28369-5.8089-2.3042-14.07843,4.14307-17.32288,8.92725-4.49243,18.69409-9.20306,29.53442-14.18787,22.6499-10.4165,53.05835-24.39465,91.43384-37.66888,11.8075-4.08429,24.43237,3.49847,26.30127,15.85181.22656,1.49762.45532,3.01117.68579,4.5354.88354,5.8432-3.45923,11.17841-9.36035,11.49683Z" style="fill: #636466;"/>
      <path d="M1177.15112,861.70154l-102.01208,3.82373-.35498-16.99054,182.61438-6.84491c1.30273-.64874,2.51367-1.43152,3.62097-2.32526.03259-.02631.06494-.05286.09729-.07935.34058-.27856.67139-.5675.99133-.86688.01917-.01801.03918-.03522.05835-.05328.34229-.32281.67297-.65674.99036-1.00208.00146-.00153.00269-.00317.00415-.0047.28979-.31555.56543-.64301.83362-.9762.0719-.0896.14197-.1806.21228-.27142.20215-.2605.39709-.52637.58582-.79657.06946-.09955.14038-.19788.20801-.29865.2406-.35846.47278-.72266.68933-1.09637.00061-.00098.00122-.00183.00171-.00275l-191.06335,7.16156-.25891-12.39661,193.84131-7.26611-.14954-2.42755-.3092-5.01837-193.53833,7.25476-.32837-15.71472,192.82874-7.22821c.12122,1.6507.24341,3.23175.3634,4.73602l-.26392-4.28564c-.91113-14.78809,7.08301-28.58594,20.36328-35.15234l40.96777-20.25293c2.42456-1.19849,4.62549-2.72778,6.55933-4.5166,5.80188-5.36633,9.20142-13.06812,9.03149-21.17969l-.87708-41.94592c-.0304.18463-.0592.36426-.08997.5506l-184.32788,6.90973c.11304-2.0661.15381-4.00531.10559-5.77618-.07483-2.74139-.21057-5.51404-.37903-8.29163l184.40869-6.91266-.15601-7.45746-184.76855,6.92621c-.4165-5.46558-.88232-10.862-1.21008-15.99072l185.64368-6.95892-.15601-7.45746-185.84839,6.96661c-.1604-5.41748-.02295-10.36737.67505-14.57318l184.86938-6.92987-.00879-.42371-.14722-7.03369-182.37781,6.83649c.17822-.33777.36243-.66815.55945-.98224,3.05933-4.87579,5.95654-9.62646,10.58362-13.84192l170.93384-6.40759-.15588-7.45734-157.78101,5.91449c4.85876-1.97797,10.83691-3.6546,18.38257-4.93158,28.71167-4.85889,76.19629-12.80981,84.36804-17.0061,8.17175-4.19635,19.87732-20.0033,19.87732-20.0033l33.7915,15.68097.73511-9.61194-.49292-23.57489c-.0481-2.29883-.04846-4.59473-.00122-6.88666.33057-16.04364,2.99292-31.89459,7.93872-47.21393l.11426-.354c6.26367-19.40234,8.83594-39.56348,7.64355-59.92041l-.04126-.70435h0l-7.96167-135.96069c-.20044-3.42358-.94043-6.71741-2.14429-9.78857-3.61206-9.21356-11.40039-16.42322-21.32837-19.12109l-29.8136-8.10217-234.2771,5.10944-.49451-12.06329,193.64258-4.22339-29.62842-8.05188-164.37036,3.58496-1.00305-24.46741c12.58435.01172,72.02161.46838,111.86292,7.80756,7.02466,1.29401,13.23535,2.50201,18.71777,3.61957l-21.0415-5.71826c-3.77344-1.02551-7.57617-1.95959-11.39819-2.81763-12.53027-2.81287-25.28833-4.72864-38.07153-5.69507l-458.8938-13.37579c-.24323-.00623-.48254.00525-.72198.01599-.12054.00513-.24158.00793-.36102.01727-.23676.0191-.4704.04901-.70245.08417-.07678.01147-.15448.02008-.23065.03333-.26752.04694-.53107.10577-.79108.17346-.03998.01038-.08075.01849-.12054.0293-.28796.07874-.57074.16998-.84796.27313-.01288.00476-.02612.00867-.03894.01349-1.76355.66431-3.29376,1.81152-4.42279,3.29053-.00604.00793-.01288.0152-.01886.02313-.17188.22656-.33179.46277-.48425.70428-.01593.02527-.03418.04877-.04987.07416-.1405.22705-.26801.46307-.39038.70215-.02173.0426-.04736.08276-.06854.12573-.11121.22522-.2085.45856-.30292.69336-.02441.06079-.05402.11877-.07721.18018-.08539.22528-.15607.45782-.22546.69098-.02228.07495-.05078.14685-.07135.2226-.06354.2334-.11139.47363-.15826.71399-.01544.07935-.03796.15588-.05157.23602-.05475.32172-.09473.64899-.11853.98138l-.3916,5.47852c-.11182,1.5625.41162,3.05713,1.47363,4.2085.13275.14386.27148.27972.41577.40747.85651.7583,1.90747,1.22656,3.04272,1.35938,5.13232-.20129,10.26978-.1842,15.39642.05145.65387.02991,1.30853.04553,1.96198.08258.38544.02191.77014.05823,1.15546.08264l.23615.00232c.65405.04218,1.30688.10541,1.96057.15479.83508.06323,1.67023.12286,2.50446.19769.91345.08185,1.82532.18005,2.73761.27594.80511.08466,1.61035.16486,2.41431.26025.9223.10944,1.84259.23578,2.76331.35944.79663.10693,1.59369.20892,2.38898.32648.91199.13483,1.82135.2868,2.73138.43542.80347.13116,1.60748.25696,2.40918.39886.88708.1571,1.77094.33148,2.6557.50165.82257.15814,1.646.31067,2.46637.48004.85199.17596,1.70013.36926,2.54962.55731.84814.18774,1.69739.36957,2.54285.56927.8158.19275,1.62732.40283,2.44049.60669.87201.21857,1.74524.43115,2.61395.66241.77997.2077,1.55499.43268,2.33215.65063.89569.25104,1.79291.49622,2.68463.76074.74341.22064,1.48151.45856,2.22211.68848.91608.28442,1.83386.56268,2.74542.86133.71716.23499,1.42828.48737,2.14246.73108.92609.31604,1.85425.62579,2.77509.95654.70093.25177,1.39514.52112,2.0929.78131.8399.31317,1.68414.61511,2.51935.94055.0835.03253.16559.06848.24902.10114.70532.27594,1.40295.57025,2.10474.85492.90015.36511,1.80334.72278,2.69745,1.10217.72742.30859,1.44617.63641,2.16943.95435.85944.37781,1.72266.74719,2.57599,1.13818.77679.3559,1.54346.73218,2.31494,1.09882.78839.37476,1.58148.7395,2.36426,1.12555.9339.46051,1.85596.94366,2.78156,1.4201.60944.31372,1.22504.6156,1.83075.93622,1.52875.80908,3.04565,1.63947,4.54956,2.492l465.98145,264.16406c2.1355,1.21082,4.08911,2.66461,5.83228,4.31696,2.61499,2.47858,4.75598,5.40399,6.32678,8.62665,1.30908,2.68555,2.22205,5.57745,2.68323,8.58917.09229.60236.1665,1.20947.22217,1.82074s.09229,1.22186.11023,1.83099c.23413,7.91858-2.68201,15.59174-8.05823,21.34564-.82715.88519-1.71252,1.72504-2.65356,2.51331l-55.91699,46.83594c-1.31201,1.09888-2.53845,2.27698-3.67554,3.5238-6.25391,6.85748-9.80396,15.79272-10.01367,25.0473-.05725,2.52399.13403,5.07172.58667,7.6076,1.60815,9.00977,2.51807,18.17206,2.7124,27.29059.02783,1.30267.04102,2.60443.03955,3.90472-.02051,17.45703-.06348,53.77832-23.39453,84.73926-2.85168,3.78387-5.80884,7.16571-8.87061,10.22992-1.02051,1.02142-2.05273,2.00757-3.09644,2.96149-.52197.47699-1.04688.94598-1.57446,1.40729-12.13684,10.60992-25.80505,17.17401-40.9585,24.45209-.0249.01202-.05054.02295-.07568.03497-1.92847.92554-3.84863,1.80682-5.76367,2.6676-.50134.2254-1.00281.45013-1.50586.67249-1.88647.83325-3.76685,1.64355-5.63599,2.41644-.47998.19873-.9646.38904-1.44629.58508-1.49023.60571-2.97339,1.19257-4.44995,1.76135-.67737.26135-1.35278.52588-2.03296.78192-1.64502.6181-3.27856,1.21002-4.90344,1.78412-.95557.33838-1.91418.66962-2.87476.9975-.96997.33026-1.9325.64783-2.89392.96295-1.68665.55426-3.37988,1.09241-5.08081,1.61426-.46826.14325-.93408.28357-1.3999.42334-2.27466.68433-4.56079,1.33905-6.85901,1.9649-.05627.01532-.11292.03094-.16907.04614-1.1145.30273-2.22253.62238-3.34229.91125-2.40552.62061-4.82288,1.20917-7.25098,1.76532-.45239.10364-.90082.21777-1.34509.34198-.19794.0553-.39185.12006-.58807.17944-.24377.07373-.48938.14337-.73047.22327-.25439.08435-.50409.17908-.75537.27026-.17834.06464-.35907.12421-.53583.1922-.29352.11304-.58185.23663-.87079.35895-.12958.05481-.26154.10474-.39014.16138-.32587.14362-.6463.29755-.96588.45282-.08752.04254-.17725.08099-.26434.12439-.34479.17188-.68384.35376-1.02087.53906-.05872.03223-.1192.06152-.17761.09418-.35785.20013-.7099.40973-1.05853.62482-.03503.02161-.07117.04126-.10608.06299-.37207.23175-.73822.4726-1.09906.72113-.00977.00671-.0199.01276-.0296.01947-2.96942,2.05084-5.55017,4.66455-7.60181,7.7428,2.50885-.3877,6.50775-1.0105,11.51416-1.80652v41.74384c.00012.00006.00018.00018.00031.00024,1.34229,1.29242,2.76459,2.48383,4.25531,3.56897.00745.00543.01477.01093.02222.0163,1.49261,1.08484,3.05377,2.06305,4.67273,2.92755l-.98242-49.53528c4.08264-.66064,8.51843-1.38715,13.15002-2.16022l1.40088,56.03619c.11768.01508.23413.03601.35205.04999v.00061c.04541.00537.09021.01129.13574.01666v-.00067c2.25122.26642,4.50391.51239,6.75537.74481.30505.03149.61047.06274.91626.09369,4.42334.44751,8.83862.8269,13.22668,1.14008.4552.03241.91077.06458,1.36755.0957,2.16077.1474,4.31665.28339,6.45972.3974,2.28491.12134,5.16553.23938,8.57568.31976,2.43604.05743,5.13403.09625,8.11548.10071,19.67773.02979,50.9801-1.38354,90.49268-8.07654.9751-.16516,1.96753-.34186,2.95264-.51349ZM964.05298,269l-2.23987-57.25684,69.401,1.67511c2.31616.05591,4.17212,1.93622,4.19763,4.25299l.04224,3.82611,1.61963,47.50262h-73.02063ZM1052.41528,334.57361l-2.95508-111.95398h4.17786l4.23718,115.28833-5.45996-3.33435ZM1345.99048,376.70062l-209.45166,4.05396v-10.25879l-39.83325-1.22589-.48401-6.29156,249.1095-5.43317c.24707,6.61633.46704,13.08575.65942,19.15546ZM1344.99316,348.85529l-255.91772,5.5816-.42615-11.81067,255.8363-5.57977c.17871,3.91388.3479,7.86688.50757,11.80884ZM1344.06812,328.35828l-255.73242,5.57758-.42798-11.86224,255.51245-5.57275c.22681,3.82227.44287,7.79425.64795,11.85742ZM1342.86646,307.81567l-255.27234,5.5675-.52966-14.67792,254.60327-5.55292c.42529,4.26697.82483,9.22894,1.19873,14.66333ZM1338.91406,277.83435c.6012.84485,1.16821,3.17438,1.70142,6.64362l-253.8645,5.53687-.42334-11.7298,248.58081-5.42157c1.68396,1.92206,3.05005,3.62793,4.00562,4.97089ZM1060.37781,259.59412l253.79871-5.53516c4.49561,3.18854,8.74976,6.78333,12.47449,10.28729l-265.8407,5.79803-.4325-10.55017ZM1099.30444,421.474l-17.61731-10.68262,4.63806-2.20856,260.32324-9.04346c.15649,6.01752.26245,10.60339.31787,13.1001l-247.66187,8.83453ZM1157.78833,690.63196l183.66675-6.88483c-.87476,4.73364-1.88208,9.66052-3.00244,14.29346l-182.79395,6.85211c.87598-4.94092,1.61548-9.7746,2.12964-14.26074ZM1154.24255,712.40906l182.18835-6.82947c-1.53345,5.1048-3.22095,9.33539-5.026,11.76398-.66113.88953-1.62903,1.789-2.82825,2.69061l-177.39478,6.64978c1.05139-4.5976,2.09851-9.42841,3.06067-14.2749ZM1149.41089,734.21362l162.99866-6.11011c-13.0282,5.03625-28.99036,9.34283-36.78406,11.33008-2.95996.75476-5.28296,3.02423-6.10803,5.96539-.09656.34393-.19946.71222-.30676,1.09711l-124.11353,4.65247c1.09204-4.0722,2.64575-10.02832,4.31372-16.93494ZM1143.52759,758.67065l123.61292-4.63373c-.21399.78918-.4342,1.60333-.66809,2.47229-.62378,2.31671-.92358,6.12653-1.00537,10.7309l-121.93945,4.57098v-13.14044ZM1143.52759,781.17175v-1.89746l121.96875-4.57202c.10986,5.16779.3811,10.76831.71289,16.13464l-161.40723,6.05029c17.4563-6.24359,38.72559-15.71545,38.72559-15.71545Z" style="fill: #636466;"/>
    </g>
  </g>
  <g id="Buildings">
    <rect x="710.17929" y="338.27499" width="351.36384" height="34.45399" transform="translate(289.35979 -389.6945) rotate(29.45814)" style="fill: #c7c8ca;"/>
    <path d="M1027.18237,461.31348l-306.37274-171.95612-156.12286,278.16278,85.46692,47.96954-8.53461,15.1106,124.59222,70.37079,8.724-15.44592,96.12415,53.95111,156.12292-278.16278ZM694.93585,516.77289l50.80823-90.52448,151.59686,85.08588-50.80817,90.52454-151.59692-85.08594Z" style="fill: #c7c8ca;"/>
    <rect x="796.81061" y="285.77253" width="272.79545" height="43.37074" transform="translate(271.85357 -419.1906) rotate(29.45814)" style="fill: #c7c8ca;"/>
    <rect x="1053.49354" y="379.50576" width="39.96205" height="29.86385" transform="translate(332.76343 -476.92661) rotate(29.45814)" style="fill: #c7c8ca;"/>
    <rect x="1148.09179" y="449.30338" width="156.38846" height="43.37074" transform="translate(390.16648 -542.1805) rotate(29.45814)" style="fill: #c7c8ca;"/>
    <path d="M1091.84041,493.37462l23.33019,13.63427c7.93857,4.63934,13.09502,12.87904,13.79714,22.04699l1.66762,21.77522c.1681,2.19501,2.07011,3.84673,4.26702,3.7055l22.87122-1.47029c2.24427-.14427,3.93388-2.10123,3.74929-4.34255l-2.85601-34.67877c-.90845-11.03073-7.04281-20.95987-16.5009-26.7085l-32.94674-20.02509c-1.81838-1.10521-4.18302-.6023-5.39424,1.14725l-13.26172,19.15582c-1.33309,1.92558-.74489,4.57847,1.27714,5.76016Z" style="fill: #c7c8ca;"/>
    <rect x="1124.20908" y="565.56519" width="13.03067" height="62.04777" transform="translate(508.49184 -520.22911) rotate(33.05886)" style="fill: #c7c8ca;"/>
    <rect x="1167.38188" y="606.37001" width="13.03067" height="30.83775" transform="translate(357.42465 -426.07974) rotate(24.16595)" style="fill: #c7c8ca;"/>
    <rect x="1196.4307" y="581.25814" width="13.03067" height="36.49408" transform="translate(1539.80958 -701.65145) rotate(78.0249)" style="fill: #c7c8ca;"/>
    <rect x="1163.20287" y="640.91133" width="13.03067" height="29.35695" transform="translate(-64.53014 131.50042) rotate(-6.26208)" style="fill: #c7c8ca;"/>
    <rect x="1299.33569" y="554.56591" width="22.85738" height="37.32142" transform="translate(524.89417 -622.2231) rotate(33.05886)" style="fill: #c7c8ca;"/>
    <path d="M1094.71779,638.52376l12.58896,28.90569s4.19632,29.81595,4.8589,29.81595,12.80982.44172,12.80982-1.32515-4.19632-34.23313-4.19632-34.23313l-14.13497-28.26994-11.92638,5.10658Z" style="fill: #c7c8ca;"/>
    <polygon points="1044.42773 744.57343 1037.52612 746.47333 1032.64282 728.73401 985.11707 741.81714 990.00049 759.55652 987.57343 760.22467 995.91388 790.52209 1052.76831 774.87091 1044.42773 744.57343" style="fill: #c7c8ca;"/>
    <rect x="1136.46012" y="796.41104" width="30.25767" height="30.25767" style="fill: #c7c8ca;"/>
    <rect x="706.00613" y="741.08589" width="49.25153" height="23.74233" style="fill: #c7c8ca;"/>
    <rect x="558.54601" y="661.9816" width="23.85276" height="43.58282" style="fill: #c7c8ca;"/>
    <rect x="430.30061" y="660.65644" width="47.11656" height="19.8773" transform="translate(-299.3198 373.26105) rotate(-34.36712)" style="fill: #c7c8ca;"/>
    <rect x="334.56991" y="584.9884" width="87.92633" height="26.84585" transform="translate(-224.35665 227.05249) rotate(-26.05245)" style="fill: #c7c8ca;"/>
    <polygon points="1738.30061 653.95706 1853.58896 571.57669 1878.67669 600.16204 1764.36196 681.78528 1738.30061 653.95706" style="fill: #c7c8ca;"/>
    <rect x="71.18405" y="211.28221" width="184.63804" height="83.92638" style="fill: #c7c8ca;"/>
    <rect x="6.69325" y="233.07362" width="64.4908" height="172.8589" style="fill: #c7c8ca;"/>
    <rect x="96.80368" y="479.25767" width="102.77301" height="25.32515" style="fill: #c7c8ca;"/>
    <path d="M559.43292,322.56825l-122.81779,5.59799c-1.15063.05245-2.28877-.25695-3.25449-.88471l-113.44425-73.74402c-2.55185-1.65882-5.96528-.93488-7.62411,1.61698l-16.84255,25.9098c-1.65882,2.55185-.93488,5.96528,1.61698,7.6241l124.56608,80.97372c.96436.62688,2.1007.93631,3.24976.88493l136.45436-6.10189c3.04244-.13605,5.39773-2.71408,5.25906-5.75639l-1.40687-30.86616c-.13858-3.04047-2.71571-5.39291-5.75618-5.25433Z" style="fill: #c7c8ca;"/>
    <polygon points="1721.07361 392.11829 1710.91406 392.11829 1659.6748 454.81595 1659.6748 570.69324 1683.74854 570.69324 1683.74854 460.04291 1721.07361 416.19189 1812.28833 416.19189 1812.28833 392.11829 1721.07361 392.11829" style="fill: #c7c8ca;"/>
    <rect x="1123.58184" y="317.58896" width="25.91411" height="71.2638" style="fill: #c7c8ca;"/>
    <rect x="-11.50583" y="586.43022" width="52.03938" height="26.28221" transform="translate(-524.2469 336.06939) rotate(-62.55056)" style="fill: #c7c8ca;"/>
    <rect x="-20.12901" y="718.29758" width="52.03938" height="34.3477" transform="translate(-678.50597 1004.83018) rotate(-111.02427)" style="fill: #c7c8ca;"/>
    <rect x="-30.19953" y="653.72981" width="70.02505" height="26.28221" transform="translate(-662.05792 671.6839) rotate(-90)" style="fill: #c7c8ca;"/>
    <rect x="56.0184" y="901.76074" width="43.06748" height="19.93508" transform="translate(125.65066 -2.02734) rotate(7.87508)" style="fill: #c7c8ca;"/>
    <rect x="-19.47479" y="890.49693" width="33.30915" height="60.7362" rx="4.19632" ry="4.19632" style="fill: #c7c8ca;"/>
  </g>
</svg>