<?xml version="1.0" encoding="utf-8"?>
<!-- Generator: Adobe Illustrator 24.0.1, SVG Export Plug-In . SVG Version: 6.00 Build 0)  -->
<svg version="1.1" id="Inactive_Configs" xmlns="http://www.w3.org/2000/svg" xmlns:xlink="http://www.w3.org/1999/xlink" x="0px"
	 y="0px" viewBox="0 0 1920 1080" style="enable-background:new 0 0 1920 1080;" xml:space="preserve">
<style type="text/css">
	.st0{fill:#A7A9AC;}
</style>
<title>inactive</title>
<path class="st0" d="M1635.4,384.6c-20.6-45-50-85.7-87.3-120.8c-32.4-30.6-70.5-56.3-110.1-74.5c-36.7-16.8-72.8-26.5-104.4-27.9
	c-19.2-0.9-39.9-1.8-61.9-2.9c-170.4-8-428-20-625.3-9.9c-52.2,2.7-100.2,15-142.8,36.8c-38.4,19.6-72.4,46.7-101.2,80.7
	c-56.7,67-85.2,151.4-92.5,223.9c-0.5,1.5-0.7,3.2-0.5,4.8c-2.1,24.1-1.9,46.7,0.4,66.9v0c6.9,60.1,24,114.8,50.6,162.5
	c23.6,42.2,54.6,78.9,92.2,109.2c32.9,26.4,70,47.3,110.2,62c35.2,12.9,71.6,20.4,105.3,21.9c97.3,4.2,239.2,6.9,375.4,6.9
	c88.8,0,175.2-1.2,245-3.9c77.6-3.1,145.2-20.5,201-51.7c46.9-26.3,85.8-62.4,115.6-107.4c21.9-33,38.6-70.4,49.8-111.2
	c0.4-0.9,0.7-1.9,0.8-2.9c0.5-1.9,1-3.8,1.5-5.7c10.5-41.5,12.4-74.5,12.6-90.4C1670.4,491.8,1658.9,435.8,1635.4,384.6z
	 M1649.8,550.7c0,1.9-0.1,4.7-0.2,8.1c-9.5-56.2-26.1-101.8-27.6-105.6c-11.8-34.6-30.4-66-55.4-93.7c-1.6-7.5-3.2-15.1-5-22.8
	l-11.5-42.6C1608,355.5,1651,441.5,1649.8,550.7z M1528.2,695c-50.5,91.6-188.7,141.8-265.7,141.8c-0.3,0-0.7,0-1,0
	c-42.1-0.2-93.4,0-147.7,0.3c-140.7,0.7-315.9,1.6-454.5-5.6c-73.8-3.9-160.4-70.4-221.1-133.2c-36.5-92.5-51.8-232,27-342.6
	c35-49.1,127.2-131.8,250.4-130c120.3,1.7,443.7,10.6,447,10.7l0.2,0l0.2,0c0.9,0,92.2-0.8,192.1,26.8
	c63.4,17.5,139.4,49.2,193.2,106.3C1586.1,554.7,1559.7,638,1528.2,695z M417.6,279c58-68.5,135.3-105.6,229.8-110.5
	c196.3-10,453.3,2,623.4,9.9c22,1,42.7,2,61.9,2.9c53.8,2.4,127,31.5,189.5,85.9l17.8,66.3c-8.1-7-16.6-13.7-25.7-20.2
	c-41.6-29.5-93.4-52.9-154-69.6c-101.2-27.9-191.3-27.5-197.5-27.5c-9.4-0.3-327.8-8.9-447-10.7c-55.6-0.8-112.3,15-163.8,45.6
	c-40.8,24.2-78.4,58.1-103.1,92.8c-44.4,62.3-64.9,140.6-59.3,226.4c2,30.3,7.4,61.3,15.5,90.9c-15.3-18.4-27.3-35.2-34.7-48.2
	c-14.7-25.8-29.5-69.3-40.8-119.8C336.2,424.3,363.3,343.3,417.6,279z M331.8,574.9c6.8,19.1,13.9,35.4,21.2,48.2
	c12.4,21.8,36.5,53.4,68.4,86.7c6.9,17.2,14.8,33.3,23.5,47.8c20,33.5,39.7,60.1,82.3,100.3C440.6,814,354.3,728,331.8,574.9z
	 M1588.4,750.1c-62.3,94.2-163.5,144.7-300.7,150.2c-176.2,7-458.4,3.9-618.7-3c-24.4-1-54.4-6-86.3-16.3
	c-69.7-60-94.7-90.6-118.5-129.9c3.6,3.2,7.3,6.4,11,9.5c46.8,39.6,116.5,87.4,183.1,90.9c95.1,5,207.1,6.1,313.5,6.1
	c49.3,0,97.4-0.2,142.1-0.5c54.3-0.3,105.6-0.5,147.5-0.3c0.4,0,0.8,0,1.1,0c84,0,228.3-52.6,283.2-152.2
	c23.4-42.4,36.1-86.7,40-139.2c3.4-46.5-0.1-100.1-10.9-162.7c11.5,17.1,21.1,36.1,28.3,57l0.1,0.3c0.4,1,36.3,99,32.7,183.4
	C1627,676.3,1612.4,713.9,1588.4,750.1z"/>
</svg>
