<?xml version="1.0" encoding="utf-8"?>
<!-- Generator: Adobe Illustrator 24.0.1, SVG Export Plug-In . SVG Version: 6.00 Build 0)  -->
<svg version="1.1" id="Background_Details" xmlns="http://www.w3.org/2000/svg" xmlns:xlink="http://www.w3.org/1999/xlink" x="0px"
	 y="0px" viewBox="0 0 1920 1080" style="enable-background:new 0 0 1920 1080;" xml:space="preserve">
<style type="text/css">
	.st0{fill:#666766;}
	.st1{fill:#C7C8CA;}
</style>
<title>background</title>
<g id="Pavement">
	<path class="st0" d="M1702.3,349.6l-24.9-60.2c0,0,10.7,128.9-12.4,160c0,0-178.7-25.8-262.2-18.7l-54.2-8.3l-72.9,0.6l-102.5,1.2
		c0,0-110.2,1.2-199.2,36.1c0,0-119.7,46.8-154.1,75.3c0,0-73.5-26.1-110.2-49.8l58.1,126.8c0,0,76.5-53.9,145.2-87.1
		c0,0,90.7-46.8,188.4-58.7l7.7,81.8l55.1-11.8v-14.2l60.4-13.6c0,0,80-3.6,120.9,10.1v-21.9h-7.7v-35c0,0,193.8-0.6,321.8,23.1
		l3.6,12.4l14.8-2.4l46.8,75.3l8.3-45l-9.5-97.8L1702.3,349.6z"/>
	<polygon class="st0" points="1094.9,580.7 1094.9,609.7 1346.2,605 1346.8,565.3 1321.9,575.6 	"/>
	<path class="st0" d="M1922.8,836.1V813l-60.4,26.7c0,0-35.6,5.3-32-32.9l18.7-101.3l15.1-55.1l19.6-101.3
		c0,0,9.8-213.3-116.5-403.6c0,0-56-58.7-140.4-76.4l-61.3-23.1c0,0-89.8-27.6-192.9-15.1l-175.1,1.8c0,0-96.9-3.6-232,59.5
		c0,0-170.7,62.2-243.5,168.9c0,0-42.7,51.6-68.4,149.3c0,0-24,11.6-29.3,62.2c0,0-4.4,10.7-13.3,6.2l10.7,19.5l-9.8,7.1l12.4,22.2
		c0,0,32.9,105.8-19.5,117.3l6.2,23.1c0,0,40.1-4.4,58.3-36.9c-5.7,22.7-16.5,47.8-36,72.5l-67.6,58.7l-26.9-22.8l-3.4-20.7
		l22.2-31.1l53.3-19.6l-6.2-23.1c0,0-12.5,13.3-18.7-17.8l-43.6-200c0,0-17.8-115.5,0-178.7c0,0,8-50.7,87.1-104
		c0,0,16.9-25.8,94.2-70.2L933.4,9.4L940.6-3l-200,0.9L502.3,70.8l-115.6,48l-51.6-18.7l-16,31.1l52.5,34.7L401,420.1l-12.4,2.7
		l-25.8,5.3l-16.9-80c0,0-16-45.3-48-45.3c0,0-110.2-13.3-143.1,64c0,0-17.8,38.2,16,151.1l29.3,136l24.9-3.6l-44.4-232
		c0,0-8.9-48.9,40-73.8c0,0,36.4-14.2,82.7-11.6c0,0,20.5,5.3,24,33.8l109,397.3l-284.1,75.6l-2.7,88L0.1,946.3v99.6l244.5-25.8
		l102.2-42.7l343.1-46.2l68.4-20.4l56.9,151.1l-29.3-142.2H801v34.7h63.1v31.1l203.6-13.3l131.6-20.4l48.9,20.4l25.8,93.3h251.6
		l-27.6-119.1l96-31.1l19.6,16c0,0,142.2-38.2,144.9-36.4s13.3,32.9,13.3,32.9s-15.1,71.1,8.9,113.8c2.7-1.8,23.1,9.8,23.1,9.8
		l2.7,20.4h116.4V1005c0,0-60.4-72.9-57.8-137.8L1922.8,836.1z M1801.9,673.4l-87.1,78.2l-171.6,10.7l-645.3-15.1l-149.3-85.3
		L678,558.4c-13.8-47.4-10.3-132.1-10.3-132.1C691.7,307.2,780.6,245,780.6,245s64.9-71.1,148.4-112.9c0,0,136-69.3,318.2-76.4
		c0,0,190.2-9.8,326.2,26.7c0,0,117.3,38.2,154.7,72c0,0,125.3,116.5,122.7,404.8l-1.8,0.6C1849,559.7,1841,624.6,1801.9,673.4z"/>
</g>
<g id="Buildings">
	<polygon class="st1" points="1633.9,526.3 1612.1,514.8 1609,520.6 1632.1,532.6 	"/>
	<polygon class="st1" points="1011.2,234.3 1005.9,230.3 996.1,236.6 1000.1,241.9 	"/>
	<polygon class="st1" points="630.3,529 590.3,536.6 600.1,591.7 639.7,585.4 	"/>
	<polygon class="st1" points="606.8,612.1 615.2,668.1 651.2,662.3 643.7,606.8 	"/>
	<polygon class="st1" points="376.7,415.4 372,402.9 332.3,413.6 336.4,426.6 	"/>
	<polygon class="st1" points="494,807 383.8,417.1 315.7,435.5 372.6,640.6 386.8,635.8 438.9,822.5 445.8,820.1 454.3,850.3 
		496.4,837.9 488.1,808.3 	"/>
	<polygon class="st1" points="803.4,845 847.8,845 847.8,811.2 856.7,811.2 856.7,791.7 847.8,791.7 836.6,791.7 803.4,791.7 
		803.4,790.5 776.7,790.5 776.7,858.6 803.4,858.6 	"/>
	<polygon class="st1" points="894.6,849.1 1032.7,849.1 1032.7,818.3 1041,818.3 1041,794.6 1032.7,794.6 1032.7,794 894.6,794 
		894.6,795.2 879.8,795.2 879.8,840.3 894.6,840.3 	"/>
	<polygon class="st1" points="1729,776.8 1726.6,767.4 1576.7,792.3 1550.6,792.8 1550.1,793.4 1401.3,793.4 1401.3,795.8 
		1390,795.8 1227.7,795.8 1218.2,795.8 1218.2,795.2 1080.1,795.2 1067.1,795.2 1049.3,795.2 1049.3,842.6 1067.1,842.6 
		1067.1,846.8 1099.7,846.8 1099.7,872.8 1184.4,872.8 1184.4,846.8 1218.2,846.8 1218.2,807.1 1227.7,807.1 1227.7,848 1279.2,848 
		1279.2,859.2 1341.4,859.2 1341.4,848 1390,848 1390,807.1 1401.3,807.1 1401.3,853.3 1434.5,853.3 1434.5,874 1519.2,874 
		1519.2,867.5 1553,867.5 1553,853.3 1553.6,853.3 1553.6,802.7 1580.3,803.5 1588.6,847.4 1724.8,823.1 1716.6,779.2 	"/>
	<polygon class="st1" points="1631.6,859.2 1637.7,901.9 1721.7,888.4 1715.8,847 	"/>
	<rect x="1252" y="972.4" class="st1" width="99" height="79.4"/>
	<polygon class="st1" points="801,954.6 862,954.6 862,981.9 1048.7,981.9 1048.7,954.6 1081.3,954.6 1081.3,868.1 801,868.1 	"/>
</g>
</svg>
