<svg id="Background_Details" data-name="Background Details" xmlns="http://www.w3.org/2000/svg" viewBox="0 0 1920 1080"><defs><style>.cls-1{fill:#636466;}</style></defs><title>background</title><g id="Pavement"><path class="cls-1" d="M0,0V1080H1920V0ZM1857,566.54c-8.6,19.26-86.15,83.74-106.78,99.73C1701.41,706.68,1664.1,729,1664.1,729l-192.76,98.36s-20.12,17.71-27,22.87c-29.06,17-61.74,11.18-61.74,11.18l-92.16-37.32S829.61,701.6,814.55,697.19s-25.53-9.74-41.32-35.63-4.59-54.36-1.1-59.87,8.08-13.59,13-28.1c5.87-13.59,3.67-37.28,2.57-39.12s-11.21-15.61-13-18.37-4.23-6.24-10.47-7.71c-38-4.59-71.63,36.92-78.05,43.53-12.86,12.3-45.73,67.4-58.22,75.66-11,13.59-78.79,63.92-92.93,74C502.52,724,448,734.84,448,734.84l.19,16.53-38.3,11.2s-44.69,33.52-59.77,44.69c-23.47,19-28.5,15.08-28.5,15.08L52.87,541.05l-8.8-.36s-7.69-29.6-8.47-35S36.05,471,37.73,462s11.86-27,20.36-44.41,14.66-26,14.66-26l28-23.72s47.66-30.32,56.28-35.69c41.62-28.2,88.61-45.76,109.08-52.14s53.26-3.58,53.26-3.58c42.52,3.58,73.73,29.87,73.73,29.87s32.45,29.76,37,33c44.2,41.73,43,48.44,43,48.44l9.28,52.93c-.89,23-15.1,46.43-19,54.15s-18.79,27.52-22.71,32.22c-13,15.55-25.73,20.59-34.46,25.73s-9.72,9.43-4.92,16.79c20.14-12.48,56.33-60.88,56.33-60.88s25.9-33.26,33.89-42.53c22.07-20.15,50.52-32.94,60.12-35.82,28.14-4.47,72.26-17.9,80.58-20.46s36.13-17.59,41.89-19.51,11.19-8,25.9-21.1c14.71-16,52.76-30.7,57.87-33.26s14.39-13.11,18.55-17.9c10.23-18.55,17.27-25.26,28.78-36.77,79.94-55.32,204-53.41,204-53.41l312.44,30.55s506,2.7,518.91,3.18c12,19.91,17.62,84.82,17.62,84.82l10.67,161.25s.27,3.57,3,10.28C1871.65,527,1866.14,548.83,1857,566.54Z"/><path class="cls-1" d="M770,373.2l28.21,22.53.71,10.64L901.47,602s16.14,21.9,18.83,25.36,10.37,14.22,16.52,16.52S1343,748.41,1343,748.41s11.32,3.15,21.69-7.55c9.26-8.65,68.39-65.69,68.39-65.69s20.46-16.61,44-20.46c4.09-.72,21.9-8.66,24.79-8.66a68.25,68.25,0,0,1,30.8,5.05c7.95,3.37,37.55,19.49,66.19,20.7,11.79-.48,36.33-4.33,65.45-33,7-6.26,69.07-69.79,69.07-69.79s7-5.06,3.37-31.29c-3.85-17.33-17.08-38.51-19.49-45-13-32.73,1.44-68.83,4.57-78.46,0,0,30.33-14.68,34.18-45.48.48-7,3.13-26.72-16.61-43.56-8.9-5.3-28.64-21.18-65.46-19-15.4.48-51.26.48-69.07,16.85-9.38-.48-411.53-4.33-411.53-4.33l-129.94.8s-31.79-23.11-65.8-18.61-46.72,29.32-46.72,29.32l-10.75-4.49L936,303.48l-40.27,2L842.19,324s-32.45,8.79-40.07,14.85S777.35,360.22,770,373.2Z"/></g></svg>