<?xml version="1.0" encoding="UTF-8"?>
<svg id="EXAMPLE_-_Active" data-name="EXAMPLE - Active" xmlns="http://www.w3.org/2000/svg" viewBox="0 0 1920 1080">
  <path d="M1081.22949,966.42969h-238.3916c-38.15967,0-69.20508-31.04492-69.20508-69.20508v-16.44727c0-32.38281,26.34521-58.72852,58.72803-58.72852h259.34521c32.38281,0,58.72852,26.3457,58.72852,58.72852v16.44727c0,38.16016-31.04492,69.20508-69.20508,69.20508ZM832.36084,844.04883c-20.25195,0-36.72803,16.47656-36.72803,36.72852v16.44727c0,26.0293,21.17627,47.20508,47.20508,47.20508h238.3916c26.0293,0,47.20508-21.17578,47.20508-47.20508v-16.44727c0-20.25195-16.47656-36.72852-36.72852-36.72852h-259.34521Z" style="fill: #fff;"/>
</svg>