<?xml version="1.0" encoding="utf-8"?>
<!-- Generator: Adobe Illustrator 24.0.1, SVG Export Plug-In . SVG Version: 6.00 Build 0)  -->
<svg version="1.1" id="Inactive_Configs" xmlns="http://www.w3.org/2000/svg" xmlns:xlink="http://www.w3.org/1999/xlink" x="0px"
	 y="0px" viewBox="0 0 1920 1080" style="enable-background:new 0 0 1920 1080;" xml:space="preserve">
<style type="text/css">
	.st0{fill:#A7A9AC;}
</style>
<title>inactive</title>
<path class="st0" d="M1455.1,285.7c-65.2-42.3-139.4-64.2-196.3-72.3c-0.3-0.1-0.7-0.2-1-0.2c-0.1,0-0.6-0.1-1.4-0.1
	c-14.3-2-27.5-3-39.2-3.3c-63.4-1.7-163-2.4-257.9-1.9c-0.7-0.1-1.3-0.1-2-0.2c-0.6-0.1-1.2,0-1.8,0.2c-10.2,0.1-20.4,0.1-30.5,0.2
	c-1-0.4-2.1-0.6-3.3-0.2c-0.3,0.1-0.6,0.2-1,0.3c-58.5,0.5-112.9,1.5-152.8,3.1c-61.9,2.4-119.6,15.6-171.5,39.1
	c-48,21.7-90.3,52.5-122.4,89c-50.2,57.1-74.4,125.9-68.3,193.6v0c4.5,49.1,21.7,93.8,51.3,132.9c25.6,33.8,60.3,63.4,103.1,87.9
	c79.6,45.6,171.9,64.7,231.6,67.5c54.6,2.5,130.1,3.6,206.2,3.6c85.9,0,172.7-1.4,230.9-3.7c4.1-0.1,6.4-0.2,7-0.3
	c104.4-4.6,193.7-36.1,258.2-91.2c30.8-26.3,54.9-57.2,71.7-91.7c16.9-34.7,25.9-72.3,26.9-111.7
	C1595.7,403.1,1519.5,327.5,1455.1,285.7z M1146.4,218.4c-21,2.9-48.4,7.1-77.5,12.1c-14.8-4.8-30.4-9.2-46.6-12.9
	C1065.9,217.6,1108.6,217.9,1146.4,218.4z M673.2,389.8c0.5-0.6,0.9-1.2,1.4-1.8c5.9-6.1,16.1-12,28.9-13.5
	c18.1-2.2,47.3,3.3,83.1,41.7c77,82.3,117.5,122.6,168.9,173.7c4.5,4.5,9.2,9.1,13.9,13.8c-45,44.6-86.6,84.6-119.4,110.2
	c-9.1,7.1-22.7,9.7-42.8,8.1c-0.5,0-1,0-1.5,0.1c-61.2-10.2-155.5-55.3-175.1-175.1v0C624.4,508.4,631.7,444,673.2,389.8z
	 M856.3,721.8c33.1-25.9,75-66.2,120.3-111.1c24.9,24.8,53.3,53.2,89.3,90c10.7,10.9,27.6,19.6,48,25.3c-83.9,2.6-183.2,2.4-263-0.5
	C852.8,724.4,854.6,723.2,856.3,721.8z M1073,693.7c-36-36.7-64.4-65.2-89.3-90c9-8.9,18-17.9,27.2-27.1
	c70.7-70.4,143.8-143.2,205.6-189.9c36.3-27.4,69.4-19.3,82.6-9.8c33.7,34.4,57.4,82.6,59.3,147.6c0.6,19.3,0.3,188.6-178.9,198.6
	c-22.1,0.8-43.6-1.7-62.1-6.7c-0.1,0-0.3-0.1-0.4-0.1C1098.1,711.2,1082.5,703.4,1073,693.7z M1210.4,378.8
	c-62.3,47.1-135.7,120.1-206.6,190.8c-9.2,9.1-18.3,18.2-27.2,27.1c-4.8-4.7-9.4-9.4-14-13.9c-51.3-51-91.8-91.3-168.7-173.4
	c-38.7-41.5-71.2-47.3-91.6-44.8c-2.6,0.3-5.2,0.8-7.6,1.4c35.1-33.1,82.2-53.4,137.9-59.1c26.9-2.8,64.6-3.6,104.7-3.6
	c35.1,0,72,0.6,105.1,1.2c29.8,0.5,58,1,79.5,0.9c0.2,0,0.5,0,0.7,0c48.1,0,108.6,15.8,156.3,53.5
	C1259.5,356.1,1234.8,360.4,1210.4,378.8z M1122.4,295.4c-0.2,0-0.4,0-0.5,0c-21.3,0.1-49.5-0.4-79.3-0.9
	c-64.9-1.1-144.4-2.5-196.6,1.2c46.2-14.5,93-27.3,139.8-38.4c26.2-6.1,55-11.7,82.3-16.5c37.8,12.5,70.6,27.9,95.8,41.5
	c19.1,10.3,35.5,20.5,48.7,29.2C1171.6,297.1,1136.1,295.4,1122.4,295.4z M922.1,218c12.1-0.1,24.3-0.2,36.7-0.2
	c31.2,2.7,61,8.7,88.5,16.6c-21.6,4-43.5,8.4-63.8,13.2c-67.4,15.9-134.7,35.5-200.1,58.3c-0.1,0-0.2,0.1-0.4,0.2
	c-20.4,5.7-39.2,13.6-56.4,23.7c4-3.7,8.1-7.5,12.5-11.4C776.7,285.4,838.8,241.5,922.1,218z M792.3,811.1
	c-136.4-6.2-359.2-87.6-376.6-279.2v0c-5.9-64.9,17.5-131,65.9-186c65.6-74.7,170.1-120.2,286.7-124.7c32.3-1.3,74.2-2.2,120-2.7
	c-69.7,25.1-122.5,63.2-156,92.6c-41.3,36.2-62.5,66.6-64,68.8c-0.5,0.6-1,1.2-1.4,1.8c-2,2.1-3.7,4.3-4.9,6.5
	c-40.6,55.8-47.7,121-41.2,160.6c9.6,59,39,108.1,84.9,141.8c31.4,23.1,70.9,38.7,107.8,42.9c8.1,4.2,32.5,16,65.3,26.4
	c14.5,4.6,116.3,32.4,198,46c19.1,3.2,36.3,5.7,51.7,7.7C1018,815.5,878.9,815.1,792.3,811.1z M1235.5,810.7
	c-1.7,0.1-3.5,0.1-5.3,0.2c-14.9,0.4-62.9,0-151.6-14.8C997.4,782.5,896.4,755,882,750.4c-16-5.1-30-10.6-41-15.3
	c44.6,1.8,96,2.7,147.7,2.7c50,0,100.4-0.8,145.2-2.5c38.9,18,125.4,55.7,185.6,65.1C1292.9,805.9,1264.9,809.4,1235.5,810.7z
	 M1582.7,525.8c-3.1,128.1-91.6,226.7-229.7,266.4c-46.2,5.2-143-33.9-196.8-57.7c8.2-0.4,16.1-0.8,23.7-1.2
	c36.4-2,68.4-10.7,95.2-25.9c23.5-13.3,43.1-31.6,58.2-54.4c33.5-50.3,35.6-106.7,34.9-128.6c-1.2-41.4-10.9-78.5-28.7-110.3
	c-15.5-27.8-37.2-51.5-64.5-70.6c-6.4-4.5-12.9-8.5-19.3-12.2c-0.3-0.5-0.7-1-1.2-1.5c-1.3-1.1-33-27.6-85.7-56.1
	c-21.8-11.8-49.1-24.8-80.4-36.3c47.6-7.9,87.3-12.9,96.3-13.7c35.7-3.1,64-1.2,70.5-0.6c55.9,7.7,129.6,29.1,194.3,71.1
	C1511.9,334.5,1585.6,407.5,1582.7,525.8z"/>
</svg>
