<?xml version="1.0" encoding="utf-8"?>
<!-- Generator: Adobe Illustrator 28.1.0, SVG Export Plug-In . SVG Version: 6.00 Build 0)  -->
<svg version="1.1" id="Layer_1" xmlns="http://www.w3.org/2000/svg" xmlns:xlink="http://www.w3.org/1999/xlink" x="0px" y="0px"
	 viewBox="0 0 1920 1080" style="enable-background:new 0 0 1920 1080;" xml:space="preserve">
<style type="text/css">
	.st0{fill:#636466;}
	.st1{fill:#C7C8CA;}
</style>
<g id="Background">
	<path class="st0" d="M1409,789.6l-14.2-19.7c-7-9.7-20.3-12.2-30.3-5.7l-49.6,33.2c-41.9,28-90.7,44.1-141.1,46.4
		c-21.3,1-38.6,1.4-38.8,0.2c-0.7-3,0-58,0-58h88.7l-4.5-17.3c-1.7-6.3-7.4-10.7-13.9-10.7H785.7l-283.4-54.8l0,0l2.1-9.8l-0.5-0.1
		l1.8-11.6L812.3,735L771,701.7l-257.3-51.3l6-40.7l-119.8-23.2l31.5-155.2l0,0L508,440v11c0,0,48,7.3,52-9.9S580,381,531,306
		c-48.8-74.7-135-176-36-159s210.4,7,243.2-9S855,30,855,30l29-30L437-6l-551,420l114,7l336.4-227.6c19.9-13.4,46.6-10.2,62.7,7.5
		l26.7,29.3c28.8,31.7,43.1,74.1,39.2,116.8l0,0c0,0-189-29-238,74c-0.7,1.5-1.4,3-1.9,4.4c-41.3,73.5-77.6,176.2-89.3,210.6
		c-61-19-142.7-46.4-143.8-46.8l-7.9,23.7c6,2,146.9,49.3,195.8,62.2c43.7,11.6,134.9,37,152.8,41.9l-10.7,48.9l17.2,2.9l0,0
		L275,758l-10.9,52.8l228.9,28.5l6.9-43.1l-1.4,9L693,835c0,0,472,52.7,470.7,54.7s-3.9,32.7-3.9,32.7l67.9,8.5L-47,772l21.3,227.7
		c0,0,308,29.3,309.3,22.7c1.3-6.7,12-70.6,12-70.6L1281,1080l14.7-140.7l-64.7-8.1l8-34.2c0,0,25.3,0,42.7,4
		c17.3,4,34.7,12.7,34.7,12.7s70-30,68.7-32S1409,789.7,1409,789.6L1409,789.6z"/>
	<g>
		<rect x="960" y="772" class="st1" width="107" height="72"/>
		<rect x="1118" y="784.3" class="st1" width="152" height="31.7"/>
		<rect x="771" y="784.3" class="st1" width="158" height="23.7"/>
		
			<rect x="1288" y="753.9" transform="matrix(0.8222 -0.5691 0.5691 0.8222 -203.6976 891.5911)" class="st1" width="75" height="36"/>
		
			<rect x="537.5" y="549.9" transform="matrix(0.2084 -0.978 0.978 0.2084 -83.2341 1024.8688)" class="st1" width="108" height="28"/>
	</g>
</g>
</svg>
