<?xml version="1.0" encoding="UTF-8"?>
<svg id="EXAMPLE_-_Pit_Road" data-name="EXAMPLE - Pit Road" xmlns="http://www.w3.org/2000/svg" viewBox="0 0 1920 1080">
  <defs>
    <style>
      .cls-1 {
        fill: #d82520;
      }

      .cls-2 {
        fill: #0089ba;
      }
    </style>
  </defs>
  <g id="mergeline">
    <path class="cls-2" d="M862.17,677.68c-.44,0-.88,0-1.32,0-1.38-.02-2.49-1.15-2.47-2.53s1.11-2.47,2.53-2.47c1.9.02,3.83,0,5.74-.07l9.13-.33c1.4-.04,2.54,1.03,2.59,2.41.05,1.38-1.03,2.54-2.41,2.59l-9.13.33c-1.55.06-3.12.08-4.66.08ZM890.86,676.74c-1.34,0-2.45-1.06-2.5-2.41-.05-1.38,1.03-2.54,2.41-2.59l14.99-.53c1.39-.06,2.54,1.03,2.59,2.41.05,1.38-1.03,2.54-2.41,2.59l-14.99.53s-.06,0-.09,0ZM845.93,676.65c-.11,0-.21,0-.32-.02-5.05-.65-10.11-1.6-15.02-2.84-1.34-.34-2.15-1.7-1.81-3.04.34-1.34,1.7-2.15,3.03-1.81,4.72,1.19,9.58,2.11,14.44,2.73,1.37.17,2.34,1.43,2.16,2.8-.16,1.26-1.24,2.18-2.48,2.18ZM920.84,675.68c-1.34,0-2.45-1.06-2.5-2.41-.05-1.38,1.03-2.54,2.41-2.59l14.99-.53c1.38-.04,2.54,1.03,2.59,2.41.05,1.38-1.03,2.54-2.41,2.59l-14.99.53s-.06,0-.09,0ZM816.9,669.34c-.3,0-.6-.05-.9-.17-4.76-1.84-9.44-3.98-13.91-6.37-1.22-.65-1.68-2.17-1.02-3.38.65-1.22,2.17-1.68,3.38-1.02,4.29,2.3,8.78,4.35,13.35,6.11,1.29.5,1.93,1.94,1.43,3.23-.38.99-1.33,1.6-2.33,1.6ZM790.53,655.2c-.5,0-1.01-.15-1.45-.46l-.93-.67c-3.96-2.87-7.64-5.89-10.95-9-1.01-.94-1.06-2.53-.11-3.53.94-1.01,2.53-1.06,3.53-.12,3.16,2.96,6.68,5.85,10.47,8.6l.9.64c1.13.8,1.39,2.36.59,3.49-.49.69-1.26,1.05-2.04,1.05ZM768.85,634.65c-.76,0-1.5-.34-1.99-.99-3.17-4.18-5.9-8.61-8.11-13.17-.6-1.24-.08-2.74,1.16-3.34,1.24-.6,2.74-.08,3.34,1.16,2.06,4.26,4.62,8.41,7.59,12.33.83,1.1.62,2.67-.48,3.5-.45.34-.98.51-1.51.51ZM755.91,607.82c-1.12,0-2.14-.76-2.42-1.9-1.21-4.89-1.95-10.04-2.21-15.3-.07-1.38,1-2.55,2.38-2.62,1.38-.07,2.55,1,2.62,2.38.24,4.94.94,9.76,2.07,14.34.33,1.34-.49,2.7-1.83,3.03-.2.05-.4.07-.6.07ZM754.3,578.03c-.09,0-.19,0-.29-.02-1.37-.16-2.36-1.39-2.2-2.77.55-4.85,1.47-9.92,2.74-15.06.33-1.34,1.69-2.16,3.03-1.83,1.34.33,2.16,1.69,1.83,3.03-1.22,4.93-2.1,9.79-2.63,14.43-.15,1.28-1.23,2.22-2.48,2.22ZM761.32,548.93c-.28,0-.56-.05-.84-.15-1.3-.46-1.98-1.89-1.52-3.19.33-.93.67-1.87,1.03-2.81.48-1.29,1.92-1.95,3.22-1.46,1.29.48,1.95,1.93,1.46,3.22-.34.91-.67,1.82-1,2.73-.36,1.02-1.33,1.66-2.35,1.66Z"/>
    <rect class="cls-2" x="933.33" y="656.39" width="5" height="32.5" transform="translate(-23.31 33.68) rotate(-2.04)"/>
  </g>
  <g id="pitroad">
    <path class="cls-1" d="M942.78,673.28c-1.38,0-2.5-1.12-2.5-2.5,0-.25.08-2.4,2.7-2.51.88-.04,3.64-.16,8.25-.37,1.39-.07,2.55,1,2.61,2.38.06,1.38-1,2.55-2.38,2.61-4.62.22-7.39.34-8.27.38h-.28s-.09.02-.14.02ZM966.33,672.16c-1.32,0-2.43-1.04-2.5-2.38-.07-1.38.99-2.55,2.37-2.62,4.39-.22,9.38-.47,14.98-.77,1.36-.06,2.55.99,2.63,2.37.07,1.38-.99,2.55-2.37,2.63-5.6.29-10.6.55-14.99.77-.04,0-.08,0-.13,0ZM996.29,670.61c-1.32,0-2.42-1.03-2.49-2.37-.07-1.38.98-2.56,2.36-2.63,4.69-.25,9.68-.53,14.97-.82,1.39-.09,2.56.98,2.63,2.36.08,1.38-.98,2.56-2.36,2.63-5.3.29-10.29.57-14.98.82-.05,0-.09,0-.14,0ZM1026.24,668.94c-1.32,0-2.42-1.03-2.49-2.36-.08-1.38.98-2.56,2.35-2.64l9.71-.56c1.68-.1,3.39-.26,5.07-.47,1.37-.17,2.62.79,2.8,2.16.18,1.37-.79,2.62-2.16,2.8-1.79.23-3.62.4-5.42.51l-9.72.56s-.1,0-.14,0ZM1055.76,664.45c-1.03,0-2-.65-2.36-1.68-.46-1.3.23-2.73,1.54-3.18,4.49-1.57,8.91-3.62,13.13-6.1,1.19-.7,2.72-.3,3.42.89.7,1.19.3,2.72-.89,3.42-4.5,2.64-9.22,4.83-14.02,6.51-.27.09-.55.14-.82.14ZM1081.52,649.44c-.71,0-1.41-.3-1.9-.88-.9-1.05-.77-2.63.28-3.52,3.62-3.09,7.09-6.56,10.32-10.33.9-1.05,2.48-1.17,3.53-.27s1.17,2.48.27,3.53c-3.4,3.96-7.06,7.62-10.87,10.88-.47.4-1.05.6-1.62.6ZM1101.04,626.79c-.46,0-.93-.13-1.35-.39-1.16-.75-1.5-2.29-.76-3.45,2.61-4.07,5-8.4,7.1-12.84.59-1.25,2.08-1.79,3.33-1.19,1.25.59,1.78,2.08,1.19,3.33-2.19,4.64-4.68,9.15-7.41,13.41-.48.75-1.28,1.15-2.11,1.15ZM1113.83,599.73c-.26,0-.52-.04-.78-.12-1.31-.43-2.03-1.84-1.6-3.15,1.53-4.69,2.75-9.47,3.63-14.21.25-1.36,1.56-2.25,2.92-2,1.36.25,2.25,1.56,2,2.92-.92,4.95-2.2,9.94-3.79,14.84-.34,1.06-1.32,1.73-2.38,1.73ZM1119.24,570.31s-.07,0-.1,0c-1.38-.06-2.45-1.22-2.4-2.6.05-1.22.07-2.46.07-3.66,0-3.72-.23-7.38-.69-10.88-.18-1.37.78-2.62,2.15-2.8,1.38-.18,2.62.78,2.8,2.15.49,3.72.74,7.6.74,11.53,0,1.28-.03,2.58-.08,3.87-.05,1.35-1.16,2.4-2.5,2.4ZM1115.15,540.77c-1.03,0-1.99-.64-2.36-1.66-.25-.7-.51-1.39-.78-2.07-1.5-3.74-3.36-7.41-5.53-10.91-.73-1.17-.37-2.71.81-3.44,1.17-.73,2.71-.37,3.44.81,2.32,3.74,4.32,7.68,5.92,11.69.3.74.58,1.49.85,2.25.46,1.3-.22,2.73-1.52,3.19-.28.1-.56.15-.84.15ZM779.31,525.72c-.61,0-1.22-.22-1.7-.67-1.01-.94-1.07-2.52-.13-3.53,3.67-3.96,7.32-7.4,11.16-10.52,1.07-.87,2.65-.71,3.52.36.87,1.07.71,2.65-.36,3.52-3.65,2.97-7.13,6.25-10.64,10.04-.49.53-1.16.8-1.83.8ZM1099.54,515.4c-.68,0-1.35-.27-1.85-.81-3.17-3.46-6.76-6.81-10.69-9.95-1.08-.86-1.25-2.44-.39-3.51.86-1.08,2.44-1.25,3.51-.39,4.12,3.3,7.91,6.83,11.25,10.48.93,1.02.86,2.6-.16,3.53-.48.44-1.08.66-1.69.66ZM802.5,506.89c-.85,0-1.68-.44-2.15-1.22-.71-1.19-.32-2.72.87-3.43,4.17-2.49,8.59-4.79,13.53-7.05,1.25-.57,2.74-.02,3.31,1.23.57,1.26.02,2.74-1.23,3.31-4.77,2.18-9.04,4.4-13.05,6.8-.4.24-.84.35-1.28.35ZM1076.27,496.59c-.45,0-.9-.12-1.3-.37-4.06-2.48-8.43-4.84-12.98-7-1.25-.59-1.78-2.08-1.19-3.33.59-1.25,2.08-1.78,3.33-1.19,4.71,2.23,9.23,4.67,13.44,7.25,1.18.72,1.55,2.26.83,3.44-.47.77-1.29,1.2-2.13,1.2ZM829.66,494.29c-1.02,0-1.97-.63-2.35-1.64-.48-1.3.19-2.73,1.48-3.21,4.44-1.63,9.27-3.26,14.34-4.82,1.32-.41,2.72.33,3.13,1.65s-.33,2.72-1.65,3.13c-4.99,1.54-9.73,3.13-14.09,4.74-.28.1-.58.15-.86.15ZM858.42,485.83c-1.18,0-2.23-.84-2.45-2.04-.26-1.36.64-2.66,1.99-2.92,4.29-.81,9.33-1.59,14.99-2.31,1.37-.17,2.62.79,2.8,2.16.18,1.37-.79,2.62-2.16,2.8-5.56.72-10.51,1.48-14.7,2.27-.16.03-.31.04-.47.04ZM1049.21,483.67c-.29,0-.58-.05-.86-.15-6.45-2.36-11.61-3.77-14.11-4.41-1.34-.34-2.15-1.7-1.81-3.04s1.7-2.15,3.04-1.81c2.59.66,7.93,2.12,14.59,4.56,1.3.47,1.96,1.91,1.49,3.21-.37,1.01-1.33,1.64-2.35,1.64ZM888.19,481.87c-1.27,0-2.36-.96-2.49-2.26-.13-1.37.87-2.6,2.24-2.73,4.7-.46,9.75-.9,15.01-1.31,1.38-.11,2.58.92,2.69,2.3.11,1.38-.92,2.58-2.3,2.69-5.22.41-10.24.85-14.91,1.31-.08,0-.17.01-.25.01ZM918.12,479.5c-1.31,0-2.41-1.02-2.49-2.34-.09-1.38.96-2.57,2.34-2.65,4.81-.31,9.87-.6,15.02-.86,1.39-.07,2.55.99,2.63,2.37.07,1.38-.99,2.55-2.37,2.63-5.13.27-10.16.55-14.96.86-.05,0-.11,0-.16,0ZM948.11,477.94c-1.33,0-2.44-1.05-2.5-2.4-.06-1.38,1.02-2.54,2.39-2.6,4.95-.2,10.01-.39,15.03-.55.03,0,.05,0,.08,0,1.34,0,2.45,1.07,2.5,2.42.04,1.38-1.04,2.53-2.42,2.58-5,.16-10.05.34-14.98.55-.04,0-.07,0-.11,0ZM978.12,476.99c-1.36,0-2.47-1.08-2.5-2.44-.03-1.38,1.06-2.52,2.44-2.56,5.14-.11,10.2-.2,15.04-.26h.03c1.37,0,2.48,1.1,2.5,2.47.02,1.38-1.09,2.51-2.47,2.53-4.83.06-9.87.14-14.99.26-.02,0-.04,0-.06,0ZM1023.16,476.89s-.06,0-.08,0c-4.07-.14-9.09-.21-14.93-.23-1.38,0-2.5-1.13-2.49-2.51,0-1.38,1.12-2.49,2.5-2.49h0c5.88.02,10.96.1,15.08.23,1.38.05,2.46,1.2,2.42,2.58-.04,1.35-1.16,2.42-2.5,2.42Z"/>
    <polygon class="cls-1" points="789.95 524.4 762.33 543.67 776.62 513.18 789.95 524.4"/>
  </g>
</svg>