<svg id="Background_Details" data-name="Background Details" xmlns="http://www.w3.org/2000/svg" viewBox="0 0 1920 1080"><defs><style>.cls-1{fill:none;}.cls-2{fill:#636466;}.cls-3{fill:#c7c8ca;}</style></defs><title>background</title><g id="Pavement"><path class="cls-1" d="M0,905l71.45,60.63L118.93,1002l116.43,78h-8.45l-101.52-68S102.64,998.6,98,993.34c-4.66-3.71-7.84-8.88-13.53-7.15-8,2.67-11.64,12.32-13.45,15.08S16.71,1080,16.71,1080h-6l52.36-74.64,10.09-15.64s4.92-10.22-2.71-18.8c-2.9-2.27-70.46-59-70.46-59Z"/><path class="cls-2" d="M1762.11,865.6l-10.45,18.94s-22.3,38.08-45.58,58.6c-36.9,44.2-71.42,54.46-91,61.76-26.24,8.68-81.25,9.46-87.55,10.09s-12,9-14.81,14.33c-9.29,8.19-27.56,9.29-27.56,9.29l-72.45-2.36s-92-2.83-100.49-3-6.3-4.1-6.62-4.73-11.34-3.62-15.43-2c-3.94,7.56-5.2,6-9.45,6s-6.14-6.14-6.14-6.14l-5.36-.47-.16,4.25c-.15,4.72-2.52,4.09-2.52,4.09s-76.7-.63-88.83-.63-8.66-11.81-8.66-11.81l4.25-32.92h-8.19s-4.57,36.7-8.66,46.47c-1.89,6.61-6.3,2.67-6.3,2.67s-7.09-6.93-9.29-8.82c-1-.85-3.53-1.81-6-2.59V996.85H382.5v15.64l-5.5,0c-7.71,0-6.3-4.57-6.3-4.57l-1.41-24.1-7.56-.47s1.73,17,2.36,21.58-.95,6-6.3,7.09c-37.33-.32-57.49-6.62-71.82-9.45C246,992.15,199,949,199,949s-41.43-46-49.3-52.93c-22.68-20.79-34.81-49.45-43.63-72.61s-14.65-59.37-14.65-59.37-1.26-39.38-1.26-44.42c.32-65.52,5.67-82.22,5.67-82.22l-1.89-6L141.38,543l17-27.4,23.78-27.41,25.2-23.94,9.14-5,48.67-53.55L329.75,327l23.31,15.44,3.89-4.94s-12.15-13.07-17.05-18.58-.62-12.05-.62-12.05l20.12-31.25,49.13-68.84,2,1.33,6.84-7.15,17.57-.72s4.08-4.59,6.33-6.53,3.68-1.33,3.68-1.33l24.81-30.84s-25.83-19.3-27.57-20.94-.82-3.16-.82-3.16A116.41,116.41,0,0,1,451.62,125c4.8-4.8,11.34-2.25,11.34-2.25l8.27,6.23-7.35,8.27,3.06,3.37s5.21-6.33,6.23-7.45a3.47,3.47,0,0,1,1.94-1.23l6.34,7.66,5.1-11.85s-11.95-7.86-15.83-11c-3.47-3.37,1.23-7.35,1.23-7.35l19.91-24.31s41.77-52,45.55-53.92,9.19.1,9.7,2.45-4,8.68-4,8.68l3.37,2.56a90.87,90.87,0,0,0,6.74-8.38,24.88,24.88,0,0,1,5.21-5.72s4.49-2.25,6.74-3.68A10.71,10.71,0,0,0,568.66,23l3.17-23H535l-1.1,1.32-4.29-3.55L300.91,273.53,198,396.63,103.21,508.36-2.66,632.12l5.32,4.55,80.44-94a4.13,4.13,0,0,0,1,1c4.87-5.39,22.49,1.84,22.62,8.81,1.06,4.87-6.57,14.34-6.57,14.34S73.86,605,68.07,615.49a55.88,55.88,0,0,0-6.57,20.12l-.27,44.59s1.45,46.16,3.29,77.86,2.9,37.23,4.47,45.38c2.11,8.16.14,9.73.14,9.73S56.89,826.72,56.5,827.91c5.26,3.41,4.47,6.44,4.47,6.44s-.26,5.13-.52,11.57c1.57,8.42,8.15,8.29,8.15,8.29s4.47-.66,4.47,1.45-2.37,2.23-2.37,2.23L62,859.21l1.32,6.58,8.42-1.06s-1.19,4.87-1.06,7c.4,13.81,21,30.78,21,30.78l9.34-7.49L115,911l-6,6.45L125.68,936l7.24-7.63s19.07,17.76,23.67,22.23S214.33,1003,240,1019.54c9.08,6.45,15.13,12.24,33.41,18.55,11.58,3.81,49.59,6.05,60.24,5.52s15.65-9.34,18.28-13a20.83,20.83,0,0,1,8.95,14.08l1.32,35.33h10.28s.22-38.12.22-42.72,3.71-4,3.71-4l-.12,46.76h6.06v-39.69a6.16,6.16,0,0,1,.17-1.53v5.07h2l.09,36.15h8.3l.71-36.15h7.94l-.91,36.15h10l1.11-36.15h8l.54,36.51,97.54-.36-1.11-31.5-42.18-1.59.1-3.06h61.22L532.91,1080h455v-22.77c0-6,9.17-7.55,9.17-7.55l31.3.8,2.4-6.63h104.13v-8.46l6.34,0s4.11,3.75,5.56,5,3.86,3.31-1,6.67c-3.76,4.78-30.14,9.27-30.14,9.27L1038.84,1080h35.66c11.88,0,66.23-16,73.19-20.83s6.09,1.59,6.09,1.59l1.88,19.24s1.09,0,6.82.36c-4.74-24.59,3.15-30.06,7.3-36.38s8.09-6.11,8.09-6.11,5.13,0,13.61.79,7.5,4.73,11.64,13.61-6.51,27.73-6.51,27.73h52.12s17.79-17.13,22.28-21.14c3.39-2.6,9.69-16.69,11.89-18.74s7-2.84,11.82-3.07,5.43.94,6.53,3.7-.78,12.68-.78,12.68L1290.15,1080H1296s7.56-13.42,9.13-16.33,4.1.55,4.1.55l9.53,15.78h6s-8.19-13.66-13.07-21.29c-6.62-7.79-6.93-21.19-6.93-21.19s64.1.87,69.3,1.5,7.32,8.34,7.48,11.34-8.43,7.64-8.43,7.64l-23.86,22,7.56.36s17.11-12.56,20.32-15.28c2.52-2.67,5-2.67,6.14-1.81s2.69,16.73,2.69,16.73h6.68s-4-25.53-5-31.54,5.68-8,5.68-8,24.89,0,31.07.5,7.35,6.85,7.35,6.85l1.84,32.21h4.18s-1.51-27-.84-31.71,8.52-6.68,11-7.18,40.76,1.67,46.11,1.5,66.49-10.19,74.34-11.19,6.18-6.18,6.52-9c-.51-6.18,6.32-6.45,6.32-6.45s27-4.54,46.36-10.26,48.54-27,48.54-27S1699,957.15,1702.73,952s18.74-16.77,20.51-20.32,5.53-7.1,10.86-14.6,27.81-45.58,29.39-49.52S1762.11,865.6,1762.11,865.6ZM462.86,164.7l-13.63,14.87-9-6.6,13.11-15.84ZM437.17,143l12.06,9.68-12.94,17.6L423.62,160ZM146,524.44c-3,4.8-5.8,2.78-5.8,2.78s-2-2.52-3.79-5.05,2.27-3,2.27-3L155,509.55S149,519.65,146,524.44Zm147-175L290,347l9-12.52s1.32-2.47,5.27-1.57ZM313.24,285s8.82-10.52,11.71-14.2,5.39-1.71,5.39-1.71l6.58,5.92,2-2.37s-6.44-6.18-8.81-10.52c-1.42-2.6-.57-8.69.34-13.16l39.15-47.22,1.48.91s7.55-4.9,12.46-8.06a9.91,9.91,0,0,1,9.7-.52l12.05,9.6L384.8,230.89s-6.45-.65-12-1.84c-10.66-2.63-14.73,2.63-14.73,2.63l-9.47,10.79,6.05,4.73s4.07-5.39,5.78-7.76c6.18-7.62,15.13-4.34,17.1-3s-3,9.6-3,9.6-39.33,55.37-42.62,59.32-5.39,2.1-5.39,2.1-10.39-9.33-12.76-11.7C309.56,291.53,313.24,285,313.24,285Zm-66.51,64.33L287,301.12c4.41-2,9.3-.38,9.3-.38l15.65,7.49,4.87,4.61-9.47,15.25s-4.08-.26-9.21-.39c-18,1.45-25.52,13.42-27.23,16.7s-8.68,10.92-8.68,10.92l4.08,2.76a27.88,27.88,0,0,1,3.42-5.26c3.29-4.86,9.73-4.08,9.73-4.08l-9.07,11.58s-9.47,3.81-15.52,8.29c-7,2.36-10.13-2.11-10.79-5.53C243.55,360.43,245.73,352.64,246.73,349.28ZM108.54,512.9l94.85-111.76,11.75-14.06,8,5.2s2.5-2.1,8.28-8.94,13.68-9.08,17.36-7.89.53,12.23.53,12.23L238.4,413.19l-36,46.43s-25.52,25.78-31.31,31c-9.21,10-32.09,22.76-37.35,25.52s-17.89,8.29-24.73,7.37c-2.14-.38-4-3.64-4.82-5.52Zm-2.66,29.71s-6.31-5.7,0-10.61a75.32,75.32,0,0,1,8.07-3.52s9.22-3,16.28,2.4a12.51,12.51,0,0,1,2.65,13.88c-2.14,5.42-4.92,10.09-11.73,7.57S105.88,542.61,105.88,542.61ZM90.23,842.52c-7.19-3.66-8.32-8.45-10.47-16.91C71.18,802.52,67.27,747.39,67,741.84c-2.15-34.2-2-84.79-2-84.79s.76-23.34.76-23.85,2.52-11.35,6.31-17.54S104.62,568,104.62,568s4.67-8,11.61-8.2l2.9,9.46-28.39,57s-7.19,10.6-7.7,19.18c-1.39,9.72-3.91,53.88-3.91,53.88s-1.26,39.11-.88,45.29,3.15,40,11,63.72C90,811.1,98.65,836,98.65,836l-2.74,4.54S94.52,844.79,90.23,842.52ZM333.8,1039.28c-13.91,1-53.67-3.15-61.06-5.62-18.85-6.41-28.91-16.47-33.45-19.73s-57.81-45.77-57.81-45.77l-38.37-36,9-9.37s-18.35-11.94-20.42-12.73a4.18,4.18,0,0,1-2-5.72,13.88,13.88,0,0,0,1.38-2.07L127.82,901l-8.68,7.3s-14-13.81-20.22-30c-2.27-4.64-11-20,1.57-31.37a13.32,13.32,0,0,0,2-1.09s13.61,35.22,34.23,51.89c5.62,6.51,45.57,49.72,45.57,49.72s36.31,34.63,63.34,48.54c5,2.86,25.05,20.52,84.14,26.24,2.57,0,15.59,4.73,15.59,4.73S343.66,1038.59,333.8,1039.28Zm137.06,7.16-43.46-1v-1.64h43.39Z"/><path class="cls-1" d="M440.61,792.84l-88.49-70.18-11.64-9.55s-4.49-5.56-.54-10.68S348.7,691,348.7,691s3.74-4.8,9.08-.42,35.69,26.71,35.69,26.71l67.94,50.53,13.36,9.93a68.41,68.41,0,0,0-11.65,28.32c-2.14.85-3.52,2.13-6.2.1S440.61,792.84,440.61,792.84Z"/><path class="cls-1" d="M752.06,640.2l70.1,2.35,28.3.87s3,.61,2.87,3.05-.09,6.36-.09,6.36a2.9,2.9,0,0,1-3.13,3c-3.31.09-97.79-2.87-97.79-2.87s-5.57-.26-6.1-4.09a17.33,17.33,0,0,1,0-5.92S747.18,640.2,752.06,640.2Z"/><path class="cls-2" d="M1700.41,636.48c-2.21-2.69-29.74-35.69-77.43-63.42-3.55-2.31-75.23-47-75.23-47l-67.93-42.22-81-50.18L1210.84,317,991.75,181.84,842,89S816,71,775,61.49c-5.07-1.1-27-8.69-73.74-4.79-3.28.38-42.81,4.75-64.5,16.13-10.2,4.62-44.69,19.56-76.22,51.56-3.68,3.8-21.47,23.43-21.47,23.43L359.85,363.14,210.36,544.87s-29.6,36.91-38.84,53.85c1.12-.28,1.54.56.7,2.24s-6.09,14.71-7.21,20.87a1.75,1.75,0,0,1-1.16,2c-1.4.54-4.07,2.12-4.67-.31-.61,1.64-3.59,9-3.59,9l6.86-4.25s1.34-.36.79,1.64-10.46,41.27-10.46,41.27-4.5,18.45-5.07,35.38-.57,34.8,2.39,50.58c2.1,13.48,8.89,42.27,16.83,57,1.15,2.87,9.56,21.71,17.21,32.61,0,1.81-.09,12.62-.09,12.62l4.58,6.21-.95-13.86S200.4,870.26,212.83,883c2.58,2.77,31.07,33.08,64.64,48.29,8.7,4.78,68,28.11,73.34,29.54,2.58.29,28.68.77,28.68.77l0-.14c10.09.08,36.36-.28,79.39-7.1,7.92-1.44,11.31-2.88,13.89-6.89a33,33,0,0,0,3.39-6.48,73.71,73.71,0,0,0-1.5-8.34l30.31-.16s-17.37-5.65-21.55-20.93c1.46-8.58,3.14-10,7.95-11.51s13.6-3.56,13.6-3.56l28.88,12.35,9.63-4L558.36,931l598.93,2.52-5.86-2.31.63-6.48,19-.21-.63-50-83.08-2.3s-5.24-4.19-6.07-9.21-.63-11.51,8.16-17.79,16.32-10.56,14.37-15.7a29.62,29.62,0,0,0-4.25-7.89s-2.84-2.83,3.9-8.59c19-17.44,57-67.39,57-67.39s6.71-8,19.51-2.37c6.08,4.43,28.07,22,28.07,22l2-2.17,12.69,10.42s3.71,3.2,3,13.42c-3.2.93-17.52,4.26-22.27,18.94-3.89,15.25-3.6,20.72-3.6,20.72s-2,1.59-2.16,6-.29,20.58-.29,20.58,1.16,11.8,5.33,17.56c1.3,3.6,8.49,25.62,14.11,32.24,1.72,3,9.64,17,9.64,17s2.45,11.51.29,14.68a66.66,66.66,0,0,0-3.6,5.9l264.08,24,66,0s21.16-1.6,29.77-4.08c-3.65-1.9-94.13-48.6-94.13-48.6l-11,1.17,14.6,4.52,58.23,29.77L1507,958.77l-240.22-23.21s-4.09-.44-4.38-.87-18.74-11.61-18.74-11.61L1225.82,891s-18.56-35.22-11.88-62.91c.64-5.09,1.49-12.84,1.49-12.84l1.16-.21s-.42-2.55,1.06-3.18,2.23-2.13,2.87-4.57a22.41,22.41,0,0,1,4.45-3.5s2-.42,3-.74a7.33,7.33,0,0,0,2.87-2.55c.53-.84,2.23-.53,2.23-.53l1.38-1.48s59.2-16.66,75.54-35.33c2,.21,3.39-1.81,3.39-1.81a3.76,3.76,0,0,0,1.81.11c.85-.21,5.3-3,11.88.74s11.14,7.22,14.11,16.55a40.4,40.4,0,0,1,.32,12l-4.78,10.29s-6,11.36,1,22.5c1.8,2.33,6.79,10.82,21.64,11.77a1.18,1.18,0,0,0,.64,1l3,.42,2.55,1.49,18.67,2.44,9.34-1,15.27,2.66s10.4.84,16.87-1.38c6.79-.22,26.21-9,26.21-9l4.56-1.17a42.56,42.56,0,0,0,6.47-1.38c1.91-.74,15-2,19.42-1.16l10.61,2,5.41,3.4,15.81,2.75,9.65-.1s16.77,4.14,26.21-15.07c2.23-2.86,4.56-6,4.56-6l39-101.12,1.91-11s3.82-16.76-14.74-27c-4.57-4.46-4.46-4.25-4.46-4.25L1559.6,663l-6.47-1.27-30.34-15.38s-8.81-3-16.66,1.8c-2.44,1.38-6.47,3.29-6.47,3.29s-8.38.63-14.85-2c-6-3.5-11.68-11.88-11.68-11.88l-2.44-12.94s-2.86-10.08-11-15c-3.29-2.13-9-6.16-10-7.54-.53-2.54-5.84-6.58,2-16.12,8.7-7,22-29.39,23.87-32.15s7.33-11.67,7.33-11.67l5-3.29s4.14-5.41,7.22-6.15,5.41-3.82,5.41-3.82l5.41-2.66s6.26-1.91,7.53-1.27,27.18,20.12,27.18,20.12l2.22-2.22,17.63,23.38,11.76,38.27,3.13-.78-12.14-42.45-7.58-8-11.49-14.63,1.56-1.83,85,63.09s21.29,15,34.09,36.31c2.74,4.83,20.11,39.58,20.11,39.58a41.24,41.24,0,0,1,2.09,15,27.74,27.74,0,0,0,5.36,3l.26-6.67-.65-1.43,1.83-.92,3.65,6,29.79.65,4.21,11.24,3.93-.77S1730.54,675.34,1700.41,636.48Zm-405.89-255,15.41,9.69v.68L1325.16,402l.48,3-18.71-11.64s-9.12-4.94-13.77-10ZM907.56,150c1.93,1.37,28,17.4,28,17.4l6,3,3-2.45,151.83,92.75,98,60.31L1245,357.74l-.19,5.84,21.1,15,9.86,8.24,1.13,2,13.86.87-2.75-2,1.37-2,8,5.74,9.74,6.12,19.81,12.72,1.65,8.63-.39.58.87,10.76-1,7.18-1.06,1.36.09,1.16-31.8,46s-2.32,0-6.69-4.46-7.46-4.08-11.44-8.92c-3.88-3.59-24.43-18.33-24.43-18.33S1234,438.28,1226,434.6c-7.56-3.88-12.31-7.47-18.81-9.6-4.07-2.23-21.52-15.61-21.52-15.61l-35.39-23.27-56.82-38.49-73.31-49.47s-9.63-10-14.44-12.14-20-10-26.77-16.17c-2.31-1.54-7.7-4.24-7.7-4.24s-6.35-5.39-9.05-6.35S929,234,929,234s-11.17-9.82-19.26-13.86-31.58-15-31.58-15-7.94-3.86-8.13-5.4c1.54-1.73,9.29-13.3,9.29-13.3l17.4-26.5S905.58,149.53,907.56,150ZM1010,721.45,995.8,711.07s-2.19-2.5,1.07-2.58l20.77.23s3.33-.15,1.82,2.35C1018.32,712.28,1010,721.45,1010,721.45Zm.08,2.81s-7.13-1-11.15-3-10.76-5.91-10.76-5.91l.3-4.55s.46-2.2,3.19-.3Zm1.29-.84,11.52-13.11s.68-1.14,4.32-1.14,9.47.15,9.47.15,2.73,5.23,2.28,7.21a9.94,9.94,0,0,1-5.76,7.58c-2.5.45-6.14.68-6.14.68l-15.77-.3ZM991.79,706.6s-3.11-.08-2.43-3.8l41.69.69,3.64,3.64Zm-36-23.4,2.39-1.93,59,.8.68,2.61ZM362.11,841.58c-4.9-3-31.82-22.8-31.82-22.8L307.1,800.87l-21.51-18.16s-2.45-2.19-.26-5.67a16.62,16.62,0,0,1,4.12-4.77s1-1,5,1.68l53.85,40.32,37.1,27.05a25.24,25.24,0,0,0,4.38,4.51c1.94,1.29,10.57,8,10.82,8.5s2.45,2.58-1.16,3.35-19.83-.77-19.83-.77-4.64-1.29-6.19-4A38.92,38.92,0,0,0,362.11,841.58Zm3.35,14.69s-5.8-.26-12.37-.65c-17.65-3.35-30.4-13.27-37.49-19.71-18.94-16-28.47-39.68-28.47-39.68a27.09,27.09,0,0,1-2.06-5.79c.64-2.19,4.25.9,4.25.9l10.18,8.11,38,29.51s24.86,17.39,28.86,22.54C369.84,855,365.46,856.27,365.46,856.27Zm-68-174.83c1.82,1.42,5.05-2.42,5.05-2.42l4.05-9.3,7.68-14.56,10.51-24.25s18.8-25.27,24.26-31.54,10.71-2,10.71-2l16.37,12.33s10.72,7.28,15.37,8.69.81,5.06.81,5.06l-12.94,17.18s-41,57-46.5,62.66-14.15-.4-14.15-.4l-24.05-18.6s-22.84-18.8-27.69-21.83-3.64-5.46-3.64-5.46,10.51-29.51,18.39-43.86,28.91-39.82,32.55-44.68,9.09,1.22,9.09,1.22l24.87,19-6.67,7.88s-8.7,12.74-13.95,18.19-8.49,14.56-10.71,18.4-7.48,12.73-7.48,12.73S297.9,673,296.49,675.58,295.68,680,297.5,681.44Zm190.73,55.28c-3.1-1.92-31.31-22.22-31.31-22.22L423.27,691l-42.84-31.94s-4.38-4.49-1-9.4,9.72-13.57,9.72-13.57,4.28-5.66,11.43,0c8.55,7.59,36.33,27,36.33,27l47.86,34.29,31.52,22,16,10.58s3.53,2.67.53,4.49-25.64,15.17-25.64,15.17S491.33,738.64,488.23,736.72Zm11.86,17.73c-2,.86-14.64,10.47-21.26,18.49,0,0-5-2.89-10.79-7.05s-20.62-16.14-31-21.91c-5-3.09-38-28-38-28l-32.58-23.93s-8.34-5.45-8.55-9.29a12.84,12.84,0,0,1,2.78-8.34c1.17-1.6,9.29-11.53,9.29-11.53a8.42,8.42,0,0,1,7.91.42c4.16,2.46,50.21,36.86,50.21,36.86L474,734.05l20.4,14.31S500.3,753.07,500.09,754.45ZM271.94,671.89l37,29.58s3.67,5.18,5.28,5.61,8.86,4.86,8.32,8.75-4.54,7-4.54,7a6.49,6.49,0,0,1-6.26,0c-3.24-1.83-44.26-31.3-44.26-31.3l-8.74-6.37s-4.1-2.48-4-6.69,3-9.18,6.48-9.83S267.08,668,271.94,671.89Zm-11,20.62,43.72,31.09s7.45,4.75,6.15,9.28a15.09,15.09,0,0,1-4.32,7s-2.48,2.59-6.8-.22S264.92,715.83,261,713.34s-9.82-5.83-10-10.79a31.81,31.81,0,0,1,1.29-9.72S253.69,687.44,260.93,692.51Zm-2.49,24.72,35.2,23.1s8,5,5.93,8.53-16.08,21.48-16.08,21.48-3.67,5.29-6.37,4.54-4.86-2.81-6.37-6.7c-7.56-12.3-17.16-48.25-17.16-48.25S252.51,713.34,258.44,717.23ZM388.13,838.49l-55-40.71-28.47-21.64-7.34-5.54s-3.48-4.38-1.16-8.12,11.72-14.55,11.72-14.55,3.87-8,12.37-1.68c7.34,5.8,51.14,39.16,51.14,39.16s44.83,34.91,47.54,37,19.71,16.74,21,18,7.09,8,.26,9.92-18.16,5.93-27.31,2.58C397,847.51,388.13,838.49,388.13,838.49Zm30.54-21.63s-29.36-24.66-49.32-38.1c-3.55-2.59-42.8-32.52-42.8-32.52s-9.4-6.91-8.92-10.56,1.71-4.76,1.71-4.76l9-11.59s3.48-4.77,9.15-.9,35.69,28,35.69,28l40.32,32s22.54,18.81,23.57,19.58,7.73,3.61,8.76,5.67,2.45,6.44,6.31,8.11a35.57,35.57,0,0,1,5.54,2.84s3.35,2.57,3,6.31-2.27,16-2.56,19.14c-1.05.58-3.83,1.73-3.83,1.73s-1.92,1-7-2.78C440.35,834.9,418.67,816.86,418.67,816.86ZM457,805.75c-3.09-2.25-15.65-13.27-17.52-14.23a52,52,0,0,1-6.95-4.32c-2.52-1.87-87.75-70.09-87.75-70.09s-5.79-5-6-6.66-1.34-4.82,2-9.07,8.2-10.25,8.2-10.25,2.53-4.48,9.75,1.32l110.58,81.26,5.6,4.28s-9.66,13-11.72,28.41C461.22,806.85,460.06,808,457,805.75Zm23.15-4.47H481a10.79,10.79,0,0,1,1.41-2.82c1.13-.47,2.63-2.82,3.57-4.61s7.24-10.9,8-11.84-.19-1.69-1.22-2c4.32-8,20.39-17.11,20.39-17.11l31-18.79s2.45-1.79,4-.38-.29,4.23-.29,4.23l-12.68,18.7-25.57,33.55s-19.73,26.13-23.21,30.08-5.92,3.57-8.36,2.72a5.84,5.84,0,0,1-3.85-3.57C475.7,818.1,480.12,801.28,480.12,801.28ZM542,728.92l-3.21-1.17-54.91-37.29-57.48-40.17-20.08-15.17s-6-4-4.71-9.83c1.07-1.92,3-4.7,10.15-3.31a55.16,55.16,0,0,0,22.33.32c2.46,2.67,8.66,10.47,28.53,13.46,1.17,1.07,7.69,1.28,7.69,1.28a45.64,45.64,0,0,0,13.14,14.53c8.65,6,41.35,30,41.35,30l22.32,17.52s13.25,8.87,13.79,9.83,3.84,3.85,3.2,5.77C562.58,715.78,542,728.92,542,728.92ZM410.57,478.13c5.4-7.53,25.34-31.55,25.34-31.55l35.83-42.95,34.81-43.46,27.58-32.57L562,296.15l12.52-8.75,4.38,2.24,2.14,2.14,1.62,2.24,3.67,3-5.09,5.6a13.76,13.76,0,0,0-4.17,2.95c-2.14,2.13-23.82,27.58-23.82,27.58s-53.33,59.54-64.73,76c-5.7,7.23-47.63,57.2-47.63,57.2l-17.1,22s-4.17,4.18-7.83,2S408,484.23,410.57,478.13Zm-5.09-1.94a4.79,4.79,0,0,1-6.31.82,28.51,28.51,0,0,1-5.59-5.6c-2.14-3.05,1.12-9.67,1.12-9.67l54.85-67.17,44.88-55.26s35-38,40.1-44.17,5.3-11.2,5.3-11.2c3.56-1,13.84-.51,16-.31s1,3-.4,8.25a27.21,27.21,0,0,1-4.48,9.06l-26.16,31.85-47.42,56.79L438.87,436.5S411.39,471.41,405.48,476.19Zm246.34,46.23s-.63-64.22-.39-68.82S650,408.87,650,408.87s-.63-20.81-.94-27.83a21.65,21.65,0,0,1,2.26-11.3s3.27-7.87,5.46-8.57,2.8,3.27,2.8,3.27l2.5,51.75,2.65,58.53,2.18,49.34s3.35,48.94,3.74,56.35c-.62,8.26-6.7,7.79-6.7,7.79a40.18,40.18,0,0,1-8.11-.47c-3.74-.7-3.51-5.84-3.51-5.84ZM670.22,491l-2.67-54.5-2.25-49.94-.63-37.65,5.27-8.71s2.17-4.29,3.65-4.22,1.47,2.25,1.47,2.25l.93,29.28L684.69,511s4.21,63.85,4.56,70.17c-.28,6.61-5.34,7-5.34,7s-2,.14-3.93.35c-6,.35-5.06-6.53-5.27-6.53s-1.4-34.49-1.4-34.49Zm5.57-170.26-8.53-1.6-.57-1.93,6.94-6.25s3.18-2.85,6-1.37.23,5.91.23,5.91Zm5-25.36a7.71,7.71,0,0,1-3.41,5.23c-3.87,2.39-18.88,14.21-18.88,14.21s-3.52,3.3-6.93,2.73-8.19-1.82-8.19-1.82a15.42,15.42,0,0,1,2.39-2.84c1-.8,6.14-6.26,8.87-8.87l17.17-11.6s5.46-4.89,7.16-4.09S681.13,294.35,680.79,295.38Zm-3.87-12.51c-2.84,1.59-26.38,15.69-26.38,15.69s-10.46,8.76-13.19,12.17c-1.25,1.25-4.43,2.61-5.91.91s-1.36-5.69-1.36-5.69.34-3.3-1.37-4.43-2.27-1.94,1-4.1l36.62-26.6,9.32-7.74s3.87-1.82,4.33,1.14.56,14.67.56,14.67A8,8,0,0,1,676.92,282.87Zm-48.1,9.89s-13.53,8.64-14.32,8.87a27.44,27.44,0,0,1-3,.46s-3.75-6.37-5.69-7.51c0,0,1.26-5.23,4.44-8.07l34.57-30.93,23.54-21.27s5-5.45,8.87-2.72c1,2,1.59,9.77,1.59,9.77l.45,12.51ZM675,220.1c-2.16,2.16-30.7,28.77-30.7,28.77s-5.34,6.25-6.37,7-7.84,5.57-9.1,7.05-28.31,25.58-28.31,25.58-6-6.36-8.3-7.16a10.1,10.1,0,0,1,1.93-6.25c2.28-3.41,5.35-7.74,7.17-8.53s21.94-20.47,21.94-20.47L666,210.32s5.23-5.57,7.62-4.21c1.93,1.82,2.27,6.37,2.27,6.37S677.15,217.94,675,220.1Zm-3.75-20.92c-2.39,2.16-46.74,40.48-46.74,40.48l-30.47,27s-6.94,6.48-8.3,10.12A73.44,73.44,0,0,0,572,271.61a6.07,6.07,0,0,0-1.93-1.36s-.69-1.71,1.82-4.44S581.41,254,581.41,254s13.64-12.51,19.56-17.74,46.73-39.8,46.73-39.8,14.33-14.1,19.45-14.56a4.31,4.31,0,0,1,5,3.53c.45,2.61,1.14,8.64,1.14,8.64A6.41,6.41,0,0,1,671.24,199.18ZM428.45,489.63s18-22.42,20.49-25.51,8.16-8.92,8.16-8.92,28.91-35.71,37.8-46.33,58.74-69.71,58.74-69.71,29.53-31,31.62-32.82c2.85-.75,6.43-4.19,6.43-4.19a74.22,74.22,0,0,1,5.65,7.77c2.52,4.05,4.84,11.2,4.93,14.68-2.41.48-13.91,7.83-17.49,10.24s-25.21,22.9-25.21,22.9l-32.66,38.75L492.61,437,458.5,479.68s-14,18.45-17.29,22.8a5.62,5.62,0,0,1-7.63,1s-3.77-2.89-6.19-5.12C424.78,494.46,428.45,489.63,428.45,489.63ZM446,502.86l22-28.6s25.89-31.59,27.34-32.75a11.71,11.71,0,0,1,3.77-4.35s29.86-35.36,34.3-40.58S550.19,376,550.19,376l16-18c7.93-10.53,23.19-20.1,25.61-21.83s4.73-2.42,8.31-3,4.34,2.32,4.34,2.32a34.82,34.82,0,0,1-.38,7.63c-.68,3.67-5.41,11.69-5.41,11.69l-11.4,14-43.77,52L500.92,472s-38.46,46.19-40.48,48.51c-1.94,2-5.8-.39-7.73-2.23s-6.57-4.83-8.8-8.69C442.17,506.15,446,502.86,446,502.86ZM476.53,523l51.52-61.74,50.79-60.69s5.33-3.49,6.1-4.26,21.91-25.12,21.91-25.12l.3-4.06,1.76-2.07-.07-1.15s7.89-7.74,10.57-27.58c0-6.12-.43-10.36-.43-10.36.74.32,6.64,3.37,7.8,3.27s7.79-2.22,10.74-2.22,16.76.53,24.66,3.27c2.11,1.05,4.11,4.21,1.79,9-4,10.64-25.08,37-32.35,44.78s-39.93,49.2-39.93,49.2l-42.57,51.84-54.36,65.22-39.1,50.05-10.11,11.17s-8.22-7.48-10.11-17.18A72.32,72.32,0,0,1,434.8,582a12.6,12.6,0,0,1,1.27-9.16C440,565.76,476.53,523,476.53,523Zm-9.36,97.68c-6.81.92-14.55-3.28-15.07-4.52,2.29-3.74,11.93-17.7,11.93-17.7l31.65-41.61,68-82,62.59-76,12.81-14.61s5.17-4.7,5.37,4l1.65,14.86a19.78,19.78,0,0,1-5,10.35c-4.5,5.1-51.76,60-51.76,60l-62,76.67L476.68,611a10.78,10.78,0,0,1-2.82,3.07c-1.58,1-5.57,4.06-5.57,4.06A2.16,2.16,0,0,0,467.17,620.66Zm15.15-5.61,2.83-5.3,16.56-19.12L543.07,538l50.06-59.62,27.91-34s14.86-19.5,21.58-22.15c4.07-1.51,4.26,2.94,4.26,2.94l.66,18.07-2.36,3.5-26.31,30.29-36.06,44.19s-35.2,43.53-36.52,45-15.15,20.25-16.94,23.38-17,18.83-17,18.83l-12.39,12.2-18.27-.66Zm30.85.66s1.7-5,11-14.57c8.05-8.71,38.23-47.32,38.23-47.32l31.7-38.14,26.78-32.26,16.75-19s2.09-5.48,9.56-3.12l.19,20.63s-3.22,6.81-6.34,10.51-30.19,34.06-30.19,34.06L577,569.06l-28.67,35.67s-16,18.08-20.16,19.31c-2.08-.48-16.28-2.08-16.28-2.08ZM540,621.77l14.08-16,34.48-44,48-57.79s4.56-4.66,7.66-6,3.51,2.69,3.51,2.69l.12,22.16L639,532.92,606.6,569.78s-35.73,45.57-38,48.16-8.49,8.8-8.49,8.8l-1,3.21-2.49-1.76-17-4Zm9.76,72.1L527.07,675.5l-26.58-18.83s-13-9.58-15.75-11.86-5.93-5.37-7.3-8.45l10.84.12,3-1h2.28l.68-.46,8,.57,44.27,34.35L574.2,693.3l4.34,2.86-.69,2.28-.34,2.39-2.28,4.11-5.37,5Zm26.25-6.5-30.24-24.88-23.62-17.91s-3.43-2.51-2.74-4.45,1.37-2.85,3.08-2.63c8.44,1.6,36.17,3.43,48.61,16.44,1.37,3,2.4,5.82,2.4,5.82s7.64,9.24,8.33,18a40.53,40.53,0,0,1-.69,12.1Zm-8.71-53.87c.56-3.15,1.53-7.34,1.53-7.34a35.91,35.91,0,0,1,5.16-6.94c3.15-3.23,10.73-14.36,16.14-18.72,2.82-3.79,34.21-45,34.21-45l18.48-19.05s5.48-1.69,5.48.73.19,24.45.19,24.45l-.75,16.29s-1.67,9.86-4.25,15.24c-2.58,6.44-8.57,15.77-16.68,24.18s-11,12.89-11.75,14.48-2.88,5.38.38,4.93,6.22-3.41,9.18-8,10.08-14.18,10.08-14.18L647,597.76l-4.68,31.54s5.57-.16,6.78,1.86,1.7,4.28-.89,4.36a129,129,0,0,0-16.86.56c-9,1-22.91,2.83-30.18,2.74S584.18,639.31,567.32,633.5Zm79.86-36.64,2.74-3.87,3.58-.07,4.56-1.33,24.73.28s9.55.14,9.76-10.32c-.28-8.93-3.72-63.08-3.72-63.08l-2.18-42.15-5.2-85.69-2.24-54.3s.28-3.58,3.37-3.86a48.82,48.82,0,0,1,7.79.25s2.19,20.3,2.09,26.21,2.1,43.16,2.1,43.16l1.14,16.49s6,.19,7.44.19a19.7,19.7,0,0,0,6.29-1.81c.47-.48,5.14-1.24,5.9,2.76S720,445,725.53,453.65c3.05-.29,7.34-.58,7.34-.58s2.09-.66,3.81,2.67,5.24,6.48,7.53,8.77c1.43,1.62,3.9,5.24,3.9,7.24.57,3.15,4.77,31.45,4.77,31.45l-.57,2.85L725,563.9l-19.48,35.42Zm549.13-114.93c-2.21-11.41-12-18.41-12-18.41l-12.43-5.8-.27-.73-2.4-1-2.67-2.48-17-7.73-7-1.57s-23.47-10.77-27.24-12.61c-22.46-10.95-38.29-15.37-42.71-16.38-3.5-5.34-14.27-11-14.27-11l-33.13-22.09-72.63-49.52s-23.47-16.1-28.44-20.43a13.32,13.32,0,0,1-4.51-10.31l5.06-.55a81.2,81.2,0,0,1,13.17-.46,33.68,33.68,0,0,1,13.07,4l2.39.18,3.31,1.75.65-.46,22.92,15.56,48.87,34,47.59,32.31s27.24,18.59,32.21,21.81c19.06,13.81,30,18.59,30,18.59l3.22,1.48,2.58,1.93,5.24,1.56,3.69,2.12,6.25,1.66L1223,477.05l47.4,29.82,5.7,7.37,1.66,4,.92,5.34-1,.55s-18.87,2.12-27.15,2.31-13.9-6.08-13.9-6.08-6.91-9.3-10.4-14.27c-4.24-6.9-10.31-6.72-10.31-6.72s-11,.83-14,.83a21.06,21.06,0,0,1-6.26-.73A41.08,41.08,0,0,0,1196.31,481.93ZM969.23,448.15c-5-6.18-16.78-9.33-21-10.61s-26.2-9.19-26.2-9.19l90.56-4.22s36.68-1,54.39,4.44c16.39,4.09,41.18,15.41,41.18,15.41l58,26.55,3.86,2.66,1.31,1.15s9.26,4.37,9.34,11.19c-.15,4.29-1.38,13.09-2.45,15.24s-2,5.28-6.36,5.74c-4.52.16-9.65.08-9.65.08l-2.53.92-3-.77-.54.69-27.42-6.21-75.18-13.6-42.95-9.07-18.53-3.26-14-.7-.47-11.18S978.31,456.53,969.23,448.15ZM738.83,338s-.61-4.77,3.36-7.28l60.1-5.75s5.16-.23,2.94,4.49-7.37,20.57-6,32.3,6.63,18.14,6.63,18.14l9.59,8,2.21,2.36,2.73,3.76,15.11,12.17,3.69,1.62,1.4,1.4,1-.07,7.23,5.68s12.9,7.59,23.74,11.57,65.4,22.64,65.4,22.64L953,454.51l2.06,1.26,1.18,1.91s5.9,3.69,5.68,10.11-.81,7-.81,7-2.51,4.28-4.28,5.68-13.13,12.75-13.13,12.75a48.54,48.54,0,0,0-7.15-2.65L816.34,458.73,765,445.59s-7.57-1.62-9.07-7.09-6.22-28.63-6.22-28.63Zm5.95,106.69s-5,2.29-7.53-.1c-.19-3.9-6.77-44.69-6.77-44.69L720.67,335s.09-2.19,1.43-2.19,5.14-.19,5.14-.19l15.06,97.86ZM816,344.31s1.46-7.74,3.91-11.49c3.06-3.53,7.43-.46,7.43-.46L848,345.84l28.8,20.45s43.28,29.87,47,32.09,7.13,5.44,7.59,8.89-4.06,6.94-4.06,6.94l-39.91,1a62.73,62.73,0,0,1-10.88-2.61c-10-3.22-21.75-11.11-21.75-11.11l-31.79-25.66-.08-1.22-2.45-2.22-.92-1.77a23.46,23.46,0,0,1-4.06-7c-1.68-7.12.77-16.23.77-16.23Zm21.56-45.65a16.8,16.8,0,0,1,9.86-5c5.44-.59,14.36-1,14.36-1a27.24,27.24,0,0,1,10.11,5.19c2.3,1.78,10.71,8,20.15,7.48,6-.09,8.75-.77,11.81.51S917,314.47,917,314.47l29.4,21.33L996.33,369l48.53,33.23,7.48,5.44.17,3.31s-20.65-1.36-26.94-1.36-71.9,2.3-71.9,2.3L944.15,405l-34.93-23-51.68-36.21s-19.29-12.66-20.4-13.42-9.94-7.57-14.78-7.65l4.16-13,1.78-3.31.94-.51Zm-1.51-16.35,6.76-23.19s1.36-2.86,3.87.1,3.33,6.95,4.45,8.34,2,4.08,7.78,7.33c1,.55,4.73,3.61,4.26,4.81-1.11.84-1.66-.18-3.61-.27s-10.57-1.12-18,1.11C839.09,281.47,836.06,282.31,836.06,282.31Zm68.83,9.07c-.81-.72-.84-.82-.83-.83s-1.6,1.47-4.36-.28c-2.13.28-7.69.56-7.69.56l-21.87-15.48s-7.42-5.38-8.81-7.23c-2.41-1.95-4.82-7.14-5.37-10.2s-3.34-6.76-3.34-6.76l-4.82-6.49,5.19-13,4.82-.27A18.37,18.37,0,0,1,870,236.51c5.19,5.19,17.24,13.26,17.24,13.26L908.88,266l17,14.09s4.82,3.89,4.54,5.56C924.82,285.36,906.84,290.73,904.89,291.38Zm-53.63-89.87-2,4.33s-10.33,18.74-13.39,30.73c-1.66.89-4.33,2.93-10.45-.64s-25.88-15.81-29.84-19.38-37-30.08-37-30.08l-20-16.07-2.43-4.46h-2.67s-7.78-3.44-8.93-7a5,5,0,0,1,.38-2l28.43-.51a36.21,36.21,0,0,1,8.16,1.53c12.88,3.57,53.8,18.61,53.8,18.61s17.47,8.16,24.1,13,10.33,7.91,12.24,8.42A16.39,16.39,0,0,0,851.26,201.51Zm-121.67-29a27.3,27.3,0,0,1,8.78,5.31c3.46,3.22,65.61,52,65.61,52l21.75,13.47,6.55,2.65L810,316.48,807,317.6l-64.38,5.56s-6.8-2.1-7.66-8.16-20.39-127.4-20.39-127.4l-3.09-29a2.58,2.58,0,0,1,3,.24C715.63,160,728.48,172.15,729.59,172.52ZM713,243.37l12.48,73.55.14,5.29-4.62,1.9a4.2,4.2,0,0,1-2.17-1.63c-.54-1.08-.54-4.2-.54-4.2l4.88-1.63-1-3-2.57.68a5.39,5.39,0,0,1-2-2.58c-.27-1.35-10.58-60.38-10.58-60.38a65,65,0,0,1,.54-7.06c.41-2.17,2.58-12.48,2.58-12.48Zm4.67,90.12,8.48,55.74,7.43,54.12s-4.38-1.9-6.57-9.52c-.19-9.15-1.91-27.45-1.91-27.45l-3-20-4.28-40.69-1.43-10Zm-13,305.18,29.81,1s7.63,0,7.72,4.12l-.27,4.3a4.52,4.52,0,0,1-4.56,4.12c-4.29.17-37-1.67-37-1.67Zm33.23-4c-3.33,0-30-.7-30-.7l-1-1.31,5-11.23,26.48,1.14s5,1.41,4.65,4.83-.61,4.64-.61,4.64A5,5,0,0,1,737.82,634.63Zm2-17.07a230,230,0,0,1-25.85-.65c3.25-8.09,21.85-42.22,21.85-42.22l20.74-36.92,5.09-10.11s3.72,1.22,3,3.73-2.71,7.73-1.55,8.05c1.1.07,1.87.2,1.87.2l-7.21,16.68S749.64,570,747.6,579a159.78,159.78,0,0,0-3.17,24.64c-.18,4.47-.37,9.86-.37,9.86S744.15,617.29,739.78,617.56Zm56-126.31C800.63,492.46,847,506,847,506s4.65,2.32,4.37,6.14-1.86,6.51-3.91,7.44a25.9,25.9,0,0,1-7.44,1.49c-1.67.09-42.69-2.89-42.69-2.89s-6.42,0-6.88-4.09-.56-19.81-.56-19.81S791,490,795.79,491.25Zm-5.11-8.7a38.29,38.29,0,0,1,.29-5.12s-.09-3.86,8.21-1.73l46.38,13s4.74,1.74,4.83,4.25a40.4,40.4,0,0,1-.09,4.64s-1,4.44-6.28,3.28-48.89-14.2-48.89-14.2S790.68,485.74,790.68,482.55Zm3.44,39.86,51.8,2.79s5.21,1.21,5.12,4.28.27,7.06-3.82,7.16-51.43-1.21-51.43-1.21-4.37.28-5.11-2.88a29,29,0,0,1-.19-8S790.4,522.87,794.12,522.41Zm-.18,17.48,53,1.74a6.16,6.16,0,0,1,3.92,5.4s1.48,2.78,1.05,3.83-1.66,3.31-3,3.66c-1.75,0-71.58-2.7-71.58-2.7s-8.88-.53-10.36-5c1.65-4.09,2.69-6.53,2.69-6.53s3.14,1.83,4.79-1C779.14,538.93,793.94,539.89,793.94,539.89Zm-23.51,16.37c3.92,0,74.45,2.7,74.45,2.7s7.06.26,7.32,4.09a44,44,0,0,1,.17,5.05s-.17,3.92-3.92,3.92-88-3.83-88-3.83-2.18-1.83-2.18-3.31,3.57-8.19,3.57-8.19S766.51,556.26,770.43,556.26Zm79.16,48.15c-3.92,0-72-1.39-72-1.39l-23.94-1s-3.23-.26-4.36-1.83-.43-7.4-.43-7.4,0-3,6.09-3,83.33,2.88,83.33,2.88,9.24.43,11.67,1.39a5.22,5.22,0,0,1,3.31,4.27C853.24,599.19,853.5,604.41,849.59,604.41Zm.17,17.5c-3.75,0-90.91-3-90.91-3s-7.05-.53-8.62-1.22a4.11,4.11,0,0,1-2.53-3c-.17-1.13.18-5.57.7-6.1s1.83-1.65,5-1.91L827,609l21.6.61s4.26.87,4.26,3,.09,5.92.09,5.92S853.5,621.91,849.76,621.91ZM752,580.55c0-1.39.87-7.14,3.57-7.92a51.94,51.94,0,0,1,6.53-.26l58.95,3,27.78,1.13s3.48.17,3.48,2.79v5s-.17,3.74-3.57,3.65-93.52-3.31-93.52-3.31S752,581.94,752,580.55Zm-4.44,45.19c.17-3,5.14-2.52,5.14-2.52l18.81.7s72.79,2.7,77.23,3,4.79,3.14,4.79,3.14a38.14,38.14,0,0,1-.61,6.18c-.52,2.18-4.26,2.18-4.26,2.18l-96.92-2.88c-1.92-.6-2.53-.69-3.83-2.61S747.36,628.71,747.53,625.74Zm63.93,52.12,132.13,3-1.82,2.38-131.34-2.72Zm75.6-7.18c-6.82,0-5.95-4.11-5.95-4.11s0-8.1.17-9.72a11.37,11.37,0,0,0-6.25,2.26s-.29,5.61-.29,7.87-2.89,2.6-2.89,2.6H859.64c-1.62,0-1.38-2.43-1.38-2.43l-.17-29.31s-3.28-138-3.28-144.44-3.74-8-3.74-8-53.8-14.42-56.82-15.14a8,8,0,0,1-4.65-3c-.66-.66-2.36.13-2.36.13L785.86,472s-.19,51.91-.19,57.35-3.8,5.43-6.95,5.24C774,534.16,774,527,774,527l-10.42-4.92s2.95-9,3.74-11.53.19-9.25.19-9.25l-7.38-44.16-2.26-7.25,53.6,13.8s92.5,24.7,105.39,27.5S935.79,501,935.79,501l-15.06,14.43-1.17,3.15-1.17,2s-23.89,25.25-28.58,31.56c-15.77,19.83-12,31.37-11.45,36,3.79,24.7,24.16,31.46,24.16,31.46l1.09,3.24L921,638.24s15.42,15,23.53,19.29c8.66,4.42,31.29,5.68,31.29,5.68l36.15,1.08,3,1.8-.27,7.31-30.47-1S893.89,670.68,887.06,670.68Zm94.18-14.55c-6.15-.11-27.32-2.82-27.32-2.82a36.82,36.82,0,0,1-14.39-8.24c-6.88-6.36-23.77-22.1-23.77-22.1l3.65.31,6.36,1.88,18.35.41,3.76-1.14,2.81.21.52-.73,101.77.93s36.6.73,44.43,2.51a44,44,0,0,0,6.36,2.5l6.77,1.77,4.59-.1,2,1.67-22.1,5.42-39.94,12.72-24.5,5.21S1000.33,657.27,981.24,656.13ZM1091.45,613c-12.17-1.29-26.63-1.78-34.47-1.78s-116.43-1.1-116.43-1.1-17.83.19-29.8-2.44l-2.18-.72a6.39,6.39,0,0,1-2.47-3.11c-.87-.63-7.61-4.07-11-16.67-.82-5.19-1.89-12.46-1.89-12.46l1.17-5s7-13.48,36.93-41.62c3.81-3.92,35.05-33.89,35.05-33.89l2.77-.23,5.76-2.77,4.27-.46,3.46-1.27h2.31l2.53-.58,47.16,8.77s6.46,9,9.8,11.76c5,5.53,40.93,32.28,40.93,32.28a327.2,327.2,0,0,0,56,33.21c3.23,1.5,13.83,6.45,16.48,8.76-.8,1.61-10.35,24-10.35,24l-4.21,11.47s-1.14,2.64.22,3.21,2.7-2.35,2.7-2.35l13.25-30.27s1.78-3.64,3.28-2.85,34.9,20.72,34.9,20.72l31.48,23.22,5.12,5.91-20.65,16.95-1.35-.5-2.14,1.5-.93-.28s-5.34,2.84-9.11,2.84a36.12,36.12,0,0,1-7.84-1.06l-.85.42-2.64-1.56-.64.5L1146,631.6l-22.79-12.53S1110.76,613.44,1091.45,613ZM1201,602l-49-28.62s-23.72-13.58-33.6-17.38c-12.83-5.4-30.64-19.75-33.59-22.2s-21.44-16.29-21.44-16.29-12-9.71-13.17-11.06c-1.85-1.26-3.37-5.4-.08-5.23,4,.84,45.32,8.52,45.32,8.52l26.09,4.39.67.85,2.11.25,2,1.27,18.73,4.81,8.53.17,11.06,1.26s10.46.85,15.7-2.53c1.85-.93,6.16-3.46,11.31-10.64,2-.08,18.82-1.35,18.82-1.35s5.57-.84,8.61,3.55c2.28,3.46,7.68,12.32,11.73,16a27.85,27.85,0,0,0,19.41,7.85c6.16-.17,24.73-1.61,24.73-1.61s4.9-.84,5.4,1.69l9.37,38.24h-.67s0,10.29-.34,12.06a20.76,20.76,0,0,1-6.58,11.57,28.87,28.87,0,0,1-1.44,2.78l-2.19,1.78v.76l-37.48,29.11Zm84.33-102.51-97.11-60.62s-1.47-1.39-.25-4.17a7.51,7.51,0,0,1,3.36-2.7l2.78-4.09a3.69,3.69,0,0,0-2.29-3.2c-2.21-.81-3.76-.73-4.75.41s-2.45,2.95-2.45,2.95l-6.55.08a4.83,4.83,0,0,0-3.6,1.88c-1.22-.82-13.74-8.34-13.74-8.34l-12.11-4.83-6.13-4.25-11-3.93-56.37-38-87-59-23.22-15.64a66.52,66.52,0,0,0-18.5-8.62A63.78,63.78,0,0,0,936,278.87c-1.49-.91-24.47-18.58-24.47-18.58L884.7,241.87s-10-5.47-14.11-9.12-9.62-5.52-13.06-12.18l7-12.79s1.12-2.5,2.51-1.11a15.58,15.58,0,0,0,6.48,3.62c2.69.74,22.8,9.54,28.64,14.08,4.64,3.34,21.51,13,27.07,17.24s19.83,14.65,19.83,14.65l21,14.83,32.07,20.29,33.64,22.25,33.37,23.26,33.46,23s20,13,24.65,15.75c7.23,3.8,19.84,14.83,19.84,14.83l23.91,17.15s15.13,10.73,19,12.45,15,7.2,19.47,12.35c4.34,2.95,30.52,20.38,30.52,20.38s23.48,16.28,27,18.16c3.19,2.13,15.79,13.09,17.35,14.81s4.42,6.21,5.56,7.28C1289.21,493.94,1285.37,499.5,1285.37,499.5Zm-738.56-344a84.53,84.53,0,0,1,8.12-7.14s39.32-21,47.36-24.8a25.62,25.62,0,0,1,14.9-2.28l3.66-.74L624.5,107l22-13s-6.21-13.9-8-17.46C667.83,64.17,703.68,60.85,707.32,61c10.88-1.74,37.93-.19,37.93-.19l30.08,5.58s2.37,12.16,2.92,15.36C790,85.28,806.4,94,806.4,94l34.83,21.29,2.29-2.1s43.32,28.52,45.7,30.17-.27,4.2-1,4.47-3.1,4-3.1,4l-1-.37-1.46,2.29-2.84,1.82s-22.21,33.46-24.13,36.2c-1.92.92-10.6-4.93-15.63-8-7.31-6.77-21.57-12.34-21.57-12.34L771.3,155s-7.67-2.66-10.14-2.66-6.86-2.74-6.86-2.74l-16.45.09a16.66,16.66,0,0,1-2.4.05c-1.48-.07-1.34-1.82-1.21-2.82s.2-4.23-.54-5.51.34-2.89.34-2.89l6.85-17.66-15-5.64s-9.94,26.39-11,28.41a14.32,14.32,0,0,1-5.64-4.43c-1.94-2.29-3.62-22-3.62-22S702.88,95.31,702.55,93c1.14,1.75,2.28,1.55,4.16,1.48a3.73,3.73,0,0,0,2.49-1l.94.74a35.34,35.34,0,0,1-.88,4.63c-.67,1-1.21,6.79-1.21,6.79a7,7,0,0,0,.88,3.15,4.66,4.66,0,0,1-.2,3.63c-.81,2.48-1.15,5.17.8,5.37s4.1-4.16,4.1-4.16l.06-4.37-1.41-2.82s.61-4.3.88-6.38a8.31,8.31,0,0,1,1.21-3.42s3.42-3.9,4.43-5.11A5.71,5.71,0,0,0,720,87.93c.06-1.08-.61-1.68-2-2-2.28-2.08-2.08-5.1-2.08-6.25-.74-.13-1.61-1.74-1.61-1.74s-2.28-4.57-3.49-5.58c-26.53.07-43.38,10.48-43.38,10.48s2,2,1.68,2.15A4.62,4.62,0,0,0,669,89.6c1.62,1.62,1.95,3.56,2.62,4.77s.81,1.48,2,1.55c1.54,1.67,4.63.87,5.57.47,1.08,1.2,3.67.43,3.67.43l3.3,10-.64,1L694,144.94l4.36,21.83,7.77,55.89s2.24,9.37-.21,14.16c-1.28,3.62-2,11.5-2,11.5l4.47,27.15L716,324.55s-19.06-.11-21.61-.11-3.52-3.41-3.52-3.41-.85-10-1.59-12.66a3,3,0,0,1-3.09-2.77l-.85-15.12S681,218,680.83,211.7c-2.35-15.44-3.73-48.87-3.73-48.87s.11-4.15-2.34-4.15-1.92,3.93-1.92,3.93l-.11,6.61-12.24,8.83s-5.64,6.07-9.26,7.77c-5.11,1.39-9.05,8.73-9.05,8.73L614,219.89l-30.12,25.55s-10.65,8.52-14,10.65a6,6,0,0,0-2.56,6L565,268.33l-13.2-.42-21.4-.11-5.43,2L475,275.47S457.57,278,454.69,278c-2.13,0-7-3.92-7-3.92S543.45,159,546.81,155.52ZM423.54,302.09l8.68-2.25-28.8,35.65a19.68,19.68,0,0,1-4.7,3.88c-2.14,1-4.39,2.65-6.53.81C394.64,337.32,423.54,302.09,423.54,302.09Zm40,632.1L384.91,939l-32.47-1.62-2.17,17.72c-54.69-18.23-88.35-36.21-105.56-50-33.53-24-56.22-61.19-57.63-62.72,0-45,1.53-65.91,1.53-65.91l.95-1.45,2.91-22.31s.52-3.43-2.25-3.83-2.24,2.77-2.24,2.77l-2,19.93-7.92-11.08,6.84,15-.9,60-1-.12c-6.55-9.93-23.33-47.82-26.5-69.65-7.75-35.6-2.29-76.34-2.29-76.34.78-8.65,4.78-23,4.78-23l10.47-41.21,19-9.86L223,601.19l-.6-3.51s-41,16.46-51.86,22.81c2-10.53,10.65-28.38,10.65-28.38l18-24.87,4.3,3.51L363.39,376.34l13.71-16s17.06-9.69,18.47-10.73c2.24,4-1.19,5.37-2.38,6a6.16,6.16,0,0,0-4.1,2l-14.75,18.25s3.88,3.35,5.07,4.25,1.79.44,1.79.44,20.26-24.06,21.6-25.7,4.57-13.26,4.57-13.26,36.22-43.55,37-44.58.93-.73,3.31-2.58c34.46-6.71,80-10.53,80-10.53s2.17.52-.1,7.84-13.83,19-13.83,19l-56,66.25S399.42,447.81,391,459c-9.08,13.11,1.23,19.46,1.23,19.46s55.43,42.5,58.59,45.26,1.9,5.77,1.9,5.77l-5.27,6.22L442,541.39l-3.26,2.05L427,557.7s-1.35,3.71-2.5,6.14c-11.47,20.9-3.62,37-1.61,41.84.71,5.79-6,7.2-11,7.91-20.79-1.3-28.94-7.67-28.94-7.67l-24.57-19.38L421,511.65s1.77-3.07-1.06-4.73a3.53,3.53,0,0,0-4.61.47L352.71,583s-16.3-12.64-24.69-18.43-2.24-10.4-2.24-10.4,57.7-69.45,58.14-70.23a3.5,3.5,0,0,0-1-4.85,4.43,4.43,0,0,0-5-.22L332.34,535s-36.26,42.65-49,62.6c-18.07,23.81-26.78,55.55-29.21,62.39-9.25,30.09-6.5,53.34-5.4,58.85,5.18,30.53,22.16,57.76,22.16,57.76s16.31,29.43,19.84,34.94c11.9,23.8,35.16,38.79,35.16,38.79C344.57,861.45,359,861,359,861s49.16.66,58,.66,12.78,3.08,12.78,3.08,4.52,4.19,9.81,9.26,8.38,3.75,8.38,3.75l11.13.11c2.32,16.86,8.27,34.72,8.27,34.72ZM671.33,828.92l-113.58.92.07-5.82,110.83-.13L680.8,808l.46-56.49h3.91l1.05,1.7.06,56.75Zm15.18-87.56-1.71,2.08-3.4-1.13V715.72h-37v-4.26h13.34l.85-25.08-26.68-.66.56,25.64h7.2v4.83l-37.83.33-5,8.71L573,754l-48.24,59.39s-3.66,3.83-3.66,11.58V875.7s-1.39.79-1.39,0V864s-.91-2.7-3.33-2.7l-45.35-.74s-1.39-14.16,1.91-21a13.22,13.22,0,0,1,4.47-.74c1.07,0,8.42-.11,11.72,1.17,3.19,1,26.82,1.49,26.82,1.49v-8l-21,.22s-4.36.74-3-2.56c2.34-2.77,20.55-26.19,20.55-26.19l26.51-34.6,21.5-28.43s2.77-4.57,1.6-7.24c3-.34,16.18-10.22,16.18-10.22l1.59-1.3.44-2.85,3.31-4.07s14.9-13.47,14.61-33.62c-.38-14.29-6-24.23-7.38-27.16a11.25,11.25,0,0,1,2.84-4.45c1.23-1,4.26-2.93,6.43-3S641,644.74,641,644.74l15.61,18a24.33,24.33,0,0,0,8.33,5.87c3.13,1.33,12.59,5.3,14.76,6.81s7.48,6.53,7.48,6.53Zm8.17-2.08.92-54.67,2.12-4.23,7.68-7,89.86,1.7h4.6c3.83,0,4.3,2.42,4.3,2.42l-.13,2.87h-71.6s-14.61,8.52-15.82,9.73-2,6.5-2.23,9.94-5.89,4.06-5.89,4.06H700v7.1l27.59,1,.41,3.25,241.79.2v7.1l-77.74,1L775.31,724l-34.06.19L704.8,722.9v6.72l-2.11,1.75h-3v11.5h-3.4C694.22,742.87,694.68,739.28,694.68,739.28Zm312.47,143.61-27.59-3.55-13-.81s-2.15-.27,1.28-1.41c0,0,15.44-3.09,18.86-3s18.13.6,18.13.6a2.42,2.42,0,0,1,2.35,2.42C1007.22,879.54,1007.15,882.89,1007.15,882.89Zm1-19.77s-.37,3-2.23,3.06-10.41-.11-15.64-3.37c-6.42-4-7.14-9.37-7.19-13.62s.25-14.49.77-15.27a4.57,4.57,0,0,1,4.25-4.19l17.19.25a6.29,6.29,0,0,1,3.62,6C1009,840.65,1008.15,863.12,1008.15,863.12Zm137.32-109c-.23.07-20.7,24.86-20.7,24.86L700,777.55l.08,38.44s-4.73.76-4.67-3.72-.13-58.61-.13-58.61-.22-2.3,5.06-2.3v10.69l421.94,1.82,12.43-.91,10.08-11.37S1145.69,754,1145.47,754.09Zm4.72-6.25-1.32-1,2.76-3s-13.45-8.15-14.88-8.93-5.07-1-5.07-1-69.55-1.43-74.84-1.43-3.86-12.23-3.86-12.23l1.32-34.72-30.42-1v-2.64l36.81.66L1058.16,717l75.39,1.76,22.59,20.06ZM1301,750.38l-2.74,5.07s-16.33,10.75-19.47,12.27-11.77,2.74-11.77,2.74l-16.13,5.68a18.27,18.27,0,0,1-5.57,3.55c-6.8,1.32-17.55-7.71-21.51-10.14s-31-23.33-31-23.33-34.59-29.51-37.83-32.25c-18-18.16-46.76-29.62-54.06-32.15a138.11,138.11,0,0,0-41-6.9s-27.69-1.22-30.94-1.22-2.64-1.82-2.64-1.82-.1-4.77,0-6.39,1.73-1.93,2.54-1.93c15.92-1,44.32-10.85,44.32-10.85s35.3-11.66,47.47-13.49c6.79-1.52,10.65.3,10.65.3l22.41,12.38,5.28,5,16.22,9.33,4.87.91L1216,687.19l37.93,22.52,38.24,24.85s5.06,3.55,5.88,4.05a20.21,20.21,0,0,1,4.46,6.5A6.39,6.39,0,0,1,1301,750.38Zm34.75-28.07-1.6,1.4-1.06.13-1.53,1.6a8.29,8.29,0,0,0-2.86.79c-1.19.67-4.72,2.93-6.31,3.26s-10,.2-13.16-.86l-1.86-1.2-.6.4s-52.8-35.82-67.25-43.05c-3.46-1.73-25.12-14.75-25.12-14.75l7.52-4.79,1.05.15,2-1.74,5-2.59,18.91-14.57,17.41,14.82s16,12,17.88,13.09,12.62,7.64,19.07,14.42c5.71,5.39,17.94,16.88,23.72,20.74,3.32,1.92,9.64,6.44,9.77,9.3S1335.7,722.31,1335.7,722.31Zm.19-15c-4.08-3.38-25.63-23.54-29.94-26.91s-37.52-26.92-37.52-26.92-13.39-10-12.23-14.91c.55-2.54,5.24-4.78,5.24-4.78l1.1,1.29,19.21-14.27,2.53-3.67,5.19-4.15s15-12.88,15.44-29c.4-11.74-5.35-28.17-6.64-35.46-1.3-3.72-5.34-19.58-5.22-27.64l100.43,62.93,6,4,2,2s3.16,4.59,3.38,7.57-.39,8.35-1.66,10.95c-1.55,2.38-5.14,9.57-5.14,9.57l-20.47,43.36S1360,699,1354.41,704.43a43.2,43.2,0,0,1-5.7,6.05S1340,710.72,1335.89,707.34Zm71.65-76.86S1424.12,650.56,1430,657c8.55,9.33,35.6,35.95,35.6,35.95s3.8,4.38,4.45,7.38,1.83,9.54-.91,12-7.32,3.13-14.24,3.66a7.18,7.18,0,0,0-.62,1L1415,707.31l-5.53-3.44-16.3-4.11-8.83.61-10.45-.27s16.78-30.25,24.19-50.06C1399,648.15,1407.54,630.48,1407.54,630.48Zm40.73-11.77,5,6.2,4,7.61L1459,637s3.15,16.95,16.09,24.67c4,2.39,11.41,7.07,25.22,4.68,6.41-2.18,10.76-3.59,10.76-3.59a15.93,15.93,0,0,1,8.26-.65,33.75,33.75,0,0,1,6.31,1.63l.43-.55,45.66,23.27v1.07s2.1.54,2.71,2a7.66,7.66,0,0,0,2.5,2.84,10.6,10.6,0,0,1,2.5,5.88,21.84,21.84,0,0,1,.34,6.9l.27.13-13.59,33.47-28.18,74.3-1,.17a3.51,3.51,0,0,0-.88,1.7c-.06.83-4.28,4.17-6.34,5.11a16.26,16.26,0,0,1-9.67,1.52c-3.93-.76-44.29-8.37-44.29-8.37s-13.14-2-24.23,3l-20.27,9.3a54.84,54.84,0,0,1-24.85,2.55c-10.33-1.08-46.39-6.37-46.39-6.37l-4.19-2s-5.87-2.09-5.93-8.3a93.65,93.65,0,0,1,1.92-9.48s6.55-11.41,4.29-22.65c-.79-5-3-14.46-9.58-20.76a6,6,0,0,0-2-3.07,8.72,8.72,0,0,0-.3-3.15,14.53,14.53,0,0,1-2.18-8.78c.38-3.08,1.88-9.3,1.88-9.3l1.72-1.36-.07-.9,10.35-9.37,1.28-.23,1.57-1.5,2.85-.45a33.39,33.39,0,0,1,11-4,32.41,32.41,0,0,1,6.53-1.65,1,1,0,0,0,.45-.45l5.54.62,36.39,8.3,3,2.68,17.08,4.32,3.14-.95,14.8,2s13,1.12,21.13-7c4-3.89,7.6-12.79,7.42-16.59s-.22-13.2-12-23c-.28-1.84-.23-1.44-.23-1.44l-2.68-4.38-14.72-14.45-2.68-1-3.45-2.57L1419.49,624l.17-.87-1.75-2.25.27-2.07-.49-1.59s1.59-4.6,4.81-6.41a12.61,12.61,0,0,1,8-1.36,32.39,32.39,0,0,1,3.23.6l1.92,1.31.89-.27Zm18.87-95.81-.37,2.89a16.16,16.16,0,0,0-1.73,3.1c0,.52-.1,8.35-2,11.65,0,1.84-.21,5.1-.21,5.1l-.84,2,.22,1s-13.83,23.54-22.62,29.4a1.48,1.48,0,0,0-2,.41,8.51,8.51,0,0,1-2.75.89,16.39,16.39,0,0,1-9,2.88,26.07,26.07,0,0,1-8.78-1.61l-1.37.34-2.26-1.64-.89.24L1336.68,532l-39.49-24.6L1320,474.53l7.53-7.71,2.54-5.09,4.91-6.53,3.17-6.36a32.67,32.67,0,0,0,5.63-23.69c-1.63-7.81-3.16-12.25-4.44-14.57L1431.41,466l28.75,19.82,6.72,26.65s.85,8.39,1,10.51Zm33.45-5.28-.37-1.32s-1.92,1.18-7.45-.74c-8.18-3.24-12.7-10.83-14-13s-3.31-5.44-3.31-5.44L1502.19,517Z"/><path class="cls-2" d="M640.94,572.91c1.16-.83,2.48-2.82,4-7.47s-.67-5-.67-5c-.61-.39-1.55.67-1.55.67s-51.12,67.48-52.53,69.54.09,2.54,1.5,3.48a2.07,2.07,0,0,0,2.54-.09S639.77,573.74,640.94,572.91Z"/><path class="cls-2" d="M620.2,0s.89,5.74-.49,8.81-7.33,9.11-8.42,15.34c-1.88,1.69-5.84,4.85-5.84,4.85s-3.56,5,.89,6c2.38.4,5.35-.79,7.23-5.44,3-1.58,18.81-4.46,26.53-5.15,4.75.5,12.37,1.19,12.37,1.19a2.42,2.42,0,0,0,3.17,1.68c2.58-.69,5-2.67,9.21,1.59-2.18.69-4.06,1.38-4.06,1.38s7.32,3.76,8.91,6.44a17,17,0,0,1,1.78,6.63l32-4.46s5-2.47,5.55-9.6,0-6.73,0-6.73-3.07-1.88-5-12.77c.79-6,1.58-9.8,1.58-9.8H669.7l.69,9.21s-4.65-.89-6.33-.4C662.47,8.12,660.29,4,659.7,0h-5.64s-.1,7.23,1.58,8.22,4.85,10.69,4.85,10.69a23.63,23.63,0,0,0-7.13,2.77c-2.77-.59-16.33-1.49-19.2-1s-13.86,2.57-13.86,2.57-5.15,1.29-3.76-1.58,5.54-8.41,6.63-10.49S627.23,4.45,624.86,0Z"/></g><g id="Buildings"><polygon class="cls-3" points="1134.91 996.85 382.5 996.85 382.5 1043.85 612.05 1043.85 612.05 1050.13 795.69 1050.13 795.69 1043.85 1134.91 1043.85 1134.91 996.85"/><rect class="cls-3" x="593.5" y="902.33" width="92.8" height="13.67"/><rect class="cls-3" x="959.53" y="882.72" width="20.8" height="11.32" transform="translate(43.35 -45.13) rotate(2.73)"/><rect class="cls-3" x="982.59" y="924.23" width="8.71" height="7.48"/><rect class="cls-3" x="1157.08" y="791.57" width="4.89" height="17.2"/><rect class="cls-3" x="1061.88" y="697.39" width="44.7" height="12.5" transform="translate(39.97 -58.05) rotate(3.12)"/><rect class="cls-3" x="910.1" y="795.61" width="18.85" height="12.32"/><rect class="cls-3" x="896.47" y="883.11" width="13.94" height="15.46"/><rect class="cls-3" x="248.36" y="359.3" width="13.44" height="22.12" transform="translate(300.96 -76.99) rotate(40.41)"/><rect class="cls-3" x="223.22" y="403.37" width="7.2" height="12.43" transform="translate(319.65 -49.32) rotate(40.41)"/><rect class="cls-3" x="282.3" y="346.01" width="8.95" height="12.43" transform="translate(296.76 -101.87) rotate(40.41)"/><rect class="cls-3" x="337.2" y="268.46" width="6.09" height="12.43" transform="translate(259.25 -155.04) rotate(40.41)"/><rect class="cls-3" x="443.86" y="133.74" width="22.9" height="37.5" transform="translate(207.49 -258.78) rotate(40.41)"/><polygon class="cls-3" points="547.89 79.28 528.81 63.7 533.15 58.38 536.27 54.57 536.27 54.57 545.88 42.8 538.5 36.76 528.88 48.53 526.1 46.26 508.92 67.29 511.7 69.57 482.19 105.7 489.57 111.73 522.25 71.73 541.32 87.31 547.89 79.28"/><rect class="cls-3" x="355.26" y="251.48" width="3.75" height="7.4" transform="translate(250.64 -170.64) rotate(40.41)"/><rect class="cls-3" x="361.84" y="245.71" width="3.75" height="7.4" transform="translate(248.47 -176.28) rotate(40.41)"/><rect class="cls-3" x="272.31" y="352.64" width="3.66" height="9.67" transform="translate(297.15 -92.42) rotate(40.41)"/><rect class="cls-3" x="265.19" y="354.56" width="3.66" height="9.67" transform="translate(296.7 -87.35) rotate(40.41)"/><polygon class="cls-3" points="700.65 378.16 708.29 377.88 709.54 402.35 701.48 402.77 700.65 378.16"/><polygon class="cls-3" points="72.7 875.87 77.84 874.22 84.81 894.58 79.67 896.23 72.7 875.87"/><rect class="cls-3" x="770.26" y="895.96" width="28.75" height="23.89"/></g></svg>