<?xml version="1.0" encoding="UTF-8"?>
<svg id="EXAMPLE_-_Active" data-name="EXAMPLE - Active" xmlns="http://www.w3.org/2000/svg" viewBox="0 0 1920 1080">
  <path d="M1404.47461,826.69824c-13.37207,0-26.61816-5.59082-35.84961-16.21582-9.06152-10.42871-14.06738-23.78223-14.09668-37.59961l-.18848-92.17285c-.01562-7.94922-4.74023-15.125-12.03613-18.2832l-55.32031-23.94434c-12.99414-5.625-23.86719-14.9209-31.44238-26.88281l-23.0625-36.41504c-9.46973-14.95215-25.68457-24.24414-43.37402-24.85449l-130.97266-4.5166c-16.37695-.56543-31.31836-9.91064-38.99316-24.38916l-24.58594-46.38379c-6.93359-13.08203-18.43652-23.01416-32.38965-27.96631l-108.31982-38.44873c-20.48584-7.27148-41.89258-11.1333-63.62598-11.47754l-325.5-5.1626c-9.46289-.1499-17.62061-7.00586-19.39697-16.30176l-28.03418-146.70117c-.62109-3.24951-3.5791-5.57275-6.8833-5.38721l-3.15918.16992c-4.99854.27002-9.47852,3.03564-11.98389,7.39893-15.03564,26.18994-33.03125,37.22363-50.6792,31.07227-20.7998-7.25391-70.49756-6.19727-90.89795-5.40625-5.04639.19482-9.87988-1.83643-13.26611-5.57422-3.38721-3.73926-4.93262-8.75244-4.24023-13.75488,3.57617-25.83984,14.04932-72.85107,44.0127-97.37646,39.88574-32.64697,77.71289-31.07275,80.9585-30.87109l240.22949,2.79639,965.14453,1.47217,9.0293.9624c17.89648,1.90674,31.03711,17.47217,29.91504,35.43555l-2.55371,40.8999c-.69141,11.07129,6.1582,21.30518,16.65625,24.88721l22.64062,7.72461c9.53711,3.25391,16.05762,12.21387,16.22461,22.29541.4248,25.48535-1.91992,92.81592-32.78906,167.41748-26.78711,64.73584-114.27832,259.25391-164.0459,369.44141-6.80566,15.06934-17.75879,27.75488-31.67676,36.6875-7.79395,5.00195-16.64844,7.4248-25.44727,7.4248ZM410.75781,213.58594c7.91016,0,14.85156,5.67334,16.35059,13.51953l28.03418,146.70117c.89111,4.66455,4.98486,8.10449,9.73291,8.17969l325.5,5.1626c22.82178.3623,45.30127,4.41699,66.81299,12.05273l108.32031,38.44873c16.31738,5.7915,29.77051,17.40723,37.87988,32.70654l24.58594,46.38379c6.00293,11.32568,17.69141,18.63623,30.50293,19.07812l130.97168,4.51709c20.99512.72461,40.23828,11.75195,51.47754,29.49902l23.0625,36.41406c6.49707,10.25879,15.82227,18.23145,26.9668,23.05566l55.32031,23.94434c10.9502,4.74023,18.04004,15.51074,18.06348,27.44141l.18848,92.1709c.02344,11.41504,4.15918,22.44727,11.64551,31.0625,12.07129,13.89453,32.85645,16.87695,48.34766,6.93359l2.7002,4.20801-2.7002-4.20801c12.28613-7.88574,21.95605-19.08496,27.96387-32.3877,49.74316-110.13379,137.18457-304.5415,163.91895-369.14844,30.15332-72.87207,32.44531-138.56592,32.03125-163.42773-.09766-5.87842-3.89746-11.10156-9.45508-12.99805l-22.64062-7.72412c-14.75391-5.03369-24.37988-19.41602-23.4082-34.97461l2.55371-40.8999c.78711-12.60693-8.43457-23.53076-20.99512-24.86914l-8.50879-.90674-964.66992-1.47168-240.57422-2.7998-.15527-.01172c-.34766-.02344-36.4834-2.13037-74.05908,28.625-27.32324,22.36475-37.06592,66.61963-40.44141,91.00928-.28516,2.06299.35107,4.12988,1.74658,5.67041,1.39404,1.53906,3.38721,2.37256,5.4668,2.29541,26.04883-1.01025,72.97119-1.57861,94.57861,5.95605,16.98975,5.9209,31.54883-14.12842,38.71387-26.60889,4.19971-7.31494,11.7207-11.95215,20.11816-12.40527l3.15967-.16992c.29834-.01611.59668-.02393.89258-.02393Z" style="fill: #fff;"/>
</svg>