<?xml version="1.0" encoding="UTF-8"?>
<svg id="EXAMPLE_-_Active" data-name="EXAMPLE - Active" xmlns="http://www.w3.org/2000/svg" viewBox="0 0 1920 1080">
  <path d="M794.17236,993.50488c-8.26758,0-16.53125-2.05371-24.05029-6.15918-14.90674-8.1377-24.61914-23.10352-25.98096-40.03223l-8.2334-102.37109c-.62354-7.75488-6.7085-13.79297-14.46875-14.35645-17.48535-1.26953-34.40234-8.30273-47.63477-19.80469l-22.84717-19.85938c-36.89062-32.06641-58.04883-78.49121-58.04883-127.37109v-341.50488c0-23.91797,19.45898-43.37695,43.37695-43.37695h30.83496c11.7168,0,21.24951-9.53271,21.24951-21.24951v-57.79834c0-2.40869-1.95947-4.36865-4.36816-4.36865-15.13721,0-27.45215-12.31494-27.45215-27.45215v-66.79736c0-21.56592,17.54492-39.11084,39.11035-39.11084h70.39893c9.91846,0,19.48145,4.16553,26.23584,11.42871,6.75439,7.26367,10.21631,17.10303,9.49707,26.99561l-16.09717,221.44922c-4.18652,57.59766,11.71191,115.39746,44.7666,162.75244l115.61768,165.63525c7.76416,11.12305,21.76025,16.19141,34.84326,12.62793l220.18359-64.12402c20.49316-5.96875,42.24805-6.29883,62.91211-.95312,26.20312,6.78125,53.7666,3.45215,77.60547-9.36719l84.68945-45.54004c23.28418-12.52051,51.92676-4.42285,65.20703,18.43652,7.7041,13.25781,9.64746,28.68457,5.47461,43.43945-4.17383,14.75586-13.91211,26.87891-27.41992,34.1377l-81.35449,43.7168-570.375,305.02441c-7.42188,3.96875-15.54883,5.95312-23.67236,5.95312ZM636.28516,298.66895c-12.89014,0-23.37695,10.48682-23.37695,23.37695v341.50488c0,43.08691,18.65039,84.01074,51.16943,112.27637l22.84766,19.86035c9.98975,8.68262,22.76123,13.99316,35.96191,14.95117,17.67578,1.2832,31.53564,15.03613,32.95605,32.7002l8.2334,102.37109c.83154,10.33594,6.52783,19.11328,15.62939,24.08203,9.09961,4.9668,19.56396,5.01172,28.70654.12305l570.35791-305.01465,81.33691-43.70703c8.69043-4.66992,14.95605-12.4707,17.6416-21.96387s1.43457-19.41895-3.52148-27.94922c-7.83008-13.47559-24.71777-18.25098-38.44238-10.86816l-84.68945,45.54004c-28.28809,15.21191-60.99023,19.15723-92.08691,11.11523-17.18262-4.44629-35.27051-4.1709-52.31152.79199l-220.41406,64.18945c-21.24414,5.83691-43.99268-2.38086-56.604-20.44824l-115.61816-165.63525c-35.67383-51.10693-52.83252-113.4873-48.31396-175.6499l16.09717-221.44922c.32227-4.43408-1.16748-8.66943-4.19531-11.92529s-7.14404-5.04883-11.59033-5.04883h-70.39893c-10.5376,0-19.11035,8.57324-19.11035,19.11084v66.79736c0,4.10938,3.34277,7.45215,7.45166,7.45215,13.43701,0,24.36865,10.93164,24.36865,24.36865v57.79834c0,22.74512-18.50439,41.24951-41.24951,41.24951h-30.83496Z" style="fill: #fff;"/>
</svg>