<svg id="Inactive" xmlns="http://www.w3.org/2000/svg" viewBox="0 0 1920 1080"><defs><style>.cls-1{fill:#a7a9ac;}</style></defs><path class="cls-1" d="M1453.27,247.29c0-1.33-.25-4.26-.52-7.68-.42-5.25-1-11.64-1.31-15.12l0-.18h0a4.41,4.41,0,0,0-.21-1c-.84-2.52-3.94-5.85-7.09-6l-.88-.11a44,44,0,0,1-4.54-.84c-1-.25-2.16-.55-3.4-.94a17.09,17.09,0,0,1-6.48-3.83c-.68-.61-1.28-1.22-1.85-1.79l-.33-.33c-1.69-1.7-4.38-5.34-3.72-8.27a82,82,0,0,1,2.73-8.76l.29-.81a71,71,0,0,1,5.23-11.31,22.63,22.63,0,0,0,2.71-6.64,6.89,6.89,0,0,0,.16-.95,14.58,14.58,0,0,0-1.5-8.09c-.13-.25-.28-.49-.43-.73-1.4-2.18-6.07-7.94-10-12.54-2.43-2.89-4.55-5.32-5.37-6.14a11.72,11.72,0,0,0-5.22-2.9l-.62-.15a9.66,9.66,0,0,0-1.21-.16c-.49,0-1.07,0-1.68-.05l-1.11,0c-.45,0-.9,0-1.34-.06a14.33,14.33,0,0,1-1.83-.22,21.93,21.93,0,0,1-4.43-1.74,25.68,25.68,0,0,1-3.5-2c-.13-.09-.27-.21-.43-.34a29.15,29.15,0,0,1-5.91-8.05c-1.38-3-4.43-5.38-6.36-6.8l-.46-.34-.16-.11-.4-.29-.1-.08a12,12,0,0,0-2.37-1.14l-.43-.16-.21-.08-.32-.12-.07,0-.55-.19c-.77-.27-1.61-.55-2.48-.83s-1.71-.55-2.17-.73l-.17-.07-.54-.19-.15,0-.35-.12c-.94-.31-2.14-.68-3.32-1-.91-.28-1.89-.58-2.57-.81l-.78-.27a17.13,17.13,0,0,0-2.87-.65A44.93,44.93,0,0,1,1356,114c-.53-.21-1.11-.47-1.72-.77-1.74-.85-3.67-2-5-2.71l-.78-.45-.67-.37-.25-.14-.6-.38c-.29-.19-.63-.41-1-.63a12.06,12.06,0,0,0-3.51-1.5,10.59,10.59,0,0,0-1.37-.23,12,12,0,0,0-4.42.36c-.29.07-.59.16-.89.26a10.77,10.77,0,0,0-4.51,3.21,13.55,13.55,0,0,0-.93,1.19c-.84,1.21-3.05,4.46-5,7.35l-1.54,2.26-1.3,1.91-.63.93a9.92,9.92,0,0,0-1.71,8c.06.36.13.73.19,1.1v0l0,.22a63.13,63.13,0,0,1,.92,6.3c0,.27,0,.52,0,.75a7.53,7.53,0,0,1-.48,2.67,13.14,13.14,0,0,1-.74,1.58c-.18.32-.37.64-.58,1-.66,1.08-2.3,3.38-3.61,5.23l-.36.51c-1,1.4-1.62,2.29-1.84,2.66a7.3,7.3,0,0,1-.81,1,33,33,0,0,1-4.84,4.42c-.76.56-1.58,1.18-2.4,1.81-.42.31-.83.63-1.24.95l-2.44,1.86-1,.74-.47.3a11.53,11.53,0,0,0-1.26.94l-.15.13-.87.7-.27.21a10.1,10.1,0,0,1-3.47,1.89,56.92,56.92,0,0,1-9.32,1.15l-.88,0h-.26a29.41,29.41,0,0,0-6.8.92,9.44,9.44,0,0,0-1,.35c-.62.25-2.73.88-5.28,1.61l-2.44.71-2.77.79c-2.17.63-4.24,1.24-5.84,1.74-1.09.35-2.13.65-3.1.93l-1.67.47a35.85,35.85,0,0,0-6.34,2.17,57.06,57.06,0,0,0-7.4,5.34l-2.16,1.77a7.2,7.2,0,0,0-.71.64l0,0-.12.12-.11.12,0,0a20,20,0,0,0-3.92,7.81c-.62,2.07-3.45,3.21-4.28,3.21a4.89,4.89,0,0,1-4.64-3.57c0-.13-.07-.27-.1-.41a4,4,0,0,1,.41-2.75,2.38,2.38,0,0,1,.18-.3,5.27,5.27,0,0,1,.49-.63,5.66,5.66,0,0,1,.7-.64,5.74,5.74,0,0,1,.58-.4c.62-.37,1.74-1,3.11-1.69l1.82-1c.34-.18.74-.41,1.17-.69,1-.65,2.23-1.51,3.42-2.36,1-.73,2.07-1.47,2.86-2,.33-.21.61-.38.83-.49,1.66-.83,3.61-2.54,6.21-5l.44-.42a26,26,0,0,1,6-4.59c.63-.33,1.46-.84,2.4-1.46l.58-.39c.75-.51,1.56-1.07,2.39-1.66l.22-.17.25-.17c2.37-1.72,4.84-3.61,6.57-5a11,11,0,0,0,4-8.51c0-.71,0-1.31,0-1.75a5.52,5.52,0,0,0-.61-2.27h0a16.41,16.41,0,0,0-3-3.76,4.93,4.93,0,0,0-2.56-1.39,10.73,10.73,0,0,0-5.69.51c-.88.31-2.27.68-3.74,1.06-1.18.3-2.42.59-3.48.85l-1.92.46-.7.16a26.08,26.08,0,0,1-3.39.34c-.78,0-1.57.06-2.36.09l-1.19,0c-.26,0-.58,0-1,.07-2.08.19-5.76.75-9.3,1.29l-1.29.2c-2.28.35-4.44.69-5.67.85a44.32,44.32,0,0,0-5.49,1,25.39,25.39,0,0,0-3.51,1.15,7.94,7.94,0,0,0-1.77,1.08l-.26.21c-.69.56-1.43,1.25-2.32,2.09s-1.87,1.76-3.11,2.85l-.43.37c-2.21,1.91-7.3,5.74-11.87,9.06-3.75,2.72-7.16,5.09-8.35,5.77-2.6,1.47-13.9,7.68-17.53,8.86a52.05,52.05,0,0,1-10.84,1.9,10.93,10.93,0,0,1-3.35-.25,21.69,21.69,0,0,1-2.93-1c-.44-.17-.9-.36-1.4-.58-2.72-1.15-11.78-6-17.07-9-1.66-.92-2.94-1.65-3.55-2a62.89,62.89,0,0,1-9.75-8.22,34.71,34.71,0,0,0-7.67-5.65,46.94,46.94,0,0,0-5.29-2.6c-2.22-.9-4.46-1.66-6.66-2.35-.71-.23-1.42-.44-2.12-.65l-1.1-.34-.65-.19-1-.3-3.2-1-.42-.14-1.88-.6a108,108,0,0,0-10.51-3.07l-.68-.12-.14,0h0c-2.34-.39-7.19-1.05-11.89-1.7-4.46-.6-8.67-1.18-10.33-1.47-2-.34-6.42-1-10.62-1.5l-.46-.06-.64-.07-2.59-.29-.61-.06-.58,0c-1.15-.11-2.14-.17-2.88-.19-2.32-.06-6.23-.05-10.4,0-2.32,0-4.72.09-7,.16-6.09.19-10.55-.31-13.24-1.49-1-.46-2.45-1.06-4-1.72l-.64-.27c-2.56-1.11-5.22-2.25-6.42-2.8l-.71-.31-1-.45c-3.61-1.61-11.1-5-13.9-6.48a88.82,88.82,0,0,1-7.74-5.06l-.06,0-.38-.28,0,0-.26-.19-.16-.12-.24-.18-.16-.12-.64-.5-.14-.1c-1.52-1.18-2.79-2.24-3.86-3.13l-1.19-1-.38-.32c-2.33-1.87-6.17-7.3-7.8-9.62l-.08-.11-.62-.88c-.61-.82-.89-1.55-1.8-4.07l-.13-.36c-.33-.9-.71-1.95-1.2-3.26l-.18-.5,0,0c-.13-.35-.26-.71-.41-1.09a47.06,47.06,0,0,1-2.5-13.32c0-.95,0-1.88-.07-2.85,0-.34,0-.69,0-1,0-1.74-.09-3.57-.31-5.73-.15-1.51-.23-3.13-.25-4.79V69.6h0A151.65,151.65,0,0,1,952,51.7c.1-.74.19-1.51.28-2.3l.09-.78c0-.13,0-.26,0-.39.3-2.74.56-5.43.6-6.93,0-.15,0-.28,0-.4s0-.26,0-.41a41.27,41.27,0,0,0-1.92-10c-.09-.23-.19-.45-.28-.65a7.42,7.42,0,0,0-2-2.57,9.83,9.83,0,0,0-1.65-1.09,12.93,12.93,0,0,0-4.84-1.36l-.47,0h-.28a14.49,14.49,0,0,0-7.88,2.5l-1.41.88c-1.18.74-4.8,3.3-8.73,6.12-5.59,4-11.81,8.54-12.54,9.13l0,0a15.08,15.08,0,0,1-5.11,2.34h-.06l-.58.13-.39.07-.76.16h0c-.44.09-.71.14-3.65.65l-3.36.58c-8.32,1.43-25.2,4.67-35.26,7h0a261.41,261.41,0,0,0-27.9,9.33,50,50,0,0,0-5.8,2.66,7.1,7.1,0,0,0-3.64,4.44c0,.06,0,.12,0,.18l0,.14a13.54,13.54,0,0,0,0,4c0,.24,0,.49.07.73l.06.73a45.6,45.6,0,0,1-.73,9.73c-.42,2.22-3.18,7.49-5.67,10.25l-.35.37a6.64,6.64,0,0,1-5.54,2.2c-.34,0-.69,0-1-.1s-.76-.13-1.28-.24c-3.16-.69-9.54-2.51-15-4.16l-.93-.27a18.21,18.21,0,0,0-4.86-.79h-.19c-.45,0-.86,0-1.28.05s-.89,0-1.39,0-1.17,0-2.28.06l-.75,0-.6,0-1.1,0h-.24c-7.51.28-21.09.91-26.62,1.32-7.49.56-9.36,4.07-10.6,6.4l-.18.35a6.82,6.82,0,0,1-2.5,3,2.56,2.56,0,0,1-.64.22,4.39,4.39,0,0,1-2.13-.2l-.11,0c-1.22-.48-2.61-1.68-3.23-4.58a17,17,0,0,0-1.35-4v0h0A10.29,10.29,0,0,0,731,92.74l0,0-.18-.13a3.59,3.59,0,0,0-.33-.25l-.15-.12-.19-.15C729,91.15,712.44,79.34,708,76.26c-.45-.31-.89-.59-1.33-.85a21.77,21.77,0,0,0-8.75-3c-.79-.12-1.58-.21-2.38-.3h-.1l-.12,0c-4-.47-5.72.34-8.75,1.82l-.21.1-.21.1a18.18,18.18,0,0,0-4.86,3.15l-.47.42-.3.24a30.92,30.92,0,0,0-4.3,5.65c-.62.93-1.26,1.89-1.85,2.72l-.26.36a62.52,62.52,0,0,0-5.56,9.09,10.47,10.47,0,0,0-.44,3.2c0,.58-.05,1.25-.1,2.08,0,.27,0,.55-.07.85-.18,2.31-.28,3.46-1.51,5a19.55,19.55,0,0,1-2,2.11c-1.3,1.22-3,2.61-4.72,4-2.34,1.81-4.83,3.59-6.83,4.91l-.21.14a92.42,92.42,0,0,1-9,4.72l-.07,0-.5.23-.14.07-.29.14-.38.17-.3.14-.16.08-.26.12-1.43.66-.3.14-.42.19-2.55,1.15a11.07,11.07,0,0,0-4.65,3.22,3.41,3.41,0,0,0-.28.42,8,8,0,0,0-1.07,3.44c0,.26-.06.53-.08.79a7.55,7.55,0,0,0,1.1,4.56c.07.13.15.25.23.38a10.42,10.42,0,0,0,1.79,2l.54.46c.26.22,1.21.94,2.55,2,3.45,2.59,9.52,7,13.21,9.36a21.57,21.57,0,0,0,2.34,1.29A14,14,0,0,0,661.1,155h.09a11,11,0,0,1,6,.45c.3.13.6.28.91.45s.59.35.85.53l.3.22.11.09a5.37,5.37,0,0,1,.44.37A7.52,7.52,0,0,1,671.9,161c.05.2.12.49.21.84.33,1.4.85,3.86,1.39,6.43.42,2,.88,4.21,1.32,6.19s.8,3.62,1.13,4.86a17.24,17.24,0,0,1,.23,8.47h0c0,.19-.09.37-.13.54l-.1.39a23.8,23.8,0,0,1-1.8,4.65,17.59,17.59,0,0,1-1.36,2.21l-1.24,1.67c-.81,1.09-1.63,2.16-2.48,3.28l-2.73,3.61-.45.59a62.41,62.41,0,0,1-4.53,5.45,42.57,42.57,0,0,1-4.35,4c-2.71,2.17-7.8,6.88-11.89,10.66l-3.63,3.35c-.59.54-1.09,1-1.46,1.31s-.64.58-1,.91c-2.46,2.37-5.71,6.14-7.38,8.08l-.06.07-.45.52-.24.28-.3.35-.39.44a16.55,16.55,0,0,1-3.3,3.21l-1.67,1.2-.65.48c-2.5,1.8-6.43,4.66-8.82,6.2-.4.26-.75.48-1,.65-3,1.74-12.76,10.5-13.36,11.11h0a1.29,1.29,0,0,0-.16.17h0a8.88,8.88,0,0,0-1.76,4.95,8.6,8.6,0,0,0,2.11,5.57h0l.25.25a7.51,7.51,0,0,1,2.28,3.6,3.51,3.51,0,0,1,.08,1.49c0,.15,0,.3-.09.45a13.46,13.46,0,0,1-1.6,3.74c-.15.26-.29.48-.39.64l0,0c-.61,1-1,1.65-6,4.28a12.72,12.72,0,0,0-6.94,10.14c0,.36-.06.74-.07,1.14,0,.6,0,1.24,0,1.95v0c0,.15,0,.31,0,.47V302c0,1.64.12,3.64.27,6.26.24,7.17-.48,8.82-1.57,11.3l-.11.24-.17.41c-.07.15-.13.3-.2.46-1.35,3.23-7.15,16.6-9.53,20.62-2.14,3.63-6.79,8.57-8.62,10.35l-.34.32c-.11.11-.27.26-.47.43-2.18,1.91-8.94,7.45-11.42,9.27-.26.19-.53.4-.8.62-2.23,1.77-5,4.43-6.88,6.26l-.75.73-.42.39-1.91,1.87-2.37,2.36-1.83,1.82c-2,2-4,4-4.93,4.81l-.22.2-.34.31c-.73.67-1.83,1.67-2.87,2.59a25.53,25.53,0,0,1-2.81,2.29c-.52.26-2,1.11-3.76,2.1-1.07.61-2.16,1.23-3,1.71-.29.17-.57.32-.8.44a40.85,40.85,0,0,0-5.36,4.29c-1.69,1.53-3.17,2.95-3.54,3.37a5.57,5.57,0,0,1-.69.62,43,43,0,0,1-6.61,3.88c-2.38,1.21-11.31,4.57-19.18,7.52-5.71,2.15-11.15,4.19-14,5.37-.64.26-1.14.48-1.48.65l-.41.21c-4.12,2.29-5.37,7.4-5.18,10.17,0,.26,0,.51.08.76.38,2.72,1.78,4.77,4.79,7.1a46.94,46.94,0,0,0,9.23,4.81l1.51.65c1.69.73,3.43,1.48,5.2,2.29a72.61,72.61,0,0,1,12.17,7.31l.22.16.76.58.46.37h0c.34.28.64.54.89.76l.07.07.35.33.19.19.32.31c.78.77,1.92,1.89,3.16,3.27a30.47,30.47,0,0,1,6.34,10.06c1.54,4.62,9.06,23.76,14.37,37.06l.71,1.77.51,1.28c.28.69.55,1.36.8,2,.42,1,.81,2,1.16,2.85l.13.33,1.12,2.74.09.22c.12.29.23.55.32.78l.26.61.11.26c2.37,5.62,5.3,14.06,6.48,18.24a101.26,101.26,0,0,1,2.65,14.67c.07.92.17,2.26.28,3.83.29,4.15.66,9.89.89,13.58l0,.36c0,.09,0,.19,0,.29a99.19,99.19,0,0,1-.17,12.91q0,.24,0,.39c-.11,1.27-1.08,6.85-1.86,11.26l-1,5.42c0,.19-.08.43-.13.73l-.05.28c-.06.35-.13.76-.21,1.2A31.88,31.88,0,0,1,537.3,605c-.06.15-.15.33-.24.54L535,610.1c-1.88,4.17-4.23,9.37-5,11.08a18.33,18.33,0,0,0-2.3,7.42,35.19,35.19,0,0,0,0,4.84c.06,1.09.14,2.25.22,3.51,0,.21,0,.43,0,.64,0,.68.09,1.38.14,2.11a22.6,22.6,0,0,0,2,9.09c.06.12.11.24.17.37l0,.07c1,2,11.29,15.48,19.35,25.93l.61.8.29.37.31.4.28.36.27.35,1.42,1.84.57.73c3,3.93,5.33,6.85,5.93,7.59q.68.82,1.47,1.71c.12.12.23.24.34.37l.49.51c1.13,1.19,2.41,2.41,3.79,3.65l.37.33.48.42.52.45,1,.81c.63.52,1.28,1,1.94,1.57,3,2.35,18.31,13.6,28.43,21l7.87,5.8.86.63a17.63,17.63,0,0,1,4,3.73l.17.24h0l.28.44c.14.24.27.47.4.72l.21.38c.61,1.1.65,3.23.68,4.64,0,.29,0,.55,0,.79s0,.24,0,.36,0,.3,0,.48v.23a9.55,9.55,0,0,0,2,6.31c.21.29.43.55.65.8,2.15,2.37,4.88,2.85,7.76,3.36h.08l.85.16c.85.15,2.08.39,3.51.67l7,1.4.55.12.2,0,5.24,1,.68.13a5.46,5.46,0,0,1,3.61,2.12,6.12,6.12,0,0,1,.76,1.6c.07.22.14.57.22,1,0,.1,0,.2.05.31a16.44,16.44,0,0,0,1.64,5.32c1,1.77,3.8,4,8.59,6.9l.13.08.24.15a8.34,8.34,0,0,1,2.86,3.4c.08.23.21.56.38,1l0,.11.07.15c.34.79.8,1.8,1.31,2.85a38.93,38.93,0,0,0,3,5.43,30.85,30.85,0,0,0,2.63,2.88,22.29,22.29,0,0,0,3.5,2.78h0l.48.29a10.25,10.25,0,0,0,5.08,1.57,6.77,6.77,0,0,0,2.87-.63h0l0,0,0,0h0a17.24,17.24,0,0,1,5.93-2.5,11.47,11.47,0,0,1,3.54-.14h.15l.46.05.21,0c.55,0,1.39.13,3,.35l1.6.23,1.82.24c1.41.19,3,.38,4.63.57,2.47.29,5,.59,6.53.83h.1l.4.07.13,0a21.3,21.3,0,0,1,4.31,1.46h0c1.59.69,3.49,1.61,5.73,2.78,1.14.6,2.22,1.21,3.32,1.83l1.21.7c1.25.72,2.58,1.5,4.1,2.32,1.36.74,2.86,1.52,4.58,2.35a2.2,2.2,0,0,0,.31.15l.11.06.2.09.13.06.18.07.14.07.16.06.15.07.16.06.15.06.14.06.16.06.14,0,.16.06.14,0,.16.06.13,0,.16.06.13,0,.16,0,.12,0,.17.05.12,0,.16,0,.12,0,.17,0,.11,0,.17.05.11,0,.16,0,.11,0,.17,0,.1,0,.17,0,.1,0,.17,0,.09,0,.17,0,.1,0,.16,0,.1,0,.16,0,.09,0,.17,0h.09l.17,0h.08l.17,0h.07l.18,0h.06l.19,0h0l.64,0H740c.28,0,.55,0,.82,0h0l.39,0h0l.37,0h0l.37,0h0l.35-.06h0l.34-.06h0l.33-.06h0l.32-.06h0l.31-.07h0l.31-.08h0l.3-.08h0l.29-.08h0l.29-.09h0l.28-.09c3.32-1,5.6-2.22,11.12-5.06l.23-.12,1.15-.59c6.15-3.17,8.41-5.86,10.79-9.64.06-.1.12-.2.19-.3l.12-.2.2-.32.12-.2c.9-1.48,1.69-3.07,2.53-4.77l.14-.3A50.57,50.57,0,0,1,778.1,769c1.51-1.85,3-2.76,4.33-2.71h0a3.36,3.36,0,0,1,2,.78l.09.08a4.74,4.74,0,0,1,.73.78l.36.54c.45.66,1.2,1.79,2,3l1.64,2.47h0c.13.2.27.4.4.61l0,0,.35.53.08.12.31.46.11.17.3.45,0,.07v0c.31.46.6.9.88,1.3l0,0h0l.87,1.28,0,.05,3.78,4.13,0,.16a.32.32,0,0,1,0,.09l0,.07a1.21,1.21,0,0,0,0,.18l0,.07a.31.31,0,0,1,0,.08c0,.06,0,.12.05.18l0,.06a.29.29,0,0,0,0,.09s0,.11,0,.17v0a.29.29,0,0,1,0,.09,1.16,1.16,0,0,1,0,.18v0s0,.07,0,.1l0,.17v0a.36.36,0,0,0,0,.11l0,.17a.51.51,0,0,0,0,.13c0,.05,0,.11,0,.16s0,.08,0,.13a.77.77,0,0,0,0,.15s0,.08,0,.12,0,.1,0,.15a.53.53,0,0,1,0,.13.61.61,0,0,1,0,.14.49.49,0,0,1,0,.12.57.57,0,0,0,0,.13v.72a.49.49,0,0,0,0,.12v.1a.49.49,0,0,0,0,.12.31.31,0,0,0,0,.1s0,.08,0,.12a.19.19,0,0,0,0,.08s0,.08,0,.12a.22.22,0,0,1,0,.08s0,.08,0,.12,0,0,0,.07a.36.36,0,0,1,0,.11s0,.05,0,.07a.52.52,0,0,0,0,.11l0,.07s0,.07,0,.1l0,.07a.29.29,0,0,0,0,.09l0,.06,0,.1,0,.06,0,.08a.14.14,0,0,1,0,.06.25.25,0,0,0,0,.07l0,.07a.14.14,0,0,0,0,.06l0,.06v.06l0,0,0,0,0,.05,0,0,0,0-.08.13,0,0v0l0,0a7.35,7.35,0,0,1-1.43,2,7.75,7.75,0,0,1-3.18,1.8l-.2.07h0l-.18.07h0l-7.36,1.5-8.84,1.89h-.06l-.21,0-4.19.9h-.05l-.16,0h0l-.24,0-1.38.3h-.05l-.4.09h0l-.19.05h0l-.19,0h0l-.18.06h0l-.17.06,0,0-.17.06,0,0-.15.07-.06,0-.14.06-.06,0-.15.07-.07,0-.13.06-.08,0-.13.07-.08,0-.12.07-.1.06L766,800l-.1.06-.1.06-.11.07-.09.05-.13.09-.07.05-.14.09-.06,0-.16.11,0,0-.17.13,0,0a1.33,1.33,0,0,1-.19.14h0a12.29,12.29,0,0,0-1,.81l-.37.36-.34.36-.34.38a12.12,12.12,0,0,0-2.05,5.05c-.06.25-.13.53-.19.76a2.38,2.38,0,0,1-.17.52c-.06.12-.12.23-.17.34l-.08.15v0a.41.41,0,0,1,0,.09v0l0,0-.05.07,0,0a4.07,4.07,0,0,1-2.27,1.12l-.3.08-.3.07-.33.07c-1.89.42-5.11,1.18-8.52,2l-1.31.31c-3,.72-6.08,1.43-8.42,2-1.55.35-5.88,1.36-11.35,2.64l-.21.05-1.19.28c-9.75,2.28-22.48,5.28-29.79,7l-5.19,1.26c-1.85.35-4.66,1.28-8.95,4.92l0,0-.21.18-.14.13-.11.09c-.85.74-1.75,1.58-2.71,2.54l0,0c-1.5,1.59-5.6,6.46-9.56,11.16-.6.71-1.18,1.41-1.76,2.08l-2.29,2.72c-1.57,1.85-2.78,3.25-3.25,3.75-.63.66-2.61,2.92-5,5.65l-1,1.14c-4.25,4.9-9.27,10.75-10.15,11.8l-.06.07c-.13.15-.3.33-.5.53a11.49,11.49,0,0,0-1.75,2.07v0h0a14.28,14.28,0,0,0-1.89,5.33c0,.2-.07.4-.1.61v.26c0,.21,0,.44,0,.71a8.42,8.42,0,0,0,3.8,7.42c.28.21.59.42.92.63h0c1.68,1,5.85,3,9.55,4.75,2.37,1.1,4.54,2.07,5.77,2.59l.64.27.07,0a24.11,24.11,0,0,1,3.51,1.67,9.41,9.41,0,0,1,1.48,1.09l.28.27a5.07,5.07,0,0,1,1.51,4.41h0c0,.19-.06.38-.1.57-.6,1.91-.6,1.92-.88,2.72-.14.4-.36,1-.76,2.19-1.91,5.58-3.34,9.77-4.42,12.88l0,.17-.12.35-.15.42,0,.07-1.7,4.9c-.89,2.56-1.48,4.21-1.73,4.87-.68,1.79-3.75,10.52-6,16.89-1.14,3.22-2,5.76-2.31,6.53-2.13,5.93-3.05,10.47-2.72,13.5A29.54,29.54,0,0,0,649,978c.37,1.22.78,2.59,1.26,4.58a13.51,13.51,0,0,1-3.11,10.85,57.45,57.45,0,0,1-5.29,5.36l-.9.83c-.91.84-3.72,3.5-7.28,6.87-6.12,5.8-14.5,13.73-18.11,17a8.48,8.48,0,0,0-2.43,2.58,9,9,0,0,0-1,6.41,6.75,6.75,0,0,0,3.23,4.11,7.07,7.07,0,0,0,3.53.89,10.7,10.7,0,0,0,4.09-.89l.08,0c1.28-.68,2-1.79,3.49-4.22.44-.7.94-1.5,1.55-2.45l1.07-1.67c2.18-3.39,4.24-6.6,8.11-11.83a51.85,51.85,0,0,1,9.58-10l1.06-.89c7-5.91,11.81-9.66,14.42-11.15,3.72-2.12,14.47-7.88,18.17-9.54l0,0,0,0,.39-.2c1.44-.7,5.25-2.55,6.57-4.83a7.73,7.73,0,0,0,.54-6,5.79,5.79,0,0,0-3.17-3.62c-2.52-1.14-10.42-4.91-11.63-5.8l-.19-.13a12.83,12.83,0,0,1-4.76-5.74c-.41-1.06-1.34-3.54.75-9.19h0c.92-2.59,4.9-13.94,6.31-18.1h0l0-.07.07-.22,0-.08,0-.06.25-.75h0l0-.1c.15-.45.4-1.17.71-2l.37-1a73.35,73.35,0,0,0,2.73-8.33v-.09c.06-.31.17-.87.31-1.62.28-1.53.72-3.87,1.23-6.58l.07-.39.06-.32h0l.23-1.25.16-.86.07-.36c.18-1,.37-2,.56-3v0l0-.17a.44.44,0,0,0,0-.1c0-.05,0-.1,0-.15a.59.59,0,0,0,0-.13.57.57,0,0,0,0-.14l0-.13,0-.12s0-.09,0-.14l0-.1s0-.11,0-.16l0-.1c0-.06,0-.11.05-.16l0-.1,0-.16,0-.08.06-.17,0-.06.06-.19,0-.06a1.34,1.34,0,0,1,.07-.18l0-.06.06-.18,0-.07c0-.05,0-.11.07-.17v0c0-.07,0-.13.08-.19l0-.07.06-.16,0-.09.06-.14,0-.12a.42.42,0,0,0,0-.1l.09-.19v0a23.52,23.52,0,0,1,1.49-2.7,23.16,23.16,0,0,1,5.51-5.21l.06,0,.39-.24a6,6,0,0,1,1.34-.58h0l.11,0a4,4,0,0,1,.1,1.91v0c0,.12,0,.24,0,.36v0a12.32,12.32,0,0,0,.33,2.86v0l0,.08h0a14.71,14.71,0,0,0,.78,2.38l0,.07,0,.08a3.1,3.1,0,0,0,.79,1.26l0,0,.1.06.12.09c1.45,1,3.4.12,6.07-1.55,4.71-3,11.43-7.27,16.74-11.2a122.35,122.35,0,0,0,13.41-12.27l.3-.31c.17-.17.3-.31.4-.4h0l8.7-8.67c5-5,10.58-10.47,12.29-12l2.89-2.74.3-.28c3.89-3.71,10.48-10.06,16.92-16.26l10.47-10.06.42-.41.33-.31c2.23-2.15,3.78-3.62,4.14-3.95l.18-.16h0l0,0,0,0,0,0,.06-.06,0,0,.08-.07h0l.13-.12,10.42-9.83.58-.49c3.27-2.79,12-10.2,16.57-13.18h0l4.28-2.9h0l.09-.06,2.5-1.69a15.85,15.85,0,0,1,1.9-1l.1,0,0,0a5.84,5.84,0,0,1,2.38-.55,4.57,4.57,0,0,1,1.12.16H829l.08,0h0l.08,0,.41.11a3,3,0,0,0,.43.09c.33.06.69.16,1.07.27a8.46,8.46,0,0,0,5.94-.13,8.17,8.17,0,0,0,2.28-1.22c1.6-1.25,2.3-3,3-5,.07-.21.15-.43.22-.65l.06-.17.06-.18a18.54,18.54,0,0,1,4.21-6.36c.46-.47.88-.86,1.23-1.16,1.87-1.59,10.55-9.72,13.78-13h0l.28-.3,0,0c3.19-3.45,6.51-10.87,7.45-13.27a22.09,22.09,0,0,1,2.43-3.85c1.43-1.94,3.14-4,4.23-5.28l.3-.34,1.8-2,.38-.43c3.31-3.75,9.37-10.61,15.21-17.35,2.38-2.74,4.73-5.47,6.83-8,8.14-9.62,11-11.83,16.3-15.23l1.51-1,.11-.07.21-.14c1.76-1.12,7.61-4.62,15.55-9.33L936,685c11.87-7,27.9-16.47,41.95-24.74l3.2-1.89,17-10c2.65-1.56,4.77-2.82,6.19-3.67l2.31-1.39.53-.32c4.43-2.67,13-7.86,18.34-11l.21-.13c1.86-1.09,3.27-1.92,3.92-2.27,1.87-1,28.5-16.35,52-29.88,17.18-9.89,32.05-18.45,35.25-20.27l.15-.08,1.52-.86.43-.24.23-.13c8.83-4.93,38.23-21.21,60.57-33.57l.58-.33,18.08-10,10-5.55.72-.4,1.72-1c1.16-.63,2.39-1.3,3.48-1.92s1.85-1.07,2.44-1.47c5.48-3.75,8-10.28,9.22-15.1v0a22.59,22.59,0,0,0,.26-3.76h0v-.34a28,28,0,0,0-.49-5.25c0-.08,0-.17,0-.25-.7-3.13-2.48-10.34-3-11.58a20.14,20.14,0,0,0-1.25-2.29l-.19-.31c-.26-.43-.55-.91-.86-1.44-.43-.73-.9-1.55-1.43-2.5-.29-.53-.59-1-.88-1.49a14.29,14.29,0,0,0-3.59-3.92,10.77,10.77,0,0,0-1.73-1,14.26,14.26,0,0,0-1.63-.72l-.82-.27-.76-.22-.65-.19-.89-.26-.72-.24c-1.2-.4-3.89-1.36-7.11-2.56-4.25-1.58-9.42-3.57-13.32-5.2l-.33-.14-.6-.26-.47-.2-.82-.37-.74-.35-.09-.05a40,40,0,0,1-5.4-3.07,22.08,22.08,0,0,1-3.2-2.6c-.32-.32-.84-.9-1.45-1.62a66.47,66.47,0,0,1-5.37-7l-.15-.35a4.18,4.18,0,0,1-.24-2.53c.37-1.69,1.77-3.44,4.16-5.21h0c.32-.25.7-.52,1.12-.81,2.08-1.44,5.16-3.27,7.51-4.68l.1-.05,2.14-1.29,1-.59.23-.15,1.21-.88c3.1-2.33,9.56-7.16,15.78-5.4,3.5,1,5.78,3.32,8,5.57l1.18,1.18.22.22.1.09.12.06a7.41,7.41,0,0,1,.74.7l.36.37c.55.57,1.23,1.26,2,2,2.61,2.41,6.54,5.24,11.63,5.24a14.2,14.2,0,0,0,1.7-.1c4.34-.35,8.08-.68,11.45-1.26a40.25,40.25,0,0,0,6.92-1.74l2.86-1,6.46-2.43,5.1-1.92c2.39-.89,4.42-1.64,5.46-2a19.74,19.74,0,0,1,2.24-.56c.39-.08.8-.16,1.23-.23,1-.17,2.07-.34,3.32-.54,1.59-.25,3.41-.54,5.47-.9.88-.16,1.79-.32,2.75-.51l1.85-.37c.84-.17,1.62-.36,2.36-.57a21.77,21.77,0,0,0,8.28-4.08l0,0,.18-.16.08-.06.27-.24.06-.06c.46-.42.84-.8,1.17-1.13s.37-.38.53-.53a71.38,71.38,0,0,1,6.07-4.49l.44-.3a5.32,5.32,0,0,1,.86-.42c.46-.19,1-.4,1.72-.64l1-.36c1-.37,2.15-.81,3.44-1.37l.59-.27c3.49-1.57,5.46-4,7.74-6.75l.16-.2,1.09-1.31c2.65-3.15,4.79-7.88,6.07-10.7.11-.23.2-.44.3-.64l.21-.48c.19-.4.39-.86.62-1.4s.51-1.19.82-1.89a58.1,58.1,0,0,1,7.85-12.65l.28-.34c1.26-1.44,4.38-4.44,7.58-7.46l4.18-3.93,3.68-3.45.89-.87a10.9,10.9,0,0,1,5.71-2.64l1.09-.2.55-.09.8-.13,1-.15a32.65,32.65,0,0,0,12.45-3.86l.1-.06.41-.24.1-.06.29-.18.21-.14.18-.12.32-.21a19.16,19.16,0,0,0,3.42-2.93l.14-.14.18-.2c.43-.46.85-.95,1.24-1.44a18.12,18.12,0,0,0,3.17-5.47,7.43,7.43,0,0,0,.27-1.13,56.15,56.15,0,0,0,.23-10.94v0c0-.14,0-.28,0-.4s0-.24,0-.34h0c0-1.13-.09-2.81-.08-4.49a36.54,36.54,0,0,1,.25-4.55v-.05c0-.31.1-.62.14-.93.17-1,.32-2,.4-3.14a22.51,22.51,0,0,0-.08-4.13c-.11-1-.23-2.12-.34-3.19-.28-2.58-.54-5-.67-6.56,0-.21,0-.4-.06-.59-.13-1.33-.21-2.12,1-5.78.27-.82.61-1.78,1-2.91.59-1.62,1.38-3.48,2.24-5.31a36.91,36.91,0,0,1,4.24-7.23c2-2.36,10.23-12.33,11.33-14.23a6,6,0,0,0,.3-.56,16.82,16.82,0,0,0,1.07-3.43c.17-.73.33-1.42.55-2.08l.12-.36a9.29,9.29,0,0,1,1.18-2.63,6.29,6.29,0,0,1,.53-.68l.25-.26a5.66,5.66,0,0,1,.57-.5,7.87,7.87,0,0,1,3-1.39,17.94,17.94,0,0,1,6.77-.1l2.45.37,1.8.28c2.9.44,4.59.7,7.61,1.2l1.59.27a63.06,63.06,0,0,0,13.09.65,12.65,12.65,0,0,0,2.56-.35h0l.29-.07a9.71,9.71,0,0,0,4.74-2.79C1452.64,253.78,1453.47,250.91,1453.27,247.29Zm-786,701.32c-2.34,6.33-1.21,9.26-.73,10.51v0a14.6,14.6,0,0,0,5.38,6.51l.18.14c1.57,1.15,10.77,5.45,12,6a4,4,0,0,1,2.18,2.51,5.89,5.89,0,0,1-.39,4.49c-1,1.79-4.6,3.52-5.77,4.09l-.48.24c-3.79,1.71-14.57,7.48-18.29,9.61-2.75,1.57-7.56,5.28-14.7,11.34l-1,.88a53.74,53.74,0,0,0-9.88,10.33c-3.91,5.28-6,8.51-8.18,11.94l-1.07,1.66c-.62,1-1.12,1.77-1.56,2.48-1.36,2.17-1.93,3.09-2.76,3.54-2.35,1-4.36,1-6,.09a5,5,0,0,1-2.31-2.8v0a6.72,6.72,0,0,1,2.74-7.18l.06,0,.05,0c3.59-3.3,12-11.28,18.18-17.11,3.55-3.37,6.36-6,7.26-6.86l.89-.82a59.45,59.45,0,0,0,5.44-5.51A15.3,15.3,0,0,0,652,982.27v0l0-.06c-.5-2.06-.92-3.48-1.29-4.72a28.22,28.22,0,0,1-1.27-5.85c-.3-2.75.59-7,2.63-12.67.27-.78,1.17-3.32,2.3-6.54,1.44-4.08,3.21-9.11,4.48-12.67a10.73,10.73,0,0,0,1.67,2.7,6.59,6.59,0,0,0,4.92,2.18,7,7,0,0,0,3.63-1.05C668.29,945.84,667.62,947.74,667.31,948.61ZM670,878.85a4,4,0,0,1-.77-1.32,4.74,4.74,0,0,1-.24-1.62,4.67,4.67,0,0,1,0-.52v-.18a4.59,4.59,0,0,1,.89-2.5,6.72,6.72,0,0,1,2.4-2c.28-.14.58-.28.92-.42.76-.32,1.49-.59,2.2-.83a54.45,54.45,0,0,1,9.69-2.16l1.08-.18c4.58-.75,6-.8,9-.48l.94.11a6.78,6.78,0,0,1,1.36.45h0l.05,0a8.35,8.35,0,0,1,3.47,3.12,9.19,9.19,0,0,1,.69,1.32,9.92,9.92,0,0,1,.73,4.22h0c0,.07,0,.14,0,.21v.05a.76.76,0,0,0,0,.15.49.49,0,0,0,0,.12s0,0,0,.07a12.55,12.55,0,0,1-.31,1.8,10.5,10.5,0,0,1-2,3.51h0l0,0c-.15.2-.31.4-.49.61l-.86,1.07c-1.23,1.57-2.52,4.87-3.54,7.61-.13.34-.25.68-.37,1s-.23.64-.34.92v0h0a8.24,8.24,0,0,0,0-2,2.38,2.38,0,0,0-.77-1.52l-.11-.09h0a1.65,1.65,0,0,0-1-.27h-.34l-.09,0-.1,0-.06,0h0l-.12,0-.18.05-.09,0-.21.08-.06,0-.24.1h0c-2.77,1.24-6.06,4.6-7.23,6.22.69-3.7,1.2-6.49,1.29-7a.44.44,0,0,1,0-.1c0-.1,0-.21.07-.34.25-1.18.72-3.37-.56-5.1a4.4,4.4,0,0,0-.83-.84,6.24,6.24,0,0,0-2.2-1,11.74,11.74,0,0,0-1.84-.31c-2.07-.19-5.23-.37-5.89-.37l-.18,0A6.45,6.45,0,0,1,670,878.85Zm122.41-65.46h0c-2.22,2.16-3.75,3.63-4.63,4.46l-.1.1-.32.3h0l-.06.05,0,0,0,0-.05,0,0,0,0,0c-.87.78-7.61,7.27-15.41,14.77-8.6,8.28-18.35,17.67-20.08,19.24-2.12,1.94-9.86,9.62-15.46,15.2l-.94.93-.53.54-.35.34-.82.82-.31.31-2.63,2.63c-.16.15-.39.4-.72.74l-1.73,1.77-.19.19-.33.33c-2.17,2.18-5.2,5.12-8.26,7.67,2.56-2.78,6.28-7,6.33-7.07,1.25-1.43,10-10.77,11.59-12.33,1.13-1.13,5.1-4.81,7.72-7.24l2.22-2.06c1.54-1.44,16.89-15.87,18.08-17.06,1.57-1.57,11.29-11.19,13.15-12.78.84-.73,4.13-3.77,10-9.32a30.47,30.47,0,0,1,4.76-3.48Zm611.26-554.75a12.11,12.11,0,0,0-1.1,2.63l-.06.19,0,.14c-.24.73-.42,1.5-.6,2.24q-.15.69-.33,1.35a9,9,0,0,1-.83,2.14c-.13.22-.38.58-.73,1.06-1.45,2-4.56,5.8-7.27,9.11l-3.15,3.8a22.84,22.84,0,0,0-2.21,3.25,68.79,68.79,0,0,0-4.59,9.83c-2.32,6.39-2.33,7.47-2.13,9.52V304c0,.16,0,.33.05.5v.09c.13,1.58.39,4,.67,6.52.11,1.07.23,2.15.34,3.18a1.64,1.64,0,0,0,0,.22,21.56,21.56,0,0,1,.06,3.55c-.08,1.05-.23,2-.39,3l-.15,1a65,65,0,0,0-.19,9.35v0c0,.11,0,.23,0,.35s0,.27,0,.41v0a61.68,61.68,0,0,1-.07,9.57c0,.33-.08.66-.14,1-.52,3.16-4.21,7.56-6.87,9.56a8.4,8.4,0,0,1-.72.49h0l0,0c-5,3.41-10.2,4.14-13.3,4.58l-.25,0-.82.12a20.17,20.17,0,0,0-7.36,2.17,9,9,0,0,0-1.81,1.41l-.69.66c-.7.68-1.71,1.62-2.86,2.7l-1,.92-3.4,3.19-.4.38-.08.07c-3.64,3.43-7.25,6.91-8.34,8.28-1.31,1.64-2.43,3.18-3.39,4.61a58.48,58.48,0,0,0-5.54,10.36l-.26.61c-.1.22-.18.42-.27.6l-.06.14c-.11.25-.24.52-.38.82l-.14.31a65.66,65.66,0,0,1-3.76,7.39,23.73,23.73,0,0,1-2,2.88l-.53.64-.73.89a30,30,0,0,1-4.17,4.45l-.19.15a13,13,0,0,1-2.72,1.65c-1.64.74-3.08,1.28-4.29,1.72l-.6.21-.69.25c-.61.22-1.13.42-1.56.62a5.44,5.44,0,0,0-.73.4h0l-.08.06,0,0a75.42,75.42,0,0,0-6.61,4.89l-.32.31-.27.27c-.26.26-.56.57-.93.91l-.14.13,0,0a18,18,0,0,1-6.26,3.62l-.26.09a32.26,32.26,0,0,1-3.88,1.06c-1.57.32-3,.6-4.4.84-2.1.37-4,.67-5.59.92s-3.07.48-4.29.72a24.81,24.81,0,0,0-2.78.67c-1.47.48-4.68,1.68-8.33,3.05l-2.32.88c-2.88,1.08-5.84,2.2-8.06,3l-1.22.45a36.66,36.66,0,0,1-3.64,1.06,98.3,98.3,0,0,1-14.28,1.83h0l-.41,0a12.7,12.7,0,0,1-7.22-1.6,26.25,26.25,0,0,1-6.2-5,9.3,9.3,0,0,0-1.44-1.35l-.9-.9-.38-.39c-2.12-2.15-4.5-4.58-8.07-5.81l-.73-.23c-6.29-1.78-12.46,2.1-16.11,4.75l-1.27.94-.9.66,0,0-.39.27-.61.38c-.61.38-1.41.85-2.29,1.38l-.24.14c-3,1.8-6.79,4.05-8.81,5.61l-.51.38c-2.45,1.92-3.91,3.9-4.35,5.9a5.87,5.87,0,0,0,.14,3.09,8.56,8.56,0,0,0,.38,1,62,62,0,0,0,5.68,7.42c.65.76,1.2,1.38,1.51,1.69,2.58,2.57,6.7,5.1,11.91,7.29l2.39,1c6.82,2.77,16,6.11,18.5,7l.68.22c.68.22,1.21.37,1.66.49l.53.16a12.92,12.92,0,0,1,2.36.92,10.23,10.23,0,0,1,1.71,1.07,10,10,0,0,1,1.11,1l.18.18,0,.05a17.32,17.32,0,0,1,2.37,3.4c.15.28.31.56.46.82.72,1.29,1.34,2.32,1.86,3.18.14.23.27.46.4.66a18.15,18.15,0,0,1,.92,1.7c.39.94,2.09,7.62,2.9,11.27a28.54,28.54,0,0,1,.28,8.82l-.11.41v.05c0,.13-.07.26-.11.4h0a29.76,29.76,0,0,1-3.07,7.46l0,0-.22.35-.12.19,0,.06a18.65,18.65,0,0,1-3.57,4.11l-.19.16-.18.14-.34.27-.06,0-.43.31h0l-.21.13c-1.23.81-3.61,2.11-5.55,3.16l-2,1.1c-.17.09-.34.18-.48.27s-.32.17-.68.38l-22.36,12.38-1.09.61-.66.36-1.92,1.07-1.36.75c-24.94,13.81-59.09,32.72-63.35,35.13l-.27.15-.06,0-2.18,1.25h0l-.8.46-18.51,10.65-13.57,7.81-23.82,13.72-.73.42-.26.14c-14.37,8.28-25.93,14.92-27.13,15.57-.49.27-1.4.79-2.58,1.48-6.51,3.81-21.47,12.85-22.74,13.62l-.06,0c-4.19,2.5-14.47,8.56-26.38,15.57l-1.14.67c-24.1,14.19-53.48,31.5-57.84,34.28l-.32.2c-5,3.2-7.74,5-12.91,10.52-1.52,1.64-3.25,3.61-5.32,6-5.1,6-11.61,13.48-16.65,19.2-2.32,2.64-4.33,4.91-5.74,6.5l-.7.8-1.41,1.6c-1.89,2.16-6.08,7.36-7,9.67l-.14.34c-.28.68-.75,1.76-1.34,3a45.34,45.34,0,0,1-5.14,8.78,9.91,9.91,0,0,1-.74.81c-1.39,1.39-3.8,3.7-6.23,6l-.13.12-.92.86c-2.81,2.64-5.46,5.08-6.39,5.87a23.18,23.18,0,0,0-3.26,3.47,17.57,17.57,0,0,0-2.73,4.86l-.12.35-.18.53-.11.32-.31.85a6.34,6.34,0,0,1-2.4,3.35,6.92,6.92,0,0,1-1.39.67l-.25.09a6.69,6.69,0,0,1-2.94.36l-.42-.06c-.42-.08-.81-.19-1.19-.3s-.68-.2-1-.27l-.25,0c-.2,0-.4-.09-.64-.15l-.12,0h0l-.13,0h0a5.73,5.73,0,0,0-2.55-.18h0l-.16,0-.12,0h-.06a13.31,13.31,0,0,0-4.08,1.78h0l0,0h0l0,0-.19.12,0,0-.21.13,0,0-.2.13,0,0-.23.15h0l-.23.15h0l-.24.17h0l-.25.17h0l-.27.19-4.87,3.31a146.58,146.58,0,0,0-17.4,13.86l-.77.72c-1.63,1.13-3,2-4.25,2.79a32.78,32.78,0,0,0-5.23,3.8c-5.9,5.53-9.18,8.57-10,9.29-2,1.71-12.17,11.8-13.2,12.83-1.19,1.18-16.52,15.6-18.06,17l-2.21,2.06c-2.63,2.43-6.61,6.11-7.75,7.26-1.57,1.57-10.38,10.93-11.63,12.37-1.7,1.94-6.87,7.78-8.27,9.09-.37.35-.82.79-1.29,1.26l-1.28,1.27c-2.78,2-5.77,4-8.57,5.77-2,1.29-3.88,2.48-5.52,3.51l-.36.22,0,0-.07,0-.26.16h0l-.08,0-.23.14h0l-.09,0-.22.12-.1,0-.21.11-.1.05-.18.1-.1,0-.17.08-.1.05-.15.06-.1,0-.13.06-.1,0-.12.05-.09,0-.11,0-.09,0-.1,0-.08,0h-.46l-.72-1.64a5.5,5.5,0,0,1,.41-2.4l.07-.18c.19-.49.42-1.1.68-1.8.94-2.54,2.34-6.33,3.52-8l.12-.15.5-.63.34-.42a13.5,13.5,0,0,0,2.81-4.76v0h0a13.31,13.31,0,0,0,.43-3.45,11.31,11.31,0,0,0-1-4.66,10.49,10.49,0,0,0-2.2-3.18l-.26-.24,0,0-.31-.27-.12-.1-.41-.32a8.8,8.8,0,0,0-3.53-1.6h-.06c-3.81-.47-5.24-.49-10.49.37l-1.09.18a49.72,49.72,0,0,0-12.29,3.1c-.41.17-.78.34-1.12.52a7.64,7.64,0,0,0-3.72,3.74,6.72,6.72,0,0,0-.51,2.15v.16a6.09,6.09,0,0,0,1.47,4.92,7.63,7.63,0,0,0,3.23,2l0,0,.21.07a7.19,7.19,0,0,0,1.77.33c.61,0,3.73.19,5.73.37,1.76.15,3,.64,3.55,1.44a3.29,3.29,0,0,1,.46,2.32,12.83,12.83,0,0,1-.23,1.3l0,.14c0,.13,0,.25-.07.36-.16.94-2,10.64-3.5,18.83l-.34,1.82h0l-.12.61-.16.86-.53,2.85c-.42,2.24-.73,3.91-.85,4.57l0,.11c0,.21-.1.44-.16.7-.4,1.55-1.28,4-2.07,6.18-.14.4-.29.78-.42,1.15q-.09.25-.18.48c-.4,1.11-.74,2-.92,2.62l0,.05v0l0,0h0l0,.08,0,0v.1l0,.1v0l0,.11V930l0,.1,0,.09h0v0c0,.12-.08.24-.13.36l-2.06,6-.14.41c-1.16,3.26-2.5,4.58-2.93,4.82l-.06,0a4.91,4.91,0,0,1-6.42-.53l0,0a9.7,9.7,0,0,1-.89-1.24c-1.29-2.11-1-3.58-.8-4l2-5.69c.45-1.29,1.06-3,1.89-5.46l0-.06c.12-.33.23-.67.36-1l4.09-11.92.75-2.19,0-.07c.27-.76.28-.82.88-2.74l0-.08a8.27,8.27,0,0,0,.16-2.48c0-.14,0-.28-.05-.42s0,0,0-.07a7.68,7.68,0,0,0-3.66-5.08,23.65,23.65,0,0,0-4.22-2.11l-.69-.28c-2.45-1-8.73-3.92-12.6-5.89l-.27-.13-.15-.08c-.85-.44-1.57-.82-2.06-1.12-.26-.16-.5-.33-.73-.5l-.16-.12h0a6.56,6.56,0,0,1-3-6c0-.16,0-.31,0-.44v-.16a17.56,17.56,0,0,1,.34-1.75,9.57,9.57,0,0,1,2.88-5.21l.26-.26.18-.18c.06-.07.13-.14.19-.22,1.08-1.3,14.34-16.73,16.08-18.57.35-.36,1-1.12,1.91-2.17,1.4-1.63,3.34-3.94,5.47-6.46,3.76-4.46,8-9.51,9.48-11.08,5.82-5.81,9.19-7,11.22-7.39H691c3.4-.85,20.22-4.82,33.07-7.83,7-1.64,12.79-3,14.64-3.41,2.69-.6,6.28-1.44,9.75-2.26,3-.72,6-1.41,7.88-1.84l.62-.14c3.49-.76,4.18-1.67,4.72-2.78l.09-.19,0-.06a.75.75,0,0,0,.07-.12,7.64,7.64,0,0,0,.38-1.25l.09-.38A10.86,10.86,0,0,1,764,804a12,12,0,0,1,2.66-2.31,7.53,7.53,0,0,1,2.53-1.07h0l10.52-2.25.39-.08,11.75-2.44,0,0h.1l.37-.13c.37-.13.83-.29,1.34-.52a8.91,8.91,0,0,0,4.28-4.07.41.41,0,0,1,.07-.11l0,0,.06-.11,0,0,.05-.09a.25.25,0,0,1,0-.07l0-.07a.93.93,0,0,1,.05-.1l0-.07,0-.1,0,0,.06-.14v0a1,1,0,0,0,.07-.18v0a1.21,1.21,0,0,0,.05-.18h0l.06-.2v0a1.33,1.33,0,0,0,.05-.19v0c0-.07,0-.14,0-.21v0c0-.07,0-.14,0-.21v0l0-.21v-.06l0-.19a.49.49,0,0,1,0-.12s0-.1,0-.14a.49.49,0,0,0,0-.12s0-.1,0-.16v-.14a.57.57,0,0,0,0-.13,1.34,1.34,0,0,1,0-.2v-.38a1.34,1.34,0,0,0,0-.2v-.1c0-.09,0-.18,0-.27v0a2.11,2.11,0,0,1,0-.25V786c0-.2,0-.4-.07-.61v0c0-.09,0-.18-.05-.27V785l-.06-.28v-.06a14.32,14.32,0,0,0-.41-1.66c-.05-.18-.11-.35-.17-.53l-.06-.17h0l-.1-.12-8.18-10.66-.55-.81-.14-.22c-.17-.26-.34-.52-.51-.76-.32-.49-.62-1-.89-1.34-.5-.76-.87-1.3-1-1.52l-.16-.21a5.59,5.59,0,0,0-4-2.22h-.07c-1.94,0-3.88,1.09-5.76,3.39a40.06,40.06,0,0,0-3.35,4.76c-.35.57-.68,1.14-1,1.7-.83,1.5-1.55,2.94-2.23,4.32s-1.29,2.61-2,3.8l-.48.82c-2,3.3-3.68,5.7-7.59,8.21-.91.58-1.93,1.17-3.11,1.77l-1.38.71c-1.8.93-3.25,1.68-4.51,2.3a41.21,41.21,0,0,1-5.58,2.4c-.24.09-.48.17-.73.24a17,17,0,0,1-13.33-1.14c-3.58-1.74-6.11-3.2-8.56-4.62l-1.52-.87c-1-.58-2-1.13-3.07-1.69a56.06,56.06,0,0,0-9.2-4.08c-.25-.08-.49-.14-.72-.2l-.45-.1-.21,0c-1.14-.21-3.2-.47-5.52-.75l-1.76-.2c-2.33-.28-4.73-.56-6.4-.81l-.46-.06c-2.5-.36-3.61-.46-4.3-.52l-.46,0h-.21l-.42-.05a15.48,15.48,0,0,0-8.49,1.88c-.6.31-1.21.66-1.81,1-5.21,2.32-11.58-5.49-12.29-6.39a17.36,17.36,0,0,1-1.32-2.14,65.23,65.23,0,0,1-3.23-6.8,10.15,10.15,0,0,0-3.9-4.55l-.13-.08c-.92-.55-1.74-1.06-2.47-1.54l-.47-.31-.6-.41-.21-.14c-2.69-1.88-3.77-3.08-4.17-3.81a11.56,11.56,0,0,1-1.14-3.19c-.13-.56-.22-1.09-.31-1.56a11.91,11.91,0,0,0-.33-1.55,8,8,0,0,0-.93-2h0a5,5,0,0,0-.42-.55l-.16-.19-.18-.18-.32-.3a.69.69,0,0,0-.13-.11,7.82,7.82,0,0,0-3.62-1.63l-3.75-.75-2.36-.47c-3.26-.66-6.86-1.38-9.34-1.86l-1.79-.34-.87-.15h-.07c-3-.54-5.44-1-7.24-3.43a7.78,7.78,0,0,1-1.65-5.23v-.16c0-.23,0-.46,0-.68s0-.45,0-.73c0-.1,0-.21,0-.32s0-.3,0-.45a14.6,14.6,0,0,0-.55-4.25,4.21,4.21,0,0,0-.35-.81l0-.09-.15-.27a14.59,14.59,0,0,0-1-1.64,20,20,0,0,0-4.41-4.1l-.77-.56c-1.45-1.08-4.09-3-7.32-5.39l-.65-.48-1.94-1.43c-3.39-2.5-7.2-5.29-10.85-8-7.15-5.27-13.74-10.15-15.59-11.59-.72-.57-1.42-1.14-2.1-1.7a59.63,59.63,0,0,1-8-7.84l-.1-.12c-.05,0-.09-.11-.15-.18l0-.06c-2.62-3.26-12.64-16.21-20.08-26.06-4.5-6-8.05-10.77-8.45-11.63-.31-.67-.58-1.3-.82-2a22.21,22.21,0,0,1-1.19-6.44h0v0c0-.12,0-.24,0-.36l0-.22-.06-.92-.06-.93c0-.23,0-.46-.05-.69a52.82,52.82,0,0,1-.19-8.07,14.15,14.15,0,0,1,1-4.41c.2-.48.43-1,.69-1.53.12-.27.26-.54.4-.84.77-1.6,2.83-6.16,4.63-10.15l.44-1,.83-1.83c.66-1.47,1.2-2.66,1.48-3.27,1-2.12,1.65-6.12,2-8.27.07-.4.12-.75.17-1,.14-.76,1.2-6.56,2-11.21.45-2.61.81-4.86.88-5.65,0-.13,0-.32,0-.56h0l0-.2v-.36a98.64,98.64,0,0,0,.1-12.74v-.23c-.32-5.06-.9-14.15-1.19-17.58a109.52,109.52,0,0,0-1.93-11.91c-.25-1.11-.51-2.17-.77-3.1-1-3.56-3.27-10.18-5.39-15.57l-.24-.6c-.35-.9-.71-1.76-1.05-2.55-2.33-5.48-17.18-42.81-19.41-49.51-2.12-6.35-7.61-11.75-10-14.06l-.51-.5h0l-.51-.48a70.06,70.06,0,0,0-15-9.47c-1.79-.82-3.54-1.58-5.23-2.31-4.35-1.88-8.11-3.5-10.35-5.23-3.26-2.52-4-4.36-4.16-6.53a10.15,10.15,0,0,1,1-4.71,8,8,0,0,1,3.59-3.89c1.12-.54,4.08-1.7,7.84-3.13l.13-.05,1.07-.4c2-.75,4.09-1.55,6.26-2.36,8.3-3.12,16.89-6.35,19.37-7.61,1.63-.83,3-1.56,4.09-2.21a16.25,16.25,0,0,0,3.73-2.69c.89-1,6.53-6.25,8.42-7.28l1.91-1.06,2-1.11,1-.55L529,389l.11-.06,1.28-.73.2-.1,0,0,.47-.26.47-.25a53.19,53.19,0,0,0,6.1-5.16l.18-.17.38-.34c.57-.52,1.52-1.45,2.65-2.55h0c.18-.19.37-.37.57-.56l3.6-3.58,2-2c1-1,1.78-1.76,2.25-2.21l.13-.12,1.05-1c.87-.83,1.91-1.85,3-2.86,1.49-1.39,3-2.77,4.33-3.73l.16-.12c1.78-1.31,5.72-4.49,8.66-6.94l.25-.2.15-.13c1.42-1.18,2.55-2.15,3-2.57,1.57-1.46,6.9-7,9.29-11.08.86-1.46,2.16-4.1,3.53-7.05l.15-.31c2.45-5.28,5.1-11.43,6-13.49l.12-.27c.12-.29.23-.55.35-.81.29-.67.56-1.29.8-2,.7-2,1.11-4.48.92-10.14h0c-.06-1-.11-2-.15-2.81a55.5,55.5,0,0,1,0-6.93,10.87,10.87,0,0,1,4.58-7.81,12.2,12.2,0,0,1,1.39-.85,47.34,47.34,0,0,0,4.18-2.41h0l.35-.24.16-.11,0,0a6.51,6.51,0,0,0,2-2.14l0,0,.08-.14c.89-1.44,2.94-4.9,2.12-7.67a9.51,9.51,0,0,0-2.77-4.41l-.07-.06-.1-.11-.06-.05a6.46,6.46,0,0,1-1.05-1.74s0-.11-.07-.17a.87.87,0,0,0-.07-.17,8.16,8.16,0,0,1-.26-.88,4.67,4.67,0,0,1-.12-1.23,7.32,7.32,0,0,1,.38-2,6.69,6.69,0,0,1,.75-1.58,2.72,2.72,0,0,1,.26-.33c.48-.48,7.54-6.8,11.33-9.67a18.07,18.07,0,0,1,1.66-1.15c.39-.22.86-.52,1.38-.86,1.19-.78,2.68-1.81,4.18-2.88s3.15-2.26,4.46-3.21c1-.75,1.84-1.34,2.3-1.66a15,15,0,0,0,2.54-2.25c.38-.42.74-.84,1.11-1.27l.37-.44.29-.34.73-.84,0,0,.2-.24a107.13,107.13,0,0,1,8-8.57c.71-.62,1.86-1.67,3.24-2.94l1.89-1.75c4.07-3.77,9.14-8.46,11.79-10.58a54.38,54.38,0,0,0,9.66-10.4l1.43-1.9,1.18-1.55.11-.15c1.12-1.48,2.19-2.89,3.27-4.34l.46-.63a23.47,23.47,0,0,0,3.56-7.87,18.76,18.76,0,0,0-.09-10c0-.14-.07-.29-.11-.44-.64-2.55-1.53-6.78-2.32-10.53-.07-.32-.13-.63-.2-.94-.37-1.76-.71-3.36-1-4.57-.18-.83-.34-1.48-.45-1.88a12.12,12.12,0,0,0-1.09-2.77,8.82,8.82,0,0,0-3.58-3.4,10.18,10.18,0,0,0-3.31-1.2h0l-.34-.05a16.18,16.18,0,0,0-4.34.12h-.1a12.88,12.88,0,0,1-4.23,0h0a15.33,15.33,0,0,1-5.44-2.27c-1.82-1.14-4.28-2.85-6.71-4.6-4.19-3-8.29-6.11-8.87-6.58a9.6,9.6,0,0,1-1.24-1.16,7.82,7.82,0,0,1-.9-1.2l-.19-.35a.08.08,0,0,1,0-.05,5.38,5.38,0,0,1-.37-.89v0l0-.09c0-.13-.07-.27-.1-.41v0a5.9,5.9,0,0,1-.11-1.65c0-.46.08-.88.15-1.27.3-1.9,1-3,3.14-4.22.49-.27,1.05-.54,1.7-.83,2.8-1.26,12.1-5.47,15.85-7.86l.22-.14A113.47,113.47,0,0,0,663.79,112c.68-.58,1.32-1.15,1.89-1.68l.49-.48c3-3,3.29-4.42,3.57-7.86.1-1.23.14-2.17.17-2.93v-.13c0-.71.05-1.24.11-1.69a4.32,4.32,0,0,1,.21-.91,64.48,64.48,0,0,1,5.31-8.62l.62-.86c.51-.73,1-1.52,1.54-2.29.66-1,1.33-2,2-2.88a19.09,19.09,0,0,1,1.54-1.93,6.38,6.38,0,0,1,.46-.45l.19-.15.45-.39.15-.13c.22-.2.42-.37.63-.54a12.29,12.29,0,0,1,1.19-.9h0a24,24,0,0,1,2.62-1.44l.42-.2c2.1-1,3.38-1.65,5.27-1.75a14.4,14.4,0,0,1,2.46.1l.19,0h0c3.87.45,7.21.83,11.63,3.87l1.13.78c2,1.41,5.1,3.58,8.27,5.83l.26.19.13.09c4.83,3.44,9.81,7,11.61,8.33l.66.49a1.93,1.93,0,0,0,.21.17l.2.15.41.31a9.06,9.06,0,0,1,3,4.35,15.8,15.8,0,0,1,.64,2.25,8.57,8.57,0,0,0,2.64,4.87l0,0,.11.09a6.09,6.09,0,0,0,4.83,1.24,4.45,4.45,0,0,0,1.54-.62,9.3,9.3,0,0,0,2.88-3.54l.18-.34v0a10.62,10.62,0,0,1,2-2.84,6,6,0,0,1,.53-.45c.16-.13.33-.25.5-.37a10.59,10.59,0,0,1,3.8-1.46,18.9,18.9,0,0,1,2.3-.3c3.49-.26,10.55-.62,17.12-.92l.69,0,.56,0h.06l.56,0,9.05-.37,1.14,0h2.47c.47,0,.89,0,1.29-.06h0a15.85,15.85,0,0,1,6.6.94c1.41.42,4.3,1.29,7.33,2.15,3.67,1,7.54,2.07,9.21,2.3a11,11,0,0,0,3.24,0h.06c.25,0,.51-.1.76-.17h0l.38-.11a8.37,8.37,0,0,0,1.54-.7h0a10.74,10.74,0,0,0,1.21-.85,11.58,11.58,0,0,0,1.31-1.25c.42-.47.85-1,1.28-1.58,2.29-3.11,4.43-7.45,4.83-9.55.06-.27.11-.57.16-.87.21-1.29.4-2.86.52-4.48,0-.08,0-.16,0-.24s0-.33,0-.49v-.16a34.72,34.72,0,0,0,0-3.94c0-.08,0-.17,0-.25,0-.44-.07-.88-.12-1.3,0-.13,0-.27,0-.4a8.06,8.06,0,0,1,.28-4A5.77,5.77,0,0,1,829,68a58.58,58.58,0,0,1,6.7-3l.4-.16.12,0,.5-.2h0l.21-.09.06,0c6.35-2.46,14.88-5.37,21.25-7.21h0l.23-.07h0l.2-.06h.06l.17,0,.1,0,.13,0,.13,0,.11,0,.15,0,.08,0,.17,0,0,0c.82-.22,1.59-.43,2.31-.6,9.82-2.29,26.18-5.44,34.64-6.91l.5-.08c6.29-1.08,6.5-1.13,7.11-1.26l.43-.09.68-.13a16.87,16.87,0,0,0,6.59-2.87l.9-.68c3.44-2.56,15.35-11.17,19.31-13.86.37-.26.68-.46.89-.6,2.74-1.73,5.08-3.06,7.92-3.09h.57c3.25.17,6,1.56,7.2,3.57.08.14.15.28.22.42,1.1,2.36,1.92,7.79,2,9.92v.38c0,1.48-.37,5.42-1,10.12,0,.15,0,.3,0,.45-.11.85-.25,2-.4,3.31l0,.18c-.06.47-.11,1-.17,1.49l0,.19c0,.16,0,.31,0,.47l0,.3c0,.13,0,.27,0,.4a95.8,95.8,0,0,0-.39,17.65c.18,1.82.25,3.42.29,4.93l0,1.67a50.23,50.23,0,0,0,2.66,16.71l0,0c.8,2.11,1.36,3.67,1.81,4.91s.79,2.18,1.08,2.86a8.72,8.72,0,0,0,1.1,2l.11.15c.14.2.33.48.57.81.34.48.75,1.07,1.21,1.71,2,2.77,4.88,6.63,6.94,8.29l.12.1.57.46.86.72a96.75,96.75,0,0,0,12.85,9.3l1.1.65h0c.66.36,1.57.82,2.62,1.32l.1.05.33.16c3.48,1.67,8.3,3.82,11,5l1.59.72.1,0,.79.35c1.38.62,3.56,1.55,5.68,2.46l4.26,1.84.34.15a16.6,16.6,0,0,0,3.66,1.07h0c.42.08.85.15,1.3.21a54,54,0,0,0,9,.35c2.35-.07,4.86-.12,7.27-.16h.3c3.5-.05,6.77-.06,9,0h.72c3.66.09,14.22,1.52,18.11,2.2,1.69.29,5.91.87,10.39,1.48l2.85.39c2.94.4,5.73.79,7.66,1.09.93.14,1.65.26,2.11.35,2.64.53,6.54,1.79,10.31,3l2.31.74,1.58.5,2.64.8.82.24c3.14.94,6.37,1.94,9.55,3.23A44,44,0,0,1,1118,165.1a14.12,14.12,0,0,1,1.16,1.11c.29.31.62.65,1,1a64.53,64.53,0,0,0,9.18,7.54c1.47.9,7.5,4.24,12.84,7.08,3.4,1.81,6.52,3.41,8,4,.6.26,1.16.48,1.69.68a20.59,20.59,0,0,0,3.51,1.06h.09a12.21,12.21,0,0,0,3.25.15,53.84,53.84,0,0,0,11.27-2c3.81-1.24,15.06-7.43,17.87-9,.37-.21.94-.57,1.66-1.05,4.61-3.07,15.25-10.87,18.85-14,.92-.79,1.72-1.52,2.42-2.17l.64-.6.54-.51,1.27-1.17a9.53,9.53,0,0,1,2.54-1.85,35.21,35.21,0,0,1,8.51-2.06c1.26-.16,3.33-.48,5.72-.85s5.09-.78,7.33-1.09c1.33-.18,2.48-.33,3.31-.4l.7,0h.28l.89,0,2-.07a24.51,24.51,0,0,0,4.83-.57L1251,150l.31-.08c2.42-.58,5.73-1.38,7.4-2a10.8,10.8,0,0,1,1.33-.37c1.84-.39,3.79-.32,4.86.67l.12.11a22.92,22.92,0,0,1,2.16,2.5,6.61,6.61,0,0,1,.58,1,3.65,3.65,0,0,1,.32,1.33,13.88,13.88,0,0,1-.39,4.37,8.25,8.25,0,0,1-2.86,4.36l-.48.38c-2.84,2.27-6.44,4.94-9,6.69-1,.7-2,1.26-2.57,1.58a23.07,23.07,0,0,0-4.5,3.14c-.78.69-1.56,1.42-2.35,2.18-1.95,1.86-4.16,3.92-5.77,4.72-.22.12-.49.27-.8.46-.59.37-1.31.87-2.08,1.41l-.61.44-.44.31-.31.22c-1.13.8-2.26,1.61-3.17,2.18-.33.21-.64.38-.89.52-1.13.59-2.14,1.11-3,1.57s-1.58.85-2,1.13a6.88,6.88,0,0,0-3.09,3.81c-.05.16-.09.32-.13.49v0c0,.14,0,.28-.07.43l0,.24c0,.13,0,.27,0,.41a6.89,6.89,0,0,0,2.47,5.22,6.44,6.44,0,0,0,.92.62,7.08,7.08,0,0,0,3.09.88h.19a3,3,0,0,0,.5,0l.34-.06.32-.09a6.59,6.59,0,0,0,.75-.25l.41-.19a8,8,0,0,0,1.42-.84l.25-.19a5.87,5.87,0,0,0,2.06-2.87c.17-.6.38-1.26.63-1.95a13.58,13.58,0,0,1,3.68-5.89l1.86-1.52a60.77,60.77,0,0,1,7.38-5.38,24.52,24.52,0,0,1,4.25-1.53l1.74-.49c1.43-.4,3-.86,4.82-1.42,2.26-.71,5.47-1.63,8.57-2.52l.35-.1c2.21-.64,4.23-1.22,5.65-1.66l.23-.06c.79-.25,1.37-.44,1.68-.57a24,24,0,0,1,6.66-1.12h1.29a62,62,0,0,0,9.19-1l.88-.19a14.52,14.52,0,0,0,5.35-3.17,12.58,12.58,0,0,1,1.17-.89c.7-.42,2.29-1.63,4.12-3l1.45-1.11c.74-.57,1.48-1.12,2.16-1.62a29.69,29.69,0,0,0,6.14-6l.08-.13c.21-.32.65-.95,1.18-1.71.27-.38.57-.79.86-1.21l.34-.47c1.22-1.73,2.52-3.57,3.21-4.65a2.39,2.39,0,0,0,.13-.21l.23-.37a10.92,10.92,0,0,0,1.84-5.83,50.46,50.46,0,0,0-1-7.59l-.09-.54c0-.2-.07-.4-.11-.6a10,10,0,0,1-.15-2.46,8.31,8.31,0,0,1,1.57-4.14l1.93-2.84c2.18-3.21,5.48-8.06,6.55-9.59a9.5,9.5,0,0,1,4.51-3.71c.37-.12.73-.23,1.09-.31h0a10.57,10.57,0,0,1,2.83-.27,10.14,10.14,0,0,1,1.73.24c.31.08.62.17.91.27a14.32,14.32,0,0,1,3,1.62c.37.24.7.45,1,.6l0,0,.53.3.81.46c1.13.66,2.75,1.59,4.33,2.4.91.47,1.82.9,2.61,1.21l.83.29a57.23,57.23,0,0,0,6.17,1.39l.58.11c.85.16,1.67.32,1.87.4.43.19,1.63.57,3.56,1.16l1.17.37c1.27.4,2.49.79,3.16,1l.08,0,.6.22c.46.16,1,.34,1.66.54,1,.34,2.36.77,3.52,1.2a11.89,11.89,0,0,1,2.48,1.14l.3.23.27.19a22.25,22.25,0,0,1,5.69,5.42,8.94,8.94,0,0,1,.55,1,29.46,29.46,0,0,0,6.93,9.12c.25.17.57.38.93.6a40.84,40.84,0,0,0,5.54,2.73,13.84,13.84,0,0,0,2.19.69,18.69,18.69,0,0,0,2.66.28l1.93.06h.54l1.07,0a9.89,9.89,0,0,1,5.86,2.68c2.09,2.09,12.85,14.89,15.08,18.37a11.11,11.11,0,0,1,1.6,4.58,11.31,11.31,0,0,1-.06,3.71,20.62,20.62,0,0,1-2.45,6.08,69.43,69.43,0,0,0-4.93,10.34l-.15.37c-.07.18-.13.36-.19.53s-.13.34-.18.49l-.29.82c-.25.7-.49,1.4-.73,2.09a64.84,64.84,0,0,0-2,6.87c-.79,3.47,1.77,7.54,4.21,10l.19.2.13.13a21.52,21.52,0,0,0,9.09,6.07,47.7,47.7,0,0,0,9.19,2h.08c2.52.08,5.17,3.34,5.53,5,0,0,0,0,0,.07h0l0,.15v.19c.48,5.27,1.56,17.29,1.79,21.73,0,.23,0,.44,0,.62s0,.24,0,.34v.15a11.85,11.85,0,0,1-.61,4.75,7.28,7.28,0,0,1-1.4,2.33,6.38,6.38,0,0,1-.76.72,9.6,9.6,0,0,1-5.57,1.89,61.88,61.88,0,0,1-12.71-.63c-4.63-.77-6.25-1-10.59-1.68l-.43-.07-2.46-.37c-4.93-.71-8.7-.09-11.19,1.85A8.35,8.35,0,0,0,1403.65,258.64Z"/></svg>