<?xml version="1.0" encoding="utf-8"?>
<!-- Generator: Adobe Illustrator 24.0.1, SVG Export Plug-In . SVG Version: 6.00 Build 0)  -->
<svg version="1.1" id="Background_Details" xmlns="http://www.w3.org/2000/svg" xmlns:xlink="http://www.w3.org/1999/xlink" x="0px"
	 y="0px" viewBox="0 0 1920 1080" style="enable-background:new 0 0 1920 1080;" xml:space="preserve">
<style type="text/css">
	.st0{fill:none;}
	.st1{fill:#C2C6F7;}
	.st2{fill:#636466;}
	.st3{fill:#C7C8CA;}
</style>
<title>background</title>
<g id="Bridge">
	
		<rect x="750.4" y="655.5" transform="matrix(0.2777 -0.9607 0.9607 0.2777 -71.6776 1225.7902)" class="st0" width="57.8" height="10.1"/>
	<rect x="725.4" y="647.7" transform="matrix(0.28 -0.96 0.96 0.28 -83.5689 1194.0344)" class="st0" width="57.8" height="10.1"/>
	
		<rect x="808.6" y="348" transform="matrix(0.9691 -0.2467 0.2467 0.9691 -67.8215 212.3487)" class="st0" width="10.1" height="57.8"/>
	
		<rect x="787.5" y="353.4" transform="matrix(0.9765 -0.2156 0.2156 0.9765 -63.7699 179.8459)" class="st0" width="10.1" height="57.8"/>
	
		<rect x="1573.6" y="886.8" transform="matrix(0.9835 -0.1806 0.1806 0.9835 -139.4345 300.2449)" class="st0" width="10" height="57.6"/>
	
		<rect x="1538.1" y="892.4" transform="matrix(0.9861 -0.1663 0.1663 0.9861 -131.6994 269.368)" class="st0" width="10.1" height="57.8"/>
	
		<rect x="396.6" y="778.6" transform="matrix(0.9835 -0.1807 0.1807 0.9835 -139.2486 85.8309)" class="st0" width="10" height="57.6"/>
	
		<rect x="354.8" y="787.2" transform="matrix(0.9887 -0.1498 0.1498 0.9887 -118.1994 63.1109)" class="st0" width="10.1" height="57.8"/>
</g>
<g id="Water">
	<path id="Water" class="st1" d="M432.4,169.5c-3-2.4-16-13.6-16-13.6s-13-13.6-14.2-18.4c-1.2-4.7-0.6-5.3-3-12.4
		c-2.4-7.1-4.1-8.3-7.7-11.8s-8.9-4.7-15.4-7.7c-6.5-3-18.4-3-18.4-3l-10.1-5.3c0,0-4.7-1.2-11.9-7.1c-7.1-5.9-8.3,1.2-8.3,1.2
		l-8.3,8.9c0,0,6.5,5.9,10.1,7.7c0,0,8.3,3.6,10.1,5.4l-1.8,10.1l3,7.7v9.5c0,0-2.4,14.2-2.4,16c0,1.8,4.1,8.3,4.1,8.3l-11.9,7.7
		l-16.6,6.5l20.7,0.6c0,0,15.4,0,32-1.8c16.6-1.8,12.4-6.5,10.1-10.1c-2.4-3.6,8.9-7.7,8.9-7.7s12.4,0,14.2,0.6
		c1.8,0.6,14.8,8.3,18.4,10.7c3.6,2.4,9.5,8.3,9.5,8.3s6.5,0.6,8.3-0.6C437.8,177.8,435.4,171.8,432.4,169.5z"/>
</g>
<g id="Pavement">
	<path class="st2" d="M693.4,399.1c0,0,38.2,16.3,50.4,19.9l25.2-12.2l-3-9.5l-38.8-6.2L681,371.2l-32.6-39.7l-11.3-41.2l0.9-43.8
		l17.2-31.7l44.5-32.9l50.3-19.6l-0.9-8.6l-69.9,5.9c0,0-41.2,35.9-55.1,81.8c0,0-5.9,40.6-4.7,60.5
		C619.4,301.9,625.3,361.4,693.4,399.1z"/>
	<polygon class="st2" points="872.7,324.4 923.4,303.1 941.4,308.4 912.4,270.2 858.5,305.4 	"/>
	<polygon class="st2" points="1076.6,531.8 1100,563.8 1114.8,580.4 1126.9,583.7 1130.8,574.2 1099.1,541.6 	"/>
	<path class="st2" d="M1338.8,629l12.2-19.5l-2.1-35.8c0.6-14.2-9.5-15.1-9.5-15.1l-43.6-3l-0.3,13.6l24,9.2L1338.8,629z"/>
	<path class="st2" d="M1382,779.8c0,0-24.6,0.6-25.5,0.6l-4.4,36.5l-17.2,24l5.3,11.6h14.2l0.6-14.5l37,0.6l11,4.7l-5.9-11
		l-1.8-10.4L1382,779.8z"/>
	<path class="st2" d="M1559.5,998.8l-15.7,14.2l-31.7,12.4l-62.5,2.7c-2.4,9.2,2.1,12.7,2.1,12.7l8,1.5l11.3,1.2l15.1-0.6l19.6-0.6
		c33.8,1.8,57.2-20.4,57.2-20.4c14.5-12.5,14.5-25.5,14.5-25.5C1573.4,988.1,1559.5,998.8,1559.5,998.8z"/>
	<path class="st2" d="M1332.9,1000c0,0,2.7,8.9-4.4,13l104,0.6l-53-4.7L1332.9,1000z"/>
	<polygon class="st2" points="1011.5,890.8 1010.5,907.5 1034.5,907.5 1034,899.7 1021.3,900 1021.4,890.9 	"/>
	<polygon class="st2" points="1083.7,906 1117,905.3 1116.4,895.4 1083.4,896 	"/>
	<path class="st2" d="M1246.3,918.1l102.7-1.3v4.5l-6.7,0.1l-1,29.2l33.3,0.9l-0.4,20.6l28.1,0.6l1.6-52.3l-27.1-0.9l-1,2.7
		l-20.1-0.6l1.5-4.7l19.6,0.2l156,2.2l0.4-10.5l-44.2-0.6l-52.3-0.4l-15.8-0.7l-1.3-3.1l8.6-6.4l18.7-16.6l12.7-12.7l16.3-19.8
		c6.4-7,18.1-6.5,18.1-6.5l28.2,2.5c5.5,1,10.6,3.8,14.5,7.8l-9.6-33c-1,5.2-6.8,6.1-6.8,6.1l-22.7-0.5l0.3,1.8
		c-1.3,9-16.7,3.7-16.7,3.7l2.6-58.1l0.7-3l3-8.9l4.3-13.8l2.7-15.4l-8.6-23.4l-7-1.8l-50.2,15.3l-1.6,1.9l6.4,26.5l9.3-0.9l3.6,4
		c0,0,0.9,1.6,1.2,2.1c0.4,1.2,0.7,2.4,0.9,3.6l-12.3-1.2c-9-0.7-10.7-9.9-10.7-9.9l-0.7-17.6c-0.2-5.5,2.7-10.7,7.6-13.5l15.3-10
		l5.6-5.6l6.8-7.8l13.8-13.9l6.5-4.7l10.3-4.8c8.9-3.1,12.1-9,12.1-9c5.2-6.5-4.6-9.8-4.6-9.8l-11.3-2.2l-19.6-2.7l0.3-3.4
		l-10.8-0.3l-1.2-2.5l-2.4,0.9l-8.3-10.2l-2.2-6.1l-4.4,0.3l1,4.9l9,11.7l-16.6,0.3l-11.1,38.1l-2.1,10.8l4.7,24.2l2.5-0.9l-1-12.9
		l-1.6-13.8l0.7-6.7l9.9-34.4h8.9l1,28.3l25.6-0.7c0.1,0,0.2,0,0.3,0c2.5-0.4,4.3-2.7,3.9-5.2l-0.3-8.6c0.1-6.4-5.9-7.4-5.9-7.4
		l0.4-2.1l4.9,2.2l0.7-0.9l13,4l2.1,2.4l0.2,9.2l-10.2,4.7c-11,5.2-28.4,27.8-28.4,27.8l-20.7,14.8c-8.4,5.5-8,13-8,13
		c-0.3,7.6,0.1,15.3,1.3,22.8c2.2,12,21.6,11.8,21.6,11.8l6.2,0.2l0.6,2.5l4.4,1.2v-7.3l19.7,5.3l-3.1,65.9l-70.7-4.7l2.7,19l61,3
		l-15.8,19l-28.7,25.5c-10.5,9.8-29.9,15.7-29.9,15.7l-44.3,0.1l-0.3-13.5l-8.9-0.2l-0.6,7.7c-1.5,7.4-15.7,6.7-15.7,6.7l-101.6,0.7
		v-0.1l-147.3-0.6l-36.4,0.9l-44.1,5.6l3-30.5l-15.4-2.4l-0.3,3.3l12.7,1.8l-2.4,21l-2.1,5.6l-4.7,0.6l-7.1-4.4l0.3-3.9l-3.3-3.8
		l-2.8,3.6l-9.8-5.6l3-9.5l10.7-0.9l2.7-2.7l1.8-16.3l-29.9-5l-2.7,21l5.3,15.1l0.3,5.6c-0.2,3.7-3.4,6.5-7.1,6.2c0,0,0,0-0.1,0
		L921,912c0,0-5-0.6-4.4-8.6l10.7-107l-80-11.6l-11.5,87.4c0,0-6.8,35.5-13.6,40.3c-2.2,1.8-5.1,2.8-8,2.7c0,0-69.6-13.6-91-26.7
		c0,0-11.3-7.7-8.9-30.8l5.3-17.8v-5.1l0.5-8.5c0,0,0-3.5-5.1-5.1l-7.1-1.8c0,0-6.7-1.8-6.5,5.1l1.1,16.4l2.2,4.2l6.9,9.1
		c0,0-2.9,23.6,8,33.8c-5.2,0-10.5,0.5-15.5,1.8l-2.5-17.8l-4-0.9l-1.1-5.8l-87.8-0.4l-3.3-5.6l2.5-13.1l-8.7-0.7l-4,2l0.4,4.7
		l-48.4-1.7c0,0-10.5,0.2-16.9-7.7l-28-38.5c0,0-5.6-8.5-4.3-17.2l1.2-17l12.1-1.5l26.5-2.5c13.6-0.5,27.3-8.9,27.3-8.9l22.9-14.4
		l14.5-9c16.5-13,47.6-12.3,47.6-12.3l24.3,2.5l39,7l45.2,7.9l75,13.6l98.7,18.1l0.3-2.8l-12.7-2.4l-60.2-11.1l-54.1-10.1l-44.4-7.8
		l-5.4-1.4l-2.8-3.9c0,0-0.2-2.6-0.2-3.5s0.2-5.9,0.2-5.9l3-10.8l4.5-14.5l16.2-53.6l5.5-28.2l1.5-25l20.9,5.1l39.8,10l20,4.7
		c26.2,4.2,40.2-9.1,40.2-9.1l10-10.2l4.9-6.7l4.2-10.4l3.3-10.9l3.1-2.7c0,0,3.1-1.8,6.4-4s5.6-3.1,6.7-4.4s5.8-5.6,5.8-5.6l4,11.3
		l7.8,12.9l10.2,13.8l9.1,7.6l9.5,5.1l15.6,7.1l51.3,16.4l51.8,21.3l30.4,12.7l11.6,2.7l10.4,0.9c0,0,7.1,0.2,7.8,0s10-0.7,10-0.7
		s26-4,26.7-4s20.4-2.9,21.1-2.7s21.3-1.1,22-1.1s8.2-0.2,10-0.2s11.3-1.1,11.3-1.1s9.1-2,10.7-2.4s7.8-2.7,8.4-3.6s8.9-2.2,8.9-2.2
		l10.9-2l8-1.1l10.2-0.2l69.8,0.4l-1.6-3.8h-68.4l-10.7-0.2c-2,0-7.6,1.1-8.9,1.1s-9.6,2.5-11.8,2.7s-8.7,1.8-8.7,1.8l2.9-3.1
		l6.7-7.1l12-5.8l5.1-0.5l7.1,1.3l2-2.9l-7.8-2.5l-6.7,0.5l-4.7,1.5l-7.6,4.7l-8,7.8l-5,5.3l-4.7,2.7l-6.2,2.7l-23.4,2.1
		c0,0-12.4-0.6-14.2-0.3s-9.8,1.2-9.8,1.2l-14.2,2.1l-19.8,3.3l-18,2.7c0,0-16.6-0.3-17.5-0.3s-18.7-5.9-18.7-5.9l-73.2-30.8
		c0,0-7.1-3.3-8.3-5c-1.2-1.6-2.6-3.1-4.1-4.4c0,0,0-5.9,0.6-6.8s3.3-5,3.3-5l0.3-6.2l-5.6-8.9l-7.7-8l-8.3-5.2l10.9-3.7l-9.5-19.9
		l-12.4,5l5.4,15l-11.8-8.4l5.6-12.2l0.6-9.5l-6.2-15.4l-6.5-9.2l-3.3,2.7c0,0,8.6,12.7,8.6,13.6s3.3,7.7,3.5,11s-2.7,11-2.7,11.8
		s-5.6,9.5-5.6,9.5l16.6,9.5l10.1,5.6l8.6,7.4l4.4,7.1l0.6,5.6c0,0-2.7,5.3-3.3,6.2s-0.9,7.4-0.9,7.4l-4.4,3l-48.9-16.3l-14.2-10.4
		l-16.6-19.7l-8.3-22.2l5-8.9l0.6-10.4l1.8-34.7l4.2-26.7l5.3-19.3l1.5-10.1c2.1-16.6-11-22.8-11-22.8l-15.3-11.8l-2.1-6.6l-4-8.2
		l-3.6,1.3l0.7,3.3l3.3,11.3c0,0,2,6.7,2,7.3s0.9,9.1,0.9,9.1l-1.8,37.6l-4.9,40v6.2c0,0.7-0.9,7.1-0.9,7.1l-11.6,24.2l-1.5,6.7
		l-0.9,5.8l0.9,8l0.7,6.7l-3.5,16.4l-3.6,7.6l-6.4,9.3c-15.3,21.6-45.6,14.9-45.6,14.9l-21.1-5.3l-25.5-6.7l-32.8-7.2l0.1-2
		l1.9-39.8H776l-2.4,39.7l-1.5-0.3l-30.9-6l-25.8-5.5l-65.8-13.3c-16-2.4-34.2-10.2-34.2-10.2l-12.2-8.2l-15.8-13.1
		c0,0-16.9-10-17.5-10.5s-14.9-5.3-14.9-5.3l-22.2-5.1l-12.9-2.2l-13.3-0.9l-15.8-1.8l-20.7-2.5l-46-10.2c0,0-2.7-3.5-3.1-4.2
		c-0.4-0.7-5.5-0.7-6.2-0.9c-0.7-0.2-8-0.4-8.7-0.4s-11.5-1.6-11.5-1.6s-9.8-0.5-11.1-0.9c-1.3-0.4-4.4-0.4-5.1-0.7
		c-1.2-0.2-2.4-0.3-3.5-0.2c-0.9,0-3.1,2.5-3.1,2.5l-46.2-4.5l-37.3-4.2c-7.5-1.9-10.9-7.9-12.5-12.7l0-1.1l0.4-77.6l-1.5-9.5
		c-2.1-16.6-19.9-51.2-19.9-51.2L233,279.2l-31.1-52.4l-17.3-24c0,0-22.2-27.6-25.3-30.2c-3.1-2.7-13.8-14.7-13.8-14.7
		s-13.8-15.1-18.7-18.7c-4.9-3.6-18.7-13.8-18.7-13.8s-11.5-10.2-14.2-12.9S72.6,95.7,72.6,95.7S62.3,89.4,59.7,89
		c-2.7-0.4-13.3-4.9-13.3-4.9l-32.4-16l-15.1-7.5l1.3,10.7L9.4,77l9.3,5.8L40.1,93l14.7,4l34.7,28l17.3,12.4l14.7,12.5l13.3,12.9
		l22.2,20.4l38.9,50.7l20.4,36.4l14,27.1l16.7,30.9l15.8,36.2c0.3,0.6,0.5,1.1,0.7,1.7c2,6,3.8,19.6,3.8,19.6l-0.4,59.5l-2.2,97.1
		l-4.7,138.9l-1.6,1.8l-15.1,0.7l-0.2,6l11.8-0.5l5.6-1.5l-2.7,72.4l-0.6,323.6h5l2.4-81.5l1.9-155.7l5.6,0.2l6.2-2.7
		c1.1-1.2,2.2-2.4,3.1-3.8c0.5-0.9,0-4.7,0-4.7l0.7-5.3v-4.7l10-1.5l16.3-2.7l26.7-4.9l11.7-1.6l-0.6-3.6c-1.1,0.4-2.3,0.6-3.4,0.7
		c-1.7,0.1-5.9,1.3-7,1.5c-1.2,0.2-9.6,1.6-12.2,2.1c-2.5,0.4-8.8,1.8-11.1,2.1s-11,2.2-11,2.2l-19.4,3.1v-16.8l1.8-31.3l1.3-17.6
		l4.4-12.4l6.2-10l7.1-5.1l4.4-5.3l6.5-5.8l8.9-9.1c11.3-8.5,9.8-18.7,9.8-18.7l0.5-9.8l0.2-7.1l2.4-5.5l2.7-6.7l1.3-5.8l1.8-48.7
		l-0.4-91.5c0,0-0.2-7.2-0.4-12.9c0.7-3.9,1.7-8,3.3-11.1c0,0,2.6-5.7,10.7-8.4l22.6,2.6l4.2,3.3l11.3,0.7l25.1,3.6l3.8-2.2
		l16.9,3.8l19.1,4l16.7,2.9l29.6,4l19.8,1.8l19.3,3.5l14.7,6l12.5,4.9l17.1,10l16.9,13.3l10.9,6.7c0,0,11.1,4.5,11.8,4.5
		s8.4,2.2,8.4,2.2l9.6,2.4l15.8,2.7l26,4.9c3.4,1.6,8.1,4.5,13,9.2c0,0,3.1,3.7,17.9,3.3l19.8-0.2l1.7,0.5l27.1,3.5l7.6,1.9l-0.2,9
		l-2.4,18.2l-4.6,26.2l-8.7,32.9l-10.8,37.9l-3,17.5l0.8,3.2l-0.4-0.1l-15.1-2.4l-26.5-4.4l-20.6-3.8l-21.2-2.3l-15.5-0.9
		c0,0-7.3,0.3-8,0.3s-9.2,1-9.2,1l-7.5,1.6l-10.2,4l-16.7,9.3l-11.4,7.7l-10.2,7.2l-10.7,6.3l-11,4.9l-11.1,2.4l-31.1,2.1
		c-3.2,0.3-6.1,0.7-8.7,1.1l0.7-11l-0.9-6.5l-3.7-3.6l-31.7-35l-3.4,3.1l33.9,36.7l1.5,4.7l-0.7,12.2l0,0.1
		c-5.4,1.1-9.2,2.3-11.7,3.3l-0.2-0.1l-4.3,0.9l-11.6,4.7L438,791.7l-11,5.6l-4.4,1.5l-7.1,1l-10-0.1l-0.9,4.3l13-0.2
		c0.5,0,8.2-1,8.2-1s4.1-2.4,5.2-2.5c1-0.2,7.4-3.4,7.4-3.4l16.5-9.9l12.7-6.7l8.7-3.6c0,0,15.5-6.2,17.6,13l0.6,5.6l0.5,3.8
		l1.5,3.8l21.3,30.2l8.5,11.4c4.3,5.8,10.9,9.4,18.1,9.9l39,1.9l12.6,0.1l0.3,2.8l-0.7,5.3l-2.9,5.5l-1.3-0.7l-2.4,55.5l45.8,6.9
		l2.2,2l11.5,32.7L655,981c3,5.3,7.9,9.3,13.8,11.1l-0.2,12.5l278.2,5.1l168.4,2.4h107.4l-5.6-5.6l-23.1-5.3l-0.9-17.8l-169.2-2.1
		c0,0,18.7-4.2,45.9-2.4s123,1.8,123,1.8s23.4-7.7,26.1-29.9v-32.9l19-0.1l0.4,1.9l-5.8,0.1l-0.4,13.2l-3.4,1.9l1,9.5l9.9,0.2v1.5
		l24.4,0.7l2.2-25.5l-19.8-0.5L1246.3,918.1z M965.8,417.7c0,0,0.7,5.8,1.1,7.1c0.4,1.3,0.2,6.7,0.2,6.7l-3.5,13.6l-3.3,11.6
		l-4.4-3.3c0,0-3.8-0.9-5.3-1.1c-1.2-0.2-3.9-0.6-5.2-0.8l0.4-3.9l2-32.2l-1.1-11.3l-0.3-1.7l13.1,9.7L965.8,417.7z M926.8,537.9
		c0-0.9,2.7-8.2,2.7-8.2l5.1-12.2l4.7-8.4c0,0,0.9-6.4,0.9-7.1s1.1-11.3,1.1-11.3l2.7-23.8l1-10.9l2.5,0.7l7.8,1.8l3.1,3.3l-0.7,12
		l-3.6,27.5l-0.7,25.6l-1.3,6.2l-4.4,6.9l-6,7.3c0,0-8.5,4.7-9.6,5.1c-0.7,0.3-3.2,2-4.9,3.2l-0.9-8.7
		C926.3,546.8,926.8,538.8,926.8,537.9z M281.7,475.2l3.2,0.7c-4.6,0.6-7.7,2.1-9.7,3.6l0.2-9.4L281.7,475.2z M335,655l-4.2,11.1
		l-1.6,6.9l-1.1,10c0,0-0.2,8.4-0.2,9.1s-2.2,8-2.2,8l-6.2,7.1l-26.4,26c-12.2,11.1-12.7,30.2-12.7,30.2l-1.3,28.5l-0.4,40.9l-0.5,6
		c-1.1,1-2.1,2-3.1,3.1c-0.7,0.9-3.8,0.9-3.8,0.9l-4.9,0.1l0.1-8l2.4-134.2l4.7-143.1l1.5-73.1l7.7-5.3c0,0,6.4,0.2,7.1,0.2
		s7.3,1.6,7.3,1.6l5.8,2.9c0,0,5.6,0.2,7.6,0.2s6,2.2,6,2.2s4.9,3.3,5.5,3.6c1.8,0.4,3.7,0.7,5.6,0.9c0.7,0,4.7,0.9,5.5,0.9
		s1.3,1.8,2.2,2.4s0.7,5.3,0.7,5.3v20.7l0.6,34.8l-4.6,5.1c-1.2,0.6-2.4,1.1-3.7,1.5c-1.5,0-3,0-4.5-0.1c0,0-1-1-1.6-0.6
		s-1.9,1.2-1.9,1.8s-0.2,1.8,0.3,2.2c1.1,0.9,2.5,1.5,3.9,1.8c1.5,0.3,0.4,0.6,2.4,0.3s2.5-0.6,3.9-0.7c1.1-0.1,2.1-0.5,3.1-1
		c0.9-0.5,1.8-1.1,2.5-1.9c0.1-0.2,0.3-0.4,0.4-0.7l0.6,37.8L335,655z M338.8,493.1c-0.2-0.7-0.4-1.2-0.4-1.2l-4.9-4.2l-7.8-1.3
		c0,0-3.8-0.9-5.8-1.1s-6-3.1-6-3.1s-6.2-1.5-6.9-1.5c-0.2,0-2-0.5-4.4-1.1l12.6,0.9l32.7,2.6C344.7,484.4,340.2,487.5,338.8,493.1z
		 M718.8,577.6l-7.8-0.2c0,0-2.8-0.3-3.6-0.4s-3.6-1.3-3.6-1.3c-0.6-0.7-1.4-1.4-2.2-1.9c-0.5-0.3-1-0.7-1.5-1l20.9,4.1l1.7,0.5
		L718.8,577.6z M488.1,772.5l6.7-1.8l-0.4,6.7L488.1,772.5z M817.7,926.1L817.7,926.1l-11.6,12.5c-2.2,2-9.1,2.3-9.1,2.3l-31,0.3
		l-73.2,2.7c-9-1-11.8,7.9-11.8,7.9l-11,20.6c-3.3,4.6-10.1,1-10.1,1l-7.3-9.5c-10.2-19.8-12.3-48.6-12.3-48.6c-1.3-7.8,5-7.7,5-7.7
		l60.8-1.8l-1.3-10.8c6.5-3.3,19.1-1,19.1-1l6.5,2.7l30.1,10.7l36,8.2l16.9,3C821.4,919.9,817.7,926.1,817.7,926.1z M949.3,953
		h-26.8c0,0-2.4-16.2-0.4-23.6c0,0,1.8-9.2,14.2-8.4l13.6,0.6L949.3,953z M966.3,915.2l8.6,5.9l-9.3,7.1L966.3,915.2z M980.2,953.7
		l-6.8,1.9c-1.8-2.7-4.9-4.3-8.1-4.3c-0.5-15.1,17.9-23.8,17.9-23.8L980.2,953.7z M994,928l0.2-4.7l5.3-1.2L994,928z M1018.9,949.8
		l-11.3,0.3c0,0-2.4,0.6-2.4-3l0.7-19.1c0,0,1.3-8.3,5.8-8l8-0.9L1018.9,949.8z M1062.2,972.6h-9.3l1.3-55.1l12.7-0.7L1062.2,972.6z
		 M1090.4,973.3l-7-0.3l1-18.7l-9.3-0.1l-0.9,17.9h-1.9l5.3-55.5l16.6,0.4L1090.4,973.3z M1116.8,973.7l-21.8-0.6l4.2-56.2l18.4,0.2
		L1116.8,973.7z M1136.1,973.7l-14.4-0.2l0.7-56.3l15.4,0.1L1136.1,973.7z M1157.6,974.5l-16.4-0.6l1.8-56.3l14.7,0.3V974.5z
		 M1176.1,974.3l-14.2-0.1l1.2-56.6l14.5,0.6L1176.1,974.3z M1191.5,975l-10.1-0.3l1.5-56.9l11.7,0.2L1191.5,975z M1213.6,952
		c-2.3,8.9-8.6,16.1-17,19.7l3.3-53.6l14,0.2l0.3,30.2L1213.6,952z"/>
	<polygon class="st2" points="1500.3,779 1487.5,770 1486.3,797.7 1496.8,823.9 1503.2,823.4 1506.8,819.2 1503.2,784.1 	"/>
	<polygon class="st2" points="1511.1,845.6 1505.7,844.6 1501.4,845 1497.7,846.9 1513,868.4 1515.4,869 1521.7,863.2 1522.8,862.3 
		1519.2,856.7 	"/>
	<path class="st2" d="M1753.3,933.3l5.3-6.5l14.8-19l-2.9-1.5l-18.7,23.1l-4.4,10.7l-3.3,6.8l1.5,10.7c0,0,4.2,7.4,5,8.6
		s11,11.5,11,11.5l2.1-6.5l-9.5-8.9l-4.2-5.9l-1.8-4.5c0,0-0.6-4.7,0-5.6S1753.3,933.3,1753.3,933.3z"/>
	<path class="st2" d="M1915.4,957.6l-27.6,0.6l-62.5,13.6l-30.8,7.7l-31.1,14.2l-20.7,11.6h-3.8l-22.5-8l-6.2-3.9l6-13l29.1-68.7
		c0,0,6.2-9.1,16.2-5.8l2.9-9.6l-7.1-2c0,0-5.6-0.9-2.7-9.3l27.1-69.6l20.4-46.9l-3.8-1.1l-25.1,56.9l-10.9,23.1l-7.1,16.7
		l-10.4,30.7l-3.3-1.1l16.7-48.7l3.8-14.9l52.9-108.9l-2.8-2.4l-58.1,112l-19.6,64.6l-17.8-2.7v-5.3l0.3-5.9c0,0,5.6-5.3,6.5-5.6
		s9.8-3.8,9.8-3.8l7.8-11l2.2-12.4l0.7-10c0,0-0.7-6.5-8.9-8.5l-46-2.4l-8,15.5l-25.6,1.8l1.3,21.6c0,0,0.2,3.5-4.7,3.5l-8.4-0.4
		l-6.2-2l-9.6-4.9l-3.3-7.8l-28.2-112.9l-3.8-2.2l4.9-7.8c0,0-2.4,8.5-1.1,8.2l1.3-0.2l2.7-12.7l3.8-5.8l55.8-54.7l37.3-36.7
		l18.7-18.7l8.2-6.9l8.4-3.6l5.3-2.7l-0.9-8l12.7-1.3l15.6-6l65.1-23.1l31.7-11.7l-0.9-3.8L1751.2,585l-8,1.3h-7.1l-1.8-1.3l-8-1.8
		l-12.4,1.1l-7.8-1.5l-5.8-0.9l-4.4,4.2l-2.9,6.2l-2.4,13.1l-0.2,7.3l2,7.8l-1.8,8.4l-2.4,4.2l-62.9,62.9l-26.9,26.5l-4.9,8.4
		l-5.1,8.4l-3.1,3.3c0,0-7.8,0.7-8.4,0.7s-8.7-1.3-8.7-1.3l-4.2-0.4l-3.8,9.5l9.1,2c0,0,12,1.3,13.1,1.1l5.6-1.1l8.4,27.8l22,84
		l1.3,13.1l0.9,8.5l-2,4l-4.4,0.9l-5.3-2.2c0,0-4-0.9-4.7-0.9c-1.5,0-3-0.2-4.4-0.4c-1.9-0.2-3.9-0.2-5.8-0.2l-6.9,0.9l-3.6,2
		l-0.2,2.9c0,0,0,0.9,1.3,0.9s2.2-0.2,3.8-0.2s15.3-1.3,15.3-1.3l6.9,2.2l8.2,3.8l4.7,5.3l0.9,4.2l-46.9,0.5l0.9,9.5l45.8,0.9
		l-0.2,10l-0.2,9.1c0,0,0.7,7.6,8,9.3c0,0-0.9,11.8-0.9,13.3s-1.1,15.8-1.1,15.8l-9.3,31.1l-14.7,39.5l-10.7,20.9l-14.7,16.9
		l6.7,0.4c0,0,4.7-5.8,4.9-6.4s8.2-13.1,8.2-13.1l8.4-17.6l14.4-37.8l8.9-30.7l4-16.9l2.9-7.3l6.9-2.2c0,0,6-0.5,6.7,0
		c0.8,0.4,1.6,0.7,2.4,0.9l-4,12.9l8.9,2.7l4-13.5l15.1,1.5l11.1,4.5c0,0,5.1,4.9,6,5.1s3.8,8.2,3.8,8.2l-0.7,4.9l-49.3,105.1
		l6.9,0.2l44-94.4l37.3-86.9l3.3-0.7l-56.4,131.3l-24.7,51.6l6.4,0.2l38.7-83.3l10.5,3.2l13.9,8.9l3.3,2.9l-0.3,0.5l-7.1,15.1
		l-2.1,6.5l-0.6,9.2l4.2,8.6l-4.4,4.7l-10.1,1.8l-11.3,3.3l-8.3,5.3l-3,5.3l-1.2,7.7l5.3-0.3l-1.2-5.3l3.6-5c0,0,3.9-2.9,6.5-3.8
		s10.7-3,10.7-3h7.1l-5.6,15.7l3.6-0.6l4.4-11l4.4-8.3l3-4.7c1.4,0.5,2.8,1.1,4.2,1.8c0.9,0.6,3,3.8,4.2,5s2.7,5.3,2.7,5.3l0.6,7.7
		l-1.5,5.9l5.6,0.6l0.9-3.6V1072l-7.4-11l-8.3-4.4l-1.5-2.1c0,0-2.4-6.2-2.4-7.7s0.6-7.1,0.6-7.1l3.8-11l7.1-13.3l5.6-7.7l17.5-10.4
		l32.6-14.5l30.8-8.3l61.9-12.7l27.6-0.6l8.6,2.1l0.6-5.6H1915.4z M1693.9,605.4c0,0,2.2-6,2.2-7.3s1.1-7.8,1.1-7.8l8.9,2.2l5.6,1.8
		l2,2.2c0,0-0.5,5.8-1.1,7.3c-0.8,2.3-1.5,4.7-2,7.1c-0.2,1.1-4.2,5.6-4.2,5.6l-7.3,6.7l-4.9,4.9l1.3-6.9l-1.6-4.2l-0.2-5.6
		L1693.9,605.4z M1631.7,888.6l-1.8-4.2l2.7-2.3c0,0,1.1-2,2.4-2c2.3-0.3,4.6-0.8,6.9-1.3c0.9,0.2,1.8,0.2,2.7,0.2
		c1.3,0.1,2.5,0.3,3.8,0.7l2.7,1.5c0,0,3.3,9-3.2,11l-3.1,1.1l-5.6-1.5l-3.3-1.3L1631.7,888.6z M1705.2,952.1c0,0-6.9,0.5-8.4,0.2
		s-7.6-1.8-7.6-1.8l-10.4-1.8l-22-4.5l-15.6-3.5c-8.4-1.3-7.6-6.9-7.6-6.9v-6l0.2-16.7c0.9-8.4-1.1-11.3-1.1-11.3l1.1-0.7l6-0.9
		c0,0,7.3,1.1,8,1.3s2,1.1,2.9,1.5s0.7,4,0.7,4.7s-1.6,6.7-1.6,6.7l-0.7,8.9l0.9,8.9l2.2,3.6c0,0,5.6,3.5,6.2,4s8.9,2.4,8.9,2.4
		l31.3,8.5l4.4,0.7l4.4-2l1.3,2.9L1705.2,952.1z M1720.8,930.8l-1.1,3.1c-0.7,0.9-1.8,1.4-2.9,1.5c-1.6,0-4.7-0.2-6.4-0.2
		c-1.8-0.1-3.6-0.5-5.3-1.1c-1.1-0.4-3.3-2.9-3.3-2.9l-1.3-5.5l0.4-4.5l4.7,0.5h4.2l6.2,3.3l4.9,3.6V930.8z M1727,913.7l-5.1-0.2
		l-5.3-1.1c-0.9-0.8-1.7-1.7-2.4-2.7c-0.4-0.9-0.4-6.5-0.4-6.5l1.1-1.8l16.9,2L1727,913.7z M1734.8,1015.1l-7.3-6.3l-13.3-7.1
		l-6.9-2.4l1.1-2.4l13.5,6.1l16,5.9L1734.8,1015.1z"/>
	<path class="st2" d="M1017.6,1062.2l0.6,9.8l8.9,12.4l6.5-0.3l-7.4-7.1c0,0-3.3-5-3.3-5.9s-1.2-11.8-1.2-11.8l20.5,0.3l0.3-17.2
		l-25.5,0.3L1017.6,1062.2z"/>
	<path class="st2" d="M994.8,1030.8l-0.6-4.4l-51,1.2l-8.3,9.8l-5.3-0.3l-2.4-4.4l-2.4-3.9l-5.3-6.8l-5.9,0.3l5.6,5.3l4.2,5l1.8,4.7
		l-9.5-1.8l-8.9,1.2l-2.4-8.3l-107,1.5l-122.1,3.8l-38.8,1.5l-16.3,1.2c0,0-18.7,0.9-22.8,16.9l-4.1,13l-2.3,15.7h5.9l1.2-7.1
		l3.3-16l3.3-8.9c0,0,5.6-6.2,6.5-6.2s10.7-3,10.7-3l64,4.2l101.3,6.8l18.1-0.9l19.8-0.3l27.3,2.4l50.4,2.4l3.3-14.5l14.8-0.3
		l9.5,1.2l4.1,0.6v13l3.9,0.9l3.5,5.9l0.3,21h8.3l0.3-24l10.7-2.7h13.9l0.6,27.8h3v-27l13-0.6l-0.9-8.9l1.8-3.6l2.7-4.7l3,4.7
		l2.7-1.2l7.7-4l-3.8-8.6L994.8,1030.8z"/>
	<polygon class="st2" points="597.7,1022.5 590,1022.8 588.6,1015.1 580.8,1017.4 581.2,1029.9 597.2,1030.5 	"/>
	<path class="st2" d="M421.4,990.1l-18.7-36.7l-14-58.4l-4.9-20.7l-16,54.7l-2,34.7c0,15.1,12.4,39.3,12.4,39.3l9.8,6.7l19.8,6
		l25.8,2l5-0.2c3.9-1.8,3.6-11.8,3.6-11.8L421.4,990.1z"/>
	<path class="st2" d="M406.6,566.3l-5.3-0.7l-5.3-0.5l-7.1,0.2l-6.5,0.2l-8.7-0.9l-3.1-0.9l-2.9,20.7l-2.5,16.7l-1.3,14.7l3.1,3.3
		l8.2-12.9l8.5-8.7l10.7-4.5l9.1-2.7l10.5-3.8l-2.7-14.7C411.2,572.1,411,567.4,406.6,566.3z"/>
	<path class="st2" d="M448.9,641.8c-0.5,0.6-1.2,1-1.9,1.2c-1.3,0.4-1,0.4-3.9,0.4c-1.5,0.1-3-0.2-4.3-0.9c0,0-6.5-0.6-9.3,0
		s-2.1,1-3.1,1.5c-1,0.5-5.2,3.1-5.2,3.1c-0.9,0.9-1.9,1.7-3,2.4c-1.2,0.8-2.3,1.6-3.4,2.5l-3.8,0.7c0,0-4.9,0.3-5.9,0.3
		c-1.1,0-7-0.4-7-0.4s-4.9-1.5-5.3-1.5s-5.9-2.5-5.9-2.5l-4.7-4.9l0.6,5.8c0.7,0.9,1.4,1.8,2.2,2.7c0.4,0.3,3.9,1.6,4.3,1.8
		s4.9,1.5,5.6,1.6s4.7,1.5,5.6,1.8c0.9,0.3,5.8,0.9,5.8,0.9s6.5-0.7,7.3-0.9s6.4-4,6.4-4c1.2-0.5,2.3-1.2,3.4-1.9
		c0.6-0.6,4.4-2.8,4.9-3.7s2.2-0.3,3.7-0.3c1.2,0.1,2.4,0.4,3.4,1l2.4,1.3c0,0,4,1.3,4.5,1.3s4.4-0.1,4.4-0.1l3.7-1.3
		c12.7-7.3,7.8-20.7,7.8-20.7c-1.5-4.9-6.3-8-11.4-7.4l-4.4,0.8l-8.3,0.8c-8.9-2.9-4.7-21.3-4.7-21.3l-4.8,0l-0.6,5.6
		c-1,1.1-2.2,2.2-3.4,3.1c-1.2,0.7-2.4,2.8-3.1,3.6s0,2.4,0,2.8s1.2,3.8,1.2,3.8l2.4,3c0,0,3,2,3.9,2.5c0.9,0.5,3.1,1.3,3.6,1.5
		c2.9,0.1,5.8-0.1,8.6-0.6c3.6-0.6,7.4-0.9,7.4-0.9l4.7,2.1c1,0.4,1.9,2.4,1.9,2.4s0.3,2.2,0.3,3.3s0.2,3.1,0.2,3.1l-0.6,3
		L448.9,641.8z"/>
	<path class="st2" d="M727.5,240.8c-8.9,9.6-10.4,26.2-10.4,26.2l-4.5,37.8l0.9,3.3c0.4,0.9,0.8,1.7,1.3,2.5
		c0.6,0.6,1.3,1.2,2.1,1.6l5.5,1.7l0,0l27.8,3.7l33.6,2.5l3.4-0.4l3.4-0.6l0.3,0l0.6,17.1l1.8,10.2l4.7,25.8l4.2,18.5l3.6,9.1
		c0,0,3.8,15.5-3.3,35.1l-0.9-2l-1.1-10.2l-1.1-8.2l-3.5-6l-8.9-9.6l-6.7-6.5l-6.2,4.2l10.2,6.7l7.1,6.7l3.8,10.9l1.1,13.8l0.9,5.8
		l-3.8,37.6l7.8,0.7l4.9-33.8l2-4.2l6.5-4.7l3.8-4.5l4.2-7.1c0,0,1.5-3.8,1.8-4.4c0.2-0.7,1.1-5.1,1.3-6s2-9.1,2-9.1l-1.3-10.2
		l-7.3-15.3l-4.4,2.9l5.3,9.3l4.2,12.7c0,0-2.2,14.2-2.4,14.9c-0.2,0.7-6,10.2-6.5,10.9c-0.5,0.7-6.9,4.7-6.9,4.7l2.9-9.6l0.9-12.7
		l-1.3-12.7l-2-12c0,0-6.9-22-6.7-23.3c0.2-1.3-6-28.4-6-28.4l-1.1-18.5l1-0.8l0.4-1.9l3.6-31.9l0.9-7.9l13.2,1.5l19.2,2.6
		c0,0,6.4-1,6.8-1.2c0.4-0.2,5-2.1,5-2.1l3.1-3.4l2.4-3.9l6.3-33.1l1.6,0.2l55.9,6.7c0,0,42.8,4.8,79.7,8.9l-20,11.5
		c0,0-21.3,15.8-11.4,40.4c0,0,3.4,18.5,24,18.7l0.3,8.9l2.1,3.3c0,0,6.8,14.2,21.9,14.5c0,0,13.3,1.9,24.7-20.6l8.3,0.3
		c0,0,14.3,2.1,23.8-7.7c0,0,5.8-4.6,8.4-14.1c2-0.5,4.9,0,7.9,3.6c6,7.1-4,13-4,13l-30.9,23.7c0,0-29.6,19.4-16.2,35
		c13.3,15.6,28.2,2.1,28.2,2.1l10.1-6.9l46.9,18.4l4.9,1.9l3.2,1.7l3.4,4.5l9.7,30.3c-4.3,18.4-13,16.7-13,16.7
		c-10.9-1.5-8.8-13.5-8.8-13.5l1.9-19.7c-0.2-13.1-12.3-9.7-12.3-9.7l-19.4,13.2c-8,5.3-2.2,14.5-2.2,14.5l32.1,46.8
		c8.2,15.6,20.1,13.9,20.1,13.9c14.2,0.5,18.7-11.1,18.7-11.1c6.6,10.1,18.1,5.8,18.1,5.8c13.6-4,13.7-18.9,13.7-18.9l-1.4-24.1
		c-0.4-17.5-2.9-25.8-2.9-25.8c-5-19.2-17.1-25.5-17.1-25.5c-4.1-3.2-0.8-5.1-0.8-5.1l4.2-2.7l6.1-3.3c10.1-7.4-0.3-19.8-0.3-19.8
		l-18-23.7l-21-25.7l-15.2-17.8l-22.2-19.9c-11.8-10.9-26-12.4-31.8-12.5c-1.7-2.5-3.7-4.9-5.9-7.1c22.8,2.6,62.7,7.1,62.7,7.1
		l3-1.6c0.4-0.8,0.6-1.7,0.7-2.7c-0.2-0.6-0.5-1.2-0.9-1.8l-1.9-2.2l-72.9-7.3l-2.8-3l-41.5-3l-2.5,0.4l-43-4.7l-69.2-7.9
		c0,0,3.5-4.6,2.5-6.5l56.3,6.7l1.8-29.8l1.3-5.8l0.3-4.7l-11-0.3c0,0-3.7,1.3-4,1.8s-4.8,4-4.8,4s-7.1,0.6-7.5,0.7
		s-5.8,1.2-5.8,1.2l-6.2,0.6l-4.2,0.1l-6.7,0.7c0,0-5,0.4-5.5,0.4s-4.9-1.6-4.9-1.6s-5.6-3-6.1-3.1c-1.2-0.8-2.4-1.4-3.7-1.9
		c-1.6-0.5-5.5-1-5.5-1l-5-1.3c0,0-4.3,1.2-1.8,3.9l7.8,2.4l1.6,0.2l4.1,6.5l0.3,5.3v10.8l-1.6,3.6l-2.2,2.4l-3.3,2.2l-0.2,1.2
		l-28.5-3.5l3.2-19.2l-15.7-1.5c-6.8-11.1-17-9.2-17-9.2l-14.2,0.6c-14.7-3.3-24.4-3-24.4-3s-2.7,0.3-4.6,0.6s-1.8,0.9-2.7,1.5
		c-1.1,0.9-2.1,1.8-3,2.8l-3.1,3.3l-3.5,5.2l-2.7,1.3l-4,3l-3.3,4c-6.4-1.8-6.8,4.7-6.8,4.7L727.5,240.8z M991.9,312.9h-4l-5.1-0.1
		l-5.1-2.7c0,0-3.1-2.2-3.7-2.8s-3.2-8.2-3.2-8.2l-1.6-7.7l0.3-2.1l33.9,2.3l1.3,1l0.1,2.2l-6.8,13.1l-3,2.9L991.9,312.9z
		 M1020.4,332.7l-23.7-2c0,0-0.8-1.3-0.9-1.7s-0.2-5.8-0.2-5.8s3.4-0.2,3.8-0.1c0.3,0.1,25.2,3.6,25.2,3.6L1020.4,332.7z
		 M1032.2,317.9L1032.2,317.9l-27.9-3.5c9.5-13.1,9.5-21.8,9.5-21.8c0.7-10.3-12.9-10.5-12.9-10.5l-29.5-1.7
		c4.6-15.9,31.9-13.6,31.9-13.6l42.2,4.9c20,1.9,22.1,22.4,22.1,22.4c-3.5-1-7.1-1.2-10.7-0.5
		C1043.3,295.1,1032.2,317.9,1032.2,317.9z M1064.6,311.3L1064.6,311.3l-6,4.9c-6.7,4.6-16.2,2.5-16.2,2.5
		c2.7-6.5,10.3-13.1,10.3-13.1c6.3-5.8,14.9-1.7,14.9-1.7C1068.6,306.7,1064.6,311.3,1064.6,311.3z M1097.6,376.4L1097.6,376.4
		c-0.8,0-6.4-1-6.4-1l-10.7-5L1112,348l5.2,16.1l-0.9,1.2l-14.5,10.2C1100.4,375.9,1099,376.2,1097.6,376.4z M1108.6,381.7l12.1-8.9
		l4.3,16L1108.6,381.7z M1145.6,485.7c0,0-10.2,5.6-18.7-2.8l-34.8-50.1l-1-5.5l3.4-2.5l15.4-10.2c0,0,2.5,0.2,1.5,4.4l-1.8,20.7
		c0,0,0,15,14.7,18.2c0,0,11.4,2.7,18.7-12.5l7,24.1C1150,469.7,1153.7,481.7,1145.6,485.7z M1152.7,350.5l17.3,23.3l1.2,3.6
		l-12.4,8.3c-9.8,11.7,7.1,21.2,7.1,21.2c7.6,5.5,10.7,22.5,10.7,22.5l2.4,37.9c1.4,8.5-5.9,13.6-5.9,13.6
		c-7.7,5.9-12.2-5.6-12.2-5.6l-6.1-20l-26.2-87.1l21-13.9L1152.7,350.5z M1133.7,334.5l6.7,2.1l5.8,8l-4,3.3l-17.2,11.6l-4.3-11.9
		c-0.1-2.3,0.8-4.6,2.4-6.2l7.4-6.4L1133.7,334.5z M1123.6,315.3c3.7,11.9-7.8,19.1-7.8,19.1l-49.8,34.7c0,0-16.6,16.5-24.6,8.7
		c-8-7.8,4.3-17.6,4.3-17.6l42.7-32.9c0,0,9.1-9.3,5-19.2c-0.7-1.6-1.6-3-2.8-4.3l10.7-11.7l18.2,16.6L1123.6,315.3z M1092.6,284.1
		l2.4,2.2l-11.1,12.9c-2.5-1.1-5-1.8-6.6-2.1c0-2-0.1-4.2-0.5-6.5c-0.5-5.2-1.8-10.2-3.8-14.9
		C1082.9,277.2,1092.6,284.1,1092.6,284.1z M1054.3,264.4l-54.9-6.7l10.4-4.9c20.5,2.3,36.2,4.1,36.4,4.1c0,0,0.1,0,0.3,0
		L1054.3,264.4z M885.4,229c0.9-0.6,1.8-1.3,2.5-2.1c0.5-0.6,1.2-1.8,1.5-2.2c0.3-0.9,0.6-1.9,0.8-2.8l0.6-16.5l-2.2-4l-1.1-1.4
		c0.8,0.3,1.6,0.5,1.7,0.7c0.5,0.3,4,3,4,3l0.4,8.1l-1,9c0,0-0.6,3.6-0.9,4.3c-0.3,0.7-2.8,4.4-2.8,4.4l-3.9,1.6l-1.2-0.1l0.2-0.2
		C884,230.9,885,229.1,885.4,229z M793.3,281.9l-3.7,25.8l-0.4,4.9l-1.3,2.7l-3.9,0.2l-59.2-4.8l0.3-0.4l-3.8-0.6l-3-2.4L718,304
		l2.5-19.2l1.3-14.4l1-1.3l2-2.9l69.3,7.9L793.3,281.9z M845.9,266.4c-0.1,0.8-0.3,1.6-0.7,2.4c-0.6,0.7-1.5,2.1-1.5,2.1l-3.6,1.9
		l-4.3,1.3l-34.4-3.9l4.1-36.2l3.9-3.4l0.1-0.4l42.8,4.7L845.9,266.4z M841.6,224.1c0.4-0.7,0.8-1.4,1.2-2.1l2.7,0.7l1.5,1.5
		c0.5,0.5,0.3,2.3,0.3,2.6l-9.6-1.2l2.3-0.3C840,225.4,841.4,224.5,841.6,224.1z M762.8,215.8l2.4-1.9l3.1-1.6
		c0.9-0.7,1.7-1.4,2.5-2.2c0.3-0.5,1.2-2.2,1.2-2.2c1.1-1,2.1-2.1,3-3.3c0.3-0.8,2.4-1.8,2.4-1.8s1.3-1.2,2.2-2.1
		c0.9-0.9,2.8-0.7,3.3-0.7s4.3,0.2,4.3,0.2l5.3,0.1l7.1,1.2l4.9,1.3c1.5,0.1,3.1,0.1,4.6,0c1.8-0.1,3.6-0.4,5.3-0.7
		c1.2-0.3,4.5-0.2,5.3-0.3c0.9-0.1,5,0,5,0s1.6,0.5,2.5,0.6c0.9,0.3,1.7,0.8,2.4,1.3c3.9,3,6.7,7.2,8,12c0,0,0.9,2.2,1,2.8
		c0.1,0.6-0.9,2.8-0.9,2.8l-3.4,4l-20.4-2.5l-51.7-6.2c0.1-0.1,0.1-0.1,0.2-0.2L762.8,215.8z M752.3,224.6l0.8-0.4l45.3,4.9
		l-0.2,2.8l-1.6,18.2l-2,19.5l-65.7-7.9l-3.6-2.7l-0.4-6.1c1.3-2.3,2.7-4.6,4.3-6.8c1.6-2.1,3.3-3.8,3.3-3.8l8-6.5L752.3,224.6z"/>
	<path class="st2" d="M892.3,257.2c0,0,8.7-1.5,9.2-1.6l2.5-0.9l1.7-11.4l-42.7-5.2l-1,19.3l9.8-1c0,0,9.3,0.1,10.4,0.4
		C883.3,257,892.3,257.2,892.3,257.2z"/>
</g>
<g id="Buildings">
	<polygon class="st3" points="1026.6,548.8 1033.2,565.2 1036.3,564.1 1030.1,547.7 	"/>
	<polygon class="st3" points="1031,547.2 1037.7,563.4 1040.3,562.1 1033.7,546.1 	"/>
	<rect x="953.2" y="869" class="st3" width="19.3" height="12.2"/>
	<rect x="938.8" y="932.6" class="st3" width="10.2" height="16.9"/>
	<rect x="824.6" y="944.8" class="st3" width="16.7" height="7.3"/>
	<rect x="836.8" y="1030.3" class="st3" width="63.8" height="8"/>
	<polygon class="st3" points="945.2,1044.1 940.6,1044.1 940.6,1054.5 953.2,1054.5 953.2,1045.9 955,1045.9 955,1053.7 
		976.3,1053.7 976.3,1056.1 987.4,1056.1 987.4,1045.9 987.7,1045.9 987.7,1034.6 945.2,1034.6 	"/>
	<rect x="1018.8" y="1044.6" class="st3" width="15.8" height="8.4"/>
	<rect x="1011.7" y="970.6" class="st3" width="8.7" height="22.7"/>
	<rect x="1011.7" y="1028.3" class="st3" width="5.3" height="20"/>
	<rect x="1078.8" y="1028.3" class="st3" width="8.9" height="5.3"/>
	<rect x="1074.8" y="957.7" class="st3" width="8" height="15.8"/>
	<polygon class="st3" points="970.8,900.6 977.4,909.7 988.8,902.1 983.2,892.6 	"/>
	<polygon class="st3" points="1011.9,899.9 1006.1,900.3 1006.3,905 1012.6,904.3 	"/>
	<polygon class="st3" points="1022.1,902.1 1022.6,911 1034.6,909.9 1034.1,901.7 	"/>
	<polygon class="st3" points="1105,899.7 1097.2,900.3 1097.4,906.3 1104.3,906.3 1104.6,909 1115.7,909 1115.7,902.6 1105.4,902.6 
			"/>
	<polygon class="st3" points="1239.9,946.3 1264.3,947 1264.8,924.6 1240.8,923 	"/>
	<polygon class="st3" points="1223.4,923 1233.2,923 1233.2,919.2 1223.9,919 	"/>
	<polygon class="st3" points="1325.2,884.3 1331.4,889.4 1353.4,866.1 1347.7,860.3 	"/>
	<polygon class="st3" points="1265.4,890.6 1267.7,893 1273.9,887.2 1271.9,884.6 	"/>
	<polygon class="st3" points="1249.4,896.8 1249.4,893 1240.6,893.9 1240.8,897.2 	"/>
	<polygon class="st3" points="457.7,1042.8 481,1045.2 481.7,1036.1 458.3,1034.6 	"/>
	<polygon class="st3" points="443.9,1062.6 451.7,1063.2 451.7,1045.4 444.3,1045.2 	"/>
	<polygon class="st3" points="284.3,672.3 284.3,683.5 300,684.1 299.7,672.8 	"/>
	<polygon class="st3" points="344.7,607.4 351.5,607.7 353,592.8 346.2,592 	"/>
	<polygon class="st3" points="276.9,602 281,602.3 281.6,586.3 277.4,586.3 	"/>
	<polygon class="st3" points="860,266 862.6,274.6 885.2,266.3 882.2,258.3 	"/>
	<polygon class="st3" points="884.8,208.6 864.7,207.7 853.4,207.1 852.3,219.8 884,222.2 	"/>
	<polygon class="st3" points="1030,242.9 1014.3,241.7 1014,246.8 1029.7,248 	"/>
	<polygon class="st3" points="1038.3,244.7 1046.6,245.3 1047.8,233.4 1039.8,233.1 	"/>
	<polygon class="st3" points="1298.2,661.3 1303.2,666.9 1314.2,656.6 1308,651.5 	"/>
	<rect x="1323.4" y="617.7" class="st3" width="4.2" height="9.2"/>
	<rect x="1439.8" y="833.4" class="st3" width="10.4" height="3.3"/>
	<polygon class="st3" points="1479.2,705.7 1433,719.1 1438.6,736.8 1458.8,730.9 1460.3,734.2 1476,730 1474.8,726.2 1484.8,722.6 
			"/>
	<polygon class="st3" points="1470,673.2 1467.1,653.6 1441.6,656 1444,675.5 	"/>
	<rect x="1628.8" y="862.2" class="st3" width="12.2" height="15.1"/>
	<rect x="1685.7" y="834.6" class="st3" width="14.2" height="13.6"/>
	<rect x="1691.1" y="856.8" class="st3" width="16" height="13.9"/>
	<rect x="1673.6" y="884.1" class="st3" width="15.4" height="13.6"/>
	<rect x="1649.9" y="929.7" class="st3" width="5.6" height="6.2"/>
	<polygon class="st3" points="1687.2,928.6 1680.4,928.6 1680.4,936 1673.3,936 1673.3,942.2 1680.4,942.2 1680.4,942.2 
		1687.2,942.2 1687.2,942.2 1687.2,942.2 1687.2,936 1687.2,936 	"/>
	<polygon class="st3" points="1597.4,1001.2 1604.6,1001.2 1605.2,986.9 1598.6,986.6 	"/>
	<polygon class="st3" points="1580.8,1022.5 1588.8,1024.8 1596.3,1004.1 1588.6,1001.2 	"/>
	<polygon class="st3" points="1703.8,595.5 1692.3,592.6 1690.8,601.4 1701.4,604.4 	"/>
	<polygon class="st3" points="1699.1,530.3 1691.7,526.8 1680.1,545.2 1686.6,549.9 	"/>
</g>
</svg>
