<?xml version="1.0" encoding="utf-8"?>
<!-- Generator: Adobe Illustrator 24.0.1, SVG Export Plug-In . SVG Version: 6.00 Build 0)  -->
<svg version="1.1" id="Inactive_Configs" xmlns="http://www.w3.org/2000/svg" xmlns:xlink="http://www.w3.org/1999/xlink" x="0px"
	 y="0px" viewBox="0 0 1920 1080" style="enable-background:new 0 0 1920 1080;" xml:space="preserve">
<style type="text/css">
	.st0{fill:#A7A9AC;}
</style>
<title>inactive</title>
<path class="st0" d="M1885.7,679.3c-5.8-23-18-39.2-36.1-48.2c-17.2-8.5-35-8-44.1-7c-30.8,3.6-69.3,8.4-110.1,13.5
	c-67.9,8.5-144.9,18.1-210.9,25c-27.3,2.9-61.2-20.9-69.7-37.7c-23.2-45.6,3.2-84.3,22.4-100.1c52.6-43,107.2-96.7,143.3-132.2
	l7.3-7.2c8.3-8.2,15.8-16.2,22.5-24.1c36.7-29.1,45.9-76.6,44.9-106.8c0-0.2,0-0.3,0-0.5c0-1.3-0.1-2.5-0.2-3.7
	c-3.6-51.1-31.9-79.2-55-93.8c-29.3-18.5-62.8-23.7-84.4-22.4c-14.5,0.9-41.3,3.4-59,5.1l-6.9,0.7c-4.5,0.4-8.7,0.9-12.5,1.4
	c-27.3,3-64.2,7.4-100.1,11.6c-30.6,3.6-59.5,7-79.9,9.3c0,0,0,0,0,0c-57.1,6.1-138.2,14.3-224.1,22.9
	c-114,11.4-231.8,23.2-307.5,31.8c-70.6,8-101.6,17.3-131.3,30.9c-91.5,41.7-127.7,89.4-159.6,131.5c-38,50.2-57.3,70.4-82.4,86.6
	c-46.6,30-80.5,34.9-110.4,39.2c-4.2,0.6-8.2,1.2-12.1,1.8c-48.8,7.8-87.4,28.6-114.7,61.8c-27.3,33.1-34.9,68.6-37,86.8
	C72.5,701.2,63,777.4,55.5,838.7c-1.9,15.1-3.6,29.4-5.2,42.2c-3.3,27.1,0.7,47.3,12,60.1c14.8,16.8,38.5,16.7,49.8,16.7l70.5-0.2
	c193-0.5,433.1-1,581.5,0.2c0.6,0,1.2,0,1.9,0c40.5,0,70.1-10.7,87.9-31.8c12.6-14.9,19.1-34.7,19.3-59c0.1-13.6,1.2-134.6-1.6-193
	c-3.3-69.8,45-91.4,66-97.5c25.8-7.5,57.6-17.5,91.2-28.2c65-20.6,138.7-43.9,187.7-54.4c24.6-5.3,42.8-1.6,54.1,11
	c16.5,18.4,14.1,50.2,8.5,67.1c-10.8,32.5-33.8,91.4-66.3,170.3c-21.5,52.1-12.5,80.2-1.2,94.5c14.6,18.5,40.3,23.7,59.2,20.8
	c32.2-5.1,73.3-11.6,116.8-18.5c134.8-21.4,302.6-48,398.3-62c53.8-7.9,78.7-29.9,90.2-47C1886.3,714.4,1889.9,695.9,1885.7,679.3z
	 M1338,162.9c19.7-2.3,39.8-4.7,58.3-6.8c-2.1,2.3-3.8,4.9-5.5,7.9c-9.5,17.2-21.9,22.3-30.6,23.6c-11.3,1.7-31.8,4-45.3,5.4
	l-3.8,0.4c-17.1,1.9-26.2-6.8-28.9-15.6c-1-3.1-2.3-5.7-3.9-7.9C1295.8,167.9,1316.5,165.4,1338,162.9z M764.1,947.6
	c-65.6-0.5-149.2-0.7-238.8-0.7c-112.9,0-235.2,0.3-342.8,0.5l-70.5,0.2c-0.2,0-0.3,0-0.5,0c-15.7,0-31.5-1.7-41.8-13.3
	c-9.3-10.5-12.6-28.1-9.6-52.2c0.5-3.7,0.9-7.5,1.4-11.4c5.1,16.2,13.3,28.3,20.8,36.7c14,15.6,28.4,22.1,29,22.4l0.4,0.2l0.4,0.1
	c23.8,6.4,56.4,7.5,76,7.5c9.3,0,15.7-0.2,16.8-0.3l513.2,1c1.6,0.1,10.8,0.4,23.9,0.4c25.2,0,64.8-1.2,92-8
	C817.5,942,794.1,947.8,764.1,947.6z M1214.1,484c-49.4,10.7-123.2,34-188.4,54.6c-33.6,10.6-65.3,20.6-91,28.1
	c-11.3,3.3-32.8,11.7-49.7,31.3c-17,19.8-24.9,45.5-23.5,76.3c2.7,58,1.7,178.8,1.5,192.4c-0.2,18.5-4.3,34.1-12.3,46.4
	c-21.4,15.8-102.7,16.2-132.4,15l-0.1,0l-513.5-1c0,0,0,0,0,0c0,0-0.1,0-0.1,0c0,0-0.1,0-0.1,0c-0.6,0-55.5,2.2-89.5-6.7
	c-2.1-1-14.1-7.1-25.6-20.1c-16.7-18.8-24.4-42.5-22.9-70.4c7.3-59.3,16-129.9,21.1-173.2c6.7-57.6,48-124.6,143.4-139.9
	c3.9-0.6,7.8-1.2,11.9-1.8c29.4-4.2,66-9.5,114.4-40.7c26.3-16.9,46.1-37.7,84.9-89c32.7-43.2,66.6-87.8,155.8-128.5
	c28.8-13.1,59-22.2,128.3-30c75.6-8.5,193.4-20.4,307.4-31.8c85.9-8.6,167-16.7,224.2-22.9c7-0.8,12.2,0.4,14.7,8.5
	c3.7,12,16.4,25.2,39.6,22.6l3.8-0.4c13.6-1.5,34.2-3.8,45.7-5.5c15.5-2.3,28.9-12.5,37.9-28.6c5.1-9.3,10.7-14,39.1-17.5
	c4.1-0.5,8-0.9,11.7-1.3l6.9-0.7c17.7-1.7,44.4-4.2,58.7-5.1c20-1.2,51.2,3.6,78.4,20.9c21.2,13.4,47.1,39.1,50.4,86.1
	c0.1,1.2,0.2,2.5,0.2,3.7c0,0.1,0,0.2,0,0.2c1.1,32.2-12.3,64.2-41.7,98.9c-7.9,6.1-17.1,11.4-27.9,15.2
	C1500.1,396.1,1381.9,433.7,1214.1,484z M1867.6,724.5c-10.3,15.4-33.1,35.3-83.3,42.7c-95.7,14-263.5,40.6-398.4,62
	c-43.5,6.9-84.6,13.4-116.8,18.5c-16.1,2.5-37.8-1.8-49.8-17.1c-13.9-17.6-13-46.8,2.6-84.5c33.1-80.3,55.5-137.8,66.6-171
	c6.4-19.1,8.8-55.3-10.5-76.9c-5.4-6-13.6-12.1-26.2-15c149.6-45.2,256.9-79.5,327-104.5c0.8-0.3,1.6-0.6,2.5-0.9
	c-0.2,0.2-0.4,0.4-0.6,0.6l-7.3,7.2c-36,35.4-90.4,88.9-142.6,131.6c-21.5,17.6-51,61.1-25,112.4c9.9,19.5,46.8,46.6,79.7,43.2
	c66.1-7,143.2-16.6,211.1-25.1c40.8-5.1,79.3-9.9,110-13.5c13.1-1.5,56.7-2.5,69.4,47.7C1879.5,695.6,1876.5,711.2,1867.6,724.5z"/>
</svg>
